<svg version="1.1" id="Layer_1" xmlns="http://www.w3.org/2000/svg" x="0" y="0" viewBox="0 0 738 787" xml:space="preserve"><style>.st1{fill:#bcbcbc}.st2,.st3{fill:#fff;stroke:#000;stroke-width:.5;stroke-miterlimit:10}.st3{fill:#ccc}.st5{fill:#1a1a1a}.st12,.st13,.st14,.st6,.st7,.st9{fill:#1a1a1a;stroke:#000;stroke-width:.5;stroke-miterlimit:10}.st12,.st13,.st14,.st7,.st9{fill:none}.st12,.st13,.st14,.st9{fill:#eaeaea}.st12,.st13,.st14{fill:#f2f2f2}.st13,.st14{fill:#0077bf}.st14{fill:#eb058c}.st15,.st16{opacity:.3;fill:#eb058c;enable-background:new}.st16{opacity:.2}.st17{fill:#ffe600;stroke:#000;stroke-width:.5;stroke-miterlimit:10}.st18{fill:#eb058c}</style><path d="M546.9 516.6S711 553.3 732.5 368.4c0 0 50.4-214.5-205.5-309.9 0 0-111.8-51.1-288.2-1.2 0 0-141.9 56.5-191.7 176.8 0 0-89.1 206.9-15.5 392.1 0 0 59 241 251.9 128.8 0 0 62.4-44.6 64.3-138.2 0 .1-6.7-144.9 199.1-100.2z" fill="#f5f5f5" id="Layer_7_4_"/><ellipse class="st1" cx="185.9" cy="720.7" rx="109.1" ry="10"/><ellipse class="st1" cx="388.6" cy="426.5" rx="58.1" ry="5.3"/><ellipse class="st1" cx="566.5" cy="600.9" rx="68.8" ry="6.3"/><path class="st2" d="M398.2 177.2l2.2 10.6-8 6-4.2-5.1-1.9-10.1z"/><path class="st3" d="M363.3 185.5l21.6 3.1 17 .4 21.6-4.2-4.9 77.9h-48.7z"/><path class="st3" d="M384.9 188.6l-20.9-5.1c-3.8-.9-7.3 2.3-6.7 6.1l7.6 51.3 49.1-19.4-2.7-7.9-34.7 9.3-3.5-23.4 11.8-10.9z"/><path class="st3" d="M401.9 189l20.8-6.2c3.1-.9 6.2 1.7 5.7 4.9l-8 55.4-41.6-14v-8.6l29.9 4.8 4.7-30.1-11.5-6.2z"/><path class="st3" d="M383.2 221.2l28.1-7.6 2.7 7.9-7.8 3.3z"/><path class="st2" d="M378.7 220.5s-6.9-3.9-9.3-3.8c-2.3.1 0 3.2 0 3.2s-6.9-2.1-8-1.1 1.5 7.7 4.3 8.5c2.8.9 13 1.8 13 1.8v-8.6zM411.3 213.6s7.2-6.6 7.4-5c.1 1.6 0 2.4 0 2.4l6.8-3.3s1.4 3.4-1.2 8c-2.5 4.6-10.3 5.9-10.3 5.9l-2.7-8zM385 182.4l-4.8 5 2.4 9.9 9.8-8.5zM401.6 182.4l-9.2 6.4 7 8.5 4.6-7.1z"/><path d="M369.9 262.7l-11.3 78.5 20.5 78.5s10.2-.3 9.9-1.2-13.2-76.1-13.2-76.1l13.5-53.2-5.3 50 16.7 79.6h8.7l-8.1-79 16.4-47.1.9-30.1h-48.7v.1z" fill="#848484" stroke="#000" stroke-width=".5" stroke-miterlimit="10"/><path class="st5" d="M409.5 419v7.5h-4.1v-1.9l-2.6 1.9h-18.9l16.8-7.5z"/><path class="st5" d="M388.6 419v7.5h-4.1v-1.9l-2.6 1.9H363l16.8-7.5z"/><g id="Layer_7_1_"><path class="st2" d="M385.6 181.4c1.3.8 2.6 1.7 4.2 2 1 .2 2.2-.1 3.3-.4l.5-.1c1-.1 1.9-.5 2.7-1.1 1.3-1 2-2.4 2.8-3.7.6-.9 1.3-1.7 2.1-2.5.4-.4.8-.9 1-1.5.3-.7.5-1.5.6-2.3.1-1.2-.5-2.9.2-4 .6-1 1.4-1.5 1.7-2.7.5-2.2.4-4.5-.3-6.6-.2-.6-.7-1.5-1.4-.7-.3.3 0 .9-.3 1.2l-.1 1-1.2.3c-.2-.9-.4-1.8-.4-2.7-.4-1.9-.7-3.8-1.6-5.6-1.1-2.2-4.9-2.5-7.1-3.2-.4-.1-1-.5-1.4-.5-.6 0-.3 0-.7.4-1.8 1.7-2.7 3.1-5.3 3.7-2.1.5-4.3.6-6.4 1.2-2.8.9-4.9 3.5-4.6 6.4.1 1.1.5 2.2.7 3.3.1.8.3 1.5.5 2.3.1.2.1.5.2.7l-1.5.4c-.1-.2-.1-.5-.1-.6-.1-.4-.1-.7-.2-1-.1-.2-.2-.3-.3-.3-1-.4-1.1.7-1 1.3.4 2.2 1.3 4.3 2.7 6 .8 1 1.7 1.1 2.7 1.7 1.1.7 1.4 2.4 2 3.5.4.7.9 1.3 1.5 1.8.4.3.8.6 1.3.8 1 .6 2.2.9 3.2 1.5z"/><path class="st6" d="M373.6 166.4c0 .1.1.4.1.6l1.5-.4c0-.3-.1-.5-.2-.7-.2-.7-.4-1.5-.5-2.3-.2-1.1-.6-2.2-.7-3.3-.4-2.9 1.8-5.5 4.6-6.4 2.1-.7 4.3-.7 6.4-1.2 2.6-.6 3.5-2.1 5.3-3.7.5-.5.1-.4.7-.4.4 0 1 .4 1.4.5 2.2.7 6 .9 7.1 3.2.9 1.8 1.2 3.7 1.6 5.6.1.9.2 1.8.4 2.7l1.2-.3.1-1c.1-1 .2-2.1.1-2.5-.1-1.5-.3-3.1-.6-4.6-.4-3.7-1-7.2-4.1-9.7-3.3-2.6-7.6-3.6-9.5-2.9-.1 0-1.5.5-1.2.6-.9-.4-2.1-.2-3.1-.2-5 .1-10.3 4.2-13.1 8-2.9 4-1.4 7.8-.1 11.6.5 1.3.8 2.8 1.5 4 .4.6.6 1.3.8 1.9.2.2.3.5.3.9z"/><path class="st7" d="M390.3 158.3c.9-1.2 3.1.1 4.6 0M379.1 162.1c1.4-.7 2.3-2.6 3.8-2"/><circle class="st6" cx="392.2" cy="160.4" r="1.2"/><circle class="st6" cx="381.4" cy="162.8" r="1.2"/><path class="st7" d="M387.7 175.8s4.4-2.9 8.9-1.4l.3 1.1-8.6 1.6-.6-1.3zM386.8 163.1c.6 1.2.9 2.5 1.1 3.9l.3 3c0 .5.2 1 .4 1.5.3.4.8.6 1 .3"/></g><path class="st7" d="M362.1 175.3l-8-5.8v9.1l-11-1.5 3.7 4.4-11.9 3.2 9.3 4.8-9.3 5.7 6.4 1.7-6.4 7.9 8.2 2.8-8.2 8.8h9.5l-5.7 10.4h7l-7 6.6h6.8l-5.2 8.2 8.2 3.1M423.8 170.9l7.9-5.7v9.1l11-1.5-3.6 4.3 11.9 3.3-9.3 4.7 9.3 5.7-6.5 1.7 6.5 7.9-8.3 2.9 8.3 8.8h-9.6l5.7 10.4h-7l7 6.5h-6.7l5.2 8.2-8.2 3.1M354.1 274.2c-.6 0-8.7 2.8-8.7 2.8l8.7 2.8-8.7 6.7 5.6 2.6-7.2 6.5 7.2 2.8-5.6 7 5.6 2.6-7.2 5.7 7.2 2.8M432.3 273.8c.6 0 8.4 3.5 8.4 3.5l-8.9 2.1 8.1 7.4-5.8 2.1 6.7 7-7.4 2.3 5.1 7.4-5.8 2.1 6.7 6.3-7.4 2.3"/><g><path class="st2" d="M371.5 160.4l.9 16 3.2-16.4zM376.8 144.5l2.1 15.9 2.5-15.9zM399.2 151.5l1 15.9 2.2-14.5zM389.6 198.8l1.1 17.7 3.6-14.3zM419.7 190l1 15.9 4.4-18zM360.9 187l2.1 16.1 2.4-17.6zM370.8 238.4l.9 15.9 3-17.1zM404.9 243.7l2.6 12.8 1.8-15.6z"/></g><g id="Layer_7_2_"><path class="st2" d="M553.3 433.5l4.3 156.2h7.2l15-156.2z"/><path class="st2" d="M573 433.5l8.5 156.2h6.3L601 433.5z"/><path class="st5" d="M565.6 589.7v13.6h-2l-1.4-5.7-3.6 5.7h-20c7.7-1.6 14.2-6.6 17.8-13.6h9.2z"/><path class="st5" d="M589.1 589.7v13.6h-2l-1.4-5.7-3.6 5.7h-20c7.7-1.6 14.2-6.6 17.8-13.6h9.2z"/><path class="st2" d="M540.8 235.1c-.2 2.4 0 4.8-.2 5.7-.2.6-.4 1.1-.7 1.7-.4.9-1.1 2.2-.9 3.1l.6 3.9c.3 1.9-.4 3.5-2.3 3.8-2 .3-3.3-1.3-3.3-3.3l-.5-2.7c-.2-1.6-.8-3.2-1.6-4.6-1.5-3-1.3-6.9-.9-10 .3-1.9 2.5-3.5 5.5-5.3 1.5-.9 4-1.9 3.3.2-.6 1.7-5 4.9-2.7 9.7.1.2.5.8.8.8.9-.1.8-2.2 1-3.4.4-1.5 1.3-2.3 1.9-2.2s.1.9 0 2.6zM622.9 232.3c.6-.1 1.6.6 2 2.1.3 1.1.2 3.2 1.2 3.3.3 0 .6-.6.7-.8 2-4.9-2.5-7.8-3.2-9.5-.8-2 1.8-1.1 3.3-.3 3.1 1.7 5.3 3.1 5.7 5.1.6 3.1 1 7-.4 10.1-.8 1.5-1.3 3.1-1.4 4.7l-.3 2.8c0 2.1-1.1 3.7-3.2 3.5-1.9-.2-2.7-1.8-2.4-3.7l.4-3.9c.1-.9-.6-2.2-1.1-3-.3-.5-.5-1.1-.8-1.6-.2-.9-.2-3.3-.5-5.7 0-1.8-.6-3 0-3.1z"/><path d="M618 352.3c-8.3 5.3-5.3 15.2-5.3 15.2-11.2-3.7-46.3-18.9-39.7-30.8 3.7-6.7-5.5-13.6-8.9-15.4-4.1-2.2-5.6-15.6-5.3-25.5.3-7.6 0-17.2 15.1-25.6 7.3-4 18.2-5.2 33.7 10.6 26.7 26.9 30.7 58.5 10.4 71.5z" fill="#727272" stroke="#000" stroke-width=".5" stroke-miterlimit="10"/><path class="st9" d="M577.2 331.6l-1.3 1.1a10 10 0 0 1-6.8-4.7c-3.7-6.4-11.7-19.8-21.5-34.5l-6.6-44.7c-1.4-2.3-6.9-.6-8.2 1.1 0 0-.2 32.2 1.2 44.7 1.3 11.7 11.9 32.4 19.9 44.1 2.4 3.5 2.3 8.1-.2 11.5-1.4 1.8-2.6 3.8-3.6 5.9-.9 2.4-.8 5 .3 7.3L554 388c12.5 5.9 39.5 5.9 39.5 5.9-.7-3 .8-3.2 3.9-8.9.9-1.6 1.3-3.4 1.3-5.2l-.1-14.2c2.3-4.1 5.7-6.6 8.9-11.8 0 0 13.3-18.8-10.9-22.6l-4.2-3.2"/><path class="st9" d="M594.8 336.4c4.2-11.9 10.7-26 16.7-34.9l11.7-50.9c2.4-2.1 5-1.5 7.6-.8l-2.7 57.2c-4.1 13.2-14.6 40.8-22.6 50.2"/><path class="st2" d="M592.5 327.6c.1.2.2.4.2.6s-.1.4-.3.6c-1.6 2.1-3.5 4.1-5.5 5.8-1.2 1-2.7 2.1-4.3 1.7-1-.3-1.8-.9-2.5-1.7l-3-3.1c1.2-1 1-2.8.8-4.3-.4-2-.9-3.9-1.4-5.9 3-2.8 6.7-4.7 10.7-5.6 1.4-.3 2.1-.1 2.3 1.3s.3 2.5.5 3.7c.5 2.5 1.3 4.8 2.5 6.9z"/><path class="st2" d="M572.2 323.2c-4.6-2.5-7.5-7.1-9-18.4s2.7-15.5 2.7-15.5c2.6-4.4 6.4-8.5 11.1-10.6 2.7-1 5.6-1.5 8.6-1.4 2.2-.2 4.3-.1 6.4.4 1.7.5 3.4 1.3 4.8 2.4 4.2 3 7.1 7.4 8.3 12.3 2.9 13.2-7.2 22.1-16.6 28.9-5.3 3.9-11.7 4.4-16.3 1.9z"/><path d="M601.6 314.3s-14-19.1-7.2-29.6c0 0-8 1.5-12.7.7-4.8-.8-13.3-1.5-17.6 8.1 0 0-.2 3.2-2.7 5.7l.4-4.9 3-7.2 10.5-8.5 10.1-3.4 10.8 3.3 7.3 6.1 4.4 15.2-5.6 11.3-.7 3.2z" fill="#727272"/><path class="st7" d="M601.6 314.3s-14-19.1-7.2-29.6c0 0-8 1.5-12.7.7-4.8-.8-13.3-1.5-17.6 8.1 0 0-1.5 3.5-1.1 4.6"/><path class="st2" d="M583 292.6c3.2.2 5.9 2.6 6.4 5.8M577.2 290.6c-1.8-1.3-4.2-1.6-6.2-.8M574.9 307c-.7-.6-1.3-1.2-1.9-1.9-.2-.2-.3-.3-.4-.5-.2-.5.2-1 .5-1.4l1.8-2.1"/><ellipse transform="rotate(-53.658 584.566 297.62)" class="st6" cx="584.6" cy="297.6" rx="2" ry="1.6"/><ellipse transform="rotate(-53.658 571.117 293.819)" class="st6" cx="571.1" cy="293.8" rx="2" ry="1.6"/><path class="st2" d="M580.6 310.7s-2.9 3-6 3c-1.7 0-3-.5-3.8-2.9"/><path d="M554.1 388.1l-16.2 99.6s49.6 9.2 77.4 1.7c0 0-12.8-52.6-13.7-65.3-1-12.9-7.6-30.1-7.6-30.1s-34-1.8-39.9-5.9z" fill="#ddd" stroke="#000" stroke-width=".5" stroke-miterlimit="10"/><path class="st7" d="M530.7 289.4l-7.9 4.4 4 2-4 7.3h4l-2.3 7.6 8.4 1.5-2.2 8.7h5.5l-3.3 5.1h5M633.3 283l6.4 3.7-6.4 2.7 6.4 4.4-6.4 1.7 6.4 5.5-6.4 3 5.3 6.7-6.6 1.8"/></g><g id="Layer_8"><path class="st6" d="M212 364.5l-2.2 2.9-5.2 2.1c-.5.1-.9.4-1.2.8-5.8.5-13.2-.1-14 0-5 0-9 .2-12.3 1.6 3.4-6.1 7.1-11.9 10.8-17.8 3.5-5.5 7.3-10.7 10.9-16.1 3.4-5.1 3.8-10.1 6.1-15.6 6.8-16.2 19.2-26.1 37.3-23.8 17 2.1 26.4 18.9 24 34.5-.3 1.9-.7 3.8-1.3 5.6-1.4 5.1-3.3 9.9-4 15.4-1 7.8-1.3 15.6-.8 23.4.2 3.8 1.4 26.3-4.2 28.9L212 364.5z"/><path class="st2" d="M213.6 364.3c-.2.2-.4.5-.4.8s.1.6.3.9c1.8 3.3 4 6.5 6.5 9.4 1.5 1.7 3.4 3.5 5.7 3.3 1.4-.2 2.8-.9 3.8-1.8l5-3.6c-1.5-1.6-.8-4.1-.1-6.1 1-2.7 2.2-5.3 3.5-7.8-3.7-4.5-8.5-8.1-13.9-10.3-1.9-.8-2.9-.7-3.6 1.2s-.9 3.4-1.6 5.1c-1.3 3.2-3.1 6.2-5.2 8.9z"/><path class="st12" d="M192.4 706.6l43.8-100.7-4.1-106.9-52.8 5.1 32.9 98.5-30 104.9z"/><path class="st12" d="M199.9 504.7l12.3 97.9L170.1 706h-10.7l26-105.8-32.2-72.2c-3-6.8-4-14.4-2.7-21.7l2.2-12.6 47.2 11z"/><path class="st5" d="M179.3 706v20.2h3.1l2.2-8.5 5.5 8.5 30.5-.1c-11.8-2.4-21.8-9.8-27.3-20.1h-14z"/><path class="st5" d="M156.1 706v20.2h3.1l2.2-8.5 5.5 8.5 30.5-.1c-11.8-2.4-21.8-9.8-27.3-20.1h-14z"/><g id="Layer_7_3_"><path class="st2" d="M253.9 316.6c-.2 2.3-7.5 4-9.4 4.7-2.3 1-4.8 1.3-7.4 1.9-.2-.1-8.3 3.3-12.4 4.5-4.7 1.4-7.5 2.3-11.9 4.5-.1 2.5.2 6.8 2.5 7.4.7.2.9 1.1.9 1.8-.1 2.3-.1 5.2.8 7.3 0 0 3.9 6.7 10.4 12.1s16.3-1.7 16.3-1.7 9.1-6.1 12.5-17c3.5-10.9-2.3-25.5-2.3-25.5z"/><path class="st7" d="M234.7 328.5c-2.4-.8-5-.7-7.2.5M253 334.9c-1.7-1.9-4-2.9-6.6-3M240.7 352.8s-7.5 3.8-12.1-2.9M238.3 336.2c-.6 1.7-.9 3.5-.8 5.2.1 1.3.4 2.7.5 4 .1.7.1 1.4-.2 2s-1.1.9-1.8.5M234.7 333.7s-2.6-3.4-6.6-1.2M245.8 337.5s5.1-2.6 6.7 1.5"/><path class="st13" d="M144.4 506.9l99.9 11.3-14.7-64.1 19-41.5-4.9-31.5-2.4-5.2-37.3-10-29.8 8.5V396l2.2 52.4zM181.1 413.9s3.3 15.3 20.8 10.4M216 426.2s15.7 11.4 24.2 0"/><path class="st14" d="M237.2 444.1l-56.7-3.8c-2.2-.2-3.9-2-3.8-4.2l2.3-31.7c.2-2.2 2.1-3.8 4.3-3.7l56.7 3.8c2.2.2 3.9 2 3.8 4.2l-2.3 31.7c-.2 2.2-2.1 3.8-4.3 3.7z"/><path class="st14" d="M179.4 405.3l31.6 19.6 32.6-14.6"/><path class="st13" d="M186.9 438.9l-42.5 14.8c-9.6 3.1-18.5-6.2-14.6-15.2l28.2-54.4c2.8-5.4 7.6-9.5 13.4-11.6l32.7-6.5-6.4 4-45.9 62.4L186 428l.9 10.9zM262.4 393.2l16.3 60.5c1.3 4.7-3.5 8.7-8.1 6.9L232 441.5v-10.1l23.7 7.3-7.1-23.7-5.2-33.5-2.5-5.5 17.8 11.5c1.8 1.4 3.1 3.4 3.7 5.7z"/><path class="st2" d="M213.7 359.5l-9.7 6.4 1.2 17 20.7-11.1 9.5 20.2 5.9-16.1-1.5-10-12.9 3.3zM185.9 428s12-6.1 18.9 4.1c7.2 10.5-2.9 9.8-5.2 8s-2.7-3.4-4.8-3.1-7.2 5.1-8 1.8c-.1-.8-.9-10.8-.9-10.8zM232 431.3s-6.7-5-13-.8c-6.4 4.1-8.1 9-5.2 10.2s7.4-2.5 8.4-1.6 9.1 3.4 9.8 2.4v-10.2z"/></g><ellipse class="st15" cx="249.7" cy="345" rx="3.7" ry="3.6"/><ellipse class="st15" cx="225.5" cy="339.8" rx="3.7" ry="3.6"/><ellipse class="st16" cx="212.4" cy="422.4" rx="74.6" ry="72.4"/><path class="st7" d="M173.8 265.9s-15.1 14.4 1.4 26.5c15.9 11.6-18.8 22.7-6 43.2"/><path class="st2" d="M190.8 268.8h-36.7c-14.6 0-23.6-8.8-26.5-25.7L117.2 180c0-14.1 11.9-25.7 26.5-25.7h57.5c14.6 0 26.5 11.6 26.5 25.7l-10.4 63.1c-2.6 16.9-11.9 25.7-26.5 25.7z"/><path class="st17" d="M149 246c3 3.5 10.2 10 23.4 10 10 0 16.5-3.7 20.4-7 4-3.1 6.9-7.9 8-12.3 4.2-16.1-5-28.6-16.4-36.3 0 3.8-.6 6.9-1.7 9.6-4.5-5.4-9.5-11.2-9.5-21.7-10.5 7-19.1 18.3-17.1 32.6-2.3-2.3-4.3-5.2-5.6-9.4-7 8.1-11.1 19.6-4.3 31.1 1 1.2 1.8 2.3 2.8 3.4zm23.7-22.1c0 10.3 8.5 12.2 8.6 19.8.1 4.8-3.7 8.5-8.6 8.4-4.4-.1-7.7-4.6-8.7-8.4-2.2-8.8 2.7-15.7 8.7-19.8z"/><path class="st18" d="M172.9 255.4h-.2c-5.8-.1-10.1-5.4-11.4-10.7-2.2-8.9 1.5-17.5 10.2-23.5l3.5-2.4v4.2c0 5.2 2.3 8.1 4.7 11.1 2.2 2.8 4.5 5.7 4.6 10.1.1 3.1-1.1 5.9-3.2 8-2.2 2-5.1 3.2-8.2 3.2zm-1.9-27.6c-3.2 3.1-6.8 8.3-5 15.4.8 3.3 3.6 6.8 6.7 6.9 1.9 0 3.5-.6 4.7-1.8s1.8-2.8 1.8-4.5c-.1-2.8-1.6-4.7-3.4-7.1-1.8-2.3-3.9-4.9-4.8-8.9z"/><path class="st7" d="M149 246c3 3.5 10.2 10 23.4 10 10 0 16.5-3.7 20.4-7 4-3.1 6.9-7.9 8-12.3 4.2-16.1-5-28.6-16.4-36.3 0 3.8-.6 6.9-1.7 9.6-4.5-5.4-9.5-11.2-9.5-21.7-10.5 7-19.1 18.3-17.1 32.6-2.3-2.3-4.3-5.2-5.6-9.4-7 8.1-11.1 19.6-4.3 31.1 1 1.2 1.8 2.3 2.8 3.4z"/></g><g><circle class="st16" cx="569.4" cy="221.7" r="78.4"/><path class="st7" d="M571 157.3s-10.8 10.7 1 19.6c11.4 8.6-13.5 16.8-4.3 31.9"/><path class="st2" d="M583.2 159.4h-26.3c-10.4 0-16.9-6.5-19-19l-7.5-46.6c0-10.4 8.5-19 19-19h41.2c10.4 0 19 8.5 19 19l-7.5 46.6c-1.8 12.5-8.5 19-18.9 19z"/><path class="st17" d="M553.2 142.5c2.1 2.6 7.3 7.4 16.8 7.4 7.1 0 11.9-2.7 14.7-5.2 2.9-2.3 4.9-5.9 5.7-9.1 3-11.9-3.6-21.2-11.7-26.8 0 2.8-.5 5.1-1.2 7.1-3.2-4-6.8-8.2-6.8-16-7.5 5.2-13.7 13.5-12.3 24.1-1.6-1.7-3.1-3.9-4-7-5 6-8 14.5-3.1 23 .6.9 1.2 1.8 1.9 2.5zm17-16.3c0 7.6 6.1 9 6.2 14.6.1 3.6-2.7 6.3-6.2 6.2-3.2-.1-5.5-3.4-6.2-6.2-1.6-6.4 1.9-11.5 6.2-14.6z"/><path class="st18" d="M570.3 149.5c-4.2-.1-7.3-4-8.3-7.9-1.6-6.6 1-12.9 7.3-17.4l2.5-1.8v3.1c0 3.8 1.6 5.9 3.3 8.2 1.6 2.1 3.2 4.2 3.3 7.5.1 2.3-.8 4.4-2.3 5.9s-3.6 2.4-5.8 2.4zm-1.3-20.3c-2.3 2.3-4.8 6.1-3.6 11.3.6 2.5 2.6 5 4.8 5.1 1.3 0 2.5-.4 3.4-1.3.9-.9 1.3-2.1 1.3-3.4 0-2.1-1.1-3.5-2.5-5.2-1.3-1.7-2.8-3.6-3.4-6.5z"/><path class="st7" d="M553.2 142.5c2.1 2.6 7.3 7.4 16.8 7.4 7.1 0 11.9-2.7 14.7-5.2 2.9-2.3 4.9-5.9 5.7-9.1 3-11.9-3.6-21.2-11.7-26.8 0 2.8-.5 5.1-1.2 7.1-3.2-4-6.8-8.2-6.8-16-7.5 5.2-13.7 13.5-12.3 24.1-1.6-1.7-3.1-3.9-4-7-5 6-8 14.5-3.1 23 .6.9 1.2 1.8 1.9 2.5z"/><path class="st14" d="M588.2 236.3h-40.7c-1.6 0-2.9-1.3-2.9-2.9V210c0-1.6 1.3-2.9 2.9-2.9h40.8c1.6 0 2.9 1.3 2.9 2.9v23.4c0 1.6-1.3 2.9-3 2.9z"/><path class="st14" d="M544.9 210.6l23.7 12.9 22.6-12.3"/></g><g><circle class="st16" cx="302.3" cy="104.3" r="53.5"/><path class="st7" d="M304.4 59.1s-7.6 7.5.7 13.7c8 6-9.5 11.8-3 22.4"/><path class="st2" d="M312.9 60.6h-18.4c-7.3 0-11.9-4.6-13.3-13.3L276 14.6c0-7.3 6-13.3 13.3-13.3h28.9c7.3 0 13.3 6 13.3 13.3l-5.2 32.7c-1.4 8.7-6.1 13.3-13.4 13.3z"/><path class="st17" d="M291.9 48.7c1.5 1.8 5.1 5.2 11.8 5.2 5 0 8.3-1.9 10.3-3.7 2-1.6 3.5-4.1 4-6.4 2.1-8.3-2.5-14.8-8.2-18.8 0 1.9-.3 3.6-.8 5-2.2-2.8-4.8-5.8-4.8-11.2-5.3 3.6-9.6 9.5-8.6 16.9-1.2-1.2-2.2-2.7-2.8-4.9-3.5 4.2-5.6 10.2-2.1 16.1.3.7.7 1.3 1.2 1.8zm11.9-11.4c0 5.3 4.3 6.3 4.3 10.3.1 2.5-1.9 4.4-4.3 4.3-2.2 0-3.9-2.4-4.3-4.3-1.2-4.6 1.2-8.1 4.3-10.3z"/><path class="st18" d="M303.9 53.6h-.1c-2.9 0-5.1-2.8-5.7-5.5-1.1-4.6.7-9.1 5.1-12.2l1.8-1.3v2.2c0 2.7 1.1 4.2 2.3 5.7 1.1 1.4 2.3 2.9 2.3 5.3 0 1.6-.5 3.1-1.6 4.2-1.1 1-2.6 1.6-4.1 1.6zm-1-14.2c-1.6 1.6-3.4 4.3-2.5 8 .4 1.7 1.8 3.5 3.3 3.6.9 0 1.8-.3 2.4-.9.6-.6.9-1.4.9-2.4 0-1.5-.8-2.4-1.7-3.7-.9-1.2-1.9-2.6-2.4-4.6z"/><path class="st7" d="M291.9 48.7c1.5 1.8 5.1 5.2 11.8 5.2 5 0 8.3-1.9 10.3-3.7 2-1.6 3.5-4.1 4-6.4 2.1-8.3-2.5-14.8-8.2-18.8 0 1.9-.3 3.6-.8 5-2.2-2.8-4.8-5.8-4.8-11.2-5.3 3.6-9.6 9.5-8.6 16.9-1.2-1.2-2.2-2.7-2.8-4.9-3.5 4.2-5.6 10.2-2.1 16.1.3.7.7 1.3 1.2 1.8z"/><path class="st14" d="M316.4 114.5h-28.6c-1.1 0-2-.9-2-2V96.1c0-1.1.9-2 2-2h28.6c1.1 0 2 .9 2 2v16.4c.1 1.1-.8 2-2 2z"/><path class="st14" d="M286.1 96.5l16.5 9 15.9-8.6"/></g></svg>