<svg version="1.1" id="Layer_1" xmlns="http://www.w3.org/2000/svg" xmlns:xlink="http://www.w3.org/1999/xlink" x="0" y="0" viewBox="0 0 857.3 664" xml:space="preserve"><style>.st2,.st4,.st5,.st8{fill:#c6c6c6;stroke:#000;stroke-width:.5;stroke-miterlimit:10}.st4,.st5,.st8{fill:#d8d8d8}.st5,.st8{fill:#f4f4f4}.st8{fill:#fff}.st9{fill:#d1d1d1}.st11{stroke:#000;stroke-width:.5;stroke-miterlimit:10}.st11,.st12{fill:#0077bf}.st13{fill:#c4c4c4}.st15,.st16{fill:none;stroke:#000;stroke-width:.5;stroke-miterlimit:10}.st16{fill:#eb058c}.st18{fill:#fff}.st20{fill:#bfbfbf}</style><g id="Layer_1_1_"><path d="M316.6 599.8s-130.9 83.3-251.3-40.4c0 0-160.1-173.7 28.4-397.6 0 0 75.2-116.6 268.4-153.1 68.7-13 205-10.1 304.7 62.2 0 0 116.6 84.6 159 209.1 28.2 82.8 85.5 338.6-115.4 380.6 0 0-104.1 14.1-155.2-72.2 0 0-70.2-138.8-238.6 11.4z" fill="#f5f5f5" id="Layer_6"/><path fill="gray" stroke="#000" stroke-width=".5" stroke-miterlimit="10" d="M817.9 603.9l-509.4-3.4V634l507 2.5z"/><path class="st2" d="M817.9 603.9l-126.2-45.1H216.4l92.1 41.7z"/><path fill="#a5a5a5" stroke="#000" stroke-width=".5" stroke-miterlimit="10" d="M308.5 600.5l-92.1-41.7v24l92.1 51.2z"/><path class="st2" d="M457.6 481.8v74.3s-1.1 21.2 40.8 15.8v6.9s-15.3-4.1-27.2-2.5c-12.5 1.7-68.1-1.7-74.1-13.7v-80.8h60.5z"/><path class="st4" d="M399.9 481.8v74.3s-1 21.2 40.8 15.8v6.9s-37.1 9.7-50.1-16.2v-80.8h9.3z"/><path class="st5" d="M440.7 571.9h57.7v6.9h-57.7z"/><path d="M261.1 531.8L568.9 519c7.5 0 13.6-6.1 13.6-13.6h0L596.2 305c-7.1-13.3-11.2-15.8-18.7-15.8l-316.1-7.8c-7.5 0-18 7.7-16.8 24.1L241.4 508c0 7.6 4.8 23.8 19.7 23.8z" fill="#ccc" stroke="#000" stroke-width=".5" stroke-miterlimit="10"/><path d="M265.9 531.8l319.1-1.6c7.5 0 13.6-6.1 13.6-13.6h0V303c0-7.5-6.1-13.6-13.6-13.6h0l-319.1-8c-7.5 0-13.6 6.1-13.6 13.6v223.1c-.1 7.6 6 13.7 13.6 13.7z" fill="#e8e8e8" stroke="#000" stroke-width=".5" stroke-miterlimit="10"/><path class="st8" d="M580 511.5l-298.8 1V299.9l298.8 8z"/><path class="st9" d="M557.9 340l-257.1-5v-6.9l257.1 5zM557.9 361.3l-257.1-5v-7l257.1 5zM557.9 382.6l-257.1-5v-7l257.1 5zM557.9 403.8l-257.1-5v-6.9l257.1 5zM557.9 425.1l-257.1-5v-7l257.1 5zM557.9 446.4l-257.1-5v-7l257.1 5zM557.9 467.6l-257.1-5v-7l257.1 5zM557.9 488.9l-257.1-5v-7l257.1 5z"/><path fill="#c4c4c4" stroke="#000" stroke-width=".5" stroke-miterlimit="10" d="M580 511.5l-298.8 1V299.9l298.8 8z"/><path class="st8" d="M496.9 453.1l-130.8-2.6c-3.3-.1-6-2.8-6-6.1v-76.8c0-3.4 2.7-6.1 6.1-6.1h.1l130.8 2.6c3.3.1 6 2.8 6 6.1V447c0 3.4-2.7 6.1-6.1 6.1h-.1z"/><path class="st11" d="M503.1 377.1l-143-2.8v-8l143 2.8z"/><path class="st12" d="M393 393.7c-2.6-.1-5.1-1.5-6.3-3.9-1.3 2.3-3.7 3.7-6.3 3.6-4-.1-7.2-3.4-7.2-7.4h1.8c0 3 2.4 5.5 5.4 5.5 2.9.1 5.4-2.3 5.4-5.2v-.1h1.8c0 3 2.4 5.5 5.4 5.5 2.9.1 5.4-2.3 5.4-5.2v-.1h1.8c.1 3.9-3 7.1-7 7.2 0 .1-.1.1-.2.1z"/><path class="st12" d="M405.7 393.9c-4-.1-7.2-3.4-7.2-7.4h1.8c0 3 2.4 5.5 5.4 5.6 2.9.1 5.4-2.3 5.4-5.2v-.1h1.8c0 3.9-3.1 7.1-7 7.1h-.2z"/><path class="st12" d="M418.4 394.2c-4-.1-7.2-3.4-7.2-7.4h1.8c0 3 2.4 5.5 5.4 5.5 2.9.1 5.4-2.3 5.4-5.2v-.1h1.8c.1 3.9-3.1 7.1-7 7.2h-.2z"/><path class="st12" d="M431 394.4c-4-.1-7.2-3.4-7.2-7.4h1.8c0 3 2.4 5.5 5.4 5.5 2.9.1 5.3-2.2 5.4-5.2v-.2h1.8c0 3.9-3.1 7.1-7 7.2 0 .1-.1.1-.2.1z"/><path class="st13" d="M492.1 409.3l-123-2.4v-3.8l123 2.4zM477.5 417.5l-108.4-2.1v-3.8l108.4 2.1zM461.9 425.7l-92.8-1.8v-3.8l92.8 1.8zM461.9 435.7l-92.8-1.8v-3.8l92.8 1.8z"/><path fill="#f4f4f4" stroke="#000" stroke-width=".5" stroke-linejoin="round" d="M397.3 588.5h202.1l-44.7-12.8H352.5z"/><path class="st5" d="M397.3 588.5h202.1v9.7H397.3z"/><path class="st4" d="M397.3 598.2l-44.8-14.7v-7.8l44.8 12.8z"/><path class="st15" d="M550 579.1H376.8M563.1 582.1H390M576.3 585H403.2M389.8 579.1c.7 0 26.2 5.8 26.2 5.8M404.4 579.1c.7 0 26.2 5.8 26.2 5.8M419 579.1c.7 0 26.2 5.8 26.2 5.8M433.6 579.1c.7 0 26.2 5.8 26.2 5.8M448.2 579.1c.7 0 26.2 5.8 26.2 5.8M462.8 579.1c.7 0 26.2 5.8 26.2 5.8M477.4 579.1c.7 0 26.2 5.8 26.2 5.8M492 579.1c.7 0 26.2 5.8 26.2 5.8M506.6 579.1c.7 0 26.2 5.8 26.2 5.8M521.2 579.1c.7 0 26.2 5.8 26.2 5.8M535.8 579.1c.7 0 26.2 5.8 26.2 5.8"/><path class="st8" d="M509.5 514l-16 64-56.3.4s-24-20.6-33.4-14.2-9.2 10.3-9.2 10.3 23.7 4.1 24.1 9.5 10.3 6.7 13.7 7c2.8.3 55.4 12.9 74.3 17.4 3.9.9 7.8-1.2 9.2-4.9l33.2-87.5-39.6-2zM742 508.7l24 73.6c1.8 5.5-1.2 11.4-6.7 13.1-1.5.5-3.1.6-4.7.4l-98.1-14-2.4-12.6 71.9-6-17.9-52.5 33.9-2zM610.1 396.9l29.7 53.6-58 3.8s11.5-38.6-14.4-47.8c-7-2.5 42.7-9.6 42.7-9.6z"/><path class="st16" d="M554.8 515.3l-15.5 43.2-46.6-19.3 22.4-56.9c16.8-38 45.9-54.2 66.9-53.3s21.3 2.5 32.3-3.9 44-1.5 71.8 8.2 77.6 92.1 77.6 92.1l-53.3 8.5-20.6-42.3 53.9 144.9-185.1-1.6-3.8-119.6z"/><path class="st8" d="M521.3 298.2s-7.2 46.1-1.6 60.2c5.6 14.1 5.8 20.8 6.1 22.1s30.3 54.9 62.6 22c36.6-37.1-27.1-125.9-67.1-104.3z"/><path d="M633.1 327.5c-2.6-30.9-13.6-42.9-40.5-42.1 0 0-44.5-25.8-69.5 9.9 0 0-8.3 10.9-16.5 10.9 0 0 1.3 33.8 28.5 49.3 0 0 12.2-8.8 14.9 2.9s-5.1 17.6-5.1 17.6 9.7 12.5 20.5 20.9c11.4 8.8 19.7 14 26 16.3 0 0 4.6-22.1 24-6.7 0 0 19.3-60.1 17.7-79z" stroke="#000" stroke-width=".5" stroke-miterlimit="10"/><path class="st8" d="M501.2 248.6h8.3l.3 31.3 31.4-31.3h102.5c8.1 0 14.7-6.6 14.7-14.7V86.3c0-8.1-6.6-14.7-14.7-14.7H501.2c-8.1 0-14.7 6.6-14.7 14.7v147.6c0 8.1 6.6 14.7 14.7 14.7zM456.7 257.8h-8.4l-.3 31.3-31.4-31.3H314.1c-8.1 0-14.7-6.6-14.7-14.7V66c0-8.1 6.6-14.7 14.7-14.7h142.6c8.1 0 14.6 6.6 14.6 14.7v177.1c0 8.1-6.5 14.7-14.6 14.7z"/><path class="st8" d="M326.1 70.8H447c2.6 0 4.8 2.1 4.8 4.8v157.9c0 2.6-2.1 4.8-4.8 4.8H326.1c-2.6 0-4.8-2.1-4.8-4.8V75.6c0-2.6 2.2-4.8 4.8-4.8z"/><path class="st11" d="M326.1 70.8H447c2.6 0 4.8 2.1 4.8 4.8v6H321.3v-6c0-2.6 2.2-4.8 4.8-4.8z"/><path class="st13" d="M341.4 173.6h88.4v5.9h-88.4zM341.4 185.2h88.4v5.9h-88.4zM341.4 196.8h88.4v5.9h-88.4z"/><circle class="st8" cx="330" cy="76.2" r="3"/><circle class="st8" cx="338.3" cy="76.2" r="3"/><circle class="st8" cx="346.6" cy="76.2" r="3"/><path class="st16" d="M364.5 215h43.7v9.7h-43.7z"/><path class="st18" d="M383.5 221.6c-1.2 0-2.4-.7-3-1.8-.9 1.7-3 2.3-4.7 1.3-1.1-.6-1.8-1.8-1.8-3h.9c0 1.4 1.2 2.6 2.6 2.6 1.4 0 2.6-1.2 2.6-2.6h.9c0 1.4 1.2 2.6 2.6 2.6 1.4 0 2.6-1.2 2.6-2.6h.9c-.1 1.9-1.7 3.5-3.6 3.5z"/><path class="st18" d="M389.5 221.6c-1.9 0-3.5-1.6-3.5-3.5h.9c-.1 1.4 1 2.7 2.4 2.8 1.4.1 2.7-1 2.8-2.4v-.3h.9c0 1.8-1.5 3.4-3.5 3.4z"/><path class="st18" d="M395.6 221.6c-1.9 0-3.5-1.6-3.5-3.5h.9c0 1.4 1.2 2.6 2.6 2.6 1.4 0 2.6-1.2 2.6-2.6h.9c0 1.9-1.6 3.5-3.5 3.5z"/><path class="st12" d="M374.2 165.1c-2.5 0-4.7-1.3-5.9-3.5-1.8 3.3-6 4.4-9.2 2.6-2.1-1.2-3.5-3.5-3.5-5.9h1.7c0 2.8 2.3 5.1 5.1 5.1s5.1-2.3 5.1-5.1h1.7c0 2.8 2.3 5.1 5.1 5.1s5.1-2.3 5.1-5.1h1.7c-.1 3.7-3.1 6.8-6.9 6.8z"/><path class="st12" d="M386.1 165.1c-3.7 0-6.8-3-6.8-6.8h1.7c0 2.8 2.3 5.1 5.1 5.1s5.1-2.3 5.1-5.1h1.7c0 3.7-3.1 6.8-6.8 6.8z"/><path class="st12" d="M397.9 165.1c-3.7 0-6.8-3-6.8-6.8h1.7c.1 2.8 2.5 5 5.3 4.8 2.6-.1 4.7-2.2 4.8-4.8h1.7c.1 3.7-2.9 6.7-6.7 6.8z"/><path class="st12" d="M409.8 165.1c-3.7 0-6.8-3-6.8-6.8h1.7c0 2.8 2.3 5.1 5.1 5.1s5.1-2.3 5.1-5.1h1.7c-.1 3.7-3.1 6.7-6.8 6.8z"/><circle class="st12" cx="385.6" cy="120.9" r="25.2"/><path class="st8" d="M356.9 103h59.7v34.6h-59.7z"/><path class="st16" d="M356.9 103h59.7v6.7h-59.7z"/><circle class="st12" cx="389.8" cy="119.3" r="5.5"/><circle class="st12" cx="404.1" cy="127.6" r="5.5"/><path fill="#ffe600" d="M363.7 113.8h10.5v19.3h-10.5z"/><path class="st8" d="M266 299.2h-8.4l-.3 31.3-31.3-31.3H123.5c-8.1 0-14.7-6.6-14.7-14.7V131c0-8.1 6.6-14.7 14.7-14.7H266c8.1 0 14.7 6.6 14.7 14.7v153.5c0 8.1-6.5 14.6-14.7 14.7z"/><path class="st8" d="M147.5 138.1h96.8c2.6 0 4.8 2.1 4.8 4.8v127c0 2.6-2.1 4.8-4.8 4.8h-96.8c-2.6 0-4.8-2.1-4.8-4.8v-127c.1-2.6 2.2-4.8 4.8-4.8z"/><path class="st11" d="M147.5 138.1h96.8c2.6 0 4.8 2.1 4.8 4.8v4H142.8v-4c0-2.6 2.1-4.8 4.7-4.8z"/><path class="st13" d="M159.2 230.2h72.1v4.8h-72.1zM159.2 239.6h72.1v4.8h-72.1z"/><circle class="st8" cx="149.9" cy="142.5" r="2.4"/><circle class="st8" cx="156.6" cy="142.5" r="2.4"/><circle class="st8" cx="163.4" cy="142.5" r="2.4"/><path class="st16" d="M178 255.7h35.7v7.9H178z"/><path class="st18" d="M193.5 261.1c-1 0-2-.6-2.5-1.5-.8 1.4-2.5 1.9-3.9 1.1-.9-.5-1.4-1.4-1.4-2.5h.7c0 1.2.9 2.1 2.1 2.1s2.1-.9 2.1-2.1h.7c0 1.2.9 2.1 2.1 2.1s2.1-.9 2.1-2.1h.7c.1 1.6-1.2 2.9-2.7 2.9z"/><path class="st18" d="M198.4 261.1c-1.6 0-2.8-1.3-2.8-2.8h.7c0 1.2.9 2.1 2.1 2.1s2.1-.9 2.1-2.1h.7c0 1.5-1.2 2.8-2.8 2.8z"/><path class="st18" d="M203.3 261.1c-1.6 0-2.8-1.3-2.8-2.8h.7c0 1.2.9 2.1 2.1 2.1 1.2 0 2.1-.9 2.1-2.1h.7c.1 1.5-1.2 2.8-2.8 2.8z"/><path class="st16" d="M218 212h-45.7c-2.2 0-3.9-1.7-3.9-3.9v-30.6l26.7-18.3 26.7 18.3v30.6c.2 2.2-1.6 3.9-3.8 3.9.1 0 .1 0 0 0z"/><path class="st8" d="M171.8 166.4h46.4v43.2h-46.4z"/><path class="st20" d="M175.7 171.5h38.9v1.7h-38.9zM175.7 175.2h38.9v1.7h-38.9zM175.7 179h38.9v1.7h-38.9zM175.7 182.7h38.9v1.7h-38.9zM175.7 186.5h38.9v1.7h-38.9zM175.7 190.3h38.9v1.7h-38.9z"/><path class="st16" d="M218 212h-45.7c-2.2 0-3.9-1.7-3.9-3.9v-30.3l26.7 18.5 26.7-18.5v30.3c.2 2.2-1.6 3.9-3.8 3.9.1 0 .1 0 0 0z"/><path class="st8" d="M508.8 87.4h127.4c2.6 0 4.8 2.1 4.8 4.8v132.2c0 2.6-2.1 4.8-4.8 4.8H508.8c-2.6 0-4.8-2.1-4.8-4.8V92.1c0-2.6 2.1-4.7 4.8-4.7z"/><path d="M641 172.1v51.3c0 3.1-2.5 5.6-5.6 5.6H509.7c-3.1 0-5.6-2.5-5.6-5.6v-51.3H641z" fill="#d8d8d8"/><path class="st11" d="M508.8 87.4h127.4c2.6 0 4.8 2.1 4.8 4.8v6.5H504v-6.5c0-2.7 2.1-4.8 4.8-4.8-.1 0 0 0 0 0z"/><path class="st15" d="M508.8 87.4h127.4c2.6 0 4.8 2.1 4.8 4.8v132.2c0 2.6-2.1 4.8-4.8 4.8H508.8c-2.6 0-4.8-2.1-4.8-4.8V92.1c0-2.6 2.1-4.7 4.8-4.7z"/><circle class="st8" cx="512.7" cy="93" r="3.1"/><circle class="st8" cx="521.4" cy="93" r="3.1"/><circle class="st8" cx="530.1" cy="93" r="3.1"/><path class="st16" d="M591.6 212.2h38.5v8.6h-38.5z"/><path class="st18" d="M608.3 218c-.8-1.5-2.6-2-4-1.3-.5.3-1 .7-1.3 1.3-1.7 0-3-1.4-3-3h.7c-.1 1.3.9 2.3 2.1 2.4 1.3.1 2.3-.9 2.4-2.1v-.3h.8c0 1.3 1 2.3 2.3 2.3 1.3 0 2.3-1 2.3-2.3h.8c-.1 1.6-1.4 3-3.1 3z"/><path class="st18" d="M613.7 218c-1.7 0-3-1.4-3-3h.8c0 1.3 1 2.3 2.3 2.3 1.3 0 2.3-1 2.3-2.3h.7c-.1 1.6-1.4 3-3.1 3z"/><path class="st18" d="M618.9 218c-1.7 0-3-1.3-3-3v-.1h.7c0 1.3 1 2.3 2.3 2.3 1.3 0 2.3-1 2.3-2.3h.8c0 1.7-1.4 3.1-3.1 3.1zM559.1 185.2c-2.6 0-5-1.4-6.2-3.7-1.9 3.4-6.2 4.7-9.7 2.8-2.3-1.3-3.7-3.6-3.7-6.2h1.8c-.1 2.9 2.2 5.4 5.1 5.6s5.4-2.2 5.6-5.1v-.5h1.8c-.1 2.9 2.2 5.4 5.1 5.6s5.4-2.2 5.6-5.1v-.5h1.8c-.1 3.9-3.2 7.1-7.2 7.1z"/><path class="st18" d="M571.6 185.2c-3.9 0-7.1-3.2-7.1-7.1h1.8c-.1 2.9 2.2 5.4 5.1 5.6s5.4-2.2 5.6-5.1v-.5h1.8c-.1 3.9-3.3 7.1-7.2 7.1z"/><path class="st18" d="M584 185.2c-3.9 0-7.1-3.2-7.1-7.1h1.8c-.1 2.9 2.2 5.4 5.1 5.6s5.4-2.2 5.6-5.1v-.5h1.8c-.1 3.9-3.3 7.1-7.2 7.1z"/><path class="st18" d="M596.5 185.2c-3.9 0-7.1-3.2-7.1-7.1h1.8c-.1 2.9 2.2 5.4 5.1 5.6s5.4-2.2 5.6-5.1v-.5h1.8c-.1 3.9-3.3 7.1-7.2 7.1zM517.1 190.4h111.8v3.2H517.1zM517.1 197.1h111.8v3.2H517.1zM517.1 203.9h74.5v3.2h-74.5z"/><path fill="#cecece" stroke="#000" stroke-width=".5" stroke-miterlimit="10" d="M527 108.4h92v55.7h-92z"/><defs><path id="SVGID_1_" d="M527 108.4h92v55.7h-92z"/></defs><clipPath id="SVGID_2_"><use xlink:href="#SVGID_1_" overflow="visible"/></clipPath><g clip-path="url(#SVGID_2_)"><path class="st11" d="M550.2 169.1c0-17.4 10.2-36.2 22.8-36.2s22.8 18.9 22.8 36.2h-45.6z"/><circle class="st11" cx="572.4" cy="124.3" r="12.7"/></g><path class="st15" d="M527 108.4h92v55.7h-92z"/><path class="st18" d="M571.8 156.3c-11.1 0-20.1-9-20.1-20.1 0-11.1 9-20.1 20.1-20.1 11.1 0 20.1 9 20.1 20.1-.1 11.1-9.1 20.1-20.1 20.1zm0-35.8c-8.7 0-15.8 7.1-15.8 15.8s7.1 15.8 15.8 15.8c8.7 0 15.8-7.1 15.8-15.8-.1-8.8-7.1-15.8-15.8-15.8z"/><path class="st18" d="M584.1 136.7l-17.9-10.3v20.7z"/></g></svg>