<svg version="1.1" id="Layer_1" xmlns="http://www.w3.org/2000/svg" x="0" y="0" viewBox="0 0 894.4 608.3" xml:space="preserve"><style>.st1{fill:#c4c4c4}.st2,.st3{stroke-width:.5}.st2{stroke:#000;stroke-miterlimit:10;fill:#9e9e9e}.st3{fill:#b7b7b7}.st3,.st4,.st5{stroke:#000;stroke-miterlimit:10}.st4{stroke-width:.5;fill:#8e8e8e}.st5{fill:#0077bf}.st5,.st6,.st7{stroke-width:.5}.st6{stroke:#000;stroke-miterlimit:10;fill:#fff}.st7{fill:#ffe600}.st7,.st8,.st9{stroke:#000;stroke-miterlimit:10}.st8{fill:#fff}.st9{stroke-width:.5}.st10,.st9{fill:#1a1a1a}.st11,.st13,.st15,.st16,.st18{fill:none;stroke:#000;stroke-width:.5;stroke-miterlimit:10}.st13,.st15,.st16,.st18{fill:#eb058c}.st15,.st16,.st18{fill:#f2f2f2}.st16,.st18{fill:#636363}.st18{fill:#c6c6c6}.st19{enable-background:new}.st20,.st21{fill:#ccc;stroke:#000;stroke-width:.5;stroke-miterlimit:10}.st21{fill:#aaa}.st22{fill:#fff}</style><path d="M301.5 512.6s-136.8 98.7-216-40.8c0 0-115.1-151.1 85.8-335.8 0 0 84.7-88.2 260.6-122.6 0 0 146.8-14.5 230.8 61.2 0 0 147.7 128.7 140.9 308.5 0 0 24.6 218.5-186.5 209.8 0 0-71-9.5-102.9-83.9.1.1-40.8-119.1-212.7 3.6z" fill="#f5f5f5" id="Layer_6"/><ellipse class="st1" cx="416.5" cy="397.4" rx="279.6" ry="4.4"/><ellipse class="st1" cx="468.7" cy="571.4" rx="98.2" ry="9.8"/><ellipse class="st1" cx="187.8" cy="539.3" rx="47.6" ry="7.9"/><ellipse transform="rotate(-17.661 737.788 485.964)" class="st1" cx="737.8" cy="486" rx="80.6" ry="8"/><path class="st2" d="M652.5 184.4l6.8-1.8 1.1 215.7-2.4-1z"/><path class="st2" d="M641.7 191l13.8.9 1 2.8-14.8-1zM657.2 204.8H641l.9 2.8h13.8zM661 219.4h-19.1l-.9 2.7h17.3zM653.7 239l-12-6.5-1.7 3.2 12.1 5.2z"/><path class="st2" d="M697.6 393.8c-14.6 1.7-29.3 2-44 .9-14.6-1-29.1-3.2-43.3-6.8-28.3-7.3-55.2-21-75.6-41.7-10.2-10.3-18.9-22-25.7-34.9-6.9-12.8-11.6-26.6-15.3-40.7l-2.5-10.6c-.6-3.6-1.2-7.2-1.7-10.8l-.8-5.4c-.2-1.8-.4-3.6-.5-5.4l-1-10.9c-.9-14.5-.3-29 1.8-43.4 2.1-14.2 6.8-27.9 13.8-40.5 7-12.4 17.1-22.7 29.3-30 1.5-.9 3.1-1.7 4.7-2.4s3.1-1.6 4.8-2.2c3.3-1.3 6.6-2.3 10.1-3.1 6.9-1.6 13.9-2.3 21-1.9 14.2.8 27.9 5.4 39.7 13.2 6 3.7 11.2 8.6 16.2 13.6l3.4 4.1c1.2 1.3 2.3 2.7 3.3 4.2 2.1 2.9 4 5.9 5.7 9 7 12.4 10.8 26.3 12.5 40.5 3.4 28.7-.7 57.9-11.8 84.6-10.9 26.8-27.8 50.8-49.3 70.2-5.3 4.8-11 9.4-16.8 13.5-5.9 4.1-12 7.9-18.4 11.3-12.6 6.8-26.3 11.5-40.5 13.8-7 1-14.1 1.3-21.2.7-7-.8-14-2-20.5-4.8-6.6-2.6-12.8-6.1-18.3-10.5-5.6-4.4-10.8-9.3-15.5-14.7-9.5-10.8-17.4-23.1-25.1-35.5s-15.5-25.1-23.5-37.4-17-24.4-27.3-35.2-22.5-20-36-26.5c-6.8-3.2-13.9-5.7-21.2-7.4-7.3-2.2-15-2.7-22.6-1.6-3.8.6-7.5 1.6-11.1 3-3.5 1.4-6.9 3.1-10.1 5.1-6.3 4-12.1 8.9-17.2 14.4-10.1 11-18.1 23.7-25 36.7-6.8 13.1-12.7 26.6-17.8 40.5-10.1 27.6-18 56-23.6 85 3.1-14.4 6.9-28.6 11.1-42.6s8.9-28 14.2-41.6c5.3-13.7 11.4-27 18.4-39.9 7-12.8 15.1-25.1 25.1-35.5 4.9-5.2 10.5-9.8 16.6-13.6 3-1.9 6.2-3.4 9.5-4.7 3.3-1.3 6.7-2.2 10.2-2.6 3.5-.5 7-.6 10.5-.2 1.8.1 3.5.5 5.2.8l5.2 1.3c7 1.8 13.8 4.2 20.2 7.3 12.9 6.4 24.4 15.4 34.4 25.9 9.9 10.6 18.4 22.4 26.2 34.7 15.8 24.5 28.7 51.3 48.3 74.2 4.9 5.8 10.3 11 16.3 15.6 6 4.8 12.7 8.6 19.8 11.4 7.1 3 14.7 4.4 22.3 5.3 7.6.6 15.2.4 22.7-.7 14.9-2.4 29.3-7.2 42.7-14.3 13.3-6.9 25.7-15.6 36.8-25.7 22.4-20 40-44.9 51.4-72.7 11.5-27.9 15.6-58.2 12-88.2-1.7-14.9-5.9-29.8-13.4-43-1.8-3.3-3.9-6.6-6.1-9.6-1.1-1.6-2.3-3.1-3.5-4.5l-3.7-4.4c-5.4-5.4-11-10.6-17.5-14.6-12.8-8.4-27.7-13.2-43-14.1-7.7-.4-15.3.3-22.8 2.1-3.7.9-7.4 2-11 3.4-1.8.6-3.5 1.6-5.2 2.4-1.7.8-3.4 1.7-5.1 2.7-13.2 7.9-24 19.1-31.4 32.5-7.2 13.3-11.9 27.7-14 42.7-2.2 14.8-2.2 29.8-1.3 44.6l1.2 11.1c.2 1.8.4 3.7.6 5.5l.9 5.5c.6 3.7 1.2 7.3 1.9 11l2.6 10.8c3.9 14.3 8.9 28.4 16.1 41.5 14.3 26.4 36.3 47.7 63 61.2 13.2 6.7 27.1 11.8 41.5 15.2 29 6.4 58.7 7.8 88 3.8z"/><path class="st2" d="M681.1 395.8c-14.6 1.7-29.3 2-44 .9-14.6-1-29.1-3.2-43.3-6.8-28.3-7.3-55.2-21-75.6-41.7-10.2-10.3-18.9-22-25.7-34.9-6.9-12.8-11.6-26.6-15.3-40.7l-2.5-10.6c-.6-3.6-1.2-7.2-1.7-10.8l-.8-5.4c-.2-1.8-.4-3.6-.5-5.4l-1-10.9c-.7-14.5-.5-29.1 1.8-43.4 2.1-14.2 6.8-27.9 13.7-40.5 7-12.4 17.1-22.7 29.3-30 1.5-.9 3.1-1.7 4.7-2.4s3.1-1.6 4.8-2.2c3.3-1.3 6.6-2.3 10.1-3.1 6.9-1.6 13.9-2.3 21-1.9 14.2.8 27.9 5.3 39.7 13.1 6 3.7 11.2 8.6 16.2 13.6l3.4 4.1c1.2 1.3 2.3 2.7 3.3 4.2 1.9 3 4.1 5.8 5.7 9 7 12.4 10.8 26.3 12.5 40.5 3.4 28.7-.7 57.9-11.8 84.6-10.9 26.8-27.8 50.8-49.3 70.2-5.3 4.8-11 9.4-16.8 13.5-5.9 4.1-12 7.9-18.4 11.2-12.6 6.8-26.3 11.5-40.5 13.8-7 1-14.1 1.3-21.2.8-7-.8-14-2-20.5-4.8-6.6-2.6-12.7-6.1-18.3-10.5-5.6-4.4-10.8-9.3-15.5-14.7-9.5-10.8-17.4-23.1-25.1-35.5s-15.1-25.1-23.2-37.5-17-24.4-27.3-35.2c-10.4-10.6-22.5-20-36-26.5-6.8-3.2-13.9-5.7-21.2-7.4-7.3-2.2-15-2.7-22.6-1.6-3.8.6-7.5 1.6-11.1 3-3.5 1.4-6.9 3.1-10.1 5.1-6.3 4.1-12.1 8.9-17.2 14.5-10.1 11-18.1 23.6-24.9 36.7-6.8 13.1-12.7 26.6-17.8 40.5-10.1 27.6-18 56-23.6 84.9 3.1-14.4 6.9-28.6 11.1-42.6s8.9-28 14.2-41.6c5.3-13.7 11.4-27 18.4-39.9 7.1-12.8 15.1-25.1 25.1-35.5 4.9-5.2 10.5-9.8 16.6-13.6 3-1.9 6.2-3.4 9.5-4.7 3.3-1.3 6.7-2.1 10.2-2.6s7-.6 10.5-.2c1.8.2 3.5.4 5.2.8l5.2 1.3c7 1.8 13.8 4.2 20.2 7.3 12.9 6.3 24.4 15.4 34.3 25.8 9.9 10.6 18.4 22.4 26.2 34.7 15.8 24.5 28.7 51.3 48.3 74.1 4.9 5.8 10.4 11 16.3 15.7 6 4.7 12.7 8.6 19.8 11.4 7.1 3.1 14.7 4.4 22.3 5.3 7.6.6 15.2.4 22.7-.7 14.9-2.4 29.3-7.2 42.7-14.3 13.3-6.9 25.6-15.6 36.8-25.6 22.4-20 40-44.9 51.4-72.7 11.5-27.9 15.6-58.2 12-88.2-1.8-14.9-5.9-29.8-13.5-43-1.7-3.4-4-6.5-6.1-9.6-1.1-1.6-2.3-3.1-3.5-4.5l-3.7-4.4c-5.4-5.4-11-10.6-17.5-14.6-12.8-8.4-27.7-13.3-43-14.1-7.7-.4-15.3.3-22.8 2.1-3.7.9-7.4 2-11 3.4-1.8.6-3.5 1.6-5.2 2.4s-3.4 1.7-5.1 2.7c-13.2 7.9-24 19.1-31.4 32.5-7.2 13.3-11.9 27.7-14 42.7-2 14.8-2.4 29.7-1.3 44.6l1.1 11c.2 1.8.4 3.7.6 5.5l.9 5.5c.6 3.7 1.2 7.3 1.9 11l2.6 10.8c3.9 14.3 8.9 28.4 16.1 41.5 14.3 26.3 36.3 47.7 63 61.2 13.2 6.7 27.1 11.8 41.5 15.2 29 6.9 58.7 8.2 88 4.1z"/><path class="st2" d="M640.6 148.1l-10.7 2.6v-2l11.8-2.5zM635.8 137.4l-14.7 2.7-1.9-2.7 15.7-2.9zM622.9 124.1l-9.8.7-6.4-3.6 16.2 1.9zM607.4 111.8l-8.2 2-5.9-1 11.8-3.2zM633.1 162.8h17.6v3.2l-16.4 1.8zM637.7 174.9l16.7-1.4 2.1 3-17.9 2zM651 250.6l-13.3-.7v2.3l13 1.8zM649.1 264.4l-15.5-2.3v2.3l14.5 4zM641.4 279.7l-9.7-4.8-1.4 2.4 9.7 4.9zM635.8 294l-15.6-5.2v4.3l14.5 2.8zM626.8 305.8l-12.7-1.4v1.4l9.7 2.6zM617.9 320l-8.2-6.5-1.1 2.3 7.8 7.2zM606.8 332.4l-7.4-4.3-.8 2.1 8.2 3.9zM598.6 343.5l-9.2-7.1-1.9 2.2 9.5 5.9zM584.3 353.5l-5.5-6.3v1l2.8 7.4zM516 119.9l-15.5 3.2-2.4 1.7 17.9-3.6zM507 132.8l-13.8-2.5-1.2 1.3 8.1 4.4zM498.1 144.1l-12.9-4-1.9 2 12.9 4.1zM492 155.6l-15 2.8-1 2.4h14.7zM487.5 173.5l-14.5-3.1v1.6l13.6 5.2zM486.1 188.1H469v2.9l15 1.9zM484 203.3l-15 1.5v2.8h15zM484 220.7l-16.2-2.3v3.7L484 224zM486.1 236.7H469v2.8l17.1 1.4zM487.8 255.5H472v3.1h17.2zM492.6 273.2h-17.2v1.7l17.2 1.1zM496 285.1l-15.4 3.7.8 3.6 14.6-3.6zM501.6 299.4l-15.5 5 .7 2 14.8-4.3zM505.7 310.7l-15.5 4.6 2.4 2.1 12.7-4.1zM513.8 323l-10.4 9.9 2.3 3.5 8.1-11.2zM524.5 337.5l-13.9 5.1 3.2 1.9 12.3-5.6zM531.4 346.3l-6.5 9.3 1.2 1.5 7.1-9.9zM542.5 355.6l-7.6 9.6h1.3l10.2-8.1zM570.4 374.3l-5.3 5.8 1.3 3.2 5-7.2zM584.3 380.7l-5.5 5.8h1.9l4.4-5.8zM593 383.3l-6.3 5.9h1.9l5.6-5.6zM606.8 387.8l-7.2 4.4 2.7.8 6.6-4.5zM616.3 390.4v5h2l-1-4.6zM452.3 368.2l-6.9-5.9-18.7-1.9 1.1 2.8zM427.8 342.2l-15.3 2.3-3.2-2.3 17.4-2.6zM419.3 329.7l-20.9-4.9-1.1-1.8 21.2 2.5zM409.3 308.4l-16.9 2.3-1.6-2.3 14.3-4zM397.3 290.3l-18.5 2.1-2.3-2.1 16.7-3.2zM372.6 282.2l11.8-9 2.5 1.4-12.4 9.5zM374.5 258.6L351 254l1.9 3 21.6 3zM359.7 242.1l-20-1.2-2.3-2.1 17.1-2.1zM328.5 233.4l13.8-4.2-4.9-3.6-11.3 5.7zM315.8 214.1l-7.3 5.7-2.8-1.4 6.3-4.3zM296.7 210.1l-2.8 1.4-5.2 2.6-2.7-1zM258.8 225.6h-16.6l-3 2.6H253zM246.6 234.2h-15.3l-.9 1.8 14.4.7zM240.9 242.1l-18.4 4.7v.6l16-2zM228.1 260l-11.4-5.1-1.1 1.1 10.5 5zM222.5 270.3l-13.3-2.9-1.1 1.4 13.7 2.6zM217.1 281.1l-12.7-4.5-1.2 1.4 12.4 4.9zM211 295.4l-13.8-5-.9 1.4 12.5 5.4zM205.1 309.8l-13.8-5.4-.5 2 13.7 5.1zM200.3 322.3h-15.5l-.7 1.9h15.6zM195.5 334.7l-14.7-1.6-.6 2.7 14.8.8zM192.2 350.2l-14.6-4.3-1.2 1.3 14.1 4.8zM188.1 361.2l-15-2.6v1.3l14.8 2.4zM185.6 373.5l-17.1 4.6-.3.9 16.6-4.2zM278.3 210.6l5.2 2.6 2.5 184.4-3.8-.2z"/><path class="st3" d="M288.4 162l27.8 2.5 2.8 5.4-29.3-.1zM234.8 174.6l18.3-3.1 3 3.9-15.5 5.4z"/><path class="st4" d="M289.7 169.8l-1.3-7.8h-7v8.5zM240.6 180.8l-5.8-6.2-3.5 1.3 1 9.4z"/><g id="Layer_9"><path class="st5" d="M273.3 114.5l4.4 22.5-10 21.6s.7 16 4.3 24c0 0-10.3 11.5-25.4 6.3l-5.8-24.7-21-15L216 127l2.7-.3 6.3 17.7 15.9 9.7s-.4-.3 8.9-2c0 0 4.2 2.3 6.2-1.3 4.8-2.2 7.1-3.5 8.6-3.8l6-10.7-.3-21.2 3-.6z"/><path class="st6" d="M270.6 114.9c-2.4-3.5.1-2.4.1-2.4s1-6.1 2.4-4.7c1.2 1.1.2 6.6.2 6.6l-2.7.5zM216.2 127s-1.7-5.9-.3-6.2c1-.2 2.6 3.7 2.6 3.7s3.2-.5.4 2l-2.7.5zM255.2 148.3l4.1 2.7-5 1.7s-3.2-2.4-1.1-3.6l2-.8zM252.9 153l-5.2 1.4 1.1-3.9 3-1z"/><path class="st7" d="M250 160.8l3.2-8.3s.2-1.2 1-.3v5.9l-4.2 2.7z"/><path class="st6" d="M249.3 150.8v.3c0 .1.1.1.2.2.8.6 1.7 1.1 2.7 1.5.5.3 1.2.4 1.7.1.3-.2.6-.5.7-.9l.8-1.4c-.5-.2-.7-.9-.8-1.5-.1-.8-.1-1.5-.1-2.3-1.4-.7-3-1-4.5-.9-.5 0-.8.2-.7.7.1.5.2.9.2 1.4.1.9 0 1.8-.2 2.8z"/><path class="st6" d="M258 140.4c-.6-2.4-.4-2.4-.9-3.5-.8-1.8-1.8-3.7-3.5-4.6-1-.5-2.1-.8-3.2-.9-.8-.2-1.6-.2-2.5-.1-.7.1-1.3.4-1.9.8-1.7 1-3 2.5-3.6 4.4-1.6 5 3.1 9.3 6.9 11.6 1.4.9 3.2 1.5 4.7 1 5.6-1.8 4.6-6.5 4-8.7z"/><path class="st8" d="M250.2 139.4c-.9.2-1.6 1-1.7 1.9M256.5 138.1c-.8-.6-1.8-.6-2.6 0"/><path class="st6" d="M253.5 144.1c.3-.2.5-.4.8-.7.1 0 .1-.1.1-.2 0-.2 0-.4-.2-.6l-.6-.9"/><ellipse transform="rotate(-28.003 250.481 141.995)" class="st9" cx="250.5" cy="142" rx=".5" ry=".6"/><ellipse transform="rotate(-12.328 255.568 140.6)" class="st9" cx="255.6" cy="140.6" rx=".5" ry=".6"/><path class="st10" d="M245.1 141.3s-1.6-1.3-1.9-.3c.2 1.4 1.3 2.5 2.6 2.8-.1 1 .2 1.9.9 2.6 0 0-2.7-.5-6-5.6 0 0-3-4.3 2.5-6.9.8-4.2 5-6.4 10.6-4.7 2.4 2.3 3.8 5.4 3.8 8.7-.5-1.8-1.7-3.3-3.3-4.1 0 0-3.5 4-6.8 1.4-.1.1-2.5.7-2.4 6.1z"/><path class="st11" d="M255.5 144.9s-.8.5-3.5.8c0 0 2.8 2.8 3.5-.8z"/><path class="st7" d="M254.2 158.1l-14.3-14.8-6.9-.3 2.4 6.5 14.6 11.3z"/></g><g id="Layer_7"><path class="st6" d="M317.2 136.4l4.2-16.7c0-.5-.2-.9-.4-1.3-.1-.2-.2-.5-.3-.7-.1-.4 0-1.4-.1-2.4 0-.7-.3-1.2 0-1.2s.6.3.8.9c.1.5 0 1.4.4 1.4.1 0 0-.5.1-.6.2-1.1.3-2.2.1-3.3-.1-.3 0-.7.2-1 .4-.4 1-.4 1.5-.1.9.6 1.4 1.6 1.3 2.7.2 1.5 0 2.9-.7 4.2-.4.6-.6 1.2-.7 1.9l-.3 17.2-6.1-1zM261.9 127.5c.9-1.5 1.4-.3 2.1.7.6.8 1.3 1.5 2.1 2 .1.1.3.2.5.1.4-.2.1-.6 0-1.1-.1-.7.1-1.1.3-1.3s.3.5.6 1.2c.4 1 .9 1.9 1.1 2.3 0 .3.1.5.1.8 0 .5.1 1 .3 1.4l9.9 9.8c-1.3 1.4-2.6 2.8-4 4.1l-7.7-12.1c-.4-.6-1-1.1-1.6-1.5-1.3-1-2.4-2.2-3.3-3.5-.7-.9-.8-2-.4-2.9z"/><path class="st9" d="M296.2 152.3c12 3.1 14.1-3 14.1-3 3-7.4 1.4-10.5-.2-13.2-1.5-2.5-4.3-3.9-7.2-3.5-1.6.1-6.7-4.4-6.9-7.5-.4-5.6-7.8-10.5-12.5-9.2 0 0 3.3 2.8 1.6 6.5-4.2 9-4 25.9 11.1 29.9z"/><path class="st6" d="M300.1 151.9v-1.6c0-.6.3-.7.9-.6 1.7.2 3.3.9 4.6 1.9-.2.8-.3 1.6-.3 2.5-.2.6 0 1.3.5 1.7l-1.1 1.4c-.2.3-.6.6-.9.8-.7.1-1.3-.1-1.8-.5-.9-.6-1.8-1.4-2.5-2.2-.1-.1-.1-.1-.1-.2v-.3c.3-.9.5-1.9.7-2.9z"/><path class="st6" d="M292.6 140.9c.3-2.1 1.3-4 2.9-5.5.6-.5 1.2-.9 1.9-1.2.8-.3 1.7-.4 2.6-.4 1.2-.2 2.4-.1 3.6.2 2 .6 3.5 2.4 4.7 4.1.8 1 1.5 2.1 1.9 3.4.2.9.2 1.8.1 2.7 0 1.4-.2 2.8-.5 4.2-.3 1.3-1 2.5-2.1 3.3-1.5 1-3.5.6-5.2 0-4.7-1.7-10.5-5.2-9.9-10.8z"/><path class="st10" d="M294.6 148.3l-2.8-4.4 1.2-6.5 2.8-2.8 4.3-1.8 4.3 1 4.6 3.9 1.8 3.8v2c-.9-.9-1.6-2-2.1-3.2-2.2-3.8-7-2.4-7-2.4-1.5.3-3 .2-4.4-.3 3.3 4.1-.4 12.2-.4 12.2l-2.3-1.5z"/><path class="st6" d="M298.7 143c.7-1.2 1.4-2.8 3.5-2.4M306.1 137.9c-.9.1-1.7.7-2.1 1.6M304.5 142.8l1.1 1c.2.1.9.4.8.6 0 .1-.1.2-.1.2-.2.3-.5.6-.7.9M305 148.9c-.2-.1-.7-.3-.6-.6 0 0 0-.1.1-.1.7-.8 1.6-1.5 2.6-2 .1-.1.3-.1.5 0 .1.1.1.1.1.2v.9c.1.3.1.7.1 1 0 .4-.3.7-.6.7h-1.1c-.4.1-.8 0-1.1-.1z"/><path d="M307.8 148.3c-.2-.1-.5.1-.6.2-.5.3-1.1.4-1.7.3-.4 0-.9-.2-1.3-.3.1.2.2.4.4.5.2.1.4.2.6.2l.8.2c.3.1.7.1 1 .1.4 0 .7-.2.9-.5.1-.1.1-.6-.1-.7z" fill="#c10072" stroke="#000" stroke-width=".5" stroke-miterlimit="10"/><path class="st13" d="M299.1 180.1c.7-2.2 1.2-3.9-.2-5.8-2.2-3.1-5.9-7.3-7.4-9.5-3.4-5-15.2-15.5-15.2-15.5l-4.5-1.5c1.9-4.8 7.8-8.1 7.8-8.1l1.7 5.6 14.1 10.4 1.2-.3c-.5-.7-.4-1.6.2-2.1l2.4 1.5c3.1 2.5 4.7.2 4.7.2 1.1-1.8 4-1.7 4-1.7l-1 1.7 1.2-.1 8.9-15.2-1.1-5.2c2.5-1.2 10.1 1.1 10.1 1.1l-2.8 5.6c-.4 3.4-5.8 13.3-7.5 16.1s-1.4 3.7-1 5.1 2.5 3.4 2.2 5.4-1 3.1-.4 4.8c.3 1 .9 1.9 1.5 2.7-5.4 3.9-12.1 5.5-18.9 4.8z"/><path class="st6" d="M303 142.5c-.6-.3-1.2-.3-1.8 0-1 .4-.8 1.3-1.6 1.4M305.4 141.1c0-.6.3-1.1.8-1.4.9-.7 2.2.1 2.3-.5"/><path d="M307.6 146.5s.4-1-.6-.9-2 1.8-2.9 1.9c-.5 0-1 0-1.4-.3 0 0 .9 1.3 1.7 1s1.8-1.9 3.2-1.7z" fill="#c10072" stroke="#000" stroke-width=".5" stroke-linecap="round" stroke-linejoin="round"/></g><path class="st13" d="M331.5 231.2h28.3l14.4-51.9s-49.1-14-95-8.5-58.3 24.4-58.3 24.4l13 35.2s14-16.3 44.9-15c27.5 1.1 52.7 15.8 52.7 15.8z"/><path class="st11" d="M333.5 171.5l-2 59.7"/><path class="st4" d="M305.7 216.1c0 5.3 2.6 9.5 5.9 9.5s5.9-4.3 5.9-9.5-2.6-9.5-5.9-9.5-5.9 4.3-5.9 9.5z"/><path class="st6" d="M309.1 216.1c0 2.3 1.1 4.1 2.5 4.1s2.5-1.8 2.5-4.1-1.1-4.1-2.5-4.1-2.5 1.9-2.5 4.1z"/><path class="st4" d="M237.4 216.7c1.2 5.1 4.8 8.6 8 7.9s4.7-5.5 3.5-10.6-4.8-8.6-8-7.9-4.8 5.5-3.5 10.6z"/><path class="st6" d="M240.6 215.9c.5 2.2 2.1 3.7 3.4 3.4s2-2.4 1.5-4.6-2.1-3.7-3.4-3.4-2 2.4-1.5 4.6z"/><path class="st13" d="M700.4 385.8h5.2v92.8h-5.2z"/><path class="st4" d="M696.7 475.4h12.8v6.8h-12.8z"/><circle class="st15" cx="703" cy="382.5" r="7"/><path class="st6" d="M683.3 318.2l-6.5-4.4s-2.9 5.5-4.9 5.9l5.5 8.3c0-.1 6.9-6.6 5.9-9.8z"/><path class="st16" d="M691.9 385.6l-13.9 50 5.6 60.8 9.2-.8 1.3-57.1 16.5-39.7z"/><path class="st16" d="M691.9 385.6l31.2-13.2 18 47.6 47.8 16.9 2.2 7.7-59.6-10.8-39.7-47.9"/><path class="st6" d="M691.6 385.5l31.5-13.1-13.1-32.9 13.6 9.3c1 .6 1.7 1.6 2 2.7l7.8 27.2 6.2-.3-5-32.8c-.2-1.1-.7-2.2-1.6-2.9l-28.9-25.9-20.9-2.1-6.3 9-4.4-1.4L667 336l-.2 21.3c0 .9-.1 1.7-.2 2.6l-29.8-1.2 1.8 5.9 36.2 4.1c.4-.6.6-1.3.7-2l4.1-17.3 12 36.1z"/><path class="st5" d="M703.1 316.7s2.9 18.4 8.6 23.9l7.9 20.7-8.4 12.5-13.3-1.2-7.6 9.3-14.9-34.9-8.5-11.1 2.7-6.7 5.2 1 2.1-6.6 6.8 2.2 5-10.6 14.4 1.5z"/><path class="st6" d="M739.6 378.4s3.4 9.6 1.2 11.2c-3.7 2.6-4.7-7.2-6.1-5.8-1.9 1.8-2.1-.7-1.3-5.2l6.2-.2zM653.5 300.9c-1.5 1.5-1 5.7.5 7.8s4.4 5.6 3.7 6.5c-.3.3-.8 1-.9 1.3 0 .5 1.4.8 2.3.6 1.4-.2 6.7 7 12.9 3.5s8.5-10.2 5.9-15.2-10.6-17.9-24.4-4.5z"/><path class="st10" d="M666.1 289.2c-3.1-1.3-6.6-.7-9.2 1.4-4.3 3.6-8 12-10.2 12s-.9 5.1 1.7 5.2c1.7 0 3.4 0 5.1-.1 0 0 .5-4.1 3.5-5.5s6.2-3.1 6.3-4.7c0 0 2.4 6.8 6.5 6 1-.2 1.2-2.1 1.8-2 1.8.2 2.5 3.5 2.6 5.2 0 0 4.7.3 4.7 2s3.2-2.2 1.7-7.7-8.3-14.5-14.5-11.8z"/><ellipse transform="rotate(-49.571 659.584 310.181)" class="st9" cx="659.6" cy="310.2" rx=".9" ry="1.1"/><path class="st11" d="M664.5 315.1s.4 2.9-1.5 3.2M665.3 314.4c-.3-.2-.6-.3-1-.3"/><path d="M660.9 306.6s-2.9.2-4.5 1.7" fill="none" stroke="#000" stroke-miterlimit="10"/><path class="st10" d="M693.1 495.6l.5 6-3.5.4-.2-1.5-2.1 1.7-16.7 1.5 14.3-7.4zM789 436.7l6-.9.6 3.5-1.5.3 1.8 2 2.5 16.5-8.3-13.8z"/><path class="st11" d="M661.5 309c-1.1-.3-2.3 0-3.2.7"/><path class="st6" d="M637.3 358.7s-4.7-3.4-5.6-2.6.7 2.2.7 2.2-6.5.2-6 2.3 7.2 3.3 12.7 3.9l-1.8-5.8z"/><path class="st18" d="M821 321h2.9v161.2H821z"/><path class="st15" d="M772.3 306h100.2c3.9 0 7.1 3.2 7.1 7.1v30.1c0 3.9-3.2 7.1-7.1 7.1H772.3c-3.9 0-7.1-3.2-7.1-7.1v-30.1c0-4 3.2-7.1 7.1-7.1z"/><g class="st19"><path d="M817 320h-10.4v5.8h9.7v2.1h-9.7v6.4h10.5v2.1h-12.9v-18.5H817v2.1zM826 329.1l5.2 7.2h-2.8l-3.8-5.5-3.7 5.5h-2.7l5-7.1-4.7-6.3h2.8l3.2 4.6 3.3-4.6h2.7l-4.5 6.2zM835.5 320.5h-2.2v-2.7h2.2v2.7zm0 15.8h-2.2v-13.4h2.2v13.4zM844.7 324.7H842v7.8c0 1.2-.1 2 1.5 2 .4 0 .7 0 1.2-.1v1.9c-.7.1-1 .1-1.7.1-3.4 0-3.2-1.7-3.2-4.6v-7.1h-2.3v-1.8h2.3v-4h2.2v4h2.7v1.8z"/></g><path class="st13" d="M809.5 385.8h5.2v92.8h-5.2z"/><path class="st4" d="M805.7 475.4h12.8v6.8h-12.8z"/><circle class="st15" cx="812.1" cy="382.5" r="7"/><path class="st18" d="M64.4 321h2.9v161.2h-2.9z"/><path class="st15" d="M15.7 306h100.2c3.9 0 7.1 3.2 7.1 7.1v30.1c0 3.9-3.2 7.1-7.1 7.1H15.7c-3.9 0-7.1-3.2-7.1-7.1v-30.1c0-4 3.2-7.1 7.1-7.1z"/><g class="st19"><path d="M51.4 320H41v5.8h9.7v2.1H41v6.4h10.5v2.1H38.6v-18.5h12.8v2.1zM56.2 325c1.1-1.6 2.5-2.4 4.6-2.4 3.3 0 4.5 1.8 4.5 4.9v8.9H63v-7.9c0-2.1-.1-4-2.9-4-2.9 0-3.8 2.2-3.8 4.8v7h-2.2v-13.4h2.1v2.1zM74.3 324.7h-2.7v7.8c0 1.2-.1 2 1.5 2 .4 0 .7 0 1.2-.1v1.9c-.7.1-1 .1-1.7.1-3.4 0-3.2-1.7-3.2-4.6v-7.1h-2.3v-1.8h2.3v-4h2.2v4h2.7v1.8zM82.3 336.8c-4 0-6.3-2.6-6.3-7 0-4.3 2.5-7.3 6.2-7.3 4.4 0 6.1 3.5 6.1 7.4v.3h-10v.2c0 2.9 1.6 4.6 4.2 4.6 1.9 0 3-.8 3.6-2.9h2.2c-.8 3.1-2.8 4.7-6 4.7zm-.1-12.5c-2.2 0-3.7 1.6-4 4.1H86c-.2-2.5-1.6-4.1-3.8-4.1zM97.7 324.9h-.6c-3.6 0-4.3 2.8-4.3 5.8v5.7h-2.2V323h2.1v2.9c.9-2.3 2.6-3.2 5-3.2v2.2z"/></g><path class="st13" d="M79.9 385.8h5.2v92.8h-5.2z"/><path class="st13" d="M76.2 475.4H89v6.8H76.2z"/><circle class="st15" cx="82.5" cy="382.5" r="7"/><path class="st13" d="M189 385.8h5.2v92.8H189z"/><path class="st4" d="M185.2 475.4H198v6.8h-12.8z"/><circle class="st15" cx="191.6" cy="382.5" r="7"/><g id="Layer_3"><path class="st6" d="M390.8 401c-1.2.4-2.4 1.3-3.5.9s-1.5-2.3-2.6-3.1c-1-1.2-3-4.6-3-4.6-.7-.5-1.9.2-2.5-.5-.2-.3-.3-.6-.2-.9 0-1.1.3-2.1.7-3.1.2-.4.3-.8.3-1.3-.1-.7-.8-1-1.2-1.5-1-1.1-1-2.8-1-4.2 0-2-.2-3.9-.7-5.8-.3-1.4.7-2.9 1.7-3.9 2.7-2.2 6.2-3.2 9.7-2.7 3.4.5 6.7 1.8 9.5 3.8 1.2.7 2.2 1.6 3.1 2.6 1.5 1.9 2.5 4.1 2.8 6.5s.4 4.8.5 7.2c0 1.7.4 3.3 1.2 4.7.2.2.3.5.4.7 0 .2 0 .5-.1.7-.3.9-.8 1.7-1.3 2.4-2.6 3.8-1.6 4.1-5.8 6l-5.1-5-2.9 1.1z"/><path class="st10" d="M390.2 385.9s1.3-4.8 3-4.1 1.4 2.5 1.9 3.9 5.7 5.2 9.8 3.6c1.1-3.2 1.4-6.5.9-9.8-.5-3.2-1.6-6.4-3.1-9.2-.5-1.1-1.2-2.1-2-3-.7-.8-1.5-1.4-2.4-2-1.2-.9-2.6-1.5-4-2-3.9-1.2-8.1-.4-12 .8-2.5.8-5 1.7-6.9 3.6s-4.3 1.5-3.8 4c.2 1.1 2.5 5 3.5 5.6s2.2.6 3.1 0c.6-.6 1.2-1.2 1.7-1.9s1.4-1 2.2-.9c.6.3 1 .9 1.1 1.6.1.7.1 1.3.1 2 0 1.6 1 3.1 2.4 3.7.4.1.8.2 1.1.4.9.4 1.5 1.3 1.7 2.2.1.4.1.7.3 1.1.1.3.5.6.8.6"/><ellipse transform="rotate(-13.202 381.386 387.566)" class="st10" cx="381.4" cy="387.6" rx=".9" ry="1.3"/><path class="st11" d="M382.3 386c-.9.2-1.8-.8-2.9.5v.2"/><path class="st6" d="M406.8 393.9l-2.1-1.1-11.8 15.2 3.6 4.1 11-17.4z"/><path class="st20" d="M363.9 436.4l-2.4-.6-2.5 7.9 2.2.5 4.2.1z"/><path class="st21" d="M445.8 474.4l-25.2 31.8s-3.8 4.8-4.6 8.9l-13.3 50.8s-3.2 1.8-7.3-1c0 0 2.3-36.6 3-40.3 0 0 .8-13.4 4.3-20.1 0 0 15.4-35.1 21.5-41.2 0-.1 18.3 6.1 21.6 11.1z"/><path class="st6" d="M428.6 453.9l-10 9.4s-18.9-20.8-19.7-26.8c-.1-.1 26.1 10.6 29.7 17.4z"/><path class="st5" d="M420.9 468l-4.5-4.7.8-.7 4.6 4.6z"/><path class="st21" d="M447.8 453.8s-.2 2.8 9.7 17l13.9 21.3s3.6 5.4 8.1 2.8l44.5-11s3 3.9 2.9 7.5l-39 18.1s-12.7 5.6-23.1-1.6c0 0-14-10.3-24-23.2l-21.7-20.5 18.8-11.8s7.5-1.5 9.9 1.4z"/><path class="st10" d="M431.4 456.9l-10.2 10.5-4.2-4.2 12.4-11.3z"/><path class="st6" d="M459 420.8s-.5 4.1.2 5.8 3.3 2.4 5 1.5c1.7-.9.1-2.6-2-2.9"/><path class="st6" d="M464.3 417.1s5.8 3.8 6.2 6-2.3 6.5-6.2 6.3-5-3.2-1.7-5.4c3.4-2.2 4.8-1.9 5.4-1.4"/><path class="st20" d="M463.7 415.3l1.3 2-7.1 4.7-1.8-2.3s4-6.3 7.6-4.4z"/><path class="st7" d="M456.8 421.5l-14.7-16.7-18 8.5-10.3-13.8 24.3-8s5.7-3 9.6 1.5l17.2 22.5-8.1 6z"/><path class="st7" d="M384.6 436.9s-.2 1.4-2.2 1.1l-19.4-2.5-2.6 9 22.6 5.6s7.8 3.1 12-3.6l5-8.2 28.9 18.4s13.5 9 20.5-1.1 9.5-12.9 9.5-12.9 1.5-2.3-2.6-3.5c0 0-20.5-9.7-24.6-15.5 0 0-14.4-27-24.6-29.8-.3 0-18.2 27-22.5 43z"/><path class="st10" d="M524.3 483.6l7.6-2.8 1.5 4-1.8.7 2.8 1.9 7.1 19-13.9-14.1zM403.7 565.8l-.6 8-4.3-.3.1-2-2.8 1.8-20.2-1.6 18.6-6.6z"/><path class="st6" d="M383.7 397.5s3.1-3 3.8-5.1"/><path class="st11" d="M377.8 384.6s3.1-1.5 5-.3"/><path class="st6" d="M361.5 435.8s-7.2-7-7.4-5.2.2 2.2-2.2 2-5.5 0-4.8 3.8 1.3 5.7 3.1 6.6 8.9.7 8.9.7l2.4-7.9z"/></g><path class="st20" d="M148.7 405.6h26.2s13.9 10.1 7.9 67.9c0 0 13.8 14.2 18.4 24.8l-3.7.5-26.7-19.9-6.3-44.7-8.1 31.7 4.2 64-6.2 2.8-14.1-63.5s-.3-41.8 8.4-63.6z"/><path class="st5" d="M178.7 372.4l7.7 23.4-13.3 8.2s-4-10-4.2-10.9 9.8-20.7 9.8-20.7z"/><path class="st5" d="M174.9 405.6l3.8-33.3s-3.3-14.4-16.1-16.9h-7.1l-12.1 4.4s7.2 39.8 5.3 45.8h26.2z"/><path class="st5" d="M138 367.1s.5-6.1 5.3-7.3 11.1 28.6 11.1 28.6l-15.1 17.2-4.7-3.8 11.1-16.1-7.7-18.6z"/><path class="st9" d="M155.3 322.6s-7.3.7-8.2 6.7-3.4 10-2.4 15.3 6.9 9.8 12.2 14.9 13.4 6.7 11.4 12.2c0 0 7.8-2.7 9.8-9.6 0 0 .1 3.8 0 5.1 0 0 6.6-3.5 3.9-10.3s-7.8-9.9-7.1-14.1-5.2-23.6-19.6-20.2z"/><path class="st6" d="M139.3 405.6c-1.4 1.6-3.3 2.6-5.3 2.9-3.2.3-5.9-2.4-4.6-4.7s.7-.7 1-1.5.6-1.6 1.6-1.5c.9.2 1.8.5 2.7.9l4.6 3.9z"/><path class="st9" d="M160.6 529.9l5.4 10.6-1.9 1-2-2-5.2 2h-8.4l6-3.6-.1-5.7zM201.6 498.6l-4.1.4 4.3 11.7 8.7 6.3-.4-10.5z"/><path class="st22" d="M272.7 188.2c-.1-.2-.5-.1-.9-.1-.2 0-.5.1-.9.2l.3-1.4c0-.2-1-.9-1.3-.6-.4.8-.7 1.6-.8 2.5-.7.1-1.3.4-1.9.6v-.1c0-.6-.9-.9-1.4-.9-.2 0-.4 0-.4.2-.9 2.2-1.7 4.4-2.2 6.6h-.1c0-1.9.2-3.7.5-5.6 0-.5-.4-.5-.6-.5-1 0-1.4 2.7-1.3 5.9v.1c.1 1.3-1 3.8-2.6 3.8-1 .1-1.4-.6-1.5-1.5s0-1.7.2-2.6c.2.5.7.8 1.2.7 1.6-.1 2.1-2.4 2-4.8-.1-1.8-1-2.3-1.8-2.3-1.8.1-3.1 5.1-3 8.4v.5c-.1-.1-.2-.1-.3-.1l-.2.1c-.9-1.1-2.1-2.3-3-3.3 2.2-.5 3.6-1.9 3.5-4.2s-2.2-3.9-4.6-4c0-.1.1-.2.1-.3-.3-.2-.6-.3-1-.4-.5 0-.4.3-.5.6 0 .1 0 .2-.1.3-1.4.2-2.6 1.1-3 2.5.1.3 1.1.9 1.3.8 0 0 .1 0 .1-.1.2-.8.7-1.5 1.4-1.9-.4 3.2-1 9.6-1.2 12.7.4.2.9.4 1.3.4.3 0 .5-.5.5-1.2s-.2-.7-.1-1l.3-4.1h.1c1.2 1.1 3.9 4.3 5.1 5.7.4-.1.7-.4.9-.7v-.1c.5.9 1.5 1.4 2.5 1.3 1.1-.1 2-.9 2.4-1.9.2.7.5 1.1 1.1 1 .3 0 .5-.1.6-.3.1-2.4.6-4.7 1.5-6.9h.2c-.2 1.3-.3 2.6-.3 3.8.1 1.6.5 2.9 1.9 2.9.9-.1 1.7-.7 1.9-1.6.3.9 1.2 1.5 2.2 1.5 1.2-.1 3-1.7 2.9-3-.1-1.1-.7-.9-.7-.9-.3 1.3-1.3 2.3-2.6 2.5-.4 0-.6-.3-.7-.8-.2-2.9.1-3.1.9-7 .9-.2 1.9-.4 2.8-.5.1 0 .3-.1.3-.2v-.1c-.1-.2-.3-.4-.4-.6-.3.1-.5.3-.6 0zm-13.8 1.8c.1-.3.2-.4.3-.4s.2.1.3.9c.1 1.8-.4 4-1.1 4-.4 0-.5-.5-.5-.5.1-1.4.5-2.7 1-4zm-7.5-3h.4c1.4-.2 2.7.8 2.9 2.1v.2c.1 2.5-1.6 3.6-3.9 3.7.2-2.2.4-4.4.6-6zm16.8 8.8c0 .2 0 .4.1.5-.2.5-.5 1.4-1.1 1.4s-.8-.4-.9-1.4c-.1-2.3.6-4.5.8-6.4.2.3.5.6.8.5l.9-.2c-.4 1.9-.6 3.8-.6 5.6zM285 194.2c-.1 1.2-.3 2.4-1.3 2.5-.7 0-.9-.5-.9-1.4 0-1.9.3-3.9.8-5.7.1-.5-.7-.4-.8-.5v-.2c0-.6-.6-1.4-2-1.3-2.3.1-3.7 3.7-3.5 7.2.1 2.4 1.3 3.8 2.7 3.7.9-.1 1.7-.7 2-1.5h.1c.1.7.7 1.2 1.5 1.2 1.5-.1 2.1-2.3 2.1-3.3 0-.3-.2-.5-.5-.5-.1-.2-.1-.2-.2-.2zm-5.2 2.9c-.5 0-.7-.4-.8-1.6-.1-2 .5-6.7 1.9-6.8.4 0 .4.4.4.6 0 .7-.2 1.4-.5 2 .3.2.6.3.9.4 0 .7-.8 5.3-1.9 5.4zM301.3 194.8l-2.2-1.4-.5-.4c-.2.2-.4.4-.5.6-.2.2-.4.4-.7.6-.3.2-.5.3-.8.4s-.7.2-1 .2c-.5 0-1 0-1.4-.2s-.8-.4-1.1-.8c-.3-.3-.6-.8-.8-1.2-.2-.5-.3-1-.4-1.5 0-.5 0-1 .2-1.5.1-.5.4-.9.6-1.3.3-.4.7-.7 1.1-.9.4-.2.9-.4 1.4-.4.6-.1 1.3.1 1.9.4.5.3.9.6 1.3 1.1l.6-.5 2-1.7c-.3-.4-.6-.7-1-1-.3-.3-.7-.5-1.1-.7l-.2-.1c-.5-.2-1.1-.4-1.6-.5-.6-.1-1.3-.1-1.9-.1-1 0-2 .3-2.9.7-1.7.8-3 2.2-3.6 4-.3.9-.5 1.9-.4 2.8.1 1.9.9 3.7 2.4 5 .6.6 1.4 1.1 2.2 1.4.9.3 1.9.4 2.8.4.7 0 1.4-.1 2-.4.6-.2 1.1-.4 1.6-.7l.1-.1h.1c.4-.3.7-.6 1-.9.2-.5.5-.9.8-1.3z"/><path class="st22" d="M313.9 195.2c-1.5-1.3-2.4-3.2-2.5-5.1-.1-2 .6-3.9 1.9-5.4l.2-.2-.1-1.4-3.9.2-3.1 5.8-3.7-5.4-3.9.2v.4l.1.1.1.1.2.1.1.1.2.1h.1l.2.2c.4.3.8.7 1.1 1.1l.1.1-2.1 1.8.3 5.1 2.4 1.5-.1.1c-.3.5-.6.9-1 1.4l-.2.2-.1.1-.2.2-.1.1-.2.1-.1.1-.1.1v.5l3.5-.2-.5-8.4 4.1 5.5 3.5-6 .5 8.4 3.6-.2-.1-1.4h-.2z"/><path class="st22" d="M325.8 186.4c-.4-.8-1-1.6-1.7-2.2s-1.5-1.1-2.4-1.4c-1-.3-2-.5-3-.4-1 0-2 .3-2.9.7-.7.3-1.4.8-2 1.4l-.1.1-.1.1c-.6.7-1.1 1.5-1.4 2.4s-.5 1.9-.4 2.8c0 1 .3 1.9.7 2.7.4.8 1 1.6 1.7 2.2l.2.1.1.1h.1c.6.5 1.3.9 2.1 1.1 2.9 1 6.1.2 8.2-2 1.3-1.3 2-3.1 1.9-5-.3-.9-.5-1.8-1-2.7zm-3 3c0 .5 0 1-.2 1.5-.1.5-.4.9-.7 1.3-.3.4-.7.7-1.1.9-1 .5-2.1.5-3.1.2-.5-.2-.9-.5-1.2-.8-.4-.3-.6-.8-.8-1.2-.2-.5-.3-1-.4-1.5 0-.5 0-1 .2-1.5.1-.5.4-.9.7-1.3.3-.4.7-.7 1.1-.9 1-.5 2.1-.5 3.1-.2.9.4 1.7 1.1 2.1 2 .2.5.3 1 .3 1.5z"/><path class="st11" d="M184.1 556.4s75.8 23 191.8 29.2M260.4 548.3s60 11.4 90.6 12.3M707.8 519.4s-74.9 33-124.7 39.9M655 519.4s-32 16.1-59 18.8M478.2 422.8l71.9-16.6M503.1 431.5l34.2-6.4M716.9 315.4l30.5-18.2M727.9 321.4l21.6-12.5M213.7 414.9l49.5 14.2M202.2 398.3l77.5 20.5"/></svg>