<?xml version="1.0" encoding="utf-8"?>
<!-- Generator: Adobe Illustrator 22.0.1, SVG Export Plug-In . SVG Version: 6.00 Build 0)  -->
<svg version="1.1" id="Layer_1" xmlns="http://www.w3.org/2000/svg" xmlns:xlink="http://www.w3.org/1999/xlink" x="0px" y="0px"
	 viewBox="0 0 738 787" style="enable-background:new 0 0 738 787;" xml:space="preserve">
<style type="text/css">
	.st0{fill:#F5F5F5;}
	.st1{fill:#BCBCBC;}
	.st2{fill:#FFFFFF;stroke:#000000;stroke-width:0.5;stroke-miterlimit:10;}
	.st3{fill:#CCCCCC;stroke:#000000;stroke-width:0.5;stroke-miterlimit:10;}
	.st4{fill:#848484;stroke:#000000;stroke-width:0.5;stroke-miterlimit:10;}
	.st5{fill:#1A1A1A;}
	.st6{fill:#1A1A1A;stroke:#000000;stroke-width:0.5;stroke-miterlimit:10;}
	.st7{fill:none;stroke:#000000;stroke-width:0.5;stroke-miterlimit:10;}
	.st8{fill:#727272;stroke:#000000;stroke-width:0.5;stroke-miterlimit:10;}
	.st9{fill:#EAEAEA;stroke:#000000;stroke-width:0.5;stroke-miterlimit:10;}
	.st10{fill:#727272;}
	.st11{fill:#DDDDDD;stroke:#000000;stroke-width:0.5;stroke-miterlimit:10;}
	.st12{fill:#F2F2F2;stroke:#000000;stroke-width:0.5;stroke-miterlimit:10;}
	.st13{fill:#0077BF;stroke:#000000;stroke-width:0.5;stroke-miterlimit:10;}
	.st14{fill:#EB058C;stroke:#000000;stroke-width:0.5;stroke-miterlimit:10;}
	.st15{opacity:0.3;fill:#EB058C;enable-background:new    ;}
	.st16{opacity:0.2;fill:#EB058C;enable-background:new    ;}
	.st17{fill:#FFE600;stroke:#000000;stroke-width:0.5;stroke-miterlimit:10;}
	.st18{fill:#EB058C;}
</style>
<g>
	<g id="Layer_7_4_">
		<path class="st0" d="M546.9,516.6c0,0,164.1,36.7,185.6-148.2c0,0,50.4-214.5-205.5-309.9c0,0-111.8-51.1-288.2-1.2
			c0,0-141.9,56.5-191.7,176.8c0,0-89.1,206.9-15.5,392.1c0,0,59,241,251.9,128.8c0,0,62.4-44.6,64.3-138.2
			C347.8,616.9,341.1,471.9,546.9,516.6z"/>
	</g>
	<ellipse class="st1" cx="185.9" cy="720.7" rx="109.1" ry="10"/>
	<ellipse class="st1" cx="388.6" cy="426.5" rx="58.1" ry="5.3"/>
	<ellipse class="st1" cx="566.5" cy="600.9" rx="68.8" ry="6.3"/>
	<g>
		<polygon class="st2" points="398.2,177.2 400.4,187.8 392.4,193.8 388.2,188.7 386.3,178.6 		"/>
		<polygon class="st3" points="363.3,185.5 384.9,188.6 401.9,189 423.5,184.8 418.6,262.7 369.9,262.7 		"/>
		<path class="st3" d="M384.9,188.6l-20.9-5.1c-3.8-0.9-7.3,2.3-6.7,6.1l7.6,51.3l49.1-19.4l-2.7-7.9l-34.7,9.3l-3.5-23.4
			L384.9,188.6z"/>
		<path class="st3" d="M401.9,189l20.8-6.2c3.1-0.9,6.2,1.7,5.7,4.9l-8,55.4l-41.6-14v-8.6l29.9,4.8l4.7-30.1L401.9,189z"/>
		<polygon class="st3" points="383.2,221.2 411.3,213.6 414,221.5 406.2,224.8 		"/>
		<path class="st2" d="M378.7,220.5c0,0-6.9-3.9-9.3-3.8c-2.3,0.1,0,3.2,0,3.2s-6.9-2.1-8-1.1s1.5,7.7,4.3,8.5
			c2.8,0.9,13,1.8,13,1.8V220.5z"/>
		<path class="st2" d="M411.3,213.6c0,0,7.2-6.6,7.4-5c0.1,1.6,0,2.4,0,2.4l6.8-3.3c0,0,1.4,3.4-1.2,8c-2.5,4.6-10.3,5.9-10.3,5.9
			L411.3,213.6z"/>
		<polygon class="st2" points="385,182.4 380.2,187.4 382.6,197.3 392.4,188.8 		"/>
		<polygon class="st2" points="401.6,182.4 392.4,188.8 399.4,197.3 404,190.2 		"/>
		<path class="st4" d="M369.9,262.7l-11.3,78.5l20.5,78.5c0,0,10.2-0.3,9.9-1.2s-13.2-76.1-13.2-76.1l13.5-53.2l-5.3,50l16.7,79.6
			h8.7l-8.1-79l16.4-47.1l0.9-30.1h-48.7V262.7z"/>
		<polygon class="st5" points="409.5,419 409.5,426.5 405.4,426.5 405.4,424.6 402.8,426.5 383.9,426.5 383.9,426.5 400.7,419 		"/>
		<polygon class="st5" points="388.6,419 388.6,426.5 384.5,426.5 384.5,424.6 381.9,426.5 363,426.5 363,426.5 379.8,419 		"/>
		<g id="Layer_7_1_">
			<g>
				<path class="st2" d="M385.6,181.4c1.3,0.8,2.6,1.7,4.2,2c1,0.2,2.2-0.1,3.3-0.4l0.5-0.1c1-0.1,1.9-0.5,2.7-1.1
					c1.3-1,2-2.4,2.8-3.7c0.6-0.9,1.3-1.7,2.1-2.5c0.4-0.4,0.8-0.9,1-1.5c0.3-0.7,0.5-1.5,0.6-2.3c0.1-1.2-0.5-2.9,0.2-4
					c0.6-1,1.4-1.5,1.7-2.7c0.5-2.2,0.4-4.5-0.3-6.6c-0.2-0.6-0.7-1.5-1.4-0.7c-0.3,0.3,0,0.9-0.3,1.2l0,0l-0.1,1l-1.2,0.3
					c-0.2-0.9-0.4-1.8-0.4-2.7c-0.4-1.9-0.7-3.8-1.6-5.6c-1.1-2.2-4.9-2.5-7.1-3.2c-0.4-0.1-1-0.5-1.4-0.5c-0.6,0-0.3,0-0.7,0.4
					c-1.8,1.7-2.7,3.1-5.3,3.7c-2.1,0.5-4.3,0.6-6.4,1.2c-2.8,0.9-4.9,3.5-4.6,6.4c0.1,1.1,0.5,2.2,0.7,3.3c0.1,0.8,0.3,1.5,0.5,2.3
					c0.1,0.2,0.1,0.5,0.2,0.7l-1.5,0.4c-0.1-0.2-0.1-0.5-0.1-0.6c-0.1-0.4-0.1-0.7-0.2-1c-0.1-0.2-0.2-0.3-0.3-0.3
					c-1-0.4-1.1,0.7-1,1.3c0.4,2.2,1.3,4.3,2.7,6c0.8,1,1.7,1.1,2.7,1.7c1.1,0.7,1.4,2.4,2,3.5c0.4,0.7,0.9,1.3,1.5,1.8
					c0.4,0.3,0.8,0.6,1.3,0.8C383.4,180.5,384.6,180.8,385.6,181.4z"/>
				<path class="st6" d="M373.6,166.4c0,0.1,0.1,0.4,0.1,0.6l1.5-0.4c0-0.3-0.1-0.5-0.2-0.7c-0.2-0.7-0.4-1.5-0.5-2.3
					c-0.2-1.1-0.6-2.2-0.7-3.3c-0.4-2.9,1.8-5.5,4.6-6.4c2.1-0.7,4.3-0.7,6.4-1.2c2.6-0.6,3.5-2.1,5.3-3.7c0.5-0.5,0.1-0.4,0.7-0.4
					c0.4,0,1,0.4,1.4,0.5c2.2,0.7,6,0.9,7.1,3.2c0.9,1.8,1.2,3.7,1.6,5.6c0.1,0.9,0.2,1.8,0.4,2.7l1.2-0.3l0.1-1
					c0.1-1,0.2-2.1,0.1-2.5c-0.1-1.5-0.3-3.1-0.6-4.6c-0.4-3.7-1-7.2-4.1-9.7c-3.3-2.6-7.6-3.6-9.5-2.9c-0.1,0-1.5,0.5-1.2,0.6
					c-0.9-0.4-2.1-0.2-3.1-0.2c-5,0.1-10.3,4.2-13.1,8c-2.9,4-1.4,7.8-0.1,11.6c0.5,1.3,0.8,2.8,1.5,4c0.4,0.6,0.6,1.3,0.8,1.9
					C373.5,165.7,373.6,166,373.6,166.4z"/>
				<path class="st7" d="M390.3,158.3c0.9-1.2,3.1,0.1,4.6,0"/>
				<path class="st7" d="M379.1,162.1c1.4-0.7,2.3-2.6,3.8-2"/>
				<circle class="st6" cx="392.2" cy="160.4" r="1.2"/>
				<circle class="st6" cx="381.4" cy="162.8" r="1.2"/>
				<path class="st7" d="M387.7,175.8c0,0,4.4-2.9,8.9-1.4l0.3,1.1l-8.6,1.6L387.7,175.8z"/>
				<path class="st7" d="M386.8,163.1c0.6,1.2,0.9,2.5,1.1,3.9c0.1,1,0.2,2,0.3,3c0,0.5,0.2,1,0.4,1.5c0.3,0.4,0.8,0.6,1,0.3"/>
			</g>
		</g>
		<g>
			<polyline class="st7" points="362.1,175.3 354.1,169.5 354.1,178.6 343.1,177.1 346.8,181.5 334.9,184.7 344.2,189.5 
				334.9,195.2 341.3,196.9 334.9,204.8 343.1,207.6 334.9,216.4 344.4,216.4 338.7,226.8 345.7,226.8 338.7,233.4 345.5,233.4 
				340.3,241.6 348.5,244.7 			"/>
			<polyline class="st7" points="423.8,170.9 431.7,165.2 431.7,174.3 442.7,172.8 439.1,177.1 451,180.4 441.7,185.1 451,190.8 
				444.5,192.5 451,200.4 442.7,203.3 451,212.1 441.4,212.1 447.1,222.5 440.1,222.5 447.1,229 440.4,229 445.6,237.2 437.4,240.3 
							"/>
			<path class="st7" d="M354.1,274.2c-0.6,0-8.7,2.8-8.7,2.8l8.7,2.8l-8.7,6.7l5.6,2.6l-7.2,6.5l7.2,2.8l-5.6,7l5.6,2.6l-7.2,5.7
				l7.2,2.8"/>
			<path class="st7" d="M432.3,273.8c0.6,0,8.4,3.5,8.4,3.5l-8.9,2.1l8.1,7.4l-5.8,2.1l6.7,7l-7.4,2.3l5.1,7.4l-5.8,2.1l6.7,6.3
				l-7.4,2.3"/>
		</g>
		<g>
			<polygon class="st2" points="371.5,160.4 372.4,176.4 375.6,160 			"/>
			<polygon class="st2" points="376.8,144.5 378.9,160.4 381.4,144.5 			"/>
			<polygon class="st2" points="399.2,151.5 400.2,167.4 402.4,152.9 			"/>
			<polygon class="st2" points="389.6,198.8 390.7,216.5 394.3,202.2 			"/>
			<polygon class="st2" points="419.7,190 420.7,205.9 425.1,187.9 			"/>
			<polygon class="st2" points="360.9,187 363,203.1 365.4,185.5 			"/>
			<polygon class="st2" points="370.8,238.4 371.7,254.3 374.7,237.2 			"/>
			<polygon class="st2" points="404.9,243.7 407.5,256.5 409.3,240.9 			"/>
		</g>
	</g>
	<g id="Layer_7_2_">
		<polygon class="st2" points="553.3,433.5 557.6,589.7 564.8,589.7 579.8,433.5 		"/>
		<polygon class="st2" points="573,433.5 581.5,589.7 587.8,589.7 601,433.5 		"/>
		<path class="st5" d="M565.6,589.7v13.6h-2l-1.4-5.7l-3.6,5.7h-20c7.7-1.6,14.2-6.6,17.8-13.6H565.6z"/>
		<path class="st5" d="M589.1,589.7v13.6h-2l-1.4-5.7l-3.6,5.7h-20c7.7-1.6,14.2-6.6,17.8-13.6H589.1z"/>
		<path class="st2" d="M540.8,235.1c-0.2,2.4,0,4.8-0.2,5.7c-0.2,0.6-0.4,1.1-0.7,1.7c-0.4,0.9-1.1,2.2-0.9,3.1l0.6,3.9
			c0.3,1.9-0.4,3.5-2.3,3.8l0,0c-2,0.3-3.3-1.3-3.3-3.3l-0.5-2.7c-0.2-1.6-0.8-3.2-1.6-4.6c-1.5-3-1.3-6.9-0.9-10
			c0.3-1.9,2.5-3.5,5.5-5.3c1.5-0.9,4-1.9,3.3,0.2c-0.6,1.7-5,4.9-2.7,9.7c0.1,0.2,0.5,0.8,0.8,0.8c0.9-0.1,0.8-2.2,1-3.4
			c0.4-1.5,1.3-2.3,1.9-2.2S540.9,233.4,540.8,235.1z"/>
		<path class="st2" d="M622.9,232.3c0.6-0.1,1.6,0.6,2,2.1c0.3,1.1,0.2,3.2,1.2,3.3c0.3,0,0.6-0.6,0.7-0.8c2-4.9-2.5-7.8-3.2-9.5
			c-0.8-2,1.8-1.1,3.3-0.3c3.1,1.7,5.3,3.1,5.7,5.1c0.6,3.1,1,7-0.4,10.1c-0.8,1.5-1.3,3.1-1.4,4.7l-0.3,2.8c0,2.1-1.1,3.7-3.2,3.5
			l0,0c-1.9-0.2-2.7-1.8-2.4-3.7l0.4-3.9c0.1-0.9-0.6-2.2-1.1-3c-0.3-0.5-0.5-1.1-0.8-1.6c-0.2-0.9-0.2-3.3-0.5-5.7
			C622.9,233.6,622.3,232.4,622.9,232.3z"/>
		<path class="st8" d="M618,352.3c-8.3,5.3-5.3,15.2-5.3,15.2c-11.2-3.7-46.3-18.9-39.7-30.8c3.7-6.7-5.5-13.6-8.9-15.4
			c-4.1-2.2-5.6-15.6-5.3-25.5c0.3-7.6,0-17.2,15.1-25.6c7.3-4,18.2-5.2,33.7,10.6C634.3,307.7,638.3,339.3,618,352.3z"/>
		<path class="st9" d="M577.2,331.6l-1.3,1.1c-2.8-0.5-5.3-2.2-6.8-4.7c-3.7-6.4-11.7-19.8-21.5-34.5l-6.6-44.7
			c-1.4-2.3-6.9-0.6-8.2,1.1c0,0-0.2,32.2,1.2,44.7c1.3,11.7,11.9,32.4,19.9,44.1c2.4,3.5,2.3,8.1-0.2,11.5
			c-1.4,1.8-2.6,3.8-3.6,5.9c-0.9,2.4-0.8,5,0.3,7.3L554,388c12.5,5.9,39.5,5.9,39.5,5.9c-0.7-3,0.8-3.2,3.9-8.9
			c0.9-1.6,1.3-3.4,1.3-5.2l-0.1-14.2c2.3-4.1,5.7-6.6,8.9-11.8c0,0,13.3-18.8-10.9-22.6l-4.2-3.2"/>
		<path class="st9" d="M594.8,336.4c4.2-11.9,10.7-26,16.7-34.9l11.7-50.9c2.4-2.1,5-1.5,7.6-0.8l-2.7,57.2
			c-4.1,13.2-14.6,40.8-22.6,50.2"/>
		<path class="st2" d="M592.5,327.6c0.1,0.2,0.2,0.4,0.2,0.6s-0.1,0.4-0.3,0.6c-1.6,2.1-3.5,4.1-5.5,5.8c-1.2,1-2.7,2.1-4.3,1.7
			c-1-0.3-1.8-0.9-2.5-1.7l-3-3.1c1.2-1,1-2.8,0.8-4.3c-0.4-2-0.9-3.9-1.4-5.9c3-2.8,6.7-4.7,10.7-5.6c1.4-0.3,2.1-0.1,2.3,1.3
			s0.3,2.5,0.5,3.7C590.5,323.2,591.3,325.5,592.5,327.6z"/>
		<path class="st2" d="M572.2,323.2c-4.6-2.5-7.5-7.1-9-18.4s2.7-15.5,2.7-15.5c2.6-4.4,6.4-8.5,11.1-10.6c2.7-1,5.6-1.5,8.6-1.4
			c2.2-0.2,4.3-0.1,6.4,0.4c1.7,0.5,3.4,1.3,4.8,2.4c4.2,3,7.1,7.4,8.3,12.3c2.9,13.2-7.2,22.1-16.6,28.9
			C583.2,325.2,576.8,325.7,572.2,323.2z"/>
		<path class="st10" d="M601.6,314.3c0,0-14-19.1-7.2-29.6c0,0-8,1.5-12.7,0.7c-4.8-0.8-13.3-1.5-17.6,8.1c0,0-0.2,3.2-2.7,5.7
			l0.4-4.9l3-7.2l10.5-8.5l10.1-3.4l10.8,3.3l7.3,6.1l4.4,15.2l-5.6,11.3L601.6,314.3z"/>
		<path class="st7" d="M601.6,314.3c0,0-14-19.1-7.2-29.6c0,0-8,1.5-12.7,0.7c-4.8-0.8-13.3-1.5-17.6,8.1c0,0-1.5,3.5-1.1,4.6"/>
		<path class="st2" d="M583,292.6c3.2,0.2,5.9,2.6,6.4,5.8"/>
		<path class="st2" d="M577.2,290.6c-1.8-1.3-4.2-1.6-6.2-0.8"/>
		<path class="st2" d="M574.9,307c-0.7-0.6-1.3-1.2-1.9-1.9c-0.2-0.2-0.3-0.3-0.4-0.5c-0.2-0.5,0.2-1,0.5-1.4l1.8-2.1"/>
		<ellipse transform="matrix(0.5926 -0.8055 0.8055 0.5926 -1.5805 592.1185)" class="st6" cx="584.6" cy="297.6" rx="2" ry="1.6"/>
		<ellipse transform="matrix(0.5926 -0.8055 0.8055 0.5926 -3.9981 579.7367)" class="st6" cx="571.1" cy="293.8" rx="2" ry="1.6"/>
		<path class="st2" d="M580.6,310.7c0,0-2.9,3-6,3c-1.7,0-3-0.5-3.8-2.9"/>
		<path class="st11" d="M554.1,388.1l-16.2,99.6c0,0,49.6,9.2,77.4,1.7c0,0-12.8-52.6-13.7-65.3c-1-12.9-7.6-30.1-7.6-30.1
			S560,392.2,554.1,388.1z"/>
		<polyline class="st7" points="530.7,289.4 522.8,293.8 526.8,295.8 522.8,303.1 526.8,303.1 524.5,310.7 532.9,312.2 530.7,320.9 
			536.2,320.9 532.9,326 537.9,326 		"/>
		<polyline class="st7" points="633.3,283 639.7,286.7 633.3,289.4 639.7,293.8 633.3,295.5 639.7,301 633.3,304 638.6,310.7 
			632,312.5 		"/>
	</g>
	<g id="Layer_8">
		<path class="st6" d="M212,364.5L212,364.5l-2.2,2.9l-5.2,2.1c-0.5,0.1-0.9,0.4-1.2,0.8c-5.8,0.5-13.2-0.1-14,0
			c-5,0-9,0.2-12.3,1.6c3.4-6.1,7.1-11.9,10.8-17.8c3.5-5.5,7.3-10.7,10.9-16.1c3.4-5.1,3.8-10.1,6.1-15.6
			c6.8-16.2,19.2-26.1,37.3-23.8c17,2.1,26.4,18.9,24,34.5c-0.3,1.9-0.7,3.8-1.3,5.6c-1.4,5.1-3.3,9.9-4,15.4
			c-1,7.8-1.3,15.6-0.8,23.4c0.2,3.8,1.4,26.3-4.2,28.9L212,364.5z"/>
		<path class="st2" d="M213.6,364.3c-0.2,0.2-0.4,0.5-0.4,0.8s0.1,0.6,0.3,0.9c1.8,3.3,4,6.5,6.5,9.4c1.5,1.7,3.4,3.5,5.7,3.3
			c1.4-0.2,2.8-0.9,3.8-1.8l5-3.6c-1.5-1.6-0.8-4.1-0.1-6.1c1-2.7,2.2-5.3,3.5-7.8c-3.7-4.5-8.5-8.1-13.9-10.3
			c-1.9-0.8-2.9-0.7-3.6,1.2s-0.9,3.4-1.6,5.1C217.5,358.6,215.7,361.6,213.6,364.3z"/>
		<polygon class="st12" points="192.4,706.6 236.2,605.9 232.1,499 179.3,504.1 212.2,602.6 182.2,707.5 		"/>
		<path class="st12" d="M199.9,504.7l12.3,97.9L170.1,706h-10.7l26-105.8L153.2,528c-3-6.8-4-14.4-2.7-21.7l2.2-12.6L199.9,504.7z"
			/>
		<path class="st5" d="M179.3,706v20.2h3.1l2.2-8.5l5.5,8.5l30.5-0.1c-11.8-2.4-21.8-9.8-27.3-20.1L179.3,706z"/>
		<path class="st5" d="M156.1,706v20.2h3.1l2.2-8.5l5.5,8.5l30.5-0.1c-11.8-2.4-21.8-9.8-27.3-20.1L156.1,706z"/>
		<g id="Layer_7_3_">
			<path class="st2" d="M253.9,316.6c-0.2,2.3-7.5,4-9.4,4.7c-2.3,1-4.8,1.3-7.4,1.9l0,0c-0.2-0.1-8.3,3.3-12.4,4.5
				c-4.7,1.4-7.5,2.3-11.9,4.5c-0.1,2.5,0.2,6.8,2.5,7.4c0.7,0.2,0.9,1.1,0.9,1.8c-0.1,2.3-0.1,5.2,0.8,7.3c0,0,3.9,6.7,10.4,12.1
				s16.3-1.7,16.3-1.7s9.1-6.1,12.5-17C259.7,331.2,253.9,316.6,253.9,316.6z"/>
			<path class="st7" d="M234.7,328.5c-2.4-0.8-5-0.7-7.2,0.5"/>
			<path class="st7" d="M253,334.9c-1.7-1.9-4-2.9-6.6-3"/>
			<path class="st7" d="M240.7,352.8c0,0-7.5,3.8-12.1-2.9"/>
			<path class="st7" d="M238.3,336.2c-0.6,1.7-0.9,3.5-0.8,5.2c0.1,1.3,0.4,2.7,0.5,4c0.1,0.7,0.1,1.4-0.2,2s-1.1,0.9-1.8,0.5l0,0"
				/>
			<path class="st7" d="M234.7,333.7c0,0-2.6-3.4-6.6-1.2"/>
			<path class="st7" d="M245.8,337.5c0,0,5.1-2.6,6.7,1.5"/>
			<polygon class="st13" points="144.4,506.9 244.3,518.2 229.6,454.1 248.6,412.6 243.7,381.1 241.3,375.9 204,365.9 174.2,374.4 
				174.2,396 176.4,448.4 			"/>
			<path class="st13" d="M181.1,413.9c0,0,3.3,15.3,20.8,10.4"/>
			<path class="st13" d="M216,426.2c0,0,15.7,11.4,24.2,0"/>
			<g>
				<path class="st14" d="M237.2,444.1l-56.7-3.8c-2.2-0.2-3.9-2-3.8-4.2l2.3-31.7c0.2-2.2,2.1-3.8,4.3-3.7l56.7,3.8
					c2.2,0.2,3.9,2,3.8,4.2l-2.3,31.7C241.3,442.6,239.4,444.2,237.2,444.1z"/>
				<polyline class="st14" points="179.4,405.3 211,424.9 243.6,410.3 				"/>
			</g>
			<path class="st13" d="M186.9,438.9l-42.5,14.8c-9.6,3.1-18.5-6.2-14.6-15.2l28.2-54.4c2.8-5.4,7.6-9.5,13.4-11.6l32.7-6.5l-6.4,4
				l-45.9,62.4L186,428L186.9,438.9z"/>
			<path class="st13" d="M262.4,393.2l16.3,60.5c1.3,4.7-3.5,8.7-8.1,6.9L232,441.5v-10.1l23.7,7.3l-7.1-23.7l-5.2-33.5l-2.5-5.5
				l17.8,11.5C260.5,388.9,261.8,390.9,262.4,393.2z"/>
			<polygon class="st2" points="213.7,359.5 204,365.9 205.2,382.9 225.9,371.8 235.4,392 241.3,375.9 239.8,365.9 226.9,369.2 			
				"/>
			<path class="st2" d="M185.9,428c0,0,12-6.1,18.9,4.1c7.2,10.5-2.9,9.8-5.2,8s-2.7-3.4-4.8-3.1s-7.2,5.1-8,1.8
				C186.7,438,185.9,428,185.9,428z"/>
			<path class="st2" d="M232,431.3c0,0-6.7-5-13-0.8c-6.4,4.1-8.1,9-5.2,10.2s7.4-2.5,8.4-1.6s9.1,3.4,9.8,2.4V431.3L232,431.3z"/>
		</g>
		<ellipse class="st15" cx="249.7" cy="345" rx="3.7" ry="3.6"/>
		<ellipse class="st15" cx="225.5" cy="339.8" rx="3.7" ry="3.6"/>
		<g>
			<ellipse class="st16" cx="212.4" cy="422.4" rx="74.6" ry="72.4"/>
			<g>
				<g>
					<path class="st7" d="M173.8,265.9c0,0-15.1,14.4,1.4,26.5c15.9,11.6-18.8,22.7-6,43.2"/>
					<path class="st2" d="M190.8,268.8h-36.7c-14.6,0-23.6-8.8-26.5-25.7L117.2,180c0-14.1,11.9-25.7,26.5-25.7h57.5
						c14.6,0,26.5,11.6,26.5,25.7l-10.4,63.1C214.7,260,205.4,268.8,190.8,268.8z"/>
					<path class="st17" d="M149,246c3,3.5,10.2,10,23.4,10c10,0,16.5-3.7,20.4-7c4-3.1,6.9-7.9,8-12.3c4.2-16.1-5-28.6-16.4-36.3
						c0,3.8-0.6,6.9-1.7,9.6c-4.5-5.4-9.5-11.2-9.5-21.7c-10.5,7-19.1,18.3-17.1,32.6c-2.3-2.3-4.3-5.2-5.6-9.4
						c-7,8.1-11.1,19.6-4.3,31.1C147.2,243.8,148,244.9,149,246L149,246z M172.7,223.9c0,10.3,8.5,12.2,8.6,19.8
						c0.1,4.8-3.7,8.5-8.6,8.4c-4.4-0.1-7.7-4.6-8.7-8.4C161.8,234.9,166.7,228,172.7,223.9L172.7,223.9z"/>
					<g>
						<path class="st18" d="M172.9,255.4c-0.1,0-0.1,0-0.2,0c-5.8-0.1-10.1-5.4-11.4-10.7c-2.2-8.9,1.5-17.5,10.2-23.5l3.5-2.4v4.2
							c0,5.2,2.3,8.1,4.7,11.1c2.2,2.8,4.5,5.7,4.6,10.1c0.1,3.1-1.1,5.9-3.2,8C178.9,254.2,176,255.4,172.9,255.4z M171,227.8
							c-3.2,3.1-6.8,8.3-5,15.4c0.8,3.3,3.6,6.8,6.7,6.9c1.9,0,3.5-0.6,4.7-1.8s1.8-2.8,1.8-4.5c-0.1-2.8-1.6-4.7-3.4-7.1
							C174,234.4,171.9,231.8,171,227.8z"/>
					</g>
					<path class="st7" d="M149,246c3,3.5,10.2,10,23.4,10c10,0,16.5-3.7,20.4-7c4-3.1,6.9-7.9,8-12.3c4.2-16.1-5-28.6-16.4-36.3
						c0,3.8-0.6,6.9-1.7,9.6c-4.5-5.4-9.5-11.2-9.5-21.7c-10.5,7-19.1,18.3-17.1,32.6c-2.3-2.3-4.3-5.2-5.6-9.4
						c-7,8.1-11.1,19.6-4.3,31.1C147.2,243.8,148,244.9,149,246L149,246z"/>
				</g>
			</g>
		</g>
	</g>
	<g>
		<circle class="st16" cx="569.4" cy="221.7" r="78.4"/>
		<g>
			<path class="st7" d="M571,157.3c0,0-10.8,10.7,1,19.6c11.4,8.6-13.5,16.8-4.3,31.9"/>
			<path class="st2" d="M583.2,159.4h-26.3c-10.4,0-16.9-6.5-19-19l-7.5-46.6c0-10.4,8.5-19,19-19h41.2c10.4,0,19,8.5,19,19
				l-7.5,46.6C600.3,152.9,593.6,159.4,583.2,159.4z"/>
			<path class="st17" d="M553.2,142.5c2.1,2.6,7.3,7.4,16.8,7.4c7.1,0,11.9-2.7,14.7-5.2c2.9-2.3,4.9-5.9,5.7-9.1
				c3-11.9-3.6-21.2-11.7-26.8c0,2.8-0.5,5.1-1.2,7.1c-3.2-4-6.8-8.2-6.8-16c-7.5,5.2-13.7,13.5-12.3,24.1c-1.6-1.7-3.1-3.9-4-7
				c-5,6-8,14.5-3.1,23C551.9,140.9,552.5,141.8,553.2,142.5L553.2,142.5z M570.2,126.2c0,7.6,6.1,9,6.2,14.6
				c0.1,3.6-2.7,6.3-6.2,6.2c-3.2-0.1-5.5-3.4-6.2-6.2C562.4,134.4,565.9,129.3,570.2,126.2L570.2,126.2z"/>
			<g>
				<path class="st18" d="M570.3,149.5L570.3,149.5c-4.2-0.1-7.3-4-8.3-7.9c-1.6-6.6,1-12.9,7.3-17.4l2.5-1.8v3.1
					c0,3.8,1.6,5.9,3.3,8.2c1.6,2.1,3.2,4.2,3.3,7.5c0.1,2.3-0.8,4.4-2.3,5.9S572.5,149.5,570.3,149.5z M569,129.2
					c-2.3,2.3-4.8,6.1-3.6,11.3c0.6,2.5,2.6,5,4.8,5.1c1.3,0,2.5-0.4,3.4-1.3c0.9-0.9,1.3-2.1,1.3-3.4c0-2.1-1.1-3.5-2.5-5.2
					C571.1,134,569.6,132.1,569,129.2z"/>
			</g>
			<path class="st7" d="M553.2,142.5c2.1,2.6,7.3,7.4,16.8,7.4c7.1,0,11.9-2.7,14.7-5.2c2.9-2.3,4.9-5.9,5.7-9.1
				c3-11.9-3.6-21.2-11.7-26.8c0,2.8-0.5,5.1-1.2,7.1c-3.2-4-6.8-8.2-6.8-16c-7.5,5.2-13.7,13.5-12.3,24.1c-1.6-1.7-3.1-3.9-4-7
				c-5,6-8,14.5-3.1,23C551.9,140.9,552.5,141.8,553.2,142.5L553.2,142.5z"/>
			<path class="st14" d="M588.2,236.3h-40.7c-1.6,0-2.9-1.3-2.9-2.9V210c0-1.6,1.3-2.9,2.9-2.9h40.8c1.6,0,2.9,1.3,2.9,2.9v23.4
				C591.2,235,589.9,236.3,588.2,236.3z"/>
			<polyline class="st14" points="544.9,210.6 568.6,223.5 591.2,211.2 			"/>
		</g>
	</g>
	<g>
		<circle class="st16" cx="302.3" cy="104.3" r="53.5"/>
		<g>
			<path class="st7" d="M304.4,59.1c0,0-7.6,7.5,0.7,13.7c8,6-9.5,11.8-3,22.4"/>
			<path class="st2" d="M312.9,60.6h-18.4c-7.3,0-11.9-4.6-13.3-13.3L276,14.6c0-7.3,6-13.3,13.3-13.3h28.9c7.3,0,13.3,6,13.3,13.3
				l-5.2,32.7C324.9,56,320.2,60.6,312.9,60.6z"/>
			<path class="st17" d="M291.9,48.7c1.5,1.8,5.1,5.2,11.8,5.2c5,0,8.3-1.9,10.3-3.7c2-1.6,3.5-4.1,4-6.4c2.1-8.3-2.5-14.8-8.2-18.8
				c0,1.9-0.3,3.6-0.8,5c-2.2-2.8-4.8-5.8-4.8-11.2c-5.3,3.6-9.6,9.5-8.6,16.9c-1.2-1.2-2.2-2.7-2.8-4.9c-3.5,4.2-5.6,10.2-2.1,16.1
				C291,47.6,291.4,48.2,291.9,48.7L291.9,48.7z M303.8,37.3c0,5.3,4.3,6.3,4.3,10.3c0.1,2.5-1.9,4.4-4.3,4.3
				c-2.2,0-3.9-2.4-4.3-4.3C298.3,43,300.7,39.5,303.8,37.3L303.8,37.3z"/>
			<g>
				<path class="st18" d="M303.9,53.6h-0.1c-2.9,0-5.1-2.8-5.7-5.5c-1.1-4.6,0.7-9.1,5.1-12.2l1.8-1.3v2.2c0,2.7,1.1,4.2,2.3,5.7
					c1.1,1.4,2.3,2.9,2.3,5.3c0,1.6-0.5,3.1-1.6,4.2C306.9,53,305.4,53.6,303.9,53.6z M302.9,39.4c-1.6,1.6-3.4,4.3-2.5,8
					c0.4,1.7,1.8,3.5,3.3,3.6c0.9,0,1.8-0.3,2.4-0.9c0.6-0.6,0.9-1.4,0.9-2.4c0-1.5-0.8-2.4-1.7-3.7
					C304.4,42.8,303.4,41.4,302.9,39.4z"/>
			</g>
			<path class="st7" d="M291.9,48.7c1.5,1.8,5.1,5.2,11.8,5.2c5,0,8.3-1.9,10.3-3.7c2-1.6,3.5-4.1,4-6.4c2.1-8.3-2.5-14.8-8.2-18.8
				c0,1.9-0.3,3.6-0.8,5c-2.2-2.8-4.8-5.8-4.8-11.2c-5.3,3.6-9.6,9.5-8.6,16.9c-1.2-1.2-2.2-2.7-2.8-4.9c-3.5,4.2-5.6,10.2-2.1,16.1
				C291,47.6,291.4,48.2,291.9,48.7L291.9,48.7z"/>
			<path class="st14" d="M316.4,114.5h-28.6c-1.1,0-2-0.9-2-2V96.1c0-1.1,0.9-2,2-2h28.6c1.1,0,2,0.9,2,2v16.4
				C318.5,113.6,317.6,114.5,316.4,114.5z"/>
			<polyline class="st14" points="286.1,96.5 302.6,105.5 318.5,96.9 			"/>
		</g>
	</g>
</g>
</svg>
