<?xml version="1.0" encoding="utf-8"?>
<!-- Generator: Adobe Illustrator 22.0.1, SVG Export Plug-In . SVG Version: 6.00 Build 0)  -->
<svg version="1.1" id="Layer_1" xmlns="http://www.w3.org/2000/svg" xmlns:xlink="http://www.w3.org/1999/xlink" x="0px" y="0px"
	 viewBox="0 0 1000 1000" style="enable-background:new 0 0 1000 1000;" xml:space="preserve">
<style type="text/css">
	.st0{fill:#FFFFFF;}
	.st1{fill:#BCBCBC;}
	.st2{fill:#FFFFFF;stroke:#000000;stroke-width:0.5;stroke-miterlimit:10;}
	.st3{fill:#CCCCCC;stroke:#000000;stroke-width:0.5;stroke-miterlimit:10;}
	.st4{fill:#848484;stroke:#000000;stroke-width:0.5;stroke-miterlimit:10;}
	.st5{fill:#1A1A1A;}
	.st6{fill:#1A1A1A;stroke:#000000;stroke-width:0.5;stroke-miterlimit:10;}
	.st7{fill:none;stroke:#000000;stroke-width:0.5;stroke-miterlimit:10;}
	.st8{fill:#727272;stroke:#000000;stroke-width:0.5;stroke-miterlimit:10;}
	.st9{fill:#EAEAEA;stroke:#000000;stroke-width:0.5;stroke-miterlimit:10;}
	.st10{fill:#727272;}
	.st11{fill:#DDDDDD;stroke:#000000;stroke-width:0.5;stroke-miterlimit:10;}
	.st12{fill:#F2F2F2;stroke:#000000;stroke-width:0.5;stroke-miterlimit:10;}
	.st13{fill:#0077BF;stroke:#000000;stroke-width:0.5;stroke-miterlimit:10;}
	.st14{fill:#EB058C;stroke:#000000;stroke-width:0.5;stroke-miterlimit:10;}
	.st15{opacity:0.3;fill:#EB058C;}
	.st16{opacity:0.2;fill:#EB058C;}
	.st17{fill:#FFE600;stroke:#000000;stroke-width:0.5;stroke-miterlimit:10;}
	.st18{fill:#EB058C;}
</style>
<g id="Layer_7_4_">
	<path class="st0" d="M685.4,613.1c0,0,164.1,36.7,185.6-148.2c0,0,50.4-214.5-205.5-309.9c0,0-111.8-51.1-288.2-1.2
		c0,0-141.9,56.5-191.7,176.8c0,0-89.1,206.9-15.5,392.1c0,0,59,241,251.9,128.8c0,0,62.4-44.6,64.3-138.2
		C486.3,713.4,479.6,568.4,685.4,613.1z"/>
</g>
<ellipse class="st1" cx="324.4" cy="817.2" rx="109.1" ry="10"/>
<ellipse class="st1" cx="527.1" cy="523" rx="58.1" ry="5.3"/>
<ellipse class="st1" cx="705" cy="697.4" rx="68.8" ry="6.3"/>
<g>
	<polygon class="st2" points="536.7,273.7 538.9,284.3 530.9,290.3 526.7,285.2 524.8,275.1 	"/>
	<polygon class="st3" points="501.8,282 523.4,285.1 540.4,285.5 562,281.3 557.1,359.2 508.4,359.2 	"/>
	<path class="st3" d="M523.4,285.1l-20.9-5.1c-3.8-0.9-7.3,2.3-6.7,6.1l7.6,51.3l49.1-19.4l-2.7-7.9l-34.7,9.3l-3.5-23.4
		L523.4,285.1z"/>
	<path class="st3" d="M540.4,285.5l20.8-6.2c3.1-0.9,6.2,1.7,5.7,4.9l-8,55.4l-41.6-14V317l29.9,4.8l4.7-30.1L540.4,285.5z"/>
	<polygon class="st3" points="521.7,317.7 549.8,310.1 552.5,318 544.7,321.3 	"/>
	<path class="st2" d="M517.2,317c0,0-6.9-3.9-9.3-3.8c-2.3,0.1,0,3.2,0,3.2s-6.9-2.1-8-1.1s1.5,7.7,4.3,8.5c2.8,0.9,13,1.8,13,1.8
		V317z"/>
	<path class="st2" d="M549.8,310.1c0,0,7.2-6.6,7.4-5c0.1,1.6,0,2.4,0,2.4l6.8-3.3c0,0,1.4,3.4-1.2,8c-2.5,4.6-10.3,5.9-10.3,5.9
		L549.8,310.1z"/>
	<polygon class="st2" points="523.5,278.9 518.7,283.9 521.1,293.8 530.9,285.3 	"/>
	<polygon class="st2" points="540.1,278.9 530.9,285.3 537.9,293.8 542.5,286.7 	"/>
	<path class="st4" d="M508.4,359.2l-11.3,78.5l20.5,78.5c0,0,10.2-0.3,9.9-1.2c-0.3-0.9-13.2-76.1-13.2-76.1l13.5-53.2l-5.3,50
		l16.7,79.6h8.7l-8.1-79l16.4-47.1l0.9-30.1H508.4z"/>
	<polygon class="st5" points="548,515.5 548,523 543.9,523 543.9,521.1 541.3,523 522.4,523 522.4,523 539.2,515.5 	"/>
	<polygon class="st5" points="527.1,515.5 527.1,523 523,523 523,521.1 520.4,523 501.5,523 501.5,523 518.3,515.5 	"/>
	<g id="Layer_7_1_">
		<g>
			<path class="st2" d="M524.1,277.9c1.3,0.8,2.6,1.7,4.2,2c1,0.2,2.2-0.1,3.3-0.4l0.5-0.1c1-0.1,1.9-0.5,2.7-1.1
				c1.3-1,2-2.4,2.8-3.7c0.6-0.9,1.3-1.7,2.1-2.5c0.4-0.4,0.8-0.9,1-1.5c0.3-0.7,0.5-1.5,0.6-2.3c0.1-1.2-0.5-2.9,0.2-4
				c0.6-1,1.4-1.5,1.7-2.7c0.5-2.2,0.4-4.5-0.3-6.6c-0.2-0.6-0.7-1.5-1.4-0.7c-0.3,0.3,0,0.9-0.3,1.2l0,0l-0.1,1l-1.2,0.3
				c-0.2-0.9-0.4-1.8-0.4-2.7c-0.4-1.9-0.7-3.8-1.6-5.6c-1.1-2.2-4.9-2.5-7.1-3.2c-0.4-0.1-1-0.5-1.4-0.5c-0.6,0-0.3,0-0.7,0.4
				c-1.8,1.7-2.7,3.1-5.3,3.7c-2.1,0.5-4.3,0.6-6.4,1.2c-2.8,0.9-4.9,3.5-4.6,6.4c0.1,1.1,0.5,2.2,0.7,3.3c0.1,0.8,0.3,1.5,0.5,2.3
				c0.1,0.2,0.1,0.5,0.2,0.7l-1.5,0.4c-0.1-0.2-0.1-0.5-0.1-0.6c-0.1-0.4-0.1-0.7-0.2-1c-0.1-0.2-0.2-0.3-0.3-0.3
				c-1-0.4-1.1,0.7-1,1.3c0.4,2.2,1.3,4.3,2.7,6c0.8,1,1.7,1.1,2.7,1.7c1.1,0.7,1.4,2.4,2,3.5c0.4,0.7,0.9,1.3,1.5,1.8
				c0.4,0.3,0.8,0.6,1.3,0.8C521.9,277,523.1,277.3,524.1,277.9z"/>
			<path class="st6" d="M512.1,262.9c0,0.1,0.1,0.4,0.1,0.6l1.5-0.4c0-0.3-0.1-0.5-0.2-0.7c-0.2-0.7-0.4-1.5-0.5-2.3
				c-0.2-1.1-0.6-2.2-0.7-3.3c-0.4-2.9,1.8-5.5,4.6-6.4c2.1-0.7,4.3-0.7,6.4-1.2c2.6-0.6,3.5-2.1,5.3-3.7c0.5-0.5,0.1-0.4,0.7-0.4
				c0.4,0,1,0.4,1.4,0.5c2.2,0.7,6,0.9,7.1,3.2c0.9,1.8,1.2,3.7,1.6,5.6c0.1,0.9,0.2,1.8,0.4,2.7l1.2-0.3l0.1-1
				c0.1-1,0.2-2.1,0.1-2.5c-0.1-1.5-0.3-3.1-0.6-4.6c-0.4-3.7-1-7.2-4.1-9.7c-3.3-2.6-7.6-3.6-9.5-2.9c-0.1,0-1.5,0.5-1.2,0.6
				c-0.9-0.4-2.1-0.2-3.1-0.2c-5,0.1-10.3,4.2-13.1,8c-2.9,4-1.4,7.8-0.1,11.6c0.5,1.3,0.8,2.8,1.5,4c0.4,0.6,0.6,1.3,0.8,1.9
				C512,262.2,512.1,262.5,512.1,262.9z"/>
			<path class="st7" d="M528.8,254.8c0.9-1.2,3.1,0.1,4.6,0"/>
			<path class="st7" d="M517.6,258.6c1.4-0.7,2.3-2.6,3.8-2"/>
			<circle class="st6" cx="530.7" cy="256.9" r="1.2"/>
			<circle class="st6" cx="519.9" cy="259.3" r="1.2"/>
			<path class="st7" d="M526.2,272.3c0,0,4.4-2.9,8.9-1.4l0.3,1.1l-8.6,1.6L526.2,272.3z"/>
			<path class="st7" d="M525.3,259.6c0.6,1.2,0.9,2.5,1.1,3.9c0.1,1,0.2,2,0.3,3c0,0.5,0.2,1,0.4,1.5c0.3,0.4,0.8,0.6,1,0.3"/>
		</g>
	</g>
	<g>
		<polyline class="st7" points="500.6,271.8 492.6,266 492.6,275.1 481.6,273.6 485.3,278 473.4,281.2 482.7,286 473.4,291.7 
			479.8,293.4 473.4,301.3 481.6,304.1 473.4,312.9 482.9,312.9 477.2,323.3 484.2,323.3 477.2,329.9 484,329.9 478.8,338.1 
			487,341.2 		"/>
		<polyline class="st7" points="562.3,267.4 570.2,261.7 570.2,270.8 581.2,269.3 577.6,273.6 589.5,276.9 580.2,281.6 589.5,287.3 
			583,289 589.5,296.9 581.2,299.8 589.5,308.6 579.9,308.6 585.6,319 578.6,319 585.6,325.5 578.9,325.5 584.1,333.7 575.9,336.8 
					"/>
		<path class="st7" d="M492.6,370.7c-0.6,0-8.7,2.8-8.7,2.8l8.7,2.8l-8.7,6.7l5.6,2.6l-7.2,6.5l7.2,2.8l-5.6,7l5.6,2.6l-7.2,5.7
			l7.2,2.8"/>
		<path class="st7" d="M570.8,370.3c0.6,0,8.4,3.5,8.4,3.5l-8.9,2.1l8.1,7.4l-5.8,2.1l6.7,7l-7.4,2.3l5.1,7.4l-5.8,2.1l6.7,6.3
			l-7.4,2.3"/>
	</g>
	<g>
		<polygon class="st2" points="510,256.9 510.9,272.9 514.1,256.5 		"/>
		<polygon class="st2" points="515.3,241 517.4,256.9 519.9,241 		"/>
		<polygon class="st2" points="537.7,248 538.7,263.9 540.9,249.4 		"/>
		<polygon class="st2" points="528.1,295.3 529.2,313 532.8,298.7 		"/>
		<polygon class="st2" points="558.2,286.5 559.2,302.4 563.6,284.4 		"/>
		<polygon class="st2" points="499.4,283.5 501.5,299.6 503.9,282 		"/>
		<polygon class="st2" points="509.3,334.9 510.2,350.8 513.2,333.7 		"/>
		<polygon class="st2" points="543.4,340.2 546,353 547.8,337.4 		"/>
	</g>
</g>
<g id="Layer_7_2_">
	<polygon class="st2" points="691.8,530 696.1,686.2 703.3,686.2 718.3,530 	"/>
	<polygon class="st2" points="711.5,530 720,686.2 726.3,686.2 739.5,530 	"/>
	<path class="st5" d="M704.1,686.2v13.6h-2l-1.4-5.7l-3.6,5.7h-20c7.7-1.6,14.2-6.6,17.8-13.6H704.1z"/>
	<path class="st5" d="M727.6,686.2v13.6h-2l-1.4-5.7l-3.6,5.7h-20c7.7-1.6,14.2-6.6,17.8-13.6H727.6z"/>
	<path class="st2" d="M679.3,331.6c-0.2,2.4,0,4.8-0.2,5.7c-0.2,0.6-0.4,1.1-0.7,1.7c-0.4,0.9-1.1,2.2-0.9,3.1l0.6,3.9
		c0.3,1.9-0.4,3.5-2.3,3.8l0,0c-2,0.3-3.3-1.3-3.3-3.3l-0.5-2.7c-0.2-1.6-0.8-3.2-1.6-4.6c-1.5-3-1.3-6.9-0.9-10
		c0.3-1.9,2.5-3.5,5.5-5.3c1.5-0.9,4-1.9,3.3,0.2c-0.6,1.7-5,4.9-2.7,9.7c0.1,0.2,0.5,0.8,0.8,0.8c0.9-0.1,0.8-2.2,1-3.4
		c0.4-1.5,1.3-2.3,1.9-2.2S679.4,329.9,679.3,331.6z"/>
	<path class="st2" d="M761.4,328.8c0.6-0.1,1.6,0.6,2,2.1c0.3,1.1,0.2,3.2,1.2,3.3c0.3,0,0.6-0.6,0.7-0.8c2-4.9-2.5-7.8-3.2-9.5
		c-0.8-2,1.8-1.1,3.3-0.3c3.1,1.7,5.3,3.1,5.7,5.1c0.6,3.1,1,7-0.4,10.1c-0.8,1.5-1.3,3.1-1.4,4.7l-0.3,2.8c0,2.1-1.1,3.7-3.2,3.5
		l0,0c-1.9-0.2-2.7-1.8-2.4-3.7l0.4-3.9c0.1-0.9-0.6-2.2-1.1-3c-0.3-0.5-0.5-1.1-0.8-1.6c-0.2-0.9-0.2-3.3-0.5-5.7
		C761.4,330.1,760.8,328.9,761.4,328.8z"/>
	<path class="st8" d="M756.5,448.8c-8.3,5.3-5.3,15.2-5.3,15.2c-11.2-3.7-46.3-18.9-39.7-30.8c3.7-6.7-5.5-13.6-8.9-15.4
		c-4.1-2.2-5.6-15.6-5.3-25.5c0.3-7.6,0-17.2,15.1-25.6c7.3-4,18.2-5.2,33.7,10.6C772.8,404.2,776.8,435.8,756.5,448.8z"/>
	<path class="st9" d="M715.7,428.1l-1.3,1.1c-2.8-0.5-5.3-2.2-6.8-4.7c-3.7-6.4-11.7-19.8-21.5-34.5l-6.6-44.7
		c-1.4-2.3-6.9-0.6-8.2,1.1c0,0-0.2,32.2,1.2,44.7c1.3,11.7,11.9,32.4,19.9,44.1c2.4,3.5,2.3,8.1-0.2,11.5c-1.4,1.8-2.6,3.8-3.6,5.9
		c-0.9,2.4-0.8,5,0.3,7.3l3.6,24.6c12.5,5.9,39.5,5.9,39.5,5.9c-0.7-3,0.8-3.2,3.9-8.9c0.9-1.6,1.3-3.4,1.3-5.2l-0.1-14.2
		c2.3-4.1,5.7-6.6,8.9-11.8c0,0,13.3-18.8-10.9-22.6l-4.2-3.2"/>
	<path class="st9" d="M733.3,432.9c4.2-11.9,10.7-26,16.7-34.9l11.7-50.9c2.4-2.1,5-1.5,7.6-0.8l-2.7,57.2
		c-4.1,13.2-14.6,40.8-22.6,50.2"/>
	<path class="st2" d="M731,424.1c0.1,0.2,0.2,0.4,0.2,0.6c0,0.2-0.1,0.4-0.3,0.6c-1.6,2.1-3.5,4.1-5.5,5.8c-1.2,1-2.7,2.1-4.3,1.7
		c-1-0.3-1.8-0.9-2.5-1.7l-3-3.1c1.2-1,1-2.8,0.8-4.3c-0.4-2-0.9-3.9-1.4-5.9c3-2.8,6.7-4.7,10.7-5.6c1.4-0.3,2.1-0.1,2.3,1.3
		c0.2,1.4,0.3,2.5,0.5,3.7C729,419.7,729.8,422,731,424.1z"/>
	<path class="st2" d="M710.7,419.7c-4.6-2.5-7.5-7.1-9-18.4c-1.5-11.3,2.7-15.5,2.7-15.5c2.6-4.4,6.4-8.5,11.1-10.6
		c2.7-1,5.6-1.5,8.6-1.4c2.2-0.2,4.3-0.1,6.4,0.4c1.7,0.5,3.4,1.3,4.8,2.4c4.2,3,7.1,7.4,8.3,12.3c2.9,13.2-7.2,22.1-16.6,28.9
		C721.7,421.7,715.3,422.2,710.7,419.7z"/>
	<path class="st10" d="M740.1,410.8c0,0-14-19.1-7.2-29.6c0,0-8,1.5-12.7,0.7c-4.8-0.8-13.3-1.5-17.6,8.1c0,0-0.2,3.2-2.7,5.7
		l0.4-4.9l3-7.2l10.5-8.5l10.1-3.4l10.8,3.3l7.3,6.1l4.4,15.2l-5.6,11.3L740.1,410.8z"/>
	<path class="st7" d="M740.1,410.8c0,0-14-19.1-7.2-29.6c0,0-8,1.5-12.7,0.7c-4.8-0.8-13.3-1.5-17.6,8.1c0,0-1.5,3.5-1.1,4.6"/>
	<path class="st2" d="M721.5,389.1c3.2,0.2,5.9,2.6,6.4,5.8"/>
	<path class="st2" d="M715.7,387.1c-1.8-1.3-4.2-1.6-6.2-0.8"/>
	<path class="st2" d="M713.4,403.5c-0.7-0.6-1.3-1.2-1.9-1.9c-0.2-0.2-0.3-0.3-0.4-0.5c-0.2-0.5,0.2-1,0.5-1.4l1.8-2.1"/>
	<ellipse transform="matrix(0.5926 -0.8055 0.8055 0.5926 -22.9326 743)" class="st6" cx="723.1" cy="394.2" rx="2" ry="1.6"/>
	<ellipse transform="matrix(0.5926 -0.8055 0.8055 0.5926 -25.2665 730.5862)" class="st6" cx="709.6" cy="390.3" rx="2" ry="1.6"/>
	<path class="st2" d="M719.1,407.2c0,0-2.9,3-6,3c-1.7,0-3-0.5-3.8-2.9"/>
	<path class="st11" d="M692.6,484.6l-16.2,99.6c0,0,49.6,9.2,77.4,1.7c0,0-12.8-52.6-13.7-65.3c-1-12.9-7.6-30.1-7.6-30.1
		S698.5,488.7,692.6,484.6z"/>
	<polyline class="st7" points="669.2,385.9 661.3,390.3 665.3,392.3 661.3,399.6 665.3,399.6 663,407.2 671.4,408.7 669.2,417.4 
		674.7,417.4 671.4,422.5 676.4,422.5 	"/>
	<polyline class="st7" points="771.8,379.5 778.2,383.2 771.8,385.9 778.2,390.3 771.8,392 778.2,397.5 771.8,400.5 777.1,407.2 
		770.5,409 	"/>
</g>
<g id="Layer_8">
	<path class="st6" d="M350.5,461L350.5,461l-2.2,2.9l-5.2,2.1c-0.5,0.1-0.9,0.4-1.2,0.8c-5.8,0.5-13.2-0.1-14,0c-5,0-9,0.2-12.3,1.6
		c3.4-6.1,7.1-11.9,10.8-17.8c3.5-5.5,7.3-10.7,10.9-16.1c3.4-5.1,3.8-10.1,6.1-15.6c6.8-16.2,19.2-26.1,37.3-23.8
		c17,2.1,26.4,18.9,24,34.5c-0.3,1.9-0.7,3.8-1.3,5.6c-1.4,5.1-3.3,9.9-4,15.4c-1,7.8-1.3,15.6-0.8,23.4c0.2,3.8,1.4,26.3-4.2,28.9
		L350.5,461z"/>
	<path class="st2" d="M352.1,460.8c-0.2,0.2-0.4,0.5-0.4,0.8c0,0.3,0.1,0.6,0.3,0.9c1.8,3.3,4,6.5,6.5,9.4c1.5,1.7,3.4,3.5,5.7,3.3
		c1.4-0.2,2.8-0.9,3.8-1.8l5-3.6c-1.5-1.6-0.8-4.1-0.1-6.1c1-2.7,2.2-5.3,3.5-7.8c-3.7-4.5-8.5-8.1-13.9-10.3
		c-1.9-0.8-2.9-0.7-3.6,1.2s-0.9,3.4-1.6,5.1C356,455.1,354.2,458.1,352.1,460.8z"/>
	<polygon class="st12" points="330.9,803.1 374.7,702.4 370.6,595.5 317.8,600.6 350.7,699.1 320.7,804 	"/>
	<path class="st12" d="M338.4,601.2l12.3,97.9l-42.1,103.4h-10.7l26-105.8l-32.2-72.2c-3-6.8-4-14.4-2.7-21.7l2.2-12.6L338.4,601.2z
		"/>
	<path class="st5" d="M317.8,802.5l0,20.2l3.1,0l2.2-8.5l5.5,8.5l30.5-0.1c-11.8-2.4-21.8-9.8-27.3-20.1L317.8,802.5z"/>
	<path class="st5" d="M294.6,802.5l0,20.2l3.1,0l2.2-8.5l5.5,8.5l30.5-0.1c-11.8-2.4-21.8-9.8-27.3-20.1L294.6,802.5z"/>
	<g id="Layer_7_3_">
		<path class="st2" d="M392.4,413.1c-0.2,2.3-7.5,4-9.4,4.7c-2.3,1-4.8,1.3-7.4,1.9l0,0c-0.2-0.1-8.3,3.3-12.4,4.5
			c-4.7,1.4-7.5,2.3-11.9,4.5c-0.1,2.5,0.2,6.8,2.5,7.4c0.7,0.2,0.9,1.1,0.9,1.8c-0.1,2.3-0.1,5.2,0.8,7.3c0,0,3.9,6.7,10.4,12.1
			c6.5,5.4,16.3-1.7,16.3-1.7s9.1-6.1,12.5-17C398.2,427.7,392.4,413.1,392.4,413.1z"/>
		<path class="st7" d="M373.2,425c-2.4-0.8-5-0.7-7.2,0.5"/>
		<path class="st7" d="M391.5,431.4c-1.7-1.9-4-2.9-6.6-3"/>
		<path class="st7" d="M379.2,449.3c0,0-7.5,3.8-12.1-2.9"/>
		<path class="st7" d="M376.8,432.7c-0.6,1.7-0.9,3.5-0.8,5.2c0.1,1.3,0.4,2.7,0.5,4c0.1,0.7,0.1,1.4-0.2,2
			c-0.3,0.6-1.1,0.9-1.8,0.5c0,0,0,0,0,0"/>
		<path class="st7" d="M373.2,430.2c0,0-2.6-3.4-6.6-1.2"/>
		<path class="st7" d="M384.3,434c0,0,5.1-2.6,6.7,1.5"/>
		<polygon class="st13" points="282.9,603.4 382.8,614.7 368.1,550.6 387.1,509.1 382.2,477.6 379.8,472.4 342.5,462.4 312.7,470.9 
			312.7,492.5 314.9,544.9 		"/>
		<path class="st13" d="M319.6,510.4c0,0,3.3,15.3,20.8,10.4"/>
		<path class="st13" d="M354.5,522.7c0,0,15.7,11.4,24.2,0"/>
		<g>
			<path class="st14" d="M375.7,540.6l-56.7-3.8c-2.2-0.2-3.9-2-3.8-4.2l2.3-31.7c0.2-2.2,2.1-3.8,4.3-3.7l56.7,3.8
				c2.2,0.2,3.9,2,3.8,4.2l-2.3,31.7C379.8,539.1,377.9,540.7,375.7,540.6z"/>
			<polyline class="st14" points="317.9,501.8 349.5,521.4 382.1,506.8 			"/>
		</g>
		<path class="st13" d="M325.4,535.4l-42.5,14.8c-9.6,3.1-18.5-6.2-14.6-15.2l28.2-54.4c2.8-5.4,7.6-9.5,13.4-11.6l32.7-6.5l-6.4,4
			l-45.9,62.4l34.2-4.4L325.4,535.4z"/>
		<path class="st13" d="M400.9,489.7l16.3,60.5c1.3,4.7-3.5,8.7-8.1,6.9l-38.6-19.1v-10.1l23.7,7.3l-7.1-23.7l-5.2-33.5l-2.5-5.5
			l17.8,11.5C399,485.4,400.3,487.4,400.9,489.7z"/>
		<polygon class="st2" points="352.2,456 342.5,462.4 343.7,479.4 364.4,468.3 373.9,488.5 379.8,472.4 378.3,462.4 365.4,465.7 		
			"/>
		<path class="st2" d="M324.4,524.5c0,0,12-6.1,18.9,4.1c7.2,10.5-2.9,9.8-5.2,8s-2.7-3.4-4.8-3.1c-2.1,0.3-7.2,5.1-8,1.8
			C325.2,534.5,324.4,524.5,324.4,524.5z"/>
		<path class="st2" d="M370.5,527.8c0,0-6.7-5-13-0.8c-6.4,4.1-8.1,9-5.2,10.2s7.4-2.5,8.4-1.6c1,0.9,9.1,3.4,9.8,2.4V527.8z"/>
	</g>
	<ellipse class="st15" cx="388.2" cy="441.5" rx="3.7" ry="3.6"/>
	<ellipse class="st15" cx="364" cy="436.3" rx="3.7" ry="3.6"/>
	<g>
		<ellipse class="st16" cx="350.9" cy="518.9" rx="74.6" ry="72.4"/>
		<g>
			<g>
				<path class="st7" d="M312.3,362.4c0,0-15.1,14.4,1.4,26.5c15.9,11.6-18.8,22.7-6,43.2"/>
				<path class="st2" d="M329.3,365.3h-36.7c-14.6,0-23.6-8.8-26.5-25.7l-10.4-63.1c0-14.1,11.9-25.7,26.5-25.7h57.5
					c14.6,0,26.5,11.6,26.5,25.7l-10.4,63.1C353.2,356.5,343.9,365.3,329.3,365.3z"/>
				<path class="st17" d="M287.5,342.5c3,3.5,10.2,10,23.4,10c10,0,16.5-3.7,20.4-7c4-3.1,6.9-7.9,8-12.3c4.2-16.1-5-28.6-16.4-36.3
					c0,3.8-0.6,6.9-1.7,9.6c-4.5-5.4-9.5-11.2-9.5-21.7c-10.5,7-19.1,18.3-17.1,32.6c-2.3-2.3-4.3-5.2-5.6-9.4
					c-7,8.1-11.1,19.6-4.3,31.1C285.7,340.3,286.5,341.4,287.5,342.5L287.5,342.5z M311.2,320.4c0,10.3,8.5,12.2,8.6,19.8
					c0.1,4.8-3.7,8.5-8.6,8.4c-4.4-0.1-7.7-4.6-8.7-8.4C300.3,331.4,305.2,324.5,311.2,320.4L311.2,320.4z M311.2,320.4"/>
				<g>
					<path class="st18" d="M311.4,351.9c-0.1,0-0.1,0-0.2,0c-5.8-0.1-10.1-5.4-11.4-10.7c-2.2-8.9,1.5-17.5,10.2-23.5l3.5-2.4v4.2
						c0,5.2,2.3,8.1,4.7,11.1c2.2,2.8,4.5,5.7,4.6,10.1c0.1,3.1-1.1,5.9-3.2,8C317.4,350.7,314.5,351.9,311.4,351.9z M309.5,324.3
						c-3.2,3.1-6.8,8.3-5,15.4c0.8,3.3,3.6,6.8,6.7,6.9c1.9,0,3.5-0.6,4.7-1.8c1.2-1.2,1.8-2.8,1.8-4.5c-0.1-2.8-1.6-4.7-3.4-7.1
						C312.5,330.9,310.4,328.3,309.5,324.3z"/>
				</g>
				<path class="st7" d="M287.5,342.5c3,3.5,10.2,10,23.4,10c10,0,16.5-3.7,20.4-7c4-3.1,6.9-7.9,8-12.3c4.2-16.1-5-28.6-16.4-36.3
					c0,3.8-0.6,6.9-1.7,9.6c-4.5-5.4-9.5-11.2-9.5-21.7c-10.5,7-19.1,18.3-17.1,32.6c-2.3-2.3-4.3-5.2-5.6-9.4
					c-7,8.1-11.1,19.6-4.3,31.1C285.7,340.3,286.5,341.4,287.5,342.5L287.5,342.5z"/>
			</g>
		</g>
	</g>
</g>
<g>
	<circle class="st16" cx="707.9" cy="318.2" r="78.4"/>
	<g>
		<path class="st7" d="M709.5,253.8c0,0-10.8,10.7,1,19.6c11.4,8.6-13.5,16.8-4.3,31.9"/>
		<path class="st2" d="M721.7,255.9h-26.3c-10.4,0-16.9-6.5-19-19l-7.5-46.6c0-10.4,8.5-19,19-19h41.2c10.4,0,19,8.5,19,19
			l-7.5,46.6C738.8,249.4,732.1,255.9,721.7,255.9z"/>
		<path class="st17" d="M691.7,239c2.1,2.6,7.3,7.4,16.8,7.4c7.1,0,11.9-2.7,14.7-5.2c2.9-2.3,4.9-5.9,5.7-9.1
			c3-11.9-3.6-21.2-11.7-26.8c0,2.8-0.5,5.1-1.2,7.1c-3.2-4-6.8-8.2-6.8-16c-7.5,5.2-13.7,13.5-12.3,24.1c-1.6-1.7-3.1-3.9-4-7
			c-5,6-8,14.5-3.1,23C690.4,237.4,691,238.3,691.7,239L691.7,239z M708.7,222.7c0,7.6,6.1,9,6.2,14.6c0.1,3.6-2.7,6.3-6.2,6.2
			c-3.2-0.1-5.5-3.4-6.2-6.2C700.9,230.9,704.4,225.8,708.7,222.7L708.7,222.7z M708.7,222.7"/>
		<g>
			<path class="st18" d="M708.8,246c0,0-0.1,0-0.1,0c-4.1-0.1-7.2-4-8.2-7.9c-1.6-6.6,1-12.9,7.3-17.4l2.5-1.8v3.1
				c0,3.8,1.6,5.9,3.3,8.2c1.6,2.1,3.2,4.2,3.3,7.5c0.1,2.3-0.8,4.4-2.3,5.9C713.1,245.1,711,246,708.8,246z M707.5,225.7
				c-2.3,2.3-4.8,6.1-3.6,11.3c0.6,2.5,2.6,5,4.8,5.1c1.3,0,2.5-0.4,3.4-1.3c0.9-0.9,1.3-2.1,1.3-3.4c0-2.1-1.1-3.5-2.5-5.2
				C709.6,230.5,708.1,228.6,707.5,225.7z"/>
		</g>
		<path class="st7" d="M691.7,239c2.1,2.6,7.3,7.4,16.8,7.4c7.1,0,11.9-2.7,14.7-5.2c2.9-2.3,4.9-5.9,5.7-9.1
			c3-11.9-3.6-21.2-11.7-26.8c0,2.8-0.5,5.1-1.2,7.1c-3.2-4-6.8-8.2-6.8-16c-7.5,5.2-13.7,13.5-12.3,24.1c-1.6-1.7-3.1-3.9-4-7
			c-5,6-8,14.5-3.1,23C690.4,237.4,691,238.3,691.7,239L691.7,239z"/>
		<path class="st14" d="M726.7,332.8H686c-1.6,0-2.9-1.3-2.9-2.9v-23.4c0-1.6,1.3-2.9,2.9-2.9h40.8c1.6,0,2.9,1.3,2.9,2.9v23.4
			C729.7,331.5,728.4,332.8,726.7,332.8z"/>
		<polyline class="st14" points="683.4,307.1 707.1,320 729.7,307.7 		"/>
	</g>
</g>
<g>
	<circle class="st16" cx="440.8" cy="200.8" r="53.5"/>
	<g>
		<path class="st7" d="M442.9,155.6c0,0-7.6,7.5,0.7,13.7c8,6-9.5,11.8-3,22.4"/>
		<path class="st2" d="M451.4,157.1H433c-7.3,0-11.9-4.6-13.3-13.3l-5.2-32.7c0-7.3,6-13.3,13.3-13.3h28.9c7.3,0,13.3,6,13.3,13.3
			l-5.2,32.7C463.4,152.5,458.7,157.1,451.4,157.1z"/>
		<path class="st17" d="M430.4,145.2c1.5,1.8,5.1,5.2,11.8,5.2c5,0,8.3-1.9,10.3-3.7c2-1.6,3.5-4.1,4-6.4c2.1-8.3-2.5-14.8-8.2-18.8
			c0,1.9-0.3,3.6-0.8,5c-2.2-2.8-4.8-5.8-4.8-11.2c-5.3,3.6-9.6,9.5-8.6,16.9c-1.2-1.2-2.2-2.7-2.8-4.9c-3.5,4.2-5.6,10.2-2.1,16.1
			C429.5,144.1,429.9,144.7,430.4,145.2L430.4,145.2z M442.3,133.8c0,5.3,4.3,6.3,4.3,10.3c0.1,2.5-1.9,4.4-4.3,4.3
			c-2.2,0-3.9-2.4-4.3-4.3C436.8,139.5,439.2,136,442.3,133.8L442.3,133.8z M442.3,133.8"/>
		<g>
			<path class="st18" d="M442.4,150.1c0,0-0.1,0-0.1,0c-2.9,0-5.1-2.8-5.7-5.5c-1.1-4.6,0.7-9.1,5.1-12.2l1.8-1.3v2.2
				c0,2.7,1.1,4.2,2.3,5.7c1.1,1.4,2.3,2.9,2.3,5.3c0,1.6-0.5,3.1-1.6,4.2C445.4,149.5,443.9,150.1,442.4,150.1z M441.4,135.9
				c-1.6,1.6-3.4,4.3-2.5,8c0.4,1.7,1.8,3.5,3.3,3.6c0.9,0,1.8-0.3,2.4-0.9c0.6-0.6,0.9-1.4,0.9-2.4c0-1.5-0.8-2.4-1.7-3.7
				C442.9,139.3,441.9,137.9,441.4,135.9z"/>
		</g>
		<path class="st7" d="M430.4,145.2c1.5,1.8,5.1,5.2,11.8,5.2c5,0,8.3-1.9,10.3-3.7c2-1.6,3.5-4.1,4-6.4c2.1-8.3-2.5-14.8-8.2-18.8
			c0,1.9-0.3,3.6-0.8,5c-2.2-2.8-4.8-5.8-4.8-11.2c-5.3,3.6-9.6,9.5-8.6,16.9c-1.2-1.2-2.2-2.7-2.8-4.9c-3.5,4.2-5.6,10.2-2.1,16.1
			C429.5,144.1,429.9,144.7,430.4,145.2L430.4,145.2z"/>
		<path class="st14" d="M454.9,211h-28.6c-1.1,0-2-0.9-2-2v-16.4c0-1.1,0.9-2,2-2h28.6c1.1,0,2,0.9,2,2V209
			C457,210.1,456.1,211,454.9,211z"/>
		<polyline class="st14" points="424.6,193 441.1,202 457,193.4 		"/>
	</g>
</g>
</svg>
