<svg xmlns="http://www.w3.org/2000/svg" xmlns:xlink="http://www.w3.org/1999/xlink" viewBox="0 0 1000 1000"><defs><style>.cls-1,.cls-18{fill:none;}.cls-2{isolation:isolate;}.cls-11,.cls-3{fill:#fff;}.cls-4{fill:gray;}.cls-10,.cls-11,.cls-13,.cls-14,.cls-17,.cls-18,.cls-19,.cls-20,.cls-24,.cls-4,.cls-5,.cls-6,.cls-7,.cls-8,.cls-9{stroke:#000;stroke-width:0.5px;}.cls-10,.cls-11,.cls-13,.cls-14,.cls-18,.cls-19,.cls-20,.cls-24,.cls-4,.cls-5,.cls-6,.cls-7,.cls-8,.cls-9{stroke-miterlimit:10;}.cls-5{fill:#c6c6c6;}.cls-6{fill:#a5a5a5;}.cls-23,.cls-7{fill:#d8d8d8;}.cls-17,.cls-8{fill:#f4f4f4;}.cls-9{fill:#ccc;}.cls-10{fill:#e8e8e8;}.cls-12{fill:#d1d1d1;}.cls-13,.cls-16{fill:#c4c4c4;}.cls-13{mix-blend-mode:multiply;}.cls-14,.cls-15{fill:#0077bf;}.cls-17{stroke-linejoin:round;}.cls-19{fill:#eb058c;}.cls-21{fill:#ffe600;}.cls-22{fill:#bfbfbf;}.cls-24{fill:#cecece;}.cls-25{clip-path:url(#clip-path);}</style><clipPath id="clip-path"><rect class="cls-1" x="579.29" y="258.39" width="91.98" height="55.71"/></clipPath></defs><title>LM6</title><g class="cls-2"><g id="Layer_1" data-name="Layer 1"><g id="Layer_6" data-name="Layer 6"><path class="cls-3" d="M368.9,749.81S238,833.07,117.59,709.37c0,0-160.12-173.68,28.39-397.63,0,0,75.22-116.56,268.36-153.08,68.66-13,205-10.09,304.74,62.17,0,0,116.61,84.63,159,209.09,28.19,82.78,85.5,338.57-115.4,380.65,0,0-104.08,14.13-155.15-72.23C607.57,738.38,537.38,599.63,368.9,749.81Z"/></g><polygon class="cls-4" points="870.19 753.91 360.79 750.52 360.79 783.97 867.83 786.46 870.19 753.91"/><polygon class="cls-5" points="870.19 753.91 744.05 708.81 268.78 708.81 360.79 750.52 870.19 753.91"/><polygon class="cls-6" points="360.79 750.52 268.78 708.81 268.78 732.75 360.79 783.97 360.79 750.52"/><path class="cls-5" d="M509.9,631.8v74.26s-1.06,21.22,40.81,15.8v6.87s-15.26-4.13-27.15-2.5c-12.52,1.72-68.13-1.67-74.12-13.65V631.8Z"/><path class="cls-7" d="M452.22,631.8v74.26s-1.05,21.22,40.82,15.8v6.87s-37.13,9.72-50.07-16.15V631.8Z"/><rect class="cls-8" x="493.04" y="721.86" width="57.67" height="6.87"/><path class="cls-9" d="M313.41,681.74,621.28,669a13.64,13.64,0,0,0,13.64-13.64l13.66-200.4c-7.13-13.34-11.21-15.8-18.74-15.8l-316.11-7.8c-7.54,0-18,7.72-16.79,24.11L293.74,658C293.74,665.57,298.58,681.74,313.41,681.74Z"/><path class="cls-10" d="M318.21,681.74l319.06-1.59a13.64,13.64,0,0,0,13.64-13.64V453a13.64,13.64,0,0,0-13.64-13.64l-319.06-8A13.64,13.64,0,0,0,304.57,445V668.11A13.64,13.64,0,0,0,318.21,681.74Z"/><polygon class="cls-11" points="632.3 661.5 333.56 662.5 333.56 449.91 632.3 457.91 632.3 661.5"/><polygon class="cls-12" points="610.22 490.03 353.14 485.03 353.14 478.06 610.22 483.06 610.22 490.03"/><polygon class="cls-12" points="610.22 511.29 353.14 506.29 353.14 499.32 610.22 504.32 610.22 511.29"/><polygon class="cls-12" points="610.22 532.55 353.14 527.55 353.14 520.58 610.22 525.58 610.22 532.55"/><polygon class="cls-12" points="610.22 553.81 353.14 548.81 353.14 541.85 610.22 546.85 610.22 553.81"/><polygon class="cls-12" points="610.22 575.07 353.14 570.07 353.14 563.11 610.22 568.11 610.22 575.07"/><polygon class="cls-12" points="610.22 596.34 353.14 591.34 353.14 584.37 610.22 589.37 610.22 596.34"/><polygon class="cls-12" points="610.22 617.6 353.14 612.6 353.14 605.63 610.22 610.63 610.22 617.6"/><polygon class="cls-12" points="610.22 638.86 353.14 633.86 353.14 626.89 610.22 631.89 610.22 638.86"/><polygon class="cls-13" points="632.3 661.5 333.56 662.5 333.56 449.91 632.3 457.91 632.3 661.5"/><path class="cls-11" d="M549.22,603.08l-130.79-2.56a6.1,6.1,0,0,1-6-6.1V517.63a6.1,6.1,0,0,1,6.23-6.1l130.79,2.56a6.1,6.1,0,0,1,6,6.1V597A6.1,6.1,0,0,1,549.22,603.08Z"/><polygon class="cls-14" points="555.44 527.05 412.44 524.25 412.44 516.33 555.44 519.13 555.44 527.05"/><path class="cls-15" d="M445.35,543.68a7.43,7.43,0,0,1-6.33-3.86,7.1,7.1,0,0,1-6.34,3.61,7.44,7.44,0,0,1-7.25-7.39l1.83,0a5.56,5.56,0,0,0,5.42,5.53,5.3,5.3,0,0,0,5.42-5.32l1.83,0a5.56,5.56,0,0,0,5.42,5.53,5.31,5.31,0,0,0,5.43-5.32l1.82,0A7.09,7.09,0,0,1,445.35,543.68Z"/><path class="cls-15" d="M458,543.92a7.42,7.42,0,0,1-7.25-7.39l1.82,0A5.57,5.57,0,0,0,458,542.1a5.3,5.3,0,0,0,5.42-5.32l1.83,0A7.09,7.09,0,0,1,458,543.92Z"/><path class="cls-15" d="M470.7,544.17a7.43,7.43,0,0,1-7.25-7.39l1.83,0a5.56,5.56,0,0,0,5.42,5.53,5.31,5.31,0,0,0,5.42-5.32l1.83,0A7.09,7.09,0,0,1,470.7,544.17Z"/><path class="cls-15" d="M483.37,544.42a7.43,7.43,0,0,1-7.25-7.39l1.83,0a5.56,5.56,0,0,0,5.42,5.53,5.29,5.29,0,0,0,5.42-5.31l1.83,0A7.09,7.09,0,0,1,483.37,544.42Z"/><polygon class="cls-16" points="544.43 559.29 421.43 556.88 421.43 553.08 544.43 555.49 544.43 559.29"/><polygon class="cls-16" points="529.86 567.49 421.43 565.37 421.43 561.57 529.86 563.69 529.86 567.49"/><polygon class="cls-16" points="514.26 575.67 421.43 573.85 421.43 570.05 514.26 571.87 514.26 575.67"/><polygon class="cls-16" points="514.26 585.67 421.43 583.85 421.43 580.05 514.26 581.87 514.26 585.67"/><polygon class="cls-17" points="449.6 738.47 651.73 738.47 607.01 725.64 404.88 725.64 449.6 738.47"/><rect class="cls-8" x="449.6" y="738.47" width="202.13" height="9.72" transform="translate(1101.33 1486.66) rotate(180)"/><polygon class="cls-7" points="449.6 748.19 404.88 733.52 404.88 725.64 449.6 738.47 449.6 748.19"/><line class="cls-18" x1="602.3" y1="729.13" x2="429.17" y2="729.13"/><line class="cls-18" x1="615.48" y1="732.05" x2="442.35" y2="732.05"/><line class="cls-18" x1="628.66" y1="734.97" x2="455.53" y2="734.97"/><path class="cls-18" d="M442.13,729.13c.66,0,26.2,5.84,26.2,5.84"/><path class="cls-18" d="M456.73,729.13c.66,0,26.2,5.84,26.2,5.84"/><path class="cls-18" d="M471.33,729.13c.66,0,26.2,5.84,26.2,5.84"/><path class="cls-18" d="M485.93,729.13c.66,0,26.2,5.84,26.2,5.84"/><path class="cls-18" d="M500.53,729.13c.66,0,26.2,5.84,26.2,5.84"/><path class="cls-18" d="M515.13,729.13c.66,0,26.2,5.84,26.2,5.84"/><path class="cls-18" d="M529.73,729.13c.66,0,26.2,5.84,26.2,5.84"/><path class="cls-18" d="M544.33,729.13c.66,0,26.2,5.84,26.2,5.84"/><path class="cls-18" d="M558.93,729.13c.66,0,26.2,5.84,26.2,5.84"/><path class="cls-18" d="M573.53,729.13c.66,0,26.21,5.84,26.21,5.84"/><path class="cls-18" d="M588.14,729.13c.65,0,26.2,5.84,26.2,5.84"/><path class="cls-11" d="M561.88,664l-16,64-56.3.43s-24-20.59-33.42-14.23S447,724.53,447,724.53s23.74,4.09,24.14,9.54,10.3,6.66,13.66,7c2.75.32,55.36,12.88,74.32,17.43a7.9,7.9,0,0,0,9.21-4.88l33.25-87.54Z"/><path class="cls-11" d="M794.38,658.66l24,73.59A10.42,10.42,0,0,1,807,745.8l-98.12-14-2.4-12.6,71.93-6-17.92-52.51Z"/><path class="cls-11" d="M662.4,546.85l29.69,53.61-58,3.85s11.54-38.59-14.39-47.78C612.73,554,662.4,546.85,662.4,546.85Z"/><path class="cls-19" d="M607.09,665.32l-15.45,43.16L545,689.14l22.39-56.86c16.76-38,45.92-54.17,66.93-53.28s21.32,2.54,32.3-3.89,44-1.53,71.77,8.15S816,675.32,816,675.32l-53.29,8.52-20.62-42.28,53.86,144.9-185.09-1.6Z"/><path class="cls-11" d="M573.66,448.19s-7.19,46.09-1.6,60.21,5.83,20.78,6.11,22.11,30.29,54.89,62.63,22C677.35,515.38,613.62,426.61,573.66,448.19Z"/><path class="cls-20" d="M685.42,477.5c-2.61-30.87-13.59-42.89-40.5-42.1,0,0-44.49-25.84-69.53,9.86,0,0-8.26,10.92-16.52,10.92,0,0,1.33,33.84,28.51,49.29,0,0,12.25-8.79,14.92,2.93S597.23,526,597.23,526s9.71,12.53,20.5,20.87c11.41,8.83,19.69,14,26,16.34,0,0,4.59-22.11,24-6.66C667.76,556.53,687,496.43,685.42,477.5Z"/><path class="cls-11" d="M553.55,398.59h8.35l.32,31.33,31.38-31.33H696.09a14.73,14.73,0,0,0,14.7-14.69V236.28a14.73,14.73,0,0,0-14.7-14.69H553.55a14.73,14.73,0,0,0-14.7,14.69V383.9A14.73,14.73,0,0,0,553.55,398.59Z"/><path class="cls-11" d="M509,407.82h-8.36l-.31,31.33-31.39-31.33H366.4a14.74,14.74,0,0,1-14.69-14.7V216A14.73,14.73,0,0,1,366.4,201.3H509A14.73,14.73,0,0,1,523.64,216V393.12A14.74,14.74,0,0,1,509,407.82Z"/><rect class="cls-11" x="373.67" y="220.83" width="130.38" height="167.47" rx="4.76" ry="4.76"/><path class="cls-14" d="M378.43,220.83H499.28a4.76,4.76,0,0,1,4.76,4.76v6a0,0,0,0,1,0,0H373.67a0,0,0,0,1,0,0v-6A4.76,4.76,0,0,1,378.43,220.83Z"/><rect class="cls-16" x="393.77" y="323.56" width="88.42" height="5.89"/><rect class="cls-16" x="393.77" y="335.18" width="88.42" height="5.89"/><rect class="cls-16" x="393.77" y="346.8" width="88.42" height="5.89"/><circle class="cls-11" cx="382.35" cy="226.2" r="2.97"/><circle class="cls-11" cx="390.64" cy="226.2" r="2.97"/><circle class="cls-11" cx="398.93" cy="226.2" r="2.97"/><rect class="cls-19" x="416.86" y="364.96" width="43.74" height="9.74"/><path class="cls-3" d="M435.83,371.56a3.47,3.47,0,0,1-3-1.78,3.47,3.47,0,0,1-6.5-1.69h.88a2.59,2.59,0,1,0,5.18,0h.88a2.59,2.59,0,1,0,5.18,0h.87A3.47,3.47,0,0,1,435.83,371.56Z"/><path class="cls-3" d="M441.88,371.56a3.47,3.47,0,0,1-3.46-3.47h.87a2.6,2.6,0,1,0,5.19,0h.87A3.48,3.48,0,0,1,441.88,371.56Z"/><path class="cls-3" d="M447.94,371.56a3.47,3.47,0,0,1-3.46-3.47h.87a2.59,2.59,0,1,0,5.18,0h.88A3.48,3.48,0,0,1,447.94,371.56Z"/><path class="cls-15" d="M426.57,315.06a6.77,6.77,0,0,1-5.92-3.48,6.78,6.78,0,0,1-12.7-3.29h1.7a5.07,5.07,0,0,0,10.14,0h1.71a5.07,5.07,0,0,0,10.14,0h1.71A6.78,6.78,0,0,1,426.57,315.06Z"/><path class="cls-15" d="M438.42,315.06a6.78,6.78,0,0,1-6.78-6.77h1.71a5.07,5.07,0,0,0,10.14,0h1.71A6.79,6.79,0,0,1,438.42,315.06Z"/><path class="cls-15" d="M450.27,315.06a6.78,6.78,0,0,1-6.78-6.77h1.71a5.07,5.07,0,0,0,10.13,0H457A6.78,6.78,0,0,1,450.27,315.06Z"/><path class="cls-15" d="M462.11,315.06a6.78,6.78,0,0,1-6.78-6.77H457a5.07,5.07,0,0,0,10.14,0h1.71A6.78,6.78,0,0,1,462.11,315.06Z"/><circle class="cls-15" cx="437.98" cy="270.84" r="25.21"/><rect class="cls-11" x="409.21" y="252.94" width="59.68" height="34.56"/><rect class="cls-19" x="409.21" y="252.94" width="59.68" height="6.74"/><circle class="cls-15" cx="442.14" cy="269.28" r="5.48"/><circle class="cls-15" cx="456.46" cy="277.62" r="5.48"/><rect class="cls-21" x="416.07" y="263.8" width="10.49" height="19.29"/><path class="cls-11" d="M318.38,449.16H310l-.31,31.34-31.39-31.34H175.83a14.73,14.73,0,0,1-14.69-14.69V281a14.73,14.73,0,0,1,14.69-14.69H318.38A14.73,14.73,0,0,1,333.07,281V434.47A14.73,14.73,0,0,1,318.38,449.16Z"/><rect class="cls-11" x="195.11" y="288.13" width="106.32" height="136.56" rx="4.76" ry="4.76"/><path class="cls-14" d="M199.87,288.13h96.8a4.76,4.76,0,0,1,4.76,4.76v4a0,0,0,0,1,0,0H195.11a0,0,0,0,1,0,0v-4A4.76,4.76,0,0,1,199.87,288.13Z"/><rect class="cls-16" x="211.51" y="380.15" width="72.1" height="4.81"/><rect class="cls-16" x="211.51" y="389.63" width="72.1" height="4.81"/><circle class="cls-11" cx="202.19" cy="292.51" r="2.43"/><circle class="cls-11" cx="208.95" cy="292.51" r="2.43"/><circle class="cls-11" cx="215.71" cy="292.51" r="2.43"/><rect class="cls-19" x="230.33" y="405.66" width="35.67" height="7.94"/><path class="cls-3" d="M245.8,411.05a2.82,2.82,0,0,1-2.47-1.46,2.83,2.83,0,0,1-5.3-1.37h.72a2.11,2.11,0,1,0,4.22,0h.72a2.11,2.11,0,1,0,4.22,0h.72A2.83,2.83,0,0,1,245.8,411.05Z"/><path class="cls-3" d="M250.74,411.05a2.83,2.83,0,0,1-2.83-2.83h.72a2.11,2.11,0,1,0,4.22,0h.72A2.83,2.83,0,0,1,250.74,411.05Z"/><path class="cls-3" d="M255.68,411.05a2.83,2.83,0,0,1-2.83-2.83h.72a2.11,2.11,0,1,0,4.22,0h.72A2.83,2.83,0,0,1,255.68,411.05Z"/><path class="cls-19" d="M270.38,362H224.73a3.9,3.9,0,0,1-3.9-3.91V327.51l26.73-18.27,26.73,18.27v30.57A3.91,3.91,0,0,1,270.38,362Z"/><rect class="cls-11" x="224.11" y="316.36" width="46.43" height="43.25"/><rect class="cls-22" x="228.04" y="321.44" width="38.87" height="1.7"/><rect class="cls-22" x="228.04" y="325.2" width="38.87" height="1.7"/><rect class="cls-22" x="228.04" y="328.96" width="38.87" height="1.7"/><rect class="cls-22" x="228.04" y="332.72" width="38.87" height="1.7"/><rect class="cls-22" x="228.04" y="336.48" width="38.87" height="1.7"/><rect class="cls-22" x="228.04" y="340.24" width="38.87" height="1.7"/><path class="cls-19" d="M270.38,362H224.73a3.9,3.9,0,0,1-3.9-3.91V327.79l26.73,18.48,26.73-18.48v30.29A3.91,3.91,0,0,1,270.38,362Z"/><rect class="cls-11" x="556.34" y="237.36" width="136.95" height="141.68" rx="4.76" ry="4.76"/><path class="cls-23" d="M693.3,322.08v51.34a5.62,5.62,0,0,1-5.62,5.62H562a5.62,5.62,0,0,1-5.62-5.62V322.08Z"/><path class="cls-14" d="M561.1,237.36H688.54a4.76,4.76,0,0,1,4.76,4.76v6.52a0,0,0,0,1,0,0h-137a0,0,0,0,1,0,0v-6.52A4.76,4.76,0,0,1,561.1,237.36Z"/><rect class="cls-18" x="556.34" y="237.36" width="136.95" height="141.68" rx="4.76" ry="4.76"/><circle class="cls-11" cx="565" cy="243" r="3.12"/><circle class="cls-11" cx="573.71" cy="243" r="3.12"/><circle class="cls-11" cx="582.42" cy="243" r="3.12"/><rect class="cls-19" x="643.95" y="362.14" width="38.45" height="8.56"/><path class="cls-3" d="M660.62,368a3,3,0,0,0-5.32,0,3.06,3.06,0,0,1-3-3.05H653a2.28,2.28,0,1,0,4.55,0h.77a2.28,2.28,0,1,0,4.56,0h.77A3.06,3.06,0,0,1,660.62,368Z"/><path class="cls-3" d="M666,368a3.06,3.06,0,0,1-3.05-3.05h.77a2.28,2.28,0,1,0,4.56,0H669A3,3,0,0,1,666,368Z"/><path class="cls-3" d="M671.27,368a3,3,0,0,1-3-3.05H669a2.28,2.28,0,1,0,4.56,0h.77A3.06,3.06,0,0,1,671.27,368Z"/><path class="cls-3" d="M611.46,335.17a7.13,7.13,0,0,1-6.23-3.66,7.12,7.12,0,0,1-13.34-3.46h1.8a5.33,5.33,0,1,0,10.65,0h1.79a5.33,5.33,0,1,0,10.65,0h1.8A7.13,7.13,0,0,1,611.46,335.17Z"/><path class="cls-3" d="M623.9,335.17a7.13,7.13,0,0,1-7.12-7.12h1.8a5.33,5.33,0,1,0,10.65,0H631A7.12,7.12,0,0,1,623.9,335.17Z"/><path class="cls-3" d="M636.35,335.17a7.12,7.12,0,0,1-7.12-7.12H631a5.33,5.33,0,1,0,10.65,0h1.8A7.13,7.13,0,0,1,636.35,335.17Z"/><path class="cls-3" d="M648.79,335.17a7.13,7.13,0,0,1-7.12-7.12h1.8a5.33,5.33,0,1,0,10.65,0h1.79A7.12,7.12,0,0,1,648.79,335.17Z"/><rect class="cls-3" x="569.4" y="340.4" width="111.82" height="3.25"/><rect class="cls-3" x="569.4" y="347.13" width="111.82" height="3.25"/><rect class="cls-3" x="569.4" y="353.86" width="74.54" height="3.25"/><rect class="cls-24" x="579.29" y="258.39" width="91.98" height="55.71"/><g class="cls-25"><path class="cls-14" d="M602.55,319.1c0-17.36,10.19-36.22,22.76-36.22s22.76,18.86,22.76,36.22Z"/><circle class="cls-14" cx="624.77" cy="274.28" r="12.69"/></g><rect class="cls-18" x="579.29" y="258.39" width="91.98" height="55.71"/><path class="cls-3" d="M624.1,306.33a20.08,20.08,0,1,1,20.08-20.08A20.11,20.11,0,0,1,624.1,306.33Zm0-35.87a15.79,15.79,0,1,0,15.79,15.79A15.81,15.81,0,0,0,624.1,270.46Z"/><polygon class="cls-3" points="636.48 286.73 618.52 276.36 618.52 297.1 636.48 286.73"/></g></g></svg>