<svg xmlns="http://www.w3.org/2000/svg" viewBox="0 0 120 112.43"><defs><style>.cls-1{fill:#fff;}.cls-2{fill:#f2f2f2;}.cls-2,.cls-3,.cls-5,.cls-6{stroke:#000;stroke-miterlimit:10;}.cls-3{fill:#eb058c;}.cls-4{fill:#b4b6bc;}.cls-5{fill:#0077bf;}.cls-6{fill:#ffe600;}</style></defs><title>magazines</title><g id="Layer_2" data-name="Layer 2"><g id="magazines"><g id="Layer_9_copy_7" data-name="Layer 9 copy 7"><path class="cls-1" d="M106.5,14.17C104.28,11.74,95.73,2.36,81.64.47c-3-.4-17.09-2.29-26,6-11.74,11-1.81,28.07-11.87,41.16-8.65,11.25-25.08.26-36.17,11.5C1.84,65-1.22,74.85.81,82.21c6.34,23,68.94,45.86,100.87,16C124.93,76.42,124.38,33.78,106.5,14.17Z"/></g><rect y="96.12" width="120" height="2.13" rx="1.06" ry="1.06"/><g id="Layer_34" data-name="Layer 34"><path class="cls-2" d="M98.27,41.64v52a2.21,2.21,0,0,1-2.88,2.09C81.64,91.43,70.62,87,60.46,95.2a2.23,2.23,0,0,1-2.81,0C46.55,86.07,34,93,23.84,96a1.83,1.83,0,0,1-2.36-1.76V41.37a1.84,1.84,0,0,1,1.26-1.74c24.09-8,24-7.25,34.22-1a3.27,3.27,0,0,0,3.73-.24C71.19,30.15,82.87,35,96.75,39.56A2.2,2.2,0,0,1,98.27,41.64Z"/><path class="cls-2" d="M98.27,41.64V89a2.21,2.21,0,0,1-2.88,2.09c-13.75-4.3-24.77-8.68-34.93-.53a2.23,2.23,0,0,1-2.81,0c-11.11-9.12-23.67-2.24-33.82.8a1.83,1.83,0,0,1-2.36-1.76V41.37a1.84,1.84,0,0,1,1.26-1.74c24.09-8,24-7.25,34.22-1a3.27,3.27,0,0,0,3.73-.24C71.19,30.15,82.87,35,96.75,39.56A2.2,2.2,0,0,1,98.27,41.64Z"/><path class="cls-2" d="M98.27,41.64V89a2.21,2.21,0,0,1-2.88,2.09c-13.75-4.3-24.77-8.68-34.93-.53A2.24,2.24,0,0,1,59.2,91V39.1a3.3,3.3,0,0,0,1.49-.67C71.19,30.15,82.87,35,96.75,39.55A2.2,2.2,0,0,1,98.27,41.64Z"/><path class="cls-3" d="M91.32,62.39c-14-4.55-18.06-5.7-24.88-2A1.51,1.51,0,0,1,64.22,59V44.25A1.51,1.51,0,0,1,65,43c8-4.77,11.71-3.57,27.29,1.51a1.5,1.5,0,0,1,1,1.43V61A1.51,1.51,0,0,1,91.32,62.39Z"/><path class="cls-4" d="M26.34,48.08a1.16,1.16,0,0,0,.37-.06l.54-.18C43.17,42.47,46,41.51,53.83,46.5a1.17,1.17,0,1,0,1.26-2c-8.74-5.6-12.55-4.31-28.58,1.09l-.54.18a1.17,1.17,0,0,0,.37,2.28Z"/><path class="cls-4" d="M53.83,53.07a1.17,1.17,0,1,0,1.26-2c-8.74-5.6-12.55-4.31-28.58,1.09l-.54.18a1.17,1.17,0,1,0,.75,2.21l.54-.18C43.17,49,46,48.08,53.83,53.07Z"/><path class="cls-4" d="M55.09,57.8c-6-3.84-9.72-4.45-16.58-2.7a1.17,1.17,0,1,0,.58,2.26c6.24-1.59,9.27-1.1,14.74,2.4a1.17,1.17,0,0,0,1.26-2Z"/><path class="cls-4" d="M53.83,66.47a1.17,1.17,0,1,0,1.26-2c-5.18-3.32-8.59-4.16-13.5-3.36A1.17,1.17,0,1,0,42,63.45C46.33,62.73,49.1,63.44,53.83,66.47Z"/><path class="cls-4" d="M43.82,69.93c3.31-.22,5.93.63,10,3.24a1.17,1.17,0,1,0,1.26-2c-3.82-2.44-7.06-3.9-11.43-3.6a1.17,1.17,0,1,0,.16,2.33Z"/><path class="cls-4" d="M55.09,77.89c-3.4-2.17-6.43-3.63-10.23-3.64h0a1.17,1.17,0,0,0,0,2.34c2.84,0,5.27.9,9,3.27a1.17,1.17,0,0,0,1.26-2Z"/><path class="cls-4" d="M55.09,84.59c-3.27-2.09-6.18-3.51-9.77-3.63a1.17,1.17,0,0,0-.08,2.34c2.69.09,5,1,8.59,3.26a1.17,1.17,0,1,0,1.26-2Z"/><path class="cls-4" d="M76.82,66.17c3.64.53,8.38,2.07,15.55,4.41l.56.18a1.17,1.17,0,0,0,.72-2.22l-.56-.18C85.8,66,81,64.42,77.15,63.86a1.17,1.17,0,1,0-.33,2.31Z"/><path class="cls-4" d="M64.22,69.43a1.16,1.16,0,0,0,.61-.18c3.16-2,5.37-2.87,7.65-3.17a1.17,1.17,0,0,0-.3-2.32c-2.63.34-5.11,1.36-8.57,3.5a1.17,1.17,0,0,0,.62,2.16Z"/><path class="cls-4" d="M93.65,74.47l-.56-.18c-8.38-2.73-13.44-4.38-17.56-4.68s-7.18.64-11.93,3.58a1.17,1.17,0,0,0,1.23,2c8.09-5,11.06-4,27.54,1.34l.56.18a1.17,1.17,0,0,0,.72-2.22Z"/><path class="cls-4" d="M93.65,80.38l-.56-.18c-8.38-2.73-13.44-4.38-17.56-4.68s-7.18.64-11.93,3.58a1.17,1.17,0,0,0,1.23,2c8.09-5,11.06-4,27.54,1.34l.56.18a1.17,1.17,0,0,0,.72-2.22Z"/><path class="cls-4" d="M93.65,86.3l-.56-.18c-8.38-2.73-13.44-4.38-17.56-4.68S68.35,82.08,63.6,85a1.17,1.17,0,1,0,1.23,2c8.09-5,11.06-4,27.54,1.34l.56.18a1.17,1.17,0,0,0,.72-2.22Z"/><path class="cls-5" d="M40,91.09a73.19,73.19,0,0,0-11.72,3.42A68.13,68.13,0,0,1,25.5,76.34c0-2.48.08-4.8.09-4.81a45.37,45.37,0,0,1,.72-6c.93-4.74,2.58-7.81,4.68-8,1.62-.13,3.25,1.47,4.69,4.28C39.29,68.92,40.86,81.55,40,91.09Z"/><path class="cls-6" d="M40.15,82.24A21.37,21.37,0,0,1,26.84,89a70.7,70.7,0,0,1-1.26-17.43h0q0-.22,0-.43c1-14.56,6.92-18.68,11.46-6a56,56,0,0,1,2.56,11.3C39.89,78.43,40.06,80.39,40.15,82.24Z"/><path class="cls-3" d="M39.64,76.45a16.18,16.18,0,0,1-14-5.34c1-14.56,6.92-18.68,11.46-6A56,56,0,0,1,39.64,76.45Z"/></g></g></g></svg>