<svg xmlns="http://www.w3.org/2000/svg" viewBox="0 0 120 112.43"><defs><style>.cls-1{fill:#fff;}.cls-2{fill:#eb058c;}.cls-2,.cls-3,.cls-4,.cls-5{stroke:#000;stroke-miterlimit:10;}.cls-3{fill:#ffe600;}.cls-4{fill:#f2f2f2;}.cls-5{fill:#0077bf;}</style></defs><title>gourmet-coffee</title><g id="Layer_2" data-name="Layer 2"><g id="gourmet_coffee" data-name="gourmet coffee"><g id="Layer_9_copy_8" data-name="Layer 9 copy 8"><path class="cls-1" d="M106.5,14.17C104.28,11.74,95.73,2.36,81.64.47c-3-.4-17.09-2.29-26,6-11.74,11-1.81,28.07-11.87,41.16-8.65,11.25-25.08.26-36.17,11.5C1.84,65-1.22,74.85.81,82.21c6.34,23,68.94,45.86,100.87,16C124.93,76.42,124.38,33.78,106.5,14.17Z"/></g><rect y="96.12" width="120" height="2.13" rx="1.06" ry="1.06"/><g id="Layer_39" data-name="Layer 39"><path class="cls-2" d="M81,81.51H69.6a1.83,1.83,0,1,1,0-3.65H81a1.83,1.83,0,0,0,1.81-1.57l2.61-11.2A1.83,1.83,0,0,0,83.65,63H69.71a1.83,1.83,0,0,1,0-3.65H83.65a5.48,5.48,0,0,1,5.42,6.26l-2.61,11.2A5.51,5.51,0,0,1,81,81.51Z"/><path class="cls-2" d="M78.17,57.52V68.6A20.09,20.09,0,1,1,38,68.6V57.52a1.81,1.81,0,0,1,1.83-1.83H76.35A1.81,1.81,0,0,1,78.17,57.52Z"/><path class="cls-3" d="M48,51.74A6.22,6.22,0,0,1,48,41.4a2.56,2.56,0,0,0,0-4.27,1.83,1.83,0,1,1,2-3,6.22,6.22,0,0,1,0,10.35,2.56,2.56,0,0,0,0,4.27,1.83,1.83,0,1,1-2,3Z"/><path class="cls-3" d="M58.08,46.26a1.51,1.51,0,0,0,0,.66,2.42,2.42,0,0,0,1.1,1.79,1.82,1.82,0,0,1,.51,2.52,1.93,1.93,0,0,1-1.61.84,1.48,1.48,0,0,1-.91-.33,6.1,6.1,0,0,1-2.78-5.15,6.21,6.21,0,0,1,2.78-5.19,2.39,2.39,0,0,0,.91-1.1,2.45,2.45,0,0,0,.22-1,2.62,2.62,0,0,0-.22-1.06,2.39,2.39,0,0,0-.91-1.1,1.82,1.82,0,0,1-.51-2.52,1.91,1.91,0,0,1,1.42-.8,1.67,1.67,0,0,1,1.1.29A6.21,6.21,0,0,1,62,39.28a6.1,6.1,0,0,1-2.78,5.15A2.38,2.38,0,0,0,58.08,46.26Z"/><path class="cls-3" d="M66.29,51.74a6.22,6.22,0,0,1,0-10.35,2.56,2.56,0,0,0,0-4.27,1.83,1.83,0,0,1,2-3,6.22,6.22,0,0,1,0,10.35,2.56,2.56,0,0,0,0,4.27,1.83,1.83,0,0,1-2,3Z"/><path class="cls-4" d="M81.83,87a9.14,9.14,0,0,1-9.13,9.13H43.47A9.14,9.14,0,0,1,34.34,87Z"/><path class="cls-5" d="M85.48,87a1.81,1.81,0,0,1-1.83,1.83H32.51a1.83,1.83,0,0,1,0-3.65H83.65A1.81,1.81,0,0,1,85.48,87Z"/><path class="cls-4" d="M52.6,77.86v3.65a3.66,3.66,0,0,1-3.65,3.65H45.3a3.66,3.66,0,0,1-3.65-3.65V77.86A3.66,3.66,0,0,1,45.3,74.2h3.65A3.66,3.66,0,0,1,52.6,77.86Z"/><path class="cls-4" d="M45.3,77.86v3.65a3.66,3.66,0,0,1-3.65,3.65H38a3.66,3.66,0,0,1-3.65-3.65V77.86A3.66,3.66,0,0,1,38,74.2h3.65A3.66,3.66,0,0,1,45.3,77.86Z"/></g></g></g></svg>