<svg xmlns="http://www.w3.org/2000/svg" viewBox="0 0 120 112.43"><g data-name="Layer 2"><path d="M106.5 14.17C104.28 11.74 95.73 2.36 81.64.47c-3-.4-17.09-2.29-26 6-11.74 11-1.81 28.07-11.87 41.16-8.65 11.25-25.08.26-36.17 11.5C1.84 65-1.22 74.85.81 82.21c6.34 23 68.94 45.86 100.87 16 23.25-21.79 22.7-64.43 4.82-84.04z" fill="#fff" data-name="Layer 9 copy 10"/><rect y="96.12" width="120" height="2.13" rx="1.06" ry="1.06"/><g data-name="Layer 46" stroke="#000" stroke-miterlimit="10"><path d="M89.7 88.37v4.81a3 3 0 0 1-2.94 2.94H34.09a2.94 2.94 0 0 1-2.94-2.94v-4.81z" fill="#eb058c"/><path d="M89.7 36.76v51.61H31.15V36.76a2.94 2.94 0 0 1 2.94-2.94h52.69a2.94 2.94 0 0 1 2.92 2.94zM60.43 52.63h13.41a13.41 13.41 0 1 0-26.82 0z" fill="#f2f2f2"/><path d="M60.43 52.63H47a13.41 13.41 0 1 1 26.82 0z" fill="#ffe600"/><path d="M60.43 44.83A1.47 1.47 0 0 0 59 46.3v6.32h2.9V46.3a1.47 1.47 0 0 0-1.47-1.47z" fill="#0077bf"/></g></g></svg>