<svg xmlns="http://www.w3.org/2000/svg" viewBox="0 0 120 112.43"><defs><style>.cls-4{stroke:#000;stroke-miterlimit:10;fill:#f2f2f2}.cls-5{fill:#b4b6bc}</style></defs><g id="Layer_2" data-name="Layer 2"><g id="books"><path d="M106.5 14.17C104.28 11.74 95.73 2.36 81.64.47c-3-.4-17.09-2.29-26 6-11.74 11-1.81 28.07-11.87 41.16-8.65 11.25-25.08.26-36.17 11.5C1.84 65-1.22 74.85.81 82.21c6.34 23 68.94 45.86 100.87 16 23.25-21.79 22.7-64.43 4.82-84.04z" fill="#fff" id="Layer_9_copy_11" data-name="Layer 9 copy 11"/><rect y="96.12" width="120" height="2.13" rx="1.06" ry="1.06"/><path d="M99.14 42H21.35a4.17 4.17 0 0 0-4.17 4.17V92a4.17 4.17 0 0 0 4.17 4.17h77.79a4.17 4.17 0 0 0 4.17-4.17V46.2a4.17 4.17 0 0 0-4.17-4.2z" stroke="#000" stroke-miterlimit="10" fill="#ffe600"/><path fill="#0077bf" stroke="#000" stroke-miterlimit="10" d="M56.08 89.26h8.33v6.95h-8.33z"/><path class="cls-4" d="M97.79 85.1v4.17a1.39 1.39 0 0 1-1.39 1.39H24.17a1.39 1.39 0 0 1-1.39-1.39V85.1l8.3-4.17 33.34 1.39 27.78-1.39z"/><path class="cls-4" d="M24.73 87a44 44 0 0 1 35.56.86v-50a44 44 0 0 0-36.68-.38 1.41 1.41 0 0 0-.82 1.28v47A1.39 1.39 0 0 0 24.73 87zM60.29 87.88A44 44 0 0 1 95.84 87a1.39 1.39 0 0 0 1.95-1.27v-47a1.41 1.41 0 0 0-.79-1.24 44 44 0 0 0-36.68.38z"/><path class="cls-5" d="M65.84 78.8a1.39 1.39 0 0 1-.42-2.72c1.41-.44 2.85-.82 4.3-1.12a1.39 1.39 0 0 1 .57 2.72c-1.36.28-2.72.64-4 1.05a1.4 1.4 0 0 1-.45.07zM92.24 78.8a1.39 1.39 0 0 1-.42-.06 42.41 42.41 0 0 0-16.14-1.83 1.39 1.39 0 0 1-.22-2.77 45.26 45.26 0 0 1 17.2 1.95 1.39 1.39 0 0 1-.42 2.72zM92.24 73.23a1.39 1.39 0 0 1-.42-.06 42.45 42.45 0 0 0-25.56 0 1.39 1.39 0 1 1-.83-2.65 45.22 45.22 0 0 1 27.23 0 1.39 1.39 0 0 1-.42 2.72zM65.84 67.69a1.39 1.39 0 0 1-.41-2.69 45.37 45.37 0 0 1 15.76-2 1.39 1.39 0 0 1-.13 2.78 42.56 42.56 0 0 0-14.8 1.91 1.4 1.4 0 0 1-.42 0zM92.24 67.69a1.39 1.39 0 0 1-.42-.06 42.8 42.8 0 0 0-5.38-1.31 1.39 1.39 0 0 1 .48-2.74A45.69 45.69 0 0 1 92.65 65a1.39 1.39 0 0 1-.42 2.72zM92.24 62.12a1.39 1.39 0 0 1-.42-.06 42.45 42.45 0 0 0-25.56 0 1.39 1.39 0 1 1-.83-2.65 45.22 45.22 0 0 1 27.23 0 1.39 1.39 0 0 1-.42 2.72zM65.84 56.56a1.39 1.39 0 0 1-.42-2.72A45.49 45.49 0 0 1 74 52a1.39 1.39 0 1 1 .31 2.76 42.74 42.74 0 0 0-8.07 1.7 1.4 1.4 0 0 1-.4.1zM92.24 56.56a1.39 1.39 0 0 1-.42-.06 42.58 42.58 0 0 0-12.11-2 1.39 1.39 0 1 1 0-2.78 45.39 45.39 0 0 1 12.9 2.08 1.39 1.39 0 0 1-.42 2.72zM65.84 51a1.39 1.39 0 0 1-.42-2.72 45.12 45.12 0 0 1 18.64-1.78 1.39 1.39 0 0 1 1.22 1.5 1.37 1.37 0 0 1-1.53 1.23A42.4 42.4 0 0 0 66.26 51a1.39 1.39 0 0 1-.42 0zM92.24 51a1.39 1.39 0 0 1-.42-.06c-.88-.28-1.79-.53-2.69-.75a1.39 1.39 0 0 1 .66-2.7c1 .23 1.92.5 2.87.8a1.39 1.39 0 0 1-.42 2.71zM65.84 45.45a1.39 1.39 0 0 1-.42-2.72c1-.3 1.92-.57 2.86-.8a1.39 1.39 0 0 1 .66 2.7c-.89.22-1.79.47-2.69.75a1.39 1.39 0 0 1-.41.07zM92.24 45.45a1.39 1.39 0 0 1-.42-.06 42.41 42.41 0 0 0-17.49-1.7 1.39 1.39 0 1 1-.33-2.77 45.13 45.13 0 0 1 18.63 1.81 1.39 1.39 0 0 1-.42 2.72zM28.34 78.8a1.39 1.39 0 0 1-.42-2.72c1.41-.44 2.85-.82 4.3-1.12a1.39 1.39 0 1 1 .57 2.72c-1.36.28-2.72.64-4 1.05a1.4 1.4 0 0 1-.45.07zM54.73 78.8a1.39 1.39 0 0 1-.42-.06 42.41 42.41 0 0 0-16.14-1.83 1.39 1.39 0 1 1-.17-2.77 45.27 45.27 0 0 1 17.2 1.95 1.39 1.39 0 0 1-.42 2.72zM54.73 73.23a1.39 1.39 0 0 1-.42-.06 42.45 42.45 0 0 0-25.56 0 1.39 1.39 0 0 1-.83-2.65 45.22 45.22 0 0 1 27.23 0 1.39 1.39 0 0 1-.42 2.72zM28.34 67.69a1.39 1.39 0 0 1-.42-2.69 45.39 45.39 0 0 1 15.76-2 1.39 1.39 0 0 1-.13 2.78 42.56 42.56 0 0 0-14.8 1.91 1.4 1.4 0 0 1-.41 0zM54.73 67.69a1.39 1.39 0 0 1-.42-.06 42.8 42.8 0 0 0-5.38-1.31 1.39 1.39 0 0 1 .48-2.74A45.69 45.69 0 0 1 55.15 65a1.39 1.39 0 0 1-.42 2.72zM28.34 62.12a1.39 1.39 0 0 1-.42-2.72 45.44 45.44 0 0 1 24.36-.8 1.39 1.39 0 1 1-.66 2.7 42.63 42.63 0 0 0-22.87.75 1.4 1.4 0 0 1-.41.07zM28.34 56.56a1.39 1.39 0 0 1-.42-2.72 45.49 45.49 0 0 1 8.6-1.84 1.39 1.39 0 1 1 .31 2.76 42.74 42.74 0 0 0-8.07 1.7 1.4 1.4 0 0 1-.42.1zM52 55.79a1.4 1.4 0 0 1-.33 0 42.67 42.67 0 0 0-9.42-1.21 1.39 1.39 0 0 1-1.37-1.41 1.35 1.35 0 0 1 1.41-1.37 45.5 45.5 0 0 1 10 1.28 1.39 1.39 0 0 1-.29 2.71zM28.34 51a1.39 1.39 0 0 1-.42-2.72 45.13 45.13 0 0 1 18.63-1.78 1.39 1.39 0 0 1 1.23 1.5 1.37 1.37 0 0 1-1.53 1.23A42.4 42.4 0 0 0 28.75 51a1.39 1.39 0 0 1-.41 0zM28.34 45.45a1.39 1.39 0 0 1-.42-2.72c1-.3 1.92-.57 2.86-.8a1.39 1.39 0 1 1 .66 2.7c-.89.22-1.79.47-2.69.75a1.39 1.39 0 0 1-.41.07zM52 44.67a1.4 1.4 0 0 1-.33 0 42.55 42.55 0 0 0-14.8-1 1.39 1.39 0 1 1-.31-2.76 45.28 45.28 0 0 1 15.76 1 1.39 1.39 0 0 1-.32 2.76z"/><path d="M52 59.4a.69.69 0 0 0 1 .6l3.09-2.06L59.21 60a.69.69 0 0 0 1.08-.58V38a1.4 1.4 0 0 0-.82-1.28 44 44 0 0 0-6.64-2.33.7.7 0 0 0-.87.68z" fill="#eb058c" stroke="#000" stroke-miterlimit="10"/></g></g></svg>