<svg xmlns="http://www.w3.org/2000/svg" viewBox="0 0 120 112.43"><defs><style>.cls-1{fill:#fff;}.cls-2{fill:#ffe600;}.cls-2,.cls-3,.cls-4{stroke:#000;stroke-miterlimit:10;}.cls-3{fill:#0077bf;}.cls-4{fill:#eb058c;}</style></defs><title>fintech</title><g id="Layer_2" data-name="Layer 2"><g id="fintech"><g id="Layer_9_copy_13" data-name="Layer 9 copy 13"><path class="cls-1" d="M106.5,14.17C104.28,11.74,95.73,2.36,81.64.47c-3-.4-17.09-2.29-26,6-11.74,11-1.81,28.07-11.87,41.16-8.65,11.25-25.08.26-36.17,11.5C1.84,65-1.22,74.85.81,82.21c6.34,23,68.94,45.86,100.87,16C124.93,76.42,124.38,33.78,106.5,14.17Z"/></g><rect y="96.12" width="120" height="2.13" rx="1.06" ry="1.06"/><g id="Layer_60" data-name="Layer 60"><g id="Layer_61" data-name="Layer 61"><circle class="cls-2" cx="60.07" cy="64.28" r="26"/></g><path class="cls-2" d="M90.91,60.24a1.08,1.08,0,0,0-1.07-.91H87.48a27.85,27.85,0,0,0-4.24-10.24l1.66-1.66A1.08,1.08,0,0,0,85,46a31.4,31.4,0,0,0-6.32-6.32,1.08,1.08,0,0,0-1.4.11l-1.66,1.66a27.84,27.84,0,0,0-10.24-4.24V34.87a1.08,1.08,0,0,0-.91-1.07,30.79,30.79,0,0,0-8.95,0,1.08,1.08,0,0,0-.91,1.07v2.36a27.85,27.85,0,0,0-10.24,4.24l-1.66-1.66a1.08,1.08,0,0,0-1.4-.11A31.41,31.41,0,0,0,35,46a1.08,1.08,0,0,0,.11,1.4l1.66,1.66a27.84,27.84,0,0,0-4.24,10.24H30.16a1.08,1.08,0,0,0-1.07.91,30.79,30.79,0,0,0,0,8.95,1.08,1.08,0,0,0,1.07.91h2.36a27.85,27.85,0,0,0,4.24,10.24L35.1,82A1.08,1.08,0,0,0,35,83.4a31.4,31.4,0,0,0,6.32,6.32,1.08,1.08,0,0,0,1.4-.11L44.38,88a27.85,27.85,0,0,0,10.24,4.24v2.36a1.08,1.08,0,0,0,.91,1.07,30.79,30.79,0,0,0,8.95,0,1.08,1.08,0,0,0,.91-1.07V92.19A27.85,27.85,0,0,0,75.62,88l1.66,1.66a1.08,1.08,0,0,0,1.4.11A31.4,31.4,0,0,0,85,83.4,1.08,1.08,0,0,0,84.9,82l-1.66-1.66A27.84,27.84,0,0,0,87.48,70.1h2.36a1.08,1.08,0,0,0,1.07-.91,30.79,30.79,0,0,0,0-8.95ZM60,86.25A21.54,21.54,0,1,1,81.54,64.71,21.54,21.54,0,0,1,60,86.25Z"/><path class="cls-3" d="M60,39.94A24.77,24.77,0,1,0,84.77,64.71,24.77,24.77,0,0,0,60,39.94Zm0,46.31A21.54,21.54,0,1,1,81.54,64.71,21.54,21.54,0,0,1,60,86.25Z"/><path class="cls-4" d="M69.5,70c0-3.72-2.19-6-6.58-7l-1.55-.3V56.3a3.65,3.65,0,0,1,2.58,1.88A2.32,2.32,0,1,0,68,56c-1.25-2-3.59-3.31-6.65-3.65v-1.1a1.58,1.58,0,0,0-3.15,0v1.1c-4.87.53-7.72,3.2-7.72,7.27,0,3.57,2.21,6,6.34,6.91l1.37.32v6.72a4.05,4.05,0,0,1-3-2,2.34,2.34,0,0,0-2.07-1.28h-.23a2.32,2.32,0,0,0-2,3.5c1.29,2.08,3.82,3.39,7.28,3.68v.74a1.58,1.58,0,1,0,3.15,0v-.76C66.57,76.92,69.5,74.24,69.5,70Zm-14-10.8a3,3,0,0,1,2.76-2.88V62C56.41,61.54,55.46,60.56,55.46,59.16ZM61.37,73.6V67.42c2.23.5,3.28,1.5,3.28,3.09S63.44,73.39,61.37,73.6Z"/></g></g></g></svg>