<svg xmlns="http://www.w3.org/2000/svg" viewBox="0 0 120 112.43"><defs><style>.cls-1{fill:#fff;}.cls-2{fill:#eb058c;}.cls-2,.cls-3,.cls-4,.cls-5,.cls-6{stroke:#000;stroke-miterlimit:10;}.cls-3{fill:#f2f2f2;}.cls-4{fill:gray;}.cls-5{fill:#ffe600;}.cls-6{fill:#0077bf;}</style></defs><title>automative</title><g id="Layer_2" data-name="Layer 2"><g id="automative_copy" data-name="automative copy"><g id="Layer_9_copy_15" data-name="Layer 9 copy 15"><path class="cls-1" d="M106.5,14.17C104.28,11.74,95.73,2.36,81.64.47c-3-.4-17.09-2.29-26,6-11.74,11-1.81,28.07-11.87,41.16-8.65,11.25-25.08.26-36.17,11.5C1.84,65-1.22,74.85.81,82.21c6.34,23,68.94,45.86,100.87,16C124.93,76.42,124.38,33.78,106.5,14.17Z"/></g><rect y="96.12" width="120" height="2.13" rx="1.06" ry="1.06"/><g id="Layer_65_copy" data-name="Layer 65 copy"><path class="cls-2" d="M93.59,72.89a10.11,10.11,0,0,0-2.11-5.64,17.37,17.37,0,0,1-3.37-6.59,80.54,80.54,0,0,0-5.63-12.12,9.72,9.72,0,0,0-7.12-4.69c-6-.77-24.63-.77-30.6,0a9.73,9.73,0,0,0-7.12,4.69A80.77,80.77,0,0,0,32,60.67a17.37,17.37,0,0,1-3.37,6.59,10.1,10.1,0,0,0-2.11,5.64c-.21,4.44,1.07,5.42,2.23,15.48a1.56,1.56,0,0,0,1.56,1.39H89.81a1.57,1.57,0,0,0,1.56-1.39c.32-2.82,1.28-8.54,1.28-8.54A21,21,0,0,0,93.59,72.89Z"/><path class="cls-3" d="M86.85,60.44a86.74,86.74,0,0,0-5.3-11.23,8.77,8.77,0,0,0-6.33-4.26c-6-.79-24.39-.79-30.33,0a8.77,8.77,0,0,0-6.34,4.26,88.26,88.26,0,0,0-5.32,11.23A341.9,341.9,0,0,0,86.85,60.44Z"/><path class="cls-3" d="M84.32,65.49a9.85,9.85,0,0,0-1.85.81,22.69,22.69,0,0,1-3,1.43c-1.72.65-2,1.62-2,1.62l-.15.2A2.74,2.74,0,0,0,80,73.74a33.14,33.14,0,0,0,7.49-2,2.68,2.68,0,0,0,1.63-1.83l.05-.24A3.77,3.77,0,0,0,84.32,65.49Z"/><path class="cls-4" d="M91.36,88.37a1.57,1.57,0,0,1-1.56,1.39H82.66v4.15a2.66,2.66,0,0,0,2.66,2.66h4.49a2.66,2.66,0,0,0,2.66-2.66v-13C92.17,82.72,91.6,86.31,91.36,88.37Z"/><path class="cls-2" d="M94.5,57.53a2.14,2.14,0,0,0-2.11-1.62H90.59A2.08,2.08,0,0,0,88.51,58v1.28h-1l.55,1.3H90.2a7.54,7.54,0,0,0,3.14-.68A2.08,2.08,0,0,0,94.5,57.53Z"/><circle class="cls-5" cx="85.49" cy="68.84" r="2.62"/><circle class="cls-5" cx="80.23" cy="70.9" r="1.92"/><polygon class="cls-5" points="75.25 70.91 72.25 76.14 47.85 76.14 44.85 70.91 75.25 70.91"/><path class="cls-3" d="M42.78,69.56l-.15-.2s-.29-1-2-1.62a22.82,22.82,0,0,1-3-1.43,9.91,9.91,0,0,0-1.85-.81,3.77,3.77,0,0,0-4.89,4.19l0,.24a2.68,2.68,0,0,0,1.63,1.83,33.14,33.14,0,0,0,7.49,2A2.74,2.74,0,0,0,42.78,69.56Z"/><path class="cls-6" d="M84.79,87.47C80.92,80.78,76.47,81,76.47,81H43.63s-4.45-.21-8.32,6.48H28.62l.08.86a1.57,1.57,0,0,0,1.56,1.43H89.83a1.57,1.57,0,0,0,1.56-1.43l.08-.86Z"/><path class="cls-4" d="M30.3,89.76a1.57,1.57,0,0,1-1.56-1.39c-.24-2.05-.81-5.65-1.1-7.45v13a2.66,2.66,0,0,0,2.66,2.66h4.49a2.66,2.66,0,0,0,2.66-2.66V89.76H30.3Z"/><path class="cls-2" d="M31.59,59.27V58a2.08,2.08,0,0,0-2.08-2.08H27.71a2.14,2.14,0,0,0-2.11,1.62,2.08,2.08,0,0,0,1.16,2.35,7.54,7.54,0,0,0,3.14.68H32l.55-1.3h-1Z"/><circle class="cls-5" cx="34.6" cy="68.84" r="2.62"/><circle class="cls-5" cx="39.87" cy="70.9" r="1.92"/></g></g></g></svg>