<svg xmlns="http://www.w3.org/2000/svg" viewBox="0 0 120 112.43"><defs><style>.cls-2{fill:#f2f2f2}.cls-2,.cls-3,.cls-4,.cls-5{stroke:#000;stroke-miterlimit:10}.cls-3{fill:#eb058c}.cls-4{fill:#ffe600}.cls-5{fill:#0077bf}</style></defs><g id="Layer_2" data-name="Layer 2"><g id="gym"><path d="M106.5 14.17C104.28 11.74 95.73 2.36 81.64.47c-3-.4-17.09-2.29-26 6-11.74 11-1.81 28.07-11.87 41.16-8.65 11.25-25.08.26-36.17 11.5C1.84 65-1.22 74.85.81 82.21c6.34 23 68.94 45.86 100.87 16 23.25-21.79 22.7-64.43 4.82-84.04z" fill="#fff" id="Layer_9_copy_2" data-name="Layer 9 copy 2"/><rect y="96.12" width="120" height="2.13" rx="1.06" ry="1.06"/><g id="Layer_13" data-name="Layer 13"><path class="cls-2" d="M55.1 52.7h-10v11.71h.1a5.76 5.76 0 0 0 1.61 3.18l4.14 4.14v24.89h17.53V71.73l3.22-4.29a5.85 5.85 0 0 0 1.17-3V52.7H55.1z"/><path class="cls-3" d="M17.25 48.31h5.85v8.78h-5.85z"/><path class="cls-4" d="M26.76 41a3.66 3.66 0 0 1 3.66 3.66v16.1a3.66 3.66 0 0 1-3.66 3.66 3.66 3.66 0 0 1-3.66-3.66V44.65A3.66 3.66 0 0 1 26.76 41zM34.81 33.68a4.39 4.39 0 0 1 4.39 4.39v29.27a4.39 4.39 0 0 1-4.39 4.39 4.39 4.39 0 0 1-4.39-4.39V38.07a4.39 4.39 0 0 1 4.39-4.39z"/><path class="cls-3" d="M96.29 48.31h5.85v8.78h-5.85z"/><path class="cls-5" d="M92.63 64.41A3.66 3.66 0 0 1 89 60.75v-16.1A3.66 3.66 0 0 1 92.63 41a3.66 3.66 0 0 1 3.66 3.66v16.1a3.66 3.66 0 0 1-3.66 3.65z"/><path class="cls-5" d="M84.58 71.73a4.39 4.39 0 0 1-4.39-4.39V38.07a4.39 4.39 0 0 1 4.39-4.39A4.39 4.39 0 0 1 89 38.07v29.27a4.39 4.39 0 0 1-4.42 4.39z"/><path class="cls-3" d="M71.41 48.31H39.2v8.78h40.99v-8.78h-8.78z"/><path class="cls-2" d="M50.91 42.46A2.93 2.93 0 0 0 48 45.39v4.39a2.93 2.93 0 0 0 5.85 0v-4.39a2.93 2.93 0 0 0-2.94-2.93z"/><path class="cls-2" d="M56.77 42.46a2.93 2.93 0 0 0-2.93 2.93v4.39a2.93 2.93 0 0 0 5.85 0v-4.39a2.93 2.93 0 0 0-2.92-2.93z"/><path class="cls-2" d="M62.62 42.46a2.93 2.93 0 0 0-2.93 2.93v4.39a2.93 2.93 0 0 0 5.85 0v-4.39a2.93 2.93 0 0 0-2.92-2.93zM68.48 42.46a2.93 2.93 0 0 0-2.93 2.93v4.39a2.93 2.93 0 0 0 5.85 0v-4.39a2.93 2.93 0 0 0-2.92-2.93zM59.7 71.73c0-4.39-2.24-8.07-5.55-9.16l-3.23-1.08v-2.93h4.39a2.93 2.93 0 0 0 2.52-1.46 2.82 2.82 0 0 0 .4-2.1 3.12 3.12 0 0 0-3.13-2.3h-10v10.75a5.85 5.85 0 0 0 1.71 4.14l4.14 4.14v24.89"/></g></g></g></svg>