<svg xmlns="http://www.w3.org/2000/svg" viewBox="0 0 120 112.43"><defs><style>.cls-1{fill:#fff;}.cls-2{fill:#f2f2f2;}.cls-2,.cls-3,.cls-4,.cls-5{stroke:#000;stroke-miterlimit:10;}.cls-3{fill:#eb058c;}.cls-4{fill:#ffe600;}.cls-5{fill:#0077bf;}</style></defs><title>gym</title><g id="Layer_2" data-name="Layer 2"><g id="gym"><g id="Layer_9_copy_2" data-name="Layer 9 copy 2"><path class="cls-1" d="M106.5,14.17C104.28,11.74,95.73,2.36,81.64.47c-3-.4-17.09-2.29-26,6-11.74,11-1.81,28.07-11.87,41.16-8.65,11.25-25.08.26-36.17,11.5C1.84,65-1.22,74.85.81,82.21c6.34,23,68.94,45.86,100.87,16C124.93,76.42,124.38,33.78,106.5,14.17Z"/></g><rect y="96.12" width="120" height="2.13" rx="1.06" ry="1.06"/><g id="Layer_13" data-name="Layer 13"><path class="cls-2" d="M55.1,52.7h-10V64.41h.1a5.76,5.76,0,0,0,1.61,3.18l4.14,4.14V96.62H68.48V71.73l3.22-4.29a5.85,5.85,0,0,0,1.17-3h0V52.7H55.1Z"/><rect class="cls-3" x="17.25" y="48.31" width="5.85" height="8.78"/><path class="cls-4" d="M26.76,41h0a3.66,3.66,0,0,1,3.66,3.66v16.1a3.66,3.66,0,0,1-3.66,3.66h0a3.66,3.66,0,0,1-3.66-3.66V44.65A3.66,3.66,0,0,1,26.76,41Z"/><path class="cls-4" d="M34.81,33.68h0a4.39,4.39,0,0,1,4.39,4.39V67.34a4.39,4.39,0,0,1-4.39,4.39h0a4.39,4.39,0,0,1-4.39-4.39V38.07A4.39,4.39,0,0,1,34.81,33.68Z"/><rect class="cls-3" x="96.29" y="48.31" width="5.85" height="8.78"/><path class="cls-5" d="M92.63,64.41h0A3.66,3.66,0,0,1,89,60.75V44.65A3.66,3.66,0,0,1,92.63,41h0a3.66,3.66,0,0,1,3.66,3.66v16.1A3.66,3.66,0,0,1,92.63,64.41Z"/><path class="cls-5" d="M84.58,71.73h0a4.39,4.39,0,0,1-4.39-4.39V38.07a4.39,4.39,0,0,1,4.39-4.39h0A4.39,4.39,0,0,1,89,38.07V67.34A4.39,4.39,0,0,1,84.58,71.73Z"/><polygon class="cls-3" points="71.41 48.31 47.99 48.31 39.2 48.31 39.2 57.09 45.06 57.09 57.82 57.09 80.19 57.09 80.19 48.31 71.41 48.31"/><path class="cls-2" d="M50.91,42.46A2.93,2.93,0,0,0,48,45.39v4.39a2.93,2.93,0,0,0,5.85,0V45.39A2.93,2.93,0,0,0,50.91,42.46Z"/><path class="cls-2" d="M56.77,42.46a2.93,2.93,0,0,0-2.93,2.93v4.39a2.93,2.93,0,0,0,5.85,0V45.39A2.93,2.93,0,0,0,56.77,42.46Z"/><path class="cls-2" d="M62.62,42.46a2.93,2.93,0,0,0-2.93,2.93v4.39a2.93,2.93,0,0,0,5.85,0V45.39A2.93,2.93,0,0,0,62.62,42.46Z"/><path class="cls-2" d="M68.48,42.46a2.93,2.93,0,0,0-2.93,2.93v4.39a2.93,2.93,0,0,0,5.85,0V45.39A2.93,2.93,0,0,0,68.48,42.46Z"/><path class="cls-2" d="M59.7,71.73c0-4.39-2.24-8.07-5.55-9.16l-3.23-1.08V58.56h4.39a2.93,2.93,0,0,0,2.52-1.46A2.82,2.82,0,0,0,58.23,55,3.12,3.12,0,0,0,55.1,52.7h-10V63.45a5.85,5.85,0,0,0,1.71,4.14l4.14,4.14V96.62"/></g></g></g></svg>