<svg xmlns="http://www.w3.org/2000/svg" viewBox="0 0 120 112.43"><g data-name="Layer 2"><path d="M106.5 14.17C104.28 11.74 95.73 2.36 81.64.47c-3-.4-17.09-2.29-26 6-11.74 11-1.81 28.07-11.87 41.16-8.65 11.25-25.08.26-36.17 11.5C1.84 65-1.22 74.85.81 82.21c6.34 23 68.94 45.86 100.87 16 23.25-21.79 22.7-64.43 4.82-84.04z" fill="#fff" data-name="Layer 9 copy 3"/><rect y="96.12" width="120" height="2.13" rx="1.06" ry="1.06"/><g data-name="Layer 14" stroke="#000" stroke-miterlimit="10"><path d="M91.79 80.52L46.92 35.64a4.65 4.65 0 0 0-6.56 0l-8.71 8.71A.93.93 0 0 0 33 45.66l6.74-6.74L41 40.26 34.29 47a.93.93 0 0 0 1.31 1.3l6.74-6.74 1.33 1.33-6.74 6.74a.93.93 0 1 0 1.31 1.31L45 44.21l1.33 1.33-6.74 6.74a.93.93 0 1 0 1.31 1.31l6.74-6.74L49 48.18l-6.74 6.74a.93.93 0 0 0 1.31 1.31l6.74-6.74 1.33 1.33-6.74 6.74a.93.93 0 0 0 1.31 1.31l6.74-6.74 1.33 1.33-6.78 6.74a.93.93 0 0 0 1.31 1.31l6.74-6.74 1.33 1.33-6.74 6.74a.93.93 0 0 0 1.31 1.31l6.74-6.74 11.89 11.9L63.35 76a.93.93 0 0 0 1.31 1.31l6.74-6.74L72.72 72 66 78.69A.93.93 0 0 0 67.3 80l6.7-6.73 1.33 1.33-6.74 6.74a.93.93 0 0 0 1.31 1.31l6.74-6.74L78 77.24 71.27 84a.93.93 0 0 0 1.31 1.31l6.74-6.74 1.33 1.33-6.74 6.74a.93.93 0 0 0 1.31 1.31L82 81.19l1.33 1.33-6.74 6.74a.93.93 0 0 0 1.31 1.31l6.74-6.74 1.33 1.33-6.77 6.74a.93.93 0 0 0 1.31 1.31l6.74-6.74 1.33 1.33-6.74 6.74a.93.93 0 0 0 1.31 1.31l8.71-8.71a4.61 4.61 0 0 0 1.36-3.36 4.76 4.76 0 0 0-1.43-3.26z" fill="#eb058c"/><path d="M93.27 34.23h0l-45 35.87s-1.78 1.56-2.81 2.49a7.43 7.43 0 1 0-.46 9.85l12.29-3.2h0Q76 58.53 93.41 36.75a1.89 1.89 0 0 0-.14-2.52zM42.36 79.88a3.71 3.71 0 1 1 0-5.25 3.72 3.72 0 0 1 0 5.25z" fill="#0077bf"/><path d="M54.91 82c.83-.92 1.61-1.84 2.43-2.76a10.43 10.43 0 0 0-1-.81 4.15 4.15 0 0 1-1.84-3v-.05a4.32 4.32 0 0 1 1.23-3.58l37.54-37.57a1.89 1.89 0 0 0-2.52-.14Q70.44 50.32 51 67.62h0c-.92.82-1.8 1.65-2.72 2.48h0a7.13 7.13 0 0 1-.47 9.55L45 82.44l-.06.07h0A7.43 7.43 0 0 0 55.49 93h0a7.42 7.42 0 0 0 0-10.5 7.53 7.53 0 0 0-.58-.5zm-7.3 8.4A3.71 3.71 0 1 1 54 87.77a3.72 3.72 0 0 1-6.39 2.63z" fill="#ffe600"/></g></g></svg>