<svg xmlns="http://www.w3.org/2000/svg" viewBox="0 0 120 112.43"><defs><style>.cls-1{fill:#fff;}.cls-2{fill:#eb058c;}.cls-2,.cls-3,.cls-4{stroke:#000;stroke-miterlimit:10;}.cls-3{fill:#0077bf;}.cls-4{fill:#ffe600;}</style></defs><title>salons</title><g id="Layer_2" data-name="Layer 2"><g id="salons"><g id="Layer_9_copy_3" data-name="Layer 9 copy 3"><path class="cls-1" d="M106.5,14.17C104.28,11.74,95.73,2.36,81.64.47c-3-.4-17.09-2.29-26,6-11.74,11-1.81,28.07-11.87,41.16-8.65,11.25-25.08.26-36.17,11.5C1.84,65-1.22,74.85.81,82.21c6.34,23,68.94,45.86,100.87,16C124.93,76.42,124.38,33.78,106.5,14.17Z"/></g><rect y="96.12" width="120" height="2.13" rx="1.06" ry="1.06"/><g id="Layer_14" data-name="Layer 14"><path class="cls-2" d="M91.79,80.52,46.92,35.64a4.65,4.65,0,0,0-6.56,0l-8.71,8.71A.93.93,0,0,0,33,45.66l6.74-6.74L41,40.26,34.29,47A.93.93,0,0,0,35.6,48.3l6.74-6.74,1.33,1.33-6.74,6.74a.93.93,0,1,0,1.31,1.31L45,44.21l1.33,1.33-6.74,6.74a.93.93,0,1,0,1.31,1.31l6.74-6.74L49,48.18l-6.74,6.74a.93.93,0,0,0,1.31,1.31l6.74-6.74,1.33,1.33-6.74,6.74a.93.93,0,0,0,1.31,1.31l6.74-6.74,1.33,1.33L47.5,60.2a.93.93,0,0,0,1.31,1.31l6.74-6.74,1.33,1.33-6.74,6.74a.93.93,0,0,0,1.31,1.31l6.74-6.74L70.08,69.31,63.35,76a.93.93,0,0,0,1.31,1.31l6.74-6.74L72.72,72,66,78.69A.93.93,0,0,0,67.3,80L74,73.27l1.33,1.33-6.74,6.74a.93.93,0,0,0,1.31,1.31l6.74-6.74L78,77.24,71.27,84a.93.93,0,0,0,1.31,1.31l6.74-6.74,1.33,1.33-6.74,6.74a.93.93,0,0,0,1.31,1.31L82,81.19l1.33,1.33-6.74,6.74a.93.93,0,0,0,1.31,1.31l6.74-6.74,1.33,1.33L79.2,91.9a.93.93,0,0,0,1.31,1.31l6.74-6.74,1.33,1.33-6.74,6.74a.93.93,0,0,0,1.31,1.31l8.71-8.71a4.61,4.61,0,0,0,1.36-3.36A4.76,4.76,0,0,0,91.79,80.52Z"/><path class="cls-3" d="M93.27,34.23h0l-45,35.87s-1.78,1.56-2.81,2.49A7.43,7.43,0,1,0,45,82.44l12.29-3.2h0Q76,58.53,93.41,36.75A1.89,1.89,0,0,0,93.27,34.23ZM42.36,79.88a3.71,3.71,0,1,1,0-5.25A3.72,3.72,0,0,1,42.36,79.88Z"/><path class="cls-4" d="M54.91,82c.83-.92,1.61-1.84,2.43-2.76a10.43,10.43,0,0,0-1-.81,4.15,4.15,0,0,1-1.84-3v-.05a4.32,4.32,0,0,1,1.23-3.58L93.27,34.23a1.89,1.89,0,0,0-2.52-.14Q70.44,50.32,51,67.62h0c-.92.82-1.8,1.65-2.72,2.48h0a7.13,7.13,0,0,1-.47,9.55L45,82.44l-.06.07h0A7.43,7.43,0,0,0,55.49,93h0a7.42,7.42,0,0,0,0-10.5A7.53,7.53,0,0,0,54.91,82Zm-7.3,8.4A3.71,3.71,0,1,1,54,87.77,3.72,3.72,0,0,1,47.61,90.4Z"/></g></g></g></svg>