<?xml version="1.0" encoding="utf-8"?>
<!-- Generator: Adobe Illustrator 21.0.2, SVG Export Plug-In . SVG Version: 6.00 Build 0)  -->
<svg version="1.1" id="Layer_1" xmlns="http://www.w3.org/2000/svg" xmlns:xlink="http://www.w3.org/1999/xlink" x="0px" y="0px"
	 viewBox="0 0 869.8 679.3" style="enable-background:new 0 0 869.8 679.3;" xml:space="preserve">
<style type="text/css">
	.st0{fill:#F5F5F5;}
	.st1{fill:#CCCCCC;}
	.st2{fill:#1A1A1A;stroke:#000000;stroke-width:0.5;stroke-miterlimit:10;}
	.st3{fill:#FFFFFF;stroke:#000000;stroke-width:0.5;stroke-miterlimit:10;}
	.st4{fill:#EB058C;stroke:#000000;stroke-width:0.5;stroke-miterlimit:10;}
	.st5{fill:#B70272;stroke:#000000;stroke-width:0.5;stroke-miterlimit:10;}
	.st6{fill:#EB058C;stroke:#000000;stroke-width:0.5;stroke-linejoin:round;}
	.st7{fill:#E5E5E5;stroke:#000000;stroke-width:0.5;stroke-miterlimit:10;}
	.st8{fill:#0077BF;stroke:#000000;stroke-width:0.5;stroke-miterlimit:10;}
	.st9{fill:#1A1A1A;}
	.st10{fill:#C10072;stroke:#000000;stroke-width:0.5;stroke-miterlimit:10;}
	.st11{fill:none;stroke:#000000;stroke-width:0.5;stroke-miterlimit:10;}
	.st12{fill:#FFE600;stroke:#000000;stroke-width:0.5;stroke-miterlimit:10;}
	.st13{enable-background:new    ;}
	.st14{fill:#FFFFFF;stroke:#000000;stroke-miterlimit:10;}
	.st15{fill:#848484;stroke:#000000;stroke-width:0.5;stroke-miterlimit:10;}
</style>
<title>Ind</title>
<g id="Layer_7">
	<path class="st0" d="M615.5,679.3C768.8,660.4,855.9,561.5,866,489.7c26-185-85.5-300.9-154-365C614.5,33.5,458.5-4.2,386.3,0.4
		c-164.9,10.6-270.6,119-270.6,119C-86,313.6,64,517,64,517c95.8,165.1,258.1,100,258.1,100s90.7-27.8,128.1-1.4
		S519.4,678,615.5,679.3z"/>
</g>
<ellipse class="st1" cx="412.1" cy="654.8" rx="127.7" ry="24"/>
<path class="st2" d="M465.7,309c18.5,9.2,42-19.2,42-19.2s12.3-6.9,11.4-18.4c0,0-5,9.8-21.2-2.8c-8.1-6.4-12.1-16.4-18.3-24.6
	c0,0-11.4-14.4-28.5-18.8c0,0-13.2-5.1-28.8,3.7c0,0-14.5,7.6-14.9,23.5c0,0-2.7,19.7,16.5,35.2c3.9,3,7.1,6.8,9.6,11l29,8.3"/>
<path class="st3" d="M422.5,430.2c0,0,33.1,167.5,36.9,202.4l11.5,5.5l-4.6-216.3C466.4,421.8,436,389.4,422.5,430.2z"/>
<path class="st3" d="M423.9,438.5c0,0-55.5,169.2-64.6,203.1l-10.8,1.8l33.4-219.8C381.9,423.6,416.9,396.2,423.9,438.5z"/>
<path class="st4" d="M459.4,632.6l-1.8,22.2h3.4l2.5-9.8l6.1,9.8h34.2c-13.2-2.7-26.9-11.3-33-23.3l-2.5-117.9l-23.9,27.8
	L459.4,632.6z"/>
<path class="st4" d="M350.4,630.8c-6.1,12-19.5,21.2-32.7,24h34.2l6.1-9.8l2.5,9.8h3.4l-1.3-23.3l31.1-100l-23.5-30.9L350.4,630.8z"
	/>
<path class="st5" d="M535.1,335.2c0,0-47.3,58.5-115.4,46.3c-68.7-12.4-96.2-66.8-96.2-66.8s11.1,3,20.9-12.6
	c7.8-12.4,21.4-19.5,46-19.5c0.9-0.1,1.7-0.4,2.5-0.8l43.4,42.2l36.5-34.6c0,0,20.4,3.4,30.8,15.8S513.8,335.2,535.1,335.2z"/>
<path class="st6" d="M392.8,281.8c0,0-30-1.6-42.3,12.2c-10.7,12-13.9,20.8-27.1,20.7c0,0,6.4,6.1,16.5,2.6S357.7,281.5,392.8,281.8
	z"/>
<path class="st6" d="M472.6,289.4c0,0,24.2-7.6,35.4,11.7c11.2,19.3,12.9,32.2,27.1,34c0,0-21.2,2.5-28-14.2
	C500.3,304.2,488,288.2,472.6,289.4z"/>
<polygon class="st3" points="490.1,266.9 502.8,215.1 511,217.7 505.1,273.6 459.1,329.9 447.4,309 "/>
<polygon class="st3" points="381.5,263.5 381.5,210.2 372.9,210.7 365.4,266.4 396.1,333.8 413,314.6 "/>
<path class="st3" d="M404.9,297.2c0,0,17.4,1.9,20.2-5.5s-1.4-11.5-1.4-11.5l16.5-2.2c0,0-2.3,16.4,10.3,18.7
	c0,0,11.2,27.8,8.1,40.8c-5.2,21.9-26.8,34-36.1,35.9c-8.9,1.9-28-19.4-30.1-40.9C391,318.5,405.6,303.7,404.9,297.2z"/>
<polygon class="st7" points="493.9,251.6 502.8,215.1 511,217.7 507.1,254 "/>
<polygon class="st7" points="381.5,247.7 381.5,210.2 372.9,210.7 368.1,246.9 "/>
<path class="st3" d="M381.5,210.2c0,0,7.8-10.7,4.6-10.3c-0.7,0.1-2.4,1.4-2.7,1.1c-1.1-1.1-0.8-3.9-2.4-8.2c-2-5.2-9.2-2.6-8.1,18
	L381.5,210.2z"/>
<path class="st8" d="M457.2,382.6c4.4,10,33.4,54.2,33.4,54.2s-26.8,23.9-59,24.6s-67-25-67-25s29.2-50,28.4-55
	C393,381.5,420.3,398.4,457.2,382.6z"/>
<path class="st3" d="M442.7,277.3c-4.3,3.5-9.7,6.6-15.1,5.4c-4-0.9-7.1-4-9.4-7.4c-1.8-2.7-3.3-5.5-4.3-8.6c-1.2-2.5-1-3.4-1.5-6.2
	c-0.4-4,0-8.1,1.2-11.9c2-6.2,4.2-11.6,9.4-15.5c3.1-2,6.6-3.5,10.2-4.3c2.6-0.9,5.3-1.3,8.1-1.4c2.3,0.1,4.6,0.7,6.7,1.6
	c6,2.5,11,7,13.9,12.9C469.2,257.4,454.1,268,442.7,277.3z"/>
<path class="st9" d="M413.3,267.9l-3.4-5.9l1.2-12.9l9.5-16l11.5-7.2l14.3,0.9l10.9,5.4l10,17.5l-3.6,15.6l-6.4,8.8
	c-6.2-12.2-8.9-25.9-7.6-39.5c0,0-14.7-4.5-20.9-4.5C428.7,230.2,403.8,243.5,413.3,267.9z"/>
<path class="st3" d="M435.9,245.5c5.9-3,7.7-0.3,10.8,2.4"/>
<path class="st3" d="M426.7,243c-1.9-2.1-4.8-1.7-7.6-1.2"/>
<path class="st3" d="M432,255c-1-0.5-2-1.1-2.9-1.8c-0.2-0.1-0.4-0.3-0.6-0.6c-0.2-0.6-0.1-1.4,0.3-1.9l1.6-3.2"/>
<path class="st3" d="M431.1,267.8c-0.8,0.2-1.5,0.4-2.3,0.7c-0.2,0.2-0.5,0.3-0.7,0.4c-1.1,0.2-2.2-0.4-2.5-1.5
	c-0.3-1-0.5-2.1-0.7-3.1c-0.4-0.8-0.6-1.7-0.9-2.6c-0.1-0.2,0-0.5,0-0.7c0.2-0.4,0.8-0.5,1.3-0.4c3.4,0.4,6.7,1.5,9.6,3.2
	c0.1,0.1,0.2,0.1,0.3,0.2c0.4,0.6-0.9,1.9-1.2,2.3C433.2,267,432.2,267.5,431.1,267.8z"/>
<path class="st10" d="M425.8,269.6c0.9,0.6,2.1,0.7,3.1,0.4c1.1-0.3,2.1-0.8,2.9-1.4c0.7-0.5,1.4-1,2-1.5c0.5-0.4,1-0.8,1.4-1.3
	s0.6-1.1,0.5-1.7c-1,0.9-2.2,1.7-3.4,2.2c-1.6,0.8-3.5,1.2-5.3,1c-0.6-0.1-1.5-0.6-2.1,0S425.2,269.1,425.8,269.6z"/>
<path class="st10" d="M423.4,259.7c2.2-0.7,4.5-0.5,6.6,0.4s4,2.1,5.8,3.5c0.1,0.1,0.2,0.2,0.2,0.3c-0.1,0.1-0.2,0.2-0.4,0.1
	c-2.1,0.1-4.1-0.9-6.2-1.6c-1.6-0.5-3.4-0.7-5.1-0.6C423,262,421.4,260.4,423.4,259.7z"/>
<ellipse transform="matrix(0.3915 -0.9202 0.9202 0.3915 39.0241 556.2623)" class="st2" cx="440.1" cy="248.6" rx="2" ry="1.6"/>
<path class="st11" d="M436.2,248c0,0,4-3.2,6.5,0s4.7,2.5,4.7,2.5"/>
<ellipse transform="matrix(0.9999 -1.535801e-02 1.535801e-02 0.9999 -3.7263 6.5251)" class="st2" cx="423" cy="245.9" rx="1.6" ry="2"/>
<path class="st11" d="M426.7,247.4c0,0-1.6-4.9-5.5-3.5s-5.3-0.4-5.3-0.4"/>
<path class="st12" d="M416.6,239.9c5.1-1.6,10.7-1.1,15.4,1.4c7.2-2.7,12.4-1,17.4,4.3c0,0,0-7.3,0.3-12.3
	c-3.4-2.3-11.1-2.5-14.5-7.4c-3.3,3.3-7.7,3.8-11.9,4.3C423.3,230.2,416.1,234.5,416.6,239.9z"/>
<path class="st4" d="M457.2,382.6c0,0-8.8-18.1-6.6-23.5s7.3-14,8.1-21.5s-15.9-20.4-34.7-8.6c0,0-20.4-16.4-32.2,4.7
	c0,0,3.6,16.7,5.4,23.6s-4.1,24.1-4.1,24.1S420,398.5,457.2,382.6z"/>
<path class="st12" d="M397.1,357.3c0,0,0.4,1.7,4.4,1.7s18.5-1.7,21.7,5.3c0,0,4.7-7.1,16.7-4.9s10.6-0.2,10.6-0.2
	c0.8,2.1,0.9,4.4,0.3,6.5c0,0-21.5-0.4-27.5,5.8c-7.7-5.2-16.9-7.5-26.1-6.7C396.5,362.3,396.6,359.8,397.1,357.3z"/>
<path class="st12" d="M402.8,323.3c-0.3,3.8,4.2,7.6,4.2,7.6c-0.3,3.8,3.3,5.3,3.3,5.3c0.2,2.2,2.8,3.8,4.3,4.6s3.7,9.1,3.7,9.1
	c1.7-1.1,4.1-5.5,4.1-5.5c0.1,1.4,3.7,6.1,3.7,6.1s2.3-8.2,5.2-9.6c1.8-0.8,3.2-2.3,3.9-4.1c3.7-1.5,4.1-5.7,4.1-5.7
	c3.7-1.1,3.8-7.1,3.8-7.1s-12.4-1.5-19.1,5C423.9,329,413.2,320.4,402.8,323.3z"/>
<path class="st4" d="M425.7,310.8c-6.2-1.1-20.5,23.3-37.6,17.2s4.7-46.2,4.7-46.2c2.2,3.1,9.3,6.2,16,8.8
	c2.2,0.9,10.6,5.5,10.6,5.5c0.6,4.8-0.2,9.8,8.2,9.8c11,0,23-9.2,23-9.2s6.2-0.3,8.1-1.1c5.3-2.1,6.5-4.5,12.3-9.8
	c0,0,10.9,46.2-13.9,44.8C447.6,330.2,438.4,312.9,425.7,310.8z"/>
<circle class="st12" cx="425.4" cy="308.5" r="3.2"/>
<path class="st3" d="M502.8,215.1c0,0-5-12.3-2-11.1c0.6,0.2,2,1.9,2.4,1.7c1.4-0.8,1.7-3.6,4.3-7.4c3.2-4.6,9.5-0.3,3.6,19.4
	L502.8,215.1z"/>
<path class="st8" d="M260.1,295.7l20-6.2c7.8-2.4,16.1,1.9,18.6,9.7l6.2,20c2.4,7.8-1.9,16.1-9.7,18.6l-20,6.2
	c-7.8,2.4-16.1-1.9-18.6-9.7l-6.2-20C248,306.5,252.3,298.2,260.1,295.7z"/>
<path class="st3" d="M296.7,320.7l-6.8-3.6c-1.4-0.7-3.1-0.1-3.8,1.3l-1.8,3.4l-0.6-0.1c-2.7-0.5-5.3-1.3-7.7-2.6
	c-2.4-1.3-4.6-2.9-6.5-4.9l-0.4-0.4l1.2-2.3l0.6-1.1c0.8-1.4,0.3-3.1-1.1-3.8L263,303c-1.4-0.7-3.1-0.1-3.8,1.3l-1,1.9l0,0
	c-0.3,0.8-0.5,1.6-0.5,2.5c-0.1,0.8,0,1.6,0.1,2.3c1.1,5.9,5.3,10.2,14.5,15.1c12.7,6.7,20.3,3.5,20.6,3.4c0.7-0.3,1.4-0.7,2-1.2
	c0.7-0.5,1.2-1.2,1.7-1.9l0,0l1-1.9C298.6,323.1,298.1,321.4,296.7,320.7L296.7,320.7z"/>
<g class="st13">
	<path d="M268.8,353.5l-3.3,1l2.7,8.6l-1.3,0.5l-2.7-8.6l-3.3,1l-0.4-1.1l7.8-2.5L268.8,353.5z"/>
</g>
<g class="st13">
	<path d="M273.9,361.7c-2.1,0.7-3.8-0.3-4.5-2.6c-0.7-2.3,0.1-4.3,2.1-4.9c2.3-0.7,3.8,0.8,4.4,2.9l0.1,0.2l-5.3,1.7v0.1
		c0.5,1.5,1.6,2.2,3,1.7c1-0.3,1.4-0.9,1.4-2.1l1.1-0.4C276.4,360,275.6,361.1,273.9,361.7z M271.8,355.1c-1.1,0.4-1.7,1.4-1.4,2.8
		l4.1-1.3C273.9,355.3,272.9,354.8,271.8,355.1z"/>
	<path d="M279.5,359.7l-1.2,0.4l-3.1-9.8l1.2-0.4L279.5,359.7z"/>
	<path d="M284.3,358.4c-2.1,0.7-3.8-0.3-4.5-2.6c-0.7-2.3,0.1-4.3,2.1-4.9c2.3-0.7,3.8,0.8,4.4,2.9l0.1,0.2l-5.3,1.7v0.1
		c0.5,1.5,1.6,2.2,3,1.7c1-0.3,1.4-0.9,1.4-2.1l1.1-0.4C286.8,356.7,286,357.9,284.3,358.4z M282.2,351.8c-1.1,0.4-1.7,1.4-1.4,2.8
		l4.1-1.3C284.4,352,283.4,351.5,282.2,351.8z"/>
	<path d="M291.7,356c-2.2,0.7-3.8-0.4-4.5-2.6c-0.7-2.4,0.1-4.3,2.2-4.9c1.7-0.5,3.1,0,3.8,1.6l-1.2,0.4c-0.5-0.9-1.3-1.3-2.3-1
		c-1.3,0.4-1.9,1.8-1.3,3.5c0.5,1.7,1.7,2.5,3,2.1c1.1-0.3,1.6-1.2,1.4-2.4l1.2-0.4C294.3,354,293.5,355.5,291.7,356z"/>
	<path d="M301.4,348.8c0.8,2.4,0,4.2-2.2,4.9c-2.2,0.7-3.9-0.3-4.6-2.6c-0.7-2.3,0.1-4.2,2.3-4.9S300.7,346.5,301.4,348.8z
		 M295.8,350.6c0.6,1.7,1.7,2.5,3.1,2.1s1.9-1.7,1.3-3.5c-0.5-1.7-1.7-2.5-3.1-2.1S295.2,348.9,295.8,350.6z"/>
	<path d="M303.1,345.5c0.3-1,0.9-1.6,1.9-1.9c0.9-0.3,1.7-0.1,2.3,0.6c0.3-1,0.9-1.6,2-2c1.5-0.5,2.5,0.2,3,1.6l1.6,5l-1.2,0.4
		l-1.4-4.5c-0.3-1-0.7-1.7-2-1.3c-1.3,0.4-1.5,1.5-1.1,2.8l1.3,4l-1.2,0.4l-1.4-4.5c-0.3-0.9-0.7-1.6-1.8-1.3
		c-1.6,0.5-1.6,1.7-1.1,3.1l1.2,3.7L304,352l-2.2-7.1l1.1-0.3L303.1,345.5z"/>
</g>
<path class="st4" d="M556.3,232.3l5.1-20.3c2-7.9,10.1-12.8,18-10.8l20.3,5.1c7.9,2,12.8,10.1,10.8,18l-5.1,20.3
	c-2,7.9-10.1,12.8-18,10.8l-20.3-5.1C559.2,248.3,554.3,240.2,556.3,232.3z"/>
<path class="st3" d="M601,221.8l-9.9-2.5l0.6-2.3c0.4-1.5-0.5-2.9-2-3.3l0,0l-5.8-1.5c-1.5-0.4-2.9,0.5-3.3,2l0,0l-0.6,2.3l-9.9-2.5
	c-0.9-0.2-1.8,0.3-2,1.2l-5.3,20.8c-0.2,0.9,0.3,1.8,1.2,2l30.8,7.8c0.9,0.2,1.8-0.3,2-1.2l5.3-20.8
	C602.4,222.9,601.8,222.1,601,221.8L601,221.8z M583.3,214.9l5.7,1.4l-0.6,2.2l-5.7-1.4L583.3,214.9z M580,239.7
	c-5.4-1.4-8.7-6.9-7.3-12.3c1.4-5.4,6.9-8.7,12.3-7.3c5.4,1.4,8.7,6.9,7.3,12.3C590.9,237.8,585.4,241.1,580,239.7L580,239.7z"/>
<path class="st3" d="M588,228.8l-2.6-0.7l0.7-2.6c0.2-0.7-0.3-1.4-1-1.6l0,0l-2-0.5c-0.7-0.2-1.4,0.3-1.6,1l0,0l-0.7,2.6l-2.6-0.7
	c-0.7-0.2-1.4,0.3-1.6,1l0,0l-0.5,2.1c-0.2,0.7,0.3,1.4,1,1.6l0,0l2.6,0.7l-0.7,2.6c-0.2,0.7,0.3,1.4,1,1.6l0,0l2.1,0.5
	c0.7,0.2,1.4-0.3,1.6-1l0,0l0.7-2.6l2.6,0.7c0.7,0.2,1.4-0.3,1.6-1l0,0l0.5-2C589.2,229.8,588.8,229.1,588,228.8
	C588.1,228.9,588,228.9,588,228.8L588,228.8z"/>
<g class="st13">
	<path d="M550.1,261.6l-1.3-0.3l1.2-4.7l-5.3-1.3l-1.2,4.7l-1.3-0.3l2.5-10l1.3,0.3l-1,4.2l5.3,1.3l1-4.2l1.3,0.3L550.1,261.6z"/>
	<path d="M555,263.1c-2.1-0.5-3.1-2.3-2.5-4.6c0.6-2.3,2.3-3.6,4.3-3.1c2.4,0.6,2.8,2.7,2.3,4.8v0.2l-5.4-1.4v0.1
		c-0.4,1.5,0.2,2.7,1.6,3c1,0.3,1.7,0,2.3-1.1l1.2,0.3C558,263,556.7,263.5,555,263.1z M556.6,256.4c-1.2-0.3-2.2,0.3-2.7,1.7
		l4.2,1.1C558.4,257.7,557.8,256.7,556.6,256.4z"/>
	<path d="M566,265.6c-0.3,0-0.6,0-0.8-0.1c-0.7-0.2-0.9-0.6-0.8-1.3c-0.9,0.6-1.8,0.8-2.9,0.5c-1.4-0.4-2.1-1.4-1.8-2.6
		c0.3-1.3,1.4-1.8,3.1-1.6c1.8,0.2,2.4,0.4,2.6-0.6c0.2-0.8-0.3-1.3-1.3-1.6c-1.1-0.3-1.8,0-2.2,1l-1.2-0.3c0.4-1.5,1.8-2.2,3.6-1.7
		c1,0.2,1.7,0.7,2.1,1.3c0.4,0.6,0.2,1.4,0,2c-0.3,1.1-0.6,2.1-0.9,3.2c-0.1,0.5-0.1,0.7,0.3,0.8c0.1,0,0.2,0,0.3,0L566,265.6z
		 M563.3,261.4c-0.9-0.1-2.1-0.3-2.4,0.9c-0.2,0.7,0.2,1.3,1.1,1.6c1.1,0.3,2.4-0.2,2.6-1.1l0.3-1.3
		C564.5,261.6,563.9,261.5,563.3,261.4z"/>
	<path d="M568.4,266.2l-1.2-0.3l2.5-10l1.2,0.3L568.4,266.2z"/>
	<path d="M574.9,261.2l-1.4-0.4l-1.1,4.2c-0.2,0.7-0.3,1.1,0.5,1.3c0.2,0.1,0.4,0.1,0.7,0.1l-0.3,1c-0.4-0.1-0.5-0.1-0.9-0.2
		c-1.8-0.5-1.5-1.3-1.1-2.9l1-3.8l-1.2-0.3l0.2-1l1.2,0.3l0.5-2.1l1.2,0.3l-0.5,2.1l1.4,0.4L574.9,261.2z"/>
	<path d="M577.4,261.9c0.7-0.7,1.6-0.9,2.7-0.6c1.7,0.4,2.2,1.6,1.8,3.1l-1.2,4.9l-1.2-0.3l1.2-4.7c0.2-1,0.1-1.8-1.2-2.1
		c-1.5-0.4-2.3,0.6-2.7,2.2l-0.9,3.7l-1.2-0.3l2.5-10l1.2,0.3L577.4,261.9z"/>
	<path d="M585.4,270.7c-2.2-0.6-3-2.4-2.5-4.6c0.6-2.4,2.3-3.6,4.5-3c1.8,0.4,2.6,1.6,2.4,3.3l-1.2-0.3c0-1.1-0.4-1.8-1.4-2
		c-1.4-0.3-2.5,0.5-3,2.3c-0.4,1.8,0.1,3,1.4,3.4c1.1,0.3,2-0.2,2.4-1.4l1.2,0.3C588.7,270.3,587.2,271.2,585.4,270.7z"/>
	<path d="M596.4,273.2c-0.3,0-0.6,0-0.8-0.1c-0.7-0.2-0.9-0.6-0.8-1.3c-0.9,0.6-1.8,0.8-2.9,0.5c-1.4-0.4-2.1-1.4-1.8-2.6
		c0.3-1.3,1.4-1.8,3.1-1.6c1.8,0.2,2.4,0.4,2.6-0.6c0.2-0.8-0.3-1.3-1.3-1.6c-1.1-0.3-1.8,0-2.2,1l-1.2-0.3c0.4-1.5,1.8-2.2,3.6-1.7
		c1,0.2,1.7,0.7,2.1,1.3c0.4,0.6,0.2,1.4,0,2c-0.3,1.1-0.6,2.1-0.9,3.2c-0.1,0.5-0.1,0.7,0.3,0.8c0.1,0,0.2,0,0.3,0L596.4,273.2z
		 M593.7,269c-0.9-0.1-2.1-0.3-2.4,0.9c-0.2,0.7,0.2,1.3,1.1,1.6c1.1,0.3,2.4-0.2,2.6-1.1l0.3-1.3
		C594.9,269.2,594.2,269.1,593.7,269z"/>
</g>
<g class="st13">
	<path d="M602.8,268.3c-0.1,0-0.2-0.1-0.3-0.1c-2-0.5-2.7,0.9-3.1,2.5l-0.8,3.1l-1.2-0.3l1.8-7.2l1.1,0.3l-0.4,1.6
		c0.8-1.1,1.8-1.4,3.1-1L602.8,268.3z"/>
</g>
<g class="st13">
	<path d="M604.9,275.6c-2.1-0.5-3.1-2.3-2.5-4.6c0.6-2.3,2.3-3.6,4.3-3.1c2.4,0.6,2.8,2.7,2.3,4.8v0.2l-5.4-1.4v0.1
		c-0.4,1.5,0.2,2.7,1.6,3c1,0.3,1.7,0,2.3-1.1l1.2,0.3C607.9,275.5,606.6,276.1,604.9,275.6z M606.5,268.9c-1.2-0.3-2.2,0.3-2.7,1.7
		l4.2,1.1C608.2,270.2,607.7,269.2,606.5,268.9z"/>
</g>
<path class="st4" d="M289,207.2l20.3-5c8-2,16,2.9,17.9,10.9l5,20.3c2,8-2.9,16-10.9,17.9l-20.3,5c-8,2-16-2.9-17.9-10.9l-5-20.3
	C276.1,217.1,281,209.1,289,207.2z"/>
<path class="st3" d="M306.8,230.6l1.1,4.9c1.5-0.4,2.9-1.5,2.5-3.1S308.2,230.6,306.8,230.6L306.8,230.6z"/>
<path class="st3" d="M301.1,225.7c0.3,1.2,1.4,1.7,3.3,1.7l-1-4.4C301.8,223.4,300.9,224.6,301.1,225.7L301.1,225.7z"/>
<path class="st3" d="M302.1,214.4c-8.2,1.9-13.4,10.2-11.4,18.4c1.9,8.2,10.2,13.4,18.4,11.4c8.2-1.9,13.4-10.2,11.4-18.4l0,0
	C318.6,217.6,310.4,212.5,302.1,214.4z M308.5,238l0.4,1.5c0.2,0.4,0,0.8-0.4,1s-0.8,0-1-0.4c0-0.1,0-0.2-0.1-0.2l-0.4-1.5
	c-4.2,0.9-6.9-1.1-7.3-3.1c-0.3-0.8,0.2-1.6,0.9-1.9c0.1,0,0.2-0.1,0.3-0.1c2.8-0.6,1.4,3.3,5.6,2.5l-1.2-5.2
	c-3.8,0.2-6.4-0.9-7.1-3.6c-0.8-3.4,1.6-5.7,4.7-6.6l-0.3-1.3c-0.2-0.4,0-0.8,0.4-1s0.8,0,1,0.4c0,0.1,0,0.2,0.1,0.2l0.3,1.3
	c1.9-0.4,6.2-0.1,6.7,2.3c0.2,0.8-0.3,1.6-1.1,1.9h-0.1c-1.6,0.4-2.2-2.3-5-1.7l1.1,4.7c3.4-0.1,6.5,0.2,7.4,4
	C314.2,234.6,312.2,236.8,308.5,238L308.5,238z"/>
<g class="st13">
	<path d="M295.7,263.3l-5.2,1.3l0.8,3.1l4.6-1.1l0.3,1.1l-4.6,1.1l1.1,4.6l-1.3,0.3l-2.5-10l6.6-1.6L295.7,263.3z"/>
	<path d="M298.3,263l-1.2,0.3l-0.4-1.5l1.2-0.3L298.3,263z M300.4,271.5l-1.2,0.3l-1.8-7.2l1.2-0.3L300.4,271.5z"/>
	<path d="M301.8,264.7c0.4-1,1-1.7,2.1-1.9c1.8-0.4,2.7,0.4,3.1,2l1.2,4.8l-1.2,0.3l-1-4.3c-0.3-1.2-0.6-2.1-2.1-1.8
		c-1.6,0.4-1.8,1.7-1.4,3.1l0.9,3.8l-1.2,0.3l-1.8-7.2l1.1-0.3L301.8,264.7z"/>
</g>
<g class="st13">
	<path d="M315,258.6l-3.4,0.8l2.2,8.8l-1.3,0.3l-2.2-8.8l-3.4,0.8l-0.3-1.2l8-2L315,258.6z"/>
</g>
<g class="st13">
	<path d="M319.6,267.1c-2.1,0.5-3.8-0.6-4.3-2.9c-0.6-2.3,0.4-4.3,2.4-4.8c2.4-0.6,3.7,1.1,4.3,3.2v0.2l-5.4,1.3v0.1
		c0.4,1.5,1.5,2.3,2.9,1.9c1-0.3,1.5-0.8,1.6-2l1.2-0.3C322.2,265.5,321.3,266.6,319.6,267.1z M317.9,260.4
		c-1.2,0.3-1.8,1.3-1.6,2.7l4.2-1C320.1,260.7,319.1,260.1,317.9,260.4z"/>
	<path d="M327.2,265.2c-2.2,0.6-3.8-0.7-4.4-2.9c-0.6-2.4,0.4-4.3,2.5-4.8c1.8-0.4,3.1,0.2,3.7,1.8l-1.2,0.3c-0.5-1-1.2-1.4-2.2-1.1
		c-1.4,0.3-2,1.6-1.5,3.4c0.4,1.8,1.5,2.6,2.9,2.3c1.1-0.3,1.6-1.1,1.5-2.3l1.2-0.3C329.9,263.3,329,264.7,327.2,265.2z"/>
	<path d="M331.3,257.3c0.3-0.9,1-1.5,2.1-1.8c1.7-0.4,2.7,0.4,3,1.9l1.2,5l-1.2,0.3l-1.1-4.7c-0.2-1-0.7-1.6-2-1.3
		c-1.5,0.4-1.8,1.6-1.4,3.2l0.9,3.7l-1.2,0.3l-2.5-10l1.2-0.3L331.3,257.3z"/>
</g>
<path class="st8" d="M563.7,316.5l7.9-19.4c3.1-7.6,11.7-11.2,19.3-8.1l19.4,7.9c7.6,3.1,11.2,11.7,8.1,19.3l-7.9,19.4
	c-3.1,7.6-11.7,11.2-19.3,8.1l-19.4-7.9C564.3,332.7,560.7,324.1,563.7,316.5z"/>
<path class="st3" d="M609.5,323.9c-0.8-1.2-2-2.1-3.3-2.6c-2.4-1-4.7-0.8-5.7,0.3l-0.2-0.1c0.1-1.5-1.5-3.3-3.8-4.3
	c-1.3-0.6-2.8-0.8-4.2-0.5l-4.5,11.1c-1.1,2.8-4.3,4.1-7,3c-2.8-1.1-4.1-4.3-3-7c0.2-0.6,0.9-0.9,1.6-0.7c0.6,0.2,0.9,0.9,0.7,1.6
	c-0.6,1.5,0.1,3.3,1.7,3.9c1.5,0.6,3.3-0.1,3.9-1.7l4.5-11.1c-0.8-1.2-2-2.1-3.3-2.6c-2.4-1-4.7-0.8-5.7,0.4l-0.2-0.1
	c0.1-1.5-1.5-3.3-3.8-4.3c-1.3-0.6-2.8-0.8-4.2-0.5c3.9-7.6,13.9-10.8,23.3-7.5l0.3-0.8c0.2-0.6,0.9-0.9,1.6-0.7
	c0.6,0.2,0.9,0.9,0.7,1.6l-0.3,0.8C607.1,306.5,612,315.8,609.5,323.9L609.5,323.9z"/>
<g class="st13">
	<path d="M549,340.6l-1.3-0.5l3.9-9.5l1.3,0.5L549,340.6z"/>
	<path d="M554.4,336c0.9-0.6,1.8-0.7,2.9-0.3c1.7,0.7,1.9,1.9,1.3,3.4l-1.9,4.6l-1.1-0.5l1.7-4.1c0.4-1.1,0.8-2.1-0.7-2.6
		c-1.5-0.6-2.4,0.3-3,1.7l-1.5,3.6l-1.1-0.5l2.8-6.9l1.1,0.4L554.4,336z"/>
	<path d="M564.4,341.1c0.3-0.9-0.2-1.5-1.2-1.9c-0.9-0.4-1.6-0.2-1.8,0.4c-0.3,0.8,0.5,1.3,1.4,1.9c1.1,0.7,2.4,1.7,1.8,3.2
		c-0.5,1.3-2,1.8-3.8,1.1c-1.9-0.8-2.6-2-2-3.6l1.1,0.5c-0.4,1.1,0.2,1.8,1.3,2.2c1,0.4,1.9,0.2,2.2-0.5c0.3-0.8-0.4-1.2-1.3-1.9
		c-1.1-0.8-2.6-1.6-2-3.2c0.5-1.2,1.9-1.6,3.5-1s2.5,1.9,1.9,3.3L564.4,341.1z"/>
	<path d="M570.8,349.5l-1.1-0.4l0.4-1.1c-1,0.6-1.9,0.7-2.9,0.3c-1.4-0.6-2-1.8-1.3-3.3l1.9-4.8l1.1,0.5l-1.8,4.4
		c-0.4,1-0.4,1.8,0.8,2.2c1.5,0.6,2.5-0.2,3-1.7l1.5-3.6l1.1,0.5L570.8,349.5z"/>
	<path d="M578.5,345.8c-0.1-0.1-0.2-0.1-0.3-0.1c-1.9-0.8-2.8,0.5-3.4,2.1l-1.2,2.9l-1.1-0.5l2.8-6.9l1.1,0.4l-0.6,1.5
		c1-1,2-1.1,3.2-0.6L578.5,345.8z"/>
	<path d="M583.1,354.5c-0.3,0-0.6-0.1-0.8-0.2c-0.6-0.3-0.8-0.8-0.6-1.4c-1,0.5-1.9,0.5-2.9,0.1c-1.4-0.6-1.9-1.6-1.4-2.9
		c0.5-1.2,1.6-1.6,3.3-1.2c1.7,0.5,2.3,0.7,2.7-0.2c0.3-0.7-0.1-1.4-1.1-1.8c-1.1-0.4-1.8-0.3-2.3,0.7l-1.1-0.5
		c0.6-1.5,2.1-1.9,3.8-1.2c0.9,0.4,1.6,0.9,1.9,1.6c0.3,0.7,0,1.4-0.3,2c-0.4,1-0.9,2-1.3,3.1c-0.2,0.5-0.2,0.7,0.2,0.9
		c0.1,0,0.2,0.1,0.3,0.1L583.1,354.5z M581,349.9c-0.9-0.2-2-0.6-2.5,0.5c-0.3,0.7,0.1,1.4,0.9,1.7c1.1,0.4,2.4,0.1,2.8-0.8l0.5-1.3
		C582.2,350.3,581.6,350.1,581,349.9z"/>
	<path d="M587.6,349.5c0.9-0.6,1.8-0.7,2.9-0.3c1.7,0.7,1.9,1.9,1.3,3.4l-1.9,4.6l-1.1-0.5l1.7-4.1c0.4-1.1,0.8-2.1-0.7-2.6
		c-1.5-0.6-2.4,0.3-3,1.7l-1.5,3.6l-1.1-0.5l2.8-6.9l1.1,0.4L587.6,349.5z"/>
	<path d="M594.4,359.4c-2.1-0.9-2.7-2.8-1.8-4.9c0.9-2.3,2.8-3.2,4.8-2.4c1.7,0.7,2.4,2,1.9,3.6l-1.2-0.5c0.2-1.1-0.2-1.8-1.1-2.2
		c-1.3-0.5-2.6,0.2-3.2,1.8c-0.7,1.7-0.3,3,1,3.5c1,0.4,2,0.1,2.6-1l1.2,0.5C597.7,359.4,596.2,360.1,594.4,359.4z"/>
	<path d="M601.6,362.3c-2-0.8-2.7-2.7-1.8-4.9c0.9-2.2,2.8-3.2,4.7-2.4c2.3,0.9,2.4,3.1,1.6,5.1l-0.1,0.2l-5.2-2.1v0.1
		c-0.6,1.5-0.1,2.7,1.2,3.2c1,0.4,1.7,0.2,2.5-0.7l1.1,0.5C604.6,362.6,603.2,363,601.6,362.3z M604.1,355.9c-1.1-0.5-2.2,0-2.9,1.3
		l4,1.6C605.7,357.4,605.3,356.3,604.1,355.9z"/>
</g>
<path class="st8" d="M516.2,144.8l6.4-19.9c2.5-7.8,10.8-12.1,18.6-9.6l19.9,6.4c7.8,2.5,12.1,10.8,9.6,18.6l-6.4,19.9
	c-2.5,7.8-10.8,12.1-18.6,9.6l-19.9-6.4C518,161,513.7,152.6,516.2,144.8z"/>
<path class="st3" d="M561.2,146.6l-2-4.9l-1.8-10.2c-0.2-0.9-0.8-1.7-1.8-2l-14.3-4.6c-0.9-0.3-1.9-0.1-2.6,0.6l-7.5,7.2l-4.4,2.8
	c-0.7,0.6-1.3,1.4-1.5,2.3l-3.6,11.2c-0.3,1,0.2,2.2,1.3,2.5l2.8,0.9c1,0.3,2.1-0.2,2.5-1.3l1.2-3.6l22.7,7.3l-1.2,3.6
	c-0.3,1,0.2,2.1,1.3,2.5l2.8,0.9c1,0.3,2.2-0.2,2.5-1.3l3.6-11.3C561.5,148.4,561.5,147.5,561.2,146.6L561.2,146.6z M535.4,131.7
	l4.2-4.4c0.6-0.6,1.4-0.8,2.2-0.6l12.5,4c0.8,0.2,1.4,0.9,1.5,1.7l0.9,6.1c0,0.2-0.1,0.5-0.2,0.6c-0.2,0.2-0.4,0.2-0.7,0.1l-8.8-2.9
	l6-2.9c0.2-0.1,0.3-0.3,0.2-0.5s-0.3-0.3-0.5-0.2L546,136l0,0l-10.2-3.3c-0.4-0.1-0.6-0.5-0.5-0.9
	C535.2,131.8,535.3,131.7,535.4,131.7L535.4,131.7z M532.5,143.8l-4.1-1.3c-0.7-0.2-1.2-1-0.9-1.8l0,0c0.2-0.8,0.9-2.3,1.6-1.9
	c1.1,0.5,3.2,1.8,4.3,2.4c0.7,0.3,1.1,1,0.9,1.8C534,143.6,533.2,144,532.5,143.8L532.5,143.8z M547.2,147.9
	c-0.2,0.3-0.5,0.4-0.8,0.3l-8.4-2.7c-0.3-0.1-0.5-0.4-0.5-0.7c0-1,0-1.9,0.1-2.9c0.2-0.5,0.7-0.7,1.1-0.6l9.4,3
	c0.5,0.1,0.7,0.6,0.6,1.1l0,0C548.3,146.3,547.8,147.1,547.2,147.9L547.2,147.9z M556,151.4l-4.1-1.4c-0.7-0.2-1.2-1-0.9-1.8l0,0
	c0.2-0.7,0.9-1,1.8-0.9c1.2,0.2,3.7,0.3,4.9,0.6c0.8,0.2,0.4,1.8,0.2,2.5C557.6,151.1,556.8,151.6,556,151.4
	C556,151.3,556,151.3,556,151.4L556,151.4z"/>
<g class="st13">
	<path d="M508.4,171.6l-1.5-0.4l-0.2-3.3l-4.1-1.2l-2,2.7l-1.4-0.4l6.8-8.7l1.5,0.4L508.4,171.6z M506.3,161.6l-3.1,4.1l3.4,1
		L506.3,161.6z"/>
	<path d="M515.1,173.6l-1.1-0.3l0.3-1.1c-0.9,0.7-1.8,0.9-2.9,0.6c-1.5-0.4-2.1-1.6-1.7-3.1l1.5-4.9l1.2,0.4l-1.4,4.6
		c-0.3,1-0.2,1.8,1,2.2c1.6,0.5,2.4-0.5,2.9-2l1.1-3.7l1.2,0.3L515.1,173.6z"/>
	<path d="M521.7,168.9l-1.4-0.4l-1.2,4.2c-0.2,0.7-0.4,1,0.5,1.3c0.2,0.1,0.4,0.1,0.6,0.1l-0.3,1c-0.4-0.1-0.5-0.1-0.9-0.2
		c-1.8-0.5-1.4-1.4-1-3l1.1-3.8l-1.2-0.4l0.3-1l1.2,0.4l0.6-2.1l1.2,0.3l-0.6,2.1l1.4,0.4L521.7,168.9z"/>
	<path d="M528.8,173.8c-0.7,2.4-2.4,3.5-4.6,2.8c-2.2-0.7-3.1-2.5-2.4-4.8s2.5-3.4,4.6-2.8C528.7,169.7,529.5,171.4,528.8,173.8z
		 M523.1,172.1c-0.5,1.8,0,3,1.5,3.5c1.4,0.4,2.5-0.4,3.1-2.2c0.5-1.7,0-3-1.4-3.5C524.8,169.6,523.6,170.4,523.1,172.1z"/>
	<path d="M532.1,172c0.9-0.6,1.6-0.8,2.7-0.5c1,0.3,1.5,0.9,1.6,1.8c0.9-0.6,1.7-0.9,2.7-0.5c1.5,0.4,2,1.6,1.6,3l-1.5,5l-1.2-0.3
		l1.3-4.5c0.3-1,0.4-1.8-0.9-2.2c-1.3-0.4-2.1,0.4-2.5,1.7l-1.2,4.1l-1.2-0.3l1.4-4.6c0.3-0.9,0.3-1.7-0.8-2.1
		c-1.6-0.5-2.3,0.6-2.7,1.9l-1.1,3.8l-1.2-0.3l2.1-7.1l1.1,0.3L532.1,172z"/>
	<path d="M548.6,179.6c-0.7,2.4-2.4,3.5-4.6,2.8c-2.2-0.7-3.1-2.5-2.4-4.8s2.5-3.4,4.6-2.8C548.4,175.5,549.3,177.3,548.6,179.6z
		 M542.9,178c-0.5,1.8,0,3,1.5,3.5c1.4,0.4,2.5-0.4,3.1-2.2c0.5-1.7,0-3-1.4-3.5C544.6,175.4,543.4,176.3,542.9,178z"/>
	<path d="M553.8,178.4l-1.4-0.4l-1.2,4.2c-0.2,0.7-0.4,1,0.5,1.3c0.2,0.1,0.4,0.1,0.7,0.1l-0.3,1c-0.4-0.1-0.5-0.1-0.9-0.2
		c-1.8-0.5-1.4-1.4-1-3l1.1-3.8l-1.2-0.4l0.3-1l1.2,0.4l0.6-2.1l1.2,0.3l-0.6,2.1l1.4,0.4L553.8,178.4z"/>
	<path d="M554.5,185.3l-1.2-0.4l2.1-7.1l1.2,0.4L554.5,185.3z M557,176.9l-1.2-0.4l0.4-1.4l1.2,0.4L557,176.9z"/>
	<path d="M559.1,178.9l0.2,6.6l3.7-5.4l1.2,0.4l-4.7,6.4l-1.3-0.4l-0.5-7.9L559.1,178.9z"/>
	<path d="M566.2,189.1c-2.1-0.6-3-2.4-2.3-4.7s2.5-3.5,4.5-2.9c2.4,0.7,2.7,2.8,2.1,4.9v0.2l-5.4-1.6v0.1c-0.5,1.5,0.1,2.7,1.5,3.1
		c1,0.3,1.7,0,2.4-1l1.1,0.3C569.2,189,567.9,189.6,566.2,189.1z M568.1,182.4c-1.1-0.3-2.2,0.2-2.8,1.5l4.2,1.2
		C569.8,183.8,569.3,182.8,568.1,182.4z"/>
</g>
<path class="st4" d="M418.6,168.4v-20.9c0-8.2,6.6-14.8,14.8-14.8h20.9c8.2,0,14.8,6.6,14.8,14.8v20.9c0,8.2-6.6,14.8-14.8,14.8
	h-20.9C425.2,183.2,418.6,176.6,418.6,168.4z"/>
<path class="st3" d="M445.8,148.8c-6.6,0-12.7,3.8-15.6,9.7c2.9,6,8.9,9.8,15.6,9.8c5.6,0,11.9-2.7,15.1-6.9c1.4-2,2.6-4.2,3.4-6.5
	c-2.1,0.7-4.4,0.4-6.2-0.9C453.3,150,451.3,148.8,445.8,148.8L445.8,148.8z M453.4,154c1.8,1.2,3.4,2.8,4.5,4.6
	c-1.2,1.8-2.7,3.4-4.6,4.6c-4.7,3-10.7,3-15.4-0.1c-1.8-1.2-3.4-2.8-4.5-4.6c1.2-1.8,2.7-3.4,4.6-4.6l0.4-0.2
	c-0.3,0.9-0.5,1.8-0.5,2.7c0,4.3,3.5,7.8,7.8,7.8s7.8-3.5,7.8-7.8c0-0.9-0.2-1.8-0.5-2.7L453.4,154L453.4,154z M445.7,155.4
	c0,1.6-1.3,2.9-2.9,2.9s-2.9-1.3-2.9-2.9c0-1.6,1.3-2.9,2.9-2.9l0,0C444.4,152.5,445.7,153.8,445.7,155.4z"/>
<g class="st13">
	<path d="M432.7,191.6c-0.1-1.4-1-1.9-2.4-1.9s-2.2,0.6-2.2,1.6c0,1.1,1.1,1.3,2.6,1.6c1.6,0.3,3.5,0.8,3.5,2.8
		c0,2.1-1.9,2.9-3.7,2.9c-2.3,0-4-1.1-4-3.4h1.2c0.1,1.7,1.3,2.3,2.9,2.3c1.1,0,2.4-0.4,2.4-1.7c0-1.2-1.2-1.5-2.8-1.8
		c-1.5-0.3-3.3-0.6-3.3-2.6s1.7-2.7,3.5-2.7c2,0,3.4,0.9,3.5,3h-1.2V191.6z"/>
	<path d="M441.8,198.3c-0.2,0.1-0.5,0.1-0.8,0.1c-0.6,0-1-0.4-1-1c-0.7,0.8-1.4,1.1-2.5,1.1c-1.4,0-2.2-0.8-2.2-2s0.8-2,2.5-2.2
		s2.2-0.2,2.2-1.1c0-0.7-0.6-1.1-1.6-1.1c-1.1,0-1.6,0.4-1.7,1.4h-1.1c0-1.5,1.1-2.4,2.9-2.4c0.9,0,1.7,0.2,2.2,0.7s0.5,1.2,0.5,1.8
		c0,1-0.1,2.1-0.1,3.1c0,0.5,0.1,0.7,0.5,0.7c0.1,0,0.2,0,0.3,0L441.8,198.3L441.8,198.3z M438.4,195.2c-0.8,0.1-2,0.2-2,1.3
		c0,0.7,0.5,1.2,1.4,1.2c1.1,0,2.1-0.7,2.1-1.6v-1.3C439.5,195.1,438.9,195.1,438.4,195.2z"/>
	<path d="M444.1,198.4h-1.2v-9.6h1.2V198.4z"/>
	<path d="M452.2,194.9c0,2.4-1.2,3.7-3.3,3.7c-2.1,0-3.4-1.4-3.4-3.7s1.3-3.7,3.4-3.7S452.2,192.6,452.2,194.9z M446.7,194.9
		c0,1.7,0.8,2.7,2.2,2.7c1.3,0,2.2-1,2.2-2.7s-0.8-2.7-2.2-2.7C447.5,192.2,446.7,193.2,446.7,194.9z"/>
	<path d="M454.6,192.5c0.6-0.8,1.3-1.3,2.4-1.3c1.7,0,2.3,0.9,2.3,2.5v4.6h-1.1v-4.1c0-1.1-0.1-2-1.5-2c-1.5,0-2,1.1-2,2.5v3.6h-1.1
		v-6.9h1.1L454.6,192.5L454.6,192.5z"/>
	<path d="M465,193.4c-0.1-0.9-0.7-1.3-1.7-1.3c-0.9,0-1.4,0.4-1.4,0.9c0,0.8,0.9,0.9,1.8,1.1c1.2,0.3,2.7,0.6,2.7,2.1
		c0,1.3-1.1,2.2-2.9,2.2c-1.9,0-2.9-0.8-3-2.4h1.1c0.1,1,0.8,1.5,1.9,1.5c1,0,1.7-0.5,1.7-1.2c0-0.8-0.8-0.9-1.7-1.2
		c-1.2-0.3-2.8-0.4-2.8-2c0-1.2,1-2,2.6-2s2.8,0.8,2.8,2.2L465,193.4L465,193.4z"/>
</g>
<path class="st8" d="M334.2,119.5l20.5-4.4c8-1.7,15.9,3.4,17.6,11.4l4.4,20.5c1.7,8-3.4,15.9-11.4,17.6l-20.5,4.4
	c-8,1.7-15.9-3.4-17.6-11.4l-4.4-20.5C321,129.1,326.1,121.2,334.2,119.5z"/>
<path class="st3" d="M363.8,134.2l-0.3-1.4c-0.3-1.5-1.9-2.5-3.4-2.2l-2.2,0.5c-1.5,0.3-2.5,1.9-2.2,3.4l0.8,3.8l-14.9,3.2l-0.8-3.8
	c-0.3-1.5-1.8-2.5-3.4-2.2l-2.2,0.5c-1.5,0.3-2.5,1.8-2.2,3.4l0,0l0.3,1.4c-1.6,0.4-2.6,1.9-2.3,3.5l1,5c0.4,1.6,1.9,2.6,3.5,2.3
	l0.3,1.4c0.3,1.5,1.8,2.5,3.4,2.2l2.2-0.5c1.5-0.3,2.5-1.9,2.2-3.4l-0.8-3.8l14.9-3.2l0.8,3.8c0.3,1.5,1.8,2.5,3.4,2.2l2.2-0.5
	c1.6-0.3,2.5-1.9,2.2-3.4L366,145c1.6-0.4,2.6-1.9,2.3-3.5l-1.1-5C367,134.9,365.4,133.9,363.8,134.2L363.8,134.2z"/>
<g class="st13">
	<path d="M353.6,181.8l-0.8,0.2l-0.6-1.1c-0.6,1.1-1.4,1.8-2.7,2c-2.7,0.6-4.9-1-5.5-3.9c-0.6-2.7,0.6-5.3,3.5-5.9
		c1.9-0.4,4,0.3,4.6,2.2l-1.2,0.3c-0.4-1.2-1.7-1.8-3.1-1.5c-2,0.4-3,2.2-2.5,4.6c0.5,2.3,2.1,3.6,4.1,3.1c2-0.4,2.6-2,2.3-3.8
		l-3,0.6l-0.2-1l4.1-0.9L353.6,181.8z"/>
	<path d="M358.2,181.8c-0.2,1-0.4,2-1.6,2.3c-0.3,0.1-0.6,0.1-0.9,0.1l-0.2-1c0.4,0,0.6,0,0.8,0c0.4-0.1,0.6-0.4,0.7-0.7l0.3-1.3
		l-4.1-6.2l1.3-0.3l3.2,5l0.8-5.8l1.2-0.2L358.2,181.8z"/>
	<path d="M361.7,174.1c0.4-0.9,1-1.4,2-1.6c0.9-0.2,1.6,0,2.1,0.8c0.4-0.9,1-1.4,2-1.7c1.4-0.3,2.3,0.4,2.6,1.8l1,4.7l-1.1,0.2
		l-0.9-4.3c-0.2-1-0.5-1.7-1.7-1.4c-1.3,0.3-1.6,1.2-1.3,2.5l0.8,3.9l-1.1,0.2l-0.9-4.4c-0.2-0.9-0.5-1.6-1.6-1.3
		c-1.5,0.3-1.6,1.5-1.3,2.8l0.8,3.6l-1.1,0.2l-1.4-6.8l1.1-0.2V174.1z"/>
</g>
<ellipse transform="matrix(0.1066 -0.9943 0.9943 0.1066 -498.2348 652.6615)" class="st1" cx="114.1" cy="603.6" rx="21.5" ry="114.7"/>
<polygon class="st9" points="23.2,579 20.5,591.7 27.4,593.2 28.1,590.1 31.7,594.1 63.7,600.9 63.7,600.9 37.9,582.1 "/>
<polygon class="st9" points="181.7,596.9 180.6,609.9 187.6,610.5 187.9,607.3 192,610.8 224.7,613.5 224.7,613.5 196.7,598.2 "/>
<polygon class="st8" points="138.4,377.7 170.4,492.3 194.8,598 182,596.9 143.5,497.9 89.1,377.7 "/>
<polygon class="st8" points="125.7,377.7 96.7,499.3 36.4,581.8 23.8,579.1 70.2,495.4 75.8,376.6 "/>
<polygon class="st3" points="133,348.9 108.7,288.7 136.7,273.5 149.8,293.8 167.7,338.3 "/>
<polygon class="st12" points="140.1,382.6 144.4,302.7 136.7,273.5 122.3,266.6 100.7,266.6 73.7,275.7 67,310.4 75,381.8 "/>
<path class="st3" d="M73.6,275.7l-18.2,25.4l-12.7,49.2c-0.8,3.2,1,6.4,4.2,7.3c1.3,0.3,2.6,0.3,3.8-0.3l58-23.8l-3.2-9.6L71.1,330
	l6-11.6l6.1-25.1L73.6,275.7z"/>
<path class="st4" d="M76,289.2l19.7-4.2c7.7-1.6,15.3,3.3,17,11l4.2,19.7c1.6,7.7-3.3,15.3-11,17l-19.7,4.2c-7.7,1.6-15.3-3.3-17-11
	L65,306.2C63.4,298.5,68.3,290.9,76,289.2z"/>
<rect x="76.1" y="294.2" transform="matrix(0.9275 -0.3738 0.3738 0.9275 -109.7349 55.8064)" class="st3" width="25.9" height="33.3"/>
<rect x="75.3" y="298.5" transform="matrix(0.9275 -0.3738 0.3738 0.9275 -105.9344 53.3666)" class="st4" width="18.7" height="2.7"/>
<rect x="83.5" y="319.5" transform="matrix(0.9275 -0.3738 0.3738 0.9275 -112.9523 57.9031)" class="st4" width="18.7" height="1.4"/>
<rect x="84.4" y="321.8" transform="matrix(0.9275 -0.3738 0.3738 0.9275 -113.7409 58.4154)" class="st4" width="18.7" height="1.4"/>
<polygon class="st4" points="82.5,319.6 86.2,312.3 90,313.3 92.1,307.4 100.3,312.5 "/>
<circle class="st4" cx="86.7" cy="307.5" r="1.9"/>
<rect x="83.4" y="294.6" transform="matrix(0.9976 -6.982627e-02 6.982627e-02 0.9976 -21.5004 7.4895)" class="st3" width="26" height="33.4"/>
<rect x="84.7" y="297.8" transform="matrix(0.9978 -6.575380e-02 6.575380e-02 0.9978 -19.4642 6.8294)" class="st4" width="18.7" height="2.7"/>
<rect x="86.1" y="320.4" transform="matrix(0.9978 -6.575380e-02 6.575380e-02 0.9978 -20.9046 6.969)" class="st4" width="18.7" height="1.4"/>
<rect x="86.3" y="322.8" transform="matrix(0.9978 -6.575380e-02 6.575380e-02 0.9978 -21.0618 6.9874)" class="st4" width="18.7" height="1.4"/>
<polygon class="st4" points="85.8,317.3 91.7,311.5 95,313.6 98.8,308.6 105,316 "/>
<circle class="st4" cx="93.6" cy="307.1" r="1.9"/>
<path class="st8" d="M94.8,332l3.5-19.9c1.4-7.8,8.8-12.9,16.6-11.6l19.9,3.5c7.8,1.4,12.9,8.8,11.6,16.6l-3.5,19.9
	c-1.4,7.8-8.8,12.9-16.6,11.6l-19.9-3.5C98.6,347.2,93.4,339.8,94.8,332z"/>
<g id="YsoBdv.tif">
	<path class="st3" d="M136.2,333.5c-0.5,2.8-0.9,5.5-1.5,8.2c-0.4,1.6-2,2.5-3.6,2.2c-3.1-0.5-6.2-1.1-9.3-1.6l-15.5-2.8
		c-1.7-0.1-3.1-1.6-3-3.3c0-0.3,0.1-0.5,0.1-0.8c0.4-2.5,0.9-4.9,1.3-7.4L136.2,333.5z"/>
	<path class="st3" d="M108.5,326.8c-1-0.2-1.9-0.3-2.8-0.5c-0.2-0.1-0.4-0.3-0.4-0.6c0.6-8.8,8.3-15.4,17.1-14.8
		c8,0.6,14.3,7,14.8,15c-0.1,1.8-0.4,3.5-0.9,5.3c-0.1,0.2-0.3,0.4-0.6,0.4c-0.9-0.1-1.8-0.3-2.8-0.5c2.2-6,1.2-11.2-3.8-15.3
		c-3.8-3.3-9.2-3.9-13.6-1.4C110.7,316.9,108.4,321.2,108.5,326.8z"/>
	<path class="st3" d="M120.7,329c-1-0.2-1.9-0.3-2.8-0.5c-0.4-0.1-0.7-0.3-0.9-0.6c-0.8-1.8-0.5-3.9,0.8-5.3c1.4-1.4,3.6-1.8,5.5-1
		c1.8,0.8,2.9,2.6,2.8,4.5c0,1.2-0.5,2.3-1.3,3.1c-0.3,0.3-0.8,0.4-1.2,0.4C122.6,329.4,121.7,329.2,120.7,329z M119.7,325.6
		c-0.2,0.9,0.4,1.7,1.3,1.9c0.9,0.2,1.7-0.4,1.9-1.3s-0.4-1.7-1.3-1.9l0,0C120.7,324.1,119.9,324.7,119.7,325.6
		C119.7,325.5,119.7,325.6,119.7,325.6L119.7,325.6z"/>
	<path class="st3" d="M114.5,322.2l-1.8-1.2c1.5-2.4,4-4.2,6.8-4.8l0.5,2.2C117.7,318.9,115.8,320.3,114.5,322.2z"/>
</g>
<path class="st3" d="M42.7,350.3c-0.8,3.2,1,6.4,4.2,7.3c1.3,0.3,2.6,0.3,3.8-0.3l58-23.8l-3.2-9.6L71.1,330"/>
<path class="st3" d="M108.7,264c-1.2-1.6,0-17.3,0-17.3H124l-1.7,19.9C122.3,266.6,111.8,268.2,108.7,264z"/>
<polygon class="st3" points="105.7,258 96.7,266.6 107.3,283.8 116.1,269 118.6,268.5 123.3,283.8 131.4,268.5 124.5,259.8 
	117.4,265.8 "/>
<g id="Layer_9">
	<path class="st3" d="M138.7,223.4c-3-7.4-2.2-7.6-4.3-10.8c-3.4-5.4-7.3-11.1-13.3-13.5c-3.5-1.1-7.1-1.7-10.7-1.5
		c-2.7-0.2-5.4,0.1-8,0.8c-2.2,0.7-4.2,1.8-5.9,3.2c-5.1,3.9-8.6,9.4-9.9,15.7c-3.1,16.6,10.8,28.9,24,34.9c5,2.2,13.8,3.6,18.6,1.1
		C142.6,245.5,141.7,230.5,138.7,223.4z"/>
	<path class="st14" d="M114.7,221c-3.9,0.1-8.6,3.3-9.3,5.8"/>
	<path class="st14" d="M133.2,215.2c-3-1.6-6.7-1.1-9.3,1.2"/>
	<path class="st3" d="M125.9,237.2c0.8-0.8,1.6-1.6,2.3-2.4c0.2-0.2,0.3-0.4,0.4-0.7c0.2-0.6-0.3-1.3-0.7-1.8l-2.4-2.6"/>
	
		<ellipse transform="matrix(0.8186 -0.5744 0.5744 0.8186 -112.1546 108.3016)" class="st2" cx="115.4" cy="231.7" rx="1.6" ry="2.1"/>
	<ellipse transform="matrix(0.9433 -0.332 0.332 0.9433 -67.2608 56.2738)" class="st2" cx="131.1" cy="225" rx="1.5" ry="1.9"/>
	<path class="st9" d="M97.7,231.7c0,0-5.5-3.5-6.2-0.2c-0.2,1.1,2.9,7.2,9.7,7.9c0,0-1.4,6.9,2.6,9.1c0,0-7.7-1.4-20.4-16.6
		c0,0-11.5-12.8,5.3-23.2c1.1-13.9,15.4-20.1,34-17.1c0,0,12.6,8.9,13.8,24.2l-3.7-5.1c0,0-21.1,9.3-32.9,2
		C96.2,214.7,97.4,218.5,97.7,231.7z"/>
</g>
<path class="st11" d="M118.5,242.8c0,0,9.9,1.3,12.9-2.5C131.4,240.3,128,254.4,118.5,242.8z"/>
<path class="st3" d="M105.6,323.8c0,0,9.3-6.9,10.7-5.5s-1.3,3.2-1.3,3.2s7.8-2.6,10.5-1.2c3.5,1.8,3.3,6.8-16.8,13.1L105.6,323.8z"
	/>
<polyline class="st3" points="167.7,338.3 116.1,359.9 112.9,353.6 147.6,327.3 "/>
<path class="st3" d="M112.9,353.6c0,0-10.6-0.1-10.6,1.3s2.3,2.4,2.3,2.4s-12.2,5.1-8.8,7.5s13.5,0.2,20.3-4.8L112.9,353.6z"/>
<ellipse transform="matrix(0.9935 -0.1141 0.1141 0.9935 -64.3146 87.0514)" class="st1" cx="728.3" cy="605.4" rx="109.7" ry="20.6"/>
<polygon class="st9" points="784.7,577.4 787,589 780.6,590.2 780.1,587.4 776.7,591 747.2,596.6 747.2,596.6 771.2,579.9 "/>
<polygon class="st9" points="693,607.8 688.8,619 682.8,616.7 683.8,614 679,615.3 651,604.9 651,604.9 680.1,603 "/>
<polygon class="st15" points="720.4,386.3 706.4,485.5 773.5,579.4 784.7,577.3 738.8,486.1 754.6,389.4 "/>
<polygon class="st15" points="787,390.4 782.7,423.4 692.7,608.3 681.1,603.4 738.8,423.4 734.8,417.3 738.8,395.1 "/>
<path class="st3" d="M761.3,286.8c1.2-1.6,0-17.4,0-17.4H746l1.7,19.9C747.7,289.4,758.2,291,761.3,286.8z"/>
<g id="Layer_9-2">
	<path class="st3" d="M731.2,246.2c3-7.4,2.2-7.6,4.3-10.9c3.5-5.4,7.3-11.1,13.3-13.5c3.5-1.1,7.1-1.6,10.8-1.5
		c2.7-0.2,5.4,0.1,8,0.8c2.2,0.7,4.2,1.8,6,3.2c5.1,3.9,8.6,9.5,9.9,15.7c3.1,16.7-10.8,28.9-24.1,34.9c-5,2.2-13.8,3.6-18.6,1.1
		C727.3,268.2,728.3,253.3,731.2,246.2z"/>
	<path class="st14" d="M755.2,243.8c3.9,0.1,8.7,3.3,9.3,5.8"/>
	<path class="st14" d="M736.7,238c3-1.6,6.7-1.1,9.3,1.2"/>
	<path class="st3" d="M744.1,259.9c-0.8-0.8-1.6-1.6-2.3-2.4c-0.2-0.2-0.3-0.4-0.4-0.7c-0.2-0.6,0.3-1.3,0.8-1.8l2.4-2.6"/>
	
		<ellipse transform="matrix(0.5744 -0.8186 0.8186 0.5744 112.9085 725.8373)" class="st2" cx="754.5" cy="254.3" rx="2.1" ry="1.6"/>
	<ellipse transform="matrix(0.332 -0.9433 0.9433 0.332 259.8634 862.3876)" class="st2" cx="738.8" cy="247.7" rx="2" ry="1.5"/>
	<path class="st9" d="M772.3,254.4c0,0,5.5-3.5,6.2-0.2c0.2,1.1-2.9,7.2-9.7,7.9c0,0,1.4,6.9-2.6,9.2c0,0,7.8-1.4,20.4-16.6
		c0,0,11.5-12.8-5.3-23.2c-1.1-13.9-13.6-22.7-32.3-19.6c-8.7,6.3-14.3,16-15.5,26.7c0,0,3.3-9,12.4-11.9c0,0,9.6,14.4,21.4,7.2
		C767.3,233.9,774.8,237,772.3,254.4z"/>
</g>
<path class="st11" d="M751.4,265.6c0,0-9.9,1.3-12.9-2.5C738.6,263.1,742,277.2,751.4,265.6z"/>
<path class="st8" d="M718.4,400.7l68.6,5.1l1.3-81.9c0,0-6.1-10.5,0-29.9L766,283l-12.1,3.4l-12.6-3.8l-18.2,10.1l-2.4,38.8
	L718.4,400.7z"/>
<polygon class="st3" points="788.3,294.1 799.7,303.7 820.4,365.3 768.1,389.4 766,379.8 796.1,355 778.8,320.5 "/>
<polygon class="st3" points="723.1,292.7 718.4,296.3 696.9,355 728.6,381 731.4,373.2 718.4,349.5 720.2,338.8 "/>
<path class="st4" d="M716.7,327.9l18.4-9c7.2-3.5,15.9-0.5,19.4,6.7l9,18.4c3.5,7.2,0.5,15.9-6.7,19.4l-18.4,9
	c-7.2,3.5-15.9,0.5-19.4-6.7l-9-18.4C706.5,340.1,709.5,331.4,716.7,327.9z"/>
<path class="st3" d="M740.5,333.5c-2.9,1.4-4.1,4.9-2.7,7.8l7,14.4c0.4,0.7,1.2,1,2,0.7l0,0l7.9-3.8c0.7-0.3,1-1.2,0.7-2l0,0
	l-7-14.4C746.9,333.3,743.4,332.1,740.5,333.5L740.5,333.5z"/>
<path class="st3" d="M737.6,349.5l-4.5-8.4c-0.5-0.9-1.5-1.3-2.4-1.2l-1.9-4c-0.4-0.7-1-1.2-1.8-1.5l-5.1-1.2
	c-0.2-0.1-0.5-0.1-0.8,0c-0.2,0.1-0.4,0.3-0.4,0.5s0,0.5,0.1,0.7l4,8.3c-0.8,0.7-1,1.7-0.6,2.6l3.8,8.7c-0.5,0.4-0.6,1.1-0.3,1.7
	l3.2,6.6c0.3,0.7,1.2,1,2,0.7l0,0l8.6-4.2c0.7-0.4,1-1.3,0.7-2l0,0l-3.2-6.6C738.8,349.6,738.2,349.3,737.6,349.5L737.6,349.5z
	 M729.7,353.2l-3.3-7.5c-0.2-0.5,0-1,0.5-1.2l4-1.9c0.5-0.2,1,0,1.3,0.4l3.9,7.3L729.7,353.2z"/>
<path class="st4" d="M747,340.2l8.3-18.8c3.2-7.3,11.8-10.7,19.1-7.4l18.8,8.3c7.3,3.2,10.7,11.8,7.4,19.1l-8.3,18.8
	c-3.2,7.3-11.8,10.7-19.1,7.4l-18.8-8.3C747.1,356.1,743.8,347.5,747,340.2z"/>
<path class="st3" d="M789.7,339.2l-5.5-2.4c0.4-1,0-2.2-1-2.6l-2-0.9l4.7-1.8c1.1-0.3,1.7-1.4,1.4-2.5s-1.4-1.7-2.5-1.4
	c-0.1,0-0.3,0.1-0.4,0.1l-6,2.3l-2.3-6c-0.5-1-1.7-1.4-2.7-0.9c-0.9,0.4-1.3,1.4-1.1,2.4l1.8,4.7l-2-0.9c-1-0.4-2.2,0-2.6,1
	l-5.5-2.4c-1-0.4-2.2,0-2.6,1l-7.7,17.4c-0.4,1,0,2.2,1,2.6l25.5,11.2c1,0.4,2.2,0,2.6-1l7.6-17.3
	C791.1,340.9,790.7,339.7,789.7,339.2L789.7,339.2z M776.2,353.4l-17-7.5l5.6-12.8l17,7.5L776.2,353.4z M780.3,355.8
	c-1-0.4-1.5-1.6-1-2.6c0.4-1,1.6-1.5,2.6-1c1,0.4,1.5,1.6,1,2.6l0,0C782.4,355.8,781.3,356.2,780.3,355.8z M782.7,350.3
	c-1-0.4-1.5-1.6-1-2.6c0.4-1,1.6-1.5,2.6-1s1.5,1.6,1,2.6l0,0C784.8,350.3,783.7,350.7,782.7,350.3z"/>
<path class="st8" d="M734,343.2l17.4-9.3c6.8-3.6,15.3-1.1,18.9,5.8l9.3,17.4c3.6,6.8,1.1,15.3-5.8,18.9l-17.4,9.3
	c-6.8,3.6-15.3,1.1-18.9-5.8l-9.3-17.4C724.6,355.3,727.2,346.8,734,343.2z"/>
<path class="st3" d="M772.3,359.9l-6.9-2.1c-1.4-0.4-2.9,0.4-3.3,1.8l-1.1,3.5h-0.6c-2.6,0-5.1-0.3-7.6-1c-2.4-0.8-4.8-1.9-6.9-3.4
	l-0.5-0.3l0.7-2.3l0.3-1.1c0.4-1.4-0.3-2.9-1.7-3.3l-6.9-2.1c-1.4-0.4-2.9,0.4-3.3,1.8l-0.6,2l0,0c-0.1,0.8-0.2,1.6-0.1,2.4
	c0.1,0.7,0.3,1.4,0.5,2.1c2,5.2,6.7,8.5,16.1,11.4c13,3.9,19.4-0.3,19.7-0.5c0.6-0.4,1.2-0.9,1.6-1.5c0.5-0.6,1-1.3,1.3-2l0,0
	l0.6-1.9C774.4,361.9,773.6,360.4,772.3,359.9L772.3,359.9z"/>
<polyline class="st3" points="696.9,355 728.6,381 731.4,373.2 712.8,353.2 "/>
<polyline class="st3" points="820.4,365.3 768.1,389.4 766,379.8 796.1,355 "/>
<path class="st3" d="M766,379.8c0,0-10.1-3.2-10.1-1.3c0,1.4,1.2,2.5,2.6,2.5h0.1c0,0-12.2,1.4-10,5.3s19.5,3,19.5,3L766,379.8z"/>
<path class="st3" d="M731.4,373.2c0,0,10.8-2.2,10.7,0s-3.1,1.9-3.1,1.9s9.1,0.4,9.8,3.5c0.6,2.5-4.6,7.2-20.2,2.5L731.4,373.2z"/>
<polygon class="st3" points="761.9,277.4 749.6,283.8 746,278.7 738.8,284.1 741.3,292.7 748.8,287.1 756.6,295.6 766,283.1 "/>
</svg>
