<svg version="1.1" id="Layer_1" xmlns="http://www.w3.org/2000/svg" x="0" y="0" viewBox="0 0 879.3 686" xml:space="preserve"><style>.st1{fill:#ccc}.st2,.st3{fill:#0077bf;stroke:#000;stroke-width:.5;stroke-miterlimit:10}.st3{fill:#fff}.st4{enable-background:new}.st5{fill:#eb058c;stroke:#000;stroke-width:.5;stroke-miterlimit:10}.st6{fill:#1a1a1a}.st10,.st11,.st12,.st13,.st8,.st9{fill:#fff;stroke:#000;stroke-miterlimit:10}.st10,.st11,.st12,.st13,.st9{fill:#1a1a1a;stroke-width:.5}.st10,.st11,.st12,.st13{fill:none}.st11,.st12,.st13{fill:#848484}.st12,.st13{fill:#e2e2e2}.st13{fill:#c10072}</style><path d="M620.6 682.7C773.9 663.8 861 564.9 871.1 493.1c26-185-85.5-300.9-154-365C619.6 36.9 463.6-.8 391.4 3.8c-164.9 10.6-270.6 119-270.6 119C-80.9 317 69.1 520.4 69.1 520.4c95.8 165.1 258.1 100 258.1 100s90.7-27.8 128.1-1.4 69.2 62.4 165.3 63.7z" fill="#f5f5f5" id="Layer_7"/><ellipse class="st1" cx="397.2" cy="658.2" rx="127.7" ry="24"/><path class="st2" d="M265.2 299.1l20-6.2c7.8-2.4 16.1 1.9 18.6 9.7l6.2 20c2.4 7.8-1.9 16.1-9.7 18.6l-20 6.2c-7.8 2.4-16.1-1.9-18.6-9.7l-6.2-20c-2.4-7.8 1.9-16.1 9.7-18.6z"/><path class="st3" d="M301.8 324.1l-6.8-3.6c-1.4-.7-3.1-.1-3.8 1.3l-1.8 3.4-.6-.1c-2.7-.5-5.3-1.3-7.7-2.6-2.4-1.3-4.6-2.9-6.5-4.9l-.4-.4 1.2-2.3.6-1.1c.8-1.4.3-3.1-1.1-3.8l-6.8-3.6c-1.4-.7-3.1-.1-3.8 1.3l-1 1.9c-.3.8-.5 1.6-.5 2.5-.1.8 0 1.6.1 2.3 1.1 5.9 5.3 10.2 14.5 15.1 12.7 6.7 20.3 3.5 20.6 3.4.7-.3 1.4-.7 2-1.2.7-.5 1.2-1.2 1.7-1.9l1-1.9c1-1.4.5-3.1-.9-3.8z"/><path d="M273.9 356.9l-3.3 1 2.7 8.6-1.3.5-2.7-8.6-3.3 1-.4-1.1 7.8-2.5.5 1.1z"/><g class="st4"><path d="M279 365.1c-2.1.7-3.8-.3-4.5-2.6-.7-2.3.1-4.3 2.1-4.9 2.3-.7 3.8.8 4.4 2.9l.1.2-5.3 1.7v.1c.5 1.5 1.6 2.2 3 1.7 1-.3 1.4-.9 1.4-2.1l1.1-.4c.2 1.7-.6 2.8-2.3 3.4zm-2.1-6.6c-1.1.4-1.7 1.4-1.4 2.8l4.1-1.3c-.6-1.3-1.6-1.8-2.7-1.5zM284.6 363.1l-1.2.4-3.1-9.8 1.2-.4 3.1 9.8zM289.4 361.8c-2.1.7-3.8-.3-4.5-2.6-.7-2.3.1-4.3 2.1-4.9 2.3-.7 3.8.8 4.4 2.9l.1.2-5.3 1.7v.1c.5 1.5 1.6 2.2 3 1.7 1-.3 1.4-.9 1.4-2.1l1.1-.4c.2 1.7-.6 2.9-2.3 3.4zm-2.1-6.6c-1.1.4-1.7 1.4-1.4 2.8l4.1-1.3c-.5-1.3-1.5-1.8-2.7-1.5zM296.8 359.4c-2.2.7-3.8-.4-4.5-2.6-.7-2.4.1-4.3 2.2-4.9 1.7-.5 3.1 0 3.8 1.6l-1.2.4c-.5-.9-1.3-1.3-2.3-1-1.3.4-1.9 1.8-1.3 3.5.5 1.7 1.7 2.5 3 2.1 1.1-.3 1.6-1.2 1.4-2.4l1.2-.4c.3 1.7-.5 3.2-2.3 3.7zM306.5 352.2c.8 2.4 0 4.2-2.2 4.9-2.2.7-3.9-.3-4.6-2.6-.7-2.3.1-4.2 2.3-4.9s3.8.3 4.5 2.6zm-5.6 1.8c.6 1.7 1.7 2.5 3.1 2.1s1.9-1.7 1.3-3.5c-.5-1.7-1.7-2.5-3.1-2.1s-1.9 1.8-1.3 3.5zM308.2 348.9c.3-1 .9-1.6 1.9-1.9.9-.3 1.7-.1 2.3.6.3-1 .9-1.6 2-2 1.5-.5 2.5.2 3 1.6l1.6 5-1.2.4-1.4-4.5c-.3-1-.7-1.7-2-1.3-1.3.4-1.5 1.5-1.1 2.8l1.3 4-1.2.4-1.4-4.5c-.3-.9-.7-1.6-1.8-1.3-1.6.5-1.6 1.7-1.1 3.1l1.2 3.7-1.2.4-2.2-7.1 1.1-.3.2.9z"/></g><path class="st5" d="M561.4 235.7l5.1-20.3c2-7.9 10.1-12.8 18-10.8l20.3 5.1c7.9 2 12.8 10.1 10.8 18l-5.1 20.3c-2 7.9-10.1 12.8-18 10.8l-20.3-5.1c-7.9-2-12.8-10.1-10.8-18z"/><path class="st3" d="M606.1 225.2l-9.9-2.5.6-2.3c.4-1.5-.5-2.9-2-3.3l-5.8-1.5c-1.5-.4-2.9.5-3.3 2l-.6 2.3-9.9-2.5c-.9-.2-1.8.3-2 1.2l-5.3 20.8c-.2.9.3 1.8 1.2 2l30.8 7.8c.9.2 1.8-.3 2-1.2l5.3-20.8c.3-.9-.3-1.7-1.1-2zm-17.7-6.9l5.7 1.4-.6 2.2-5.7-1.4.6-2.2zm-3.3 24.8c-5.4-1.4-8.7-6.9-7.3-12.3 1.4-5.4 6.9-8.7 12.3-7.3 5.4 1.4 8.7 6.9 7.3 12.3-1.4 5.4-6.9 8.7-12.3 7.3z"/><path class="st3" d="M593.1 232.2l-2.6-.7.7-2.6c.2-.7-.3-1.4-1-1.6l-2-.5c-.7-.2-1.4.3-1.6 1l-.7 2.6-2.6-.7c-.7-.2-1.4.3-1.6 1l-.5 2.1c-.2.7.3 1.4 1 1.6l2.6.7-.7 2.6c-.2.7.3 1.4 1 1.6l2.1.5c.7.2 1.4-.3 1.6-1l.7-2.6 2.6.7c.7.2 1.4-.3 1.6-1l.5-2c.1-.7-.3-1.4-1.1-1.7.1.1 0 .1 0 0z"/><g class="st4"><path d="M555.2 265l-1.3-.3 1.2-4.7-5.3-1.3-1.2 4.7-1.3-.3 2.5-10 1.3.3-1 4.2 5.3 1.3 1-4.2 1.3.3-2.5 10zM560.1 266.5c-2.1-.5-3.1-2.3-2.5-4.6.6-2.3 2.3-3.6 4.3-3.1 2.4.6 2.8 2.7 2.3 4.8v.2l-5.4-1.4v.1c-.4 1.5.2 2.7 1.6 3 1 .3 1.7 0 2.3-1.1l1.2.3c-.8 1.7-2.1 2.2-3.8 1.8zm1.6-6.7c-1.2-.3-2.2.3-2.7 1.7l4.2 1.1c.3-1.5-.3-2.5-1.5-2.8zM571.1 269c-.3 0-.6 0-.8-.1-.7-.2-.9-.6-.8-1.3-.9.6-1.8.8-2.9.5-1.4-.4-2.1-1.4-1.8-2.6.3-1.3 1.4-1.8 3.1-1.6 1.8.2 2.4.4 2.6-.6.2-.8-.3-1.3-1.3-1.6-1.1-.3-1.8 0-2.2 1l-1.2-.3c.4-1.5 1.8-2.2 3.6-1.7 1 .2 1.7.7 2.1 1.3.4.6.2 1.4 0 2-.3 1.1-.6 2.1-.9 3.2-.1.5-.1.7.3.8h.3l-.1 1zm-2.7-4.2c-.9-.1-2.1-.3-2.4.9-.2.7.2 1.3 1.1 1.6 1.1.3 2.4-.2 2.6-1.1l.3-1.3c-.4.1-1 0-1.6-.1zM573.5 269.6l-1.2-.3 2.5-10 1.2.3-2.5 10zM580 264.6l-1.4-.4-1.1 4.2c-.2.7-.3 1.1.5 1.3.2.1.4.1.7.1l-.3 1c-.4-.1-.5-.1-.9-.2-1.8-.5-1.5-1.3-1.1-2.9l1-3.8-1.2-.3.2-1 1.2.3.5-2.1 1.2.3-.5 2.1 1.4.4-.2 1zM582.5 265.3c.7-.7 1.6-.9 2.7-.6 1.7.4 2.2 1.6 1.8 3.1l-1.2 4.9-1.2-.3 1.2-4.7c.2-1 .1-1.8-1.2-2.1-1.5-.4-2.3.6-2.7 2.2l-.9 3.7-1.2-.3 2.5-10 1.2.3-1 3.8zM590.5 274.1c-2.2-.6-3-2.4-2.5-4.6.6-2.4 2.3-3.6 4.5-3 1.8.4 2.6 1.6 2.4 3.3l-1.2-.3c0-1.1-.4-1.8-1.4-2-1.4-.3-2.5.5-3 2.3-.4 1.8.1 3 1.4 3.4 1.1.3 2-.2 2.4-1.4l1.2.3c-.5 1.6-2 2.5-3.8 2zM601.5 276.6c-.3 0-.6 0-.8-.1-.7-.2-.9-.6-.8-1.3-.9.6-1.8.8-2.9.5-1.4-.4-2.1-1.4-1.8-2.6.3-1.3 1.4-1.8 3.1-1.6 1.8.2 2.4.4 2.6-.6.2-.8-.3-1.3-1.3-1.6-1.1-.3-1.8 0-2.2 1l-1.2-.3c.4-1.5 1.8-2.2 3.6-1.7 1 .2 1.7.7 2.1 1.3.4.6.2 1.4 0 2-.3 1.1-.6 2.1-.9 3.2-.1.5-.1.7.3.8h.3l-.1 1zm-2.7-4.2c-.9-.1-2.1-.3-2.4.9-.2.7.2 1.3 1.1 1.6 1.1.3 2.4-.2 2.6-1.1l.3-1.3c-.4.1-1.1 0-1.6-.1z"/></g><path d="M607.9 271.7c-.1 0-.2-.1-.3-.1-2-.5-2.7.9-3.1 2.5l-.8 3.1-1.2-.3 1.8-7.2 1.1.3-.4 1.6c.8-1.1 1.8-1.4 3.1-1l-.2 1.1zM610 279c-2.1-.5-3.1-2.3-2.5-4.6.6-2.3 2.3-3.6 4.3-3.1 2.4.6 2.8 2.7 2.3 4.8v.2l-5.4-1.4v.1c-.4 1.5.2 2.7 1.6 3 1 .3 1.7 0 2.3-1.1l1.2.3c-.8 1.7-2.1 2.3-3.8 1.8zm1.6-6.7c-1.2-.3-2.2.3-2.7 1.7l4.2 1.1c.2-1.5-.3-2.5-1.5-2.8z"/><path class="st5" d="M294.1 210.6l20.3-5c8-2 16 2.9 17.9 10.9l5 20.3c2 8-2.9 16-10.9 17.9l-20.3 5c-8 2-16-2.9-17.9-10.9l-5-20.3c-2-8 2.9-16 10.9-17.9z"/><path class="st3" d="M311.9 234l1.1 4.9c1.5-.4 2.9-1.5 2.5-3.1s-2.2-1.8-3.6-1.8zM306.2 229.1c.3 1.2 1.4 1.7 3.3 1.7l-1-4.4c-1.6.4-2.5 1.6-2.3 2.7z"/><path class="st3" d="M307.2 217.8c-8.2 1.9-13.4 10.2-11.4 18.4 1.9 8.2 10.2 13.4 18.4 11.4 8.2-1.9 13.4-10.2 11.4-18.4-1.9-8.2-10.1-13.3-18.4-11.4zm6.4 23.6l.4 1.5c.2.4 0 .8-.4 1s-.8 0-1-.4c0-.1 0-.2-.1-.2l-.4-1.5c-4.2.9-6.9-1.1-7.3-3.1-.3-.8.2-1.6.9-1.9.1 0 .2-.1.3-.1 2.8-.6 1.4 3.3 5.6 2.5l-1.2-5.2c-3.8.2-6.4-.9-7.1-3.6-.8-3.4 1.6-5.7 4.7-6.6l-.3-1.3c-.2-.4 0-.8.4-1s.8 0 1 .4c0 .1 0 .2.1.2l.3 1.3c1.9-.4 6.2-.1 6.7 2.3.2.8-.3 1.6-1.1 1.9h-.1c-1.6.4-2.2-2.3-5-1.7l1.1 4.7c3.4-.1 6.5.2 7.4 4 .8 3.4-1.2 5.6-4.9 6.8z"/><g class="st4"><path d="M300.8 266.7l-5.2 1.3.8 3.1 4.6-1.1.3 1.1-4.6 1.1 1.1 4.6-1.3.3-2.5-10 6.6-1.6.2 1.2zM303.4 266.4l-1.2.3-.4-1.5 1.2-.3.4 1.5zm2.1 8.5l-1.2.3-1.8-7.2 1.2-.3 1.8 7.2zM306.9 268.1c.4-1 1-1.7 2.1-1.9 1.8-.4 2.7.4 3.1 2l1.2 4.8-1.2.3-1-4.3c-.3-1.2-.6-2.1-2.1-1.8-1.6.4-1.8 1.7-1.4 3.1l.9 3.8-1.2.3-1.8-7.2 1.1-.3.3 1.2z"/></g><path d="M320.1 262l-3.4.8 2.2 8.8-1.3.3-2.2-8.8-3.4.8-.3-1.2 8-2 .4 1.3z"/><g class="st4"><path d="M324.7 270.5c-2.1.5-3.8-.6-4.3-2.9-.6-2.3.4-4.3 2.4-4.8 2.4-.6 3.7 1.1 4.3 3.2v.2l-5.4 1.3v.1c.4 1.5 1.5 2.3 2.9 1.9 1-.3 1.5-.8 1.6-2l1.2-.3c-.1 1.7-1 2.8-2.7 3.3zm-1.7-6.7c-1.2.3-1.8 1.3-1.6 2.7l4.2-1c-.4-1.4-1.4-2-2.6-1.7zM332.3 268.6c-2.2.6-3.8-.7-4.4-2.9-.6-2.4.4-4.3 2.5-4.8 1.8-.4 3.1.2 3.7 1.8l-1.2.3c-.5-1-1.2-1.4-2.2-1.1-1.4.3-2 1.6-1.5 3.4.4 1.8 1.5 2.6 2.9 2.3 1.1-.3 1.6-1.1 1.5-2.3l1.2-.3c.2 1.7-.7 3.1-2.5 3.6zM336.4 260.7c.3-.9 1-1.5 2.1-1.8 1.7-.4 2.7.4 3 1.9l1.2 5-1.2.3-1.1-4.7c-.2-1-.7-1.6-2-1.3-1.5.4-1.8 1.6-1.4 3.2l.9 3.7-1.2.3-2.5-10 1.2-.3 1 3.7z"/></g><path class="st2" d="M568.8 319.9l7.9-19.4c3.1-7.6 11.7-11.2 19.3-8.1l19.4 7.9c7.6 3.1 11.2 11.7 8.1 19.3l-7.9 19.4c-3.1 7.6-11.7 11.2-19.3 8.1l-19.4-7.9c-7.5-3.1-11.1-11.7-8.1-19.3z"/><path class="st3" d="M614.6 327.3c-.8-1.2-2-2.1-3.3-2.6-2.4-1-4.7-.8-5.7.3l-.2-.1c.1-1.5-1.5-3.3-3.8-4.3-1.3-.6-2.8-.8-4.2-.5l-4.5 11.1c-1.1 2.8-4.3 4.1-7 3-2.8-1.1-4.1-4.3-3-7 .2-.6.9-.9 1.6-.7.6.2.9.9.7 1.6-.6 1.5.1 3.3 1.7 3.9 1.5.6 3.3-.1 3.9-1.7l4.5-11.1c-.8-1.2-2-2.1-3.3-2.6-2.4-1-4.7-.8-5.7.4l-.2-.1c.1-1.5-1.5-3.3-3.8-4.3-1.3-.6-2.8-.8-4.2-.5 3.9-7.6 13.9-10.8 23.3-7.5l.3-.8c.2-.6.9-.9 1.6-.7.6.2.9.9.7 1.6l-.3.8c8.5 4.4 13.4 13.7 10.9 21.8z"/><g class="st4"><path d="M554.1 344l-1.3-.5 3.9-9.5 1.3.5-3.9 9.5zM559.5 339.4c.9-.6 1.8-.7 2.9-.3 1.7.7 1.9 1.9 1.3 3.4l-1.9 4.6-1.1-.5 1.7-4.1c.4-1.1.8-2.1-.7-2.6-1.5-.6-2.4.3-3 1.7l-1.5 3.6-1.1-.5 2.8-6.9 1.1.4-.5 1.2zM569.5 344.5c.3-.9-.2-1.5-1.2-1.9-.9-.4-1.6-.2-1.8.4-.3.8.5 1.3 1.4 1.9 1.1.7 2.4 1.7 1.8 3.2-.5 1.3-2 1.8-3.8 1.1-1.9-.8-2.6-2-2-3.6l1.1.5c-.4 1.1.2 1.8 1.3 2.2 1 .4 1.9.2 2.2-.5.3-.8-.4-1.2-1.3-1.9-1.1-.8-2.6-1.6-2-3.2.5-1.2 1.9-1.6 3.5-1s2.5 1.9 1.9 3.3l-1.1-.5zM575.9 352.9l-1.1-.4.4-1.1c-1 .6-1.9.7-2.9.3-1.4-.6-2-1.8-1.3-3.3l1.9-4.8 1.1.5-1.8 4.4c-.4 1-.4 1.8.8 2.2 1.5.6 2.5-.2 3-1.7l1.5-3.6 1.1.5-2.7 7zM583.6 349.2c-.1-.1-.2-.1-.3-.1-1.9-.8-2.8.5-3.4 2.1l-1.2 2.9-1.1-.5 2.8-6.9 1.1.4-.6 1.5c1-1 2-1.1 3.2-.6l-.5 1.2zM588.2 357.9c-.3 0-.6-.1-.8-.2-.6-.3-.8-.8-.6-1.4-1 .5-1.9.5-2.9.1-1.4-.6-1.9-1.6-1.4-2.9.5-1.2 1.6-1.6 3.3-1.2 1.7.5 2.3.7 2.7-.2.3-.7-.1-1.4-1.1-1.8-1.1-.4-1.8-.3-2.3.7l-1.1-.5c.6-1.5 2.1-1.9 3.8-1.2.9.4 1.6.9 1.9 1.6.3.7 0 1.4-.3 2-.4 1-.9 2-1.3 3.1-.2.5-.2.7.2.9.1 0 .2.1.3.1l-.4.9zm-2.1-4.6c-.9-.2-2-.6-2.5.5-.3.7.1 1.4.9 1.7 1.1.4 2.4.1 2.8-.8l.5-1.3c-.5.3-1.1.1-1.7-.1zM592.7 352.9c.9-.6 1.8-.7 2.9-.3 1.7.7 1.9 1.9 1.3 3.4l-1.9 4.6-1.1-.5 1.7-4.1c.4-1.1.8-2.1-.7-2.6-1.5-.6-2.4.3-3 1.7l-1.5 3.6-1.1-.5 2.8-6.9 1.1.4-.5 1.2zM599.5 362.8c-2.1-.9-2.7-2.8-1.8-4.9.9-2.3 2.8-3.2 4.8-2.4 1.7.7 2.4 2 1.9 3.6l-1.2-.5c.2-1.1-.2-1.8-1.1-2.2-1.3-.5-2.6.2-3.2 1.8-.7 1.7-.3 3 1 3.5 1 .4 2 .1 2.6-1l1.2.5c-.9 1.6-2.4 2.3-4.2 1.6zM606.7 365.7c-2-.8-2.7-2.7-1.8-4.9.9-2.2 2.8-3.2 4.7-2.4 2.3.9 2.4 3.1 1.6 5.1l-.1.2-5.2-2.1v.1c-.6 1.5-.1 2.7 1.2 3.2 1 .4 1.7.2 2.5-.7l1.1.5c-1 1.3-2.4 1.7-4 1zm2.5-6.4c-1.1-.5-2.2 0-2.9 1.3l4 1.6c.5-1.4.1-2.5-1.1-2.9z"/></g><path class="st2" d="M521.3 148.2l6.4-19.9c2.5-7.8 10.8-12.1 18.6-9.6l19.9 6.4c7.8 2.5 12.1 10.8 9.6 18.6l-6.4 19.9c-2.5 7.8-10.8 12.1-18.6 9.6l-19.9-6.4c-7.8-2.4-12.1-10.8-9.6-18.6z"/><path class="st3" d="M566.3 150l-2-4.9-1.8-10.2c-.2-.9-.8-1.7-1.8-2l-14.3-4.6c-.9-.3-1.9-.1-2.6.6l-7.5 7.2-4.4 2.8c-.7.6-1.3 1.4-1.5 2.3l-3.6 11.2c-.3 1 .2 2.2 1.3 2.5l2.8.9c1 .3 2.1-.2 2.5-1.3l1.2-3.6 22.7 7.3-1.2 3.6c-.3 1 .2 2.1 1.3 2.5l2.8.9c1 .3 2.2-.2 2.5-1.3l3.6-11.3c.3-.8.3-1.7 0-2.6zm-25.8-14.9l4.2-4.4c.6-.6 1.4-.8 2.2-.6l12.5 4c.8.2 1.4.9 1.5 1.7l.9 6.1c0 .2-.1.5-.2.6-.2.2-.4.2-.7.1l-8.8-2.9 6-2.9c.2-.1.3-.3.2-.5s-.3-.3-.5-.2l-6.7 3.3-10.2-3.3c-.4-.1-.6-.5-.5-.9-.1 0 0-.1.1-.1zm-2.9 12.1l-4.1-1.3c-.7-.2-1.2-1-.9-1.8.2-.8.9-2.3 1.6-1.9 1.1.5 3.2 1.8 4.3 2.4.7.3 1.1 1 .9 1.8-.3.6-1.1 1-1.8.8zm14.7 4.1c-.2.3-.5.4-.8.3l-8.4-2.7c-.3-.1-.5-.4-.5-.7 0-1 0-1.9.1-2.9.2-.5.7-.7 1.1-.6l9.4 3c.5.1.7.6.6 1.1-.4.9-.9 1.7-1.5 2.5zm8.8 3.5l-4.1-1.4c-.7-.2-1.2-1-.9-1.8.2-.7.9-1 1.8-.9 1.2.2 3.7.3 4.9.6.8.2.4 1.8.2 2.5-.3.7-1.1 1.2-1.9 1 0-.1 0-.1 0 0z"/><g class="st4"><path d="M513.5 175l-1.5-.4-.2-3.3-4.1-1.2-2 2.7-1.4-.4 6.8-8.7 1.5.4.9 10.9zm-2.1-10l-3.1 4.1 3.4 1-.3-5.1zM520.2 177l-1.1-.3.3-1.1c-.9.7-1.8.9-2.9.6-1.5-.4-2.1-1.6-1.7-3.1l1.5-4.9 1.2.4-1.4 4.6c-.3 1-.2 1.8 1 2.2 1.6.5 2.4-.5 2.9-2l1.1-3.7 1.2.3-2.1 7zM526.8 172.3l-1.4-.4-1.2 4.2c-.2.7-.4 1 .5 1.3.2.1.4.1.6.1l-.3 1c-.4-.1-.5-.1-.9-.2-1.8-.5-1.4-1.4-1-3l1.1-3.8-1.2-.4.3-1 1.2.4.6-2.1 1.2.3-.6 2.1 1.4.4-.3 1.1zM533.9 177.2c-.7 2.4-2.4 3.5-4.6 2.8-2.2-.7-3.1-2.5-2.4-4.8s2.5-3.4 4.6-2.8c2.3.7 3.1 2.4 2.4 4.8zm-5.7-1.7c-.5 1.8 0 3 1.5 3.5 1.4.4 2.5-.4 3.1-2.2.5-1.7 0-3-1.4-3.5-1.5-.3-2.7.5-3.2 2.2zM537.2 175.4c.9-.6 1.6-.8 2.7-.5 1 .3 1.5.9 1.6 1.8.9-.6 1.7-.9 2.7-.5 1.5.4 2 1.6 1.6 3l-1.5 5-1.2-.3 1.3-4.5c.3-1 .4-1.8-.9-2.2-1.3-.4-2.1.4-2.5 1.7l-1.2 4.1-1.2-.3 1.4-4.6c.3-.9.3-1.7-.8-2.1-1.6-.5-2.3.6-2.7 1.9l-1.1 3.8-1.2-.3 2.1-7.1 1.1.3-.2.8zM553.7 183c-.7 2.4-2.4 3.5-4.6 2.8-2.2-.7-3.1-2.5-2.4-4.8s2.5-3.4 4.6-2.8c2.2.7 3.1 2.5 2.4 4.8zm-5.7-1.6c-.5 1.8 0 3 1.5 3.5 1.4.4 2.5-.4 3.1-2.2.5-1.7 0-3-1.4-3.5-1.5-.4-2.7.5-3.2 2.2zM558.9 181.8l-1.4-.4-1.2 4.2c-.2.7-.4 1 .5 1.3.2.1.4.1.7.1l-.3 1c-.4-.1-.5-.1-.9-.2-1.8-.5-1.4-1.4-1-3l1.1-3.8-1.2-.4.3-1 1.2.4.6-2.1 1.2.3-.6 2.1 1.4.4-.4 1.1zM559.6 188.7l-1.2-.4 2.1-7.1 1.2.4-2.1 7.1zm2.5-8.4l-1.2-.4.4-1.4 1.2.4-.4 1.4zM564.2 182.3l.2 6.6 3.7-5.4 1.2.4-4.7 6.4-1.3-.4-.5-7.9 1.4.3zM571.3 192.5c-2.1-.6-3-2.4-2.3-4.7s2.5-3.5 4.5-2.9c2.4.7 2.7 2.8 2.1 4.9v.2l-5.4-1.6v.1c-.5 1.5.1 2.7 1.5 3.1 1 .3 1.7 0 2.4-1l1.1.3c-.9 1.5-2.2 2.1-3.9 1.6zm1.9-6.7c-1.1-.3-2.2.2-2.8 1.5l4.2 1.2c.3-1.3-.2-2.3-1.4-2.7z"/></g><path class="st5" d="M423.7 171.8v-20.9c0-8.2 6.6-14.8 14.8-14.8h20.9c8.2 0 14.8 6.6 14.8 14.8v20.9c0 8.2-6.6 14.8-14.8 14.8h-20.9c-8.2 0-14.8-6.6-14.8-14.8z"/><path class="st3" d="M450.9 152.2c-6.6 0-12.7 3.8-15.6 9.7 2.9 6 8.9 9.8 15.6 9.8 5.6 0 11.9-2.7 15.1-6.9 1.4-2 2.6-4.2 3.4-6.5-2.1.7-4.4.4-6.2-.9-4.8-4-6.8-5.2-12.3-5.2zm7.6 5.2c1.8 1.2 3.4 2.8 4.5 4.6-1.2 1.8-2.7 3.4-4.6 4.6-4.7 3-10.7 3-15.4-.1-1.8-1.2-3.4-2.8-4.5-4.6 1.2-1.8 2.7-3.4 4.6-4.6l.4-.2c-.3.9-.5 1.8-.5 2.7 0 4.3 3.5 7.8 7.8 7.8s7.8-3.5 7.8-7.8c0-.9-.2-1.8-.5-2.7l.4.3zm-7.7 1.4c0 1.6-1.3 2.9-2.9 2.9s-2.9-1.3-2.9-2.9c0-1.6 1.3-2.9 2.9-2.9 1.6 0 2.9 1.3 2.9 2.9z"/><g class="st4"><path d="M437.8 195c-.1-1.4-1-1.9-2.4-1.9s-2.2.6-2.2 1.6c0 1.1 1.1 1.3 2.6 1.6 1.6.3 3.5.8 3.5 2.8 0 2.1-1.9 2.9-3.7 2.9-2.3 0-4-1.1-4-3.4h1.2c.1 1.7 1.3 2.3 2.9 2.3 1.1 0 2.4-.4 2.4-1.7 0-1.2-1.2-1.5-2.8-1.8-1.5-.3-3.3-.6-3.3-2.6s1.7-2.7 3.5-2.7c2 0 3.4.9 3.5 3h-1.2v-.1zM446.9 201.7c-.2.1-.5.1-.8.1-.6 0-1-.4-1-1-.7.8-1.4 1.1-2.5 1.1-1.4 0-2.2-.8-2.2-2s.8-2 2.5-2.2 2.2-.2 2.2-1.1c0-.7-.6-1.1-1.6-1.1-1.1 0-1.6.4-1.7 1.4h-1.1c0-1.5 1.1-2.4 2.9-2.4.9 0 1.7.2 2.2.7s.5 1.2.5 1.8c0 1-.1 2.1-.1 3.1 0 .5.1.7.5.7h.3l-.1.9zm-3.4-3.1c-.8.1-2 .2-2 1.3 0 .7.5 1.2 1.4 1.2 1.1 0 2.1-.7 2.1-1.6v-1.3c-.4.3-1 .3-1.5.4zM449.2 201.8H448v-9.6h1.2v9.6zM457.3 198.3c0 2.4-1.2 3.7-3.3 3.7-2.1 0-3.4-1.4-3.4-3.7s1.3-3.7 3.4-3.7 3.3 1.4 3.3 3.7zm-5.5 0c0 1.7.8 2.7 2.2 2.7 1.3 0 2.2-1 2.2-2.7s-.8-2.7-2.2-2.7c-1.4 0-2.2 1-2.2 2.7zM459.7 195.9c.6-.8 1.3-1.3 2.4-1.3 1.7 0 2.3.9 2.3 2.5v4.6h-1.1v-4.1c0-1.1-.1-2-1.5-2-1.5 0-2 1.1-2 2.5v3.6h-1.1v-6.9h1.1l-.1 1.1zM470.1 196.8c-.1-.9-.7-1.3-1.7-1.3-.9 0-1.4.4-1.4.9 0 .8.9.9 1.8 1.1 1.2.3 2.7.6 2.7 2.1 0 1.3-1.1 2.2-2.9 2.2-1.9 0-2.9-.8-3-2.4h1.1c.1 1 .8 1.5 1.9 1.5 1 0 1.7-.5 1.7-1.2 0-.8-.8-.9-1.7-1.2-1.2-.3-2.8-.4-2.8-2 0-1.2 1-2 2.6-2s2.8.8 2.8 2.2l-1.1.1z"/></g><path class="st2" d="M339.3 122.9l20.5-4.4c8-1.7 15.9 3.4 17.6 11.4l4.4 20.5c1.7 8-3.4 15.9-11.4 17.6l-20.5 4.4c-8 1.7-15.9-3.4-17.6-11.4l-4.4-20.5c-1.8-8 3.3-15.9 11.4-17.6z"/><path class="st3" d="M368.9 137.6l-.3-1.4c-.3-1.5-1.9-2.5-3.4-2.2l-2.2.5c-1.5.3-2.5 1.9-2.2 3.4l.8 3.8-14.9 3.2-.8-3.8c-.3-1.5-1.8-2.5-3.4-2.2l-2.2.5c-1.5.3-2.5 1.8-2.2 3.4l.3 1.4c-1.6.4-2.6 1.9-2.3 3.5l1 5c.4 1.6 1.9 2.6 3.5 2.3l.3 1.4c.3 1.5 1.8 2.5 3.4 2.2l2.2-.5c1.5-.3 2.5-1.9 2.2-3.4l-.8-3.8 14.9-3.2.8 3.8c.3 1.5 1.8 2.5 3.4 2.2l2.2-.5c1.6-.3 2.5-1.9 2.2-3.4l-.3-1.4c1.6-.4 2.6-1.9 2.3-3.5l-1.1-5c-.2-1.6-1.8-2.6-3.4-2.3z"/><g class="st4"><path d="M358.7 185.2l-.8.2-.6-1.1c-.6 1.1-1.4 1.8-2.7 2-2.7.6-4.9-1-5.5-3.9-.6-2.7.6-5.3 3.5-5.9 1.9-.4 4 .3 4.6 2.2l-1.2.3c-.4-1.2-1.7-1.8-3.1-1.5-2 .4-3 2.2-2.5 4.6.5 2.3 2.1 3.6 4.1 3.1 2-.4 2.6-2 2.3-3.8l-3 .6-.2-1 4.1-.9 1 5.1zM363.3 185.2c-.2 1-.4 2-1.6 2.3-.3.1-.6.1-.9.1l-.2-1h.8c.4-.1.6-.4.7-.7l.3-1.3-4.1-6.2 1.3-.3 3.2 5 .8-5.8 1.2-.2-1.5 8.1zM366.8 177.5c.4-.9 1-1.4 2-1.6.9-.2 1.6 0 2.1.8.4-.9 1-1.4 2-1.7 1.4-.3 2.3.4 2.6 1.8l1 4.7-1.1.2-.9-4.3c-.2-1-.5-1.7-1.7-1.4-1.3.3-1.6 1.2-1.3 2.5l.8 3.9-1.1.2-.9-4.4c-.2-.9-.5-1.6-1.6-1.3-1.5.3-1.6 1.5-1.3 2.8l.8 3.6-1.1.2-1.4-6.8 1.1-.2v1z"/></g><ellipse transform="rotate(-83.881 119.186 607.009)" class="st1" cx="119.2" cy="607" rx="21.5" ry="114.7"/><path class="st6" d="M28.3 582.4l-2.7 12.7 6.9 1.5.7-3.1 3.6 4 32 6.8L43 585.5zM186.8 600.3l-1.1 13 7 .6.3-3.2 4.1 3.5 32.7 2.7-28-15.3z"/><path class="st2" d="M143.5 381.1l32 114.6 24.4 105.7-12.8-1.1-38.5-99-54.4-120.2z"/><path class="st2" d="M130.8 381.1l-29 121.6-60.3 82.5-12.6-2.7 46.4-83.7L80.9 380z"/><path class="st3" d="M138.1 352.3l-24.3-60.2 28-15.2 13.1 20.3 17.9 44.5z"/><path fill="#ffe600" stroke="#000" stroke-width=".5" stroke-miterlimit="10" d="M145.2 386l4.3-79.9-7.7-29.2-14.4-6.9h-21.6l-27 9.1-6.7 34.7 8 71.4z"/><path class="st3" d="M78.7 279.1l-18.2 25.4-12.7 49.2c-.8 3.2 1 6.4 4.2 7.3 1.3.3 2.6.3 3.8-.3l58-23.8-3.2-9.6-34.4 6.1 6-11.6 6.1-25.1-9.6-17.6z"/><path class="st5" d="M81.1 292.6l19.7-4.2c7.7-1.6 15.3 3.3 17 11l4.2 19.7c1.6 7.7-3.3 15.3-11 17l-19.7 4.2c-7.7 1.6-15.3-3.3-17-11l-4.2-19.7c-1.6-7.7 3.3-15.3 11-17z"/><path transform="rotate(-21.952 94.14 314.249)" class="st3" d="M81.2 297.6h25.9v33.3H81.2z"/><path transform="rotate(-21.952 89.748 303.251)" class="st5" d="M80.4 301.9h18.7v2.7H80.4z"/><path transform="rotate(-21.952 97.942 323.597)" class="st5" d="M88.6 322.9h18.7v1.4H88.6z"/><path transform="rotate(-21.952 98.848 325.907)" class="st5" d="M89.5 325.2h18.7v1.4H89.5z"/><path class="st5" d="M87.6 323l3.7-7.3 3.8 1 2.1-5.9 8.2 5.1z"/><circle class="st5" cx="91.8" cy="310.9" r="1.9"/><path transform="rotate(-4.003 101.51 314.725) scale(1.00004)" class="st3" d="M88.5 298h26v33.4h-26z"/><path transform="matrix(.9978 -.06576 .06576 .9978 -19.68 7.174)" class="st5" d="M89.8 301.2h18.7v2.7H89.8z"/><path transform="matrix(.9978 -.06576 .06576 .9978 -21.12 7.314)" class="st5" d="M91.2 323.8h18.7v1.4H91.2z"/><path transform="matrix(.9978 -.06576 .06576 .9978 -21.277 7.332)" class="st5" d="M91.4 326.2h18.7v1.4H91.4z"/><path class="st5" d="M90.9 320.7l5.9-5.8 3.3 2.1 3.8-5 6.2 7.4z"/><circle class="st5" cx="98.7" cy="310.5" r="1.9"/><path class="st2" d="M99.9 335.4l3.5-19.9c1.4-7.8 8.8-12.9 16.6-11.6l19.9 3.5c7.8 1.4 12.9 8.8 11.6 16.6l-3.5 19.9c-1.4 7.8-8.8 12.9-16.6 11.6l-19.9-3.5c-7.8-1.4-13-8.8-11.6-16.6z"/><g id="YsoBdv.tif"><path class="st3" d="M141.3 336.9c-.5 2.8-.9 5.5-1.5 8.2-.4 1.6-2 2.5-3.6 2.2-3.1-.5-6.2-1.1-9.3-1.6l-15.5-2.8c-1.7-.1-3.1-1.6-3-3.3 0-.3.1-.5.1-.8.4-2.5.9-4.9 1.3-7.4l31.5 5.5zM113.6 330.2c-1-.2-1.9-.3-2.8-.5-.2-.1-.4-.3-.4-.6.6-8.8 8.3-15.4 17.1-14.8 8 .6 14.3 7 14.8 15-.1 1.8-.4 3.5-.9 5.3-.1.2-.3.4-.6.4-.9-.1-1.8-.3-2.8-.5 2.2-6 1.2-11.2-3.8-15.3-3.8-3.3-9.2-3.9-13.6-1.4-4.8 2.5-7.1 6.8-7 12.4z"/><path class="st3" d="M125.8 332.4c-1-.2-1.9-.3-2.8-.5-.4-.1-.7-.3-.9-.6-.8-1.8-.5-3.9.8-5.3 1.4-1.4 3.6-1.8 5.5-1 1.8.8 2.9 2.6 2.8 4.5 0 1.2-.5 2.3-1.3 3.1-.3.3-.8.4-1.2.4-1-.2-1.9-.4-2.9-.6zm-1-3.4c-.2.9.4 1.7 1.3 1.9.9.2 1.7-.4 1.9-1.3s-.4-1.7-1.3-1.9c-.9-.2-1.7.4-1.9 1.3 0-.1 0 0 0 0zM119.6 325.6l-1.8-1.2c1.5-2.4 4-4.2 6.8-4.8l.5 2.2c-2.3.5-4.2 1.9-5.5 3.8z"/></g><path class="st3" d="M47.8 353.7c-.8 3.2 1 6.4 4.2 7.3 1.3.3 2.6.3 3.8-.3l58-23.8-3.2-9.6-34.4 6.1M113.8 267.4c-1.2-1.6 0-17.3 0-17.3h15.3l-1.7 19.9s-10.5 1.6-13.6-2.6z"/><path class="st3" d="M110.8 261.4l-9 8.6 10.6 17.2 8.8-14.8 2.5-.5 4.7 15.3 8.1-15.3-6.9-8.7-7.1 6z"/><g id="Layer_9"><path class="st3" d="M143.8 226.8c-3-7.4-2.2-7.6-4.3-10.8-3.4-5.4-7.3-11.1-13.3-13.5-3.5-1.1-7.1-1.7-10.7-1.5-2.7-.2-5.4.1-8 .8-2.2.7-4.2 1.8-5.9 3.2-5.1 3.9-8.6 9.4-9.9 15.7-3.1 16.6 10.8 28.9 24 34.9 5 2.2 13.8 3.6 18.6 1.1 13.4-7.8 12.5-22.8 9.5-29.9z"/><path class="st8" d="M119.8 224.4c-3.9.1-8.6 3.3-9.3 5.8M138.3 218.6c-3-1.6-6.7-1.1-9.3 1.2"/><path class="st3" d="M131 240.6c.8-.8 1.6-1.6 2.3-2.4.2-.2.3-.4.4-.7.2-.6-.3-1.3-.7-1.8l-2.4-2.6"/><ellipse transform="rotate(-35.055 120.497 235.1)" class="st9" cx="120.5" cy="235.1" rx="1.6" ry="2.1"/><ellipse transform="rotate(-19.387 136.21 228.392)" class="st9" cx="136.2" cy="228.4" rx="1.5" ry="1.9"/><path class="st6" d="M102.8 235.1s-5.5-3.5-6.2-.2c-.2 1.1 2.9 7.2 9.7 7.9 0 0-1.4 6.9 2.6 9.1 0 0-7.7-1.4-20.4-16.6 0 0-11.5-12.8 5.3-23.2 1.1-13.9 15.4-20.1 34-17.1 0 0 12.6 8.9 13.8 24.2l-3.7-5.1s-21.1 9.3-32.9 2c-3.7 2-2.5 5.8-2.2 19z"/></g><path class="st10" d="M123.6 246.2s9.9 1.3 12.9-2.5c0 0-3.4 14.1-12.9 2.5z"/><path class="st3" d="M110.7 327.2s9.3-6.9 10.7-5.5-1.3 3.2-1.3 3.2 7.8-2.6 10.5-1.2c3.5 1.8 3.3 6.8-16.8 13.1l-3.1-9.6zM172.8 341.7l-51.6 21.6-3.2-6.3 34.7-26.3M118 357s-10.6-.1-10.6 1.3 2.3 2.4 2.3 2.4-12.2 5.1-8.8 7.5 13.5.2 20.3-4.8L118 357z"/><ellipse transform="rotate(-6.552 733.402 608.802)" class="st1" cx="733.4" cy="608.8" rx="109.7" ry="20.6"/><path class="st6" d="M789.8 580.8l2.3 11.6-6.4 1.2-.5-2.8-3.4 3.6-29.5 5.6 24-16.7zM698.1 611.2l-4.2 11.2-6-2.3 1-2.7-4.8 1.3-28-10.4 29.1-1.9z"/><path class="st11" d="M725.5 389.7l-14 99.2 67.1 93.9 11.2-2.1-45.9-91.2 15.8-96.7z"/><path class="st11" d="M792.1 393.8l-4.3 33-90 184.9-11.6-4.9 57.7-180-4-6.1 4-22.2z"/><path class="st3" d="M766.4 290.2c1.2-1.6 0-17.4 0-17.4h-15.3l1.7 19.9c0 .1 10.5 1.7 13.6-2.5z"/><g id="Layer_9-2"><path class="st3" d="M736.3 249.6c3-7.4 2.2-7.6 4.3-10.9 3.5-5.4 7.3-11.1 13.3-13.5 3.5-1.1 7.1-1.6 10.8-1.5 2.7-.2 5.4.1 8 .8 2.2.7 4.2 1.8 6 3.2 5.1 3.9 8.6 9.5 9.9 15.7 3.1 16.7-10.8 28.9-24.1 34.9-5 2.2-13.8 3.6-18.6 1.1-13.5-7.8-12.5-22.7-9.6-29.8z"/><path class="st8" d="M760.3 247.2c3.9.1 8.7 3.3 9.3 5.8M741.8 241.4c3-1.6 6.7-1.1 9.3 1.2"/><path class="st3" d="M749.2 263.3c-.8-.8-1.6-1.6-2.3-2.4-.2-.2-.3-.4-.4-.7-.2-.6.3-1.3.8-1.8l2.4-2.6"/><ellipse transform="rotate(-54.942 759.633 257.748)" class="st9" cx="759.6" cy="257.8" rx="2.1" ry="1.6"/><ellipse transform="rotate(-70.61 743.89 251.146)" class="st9" cx="743.9" cy="251.2" rx="2" ry="1.5"/><path class="st6" d="M777.4 257.8s5.5-3.5 6.2-.2c.2 1.1-2.9 7.2-9.7 7.9 0 0 1.4 6.9-2.6 9.2 0 0 7.8-1.4 20.4-16.6 0 0 11.5-12.8-5.3-23.2-1.1-13.9-13.6-22.7-32.3-19.6-8.7 6.3-14.3 16-15.5 26.7 0 0 3.3-9 12.4-11.9 0 0 9.6 14.4 21.4 7.2 0 0 7.5 3.1 5 20.5z"/></g><path class="st10" d="M756.5 269s-9.9 1.3-12.9-2.5c.1 0 3.5 14.1 12.9 2.5z"/><path class="st2" d="M723.5 404.1l68.6 5.1 1.3-81.9s-6.1-10.5 0-29.9l-22.3-11-12.1 3.4-12.6-3.8-18.2 10.1-2.4 38.8-2.3 69.2z"/><path class="st3" d="M793.4 297.5l11.4 9.6 20.7 61.6-52.3 24.1-2.1-9.6 30.1-24.8-17.3-34.5zM728.2 296.1l-4.7 3.6-21.5 58.7 31.7 26 2.8-7.8-13-23.7 1.8-10.7z"/><path class="st5" d="M721.8 331.3l18.4-9c7.2-3.5 15.9-.5 19.4 6.7l9 18.4c3.5 7.2.5 15.9-6.7 19.4l-18.4 9c-7.2 3.5-15.9.5-19.4-6.7l-9-18.4c-3.5-7.2-.5-15.9 6.7-19.4z"/><path class="st3" d="M745.6 336.9c-2.9 1.4-4.1 4.9-2.7 7.8l7 14.4c.4.7 1.2 1 2 .7l7.9-3.8c.7-.3 1-1.2.7-2l-7-14.4c-1.5-2.9-5-4.1-7.9-2.7zM742.7 352.9l-4.5-8.4c-.5-.9-1.5-1.3-2.4-1.2l-1.9-4c-.4-.7-1-1.2-1.8-1.5l-5.1-1.2c-.2-.1-.5-.1-.8 0-.2.1-.4.3-.4.5s0 .5.1.7l4 8.3c-.8.7-1 1.7-.6 2.6l3.8 8.7c-.5.4-.6 1.1-.3 1.7l3.2 6.6c.3.7 1.2 1 2 .7l8.6-4.2c.7-.4 1-1.3.7-2l-3.2-6.6c-.2-.6-.8-.9-1.4-.7zm-7.9 3.7l-3.3-7.5c-.2-.5 0-1 .5-1.2l4-1.9c.5-.2 1 0 1.3.4l3.9 7.3-6.4 2.9z"/><path class="st5" d="M752.1 343.6l8.3-18.8c3.2-7.3 11.8-10.7 19.1-7.4l18.8 8.3c7.3 3.2 10.7 11.8 7.4 19.1l-8.3 18.8c-3.2 7.3-11.8 10.7-19.1 7.4l-18.8-8.3c-7.3-3.2-10.6-11.8-7.4-19.1z"/><path class="st3" d="M794.8 342.6l-5.5-2.4c.4-1 0-2.2-1-2.6l-2-.9 4.7-1.8c1.1-.3 1.7-1.4 1.4-2.5s-1.4-1.7-2.5-1.4c-.1 0-.3.1-.4.1l-6 2.3-2.3-6c-.5-1-1.7-1.4-2.7-.9-.9.4-1.3 1.4-1.1 2.4l1.8 4.7-2-.9c-1-.4-2.2 0-2.6 1l-5.5-2.4c-1-.4-2.2 0-2.6 1l-7.7 17.4c-.4 1 0 2.2 1 2.6l25.5 11.2c1 .4 2.2 0 2.6-1l7.6-17.3c.7-.9.3-2.1-.7-2.6zm-13.5 14.2l-17-7.5 5.6-12.8 17 7.5-5.6 12.8zm4.1 2.4c-1-.4-1.5-1.6-1-2.6.4-1 1.6-1.5 2.6-1 1 .4 1.5 1.6 1 2.6s-1.6 1.4-2.6 1zm2.4-5.5c-1-.4-1.5-1.6-1-2.6.4-1 1.6-1.5 2.6-1s1.5 1.6 1 2.6-1.6 1.4-2.6 1z"/><path class="st2" d="M739.1 346.6l17.4-9.3c6.8-3.6 15.3-1.1 18.9 5.8l9.3 17.4c3.6 6.8 1.1 15.3-5.8 18.9l-17.4 9.3c-6.8 3.6-15.3 1.1-18.9-5.8l-9.3-17.4c-3.6-6.8-1-15.3 5.8-18.9z"/><path class="st3" d="M777.4 363.3l-6.9-2.1c-1.4-.4-2.9.4-3.3 1.8l-1.1 3.5h-.6c-2.6 0-5.1-.3-7.6-1-2.4-.8-4.8-1.9-6.9-3.4l-.5-.3.7-2.3.3-1.1c.4-1.4-.3-2.9-1.7-3.3l-6.9-2.1c-1.4-.4-2.9.4-3.3 1.8l-.6 2c-.1.8-.2 1.6-.1 2.4.1.7.3 1.4.5 2.1 2 5.2 6.7 8.5 16.1 11.4 13 3.9 19.4-.3 19.7-.5.6-.4 1.2-.9 1.6-1.5.5-.6 1-1.3 1.3-2l.6-1.9c.8-1.5 0-3-1.3-3.5zM702 358.4l31.7 26 2.8-7.8-18.6-20M825.5 368.7l-52.3 24.1-2.1-9.6 30.1-24.8"/><path class="st3" d="M771.1 383.2S761 380 761 381.9c0 1.4 1.2 2.5 2.6 2.5h.1s-12.2 1.4-10 5.3 19.5 3 19.5 3l-2.1-9.5zM736.5 376.6s10.8-2.2 10.7 0-3.1 1.9-3.1 1.9 9.1.4 9.8 3.5c.6 2.5-4.6 7.2-20.2 2.5l2.8-7.9zM767 280.8l-12.3 6.4-3.6-5.1-7.2 5.4 2.5 8.6 7.5-5.6 7.8 8.5 9.4-12.5z"/><path class="st9" d="M470.7 318.3C489.3 327.6 513 299 513 299s12.4-7 11.5-18.5c0 0-5 9.9-21.3-2.8-8.1-6.4-12.1-16.5-18.4-24.7 0 0-11.5-14.5-28.6-18.9 0 0-13.3-5.2-29 3.7 0 0-14.5 7.7-15 23.6 0 0-2.7 19.9 16.6 35.4 3.9 3.1 7.1 6.8 9.6 11.1l29.2 8.4"/><path class="st12" d="M432.2 434.5s-87.3 181-101.8 213.2h-11l78.2-256.4c0-.1 38.7-8 34.6 43.2z"/><path class="st12" d="M420.4 398.5s40.2 210.2 44 245.2l11.6 5.5-5-234.9s-4.4-16.5-8.9-22c-11.5-14.2-32-23.3-41.7 6.2z"/><path class="st9" d="M475.8 642.7c6.2 12 20 20.6 33.2 23.4h-34.4l-6.1-9.8-2.5 9.8h-3.4l1.8-22.4 11.4-1zM332.2 642.7l1.3 23.4h-3.4l-2.5-9.8-6.1 9.8h-34.4c13.2-2.8 27.7-11.4 33.9-23.4h11.2z"/><path class="st3" d="M495.3 276l12.7-52.1 8.3 2.6-6 56.2-46.2 56.6-11.9-21zM386 272.6v-53.7l-8.7.6-7.5 56 30.9 67.8 17-19.4z"/><path class="st3" d="M409.5 306.5s17.5 1.9 20.4-5.5-1.4-11.5-1.4-11.5l16.6-2.2s-2 14.5 8.2 18.2c.7.2 12.2 1.2 13 1.3 0 0-3.5 25.4-6.6 38.6-5.2 22-23.1 36-32.4 37.9-9 1.9-28.2-19.6-30.3-41.1-1.4-14.4 13.3-29.2 12.5-35.7zM386 218.9s7.8-10.8 4.6-10.4c-.7.1-2.4 1.4-2.7 1.1-1.1-1.1-.8-3.9-2.4-8.2-2-5.2-9.3-2.6-8.1 18.1l8.6-.6z"/><path class="st3" d="M447.5 286.4c-4.3 3.5-9.8 6.6-15.2 5.4-4-.9-7.2-4-9.5-7.4-2.4-3.7-2.7-4.5-4.3-8.6-1.2-2.5-1-3.4-1.5-6.2-.4-4 0-8.3 1.2-12 2-6.3 4.2-11.7 9.5-15.6 3.1-2 6.6-3.5 10.3-4.3 2.6-.9 5.4-1.3 8.1-1.4 2.3.1 4.6.7 6.7 1.6 6.1 2.5 11 7.1 14 12.9 7.4 15.6-7.8 26.2-19.3 35.6z"/><path class="st6" d="M418 277l-3.4-5.9 1.2-13 9.6-16.1 11.6-7.2 14.4.9 10.9 5.4 10 17.6-3.6 15.7-6.5 8.8s-10.3-9.9-8-32.1c0 0-21.1-6.4-20.7-12.1-.1 0-25.1 13.4-15.5 38z"/><path class="st3" d="M440.7 254.4c5.9-3 7.7-.3 10.9 2.4M431.5 251.9c-1.9-2.1-4.9-1.7-7.7-1.2M436.8 264c-1-.5-2-1.1-3-1.8-.2-.1-.4-.3-.6-.6-.3-.6 0-1.3.3-1.9l1.6-3.2M435.9 276.8c-.8.2-1.5.4-2.3.7-.2.2-.5.3-.7.4-1 .3-2.1-.5-2.5-1.5-.3-1-.5-2.1-.7-3.2-.3-.9-.7-1.7-.9-2.6-.1-.2 0-.5.1-.7.2-.4.8-.5 1.3-.4 3.4.4 6.7 1.5 9.7 3.3.1 0 .2.1.3.2.4.6-.9 1.9-1.3 2.3-.9.8-2 1.3-3 1.5z"/><path class="st13" d="M430.6 278.6c.9.6 2.1.7 3.1.4 1.1-.3 2-.8 2.9-1.4.7-.5 1.4-1 2-1.5.5-.4 1-.8 1.4-1.3s.6-1.1.5-1.8c-1 .9-2.2 1.7-3.4 2.3-1.6.8-3.5 1.2-5.3 1-.6-.1-1.6-.6-2.1 0-.4.6.2 1.9.9 2.3z"/><path class="st13" d="M428.2 268.7c2.2-.7 4.6-.5 6.7.4s4 2.1 5.8 3.5c.1.1.2.2.2.3s-.2.2-.4.1c-2.1.1-4.2-.9-6.2-1.6-1.7-.5-3.4-.7-5.1-.7-1.5.4-3.1-1.2-1-2z"/><ellipse transform="rotate(-66.945 444.897 257.698)" class="st9" cx="444.9" cy="257.7" rx="2" ry="1.6"/><path class="st10" d="M441 257s4-3.3 6.5 0c2.5 3.2 4.8 2.5 4.8 2.5"/><ellipse transform="rotate(-.888 427.7 254.842) scale(1.00002)" class="st9" cx="427.7" cy="254.8" rx="1.6" ry="2"/><path class="st10" d="M431.5 256.4s-1.6-4.9-5.5-3.5c-3.8 1.4-5.4-.4-5.4-.4"/><path class="st5" d="M369.8 275.5l27.3 59.8s-.8 5.9-.7 7.9c.4 6.1 3.6 16.8 5.4 23.8s-4.2 24.3-4.2 24.3 27.2 17.2 64.6 1.1c0 0-8.8-18.2-6.7-23.6 2.1-5.4 2.5-9.9 8.1-21.6l46.7-64.4 6-56.2-8.3-2.6-12.7 52-19.3 19.1-10.6 10.1-8.9.6-13.7 10.5-17.6-.8-3.2-9.5-6.9.7-17.8-15.7-11.3-18.4.1-53.7-8.7.6-7.6 56z"/><path class="st3" d="M508 223.9s-5-12.3-2-11.2c.6.2 2 1.9 2.4 1.7 1.4-.8 1.7-3.6 4.3-7.4 3.2-4.6 9.6-.3 3.6 19.5l-8.3-2.6z"/><path class="st5" d="M402.6 348.2s7 3.9 13.6-1.1M432.7 347.1s8.6 7.2 19.9 2.6"/></svg>