<svg version="1.1" id="Layer_1" xmlns="http://www.w3.org/2000/svg" x="0" y="0" viewBox="0 0 930.3 629.2" xml:space="preserve"><style>.st1,.st3,.st4{fill:#ccc;stroke:#000;stroke-width:.5;stroke-miterlimit:10}.st3,.st4{fill:none}.st4{fill:#e5e5e5}.st5{fill:#ccc}.st6{fill:#fff;stroke:#000;stroke-width:.5;stroke-miterlimit:10}.st7{enable-background:new}.st8{fill:#aaa;stroke:#000;stroke-width:.5;stroke-miterlimit:10}.st9{fill:#1a1a1a}.st10,.st12,.st13,.st14,.st15{fill:#1a1a1a;stroke:#000;stroke-width:.5;stroke-miterlimit:10}.st12,.st13,.st14,.st15{fill:#0077bf}.st13,.st14,.st15{fill:#ffe600}.st14,.st15{fill:#afafaf}.st15{fill:#eb058c}.st16{fill:#fff}.st17{fill:#c10072}.st18{fill:#c1c1c1;stroke:#000;stroke-width:.5;stroke-miterlimit:10}</style><path d="M313 616.8s-110.9 52.6-224.4-59.4c-74.7-73.7-104.4-281.8 36.6-418.2 0 0 101-100.5 268.8-132.5C466.2-7.1 576.9-6 689.2 72.5c97 67.7 135.3 123.4 169 194.9C897 349.9 896.5 538.6 727 604.5c-40 15.6-127.8 24.2-183.9-49.5 0 0-80.1-42-230.1 61.8z" fill="#f5f5f5" id="Layer_7"/><path class="st1" d="M.2 352.2l190.1-169.5 10.5 2.1 19.6-19.1s11.5 9.9 17.2 17 15.3 11.1 21 14.7c5.7 3.6 44.9 33.6 44.9 33.6l93.1 103.6-172.4 105.6M930.2 412.4s-68-76.8-81.4-94-31.5-39.6-56.4-59.7-84.5-97.9-86.9-99.3-6.2 3.2-6.2 3.2c-6.7-3.5-26.3-31.4-31-30s-28.7 23.9-34.4 33.1c-4.5 7.2-25.6 27-34.6 35.2-2.5 2.3-186.8 171.5-186.8 171.5l210.3 164.7"/><path d="M491.3 92.1l-16.2-19.6s-52.8 41.7-59 49.5-11.4 3.5-17.4 6.9c-6 3.3-81.9 82-81.9 82s-8.6-1.6-16.2-2.2-54.4 39.5-70.7 57.2S31.2 453.1 31.2 453.1s25.8 25.8 44.9 36.8 110.8 93.1 189.6 93.6 81.9-3.3 130.5 12.4 140.8 10.5 236.7-20.5 157.1-29.6 172.4-27.2 69.7 12.4 91.2-9.6c0 0-64-74.5-73.5-86.4s-7.2-33.9-41.5-58.3-92.7-84.2-112.7-110.6-40.6-71-88.3-98.4-42.2-28.8-50-42.6-39.2-50.2-39.2-50.2z" fill="#e5e5e5"/><path class="st3" d="M896.5 538.6s-64-74.5-73.5-86.4-7.2-33.9-41.5-58.3-92.7-84.2-112.7-110.6-40.6-71-88.3-98.4-42.2-28.8-50-42.6-39.1-50.1-39.1-50.1l-16.2-19.6s-52.8 41.7-59 49.5-11.4 3.5-17.4 6.9c-6 3.3-81.9 82-81.9 82s-8.6-1.6-16.2-2.2-54.4 39.5-70.7 57.2S31.2 453.1 31.2 453.1"/><path class="st4" d="M567.6 326.6s-11.3-5.3-17.3-.3c-7.7 6.4-3.8 13.7-3.8 13.7M346.2 531.5s11.5-8 21.5 0 11.4 15 11.4 15M472.3 453.9s1.1-10.3 12.9-14.5 23.7 4.3 23.7 4.3M423.6 275.1s-3.9-5.2-7.7 4.3 5.4 14.6 5.4 14.6M481 113.9s6.2-3.6 10.8 3.3-3.2 9-3.2 9M599.2 329.4s7.9-8.1 9-11.1 11-8.1 17-5.5 4.9 2 4.9 2"/><path class="st5" d="M502.9 438.1c3.5 5.1-27.7 32.5-69.6 61.2-41.9 28.7-62 37.2-65.5 32.1-1.5-2.3 33.9-30.2 53.6-70.1 24.4-49.4 34.5-110.4 37.5-82.5 10.2 94.3 40.5 54.2 44 59.3zM628 311.9c3.1 2-19.1 12.4-44.8 19.7s-31.8-1.7-32.8-5.2-28.9-101.4-3.1-108.8 7.4 48.6 80.7 94.3z"/><path class="st3" d="M368 158.4s8.9 27.8 17 33.5 25.2-6.4 33.7-1.3 42.1 28.7 60.9 28.9 48.1-28.7 64.1-25.3 36.7-9.4 36.7-9.4M191.2 303.3s20.5-5.6 32.4 1.4 24.4 27 59.2 36.1 39.2 16.4 60.2 18 96-13.3 110.3-18 68-9.3 95.1-3.7 69.6.3 75.8-13.3 34.6-35.2 54.5-28.2M74.9 412.4s118.6 22.1 134.9 33.1 52.5 55.2 82.6 59.9 122.4-58.9 183.9-49.8 145.8 22 202.5 28.6 83-4.8 96.4-18.6 30.6-47.8 30.6-47.8"/><path transform="rotate(-6.662 286.8 127.042)" class="st6" d="M233.7 99.2h106.2v55.7H233.7z"/><g class="st7"><path d="M259.4 137l-12.1 1.4c-.3-4.3 1.6-6.1 4.6-8.5 1.8-1.5 4.1-3.1 3.8-5.8-.2-2.1-1.9-3.3-4-3.1-2.8.3-3.3 2.8-3.1 5.1l-2.3.3-.1-.5c-.4-3.7 1.7-6.4 5.3-6.8 3.5-.4 6 1.4 6.4 4.7.4 3.6-2.2 5.7-4.7 7.7-1.6 1.2-3.4 2.5-3.7 4.7l9.6-1.1.3 1.9zM270.9 123.9c.9-1.8 2.3-2.6 4.3-2.9 3.8-.4 6.5 2 7 6.4s-1.5 7.5-5.2 7.9c-2 .2-3.5-.3-4.8-1.7l.8 7.1-2.2.3-2.2-18.8 2.1-.2.2 1.9zm.6 4.8c.4 3.3 2.2 5.1 4.9 4.8 2.5-.3 3.9-2.5 3.5-5.8s-2.2-5.1-4.8-4.8c-2.6.3-3.9 2.5-3.6 5.8zM297.7 132.5c-.5.2-1 .4-1.5.4-1.3.1-2-.5-2.2-1.8-1.2 1.7-2.6 2.5-4.7 2.7-2.7.3-4.5-1-4.8-3.3-.3-2.4 1.2-4 4.3-4.8 3.2-.8 4.3-.8 4.1-2.7-.2-1.4-1.3-2.1-3.3-1.9-2.1.2-3.1 1.1-3 3.1l-2.2.3c-.3-2.9 1.6-4.8 5.1-5.3 1.8-.2 3.4.1 4.4.8 1.1.8 1.2 2.2 1.3 3.4.2 2 .4 4 .6 6.1.1 1 .4 1.3 1.1 1.2.2 0 .3-.1.5-.1l.3 1.9zm-7.3-5.4c-1.6.4-3.8.8-3.5 3 .2 1.4 1.3 2.1 3 1.9 2.1-.2 4-1.9 3.8-3.7l-.3-2.5c-.8.9-2 1.1-3 1.3zM311.4 129.5c.3 2.3.2 3.4-.3 4.6-.8 1.7-2.6 2.8-5.1 3.1-2.7.3-5.4-.3-6.2-3.3l2.3-.3c.4 1.5 1.7 2.1 3.8 1.8 2.8-.3 3.8-1.8 3.5-4.9l-.2-1.7c-.7 1.8-2 2.7-4 3-3.6.4-6.3-2-6.8-6.2-.4-3.7 1.2-7.4 5.2-7.9 1.9-.2 3.5.4 4.6 1.8l-.2-2 2-.2 1.4 12.2zm-10.7-4.1c.3 3 2.2 4.8 4.5 4.5 2.5-.3 3.8-2.5 3.4-5.8-.4-3.1-2.1-4.7-4.6-4.4-2.5.3-3.7 2.4-3.3 5.7zM320.6 130.3c-4 .5-6.7-1.9-7.2-6.3s1.7-7.6 5.4-8.1c4.5-.5 6.6 2.8 7 6.7v.3l-10.2 1.2v.2c.3 2.9 2.1 4.4 4.8 4.1 1.9-.2 2.9-1.2 3.3-3.3l2.2-.3c-.2 3.3-2.1 5.2-5.3 5.5zm-1.6-12.5c-2.2.3-3.5 2-3.5 4.6l7.9-.9c-.5-2.6-2.1-4-4.4-3.7z"/></g><path transform="rotate(-6.662 343.006 170.44)" class="st8" d="M340.7 93h4.6v154.9h-4.6z"/><path transform="rotate(-6.662 203.106 414.242)" class="st6" d="M150 386.4h106.2v55.7H150z"/><g class="st7"><path d="M175.9 419.7l-2.5.3.5 4.5-2.1.2-.5-4.5-8.2 1-.2-2.1 7-13 1.8-.2 1.4 12.2 2.5-.3.3 1.9zm-5.9-10.3l-5.1 9.7 6.2-.7-1.1-9zM187.2 411.1c.9-1.8 2.3-2.6 4.3-2.9 3.8-.4 6.5 2 7 6.4s-1.5 7.5-5.2 7.9c-2 .2-3.5-.3-4.8-1.7l.8 7.1-2.2.3-2.2-18.8 2.1-.2.2 1.9zm.6 4.8c.4 3.3 2.2 5.1 4.9 4.8 2.5-.3 3.9-2.5 3.5-5.8s-2.2-5.1-4.8-4.8c-2.6.3-3.9 2.5-3.6 5.8zM214.1 419.7c-.5.2-1 .4-1.5.4-1.3.1-2-.5-2.2-1.8-1.2 1.7-2.6 2.5-4.7 2.7-2.7.3-4.5-1-4.8-3.3-.3-2.4 1.2-4 4.3-4.8 3.2-.8 4.3-.8 4.1-2.7-.2-1.4-1.3-2.1-3.3-1.9-2.1.2-3.1 1.1-3 3.1l-2.2.3c-.3-2.9 1.6-4.8 5.1-5.3 1.8-.2 3.4.1 4.4.8 1.1.8 1.2 2.2 1.3 3.4l.6 6c.1 1 .4 1.3 1.1 1.2.2 0 .3-.1.5-.1l.3 2zm-7.4-5.4c-1.6.4-3.8.8-3.5 3 .2 1.4 1.3 2.1 3 1.9 2.1-.2 4-1.9 3.8-3.7l-.3-2.5c-.8.9-2 1-3 1.3zM227.7 416.7c.3 2.3.2 3.4-.3 4.6-.8 1.7-2.6 2.8-5.1 3.1-2.7.3-5.4-.3-6.2-3.3l2.3-.3c.4 1.5 1.7 2.1 3.8 1.8 2.8-.3 3.8-1.8 3.5-4.9l-.2-1.7c-.7 1.8-2 2.7-4 3-3.6.4-6.3-2-6.8-6.2-.4-3.7 1.2-7.4 5.2-7.9 1.9-.2 3.5.4 4.6 1.8l-.2-2 2-.2 1.4 12.2zm-10.7-4.1c.3 3 2.2 4.8 4.5 4.5 2.5-.3 3.8-2.5 3.4-5.8-.4-3.1-2.1-4.7-4.6-4.4-2.4.3-3.7 2.4-3.3 5.7zM236.9 417.5c-4 .5-6.7-1.9-7.2-6.3s1.7-7.6 5.4-8.1c4.5-.5 6.6 2.8 7 6.7v.3l-10.2 1.2v.2c.3 2.9 2.1 4.4 4.8 4.1 1.9-.2 2.9-1.2 3.3-3.3l2.2-.3c-.2 3.3-2.1 5.2-5.3 5.5zm-1.5-12.5c-2.2.3-3.5 2-3.5 4.6l7.9-.9c-.6-2.6-2.2-4-4.4-3.7z"/></g><path transform="rotate(-6.662 259.312 457.64)" class="st8" d="M257 380.2h4.6v154.9H257z"/><path transform="rotate(-77.479 522 45.788)" class="st6" d="M494.1-7.3h55.7V98.9h-55.7z"/><g class="st7"><path d="M489.5 45.4l-2.4-.5 2.9-13.2-4.6-1 .4-1.7c2.7.6 4.8.4 6-2.2l1.7.4-4 18.2zM508.1 37.5c1.4-1.4 3-1.7 5-1.3 3.7.8 5.5 4 4.5 8.3s-3.9 6.6-7.5 5.7c-2-.4-3.2-1.4-4-3.2l-1.6 7-2.2-.5 4.1-18.4 2.1.5-.4 1.9zm-1 4.7c-.7 3.2.4 5.5 3 6.1 2.5.6 4.5-1.1 5.2-4.3s-.4-5.5-3-6.1c-2.5-.5-4.5 1.1-5.2 4.3zM530.6 54.4c-.5.1-1.1 0-1.6-.1-1.2-.3-1.8-1.1-1.5-2.4-1.6 1.2-3.2 1.5-5.3 1-2.6-.6-3.9-2.4-3.4-4.7.5-2.4 2.4-3.4 5.6-3.1 3.3.3 4.3.6 4.7-1.2.3-1.4-.6-2.4-2.5-2.9-2-.5-3.3.1-3.9 2l-2.1-.5c.7-2.8 3.1-4 6.6-3.3 1.8.4 3.2 1.2 3.9 2.2.7 1.1.4 2.5.1 3.7-.4 2-1 3.9-1.4 5.9-.2 1-.1 1.4.6 1.5h.6l-.4 1.9zm-5.1-7.5c-1.6-.1-3.9-.4-4.3 1.7-.3 1.4.5 2.4 2.2 2.8 2.1.5 4.4-.5 4.7-2.2l.5-2.4c-1 .4-2.1.2-3.1.1zM544.5 56.1c-.5 2.3-1 3.3-1.8 4.2-1.3 1.4-3.3 1.8-5.8 1.3-2.7-.6-5-2.1-4.7-5.2l2.2.5c-.1 1.6.9 2.5 2.9 3 2.7.6 4.2-.4 4.9-3.5l.4-1.6c-1.2 1.5-2.8 1.9-4.8 1.5-3.6-.8-5.3-3.9-4.4-8.1.8-3.6 3.6-6.6 7.5-5.7 1.8.4 3.2 1.6 3.7 3.2l.4-1.9 2 .4-2.5 11.9zm-8.8-7.4c-.7 2.9.5 5.2 2.8 5.7 2.4.5 4.4-1.1 5.1-4.3.7-3-.4-5.2-2.9-5.7-2.4-.5-4.3 1.1-5 4.3zM552.9 59.9c-3.9-.9-5.7-4-4.7-8.3s4.1-6.7 7.8-5.8c4.4 1 5.3 4.8 4.4 8.7l-.1.3-10-2.2-.1.1c-.6 2.8.6 4.9 3.1 5.5 1.9.4 3.2-.2 4.2-2l2.1.5c-1.2 2.8-3.5 3.9-6.7 3.2zm2.6-12.4c-2.1-.5-4 .7-4.8 3.2l7.7 1.7c.4-2.5-.7-4.4-2.9-4.9z"/></g><path transform="rotate(-77.479 464.77 68.472)" class="st8" d="M402.1 66.2h125.3v4.6H402.1z"/><path transform="rotate(-77.479 753.6 341.4)" class="st6" d="M725.7 288.3h55.7v106.2h-55.7z"/><g class="st7"><path d="M722.9 322.2c3.2.7 4.9 3.1 4.3 6-.4 1.7-1.6 2.9-3.4 3.3 2 1 2.9 2.9 2.4 5.2-.7 3.4-3.8 5.1-7.6 4.2-3.7-.8-5.6-3.6-4.9-7l.1-.3 2.2.5c-.5 2.6.6 4.4 3.1 5 2.3.5 4.3-.6 4.7-2.7.5-2.1-.8-3.9-3.3-4.4-.4-.1-.7-.1-1.2-.2l.4-1.9c.4.1.5.1.7.2 2.3.5 3.9-.3 4.4-2.2.4-1.8-.6-3.3-2.5-3.7-2.2-.5-3.8.7-4.5 3.2l-2.1-.5c1-3.8 3.6-5.5 7.2-4.7zM739.6 333.1c1.4-1.4 3-1.7 5-1.3 3.7.8 5.5 4 4.5 8.3s-3.9 6.6-7.5 5.7c-2-.4-3.2-1.4-4-3.2l-1.6 7-2.2-.5 4.1-18.4 2.1.5-.4 1.9zm-1 4.8c-.7 3.2.4 5.5 3 6.1 2.5.6 4.5-1.1 5.2-4.3.7-3.2-.4-5.5-3-6.1-2.5-.6-4.4 1-5.2 4.3zM762.1 350.1c-.5.1-1.1 0-1.6-.1-1.2-.3-1.8-1.1-1.5-2.4-1.6 1.2-3.2 1.5-5.3 1-2.6-.6-3.9-2.4-3.4-4.7.5-2.4 2.4-3.4 5.6-3.1 3.3.3 4.3.6 4.7-1.2.3-1.4-.6-2.4-2.5-2.9-2-.5-3.3.1-3.9 2l-2.1-.5c.7-2.8 3.1-4 6.6-3.3 1.8.4 3.2 1.2 3.9 2.2.7 1.1.4 2.5.1 3.7-.4 2-1 3.9-1.4 5.9-.2 1-.1 1.4.6 1.5h.6l-.4 1.9zm-5.1-7.5c-1.6-.1-3.9-.4-4.3 1.7-.3 1.4.5 2.4 2.2 2.8 2.1.5 4.4-.5 4.7-2.2l.5-2.4c-.9.3-2.1.1-3.1.1zM776 351.7c-.5 2.3-1 3.3-1.8 4.2-1.3 1.4-3.4 1.8-5.8 1.3-2.7-.6-5-2.1-4.7-5.2l2.2.5c-.1 1.6.9 2.5 2.9 3 2.7.6 4.2-.4 4.9-3.5l.4-1.6c-1.2 1.5-2.8 1.9-4.8 1.5-3.6-.8-5.3-3.9-4.4-8.1.8-3.6 3.6-6.6 7.5-5.7 1.8.4 3.2 1.6 3.7 3.2l.4-1.9 2 .4-2.5 11.9zm-8.8-7.4c-.7 2.9.5 5.2 2.8 5.7 2.4.5 4.4-1.1 5.1-4.3.7-3-.4-5.2-2.9-5.7-2.4-.5-4.2 1.1-5 4.3zM784.5 355.5c-3.9-.9-5.7-4-4.7-8.3s4.1-6.7 7.8-5.8c4.4 1 5.3 4.8 4.4 8.7l-.1.3-10-2.2-.1.1c-.6 2.8.6 4.9 3.1 5.5 1.9.4 3.2-.2 4.2-2l2.1.5c-1.2 2.8-3.6 3.9-6.7 3.2zm2.6-12.3c-2.1-.5-4 .7-4.8 3.2l7.7 1.7c.4-2.6-.7-4.4-2.9-4.9z"/></g><path transform="rotate(-77.479 694.203 373.845)" class="st8" d="M621.7 371.5h145.1v4.6H621.7z"/><path class="st4" d="M335.4 253s7.4-10.5 27.3-8.3M661.1 442.3s13.8-6.1 30.9 4.7M439.4 127.4s14-2.2 22.5 5.2M259.3 537.5s1.5-6.3 19.4-5"/><path id="_Path_" class="st6" d="M394.5 320.2c-4.2-.1-6.5-8.8-6.5-8.8l-12 1.3 6 13.6 12.5-6.1z"/><path class="st6" d="M379.7 284.1c2.4-.5 6.4 2.8 7.7 5.7s3.2 8 4.5 7.9c.6-.1 1.2-.1 1.8 0 .5.3 0 1.9-.7 2.6-1 1.2 3.2 11.1-4 14.8s-15.4 1.5-19-4.4-12-22.1 9.7-26.6z"/><path class="st9" d="M360.4 288.5c.5-3.8 3.1-6.9 6.8-8 6.2-1.8 17 .3 18.2-2s5.8 2.5 4.4 5.1c-.9 1.7-2 3.3-3.1 4.9 0 0-4.6-2.2-7.7-.3s-6.8 3.9-8.5 3c0 0 5.5 6.8 2.4 10.4-.8.9-2.9-.2-3.1.4-.8 1.9 2.1 4.7 3.8 6 0 0-2.4 4.7-.7 5.9s-4.2 1.7-8.9-3.4-10-17.7-3.6-22z"/><ellipse transform="rotate(-18.915 385.707 296.208)" class="st10" cx="385.7" cy="296.2" rx="1" ry="1.3"/><path class="st3" d="M387.8 304.3s2.8 2.3 4.2.7M386.7 304.5c-.1-.4 0-.8.3-1.1"/><path d="M381.2 295.1s1.9-2.7 4.3-3.2" fill="none" stroke="#000" stroke-miterlimit="10"/><path class="st3" d="M383.4 297.2c.4-1.2 1.3-2.2 2.6-2.6"/><path class="st12" d="M410.7 293.4h6l-1.4 29.5-18.3 9.5z"/><path class="st12" d="M469 267.4L448.6 308l-27.3 24s6 31.7 6 34.7-4.7 11-4.7 11l-31 19-22-59 10-18 29.3-3 28-21 26-31.7 6.1 3.4z"/><path class="st12" d="M391.7 396.7l-2.3 58.3-26.7 58 9.7 5 38.3-56.7 6-49L455 389l14 49.3 9.6-4-8.9-67.9c-.4-2.5-2.7-4.3-5.3-4-.3 0-.7.1-1 .2l-40.9 15-30.8 19.1z"/><path class="st9" d="M372.3 518l-3.1 10.5 4.2 7.2-10.7-.7-4.8-8.5 4.8-13.5zM478.7 434.4l2 2.6 16.5-4.3 2.5 6-26 10.3-4.7-10.6z"/><path class="st6" d="M410.7 293.4s-1.7-7.8 0-10.8 6.2-5.2 7.3-4.3-2.1 5.8-2.1 7.5 2 5.3.8 7.7l-6-.1z"/><path class="st6" d="M414.1 288.1s-.3-5.1 1.2-4.2 1.8 8.3 1.8 8.3M463 264s.9-7.3 1.8-7.2 1.2 1.9 1.2 1.9 5.1-7.2 7.8-6.8c4.3.7-2.5 13.3-4.8 15.5l-6-3.4z"/><path class="st13" d="M395.3 318.7s28.4 27 28.1 54.4c-.2 16.3-24.7 24.4-35.7 27.5-9.6 2.8-26.6-9.1-34.8-59.6l42.4-22.3zM422.2 378.9c-15.2-.5-30.5-61.1-30.5-61.1"/><path class="st14" d="M341.7 338l53.6-31.1s8.1-1.4 12.2 7.8-1.4 15.2-1.4 15.2l-55.4 32.2s-7.3.4-11.2-8.6c-2.3-5.2-1.4-11.2 2.2-15.5z"/><path class="st14" d="M395.3 306.9s-7.2 3.7-1.3 15c3.9 7.5 8.5 9.3 12.1 8"/><path class="st3" d="M408.7 324.5s.9-6.1-1.1-9.8-6.9-5-9.9-4.2c-5.6 1.6-2.3 8.2.1 11 1.3 1.5 5.7 5 7.9 2.2s-4.3-8.5-5.4-6.8 2.9 4.2 2.9 4.2"/><path class="st12" d="M412.1 380s-7-11.5-9.2-14.5-11.8 1.7-13 5c-1.6 4.5 7.4 19.9 7.4 19.9s12-2.4 14.8-10.4z"/><path class="st3" d="M402.9 365.5s-2 10.2 9.2 14.5"/><path class="st12" d="M403 369.4s-5.2 7.8-13.2 8.2c0 0-2.5-.2.2-7.1 0 0 1.1-4.1 9-5.9 6-1.4 4 4.8 4 4.8z"/><path class="st15" d="M408.3 392.5c-24.1-31.1-26.2-78.1-26.2-78.1-1.7-.2-3.3.4-4.4 1.7 5.6 48.4 27.6 78 27.6 78s2.9 1.1 3-1.6z"/><path transform="rotate(-31.351 398.386 379.466)" class="st13" d="M396.3 377.4h4.2v4.2h-4.2z"/><path class="st12" d="M391.3 391.2s-7-11.5-9.2-14.5-11.8 1.7-13 5c-1.6 4.5 7.4 19.9 7.4 19.9s12-2.4 14.8-10.4z"/><path class="st3" d="M382.1 376.8s-2 10.2 9.2 14.5"/><path class="st12" d="M382.1 380.7s-5.1 7.8-13.1 8.2c0 0-2.5-.2.2-7.1 0 0 1.1-4.1 9-5.9 6-1.4 3.9 4.8 3.9 4.8z"/><path class="st15" d="M386.2 401c-24.1-31.1-25.9-73.8-25.9-73.8-3.1-.2-3.7 1.6-3.7 1.6 5.6 48.4 26 72.1 26 72.1s1.4 2 3.6.1z"/><path transform="rotate(-31.351 377.533 390.8)" class="st13" d="M375.4 388.7h4.2v4.2h-4.2z"/><path class="st13" d="M421.3 332s3 28.8 1.9 37.8c.2 1.9.1 3.9-.1 5.8 0 0 4.8-15 2-47l-3.8 3.4z"/><path class="st15" d="M556 211.7c2.2 2.1 13.8 7.7 16.2 24.2 2.7 19 12.8 30.5 12.8 30.5l32 36.8-6.8 3.8s-34-24.8-40-30.5-15.4-34.8-19.4-34.8-25.1 26.8-26.3 29 26 44.5 26 44.5l-5.2 5.5s-37.7-41.9-37.8-49.2c-.1-10 11.7-23 17.8-32.2l2-12.7 28.7-14.9z"/><path class="st16" d="M511.2 178.2l-.2-.3c.4-1-.3-2.1-1-2.9-.9-1.1-1.8-2.2-2.8-3.2.9-2.5 2.4-4.7 4.5-6.4.7-.6 1.3-.8 1.8 0s1 1.5 1.5 2.1c1.1 1.3 2.4 2.5 3.8 3.4.1.1.3.2.3.3v.4c-.2 1.6-.6 3.3-1.2 4.8-.2.5-.5 1-.9 1.5-1.2 1.7-3.6 2-5.3.7-.1 0-.3-.2-.5-.4z"/><path d="M516.4 179c-1.7 1.2-4.1.9-5.4-.7l-.3-.4v-.1c.4-.9-.3-2-.9-2.7-.9-1.1-1.8-2.1-2.8-3.1l-.1-.1v-.1c.9-2.5 2.4-4.8 4.5-6.4.5-.4.9-.6 1.2-.6.4.1.7.3.9.6.2.2.3.5.5.7.3.5.7 1 1.1 1.5 1.1 1.3 2.4 2.4 3.8 3.4.2.1.3.2.4.4.1.2.1.4 0 .6-.2 1.6-.6 3.3-1.2 4.8-.2.6-.5 1.1-.9 1.6-.3.1-.5.4-.8.6zm-5.1-.9c.7.9 1.7 1.4 2.8 1.3 1.1 0 2.2-.5 2.8-1.4.4-.5.6-.9.9-1.5.6-1.5 1-3.1 1.2-4.8v-.4c-.1-.1-.2-.2-.3-.2-1.5-1-2.8-2.1-3.9-3.4-.4-.5-.8-1-1.1-1.5l-.5-.7c-.1-.2-.4-.4-.6-.5-.2 0-.5.1-1 .5-2 1.6-3.5 3.8-4.4 6.2 1 1 1.9 2 2.8 3.1.6.8 1.4 1.9 1 3l.3.3z"/><path class="st15" d="M512 205.3c3.5 8.7 16.3-1.3 15.1 21.2l28.8-14.8c-.3 1.1-6.9-9.4-8.5-18.8-.9-5.2-6.3-20.3-14.8-26.8s-11.8-14.3-16.2-20.1-19.8-25-19.8-25l-4.3 2s23.3 42.5 25.5 46.8-6.7 6.4-12.4 12.7-7 7-10.5 21.5-16.8 40-19.8 44.5l5 1.8s12.8-13.5 18.2-24.8 11.8-22.6 11.8-22.6c.9.6 1.5 1.5 1.9 2.4z"/><path class="st9" d="M550.6 315.2l7.8 7.8-1.1 1.1-4.1-2.4 1.2 5.3-11.4 11.5c3.5-5.3 4.3-12 2.4-18l5.2-5.3zM617.1 303.1l5.6 9.5-1.4.8-3.3-3.4-.1 5.5-13.9 8.3c4.7-4.3 7.2-10.5 6.8-16.9l6.3-3.8z"/><g id="Layer_7-2"><path class="st10" d="M503.3 173.9c-12.5-2.5-14.5-15.9-14.5-15.9-1.5-8.4 5.2-14 5.2-14 7.2-6.4 16.4-5.7 16.4-5.7s24-2.4 42.4 37.4c1.1 2.6 3.8 4.3 6.7 4.1-5.7 5.3-15.3 10.2-23 8.8-13-2.4-17-6.5-21.3-11.3-5.2-5.7-14.5-22.3-14.1-30.5"/><path class="st6" d="M513.8 168.5c-1.4 2.6-3.7 5.4-6.6 5.9-2.1.3-4.3-.2-6-1.5-1.9-1.4-3.7-2.9-5.3-4.7-1.1-1-2-2.2-2.8-3.4-1.1-1.9-1.8-4-2.1-6.1-.3-3.6.4-7.2 2.2-10.3 1.1-1.6 2.6-3 4.2-4.1 1.1-1 2.4-1.7 3.8-2.3 1.2-.4 2.4-.6 3.7-.5 3.5 0 6.9 1.3 9.5 3.6 6.7 6.2 3.2 16.5-.6 23.4z"/><path class="st9" d="M490.6 162.5c-1.4-7 5.3-10.6 5.3-10.6 3.1-1.3 5.1-5.1 5.1-5.1.4 8.6 10.9 26.4 10.9 26.4l9.5-16-4.4-13-10.5-4-6.9 1.3-2.4 1.3-7.2 8.6.6 11.1z"/><path class="st16" d="M505 157c-.3.2-.7.3-1 .2s-.7-.3-1-.4c-.2-.1-.5-.2-.8-.2-.3-.1-.5-.1-.8-.1-.7.1-1.3.6-1.6 1.2-.3.6-.6 1.3-.7 2"/><path d="M499.2 159.6h-.3c.1-.7.4-1.4.7-2 .4-1 1.6-1.5 2.6-1.2.3.1.5.1.8.3s.7.3 1 .4c.3.1.6 0 .9-.2l.2.2c-.3.3-.8.3-1.2.2-.4-.1-.7-.3-1-.4-.2-.1-.5-.2-.7-.2-.2-.1-.5-.1-.8-.1-.6.1-1.2.5-1.5 1.1-.4.7-.6 1.3-.7 1.9zM495 160.4l-.8-.4c-.6-.3-1.2-.5-1.9-.4-.5.2-.9.6-1.3 1-.4.5-1.1.7-1.7.6l.1-.3c.5.1 1-.1 1.4-.5s.9-.8 1.4-1c.7-.1 1.5 0 2.1.4l.8.4-.1.2zM503.7 154.5c-2-.7-4.2.1-5.4 1.9l-.3-.2c1.2-1.9 3.6-2.7 5.8-2l-.1.3zM494.7 157.2c-1.3-.7-2.9-.6-4.1.2l-.2-.3c1.3-.9 3-.9 4.4-.3l-.1.4z"/><path class="st16" d="M499.1 165.1l-1.8-.3c-.1 0-.3-.1-.4-.2-.2-.3-.3-.6-.2-1l.2-1.9"/><path d="M499.1 165.2l-1.8-.3c-.2 0-.3-.1-.5-.2-.3-.3-.4-.7-.3-1.1l.2-1.9h.3l-.2 1.9c0 .3 0 .7.2.9.1.1.2.1.3.1l1.8.3v.3z"/><path class="st16" d="M502.9 170.4c-.4.2-.7.5-1 .8-.1.1-.2.2-.3.4-.5.3-1.2.2-1.5-.2-.4-.5-.7-.9-1-1.4-.3-.4-.7-.7-1-1.1-.1-.1-.1-.2-.1-.4 0-.3.3-.4.5-.5 1.8-.5 3.6-.6 5.5-.3.1 0 .1 0 .2.1.3.2 0 1.1-.2 1.4-.3.4-.7.8-1.1 1.2z"/><path d="M501.4 171.9c-.5.2-1.1 0-1.5-.4-.4-.5-.7-.9-1-1.4-.1-.2-.3-.3-.4-.4-.2-.2-.4-.4-.5-.6-.1-.1-.2-.3-.1-.5 0-.3.2-.5.7-.6 1.8-.5 3.7-.6 5.5-.3.1 0 .2 0 .2.1.5.4-.1 1.6-.1 1.6-.3.5-.7 1-1.2 1.4-.3.2-.7.5-.9.8-.1.1-.2.3-.3.4-.2-.2-.3-.2-.4-.1zm-2.9-3.8c-.2.1-.4.2-.4.3s0 .2.1.3c.1.2.3.4.5.6.2.2.3.3.4.5.3.5.6 1 1 1.4.3.4.9.5 1.3.2l.3-.3c.3-.3.6-.6 1-.9.5-.3.8-.8 1.1-1.3.2-.4.4-1.1.2-1.2-1.8-.2-3.6-.1-5.5.4z"/><path class="st17" d="M500.6 172.4c.6.1 1.2-.1 1.6-.4.5-.4.9-.8 1.2-1.3.3-.4.5-.7.7-1.1.2-.3.4-.6.5-.9.1-.3.1-.7-.1-1-.3.7-.7 1.3-1.2 1.8-.6.7-1.5 1.3-2.4 1.5-.3.1-.9 0-1 .4s.3.9.7 1z"/><path d="M501.8 172.4c-.4.2-.8.2-1.2.1-.3-.1-.6-.3-.8-.6-.1-.2-.1-.4-.1-.6.1-.4.6-.4.9-.5h.3c.9-.2 1.7-.8 2.4-1.5.5-.5.9-1.1 1.2-1.8l.1-.3.1.3c.2.3.2.7.1 1.1-.1.4-.3.7-.5 1-.2.4-.5.7-.7 1.1-.3.5-.7.9-1.2 1.3-.2.2-.4.3-.6.4zm-1.2-.2c.5.1 1.1-.1 1.5-.4.4-.3.8-.8 1.1-1.2.2-.4.5-.7.7-1.1v-.1c.2-.3.3-.6.5-.9v-.5c-.3.5-.7 1.1-1.1 1.5-.7.8-1.5 1.3-2.5 1.6h-.3c-.3 0-.5.1-.6.3 0 .1 0 .2.1.3.1.3.3.4.6.5z"/><path class="st17" d="M497.5 167.9c1-.8 2.2-1.2 3.4-1.1 1.2.1 2.4.3 3.5.6.1 0 .1.1.2.1s-.1.1-.1.1c-1.1.4-2.2.5-3.4.4-.9.1-1.8.3-2.7.7-.7.5-1.8 0-.9-.8z"/><path d="M504.3 168c-.8.2-1.6.4-2.4.3h-.9c-.9.1-1.8.3-2.6.7-.5.2-1 .1-1.4-.3-.1-.1-.2-.5.3-.9 1-.8 2.2-1.2 3.5-1.1 1.2.1 2.4.3 3.6.6.2 0 .3.1.3.3 0 .1-.1.3-.2.3l-.2.1zm-5.6.6c.7-.3 1.5-.5 2.3-.6h.9c.8 0 1.6-.1 2.4-.4-1.1-.3-2.3-.5-3.5-.6-1.2 0-2.3.3-3.3 1.1-.1.1-.4.4-.2.5.3.3.7.3 1 .2l.4-.2z"/><ellipse transform="rotate(-88.75 500.92 158.386) scale(1.00004)" class="st9" cx="500.9" cy="158.4" rx="1.1" ry=".8"/><path d="M501.2 159.6c-.1 0-.2.1-.3.1-.3 0-.5-.2-.7-.4s-.3-.6-.3-.9c0-.6.4-1.1 1-1.2.3 0 .5.2.7.4s.3.5.3.9-.3.8-.7 1.1zm-.5-2c-.3.2-.5.5-.5.9 0 .2.1.5.2.7s.3.3.5.3c.4 0 .7-.4.7-.9 0-.2-.1-.5-.2-.7s-.3-.3-.5-.3c0-.1-.1-.1-.2 0z"/><ellipse transform="rotate(-88.75 493.236 161.096) scale(1.00004)" class="st9" cx="493.2" cy="161.1" rx="1.1" ry=".8"/><path d="M493.6 162.3c-.1 0-.2.1-.3.1-.3 0-.5-.2-.7-.4s-.3-.6-.3-.9c0-.6.4-1.1 1-1.2.3 0 .5.2.7.4s.3.6.3.9c0 .4-.3.9-.7 1.1zm-.5-2c-.3.2-.5.5-.5.9 0 .2.1.5.2.7s.3.3.5.3c.4 0 .7-.4.7-.9 0-.2-.1-.5-.2-.7s-.3-.3-.5-.3h-.2z"/></g><path class="st6" d="M492.3 123s-5.4-3.2-5.2-4.1 2.1-.6 2.1-.6-1.9-5.6-.7-6.2c1.9-1.1 3.3.1 8.1 8.9l-4.3 2zM475.2 248.5s-7.8 2.2-7.5 3.4 3.2 1.3 3.2 1.3-3.9 6.9-1.9 8.2 11.1-11.1 11.1-11.1l-4.9-1.8z"/><path class="st12" d="M514.2 183.6s.9 31.9 17.7 46.7c10 8.8 28.3-1.7 36.2-6.6 7-4.3 9-21.1-17.1-53.6l-36.8 13.5zM536 232.8c8-9.5-20.4-51.9-20.4-51.9"/><path class="st13" d="M555.1 161.7L507 177.2s-5.3 4.1-1.9 11.7 10 7.4 10 7.4l49.8-16s4.2-4.2.9-11.5c-1.9-4.2-6-7-10.7-7.1z"/><path class="st13" d="M507 177.2s6.2-2.3 9.8 7.4c2.4 6.4 1 10.3-1.7 11.7"/><path class="st3" d="M510.4 194.9s-4.2-2.9-5.3-6.1c-.9-3.1.2-6.4 2.9-8.3 4-2.5 6.3 3.1 6.6 6 .2 1.7-.1 6.2-3 6s-2.8-7.2-1.2-7 1 4 1 4"/><path class="st12" d="M542.2 227.3s-3.1-10.5-3.8-13.5 7.5-6.2 10.1-5.1c3.6 1.4 8 15.4 8 15.4s-8 5.9-14.3 3.2z"/><path class="st3" d="M538.4 213.8s7.2 4.4 3.8 13.5"/><path class="st12" d="M540.8 216s7.5 1.1 12.2-3.5c0 0 1.2-1.6-4.4-3.8 0 0-3.1-1.6-8.5 2.2-4.2 2.9.7 5.1.7 5.1z"/><path class="st18" d="M551.8 231.9c-5.7-31.6-33.1-58.6-33.1-58.6.8-1.1 2.1-1.8 3.5-1.7 26.3 29.8 32.2 59.3 32.2 59.3s-.9 2.4-2.6 1z"/><path transform="rotate(-16.645 549.396 218.788)" class="st13" d="M547.7 217.1h3.4v3.4h-3.4z"/><path class="st12" d="M560.4 220.9s-3.1-10.5-3.8-13.5 7.5-6.2 10.1-5.1c3.6 1.4 8 15.4 8 15.4s-8 5.8-14.3 3.2z"/><path class="st3" d="M556.6 207.4s7.2 4.4 3.8 13.5"/><path class="st12" d="M559 209.5s7.5 1.1 12.2-3.5c0 0 1.2-1.6-4.4-3.8 0 0-3.1-1.6-8.5 2.2-4.2 3 .7 5.1.7 5.1z"/><path class="st18" d="M569.1 223.1c-5.7-31.6-30.6-56-30.6-56 1.6-2 3-1.4 3-1.4 26.3 29.8 29.5 55.1 29.5 55.1.2 1-.5 2-1.5 2.2-.1.1-.3.1-.4.1z"/><path transform="rotate(-16.645 567.595 212.287)" class="st13" d="M565.9 210.6h3.4v3.4h-3.4z"/><path class="st12" d="M518 209.7c2 10.5 10.8 17.6 10.8 17.6l3 3c-13.1-3-18.5-23-18.5-23s3 2.3 4.7 2.4z"/></svg>