<svg version="1.1" id="Layer_1" xmlns="http://www.w3.org/2000/svg" x="0" y="0" viewBox="0 0 694.5 630.9" xml:space="preserve"><style>.st0{fill:#fff}.st1,.st2{fill:#0077bf;stroke:#000;stroke-width:.5;stroke-miterlimit:10}.st2{fill:#fff}.st4{enable-background:new}</style><path class="st0" d="M293 138.9S287.1-10.2 451.8.5c0 0 195.3-9.8 237.8 228.7 0 0 26.8 105.7-44.8 251.8 0 0-71.9 114.9-184.8 139.2 0 0-194.8 44.8-344.6-48.9 0 0-201-89.9-72.3-240.4 0 0 48.8-47.4 130.8-34.1-.1 0 125.3 28.8 119.1-157.9z" id="Layer_7"/><circle class="st1" cx="347.4" cy="340.4" r="218.8"/><circle class="st2" cx="347.4" cy="340.4" r="201"/><circle class="st1" cx="347.4" cy="340.4" r="192.1"/><circle class="st2" cx="347.4" cy="340.4" r="186.3"/><circle cx="347.4" cy="340.4" r="178.1" fill="#e8e8e8" stroke="#000" stroke-width=".5" stroke-miterlimit="10"/><circle class="st2" cx="347.4" cy="340.4" r="110"/><path d="M244.2 402.4L225 436l36.4-12.7 5 6.1-33 27.1-3.4-4.1 27.6-22.6-36 12.3-3.1-3.8 18.9-33.1-27.6 22.6-3.4-4.2 33-27.1 4.8 5.9zM276.7 467.8c-5.8 8.7-13.8 10.8-21.6 5.5-7.9-5.3-9.1-13.5-3.5-22s14-10.5 21.8-5.2c7.8 5.2 9.1 13.2 3.3 21.7zm-20.6-13.6c-4.2 6.3-3.7 12.1 1.5 15.6 5 3.3 10.5 1.6 14.8-4.8 4.1-6.1 3.6-12.1-1.4-15.4-5-3.4-10.8-1.5-14.9 4.6zM289.6 462c3.8-2.6 7.4-3.2 11.8-1.4 7 2.7 8.1 7.6 5.6 14.1l-7.4 19.1-4.7-1.8 6.6-17c1.8-4.6 3.1-8.6-2.9-10.9-6.2-2.4-10 1.5-12.2 7.2l-5.8 15.1-4.7-1.8 11.1-28.8 4.5 1.7-1.9 4.5zM321.8 499.5c-9-1.4-13.5-8.2-11.9-18.2 1.6-9.9 8.4-15.7 16.9-14.3 10.1 1.6 12.6 10.2 11.2 19l-.1.7-23-3.7-.1.3c-1 6.5 1.9 11 7.9 12 4.4.7 7.1-.8 9.3-5.2l4.9.8c-2.7 6.8-7.8 9.7-15.1 8.6zm4.3-28.4c-4.9-.8-8.9 2.2-10.5 7.9l17.8 2.8c.4-5.9-2.3-9.9-7.3-10.7zM354.7 504.2c-1.5 4.4-3.2 8.6-8.7 8.8-1.3 0-2.5-.2-3.8-.4l-.1-4.6c1.6.4 2.4.6 3.3.6 1.7 0 3-1.2 3.5-2.7l2.2-5.7-13.1-30.4 5.8-.2 9.9 24.4 8-24.9 5.3-.2-12.3 35.3zM384.4 469c1.1-4.1 4-6.8 8-8.2 8-2.8 15.3 1.4 18.5 10.7 3.3 9.5.1 17.4-8.1 20.3-4 1.4-8.3 1.2-11.5-1.7l1.5 4.3-4.5 1.6-14-40.4 4.8-1.7 5.3 15.1zm3.6 10.9c2.4 6.9 7.4 10 13 8.1 5.4-1.9 7.4-7.6 5-14.6-2.4-6.9-7.4-10.1-12.9-8.2-6.7 2.3-7.1 8.9-5.1 14.7zM447.1 467.6c-.7.9-1.7 1.7-2.6 2.4-2.4 1.5-4.6 1-6.2-1.5-.8 4.5-2.9 7.6-6.9 10.1-5.2 3.2-10.2 2.4-13.1-2.2-2.9-4.7-1.5-9.4 4.2-14 5.8-4.7 8-5.9 5.8-9.4-1.7-2.8-4.8-3-8.7-.6-4 2.5-5.2 5.3-3.2 9.4l-4.2 2.6c-3.3-5.7-1.3-11.6 5.5-15.8 3.5-2.2 7.1-3.2 9.9-2.6 2.9.6 4.6 3.4 6 5.7 2.4 3.9 4.7 7.9 7.1 11.9 1.2 1.9 2.1 2.3 3.4 1.5.4-.3.6-.4 1-.8l2 3.3zm-20.2-4c-2.9 2.4-7 5.4-4.3 9.6 1.7 2.7 4.7 3.1 8 1.1 4.1-2.5 6.3-7.8 4.2-11.2l-3-4.8c-1 2.3-3.2 3.8-4.9 5.3zM462.5 455c-7 6.6-15.2 5.4-21.7-1.4-7.1-7.5-7.4-16.1-.8-22.4 5.5-5.2 11.6-5.6 17.1-1.1l-3.8 3.6c-3.7-2.6-7.2-2.4-10.3.5-4.3 4.1-3.7 10 1.4 15.4 5.2 5.5 10.9 6.4 15 2.4 3.3-3.2 3.6-7.3.7-11.6l3.7-3.6c4.5 6 4.3 12.9-1.3 18.2zM467.9 416.7l23.7.5-3.7 5.3-19.4-.5.9 6.6 9.6 6.7-2.8 4.1-35.1-24.4 2.8-4.1 20.7 14.4-3-19.4 3.9-5.6 2.4 16.4zM267.4 192c6.7-3.6 13.3-2 16.5 4 1.9 3.6 1.6 7.6-1 10.7 4.8-1.3 9.4.8 11.9 5.5 3.8 7.1.9 14.6-6.9 18.8-7.7 4.1-15.2 2.2-19-5l-.4-.7 4.5-2.4c3.1 5.3 7.8 6.8 12.8 4.1 4.8-2.6 6.6-7.4 4.3-11.8-2.4-4.5-7.2-5.6-12.3-2.8-.9.5-1.3.8-2.4 1.5l-2.1-3.9c.8-.3 1-.5 1.6-.8 4.7-2.5 6.4-6.5 4.3-10.4-2-3.8-6-4.8-9.9-2.7-4.6 2.4-5.6 6.9-2.9 12.3l-4.5 2.4c-4-8-2-14.8 5.5-18.8zM322.4 196.3c2.6 9.8 3.8 21-8.1 24.2-12.6 3.4-17-7-19.7-16.9s-4.9-21.9 8-25.4c13-3.4 17.1 8.2 19.8 18.1zm-22.4 5.9c1.7 6.1 4.6 16.2 13.1 13.9s5.6-12.8 4-18.8c-1.7-6.1-4.4-17-13.1-14.7-8.9 2.5-5.8 13.3-4 19.6zM357.5 172.1c14.6 1.1 21 8 19.9 22.9-1 14.1-7.4 21.6-22.1 20.5l-15.1-1.1 3.2-43.3 14.1 1zm-11.2 37.8l8.7.6c11 .8 15.9-4.2 16.7-15.3.8-11.6-2.8-17.3-14.5-18.2l-8.5-.6-2.4 33.5zM402.5 226.6c-1.2.1-2.5-.2-3.5-.5-2.8-.9-3.8-3-2.9-5.8-4.1 2.3-7.8 2.7-12.4 1.1-5.9-2-8.5-6.4-6.7-11.6 1.8-5.3 6.4-7.3 13.7-5.8 7.4 1.5 9.8 2.5 11.1-1.5 1.1-3.2-.7-5.7-5.1-7.2-4.6-1.5-7.5-.7-9.4 3.6l-4.8-1.6c2.3-6.3 8.2-8.5 15.9-5.9 4 1.3 7.1 3.5 8.4 6 1.4 2.7.3 5.8-.6 8.4-1.5 4.5-3.2 8.8-4.7 13.2-.7 2.2-.5 3.1 1 3.6.5.2.7.2 1.3.2l-1.3 3.8zm-9.9-18.4c-3.7-.7-8.7-2-10.3 2.8-1 3.1.6 5.7 4.3 7 4.6 1.6 10.1-.1 11.4-4l1.8-5.4c-2.4.8-4.9 0-7.2-.4z"/><path d="M410.1 236.5c-3.7 3-7.4 5.8-12.2 2.9-1.2-.7-2.1-1.5-3-2.4l2.3-4c1.2 1.2 1.8 1.8 2.6 2.3 1.5.9 3.2.5 4.5-.4l5-3.7 4.9-33.3 5.1 2.9-4.5 26.4 20.2-17.3 4.7 2.7-29.6 23.9z"/><path class="st1" d="M347.1 261.7l-8.2 4.3 1.6-9.1-6.6-6.5 9.1-1.3 4.1-8.4 4.2 8.4 9.1 1.3-6.6 6.5 1.6 9.1zM386.7 273.1l-7.2-2.2 6.2-4.4-.1-7.6 6.1 4.5 7.2-2.4-2.5 7.2 4.6 6.1-7.6-.1-4.4 6.2zM299.5 273.1l-7.3-2.2 6.2-4.4-.1-7.6 6.1 4.5 7.2-2.4-2.4 7.2 4.5 6.1-7.6-.1-4.4 6.2zM347.1 421.3l-8.2-4.3 1.6 9.2-6.6 6.4 9.1 1.4 4.1 8.3 4.2-8.3 9.1-1.4-6.6-6.4 1.6-9.2zM386.7 409.9l-7.2 2.2 6.2 4.4-.1 7.6 6.1-4.5 7.2 2.4-2.5-7.2 4.6-6.1-7.6.1-4.4-6.2zM299.5 409.9l-7.3 2.2 6.2 4.4-.1 7.6 6.1-4.5 7.2 2.4-2.4-7.2 4.5-6.1-7.6.1-4.4-6.2zM89.7 285.7h519.5c13.9 0 25.2 11.3 25.2 25.2v54.5c0 13.9-11.3 25.2-25.2 25.2H89.7c-13.9 0-25.2-11.3-25.2-25.2V311c-.1-14 11.2-25.3 25.2-25.3z"/><g class="st4"><path class="st0" d="M103.9 361.5H97v-38H83.8v-4.7c7.8 0 13.3-1.9 15.1-9.7h5v52.4zM155.2 336.5c0 12.4-2.2 26-17.3 26-15.9 0-17.8-13.6-17.8-26.1s1.3-27.4 17.5-27.4c16.4 0 17.6 15 17.6 27.5zm-28.3-.1c0 7.8.2 20.6 11 20.6 10.7 0 10.7-13.3 10.7-20.9 0-7.8.2-21.5-10.8-21.5-11.2 0-10.9 13.8-10.9 21.8zM195 336.5c0 12.4-2.2 26-17.3 26-15.9 0-17.8-13.6-17.8-26.1s1.3-27.4 17.5-27.4c16.4 0 17.6 15 17.6 27.5zm-28.4-.1c0 7.8.2 20.6 11 20.6 10.7 0 10.7-13.3 10.7-20.9 0-7.8.2-21.5-10.8-21.5-11.1 0-10.9 13.8-10.9 21.8zM227.4 323c0 10.1-4.1 15.6-11.9 15.6-7.9 0-11.9-5.1-11.9-15 0-9.4 4.4-14.7 12.2-14.7 7.6-.1 11.6 4.9 11.6 14.1zm-18.3.9c0 7 2.1 10.4 6.4 10.4 5.7 0 6.4-6.7 6.4-11 0-6.8-2.1-10.1-6.4-10.1-4.2-.1-6.4 3.6-6.4 10.7zM221 364h-5l29.7-56.7h4.9L221 364zm43.3-16.9c0 10.1-4.1 15.6-11.9 15.6-7.9 0-11.9-5.1-11.9-15 0-9.4 4.4-14.7 12.2-14.7 7.5-.1 11.6 4.9 11.6 14.1zm-18.3.9c0 7 2.1 10.4 6.4 10.4 5.7 0 6.4-6.7 6.4-11 0-6.8-2.1-10.1-6.4-10.1-4.2-.1-6.4 3.5-6.4 10.7zM340.1 361.5h-4.4l-1.8-6.6c-4.4 5.5-9.7 7.9-17 7.9-15 0-25.1-11-25.1-27.2 0-15.5 9.2-27.9 25.6-27.9 10.6 0 21.1 5.9 22.1 17.3h-6.8c-1-6.9-7.1-11.5-15.3-11.5-11.5 0-18.7 8.4-18.7 21.8 0 13.2 7.2 21.6 18.6 21.6 11.1 0 16.3-7.6 16.6-17.7H317v-5.7h23.1v28zM379.8 361.5h-5.9v-6c-3.3 4.8-7.6 7-13.2 7-8 0-12.7-4.5-12.7-13v-26.3h6.3v24.6c0 5.5 1.6 9.2 8 9.2 8.3 0 11.2-5.9 11.2-13.8v-20h6.3v38.3zM421.7 361.4c-1.3.5-2.9.7-4.3.7-3.6 0-5.5-2-5.6-5.6-3.8 4.2-7.9 6.1-13.9 6.1-7.6 0-12.2-4.1-12.2-10.8 0-6.8 4.5-10.8 13.6-11.9 9.1-1.1 12.2-.9 12.2-6.1 0-4.1-3-6.3-8.7-6.3-5.9 0-8.9 2.1-9.5 7.8h-6.1c.2-8.1 6.1-13 16-13 5.1 0 9.5 1.3 12 3.7 2.7 2.6 2.6 6.5 2.6 9.9 0 5.7-.3 11.3-.3 17 0 2.8.7 3.8 2.6 3.8.6 0 .9-.1 1.6-.2v4.9zm-18.6-17.5c-4.6.6-10.8 1.1-10.8 7.3 0 3.9 2.9 6.4 7.6 6.4 5.9 0 11.6-4.1 11.6-9v-7c-2.3 1.8-5.6 2-8.4 2.3zM446.1 328.9c-.7-.1-1-.1-1.6-.1-10.4 0-12.2 7.9-12.2 16.5v16.1H426v-38.2h6v8.2c2.7-6.4 7.3-9.1 14.1-9.1v6.6zM483.3 361.4c-1.3.5-2.9.7-4.3.7-3.6 0-5.5-2-5.6-5.6-3.8 4.2-7.9 6.1-13.9 6.1-7.6 0-12.2-4.1-12.2-10.8 0-6.8 4.5-10.8 13.6-11.9 9.1-1.1 12.2-.9 12.2-6.1 0-4.1-3-6.3-8.7-6.3-5.9 0-8.9 2.1-9.5 7.8h-6.1c.2-8.1 6.1-13 16-13 5.1 0 9.5 1.3 12 3.7 2.7 2.6 2.6 6.5 2.6 9.9 0 5.7-.3 11.3-.3 17 0 2.8.7 3.8 2.6 3.8.6 0 .9-.1 1.6-.2v4.9zm-18.6-17.5c-4.6.6-10.8 1.1-10.8 7.3 0 3.9 2.9 6.4 7.6 6.4 5.9 0 11.6-4.1 11.6-9v-7c-2.3 1.8-5.6 2-8.4 2.3zM493.7 329.2c3.2-4.7 7.2-7 13-7 9.3 0 12.7 5.1 12.7 13.9v25.4h-6.3V339c0-6.1-.3-11.3-8.2-11.3-8.2 0-10.9 6.2-10.9 13.8v20h-6.3v-38.2h5.9v5.9zM544 328.5h-7.6v22.3c0 3.5-.2 5.6 4.2 5.6 1.3 0 2.1-.1 3.4-.2v5.4c-2 .2-2.8.3-4.8.3-9.6 0-9.1-4.7-9.1-13.1v-20.3h-6.4v-5.2h6.4V312h6.3v11.3h7.6v5.2zM565.5 362.8c-11.3 0-18-7.4-18-19.8s7.2-20.7 17.8-20.7c12.6 0 17.3 10 17.3 21v.9h-28.7l-.1.4c0 8.1 4.5 13 11.9 13 5.5 0 8.5-2.4 10.3-8.1h6.1c-1.9 8.7-7.6 13.3-16.6 13.3zm-.4-35.4c-6.1 0-10.4 4.4-11.3 11.6H576c-.5-7.3-4.6-11.6-10.9-11.6zM603.9 362.8c-11.3 0-18-7.4-18-19.8s7.2-20.7 17.8-20.7c12.6 0 17.3 10 17.3 21v.9h-28.7l-.1.4c0 8.1 4.5 13 11.9 13 5.5 0 8.5-2.4 10.3-8.1h6.1c-1.9 8.7-7.6 13.3-16.6 13.3zm-.4-35.4c-6.1 0-10.4 4.4-11.3 11.6h22.2c-.5-7.3-4.6-11.6-10.9-11.6z"/></g></svg>