<svg version="1.1" id="Layer_1" xmlns="http://www.w3.org/2000/svg" xmlns:xlink="http://www.w3.org/1999/xlink" x="0" y="0" viewBox="0 0 840 672.6" xml:space="preserve"><style>.st0{fill:#fff}.st1,.st2,.st3,.st5,.st6{fill:#fff;stroke:#000;stroke-width:.5;stroke-miterlimit:10}.st2,.st3,.st5,.st6{fill:#0077bf}.st3,.st5,.st6{fill:#cecece}.st5,.st6{fill:#eb058c}.st6{fill:#ffe600}</style><path class="st0" d="M226.3 23.8C403.7-29.3 607.9 8.9 725 113.7c86.9 77.9 114.5 188.4 115 287.8.8 149.2-46.2 205.3-149.1 237-50 15.4-107.1-22.3-156.1-73.6C384 406.8 254.2 695.1 47.3 499.5c-115.2-109-6.3-420.2 179-475.7z"/><path class="st1" d="M156.4 100.5h526.3c2.6 0 4.8 2.1 4.8 4.8V539c0 2.6-2.1 4.8-4.8 4.8H156.4c-2.6 0-4.8-2.1-4.8-4.8V105.3c.1-2.6 2.2-4.8 4.8-4.8z"/><path class="st2" d="M156.4 100.5h526.2c2.6 0 4.8 2.1 4.8 4.8v31H151.7v-31c0-2.6 2.1-4.8 4.7-4.8z"/><circle class="st1" cx="173" cy="117.8" r="9.6"/><circle class="st1" cx="199.7" cy="117.8" r="9.6"/><circle class="st1" cx="226.3" cy="117.8" r="9.6"/><path class="st3" d="M410.2 487H198c-7.4 0-13.3-6-13.3-13.3V371.2c0-7.4 6-13.3 13.3-13.3h212.1c7.4 0 13.3 6 13.3 13.3v102.4c.1 7.4-5.9 13.4-13.2 13.4z"/><path class="st2" d="M184.7 379.5v-5.6c0-8.8 7.8-16 17.4-16h204c9.6 0 17.4 7.2 17.4 16v5.6H184.7z"/><ellipse class="st1" cx="402.4" cy="368.7" rx="3.6" ry="3.3"/><ellipse class="st1" cx="391.9" cy="368.7" rx="3.6" ry="3.3"/><ellipse class="st1" cx="381.5" cy="368.7" rx="3.6" ry="3.3"/><defs><path id="SVGID_1_" d="M219 386.5h170.3v100.1H219z"/></defs><clipPath id="SVGID_2_"><use xlink:href="#SVGID_1_" overflow="visible"/></clipPath><g clip-path="url(#SVGID_2_)"><path class="st2" d="M262 489.7c0-29.5 18.9-61.6 42.1-61.6s42.1 32.1 42.1 61.6H262z"/><ellipse class="st2" cx="303.1" cy="413.5" rx="23.5" ry="21.6"/></g><path class="st0" d="M301.9 468c-20.5 0-37.2-15.3-37.2-34.1s16.7-34.1 37.2-34.1 37.2 15.3 37.2 34.1-16.7 34.1-37.2 34.1zm0-61c-16.1 0-29.2 12-29.2 26.8s13.1 26.8 29.2 26.8 29.2-12 29.2-26.8S318 407 301.9 407z"/><path class="st0" d="M324.8 434.7L291.6 417v35.3z"/><path class="st1" d="M198 205.3h212.1c7.4 0 13.3 6 13.3 13.3v102.1c0 7.4-6 13.3-13.3 13.3H198c-7.4 0-13.3-6-13.3-13.3V218.6c0-7.4 6-13.3 13.3-13.3z"/><path class="st5" d="M423.5 310.2v6.6c0 9.5-7.7 17.2-17.2 17.2H201.9c-9.5 0-17.2-7.7-17.2-17.2v-6.6h238.8z"/><path class="st2" d="M209.2 293.6l38.4-41 23.9 29 13.7-8.5 29.9 20.5 46.2-31.6 33.3 33.3z"/><circle class="st6" cx="323.7" cy="246.3" r="12.4"/><path class="st1" d="M456.5 357.9H641c7.4 0 13.4 6 13.4 13.4v101.9c0 7.4-6 13.4-13.4 13.4H456.5c-7.4 0-13.4-6-13.4-13.4V371.3c0-7.4 6-13.4 13.4-13.4z"/><path class="st2" d="M534.7 406.4h-2v24.3c0 3.8-2 7.2-6 7.2h-38.8v1.2c0 3.4 3.4 6.7 6.9 6.7h29.7l11.4 7.4-1.7-7.4h.4c3.5 0 5.1-3.4 5.1-6.7v-26.9c.1-3.4-1.5-5.8-5-5.8z"/><path class="st2" d="M521 389.5h-45.1c-4 0-8.5 3.9-8.5 7.7v30.5c0 3.5 3.9 6 7.6 6.4l-2.4 10.2 15.5-10.1h33c4 0 7.6-2.7 7.6-6.5v-30.5c-.1-3.8-3.7-7.7-7.7-7.7zm-38.2 25.7c-2.5.3-4.8-1.5-5-4-.3-2.5 1.5-4.8 4-5 2.5-.3 4.8 1.5 5 4v.5c.1 2.3-1.7 4.4-4 4.5zm15.2 0c-2.5.3-4.8-1.5-5-4.1-.3-2.5 1.5-4.8 4.1-5 2.5-.3 4.8 1.5 5 4.1v.5c.1 2.3-1.8 4.4-4.1 4.5zm15.2 0c-2.5.3-4.8-1.5-5-4.1-.3-2.5 1.5-4.8 4.1-5 2.5-.3 4.8 1.5 5 4.1v.5c.1 2.3-1.7 4.4-4.1 4.5zM594.7 418.9s0 .1.1.1h-.1c-.1-.1-.1-.1 0-.1zm33.8-21.8v39.3c-.1 4.4-3.6 7.9-8 7.8h-15.9l-9.9 11.6-9.9-11.6h-15.9c-4.4 0-7.9-3.4-8-7.8v-39.3c.1-4.4 3.6-7.9 8-7.8h51.6c4.3 0 7.9 3.5 8 7.8zm-17.6 16.5c0-5.4-4-9.8-8.8-9.8-3.1.1-6 1.8-7.5 4.6-1.5-2.8-4.3-4.5-7.5-4.6-4.9 0-8.8 4.4-8.8 9.8 0 2.4.8 4.8 2.4 6.7L594 434l13.8-12.9c2-2 3.1-4.7 3.1-7.5z"/><path class="st3" d="M455.1 205.3h187.4c6.6 0 12 5.4 12 12v109.6c0 6.6-5.4 12-12 12H455.1c-6.6 0-12-5.4-12-12V217.3c0-6.6 5.4-12 12-12z"/><path class="st0" d="M459.3 224.9h178.9v10.6H459.3zM459.3 244.6h178.9v10.6H459.3zM459.3 264.3h178.9v10.6H459.3zM459.3 284h178.9v10.6H459.3zM459.3 303.7h178.9v10.6H459.3z"/><path class="st3" d="M443.1 152.4h211.4V166H443.1zM443.1 175.4h211.4V189H443.1zM185.9 152.4h237.6V166H185.9zM185.9 504.9h237.6v13.6H185.9zM443.1 504.9h211.4v13.6H443.1zM185.9 175.4h237.6V189H185.9z"/><path fill="#828282" stroke="#000" stroke-width=".499995" stroke-miterlimit="10" d="M558.422 474.672l10.183-10.182 31.183 31.183-10.182 10.182z"/><path class="st6" d="M767.1 641.9l-30.3 30.3-159.7-158.6 30.4-30.4z"/><path transform="rotate(-45.001 596.365 502.493)" class="st2" d="M574.9 496.7h42.9v11.5h-42.9z"/><path class="st1" d="M354.3 381.2c0 67.8 54.9 122.7 122.7 122.8 67.8 0 122.7-54.9 122.8-122.7 0-67.8-54.9-122.7-122.7-122.8-67.8 0-122.8 54.9-122.8 122.7z"/><path class="st2" d="M521.4 320.2l-20.6-20.6c-.7-.6-1.7-.6-2.4 0l-4.5 4.4c-.7.7-.7 1.8 0 2.4l15 15-15 15c-.7.7-.7 1.8 0 2.4l4.5 4.5c.3.3.8.5 1.2.5.5 0 .9-.2 1.2-.5l20.6-20.6c.6-.7.6-1.8 0-2.5zM461.4 336.4l-15-15 15-15c.3-.3.5-.8.5-1.2 0-.5-.2-.9-.5-1.2l-4.5-4.5c-.3-.3-.8-.5-1.2-.5-.5 0-.9.2-1.2.5l-20.7 20.7c-.7.7-.7 1.8 0 2.4l20.6 20.6c.3.3.8.5 1.2.5.5 0 .9-.2 1.2-.5l4.5-4.5c.7-.6.7-1.6.1-2.3zM491.7 288.5c-.3-.6-.9-1-1.5-1.2l-5.4-1.6c-1.3-.4-2.7.4-3.1 1.7l-18.5 65.1c-.2.6-.1 1.3.2 1.9.3.6.9 1 1.5 1.2l5.4 1.6c1.3.4 2.7-.4 3.1-1.7l18.5-65.1c.2-.6.1-1.3-.2-1.9zM568.8 379.1l-20.7-20.6c-.7-.6-1.7-.6-2.4 0l-4.5 4.5c-.7.7-.7 1.8 0 2.4l15 15-15 15c-.7.7-.7 1.8 0 2.4l4.5 4.5c.3.3.8.5 1.2.5.5 0 .9-.2 1.2-.5l20.7-20.6c.7-.7.7-1.8 0-2.4v-.2zM411.4 395.3l-15-15 15-15c.3-.3.5-.8.5-1.2 0-.5-.2-.9-.5-1.2l-4.5-4.5c-.7-.7-1.8-.7-2.4 0L383.9 379c-.7.7-.7 1.8 0 2.4l20.6 20.6c.3.3.8.5 1.2.5.5 0 .9-.2 1.2-.5l4.5-4.5c.6-.5.6-1.6 0-2.2z"/><path class="st5" d="M344.6 381.2c0 73.2 59.3 132.5 132.5 132.5s132.5-59.3 132.5-132.5-59.3-132.5-132.5-132.5S344.6 308 344.6 381.2zm20.9 0c0-61.6 50-111.6 111.6-111.6s111.6 50 111.6 111.6-50 111.6-111.6 111.6c-61.6 0-111.6-50-111.6-111.6z"/><path d="M439.7 395.2c-9 0-14.7-6.4-14.7-16.6 0-9.1 5.3-16.6 15-16.6 6.2 0 12.5 3.5 13.1 10.2H449c-.9-4.1-4.3-6.6-9-6.6-7.5 0-10.7 6.3-10.7 13 0 8.1 4.1 13 10.6 13 5.4 0 8.7-3.2 9.4-9.1h4.2c-.8 8-5.9 12.7-13.8 12.7zM479.1 382.8c0 7.8-4.1 12.3-11 12.3-7 0-11.2-4.5-11.2-12.1s4.3-12.2 11.3-12.2 10.9 4.4 10.9 12zm-18.3.1c0 5.7 2.7 9 7.3 9 4.5 0 7.1-3.4 7.1-9 0-5.5-2.8-9-7.2-9s-7.2 3.6-7.2 9zM504.3 394.4h-3.6V391c-1.4 2.6-4.1 4-7.6 4-6.5 0-10.6-4.7-10.6-12.2 0-6.5 3.4-12.1 10.5-12.1 3.3 0 5.8 1.3 7.5 3.7v-11.8h3.8v31.8zm-17.8-11.6c0 5.6 2.8 9.1 7.1 9.1 4.4 0 7-3.4 7-9 0-4.6-2-8.9-7.1-8.9-4.3 0-7 3.4-7 8.8zM519.7 395.2c-6.8 0-10.8-4.5-10.8-11.9s4.3-12.5 10.7-12.5c7.6 0 10.4 6 10.4 12.6v.5h-17.3v.3c0 4.9 2.7 7.8 7.2 7.8 3.3 0 5.1-1.4 6.2-4.9h3.7c-1.3 5.4-4.7 8.1-10.1 8.1zm-.3-21.3c-3.7 0-6.3 2.7-6.8 7H526c-.3-4.4-2.8-7-6.6-7z"/><path class="st3" d="M399.5 419.7h153.8V431H399.5zM409.8 439.8H543v11.3H409.8zM424.1 459.9h104.5v11.3H424.1z"/></svg>