<?xml version="1.0" encoding="utf-8"?>
<!-- Generator: Adobe Illustrator 22.0.1, SVG Export Plug-In . SVG Version: 6.00 Build 0)  -->
<svg version="1.1" id="Layer_1" xmlns="http://www.w3.org/2000/svg" xmlns:xlink="http://www.w3.org/1999/xlink" x="0px" y="0px"
	 viewBox="0 0 840 672.6" style="enable-background:new 0 0 840 672.6;" xml:space="preserve">
<style type="text/css">
	.st0{fill:#FFFFFF;}
	.st1{fill:#FFFFFF;stroke:#000000;stroke-width:0.5;stroke-miterlimit:10;}
	.st2{fill:#0077BF;stroke:#000000;stroke-width:0.5;stroke-miterlimit:10;}
	.st3{fill:#CECECE;stroke:#000000;stroke-width:0.5;stroke-miterlimit:10;}
	.st4{clip-path:url(#SVGID_2_);}
	.st5{fill:#EB058C;stroke:#000000;stroke-width:0.5;stroke-miterlimit:10;}
	.st6{fill:#FFE600;stroke:#000000;stroke-width:0.5;stroke-miterlimit:10;}
	.st7{fill:#828282;stroke:#000000;stroke-width:0.5;stroke-miterlimit:10;}
	.st8{enable-background:new    ;}
</style>
<title>CEO4</title>
<path class="st0" d="M226.3,23.8C403.7-29.3,607.9,8.9,725,113.7c86.9,77.9,114.5,188.4,115,287.8c0.8,149.2-46.2,205.3-149.1,237
	c-50,15.4-107.1-22.3-156.1-73.6C384,406.8,254.2,695.1,47.3,499.5C-67.9,390.5,41,79.3,226.3,23.8z"/>
<path class="st1" d="M156.4,100.5h526.3c2.6,0,4.8,2.1,4.8,4.8V539c0,2.6-2.1,4.8-4.8,4.8H156.4c-2.6,0-4.8-2.1-4.8-4.8V105.3
	C151.7,102.7,153.8,100.5,156.4,100.5z"/>
<path class="st2" d="M156.4,100.5h526.2c2.6,0,4.8,2.1,4.8,4.8v0v31l0,0H151.7l0,0v-31C151.7,102.7,153.8,100.5,156.4,100.5z"/>
<circle class="st1" cx="173" cy="117.8" r="9.6"/>
<circle class="st1" cx="199.7" cy="117.8" r="9.6"/>
<circle class="st1" cx="226.3" cy="117.8" r="9.6"/>
<path class="st3" d="M410.2,487H198c-7.4,0-13.3-6-13.3-13.3V371.2c0-7.4,6-13.3,13.3-13.3h212.1c7.4,0,13.3,6,13.3,13.3v102.4
	C423.5,481,417.5,487,410.2,487z"/>
<path class="st2" d="M184.7,379.5v-5.6c0-8.8,7.8-16,17.4-16h204c9.6,0,17.4,7.2,17.4,16v5.6H184.7z"/>
<ellipse class="st1" cx="402.4" cy="368.7" rx="3.6" ry="3.3"/>
<ellipse class="st1" cx="391.9" cy="368.7" rx="3.6" ry="3.3"/>
<ellipse class="st1" cx="381.5" cy="368.7" rx="3.6" ry="3.3"/>
<g>
	<defs>
		<rect id="SVGID_1_" x="219" y="386.5" width="170.3" height="100.1"/>
	</defs>
	<clipPath id="SVGID_2_">
		<use xlink:href="#SVGID_1_"  style="overflow:visible;"/>
	</clipPath>
	<g class="st4">
		<path class="st2" d="M262,489.7c0-29.5,18.9-61.6,42.1-61.6s42.1,32.1,42.1,61.6L262,489.7z"/>
		<ellipse class="st2" cx="303.1" cy="413.5" rx="23.5" ry="21.6"/>
	</g>
</g>
<path class="st0" d="M301.9,468c-20.5,0-37.2-15.3-37.2-34.1s16.7-34.1,37.2-34.1s37.2,15.3,37.2,34.1S322.4,468,301.9,468z
	 M301.9,407c-16.1,0-29.2,12-29.2,26.8s13.1,26.8,29.2,26.8s29.2-12,29.2-26.8S318,407,301.9,407z"/>
<polygon class="st0" points="324.8,434.7 291.6,417 291.6,452.3 "/>
<path class="st1" d="M198,205.3h212.1c7.4,0,13.3,6,13.3,13.3v102.1c0,7.4-6,13.3-13.3,13.3H198c-7.4,0-13.3-6-13.3-13.3V218.6
	C184.7,211.2,190.7,205.3,198,205.3z"/>
<path class="st5" d="M423.5,310.2v6.6c0,9.5-7.7,17.2-17.2,17.2H201.9c-9.5,0-17.2-7.7-17.2-17.2l0,0v-6.6L423.5,310.2z"/>
<polygon class="st2" points="209.2,293.6 247.6,252.6 271.5,281.6 285.2,273.1 315.1,293.6 361.3,262 394.6,295.3 "/>
<circle class="st6" cx="323.7" cy="246.3" r="12.4"/>
<path class="st1" d="M456.5,357.9H641c7.4,0,13.4,6,13.4,13.4v101.9c0,7.4-6,13.4-13.4,13.4H456.5c-7.4,0-13.4-6-13.4-13.4V371.3
	C443.1,363.9,449.1,357.9,456.5,357.9z"/>
<path class="st2" d="M534.7,406.4h-2v24.3c0,3.8-2,7.2-6,7.2h-38.8v1.2c0,3.4,3.4,6.7,6.9,6.7h29.7l11.4,7.4l-1.7-7.4h0.4
	c3.5,0,5.1-3.4,5.1-6.7v-26.9C539.8,408.8,538.2,406.4,534.7,406.4z"/>
<path class="st2" d="M521,389.5h-45.1c-4,0-8.5,3.9-8.5,7.7v30.5c0,3.5,3.9,6,7.6,6.4l-2.4,10.2l15.5-10.1h33c4,0,7.6-2.7,7.6-6.5
	v-30.5C528.6,393.4,525,389.5,521,389.5z M482.8,415.2c-2.5,0.3-4.8-1.5-5-4c-0.3-2.5,1.5-4.8,4-5c2.5-0.3,4.8,1.5,5,4
	c0,0.2,0,0.3,0,0.5C486.9,413,485.1,415.1,482.8,415.2z M498,415.2c-2.5,0.3-4.8-1.5-5-4.1c-0.3-2.5,1.5-4.8,4.1-5
	c2.5-0.3,4.8,1.5,5,4.1c0,0.2,0,0.3,0,0.5C502.2,413,500.3,415.1,498,415.2z M513.2,415.2c-2.5,0.3-4.8-1.5-5-4.1
	c-0.3-2.5,1.5-4.8,4.1-5c2.5-0.3,4.8,1.5,5,4.1c0,0.2,0,0.3,0,0.5C517.4,413,515.6,415.1,513.2,415.2z"/>
<path class="st2" d="M594.7,418.9c0,0,0,0.1,0.1,0.1h-0.1C594.6,418.9,594.6,418.9,594.7,418.9z M628.5,397.1v39.3
	c-0.1,4.4-3.6,7.9-8,7.8h-15.9l-9.9,11.6l-9.9-11.6h-15.9c-4.4,0-7.9-3.4-8-7.8v-39.3c0.1-4.4,3.6-7.9,8-7.8h51.6
	C624.8,389.3,628.4,392.8,628.5,397.1L628.5,397.1z M610.9,413.6c0-5.4-4-9.8-8.8-9.8c-3.1,0.1-6,1.8-7.5,4.6
	c-1.5-2.8-4.3-4.5-7.5-4.6c-4.9,0-8.8,4.4-8.8,9.8c0,2.4,0.8,4.8,2.4,6.7L594,434l13.8-12.9C609.8,419.1,610.9,416.4,610.9,413.6
	L610.9,413.6z"/>
<path class="st3" d="M455.1,205.3h187.4c6.6,0,12,5.4,12,12v109.6c0,6.6-5.4,12-12,12H455.1c-6.6,0-12-5.4-12-12V217.3
	C443.1,210.7,448.5,205.3,455.1,205.3z"/>
<rect x="459.3" y="224.9" class="st0" width="178.9" height="10.6"/>
<rect x="459.3" y="244.6" class="st0" width="178.9" height="10.6"/>
<rect x="459.3" y="264.3" class="st0" width="178.9" height="10.6"/>
<rect x="459.3" y="284" class="st0" width="178.9" height="10.6"/>
<rect x="459.3" y="303.7" class="st0" width="178.9" height="10.6"/>
<rect x="443.1" y="152.4" class="st3" width="211.4" height="13.6"/>
<rect x="443.1" y="175.4" class="st3" width="211.4" height="13.6"/>
<rect x="185.9" y="152.4" class="st3" width="237.6" height="13.6"/>
<rect x="185.9" y="504.9" class="st3" width="237.6" height="13.6"/>
<rect x="443.1" y="504.9" class="st3" width="211.4" height="13.6"/>
<rect x="185.9" y="175.4" class="st3" width="237.6" height="13.6"/>
<rect x="571.9" y="463.1" transform="matrix(0.7071 -0.7071 0.7071 0.7071 -173.4261 551.6046)" class="st7" width="14.4" height="44.1"/>
<polygon class="st6" points="767.1,641.9 736.8,672.2 577.1,513.6 607.5,483.2 "/>
<rect x="574.9" y="496.7" transform="matrix(0.7071 -0.7071 0.7071 0.7071 -180.6372 568.8696)" class="st2" width="42.9" height="11.5"/>
<path class="st1" d="M354.3,381.2c0,67.8,54.9,122.7,122.7,122.8c67.8,0,122.7-54.9,122.8-122.7c0-67.8-54.9-122.7-122.7-122.8
	c0,0,0,0,0,0C409.3,258.5,354.3,313.4,354.3,381.2z"/>
<path class="st2" d="M521.4,320.2l-20.6-20.6c-0.7-0.6-1.7-0.6-2.4,0l-4.5,4.4c-0.7,0.7-0.7,1.8,0,2.4c0,0,0,0,0,0l15,15l-15,15
	c-0.7,0.7-0.7,1.8,0,2.4c0,0,0,0,0,0l4.5,4.5c0.3,0.3,0.8,0.5,1.2,0.5c0.5,0,0.9-0.2,1.2-0.5l20.6-20.6
	C522,322,522,320.9,521.4,320.2L521.4,320.2z"/>
<path class="st2" d="M461.4,336.4l-15-15l15-15c0.3-0.3,0.5-0.8,0.5-1.2c0-0.5-0.2-0.9-0.5-1.2l-4.5-4.5c-0.3-0.3-0.8-0.5-1.2-0.5
	c-0.5,0-0.9,0.2-1.2,0.5l-20.7,20.7c-0.7,0.7-0.7,1.8,0,2.4l20.6,20.6c0.3,0.3,0.8,0.5,1.2,0.5c0.5,0,0.9-0.2,1.2-0.5l4.5-4.5
	C462,338.1,462,337.1,461.4,336.4C461.4,336.4,461.4,336.4,461.4,336.4L461.4,336.4z"/>
<path class="st2" d="M491.7,288.5c-0.3-0.6-0.9-1-1.5-1.2l-5.4-1.6c-1.3-0.4-2.7,0.4-3.1,1.7l-18.5,65.1c-0.2,0.6-0.1,1.3,0.2,1.9
	c0.3,0.6,0.9,1,1.5,1.2l5.4,1.6c1.3,0.4,2.7-0.4,3.1-1.7l18.5-65.1C492.1,289.8,492,289.1,491.7,288.5L491.7,288.5z"/>
<path class="st2" d="M568.8,379.1l-20.7-20.6c-0.7-0.6-1.7-0.6-2.4,0l-4.5,4.5c-0.7,0.7-0.7,1.8,0,2.4l15,15l-15,15
	c-0.7,0.7-0.7,1.8,0,2.4l4.5,4.5c0.3,0.3,0.8,0.5,1.2,0.5c0.5,0,0.9-0.2,1.2-0.5l20.7-20.6c0.7-0.7,0.7-1.8,0-2.4c0,0,0,0,0,0
	L568.8,379.1z"/>
<path class="st2" d="M411.4,395.3l-15-15l15-15c0.3-0.3,0.5-0.8,0.5-1.2c0-0.5-0.2-0.9-0.5-1.2l-4.5-4.5c-0.7-0.7-1.8-0.7-2.4,0
	c0,0,0,0,0,0l-20.6,20.6c-0.7,0.7-0.7,1.8,0,2.4c0,0,0,0,0,0l20.6,20.6c0.3,0.3,0.8,0.5,1.2,0.5c0.5,0,0.9-0.2,1.2-0.5l4.5-4.5
	C412,397,412,395.9,411.4,395.3L411.4,395.3z"/>
<path class="st5" d="M344.6,381.2c0,73.2,59.3,132.5,132.5,132.5c73.2,0,132.5-59.3,132.5-132.5c0-73.2-59.3-132.5-132.5-132.5
	c0,0,0,0,0,0C403.9,248.7,344.6,308,344.6,381.2z M365.5,381.2c0-61.6,50-111.6,111.6-111.6s111.6,50,111.6,111.6
	s-50,111.6-111.6,111.6h0C415.5,492.8,365.5,442.8,365.5,381.2z"/>
<g class="st8">
	<path d="M439.7,395.2c-9,0-14.7-6.4-14.7-16.6c0-9.1,5.3-16.6,15-16.6c6.2,0,12.5,3.5,13.1,10.2H449c-0.9-4.1-4.3-6.6-9-6.6
		c-7.5,0-10.7,6.3-10.7,13c0,8.1,4.1,13,10.6,13c5.4,0,8.7-3.2,9.4-9.1h4.2C452.7,390.5,447.6,395.2,439.7,395.2z"/>
	<path d="M479.1,382.8c0,7.8-4.1,12.3-11,12.3c-7,0-11.2-4.5-11.2-12.1s4.3-12.2,11.3-12.2S479.1,375.2,479.1,382.8z M460.8,382.9
		c0,5.7,2.7,9,7.3,9c4.5,0,7.1-3.4,7.1-9c0-5.5-2.8-9-7.2-9S460.8,377.5,460.8,382.9z"/>
	<path d="M504.3,394.4h-3.6V391c-1.4,2.6-4.1,4-7.6,4c-6.5,0-10.6-4.7-10.6-12.2c0-6.5,3.4-12.1,10.5-12.1c3.3,0,5.8,1.3,7.5,3.7
		v-11.8h3.8V394.4z M486.5,382.8c0,5.6,2.8,9.1,7.1,9.1c4.4,0,7-3.4,7-9c0-4.6-2-8.9-7.1-8.9C489.2,374,486.5,377.4,486.5,382.8z"/>
	<path d="M519.7,395.2c-6.8,0-10.8-4.5-10.8-11.9c0-7.4,4.3-12.5,10.7-12.5c7.6,0,10.4,6,10.4,12.6v0.5h-17.3l0,0.3
		c0,4.9,2.7,7.8,7.2,7.8c3.3,0,5.1-1.4,6.2-4.9h3.7C528.5,392.5,525.1,395.2,519.7,395.2z M519.4,373.9c-3.7,0-6.3,2.7-6.8,7H526
		C525.7,376.5,523.2,373.9,519.4,373.9z"/>
</g>
<rect x="399.5" y="419.7" class="st3" width="153.8" height="11.3"/>
<rect x="409.8" y="439.8" class="st3" width="133.2" height="11.3"/>
<rect x="424.1" y="459.9" class="st3" width="104.5" height="11.3"/>
</svg>
