<?xml version="1.0" encoding="utf-8"?>
<!-- Generator: Adobe Illustrator 22.0.1, SVG Export Plug-In . SVG Version: 6.00 Build 0)  -->
<svg version="1.1" id="Layer_1" xmlns="http://www.w3.org/2000/svg" xmlns:xlink="http://www.w3.org/1999/xlink" x="0px" y="0px"
	 viewBox="0 0 842 678.1" style="enable-background:new 0 0 842 678.1;" xml:space="preserve">
<style type="text/css">
	.st0{fill:#FFFFFF;}
	.st1{fill:#FFFFFF;stroke:#000000;stroke-width:0.5;stroke-miterlimit:10;}
	.st2{fill:#0077BF;stroke:#000000;stroke-width:0.5;stroke-miterlimit:10;}
	.st3{fill:#BCBCBC;}
	.st4{fill:#EB058C;stroke:#000000;stroke-width:0.5;stroke-miterlimit:10;}
	.st5{fill:#FFE600;stroke:#000000;stroke-width:0.5;stroke-miterlimit:10;}
	.st6{fill:#C6C6C6;}
	.st7{font-family:'HelveticaNeueCyr-Roman';}
	.st8{font-size:46.28px;}
	.st9{letter-spacing:-5;}
	.st10{enable-background:new    ;}
	.st11{fill:none;stroke:#000000;stroke-width:0.75;stroke-miterlimit:10;}
	.st12{fill:#D8D8D8;}
	.st13{fill:none;stroke:#000000;stroke-width:0.5;stroke-miterlimit:10;}
</style>
<title>CEO3</title>
<g id="Layer_6">
	<path class="st0" d="M278.6,575.7c0,0-142.8,60.6-241.2-81.2c0,0-129.4-197.6,93.3-387.6c0,0,93.4-102.6,289.9-106.9
		C490.4-1.5,624.4,23.8,711,111.5c0,0,101.1,102.6,122.5,232.4c14.2,86.3,34.8,284-160.8,332.2c0,0-120.5,21.2-156.7-72.4
		C515.9,603.7,469.5,455.2,278.6,575.7z"/>
</g>
<path class="st1" d="M282.2,262.5h305.6c2.6,0,4.8,2.1,4.8,4.8v201.2c0,2.6-2.1,4.8-4.8,4.8H282.2c-2.6,0-4.8-2.1-4.8-4.8V267.2
	C277.5,264.6,279.6,262.5,282.2,262.5z"/>
<path class="st2" d="M282.2,262.5h305.6c2.6,0,4.8,2.1,4.8,4.8c0,0,0,0,0,0v16.3l0,0H277.5l0,0v-16.3
	C277.5,264.6,279.6,262.5,282.2,262.5C282.2,262.5,282.2,262.5,282.2,262.5z"/>
<circle class="st1" cx="290" cy="272.6" r="5.6"/>
<circle class="st1" cx="305.7" cy="272.6" r="5.6"/>
<circle class="st1" cx="321.4" cy="272.6" r="5.6"/>
<path class="st1" d="M560.3,380H457.9c-7.4,0-13.3-6-13.3-13.3v-49.3c0-7.4,6-13.3,13.3-13.3h102.3c7.4,0,13.3,6,13.3,13.3v49.3
	C573.6,374,567.6,380,560.3,380z"/>
<path class="st2" d="M444.6,316.8v-3.3c0-5.2,4.2-9.4,9.4-9.4l0,0h110.2c5.2,0,9.4,4.2,9.4,9.4v3.3H444.6z"/>
<circle class="st1" cx="562.2" cy="310.4" r="1.9"/>
<circle class="st1" cx="556.5" cy="310.4" r="1.9"/>
<circle class="st1" cx="550.9" cy="310.4" r="1.9"/>
<rect x="450.6" y="327.6" class="st3" width="117.1" height="5.6"/>
<rect x="450.6" y="337.5" class="st3" width="117.1" height="5.6"/>
<rect x="450.6" y="347.4" class="st3" width="117.1" height="5.6"/>
<rect x="450.6" y="357.2" class="st3" width="117.1" height="5.6"/>
<path class="st1" d="M310.2,304.1H424c7.4,0,13.3,6,13.3,13.3v49.1c0,7.4-6,13.3-13.3,13.3H310.2c-7.4,0-13.3-6-13.3-13.3v-49.1
	C296.9,310,302.9,304.1,310.2,304.1z"/>
<path class="st4" d="M437.4,365.8v3.9c0,5.6-4.5,10.1-10.1,10.1H307c-5.6,0-10.1-4.5-10.1-10.1v-3.9H437.4z"/>
<polygon class="st2" points="311.3,356 333.9,331.9 348,349 356,344 373.6,356 400.8,337.4 420.4,357 "/>
<circle class="st5" cx="378.6" cy="328.2" r="7.3"/>
<path class="st1" d="M462.3,393.8h97.5c7.4,0,13.4,6,13.4,13.4v41.2c0,7.4-6,13.4-13.4,13.4h-97.5c-7.4,0-13.4-6-13.4-13.4v-41.2
	C448.9,399.8,454.9,393.8,462.3,393.8z"/>
<path class="st2" d="M502.8,419.4h-1.2v12.8c0,2-1.2,3.8-3.5,3.8h-22.9v0.6c0,1.8,2,3.5,4.1,3.5h17.5l6.7,3.9l-1-3.9h0.3
	c2.1,0,3-1.8,3-3.5v-14.2c0.2-1.5-0.9-2.9-2.4-3C503.2,419.4,503,419.4,502.8,419.4L502.8,419.4z"/>
<path class="st2" d="M494.7,410.5h-26.5c-2.3,0-5,2.1-5,4.1v16.1c0,1.8,2.3,3.2,4.5,3.4l-1.4,5.4l9.1-5.4h19.4
	c2.3,0,4.5-1.4,4.5-3.4v-16.1C499.2,412.6,497.1,410.5,494.7,410.5L494.7,410.5z M472.2,424.1c-1.3,0-2.4-1.1-2.4-2.4
	c0-1.3,1.1-2.4,2.4-2.4s2.4,1.1,2.4,2.4c0,0,0,0,0,0C474.6,423,473.5,424.1,472.2,424.1C472.2,424.1,472.2,424.1,472.2,424.1z
	 M481.2,424.1c-1.3,0-2.4-1.1-2.4-2.4c0-1.3,1.1-2.4,2.4-2.4c1.3,0,2.4,1.1,2.4,2.4l0,0C483.6,423,482.5,424.1,481.2,424.1z
	 M490.2,424.1c-1.3,0-2.4-1.1-2.4-2.4c0-1.3,1.1-2.4,2.4-2.4c1.3,0,2.4,1.1,2.4,2.4l0,0C492.6,423,491.5,424.1,490.2,424.1z"/>
<path class="st4" d="M538,426L538,426L538,426L538,426z M557.9,414.5v20.8c0,2.3-2.1,4.1-4.7,4.1h-9.3l-5.8,6.2l-5.8-6.1h-9.3
	c-2.4,0.1-4.5-1.7-4.7-4.1v-20.8c0.2-2.4,2.3-4.3,4.7-4.1h30.4C555.8,410.4,557.9,412.3,557.9,414.5L557.9,414.5z M547.6,423.2
	c0-2.9-2.3-5.2-5.2-5.2c-1.8,0-3.4,0.9-4.4,2.4c-1.5-2.4-4.7-3.1-7.2-1.6s-3.1,4.7-1.6,7.2c0.2,0.3,0.4,0.5,0.6,0.7l7.8,7.2l8.1-6.8
	C546.9,426.2,547.6,424.7,547.6,423.2L547.6,423.2z"/>
<rect x="296.9" y="395.4" class="st6" width="140.5" height="7.9"/>
<rect x="296.9" y="410" class="st6" width="140.5" height="7.9"/>
<rect x="296.9" y="424.6" class="st6" width="140.5" height="7.9"/>
<rect x="296.9" y="439.3" class="st6" width="140.5" height="7.9"/>
<rect x="296.9" y="453.9" class="st6" width="140.5" height="7.9"/>
<text transform="matrix(1 0 0 1 301.97 249.04)" class="st7 st8 st9">Y</text>
<g class="st10">
	<path d="M351.7,237c0,8.1-4.2,12.8-11.5,12.8c-7.3,0-11.7-4.7-11.7-12.6s4.5-12.7,11.7-12.7C347.5,224.5,351.7,229,351.7,237z
		 M332.6,237.1c0,5.9,2.8,9.3,7.6,9.3c4.6,0,7.4-3.5,7.4-9.4c0-5.7-2.9-9.3-7.5-9.3S332.6,231.4,332.6,237.1z"/>
	<path d="M376.2,249h-3.7v-3.7c-2.1,3-4.7,4.4-8.2,4.4c-5,0-8-2.8-8-8.1v-16.4h3.9v15.4c0,3.4,1,5.7,5,5.7c5.2,0,7-3.7,7-8.6v-12.5
		h3.9V249z"/>
	<path d="M394.5,228.7c-0.4,0-0.6,0-1,0c-6.5,0-7.6,5-7.6,10.3V249h-3.9v-23.9h3.7v5.1c1.7-4,4.6-5.7,8.8-5.7V228.7z"/>
	<path d="M412.5,225.2l5.5,19.7l4.9-19.7h4.3l5,19.7l5.4-19.7h4.1L434,249h-4.2l-4.9-18.9l-4.9,18.9h-4.3l-7.7-23.9H412.5z"/>
	<path d="M455.4,249.8c-7,0-11.2-4.6-11.2-12.4c0-7.7,4.5-13,11.1-13c7.9,0,10.8,6.2,10.8,13.1v0.6h-18l0,0.3c0,5.1,2.8,8.1,7.5,8.1
		c3.4,0,5.3-1.5,6.4-5.1h3.8C464.6,247,461.1,249.8,455.4,249.8z M455.2,227.7c-3.8,0-6.5,2.8-7,7.3H462
		C461.7,230.4,459.1,227.7,455.2,227.7z"/>
	<path d="M474.2,228.4c1.8-2.7,4.6-3.9,7.9-3.9c6.5,0,10.8,4.9,10.8,12.5c0,7.7-4.4,12.7-11,12.7c-3.3,0-6.3-1.2-7.9-4.2v3.5h-3.7
		v-33h3.9V228.4z M474,237.3c0,5.6,2.9,9.2,7.5,9.2c4.4,0,7.3-3.7,7.3-9.4c0-5.6-2.9-9.2-7.3-9.2C476,227.8,474,232.5,474,237.3z"/>
	<path d="M511.5,232.1c-0.3-3.1-2.5-4.4-5.8-4.4c-3,0-4.9,1.2-4.9,3.2c0,2.7,3.1,3.1,6.3,3.8c4,0.9,9.3,2.1,9.3,7.3
		c0,4.6-3.9,7.7-9.9,7.7c-6.5,0-10-2.9-10.3-8.3h3.9c0.2,3.6,2.7,5,6.5,5c3.5,0,5.8-1.6,5.8-4c0-2.6-2.7-3.2-6-4
		c-4.1-1-9.6-1.5-9.6-7c0-4.3,3.6-7,9.1-7c5.4,0,9.5,2.6,9.5,7.6H511.5z"/>
	<path d="M525,220.9h-4v-4.8h4V220.9z M525,249h-4v-23.9h4V249z"/>
	<path d="M541.4,228.4h-4.8v13.9c0,2.2-0.1,3.5,2.6,3.5c0.8,0,1.3,0,2.1-0.1v3.4c-1.2,0.1-1.8,0.2-3,0.2c-6,0-5.7-3-5.7-8.2v-12.7
		h-4v-3.2h4v-7.1h3.9v7.1h4.8V228.4z"/>
	<path d="M555.7,249.8c-7,0-11.2-4.6-11.2-12.4c0-7.7,4.5-13,11.1-13c7.9,0,10.8,6.2,10.8,13.1v0.6h-18l0,0.3c0,5.1,2.8,8.1,7.5,8.1
		c3.4,0,5.3-1.5,6.4-5.1h3.8C564.9,247,561.4,249.8,555.7,249.8z M555.5,227.7c-3.8,0-6.5,2.8-7,7.3h13.9
		C562,230.4,559.4,227.7,555.5,227.7z"/>
</g>
<path class="st11" d="M502.5,125.9c20.6,0,37.3,16.7,37.3,37.3c0,9.9-3.9,19.4-10.9,26.4"/>
<polygon class="st4" points="522.3,198.7 536.9,192.3 524.1,182.9 "/>
<path class="st11" d="M365.8,570.3c-20.6,0-37.3-16.7-37.3-37.3c0-9.9,3.9-19.4,10.9-26.4"/>
<polygon class="st4" points="346,497.5 331.4,503.9 344.2,513.3 "/>
<path class="st11" d="M190.8,409.9c-13.5-15.5-11.8-39.1,3.7-52.6c7.5-6.5,17.2-9.7,27.1-9"/>
<polygon class="st4" points="232.7,347.1 218.4,340.3 219.6,356.1 "/>
<path class="st11" d="M192.8,186.5c11.2-17.3,34.3-22.2,51.5-11c8.3,5.4,14.1,13.8,16.2,23.5"/>
<polygon class="st4" points="264.7,209.5 267.2,193.8 252.4,199.4 "/>
<path class="st11" d="M673.5,299.8c14.6,14.6,14.5,38.2,0,52.7c-7,7-16.5,10.9-26.4,10.9"/>
<polygon class="st4" points="636.1,365.4 650.9,371.1 648.5,355.5 "/>
<path class="st11" d="M675.5,515.1c-6.8,19.4-28.1,29.6-47.5,22.7c-9.3-3.3-17-10.1-21.2-19.1"/>
<polygon class="st4" points="600.2,509.6 601.4,525.5 614.5,516.5 "/>
<path class="st1" d="M658.2,401.9H790c2.6,0,4.8,2.1,4.8,4.8V517c0,2.6-2.1,4.8-4.8,4.8H658.2c-2.6,0-4.8-2.1-4.8-4.8V406.6
	C653.5,404,655.6,401.9,658.2,401.9z"/>
<path class="st12" d="M794.7,467.3V517c0,2.6-2.1,4.8-4.8,4.8H658.2c-2.6,0-4.8-2.1-4.8-4.8v-49.7H794.7z"/>
<path class="st2" d="M658.2,401.9H790c2.6,0,4.8,2.1,4.8,4.8c0,0,0,0,0,0v4.8l0,0H653.5l0,0v-4.8C653.5,404,655.6,401.9,658.2,401.9
	L658.2,401.9z"/>
<path class="st13" d="M658.2,401.9H790c2.6,0,4.8,2.1,4.8,4.8V517c0,2.6-2.1,4.8-4.8,4.8H658.2c-2.6,0-4.8-2.1-4.8-4.8V406.6
	C653.5,404,655.6,401.9,658.2,401.9z"/>
<circle class="st1" cx="660.8" cy="406.6" r="2.6"/>
<circle class="st1" cx="668.2" cy="406.6" r="2.6"/>
<circle class="st1" cx="675.5" cy="406.6" r="2.6"/>
<path class="st0" d="M713.4,484.6c-2.2,0-4.2-1.2-5.3-3.1c-1.6,2.9-5.2,4-8.1,2.5c-2-1.1-3.2-3.1-3.2-5.4h1.5
	c0.2,2.5,2.3,4.4,4.8,4.2c2.3-0.2,4-1.9,4.2-4.2h1.5c0.2,2.5,2.3,4.4,4.8,4.2c2.3-0.2,4-1.9,4.2-4.2h1.5
	C719.4,481.9,716.7,484.6,713.4,484.6C713.4,484.6,713.4,484.6,713.4,484.6z"/>
<path class="st0" d="M723.9,484.6c-3.3,0-6-2.7-6-6h1.5c-0.2,2.5,1.7,4.6,4.2,4.8s4.6-1.7,4.8-4.2c0-0.2,0-0.4,0-0.6h1.6
	C730,482,727.3,484.6,723.9,484.6C724,484.6,724,484.6,723.9,484.6z"/>
<path class="st0" d="M734.5,484.6c-3.3,0-6-2.7-6-6h1.5c-0.2,2.5,1.7,4.6,4.2,4.8s4.6-1.7,4.8-4.2c0-0.2,0-0.4,0-0.6h1.5
	C740.5,482,737.8,484.6,734.5,484.6C734.5,484.6,734.5,484.6,734.5,484.6z"/>
<path class="st0" d="M745,484.6c-3.3,0-6-2.7-6-6h1.5c-0.2,2.5,1.7,4.6,4.2,4.8s4.6-1.7,4.8-4.2c0-0.2,0-0.4,0-0.6h1.5
	C751,482,748.3,484.6,745,484.6z"/>
<rect x="664.5" y="489.1" class="st0" width="118.8" height="2.8"/>
<rect x="664.5" y="494.8" class="st0" width="118.8" height="2.8"/>
<rect x="664.5" y="500.5" class="st0" width="87.3" height="2.8"/>
<g class="st10">
	<path d="M682.8,428.5c3.1,0,6,1.3,6,4.7c0,1.9-1.1,3.5-2.8,4.1c2.3,0.5,3.6,2.3,3.6,4.8c0,4.4-3.6,5.4-7.2,5.4h-7.8v-19H682.8z
		 M677.2,436.6h4.5c2.1,0,4.7-0.2,4.7-3s-2.2-3-4.4-3h-4.7V436.6z M677.2,445.4h5c2.5,0,5-0.2,5-3.5c0-3.3-2.9-3.3-5.4-3.3h-4.6
		V445.4z"/>
	<path d="M704.7,447.4c-0.5,0.2-1,0.3-1.5,0.3c-1.3,0-2-0.7-2-2c-1.4,1.5-2.9,2.2-5,2.2c-2.7,0-4.4-1.5-4.4-3.9
		c0-2.5,1.6-3.9,4.9-4.3c3.3-0.4,4.4-0.3,4.4-2.2c0-1.5-1.1-2.3-3.1-2.3c-2.1,0-3.2,0.8-3.4,2.8h-2.2c0.1-2.9,2.2-4.7,5.8-4.7
		c1.8,0,3.4,0.5,4.3,1.3c1,0.9,0.9,2.3,0.9,3.6c0,2.1-0.1,4.1-0.1,6.1c0,1,0.2,1.4,0.9,1.4c0.2,0,0.3,0,0.6-0.1V447.4z M698.1,441.2
		c-1.7,0.2-3.9,0.4-3.9,2.6c0,1.4,1,2.3,2.7,2.3c2.1,0,4.2-1.5,4.2-3.2v-2.5C700.2,441,699.1,441,698.1,441.2z"/>
	<path d="M712.7,447.9c-4.3,0-6.5-2.9-6.5-7.1c0-4.6,2.6-7.5,6.6-7.5c3.4,0,5.5,1.8,5.8,4.9h-2.3c-0.4-1.9-1.6-3-3.5-3
		c-2.6,0-4.3,2.1-4.3,5.4c0,3.4,1.5,5.4,4.1,5.4c2.1,0,3.4-1.3,3.8-3.5h2.3C718.3,445.7,716.1,447.9,712.7,447.9z"/>
	<path d="M727.3,438.7l5.9,8.8h-2.9l-4.7-7.2l-2.2,2v5.2h-2.2v-19h2.2v11.2l6.3-6h3L727.3,438.7z"/>
	<path d="M737.4,447.5h-2.3v-19h2.3V447.5z"/>
	<path d="M743.3,431.3H741v-2.8h2.3V431.3z M743.3,447.5H741v-13.7h2.3V447.5z"/>
	<path d="M749,435.9c1.1-1.7,2.6-2.5,4.7-2.5c3.4,0,4.6,1.8,4.6,5v9.1H756v-8.1c0-2.2-0.1-4-3-4c-3,0-3.9,2.2-3.9,5v7.2h-2.3v-13.7
		h2.1V435.9z"/>
	<path d="M767.7,438.7l5.9,8.8h-2.9l-4.7-7.2l-2.2,2v5.2h-2.2v-19h2.2v11.2l6.3-6h3L767.7,438.7z"/>
</g>
<path class="st1" d="M78.6,401.9h131.8c2.6,0,4.8,2.1,4.8,4.8V517c0,2.6-2.1,4.8-4.8,4.8H78.6c-2.6,0-4.8-2.1-4.8-4.8V406.6
	C73.8,404,76,401.9,78.6,401.9z"/>
<path class="st12" d="M215.1,467.3V517c0,2.6-2.1,4.8-4.8,4.8H78.6c-2.6,0-4.8-2.1-4.8-4.8v-49.7H215.1z"/>
<path class="st2" d="M78.6,401.9h131.8c2.6,0,4.8,2.1,4.8,4.8l0,0v4.8l0,0H73.8l0,0v-4.8C73.8,404,76,401.9,78.6,401.9L78.6,401.9z"
	/>
<path class="st13" d="M78.6,401.9h131.8c2.6,0,4.8,2.1,4.8,4.8V517c0,2.6-2.1,4.8-4.8,4.8H78.6c-2.6,0-4.8-2.1-4.8-4.8V406.6
	C73.8,404,76,401.9,78.6,401.9z"/>
<circle class="st1" cx="81.2" cy="406.6" r="2.6"/>
<circle class="st1" cx="88.5" cy="406.6" r="2.6"/>
<circle class="st1" cx="95.9" cy="406.6" r="2.6"/>
<path class="st0" d="M133.8,484.6c-2.2,0-4.2-1.2-5.3-3.1c-1.6,2.9-5.2,4-8.1,2.5c-2-1.1-3.2-3.1-3.2-5.4h1.5
	c-0.2,2.5,1.7,4.6,4.2,4.8s4.6-1.7,4.8-4.2c0-0.2,0-0.4,0-0.6h1.5c-0.2,2.5,1.7,4.6,4.2,4.8c2.5,0.2,4.6-1.7,4.8-4.2
	c0-0.2,0-0.4,0-0.6h1.5C139.8,481.9,137.1,484.6,133.8,484.6C133.8,484.6,133.8,484.6,133.8,484.6z"/>
<path class="st0" d="M144.3,484.6c-3.3,0-6-2.7-6-6h1.5c-0.2,2.5,1.7,4.6,4.2,4.8c2.5,0.2,4.6-1.7,4.8-4.2c0-0.2,0-0.4,0-0.6h1.5
	C150.4,482,147.7,484.6,144.3,484.6C144.3,484.6,144.3,484.6,144.3,484.6z"/>
<path class="st0" d="M154.8,484.6c-3.3,0-6-2.7-6-6h1.5c-0.2,2.5,1.7,4.6,4.2,4.8c2.5,0.2,4.6-1.7,4.8-4.2c0-0.2,0-0.4,0-0.6h1.5
	C160.9,482,158.2,484.6,154.8,484.6C154.9,484.6,154.9,484.6,154.8,484.6z"/>
<path class="st0" d="M165.4,484.6c-3.3,0-6-2.7-6-6h1.5c-0.2,2.5,1.7,4.6,4.2,4.8c2.5,0.2,4.6-1.7,4.8-4.2c0-0.2,0-0.4,0-0.6h1.5
	C171.4,482,168.7,484.6,165.4,484.6C165.4,484.6,165.4,484.6,165.4,484.6z"/>
<rect x="84.9" y="489.1" class="st0" width="118.8" height="2.8"/>
<rect x="84.9" y="494.8" class="st0" width="118.8" height="2.8"/>
<rect x="84.9" y="500.5" class="st0" width="87.3" height="2.8"/>
<g class="st10">
	<path d="M103.2,428.5c3.1,0,6,1.3,6,4.7c0,1.9-1.1,3.5-2.8,4.1c2.3,0.5,3.6,2.3,3.6,4.8c0,4.4-3.6,5.4-7.2,5.4h-7.8v-19H103.2z
		 M97.5,436.6h4.5c2.1,0,4.7-0.2,4.7-3s-2.2-3-4.4-3h-4.7V436.6z M97.5,445.4h5c2.5,0,5-0.2,5-3.5c0-3.3-2.9-3.3-5.4-3.3h-4.6V445.4
		z"/>
	<path d="M125.1,447.4c-0.5,0.2-1,0.3-1.5,0.3c-1.3,0-2-0.7-2-2c-1.4,1.5-2.9,2.2-5,2.2c-2.7,0-4.4-1.5-4.4-3.9
		c0-2.5,1.6-3.9,4.9-4.3c3.3-0.4,4.4-0.3,4.4-2.2c0-1.5-1.1-2.3-3.1-2.3c-2.1,0-3.2,0.8-3.4,2.8h-2.2c0.1-2.9,2.2-4.7,5.8-4.7
		c1.8,0,3.4,0.5,4.3,1.3c1,0.9,0.9,2.3,0.9,3.6c0,2.1-0.1,4.1-0.1,6.1c0,1,0.2,1.4,0.9,1.4c0.2,0,0.3,0,0.6-0.1V447.4z M118.4,441.2
		c-1.7,0.2-3.9,0.4-3.9,2.6c0,1.4,1,2.3,2.7,2.3c2.1,0,4.2-1.5,4.2-3.2v-2.5C120.6,441,119.4,441,118.4,441.2z"/>
	<path d="M133.1,447.9c-4.3,0-6.5-2.9-6.5-7.1c0-4.6,2.6-7.5,6.6-7.5c3.4,0,5.5,1.8,5.8,4.9h-2.3c-0.4-1.9-1.6-3-3.5-3
		c-2.6,0-4.3,2.1-4.3,5.4c0,3.4,1.5,5.4,4.1,5.4c2.1,0,3.4-1.3,3.8-3.5h2.3C138.7,445.7,136.5,447.9,133.1,447.9z"/>
	<path d="M147.7,438.7l5.9,8.8h-2.9l-4.7-7.2l-2.2,2v5.2h-2.2v-19h2.2v11.2l6.3-6h3L147.7,438.7z"/>
	<path d="M157.8,447.5h-2.3v-19h2.3V447.5z"/>
	<path d="M163.7,431.3h-2.3v-2.8h2.3V431.3z M163.7,447.5h-2.3v-13.7h2.3V447.5z"/>
	<path d="M169.3,435.9c1.1-1.7,2.6-2.5,4.7-2.5c3.4,0,4.6,1.8,4.6,5v9.1h-2.3v-8.1c0-2.2-0.1-4-3-4c-3,0-3.9,2.2-3.9,5v7.2h-2.3
		v-13.7h2.1V435.9z"/>
	<path d="M188.1,438.7l5.9,8.8h-2.9l-4.7-7.2l-2.2,2v5.2H182v-19h2.2v11.2l6.3-6h3L188.1,438.7z"/>
</g>
<path class="st1" d="M658.2,186.1H790c2.6,0,4.8,2.1,4.8,4.8v110.4c0,2.6-2.1,4.8-4.8,4.8H658.2c-2.6,0-4.8-2.1-4.8-4.8V190.9
	C653.5,188.3,655.6,186.1,658.2,186.1z"/>
<path class="st12" d="M794.7,251.6v49.7c0,2.6-2.1,4.7-4.7,4.7H658.2c-2.6,0-4.8-2.1-4.8-4.8v-49.6H794.7z"/>
<path class="st2" d="M658.2,186.1H790c2.6,0,4.8,2.1,4.8,4.8l0,0v4.8l0,0H653.5l0,0v-4.8C653.5,188.3,655.6,186.1,658.2,186.1
	L658.2,186.1z"/>
<path class="st13" d="M658.2,186.1H790c2.6,0,4.8,2.1,4.8,4.8v110.4c0,2.6-2.1,4.8-4.8,4.8H658.2c-2.6,0-4.8-2.1-4.8-4.8V190.9
	C653.5,188.3,655.6,186.1,658.2,186.1z"/>
<circle class="st1" cx="660.8" cy="190.9" r="2.6"/>
<circle class="st1" cx="668.2" cy="190.9" r="2.6"/>
<circle class="st1" cx="675.5" cy="190.9" r="2.6"/>
<path class="st0" d="M713.4,268.9c-2.2,0-4.2-1.2-5.3-3.1c-1.6,2.9-5.2,4-8.1,2.5c-2-1.1-3.2-3.1-3.2-5.4h1.5
	c0.2,2.5,2.3,4.4,4.8,4.2c2.3-0.2,4-1.9,4.2-4.2h1.5c0.2,2.5,2.3,4.4,4.8,4.2c2.3-0.2,4-1.9,4.2-4.2h1.5
	C719.4,266.2,716.7,268.9,713.4,268.9C713.4,268.9,713.4,268.9,713.4,268.9z"/>
<path class="st0" d="M723.9,268.9c-3.3,0-6-2.7-6-6h1.5c0.2,2.5,2.3,4.4,4.8,4.2c2.3-0.2,4-1.9,4.2-4.2h1.6
	C730,266.2,727.3,268.9,723.9,268.9C724,268.9,724,268.9,723.9,268.9z"/>
<path class="st0" d="M734.5,268.9c-3.3,0-6-2.7-6-6h1.5c0.2,2.5,2.3,4.4,4.8,4.2c2.3-0.2,4-1.9,4.2-4.2h1.5
	C740.5,266.2,737.8,268.9,734.5,268.9C734.5,268.9,734.5,268.9,734.5,268.9z"/>
<path class="st0" d="M745,268.9c-3.3,0-6-2.7-6-6h1.5c0.2,2.5,2.3,4.4,4.8,4.2c2.3-0.2,4-1.9,4.2-4.2h1.5
	C751,266.2,748.3,268.9,745,268.9z"/>
<rect x="664.5" y="273.3" class="st0" width="118.8" height="2.8"/>
<rect x="664.5" y="279" class="st0" width="118.8" height="2.8"/>
<rect x="664.5" y="284.7" class="st0" width="87.3" height="2.8"/>
<g class="st10">
	<path d="M682.8,212.8c3.1,0,6,1.3,6,4.7c0,1.9-1.1,3.5-2.8,4.1c2.3,0.5,3.6,2.3,3.6,4.8c0,4.4-3.6,5.4-7.2,5.4h-7.8v-19H682.8z
		 M677.2,220.9h4.5c2.1,0,4.7-0.2,4.7-3s-2.2-3-4.4-3h-4.7V220.9z M677.2,229.6h5c2.5,0,5-0.2,5-3.5c0-3.3-2.9-3.3-5.4-3.3h-4.6
		V229.6z"/>
	<path d="M704.7,231.7c-0.5,0.2-1,0.3-1.5,0.3c-1.3,0-2-0.7-2-2c-1.4,1.5-2.9,2.2-5,2.2c-2.7,0-4.4-1.5-4.4-3.9
		c0-2.5,1.6-3.9,4.9-4.3c3.3-0.4,4.4-0.3,4.4-2.2c0-1.5-1.1-2.3-3.1-2.3c-2.1,0-3.2,0.8-3.4,2.8h-2.2c0.1-2.9,2.2-4.7,5.8-4.7
		c1.8,0,3.4,0.5,4.3,1.3c1,0.9,0.9,2.3,0.9,3.6c0,2.1-0.1,4.1-0.1,6.1c0,1,0.2,1.4,0.9,1.4c0.2,0,0.3,0,0.6-0.1V231.7z M698.1,225.4
		c-1.7,0.2-3.9,0.4-3.9,2.6c0,1.4,1,2.3,2.7,2.3c2.1,0,4.2-1.5,4.2-3.2v-2.5C700.2,225.2,699.1,225.3,698.1,225.4z"/>
	<path d="M712.7,232.1c-4.3,0-6.5-2.9-6.5-7.1c0-4.6,2.6-7.5,6.6-7.5c3.4,0,5.5,1.8,5.8,4.9h-2.3c-0.4-1.9-1.6-3-3.5-3
		c-2.6,0-4.3,2.1-4.3,5.4c0,3.4,1.5,5.4,4.1,5.4c2.1,0,3.4-1.3,3.8-3.5h2.3C718.3,230,716.1,232.1,712.7,232.1z"/>
	<path d="M727.3,223l5.9,8.8h-2.9l-4.7-7.2l-2.2,2v5.2h-2.2v-19h2.2V224l6.3-6h3L727.3,223z"/>
	<path d="M737.4,231.7h-2.3v-19h2.3V231.7z"/>
	<path d="M743.3,215.5H741v-2.8h2.3V215.5z M743.3,231.7H741V218h2.3V231.7z"/>
	<path d="M749,220.1c1.1-1.7,2.6-2.5,4.7-2.5c3.4,0,4.6,1.8,4.6,5v9.1H756v-8.1c0-2.2-0.1-4-3-4c-3,0-3.9,2.2-3.9,5v7.2h-2.3V218
		h2.1V220.1z"/>
	<path d="M767.7,223l5.9,8.8h-2.9l-4.7-7.2l-2.2,2v5.2h-2.2v-19h2.2V224l6.3-6h3L767.7,223z"/>
</g>
<path class="st1" d="M78.6,186.1h131.8c2.6,0,4.8,2.1,4.8,4.8v110.4c0,2.6-2.1,4.8-4.8,4.8H78.6c-2.6,0-4.8-2.1-4.8-4.8V190.9
	C73.8,188.3,76,186.1,78.6,186.1z"/>
<path class="st12" d="M215.1,251.6v49.7c0,2.6-2.1,4.8-4.8,4.8H78.6c-2.6,0-4.8-2.1-4.8-4.8v-49.7H215.1z"/>
<path class="st2" d="M78.6,186.1h131.8c2.6,0,4.8,2.1,4.8,4.8v4.8l0,0H73.8l0,0v-4.8C73.8,188.3,76,186.1,78.6,186.1z"/>
<path class="st13" d="M78.6,186.1h131.8c2.6,0,4.8,2.1,4.8,4.8v110.4c0,2.6-2.1,4.8-4.8,4.8H78.6c-2.6,0-4.8-2.1-4.8-4.8V190.9
	C73.8,188.3,76,186.1,78.6,186.1z"/>
<circle class="st1" cx="81.2" cy="190.9" r="2.6"/>
<circle class="st1" cx="88.5" cy="190.9" r="2.6"/>
<circle class="st1" cx="95.9" cy="190.9" r="2.6"/>
<path class="st0" d="M133.8,268.9c-2.2,0-4.2-1.2-5.3-3.1c-1.6,2.9-5.2,4-8.1,2.5c-2-1.1-3.2-3.1-3.2-5.4h1.5
	c0.2,2.5,2.3,4.4,4.8,4.2c2.3-0.2,4-1.9,4.2-4.2h1.5c0.2,2.5,2.3,4.4,4.8,4.2c2.3-0.2,4-1.9,4.2-4.2h1.5
	C139.8,266.2,137.1,268.9,133.8,268.9C133.8,268.9,133.8,268.9,133.8,268.9z"/>
<path class="st0" d="M144.3,268.9c-3.3,0-6-2.7-6-6h1.5c0.2,2.5,2.3,4.4,4.8,4.2c2.3-0.2,4-1.9,4.2-4.2h1.5
	C150.4,266.2,147.7,268.9,144.3,268.9C144.3,268.9,144.3,268.9,144.3,268.9z"/>
<path class="st0" d="M154.8,268.9c-3.3,0-6-2.7-6-6h1.5c0.2,2.5,2.3,4.4,4.8,4.2c2.3-0.2,4-1.9,4.2-4.2h1.5
	C160.9,266.2,158.2,268.9,154.8,268.9C154.9,268.9,154.9,268.9,154.8,268.9z"/>
<path class="st0" d="M165.4,268.9c-3.3,0-6-2.7-6-6h1.5c0.2,2.5,2.3,4.4,4.8,4.2c2.3-0.2,4-1.9,4.2-4.2h1.5
	C171.4,266.2,168.7,268.9,165.4,268.9C165.4,268.9,165.4,268.9,165.4,268.9z"/>
<rect x="84.9" y="273.3" class="st0" width="118.8" height="2.8"/>
<rect x="84.9" y="279" class="st0" width="118.8" height="2.8"/>
<rect x="84.9" y="284.7" class="st0" width="87.3" height="2.8"/>
<g class="st10">
	<path d="M103.2,212.8c3.1,0,6,1.3,6,4.7c0,1.9-1.1,3.5-2.8,4.1c2.3,0.5,3.6,2.3,3.6,4.8c0,4.4-3.6,5.4-7.2,5.4h-7.8v-19H103.2z
		 M97.5,220.9h4.5c2.1,0,4.7-0.2,4.7-3s-2.2-3-4.4-3h-4.7V220.9z M97.5,229.6h5c2.5,0,5-0.2,5-3.5c0-3.3-2.9-3.3-5.4-3.3h-4.6V229.6
		z"/>
	<path d="M125.1,231.7c-0.5,0.2-1,0.3-1.5,0.3c-1.3,0-2-0.7-2-2c-1.4,1.5-2.9,2.2-5,2.2c-2.7,0-4.4-1.5-4.4-3.9
		c0-2.5,1.6-3.9,4.9-4.3c3.3-0.4,4.4-0.3,4.4-2.2c0-1.5-1.1-2.3-3.1-2.3c-2.1,0-3.2,0.8-3.4,2.8h-2.2c0.1-2.9,2.2-4.7,5.8-4.7
		c1.8,0,3.4,0.5,4.3,1.3c1,0.9,0.9,2.3,0.9,3.6c0,2.1-0.1,4.1-0.1,6.1c0,1,0.2,1.4,0.9,1.4c0.2,0,0.3,0,0.6-0.1V231.7z M118.4,225.4
		c-1.7,0.2-3.9,0.4-3.9,2.6c0,1.4,1,2.3,2.7,2.3c2.1,0,4.2-1.5,4.2-3.2v-2.5C120.6,225.2,119.4,225.3,118.4,225.4z"/>
	<path d="M133.1,232.1c-4.3,0-6.5-2.9-6.5-7.1c0-4.6,2.6-7.5,6.6-7.5c3.4,0,5.5,1.8,5.8,4.9h-2.3c-0.4-1.9-1.6-3-3.5-3
		c-2.6,0-4.3,2.1-4.3,5.4c0,3.4,1.5,5.4,4.1,5.4c2.1,0,3.4-1.3,3.8-3.5h2.3C138.7,230,136.5,232.1,133.1,232.1z"/>
	<path d="M147.7,223l5.9,8.8h-2.9l-4.7-7.2l-2.2,2v5.2h-2.2v-19h2.2V224l6.3-6h3L147.7,223z"/>
	<path d="M157.8,231.7h-2.3v-19h2.3V231.7z"/>
	<path d="M163.7,215.5h-2.3v-2.8h2.3V215.5z M163.7,231.7h-2.3V218h2.3V231.7z"/>
	<path d="M169.3,220.1c1.1-1.7,2.6-2.5,4.7-2.5c3.4,0,4.6,1.8,4.6,5v9.1h-2.3v-8.1c0-2.2-0.1-4-3-4c-3,0-3.9,2.2-3.9,5v7.2h-2.3V218
		h2.1V220.1z"/>
	<path d="M188.1,223l5.9,8.8h-2.9l-4.7-7.2l-2.2,2v5.2H182v-19h2.2V224l6.3-6h3L188.1,223z"/>
</g>
<path class="st1" d="M369.2,537.9h131.8c2.6,0,4.8,2.1,4.8,4.8V653c0,2.6-2.1,4.8-4.8,4.8H369.2c-2.6,0-4.8-2.1-4.8-4.8V542.6
	C364.4,540,366.5,537.9,369.2,537.9z"/>
<path class="st12" d="M505.7,603.3V653c0,2.6-2.1,4.8-4.8,4.8c0,0,0,0,0,0H369.2c-2.6,0-4.8-2.1-4.8-4.8l0,0v-49.7H505.7z"/>
<path class="st2" d="M369.2,537.9h131.8c2.6,0,4.8,2.1,4.8,4.8l0,0v4.8l0,0H364.4l0,0v-4.8C364.4,540,366.5,537.9,369.2,537.9
	C369.2,537.9,369.2,537.9,369.2,537.9z"/>
<path class="st13" d="M369.2,537.9h131.8c2.6,0,4.8,2.1,4.8,4.8V653c0,2.6-2.1,4.8-4.8,4.8H369.2c-2.6,0-4.8-2.1-4.8-4.8V542.6
	C364.4,540,366.5,537.9,369.2,537.9z"/>
<circle class="st1" cx="371.7" cy="542.7" r="2.6"/>
<circle class="st1" cx="379.1" cy="542.7" r="2.6"/>
<circle class="st1" cx="386.5" cy="542.7" r="2.6"/>
<path class="st0" d="M424.4,620.7c-2.2,0-4.2-1.2-5.3-3.1c-1.6,2.9-5.2,4-8.1,2.5c-2-1.1-3.2-3.1-3.2-5.4h1.5
	c-0.2,2.5,1.7,4.6,4.2,4.8s4.6-1.7,4.8-4.2c0-0.2,0-0.4,0-0.6h1.5c-0.2,2.5,1.7,4.6,4.2,4.8s4.6-1.7,4.8-4.2c0-0.2,0-0.4,0-0.6h1.5
	C430.4,617.9,427.7,620.6,424.4,620.7C424.4,620.7,424.4,620.7,424.4,620.7z"/>
<path class="st0" d="M434.9,620.7c-3.3,0-6-2.7-6-6h1.5c-0.2,2.5,1.7,4.6,4.2,4.8s4.6-1.7,4.8-4.2c0-0.2,0-0.4,0-0.6h1.5
	C440.9,618,438.2,620.7,434.9,620.7C434.9,620.7,434.9,620.7,434.9,620.7z"/>
<path class="st0" d="M445.4,620.7c-3.3,0-6-2.7-6-6h1.5c-0.2,2.5,1.7,4.6,4.2,4.8s4.6-1.7,4.8-4.2c0-0.2,0-0.4,0-0.6h1.5
	C451.5,618,448.8,620.7,445.4,620.7C445.4,620.7,445.4,620.7,445.4,620.7z"/>
<path class="st0" d="M455.9,620.7c-3.3,0-6-2.7-6-6h1.5c0.2,2.5,2.3,4.4,4.8,4.2c2.3-0.2,4-1.9,4.2-4.2h1.5
	C462,618,459.3,620.7,455.9,620.7C456,620.7,456,620.7,455.9,620.7z"/>
<rect x="375.5" y="625.1" class="st0" width="118.9" height="2.8"/>
<rect x="375.5" y="630.8" class="st0" width="118.9" height="2.8"/>
<rect x="375.5" y="636.5" class="st0" width="87.3" height="2.8"/>
<g class="st10">
	<path d="M393.8,564.5c3.1,0,6,1.3,6,4.7c0,1.9-1.1,3.5-2.8,4.1c2.3,0.5,3.6,2.3,3.6,4.8c0,4.4-3.6,5.4-7.2,5.4h-7.8v-19H393.8z
		 M388.1,572.6h4.5c2.1,0,4.7-0.2,4.7-3c0-2.9-2.2-3-4.4-3h-4.7V572.6z M388.1,581.4h5c2.5,0,5-0.2,5-3.5c0-3.3-2.9-3.3-5.4-3.3
		h-4.6V581.4z"/>
	<path d="M415.7,583.4c-0.5,0.2-1,0.3-1.5,0.3c-1.3,0-2-0.7-2-2c-1.4,1.5-2.9,2.2-5,2.2c-2.7,0-4.4-1.5-4.4-3.9
		c0-2.5,1.6-3.9,4.9-4.3c3.3-0.4,4.4-0.3,4.4-2.2c0-1.5-1.1-2.3-3.1-2.3c-2.1,0-3.2,0.8-3.4,2.8h-2.2c0.1-2.9,2.2-4.7,5.8-4.7
		c1.8,0,3.4,0.5,4.3,1.3c1,0.9,0.9,2.3,0.9,3.6c0,2.1-0.1,4.1-0.1,6.1c0,1,0.2,1.4,0.9,1.4c0.2,0,0.3,0,0.6-0.1V583.4z M409,577.2
		c-1.7,0.2-3.9,0.4-3.9,2.6c0,1.4,1,2.3,2.7,2.3c2.1,0,4.2-1.5,4.2-3.2v-2.5C411.2,577,410,577,409,577.2z"/>
	<path d="M423.7,583.9c-4.3,0-6.5-2.9-6.5-7.1c0-4.6,2.6-7.5,6.6-7.5c3.4,0,5.5,1.8,5.8,4.9h-2.3c-0.4-1.9-1.6-3-3.5-3
		c-2.6,0-4.3,2.1-4.3,5.4c0,3.4,1.5,5.4,4.1,5.4c2.1,0,3.4-1.3,3.8-3.5h2.3C429.2,581.7,427.1,583.9,423.7,583.9z"/>
	<path d="M438.2,574.7l5.9,8.8h-2.9l-4.7-7.2l-2.2,2v5.2h-2.2v-19h2.2v11.2l6.3-6h3L438.2,574.7z"/>
	<path d="M448.3,583.5h-2.3v-19h2.3V583.5z"/>
	<path d="M454.3,567.3H452v-2.8h2.3V567.3z M454.3,583.5H452v-13.7h2.3V583.5z"/>
	<path d="M459.9,571.9c1.1-1.7,2.6-2.5,4.7-2.5c3.4,0,4.6,1.8,4.6,5v9.1h-2.3v-8.1c0-2.2-0.1-4-3-4c-3,0-3.9,2.2-3.9,5v7.2h-2.3
		v-13.7h2.1V571.9z"/>
	<path d="M478.7,574.7l5.9,8.8h-2.9l-4.7-7.2l-2.2,2v5.2h-2.2v-19h2.2v11.2l6.3-6h3L478.7,574.7z"/>
</g>
<path class="st1" d="M369.2,38.7h131.8c2.6,0,4.8,2.1,4.8,4.8v110.4c0,2.6-2.1,4.8-4.8,4.8H369.2c-2.6,0-4.8-2.1-4.8-4.8V43.4
	C364.4,40.8,366.5,38.7,369.2,38.7z"/>
<path class="st12" d="M505.7,104.1v49.7c0,2.6-2.1,4.8-4.8,4.8H369.2c-2.6,0-4.8-2.1-4.8-4.8v-49.7H505.7z"/>
<path class="st2" d="M369.2,38.7h131.8c2.6,0,4.8,2.1,4.8,4.8c0,0,0,0,0,0v4.8l0,0H364.4l0,0v-4.8C364.4,40.8,366.5,38.7,369.2,38.7
	z"/>
<path class="st13" d="M369.2,38.7h131.8c2.6,0,4.8,2.1,4.8,4.8v110.4c0,2.6-2.1,4.8-4.8,4.8H369.2c-2.6,0-4.8-2.1-4.8-4.8V43.4
	C364.4,40.8,366.5,38.7,369.2,38.7z"/>
<circle class="st1" cx="371.7" cy="43.5" r="2.6"/>
<circle class="st1" cx="379.1" cy="43.5" r="2.6"/>
<circle class="st1" cx="386.5" cy="43.5" r="2.6"/>
<path class="st0" d="M424.4,121.4c-2.2,0-4.2-1.2-5.3-3.1c-1.6,2.9-5.2,4-8.1,2.5c-2-1.1-3.2-3.1-3.2-5.4h1.5
	c0.2,2.5,2.3,4.4,4.8,4.2c2.3-0.2,4-1.9,4.2-4.2h1.5c0.2,2.5,2.3,4.4,4.8,4.2c2.3-0.2,4-1.9,4.2-4.2h1.5
	C430.4,118.7,427.7,121.4,424.4,121.4C424.4,121.4,424.4,121.4,424.4,121.4z"/>
<path class="st0" d="M434.9,121.4c-3.3,0-6-2.7-6-6h1.5c0.2,2.5,2.3,4.4,4.8,4.2c2.3-0.2,4-1.9,4.2-4.2h1.5
	C440.9,118.8,438.2,121.4,434.9,121.4C434.9,121.4,434.9,121.4,434.9,121.4z"/>
<path class="st0" d="M445.4,121.4c-3.3,0-6-2.7-6-6h1.5c0.2,2.5,2.3,4.4,4.8,4.2c2.3-0.2,4-1.9,4.2-4.2h1.5
	C451.5,118.8,448.8,121.4,445.4,121.4C445.4,121.4,445.4,121.4,445.4,121.4z"/>
<path class="st0" d="M455.9,121.4c-3.3,0-6-2.7-6-6h1.5c0.2,2.5,2.3,4.4,4.8,4.2c2.3-0.2,4-1.9,4.2-4.2h1.5
	C462,118.8,459.3,121.4,455.9,121.4C456,121.4,456,121.4,455.9,121.4z"/>
<rect x="375.5" y="125.9" class="st0" width="118.9" height="2.7"/>
<rect x="375.5" y="131.6" class="st0" width="118.9" height="2.8"/>
<rect x="375.5" y="137.3" class="st0" width="87.3" height="2.8"/>
<g class="st10">
	<path d="M393.8,65.3c3.1,0,6,1.3,6,4.7c0,1.9-1.1,3.5-2.8,4.1c2.3,0.5,3.6,2.3,3.6,4.8c0,4.4-3.6,5.4-7.2,5.4h-7.8v-19H393.8z
		 M388.1,73.4h4.5c2.1,0,4.7-0.2,4.7-3s-2.2-3-4.4-3h-4.7V73.4z M388.1,82.2h5c2.5,0,5-0.2,5-3.5c0-3.3-2.9-3.3-5.4-3.3h-4.6V82.2z"
		/>
	<path d="M415.7,84.2c-0.5,0.2-1,0.3-1.5,0.3c-1.3,0-2-0.7-2-2c-1.4,1.5-2.9,2.2-5,2.2c-2.7,0-4.4-1.5-4.4-3.9
		c0-2.5,1.6-3.9,4.9-4.3c3.3-0.4,4.4-0.3,4.4-2.2c0-1.5-1.1-2.3-3.1-2.3c-2.1,0-3.2,0.8-3.4,2.8h-2.2c0.1-2.9,2.2-4.7,5.8-4.7
		c1.8,0,3.4,0.5,4.3,1.3c1,0.9,0.9,2.3,0.9,3.6c0,2.1-0.1,4.1-0.1,6.1c0,1,0.2,1.4,0.9,1.4c0.2,0,0.3,0,0.6-0.1V84.2z M409,78
		c-1.7,0.2-3.9,0.4-3.9,2.6c0,1.4,1,2.3,2.7,2.3c2.1,0,4.2-1.5,4.2-3.2v-2.5C411.2,77.8,410,77.8,409,78z"/>
	<path d="M423.7,84.7c-4.3,0-6.5-2.9-6.5-7.1c0-4.6,2.6-7.5,6.6-7.5c3.4,0,5.5,1.8,5.8,4.9h-2.3c-0.4-1.9-1.6-3-3.5-3
		c-2.6,0-4.3,2.1-4.3,5.4c0,3.4,1.5,5.4,4.1,5.4c2.1,0,3.4-1.3,3.8-3.5h2.3C429.2,82.5,427.1,84.7,423.7,84.7z"/>
	<path d="M438.2,75.5l5.9,8.8h-2.9l-4.7-7.2l-2.2,2v5.2h-2.2v-19h2.2v11.2l6.3-6h3L438.2,75.5z"/>
	<path d="M448.3,84.3h-2.3v-19h2.3V84.3z"/>
	<path d="M454.3,68.1H452v-2.8h2.3V68.1z M454.3,84.3H452V70.5h2.3V84.3z"/>
	<path d="M459.9,72.7c1.1-1.7,2.6-2.5,4.7-2.5c3.4,0,4.6,1.8,4.6,5v9.1h-2.3v-8.1c0-2.2-0.1-4-3-4c-3,0-3.9,2.2-3.9,5v7.2h-2.3V70.5
		h2.1V72.7z"/>
	<path d="M478.7,75.5l5.9,8.8h-2.9l-4.7-7.2l-2.2,2v5.2h-2.2v-19h2.2v11.2l6.3-6h3L478.7,75.5z"/>
</g>
</svg>
