<svg id="Layer_1" data-name="Layer 1" xmlns="http://www.w3.org/2000/svg" viewBox="0 0 885.56 904.01"><defs><style>.cls-2{fill:#bcbcbc}.cls-3,.cls-8{fill:#1a1a1a}.cls-4{fill:#333}.cls-10,.cls-11,.cls-13,.cls-14,.cls-16,.cls-18,.cls-19,.cls-22,.cls-4,.cls-5,.cls-6,.cls-7,.cls-8,.cls-9{stroke:#000}.cls-10,.cls-11,.cls-13,.cls-14,.cls-16,.cls-19,.cls-22,.cls-4,.cls-5,.cls-6,.cls-7,.cls-8,.cls-9{stroke-miterlimit:10}.cls-10,.cls-11,.cls-13,.cls-14,.cls-16,.cls-18,.cls-19,.cls-22,.cls-4,.cls-5,.cls-6,.cls-8,.cls-9{stroke-width:.5px}.cls-18,.cls-20,.cls-5,.cls-7{fill:#fff}.cls-6{fill:#d8d8d8}.cls-9{fill:none}.cls-10{fill:#ffe600}.cls-11,.cls-12,.cls-15{fill:#eb058c}.cls-12{opacity:.3}.cls-13{fill:#ddd}.cls-14{fill:#0077bf}.cls-16{fill:#848484}.cls-18{stroke-linejoin:round}.cls-19{fill:#adadad}.cls-21{fill:#c10072}.cls-22{fill:#ccc}</style></defs><path d="M228.75 580.48s-198 44.28-223.9-178.73c0 0-60.78-258.83 247.94-373.89 0 0 134.85-61.7 347.72-1.46 0 0 171.22 68.15 231.24 213.27 0 0 107.47 249.66 18.67 473 0 0-71.16 290.78-303.94 155.42 0 0-75.34-53.78-77.52-166.69.04.03 8.04-174.82-240.21-120.92z" fill="#f5f5f5" id="Layer_7" data-name="Layer 7"/><ellipse class="cls-2" cx="744.49" cy="880.31" rx="136.43" ry="16.09"/><ellipse class="cls-2" cx="310.05" cy="645.58" rx="95.13" ry="10.78"/><ellipse class="cls-2" cx="220.54" cy="323.16" rx="63.85" ry="8.47"/><ellipse class="cls-2" cx="107.67" cy="468.91" rx="63.85" ry="8.47"/><ellipse class="cls-2" cx="432.41" cy="471.96" rx="81.63" ry="8.75"/><path class="cls-3" d="M70.64 458.69v10.22h5.54v-2.51l3.46 2.51h25.78L82.5 458.69H70.64zM111.92 458.69v10.22h5.54v-2.51l3.46 2.51h25.78l-22.92-10.22h-11.86z"/><path class="cls-4" d="M122.99 287.71l-1.91 170.98h-8.18L87.3 287.71h35.69z"/><path class="cls-4" d="M113.8 287.71L79.13 458.69h-7.82l6.38-171.76 36.11.78z"/><path class="cls-5" d="M121.72 212.24l6.61 15.97 7.98 35.44 18.04 18.56-4.61 4.97-25.46-19.74-22.84-44.17 20.28-11.03z"/><path class="cls-6" d="M124.25 291.3l3.08-57.89-5.61-21.17-10.41-4.98H95.66l-19.57 6.58-4.8 25.17 5.79 51.67 47.17.62z"/><path class="cls-5" d="M75.69 213.41l-24.24 38.36 39.66 21.75 3.97-6.75-23.25-17.69 6.78-4.3 4.44-18.14-7.36-13.23zM101.44 205.39c-.85-1.15 0-12.54 0-12.54h11.08l-1.21 14.41s-7.6 1.2-9.87-1.87z"/><path class="cls-5" d="M99.31 201.03l-6.5 6.23 7.65 12.45 6.41-10.67 1.78-.36 3.38 11.03 5.87-11.03-5-6.32-5.14 4.36-8.45-5.69z"/><g id="Layer_9" data-name="Layer 9"><path class="cls-5" d="M124.26 188.26c1.3-5.63 1.86-5.38 2-8.2.23-4.64.35-9.63-2.19-13.51a21.54 21.54 0 0 0-5.72-5.38 19.22 19.22 0 0 0-5-2.92 13.29 13.29 0 0 0-4.85-.6 19 19 0 0 0-12.5 5.12c-8.78 8.54-5.76 21.57-.43 30.65 2 3.39 6.63 7.89 10.52 8.45 11.21 1.04 16.91-8.19 18.17-13.61z"/><path class="cls-7" d="M110.27 178.19c-2.31-1.6-5.66-3.06-7.1-1.89M124.42 181.14c-.88-2.09-4.27-1.95-6.5-1.57"/><path class="cls-5" d="M110.89 191a19.05 19.05 0 0 0 2.39-.47 1.27 1.27 0 0 0 .54-.21 1.49 1.49 0 0 0 .3-1.35l-.29-2.54"/><ellipse class="cls-8" cx="107.02" cy="183.37" rx="1.52" ry="1.18" transform="rotate(-89.65 107.021 183.37)"/><ellipse class="cls-8" cx="119.09" cy="186.03" rx="1.41" ry="1.12" transform="rotate(-73.98 119.093 186.031)"/><path class="cls-3" d="M96.59 175.93s-1.79-4.39-3.56-2.72c-.6.58-1.3 5.45 2.39 8.72 0 0-3.71 3.5-2.33 6.47 0 0-4-4.08-5.06-18.33 0 0-1.39-12.37 12.84-11.46 6.45-7.75 17.53-7.66 27.26 2a27.62 27.62 0 0 1-2.06 22.27s1.8-6.71-2.32-12.24c0 0-11.67 4.5-15.6-4.74-.02.01-5.76-1.32-11.56 10.03z"/></g><path class="cls-9" d="M104.47 192.78a22.09 22.09 0 0 1 6.4 3.41"/><path class="cls-5" d="M95.08 266.77s7.68 1.17 8.43 2.06-2.68 1-2.68 1 6.37 3.75 5.8 5.87c-1 3.87-15.52-2.15-15.52-2.15zM154.36 282.21s5.34 1.19 5.49 2.23-1.49 1.27-1.49 1.27 5.09 4.38 4.09 5.59c-2.46 2.95-12.71-4.12-12.71-4.12z"/><path class="cls-3" d="M403.72 464.76v10.72h5.81v-2.63l3.63 2.63h27.04l-24.04-10.72h-12.44zM454.99 464.76v10.72h5.82v-2.63l3.63 2.63h27.04l-24.04-10.72h-12.45z"/><path class="cls-4" d="M458.64 285.4l5.97 179.36h-8.59L421.19 285.4h37.45z"/><path class="cls-4" d="M449 285.4l-36.37 179.36h-8.21l6.69-180.18 37.89.82z"/><path class="cls-5" d="M457.31 206.22l6.93 16.75 5.05 37.19 16.27 39.78-4.81 3.23-26.2-39.65-18.52-45.73 21.28-11.57z"/><path class="cls-10" d="M459.95 289.16l3.24-60.73-5.88-22.21-10.92-5.22h-16.42l-20.53 6.9-5.04 26.41 6.07 54.2 49.48.65z"/><path class="cls-5" d="M409.44 207.9l-13.83 19.32-9.61 37.34a4.49 4.49 0 0 0 6 5.29l41.79-16.09-1.38-6.27-24.87 1.66 4.54-8.79 4.66-19zM436 199c-.89-1.22 0-13.16 0-13.16h11.62L446.39 201s-7.98 1.26-10.39-2z"/><path class="cls-5" d="M433.79 194.46l-6.81 6.54 8.02 13.06 6.72-11.2 1.87-.37 3.55 11.57 6.16-11.57-5.25-6.63-5.39 4.58-8.87-5.98z"/><g id="Layer_9-2" data-name="Layer 9"><path class="cls-5" d="M458.89 168.21c-2.32-5.61-1.69-5.73-3.28-8.23-2.62-4.11-5.55-8.45-10.08-10.22a22.61 22.61 0 0 0-8.16-1.12 20.46 20.46 0 0 0-6.09.56 14.11 14.11 0 0 0-4.51 2.44 20 20 0 0 0-7.51 11.93c-2.33 12.65 8.18 22 18.26 26.47 3.77 1.69 10.46 2.72 14.12.83 10.2-5.87 9.47-17.27 7.25-22.66z"/><path class="cls-7" d="M440.66 166.39c-3 0-6.56 2.53-7.08 4.41M454.7 162a6.25 6.25 0 0 0-7.06.88"/><path class="cls-5" d="M449.11 178.66a22 22 0 0 0 1.76-1.85 1.36 1.36 0 0 0 .33-.52 1.56 1.56 0 0 0-.56-1.33l-1.8-2"/><ellipse class="cls-8" cx="441.17" cy="174.51" rx="1.24" ry="1.6" transform="rotate(-35 444.685 175.83)"/><ellipse class="cls-8" cx="453.11" cy="169.44" rx="1.17" ry="1.48" transform="rotate(-19.39 453.166 169.44)"/><path class="cls-3" d="M427.73 174.49s-4.2-2.67-4.69-.16c-.17.85 2.2 5.44 7.34 6 0 0-1 5.25 1.94 6.95 0 0-5.87-1.08-15.46-12.6 0 0-8.72-9.73 4-17.6.8-10.55 10.34-17.21 24.53-14.87a29 29 0 0 1 11.78 20.3s-2.55-6.84-9.43-9.06c0 0-7.25 11-16.22 5.44-.01.01-5.73 2.37-3.79 15.6z"/></g><path class="cls-9" d="M443.53 183s7.54 1 9.77-1.88c0-.05-2.58 10.66-9.77 1.88z"/><path class="cls-5" d="M432.41 247.49s6.62-4.48 6.74-2.88-.57 1.95-.57 1.95 6.28-1.49 7.08 0-1.22 6.28-11.87 7.2zM485.56 299.94s6.18 2.32 5.83 3.81-2.12.19-2.12.19 3.5 5.79 2 6.63c-3.42 1.94-10.52-7.4-10.52-7.4z"/><path class="cls-11" d="M456.77 164.37a3.24 3.24 0 0 0-2.16 1.91 3.25 3.25 0 0 0-5.12 3.44c1.05 3.89 7.32 4.71 7.32 4.71s5-3.84 4-7.76a3.26 3.26 0 0 0-4-2.3zm0 0M441.77 169.53a3.3 3.3 0 0 0-2.17 1.91 3.26 3.26 0 0 0-5.12 3.44c1 3.89 7.33 4.71 7.33 4.71s5-3.84 3.95-7.76a3.26 3.26 0 0 0-4-2.3zm0 0"/><circle class="cls-12" cx="456.74" cy="174.25" r="3.08"/><circle class="cls-12" cx="439.8" cy="180.67" r="3.08"/><path class="cls-11" d="M447.37 223.64a5.2 5.2 0 0 0-4.14 2 5.2 5.2 0 0 0-9.33 3.17c0 6.44 9.33 10.32 9.33 10.32s9.34-3.82 9.34-10.32a5.2 5.2 0 0 0-5.2-5.21zm0 0M506.24 235.39l4.41-4.68-2.6-.16-4.41 4.68 2.6.16zM510.01 235.63l4.41-4.67-2.59-.17-4.41 4.68 2.59.16zM513.79 235.88l4.41-4.68-2.59-.17-4.41 4.68 2.59.17zM517.57 236.12l4.41-4.68-2.59-.17-4.41 4.68 2.59.17zM506.18 236.2l3.78 5.21-2.59-.17-3.78-5.2 2.59.16zM509.96 236.44l3.78 5.21-2.59-.17-3.78-5.2 2.59.16zM513.74 236.69l3.78 5.2-2.6-.17-3.77-5.2 2.59.17zM517.52 236.93l3.78 5.2-2.6-.17-3.78-5.2 2.6.17z"/><path class="cls-13" transform="rotate(-86.6 480.599 234.033)" d="M481.59 194.28h1.38v79.94h-1.38z"/><path class="cls-14" d="M522.21 236.13l5.23.33c.11 0 .19.32.16.71s-.14.68-.25.67l-5.23-.33z"/><path class="cls-15" d="M440.85 226.1l5 1.81s-3.46 5-1.43 8.54l-4.59-.44"/><path class="cls-9" d="M445.84 227.91s-3.46 5-1.43 8.54"/><path class="cls-3" d="M192.61 320.12v7.38h4v-1.82l2.51 1.82h18.61l-16.55-7.38h-8.57zM241.15 316.42v7.39h4v-1.82l2.51 1.82h18.61l-16.55-7.39h-8.57z"/><path class="cls-16" d="M234.44 183.14l14.3 132.97h-7.31l-38.86-132.97h31.87z"/><path class="cls-16" d="M226.24 183.14l-25.66 136.98h-6.99l.39-137.56 32.26.58z"/><path class="cls-5" d="M231.04 119.44l5.22 11.56 3.58 28.95 13.91 32.14-5.01 3.2-18.75-30.79-15.19-37.74 16.24-7.32z"/><path fill="#e0e0e0" stroke-width=".5" stroke-miterlimit="10" stroke="#000" d="M234.79 186.39l2.7-50.75-4.91-18.55-9.13-4.37h-13.72l-17.5 5.4-3.86 22.44 5.07 45.29 41.35.54z"/><path class="cls-18" d="M177.13 163.98l11.24-42.43 3.86-3.43 4.29 3.06 2.94 12.03-8.5 30.49 2.97 38.04-5.56 1.26-11.24-39.02z"/><path class="cls-5" d="M214.8 111.08c-.75-1 0-11 0-11h9.71l-1.06 12.63s-6.66 1.06-8.65-1.63z"/><path class="cls-5" d="M212.93 107.26l-5.69 5.46 6.7 10.92 5.61-9.36 1.56-.31 2.97 9.67 5.14-9.67-4.38-5.54-4.51 3.82-7.4-4.99z"/><g id="Layer_9-3" data-name="Layer 9"><path class="cls-5" d="M234.72 85.37c-1.91-4.69-1.38-4.8-2.71-6.89-2.17-3.44-4.6-7.08-8.37-8.59a19.27 19.27 0 0 0-6.82-1 16.79 16.79 0 0 0-5.09.45 11.7 11.7 0 0 0-3.78 2 16.68 16.68 0 0 0-6.32 9.93c-2 10.55 6.73 18.37 15.14 22.2 3.14 1.42 8.73 2.31 11.8.75 8.54-4.84 7.98-14.33 6.15-18.85z"/><path class="cls-7" d="M220.54 84.29c-2.47 0-5.43 1.23-5.87 2.79M232.15 80.42c-1.69-1-4.23.17-5.64 1.57"/><path class="cls-5" d="M228.31 93.13a17.94 17.94 0 0 0 1.48-1.54 1.21 1.21 0 0 0 .27-.43c.12-.41-.18-.8-.46-1.12l-1.49-1.67"/><ellipse class="cls-8" cx="221.43" cy="89.42" rx="1.04" ry="1.34" transform="rotate(-34.76 221.423 89.423)"/><ellipse class="cls-8" cx="231.69" cy="85.58" rx=".98" ry="1.24" transform="rotate(-19.09 231.655 85.581)"/><path class="cls-3" d="M208.66 90.48s-3.5-2.25-3.92-.16c-.15.72 1.81 4.56 6.11 5.05 0 0-.9 4.38 1.59 5.81 0 0-4.91-.92-12.87-10.59 0 0-3.21-7.6-.54-14.71 6-9.09 13.64-12.44 25.49-10.42 0 0 7.56 3.65 8.79 15.14 0 0-2.43-4.33-3.46-5.8 0 0-9 6.53-16.45 1.89-1.32 1.52-6.31 2.73-4.74 13.79z"/></g><path class="cls-9" d="M221.37 99.54a24.84 24.84 0 0 1 6.27 1.1"/><path class="cls-18" d="M193.93 201.74s4.53 4 4.16 5.25-2.59.25-2.59.25 1.11 6.4-.25 6.9-4.46-2.74-6.88-11.14z"/><path class="cls-5" d="M248.74 195.29s4.28 9.25 6.49 8.7.09-7.38.09-7.38 4.35 2.62-1.56-4.52z"/><g id="Layer_8" data-name="Layer 8"><path class="cls-8" d="M313.8 327.92l-1.63 2.69-4.32 2.23a2.55 2.55 0 0 0-1 .77 113.19 113.19 0 0 1-12.1 1.13c-4.3.4-7.71.94-10.52 2.44 2.4-5.5 5.11-10.89 7.82-16.25 2.54-5 5.4-9.88 8.07-14.84 2.49-4.65 2.41-9 4-14 4.49-14.51 14.38-24.09 30.18-23.61 14.81.45 24.38 14.15 23.6 27.76a41.32 41.32 0 0 1-.62 4.95c-.79 4.47-2.05 8.83-2.18 13.59a107.51 107.51 0 0 0 1.28 20.28c.52 3.28 3.35 22.59-1.24 25.33z"/><path class="cls-5" d="M315.15 327.67a1.41 1.41 0 0 0-.3.75 1.27 1.27 0 0 0 .31.72 47.38 47.38 0 0 0 6.4 7.54c1.42 1.35 3.21 2.72 5.18 2.38a6.74 6.74 0 0 0 3.16-1.86l4.06-3.55c-1.39-1.27-1.06-3.47-.61-5.28q1-3.57 2.33-7a29.76 29.76 0 0 0-12.87-7.71c-1.69-.5-2.61-.39-3 1.35a40.64 40.64 0 0 1-1 4.51 31.7 31.7 0 0 1-3.66 8.15zM320.27 630.79l18.72-165.61-2.46-28.08-34.78 6.75.31 11.09 8.47 176.19 9.74-.34z"/><path class="cls-5" d="M286.6 631.13h-8.67l1.63-185.59 42.74-9.93-35.7 195.52z"/><path class="cls-3" d="M308.94 630.14v17.5h2.65l1.9-7.34 4.74 7.33h26.48a34.43 34.43 0 0 1-23.66-17.48z"/><path class="cls-3" d="M276.56 630.12v17.49h2.65l1.9-7.34 4.74 7.33h26.49a34.38 34.38 0 0 1-23.66-17.48z"/><g id="Layer_7-2" data-name="Layer 7"><path class="cls-5" d="M346 283.15c0 2-6.13 4-7.73 4.88a44.34 44.34 0 0 1-6.27 2.27c-.17-.1-6.92 3.56-10.31 5a55.93 55.93 0 0 0-9.89 4.85c.17 2.2.73 5.84 2.82 6.19.64.1.9.88.94 1.5.13 2 .34 4.48 1.32 6.22a44.28 44.28 0 0 0 9.95 9.56c6.06 4.12 13.92-2.85 13.92-2.85a30.26 30.26 0 0 0 9.38-15.77c2.06-9.74-4.13-21.85-4.13-21.85z"/><path class="cls-9" d="M330.42 295a7.9 7.9 0 0 0-6.21 1M346.74 299a7.75 7.75 0 0 0-5.92-2M337.6 315.47s-6.19 3.92-10.7-1.47M334.15 301.3a11.6 11.6 0 0 0-.25 4.58c.17 1.15.53 2.28.76 3.43a2.84 2.84 0 0 1 0 1.73 1.16 1.16 0 0 1-1.49.62"/><path class="cls-14" d="M242.72 526.31l118.07 4.36-24.36-126.88 12.94-37.33-6.89-26.85-2.47-4.27-32.98-5.5-25.1 9.78 1.79 18.63 6.31 45.06-47.31 123zM291.22 373.1s4.08 13 18.83 7.23M322.3 380.86s14.49 8.52 20.88-2"/><path class="cls-14" d="M298.26 394.21l-35.45 16.3c-8 3.51-16.5-3.78-13.88-11.93l19.82-49.29a21.12 21.12 0 0 1 10.58-11.16l27.7-8.29-5.2 4-34.41 57.7 29.11-6.65zM359.62 348.5l19.07 50.84a5.14 5.14 0 0 1-6.45 6.58l-34.87-13.3-.84-8.72 21.11 4.33-8.06-19.9-7.31-28.44-2.6-4.51 16.33 8.48a9.71 9.71 0 0 1 3.62 4.64z"/><path class="cls-5" d="M314.85 323.52l-7.82 6.32 2.43 14.54 16.92-11.31 9.87 16.66 3.76-14.39-2.15-8.46-10.82 3.92-12.19-7.28zM296.53 384.89s9.84-6.22 16.68 2c7.06 8.49-1.68 8.71-3.81 7.33s-2.61-2.7-4.38-2.25-5.76 5-6.76 2.23c-.26-.73-1.73-9.31-1.73-9.31zM336.53 383.9s-6.16-3.75-11.3.35-6.27 8.44-3.65 9.25 6.16-2.8 7.14-2.1 8.11 2.18 8.65 1.22z"/></g><ellipse class="cls-12" cx="343.59" cy="310.28" rx="3.19" ry="3.1" transform="translate(-28.09 34.27)"/><ellipse class="cls-12" cx="322.25" cy="307.74" rx="3.19" ry="3.1" transform="rotate(-5.49 322.028 307.584)"/><path class="cls-11" d="M348.7 299.88a3.9 3.9 0 0 0-3.4.74 3.93 3.93 0 0 0-7.43.6c-1.18 4.72 4.95 9.29 4.95 9.29s7.55-1.09 8.74-5.86a3.93 3.93 0 0 0-2.86-4.77zm0 0M328 296.49a3.91 3.91 0 0 0-3.23 1.31 3.93 3.93 0 0 0-7.21 1.88c-.34 4.85 6.44 8.32 6.44 8.32s7.25-2.38 7.61-7.28a3.94 3.94 0 0 0-3.64-4.2zm0 0M325.46 358.48a6.57 6.57 0 0 0-5.24 2.59 6.59 6.59 0 0 0-11.83 4c0 8.16 11.83 13.08 11.83 13.08s11.83-4.84 11.83-13.08a6.59 6.59 0 0 0-6.59-6.6zm0 0M400.76 384.11l6.3-5.17-3.24-.63-6.29 5.17 3.23.63zM405.47 385.02l6.3-5.17-3.24-.63-6.29 5.17 3.23.63zM410.18 385.93l6.3-5.17-3.24-.63-6.29 5.18 3.23.62zM414.89 386.84l6.3-5.17-3.24-.63-6.29 5.17 3.23.63zM400.57 385.12l3.91 7.15-3.23-.63-3.92-7.14 3.24.62zM405.28 386.03l3.91 7.15-3.23-.63-3.92-7.14 3.24.62zM409.99 386.94l3.91 7.15-3.23-.63-3.92-7.14 3.24.62zM414.7 387.85l3.91 7.15-3.23-.63-3.92-7.14 3.24.62z"/><path class="cls-13" transform="rotate(-79.06 370.832 378.82)" d="M369.96 328.17h1.75v101.29h-1.75z"/><path class="cls-14" d="M420.72 387.6l6.52 1.26c.14 0 .19.44.1.91s-.29.84-.44.81l-6.51-1.26z"/><path class="cls-15" d="M321.71 361.6l1.81 2.29s-4.38 6.35-1.81 10.82l-3.57.3"/><path class="cls-9" d="M323.52 363.89s-4.38 6.35-1.81 10.82"/></g><path class="cls-6" d="M708.04 585.05l2.33.36 93.22-121.4-57.89-107.2-2.32-.36 57.88 107.2-93.22 121.4z"/><path class="cls-19" d="M643.7 483.24s-7.8 25.7 10.73 51.18c16.46 22.64 56.4 46.16 55 55.18-1.67 10.81-14.56 12.15-14.56 12.15l3.63-10s7.54.83 8.36-2.25-35.66-27.5-59.3-53.21c-24.35-26.46-16.72-50.25-14.73-54.73z"/><path class="cls-14" d="M638.45 434.72l4.69.73 1.87.28 1.87.29 4.7.73a226 226 0 0 0-5 22.56 226.63 226.63 0 0 0-2.07 23l-4.69-.73-1.82-.28-1.9-.3-4.7-.73a226 226 0 0 0 5-22.56 226.63 226.63 0 0 0 2.05-22.99z"/><path class="cls-19" d="M651.06 435.62s.32-26.86 25.68-45.55c22.53-16.61 67.71-27 69.1-36 1.67-10.81-10.21-16-10.21-16l.43 10.65s7.43 1.48 7.29 4.67-42.31 15.46-72.59 32.8c-31.2 17.87-31.12 42.86-30.57 47.73z"/><path class="cls-10" d="M738.94 358.72a3 3 0 0 0 1.52 4.14l.8.38a3.39 3.39 0 0 0 4.43-1.31l1.61-3a3 3 0 0 0-1.51-4.13l-.8-.38a3.38 3.38 0 0 0-4.43 1.3zM636.86 433.67a2.65 2.65 0 0 0 2.33 2.92l11.11 1.72a2.64 2.64 0 0 0 3.1-2.09 2.66 2.66 0 0 0-2.33-2.93L640 431.58a2.65 2.65 0 0 0-3.11 2.09zM629.58 480.82a2.64 2.64 0 0 1 3.1-2.09l11.1 1.71a2.66 2.66 0 0 1 2.34 2.93 2.66 2.66 0 0 1-3.11 2.09l-11.1-1.71a2.66 2.66 0 0 1-2.33-2.93zM704.26 583.08a3 3 0 0 1 2.7-3.48l.88-.12a3.37 3.37 0 0 1 3.82 2.58l.63 3.37a3 3 0 0 1-2.69 3.48l-.88.12a3.38 3.38 0 0 1-3.83-2.58z"/><path class="cls-11" d="M805.97 476.2l10.74-8.82-5.52-1.07-10.74 8.82 5.52 1.07zM814.01 477.75l10.74-8.82-5.52-1.07-10.74 8.83 5.52 1.06zM822.04 479.31l10.74-8.83-5.52-1.06-10.74 8.82 5.52 1.07zM830.08 480.86l10.74-8.82-5.52-1.07-10.74 8.82 5.52 1.07zM805.64 477.93l6.67 12.18-5.52-1.06-6.67-12.19 5.52 1.07zM813.67 479.48l6.68 12.19-5.52-1.07-6.68-12.19 5.52 1.07zM821.71 481.03l6.68 12.19-5.52-1.07-6.68-12.18 5.52 1.06zM829.75 482.59l6.67 12.18-5.52-1.06-6.67-12.19 5.52 1.07z"/><path class="cls-13" transform="rotate(-79.06 721.307 460.73)" d="M719.82 340.12h2.99v241.22h-2.99z"/><path class="cls-14" d="M840 482.15l11.11 2.15c.25.05.33.75.17 1.56s-.49 1.43-.73 1.38l-11.12-2.15zM597.59 441.14a93.1 93.1 0 0 1-8.17-5.91 93.22 93.22 0 0 1 9.79-2.44c6.54-1 9.1-.73 10.34.54 1.38 1.42.85 4.13 1.62 4.19s1.23-1.4 2.25-1.29 1.08 2.56.84 3.8-1.2 3.5-2.19 3.22-.87-1.8-1.61-2-1.26 2.48-3.07 3.28c-1.62.69-4.09-.05-9.8-3.39z"/><path class="cls-11" d="M788.78 488.56s-19.11 5.05-24.66 4.54-63-13.87-63-13.87L653 459.47l-2.87 7.62L692 498.14l53 24.36s-1.52 8.16-3.53 11.83-.51 9.37 2.52 13.33 2.66 30.73 2.66 30.73l45 10.52 31-66.41s51-11.34 54-15.78c4.54-6.73-2.52-8.58-11.6-15.13s-31.14-17.66-31.14-17.66z"/><g id="Layer_7-3" data-name="Layer 7"><path class="cls-8" d="M776.11 468.86c-10.89-16.26.53-40.82.53-40.82 8.09-14.48 20.09-16.81 27-17.15 18.65-.93 24.7 5.64 30.81 11.09 20.86 18.66 24.42 48.76 13.6 111.13a13.39 13.39 0 0 0 4.82 14.46c-15.13.77-35.58-3.8-45.31-15.41-18.73-18.72-24.1-29-24.63-41.58-.65-15 12.71-53.16 23.57-64.91"/><path class="cls-5" d="M798.43 473.87c-5.38 2.1-12.19 3.56-17.19.61a15.6 15.6 0 0 1-7.11-9.58 70.33 70.33 0 0 1-2.13-13.52 40.6 40.6 0 0 1 .31-10.09c4.24-3.19 4.27-7.77 6.67-11.15 4-5.57 7.1-9.81 13.57-12a32 32 0 0 1 11.49-1 28.65 28.65 0 0 1 8.48 1.21 19.79 19.79 0 0 1 6.15 3.74 28 28 0 0 1 9.67 17.24c2.45 17.88-15.46 28.92-29.91 34.54z"/><path class="cls-3" d="M773.31 437c6.65-12.25 14.6-9 14.6-9 6.17 1.92 14.9-3.87 14.9-3.87-10.12 13.32-18.64 54.35-18.64 54.35l40-11.8 9.66-25L823 422.71l-12-6.61-5.23-1-21.38 3.9z"/><path class="cls-20" d="M788.78 443.27a2.24 2.24 0 0 1-1.81-1 13.94 13.94 0 0 1-1-1.91 8.86 8.86 0 0 0-.84-1.34 4.79 4.79 0 0 0-1.11-1.09 4.47 4.47 0 0 0-3.92-.23 12.5 12.5 0 0 0-3.45 2.11"/><path d="M776.84 440l-.4-.46a13 13 0 0 1 3.56-2.14 4.77 4.77 0 0 1 4.18.24 5.22 5.22 0 0 1 1.21 1.18 8.92 8.92 0 0 1 .87 1.38 14.07 14.07 0 0 0 1 1.89 2 2 0 0 0 1.57.87v.62a2.57 2.57 0 0 1-2.06-1.16 14.11 14.11 0 0 1-1-2 7.72 7.72 0 0 0-.8-1.27 4.28 4.28 0 0 0-1-1 4.11 4.11 0 0 0-3.62-.19 12.22 12.22 0 0 0-3.51 2.04zM790.7 437.29a8.89 8.89 0 0 0-10.4-3.85l-.19-.58a9.5 9.5 0 0 1 11.11 4.14z"/><path class="cls-20" d="M772.32 448.44a30.32 30.32 0 0 1-2.34-2.71 1.93 1.93 0 0 1-.41-.74c-.15-.69.39-1.34.88-1.82l2.65-2.65"/><path d="M772.1 448.66a34.08 34.08 0 0 1-2.36-2.74 2.33 2.33 0 0 1-.46-.85 2.41 2.41 0 0 1 1-2.12l2.64-2.65.43.43-2.64 2.65c-.41.4-.92 1-.8 1.54a1.76 1.76 0 0 0 .34.61 30.31 30.31 0 0 0 2.33 2.7z"/><path class="cls-20" d="M776.78 462a6.32 6.32 0 0 0-1.79.16 2.72 2.72 0 0 1-.61.2c-.8.1-1.48-.95-1.64-1.95s-.07-2 0-3-.29-1.7-.27-2.56a1.38 1.38 0 0 1 .15-.67c.24-.34.69-.26 1-.12a19.77 19.77 0 0 1 6.65 5.27.64.64 0 0 1 .18.27c.18.61-.92 1.53-1.28 1.77a4.83 4.83 0 0 1-2.39.63z"/><path d="M774 462.62a2.69 2.69 0 0 1-1.43-2.14c-.06-1.05-.07-2.08 0-3.1a8.4 8.4 0 0 0-.12-1.06 8.18 8.18 0 0 1-.14-1.49 1.61 1.61 0 0 1 .19-.81c.25-.38.69-.44 1.28-.23a19.92 19.92 0 0 1 6.75 5.34 1.07 1.07 0 0 1 .23.37c.29 1-1.35 2.11-1.37 2.12a5.12 5.12 0 0 1-2.51.69 6 6 0 0 0-1.74.15 2.73 2.73 0 0 1-.61.2 1.1 1.1 0 0 1-.53-.04zm-.45-8.33c-.27-.09-.59-.13-.73.08a.9.9 0 0 0-.1.48 7.25 7.25 0 0 0 .12 1.39 11 11 0 0 1 .14 1.17v3c.14.86.72 1.76 1.39 1.68a3.27 3.27 0 0 0 .55-.19 6.3 6.3 0 0 1 1.87-.17 4.68 4.68 0 0 0 2.32-.64c.59-.4 1.26-1.15 1.17-1.44a.35.35 0 0 0-.1-.13 19.52 19.52 0 0 0-6.59-5.24z"/><path class="cls-21" d="M772.6 462.42a2.92 2.92 0 0 0 2.25 1.13 5.48 5.48 0 0 0 2.38-.57c.59-.25 1.15-.53 1.74-.84a4.46 4.46 0 0 0 1.28-.81 2.26 2.26 0 0 0 .66-1.45 9.17 9.17 0 0 1-2.86 1.24 5.67 5.67 0 0 1-4.07-.4c-.46-.25-1.05-.93-1.53-.51s-.27 1.67.15 2.21z"/><path d="M774 463.69a3.35 3.35 0 0 1-1.54-1.08 2.82 2.82 0 0 1-.48-1.71 1.25 1.25 0 0 1 .36-.91c.47-.42 1 0 1.4.26a2.92 2.92 0 0 0 .34.23 5.44 5.44 0 0 0 3.93.38 9 9 0 0 0 2.81-1.22l.39-.25-.06.55a2.56 2.56 0 0 1-.74 1.62 4.67 4.67 0 0 1-1.34.85H779c-.57.29-1.1.57-1.67.8a5.59 5.59 0 0 1-2.44.59 2.66 2.66 0 0 1-.89-.11zm-1.24-1.46a2.73 2.73 0 0 0 2.09 1 5.45 5.45 0 0 0 2.3-.56c.56-.23 1.09-.5 1.65-.79h.09a4.42 4.42 0 0 0 1.23-.78 1.84 1.84 0 0 0 .45-.7 9 9 0 0 1-2.46 1 5.86 5.86 0 0 1-4.2-.41l-.39-.26c-.41-.3-.7-.49-.92-.28a.76.76 0 0 0-.19.52 2.2 2.2 0 0 0 .34 1.26z"/><path class="cls-21" d="M772.35 452.88a6.55 6.55 0 0 1 4.83 2 26.86 26.86 0 0 1 3.67 4.6.36.36 0 0 1 .1.35c-.06.11-.17.1-.28.07-1.6-.38-2.93-1.84-4.33-2.91a10.08 10.08 0 0 0-3.69-1.81c-1.01-.29-1.93-2.18-.3-2.3z"/><path d="M780.32 460.06a9.71 9.71 0 0 1-3-2c-.35-.29-.7-.59-1-.86a9.8 9.8 0 0 0-3.61-1.77 2.09 2.09 0 0 1-1.38-1.81c0-.27.11-.93 1.08-1a6.74 6.74 0 0 1 5 2 26.59 26.59 0 0 1 3.59 4.68.64.64 0 0 1 .12.66.38.38 0 0 1-.51.19zm-7-5a10.51 10.51 0 0 1 3.13 1.66c.36.28.71.58 1.06.88a8.49 8.49 0 0 0 3.16 2 25.77 25.77 0 0 0-3.63-4.52 6.38 6.38 0 0 0-4.67-1.93c-.26 0-.68.13-.69.51a1.53 1.53 0 0 0 1 1.23z"/><ellipse class="cls-3" cx="780.91" cy="439.69" rx="2.07" ry="1.64" transform="rotate(-79.84 780.955 439.691)"/><path d="M781.14 442a1.58 1.58 0 0 1-.65 0 1.84 1.84 0 0 1-1.25-1 2.73 2.73 0 0 1-.24-1.73 2.21 2.21 0 0 1 2.34-2 1.8 1.8 0 0 1 1.24 1 2.67 2.67 0 0 1 .25 1.73 2.39 2.39 0 0 1-1.69 2zm-.33-4.06a1.79 1.79 0 0 0-1.21 1.5 2.12 2.12 0 0 0 .18 1.33 1.19 1.19 0 0 0 .82.65c.72.12 1.46-.55 1.63-1.51a2.12 2.12 0 0 0-.18-1.33 1.21 1.21 0 0 0-.82-.65 1.19 1.19 0 0 0-.42.07z"/></g><path class="cls-5" d="M791.59 588.91s15.65 28.46 10.08 51.35 12.37 224 12.37 224h-14.23l-48.26-219.67 22.55-59.77z"/><path class="cls-5" d="M746.61 578.39s-13.45 12.46-19.61 25.45-24 107.91-27.38 124.27c-5.57 27.22-23.52 134-23.52 134l13-2.87s17.56-48.7 36.5-107c12.61-38.83 33-89.34 37.74-94 11.75-11.76 22.41-19.18 19.38-71.37z"/><path class="cls-3" d="M691.94 858.11v26.75H688l-2.83-11.22-7 11.22h-39.33A51.21 51.21 0 0 0 674 858.11zM816.4 862.14v26.75h-3.94l-2.83-11.22-7 11.22h-39.34a51.17 51.17 0 0 0 35.12-26.75z"/><path class="cls-5" d="M653 459.47s-3-5.52-5.2-6.87c0 0-7.37 3.43-11-1.62 0 0-7.49 7.7-1.89 14.57 0 0 4.37 2.37 15.19 1.54z"/><path class="cls-11" d="M815.65 456.38l8.78-4.55-1.36 4.24-8.78 4.54 1.36-4.23zM817.64 450.21l8.78-4.54-1.37 4.23-8.77 4.55 1.36-4.24zM819.63 444.05l8.78-4.55-1.37 4.24-8.78 4.54 1.37-4.23zM821.62 437.88l8.78-4.54-1.37 4.23-8.78 4.55 1.37-4.24zM814.56 456.03l-4.46-8.82-1.37 4.23 4.47 8.82 1.36-4.23zM816.55 449.86l-4.46-8.82-1.37 4.24 4.47 8.82 1.36-4.24zM818.54 443.7l-4.46-8.82-1.37 4.23 4.47 8.82 1.36-4.23zM820.53 437.53l-4.46-8.82-1.37 4.24 4.47 8.81 1.36-4.23z"/><path class="cls-22" transform="rotate(-72.12 813.13 462.287)" d="M782.31 461.08h61.67v2.41h-61.67z"/><path class="cls-14" d="M823.76 433.31l2.8-8.69c.08-.23-.38-.58-1-.78s-1.2-.19-1.28 0l-2.8 8.69z"/><path class="cls-11" d="M834.55 462.48l8.78-4.55-1.37 4.24-8.77 4.54 1.36-4.23zM836.54 456.31l8.78-4.55-1.37 4.24-8.78 4.55 1.37-4.24zM838.53 450.14l8.78-4.54-1.37 4.23-8.78 4.55 1.37-4.24zM840.52 443.98l8.78-4.55-1.37 4.24-8.78 4.54 1.37-4.23zM833.46 462.13l-4.46-8.82-1.37 4.23 4.47 8.82 1.36-4.23zM835.45 455.96l-4.46-8.82-1.37 4.24 4.47 8.81 1.36-4.23zM837.44 449.79l-4.46-8.81-1.37 4.23 4.47 8.82 1.36-4.24zM839.43 443.63l-4.47-8.82-1.36 4.23 4.47 8.82 1.36-4.23z"/><path class="cls-22" transform="rotate(-72.12 832.026 468.386)" d="M801.21 467.18h61.67v2.41h-61.67z"/><path class="cls-14" d="M842.66 439.41l2.8-8.69c.07-.23-.38-.58-1-.79s-1.21-.18-1.28.05l-2.8 8.69z"/><path class="cls-11" d="M853.45 468.57l8.78-4.54-1.37 4.23-8.78 4.55 1.37-4.24zM855.44 462.41l8.78-4.55-1.37 4.24-8.78 4.54 1.37-4.23zM857.43 456.24l8.78-4.54-1.37 4.23-8.78 4.55 1.37-4.24zM859.42 450.08l8.78-4.55-1.37 4.23-8.78 4.55 1.37-4.23zM852.36 468.22l-4.47-8.82-1.36 4.24 4.47 8.82 1.36-4.24zM854.35 462.06l-4.47-8.82-1.36 4.23 4.47 8.82 1.36-4.23zM856.34 455.89l-4.47-8.82-1.36 4.24 4.46 8.82 1.37-4.24zM858.33 449.73l-4.47-8.82-1.36 4.23 4.46 8.82 1.37-4.23z"/><path class="cls-22" transform="rotate(-72.12 850.927 474.478)" d="M820.11 473.28h61.67v2.41h-61.67z"/><path class="cls-14" d="M861.56 445.51l2.8-8.69c.07-.23-.38-.58-1-.79s-1.21-.18-1.28.05l-2.8 8.69z"/><path class="cls-10" d="M827.32 485.27l-1.18-.39-25.49-8.22-51.68 182.29 19.03 6.14 1.18.39 19.03 6.13 64.59-178.12-25.48-8.22z"/><path class="cls-14" d="M752.97 644.82l-4 14.13 19.03 6.14 1.18.39 19.03 6.13 5.01-13.8-40.25-12.99zM826.09 484.87l-27.5-8.87-4.37 15.58 55.09 17.78 5.56-15.21-27.5-8.87-1.28-.41z"/><path d="M815.13 525.55c-4.45-1.43-6.21-5.49-4.6-10.48 1.44-4.47 5.23-7.34 10-5.79 3.07 1 5.61 3.69 4.84 7.12l-2.06-.66a4.42 4.42 0 0 0-3.39-4.7c-3.71-1.2-6.26 1.39-7.32 4.68-1.28 4-.07 7 3.17 8.09 2.65.85 4.79-.2 6.05-3l2.06.67c-1.61 3.84-4.88 5.32-8.75 4.07zM815.93 540.86c-1.24 3.84-3.95 5.43-7.39 4.32s-4.81-4-3.6-7.74 4.07-5.34 7.48-4.24 4.72 3.91 3.51 7.66zm-9-2.85c-.9 2.79-.09 4.86 2.19 5.6s4-.54 4.94-3.32.06-4.84-2.13-5.55-4.18.58-5.05 3.26zM802.39 554a4.51 4.51 0 0 1 4.52-.82c2.76.89 3.28 2.73 2.45 5.31l-2.43 7.52-1.86-.6 2.15-6.66c.58-1.8 1-3.36-1.36-4.12s-3.81.8-4.54 3l-1.9 5.92-1.87-.61 3.65-11.3 1.75.56zM801.83 575.39l-2.26-.73-2.13 6.6c-.33 1-.6 1.64.71 2.06a7.75 7.75 0 0 0 1 .26l-.51 1.6a10.07 10.07 0 0 1-1.46-.37c-2.82-.91-2.24-2.27-1.44-4.75l1.94-6-1.91-.62.49-1.53 1.91.62 1.08-3.36 1.87.6-1.09 3.36 2.26.72zM789.65 604.44c-3.33-1.08-4.62-3.91-3.43-7.59s4.1-5.45 7.24-4.44c3.72 1.2 4.17 4.61 3.12 7.88l-.09.26-8.5-2.74-.07.12c-.77 2.41.1 4.29 2.29 5 1.62.52 2.74.11 3.82-1.43l1.82.58a4.82 4.82 0 0 1-6.2 2.36zm3.27-10.51c-1.82-.59-3.52.32-4.44 2.36l6.57 2.12c.52-2.2-.27-3.88-2.13-4.48zM783.3 613.21a4.51 4.51 0 0 1 4.52-.82c2.76.89 3.28 2.73 2.45 5.31l-2.43 7.52-1.86-.6 2.15-6.66c.58-1.8 1-3.36-1.36-4.12s-3.82.8-4.54 3l-1.91 5.92-1.86-.61 3.65-11.3 1.75.56zM782.74 634.56l-2.26-.73-2.13 6.6c-.33 1-.6 1.64.71 2.06a7.74 7.74 0 0 0 1 .27l-.51 1.59a10.41 10.41 0 0 1-1.46-.37c-2.82-.91-2.24-2.27-1.44-4.75l1.94-6-1.91-.62.49-1.53 1.91.62 1.08-3.36 1.87.6-1.03 3.36 2.26.72z"/><path class="cls-14" d="M772.66 492.2l11.94 41.07 2.58-9.08-5.99-33.77-8.53 1.78z"/><path class="cls-11" d="M281.77 271.14a13.29 13.29 0 0 0-8 8.71 13.35 13.35 0 0 0-19.36 16.25c6 15.38 31.91 16 31.91 16s18.74-17.82 12.7-33.34a13.34 13.34 0 0 0-17.28-7.59zm0 0M309.54 229.63a8.6 8.6 0 0 0-7.57 1 8.63 8.63 0 0 0-16.35.1c-3.38 10.14 9.29 21.13 9.29 21.13s16.7-1.12 20.1-11.36a8.62 8.62 0 0 0-5.47-10.91zm0 0M491 110.85a12.8 12.8 0 0 0-11.32.5 12.79 12.79 0 0 0-24.14-2.11c-6.38 14.49 10.79 32.47 10.79 32.47s24.8.63 31.23-14a12.81 12.81 0 0 0-6.56-16.86zm0 0M490.45 150.84a6.74 6.74 0 0 0-3.91 4.56A6.78 6.78 0 0 0 477 164c3.29 7.72 16.47 7.59 16.47 7.59s9.23-9.35 5.91-17.14a6.78 6.78 0 0 0-8.9-3.58zm0 0"/></svg>