<svg id="Layer_1" data-name="Layer 1" xmlns="http://www.w3.org/2000/svg" viewBox="0 0 885.56 904.01"><defs><style>.cls-1{fill:#f5f5f5;}.cls-2{fill:#bcbcbc;}.cls-3,.cls-8{fill:#1a1a1a;}.cls-4{fill:#333;}.cls-10,.cls-11,.cls-13,.cls-14,.cls-16,.cls-17,.cls-18,.cls-19,.cls-22,.cls-4,.cls-5,.cls-6,.cls-7,.cls-8,.cls-9{stroke:#000;}.cls-10,.cls-11,.cls-13,.cls-14,.cls-16,.cls-17,.cls-19,.cls-22,.cls-4,.cls-5,.cls-6,.cls-7,.cls-8,.cls-9{stroke-miterlimit:10;}.cls-10,.cls-11,.cls-13,.cls-14,.cls-16,.cls-17,.cls-18,.cls-19,.cls-22,.cls-4,.cls-5,.cls-6,.cls-8,.cls-9{stroke-width:0.5px;}.cls-18,.cls-20,.cls-5,.cls-7{fill:#fff;}.cls-6{fill:#d8d8d8;}.cls-9{fill:none;}.cls-10{fill:#ffe600;}.cls-11,.cls-12,.cls-15{fill:#eb058c;}.cls-12{opacity:0.3;}.cls-13{fill:#ddd;}.cls-14{fill:#0077bf;}.cls-16{fill:#848484;}.cls-17{fill:#e0e0e0;}.cls-18{stroke-linejoin:round;}.cls-19{fill:#adadad;}.cls-21{fill:#c10072;}.cls-22{fill:#ccc;}</style></defs><title>CEO6</title><g id="Layer_7" data-name="Layer 7"><path class="cls-1" d="M228.75,580.48s-198,44.28-223.9-178.73c0,0-60.78-258.83,247.94-373.89,0,0,134.85-61.7,347.72-1.46,0,0,171.22,68.15,231.24,213.27,0,0,107.47,249.66,18.67,473,0,0-71.16,290.78-303.94,155.42,0,0-75.34-53.78-77.52-166.69C469,701.43,477,526.58,228.75,580.48Z"/></g><ellipse class="cls-2" cx="744.49" cy="880.31" rx="136.43" ry="16.09"/><ellipse class="cls-2" cx="310.05" cy="645.58" rx="95.13" ry="10.78"/><ellipse class="cls-2" cx="220.54" cy="323.16" rx="63.85" ry="8.47"/><ellipse class="cls-2" cx="107.67" cy="468.91" rx="63.85" ry="8.47"/><ellipse class="cls-2" cx="432.41" cy="471.96" rx="81.63" ry="8.75"/><polygon class="cls-3" points="70.64 458.69 70.64 468.91 76.18 468.91 76.18 466.4 79.64 468.91 105.42 468.91 105.42 468.91 82.5 458.69 70.64 458.69"/><polygon class="cls-3" points="111.92 458.69 111.92 468.91 117.46 468.91 117.46 466.4 120.92 468.91 146.7 468.91 146.7 468.91 123.78 458.69 111.92 458.69"/><polygon class="cls-4" points="122.99 287.71 121.08 458.69 112.9 458.69 87.3 287.71 122.99 287.71"/><polygon class="cls-4" points="113.8 287.71 79.13 458.69 71.31 458.69 77.69 286.93 113.8 287.71"/><polygon class="cls-5" points="121.72 212.24 128.33 228.21 136.31 263.65 154.35 282.21 149.74 287.18 124.28 267.44 101.44 223.27 121.72 212.24"/><polygon class="cls-6" points="124.25 291.3 127.33 233.41 121.72 212.24 111.31 207.26 95.66 207.26 76.09 213.84 71.29 239.01 77.08 290.68 124.25 291.3"/><polygon class="cls-5" points="75.69 213.41 51.45 251.77 91.11 273.52 95.08 266.77 71.83 249.08 78.61 244.78 83.05 226.64 75.69 213.41"/><path class="cls-5" d="M101.44,205.39c-.85-1.15,0-12.54,0-12.54h11.08l-1.21,14.41S103.71,208.46,101.44,205.39Z"/><polygon class="cls-5" points="99.31 201.03 92.81 207.26 100.46 219.71 106.87 209.04 108.65 208.68 112.03 219.71 117.9 208.68 112.9 202.36 107.76 206.72 99.31 201.03"/><g id="Layer_9" data-name="Layer 9"><path class="cls-5" d="M124.26,188.26c1.3-5.63,1.86-5.38,2-8.2.23-4.64.35-9.63-2.19-13.51a21.54,21.54,0,0,0-5.72-5.38,19.22,19.22,0,0,0-5-2.92,13.29,13.29,0,0,0-4.85-.6A19,19,0,0,0,96,162.77c-8.78,8.54-5.76,21.57-.43,30.65,2,3.39,6.63,7.89,10.52,8.45C117.3,202.91,123,193.68,124.26,188.26Z"/><path class="cls-7" d="M110.27,178.19c-2.31-1.6-5.66-3.06-7.1-1.89"/><path class="cls-7" d="M124.42,181.14c-.88-2.09-4.27-1.95-6.5-1.57"/><path class="cls-5" d="M110.89,191a19.05,19.05,0,0,0,2.39-.47,1.27,1.27,0,0,0,.54-.21,1.49,1.49,0,0,0,.3-1.35l-.29-2.54"/><ellipse class="cls-8" cx="107.02" cy="183.37" rx="1.52" ry="1.18" transform="translate(-77 289.27) rotate(-89.65)"/><ellipse class="cls-8" cx="119.09" cy="186.03" rx="1.41" ry="1.12" transform="translate(-92.58 249.16) rotate(-73.98)"/><path class="cls-3" d="M96.59,175.93s-1.79-4.39-3.56-2.72c-.6.58-1.3,5.45,2.39,8.72,0,0-3.71,3.5-2.33,6.47,0,0-4-4.08-5.06-18.33,0,0-1.39-12.37,12.84-11.46,6.45-7.75,17.53-7.66,27.26,2a27.62,27.62,0,0,1-2.06,22.27s1.8-6.71-2.32-12.24c0,0-11.67,4.5-15.6-4.74C108.13,165.91,102.39,164.58,96.59,175.93Z"/></g><path class="cls-9" d="M104.47,192.78a22.09,22.09,0,0,1,6.4,3.41"/><path class="cls-5" d="M95.08,266.77s7.68,1.17,8.43,2.06-2.68,1-2.68,1,6.37,3.75,5.8,5.87c-1,3.87-15.52-2.15-15.52-2.15Z"/><path class="cls-5" d="M154.36,282.21s5.34,1.19,5.49,2.23-1.49,1.27-1.49,1.27,5.09,4.38,4.09,5.59c-2.46,2.95-12.71-4.12-12.71-4.12Z"/><polygon class="cls-3" points="403.72 464.76 403.72 475.48 409.53 475.48 409.53 472.85 413.16 475.48 440.2 475.48 440.2 475.48 416.16 464.76 403.72 464.76"/><polygon class="cls-3" points="454.99 464.76 454.99 475.48 460.81 475.48 460.81 472.85 464.44 475.48 491.48 475.48 491.48 475.48 467.44 464.76 454.99 464.76"/><polygon class="cls-4" points="458.64 285.4 464.61 464.76 456.02 464.76 421.19 285.4 458.64 285.4"/><polygon class="cls-4" points="449 285.4 412.63 464.76 404.42 464.76 411.11 284.58 449 285.4"/><polygon class="cls-5" points="457.31 206.22 464.24 222.97 469.29 260.16 485.56 299.94 480.75 303.17 454.55 263.52 436.03 217.79 457.31 206.22"/><polygon class="cls-10" points="459.95 289.16 463.19 228.43 457.31 206.22 446.39 201 429.97 201 409.44 207.9 404.4 234.31 410.47 288.51 459.95 289.16"/><path class="cls-5" d="M409.44,207.9l-13.83,19.32L386,264.56a4.49,4.49,0,0,0,6,5.29l41.79-16.09-1.38-6.27-24.87,1.66,4.54-8.79,4.66-19Z"/><path class="cls-5" d="M436,199c-.89-1.22,0-13.16,0-13.16h11.62L446.39,201S438.41,202.26,436,199Z"/><polygon class="cls-5" points="433.79 194.46 426.98 201 435 214.06 441.72 202.86 443.59 202.49 447.14 214.06 453.3 202.49 448.05 195.86 442.66 200.44 433.79 194.46"/><g id="Layer_9-2" data-name="Layer 9"><path class="cls-5" d="M458.89,168.21c-2.32-5.61-1.69-5.73-3.28-8.23-2.62-4.11-5.55-8.45-10.08-10.22a22.61,22.61,0,0,0-8.16-1.12,20.46,20.46,0,0,0-6.09.56,14.11,14.11,0,0,0-4.51,2.44,20,20,0,0,0-7.51,11.93c-2.33,12.65,8.18,22,18.26,26.47,3.77,1.69,10.46,2.72,14.12.83C461.84,185,461.11,173.6,458.89,168.21Z"/><path class="cls-7" d="M440.66,166.39c-3,0-6.56,2.53-7.08,4.41"/><path class="cls-7" d="M454.7,162a6.25,6.25,0,0,0-7.06.88"/><path class="cls-5" d="M449.11,178.66a22,22,0,0,0,1.76-1.85,1.36,1.36,0,0,0,.33-.52,1.56,1.56,0,0,0-.56-1.33l-1.8-2"/><ellipse class="cls-8" cx="441.17" cy="174.51" rx="1.24" ry="1.6" transform="matrix(0.82, -0.57, 0.57, 0.82, -20.18, 285.12)"/><ellipse class="cls-8" cx="453.11" cy="169.44" rx="1.17" ry="1.48" transform="translate(-30.55 160.06) rotate(-19.39)"/><path class="cls-3" d="M427.73,174.49s-4.2-2.67-4.69-.16c-.17.85,2.2,5.44,7.34,6,0,0-1,5.25,1.94,6.95,0,0-5.87-1.08-15.46-12.6,0,0-8.72-9.73,4-17.6.8-10.55,10.34-17.21,24.53-14.87a29,29,0,0,1,11.78,20.3s-2.55-6.84-9.43-9.06c0,0-7.25,11-16.22,5.44C431.51,158.9,425.79,161.26,427.73,174.49Z"/></g><path class="cls-9" d="M443.53,183s7.54,1,9.77-1.88C453.3,181.07,450.72,191.78,443.53,183Z"/><path class="cls-5" d="M432.41,247.49s6.62-4.48,6.74-2.88-.57,1.95-.57,1.95,6.28-1.49,7.08,0-1.22,6.28-11.87,7.2Z"/><path class="cls-5" d="M485.56,299.94s6.18,2.32,5.83,3.81-2.12.19-2.12.19,3.5,5.79,2,6.63c-3.42,1.94-10.52-7.4-10.52-7.4Z"/><path class="cls-11" d="M456.77,164.37a3.24,3.24,0,0,0-2.16,1.91,3.25,3.25,0,0,0-5.12,3.44c1.05,3.89,7.32,4.71,7.32,4.71s5-3.84,4-7.76a3.26,3.26,0,0,0-4-2.3Zm0,0"/><path class="cls-11" d="M441.77,169.53a3.3,3.3,0,0,0-2.17,1.91,3.26,3.26,0,0,0-5.12,3.44c1,3.89,7.33,4.71,7.33,4.71s5-3.84,3.95-7.76a3.26,3.26,0,0,0-4-2.3Zm0,0"/><circle class="cls-12" cx="456.74" cy="174.25" r="3.08"/><circle class="cls-12" cx="439.8" cy="180.67" r="3.08"/><path class="cls-11" d="M447.37,223.64a5.2,5.2,0,0,0-4.14,2,5.2,5.2,0,0,0-9.33,3.17c0,6.44,9.33,10.32,9.33,10.32s9.34-3.82,9.34-10.32a5.2,5.2,0,0,0-5.2-5.21Zm0,0"/><polygon class="cls-11" points="506.24 235.39 510.65 230.71 508.05 230.55 503.64 235.23 506.24 235.39"/><polygon class="cls-11" points="510.01 235.63 514.42 230.96 511.83 230.79 507.42 235.47 510.01 235.63"/><polygon class="cls-11" points="513.79 235.88 518.2 231.2 515.61 231.03 511.2 235.71 513.79 235.88"/><polygon class="cls-11" points="517.57 236.12 521.98 231.44 519.39 231.27 514.98 235.95 517.57 236.12"/><polygon class="cls-11" points="506.18 236.2 509.96 241.41 507.37 241.24 503.59 236.04 506.18 236.2"/><polygon class="cls-11" points="509.96 236.44 513.74 241.65 511.15 241.48 507.37 236.28 509.96 236.44"/><polygon class="cls-11" points="513.74 236.69 517.52 241.89 514.92 241.72 511.15 236.52 513.74 236.69"/><polygon class="cls-11" points="517.52 236.93 521.3 242.13 518.7 241.96 514.92 236.76 517.52 236.93"/><rect class="cls-13" x="481.59" y="194.28" width="1.38" height="79.94" transform="matrix(0.06, -1, 1, 0.06, 217.73, 700.59)"/><path class="cls-14" d="M522.21,236.13l5.23.33c.11,0,.19.32.16.71s-.14.68-.25.67l-5.23-.33Z"/><path class="cls-15" d="M440.85,226.1l5,1.81s-3.46,5-1.43,8.54l-4.59-.44"/><path class="cls-9" d="M445.84,227.91s-3.46,5-1.43,8.54"/><polygon class="cls-3" points="192.61 320.12 192.61 327.5 196.61 327.5 196.61 325.68 199.12 327.5 217.73 327.5 217.73 327.5 201.18 320.12 192.61 320.12"/><polygon class="cls-3" points="241.15 316.42 241.15 323.81 245.15 323.81 245.15 321.99 247.66 323.81 266.27 323.81 266.27 323.81 249.72 316.42 241.15 316.42"/><polygon class="cls-16" points="234.44 183.14 248.74 316.11 241.43 316.11 202.57 183.14 234.44 183.14"/><polygon class="cls-16" points="226.24 183.14 200.58 320.12 193.59 320.12 193.98 182.56 226.24 183.14"/><polygon class="cls-5" points="231.04 119.44 236.26 131 239.84 159.95 253.75 192.09 248.74 195.29 229.99 164.5 214.8 126.76 231.04 119.44"/><polygon class="cls-17" points="234.79 186.39 237.49 135.64 232.58 117.09 223.45 112.72 209.73 112.72 192.23 118.12 188.37 140.56 193.44 185.85 234.79 186.39"/><polygon class="cls-18" points="177.13 163.98 188.37 121.55 192.23 118.12 196.52 121.18 199.46 133.21 190.96 163.7 193.93 201.74 188.37 203 177.13 163.98"/><path class="cls-5" d="M214.8,111.08c-.75-1,0-11,0-11h9.71l-1.06,12.63S216.79,113.77,214.8,111.08Z"/><polygon class="cls-5" points="212.93 107.26 207.24 112.72 213.94 123.64 219.55 114.28 221.11 113.97 224.08 123.64 229.22 113.97 224.84 108.43 220.33 112.25 212.93 107.26"/><g id="Layer_9-3" data-name="Layer 9"><path class="cls-5" d="M234.72,85.37c-1.91-4.69-1.38-4.8-2.71-6.89-2.17-3.44-4.6-7.08-8.37-8.59a19.27,19.27,0,0,0-6.82-1,16.79,16.79,0,0,0-5.09.45,11.7,11.7,0,0,0-3.78,2,16.68,16.68,0,0,0-6.32,9.93c-2,10.55,6.73,18.37,15.14,22.2,3.14,1.42,8.73,2.31,11.8.75C237.11,99.38,236.55,89.89,234.72,85.37Z"/><path class="cls-7" d="M220.54,84.29c-2.47,0-5.43,1.23-5.87,2.79"/><path class="cls-7" d="M232.15,80.42c-1.69-1-4.23.17-5.64,1.57"/><path class="cls-5" d="M228.31,93.13a17.94,17.94,0,0,0,1.48-1.54,1.21,1.21,0,0,0,.27-.43c.12-.41-.18-.8-.46-1.12l-1.49-1.67"/><ellipse class="cls-8" cx="221.43" cy="89.42" rx="1.04" ry="1.34" transform="translate(-11.47 142.2) rotate(-34.76)"/><ellipse class="cls-8" cx="231.69" cy="85.58" rx="0.98" ry="1.24" transform="translate(-15.25 80.47) rotate(-19.09)"/><path class="cls-3" d="M208.66,90.48s-3.5-2.25-3.92-.16c-.15.72,1.81,4.56,6.11,5.05,0,0-.9,4.38,1.59,5.81,0,0-4.91-.92-12.87-10.59,0,0-3.21-7.6-.54-14.71,6-9.09,13.64-12.44,25.49-10.42,0,0,7.56,3.65,8.79,15.14,0,0-2.43-4.33-3.46-5.8,0,0-9,6.53-16.45,1.89C212.08,78.21,207.09,79.42,208.66,90.48Z"/></g><path class="cls-9" d="M221.37,99.54a24.84,24.84,0,0,1,6.27,1.1"/><path class="cls-18" d="M193.93,201.74s4.53,4,4.16,5.25-2.59.25-2.59.25,1.11,6.4-.25,6.9-4.46-2.74-6.88-11.14Z"/><path class="cls-5" d="M248.74,195.29s4.28,9.25,6.49,8.7.09-7.38.09-7.38,4.35,2.62-1.56-4.52Z"/><g id="Layer_8" data-name="Layer 8"><path class="cls-8" d="M313.8,327.92h0l-1.63,2.69-4.32,2.23a2.55,2.55,0,0,0-1,.77,113.19,113.19,0,0,1-12.1,1.13c-4.3.4-7.71.94-10.52,2.44,2.4-5.5,5.11-10.89,7.82-16.25,2.54-5,5.4-9.88,8.07-14.84,2.49-4.65,2.41-9,4-14,4.49-14.51,14.38-24.09,30.18-23.61,14.81.45,24.38,14.15,23.6,27.76a41.32,41.32,0,0,1-.62,4.95c-.79,4.47-2.05,8.83-2.18,13.59a107.51,107.51,0,0,0,1.28,20.28c.52,3.28,3.35,22.59-1.24,25.33Z"/><path class="cls-5" d="M315.15,327.67a1.41,1.41,0,0,0-.3.75,1.27,1.27,0,0,0,.31.72,47.38,47.38,0,0,0,6.4,7.54c1.42,1.35,3.21,2.72,5.18,2.38a6.74,6.74,0,0,0,3.16-1.86l4.06-3.55c-1.39-1.27-1.06-3.47-.61-5.28q1-3.57,2.33-7a29.76,29.76,0,0,0-12.87-7.71c-1.69-.5-2.61-.39-3,1.35a40.64,40.64,0,0,1-1,4.51A31.7,31.7,0,0,1,315.15,327.67Z"/><polygon class="cls-5" points="320.27 630.79 338.99 465.18 336.53 437.1 301.75 443.85 302.06 454.94 310.53 631.13 320.27 630.79"/><polygon class="cls-5" points="286.6 631.13 277.93 631.13 279.56 445.54 322.3 435.61 286.6 631.13"/><path class="cls-3" d="M308.94,630.14l0,17.5h2.65l1.9-7.34,4.74,7.33h26.48a34.43,34.43,0,0,1-23.66-17.48Z"/><path class="cls-3" d="M276.56,630.12v17.49h2.65l1.9-7.34,4.74,7.33h26.49a34.38,34.38,0,0,1-23.66-17.48Z"/><g id="Layer_7-2" data-name="Layer 7"><path class="cls-5" d="M346,283.15c0,2-6.13,4-7.73,4.88A44.34,44.34,0,0,1,332,290.3v0c-.17-.1-6.92,3.56-10.31,5a55.93,55.93,0,0,0-9.89,4.85c.17,2.2.73,5.84,2.82,6.19.64.1.9.88.94,1.5.13,2,.34,4.48,1.32,6.22a44.28,44.28,0,0,0,9.95,9.56c6.06,4.12,13.92-2.85,13.92-2.85A30.26,30.26,0,0,0,350.13,305C352.19,295.26,346,283.15,346,283.15Z"/><path class="cls-9" d="M330.42,295a7.9,7.9,0,0,0-6.21,1"/><path class="cls-9" d="M346.74,299a7.75,7.75,0,0,0-5.92-2"/><path class="cls-9" d="M337.6,315.47s-6.19,3.92-10.7-1.47"/><path class="cls-9" d="M334.15,301.3a11.6,11.6,0,0,0-.25,4.58c.17,1.15.53,2.28.76,3.43a2.84,2.84,0,0,1,0,1.73,1.16,1.16,0,0,1-1.49.62h0"/><polygon class="cls-14" points="242.72 526.31 360.79 530.67 336.43 403.79 349.37 366.46 342.48 339.61 340.01 335.34 307.03 329.84 281.93 339.62 283.72 358.25 290.03 403.31 242.72 526.31"/><path class="cls-14" d="M291.22,373.1s4.08,13,18.83,7.23"/><path class="cls-14" d="M322.3,380.86s14.49,8.52,20.88-2"/><path class="cls-14" d="M298.26,394.21l-35.45,16.3c-8,3.51-16.5-3.78-13.88-11.93l19.82-49.29a21.12,21.12,0,0,1,10.58-11.16l27.7-8.29-5.2,4-34.41,57.7,29.11-6.65Z"/><path class="cls-14" d="M359.62,348.5l19.07,50.84a5.14,5.14,0,0,1-6.45,6.58l-34.87-13.3-.84-8.72,21.11,4.33-8.06-19.9-7.31-28.44-2.6-4.51L356,343.86A9.71,9.71,0,0,1,359.62,348.5Z"/><polygon class="cls-5" points="314.85 323.52 307.03 329.84 309.46 344.38 326.38 333.07 336.25 349.73 340.01 335.34 337.86 326.88 327.04 330.8 314.85 323.52"/><path class="cls-5" d="M296.53,384.89s9.84-6.22,16.68,2c7.06,8.49-1.68,8.71-3.81,7.33s-2.61-2.7-4.38-2.25-5.76,5-6.76,2.23C298,393.47,296.53,384.89,296.53,384.89Z"/><path class="cls-5" d="M336.53,383.9s-6.16-3.75-11.3.35-6.27,8.44-3.65,9.25,6.16-2.8,7.14-2.1,8.11,2.18,8.65,1.22Z"/></g><ellipse class="cls-12" cx="343.59" cy="310.28" rx="3.19" ry="3.1" transform="matrix(1, -0.1, 0.1, 1, -28.09, 34.27)"/><ellipse class="cls-12" cx="322.25" cy="307.74" rx="3.19" ry="3.1" transform="translate(-27.95 32.22) rotate(-5.49)"/><path class="cls-11" d="M348.7,299.88a3.9,3.9,0,0,0-3.4.74,3.93,3.93,0,0,0-7.43.6c-1.18,4.72,4.95,9.29,4.95,9.29s7.55-1.09,8.74-5.86a3.93,3.93,0,0,0-2.86-4.77Zm0,0"/><path class="cls-11" d="M328,296.49a3.91,3.91,0,0,0-3.23,1.31,3.93,3.93,0,0,0-7.21,1.88C317.22,304.53,324,308,324,308s7.25-2.38,7.61-7.28a3.94,3.94,0,0,0-3.64-4.2Zm0,0"/><path class="cls-11" d="M325.46,358.48a6.57,6.57,0,0,0-5.24,2.59,6.59,6.59,0,0,0-11.83,4c0,8.16,11.83,13.08,11.83,13.08s11.83-4.84,11.83-13.08a6.59,6.59,0,0,0-6.59-6.6Zm0,0"/><polygon class="cls-11" points="400.76 384.11 407.06 378.94 403.82 378.31 397.53 383.48 400.76 384.11"/><polygon class="cls-11" points="405.47 385.02 411.77 379.85 408.53 379.22 402.24 384.39 405.47 385.02"/><polygon class="cls-11" points="410.18 385.93 416.48 380.76 413.24 380.13 406.95 385.31 410.18 385.93"/><polygon class="cls-11" points="414.89 386.84 421.19 381.67 417.95 381.04 411.66 386.21 414.89 386.84"/><polygon class="cls-11" points="400.57 385.12 404.48 392.27 401.25 391.64 397.33 384.5 400.57 385.12"/><polygon class="cls-11" points="405.28 386.03 409.19 393.18 405.96 392.55 402.04 385.41 405.28 386.03"/><polygon class="cls-11" points="409.99 386.94 413.9 394.09 410.67 393.46 406.75 386.32 409.99 386.94"/><polygon class="cls-11" points="414.7 387.85 418.61 395 415.38 394.37 411.46 387.23 414.7 387.85"/><rect class="cls-13" x="369.96" y="328.17" width="1.75" height="101.29" transform="translate(-71.48 671.02) rotate(-79.06)"/><path class="cls-14" d="M420.72,387.6l6.52,1.26c.14,0,.19.44.1.91s-.29.84-.44.81l-6.51-1.26Z"/><path class="cls-15" d="M321.71,361.6l1.81,2.29s-4.38,6.35-1.81,10.82l-3.57.3"/><path class="cls-9" d="M323.52,363.89s-4.38,6.35-1.81,10.82"/></g><polygon class="cls-6" points="708.04 585.05 710.37 585.41 803.59 464.01 745.7 356.81 743.38 356.45 801.26 463.65 708.04 585.05"/><path class="cls-19" d="M643.7,483.24s-7.8,25.7,10.73,51.18c16.46,22.64,56.4,46.16,55,55.18-1.67,10.81-14.56,12.15-14.56,12.15l3.63-10s7.54.83,8.36-2.25S671.2,562,647.56,536.29c-24.35-26.46-16.72-50.25-14.73-54.73Z"/><path class="cls-14" d="M638.45,434.72l4.69.73,1.87.28,1.87.29,4.7.73a226,226,0,0,0-5,22.56,226.63,226.63,0,0,0-2.07,23l-4.69-.73L638,481.3,636.1,481l-4.7-.73a226,226,0,0,0,5-22.56A226.63,226.63,0,0,0,638.45,434.72Z"/><path class="cls-19" d="M651.06,435.62s.32-26.86,25.68-45.55c22.53-16.61,67.71-27,69.1-36,1.67-10.81-10.21-16-10.21-16l.43,10.65s7.43,1.48,7.29,4.67-42.31,15.46-72.59,32.8c-31.2,17.87-31.12,42.86-30.57,47.73Z"/><path class="cls-10" d="M738.94,358.72a3,3,0,0,0,1.52,4.14l.8.38a3.39,3.39,0,0,0,4.43-1.31l1.61-3a3,3,0,0,0-1.51-4.13l-.8-.38a3.38,3.38,0,0,0-4.43,1.3Z"/><path class="cls-10" d="M636.86,433.67a2.65,2.65,0,0,0,2.33,2.92l11.11,1.72a2.64,2.64,0,0,0,3.1-2.09h0a2.66,2.66,0,0,0-2.33-2.93L640,431.58a2.65,2.65,0,0,0-3.11,2.09Z"/><path class="cls-10" d="M629.58,480.82a2.64,2.64,0,0,1,3.1-2.09l11.1,1.71a2.66,2.66,0,0,1,2.34,2.93h0a2.66,2.66,0,0,1-3.11,2.09l-11.1-1.71a2.66,2.66,0,0,1-2.33-2.93Z"/><path class="cls-10" d="M704.26,583.08a3,3,0,0,1,2.7-3.48l.88-.12a3.37,3.37,0,0,1,3.82,2.58l.63,3.37a3,3,0,0,1-2.69,3.48l-.88.12a3.38,3.38,0,0,1-3.83-2.58Z"/><polygon class="cls-11" points="805.97 476.2 816.71 467.38 811.19 466.31 800.45 475.13 805.97 476.2"/><polygon class="cls-11" points="814.01 477.75 824.75 468.93 819.23 467.86 808.49 476.69 814.01 477.75"/><polygon class="cls-11" points="822.04 479.31 832.78 470.48 827.26 469.42 816.52 478.24 822.04 479.31"/><polygon class="cls-11" points="830.08 480.86 840.82 472.04 835.3 470.97 824.56 479.79 830.08 480.86"/><polygon class="cls-11" points="805.64 477.93 812.31 490.11 806.79 489.05 800.12 476.86 805.64 477.93"/><polygon class="cls-11" points="813.67 479.48 820.35 491.67 814.83 490.6 808.15 478.41 813.67 479.48"/><polygon class="cls-11" points="821.71 481.03 828.39 493.22 822.87 492.15 816.19 479.97 821.71 481.03"/><polygon class="cls-11" points="829.75 482.59 836.42 494.77 830.9 493.71 824.23 481.52 829.75 482.59"/><rect class="cls-13" x="719.82" y="340.12" width="2.99" height="241.22" transform="translate(132.06 1081.49) rotate(-79.06)"/><path class="cls-14" d="M840,482.15l11.11,2.15c.25.05.33.75.17,1.56s-.49,1.43-.73,1.38l-11.12-2.15Z"/><path class="cls-14" d="M597.59,441.14a93.1,93.1,0,0,1-8.17-5.91,93.22,93.22,0,0,1,9.79-2.44c6.54-1,9.1-.73,10.34.54,1.38,1.42.85,4.13,1.62,4.19s1.23-1.4,2.25-1.29,1.08,2.56.84,3.8-1.2,3.5-2.19,3.22-.87-1.8-1.61-2-1.26,2.48-3.07,3.28C605.77,445.22,603.3,444.48,597.59,441.14Z"/><path class="cls-11" d="M788.78,488.56s-19.11,5.05-24.66,4.54-63-13.87-63-13.87L653,459.47l-2.87,7.62L692,498.14l53,24.36s-1.52,8.16-3.53,11.83-.51,9.37,2.52,13.33,2.66,30.73,2.66,30.73l45,10.52,31-66.41s51-11.34,54-15.78c4.54-6.73-2.52-8.58-11.6-15.13s-31.14-17.66-31.14-17.66Z"/><g id="Layer_7-3" data-name="Layer 7"><path class="cls-8" d="M776.11,468.86c-10.89-16.26.53-40.82.53-40.82,8.09-14.48,20.09-16.81,27-17.15,18.65-.93,24.7,5.64,30.81,11.09,20.86,18.66,24.42,48.76,13.6,111.13a13.39,13.39,0,0,0,4.82,14.46c-15.13.77-35.58-3.8-45.31-15.41-18.73-18.72-24.1-29-24.63-41.58-.65-15,12.71-53.16,23.57-64.91"/><path class="cls-5" d="M798.43,473.87c-5.38,2.1-12.19,3.56-17.19.61a15.6,15.6,0,0,1-7.11-9.58A70.33,70.33,0,0,1,772,451.38a40.6,40.6,0,0,1,.31-10.09c4.24-3.19,4.27-7.77,6.67-11.15,4-5.57,7.1-9.81,13.57-12a32,32,0,0,1,11.49-1,28.65,28.65,0,0,1,8.48,1.21,19.79,19.79,0,0,1,6.15,3.74,28,28,0,0,1,9.67,17.24C830.79,457.21,812.88,468.25,798.43,473.87Z"/><path class="cls-3" d="M773.31,437c6.65-12.25,14.6-9,14.6-9,6.17,1.92,14.9-3.87,14.9-3.87-10.12,13.32-18.64,54.35-18.64,54.35l40-11.8,9.66-25L823,422.71l-12-6.61-5.23-1L784.39,419Z"/><path class="cls-20" d="M788.78,443.27a2.24,2.24,0,0,1-1.81-1,13.94,13.94,0,0,1-1-1.91,8.86,8.86,0,0,0-.84-1.34,4.79,4.79,0,0,0-1.11-1.09,4.47,4.47,0,0,0-3.92-.23,12.5,12.5,0,0,0-3.45,2.11"/><path d="M776.84,440l-.4-.46A13,13,0,0,1,780,437.4a4.77,4.77,0,0,1,4.18.24,5.22,5.22,0,0,1,1.21,1.18,8.92,8.92,0,0,1,.87,1.38,14.07,14.07,0,0,0,1,1.89,2,2,0,0,0,1.57.87l0,.62a2.57,2.57,0,0,1-2.06-1.16,14.11,14.11,0,0,1-1-2,7.72,7.72,0,0,0-.8-1.27,4.28,4.28,0,0,0-1-1,4.11,4.11,0,0,0-3.62-.19A12.22,12.22,0,0,0,776.84,440Z"/><path d="M790.7,437.29a8.89,8.89,0,0,0-10.4-3.85l-.19-.58A9.5,9.5,0,0,1,791.22,437Z"/><path class="cls-20" d="M772.32,448.44a30.32,30.32,0,0,1-2.34-2.71,1.93,1.93,0,0,1-.41-.74c-.15-.69.39-1.34.88-1.82l2.65-2.65"/><path d="M772.1,448.66a34.08,34.08,0,0,1-2.36-2.74,2.33,2.33,0,0,1-.46-.85,2.41,2.41,0,0,1,1-2.12l2.64-2.65.43.43-2.64,2.65c-.41.4-.92,1-.8,1.54a1.76,1.76,0,0,0,.34.61,30.31,30.31,0,0,0,2.33,2.7Z"/><path class="cls-20" d="M776.78,462a6.32,6.32,0,0,0-1.79.16,2.72,2.72,0,0,1-.61.2c-.8.1-1.48-.95-1.64-1.95s-.07-2,0-3-.29-1.7-.27-2.56a1.38,1.38,0,0,1,.15-.67c.24-.34.69-.26,1-.12a19.77,19.77,0,0,1,6.65,5.27.64.64,0,0,1,.18.27c.18.61-.92,1.53-1.28,1.77A4.83,4.83,0,0,1,776.78,462Z"/><path d="M774,462.62a2.69,2.69,0,0,1-1.43-2.14c-.06-1.05-.07-2.08,0-3.1a8.4,8.4,0,0,0-.12-1.06,8.18,8.18,0,0,1-.14-1.49,1.61,1.61,0,0,1,.19-.81c.25-.38.69-.44,1.28-.23a19.92,19.92,0,0,1,6.75,5.34,1.07,1.07,0,0,1,.23.37c.29,1-1.35,2.11-1.37,2.12a5.12,5.12,0,0,1-2.51.69h0a6,6,0,0,0-1.74.15,2.73,2.73,0,0,1-.61.2A1.1,1.1,0,0,1,774,462.62Zm-.45-8.33c-.27-.09-.59-.13-.73.08a.9.9,0,0,0-.1.48,7.25,7.25,0,0,0,.12,1.39,11,11,0,0,1,.14,1.17q0,1.53,0,3c.14.86.72,1.76,1.39,1.68a3.27,3.27,0,0,0,.55-.19,6.3,6.3,0,0,1,1.87-.17,4.68,4.68,0,0,0,2.32-.64c.59-.4,1.26-1.15,1.17-1.44a.35.35,0,0,0-.1-.13,19.52,19.52,0,0,0-6.59-5.24Z"/><path class="cls-21" d="M772.6,462.42a2.92,2.92,0,0,0,2.25,1.13,5.48,5.48,0,0,0,2.38-.57c.59-.25,1.15-.53,1.74-.84a4.46,4.46,0,0,0,1.28-.81,2.26,2.26,0,0,0,.66-1.45,9.17,9.17,0,0,1-2.86,1.24,5.67,5.67,0,0,1-4.07-.4c-.46-.25-1.05-.93-1.53-.51S772.18,461.88,772.6,462.42Z"/><path d="M774,463.69a3.35,3.35,0,0,1-1.54-1.08h0a2.82,2.82,0,0,1-.48-1.71,1.25,1.25,0,0,1,.36-.91c.47-.42,1,0,1.4.26a2.92,2.92,0,0,0,.34.23,5.44,5.44,0,0,0,3.93.38,9,9,0,0,0,2.81-1.22l.39-.25-.06.55a2.56,2.56,0,0,1-.74,1.62,4.67,4.67,0,0,1-1.34.85l-.07,0c-.57.29-1.1.57-1.67.8a5.59,5.59,0,0,1-2.44.59A2.66,2.66,0,0,1,774,463.69Zm-1.24-1.46a2.73,2.73,0,0,0,2.09,1,5.45,5.45,0,0,0,2.3-.56c.56-.23,1.09-.5,1.65-.79l.09,0a4.42,4.42,0,0,0,1.23-.78,1.84,1.84,0,0,0,.45-.7,9,9,0,0,1-2.46,1,5.86,5.86,0,0,1-4.2-.41l-.39-.26c-.41-.3-.7-.49-.92-.28a.76.76,0,0,0-.19.52A2.2,2.2,0,0,0,772.75,462.23Z"/><path class="cls-21" d="M772.35,452.88a6.55,6.55,0,0,1,4.83,2,26.86,26.86,0,0,1,3.67,4.6.36.36,0,0,1,.1.35c-.06.11-.17.1-.28.07-1.6-.38-2.93-1.84-4.33-2.91a10.08,10.08,0,0,0-3.69-1.81C771.64,454.89,770.72,453,772.35,452.88Z"/><path d="M780.32,460.06a9.71,9.71,0,0,1-3-2c-.35-.29-.7-.59-1-.86a9.8,9.8,0,0,0-3.61-1.77,2.09,2.09,0,0,1-1.38-1.81c0-.27.11-.93,1.08-1h0a6.74,6.74,0,0,1,5,2A26.59,26.59,0,0,1,781,459.3a.64.64,0,0,1,.12.66.38.38,0,0,1-.51.19Zm-7-5a10.51,10.51,0,0,1,3.13,1.66c.36.28.71.58,1.06.88a8.49,8.49,0,0,0,3.16,2,25.77,25.77,0,0,0-3.63-4.52,6.38,6.38,0,0,0-4.67-1.93c-.26,0-.68.13-.69.51a1.53,1.53,0,0,0,1,1.23Z"/><ellipse class="cls-3" cx="780.91" cy="439.69" rx="2.07" ry="1.64" transform="translate(210.4 1130.84) rotate(-79.84)"/><path d="M781.14,442a1.58,1.58,0,0,1-.65,0,1.84,1.84,0,0,1-1.25-1,2.73,2.73,0,0,1-.24-1.73,2.21,2.21,0,0,1,2.34-2,1.8,1.8,0,0,1,1.24,1,2.67,2.67,0,0,1,.25,1.73A2.39,2.39,0,0,1,781.14,442Zm-.33-4.06a1.79,1.79,0,0,0-1.21,1.5,2.12,2.12,0,0,0,.18,1.33,1.19,1.19,0,0,0,.82.65c.72.12,1.46-.55,1.63-1.51a2.12,2.12,0,0,0-.18-1.33,1.21,1.21,0,0,0-.82-.65A1.19,1.19,0,0,0,780.81,438Z"/></g><path class="cls-5" d="M791.59,588.91s15.65,28.46,10.08,51.35,12.37,224,12.37,224H799.81L751.55,644.59l22.55-59.77Z"/><path class="cls-5" d="M746.61,578.39S733.16,590.85,727,603.84s-24,107.91-27.38,124.27c-5.57,27.22-23.52,134-23.52,134l13-2.87s17.56-48.7,36.5-107c12.61-38.83,33-89.34,37.74-94,11.75-11.76,22.41-19.18,19.38-71.37Z"/><path class="cls-3" d="M691.94,858.11v26.75H688l-2.83-11.22-7,11.22H638.84A51.21,51.21,0,0,0,674,858.11Z"/><path class="cls-3" d="M816.4,862.14v26.75h-3.94l-2.83-11.22-7,11.22H763.29a51.17,51.17,0,0,0,35.12-26.75Z"/><path class="cls-5" d="M653,459.47s-3-5.52-5.2-6.87c0,0-7.37,3.43-11-1.62,0,0-7.49,7.7-1.89,14.57,0,0,4.37,2.37,15.19,1.54Z"/><polygon class="cls-11" points="815.65 456.38 824.43 451.83 823.07 456.07 814.29 460.61 815.65 456.38"/><polygon class="cls-11" points="817.64 450.21 826.42 445.67 825.05 449.9 816.28 454.45 817.64 450.21"/><polygon class="cls-11" points="819.63 444.05 828.41 439.5 827.04 443.74 818.26 448.28 819.63 444.05"/><polygon class="cls-11" points="821.62 437.88 830.4 433.34 829.03 437.57 820.25 442.12 821.62 437.88"/><polygon class="cls-11" points="814.56 456.03 810.1 447.21 808.73 451.44 813.2 460.26 814.56 456.03"/><polygon class="cls-11" points="816.55 449.86 812.09 441.04 810.72 445.28 815.19 454.1 816.55 449.86"/><polygon class="cls-11" points="818.54 443.7 814.08 434.88 812.71 439.11 817.18 447.93 818.54 443.7"/><polygon class="cls-11" points="820.53 437.53 816.07 428.71 814.7 432.95 819.17 441.76 820.53 437.53"/><rect class="cls-22" x="782.31" y="461.08" width="61.67" height="2.41" transform="translate(123.52 1094.21) rotate(-72.12)"/><path class="cls-14" d="M823.76,433.31l2.8-8.69c.08-.23-.38-.58-1-.78s-1.2-.19-1.28,0l-2.8,8.69Z"/><polygon class="cls-11" points="834.55 462.48 843.33 457.93 841.96 462.17 833.19 466.71 834.55 462.48"/><polygon class="cls-11" points="836.54 456.31 845.32 451.76 843.95 456 835.17 460.55 836.54 456.31"/><polygon class="cls-11" points="838.53 450.14 847.31 445.6 845.94 449.83 837.16 454.38 838.53 450.14"/><polygon class="cls-11" points="840.52 443.98 849.3 439.43 847.93 443.67 839.15 448.21 840.52 443.98"/><polygon class="cls-11" points="833.46 462.13 829 453.31 827.63 457.54 832.1 466.36 833.46 462.13"/><polygon class="cls-11" points="835.45 455.96 830.99 447.14 829.62 451.38 834.09 460.19 835.45 455.96"/><polygon class="cls-11" points="837.44 449.79 832.98 440.98 831.61 445.21 836.08 454.03 837.44 449.79"/><polygon class="cls-11" points="839.43 443.63 834.96 434.81 833.6 439.04 838.07 447.86 839.43 443.63"/><rect class="cls-22" x="801.21" y="467.18" width="61.67" height="2.41" transform="translate(130.81 1116.42) rotate(-72.12)"/><path class="cls-14" d="M842.66,439.41l2.8-8.69c.07-.23-.38-.58-1-.79s-1.21-.18-1.28.05l-2.8,8.69Z"/><polygon class="cls-11" points="853.45 468.57 862.23 464.03 860.86 468.26 852.08 472.81 853.45 468.57"/><polygon class="cls-11" points="855.44 462.41 864.22 457.86 862.85 462.1 854.07 466.64 855.44 462.41"/><polygon class="cls-11" points="857.43 456.24 866.21 451.7 864.84 455.93 856.06 460.48 857.43 456.24"/><polygon class="cls-11" points="859.42 450.08 868.2 445.53 866.83 449.76 858.05 454.31 859.42 450.08"/><polygon class="cls-11" points="852.36 468.22 847.89 459.4 846.53 463.64 851 472.46 852.36 468.22"/><polygon class="cls-11" points="854.35 462.06 849.88 453.24 848.52 457.47 852.99 466.29 854.35 462.06"/><polygon class="cls-11" points="856.34 455.89 851.87 447.07 850.51 451.31 854.97 460.13 856.34 455.89"/><polygon class="cls-11" points="858.33 449.73 853.86 440.91 852.5 445.14 856.96 453.96 858.33 449.73"/><rect class="cls-22" x="820.11" y="473.28" width="61.67" height="2.41" transform="translate(138.11 1138.63) rotate(-72.12)"/><path class="cls-14" d="M861.56,445.51l2.8-8.69c.07-.23-.38-.58-1-.79s-1.21-.18-1.28.05l-2.8,8.69Z"/><polygon class="cls-10" points="827.32 485.27 826.14 484.88 800.65 476.66 748.97 658.95 768 665.09 769.18 665.48 788.21 671.61 852.8 493.49 827.32 485.27"/><polygon class="cls-14" points="752.97 644.82 748.97 658.95 768 665.09 769.18 665.48 788.21 671.61 793.22 657.81 752.97 644.82"/><polygon class="cls-14" points="826.09 484.87 798.59 476 794.22 491.58 849.31 509.36 854.87 494.15 827.37 485.28 826.09 484.87"/><path d="M815.13,525.55c-4.45-1.43-6.21-5.49-4.6-10.48,1.44-4.47,5.23-7.34,10-5.79,3.07,1,5.61,3.69,4.84,7.12l-2.06-.66a4.42,4.42,0,0,0-3.39-4.7c-3.71-1.2-6.26,1.39-7.32,4.68-1.28,4-.07,7,3.17,8.09,2.65.85,4.79-.2,6.05-3l2.06.67C822.27,525.32,819,526.8,815.13,525.55Z"/><path d="M815.93,540.86c-1.24,3.84-3.95,5.43-7.39,4.32s-4.81-4-3.6-7.74,4.07-5.34,7.48-4.24S817.14,537.11,815.93,540.86Zm-9-2.85c-.9,2.79-.09,4.86,2.19,5.6s4-.54,4.94-3.32.06-4.84-2.13-5.55S807.75,535.32,806.88,538Z"/><path d="M802.39,554a4.51,4.51,0,0,1,4.52-.82c2.76.89,3.28,2.73,2.45,5.31l-2.43,7.52-1.86-.6,2.15-6.66c.58-1.8,1-3.36-1.36-4.12s-3.81.8-4.54,3l-1.9,5.92-1.87-.61,3.65-11.3,1.75.56Z"/><path d="M801.83,575.39l-2.26-.73-2.13,6.6c-.33,1-.6,1.64.71,2.06a7.75,7.75,0,0,0,1,.26l-.51,1.6a10.07,10.07,0,0,1-1.46-.37c-2.82-.91-2.24-2.27-1.44-4.75l1.94-6-1.91-.62.49-1.53,1.91.62,1.08-3.36,1.87.6-1.09,3.36,2.26.72Z"/><path d="M789.65,604.44c-3.33-1.08-4.62-3.91-3.43-7.59s4.1-5.45,7.24-4.44c3.72,1.2,4.17,4.61,3.12,7.88l-.09.26-8.5-2.74-.07.12c-.77,2.41.1,4.29,2.29,5,1.62.52,2.74.11,3.82-1.43l1.82.58A4.82,4.82,0,0,1,789.65,604.44Zm3.27-10.51c-1.82-.59-3.52.32-4.44,2.36l6.57,2.12C795.57,596.21,794.78,594.53,792.92,593.93Z"/><path d="M783.3,613.21a4.51,4.51,0,0,1,4.52-.82c2.76.89,3.28,2.73,2.45,5.31l-2.43,7.52-1.86-.6,2.15-6.66c.58-1.8,1-3.36-1.36-4.12s-3.82.8-4.54,3l-1.91,5.92-1.86-.61,3.65-11.3,1.75.56Z"/><path d="M782.74,634.56l-2.26-.73-2.13,6.6c-.33,1-.6,1.64.71,2.06a7.74,7.74,0,0,0,1,.27l-.51,1.59a10.41,10.41,0,0,1-1.46-.37c-2.82-.91-2.24-2.27-1.44-4.75l1.94-6-1.91-.62.49-1.53,1.91.62,1.08-3.36,1.87.6L781,632.3l2.26.72Z"/><polygon class="cls-14" points="772.66 492.2 784.6 533.27 787.18 524.19 781.19 490.42 772.66 492.2"/><path class="cls-11" d="M281.77,271.14a13.29,13.29,0,0,0-8,8.71,13.35,13.35,0,0,0-19.36,16.25c6,15.38,31.91,16,31.91,16s18.74-17.82,12.7-33.34a13.34,13.34,0,0,0-17.28-7.59Zm0,0"/><path class="cls-11" d="M309.54,229.63a8.6,8.6,0,0,0-7.57,1,8.63,8.63,0,0,0-16.35.1c-3.38,10.14,9.29,21.13,9.29,21.13s16.7-1.12,20.1-11.36a8.62,8.62,0,0,0-5.47-10.91Zm0,0"/><path class="cls-11" d="M491,110.85a12.8,12.8,0,0,0-11.32.5,12.79,12.79,0,0,0-24.14-2.11c-6.38,14.49,10.79,32.47,10.79,32.47s24.8.63,31.23-14A12.81,12.81,0,0,0,491,110.85Zm0,0"/><path class="cls-11" d="M490.45,150.84a6.74,6.74,0,0,0-3.91,4.56A6.78,6.78,0,0,0,477,164c3.29,7.72,16.47,7.59,16.47,7.59s9.23-9.35,5.91-17.14a6.78,6.78,0,0,0-8.9-3.58Zm0,0"/></svg>