<?xml version="1.0" encoding="utf-8"?>
<!-- Generator: Adobe Illustrator 22.0.1, SVG Export Plug-In . SVG Version: 6.00 Build 0)  -->
<svg version="1.1" id="Layer_1" xmlns="http://www.w3.org/2000/svg" xmlns:xlink="http://www.w3.org/1999/xlink" x="0px" y="0px"
	 viewBox="0 0 881.9 617.2" style="enable-background:new 0 0 881.9 617.2;" xml:space="preserve">
<style type="text/css">
	.st0{fill:#F5F5F5;}
	.st1{fill:#BCBCBC;}
	.st2{fill:#383838;stroke:#000000;stroke-width:0.5;stroke-miterlimit:10;}
	.st3{fill:#C6C6C6;stroke:#000000;stroke-width:0.5;stroke-miterlimit:10;}
	.st4{fill:#EFEFEF;stroke:#000000;stroke-width:0.5;stroke-linejoin:round;}
	.st5{fill:#BBBDBF;}
	.st6{fill:#FFFFFF;stroke:#000000;stroke-width:0.5;stroke-linejoin:round;}
	.st7{fill:#0077BF;stroke:#000000;stroke-width:0.5;stroke-miterlimit:10;}
	.st8{fill:#FFFFFF;stroke:#000000;stroke-width:0.5;stroke-miterlimit:10;}
	.st9{fill:#EB058C;stroke:#000000;stroke-width:0.5;stroke-miterlimit:10;}
	.st10{fill:#FFE600;stroke:#000000;stroke-width:0.5;stroke-miterlimit:10;}
	.st11{fill:#CECECE;stroke:#000000;stroke-width:0.5;stroke-miterlimit:10;}
	.st12{fill:#FFFFFF;}
	.st13{fill:none;stroke:#000000;stroke-width:0.5;stroke-miterlimit:10;}
	.st14{enable-background:new    ;}
	.st15{fill:#C4C4C4;}
	.st16{fill:#E0E0E0;stroke:#000000;stroke-width:0.5;stroke-linejoin:round;}
	.st17{fill:#E8E8E8;stroke:#000000;stroke-width:0.5;stroke-linejoin:round;}
	.st18{fill:#B5B5B5;}
	.st19{fill:#727272;stroke:#000000;stroke-width:0.5;stroke-miterlimit:10;}
	.st20{fill:#D1D1D1;stroke:#000000;stroke-width:0.5;stroke-miterlimit:10;}
	.st21{fill:#C1C1C1;stroke:#000000;stroke-width:0.5;stroke-miterlimit:10;}
</style>
<title>CEO5</title>
<g id="Layer_6">
	<path class="st0" d="M347.8,547.9c0,0-76.2,131.4-212.1,32.4c0,0-168.9-96.3-79.7-326.4c23.5-60.7,69.9-136.6,200.2-204.2
		c61-31.6,135.9-68.4,260.4-39C610.3,32.8,751.1,85.4,811.2,255c25.1,70.9,51.5,214-143.8,264.2c-33.3,8.6-67.8,14.1-131.1-42
		C536.3,477.2,444.2,384,347.8,547.9z"/>
</g>
<path class="st1" d="M196.9,507.4c0-4.7,111.4-8.5,234.1-8.5s210.5,3.8,210.5,8.5c0,4.7-87.7,8.4-210.5,8.4S196.9,512.1,196.9,507.4
	z"/>
<path class="st2" d="M589.1,493.1v-206c0-9.8-7.9-17.8-17.8-17.8l0,0H274.7c-9.8,0-17.8,8-17.8,17.8v206H589.1z"/>
<path class="st3" d="M615.6,505.2H230.5c-8,0-9.2-10.6-9.2-10.6h403.5C624.8,494.6,623.6,505.2,615.6,505.2z"/>
<rect x="221.3" y="490.5" class="st4" width="403.5" height="5.9"/>
<rect x="384.1" y="490.5" class="st5" width="77.9" height="3.4"/>
<rect x="270" y="286.1" class="st6" width="306.2" height="193.5"/>
<rect x="270" y="286.1" class="st7" width="306.2" height="18.5"/>
<path class="st8" d="M304,341.2h97.1c7.4,0,13.3,6,13.3,13.3v80.1c0,7.4-6,13.3-13.3,13.3H304c-7.4,0-13.3-6-13.3-13.3v-80.1
	C290.7,347.2,296.6,341.2,304,341.2z"/>
<path class="st9" d="M414.5,435.6v3.4c0,4.9-4,8.9-8.9,8.9h-106c-4.9,0-8.9-4-8.9-8.9l0,0v-3.4H414.5z"/>
<polygon class="st7" points="293.5,429.3 323.3,381.2 337.4,403 352.9,392.8 369.2,415.2 388.9,387.3 410.4,430.3 "/>
<circle class="st10" cx="368.7" cy="374.6" r="9.6"/>
<path class="st11" d="M452.6,341.2h85.6c6.6,0,12,5.4,12,12v82.6c0,6.6-5.4,12-12,12h-85.6c-6.6,0-12-5.4-12-12v-82.6
	C440.6,346.6,446,341.2,452.6,341.2z"/>
<rect x="449" y="355.4" class="st12" width="92.8" height="5.5"/>
<rect x="449" y="365.6" class="st12" width="92.8" height="5.5"/>
<rect x="449" y="375.8" class="st12" width="92.8" height="5.5"/>
<rect x="449" y="386" class="st12" width="92.8" height="5.5"/>
<rect x="449" y="396.2" class="st12" width="92.8" height="5.5"/>
<rect x="449" y="407" class="st12" width="92.8" height="5.5"/>
<rect x="449" y="417.7" class="st12" width="92.8" height="5.5"/>
<rect x="449" y="428.5" class="st12" width="92.8" height="5.5"/>
<rect x="440.6" y="313.8" class="st11" width="109.6" height="7"/>
<rect x="440.6" y="325.7" class="st11" width="109.6" height="7"/>
<rect x="291.3" y="313.8" class="st11" width="123.2" height="7"/>
<rect x="291.3" y="459.5" class="st11" width="123.2" height="7"/>
<rect x="440.6" y="459.5" class="st11" width="109.6" height="7"/>
<rect x="291.3" y="325.7" class="st11" width="123.2" height="7"/>
<circle class="st8" cx="281.7" cy="295.4" r="5"/>
<circle class="st8" cx="295.5" cy="295.4" r="5"/>
<circle class="st8" cx="309.4" cy="295.4" r="5"/>
<path class="st8" d="M305.6,100.4h227c5.5,0,9.9,4.4,9.9,9.9l0,0v126.1c0,2.6-2.1,4.8-4.8,4.8l0,0H300.5c-2.6,0-4.8-2.1-4.8-4.8l0,0
	V110.3C295.7,104.9,300.1,100.4,305.6,100.4L305.6,100.4z"/>
<path class="st7" d="M305.6,100.4h227c5.5,0,9.9,4.4,9.9,9.9l0,0v14.8l0,0H295.7l0,0v-14.8C295.7,104.9,300.1,100.4,305.6,100.4
	L305.6,100.4z"/>
<path class="st13" d="M305.6,100.4h227c5.5,0,9.9,4.4,9.9,9.9l0,0v126.1c0,2.6-2.1,4.8-4.8,4.8l0,0H300.5c-2.6,0-4.8-2.1-4.8-4.8
	l0,0V110.3C295.7,104.9,300.1,100.4,305.6,100.4L305.6,100.4z"/>
<rect x="311" y="137.7" class="st11" width="20.2" height="20.2"/>
<rect x="343.6" y="137.7" class="st11" width="20.2" height="20.2"/>
<rect x="376.3" y="137.7" class="st11" width="20.2" height="20.2"/>
<rect x="409" y="137.7" class="st11" width="20.2" height="20.2"/>
<rect x="441.6" y="137.7" class="st11" width="20.2" height="20.2"/>
<rect x="474.3" y="137.7" class="st11" width="20.2" height="20.2"/>
<rect x="507" y="137.7" class="st11" width="20.2" height="20.2"/>
<rect x="311" y="170.7" class="st11" width="20.2" height="20.2"/>
<rect x="343.6" y="170.7" class="st11" width="20.2" height="20.2"/>
<rect x="376.3" y="170.7" class="st11" width="20.2" height="20.2"/>
<rect x="409" y="170.7" class="st11" width="20.2" height="20.2"/>
<rect x="441.6" y="170.7" class="st11" width="20.2" height="20.2"/>
<rect x="474.3" y="170.7" class="st11" width="20.2" height="20.2"/>
<rect x="507" y="170.7" class="st9" width="20.2" height="20.2"/>
<rect x="311" y="203.7" class="st11" width="20.2" height="20.2"/>
<rect x="343.6" y="203.7" class="st11" width="20.2" height="20.2"/>
<rect x="376.3" y="203.7" class="st11" width="20.2" height="20.2"/>
<rect x="409" y="203.7" class="st11" width="20.2" height="20.2"/>
<rect x="441.6" y="203.7" class="st11" width="20.2" height="20.2"/>
<rect x="474.3" y="203.7" class="st11" width="20.2" height="20.2"/>
<rect x="507" y="203.7" class="st11" width="20.2" height="20.2"/>
<ellipse transform="matrix(0.1602 -0.9871 0.9871 0.1602 255.8044 662.262)" class="st13" cx="517.1" cy="180.8" rx="20.4" ry="20.4"/>
<line class="st13" x1="537.5" y1="180.8" x2="581.4" y2="165.9"/>
<circle class="st8" cx="623.4" cy="152.3" r="57.7"/>
<g class="st14">
	<path d="M598.9,121.5c4,0,7.6,1.6,7.6,6c0,2.4-1.4,4.4-3.5,5.1c3,0.7,4.6,2.9,4.6,6c0,5.5-4.5,6.8-9.1,6.8h-9.8v-23.9
		C588.7,121.5,598.9,121.5,598.9,121.5z M591.7,131.8h5.7c2.7,0,5.9-0.2,5.9-3.8c0-3.6-2.8-3.8-5.6-3.8h-6L591.7,131.8L591.7,131.8z
		 M591.7,142.8h6.3c3.2,0,6.3-0.2,6.3-4.4s-3.7-4.1-6.9-4.1h-5.8v8.5H591.7z"/>
	<path d="M614.2,145.5h-2.9v-23.9h2.9V145.5z"/>
	<path d="M634.5,136.7c0,5.9-3.1,9.3-8.3,9.3c-5.3,0-8.5-3.4-8.5-9.1s3.3-9.2,8.5-9.2C631.4,127.6,634.5,130.9,634.5,136.7z
		 M620.6,136.8c0,4.3,2,6.8,5.5,6.8c3.4,0,5.4-2.6,5.4-6.8c0-4.1-2.1-6.8-5.4-6.8S620.6,132.7,620.6,136.8z"/>
	<path d="M652.9,143.6c0,3-0.3,4.4-1.1,5.8c-1.2,2-3.7,3.2-6.9,3.2c-3.5,0-6.8-1.2-7.3-5.1h2.9c0.3,2,1.8,2.9,4.5,2.9
		c3.6,0,5-1.7,5.1-5.7v-2.1c-1.1,2.2-2.9,3.2-5.5,3.2c-4.6,0-7.6-3.4-7.6-8.8c0-4.7,2.6-9.2,7.8-9.2c2.4,0,4.4,1.1,5.5,3v-2.5h2.6
		V143.6z M640,136.9c0,3.8,2,6.3,5,6.3c3.2,0,5.1-2.6,5.1-6.8c0-3.9-1.9-6.3-5.2-6.3C641.8,130.1,640,132.7,640,136.9z"/>
</g>
<g class="st14">
	<path d="M603.8,180.7h-2.7v-2.6c-1.1,2-3.1,3-5.7,3c-4.9,0-8-3.5-8-9.2c0-4.9,2.6-9.1,7.9-9.1c2.5,0,4.4,1,5.7,2.8v-8.9h2.9v24
		H603.8z M590.3,172c0,4.2,2.1,6.9,5.4,6.9c3.3,0,5.3-2.6,5.3-6.8c0-3.5-1.5-6.7-5.4-6.7C592.3,165.3,590.3,167.9,590.3,172z"/>
	<path d="M623.9,172c0,5.9-3.1,9.3-8.3,9.3c-5.3,0-8.5-3.4-8.5-9.1s3.3-9.2,8.5-9.2C620.9,162.9,623.9,166.2,623.9,172z
		 M610.1,172.1c0,4.3,2,6.8,5.5,6.8c3.4,0,5.4-2.6,5.4-6.8c0-4.1-2.1-6.8-5.4-6.8S610.1,167.9,610.1,172.1z"/>
	<path d="M630,166.1c1.4-2.1,3.3-3.2,5.9-3.2c4.2,0,5.8,2.3,5.8,6.3v11.5h-2.9v-10.2c0-2.8-0.1-5.1-3.7-5.1c-3.7,0-4.9,2.8-4.9,6.2
		v9.1h-2.9v-17.3h2.7L630,166.1L630,166.1z"/>
	<path d="M653.3,181.3c-5.1,0-8.2-3.4-8.2-9s3.3-9.4,8.1-9.4c5.7,0,7.9,4.5,7.9,9.5v0.4h-13v0.2c0,3.7,2,5.9,5.4,5.9
		c2.5,0,3.9-1.1,4.7-3.7h2.8C659.9,179.3,657.3,181.3,653.3,181.3z M653.1,165.2c-2.8,0-4.7,2-5.1,5.3h10.1
		C657.8,167.2,655.9,165.2,653.1,165.2z"/>
</g>
<path class="st9" d="M667.9,256.7c-6.1,0-11.9,2.9-15.7,7.7c-6.6-8.6-19-10.3-27.6-3.7c-4.9,3.7-7.7,9.5-7.7,15.7
	c0,24.4,35.4,39.1,35.4,39.1s35.4-14.5,35.4-39.1C687.6,265.5,678.8,256.7,667.9,256.7L667.9,256.7z"/>
<path class="st10" d="M783.9,413.8v54.3c0,8.2-6.1,14.8-13.5,14.8h-98.5c-7.5,0-13.5-6.7-13.5-14.8v-54.3l62.8-42L783.9,413.8z"/>
<path class="st8" d="M681.1,381.1h80c6.6,0,12,5.4,12,12v57.7c0,6.6-5.4,12-12,12h-80c-6.6,0-12-5.4-12-12v-57.7
	C669.1,386.4,674.5,381.1,681.1,381.1z"/>
<rect x="681.2" y="395.9" class="st15" width="78.6" height="2.8"/>
<rect x="681.2" y="403" class="st15" width="78.6" height="2.8"/>
<rect x="681.2" y="410.1" class="st15" width="78.6" height="2.8"/>
<rect x="681.2" y="417.2" class="st15" width="78.6" height="2.8"/>
<rect x="681.2" y="424.3" class="st15" width="78.6" height="2.8"/>
<rect x="681.2" y="431.4" class="st15" width="78.6" height="2.8"/>
<path class="st10" d="M783.9,413.8v54.3c0,8.2-6.1,14.8-13.5,14.8h-98.5c-7.5,0-13.5-6.7-13.5-14.8v-54.3l62.8,33.4L783.9,413.8z"/>
<polyline class="st13" points="770.3,482.9 721.1,447.2 671.8,482.9 "/>
<polygon class="st16" points="232.8,288.9 151.8,322.1 106.1,210.7 169.9,184.6 187.1,177.5 194.8,196.3 "/>
<polygon class="st6" points="192.2,205 229.8,296.8 148.9,330 103.2,218.6 164.9,193.3 "/>
<polygon class="st17" points="192.2,205 172.9,212.9 164.9,193.3 "/>
<rect x="124.9" y="227.1" transform="matrix(0.9251 -0.3796 0.3796 0.9251 -75.3166 76.1256)" class="st18" width="61" height="3.9"/>
<rect x="128.1" y="234.9" transform="matrix(0.9251 -0.3796 0.3796 0.9251 -78.0327 77.9281)" class="st18" width="61" height="3.9"/>
<rect x="131.2" y="242.7" transform="matrix(0.9251 -0.3796 0.3796 0.9251 -80.7696 79.6998)" class="st18" width="61" height="3.9"/>
<rect x="134.4" y="250.4" transform="matrix(0.9251 -0.3796 0.3796 0.9251 -83.4549 81.4837)" class="st18" width="61" height="3.9"/>
<rect x="137.6" y="258.2" transform="matrix(0.9251 -0.3796 0.3796 0.9251 -86.1711 83.2862)" class="st18" width="61" height="3.9"/>
<rect x="140.8" y="265.9" transform="matrix(0.9251 -0.3796 0.3796 0.9251 -88.855 85.0674)" class="st18" width="61" height="3.9"/>
<rect x="145.2" y="276" transform="matrix(0.9257 -0.3782 0.3782 0.9257 -92.0611 87.1471)" class="st18" width="61.3" height="3.9"/>
<rect x="147.1" y="281.4" transform="matrix(0.9251 -0.3796 0.3796 0.9251 -94.2777 88.6216)" class="st18" width="61" height="3.9"/>
<rect x="150.3" y="289.2" transform="matrix(0.9251 -0.3796 0.3796 0.9251 -96.9939 90.4241)" class="st18" width="61" height="3.9"/>
<path class="st8" d="M9.4,289.4c-2.4-0.9-3.5-3.6-2.6-6l0.3-0.8c0.8-2.4,3.3-3.8,5.8-3l7,2.5l0.5-1.4l-6.1-2.1c-2-0.7-3-3.3-2.1-5.8
	l0.3-0.8c0.9-2.5,3.3-3.9,5.3-3.2l6.1,2.1l1.1,0.4l19.8,7l-0.7-10c0.6-4.6,4.5-7.9,8.5-7.3s6.9,4.8,6.2,9.4l1.1,17.2
	c0.7,4.5,0.4,9.2-0.8,13.6l-5.7,16.2c-1.4,4.1-7.3,10.1-11.4,8.7L9.6,314.6l-1.2-0.4l-5.8-2.1c-2-0.7-2.9-3.3-2-5.8l0.3-0.8
	c0.9-2.5,3.2-3.9,5.2-3.2l5.8,2l0.5-1.4l-7-2.5c-2.4-0.9-3.5-3.6-2.6-6l0.3-0.8c0.8-2.4,3.4-3.8,5.8-3l7,2.5l0.5-1.4L9.4,289.4z"/>
<path class="st7" d="M72.1,335.6l-23.5-8.3c-0.9-0.3-1.3-1.3-1-2.1l13.2-37.5c0.3-0.9,1.3-1.3,2.1-1l23.5,8.3c0.9,0.3,1.3,1.3,1,2.1
	l-13.2,37.5C73.9,335.5,72.9,335.9,72.1,335.6z"/>
<path class="st8" d="M65.7,295.7c-0.6,1.7,0.3,3.6,2,4.2s3.6-0.3,4.2-2s-0.3-3.6-2-4.2l0,0C68.2,293.1,66.3,294,65.7,295.7
	L65.7,295.7z"/>
<path class="st19" d="M72.8,381.3h107.3l0.2,35.9h-5.1c-1.7-12.9-6.5-21.6-14.4-26.1c-4.5-2.5-11.1-3.9-20-4.1v93.9
	c0,6.6,1.1,10.9,3.4,13.1s7.1,3.2,14.3,3.2v4.5H94.9v-4.5c7,0,11.6-1.1,13.9-3.3c2.3-2.2,3.4-6.5,3.4-13V387
	c-8.7,0.2-15.3,1.6-20,4.1c-8.5,4.7-13.3,13.4-14.4,26.1h-5.1L72.8,381.3z"/>
<polygon class="st8" points="750.9,264.2 780.2,336.5 806.9,327 827.3,319.7 812,308.6 810.7,307.7 "/>
<polygon class="st8" points="750.9,264.2 840.5,314 880.8,309 "/>
<polygon class="st20" points="806.9,327 824,353 827.3,319.7 "/>
<polygon class="st21" points="750.9,264.2 827.3,319.7 824,353 840.5,314 "/>
</svg>
