<?xml version="1.0" encoding="utf-8"?>
<!-- Generator: Adobe Illustrator 22.0.1, SVG Export Plug-In . SVG Version: 6.00 Build 0)  -->
<svg version="1.1" id="Layer_1" xmlns="http://www.w3.org/2000/svg" xmlns:xlink="http://www.w3.org/1999/xlink" x="0px" y="0px"
	 viewBox="0 0 694.5 630.9" style="enable-background:new 0 0 694.5 630.9;" xml:space="preserve">
<style type="text/css">
	.st0{fill:#FFFFFF;}
	.st1{fill:#0077BF;stroke:#000000;stroke-width:0.5;stroke-miterlimit:10;}
	.st2{fill:#FFFFFF;stroke:#000000;stroke-width:0.5;stroke-miterlimit:10;}
	.st3{fill:#E8E8E8;stroke:#000000;stroke-width:0.5;stroke-miterlimit:10;}
	.st4{enable-background:new    ;}
</style>
<title>CEO7 copy</title>
<g id="Layer_7">
	<path class="st0" d="M293,138.9c0,0-5.9-149.1,158.8-138.4c0,0,195.3-9.8,237.8,228.7c0,0,26.8,105.7-44.8,251.8
		c0,0-71.9,114.9-184.8,139.2c0,0-194.8,44.8-344.6-48.9c0,0-201-89.9-72.3-240.4c0,0,48.8-47.4,130.8-34.1
		C173.8,296.8,299.2,325.6,293,138.9z"/>
</g>
<circle class="st1" cx="347.4" cy="340.4" r="218.8"/>
<circle class="st2" cx="347.4" cy="340.4" r="201"/>
<circle class="st1" cx="347.4" cy="340.4" r="192.1"/>
<circle class="st2" cx="347.4" cy="340.4" r="186.3"/>
<circle class="st3" cx="347.4" cy="340.4" r="178.1"/>
<circle class="st2" cx="347.4" cy="340.4" r="110"/>
<g>
	<g class="st4">
		<path d="M244.2,402.4L225,436l36.4-12.7l5,6.1l-33,27.1l-3.4-4.1l27.6-22.6l-36,12.3l-3.1-3.8l18.9-33.1l-27.6,22.6l-3.4-4.2
			l33-27.1L244.2,402.4z"/>
	</g>
	<g class="st4">
		<path d="M276.7,467.8c-5.8,8.7-13.8,10.8-21.6,5.5c-7.9-5.3-9.1-13.5-3.5-22s14-10.5,21.8-5.2
			C281.2,451.3,282.5,459.3,276.7,467.8z M256.1,454.2c-4.2,6.3-3.7,12.1,1.5,15.6c5,3.3,10.5,1.6,14.8-4.8
			c4.1-6.1,3.6-12.1-1.4-15.4C266,446.2,260.2,448.1,256.1,454.2z"/>
	</g>
	<g class="st4">
		<path d="M289.6,462c3.8-2.6,7.4-3.2,11.8-1.4c7,2.7,8.1,7.6,5.6,14.1l-7.4,19.1l-4.7-1.8l6.6-17c1.8-4.6,3.1-8.6-2.9-10.9
			c-6.2-2.4-10,1.5-12.2,7.2l-5.8,15.1l-4.7-1.8l11.1-28.8l4.5,1.7L289.6,462z"/>
	</g>
	<g class="st4">
		<path d="M321.8,499.5c-9-1.4-13.5-8.2-11.9-18.2c1.6-9.9,8.4-15.7,16.9-14.3c10.1,1.6,12.6,10.2,11.2,19l-0.1,0.7l-23-3.7
			l-0.1,0.3c-1,6.5,1.9,11,7.9,12c4.4,0.7,7.1-0.8,9.3-5.2l4.9,0.8C334.2,497.7,329.1,500.6,321.8,499.5z M326.1,471.1
			c-4.9-0.8-8.9,2.2-10.5,7.9l17.8,2.8C333.8,475.9,331.1,471.9,326.1,471.1z"/>
	</g>
	<g class="st4">
		<path d="M354.7,504.2c-1.5,4.4-3.2,8.6-8.7,8.8c-1.3,0-2.5-0.2-3.8-0.4l-0.1-4.6c1.6,0.4,2.4,0.6,3.3,0.6c1.7,0,3-1.2,3.5-2.7
			l2.2-5.7L338,469.8l5.8-0.2l9.9,24.4l8-24.9l5.3-0.2L354.7,504.2z"/>
	</g>
	<g class="st4">
		<path d="M384.4,469c1.1-4.1,4-6.8,8-8.2c8-2.8,15.3,1.4,18.5,10.7c3.3,9.5,0.1,17.4-8.1,20.3c-4,1.4-8.3,1.2-11.5-1.7l1.5,4.3
			l-4.5,1.6l-14-40.4l4.8-1.7L384.4,469z M388,479.9c2.4,6.9,7.4,10,13,8.1c5.4-1.9,7.4-7.6,5-14.6c-2.4-6.9-7.4-10.1-12.9-8.2
			C386.4,467.5,386,474.1,388,479.9z"/>
	</g>
	<g class="st4">
		<path d="M447.1,467.6c-0.7,0.9-1.7,1.7-2.6,2.4c-2.4,1.5-4.6,1-6.2-1.5c-0.8,4.5-2.9,7.6-6.9,10.1c-5.2,3.2-10.2,2.4-13.1-2.2
			c-2.9-4.7-1.5-9.4,4.2-14c5.8-4.7,8-5.9,5.8-9.4c-1.7-2.8-4.8-3-8.7-0.6c-4,2.5-5.2,5.3-3.2,9.4l-4.2,2.6
			c-3.3-5.7-1.3-11.6,5.5-15.8c3.5-2.2,7.1-3.2,9.9-2.6c2.9,0.6,4.6,3.4,6,5.7c2.4,3.9,4.7,7.9,7.1,11.9c1.2,1.9,2.1,2.3,3.4,1.5
			c0.4-0.3,0.6-0.4,1-0.8L447.1,467.6z M426.9,463.6c-2.9,2.4-7,5.4-4.3,9.6c1.7,2.7,4.7,3.1,8,1.1c4.1-2.5,6.3-7.8,4.2-11.2l-3-4.8
			C430.8,460.6,428.6,462.1,426.9,463.6z"/>
	</g>
	<g class="st4">
		<path d="M462.5,455c-7,6.6-15.2,5.4-21.7-1.4c-7.1-7.5-7.4-16.1-0.8-22.4c5.5-5.2,11.6-5.6,17.1-1.1l-3.8,3.6
			c-3.7-2.6-7.2-2.4-10.3,0.5c-4.3,4.1-3.7,10,1.4,15.4c5.2,5.5,10.9,6.4,15,2.4c3.3-3.2,3.6-7.3,0.7-11.6l3.7-3.6
			C468.3,442.8,468.1,449.7,462.5,455z"/>
	</g>
	<g class="st4">
		<path d="M467.9,416.7l23.7,0.5l-3.7,5.3l-19.4-0.5l0.9,6.6l9.6,6.7l-2.8,4.1l-35.1-24.4l2.8-4.1l20.7,14.4l-3-19.4l3.9-5.6
			L467.9,416.7z"/>
	</g>
</g>
<g>
	<g class="st4">
		<path d="M267.4,192c6.7-3.6,13.3-2,16.5,4c1.9,3.6,1.6,7.6-1,10.7c4.8-1.3,9.4,0.8,11.9,5.5c3.8,7.1,0.9,14.6-6.9,18.8
			c-7.7,4.1-15.2,2.2-19-5l-0.4-0.7l4.5-2.4c3.1,5.3,7.8,6.8,12.8,4.1c4.8-2.6,6.6-7.4,4.3-11.8c-2.4-4.5-7.2-5.6-12.3-2.8
			c-0.9,0.5-1.3,0.8-2.4,1.5l-2.1-3.9c0.8-0.3,1-0.5,1.6-0.8c4.7-2.5,6.4-6.5,4.3-10.4c-2-3.8-6-4.8-9.9-2.7
			c-4.6,2.4-5.6,6.9-2.9,12.3l-4.5,2.4C257.9,202.8,259.9,196,267.4,192z"/>
	</g>
	<g class="st4">
		<path d="M322.4,196.3c2.6,9.8,3.8,21-8.1,24.2c-12.6,3.4-17-7-19.7-16.9s-4.9-21.9,8-25.4C315.6,174.8,319.7,186.4,322.4,196.3z
			 M300,202.2c1.7,6.1,4.6,16.2,13.1,13.9s5.6-12.8,4-18.8c-1.7-6.1-4.4-17-13.1-14.7C295.1,185.1,298.2,195.9,300,202.2z"/>
	</g>
	<g class="st4">
		<path d="M357.5,172.1c14.6,1.1,21,8,19.9,22.9c-1,14.1-7.4,21.6-22.1,20.5l-15.1-1.1l3.2-43.3L357.5,172.1z M346.3,209.9l8.7,0.6
			c11,0.8,15.9-4.2,16.7-15.3c0.8-11.6-2.8-17.3-14.5-18.2l-8.5-0.6L346.3,209.9z"/>
	</g>
	<g class="st4">
		<path d="M402.5,226.6c-1.2,0.1-2.5-0.2-3.5-0.5c-2.8-0.9-3.8-3-2.9-5.8c-4.1,2.3-7.8,2.7-12.4,1.1c-5.9-2-8.5-6.4-6.7-11.6
			c1.8-5.3,6.4-7.3,13.7-5.8c7.4,1.5,9.8,2.5,11.1-1.5c1.1-3.2-0.7-5.7-5.1-7.2c-4.6-1.5-7.5-0.7-9.4,3.6l-4.8-1.6
			c2.3-6.3,8.2-8.5,15.9-5.9c4,1.3,7.1,3.5,8.4,6c1.4,2.7,0.3,5.8-0.6,8.4c-1.5,4.5-3.2,8.8-4.7,13.2c-0.7,2.2-0.5,3.1,1,3.6
			c0.5,0.2,0.7,0.2,1.3,0.2L402.5,226.6z M392.6,208.2c-3.7-0.7-8.7-2-10.3,2.8c-1,3.1,0.6,5.7,4.3,7c4.6,1.6,10.1-0.1,11.4-4
			l1.8-5.4C397.4,209.4,394.9,208.6,392.6,208.2z"/>
	</g>
	<g class="st4">
		<path d="M410.1,236.5c-3.7,3-7.4,5.8-12.2,2.9c-1.2-0.7-2.1-1.5-3-2.4l2.3-4c1.2,1.2,1.8,1.8,2.6,2.3c1.5,0.9,3.2,0.5,4.5-0.4
			l5-3.7l4.9-33.3l5.1,2.9l-4.5,26.4l20.2-17.3l4.7,2.7L410.1,236.5z"/>
	</g>
</g>
<polygon class="st1" points="347.1,261.7 338.9,266 340.5,256.9 333.9,250.4 343,249.1 347.1,240.7 351.3,249.1 360.4,250.4 
	353.8,256.9 355.4,266 "/>
<polygon class="st1" points="386.7,273.1 379.5,270.9 385.7,266.5 385.6,258.9 391.7,263.4 398.9,261 396.4,268.2 401,274.3 
	393.4,274.2 389,280.4 "/>
<polygon class="st1" points="299.5,273.1 292.2,270.9 298.4,266.5 298.3,258.9 304.4,263.4 311.6,261 309.2,268.2 313.7,274.3 
	306.1,274.2 301.7,280.4 "/>
<polygon class="st1" points="347.1,421.3 338.9,417 340.5,426.2 333.9,432.6 343,434 347.1,442.3 351.3,434 360.4,432.6 
	353.8,426.2 355.4,417 "/>
<polygon class="st1" points="386.7,409.9 379.5,412.1 385.7,416.5 385.6,424.1 391.7,419.6 398.9,422 396.4,414.8 401,408.7 
	393.4,408.8 389,402.6 "/>
<polygon class="st1" points="299.5,409.9 292.2,412.1 298.4,416.5 298.3,424.1 304.4,419.6 311.6,422 309.2,414.8 313.7,408.7 
	306.1,408.8 301.7,402.6 "/>
<path class="st1" d="M89.7,285.7h519.5c13.9,0,25.2,11.3,25.2,25.2v54.5c0,13.9-11.3,25.2-25.2,25.2H89.7
	c-13.9,0-25.2-11.3-25.2-25.2V311C64.4,297,75.7,285.7,89.7,285.7z"/>
<g class="st4">
	<path class="st0" d="M103.9,361.5H97v-38H83.8v-4.7c7.8,0,13.3-1.9,15.1-9.7h5V361.5z"/>
	<path class="st0" d="M155.2,336.5c0,12.4-2.2,26-17.3,26c-15.9,0-17.8-13.6-17.8-26.1s1.3-27.4,17.5-27.4
		C154,309,155.2,324,155.2,336.5z M126.9,336.4c0,7.8,0.2,20.6,11,20.6c10.7,0,10.7-13.3,10.7-20.9c0-7.8,0.2-21.5-10.8-21.5
		C126.6,314.6,126.9,328.4,126.9,336.4z"/>
	<path class="st0" d="M195,336.5c0,12.4-2.2,26-17.3,26c-15.9,0-17.8-13.6-17.8-26.1s1.3-27.4,17.5-27.4
		C193.8,309,195,324,195,336.5z M166.6,336.4c0,7.8,0.2,20.6,11,20.6c10.7,0,10.7-13.3,10.7-20.9c0-7.8,0.2-21.5-10.8-21.5
		C166.4,314.6,166.6,328.4,166.6,336.4z"/>
	<path class="st0" d="M227.4,323c0,10.1-4.1,15.6-11.9,15.6c-7.9,0-11.9-5.1-11.9-15c0-9.4,4.4-14.7,12.2-14.7
		C223.4,308.8,227.4,313.8,227.4,323z M209.1,323.9c0,7,2.1,10.4,6.4,10.4c5.7,0,6.4-6.7,6.4-11c0-6.8-2.1-10.1-6.4-10.1
		C211.3,313.1,209.1,316.8,209.1,323.9z M221,364h-5l29.7-56.7h4.9L221,364z M264.3,347.1c0,10.1-4.1,15.6-11.9,15.6
		c-7.9,0-11.9-5.1-11.9-15c0-9.4,4.4-14.7,12.2-14.7C260.2,332.9,264.3,337.9,264.3,347.1z M246,348c0,7,2.1,10.4,6.4,10.4
		c5.7,0,6.4-6.7,6.4-11c0-6.8-2.1-10.1-6.4-10.1C248.2,337.2,246,340.8,246,348z"/>
	<path class="st0" d="M340.1,361.5h-4.4l-1.8-6.6c-4.4,5.5-9.7,7.9-17,7.9c-15,0-25.1-11-25.1-27.2c0-15.5,9.2-27.9,25.6-27.9
		c10.6,0,21.1,5.9,22.1,17.3h-6.8c-1-6.9-7.1-11.5-15.3-11.5c-11.5,0-18.7,8.4-18.7,21.8c0,13.2,7.2,21.6,18.6,21.6
		c11.1,0,16.3-7.6,16.6-17.7H317v-5.7h23.1V361.5z"/>
	<path class="st0" d="M379.8,361.5h-5.9v-6c-3.3,4.8-7.6,7-13.2,7c-8,0-12.7-4.5-12.7-13v-26.3h6.3v24.6c0,5.5,1.6,9.2,8,9.2
		c8.3,0,11.2-5.9,11.2-13.8v-20h6.3V361.5z"/>
	<path class="st0" d="M421.7,361.4c-1.3,0.5-2.9,0.7-4.3,0.7c-3.6,0-5.5-2-5.6-5.6c-3.8,4.2-7.9,6.1-13.9,6.1
		c-7.6,0-12.2-4.1-12.2-10.8c0-6.8,4.5-10.8,13.6-11.9c9.1-1.1,12.2-0.9,12.2-6.1c0-4.1-3-6.3-8.7-6.3c-5.9,0-8.9,2.1-9.5,7.8h-6.1
		c0.2-8.1,6.1-13,16-13c5.1,0,9.5,1.3,12,3.7c2.7,2.6,2.6,6.5,2.6,9.9c0,5.7-0.3,11.3-0.3,17c0,2.8,0.7,3.8,2.6,3.8
		c0.6,0,0.9-0.1,1.6-0.2V361.4z M403.1,343.9c-4.6,0.6-10.8,1.1-10.8,7.3c0,3.9,2.9,6.4,7.6,6.4c5.9,0,11.6-4.1,11.6-9v-7
		C409.2,343.4,405.9,343.6,403.1,343.9z"/>
	<path class="st0" d="M446.1,328.9c-0.7-0.1-1-0.1-1.6-0.1c-10.4,0-12.2,7.9-12.2,16.5v16.1H426v-38.2h6v8.2
		c2.7-6.4,7.3-9.1,14.1-9.1V328.9z"/>
	<path class="st0" d="M483.3,361.4c-1.3,0.5-2.9,0.7-4.3,0.7c-3.6,0-5.5-2-5.6-5.6c-3.8,4.2-7.9,6.1-13.9,6.1
		c-7.6,0-12.2-4.1-12.2-10.8c0-6.8,4.5-10.8,13.6-11.9c9.1-1.1,12.2-0.9,12.2-6.1c0-4.1-3-6.3-8.7-6.3c-5.9,0-8.9,2.1-9.5,7.8h-6.1
		c0.2-8.1,6.1-13,16-13c5.1,0,9.5,1.3,12,3.7c2.7,2.6,2.6,6.5,2.6,9.9c0,5.7-0.3,11.3-0.3,17c0,2.8,0.7,3.8,2.6,3.8
		c0.6,0,0.9-0.1,1.6-0.2V361.4z M464.7,343.9c-4.6,0.6-10.8,1.1-10.8,7.3c0,3.9,2.9,6.4,7.6,6.4c5.9,0,11.6-4.1,11.6-9v-7
		C470.8,343.4,467.5,343.6,464.7,343.9z"/>
	<path class="st0" d="M493.7,329.2c3.2-4.7,7.2-7,13-7c9.3,0,12.7,5.1,12.7,13.9v25.4h-6.3V339c0-6.1-0.3-11.3-8.2-11.3
		c-8.2,0-10.9,6.2-10.9,13.8v20h-6.3v-38.2h5.9V329.2z"/>
	<path class="st0" d="M544,328.5h-7.6v22.3c0,3.5-0.2,5.6,4.2,5.6c1.3,0,2.1-0.1,3.4-0.2v5.4c-2,0.2-2.8,0.3-4.8,0.3
		c-9.6,0-9.1-4.7-9.1-13.1v-20.3h-6.4v-5.2h6.4V312h6.3v11.3h7.6V328.5z"/>
	<path class="st0" d="M565.5,362.8c-11.3,0-18-7.4-18-19.8c0-12.4,7.2-20.7,17.8-20.7c12.6,0,17.3,10,17.3,21v0.9h-28.7l-0.1,0.4
		c0,8.1,4.5,13,11.9,13c5.5,0,8.5-2.4,10.3-8.1h6.1C580.2,358.2,574.5,362.8,565.5,362.8z M565.1,327.4c-6.1,0-10.4,4.4-11.3,11.6
		h22.2C575.5,331.7,571.4,327.4,565.1,327.4z"/>
	<path class="st0" d="M603.9,362.8c-11.3,0-18-7.4-18-19.8c0-12.4,7.2-20.7,17.8-20.7c12.6,0,17.3,10,17.3,21v0.9h-28.7l-0.1,0.4
		c0,8.1,4.5,13,11.9,13c5.5,0,8.5-2.4,10.3-8.1h6.1C618.6,358.2,612.9,362.8,603.9,362.8z M603.5,327.4c-6.1,0-10.4,4.4-11.3,11.6
		h22.2C613.9,331.7,609.8,327.4,603.5,327.4z"/>
</g>
</svg>
