<svg version="1.1" id="Layer_1" xmlns="http://www.w3.org/2000/svg" x="0" y="0" viewBox="0 0 587.5 803.1" xml:space="preserve"><style>.st2,.st3,.st4,.st6,.st7,.st8,.st9{fill:#1a1a1a;stroke:#000;stroke-width:.5;stroke-miterlimit:10}.st3,.st4,.st6,.st7,.st8,.st9{fill:#e2e2e2}.st4,.st6,.st7,.st8,.st9{fill:#fff}.st6,.st7,.st8,.st9{fill:#c10072}.st7,.st8,.st9{fill:none}.st8,.st9{fill:#eb058c}.st9{fill:#0077bf}.st10{enable-background:new}</style><path d="M0 523.5c16.3 132.6 101.8 208 164 216.7 160 22.5 260.2-73.9 315.7-133.2 78.9-84.3 111.5-219.3 107.5-281.8C578 182.6 484.3 91.1 484.3 91.1c-168.1-174.5-344-44.7-344-44.7-142.8 82.9-86.5 223.3-86.5 223.3s24 78.5 1.2 110.9S1.1 440.4 0 523.5z" fill="#fff" id="Layer_7"/><ellipse cx="258.7" cy="772.7" rx="161.6" ry="30.3" fill="#ccc"/><path class="st2" d="M351 335.2c23.4 11.6 53.2-24.3 53.2-24.3s15.5-8.8 14.5-23.3c0 0-6.3 12.4-26.9-3.5-10.2-8-15.3-20.8-23.1-31.1 0 0-14.5-18.3-36-23.7 0 0-16.7-6.5-36.5 4.6 0 0-18.3 9.7-18.9 29.7 0 0-3.4 25 20.8 44.5 4.9 3.8 9 8.6 12.1 13.9l36.6 10.5"/><path class="st3" d="M302.6 481.4s-109.9 227.7-128 268.1h-13.9L259 426.9s48.7-9.9 43.6 54.5z"/><path class="st3" d="M287.7 436.1s50.5 264.4 55.4 308.5l14.6 6.9-6.3-295.5s-5.5-20.8-11.2-27.7c-14.5-17.8-40.2-29.3-52.5 7.8z"/><path class="st2" d="M357.5 743.3c7.8 15.1 25.1 26 41.8 29.4H356l-7.7-12.3-3.1 12.3h-4.3l2.2-28.1 14.4-1.3zM176.8 743.3l1.6 29.4h-4.3l-3.1-12.3-7.7 12.3H120c16.7-3.5 34.9-14.3 42.6-29.4h14.2z"/><path class="st4" d="M381.9 282l16-65.6 10.4 3.3-7.5 70.7-58.2 71.2-14.8-26.4zM244.4 277.7l.1-67.6-11 .8-9.5 70.5 38.9 85.2 21.5-24.4z"/><path class="st4" d="M274.1 320.3s22 2.4 25.6-7-1.8-14.5-1.8-14.5l20.9-2.8s-2.5 18.3 10.2 23c.9.3 15.4 1.5 16.4 1.7 0 0-4.4 32-8.2 48.5-6.5 27.7-29.1 45.3-40.8 47.7-11.3 2.3-35.5-24.6-38.1-51.8-1.8-17.9 16.7-36.5 15.8-44.8zM244.5 210.1s9.8-13.6 5.8-13.1c-.9.1-3 1.7-3.4 1.4-1.4-1.4-1-4.9-3.1-10.4-2.5-6.6-11.6-3.3-10.2 22.8l10.9-.7z"/><path class="st4" d="M321.8 295.1c-5.4 4.4-12.3 8.3-19.1 6.8-5-1.1-9-5-11.9-9.3-2.3-3.4-4.1-7-5.4-10.9-1.5-3.2-1.3-4.3-1.9-7.8-.5-5.1 0-10.2 1.6-15.1 2.5-7.9 5.3-14.7 11.9-19.6 3.9-2.6 8.3-4.4 12.9-5.4 3.3-1.1 6.7-1.7 10.2-1.8 2.9.1 5.8.8 8.5 2 7.6 3.1 13.9 8.9 17.5 16.3 9.4 19.6-9.8 33-24.3 44.8z"/><path d="M284.7 283.2l-4.2-7.4 1.5-16.3 12.1-20.3 14.6-9.1 18.1 1.2 13.7 6.8 12.6 22.1-4.6 19.8-8.1 11.1s-12.9-12.4-10.1-40.4c0 0-26.5-8-26.1-15.2-.1 0-31.6 16.8-19.5 47.7z" fill="#1a1a1a"/><path class="st4" d="M313.2 254.9c7.4-3.8 9.7-.4 13.7 3M301.6 251.7c-2.4-2.6-6.1-2.2-9.6-1.5M308.3 266.9c-1.3-.7-2.5-1.4-3.7-2.3-.3-.2-.6-.4-.8-.7-.3-.8-.2-1.7.4-2.4l2.1-4M307.2 283c-1 .2-1.9.5-2.9.9-.3.2-.6.4-.9.5-1.3.4-2.7-.6-3.2-1.9-.4-1.3-.7-2.7-.9-4-.5-1.1-.8-2.1-1.1-3.3-.1-.3-.1-.6.1-.9.4-.5 1.1-.7 1.7-.6 4.3.5 8.5 1.9 12.2 4.1.1.1.3.2.4.3.5.7-1.1 2.3-1.6 2.9-1.2 1-2.4 1.6-3.8 2z"/><path class="st6" d="M300.5 285.3c1.2.7 2.6.9 4 .6 1.3-.4 2.6-1 3.7-1.8.9-.6 1.7-1.2 2.6-1.8.7-.5 1.3-1 1.8-1.7.5-.6.7-1.4.7-2.2-1.3 1.1-2.7 2.1-4.3 2.9-2.1 1.1-4.4 1.5-6.7 1.2-.8-.1-2-.8-2.6 0s0 2.3.8 2.8z"/><path class="st6" d="M297.5 272.9c2.8-.8 5.7-.6 8.4.5 2.6 1.2 5 2.7 7.3 4.5.1.1.3.3.3.4s-.2.2-.5.1c-2.7.2-5.2-1.2-7.8-2-2.1-.7-4.3-.9-6.5-.8-1.8.2-3.8-1.8-1.2-2.7z"/><ellipse transform="rotate(-66.952 318.614 258.854)" class="st2" cx="318.6" cy="258.9" rx="2.5" ry="2"/><path class="st7" d="M313.6 258.1s5-4.1 8.2 0 6 3.2 6 3.2"/><ellipse transform="rotate(-.888 296.975 255.347) scale(1.00002)" class="st2" cx="297" cy="255.3" rx="2" ry="2.5"/><path class="st7" d="M301.6 257.3s-2-6.1-6.9-4.4-6.8-.5-6.8-.5"/><path class="st8" d="M224 281.4l34.3 75.2s-1 7.4-.9 9.9c.5 7.6 4.6 21.1 6.8 29.9S259 427 259 427s34.2 21.6 81.2 1.4c0 0-11.1-22.9-8.4-29.7s3.1-12.4 10.2-27.2l58.8-81 7.5-70.7-10.5-3.3-16 65.6-24.3 24-13.4 12.7-11.2.8-17.2 13.2-22.1-1-4-12-8.7.9-22.4-19.7-14.3-23.1.1-67.5-10.9.7-9.4 70.3z"/><path class="st4" d="M397.9 216.4s-6.3-15.5-2.5-14.1c.8.3 2.5 2.4 3 2.1 1.7-1.1 2.1-4.6 5.5-9.4 4-5.8 12.1-.4 4.5 24.6l-10.5-3.2z"/><path class="st8" d="M265.4 372.8s8.8 4.9 17.1-1.4M303.3 371.4c7.2 5.4 16.7 6.7 25 3.2"/><path class="st9" d="M90.9 318.4l25.3-7.9c9.9-3.1 20.4 2.4 23.5 12.3l7.9 25.3c3.1 9.9-2.4 20.4-12.3 23.5l-25.3 7.9c-9.9 3.1-20.4-2.4-23.5-12.3l-7.9-25.3c-3.1-9.9 2.4-20.4 12.3-23.5z"/><path class="st4" d="M137.2 350l-8.6-4.5c-1.8-.9-3.9-.2-4.8 1.6l-2.3 4.3-.8-.2c-6.8-1.1-13.1-4.4-17.9-9.4l-.6-.5 1.5-2.9.8-1.4c.9-1.7.3-3.9-1.4-4.8l-8.6-4.5c-1.8-.9-3.9-.2-4.8 1.6l-1.3 2.4h.1c-.4 1-.6 2.1-.7 3.1s0 2 .2 2.9c1.4 7.4 6.7 13 18.3 19.1 16.1 8.4 25.7 4.4 26.1 4.2.9-.4 1.7-.9 2.5-1.5.8-.7 1.6-1.5 2.2-2.4h.1l1.3-2.4c1-1.7.4-3.8-1.3-4.7z"/><path d="M101.9 391.5l-4.2 1.3 3.4 11-1.6.5-3.4-11-4.2 1.3-.4-1.4 10-3.1.4 1.4z"/><g class="st10"><path d="M108.4 401.8c-2.7.8-4.8-.4-5.7-3.4-.9-2.9.2-5.4 2.7-6.2 3-.9 4.8 1.1 5.6 3.7l.1.2-6.8 2.1v.1c.6 1.9 2 2.7 3.8 2.2 1.3-.4 1.8-1.2 1.8-2.7l1.4-.5c.2 2.4-.8 3.9-2.9 4.5zm-2.7-8.3c-1.4.5-2.1 1.8-1.8 3.6l5.2-1.6c-.7-1.7-1.9-2.5-3.4-2zM115.4 399.3l-1.5.5-3.9-12.4 1.5-.5 3.9 12.4zM121.6 397.7c-2.7.8-4.8-.4-5.7-3.4-.9-2.9.2-5.4 2.7-6.2 3-.9 4.8 1.1 5.6 3.7l.1.2-6.8 2.1v.1c.6 1.9 2 2.7 3.8 2.2 1.3-.4 1.8-1.2 1.8-2.7l1.4-.5c.2 2.3-.8 3.8-2.9 4.5zm-2.7-8.3c-1.4.5-2.1 1.8-1.8 3.6l5.2-1.6c-.6-1.8-1.9-2.5-3.4-2zM131 394.7c-2.8.9-4.9-.6-5.7-3.3-.9-3 .2-5.4 2.8-6.2 2.2-.7 3.9 0 4.8 2l-1.5.5c-.7-1.2-1.7-1.6-2.9-1.2-1.7.5-2.4 2.2-1.7 4.4s2.1 3.2 3.8 2.7c1.3-.4 2-1.5 1.7-3.1l1.5-.5c.4 2.2-.5 4-2.8 4.7zM143.3 385.6c1 3.1-.1 5.3-2.8 6.2-2.8.9-5-.4-5.9-3.4s.2-5.3 2.9-6.2c2.8-.8 4.9.4 5.8 3.4zm-7.2 2.3c.7 2.2 2.2 3.2 4 2.6 1.7-.5 2.4-2.2 1.7-4.4-.7-2.1-2.2-3.2-3.9-2.6-1.8.5-2.4 2.2-1.8 4.4zM145.5 381.5c.4-1.3 1.1-2 2.5-2.5 1.2-.4 2.2-.2 3 .8.4-1.3 1.1-2.1 2.5-2.5 1.9-.6 3.2.2 3.8 2.1l2 6.3-1.5.5-1.8-5.7c-.4-1.3-.9-2.2-2.5-1.7-1.7.5-1.9 1.9-1.4 3.5l1.6 5.1-1.5.5-1.8-5.8c-.4-1.2-.9-2.1-2.3-1.6-2 .6-2 2.2-1.5 3.9l1.5 4.8-1.5.5-2.8-9 1.4-.4.3 1.2z"/></g><path class="st8" d="M465.7 238.2l6.5-25.7c2.5-10 12.7-16.1 22.8-13.6l25.7 6.5c10 2.5 16.1 12.7 13.6 22.8l-6.5 25.7c-2.5 10-12.7 16.1-22.8 13.6l-25.7-6.5c-10.1-2.6-16.2-12.8-13.6-22.8z"/><path class="st4" d="M522.2 224.9l-12.5-3.2.7-2.9c.5-1.9-.7-3.7-2.5-4.2l-7.4-1.9c-1.9-.5-3.7.7-4.2 2.5l-.7 2.9-12.5-3.1c-1.1-.3-2.3.4-2.6 1.5l-6.7 26.3c-.3 1.1.4 2.3 1.5 2.6l39 9.9c1.1.3 2.3-.4 2.6-1.5l6.7-26.3c.3-1.2-.3-2.3-1.4-2.6-.1 0-.1 0 0 0zm-22.4-8.7l7.1 1.8-.7 2.8-7.1-1.8.7-2.8zm-4.2 31.3c-6.9-1.7-11-8.7-9.3-15.6 1.7-6.9 8.7-11 15.6-9.3s11 8.7 9.3 15.6c-1.8 6.9-8.7 11.1-15.6 9.3z"/><path class="st4" d="M505.8 233.8l-3.3-.9.8-3.3c.2-.9-.3-1.8-1.2-2l-2.6-.7c-.9-.2-1.8.3-2 1.2l-.9 3.3-3.3-.8c-.9-.2-1.8.3-2 1.2l-.7 2.6c-.2.9.3 1.8 1.2 2l3.3.8-.8 3.3c-.2.9.3 1.8 1.2 2l2.6.7c.9.2 1.8-.3 2-1.2l.8-3.3 3.3.9c.9.2 1.8-.3 2-1.2l.7-2.6c.3-1-.2-1.9-1.1-2z"/><g class="st10"><path d="M457.6 275.2l-1.7-.4 1.5-5.9-6.7-1.7-1.5 5.9-1.7-.4 3.2-12.6 1.7.4-1.3 5.3 6.7 1.7 1.3-5.3 1.7.4-3.2 12.6zM463.9 277.1c-2.7-.7-3.9-2.9-3.1-5.8.7-3 3-4.5 5.5-3.9 3 .8 3.5 3.4 2.9 6.1l-.1.2-6.9-1.7v.1c-.5 1.9.3 3.4 2.1 3.8 1.3.3 2.2-.1 3-1.3l1.5.4c-1.1 1.9-2.7 2.7-4.9 2.1zm2.1-8.5c-1.5-.4-2.8.4-3.4 2.1l5.3 1.3c.3-1.7-.4-3-1.9-3.4zM477.8 280.3c-.4 0-.7 0-1.1-.1-.9-.2-1.2-.8-1-1.7-1.2.8-2.3 1-3.7.6-1.8-.5-2.7-1.7-2.3-3.3.4-1.6 1.7-2.3 4-2 2.2.3 3 .5 3.3-.7.2-1-.3-1.7-1.7-2-1.4-.4-2.3 0-2.7 1.3l-1.5-.4c.5-1.9 2.3-2.7 4.6-2.1 1.2.3 2.2.9 2.6 1.6.5.8.2 1.7 0 2.5-.3 1.4-.8 2.7-1.1 4.1-.2.7-.1.9.4 1.1h.4l-.2 1.1zm-3.4-5.3c-1.1-.1-2.7-.4-3 1.1-.2.9.3 1.7 1.4 2 1.4.4 3-.3 3.3-1.4l.4-1.7c-.6.2-1.4.1-2.1 0zM480.8 281l-1.5-.4 3.2-12.6 1.5.4-3.2 12.6zM489.1 274.7l-1.8-.5-1.3 5.3c-.2.8-.4 1.3.7 1.6.3.1.5.1.8.2l-.3 1.3c-.5-.1-.7-.1-1.2-.2-2.3-.6-1.9-1.7-1.4-3.7l1.2-4.9-1.5-.4.3-1.2 1.5.4.7-2.7 1.5.4-.7 2.7 1.8.5-.3 1.2zM492.2 275.6c.9-.8 2.1-1.1 3.4-.8 2.2.5 2.8 2 2.3 3.9l-1.6 6.3-1.5-.4 1.5-5.9c.3-1.3.2-2.3-1.5-2.7-1.9-.5-2.9.7-3.4 2.8l-1.2 4.6-1.5-.4 3.2-12.6 1.5.4-1.2 4.8zM502.4 286.8c-2.8-.7-3.9-3-3.2-5.8.8-3 3-4.5 5.6-3.9 2.2.6 3.3 2.1 3.1 4.2l-1.6-.4c.1-1.4-.6-2.3-1.8-2.6-1.7-.4-3.2.7-3.7 2.9-.6 2.2.1 3.8 1.8 4.3 1.4.3 2.5-.3 3.1-1.7l1.5.4c-.7 2.1-2.5 3.1-4.8 2.6zM516.2 289.9c-.3 0-.7 0-1.1-.1-.9-.2-1.2-.8-1-1.7-1.2.8-2.3 1-3.7.6-1.8-.5-2.7-1.7-2.3-3.3.4-1.6 1.7-2.3 4-2 2.2.3 3 .5 3.3-.7.2-1-.3-1.7-1.7-2-1.4-.4-2.3 0-2.7 1.3l-1.5-.4c.5-1.9 2.3-2.7 4.6-2.1 1.2.3 2.2.9 2.6 1.6.5.8.2 1.7 0 2.5-.3 1.4-.8 2.7-1.1 4.1-.2.7-.1.9.4 1.1h.4l-.2 1.1zm-3.4-5.3c-1.1-.1-2.7-.4-3 1.1-.2.9.3 1.7 1.4 2 1.4.4 3-.3 3.3-1.4l.4-1.7c-.6.3-1.4.1-2.1 0z"/></g><path d="M524.4 283.7c-.2-.1-.2-.1-.4-.1-2.5-.6-3.4 1.2-3.9 3.2l-1 3.9-1.5-.4 2.3-9.1 1.4.4-.5 2c1-1.4 2.3-1.7 3.9-1.3l-.3 1.4zM527 293c-2.7-.7-3.9-2.9-3.1-5.8.7-3 3-4.5 5.5-3.9 3 .8 3.5 3.4 2.9 6.1l-.1.2-6.9-1.7v.1c-.5 1.9.3 3.4 2.1 3.8 1.3.3 2.2-.1 3-1.3l1.5.4c-1.1 1.9-2.7 2.6-4.9 2.1zm2-8.5c-1.5-.4-2.8.4-3.4 2.1l5.3 1.3c.4-1.7-.4-3-1.9-3.4z"/><path class="st8" d="M127.3 206.4l25.7-6.3c10.1-2.5 20.2 3.7 22.7 13.7l6.3 25.7c2.5 10.1-3.7 20.2-13.7 22.7l-25.7 6.3c-10.1 2.5-20.2-3.7-22.7-13.7l-6.3-25.7c-2.5-10.1 3.7-20.3 13.7-22.7z"/><path class="st4" d="M149.9 236l1.4 6.2c1.9-.6 3.6-1.9 3.1-4s-2.8-2.3-4.5-2.2zM142.7 229.8c.4 1.6 1.7 2.2 4.2 2.1l-1.3-5.6c-2.1.6-3.2 2.2-2.9 3.5z"/><path class="st4" d="M144 215.5c-10.4 2.4-16.9 12.9-14.5 23.3 2.4 10.4 12.9 16.9 23.3 14.5 10.4-2.4 16.9-12.9 14.5-23.3-2.4-10.4-12.8-16.9-23.3-14.5zm8 29.8l.4 1.9c.3.5.1 1.1-.4 1.4-.5.3-1.1.1-1.4-.4-.1-.2-.1-.4-.1-.5l-.4-1.9c-5.3 1.1-8.7-1.4-9.2-3.9-.3-1 .2-2 1.1-2.4.1 0 .2-.1.3-.1 3.5-.8 1.8 4.1 7 3.1l-1.5-6.6c-4.8.2-8.1-1.1-8.9-4.6-1-4.2 2-7.3 5.9-8.3l-.4-1.7c-.3-.5-.1-1.1.4-1.4s1.1-.1 1.4.4c.1.2.1.4.1.5l.4 1.7c2.4-.5 7.8-.1 8.5 2.9.3 1-.3 2.1-1.4 2.4h-.1c-2 .5-2.8-2.9-6.3-2.1l1.4 5.9c4.3-.1 8.3.3 9.4 5.1 1.1 4.4-1.6 7.2-6.2 8.6z"/><g class="st10"><path d="M135.8 277.4l-6.6 1.6 1 3.9 5.9-1.4.3 1.4-5.9 1.4 1.4 5.8-1.7.4-3.1-12.6 8.3-2 .4 1.5zM139.1 277l-1.5.4-.5-1.8 1.5-.4.5 1.8zm2.7 10.8l-1.5.4-2.3-9.2 1.5-.4 2.3 9.2zM143.6 279.1c.5-1.3 1.3-2.1 2.7-2.4 2.2-.5 3.4.5 3.9 2.6l1.5 6.1-1.5.4-1.3-5.4c-.4-1.5-.7-2.7-2.6-2.2-2 .5-2.2 2.1-1.8 3.9l1.2 4.8-1.5.4-2.2-9.2 1.4-.3.2 1.3z"/></g><path d="M160.3 271.4l-4.2 1 2.7 11.2-1.7.4-2.7-11.2-4.2 1-.4-1.5 10.2-2.5.3 1.6z"/><g class="st10"><path d="M166.1 282.1c-2.7.7-4.8-.7-5.5-3.7s.5-5.4 3-6c3-.7 4.7 1.4 5.4 4l.1.2-6.9 1.7v.1c.5 2 1.8 2.9 3.6 2.4 1.3-.3 1.9-1.1 2-2.6l1.5-.4c.1 2.4-1 3.8-3.2 4.3zm-2.1-8.4c-1.5.4-2.2 1.7-2 3.5l5.3-1.3c-.6-1.8-1.8-2.6-3.3-2.2zM175.7 279.7c-2.8.7-4.8-.9-5.5-3.7-.8-3.1.5-5.4 3.2-6.1 2.2-.5 3.9.3 4.7 2.3l-1.6.4c-.6-1.2-1.6-1.7-2.8-1.4-1.7.4-2.5 2.1-2 4.3.5 2.2 1.9 3.3 3.6 2.9 1.4-.3 2.1-1.4 1.9-3l1.5-.4c.4 2.4-.7 4.2-3 4.7zM180.9 269.9c.4-1.2 1.3-1.9 2.6-2.3 2.2-.5 3.4.4 3.9 2.4l1.5 6.3-1.5.4-1.5-5.9c-.3-1.3-.9-2.1-2.5-1.7-1.9.5-2.2 2-1.7 4.1l1.1 4.7-1.5.4-3.1-12.6 1.5-.4 1.2 4.6z"/></g><path class="st8" d="M287.5 155l.3-26.5c.1-10.4 8.6-18.7 19-18.6l26.5.3c10.4.1 18.7 8.6 18.6 19l-.3 26.5c-.1 10.4-8.6 18.7-19 18.6L306 174c-10.3-.1-18.6-8.6-18.5-19z"/><path class="st4" d="M339.9 140.4c-.6-.3-1.3-.3-1.9.1l-10 6.7V142c0-1-.8-1.9-1.9-1.9-.4 0-.7.1-1 .3l-10.3 6.8V133c0-.4-.3-.7-.7-.7h-12c-.4 0-.7.3-.7.7v29c0 .4.3.7.7.7h38.1c.4 0 .7-.3.7-.7v-20c-.1-.7-.4-1.3-1-1.6zm-16.3 13.7c0 .3-.2.5-.5.5h-3.4c-.3 0-.5-.2-.5-.5v-3.4c0-.3.2-.5.5-.5h3.4c.3 0 .5.2.5.5v3.4zm12.7 0c0 .3-.2.5-.5.5h-3.4c-.3 0-.5-.2-.5-.5v-3.4c0-.3.2-.5.5-.5h3.4c.3 0 .5.2.5.5v3.4zM302.1 129.5h12c.3 0 .6-.2.7-.6v-5.6c0-1-.8-1.8-1.8-1.9h-9.7c-1 0-1.9.8-1.9 1.9v5.5c0 .5.3.7.7.7z"/><g class="st10"><path d="M268.8 180.6l4.1 11.1 4.1-11h2.4l-.1 13h-1.6l.1-10.9-4.2 10.8h-1.5l-4-10.9-.1 10.9h-1.6l.1-13h2.3zM290.3 193.8c-.3.1-.7.2-1.1.2-.9 0-1.3-.5-1.4-1.4-.9 1-2 1.5-3.4 1.5-1.9 0-3-1.1-3-2.7 0-1.7 1.1-2.7 3.4-2.9 2.3-.3 3-.2 3-1.5 0-1-.7-1.6-2.1-1.6s-2.2.5-2.4 1.9h-1.5c.1-2 1.5-3.2 4-3.2 1.3 0 2.3.4 3 .9.7.6.6 1.6.6 2.5 0 1.4-.1 2.8-.1 4.2 0 .7.2.9.6.9.1 0 .2 0 .4-.1v1.3zm-4.5-4.4c-1.1.1-2.7.2-2.7 1.8 0 1 .7 1.6 1.9 1.6 1.5 0 2.9-1 2.9-2.2v-1.7c-.6.4-1.5.4-2.1.5zM293.3 185.9c.8-1.1 1.8-1.7 3.2-1.7 2.3 0 3.1 1.3 3.1 3.4l-.1 6.3h-1.6l.1-5.6c0-1.5 0-2.8-2-2.8s-2.7 1.5-2.7 3.4v4.9h-1.6l.1-9.4h1.5v1.5zM309.7 194h-1.4v-1.5c-.8 1.2-1.9 1.7-3.3 1.7-2 0-3.1-1.1-3.1-3.2l.1-6.5h1.6l-.1 6.1c0 1.4.4 2.3 2 2.3 2 0 2.8-1.4 2.8-3.4v-4.9h1.6l-.2 9.4zM316.5 182.4c-.2 0-.5-.1-.9-.1-1 0-1.2.2-1.2 1.2v1.1h1.8v1.3h-1.8l-.1 8.2h-1.6l.1-8.2h-1.6v-1.3h1.6v-1.3c0-1.8 1-2.4 2.6-2.4.4 0 .5 0 1 .1l.1 1.4zM325.8 194.1c-.3.1-.7.2-1.1.2-.9 0-1.3-.5-1.4-1.4-.9 1-2 1.5-3.4 1.5-1.9 0-3-1.1-3-2.7 0-1.7 1.1-2.7 3.4-2.9 2.3-.3 3-.2 3-1.5 0-1-.7-1.6-2.1-1.6s-2.2.5-2.4 1.9h-1.5c.1-2 1.5-3.2 4-3.2 1.3 0 2.3.4 3 .9.7.6.6 1.6.6 2.5 0 1.4-.1 2.8-.1 4.2 0 .7.2.9.6.9.1 0 .2 0 .4-.1v1.3zm-4.5-4.3c-1.1.1-2.7.2-2.7 1.8 0 1 .7 1.6 1.9 1.6 1.5 0 2.9-1 2.9-2.2v-1.7c-.6.4-1.4.4-2.1.5zM331.3 194.5c-2.9 0-4.5-2-4.4-4.9 0-3.1 1.8-5.1 4.6-5.1 2.3 0 3.7 1.2 4 3.4h-1.6c-.3-1.3-1.1-2.1-2.4-2.1-1.8 0-2.9 1.4-3 3.7 0 2.3 1 3.7 2.8 3.7 1.4 0 2.3-.8 2.6-2.4h1.6c-.3 2.3-1.8 3.7-4.2 3.7zM341.2 186.2h-1.9l-.1 5.5c0 .9-.1 1.4 1 1.4h.8v1.3c-.5.1-.7.1-1.2.1-2.4 0-2.2-1.2-2.2-3.3v-5H336v-1.3h1.6v-2.8h1.6v2.8h1.9l.1 1.3zM350.7 194.4h-1.4v-1.5c-.8 1.2-1.9 1.7-3.3 1.7-2 0-3.1-1.1-3.1-3.2l.1-6.5h1.6l-.1 6.1c0 1.4.4 2.3 2 2.3 2 0 2.8-1.4 2.8-3.4V185h1.6l-.2 9.4zM358 186.4h-.4c-2.6 0-3 1.9-3.1 4v4h-1.6l.1-9.4h1.5v2c.7-1.6 1.8-2.2 3.5-2.2v1.6zM360.8 194.5h-1.6l.1-9.4h1.6l-.1 9.4zm.1-11.1h-1.6v-1.9h1.6v1.9zM364.7 186.6c.8-1.1 1.8-1.7 3.2-1.7 2.3 0 3.1 1.3 3.1 3.4l-.1 6.3h-1.6l.1-5.6c0-1.5 0-2.8-2-2.8s-2.7 1.5-2.7 3.4v4.9h-1.6l.1-9.4h1.5v1.5zM381.5 193.7c0 1.6-.2 2.4-.6 3.1-.7 1.1-2 1.7-3.7 1.7-1.9 0-3.7-.7-3.9-2.8h1.6c.2 1.1 1 1.6 2.4 1.6 1.9 0 2.8-.9 2.8-3.1V193c-.6 1.2-1.6 1.7-3 1.7-2.5 0-4.1-1.9-4.1-4.8 0-2.6 1.5-5 4.3-5 1.3 0 2.4.6 3 1.7v-1.4h1.4l-.2 8.5zm-7-3.7c0 2.1 1.1 3.4 2.7 3.5 1.7 0 2.8-1.4 2.8-3.7 0-2.1-1-3.4-2.8-3.4-1.6-.1-2.6 1.3-2.7 3.6z"/></g><path class="st9" d="M475 344.7l10-24.6c3.9-9.6 14.9-14.2 24.5-10.3l24.6 10c9.6 3.9 14.2 14.9 10.3 24.5l-10 24.6c-3.9 9.6-14.9 14.2-24.5 10.3l-24.6-10c-9.6-4-14.2-14.9-10.3-24.5z"/><path class="st4" d="M532.9 354.1c-1-1.5-2.5-2.7-4.2-3.3-3-1.2-6-1-7.2.4l-.2-.1c.1-1.9-1.9-4.2-4.9-5.4-1.7-.7-3.5-1-5.3-.6l-5.7 14c-1.5 3.5-5.5 5.1-9 3.6-3.4-1.5-5-5.3-3.7-8.7.3-.8 1.2-1.1 2-.8s1.1 1.2.8 2c-.8 2 .1 4.2 2.1 5s4.2-.1 5-2.1l5.7-14c-1-1.5-2.5-2.7-4.2-3.3-3-1.2-6-1-7.2.4l-.2-.1c.1-1.9-1.9-4.2-4.9-5.4-1.7-.7-3.5-1-5.3-.6 5-9.6 17.6-13.7 29.5-9.5l.4-1c.3-.8 1.2-1.1 2-.8.8.3 1.1 1.2.8 2l-.4 1c11.1 5.3 17.3 17 14.1 27.3z"/><g class="st10"><path d="M456.4 375.2l-1.6-.6 4.9-12.1 1.6.6-4.9 12.1zM463.2 369.4c1.2-.8 2.3-.9 3.6-.4 2.1.9 2.4 2.4 1.6 4.4l-2.4 5.8-1.4-.6 2.1-5.1c.6-1.4 1-2.6-.8-3.3-1.9-.8-3.1.4-3.8 2.1l-1.9 4.6-1.4-.6 3.6-8.7 1.4.6-.6 1.2zM475.9 375.9c.4-1.2-.2-2-1.5-2.5-1.1-.4-2-.3-2.3.5-.4 1 .7 1.6 1.7 2.3 1.3.9 3.1 2.1 2.3 4-.7 1.7-2.6 2.2-4.8 1.3-2.4-1-3.2-2.6-2.5-4.6l1.4.6c-.5 1.4.2 2.2 1.6 2.8 1.3.5 2.4.3 2.7-.6.4-1-.5-1.6-1.6-2.4-1.4-1-3.3-2-2.5-4 .6-1.6 2.4-2 4.4-1.2s3.1 2.4 2.3 4.2l-1.2-.4zM484 386.5l-1.3-.5.6-1.4c-1.2.8-2.4.9-3.7.4-1.8-.7-2.5-2.2-1.7-4.1l2.4-6 1.4.6-2.3 5.6c-.5 1.3-.5 2.2 1 2.8 1.9.8 3.1-.3 3.8-2.1l1.9-4.6 1.4.6-3.5 8.7zM493.8 381.8c-.1-.1-.2-.1-.4-.2-2.4-1-3.5.7-4.3 2.6l-1.5 3.7-1.4-.6 3.6-8.7 1.4.6-.8 1.9c1.2-1.2 2.5-1.4 4.1-.8l-.7 1.5zM499.6 392.8c-.4 0-.7-.1-1.1-.2-.8-.3-1.1-1-.7-1.8-1.3.6-2.4.7-3.7.1-1.7-.7-2.4-2.1-1.8-3.6.6-1.6 2-2.1 4.2-1.5s2.9.9 3.4-.2c.4-.9-.1-1.7-1.4-2.2s-2.2-.3-2.9.9l-1.4-.6c.8-1.8 2.6-2.4 4.9-1.5 1.2.5 2 1.2 2.4 2s0 1.7-.3 2.5c-.5 1.3-1.1 2.6-1.7 3.9-.3.6-.2.9.2 1.1.1.1.2.1.4.1l-.5 1zm-2.7-5.7c-1.1-.3-2.6-.8-3.1.7-.4.9.1 1.7 1.2 2.2 1.4.6 3 .2 3.5-1l.6-1.6c-.7.1-1.5-.2-2.2-.3zM505.3 386.5c1.2-.8 2.3-.9 3.6-.4 2.1.9 2.4 2.4 1.6 4.4l-2.4 5.8-1.4-.6 2.1-5.1c.6-1.4 1-2.6-.8-3.3-1.9-.8-3.1.4-3.8 2.1l-1.9 4.6-1.4-.6 3.6-8.7 1.4.6-.6 1.2zM513.9 398.9c-2.7-1.1-3.4-3.5-2.3-6.2 1.2-2.9 3.6-4.1 6.1-3 2.1.9 3 2.5 2.4 4.6l-1.5-.6c.2-1.3-.2-2.3-1.4-2.8-1.7-.7-3.2.2-4.1 2.3-.9 2.1-.4 3.8 1.2 4.5 1.3.5 2.5.1 3.3-1.3l1.5.6c-1.1 2-3 2.8-5.2 1.9zM522.9 402.7c-2.6-1-3.4-3.4-2.3-6.2 1.2-2.8 3.6-4.1 6-3.1 2.9 1.2 3 3.9 2 6.4l-.1.2-6.6-2.7-.1.1c-.8 1.9-.2 3.4 1.5 4.1 1.3.5 2.2.3 3.1-.9l1.4.6c-1.1 1.8-2.8 2.3-4.9 1.5zm3.2-8.2c-1.4-.6-2.8 0-3.7 1.6l5.1 2.1c.6-1.7.1-3.1-1.4-3.7z"/></g><path class="st9" d="M414.9 127.5l8.1-25.3c3.2-9.9 13.7-15.3 23.6-12.2l25.3 8.1c9.9 3.2 15.3 13.7 12.2 23.6L476 147c-3.2 9.9-13.7 15.3-23.6 12.2L427 151c-9.8-3.1-15.3-13.7-12.1-23.5z"/><path class="st4" d="M471.9 129.7l-2.5-6.3-2.4-12.9c-.2-1.2-1.1-2.2-2.2-2.5l-18-5.8c-1.1-.4-2.4-.1-3.3.8l-9.4 9.1-5.7 3.6c-.9.8-1.6 1.8-2 2.9l-4.6 14.2c-.4 1.3.3 2.7 1.6 3.2l3.5 1.1c1.3.4 2.7-.3 3.2-1.6l1.5-4.5 28.7 9.2-1.5 4.5c-.4 1.3.3 2.7 1.6 3.2l3.5 1.1c1.3.4 2.7-.3 3.1-1.6l4.6-14.2c.5-1.1.5-2.4.3-3.5zm-32.8-18.9l5.4-5.6c.7-.8 1.8-1 2.8-.7l15.7 5.1c1 .3 1.7 1.2 1.9 2.2l1.1 7.7c0 .3-.1.6-.3.8-.2.2-.6.3-.9.2l-11.1-3.6 7.6-3.7c.2-.1.3-.4.2-.6-.1-.2-.4-.3-.6-.2l-8.5 4.1-12.9-4.1c-.3-.1-.5-.3-.6-.6-.1-.4 0-.7.2-1zm-3.6 15.3l-5.2-1.7c-.9-.3-1.5-1.3-1.2-2.3.3-.9 1.1-2.9 2.1-2.5 1.4.6 4.1 2.3 5.4 3 .9.3 1.4 1.3 1.2 2.2-.4 1.1-1.4 1.6-2.3 1.3zm18.6 5.3c-.2.3-.6.5-1 .3l-10.6-3.4c-.4-.1-.6-.5-.6-.9 0-1.2 0-2.4.2-3.6.2-.6.8-.9 1.4-.7l11.9 3.8c.6.2.9.8.7 1.4-.6 1.1-1.3 2.1-2 3.1zm11.2 4.3L460 134c-.9-.3-1.5-1.3-1.2-2.3.3-.9 1.1-1.3 2.3-1.1 1.5.2 4.6.4 6.2.7 1 .2.5 2.3.2 3.2-.3 1-1.3 1.5-2.2 1.2-.1 0-.1 0 0 0z"/><g class="st10"><path d="M405 161.4l-1.8-.5-.2-4.2-5.2-1.6-2.6 3.4-1.8-.5 8.6-11 1.9.6 1.1 13.8zm-2.6-12.6l-3.9 5.1 4.3 1.3-.4-6.4zM413.4 163.9l-1.4-.4.4-1.4c-1.1.9-2.3 1.1-3.6.7-1.9-.6-2.7-2-2.1-4l1.8-6.2 1.5.4-1.7 5.8c-.4 1.3-.3 2.3 1.2 2.7 2 .6 3.1-.6 3.6-2.5l1.4-4.7 1.5.4-2.6 9.2zM421.9 157.9l-1.8-.5-1.6 5.3c-.2.8-.4 1.3.6 1.6.3.1.5.1.8.2l-.4 1.3c-.5-.1-.7-.1-1.2-.3-2.3-.7-1.8-1.8-1.2-3.7l1.4-4.8-1.5-.5.4-1.2 1.5.5.8-2.7 1.5.4-.8 2.7 1.8.5-.3 1.2zM430.8 164.1c-.9 3.1-3 4.4-5.8 3.6-2.8-.8-3.9-3.1-3-6.1s3.1-4.3 5.9-3.5 3.8 3 2.9 6zm-7.2-2.1c-.7 2.2 0 3.9 1.8 4.4s3.2-.5 3.9-2.7c.6-2.2 0-3.8-1.8-4.4-1.7-.5-3.2.6-3.9 2.7zM435 161.9c1.1-.8 2.1-1.1 3.4-.7 1.2.4 1.9 1.1 2 2.3 1.1-.8 2.1-1.1 3.5-.7 1.9.6 2.5 2 2 3.8L444 173l-1.5-.4 1.7-5.7c.4-1.3.5-2.3-1.1-2.8-1.7-.5-2.7.5-3.2 2.1l-1.5 5.1-1.5-.4 1.7-5.8c.4-1.2.4-2.2-1-2.6-2-.6-2.9.7-3.4 2.4l-1.4 4.8-1.5-.4 2.7-9 1.4.4-.4 1.2zM455.9 171.5c-.9 3.1-3 4.4-5.8 3.6-2.8-.8-3.9-3.1-3-6.1s3.1-4.3 5.9-3.5c2.7.8 3.7 3 2.9 6zm-7.3-2.1c-.7 2.2 0 3.9 1.8 4.4s3.2-.5 3.9-2.7c.6-2.2 0-3.8-1.8-4.4-1.7-.5-3.2.6-3.9 2.7zM462.5 170l-1.8-.5-1.6 5.3c-.2.8-.4 1.3.6 1.6.3.1.5.1.8.2l-.4 1.3c-.5-.1-.7-.1-1.2-.3-2.3-.7-1.8-1.8-1.2-3.7l1.4-4.8-1.5-.5.4-1.2 1.5.5.8-2.7 1.5.4-.8 2.7 1.8.5-.3 1.2zM463.4 178.7l-1.5-.4 2.7-9 1.5.4-2.7 9zm3.1-10.6l-1.5-.4.5-1.8 1.5.4-.5 1.8zM469.1 170.6l.3 8.3 4.7-6.8 1.6.5-6 8.1-1.6-.5-.7-10 1.7.4zM478.1 183.4c-2.7-.8-3.7-3-2.9-6 .9-2.9 3.2-4.4 5.7-3.7 3 .9 3.4 3.6 2.6 6.2l-.1.2-6.8-2v.1c-.6 1.9.2 3.4 1.9 3.9 1.3.4 2.2 0 3-1.2l1.5.4c-1.1 2.1-2.7 2.8-4.9 2.1zm2.4-8.4c-1.5-.4-2.8.3-3.5 2l5.3 1.6c.4-1.8-.3-3.1-1.8-3.6z"/></g><path class="st9" d="M166.5 94.3l25.7-6.5c10-2.5 20.2 3.6 22.8 13.6l6.5 25.7c2.5 10-3.6 20.2-13.6 22.8l-25.7 6.5c-10 2.5-20.2-3.6-22.8-13.6l-6.5-25.7c-2.6-10.1 3.5-20.3 13.6-22.8z"/><path class="st4" d="M212.9 133.4l-7.6-13.3c-.2-.4-.7-.6-1.2-.5l-1.7.4 1.8 7.3c.4 1.7-.6 3.4-2.3 3.8l-23.2 5.7c-1.7.4-3.4-.6-3.9-2.3l-1.8-7.3-1.7.4c-.5.1-.8.5-.8 1l-.6 15.3c0 .6.4 1.1 1 1.1h.3l41.1-10.1c.3-.1.6-.3.7-.6.1-.2.1-.6-.1-.9zM171.4 119.7l11.4-15.9 17.4 8.8c.3.2.7.2 1.1.1.4-.1.8-.4 1-.8.4-.8.1-1.7-.7-2.1l-18.6-9.5c-.7-.3-1.5-.1-2 .5l-12.1 17c-.5.7-.3 1.7.4 2.2.6.5 1.6.3 2.1-.3z"/><path class="st4" d="M182.6 105.9l-9.1 12.9c-.2.2-.2.6-.2.9l3.6 14.5c.1.6.7.9 1.3.8l23.2-5.7c.6-.1.9-.7.8-1.3l-3.6-14.5c-.1-.3-.3-.5-.6-.7l-14.1-7.2c-.5-.3-1-.2-1.3.3zm5 21.8c.1.6-.2 1.1-.8 1.3l-3.6.9c-.6.1-1.1-.2-1.3-.8l-.9-3.6c-.1-.6.2-1.1.8-1.3l3.6-.9c.6-.1 1.1.2 1.3.8l.9 3.6zm-1.9-7.7c.1.6-.2 1.1-.8 1.3l-3.6.9c-.6.1-1.1-.2-1.3-.8l-.9-3.6c-.1-.6.2-1.1.8-1.3l3.6-.9c.6-.1 1.1.2 1.3.8l.9 3.6zm1.1-4.1c-.1-.6.2-1.1.8-1.3l3.6-.9c.6-.1 1.1.2 1.3.8l.9 3.6c.1.6-.2 1.1-.8 1.3l-3.6.9c-.6.1-1.1-.2-1.3-.8l-.9-3.6zm1.9 7.7c-.1-.6.2-1.1.8-1.3l3.6-.9c.6-.1 1.1.2 1.3.8l.9 3.6c.1.6-.2 1.1-.8 1.3l-3.6.9c-.6.1-1.1-.2-1.3-.8l-.9-3.6z"/><g class="st10"><path d="M158.8 178.5c-3.6.9-6.5-1.1-7.5-5.1-.9-3.6.4-7.1 4.3-8.1 2.5-.6 5.3.1 6.3 2.8l-1.7.4c-.8-1.6-2.4-2.2-4.3-1.7-3 .8-3.6 3.6-3 6.2.8 3.2 2.9 4.8 5.5 4.1 2.1-.5 3.1-2.1 2.8-4.6l1.7-.4c.6 3.3-1 5.6-4.1 6.4zM173.2 169.6c.8 3.1-.4 5.3-3.2 6s-4.9-.7-5.7-3.7.5-5.3 3.3-6 4.9.7 5.6 3.7zm-7.3 1.9c.6 2.3 2 3.3 3.8 2.8 1.8-.4 2.5-2.1 1.9-4.3-.5-2.2-2-3.3-3.8-2.8-1.6.5-2.4 2.2-1.9 4.3zM175.7 165.7c.5-1.3 1.3-2.1 2.7-2.5 2.2-.6 3.4.5 3.9 2.5l1.5 6.1-1.5.4-1.4-5.4c-.4-1.5-.7-2.7-2.6-2.2-2 .5-2.2 2.1-1.8 4l1.2 4.8-1.5.4-2.3-9.1 1.4-.4.4 1.4zM189.7 163.5c-.4-1.2-1.4-1.4-2.7-1.1-1.2.3-1.7.9-1.5 1.7.3 1 1.5.9 2.8.9 1.6 0 3.7-.1 4.2 1.9.4 1.8-.8 3.3-3.1 3.9-2.5.6-4.1-.2-4.7-2.2l1.5-.4c.4 1.4 1.5 1.7 3 1.3 1.3-.3 2.1-1.2 1.9-2.1-.3-1-1.3-1-2.7-1-1.7 0-3.8.3-4.4-1.8-.4-1.6.7-3 2.8-3.6 2.1-.5 3.9.1 4.4 2l-1.5.5zM196.8 160.2l-1.8.5 1.3 5.3c.2.8.3 1.4 1.3 1.1.3-.1.5-.1.8-.3l.3 1.3c-.5.2-.7.2-1.1.4-2.3.6-2.5-.6-3-2.6l-1.2-4.9-1.5.4-.3-1.2 1.5-.4-.7-2.7 1.5-.4.7 2.7 1.8-.5.4 1.3zM203.3 158.7c-.2 0-.2 0-.4.1-2.5.6-2.4 2.6-1.9 4.7l1 3.9-1.5.4-2.3-9.1 1.4-.4.5 2c.3-1.7 1.2-2.6 2.8-3l.4 1.4zM214 164.3l-1.4.4-.4-1.4c-.5 1.4-1.4 2.1-2.7 2.5-1.9.5-3.3-.3-3.8-2.3l-1.6-6.3 1.5-.4 1.5 5.9c.3 1.3.9 2.1 2.5 1.7 2-.5 2.3-2.1 1.8-4l-1.2-4.8 1.5-.4 2.3 9.1zM220.2 163c-2.8.7-4.8-.8-5.5-3.6-.8-3 .5-5.4 3.1-6.1 2.2-.6 3.9.3 4.7 2.3l-1.5.4c-.6-1.2-1.6-1.7-2.8-1.4-1.7.4-2.5 2.1-1.9 4.3s1.9 3.3 3.6 2.9c1.4-.3 2.1-1.4 1.9-3l1.5-.4c.3 2.3-.8 4.1-3.1 4.6zM227.7 152.5l-1.8.5 1.3 5.3c.2.8.3 1.4 1.3 1.1.3-.1.5-.1.8-.3l.3 1.3c-.5.2-.7.2-1.1.4-2.3.6-2.5-.6-3-2.6l-1.2-4.9-1.5.4-.3-1.2 1.5-.4-.7-2.7 1.5-.4.7 2.7 1.8-.5.4 1.3zM230.2 148.8l-1.5.4-.5-1.8 1.5-.4.5 1.8zm2.8 10.7l-1.5.4-2.3-9.1 1.5-.4 2.3 9.1zM242.5 152.2c.8 3.1-.4 5.3-3.2 6s-4.9-.7-5.7-3.7.5-5.3 3.3-6c2.8-.7 4.9.7 5.6 3.7zm-7.3 1.9c.6 2.3 2 3.3 3.8 2.8 1.8-.4 2.5-2.1 1.9-4.3-.5-2.2-2-3.3-3.8-2.8-1.7.5-2.4 2.1-1.9 4.3zM244.9 148.3c.5-1.3 1.3-2.1 2.7-2.5 2.2-.6 3.4.5 3.9 2.5l1.5 6.1-1.5.4-1.4-5.4c-.4-1.5-.7-2.7-2.6-2.2-2 .5-2.2 2.1-1.8 4l1.2 4.8-1.5.4-2.3-9.1 1.4-.4.4 1.4z"/></g></svg>