<svg version="1.1" id="Layer_1" xmlns="http://www.w3.org/2000/svg" x="0" y="0" viewBox="0 0 832.9 794.1" xml:space="preserve"><style>.st0{fill:#fff}.st2,.st3,.st4{fill:#fff;stroke:#000;stroke-width:.5;stroke-miterlimit:10}.st3,.st4{fill:#727272}.st4{fill:#ffe600}.st5{fill:#1a1a1a}.st6{fill:#ccc}.st7{fill:#0077bf;stroke-miterlimit:10}.st10,.st7,.st8,.st9{stroke:#000;stroke-width:.5}.st8{stroke-linejoin:round;fill:#eb058c}.st10,.st9{fill:#1a1a1a;stroke-miterlimit:10}.st10{fill:none}.st12{enable-background:new}</style><path class="st0" d="M177.6 356.7c84.4-20.3 96.1-129.3 111.5-179.9 19.1-62.9 66.7-148.4 207.6-161.4 0 0 232.4-35.1 311.9 245.1 0 0 44.8 123.2-23.5 306.5 0 0-72.2 146-204.4 188.6 0 0-227.7 76.9-418.2-17.2 0 0-223.9-85.3-121.4-290 16.3-32.4 67.2-75 136.5-91.7z" id="Layer_6"/><path d="M560.4 142.2s7.8-13.8 10-13.3-.6 7.2-.6 7.2 21.6 5 22.2 7.2-27.1 5.5-27.1 5.5l-4.5-6.6z" fill="#e29721"/><path class="st2" d="M501.5 162.6s41.4 14 62-31.2l4.2-.4s-3.5 52.1-62.7 48.6c-.6 0-1.1-2.9-1.1-2.9s-2.4-.1-2.4-14.1z"/><path class="st3" d="M545.7 382.8c-5.5-21.1-37.4-143.9-37.4-143.9l-37.1-1.9c14.7 42.4 60.8 141.9 63.1 143.5l11.4 2.3z"/><path class="st3" d="M462.7 233l-39.3 151.8s-12.5 2.4-13.3 4.7 21.9 3.1 24.2 1.6 51.5-112.4 62.5-150.7l-34.1-7.4z"/><path class="st4" d="M461.4 164.1s-.6 4.3-3.9 14.1c2.9 20.3 3.9 50.4 5.2 61.4 0 0 23 9.6 45.6-.6 0 0 2.7-36.9 2.1-74 0 0-10.3-6.6-34-4.1-4.6.4-9.5 2.1-15 3.2z"/><path class="st2" d="M478.8 150.3l-1 10.5s15.7 8.9 15.7.6c0-1.8-2.5-12.9-2.5-12.9l-12.2 1.8z"/><path class="st2" d="M500.9 134.2c0 11.8-.6 20.5-10.6 21.4-11.8 1.1-21.4-9.6-21.4-21.4s-6.2-21.4 21.4-21.4c11.9 0 10.6 9.6 10.6 21.4z"/><path class="st5" d="M472.4 145.6s-7.6-5.9-9.4-13.5c-1.8-7.6 4.1-10.6 4.1-10.6s-4.7-5.9 10.6-12.3 27.4 11.1 27.4 11.1c-8.2 12.3-26.8.1-26.8.1l-2.3 2.9c3.4 3.6 4.4 9 2.4 13.6 0 0-3.1-2.7-4.3-1s.5 6 .5 6l-2.2 3.7z"/><path class="st6" d="M283.1 719.8c0 4.6-34.2 8.3-76.5 8.3s-76.5-3.7-76.5-8.3 34.3-8.3 76.5-8.3 76.5 3.7 76.5 8.3z"/><ellipse class="st6" cx="481.9" cy="717.5" rx="193.5" ry="9.7"/><path class="st7" d="M608.7 597.9c0-9.4-5.7-17.6-14.3-22.6H668v-75.6c-4.8 9.7-13.5 16.3-23.6 16.3-15.1 0-27.4-14.8-27.4-33.1s12.3-33.1 27.4-33.1c10.1 0 18.8 6.5 23.6 16.3v-75.6h-73.6c8.7 5 14.4 13.2 14.4 22.6 0 15.1-14.8 27.4-33.1 27.4s-33.1-12.3-33.1-27.4c0-9.4 5.7-17.6 14.4-22.6h-73.6v184.7H557c-8.6 5-14.3 13.2-14.3 22.6 0 15.1 14.8 27.4 33.1 27.4s32.9-12.1 32.9-27.3z"/><path class="st8" d="M646 331c1.4-9.3-3-18.3-10.8-24.5l72.8 10.9 10.9-72.8c3.6 9.3 10.9 16.1 20.2 17.5 15 2.2 29.3-10.6 32-28.6s-7.2-34.5-22.2-36.8c-9.3-1.4-18.3 3-24.5 10.8l10.9-72.8-182.6-27.4-10.9 72.8c-3.6-9.3-10.9-16.1-20.2-17.5-15-2.2-29.3 10.6-32 28.6s7.2 34.5 22.2 36.8c9.3 1.4 18.3-3 24.5-10.8l-11 72.8 72.8 10.9c-9.3 3.6-16.1 10.9-17.5 20.2-2.2 15 10.6 29.3 28.6 32S643.8 346 646 331z"/><path class="st7" d="M460.8 331.4c-15.1 0-27.4-14.8-27.4-33.1s12.3-33 27.4-33c9.4 0 17.6 5.7 22.6 14.3V206h-74.2c8.7-4.9 14.4-13.2 14.4-22.6 0-15.1-14.8-27.4-33.1-27.4s-33.1 12.3-33.1 27.4c0 9.4 5.7 17.7 14.4 22.6h-73.1v75.6c4.8-9.7 13.5-16.3 23.6-16.3 15.1 0 27.4 14.8 27.4 33s-12.3 33.1-27.4 33.1c-10.1 0-18.8-6.5-23.6-16.3v75.6h184.7v-73.6c-5 8.6-13.3 14.3-22.6 14.3z"/><path class="st8" d="M424 551.8c0 10-6.5 18.8-16.3 23.6h75.6v-73.6c4.9 8.7 13.2 14.3 22.6 14.3 15.1 0 27.4-14.8 27.4-33.1s-12.3-33.1-27.4-33.1c-9.4 0-17.6 5.7-22.6 14.3v-73.6h-73.6c8.6-4.9 14.2-13.2 14.2-22.6 0-15.1-14.8-27.4-33.1-27.4s-33 12.3-33 27.4c0 9.4 5.7 17.6 14.3 22.5h-73.6v76.6c-4.6-10.3-13.7-17.3-24.1-17.3-15.1 0-27.4 14.8-27.4 33.1s12.3 33.1 27.4 33.1c10.4 0 19.5-7 24.1-17.3v76.6h75.6c-9.7-4.8-16.3-13.5-16.3-23.6 0-15.1 14.8-27.4 33.1-27.4s33.1 12.3 33.1 27.5z"/><path class="st2" d="M287.8 533.3s8 5.8 9.8 3.1 1.4-23 0-23-3.6 14-6.3 15.3c-1.8 1.1-3 2.7-3.5 4.6zM266.2 511.8s5.5-9.8 7-9.4-.4 5.1-.4 5.1 15.2 3.5 15.6 5.1c.4 1.6-19.2 3.9-19.2 3.9l-3-4.7zM538 193.5s.3-5.5 1.3-6.6 4.3-5.8 4.6-4.2-1 4.1-1 4.1 7.7-4.7 9.6-3.4-4.3 11.1-5.9 13.1-5.1 2.8-5.1 2.8l-3.5-5.8z"/><path class="st5" d="M534.3 380.5v10.1h5.5v-2.5l3.4 2.5h25.4L546 380.5z"/><path class="st2" d="M203.6 474.8l7.2-8.2s5.3 6.8 7.9 6.7l-4.7 13.3s-10.7-7-10.4-11.8z"/><path class="st2" d="M233.2 439c2.6 1 4.5 6.8 4 10.4s-1.8 9.8-.5 10.5c.7.3 1.3.7 1.8 1.2.3.6-1.2 1.8-2.3 2.2-1.7.5-3.8 13-13.2 12.1s-16.1-8.1-16-16.2 2-29.3 26.2-20.2z"/><path class="st5" d="M211.5 431.3s4.4-5.8 11.7-3.7 16.5 10.9 19.2 9.4 4.1 6.1 1.1 7.7c-2 1.1-4 2.1-6.1 2.9 0 0-3.1-5-7.4-5.1s-9.1-.4-10.3-2.3c0 0 1.2 10.2-4.1 11.7-1.3.4-2.7-2-3.3-1.5-2 1.4-.9 6 .1 8.3 0 0-5.3 3.2-4.4 5.4s-5.1-1-6.6-8.9 1.1-23.7 10.1-23.9z"/><ellipse transform="rotate(-76.609 231.58 454.737)" class="st9" cx="231.6" cy="454.7" rx="1.5" ry="1.2"/><path class="st10" d="M228.7 463.9s1.3 4 3.7 3.3M227.4 463.5c.2-.4.5-.8 1-.9"/><path d="M227.9 450.8s3.6-1.5 6.3-.5" fill="none" stroke="#000" stroke-miterlimit="10"/><path class="st10" d="M228.7 454.3c1.1-1 2.7-1.4 4.2-1"/><path class="st5" d="M240.2 702.6l4.6 6.3 3.4-2.5-1.1-1.6h3.3l15.8-11.7-20.2 4zM145.7 712.4v7.8h4.2v-1.9l2.6 1.9h19.7l-17.5-7.8z"/><path class="st2" d="M538.7 193.1l3.1 6.2-45 22.4-39.3-43.5 3.9-14.1 13.1-3.3 25.6 41z"/><path class="st2" d="M478.3 156l-3.8 4.8 9.5 9.8 6.1-5.6 6.7 4.6 1-8.8-5-4.1-3.6 4.1zM486.2 128.9c-2.1-.3-4.2.9-5 2.9M501.2 131.2c-1.2-1.8-3.4-2.6-5.4-1.9M491.9 142.5c.7-.2 1.5-.5 2.2-.8.2-.1.3-.2.5-.3.2-.4.3-.9.1-1.3l-.7-2.3"/><ellipse transform="rotate(-12.366 486.712 134.629)" class="st9" cx="486.7" cy="134.7" rx="1.1" ry="1.3"/><ellipse transform="rotate(-12.366 497.806 135.137)" class="st9" cx="497.8" cy="135.2" rx="1.1" ry="1.3"/><path class="st10" d="M485.6 143.5c-.5.4-.7 1-.7 1.7M498.6 133.5c-1.3 0-2.5.7-3.2 1.8M487.1 132.7c-1.1.4-2 1.1-2.5 2.1M487.5 146.9s3 2.8 6.1 1.9"/><path class="st7" d="M191.9 560.5l41.2 65.9 12.9 70.7-5.8 5.7-23.4-69.6-43-43.3-3.7-33.7z"/><path class="st7" d="M145.8 712.4h8.3l35.2-75.7-9.5-77.8-27.1-11.3-4.6 25.8 22 59.8z"/><path class="st2" d="M191 497.7l43.7 38.8 55.8-1.2.7-7.3-53-8.9L210 488z"/><path class="st4" d="M205.1 472.6l12.3 11.8-25.5 76s-16.8 4-39.2-12.9l12.8-47.4 25.8-22.8 13.8-4.7z"/><path class="st2" d="M206.6 471.2l-8 1.6 17.4 19.8 1.4-8.1z"/><path class="st2" d="M185 489.5l34.3 47.3 6.1 2.1 44-22.4-3.2-6.2-37.4 11.7-21.7-39.9-15.9-4.7z"/><g class="st12"><path class="st0" d="M611.8 144.4c.1-3.8-1.9-5.7-5.7-6.2-3.7-.5-6.1.7-6.5 3.5-.4 2.9 2.5 4 6.5 5.4 4.1 1.5 9.4 3.6 8.6 9.1-.8 5.8-6.3 7.2-11.3 6.5-6.2-.9-10.4-4.4-9.5-10.7l3.3.5c-.5 4.7 2.7 6.9 6.9 7.5 3 .4 6.6-.2 7.2-3.9.5-3.4-2.7-4.5-6.9-6.1-4.1-1.5-8.9-2.9-8.1-8.4.8-5.3 5.8-6.8 10.5-6.1 5.5.8 9 3.9 8.4 9.5l-3.4-.6zM634 166.3c-.7.2-1.5.2-2.2.1-1.8-.2-2.6-1.4-2.4-3.2-2.2 1.8-4.3 2.5-7.3 2-3.7-.5-5.8-2.9-5.3-6.2.5-3.4 3-5 7.5-5 4.6.1 6.1.4 6.5-2.2.3-2-1.1-3.3-3.8-3.7-2.9-.4-4.5.4-5.2 3.2l-3-.4c.7-4 3.9-6 8.8-5.3 2.5.4 4.6 1.3 5.7 2.7 1.1 1.5.8 3.4.6 5.1-.4 2.8-.9 5.6-1.3 8.4-.2 1.4.1 1.9 1 2h.8l-.4 2.5zm-8-9.9c-2.3 0-5.4-.2-5.9 2.8-.3 1.9 1 3.4 3.3 3.7 2.9.4 6-1.2 6.4-3.6l.5-3.4c-1.2.6-2.9.5-4.3.5zM640.2 167.2l-3.2-.4 3.7-26.1 3.2.4-3.7 26.1zM652.9 169.6c-5.6-.8-8.4-4.9-7.5-11.1.9-6.1 5-9.8 10.2-9 6.2.9 7.9 6.2 7.1 11.6l-.1.4-14.2-2-.1.2c-.6 4 1.3 6.8 5 7.3 2.7.4 4.4-.6 5.7-3.3l3 .4c-1.5 4.3-4.6 6.2-9.1 5.5zm2.3-17.5c-3-.4-5.5 1.5-6.4 5l11 1.5c.2-3.6-1.5-6.1-4.6-6.5zM677.5 158.8c.1-2.5-1.5-3.7-4.1-4.1-2.4-.3-4 .4-4.2 2-.3 2.1 2.1 2.8 4.6 3.7 3.1 1.2 7.1 2.7 6.5 6.8-.5 3.7-4 5.6-8.7 5-5.1-.7-7.6-3.4-7.2-7.7l3.1.4c-.2 2.9 1.6 4.3 4.6 4.7 2.8.4 4.8-.6 5.1-2.5.3-2.1-1.8-2.8-4.3-3.9-3.1-1.3-7.5-2.3-6.8-6.6.5-3.4 3.6-5.2 8-4.6 4.2.6 7.3 3.1 6.7 7.1l-3.3-.3z"/></g><g class="st12"><path class="st0" d="M360.9 229c-.4-3.8-2.7-5.4-6.5-5.4s-6 1.6-6 4.4c0 3 3.1 3.6 7.1 4.4 4.3.9 9.8 2.2 9.8 7.8 0 5.8-5.2 8-10.2 8-6.3 0-10.9-2.9-10.9-9.3h3.4c.1 4.8 3.6 6.4 7.8 6.4 3.1 0 6.5-1.1 6.5-4.8 0-3.4-3.3-4.1-7.7-5.1-4.3-1-9.2-1.7-9.2-7.2 0-5.4 4.8-7.5 9.5-7.5 5.6 0 9.4 2.6 9.7 8.3h-3.3zM385.9 247.5c-.7.3-1.4.4-2.1.4-1.8 0-2.7-1-2.8-2.8-1.9 2.1-4 3-6.9 3-3.8 0-6.1-2.1-6.1-5.4 0-3.4 2.3-5.4 6.8-6 4.6-.6 6.1-.4 6.1-3 0-2-1.5-3.1-4.3-3.1-2.9 0-4.4 1.1-4.7 3.9h-3.1c.1-4.1 3.1-6.5 8-6.5 2.6 0 4.7.7 6 1.8 1.3 1.3 1.3 3.3 1.3 5 0 2.8-.1 5.7-.1 8.5 0 1.4.3 1.9 1.3 1.9.3 0 .4 0 .8-.1v2.4zm-9.3-8.6c-2.3.3-5.4.6-5.4 3.6 0 2 1.4 3.2 3.8 3.2 3 0 5.8-2 5.8-4.5v-3.5c-1.1.9-2.8 1-4.2 1.2zM392.2 247.6H389v-26.3h3.2v26.3zM405.1 248.3c-5.6 0-9-3.7-9-9.9s3.6-10.4 8.9-10.4c6.3 0 8.7 5 8.7 10.5v.4h-14.4v.2c0 4.1 2.3 6.5 6 6.5 2.7 0 4.3-1.2 5.1-4.1h3.1c-1 4.5-3.9 6.8-8.4 6.8zm-.2-17.7c-3.1 0-5.2 2.2-5.6 5.8h11.1c-.3-3.7-2.4-5.8-5.5-5.8zM428 234.1c-.2-2.5-2-3.5-4.7-3.5-2.4 0-3.9 1-3.9 2.6 0 2.1 2.5 2.5 5.1 3.1 3.2.7 7.4 1.7 7.4 5.8 0 3.7-3.1 6.1-7.9 6.1-5.2 0-8-2.3-8.2-6.6h3.1c.2 2.9 2.1 4 5.2 4 2.8 0 4.7-1.3 4.7-3.2 0-2.1-2.1-2.6-4.8-3.2-3.3-.8-7.7-1.2-7.7-5.6 0-3.4 2.8-5.6 7.3-5.6 4.3 0 7.6 2.1 7.6 6.1H428z"/></g><g class="st12"><path class="st0" d="M313.8 410.5l8.5 22.3 8.2-22.3h4.8v26.3H332v-22l-8.3 22h-3l-8.4-22v22H309v-26.3h4.8zM357.6 436.8c-.7.3-1.4.4-2.1.4-1.8 0-2.7-1-2.8-2.8-1.9 2.1-4 3-6.9 3-3.8 0-6.1-2.1-6.1-5.4 0-3.4 2.3-5.4 6.8-6 4.6-.6 6.1-.4 6.1-3 0-2-1.5-3.1-4.3-3.1-2.9 0-4.4 1.1-4.7 3.9h-3.1c.1-4.1 3.1-6.5 8-6.5 2.6 0 4.7.7 6 1.8 1.3 1.3 1.3 3.3 1.3 5 0 2.8-.1 5.7-.1 8.5 0 1.4.3 1.9 1.3 1.9.3 0 .4 0 .8-.1v2.4zm-9.3-8.7c-2.3.3-5.4.6-5.4 3.6 0 2 1.4 3.2 3.8 3.2 3 0 5.8-2 5.8-4.5v-3.5c-1.2.9-2.8 1-4.2 1.2zM370.5 420.6h-.8c-5.2 0-6.1 4-6.1 8.3v8.1h-3.1v-19.1h3v4.1c1.3-3.2 3.7-4.6 7.1-4.6v3.2zM381.3 424.7l8.1 12.2h-4l-6.5-10-3 2.8v7.2h-3.1v-26.3h3.1v15.6l8.8-8.3h4.2l-7.6 6.8zM400.1 437.5c-5.6 0-9-3.7-9-9.9s3.6-10.4 8.9-10.4c6.3 0 8.7 5 8.7 10.5v.4h-14.4v.2c0 4.1 2.3 6.5 6 6.5 2.7 0 4.3-1.2 5.1-4.1h3.1c-1.1 4.5-3.9 6.8-8.4 6.8zm-.2-17.7c-3.1 0-5.2 2.2-5.6 5.8h11.1c-.3-3.6-2.4-5.8-5.5-5.8zM420.1 420.3h-3.8v11.1c0 1.7-.1 2.8 2.1 2.8.6 0 1 0 1.7-.1v2.7c-1 .1-1.4.1-2.4.1-4.8 0-4.6-2.4-4.6-6.5v-10.1h-3.2v-2.6h3.2V412h3.1v5.7h3.8v2.6zM426.9 414.3h-3.2v-3.8h3.2v3.8zm0 22.5h-3.2v-19.1h3.2v19.1zM434.8 420.7c1.6-2.3 3.6-3.5 6.5-3.5 4.7 0 6.4 2.6 6.4 6.9v12.7h-3.1v-11.2c0-3-.1-5.6-4.1-5.6-4.1 0-5.4 3.1-5.4 6.9v10H432v-19.1h3v2.9zM468.9 434.8c0 3.3-.3 4.8-1.2 6.4-1.4 2.3-4 3.5-7.5 3.5-3.8 0-7.5-1.3-8-5.6h3.2c.4 2.2 2 3.2 4.9 3.2 3.9 0 5.6-1.8 5.6-6.3v-2.3c-1.3 2.4-3.2 3.5-6.1 3.5-5.1 0-8.4-3.8-8.4-9.7 0-5.2 2.8-10.1 8.5-10.1 2.6 0 4.8 1.2 6 3.3v-2.8h2.9v16.9zm-14.2-7.4c0 4.2 2.2 7 5.6 7 3.5 0 5.6-2.8 5.6-7.5 0-4.3-2.1-6.9-5.7-6.9-3.5 0-5.5 2.8-5.5 7.4z"/></g><g class="st12"><path class="st0" d="M499.5 529.9l8.5 22.3 8.2-22.3h4.8v26.3h-3.3v-22l-8.3 22h-3l-8.4-22v22h-3.3v-26.3h4.8zM543.2 556.2c-.7.3-1.4.4-2.1.4-1.8 0-2.7-1-2.8-2.8-1.9 2.1-4 3-6.9 3-3.8 0-6.1-2.1-6.1-5.4 0-3.4 2.3-5.4 6.8-6 4.6-.6 6.1-.4 6.1-3 0-2-1.5-3.1-4.3-3.1-2.9 0-4.4 1.1-4.7 3.9H526c.1-4.1 3.1-6.5 8-6.5 2.6 0 4.7.7 6 1.8 1.3 1.3 1.3 3.3 1.3 5 0 2.8-.1 5.7-.1 8.5 0 1.4.3 1.9 1.3 1.9.3 0 .4 0 .8-.1v2.4zm-9.2-8.7c-2.3.3-5.4.6-5.4 3.6 0 2 1.4 3.2 3.8 3.2 3 0 5.8-2 5.8-4.5v-3.5c-1.2.9-2.8 1-4.2 1.2zM556.2 540h-.8c-5.2 0-6.1 4-6.1 8.3v8.1h-3.1v-19.1h3v4.1c1.3-3.2 3.7-4.6 7.1-4.6v3.2zM567 544.1l8.1 12.2h-4l-6.5-10-3 2.8v7.2h-3.1V530h3.1v15.6l8.8-8.3h4.2l-7.6 6.8zM585.7 556.9c-5.6 0-9-3.7-9-9.9s3.6-10.4 8.9-10.4c6.3 0 8.7 5 8.7 10.5v.4h-14.4v.2c0 4.1 2.3 6.5 6 6.5 2.7 0 4.3-1.2 5.1-4.1h3.1c-1 4.5-3.9 6.8-8.4 6.8zm-.2-17.7c-3.1 0-5.2 2.2-5.6 5.8H591c-.3-3.6-2.3-5.8-5.5-5.8zM605.8 539.8H602v11.1c0 1.7-.1 2.8 2.1 2.8.6 0 1 0 1.7-.1v2.7c-1 .1-1.4.1-2.4.1-4.8 0-4.6-2.4-4.6-6.5v-10.1h-3.2v-2.6h3.2v-5.7h3.1v5.7h3.8v2.6zM612.6 533.8h-3.2V530h3.2v3.8zm0 22.5h-3.2v-19.1h3.2v19.1zM620.4 540.1c1.6-2.3 3.6-3.5 6.5-3.5 4.7 0 6.4 2.6 6.4 6.9v12.7h-3.1V545c0-3-.1-5.6-4.1-5.6-4.1 0-5.4 3.1-5.4 6.9v10h-3.1v-19.1h3v2.9zM654.6 554.2c0 3.3-.3 4.8-1.2 6.4-1.4 2.3-4 3.5-7.5 3.5-3.8 0-7.5-1.3-8-5.6h3.2c.4 2.2 2 3.2 4.9 3.2 3.9 0 5.6-1.8 5.6-6.3v-2.3c-1.3 2.4-3.2 3.5-6.1 3.5-5.1 0-8.4-3.8-8.4-9.7 0-5.2 2.8-10.1 8.5-10.1 2.6 0 4.8 1.2 6 3.3v-2.8h2.9v16.9zm-14.3-7.4c0 4.2 2.2 7 5.6 7 3.5 0 5.6-2.8 5.6-7.5 0-4.3-2.1-6.9-5.7-6.9-3.4 0-5.5 2.8-5.5 7.4z"/></g></svg>