<?xml version="1.0" encoding="utf-8"?>
<!-- Generator: Adobe Illustrator 22.0.1, SVG Export Plug-In . SVG Version: 6.00 Build 0)  -->
<svg version="1.1" id="Layer_1" xmlns="http://www.w3.org/2000/svg" xmlns:xlink="http://www.w3.org/1999/xlink" x="0px" y="0px"
	 viewBox="0 0 832.9 794.1" style="enable-background:new 0 0 832.9 794.1;" xml:space="preserve">
<style type="text/css">
	.st0{fill:#FFFFFF;}
	.st1{fill:#E29721;}
	.st2{fill:#FFFFFF;stroke:#000000;stroke-width:0.5;stroke-miterlimit:10;}
	.st3{fill:#727272;stroke:#000000;stroke-width:0.5;stroke-miterlimit:10;}
	.st4{fill:#FFE600;stroke:#000000;stroke-width:0.5;stroke-miterlimit:10;}
	.st5{fill:#1A1A1A;}
	.st6{fill:#CCCCCC;}
	.st7{fill:#0077BF;stroke:#000000;stroke-width:0.5;stroke-miterlimit:10;}
	.st8{fill:#EB058C;stroke:#000000;stroke-width:0.5;stroke-linejoin:round;}
	.st9{fill:#1A1A1A;stroke:#000000;stroke-width:0.5;stroke-miterlimit:10;}
	.st10{fill:none;stroke:#000000;stroke-width:0.5;stroke-miterlimit:10;}
	.st11{fill:none;stroke:#000000;stroke-miterlimit:10;}
	.st12{enable-background:new    ;}
</style>
<title>SE5</title>
<g>
	<g id="Layer_6">
		<path class="st0" d="M177.6,356.7c84.4-20.3,96.1-129.3,111.5-179.9c19.1-62.9,66.7-148.4,207.6-161.4c0,0,232.4-35.1,311.9,245.1
			c0,0,44.8,123.2-23.5,306.5c0,0-72.2,146-204.4,188.6c0,0-227.7,76.9-418.2-17.2c0,0-223.9-85.3-121.4-290
			C57.4,416,108.3,373.4,177.6,356.7z"/>
	</g>
	<path class="st1" d="M560.4,142.2c0,0,7.8-13.8,10-13.3s-0.6,7.2-0.6,7.2s21.6,5,22.2,7.2s-27.1,5.5-27.1,5.5L560.4,142.2z"/>
	<path class="st2" d="M501.5,162.6c0,0,41.4,14,62-31.2l4.2-0.4c0,0-3.5,52.1-62.7,48.6c-0.6,0-1.1-2.9-1.1-2.9
		S501.5,176.6,501.5,162.6z"/>
	<path class="st3" d="M545.7,382.8c-5.5-21.1-37.4-143.9-37.4-143.9l-37.1-1.9c14.7,42.4,60.8,141.9,63.1,143.5L545.7,382.8z"/>
	<path class="st3" d="M462.7,233l-39.3,151.8c0,0-12.5,2.4-13.3,4.7s21.9,3.1,24.2,1.6s51.5-112.4,62.5-150.7L462.7,233z"/>
	<path class="st4" d="M461.4,164.1c0,0-0.6,4.3-3.9,14.1c2.9,20.3,3.9,50.4,5.2,61.4c0,0,23,9.6,45.6-0.6c0,0,2.7-36.9,2.1-74
		c0,0-10.3-6.6-34-4.1C471.8,161.3,466.9,163,461.4,164.1z"/>
	<path class="st2" d="M478.8,150.3l-1,10.5c0,0,15.7,8.9,15.7,0.6c0-1.8-2.5-12.9-2.5-12.9L478.8,150.3z"/>
	<path class="st2" d="M500.9,134.2c0,11.8-0.6,20.5-10.6,21.4c-11.8,1.1-21.4-9.6-21.4-21.4s-6.2-21.4,21.4-21.4
		C502.2,112.8,500.9,122.4,500.9,134.2z"/>
	<path class="st5" d="M472.4,145.6c0,0-7.6-5.9-9.4-13.5c-1.8-7.6,4.1-10.6,4.1-10.6s-4.7-5.9,10.6-12.3s27.4,11.1,27.4,11.1
		c-8.2,12.3-26.8,0.1-26.8,0.1l-2.3,2.9c3.4,3.6,4.4,9,2.4,13.6c0,0-3.1-2.7-4.3-1s0.5,6,0.5,6L472.4,145.6z"/>
	<path class="st6" d="M283.1,719.8c0,4.6-34.2,8.3-76.5,8.3s-76.5-3.7-76.5-8.3s34.3-8.3,76.5-8.3S283.1,715.2,283.1,719.8z"/>
	<ellipse class="st6" cx="481.9" cy="717.5" rx="193.5" ry="9.7"/>
	<path class="st7" d="M608.7,597.9c0-9.4-5.7-17.6-14.3-22.6H668v-75.6c-4.8,9.7-13.5,16.3-23.6,16.3c-15.1,0-27.4-14.8-27.4-33.1
		s12.3-33.1,27.4-33.1c10.1,0,18.8,6.5,23.6,16.3v-75.6h-73.6c8.7,5,14.4,13.2,14.4,22.6c0,15.1-14.8,27.4-33.1,27.4
		s-33.1-12.3-33.1-27.4c0-9.4,5.7-17.6,14.4-22.6h-73.6v184.7H557c-8.6,5-14.3,13.2-14.3,22.6c0,15.1,14.8,27.4,33.1,27.4
		S608.7,613.1,608.7,597.9z"/>
	<path class="st8" d="M646,331c1.4-9.3-3-18.3-10.8-24.5l72.8,10.9l10.9-72.8c3.6,9.3,10.9,16.1,20.2,17.5c15,2.2,29.3-10.6,32-28.6
		s-7.2-34.5-22.2-36.8c-9.3-1.4-18.3,3-24.5,10.8l10.9-72.8l-182.6-27.4l-10.9,72.8c-3.6-9.3-10.9-16.1-20.2-17.5
		c-15-2.2-29.3,10.6-32,28.6s7.2,34.5,22.2,36.8c9.3,1.4,18.3-3,24.5-10.8l-11,72.8l72.8,10.9c-9.3,3.6-16.1,10.9-17.5,20.2
		c-2.2,15,10.6,29.3,28.6,32S643.8,346,646,331z"/>
	<path class="st7" d="M460.8,331.4c-15.1,0-27.4-14.8-27.4-33.1s12.3-33,27.4-33c9.4,0,17.6,5.7,22.6,14.3V206h-74.2
		c8.7-4.9,14.4-13.2,14.4-22.6c0-15.1-14.8-27.4-33.1-27.4s-33.1,12.3-33.1,27.4c0,9.4,5.7,17.7,14.4,22.6h-73.1v75.6
		c4.8-9.7,13.5-16.3,23.6-16.3c15.1,0,27.4,14.8,27.4,33s-12.3,33.1-27.4,33.1c-10.1,0-18.8-6.5-23.6-16.3v75.6h184.7v-73.6
		C478.4,325.7,470.1,331.4,460.8,331.4z"/>
	<path class="st8" d="M424,551.8c0,10-6.5,18.8-16.3,23.6h75.6v-73.6c4.9,8.7,13.2,14.3,22.6,14.3c15.1,0,27.4-14.8,27.4-33.1
		s-12.3-33.1-27.4-33.1c-9.4,0-17.6,5.7-22.6,14.3v-73.6h-73.6c8.6-4.9,14.2-13.2,14.2-22.6c0-15.1-14.8-27.4-33.1-27.4
		s-33,12.3-33,27.4c0,9.4,5.7,17.6,14.3,22.5h-73.6v76.6c-4.6-10.3-13.7-17.3-24.1-17.3c-15.1,0-27.4,14.8-27.4,33.1
		s12.3,33.1,27.4,33.1c10.4,0,19.5-7,24.1-17.3v76.6h75.6c-9.7-4.8-16.3-13.5-16.3-23.6c0-15.1,14.8-27.4,33.1-27.4
		S424,536.6,424,551.8z"/>
	<path class="st2" d="M287.8,533.3c0,0,8,5.8,9.8,3.1s1.4-23,0-23s-3.6,14-6.3,15.3C289.5,529.8,288.3,531.4,287.8,533.3z"/>
	<path class="st2" d="M266.2,511.8c0,0,5.5-9.8,7-9.4s-0.4,5.1-0.4,5.1s15.2,3.5,15.6,5.1c0.4,1.6-19.2,3.9-19.2,3.9L266.2,511.8z"
		/>
	<path class="st2" d="M538,193.5c0,0,0.3-5.5,1.3-6.6s4.3-5.8,4.6-4.2s-1,4.1-1,4.1s7.7-4.7,9.6-3.4s-4.3,11.1-5.9,13.1
		s-5.1,2.8-5.1,2.8L538,193.5z"/>
	<polygon class="st5" points="534.3,380.5 534.3,390.6 539.8,390.6 539.8,388.1 543.2,390.6 568.6,390.6 568.6,390.6 546,380.5 	"/>
	<path class="st2" d="M203.6,474.8l7.2-8.2c0,0,5.3,6.8,7.9,6.7l-4.7,13.3C214,486.6,203.3,479.6,203.6,474.8z"/>
	<path class="st2" d="M233.2,439c2.6,1,4.5,6.8,4,10.4s-1.8,9.8-0.5,10.5c0.7,0.3,1.3,0.7,1.8,1.2c0.3,0.6-1.2,1.8-2.3,2.2
		c-1.7,0.5-3.8,13-13.2,12.1s-16.1-8.1-16-16.2S209,429.9,233.2,439z"/>
	<path class="st5" d="M211.5,431.3c0,0,4.4-5.8,11.7-3.7s16.5,10.9,19.2,9.4s4.1,6.1,1.1,7.7c-2,1.1-4,2.1-6.1,2.9
		c0,0-3.1-5-7.4-5.1s-9.1-0.4-10.3-2.3c0,0,1.2,10.2-4.1,11.7c-1.3,0.4-2.7-2-3.3-1.5c-2,1.4-0.9,6,0.1,8.3c0,0-5.3,3.2-4.4,5.4
		s-5.1-1-6.6-8.9S202.5,431.5,211.5,431.3z"/>
	
		<ellipse transform="matrix(0.2316 -0.9728 0.9728 0.2316 -264.4213 574.7016)" class="st9" cx="231.6" cy="454.7" rx="1.5" ry="1.2"/>
	<path class="st10" d="M228.7,463.9c0,0,1.3,4,3.7,3.3"/>
	<path class="st10" d="M227.4,463.5c0.2-0.4,0.5-0.8,1-0.9"/>
	<path class="st11" d="M227.9,450.8c0,0,3.6-1.5,6.3-0.5"/>
	<path class="st10" d="M228.7,454.3c1.1-1,2.7-1.4,4.2-1"/>
	<polygon class="st5" points="240.2,702.6 244.8,708.9 248.2,706.4 247.1,704.8 250.4,704.8 266.2,693.1 266.2,693.1 246,697.1 	"/>
	<polygon class="st5" points="145.7,712.4 145.7,720.2 149.9,720.2 149.9,718.3 152.5,720.2 172.2,720.2 172.2,720.2 154.7,712.4 	
		"/>
	<polygon class="st2" points="538.7,193.1 541.8,199.3 496.8,221.7 457.5,178.2 461.4,164.1 474.5,160.8 500.1,201.8 	"/>
	<polygon class="st2" points="478.3,156 474.5,160.8 484,170.6 490.1,165 496.8,169.6 497.8,160.8 492.8,156.7 489.2,160.8 	"/>
	<path class="st2" d="M486.2,128.9c-2.1-0.3-4.2,0.9-5,2.9"/>
	<path class="st2" d="M501.2,131.2c-1.2-1.8-3.4-2.6-5.4-1.9"/>
	<path class="st2" d="M491.9,142.5c0.7-0.2,1.5-0.5,2.2-0.8c0.2-0.1,0.3-0.2,0.5-0.3c0.2-0.4,0.3-0.9,0.1-1.3l-0.7-2.3"/>
	
		<ellipse transform="matrix(0.9768 -0.2142 0.2142 0.9768 -17.5458 107.377)" class="st9" cx="486.7" cy="134.7" rx="1.1" ry="1.3"/>
	
		<ellipse transform="matrix(0.9768 -0.2142 0.2142 0.9768 -17.3972 109.7652)" class="st9" cx="497.8" cy="135.2" rx="1.1" ry="1.3"/>
	<path class="st10" d="M485.6,143.5c-0.5,0.4-0.7,1-0.7,1.7"/>
	<path class="st10" d="M498.6,133.5c-1.3,0-2.5,0.7-3.2,1.8"/>
	<path class="st10" d="M487.1,132.7c-1.1,0.4-2,1.1-2.5,2.1"/>
	<path class="st10" d="M487.5,146.9c0,0,3,2.8,6.1,1.9"/>
	<polygon class="st7" points="191.9,560.5 233.1,626.4 246,697.1 240.2,702.8 216.8,633.2 173.8,589.9 170.1,556.2 	"/>
	<polygon class="st7" points="145.8,712.4 154.1,712.4 189.3,636.7 179.8,558.9 152.7,547.6 148.1,573.4 170.1,633.2 	"/>
	<polygon class="st2" points="191,497.7 234.7,536.5 290.5,535.3 291.2,528 238.2,519.1 210,488 	"/>
	<path class="st4" d="M205.1,472.6l12.3,11.8l-25.5,76c0,0-16.8,4-39.2-12.9l12.8-47.4l25.8-22.8L205.1,472.6z"/>
	<polygon class="st2" points="206.6,471.2 198.6,472.8 216,492.6 217.4,484.5 	"/>
	<polygon class="st2" points="185,489.5 219.3,536.8 225.4,538.9 269.4,516.5 266.2,510.3 228.8,522 207.1,482.1 191.2,477.4 	"/>
	<g class="st12">
		<path class="st0" d="M611.8,144.4c0.1-3.8-1.9-5.7-5.7-6.2c-3.7-0.5-6.1,0.7-6.5,3.5c-0.4,2.9,2.5,4,6.5,5.4
			c4.1,1.5,9.4,3.6,8.6,9.1c-0.8,5.8-6.3,7.2-11.3,6.5c-6.2-0.9-10.4-4.4-9.5-10.7l3.3,0.5c-0.5,4.7,2.7,6.9,6.9,7.5
			c3,0.4,6.6-0.2,7.2-3.9c0.5-3.4-2.7-4.5-6.9-6.1c-4.1-1.5-8.9-2.9-8.1-8.4c0.8-5.3,5.8-6.8,10.5-6.1c5.5,0.8,9,3.9,8.4,9.5
			L611.8,144.4z"/>
		<path class="st0" d="M634,166.3c-0.7,0.2-1.5,0.2-2.2,0.1c-1.8-0.2-2.6-1.4-2.4-3.2c-2.2,1.8-4.3,2.5-7.3,2
			c-3.7-0.5-5.8-2.9-5.3-6.2c0.5-3.4,3-5,7.5-5c4.6,0.1,6.1,0.4,6.5-2.2c0.3-2-1.1-3.3-3.8-3.7c-2.9-0.4-4.5,0.4-5.2,3.2l-3-0.4
			c0.7-4,3.9-6,8.8-5.3c2.5,0.4,4.6,1.3,5.7,2.7c1.1,1.5,0.8,3.4,0.6,5.1c-0.4,2.8-0.9,5.6-1.3,8.4c-0.2,1.4,0.1,1.9,1,2
			c0.3,0,0.4,0,0.8,0L634,166.3z M626,156.4c-2.3,0-5.4-0.2-5.9,2.8c-0.3,1.9,1,3.4,3.3,3.7c2.9,0.4,6-1.2,6.4-3.6l0.5-3.4
			C629.1,156.5,627.4,156.4,626,156.4z"/>
		<path class="st0" d="M640.2,167.2l-3.2-0.4l3.7-26.1l3.2,0.4L640.2,167.2z"/>
		<path class="st0" d="M652.9,169.6c-5.6-0.8-8.4-4.9-7.5-11.1c0.9-6.1,5-9.8,10.2-9c6.2,0.9,7.9,6.2,7.1,11.6l-0.1,0.4l-14.2-2
			l-0.1,0.2c-0.6,4,1.3,6.8,5,7.3c2.7,0.4,4.4-0.6,5.7-3.3l3,0.4C660.5,168.4,657.4,170.3,652.9,169.6z M655.2,152.1
			c-3-0.4-5.5,1.5-6.4,5l11,1.5C660,155,658.3,152.5,655.2,152.1z"/>
		<path class="st0" d="M677.5,158.8c0.1-2.5-1.5-3.7-4.1-4.1c-2.4-0.3-4,0.4-4.2,2c-0.3,2.1,2.1,2.8,4.6,3.7
			c3.1,1.2,7.1,2.7,6.5,6.8c-0.5,3.7-4,5.6-8.7,5c-5.1-0.7-7.6-3.4-7.2-7.7l3.1,0.4c-0.2,2.9,1.6,4.3,4.6,4.7
			c2.8,0.4,4.8-0.6,5.1-2.5c0.3-2.1-1.8-2.8-4.3-3.9c-3.1-1.3-7.5-2.3-6.8-6.6c0.5-3.4,3.6-5.2,8-4.6c4.2,0.6,7.3,3.1,6.7,7.1
			L677.5,158.8z"/>
	</g>
	<g class="st12">
		<path class="st0" d="M360.9,229c-0.4-3.8-2.7-5.4-6.5-5.4c-3.8,0-6,1.6-6,4.4c0,3,3.1,3.6,7.1,4.4c4.3,0.9,9.8,2.2,9.8,7.8
			c0,5.8-5.2,8-10.2,8c-6.3,0-10.9-2.9-10.9-9.3h3.4c0.1,4.8,3.6,6.4,7.8,6.4c3.1,0,6.5-1.1,6.5-4.8c0-3.4-3.3-4.1-7.7-5.1
			c-4.3-1-9.2-1.7-9.2-7.2c0-5.4,4.8-7.5,9.5-7.5c5.6,0,9.4,2.6,9.7,8.3H360.9z"/>
		<path class="st0" d="M385.9,247.5c-0.7,0.3-1.4,0.4-2.1,0.4c-1.8,0-2.7-1-2.8-2.8c-1.9,2.1-4,3-6.9,3c-3.8,0-6.1-2.1-6.1-5.4
			c0-3.4,2.3-5.4,6.8-6c4.6-0.6,6.1-0.4,6.1-3c0-2-1.5-3.1-4.3-3.1c-2.9,0-4.4,1.1-4.7,3.9h-3.1c0.1-4.1,3.1-6.5,8-6.5
			c2.6,0,4.7,0.7,6,1.8c1.3,1.3,1.3,3.3,1.3,5c0,2.8-0.1,5.7-0.1,8.5c0,1.4,0.3,1.9,1.3,1.9c0.3,0,0.4,0,0.8-0.1V247.5z
			 M376.6,238.9c-2.3,0.3-5.4,0.6-5.4,3.6c0,2,1.4,3.2,3.8,3.2c3,0,5.8-2,5.8-4.5v-3.5C379.7,238.6,378,238.7,376.6,238.9z"/>
		<path class="st0" d="M392.2,247.6H389v-26.3h3.2V247.6z"/>
		<path class="st0" d="M405.1,248.3c-5.6,0-9-3.7-9-9.9c0-6.2,3.6-10.4,8.9-10.4c6.3,0,8.7,5,8.7,10.5v0.4h-14.4l0,0.2
			c0,4.1,2.3,6.5,6,6.5c2.7,0,4.3-1.2,5.1-4.1h3.1C412.5,246,409.6,248.3,405.1,248.3z M404.9,230.6c-3.1,0-5.2,2.2-5.6,5.8h11.1
			C410.1,232.7,408,230.6,404.9,230.6z"/>
		<path class="st0" d="M428,234.1c-0.2-2.5-2-3.5-4.7-3.5c-2.4,0-3.9,1-3.9,2.6c0,2.1,2.5,2.5,5.1,3.1c3.2,0.7,7.4,1.7,7.4,5.8
			c0,3.7-3.1,6.1-7.9,6.1c-5.2,0-8-2.3-8.2-6.6h3.1c0.2,2.9,2.1,4,5.2,4c2.8,0,4.7-1.3,4.7-3.2c0-2.1-2.1-2.6-4.8-3.2
			c-3.3-0.8-7.7-1.2-7.7-5.6c0-3.4,2.8-5.6,7.3-5.6c4.3,0,7.6,2.1,7.6,6.1H428z"/>
	</g>
	<g class="st12">
		<path class="st0" d="M313.8,410.5l8.5,22.3l8.2-22.3h4.8v26.3h-3.3v-22l-8.3,22h-3l-8.4-22v22H309v-26.3H313.8z"/>
		<path class="st0" d="M357.6,436.8c-0.7,0.3-1.4,0.4-2.1,0.4c-1.8,0-2.7-1-2.8-2.8c-1.9,2.1-4,3-6.9,3c-3.8,0-6.1-2.1-6.1-5.4
			c0-3.4,2.3-5.4,6.8-6c4.6-0.6,6.1-0.4,6.1-3c0-2-1.5-3.1-4.3-3.1c-2.9,0-4.4,1.1-4.7,3.9h-3.1c0.1-4.1,3.1-6.5,8-6.5
			c2.6,0,4.7,0.7,6,1.8c1.3,1.3,1.3,3.3,1.3,5c0,2.8-0.1,5.7-0.1,8.5c0,1.4,0.3,1.9,1.3,1.9c0.3,0,0.4,0,0.8-0.1V436.8z
			 M348.3,428.1c-2.3,0.3-5.4,0.6-5.4,3.6c0,2,1.4,3.2,3.8,3.2c3,0,5.8-2,5.8-4.5v-3.5C351.3,427.8,349.7,427.9,348.3,428.1z"/>
		<path class="st0" d="M370.5,420.6c-0.3,0-0.5,0-0.8,0c-5.2,0-6.1,4-6.1,8.3v8.1h-3.1v-19.1h3v4.1c1.3-3.2,3.7-4.6,7.1-4.6V420.6z"
			/>
		<path class="st0" d="M381.3,424.7l8.1,12.2h-4l-6.5-10l-3,2.8v7.2h-3.1v-26.3h3.1v15.6l8.8-8.3h4.2L381.3,424.7z"/>
		<path class="st0" d="M400.1,437.5c-5.6,0-9-3.7-9-9.9c0-6.2,3.6-10.4,8.9-10.4c6.3,0,8.7,5,8.7,10.5v0.4h-14.4l0,0.2
			c0,4.1,2.3,6.5,6,6.5c2.7,0,4.3-1.2,5.1-4.1h3.1C407.4,435.2,404.6,437.5,400.1,437.5z M399.9,419.8c-3.1,0-5.2,2.2-5.6,5.8h11.1
			C405.1,422,403,419.8,399.9,419.8z"/>
		<path class="st0" d="M420.1,420.3h-3.8v11.1c0,1.7-0.1,2.8,2.1,2.8c0.6,0,1,0,1.7-0.1v2.7c-1,0.1-1.4,0.1-2.4,0.1
			c-4.8,0-4.6-2.4-4.6-6.5v-10.1h-3.2v-2.6h3.2v-5.7h3.1v5.7h3.8V420.3z"/>
		<path class="st0" d="M426.9,414.3h-3.2v-3.8h3.2V414.3z M426.9,436.8h-3.2v-19.1h3.2V436.8z"/>
		<path class="st0" d="M434.8,420.7c1.6-2.3,3.6-3.5,6.5-3.5c4.7,0,6.4,2.6,6.4,6.9v12.7h-3.1v-11.2c0-3-0.1-5.6-4.1-5.6
			c-4.1,0-5.4,3.1-5.4,6.9v10h-3.1v-19.1h3V420.7z"/>
		<path class="st0" d="M468.9,434.8c0,3.3-0.3,4.8-1.2,6.4c-1.4,2.3-4,3.5-7.5,3.5c-3.8,0-7.5-1.3-8-5.6h3.2c0.4,2.2,2,3.2,4.9,3.2
			c3.9,0,5.6-1.8,5.6-6.3l0-2.3c-1.3,2.4-3.2,3.5-6.1,3.5c-5.1,0-8.4-3.8-8.4-9.7c0-5.2,2.8-10.1,8.5-10.1c2.6,0,4.8,1.2,6,3.3v-2.8
			h2.9V434.8z M454.7,427.4c0,4.2,2.2,7,5.6,7c3.5,0,5.6-2.8,5.6-7.5c0-4.3-2.1-6.9-5.7-6.9C456.7,420,454.7,422.8,454.7,427.4z"/>
	</g>
	<g class="st12">
		<path class="st0" d="M499.5,529.9l8.5,22.3l8.2-22.3h4.8v26.3h-3.3v-22l-8.3,22h-3l-8.4-22v22h-3.3v-26.3H499.5z"/>
		<path class="st0" d="M543.2,556.2c-0.7,0.3-1.4,0.4-2.1,0.4c-1.8,0-2.7-1-2.8-2.8c-1.9,2.1-4,3-6.9,3c-3.8,0-6.1-2.1-6.1-5.4
			c0-3.4,2.3-5.4,6.8-6c4.6-0.6,6.1-0.4,6.1-3c0-2-1.5-3.1-4.3-3.1c-2.9,0-4.4,1.1-4.7,3.9H526c0.1-4.1,3.1-6.5,8-6.5
			c2.6,0,4.7,0.7,6,1.8c1.3,1.3,1.3,3.3,1.3,5c0,2.8-0.1,5.7-0.1,8.5c0,1.4,0.3,1.9,1.3,1.9c0.3,0,0.4,0,0.8-0.1V556.2z M534,547.5
			c-2.3,0.3-5.4,0.6-5.4,3.6c0,2,1.4,3.2,3.8,3.2c3,0,5.8-2,5.8-4.5v-3.5C537,547.2,535.4,547.3,534,547.5z"/>
		<path class="st0" d="M556.2,540c-0.3,0-0.5,0-0.8,0c-5.2,0-6.1,4-6.1,8.3v8.1h-3.1v-19.1h3v4.1c1.3-3.2,3.7-4.6,7.1-4.6V540z"/>
		<path class="st0" d="M567,544.1l8.1,12.2h-4l-6.5-10l-3,2.8v7.2h-3.1v-26.3h3.1v15.6l8.8-8.3h4.2L567,544.1z"/>
		<path class="st0" d="M585.7,556.9c-5.6,0-9-3.7-9-9.9c0-6.2,3.6-10.4,8.9-10.4c6.3,0,8.7,5,8.7,10.5v0.4h-14.4l0,0.2
			c0,4.1,2.3,6.5,6,6.5c2.7,0,4.3-1.2,5.1-4.1h3.1C593.1,554.6,590.2,556.9,585.7,556.9z M585.5,539.2c-3.1,0-5.2,2.2-5.6,5.8H591
			C590.7,541.4,588.7,539.2,585.5,539.2z"/>
		<path class="st0" d="M605.8,539.8H602v11.1c0,1.7-0.1,2.8,2.1,2.8c0.6,0,1,0,1.7-0.1v2.7c-1,0.1-1.4,0.1-2.4,0.1
			c-4.8,0-4.6-2.4-4.6-6.5v-10.1h-3.2v-2.6h3.2v-5.7h3.1v5.7h3.8V539.8z"/>
		<path class="st0" d="M612.6,533.8h-3.2v-3.8h3.2V533.8z M612.6,556.3h-3.2v-19.1h3.2V556.3z"/>
		<path class="st0" d="M620.4,540.1c1.6-2.3,3.6-3.5,6.5-3.5c4.7,0,6.4,2.6,6.4,6.9v12.7h-3.1V545c0-3-0.1-5.6-4.1-5.6
			c-4.1,0-5.4,3.1-5.4,6.9v10h-3.1v-19.1h3V540.1z"/>
		<path class="st0" d="M654.6,554.2c0,3.3-0.3,4.8-1.2,6.4c-1.4,2.3-4,3.5-7.5,3.5c-3.8,0-7.5-1.3-8-5.6h3.2c0.4,2.2,2,3.2,4.9,3.2
			c3.9,0,5.6-1.8,5.6-6.3l0-2.3c-1.3,2.4-3.2,3.5-6.1,3.5c-5.1,0-8.4-3.8-8.4-9.7c0-5.2,2.8-10.1,8.5-10.1c2.6,0,4.8,1.2,6,3.3v-2.8
			h2.9V554.2z M640.3,546.8c0,4.2,2.2,7,5.6,7c3.5,0,5.6-2.8,5.6-7.5c0-4.3-2.1-6.9-5.7-6.9C642.4,539.4,640.3,542.2,640.3,546.8z"
			/>
	</g>
</g>
</svg>
