<svg version="1.1" id="Layer_1" xmlns="http://www.w3.org/2000/svg" xmlns:xlink="http://www.w3.org/1999/xlink" x="0" y="0" viewBox="0 0 793.1 590.2" xml:space="preserve"><style>.st1{fill:#fff}.st4,.st5{fill:none;stroke:#000;stroke-width:.5;stroke-linejoin:round}.st5{fill:#eb058c}.st7{fill:#1a1a1a}.st8,.st9{stroke-miterlimit:10}.st8{stroke:#000;stroke-width:.5;fill:#848484}.st9{fill:#fff}.st10,.st11,.st9{stroke:#000;stroke-width:.5}.st10{stroke-miterlimit:10;fill:#0077bf}.st11{fill:#fff;stroke-linejoin:round}.st12,.st13,.st14,.st15{fill:#fff;stroke:#000;stroke-miterlimit:10}.st13,.st14,.st15{fill:#1a1a1a;stroke-width:.5}.st14,.st15{fill:none}.st15{fill:#ffe600}.st18{enable-background:new}.st19{fill:none;stroke:#000;stroke-width:.75;stroke-miterlimit:10}</style><path d="M252.7 506.1s-138.1 96.6-222-55.4c0 0-108.1-153.4 81.3-350.2C156.8 54 227.3 13 377.9 1c69.4-5.5 178.2 8.7 265.2 94 61.1 59.8 120.4 137.2 112.8 303.3 0 0 3.2 200.1-180.9 191.6-32.2-1.5-74.5-11.8-104.5-75.4.1.1-44.1-128.4-217.8-8.4z" fill="#f5f5f5" id="Layer_6"/><path class="st1" d="M782 471.1s12.1-2.8 10.7-12.4-7.2-9-21.7-14.5-421.9-145.5-421.9-145.5-14.1-5.2-21.1-5.2c-8.1 0-21.7 5.2-21.7 5.2L32.7 391.1S8.5 398 8.6 407.6c0 0-1.2 7.4 8.2 11.8 10.3 4.8 435 148.8 435 148.8s13.8 4.6 21.4 4.8c5.5 0 11-.5 16.4-1.5.5-.1 1-.2 1.4-.4l291-100z"/><defs><path id="SVGID_1_" d="M782 471.1s12.1-2.8 10.7-12.4-7.2-9-21.7-14.5-421.9-145.5-421.9-145.5-14.1-5.2-21.1-5.2c-8.1 0-21.7 5.2-21.7 5.2L32.7 391.1S8.5 398 8.6 407.6c0 0-1.2 7.4 8.2 11.8 10.3 4.8 435 148.8 435 148.8s13.8 4.6 21.4 4.8c5.5 0 11-.5 16.4-1.5.5-.1 1-.2 1.4-.4l291-100z"/></defs><clipPath id="SVGID_2_"><use xlink:href="#SVGID_1_" overflow="visible"/></clipPath><g clip-path="url(#SVGID_2_)"><path d="M2.3 402.1l449.4 154.8s19 9.7 39 2.1 308.8-106.2 308.8-106.2l-2.8 22.1-322.9 111.3L-1.8 422.5l4.1-20.4z" fill="#bfbfbf"/></g><path class="st4" d="M782 471.1s12.1-2.8 10.7-12.4-7.2-9-21.7-14.5-421.9-145.5-421.9-145.5-14.1-5.2-21.1-5.2c-8.1 0-21.7 5.2-21.7 5.2L32.7 391.1S8.5 398 8.6 407.6c0 0-1.2 7.4 8.2 11.8 10.3 4.8 435 148.8 435 148.8s13.8 4.6 21.4 4.8c5.5 0 11-.5 16.4-1.5.5-.1 1-.2 1.4-.4l291-100z"/><path class="st5" d="M85.9 422.7L365.1 326s11.4-3.6 18.1-3.6 9.3 1 38.2 10.9 350 121 350 121l-279 95.1c-5.4 1.5-10.9 2.4-16.5 2.6-10.3.5-31.2-7.2-31.2-7.2L85.9 422.7z"/><ellipse cx="210.8" cy="351.3" rx="25.6" ry="7.8" fill="#efefef" stroke="#000" stroke-width=".5" stroke-linejoin="round"/><path class="st1" d="M376.7 404c.6-.8-1-1.1-2.6-1.6-.9-.3-2.1-.6-3.6-1l7.2-2.8c1.1-.4.6-3.5-1.5-3.5-1.4.1-6.6 1.8-13.2 4.4-2.9-.7-5.9-1.2-8.9-1.5l.5-.2c2.7-1.4 1-3.4-.8-4.2-.7-.4-1.5-.4-2.2-.2-12.4 3.3-24.4 7.5-35.7 11.4l-.3-.1c7.8-4.4 17.1-7.8 25.5-11.7 2.2-1 .8-1.8 0-2.1-3.4-1.4-15.9 3.9-29.6 11.1-.2 0-.5.1-.7.2-5.2 2.9-19.4 6.8-24.7 4.6-3.5-1.4-2-3.5 1.8-5.6s7.8-4 11.9-5.5c0 0-2.3 2.3.7 3.5 5.4 2.2 17-2 27.2-7.7 7.3-4.1 6.6-6.7 4-7.8-6-2.5-32.1 6.6-45.4 14.1-.7.4-1.4.8-2 1.2.1-.4-.1-.7-.7-.7l-.9-.1c1.7-3.8 3.2-7.8 4.4-11.9 10 2.5 20.5 1 29.4-4.1 8.9-5 9.4-12 2-16 .6-.3 1.3-.5 1.9-.8.2-.8-.7-1.9-1.9-2.4-1.8-.7-2.7.1-3.9.6-.4.1-.9.3-1.5.6-6.8-1.7-13.9-1.4-20.5.8-1.1.7 0 3.6.6 3.9.2.1.4.1.6 0 4-1.5 8.3-2.1 12.5-1.9-14.9 6.5-44.5 19.8-58.3 26.4-.2.5 1.2 2.3 2.6 2.9 1.1.4 3.7-.4 6.7-1.8 2.6-1.2 2.3-1.8 3.9-2.5l18.6-8.6.2.1c-.8 4.2-5.8 15.8-8 20.6 2 .2 4 .2 5.9-.1.3-.1.6-.1.8-.2-2 3-1 5.5 2.2 6.8 4 1.6 10.1 1 16-.5-2.2 1.8-2.9 3.1-1 3.9 1.1.4 2.3.4 3.5.3 7.4-4.2 24.4-10.3 34.3-13.1l.8.3c-4.7 2-14 6.2-17.5 8.1-6.4 3.6-10.8 7.4-6.2 9.2 3.4 1.4 8.9.7 13-.6-2.8 3-2.6 5.5.5 6.8 4.3 1.8 16.8.9 22.1-2.1 4.8-2.7 1.6-3.3 1.6-3.3-4.5 2.3-15.5 3.2-19.4 1.6-1.4-.6-.9-1.6 1.2-2.8 12.1-6.8 13.3-6.8 32.9-14.4 3.8.9 7.5 2 11.1 3.3.7.3 1.5.2 2.2-.3.6-.6 1-1.3 1.2-2 .2-.5-1.2-.2-.5-1zm-51.8-17.5c1.5-.5 2.2-.5 2.5-.4s.4.6-2.9 2.4c-7.3 4.1-18.3 8.3-20.7 7.3-1.4-.6.3-1.8.3-1.8 6.7-2.9 13.7-5.4 20.8-7.5zm-11.5-18c.4.1.9.3 1.3.5 5.5 2.3 5.4 6.2-.8 9.7-10.2 5.8-20.5 5.7-28.3 2.3 10-4.7 20.6-9.4 27.8-12.5zm16.4 45.6c-.8.4-1.5.9-2.1 1.3-2.8 1-7.4 2.3-9.4 1.5s-.8-2.3 3.2-4.5c9.3-5.2 21.3-9.2 29.9-13.1-.8 1-1 2.2.3 2.5l3.8.8c-10.1 4-20.9 8.8-25.7 11.5zM390.8 436.5c-5.2 2.5-11.3 5-14.8 3.6-2.3-.9-.3-2.5 3.3-4.6 6.3-3.5 16.2-7.5 27.1-11.6 2.2-.9-.3-2-.7-2.4 0 0 .5-.2.9-.5 2.4-1.3 3.9-4.1-.7-6-8-3.3-27.8 2.5-42.1 10.5-9.7 5.5-12 10.4-7 12.4 3.3 1.3 9 .8 12.8-.4l.3.1c-1.8 1.1-3.5 3.6-.4 4.9 5.1 2.1 16.7-1.8 20.9-4.2 2.6-1.1.4-1.8.4-1.8zm-29.2-1.8c-1.7-.7-.5-2 4.4-4.8 8.3-4.7 30.2-14.1 35.1-12.1 1.3.5-.6 1.6-1.4 2-3.2 1.7-6.6 2.9-10.2 3.5-.3 1.1 1.3 2.2 1.3 2.2-2.7 1.7-25.2 10.8-29.2 9.2zM440.9 462.8l-1.1-6.6-.3-1.6-4.5.6c-1.7.2-3.3.3-4.8.3s-3-.1-4.5-.4c-1.4-.2-2.8-.6-4.1-1.2-1.5-.5-2.8-1.5-3.6-2.7-.6-1-.8-2.3-.4-3.5.5-1.5 1.4-2.9 2.6-3.9 1.6-1.5 3.4-2.9 5.4-3.9l.2-.1c2.3-1.3 4.6-2.3 7.1-3.1 2.5-.8 5-1.4 7.6-1.8 2.4-.4 4.8-.5 7.2-.4 2.1.1 4.2.5 6.2 1.3 2.5 1 3.9 2.2 4.4 3.7.4 1.5.3 3-.2 4.4l4.2-.2 13.7-.8c.5-1.2.9-2.5 1-3.8.1-1.1-.1-2.2-.5-3.3v-.1c-.1-.2-.1-.4-.2-.6-.7-1.4-1.7-2.6-3-3.6-1.8-1.3-3.7-2.4-5.8-3.2-3.9-1.6-8.1-2.5-12.3-2.9-4.7-.4-9.5-.3-14.2.3-5 .6-9.9 1.7-14.7 3.1-4.7 1.4-9.2 3.3-13.4 5.7l-.2.1c-3.6 1.9-6.9 4.4-9.8 7.4-2 2-3.4 4.6-4.1 7.4-.4 2.4.2 4.8 1.7 6.6 2 2.4 4.5 4.1 7.4 5.2 2.6 1.1 5.3 1.9 8.1 2.4s5.6.8 8.4.9h1.2c2.4 0 4.9-.1 7.3-.4 2.6-.4 5.3-.8 8-1.3z"/><path class="st1" d="M479.7 483.3c.6-2.9 2-5.6 4.1-7.8 2.9-3 6.2-5.6 9.9-7.5l.2-.1c4.4-2.5 9.1-4.4 14-5.9 5-1.5 10.1-2.6 15.3-3.2l1.3-.1h.2l5.8-3.3-13.4-5.5-34.8 8 11.1-17.8-13.4-5.5-1.8 1c0 .1.1.2.1.4s.1.2.1.4.1.3.1.5c0 .1 0 .2.1.3v1.6c-.1 1.5-.6 3-1.3 4.3l-.2.4-14.5.8-21.2 11.9 1.2 7-.8.2c-3.1.6-6.1 1-9.1 1.4l-1.9.2h-.6l-1.3.1h-3.5l-2.1 1.2 12.2 5 34.5-19.4-10.7 18.7 36.9-8-34.6 19.6 12.4 5.1 5.7-3.2v-.1c-.1-.3-.1-.5 0-.7z"/><path class="st1" d="M555.8 482.1c2-2 3.4-4.6 4-7.4.4-2.4-.3-4.9-1.8-6.9-1.6-2.1-4.2-4-7.9-5.5-4-1.6-8.2-2.6-12.5-2.9-4.1-.4-8.2-.4-12.3 0H524.2l-1.1.1c-5 .6-10 1.6-14.8 3.1-4.7 1.4-9.1 3.3-13.4 5.6l-.2.1c-3.5 1.9-6.7 4.3-9.5 7.2-2 2-3.4 4.6-4 7.4v1.2c-.1 2.1.6 4.1 1.9 5.7 1.6 2.1 4.2 4 7.9 5.5 4 1.6 8.2 2.6 12.5 2.9 4.8.4 9.7.3 14.5-.2 5-.6 10-1.6 14.8-3.1 4.6-1.4 9.1-3.3 13.3-5.7l.2-.1c3.6-1.6 6.8-4.1 9.5-7zm-22.5 2.2c-2.3 1.3-4.7 2.3-7.1 3.1-2.5.8-5.1 1.4-7.7 1.8-2.5.4-5 .5-7.6.3-2.3-.1-4.5-.6-6.6-1.5-1.6-.5-3-1.6-4-2.9-.7-1.1-.9-2.4-.5-3.7.5-1.5 1.3-2.9 2.5-4 1.6-1.5 3.3-2.8 5.2-3.9l.2-.1c2.2-1.3 4.6-2.3 7.1-3.1 2.5-.8 5.1-1.4 7.7-1.8 2.5-.4 5-.5 7.6-.3 2.2.1 4.5.6 6.6 1.4 1.6.5 3 1.6 4 2.9.7 1.1.9 2.5.5 3.7-.5 1.5-1.3 2.9-2.5 4-1.6 1.5-3.3 2.8-5.2 3.9l-.2.2z"/><path class="st7" d="M379.3 367.9v7.2h3.9v-1.8l2.5 1.8h18.1l-16.1-7.2zM405.9 367.9v7.2h3.9v-1.8l2.5 1.8h18l-16-7.2z"/><path class="st8" d="M420 234.8l-6.3 133.1h-7.1L389 234.8z"/><path class="st8" d="M412 234.8l-24.9 133.1h-6.8l.4-133.7z"/><path class="st9" d="M418.2 170.6l5.6 13.6 1.5 31.9 6.4 29.4-4.4 2-12.2-28.2-14.2-39.3z"/><path class="st10" d="M420.3 238l2.7-49.4-4.8-18-8.9-4.3H396l-17 5.3-3.8 21.8 5 44z"/><path class="st11" d="M379 171.6l-3.8 3.3-10.9 41.3c-1.1 2.5.1 5.5 2.6 6.6.7.3 1.4.4 2.1.4l30.6-15.8-1-6.6-19.3 4.5 6.8-19-2.8-11.8-4.3-2.9z"/><path class="st9" d="M400.9 164.8c-.7-1 0-10.7 0-10.7h9.4l-1 12.3c0-.1-6.5 1-8.4-1.6z"/><path class="st9" d="M399.1 161l-5.5 5.3 6.5 10.7 5.4-9.1 1.6-.3 2.8 9.4 5-9.4-4.2-5.4-4.4 3.7z"/><g id="Layer_9"><path class="st9" d="M419.7 144c-.4-4.9.1-4.9-.5-7.2-1-3.8-2.3-7.9-5.4-10.4-1.8-1.3-3.9-2.3-6.1-2.8-1.6-.6-3.2-.9-4.9-1-1.4 0-2.8.3-4.1.8-3.7 1.3-6.8 4-8.7 7.4-4.9 9.2 1 19 7.8 24.9 2.5 2.2 7.5 4.6 10.8 4.1 9.4-2.1 11.5-11.1 11.1-15.8z"/><path class="st12" d="M406.8 139c-2.3-.7-5.4-.4-6.2.9M418.7 138.7c-1.3-1.5-4-1.1-5.7-.1"/><path class="st9" d="M411.6 149.4c.6-.3 1.2-.6 1.8-1 .1-.1.3-.2.4-.3.2-.4.1-.8-.1-1.2l-.9-2"/><ellipse transform="rotate(-17.768 406.223 144.03)" class="st13" cx="406.2" cy="144" rx="1" ry="1.3"/><ellipse transform="scale(.99997) rotate(-2.09 416.8 143.434)" class="st13" cx="416.8" cy="143.4" rx="1" ry="1.2"/><path class="st7" d="M394 141.3s-2.6-3.1-3.6-1.2c-.3.6.4 4.8 4.2 6.4 0 0-2.1 3.8-.2 5.9 0 0-4.3-2.2-9-13.5 0 0-4.4-9.6 7.4-12.7 3.2-8 12.2-10.8 22.6-5.6 4 5.3 5.5 12.1 4.2 18.6 0 0-.3-5.9-5.1-9.3 0 0-8.3 6.7-13.9.3.1 0-4.9.4-6.6 11.1z"/></g><path class="st14" d="M407.9 152.4s1.8 4 6.1 1.1"/><path class="st1" d="M398.9 200.9c1-.6 1.8-1.4 2.4-2.3.4-1 .7-1.7.9-2.3.7-2 .8-2.3 3.4-3 .1 0 .3-.1.5-.1 1.5 0 2.4 2.1 2.8 3.9.4 2.2.2 4.2-.6 4.5-.3.1-.5.2-.8.2-1.2 0-1.7-1.3-1.7-1.4 0-.1-.1-.2-.2-.2h-.1c-.1 0-.2.2-.2.3s.5 2.9-2 3.8c-1.3.6-2.5 1.4-3.5 2.4l-.9-5.8z"/><path d="M406 193.4c1.2 0 2.1 1.9 2.5 3.7.4 2.1.1 4-.4 4.2-.2.1-.5.1-.7.1-1 0-1.5-1.2-1.5-1.2-.1-.2-.3-.3-.5-.3h-.1c-.3.1-.4.3-.4.6 0 .1.4 2.7-1.8 3.5-1.2.5-2.3 1.3-3.2 2.2l-.8-5.3c1-.6 1.8-1.4 2.4-2.3.4-1 .7-1.7.9-2.4.7-1.9.8-2.2 3.2-2.9.1.1.3.1.4.1m0-.5c-.2 0-.4 0-.5.1-3.5 1-2.7 1.4-4.4 5.5-.6.9-1.5 1.7-2.4 2.3l1 6.6c1.1-1.1 2.4-2 3.8-2.7 2.7-1 2.1-4.1 2.1-4.1s.6 1.5 1.9 1.5c.3 0 .6-.1.9-.2 1.8-.9.7-9-2.4-9z"/><path class="st11" d="M427.3 247.5s-1.7 6.8 0 6.4 1-2.1 1-2.1 3.6 7 5.5 5-2-11.2-2-11.2l-4.5 1.9z"/><path class="st7" d="M662.3 469.2v7.6h-4.1v-1.9l-2.6 1.9h-19l16.9-7.6zM621.3 463.4v7.6h-4.1v-1.9l-2.5 1.9h-19.1l16.9-7.6z"/><path class="st10" d="M611.5 329.2l1.6 134.2h7.5l23.5-134.2z"/><path class="st10" d="M619.9 329.8l34.2 140h7.2l-8.4-140.6z"/><path class="st9" d="M613.4 261.7l-5.9 14.3-1.2 20.9-10.7-2.8-1 7.4 20.2 12.5 16.8-42.4z"/><path class="st15" d="M611.2 332.5l-2.8-51.8 5-19 9.3-4.5h14.1l17.9 5.5 3.9 23-5.2 46.3z"/><path d="M637.4 283.8s.3-3.9 1.2-4.1 1.9-.1 1.9 1.1c-.1 1.2-.4 2.4-.7 3.6l-2.4-.6z" fill="#eb058c" stroke="#000" stroke-width=".5" stroke-miterlimit="10"/><path fill="#c1c1c1" stroke="#000" stroke-width=".5" stroke-miterlimit="10" d="M632.6 313l4.5-29.9 3.4.5z"/><path class="st1" d="M644.4 310.1c-.9-.4-3.5-1.4-5.1-1.9-1.8-.5-2.9-2.2-2.6-4 0-.1 0-.2-.2-.3h-.1c-.1 0-.2 0-.2.1-.4.6-1.1 1-1.8 1-.5 0-.9-.1-1.4-.3-1-.4-1.3-3-.8-5.7.5-2.3 1.7-5 3.5-5 .2 0 .4 0 .6.1 3.2.9 3.4 1.4 4.3 3.8.3.8.6 1.7 1.1 2.9s2.4 2.3 2.9 2.6l-.2 6.7z"/><path d="M635.9 294.3c.2 0 .4 0 .5.1 3.1.9 3.2 1.2 4.1 3.6.3.8.6 1.7 1.1 2.9.7 1.1 1.7 2.1 2.9 2.6l-.4 6.2c-1.1-.4-3.3-1.3-4.8-1.8-1.6-.4-2.6-2-2.4-3.7 0-.2-.1-.5-.3-.6h-.2c-.2 0-.4.1-.4.3-.3.5-1 .9-1.6.8-.4 0-.9-.1-1.3-.3-.7-.3-1.2-2.6-.6-5.4.5-2.1 1.7-4.7 3.4-4.7m0-.5c-3.9 0-5.2 10.2-2.9 11.1.5.2.9.3 1.5.3.8 0 1.6-.4 2-1.1-.3 1.9.9 3.7 2.7 4.2 2 .7 5.4 2 5.4 2l.5-7.2s-2.4-1.2-3-2.6c-2.2-5.1-1.2-5.6-5.6-6.9-.2.2-.5.2-.6.2z"/><path class="st11" d="M654.6 262.5l4.4 3.9 12 46.4c1.3 3-.2 6.5-3.2 7.7-.7.3-1.5.5-2.3.5l-23.2-10.8 1.2-7.7 10.8 1.5-9.9-24.9 2.8-13.1 7.4-3.5z"/><path class="st9" d="M637.2 257.3c.8-1 0-11.2 0-11.2h-9.9l1.1 12.9s6.8 1.1 8.8-1.7z"/><path class="st9" d="M639.1 253.4l5.9 5.6-8.6 10-5.4-8.7-1.2-.2-6.5 7.7-.8-7.5 4.5-5.7 3.4 3.8z"/><g id="Layer_9-2"><path class="st9" d="M616.5 234.7c.5-5.4-.1-5.4.6-8 1.2-4.2 2.5-8.8 5.9-11.5 2-1.4 4.3-2.5 6.7-3.1 1.7-.7 3.5-1 5.4-1.1 1.6 0 3.1.3 4.5.9 4.1 1.5 7.5 4.4 9.7 8.2 5.4 10.3-1.2 21.1-8.6 27.7-2.8 2.5-8.3 5.1-11.9 4.5-10.4-2.3-12.8-12.3-12.3-17.6z"/><path class="st12" d="M629.1 234c2.5-.8 6-.4 6.9 1M616.4 234.2c1.4-1.6 4.4-1.2 6.3-.2"/><path class="st9" d="M625.9 245c-.7-.3-1.4-.7-2-1.1-.2-.1-.3-.2-.4-.4-.2-.4-.1-.9.1-1.3l1-2.2"/><ellipse transform="rotate(-72.23 631.497 239.174)" class="st13" cx="631.5" cy="239.2" rx="1.4" ry="1.1"/><ellipse transform="scale(.99997) rotate(-87.91 619.53 238.524)" class="st13" cx="619.5" cy="238.5" rx="1.3" ry="1.1"/><path class="st7" d="M643.2 237.1s3.1-3.7 4.2-1.7c.4.7.5 3.8-3.3 6.2 0 0 1.3 1.6.3 2.4 0 0 4.8-2.5 9.9-15 0 0 1.7-8.6-8.2-14.1-3.5-8.9-15-9.8-26.6-4 0 0-5.5 6.2-3.2 18.4 0 0-.8 1 1.4-4 0 0 9 7.3 21.5-1.1.2 0 1.3 3.4 4 12.9z"/></g><path class="st14" d="M630.2 246.4s-2 4.4-6.8 1.2"/><path class="st4" d="M654.3 304l9.5 1"/><path class="st11" d="M582.1 270.7s5.9 35.7 17.1 49.9c0 0 19.2 10 27.8 11.5 0 0-13-38.5-15.5-51.5l-29.4-9.9z"/><path class="st11" d="M586.2 295.7s3.1-1.8 5 .7 1.8 6.7 1.1 7.2c-.5.3-1.2.3-1.7 0l.8 2.1s-6-.3-5.2-10z"/><circle class="st14" cx="631" cy="239.7" r="4.1"/><circle class="st14" cx="619.1" cy="239" r="4"/><path class="st14" d="M623.1 239.1s1.3.8 3.9.3M635.1 239.7l8.5-3.4"/><path class="st7" d="M69 397.2v7.1h3.8v-1.7l2.5 1.7h18.1l-16.1-7.1zM116.1 393.6v7.1h3.9V399l2.4 1.7h18.1l-16-7.1z"/><path class="st8" d="M109.6 264l13.9 129.3h-7.1L78.6 264z"/><path class="st8" d="M101.6 264L76.7 397.2h-6.8l.4-133.8z"/><path class="st9" d="M106.3 202.1l5.1 11.2 5.5 20.8 16.4-7.5 3.3 4.8-28.8 24.6-17.3-46.8z"/><path class="st15" d="M109.9 267.2l2.7-49.4-4.8-18-8.9-4.2H85.6l-17 5.2-3.8 21.8 5 44.1z"/><path class="st11" d="M68.6 200.8l-3.8 3.4-10.9 41.2c-1.1 2.5 0 5.5 2.6 6.6.7.3 1.4.4 2.1.4l30.6-15.9-1-6.6-19.3 4.5 6.8-19-2.9-11.7-4.2-2.9z"/><path class="st9" d="M90.5 194c-.7-1 0-10.7 0-10.7h9.4l-1 12.3c.1 0-6.5 1-8.4-1.6z"/><path class="st9" d="M88.7 190.3l-5.5 5.3 6.5 10.6 5.4-9.1 1.5-.3 2.9 9.4 5-9.4-4.2-5.4-4.4 3.7z"/><g id="Layer_9-3"><path class="st9" d="M109.3 173.2c-.4-4.9.1-4.9-.6-7.2-1-3.8-2.3-7.9-5.3-10.4-1.8-1.3-3.9-2.3-6.1-2.8-1.6-.6-3.2-.9-4.8-1-1.4 0-2.8.3-4.1.8-3.7 1.3-6.8 4-8.7 7.4-4.9 9.2 1 19 7.8 24.9 2.5 2.2 7.4 4.6 10.8 4 9.3-2 11.4-11 11-15.7z"/><path class="st12" d="M96.4 168.2c-2.3-.7-5.4-.4-6.2.9M108.3 167.9c-1.3-1.4-4-1-5.7-.1"/><path class="st9" d="M101.2 178.6c.6-.3 1.2-.6 1.8-1 .1-.1.3-.2.4-.3.2-.4.1-.8-.1-1.2l-.9-2"/><ellipse transform="rotate(-17.768 95.82 173.237)" class="st13" cx="95.8" cy="173.2" rx="1" ry="1.3"/><ellipse transform="matrix(.9993 -.03647 .03647 .9993 -6.226 3.996)" class="st13" cx="106.4" cy="172.6" rx=".9" ry="1.2"/><path class="st7" d="M83.6 170.6s-2.6-3.1-3.6-1.3c-.3.6.4 4.8 4.2 6.4 0 0-2.1 3.8-.2 5.9 0 0-4.3-2.2-9-13.5 0 0-.8-8 3.7-13.8 8.1-6.8 16.2-7.7 26.7-2.4 0 0 6 5.6 3.9 16.6 0 0-1-4.7-1.6-6.4 0 0-10.2 3.5-15.8-2.9-1.6.9-6.6.6-8.3 11.4z"/></g><path class="st14" d="M97.5 181.6s1.8 4 6.1 1.1"/><path class="st11" d="M88.2 230s10.9-5.4 11.8-4.9-3 4-3 4c0 1.5-.1 3-.3 4.5-.3 1.3-7.4 2.9-7.4 2.9l-1.1-6.5z"/><path class="st14" d="M116.9 234.1l-3.4 1.4"/><path class="st9" d="M133.3 226.6s1.4-2.7 1.8-8.5c.4-5.2 2.2-7.2 3.2-4.7s3.8 10.5-1.7 17.9l-3.3-4.7z"/><path class="st9" d="M133.3 226.6s2.4-9.8 3.3-9 .9 4.7 0 6.5c1.4 2.2 1.4 5.1 0 7.3"/><g class="st18"><path d="M570.2 225c-3.5-.8-5.1-3.8-4.1-7.7.8-3.5 3.6-5.9 7.3-5 2.4.6 4.5 2.5 4.1 5.2l-1.6-.4c0-1.7-1-3-2.9-3.4-2.9-.7-4.7 1.4-5.3 4-.7 3.1.3 5.4 2.9 6 2.1.5 3.6-.4 4.4-2.6l1.6.4c-.9 2.9-3.3 4.2-6.4 3.5zM587.5 228.8l-1.8-.4-.5-4.1-5.1-1.2-2.3 3.4-1.7-.4 7.7-11 1.8.4 1.9 13.3zm-3.1-12l-3.5 5.1 4.2 1-.7-6.1zM593.7 230.6c-3.5-.8-5.1-3.8-4.1-7.7.8-3.5 3.6-5.9 7.3-5 2.4.6 4.5 2.5 4.1 5.2l-1.6-.4c0-1.7-1-3-2.9-3.4-2.9-.7-4.7 1.4-5.3 4-.7 3.1.4 5.4 2.9 6 2.1.5 3.6-.4 4.4-2.6l1.6.4c-1 3-3.4 4.3-6.4 3.5z"/></g><g class="st18"><path d="M611.9 187l6.6 9.2 1-11.3 2.2-.6 3.2 12.1-1.5.4-2.7-10.1-1.1 11.1-1.4.4-6.6-9.1 2.7 10.1-1.5.4-3.2-12.1 2.3-.5zM629.8 182.3c2.3-.6 4.3-.3 5 2.3.4 1.4-.1 2.8-1.3 3.5 1.8-.1 2.2 1 2.6 2.5.3 1 .6 2.2 1.5 2.7l-1.8.5c-.6-.5-.9-1.9-1.1-2.6-.6-2-1.3-2.4-3.5-1.8l-3.2.8 1.4 5.2-1.6.4-3.2-12.1 5.2-1.4zm-2.3 6.6l3-.8c1.6-.4 3.1-1 2.6-3-.5-1.8-1.9-1.7-3.3-1.4l-3.4.9 1.1 4.3zM641.4 179.2c2.3-.6 4.3-.3 5 2.3.4 1.4-.1 2.8-1.3 3.5 1.8-.1 2.2 1 2.6 2.5.3 1 .6 2.2 1.5 2.7l-1.8.5c-.6-.5-.9-1.9-1.1-2.6-.6-2-1.3-2.4-3.5-1.8l-3.2.8 1.4 5.2-1.6.4-3.2-12.1 5.2-1.4zm-2.2 6.6l3-.8c1.6-.4 3.1-1 2.6-3-.5-1.8-1.9-1.7-3.3-1.4l-3.4.9 1.1 4.3z"/></g><path d="M671.2 227l-7.6-3.3 5-11.5 1.5.7-4.4 10.2 6.1 2.7-.6 1.2z"/><g class="st18"><path d="M683.4 220.3l-3.9-1.7-4.4 10.2-1.5-.7 4.4-10.2-3.9-1.7.6-1.3 9.2 4-.5 1.4zM685.7 219.7l-1.1 11.4 7.7-8.5 1.6.7-9.1 9.7-1.7-.8.9-13.3 1.7.8z"/></g><g class="st18"><path d="M672.9 270.3l-.3-3.8-1.8.5-.2-1 2-.5-.2-2.9-1.8.5-.3-.9 2-.5-.3-3.8 1.1-.3.3 3.8 2.2-.6-.2-3.8 1.1-.3.3 3.8 1.8-.5.2.9-2 .5.2 2.9 1.8-.5.3.9-2 .5.3 3.8-1.1.3-.3-3.8-2.2.6.3 3.8-1.2.4zm2.8-8.6l-2.2.6.2 2.9 2.2-.6-.2-2.9zM685.5 260.3c-.4-1.1-1.3-1.4-2.6-1-1.1.3-1.7.9-1.5 1.7.3 1 1.4.8 2.7.8 1.6 0 3.6-.1 4.1 1.8.4 1.7-.7 3.2-2.9 3.8-2.4.6-4-.1-4.6-2.1l1.4-.4c.4 1.3 1.5 1.6 2.9 1.2 1.3-.3 2-1.1 1.8-2-.3-1-1.3-.9-2.6-.9-1.6 0-3.7.4-4.2-1.7-.4-1.6.6-2.9 2.7-3.5 2-.5 3.8 0 4.2 1.9l-1.4.4zM698.4 263.6c-.3.2-.6.3-.9.4-.8.2-1.4-.1-1.6-1-.6 1.2-1.5 1.9-2.8 2.2-1.7.5-3.1-.2-3.5-1.8-.4-1.6.4-2.8 2.4-3.6 2-.8 2.8-.9 2.4-2.1-.2-.9-1.1-1.3-2.4-.9-1.3.4-1.9 1-1.7 2.4l-1.4.4c-.4-1.9.6-3.4 2.9-3.9 1.2-.3 2.3-.3 3 .1.8.4 1 1.3 1.2 2.1.3 1.3.6 2.6 1 3.9.2.6.4.8.8.7.1 0 .2-.1.3-.1l.3 1.2zm-5.4-2.9c-1 .4-2.4.9-2.1 2.3.2.9 1 1.3 2.1 1 1.4-.4 2.4-1.6 2.1-2.8l-.4-1.6c-.3.6-1 .9-1.7 1.1zM701.3 262.9l-1.5.4-3.2-12.1 1.5-.4 3.2 12.1zM707.3 261.6c-2.6.7-4.6-.6-5.3-3.5-.7-2.8.4-5.2 2.8-5.8 2.9-.8 4.6 1.3 5.3 3.8l.1.2-6.6 1.7v.1c.5 1.9 1.8 2.7 3.5 2.3 1.3-.3 1.8-1.1 1.9-2.5l1.4-.4c0 2.2-1 3.6-3.1 4.1zm-2.2-8.1c-1.4.4-2.1 1.6-1.9 3.3l5.1-1.3c-.6-1.6-1.8-2.4-3.2-2zM716.1 252.4c-.4-1.1-1.3-1.4-2.6-1-1.1.3-1.7.9-1.5 1.7.3 1 1.4.8 2.7.8 1.6 0 3.6-.1 4.1 1.8.4 1.7-.7 3.2-2.9 3.8-2.4.6-4-.1-4.6-2.1l1.4-.4c.4 1.3 1.5 1.6 2.9 1.2 1.3-.3 2-1.1 1.8-2-.3-1-1.3-.9-2.6-.9-1.6 0-3.7.4-4.2-1.7-.4-1.6.6-2.9 2.7-3.5 2-.5 3.8 0 4.2 1.9l-1.4.4z"/></g><g class="st18"><path d="M559.1 267.7l-1.8.5-2.3-3.3-5.1 1.4-.4 4.1-1.7.5 1.5-13.4 1.8-.5 8 10.7zm-8.5-9.1l-.6 6.2 4.1-1.1-3.5-5.1zM562.4 253.8c2.3-.6 4.3-.4 5 2.2.4 1.4-.1 2.8-1.3 3.5 1.8-.1 2.2 1 2.6 2.5.3 1 .6 2.2 1.5 2.6l-1.8.5c-.6-.5-.9-1.9-1.1-2.6-.7-2-1.3-2.4-3.5-1.8l-3.2.9 1.4 5.2-1.6.4-3.3-12.1 5.3-1.3zm-2.3 6.6l3-.8c1.6-.4 3.1-1 2.6-3-.5-1.8-1.9-1.7-3.3-1.3l-3.4.9 1.1 4.2z"/></g><path d="M573.7 250.7c2.3-.6 4.3-.1 5 2.4.7 2.7-.8 4.1-3.1 4.8l-3.3.9 1.3 5-1.6.4-3.3-12.1 5-1.4zm-1.8 6.7l3.1-.8c1.5-.4 2.6-1.2 2.1-2.9-.5-1.9-2-1.8-3.6-1.4l-2.9.8 1.3 4.3zM591.5 258.9l-1.8.5-2.3-3.3-5.1 1.4-.4 4.1-1.7.5 1.5-13.4 1.8-.5 8 10.7zm-8.5-9.1l-.6 6.2 4.1-1.1-3.5-5.1z"/><path class="st19" d="M527.5 112.9v101.7l-67 26"/><path class="st5" d="M527.5 107.2l-4.5 9.2 9-3.1zM466 234.2l-7.6 7.7 7.6 2.1z"/><path class="st15" d="M479 228.9l-7.2 2.7v-83.7l7.2-2.6zM493.1 223.8l-7.3 2.6v-71.6l7.3-2.7zM507.1 218.6l-7.2 2.6v-51.6l7.2-2.7zM521.2 213.4l-7.3 2.7v-31.7l7.3-2.7zM542.4 104.4c-.2 1.4-1.2 2.5-2.5 2.9-1.4.4-2.5-.2-2.5-1.3.2-1.4 1.2-2.5 2.5-2.9 1.4-.4 2.5.2 2.5 1.3zM540.8 107.6c-.7.1-1.3.3-1.9.6-3.5 1.5-5.6 5.2-5.2 9 .2 1.3 2.7.5 2.5-.8-.2-1.4 0-2.9.6-4.2v4.6c0 3.5 0 5.4-.2 8.9-.1 1.6 2.8.7 2.9-.9.1-2.8.2-3.9.2-6.7l.4-.1c0 2.7 0 3.9.2 6.5.1 1.5 3 .6 2.9-.9-.2-3.4-.2-5.3-.2-8.8v-.3c0-1.5-.1-3-.1-4.5.9.9.9 2.8.8 4s2.3.6 2.5-.8c.4-3-1-6.7-5.4-5.6zM447.9 237.6c-4.6 1.4-8.3 5.6-8.2 9.5s3.9 5.8 8.5 4.4 8.3-5.6 8.2-9.5-3.8-5.8-8.5-4.4zm3.4 9.6c-.6.7-1.4 1.3-2.4 1.6v1.3l-1.3.4v-1.3c-1.7.4-2.8-.1-3.3-1.5l2-1.1c.2.9.9 1.2 1.9.9.4-.1.8-.3 1.1-.6.2-.2.3-.5.3-.9 0-.3-.1-.5-.4-.6-.5-.1-1.1-.1-1.6-.1-.6 0-1.2 0-1.7-.1-.4-.1-.7-.3-1-.6s-.4-.7-.4-1.2c0-.7.2-1.4.6-2 .5-.7 1.3-1.3 2.1-1.6v-1l1.3-.4v1c1.5-.3 2.5.1 2.9 1.2l-1.8 1.2c-.2-.7-1-1-1.7-.8-.3.1-.7.3-.9.6-.2.2-.3.5-.3.8 0 .2.1.5.4.5.5.1.9.1 1.4.1.6 0 1.2 0 1.9.1.4.1.8.2 1.1.6.3.3.4.8.4 1.2.2.9-.1 1.7-.6 2.3z"/><path class="st19" d="M159.6 164.4V265l88.4-22.9"/><path class="st5" d="M159.6 158.6l-4.5 9.2 9-3zM247 238.2l7.4 1.5-7.1 6.3z"/><path class="st19" d="M177.5 260.4v-8M160.1 247.1l8-2M160.1 225.5l8-2M160.1 203.8l8-2M160.1 182.2l8-2M196.9 255.4v-8M216.4 250.4v-7.9M235.8 245.3v-8"/><path class="st10" d="M167.2 249.9l3.5 1.5 9.7-18.3 9.7 8.1 12.2-26.6 8 13.8 39.3-58.9-2.5-1.9-36.8 54.7-8.2-13.5-12.9 27.1-9.3-7.1z"/><path class="st10" d="M242.7 166.6l9.2 6.4 1.3-11.9z"/><path d="M161.8 270.6l2.1 8.9 2.4-10.1 1.6-.4 2.4 8.8 2.2-10.1 1.4-.4-2.9 12.1-1.5.4-2.5-8.8-2.5 10.2-1.5.4-2.8-10.6 1.6-.4z"/><g class="st18"><path d="M177.5 278c-2.3.6-3.7-.6-3.7-3.3 0-2.7 1.5-4.8 3.6-5.4 2.6-.7 3.5 1.2 3.5 3.6v.2l-5.9 1.5v.1c0 1.8.9 2.6 2.4 2.2 1.1-.3 1.7-1 2.1-2.3l1.3-.3c-.3 2-1.5 3.3-3.3 3.7zm-.1-7.5c-1.3.3-2.1 1.5-2.3 3.1l4.5-1.2c-.1-1.6-.9-2.3-2.2-1.9zM183.6 269.1c.6-1.1 1.5-1.8 2.6-2 2.1-.6 3.5.8 3.5 3.4 0 2.7-1.4 4.8-3.6 5.3-1.1.3-2.1.1-2.6-.8v1.2l-1.2.3v-11.3l1.3-.3v4.2zm0 3c0 1.9.9 2.9 2.4 2.5 1.4-.4 2.4-1.9 2.4-3.9 0-1.9-.9-2.9-2.4-2.5-1.8.5-2.4 2.3-2.4 3.9zM195.8 267.1c-.1-1.1-.8-1.3-1.9-1-1 .3-1.6.8-1.6 1.5 0 .9 1 .8 2.1.8 1.3 0 3-.1 3 1.7 0 1.6-1.3 3-3.2 3.5-2.1.6-3.3-.1-3.4-2l1.3-.3c.1 1.2.9 1.5 2.1 1.2 1.2-.3 1.9-1 1.9-1.9s-.9-.9-2-.9c-1.3 0-3.1.3-3.1-1.6 0-1.5 1.2-2.7 3-3.2s3.1.1 3.1 1.8l-1.3.4zM200.3 262.1l-1.3.3v-1.7l1.3-.3v1.7zm0 9.7l-1.3.3v-8.2l1.3-.3v8.2zM205.6 263.3l-1.6.4v4.8c0 .7 0 1.2.9 1 .3-.1.4-.1.7-.2v1.2c-.4.2-.6.2-1 .3-2 .5-1.9-.5-1.9-2.3v-4.4l-1.3.3v-1.1l1.3-.3v-2.4l1.3-.3v2.4l1.6-.4v1zM210.3 269.4c-2.3.6-3.7-.6-3.7-3.3 0-2.7 1.5-4.8 3.6-5.4 2.6-.7 3.5 1.2 3.5 3.6v.2l-5.9 1.5v.1c0 1.8.9 2.6 2.4 2.2 1.1-.3 1.7-1 2.1-2.3l1.3-.3c-.3 2-1.5 3.2-3.3 3.7zm-.1-7.6c-1.3.3-2.1 1.5-2.3 3.1l4.5-1.2c-.1-1.5-.9-2.2-2.2-1.9z"/></g><g class="st18"><path d="M219.9 255.3l3.1 9.1 3.1-10.7 1.5-.4-3.8 12.4-1.6.4-3.8-10.3 1.5-.5z"/></g><g class="st18"><path d="M229.7 254.4l-1.3.3V253l1.3-.3v1.7zm0 9.6l-1.3.3v-8.1l1.3-.3v8.1zM236.2 256.5c-.1-1.1-.8-1.3-1.9-1-1 .3-1.6.8-1.6 1.5 0 .9 1 .8 2.1.8 1.3 0 3-.1 3 1.7 0 1.6-1.3 3-3.2 3.5-2.1.6-3.3-.1-3.4-2l1.3-.3c.1 1.2.9 1.5 2.1 1.2 1.2-.3 1.9-1 1.9-1.9s-.9-.9-2-.9c-1.3 0-3.1.3-3.1-1.6 0-1.5 1.2-2.7 3-3.2s3.1.1 3.1 1.8l-1.3.4zM240.6 251.5l-1.3.3v-1.6l1.3-.3v1.6zm0 9.7l-1.3.3v-8.2l1.3-.3v8.2zM245.9 252.7l-1.6.4v4.8c0 .7 0 1.2.9 1 .3-.1.4-.1.7-.2v1.2c-.4.2-.6.2-1 .3-2 .5-1.9-.5-1.9-2.3v-4.4l-1.3.3v-1.1l1.3-.3V250l1.3-.3v2.4l1.6-.4v1zM254.5 253.3c0 2.8-1.4 4.8-3.8 5.4-2.4.6-3.8-.6-3.8-3.3 0-2.7 1.5-4.8 3.8-5.4 2.4-.6 3.8.6 3.8 3.3zm-6.2 1.7c0 2 .9 3 2.5 2.6 1.5-.4 2.4-1.8 2.4-3.9 0-2-.9-3-2.5-2.6-1.5.5-2.4 2-2.4 3.9zM260.1 249c-.1 0-.2 0-.3.1-2.1.6-2.5 2.4-2.5 4.2v3.5l-1.3.3v-8.2l1.2-.3v1.8c.5-1.5 1.5-2.4 2.9-2.7v1.3zM265.6 248.8c-.1-1.1-.8-1.3-1.9-1-1 .3-1.6.8-1.6 1.5 0 .9 1 .8 2.1.8 1.3 0 3-.1 3 1.7 0 1.6-1.3 3-3.2 3.5-2.1.6-3.3-.1-3.4-2l1.3-.3c.1 1.2.9 1.5 2.1 1.2 1.2-.3 1.9-1 1.9-1.9s-.9-.9-2-.9c-1.3 0-3.1.3-3.1-1.6 0-1.5 1.2-2.7 3-3.2s3.1.1 3.1 1.8l-1.3.4z"/></g></svg>