<svg xmlns="http://www.w3.org/2000/svg" viewBox="0 0 120 112.43"><defs><style>.cls-13{fill:none}.cls-10,.cls-13,.cls-5,.cls-9{stroke-miterlimit:10}.cls-5,.cls-9{stroke-width:.5px}.cls-5{fill:#1a1a1a}.cls-10,.cls-13,.cls-5,.cls-9{stroke:#000}.cls-10,.cls-7,.cls-9{fill:#f2f2f2}.cls-8{fill:#ffe600}.cls-13{stroke-width:.25px}</style></defs><g id="Layer_2" data-name="Layer 2"><g id="_100_" data-name="100%"><path d="M106.5 14.17C104.28 11.74 95.73 2.36 81.64.47c-3-.4-17.09-2.29-26 6-11.74 11-1.81 28.07-11.87 41.16-8.65 11.25-25.08.26-36.17 11.5C1.84 65-1.22 74.85.81 82.21c6.34 23 68.94 45.86 100.87 16 23.25-21.79 22.7-64.43 4.82-84.04z" fill="#fff"/><rect y="96.12" width="120" height="2.13" rx="1.06" ry="1.06" id="Layer_1_copy_13" data-name="Layer 1 copy 13"/><g id="Layer_157" data-name="Layer 157"><path d="M80.16 56.15L79.35 58s.1 2.9-2.68 2.35a1.5 1.5 0 0 1-.8-2.07s.57-.09.83.84c0 0 1.44 1.12 1.67-.84 0 0-.71-1.85-1.55-.16 0 0-.9 1-1-.1a1.78 1.78 0 0 1 2.26-1.88l1-.77z" stroke-width=".5" stroke-miterlimit="10" stroke="#020202" fill="none"/><path d="M40.67 56.15l.82 1.85s-.1 2.9 2.68 2.35a1.5 1.5 0 0 0 .8-2.07s-.57-.09-.83.84c0 0-1.44 1.12-1.67-.84 0 0 .71-1.85 1.55-.16 0 0 .9 1 1-.1a1.78 1.78 0 0 0-2.26-1.88l-1-.77z" stroke-width=".5" stroke-miterlimit="10" stroke="#020202" fill="#fff"/><path fill="#1a1a1a" d="M67.97 34.89l-15.45.98 1.45-7.16 13.59 1.37.41 4.81z"/><path class="cls-5" d="M48.49 38.36a16 16 0 0 0 3.18-.68c.15-.06.9-.51 1.58-1l1.16-.93.38-1.09v.08a10.61 10.61 0 0 0 .54-5 .64.64 0 0 1 0-.23 5.13 5.13 0 0 1-.84-2c0-.23-.17-.5-.4-.52-.76 0-1.12-1.37-1.27-2.18A28.14 28.14 0 0 1 57 22.62c1.16-.65 3.43-2.26 3.49-2.23a15.53 15.53 0 0 0 2.14-1.08c.54-.37 2.65-1.36 2.57-2.1a14.86 14.86 0 0 0 .76 2.4c.26.91.63 1.78.81 2.72a11 11 0 0 1-.23 5.47 8.78 8.78 0 0 1-2.37 3.45 11.41 11.41 0 0 0 .08 3.35v.09l.38 1.09 1.37 1.1a.87.87 0 0 1 .29.35 39.64 39.64 0 0 0 4.21 1.22 10.24 10.24 0 0 1 3.55 1.61c-.46-2.17-1-4.31-1.62-6.45s-1.21-4-1.8-6-.22-3.45-.41-5.37c-.56-5.59-3.39-9.75-9-10.63-5.22-.77-9.62 3.58-10.31 8.59a15.83 15.83 0 0 0-.13 1.8 35 35 0 0 1-.19 5.1 41.21 41.21 0 0 1-1.9 7.33c-.42 1.16-1.36 2.83-2.18 4.63a4.34 4.34 0 0 1 .41-.23 6.17 6.17 0 0 1 1.57-.47z"/><path d="M50.78 35.84l9.53-3.44 9.18 3.2s16.45 3.27 15 13.56c0 0-.21 2.64-4.28 7.72l-1.84-1.53s8.45-8.07.21-13.22c0 0-5.25-3.13-8.07-3.58L65.45 51H54.67l-4.45-12.45s-13.46 3.1-11.34 11a21 21 0 0 0 3.58 5.77l-1.77 1.56s-7.2-6.88-3.76-12.7a20.76 20.76 0 0 1 13.85-8.34z" fill="#eb058c" stroke="#000" stroke-miterlimit="10"/><path class="cls-7" d="M56.19 34.21l1.75 2.08 1.83-1.38-1.99 2.42-1.59-3.12zM61.12 35.01l1.9 1.23 1.67-1.88-1.56 2.79-2.01-2.14z"/><path class="cls-8" d="M60.46 44.88l2.35-3L61 34.52s.92-.17.6-1.25h-2.44a1.14 1.14 0 0 0 .59 1.3L58 41.78z"/><circle class="cls-8" cx="60.57" cy="46.48" r=".49"/><circle class="cls-8" cx="60.57" cy="48.98" r=".49"/><path class="cls-9" d="M67.54 56.88l9.28 1.42-8.66 3.08-.62-4.5zM51.94 56.88l-8.19 1.37 7.62 2.56.57-3.93z"/><path class="cls-10" d="M67.54 73.33L65 95.24s2.12.21 2.71 1.53a5.3 5.3 0 0 1-4.59-.94l-.73-22.67zM53 73.33l2.5 21.91s-2.12.21-2.71 1.53a5.3 5.3 0 0 0 4.59-.94l.73-22.67z"/><path d="M50.53 74.13S46.68 60.73 54.67 51h10.78s6.94 7.44 4.29 23.13z" fill="#0077bf" stroke="#000" stroke-miterlimit="10"/><path d="M57.36 31.74l.26.24a4 4 0 0 0 5.82 0l.26-.24.5-.47a8.78 8.78 0 0 0 2.37-3.45 11 11 0 0 0 .23-5.47c-.18-.94-.55-1.81-.81-2.72a14.86 14.86 0 0 1-.76-2.4c.08.74-2 1.73-2.57 2.1a15.53 15.53 0 0 1-2.14 1.08h0c-.06 0-2.33 1.58-3.49 2.23a28.14 28.14 0 0 0-4.18 2.25c.15.8.51 2.13 1.27 2.18.23 0 .36.29.4.52a5.13 5.13 0 0 0 .84 2 12 12 0 0 0 2 2.15z" stroke="#000" stroke-width=".5" stroke-miterlimit="10" fill="#fff"/><path class="cls-13" d="M63.08 23.54a2.77 2.77 0 0 1 2.27 0M56.94 23.54a2.77 2.77 0 0 1 2.27 0"/><circle class="cls-5" cx="64.09" cy="24.92" r=".59"/><circle class="cls-5" cx="58.4" cy="24.92" r=".59"/><path class="cls-13" d="M62.76 30.47a2.93 2.93 0 0 0-3.88-.47M61.68 24.38a4.34 4.34 0 0 0-.05 1.7c.07.43.21.84.3 1.27a1.06 1.06 0 0 1 0 .64.41.41 0 0 1-.53.24"/></g></g></g></svg>