<svg xmlns="http://www.w3.org/2000/svg" viewBox="0 0 120 112.43"><defs><style>.cls-2,.cls-4{fill:#ffe600;stroke:#000;stroke-miterlimit:10}.cls-4{fill:#0077bf}</style></defs><g id="Layer_2" data-name="Layer 2"><g id="bought"><path d="M106.5 14.17C104.28 11.74 95.73 2.36 81.64.47c-3-.4-17.09-2.29-26 6-11.74 11-1.81 28.07-11.87 41.16-8.65 11.25-25.08.26-36.17 11.5C1.84 65-1.22 74.85.81 82.21c6.34 23 68.94 45.86 100.87 16 23.25-21.79 22.7-64.43 4.82-84.04z" fill="#fff"/><rect y="96.12" width="120" height="2.13" rx="1.06" ry="1.06" id="Layer_1_copy_11" data-name="Layer 1 copy 11"/><g id="Layer_150" data-name="Layer 150"><path class="cls-2" d="M87.93 43.91h-4.54a1.14 1.14 0 0 1 0-2.27h4.54a1.14 1.14 0 1 1 0 2.27zM84.53 51.86a1.13 1.13 0 0 1-.33 0l-2.2-.71a1.14 1.14 0 1 1 .68-2.15l2.17.66a1.14 1.14 0 0 1-.33 2.22zM82.35 36.63A1.14 1.14 0 0 1 82 34.4l2.17-.66a1.14 1.14 0 0 1 .66 2.17l-2.17.66a1.15 1.15 0 0 1-.31.06zM38 43.91h-4.56a1.14 1.14 0 1 1 0-2.27H38a1.14 1.14 0 0 1 0 2.27zM36.84 51.86a1.14 1.14 0 0 1-.33-2.22l2.18-.64a1.14 1.14 0 1 1 .66 2.17l-2.17.66a1.13 1.13 0 0 1-.34.03zM39 36.63a1.15 1.15 0 0 1-.33 0l-2.17-.66a1.14 1.14 0 0 1 .66-2.17l2.17.66a1.14 1.14 0 0 1-.33 2.17zM78.85 42.78a18.16 18.16 0 1 1-18.16-18.16 18.16 18.16 0 0 1 18.16 18.16z"/><path class="cls-2" d="M75.44 42.78A14.76 14.76 0 1 1 60.69 28a14.76 14.76 0 0 1 14.75 14.78z"/><path d="M61.82 42v-4.77c1.35.28 2.27 1 2.27 1.72a1.14 1.14 0 1 0 2.27 0c0-2-1.92-3.66-4.54-4V33.7a1.14 1.14 0 0 0-2.27 0v1.22c-2.62.37-4.54 2-4.54 4 0 2.86 2.49 4 4.54 4.66v4.72c-1.35-.28-2.27-1-2.27-1.72a1.14 1.14 0 0 0-2.27 0c0 2 1.92 3.66 4.54 4v1.22a1.14 1.14 0 1 0 2.27 0v-1.15c2.62-.37 4.54-2 4.54-4 0-2.9-2.49-4.02-4.54-4.65zm-4.54-3c0-.69.92-1.44 2.27-1.72v4c-1.69-.76-2.27-1.36-2.27-2.33zm4.54 9.38v-4c1.69.66 2.27 1.27 2.27 2.23 0 .69-.92 1.39-2.27 1.72z" fill="#eb058c" stroke="#000" stroke-miterlimit="10"/><path class="cls-4" d="M66.36 82.51H55a1.14 1.14 0 0 1 0-2.27h11.36a1.14 1.14 0 1 1 0 2.27zM66.36 76.84H55a1.14 1.14 0 0 1 0-2.27h11.36a1.14 1.14 0 1 1 0 2.27zM66.36 71.16H55a1.14 1.14 0 0 1 0-2.27h11.36a1.14 1.14 0 1 1 0 2.27zM66.36 65.48H55a1.14 1.14 0 0 1 0-2.27h11.36a1.14 1.14 0 1 1 0 2.27zM66.36 59.81H55a1.14 1.14 0 0 1 0-2.27h11.36a1.14 1.14 0 1 1 0 2.27zM66.36 93.87H55a1.14 1.14 0 0 1 0-2.27h11.36a1.14 1.14 0 1 1 0 2.27zM66.36 88.19H55a1.14 1.14 0 0 1 0-2.27h11.36a1.14 1.14 0 1 1 0 2.27z"/><path class="cls-4" d="M55 96.14A1.13 1.13 0 0 1 53.87 95V55.27a1.14 1.14 0 1 1 2.27 0V95A1.14 1.14 0 0 1 55 96.14zM66.36 96.14A1.13 1.13 0 0 1 65.23 95V55.27a1.14 1.14 0 1 1 2.27 0V95a1.14 1.14 0 0 1-1.14 1.14z"/></g></g></g></svg>