<?xml version="1.0" encoding="utf-8"?>
<!-- Generator: Adobe Illustrator 22.0.1, SVG Export Plug-In . SVG Version: 6.00 Build 0)  -->
<svg version="1.1" id="Layer_1" xmlns="http://www.w3.org/2000/svg" xmlns:xlink="http://www.w3.org/1999/xlink" x="0px" y="0px"
	 viewBox="0 0 940.6 835.1" style="enable-background:new 0 0 940.6 835.1;" xml:space="preserve">
<style type="text/css">
	.st0{fill:#F5F5F5;}
	.st1{fill:#BCBCBC;}
	.st2{fill:#1A1A1A;stroke:#000000;stroke-width:0.5;stroke-miterlimit:10;}
	.st3{fill:#FFE600;stroke:#000000;stroke-width:0.5;stroke-miterlimit:10;}
	.st4{fill:#FFFFFF;stroke:#000000;stroke-width:0.5;stroke-miterlimit:10;}
	.st5{fill:#1A1A1A;}
	.st6{fill:#FFFFFF;stroke:#000000;stroke-miterlimit:10;}
	.st7{fill:none;stroke:#000000;stroke-width:0.5;stroke-miterlimit:10;}
	.st8{fill:#F2F2F2;stroke:#000000;stroke-width:0.5;stroke-miterlimit:10;}
	.st9{fill:#0077BF;stroke:#000000;stroke-width:0.5;stroke-miterlimit:10;}
	.st10{fill:#CCCCCC;stroke:#000000;stroke-width:0.5;stroke-miterlimit:10;}
	.st11{fill:#EB058C;stroke:#000000;stroke-width:0.5;stroke-miterlimit:10;}
	.st12{fill:#C10072;stroke:#000000;stroke-width:0.5;stroke-miterlimit:10;}
</style>
<title>PM51</title>
<g id="Layer_7">
	<path class="st0" d="M418,172.5c0,0,6.1-199.2,224.6-169.5c0,0,261.1,5.2,295.4,327c0,0,25.9,143.4-83.3,331.2
		c0,0-106.6,146.3-259.3,168.1c0,0-263.8,41.4-454.6-97.5c0,0-259.4-138.6-73.8-327.1c0,0,69.5-58.6,177.5-33.2
		C244.4,371.6,408.8,421.9,418,172.5z"/>
</g>
<ellipse class="st1" cx="425.6" cy="756.6" rx="154.4" ry="14.4"/>
<ellipse class="st1" cx="588.2" cy="727.9" rx="108.8" ry="11.2"/>
<ellipse class="st1" cx="352.1" cy="727.9" rx="108.8" ry="11.2"/>
<ellipse class="st1" cx="248.4" cy="719.9" rx="121.9" ry="11.2"/>
<ellipse class="st1" cx="744.4" cy="719.9" rx="121.9" ry="11.2"/>
<g id="Layer_9">
	<path class="st2" d="M192,706.2h-18.5l3-318.1l119.7,13.5l30.1,304.6H308l-68.6-270.8c0,0-3.8-6.6-8.6,0L192,706.2h-18.5"/>
	<path class="st3" d="M175,278.2c0,0,10.5,70.3,1.7,109.9c0,0,49.4,34.2,119.7,13.5l4.4-105.8l24,22.9l24.2,89l12.4-0.9l-6.6-99.8
		l-54.5-75.1c0,0-9.1-7.3-52.6-6.6c0,0-16.9,14.1-29.3,0c-12.9-4.1-27.8-5.4-40.5-0.8c-16.6,11.4-58,54.6-77.7,84.7
		c-4.1,6.2-2.5,14.5,3.6,18.8c14.5,10.3,41.2,29.1,58.7,40.7l9.3-11.4l-40.5-44.9L175,278.2z"/>
	<path class="st4" d="M348.7,407.6c-14.7,10.1,0.4,9.5,0.4,9.5s5.3,18.7,9.9,18.3c6.3-0.5,2.1-28.6,2.1-28.6L348.7,407.6z"/>
	<polygon class="st5" points="308,706.2 308,722.1 316.6,722.1 316.6,718.2 322,722.1 362.1,722.1 362.1,722.1 326.4,706.2 	"/>
	<polygon class="st5" points="192,706.2 192,722.1 183.4,722.1 183.4,718.2 178,722.1 137.9,722.1 137.9,722.1 173.6,706.2 	"/>
	<path class="st4" d="M221,213.8l-15.8,15.9l24,2.8c0,0,12.4-13.7,1.5-17.4L221,213.8z"/>
	<polygon class="st4" points="235.6,233 260.3,234.4 251.7,217.9 237.4,216 	"/>
	<path class="st5" d="M229.2,230.5L216,335.6l17.8,21.8l14.8-23.8L233.9,231C233.9,231,232,225.7,229.2,230.5z"/>
	<path class="st4" d="M249.8,219.6c0.2,0.4,0.3,0.8,0.2,1.1c-0.1,0.4-0.3,0.7-0.6,1c-3.2,3.5-6.8,6.6-10.6,9.4
		c-2.2,1.6-5.1,3.2-7.8,2.2c-1.6-0.7-3-1.9-4-3.4l-4.8-5.8c2.2-1.5,2.2-4.7,2-7.4c-0.4-3.5-0.9-7.1-1.6-10.6
		c5.7-4.4,12.5-7.3,19.7-8.3c2.4-0.4,3.7,0,3.8,2.6c0,2.2,0.1,4.4,0.3,6.6C247,211.5,248.1,215.7,249.8,219.6z"/>
	<path class="st4" d="M244.9,207.2c-6.4,4.2-14.4,7.6-21.6,5.2c-5.4-1.8-9.3-6.5-11.9-11.5c-2.7-5.4-4.8-11.1-6.4-17
		c-1.3-3.6-2.1-7.4-2.3-11.3c0-5.5,2.2-10.8,4.4-15.8c3.6-8.3,7.8-17.1,15.6-21.7c4.6-2.3,9.6-3.8,14.7-4.4
		c3.7-0.8,7.6-1.1,11.4-0.7c3.2,0.5,6.2,1.6,9,3.2c8,4.3,14.1,11.3,17.3,19.8C282.9,175.4,262.2,196,244.9,207.2z"/>
	<path class="st6" d="M244,158.1c4.4,0.7,7.7,4.2,8.1,8.7"/>
	<path class="st6" d="M213,153.8c3.4-2.9,8.3-3.1,11.8-0.4"/>
	<path class="st4" d="M224.7,181.6c-1.3-0.9-2.6-1.9-3.8-2.9c-0.3-0.2-0.6-0.5-0.8-0.9c-0.4-0.9,0.1-1.8,0.6-2.6l2.7-4.2"/>
	<ellipse transform="matrix(0.4862 -0.8739 0.8739 0.4862 -24.5763 296.2573)" class="st2" cx="239.6" cy="169" rx="2.8" ry="2.2"/>
	<ellipse transform="matrix(0.4862 -0.8739 0.8739 0.4862 -31.1798 273.85)" class="st2" cx="217.3" cy="163.4" rx="2.8" ry="2.2"/>
	<path class="st5" d="M262.5,175.4c0,0,7.2,0.8-3.2,11.5c0,0,1.4,8.3-3.6,12.2c0,0,12.5-2.6,26.8-26.5c0,0,6.7-22.3-7.8-36.1
		c0,0-18.5-18.4-44-10c0,0-27,9.6-25.9,35.3c0,0,8.3-19.1,20.3-25.1c0,0,19,11.1,28.5,8.8C253.8,145.5,262.3,150.5,262.5,175.4z"/>
	<path class="st7" d="M215.6,188.4c0,0,5.4,7.7,16.5,3.2C231.9,191.7,223.4,203.8,215.6,188.4z"/>
	<path class="st7" d="M236.4,187.2c0.7,1.1,0.8,2.5,0.3,3.7"/>
	<path class="st7" d="M216.8,159.8c2.6,0.9,4.6,3,5.3,5.6"/>
	<path class="st7" d="M239.9,165.2c1.9,1.4,3.2,3.4,3.8,5.7"/>
	<path class="st4" d="M171.8,357.4c4.7,0,9.4,0.6,13.9,1.8c12.1,3.6,15.6,14.6,11.8,18.3c-3.5,3.4-13.9,1.4-16.7-1.6
		c-4.5-4.8-9,1.2-15-4l-3.3-2.9L171.8,357.4z"/>
</g>
<g id="Layer_9-2">
	<path class="st2" d="M686.8,705.3h-18.5l3-318.1L791,400.8l30.1,304.6h-18.4l-68.6-270.9c0,0-3.8-6.6-8.7,0L686.8,705.3h-18.5"/>
	<path class="st3" d="M836.5,311.6L796,356.5l9.3,11.4c17.5-11.6,44.2-30.4,58.7-40.7c6.1-4.3,7.6-12.6,3.6-18.8
		c-19.7-30.2-61.2-73.4-77.7-84.7c-12.6-4.6-27.6-3.3-40.5,0.8c-12.4,14.1-29.3,0-29.3,0c-43.5-0.7-52.6,6.6-52.6,6.6L613,306.1
		l-6.6,99.8l12.4,1l24.2-89l24-22.9l4.4,105.8c70.3,20.7,119.6,0,119.6,0c-8.8-39.6,1.7-123.4,1.7-123.4L836.5,311.6z"/>
	<path class="st4" d="M606.6,405.8c0,0-4.3,28.1,2.1,28.6c4.6,0.4,9.9-18.3,9.9-18.3s15.1,0.7,0.4-9.5L606.6,405.8z"/>
	<polygon class="st5" points="802.8,705.3 802.8,721.2 811.4,721.2 811.4,717.3 816.8,721.2 856.9,721.2 856.9,721.2 821.2,705.3 	
		"/>
	<polygon class="st5" points="686.8,705.3 686.8,721.2 678.2,721.2 678.2,717.3 672.8,721.2 632.7,721.2 632.7,721.2 668.4,705.3 	
		"/>
	<path class="st4" d="M715.9,213L700,228.9l24,2.8c0,0,12.4-13.7,1.5-17.4L715.9,213z"/>
	<polygon class="st4" points="730.4,232.1 755.1,233.5 746.5,217 732.2,215.1 	"/>
	<path class="st5" d="M724,229.6l-13.2,105.1l17.8,21.8l14.8-23.8l-14.7-102.7C728.7,230.1,726.8,224.8,724,229.6z"/>
	<path class="st4" d="M744.6,218.8c0.2,0.4,0.3,0.8,0.2,1.1c-0.1,0.4-0.3,0.7-0.6,1c-3.2,3.5-6.8,6.6-10.6,9.4
		c-2.2,1.6-5.1,3.2-7.8,2.2c-1.6-0.7-3-1.9-4-3.4l-4.8-5.8c2.2-1.5,2.2-4.7,2-7.4c-0.4-3.5-0.9-7.1-1.6-10.6
		c5.7-4.4,12.5-7.3,19.7-8.3c2.4-0.4,3.7,0,3.8,2.6c0,2.2,0.1,4.4,0.3,6.6C741.8,210.6,742.9,214.8,744.6,218.8z"/>
	<path class="st4" d="M739.7,206.3c-6.4,4.2-14.4,7.6-21.7,5.2c-5.4-1.8-9.3-6.5-11.9-11.5c-2.7-5.4-4.8-11.1-6.4-17
		c-1.3-3.6-2.1-7.4-2.3-11.3c0-5.5,2.2-10.8,4.4-15.8c3.6-8.3,7.8-17.1,15.6-21.7c4.6-2.3,9.6-3.8,14.7-4.4
		c3.7-0.8,7.6-1.1,11.3-0.7c3.2,0.5,6.2,1.6,9,3.2c8,4.3,14.1,11.3,17.3,19.8C777.7,174.5,757,195.1,739.7,206.3z"/>
	<path class="st6" d="M738.9,157.2c4.4,0.7,7.7,4.2,8.1,8.7"/>
	<path class="st6" d="M707.8,152.9c3.4-2.9,8.3-3.1,11.8-0.4"/>
	<path class="st4" d="M719.5,180.7c-1.3-0.9-2.6-1.9-3.8-2.9c-0.3-0.2-0.6-0.5-0.8-0.9c-0.4-0.9,0.2-1.8,0.7-2.6l2.7-4.2"/>
	
		<ellipse transform="matrix(0.4862 -0.8739 0.8739 0.4862 230.4435 728.1818)" class="st2" cx="734.4" cy="168.1" rx="2.8" ry="2.2"/>
	
		<ellipse transform="matrix(0.4862 -0.8739 0.8739 0.4862 223.8386 705.7697)" class="st2" cx="712.1" cy="162.5" rx="2.8" ry="2.2"/>
	<path class="st5" d="M757.3,174.5c0,0,7.2,0.8-3.2,11.5c0,0,1.4,8.2-3.6,12.2c0,0,12.5-2.6,26.8-26.5c0,0,6.7-22.3-7.8-36
		c0,0-18.5-18.4-44-10c0,0-27,9.6-25.9,35.3c0,0,8.3-19.1,20.3-25.1c0,0,19,11.1,28.5,8.8C748.6,144.6,757,149.6,757.3,174.5z"/>
	<path class="st7" d="M710.4,187.5c0,0,5.4,7.7,16.5,3.2C726.7,190.8,718.2,202.9,710.4,187.5z"/>
	<path class="st7" d="M731.2,186.3c0.7,1.1,0.8,2.5,0.3,3.7"/>
	<path class="st7" d="M711.6,158.9c2.6,0.9,4.6,3,5.3,5.6"/>
	<path class="st7" d="M734.7,164.3c1.9,1.4,3.2,3.4,3.8,5.7"/>
	<path class="st4" d="M796,356.5c-4.7,0-9.4,0.6-13.9,1.8c-12.1,3.6-15.6,14.6-11.8,18.3c3.5,3.4,13.9,1.4,16.7-1.6
		c4.5-4.8,9,1.2,15-4l3.3-2.9L796,356.5z"/>
</g>
<g id="Layer_8">
	<path class="st4" d="M377.3,274.1c0.1,0.3,0.2,0.7,0.1,1.1c-0.1,0.3-0.4,0.6-0.7,0.8c-3.4,2.8-7,5.2-10.9,7.2
		c-2.3,1.2-5,2.3-7.3,1.1c-1.4-0.9-2.5-2.1-3.2-3.5l-3.6-6c2.2-1.1,2.7-4,2.8-6.5c0.1-3.3,0.1-6.5-0.1-9.8c5.8-3.3,12.3-5,18.9-5
		c2.3,0,3.4,0.5,3.1,2.8c-0.3,2-0.5,4.1-0.5,6.1C375.8,266.4,376.2,270.3,377.3,274.1z"/>
	<path class="st8" d="M391.6,710.7h12.2c0,0,10.8-207.8,8.4-255.5c-1.5-30.1-18.2-45.9-18.2-45.9h-66.5c0,0-16.7,15.8-18.2,45.9
		c-2.3,47.8-17.6,255.5-17.6,255.5h14.2c0,0,49.2-250.6,55-248C360.7,462.8,384.4,568.2,391.6,710.7z"/>
	<path class="st5" d="M307.6,708.7v23.3h-3.4l-2.5-9.8l-6.1,9.8h-34.2c13.2-2.7,24.4-11.3,30.5-23.3H307.6z"/>
	<path class="st5" d="M389.4,708.7v23.3h3.4l2.5-9.8l6.1,9.8h34.2c-13.2-2.7-24.4-11.3-30.5-23.3H389.4z"/>
	<path class="st2" d="M372.2,259.4L372.2,259.4l0.8,4.5l4.5,5.2c0.4,0.4,0.7,0.9,0.9,1.5c5,2.8,10.2,5.3,15.4,7.5
		c5.5,2.7,9.7,5.1,12.6,8.5c-0.3-8.7-1.1-17.3-1.9-26c-0.8-8.1-2-16.1-3-24.2c-0.9-7.6,1.5-13.5,2-21c1.6-21.9-6.5-39.9-27.7-47.1
		c-19.8-6.8-39.6,7.1-45.6,26c-0.7,2.3-1.3,4.6-1.8,7c-1.3,6.5-1.9,13-4.2,19.6c-3.2,9.3-7.3,18.4-12.2,26.9
		c-2.4,4.2-16.2,29-11.5,35L372.2,259.4z"/>
	<path class="st9" d="M315.2,312.2c0,0-3.1,3.2,9.8,58.7c3.6,15.5-6.5,42-9.3,56.4c0,0.1,56.1,18.9,89-2.3
		c-4.9-6.3-12.4-28.9-11.8-51.3c0.4-17.1,8-33.7,10.6-44.4l2.5-10.2l30.6,95.6l13.8-1.9c-15.7-101.5-32.1-136-32.1-136
		c-9.4-5.4-36.9-16.7-36.9-16.7c-7.4,5.4-16,3.9-24.5,0.5c-5.8-4.7-46.9,7.5-52.5,13.9c-16.2,25.7-35.3,50.5-47,65
		c-4.8,6-3.9,14.8,2.1,19.6c0.7,0.5,1.4,1,2.1,1.4l51.4,27.6l1.7-10.9l-31.4-31.4L315.2,312.2z"/>
	<path class="st9" d="M323.1,327.4c0,0,9.1,18.9,30.7,8.6"/>
	<path class="st9" d="M401.1,327.4c0,0-9.1,18.9-30.7,8.6"/>
	<path class="st4" d="M438.1,414.8c-12.6,10.4,1.1,8.6,1.1,8.6s6.3,16.7,10.5,15.9c5.8-1-0.4-26.5-0.4-26.5L438.1,414.8z"/>
	<g id="Layer_7-2">
		<path class="st4" d="M361.3,272.9c3-0.1,11-5.3,15.2-11l3.4-6.1c0-0.1,0,2,0,1.9c-2.5,1-4.9-9.9-4.4-14.3
			c-0.6,0.6,4.7-16.1,4-15.5l-6.3,8.2c-3.8,3.4-2.8,3.9-6.5,3.8c-3.8,0.1-9.2,8.5-13,5.1l-1-0.9c-2.9-2.5-5.5-5.3-7.8-8.4
			c0,0.3,1.2,3.7,1.2,4c0.9,6.5,0,11.8-3.3,16.4l3.2,5.9C349.9,267.4,358.3,272.9,361.3,272.9z"/>
		<path class="st4" d="M352.9,182.5c-1,2.7,6,8.5,7.7,10.5c2,2.3,4.6,4.1,7.1,6.2l0,0c0.3-0.1,7.3,8.3,11.1,11.9
			c3.9,3.5,7.4,7.3,10.6,11.5c-1.4,2.9-4,7.6-6.9,7c-0.9-0.2-1.6,0.8-2,1.6c-1.2,2.6-2.8,5.9-5,7.8c-5.6,3.6-11.7,6.3-18.1,8
			c-10.2,2.6-16.9-10.8-16.9-10.8c-4-8-5.5-17.1-4.2-26C338.4,195.9,352.9,182.5,352.9,182.5z"/>
		<path class="st10" d="M368.7,283.8l-2.3-2.8l-1.8,3.4c-0.4,0.7-0.5,1.6-0.3,2.4l3.2,14.7l2-6.6l2.1-6.4l-1.2-2.2
			C369.9,285.4,369.4,284.6,368.7,283.8z"/>
		<path class="st10" d="M352,286.3l-1.2,2.2l2.1,6.4l2,6.6l3.3-14.7c0.2-0.8,0.1-1.7-0.3-2.4l-1.8-3.4l-2.3,2.8
			C353.1,284.6,352.5,285.4,352,286.3z"/>
		<path class="st9" d="M367.6,301.5l-3.2-14.7c-0.2-0.8-0.1-1.7,0.3-2.4l1.8-3.4l-5.2-6.5l-5.2,6.5l1.8,3.4c0.4,0.7,0.5,1.6,0.3,2.4
			l-3.2,14.7l4,13.3c1.5,0,3-0.1,4.5-0.1L367.6,301.5z"/>
		<path class="st4" d="M379.9,255.8l-3.4,6.1c-4.2,5.7-12.3,10.9-15.2,11c-3-0.1-11.4-5.6-15.2-11l-3.2-5.9l-0.2-0.3l-1.5,4.3
			l0.1-0.1l9.6,28.5l1.2-2.2c0.5-0.9,1.1-1.7,1.8-2.5l2.3-2.8l5.2-6.5l5.2,6.5l2.3,2.8c0.7,0.8,1.3,1.6,1.8,2.5l1.2,2.2l9.6-28.5
			l0.1,0.1L379.9,255.8L379.9,255.8z"/>
		<path class="st4" d="M390.3,295.9l-7.2-12.8l9.7,1c-0.9-2.7-2.6-14.3-5-18.5c-0.3-0.5-0.6-1-1.1-1.4l-5.4-4.3l-0.1-0.1l-9.6,28.5
			l-2.1,6.4l-2,6.6l-11.8,48.8L390.3,295.9z"/>
		<path class="st4" d="M362.1,323.9l-7.1-22.5l-2-6.7l-2.1-6.4l-9.6-28.5l-0.1,0.1l-4.5,3.7l-0.8,0.7c-2.9,1.5-5.1,16.7-6.1,19.8
			l9.7-1l-7.1,12.8c-0.3,0.5,20.6,31.9,26.6,41.1L362.1,323.9z"/>
		<path class="st7" d="M367.3,206.4c3.1,0.3,5.9,2,7.7,4.5"/>
		<path class="st7" d="M343.7,203.7c2.9-1.2,6.1-1.1,8.9,0.2"/>
		<circle class="st2" cx="366.8" cy="213.1" r="2.3"/>
		<circle class="st2" cx="345.6" cy="209.1" r="2.3"/>
		<path class="st7" d="M347.2,230.6c0,0,6.1,8.4,14.9,3.3"/>
		<path class="st7" d="M359.1,213.1c-0.2,2.2-0.9,4.4-2,6.4c-0.8,1.5-1.9,2.8-2.8,4.3c-0.5,0.7-0.8,1.5-0.8,2.4
			c0,0.9,0.8,1.6,1.6,1.6c0,0,0,0,0,0l0,0"/>
		<path class="st4" d="M314.7,377.2c0,0,22.6-2,23.7,15.1c0,0-3.8,7.3-14-1.4c-5.8-4.9-5.5,0.4-11.5-2.8"/>
		<path class="st7" d="M364.9,210.8c0,0,4.3-1,7.5,3.7"/>
		<path class="st7" d="M350.1,210.6c0,0-3.7-6.6-7.8-2.8"/>
	</g>
</g>
<g id="Layer_8-2">
	<path class="st4" d="M625,274.1c0.1,0.3,0.2,0.7,0.1,1.1c-0.1,0.3-0.4,0.6-0.7,0.8c-3.4,2.8-7,5.2-10.9,7.2c-2.3,1.2-5,2.3-7.3,1.1
		c-1.4-0.9-2.5-2.1-3.2-3.5l-3.6-6c2.2-1.1,2.7-4,2.8-6.5c0.1-3.3,0.1-6.5-0.1-9.8c5.8-3.3,12.3-5,18.9-5c2.3,0,3.4,0.5,3.1,2.8
		c-0.3,2-0.5,4.1-0.5,6.1C623.5,266.4,624,270.3,625,274.1z"/>
	<path class="st8" d="M639.3,710.7h12.2c0,0,10.8-207.8,8.4-255.5c-1.5-30.1-18.2-45.9-18.2-45.9h-66.5c0,0-16.7,15.8-18.2,45.9
		c-2.3,47.8-17.6,255.5-17.6,255.5h14.3c0,0,49.2-250.6,55-248C608.5,462.8,632.2,568.2,639.3,710.7z"/>
	<path class="st5" d="M555.4,708.7v23.3H552l-2.5-9.8l-6.1,9.8h-34.2c13.2-2.8,24.4-11.3,30.5-23.3H555.4z"/>
	<path class="st5" d="M637.2,708.7v23.3h3.4l2.5-9.8l6.1,9.8h34.2c-13.2-2.7-24.4-11.3-30.6-23.3H637.2z"/>
	<path class="st2" d="M620,259.4L620,259.4l0.8,4.5l4.5,5.2c0.4,0.4,0.7,1,0.9,1.5c5,2.8,10.2,5.3,15.4,7.5
		c5.5,2.7,9.7,5.1,12.7,8.5c-0.3-8.7-1.1-17.3-1.9-26c-0.8-8.1-2-16.1-3-24.2c-0.9-7.6,1.5-13.5,2-21c1.6-21.9-6.5-39.9-27.7-47.1
		c-19.8-6.8-39.6,7.1-45.6,26c-0.7,2.3-1.3,4.6-1.8,7c-1.3,6.5-1.9,13-4.2,19.6c-3.2,9.3-7.3,18.4-12.2,26.9
		c-2.4,4.2-16.2,29-11.5,35L620,259.4z"/>
	<path class="st9" d="M654.2,312.2c0,0,3.1,3.2-9.8,58.7c-3.6,15.5,6.5,42,9.3,56.4c0,0.1-56.1,18.9-89-2.3
		c4.9-6.3,12.3-28.9,11.8-51.3c-0.4-17.1-8-33.7-10.6-44.4l-2.5-10.2l-30.6,95.6l-13.7-1.9c15.7-101.5,32.1-136,32.1-136
		c9.4-5.4,36.9-16.7,36.9-16.7c7.4,5.4,16,3.9,24.5,0.5c5.8-4.7,46.9,7.5,52.5,13.9c16.2,25.7,35.3,50.5,47,65
		c4.8,6,3.9,14.8-2.1,19.6c-0.7,0.5-1.4,1-2.1,1.4l-51.4,27.6l-1.7-10.9l31.4-31.4L654.2,312.2z"/>
	<path class="st9" d="M646.3,327.4c0,0-9.1,18.9-30.7,8.6"/>
	<path class="st9" d="M568.3,327.4c0,0,9.1,18.9,30.7,8.6"/>
	<path class="st4" d="M531.3,414.8c12.6,10.4-1.1,8.6-1.1,8.6s-6.3,16.7-10.5,15.9c-5.8-1,0.4-26.5,0.4-26.5L531.3,414.8z"/>
	<g id="Layer_7-3">
		<path class="st4" d="M609,272.9c3-0.1,11-5.3,15.2-11l3.4-6.1c0-0.1,0,2,0,1.9c-2.5,1-4.9-9.9-4.4-14.3c-0.6,0.6,4.7-16.1,4-15.5
			l-6.2,8.2c-3.8,3.4-2.8,3.9-6.5,3.8c-3.8,0.1-9.2,8.5-13,5.1l-1-0.9c-2.9-2.5-5.5-5.3-7.8-8.4c-0.1,0.3,1.2,3.7,1.2,4
			c0.8,6.5,0,11.8-3.3,16.4l3.2,5.9C597.7,267.4,606,272.9,609,272.9z"/>
		<path class="st4" d="M600.7,182.5c-1,2.7,6,8.5,7.7,10.5c2,2.3,4.6,4.1,7,6.2l0,0c0.3-0.1,7.3,8.3,11.1,11.9
			c3.9,3.5,7.4,7.3,10.6,11.5c-1.3,2.9-4,7.6-6.9,7c-0.9-0.2-1.7,0.8-2,1.6c-1.2,2.6-2.8,5.9-5,7.8c-5.6,3.6-11.7,6.3-18.1,8
			c-10.2,2.6-17-10.8-17-10.8c-4-8-5.5-17.1-4.2-26C586.2,195.9,600.7,182.5,600.7,182.5z"/>
		<path class="st10" d="M600.7,283.8l2.3-2.8l1.8,3.4c0.4,0.7,0.5,1.6,0.3,2.4l-3.2,14.7l-2-6.6l-2.1-6.4l1.2-2.2
			C599.4,285.4,600,284.6,600.7,283.8z"/>
		<path class="st10" d="M617.3,286.3l1.2,2.2l-2.2,6.4l-2,6.6l-3.2-14.6c-0.2-0.8-0.1-1.7,0.3-2.4l1.8-3.4l2.3,2.8
			C616.2,284.6,616.8,285.4,617.3,286.3z"/>
		<path class="st9" d="M601.8,301.5l3.2-14.7c0.2-0.8,0.1-1.7-0.3-2.4l-1.8-3.4l5.2-6.5l5.2,6.5l-1.8,3.4c-0.4,0.7-0.5,1.6-0.3,2.4
			l3.2,14.7l-4,13.3c-1.5,0-3-0.1-4.5-0.1L601.8,301.5z"/>
		<path class="st4" d="M591.4,254.8l3.2,6.5c4.2,5.7,10.5,10.7,13.5,10.8c3-0.1,11.4-4.7,15.2-10.1l3.2-5.9l0.2-0.3l1.5,4.3
			l-0.1-0.1l-9.6,28.5l-1.2-2.2c-0.5-0.9-1.1-1.7-1.8-2.5l-2.3-2.8l-5.2-6.5l-5.2,6.5l-2.3,2.8c-0.7,0.8-1.2,1.6-1.8,2.5l-1.2,2.2
			L588,260l-0.1,0.1l1.8-3L591.4,254.8z"/>
		<path class="st4" d="M579,295.9l7.2-12.8l-9.7,1c0.9-2.7,2.7-14.3,5-18.5c0.3-0.5,0.7-1,1.2-1.4l5.4-4.3l0.1-0.1l9.6,28.5l2.1,6.4
			l2,6.6l11.8,48.8L579,295.9z"/>
		<path class="st4" d="M607.3,323.9l7.1-22.5l2-6.6l2.1-6.4l9.6-28.5l0.1,0.1l4.5,3.7l0.8,0.7c2.9,1.5,5.1,16.7,6.1,19.8l-9.7-1
			l7.2,12.8c0.3,0.5-20.6,31.9-26.7,41.1L607.3,323.9z"/>
		<path class="st7" d="M615.1,206.4c3.1,0.3,5.9,2,7.7,4.5"/>
		<path class="st7" d="M591.4,203.7c2.9-1.2,6.1-1.1,8.9,0.2"/>
		<circle class="st2" cx="614.6" cy="213.1" r="2.3"/>
		<circle class="st2" cx="593.4" cy="209.1" r="2.3"/>
		<path class="st7" d="M595,230.6c0,0,6.2,8.4,14.9,3.3"/>
		<path class="st7" d="M606.9,213.1c-0.2,2.2-0.9,4.4-2,6.4c-0.8,1.5-1.9,2.8-2.8,4.3c-0.5,0.7-0.8,1.5-0.8,2.4
			c0,0.9,0.8,1.6,1.6,1.6c0,0,0,0,0,0l0,0"/>
		<path class="st4" d="M654.6,377.2c0,0-22.7-2-23.7,15.1c0,0,3.8,7.3,14-1.4c5.7-4.9,5.5,0.4,11.5-2.8"/>
		<path class="st7" d="M612.6,210.8c0,0,4.3-1,7.5,3.7"/>
		<path class="st7" d="M597.9,210.6c0,0-3.7-6.6-7.8-2.8"/>
	</g>
</g>
<path class="st2" d="M521.5,299.6c24.2,12,55-25.1,55-25.1s16.1-9.1,14.9-24.1c0,0-6.5,12.8-27.8-3.6c-10.5-8.3-15.8-21.4-23.9-32.2
	c0,0-15-18.9-37.3-24.5c0,0-17.2-6.7-37.7,4.8c0,0-18.9,10-19.5,30.8c0,0-3.5,25.8,21.5,46.1c5,4,9.3,8.8,12.5,14.4l37.9,10.9"/>
<path class="st4" d="M465,461.8c0,0,43.3,219.1,48.3,264.7l15,7.2l-6-282.7C522.4,450.9,482.6,408.4,465,461.8z"/>
<path class="st4" d="M465,482.8c0,0-107.1,206.9-125.9,248.7h-14.4l89.1-276.8C413.9,454.7,464.8,426.7,465,482.8z"/>
<path class="st2" d="M528.2,725.1c8,15.7,26,26.8,43.2,30.4h-44.7l-8-12.8l-3.2,12.8H511l2.3-29.1L528.2,725.1z"/>
<path class="st2" d="M341.5,725.1l1.6,30.4h-4.5l-3.2-12.8l-8,12.8h-44.7c17.2-3.6,36-14.8,44.1-30.4H341.5z"/>
<path class="st4" d="M414.3,407.3l-54.8-46.5c-4.2-3.6-4.7-10-1.1-14.2c0.4-0.4,0.8-0.8,1.2-1.2l59.2-45.6l-3.4,31.6l-30.2,24.4
	l35.4,42.3"/>
<polyline class="st4" points="584,449.4 554.2,382.2 524.8,298 502.6,306.3 538.3,396.5 574.8,456 "/>
<path class="st4" d="M442,287.9c0,0,22.7,2.5,26.5-7.2s-1.9-15-1.9-15l21.4,2.6c0,0-0.7,16,13.7,19c0,0,14.6,36.3,10.6,53.4
	c-6.8,28.6-35.1,44.5-47.2,47c-11.7,2.4-36.7-25.4-39.4-53.5C423.8,315.7,443,296.4,442,287.9z"/>
<path class="st11" d="M510.4,399.5c0,0-11.4-23.7-8.7-30.7s9.5-18.3,10.6-28.1s-19.4-51-43.9-35.6c0,0-32.4-18.5-43.5,30.4
	c0,0,4.7,21.8,7,30.9s-5.4,31.6-5.4,31.6S461.8,420.4,510.4,399.5z"/>
<path class="st11" d="M549.9,355.1l-25.7-59.9c-2.4-2-5.3-3.4-8.3-4.2l-14.2-3.7c0,0-15.6,12-30,12c-11,0-14.2-5.8-15-12l-14.6,0.6
	c-3.9-0.2-7.8,0.9-11.1,2.9l-51.2,37.9c0,0,25.1,37.1,49.6,10.6c9.2-10,3.5-36.6,40-24.5c0,0,27.5-12.1,36,19.9
	C510.3,353.5,520.4,367.9,549.9,355.1z"/>
<path class="st2" d="M510.4,399.5c26.2,31.4,26.2,172.2,26.2,172.2S507,586.2,465,587.2s-85.4-26.3-85.4-26.3s47.8-156.3,46.8-162.8
	C426.4,398,462.1,420.2,510.4,399.5z"/>
<path class="st4" d="M493.7,265.8c-5.6,4.6-12.7,8.6-19.8,7c-5.2-1.2-9.4-5.2-12.3-9.6c-3.1-4.9-5.6-10-7.7-15.4
	c-1.6-3.3-2.7-6.8-3.2-10.4c-0.6-5.2,1-10.3,2.6-15.2c2.6-8.1,5.6-16.8,12.4-21.9c4.1-2.6,8.6-4.5,13.3-5.6c3.4-1.1,7-1.8,10.6-1.8
	c3,0.2,6,0.9,8.7,2.1c7.9,3.2,14.3,9.2,18.1,16.8C526.1,232.2,508.6,253.5,493.7,265.8z"/>
<path class="st5" d="M512.5,251.2c0,0-19.5-25.8-12.5-45.5c0,0-13.4,6.5-21.5,6.6c0,0-21-1.3-25.1,14.4c-0.3,1-0.3,2.1-0.3,3.1
	c0.2,3.3,0.5,12-2,15.9l-2.5-7.5l1.5-16.9l12.5-21l15.1-9.4l18.7,1.2l14.2,7.1l13,22.9l-4.7,20.4L512.5,251.2z"/>
<path class="st4" d="M494.8,232.4c-0.9,0.2-1.8,0.1-2.5-0.5c-0.7-0.6-1.3-1.2-1.9-1.9c-0.5-0.5-1-0.9-1.5-1.2
	c-0.5-0.4-1.1-0.7-1.7-0.9c-1.7-0.4-3.4,0-4.8,1.1c-1.3,1.1-2.4,2.4-3.3,3.8"/>
<path class="st4" d="M469.7,229.2l-1.4-1.6c-1-1.4-2.5-2.3-4.2-2.7c-1.4,0-2.8,0.4-4,1c-1.3,0.6-2.8,0.5-4-0.2"/>
<path class="st4" d="M480,223.6c4.4-3.1,10.3-2.9,14.3,0.6"/>
<path class="st4" d="M471.4,221.7c-2.5-2.7-6.2-4-9.9-3.3"/>
<path class="st4" d="M473.1,246.8c-1.3-0.7-2.6-1.5-3.8-2.3c-0.3-0.2-0.6-0.4-0.8-0.7c-0.3-0.8-0.2-1.8,0.4-2.5l2.1-4.2"/>
<path class="st4" d="M476.4,260.7c-1,0.2-2,0.6-3,1c-0.3,0.2-0.7,0.4-1,0.5c-1.3,0.4-2.7-0.6-3.3-1.9c-0.4-1.4-0.7-2.7-0.9-4.1
	c-0.5-1.1-0.8-2.2-1.1-3.4c-0.1-0.3-0.1-0.7,0.1-1c0.4-0.5,1.1-0.8,1.7-0.6c4.5,0.5,8.8,2,12.6,4.2c0.2,0.1,0.3,0.2,0.4,0.3
	c0.5,0.8-1.1,2.4-1.6,3C479.1,259.7,477.8,260.4,476.4,260.7z"/>
<path class="st12" d="M469.5,263.1c1.2,0.7,2.7,0.9,4.1,0.6c1.4-0.4,2.7-1,3.8-1.8c0.9-0.6,1.8-1.2,2.7-1.9c0.7-0.5,1.3-1.1,1.9-1.7
	c0.5-0.6,0.8-1.5,0.7-2.3c-1.3,1.2-2.8,2.2-4.5,2.9c-2.1,1.1-4.5,1.5-6.9,1.2c-0.8-0.1-2-0.8-2.7,0S468.7,262.5,469.5,263.1z"/>
<path class="st12" d="M466.4,250.2c2.9-0.9,5.9-0.6,8.6,0.6c2.7,1.2,5.2,2.8,7.5,4.6c0.1,0.1,0.3,0.3,0.3,0.4s-0.2,0.2-0.5,0.1
	c-2.8,0.2-5.4-1.2-8-2c-2.1-0.7-4.4-1-6.7-0.9C465.8,253.2,463.7,251.1,466.4,250.2z"/>
<ellipse transform="matrix(0.3915 -0.9202 0.9202 0.3915 82.9618 586.4364)" class="st2" cx="484.9" cy="230.5" rx="2.6" ry="2.1"/>
<ellipse transform="matrix(0.3915 -0.9202 0.9202 0.3915 72.6555 564.7737)" class="st2" cx="463.4" cy="227.4" rx="2.6" ry="2.1"/>
<path class="st4" d="M574.8,456c0,0-1.3,17.3,2,14.6c0.7-0.5,1.7-3.2,2.3-3c2,0.5,3.4,8.4,5.8,10.3c3.1,2.4,9.1-7.9-0.8-28.4"/>
<path class="st4" d="M420.8,398c3.3,0,6.5,0.5,9.6,1.5c8.4,2.9,10.8,11.9,8.1,14.9c-2.4,2.8-9.6,1.2-11.5-1.3
	c-3.1-3.9-6.2,1-10.4-3.3l-2.3-2.4"/>
</svg>
