<svg version="1.1" id="Layer_1" xmlns="http://www.w3.org/2000/svg" x="0" y="0" viewBox="0 0 876.7 747.8" xml:space="preserve"><style>.st0{fill:#fff}.st1,.st2,.st3,.st4,.st5,.st6,.st9{fill:#ededed;stroke:#000;stroke-width:.5;stroke-miterlimit:10}.st2,.st3,.st4,.st5,.st6,.st9{fill:#eb058c}.st3,.st4,.st5,.st6,.st9{fill:#0077bf}.st4,.st5,.st6,.st9{fill:#848484}.st5,.st6,.st9{fill:#727272}.st6,.st9{fill:#fff}.st9{fill:#d3d3d3}.st12,.st14,.st15{fill:#1a1a1a}.st14,.st15{stroke:#000;stroke-width:.5;stroke-miterlimit:10}.st15{fill:none}</style><path class="st0" d="M663.9 267.9c-90.1-1.5-125.5-105.2-152-151.2-33-57.1-99.7-130.2-245.6-112.3 0 0-243.6 16.1-263.9 306.4 0 0-18.9 129.8 89.9 293.6 0 0 104.8 126.7 248.2 139.5 0 0 247.8 25.7 420.9-107.3 0 0 208.9-131.6 60.7-308.9-23.4-28-84.3-58.6-158.2-59.8z" id="Layer_6"/><path class="st1" d="M168.4 432.6s298.6 44 368.7-14.1c41.5-34.4-101.8-72.8-88.1-114.1s175.5-42.1 239.3-62.6c126.2-40.4-107.8-70-335.5-77.4 0 0-6.5-4.7 15.6-4.4 58.6.9 182.1 5.6 265 17.6 128.4 18.6 160.1 50.6 101.4 76.5s-222.2 44.7-94.4 90.9c0 0 152.2 46.2 165.3 101.4 22.4 94.3-324.2 346-749.5 163.5l112.2-177.3z"/><path class="st2" d="M465.4 81.9c2.1.2 3.7 2 3.5 4.1l-.7 9.1c-.2 2.1-2 3.7-4.1 3.5s-3.7-2-3.5-4.1l.7-9.1c.2-2 2.1-3.6 4.1-3.5z"/><path transform="matrix(.07307 -.9973 .9973 .07307 291.527 564.25)" class="st3" d="M416.5 105.7h65.6v39.2h-65.6z"/><path transform="matrix(.07307 -.9973 .9973 .07307 250.168 498.411)" class="st2" d="M348.9 61.6h88.6v106h-88.6z"/><path class="st3" d="M491.4 130.1L471.2 94l-4.7 65.4 22.6 1.6z"/><path class="st1" d="M484.4 127.7l-11.5-20.8-1.5 20z"/><path transform="matrix(.07307 -.9973 .9973 .07307 303.139 616.414)" class="st3" d="M467.7 129.6h30.9v31.1h-30.9z"/><circle class="st4" cx="430.1" cy="159.7" r="15"/><circle class="st5" cx="430.1" cy="159.7" r="11.1"/><circle class="st1" cx="430.1" cy="159.7" r="5.5"/><circle class="st4" cx="361.4" cy="154.6" r="15"/><circle class="st5" cx="361.4" cy="154.6" r="11.1"/><circle class="st1" cx="361.4" cy="154.6" r="5.5"/><circle class="st4" cx="477.9" cy="163.6" r="15"/><circle class="st5" cx="477.9" cy="163.6" r="11.1"/><circle class="st1" cx="477.9" cy="163.6" r="5.5"/><g><circle class="st6" cx="394.6" cy="92.5" r="16"/><path class="st2" d="M385.9 88.1l5.2.3.4-5.2 7.5.6-.4 5.2 5.2.4-.5 7.5-5.2-.4-.4 5.2-7.5-.5.4-5.3-5.3-.3z"/></g><path transform="scale(.99997) rotate(-85.809 464.706 91.22)" class="st1" d="M462.4 84.5h4.6V98h-4.6z"/><path d="M322.2 146.5l-22.2-5.4s2.6-8.4-6.6-9.5c-7.2-.8-6.7 7-6.7 7s-4.8-4.4-11-1.2c-5.7 2.9-4.6 11.8.5 15 6 3.8 7.4-1.1 7.4-1.1s-.5 7.8 6.7 7.4c7-.4 8.2-5.6 8.2-5.6l23.8-4.2-.1-2.4h0z" fill="#fff" stroke="#000" stroke-width=".5" stroke-linejoin="round" stroke-miterlimit="10"/><g><path transform="rotate(-85.924 236.478 92.484) scale(1.00003)" d="M236.1 41.8h.7v101.3h-.7z"/></g><g><path transform="rotate(-85.924 286.219 78.478) scale(1.00003)" d="M285.9 37.3h.7v82.3h-.7z"/></g><g><path transform="rotate(-85.924 267.962 106.974) scale(1.00003)" d="M267.6 67.5h.7v79h-.7z"/></g><g><path transform="rotate(-85.924 263.136 85.508) scale(1.00003)" d="M262.8 46h.7v79h-.7z"/></g><ellipse cx="147.4" cy="608.3" rx="127.4" ry="25.6" fill="#bcbcbc"/><g><path class="st9" d="M89.9 486.5h110.5v97.2H89.9z"/><ellipse cx="145.2" cy="486.5" rx="55.3" ry="11" fill="#a5a5a5" stroke="#000" stroke-width=".5" stroke-miterlimit="10"/><path class="st9" d="M200.5 582.7c0 6.1-24.7 11-55.3 11s-55.3-4.9-55.3-11"/></g><g><path class="st3" d="M98 491.8l25.4-8s21.6 6.2 39.6 8 63.8-34 63.8-34l-25.6 137.3H217s64.2-153.7 62.4-173.5-28.8-23.2-77.2 3.2c-50.1 27.3-29.4 3.8-40.8-5.8 0 0-39 4.2-68.5-5.8l5.1 78.6z"/><path class="st6" d="M179.7 442.9l27.8-87.3 31.2 36.8-13.1 71 15 4.5 28.9-73.4-56.9-95.4-36.1-12.3s-28.8 7.8-43.2-8.4l-49.6-.6-43.4 104.9 52.5 87 14.3-4.6L75.4 390l14.4-54.6-9 87.7 98.9 19.8z"/><path class="st3" d="M86.2 598.4c0-3.9-45-172.4-45-172.4s-8.5-40.6 27.6-40.8c22.8-.1 26.4 40.8 26.4 40.8l7.4 172.4H86.2z"/><path class="st6" d="M83.8 277.8L40.3 382.7l52.6 87.1 14.2-4.6L75.4 390l14.4-54.6"/><g id="Layer_9"><path d="M189.2 461.7s-36 57-43.8 65.4c0 0 43.3 25.8 62.4 15 0 0 20.3-54.6 19.1-69l-37.7-11.4z" fill="#f4f4f4" stroke="#000" stroke-width=".5" stroke-miterlimit="10"/><path class="st6" d="M232.2 488.6c-1.9 2.7-6.7 6.5-8.8 5 1-11.5.2-20.8.2-20.8s-20 8.7 2.7-9.1l14.3 4.2c.1 0-3.8 14.3-8.4 20.7zM150.1 466.8s19 62 26.8 70.4c0 0-43.6 22-62.8 11.2 0 0-3-64.6-7.6-73.3l43.6-8.3z"/><path class="st6" d="M101.3 490.6c1.9 2.7 6.7 6.5 8.8 5-1-11.5-.2-20.8-.2-20.8s20 8.7-2.7-9.1l-14.3 4.2s3.9 14.3 8.4 20.7z"/><path class="st12" d="M105.2 598.4v19.8H94.4v-4.9l-6.7 4.9h-50l44.5-19.8zM198.5 595.1v19.8h10.7V610l6.8 4.9h50l-44.5-19.8z"/><path d="M156.2 295.7l-2.9 84.4-16.8 15-8.6-20.6 24.5-79c-.1-.1 2.2-3.9 3.8.2z" fill="#ffe600" stroke="#000" stroke-width=".5" stroke-miterlimit="10"/><path class="st6" d="M146.1 251.2l-5.2 40 13.1 3.7 13.4 5 11.2-44.4z"/><g id="Layer_7_2_"><path class="st6" d="M133.9 279.2l5.8 22.4 1.5 6.2 7.7-7.7 5.1-5.1c.3-.2.7-.2 1 0 .1.1.1.2.2.2l4.1 7.5 6.1 11.3 10.6-26.2-1.2-5.4-.6.3-19 11.1c-.3.1-.7 0-.9-.2l-16.2-19.8-.2-.2-4 5.6z"/><path class="st6" d="M143.1 273.6c1.6 2.7 3 5.3 5.5 7.4 1.5 1.3 3.9 1.9 6.2 2.3l.9.2c1.8.6 3.8.8 5.7.6 3.2-.7 5.7-2.3 8.3-3.9 1.9-1 3.9-1.8 6-2.4 1.1-.4 2.2-.9 3.1-1.6 1.2-1 2.3-2.1 3-3.5 1.2-2 1.8-5.5 4-6.8 2-1.2 3.7-1.4 5.4-3.3 2.8-3.4 4.7-7.5 5.5-11.8.2-1.2.1-3.3-1.9-2.6-.9.3-.8 1.7-1.6 1.9h-.1l-1 1.6-2.3-.6c.4-1.7 1-3.4 1.7-5.1 1-3.7 2.1-7.4 2.2-11.2 0-4.9-6.3-8.8-9.6-12-.5-.5-1.2-1.7-1.9-2-1.1-.6-.4-.3-1.7 0-4.6 1.3-7.5 3.1-12.7 1.8-4.2-1-8.1-2.9-12.3-3.6-5.7-1-11.8 1.6-13.8 7.1-.8 2.1-1 4.3-1.7 6.4-.5 1.4-.9 2.9-1.2 4.4l-.3 1.5-3-.7c.1-.5.3-.9.3-1.2.2-.7.4-1.3.5-2 0-.3-.1-.7-.3-.9-1.3-1.5-2.5.3-2.8 1.4-1.4 4.2-1.6 8.7-.7 13 .6 2.5 2 3.5 3.2 5.4 1.3 2.2.2 5.5.3 7.9.1 1.6.4 3.1 1.1 4.5.4.9 1 1.7 1.6 2.5 1.4 1.7 3.2 3.3 4.4 5.3z"/><path class="st14" d="M135.8 236.4c-.1.3-.9 3.7-1 4.2l3 .7c.1-.5.9-3.9 1-4.4.3-1.5.2-1.5.7-3 .6-2.1.3-.5 1.1-2.6 2-5.4 8-8 13.8-7.1 4.2.7 8.2 2.6 12.3 3.6 5.1 1.3 8-.4 12.7-1.8 1.2-.4.6-.6 1.7 0 .7.4 1.4 1.5 1.9 2 3.3 3.2 9.7 7.1 9.6 12 0 3.9-.1 2.3-1.1 6-.7 1.7-2.2 5.7-2.6 7.5l2.3.6 2-4c1.1-1.7 2.2-3.5 2.6-4.3 1.3-2.8 2.3-5.6 3.2-8.5 2.6-6.9 4.2-9.5 1-16.6-3.4-7.6-9.9-13.2-14-13.7-.2 0-3-.5-2.7-.1-1.1-1.5-3.6-2.3-5.3-3.1-8.8-4.4-22-2-30.2 2.1-8.7 4.3-9.1 8.3-10.1 16.1-.4 2.7-1.1 5.6-1 8.3.1 1.4 0 2.8-.3 4.2-.2.6-.4 1.2-.6 1.9z"/><path class="st15" d="M173.8 247.4c3.1 0 6 1.4 8 3.7M147.4 243.4c2.7-1.5 5.9-1.8 8.8-.8"/><circle class="st14" cx="175" cy="255.1" r="2.3"/><circle class="st14" cx="152.7" cy="251.6" r="2.3"/><path class="st15" d="M151.1 269.4s7.4-1 14.7 3.6M165.1 248.5c-.9 2.5-1.5 5.1-1.7 7.7-.2 2-.1 4-.2 6 0 1-.2 2-.6 2.9-.5.9-1.4 1.3-2 .7"/></g></g></g><g><path fill="#e5e5e5" stroke="#000" stroke-width=".5" stroke-miterlimit="10" d="M169.3 630.5L82.9 659l71.3 28.4 53.7-47.3z"/><path fill="#eaeaea" stroke="#000" stroke-width=".5" stroke-miterlimit="10" d="M118 614.9l-83.1 21.8 44 40 81-46.2z"/><path fill="#f2f2f2" stroke="#000" stroke-width=".5" stroke-miterlimit="10" d="M159.9 614.9l-81 18.8 53.2 38.2 66.4-47.4z"/><path class="st6" d="M165 608.3l81 18.7-53.2 38.2-66.4-47.4z"/></g><g><path class="st0" d="M376.6 117.9c-.1-.3-.5-.2-1-.2-.3 0-.6 0-1.1.1l.6-1.6c.1-.2-1-1.2-1.4-.9-.3.2-.7 1.3-1.3 2.7-1 .1-1.9.3-2.3.4v-.1c.1-.7-.9-1.2-1.5-1.2-.2 0-.4 0-.5.2-1.5 2.3-2.5 4.9-3.6 7.3h-.1c.2-2.2 1-4.2 1.4-6.3.1-.6-.4-.6-.7-.7-1.1-.1-2 2.9-2.4 6.6l-.1.1c-.1 1.5-1.8 4.1-3.5 4-1.2-.1-1.5-.9-1.4-1.9.1-1.8.6-2.9.6-2.9s.3 1 1.3 1c1.8.1 2.8-2.4 3-5.2.2-2-.8-2.8-1.7-2.9-2-.2-4.4 5.4-4.7 9.1v.6c-.1-.1-.2-.2-.4-.1l-.2.1c-.8-1.4-2-3-2.9-4.2 2.6-.2 4.4-1.7 4.6-4.3.2-2.5-2-4.8-4.7-5.2 0-.2.1-.3.1-.4-.2-.3-.7-.5-1.1-.6-.6 0-.5.3-.6.6 0 .1-.1.2-.1.3-3.1.2-3.9 2.4-3.9 2.4 0 .3 1.2 1.1 1.4 1.2.1 0 .1-.1.1-.1.3-.7.8-1.5 1.9-1.9-1 3.6-2.7 10.8-3.3 14.3.1.2 1 .6 1.4.7.4 0 .6-.5.8-1.3.1-.7-.1-.8 0-1.2l1-4.6h.1c1.2 1.4 3.9 5.6 5 7.3.4 0 1-.5 1.2-.6 0 0 .1-.1.1-.2.6 1.2 1.5 1.8 2.6 1.9 1.3.1 2.4-.7 3.1-1.8.1.8.4 1.3 1.1 1.3.5 0 .8-.3.8-.3.1-2.1 1.6-5.8 2.7-7.7h.3c-.3 1.1-.9 3.4-.9 4.4-.1 1.8.2 3.4 1.7 3.6 1.1.1 2-.7 2.4-1.5.4 1.2 1.2 2 2.3 2.1 1.4.1 3.7-1.5 3.8-3 .1-1.3-.7-1.2-.7-1.2-.2 1.2-2.1 2.6-3.4 2.5-.5 0-.7-.4-.6-1 .3-3.4.5-3.5 2.1-7.9 1.1-.1 2.4-.1 3.3-.1.3 0 .3-.2.4-.3 0-.1-.3-.7-.4-.8-.4-.5-.6-.3-.7-.6zm-16.1-.2c.2-.3.3-.4.4-.4s.3.1.2 1.1c-.2 2-1 4.5-1.9 4.4-.5 0-.5-.6-.5-.6.4-1.5 1.2-3.3 1.8-4.5zm-8.1-4.5h.4c1.8.1 3.1 1.4 3 3.1-.2 2.9-2.3 3.9-5 3.7.5-2.5 1.2-5 1.6-6.8zm17.9 12.7v.6c-.3.6-.8 1.5-1.4 1.4-.6 0-.9-.6-.8-1.8.2-2.6 1.3-5.1 1.9-7.2.2.4.5.8.9.8l1-.1c-.8 2.3-1.5 5-1.6 6.3zM389.8 126.7c-.3 1.3-.7 2.7-1.8 2.7-.8-.1-.9-.8-.8-1.8.1-1.8.9-4 1.8-6.5.2-.5-.7-.6-.9-.7v-.2c.1-.7-.5-1.7-2-1.8-2.7-.2-4.8 3.6-5.1 7.7-.2 2.7.9 4.5 2.5 4.6 1.1.1 2.1-.7 2.5-1.4h.1c0 .5.5 1.5 1.5 1.6 1.7.1 2.8-2.3 2.9-3.5 0-.8-.7-.7-.7-.7zm-6.4 2.4c-.6 0-.8-.6-.6-2 .2-2.3 1.6-7.6 3.2-7.4.4 0 .4.6.4.8-.1.8-.4 1.6-.9 2.2.3.4 1 .6 1 .6-.2.7-1.8 5.9-3.1 5.8z"/><g><path class="st0" d="M408.4 129.8l-2.4-2-.6-.5c-.2.2-.5.4-.7.6l-.9.6c-.3.2-.7.3-1 .3-.4.1-.8.1-1.2.1-.6 0-1.1-.2-1.6-.5s-.9-.6-1.2-1.1c-.3-.4-.6-.9-.7-1.5-.2-.6-.2-1.2-.2-1.8 0-.6.2-1.2.4-1.7s.6-1 .9-1.4c.4-.4.8-.7 1.3-.9s1.1-.3 1.7-.2c.8.1 1.5.3 2.1.7.5.4 1 .8 1.4 1.4l.8-.5 2.5-1.7c-.3-.5-.6-.9-1-1.3-.3-.4-.7-.7-1.1-1-.1-.1-.2-.1-.2-.2-.5-.3-1.1-.6-1.8-.8-.7-.2-1.4-.3-2.2-.4-1.2-.1-2.4 0-3.4.4-1.1.3-2 .9-2.8 1.6-.8.7-1.5 1.5-2 2.5s-.8 2-.9 3.2c-.1 1.2 0 2.3.4 3.3s.9 2 1.5 2.7c.7.8 1.5 1.4 2.5 1.9s2 .8 3.2.9c.9.1 1.7 0 2.4-.1s1.4-.3 2-.6c.1 0 .1-.1.2-.1h.1c.5-.3 1-.6 1.4-.9.3-.2.7-.6 1.1-1z"/><path class="st0" d="M422.8 132.2c-.7-.8-1.3-1.8-1.6-2.9-.4-1.1-.5-2.2-.4-3.4.1-1.2.4-2.3.9-3.3s1.2-1.9 2.1-2.6l.2-.2.1-1.6-4.5-.4-4.5 6.1-3.5-6.8-4.5-.4v.5l.1.1.1.1c.1 0 .1.1.2.2l.1.1.2.2.1.1.3.3c.4.5.8 1 1.1 1.5l.1.1-2.7 1.8-.5 5.9 2.5 2.1-.1.1c-.4.5-.9 1-1.4 1.4-.1.1-.2.2-.3.2 0 0-.1 0-.1.1-.1.1-.2.1-.2.2l-.1.1c-.1 0-.1.1-.2.1 0 0-.1.1-.2.1s-.1.1-.2.1v.6l4.1.3.8-9.7 3.8 7 4.9-6.4-.8 9.7 4.1.3.1-1.6s-.1 0-.1-.1z"/><path class="st0" d="M437.8 124c-.4-1-.9-2-1.6-2.8-.7-.8-1.6-1.5-2.6-2s-2.1-.8-3.4-.9c-1.2-.1-2.4 0-3.5.4-.9.3-1.7.7-2.5 1.3h-.1l-.1.1c-.1 0-.1.1-.2.1-.8.7-1.5 1.5-2 2.5s-.8 2-.9 3.2c-.1 1.1 0 2.2.4 3.3.4 1 .9 2 1.6 2.8l.2.2.1.1.1.1c.6.6 1.4 1.2 2.2 1.6 1 .5 2.1.8 3.4.9 1.2.1 2.4 0 3.5-.4 1.1-.3 2-.9 2.9-1.6.8-.7 1.5-1.5 2-2.5s.8-2 .9-3.2c.1-1.1 0-2.2-.4-3.2zm-3.9 3c0 .6-.2 1.2-.5 1.7s-.6 1-1 1.4-.9.7-1.4.9c-.6.2-1.2.3-1.8.2s-1.2-.2-1.7-.5-.9-.7-1.3-1.1c-.3-.4-.6-1-.8-1.5-.2-.6-.2-1.1-.2-1.8 0-.6.2-1.2.4-1.7s.6-1 1-1.4.9-.7 1.4-.9 1.1-.3 1.8-.2c.6.1 1.2.2 1.7.5s.9.7 1.3 1.1c.4.4.6 1 .8 1.5.3.5.4 1.1.3 1.8z"/></g></g><g><path d="M215.4 227.2c1.3-.9 2.8-.7 3.7.5.9 1.2.6 2.7-.7 3.6-1.2.9-2.7.8-3.7-.5-.9-1.2-.5-2.7.7-3.6zm5.4-2.8l.9-.7c1.7-1.6 4.2-2.5 7.6-2.2 3 .2 5 .1 6.5-1.1 1.8-1.3 2.1-3.3.6-5.5-.9-1.2-2.3-2.3-3.6-2.7l1.6-2.4c1.7.5 3.7 2.1 5 3.9 2.9 4 1.8 7.6-.8 9.5-2.4 1.7-5 1.7-8.2 1.4-2.9-.2-4.9.4-6.5 1.8l-.9.7-2.2-2.7z"/></g><g><path d="M166.6 180.1l-.1-1.1c-.3-2.3.4-4.9 2.5-7.5 1.9-2.3 2.9-4 2.9-5.9 0-2.2-1.4-3.6-4.2-3.6-1.5 0-3.3.6-4.3 1.4l-1.1-2.7c1.4-1.1 3.8-1.8 6.1-1.8 4.9-.1 7.2 2.9 7.3 6.2.1 2.9-1.5 5.1-3.5 7.5-1.8 2.3-2.5 4.2-2.3 6.4l.1 1.1h-3.4zm-.8 6.1c0-1.6 1-2.7 2.5-2.8 1.5 0 2.6 1.1 2.6 2.7 0 1.5-.9 2.7-2.5 2.7-1.5 0-2.6-1.1-2.6-2.6z"/></g><g><path d="M113.3 214.3l-.8-.8c-1.6-1.7-2.6-4.1-2.5-7.5.1-3-.1-5-1.3-6.5-1.3-1.7-3.3-2-5.5-.4-1.2 1-2.3 2.4-2.6 3.7l-2.5-1.5c.5-1.7 2-3.7 3.8-5.1 3.9-3 7.5-2 9.5.6 1.8 2.3 1.8 5 1.7 8.2-.1 2.9.5 4.8 2 6.5l.7.9-2.5 1.9zm3 5.3c-1-1.3-.8-2.8.4-3.7 1.2-.9 2.7-.7 3.7.6.9 1.2.9 2.7-.4 3.7-1.2.8-2.8.6-3.7-.6z"/></g></svg>