<?xml version="1.0" encoding="utf-8"?>
<!-- Generator: Adobe Illustrator 22.0.1, SVG Export Plug-In . SVG Version: 6.00 Build 0)  -->
<svg version="1.1" id="Layer_1" xmlns="http://www.w3.org/2000/svg" xmlns:xlink="http://www.w3.org/1999/xlink" x="0px" y="0px"
	 viewBox="0 0 876.7 747.8" style="enable-background:new 0 0 876.7 747.8;" xml:space="preserve">
<style type="text/css">
	.st0{fill:#FFFFFF;}
	.st1{fill:#EDEDED;stroke:#000000;stroke-width:0.5;stroke-miterlimit:10;}
	.st2{fill:#EB058C;stroke:#000000;stroke-width:0.5;stroke-miterlimit:10;}
	.st3{fill:#0077BF;stroke:#000000;stroke-width:0.5;stroke-miterlimit:10;}
	.st4{fill:#848484;stroke:#000000;stroke-width:0.5;stroke-miterlimit:10;}
	.st5{fill:#727272;stroke:#000000;stroke-width:0.5;stroke-miterlimit:10;}
	.st6{fill:#FFFFFF;stroke:#000000;stroke-width:0.5;stroke-miterlimit:10;}
	.st7{fill:#FFFFFF;stroke:#000000;stroke-width:0.5;stroke-linejoin:round;stroke-miterlimit:10;}
	.st8{fill:#BCBCBC;}
	.st9{fill:#D3D3D3;stroke:#000000;stroke-width:0.5;stroke-miterlimit:10;}
	.st10{fill:#A5A5A5;stroke:#000000;stroke-width:0.5;stroke-miterlimit:10;}
	.st11{fill:#F4F4F4;stroke:#000000;stroke-width:0.5;stroke-miterlimit:10;}
	.st12{fill:#1A1A1A;}
	.st13{fill:#FFE600;stroke:#000000;stroke-width:0.5;stroke-miterlimit:10;}
	.st14{fill:#1A1A1A;stroke:#000000;stroke-width:0.5;stroke-miterlimit:10;}
	.st15{fill:none;stroke:#000000;stroke-width:0.5;stroke-miterlimit:10;}
	.st16{fill:#E5E5E5;stroke:#000000;stroke-width:0.5;stroke-miterlimit:10;}
	.st17{fill:#EAEAEA;stroke:#000000;stroke-width:0.5;stroke-miterlimit:10;}
	.st18{fill:#F2F2F2;stroke:#000000;stroke-width:0.5;stroke-miterlimit:10;}
</style>
<g>
	<g id="Layer_6">
		<path class="st0" d="M663.9,267.9c-90.1-1.5-125.5-105.2-152-151.2c-33-57.1-99.7-130.2-245.6-112.3c0,0-243.6,16.1-263.9,306.4
			c0,0-18.9,129.8,89.9,293.6c0,0,104.8,126.7,248.2,139.5c0,0,247.8,25.7,420.9-107.3c0,0,208.9-131.6,60.7-308.9
			C798.7,299.7,737.8,269.1,663.9,267.9z"/>
	</g>
	<path class="st1" d="M168.4,432.6c0,0,298.6,44,368.7-14.1c41.5-34.4-101.8-72.8-88.1-114.1s175.5-42.1,239.3-62.6
		c126.2-40.4-107.8-70-335.5-77.4c0,0-6.5-4.7,15.6-4.4c58.6,0.9,182.1,5.6,265,17.6c128.4,18.6,160.1,50.6,101.4,76.5
		s-222.2,44.7-94.4,90.9c0,0,152.2,46.2,165.3,101.4c22.4,94.3-324.2,346-749.5,163.5L168.4,432.6z"/>
	<g>
		<g>
			<path class="st2" d="M465.4,81.9c2.1,0.2,3.7,2,3.5,4.1l-0.7,9.1c-0.2,2.1-2,3.7-4.1,3.5s-3.7-2-3.5-4.1l0.7-9.1
				C461.5,83.4,463.4,81.8,465.4,81.9z"/>
			
				<rect x="416.5" y="105.7" transform="matrix(7.307293e-02 -0.9973 0.9973 7.307293e-02 291.5266 564.2493)" class="st3" width="65.6" height="39.2"/>
			
				<rect x="348.9" y="61.6" transform="matrix(7.307293e-02 -0.9973 0.9973 7.307293e-02 250.1685 498.4113)" class="st2" width="88.6" height="106"/>
			<polygon class="st3" points="491.4,130.1 471.2,94 466.5,159.4 489.1,161 			"/>
			<polygon class="st1" points="484.4,127.7 472.9,106.9 471.4,126.9 			"/>
			
				<rect x="467.7" y="129.6" transform="matrix(7.307293e-02 -0.9973 0.9973 7.307293e-02 303.1385 616.4144)" class="st3" width="30.9" height="31.1"/>
			<circle class="st4" cx="430.1" cy="159.7" r="15"/>
			<circle class="st5" cx="430.1" cy="159.7" r="11.1"/>
			<circle class="st1" cx="430.1" cy="159.7" r="5.5"/>
			<g>
				<circle class="st4" cx="361.4" cy="154.6" r="15"/>
				<circle class="st5" cx="361.4" cy="154.6" r="11.1"/>
				<circle class="st1" cx="361.4" cy="154.6" r="5.5"/>
			</g>
			<g>
				<circle class="st4" cx="477.9" cy="163.6" r="15"/>
				<circle class="st5" cx="477.9" cy="163.6" r="11.1"/>
				<circle class="st1" cx="477.9" cy="163.6" r="5.5"/>
			</g>
			<g>
				<circle class="st6" cx="394.6" cy="92.5" r="16"/>
				<polygon class="st2" points="385.9,88.1 391.1,88.4 391.5,83.2 399,83.8 398.6,89 403.8,89.4 403.3,96.9 398.1,96.5 
					397.7,101.7 390.2,101.2 390.6,95.9 385.3,95.6 				"/>
			</g>
			
				<rect x="462.4" y="84.5" transform="matrix(7.307293e-02 -0.9973 0.9973 7.307293e-02 339.7625 548.0036)" class="st1" width="4.6" height="13.5"/>
		</g>
		<path class="st7" d="M322.2,146.5l-22.2-5.4c0,0,2.6-8.4-6.6-9.5c-7.2-0.8-6.7,7-6.7,7s-4.8-4.4-11-1.2c-5.7,2.9-4.6,11.8,0.5,15
			c6,3.8,7.4-1.1,7.4-1.1s-0.5,7.8,6.7,7.4c7-0.4,8.2-5.6,8.2-5.6l23.8-4.2L322.2,146.5L322.2,146.5z"/>
		<g>
			
				<rect x="236.1" y="41.8" transform="matrix(7.107469e-02 -0.9975 0.9975 7.107469e-02 127.4208 321.7907)" width="0.7" height="101.3"/>
		</g>
		<g>
			
				<rect x="285.9" y="37.3" transform="matrix(7.107707e-02 -0.9975 0.9975 7.107707e-02 187.5968 358.3946)" width="0.7" height="82.3"/>
		</g>
		<g>
			
				<rect x="267.6" y="67.5" transform="matrix(7.107580e-02 -0.9975 0.9975 7.107580e-02 142.2143 366.6552)" width="0.7" height="79"/>
		</g>
		<g>
			
				<rect x="262.8" y="46" transform="matrix(7.107580e-02 -0.9975 0.9975 7.107580e-02 159.1418 341.9008)" width="0.7" height="79"/>
		</g>
	</g>
	<ellipse class="st8" cx="147.4" cy="608.3" rx="127.4" ry="25.6"/>
	<g>
		<rect x="89.9" y="486.5" class="st9" width="110.5" height="97.2"/>
		<ellipse class="st10" cx="145.2" cy="486.5" rx="55.3" ry="11"/>
		<path class="st9" d="M200.5,582.7c0,6.1-24.7,11-55.3,11s-55.3-4.9-55.3-11"/>
	</g>
	<g>
		<path class="st3" d="M98,491.8l25.4-8c0,0,21.6,6.2,39.6,8s63.8-34,63.8-34l-25.6,137.3H217c0,0,64.2-153.7,62.4-173.5
			s-28.8-23.2-77.2,3.2c-50.1,27.3-29.4,3.8-40.8-5.8c0,0-39,4.2-68.5-5.8L98,491.8z"/>
		<path class="st6" d="M179.7,442.9l27.8-87.3l31.2,36.8l-13.1,71l15,4.5l28.9-73.4l-56.9-95.4l-36.1-12.3c0,0-28.8,7.8-43.2-8.4
			l-49.6-0.6L40.3,382.7l52.5,87l14.3-4.6L75.4,390l14.4-54.6l-9,87.7L179.7,442.9z"/>
		<path class="st3" d="M86.2,598.4c0-3.9-45-172.4-45-172.4s-8.5-40.6,27.6-40.8c22.8-0.1,26.4,40.8,26.4,40.8l7.4,172.4H86.2z"/>
		<polyline class="st6" points="83.8,277.8 40.3,382.7 92.9,469.8 107.1,465.2 75.4,390 89.8,335.4 		"/>
		<g id="Layer_9">
			<path class="st11" d="M189.2,461.7c0,0-36,57-43.8,65.4c0,0,43.3,25.8,62.4,15c0,0,20.3-54.6,19.1-69L189.2,461.7z"/>
			<path class="st6" d="M232.2,488.6c-1.9,2.7-6.7,6.5-8.8,5c1-11.5,0.2-20.8,0.2-20.8s-20,8.7,2.7-9.1l14.3,4.2
				C240.7,467.9,236.8,482.2,232.2,488.6z"/>
			<path class="st6" d="M150.1,466.8c0,0,19,62,26.8,70.4c0,0-43.6,22-62.8,11.2c0,0-3-64.6-7.6-73.3L150.1,466.8z"/>
			<path class="st6" d="M101.3,490.6c1.9,2.7,6.7,6.5,8.8,5c-1-11.5-0.2-20.8-0.2-20.8s20,8.7-2.7-9.1l-14.3,4.2
				C92.9,469.9,96.8,484.2,101.3,490.6z"/>
			<polygon class="st12" points="105.2,598.4 105.2,618.2 94.4,618.2 94.4,613.3 87.7,618.2 37.7,618.2 37.7,618.2 82.2,598.4 			
				"/>
			<polygon class="st12" points="198.5,595.1 198.5,614.9 209.2,614.9 209.2,610 216,614.9 266,614.9 266,614.9 221.5,595.1 			"/>
			<path class="st13" d="M156.2,295.7l-2.9,84.4l-16.8,15l-8.6-20.6l24.5-79C152.3,295.4,154.6,291.6,156.2,295.7z"/>
			<polygon class="st6" points="146.1,251.2 140.9,291.2 154,294.9 167.4,299.9 178.6,255.5 			"/>
			<g id="Layer_7_2_">
				<path class="st6" d="M133.9,279.2l5.8,22.4l1.5,6.2l7.7-7.7l5.1-5.1c0.3-0.2,0.7-0.2,1,0c0.1,0.1,0.1,0.2,0.2,0.2l4.1,7.5
					l6.1,11.3l10.6-26.2l-1.2-5.4l-0.6,0.3l-19,11.1c-0.3,0.1-0.7,0-0.9-0.2l-16.2-19.8l-0.2-0.2L133.9,279.2z"/>
				<g>
					<path class="st6" d="M143.1,273.6c1.6,2.7,3,5.3,5.5,7.4c1.5,1.3,3.9,1.9,6.2,2.3l0.9,0.2c1.8,0.6,3.8,0.8,5.7,0.6
						c3.2-0.7,5.7-2.3,8.3-3.9c1.9-1,3.9-1.8,6-2.4c1.1-0.4,2.2-0.9,3.1-1.6c1.2-1,2.3-2.1,3-3.5c1.2-2,1.8-5.5,4-6.8
						c2-1.2,3.7-1.4,5.4-3.3c2.8-3.4,4.7-7.5,5.5-11.8c0.2-1.2,0.1-3.3-1.9-2.6c-0.9,0.3-0.8,1.7-1.6,1.9h-0.1l-1,1.6l-2.3-0.6
						c0.4-1.7,1-3.4,1.7-5.1c1-3.7,2.1-7.4,2.2-11.2c0-4.9-6.3-8.8-9.6-12c-0.5-0.5-1.2-1.7-1.9-2c-1.1-0.6-0.4-0.3-1.7,0
						c-4.6,1.3-7.5,3.1-12.7,1.8c-4.2-1-8.1-2.9-12.3-3.6c-5.7-1-11.8,1.6-13.8,7.1c-0.8,2.1-1,4.3-1.7,6.4
						c-0.5,1.4-0.9,2.9-1.2,4.4c-0.1,0.5-0.2,1-0.3,1.5l-3-0.7c0.1-0.5,0.3-0.9,0.3-1.2c0.2-0.7,0.4-1.3,0.5-2
						c0-0.3-0.1-0.7-0.3-0.9c-1.3-1.5-2.5,0.3-2.8,1.4c-1.4,4.2-1.6,8.7-0.7,13c0.6,2.5,2,3.5,3.2,5.4c1.3,2.2,0.2,5.5,0.3,7.9
						c0.1,1.6,0.4,3.1,1.1,4.5c0.4,0.9,1,1.7,1.6,2.5C140.1,270,141.9,271.6,143.1,273.6z"/>
					<path class="st14" d="M135.8,236.4c-0.1,0.3-0.9,3.7-1,4.2l3,0.7c0.1-0.5,0.9-3.9,1-4.4c0.3-1.5,0.2-1.5,0.7-3
						c0.6-2.1,0.3-0.5,1.1-2.6c2-5.4,8-8,13.8-7.1c4.2,0.7,8.2,2.6,12.3,3.6c5.1,1.3,8-0.4,12.7-1.8c1.2-0.4,0.6-0.6,1.7,0
						c0.7,0.4,1.4,1.5,1.9,2c3.3,3.2,9.7,7.1,9.6,12c0,3.9-0.1,2.3-1.1,6c-0.7,1.7-2.2,5.7-2.6,7.5l2.3,0.6l2-4
						c1.1-1.7,2.2-3.5,2.6-4.3c1.3-2.8,2.3-5.6,3.2-8.5c2.6-6.9,4.2-9.5,1-16.6c-3.4-7.6-9.9-13.2-14-13.7c-0.2,0-3-0.5-2.7-0.1
						c-1.1-1.5-3.6-2.3-5.3-3.1c-8.8-4.4-22-2-30.2,2.1c-8.7,4.3-9.1,8.3-10.1,16.1c-0.4,2.7-1.1,5.6-1,8.3c0.1,1.4,0,2.8-0.3,4.2
						C136.2,235.1,136,235.7,135.8,236.4z"/>
					<path class="st15" d="M173.8,247.4c3.1,0,6,1.4,8,3.7"/>
					<path class="st15" d="M147.4,243.4c2.7-1.5,5.9-1.8,8.8-0.8"/>
					<circle class="st14" cx="175" cy="255.1" r="2.3"/>
					<circle class="st14" cx="152.7" cy="251.6" r="2.3"/>
					<path class="st15" d="M151.1,269.4c0,0,7.4-1,14.7,3.6"/>
					<path class="st15" d="M165.1,248.5c-0.9,2.5-1.5,5.1-1.7,7.7c-0.2,2-0.1,4-0.2,6c0,1-0.2,2-0.6,2.9c-0.5,0.9-1.4,1.3-2,0.7"/>
				</g>
			</g>
		</g>
	</g>
	<g>
		<polygon class="st16" points="169.3,630.5 82.9,659 154.2,687.4 207.9,640.1 		"/>
		<polygon class="st17" points="118,614.9 34.9,636.7 78.9,676.7 159.9,630.5 		"/>
		<polygon class="st18" points="159.9,614.9 78.9,633.7 132.1,671.9 198.5,624.5 		"/>
		<polygon class="st6" points="165,608.3 246,627 192.8,665.2 126.4,617.8 		"/>
	</g>
	<g>
		<g>
			<path class="st0" d="M376.6,117.9c-0.1-0.3-0.5-0.2-1-0.2c-0.3,0-0.6,0-1.1,0.1l0.6-1.6c0.1-0.2-1-1.2-1.4-0.9
				c-0.3,0.2-0.7,1.3-1.3,2.7c-1,0.1-1.9,0.3-2.3,0.4v-0.1c0.1-0.7-0.9-1.2-1.5-1.2c-0.2,0-0.4,0-0.5,0.2c-1.5,2.3-2.5,4.9-3.6,7.3
				h-0.1c0.2-2.2,1-4.2,1.4-6.3c0.1-0.6-0.4-0.6-0.7-0.7c-1.1-0.1-2,2.9-2.4,6.6c-0.1,0.1-0.1,0.1-0.1,0.1c-0.1,1.5-1.8,4.1-3.5,4
				c-1.2-0.1-1.5-0.9-1.4-1.9c0.1-1.8,0.6-2.9,0.6-2.9s0.3,1,1.3,1c1.8,0.1,2.8-2.4,3-5.2c0.2-2-0.8-2.8-1.7-2.9
				c-2-0.2-4.4,5.4-4.7,9.1c0,0.2,0,0.4,0,0.6c-0.1-0.1-0.2-0.2-0.4-0.1l-0.2,0.1c-0.8-1.4-2-3-2.9-4.2c2.6-0.2,4.4-1.7,4.6-4.3
				c0.2-2.5-2-4.8-4.7-5.2c0-0.2,0.1-0.3,0.1-0.4c-0.2-0.3-0.7-0.5-1.1-0.6c-0.6,0-0.5,0.3-0.6,0.6c0,0.1-0.1,0.2-0.1,0.3
				c-3.1,0.2-3.9,2.4-3.9,2.4c0,0.3,1.2,1.1,1.4,1.2c0.1,0,0.1-0.1,0.1-0.1c0.3-0.7,0.8-1.5,1.9-1.9c-1,3.6-2.7,10.8-3.3,14.3
				c0.1,0.2,1,0.6,1.4,0.7c0.4,0,0.6-0.5,0.8-1.3c0.1-0.7-0.1-0.8,0-1.2l1-4.6h0.1c1.2,1.4,3.9,5.6,5,7.3c0.4,0,1-0.5,1.2-0.6
				c0,0,0.1-0.1,0.1-0.2c0.6,1.2,1.5,1.8,2.6,1.9c1.3,0.1,2.4-0.7,3.1-1.8c0.1,0.8,0.4,1.3,1.1,1.3c0.5,0,0.8-0.3,0.8-0.3
				c0.1-2.1,1.6-5.8,2.7-7.7h0.3c-0.3,1.1-0.9,3.4-0.9,4.4c-0.1,1.8,0.2,3.4,1.7,3.6c1.1,0.1,2-0.7,2.4-1.5c0.4,1.2,1.2,2,2.3,2.1
				c1.4,0.1,3.7-1.5,3.8-3c0.1-1.3-0.7-1.2-0.7-1.2c-0.2,1.2-2.1,2.6-3.4,2.5c-0.5,0-0.7-0.4-0.6-1c0.3-3.4,0.5-3.5,2.1-7.9
				c1.1-0.1,2.4-0.1,3.3-0.1c0.3,0,0.3-0.2,0.4-0.3c0-0.1-0.3-0.7-0.4-0.8C376.9,118,376.7,118.2,376.6,117.9z M360.5,117.7
				c0.2-0.3,0.3-0.4,0.4-0.4s0.3,0.1,0.2,1.1c-0.2,2-1,4.5-1.9,4.4c-0.5,0-0.5-0.6-0.5-0.6C359.1,120.7,359.9,118.9,360.5,117.7z
				 M352.4,113.2c0.1,0,0.2,0,0.4,0c1.8,0.1,3.1,1.4,3,3.1c-0.2,2.9-2.3,3.9-5,3.7C351.3,117.5,352,115,352.4,113.2z M370.3,125.9
				c0,0.2,0,0.4,0,0.6c-0.3,0.6-0.8,1.5-1.4,1.4c-0.6,0-0.9-0.6-0.8-1.8c0.2-2.6,1.3-5.1,1.9-7.2c0.2,0.4,0.5,0.8,0.9,0.8l1-0.1
				C371.1,121.9,370.4,124.6,370.3,125.9z"/>
			<path class="st0" d="M389.8,126.7c-0.3,1.3-0.7,2.7-1.8,2.7c-0.8-0.1-0.9-0.8-0.8-1.8c0.1-1.8,0.9-4,1.8-6.5
				c0.2-0.5-0.7-0.6-0.9-0.7c0,0,0-0.1,0-0.2c0.1-0.7-0.5-1.7-2-1.8c-2.7-0.2-4.8,3.6-5.1,7.7c-0.2,2.7,0.9,4.5,2.5,4.6
				c1.1,0.1,2.1-0.7,2.5-1.4h0.1c0,0.5,0.5,1.5,1.5,1.6c1.7,0.1,2.8-2.3,2.9-3.5C390.5,126.6,389.8,126.7,389.8,126.7z M383.4,129.1
				c-0.6,0-0.8-0.6-0.6-2c0.2-2.3,1.6-7.6,3.2-7.4c0.4,0,0.4,0.6,0.4,0.8c-0.1,0.8-0.4,1.6-0.9,2.2c0.3,0.4,1,0.6,1,0.6
				C386.3,124,384.7,129.2,383.4,129.1z"/>
		</g>
		<g>
			<path class="st0" d="M408.4,129.8l-2.4-2l0,0l-0.6-0.5c-0.2,0.2-0.5,0.4-0.7,0.6c-0.3,0.2-0.6,0.4-0.9,0.6
				c-0.3,0.2-0.7,0.3-1,0.3c-0.4,0.1-0.8,0.1-1.2,0.1c-0.6,0-1.1-0.2-1.6-0.5s-0.9-0.6-1.2-1.1c-0.3-0.4-0.6-0.9-0.7-1.5
				c-0.2-0.6-0.2-1.2-0.2-1.8l0,0c0-0.6,0.2-1.2,0.4-1.7c0.2-0.5,0.6-1,0.9-1.4c0.4-0.4,0.8-0.7,1.3-0.9s1.1-0.3,1.7-0.2
				c0.8,0.1,1.5,0.3,2.1,0.7c0.5,0.4,1,0.8,1.4,1.4l0.8-0.5l0,0l2.5-1.7c-0.3-0.5-0.6-0.9-1-1.3c-0.3-0.4-0.7-0.7-1.1-1l0,0
				c-0.1-0.1-0.2-0.1-0.2-0.2c-0.5-0.3-1.1-0.6-1.8-0.8c-0.7-0.2-1.4-0.3-2.2-0.4c-1.2-0.1-2.4,0-3.4,0.4c-1.1,0.3-2,0.9-2.8,1.6
				c-0.8,0.7-1.5,1.5-2,2.5s-0.8,2-0.9,3.2l0,0c-0.1,1.2,0,2.3,0.4,3.3s0.9,2,1.5,2.7c0.7,0.8,1.5,1.4,2.5,1.9s2,0.8,3.2,0.9
				c0.9,0.1,1.7,0,2.4-0.1c0.7-0.1,1.4-0.3,2-0.6c0.1,0,0.1-0.1,0.2-0.1l0,0h0.1l0,0c0.5-0.3,1-0.6,1.4-0.9
				C407.6,130.6,408,130.2,408.4,129.8z"/>
			<path class="st0" d="M422.8,132.2c-0.7-0.8-1.3-1.8-1.6-2.9c-0.4-1.1-0.5-2.2-0.4-3.4l0,0c0.1-1.2,0.4-2.3,0.9-3.3
				s1.2-1.9,2.1-2.6c0.1-0.1,0.1-0.1,0.2-0.2l0,0l0.1-1.6l-4.5-0.4l-4.5,6.1l-3.5-6.8l-4.5-0.4v0.5l0.1,0.1l0.1,0.1
				c0.1,0,0.1,0.1,0.2,0.2l0.1,0.1c0.1,0.1,0.1,0.1,0.2,0.2l0.1,0.1c0.1,0.1,0.2,0.2,0.3,0.3c0.4,0.5,0.8,1,1.1,1.5l0.1,0.1
				l-2.7,1.8l-0.5,5.9l2.5,2.1l-0.1,0.1c-0.4,0.5-0.9,1-1.4,1.4c-0.1,0.1-0.2,0.2-0.3,0.2c0,0-0.1,0-0.1,0.1
				c-0.1,0.1-0.2,0.1-0.2,0.2l-0.1,0.1c-0.1,0-0.1,0.1-0.2,0.1c0,0-0.1,0.1-0.2,0.1s-0.1,0.1-0.2,0.1v0.6l4.1,0.3l0.8-9.7l3.8,7
				l4.9-6.4l-0.8,9.7l4.1,0.3l0.1-1.6l0,0C422.9,132.3,422.8,132.3,422.8,132.2z"/>
			<path class="st0" d="M437.8,124c-0.4-1-0.9-2-1.6-2.8c-0.7-0.8-1.6-1.5-2.6-2s-2.1-0.8-3.4-0.9c-1.2-0.1-2.4,0-3.5,0.4
				c-0.9,0.3-1.7,0.7-2.5,1.3c0,0,0,0-0.1,0l-0.1,0.1l0,0c-0.1,0-0.1,0.1-0.2,0.1l0,0c-0.8,0.7-1.5,1.5-2,2.5s-0.8,2-0.9,3.2l0,0
				c-0.1,1.1,0,2.2,0.4,3.3c0.4,1,0.9,2,1.6,2.8l0,0c0.1,0.1,0.1,0.1,0.2,0.2l0,0l0.1,0.1c0,0,0,0,0.1,0.1c0.6,0.6,1.4,1.2,2.2,1.6
				c1,0.5,2.1,0.8,3.4,0.9c1.2,0.1,2.4,0,3.5-0.4c1.1-0.3,2-0.9,2.9-1.6c0.8-0.7,1.5-1.5,2-2.5s0.8-2,0.9-3.2l0,0
				C438.3,126.1,438.2,125,437.8,124z M433.9,127c0,0.6-0.2,1.2-0.5,1.7s-0.6,1-1,1.4s-0.9,0.7-1.4,0.9c-0.6,0.2-1.2,0.3-1.8,0.2
				s-1.2-0.2-1.7-0.5s-0.9-0.7-1.3-1.1c-0.3-0.4-0.6-1-0.8-1.5c-0.2-0.6-0.2-1.1-0.2-1.8l0,0c0-0.6,0.2-1.2,0.4-1.7s0.6-1,1-1.4
				s0.9-0.7,1.4-0.9s1.1-0.3,1.8-0.2c0.6,0.1,1.2,0.2,1.7,0.5s0.9,0.7,1.3,1.1c0.4,0.4,0.6,1,0.8,1.5
				C433.9,125.7,434,126.3,433.9,127L433.9,127z"/>
		</g>
	</g>
	<g>
		<path d="M215.4,227.2c1.3-0.9,2.8-0.7,3.7,0.5c0.9,1.2,0.6,2.7-0.7,3.6c-1.2,0.9-2.7,0.8-3.7-0.5
			C213.8,229.6,214.2,228.1,215.4,227.2z M220.8,224.4l0.9-0.7c1.7-1.6,4.2-2.5,7.6-2.2c3,0.2,5,0.1,6.5-1.1
			c1.8-1.3,2.1-3.3,0.6-5.5c-0.9-1.2-2.3-2.3-3.6-2.7l1.6-2.4c1.7,0.5,3.7,2.1,5,3.9c2.9,4,1.8,7.6-0.8,9.5c-2.4,1.7-5,1.7-8.2,1.4
			c-2.9-0.2-4.9,0.4-6.5,1.8l-0.9,0.7L220.8,224.4z"/>
	</g>
	<g>
		<path d="M166.6,180.1l-0.1-1.1c-0.3-2.3,0.4-4.9,2.5-7.5c1.9-2.3,2.9-4,2.9-5.9c0-2.2-1.4-3.6-4.2-3.6c-1.5,0-3.3,0.6-4.3,1.4
			l-1.1-2.7c1.4-1.1,3.8-1.8,6.1-1.8c4.9-0.1,7.2,2.9,7.3,6.2c0.1,2.9-1.5,5.1-3.5,7.5c-1.8,2.3-2.5,4.2-2.3,6.4l0.1,1.1H166.6z
			 M165.8,186.2c0-1.6,1-2.7,2.5-2.8c1.5,0,2.6,1.1,2.6,2.7c0,1.5-0.9,2.7-2.5,2.7C166.9,188.8,165.8,187.7,165.8,186.2z"/>
	</g>
	<g>
		<path d="M113.3,214.3l-0.8-0.8c-1.6-1.7-2.6-4.1-2.5-7.5c0.1-3-0.1-5-1.3-6.5c-1.3-1.7-3.3-2-5.5-0.4c-1.2,1-2.3,2.4-2.6,3.7
			l-2.5-1.5c0.5-1.7,2-3.7,3.8-5.1c3.9-3,7.5-2,9.5,0.6c1.8,2.3,1.8,5,1.7,8.2c-0.1,2.9,0.5,4.8,2,6.5l0.7,0.9L113.3,214.3z
			 M116.3,219.6c-1-1.3-0.8-2.8,0.4-3.7c1.2-0.9,2.7-0.7,3.7,0.6c0.9,1.2,0.9,2.7-0.4,3.7C118.8,221,117.2,220.8,116.3,219.6z"/>
	</g>
</g>
</svg>
