<?xml version="1.0" encoding="utf-8"?>
<!-- Generator: Adobe Illustrator 21.0.2, SVG Export Plug-In . SVG Version: 6.00 Build 0)  -->
<svg version="1.1" id="Layer_1" xmlns="http://www.w3.org/2000/svg" xmlns:xlink="http://www.w3.org/1999/xlink" x="0px" y="0px"
	 viewBox="0 0 955.8 826.1" style="enable-background:new 0 0 955.8 826.1;" xml:space="preserve">
<style type="text/css">
	.st0{fill:#F5F5F5;}
	.st1{fill:#BCBCBC;}
	.st2{fill:#1A1A1A;stroke:#000000;stroke-width:0.5;stroke-miterlimit:10;}
	.st3{fill:#FFE600;stroke:#000000;stroke-width:0.5;stroke-miterlimit:10;}
	.st4{fill:#FFFFFF;stroke:#000000;stroke-width:0.5;stroke-miterlimit:10;}
	.st5{fill:#1A1A1A;}
	.st6{fill:#FFFFFF;stroke:#000000;stroke-miterlimit:10;}
	.st7{fill:none;stroke:#000000;stroke-width:0.5;stroke-miterlimit:10;}
	.st8{fill:#F2F2F2;stroke:#000000;stroke-width:0.5;stroke-miterlimit:10;}
	.st9{fill:#0077BF;stroke:#000000;stroke-width:0.5;stroke-miterlimit:10;}
	.st10{fill:#CCCCCC;stroke:#000000;stroke-width:0.5;stroke-miterlimit:10;}
	.st11{fill:#EB058C;stroke:#000000;stroke-width:0.5;stroke-miterlimit:10;}
	.st12{fill:#B70272;stroke:#000000;stroke-width:0.5;stroke-miterlimit:10;}
	.st13{fill:#E5E5E5;stroke:#000000;stroke-width:0.5;stroke-miterlimit:10;}
	.st14{fill:#C10072;stroke:#000000;stroke-width:0.5;stroke-miterlimit:10;}
</style>
<g id="Layer_7_3_">
	<path class="st0" d="M454.4,154.2c0,0,26.5-197.5,240.9-145.5c0,0,259.1,32,260.3,355.6c0,0,11,145.3-117,321
		c0,0-121,134.6-275.2,140.5c0,0-266.6,14.2-442.2-143.7c0,0-243.7-164.5-39.9-332.9c0,0,75.2-51.1,180-14.8
		C261.2,334.5,419.7,401.4,454.4,154.2z"/>
</g>
<ellipse class="st1" cx="435.7" cy="736" rx="154.4" ry="14.4"/>
<ellipse class="st1" cx="598.3" cy="707.4" rx="108.8" ry="11.2"/>
<ellipse class="st1" cx="362.1" cy="707.4" rx="108.8" ry="11.2"/>
<ellipse class="st1" cx="258.5" cy="699.3" rx="121.9" ry="11.2"/>
<ellipse class="st1" cx="754.5" cy="699.3" rx="121.9" ry="11.2"/>
<g id="Layer_9">
	<path class="st2" d="M202.1,685.6h-18.5l3-318.1l119.8,13.6l30.1,304.6H318l-68.6-270.8c0,0-3.8-6.6-8.7,0L202.1,685.6h-18.5"/>
	<path class="st3" d="M185,257.6c0,0,10.5,70.3,1.7,109.9c0,0,49.4,34.2,119.7,13.5l4.4-105.8l24,22.9l24.2,89l12.4-0.9l-6.6-99.8
		l-54.5-75.1c0,0-9.1-7.3-52.6-6.6c0,0-16.9,14.1-29.3,0c-12.9-4.1-27.8-5.4-40.5-0.8c-16.6,11.3-58,54.6-77.7,84.7
		c-4.1,6.2-2.5,14.5,3.6,18.8c14.5,10.3,41.2,29.1,58.7,40.7l9.4-11.4l-40.5-44.9L185,257.6z"/>
	<path class="st4" d="M358.8,387c-14.7,10.1,0.4,9.4,0.4,9.4s5.3,18.7,9.9,18.3c6.3-0.6,2.1-28.6,2.1-28.6L358.8,387z"/>
	<polygon class="st5" points="318,685.6 318,701.5 326.7,701.5 326.7,697.6 332,701.5 372.2,701.5 372.2,701.5 336.5,685.6 	"/>
	<polygon class="st5" points="202.1,685.6 202.1,701.5 193.5,701.5 193.5,697.6 188.1,701.5 147.9,701.5 147.9,701.5 183.6,685.6 	
		"/>
	<path class="st4" d="M231.1,193.3l-15.9,15.9l24,2.8c0,0,12.4-13.7,1.5-17.4L231.1,193.3z"/>
	<polygon class="st4" points="245.7,212.4 270.4,213.8 261.8,197.3 247.5,195.4 	"/>
	<path class="st5" d="M239.3,209.9L226.1,315l17.8,21.8l14.8-23.8l-14.6-102.7C244,210.4,242,205.1,239.3,209.9z"/>
	<path class="st4" d="M259.9,199.1c0.2,0.4,0.3,0.7,0.2,1.1c-0.1,0.4-0.3,0.7-0.6,1c-3.2,3.5-6.8,6.6-10.6,9.4
		c-2.2,1.6-5.1,3.2-7.8,2.2c-1.6-0.7-3-1.9-4-3.3l-4.8-5.8c2.2-1.5,2.2-4.7,2-7.4c-0.4-3.5-0.9-7.1-1.6-10.5
		c5.7-4.4,12.5-7.3,19.7-8.3c2.4-0.4,3.7,0,3.8,2.6s0,4.4,0.3,6.6C257.1,190.8,258.2,195.1,259.9,199.1z"/>
	<path class="st4" d="M255,186.6c-6.4,4.2-14.4,7.6-21.6,5.2c-5.4-1.8-9.3-6.5-11.9-11.5c-2.7-5.4-4.8-11.1-6.4-17
		c-1.3-3.6-2.1-7.4-2.3-11.3c0-5.5,2.2-10.7,4.4-15.8c3.6-8.3,7.8-17.1,15.6-21.7c4.6-2.3,9.6-3.8,14.7-4.4
		c3.7-0.8,7.6-1.1,11.4-0.7c3.2,0.5,6.2,1.6,9,3.2c8,4.3,14.1,11.3,17.3,19.8C292.9,154.8,272.3,175.4,255,186.6z"/>
	<path class="st6" d="M254.1,137.5c4.4,0.7,7.7,4.2,8.1,8.7"/>
	<path class="st6" d="M223.1,133.2c3.4-2.9,8.3-3.1,11.8-0.4"/>
	<path class="st4" d="M234.7,161c-1.3-0.9-2.6-1.9-3.8-2.9c-0.3-0.2-0.6-0.5-0.7-0.9c-0.4-0.9,0.1-1.8,0.6-2.6l2.7-4.2"/>
	<ellipse transform="matrix(0.4862 -0.8739 0.8739 0.4862 -1.451 294.4466)" class="st2" cx="249.7" cy="148.5" rx="2.8" ry="2.2"/>
	
		<ellipse transform="matrix(0.4862 -0.8739 0.8739 0.4862 -7.9896 272.0239)" class="st2" cx="227.3" cy="142.8" rx="2.8" ry="2.2"/>
	<path class="st5" d="M272.6,154.8c0,0,7.2,0.8-3.2,11.5c0,0,1.4,8.3-3.6,12.2c0,0,12.5-2.6,26.8-26.5c0,0,6.7-22.3-7.8-36
		c0,0-18.5-18.4-44-10c0,0-27,9.6-25.9,35.3c0,0,8.3-19.1,20.3-25.2c0,0,19,11.1,28.5,8.8C263.9,124.9,272.3,129.9,272.6,154.8z"/>
	<path class="st7" d="M225.6,167.9c0,0,5.4,7.7,16.5,3.2C242,171.1,233.5,183.2,225.6,167.9z"/>
	<path class="st7" d="M246.5,166.6c0.7,1.1,0.8,2.5,0.3,3.7"/>
	<path class="st7" d="M226.9,139.2c2.6,0.9,4.6,3,5.3,5.6"/>
	<path class="st7" d="M250,144.6c1.9,1.4,3.2,3.4,3.8,5.7"/>
	<path class="st4" d="M181.9,336.8c0,0,7.6-0.1,13.9,1.8c12.1,3.6,15.6,14.6,11.8,18.3c-3.5,3.4-13.9,1.4-16.7-1.6
		c-4.5-4.8-9,1.2-15-4c-3.3-2.9-3.3-2.9-3.3-2.9L181.9,336.8z"/>
</g>
<g id="Layer_9_1_">
	<path class="st2" d="M696.9,684.7h-18.5l3-318.1l119.7,13.5l30.1,304.6h-18.5l-68.6-270.8c0,0-3.8-6.6-8.7,0L696.9,684.7h-18.5"/>
	<path class="st3" d="M846.5,291L806,335.9l9.4,11.4c17.5-11.6,44.2-30.4,58.7-40.7c6.1-4.3,7.7-12.6,3.6-18.8
		c-19.7-30.2-61.2-73.4-77.7-84.7c-12.6-4.6-27.6-3.3-40.5,0.8c-12.4,14.1-29.3,0-29.3,0c-43.5-0.7-52.6,6.6-52.6,6.6l-54.5,75.1
		l-6.6,99.8l12.4,0.9l24.2-89l24-22.9l4.4,105.8c70.3,20.7,119.7,0,119.7,0c-8.8-39.6,1.7-123.4,1.7-123.4L846.5,291z"/>
	<path class="st4" d="M616.6,385.3c0,0-4.3,28.1,2.1,28.6c4.6,0.4,9.9-18.3,9.9-18.3s15.1,0.7,0.4-9.4L616.6,385.3z"/>
	<polygon class="st5" points="812.8,684.7 812.8,700.7 821.5,700.7 821.5,696.7 826.9,700.7 867,700.7 867,700.7 831.3,684.7 	"/>
	<polygon class="st5" points="696.9,684.7 696.9,700.7 688.3,700.7 688.3,696.7 682.9,700.7 642.7,700.7 642.7,700.7 678.4,684.7 	
		"/>
	<path class="st4" d="M725.9,192.4L710,208.3l24,2.8c0,0,12.4-13.7,1.5-17.4L725.9,192.4z"/>
	<polygon class="st4" points="740.5,211.5 765.2,212.9 756.6,196.4 742.3,194.5 	"/>
	<path class="st5" d="M734.1,209l-13.2,105.1l17.8,21.8l14.8-23.8l-14.6-102.7C738.8,209.5,736.8,204.2,734.1,209z"/>
	<path class="st4" d="M754.7,198.2c0.2,0.4,0.3,0.7,0.2,1.1s-0.3,0.7-0.6,1c-3.2,3.5-6.8,6.6-10.6,9.4c-2.2,1.6-5.1,3.2-7.8,2.2
		c-1.6-0.7-3-1.9-4-3.3l-4.8-5.8c2.2-1.5,2.2-4.7,2-7.4c-0.4-3.5-0.9-7.1-1.6-10.5c5.7-4.4,12.5-7.3,19.7-8.3c2.4-0.4,3.7,0,3.8,2.6
		s0,4.4,0.3,6.6C751.9,190,753,194.2,754.7,198.2z"/>
	<path class="st4" d="M749.8,185.7c-6.4,4.2-14.4,7.6-21.6,5.2c-5.4-1.8-9.3-6.5-11.9-11.5c-2.7-5.4-4.8-11.1-6.4-17
		c-1.3-3.6-2.1-7.4-2.3-11.3c0-5.5,2.2-10.7,4.4-15.8c3.6-8.3,7.8-17.1,15.6-21.7c4.6-2.3,9.6-3.8,14.7-4.4
		c3.7-0.8,7.6-1.1,11.4-0.7c3.2,0.5,6.2,1.6,9,3.2c8,4.3,14.1,11.3,17.3,19.8C787.7,153.9,767.1,174.5,749.8,185.7z"/>
	<path class="st6" d="M748.9,136.6c4.4,0.7,7.7,4.2,8.1,8.7"/>
	<path class="st6" d="M717.9,132.3c3.4-2.9,8.3-3.1,11.8-0.4"/>
	<path class="st4" d="M729.5,160.1c-1.3-0.9-2.6-1.9-3.8-2.9c-0.3-0.2-0.6-0.5-0.7-0.9c-0.4-0.9,0.1-1.8,0.6-2.6l2.7-4.2"/>
	<ellipse transform="matrix(0.4862 -0.8739 0.8739 0.4862 253.588 726.36)" class="st2" cx="744.5" cy="147.5" rx="2.8" ry="2.2"/>
	
		<ellipse transform="matrix(0.4862 -0.8739 0.8739 0.4862 247.0516 704.0386)" class="st2" cx="722.2" cy="141.9" rx="2.8" ry="2.2"/>
	<path class="st5" d="M767.4,153.9c0,0,7.2,0.8-3.2,11.5c0,0,1.4,8.3-3.6,12.2c0,0,12.5-2.6,26.8-26.5c0,0,6.7-22.3-7.8-36
		c0,0-18.5-18.4-44-10c0,0-27,9.6-25.9,35.3c0,0,8.3-19.1,20.3-25.2c0,0,19,11.1,28.5,8.8C758.7,124,767.1,129,767.4,153.9z"/>
	<path class="st7" d="M720.4,167c0,0,5.4,7.7,16.5,3.2C736.8,170.2,728.3,182.3,720.4,167z"/>
	<path class="st7" d="M741.3,165.8c0.7,1.1,0.8,2.5,0.3,3.7"/>
	<path class="st7" d="M721.7,138.3c2.6,0.9,4.6,3,5.3,5.6"/>
	<path class="st7" d="M744.8,143.7c1.9,1.4,3.2,3.4,3.8,5.7"/>
	<path class="st4" d="M806,335.9c0,0-7.6-0.1-13.9,1.8c-12.1,3.6-15.6,14.6-11.8,18.3c3.5,3.4,13.9,1.4,16.7-1.6c4.5-4.8,9,1.2,15-4
		c3.3-2.9,3.3-2.9,3.3-2.9L806,335.9z"/>
</g>
<g>
	<g id="Layer_8">
		<path class="st4" d="M387.3,253.6c0.1,0.3,0.2,0.7,0.1,1.1c-0.1,0.3-0.4,0.6-0.7,0.8c-3.4,2.8-7,5.2-10.9,7.2
			c-2.3,1.2-5,2.3-7.3,1.1c-1.4-0.9-2.5-2.1-3.2-3.5l-3.6-6c2.2-1.1,2.7-4,2.8-6.5c0.1-3.3,0.1-6.5-0.1-9.8c5.8-3.3,12.3-5,18.9-5
			c2.3,0,3.4,0.5,3.1,2.8s-0.6,4-0.5,6.1C385.8,245.7,386.3,249.7,387.3,253.6z"/>
		<path class="st8" d="M401.6,690.1h12.2c0,0,10.8-207.8,8.4-255.5c-1.5-30.1-18.2-45.9-18.2-45.9h-66.5c0,0-16.7,15.8-18.2,45.9
			c-2.3,47.7-17.6,255.5-17.6,255.5H316c0,0,49.2-250.6,55-248C370.8,442.1,394.5,547.6,401.6,690.1z"/>
		<path class="st5" d="M317.7,688.1v23.3h-3.4l-2.5-9.8l-6.1,9.8h-34.2c13.2-2.7,24.4-11.3,30.5-23.3H317.7z"/>
		<path class="st5" d="M399.5,688.1v23.3h3.4l2.5-9.8l6.1,9.8h34.2c-13.2-2.7-24.4-11.3-30.6-23.3H399.5z"/>
		<path class="st2" d="M382.3,238.8L382.3,238.8l0.8,4.5l4.5,5.2c0.4,0.4,0.7,1,0.9,1.5c6.1,3.6,14.5,7.1,15.4,7.5
			c5.5,2.7,9.7,5.1,12.6,8.5c-0.3-8.7-1.1-17.3-1.9-26c-0.8-8.1-2-16.1-3-24.2c-0.9-7.5,1.5-13.5,2-21c1.6-22-6.5-39.9-27.7-47.1
			c-19.8-6.7-39.6,7.1-45.6,26c-0.7,2.3-1.3,4.7-1.8,7c-1.3,6.5-1.9,13-4.2,19.6c-3.2,9.3-7.3,18.4-12.2,26.9
			c-2.4,4.2-16.2,29-11.5,35L382.3,238.8z"/>
		<path class="st9" d="M325.3,291.6c0,0-3.1,3.3,9.8,58.7c3.6,15.6-6.5,42-9.3,56.4c0,0.1,56.1,18.9,89-2.3
			c-4.9-6.3-12.4-28.9-11.8-51.3c0.4-17.1,8-33.7,10.6-44.4c2.5-10.2,2.5-10.2,2.5-10.2l30.7,95.6l13.8-1.9
			c-15.7-101.5-32.1-136-32.1-136c-9.4-5.4-36.9-16.7-36.9-16.7c-7.4,5.4-16,3.8-24.5,0.5c-5.8-4.7-46.9,7.5-52.5,13.9
			c-16.2,25.7-35.3,50.5-47,65c-5.5,6.8-3.4,16.9,4.3,21l51.4,27.6l1.7-10.9l-31.4-31.5L325.3,291.6z"/>
		<path class="st9" d="M333.2,306.8c0,0,9.1,18.9,30.7,8.6"/>
		<path class="st9" d="M411.2,306.8c0,0-9.1,18.9-30.7,8.6"/>
		<path class="st4" d="M448.2,394.2c-12.6,10.4,1.1,8.6,1.1,8.6s6.3,16.7,10.5,15.9c5.8-1-0.4-26.5-0.4-26.5L448.2,394.2z"/>
		<g id="Layer_7_1_">
			<path class="st4" d="M371.4,252.4c3-0.1,11-5.3,15.2-11l3.4-6.1c0-0.1,0,2,0,1.9c-2.5,1.1-4.9-9.9-4.4-14.2
				c-0.6,0.6,4.7-16.1,4-15.5l-6.3,8.2c-3.8,3.4-2.8,3.9-6.5,3.8c-3.8,0.1-9.2,8.5-13,5.1l-1-0.9c-2.9-2.5-5.5-5.3-7.8-8.4
				c-0.1,0.3,1.2,3.7,1.2,4c0.9,6.5,0,11.8-3.3,16.4l3.2,5.9C360,246.8,368.4,252.3,371.4,252.4z"/>
			<path class="st4" d="M363,162c-1,2.7,6,8.5,7.7,10.5c2,2.3,4.6,4.1,7.1,6.2l0,0c0.3-0.1,7.3,8.3,11.1,11.8
				c4.3,4.1,6.9,6.6,10.6,11.5c-1.4,2.9-4,7.6-6.9,7c-0.9-0.2-1.6,0.7-2,1.6c-1.2,2.6-2.8,5.9-5,7.8c0,0-8,5.5-18.1,8.1
				s-16.9-10.8-16.9-10.8s-6.6-11.8-4.3-26C348.5,175.3,363,162,363,162z"/>
			<path class="st10" d="M378.8,263.2l-2.3-2.8l-1.8,3.4c-0.4,0.7-0.5,1.6-0.3,2.4l3.2,14.7l2-6.6l2.1-6.4l-1.2-2.2
				C380,264.8,379.5,264,378.8,263.2z"/>
			<path class="st10" d="M362.2,265.7l-1.2,2.2l2.1,6.4l2,6.6l3.2-14.7c0.2-0.8,0.1-1.7-0.3-2.4l-1.8-3.4l-2.3,2.8
				C363.2,264,362.7,264.8,362.2,265.7z"/>
			<path class="st9" d="M377.6,280.9l-3.2-14.7c-0.2-0.8-0.1-1.7,0.3-2.4l1.8-3.4l-5.2-6.5l-5.2,6.5l1.8,3.4
				c0.4,0.7,0.5,1.6,0.3,2.4l-3.2,14.7l4,13.3c1.5,0,3-0.1,4.5-0.1L377.6,280.9z"/>
			<path class="st4" d="M390,235.2l-3.4,6.1c-4.2,5.7-12.3,10.9-15.2,11c-3-0.1-11.4-5.6-15.2-11l-3.2-5.9l-0.2-0.3l-1.5,4.3
				l0.1-0.1l9.6,28.5l1.2-2.2c0.5-0.9,1.1-1.7,1.8-2.5l2.3-2.8l5.2-6.5l5.2,6.5l2.3,2.8c0.7,0.8,1.3,1.6,1.8,2.5l1.2,2.2l9.6-28.5
				l0.1,0.1L390,235.2L390,235.2z"/>
			<path class="st4" d="M400.4,275.3l-7.2-12.8l9.7,1c-0.9-2.7-2.7-14.3-5-18.5c-0.3-0.5-0.6-1-1.1-1.4l-5.4-4.3l-0.1-0.1l-9.6,28.5
				l-2.1,6.4l-2,6.6l-11.8,48.7L400.4,275.3z"/>
			<path class="st4" d="M372.2,303.3l-7.1-22.4l-2-6.6l-2.1-6.4l-9.6-28.5l-0.1,0.1l-4.6,3.6l-0.8,0.7c-2.9,1.5-5.1,16.7-6.1,19.8
				l9.7-1l-7.2,12.8c-0.3,0.5,20.6,31.9,26.7,41.1L372.2,303.3z"/>
			<path class="st7" d="M377.4,185.8c3.1,0.3,5.9,2,7.7,4.5"/>
			<path class="st7" d="M353.7,183.1c2.9-1.2,6.1-1.1,8.9,0.2"/>
			<circle class="st2" cx="376.9" cy="192.5" r="2.3"/>
			<circle class="st2" cx="355.7" cy="188.5" r="2.3"/>
			<path class="st7" d="M357.3,210c0,0,6.1,8.4,14.9,3.3"/>
			<path class="st7" d="M369.2,192.5c-0.3,2.2-0.9,4.4-2,6.3c-0.8,1.5-1.9,2.8-2.8,4.3c-0.5,0.7-0.8,1.5-0.8,2.4s0.8,1.6,1.6,1.6
				l0,0"/>
			<path class="st4" d="M324.8,356.6c0,0,22.6-2,23.7,15.1c0,0-3.8,7.3-14-1.4c-5.7-4.9-5.5,0.4-11.5-2.8"/>
			<path class="st7" d="M374.9,190.2c0,0,4.3-1,7.5,3.7"/>
			<path class="st7" d="M360.2,190c0,0-3.7-6.6-7.8-2.8"/>
		</g>
	</g>
</g>
<g>
	<g id="Layer_8_1_">
		<path class="st4" d="M635.1,253.6c0.1,0.3,0.2,0.7,0.1,1.1c-0.1,0.3-0.4,0.6-0.7,0.8c-3.4,2.8-7,5.2-10.9,7.2
			c-2.3,1.2-5,2.3-7.3,1.1c-1.4-0.9-2.5-2.1-3.2-3.5l-3.6-6c2.2-1.1,2.7-4,2.8-6.5c0.1-3.3,0.1-6.5-0.1-9.8c5.8-3.3,12.3-5,18.9-5
			c2.3,0,3.4,0.5,3.1,2.8c-0.2,2.4-0.6,4-0.5,6.1C633.6,245.7,634.1,249.7,635.1,253.6z"/>
		<path class="st8" d="M649.4,690.1h12.3c0,0,10.8-207.8,8.4-255.5c-1.5-30.1-18.2-45.9-18.2-45.9h-66.5c0,0-16.7,15.8-18.2,45.9
			c-2.5,47.7-17.8,255.5-17.8,255.5h14.3c0,0,49.2-250.6,55-248C618.6,442.1,642.3,547.6,649.4,690.1z"/>
		<path class="st5" d="M565.5,688.1v23.3h-3.4l-2.5-9.8l-6.1,9.8h-34.2c13.2-2.7,24.4-11.3,30.5-23.3H565.5z"/>
		<path class="st5" d="M647.2,688.1v23.3h3.4l2.5-9.8l6.1,9.8h34.2c-13.2-2.7-24.4-11.3-30.6-23.3H647.2z"/>
		<path class="st2" d="M630.1,238.8L630.1,238.8l0.8,4.5l4.5,5.2c0.4,0.4,0.7,1,0.9,1.5c6.1,3.6,14.5,7.1,15.4,7.5
			c5.5,2.7,9.7,5.1,12.6,8.5c-0.3-8.7-1.1-17.3-1.9-26c-0.8-8.1-2-16.1-3-24.2c-0.9-7.5,1.5-13.5,2-21c1.6-22-6.5-39.9-27.7-47.1
			c-19.8-6.7-39.6,7.1-45.6,26c-0.7,2.3-1.3,4.7-1.8,7c-1.3,6.5-1.9,13-4.2,19.6c-3.2,9.3-7.3,18.4-12.2,26.9
			c-2.4,4.2-16.2,29-11.5,35L630.1,238.8z"/>
		<path class="st9" d="M664.3,291.6c0,0,3.1,3.3-9.8,58.7c-3.6,15.6,6.5,42,9.3,56.4c0,0.1-56.1,18.9-89-2.3
			c4.9-6.3,12.4-28.9,11.8-51.3c-0.4-17.1-8-33.7-10.6-44.4c-2.5-10.2-2.5-10.2-2.5-10.2l-30.7,95.6l-13.8-1.9
			c15.7-101.5,32.1-136,32.1-136c9.4-5.4,36.9-16.7,36.9-16.7c7.4,5.4,16,3.8,24.5,0.5c5.8-4.7,46.9,7.5,52.5,13.9
			c16.2,25.7,35.3,50.5,47,65c5.5,6.8,3.4,16.9-4.3,21l-51.4,27.6l-1.7-10.9l31.4-31.5L664.3,291.6z"/>
		<path class="st9" d="M656.3,306.8c0,0-9.1,18.9-30.7,8.6"/>
		<path class="st9" d="M578.4,306.8c0,0,9.1,18.9,30.7,8.6"/>
		<path class="st4" d="M541.3,394.2c12.6,10.4-1.1,8.6-1.1,8.6s-6.3,16.7-10.5,15.9c-5.8-1,0.4-26.5,0.4-26.5L541.3,394.2z"/>
		<g id="Layer_7_2_">
			<path class="st4" d="M619.1,252.4c3-0.1,11-5.3,15.2-11l3.4-6.1c0-0.1,0,2,0,1.9c-2.5,1.1-4.9-9.9-4.4-14.2
				c-0.6,0.6,4.7-16.1,4-15.5l-6.3,8.2c-3.8,3.4-2.8,3.9-6.5,3.8c-3.8,0.1-9.2,8.5-13,5.1l-1-0.9c-2.9-2.5-5.5-5.3-7.8-8.4
				c-0.1,0.3,1.2,3.7,1.2,4c0.9,6.5,0,11.8-3.3,16.4l3.2,5.9C607.7,246.8,616.1,252.3,619.1,252.4z"/>
			<path class="st4" d="M610.8,162c-1,2.7,6,8.5,7.7,10.5c2,2.3,4.6,4.1,7.1,6.2l0,0c0.3-0.1,7.3,8.3,11.1,11.8
				c4.3,4.1,6.9,6.6,10.6,11.5c-1.4,2.9-4,7.6-6.9,7c-0.9-0.2-1.6,0.7-2,1.6c-1.2,2.6-2.8,5.9-5,7.8c0,0-8,5.5-18.1,8.1
				c-10.2,2.6-16.9-10.8-16.9-10.8s-6.6-11.8-4.3-26C596.2,175.3,610.8,162,610.8,162z"/>
			<path class="st10" d="M610.7,263.2l2.3-2.8l1.8,3.4c0.4,0.7,0.5,1.6,0.3,2.4l-3.2,14.7l-2-6.6l-2.1-6.4l1.2-2.2
				C609.5,264.8,610.1,264,610.7,263.2z"/>
			<path class="st10" d="M627.4,265.7l1.2,2.2l-2.1,6.4l-2,6.6l-3.2-14.7c-0.2-0.8-0.1-1.7,0.3-2.4l1.8-3.4l2.3,2.8
				C626.3,264,626.9,264.8,627.4,265.7z"/>
			<path class="st9" d="M611.9,280.9l3.2-14.7c0.2-0.8,0.1-1.7-0.3-2.4l-1.8-3.4l5.2-6.5l5.2,6.5l-1.8,3.4c-0.4,0.7-0.5,1.6-0.3,2.4
				l3.2,14.7l-4,13.3c-1.5,0-3-0.1-4.5-0.1L611.9,280.9z"/>
			<path class="st4" d="M601.5,234.2l3.2,6.5c4.2,5.7,10.5,10.7,13.5,10.8c3-0.1,11.4-4.7,15.2-10.1l3.2-5.9l0.2-0.3l1.5,4.3
				l-0.1-0.1l-9.6,28.5l-1.2-2.2c-0.5-0.9-1.1-1.7-1.8-2.5l-2.3-2.8l-5.2-6.5l-5.2,6.5l-2.3,2.8c-0.7,0.8-1.3,1.6-1.8,2.5l-1.2,2.2
				l-9.6-28.5l-0.1,0.1l1.8-3L601.5,234.2z"/>
			<path class="st4" d="M589.2,275.3l7.2-12.8l-9.7,1c0.9-2.7,2.7-14.3,5-18.5c0.3-0.5,0.6-1,1.1-1.4l5.4-4.3l0.1-0.1l9.6,28.5
				l2.1,6.4l2,6.6l11.8,48.7L589.2,275.3z"/>
			<path class="st4" d="M617.3,303.3l7.1-22.4l2-6.6l2.1-6.4l9.6-28.5l0.1,0.1l4.5,3.7l0.8,0.7c2.9,1.5,5.1,16.7,6.1,19.8l-9.7-1
				l7.2,12.8c0.3,0.5-20.6,31.9-26.7,41.1L617.3,303.3z"/>
			<path class="st7" d="M625.2,185.8c3.1,0.3,5.9,2,7.7,4.5"/>
			<path class="st7" d="M601.5,183.1c2.9-1.2,6.1-1.1,8.9,0.2"/>
			<circle class="st2" cx="624.7" cy="192.5" r="2.3"/>
			<circle class="st2" cx="603.5" cy="188.5" r="2.3"/>
			<path class="st7" d="M605.1,210c0,0,6.1,8.4,14.9,3.3"/>
			<path class="st7" d="M617,192.5c-0.3,2.2-0.9,4.4-2,6.3c-0.8,1.5-1.9,2.8-2.8,4.3c-0.5,0.7-0.8,1.5-0.8,2.4s0.8,1.6,1.6,1.6l0,0"
				/>
			<path class="st4" d="M664.7,356.6c0,0-22.6-2-23.7,15.1c0,0,3.8,7.3,14-1.4c5.7-4.9,5.5,0.4,11.5-2.8"/>
			<path class="st7" d="M622.7,190.2c0,0,4.3-1,7.5,3.7"/>
			<path class="st7" d="M608,190c0,0-3.7-6.6-7.8-2.8"/>
		</g>
	</g>
</g>
<g>
	<path class="st2" d="M531.6,279.1c24.2,12,55-25.1,55-25.1s16.1-9.1,14.9-24.1c0,0-6.5,12.8-27.8-3.6
		c-10.5-8.3-15.8-21.4-23.9-32.2c0,0-15-18.9-37.2-24.5c0,0-17.2-6.7-37.7,4.8c0,0-18.9,10-19.5,30.7c0,0-3.5,25.8,21.5,46.1
		c5,4,9.3,8.8,12.5,14.4l37.9,10.9"/>
	<path class="st4" d="M475.1,441.1c0,0,43.3,219.1,48.3,264.7l15,7.2l-6-282.8C532.5,430.2,492.7,387.8,475.1,441.1z"/>
	<path class="st4" d="M475.1,462.2c0,0-107.1,206.9-125.9,248.7h-14.4l89.1-276.8C423.9,434.1,474.9,406.1,475.1,462.2z"/>
	<path class="st11" d="M523.4,705.8l-2.3,29.1h4.5l3.2-12.8l8,12.8h44.7c-17.2-3.6-35.2-14.8-43.2-30.4L535,550.4l-31.2,36.4
		L523.4,705.8z"/>
	<path class="st11" d="M336.9,704.5c-8,15.6-26.9,26.8-44.1,30.4h44.7l8-12.8l3.2,12.8h4.5l-1.7-30.4l63.8-126.1l-25.9-37.2
		L336.9,704.5z"/>
	<path class="st12" d="M380.9,313.4c0,0-28.4,34.8,94.2,57.7c89,16.7,101-19,101-19s-35.7-76.8-62.2-77.5
		C487.4,274.1,444.3,265.3,380.9,313.4z"/>
	<path class="st4" d="M425.5,310.8l-30.2,24.4l35.4,42.3l-6.3,9.2l-54.8-46.5c-4.7-4.1-4.7-11.4,0.1-15.4l54.7-42.7L425.5,310.8z"/>
	<polygon class="st13" points="389.8,357.5 424.4,386.7 430.7,377.5 402.9,344.3 	"/>
	<polygon class="st4" points="512.7,285.7 548.3,375.9 584.8,435.4 594.1,428.9 564.3,361.6 534.9,277.4 	"/>
	<path class="st4" d="M452.1,267.3c0,0,22.7,2.5,26.5-7.2c3.7-9.7-1.9-15-1.9-15l21.4,2.6c0,0-0.7,16,13.7,19
		c0,0,14.6,36.3,10.6,53.4c-6.7,28.6-35.1,44.5-47.2,47c-11.7,2.4-36.7-25.4-39.4-53.5C433.9,295.1,453,275.8,452.1,267.3z"/>
	<polygon class="st13" points="559.1,393.5 584.8,435.4 594.1,428.9 574.7,385.3 	"/>
	<path class="st11" d="M576.1,352.2l-41.8-77.6c-2.4-2-5.3-3.4-8.3-4.2l-14.2-3.7c0,0-15.6,12.1-30,12.1c-11,0-14.2-5.8-15-12.1
		l-14.6,0.6c-3.9-0.2-7.8,0.8-11.1,2.9L381,313.5c0,0-2.5,38.3,33.5,35.8c0,0,24.6-70.8,67.4-64.2c0,0,24.9,5.9,37,21.2
		C530.8,321.4,546.7,365,576.1,352.2z"/>
	<path class="st9" d="M520.5,378.9c5.7,13.1,43.7,70.9,43.7,70.9S529.1,481,487.1,482s-87.7-32.7-87.7-32.7s38.2-65.3,37.2-71.9
		C436.5,377.5,472.2,399.6,520.5,378.9z"/>
	<path class="st4" d="M503.7,245.1c-5.6,4.6-12.7,8.6-19.8,7c-5.2-1.2-9.3-5.2-12.3-9.6c-3.1-4.8-5.6-10-7.7-15.3
		c-1.6-3.3-2.7-6.8-3.3-10.4c-0.6-5.2,1-10.3,2.6-15.2c2.6-8.1,5.6-16.8,12.4-21.9c4.1-2.7,8.6-4.5,13.3-5.6c3.4-1.1,7-1.7,10.6-1.8
		c3,0.2,6,0.9,8.7,2.1c7.9,3.2,14.3,9.2,18.1,16.8C536.2,211.6,518.7,232.9,503.7,245.1z"/>
	<path class="st5" d="M522.6,230.6c0,0-19.5-25.8-12.5-45.5c0,0-13.4,6.5-21.5,6.6c0,0-21.1-1.3-25.1,14.4c-0.3,1-0.4,2.1-0.3,3.1
		c0.2,3.3,0.5,12-2,15.9l-2.5-7.5l1.5-16.9l12.5-20.9l15.1-9.4l18.7,1.2l14.2,7.1l13,22.9L529,222L522.6,230.6z"/>
	<path class="st4" d="M504.9,211.8c-0.9,0.2-1.8,0.1-2.5-0.5s-1.3-1.2-1.9-1.9c-0.5-0.5-1-0.9-1.5-1.3s-1.1-0.7-1.7-0.9
		c-1.7-0.4-3.4,0-4.8,1.1c-1.3,1.1-2.4,2.4-3.3,3.8"/>
	<path class="st4" d="M479.7,208.6l-1.4-1.6c-1-1.4-2.5-2.3-4.2-2.7c-1.4,0-2.8,0.4-4,1c-1.3,0.6-2.8,0.5-4-0.2"/>
	<path class="st4" d="M490,203c4.4-3.1,10.3-2.9,14.3,0.6"/>
	<path class="st4" d="M481.5,201.1c-2.5-2.7-6.3-4-9.9-3.3"/>
	<path class="st4" d="M483.2,226.3c-1.3-0.7-2.6-1.5-3.8-2.3c-0.3-0.2-0.6-0.4-0.8-0.7c-0.5-0.8-0.1-1.7,0.4-2.5l2.1-4.2"/>
	<path class="st4" d="M486.5,240.1c-1,0.2-2,0.5-2.9,1c-0.3,0.2-0.6,0.4-1,0.5c-1.3,0.4-2.7-0.6-3.3-1.9c-0.4-1.4-0.7-2.7-0.9-4.1
		c-0.4-1.1-1-2.2-1.1-3.4c-0.1-0.3-0.1-0.7,0.1-1c0.3-0.6,1.1-0.7,1.7-0.6c4.5,0.5,8.7,2,12.6,4.2c0.2,0.1,0.3,0.2,0.4,0.3
		c0.5,0.7-1.1,2.4-1.6,3C489.2,239.1,487.9,239.8,486.5,240.1z"/>
	<path class="st14" d="M479.6,242.5c1.2,0.7,2.7,0.9,4.1,0.6c1.4-0.4,2.7-1,3.8-1.8c0.9-0.6,1.8-1.2,2.7-1.9
		c0.7-0.5,1.3-1.1,1.8-1.7s0.8-1.5,0.7-2.3c-1.3,1.2-2.8,2.2-4.4,2.9c-2.1,1.1-4.5,1.5-6.9,1.2c-0.8-0.1-2-0.8-2.7,0
		S478.7,241.9,479.6,242.5z"/>
	<path class="st14" d="M476.5,229.6c2.9-0.9,5.9-0.7,8.6,0.6c2.7,1.2,5.2,2.8,7.5,4.6c0.1,0.1,0.3,0.3,0.3,0.4
		c0,0.2-0.3,0.2-0.5,0.2c-2.8,0.2-5.4-1.2-8.1-2c-2.1-0.7-4.4-1-6.7-0.8C475.9,232.6,473.8,230.5,476.5,229.6z"/>
	<ellipse transform="matrix(0.3916 -0.9201 0.9201 0.3916 107.9296 583.1605)" class="st2" cx="495" cy="210" rx="2.6" ry="2.1"/>
	
		<ellipse transform="matrix(0.3916 -0.9201 0.9201 0.3916 97.6579 561.5416)" class="st2" cx="473.5" cy="206.9" rx="2.6" ry="2.1"/>
	<path class="st3" d="M466.9,199.3c0,0,8.8-3.8,18.7,1.8c9.4-3.5,18.4-1.2,24.9,5.7c0,0-2.2-9.6-1.8-16.1c-4.4-3-14.6-3.2-19-9.7
		c-4.4,4.3-10.1,4.9-15.5,5.6C474.2,186.6,466.3,192.3,466.9,199.3z"/>
	<path class="st11" d="M520.5,378.9c0,0-11.4-23.7-8.7-30.7s9.5-18.3,10.6-28.1c1.1-9.8-20.8-26.7-45.3-11.3c0,0-26.6-21.5-42.1,6.1
		c0,0,4.7,21.8,7,30.9s-5.4,31.6-5.4,31.6S471.9,399.8,520.5,378.9z"/>
	<path class="st3" d="M441.9,345.9c0,0,0.5,2.2,5.8,2.2s24.2-2.2,28.4,6.9c0,0,6.2-9.2,21.8-6.4c15.6,2.8,13.9-0.3,13.9-0.3
		s1.8,3.7,0.4,8.5c0,0-28.1-0.6-36,7.6c0,0-14.3-10.8-34.2-8.7C441.9,355.7,440.5,350.8,441.9,345.9z"/>
	<path class="st3" d="M449.3,301.4c-0.4,5,5.5,9.9,5.5,9.9c-0.4,5,4.3,6.9,4.3,6.9c0.2,2.9,3.6,5,5.6,6s4.8,11.9,4.8,11.9
		c2.2-1.4,5.3-7.2,5.3-7.2c0.1,1.8,4.8,8,4.8,8s3-10.8,6.8-12.6c3.8-1.8,5.2-5.3,5.2-5.3c4.9-2,5.3-7.4,5.3-7.4c4.8-1.4,5-9.3,5-9.3
		s-16.2-1.9-25,6.5C477,308.8,462.9,297.6,449.3,301.4z"/>
	<circle class="st3" cx="478.9" cy="282.1" r="4.2"/>
	<path class="st4" d="M584.8,435.4c0,0-1.3,17.3,2,14.6c0.7-0.6,1.7-3.2,2.3-3c2,0.5,3.4,8.4,5.8,10.3c3.1,2.4,9.1-7.9-0.8-28.4
		L584.8,435.4z"/>
	<path class="st4" d="M430.8,377.5c0,0,5.2,0,9.6,1.5c8.4,2.9,10.8,11.9,8.1,14.9c-2.4,2.7-9.6,1.2-11.5-1.3
		c-3.1-3.9-6.2,0.9-10.3-3.3c-2.3-2.4-2.3-2.4-2.3-2.4L430.8,377.5z"/>
</g>
</svg>
