<svg xmlns="http://www.w3.org/2000/svg" viewBox="0 0 120 112.43"><defs><style>.cls-2{fill:#f2f2f2}.cls-2,.cls-3,.cls-4{stroke:#000;stroke-miterlimit:10}.cls-3{fill:#ffe600}.cls-4{fill:#eb058c}</style></defs><g id="Layer_2" data-name="Layer 2"><g id="landscaping"><path d="M106.5 14.17C104.28 11.74 95.73 2.36 81.64.47c-3-.4-17.09-2.29-26 6-11.74 11-1.81 28.07-11.87 41.16-8.65 11.25-25.08.26-36.17 11.5C1.84 65-1.22 74.85.81 82.21c6.34 23 68.94 45.86 100.87 16 23.25-21.79 22.7-64.43 4.82-84.04z" fill="#fff" id="Layer_9_copy_6" data-name="Layer 9 copy 6"/><rect y="96.12" width="120" height="2.13" rx="1.06" ry="1.06"/><g id="Layer_30" data-name="Layer 30"><path class="cls-2" d="M42.73 77.83v18.29h-6.18V77.83"/><ellipse class="cls-3" cx="39.64" cy="57.49" rx="15" ry="23.58"/><path class="cls-2" d="M89.26 66.1v30.02H49.88V66.1l19.8-19.21L89.26 66.1z"/><path class="cls-4" d="M79.63 55.51v-5.55h9.84v14.92"/><path class="cls-4" d="M69.57 50.97L47.15 72.38l-3.13-2.64 23.99-22.85 1.56-1.45 1.56 1.45 24 22.85-3.14 2.64-22.42-21.41z"/><path fill="#0077bf" stroke="#000" stroke-miterlimit="10" d="M54.7 73.63h12.99v22.49H54.7z"/><path class="cls-2" d="M71.46 73.63h14.79v12.99H71.46z"/><circle class="cls-3" cx="69.57" cy="63.6" r="3.61"/></g></g></g></svg>