<svg xmlns="http://www.w3.org/2000/svg" viewBox="0 0 120 112.43"><defs><style>.cls-1{fill:#fff;}.cls-2{fill:#f2f2f2;}.cls-2,.cls-3,.cls-4,.cls-5{stroke:#000;stroke-miterlimit:10;}.cls-3{fill:#ffe600;}.cls-4{fill:#eb058c;}.cls-5{fill:#0077bf;}</style></defs><title>landscaping</title><g id="Layer_2" data-name="Layer 2"><g id="landscaping"><g id="Layer_9_copy_6" data-name="Layer 9 copy 6"><path class="cls-1" d="M106.5,14.17C104.28,11.74,95.73,2.36,81.64.47c-3-.4-17.09-2.29-26,6-11.74,11-1.81,28.07-11.87,41.16-8.65,11.25-25.08.26-36.17,11.5C1.84,65-1.22,74.85.81,82.21c6.34,23,68.94,45.86,100.87,16C124.93,76.42,124.38,33.78,106.5,14.17Z"/></g><rect y="96.12" width="120" height="2.13" rx="1.06" ry="1.06"/><g id="Layer_30" data-name="Layer 30"><polyline class="cls-2" points="42.73 77.83 42.73 96.12 36.55 96.12 36.55 77.83"/><ellipse class="cls-3" cx="39.64" cy="57.49" rx="15" ry="23.58"/><polygon class="cls-2" points="89.26 66.1 89.26 96.12 49.88 96.12 49.88 66.1 69.68 46.89 89.26 66.1"/><polyline class="cls-4" points="79.63 55.51 79.63 49.96 89.47 49.96 89.47 64.88"/><polygon class="cls-4" points="69.57 50.97 47.15 72.38 44.02 69.74 68.01 46.89 69.57 45.44 71.13 46.89 95.13 69.74 91.99 72.38 69.57 50.97"/><rect class="cls-5" x="54.7" y="73.63" width="12.99" height="22.49"/><rect class="cls-2" x="71.46" y="73.63" width="14.79" height="12.99"/><circle class="cls-3" cx="69.57" cy="63.6" r="3.61"/></g></g></g></svg>