<svg xmlns="http://www.w3.org/2000/svg" viewBox="0 0 120 112.43"><defs><style>.cls-2,.cls-4{fill:#f2f2f2;stroke:#000;stroke-miterlimit:10}.cls-4{fill:#0077bf}</style></defs><g id="Layer_2" data-name="Layer 2"><g id="meal"><path d="M106.5 14.17C104.28 11.74 95.73 2.36 81.64.47c-3-.4-17.09-2.29-26 6-11.74 11-1.81 28.07-11.87 41.16-8.65 11.25-25.08.26-36.17 11.5C1.84 65-1.22 74.85.81 82.21c6.34 23 68.94 45.86 100.87 16 23.25-21.79 22.7-64.43 4.82-84.04z" fill="#fff" id="Layer_9_copy_9" data-name="Layer 9 copy 9"/><rect y="96.12" width="120" height="2.13" rx="1.06" ry="1.06"/><g id="Layer_39_copy" data-name="Layer 39 copy"><circle class="cls-2" cx="60.24" cy="64.89" r="31.07"/><circle class="cls-2" cx="60.24" cy="64.89" r="22.4"/><path d="M61.15 33.82a1.13 1.13 0 0 0-1 1.17v11.78a1.17 1.17 0 0 1-2.33 0V35a1.06 1.06 0 0 0-1-1.17A1.19 1.19 0 0 0 55.45 35v11.77a1.16 1.16 0 0 1-1.17 1.17h0a1.16 1.16 0 0 1-1.17-1.17V35a1.06 1.06 0 0 0-1-1.17A1.19 1.19 0 0 0 50.79 35v11.77a1.16 1.16 0 0 1-1.17 1.17h0a1.16 1.16 0 0 1-1.17-1.17V35a1.06 1.06 0 0 0-1-1.17A1.19 1.19 0 0 0 46.13 35v13.06a8.37 8.37 0 0 0 2.33 5.7 11.31 11.31 0 0 1 3.37 8.8l-2.59 28v.91a5 5 0 0 0 5.83 4.4 5.12 5.12 0 0 0 4-5.57l-2.45-27.87a11.14 11.14 0 0 1 3.38-8.8 8.13 8.13 0 0 0 2.33-5.7V35a1.16 1.16 0 0 0-1.18-1.18z" fill="#ffe600" stroke="#000" stroke-miterlimit="10"/><path class="cls-4" d="M56.75 63h-4.92l-2.46 27.53v.91a5 5 0 0 0 5.83 4.4 5.12 5.12 0 0 0 4-5.57z"/><path d="M72.28 33.82s-5.57 2.2-7.9 18.9c-.91 6.86.52 13.6 3.11 19.94a6 6 0 0 1 .39 2.2l-1.55 16.7v.78A4.09 4.09 0 0 0 70.86 96a4.26 4.26 0 0 0 3.37-4.53z" fill="#eb058c" stroke="#000" stroke-miterlimit="10"/><path class="cls-4" d="M67.88 74.73V75l-1.55 16.7v.78a4.09 4.09 0 0 0 4.53 3.63 4.26 4.26 0 0 0 3.37-4.53l-.52-16.7h-5.83v-.13z"/></g></g></g></svg>