<svg xmlns="http://www.w3.org/2000/svg" viewBox="0 0 120 112.43"><defs><style>.cls-1{fill:#fff;}.cls-2{fill:#ffe600;}.cls-2,.cls-3,.cls-4,.cls-5{stroke:#000;stroke-miterlimit:10;}.cls-3{fill:#f2f2f2;}.cls-4{fill:#eb058c;}.cls-5{fill:#0077bf;}</style></defs><title>wine</title><g id="Layer_2" data-name="Layer 2"><g id="wine_fruit" data-name="wine/fruit"><path class="cls-1" d="M106.5,14.17C104.28,11.74,95.73,2.36,81.64.47c-3-.4-17.09-2.29-26,6-11.74,11-1.81,28.07-11.87,41.16-8.65,11.25-25.08.26-36.17,11.5C1.84,65-1.22,74.85.81,82.21c6.34,23,68.94,45.86,100.87,16C124.93,76.42,124.38,33.78,106.5,14.17Z"/><g id="Layer_1_copy" data-name="Layer 1 copy"><rect y="96.12" width="120" height="2.13" rx="1.06" ry="1.06"/></g><g id="Layer_55" data-name="Layer 55"><path class="cls-2" d="M44.43,90.75s1.15-13.6-17.18-10.2c0,0,2.29,9.06,17.18,10.2Zm0,0"/><path class="cls-3" d="M73.45,90.75V68.19h-4.3V90.75l-8.6,5.37H82Zm0,0"/><path class="cls-4" d="M81.51,45.63c-5.1,0-5.1-2.15-10.21-2.15s-5.1,2.15-10.21,2.15c-4.26,0-5-1.49-8.06-2v8.43A16.12,16.12,0,0,0,69.15,68.19h4.3A16.12,16.12,0,0,0,89.57,52.07V43.64c-3.09.5-3.8,2-8.06,2Zm0,0"/><path class="cls-3" d="M71.3,43.48c5.1,0,5.1,2.15,10.21,2.15,4.26,0,5-1.49,8.06-2V33.81H53v9.83c3.08.49,3.8,2,8.06,2,5.1,0,5.1-2.15,10.21-2.15Zm0,0"/><path class="cls-4" d="M56.26,91.83a4.3,4.3,0,1,1-4.3-4.3,4.3,4.3,0,0,1,4.3,4.3Zm0,0"/><path class="cls-5" d="M47.66,91.83a4.3,4.3,0,1,1-4.3-4.3,4.3,4.3,0,0,1,4.3,4.3Zm0,0"/><path class="cls-5" d="M52,84.3a4.3,4.3,0,1,1-4.3-4.3A4.3,4.3,0,0,1,52,84.3Zm0,0"/><path class="cls-4" d="M60.56,84.3a4.3,4.3,0,1,1-4.3-4.3,4.3,4.3,0,0,1,4.3,4.3Zm0,0"/><path class="cls-5" d="M64.86,91.83a4.3,4.3,0,1,1-4.3-4.3,4.3,4.3,0,0,1,4.3,4.3Zm0,0"/></g></g></g></svg>