<svg xmlns="http://www.w3.org/2000/svg" viewBox="0 0 120 112.43"><defs><style>.cls-1{fill:#fff;}.cls-2{fill:#f2f2f2;}.cls-2,.cls-3,.cls-4,.cls-5{stroke:#000;stroke-miterlimit:10;}.cls-3{fill:#ffe600;}.cls-4{fill:#eb058c;}.cls-5{fill:#0077bf;}.cls-6{fill:#b4b6bc;}</style></defs><title>service</title><g id="Layer_2" data-name="Layer 2"><g id="service_contrects" data-name="service contrects"><g id="Layer_9_copy_12" data-name="Layer 9 copy 12"><path class="cls-1" d="M106.77,14.17C104.55,11.74,96,2.36,81.91.47c-3-.4-17.09-2.29-26,6-11.74,11-1.81,28.07-11.87,41.16C35.41,58.89,19,47.9,7.89,59.14,2.1,65-1,74.85,1.08,82.21c6.34,23,68.94,45.86,100.87,16C125.2,76.42,124.64,33.78,106.77,14.17Z"/></g><rect y="96.12" width="120" height="2.13" rx="1.06" ry="1.06"/><g id="Layer_56" data-name="Layer 56"><g id="surface1"><path class="cls-2" d="M81.71,36a2.15,2.15,0,0,0-2.15-2.15H46.27V44.55a2.15,2.15,0,0,1-2.15,2.15H32.31V94a2.15,2.15,0,0,0,2.15,2.15H79.56A2.15,2.15,0,0,0,81.71,94Z"/><path class="cls-3" d="M48.76,90.38l1.52-10.63L57.12,82l2.28,6.84Z"/><path class="cls-2" d="M73.06,57l3-3L85.22,63l-3,3Z"/><path class="cls-4" d="M81.49,50.56a6.08,6.08,0,0,0-1.07.2,6.43,6.43,0,0,0-2.79,1.64l-1.51,1.53L85.21,63l1.51-1.51a6.44,6.44,0,0,0-5.24-11Z"/><path class="cls-5" d="M73.07,57,50.28,79.75l6.08,3L70,69.12,56.36,82.79l1.37,2.74,1.67,3.33L81.49,66.77l.69-.69-1.76-1.76Z"/><path class="cls-3" d="M46.27,44.55V33.81l-14,12.89H44.12A2.15,2.15,0,0,0,46.27,44.55Z"/><path class="cls-6" d="M62.38,62.81H39.82a1.07,1.07,0,0,1,0-2.15H62.38a1.07,1.07,0,0,1,0,2.15Z"/><path class="cls-6" d="M55.93,69.25H39.82a1.07,1.07,0,1,1,0-2.15H55.93a1.07,1.07,0,0,1,0,2.15Z"/><path class="cls-6" d="M49.49,75.69H39.82a1.07,1.07,0,1,1,0-2.15h9.67a1.07,1.07,0,0,1,0,2.15Z"/><path class="cls-6" d="M68.82,56.36H48.42a1.07,1.07,0,1,1,0-2.15H68.82a1.07,1.07,0,1,1,0,2.15Z"/><path class="cls-6" d="M44.12,56.36h-4.3a1.07,1.07,0,1,1,0-2.15h4.3a1.07,1.07,0,1,1,0,2.15Z"/></g></g></g></g></svg>