<svg xmlns="http://www.w3.org/2000/svg" viewBox="0 0 120 112.43"><defs><style>.cls-1{fill:#fff;}.cls-2{fill:#0077bf;}.cls-2,.cls-3,.cls-4,.cls-5{stroke:#000;stroke-miterlimit:10;}.cls-3{fill:#ffe600;}.cls-4{fill:#f2f2f2;}.cls-5{fill:#eb058c;}</style></defs><title>insurance</title><g id="Layer_2" data-name="Layer 2"><g id="insurance"><g id="Layer_9_copy_16" data-name="Layer 9 copy 16"><path class="cls-1" d="M106.5,14.17C104.28,11.74,95.73,2.36,81.64.47c-3-.4-17.09-2.29-26,6-11.74,11-1.81,28.07-11.87,41.16-8.65,11.25-25.08.26-36.17,11.5C1.84,65-1.22,74.85.81,82.21c6.34,23,68.94,45.86,100.87,16C124.93,76.42,124.38,33.78,106.5,14.17Z"/></g><rect y="96.12" width="120" height="2.13" rx="1.06" ry="1.06"/><g id="Layer_71" data-name="Layer 71"><path class="cls-2" d="M61.38,42V75.53a1.86,1.86,0,0,1-3.72,0V42a1.86,1.86,0,0,1,3.72,0Z"/><path class="cls-3" d="M72.54,83v7.57c0,3.87-6.55,5.58-13,5.58s-13-1.71-13-5.58V83.27l.19.11,12.84,3.46.33.07Z"/><path class="cls-3" d="M72.54,75.53V83c0,3.87-6.55,5.58-13,5.58s-13-1.71-13-5.58V75.53l13,4.13.33.11Z"/><path class="cls-2" d="M59.52,77.39V40.18A1.84,1.84,0,0,1,61.38,42V75.53A1.84,1.84,0,0,1,59.52,77.39Z"/><path class="cls-4" d="M91.22,60.2a1.94,1.94,0,0,1-1,1.9,1.87,1.87,0,0,1-2.12-.33A9.08,9.08,0,0,0,75.71,62a.85.85,0,0,1-.37.26L59.52,48.67l-.6-.52L43.71,62.21a.85.85,0,0,1-.37-.26,9.12,9.12,0,0,0-12.42-.19,1.82,1.82,0,0,1-2.12.3,1.85,1.85,0,0,1-1-1.9A32.2,32.2,0,0,1,59.52,32.62a12.85,12.85,0,0,1,1.71.11A31.64,31.64,0,0,1,87.73,50,32,32,0,0,1,91.22,60.2Z"/><path class="cls-4" d="M91.22,60.2a1.94,1.94,0,0,1-1,1.9,1.87,1.87,0,0,1-2.12-.33A9.08,9.08,0,0,0,75.71,62a.85.85,0,0,1-.37.26L59.52,48.67V32.62a12.85,12.85,0,0,1,1.71.11A31.64,31.64,0,0,1,87.73,50,32,32,0,0,1,91.22,60.2Z"/><path class="cls-5" d="M61.23,32.73a12.85,12.85,0,0,0-1.71-.11c-9.23,0-16.74,10.13-16.74,22.45a25.36,25.36,0,0,0,.93,7.14A1.75,1.75,0,0,0,45.9,62l0,0a8.76,8.76,0,0,1,12.28,0,1.8,1.8,0,0,0,2.6,0A8.65,8.65,0,0,1,73.1,62a1.74,1.74,0,0,0,1.3.56,1.46,1.46,0,0,0,.93-.3,25.53,25.53,0,0,0,.93-7.14C76.27,43.53,69.64,33.88,61.23,32.73Z"/><path class="cls-5" d="M76.27,55.07a25.55,25.55,0,0,1-.93,7.14,1.46,1.46,0,0,1-.93.3A1.75,1.75,0,0,1,73.1,62a8.65,8.65,0,0,0-12.28,0,1.74,1.74,0,0,1-1.3.56V32.62a12.85,12.85,0,0,1,1.71.11C69.64,33.88,76.27,43.53,76.27,55.07Z"/><path class="cls-3" d="M59.52,70c-6.47,0-13,1.71-13,5.58s6.55,5.58,13,5.58,13-1.71,13-5.58S66,70,59.52,70Z"/></g></g></g></svg>