<svg xmlns="http://www.w3.org/2000/svg" viewBox="0 0 120 112.43"><defs><style>.cls-2{fill:#1e81ce}.cls-3{fill:#ffe600;stroke:#000;stroke-miterlimit:10}</style></defs><g id="Layer_2" data-name="Layer 2"><g id="telecom"><path d="M106.5 14.17C104.28 11.74 95.73 2.36 81.64.47c-3-.4-17.09-2.29-26 6-11.74 11-1.81 28.07-11.87 41.16-8.65 11.25-25.08.26-36.17 11.5C1.84 65-1.22 74.85.81 82.21c6.34 23 68.94 45.86 100.87 16 23.25-21.79 22.7-64.43 4.82-84.04z" fill="#fff" id="Layer_9_copy" data-name="Layer 9 copy"/><path class="cls-2" d="M69.61 35.79l-1.92-1.94a6.81 6.81 0 0 0 0-9.64l1.92-1.94a9.55 9.55 0 0 1 0 13.52zM77.35 43.51l-1.94-1.93a17.76 17.76 0 0 0 0-25.12l1.94-1.93a20.49 20.49 0 0 1 0 28.98z"/><path class="cls-2" d="M69.61 35.79l-1.92-1.94a6.81 6.81 0 0 0 0-9.64l1.92-1.94a9.55 9.55 0 0 1 0 13.52z"/><path class="cls-3" d="M77.35 43.51l-1.94-1.93a17.76 17.76 0 0 0 0-25.12l1.94-1.93a20.49 20.49 0 0 1 0 28.98zM69.61 35.79l-1.92-1.94a6.81 6.81 0 0 0 0-9.64l1.92-1.94a9.55 9.55 0 0 1 0 13.52z"/><path class="cls-3" d="M73.48 39.65l-1.93-1.93a12.3 12.3 0 0 0 0-17.38l1.93-1.94a15 15 0 0 1 0 21.25z"/><path class="cls-2" d="M56.43 35.79a9.54 9.54 0 0 1 0-13.52l1.92 1.94a6.81 6.81 0 0 0 0 9.64zM48.69 43.51a20.49 20.49 0 0 1 0-29l1.94 1.93a17.76 17.76 0 0 0 0 25.12z"/><path class="cls-2" d="M56.43 35.79a9.54 9.54 0 0 1 0-13.52l1.92 1.94a6.81 6.81 0 0 0 0 9.64z"/><path class="cls-3" d="M48.69 43.51a20.49 20.49 0 0 1 0-29l1.94 1.93a17.76 17.76 0 0 0 0 25.12zM56.43 35.79a9.54 9.54 0 0 1 0-13.52l1.92 1.94a6.81 6.81 0 0 0 0 9.64z"/><path class="cls-3" d="M52.56 39.65a15 15 0 0 1 0-21.25l1.93 1.93a12.3 12.3 0 0 0 0 17.38z"/><path d="M83.48 94.71a1.33 1.33 0 0 0 0-.32v0l-18.74-61.5a4.1 4.1 0 1 0-3.45 0l-18.7 61.47v0a1.33 1.33 0 0 0 0 .32 1.31 1.31 0 0 0 0 .21 1.45 1.45 0 0 0 .08.25 1.35 1.35 0 0 0 .08.24l.14.17a1.31 1.31 0 0 0 .2.24h0a1.37 1.37 0 0 0 .42.22h.1a1.37 1.37 0 0 0 .32.05H44a3.86 3.86 0 0 0 .55-.14 1.37 1.37 0 0 0 .44-.36h0L63 72.14l18 23.45h0a1.35 1.35 0 0 0 .38.31l.13.07a1.34 1.34 0 0 0 .53.12h0a1.37 1.37 0 0 0 .38-.06h0a1.35 1.35 0 0 0 .42-.22h0a1.31 1.31 0 0 0 .2-.24l.14-.17a1.34 1.34 0 0 0 .08-.24 1.45 1.45 0 0 0 .08-.25 1.43 1.43 0 0 0 .14-.2zM63 27.82a1.37 1.37 0 1 1-1.37 1.37A1.37 1.37 0 0 1 63 27.82zm0 8.79l6.47 21.26H56.55zM47.38 88l7.89-25.92 6 7.83zM63 67.66l-5.42-7h10.86zm1.72 2.24l6-7.83L78.65 88z" fill="#0077bf" stroke="#000" stroke-miterlimit="10"/><circle cx="63.02" cy="29.17" r="4.1" fill="#eb058c" stroke="#000" stroke-miterlimit="10"/><rect y="96.12" width="120" height="2.13" rx="1.06" ry="1.06"/></g></g></svg>