<svg xmlns="http://www.w3.org/2000/svg" viewBox="0 0 120 112.43"><defs><style>.cls-2{fill:#eb058c}.cls-2,.cls-3,.cls-4,.cls-5{stroke:#000;stroke-miterlimit:10}.cls-3{fill:#f2f2f2}.cls-4{fill:#ffe600}.cls-5{fill:#0077bf}</style></defs><g id="Layer_2" data-name="Layer 2"><g id="cosmetics"><path d="M106.5 14.17C104.28 11.74 95.73 2.36 81.64.47c-3-.4-17.09-2.29-26 6-11.74 11-1.81 28.07-11.87 41.16-8.65 11.25-25.08.26-36.17 11.5C1.84 65-1.22 74.85.81 82.21c6.34 23 68.94 45.86 100.87 16 23.25-21.79 22.7-64.43 4.82-84.04z" fill="#fff" id="Layer_9_copy_4" data-name="Layer 9 copy 4"/><rect y="96.12" width="120" height="2.13" rx="1.06" ry="1.06"/><g id="Layer_58" data-name="Layer 58"><path class="cls-2" d="M81.68 43.33h-15a1.07 1.07 0 0 0-1.07 1.07v6.43h17.14V44.4a1.07 1.07 0 0 0-1.07-1.07z"/><path class="cls-3" d="M87.17 61.69l-6.56-6.56v-4.29H67.74v4.29l-6.56 6.56a3.22 3.22 0 0 0-.95 2.31v31.88h27.88V64a3.21 3.21 0 0 0-.94-2.31z"/><path class="cls-4" d="M99.37 77.11a2.35 2.35 0 0 1-1.61-2.23v-1.52H73.1v1.52a2.35 2.35 0 0 1-1.61 2.23 2.35 2.35 0 0 0-1.61 2.23v14.39A2.14 2.14 0 0 0 72 95.88h26.84a2.14 2.14 0 0 0 2.16-2.15V79.34a2.35 2.35 0 0 0-1.63-2.23z"/><path class="cls-5" d="M98.84 66.92H72a2.14 2.14 0 0 0-2.14 2.14v4.29H101v-4.28a2.14 2.14 0 0 0-2.16-2.15z"/><path class="cls-3" d="M77.39 80.86h16.09v6.43H77.39z"/><path class="cls-5" d="M49.47 48.84h8.6a4.3 4.3 0 0 1 4.3 4.3v43h-17.2v-43a4.3 4.3 0 0 1 4.3-4.3z"/><path class="cls-2" d="M37.65 87.53H24.47a2.15 2.15 0 0 1-2.14-2l-3.09-45.28h23.64l-3.09 45.27a2.15 2.15 0 0 1-2.14 2.01z"/><path class="cls-4" d="M19.24 33.8h23.64v6.45H19.24z"/><path class="cls-5" d="M24.61 87.53H37.5v8.6H24.61z"/><path class="cls-3" d="M49.47 40.25h8.6v4.3h-8.6zM67.74 40.25H46.25v-4.3h17.19a4.3 4.3 0 0 1 4.3 4.3zM49.47 61.74h12.9v23.64h-12.9z"/><path class="cls-3" d="M51.62 44.54h4.3v4.3h-4.3zM25.68 54.22h10.75v19.34H25.68z"/></g></g></g></svg>