<?xml version="1.0" encoding="utf-8"?>
<!-- Generator: Adobe Illustrator 22.0.1, SVG Export Plug-In . SVG Version: 6.00 Build 0)  -->
<svg version="1.1" id="Layer_1" xmlns="http://www.w3.org/2000/svg" xmlns:xlink="http://www.w3.org/1999/xlink" x="0px" y="0px"
	 viewBox="0 0 879.3 686" style="enable-background:new 0 0 879.3 686;" xml:space="preserve">
<style type="text/css">
	.st0{fill:#F5F5F5;}
	.st1{fill:#CCCCCC;}
	.st2{fill:#0077BF;stroke:#000000;stroke-width:0.5;stroke-miterlimit:10;}
	.st3{fill:#FFFFFF;stroke:#000000;stroke-width:0.5;stroke-miterlimit:10;}
	.st4{enable-background:new    ;}
	.st5{fill:#EB058C;stroke:#000000;stroke-width:0.5;stroke-miterlimit:10;}
	.st6{fill:#1A1A1A;}
	.st7{fill:#FFE600;stroke:#000000;stroke-width:0.5;stroke-miterlimit:10;}
	.st8{fill:#FFFFFF;stroke:#000000;stroke-miterlimit:10;}
	.st9{fill:#1A1A1A;stroke:#000000;stroke-width:0.5;stroke-miterlimit:10;}
	.st10{fill:none;stroke:#000000;stroke-width:0.5;stroke-miterlimit:10;}
	.st11{fill:#848484;stroke:#000000;stroke-width:0.5;stroke-miterlimit:10;}
	.st12{fill:#E2E2E2;stroke:#000000;stroke-width:0.5;stroke-miterlimit:10;}
	.st13{fill:#C10072;stroke:#000000;stroke-width:0.5;stroke-miterlimit:10;}
</style>
<title>Ind</title>
<g id="Layer_7">
	<path class="st0" d="M620.6,682.7C773.9,663.8,861,564.9,871.1,493.1c26-185-85.5-300.9-154-365C619.6,36.9,463.6-0.8,391.4,3.8
		c-164.9,10.6-270.6,119-270.6,119C-80.9,317,69.1,520.4,69.1,520.4c95.8,165.1,258.1,100,258.1,100s90.7-27.8,128.1-1.4
		S524.5,681.4,620.6,682.7z"/>
</g>
<ellipse class="st1" cx="397.2" cy="658.2" rx="127.7" ry="24"/>
<path class="st2" d="M265.2,299.1l20-6.2c7.8-2.4,16.1,1.9,18.6,9.7l6.2,20c2.4,7.8-1.9,16.1-9.7,18.6l-20,6.2
	c-7.8,2.4-16.1-1.9-18.6-9.7l-6.2-20C253.1,309.9,257.4,301.6,265.2,299.1z"/>
<path class="st3" d="M301.8,324.1l-6.8-3.6c-1.4-0.7-3.1-0.1-3.8,1.3l-1.8,3.4l-0.6-0.1c-2.7-0.5-5.3-1.3-7.7-2.6
	c-2.4-1.3-4.6-2.9-6.5-4.9l-0.4-0.4l1.2-2.3l0.6-1.1c0.8-1.4,0.3-3.1-1.1-3.8l-6.8-3.6c-1.4-0.7-3.1-0.1-3.8,1.3l-1,1.9l0,0
	c-0.3,0.8-0.5,1.6-0.5,2.5c-0.1,0.8,0,1.6,0.1,2.3c1.1,5.9,5.3,10.2,14.5,15.1c12.7,6.7,20.3,3.5,20.6,3.4c0.7-0.3,1.4-0.7,2-1.2
	c0.7-0.5,1.2-1.2,1.7-1.9l0,0l1-1.9C303.7,326.5,303.2,324.8,301.8,324.1L301.8,324.1z"/>
<g class="st4">
	<path d="M273.9,356.9l-3.3,1l2.7,8.6L272,367l-2.7-8.6l-3.3,1l-0.4-1.1l7.8-2.5L273.9,356.9z"/>
</g>
<g class="st4">
	<path d="M279,365.1c-2.1,0.7-3.8-0.3-4.5-2.6c-0.7-2.3,0.1-4.3,2.1-4.9c2.3-0.7,3.8,0.8,4.4,2.9l0.1,0.2l-5.3,1.7v0.1
		c0.5,1.5,1.6,2.2,3,1.7c1-0.3,1.4-0.9,1.4-2.1l1.1-0.4C281.5,363.4,280.7,364.5,279,365.1z M276.9,358.5c-1.1,0.4-1.7,1.4-1.4,2.8
		l4.1-1.3C279,358.7,278,358.2,276.9,358.5z"/>
	<path d="M284.6,363.1l-1.2,0.4l-3.1-9.8l1.2-0.4L284.6,363.1z"/>
	<path d="M289.4,361.8c-2.1,0.7-3.8-0.3-4.5-2.6c-0.7-2.3,0.1-4.3,2.1-4.9c2.3-0.7,3.8,0.8,4.4,2.9l0.1,0.2l-5.3,1.7v0.1
		c0.5,1.5,1.6,2.2,3,1.7c1-0.3,1.4-0.9,1.4-2.1l1.1-0.4C291.9,360.1,291.1,361.3,289.4,361.8z M287.3,355.2
		c-1.1,0.4-1.7,1.4-1.4,2.8l4.1-1.3C289.5,355.4,288.5,354.9,287.3,355.2z"/>
	<path d="M296.8,359.4c-2.2,0.7-3.8-0.4-4.5-2.6c-0.7-2.4,0.1-4.3,2.2-4.9c1.7-0.5,3.1,0,3.8,1.6l-1.2,0.4c-0.5-0.9-1.3-1.3-2.3-1
		c-1.3,0.4-1.9,1.8-1.3,3.5c0.5,1.7,1.7,2.5,3,2.1c1.1-0.3,1.6-1.2,1.4-2.4l1.2-0.4C299.4,357.4,298.6,358.9,296.8,359.4z"/>
	<path d="M306.5,352.2c0.8,2.4,0,4.2-2.2,4.9c-2.2,0.7-3.9-0.3-4.6-2.6c-0.7-2.3,0.1-4.2,2.3-4.9S305.8,349.9,306.5,352.2z
		 M300.9,354c0.6,1.7,1.7,2.5,3.1,2.1s1.9-1.7,1.3-3.5c-0.5-1.7-1.7-2.5-3.1-2.1S300.3,352.3,300.9,354z"/>
	<path d="M308.2,348.9c0.3-1,0.9-1.6,1.9-1.9c0.9-0.3,1.7-0.1,2.3,0.6c0.3-1,0.9-1.6,2-2c1.5-0.5,2.5,0.2,3,1.6l1.6,5l-1.2,0.4
		l-1.4-4.5c-0.3-1-0.7-1.7-2-1.3c-1.3,0.4-1.5,1.5-1.1,2.8l1.3,4l-1.2,0.4l-1.4-4.5c-0.3-0.9-0.7-1.6-1.8-1.3
		c-1.6,0.5-1.6,1.7-1.1,3.1l1.2,3.7l-1.2,0.4l-2.2-7.1l1.1-0.3L308.2,348.9z"/>
</g>
<path class="st5" d="M561.4,235.7l5.1-20.3c2-7.9,10.1-12.8,18-10.8l20.3,5.1c7.9,2,12.8,10.1,10.8,18l-5.1,20.3
	c-2,7.9-10.1,12.8-18,10.8l-20.3-5.1C564.3,251.7,559.4,243.6,561.4,235.7z"/>
<path class="st3" d="M606.1,225.2l-9.9-2.5l0.6-2.3c0.4-1.5-0.5-2.9-2-3.3l0,0l-5.8-1.5c-1.5-0.4-2.9,0.5-3.3,2l0,0l-0.6,2.3
	l-9.9-2.5c-0.9-0.2-1.8,0.3-2,1.2l-5.3,20.8c-0.2,0.9,0.3,1.8,1.2,2l30.8,7.8c0.9,0.2,1.8-0.3,2-1.2l5.3-20.8
	C607.5,226.3,606.9,225.5,606.1,225.2L606.1,225.2z M588.4,218.3l5.7,1.4l-0.6,2.2l-5.7-1.4L588.4,218.3z M585.1,243.1
	c-5.4-1.4-8.7-6.9-7.3-12.3c1.4-5.4,6.9-8.7,12.3-7.3c5.4,1.4,8.7,6.9,7.3,12.3C596,241.2,590.5,244.5,585.1,243.1L585.1,243.1z"/>
<path class="st3" d="M593.1,232.2l-2.6-0.7l0.7-2.6c0.2-0.7-0.3-1.4-1-1.6l0,0l-2-0.5c-0.7-0.2-1.4,0.3-1.6,1l0,0l-0.7,2.6l-2.6-0.7
	c-0.7-0.2-1.4,0.3-1.6,1l0,0l-0.5,2.1c-0.2,0.7,0.3,1.4,1,1.6l0,0l2.6,0.7l-0.7,2.6c-0.2,0.7,0.3,1.4,1,1.6l0,0l2.1,0.5
	c0.7,0.2,1.4-0.3,1.6-1l0,0l0.7-2.6l2.6,0.7c0.7,0.2,1.4-0.3,1.6-1l0,0l0.5-2C594.3,233.2,593.9,232.5,593.1,232.2
	C593.2,232.3,593.1,232.3,593.1,232.2L593.1,232.2z"/>
<g class="st4">
	<path d="M555.2,265l-1.3-0.3l1.2-4.7l-5.3-1.3l-1.2,4.7l-1.3-0.3l2.5-10l1.3,0.3l-1,4.2l5.3,1.3l1-4.2l1.3,0.3L555.2,265z"/>
	<path d="M560.1,266.5c-2.1-0.5-3.1-2.3-2.5-4.6c0.6-2.3,2.3-3.6,4.3-3.1c2.4,0.6,2.8,2.7,2.3,4.8v0.2l-5.4-1.4v0.1
		c-0.4,1.5,0.2,2.7,1.6,3c1,0.3,1.7,0,2.3-1.1l1.2,0.3C563.1,266.4,561.8,266.9,560.1,266.5z M561.7,259.8c-1.2-0.3-2.2,0.3-2.7,1.7
		l4.2,1.1C563.5,261.1,562.9,260.1,561.7,259.8z"/>
	<path d="M571.1,269c-0.3,0-0.6,0-0.8-0.1c-0.7-0.2-0.9-0.6-0.8-1.3c-0.9,0.6-1.8,0.8-2.9,0.5c-1.4-0.4-2.1-1.4-1.8-2.6
		c0.3-1.3,1.4-1.8,3.1-1.6c1.8,0.2,2.4,0.4,2.6-0.6c0.2-0.8-0.3-1.3-1.3-1.6c-1.1-0.3-1.8,0-2.2,1l-1.2-0.3c0.4-1.5,1.8-2.2,3.6-1.7
		c1,0.2,1.7,0.7,2.1,1.3c0.4,0.6,0.2,1.4,0,2c-0.3,1.1-0.6,2.1-0.9,3.2c-0.1,0.5-0.1,0.7,0.3,0.8c0.1,0,0.2,0,0.3,0L571.1,269z
		 M568.4,264.8c-0.9-0.1-2.1-0.3-2.4,0.9c-0.2,0.7,0.2,1.3,1.1,1.6c1.1,0.3,2.4-0.2,2.6-1.1l0.3-1.3
		C569.6,265,569,264.9,568.4,264.8z"/>
	<path d="M573.5,269.6l-1.2-0.3l2.5-10l1.2,0.3L573.5,269.6z"/>
	<path d="M580,264.6l-1.4-0.4l-1.1,4.2c-0.2,0.7-0.3,1.1,0.5,1.3c0.2,0.1,0.4,0.1,0.7,0.1l-0.3,1c-0.4-0.1-0.5-0.1-0.9-0.2
		c-1.8-0.5-1.5-1.3-1.1-2.9l1-3.8l-1.2-0.3l0.2-1l1.2,0.3l0.5-2.1l1.2,0.3l-0.5,2.1l1.4,0.4L580,264.6z"/>
	<path d="M582.5,265.3c0.7-0.7,1.6-0.9,2.7-0.6c1.7,0.4,2.2,1.6,1.8,3.1l-1.2,4.9l-1.2-0.3l1.2-4.7c0.2-1,0.1-1.8-1.2-2.1
		c-1.5-0.4-2.3,0.6-2.7,2.2l-0.9,3.7l-1.2-0.3l2.5-10l1.2,0.3L582.5,265.3z"/>
	<path d="M590.5,274.1c-2.2-0.6-3-2.4-2.5-4.6c0.6-2.4,2.3-3.6,4.5-3c1.8,0.4,2.6,1.6,2.4,3.3l-1.2-0.3c0-1.1-0.4-1.8-1.4-2
		c-1.4-0.3-2.5,0.5-3,2.3c-0.4,1.8,0.1,3,1.4,3.4c1.1,0.3,2-0.2,2.4-1.4l1.2,0.3C593.8,273.7,592.3,274.6,590.5,274.1z"/>
	<path d="M601.5,276.6c-0.3,0-0.6,0-0.8-0.1c-0.7-0.2-0.9-0.6-0.8-1.3c-0.9,0.6-1.8,0.8-2.9,0.5c-1.4-0.4-2.1-1.4-1.8-2.6
		c0.3-1.3,1.4-1.8,3.1-1.6c1.8,0.2,2.4,0.4,2.6-0.6c0.2-0.8-0.3-1.3-1.3-1.6c-1.1-0.3-1.8,0-2.2,1l-1.2-0.3c0.4-1.5,1.8-2.2,3.6-1.7
		c1,0.2,1.7,0.7,2.1,1.3c0.4,0.6,0.2,1.4,0,2c-0.3,1.1-0.6,2.1-0.9,3.2c-0.1,0.5-0.1,0.7,0.3,0.8c0.1,0,0.2,0,0.3,0L601.5,276.6z
		 M598.8,272.4c-0.9-0.1-2.1-0.3-2.4,0.9c-0.2,0.7,0.2,1.3,1.1,1.6c1.1,0.3,2.4-0.2,2.6-1.1l0.3-1.3
		C600,272.6,599.3,272.5,598.8,272.4z"/>
</g>
<g class="st4">
	<path d="M607.9,271.7c-0.1,0-0.2-0.1-0.3-0.1c-2-0.5-2.7,0.9-3.1,2.5l-0.8,3.1l-1.2-0.3l1.8-7.2l1.1,0.3l-0.4,1.6
		c0.8-1.1,1.8-1.4,3.1-1L607.9,271.7z"/>
</g>
<g class="st4">
	<path d="M610,279c-2.1-0.5-3.1-2.3-2.5-4.6c0.6-2.3,2.3-3.6,4.3-3.1c2.4,0.6,2.8,2.7,2.3,4.8v0.2l-5.4-1.4v0.1
		c-0.4,1.5,0.2,2.7,1.6,3c1,0.3,1.7,0,2.3-1.1l1.2,0.3C613,278.9,611.7,279.5,610,279z M611.6,272.3c-1.2-0.3-2.2,0.3-2.7,1.7
		l4.2,1.1C613.3,273.6,612.8,272.6,611.6,272.3z"/>
</g>
<path class="st5" d="M294.1,210.6l20.3-5c8-2,16,2.9,17.9,10.9l5,20.3c2,8-2.9,16-10.9,17.9l-20.3,5c-8,2-16-2.9-17.9-10.9l-5-20.3
	C281.2,220.5,286.1,212.5,294.1,210.6z"/>
<path class="st3" d="M311.9,234l1.1,4.9c1.5-0.4,2.9-1.5,2.5-3.1S313.3,234,311.9,234L311.9,234z"/>
<path class="st3" d="M306.2,229.1c0.3,1.2,1.4,1.7,3.3,1.7l-1-4.4C306.9,226.8,306,228,306.2,229.1L306.2,229.1z"/>
<path class="st3" d="M307.2,217.8c-8.2,1.9-13.4,10.2-11.4,18.4c1.9,8.2,10.2,13.4,18.4,11.4c8.2-1.9,13.4-10.2,11.4-18.4l0,0
	C323.7,221,315.5,215.9,307.2,217.8z M313.6,241.4l0.4,1.5c0.2,0.4,0,0.8-0.4,1s-0.8,0-1-0.4c0-0.1,0-0.2-0.1-0.2l-0.4-1.5
	c-4.2,0.9-6.9-1.1-7.3-3.1c-0.3-0.8,0.2-1.6,0.9-1.9c0.1,0,0.2-0.1,0.3-0.1c2.8-0.6,1.4,3.3,5.6,2.5l-1.2-5.2
	c-3.8,0.2-6.4-0.9-7.1-3.6c-0.8-3.4,1.6-5.7,4.7-6.6l-0.3-1.3c-0.2-0.4,0-0.8,0.4-1s0.8,0,1,0.4c0,0.1,0,0.2,0.1,0.2l0.3,1.3
	c1.9-0.4,6.2-0.1,6.7,2.3c0.2,0.8-0.3,1.6-1.1,1.9H315c-1.6,0.4-2.2-2.3-5-1.7l1.1,4.7c3.4-0.1,6.5,0.2,7.4,4
	C319.3,238,317.3,240.2,313.6,241.4L313.6,241.4z"/>
<g class="st4">
	<path d="M300.8,266.7l-5.2,1.3l0.8,3.1l4.6-1.1l0.3,1.1l-4.6,1.1l1.1,4.6l-1.3,0.3l-2.5-10l6.6-1.6L300.8,266.7z"/>
	<path d="M303.4,266.4l-1.2,0.3l-0.4-1.5l1.2-0.3L303.4,266.4z M305.5,274.9l-1.2,0.3l-1.8-7.2l1.2-0.3L305.5,274.9z"/>
	<path d="M306.9,268.1c0.4-1,1-1.7,2.1-1.9c1.8-0.4,2.7,0.4,3.1,2l1.2,4.8l-1.2,0.3l-1-4.3c-0.3-1.2-0.6-2.1-2.1-1.8
		c-1.6,0.4-1.8,1.7-1.4,3.1l0.9,3.8l-1.2,0.3l-1.8-7.2l1.1-0.3L306.9,268.1z"/>
</g>
<g class="st4">
	<path d="M320.1,262l-3.4,0.8l2.2,8.8l-1.3,0.3l-2.2-8.8l-3.4,0.8l-0.3-1.2l8-2L320.1,262z"/>
</g>
<g class="st4">
	<path d="M324.7,270.5c-2.1,0.5-3.8-0.6-4.3-2.9c-0.6-2.3,0.4-4.3,2.4-4.8c2.4-0.6,3.7,1.1,4.3,3.2v0.2l-5.4,1.3v0.1
		c0.4,1.5,1.5,2.3,2.9,1.9c1-0.3,1.5-0.8,1.6-2l1.2-0.3C327.3,268.9,326.4,270,324.7,270.5z M323,263.8c-1.2,0.3-1.8,1.3-1.6,2.7
		l4.2-1C325.2,264.1,324.2,263.5,323,263.8z"/>
	<path d="M332.3,268.6c-2.2,0.6-3.8-0.7-4.4-2.9c-0.6-2.4,0.4-4.3,2.5-4.8c1.8-0.4,3.1,0.2,3.7,1.8l-1.2,0.3c-0.5-1-1.2-1.4-2.2-1.1
		c-1.4,0.3-2,1.6-1.5,3.4c0.4,1.8,1.5,2.6,2.9,2.3c1.1-0.3,1.6-1.1,1.5-2.3l1.2-0.3C335,266.7,334.1,268.1,332.3,268.6z"/>
	<path d="M336.4,260.7c0.3-0.9,1-1.5,2.1-1.8c1.7-0.4,2.7,0.4,3,1.9l1.2,5l-1.2,0.3l-1.1-4.7c-0.2-1-0.7-1.6-2-1.3
		c-1.5,0.4-1.8,1.6-1.4,3.2l0.9,3.7l-1.2,0.3l-2.5-10l1.2-0.3L336.4,260.7z"/>
</g>
<path class="st2" d="M568.8,319.9l7.9-19.4c3.1-7.6,11.7-11.2,19.3-8.1l19.4,7.9c7.6,3.1,11.2,11.7,8.1,19.3l-7.9,19.4
	c-3.1,7.6-11.7,11.2-19.3,8.1l-19.4-7.9C569.4,336.1,565.8,327.5,568.8,319.9z"/>
<path class="st3" d="M614.6,327.3c-0.8-1.2-2-2.1-3.3-2.6c-2.4-1-4.7-0.8-5.7,0.3l-0.2-0.1c0.1-1.5-1.5-3.3-3.8-4.3
	c-1.3-0.6-2.8-0.8-4.2-0.5l-4.5,11.1c-1.1,2.8-4.3,4.1-7,3c-2.8-1.1-4.1-4.3-3-7c0.2-0.6,0.9-0.9,1.6-0.7c0.6,0.2,0.9,0.9,0.7,1.6
	c-0.6,1.5,0.1,3.3,1.7,3.9c1.5,0.6,3.3-0.1,3.9-1.7l4.5-11.1c-0.8-1.2-2-2.1-3.3-2.6c-2.4-1-4.7-0.8-5.7,0.4l-0.2-0.1
	c0.1-1.5-1.5-3.3-3.8-4.3c-1.3-0.6-2.8-0.8-4.2-0.5c3.9-7.6,13.9-10.8,23.3-7.5l0.3-0.8c0.2-0.6,0.9-0.9,1.6-0.7
	c0.6,0.2,0.9,0.9,0.7,1.6l-0.3,0.8C612.2,309.9,617.1,319.2,614.6,327.3L614.6,327.3z"/>
<g class="st4">
	<path d="M554.1,344l-1.3-0.5l3.9-9.5l1.3,0.5L554.1,344z"/>
	<path d="M559.5,339.4c0.9-0.6,1.8-0.7,2.9-0.3c1.7,0.7,1.9,1.9,1.3,3.4l-1.9,4.6l-1.1-0.5l1.7-4.1c0.4-1.1,0.8-2.1-0.7-2.6
		c-1.5-0.6-2.4,0.3-3,1.7l-1.5,3.6l-1.1-0.5l2.8-6.9l1.1,0.4L559.5,339.4z"/>
	<path d="M569.5,344.5c0.3-0.9-0.2-1.5-1.2-1.9c-0.9-0.4-1.6-0.2-1.8,0.4c-0.3,0.8,0.5,1.3,1.4,1.9c1.1,0.7,2.4,1.7,1.8,3.2
		c-0.5,1.3-2,1.8-3.8,1.1c-1.9-0.8-2.6-2-2-3.6l1.1,0.5c-0.4,1.1,0.2,1.8,1.3,2.2c1,0.4,1.9,0.2,2.2-0.5c0.3-0.8-0.4-1.2-1.3-1.9
		c-1.1-0.8-2.6-1.6-2-3.2c0.5-1.2,1.9-1.6,3.5-1s2.5,1.9,1.9,3.3L569.5,344.5z"/>
	<path d="M575.9,352.9l-1.1-0.4l0.4-1.1c-1,0.6-1.9,0.7-2.9,0.3c-1.4-0.6-2-1.8-1.3-3.3l1.9-4.8l1.1,0.5l-1.8,4.4
		c-0.4,1-0.4,1.8,0.8,2.2c1.5,0.6,2.5-0.2,3-1.7l1.5-3.6l1.1,0.5L575.9,352.9z"/>
	<path d="M583.6,349.2c-0.1-0.1-0.2-0.1-0.3-0.1c-1.9-0.8-2.8,0.5-3.4,2.1l-1.2,2.9l-1.1-0.5l2.8-6.9l1.1,0.4l-0.6,1.5
		c1-1,2-1.1,3.2-0.6L583.6,349.2z"/>
	<path d="M588.2,357.9c-0.3,0-0.6-0.1-0.8-0.2c-0.6-0.3-0.8-0.8-0.6-1.4c-1,0.5-1.9,0.5-2.9,0.1c-1.4-0.6-1.9-1.6-1.4-2.9
		c0.5-1.2,1.6-1.6,3.3-1.2c1.7,0.5,2.3,0.7,2.7-0.2c0.3-0.7-0.1-1.4-1.1-1.8c-1.1-0.4-1.8-0.3-2.3,0.7l-1.1-0.5
		c0.6-1.5,2.1-1.9,3.8-1.2c0.9,0.4,1.6,0.9,1.9,1.6c0.3,0.7,0,1.4-0.3,2c-0.4,1-0.9,2-1.3,3.1c-0.2,0.5-0.2,0.7,0.2,0.9
		c0.1,0,0.2,0.1,0.3,0.1L588.2,357.9z M586.1,353.3c-0.9-0.2-2-0.6-2.5,0.5c-0.3,0.7,0.1,1.4,0.9,1.7c1.1,0.4,2.4,0.1,2.8-0.8
		l0.5-1.3C587.3,353.7,586.7,353.5,586.1,353.3z"/>
	<path d="M592.7,352.9c0.9-0.6,1.8-0.7,2.9-0.3c1.7,0.7,1.9,1.9,1.3,3.4l-1.9,4.6l-1.1-0.5l1.7-4.1c0.4-1.1,0.8-2.1-0.7-2.6
		c-1.5-0.6-2.4,0.3-3,1.7l-1.5,3.6l-1.1-0.5l2.8-6.9l1.1,0.4L592.7,352.9z"/>
	<path d="M599.5,362.8c-2.1-0.9-2.7-2.8-1.8-4.9c0.9-2.3,2.8-3.2,4.8-2.4c1.7,0.7,2.4,2,1.9,3.6l-1.2-0.5c0.2-1.1-0.2-1.8-1.1-2.2
		c-1.3-0.5-2.6,0.2-3.2,1.8c-0.7,1.7-0.3,3,1,3.5c1,0.4,2,0.1,2.6-1l1.2,0.5C602.8,362.8,601.3,363.5,599.5,362.8z"/>
	<path d="M606.7,365.7c-2-0.8-2.7-2.7-1.8-4.9c0.9-2.2,2.8-3.2,4.7-2.4c2.3,0.9,2.4,3.1,1.6,5.1l-0.1,0.2l-5.2-2.1v0.1
		c-0.6,1.5-0.1,2.7,1.2,3.2c1,0.4,1.7,0.2,2.5-0.7l1.1,0.5C609.7,366,608.3,366.4,606.7,365.7z M609.2,359.3c-1.1-0.5-2.2,0-2.9,1.3
		l4,1.6C610.8,360.8,610.4,359.7,609.2,359.3z"/>
</g>
<path class="st2" d="M521.3,148.2l6.4-19.9c2.5-7.8,10.8-12.1,18.6-9.6l19.9,6.4c7.8,2.5,12.1,10.8,9.6,18.6l-6.4,19.9
	c-2.5,7.8-10.8,12.1-18.6,9.6l-19.9-6.4C523.1,164.4,518.8,156,521.3,148.2z"/>
<path class="st3" d="M566.3,150l-2-4.9l-1.8-10.2c-0.2-0.9-0.8-1.7-1.8-2l-14.3-4.6c-0.9-0.3-1.9-0.1-2.6,0.6l-7.5,7.2l-4.4,2.8
	c-0.7,0.6-1.3,1.4-1.5,2.3l-3.6,11.2c-0.3,1,0.2,2.2,1.3,2.5l2.8,0.9c1,0.3,2.1-0.2,2.5-1.3l1.2-3.6l22.7,7.3l-1.2,3.6
	c-0.3,1,0.2,2.1,1.3,2.5l2.8,0.9c1,0.3,2.2-0.2,2.5-1.3l3.6-11.3C566.6,151.8,566.6,150.9,566.3,150L566.3,150z M540.5,135.1
	l4.2-4.4c0.6-0.6,1.4-0.8,2.2-0.6l12.5,4c0.8,0.2,1.4,0.9,1.5,1.7l0.9,6.1c0,0.2-0.1,0.5-0.2,0.6c-0.2,0.2-0.4,0.2-0.7,0.1l-8.8-2.9
	l6-2.9c0.2-0.1,0.3-0.3,0.2-0.5s-0.3-0.3-0.5-0.2l-6.7,3.3l0,0l-10.2-3.3c-0.4-0.1-0.6-0.5-0.5-0.9
	C540.3,135.2,540.4,135.1,540.5,135.1L540.5,135.1z M537.6,147.2l-4.1-1.3c-0.7-0.2-1.2-1-0.9-1.8l0,0c0.2-0.8,0.9-2.3,1.6-1.9
	c1.1,0.5,3.2,1.8,4.3,2.4c0.7,0.3,1.1,1,0.9,1.8C539.1,147,538.3,147.4,537.6,147.2L537.6,147.2z M552.3,151.3
	c-0.2,0.3-0.5,0.4-0.8,0.3l-8.4-2.7c-0.3-0.1-0.5-0.4-0.5-0.7c0-1,0-1.9,0.1-2.9c0.2-0.5,0.7-0.7,1.1-0.6l9.4,3
	c0.5,0.1,0.7,0.6,0.6,1.1l0,0C553.4,149.7,552.9,150.5,552.3,151.3L552.3,151.3z M561.1,154.8l-4.1-1.4c-0.7-0.2-1.2-1-0.9-1.8l0,0
	c0.2-0.7,0.9-1,1.8-0.9c1.2,0.2,3.7,0.3,4.9,0.6c0.8,0.2,0.4,1.8,0.2,2.5C562.7,154.5,561.9,155,561.1,154.8
	C561.1,154.7,561.1,154.7,561.1,154.8L561.1,154.8z"/>
<g class="st4">
	<path d="M513.5,175l-1.5-0.4l-0.2-3.3l-4.1-1.2l-2,2.7l-1.4-0.4l6.8-8.7l1.5,0.4L513.5,175z M511.4,165l-3.1,4.1l3.4,1L511.4,165z"
		/>
	<path d="M520.2,177l-1.1-0.3l0.3-1.1c-0.9,0.7-1.8,0.9-2.9,0.6c-1.5-0.4-2.1-1.6-1.7-3.1l1.5-4.9l1.2,0.4l-1.4,4.6
		c-0.3,1-0.2,1.8,1,2.2c1.6,0.5,2.4-0.5,2.9-2l1.1-3.7l1.2,0.3L520.2,177z"/>
	<path d="M526.8,172.3l-1.4-0.4l-1.2,4.2c-0.2,0.7-0.4,1,0.5,1.3c0.2,0.1,0.4,0.1,0.6,0.1l-0.3,1c-0.4-0.1-0.5-0.1-0.9-0.2
		c-1.8-0.5-1.4-1.4-1-3l1.1-3.8l-1.2-0.4l0.3-1l1.2,0.4l0.6-2.1l1.2,0.3l-0.6,2.1l1.4,0.4L526.8,172.3z"/>
	<path d="M533.9,177.2c-0.7,2.4-2.4,3.5-4.6,2.8c-2.2-0.7-3.1-2.5-2.4-4.8s2.5-3.4,4.6-2.8C533.8,173.1,534.6,174.8,533.9,177.2z
		 M528.2,175.5c-0.5,1.8,0,3,1.5,3.5c1.4,0.4,2.5-0.4,3.1-2.2c0.5-1.7,0-3-1.4-3.5C529.9,173,528.7,173.8,528.2,175.5z"/>
	<path d="M537.2,175.4c0.9-0.6,1.6-0.8,2.7-0.5c1,0.3,1.5,0.9,1.6,1.8c0.9-0.6,1.7-0.9,2.7-0.5c1.5,0.4,2,1.6,1.6,3l-1.5,5l-1.2-0.3
		l1.3-4.5c0.3-1,0.4-1.8-0.9-2.2c-1.3-0.4-2.1,0.4-2.5,1.7l-1.2,4.1l-1.2-0.3l1.4-4.6c0.3-0.9,0.3-1.7-0.8-2.1
		c-1.6-0.5-2.3,0.6-2.7,1.9l-1.1,3.8l-1.2-0.3l2.1-7.1l1.1,0.3L537.2,175.4z"/>
	<path d="M553.7,183c-0.7,2.4-2.4,3.5-4.6,2.8c-2.2-0.7-3.1-2.5-2.4-4.8s2.5-3.4,4.6-2.8C553.5,178.9,554.4,180.7,553.7,183z
		 M548,181.4c-0.5,1.8,0,3,1.5,3.5c1.4,0.4,2.5-0.4,3.1-2.2c0.5-1.7,0-3-1.4-3.5C549.7,178.8,548.5,179.7,548,181.4z"/>
	<path d="M558.9,181.8l-1.4-0.4l-1.2,4.2c-0.2,0.7-0.4,1,0.5,1.3c0.2,0.1,0.4,0.1,0.7,0.1l-0.3,1c-0.4-0.1-0.5-0.1-0.9-0.2
		c-1.8-0.5-1.4-1.4-1-3l1.1-3.8l-1.2-0.4l0.3-1l1.2,0.4l0.6-2.1l1.2,0.3l-0.6,2.1l1.4,0.4L558.9,181.8z"/>
	<path d="M559.6,188.7l-1.2-0.4l2.1-7.1l1.2,0.4L559.6,188.7z M562.1,180.3l-1.2-0.4l0.4-1.4l1.2,0.4L562.1,180.3z"/>
	<path d="M564.2,182.3l0.2,6.6l3.7-5.4l1.2,0.4l-4.7,6.4l-1.3-0.4l-0.5-7.9L564.2,182.3z"/>
	<path d="M571.3,192.5c-2.1-0.6-3-2.4-2.3-4.7s2.5-3.5,4.5-2.9c2.4,0.7,2.7,2.8,2.1,4.9v0.2l-5.4-1.6v0.1c-0.5,1.5,0.1,2.7,1.5,3.1
		c1,0.3,1.7,0,2.4-1l1.1,0.3C574.3,192.4,573,193,571.3,192.5z M573.2,185.8c-1.1-0.3-2.2,0.2-2.8,1.5l4.2,1.2
		C574.9,187.2,574.4,186.2,573.2,185.8z"/>
</g>
<path class="st5" d="M423.7,171.8v-20.9c0-8.2,6.6-14.8,14.8-14.8h20.9c8.2,0,14.8,6.6,14.8,14.8v20.9c0,8.2-6.6,14.8-14.8,14.8
	h-20.9C430.3,186.6,423.7,180,423.7,171.8z"/>
<path class="st3" d="M450.9,152.2c-6.6,0-12.7,3.8-15.6,9.7c2.9,6,8.9,9.8,15.6,9.8c5.6,0,11.9-2.7,15.1-6.9c1.4-2,2.6-4.2,3.4-6.5
	c-2.1,0.7-4.4,0.4-6.2-0.9C458.4,153.4,456.4,152.2,450.9,152.2L450.9,152.2z M458.5,157.4c1.8,1.2,3.4,2.8,4.5,4.6
	c-1.2,1.8-2.7,3.4-4.6,4.6c-4.7,3-10.7,3-15.4-0.1c-1.8-1.2-3.4-2.8-4.5-4.6c1.2-1.8,2.7-3.4,4.6-4.6l0.4-0.2
	c-0.3,0.9-0.5,1.8-0.5,2.7c0,4.3,3.5,7.8,7.8,7.8s7.8-3.5,7.8-7.8c0-0.9-0.2-1.8-0.5-2.7L458.5,157.4L458.5,157.4z M450.8,158.8
	c0,1.6-1.3,2.9-2.9,2.9s-2.9-1.3-2.9-2.9c0-1.6,1.3-2.9,2.9-2.9l0,0C449.5,155.9,450.8,157.2,450.8,158.8z"/>
<g class="st4">
	<path d="M437.8,195c-0.1-1.4-1-1.9-2.4-1.9s-2.2,0.6-2.2,1.6c0,1.1,1.1,1.3,2.6,1.6c1.6,0.3,3.5,0.8,3.5,2.8c0,2.1-1.9,2.9-3.7,2.9
		c-2.3,0-4-1.1-4-3.4h1.2c0.1,1.7,1.3,2.3,2.9,2.3c1.1,0,2.4-0.4,2.4-1.7c0-1.2-1.2-1.5-2.8-1.8c-1.5-0.3-3.3-0.6-3.3-2.6
		s1.7-2.7,3.5-2.7c2,0,3.4,0.9,3.5,3h-1.2V195z"/>
	<path d="M446.9,201.7c-0.2,0.1-0.5,0.1-0.8,0.1c-0.6,0-1-0.4-1-1c-0.7,0.8-1.4,1.1-2.5,1.1c-1.4,0-2.2-0.8-2.2-2s0.8-2,2.5-2.2
		s2.2-0.2,2.2-1.1c0-0.7-0.6-1.1-1.6-1.1c-1.1,0-1.6,0.4-1.7,1.4h-1.1c0-1.5,1.1-2.4,2.9-2.4c0.9,0,1.7,0.2,2.2,0.7s0.5,1.2,0.5,1.8
		c0,1-0.1,2.1-0.1,3.1c0,0.5,0.1,0.7,0.5,0.7c0.1,0,0.2,0,0.3,0L446.9,201.7L446.9,201.7z M443.5,198.6c-0.8,0.1-2,0.2-2,1.3
		c0,0.7,0.5,1.2,1.4,1.2c1.1,0,2.1-0.7,2.1-1.6v-1.3C444.6,198.5,444,198.5,443.5,198.6z"/>
	<path d="M449.2,201.8H448v-9.6h1.2V201.8z"/>
	<path d="M457.3,198.3c0,2.4-1.2,3.7-3.3,3.7c-2.1,0-3.4-1.4-3.4-3.7s1.3-3.7,3.4-3.7S457.3,196,457.3,198.3z M451.8,198.3
		c0,1.7,0.8,2.7,2.2,2.7c1.3,0,2.2-1,2.2-2.7s-0.8-2.7-2.2-2.7C452.6,195.6,451.8,196.6,451.8,198.3z"/>
	<path d="M459.7,195.9c0.6-0.8,1.3-1.3,2.4-1.3c1.7,0,2.3,0.9,2.3,2.5v4.6h-1.1v-4.1c0-1.1-0.1-2-1.5-2c-1.5,0-2,1.1-2,2.5v3.6h-1.1
		v-6.9h1.1L459.7,195.9L459.7,195.9z"/>
	<path d="M470.1,196.8c-0.1-0.9-0.7-1.3-1.7-1.3c-0.9,0-1.4,0.4-1.4,0.9c0,0.8,0.9,0.9,1.8,1.1c1.2,0.3,2.7,0.6,2.7,2.1
		c0,1.3-1.1,2.2-2.9,2.2c-1.9,0-2.9-0.8-3-2.4h1.1c0.1,1,0.8,1.5,1.9,1.5c1,0,1.7-0.5,1.7-1.2c0-0.8-0.8-0.9-1.7-1.2
		c-1.2-0.3-2.8-0.4-2.8-2c0-1.2,1-2,2.6-2s2.8,0.8,2.8,2.2L470.1,196.8L470.1,196.8z"/>
</g>
<path class="st2" d="M339.3,122.9l20.5-4.4c8-1.7,15.9,3.4,17.6,11.4l4.4,20.5c1.7,8-3.4,15.9-11.4,17.6l-20.5,4.4
	c-8,1.7-15.9-3.4-17.6-11.4l-4.4-20.5C326.1,132.5,331.2,124.6,339.3,122.9z"/>
<path class="st3" d="M368.9,137.6l-0.3-1.4c-0.3-1.5-1.9-2.5-3.4-2.2l-2.2,0.5c-1.5,0.3-2.5,1.9-2.2,3.4l0.8,3.8l-14.9,3.2l-0.8-3.8
	c-0.3-1.5-1.8-2.5-3.4-2.2l-2.2,0.5c-1.5,0.3-2.5,1.8-2.2,3.4l0,0l0.3,1.4c-1.6,0.4-2.6,1.9-2.3,3.5l1,5c0.4,1.6,1.9,2.6,3.5,2.3
	l0.3,1.4c0.3,1.5,1.8,2.5,3.4,2.2l2.2-0.5c1.5-0.3,2.5-1.9,2.2-3.4l-0.8-3.8l14.9-3.2l0.8,3.8c0.3,1.5,1.8,2.5,3.4,2.2l2.2-0.5
	c1.6-0.3,2.5-1.9,2.2-3.4l-0.3-1.4c1.6-0.4,2.6-1.9,2.3-3.5l-1.1-5C372.1,138.3,370.5,137.3,368.9,137.6L368.9,137.6z"/>
<g class="st4">
	<path d="M358.7,185.2l-0.8,0.2l-0.6-1.1c-0.6,1.1-1.4,1.8-2.7,2c-2.7,0.6-4.9-1-5.5-3.9c-0.6-2.7,0.6-5.3,3.5-5.9
		c1.9-0.4,4,0.3,4.6,2.2L356,179c-0.4-1.2-1.7-1.8-3.1-1.5c-2,0.4-3,2.2-2.5,4.6c0.5,2.3,2.1,3.6,4.1,3.1c2-0.4,2.6-2,2.3-3.8
		l-3,0.6l-0.2-1l4.1-0.9L358.7,185.2z"/>
	<path d="M363.3,185.2c-0.2,1-0.4,2-1.6,2.3c-0.3,0.1-0.6,0.1-0.9,0.1l-0.2-1c0.4,0,0.6,0,0.8,0c0.4-0.1,0.6-0.4,0.7-0.7l0.3-1.3
		l-4.1-6.2l1.3-0.3l3.2,5l0.8-5.8l1.2-0.2L363.3,185.2z"/>
	<path d="M366.8,177.5c0.4-0.9,1-1.4,2-1.6c0.9-0.2,1.6,0,2.1,0.8c0.4-0.9,1-1.4,2-1.7c1.4-0.3,2.3,0.4,2.6,1.8l1,4.7l-1.1,0.2
		l-0.9-4.3c-0.2-1-0.5-1.7-1.7-1.4c-1.3,0.3-1.6,1.2-1.3,2.5l0.8,3.9l-1.1,0.2l-0.9-4.4c-0.2-0.9-0.5-1.6-1.6-1.3
		c-1.5,0.3-1.6,1.5-1.3,2.8l0.8,3.6l-1.1,0.2l-1.4-6.8l1.1-0.2V177.5z"/>
</g>
<ellipse transform="matrix(0.1066 -0.9943 0.9943 0.1066 -497.0676 660.8083)" class="st1" cx="119.2" cy="607" rx="21.5" ry="114.7"/>
<polygon class="st6" points="28.3,582.4 25.6,595.1 32.5,596.6 33.2,593.5 36.8,597.5 68.8,604.3 68.8,604.3 43,585.5 "/>
<polygon class="st6" points="186.8,600.3 185.7,613.3 192.7,613.9 193,610.7 197.1,614.2 229.8,616.9 229.8,616.9 201.8,601.6 "/>
<polygon class="st2" points="143.5,381.1 175.5,495.7 199.9,601.4 187.1,600.3 148.6,501.3 94.2,381.1 "/>
<polygon class="st2" points="130.8,381.1 101.8,502.7 41.5,585.2 28.9,582.5 75.3,498.8 80.9,380 "/>
<polygon class="st3" points="138.1,352.3 113.8,292.1 141.8,276.9 154.9,297.2 172.8,341.7 "/>
<polygon class="st7" points="145.2,386 149.5,306.1 141.8,276.9 127.4,270 105.8,270 78.8,279.1 72.1,313.8 80.1,385.2 "/>
<path class="st3" d="M78.7,279.1l-18.2,25.4l-12.7,49.2c-0.8,3.2,1,6.4,4.2,7.3c1.3,0.3,2.6,0.3,3.8-0.3l58-23.8l-3.2-9.6l-34.4,6.1
	l6-11.6l6.1-25.1L78.7,279.1z"/>
<path class="st5" d="M81.1,292.6l19.7-4.2c7.7-1.6,15.3,3.3,17,11l4.2,19.7c1.6,7.7-3.3,15.3-11,17l-19.7,4.2
	c-7.7,1.6-15.3-3.3-17-11l-4.2-19.7C68.5,301.9,73.4,294.3,81.1,292.6z"/>
<rect x="81.2" y="297.6" transform="matrix(0.9275 -0.3738 0.3738 0.9275 -110.6411 57.9726)" class="st3" width="25.9" height="33.3"/>
<rect x="80.4" y="301.9" transform="matrix(0.9275 -0.3738 0.3738 0.9275 -106.8486 55.5336)" class="st5" width="18.7" height="2.7"/>
<rect x="88.6" y="322.9" transform="matrix(0.9275 -0.3738 0.3738 0.9275 -113.8599 60.0716)" class="st5" width="18.7" height="1.4"/>
<rect x="89.5" y="325.2" transform="matrix(0.9275 -0.3738 0.3738 0.9275 -114.6574 60.5776)" class="st5" width="18.7" height="1.4"/>
<polygon class="st5" points="87.6,323 91.3,315.7 95.1,316.7 97.2,310.8 105.4,315.9 "/>
<circle class="st5" cx="91.8" cy="310.9" r="1.9"/>
<rect x="88.5" y="298" transform="matrix(0.9976 -6.982342e-02 6.982342e-02 0.9976 -21.7266 7.8554)" class="st3" width="26" height="33.4"/>
<rect x="89.8" y="301.2" transform="matrix(0.9978 -6.575616e-02 6.575616e-02 0.9978 -19.6792 7.1743)" class="st5" width="18.7" height="2.7"/>
<rect x="91.2" y="323.8" transform="matrix(0.9978 -6.575616e-02 6.575616e-02 0.9978 -21.1195 7.3139)" class="st5" width="18.7" height="1.4"/>
<rect x="91.4" y="326.2" transform="matrix(0.9978 -6.575616e-02 6.575616e-02 0.9978 -21.2769 7.3322)" class="st5" width="18.7" height="1.4"/>
<polygon class="st5" points="90.9,320.7 96.8,314.9 100.1,317 103.9,312 110.1,319.4 "/>
<circle class="st5" cx="98.7" cy="310.5" r="1.9"/>
<path class="st2" d="M99.9,335.4l3.5-19.9c1.4-7.8,8.8-12.9,16.6-11.6l19.9,3.5c7.8,1.4,12.9,8.8,11.6,16.6l-3.5,19.9
	c-1.4,7.8-8.8,12.9-16.6,11.6l-19.9-3.5C103.7,350.6,98.5,343.2,99.9,335.4z"/>
<g id="YsoBdv.tif">
	<path class="st3" d="M141.3,336.9c-0.5,2.8-0.9,5.5-1.5,8.2c-0.4,1.6-2,2.5-3.6,2.2c-3.1-0.5-6.2-1.1-9.3-1.6l-15.5-2.8
		c-1.7-0.1-3.1-1.6-3-3.3c0-0.3,0.1-0.5,0.1-0.8c0.4-2.5,0.9-4.9,1.3-7.4L141.3,336.9z"/>
	<path class="st3" d="M113.6,330.2c-1-0.2-1.9-0.3-2.8-0.5c-0.2-0.1-0.4-0.3-0.4-0.6c0.6-8.8,8.3-15.4,17.1-14.8
		c8,0.6,14.3,7,14.8,15c-0.1,1.8-0.4,3.5-0.9,5.3c-0.1,0.2-0.3,0.4-0.6,0.4c-0.9-0.1-1.8-0.3-2.8-0.5c2.2-6,1.2-11.2-3.8-15.3
		c-3.8-3.3-9.2-3.9-13.6-1.4C115.8,320.3,113.5,324.6,113.6,330.2z"/>
	<path class="st3" d="M125.8,332.4c-1-0.2-1.9-0.3-2.8-0.5c-0.4-0.1-0.7-0.3-0.9-0.6c-0.8-1.8-0.5-3.9,0.8-5.3
		c1.4-1.4,3.6-1.8,5.5-1c1.8,0.8,2.9,2.6,2.8,4.5c0,1.2-0.5,2.3-1.3,3.1c-0.3,0.3-0.8,0.4-1.2,0.4
		C127.7,332.8,126.8,332.6,125.8,332.4z M124.8,329c-0.2,0.9,0.4,1.7,1.3,1.9c0.9,0.2,1.7-0.4,1.9-1.3s-0.4-1.7-1.3-1.9l0,0
		C125.8,327.5,125,328.1,124.8,329C124.8,328.9,124.8,329,124.8,329L124.8,329z"/>
	<path class="st3" d="M119.6,325.6l-1.8-1.2c1.5-2.4,4-4.2,6.8-4.8l0.5,2.2C122.8,322.3,120.9,323.7,119.6,325.6z"/>
</g>
<path class="st3" d="M47.8,353.7c-0.8,3.2,1,6.4,4.2,7.3c1.3,0.3,2.6,0.3,3.8-0.3l58-23.8l-3.2-9.6l-34.4,6.1"/>
<path class="st3" d="M113.8,267.4c-1.2-1.6,0-17.3,0-17.3h15.3l-1.7,19.9C127.4,270,116.9,271.6,113.8,267.4z"/>
<polygon class="st3" points="110.8,261.4 101.8,270 112.4,287.2 121.2,272.4 123.7,271.9 128.4,287.2 136.5,271.9 129.6,263.2 
	122.5,269.2 "/>
<g id="Layer_9">
	<path class="st3" d="M143.8,226.8c-3-7.4-2.2-7.6-4.3-10.8c-3.4-5.4-7.3-11.1-13.3-13.5c-3.5-1.1-7.1-1.7-10.7-1.5
		c-2.7-0.2-5.4,0.1-8,0.8c-2.2,0.7-4.2,1.8-5.9,3.2c-5.1,3.9-8.6,9.4-9.9,15.7c-3.1,16.6,10.8,28.9,24,34.9c5,2.2,13.8,3.6,18.6,1.1
		C147.7,248.9,146.8,233.9,143.8,226.8z"/>
	<path class="st8" d="M119.8,224.4c-3.9,0.1-8.6,3.3-9.3,5.8"/>
	<path class="st8" d="M138.3,218.6c-3-1.6-6.7-1.1-9.3,1.2"/>
	<path class="st3" d="M131,240.6c0.8-0.8,1.6-1.6,2.3-2.4c0.2-0.2,0.3-0.4,0.4-0.7c0.2-0.6-0.3-1.3-0.7-1.8l-2.4-2.6"/>
	
		<ellipse transform="matrix(0.8186 -0.5744 0.5744 0.8186 -113.1835 111.8605)" class="st9" cx="120.5" cy="235.1" rx="1.6" ry="2.1"/>
	<ellipse transform="matrix(0.9433 -0.332 0.332 0.9433 -68.1031 58.1717)" class="st9" cx="136.2" cy="228.4" rx="1.5" ry="1.9"/>
	<path class="st6" d="M102.8,235.1c0,0-5.5-3.5-6.2-0.2c-0.2,1.1,2.9,7.2,9.7,7.9c0,0-1.4,6.9,2.6,9.1c0,0-7.7-1.4-20.4-16.6
		c0,0-11.5-12.8,5.3-23.2c1.1-13.9,15.4-20.1,34-17.1c0,0,12.6,8.9,13.8,24.2l-3.7-5.1c0,0-21.1,9.3-32.9,2
		C101.3,218.1,102.5,221.9,102.8,235.1z"/>
</g>
<path class="st10" d="M123.6,246.2c0,0,9.9,1.3,12.9-2.5C136.5,243.7,133.1,257.8,123.6,246.2z"/>
<path class="st3" d="M110.7,327.2c0,0,9.3-6.9,10.7-5.5s-1.3,3.2-1.3,3.2s7.8-2.6,10.5-1.2c3.5,1.8,3.3,6.8-16.8,13.1L110.7,327.2z"
	/>
<polyline class="st3" points="172.8,341.7 121.2,363.3 118,357 152.7,330.7 "/>
<path class="st3" d="M118,357c0,0-10.6-0.1-10.6,1.3s2.3,2.4,2.3,2.4s-12.2,5.1-8.8,7.5s13.5,0.2,20.3-4.8L118,357z"/>
<ellipse transform="matrix(0.9935 -0.1141 0.1141 0.9935 -64.6748 87.657)" class="st1" cx="733.4" cy="608.8" rx="109.7" ry="20.6"/>
<polygon class="st6" points="789.8,580.8 792.1,592.4 785.7,593.6 785.2,590.8 781.8,594.4 752.3,600 752.3,600 776.3,583.3 "/>
<polygon class="st6" points="698.1,611.2 693.9,622.4 687.9,620.1 688.9,617.4 684.1,618.7 656.1,608.3 656.1,608.3 685.2,606.4 "/>
<polygon class="st11" points="725.5,389.7 711.5,488.9 778.6,582.8 789.8,580.7 743.9,489.5 759.7,392.8 "/>
<polygon class="st11" points="792.1,393.8 787.8,426.8 697.8,611.7 686.2,606.8 743.9,426.8 739.9,420.7 743.9,398.5 "/>
<path class="st3" d="M766.4,290.2c1.2-1.6,0-17.4,0-17.4h-15.3l1.7,19.9C752.8,292.8,763.3,294.4,766.4,290.2z"/>
<g id="Layer_9-2">
	<path class="st3" d="M736.3,249.6c3-7.4,2.2-7.6,4.3-10.9c3.5-5.4,7.3-11.1,13.3-13.5c3.5-1.1,7.1-1.6,10.8-1.5
		c2.7-0.2,5.4,0.1,8,0.8c2.2,0.7,4.2,1.8,6,3.2c5.1,3.9,8.6,9.5,9.9,15.7c3.1,16.7-10.8,28.9-24.1,34.9c-5,2.2-13.8,3.6-18.6,1.1
		C732.4,271.6,733.4,256.7,736.3,249.6z"/>
	<path class="st8" d="M760.3,247.2c3.9,0.1,8.7,3.3,9.3,5.8"/>
	<path class="st8" d="M741.8,241.4c3-1.6,6.7-1.1,9.3,1.2"/>
	<path class="st3" d="M749.2,263.3c-0.8-0.8-1.6-1.6-2.3-2.4c-0.2-0.2-0.3-0.4-0.4-0.7c-0.2-0.6,0.3-1.3,0.8-1.8l2.4-2.6"/>
	
		<ellipse transform="matrix(0.5744 -0.8186 0.8186 0.5744 112.3074 731.533)" class="st9" cx="759.6" cy="257.8" rx="2.1" ry="1.6"/>
	<ellipse transform="matrix(0.332 -0.9433 0.9433 0.332 260.0131 869.4777)" class="st9" cx="743.9" cy="251.2" rx="2" ry="1.5"/>
	<path class="st6" d="M777.4,257.8c0,0,5.5-3.5,6.2-0.2c0.2,1.1-2.9,7.2-9.7,7.9c0,0,1.4,6.9-2.6,9.2c0,0,7.8-1.4,20.4-16.6
		c0,0,11.5-12.8-5.3-23.2c-1.1-13.9-13.6-22.7-32.3-19.6c-8.7,6.3-14.3,16-15.5,26.7c0,0,3.3-9,12.4-11.9c0,0,9.6,14.4,21.4,7.2
		C772.4,237.3,779.9,240.4,777.4,257.8z"/>
</g>
<path class="st10" d="M756.5,269c0,0-9.9,1.3-12.9-2.5C743.7,266.5,747.1,280.6,756.5,269z"/>
<path class="st2" d="M723.5,404.1l68.6,5.1l1.3-81.9c0,0-6.1-10.5,0-29.9l-22.3-11l-12.1,3.4l-12.6-3.8l-18.2,10.1l-2.4,38.8
	L723.5,404.1z"/>
<polygon class="st3" points="793.4,297.5 804.8,307.1 825.5,368.7 773.2,392.8 771.1,383.2 801.2,358.4 783.9,323.9 "/>
<polygon class="st3" points="728.2,296.1 723.5,299.7 702,358.4 733.7,384.4 736.5,376.6 723.5,352.9 725.3,342.2 "/>
<path class="st5" d="M721.8,331.3l18.4-9c7.2-3.5,15.9-0.5,19.4,6.7l9,18.4c3.5,7.2,0.5,15.9-6.7,19.4l-18.4,9
	c-7.2,3.5-15.9,0.5-19.4-6.7l-9-18.4C711.6,343.5,714.6,334.8,721.8,331.3z"/>
<path class="st3" d="M745.6,336.9c-2.9,1.4-4.1,4.9-2.7,7.8l7,14.4c0.4,0.7,1.2,1,2,0.7l0,0l7.9-3.8c0.7-0.3,1-1.2,0.7-2l0,0
	l-7-14.4C752,336.7,748.5,335.5,745.6,336.9L745.6,336.9z"/>
<path class="st3" d="M742.7,352.9l-4.5-8.4c-0.5-0.9-1.5-1.3-2.4-1.2l-1.9-4c-0.4-0.7-1-1.2-1.8-1.5l-5.1-1.2
	c-0.2-0.1-0.5-0.1-0.8,0c-0.2,0.1-0.4,0.3-0.4,0.5s0,0.5,0.1,0.7l4,8.3c-0.8,0.7-1,1.7-0.6,2.6l3.8,8.7c-0.5,0.4-0.6,1.1-0.3,1.7
	l3.2,6.6c0.3,0.7,1.2,1,2,0.7l0,0l8.6-4.2c0.7-0.4,1-1.3,0.7-2l0,0l-3.2-6.6C743.9,353,743.3,352.7,742.7,352.9L742.7,352.9z
	 M734.8,356.6l-3.3-7.5c-0.2-0.5,0-1,0.5-1.2l4-1.9c0.5-0.2,1,0,1.3,0.4l3.9,7.3L734.8,356.6z"/>
<path class="st5" d="M752.1,343.6l8.3-18.8c3.2-7.3,11.8-10.7,19.1-7.4l18.8,8.3c7.3,3.2,10.7,11.8,7.4,19.1l-8.3,18.8
	c-3.2,7.3-11.8,10.7-19.1,7.4l-18.8-8.3C752.2,359.5,748.9,350.9,752.1,343.6z"/>
<path class="st3" d="M794.8,342.6l-5.5-2.4c0.4-1,0-2.2-1-2.6l-2-0.9l4.7-1.8c1.1-0.3,1.7-1.4,1.4-2.5s-1.4-1.7-2.5-1.4
	c-0.1,0-0.3,0.1-0.4,0.1l-6,2.3l-2.3-6c-0.5-1-1.7-1.4-2.7-0.9c-0.9,0.4-1.3,1.4-1.1,2.4l1.8,4.7l-2-0.9c-1-0.4-2.2,0-2.6,1
	l-5.5-2.4c-1-0.4-2.2,0-2.6,1l-7.7,17.4c-0.4,1,0,2.2,1,2.6l25.5,11.2c1,0.4,2.2,0,2.6-1l7.6-17.3
	C796.2,344.3,795.8,343.1,794.8,342.6L794.8,342.6z M781.3,356.8l-17-7.5l5.6-12.8l17,7.5L781.3,356.8z M785.4,359.2
	c-1-0.4-1.5-1.6-1-2.6c0.4-1,1.6-1.5,2.6-1c1,0.4,1.5,1.6,1,2.6l0,0C787.5,359.2,786.4,359.6,785.4,359.2z M787.8,353.7
	c-1-0.4-1.5-1.6-1-2.6c0.4-1,1.6-1.5,2.6-1s1.5,1.6,1,2.6l0,0C789.9,353.7,788.8,354.1,787.8,353.7z"/>
<path class="st2" d="M739.1,346.6l17.4-9.3c6.8-3.6,15.3-1.1,18.9,5.8l9.3,17.4c3.6,6.8,1.1,15.3-5.8,18.9l-17.4,9.3
	c-6.8,3.6-15.3,1.1-18.9-5.8l-9.3-17.4C729.7,358.7,732.3,350.2,739.1,346.6z"/>
<path class="st3" d="M777.4,363.3l-6.9-2.1c-1.4-0.4-2.9,0.4-3.3,1.8l-1.1,3.5h-0.6c-2.6,0-5.1-0.3-7.6-1c-2.4-0.8-4.8-1.9-6.9-3.4
	l-0.5-0.3l0.7-2.3l0.3-1.1c0.4-1.4-0.3-2.9-1.7-3.3l-6.9-2.1c-1.4-0.4-2.9,0.4-3.3,1.8l-0.6,2l0,0c-0.1,0.8-0.2,1.6-0.1,2.4
	c0.1,0.7,0.3,1.4,0.5,2.1c2,5.2,6.7,8.5,16.1,11.4c13,3.9,19.4-0.3,19.7-0.5c0.6-0.4,1.2-0.9,1.6-1.5c0.5-0.6,1-1.3,1.3-2l0,0
	l0.6-1.9C779.5,365.3,778.7,363.8,777.4,363.3L777.4,363.3z"/>
<polyline class="st3" points="702,358.4 733.7,384.4 736.5,376.6 717.9,356.6 "/>
<polyline class="st3" points="825.5,368.7 773.2,392.8 771.1,383.2 801.2,358.4 "/>
<path class="st3" d="M771.1,383.2c0,0-10.1-3.2-10.1-1.3c0,1.4,1.2,2.5,2.6,2.5h0.1c0,0-12.2,1.4-10,5.3s19.5,3,19.5,3L771.1,383.2z
	"/>
<path class="st3" d="M736.5,376.6c0,0,10.8-2.2,10.7,0s-3.1,1.9-3.1,1.9s9.1,0.4,9.8,3.5c0.6,2.5-4.6,7.2-20.2,2.5L736.5,376.6z"/>
<polygon class="st3" points="767,280.8 754.7,287.2 751.1,282.1 743.9,287.5 746.4,296.1 753.9,290.5 761.7,299 771.1,286.5 "/>
<g>
	<path class="st9" d="M470.7,318.3C489.3,327.6,513,299,513,299s12.4-7,11.5-18.5c0,0-5,9.9-21.3-2.8c-8.1-6.4-12.1-16.5-18.4-24.7
		c0,0-11.5-14.5-28.6-18.9c0,0-13.3-5.2-29,3.7c0,0-14.5,7.7-15,23.6c0,0-2.7,19.9,16.6,35.4c3.9,3.1,7.1,6.8,9.6,11.1l29.2,8.4"/>
	<path class="st12" d="M432.2,434.5c0,0-87.3,181-101.8,213.2h-11l78.2-256.4C397.6,391.2,436.3,383.3,432.2,434.5z"/>
	<path class="st12" d="M420.4,398.5c0,0,40.2,210.2,44,245.2l11.6,5.5l-5-234.9c0,0-4.4-16.5-8.9-22
		C450.6,378.1,430.1,369,420.4,398.5z"/>
	<path class="st9" d="M475.8,642.7c6.2,12,20,20.6,33.2,23.4h-34.4l-6.1-9.8l-2.5,9.8h-3.4l1.8-22.4L475.8,642.7z"/>
	<path class="st9" d="M332.2,642.7l1.3,23.4h-3.4l-2.5-9.8l-6.1,9.8h-34.4c13.2-2.8,27.7-11.4,33.9-23.4H332.2z"/>
	<polygon class="st3" points="495.3,276 508,223.9 516.3,226.5 510.3,282.7 464.1,339.3 452.2,318.3 	"/>
	<polygon class="st3" points="386,272.6 386,218.9 377.3,219.5 369.8,275.5 400.7,343.3 417.7,323.9 	"/>
	<path class="st3" d="M409.5,306.5c0,0,17.5,1.9,20.4-5.5s-1.4-11.5-1.4-11.5l16.6-2.2c0,0-2,14.5,8.2,18.2c0.7,0.2,12.2,1.2,13,1.3
		c0,0-3.5,25.4-6.6,38.6c-5.2,22-23.1,36-32.4,37.9c-9,1.9-28.2-19.6-30.3-41.1C395.6,327.8,410.3,313,409.5,306.5z"/>
	<path class="st3" d="M386,218.9c0,0,7.8-10.8,4.6-10.4c-0.7,0.1-2.4,1.4-2.7,1.1c-1.1-1.1-0.8-3.9-2.4-8.2c-2-5.2-9.3-2.6-8.1,18.1
		L386,218.9z"/>
	<path class="st5" d="M403.5,373.9"/>
	<path class="st3" d="M447.5,286.4c-4.3,3.5-9.8,6.6-15.2,5.4c-4-0.9-7.2-4-9.5-7.4c-2.4-3.7-2.7-4.5-4.3-8.6
		c-1.2-2.5-1-3.4-1.5-6.2c-0.4-4,0-8.3,1.2-12c2-6.3,4.2-11.7,9.5-15.6c3.1-2,6.6-3.5,10.3-4.3c2.6-0.9,5.4-1.3,8.1-1.4
		c2.3,0.1,4.6,0.7,6.7,1.6c6.1,2.5,11,7.1,14,12.9C474.2,266.4,459,277,447.5,286.4z"/>
	<path class="st6" d="M418,277l-3.4-5.9l1.2-13l9.6-16.1l11.6-7.2l14.4,0.9l10.9,5.4l10,17.6l-3.6,15.7l-6.5,8.8
		c0,0-10.3-9.9-8-32.1c0,0-21.1-6.4-20.7-12.1C433.4,239,408.4,252.4,418,277z"/>
	<path class="st3" d="M440.7,254.4c5.9-3,7.7-0.3,10.9,2.4"/>
	<path class="st3" d="M431.5,251.9c-1.9-2.1-4.9-1.7-7.7-1.2"/>
	<path class="st3" d="M436.8,264c-1-0.5-2-1.1-3-1.8c-0.2-0.1-0.4-0.3-0.6-0.6c-0.3-0.6,0-1.3,0.3-1.9l1.6-3.2"/>
	<path class="st3" d="M435.9,276.8c-0.8,0.2-1.5,0.4-2.3,0.7c-0.2,0.2-0.5,0.3-0.7,0.4c-1,0.3-2.1-0.5-2.5-1.5
		c-0.3-1-0.5-2.1-0.7-3.2c-0.3-0.9-0.7-1.7-0.9-2.6c-0.1-0.2,0-0.5,0.1-0.7c0.2-0.4,0.8-0.5,1.3-0.4c3.4,0.4,6.7,1.5,9.7,3.3
		c0.1,0,0.2,0.1,0.3,0.2c0.4,0.6-0.9,1.9-1.3,2.3C438,276.1,436.9,276.6,435.9,276.8z"/>
	<path class="st13" d="M430.6,278.6c0.9,0.6,2.1,0.7,3.1,0.4c1.1-0.3,2-0.8,2.9-1.4c0.7-0.5,1.4-1,2-1.5c0.5-0.4,1-0.8,1.4-1.3
		s0.6-1.1,0.5-1.8c-1,0.9-2.2,1.7-3.4,2.3c-1.6,0.8-3.5,1.2-5.3,1c-0.6-0.1-1.6-0.6-2.1,0C429.3,276.9,429.9,278.2,430.6,278.6z"/>
	<path class="st13" d="M428.2,268.7c2.2-0.7,4.6-0.5,6.7,0.4s4,2.1,5.8,3.5c0.1,0.1,0.2,0.2,0.2,0.3s-0.2,0.2-0.4,0.1
		c-2.1,0.1-4.2-0.9-6.2-1.6c-1.7-0.5-3.4-0.7-5.1-0.7C427.7,271.1,426.1,269.5,428.2,268.7z"/>
	<ellipse transform="matrix(0.3916 -0.9201 0.9201 0.3916 33.5527 566.1245)" class="st9" cx="444.9" cy="257.7" rx="2" ry="1.6"/>
	<path class="st10" d="M441,257c0,0,4-3.3,6.5,0c2.5,3.2,4.8,2.5,4.8,2.5"/>
	
		<ellipse transform="matrix(0.9999 -1.542096e-02 1.542096e-02 0.9999 -3.8785 6.626)" class="st9" cx="427.7" cy="254.8" rx="1.6" ry="2"/>
	<path class="st10" d="M431.5,256.4c0,0-1.6-4.9-5.5-3.5c-3.8,1.4-5.4-0.4-5.4-0.4"/>
	<path class="st5" d="M369.8,275.5l27.3,59.8c0,0-0.8,5.9-0.7,7.9c0.4,6.1,3.6,16.8,5.4,23.8s-4.2,24.3-4.2,24.3s27.2,17.2,64.6,1.1
		c0,0-8.8-18.2-6.7-23.6c2.1-5.4,2.5-9.9,8.1-21.6l46.7-64.4l6-56.2L508,224l-12.7,52L476,295.1l-10.6,10.1l-8.9,0.6l-13.7,10.5
		l-17.6-0.8L422,306l-6.9,0.7L397.3,291L386,272.6l0.1-53.7l-8.7,0.6L369.8,275.5z"/>
	<path class="st5" d="M432.3,320.1"/>
	<path class="st3" d="M508,223.9c0,0-5-12.3-2-11.2c0.6,0.2,2,1.9,2.4,1.7c1.4-0.8,1.7-3.6,4.3-7.4c3.2-4.6,9.6-0.3,3.6,19.5
		L508,223.9z"/>
	<path class="st5" d="M402.6,348.2c0,0,7,3.9,13.6-1.1"/>
	<path class="st5" d="M432.7,347.1c0,0,8.6,7.2,19.9,2.6"/>
</g>
</svg>
