<svg id="Layer_1" data-name="Layer 1" xmlns="http://www.w3.org/2000/svg" viewBox="0 0 54.54 37.5"><defs><style>.cls-1{fill:#3e75ba;}</style></defs><title>quote</title><path id="Forma_1" data-name="Forma 1" class="cls-1" d="M12,13.64A11.93,11.93,0,1,1,.05,25.59v0L0,23.86A23.84,23.84,0,0,1,23.82,0h0V6.82a16.89,16.89,0,0,0-12,5,17.54,17.54,0,0,0-1.69,2A12.74,12.74,0,0,1,12,13.64Zm30.63,0A11.93,11.93,0,1,1,30.68,25.59v0l-.05-1.71A23.84,23.84,0,0,1,54.44,0h0V6.82a16.89,16.89,0,0,0-12,5,17.55,17.55,0,0,0-1.69,2A12.75,12.75,0,0,1,42.59,13.64Z"/></svg>