<?xml version="1.0" encoding="utf-8"?>
<!-- Generator: Adobe Illustrator 21.0.2, SVG Export Plug-In . SVG Version: 6.00 Build 0)  -->
<svg version="1.1" xmlns="http://www.w3.org/2000/svg" xmlns:xlink="http://www.w3.org/1999/xlink" x="0px" y="0px"
	 viewBox="0 0 917.2 626.2" style="enable-background:new 0 0 917.2 626.2;" xml:space="preserve">
<style type="text/css">
	.st0{opacity:0.4;fill:#F2F2F2;enable-background:new    ;}
	.st1{fill:none;stroke:#000000;stroke-width:8;stroke-miterlimit:10;}
	.st2{fill:#FFFFFF;stroke:#000000;stroke-width:0.5;stroke-miterlimit:10;}
	.st3{fill:#F2F2F2;}
	.st4{fill:none;}
	.st5{fill:#CCCCCC;}
	.st6{font-family:'MyriadPro-Regular';}
	.st7{font-size:70px;}
	.st8{fill:#1A1A1A;stroke:#000000;stroke-width:0.5;stroke-miterlimit:10;}
	.st9{fill:#1A1A1A;}
	.st10{fill:none;stroke:#000000;stroke-width:0.5;stroke-miterlimit:10;}
	.st11{fill:#F2F2F2;stroke:#000000;stroke-width:0.5;stroke-miterlimit:10;}
	.st12{fill:#EB058C;stroke:#000000;stroke-width:0.5;stroke-miterlimit:10;}
	.st13{fill:#0077BF;stroke:#000000;stroke-width:0.5;stroke-miterlimit:10;}
	.st14{fill:#FFFFFF;stroke:#000000;stroke-miterlimit:10;}
	.st15{fill:#FFE600;stroke:#000000;stroke-width:0.5;stroke-miterlimit:10;}
	.st16{enable-background:new    ;}
	.st17{fill:#B3B3B3;}
</style>
<g id="Layer_1">
	<g id="Layer_1_1_">
		<title>validate</title>
		<g id="Layer_13">
			<polygon class="st0" points="15.3,547.7 15.3,79.9 91.9,79.9 483.3,195.7 761.4,195.7 821.1,234.7 898,224.1 898,547.7 			"/>
			<polyline class="st1" points="10.2,79.9 16.8,79.9 91.9,79.9 483.3,195.7 761.4,195.7 821.1,234.7 904.2,223.2 			"/>
			<polygon points="894,204.9 898,242 917.2,221.2 			"/>
		</g>
		<g id="Layer_5">
			<path class="st2" d="M401.2,59.8h154.3c16.6,0,30,13.4,30,30v215c0,16.6-13.4,30-30,30H401.2c-16.6,0-30-13.4-30-30v-215
				C371.2,73.2,384.6,59.8,401.2,59.8z"/>
			<path class="st3" d="M161.2,59.8h154.2c16.6,0,30,13.4,30,30v215c0,16.6-13.4,30-30,30H161.2c-16.6,0-30-13.4-30-30v-215
				C131.2,73.2,144.6,59.8,161.2,59.8z"/>
			<path class="st2" d="M647.2,59.8h154.2c16.6,0,30,13.4,30,30v215c0,16.6-13.4,30-30,30H647.2c-16.6,0-30-13.4-30-30v-215
				C617.2,73.2,630.6,59.8,647.2,59.8z"/>
			<path class="st4" d="M260.3,407c0-3.1,2.2-5.8,5.3-6.3"/>
			<path class="st4" d="M195.2,445.7c-0.2,4.4,0.5,8.8,2,13"/>
		</g>
		<g id="Layer_12">
			<ellipse class="st5" cx="553" cy="606.5" rx="108.3" ry="19.6"/>
			<ellipse class="st5" cx="81.6" cy="604" rx="72.8" ry="13.2"/>
		</g>
		<g id="Layer_9">
			<rect x="664.7" y="169.9" class="st5" width="136" height="3.3"/>
			<circle class="st5" cx="652.7" cy="171.3" r="4"/>
			<rect x="664.7" y="196.9" class="st5" width="136" height="3.3"/>
			<circle class="st5" cx="652.7" cy="198.3" r="4"/>
			<rect x="664.7" y="224.9" class="st5" width="136" height="3.3"/>
			<circle class="st5" cx="652.7" cy="226.3" r="4"/>
			<rect x="644.3" y="266.3" class="st5" width="158.9" height="30"/>
		</g>
		<g id="Layer_9_copy">
			<rect x="418.7" y="169.9" class="st5" width="136" height="3.3"/>
			<circle class="st5" cx="406.7" cy="171.3" r="4"/>
			<rect x="418.7" y="196.9" class="st5" width="136" height="3.3"/>
			<circle class="st5" cx="406.7" cy="198.3" r="4"/>
			<rect x="418.7" y="224.9" class="st5" width="136" height="3.3"/>
			<circle class="st5" cx="406.7" cy="226.3" r="4"/>
			<rect x="398.3" y="266.3" class="st5" width="158.9" height="30"/>
		</g>
		<g id="Layer_9_copy_2">
			<rect x="178.7" y="169.9" class="st5" width="136" height="3.3"/>
			<circle class="st5" cx="166.7" cy="171.3" r="4"/>
			<rect x="178.7" y="196.9" class="st5" width="136" height="3.3"/>
			<circle class="st5" cx="166.7" cy="198.3" r="4"/>
			<rect x="178.7" y="224.9" class="st5" width="136" height="3.3"/>
			<circle class="st5" cx="166.7" cy="226.3" r="4"/>
			<rect x="158.3" y="266.3" class="st5" width="158.9" height="30"/>
		</g>
		<g id="Layer_14">
			<path class="st2" d="M118.7,165H273c16.6,0,30,13.4,30,30v215c0,16.6-13.4,30-30,30H118.7c-16.6,0-30-13.4-30-30V195
				C88.7,178.4,102.1,165,118.7,165z"/>
		</g>
		<g id="Layer_9_copy_3">
			<rect x="139.7" y="277" class="st5" width="136" height="3.3"/>
			<circle class="st5" cx="127.7" cy="278.3" r="4"/>
			<rect x="139.7" y="304" class="st5" width="136" height="3.3"/>
			<circle class="st5" cx="127.7" cy="305.3" r="4"/>
			<rect x="139.7" y="332" class="st5" width="136" height="3.3"/>
			<circle class="st5" cx="127.7" cy="333.3" r="4"/>
		</g>
		<g id="Layer_4">
			<text transform="matrix(1 0 0 1 536.96 234.35)" class="st6 st7">?</text>
			<text transform="matrix(1 0 0 1 63.96 234.35)" class="st6 st7">!</text>
		</g>
		<g id="Layer_15">
			<path class="st8" d="M13.1,305.6c0,0,5.8,5.9,15.4-8.4c0,0,7.5-11,11.3-23c0,0,5.3-14.4,17.7-22.4c0,0,9.1-7.5,23.8-4.6
				c0,0,13.5,2.3,18,14.8c0,0,7.3,15-3.8,32.3c0,0-3.8,5.6-4.7,11.2L61,321.1l-36.2-2.4l-3.1-3C21.6,315.8,15.5,315,13.1,305.6z"/>
			<path class="st8" d="M24.7,318.8c0,0,16.2,11.9,30.3,9l37.8-15.9l-2.1-6.3"/>
			<path class="st2" d="M70,303.9c-0.1,0.2-0.2,0.5-0.2,0.7c0.1,0.2,0.2,0.4,0.4,0.6c1.9,2.1,4.1,4,6.4,5.7c1.4,1,3.1,1.9,4.7,1.4
				c1-0.4,1.8-1.1,2.4-2l2.9-3.5c-1.3-0.9-1.4-2.9-1.2-4.5c0.2-2.1,0.6-4.3,1-6.4c-3.5-2.7-7.5-4.4-11.8-5c-1.5-0.2-2.2,0-2.3,1.5
				c-0.1,1.3,0,2.7-0.2,4C71.7,299,71,301.5,70,303.9z"/>
			<path class="st2" d="M78,296c4.3,1.6,9.4,2.7,13.4,0.3c2.9-1.8,4.6-5,5.6-8.3c0.9-3.5,1.4-7.2,1.6-10.8c0.3-2.3,0.3-4.6-0.1-6.9
				c-0.7-3.2-2.7-6-4.6-8.7c-3.2-4.4-6.8-9.1-11.9-10.8c-2.9-1-6.1-0.9-9.2-0.7c-2.3,0-4.6,0.4-6.7,1c-1.8,0.7-3.5,1.7-4.9,3
				c-4.1,3.5-6.9,8.5-7.6,13.8C51.6,282.1,66.4,291.6,78,296z"/>
			<path class="st9" d="M63.7,290.9c0,0,9.8-20.8,1.6-31.4c0,0,6.3,2.5,11.2,0.9c0,0,12.6-3.4,18,6.4c0,0,2.5,6.1,5.3,8.4v-5
				l-4.3-9.9l-11.8-10.2l-11-2.7L61.6,252l-7.2,7.1l-3.3,16.5L58,287L63.7,290.9z"/>
			<path class="st2" d="M70.7,276c0.6,0,1.1-0.3,1.4-0.8s0.6-1,0.8-1.5c0.2-0.4,0.4-0.7,0.7-1.1c0.2-0.3,0.5-0.6,0.9-0.9
				c0.9-0.6,2.1-0.7,3.1-0.3c1,0.4,2,1,2.8,1.7"/>
			<path class="st2" d="M85.3,269l0.6-1.2c0.3-1,1.1-1.9,2-2.5c0.9-0.3,1.8-0.3,2.6-0.2c0.9,0.1,1.8-0.2,2.4-0.9"/>
			<path class="st2" d="M77.9,267.7c-3.3-1-6.8,0.3-8.6,3.2"/>
			<path class="st2" d="M82.7,264.8c1-2.2,3-3.7,5.3-4"/>
			<path class="st2" d="M86.8,280.4c0.7-0.7,1.3-1.4,1.9-2.2c0.2-0.2,0.3-0.4,0.3-0.6c0.1-0.5-0.3-1.1-0.7-1.5l-2.1-2.1"/>
			
				<ellipse transform="matrix(0.751 -0.6603 0.6603 0.751 -161.1784 118.3206)" class="st8" cx="76.3" cy="272.9" rx="1.3" ry="1.7"/>
			
				<ellipse transform="matrix(0.751 -0.6603 0.6603 0.751 -154.0706 125.0209)" class="st8" cx="88.7" cy="266.8" rx="1.3" ry="1.7"/>
			<path class="st10" d="M90,287.3c-0.9,0.6-2,1-3.2,1c-1.1,0-2.2-0.1-3.3-0.3c0.4-0.3,0.8-0.6,1.2-0.9l3.4-2c0.9-0.6,1.9-1.1,3-1.5
				C93.6,282.9,90.8,286.8,90,287.3z"/>
			<path class="st9" d="M89.4,591.4v15.3h2.3l1.6-6.4l4,6.4h22.4c0,0-13.5-2.1-20-15.3H89.4z"/>
			<path class="st9" d="M74.7,591.4v15.3h-2.2l-1.6-6.4l-4,6.4H44.4c0,0,13.5-2.1,20-15.3H74.7z"/>
			<path class="st11" d="M74.7,591.4H64.4c0,0-21.2-135-19.5-166.3C46,405.3,58.1,395,58.1,395h48c0,0,12.1,10.3,13.1,30.1
				c1.7,31.3-19.5,166.3-19.5,166.3H89.4c0,0-3.3-163-7.4-161.3C82.1,430.1,72.4,493.4,74.7,591.4z"/>
			<path class="st12" d="M58.3,395c7.9-10.3-7.2-63.6-7.2-63.6l-37.5,65.8L7,393.5c22.7-71.7,32.2-83.2,32.2-83.2
				c4.7-4.7,30.5-5.7,30.5-5.7c4.9,3.5,11.2,4.3,16.7,2c3.8-3,25.7-1.8,25.7-1.8l33.4-5.8l28.7-36.2l6.7,3.4l-28.3,48.5l-37.7,12
				c0,0-14.6,38.7-9,68.2C106.1,395,79.8,408.9,58.3,395z"/>
			<path class="st12" d="M106.9,337.5c0,0-6,12.5-20.1,5.6"/>
			<path class="st12" d="M55.8,337.5c0,0,6,12.5,20.1,5.6"/>
			<path class="st2" d="M174.4,262.9c-5.8-9,2.4-5.1,2.4-5.1s7.3-9.2,9.8-7.9c3.4,1.8-5.5,16.4-5.5,16.4L174.4,262.9z"/>
			<path class="st2" d="M13.6,397.2c5.4,9.2-2.6,5-2.6,5s-7.6,8.9-10,7.5c-3.3-1.9,6.2-16.2,6.2-16.2L13.6,397.2z"/>
		</g>
		<g id="Layer_16">
			<path class="st10" d="M546.1,426.3"/>
			<path class="st13" d="M523.1,595.9h-10.8l1.8-191.1l69.8,8.1l17.6,182.9h-10.8l-40-162.6c0,0-2.2-4-5,0L523.1,595.9h-10.8"/>
			<path class="st2" d="M643.4,302c2.2-1.1,4.8-1.3,7.3-1.6c3.9-0.5,7.8-1.4,11.6-2.6c1.2-0.4,2.8-1.4,2.3-2.7
				c-0.2-0.4-0.5-0.7-0.9-0.9c-2.3-1.4-5.2-1.3-7.8-0.7s-5.1,1.7-7.8,2c-2.4,0.3-5.1,0.1-7.1,1.5c-1.4,1.1-2.5,2.5-3.2,4.1
				c-0.9,1.6-1.8,3.2-2.6,4.9C638.7,308.8,640.5,303.4,643.4,302z"/>
			<path class="st2" d="M437.3,272c-2.2-1.1-4.8-1.3-7.3-1.6c-3.9-0.5-7.8-1.4-11.6-2.6c-1.2-0.4-2.8-1.4-2.3-2.7
				c0.2-0.4,0.5-0.7,0.9-0.9c2.3-1.4,5.2-1.3,7.8-0.7s5.1,1.7,7.8,2c2.4,0.3,5.1,0.1,7.1,1.5c1.4,1.1,2.5,2.5,3.2,4.2
				c0.9,1.6,1.8,3.2,2.6,4.9C442,278.8,440.2,273.4,437.3,272z"/>
			<path class="st11" d="M437.4,275l6.2-5.7l30.7,27.4c5.7,5.1,8.9,4.8,8.9,4.8c31-3.4,54.8,5.5,54.8,5.5c7.3,8.5,17.2,0,17.2,0
				c25.4-0.4,30.8,4,30.8,4l32.2,13c0,0,9.3-6.7,17.8-25.7l8.5,6c0,0-13,42.3-32.2,37.7l-25.9-12.3v19.8l-2.5,63.6
				c-41.1,12.4-70-8.1-70-8.1c5.2-23.8-2.5-84.8-2.5-84.8s-40.4-3.5-46.2-11.1L437.4,275"/>
			<polygon class="st9" points="590.1,595.9 590.1,605.5 595.2,605.5 595.2,603.1 598.5,605.5 622.6,605.5 622.6,605.5 601.2,595.9 
							"/>
			<polygon class="st9" points="523.4,595.9 523.4,605.5 518.3,605.5 518.3,603.1 515,605.5 490.9,605.5 490.9,605.5 512.3,595.9 
							"/>
			<path class="st2" d="M551.8,304.9c0.1,0.2,0.2,0.4,0.2,0.7c-0.1,0.2-0.2,0.4-0.3,0.6c-1.9,2.1-3.9,4.1-6.2,5.8
				c-1.3,1-3,2-4.6,1.5c-1-0.4-1.8-1.1-2.4-1.9l-3-3.5c1.3-1,1.3-2.9,1.1-4.5c-0.3-2.1-0.7-4.2-1.2-6.3c3.4-2.7,7.4-4.6,11.6-5.3
				c1.5-0.2,2.2,0,2.3,1.5c0.1,1.3,0.1,2.7,0.3,4C549.9,300,550.7,302.6,551.8,304.9z"/>
			<path class="st2" d="M549.6,296.3c-3.9,2.5-8.6,4.6-13,3.1c-3.2-1.1-5.6-3.9-7.2-6.9c-1.6-3.3-2.9-6.7-3.8-10.2
				c-0.8-2.2-1.2-4.5-1.3-6.8c0-3.3,1.3-6.5,2.7-9.5c2.2-5,4.7-10.3,9.4-13c2.7-1.6,5.8-2.1,8.8-2.6c2.2-0.5,4.5-0.6,6.8-0.4
				c1.9,0.3,3.7,1,5.4,1.9c4.8,2.6,8.5,6.8,10.3,11.9C572.5,277.3,560,289.6,549.6,296.3z"/>
			<path class="st14" d="M549.2,266.9c2.6,0.4,4.6,2.6,4.8,5.2"/>
			<path class="st14" d="M530.5,264.2c2-1.7,5-1.8,7.1-0.3"/>
			<path class="st2" d="M537.5,280c-0.8-0.5-1.5-1.1-2.3-1.7c-0.2-0.1-0.3-0.3-0.4-0.5c-0.1-0.6,0-1.1,0.4-1.6l1.6-2.5"/>
			
				<ellipse transform="matrix(0.4879 -0.8729 0.8729 0.4879 41.1344 617.1788)" class="st8" cx="546.6" cy="273.5" rx="1.7" ry="1.3"/>
			<ellipse transform="matrix(0.3122 -0.95 0.95 0.3122 110.1141 692.2399)" class="st8" cx="533.1" cy="270.1" rx="1.7" ry="1.3"/>
			<path class="st9" d="M560.2,277.2c0,0,4.3,0.5-1.9,6.9c0,0,0.8,5-2.2,7.4c0,0,7.5-1.5,16.1-15.9c0,0,4.1-13.4-4.7-21.6
				c0,0-11.1-11.1-26.4-6c0,0-16.2,5.7-15.6,21.2c0,0,5-11.5,12.2-15.1c0,0,11.4,6.7,17.1,5.3C555,259.3,560.1,262.3,560.2,277.2z"
				/>
			<path class="st10" d="M531.2,267.6c1.6-0.2,3.2,0.5,4.2,1.8"/>
			<path class="st10" d="M545.6,271c1.4,0.3,2.6,1.1,3.5,2.2"/>
			<path class="st10" d="M546.5,286.1c0.3,0.6,0.3,1.4-0.1,1.9"/>
			<path class="st10" d="M533.9,288.5c2.5,0,4.6-1.9,7.1-2.3c1.4-0.2,2.8,0.1,4,0.8"/>
			<g id="Layer_17">
				<path class="st15" d="M532.8,301.3l-1.2,4.6c10.3,17.7,25,1.1,25,1.1l-1.6-5.7C555,301.3,542.4,307.3,532.8,301.3z"/>
			</g>
		</g>
	</g>
	<g id="Layer_2">
		<g class="st16">
			<path class="st17" d="M221.5,101.5h-18v10.7h15.8v3.8h-15.8v15.8h-4.5V97.6h22.5V101.5z"/>
			<path class="st17" d="M238.8,110.6c-0.4,0-0.6,0-1.1,0c-6.7,0-7.9,5.1-7.9,10.7v10.5h-4.1V107h3.9v5.3c1.7-4.2,4.8-5.9,9.2-5.9
				V110.6z"/>
			<path class="st17" d="M251.4,132.6c-7.3,0-11.7-4.8-11.7-12.9c0-8,4.7-13.4,11.5-13.4c8.2,0,11.2,6.5,11.2,13.6v0.6h-18.6l0,0.3
				c0,5.3,2.9,8.4,7.7,8.4c3.6,0,5.5-1.5,6.7-5.3h4C260.9,129.6,257.2,132.6,251.4,132.6z M251.1,109.6c-4,0-6.8,2.9-7.3,7.5h14.4
				C257.8,112.5,255.2,109.6,251.1,109.6z"/>
			<path class="st17" d="M277.1,132.6c-7.3,0-11.7-4.8-11.7-12.9c0-8,4.7-13.4,11.5-13.4c8.2,0,11.2,6.5,11.2,13.6v0.6h-18.6l0,0.3
				c0,5.3,2.9,8.4,7.7,8.4c3.6,0,5.5-1.5,6.7-5.3h4C286.7,129.6,283,132.6,277.1,132.6z M276.9,109.6c-4,0-6.8,2.9-7.3,7.5H284
				C283.6,112.5,281,109.6,276.9,109.6z"/>
		</g>
	</g>
	<g id="Layer_2_copy">
		<g class="st16">
			<path class="st17" d="M454.5,97.2c6.1,0.1,9.7,3,9.8,9.2h-4v-0.3c0-3.4-1.9-5.3-5.8-5.6v11.9c5.6,1.6,10.6,3.1,10.6,10
				c0,5.9-3.9,9.6-10.6,10v4h-2.3v-4c-6.2-0.3-10.6-3.7-10.6-10.5v-0.5h4.1c0,0.3,0,0.5,0,0.6c0,4.3,2.3,6.6,6.5,7v-13.2
				c-5.8-1.1-9.9-3.5-9.9-9.2c0-6,4.4-8.9,9.9-9.5v-3.3h2.3V97.2z M452.3,100.7c-3.6,0.3-5.9,2.4-5.9,5.7c0,3.6,2.8,5,5.9,5.7V100.7
				z M454.5,129.2c3.8-0.1,6.5-2.8,6.5-6.6c0-3.9-3.2-5.4-6.5-6.1V129.2z"/>
			<path class="st17" d="M490.3,131.8h-22.2c0.4-7.8,4.2-10.6,10.1-14.3c3.6-2.3,8.1-4.8,8.1-9.7c0-3.8-2.7-6.4-6.6-6.4
				c-5.1,0-6.5,4.3-6.6,8.5H469v-0.9c0-6.7,4.4-11.2,10.9-11.2c6.4,0,10.6,3.9,10.6,9.9c0,6.6-5.2,9.8-10.2,12.8
				c-3.1,1.9-6.7,3.8-7.6,7.6h17.5V131.8z"/>
			<path class="st17" d="M518.3,115.6c0,8-1.4,16.8-11.2,16.8c-10.3,0-11.5-8.8-11.5-16.9s0.8-17.8,11.3-17.8
				C517.5,97.7,518.3,107.5,518.3,115.6z M499.9,115.5c0,5,0.1,13.3,7.1,13.3c7,0,6.9-8.6,6.9-13.5c0-5,0.1-13.9-7-13.9
				S499.9,110.3,499.9,115.5z"/>
		</g>
	</g>
	<g id="Layer_2_copy_2">
		<g class="st16">
			<path class="st17" d="M701.5,97.2c6.1,0.1,9.7,3,9.8,9.2h-4v-0.3c0-3.4-1.9-5.3-5.8-5.6v11.9c5.6,1.6,10.6,3.1,10.6,10
				c0,5.9-3.9,9.6-10.6,10v4h-2.3v-4c-6.2-0.3-10.6-3.7-10.6-10.5v-0.5h4.1c0,0.3,0,0.5,0,0.6c0,4.3,2.3,6.6,6.5,7v-13.2
				c-5.8-1.1-9.9-3.5-9.9-9.2c0-6,4.4-8.9,9.9-9.5v-3.3h2.3V97.2z M699.3,100.7c-3.6,0.3-5.9,2.4-5.9,5.7c0,3.6,2.8,5,5.9,5.7V100.7
				z M701.5,129.2c3.8-0.1,6.5-2.8,6.5-6.6c0-3.9-3.2-5.4-6.5-6.1V129.2z"/>
			<path class="st17" d="M736.5,101.9h-13.8l-2,10.1c1.9-2,4.1-2.7,6.9-2.7c6.4,0,10.8,4.5,10.8,11.1c0,6.9-4.7,11.9-11.8,11.9
				c-6.5,0-10.8-3.9-11-9.8h4.1c0.3,3.8,3.1,6.4,6.9,6.4c4.2,0,7.4-3.5,7.4-8c0-4.7-3-8-7.4-8c-2.8,0-5,1.1-6.5,3.3l-3.5-0.2
				l3.2-17.7h16.8V101.9z"/>
			<path class="st17" d="M765.3,115.6c0,8-1.4,16.8-11.2,16.8c-10.3,0-11.5-8.8-11.5-16.9s0.8-17.8,11.3-17.8
				C764.5,97.7,765.3,107.5,765.3,115.6z M746.9,115.5c0,5,0.1,13.3,7.1,13.3c7,0,6.9-8.6,6.9-13.5c0-5,0.1-13.9-7-13.9
				S746.9,110.3,746.9,115.5z"/>
		</g>
	</g>
	<g id="Layer_2_copy_3">
		<g class="st16">
			<path class="st17" d="M176.5,204.2c6.1,0.1,9.7,3,9.8,9.2h-4v-0.3c0-3.4-1.9-5.3-5.8-5.6v11.9c5.6,1.6,10.6,3.1,10.6,10
				c0,5.9-3.9,9.6-10.6,10v4h-2.3v-4c-6.2-0.3-10.6-3.7-10.6-10.5v-0.5h4.1c0,0.3,0,0.5,0,0.6c0,4.3,2.3,6.6,6.5,7v-13.2
				c-5.8-1.1-9.9-3.5-9.9-9.2c0-6,4.4-8.9,9.9-9.5v-3.3h2.3V204.2z M174.3,207.7c-3.6,0.3-5.9,2.4-5.9,5.7c0,3.6,2.8,5,5.9,5.7
				V207.7z M176.5,236.2c3.8-0.1,6.5-2.8,6.5-6.6c0-3.9-3.2-5.4-6.5-6.1V236.2z"/>
			<path class="st17" d="M206.1,238.8h-4.5v-24.6h-8.5v-3.1c5,0,8.6-1.2,9.8-6.3h3.2V238.8z"/>
			<path class="st17" d="M238.2,208.9h-13.8l-2,10.1c1.9-2,4.1-2.7,6.9-2.7c6.4,0,10.8,4.5,10.8,11.1c0,6.9-4.7,11.9-11.8,11.9
				c-6.5,0-10.8-3.9-11-9.8h4.1c0.3,3.8,3.1,6.4,6.9,6.4c4.2,0,7.4-3.5,7.4-8c0-4.7-3-8-7.4-8c-2.8,0-5,1.1-6.5,3.3l-3.5-0.2
				l3.2-17.7h16.8V208.9z"/>
		</g>
	</g>
</g>
<g id="Layer_2_1_">
	<g>
		<path d="M393.9,5.3c3.9,0,6.9,1.7,6.9,5.9c0,4.7-3,6.2-7,6.2h-5.6V26h-2.7V5.3H393.9z M388.1,15.2h5.3c2.6,0,4.7-0.7,4.7-3.8
			c0-3.3-2.3-3.8-5-3.8h-4.9V15.2z"/>
		<path d="M411.5,13.2c-0.3,0-0.4,0-0.6,0c-4.1,0-4.8,3.1-4.8,6.5V26h-2.5V11h2.3v3.2c1-2.5,2.9-3.6,5.5-3.6V13.2z"/>
		<path d="M415.9,8.4h-2.5v-3h2.5V8.4z M415.9,26h-2.5V11h2.5V26z"/>
		<path d="M426.1,26.4c-4.6,0-7.1-3.2-7.1-7.7c0-5,2.8-8.1,7.2-8.1c3.7,0,5.9,1.9,6.4,5.3H430c-0.4-2.1-1.7-3.2-3.8-3.2
			c-2.8,0-4.6,2.3-4.6,5.9c0,3.7,1.7,5.9,4.5,5.9c2.2,0,3.7-1.4,4.1-3.8h2.5C432.2,24.1,429.8,26.4,426.1,26.4z"/>
		<path d="M437.9,8.4h-2.5v-3h2.5V8.4z M437.9,26h-2.5V11h2.5V26z"/>
		<path d="M444.1,13.4c1.2-1.8,2.8-2.7,5.1-2.7c3.7,0,5,2,5,5.4V26h-2.5v-8.8c0-2.4-0.1-4.4-3.2-4.4c-3.2,0-4.3,2.4-4.3,5.4V26h-2.5
			V11h2.3V13.4z"/>
		<path d="M470.8,24.4c0,2.6-0.2,3.8-1,5c-1.1,1.8-3.2,2.7-5.9,2.7c-3,0-5.9-1-6.3-4.4h2.5c0.3,1.7,1.5,2.5,3.9,2.5
			c3.1,0,4.4-1.5,4.4-4.9l0-1.8c-1,1.9-2.5,2.7-4.8,2.7c-4,0-6.6-3-6.6-7.6c0-4.1,2.2-7.9,6.7-7.9c2.1,0,3.8,0.9,4.7,2.6V11h2.3
			V24.4z M459.7,18.6c0,3.3,1.7,5.5,4.4,5.5c2.7,0,4.4-2.2,4.4-5.9c0-3.4-1.7-5.4-4.5-5.4C461.3,12.8,459.7,15,459.7,18.6z"/>
		<path d="M495.4,21.3l4,4.7h-3.2l-2.2-2.6c-1.5,2.1-3.5,3-6,3c-3.5,0-6.3-2.2-6.3-5.8c0-2.9,2.3-5.1,4.8-6.2
			c-1.6-1.9-2.2-3.3-2.2-4.8c0-2.6,2-4.4,4.8-4.4c2.8,0,4.7,1.8,4.7,4.3c0,2.5-1.7,4.3-3.8,5.4l3.8,4.6c0.4-0.9,0.6-2.1,0.7-3.3h2.3
			C496.7,18.1,496.2,20,495.4,21.3z M484.3,20.5c0,2.1,1.8,3.8,4,3.8c1.8,0,3.3-0.9,4.4-2.6l-4.8-5.7
			C486.2,16.9,484.3,18.4,484.3,20.5z M491.5,9.7c0-1.4-1-2.5-2.4-2.5c-1.4,0-2.4,1-2.4,2.3c0,1.3,1.3,2.8,2.1,3.8
			C490,12.5,491.5,11.4,491.5,9.7z"/>
		<path d="M518,5.3c3.9,0,6.9,1.7,6.9,5.9c0,4.7-3,6.2-7,6.2h-5.6V26h-2.7V5.3H518z M512.2,15.2h5.3c2.6,0,4.7-0.7,4.7-3.8
			c0-3.3-2.3-3.8-5-3.8h-4.9V15.2z"/>
		<path d="M530.3,26h-2.5V5.3h2.5V26z"/>
		<path d="M547.4,25.9c-0.5,0.2-1.1,0.3-1.7,0.3c-1.4,0-2.1-0.8-2.2-2.2c-1.5,1.7-3.1,2.4-5.4,2.4c-3,0-4.8-1.6-4.8-4.2
			c0-2.7,1.8-4.2,5.3-4.7c3.6-0.4,4.8-0.3,4.8-2.4c0-1.6-1.2-2.5-3.4-2.5c-2.3,0-3.5,0.8-3.7,3h-2.4c0.1-3.2,2.4-5.1,6.3-5.1
			c2,0,3.7,0.5,4.7,1.5c1,1,1,2.6,1,3.9c0,2.2-0.1,4.4-0.1,6.7c0,1.1,0.3,1.5,1,1.5c0.2,0,0.3,0,0.6-0.1V25.9z M540.1,19.1
			c-1.8,0.2-4.2,0.4-4.2,2.8c0,1.5,1.1,2.5,3,2.5c2.3,0,4.6-1.6,4.6-3.5v-2.7C542.5,18.9,541.2,19,540.1,19.1z"/>
		<path d="M552,13.4c1.2-1.8,2.8-2.7,5.1-2.7c3.7,0,5,2,5,5.4V26h-2.5v-8.8c0-2.4-0.1-4.4-3.2-4.4c-3.2,0-4.3,2.4-4.3,5.4V26h-2.5
			V11h2.3V13.4z"/>
		<path d="M574.5,15.4c-0.2-2-1.5-2.7-3.7-2.7c-1.9,0-3,0.8-3,2c0,1.7,1.9,1.9,4,2.4c2.5,0.6,5.8,1.3,5.8,4.6c0,2.9-2.5,4.8-6.2,4.8
			c-4.1,0-6.3-1.8-6.4-5.2h2.4c0.1,2.3,1.7,3.2,4.1,3.2c2.2,0,3.7-1,3.7-2.5c0-1.7-1.7-2-3.8-2.5c-2.6-0.6-6-1-6-4.4
			c0-2.7,2.2-4.4,5.7-4.4c3.4,0,6,1.6,6,4.8H574.5z"/>
	</g>
</g>
</svg>
