<svg xmlns="http://www.w3.org/2000/svg" viewBox="0 0 917.19 626.19"><defs><style>.cls-1,.cls-21,.cls-4{fill:#f2f2f2;}.cls-1{opacity:0.4;}.cls-2,.cls-20,.cls-5{fill:none;}.cls-18,.cls-2,.cls-20,.cls-21,.cls-22,.cls-23,.cls-24,.cls-25,.cls-3{stroke:#000;stroke-miterlimit:10;}.cls-2{stroke-width:8px;}.cls-24,.cls-3{fill:#fff;}.cls-18,.cls-20,.cls-21,.cls-22,.cls-23,.cls-25,.cls-3{stroke-width:0.5px;}.cls-6{fill:#ccc;}.cls-7,.cls-8{font-size:48px;fill:#b3b3b3;font-family:MyriadPro-Bold, Myriad Pro;font-weight:700;}.cls-8{letter-spacing:-0.02em;}.cls-9{letter-spacing:-0.01em;}.cls-10{letter-spacing:0em;}.cls-11{font-size:28.98px;}.cls-11,.cls-16,.cls-17{font-family:MyriadPro-Regular, Myriad Pro;}.cls-12{letter-spacing:-0.02em;}.cls-13{letter-spacing:0em;}.cls-14{letter-spacing:0em;}.cls-15{letter-spacing:-0.01em;}.cls-16,.cls-17{font-size:70px;}.cls-16{letter-spacing:-0.02em;}.cls-17{letter-spacing:-0.02em;}.cls-18,.cls-19{fill:#1a1a1a;}.cls-22{fill:#eb058c;}.cls-23{fill:#0077bf;}.cls-25{fill:#ffe600;}</style></defs><title>validate</title><g id="Layer_13" data-name="Layer 13"><polygon class="cls-1" points="15.29 547.66 15.29 79.86 91.87 79.86 483.32 195.66 761.42 195.66 821.12 234.66 897.95 224.1 897.95 547.66 15.29 547.66"/><polyline class="cls-2" points="10.25 79.86 16.8 79.86 91.87 79.86 483.32 195.66 761.42 195.66 821.12 234.66 904.25 223.23"/><polygon points="894 204.89 897.95 242.01 917.19 221.2 894 204.89"/></g><g id="Layer_5" data-name="Layer 5"><rect class="cls-3" x="371.17" y="59.79" width="214.25" height="274.99" rx="30" ry="30"/><rect class="cls-4" x="131.17" y="59.79" width="214.25" height="274.99" rx="30" ry="30"/><rect class="cls-3" x="617.17" y="59.79" width="214.25" height="274.99" rx="30" ry="30"/><path class="cls-5" d="M260.32,407a6.38,6.38,0,0,1,5.27-6.3"/><path class="cls-5" d="M195.24,445.66a32.74,32.74,0,0,0,2,13"/></g><g id="Layer_12" data-name="Layer 12"><ellipse class="cls-6" cx="553.05" cy="606.55" rx="108.35" ry="19.64"/><ellipse class="cls-6" cx="81.6" cy="604" rx="72.75" ry="13.19"/></g><g id="Layer_9" data-name="Layer 9"><rect class="cls-6" x="664.67" y="169.95" width="136.03" height="3.33"/><circle class="cls-6" cx="652.66" cy="171.28" r="4"/><rect class="cls-6" x="664.67" y="196.95" width="136.03" height="3.33"/><circle class="cls-6" cx="652.66" cy="198.28" r="4"/><rect class="cls-6" x="664.67" y="224.95" width="136.03" height="3.33"/><circle class="cls-6" cx="652.66" cy="226.28" r="4"/><rect class="cls-6" x="644.33" y="266.28" width="158.92" height="30"/><text class="cls-7" transform="translate(683.35 131.75)">$50</text></g><g id="Layer_9_copy" data-name="Layer 9 copy"><rect class="cls-6" x="418.67" y="169.95" width="136.03" height="3.33"/><circle class="cls-6" cx="406.66" cy="171.28" r="4"/><rect class="cls-6" x="418.67" y="196.95" width="136.03" height="3.33"/><circle class="cls-6" cx="406.66" cy="198.28" r="4"/><rect class="cls-6" x="418.67" y="224.95" width="136.03" height="3.33"/><circle class="cls-6" cx="406.66" cy="226.28" r="4"/><rect class="cls-6" x="398.33" y="266.28" width="158.92" height="30"/><text class="cls-7" transform="translate(437.35 131.75)">$20</text></g><g id="Layer_9_copy_2" data-name="Layer 9 copy 2"><rect class="cls-6" x="178.67" y="169.95" width="136.03" height="3.33"/><circle class="cls-6" cx="166.66" cy="171.28" r="4"/><rect class="cls-6" x="178.67" y="196.95" width="136.03" height="3.33"/><circle class="cls-6" cx="166.66" cy="198.28" r="4"/><rect class="cls-6" x="178.67" y="224.95" width="136.03" height="3.33"/><circle class="cls-6" cx="166.66" cy="226.28" r="4"/><rect class="cls-6" x="158.33" y="266.28" width="158.92" height="30"/><text class="cls-8" transform="translate(190.35 131.75)">F<tspan class="cls-9" x="24.34" y="0">r</tspan><tspan class="cls-10" x="42.19" y="0">ee</tspan></text></g><g id="Layer_14" data-name="Layer 14"><rect class="cls-3" x="88.7" y="165.01" width="214.25" height="274.99" rx="30" ry="30"/></g><g id="Layer_9_copy_3" data-name="Layer 9 copy 3"><rect class="cls-6" x="139.67" y="276.95" width="136.03" height="3.33"/><circle class="cls-6" cx="127.66" cy="278.28" r="4"/><rect class="cls-6" x="139.67" y="303.95" width="136.03" height="3.33"/><circle class="cls-6" cx="127.66" cy="305.28" r="4"/><rect class="cls-6" x="139.67" y="331.95" width="136.03" height="3.33"/><circle class="cls-6" cx="127.66" cy="333.28" r="4"/><text class="cls-7" transform="translate(158.35 238.75)">$15</text></g><g id="Layer_4" data-name="Layer 4"><text class="cls-11" transform="translate(389.67 24.26)"><tspan class="cls-12">P</tspan><tspan class="cls-13" x="14.96" y="0">r</tspan><tspan class="cls-14" x="24.55" y="0">icing &amp; </tspan><tspan class="cls-15" x="113.2" y="0">P</tspan><tspan x="128.48" y="0">lans</tspan></text><text class="cls-16" transform="translate(536.96 234.35)">?</text><text class="cls-17" transform="translate(63.96 234.35)">!</text></g><g id="Layer_15" data-name="Layer 15"><path class="cls-18" d="M13.11,305.65s5.78,5.87,15.37-8.36c0,0,7.53-11,11.29-23,0,0,5.3-14.44,17.69-22.37,0,0,9.11-7.54,23.82-4.64,0,0,13.48,2.27,18,14.76,0,0,7.32,15-3.85,32.26,0,0-3.84,5.64-4.73,11.24L60.86,321.16l-36.15-2.4-3.1-3S15.47,315,13.11,305.65Z"/><path class="cls-18" d="M24.72,318.76s16.23,11.9,30.29,9l37.83-15.93L90.7,305.5"/><path class="cls-3" d="M70,303.91a1.26,1.26,0,0,0-.15.69,1.22,1.22,0,0,0,.36.58,42.19,42.19,0,0,0,6.4,5.66c1.37,1,3.07,1.92,4.67,1.38a5.74,5.74,0,0,0,2.39-2l2.91-3.55c-1.34-.92-1.37-2.86-1.2-4.47a64.05,64.05,0,0,1,1-6.35,25.32,25.32,0,0,0-11.84-5c-1.47-.21-2.24,0-2.3,1.55-.06,1.34,0,2.67-.2,4A27.7,27.7,0,0,1,70,303.91Z"/><path class="cls-3" d="M78,296c4.33,1.65,9.43,2.67,13.41.3,2.93-1.75,4.62-5,5.56-8.32a56.15,56.15,0,0,0,1.61-10.83,24.08,24.08,0,0,0-.1-6.93c-.68-3.25-2.66-6-4.6-8.74-3.19-4.43-6.75-9.1-11.94-10.8-2.94-1-6.11-.87-9.2-.72A22.78,22.78,0,0,0,66,251a15.87,15.87,0,0,0-4.89,3,22.38,22.38,0,0,0-7.64,13.84C51.64,282.13,66.45,291.59,78,296Z"/><path class="cls-19" d="M63.69,290.94s9.79-20.76,1.62-31.36c0,0,6.32,2.48,11.25.92,0,0,12.59-3.42,18,6.37,0,0,2.46,6.07,5.35,8.41l0-5-4.32-9.88L83.77,250.16l-11-2.67L61.64,252l-7.2,7.12L51.13,275.6,58.07,287Z"/><path class="cls-3" d="M70.67,276a1.8,1.8,0,0,0,1.44-.83,10.84,10.84,0,0,0,.79-1.53,6.91,6.91,0,0,1,.66-1.07,3.85,3.85,0,0,1,.88-.88,3.58,3.58,0,0,1,3.13-.26,10,10,0,0,1,2.78,1.67"/><path class="cls-3" d="M85.29,269l.55-1.19a4.6,4.6,0,0,1,2-2.49,6.19,6.19,0,0,1,2.64-.2,2.6,2.6,0,0,0,2.37-.94"/><path class="cls-3" d="M77.89,267.67a7.39,7.39,0,0,0-8.58,3.25"/><path class="cls-3" d="M82.74,264.81a6.87,6.87,0,0,1,5.35-4"/><path class="cls-3" d="M86.75,280.42a24.35,24.35,0,0,0,1.86-2.19,1.63,1.63,0,0,0,.33-.6c.12-.55-.31-1.06-.71-1.45l-2.13-2.11"/><ellipse class="cls-18" cx="76.27" cy="272.9" rx="1.31" ry="1.66" transform="translate(-161.2 118.31) rotate(-41.32)"/><ellipse class="cls-18" cx="88.73" cy="266.76" rx="1.31" ry="1.66" transform="translate(-154.05 125.01) rotate(-41.32)"/><path class="cls-20" d="M90,287.32a6.25,6.25,0,0,1-3.17,1,14.76,14.76,0,0,1-3.33-.3,6.65,6.65,0,0,1,1.22-.85l3.37-2a15,15,0,0,1,3-1.47C93.64,282.86,90.82,286.77,90,287.32Z"/><path class="cls-19" d="M89.44,591.38v15.26H91.7l1.6-6.4,4,6.4h22.44s-13.52-2.13-20-15.26Z"/><path class="cls-19" d="M74.66,591.38v15.26H72.41l-1.61-6.4-4,6.4H44.36s13.52-2.13,20-15.26Z"/><path class="cls-21" d="M74.66,591.38H64.39s-21.17-135-19.47-166.3C46,405.31,58.06,395,58.06,395h48s12.06,10.33,13.13,30.1c1.69,31.32-19.47,166.3-19.47,166.3H89.44s-3.26-163-7.39-161.3C82.05,430.08,72.4,493.39,74.66,591.38Z"/><path class="cls-22" d="M58.29,395c7.94-10.3-7.16-63.56-7.16-63.56L13.65,397.22l-6.55-3.67c22.7-71.72,32.23-83.25,32.23-83.25,4.73-4.73,30.47-5.71,30.47-5.71a17.48,17.48,0,0,0,16.73,2.05c3.82-3,25.74-1.81,25.74-1.81l33.41-5.75,28.7-36.23,6.69,3.41-28.32,48.5-37.72,12s-14.64,38.67-9,68.16C106.05,395,79.83,408.87,58.29,395Z"/><path class="cls-22" d="M106.89,337.47s-6,12.45-20.12,5.64"/><path class="cls-22" d="M55.75,337.47s6,12.45,20.12,5.64"/><path class="cls-3" d="M174.38,262.86c-5.81-9,2.43-5.15,2.43-5.15s7.28-9.16,9.76-7.87c3.4,1.78-5.51,16.44-5.51,16.44Z"/><path class="cls-3" d="M13.65,397.22c5.45,9.24-2.63,5.05-2.63,5.05S3.39,411.15,1,409.76c-3.33-1.91,6.15-16.21,6.15-16.21Z"/></g><g id="Layer_16" data-name="Layer 16"><path class="cls-20" d="M546.12,426.28"/><path class="cls-23" d="M523.11,595.92H512.34l1.78-191.07,69.8,8.13L601.5,595.92H590.73l-40-162.65s-2.24-4-5,0L523.11,595.92H512.34"/><path class="cls-3" d="M643.37,302c2.24-1.1,4.8-1.28,7.28-1.59a61.86,61.86,0,0,0,11.58-2.6c1.25-.41,2.77-1.44,2.26-2.66a2.07,2.07,0,0,0-.88-.89c-2.28-1.41-5.2-1.3-7.81-.69s-5.12,1.68-7.78,2c-2.42.33-5.06.13-7.11,1.46a10.84,10.84,0,0,0-3.23,4.08,46.15,46.15,0,0,0-2.56,4.87C638.68,308.77,640.55,303.43,643.37,302Z"/><path class="cls-3" d="M437.34,272c-2.24-1.1-4.8-1.28-7.28-1.59a61.86,61.86,0,0,1-11.58-2.6c-1.25-.41-2.77-1.44-2.26-2.66a2.07,2.07,0,0,1,.88-.89c2.28-1.41,5.2-1.3,7.81-.69s5.12,1.68,7.78,2c2.42.33,5.06.13,7.11,1.46A10.84,10.84,0,0,1,443,271.2a46.15,46.15,0,0,1,2.56,4.87C442,278.77,440.16,273.43,437.34,272Z"/><path class="cls-21" d="M437.35,275l6.25-5.74,30.67,27.39c5.69,5.08,8.89,4.8,8.89,4.8,31-3.42,54.77,5.52,54.77,5.52,7.26,8.49,17.16,0,17.16,0,25.43-.38,30.75,4,30.75,4L618,324s9.28-6.67,17.8-25.67l8.52,6S631.27,346.66,612.11,342l-25.92-12.33v19.75L583.68,413c-41.1,12.42-70-8.13-70-8.13,5.16-23.78-2.5-84.79-2.5-84.79S470.83,316.54,465,309L437.35,275"/><polygon class="cls-19" points="590.08 595.92 590.08 605.48 595.25 605.48 595.25 603.12 598.48 605.48 622.6 605.48 622.6 605.48 601.16 595.92 590.08 595.92"/><polygon class="cls-19" points="523.43 595.92 523.43 605.48 518.26 605.48 518.26 603.12 515.02 605.48 490.91 605.48 490.91 605.48 512.35 595.92 523.43 595.92"/><path class="cls-3" d="M551.78,304.93a1.26,1.26,0,0,1,.17.68,1.21,1.21,0,0,1-.34.59A42.06,42.06,0,0,1,545.4,312c-1.34,1-3,2-4.61,1.51a5.72,5.72,0,0,1-2.44-1.94l-3-3.45c1.3-1,1.28-2.89,1.07-4.49a63.86,63.86,0,0,0-1.17-6.3A25.24,25.24,0,0,1,546.9,292c1.46-.25,2.23,0,2.34,1.47.1,1.34.11,2.66.31,4A27.62,27.62,0,0,0,551.78,304.93Z"/><path class="cls-3" d="M549.64,296.34c-3.87,2.51-8.63,4.58-13,3.1-3.23-1.09-5.56-3.94-7.16-6.94a56,56,0,0,1-3.84-10.22,24,24,0,0,1-1.35-6.78c0-3.31,1.33-6.45,2.65-9.48,2.18-5,4.67-10.28,9.37-13,2.66-1.56,5.77-2.12,8.82-2.63a22.72,22.72,0,0,1,6.82-.43,15.82,15.82,0,0,1,5.4,1.92,22.31,22.31,0,0,1,10.35,11.89C572.46,277.28,560,289.61,549.64,296.34Z"/><path class="cls-24" d="M549.17,266.86a5.73,5.73,0,0,1,4.85,5.21"/><path class="cls-24" d="M530.5,264.22a5.73,5.73,0,0,1,7.11-.26"/><path class="cls-3" d="M537.48,280a24.28,24.28,0,0,1-2.27-1.74,1.62,1.62,0,0,1-.44-.51,1.71,1.71,0,0,1,.39-1.57l1.64-2.5"/><ellipse class="cls-18" cx="546.52" cy="273.45" rx="1.66" ry="1.31" transform="translate(41.21 617.12) rotate(-60.8)"/><ellipse class="cls-18" cx="533.09" cy="270.07" rx="1.66" ry="1.31" transform="translate(110.09 692.2) rotate(-71.81)"/><path class="cls-19" d="M560.22,277.24s4.34.5-1.92,6.91c0,0,.85,5-2.16,7.35,0,0,7.52-1.54,16.13-15.92,0,0,4.08-13.41-4.65-21.65,0,0-11.11-11.06-26.38-6,0,0-16.25,5.74-15.58,21.18,0,0,5-11.45,12.24-15.09,0,0,11.4,6.67,17.12,5.31C555,259.3,560.1,262.29,560.22,277.24Z"/><path class="cls-20" d="M531.23,267.62a4.83,4.83,0,0,1,4.23,1.75"/><path class="cls-20" d="M545.56,270.95a6,6,0,0,1,3.47,2.23"/><path class="cls-20" d="M546.48,286.09a1.86,1.86,0,0,1-.13,1.92"/><path class="cls-20" d="M533.9,288.5c2.52,0,4.64-1.93,7.13-2.32a5.92,5.92,0,0,1,4,.8"/><g id="Layer_17" data-name="Layer 17"><path class="cls-25" d="M532.77,301.28l-1.19,4.6c10.33,17.72,25,1.09,25,1.09L555,301.28S542.38,307.33,532.77,301.28Z"/></g></g></svg>