<svg xmlns="http://www.w3.org/2000/svg" viewBox="0 0 870.85 758.88"><defs><style>.cls-1,.cls-21{fill:#0077bf;}.cls-1{opacity:0.08;}.cls-2,.cls-22,.cls-27,.cls-4{fill:none;}.cls-2{stroke:#0077bf;stroke-width:8px;}.cls-2,.cls-21,.cls-22,.cls-23,.cls-24,.cls-25,.cls-26,.cls-27,.cls-3,.cls-6{stroke-miterlimit:10;}.cls-24,.cls-3,.cls-9{fill:#fff;}.cls-21,.cls-22,.cls-23,.cls-24,.cls-25,.cls-26,.cls-3,.cls-6{stroke:#000;}.cls-21,.cls-22,.cls-23,.cls-25,.cls-26,.cls-27,.cls-3,.cls-6{stroke-width:0.5px;}.cls-5{fill:#ccc;}.cls-11,.cls-6,.cls-7,.cls-8{fill:#eb058c;}.cls-7{font-size:48px;}.cls-7,.cls-8{font-family:MyriadPro-Bold, Myriad Pro;font-weight:700;}.cls-8{font-size:24px;}.cls-11,.cls-9{font-size:16px;}.cls-11,.cls-15,.cls-9{font-family:MyriadPro-Regular, Myriad Pro;}.cls-10{letter-spacing:-0.01em;}.cls-12{letter-spacing:0em;}.cls-13{letter-spacing:0.02em;}.cls-14{letter-spacing:-0.01em;}.cls-15{font-size:28.98px;}.cls-16{letter-spacing:-0.02em;}.cls-17{letter-spacing:0em;}.cls-18{letter-spacing:0em;}.cls-19{letter-spacing:-0.01em;}.cls-20,.cls-25{fill:#1a1a1a;}.cls-23{fill:#f2f2f2;}.cls-26{fill:#ffe600;}.cls-27{stroke:#fff;}</style></defs><title>create-pricing</title><g id="Layer_20" data-name="Layer 20"><polygon class="cls-1" points="0.07 316.44 0.07 547.66 870.37 547.66 870.37 66.73 795.57 75.66 597.24 158.99 356.9 245.28 125.57 280.66 83.96 317.8 0.07 316.44"/></g><g id="Layer_13" data-name="Layer 13"><polyline class="cls-2" points="870.37 66.73 863.87 67.51 789.35 76.53 414.63 238.51 138.55 271.92 83.96 317.8 0.07 316.44"/></g><g id="Layer_9_copy_2" data-name="Layer 9 copy 2"><g id="Layer_5" data-name="Layer 5"><rect class="cls-3" x="113.83" y="59.79" width="214.25" height="274.99" rx="30" ry="30"/><path class="cls-4" d="M243,407a6.38,6.38,0,0,1,5.27-6.3"/><path class="cls-4" d="M177.89,445.66a32.74,32.74,0,0,0,2,13"/><rect class="cls-3" x="353.83" y="59.79" width="214.25" height="274.99" rx="30" ry="30"/><path class="cls-4" d="M483,407a6.38,6.38,0,0,1,5.27-6.3"/><path class="cls-4" d="M417.89,445.66a32.74,32.74,0,0,0,2,13"/><rect class="cls-3" x="593.83" y="59.79" width="214.25" height="274.99" rx="30" ry="30"/><path class="cls-4" d="M723,407a6.38,6.38,0,0,1,5.27-6.3"/><path class="cls-4" d="M657.89,445.66a32.74,32.74,0,0,0,2,13"/></g><rect class="cls-5" x="161.33" y="184.95" width="136.03" height="3.33"/><circle class="cls-5" cx="149.32" cy="186.28" r="4"/><rect class="cls-5" x="161.33" y="211.95" width="136.03" height="3.33"/><circle class="cls-5" cx="149.32" cy="213.28" r="4"/><rect class="cls-5" x="161.33" y="239.95" width="136.03" height="3.33"/><circle class="cls-5" cx="149.32" cy="241.28" r="4"/><rect class="cls-6" x="140.99" y="275.28" width="158.92" height="30" rx="5" ry="5"/><text class="cls-7" transform="translate(165 150.75)">$99</text><text class="cls-8" transform="translate(245 130.75)">.99</text><text class="cls-9" transform="translate(196 294.75)">Si<tspan class="cls-10" x="11.63" y="0">g</tspan><tspan x="20.48" y="0">n up</tspan></text><text class="cls-11" transform="translate(182 105.75)"><tspan class="cls-12">S</tspan><tspan x="7.84" y="0">ta</tspan><tspan class="cls-13" x="20.85" y="0">r</tspan><tspan class="cls-14" x="26.46" y="0">t</tspan><tspan x="31.66" y="0">er plan</tspan></text><rect class="cls-5" x="401.33" y="184.95" width="136.03" height="3.33"/><circle class="cls-5" cx="389.32" cy="186.28" r="4"/><rect class="cls-5" x="401.33" y="211.95" width="136.03" height="3.33"/><circle class="cls-5" cx="389.32" cy="213.28" r="4"/><rect class="cls-5" x="401.33" y="239.95" width="136.03" height="3.33"/><circle class="cls-5" cx="389.32" cy="241.28" r="4"/><rect class="cls-6" x="380.99" y="275.28" width="158.92" height="30" rx="5" ry="5"/><text class="cls-7" transform="translate(392 150.75)">$199</text><text class="cls-8" transform="translate(499 130.75)">.99</text><text class="cls-9" transform="translate(436 294.75)">Si<tspan class="cls-10" x="11.63" y="0">g</tspan><tspan x="20.48" y="0">n up</tspan></text><text class="cls-11" transform="translate(422 105.75)"><tspan class="cls-12">S</tspan><tspan x="7.84" y="0">ta</tspan><tspan class="cls-13" x="20.85" y="0">r</tspan><tspan class="cls-14" x="26.46" y="0">t</tspan><tspan x="31.66" y="0">er plan</tspan></text><rect class="cls-5" x="641.33" y="184.95" width="136.03" height="3.33"/><circle class="cls-5" cx="629.32" cy="186.28" r="4"/><rect class="cls-5" x="641.33" y="211.95" width="136.03" height="3.33"/><circle class="cls-5" cx="629.32" cy="213.28" r="4"/><rect class="cls-5" x="641.33" y="239.95" width="136.03" height="3.33"/><circle class="cls-5" cx="629.32" cy="241.28" r="4"/><rect class="cls-6" x="620.99" y="275.28" width="158.92" height="30" rx="5" ry="5"/><text class="cls-7" transform="translate(633 150.75)">$299</text><text class="cls-8" transform="translate(739 130.75)">.99</text><text class="cls-9" transform="translate(676 294.75)">Si<tspan class="cls-10" x="11.63" y="0">g</tspan><tspan x="20.48" y="0">n up</tspan></text><text class="cls-11" transform="translate(662 105.75)"><tspan class="cls-12">S</tspan><tspan x="7.84" y="0">ta</tspan><tspan class="cls-13" x="20.85" y="0">r</tspan><tspan class="cls-14" x="26.46" y="0">t</tspan><tspan x="31.66" y="0">er plan</tspan></text></g><g id="Layer_4" data-name="Layer 4"><text class="cls-15" transform="translate(372.33 24.26)"><tspan class="cls-16">P</tspan><tspan class="cls-17" x="14.96" y="0">r</tspan><tspan class="cls-18" x="24.55" y="0">icing &amp; </tspan><tspan class="cls-19" x="113.2" y="0">P</tspan><tspan x="128.48" y="0">lans</tspan></text></g><g id="Layer_12" data-name="Layer 12"><ellipse class="cls-5" cx="328.38" cy="744.3" rx="80.47" ry="14.58"/><ellipse class="cls-5" cx="578.2" cy="744.3" rx="65.29" ry="11.83"/></g><g id="Layer_24" data-name="Layer 24"><path class="cls-3" d="M456.59,405.1,452.92,399a11.91,11.91,0,0,1-3.18-12.28s1-10.72,1-11.22,2.34-1.17,2.84,0l1.34-15.38s1.34-2.34,3.18,0l1.17,31.26V396l2.67,5.52Z"/><path class="cls-3" d="M620.65,594.62c0,1.39-2.5,1.46-2.68.93s-5-11.45-5-11.45c-4.92-7.56-1.48-13.94-1.48-13.94l1.24-7.65,6.35,2-.52,6.67,1.71,4.91a34.77,34.77,0,0,1,2.56,25.69S619.55,602.84,620.65,594.62Z"/><polygon class="cls-20" points="575.62 735.69 575.62 746.27 569.9 746.27 569.9 743.66 566.32 746.27 539.65 746.27 539.65 746.27 563.36 735.69 575.62 735.69"/><polygon class="cls-20" points="608.62 719.5 611.78 729.6 606.31 731.31 605.53 728.82 602.89 732.38 577.44 740.33 577.44 740.33 596.91 723.16 608.62 719.5"/><polygon class="cls-21" points="576.16 681.37 595.7 724.71 609.34 719.92 580.95 633.64 576.16 681.37"/><polygon class="cls-21" points="591.27 551.51 577.26 735.41 561.04 736.92 562.52 646.55 554.04 628.11 535.97 551.51 591.27 551.51"/><line class="cls-22" x1="563.62" y1="565.43" x2="562.52" y2="646.55"/><path class="cls-23" d="M597.25,492.89s-3.89,31.25-6,58.62c0,0-31.71,9.86-55.31,0,0,0,9.59-67.38,3.69-85.82l-56.6-19-29-42,10.23-8,28.07,37.14L558.69,443l26,1.13s18.12-4.6,25,14.48l18.53,54.48L621,567.55H608.6l3.59-45.07.28-5.25-14.1-38.44Z"/><g id="Layer_16_copy" data-name="Layer 16 copy"><path class="cls-3" d="M579.65,442a1.3,1.3,0,0,1,.18.71,1.26,1.26,0,0,1-.35.61,43.66,43.66,0,0,1-6.45,6c-1.39,1.06-3.12,2.08-4.79,1.57a5.94,5.94,0,0,1-2.54-2l-3.12-3.59c1.35-1,1.33-3,1.11-4.66a66.28,66.28,0,0,0-1.21-6.54,26.2,26.2,0,0,1,12.1-5.52c1.52-.26,2.31,0,2.43,1.53.1,1.39.12,2.76.33,4.14A28.66,28.66,0,0,0,579.65,442Z"/><path class="cls-3" d="M577.43,433.09c-4,2.61-9,4.76-13.5,3.22-3.35-1.14-5.77-4.09-7.43-7.21a58.1,58.1,0,0,1-4-10.61,24.92,24.92,0,0,1-1.4-7c0-3.43,1.38-6.7,2.75-9.84,2.27-5.18,4.85-10.67,9.73-13.52,2.76-1.62,6-2.2,9.15-2.73a23.58,23.58,0,0,1,7.08-.44,16.42,16.42,0,0,1,5.6,2,23.15,23.15,0,0,1,10.74,12.34C601.11,413.31,588.19,426.1,577.43,433.09Z"/><path class="cls-24" d="M576.94,402.49a5.94,5.94,0,0,1,5,5.4"/><path class="cls-24" d="M557.57,399.76a5.94,5.94,0,0,1,7.38-.27"/><path class="cls-3" d="M563.81,417.09a25.2,25.2,0,0,1-2.36-1.81,1.68,1.68,0,0,1-.46-.53,1.78,1.78,0,0,1,.41-1.63l1.7-2.6"/><ellipse class="cls-25" cx="574.19" cy="409.33" rx="1.72" ry="1.36" transform="translate(-63.24 710.87) rotate(-60.8)"/><ellipse class="cls-25" cx="560.25" cy="405.82" rx="1.72" ry="1.36" transform="translate(-0.19 811.38) rotate(-71.81)"/><path class="cls-20" d="M588.41,413.26s4.51.52-2,7.17c0,0,.88,5.14-2.24,7.63,0,0,7.8-1.59,16.74-16.52,0,0,4.23-13.91-4.83-22.47,0,0-11.53-11.47-27.38-6.26,0,0-16.86,6-16.17,22,0,0,5.21-11.88,12.7-15.66,0,0,11.84,6.92,17.77,5.51C583,394.64,588.29,397.75,588.41,413.26Z"/><path class="cls-22" d="M558.32,403.28a5,5,0,0,1,4.39,1.82"/><path class="cls-22" d="M573.19,406.73a6.22,6.22,0,0,1,3.6,2.31"/><path class="cls-22" d="M566.09,423.48a16.36,16.36,0,0,0,4.93-1.54,8.55,8.55,0,0,1-4.8,4.46,5.26,5.26,0,0,1-2.72.38,2.7,2.7,0,0,1-2.14-1.57,7.54,7.54,0,0,1-.06-2.74A8.82,8.82,0,0,0,566.09,423.48Z"/><g id="Layer_17_copy" data-name="Layer 17 copy"><path class="cls-26" d="M559.92,438.22,558.69,443c10.72,18.39,26,1.13,26,1.13l-1.69-5.9S569.89,444.49,559.92,438.22Z"/></g></g></g><g id="Layer_22" data-name="Layer 22"><path class="cls-4" d="M589.72,212.68A73.59,73.59,0,0,0,599,240.63"/><path class="cls-27" d="M619.61,212.8a40.87,40.87,0,0,1,3.26,13c.27,3.29-.68,7.61-4,8"/><path class="cls-3" d="M367.47,622.58l-1.84,102.87v6.27l4.79,2.95,6.27,8.85h9.22l-14.75-16.59,14.75-106.19S373.37,616.31,367.47,622.58Z"/><path class="cls-3" d="M273.08,646.55l20.28-5.16,59.73,14.75s11.06,5.45,16.22-36.91l-21.75,1.52-.37,21.38s-41.94-1.84-52.72-6.54l-7.74,2.21-10.51,1.38Z"/><path class="cls-20" d="M385.91,640.56l15-58.9S409.23,559,399,543.5H352s-6.64,11.06-6.91,33.46v60.84S375.86,643,385.91,640.56Z"/><path class="cls-3" d="M413.16,536.91,423.84,545s23.93,8.16,26.89,15.26c0,0-.26,1.18-2.83-.61,0,0-6.58-3.81-9.15-4.07,0,0,.94,2.15-1.22,1.6L431.87,555a11.52,11.52,0,0,1-10.52-5.75l-11.68-6.2S406.63,538.56,413.16,536.91Z"/><polygon class="cls-6" points="413.93 547.92 418.9 537.41 393.19 521.1 393.19 536.03 413.93 547.92"/><path class="cls-25" d="M306.63,459.33s5.85,5.95,15.57-8.47c0,0,7.62-11.17,11.43-23.32,0,0,5.36-14.63,17.91-22.66,0,0,9.22-7.64,24.13-4.7,0,0,13.65,2.3,18.22,14.95,0,0,7.41,15.14-3.89,32.67,0,0-3.89,5.71-4.79,11.38L355,475l-36.61-2.43-3.14-3S309,468.79,306.63,459.33Z"/><path class="cls-25" d="M318.39,472.61s16.44,12.05,30.68,9.11l38.31-16.13-2.17-6.41"/><path class="cls-3" d="M364.2,457.56a1.28,1.28,0,0,0-.15.7,1.23,1.23,0,0,0,.36.59,42.73,42.73,0,0,0,6.48,5.73c1.39,1,3.11,1.95,4.73,1.4a5.81,5.81,0,0,0,2.42-2l2.94-3.6c-1.35-.93-1.39-2.89-1.22-4.53a64.87,64.87,0,0,1,1-6.43,25.64,25.64,0,0,0-12-5c-1.49-.21-2.26,0-2.33,1.57-.06,1.36,0,2.7-.2,4.06A28.05,28.05,0,0,1,364.2,457.56Z"/><path class="cls-3" d="M372.38,449.56c4.38,1.67,9.55,2.71,13.58.3,3-1.78,4.68-5.1,5.63-8.43a56.86,56.86,0,0,0,1.63-11,24.39,24.39,0,0,0-.1-7c-.69-3.29-2.69-6.12-4.66-8.85-3.23-4.49-6.83-9.21-12.09-10.94-3-1-6.19-.88-9.32-.73a23.07,23.07,0,0,0-6.86,1,16.07,16.07,0,0,0-5,3.06,22.66,22.66,0,0,0-7.74,14C345.66,435.51,360.65,445.09,372.38,449.56Z"/><path class="cls-20" d="M357.86,444.43s9.92-21,1.64-31.76c0,0,6.4,2.51,11.39.93,0,0,12.75-3.46,18.21,6.45,0,0,2.49,6.15,5.41,8.52l0-5.1-4.38-10-11.91-10.34L367,400.42,355.78,405l-7.29,7.21-3.35,16.72,7,11.57Z"/><path class="cls-3" d="M364.92,429.28a1.82,1.82,0,0,0,1.45-.84,11,11,0,0,0,.8-1.55,7,7,0,0,1,.67-1.08,3.9,3.9,0,0,1,.9-.89,3.62,3.62,0,0,1,3.17-.26,10.16,10.16,0,0,1,2.81,1.69"/><path class="cls-3" d="M379.73,422.25l.56-1.21a4.66,4.66,0,0,1,2-2.52,6.27,6.27,0,0,1,2.67-.2,2.64,2.64,0,0,0,2.4-1"/><path class="cls-3" d="M372.24,420.86a7.48,7.48,0,0,0-8.68,3.29"/><path class="cls-3" d="M377.14,418a7,7,0,0,1,5.42-4"/><path class="cls-3" d="M381.21,433.78a24.66,24.66,0,0,0,1.88-2.22,1.65,1.65,0,0,0,.33-.61c.13-.56-.32-1.07-.72-1.47l-2.16-2.14"/><ellipse class="cls-25" cx="370.6" cy="426.16" rx="1.33" ry="1.68" transform="translate(-189.11 350.82) rotate(-41.32)"/><ellipse class="cls-25" cx="383.22" cy="419.94" rx="1.33" ry="1.68" transform="translate(-181.87 357.6) rotate(-41.32)"/><path class="cls-22" d="M378.91,439.51a10.13,10.13,0,0,0,8.12-4.79,13.4,13.4,0,0,1,.19,2.46,4.56,4.56,0,0,1-1.19,3.41,3.65,3.65,0,0,1-3.44.57,10.34,10.34,0,0,1-3.14-1.8"/><path class="cls-3" d="M431.26,407.26l3.69-12.9s-1.11-25.26,4.42-30.6c0,0,1.2-.18.46,2.86,0,0-1.15,7.51-.46,10,0,0,1.66-1.66,1.94.55v6.08a11.52,11.52,0,0,1-1.52,11.89l-1.52,13.14S435.17,412.74,431.26,407.26Z"/><path class="cls-6" d="M406.18,551.51"/><line class="cls-6" x1="366.64" y1="472.7" x2="389.53" y2="536.6"/><path class="cls-6" d="M379.64,473.26l6.2-2.79,38-17.12,17.42-46.73L431.07,405l-18.8,39.27-50.88,15.21C347,463,349.22,473.26,349.22,473.26l8.57,49.22-12.72,28.76s28.67,10.51,61.11.28c0,0-15.12-26.45-10.78-47.84,0,0,7.28-13.64-5-23.5,0,0-6.79-5-6.86-8.68"/><path class="cls-20" d="M280.09,631.29l6.91,3.87s-1.94,3-12.44,2.63l-7.47,13.13,8.88-5.11s-.59-3.87,5.08-5.95l11.75-.69,4.28-2.67s-.13-5.07-8.42-4.52C288.66,632,286.45,633.37,280.09,631.29Z"/><path class="cls-20" d="M366.36,743.52l-.74-7.7s-5.16-5.12,0-9c0,0,1.84-.55,8.48,9.54,0,0,3.27,5.3,11.8,7.14l5.21,3.5-15.35-.83s-2.77-6.5-7.88-10c0,0-.65,3.83-1,7.28Z"/></g></svg>