<svg xmlns="http://www.w3.org/2000/svg" xmlns:xlink="http://www.w3.org/1999/xlink" viewBox="0 0 629.65 592.95"><defs><style>.cls-1,.cls-13{fill:none;}.cls-2,.cls-5{fill:#f2f2f2;}.cls-10,.cls-11,.cls-13,.cls-14,.cls-15,.cls-2,.cls-6,.cls-7,.cls-9{stroke:#000;stroke-miterlimit:10;}.cls-10,.cls-11,.cls-13,.cls-14,.cls-2,.cls-6,.cls-7,.cls-9{stroke-width:0.5px;}.cls-3{fill:#ccc;}.cls-4{clip-path:url(#clip-path);}.cls-16,.cls-17,.cls-18,.cls-19,.cls-20,.cls-6,.cls-8{fill:#1a1a1a;}.cls-15,.cls-7{fill:#fff;}.cls-9{fill:#0077bf;}.cls-10{fill:#ffe600;}.cls-11{fill:#eb058c;}.cls-12{clip-path:url(#clip-path-2);}.cls-14{fill:#c10072;}.cls-16{font-size:36.79px;}.cls-16,.cls-17,.cls-18,.cls-19,.cls-20{font-family:MyriadPro-Regular, Myriad Pro;}.cls-17{font-size:29.47px;}.cls-18{font-size:23.67px;}.cls-19{font-size:7.57px;}.cls-20{font-size:10.28px;}</style><clipPath id="clip-path" transform="translate(0 -0.01)"><rect class="cls-1" x="98.65" width="497.74" height="605.52"/></clipPath><clipPath id="clip-path-2" transform="translate(0 -0.01)"><circle class="cls-2" cx="419.31" cy="238.75" r="34.73" transform="translate(-62.31 268.17) rotate(-33.15)"/></clipPath></defs><title>develop</title><g id="Layer_12" data-name="Layer 12"><ellipse class="cls-3" cx="561.02" cy="570.43" rx="68.02" ry="12.33"/><ellipse class="cls-3" cx="78.15" cy="569.92" rx="78.15" ry="11.66"/></g><g id="Layer_15" data-name="Layer 15"><g class="cls-4"><path class="cls-5" d="M338.85,514.39l-23.24-34.24a13.49,13.49,0,1,1,22.3-15.2l37.48,55.18a13.56,13.56,0,0,1-.59,17.09l-44.23,51.15a13.65,13.65,0,0,1-19,1.36,13.81,13.81,0,0,1-1.29-19.23l25.36-29.22a239.88,239.88,0,0,1-25.19-2.12,225,225,0,0,1-39.8-8.87A244.43,244.43,0,0,1,109.7,224.47,243.37,243.37,0,0,1,276.34,61.85a13.55,13.55,0,0,1,16.74,9.22,13.35,13.35,0,0,1-9.4,16.73,220.36,220.36,0,0,0-92.49,53.63,213.43,213.43,0,0,0-55.53,90.95,217.21,217.21,0,0,0,142.81,272.2A245.88,245.88,0,0,0,314,512.44a237.24,237.24,0,0,0,24.83,2Zm70.38,16.68a13.52,13.52,0,0,1-16.74-9.4,13.7,13.7,0,0,1,9.4-16.74,217.27,217.27,0,0,0,5.21-416.54,212.33,212.33,0,0,0-35.54-7.86,207.78,207.78,0,0,0-24.6-2L370,112.82a13.3,13.3,0,0,1-3.5,18.62,13.5,13.5,0,0,1-18.8-3.48L310.23,72.6a13.28,13.28,0,0,1,.59-16.91L355,4.6a13.64,13.64,0,0,1,19-1.36,13.48,13.48,0,0,1,1.36,19L350,51.5a252.56,252.56,0,0,1,25.19,2.13A264.42,264.42,0,0,1,415,62.44a244.62,244.62,0,0,1,98.44,408.3,246.73,246.73,0,0,1-104.18,60.33Zm0,0" transform="translate(0 -0.01)"/></g></g><g id="Layer_17" data-name="Layer 17"><path class="cls-6" d="M348.74,518.93a2.93,2.93,0,0,1-2.93,2.93h0a2.94,2.94,0,0,1-2.93-2.93v-271A2.94,2.94,0,0,1,345.8,245h0a2.94,2.94,0,0,1,2.93,2.94Z" transform="translate(0 -0.01)"/><path class="cls-6" d="M242.81,547.42A2.94,2.94,0,0,1,239,549h0a2.93,2.93,0,0,1-1.62-3.82L339.23,294.1a2.93,2.93,0,0,1,3.82-1.62h0a2.93,2.93,0,0,1,1.61,3.83Z" transform="translate(0 -0.01)"/><path class="cls-6" d="M441,547.42A2.93,2.93,0,0,0,444.8,549h0a2.93,2.93,0,0,0,1.62-3.82L344.55,294.1a2.94,2.94,0,0,0-3.82-1.62h0a2.94,2.94,0,0,0-1.62,3.83Z" transform="translate(0 -0.01)"/><rect class="cls-7" x="203.88" y="184.45" width="281.28" height="217.05"/><rect class="cls-8" x="196.31" y="175.28" width="296.43" height="9.38"/><rect class="cls-8" x="196.31" y="397.82" width="296.43" height="9.38"/><polygon class="cls-9" points="388.85 376.41 388.85 305.19 386.85 305.19 386.85 374.65 386.85 378.66 390.87 378.66 460.37 378.66 460.37 376.41 388.85 376.41"/><rect class="cls-10" x="396.65" y="355.05" width="12.06" height="14.69"/><rect class="cls-10" x="412.71" y="343.48" width="12.05" height="26.26"/><rect class="cls-10" x="428.62" y="347.62" width="12.05" height="22.12"/><rect class="cls-10" x="444.54" y="328.88" width="12.05" height="40.85"/><polygon class="cls-9" points="458.4 306.48 447.94 307.53 450.62 310.47 429.95 328.22 419.1 323.08 396.61 341.73 396.61 348.43 420.04 328.99 431 334.19 453.87 314.03 456.71 317.15 458.4 306.48"/><rect class="cls-11" x="232.65" y="208.57" width="10.44" height="64.57"/><rect class="cls-11" x="247.65" y="228.14" width="10.43" height="45"/><rect class="cls-11" x="262.65" y="222.27" width="10.44" height="50.87"/><rect class="cls-11" x="277.65" y="204.01" width="10.44" height="69.13"/><rect class="cls-11" x="292.65" y="223.8" width="10.44" height="49.34"/><rect class="cls-11" x="307.65" y="238.75" width="10.44" height="34.39"/><rect class="cls-11" x="322.65" y="234.27" width="10.43" height="38.88"/><rect class="cls-11" x="337.65" y="220.31" width="10.44" height="52.83"/><path class="cls-10" d="M266.81,330.2l-20.06-17c-2.11,2.39-11.85,13.39-12.57,13.92l-.53-.67c.56-.43,7.92-8.68,12.73-14.13l.29-.32,20.06,17,11.4-12.65,6.73,5.7,17.95-17.21,23.74,17.42L346.61,300l.65.55-20.64,22.89-23.74-16.41-17.95,16.2-6.73-5.7Z" transform="translate(0 -0.01)"/><ellipse class="cls-10" cx="233.97" cy="326.74" rx="1.74" ry="1.69" transform="translate(-21.33 16.37) rotate(-3.84)"/><ellipse class="cls-10" cx="246.54" cy="312.82" rx="1.74" ry="1.69" transform="translate(-20.38 17.19) rotate(-3.84)"/><ellipse class="cls-10" cx="266.26" cy="329.27" rx="1.74" ry="1.69" transform="translate(-21.43 18.54) rotate(-3.84)"/><ellipse class="cls-10" cx="277.67" cy="316.62" rx="1.74" ry="1.69" transform="translate(-20.54 19.25) rotate(-3.83)"/><ellipse class="cls-10" cx="284.83" cy="321.64" rx="1.74" ry="1.69" transform="translate(-20.88 19.77) rotate(-3.84)"/><ellipse class="cls-10" cx="302.67" cy="305.54" rx="1.74" ry="1.69" transform="translate(-19.74 20.9) rotate(-3.83)"/><ellipse class="cls-10" cx="346.53" cy="300.16" rx="1.74" ry="1.69" transform="translate(-19.31 23.85) rotate(-3.84)"/><ellipse class="cls-10" cx="326.27" cy="322.25" rx="1.74" ry="1.69" transform="translate(-20.83 22.54) rotate(-3.84)"/><polygon class="cls-9" points="233.17 360.67 249.85 356.04 259.78 351.47 276.66 360.42 286.27 345.94 301.67 347.57 311.67 333.97 327.92 337.62 348.16 327.42 348.16 375.51 233.49 375.51 233.17 360.67"/></g><g id="Layer_18" data-name="Layer 18"><circle class="cls-5" cx="419.31" cy="238.75" r="34.73" transform="translate(-62.31 268.16) rotate(-33.15)"/><g class="cls-12"><circle class="cls-11" cx="419.31" cy="238.75" r="34.73" transform="translate(-62.31 268.16) rotate(-33.15)"/><polygon class="cls-2" points="419.51 238.25 408.53 290.56 445.54 284.83 419.51 238.25"/><polygon class="cls-2" points="419.31 238.74 393.38 199.04 422.48 191.54 419.31 238.74"/><polygon class="cls-2" points="419.31 238.74 472.31 225.77 422.48 191.54 419.31 238.74"/><polygon class="cls-2" points="445.54 284.83 419.51 238.25 468.41 253.05 445.54 284.83"/><polygon class="cls-2" points="467.66 253.37 472.31 225.77 419.31 238.74 467.66 253.37"/><polygon class="cls-7" points="419.31 238.74 408.53 290.56 445.54 284.83 419.31 238.74"/><polygon class="cls-9" points="422.48 191.54 393.38 199.04 419.31 238.74 472.31 225.77 422.48 191.54"/><polygon class="cls-10" points="472.31 225.77 419.31 238.74 445.54 284.83 468.41 253.05 467.75 252.86 472.31 225.77"/></g><circle class="cls-13" cx="419.31" cy="238.75" r="34.73" transform="translate(-62.31 268.16) rotate(-33.15)"/></g><g id="Layer_16" data-name="Layer 16"><g id="Layer_19" data-name="Layer 19"><polygon class="cls-9" points="427.81 235.06 484.05 292.93 485.21 291.75 427.81 235.06"/></g><path class="cls-6" d="M619,328.69s-4.66,4.73-12.39-6.74a80.82,80.82,0,0,1-9.1-18.56s-4.27-11.64-14.26-18c0,0-7.34-6.08-19.2-3.74,0,0-10.86,1.83-14.5,11.89,0,0-5.9,12.05,3.1,26a26.45,26.45,0,0,1,3.81,9.06l24,12.62,29.13-1.93,2.5-2.42S617.13,336.21,619,328.69Z" transform="translate(0 -0.01)"/><path class="cls-6" d="M609.68,339.25s-13.08,9.59-24.42,7.25l-30.49-12.84,1.73-5.1" transform="translate(0 -0.01)"/><path class="cls-7" d="M573.22,327.28a1,1,0,0,1,.12.55,1,1,0,0,1-.29.47,34,34,0,0,1-5.16,4.56c-1.11.79-2.47,1.55-3.76,1.11a4.63,4.63,0,0,1-1.93-1.62l-2.34-2.86c1.08-.74,1.1-2.3,1-3.6a51.62,51.62,0,0,0-.79-5.12,20.41,20.41,0,0,1,9.55-4c1.19-.17,1.8,0,1.85,1.25s0,2.15.16,3.23A22.33,22.33,0,0,0,573.22,327.28Z" transform="translate(0 -0.01)"/><path class="cls-7" d="M566.71,320.91c-3.49,1.33-7.6,2.16-10.81.24-2.36-1.41-3.73-4.06-4.48-6.7a45.25,45.25,0,0,1-1.3-8.73,19.41,19.41,0,0,1,.08-5.59c.55-2.62,2.14-4.87,3.71-7,2.57-3.57,5.44-7.33,9.62-8.71a20.67,20.67,0,0,1,7.42-.58,18.36,18.36,0,0,1,5.46.82,12.79,12.79,0,0,1,3.94,2.43,18,18,0,0,1,6.16,11.15C588,309.73,576,317.36,566.71,320.91Z" transform="translate(0 -0.01)"/><path class="cls-8" d="M578.27,316.83s-7.89-16.73-1.3-25.27c0,0-5.09,2-9.07.74,0,0-10.14-2.76-14.49,5.13,0,0-2,4.89-4.31,6.78l0-4.06,3.48-8,9.48-8.23,8.89-2.15,8.94,3.61,5.8,5.74,2.67,13.3-5.59,9.21Z" transform="translate(0 -0.01)"/><path class="cls-7" d="M572.64,304.77a1.45,1.45,0,0,1-1.16-.67,8.74,8.74,0,0,1-.64-1.24,5.57,5.57,0,0,0-.54-.86,3.1,3.1,0,0,0-.71-.71,2.88,2.88,0,0,0-2.52-.21,8.09,8.09,0,0,0-2.24,1.34" transform="translate(0 -0.01)"/><path class="cls-7" d="M560.86,299.18l-.45-1a3.71,3.71,0,0,0-1.6-2,5,5,0,0,0-2.13-.16,2.1,2.1,0,0,1-1.91-.76" transform="translate(0 -0.01)"/><path class="cls-7" d="M566.82,298.07a6,6,0,0,1,6.91,2.62" transform="translate(0 -0.01)"/><path class="cls-7" d="M562.92,295.77a5.54,5.54,0,0,0-4.31-3.22" transform="translate(0 -0.01)"/><path class="cls-7" d="M559.69,308.35a19.63,19.63,0,0,1-1.5-1.76,1.31,1.31,0,0,1-.26-.48c-.1-.44.25-.85.58-1.17l1.72-1.7" transform="translate(0 -0.01)"/><path class="cls-7" d="M559.08,315.67a6.83,6.83,0,0,0-1.6,0,3.47,3.47,0,0,1-.56.11c-.72,0-1.24-.75-1.3-1.47a19.75,19.75,0,0,1,.21-2.16c0-.61-.11-1.23,0-1.83a.78.78,0,0,1,.19-.46c.24-.23.63-.15.94,0a16.39,16.39,0,0,1,5.48,4.11.47.47,0,0,1,.14.21c.11.44-.94,1-1.28,1.18A5.33,5.33,0,0,1,559.08,315.67Z" transform="translate(0 -0.01)"/><path class="cls-14" d="M555.34,315.71a2.73,2.73,0,0,0,1.91.94,6.24,6.24,0,0,0,2.16-.27c.54-.15,1.08-.32,1.61-.5a4.55,4.55,0,0,0,1.18-.54,1.64,1.64,0,0,0,.71-1,9.83,9.83,0,0,1-2.65.72,6.15,6.15,0,0,1-3.58-.51c-.39-.2-.86-.72-1.32-.45S555,315.3,555.34,315.71Z" transform="translate(0 -0.01)"/><path class="cls-14" d="M555.89,308.91a6.36,6.36,0,0,1,4.14,1.67,18.91,18.91,0,0,1,2.94,3.47c.05.08.11.18.06.25s-.16.06-.25,0c-1.39-.36-2.45-1.46-3.61-2.3a9.57,9.57,0,0,0-3.12-1.49C555.1,310.3,554.43,308.94,555.89,308.91Z" transform="translate(0 -0.01)"/><ellipse class="cls-6" cx="568.13" cy="302.29" rx="1.34" ry="1.06" transform="translate(-34.03 529.35) rotate(-48.68)"/><ellipse class="cls-6" cx="558.09" cy="297.34" rx="1.34" ry="1.06" transform="translate(-33.72 520.12) rotate(-48.68)"/><path class="cls-7" d="M571.95,559.48,586.7,453.29s-12.54-4.42-18.44,1.84L566.42,558v6.27l4.79,2.95" transform="translate(0 -0.01)"/><path class="cls-7" d="M551.1,559.66l-8.22-106.89s12.78-3.65,18.29,3l-4.46,102.79-.38,6.26-5,2.65" transform="translate(0 -0.01)"/><path class="cls-8" d="M557.51,559v12.3H555.7l-1.29-5.16-3.23,5.16H533.09A23.54,23.54,0,0,0,549.23,559Z" transform="translate(0 -0.01)"/><path class="cls-8" d="M565.43,559v12.3h1.81l1.3-5.16,3.23,5.16h18.08A23.54,23.54,0,0,1,573.7,559Z" transform="translate(0 -0.01)"/><path class="cls-8" d="M533.54,423.23a32.53,32.53,0,0,1,10.59-22.56h38.68a32.53,32.53,0,0,1,10.59,22.56l-10,61.77H543.45Z" transform="translate(0 -0.01)"/><path class="cls-2" d="M563.47,429" transform="translate(0 -0.01)"/><path class="cls-11" d="M582.62,400.68c-6.4-8.3,5.77-51.23,5.77-51.23l30.21,53,5.28-3c-18.3-57.8-26-67.09-26-67.09-3.81-3.81-24.55-4.6-24.55-4.6a14.09,14.09,0,0,1-13.48,1.66C556.78,327,539.11,328,539.11,328l-26.92-4.64-23.13-29.2L483.67,297,506.49,336l30.4,9.7s11.8,31.17,7.23,54.94C544.13,400.68,565.26,411.87,582.62,400.68Z" transform="translate(0 -0.01)"/><path class="cls-11" d="M543.45,354.33s4.8,10,16.22,4.54" transform="translate(0 -0.01)"/><path class="cls-11" d="M584.67,354.33s-4.8,10-16.22,4.54" transform="translate(0 -0.01)"/><path class="cls-7" d="M483.67,297l5.39-2.75c4.68-7.27-2-4.15-2-4.15s-3.52-3.69-6.93-3.87C480.17,286.18,474.24,286.32,483.67,297Z" transform="translate(0 -0.01)"/><path class="cls-7" d="M618.59,402.49c-4.39,7.44,2.12,4.07,2.12,4.07s6.15,7.15,8.11,6c2.68-1.54-5-13.07-5-13.07Z" transform="translate(0 -0.01)"/><g id="Layer_28" data-name="Layer 28"><path class="cls-9" d="M179.7,277.31l15.69,12.41a2,2,0,0,1,.33,2.81l-1.49,1.88a2,2,0,0,1-2.81.33l-15.69-12.41a2,2,0,0,1-.33-2.81l1.49-1.88a2,2,0,0,1,2.81-.33Zm0,0" transform="translate(0 -0.01)"/><path class="cls-9" d="M183.62,305.91,167.3,293a2,2,0,0,1-.33-2.81l8.93-11.3L193.79,293a2,2,0,0,1,.33,2.81l-7.69,9.73a2,2,0,0,1-2.81.33Zm-6.46-26-1.26-1,1-1.26a1.61,1.61,0,0,0,.26,2.25Zm0,0" transform="translate(0 -0.01)"/><path class="cls-10" d="M188.29,303.22l-2.51-2a2.8,2.8,0,0,1,3.47-4.39l2.51,2a.8.8,0,0,1,.13,1.12l-2.48,3.14a.8.8,0,0,1-1.12.13Zm0,0" transform="translate(0 -0.01)"/><path class="cls-11" d="M188.51,297.79a1.6,1.6,0,1,1-2.25.26,1.6,1.6,0,0,1,2.25-.26Zm0,0" transform="translate(0 -0.01)"/><path class="cls-9" d="M193.79,293l-16.63-13.15a1.61,1.61,0,0,1-.26-2.25l-.5.63a1.61,1.61,0,0,0,.26,2.25l16.63,13.15a2,2,0,0,1,.33,2.81l.5-.63a2,2,0,0,0-.33-2.81Zm0,0" transform="translate(0 -0.01)"/><path class="cls-9" d="M184.11,305.28l-16.32-12.9a2,2,0,0,1-.33-2.81l-.5.63a2,2,0,0,0,.33,2.81l16.32,12.9a2,2,0,0,0,2.81-.33l.5-.63a2,2,0,0,1-2.81.33Zm0,0" transform="translate(0 -0.01)"/></g><path class="cls-2" d="M83.32,427" transform="translate(0 -0.01)"/><path class="cls-8" d="M104.89,564.09h9l-1.48-154.46L54.26,416.2,39.63,564.09h9L81.89,432.6s1.86-3.23,4.2,0l18.8,131.49h9" transform="translate(0 -0.01)"/><path class="cls-7" d="M175.72,304.69l-23,27.43c-4.83,6.12-38.32,9-38.32,9s-6.35,49.32-2.07,68.54c0,0-24,16.61-58.11,6.57l-2.09-51.38-11.65,11.1L28.78,419.13l-6-.46L26,370.19l26.48-36.45s4.42-3.53,25.52-3.22c0,0,8.22,6.86,14.24,0a110.59,110.59,0,0,1,45.46-4.46s2.66.23,7.38-3.88L170.53,300l5.18,4.64" transform="translate(0 -0.01)"/><path class="cls-7" d="M28.78,419.13c7.12,4.91-.21,4.59-.21,4.59s-2.58,9.08-4.82,8.89c-3.08-.27-1-13.94-1-13.94Z" transform="translate(0 -0.01)"/><path class="cls-7" d="M171.08,300.41c-2.94-8.07,2-3,2-3s5.54-4.52,7-2.91c2,2.22-5,10.22-5,10.22Z" transform="translate(0 -0.01)"/><polygon class="cls-8" points="48.59 564.08 48.59 571.81 44.41 571.81 44.41 569.91 41.79 571.81 22.3 571.81 22.3 571.81 39.63 564.08 48.59 564.08"/><polygon class="cls-8" points="104.89 564.08 104.89 571.81 109.07 571.81 109.07 569.91 111.69 571.81 131.18 571.81 131.18 571.81 113.85 564.08 104.89 564.08"/><path class="cls-7" d="M90.78,325l7.69,7.72L86.8,334.09s-6-6.66-.72-8.46Z" transform="translate(0 -0.01)"/><polygon class="cls-7" points="83.73 334.32 71.74 334.98 75.89 326.99 82.85 326.06 83.73 334.32"/><path class="cls-9" d="M86.82,333.09l6.37,51-8.65,10.6-7.16-11.55,7.1-49.84S85.49,330.78,86.82,333.09Z" transform="translate(0 -0.01)"/><path class="cls-7" d="M76.83,327.83a1,1,0,0,0-.12.55,1,1,0,0,0,.29.47,34,34,0,0,0,5.16,4.56c1.11.79,2.47,1.55,3.76,1.11a4.63,4.63,0,0,0,1.93-1.62L90.19,330c-1.08-.74-1.1-2.3-1-3.6a51.62,51.62,0,0,1,.79-5.12,20.41,20.41,0,0,0-9.55-4c-1.19-.17-1.8,0-1.85,1.25s0,2.15-.16,3.23A22.33,22.33,0,0,1,76.83,327.83Z" transform="translate(0 -0.01)"/><path class="cls-7" d="M83.34,321.46c3.49,1.33,7.6,2.16,10.81.24,2.36-1.41,3.73-4.06,4.48-6.7a45.25,45.25,0,0,0,1.3-8.73,19.41,19.41,0,0,0-.08-5.59c-.55-2.62-2.14-4.87-3.71-7-2.57-3.57-5.44-7.33-9.62-8.71a20.67,20.67,0,0,0-7.42-.58,18.36,18.36,0,0,0-5.46.82,12.79,12.79,0,0,0-3.94,2.43,18,18,0,0,0-6.16,11.15C62.07,310.28,74,317.91,83.34,321.46Z" transform="translate(0 -0.01)"/><path class="cls-15" d="M78.71,298.08A4.63,4.63,0,0,0,75.77,303" transform="translate(0 -0.01)"/><path class="cls-15" d="M93,292.83a4.63,4.63,0,0,0-5.66,1" transform="translate(0 -0.01)"/><path class="cls-7" d="M90.34,307.25a19.63,19.63,0,0,0,1.5-1.76,1.31,1.31,0,0,0,.26-.48c.1-.44-.25-.85-.58-1.17l-1.72-1.7" transform="translate(0 -0.01)"/><ellipse class="cls-6" cx="81.92" cy="302.84" rx="1.06" ry="1.34" transform="translate(-179.57 129.49) rotate(-41.32)"/><ellipse class="cls-6" cx="91.97" cy="297.89" rx="1.06" ry="1.34" transform="translate(-173.8 134.89) rotate(-41.32)"/><path class="cls-8" d="M71.74,308.17s-3.35,1.14,2.69,5.13c0,0,.17,4.06,3,5.44,0,0-6.2.06-15.45-9.84,0,0-5.5-9.9,0-17.9,0,0,6.91-10.62,19.83-9.25,0,0,13.82,1.77,15.91,14.1,0,0-5.91-8.2-12.24-9.85,0,0-7.88,7.21-12.63,7.1C72.8,293.1,69.3,296.33,71.74,308.17Z" transform="translate(0 -0.01)"/><path class="cls-13" d="M95.36,309.55s-1.75,4.21-7.45,3.23C87.91,312.78,93.2,317.62,95.36,309.55Z" transform="translate(0 -0.01)"/><path class="cls-13" d="M85.34,311.16A1.9,1.9,0,0,0,85.6,313" transform="translate(0 -0.01)"/><path class="cls-13" d="M91.84,296.07a3.91,3.91,0,0,0-1.92,3.16" transform="translate(0 -0.01)"/><path class="cls-13" d="M81.4,301a4.85,4.85,0,0,0-1.2,3.11" transform="translate(0 -0.01)"/></g><g id="Layer_25" data-name="Layer 25"><circle class="cls-10" cx="479.91" cy="155.86" r="30.87" transform="translate(214.58 585.05) rotate(-76.27)"/><path class="cls-7" d="M488.72,119.82a37.11,37.11,0,1,1-44.85,27.24A37.11,37.11,0,0,1,488.72,119.82Zm-16.14,66a30.87,30.87,0,1,0-22.66-37.32A30.87,30.87,0,0,0,472.58,185.86Z" transform="translate(0 -0.01)"/><text class="cls-16" transform="translate(472.07 166.77)">$</text></g><g id="Layer_26" data-name="Layer 26"><circle class="cls-10" cx="352.45" cy="104.58" r="24.73" transform="translate(94.79 366.82) rotate(-62.03)"/><path class="cls-7" d="M366.39,78.33A29.72,29.72,0,1,1,326.2,90.64,29.72,29.72,0,0,1,366.39,78.33Zm-25.54,48.09A24.73,24.73,0,1,0,330.61,93,24.73,24.73,0,0,0,340.85,126.43Z" transform="translate(0 -0.01)"/><text class="cls-17" transform="matrix(0.97, 0.25, -0.25, 0.97, 344.19, 111.49)">$</text></g><g id="Layer_27_copy" data-name="Layer 27 copy"><circle class="cls-10" cx="252.67" cy="166.29" r="19.86" transform="translate(-7.2 11.48) rotate(-2.57)"/><path class="cls-7" d="M251.6,142.45a23.87,23.87,0,1,1-22.77,24.91A23.87,23.87,0,0,1,251.6,142.45Zm2,43.68a19.86,19.86,0,1,0-20.73-18.95A19.86,19.86,0,0,0,253.56,186.13Z" transform="translate(0 -0.01)"/><text class="cls-18" transform="translate(249.84 174.44) rotate(-16.3)">$</text><circle class="cls-10" cx="190.96" cy="279.51" r="6.35" transform="translate(-12.33 8.83) rotate(-2.57)"/><path class="cls-7" d="M190.62,271.88a7.64,7.64,0,1,1-7.29,8A7.64,7.64,0,0,1,190.62,271.88Zm.63,14a6.35,6.35,0,1,0-6.63-6.06A6.35,6.35,0,0,0,191.25,285.86Z" transform="translate(0 -0.01)"/><text class="cls-19" transform="translate(190.08 282.12) rotate(-16.3)">$</text><circle class="cls-10" cx="199.53" cy="233.66" r="8.62" transform="translate(-10.27 9.17) rotate(-2.57)"/><path class="cls-7" d="M199.07,223.3a10.37,10.37,0,1,1-9.89,10.82A10.37,10.37,0,0,1,199.07,223.3Zm.85,19a8.62,8.62,0,1,0-9-8.23A8.62,8.62,0,0,0,199.92,242.27Z" transform="translate(0 -0.01)"/><text class="cls-20" transform="translate(198.32 237.19) rotate(-16.3)">$</text></g></svg>