<?xml version="1.0" encoding="utf-8"?>
<!-- Generator: Adobe Illustrator 21.0.2, SVG Export Plug-In . SVG Version: 6.00 Build 0)  -->
<svg version="1.1" id="Layer_1" xmlns="http://www.w3.org/2000/svg" xmlns:xlink="http://www.w3.org/1999/xlink" x="0px" y="0px"
	 viewBox="0 0 629.7 593" style="enable-background:new 0 0 629.7 593;" xml:space="preserve">
<style type="text/css">
	.st0{fill:#CCCCCC;}
	.st1{clip-path:url(#SVGID_2_);}
	.st2{fill:#F2F2F2;}
	.st3{fill:#1A1A1A;stroke:#000000;stroke-width:0.5;stroke-miterlimit:10;}
	.st4{fill:#FFFFFF;stroke:#000000;stroke-width:0.5;stroke-miterlimit:10;}
	.st5{fill:#1A1A1A;}
	.st6{fill:#0077BF;stroke:#000000;stroke-width:0.5;stroke-miterlimit:10;}
	.st7{fill:#FFE600;stroke:#000000;stroke-width:0.5;stroke-miterlimit:10;}
	.st8{fill:#EB058C;stroke:#000000;stroke-width:0.5;stroke-miterlimit:10;}
	.st9{clip-path:url(#SVGID_4_);}
	.st10{fill:#F2F2F2;stroke:#000000;stroke-width:0.5;stroke-miterlimit:10;}
	.st11{fill:none;stroke:#000000;stroke-width:0.5;stroke-miterlimit:10;}
	.st12{fill:#C10072;stroke:#000000;stroke-width:0.5;stroke-miterlimit:10;}
	.st13{fill:#FFFFFF;stroke:#000000;stroke-miterlimit:10;}
	.st14{enable-background:new    ;}
</style>
<title>develop</title>
<g id="Layer_12">
	<ellipse class="st0" cx="561" cy="570.4" rx="68" ry="12.3"/>
	<ellipse class="st0" cx="78.2" cy="569.9" rx="78.2" ry="11.7"/>
</g>
<g id="Layer_15">
	<g>
		<defs>
			<rect id="SVGID_1_" x="98.7" y="0" width="497.7" height="605.5"/>
		</defs>
		<clipPath id="SVGID_2_">
			<use xlink:href="#SVGID_1_"  style="overflow:visible;"/>
		</clipPath>
		<g class="st1">
			<path class="st2" d="M338.9,514.4l-23.2-34.2c-4.2-6.2-2.6-14.6,3.5-18.8s14.6-2.6,18.8,3.5l0,0l37.5,55.2
				c3.9,5.1,3.6,12.3-0.6,17.1l-44.2,51.2c-4.9,5.5-13.3,6.1-19,1.4c-5.6-5-6.1-13.5-1.3-19.2l25.4-29.2c-8.4-0.3-16.8-1-25.2-2.1
				c-13.5-1.7-26.8-4.7-39.8-8.9c-128.9-40-200.9-176.9-161-305.8c24.3-79,87.1-140.2,166.6-162.6c7.2-2.1,14.6,2.1,16.7,9.2
				c2.1,7.1-1.9,14.5-9,16.6c-0.1,0-0.3,0.1-0.4,0.1c-34.8,10-66.5,28.4-92.5,53.6c-25.9,25.1-45,56.4-55.5,90.9
				c-35.8,114.5,28,236.3,142.5,272.1c0.1,0,0.2,0.1,0.3,0.1c11.6,3.5,23.5,6.1,35.5,7.9C322.2,513.5,330.5,514.2,338.9,514.4
				L338.9,514.4z M409.2,531.1c-7.2,2-14.7-2.1-16.7-9.3c0,0,0-0.1,0-0.1c-2-7.2,2.2-14.7,9.4-16.7
				c115.5-32.7,182.5-152.8,149.8-268.3c-20-70.7-74.4-126.5-144.6-148.3c-11.6-3.6-23.5-6.3-35.5-7.9c-8.2-1.2-16.4-1.8-24.6-2
				l23,34.3c4.2,6,2.7,14.3-3.3,18.5c-0.1,0-0.1,0.1-0.2,0.1c-6.1,4.2-14.5,2.7-18.8-3.4c0,0,0,0,0,0l-37.5-55.4
				c-3.9-5-3.6-12.1,0.6-16.9L355,4.6c4.9-5.5,13.3-6.1,19-1.4c5.6,4.9,6.2,13.4,1.4,19L350,51.5c8.4,0.3,16.8,1,25.2,2.1
				c13.5,1.9,26.8,4.9,39.8,8.8c129,40.2,201,177.3,160.8,306.3c-12,38.6-33.5,73.7-62.4,102C484.2,499.1,448.4,519.9,409.2,531.1
				L409.2,531.1z"/>
		</g>
	</g>
</g>
<g id="Layer_17">
	<path class="st3" d="M348.7,518.9c0,1.6-1.3,2.9-2.9,2.9l0,0c-1.6,0-2.9-1.3-2.9-2.9v-271c0-1.6,1.3-2.9,2.9-2.9l0,0
		c1.6,0,2.9,1.3,2.9,2.9L348.7,518.9z"/>
	<path class="st3" d="M242.8,547.4c-0.6,1.5-2.3,2.2-3.8,1.6l0,0c-1.5-0.6-2.2-2.3-1.6-3.8c0,0,0,0,0,0l101.9-251.1
		c0.6-1.5,2.3-2.2,3.8-1.6c0,0,0,0,0,0l0,0c1.5,0.6,2.2,2.3,1.6,3.8c0,0,0,0,0,0L242.8,547.4z"/>
	<path class="st3" d="M441,547.4c0.6,1.5,2.3,2.2,3.8,1.6l0,0c1.5-0.6,2.2-2.3,1.6-3.8c0,0,0,0,0,0L344.5,294.1
		c-0.6-1.5-2.3-2.2-3.8-1.6l0,0c-1.5,0.6-2.2,2.3-1.6,3.8c0,0,0,0,0,0L441,547.4z"/>
	<rect x="203.9" y="184.4" class="st4" width="281.3" height="217.1"/>
	<rect x="196.3" y="175.3" class="st5" width="296.4" height="9.4"/>
	<rect x="196.3" y="397.8" class="st5" width="296.4" height="9.4"/>
	<polygon class="st6" points="388.9,376.4 388.9,305.2 386.9,305.2 386.9,374.6 386.9,378.7 390.9,378.7 460.4,378.7 460.4,376.4 	
		"/>
	<rect x="396.6" y="355" class="st7" width="12.1" height="14.7"/>
	<rect x="412.7" y="343.5" class="st7" width="12" height="26.3"/>
	<rect x="428.6" y="347.6" class="st7" width="12" height="22.1"/>
	<rect x="444.5" y="328.9" class="st7" width="12" height="40.9"/>
	<polygon class="st6" points="458.4,306.5 447.9,307.5 450.6,310.5 430,328.2 419.1,323.1 396.6,341.7 396.6,348.4 420,329 
		431,334.2 453.9,314 456.7,317.1 	"/>
	<rect x="232.6" y="208.6" class="st8" width="10.4" height="64.6"/>
	<rect x="247.6" y="228.1" class="st8" width="10.4" height="45"/>
	<rect x="262.6" y="222.3" class="st8" width="10.4" height="50.9"/>
	<rect x="277.6" y="204" class="st8" width="10.4" height="69.1"/>
	<rect x="292.6" y="223.8" class="st8" width="10.4" height="49.3"/>
	<rect x="307.6" y="238.8" class="st8" width="10.4" height="34.4"/>
	<rect x="322.6" y="234.3" class="st8" width="10.4" height="38.9"/>
	<rect x="337.6" y="220.3" class="st8" width="10.4" height="52.8"/>
	<path class="st7" d="M266.8,330.2l-20.1-17c-2.1,2.4-11.9,13.4-12.6,13.9l-0.5-0.7c0.6-0.4,7.9-8.7,12.7-14.1l0.3-0.3l20.1,17
		l11.4-12.6l6.7,5.7l18-17.2l23.7,17.4l20.1-22.3l0.6,0.5l-20.6,22.9L302.9,307l-18,16.2l-6.7-5.7L266.8,330.2z"/>
	
		<ellipse transform="matrix(0.9978 -6.697048e-02 6.697048e-02 0.9978 -21.3544 16.4043)" class="st7" cx="234" cy="326.7" rx="1.7" ry="1.7"/>
	
		<ellipse transform="matrix(0.9978 -6.697048e-02 6.697048e-02 0.9978 -20.3946 17.2142)" class="st7" cx="246.6" cy="312.8" rx="1.7" ry="1.7"/>
	
		<ellipse transform="matrix(0.9978 -6.697048e-02 6.697048e-02 0.9978 -21.4515 18.5723)" class="st7" cx="266.3" cy="329.2" rx="1.7" ry="1.7"/>
	
		<ellipse transform="matrix(0.9978 -6.679634e-02 6.679634e-02 0.9978 -20.5286 19.2537)" class="st7" cx="277.7" cy="316.6" rx="1.7" ry="1.7"/>
	
		<ellipse transform="matrix(0.9978 -6.697048e-02 6.697048e-02 0.9978 -20.8991 19.7986)" class="st7" cx="284.9" cy="321.6" rx="1.7" ry="1.7"/>
	
		<ellipse transform="matrix(0.9978 -6.679634e-02 6.679634e-02 0.9978 -19.733 20.8992)" class="st7" cx="302.7" cy="305.5" rx="1.7" ry="1.7"/>
	
		<ellipse transform="matrix(0.9978 -6.697048e-02 6.697048e-02 0.9978 -19.3218 23.882)" class="st7" cx="346.5" cy="300.1" rx="1.7" ry="1.7"/>
	
		<ellipse transform="matrix(0.9978 -6.697048e-02 6.697048e-02 0.9978 -20.8464 22.5751)" class="st7" cx="326.3" cy="322.2" rx="1.7" ry="1.7"/>
	<polygon class="st6" points="233.2,360.7 249.9,356 259.8,351.5 276.7,360.4 286.3,345.9 301.7,347.6 311.7,334 327.9,337.6 
		348.2,327.4 348.2,375.5 233.5,375.5 	"/>
</g>
<g id="Layer_18">
	
		<ellipse transform="matrix(0.8372 -0.5468 0.5468 0.8372 -62.3151 268.1526)" class="st2" cx="419.3" cy="238.8" rx="34.7" ry="34.7"/>
	<g>
		<defs>
			
				<ellipse id="SVGID_3_" transform="matrix(0.8372 -0.5468 0.5468 0.8372 -62.3151 268.1526)" cx="419.3" cy="238.8" rx="34.7" ry="34.7"/>
		</defs>
		<clipPath id="SVGID_4_">
			<use xlink:href="#SVGID_3_"  style="overflow:visible;"/>
		</clipPath>
		<g class="st9">
			
				<ellipse transform="matrix(0.8372 -0.5468 0.5468 0.8372 -62.3151 268.1526)" class="st8" cx="419.3" cy="238.8" rx="34.7" ry="34.7"/>
			<polygon class="st10" points="419.5,238.2 408.5,290.6 445.5,284.8 			"/>
			<polygon class="st10" points="419.3,238.7 393.4,199 422.5,191.5 			"/>
			<polygon class="st10" points="419.3,238.7 472.3,225.8 422.5,191.5 			"/>
			<polygon class="st10" points="445.5,284.8 419.5,238.2 468.4,253.1 			"/>
			<polygon class="st10" points="467.7,253.4 472.3,225.8 419.3,238.7 			"/>
			<polygon class="st4" points="419.3,238.7 408.5,290.6 445.5,284.8 			"/>
			<polygon class="st6" points="422.5,191.5 393.4,199 419.3,238.7 472.3,225.8 			"/>
			<polygon class="st7" points="472.3,225.8 419.3,238.7 445.5,284.8 468.4,253.1 467.8,252.9 			"/>
		</g>
	</g>
	
		<ellipse transform="matrix(0.8372 -0.5468 0.5468 0.8372 -62.3151 268.1526)" class="st11" cx="419.3" cy="238.8" rx="34.7" ry="34.7"/>
</g>
<g id="Layer_16">
	<g id="Layer_19">
		<polygon class="st6" points="427.8,235.1 484,292.9 485.2,291.8 		"/>
	</g>
	<path class="st3" d="M619,328.7c0,0-4.7,4.7-12.4-6.7c-3.8-5.8-6.9-12-9.1-18.6c0,0-4.3-11.6-14.3-18c0,0-7.3-6.1-19.2-3.7
		c0,0-10.9,1.8-14.5,11.9c0,0-5.9,12,3.1,26c1.8,2.8,3.1,5.8,3.8,9.1l24,12.6l29.1-1.9l2.5-2.4C612.1,336.9,617.1,336.2,619,328.7z"
		/>
	<path class="st3" d="M609.7,339.2c0,0-13.1,9.6-24.4,7.2l-30.5-12.8l1.7-5.1"/>
	<path class="st4" d="M573.2,327.3c0.1,0.2,0.1,0.4,0.1,0.5c-0.1,0.2-0.2,0.3-0.3,0.5c-1.6,1.7-3.3,3.2-5.2,4.6
		c-1.1,0.8-2.5,1.5-3.8,1.1c-0.8-0.4-1.4-0.9-1.9-1.6l-2.3-2.9c1.1-0.7,1.1-2.3,1-3.6c-0.2-1.7-0.4-3.4-0.8-5.1
		c2.8-2.1,6.1-3.5,9.5-4c1.2-0.2,1.8,0,1.8,1.2s0,2.1,0.2,3.2C571.9,323.3,572.4,325.3,573.2,327.3z"/>
	<path class="st4" d="M566.7,320.9c-3.5,1.3-7.6,2.2-10.8,0.2c-2.4-1.4-3.7-4.1-4.5-6.7c-0.7-2.9-1.2-5.8-1.3-8.7
		c-0.2-1.9-0.2-3.7,0.1-5.6c0.5-2.6,2.1-4.9,3.7-7c2.6-3.6,5.4-7.3,9.6-8.7c2.4-0.6,4.9-0.8,7.4-0.6c1.9,0,3.7,0.3,5.5,0.8
		c1.5,0.6,2.8,1.4,3.9,2.4c3.3,2.8,5.5,6.8,6.2,11.1C588,309.7,576,317.3,566.7,320.9z"/>
	<path class="st5" d="M578.3,316.8c0,0-7.9-16.7-1.3-25.3c0,0-5.1,2-9.1,0.7c0,0-10.1-2.8-14.5,5.1c0,0-2,4.9-4.3,6.8v-4.1l3.5-8
		l9.5-8.2l8.9-2.1l8.9,3.6l5.8,5.7l2.7,13.3l-5.6,9.2L578.3,316.8z"/>
	<path class="st4" d="M572.6,304.8c-0.5,0-0.9-0.3-1.2-0.7c-0.2-0.4-0.5-0.8-0.6-1.2c-0.2-0.3-0.3-0.6-0.5-0.9
		c-0.2-0.3-0.4-0.5-0.7-0.7c-0.8-0.5-1.7-0.5-2.5-0.2c-0.8,0.3-1.6,0.8-2.2,1.3"/>
	<path class="st4" d="M560.9,299.2l-0.5-1c-0.3-0.8-0.8-1.5-1.6-2c-0.7-0.2-1.4-0.3-2.1-0.2c-0.7,0.1-1.4-0.2-1.9-0.8"/>
	<path class="st4" d="M566.8,298.1c2.6-0.8,5.5,0.3,6.9,2.6"/>
	<path class="st4" d="M562.9,295.8c-0.8-1.7-2.4-3-4.3-3.2"/>
	<path class="st4" d="M559.7,308.3c-0.5-0.6-1-1.1-1.5-1.8c-0.1-0.1-0.2-0.3-0.3-0.5c-0.1-0.4,0.2-0.9,0.6-1.2l1.7-1.7"/>
	<path class="st4" d="M559.1,315.7c-0.5-0.1-1.1-0.1-1.6,0c-0.2,0.1-0.4,0.1-0.6,0.1c-0.7,0-1.2-0.8-1.3-1.5c0-0.7,0.1-1.4,0.2-2.2
		c0-0.6-0.1-1.2,0-1.8c0-0.2,0.1-0.3,0.2-0.5c0.2-0.2,0.6-0.1,0.9,0c2.1,1,4,2.4,5.5,4.1c0.1,0.1,0.1,0.1,0.1,0.2
		c0.1,0.4-0.9,1-1.3,1.2C560.6,315.6,559.8,315.7,559.1,315.7z"/>
	<path class="st12" d="M555.3,315.7c0.5,0.6,1.2,0.9,1.9,0.9c0.7,0,1.5-0.1,2.2-0.3c0.5-0.1,1.1-0.3,1.6-0.5
		c0.4-0.1,0.8-0.3,1.2-0.5c0.4-0.2,0.6-0.6,0.7-1c-0.8,0.4-1.7,0.6-2.7,0.7c-1.2,0.2-2.5,0-3.6-0.5c-0.4-0.2-0.9-0.7-1.3-0.5
		S555,315.3,555.3,315.7z"/>
	<path class="st12" d="M555.9,308.9c1.5,0,3,0.6,4.1,1.7c1.1,1,2.1,2.2,2.9,3.5c0,0.1,0.1,0.2,0.1,0.2s-0.2,0.1-0.2,0
		c-1.4-0.4-2.5-1.5-3.6-2.3c-0.9-0.7-2-1.2-3.1-1.5C555.1,310.3,554.4,308.9,555.9,308.9z"/>
	<ellipse transform="matrix(0.6603 -0.751 0.751 0.6603 -33.9953 529.3615)" class="st3" cx="568.1" cy="302.3" rx="1.3" ry="1.1"/>
	<ellipse transform="matrix(0.6603 -0.751 0.751 0.6603 -33.6815 520.1392)" class="st3" cx="558.1" cy="297.3" rx="1.3" ry="1.1"/>
	<path class="st4" d="M572,559.5l14.8-106.2c0,0-12.5-4.4-18.4,1.8L566.4,558v6.3l4.8,3"/>
	<path class="st4" d="M551.1,559.6l-8.2-106.9c0,0,12.8-3.6,18.3,3l-4.5,102.8l-0.4,6.3l-5,2.7"/>
	<path class="st5" d="M557.5,559v12.3h-1.8l-1.3-5.2l-3.2,5.2h-18.1c7-1.5,12.9-6,16.1-12.3H557.5z"/>
	<path class="st5" d="M565.4,559v12.3h1.8l1.3-5.2l3.2,5.2h18.1c-7-1.4-12.9-6-16.1-12.3H565.4z"/>
	<path class="st5" d="M533.5,423.2c0.4-8.6,4.2-16.7,10.6-22.6h38.7c6.4,5.8,10.2,13.9,10.6,22.6l-10,61.8h-40L533.5,423.2z"/>
	<path class="st10" d="M563.5,429"/>
	<path class="st8" d="M582.6,400.7c-6.4-8.3,5.8-51.2,5.8-51.2l30.2,53l5.3-3c-18.3-57.8-26-67.1-26-67.1
		c-3.8-3.8-24.5-4.6-24.5-4.6c-3.9,2.8-9,3.5-13.5,1.7c-3.1-2.4-20.7-1.4-20.7-1.4l-26.9-4.6l-23.1-29.2l-5.4,2.8l22.8,39l30.4,9.7
		c0,0,11.8,31.2,7.2,54.9C544.1,400.7,565.3,411.9,582.6,400.7z"/>
	<path class="st8" d="M543.5,354.3c0,0,4.8,10,16.2,4.5"/>
	<path class="st8" d="M584.7,354.3c0,0-4.8,10-16.2,4.5"/>
	<path class="st4" d="M483.7,297l5.4-2.8c4.7-7.3-2-4.1-2-4.1s-3.5-3.7-6.9-3.9C480.2,286.2,474.2,286.3,483.7,297z"/>
	<path class="st4" d="M618.6,402.5c-4.4,7.4,2.1,4.1,2.1,4.1s6.2,7.1,8.1,6c2.7-1.5-5-13.1-5-13.1L618.6,402.5z"/>
	<g id="Layer_28">
		<path class="st6" d="M179.7,277.3l15.7,12.4c0.9,0.7,1,1.9,0.3,2.8c0,0,0,0,0,0l-1.5,1.9c-0.7,0.9-1.9,1-2.8,0.3c0,0,0,0,0,0
			l-15.7-12.4c-0.9-0.7-1-1.9-0.3-2.8c0,0,0,0,0,0l1.5-1.9C177.6,276.8,178.8,276.6,179.7,277.3
			C179.7,277.3,179.7,277.3,179.7,277.3z"/>
		<path class="st6" d="M183.6,305.9L167.3,293c-0.9-0.7-1-1.9-0.3-2.8c0,0,0,0,0,0l8.9-11.3l17.9,14.1c0.9,0.7,1,1.9,0.3,2.8
			c0,0,0,0,0,0l-7.7,9.7C185.7,306.4,184.5,306.5,183.6,305.9C183.6,305.9,183.6,305.9,183.6,305.9L183.6,305.9z M177.2,279.9
			l-1.3-1l1-1.3C176.4,278.3,176.5,279.3,177.2,279.9L177.2,279.9z"/>
		<path class="st7" d="M188.3,303.2l-2.5-2c-1.2-1-1.3-2.8-0.3-3.9c1-1.1,2.6-1.3,3.8-0.4l2.5,2c0.3,0.3,0.4,0.8,0.1,1.1l-2.5,3.1
			C189.1,303.4,188.6,303.5,188.3,303.2L188.3,303.2z"/>
		<path class="st8" d="M188.5,297.8c0.7,0.5,0.8,1.6,0.3,2.2c-0.5,0.7-1.6,0.8-2.2,0.3c-0.7-0.5-0.8-1.6-0.3-2.2
			C186.8,297.3,187.8,297.2,188.5,297.8C188.5,297.8,188.5,297.8,188.5,297.8z"/>
		<path class="st6" d="M193.8,293l-16.6-13.1c-0.7-0.6-0.8-1.6-0.3-2.2l-0.5,0.6c-0.5,0.7-0.4,1.7,0.3,2.2l16.6,13.1
			c0.9,0.7,1,1.9,0.3,2.8c0,0,0,0,0,0l0.5-0.6C194.8,294.9,194.7,293.7,193.8,293C193.8,293,193.8,293,193.8,293z"/>
		<path class="st6" d="M184.1,305.3l-16.3-12.9c-0.9-0.7-1-1.9-0.3-2.8c0,0,0,0,0,0l-0.5,0.6c-0.7,0.9-0.5,2.1,0.3,2.8c0,0,0,0,0,0
			l16.3,12.9c0.9,0.7,2.1,0.5,2.8-0.3c0,0,0,0,0,0l0.5-0.6C186.2,305.8,185,306,184.1,305.3C184.1,305.3,184.1,305.3,184.1,305.3
			L184.1,305.3z"/>
	</g>
	<path class="st10" d="M83.3,427"/>
	<path class="st5" d="M104.9,564.1h9l-1.5-154.5l-58.1,6.6L39.6,564.1h9l33.3-131.5c0,0,1.9-3.2,4.2,0L104.9,564.1h9"/>
	<path class="st4" d="M175.7,304.7l-23,27.4c-4.8,6.1-38.3,9-38.3,9s-6.3,49.3-2.1,68.5c0,0-24,16.6-58.1,6.6l-2.1-51.4l-11.6,11.1
		l-11.7,43.2l-6-0.5l3.2-48.5l26.5-36.5c0,0,4.4-3.5,25.5-3.2c0,0,8.2,6.9,14.2,0c14.7-4.6,30.2-6.2,45.5-4.5c0,0,2.7,0.2,7.4-3.9
		l25.4-22.2L175.7,304.7"/>
	<path class="st4" d="M28.8,419.1c7.1,4.9-0.2,4.6-0.2,4.6s-2.6,9.1-4.8,8.9c-3.1-0.3-1-13.9-1-13.9L28.8,419.1z"/>
	<path class="st4" d="M171.1,300.4c-2.9-8.1,2-3,2-3s5.5-4.5,7-2.9c2,2.2-5,10.2-5,10.2L171.1,300.4z"/>
	<polygon class="st5" points="48.6,564.1 48.6,571.8 44.4,571.8 44.4,569.9 41.8,571.8 22.3,571.8 22.3,571.8 39.6,564.1 	"/>
	<polygon class="st5" points="104.9,564.1 104.9,571.8 109.1,571.8 109.1,569.9 111.7,571.8 131.2,571.8 131.2,571.8 113.8,564.1 	
		"/>
	<path class="st4" d="M90.8,325l7.7,7.7l-11.7,1.4c0,0-6-6.7-0.7-8.5L90.8,325z"/>
	<polygon class="st4" points="83.7,334.3 71.7,335 75.9,327 82.8,326.1 	"/>
	<path class="st6" d="M86.8,333.1l6.4,51l-8.7,10.6l-7.2-11.5l7.1-49.8C84.5,333.3,85.5,330.8,86.8,333.1z"/>
	<path class="st4" d="M76.8,327.8c-0.1,0.2-0.1,0.4-0.1,0.5c0.1,0.2,0.2,0.3,0.3,0.5c1.6,1.7,3.3,3.2,5.2,4.6
		c1.1,0.8,2.5,1.5,3.8,1.1c0.8-0.4,1.4-0.9,1.9-1.6l2.3-2.9c-1.1-0.7-1.1-2.3-1-3.6c0.2-1.7,0.4-3.4,0.8-5.1c-2.8-2.1-6.1-3.5-9.6-4
		c-1.2-0.2-1.8,0-1.8,1.2s0,2.1-0.2,3.2C78.2,323.8,77.6,325.9,76.8,327.8z"/>
	<path class="st4" d="M83.3,321.4c3.5,1.3,7.6,2.2,10.8,0.2c2.4-1.4,3.7-4.1,4.5-6.7c0.7-2.9,1.2-5.8,1.3-8.7
		c0.2-1.9,0.2-3.7-0.1-5.6c-0.6-2.6-2.1-4.9-3.7-7c-2.6-3.6-5.4-7.3-9.6-8.7c-2.4-0.6-4.9-0.8-7.4-0.6c-1.9,0-3.7,0.3-5.5,0.8
		c-1.5,0.6-2.8,1.4-3.9,2.4c-3.3,2.8-5.5,6.8-6.2,11.1C62.1,310.3,74,317.9,83.3,321.4z"/>
	<path class="st13" d="M78.7,298.1c-2,0.8-3.2,2.8-2.9,4.9"/>
	<path class="st13" d="M93,292.8c-1.9-1-4.2-0.6-5.7,1"/>
	<path class="st4" d="M90.3,307.2c0.5-0.6,1-1.1,1.5-1.8c0.1-0.1,0.2-0.3,0.3-0.5c0.1-0.4-0.2-0.9-0.6-1.2l-1.7-1.7"/>
	<ellipse transform="matrix(0.751 -0.6603 0.6603 0.751 -179.5645 129.4795)" class="st3" cx="81.9" cy="302.8" rx="1.1" ry="1.3"/>
	<ellipse transform="matrix(0.751 -0.6603 0.6603 0.751 -173.7921 134.8817)" class="st3" cx="92" cy="297.9" rx="1.1" ry="1.3"/>
	<path class="st5" d="M71.7,308.2c0,0-3.3,1.1,2.7,5.1c0,0,0.2,4.1,3,5.4c0,0-6.2,0.1-15.5-9.8c0,0-5.5-9.9,0-17.9
		c0,0,6.9-10.6,19.8-9.2c0,0,13.8,1.8,15.9,14.1c0,0-5.9-8.2-12.2-9.9c0,0-7.9,7.2-12.6,7.1C72.8,293.1,69.3,296.3,71.7,308.2z"/>
	<path class="st11" d="M95.4,309.5c0,0-1.8,4.2-7.4,3.2C87.9,312.8,93.2,317.6,95.4,309.5z"/>
	<path class="st11" d="M85.3,311.1c-0.2,0.6-0.1,1.3,0.3,1.8"/>
	<path class="st11" d="M91.8,296.1c-1.1,0.7-1.8,1.9-1.9,3.2"/>
	<path class="st11" d="M81.4,301c-0.8,0.9-1.2,2-1.2,3.1"/>
</g>
<g id="Layer_25">
	
		<ellipse transform="matrix(0.2373 -0.9714 0.9714 0.2373 214.5977 585.0352)" class="st7" cx="479.9" cy="155.8" rx="30.9" ry="30.9"/>
	<path class="st4" d="M488.7,119.8c19.9,4.9,32.1,24.9,27.2,44.9c-4.9,19.9-24.9,32.1-44.9,27.2c-19.9-4.9-32.1-24.9-27.2-44.9
		c0,0,0,0,0,0C448.7,127.1,468.8,115,488.7,119.8z M472.6,185.8c16.6,4,33.3-6.1,37.3-22.7s-6.1-33.3-22.7-37.3
		c-16.6-4-33.3,6.1-37.3,22.7C445.8,165,456,181.8,472.6,185.8C472.5,185.8,472.6,185.8,472.6,185.8L472.6,185.8z"/>
	<g class="st14">
		<path class="st5" d="M481.8,141.9c4.6,0.1,7.3,2.3,7.3,6.9h-3v-0.2c0-2.6-1.4-4-4.3-4.2v8.9c4.2,1.2,8,2.3,8,7.5
			c0,4.4-2.9,7.2-8,7.5v3h-1.7v-3c-4.7-0.2-7.9-2.8-7.9-7.9v-0.4h3.1c0,0.2,0,0.4,0,0.5c0,3.2,1.7,4.9,4.9,5.2v-9.9
			c-4.3-0.8-7.4-2.6-7.4-6.9c0-4.5,3.3-6.7,7.4-7.1v-2.5h1.7V141.9z M480.1,144.5c-2.7,0.3-4.4,1.8-4.4,4.2c0,2.7,2.1,3.7,4.4,4.3
			V144.5z M481.8,165.8c2.9-0.1,4.9-2.1,4.9-4.9c0-3-2.4-4.1-4.9-4.6V165.8z"/>
	</g>
</g>
<g id="Layer_26">
	
		<ellipse transform="matrix(0.469 -0.8832 0.8832 0.469 94.7802 366.8224)" class="st7" cx="352.5" cy="104.6" rx="24.7" ry="24.7"/>
	<path class="st4" d="M366.4,78.3c14.5,7.7,20,25.7,12.3,40.2s-25.7,20-40.2,12.3c-14.5-7.7-20-25.7-12.3-40.2
		C333.9,76.1,351.9,70.6,366.4,78.3C366.4,78.3,366.4,78.3,366.4,78.3z M340.9,126.4c12.1,6.4,27,1.8,33.4-10.2
		c6.4-12.1,1.8-27-10.2-33.4c-12.1-6.4-27-1.8-33.4,10.2c0,0,0,0,0,0C324.2,105,328.8,120,340.9,126.4L340.9,126.4z"/>
	<g class="st14">
		<path class="st5" d="M357.2,93.8c3.7,1,5.4,3.3,4.5,7.1l-2.4-0.6l0-0.2c0.5-2.1-0.3-3.5-2.6-4.3l-1.9,7.2c3.1,1.8,5.9,3.5,4.9,7.7
			c-0.9,3.5-3.8,5.2-8,4.4l-0.6,2.4l-1.4-0.4l0.6-2.4c-3.7-1.1-5.8-3.9-4.8-8l0.1-0.3l2.5,0.6c-0.1,0.2-0.1,0.3-0.1,0.4
			c-0.7,2.6,0.4,4.3,2.9,5.2l2.1-8c-3.3-1.6-5.4-3.7-4.5-7.1c0.9-3.6,4.1-4.7,7.5-4.2l0.5-2l1.4,0.4L357.2,93.8z M355.3,95.6
			c-2.3-0.4-4,0.6-4.5,2.5c-0.6,2.2,0.9,3.5,2.7,4.4L355.3,95.6z M352.3,113.2c2.3,0.5,4.4-0.7,5-3c0.6-2.4-1.1-3.8-3-4.7
			L352.3,113.2z"/>
	</g>
</g>
<g id="Layer_27_copy">
	
		<ellipse transform="matrix(0.999 -4.483992e-02 4.483992e-02 0.999 -7.2015 11.497)" class="st7" cx="252.7" cy="166.3" rx="19.9" ry="19.9"/>
	<path class="st4" d="M251.6,142.4c13.2-0.6,24.3,9.6,24.9,22.8c0.6,13.2-9.6,24.3-22.8,24.9s-24.3-9.6-24.9-22.8c0,0,0,0,0,0
		C228.2,154.2,238.4,143,251.6,142.4z M253.6,186.1c11-0.5,19.4-9.8,19-20.7c-0.5-11-9.8-19.4-20.7-19c-11,0.5-19.4,9.8-19,20.7
		c0,0,0,0,0,0C233.4,178.1,242.6,186.6,253.6,186.1L253.6,186.1z"/>
	<g class="st14">
		<path class="st5" d="M250.8,157.6c2.8-0.8,4.9,0.1,5.7,2.9l-1.9,0.5l0-0.1c-0.5-1.6-1.6-2.2-3.4-1.8l1.6,5.5c2.8,0,5.3,0,6.2,3.2
			c0.8,2.7-0.5,4.9-3.5,6l0.5,1.8l-1,0.3l-0.5-1.8c-2.9,0.7-5.4-0.3-6.3-3.4l-0.1-0.2l1.9-0.5c0,0.1,0,0.2,0.1,0.3
			c0.6,2,1.9,2.7,3.9,2.3l-1.8-6.1c-2.8,0.3-5-0.3-5.8-2.9c-0.8-2.8,0.8-4.7,3.3-5.7l-0.4-1.5l1-0.3L250.8,157.6z M250.2,159.5
			c-1.6,0.6-2.4,1.9-2,3.4c0.5,1.7,2,1.9,3.5,1.8L250.2,159.5z M255.1,172.3c1.8-0.6,2.6-2.2,2.1-3.9c-0.5-1.8-2.2-2.1-3.8-1.9
			L255.1,172.3z"/>
	</g>
	
		<ellipse transform="matrix(0.999 -4.483992e-02 4.483992e-02 0.999 -12.3405 8.8443)" class="st7" cx="191" cy="279.5" rx="6.4" ry="6.4"/>
	<path class="st4" d="M190.6,271.9c4.2-0.2,7.8,3.1,8,7.3s-3.1,7.8-7.3,8c-4.2,0.2-7.8-3.1-8-7.3
		C183.1,275.7,186.4,272.1,190.6,271.9C190.6,271.9,190.6,271.9,190.6,271.9z M191.2,285.9c3.5-0.2,6.2-3.1,6.1-6.6
		s-3.1-6.2-6.6-6.1c-3.5,0.2-6.2,3.1-6.1,6.6C184.8,283.3,187.8,286,191.2,285.9L191.2,285.9z"/>
	<g class="st14">
		<path class="st5" d="M190.7,276.7c0.9-0.2,1.5,0,1.7,0.9l-0.6,0.2l0,0c-0.1-0.5-0.5-0.7-1-0.5l0.5,1.7c0.8,0,1.6,0,1.9,1
			c0.2,0.8-0.2,1.5-1.1,1.8l0.2,0.6l-0.3,0.1l-0.2-0.6c-0.9,0.2-1.6-0.1-1.9-1l0-0.1l0.6-0.2c0,0,0,0.1,0,0.1
			c0.2,0.6,0.6,0.8,1.2,0.7l-0.5-1.8c-0.9,0.1-1.5-0.1-1.8-0.9c-0.2-0.8,0.3-1.4,1-1.7l-0.1-0.5l0.3-0.1L190.7,276.7z M190.5,277.3
			c-0.5,0.2-0.7,0.6-0.6,1c0.1,0.5,0.6,0.6,1.1,0.6L190.5,277.3z M192,281.2c0.5-0.2,0.8-0.7,0.6-1.2c-0.2-0.6-0.7-0.6-1.2-0.6
			L192,281.2z"/>
	</g>
	
		<ellipse transform="matrix(0.999 -4.483992e-02 4.483992e-02 0.999 -10.2761 9.1822)" class="st7" cx="199.5" cy="233.6" rx="8.6" ry="8.6"/>
	<path class="st4" d="M199.1,223.3c5.7-0.3,10.6,4.2,10.8,9.9s-4.2,10.6-9.9,10.8s-10.6-4.2-10.8-9.9c0,0,0,0,0,0
		C188.9,228.4,193.4,223.5,199.1,223.3z M199.9,242.3c4.8-0.2,8.4-4.2,8.2-9s-4.2-8.4-9-8.2c-4.8,0.2-8.4,4.2-8.2,9
		C191.1,238.8,195.2,242.5,199.9,242.3L199.9,242.3z"/>
	<g class="st14">
		<path class="st5" d="M199.2,229.5c1.2-0.3,2.1,0,2.5,1.3l-0.8,0.2l0-0.1c-0.2-0.7-0.7-0.9-1.5-0.8l0.7,2.4c1.2,0,2.3,0,2.7,1.4
			c0.3,1.2-0.2,2.1-1.5,2.6l0.2,0.8l-0.5,0.1l-0.2-0.8c-1.3,0.3-2.3-0.1-2.7-1.5l0-0.1l0.8-0.2c0,0.1,0,0.1,0,0.1
			c0.3,0.9,0.8,1.2,1.7,1l-0.8-2.6c-1.2,0.1-2.2-0.1-2.5-1.3c-0.4-1.2,0.4-2,1.4-2.5l-0.2-0.7l0.5-0.1L199.2,229.5z M198.9,230.3
			c-0.7,0.3-1,0.8-0.8,1.5c0.2,0.7,0.8,0.8,1.5,0.8L198.9,230.3z M201,235.8c0.8-0.2,1.1-0.9,0.9-1.7c-0.2-0.8-1-0.9-1.7-0.8
			L201,235.8z"/>
	</g>
</g>
</svg>
