<svg xmlns="http://www.w3.org/2000/svg" viewBox="0 0 27 27"><circle cx="13.5" cy="13.5" r="13" opacity=".5" fill="none" stroke="#3e75ba"/><path d="M16.1 7h-4.8c-2.2 0-4 1.7-4 3.9v4.7c0 2.2 1.8 3.9 4 3.9h4.8c2.2 0 3.9-1.7 4-3.9v-4.7c0-2.2-1.8-3.9-4-3.9zm2.8 8.6c0 1.5-1.3 2.7-2.8 2.7h-4.8c-1.5 0-2.8-1.2-2.8-2.7v-4.7c0-1.5 1.3-2.7 2.8-2.7h4.8c1.5 0 2.8 1.2 2.8 2.7v4.7zm-5.2-5.5c-1.7 0-3.1 1.5-3.1 3.2s1.5 3.1 3.2 3.1c1.7 0 3.1-1.4 3.1-3.1 0-1.8-1.4-3.2-3.2-3.2zm0 5.1c-1.1 0-1.9-.9-1.9-2s.9-1.9 2-1.9 1.9.9 1.9 1.9c0 1.2-.9 2-2 2zm3.4-5.7c.2 0 .4.2.4.4s-.2.4-.4.4-.4-.2-.4-.4.2-.4.4-.4z" fill="#3e75ba"/></svg>