<?xml version="1.0" encoding="utf-8"?>
<!-- Generator: Adobe Illustrator 21.0.2, SVG Export Plug-In . SVG Version: 6.00 Build 0)  -->
<svg version="1.1" id="Layer_1" xmlns="http://www.w3.org/2000/svg" xmlns:xlink="http://www.w3.org/1999/xlink" x="0px" y="0px"
	 viewBox="0 0 27 27" style="enable-background:new 0 0 27 27;" xml:space="preserve">
<style type="text/css">
	.st0{opacity:0.5;fill:none;stroke:#3E75BA;enable-background:new    ;}
	.st1{fill:#3E75BA;}
</style>
<g id="LinkedIn">
	<circle id="Ellipse_3_copy_2" class="st0" cx="13.5" cy="13.5" r="13"/>
	<path id="Forma_1" class="st1" d="M19.5,14.3v4.2H17v-4c0-1-0.4-1.7-1.2-1.7c-0.6,0-1.1,0.4-1.3,0.9c-0.1,0.2-0.1,0.4-0.1,0.6v4.1
		H12c0,0,0-6.7,0-7.4h2.5v1c0,0,0,0,0,0h0v0c0.5-0.8,1.3-1.3,2.2-1.2C18.3,10.9,19.5,12,19.5,14.3z M9.4,7.5C8.7,7.5,8.1,8,8,8.7
		C8,9.4,8.5,10,9.2,10.1c0.1,0,0.1,0,0.2,0h0c0.7,0.1,1.3-0.5,1.4-1.2c0.1-0.7-0.5-1.3-1.2-1.4C9.5,7.5,9.5,7.5,9.4,7.5z M8.1,18.5
		h2.5v-7.4H8.1V18.5z"/>
</g>
</svg>
