<?xml version="1.0" encoding="utf-8"?>
<!-- Generator: Adobe Illustrator 21.0.2, SVG Export Plug-In . SVG Version: 6.00 Build 0)  -->
<svg version="1.1" id="Layer_1" xmlns="http://www.w3.org/2000/svg" xmlns:xlink="http://www.w3.org/1999/xlink" x="0px" y="0px"
	 viewBox="0 0 54 54" style="enable-background:new 0 0 54 54;" xml:space="preserve">
<style type="text/css">
	.st0{opacity:0.5;fill:none;stroke:#3E75BA;stroke-width:2;enable-background:new    ;}
	.st1{fill:none;enable-background:new    ;}
	.st2{fill:#3E75BA;}
</style>
<g id="twitter">
	<circle id="Ellipse_3_copy_2" class="st0" cx="27" cy="27" r="26"/>
	<path class="st1" d="z"/>
</g>
<path class="st2" d="M40.1,18.6c-0.6,0.3-1.2,0.5-1.8,0.6c0.7-0.7,1.2-1.5,1.5-2.4l0,0c0.1-0.3-0.2-0.5-0.4-0.3l0,0
	c-0.9,0.5-1.8,0.9-2.8,1.2c-0.1,0-0.1,0-0.2,0c-0.2,0-0.4-0.1-0.5-0.2c-1-0.9-2.4-1.4-3.8-1.4c-0.6,0-1.2,0.1-1.8,0.3
	c-1.9,0.6-3.3,2.1-3.7,4c-0.2,0.7-0.2,1.4-0.1,2.1c0,0.1,0,0.1-0.1,0.2c0,0-0.1,0.1-0.2,0.1c0,0,0,0,0,0c-4.1-0.4-7.7-2.3-10.3-5.5
	l0,0c-0.1-0.2-0.4-0.1-0.5,0l0,0C14.9,18,14.6,19,14.6,20c0,1.6,0.6,3,1.7,4.1c-0.5-0.1-0.9-0.3-1.3-0.5l0,0c-0.2-0.1-0.4,0-0.4,0.3
	l0,0c0,2.3,1.3,4.4,3.3,5.3c0,0-0.1,0-0.1,0c-0.3,0-0.6,0-1-0.1l0,0c-0.2,0-0.4,0.2-0.3,0.4l0,0c0.7,2,2.4,3.6,4.5,3.9
	c-1.8,1.2-3.8,1.8-5.9,1.8l-0.7,0c-0.2,0-0.4,0.1-0.4,0.3c-0.1,0.2,0,0.4,0.2,0.5c2.4,1.4,5.1,2.1,7.9,2.1c2.4,0,4.7-0.5,6.7-1.4
	c1.9-0.9,3.5-2.1,4.9-3.7c1.3-1.5,2.3-3.2,3-5.1c0.7-1.8,1-3.7,1-5.5v-0.1c0-0.3,0.1-0.6,0.4-0.8c0.9-0.7,1.6-1.6,2.3-2.5l0,0
	C40.6,18.8,40.4,18.4,40.1,18.6L40.1,18.6z"/>
</svg>
