<?xml version="1.0" encoding="utf-8"?>
<!-- Generator: Adobe Illustrator 21.0.2, SVG Export Plug-In . SVG Version: 6.00 Build 0)  -->
<svg version="1.1" id="Layer_1" xmlns="http://www.w3.org/2000/svg" xmlns:xlink="http://www.w3.org/1999/xlink" x="0px" y="0px"
	 viewBox="0 0 793.1 590.2" style="enable-background:new 0 0 793.1 590.2;" xml:space="preserve">
<style type="text/css">
	.st0{fill:#F5F5F5;}
	.st1{fill:#FFFFFF;}
	.st2{clip-path:url(#SVGID_2_);}
	.st3{fill:#BFBFBF;}
	.st4{fill:none;stroke:#000000;stroke-width:0.5;stroke-linejoin:round;}
	.st5{fill:#EB058C;stroke:#000000;stroke-width:0.5;stroke-linejoin:round;}
	.st6{fill:#EFEFEF;stroke:#000000;stroke-width:0.5;stroke-linejoin:round;}
	.st7{fill:#1A1A1A;}
	.st8{fill:#848484;stroke:#000000;stroke-width:0.5;stroke-miterlimit:10;}
	.st9{fill:#FFFFFF;stroke:#000000;stroke-width:0.5;stroke-miterlimit:10;}
	.st10{fill:#0077BF;stroke:#000000;stroke-width:0.5;stroke-miterlimit:10;}
	.st11{fill:#FFFFFF;stroke:#000000;stroke-width:0.5;stroke-linejoin:round;}
	.st12{fill:#FFFFFF;stroke:#000000;stroke-miterlimit:10;}
	.st13{fill:#1A1A1A;stroke:#000000;stroke-width:0.5;stroke-miterlimit:10;}
	.st14{fill:none;stroke:#000000;stroke-width:0.5;stroke-miterlimit:10;}
	.st15{fill:#FFE600;stroke:#000000;stroke-width:0.5;stroke-miterlimit:10;}
	.st16{fill:#EB058C;stroke:#000000;stroke-width:0.5;stroke-miterlimit:10;}
	.st17{fill:#C1C1C1;stroke:#000000;stroke-width:0.5;stroke-miterlimit:10;}
	.st18{enable-background:new    ;}
	.st19{fill:none;stroke:#000000;stroke-width:0.75;stroke-miterlimit:10;}
</style>
<title>SRA4</title>
<g id="Layer_6">
	<path class="st0" d="M252.7,506.1c0,0-138.1,96.6-222-55.4c0,0-108.1-153.4,81.3-350.2C156.8,54,227.3,13,377.9,1
		c69.4-5.5,178.2,8.7,265.2,94c61.1,59.8,120.4,137.2,112.8,303.3c0,0,3.2,200.1-180.9,191.6c-32.2-1.5-74.5-11.8-104.5-75.4
		C470.6,514.6,426.4,386.1,252.7,506.1z"/>
</g>
<path class="st1" d="M782,471.1c0,0,12.1-2.8,10.7-12.4s-7.2-9-21.7-14.5S349.1,298.7,349.1,298.7s-14.1-5.2-21.1-5.2
	c-8.1,0-21.7,5.2-21.7,5.2L32.7,391.1c0,0-24.2,6.9-24.1,16.5c0,0-1.2,7.4,8.2,11.8c10.3,4.8,435,148.8,435,148.8s13.8,4.6,21.4,4.8
	c5.5,0,11-0.5,16.4-1.5c0.5-0.1,1-0.2,1.4-0.4L782,471.1z"/>
<g>
	<g>
		<g>
			<defs>
				<path id="SVGID_1_" d="M782,471.1c0,0,12.1-2.8,10.7-12.4s-7.2-9-21.7-14.5S349.1,298.7,349.1,298.7s-14.1-5.2-21.1-5.2
					c-8.1,0-21.7,5.2-21.7,5.2L32.7,391.1c0,0-24.2,6.9-24.1,16.5c0,0-1.2,7.4,8.2,11.8c10.3,4.8,435,148.8,435,148.8
					s13.8,4.6,21.4,4.8c5.5,0,11-0.5,16.4-1.5c0.5-0.1,1-0.2,1.4-0.4L782,471.1z"/>
			</defs>
			<clipPath id="SVGID_2_">
				<use xlink:href="#SVGID_1_"  style="overflow:visible;"/>
			</clipPath>
			<g class="st2">
				<path class="st3" d="M2.3,402.1l449.4,154.8c0,0,19,9.7,39,2.1s308.8-106.2,308.8-106.2l-2.8,22.1L473.8,586.2L-1.8,422.5
					L2.3,402.1z"/>
			</g>
		</g>
	</g>
</g>
<path class="st4" d="M782,471.1c0,0,12.1-2.8,10.7-12.4s-7.2-9-21.7-14.5S349.1,298.7,349.1,298.7s-14.1-5.2-21.1-5.2
	c-8.1,0-21.7,5.2-21.7,5.2L32.7,391.1c0,0-24.2,6.9-24.1,16.5c0,0-1.2,7.4,8.2,11.8c10.3,4.8,435,148.8,435,148.8s13.8,4.6,21.4,4.8
	c5.5,0,11-0.5,16.4-1.5c0.5-0.1,1-0.2,1.4-0.4L782,471.1z"/>
<path class="st5" d="M85.9,422.7L365.1,326c0,0,11.4-3.6,18.1-3.6s9.3,1,38.2,10.9s350,121,350,121l-279,95.1
	c-5.4,1.5-10.9,2.4-16.5,2.6c-10.3,0.5-31.2-7.2-31.2-7.2L85.9,422.7z"/>
<ellipse class="st6" cx="210.8" cy="351.3" rx="25.6" ry="7.8"/>
<path class="st1" d="M376.7,404c0.6-0.8-1-1.1-2.6-1.6c-0.9-0.3-2.1-0.6-3.6-1l7.2-2.8c1.1-0.4,0.6-3.5-1.5-3.5
	c-1.4,0.1-6.6,1.8-13.2,4.4c-2.9-0.7-5.9-1.2-8.9-1.5l0.5-0.2c2.7-1.4,1-3.4-0.8-4.2c-0.7-0.4-1.5-0.4-2.2-0.2
	c-12.4,3.3-24.4,7.5-35.7,11.4l-0.3-0.1c7.8-4.4,17.1-7.8,25.5-11.7c2.2-1,0.8-1.8,0-2.1c-3.4-1.4-15.9,3.9-29.6,11.1
	c-0.2,0-0.5,0.1-0.7,0.2c-5.2,2.9-19.4,6.8-24.7,4.6c-3.5-1.4-2-3.5,1.8-5.6s7.8-4,11.9-5.5c0,0-2.3,2.3,0.7,3.5
	c5.4,2.2,17-2,27.2-7.7c7.3-4.1,6.6-6.7,4-7.8c-6-2.5-32.1,6.6-45.4,14.1c-0.7,0.4-1.4,0.8-2,1.2c0.1-0.4-0.1-0.7-0.7-0.7l-0.9-0.1
	c1.7-3.8,3.2-7.8,4.4-11.9c10,2.5,20.5,1,29.4-4.1c8.9-5,9.4-12,2-16c0.6-0.3,1.3-0.5,1.9-0.8c0.2-0.8-0.7-1.9-1.9-2.4
	c-1.8-0.7-2.7,0.1-3.9,0.6c-0.4,0.1-0.9,0.3-1.5,0.6c-6.8-1.7-13.9-1.4-20.5,0.8c-1.1,0.7,0,3.6,0.6,3.9c0.2,0.1,0.4,0.1,0.6,0
	c4-1.5,8.3-2.1,12.5-1.9c-14.9,6.5-44.5,19.8-58.3,26.4c-0.2,0.5,1.2,2.3,2.6,2.9c1.1,0.4,3.7-0.4,6.7-1.8c2.6-1.2,2.3-1.8,3.9-2.5
	l18.6-8.6l0.2,0.1c-0.8,4.2-5.8,15.8-8,20.6c2,0.2,4,0.2,5.9-0.1c0.3-0.1,0.6-0.1,0.8-0.2c-2,3-1,5.5,2.2,6.8c4,1.6,10.1,1,16-0.5
	c-2.2,1.8-2.9,3.1-1,3.9c1.1,0.4,2.3,0.4,3.5,0.3c7.4-4.2,24.4-10.3,34.3-13.1l0.8,0.3c-4.7,2-14,6.2-17.5,8.1
	c-6.4,3.6-10.8,7.4-6.2,9.2c3.4,1.4,8.9,0.7,13-0.6c-2.8,3-2.6,5.5,0.5,6.8c4.3,1.8,16.8,0.9,22.1-2.1c4.8-2.7,1.6-3.3,1.6-3.3
	c-4.5,2.3-15.5,3.2-19.4,1.6c-1.4-0.6-0.9-1.6,1.2-2.8c12.1-6.8,13.3-6.8,32.9-14.4c3.8,0.9,7.5,2,11.1,3.3c0.7,0.3,1.5,0.2,2.2-0.3
	c0.6-0.6,1-1.3,1.2-2C377.4,404.5,376,404.8,376.7,404z M324.9,386.5c1.5-0.5,2.2-0.5,2.5-0.4s0.4,0.6-2.9,2.4
	c-7.3,4.1-18.3,8.3-20.7,7.3c-1.4-0.6,0.3-1.8,0.3-1.8C310.8,391.1,317.8,388.6,324.9,386.5z M313.4,368.5c0.4,0.1,0.9,0.3,1.3,0.5
	c5.5,2.3,5.4,6.2-0.8,9.7c-10.2,5.8-20.5,5.7-28.3,2.3C295.6,376.3,306.2,371.6,313.4,368.5L313.4,368.5z M329.8,414.1
	c-0.8,0.4-1.5,0.9-2.1,1.3c-2.8,1-7.4,2.3-9.4,1.5s-0.8-2.3,3.2-4.5c9.3-5.2,21.3-9.2,29.9-13.1c-0.8,1-1,2.2,0.3,2.5l3.8,0.8
	C345.4,406.6,334.6,411.4,329.8,414.1L329.8,414.1z"/>
<path class="st1" d="M390.8,436.5c-5.2,2.5-11.3,5-14.8,3.6c-2.3-0.9-0.3-2.5,3.3-4.6c6.3-3.5,16.2-7.5,27.1-11.6
	c2.2-0.9-0.3-2-0.7-2.4c0,0,0.5-0.2,0.9-0.5c2.4-1.3,3.9-4.1-0.7-6c-8-3.3-27.8,2.5-42.1,10.5c-9.7,5.5-12,10.4-7,12.4
	c3.3,1.3,9,0.8,12.8-0.4l0.3,0.1c-1.8,1.1-3.5,3.6-0.4,4.9c5.1,2.1,16.7-1.8,20.9-4.2C393,437.2,390.8,436.5,390.8,436.5z
	 M361.6,434.7c-1.7-0.7-0.5-2,4.4-4.8c8.3-4.7,30.2-14.1,35.1-12.1c1.3,0.5-0.6,1.6-1.4,2c-3.2,1.7-6.6,2.9-10.2,3.5
	c-0.3,1.1,1.3,2.2,1.3,2.2C388.1,427.2,365.6,436.3,361.6,434.7L361.6,434.7z"/>
<path class="st1" d="M440.9,462.8l-1.1-6.6l0,0l-0.3-1.6c-1.5,0.2-3,0.4-4.5,0.6c-1.7,0.2-3.3,0.3-4.8,0.3s-3-0.1-4.5-0.4
	c-1.4-0.2-2.8-0.6-4.1-1.2c-1.5-0.5-2.8-1.5-3.6-2.7c-0.6-1-0.8-2.3-0.4-3.5c0.5-1.5,1.4-2.9,2.6-3.9c1.6-1.5,3.4-2.9,5.4-3.9
	l0.2-0.1c2.3-1.3,4.6-2.3,7.1-3.1c2.5-0.8,5-1.4,7.6-1.8c2.4-0.4,4.8-0.5,7.2-0.4c2.1,0.1,4.2,0.5,6.2,1.3c2.5,1,3.9,2.2,4.4,3.7
	c0.4,1.5,0.3,3-0.2,4.4l4.2-0.2l0,0l13.7-0.8c0.5-1.2,0.9-2.5,1-3.8c0.1-1.1-0.1-2.2-0.5-3.3v-0.1c-0.1-0.2-0.1-0.4-0.2-0.6
	c-0.7-1.4-1.7-2.6-3-3.6c-1.8-1.3-3.7-2.4-5.8-3.2c-3.9-1.6-8.1-2.5-12.3-2.9c-4.7-0.4-9.5-0.3-14.2,0.3c-5,0.6-9.9,1.7-14.7,3.1
	c-4.7,1.4-9.2,3.3-13.4,5.7l-0.2,0.1c-3.6,1.9-6.9,4.4-9.8,7.4c-2,2-3.4,4.6-4.1,7.4c-0.4,2.4,0.2,4.8,1.7,6.6
	c2,2.4,4.5,4.1,7.4,5.2c2.6,1.1,5.3,1.9,8.1,2.4c2.8,0.5,5.6,0.8,8.4,0.9h1.2c2.4,0,4.9-0.1,7.3-0.4
	C435.5,463.7,438.2,463.3,440.9,462.8z"/>
<path class="st1" d="M479.7,483.3c0.6-2.9,2-5.6,4.1-7.8c2.9-3,6.2-5.6,9.9-7.5l0.2-0.1c4.4-2.5,9.1-4.4,14-5.9
	c5-1.5,10.1-2.6,15.3-3.2l1.3-0.1h0.2l5.8-3.3l-13.4-5.5l-34.8,8l11.1-17.8l-13.4-5.5l-1.8,1c0,0.1,0.1,0.2,0.1,0.4s0.1,0.2,0.1,0.4
	c0,0.2,0.1,0.3,0.1,0.5c0,0.1,0,0.2,0.1,0.3c0,0.2,0,0.4,0,0.6c0,0.1,0,0.2,0,0.2c0,0.3,0,0.6,0,0.8c-0.1,1.5-0.6,3-1.3,4.3
	l-0.2,0.4l-14.5,0.8l-21.2,11.9l1.2,7l-0.8,0.2c-3.1,0.6-6.1,1-9.1,1.4l-1.9,0.2h-0.6l-1.3,0.1h-0.7h-1.1h-0.8h-0.9l-2.1,1.2l12.2,5
	l34.5-19.4l-10.7,18.7l36.9-8l-34.6,19.6l12.4,5.1l5.7-3.2V484C479.6,483.7,479.6,483.5,479.7,483.3z"/>
<path class="st1" d="M555.8,482.1c2-2,3.4-4.6,4-7.4c0.4-2.4-0.3-4.9-1.8-6.9c-1.6-2.1-4.2-4-7.9-5.5c-4-1.6-8.2-2.6-12.5-2.9
	c-4.1-0.4-8.2-0.4-12.3,0H525h-0.6h-0.2l-1.1,0.1l0,0c-5,0.6-10,1.6-14.8,3.1c-4.7,1.4-9.1,3.3-13.4,5.6l-0.2,0.1
	c-3.5,1.9-6.7,4.3-9.5,7.2c-2,2-3.4,4.6-4,7.4v0.2c0,0.2,0,0.4,0,0.5v0.3c0,0.1,0,0.1,0,0.2c-0.1,2.1,0.6,4.1,1.9,5.7
	c1.6,2.1,4.2,4,7.9,5.5c4,1.6,8.2,2.6,12.5,2.9c4.8,0.4,9.7,0.3,14.5-0.2c5-0.6,10-1.6,14.8-3.1c4.6-1.4,9.1-3.3,13.3-5.7l0.2-0.1
	C549.9,487.5,553.1,485,555.8,482.1z M533.3,484.3c-2.3,1.3-4.7,2.3-7.1,3.1c-2.5,0.8-5.1,1.4-7.7,1.8c-2.5,0.4-5,0.5-7.6,0.3
	c-2.3-0.1-4.5-0.6-6.6-1.5c-1.6-0.5-3-1.6-4-2.9c-0.7-1.1-0.9-2.4-0.5-3.7c0.5-1.5,1.3-2.9,2.5-4c1.6-1.5,3.3-2.8,5.2-3.9l0.2-0.1
	c2.2-1.3,4.6-2.3,7.1-3.1c2.5-0.8,5.1-1.4,7.7-1.8c2.5-0.4,5-0.5,7.6-0.3c2.2,0.1,4.5,0.6,6.6,1.4c1.6,0.5,3,1.6,4,2.9
	c0.7,1.1,0.9,2.5,0.5,3.7c-0.5,1.5-1.3,2.9-2.5,4c-1.6,1.5-3.3,2.8-5.2,3.9L533.3,484.3z"/>
<polygon class="st7" points="379.3,367.9 379.3,375.1 383.2,375.1 383.2,373.3 385.7,375.1 403.8,375.1 403.8,375.1 387.7,367.9 "/>
<polygon class="st7" points="405.9,367.9 405.9,375.1 409.8,375.1 409.8,373.3 412.3,375.1 430.3,375.1 430.3,375.1 414.3,367.9 "/>
<polygon class="st8" points="420,234.8 413.7,367.9 406.6,367.9 389,234.8 "/>
<polygon class="st8" points="412,234.8 387.1,367.9 380.3,367.9 380.7,234.2 "/>
<polygon class="st9" points="418.2,170.6 423.8,184.2 425.3,216.1 431.7,245.5 427.3,247.5 415.1,219.3 400.9,180 "/>
<polygon class="st10" points="420.3,238 423,188.6 418.2,170.6 409.3,166.3 396,166.3 379,171.6 375.2,193.4 380.2,237.4 "/>
<path class="st11" d="M379,171.6l-3.8,3.3l-10.9,41.3c-1.1,2.5,0.1,5.5,2.6,6.6c0.7,0.3,1.4,0.4,2.1,0.4l30.6-15.8l-1-6.6l-19.3,4.5
	l6.8-19l-2.8-11.8L379,171.6z"/>
<path class="st9" d="M400.9,164.8c-0.7-1,0-10.7,0-10.7h9.4l-1,12.3C409.3,166.3,402.8,167.4,400.9,164.8z"/>
<polygon class="st9" points="399.1,161 393.6,166.3 400.1,177 405.5,167.9 407.1,167.6 409.9,177 414.9,167.6 410.7,162.2 
	406.3,165.9 "/>
<g id="Layer_9">
	<path class="st9" d="M419.7,144c-0.4-4.9,0.1-4.9-0.5-7.2c-1-3.8-2.3-7.9-5.4-10.4c-1.8-1.3-3.9-2.3-6.1-2.8
		c-1.6-0.6-3.2-0.9-4.9-1c-1.4,0-2.8,0.3-4.1,0.8c-3.7,1.3-6.8,4-8.7,7.4c-4.9,9.2,1,19,7.8,24.9c2.5,2.2,7.5,4.6,10.8,4.1
		C418,157.7,420.1,148.7,419.7,144z"/>
	<path class="st12" d="M406.8,139c-2.3-0.7-5.4-0.4-6.2,0.9"/>
	<path class="st12" d="M418.7,138.7c-1.3-1.5-4-1.1-5.7-0.1"/>
	<path class="st9" d="M411.6,149.4c0.6-0.3,1.2-0.6,1.8-1c0.1-0.1,0.3-0.2,0.4-0.3c0.2-0.4,0.1-0.8-0.1-1.2l-0.9-2"/>
	<ellipse transform="matrix(0.9523 -0.3052 0.3052 0.9523 -24.5812 130.8494)" class="st13" cx="406.2" cy="144" rx="1" ry="1.3"/>
	
		<ellipse transform="matrix(0.9993 -3.647182e-02 3.647182e-02 0.9993 -4.954 15.2969)" class="st13" cx="416.8" cy="143.4" rx="1" ry="1.2"/>
	<path class="st7" d="M394,141.3c0,0-2.6-3.1-3.6-1.2c-0.3,0.6,0.4,4.8,4.2,6.4c0,0-2.1,3.8-0.2,5.9c0,0-4.3-2.2-9-13.5
		c0,0-4.4-9.6,7.4-12.7c3.2-8,12.2-10.8,22.6-5.6c4,5.3,5.5,12.1,4.2,18.6c0,0-0.3-5.9-5.1-9.3c0,0-8.3,6.7-13.9,0.3
		C400.7,130.2,395.7,130.6,394,141.3z"/>
</g>
<path class="st14" d="M407.9,152.4c0,0,1.8,4,6.1,1.1"/>
<path class="st1" d="M398.9,200.9c1-0.6,1.8-1.4,2.4-2.3c0.4-1,0.7-1.7,0.9-2.3c0.7-2,0.8-2.3,3.4-3c0.1,0,0.3-0.1,0.5-0.1
	c1.5,0,2.4,2.1,2.8,3.9c0.4,2.2,0.2,4.2-0.6,4.5c-0.3,0.1-0.5,0.2-0.8,0.2c-1.2,0-1.7-1.3-1.7-1.4c0-0.1-0.1-0.2-0.2-0.2h-0.1
	c-0.1,0-0.2,0.2-0.2,0.3s0.5,2.9-2,3.8c-1.3,0.6-2.5,1.4-3.5,2.4L398.9,200.9z"/>
<path d="M406,193.4L406,193.4c1.2,0,2.1,1.9,2.5,3.7c0.4,2.1,0.1,4-0.4,4.2c-0.2,0.1-0.5,0.1-0.7,0.1c-1,0-1.5-1.2-1.5-1.2
	c-0.1-0.2-0.3-0.3-0.5-0.3h-0.1c-0.3,0.1-0.4,0.3-0.4,0.6c0,0.1,0.4,2.7-1.8,3.5c-1.2,0.5-2.3,1.3-3.2,2.2l-0.8-5.3
	c1-0.6,1.8-1.4,2.4-2.3c0.4-1,0.7-1.7,0.9-2.4c0.7-1.9,0.8-2.2,3.2-2.9C405.7,193.4,405.9,193.4,406,193.4 M406,192.9
	c-0.2,0-0.4,0-0.5,0.1c-3.5,1-2.7,1.4-4.4,5.5c-0.6,0.9-1.5,1.7-2.4,2.3l1,6.6c1.1-1.1,2.4-2,3.8-2.7c2.7-1,2.1-4.1,2.1-4.1
	s0.6,1.5,1.9,1.5c0.3,0,0.6-0.1,0.9-0.2C410.2,201,409.1,192.9,406,192.9L406,192.9z"/>
<path class="st11" d="M427.3,247.5c0,0-1.7,6.8,0,6.4s1-2.1,1-2.1s3.6,7,5.5,5c1.9-2-2-11.2-2-11.2L427.3,247.5z"/>
<polygon class="st7" points="662.3,469.2 662.3,476.8 658.2,476.8 658.2,474.9 655.6,476.8 636.6,476.8 636.6,476.8 653.5,469.2 "/>
<polygon class="st7" points="621.3,463.4 621.3,471 617.2,471 617.2,469.1 614.7,471 595.6,471 595.6,471 612.5,463.4 "/>
<polygon class="st10" points="611.5,329.2 613.1,463.4 620.6,463.4 644.1,329.2 "/>
<polygon class="st10" points="619.9,329.8 654.1,469.8 661.3,469.8 652.9,329.2 "/>
<polygon class="st9" points="613.4,261.7 607.5,276 606.3,296.9 595.6,294.1 594.6,301.5 614.8,314 631.6,271.6 "/>
<polygon class="st15" points="611.2,332.5 608.4,280.7 613.4,261.7 622.7,257.2 636.8,257.2 654.7,262.7 658.6,285.7 653.4,332 "/>
<path class="st16" d="M637.4,283.8c0,0,0.3-3.9,1.2-4.1s1.9-0.1,1.9,1.1c-0.1,1.2-0.4,2.4-0.7,3.6L637.4,283.8z"/>
<polygon class="st17" points="632.6,313 637.1,283.1 640.5,283.6 "/>
<path class="st1" d="M644.4,310.1c-0.9-0.4-3.5-1.4-5.1-1.9c-1.8-0.5-2.9-2.2-2.6-4c0-0.1,0-0.2-0.2-0.3h-0.1c-0.1,0-0.2,0-0.2,0.1
	c-0.4,0.6-1.1,1-1.8,1c-0.5,0-0.9-0.1-1.4-0.3c-1-0.4-1.3-3-0.8-5.7c0.5-2.3,1.7-5,3.5-5c0.2,0,0.4,0,0.6,0.1
	c3.2,0.9,3.4,1.4,4.3,3.8c0.3,0.8,0.6,1.7,1.1,2.9s2.4,2.3,2.9,2.6L644.4,310.1z"/>
<path d="M635.9,294.3c0.2,0,0.4,0,0.5,0.1c3.1,0.9,3.2,1.2,4.1,3.6c0.3,0.8,0.6,1.7,1.1,2.9c0.7,1.1,1.7,2.1,2.9,2.6l-0.4,6.2
	c-1.1-0.4-3.3-1.3-4.8-1.8c-1.6-0.4-2.6-2-2.4-3.7c0-0.2-0.1-0.5-0.3-0.6c-0.1,0-0.1,0-0.2,0c-0.2,0-0.4,0.1-0.4,0.3
	c-0.3,0.5-1,0.9-1.6,0.8c-0.4,0-0.9-0.1-1.3-0.3c-0.7-0.3-1.2-2.6-0.6-5.4C633,296.9,634.2,294.3,635.9,294.3 M635.9,293.8
	c-3.9,0-5.2,10.2-2.9,11.1c0.5,0.2,0.9,0.3,1.5,0.3c0.8,0,1.6-0.4,2-1.1c-0.3,1.9,0.9,3.7,2.7,4.2c2,0.7,5.4,2,5.4,2l0.5-7.2
	c0,0-2.4-1.2-3-2.6c-2.2-5.1-1.2-5.6-5.6-6.9C636.3,293.8,636,293.8,635.9,293.8L635.9,293.8z"/>
<path class="st11" d="M654.6,262.5l4.4,3.9l12,46.4c1.3,3-0.2,6.5-3.2,7.7c-0.7,0.3-1.5,0.5-2.3,0.5l-23.2-10.8l1.2-7.7l10.8,1.5
	l-9.9-24.9l2.8-13.1L654.6,262.5z"/>
<path class="st9" d="M637.2,257.3c0.8-1,0-11.2,0-11.2h-9.9l1.1,12.9C628.4,259,635.2,260.1,637.2,257.3z"/>
<polygon class="st9" points="639.1,253.4 645,259 636.4,269 631,260.3 629.8,260.1 623.3,267.8 622.5,260.3 627,254.6 630.4,258.4 
	"/>
<g id="Layer_9-2">
	<path class="st9" d="M616.5,234.7c0.5-5.4-0.1-5.4,0.6-8c1.2-4.2,2.5-8.8,5.9-11.5c2-1.4,4.3-2.5,6.7-3.1c1.7-0.7,3.5-1,5.4-1.1
		c1.6,0,3.1,0.3,4.5,0.9c4.1,1.5,7.5,4.4,9.7,8.2c5.4,10.3-1.2,21.1-8.6,27.7c-2.8,2.5-8.3,5.1-11.9,4.5
		C618.4,250,616,240,616.5,234.7z"/>
	<path class="st12" d="M629.1,234c2.5-0.8,6-0.4,6.9,1"/>
	<path class="st12" d="M616.4,234.2c1.4-1.6,4.4-1.2,6.3-0.2"/>
	<path class="st9" d="M625.9,245c-0.7-0.3-1.4-0.7-2-1.1c-0.2-0.1-0.3-0.2-0.4-0.4c-0.2-0.4-0.1-0.9,0.1-1.3l1-2.2"/>
	
		<ellipse transform="matrix(0.3052 -0.9523 0.9523 0.3052 210.9989 767.5526)" class="st13" cx="631.5" cy="239.2" rx="1.4" ry="1.1"/>
	
		<ellipse transform="matrix(3.647177e-02 -0.9993 0.9993 3.647177e-02 358.5553 848.9119)" class="st13" cx="619.5" cy="238.5" rx="1.3" ry="1.1"/>
	<path class="st7" d="M643.2,237.1c0,0,3.1-3.7,4.2-1.7c0.4,0.7,0.5,3.8-3.3,6.2c0,0,1.3,1.6,0.3,2.4c0,0,4.8-2.5,9.9-15
		c0,0,1.7-8.6-8.2-14.1c-3.5-8.9-15-9.8-26.6-4c0,0-5.5,6.2-3.2,18.4c0,0-0.8,1,1.4-4c0,0,9,7.3,21.5-1.1
		C639.4,224.2,640.5,227.6,643.2,237.1z"/>
</g>
<path class="st14" d="M630.2,246.4c0,0-2,4.4-6.8,1.2"/>
<line class="st4" x1="654.3" y1="304" x2="663.8" y2="305"/>
<path class="st11" d="M582.1,270.7c0,0,5.9,35.7,17.1,49.9c0,0,19.2,10,27.8,11.5c0,0-13-38.5-15.5-51.5L582.1,270.7z"/>
<path class="st11" d="M586.2,295.7c0,0,3.1-1.8,5,0.7s1.8,6.7,1.1,7.2c-0.5,0.3-1.2,0.3-1.7,0l0.8,2.1
	C591.4,305.7,585.4,305.4,586.2,295.7z"/>
<circle class="st14" cx="631" cy="239.7" r="4.1"/>
<circle class="st14" cx="619.1" cy="239" r="4"/>
<path class="st14" d="M623.1,239.1c0,0,1.3,0.8,3.9,0.3"/>
<line class="st14" x1="635.1" y1="239.7" x2="643.6" y2="236.3"/>
<polygon class="st7" points="69,397.2 69,404.3 72.8,404.3 72.8,402.6 75.3,404.3 93.4,404.3 93.4,404.3 77.3,397.2 "/>
<polygon class="st7" points="116.1,393.6 116.1,400.7 120,400.7 120,399 122.4,400.7 140.5,400.7 140.5,400.7 124.5,393.6 "/>
<polygon class="st8" points="109.6,264 123.5,393.3 116.4,393.3 78.6,264 "/>
<polygon class="st8" points="101.6,264 76.7,397.2 69.9,397.2 70.3,263.4 "/>
<polygon class="st9" points="106.3,202.1 111.4,213.3 116.9,234.1 133.3,226.6 136.6,231.4 107.8,256 90.5,209.2 "/>
<polygon class="st15" points="109.9,267.2 112.6,217.8 107.8,199.8 98.9,195.6 85.6,195.6 68.6,200.8 64.8,222.6 69.8,266.7 "/>
<path class="st11" d="M68.6,200.8l-3.8,3.4l-10.9,41.2c-1.1,2.5,0,5.5,2.6,6.6c0.7,0.3,1.4,0.4,2.1,0.4l30.6-15.9l-1-6.6l-19.3,4.5
	l6.8-19l-2.9-11.7L68.6,200.8z"/>
<path class="st9" d="M90.5,194c-0.7-1,0-10.7,0-10.7h9.4l-1,12.3C99,195.6,92.4,196.6,90.5,194z"/>
<polygon class="st9" points="88.7,190.3 83.2,195.6 89.7,206.2 95.1,197.1 96.6,196.8 99.5,206.2 104.5,196.8 100.3,191.4 
	95.9,195.1 "/>
<g id="Layer_9-3">
	<path class="st9" d="M109.3,173.2c-0.4-4.9,0.1-4.9-0.6-7.2c-1-3.8-2.3-7.9-5.3-10.4c-1.8-1.3-3.9-2.3-6.1-2.8
		c-1.6-0.6-3.2-0.9-4.8-1c-1.4,0-2.8,0.3-4.1,0.8c-3.7,1.3-6.8,4-8.7,7.4c-4.9,9.2,1,19,7.8,24.9c2.5,2.2,7.4,4.6,10.8,4
		C107.6,186.9,109.7,177.9,109.3,173.2z"/>
	<path class="st12" d="M96.4,168.2c-2.3-0.7-5.4-0.4-6.2,0.9"/>
	<path class="st12" d="M108.3,167.9c-1.3-1.4-4-1-5.7-0.1"/>
	<path class="st9" d="M101.2,178.6c0.6-0.3,1.2-0.6,1.8-1c0.1-0.1,0.3-0.2,0.4-0.3c0.2-0.4,0.1-0.8-0.1-1.2l-0.9-2"/>
	<ellipse transform="matrix(0.9523 -0.3052 0.3052 0.9523 -48.3015 37.5075)" class="st13" cx="95.8" cy="173.2" rx="1" ry="1.3"/>
	
		<ellipse transform="matrix(0.9993 -3.647182e-02 3.647182e-02 0.9993 -6.2255 3.9959)" class="st13" cx="106.4" cy="172.6" rx="0.9" ry="1.2"/>
	<path class="st7" d="M83.6,170.6c0,0-2.6-3.1-3.6-1.3c-0.3,0.6,0.4,4.8,4.2,6.4c0,0-2.1,3.8-0.2,5.9c0,0-4.3-2.2-9-13.5
		c0,0-0.8-8,3.7-13.8c8.1-6.8,16.2-7.7,26.7-2.4c0,0,6,5.6,3.9,16.6c0,0-1-4.7-1.6-6.4c0,0-10.2,3.5-15.8-2.9
		C90.3,160.1,85.3,159.8,83.6,170.6z"/>
</g>
<path class="st14" d="M97.5,181.6c0,0,1.8,4,6.1,1.1"/>
<path class="st11" d="M88.2,230c0,0,10.9-5.4,11.8-4.9s-3,4-3,4c0,1.5-0.1,3-0.3,4.5c-0.3,1.3-7.4,2.9-7.4,2.9L88.2,230z"/>
<line class="st14" x1="116.9" y1="234.1" x2="113.5" y2="235.5"/>
<path class="st9" d="M133.3,226.6c0,0,1.4-2.7,1.8-8.5c0.4-5.2,2.2-7.2,3.2-4.7s3.8,10.5-1.7,17.9L133.3,226.6z"/>
<path class="st9" d="M133.3,226.6c0,0,2.4-9.8,3.3-9s0.9,4.7,0,6.5c1.4,2.2,1.4,5.1,0,7.3"/>
<g class="st18">
	<path d="M570.2,225c-3.5-0.8-5.1-3.8-4.1-7.7c0.8-3.5,3.6-5.9,7.3-5c2.4,0.6,4.5,2.5,4.1,5.2l-1.6-0.4c0-1.7-1-3-2.9-3.4
		c-2.9-0.7-4.7,1.4-5.3,4c-0.7,3.1,0.3,5.4,2.9,6c2.1,0.5,3.6-0.4,4.4-2.6l1.6,0.4C575.7,224.4,573.3,225.7,570.2,225z"/>
	<path d="M587.5,228.8l-1.8-0.4l-0.5-4.1l-5.1-1.2l-2.3,3.4l-1.7-0.4l7.7-11l1.8,0.4L587.5,228.8z M584.4,216.8l-3.5,5.1l4.2,1
		L584.4,216.8z"/>
	<path d="M593.7,230.6c-3.5-0.8-5.1-3.8-4.1-7.7c0.8-3.5,3.6-5.9,7.3-5c2.4,0.6,4.5,2.5,4.1,5.2l-1.6-0.4c0-1.7-1-3-2.9-3.4
		c-2.9-0.7-4.7,1.4-5.3,4c-0.7,3.1,0.4,5.4,2.9,6c2.1,0.5,3.6-0.4,4.4-2.6l1.6,0.4C599.1,230.1,596.7,231.4,593.7,230.6z"/>
</g>
<g class="st18">
	<path d="M611.9,187l6.6,9.2l1-11.3l2.2-0.6l3.2,12.1l-1.5,0.4l-2.7-10.1l-1.1,11.1l-1.4,0.4l-6.6-9.1l2.7,10.1l-1.5,0.4l-3.2-12.1
		L611.9,187z"/>
	<path d="M629.8,182.3c2.3-0.6,4.3-0.3,5,2.3c0.4,1.4-0.1,2.8-1.3,3.5c1.8-0.1,2.2,1,2.6,2.5c0.3,1,0.6,2.2,1.5,2.7l-1.8,0.5
		c-0.6-0.5-0.9-1.9-1.1-2.6c-0.6-2-1.3-2.4-3.5-1.8l-3.2,0.8l1.4,5.2l-1.6,0.4l-3.2-12.1L629.8,182.3z M627.5,188.9l3-0.8
		c1.6-0.4,3.1-1,2.6-3c-0.5-1.8-1.9-1.7-3.3-1.4l-3.4,0.9L627.5,188.9z"/>
	<path d="M641.4,179.2c2.3-0.6,4.3-0.3,5,2.3c0.4,1.4-0.1,2.8-1.3,3.5c1.8-0.1,2.2,1,2.6,2.5c0.3,1,0.6,2.2,1.5,2.7l-1.8,0.5
		c-0.6-0.5-0.9-1.9-1.1-2.6c-0.6-2-1.3-2.4-3.5-1.8l-3.2,0.8l1.4,5.2l-1.6,0.4l-3.2-12.1L641.4,179.2z M639.2,185.8l3-0.8
		c1.6-0.4,3.1-1,2.6-3c-0.5-1.8-1.9-1.7-3.3-1.4l-3.4,0.9L639.2,185.8z"/>
</g>
<g class="st18">
	<path d="M671.2,227l-7.6-3.3l5-11.5l1.5,0.7l-4.4,10.2l6.1,2.7L671.2,227z"/>
</g>
<g class="st18">
	<path d="M683.4,220.3l-3.9-1.7l-4.4,10.2l-1.5-0.7l4.4-10.2l-3.9-1.7l0.6-1.3l9.2,4L683.4,220.3z"/>
	<path d="M685.7,219.7l-1.1,11.4l7.7-8.5l1.6,0.7l-9.1,9.7l-1.7-0.8l0.9-13.3L685.7,219.7z"/>
</g>
<g class="st18">
	<path d="M672.9,270.3l-0.3-3.8l-1.8,0.5l-0.2-1l2-0.5l-0.2-2.9l-1.8,0.5l-0.3-0.9l2-0.5l-0.3-3.8l1.1-0.3l0.3,3.8l2.2-0.6l-0.2-3.8
		l1.1-0.3l0.3,3.8l1.8-0.5l0.2,0.9l-2,0.5l0.2,2.9l1.8-0.5l0.3,0.9l-2,0.5l0.3,3.8l-1.1,0.3l-0.3-3.8l-2.2,0.6l0.3,3.8L672.9,270.3z
		 M675.7,261.7l-2.2,0.6l0.2,2.9l2.2-0.6L675.7,261.7z"/>
	<path d="M685.5,260.3c-0.4-1.1-1.3-1.4-2.6-1c-1.1,0.3-1.7,0.9-1.5,1.7c0.3,1,1.4,0.8,2.7,0.8c1.6,0,3.6-0.1,4.1,1.8
		c0.4,1.7-0.7,3.2-2.9,3.8c-2.4,0.6-4-0.1-4.6-2.1l1.4-0.4c0.4,1.3,1.5,1.6,2.9,1.2c1.3-0.3,2-1.1,1.8-2c-0.3-1-1.3-0.9-2.6-0.9
		c-1.6,0-3.7,0.4-4.2-1.7c-0.4-1.6,0.6-2.9,2.7-3.5c2-0.5,3.8,0,4.2,1.9L685.5,260.3z"/>
	<path d="M698.4,263.6c-0.3,0.2-0.6,0.3-0.9,0.4c-0.8,0.2-1.4-0.1-1.6-1c-0.6,1.2-1.5,1.9-2.8,2.2c-1.7,0.5-3.1-0.2-3.5-1.8
		c-0.4-1.6,0.4-2.8,2.4-3.6c2-0.8,2.8-0.9,2.4-2.1c-0.2-0.9-1.1-1.3-2.4-0.9c-1.3,0.4-1.9,1-1.7,2.4l-1.4,0.4
		c-0.4-1.9,0.6-3.4,2.9-3.9c1.2-0.3,2.3-0.3,3,0.1c0.8,0.4,1,1.3,1.2,2.1c0.3,1.3,0.6,2.6,1,3.9c0.2,0.6,0.4,0.8,0.8,0.7
		c0.1,0,0.2-0.1,0.3-0.1L698.4,263.6z M693,260.7c-1,0.4-2.4,0.9-2.1,2.3c0.2,0.9,1,1.3,2.1,1c1.4-0.4,2.4-1.6,2.1-2.8l-0.4-1.6
		C694.4,260.2,693.7,260.5,693,260.7z"/>
	<path d="M701.3,262.9l-1.5,0.4l-3.2-12.1l1.5-0.4L701.3,262.9z"/>
	<path d="M707.3,261.6c-2.6,0.7-4.6-0.6-5.3-3.5c-0.7-2.8,0.4-5.2,2.8-5.8c2.9-0.8,4.6,1.3,5.3,3.8l0.1,0.2l-6.6,1.7v0.1
		c0.5,1.9,1.8,2.7,3.5,2.3c1.3-0.3,1.8-1.1,1.9-2.5l1.4-0.4C710.4,259.7,709.4,261.1,707.3,261.6z M705.1,253.5
		c-1.4,0.4-2.1,1.6-1.9,3.3l5.1-1.3C707.7,253.9,706.5,253.1,705.1,253.5z"/>
	<path d="M716.1,252.4c-0.4-1.1-1.3-1.4-2.6-1c-1.1,0.3-1.7,0.9-1.5,1.7c0.3,1,1.4,0.8,2.7,0.8c1.6,0,3.6-0.1,4.1,1.8
		c0.4,1.7-0.7,3.2-2.9,3.8c-2.4,0.6-4-0.1-4.6-2.1l1.4-0.4c0.4,1.3,1.5,1.6,2.9,1.2c1.3-0.3,2-1.1,1.8-2c-0.3-1-1.3-0.9-2.6-0.9
		c-1.6,0-3.7,0.4-4.2-1.7c-0.4-1.6,0.6-2.9,2.7-3.5c2-0.5,3.8,0,4.2,1.9L716.1,252.4z"/>
</g>
<g class="st18">
	<path d="M559.1,267.7l-1.8,0.5l-2.3-3.3l-5.1,1.4l-0.4,4.1l-1.7,0.5l1.5-13.4l1.8-0.5L559.1,267.7z M550.6,258.6l-0.6,6.2l4.1-1.1
		L550.6,258.6z"/>
	<path d="M562.4,253.8c2.3-0.6,4.3-0.4,5,2.2c0.4,1.4-0.1,2.8-1.3,3.5c1.8-0.1,2.2,1,2.6,2.5c0.3,1,0.6,2.2,1.5,2.6l-1.8,0.5
		c-0.6-0.5-0.9-1.9-1.1-2.6c-0.7-2-1.3-2.4-3.5-1.8l-3.2,0.9l1.4,5.2l-1.6,0.4l-3.3-12.1L562.4,253.8z M560.1,260.4l3-0.8
		c1.6-0.4,3.1-1,2.6-3c-0.5-1.8-1.9-1.7-3.3-1.3l-3.4,0.9L560.1,260.4z"/>
</g>
<g class="st18">
	<path d="M573.7,250.7c2.3-0.6,4.3-0.1,5,2.4c0.7,2.7-0.8,4.1-3.1,4.8l-3.3,0.9l1.3,5l-1.6,0.4l-3.3-12.1L573.7,250.7z M571.9,257.4
		l3.1-0.8c1.5-0.4,2.6-1.2,2.1-2.9c-0.5-1.9-2-1.8-3.6-1.4l-2.9,0.8L571.9,257.4z"/>
</g>
<g class="st18">
	<path d="M591.5,258.9l-1.8,0.5l-2.3-3.3l-5.1,1.4l-0.4,4.1l-1.7,0.5l1.5-13.4l1.8-0.5L591.5,258.9z M583,249.8l-0.6,6.2l4.1-1.1
		L583,249.8z"/>
</g>
<polyline class="st19" points="527.5,112.9 527.5,214.6 460.5,240.6 "/>
<polygon class="st5" points="527.5,107.2 523,116.4 532,113.3 "/>
<polygon class="st5" points="466,234.2 458.4,241.9 466,244 "/>
<polygon class="st15" points="479,228.9 471.8,231.6 471.8,147.9 479,145.3 "/>
<polygon class="st15" points="493.1,223.8 485.8,226.4 485.8,154.8 493.1,152.1 "/>
<polygon class="st15" points="507.1,218.6 499.9,221.2 499.9,169.6 507.1,166.9 "/>
<polygon class="st15" points="521.2,213.4 513.9,216.1 513.9,184.4 521.2,181.7 "/>
<path class="st15" d="M542.4,104.4c-0.2,1.4-1.2,2.5-2.5,2.9c-1.4,0.4-2.5-0.2-2.5-1.3c0.2-1.4,1.2-2.5,2.5-2.9
	C541.3,102.7,542.4,103.3,542.4,104.4z"/>
<path class="st15" d="M540.8,107.6c-0.7,0.1-1.3,0.3-1.9,0.6c-3.5,1.5-5.6,5.2-5.2,9c0.2,1.3,2.7,0.5,2.5-0.8
	c-0.2-1.4,0-2.9,0.6-4.2v4.4v0.1c0,0,0,0,0,0.1c0,3.5,0,5.4-0.2,8.9c-0.1,1.6,2.8,0.7,2.9-0.9c0.1-2.8,0.2-3.9,0.2-6.7l0.4-0.1
	c0,2.7,0,3.9,0.2,6.5c0.1,1.5,3,0.6,2.9-0.9c-0.2-3.4-0.2-5.3-0.2-8.8c0-0.1,0-0.2,0-0.3c0-1.5-0.1-3-0.1-4.5c0.9,0.9,0.9,2.8,0.8,4
	s2.3,0.6,2.5-0.8C546.6,110.2,545.2,106.5,540.8,107.6L540.8,107.6z"/>
<path class="st15" d="M447.9,237.6c-4.6,1.4-8.3,5.6-8.2,9.5s3.9,5.8,8.5,4.4s8.3-5.6,8.2-9.5S452.6,236.2,447.9,237.6z
	 M451.3,247.2c-0.6,0.7-1.4,1.3-2.4,1.6v1.3l-1.3,0.4v-1.3c-1.7,0.4-2.8-0.1-3.3-1.5l2-1.1c0.2,0.9,0.9,1.2,1.9,0.9
	c0.4-0.1,0.8-0.3,1.1-0.6c0.2-0.2,0.3-0.5,0.3-0.9c0-0.3-0.1-0.5-0.4-0.6c-0.5-0.1-1.1-0.1-1.6-0.1c-0.6,0-1.2,0-1.7-0.1
	c-0.4-0.1-0.7-0.3-1-0.6s-0.4-0.7-0.4-1.2c0-0.7,0.2-1.4,0.6-2c0.5-0.7,1.3-1.3,2.1-1.6v-1l1.3-0.4v1c1.5-0.3,2.5,0.1,2.9,1.2
	l-1.8,1.2c-0.2-0.7-1-1-1.7-0.8c-0.3,0.1-0.7,0.3-0.9,0.6c-0.2,0.2-0.3,0.5-0.3,0.8c0,0.2,0.1,0.5,0.4,0.5c0.5,0.1,0.9,0.1,1.4,0.1
	c0.6,0,1.2,0,1.9,0.1c0.4,0.1,0.8,0.2,1.1,0.6c0.3,0.3,0.4,0.8,0.4,1.2C452.1,245.8,451.8,246.6,451.3,247.2L451.3,247.2z"/>
<polyline class="st19" points="159.6,164.4 159.6,265 248,242.1 "/>
<polygon class="st5" points="159.6,158.6 155.1,167.8 164.1,164.8 "/>
<polygon class="st5" points="247,238.2 254.4,239.7 247.3,246 "/>
<line class="st19" x1="177.5" y1="260.4" x2="177.5" y2="252.4"/>
<line class="st19" x1="160.1" y1="247.1" x2="168.1" y2="245.1"/>
<line class="st19" x1="160.1" y1="225.5" x2="168.1" y2="223.5"/>
<line class="st19" x1="160.1" y1="203.8" x2="168.1" y2="201.8"/>
<line class="st19" x1="160.1" y1="182.2" x2="168.1" y2="180.2"/>
<line class="st19" x1="196.9" y1="255.4" x2="196.9" y2="247.4"/>
<line class="st19" x1="216.4" y1="250.4" x2="216.4" y2="242.5"/>
<line class="st19" x1="235.8" y1="245.3" x2="235.8" y2="237.3"/>
<polygon class="st10" points="167.2,249.9 170.7,251.4 180.4,233.1 190.1,241.2 202.3,214.6 210.3,228.4 249.6,169.5 247.1,167.6 
	210.3,222.3 202.1,208.8 189.2,235.9 179.9,228.8 "/>
<polygon class="st10" points="242.7,166.6 251.9,173 253.2,161.1 "/>
<g class="st18">
	<path d="M161.8,270.6l2.1,8.9l2.4-10.1l1.6-0.4l2.4,8.8l2.2-10.1l1.4-0.4l-2.9,12.1l-1.5,0.4L167,271l-2.5,10.2l-1.5,0.4l-2.8-10.6
		L161.8,270.6z"/>
</g>
<g class="st18">
	<path d="M177.5,278c-2.3,0.6-3.7-0.6-3.7-3.3c0-2.7,1.5-4.8,3.6-5.4c2.6-0.7,3.5,1.2,3.5,3.6v0.2l-5.9,1.5v0.1
		c0,1.8,0.9,2.6,2.4,2.2c1.1-0.3,1.7-1,2.1-2.3l1.3-0.3C180.5,276.3,179.3,277.6,177.5,278z M177.4,270.5c-1.3,0.3-2.1,1.5-2.3,3.1
		l4.5-1.2C179.5,270.8,178.7,270.1,177.4,270.5z"/>
	<path d="M183.6,269.1c0.6-1.1,1.5-1.8,2.6-2c2.1-0.6,3.5,0.8,3.5,3.4c0,2.7-1.4,4.8-3.6,5.3c-1.1,0.3-2.1,0.1-2.6-0.8v1.2l-1.2,0.3
		v-11.3l1.3-0.3V269.1z M183.6,272.1c0,1.9,0.9,2.9,2.4,2.5c1.4-0.4,2.4-1.9,2.4-3.9c0-1.9-0.9-2.9-2.4-2.5
		C184.2,268.7,183.6,270.5,183.6,272.1z"/>
	<path d="M195.8,267.1c-0.1-1.1-0.8-1.3-1.9-1c-1,0.3-1.6,0.8-1.6,1.5c0,0.9,1,0.8,2.1,0.8c1.3,0,3-0.1,3,1.7c0,1.6-1.3,3-3.2,3.5
		c-2.1,0.6-3.3-0.1-3.4-2l1.3-0.3c0.1,1.2,0.9,1.5,2.1,1.2c1.2-0.3,1.9-1,1.9-1.9s-0.9-0.9-2-0.9c-1.3,0-3.1,0.3-3.1-1.6
		c0-1.5,1.2-2.7,3-3.2s3.1,0.1,3.1,1.8L195.8,267.1z"/>
	<path d="M200.3,262.1l-1.3,0.3v-1.7l1.3-0.3V262.1z M200.3,271.8l-1.3,0.3v-8.2l1.3-0.3V271.8z"/>
	<path d="M205.6,263.3l-1.6,0.4v4.8c0,0.7,0,1.2,0.9,1c0.3-0.1,0.4-0.1,0.7-0.2v1.2c-0.4,0.2-0.6,0.2-1,0.3c-2,0.5-1.9-0.5-1.9-2.3
		v-4.4l-1.3,0.3v-1.1l1.3-0.3v-2.4l1.3-0.3v2.4l1.6-0.4V263.3z"/>
	<path d="M210.3,269.4c-2.3,0.6-3.7-0.6-3.7-3.3c0-2.7,1.5-4.8,3.6-5.4c2.6-0.7,3.5,1.2,3.5,3.6v0.2l-5.9,1.5v0.1
		c0,1.8,0.9,2.6,2.4,2.2c1.1-0.3,1.7-1,2.1-2.3l1.3-0.3C213.3,267.7,212.1,268.9,210.3,269.4z M210.2,261.8
		c-1.3,0.3-2.1,1.5-2.3,3.1l4.5-1.2C212.3,262.2,211.5,261.5,210.2,261.8z"/>
</g>
<g class="st18">
	<path d="M219.9,255.3l3.1,9.1l3.1-10.7l1.5-0.4l-3.8,12.4l-1.6,0.4l-3.8-10.3L219.9,255.3z"/>
</g>
<g class="st18">
	<path d="M229.7,254.4l-1.3,0.3V253l1.3-0.3V254.4z M229.7,264l-1.3,0.3v-8.1l1.3-0.3V264z"/>
	<path d="M236.2,256.5c-0.1-1.1-0.8-1.3-1.9-1c-1,0.3-1.6,0.8-1.6,1.5c0,0.9,1,0.8,2.1,0.8c1.3,0,3-0.1,3,1.7c0,1.6-1.3,3-3.2,3.5
		c-2.1,0.6-3.3-0.1-3.4-2l1.3-0.3c0.1,1.2,0.9,1.5,2.1,1.2c1.2-0.3,1.9-1,1.9-1.9s-0.9-0.9-2-0.9c-1.3,0-3.1,0.3-3.1-1.6
		c0-1.5,1.2-2.7,3-3.2s3.1,0.1,3.1,1.8L236.2,256.5z"/>
	<path d="M240.6,251.5l-1.3,0.3v-1.6l1.3-0.3V251.5z M240.6,261.2l-1.3,0.3v-8.2l1.3-0.3V261.2z"/>
	<path d="M245.9,252.7l-1.6,0.4v4.8c0,0.7,0,1.2,0.9,1c0.3-0.1,0.4-0.1,0.7-0.2v1.2c-0.4,0.2-0.6,0.2-1,0.3c-2,0.5-1.9-0.5-1.9-2.3
		v-4.4l-1.3,0.3v-1.1l1.3-0.3V250l1.3-0.3v2.4l1.6-0.4V252.7z"/>
	<path d="M254.5,253.3c0,2.8-1.4,4.8-3.8,5.4c-2.4,0.6-3.8-0.6-3.8-3.3c0-2.7,1.5-4.8,3.8-5.4C253.1,249.4,254.5,250.6,254.5,253.3z
		 M248.3,255c0,2,0.9,3,2.5,2.6c1.5-0.4,2.4-1.8,2.4-3.9c0-2-0.9-3-2.5-2.6C249.2,251.6,248.3,253.1,248.3,255z"/>
	<path d="M260.1,249c-0.1,0-0.2,0-0.3,0.1c-2.1,0.6-2.5,2.4-2.5,4.2v3.5l-1.3,0.3v-8.2l1.2-0.3v1.8c0.5-1.5,1.5-2.4,2.9-2.7
		L260.1,249L260.1,249z"/>
	<path d="M265.6,248.8c-0.1-1.1-0.8-1.3-1.9-1c-1,0.3-1.6,0.8-1.6,1.5c0,0.9,1,0.8,2.1,0.8c1.3,0,3-0.1,3,1.7c0,1.6-1.3,3-3.2,3.5
		c-2.1,0.6-3.3-0.1-3.4-2l1.3-0.3c0.1,1.2,0.9,1.5,2.1,1.2c1.2-0.3,1.9-1,1.9-1.9s-0.9-0.9-2-0.9c-1.3,0-3.1,0.3-3.1-1.6
		c0-1.5,1.2-2.7,3-3.2s3.1,0.1,3.1,1.8L265.6,248.8z"/>
</g>
</svg>
