<svg version="1.1" id="Layer_1" xmlns="http://www.w3.org/2000/svg" x="0" y="0" viewBox="0 0 877.2 866" xml:space="preserve"><style>.st2{opacity:.5;fill:#6d6e71;enable-background:new}.st7,.st8,.st9{fill:#fff;stroke:#000;stroke-width:.5;stroke-miterlimit:10}.st8,.st9{fill:#eb058c}.st9{fill:#0077bf}.st12{fill:#1a1a1a}.st13{fill:none;stroke:#000;stroke-width:.5;stroke-miterlimit:10}.st16{enable-background:new}</style><path d="M601.5 661.8c12.4 60.3-22 143.9-165 182.9-97.5 26.6-282.7 7.5-377-146.1 0 0-74.9-124.9-39.4-339.3 0 0 47.5-159.7 183-249 97.1-64 232-132.2 459.7-69.8 0 0 264.3 52.7 184.9 279.7 0 0-44.3 79.4-154.3 93.9 0 0-136.9 29.2-91.9 247.7z" fill="#fff" id="Layer_7"/><path fill="#d3d3d3" stroke="#000" stroke-width=".5" stroke-miterlimit="10" d="M126.8 660.4h174.4v163H126.8z"/><path class="st2" d="M301.2 782.9l-40-43.3v-79.1h40z"/><path fill="#d8d8d8" stroke="#000" stroke-width=".5" stroke-miterlimit="10" d="M261.2 575.8h174.5v163H261.2z"/><path class="st2" d="M435.7 698.4l-40-43.4v-79.1h40z"/><path fill="#e3e4e5" stroke="#000" stroke-width=".5" stroke-miterlimit="10" d="M395.7 491.3h174.5v163H395.7z"/><path class="st2" d="M570.1 613.8l-40-43.3v-79.1h40z"/><path fill="#f2f2f2" stroke="#000" stroke-width=".5" stroke-miterlimit="10" d="M530.1 406.7h174.5v163H530.1z"/><path class="st2" d="M704.6 529.3l-40-43.4v-79.1h40z"/><path fill="#fafbfc" stroke="#000" stroke-width=".5" stroke-miterlimit="10" d="M664.6 322.2h174.5v163H664.6z"/><path class="st7" d="M764.1 153.1c-32.7 0-59.1 26.5-59.1 59.2s26.5 59.1 59.2 59.1 59.1-26.5 59.1-59.2-26.5-59.1-59.2-59.1z"/><path class="st8" d="M764.2 199.5c-7 0-12.7 5.7-12.7 12.7 0 7 5.7 12.7 12.7 12.7 7 0 12.7-5.7 12.7-12.7 0-7-5.7-12.7-12.7-12.7z"/><path class="st8" d="M764.1 172.3c-22.1 0-40 17.9-40 40s17.9 40 40 40 40-17.9 40-40-17.9-40-40-40zm0 64.6c-13.6 0-24.7-11-24.7-24.6 0-13.6 11-24.7 24.6-24.7s24.7 11 24.7 24.6c.1 13.6-10.9 24.7-24.6 24.7z"/><path class="st8" d="M764.1 144.6c-37.3 0-67.6 30.3-67.6 67.7s30.3 67.6 67.7 67.6c37.3 0 67.6-30.3 67.6-67.7-.1-37.3-30.4-67.5-67.7-67.6zm.1 119.9c-28.9 0-52.3-23.4-52.3-52.2s23.4-52.3 52.2-52.3c28.8 0 52.2 23.4 52.3 52.2 0 28.9-23.3 52.3-52.2 52.3z"/><path class="st7" d="M276 243.1l3.5-13.7s10.1 4.8 13.1 3.1l2.3 18.1c-.1.1-16.6-1.7-18.9-7.5z"/><path class="st9" d="M311.2 347.7l100.4 7.5 90.1 68.4-9.6 12.5-90.3-54.6-85.2 14.2z"/><path class="st9" d="M328.1 344.8s-2 32.4-2.1 50.7c-.1 19-4.4 70.9-4.4 70.9l-33.4 98.2-16.8.5 20.3-113.7-6.3-100.4 42.7-6.2z"/><path class="st7" d="M251.8 259.5l20.4-21.4 18.5 6 4.1-6.9 21.3 7.7 33.1-13.8 17.5-41h7.5L362 238.9l-42.6 37.5 22.6 73.4-56.1 15.8-20.4-62"/><path d="M248.5 262.9s17.2 29.8 16.1 44.1l13.3 38.6 25.2 8.9 16-16.3 20.5 5.1-20.3-66.9-3.3-31.5-8.9-3.2-6.2 9.8-10.2-7.3-6.3 10.6-18.6-9.9-17.3 18z" fill="#ffe600" stroke="#000" stroke-width=".5" stroke-miterlimit="10"/><path class="st7" d="M151.7 346.8l33.2 10.3-49.6 29.2-33.2-10.2z"/><path class="st8" d="M139.7 353.9l33.2 10.2 12.1-7-33.3-10.3zM120.9 365l33.2 10.2 12-7.1-33.2-10.2z"/><path class="st7" d="M184.7 402.8l7.2-34-49.7 29.2-7.2 34z"/><path class="st8" d="M153.8 421l7.2-34 12.1-7.1-7.3 34z"/><path fill="#a3a3a3" stroke="#000" stroke-width=".5" stroke-miterlimit="10" d="M465 200.2l-3.5-5.8-330.3 194.3 3.5 5.9 3.4 5.8 330.3-194.3z"/><path class="st8" d="M102.1 376.1l33.2 10.2 12-7.1-33.2-10.2zM172.6 409.9l7.2-34 12.1-7.1-7.2 34zM135 432l7.2-34 12-7-7.2 34z"/><path class="st9" d="M507.6 175.2l-46.4 50.6-20.4-34.7z"/><path class="st7" d="M302.4 327.9s17.6 3.6 19.8-.2c3.6-6.2-12.9-6-10.9-8.4 2.7-3.2-1.6-3.1-8.9-1.1v9.7zM248.5 262.9l-12.8 58.9c-.6 2.7 1.1 5.4 3.8 5.9.3.1.7.1 1 .1h61.8v-9.5l-45-7.4 9.6-32.7-12.4-21.8-6 6.5zM295.1 185.2c3.6.4 7.8 7.2 8.3 11.9s.7 12.9 2.5 13.4c.9.2 1.8.5 2.6.9.6.7-1 2.7-2.2 3.4-2 1.2-.8 17.5-12.9 19.2s-22.7-5.4-25.1-15.5-6.5-37.3 26.8-33.3z"/><path class="st12" d="M265.4 182.1s3.8-8.6 13.6-8.2 24.1 8.7 27 6.1 7.1 6.4 3.8 9.4c-2.2 2-4.5 3.8-6.9 5.5 0 0-5.4-5.4-10.9-4.2s-11.6 2.3-13.6.2c0 0 4.6 12.4-1.7 16-1.6.9-4-1.7-4.7-.9-2.1 2.4.7 7.8 2.6 10.4 0 0-5.8 5.6-3.9 8.1s-6.8.4-11-9.2-5.6-30.1 5.7-33.2z"/><path class="st13" d="M302.6 221c-3.6-.7-6.8-3.9-6.8-3.9s-.1 6 2.3 6.7 4.5-2.8 4.5-2.8zM293.9 217.1c.1-.6.5-1.1 1-1.5"/><path d="M291.9 201.7s4-2.9 7.7-2.6" fill="none" stroke="#000" stroke-miterlimit="10"/><path class="st12" d="M491.9 436.4l9 6.9 3.7-4.9-2.2-1.7 4.6-1.4 17.2-22.7-24.3 13.4zM272.7 564.4v11.4h6.1V573l3.9 2.8h28.5l-25.3-11.3z"/><path d="M292.8 205.4s3.6-2.8 6.9-.9c-1.5.2-2.8.9-3.9 1.9" fill="none" stroke="#000" stroke-width=".5" stroke-linejoin="round"/><path class="st7" d="M366.7 190.1s-2.7-9.7-.6-10.2c.9-.3 1.2-.1 1.8 1.8 0 0 3-10.6 7.7-8.9 4 1.5-1.4 17.4-1.4 17.4l-7.5-.1z"/><g class="st16"><path d="M165.8 782.4c0 4.8-1.5 8.5-7.4 8.5-5.5 0-7.7-2.8-7.7-8.1v-1h3.3v.9c0 3 .6 5.3 4.3 5.3 3.9 0 4-2.9 4-6v-17.4h3.4v17.8zM187.3 790.2c-.6.3-1.4.4-2.1.4-1.7 0-2.7-1-2.7-2.7-1.8 2.1-3.9 3-6.7 3-3.7 0-5.9-2-5.9-5.3s2.2-5.3 6.6-5.8c4.4-.5 5.9-.4 5.9-3 0-2-1.5-3.1-4.2-3.1-2.8 0-4.3 1-4.6 3.8h-3c.1-4 3-6.3 7.8-6.3 2.5 0 4.6.6 5.8 1.8 1.3 1.3 1.3 3.2 1.3 4.8 0 2.8-.1 5.5-.1 8.3 0 1.4.3 1.8 1.3 1.8.3 0 .4 0 .8-.1v2.4zm-9.1-8.4c-2.2.3-5.3.5-5.3 3.5 0 1.9 1.4 3.1 3.7 3.1 2.9 0 5.7-2 5.7-4.4v-3.4c-1.1.9-2.7 1-4.1 1.2zM193 774.6c1.5-2.3 3.5-3.4 6.3-3.4 4.5 0 6.2 2.5 6.2 6.7v12.3h-3.1v-10.9c0-3-.1-5.5-4-5.5-4 0-5.3 3-5.3 6.7v9.7H190v-18.6h2.9v3zM225.6 790.3h-2.8v-2.9c-1.6 2.3-3.7 3.4-6.4 3.4-3.9 0-6.2-2.2-6.2-6.3v-12.8h3.1v12c0 2.7.8 4.5 3.9 4.5 4 0 5.4-2.9 5.4-6.7v-9.7h3.1v18.5zM246.6 790.2c-.6.3-1.4.4-2.1.4-1.7 0-2.7-1-2.7-2.7-1.8 2.1-3.9 3-6.7 3-3.7 0-5.9-2-5.9-5.3s2.2-5.3 6.6-5.8c4.4-.5 5.9-.4 5.9-3 0-2-1.5-3.1-4.2-3.1-2.8 0-4.3 1-4.6 3.8h-3c.1-4 3-6.3 7.8-6.3 2.5 0 4.6.6 5.8 1.8 1.3 1.3 1.3 3.2 1.3 4.8 0 2.8-.1 5.5-.1 8.3 0 1.4.3 1.8 1.3 1.8.3 0 .4 0 .8-.1v2.4zm-9-8.4c-2.2.3-5.3.5-5.3 3.5 0 1.9 1.4 3.1 3.7 3.1 2.9 0 5.7-2 5.7-4.4v-3.4c-1.2.9-2.7 1-4.1 1.2zM259.2 774.5h-.8c-5 0-5.9 3.9-5.9 8v7.8h-3.1v-18.6h2.9v4c1.3-3.1 3.6-4.4 6.9-4.4v3.2zM268.9 792.7c-1 2.6-2.1 5.1-5.4 5.1-.8 0-1.5-.1-2.3-.3v-2.7c1 .3 1.4.4 2 .4 1 0 1.8-.7 2.2-1.5l1.4-3.4-7.4-18.5h3.5l5.5 14.8 5.2-14.8h3.2l-7.9 20.9z"/></g><g class="st16"><path d="M440.4 595l8.2 21.7 8-21.7h4.7v25.6h-3.2v-21.4l-8 21.4h-3l-8.2-21.4v21.4h-3.2V595h4.7zM482.9 620.6c-.6.3-1.4.4-2.1.4-1.7 0-2.7-1-2.7-2.7-1.8 2.1-3.9 3-6.7 3-3.7 0-5.9-2-5.9-5.3s2.2-5.3 6.6-5.8c4.4-.5 5.9-.4 5.9-3 0-2-1.5-3.1-4.2-3.1-2.8 0-4.3 1-4.6 3.8h-3c.1-4 3-6.3 7.8-6.3 2.5 0 4.6.6 5.8 1.8 1.3 1.3 1.3 3.2 1.3 4.8 0 2.8-.1 5.5-.1 8.3 0 1.4.3 1.8 1.3 1.8.3 0 .4 0 .8-.1v2.4zm-9-8.5c-2.2.3-5.3.5-5.3 3.5 0 1.9 1.4 3.1 3.7 3.1 2.9 0 5.7-2 5.7-4.4V611c-1.1.9-2.7.9-4.1 1.1z"/></g><path d="M495.5 604.8h-.8c-5 0-5.9 3.9-5.9 8v7.8h-3.1V602h2.9v4c1.3-3.1 3.6-4.4 6.9-4.4v3.2z"/><g class="st16"><path d="M505 621.2c-5.8 0-8.8-3.9-8.8-9.6 0-6.2 3.5-10.1 8.9-10.1 4.5 0 7.4 2.4 7.9 6.6h-3.2c-.5-2.6-2.2-4-4.7-4-3.5 0-5.8 2.8-5.8 7.3s2.1 7.3 5.5 7.3c2.8 0 4.6-1.7 5.1-4.8h3.1c-.4 4.4-3.4 7.3-8 7.3zM519.6 604.7c1.4-2.1 3.4-3.1 6.1-3.1 4.4 0 6.3 2.4 6.3 6.3v12.7h-3.1v-12c0-2.6-.8-4.4-4.1-4.4-3.9 0-5.2 2.7-5.2 6.9v9.4h-3.1V595h3.1v9.7z"/></g><g class="st16"><path d="M603.1 536.1h-3.8l-2.8-7.8h-10.8l-2.9 7.8h-3.6l10.1-25.6h3.8l10 25.6zm-12-22.4l-4.4 11.8h8.8l-4.4-11.8zM608 520.1c1.4-2.3 3.5-3.2 6.3-3.2 5.2 0 8.5 3.7 8.5 9.8 0 6-3.2 9.9-8.3 9.9-2.7 0-4.6-.9-6.2-3.1v9.8h-3.1v-25.7h2.9v2.5zm.1 6.6c0 4.5 2.2 7.2 5.8 7.2 3.5 0 5.7-2.8 5.7-7.2 0-4.5-2.2-7.2-5.8-7.2-3.6 0-5.7 2.7-5.7 7.2zM636.2 520.2h-.8c-5 0-5.9 3.9-5.9 8v7.8h-3.1v-18.6h2.9v4c1.3-3.1 3.6-4.4 6.9-4.4v3.2zM641.7 514.2h-3.1v-3.7h3.1v3.7zm0 21.9h-3.1v-18.6h3.1v18.6zM649.7 536.1h-3.1v-25.6h3.1v25.6z"/></g><g class="st16"><path d="M724.7 425.9l8.2 21.7 8-21.7h4.7v25.6h-3.2v-21.4l-8 21.4h-3l-8.2-21.4v21.4H720v-25.6h4.7zM767.3 451.5c-.6.3-1.4.4-2.1.4-1.7 0-2.7-1-2.7-2.7-1.8 2.1-3.9 3-6.7 3-3.7 0-5.9-2-5.9-5.3s2.2-5.3 6.6-5.8c4.4-.5 5.9-.4 5.9-3 0-2-1.5-3.1-4.2-3.1-2.8 0-4.3 1-4.6 3.8h-3c.1-4 3-6.3 7.8-6.3 2.5 0 4.6.6 5.8 1.8 1.3 1.3 1.3 3.2 1.3 4.8 0 2.8-.1 5.5-.1 8.3 0 1.4.3 1.8 1.3 1.8.3 0 .4 0 .8-.1v2.4zm-9.1-8.5c-2.2.3-5.3.5-5.3 3.5 0 1.9 1.4 3.1 3.7 3.1 2.9 0 5.7-2 5.7-4.4v-3.4c-1.1.9-2.7 1-4.1 1.2zM777.6 453.9c-1 2.6-2.1 5.1-5.4 5.1-.8 0-1.5-.1-2.3-.3V456c1 .3 1.4.4 2 .4 1 0 1.8-.7 2.2-1.5l1.4-3.4-7.4-18.5h3.5l5.5 14.8 5.2-14.8h3.2l-7.9 20.9z"/></g><g class="st16"><path d="M296.1 682.5h-13.5v8h11.9v2.8h-11.9v11.8h-3.4v-25.6H296v3zM307.1 705.8c-5.5 0-8.7-3.6-8.7-9.6s3.5-10.1 8.6-10.1c6.1 0 8.4 4.9 8.4 10.2v.4h-14v.2c0 4 2.2 6.3 5.8 6.3 2.7 0 4.1-1.2 5-4h3c-.9 4.4-3.7 6.6-8.1 6.6zm-.2-17.2c-3 0-5.1 2.2-5.5 5.7h10.8c-.3-3.6-2.2-5.7-5.3-5.7zM321.7 689.2c1.4-2.1 3.6-3.1 6.2-3.1 5.1 0 8.4 3.8 8.4 9.7 0 6-3.4 9.9-8.6 9.9-2.6 0-4.9-.9-6.2-3.2v2.7h-2.9v-25.6h3.1v9.6zm-.1 6.8c0 4.4 2.2 7.1 5.8 7.1 3.4 0 5.7-2.9 5.7-7.3s-2.2-7.2-5.7-7.2c-4.3.1-5.8 3.7-5.8 7.4zM349.7 689.3h-.8c-5 0-5.9 3.9-5.9 8v7.8h-3.1v-18.6h2.9v4c1.3-3.1 3.6-4.4 6.9-4.4v3.2zM367.4 705.2h-2.8v-2.9c-1.6 2.3-3.7 3.4-6.4 3.4-3.9 0-6.2-2.2-6.2-6.3v-12.8h3.1v12c0 2.7.8 4.5 3.9 4.5 4 0 5.4-2.9 5.4-6.7v-9.7h3.1v18.5zM388.4 705.1c-.6.3-1.4.4-2.1.4-1.7 0-2.7-1-2.7-2.7-1.8 2.1-3.9 3-6.7 3-3.7 0-5.9-2-5.9-5.3s2.2-5.3 6.6-5.8c4.4-.5 5.9-.4 5.9-3 0-2-1.5-3.1-4.2-3.1-2.8 0-4.3 1-4.6 3.8h-3c.1-4 3-6.3 7.8-6.3 2.5 0 4.6.6 5.8 1.8 1.3 1.3 1.3 3.2 1.3 4.8 0 2.8-.1 5.5-.1 8.3 0 1.4.3 1.8 1.3 1.8.3 0 .4 0 .8-.1v2.4zm-9-8.4c-2.2.3-5.3.5-5.3 3.5 0 1.9 1.4 3.1 3.7 3.1 2.9 0 5.7-2 5.7-4.4v-3.4c-1.1.9-2.7 1-4.1 1.2zM401 689.3h-.8c-5 0-5.9 3.9-5.9 8v7.8h-3.1v-18.6h2.9v4c1.3-3.1 3.6-4.4 6.9-4.4v3.2zM410.7 707.6c-1 2.6-2.1 5.1-5.4 5.1-.8 0-1.5-.1-2.3-.3v-2.7c1 .3 1.4.4 2 .4 1 0 1.8-.7 2.2-1.5l1.4-3.4-7.4-18.5h3.5l5.5 14.8 5.2-14.8h3.2l-7.9 20.9z"/></g></svg>