<?xml version="1.0" encoding="utf-8"?>
<!-- Generator: Adobe Illustrator 22.0.1, SVG Export Plug-In . SVG Version: 6.00 Build 0)  -->
<svg version="1.1" id="Layer_1" xmlns="http://www.w3.org/2000/svg" xmlns:xlink="http://www.w3.org/1999/xlink" x="0px" y="0px"
	 viewBox="0 0 877.2 866" style="enable-background:new 0 0 877.2 866;" xml:space="preserve">
<style type="text/css">
	.st0{fill:#FFFFFF;}
	.st1{fill:#D3D3D3;stroke:#000000;stroke-width:0.5;stroke-miterlimit:10;}
	.st2{opacity:0.5;fill:#6D6E71;enable-background:new    ;}
	.st3{fill:#D8D8D8;stroke:#000000;stroke-width:0.5;stroke-miterlimit:10;}
	.st4{fill:#E3E4E5;stroke:#000000;stroke-width:0.5;stroke-miterlimit:10;}
	.st5{fill:#F2F2F2;stroke:#000000;stroke-width:0.5;stroke-miterlimit:10;}
	.st6{fill:#FAFBFC;stroke:#000000;stroke-width:0.5;stroke-miterlimit:10;}
	.st7{fill:#FFFFFF;stroke:#000000;stroke-width:0.5;stroke-miterlimit:10;}
	.st8{fill:#EB058C;stroke:#000000;stroke-width:0.5;stroke-miterlimit:10;}
	.st9{fill:#0077BF;stroke:#000000;stroke-width:0.5;stroke-miterlimit:10;}
	.st10{fill:#FFE600;stroke:#000000;stroke-width:0.5;stroke-miterlimit:10;}
	.st11{fill:#A3A3A3;stroke:#000000;stroke-width:0.5;stroke-miterlimit:10;}
	.st12{fill:#1A1A1A;}
	.st13{fill:none;stroke:#000000;stroke-width:0.5;stroke-miterlimit:10;}
	.st14{fill:none;stroke:#000000;stroke-miterlimit:10;}
	.st15{fill:none;stroke:#000000;stroke-width:0.5;stroke-linejoin:round;}
	.st16{enable-background:new    ;}
</style>
<title>SRA1</title>
<g>
	<g id="Layer_7">
		<path class="st0" d="M601.5,661.8c12.4,60.3-22,143.9-165,182.9c-97.5,26.6-282.7,7.5-377-146.1c0,0-74.9-124.9-39.4-339.3
			c0,0,47.5-159.7,183-249c97.1-64,232-132.2,459.7-69.8c0,0,264.3,52.7,184.9,279.7c0,0-44.3,79.4-154.3,93.9
			C693.4,414.1,556.5,443.3,601.5,661.8z"/>
	</g>
	<rect x="126.8" y="660.4" class="st1" width="174.4" height="163"/>
	<polygon class="st2" points="301.2,782.9 261.2,739.6 261.2,660.5 301.2,660.5 	"/>
	<rect x="261.2" y="575.8" class="st3" width="174.5" height="163"/>
	<polygon class="st2" points="435.7,698.4 395.7,655 395.7,575.9 435.7,575.9 	"/>
	<rect x="395.7" y="491.3" class="st4" width="174.5" height="163"/>
	<polygon class="st2" points="570.1,613.8 530.1,570.5 530.1,491.4 570.1,491.4 	"/>
	<rect x="530.1" y="406.7" class="st5" width="174.5" height="163"/>
	<polygon class="st2" points="704.6,529.3 664.6,485.9 664.6,406.8 704.6,406.8 	"/>
	<rect x="664.6" y="322.2" class="st6" width="174.5" height="163"/>
	<path class="st7" d="M764.1,153.1c-32.7,0-59.1,26.5-59.1,59.2s26.5,59.1,59.2,59.1s59.1-26.5,59.1-59.2c0,0,0,0,0,0
		C823.3,179.5,796.8,153.1,764.1,153.1z"/>
	<path class="st8" d="M764.2,199.5L764.2,199.5c-7,0-12.7,5.7-12.7,12.7c0,7,5.7,12.7,12.7,12.7c7,0,12.7-5.7,12.7-12.7
		C776.9,205.2,771.2,199.5,764.2,199.5L764.2,199.5z"/>
	<path class="st8" d="M764.1,172.3c-22.1,0-40,17.9-40,40s17.9,40,40,40s40-17.9,40-40C804.1,190.2,786.2,172.3,764.1,172.3z
		 M764.1,236.9c-13.6,0-24.7-11-24.7-24.6c0-13.6,11-24.7,24.6-24.7s24.7,11,24.7,24.6c0,0,0,0,0,0
		C788.8,225.8,777.8,236.9,764.1,236.9L764.1,236.9z"/>
	<path class="st8" d="M764.1,144.6c-37.3,0-67.6,30.3-67.6,67.7s30.3,67.6,67.7,67.6c37.3,0,67.6-30.3,67.6-67.7c0,0,0,0,0,0
		C831.7,174.9,801.4,144.7,764.1,144.6z M764.2,264.5c-28.9,0-52.3-23.4-52.3-52.2s23.4-52.3,52.2-52.3c28.8,0,52.2,23.4,52.3,52.2
		C816.4,241.1,793.1,264.5,764.2,264.5z"/>
	<path class="st7" d="M276,243.1l3.5-13.7c0,0,10.1,4.8,13.1,3.1l2.3,18.1C294.8,250.7,278.3,248.9,276,243.1z"/>
	<polygon class="st9" points="311.2,347.7 411.6,355.2 501.7,423.6 492.1,436.1 401.8,381.5 316.6,395.7 	"/>
	<path class="st9" d="M328.1,344.8c0,0-2,32.4-2.1,50.7c-0.1,19-4.4,70.9-4.4,70.9l-33.4,98.2l-16.8,0.5l20.3-113.7L285.4,351
		L328.1,344.8z"/>
	<polyline class="st7" points="251.8,259.5 272.2,238.1 290.7,244.1 294.8,237.2 316.1,244.9 349.2,231.1 366.7,190.1 374.2,190.1 
		362,238.9 319.4,276.4 342,349.8 285.9,365.6 265.5,303.6 	"/>
	<path class="st10" d="M248.5,262.9c0,0,17.2,29.8,16.1,44.1l13.3,38.6l25.2,8.9l16-16.3l20.5,5.1l-20.3-66.9l-3.3-31.5l-8.9-3.2
		l-6.2,9.8l-10.2-7.3l-6.3,10.6l-18.6-9.9L248.5,262.9z"/>
	<polygon class="st7" points="151.7,346.8 184.9,357.1 135.3,386.3 102.1,376.1 	"/>
	<polygon class="st8" points="139.7,353.9 172.9,364.1 185,357.1 151.7,346.8 	"/>
	<polygon class="st8" points="120.9,365 154.1,375.2 166.1,368.1 132.9,357.9 	"/>
	<polygon class="st7" points="184.7,402.8 191.9,368.8 142.2,398 135,432 	"/>
	<polygon class="st8" points="153.8,421 161,387 173.1,379.9 165.8,413.9 	"/>
	<polygon class="st11" points="465,200.2 461.5,194.4 131.2,388.7 134.7,394.6 138.1,400.4 468.4,206.1 	"/>
	<polygon class="st8" points="102.1,376.1 135.3,386.3 147.3,379.2 114.1,369 	"/>
	<polygon class="st8" points="172.6,409.9 179.8,375.9 191.9,368.8 184.7,402.8 	"/>
	<polygon class="st8" points="135,432 142.2,398 154.2,391 147,425 	"/>
	<polygon class="st9" points="507.6,175.2 461.2,225.8 440.8,191.1 	"/>
	<path class="st7" d="M302.4,327.9c0,0,17.6,3.6,19.8-0.2c3.6-6.2-12.9-6-10.9-8.4c2.7-3.2-1.6-3.1-8.9-1.1L302.4,327.9z"/>
	<path class="st7" d="M248.5,262.9l-12.8,58.9c-0.6,2.7,1.1,5.4,3.8,5.9c0.3,0.1,0.7,0.1,1,0.1h61.8v-9.5l-45-7.4l9.6-32.7
		l-12.4-21.8L248.5,262.9z"/>
	<path class="st7" d="M295.1,185.2c3.6,0.4,7.8,7.2,8.3,11.9s0.7,12.9,2.5,13.4c0.9,0.2,1.8,0.5,2.6,0.9c0.6,0.7-1,2.7-2.2,3.4
		c-2,1.2-0.8,17.5-12.9,19.2s-22.7-5.4-25.1-15.5S261.8,181.2,295.1,185.2z"/>
	<path class="st12" d="M265.4,182.1c0,0,3.8-8.6,13.6-8.2s24.1,8.7,27,6.1s7.1,6.4,3.8,9.4c-2.2,2-4.5,3.8-6.9,5.5
		c0,0-5.4-5.4-10.9-4.2s-11.6,2.3-13.6,0.2c0,0,4.6,12.4-1.7,16c-1.6,0.9-4-1.7-4.7-0.9c-2.1,2.4,0.7,7.8,2.6,10.4
		c0,0-5.8,5.6-3.9,8.1s-6.8,0.4-11-9.2S254.1,185.2,265.4,182.1z"/>
	<path class="st13" d="M302.6,221c-3.6-0.7-6.8-3.9-6.8-3.9s-0.1,6,2.3,6.7S302.6,221,302.6,221z"/>
	<path class="st13" d="M293.9,217.1c0.1-0.6,0.5-1.1,1-1.5"/>
	<path class="st14" d="M291.9,201.7c0,0,4-2.9,7.7-2.6"/>
	<polygon class="st12" points="491.9,436.4 500.9,443.3 504.6,438.4 502.4,436.7 507,435.3 524.2,412.6 524.2,412.6 499.9,426 	"/>
	<polygon class="st12" points="272.7,564.4 272.7,575.8 278.8,575.8 278.8,573 282.7,575.8 311.2,575.8 311.2,575.8 285.9,564.5 	
		"/>
	<path class="st15" d="M292.8,205.4c0,0,3.6-2.8,6.9-0.9c-1.5,0.2-2.8,0.9-3.9,1.9"/>
	<path class="st7" d="M366.7,190.1c0,0-2.7-9.7-0.6-10.2c0.9-0.3,1.2-0.1,1.8,1.8c0,0,3-10.6,7.7-8.9c4,1.5-1.4,17.4-1.4,17.4
		L366.7,190.1z"/>
	<g class="st16">
		<path d="M165.8,782.4c0,4.8-1.5,8.5-7.4,8.5c-5.5,0-7.7-2.8-7.7-8.1c0-0.3,0-0.5,0-1h3.3v0.9c0,3,0.6,5.3,4.3,5.3c3.9,0,4-2.9,4-6
			v-17.4h3.4V782.4z"/>
		<path d="M187.3,790.2c-0.6,0.3-1.4,0.4-2.1,0.4c-1.7,0-2.7-1-2.7-2.7c-1.8,2.1-3.9,3-6.7,3c-3.7,0-5.9-2-5.9-5.3
			c0-3.3,2.2-5.3,6.6-5.8c4.4-0.5,5.9-0.4,5.9-3c0-2-1.5-3.1-4.2-3.1c-2.8,0-4.3,1-4.6,3.8h-3c0.1-4,3-6.3,7.8-6.3
			c2.5,0,4.6,0.6,5.8,1.8c1.3,1.3,1.3,3.2,1.3,4.8c0,2.8-0.1,5.5-0.1,8.3c0,1.4,0.3,1.8,1.3,1.8c0.3,0,0.4,0,0.8-0.1V790.2z
			 M178.2,781.8c-2.2,0.3-5.3,0.5-5.3,3.5c0,1.9,1.4,3.1,3.7,3.1c2.9,0,5.7-2,5.7-4.4v-3.4C181.2,781.5,179.6,781.6,178.2,781.8z"/>
		<path d="M193,774.6c1.5-2.3,3.5-3.4,6.3-3.4c4.5,0,6.2,2.5,6.2,6.7v12.3h-3.1v-10.9c0-3-0.1-5.5-4-5.5c-4,0-5.3,3-5.3,6.7v9.7
			h-3.1v-18.6h2.9V774.6z"/>
		<path d="M225.6,790.3h-2.8v-2.9c-1.6,2.3-3.7,3.4-6.4,3.4c-3.9,0-6.2-2.2-6.2-6.3v-12.8h3.1v12c0,2.7,0.8,4.5,3.9,4.5
			c4,0,5.4-2.9,5.4-6.7v-9.7h3.1V790.3z"/>
		<path d="M246.6,790.2c-0.6,0.3-1.4,0.4-2.1,0.4c-1.7,0-2.7-1-2.7-2.7c-1.8,2.1-3.9,3-6.7,3c-3.7,0-5.9-2-5.9-5.3
			c0-3.3,2.2-5.3,6.6-5.8c4.4-0.5,5.9-0.4,5.9-3c0-2-1.5-3.1-4.2-3.1c-2.8,0-4.3,1-4.6,3.8h-3c0.1-4,3-6.3,7.8-6.3
			c2.5,0,4.6,0.6,5.8,1.8c1.3,1.3,1.3,3.2,1.3,4.8c0,2.8-0.1,5.5-0.1,8.3c0,1.4,0.3,1.8,1.3,1.8c0.3,0,0.4,0,0.8-0.1V790.2z
			 M237.6,781.8c-2.2,0.3-5.3,0.5-5.3,3.5c0,1.9,1.4,3.1,3.7,3.1c2.9,0,5.7-2,5.7-4.4v-3.4C240.5,781.5,239,781.6,237.6,781.8z"/>
		<path d="M259.2,774.5c-0.3,0-0.5,0-0.8,0c-5,0-5.9,3.9-5.9,8v7.8h-3.1v-18.6h2.9v4c1.3-3.1,3.6-4.4,6.9-4.4V774.5z"/>
		<path d="M268.9,792.7c-1,2.6-2.1,5.1-5.4,5.1c-0.8,0-1.5-0.1-2.3-0.3v-2.7c1,0.3,1.4,0.4,2,0.4c1,0,1.8-0.7,2.2-1.5l1.4-3.4
			l-7.4-18.5h3.5l5.5,14.8l5.2-14.8h3.2L268.9,792.7z"/>
	</g>
	<g class="st16">
		<path d="M440.4,595l8.2,21.7l8-21.7h4.7v25.6h-3.2v-21.4l-8,21.4h-3l-8.2-21.4v21.4h-3.2V595H440.4z"/>
		<path d="M482.9,620.6c-0.6,0.3-1.4,0.4-2.1,0.4c-1.7,0-2.7-1-2.7-2.7c-1.8,2.1-3.9,3-6.7,3c-3.7,0-5.9-2-5.9-5.3
			c0-3.3,2.2-5.3,6.6-5.8c4.4-0.5,5.9-0.4,5.9-3c0-2-1.5-3.1-4.2-3.1c-2.8,0-4.3,1-4.6,3.8h-3c0.1-4,3-6.3,7.8-6.3
			c2.5,0,4.6,0.6,5.8,1.8c1.3,1.3,1.3,3.2,1.3,4.8c0,2.8-0.1,5.5-0.1,8.3c0,1.4,0.3,1.8,1.3,1.8c0.3,0,0.4,0,0.8-0.1V620.6z
			 M473.9,612.1c-2.2,0.3-5.3,0.5-5.3,3.5c0,1.9,1.4,3.1,3.7,3.1c2.9,0,5.7-2,5.7-4.4V611C476.9,611.9,475.3,611.9,473.9,612.1z"/>
	</g>
	<g class="st16">
		<path d="M495.5,604.8c-0.3,0-0.5,0-0.8,0c-5,0-5.9,3.9-5.9,8v7.8h-3.1v-18.6h2.9v4c1.3-3.1,3.6-4.4,6.9-4.4V604.8z"/>
	</g>
	<g class="st16">
		<path d="M505,621.2c-5.8,0-8.8-3.9-8.8-9.6c0-6.2,3.5-10.1,8.9-10.1c4.5,0,7.4,2.4,7.9,6.6h-3.2c-0.5-2.6-2.2-4-4.7-4
			c-3.5,0-5.8,2.8-5.8,7.3c0,4.5,2.1,7.3,5.5,7.3c2.8,0,4.6-1.7,5.1-4.8h3.1C512.6,618.3,509.6,621.2,505,621.2z"/>
		<path d="M519.6,604.7c1.4-2.1,3.4-3.1,6.1-3.1c4.4,0,6.3,2.4,6.3,6.3v12.7h-3.1v-12c0-2.6-0.8-4.4-4.1-4.4c-3.9,0-5.2,2.7-5.2,6.9
			v9.4h-3.1V595h3.1V604.7z"/>
	</g>
	<g class="st16">
		<path d="M603.1,536.1h-3.8l-2.8-7.8h-10.8l-2.9,7.8h-3.6l10.1-25.6h3.8L603.1,536.1z M591.1,513.7l-4.4,11.8h8.8L591.1,513.7z"/>
		<path d="M608,520.1c1.4-2.3,3.5-3.2,6.3-3.2c5.2,0,8.5,3.7,8.5,9.8c0,6-3.2,9.9-8.3,9.9c-2.7,0-4.6-0.9-6.2-3.1v9.8h-3.1v-25.7
			h2.9V520.1z M608.1,526.7c0,4.5,2.2,7.2,5.8,7.2c3.5,0,5.7-2.8,5.7-7.2c0-4.5-2.2-7.2-5.8-7.2
			C610.2,519.5,608.1,522.2,608.1,526.7z"/>
		<path d="M636.2,520.2c-0.3,0-0.5,0-0.8,0c-5,0-5.9,3.9-5.9,8v7.8h-3.1v-18.6h2.9v4c1.3-3.1,3.6-4.4,6.9-4.4V520.2z"/>
		<path d="M641.7,514.2h-3.1v-3.7h3.1V514.2z M641.7,536.1h-3.1v-18.6h3.1V536.1z"/>
		<path d="M649.7,536.1h-3.1v-25.6h3.1V536.1z"/>
	</g>
	<g class="st16">
		<path d="M724.7,425.9l8.2,21.7l8-21.7h4.7v25.6h-3.2v-21.4l-8,21.4h-3l-8.2-21.4v21.4H720v-25.6H724.7z"/>
		<path d="M767.3,451.5c-0.6,0.3-1.4,0.4-2.1,0.4c-1.7,0-2.7-1-2.7-2.7c-1.8,2.1-3.9,3-6.7,3c-3.7,0-5.9-2-5.9-5.3
			c0-3.3,2.2-5.3,6.6-5.8c4.4-0.5,5.9-0.4,5.9-3c0-2-1.5-3.1-4.2-3.1c-2.8,0-4.3,1-4.6,3.8h-3c0.1-4,3-6.3,7.8-6.3
			c2.5,0,4.6,0.6,5.8,1.8c1.3,1.3,1.3,3.2,1.3,4.8c0,2.8-0.1,5.5-0.1,8.3c0,1.4,0.3,1.8,1.3,1.8c0.3,0,0.4,0,0.8-0.1V451.5z
			 M758.2,443c-2.2,0.3-5.3,0.5-5.3,3.5c0,1.9,1.4,3.1,3.7,3.1c2.9,0,5.7-2,5.7-4.4v-3.4C761.2,442.7,759.6,442.8,758.2,443z"/>
		<path d="M777.6,453.9c-1,2.6-2.1,5.1-5.4,5.1c-0.8,0-1.5-0.1-2.3-0.3V456c1,0.3,1.4,0.4,2,0.4c1,0,1.8-0.7,2.2-1.5l1.4-3.4
			l-7.4-18.5h3.5l5.5,14.8l5.2-14.8h3.2L777.6,453.9z"/>
	</g>
	<g class="st16">
		<path d="M296.1,682.5h-13.5v8h11.9v2.8h-11.9v11.8h-3.4v-25.6h16.8V682.5z"/>
		<path d="M307.1,705.8c-5.5,0-8.7-3.6-8.7-9.6c0-6,3.5-10.1,8.6-10.1c6.1,0,8.4,4.9,8.4,10.2v0.4h-14l0,0.2c0,4,2.2,6.3,5.8,6.3
			c2.7,0,4.1-1.2,5-4h3C314.3,703.6,311.5,705.8,307.1,705.8z M306.9,688.6c-3,0-5.1,2.2-5.5,5.7h10.8
			C311.9,690.7,310,688.6,306.9,688.6z"/>
		<path d="M321.7,689.2c1.4-2.1,3.6-3.1,6.2-3.1c5.1,0,8.4,3.8,8.4,9.7c0,6-3.4,9.9-8.6,9.9c-2.6,0-4.9-0.9-6.2-3.2v2.7h-2.9v-25.6
			h3.1V689.2z M321.6,696c0,4.4,2.2,7.1,5.8,7.1c3.4,0,5.7-2.9,5.7-7.3c0-4.4-2.2-7.2-5.7-7.2C323.1,688.7,321.6,692.3,321.6,696z"
			/>
		<path d="M349.7,689.3c-0.3,0-0.5,0-0.8,0c-5,0-5.9,3.9-5.9,8v7.8h-3.1v-18.6h2.9v4c1.3-3.1,3.6-4.4,6.9-4.4V689.3z"/>
		<path d="M367.4,705.2h-2.8v-2.9c-1.6,2.3-3.7,3.4-6.4,3.4c-3.9,0-6.2-2.2-6.2-6.3v-12.8h3.1v12c0,2.7,0.8,4.5,3.9,4.5
			c4,0,5.4-2.9,5.4-6.7v-9.7h3.1V705.2z"/>
		<path d="M388.4,705.1c-0.6,0.3-1.4,0.4-2.1,0.4c-1.7,0-2.7-1-2.7-2.7c-1.8,2.1-3.9,3-6.7,3c-3.7,0-5.9-2-5.9-5.3
			c0-3.3,2.2-5.3,6.6-5.8c4.4-0.5,5.9-0.4,5.9-3c0-2-1.5-3.1-4.2-3.1c-2.8,0-4.3,1-4.6,3.8h-3c0.1-4,3-6.3,7.8-6.3
			c2.5,0,4.6,0.6,5.8,1.8c1.3,1.3,1.3,3.2,1.3,4.8c0,2.8-0.1,5.5-0.1,8.3c0,1.4,0.3,1.8,1.3,1.8c0.3,0,0.4,0,0.8-0.1V705.1z
			 M379.4,696.7c-2.2,0.3-5.3,0.5-5.3,3.5c0,1.9,1.4,3.1,3.7,3.1c2.9,0,5.7-2,5.7-4.4v-3.4C382.4,696.4,380.8,696.5,379.4,696.7z"/>
		<path d="M401,689.3c-0.3,0-0.5,0-0.8,0c-5,0-5.9,3.9-5.9,8v7.8h-3.1v-18.6h2.9v4c1.3-3.1,3.6-4.4,6.9-4.4V689.3z"/>
		<path d="M410.7,707.6c-1,2.6-2.1,5.1-5.4,5.1c-0.8,0-1.5-0.1-2.3-0.3v-2.7c1,0.3,1.4,0.4,2,0.4c1,0,1.8-0.7,2.2-1.5l1.4-3.4
			l-7.4-18.5h3.5l5.5,14.8l5.2-14.8h3.2L410.7,707.6z"/>
	</g>
</g>
</svg>
