<svg version="1.1" id="Layer_1" xmlns="http://www.w3.org/2000/svg" xmlns:xlink="http://www.w3.org/1999/xlink" x="0" y="0" viewBox="0 0 565.4 712.7" xml:space="preserve"><style>.st1{fill:#c6c6c6}.st1,.st2,.st5,.st6,.st7{stroke:#000;stroke-width:.5;stroke-miterlimit:10}.st2{display:none;fill:#fff}.st5,.st6,.st7{fill:#1a1a1a}.st6,.st7{fill:#fff}.st7{fill:#eb058c}.st8{fill:#1a1a1a}.st12,.st15,.st17,.st18,.st9{fill:none;stroke:#000;stroke-width:.5;stroke-miterlimit:10}.st12,.st15,.st17,.st18{fill:#0077bf}.st15,.st17,.st18{display:inline;fill:#fff}.st17,.st18{fill:#c10072}.st18{fill:#1a1a1a}.st20{fill:none}.st21{font-family:&apos;HelveticaNeueCyr-Roman&apos;}.st22{font-size:45px}</style><path d="M75.7 256.9S-22 144.1 113.4 49.6c0 0 146.4-129.6 328.5 30.3 0 0 87 65.8 122.1 224.7 0 0 15.5 134.6-57.5 224.1 0 0-124.2 156.6-299.8 176.9 0 0-213.1 55.3-206.6-142.7 0 0 8.6-67.5 80.9-108.3.1 0 116.1-55.7-5.3-197.7z" fill="#f5f5f5" id="Layer_7_1_"/><path class="st1" d="M473.3 339.4c-95.8-.4-163.5.2-243.2 0l-186-.3c-3.8-5.9-4.5-13.2.4-19.1 142.6-.4 281.7.6 428.8.3 0 0 4.1 6.4 0 19.1z"/><path class="st1" d="M115.2 332.9c-.4 22.4.2 38.2 0 56.8l-.3 43.5c-5.9.9-13.2 1-19.1-.1-.4-33.3.4-65.7.1-100 6.4-.3 13.1-.3 19.3-.2zM430.2 332.9c-.4 22.4.2 38.2 0 56.8l-.3 43.5c-5.9.9-13.2 1-19.1-.1-.4-33.3.4-65.7.1-100 6.4-.3 13.1-.3 19.3-.2z"/><path class="st2" d="M210.5 334.6s3.5-2.5 49.5-4.8c0 0 11.7-3 15.4-7.3h53.7S355 338 371 342.2l-10.5 26-50.4-5.3-70-3.7-29.6-24.6z"/><path class="st2" d="M274.3 343.8c-13.5-4.7-32.7-12-55.3-11-20.8.9-13.2 17.8-3.9 25.7 9.3 7.9 68 12.5 114.2 12.5l1-9.8c-.1-.1-41.2-12.4-56-17.4z"/><path fill="#99005f" stroke="#000" stroke-width=".5" stroke-miterlimit="10" d="M309.8 320.6h-97l20.7-46 59-1.1z"/><path class="st5" d="M260.1 179.1c-29 14.3-48.4-4.3-48.4-4.3s-13.4-.9-15.9-16.4c0 0 13.2 4.7 23-11.6 4.9-8.2 5.1-10 7.7-19.2 0 0 2.2-21.6 15.5-31 0 0 9.2-7.6 23.2-7.2 3 .1 6.9.8 9.5 2.4 4.7 3 11.5 7.3 15.3 16.3 0 0 10.6 18.8-.8 38.6-6 5.5-3.4 22-4.1 26.4l-17.2 8.8"/><path class="st2" d="M341.5 221c-1.3 3-20.3 5.9-22.2 8.6 0 0-6.4-.1-7.8 1-3.3 2.6-27.4-7.7-29.2-11.6l15.7.6c1.7.1 3.4-.7 4.4-2 .5-.7.8-1.5.4-2.3-1-2.2-2.1-4.4-3.4-6.5 2.8-4.1 6.6-7.5 11.1-9.7 1.5-.8 2.4-.8 3.1.9.6 1.6 1 2.9 1.7 4.3 0 0 1.2 7.4 6.1 10.6 5.5 3.6 20.1 6.1 20.1 6.1z"/><path class="st6" d="M257.2 165c.4-1.6.9-2.9.8-4.5-.2-2.2-.1-4.6-.5-6.8 3.6-2.8 7.9-4.6 12.5-5.2 1.6-.2 2.3 0 2.4 1.6s0 2.8.2 4.2c.3 2.7 1 5.4 2.1 7.9 0 0 11.4 6.9 21.1 7.6s-11.5 12.4-27.6 12.9-24.6-12.5-24.6-12.5 12.2-4 13.6-5.2z"/><path class="st7" d="M249 282.4c-1.9-.1-6.1.7-7.5 2-10.2 9.8-4 27.6-12.5 36.1-11.5 11.6-59.5-.6-59.5-.6 13.5 2.6 35-20.8 43.5-40.1 10.5-23.8 34.6-43.7 34.6-43.7s-3-17.2-5-21.7c-2.9-6.7-4.9-15.6-2.5-26.3 1.9-8.8 1.7-19.8 1.7-19.8 22.5 11.2 47.8 1.7 47.8 1.7s2.3 5.3 5.4 18.1.2 15-3.9 27.5c-3.2 9.7-4.5 22.6-4.5 22.6 15.4 7.5 34.9 49.7 47.4 61.3 12.5 11.6 44.5 20.5 44.5 20.5s-46.8 2.4-74.6.3c-13.8-1.1-9.6-21.1-14.9-31.8-1.9-3.9-6.1-6.2-10.5-6-8.8.6-13.5 9.8-14.7 12.9.1-.1-4.3-12.4-14.8-13M272.4 208.3s9.5 8.8 18.9 0M262.8 209.6s-10.8 7.5-20.1-1.2"/><path class="st7" d="M244 185.8l-24.7 40.8 44.1 21-2.8 7.2s-46.9-12.3-52.7-15c-5.7-2.7-5.3-6.6-5.3-6.6s14.7-47.3 26.3-59.5l15.1 12.1z"/><path class="st6" d="M280.2 282.5s-12.4-1.4-16.3 12.9c-1.7 15 4.4 91 5.2 119.2l7.2-2.3s9.9-60.1 16.3-110.1c-1.2-11.7-4.8-19.6-12.4-19.7z"/><path class="st6" d="M247.4 282.4s12.2-1 16 13.2c1.4 15.1-4.6 88.3-6.6 116.2l-6.9 2.6s-7.3-60.9-15.3-112.7c1.4-11.5 5.2-19.3 12.8-19.3z"/><path class="st7" d="M283.9 181.8l31.9 43-11.8 4.5.1 3.3.1 3.3 23.7-1.7s3-.7 2-5.2-30.9-58.9-30.9-58.9l-15.1 11.7z"/><path class="st7" d="M241.8 168.3s-15.7-.8-17.7 3.4c-2 4.1 2 4.7 2 4.7s-8.2 2.2-4.1 7.5c3.7 4.6 7.3.4 7.3.4s-2.2 3.8 2 6.2c4.2 2.5 7.9-.5 7.9-.5s.1 5.4 4.3 5.8c4.2.4 7.3-3.2 7.3-3.2s-1.2 3.4 3.6 5c4.7 1.6 7-3.2 7-3.2s.4 4 5.8 4.4 5.8-4.3 5.8-4.3 2.4 4.7 7.2 3.4 4-5 4-5 2.5 4.1 7.4 1.8 1.9-5.5 1.9-5.5 3.8 3.6 6.4.3c2.5-3.2 1.2-4.8 1.2-4.8s1.7 1.8 4.3-.5 1.2-4.1 1.2-4.1 1.5.6 2.8-3c1.2-3.6-5.3-3.5-5.3-3.5s3.4-3.2.3-4c-3-.8-12.9-1.5-14.8.5 0 0-7.3 9.3-20.6 10.5-13.3 1.1-27.2-12.3-27.2-12.3z"/><path class="st6" d="M253.9 151.5c3.5 3.8 8 7.3 13.1 6.9 3.8-.3 7.1-2.7 9.6-5.5 2.6-3.1 5-6.4 6.9-9.9 1.4-2.1 2.6-4.5 3.3-6.9.9-3.6.3-7.3-.3-10.9-1-6-2.2-12.3-6.5-16.6-2.6-2.3-5.6-4-8.8-5.3-2.3-1.1-4.7-1.9-7.2-2.3-2.1-.2-4.3 0-6.3.6-5.8 1.4-11 5-14.4 9.9-8.7 13.2 1.3 29.9 10.6 40z"/><path class="st8" d="M285.8 141.7l2.5-5 3-12-9-15.9-9.6-8.1-13.2-1-10.6 3.5-11.4 14.7 1.2 14.7 3.6 6.7s18-16.2 15.2-30.7c0 0 13.5 10.9 27.3 9.2-.2.1 5.4 7 1 23.9z"/><path class="st6" d="M265.9 125.8c-2.7-2.6-6.9-3-10.1-1M276.2 126.4c2-1.7 6.6-1.5 8.7.3M267.7 142.2c1-.4 2-.8 2.9-1.2.2-.1.4-.2.6-.4.4-.5.2-1.2 0-1.8l-1.1-3.1"/><ellipse transform="rotate(-82.9 261.328 132.596)" class="st5" cx="261.3" cy="132.6" rx="1.8" ry="1.5"/><ellipse transform="rotate(-82.9 277.727 133.39)" class="st5" cx="277.7" cy="133.4" rx="1.8" ry="1.5"/><path class="st9" d="M266.1 131.4s-3.1-3.9-9-1.1c0 0-2 .9-3.1-.3M274.6 131.6c1.1-1.3 4.9-2.4 8.1.1 0 0 1.8 1.2 3.1.1"/><path d="M271 150.2s-1.5-1.1-3.1-.7c-1.6.4-1.9 1.4-2.9 1.6 0 0 .4-2.5 2.7-2.8s3.2 1.3 3.3 1.9z" fill="#c10072" stroke="#000" stroke-width=".5" stroke-linejoin="round" stroke-miterlimit="10"/><g><path d="M320.9 3.8c10.5 39.5 33.1 226.3 34.9 266.8 1.9 43 5.3 85.8 10.2 128.5 2.8 24.6 6 49.2 9.1 73.8 0 .3.5.2.5 0-5.3-43.3-10.6-86.8-14.2-130.3-3.4-41.5-3.8-83.4-7.5-124.9-2.1-22.9-25.7-191.9-31.9-214-.2-.7-1.3-.5-1.1.1z" fill="#f4f4f4" stroke="#000" stroke-width=".5" stroke-miterlimit="10"/><path class="st12" d="M297.1 228.2c-.2-.4-.4-.8-.8-1-.2-.3-.5-.5-.8-.6-.1-4.2-.3-8.5-.3-12.7 0-.5-.4-.8-.8-.8-1.1-.1-2.1-.2-3.2-.1-.8.1-1.1 1.3-.2 1.5.9.2 1.7.3 2.6.3.3 3.9.2 7.8 0 11.7-.3.1-.6.2-.9.4-1.9 1.2-1.8 3.8-1.3 6.1-.4.8-.3 2-.2 3.6.1 3.6 1 3.9 4.7 3.7.6 0 1.1-.5 1.1-1.1.1-2.1.2-4.1.2-6.2 0-1.2.4-3.6-.1-4.8zM283.9 215c0-1.3.1-2.6-.1-3.9-.2-1.5-1.2-1.8-2.4-1.5-.7-.1-1.5.3-1.6 1.2-.2 2.3-.4 4.7-.5 7-.1 1.3 1.3 1.8 2.1 1.3.4.1.9.1 1.4-.1.4-.1.8-.4.9-.7.3-1 .2-2.2.2-3.3z"/><path d="M322.4 2.1c-16.8 14.7-32.4 74.8-36.5 95.2-5.1 25.4-8.2 51.1-9.9 76.9-1 15.1-1.2 30.1-.9 45.2 0 1.4 2.2 1.3 2.2 0 .3-25.2 1.6-50.5 4.5-75.5 2.8-24.5 6.5-49.4 12.7-73.4 3.1-11.7 19.4-59 29.2-67 1-.9-.4-2.3-1.3-1.4z" fill="#aaa" stroke="#000" stroke-width=".5" stroke-miterlimit="10"/><path class="st12" d="M279.2 206.9c.4 0 .9 0 1.2.3.4.3.5.9.5 1.5.6 17.6.2 35.1-1.2 52.7 0 .5-.1 1-.5 1.2-.3.2-.7.2-1 .2h-3.1c-.5 0-1 0-1.3-.3s-.4-.7-.5-1.1c-.5-2.3-.5-4.7-.6-7.1-.1-9.2-.1-18.4.2-27.6.1-4.6.3-9.2.4-13.8.1-1.3-.4-4.2.6-5.2 1.1-1.2 3.8-.7 5.3-.8zM292.4 212.6c0-3.8.5-10.1-4.8-9.3-.6-.2-1.3-.1-2.1.3h-.1c-1.9.1-2.3 2.4-2.5 4-.4 3.6.1 7.5.4 11.2-.3 1.8-.4 3.6.6 5.1.7 1.1 1.9 1.7 3.1 1.7.4.1.9.2 1.4.2 5.3-.2 4-10 4-13.2z"/></g><path class="st6" d="M263.4 247.6s11.6-2.3 11.1 0-2 2.7 0 3.3c2 .7 7.3 1.1 7 3.9s-7.9 5.9-20.9 0l2.8-7.2zM304.1 229.3s-7.7-3.6-7.3-1.6c.3 2-1.8 2.1-6 1.9s-2.8 4.3.4 5.7c4.4 1.8 13.1.7 13.1.7l-.2-6.7z"/><path class="st8" d="M268.6 413.3l-4.2 17.2 6.9 16.5 7.1-18.9-1.2-14.6.4-6.7-9 .5zM248.9 408.1l8.7-1.3v6.9l2.3 16-7.7 16.3-5.7-20.5 2.8-11.9z"/><g><path class="st6" d="M412.1 29.7c.1-.5.1-1.1.1-1.6 0-5.2-4.2-9.4-9.4-9.4-1.1 0-2.2.2-3.2.6-3-4.7-8.4-7.9-14.4-7.9-9.5 0-17.1 7.7-17.1 17.1 0 .4 0 .9.1 1.3-4.6 1.2-8 5.3-8 10.2 0 5.8 4.7 10.6 10.5 10.6h39.6c5.8 0 10.6-4.7 10.6-10.6-.1-5.1-3.9-9.4-8.8-10.3z"/></g><g><path class="st6" d="M184.3 97.1c.1-.7.2-1.3.2-2 0-6.5-5.3-11.7-11.7-11.7-1.4 0-2.8.3-4 .7-3.8-5.9-10.5-9.9-18-9.9-11.8 0-21.5 9.6-21.5 21.5 0 .6 0 1.1.1 1.7-5.7 1.4-10 6.6-10 12.8 0 7.3 5.9 13.2 13.2 13.2h49.5c7.3 0 13.2-5.9 13.2-13.2-.1-6.7-4.8-12.1-11-13.1z"/></g><g><path class="st6" d="M435 145.3c.1-.3.1-.7.1-1.1 0-3.4-2.8-6.2-6.2-6.2-.7 0-1.5.1-2.1.4-2-3.1-5.5-5.2-9.5-5.2-6.2 0-11.3 5.1-11.3 11.3v.9c-3 .8-5.3 3.5-5.3 6.7 0 3.8 3.1 7 6.9 7h26.1c3.8 0 7-3.1 7-7 .1-3.4-2.4-6.2-5.7-6.8z"/></g><g><path class="st1" d="M222.9 548.5c54.7-3 102.9 13.8 140.2 13.1 34.2-.6 78.8-3.9 94.2-1.1 16.5 3 28.4 8.1 35.8 13.9 19.7-14 8.1-36.6-35.8-44.6-15.4-2.8-60 .5-94.2 1.1-37.2.6-85.5-16.1-140.2-13.1-54.6 3-77.9 29.8-59.8 52.3 9.5-11.3 29.9-20 59.8-21.6z"/><path class="st12" d="M219.6 596.6c95.2 18.6 152.4-17.1 197.1-12 38.1 4.3 63.7-1.2 76.4-10.2-7.4-5.9-19.4-10.9-35.8-13.9-15.4-2.8-60 .5-94.2 1.1-37.2.6-85.5-16.1-140.2-13.1-29.8 1.6-50.3 10.4-59.8 21.6 8.7 10.9 27.2 20.8 56.5 26.5z"/></g><g><path d="M475.7 506.8c1.3 5.3-2 10.8-7.4 12.1l-145.8 35.4c-5.3 1.3-10.8-2-12.1-7.4l-19.6-80.6c-1.3-5.3 2-10.8 7.4-12.1L444 418.8c5.3-1.3 10.8 2 12.1 7.4l19.6 80.6z" fill="#ffe600"/><path class="st9" d="M475.7 506.8c1.3 5.3-2 10.8-7.4 12.1l-145.8 35.4c-5.3 1.3-10.8-2-12.1-7.4l-19.6-80.6c-1.3-5.3 2-10.8 7.4-12.1L444 418.8c5.3-1.3 10.8 2 12.1 7.4l19.6 80.6z"/><image width="186" height="107" xlink:href="9CF6FD16C18FD3FA.png" transform="translate(289.277 420.072)" overflow="visible"/><path transform="rotate(-13.663 380.47 474.896)" class="st20" d="M297.4 449.4h166v51h-166z"/><text transform="rotate(-13.663 2237.36 -1031.542)" class="st12 st21 st22">ERROR</text><g><image width="145" height="91" xlink:href="9CF6FD16C18FD3FF.png" transform="translate(319.277 469.072)" overflow="visible"/><path transform="rotate(-13.663 389.923 513.76)" class="st20" d="M327.6 489.3h124.5v49H327.6z"/><text transform="rotate(-13.663 2388.619 -1217.083)" class="st12 st21 st22">404</text></g></g></svg>