<?xml version="1.0" encoding="utf-8"?>
<!-- Generator: Adobe Illustrator 21.0.2, SVG Export Plug-In . SVG Version: 6.00 Build 0)  -->
<svg version="1.1" id="Layer_1" xmlns="http://www.w3.org/2000/svg" xmlns:xlink="http://www.w3.org/1999/xlink" x="0px" y="0px"
	 viewBox="0 0 565.4 712.7" style="enable-background:new 0 0 565.4 712.7;" xml:space="preserve">
<style type="text/css">
	.st0{fill:#F5F5F5;}
	.st1{fill:#C6C6C6;stroke:#000000;stroke-width:0.5;stroke-miterlimit:10;}
	.st2{display:none;fill:#FFFFFF;stroke:#000000;stroke-width:0.5;stroke-miterlimit:10;}
	.st3{fill:#99005F;stroke:#000000;stroke-width:0.5;stroke-miterlimit:10;}
	.st4{display:none;fill:#1A1A1A;stroke:#000000;stroke-width:0.5;stroke-miterlimit:10;}
	.st5{fill:#1A1A1A;stroke:#000000;stroke-width:0.5;stroke-miterlimit:10;}
	.st6{fill:#FFFFFF;stroke:#000000;stroke-width:0.5;stroke-miterlimit:10;}
	.st7{fill:#EB058C;stroke:#000000;stroke-width:0.5;stroke-miterlimit:10;}
	.st8{fill:#1A1A1A;}
	.st9{fill:none;stroke:#000000;stroke-width:0.5;stroke-miterlimit:10;}
	.st10{fill:#C10072;stroke:#000000;stroke-width:0.5;stroke-linejoin:round;stroke-miterlimit:10;}
	.st11{fill:#F4F4F4;stroke:#000000;stroke-width:0.5;stroke-miterlimit:10;}
	.st12{fill:#0077BF;stroke:#000000;stroke-width:0.5;stroke-miterlimit:10;}
	.st13{fill:#AAAAAA;stroke:#000000;stroke-width:0.5;stroke-miterlimit:10;}
	.st14{display:none;}
	.st15{display:inline;fill:#FFFFFF;stroke:#000000;stroke-width:0.5;stroke-miterlimit:10;}
	.st16{display:inline;fill:#1A1A1A;}
	.st17{display:inline;fill:#C10072;stroke:#000000;stroke-width:0.5;stroke-miterlimit:10;}
	.st18{display:inline;fill:#1A1A1A;stroke:#000000;stroke-width:0.5;stroke-miterlimit:10;}
	.st19{fill:#FFE600;}
	.st20{fill:none;}
	.st21{font-family:'HelveticaNeueCyr-Roman';}
	.st22{font-size:45px;}
</style>
<g id="Layer_7_1_">
	<path class="st0" d="M75.7,256.9c0,0-97.7-112.8,37.7-207.3c0,0,146.4-129.6,328.5,30.3c0,0,87,65.8,122.1,224.7
		c0,0,15.5,134.6-57.5,224.1c0,0-124.2,156.6-299.8,176.9c0,0-213.1,55.3-206.6-142.7c0,0,8.6-67.5,80.9-108.3
		C81.1,454.6,197.1,398.9,75.7,256.9z"/>
</g>
<g>
	<g>
		<path class="st1" d="M473.3,339.4c-95.8-0.4-163.5,0.2-243.2,0c-62-0.1-124-0.2-186-0.3c-3.8-5.9-4.5-13.2,0.4-19.1
			c142.6-0.4,281.7,0.6,428.8,0.3C473.3,320.3,477.4,326.7,473.3,339.4z"/>
	</g>
	<g>
		<path class="st1" d="M115.2,332.9c-0.4,22.4,0.2,38.2,0,56.8c-0.1,14.5-0.2,29-0.3,43.5c-5.9,0.9-13.2,1-19.1-0.1
			c-0.4-33.3,0.4-65.7,0.1-100C102.3,332.8,109,332.8,115.2,332.9z"/>
	</g>
	<g>
		<path class="st1" d="M430.2,332.9c-0.4,22.4,0.2,38.2,0,56.8c-0.1,14.5-0.2,29-0.3,43.5c-5.9,0.9-13.2,1-19.1-0.1
			c-0.4-33.3,0.4-65.7,0.1-100C417.3,332.8,424,332.8,430.2,332.9z"/>
	</g>
</g>
<path class="st2" d="M210.5,334.6c0,0,3.5-2.5,49.5-4.8c0,0,11.7-3,15.4-7.3h53.7c0,0,25.9,15.5,41.9,19.7l-10.5,26l-50.4-5.3
	l-70-3.7L210.5,334.6z"/>
<path class="st2" d="M274.3,343.8c-13.5-4.7-32.7-12-55.3-11c-20.8,0.9-13.2,17.8-3.9,25.7c9.3,7.9,68,12.5,114.2,12.5l1-9.8
	C330.2,361.1,289.1,348.8,274.3,343.8z"/>
<polygon class="st3" points="309.8,320.6 212.8,320.6 233.5,274.6 292.5,273.5 "/>
<path class="st4" d="M315,214.3c0,0,2.8,23.2,22.7,35.7c11.8,7.3,26.3,8.8,39.2,3.8c-4.8-1.6-8.1-6.1-8.3-11.2
	c-10.5-79.7-48.8-90-48.8-90s-11.6-6.9-27.7-1.1c0,0-14.9,4.9-17.8,19.8c0,0-5.7,18.2,9.9,35.8c3.2,3.5,8.6,15.4,10.2,19.8l33.4,4.6
	"/>
<path class="st5" d="M260.1,179.1c-29,14.3-48.4-4.3-48.4-4.3s-13.4-0.9-15.9-16.4c0,0,13.2,4.7,23-11.6c4.9-8.2,5.1-10,7.7-19.2
	c0,0,2.2-21.6,15.5-31c0,0,9.2-7.6,23.2-7.2c3,0.1,6.9,0.8,9.5,2.4c4.7,3,11.5,7.3,15.3,16.3c0,0,10.6,18.8-0.8,38.6
	c-6,5.5-3.4,22-4.1,26.4l-17.2,8.8"/>
<path class="st2" d="M341.5,221c-1.3,3-20.3,5.9-22.2,8.6c0,0-6.4-0.1-7.8,1c-3.3,2.6-27.4-7.7-29.2-11.6l15.7,0.6
	c1.7,0.1,3.4-0.7,4.4-2c0.5-0.7,0.8-1.5,0.4-2.3c-1-2.2-2.1-4.4-3.4-6.5c2.8-4.1,6.6-7.5,11.1-9.7c1.5-0.8,2.4-0.8,3.1,0.9
	c0.6,1.6,1,2.9,1.7,4.3c0,0,1.2,7.4,6.1,10.6C326.9,218.5,341.5,221,341.5,221z"/>
<path class="st6" d="M257.2,165c0.4-1.6,0.9-2.9,0.8-4.5c-0.2-2.2-0.1-4.6-0.5-6.8c3.6-2.8,7.9-4.6,12.5-5.2c1.6-0.2,2.3,0,2.4,1.6
	s0,2.8,0.2,4.2c0.3,2.7,1,5.4,2.1,7.9c0,0,11.4,6.9,21.1,7.6s0,0,0,0s-11.5,12.4-27.6,12.9s-24.6-12.5-24.6-12.5
	S255.8,166.2,257.2,165z"/>
<path class="st7" d="M249,282.4c-1.9-0.1-6.1,0.7-7.5,2c-10.2,9.8-4,27.6-12.5,36.1c-11.5,11.6-59.5-0.6-59.5-0.6
	c13.5,2.6,35-20.8,43.5-40.1c10.5-23.8,34.6-43.7,34.6-43.7s-3-17.2-5-21.7c-2.9-6.7-4.9-15.6-2.5-26.3c1.9-8.8,1.7-19.8,1.7-19.8
	c22.5,11.2,47.8,1.7,47.8,1.7s2.3,5.3,5.4,18.1s0.2,15-3.9,27.5c-3.2,9.7-4.5,22.6-4.5,22.6c15.4,7.5,34.9,49.7,47.4,61.3
	c12.5,11.6,44.5,20.5,44.5,20.5s-46.8,2.4-74.6,0.3c-13.8-1.1-9.6-21.1-14.9-31.8c-1.9-3.9-6.1-6.2-10.5-6
	c-8.8,0.6-13.5,9.8-14.7,12.9C263.9,295.3,259.5,283,249,282.4"/>
<path class="st7" d="M272.4,208.3c0,0,9.5,8.8,18.9,0"/>
<path class="st7" d="M262.8,209.6c0,0-10.8,7.5-20.1-1.2"/>
<path class="st7" d="M244,185.8l-24.7,40.8l44.1,21l-2.8,7.2c0,0-46.9-12.3-52.7-15c-5.7-2.7-5.3-6.6-5.3-6.6s14.7-47.3,26.3-59.5
	L244,185.8z"/>
<path class="st6" d="M280.2,282.5c0,0-12.4-1.4-16.3,12.9c-1.7,15,4.4,91,5.2,119.2l7.2-2.3c0,0,9.9-60.1,16.3-110.1
	C291.4,290.5,287.8,282.6,280.2,282.5z"/>
<path class="st6" d="M247.4,282.4c0,0,12.2-1,16,13.2c1.4,15.1-4.6,88.3-6.6,116.2l-6.9,2.6c0,0-7.3-60.9-15.3-112.7
	C236,290.2,239.8,282.4,247.4,282.4z"/>
<path class="st7" d="M283.9,181.8l31.9,43l-11.8,4.5l0.1,3.3l0.1,3.3l23.7-1.7c0,0,3-0.7,2-5.2S299,170.1,299,170.1L283.9,181.8z"/>
<path class="st7" d="M241.8,168.3c0,0-15.7-0.8-17.7,3.4c-2,4.1,2,4.7,2,4.7s-8.2,2.2-4.1,7.5c3.7,4.6,7.3,0.4,7.3,0.4
	s-2.2,3.8,2,6.2c4.2,2.5,7.9-0.5,7.9-0.5s0.1,5.4,4.3,5.8c4.2,0.4,7.3-3.2,7.3-3.2s-1.2,3.4,3.6,5c4.7,1.6,7-3.2,7-3.2
	s0.4,4,5.8,4.4s5.8-4.3,5.8-4.3s2.4,4.7,7.2,3.4s4-5,4-5s2.5,4.1,7.4,1.8c4.9-2.3,1.9-5.5,1.9-5.5s3.8,3.6,6.4,0.3
	c2.5-3.2,1.2-4.8,1.2-4.8s1.7,1.8,4.3-0.5s1.2-4.1,1.2-4.1s1.5,0.6,2.8-3c1.2-3.6-5.3-3.5-5.3-3.5s3.4-3.2,0.3-4
	c-3-0.8-12.9-1.5-14.8,0.5c0,0-7.3,9.3-20.6,10.5C255.7,181.7,241.8,168.3,241.8,168.3z"/>
<g>
	<path class="st6" d="M253.9,151.5c3.5,3.8,8,7.3,13.1,6.9c3.8-0.3,7.1-2.7,9.6-5.5c2.6-3.1,5-6.4,6.9-9.9c1.4-2.1,2.6-4.5,3.3-6.9
		c0.9-3.6,0.3-7.3-0.3-10.9c-1-6-2.2-12.3-6.5-16.6c-2.6-2.3-5.6-4-8.8-5.3c-2.3-1.1-4.7-1.9-7.2-2.3c-2.1-0.2-4.3,0-6.3,0.6
		c-5.8,1.4-11,5-14.4,9.9C234.6,124.7,244.6,141.4,253.9,151.5z"/>
	<path class="st8" d="M285.8,141.7l2.5-5l3-12l-9-15.9l-9.6-8.1l-13.2-1l-10.6,3.5l-11.4,14.7l1.2,14.7l3.6,6.7
		c0,0,18-16.2,15.2-30.7c0,0,13.5,10.9,27.3,9.2C284.6,117.9,290.2,124.8,285.8,141.7z"/>
	<path class="st6" d="M265.9,125.8c-2.7-2.6-6.9-3-10.1-1"/>
	<path class="st6" d="M276.2,126.4c2-1.7,6.6-1.5,8.7,0.3"/>
	<path class="st6" d="M267.7,142.2c1-0.4,2-0.8,2.9-1.2c0.2-0.1,0.4-0.2,0.6-0.4c0.4-0.5,0.2-1.2,0-1.8l-1.1-3.1"/>
	<ellipse transform="matrix(0.1236 -0.9923 0.9923 0.1236 97.445 375.5191)" class="st5" cx="261.3" cy="132.6" rx="1.8" ry="1.5"/>
	
		<ellipse transform="matrix(0.1236 -0.9923 0.9923 0.1236 111.0281 392.4874)" class="st5" cx="277.7" cy="133.4" rx="1.8" ry="1.5"/>
	<path class="st9" d="M266.1,131.4c0,0-3.1-3.9-9-1.1c0,0-2,0.9-3.1-0.3"/>
	<path class="st9" d="M274.6,131.6c1.1-1.3,4.9-2.4,8.1,0.1c0,0,1.8,1.2,3.1,0.1"/>
	<path class="st10" d="M271,150.2c0,0-1.5-1.1-3.1-0.7c-1.6,0.4-1.9,1.4-2.9,1.6c0,0,0.4-2.5,2.7-2.8S270.9,149.6,271,150.2z"/>
</g>
<g>
	<g>
		<g>
			<path class="st11" d="M320.9,3.8c10.5,39.5,33.1,226.3,34.9,266.8c1.9,43,5.3,85.8,10.2,128.5c2.8,24.6,6,49.2,9.1,73.8
				c0,0.3,0.5,0.2,0.5,0c-5.3-43.3-10.6-86.8-14.2-130.3c-3.4-41.5-3.8-83.4-7.5-124.9c-2.1-22.9-25.7-191.9-31.9-214
				C321.8,3,320.7,3.2,320.9,3.8z"/>
		</g>
	</g>
	<g>
		<g>
			<path class="st12" d="M297.1,228.2c-0.2-0.4-0.4-0.8-0.8-1c-0.2-0.3-0.5-0.5-0.8-0.6c-0.1-4.2-0.3-8.5-0.3-12.7
				c0-0.5-0.4-0.8-0.8-0.8c-1.1-0.1-2.1-0.2-3.2-0.1c-0.8,0.1-1.1,1.3-0.2,1.5c0.9,0.2,1.7,0.3,2.6,0.3c0.3,3.9,0.2,7.8,0,11.7
				c-0.3,0.1-0.6,0.2-0.9,0.4c-1.9,1.2-1.8,3.8-1.3,6.1c-0.4,0.8-0.3,2-0.2,3.6c0.1,3.6,1,3.9,4.7,3.7c0.6,0,1.1-0.5,1.1-1.1
				c0.1-2.1,0.2-4.1,0.2-6.2C297.2,231.8,297.6,229.4,297.1,228.2z"/>
		</g>
		<g>
			<path class="st12" d="M283.9,215c0-1.3,0.1-2.6-0.1-3.9c-0.2-1.5-1.2-1.8-2.4-1.5c-0.7-0.1-1.5,0.3-1.6,1.2
				c-0.2,2.3-0.4,4.7-0.5,7c-0.1,1.3,1.3,1.8,2.1,1.3c0.4,0.1,0.9,0.1,1.4-0.1c0.4-0.1,0.8-0.4,0.9-0.7
				C284,217.3,283.9,216.1,283.9,215z"/>
		</g>
		<g>
			<path class="st13" d="M322.4,2.1c-16.8,14.7-32.4,74.8-36.5,95.2c-5.1,25.4-8.2,51.1-9.9,76.9c-1,15.1-1.2,30.1-0.9,45.2
				c0,1.4,2.2,1.3,2.2,0c0.3-25.2,1.6-50.5,4.5-75.5c2.8-24.5,6.5-49.4,12.7-73.4c3.1-11.7,19.4-59,29.2-67
				C324.7,2.6,323.3,1.2,322.4,2.1z"/>
		</g>
		<g>
			<path class="st12" d="M279.2,206.9c0.4,0,0.9,0,1.2,0.3c0.4,0.3,0.5,0.9,0.5,1.5c0.6,17.6,0.2,35.1-1.2,52.7c0,0.5-0.1,1-0.5,1.2
				c-0.3,0.2-0.7,0.2-1,0.2c-1,0-2,0-3.1,0c-0.5,0-1,0-1.3-0.3s-0.4-0.7-0.5-1.1c-0.5-2.3-0.5-4.7-0.6-7.1
				c-0.1-9.2-0.1-18.4,0.2-27.6c0.1-4.6,0.3-9.2,0.4-13.8c0.1-1.3-0.4-4.2,0.6-5.2C275,206.5,277.7,207,279.2,206.9z"/>
		</g>
		<g>
			<path class="st12" d="M292.4,212.6c0-3.8,0.5-10.1-4.8-9.3c-0.6-0.2-1.3-0.1-2.1,0.3c0,0,0,0-0.1,0c-1.9,0.1-2.3,2.4-2.5,4
				c-0.4,3.6,0.1,7.5,0.4,11.2c-0.3,1.8-0.4,3.6,0.6,5.1c0.7,1.1,1.9,1.7,3.1,1.7c0.4,0.1,0.9,0.2,1.4,0.2
				C293.7,225.6,292.4,215.8,292.4,212.6z"/>
		</g>
	</g>
</g>
<path class="st6" d="M263.4,247.6c0,0,11.6-2.3,11.1,0s-2,2.7,0,3.3c2,0.7,7.3,1.1,7,3.9s-7.9,5.9-20.9,0L263.4,247.6z"/>
<path class="st6" d="M304.1,229.3c0,0-7.7-3.6-7.3-1.6c0.3,2-1.8,2.1-6,1.9s-2.8,4.3,0.4,5.7c4.4,1.8,13.1,0.7,13.1,0.7L304.1,229.3
	z"/>
<g class="st14">
	<path class="st15" d="M308.6,205.9c-4.1,3.4-9.3,6.3-14.4,5.2c-3.8-0.8-6.8-3.8-9-7c-2.2-3.5-4.1-7.3-5.7-11.2
		c-1.2-2.4-2-4.9-2.4-7.6c-0.4-3.8,0.7-7.5,1.8-11.1c1.9-6,4-12.3,9-16.1c3-1.9,6.3-3.3,9.7-4.1c2.5-0.8,5.1-1.3,7.7-1.3
		c2.2,0.1,4.4,0.6,6.4,1.5c5.8,2.3,10.5,6.7,13.3,12.3C332.2,181.3,319.5,196.9,308.6,205.9z"/>
	<path class="st16" d="M322.3,195.2c0,0-18.1-19-13.1-33.5c0,0-6,5-11.9,5.1c0,0-14.9,0.9-17.2,13.4c0,0-0.5,7.5-2.8,11.1l-1.8-5.5
		l1.1-12.3l9.1-15.3l11-6.9l13.7,0.9l10.4,5.1l9.6,16.7l-3.4,14.9L322.3,195.2z"/>
	<path class="st15" d="M309.3,181.5c-0.6,0.2-1.3,0-1.9-0.4c-0.5-0.4-1-0.9-1.4-1.4c-0.3-0.3-0.7-0.7-1.1-0.9
		c-0.4-0.3-0.8-0.5-1.3-0.6c-1.2-0.2-2.5,0.1-3.5,0.9s-1.8,1.7-2.4,2.8"/>
	<path class="st15" d="M290.9,179.3l-1-1.1c-0.8-1-1.8-1.7-3.1-2c-1,0-2,0.3-2.9,0.8s-2,0.4-2.9-0.2"/>
	<path class="st15" d="M298.5,175.1c3.2-2.3,7.5-2.1,10.5,0.4"/>
	<path class="st15" d="M292.2,173.7c-1.8-2-4.6-2.9-7.2-2.4"/>
	<path class="st15" d="M293.5,192.1c-1-0.5-1.9-1.1-2.8-1.7c-0.2-0.1-0.4-0.3-0.6-0.5c-0.3-0.6,0-1.3,0.2-1.8l1.6-3.1"/>
	<path class="st15" d="M295.9,202.2c-0.7,0.2-1.5,0.4-2.2,0.7c-0.2,0.2-0.5,0.3-0.7,0.4c-1,0.4-2-0.5-2.4-1.4c-0.3-1-0.5-2-0.7-3
		c-0.2-0.8-0.7-1.6-0.9-2.5c-0.1-0.2,0-0.5,0-0.7c0.2-0.4,0.8-0.5,1.2-0.5c3.3,0.4,6.4,1.4,9.2,3.1c0.1,0,0.2,0.1,0.3,0.2
		c0.3,0.5-0.8,1.8-1.2,2.2C297.9,201.5,297,202,295.9,202.2z"/>
	<path class="st17" d="M290.9,204c0.9,0.5,2,0.7,3,0.4c1-0.3,1.9-0.7,2.8-1.3c0.7-0.4,1.3-0.9,1.9-1.4c0.5-0.3,1-0.7,1.4-1.2
		s0.6-1.1,0.5-1.7c-1,0.9-2.1,1.6-3.2,2.2c-1.6,0.8-3.3,1.1-5.1,0.9c-0.6-0.1-1.5-0.6-2,0C289.8,202.4,290.3,203.6,290.9,204z"/>
	<path class="st17" d="M288.6,194.6c2.1-0.6,4.3-0.5,6.3,0.4c1.9,0.9,3.8,2,5.5,3.4c0.1,0.1,0.2,0.2,0.2,0.3c0,0.1-0.2,0.2-0.3,0.2
		c-2,0.1-4-0.9-5.9-1.5c-1.6-0.5-3.2-0.7-4.9-0.6C288.2,196.8,286.6,195.3,288.6,194.6z"/>
	
		<ellipse transform="matrix(0.3893 -0.9211 0.9211 0.3893 18.562 388.2971)" class="st18" cx="302.1" cy="180.2" rx="1.9" ry="1.5"/>
	<ellipse transform="matrix(0.3893 -0.9211 0.9211 0.3893 10.8592 372.4578)" class="st18" cx="286.3" cy="178" rx="1.9" ry="1.5"/>
</g>
<polygon class="st8" points="268.6,413.3 264.4,430.5 271.3,447 278.4,428.1 277.2,413.5 277.6,406.8 268.6,407.3 "/>
<polygon class="st8" points="248.9,408.1 257.6,406.8 257.6,413.7 259.9,429.7 252.2,446 246.5,425.5 249.3,413.6 "/>
<g>
	<path class="st6" d="M412.1,29.7c0.1-0.5,0.1-1.1,0.1-1.6c0-5.2-4.2-9.4-9.4-9.4c-1.1,0-2.2,0.2-3.2,0.6c-3-4.7-8.4-7.9-14.4-7.9
		c-9.5,0-17.1,7.7-17.1,17.1c0,0.4,0,0.9,0.1,1.3c-4.6,1.2-8,5.3-8,10.2c0,5.8,4.7,10.6,10.5,10.6h39.6c5.8,0,10.6-4.7,10.6-10.6
		C420.8,34.9,417,30.6,412.1,29.7L412.1,29.7z"/>
</g>
<g>
	<path class="st6" d="M184.3,97.1c0.1-0.7,0.2-1.3,0.2-2c0-6.5-5.3-11.7-11.7-11.7c-1.4,0-2.8,0.3-4,0.7c-3.8-5.9-10.5-9.9-18-9.9
		c-11.8,0-21.5,9.6-21.5,21.5c0,0.6,0,1.1,0.1,1.7c-5.7,1.4-10,6.6-10,12.8c0,7.3,5.9,13.2,13.2,13.2h49.5c7.3,0,13.2-5.9,13.2-13.2
		C195.2,103.5,190.5,98.1,184.3,97.1L184.3,97.1z"/>
</g>
<g>
	<path class="st6" d="M435,145.3c0.1-0.3,0.1-0.7,0.1-1.1c0-3.4-2.8-6.2-6.2-6.2c-0.7,0-1.5,0.1-2.1,0.4c-2-3.1-5.5-5.2-9.5-5.2
		c-6.2,0-11.3,5.1-11.3,11.3c0,0.3,0,0.6,0,0.9c-3,0.8-5.3,3.5-5.3,6.7c0,3.8,3.1,7,6.9,7h26.1c3.8,0,7-3.1,7-7
		C440.8,148.7,438.3,145.9,435,145.3L435,145.3z"/>
</g>
<g>
	<path class="st1" d="M222.9,548.5c54.7-3,102.9,13.8,140.2,13.1c34.2-0.6,78.8-3.9,94.2-1.1c16.5,3,28.4,8.1,35.8,13.9
		c19.7-14,8.1-36.6-35.8-44.6c-15.4-2.8-60,0.5-94.2,1.1c-37.2,0.6-85.5-16.1-140.2-13.1c-54.6,3-77.9,29.8-59.8,52.3
		C172.6,558.8,193,550.1,222.9,548.5z"/>
	<path class="st12" d="M219.6,596.6c95.2,18.6,152.4-17.1,197.1-12c38.1,4.3,63.7-1.2,76.4-10.2c-7.4-5.9-19.4-10.9-35.8-13.9
		c-15.4-2.8-60,0.5-94.2,1.1c-37.2,0.6-85.5-16.1-140.2-13.1c-29.8,1.6-50.3,10.4-59.8,21.6C171.8,581,190.3,590.9,219.6,596.6z"/>
</g>
<g>
	<g>
		<path class="st19" d="M475.7,506.8c1.3,5.3-2,10.8-7.4,12.1l-145.8,35.4c-5.3,1.3-10.8-2-12.1-7.4l-19.6-80.6
			c-1.3-5.3,2-10.8,7.4-12.1L444,418.8c5.3-1.3,10.8,2,12.1,7.4L475.7,506.8z"/>
		<path class="st9" d="M475.7,506.8c1.3,5.3-2,10.8-7.4,12.1l-145.8,35.4c-5.3,1.3-10.8-2-12.1-7.4l-19.6-80.6
			c-1.3-5.3,2-10.8,7.4-12.1L444,418.8c5.3-1.3,10.8,2,12.1,7.4L475.7,506.8z"/>
	</g>
	<g>
		
			<image style="overflow:visible;" width="186" height="107" xlink:href="9CF6FD16C18FD3FA.png"  transform="matrix(1 0 0 1 289.2772 420.0724)">
		</image>
		<g>
			
				<rect x="297.4" y="449.4" transform="matrix(0.9717 -0.2363 0.2363 0.9717 -101.4507 103.3448)" class="st20" width="166" height="51"/>
			<text transform="matrix(0.9717 -0.2363 0.2363 0.9717 307.0707 499.4955)" class="st12 st21 st22">ERROR</text>
		</g>
	</g>
	<g>
		
			<image style="overflow:visible;" width="145" height="91" xlink:href="9CF6FD16C18FD3FF.png"  transform="matrix(1 0 0 1 319.2772 469.0724)">
		</image>
		<g>
			
				<rect x="327.6" y="489.3" transform="matrix(0.9717 -0.2363 0.2363 0.9717 -110.3666 106.6782)" class="st20" width="124.5" height="49"/>
			<text transform="matrix(0.9717 -0.2363 0.2363 0.9717 355.1947 529.9871)" class="st12 st21 st22">404</text>
		</g>
	</g>
</g>
</svg>
