<svg id="Layer_1" data-name="Layer 1" xmlns="http://www.w3.org/2000/svg" viewBox="0 0 572 327.48"><defs><style>.cls-1{fill:#ffe600;}.cls-2,.cls-21{fill:#fff;}.cls-10,.cls-17,.cls-18,.cls-19,.cls-2,.cls-20,.cls-4,.cls-5,.cls-6,.cls-8,.cls-9{stroke:#000;stroke-width:0.5px;}.cls-17,.cls-18,.cls-19,.cls-2,.cls-4,.cls-5,.cls-6,.cls-8,.cls-9{stroke-miterlimit:10;}.cls-19,.cls-3{fill:#c6c6c6;}.cls-4{fill:#99005f;}.cls-5,.cls-7{fill:#1a1a1a;}.cls-6{fill:#eb058c;}.cls-10,.cls-8{fill:#c10072;}.cls-12,.cls-13,.cls-14,.cls-15,.cls-16,.cls-9{fill:none;}.cls-10,.cls-12,.cls-13,.cls-14,.cls-15,.cls-16,.cls-20{stroke-linejoin:round;}.cls-11{fill:#b70473;}.cls-12,.cls-13,.cls-14,.cls-15,.cls-16{stroke:#1c1c1c;stroke-linecap:round;stroke-width:1.2px;}.cls-13{stroke-dasharray:8.6 8.6;}.cls-14{stroke-dasharray:9.1 9.1;}.cls-15{stroke-dasharray:6.94 6.94;}.cls-16{stroke-dasharray:8.29 8.29;}.cls-17{fill:#0077bf;}.cls-18{fill:#e2e2e2;}.cls-20{fill:#efefef;}.cls-22{fill:#2d2d2d;}</style></defs><title>262x150 copy</title><rect class="cls-1" width="572" height="327.48"/><path class="cls-2" d="M522.81,206.31a28,28,0,0,0,.43-4.7,27.1,27.1,0,0,0-36.47-25.49A49.63,49.63,0,0,0,395.38,203c0,1.29.09,2.56.19,3.82A30.55,30.55,0,0,0,403,267H517.62a30.55,30.55,0,0,0,5.19-60.66Zm0,0"/><path class="cls-3" d="M395.84,226.49s15.08,6.31,66.27,7.75,82.94-7.75,82.94-7.75Z"/><polygon class="cls-4" points="495.97 226.94 426.71 226.94 441.53 194.11 483.62 193.34 495.97 226.94"/><path class="cls-5" d="M467,125.23c20.67,10.24,34.59-3,34.59-3s9.55-.63,11.33-11.72c0,0-9.39,3.33-16.42-8.27C493,96.36,492.89,95,491,88.5c0,0-1.59-15.42-11.07-22.12a26.82,26.82,0,0,0-16.58-5.11A14.45,14.45,0,0,0,456.62,63c-3.38,2.15-8.21,5.21-10.9,11.65,0,0-7.55,13.44.6,27.53,4.31,3.92,2.43,15.68,3,18.88l12.29,6.28"/><path class="cls-2" d="M458.41,115.89a9.51,9.51,0,0,0,.56-3.24,46.71,46.71,0,0,0-.37-4.88,19,19,0,0,1,8.89-3.72c1.11-.16,1.68,0,1.73,1.16a25.68,25.68,0,0,0,.15,3,20.42,20.42,0,0,0,1.48,5.64s8.13,4.92,15,5.43h0s-8.2,8.87-19.71,9.22-17.53-8.9-17.53-8.9S457.46,116.75,458.41,115.89Z"/><path class="cls-6" d="M452.55,199.72c-1.33-.07-4.36.52-5.32,1.45-7.27,7-2.88,19.68-8.91,25.78-8.21,8.28-42.48-.46-42.48-.46,9.63,1.86,25-14.85,31.05-28.64,7.5-17,24.7-31.18,24.7-31.18s-2.14-12.26-3.55-15.51a30,30,0,0,1-1.78-18.81,69.64,69.64,0,0,0,1.2-14.11c16.08,8,34.13,1.19,34.13,1.19a87.45,87.45,0,0,1,3.85,12.92c2.18,9.12.18,10.74-2.77,19.63a90.58,90.58,0,0,0-3.22,16.13c11,5.36,24.91,35.46,33.86,43.75s31.74,14.63,31.74,14.63-33.42,1.71-53.28.19c-9.85-.75-6.84-15.07-10.61-22.7a7.9,7.9,0,0,0-7.49-4.27c-6.31.42-9.61,7-10.48,9.21,0,0-3.14-8.76-10.64-9.2"/><path class="cls-6" d="M469.28,146.81s6.79,6.24,13.48,0"/><path class="cls-6" d="M462.41,147.7s-7.67,5.35-14.37-.89"/><path class="cls-6" d="M450.61,130.74,433,159.9l16.49,10.85-2,5.14s-18.54-4.64-22.63-6.54-3.79-4.69-3.79-4.69,10.47-33.8,18.8-42.48Z"/><path class="cls-2" d="M474.85,199.74s-8.87-1-11.66,9.18c-1.24,10.74,3.11,57.82,3.68,78l5.12-1.66s7-35.79,11.63-71.44C482.85,205.47,480.29,199.87,474.85,199.74Z"/><path class="cls-2" d="M451.45,199.71s8.73-.69,11.45,9.44c1,10.76-3.3,55.89-4.7,75.85l-4.9,1.87s-5.23-36.3-10.93-73.33C443.33,205.25,446,199.72,451.45,199.71Z"/><path class="cls-2" d="M471.43,105.5c-2.48,2.7-5.72,5.22-9.38,4.94-2.69-.21-5.05-1.94-6.86-3.93a43.51,43.51,0,0,1-4.95-7.09,19.08,19.08,0,0,1-2.38-4.94c-.66-2.54-.25-5.21.2-7.77.7-4.26,1.57-8.81,4.64-11.85A20.15,20.15,0,0,1,459,71.11a17.94,17.94,0,0,1,5.15-1.66,12.54,12.54,0,0,1,4.52.41A17.67,17.67,0,0,1,478.91,77C485.24,86.39,478,98.33,471.43,105.5Z"/><path class="cls-7" d="M448.68,98.54,446.91,95l-2.14-8.57,6.42-11.33,6.87-5.77,9.42-.74,7.6,2.5,8.15,10.51-.88,10.53-2.55,4.77S466.92,85.34,469,75c0,0-9.67,7.78-19.46,6.56C449.51,81.52,445.5,86.46,448.68,98.54Z"/><path class="cls-2" d="M462.86,87.21a5.9,5.9,0,0,1,7.21-.72"/><path class="cls-2" d="M455.52,87.57c-1.45-1.19-4.7-1.09-6.24.19"/><path class="cls-2" d="M461.57,98.9a19.28,19.28,0,0,1-2.09-.89,1.25,1.25,0,0,1-.44-.31,1.35,1.35,0,0,1,0-1.28l.77-2.24"/><path class="cls-8" d="M459.05,100.59a5.84,5.84,0,0,1,4.05-.32,16.85,16.85,0,0,1,3.8,1.64c.08,0,.17.1.15.18s-.1.11-.2.1a10.66,10.66,0,0,1-3.87-.41,8.78,8.78,0,0,0-3.15,0c-.49.12-2.47.88-2.65.55S458.55,100.85,459.05,100.59Z"/><ellipse class="cls-5" cx="466.17" cy="92.05" rx="1.04" ry="1.31" transform="translate(-7.8 58.34) rotate(-7.1)"/><ellipse class="cls-5" cx="454.43" cy="92.61" rx="1.04" ry="1.31" transform="translate(-7.96 56.9) rotate(-7.1)"/><path class="cls-9" d="M462.7,91.17s2.24-2.82,6.41-.81c0,0,1.42.66,2.22-.24"/><path class="cls-9" d="M456.62,91.36a4.5,4.5,0,0,0-5.76.1s-1.31.85-2.22.07"/><path class="cls-10" d="M457.18,102.38a6.89,6.89,0,0,0,4.81,1.74c2.59-.31,3.38-1.85,4.86-1.93,0,0-1.15,3.86-4.8,3.92S457.23,103.41,457.18,102.38Z"/><path class="cls-2" d="M449.49,170.75s8.27-1.67,7.92,0-1.41,1.91,0,2.38,5.22.76,5,2.76-5.62,4.19-14.88,0Z"/><path class="cls-6" d="M479,130.74l17.61,29.16-16.5,10.85,2,5.14s18.53-4.64,22.63-6.54,3.79-4.69,3.79-4.69-10.47-33.8-18.8-42.48Z"/><path class="cls-2" d="M480.13,170.75s-8.27-1.67-7.91,0,1.4,1.91,0,2.38-5.23.76-5,2.76,5.62,4.19,14.89,0Z"/><path class="cls-6" d="M447.46,118.24s-11.19-.54-12.65,2.4,1.45,3.35,1.45,3.35-5.89,1.57-2.92,5.33a3.16,3.16,0,0,0,5.19.3,3.2,3.2,0,0,0,1.44,4.44,5.23,5.23,0,0,0,5.67-.34s.06,3.84,3.06,4.1,5.22-2.31,5.22-2.31-.84,2.42,2.55,3.54,5-2.3,5-2.3.27,2.86,4.14,3.15,4.17-3,4.17-3,1.73,3.38,5.15,2.4,2.88-3.6,2.88-3.6a4,4,0,0,0,5.25,1.28c3.5-1.63,1.37-3.92,1.37-3.92s2.72,2.54,4.54.25.85-3.43.85-3.43,1.21,1.27,3.05-.39.88-2.91.88-2.91,1.1.41,2-2.14-3.78-2.5-3.78-2.5,2.4-2.27.25-2.85-9.18-1-10.58.38a22.39,22.39,0,0,1-14.72,7.51C457.36,127.8,447.46,118.24,447.46,118.24Z"/><polygon class="cls-7" points="466.55 285.98 463.55 298.31 468.48 310.07 473.59 296.61 472.69 286.18 472.97 281.39 466.54 281.77 466.55 285.98"/><polygon class="cls-7" points="452.47 282.32 458.69 281.39 458.72 286.33 460.33 297.75 454.87 309.36 450.82 294.74 452.78 286.23 452.47 282.32"/><path class="cls-11" d="M429.34,193s17.83,2.45,34.27,3,35.52-3,35.52-3Z"/><line class="cls-12" x1="447.52" y1="179.32" x2="443.52" y2="179.32"/><line class="cls-13" x1="434.92" y1="179.32" x2="404.82" y2="179.32"/><polyline class="cls-12" points="400.52 179.32 396.52 179.32 396.52 175.32"/><line class="cls-14" x1="396.52" y1="166.22" x2="396.52" y2="134.39"/><line class="cls-12" x1="396.52" y1="129.84" x2="396.52" y2="125.84"/><line class="cls-12" x1="479.95" y1="154.86" x2="483.95" y2="154.86"/><line class="cls-15" x1="490.89" y1="154.86" x2="515.18" y2="154.86"/><polyline class="cls-12" points="518.65 154.86 522.65 154.86 522.65 150.86"/><line class="cls-16" x1="522.65" y1="142.56" x2="522.65" y2="63.77"/><line class="cls-12" x1="522.65" y1="59.63" x2="522.65" y2="55.63"/><path class="cls-2" d="M414.65,126.19a7.65,7.65,0,0,0,.13-1.36A7.88,7.88,0,0,0,406.9,117a8.13,8.13,0,0,0-2.71.48,14.4,14.4,0,0,0-26.51,7.79c0,.38,0,.75.05,1.11a8.87,8.87,0,0,0,2.16,17.47h33.26a8.87,8.87,0,0,0,1.5-17.61Zm0,0"/><path class="cls-2" d="M545.14,38.32a9.71,9.71,0,0,0,.16-1.71,9.9,9.9,0,0,0-9.9-9.9,10,10,0,0,0-3.39.61,18.08,18.08,0,0,0-33.29,9.78c0,.47,0,.93.07,1.4a11.13,11.13,0,0,0,2.71,21.92h41.75a11.13,11.13,0,0,0,1.89-22.1Zm0,0"/><path class="cls-17" d="M522,46.72a2.87,2.87,0,0,1,.15-.37A2.3,2.3,0,0,1,521.7,45a2.4,2.4,0,0,1,3.75-2,2.87,2.87,0,0,1,.37-.15,2.4,2.4,0,0,1,2.36-2A2.44,2.44,0,0,1,529,41a1.8,1.8,0,0,0-1.08-3.24h-1.1a8,8,0,0,0-1-2.39l.78-.78a1.79,1.79,0,0,0,0-2.55,1.81,1.81,0,0,0-2.55,0l-.78.78a8,8,0,0,0-2.39-1v-1.1a1.8,1.8,0,0,0-3.6,0v1.1a8,8,0,0,0-2.39,1l-.78-.78a1.81,1.81,0,0,0-2.55,0,1.79,1.79,0,0,0,0,2.55l.78.78a8,8,0,0,0-1,2.39h-1.1a1.81,1.81,0,1,0,0,3.61h1.1a7.94,7.94,0,0,0,1,2.38l-.78.78a1.8,1.8,0,1,0,2.55,2.55l.78-.78a7.75,7.75,0,0,0,2.39,1v1.1a1.8,1.8,0,0,0,1.8,1.81,1.78,1.78,0,0,0,1.1-.39,2.44,2.44,0,0,1-.13-.77,2.4,2.4,0,0,1,2-2.36ZM519,43.21a3.61,3.61,0,1,1,3.61-3.61A3.61,3.61,0,0,1,519,43.21Zm0,0"/><path class="cls-17" d="M534,48.13h-.67a5.15,5.15,0,0,0-.82-2l.47-.47a1,1,0,0,0,0-1.34.94.94,0,0,0-1.34,0l-.47.47a5.21,5.21,0,0,0-2-.83V43.3a.95.95,0,0,0-1.89,0V44a5.11,5.11,0,0,0-2,.83l-.47-.47a.94.94,0,0,0-.67-.28.91.91,0,0,0-.67.28.93.93,0,0,0,0,1.34l.47.47a5.17,5.17,0,0,0-.83,2h-.67a1,1,0,0,0,0,1.9h.67a5.23,5.23,0,0,0,.83,2l-.47.47a.93.93,0,0,0,0,1.34.91.91,0,0,0,.67.28.94.94,0,0,0,.67-.28l.47-.47a5.09,5.09,0,0,0,2,.82v.67a.95.95,0,1,0,1.89,0v-.67a5.2,5.2,0,0,0,2-.82l.47.47a.94.94,0,0,0,1.34,0,1,1,0,0,0,0-1.34l-.47-.47a5.22,5.22,0,0,0,.82-2H534a.95.95,0,1,0,0-1.9ZM528.18,51a2,2,0,1,1,2-2,2,2,0,0,1-2,2Zm0,0"/><path class="cls-17" d="M401.59,134.53a8.06,8.06,0,1,0-11.4-11.4,7.9,7.9,0,0,0-1.22,9.73.33.33,0,0,1,0,.4l-4.12,4.12a1.88,1.88,0,0,0-.29,2.69l.13.12a1.88,1.88,0,0,0,2.69-.28l4.1-4.11a.36.36,0,0,1,.42-.06,7.9,7.9,0,0,0,9.73-1.21Zm-9.74-1.67a5.71,5.71,0,1,1,8.07,0,5.72,5.72,0,0,1-8.07,0Zm-.18.18"/><path class="cls-17" d="M392.45,128.15a.72.72,0,0,1-.29-.06.74.74,0,0,1-.4-1,4.77,4.77,0,0,1,6.24-2.53.76.76,0,0,1,.4,1,.74.74,0,0,1-1,.4,3.26,3.26,0,0,0-4.26,1.73.75.75,0,0,1-.7.46Zm0,0"/><path class="cls-18" d="M504.08,190.22V146a4,4,0,0,0-4-4H432.89a4,4,0,0,0-4,4v44.27Z"/><path class="cls-19" d="M502,193H431c-1.81,0-2.09-2.4-2.09-2.4h75.22S503.8,193,502,193Z"/><rect class="cls-20" x="428.86" y="189.64" width="75.22" height="1.34"/><circle class="cls-2" cx="466.51" cy="165.68" r="5.21"/><rect class="cls-17" x="31.33" y="248.95" width="294.54" height="49.84" rx="17.38" ry="17.38"/><path class="cls-21" d="M68.93,271.73q0,5.24-2.13,8a7.28,7.28,0,0,1-6.14,2.77H55.48V261.36h5.65a6.81,6.81,0,0,1,5.75,2.72Q68.94,266.81,68.93,271.73Zm-4,.12c0-4.73-1.31-7.09-3.91-7.09H59.41v14.31h1.28a3.41,3.41,0,0,0,3.18-1.81A11.24,11.24,0,0,0,64.9,271.85Z"/><path class="cls-21" d="M83.72,274.42A10,10,0,0,1,82,280.59a5.47,5.47,0,0,1-4.6,2.21,5.54,5.54,0,0,1-3.27-1A6.39,6.39,0,0,1,72,278.87a11.68,11.68,0,0,1-.77-4.45,10,10,0,0,1,1.66-6.13,5.46,5.46,0,0,1,4.62-2.2A5.36,5.36,0,0,1,82,268.34,9.88,9.88,0,0,1,83.72,274.42Zm-8.57,0a10.3,10.3,0,0,0,.55,3.81,1.84,1.84,0,0,0,1.77,1.28c1.54,0,2.31-1.69,2.31-5.09a9.78,9.78,0,0,0-.55-3.78,1.87,1.87,0,0,0-3.53,0A10,10,0,0,0,75.15,274.42Z"/><path class="cls-21" d="M97.65,282.51l-1.6-9.36-.57-3.95h-.06c-.14,1.28-.26,2.21-.34,2.78s-.7,4.09-1.84,10.53H88.29l-3.21-16.12h3.86l1.48,8.88c.17,1,.33,2.43.48,4.33H91c0-.51.09-1.29.2-2.34s.2-1.71.25-2L93,266.39h5l1.58,8.88a39.28,39.28,0,0,1,.47,4.33h.06c.14-1.73.31-3.17.51-4.33l1.53-8.88h3.76l-3.22,16.12Z"/><path class="cls-21" d="M115.85,282.51V272.9a6.44,6.44,0,0,0-.42-2.64,1.41,1.41,0,0,0-1.36-.9,1.91,1.91,0,0,0-1.82,1.23,10.68,10.68,0,0,0-.58,4.18v7.74h-3.85V266.39h3.06l.46,2.07h.24a4.16,4.16,0,0,1,1.49-1.74,4.11,4.11,0,0,1,2.28-.63,3.81,3.81,0,0,1,3.29,1.5,7.44,7.44,0,0,1,1.09,4.4v10.52Z"/><path class="cls-21" d="M126.69,282.51h-3.85V260h3.85Z"/><path class="cls-21" d="M141.85,274.42a10,10,0,0,1-1.68,6.17,5.47,5.47,0,0,1-4.6,2.21,5.54,5.54,0,0,1-3.27-1,6.46,6.46,0,0,1-2.18-2.92,11.88,11.88,0,0,1-.77-4.45,10,10,0,0,1,1.66-6.13,5.46,5.46,0,0,1,4.62-2.2,5.39,5.39,0,0,1,4.54,2.25A10,10,0,0,1,141.85,274.42Zm-8.56,0a10.09,10.09,0,0,0,.55,3.81,1.82,1.82,0,0,0,1.76,1.28c1.54,0,2.32-1.69,2.32-5.09a9.75,9.75,0,0,0-.56-3.78,1.86,1.86,0,0,0-3.52,0A9.78,9.78,0,0,0,133.29,274.42Z"/><path class="cls-21" d="M152.46,282.51l-.77-2.2h-.09a5.42,5.42,0,0,1-1.76,1.95,4.47,4.47,0,0,1-2.3.54,3.35,3.35,0,0,1-2.8-1.33,6,6,0,0,1-1-3.71,4.79,4.79,0,0,1,1.39-3.78,6.69,6.69,0,0,1,4.18-1.37l2.14-.08v-1.16c0-1.51-.65-2.26-2-2.26a6.69,6.69,0,0,0-3.33,1.13l-1.33-2.66a9.6,9.6,0,0,1,5.22-1.52,5,5,0,0,1,3.9,1.47,6,6,0,0,1,1.34,4.16v10.82Zm-3.35-2.72a1.94,1.94,0,0,0,1.69-1,4.48,4.48,0,0,0,.63-2.52V275l-1.19.05a2.67,2.67,0,0,0-1.93.76,2.92,2.92,0,0,0-.61,2C147.7,279.12,148.17,279.79,149.11,279.79Z"/><path class="cls-21" d="M162.63,282.8a3.92,3.92,0,0,1-3.52-2.2,12.17,12.17,0,0,1-1.29-6.12,12.58,12.58,0,0,1,1.26-6.16,3.85,3.85,0,0,1,3.47-2.23,3.35,3.35,0,0,1,1.91.54,4.92,4.92,0,0,1,1.48,1.83h.23c-.11-1.47-.17-2.49-.17-3.08V260h3.85v22.51H167l-.65-2.1h-.13A3.87,3.87,0,0,1,162.63,282.8Zm1.24-3.26a1.63,1.63,0,0,0,1.56-1A9.13,9.13,0,0,0,166,275v-.5a11,11,0,0,0-.5-3.95,1.69,1.69,0,0,0-1.64-1.14c-.72,0-1.23.43-1.56,1.3a11.71,11.71,0,0,0-.48,3.82,10.75,10.75,0,0,0,.49,3.75A1.67,1.67,0,0,0,163.87,279.54Z"/><path class="cls-21" d="M187.57,269.44h-2.66v13.07h-3.85V269.44h-1.87v-1.92l1.87-1.16v-1.21a6.06,6.06,0,0,1,1.11-4,4.46,4.46,0,0,1,3.59-1.31,6.53,6.53,0,0,1,2.91.65l-1,2.94a3.31,3.31,0,0,0-1.48-.35,1,1,0,0,0-1,.52,3.33,3.33,0,0,0-.3,1.61v1.18h2.66Z"/><path class="cls-21" d="M196.13,266.09a4.64,4.64,0,0,1,1.39.21l-.44,3.74a3.18,3.18,0,0,0-1.06-.15,2.45,2.45,0,0,0-2.16,1.11,5.74,5.74,0,0,0-.75,3.22v8.29h-3.85V266.39h3.17l.43,2.52H193a5.8,5.8,0,0,1,1.38-2.17A2.59,2.59,0,0,1,196.13,266.09Z"/><path class="cls-21" d="M205.19,282.8a5.84,5.84,0,0,1-4.77-2.15,9.43,9.43,0,0,1-1.74-6.08,10.72,10.72,0,0,1,1.58-6.24,5.09,5.09,0,0,1,4.4-2.24,5,5,0,0,1,4.15,1.92,8.43,8.43,0,0,1,1.52,5.37v2.05h-7.74a5.27,5.27,0,0,0,.88,3.21,2.8,2.8,0,0,0,2.31,1.05,7.49,7.49,0,0,0,3.85-1.17v3.16A8.37,8.37,0,0,1,205.19,282.8Zm-.56-13.75a1.57,1.57,0,0,0-1.36.88,5.75,5.75,0,0,0-.62,2.71h3.9A5.92,5.92,0,0,0,206,270,1.55,1.55,0,0,0,204.63,269.05Z"/><path class="cls-21" d="M218.82,282.8a5.83,5.83,0,0,1-4.77-2.15,9.43,9.43,0,0,1-1.74-6.08,10.72,10.72,0,0,1,1.58-6.24,5.07,5.07,0,0,1,4.4-2.24,5,5,0,0,1,4.15,1.92,8.43,8.43,0,0,1,1.52,5.37v2.05h-7.74a5.27,5.27,0,0,0,.88,3.21,2.8,2.8,0,0,0,2.31,1.05,7.49,7.49,0,0,0,3.85-1.17v3.16A8.37,8.37,0,0,1,218.82,282.8Zm-.56-13.75a1.57,1.57,0,0,0-1.36.88,5.86,5.86,0,0,0-.63,2.71h3.91a5.92,5.92,0,0,0-.53-2.67A1.56,1.56,0,0,0,218.26,269.05Z"/><path class="cls-21" d="M239.77,282.8a5.83,5.83,0,0,1-4.77-2.15,9.43,9.43,0,0,1-1.74-6.08,10.72,10.72,0,0,1,1.58-6.24,5.44,5.44,0,0,1,8.55-.32,8.43,8.43,0,0,1,1.52,5.37v2.05h-7.74a5.21,5.21,0,0,0,.88,3.21,2.8,2.8,0,0,0,2.31,1.05,7.49,7.49,0,0,0,3.85-1.17v3.16A8.37,8.37,0,0,1,239.77,282.8Zm-.56-13.75a1.57,1.57,0,0,0-1.36.88,5.86,5.86,0,0,0-.63,2.71h3.91a5.77,5.77,0,0,0-.54-2.67A1.54,1.54,0,0,0,239.21,269.05Z"/><path class="cls-21" d="M247.68,261.36h5.4c2.2,0,3.8.42,4.8,1.28a5,5,0,0,1,1.51,4.07,5.56,5.56,0,0,1-.8,3.07,3.18,3.18,0,0,1-2.17,1.5v.15A4.13,4.13,0,0,1,259,273.1a6,6,0,0,1,.8,3.27,6.32,6.32,0,0,1-1.54,4.51,5.53,5.53,0,0,1-4.22,1.63h-6.37Zm3.71,8.5h1.81a2.08,2.08,0,0,0,1.75-.66,3.3,3.3,0,0,0,.5-2,2.6,2.6,0,0,0-.57-1.89,2.54,2.54,0,0,0-1.83-.57h-1.66Zm0,3.29v5.92h2a2.21,2.21,0,0,0,1.83-.76,3.69,3.69,0,0,0,.6-2.33c0-1.89-.83-2.83-2.49-2.83Z"/><path class="cls-21" d="M274.41,274.42a10,10,0,0,1-1.68,6.17,5.86,5.86,0,0,1-7.87,1.2,6.41,6.41,0,0,1-2.19-2.92,11.88,11.88,0,0,1-.76-4.45,10,10,0,0,1,1.66-6.13,5.46,5.46,0,0,1,4.62-2.2,5.36,5.36,0,0,1,4.53,2.25A10,10,0,0,1,274.41,274.42Zm-8.57,0a10.09,10.09,0,0,0,.55,3.81,1.84,1.84,0,0,0,1.77,1.28c1.54,0,2.31-1.69,2.31-5.09a9.56,9.56,0,0,0-.56-3.78,1.86,1.86,0,0,0-3.52,0A9.78,9.78,0,0,0,265.84,274.42Z"/><path class="cls-21" d="M289.05,274.42a10,10,0,0,1-1.68,6.17,5.86,5.86,0,0,1-7.87,1.2,6.48,6.48,0,0,1-2.19-2.92,11.88,11.88,0,0,1-.76-4.45,10,10,0,0,1,1.66-6.13,5.46,5.46,0,0,1,4.62-2.2,5.36,5.36,0,0,1,4.53,2.25A9.88,9.88,0,0,1,289.05,274.42Zm-8.57,0a10.3,10.3,0,0,0,.55,3.81,1.84,1.84,0,0,0,1.77,1.28c1.54,0,2.31-1.69,2.31-5.09a9.78,9.78,0,0,0-.55-3.78,1.87,1.87,0,0,0-3.53,0A10,10,0,0,0,280.48,274.42Z"/><path class="cls-21" d="M295.54,273.83l1-1.93,3.19-5.51h4.08L299.7,273l4.35,9.51h-4l-2.9-6.82-1.51,1.36v5.46h-3.85V260h3.85v10.6l-.17,3.23Z"/><path class="cls-22" d="M38.35,45.94v9.93H33.6V30.34h6.22c2.63,0,4.57.63,5.82,1.87s1.88,3.15,1.88,5.71q0,4.84-3.27,6.76l4.91,11.19H44.08l-4-9.93Zm0-4.09h1.22a2.86,2.86,0,0,0,2.41-1,4.61,4.61,0,0,0,.73-2.84,4,4,0,0,0-.77-2.78,3.12,3.12,0,0,0-2.4-.83H38.35Z"/><path class="cls-22" d="M63.56,55.87,62.1,49.43H55.44L54,55.87H49.23l6.32-25.63H62l6.34,25.63ZM61.21,45.22l-1.36-5.94c-.09-.36-.27-1.26-.56-2.71s-.45-2.42-.51-2.91c-.15,1-.34,2.11-.58,3.31s-.83,4-1.81,8.25Z"/><path class="cls-22" d="M88.47,55.87h-5.8l-7.9-18.49h-.22A22.51,22.51,0,0,1,75,41.92V55.87h-4.4V30.34h5.84l7.82,18.3h.19a24.9,24.9,0,0,1-.33-4.36V30.34h4.37Z"/><path class="cls-22" d="M108.88,55.87h-5.07L99.62,45l-1.9,1.9v9H93V30.34h4.75V43l1.66-3.82,4.35-8.84h5.08l-5.9,11.06Z"/><path class="cls-22" d="M132.66,40.93l-.64,4.4h3.54v3.38h-4l-1.05,7.16h-3.35l1.07-7.16h-3.18l-1,7.16h-3.36l1-7.16h-3.28V45.33h3.79l.65-4.4h-3.51V37.55h4l1-7.21h3.29l-1,7.21h3.18l1.09-7.21h3.28l-1,7.21h3.32v3.38Zm-7.11,4.4h3.15l.64-4.4h-3.19Z"/><path class="cls-22" d="M149.9,55.87h-4.68v-15c0-1.63.08-3.5.24-5.62-.08.11-.38.47-.9,1.06s-1.53,1.66-3,3.2l-2.65-2.9,6.79-6.29h4.23Z"/><path class="cls-22" d="M182.38,43.07q0,6.34-2.38,9.75a8.51,8.51,0,0,1-13.6,0Q164,49.43,164,43t2.38-9.72a7.85,7.85,0,0,1,6.84-3.38,7.74,7.74,0,0,1,6.78,3.4Q182.38,36.73,182.38,43.07Zm-13.5,0a16,16,0,0,0,1.1,6.66A3.48,3.48,0,0,0,173.21,52q4.29,0,4.29-8.94t-4.26-8.94A3.49,3.49,0,0,0,170,36.41,15.89,15.89,0,0,0,168.88,43.07Z"/><path class="cls-22" d="M204,55.87h-5.8l-7.89-18.49h-.23a22.49,22.49,0,0,1,.44,4.54V55.87h-4.4V30.34h5.83l7.82,18.3h.19a24.9,24.9,0,0,1-.33-4.36V30.34H204Z"/><path class="cls-22" d="M225,41.71h7.8v13.1a17.82,17.82,0,0,1-7.05,1.41,7.9,7.9,0,0,1-6.86-3.39q-2.4-3.37-2.4-9.76,0-6.14,2.75-9.62A9.25,9.25,0,0,1,227,30a11.66,11.66,0,0,1,5.84,1.57l-1.5,3.87a8.25,8.25,0,0,0-4.06-1.25A4.86,4.86,0,0,0,223,36.59a11.88,11.88,0,0,0-1.58,6.59,15.12,15.12,0,0,0,1.14,6.58,3.59,3.59,0,0,0,3.33,2.29,9.51,9.51,0,0,0,2.34-.3V45.9H225Z"/><path class="cls-22" d="M254.3,43.07q0,6.34-2.37,9.75a8.51,8.51,0,0,1-13.6,0Q235.95,49.43,236,43t2.38-9.72a7.85,7.85,0,0,1,6.84-3.38,7.75,7.75,0,0,1,6.78,3.4Q254.31,36.73,254.3,43.07Zm-13.5,0a16,16,0,0,0,1.1,6.66A3.49,3.49,0,0,0,245.14,52q4.29,0,4.29-8.94t-4.26-8.94a3.52,3.52,0,0,0-3.27,2.28A15.89,15.89,0,0,0,240.8,43.07Z"/><path class="cls-22" d="M275.59,43.07q0,6.34-2.38,9.75a8.51,8.51,0,0,1-13.6,0q-2.37-3.4-2.37-9.79t2.37-9.72a7.87,7.87,0,0,1,6.85-3.38,7.73,7.73,0,0,1,6.77,3.4Q275.59,36.73,275.59,43.07Zm-13.5,0a16,16,0,0,0,1.1,6.66A3.48,3.48,0,0,0,266.42,52q4.31,0,4.3-8.94t-4.26-8.94a3.5,3.5,0,0,0-3.27,2.28A15.89,15.89,0,0,0,262.09,43.07Z"/><path class="cls-22" d="M287,41.71h7.8v13.1a17.82,17.82,0,0,1-7.05,1.41,7.9,7.9,0,0,1-6.86-3.39q-2.4-3.37-2.4-9.76,0-6.14,2.75-9.62A9.25,9.25,0,0,1,289,30a11.66,11.66,0,0,1,5.84,1.57l-1.5,3.87a8.25,8.25,0,0,0-4.06-1.25A4.86,4.86,0,0,0,285,36.59a11.88,11.88,0,0,0-1.58,6.59,15.12,15.12,0,0,0,1.14,6.58,3.59,3.59,0,0,0,3.33,2.29,9.57,9.57,0,0,0,2.34-.3V45.9H287Z"/><path class="cls-22" d="M298.73,55.87V30.34h4.74V51.72h6.59v4.15Z"/><path class="cls-22" d="M324.6,55.87H313.1V30.34h11.5v4.11h-6.75v6.07h6.27v4.12h-6.27v7.08h6.75Z"/><path class="cls-22" d="M57.24,102.48H50.67L47.91,87.69a52.52,52.52,0,0,1-.9-7.16L46.85,82l-.79,5.81-2.68,14.71H36.81L31.7,74.25h5.15l2.53,15.93q.36,2.4,1,7.51.49-5.18.91-7.39l3-16h5.45l3,16q.6,3.57.95,7.43c.45-3.81.78-6.32,1-7.55l2.45-15.93h5.2Z"/><path class="cls-22" d="M66.1,102.48V74.25H71v28.23Z"/><path class="cls-22" d="M85.68,102.48H80.45V78.87H75V74.25h16v4.62H85.68Z"/><path class="cls-22" d="M111.53,102.48h-5.25V90.1H99.35v12.38H94.1V74.25h5.25V85.47h6.93V74.25h5.25Z"/><path class="cls-22" d="M135,102.48h-5.23V78.87h-5.4V74.25h16v4.62H135Z"/><path class="cls-22" d="M160.81,102.48h-5.25V90.1h-6.94v12.38h-5.25V74.25h5.25V85.47h6.94V74.25h5.25Z"/><path class="cls-22" d="M178.51,102.48H165.79V74.25h12.72v4.54H171v6.72H178v4.56H171v7.82h7.47Z"/><path class="cls-22" d="M192.4,74.25h7.2q4.4,0,6.41,1.71t2,5.44A7.42,7.42,0,0,1,207,85.5a4.26,4.26,0,0,1-2.89,2v.19a5.48,5.48,0,0,1,3.45,2.24,7.93,7.93,0,0,1,1.07,4.36,8.41,8.41,0,0,1-2.06,6,7.38,7.38,0,0,1-5.63,2.17H192.4Zm4.94,11.36h2.41a2.77,2.77,0,0,0,2.34-.89,4.35,4.35,0,0,0,.67-2.65,3.43,3.43,0,0,0-.77-2.52,3.32,3.32,0,0,0-2.43-.76h-2.22Zm0,4.38v7.9H200a3,3,0,0,0,2.45-1,5,5,0,0,0,.8-3.11q0-3.78-3.32-3.78Z"/><path class="cls-22" d="M225.16,102.48H212.44V74.25h12.72v4.54h-7.47v6.72h6.93v4.56h-6.93v7.82h7.47Z"/><path class="cls-22" d="M242.13,94.7a8.42,8.42,0,0,1-2,6.06,7.54,7.54,0,0,1-5.76,2.11,12.69,12.69,0,0,1-6.27-1.45V96.23a10.88,10.88,0,0,0,5.81,2.06,3,3,0,0,0,2.27-.83,3.23,3.23,0,0,0,.76-2.26,4.09,4.09,0,0,0-.91-2.58A13.51,13.51,0,0,0,233,90a13.19,13.19,0,0,1-2.75-2.41,8.45,8.45,0,0,1-1.45-2.57,9.9,9.9,0,0,1-.51-3.32,8.05,8.05,0,0,1,2-5.76,7.15,7.15,0,0,1,5.42-2.12A11.88,11.88,0,0,1,242,75.66l-1.74,4.21a16.65,16.65,0,0,0-1.94-1,5.46,5.46,0,0,0-2.17-.43,2.38,2.38,0,0,0-2,.84,3.5,3.5,0,0,0-.69,2.29,4,4,0,0,0,.82,2.49,12.06,12.06,0,0,0,2.87,2.41A12,12,0,0,1,241,90.3,8.76,8.76,0,0,1,242.13,94.7Z"/><path class="cls-22" d="M254.28,102.48H249V78.87h-5.4V74.25h16v4.62h-5.4Z"/><path class="cls-22" d="M285.32,94.7a8.46,8.46,0,0,1-2,6.06,7.58,7.58,0,0,1-5.77,2.11,12.69,12.69,0,0,1-6.27-1.45V96.23a10.88,10.88,0,0,0,5.81,2.06,3,3,0,0,0,2.27-.83,3.19,3.19,0,0,0,.76-2.26,4.09,4.09,0,0,0-.91-2.58,13.51,13.51,0,0,0-3-2.59,13.19,13.19,0,0,1-2.75-2.41A8.45,8.45,0,0,1,272,85.05a9.9,9.9,0,0,1-.51-3.32,8,8,0,0,1,2-5.76A7.12,7.12,0,0,1,279,73.85a11.88,11.88,0,0,1,6.24,1.81l-1.74,4.21a15.9,15.9,0,0,0-1.94-1,5.46,5.46,0,0,0-2.17-.43,2.39,2.39,0,0,0-2,.84,3.5,3.5,0,0,0-.69,2.29,4,4,0,0,0,.82,2.49,12.27,12.27,0,0,0,2.87,2.41,11.87,11.87,0,0,1,3.85,3.79A8.76,8.76,0,0,1,285.32,94.7Z"/><path class="cls-22" d="M301.52,102.48H288.8V74.25h12.72v4.54h-7.47v6.72H301v4.56h-6.93v7.82h7.47Z"/><path class="cls-22" d="M325.06,88.33q0,7-2.63,10.77a9.39,9.39,0,0,1-15,0q-2.62-3.75-2.62-10.82t2.62-10.74A8.67,8.67,0,0,1,315,73.81a8.56,8.56,0,0,1,7.49,3.75Q325.06,81.32,325.06,88.33Zm-14.93,0a17.46,17.46,0,0,0,1.22,7.35,3.84,3.84,0,0,0,3.57,2.53q4.75,0,4.75-9.88T315,78.44A3.88,3.88,0,0,0,311.35,81,17.54,17.54,0,0,0,310.13,88.33Z"/><path class="cls-22" d="M65.05,214.16H48.82V140.88H32V126.56H81.83v14.32H65.05Z"/><path class="cls-22" d="M149.84,170.24q0,21.75-8.15,33.43t-23.31,11.69q-15.21,0-23.37-11.66t-8.15-33.58q0-21.75,8.15-33.35t23.49-11.59q15.17,0,23.25,11.65T149.84,170.24Zm-46.32,0q0,15,3.78,22.83t11.08,7.85q14.75,0,14.74-30.68T118.5,139.56q-7.43,0-11.2,7.82T103.52,170.24Z"/><path class="cls-22" d="M222.88,170.24q0,21.75-8.15,33.43t-23.31,11.69q-15.21,0-23.37-11.66t-8.14-33.58q0-21.75,8.14-33.35t23.49-11.59q15.17,0,23.25,11.65T222.88,170.24Zm-46.32,0q0,15,3.78,22.83t11.08,7.85q14.75,0,14.74-30.68t-14.62-30.68q-7.42,0-11.2,7.82T176.56,170.24Z"/><path class="cls-22" d="M235.64,214.16v-87.6h16.3V199.9h22.59v14.26Z"/><path class="cls-22" d="M324.86,190q0,12.28-6.2,18.82t-17.89,6.53q-11.44,0-19.47-4.5V194.75q9.82,6.41,18,6.41,4.67,0,7-2.58a10,10,0,0,0,2.36-7,12.78,12.78,0,0,0-2.81-8,42,42,0,0,0-9.29-8.06,41,41,0,0,1-8.54-7.46,26.76,26.76,0,0,1-4.49-8,30.45,30.45,0,0,1-1.59-10.3q0-11.26,6.26-17.86t16.81-6.59a36.83,36.83,0,0,1,19.35,5.63L319.05,144a53.53,53.53,0,0,0-6-3,17.27,17.27,0,0,0-6.74-1.32,7.41,7.41,0,0,0-6.09,2.61,10.93,10.93,0,0,0-2.12,7.1,12.34,12.34,0,0,0,2.54,7.73q2.55,3.28,8.9,7.49,8.57,5.74,12,11.74A27.37,27.37,0,0,1,324.86,190Z"/></svg>