<?xml version="1.0" encoding="utf-8"?>
<!-- Generator: Adobe Illustrator 21.0.2, SVG Export Plug-In . SVG Version: 6.00 Build 0)  -->
<svg version="1.1" id="Layer_1" xmlns="http://www.w3.org/2000/svg" xmlns:xlink="http://www.w3.org/1999/xlink" x="0px" y="0px"
	 viewBox="0 0 12.2 9.8" style="enable-background:new 0 0 12.2 9.8;" xml:space="preserve">
<style type="text/css">
	.st0{fill:#3E75BA;}
</style>
<path id="Forma_1" class="st0" d="M0.2,8.2C0.2,8.3,0.1,8.3,0.2,8.2l-0.1,0C0,8.3,0,8.2,0,8.2V3.1C0,3,0,3,0.1,3c0,0,0.1,0,0.1,0
	l3.5,2c0,0,0.1,0,0.1,0.1c0,0,0,0.1,0,0.1L0.2,8.2z M11.8,9.6c0,0,0,0.1,0,0.1c0,0-0.1,0.1-0.1,0.1H0.4c-0.1,0-0.1,0-0.2-0.1
	c0,0-0.1,0-0.1-0.1c0,0,0-0.1,0-0.1l4.4-4c0,0,0.1,0,0.1,0l1.2,0.6c0.2,0.1,0.3,0.1,0.5,0l1.3-0.8c0.1,0,0.1,0,0.1,0L11.8,9.6z
	 M12.2,2.9C12.2,2.9,12.2,3,12.2,2.9l0.1,5.5c0,0,0,0.1-0.1,0.1c0,0,0,0,0,0c0,0-0.1,0-0.1,0L8.8,5c0,0,0-0.1,0-0.1c0,0,0-0.1,0-0.1
	L12.2,2.9C12.1,2.9,12.2,2.9,12.2,2.9C12.2,2.9,12.2,2.9,12.2,2.9L12.2,2.9z M11.8,0c0.1,0,0.2,0,0.3,0.1c0.1,0.1,0.1,0.2,0.1,0.3
	v1.2c0,0,0,0.1-0.1,0.1c0,0,0,0,0,0c-0.1,0-0.1,0-0.1,0.1L6.2,5.1c0,0,0,0-0.1,0c0,0,0,0-0.1,0l-6-3.4C0,1.8,0,1.7,0,1.7V0.4
	c0-0.1,0-0.2,0.1-0.3C0.2,0,0.3,0,0.4,0H11.8L11.8,0z"/>
</svg>
