<svg xmlns="http://www.w3.org/2000/svg" xmlns:xlink="http://www.w3.org/1999/xlink" viewBox="0 0 1029.49 593.06"><defs><style>.cls-1,.cls-5{fill:none;}.cls-2,.cls-3{fill:#fff;}.cls-10,.cls-11,.cls-12,.cls-3,.cls-5,.cls-6,.cls-7,.cls-9{stroke:#000;stroke-miterlimit:10;stroke-width:0.5px;}.cls-4,.cls-9{fill:#1a1a1a;}.cls-6,.cls-8{fill:#ccc;}.cls-7{fill:#0077bf;}.cls-10{fill:#eb058c;}.cls-12{fill:#f2f2f2;}.cls-13{clip-path:url(#clip-path);}.cls-14{clip-path:url(#clip-path-2);}</style><clipPath id="clip-path"><rect class="cls-1" x="1011.83" y="130.81" width="13.41" height="7.66" transform="translate(78 548.09) rotate(-31.26)"/></clipPath><clipPath id="clip-path-2"><rect class="cls-1" x="1015.56" y="158.63" width="13.27" height="7.58" transform="translate(-8.85 253.04) rotate(-14.05)"/></clipPath></defs><title>spark-customers</title><g id="Layer_4" data-name="Layer 4"><path class="cls-2" d="M551.69,94.74s51.89-140,245-79.64c0,0,237.71,50.68,194.27,284.77,0,0-9.65,106.19-153.25,219.61,0,0-131.53,84.47-276.33,72.4,0,0-251-18.1-393.37-150.83,0,0-205.13-144.8,8.45-245,0,0,77.23-29,170.14,8.45C346.56,204.54,485.32,269.7,551.69,94.74Z"/></g><g id="Layer_3" data-name="Layer 3"><path class="cls-3" d="M270.44,267.87,272.8,254a1.33,1.33,0,0,1,.28-.73,1.24,1.24,0,0,1,1.05-.22c2.25.27,4.75,1.37,6.61.08,2.05-1.43,1.67-4.69,3.27-6.61,2.78-3.33-2.64-2.09-2.56-2.87.11-1,1.3-1.55,2.3-1.84s2.73-.36,3.26-1.26-.34-2.4.46-3.43c1-1.24,3.43-.46,4.16-1.85a2.44,2.44,0,0,0,0-1.76,17.11,17.11,0,0,0-2.46-5.23,4.38,4.38,0,0,1-1-2.13c-.07-1.2.94-2.15,1.54-3.2,1.33-2.35.54-5.27-.06-7.9a47.59,47.59,0,0,1-1.19-10.68c0-2.56-2.39-4.92-4.63-6.16-5.51-3.05-12.39-2.94-18.3-.76s-11,6.23-15.35,10.75a27,27,0,0,0-4.51,5.76c-2.08,3.82-2.54,8.34-2.23,12.69a128.27,128.27,0,0,0,2.1,12.88c.52,3,.89,6.08-.16,8.89a3.83,3.83,0,0,0-.38,1.48,2.67,2.67,0,0,0,.43,1.19,16.5,16.5,0,0,0,3.32,3.69C254.91,260.39,262.23,266.17,270.44,267.87Z"/><path class="cls-3" d="M364.95,518.18s10.67,10.33,12.83,12.83l15.5-15.67s-8.17-5-12.5-9.83C380.78,505.51,364.28,514.51,364.95,518.18Z"/><path class="cls-4" d="M382.95,541l1.13,1.92,15.13-6.12v-2s30.5-8.58,33.5-16.54c0,0,1.13-3-6.87-2,0,0-27.35,1.18-38.24-4.85,0,0,1.44,10.62-13.47,15.74C374.11,527.19,377.07,537,382.95,541Z"/><path class="cls-3" d="M63.57,419.05l-9.62-4.75s-11.62,13.75-10.37,18.75l15.25,5.5Z"/><path class="cls-4" d="M48.07,404.8l-2.25-2.37-13,6.63,1,1.5s-3,4.13-15.12,8c0,0-25.12,9.13-17.12,15.38,0,0,2.38.75,9.12-.87,0,0,10.88-4.87,32.88,0l1.45.52s2.64-12.63,11.22-18.14C56.24,415.44,54,405.32,48.07,404.8Z"/><path class="cls-4" d="M294.08,198.93a7.25,7.25,0,0,1-2.1,5.48,5.51,5.51,0,0,1-5.59,1.26c-1.44-.55-2.52-1.74-3.78-2.63s-3-1.45-4.31-.61a3.57,3.57,0,0,0-1.35,3.2,28.55,28.55,0,0,0,.66,3.57c.48,2.81-.35,6.05-2.75,7.61-.62.4-1.31.67-1.91,1.11a5.72,5.72,0,0,0-2,4.65,8.21,8.21,0,0,1-.08,2,1.7,1.7,0,0,1-1.26,1.36c-.83.12-1.52-.62-1.92-1.36a7.37,7.37,0,0,1-.87-3.33c-.06-3.33-3.72-5.71-7-6.43a6.16,6.16,0,0,0-4.09.21c-1.59.81-2.38,2.61-2.94,4.31a42.21,42.21,0,0,0-1.73,18.52,29.52,29.52,0,0,0-7,.37c-3.39-4.9-5.09-11.16-5.6-17.1a53.8,53.8,0,0,1,1.69-17.71,26.25,26.25,0,0,1,2.25-6.24,23.15,23.15,0,0,1,3.4-4.55,28.47,28.47,0,0,1,6.22-5.21c6.4-3.82,14.3-4,21.74-3.5,4.74.35,9.62,1,13.66,3.52A14,14,0,0,1,294.08,198.93Z"/><path class="cls-5" d="M283,219.13a4.07,4.07,0,0,1,2.79-.83,8.11,8.11,0,0,1,3.64,1.6,5.13,5.13,0,0,1,.86.65"/><ellipse class="cls-4" cx="286.39" cy="223.99" rx="1.06" ry="2.31"/><path class="cls-5" d="M283.7,221.42a8.86,8.86,0,0,1,4.7,1l.07.26"/><path class="cls-5" d="M253.63,217.07a15.61,15.61,0,0,0-.35,8.75,11.19,11.19,0,0,0,1,2.65,5.19,5.19,0,0,0,1.72,2,2.89,2.89,0,0,0,2.52.33,2,2,0,0,0,1.31-2.06"/><polygon class="cls-3" points="242.7 247.18 246 244.18 273.32 266.3 268.57 275.18 241.82 248.8 242.7 247.18"/><path class="cls-3" d="M343.85,295.38c.48-1.74,1.12-3.89,2.9-4.21.73-.13,1.47.11,2.21,0,1.29-.16,2.3-1.28,3.59-1.41s2.23.58,3.37.55,2.28-.76,3.36-.4a3.08,3.08,0,0,1,1.7,2.5,7.34,7.34,0,0,0,.9,3c.58.79,1.59,1.25,2,2.13.53,1.06.06,2.37.41,3.51a7.8,7.8,0,0,0,.67,1.34,14.29,14.29,0,0,1,1.26,4.64,5.19,5.19,0,0,1,.07,1.75,4.22,4.22,0,0,1-2.45,2.7c-2.69,1.37-5.81,1.5-8.78,2a32.39,32.39,0,0,0-5.45,1.46c-2.37.86-4.66,2-7.15,2.37a1.39,1.39,0,0,1-.9-.08,1.45,1.45,0,0,1-.51-.67,51.29,51.29,0,0,1-2.21-5.35c-.35-1-1.65-3.06-1.61-4s2-2.56,2.58-3.43A26.45,26.45,0,0,0,343.85,295.38Z"/><polygon class="cls-6" points="336.57 304.68 340.64 302.59 348.26 315.52 344.57 317.39 337.25 319.18 336.57 304.68"/><path class="cls-4" d="M66.7,375.18l31.88-49.75s2-3.75,6.38-1l20.25,12.75,6-9.5s1.56-2.92,5-1.12l25.63,16.25s3.25,1.38,1.38,5.5l-5.5,9.25,20.63,13.5s3.13,1.25.75,5.5L147.7,426.43s-1.37,3.38-6.75,0L66.7,379.5S64.51,378.59,66.7,375.18Z"/><path class="cls-6" d="M220.78,413.18l65.33,31s10.5,3.83,15.5,9.5l64,68.17s15.33-7.17,19.17-15.33c0,0-38.17-54.83-42.83-60,0,0-18.33-26.33-30.17-33.33,0,0-48.92-36.18-64.18-40C247.6,373.18,221.11,402.34,220.78,413.18Z"/><polygon class="cls-3" points="129.32 340.05 152.86 354.93 158.07 346.3 134.82 331.43 129.32 340.05"/><path class="cls-3" d="M229.11,362.51,250.78,375s24.83-44.67,23.83-55.83C274.61,319.18,232.61,349,229.11,362.51Z"/><polygon class="cls-4" points="225.28 369.01 247.78 383.35 253.45 374.18 226.78 359.35 225.28 369.01"/><polygon class="cls-7" points="248.53 384.35 254.61 374.18 252.86 373.18 246.7 383.35 248.53 384.35"/><path class="cls-6" d="M196.2,362.93s-15,9-15.75,32l-23,40.25s-6,10.25-14.5,6L63.61,416.84s-8,16.5-7.33,23l72.83,28.67s28.33,13.33,46.5-.83c0,0,26.67-21.33,43.5-45.83l30.36-43.08-35.36-19.42S200.28,357.51,196.2,362.93Z"/><path class="cls-3" d="M164.49,313.51a17.23,17.23,0,0,0-1.85,5.14,34.41,34.41,0,0,0-.43,4l-.79,11.58a6.93,6.93,0,0,1-.51,2.57,8.37,8.37,0,0,1-2,2.29,20.09,20.09,0,0,0-3.74,4.75c-1,1.69-1.78,3.64-3.51,4.53a4.18,4.18,0,0,1-5.14-1.23,7.68,7.68,0,0,0-1.22-1.68c-.54-.43-1.28-.56-1.81-1-1-.84-.87-2.46-1.67-3.49-.66-.85-1.91-1.24-2.23-2.27-.18-.58,0-1.29-.47-1.72a2.75,2.75,0,0,0-1-.44,2.24,2.24,0,0,1-1-3.12c1.65-2.66,2.48-5.67,4.26-8.23q5.31-7.62,10.76-15.14a2.29,2.29,0,0,1,.85-.82,2.14,2.14,0,0,1,1-.11A16.51,16.51,0,0,1,164.49,313.51Z"/><path class="cls-6" d="M150.66,308.68l-1.46,4.17,14.5,5.42,2.25-4.92S156.37,303.76,150.66,308.68Z"/><path class="cls-7" d="M165.61,316.76,184.78,281l35.5,7.5,12.58-28.83-46.42-4.08s-11.33-3.08-16.46,6.58l-21.21,47Z"/><path class="cls-7" d="M300.07,314.05s.88,2.5,4.38,1l33.38-12.46,8.38,14.81L308.45,336.8s-12.62,8.75-22.75-1.37l-12.37-12.5-43.5,44.75s-20.25,21.5-36.75,6.5-22.12-18.87-22.12-18.87-3.62-3.5,3.25-7.25c0,0,32.25-25.75,37.25-37.75,0,0,14.25-53.87,31.25-63.13C242.7,247.18,285.7,287.59,300.07,314.05Z"/><ellipse class="cls-8" cx="206.36" cy="572.32" rx="206.36" ry="14.25"/></g><g id="Layer_2" data-name="Layer 2"><path class="cls-9" d="M816.95,73.18s-1.83,9.83,19,9.5c0,0,16.21-.16,30.77-4.75,0,0,18.06-4.75,34.56,2.08,0,0,13.83,3.83,21.17,20.5,0,0,7.1,15-2.2,28.17,0,0-9.81,17.67-34.8,18.57,0,0-8.28.1-14.48,3.1l-36.31-18.83L811.95,93.84l.83-5.17S809.28,82,816.95,73.18Z"/><rect class="cls-4" x="440.52" y="185.32" width="191.78" height="0.36"/><rect class="cls-4" x="420.52" y="197.32" width="142.27" height="0.36"/><rect class="cls-4" x="396.26" y="174.32" width="191.78" height="0.36"/><rect class="cls-4" x="321.66" y="159.29" width="219.65" height="0.39" transform="translate(862.97 318.97) rotate(180)"/><rect class="cls-4" x="386.41" y="144.32" width="191.78" height="0.36" transform="translate(964.6 288.99) rotate(180)"/><rect class="cls-4" x="430.66" y="133.32" width="191.78" height="0.36" transform="translate(1053.11 266.99) rotate(180)"/><path class="cls-10" d="M783.11,192.34l-52.33,41.33L648.11,203,597,205.59h-4.92S565.11,156,563.45,82c0,0,52.33,30.67,97.67,13.67,0,0,98.26-47,143.8-15.67,0,0,30,12.17,52.79,45.25Z"/><path class="cls-3" d="M580.45,210.18l-.83-3.83,16.67-6.5s5.5,2.17,17.17,0l1,11.5S596.11,207.34,580.45,210.18Z"/><polygon class="cls-11" points="803.45 188.34 736.95 245.34 661.11 213.51 707.76 208.84 709.28 210.01 731.45 214.84 750.87 193.68 804.91 171.17 811.95 184.84 803.45 188.34"/><path class="cls-4" d="M804.91,177.18l-98.3,35.5-9.17,3.17s-8,5-25.83,1.17l-59.5-3.33-1.5-17.33,72-9.48,61.17-30s12-12.33,40.17-6.5Z"/><path class="cls-3" d="M858.16,128.58a1.53,1.53,0,0,0-.79.33,1.48,1.48,0,0,0-.33.76,51.23,51.23,0,0,0-1.19,10.3c0,2,.21,4.39,1.87,5.61a7,7,0,0,0,3.67,1l5.56.43c0-2,1.89-3.35,3.62-4.3a77.77,77.77,0,0,1,7-3.43A30.74,30.74,0,0,0,874.3,124c-.82-1.61-1.6-2.19-3.14-1.22-1.38.88-2.68,1.82-4.13,2.59A33.63,33.63,0,0,1,858.16,128.58Z"/><path class="cls-3" d="M839.29,146.92l-4.42,4.3a58.2,58.2,0,0,1-4.76,4.3,52.87,52.87,0,0,1-5.17,3.44,288.57,288.57,0,0,1-25.58,13.75c3.77,3.72,5.36,9.06,6.81,14.15a36.94,36.94,0,0,1,6.05-4.49,73.83,73.83,0,0,1,6.95-3.49,85.62,85.62,0,0,1,10.48-4.27c2.76-.85,5.6-1.42,8.38-2.22a101.56,101.56,0,0,0,10.33-3.83,14.84,14.84,0,0,0,5.4-3.19,17.37,17.37,0,0,0,2.75-4.82,50.23,50.23,0,0,1,5.86-9.71s-5.32-7.54-5.76-8.31q-1.26-2.24-2.3-4.58c-.53-1.21-1-3.69-2-4.48-2.29,2-4.2,4.64-6.33,6.81S841.55,144.73,839.29,146.92Z"/><path class="cls-3" d="M848.86,136.42c3.38-1.48,5.24-5.52,8.79-6.54a8.92,8.92,0,0,1,1.58,6.83c-.29,2.39-1.11,4.67-1.58,7a14,14,0,0,1,10.51,3.43,30,30,0,0,1-5.79,6.3c-.68-3-3.78-4.79-6.75-5.59-3.2-.86-1.86-2.92-2.45-5.49A9.42,9.42,0,0,0,848.86,136.42Z"/><path class="cls-10" d="M1005.65,131.12l1.53,11.26-8.28,1.42-3.73.64L986.1,146s-6.19.5-5.48,8.84c0,0,.62,7.11,7.88,6.57l20.79-3.56,1.53,11.26-20.71,3.54s-13,2.4-18.57-12.06c0,0-5.27-13.67,6.6-23a17.12,17.12,0,0,1,7.93-3.11l7.47-1.28,3.8-.65Z"/><polygon class="cls-3" points="997.34 132.54 998.9 143.81 995.17 144.45 993.54 133.19 997.34 132.54"/><polygon class="cls-3" points="997.28 159.92 998.9 171.17 1002.74 170.51 1000.98 159.29 997.28 159.92"/><path class="cls-3" d="M746.81,133.1c-1.05,1.82-.17,4.23-1,6.15a9.59,9.59,0,0,1-2.13,2.59,15.52,15.52,0,0,0-3.45,5.56,1.69,1.69,0,0,1-.67,1,1.07,1.07,0,0,1-1.33-.51,2.58,2.58,0,0,1-.2-1.53,20.08,20.08,0,0,1,1.87-5.88l-7.15,3.56-3.05-2.87a5.58,5.58,0,0,1-.95-1.06,5.24,5.24,0,0,1-.62-2.38,41,41,0,0,1,.09-7.93,2.2,2.2,0,0,1,.35-1.14,2.26,2.26,0,0,1,.79-.56l6.35-3.25a6.53,6.53,0,0,1,2.75-.92c1.43,0,2.73.87,4.15,1a9.26,9.26,0,0,0,4-.9,1.68,1.68,0,0,1,.91-.14,1.58,1.58,0,0,1,.59.31c1.31,1,3.22,3.26,2.64,5.07S747.71,131.55,746.81,133.1Z"/><path class="cls-3" d="M969.45,153.07c.52-1.61.75-3.4,1.85-4.69s2.84-1.78,4.2-2.78a6.82,6.82,0,0,0,2.33-3.07,2.81,2.81,0,0,1,.61-1.15,1.53,1.53,0,0,1,2.27.72,3.1,3.1,0,0,1-.38,2.66c-.46.81-1.08,1.52-1.46,2.36-.09.19-.15.45,0,.59a.48.48,0,0,0,.28.1c1.2.12,2.3-.57,3.44-1s2.67-.32,3.2.75c.29.6.19,1.37.6,1.89.26.33.68.49,1,.79.89.93.17,2.45.33,3.72.14,1.06.93,2,.78,3.07-.11.75-.67,1.36-.85,2.1a20.76,20.76,0,0,1-.2,2.32c-.39,1.07-1.66,1.48-2.77,1.75l-4.35,1.05a11.55,11.55,0,0,1-4.8.47c-1.07-.2-2.05-.7-3.1-1a8.31,8.31,0,0,0-4.6,0,2.09,2.09,0,0,1-1.5.11,1.71,1.71,0,0,1-.67-.76,11.43,11.43,0,0,1-1.26-3.68c-.32-2,.4-2.62,2.08-3.18A4.56,4.56,0,0,0,969.45,153.07Z"/><path class="cls-3" d="M871.64,131.14c1.36,5.45,3.89,11.25,9,13.56,3.78,1.7,8.22,1.11,12.15-.24a68.17,68.17,0,0,0,11.91-5.92,29.24,29.24,0,0,0,6.83-4.91c2.76-2.93,4.18-6.85,5.51-10.65,2.2-6.26,4.38-13,2.47-19.39-1.08-3.6-3.38-6.69-5.67-9.67a27.66,27.66,0,0,0-5.72-6,19.27,19.27,0,0,0-6.4-2.77,27.17,27.17,0,0,0-19.09,2C867.13,95.22,868,116.54,871.64,131.14Z"/><path class="cls-4" d="M563.45,211.34l35-19,3.67,7.5s-17.83,5-21.67,10.33C580.45,210.18,566.78,217.34,563.45,211.34Z"/><path class="cls-4" d="M866.72,113.34s27.47-4.66,32.35-20.16c0,0,1.92,8,6.9,11.84,0,0,12.15,10.16,6.15,22.33,0,0-4.33,6.67-4.67,11.17l5-3.53,6.83-11.16,2-18.8-5-12.84-12.17-7.94L892,82l-18.74,8.17L866.72,105Z"/><path class="cls-3" d="M887.19,109.81a2.18,2.18,0,0,0,1.82.85,13.16,13.16,0,0,0,2.08-.28,8.39,8.39,0,0,1,1.52-.08,4.67,4.67,0,0,1,1.49.27,4.34,4.34,0,0,1,2.43,2.93,12.18,12.18,0,0,1,.27,3.92"/><path class="cls-3" d="M903.53,119.64l1.57-.27a5.58,5.58,0,0,1,3.86.25,7.51,7.51,0,0,1,2,2.49,3.16,3.16,0,0,0,2.58,1.7"/><path class="cls-3" d="M899.76,111.32a9,9,0,0,0-9.19-6.28"/><path class="cls-3" d="M906,114.16a8.35,8.35,0,0,1,7.69,2.55"/><path class="cls-3" d="M893.21,129a29.57,29.57,0,0,0,3.47.33,2,2,0,0,0,.82-.09c.64-.26.84-1,1-1.72l.62-3.59"/><path class="cls-3" d="M884.69,136a10.29,10.29,0,0,1,1.36,2,5.23,5.23,0,0,0,.35.79c.59.92,2,.88,2.94.33a29.75,29.75,0,0,0,2.49-2.12c.74-.55,1.61-.92,2.29-1.54a1.18,1.18,0,0,0,.41-.63c.09-.49-.36-.91-.77-1.19-2.87-1.95-6.38-2.63-9.8-3.23a.71.71,0,0,0-.38,0c-.64.24-.47,2.05-.36,2.6A8,8,0,0,0,884.69,136Z"/><path class="cls-10" d="M887.86,140.7a4.11,4.11,0,0,1-2.8-1.55,9.4,9.4,0,0,1-1.52-2.9c-.29-.8-.54-1.61-.77-2.43a6.86,6.86,0,0,1-.35-1.92,2.47,2.47,0,0,1,.67-1.78,14.81,14.81,0,0,0,1.39,3.89,9.27,9.27,0,0,0,3.71,4c.58.3,1.63.44,1.69,1.24C890,140.24,888.64,140.75,887.86,140.7Z"/><path class="cls-10" d="M895.79,134.17a9.58,9.58,0,0,0-5.63-3.67,28.49,28.49,0,0,0-6.82-.64c-.14,0-.31,0-.36.15s.06.25.16.34c1.64,1.42,3.91,1.76,6,2.48a14.42,14.42,0,0,1,4.53,2.58C894.75,136.34,897,136,895.79,134.17Z"/><ellipse class="cls-9" cx="893.42" cy="113.34" rx="2.02" ry="1.6" transform="translate(570.38 954) rotate(-76.21)"/><ellipse class="cls-9" cx="908.19" cy="121.49" rx="2.02" ry="1.6" transform="translate(573.72 974.54) rotate(-76.21)"/><path class="cls-10" d="M835.57,167.3l15.38-17,1.25,1.08,3.41-3.56s.25-1.06-2.2-2.12l-4.54,2.06.71,1.13-15.5,4.53-11.25,8.22-2.5,2.5-6.5,9.13,15.5-2.75Z"/><path class="cls-6" d="M799.36,185.84l6.59,10.5a65.29,65.29,0,0,1,28.77-19s10.73,4,16.4,0l15.6-14.5s28.11,8,41.84,8.67c0,0,14.39,1.33,19.23,1,0,0,25.33,1,41.67-6.33l-3.83-12a82,82,0,0,1-34,6s-40.5.8-61-13.18l-2.46,3.36-7.2,4-5.33,11.13-6,5.13L829.7,173.3l-8.87,2.38S808,180.39,799.36,185.84Z"/><path class="cls-3" d="M854.78,169.76l7.58-14.5,7.05-.42,2.14-12.7-5.28,2.12L852.2,162l-19,4.83-28.29,15.85S843.11,172.09,854.78,169.76Z"/><path class="cls-12" d="M857.7,125.26l-2.75-3s-9.75-8.29-12.25-9.71c0,0-29.5-19.92-45.08-18.58,0,0-10.17-1.08-52.67,28.29L752.11,133l36-22.17s9.58-7.42,22.58-.58l19.42,10.42-24.58,19.58s.42,1.39-27.83,7l15.83,32.26,18.92-11.33,21.92-22.43,13.33-9,5.67-6.61Z"/><path class="cls-3" d="M834.72,134.65l12.81.77-.67-8,8.08-5.12,9.42,4.33-7.09,5.46s-7.5,6.22-9.42,8.61l-17.5,18.82-22.91,11.64Z"/><path class="cls-3" d="M803.45,188.34"/><g class="cls-13"><path class="cls-4" d="M1011.14,135.21l5.91,1.43a.28.28,0,0,0,.3-.42l-.18-.29a.28.28,0,0,1,.27-.42l3.63.46a.28.28,0,0,0,.27-.42l-.59-1a.28.28,0,0,1,.27-.42l4.81.48a.28.28,0,0,0,.27-.42l-2.39-3.93a.28.28,0,0,0-.26-.13l-5.05.44a.28.28,0,0,0-.22.42l.54.89a.28.28,0,0,1-.22.42l-3.45.3a.28.28,0,0,0-.22.42l.51.83a.28.28,0,0,1-.21.42l-4,.37a.28.28,0,0,0,0,.55Zm0,0"/></g><g class="cls-14"><path class="cls-4" d="M1015,160.79l5.17,3.08a.28.28,0,0,0,.41-.3l-.08-.33a.28.28,0,0,1,.38-.32l3.3,1.5a.28.28,0,0,0,.38-.32l-.27-1.1a.28.28,0,0,1,.38-.32l4.41,1.86a.28.28,0,0,0,.38-.32l-1.1-4.41a.28.28,0,0,0-.21-.2l-4.9-1.07a.28.28,0,0,0-.33.34l.25,1a.28.28,0,0,1-.33.34l-3.35-.73a.28.28,0,0,0-.33.34l.23.94a.28.28,0,0,1-.32.34l-3.85-.81a.28.28,0,0,0-.2.51Zm0,0"/></g><ellipse class="cls-8" cx="790.99" cy="491.32" rx="227.54" ry="14.25"/></g></svg>