<svg id="Layer_1_copy" data-name="Layer 1 copy" xmlns="http://www.w3.org/2000/svg" viewBox="0 0 17.87 13.41"><defs><style>.cls-1{fill:#fff;}</style></defs><title>mail</title><path class="cls-1" d="M18,13.51a2.21,2.21,0,0,1-.29,1.07L12.06,8.27l5.58-4.88A2.22,2.22,0,0,1,18,4.58v8.94ZM9.05,9.42l7.77-6.8a2.21,2.21,0,0,0-1.06-.28H2.35a2.2,2.2,0,0,0-1.06.28ZM11.22,9l-1.8,1.57a.56.56,0,0,1-.74,0L6.88,9,1.17,15.4a2.21,2.21,0,0,0,1.18.34H15.75a2.21,2.21,0,0,0,1.18-.34ZM.46,3.39A2.22,2.22,0,0,0,.11,4.58v8.94A2.21,2.21,0,0,0,.4,14.59L6,8.27Z" transform="translate(-0.11 -2.34)"/></svg>