<svg version="1.1" id="Layer_1" xmlns="http://www.w3.org/2000/svg" x="0" y="0" viewBox="0 0 940.6 835.1" xml:space="preserve"><style>.st1{fill:#bcbcbc}.st2,.st3,.st4{fill:#1a1a1a;stroke:#000;stroke-width:.5;stroke-miterlimit:10}.st3,.st4{fill:#ffe600}.st4{fill:#fff}.st5{fill:#1a1a1a}.st6{fill:#fff;stroke:#000;stroke-miterlimit:10}.st10,.st11,.st12,.st7,.st8,.st9{fill:none;stroke:#000;stroke-width:.5;stroke-miterlimit:10}.st10,.st11,.st12,.st8,.st9{fill:#f2f2f2}.st10,.st11,.st12,.st9{fill:#0077bf}.st10,.st11,.st12{fill:#ccc}.st11,.st12{fill:#eb058c}.st12{fill:#c10072}</style><path d="M418 172.5S424.1-26.7 642.6 3c0 0 261.1 5.2 295.4 327 0 0 25.9 143.4-83.3 331.2 0 0-106.6 146.3-259.3 168.1 0 0-263.8 41.4-454.6-97.5 0 0-259.4-138.6-73.8-327.1 0 0 69.5-58.6 177.5-33.2-.1.1 164.3 50.4 173.5-199z" fill="#f5f5f5" id="Layer_7"/><ellipse class="st1" cx="425.6" cy="756.6" rx="154.4" ry="14.4"/><ellipse class="st1" cx="588.2" cy="727.9" rx="108.8" ry="11.2"/><ellipse class="st1" cx="352.1" cy="727.9" rx="108.8" ry="11.2"/><ellipse class="st1" cx="248.4" cy="719.9" rx="121.9" ry="11.2"/><ellipse class="st1" cx="744.4" cy="719.9" rx="121.9" ry="11.2"/><g id="Layer_9"><path class="st2" d="M192 706.2h-18.5l3-318.1 119.7 13.5 30.1 304.6H308l-68.6-270.8s-3.8-6.6-8.6 0L192 706.2h-18.5"/><path class="st3" d="M175 278.2s10.5 70.3 1.7 109.9c0 0 49.4 34.2 119.7 13.5l4.4-105.8 24 22.9 24.2 89 12.4-.9-6.6-99.8-54.5-75.1s-9.1-7.3-52.6-6.6c0 0-16.9 14.1-29.3 0-12.9-4.1-27.8-5.4-40.5-.8-16.6 11.4-58 54.6-77.7 84.7-4.1 6.2-2.5 14.5 3.6 18.8 14.5 10.3 41.2 29.1 58.7 40.7l9.3-11.4-40.5-44.9 43.7-34.2z"/><path class="st4" d="M348.7 407.6c-14.7 10.1.4 9.5.4 9.5s5.3 18.7 9.9 18.3c6.3-.5 2.1-28.6 2.1-28.6l-12.4.8z"/><path class="st5" d="M308 706.2v15.9h8.6v-3.9l5.4 3.9h40.1l-35.7-15.9zM192 706.2v15.9h-8.6v-3.9l-5.4 3.9h-40.1l35.7-15.9z"/><path class="st4" d="M221 213.8l-15.8 15.9 24 2.8s12.4-13.7 1.5-17.4l-9.7-1.3zM235.6 233l24.7 1.4-8.6-16.5-14.3-1.9z"/><path class="st5" d="M229.2 230.5L216 335.6l17.8 21.8 14.8-23.8L233.9 231s-1.9-5.3-4.7-.5z"/><path class="st4" d="M249.8 219.6c.2.4.3.8.2 1.1-.1.4-.3.7-.6 1-3.2 3.5-6.8 6.6-10.6 9.4-2.2 1.6-5.1 3.2-7.8 2.2-1.6-.7-3-1.9-4-3.4l-4.8-5.8c2.2-1.5 2.2-4.7 2-7.4-.4-3.5-.9-7.1-1.6-10.6 5.7-4.4 12.5-7.3 19.7-8.3 2.4-.4 3.7 0 3.8 2.6 0 2.2.1 4.4.3 6.6.6 4.5 1.7 8.7 3.4 12.6z"/><path class="st4" d="M244.9 207.2c-6.4 4.2-14.4 7.6-21.6 5.2-5.4-1.8-9.3-6.5-11.9-11.5-2.7-5.4-4.8-11.1-6.4-17-1.3-3.6-2.1-7.4-2.3-11.3 0-5.5 2.2-10.8 4.4-15.8 3.6-8.3 7.8-17.1 15.6-21.7 4.6-2.3 9.6-3.8 14.7-4.4 3.7-.8 7.6-1.1 11.4-.7 3.2.5 6.2 1.6 9 3.2 8 4.3 14.1 11.3 17.3 19.8 7.8 22.4-12.9 43-30.2 54.2z"/><path class="st6" d="M244 158.1c4.4.7 7.7 4.2 8.1 8.7M213 153.8c3.4-2.9 8.3-3.1 11.8-.4"/><path class="st4" d="M224.7 181.6c-1.3-.9-2.6-1.9-3.8-2.9-.3-.2-.6-.5-.8-.9-.4-.9.1-1.8.6-2.6l2.7-4.2"/><ellipse transform="rotate(-60.91 239.624 169.02)" class="st2" cx="239.6" cy="169" rx="2.8" ry="2.2"/><ellipse transform="rotate(-60.91 217.27 163.431)" class="st2" cx="217.3" cy="163.4" rx="2.8" ry="2.2"/><path class="st5" d="M262.5 175.4s7.2.8-3.2 11.5c0 0 1.4 8.3-3.6 12.2 0 0 12.5-2.6 26.8-26.5 0 0 6.7-22.3-7.8-36.1 0 0-18.5-18.4-44-10 0 0-27 9.6-25.9 35.3 0 0 8.3-19.1 20.3-25.1 0 0 19 11.1 28.5 8.8.2 0 8.7 5 8.9 29.9z"/><path class="st7" d="M215.6 188.4s5.4 7.7 16.5 3.2c-.2.1-8.7 12.2-16.5-3.2zM236.4 187.2c.7 1.1.8 2.5.3 3.7M216.8 159.8c2.6.9 4.6 3 5.3 5.6M239.9 165.2c1.9 1.4 3.2 3.4 3.8 5.7"/><path class="st4" d="M171.8 357.4c4.7 0 9.4.6 13.9 1.8 12.1 3.6 15.6 14.6 11.8 18.3-3.5 3.4-13.9 1.4-16.7-1.6-4.5-4.8-9 1.2-15-4l-3.3-2.9 9.3-11.6z"/></g><g id="Layer_9-2"><path class="st2" d="M686.8 705.3h-18.5l3-318.1L791 400.8l30.1 304.6h-18.4l-68.6-270.9s-3.8-6.6-8.7 0l-38.6 270.8h-18.5"/><path class="st3" d="M836.5 311.6L796 356.5l9.3 11.4c17.5-11.6 44.2-30.4 58.7-40.7 6.1-4.3 7.6-12.6 3.6-18.8-19.7-30.2-61.2-73.4-77.7-84.7-12.6-4.6-27.6-3.3-40.5.8-12.4 14.1-29.3 0-29.3 0-43.5-.7-52.6 6.6-52.6 6.6l-54.5 75-6.6 99.8 12.4 1 24.2-89 24-22.9 4.4 105.8c70.3 20.7 119.6 0 119.6 0-8.8-39.6 1.7-123.4 1.7-123.4l43.8 34.2z"/><path class="st4" d="M606.6 405.8s-4.3 28.1 2.1 28.6c4.6.4 9.9-18.3 9.9-18.3s15.1.7.4-9.5l-12.4-.8z"/><path class="st5" d="M802.8 705.3v15.9h8.6v-3.9l5.4 3.9h40.1l-35.7-15.9zM686.8 705.3v15.9h-8.6v-3.9l-5.4 3.9h-40.1l35.7-15.9z"/><path class="st4" d="M715.9 213L700 228.9l24 2.8s12.4-13.7 1.5-17.4l-9.6-1.3zM730.4 232.1l24.7 1.4-8.6-16.5-14.3-1.9z"/><path class="st5" d="M724 229.6l-13.2 105.1 17.8 21.8 14.8-23.8L728.7 230c0 .1-1.9-5.2-4.7-.4z"/><path class="st4" d="M744.6 218.8c.2.4.3.8.2 1.1-.1.4-.3.7-.6 1-3.2 3.5-6.8 6.6-10.6 9.4-2.2 1.6-5.1 3.2-7.8 2.2-1.6-.7-3-1.9-4-3.4l-4.8-5.8c2.2-1.5 2.2-4.7 2-7.4-.4-3.5-.9-7.1-1.6-10.6 5.7-4.4 12.5-7.3 19.7-8.3 2.4-.4 3.7 0 3.8 2.6 0 2.2.1 4.4.3 6.6.6 4.4 1.7 8.6 3.4 12.6z"/><path class="st4" d="M739.7 206.3c-6.4 4.2-14.4 7.6-21.7 5.2-5.4-1.8-9.3-6.5-11.9-11.5-2.7-5.4-4.8-11.1-6.4-17-1.3-3.6-2.1-7.4-2.3-11.3 0-5.5 2.2-10.8 4.4-15.8 3.6-8.3 7.8-17.1 15.6-21.7 4.6-2.3 9.6-3.8 14.7-4.4 3.7-.8 7.6-1.1 11.3-.7 3.2.5 6.2 1.6 9 3.2 8 4.3 14.1 11.3 17.3 19.8 8 22.4-12.7 43-30 54.2z"/><path class="st6" d="M738.9 157.2c4.4.7 7.7 4.2 8.1 8.7M707.8 152.9c3.4-2.9 8.3-3.1 11.8-.4"/><path class="st4" d="M719.5 180.7c-1.3-.9-2.6-1.9-3.8-2.9-.3-.2-.6-.5-.8-.9-.4-.9.2-1.8.7-2.6l2.7-4.2"/><ellipse transform="rotate(-60.91 734.4 168.125)" class="st2" cx="734.4" cy="168.1" rx="2.8" ry="2.2"/><ellipse transform="rotate(-60.91 712.04 162.536)" class="st2" cx="712.1" cy="162.5" rx="2.8" ry="2.2"/><path class="st5" d="M757.3 174.5s7.2.8-3.2 11.5c0 0 1.4 8.2-3.6 12.2 0 0 12.5-2.6 26.8-26.5 0 0 6.7-22.3-7.8-36 0 0-18.5-18.4-44-10 0 0-27 9.6-25.9 35.3 0 0 8.3-19.1 20.3-25.1 0 0 19 11.1 28.5 8.8.2-.1 8.6 4.9 8.9 29.8z"/><path class="st7" d="M710.4 187.5s5.4 7.7 16.5 3.2c-.2.1-8.7 12.2-16.5-3.2zM731.2 186.3c.7 1.1.8 2.5.3 3.7M711.6 158.9c2.6.9 4.6 3 5.3 5.6M734.7 164.3c1.9 1.4 3.2 3.4 3.8 5.7"/><path class="st4" d="M796 356.5c-4.7 0-9.4.6-13.9 1.8-12.1 3.6-15.6 14.6-11.8 18.3 3.5 3.4 13.9 1.4 16.7-1.6 4.5-4.8 9 1.2 15-4l3.3-2.9-9.3-11.6z"/></g><g id="Layer_8"><path class="st4" d="M377.3 274.1c.1.3.2.7.1 1.1-.1.3-.4.6-.7.8-3.4 2.8-7 5.2-10.9 7.2-2.3 1.2-5 2.3-7.3 1.1-1.4-.9-2.5-2.1-3.2-3.5l-3.6-6c2.2-1.1 2.7-4 2.8-6.5.1-3.3.1-6.5-.1-9.8 5.8-3.3 12.3-5 18.9-5 2.3 0 3.4.5 3.1 2.8-.3 2-.5 4.1-.5 6.1-.1 4 .3 7.9 1.4 11.7z"/><path class="st8" d="M391.6 710.7h12.2s10.8-207.8 8.4-255.5c-1.5-30.1-18.2-45.9-18.2-45.9h-66.5s-16.7 15.8-18.2 45.9c-2.3 47.8-17.6 255.5-17.6 255.5h14.2s49.2-250.6 55-248c-.2.1 23.5 105.5 30.7 248z"/><path class="st5" d="M307.6 708.7V732h-3.4l-2.5-9.8-6.1 9.8h-34.2c13.2-2.7 24.4-11.3 30.5-23.3h15.7zM389.4 708.7V732h3.4l2.5-9.8 6.1 9.8h34.2c-13.2-2.7-24.4-11.3-30.5-23.3h-15.7z"/><path class="st2" d="M372.2 259.4l.8 4.5 4.5 5.2c.4.4.7.9.9 1.5 5 2.8 10.2 5.3 15.4 7.5 5.5 2.7 9.7 5.1 12.6 8.5-.3-8.7-1.1-17.3-1.9-26-.8-8.1-2-16.1-3-24.2-.9-7.6 1.5-13.5 2-21 1.6-21.9-6.5-39.9-27.7-47.1-19.8-6.8-39.6 7.1-45.6 26-.7 2.3-1.3 4.6-1.8 7-1.3 6.5-1.9 13-4.2 19.6-3.2 9.3-7.3 18.4-12.2 26.9-2.4 4.2-16.2 29-11.5 35l71.7-23.4z"/><path class="st9" d="M315.2 312.2s-3.1 3.2 9.8 58.7c3.6 15.5-6.5 42-9.3 56.4 0 .1 56.1 18.9 89-2.3-4.9-6.3-12.4-28.9-11.8-51.3.4-17.1 8-33.7 10.6-44.4l2.5-10.2 30.6 95.6 13.8-1.9c-15.7-101.5-32.1-136-32.1-136-9.4-5.4-36.9-16.7-36.9-16.7-7.4 5.4-16 3.9-24.5.5-5.8-4.7-46.9 7.5-52.5 13.9-16.2 25.7-35.3 50.5-47 65-4.8 6-3.9 14.8 2.1 19.6.7.5 1.4 1 2.1 1.4l51.4 27.6 1.7-10.9-31.4-31.4 31.9-33.6zM323.1 327.4s9.1 18.9 30.7 8.6M401.1 327.4s-9.1 18.9-30.7 8.6"/><path class="st4" d="M438.1 414.8c-12.6 10.4 1.1 8.6 1.1 8.6s6.3 16.7 10.5 15.9c5.8-1-.4-26.5-.4-26.5l-11.2 2z"/><g id="Layer_7-2"><path class="st4" d="M361.3 272.9c3-.1 11-5.3 15.2-11l3.4-6.1v1.9c-2.5 1-4.9-9.9-4.4-14.3-.6.6 4.7-16.1 4-15.5l-6.3 8.2c-3.8 3.4-2.8 3.9-6.5 3.8-3.8.1-9.2 8.5-13 5.1l-1-.9c-2.9-2.5-5.5-5.3-7.8-8.4 0 .3 1.2 3.7 1.2 4 .9 6.5 0 11.8-3.3 16.4l3.2 5.9c3.9 5.4 12.3 10.9 15.3 10.9z"/><path class="st4" d="M352.9 182.5c-1 2.7 6 8.5 7.7 10.5 2 2.3 4.6 4.1 7.1 6.2.3-.1 7.3 8.3 11.1 11.9 3.9 3.5 7.4 7.3 10.6 11.5-1.4 2.9-4 7.6-6.9 7-.9-.2-1.6.8-2 1.6-1.2 2.6-2.8 5.9-5 7.8-5.6 3.6-11.7 6.3-18.1 8-10.2 2.6-16.9-10.8-16.9-10.8-4-8-5.5-17.1-4.2-26 2.1-14.3 16.6-27.7 16.6-27.7z"/><path class="st10" d="M368.7 283.8l-2.3-2.8-1.8 3.4c-.4.7-.5 1.6-.3 2.4l3.2 14.7 2-6.6 2.1-6.4-1.2-2.2c-.5-.9-1-1.7-1.7-2.5zM352 286.3l-1.2 2.2 2.1 6.4 2 6.6 3.3-14.7c.2-.8.1-1.7-.3-2.4l-1.8-3.4-2.3 2.8c-.7.8-1.3 1.6-1.8 2.5z"/><path class="st9" d="M367.6 301.5l-3.2-14.7c-.2-.8-.1-1.7.3-2.4l1.8-3.4-5.2-6.5-5.2 6.5 1.8 3.4c.4.7.5 1.6.3 2.4l-3.2 14.7 4 13.3c1.5 0 3-.1 4.5-.1l4.1-13.2z"/><path class="st4" d="M379.9 255.8l-3.4 6.1c-4.2 5.7-12.3 10.9-15.2 11-3-.1-11.4-5.6-15.2-11l-3.2-5.9-.2-.3-1.5 4.3.1-.1 9.6 28.5 1.2-2.2c.5-.9 1.1-1.7 1.8-2.5l2.3-2.8 5.2-6.5 5.2 6.5 2.3 2.8c.7.8 1.3 1.6 1.8 2.5l1.2 2.2 9.6-28.5.1.1-1.7-4.2z"/><path class="st4" d="M390.3 295.9l-7.2-12.8 9.7 1c-.9-2.7-2.6-14.3-5-18.5-.3-.5-.6-1-1.1-1.4l-5.4-4.3-.1-.1-9.6 28.5-2.1 6.4-2 6.6-11.8 48.8 34.6-54.2z"/><path class="st4" d="M362.1 323.9l-7.1-22.5-2-6.7-2.1-6.4-9.6-28.5-.1.1-4.5 3.7-.8.7c-2.9 1.5-5.1 16.7-6.1 19.8l9.7-1-7.1 12.8c-.3.5 20.6 31.9 26.6 41.1l3.1-13.1z"/><path class="st7" d="M367.3 206.4c3.1.3 5.9 2 7.7 4.5M343.7 203.7c2.9-1.2 6.1-1.1 8.9.2"/><circle class="st2" cx="366.8" cy="213.1" r="2.3"/><circle class="st2" cx="345.6" cy="209.1" r="2.3"/><path class="st7" d="M347.2 230.6s6.1 8.4 14.9 3.3M359.1 213.1c-.2 2.2-.9 4.4-2 6.4-.8 1.5-1.9 2.8-2.8 4.3-.5.7-.8 1.5-.8 2.4 0 .9.8 1.6 1.6 1.6"/><path class="st4" d="M314.7 377.2s22.6-2 23.7 15.1c0 0-3.8 7.3-14-1.4-5.8-4.9-5.5.4-11.5-2.8"/><path class="st7" d="M364.9 210.8s4.3-1 7.5 3.7M350.1 210.6s-3.7-6.6-7.8-2.8"/></g></g><g id="Layer_8-2"><path class="st4" d="M625 274.1c.1.3.2.7.1 1.1-.1.3-.4.6-.7.8-3.4 2.8-7 5.2-10.9 7.2-2.3 1.2-5 2.3-7.3 1.1-1.4-.9-2.5-2.1-3.2-3.5l-3.6-6c2.2-1.1 2.7-4 2.8-6.5.1-3.3.1-6.5-.1-9.8 5.8-3.3 12.3-5 18.9-5 2.3 0 3.4.5 3.1 2.8-.3 2-.5 4.1-.5 6.1-.1 4 .4 7.9 1.4 11.7z"/><path class="st8" d="M639.3 710.7h12.2s10.8-207.8 8.4-255.5c-1.5-30.1-18.2-45.9-18.2-45.9h-66.5s-16.7 15.8-18.2 45.9c-2.3 47.8-17.6 255.5-17.6 255.5h14.3s49.2-250.6 55-248c-.2.1 23.5 105.5 30.6 248z"/><path class="st5" d="M555.4 708.7V732H552l-2.5-9.8-6.1 9.8h-34.2c13.2-2.8 24.4-11.3 30.5-23.3h15.7zM637.2 708.7V732h3.4l2.5-9.8 6.1 9.8h34.2c-13.2-2.7-24.4-11.3-30.6-23.3h-15.6z"/><path class="st2" d="M620 259.4l.8 4.5 4.5 5.2c.4.4.7 1 .9 1.5 5 2.8 10.2 5.3 15.4 7.5 5.5 2.7 9.7 5.1 12.7 8.5-.3-8.7-1.1-17.3-1.9-26-.8-8.1-2-16.1-3-24.2-.9-7.6 1.5-13.5 2-21 1.6-21.9-6.5-39.9-27.7-47.1-19.8-6.8-39.6 7.1-45.6 26-.7 2.3-1.3 4.6-1.8 7-1.3 6.5-1.9 13-4.2 19.6-3.2 9.3-7.3 18.4-12.2 26.9-2.4 4.2-16.2 29-11.5 35l71.6-23.4z"/><path class="st9" d="M654.2 312.2s3.1 3.2-9.8 58.7c-3.6 15.5 6.5 42 9.3 56.4 0 .1-56.1 18.9-89-2.3 4.9-6.3 12.3-28.9 11.8-51.3-.4-17.1-8-33.7-10.6-44.4l-2.5-10.2-30.6 95.6-13.7-1.9c15.7-101.5 32.1-136 32.1-136 9.4-5.4 36.9-16.7 36.9-16.7 7.4 5.4 16 3.9 24.5.5 5.8-4.7 46.9 7.5 52.5 13.9 16.2 25.7 35.3 50.5 47 65 4.8 6 3.9 14.8-2.1 19.6-.7.5-1.4 1-2.1 1.4l-51.4 27.6-1.7-10.9 31.4-31.4-32-33.6zM646.3 327.4s-9.1 18.9-30.7 8.6M568.3 327.4s9.1 18.9 30.7 8.6"/><path class="st4" d="M531.3 414.8c12.6 10.4-1.1 8.6-1.1 8.6s-6.3 16.7-10.5 15.9c-5.8-1 .4-26.5.4-26.5l11.2 2z"/><g id="Layer_7-3"><path class="st4" d="M609 272.9c3-.1 11-5.3 15.2-11l3.4-6.1v1.9c-2.5 1-4.9-9.9-4.4-14.3-.6.6 4.7-16.1 4-15.5l-6.2 8.2c-3.8 3.4-2.8 3.9-6.5 3.8-3.8.1-9.2 8.5-13 5.1l-1-.9c-2.9-2.5-5.5-5.3-7.8-8.4-.1.3 1.2 3.7 1.2 4 .8 6.5 0 11.8-3.3 16.4l3.2 5.9c3.9 5.4 12.2 10.9 15.2 10.9z"/><path class="st4" d="M600.7 182.5c-1 2.7 6 8.5 7.7 10.5 2 2.3 4.6 4.1 7 6.2.3-.1 7.3 8.3 11.1 11.9 3.9 3.5 7.4 7.3 10.6 11.5-1.3 2.9-4 7.6-6.9 7-.9-.2-1.7.8-2 1.6-1.2 2.6-2.8 5.9-5 7.8-5.6 3.6-11.7 6.3-18.1 8-10.2 2.6-17-10.8-17-10.8-4-8-5.5-17.1-4.2-26 2.3-14.3 16.8-27.7 16.8-27.7z"/><path class="st10" d="M600.7 283.8l2.3-2.8 1.8 3.4c.4.7.5 1.6.3 2.4l-3.2 14.7-2-6.6-2.1-6.4 1.2-2.2c.4-.9 1-1.7 1.7-2.5zM617.3 286.3l1.2 2.2-2.2 6.4-2 6.6-3.2-14.6c-.2-.8-.1-1.7.3-2.4l1.8-3.4 2.3 2.8c.7.7 1.3 1.5 1.8 2.4z"/><path class="st9" d="M601.8 301.5l3.2-14.7c.2-.8.1-1.7-.3-2.4l-1.8-3.4 5.2-6.5 5.2 6.5-1.8 3.4c-.4.7-.5 1.6-.3 2.4l3.2 14.7-4 13.3c-1.5 0-3-.1-4.5-.1l-4.1-13.2z"/><path class="st4" d="M591.4 254.8l3.2 6.5c4.2 5.7 10.5 10.7 13.5 10.8 3-.1 11.4-4.7 15.2-10.1l3.2-5.9.2-.3 1.5 4.3-.1-.1-9.6 28.5-1.2-2.2c-.5-.9-1.1-1.7-1.8-2.5l-2.3-2.8-5.2-6.5-5.2 6.5-2.3 2.8c-.7.8-1.2 1.6-1.8 2.5l-1.2 2.2L588 260l-.1.1 1.8-3 1.7-2.3z"/><path class="st4" d="M579 295.9l7.2-12.8-9.7 1c.9-2.7 2.7-14.3 5-18.5.3-.5.7-1 1.2-1.4l5.4-4.3.1-.1 9.6 28.5 2.1 6.4 2 6.6 11.8 48.8-34.7-54.2z"/><path class="st4" d="M607.3 323.9l7.1-22.5 2-6.6 2.1-6.4 9.6-28.5.1.1 4.5 3.7.8.7c2.9 1.5 5.1 16.7 6.1 19.8l-9.7-1 7.2 12.8c.3.5-20.6 31.9-26.7 41.1l-3.1-13.2z"/><path class="st7" d="M615.1 206.4c3.1.3 5.9 2 7.7 4.5M591.4 203.7c2.9-1.2 6.1-1.1 8.9.2"/><circle class="st2" cx="614.6" cy="213.1" r="2.3"/><circle class="st2" cx="593.4" cy="209.1" r="2.3"/><path class="st7" d="M595 230.6s6.2 8.4 14.9 3.3M606.9 213.1c-.2 2.2-.9 4.4-2 6.4-.8 1.5-1.9 2.8-2.8 4.3-.5.7-.8 1.5-.8 2.4 0 .9.8 1.6 1.6 1.6"/><path class="st4" d="M654.6 377.2s-22.7-2-23.7 15.1c0 0 3.8 7.3 14-1.4 5.7-4.9 5.5.4 11.5-2.8"/><path class="st7" d="M612.6 210.8s4.3-1 7.5 3.7M597.9 210.6s-3.7-6.6-7.8-2.8"/></g></g><path class="st2" d="M521.5 299.6c24.2 12 55-25.1 55-25.1s16.1-9.1 14.9-24.1c0 0-6.5 12.8-27.8-3.6-10.5-8.3-15.8-21.4-23.9-32.2 0 0-15-18.9-37.3-24.5 0 0-17.2-6.7-37.7 4.8 0 0-18.9 10-19.5 30.8 0 0-3.5 25.8 21.5 46.1 5 4 9.3 8.8 12.5 14.4l37.9 10.9"/><path class="st4" d="M465 461.8s43.3 219.1 48.3 264.7l15 7.2-6-282.7c.1-.1-39.7-42.6-57.3 10.8zM465 482.8S357.9 689.7 339.1 731.5h-14.4l89.1-276.8c.1 0 51-28 51.2 28.1z"/><path class="st2" d="M528.2 725.1c8 15.7 26 26.8 43.2 30.4h-44.7l-8-12.8-3.2 12.8H511l2.3-29.1 14.9-1.3zM341.5 725.1l1.6 30.4h-4.5l-3.2-12.8-8 12.8h-44.7c17.2-3.6 36-14.8 44.1-30.4h14.7z"/><path class="st4" d="M414.3 407.3l-54.8-46.5c-4.2-3.6-4.7-10-1.1-14.2l1.2-1.2 59.2-45.6-3.4 31.6-30.2 24.4 35.4 42.3M584 449.4l-29.8-67.2-29.4-84.2-22.2 8.3 35.7 90.2 36.5 59.5"/><path class="st4" d="M442 287.9s22.7 2.5 26.5-7.2-1.9-15-1.9-15l21.4 2.6s-.7 16 13.7 19c0 0 14.6 36.3 10.6 53.4-6.8 28.6-35.1 44.5-47.2 47-11.7 2.4-36.7-25.4-39.4-53.5-1.9-18.5 17.3-37.8 16.3-46.3z"/><path class="st11" d="M510.4 399.5s-11.4-23.7-8.7-30.7 9.5-18.3 10.6-28.1-19.4-51-43.9-35.6c0 0-32.4-18.5-43.5 30.4 0 0 4.7 21.8 7 30.9s-5.4 31.6-5.4 31.6 35.3 22.4 83.9 1.5z"/><path class="st11" d="M549.9 355.1l-25.7-59.9c-2.4-2-5.3-3.4-8.3-4.2l-14.2-3.7s-15.6 12-30 12c-11 0-14.2-5.8-15-12l-14.6.6c-3.9-.2-7.8.9-11.1 2.9l-51.2 37.9s25.1 37.1 49.6 10.6c9.2-10 3.5-36.6 40-24.5 0 0 27.5-12.1 36 19.9 4.9 18.8 15 33.2 44.5 20.4z"/><path class="st2" d="M510.4 399.5c26.2 31.4 26.2 172.2 26.2 172.2S507 586.2 465 587.2s-85.4-26.3-85.4-26.3 47.8-156.3 46.8-162.8c0-.1 35.7 22.1 84 1.4z"/><path class="st4" d="M493.7 265.8c-5.6 4.6-12.7 8.6-19.8 7-5.2-1.2-9.4-5.2-12.3-9.6-3.1-4.9-5.6-10-7.7-15.4-1.6-3.3-2.7-6.8-3.2-10.4-.6-5.2 1-10.3 2.6-15.2 2.6-8.1 5.6-16.8 12.4-21.9 4.1-2.6 8.6-4.5 13.3-5.6 3.4-1.1 7-1.8 10.6-1.8 3 .2 6 .9 8.7 2.1 7.9 3.2 14.3 9.2 18.1 16.8 9.7 20.4-7.8 41.7-22.7 54z"/><path class="st5" d="M512.5 251.2S493 225.4 500 205.7c0 0-13.4 6.5-21.5 6.6 0 0-21-1.3-25.1 14.4-.3 1-.3 2.1-.3 3.1.2 3.3.5 12-2 15.9l-2.5-7.5 1.5-16.9 12.5-21 15.1-9.4 18.7 1.2 14.2 7.1 13 22.9-4.7 20.4-6.4 8.7z"/><path class="st4" d="M494.8 232.4c-.9.2-1.8.1-2.5-.5s-1.3-1.2-1.9-1.9c-.5-.5-1-.9-1.5-1.2-.5-.4-1.1-.7-1.7-.9-1.7-.4-3.4 0-4.8 1.1-1.3 1.1-2.4 2.4-3.3 3.8M469.7 229.2l-1.4-1.6c-1-1.4-2.5-2.3-4.2-2.7-1.4 0-2.8.4-4 1-1.3.6-2.8.5-4-.2M480 223.6c4.4-3.1 10.3-2.9 14.3.6M471.4 221.7c-2.5-2.7-6.2-4-9.9-3.3M473.1 246.8c-1.3-.7-2.6-1.5-3.8-2.3-.3-.2-.6-.4-.8-.7-.3-.8-.2-1.8.4-2.5l2.1-4.2M476.4 260.7c-1 .2-2 .6-3 1-.3.2-.7.4-1 .5-1.3.4-2.7-.6-3.3-1.9-.4-1.4-.7-2.7-.9-4.1-.5-1.1-.8-2.2-1.1-3.4-.1-.3-.1-.7.1-1 .4-.5 1.1-.8 1.7-.6 4.5.5 8.8 2 12.6 4.2.2.1.3.2.4.3.5.8-1.1 2.4-1.6 3-1.2 1-2.5 1.7-3.9 2z"/><path class="st12" d="M469.5 263.1c1.2.7 2.7.9 4.1.6 1.4-.4 2.7-1 3.8-1.8.9-.6 1.8-1.2 2.7-1.9.7-.5 1.3-1.1 1.9-1.7.5-.6.8-1.5.7-2.3-1.3 1.2-2.8 2.2-4.5 2.9-2.1 1.1-4.5 1.5-6.9 1.2-.8-.1-2-.8-2.7 0s.1 2.4.9 3zM466.4 250.2c2.9-.9 5.9-.6 8.6.6 2.7 1.2 5.2 2.8 7.5 4.6.1.1.3.3.3.4s-.2.2-.5.1c-2.8.2-5.4-1.2-8-2-2.1-.7-4.4-1-6.7-.9-1.8.2-3.9-1.9-1.2-2.8z"/><ellipse transform="rotate(-66.952 484.882 230.481)" class="st2" cx="484.9" cy="230.5" rx="2.6" ry="2.1"/><ellipse transform="rotate(-66.952 463.35 227.443)" class="st2" cx="463.4" cy="227.4" rx="2.6" ry="2.1"/><path class="st4" d="M574.8 456s-1.3 17.3 2 14.6c.7-.5 1.7-3.2 2.3-3 2 .5 3.4 8.4 5.8 10.3 3.1 2.4 9.1-7.9-.8-28.4M420.8 398c3.3 0 6.5.5 9.6 1.5 8.4 2.9 10.8 11.9 8.1 14.9-2.4 2.8-9.6 1.2-11.5-1.3-3.1-3.9-6.2 1-10.4-3.3l-2.3-2.4"/></svg>