<?xml version="1.0" encoding="utf-8"?>
<!-- Generator: Adobe Illustrator 22.0.1, SVG Export Plug-In . SVG Version: 6.00 Build 0)  -->
<svg version="1.1" id="Layer_1" xmlns="http://www.w3.org/2000/svg" xmlns:xlink="http://www.w3.org/1999/xlink" x="0px" y="0px"
	 viewBox="0 0 1000 1000" style="enable-background:new 0 0 1000 1000;" xml:space="preserve">
<style type="text/css">
	.st0{fill:#FFFFFF;}
	.st1{fill:#EDEDED;stroke:#000000;stroke-width:0.5;stroke-miterlimit:10;}
	.st2{fill:#EB058C;stroke:#000000;stroke-width:0.5;stroke-miterlimit:10;}
	.st3{fill:#0077BF;stroke:#000000;stroke-width:0.5;stroke-miterlimit:10;}
	.st4{fill:#848484;stroke:#000000;stroke-width:0.5;stroke-miterlimit:10;}
	.st5{fill:#727272;stroke:#000000;stroke-width:0.5;stroke-miterlimit:10;}
	.st6{fill:#FFFFFF;stroke:#000000;stroke-width:0.5;stroke-miterlimit:10;}
	.st7{fill:#FFFFFF;stroke:#000000;stroke-width:0.5;stroke-linejoin:round;stroke-miterlimit:10;}
	.st8{fill:#BCBCBC;}
	.st9{fill:#D3D3D3;stroke:#000000;stroke-width:0.5;stroke-miterlimit:10;}
	.st10{fill:#A5A5A5;stroke:#000000;stroke-width:0.5;stroke-miterlimit:10;}
	.st11{fill:#F4F4F4;stroke:#000000;stroke-width:0.5;stroke-miterlimit:10;}
	.st12{fill:#1A1A1A;}
	.st13{fill:#FFE600;stroke:#000000;stroke-width:0.5;stroke-miterlimit:10;}
	.st14{fill:#1A1A1A;stroke:#000000;stroke-width:0.5;stroke-miterlimit:10;}
	.st15{fill:none;stroke:#000000;stroke-width:0.5;stroke-miterlimit:10;}
	.st16{fill:#E5E5E5;stroke:#000000;stroke-width:0.5;stroke-miterlimit:10;}
	.st17{fill:#EAEAEA;stroke:#000000;stroke-width:0.5;stroke-miterlimit:10;}
	.st18{fill:#F2F2F2;stroke:#000000;stroke-width:0.5;stroke-miterlimit:10;}
</style>
<g id="Layer_6">
	<path class="st0" d="M758.5,368.1c-90.1-1.5-125.5-105.2-152-151.2c-33-57.1-99.7-130.2-245.6-112.3c0,0-243.6,16.1-263.9,306.4
		c0,0-18.9,129.8,89.9,293.6c0,0,104.8,126.7,248.2,139.5c0,0,247.8,25.7,420.9-107.3c0,0,208.9-131.6,60.7-308.9
		C893.3,399.9,832.4,369.3,758.5,368.1z"/>
</g>
<path class="st1" d="M263,532.8c0,0,298.6,44,368.7-14.1c41.5-34.4-101.8-72.8-88.1-114.1c13.7-41.3,175.5-42.1,239.3-62.6
	c126.2-40.4-107.8-70-335.5-77.4c0,0-6.5-4.7,15.6-4.4c58.6,0.9,182.1,5.6,265,17.6c128.4,18.6,160.1,50.6,101.4,76.5
	s-222.2,44.7-94.4,90.9c0,0,152.2,46.2,165.3,101.4c22.4,94.3-324.2,346-749.5,163.5L263,532.8z"/>
<g>
	<g>
		<path class="st2" d="M560,182.1c2.1,0.2,3.7,2,3.5,4.1l-0.7,9.1c-0.2,2.1-2,3.7-4.1,3.5c-2.1-0.2-3.7-2-3.5-4.1l0.7-9.1
			C556.1,183.6,558,182,560,182.1z"/>
		
			<rect x="524.3" y="192.6" transform="matrix(-0.9973 -7.307099e-02 7.307099e-02 -0.9973 1069.8572 490.03)" class="st3" width="39.2" height="65.6"/>
		
			<rect x="434.8" y="170.5" transform="matrix(-0.9973 -7.307099e-02 7.307099e-02 -0.9973 958.585 464.6899)" class="st2" width="106" height="88.6"/>
		<polygon class="st3" points="586,230.3 565.8,194.2 561.1,259.6 583.7,261.2 		"/>
		<polygon class="st1" points="579,227.9 567.5,207.1 566,227.1 		"/>
		
			<rect x="562.1" y="229.9" transform="matrix(-0.9973 -7.307099e-02 7.307099e-02 -0.9973 1135.9277 532.2279)" class="st3" width="31.1" height="30.9"/>
		<circle class="st4" cx="524.7" cy="259.9" r="15"/>
		<circle class="st5" cx="524.7" cy="259.9" r="11.1"/>
		<circle class="st1" cx="524.7" cy="259.9" r="5.5"/>
		<g>
			<circle class="st4" cx="456" cy="254.8" r="15"/>
			<circle class="st5" cx="456" cy="254.8" r="11.1"/>
			<circle class="st1" cx="456" cy="254.8" r="5.5"/>
		</g>
		<g>
			<circle class="st4" cx="572.5" cy="263.8" r="15"/>
			<circle class="st5" cx="572.5" cy="263.8" r="11.1"/>
			<circle class="st1" cx="572.5" cy="263.8" r="5.5"/>
		</g>
		<g>
			<circle class="st6" cx="489.2" cy="192.7" r="16"/>
			<polygon class="st2" points="480.5,188.3 485.7,188.6 486.1,183.4 493.6,184 493.2,189.2 498.4,189.6 497.9,197.1 492.7,196.7 
				492.3,201.9 484.8,201.4 485.2,196.1 479.9,195.8 			"/>
		</g>
		
			<rect x="552.6" y="189" transform="matrix(-0.9973 -7.307099e-02 7.307099e-02 -0.9973 1103.1354 423.0784)" class="st1" width="13.5" height="4.6"/>
	</g>
	<path class="st7" d="M416.8,246.7l-22.2-5.4c0,0,2.6-8.4-6.6-9.5c-7.2-0.8-6.7,7-6.7,7s-4.8-4.4-11-1.2c-5.7,2.9-4.6,11.8,0.5,15
		c6,3.8,7.4-1.1,7.4-1.1s-0.5,7.8,6.7,7.4c7-0.4,8.2-5.6,8.2-5.6l23.8-4.2V246.7z"/>
	<g>
		
			<rect x="330.7" y="142" transform="matrix(7.107675e-02 -0.9975 0.9975 7.107675e-02 115.3607 509.2177)" width="0.7" height="101.3"/>
	</g>
	<g>
		
			<rect x="380.4" y="137.5" transform="matrix(7.107915e-02 -0.9975 0.9975 7.107915e-02 175.5332 545.7816)" width="0.7" height="82.3"/>
	</g>
	<g>
		
			<rect x="362.1" y="167.7" transform="matrix(7.107787e-02 -0.9975 0.9975 7.107787e-02 130.0994 553.9944)" width="0.7" height="79"/>
	</g>
	<g>
		
			<rect x="357.4" y="146.2" transform="matrix(7.107787e-02 -0.9975 0.9975 7.107787e-02 147.0529 529.3688)" width="0.7" height="79"/>
	</g>
</g>
<ellipse class="st8" cx="242" cy="708.5" rx="127.4" ry="25.6"/>
<g>
	<rect x="184.5" y="586.7" class="st9" width="110.5" height="97.2"/>
	<ellipse class="st10" cx="239.8" cy="586.7" rx="55.3" ry="11"/>
	<path class="st9" d="M295.1,682.9c0,6.1-24.7,11-55.3,11s-55.3-4.9-55.3-11"/>
</g>
<g>
	<path class="st3" d="M192.6,592l25.4-8c0,0,21.6,6.2,39.6,8c18,1.8,63.8-34,63.8-34l-25.6,137.3h15.8c0,0,64.2-153.7,62.4-173.5
		s-28.8-23.2-77.2,3.2c-50.1,27.3-29.4,3.8-40.8-5.8c0,0-39,4.2-68.5-5.8L192.6,592z"/>
	<path class="st6" d="M274.3,543.1l27.8-87.3l31.2,36.8l-13.1,71l15,4.5l28.9-73.4l-56.9-95.4L271.1,387c0,0-28.8,7.8-43.2-8.4
		l-49.6-0.6l-43.4,104.9l52.5,87l14.3-4.6L170,490.2l14.4-54.6l-9,87.7L274.3,543.1z"/>
	<path class="st3" d="M180.8,698.6c0-3.9-45-172.4-45-172.4s-8.5-40.6,27.6-40.8c22.8-0.1,26.4,40.8,26.4,40.8l7.4,172.4H180.8z"/>
	<polyline class="st6" points="178.4,378 134.9,482.9 187.5,570 201.7,565.4 170,490.2 184.4,435.6 	"/>
	<g id="Layer_9">
		<path class="st11" d="M283.8,561.9c0,0-36,57-43.8,65.4c0,0,43.3,25.8,62.4,15c0,0,20.3-54.6,19.1-69L283.8,561.9z"/>
		<path class="st6" d="M326.8,588.8c-1.9,2.7-6.7,6.5-8.8,5c1-11.5,0.2-20.8,0.2-20.8s-20,8.7,2.7-9.1l14.3,4.2
			C335.3,568.1,331.4,582.4,326.8,588.8z"/>
		<path class="st6" d="M244.7,567c0,0,19,62,26.8,70.4c0,0-43.6,22-62.8,11.2c0,0-3-64.6-7.6-73.3L244.7,567z"/>
		<path class="st6" d="M195.9,590.8c1.9,2.7,6.7,6.5,8.8,5c-1-11.5-0.2-20.8-0.2-20.8s20,8.7-2.7-9.1l-14.3,4.2
			C187.5,570.1,191.4,584.4,195.9,590.8z"/>
		<polygon class="st12" points="199.8,698.6 199.8,718.4 189,718.4 189,713.5 182.3,718.4 132.3,718.4 132.3,718.4 176.8,698.6 		
			"/>
		<polygon class="st12" points="293.1,695.3 293.1,715.1 303.8,715.1 303.8,710.2 310.6,715.1 360.6,715.1 360.6,715.1 316.1,695.3 
					"/>
		<path class="st13" d="M250.8,395.9l-2.9,84.4l-16.8,15l-8.6-20.6l24.5-79C246.9,395.6,249.2,391.8,250.8,395.9z"/>
		<polygon class="st6" points="240.7,351.4 235.5,391.4 248.6,395.1 262,400.1 273.2,355.7 		"/>
		<g id="Layer_7_2_">
			<path class="st6" d="M228.5,379.4l5.8,22.4l1.5,6.2l7.7-7.7l5.1-5.1c0.3-0.2,0.7-0.2,1,0c0.1,0.1,0.1,0.2,0.2,0.2l4.1,7.5
				l6.1,11.3l10.6-26.2l-1.2-5.4l-0.6,0.3l-19,11.1c-0.3,0.1-0.7,0-0.9-0.2L232.7,374l-0.2-0.2L228.5,379.4z"/>
			<g>
				<path class="st6" d="M237.7,373.8c1.6,2.7,3,5.3,5.5,7.4c1.5,1.3,3.9,1.9,6.2,2.3l0.9,0.2c1.8,0.6,3.8,0.8,5.7,0.6
					c3.2-0.7,5.7-2.3,8.3-3.9c1.9-1,3.9-1.8,6-2.4c1.1-0.4,2.2-0.9,3.1-1.6c1.2-1,2.3-2.1,3-3.5c1.2-2,1.8-5.5,4-6.8
					c2-1.2,3.7-1.4,5.4-3.3c2.8-3.4,4.7-7.5,5.5-11.8c0.2-1.2,0.1-3.3-1.9-2.6c-0.9,0.3-0.8,1.7-1.6,1.9l-0.1,0l-1,1.6l-2.3-0.6
					c0.4-1.7,1-3.4,1.7-5.1c1-3.7,2.1-7.4,2.2-11.2c0-4.9-6.3-8.8-9.6-12c-0.5-0.5-1.2-1.7-1.9-2c-1.1-0.6-0.4-0.3-1.7,0
					c-4.6,1.3-7.5,3.1-12.7,1.8c-4.2-1-8.1-2.9-12.3-3.6c-5.7-1-11.8,1.6-13.8,7.1c-0.8,2.1-1,4.3-1.7,6.4c-0.5,1.4-0.9,2.9-1.2,4.4
					c-0.1,0.5-0.2,1-0.3,1.5l-3-0.7c0.1-0.5,0.3-0.9,0.3-1.2c0.2-0.7,0.4-1.3,0.5-2c0-0.3-0.1-0.7-0.3-0.9c-1.3-1.5-2.5,0.3-2.8,1.4
					c-1.4,4.2-1.6,8.7-0.7,13c0.6,2.5,2,3.5,3.2,5.4c1.3,2.2,0.2,5.5,0.3,7.9c0.1,1.6,0.4,3.1,1.1,4.5c0.4,0.9,1,1.7,1.6,2.5
					C234.7,370.2,236.5,371.8,237.7,373.8z"/>
				<path class="st14" d="M230.4,336.6c-0.1,0.3-0.9,3.7-1,4.2l3,0.7c0.1-0.5,0.9-3.9,1-4.4c0.3-1.5,0.2-1.5,0.7-3
					c0.6-2.1,0.3-0.5,1.1-2.6c2-5.4,8-8,13.8-7.1c4.2,0.7,8.2,2.6,12.3,3.6c5.1,1.3,8-0.4,12.7-1.8c1.2-0.4,0.6-0.6,1.7,0
					c0.7,0.4,1.4,1.5,1.9,2c3.3,3.2,9.7,7.1,9.6,12c0,3.9-0.1,2.3-1.1,6c-0.7,1.7-2.2,5.7-2.6,7.5l2.3,0.6l2-4
					c1.1-1.7,2.2-3.5,2.6-4.3c1.3-2.8,2.3-5.6,3.2-8.5c2.6-6.9,4.2-9.5,1-16.6c-3.4-7.6-9.9-13.2-14-13.7c-0.2,0-3-0.5-2.7-0.1
					c-1.1-1.5-3.6-2.3-5.3-3.1c-8.8-4.4-22-2-30.2,2.1c-8.7,4.3-9.1,8.3-10.1,16.1c-0.4,2.7-1.1,5.6-1,8.3c0.1,1.4,0,2.8-0.3,4.2
					C230.8,335.3,230.6,335.9,230.4,336.6z"/>
				<path class="st15" d="M268.4,347.6c3.1,0,6,1.4,8,3.7"/>
				<path class="st15" d="M242,343.6c2.7-1.5,5.9-1.8,8.8-0.8"/>
				<circle class="st14" cx="269.6" cy="355.3" r="2.3"/>
				<circle class="st14" cx="247.3" cy="351.8" r="2.3"/>
				<path class="st15" d="M245.7,369.6c0,0,7.4-1,14.7,3.6"/>
				<path class="st15" d="M259.7,348.7c-0.9,2.5-1.5,5.1-1.7,7.7c-0.2,2-0.1,4-0.2,6c0,1-0.2,2-0.6,2.9c-0.5,0.9-1.4,1.3-2,0.7"/>
			</g>
		</g>
	</g>
</g>
<g>
	<polygon class="st16" points="263.9,730.7 177.5,759.2 248.8,787.6 302.5,740.3 	"/>
	<polygon class="st17" points="212.6,715.1 129.5,736.9 173.5,776.9 254.5,730.7 	"/>
	<polygon class="st18" points="254.5,715.1 173.5,733.9 226.7,772.1 293.1,724.7 	"/>
	<polygon class="st6" points="259.6,708.5 340.6,727.2 287.4,765.4 221,718 	"/>
</g>
<g>
	<g>
		<path class="st0" d="M471.2,218.1c-0.1-0.3-0.5-0.2-1-0.2c-0.3,0-0.6,0-1.1,0.1l0.6-1.6c0.1-0.2-1-1.2-1.4-0.9
			c-0.3,0.2-0.7,1.3-1.3,2.7c-1,0.1-1.9,0.3-2.3,0.4c0,0,0-0.1,0-0.1c0.1-0.7-0.9-1.2-1.5-1.2c-0.2,0-0.4,0-0.5,0.2
			c-1.5,2.3-2.5,4.9-3.6,7.3l-0.1,0c0.2-2.2,1-4.2,1.4-6.3c0.1-0.6-0.4-0.6-0.7-0.7c-1.1-0.1-2,2.9-2.4,6.6
			c-0.1,0.1-0.1,0.1-0.1,0.1c-0.1,1.5-1.8,4.1-3.5,4c-1.2-0.1-1.5-0.9-1.4-1.9c0.1-1.8,0.6-2.9,0.6-2.9s0.3,1,1.3,1
			c1.8,0.1,2.8-2.4,3-5.2c0.2-2-0.8-2.8-1.7-2.9c-2-0.2-4.4,5.4-4.7,9.1c0,0.2,0,0.4,0,0.6c-0.1-0.1-0.2-0.2-0.4-0.1l-0.2,0.1
			c-0.8-1.4-2-3-2.9-4.2c2.6-0.2,4.4-1.7,4.6-4.3c0.2-2.5-2-4.8-4.7-5.2c0-0.2,0.1-0.3,0.1-0.4c-0.2-0.3-0.7-0.5-1.1-0.6
			c-0.6,0-0.5,0.3-0.6,0.6c0,0.1-0.1,0.2-0.1,0.3c-3.1,0.2-3.9,2.4-3.9,2.4c0,0.3,1.2,1.1,1.4,1.2c0.1,0,0.1-0.1,0.1-0.1
			c0.3-0.7,0.8-1.5,1.9-1.9c-1,3.6-2.7,10.8-3.3,14.3c0.1,0.2,1,0.6,1.4,0.7c0.4,0,0.6-0.5,0.8-1.3c0.1-0.7-0.1-0.8,0-1.2l1-4.6
			l0.1,0c1.2,1.4,3.9,5.6,5,7.3c0.4,0,1-0.5,1.2-0.6c0,0,0.1-0.1,0.1-0.2c0.6,1.2,1.5,1.8,2.6,1.9c1.3,0.1,2.4-0.7,3.1-1.8
			c0.1,0.8,0.4,1.3,1.1,1.3c0.5,0,0.8-0.3,0.8-0.3c0.1-2.1,1.6-5.8,2.7-7.7l0.3,0c-0.3,1.1-0.9,3.4-0.9,4.4
			c-0.1,1.8,0.2,3.4,1.7,3.6c1.1,0.1,2-0.7,2.4-1.5c0.4,1.2,1.2,2,2.3,2.1c1.4,0.1,3.7-1.5,3.8-3c0.1-1.3-0.7-1.2-0.7-1.2
			c-0.2,1.2-2.1,2.6-3.4,2.5c-0.5,0-0.7-0.4-0.6-1c0.3-3.4,0.5-3.5,2.1-7.9c1.1-0.1,2.4-0.1,3.3-0.1c0.3,0,0.3-0.2,0.4-0.3
			c0-0.1-0.3-0.7-0.4-0.8C471.5,218.2,471.3,218.4,471.2,218.1z M455.1,217.9c0.2-0.3,0.3-0.4,0.4-0.4c0.1,0,0.3,0.1,0.2,1.1
			c-0.2,2-1,4.5-1.9,4.4c-0.5,0-0.5-0.6-0.5-0.6C453.7,220.9,454.5,219.1,455.1,217.9z M447,213.4c0.1,0,0.2,0,0.4,0
			c1.8,0.1,3.1,1.4,3,3.1c-0.2,2.9-2.3,3.9-5,3.7C445.9,217.7,446.6,215.2,447,213.4z M464.9,226.1c0,0.2,0,0.4,0,0.6
			c-0.3,0.6-0.8,1.5-1.4,1.4c-0.6,0-0.9-0.6-0.8-1.8c0.2-2.6,1.3-5.1,1.9-7.2c0.2,0.4,0.5,0.8,0.9,0.8l1-0.1
			C465.7,222.1,465,224.8,464.9,226.1z"/>
		<path class="st0" d="M484.4,226.9c-0.3,1.3-0.7,2.7-1.8,2.7c-0.8-0.1-0.9-0.8-0.8-1.8c0.1-1.8,0.9-4,1.8-6.5
			c0.2-0.5-0.7-0.6-0.9-0.7c0,0,0-0.1,0-0.2c0.1-0.7-0.5-1.7-2-1.8c-2.7-0.2-4.8,3.6-5.1,7.7c-0.2,2.7,0.9,4.5,2.5,4.6
			c1.1,0.1,2.1-0.7,2.5-1.4l0.1,0c0,0.5,0.5,1.5,1.5,1.6c1.7,0.1,2.8-2.3,2.9-3.5C485.1,226.8,484.4,226.9,484.4,226.9z M478,229.3
			c-0.6,0-0.8-0.6-0.6-2c0.2-2.3,1.6-7.6,3.2-7.4c0.4,0,0.4,0.6,0.4,0.8c-0.1,0.8-0.4,1.6-0.9,2.2c0.3,0.4,1,0.6,1,0.6
			C480.9,224.2,479.3,229.4,478,229.3z"/>
	</g>
	<g>
		<path class="st0" d="M503,230l-2.4-2v0l-0.6-0.5c-0.2,0.2-0.5,0.4-0.7,0.6c-0.3,0.2-0.6,0.4-0.9,0.6c-0.3,0.2-0.7,0.3-1,0.3
			c-0.4,0.1-0.8,0.1-1.2,0.1c-0.6,0-1.1-0.2-1.6-0.5c-0.5-0.3-0.9-0.6-1.2-1.1c-0.3-0.4-0.6-0.9-0.7-1.5c-0.2-0.6-0.2-1.2-0.2-1.8
			l0,0c0-0.6,0.2-1.2,0.4-1.7c0.2-0.5,0.6-1,0.9-1.4c0.4-0.4,0.8-0.7,1.3-0.9c0.5-0.2,1.1-0.3,1.7-0.2c0.8,0.1,1.5,0.3,2.1,0.7
			c0.5,0.4,1,0.8,1.4,1.4l0.8-0.5l0,0l2.5-1.7c-0.3-0.5-0.6-0.9-1-1.3c-0.3-0.4-0.7-0.7-1.1-1l0,0c-0.1-0.1-0.2-0.1-0.2-0.2
			c-0.5-0.3-1.1-0.6-1.8-0.8c-0.7-0.2-1.4-0.3-2.2-0.4c-1.2-0.1-2.4,0-3.4,0.4c-1.1,0.3-2,0.9-2.8,1.6c-0.8,0.7-1.5,1.5-2,2.5
			c-0.5,1-0.8,2-0.9,3.2l0,0c-0.1,1.2,0,2.3,0.4,3.3c0.4,1,0.9,2,1.5,2.7c0.7,0.8,1.5,1.4,2.5,1.9c1,0.5,2,0.8,3.2,0.9
			c0.9,0.1,1.7,0,2.4-0.1c0.7-0.1,1.4-0.3,2-0.6c0.1,0,0.1-0.1,0.2-0.1l0,0l0.1,0l0,0c0.5-0.3,1-0.6,1.4-0.9
			C502.2,230.8,502.6,230.4,503,230z"/>
		<path class="st0" d="M517.4,232.4c-0.7-0.8-1.3-1.8-1.6-2.9c-0.4-1.1-0.5-2.2-0.4-3.4l0,0c0.1-1.2,0.4-2.3,0.9-3.3
			c0.5-1,1.2-1.9,2.1-2.6c0.1-0.1,0.1-0.1,0.2-0.2l0,0l0.1-1.6l-4.5-0.4l-4.5,6.1l-3.5-6.8l-4.5-0.4l0,0.5c0,0,0.1,0.1,0.1,0.1
			c0,0,0.1,0.1,0.1,0.1c0.1,0,0.1,0.1,0.2,0.2c0,0,0.1,0.1,0.1,0.1c0.1,0.1,0.1,0.1,0.2,0.2c0,0,0.1,0.1,0.1,0.1
			c0.1,0.1,0.2,0.2,0.3,0.3c0.4,0.5,0.8,1,1.1,1.5l0.1,0.1l-2.7,1.8l-0.5,5.9l2.5,2.1l-0.1,0.1c-0.4,0.5-0.9,1-1.4,1.4
			c-0.1,0.1-0.2,0.2-0.3,0.2c0,0-0.1,0-0.1,0.1c-0.1,0.1-0.2,0.1-0.2,0.2c0,0-0.1,0.1-0.1,0.1c-0.1,0-0.1,0.1-0.2,0.1
			c0,0-0.1,0.1-0.2,0.1c-0.1,0-0.1,0.1-0.2,0.1l0,0.6l4.1,0.3l0.8-9.7l3.8,7l4.9-6.4l-0.8,9.7l4.1,0.3l0.1-1.6l0,0
			C517.5,232.5,517.4,232.5,517.4,232.4z"/>
		<path class="st0" d="M532.4,224.2c-0.4-1-0.9-2-1.6-2.8c-0.7-0.8-1.6-1.5-2.6-2c-1-0.5-2.1-0.8-3.4-0.9c-1.2-0.1-2.4,0-3.5,0.4
			c-0.9,0.3-1.7,0.7-2.5,1.3c0,0,0,0-0.1,0l-0.1,0.1c0,0,0,0,0,0c-0.1,0-0.1,0.1-0.2,0.1c0,0,0,0,0,0c-0.8,0.7-1.5,1.5-2,2.5
			c-0.5,1-0.8,2-0.9,3.2l0,0c-0.1,1.1,0,2.2,0.4,3.3c0.4,1,0.9,2,1.6,2.8c0,0,0,0,0,0c0.1,0.1,0.1,0.1,0.2,0.2c0,0,0,0,0,0l0.1,0.1
			c0,0,0,0,0.1,0.1c0.6,0.6,1.4,1.2,2.2,1.6c1,0.5,2.1,0.8,3.4,0.9c1.2,0.1,2.4,0,3.5-0.4c1.1-0.3,2-0.9,2.9-1.6
			c0.8-0.7,1.5-1.5,2-2.5c0.5-1,0.8-2,0.9-3.2l0,0C532.9,226.3,532.8,225.2,532.4,224.2z M528.5,227.2c0,0.6-0.2,1.2-0.5,1.7
			c-0.3,0.5-0.6,1-1,1.4c-0.4,0.4-0.9,0.7-1.4,0.9c-0.6,0.2-1.2,0.3-1.8,0.2c-0.6-0.1-1.2-0.2-1.7-0.5c-0.5-0.3-0.9-0.7-1.3-1.1
			c-0.3-0.4-0.6-1-0.8-1.5c-0.2-0.6-0.2-1.1-0.2-1.8l0,0c0-0.6,0.2-1.2,0.4-1.7c0.2-0.5,0.6-1,1-1.4c0.4-0.4,0.9-0.7,1.4-0.9
			c0.5-0.2,1.1-0.3,1.8-0.2c0.6,0.1,1.2,0.2,1.7,0.5c0.5,0.3,0.9,0.7,1.3,1.1c0.4,0.4,0.6,1,0.8,1.5
			C528.5,225.9,528.6,226.5,528.5,227.2L528.5,227.2z"/>
	</g>
</g>
<g>
	<path d="M310,327.4c1.3-0.9,2.8-0.7,3.7,0.5c0.9,1.2,0.6,2.7-0.7,3.6c-1.2,0.9-2.7,0.8-3.7-0.5C308.4,329.8,308.8,328.3,310,327.4z
		 M315.4,324.6l0.9-0.7c1.7-1.6,4.2-2.5,7.6-2.2c3,0.2,5,0.1,6.5-1.1c1.8-1.3,2.1-3.3,0.6-5.5c-0.9-1.2-2.3-2.3-3.6-2.7l1.6-2.4
		c1.7,0.5,3.7,2.1,5,3.9c2.9,4,1.8,7.6-0.8,9.5c-2.4,1.7-5,1.7-8.2,1.4c-2.9-0.2-4.9,0.4-6.5,1.8l-0.9,0.7L315.4,324.6z"/>
</g>
<g>
	<path d="M261.2,280.3l-0.1-1.1c-0.3-2.3,0.4-4.9,2.5-7.5c1.9-2.3,2.9-4,2.9-5.9c0-2.2-1.4-3.6-4.2-3.6c-1.5,0-3.3,0.6-4.3,1.4
		l-1.1-2.7c1.4-1.1,3.8-1.8,6.1-1.8c4.9-0.1,7.2,2.9,7.3,6.2c0.1,2.9-1.5,5.1-3.5,7.5c-1.8,2.3-2.5,4.2-2.3,6.4l0.1,1.1L261.2,280.3
		z M260.4,286.4c0-1.6,1-2.7,2.5-2.8c1.5,0,2.6,1.1,2.6,2.7c0,1.5-0.9,2.7-2.5,2.7C261.5,289,260.4,287.9,260.4,286.4z"/>
</g>
<g>
	<path d="M207.9,314.5l-0.8-0.8c-1.6-1.7-2.6-4.1-2.5-7.5c0.1-3-0.1-5-1.3-6.5c-1.3-1.7-3.3-2-5.5-0.4c-1.2,1-2.3,2.4-2.6,3.7
		l-2.5-1.5c0.5-1.7,2-3.7,3.8-5.1c3.9-3,7.5-2,9.5,0.6c1.8,2.3,1.8,5,1.7,8.2c-0.1,2.9,0.5,4.8,2,6.5l0.7,0.9L207.9,314.5z
		 M210.9,319.8c-1-1.3-0.8-2.8,0.4-3.7c1.2-0.9,2.7-0.7,3.7,0.6c0.9,1.2,0.9,2.7-0.4,3.7C213.4,321.2,211.8,321,210.9,319.8z"/>
</g>
</svg>
