<?xml version="1.0" encoding="utf-8"?>
<!-- Generator: Adobe Illustrator 21.0.2, SVG Export Plug-In . SVG Version: 6.00 Build 0)  -->
<svg version="1.1" id="Layer_1" xmlns="http://www.w3.org/2000/svg" xmlns:xlink="http://www.w3.org/1999/xlink" x="0px" y="0px"
	 viewBox="0 0 723.6 576.4" style="enable-background:new 0 0 723.6 576.4;" xml:space="preserve">
<style type="text/css">
	.st0{fill:#F5F5F5;}
	.st1{fill:#FFFFFF;stroke:#000000;stroke-width:0.5;stroke-miterlimit:10;}
	.st2{fill:#0077BF;stroke:#000000;stroke-width:0.5;stroke-miterlimit:10;}
	.st3{fill:none;stroke:#000000;stroke-width:0.5;stroke-miterlimit:10;}
	.st4{fill:#EB058C;}
	.st5{fill:#E0E0E0;stroke:#000000;stroke-width:0.5;stroke-miterlimit:10;}
	.st6{enable-background:new    ;}
	.st7{fill:#FFFFFF;}
</style>
<title>Expertise</title>
<g id="Layer_7">
	<path class="st0" d="M360.3,495.3c0,0-71.9,89.8-197.4,80.4c0,0-164.1-17-162.9-237.7c0.4-64.7,40.2-178.4,138.7-255.5
		c47.3-37,123.8-80,225.8-82.4c88-2.1,207.4,35,303.6,130.3c45.1,44.7,92.4,184.2,10.7,262.6c-24.7,23.7-88.5,55.8-149.7,20.3
		C529.1,413.3,415.6,314.5,360.3,495.3z"/>
</g>
<path class="st1" d="M70.9,152h381.3c5.5,0,9.9,4.4,9.9,9.9l0,0v313c0,2.6-2.1,4.8-4.8,4.8l0,0H65.8c-2.6,0-4.8-2.1-4.8-4.7l0,0V162
	C61,156.4,65.4,152,70.9,152L70.9,152z"/>
<path class="st2" d="M70.9,152h381.3c5.5,0,9.9,4.4,9.9,9.9l0,0v30.2l0,0H61l0,0V162C61,156.4,65.4,152,70.9,152L70.9,152z"/>
<path class="st3" d="M70.9,152h381.3c5.5,0,9.9,4.4,9.9,9.9l0,0v313c0,2.6-2.1,4.8-4.8,4.8l0,0H65.8c-2.6,0-4.8-2.1-4.8-4.7l0,0V162
	C61,156.4,65.4,152,70.9,152L70.9,152z"/>
<rect x="236.5" y="257.4" class="st4" width="51.9" height="50"/>
<rect x="132.8" y="307.5" class="st4" width="51.9" height="50"/>
<rect x="288.4" y="357.5" class="st4" width="51.9" height="50"/>
<path class="st5" d="M119.4,134.3L119.4,134.3c3.1,0,5.5,2.5,5.5,5.5v24.4c0,3-2.5,5.5-5.5,5.5l0,0c-3,0-5.5-2.5-5.5-5.5v-24.4
	C113.9,136.8,116.3,134.3,119.4,134.3z"/>
<path class="st5" d="M138.7,134.3L138.7,134.3c3.1,0,5.5,2.5,5.5,5.5v24.4c0,3-2.5,5.5-5.5,5.5l0,0c-3,0-5.5-2.5-5.5-5.5v-24.4
	C133.2,136.8,135.6,134.3,138.7,134.3z"/>
<path class="st5" d="M384.4,134.3L384.4,134.3c3.1,0,5.5,2.5,5.5,5.5v24.4c0,3-2.5,5.5-5.5,5.5l0,0c-3,0-5.5-2.5-5.5-5.5v-24.4
	C378.9,136.8,381.4,134.3,384.4,134.3z"/>
<path class="st5" d="M403.7,134.3L403.7,134.3c3.1,0,5.5,2.5,5.5,5.5v24.4c0,3-2.5,5.5-5.5,5.5l0,0c-3,0-5.5-2.5-5.5-5.5v-24.4
	C398.2,136.8,400.7,134.3,403.7,134.3z"/>
<line class="st3" x1="80.8" y1="207.4" x2="80.8" y2="457.6"/>
<line class="st3" x1="132.8" y1="207.4" x2="132.8" y2="457.6"/>
<line class="st3" x1="184.6" y1="207.4" x2="184.6" y2="457.6"/>
<line class="st3" x1="236.5" y1="207.4" x2="236.5" y2="457.6"/>
<line class="st3" x1="288.4" y1="207.4" x2="288.4" y2="457.6"/>
<line class="st3" x1="340.3" y1="207.4" x2="340.3" y2="457.6"/>
<line class="st3" x1="392.2" y1="207.4" x2="392.2" y2="457.6"/>
<line class="st3" x1="444.1" y1="207.4" x2="444.1" y2="457.6"/>
<line class="st3" x1="444.1" y1="207.4" x2="80.8" y2="207.4"/>
<line class="st3" x1="444.1" y1="257.4" x2="80.8" y2="257.4"/>
<line class="st3" x1="444.1" y1="307.5" x2="80.8" y2="307.5"/>
<line class="st3" x1="444.1" y1="357.5" x2="80.8" y2="357.5"/>
<line class="st3" x1="444.1" y1="407.6" x2="80.8" y2="407.6"/>
<line class="st3" x1="444.1" y1="457.6" x2="80.8" y2="457.6"/>
<g class="st6">
	<path d="M109.3,247.8h-3.9v-21.7h-7.5v-2.7c4.4,0,7.6-1.1,8.6-5.5h2.8V247.8z"/>
</g>
<g class="st6">
	<path d="M166.9,247.8h-19.5c0.4-6.9,3.7-9.3,8.9-12.6c3.2-2,7.1-4.2,7.1-8.6c0-3.3-2.4-5.7-5.8-5.7c-4.5,0-5.8,3.8-5.8,7.5h-3.6
		v-0.8c0-5.9,3.8-9.9,9.6-9.9c5.7,0,9.3,3.4,9.3,8.7c0,5.8-4.6,8.6-9,11.3c-2.7,1.6-5.9,3.3-6.7,6.7h15.4v3.4H166.9z"/>
</g>
<g class="st6">
	<path d="M209.8,217.9c5.3,0,8.8,3.1,8.8,7.8c0,2.8-1.5,5.2-4.1,6.3c3.4,0.8,5.5,3.6,5.5,7.2c0,5.6-4.2,9.3-10.4,9.3
		c-6,0-10-3.6-10-9.3v-0.5h3.6c0.2,4.3,2.5,6.7,6.5,6.7c3.8,0,6.5-2.4,6.5-5.8c0-3.5-2.6-5.8-6.6-5.8c-0.7,0-1.1,0-1.9,0.2v-3
		c0.6,0,0.8,0,1.2,0c3.7,0,6-1.9,6-4.9s-2.1-4.9-5.2-4.9c-3.6,0-5.7,2.4-5.8,6.6h-3.5C200.5,221.4,203.9,217.9,209.8,217.9z"/>
</g>
<g class="st6">
	<path d="M272.2,240.6h-4.1v7.2h-3.4v-7.2h-13.2v-3.4l13.6-19.4h2.9v19.7h4.1v3.1H272.2z M264.8,223.1l-10,14.4h10V223.1z"/>
</g>
<g class="st6">
	<path d="M322.5,221.6h-12.1l-1.8,8.9c1.6-1.8,3.6-2.4,6-2.4c5.6,0,9.5,4,9.5,9.8c0,6-4.1,10.5-10.4,10.5c-5.7,0-9.5-3.4-9.7-8.7
		h3.6c0.3,3.3,2.7,5.6,6.1,5.6c3.7,0,6.5-3,6.5-7.1s-2.7-7.1-6.6-7.1c-2.5,0-4.4,1-5.8,2.9l-3.1-0.2l2.8-15.6h14.8v3.4H322.5z"/>
</g>
<g class="st6">
	<path d="M372.1,225.6c-0.4-2.8-2-4.7-5.1-4.7c-6.4,0-7,7.5-7.2,11.6c1.6-2.7,4.3-3.9,7.4-3.9c5.6,0,9.3,3.8,9.3,9.6
		s-3.8,10.2-9.9,10.2c-8.7,0-10.4-7.9-10.4-14.9c0-7.2,2-15.7,10.9-15.7c5,0,8.2,2.9,8.6,7.8L372.1,225.6L372.1,225.6z M360.5,238.4
		c0,4.1,2.5,6.8,6.2,6.8c3.6,0,6-2.6,6-6.6c0-4.2-2.4-6.8-6.1-6.8C363,231.8,360.5,234.4,360.5,238.4z"/>
</g>
<g class="st6">
	<path d="M428,221.5c-5.8,6.6-10.2,15-11.5,26.4h-4c0.7-9.6,5.4-19,11.8-26h-15.7v-3.4H428V221.5z"/>
</g>
<g class="st6">
	<path d="M97,275.3c0-4.5,3.7-7.7,8.9-7.7c5.2,0,8.8,3.1,8.8,7.5c0,3-1.4,5.2-4.1,6.5c3.5,1.2,5.3,3.7,5.3,7.3
		c0,5.7-3.9,9.3-10.2,9.3c-6,0-9.9-3.6-9.9-9.1c0-3.6,1.9-6.3,5.3-7.6C98.6,280.5,97,278.2,97,275.3z M99.7,289.1
		c0,3.6,2.6,6.1,6.3,6.1c3.7,0,6.3-2.5,6.3-6s-2.6-6-6.4-6C102.2,283.2,99.7,285.7,99.7,289.1z M100.7,275.5c0,2.8,2.1,4.7,5.2,4.7
		s5.2-1.9,5.2-4.7c0-2.9-2-4.7-5.2-4.7S100.7,272.7,100.7,275.5z"/>
</g>
<g class="st6">
	<path d="M151.9,290.4c0.4,2.9,2.5,4.7,5.5,4.7c5.2,0,6.3-5.7,6.7-9.8c0.1-0.9,0.1-1.2,0.1-2c-1.7,2.8-4,4.1-7.3,4.1
		c-5.5,0-9.2-3.9-9.2-9.7c0-6,4-10.1,9.9-10.1c8.7,0,10.3,7.8,10.3,14.6c0,6.8-2,15.9-10.6,15.9c-5,0-8.6-2.9-8.9-7.8L151.9,290.4
		L151.9,290.4z M151.5,277.6c0,3.6,2,6.6,5.9,6.6c3.7,0,6.1-2.6,6.1-6.6c0-4.1-2.5-6.8-6.1-6.8C153.9,270.8,151.5,273.5,151.5,277.6
		z"/>
</g>
<g class="st6">
	<path d="M202.3,297.6h-3.9v-21.7h-7.5v-2.7c4.4,0,7.6-1.1,8.6-5.5h2.8L202.3,297.6L202.3,297.6z"/>
	<path d="M229.5,283.4c0,7.1-1.3,14.8-9.9,14.8c-9.1,0-10.2-7.8-10.2-14.9s0.7-15.7,10-15.7C228.8,267.6,229.5,276.2,229.5,283.4z
		 M213.3,283.3c0,4.4,0.1,11.8,6.3,11.8c6.1,0,6.1-7.6,6.1-11.9c0-4.4,0.1-12.3-6.2-12.3S213.3,278.7,213.3,283.3z"/>
</g>
<g class="st6">
	<path class="st7" d="M257.7,297.6h-3.9v-21.7h-7.5v-2.7c4.4,0,7.6-1.1,8.6-5.5h2.8V297.6z"/>
	<path class="st7" d="M277.8,297.6h-3.9v-21.7h-7.5v-2.7c4.4,0,7.6-1.1,8.6-5.5h2.8V297.6z"/>
</g>
<g class="st6">
	<path d="M306.9,297.6H303v-21.7h-7.5v-2.7c4.4,0,7.6-1.1,8.6-5.5h2.8V297.6z"/>
	<path d="M332.9,297.6h-19.5c0.4-6.9,3.7-9.3,8.9-12.6c3.2-2,7.1-4.2,7.1-8.6c0-3.3-2.4-5.7-5.8-5.7c-4.5,0-5.8,3.8-5.8,7.5h-3.6
		v-0.8c0-5.9,3.8-9.9,9.6-9.9c5.7,0,9.3,3.4,9.3,8.7c0,5.8-4.6,8.6-9,11.3c-2.7,1.6-5.9,3.3-6.7,6.7h15.4v3.4H332.9z"/>
</g>
<g class="st6">
	<path d="M358.5,297.6h-3.9v-21.7h-7.5v-2.7c4.4,0,7.6-1.1,8.6-5.5h2.8V297.6z"/>
	<path d="M375.4,267.6c5.3,0,8.8,3.1,8.8,7.8c0,2.8-1.5,5.2-4.1,6.3c3.4,0.8,5.5,3.6,5.5,7.2c0,5.6-4.2,9.3-10.4,9.3
		c-6,0-10-3.6-10-9.3v-0.5h3.6c0.2,4.3,2.5,6.7,6.5,6.7c3.8,0,6.5-2.4,6.5-5.8c0-3.5-2.6-5.8-6.6-5.8c-0.7,0-1.1,0-1.9,0.2v-3
		c0.6,0,0.8,0,1.2,0c3.7,0,6-1.9,6-4.9s-2.1-4.9-5.2-4.9c-3.6,0-5.7,2.4-5.8,6.6H366C366.1,271.1,369.5,267.6,375.4,267.6z"/>
</g>
<g class="st6">
	<path d="M411.1,297.6h-3.9v-21.7h-7.5v-2.7c4.4,0,7.6-1.1,8.6-5.5h2.8V297.6z"/>
	<path d="M437.8,290.4h-4.1v7.2h-3.4v-7.2h-13.2V287l13.6-19.4h2.9v19.7h4.1v3.1H437.8z M430.4,272.9l-10,14.4h10V272.9z"/>
</g>
<g class="st6">
	<path d="M100.1,347.4h-3.9v-21.7h-7.5V323c4.4,0,7.6-1.1,8.6-5.5h2.8V347.4z"/>
	<path d="M125.4,321.1h-12.1l-1.8,8.9c1.6-1.8,3.6-2.4,6-2.4c5.6,0,9.5,4,9.5,9.8c0,6-4.1,10.5-10.4,10.5c-5.7,0-9.5-3.4-9.7-8.7
		h3.6c0.3,3.3,2.7,5.6,6.1,5.6c3.7,0,6.5-3,6.5-7.1s-2.7-7.1-6.6-7.1c-2.5,0-4.4,1-5.8,2.9l-3.1-0.2l2.8-15.6h14.8v3.4H125.4z"/>
</g>
<g class="st6">
	<path class="st7" d="M150.7,347.4h-3.9v-21.7h-7.5V323c4.4,0,7.6-1.1,8.6-5.5h2.8L150.7,347.4L150.7,347.4z"/>
	<path class="st7" d="M173.5,325.2c-0.4-2.8-2-4.7-5.1-4.7c-6.4,0-7,7.5-7.2,11.6c1.6-2.7,4.3-3.9,7.4-3.9c5.6,0,9.3,3.8,9.3,9.6
		c0,5.8-3.8,10.2-9.9,10.2c-8.7,0-10.4-7.9-10.4-14.9c0-7.2,2-15.7,10.9-15.7c5,0,8.2,2.9,8.6,7.8H173.5z M161.9,338
		c0,4.1,2.5,6.8,6.2,6.8c3.6,0,6-2.6,6-6.6c0-4.2-2.4-6.8-6.1-6.8C164.4,331.3,161.9,334,161.9,338z"/>
</g>
<g class="st6">
	<path d="M202.3,347.4h-3.9v-21.7h-7.5V323c4.4,0,7.6-1.1,8.6-5.5h2.8L202.3,347.4L202.3,347.4z"/>
	<path d="M229,321c-5.8,6.6-10.2,15-11.5,26.4h-4c0.7-9.6,5.4-19,11.8-26h-15.7V318H229V321z"/>
</g>
<g class="st6">
	<path d="M255,347.4h-3.9v-21.7h-7.5V323c4.4,0,7.6-1.1,8.6-5.5h2.8L255,347.4L255,347.4z"/>
	<path d="M262.9,325.1c0-4.5,3.7-7.7,8.9-7.7c5.2,0,8.8,3.1,8.8,7.5c0,3-1.4,5.2-4.1,6.5c3.5,1.2,5.3,3.7,5.3,7.3
		c0,5.7-3.9,9.3-10.2,9.3c-6,0-9.9-3.6-9.9-9.1c0-3.6,1.9-6.3,5.3-7.6C264.4,330.3,262.9,328,262.9,325.1z M265.5,338.8
		c0,3.6,2.6,6.1,6.3,6.1c3.7,0,6.3-2.5,6.3-6s-2.6-6-6.4-6C268.1,332.9,265.5,335.4,265.5,338.8z M266.5,325.3
		c0,2.8,2.1,4.7,5.2,4.7s5.2-1.9,5.2-4.7c0-2.9-2-4.7-5.2-4.7S266.5,322.5,266.5,325.3z"/>
</g>
<g class="st6">
	<path d="M306.9,347.4H303v-21.7h-7.5V323c4.4,0,7.6-1.1,8.6-5.5h2.8V347.4z"/>
	<path d="M317.6,340.2c0.4,2.9,2.5,4.7,5.5,4.7c5.2,0,6.3-5.7,6.7-9.8c0.1-0.9,0.1-1.2,0.1-2c-1.7,2.8-4,4.1-7.3,4.1
		c-5.5,0-9.2-3.9-9.2-9.7c0-6,4-10.1,9.9-10.1c8.7,0,10.3,7.8,10.3,14.6c0,6.8-2,15.9-10.6,15.9c-5,0-8.6-2.9-8.9-7.8L317.6,340.2
		L317.6,340.2z M317.1,327.3c0,3.6,2,6.6,5.9,6.6c3.7,0,6.1-2.6,6.1-6.6c0-4.1-2.5-6.8-6.1-6.8C319.5,320.6,317.1,323.3,317.1,327.3
		z"/>
</g>
<g class="st6">
	<path d="M365.1,347.4h-19.5c0.4-6.9,3.7-9.3,8.9-12.6c3.2-2,7.1-4.2,7.1-8.6c0-3.3-2.4-5.7-5.8-5.7c-4.5,0-5.8,3.8-5.8,7.5h-3.6
		v-0.8c0-5.9,3.8-9.9,9.6-9.9c5.7,0,9.3,3.4,9.3,8.7c0,5.8-4.6,8.6-9,11.3c-2.7,1.6-5.9,3.3-6.7,6.7H365v3.4H365.1z"/>
	<path d="M386.4,333.1c0,7.1-1.3,14.8-9.9,14.8c-9.1,0-10.2-7.8-10.2-14.9s0.7-15.7,10-15.7C385.7,317.4,386.4,326,386.4,333.1z
		 M370.2,333.1c0,4.4,0.1,11.8,6.3,11.8c6.1,0,6.1-7.6,6.1-11.9c0-4.4,0.1-12.3-6.2-12.3C370,320.6,370.2,328.5,370.2,333.1z"/>
</g>
<g class="st6">
	<path d="M418.8,347.4h-19.5c0.4-6.9,3.7-9.3,8.9-12.6c3.2-2,7.1-4.2,7.1-8.6c0-3.3-2.4-5.7-5.8-5.7c-4.5,0-5.8,3.8-5.8,7.5h-3.6
		v-0.8c0-5.9,3.8-9.9,9.6-9.9c5.7,0,9.3,3.4,9.3,8.7c0,5.8-4.6,8.6-9,11.3c-2.8,1.6-5.9,3.3-6.7,6.7h15.4v3.4H418.8z"/>
	<path d="M433.9,347.4H430v-21.7h-7.5V323c4.4,0,7.6-1.1,8.6-5.5h2.8V347.4z"/>
</g>
<g class="st6">
	<path d="M106.9,397.2H87.3c0.4-6.9,3.7-9.3,8.9-12.6c3.2-2,7.1-4.2,7.1-8.6c0-3.3-2.4-5.7-5.8-5.7c-4.5,0-5.8,3.8-5.8,7.5h-3.6V377
		c0-5.9,3.8-9.9,9.6-9.9c5.7,0,9.3,3.4,9.3,8.7c0,5.8-4.6,8.6-9,11.3c-2.7,1.6-5.9,3.3-6.7,6.7h15.4v3.4H106.9z"/>
	<path d="M127.4,397.2h-19.5c0.4-6.9,3.7-9.3,8.9-12.6c3.2-2,7.1-4.2,7.1-8.6c0-3.3-2.4-5.7-5.8-5.7c-4.5,0-5.8,3.8-5.8,7.5h-3.6
		V377c0-5.9,3.8-9.9,9.6-9.9c5.7,0,9.3,3.4,9.3,8.7c0,5.8-4.6,8.6-9,11.3c-2.7,1.6-5.9,3.3-6.7,6.7h15.4L127.4,397.2L127.4,397.2z"
		/>
</g>
<g class="st6">
	<path d="M159,397.2h-19.5c0.4-6.9,3.7-9.3,8.9-12.6c3.2-2,7.1-4.2,7.1-8.6c0-3.3-2.4-5.7-5.8-5.7c-4.5,0-5.8,3.8-5.8,7.5h-3.6V377
		c0-5.9,3.8-9.9,9.6-9.9c5.7,0,9.3,3.4,9.3,8.7c0,5.8-4.6,8.6-9,11.3c-2.7,1.6-5.9,3.3-6.7,6.7H159V397.2z"/>
	<path d="M170.4,367.2c5.3,0,8.8,3.1,8.8,7.8c0,2.8-1.5,5.2-4.1,6.3c3.4,0.8,5.5,3.6,5.5,7.2c0,5.6-4.2,9.3-10.4,9.3
		c-6,0-10-3.6-10-9.3V388h3.6c0.2,4.3,2.5,6.7,6.5,6.7c3.8,0,6.5-2.4,6.5-5.8c0-3.5-2.6-5.8-6.6-5.8c-0.7,0-1.1,0-1.9,0.2v-3
		c0.6,0,0.8,0,1.2,0c3.7,0,6-1.9,6-4.9s-2.1-4.9-5.2-4.9c-3.6,0-5.7,2.4-5.8,6.6H161C161,370.7,164.5,367.2,170.4,367.2z"/>
</g>
<g class="st6">
	<path d="M210.2,397.2h-19.5c0.4-6.9,3.7-9.3,8.9-12.6c3.2-2,7.1-4.2,7.1-8.6c0-3.3-2.4-5.7-5.8-5.7c-4.5,0-5.8,3.8-5.8,7.5h-3.6
		V377c0-5.9,3.8-9.9,9.6-9.9c5.7,0,9.3,3.4,9.3,8.7c0,5.8-4.6,8.6-9,11.3c-2.7,1.6-5.9,3.3-6.7,6.7h15.4v3.4H210.2z"/>
	<path d="M231.9,389.9h-4.1v7.2h-3.4v-7.2h-13.2v-3.4l13.6-19.4h2.9v19.7h4.1L231.9,389.9L231.9,389.9z M224.5,372.5l-10,14.4h10
		V372.5z"/>
</g>
<g class="st6">
	<path d="M263.1,397.2h-19.5c0.4-6.9,3.7-9.3,8.9-12.6c3.2-2,7.1-4.2,7.1-8.6c0-3.3-2.4-5.7-5.8-5.7c-4.5,0-5.8,3.8-5.8,7.5h-3.6
		V377c0-5.9,3.8-9.9,9.6-9.9c5.7,0,9.3,3.4,9.3,8.7c0,5.8-4.6,8.6-9,11.3c-2.7,1.6-5.9,3.3-6.7,6.7H263v3.4H263.1z"/>
	<path d="M282.6,370.9h-12.1l-1.8,8.9c1.6-1.8,3.6-2.4,6-2.4c5.6,0,9.5,4,9.5,9.8c0,6-4.1,10.5-10.4,10.5c-5.7,0-9.5-3.4-9.7-8.7
		h3.6c0.3,3.3,2.7,5.6,6.1,5.6c3.7,0,6.5-3,6.5-7.1s-2.7-7.1-6.6-7.1c-2.5,0-4.4,1-5.8,2.9l-3.1-0.2l2.8-15.6h14.8v3.4H282.6z"/>
</g>
<g class="st6">
	<path class="st7" d="M314.1,397.2h-19.5c0.4-6.9,3.7-9.3,8.9-12.6c3.2-2,7.1-4.2,7.1-8.6c0-3.3-2.4-5.7-5.8-5.7
		c-4.5,0-5.8,3.8-5.8,7.5h-3.6V377c0-5.9,3.8-9.9,9.6-9.9c5.7,0,9.3,3.4,9.3,8.7c0,5.8-4.6,8.6-9,11.3c-2.7,1.6-5.9,3.3-6.7,6.7H314
		v3.4H314.1z"/>
	<path class="st7" d="M331.5,375c-0.4-2.8-2-4.7-5.1-4.7c-6.4,0-7,7.5-7.2,11.6c1.6-2.7,4.3-3.9,7.4-3.9c5.6,0,9.3,3.8,9.3,9.6
		c0,5.8-3.8,10.2-9.9,10.2c-8.7,0-10.4-7.9-10.4-14.9c0-7.2,2-15.7,10.9-15.7c5,0,8.2,2.9,8.6,7.8H331.5z M320,387.7
		c0,4.1,2.5,6.8,6.2,6.8c3.6,0,6-2.6,6-6.6c0-4.2-2.4-6.8-6.1-6.8S320,383.8,320,387.7z"/>
</g>
<g class="st6">
	<path d="M365.8,397.2h-19.5c0.4-6.9,3.7-9.3,8.9-12.6c3.2-2,7.1-4.2,7.1-8.6c0-3.3-2.4-5.7-5.8-5.7c-4.5,0-5.8,3.8-5.8,7.5H347V377
		c0-5.9,3.8-9.9,9.6-9.9c5.7,0,9.3,3.4,9.3,8.7c0,5.8-4.6,8.6-9,11.3c-2.7,1.6-5.9,3.3-6.7,6.7h15.4v3.4H365.8z"/>
	<path d="M387,370.8c-5.8,6.6-10.2,15-11.5,26.4h-4c0.7-9.6,5.4-19,11.8-26h-15.7v-3.4H387V370.8z"/>
</g>
<g class="st6">
	<path d="M418.8,397.2h-19.5c0.4-6.9,3.7-9.3,8.9-12.6c3.2-2,7.1-4.2,7.1-8.6c0-3.3-2.4-5.7-5.8-5.7c-4.5,0-5.8,3.8-5.8,7.5h-3.6
		V377c0-5.9,3.8-9.9,9.6-9.9c5.7,0,9.3,3.4,9.3,8.7c0,5.8-4.6,8.6-9,11.3c-2.8,1.6-5.9,3.3-6.7,6.7h15.4v3.4H418.8z"/>
	<path d="M421.2,374.8c0-4.5,3.7-7.7,8.9-7.7c5.2,0,8.8,3.1,8.8,7.5c0,3-1.4,5.2-4.1,6.5c3.5,1.2,5.3,3.7,5.3,7.3
		c0,5.7-3.9,9.3-10.2,9.3c-6,0-9.9-3.6-9.9-9.1c0-3.6,1.9-6.3,5.3-7.6C422.7,380,421.2,377.8,421.2,374.8z M423.8,388.6
		c0,3.6,2.6,6.1,6.3,6.1c3.7,0,6.3-2.5,6.3-6s-2.6-6-6.4-6C426.4,382.7,423.8,385.2,423.8,388.6z M424.8,375.1
		c0,2.8,2.1,4.7,5.2,4.7s5.2-1.9,5.2-4.7c0-2.9-2-4.7-5.2-4.7S424.8,372.3,424.8,375.1z"/>
</g>
<g class="st6">
	<path d="M106.9,446.9H87.3c0.4-6.9,3.7-9.3,8.9-12.6c3.2-2,7.1-4.2,7.1-8.6c0-3.3-2.4-5.7-5.8-5.7c-4.5,0-5.8,3.8-5.8,7.5h-3.6
		v-0.8c0-5.9,3.8-9.9,9.6-9.9c5.7,0,9.3,3.4,9.3,8.7c0,5.8-4.6,8.6-9,11.3c-2.7,1.6-5.9,3.3-6.7,6.7h15.4v3.4H106.9z"/>
	<path d="M112.5,439.7c0.4,2.9,2.5,4.7,5.5,4.7c5.2,0,6.3-5.7,6.7-9.8c0.1-0.9,0.1-1.2,0.1-2c-1.7,2.8-4,4.1-7.3,4.1
		c-5.5,0-9.2-3.9-9.2-9.7c0-6,4-10.1,9.9-10.1c8.7,0,10.3,7.8,10.3,14.6c0,6.8-2,15.9-10.6,15.9c-5,0-8.6-2.9-8.9-7.8L112.5,439.7
		L112.5,439.7z M112.1,426.9c0,3.6,2,6.6,5.9,6.6c3.7,0,6.1-2.6,6.1-6.6c0-4.1-2.5-6.8-6.1-6.8C114.5,420.2,112.1,422.8,112.1,426.9
		z"/>
</g>
<g class="st6">
	<path d="M149.8,417c5.3,0,8.8,3.1,8.8,7.8c0,2.8-1.5,5.2-4.1,6.3c3.4,0.8,5.5,3.6,5.5,7.2c0,5.6-4.2,9.3-10.4,9.3
		c-6,0-10-3.6-10-9.3v-0.5h3.6c0.2,4.3,2.5,6.7,6.5,6.7c3.8,0,6.5-2.4,6.5-5.8c0-3.5-2.6-5.8-6.6-5.8c-0.7,0-1.1,0-1.9,0.2v-3
		c0.6,0,0.8,0,1.2,0c3.7,0,6-1.9,6-4.9s-2.1-4.9-5.2-4.9c-3.6,0-5.7,2.4-5.8,6.6h-3.5C140.5,420.5,143.9,417,149.8,417z"/>
	<path d="M180.7,432.7c0,7.1-1.3,14.8-9.9,14.8c-9.1,0-10.2-7.8-10.2-14.9s0.7-15.7,10-15.7C180,417,180.7,425.5,180.7,432.7z
		 M164.5,432.6c0,4.4,0.1,11.8,6.3,11.8c6.1,0,6.1-7.6,6.1-11.9c0-4.4,0.1-12.3-6.2-12.3S164.5,428,164.5,432.6z"/>
</g>
<g class="st6">
	<path d="M201,417c5.3,0,8.8,3.1,8.8,7.8c0,2.8-1.5,5.2-4.1,6.3c3.4,0.8,5.5,3.6,5.5,7.2c0,5.6-4.2,9.3-10.4,9.3c-6,0-10-3.6-10-9.3
		v-0.5h3.6c0.2,4.3,2.5,6.7,6.5,6.7c3.8,0,6.5-2.4,6.5-5.8c0-3.5-2.6-5.8-6.6-5.8c-0.7,0-1.1,0-1.9,0.2v-3c0.6,0,0.8,0,1.2,0
		c3.7,0,6-1.9,6-4.9s-2.1-4.9-5.2-4.9c-3.6,0-5.7,2.4-5.8,6.6h-3.5C191.7,420.5,195.1,417,201,417z"/>
	<path d="M225.3,446.9h-3.9v-21.7h-7.5v-2.7c4.4,0,7.6-1.1,8.6-5.5h2.8L225.3,446.9L225.3,446.9z"/>
</g>
<circle class="st3" cx="262.4" cy="282.4" r="33.2"/>
<circle class="st3" cx="158.7" cy="332.2" r="33.2"/>
<circle class="st3" cx="314.4" cy="382" r="33.2"/>
<line class="st3" x1="291.8" y1="267.9" x2="517.7" y2="243.9"/>
<line class="st3" x1="345.2" y1="369.5" x2="517.7" y2="243.9"/>
<line class="st3" x1="189.6" y1="344.4" x2="517.7" y2="243.9"/>
<ellipse class="st1" cx="616" cy="214.4" rx="107.3" ry="76.7"/>
<g class="st6">
	<path d="M588.2,226.6c10.7,0,15.8,4.7,15.8,15.6c0,10.4-4.2,16.2-15,16.2h-11.1v-31.8L588.2,226.6L588.2,226.6z M582,254.8h6.4
		c8,0,11.4-3.9,11.4-12.1c0-8.5-2.9-12.5-11.6-12.5H582V254.8z"/>
	<path d="M629,258.3c-0.8,0.3-1.7,0.4-2.6,0.4c-2.1,0-3.3-1.2-3.3-3.4c-2.3,2.5-4.8,3.7-8.3,3.7c-4.6,0-7.4-2.5-7.4-6.5
		c0-4.1,2.7-6.5,8.2-7.2s7.4-0.5,7.4-3.7c0-2.5-1.8-3.8-5.2-3.8c-3.5,0-5.4,1.3-5.7,4.7h-3.7c0.1-4.9,3.7-7.8,9.6-7.8
		c3.1,0,5.7,0.8,7.2,2.2c1.6,1.6,1.6,3.9,1.6,6c0,3.4-0.2,6.8-0.2,10.3c0,1.7,0.4,2.3,1.6,2.3c0.4,0,0.5,0,0.9-0.1L629,258.3
		L629,258.3z M617.8,247.8c-2.8,0.4-6.5,0.7-6.5,4.4c0,2.4,1.7,3.8,4.6,3.8c3.6,0,7-2.5,7-5.4v-4.2
		C621.5,247.5,619.5,247.6,617.8,247.8z"/>
	<path d="M641.8,261.3c-1.2,3.3-2.5,6.3-6.7,6.3c-1,0-1.9-0.2-2.8-0.4v-3.4c1.2,0.4,1.8,0.5,2.5,0.5c1.3,0,2.2-0.8,2.7-1.9l1.8-4.2
		l-9.2-22.9h4.3l6.8,18.4l6.5-18.4h4L641.8,261.3z"/>
</g>
<image style="overflow:visible;enable-background:new    ;" width="351" height="71" xlink:href="4870069A4CBF025F.png"  transform="matrix(0.4886 0 0 0.4831 529.4565 179.894)">
</image>
</svg>
