<?xml version="1.0" encoding="utf-8"?>
<!-- Generator: Adobe Illustrator 21.0.2, SVG Export Plug-In . SVG Version: 6.00 Build 0)  -->
<svg version="1.1" id="Layer_1" xmlns="http://www.w3.org/2000/svg" xmlns:xlink="http://www.w3.org/1999/xlink" x="0px" y="0px"
	 viewBox="0 0 880.9 820.6" style="enable-background:new 0 0 880.9 820.6;" xml:space="preserve">
<style type="text/css">
	.st0{display:none;opacity:0.23;}
	.st1{fill:#F5F5F5;}
	.st2{fill:url(#SVGID_1_);}
	.st3{fill:#FFFFFF;stroke:#000000;stroke-width:0.5;stroke-miterlimit:10;}
	.st4{fill:#1A1A1A;}
	.st5{fill:#F2F2F2;stroke:#000000;stroke-width:0.5;stroke-miterlimit:10;}
	.st6{fill:#1A1A1A;stroke:#000000;stroke-width:0.5;stroke-miterlimit:10;}
	.st7{fill:#EB058C;stroke:#000000;stroke-width:0.5;stroke-miterlimit:10;}
	.st8{fill:#CCCCCC;stroke:#000000;stroke-width:0.5;stroke-miterlimit:10;}
	.st9{fill:#0077BF;stroke:#000000;stroke-width:0.5;stroke-miterlimit:10;}
	.st10{fill:none;stroke:#000000;stroke-width:0.5;stroke-miterlimit:10;}
	.st11{fill:url(#SVGID_2_);}
	.st12{fill:#FFE600;stroke:#000000;stroke-width:0.5;stroke-miterlimit:10;}
	.st13{fill:url(#SVGID_3_);}
	.st14{fill:url(#SVGID_4_);}
	.st15{fill:#757575;stroke:#000000;stroke-width:0.5;stroke-miterlimit:10;}
	.st16{fill:#D3D3D3;stroke:#000000;stroke-width:0.5;stroke-miterlimit:10;}
	.st17{fill:url(#SVGID_5_);}
	.st18{fill:url(#SVGID_6_);}
	.st19{fill:url(#SVGID_7_);}
	.st20{fill:url(#SVGID_8_);}
	.st21{fill:url(#SVGID_9_);}
	.st22{fill:url(#SVGID_10_);}
	.st23{fill:#5E5E5E;stroke:#000000;stroke-width:0.5;stroke-miterlimit:10;}
	.st24{fill:url(#SVGID_11_);}
	.st25{fill:url(#SVGID_12_);}
	.st26{fill:url(#SVGID_13_);}
	.st27{fill:url(#SVGID_14_);}
	.st28{fill:url(#SVGID_15_);}
	.st29{fill:url(#SVGID_16_);}
	.st30{display:none;}
	.st31{display:inline;fill:#FFFFFF;stroke:#000000;stroke-width:0.5;stroke-miterlimit:10;}
	.st32{display:inline;fill:#1A1A1A;stroke:#000000;stroke-width:0.5;stroke-miterlimit:10;}
	.st33{display:inline;fill:#CCCCCC;stroke:#000000;stroke-width:0.5;stroke-miterlimit:10;}
	.st34{display:inline;fill:#EB058C;stroke:#000000;stroke-width:0.5;stroke-miterlimit:10;}
	.st35{display:inline;fill:#0077BF;stroke:#000000;stroke-width:0.5;stroke-miterlimit:10;}
	.st36{display:inline;fill:none;stroke:#000000;stroke-width:0.5;stroke-miterlimit:10;}
	.st37{display:inline;fill:#FFE600;stroke:#000000;stroke-width:0.5;stroke-miterlimit:10;}
	.st38{fill:#BFBFBF;stroke:#000000;stroke-width:0.5;stroke-miterlimit:10;}
	.st39{fill:#9B9B9B;stroke:#000000;stroke-width:0.5;stroke-miterlimit:10;}
</style>
<g id="H94OYf_1_" class="st0">
	
		<image style="display:inline;overflow:visible;enable-background:new    ;" width="907" height="484" id="H94OYf_2_" xlink:href="2A533320345F152A.jpeg"  transform="matrix(1.4101 0 0 1.4101 -188.8272 112.988)">
	</image>
</g>
<path class="st1" d="M214.5,72.4C129.1,145.7-1.4,319.8,107.2,529c160.6,309.4,566.7,248,692.4,155.1
	c96.5-71.4,63.1-255.1-81.9-272.1c-145.5-17-104.2-146.6-174.1-289.4C487.6,8.2,368-59.6,214.5,72.4z"/>
<g>
	
		<linearGradient id="SVGID_1_" gradientUnits="userSpaceOnUse" x1="393.9" y1="496.1105" x2="600.1" y2="496.1105" gradientTransform="matrix(1 0 0 1 0 -80)">
		<stop  offset="1.241987e-03" style="stop-color:#FFFFFF;stop-opacity:0.5"/>
		<stop  offset="1" style="stop-color:#CCCCCC"/>
	</linearGradient>
	<polygon class="st2" points="559.9,468 600.1,468 589.8,451.1 398.9,364.3 393.9,368.3 	"/>
	<g id="Layer_8">
		<path class="st3" d="M586.1,308.1c0,0.1,0.1,0.2,0,0.4c0,0.1-0.1,0.2-0.2,0.3c-1.2,1-2.4,1.8-3.8,2.5c-0.8,0.4-1.8,0.8-2.6,0.4
			c-0.5-0.3-0.9-0.7-1.1-1.2l-1.3-2.1c0.8-0.4,0.9-1.4,1-2.3c0-1.1,0-2.3-0.1-3.4c2-1.1,4.3-1.7,6.6-1.7c0.8,0,1.2,0.2,1.1,1
			s-0.2,1.4-0.2,2.1C585.6,305.4,585.7,306.8,586.1,308.1z"/>
		<path class="st4" d="M576.4,459.7v8.1h-1.2l-0.9-3.4l-2.1,3.4h-11.9c4.6-1,8.5-3.9,10.7-8.1H576.4z"/>
		<path class="st4" d="M584.3,459.7v8.1h1.2l0.9-3.4l2.1,3.4h11.9c-4.6-1-8.5-3.9-10.7-8.1H584.3z"/>
		<path class="st5" d="M583.9,459.7h5c0,0,10.2-71.8,9.4-88.5c-0.5-10.5-6.4-16-6.4-16h-23.2c0,0-5.8,5.5-6.4,16
			c-0.8,16.7,9.4,88.5,9.4,88.5h5c0,0,1.6-86.7,3.6-85.8C580.3,373.9,585,407.6,583.9,459.7z"/>
		<path class="st6" d="M565.4,306.7L565.4,306.7c1.4-0.3,2.8-0.3,4.3-0.9c0.2-0.1,1.2-0.7,2.2-1.3l1.6-1.3l0.5-1.5l0.1,0.1
			c0.8-2.2,1-4.5,0.7-6.8c0-0.1,0-0.2,0-0.3c-0.6-0.8-1-1.8-1.2-2.8c-0.1-0.3-0.2-0.7-0.5-0.7c-1-0.1-1.5-1.9-1.7-3
			c1.7-1.3,3.9-2.1,5.7-3.1c1.6-0.9,4.7-3.1,4.8-3l0,0c1-0.5,2-0.9,2.9-1.5c0.7-0.5,3.6-1.8,3.5-2.9c0.1,1.2,0.7,2.2,1,3.3
			c0.4,1.2,0.9,2.4,1.1,3.7c0.5,2.4,0.5,5.1-0.3,7.5c-0.6,1.9-1.8,3.4-3.2,4.7c-0.2,1.5-0.1,3.1,0.1,4.6v0.1l0,0l0.5,1.5l1.9,1.5
			c0.2,0.1,0.3,0.3,0.4,0.5c2.3,0.9,5.4,1.6,5.8,1.7c2,0.6,3.6,1.2,4.9,2.2c-0.6-3-1.4-5.9-2.2-8.8c-0.7-2.7-1.7-5.4-2.5-8.1
			c-0.8-2.5-0.3-4.7-0.6-7.3c-0.8-7.6-4.6-13.3-12.3-14.5c-7.2-1.1-13.2,4.8-14.1,11.7c-0.1,0.8-0.2,1.7-0.2,2.5
			c0,2.3,0.1,4.6-0.3,7c-0.6,3.4-1.4,6.7-2.6,10c-0.6,1.6-1.8,3.9-3,6.3c0.2-0.1,0.4-0.2,0.6-0.3
			C563.9,307.1,564.7,306.8,565.4,306.7z"/>
		<path class="st7" d="M553.4,357.2l10.8-32.5c0,0-0.8-2.1,3.7,17.2c1.3,5.4-2.3,14.7-3.2,19.7c0,0,19.6,6.6,31-0.8
			c-1.7-2.2-4.3-10.1-4.1-17.9c0.2-6,2.8-11.8,3.7-15.5c0.9-3.5,0.9-3.5,0.9-3.5l10.7,33.4l4.8-0.7c-5.5-35.4-11.2-47.5-11.2-47.5
			c-3.3-1.9-12.9-5.8-12.9-5.8c-2.6,1.9-5.6,1.3-8.5,0.2c-2-1.6-16.4,2.6-18.3,4.9c-5.8,17-11.2,48.3-11.2,48.3L553.4,357.2z"/>
		<path class="st7" d="M567.2,326.7c0,0,3.2,6.6,10.7,3"/>
		<path class="st7" d="M594.4,326.7c0,0-3.2,6.6-10.7,3"/>
		<path class="st3" d="M607.3,357.2c-4.4,3.6,0.4,3,0.4,3s2.2,5.8,3.7,5.6c2-0.3-0.1-9.2-0.1-9.2L607.3,357.2z"/>
		<path class="st3" d="M549.5,356.5c0,0-2.1,8.9-0.1,9.2c1.5,0.3,3.7-5.6,3.7-5.6s4.8,0.6,0.4-3L549.5,356.5z"/>
		<g id="Layer_7_1_">
			<path class="st3" d="M580.5,307.7c1,0,3.8-1.8,5.3-3.8l1.2-2.1v-0.1c-0.3-1.5-0.3-3.1-0.1-4.6c-0.2,0.2-0.5,0.4-0.7,0.6l-0.4,0.3
				c-1.3,1.2-2.7,1.8-4,1.7c-1.3,0-2.6-0.5-4-1.7l-0.4-0.3c-1-0.9-1.9-1.8-2.7-2.9c0,0.1,0,0.2,0,0.3c0.3,2.3,0,4.6-0.7,6.8l1.1,2
				C576.5,305.8,579.5,307.7,580.5,307.7z"/>
			<path class="st3" d="M577.5,297.7l0.4,0.3c1.3,1.2,2.7,1.8,4,1.7c1.3,0,2.6-0.5,4-1.7l0.4-0.3c0.2-0.2,0.5-0.4,0.7-0.6
				c1.4-1.3,2.6-2.8,3.2-4.7c0.8-2.3,0.8-5.1,0.3-7.5c-0.2-1.3-0.8-2.5-1.1-3.7c-0.3-1.1-0.9-2.1-1-3.3c0.1,1-2.8,2.4-3.5,2.9
				c-0.9,0.6-1.9,1-2.9,1.5l0,0c-0.1,0-3.2,2.2-4.8,3c-1.8,1-4.1,1.7-5.7,3.1c0.2,1.1,0.7,2.9,1.7,3c0.3,0,0.5,0.4,0.5,0.7
				c0.2,1,0.6,1.9,1.2,2.8C575.6,295.8,576.5,296.8,577.5,297.7z"/>
			<path class="st8" d="M583.1,311.5l-0.8-1l-0.6,1.2c-0.1,0.3-0.2,0.6-0.1,0.8l1.1,5.1l0.7-2.3l0.7-2.2l-0.4-0.8
				C583.6,312,583.3,311.8,583.1,311.5z"/>
			<path class="st8" d="M577.3,312.4l-0.4,0.8l0.7,2.2l0.7,2.3l1.1-5.1c0.1-0.3,0-0.6-0.1-0.8l-0.6-1.2l-0.8,1
				C577.7,311.8,577.5,312,577.3,312.4z"/>
			<path class="st9" d="M582.7,317.7l-1.1-5.1c-0.1-0.3,0-0.6,0.1-0.8l0.6-1.2l-1.8-2.3l-1.8,2.3l0.6,1.2c0.1,0.3,0.2,0.6,0.1,0.8
				l-1.1,5.1l1.4,4.6c0.5,0,1.1,0,1.6,0L582.7,317.7z"/>
			<path class="st3" d="M587,301.7l-1.2,2.1c-1.5,2-4.3,3.8-5.3,3.8s-4-1.9-5.3-3.8l-1.1-2l-0.1-0.1l-0.5,1.5l0,0l3.3,9.9l0.4-0.8
				c0.2-0.3,0.4-0.6,0.6-0.9l0.8-1l1.8-2.3l1.8,2.3l0.8,1c0.2,0.3,0.4,0.6,0.6,0.9l0.4,0.8l3.3-9.9l0,0L587,301.7L587,301.7z"/>
			<path class="st3" d="M590.7,315.7l-2.5-4.5l3.4,0.4c-0.3-0.9-0.9-5-1.7-6.4c-0.1-0.2-0.2-0.4-0.4-0.5l-1.9-1.5l0,0l-3.3,9.9
				l-0.7,2.2l-0.7,2.3l-4.1,17L590.7,315.7z"/>
			<path class="st3" d="M580.8,325.5l-2.5-7.8l-0.7-2.3l-0.7-2.2l-3.3-9.9l0,0l-1.6,1.3l-0.3,0.2c-1,0.5-1.8,5.8-2.1,6.9l3.4-0.4
				l-2.5,4.5c-0.1,0.2,7.2,11.1,9.3,14.3L580.8,325.5z"/>
			<path class="st10" d="M585.3,286.5c1-0.4,2.1-0.4,3.1,0"/>
			<path class="st10" d="M577,286.5c1-0.4,2.1-0.4,3.1,0"/>
			<circle class="st6" cx="586.7" cy="288.3" r="0.8"/>
			<circle class="st6" cx="578.9" cy="288.3" r="0.8"/>
			<path class="st10" d="M579.7,294.5c0,0,2.6,2.5,5.3,0.2"/>
			<path class="st10" d="M583.4,287.6c-0.2,0.8-0.2,1.6-0.1,2.3c0.1,0.6,0.3,1.2,0.4,1.7c0.1,0.3,0.1,0.6,0,0.9s-0.4,0.4-0.7,0.3
				l0,0"/>
		</g>
	</g>
</g>
<g>
	
		<linearGradient id="SVGID_2_" gradientUnits="userSpaceOnUse" x1="230.9" y1="443.7105" x2="422.8" y2="443.7105" gradientTransform="matrix(1 0 0 1 0 -80)">
		<stop  offset="1.241987e-03" style="stop-color:#FFFFFF;stop-opacity:0.5"/>
		<stop  offset="1" style="stop-color:#CCCCCC"/>
	</linearGradient>
	<polygon class="st11" points="385.5,412 422.8,412 413.2,396.2 235.6,315.5 230.9,319.2 	"/>
	<g id="Layer_8_1_">
		<path class="st3" d="M409.5,263.1c0,0.1,0.1,0.2,0,0.3c0,0.1-0.1,0.2-0.2,0.3c-1.1,0.9-2.3,1.7-3.5,2.3c-0.7,0.4-1.6,0.7-2.4,0.4
			c-0.4-0.3-0.8-0.7-1-1.2l-1.2-2c0.7-0.4,0.9-1.3,0.9-2.1c0-1.1,0-2.1,0-3.2c1.9-1.1,4-1.6,6.2-1.6c0.7,0,1.1,0.2,1,0.9
			c-0.1,0.8-0.2,1.3-0.2,2C409,260.6,409.2,261.9,409.5,263.1z"/>
		<path class="st4" d="M400.5,404.4v7.6h-1.1l-0.8-3.2l-2,3.2h-11.1c4.3-0.9,7.9-3.7,9.9-7.6H400.5z"/>
		<path class="st4" d="M407.8,404.4v7.6h1.1l0.8-3.2l2,3.2h11.1c-4.3-0.9-7.9-3.7-9.9-7.6H407.8z"/>
		<path class="st5" d="M407.5,404.4h4.6c0,0,9.5-66.9,8.8-82.4c-0.5-9.8-5.9-14.9-5.9-14.9h-21.6c0,0-5.4,5.1-5.9,14.9
			c-0.8,15.5,8.8,82.4,8.8,82.4h4.6c0,0,1.5-80.8,3.4-80C404.2,324.4,408.5,355.8,407.5,404.4z"/>
		<path class="st6" d="M390.2,261.8L390.2,261.8c1.3-0.3,2.6-0.3,4-0.9c0.2-0.1,1.1-0.6,2-1.2l1.5-1.2l0.5-1.4l0.1,0.1
			c0.7-2,1-4.2,0.7-6.3c0-0.1,0-0.2,0-0.3c-0.5-0.8-0.9-1.6-1.1-2.6c-0.1-0.3-0.2-0.6-0.5-0.7c-1-0.1-1.4-1.7-1.6-2.8
			c1.5-1.2,3.6-1.9,5.3-2.9c1.5-0.8,4.4-2.9,4.4-2.8l0,0c1-0.5,1.9-0.8,2.7-1.4c0.7-0.5,3.4-1.7,3.3-2.7c0.1,1.1,0.7,2,1,3.1
			c0.3,1.2,0.8,2.3,1,3.5c0.4,2.2,0.5,4.8-0.3,7c-0.6,1.7-1.7,3.1-3,4.4c-0.2,1.4-0.1,2.9,0.1,4.3v0.1l0,0l0.5,1.4l1.7,1.4
			c0.2,0.1,0.3,0.3,0.4,0.4c2.2,0.8,5,1.5,5.4,1.6c1.9,0.6,3.4,1.1,4.5,2c-0.6-2.8-1.3-5.5-2.1-8.2c-0.7-2.6-1.5-5-2.3-7.6
			c-0.7-2.4-0.3-4.4-0.5-6.8c-0.7-7.1-4.3-12.4-11.5-13.5c-6.7-1.1-12.3,4.5-13.2,10.9c-0.1,0.8-0.2,1.6-0.2,2.4
			c0,2.1,0.1,4.3-0.2,6.5c-0.5,3.2-1.3,6.3-2.4,9.3c-0.5,1.5-1.7,3.6-2.8,5.9c0.2-0.1,0.3-0.2,0.5-0.3
			C388.9,262.2,389.6,261.9,390.2,261.8z"/>
		<path class="st12" d="M379,308.9l10.1-30.3c0,0-0.8-2,3.4,16c1.2,5.1-2.1,13.7-3,18.3c0,0,18.2,6.1,28.9-0.7
			c-1.6-2.1-4-9.4-3.8-16.7c0.1-5.5,2.6-11,3.4-14.4c0.8-3.3,0.8-3.3,0.8-3.3l10,31.1l4.5-0.6c-5.1-33-10.4-44.2-10.4-44.2
			c-3.1-1.8-12-5.4-12-5.4c-2.4,1.7-5.2,1.2-8,0.2c-1.9-1.5-15.2,2.4-17.1,4.5c-5.4,15.9-10.4,45-10.4,45L379,308.9z"/>
		<path class="st10" d="M391.9,280.4c0,0,3,6.2,10,2.8"/>
		<path class="st10" d="M417.3,280.4c0,0-3,6.2-10,2.8"/>
		<path class="st3" d="M429.3,308.9c-4.1,3.4,0.4,2.8,0.4,2.8s2,5.4,3.4,5.2c1.9-0.3-0.1-8.6-0.1-8.6L429.3,308.9z"/>
		<path class="st3" d="M375.4,308.2c0,0-2,8.3-0.1,8.6c1.4,0.2,3.4-5.2,3.4-5.2s4.5,0.6,0.4-2.8L375.4,308.2z"/>
		<g id="Layer_7_3_">
			<path class="st3" d="M404.3,262.7c1,0,3.6-1.7,5-3.6l1.1-2V257c-0.2-1.4-0.3-2.8-0.1-4.3c-0.2,0.2-0.4,0.4-0.6,0.6l-0.3,0.3
				c-1.2,1.1-2.5,1.6-3.7,1.6s-2.5-0.5-3.7-1.6l-0.3-0.3c-0.9-0.8-1.8-1.7-2.5-2.7c0,0.1,0,0.2,0,0.3c0.3,2.1,0,4.3-0.7,6.3l1.1,1.9
				C400.6,260.9,403.4,262.7,404.3,262.7z"/>
			<path class="st3" d="M401.5,253.4l0.3,0.3c1.2,1.1,2.5,1.6,3.7,1.6s2.5-0.5,3.7-1.6l0.3-0.3c0.2-0.2,0.4-0.4,0.6-0.6
				c1.3-1.3,2.4-2.7,3-4.4c0.7-2.2,0.7-4.7,0.3-7c-0.2-1.2-0.7-2.3-1-3.5c-0.3-1-0.8-2-1-3.1c0.1,0.9-2.6,2.2-3.3,2.7
				c-0.8,0.6-1.8,0.9-2.7,1.4l0,0c-0.1,0-3,2-4.4,2.8c-1.7,0.9-3.8,1.6-5.3,2.9c0.2,1,0.6,2.7,1.6,2.8c0.3,0,0.5,0.4,0.5,0.7
				c0.2,0.9,0.5,1.8,1.1,2.6C399.7,251.7,400.6,252.6,401.5,253.4z"/>
			<path class="st8" d="M406.7,266.3l-0.7-0.9l-0.6,1.1c-0.1,0.2-0.2,0.5-0.1,0.8l1.1,4.8l0.7-2.2l0.7-2.1l-0.4-0.7
				C407.2,266.8,407,266.5,406.7,266.3z"/>
			<path class="st8" d="M401.3,267.1l-0.4,0.7l0.7,2.1l0.7,2.2l1.1-4.8c0.1-0.3,0-0.5-0.1-0.8l-0.6-1.1l-0.7,0.9
				C401.7,266.5,401.5,266.8,401.3,267.1z"/>
			<path class="st9" d="M406.4,272l-1.1-4.8c-0.1-0.3,0-0.5,0.1-0.8l0.6-1.1l-1.7-2.1l-1.7,2.1l0.6,1.1c0.1,0.2,0.2,0.5,0.1,0.8
				l-1,4.8l1.3,4.3c0.5,0,1,0,1.5,0L406.4,272z"/>
			<path class="st3" d="M410.4,257.2l-1.1,2c-1.4,1.9-4,3.5-5,3.6c-1,0-3.7-1.8-5-3.6l-1.1-1.9l-0.1-0.1l-0.5,1.4l0,0l3.1,9.3
				l0.4-0.7c0.2-0.3,0.4-0.6,0.6-0.8l0.7-0.9l1.7-2.1l1.7,2.1l0.7,0.9c0.2,0.3,0.4,0.5,0.6,0.8l0.4,0.7l3.1-9.3l0,0L410.4,257.2
				L410.4,257.2z"/>
			<path class="st3" d="M413.8,270.2l-2.3-4.2l3.2,0.3c-0.3-0.9-0.9-4.7-1.6-6c-0.1-0.2-0.2-0.3-0.4-0.4l-1.7-1.4l0,0l-3.1,9.3
				l-0.7,2.1l-0.7,2.2l-3.8,15.8L413.8,270.2z"/>
			<path class="st3" d="M404.6,279.3l-2.3-7.3l-0.7-2.2l-0.7-2.1l-3.1-9.3l0,0l-1.5,1.2l-0.3,0.2c-0.9,0.5-1.7,5.4-2,6.4l3.2-0.3
				l-2.3,4.2c-0.1,0.2,6.7,10.4,8.7,13.4L404.6,279.3z"/>
			<path class="st10" d="M408.8,243c0.9-0.4,2-0.4,2.9,0"/>
			<path class="st10" d="M401,243c0.9-0.4,2-0.4,2.9,0"/>
			<circle class="st6" cx="410.1" cy="244.7" r="0.8"/>
			<circle class="st6" cx="402.9" cy="244.7" r="0.8"/>
			<path class="st10" d="M403.5,250.4c0,0,2.4,2.3,5,0.2"/>
			<path class="st10" d="M407,244c-0.2,0.7-0.2,1.4-0.1,2.2c0.1,0.5,0.3,1.1,0.4,1.6c0.1,0.3,0.1,0.6,0,0.8
				c-0.1,0.3-0.4,0.4-0.7,0.3l0,0"/>
		</g>
	</g>
</g>
<g>
	
		<linearGradient id="SVGID_3_" gradientUnits="userSpaceOnUse" x1="275.8" y1="577.3605" x2="506.9" y2="577.3605" gradientTransform="matrix(1 0 0 1 0 -80)">
		<stop  offset="1.241987e-03" style="stop-color:#FFFFFF;stop-opacity:0.5"/>
		<stop  offset="1" style="stop-color:#CCCCCC"/>
	</linearGradient>
	<polygon class="st13" points="461.9,555.5 506.9,555.5 495.4,536.5 281.5,439.3 275.8,443.7 	"/>
	<g id="Layer_9">
		<path class="st9" d="M495.7,549.5l14.5-112.3l-5.4-11.9l-31-2.6l-6.9,15.2l8.2,111.6h6l6.7-99.2c0,0,1.4-2.4,3.2,0l-2.1,99.2
			H495.7z"/>
		<path class="st3" d="M443.1,439.7l9.3-32.4l13.1-31.6c0,0,1.5-2,17.7-4.3c0,0,9.9,5.6,14.4,0.5l13.7,2.6l12.6,35.4l5,30.5h-6
			l-12.7-39.1c0,0-0.1,21.4,0.5,39.1c0,0-18.2,5.1-43.9-2.4l-1.6-32.6l-16,34.5h-6.1"/>
		<path class="st3" d="M449.3,439.7c3.9,5.9-1.8,3.8-1.8,3.8s-3.2,8.3-4.9,8.2c-2.3-0.2,0.5-12,0.5-12H449.3z"/>
		<path class="st3" d="M529.1,440.3c0,0,2.8,11.8,0.5,12c-1.7,0.1-4.9-8.2-4.9-8.2s-5.7,2-1.8-3.8H529.1z"/>
		<polygon class="st4" points="481.5,549.5 481.5,555.3 478.3,555.3 478.3,553.9 476.3,555.3 461.6,555.3 461.6,555.3 474.7,549.5 
					"/>
		<polygon class="st4" points="488.8,549.5 488.8,555.3 492,555.3 492,553.9 494,555.3 508.7,555.3 508.7,555.3 495.6,549.5 		"/>
		<path class="st7" d="M491.5,375.2l4.8,38.5l-6.5,8l-5.4-8.7l5.4-37.6C489.7,375.3,490.4,373.4,491.5,375.2z"/>
		<polygon class="st3" points="485.2,359.2 484.5,372.8 490.4,379.5 496.6,373.7 495.9,358.6 		"/>
		<g id="Layer_7_2_">
			<path class="st3" d="M482.1,371.4l3.5,8.8l0.9,2.4l2.3-3.7l1.5-2.5c0.1-0.1,0.2-0.1,0.4-0.1l0.1,0.1l1.9,2.8l2.9,4.2l2.1-11.6
				l-0.8-2.1l-0.2,0.2l-6.1,6c-0.1,0.1-0.3,0.1-0.3,0l-7.1-7l-0.1-0.1L482.1,371.4z"/>
			<g>
				<path class="st3" d="M484.9,366.2c0.8,0.9,1.5,1.7,2.6,2.3c0.7,0.4,1.6,0.4,2.5,0.4h0.3c0.7,0.1,1.5,0,2.2-0.2
					c1.1-0.5,1.9-1.3,2.8-2.1c0.6-0.5,1.3-1,2-1.3c0.4-0.2,0.7-0.5,1-0.8c0.4-0.4,0.7-1,0.9-1.5c0.3-0.8,0.3-2.2,1-2.8
					c0.6-0.6,1.3-0.8,1.8-1.6c0.8-1.5,1.2-3.1,1.2-4.8c0-0.5-0.2-1.2-0.9-0.8c-0.3,0.2-0.2,0.7-0.5,0.8l0,0l-0.3,0.7h-0.9
					c0-0.7,0.1-1.3,0.2-2c0.1-1.4,0.3-2.9,0-4.3c-0.3-1.8-3-2.8-4.4-3.7c-0.2-0.2-0.6-0.5-0.9-0.6c-0.4-0.1-0.2-0.1-0.6,0.1
					c-1.6,0.8-2.6,1.7-4.6,1.6c-1.6-0.1-3.2-0.5-4.8-0.4c-2.2,0.1-4.3,1.4-4.6,3.6c-0.1,0.8-0.1,1.7-0.2,2.5
					c-0.1,0.6-0.1,1.1-0.1,1.7c0,0.2,0,0.4,0,0.6l-1.2-0.1c0-0.2,0-0.4,0-0.5c0-0.3,0-0.5,0-0.8c0-0.1-0.1-0.2-0.2-0.3
					c-0.6-0.5-0.9,0.3-1,0.7c-0.2,1.7,0,3.3,0.7,4.9c0.4,0.9,1,1.1,1.6,1.8c0.7,0.7,0.5,2,0.7,2.9c0.1,0.6,0.4,1.1,0.7,1.6
					c0.2,0.3,0.5,0.6,0.8,0.8C483.5,365.1,484.3,365.6,484.9,366.2z"/>
				<path class="st6" d="M479.5,353c0,0.1,0,0.3,0,0.5l1.2,0.1c0-0.2,0-0.4,0-0.6c0-0.6,0-1.1,0.1-1.7c0.1-0.8,0-1.7,0.2-2.5
					c0.3-2.1,2.4-3.6,4.6-3.6c1.6,0,3.2,0.4,4.8,0.4c2,0.1,2.9-0.7,4.6-1.6c0.4-0.2,0.2-0.3,0.6-0.1c0.3,0.1,0.6,0.5,0.9,0.6
					c1.4,0.9,4.1,1.9,4.4,3.7c0.3,1.4,0.1,2.9,0,4.3c-0.1,0.7-0.2,1.3-0.2,2h0.9l0.3-0.7c0.3-0.7,0.5-1.4,0.6-1.8
					c0.3-1.1,0.5-2.2,0.6-3.4c0.5-2.7,0.8-5.4-0.9-7.8c-1.8-2.6-4.6-4.2-6.2-4.1c-0.1,0-1.1,0-1,0.2c-0.5-0.5-1.5-0.6-2.2-0.8
					c-3.6-1-8.3,0.9-11,3c-2.9,2.2-2.6,5.3-2.5,8.2c0.1,1,0,2.2,0.2,3.1c0.1,0.5,0.2,1,0.2,1.6C479.5,352.5,479.5,352.7,479.5,353z"
					/>
				<path class="st10" d="M493.6,352.1c1.1-0.5,2.3-0.5,3.3,0"/>
				<path class="st10" d="M484.6,352.1c1.1-0.5,2.3-0.5,3.3,0"/>
				<circle class="st6" cx="495.1" cy="354.2" r="0.9"/>
				<circle class="st6" cx="486.8" cy="354.2" r="0.9"/>
				<path class="st10" d="M487.6,362.6c0,0,2.8,2.7,5.7,0.3"/>
				<path class="st10" d="M491.7,353.4c-0.2,1-0.2,2-0.1,3c0.1,0.8,0.3,1.5,0.4,2.2c0.1,0.4,0.1,0.8,0,1.1c-0.1,0.4-0.4,0.6-0.7,0.4
					"/>
			</g>
		</g>
	</g>
</g>
<g>
	
		<linearGradient id="SVGID_4_" gradientUnits="userSpaceOnUse" x1="720.4" y1="502.4105" x2="865.8" y2="502.4105" gradientTransform="matrix(1 0 0 1 0 -80)">
		<stop  offset="1.241987e-03" style="stop-color:#FFFFFF;stop-opacity:0.5"/>
		<stop  offset="1" style="stop-color:#CCCCCC"/>
	</linearGradient>
	<polygon class="st14" points="837.5,459 865.8,459 858.5,447.1 723.9,385.9 720.4,388.7 	"/>
	<g id="Layer_9_1_">
		<path class="st15" d="M858.8,455.3l9.1-70.7l-3.4-7.5l-19.5-1.7l-4.3,9.6l5.1,70.2h3.8l4.2-62.4c0,0,0.9-1.5,2,0l-1.3,62.4h4.3
			L858.8,455.3L858.8,455.3z"/>
		<path class="st3" d="M825.7,386.2l5.8-20.4l8.2-19.9c0,0,0.9-1.3,11.2-2.7c0,0,6.2,3.5,9.1,0.3l8.6,1.6l8,22.3l3.2,19.2H876
			l-8-24.6c0,0-0.1,13.5,0.3,24.6c0,0-11.5,3.2-27.7-1.5l-1-20.5l-10.1,21.7h-3.8"/>
		<path class="st3" d="M829.6,386.2c2.5,3.7-1.1,2.4-1.1,2.4s-2,5.3-3.1,5.2c-1.5-0.1,0.3-7.6,0.3-7.6H829.6z"/>
		<path class="st3" d="M879.8,386.6c0,0,1.8,7.4,0.3,7.6c-1.1,0.1-3.1-5.2-3.1-5.2s-3.6,1.3-1.1-2.4H879.8z"/>
		<polygon class="st4" points="849.8,455.3 849.8,458.9 847.8,458.9 847.8,458 846.6,458.9 837.3,458.9 837.3,458.9 845.5,455.3 		
			"/>
		<polygon class="st4" points="854.4,455.3 854.4,458.9 856.4,458.9 856.4,458 857.7,458.9 866.9,458.9 866.9,458.9 858.7,455.3 		
			"/>
		<path class="st16" d="M856.1,345.6l3,24.2l-4.1,5l-3.4-5.5l3.4-23.7C855,345.7,855.5,344.5,856.1,345.6z"/>
		<polygon class="st3" points="852.2,335.5 851.7,344.1 855.4,348.3 859.3,344.6 858.9,335.1 		"/>
		<g id="Layer_7_4_">
			<path class="st3" d="M850.2,343.2l2.2,5.5l0.6,1.5l1.4-2.3l0.9-1.6c0.1-0.1,0.2-0.1,0.2,0c0,0,0,0,0,0.1l1.2,1.7l1.8,2.6l1.3-7.3
				l-0.5-1.3l-0.1,0.1l-3.8,3.8c-0.1,0.1-0.2,0-0.2,0l-4.4-4.4l0,0L850.2,343.2z"/>
			<g>
				<path class="st3" d="M852,340c0.5,0.5,0.9,1.1,1.6,1.5c0.4,0.2,1,0.3,1.6,0.3h0.2c0.5,0.1,0.9,0,1.4-0.1
					c0.7-0.3,1.2-0.8,1.8-1.3c0.4-0.3,0.8-0.6,1.3-0.8c0.2-0.1,0.5-0.3,0.6-0.5c0.2-0.3,0.4-0.6,0.5-1c0.2-0.5,0.2-1.4,0.6-1.8
					c0.4-0.4,0.8-0.5,1.1-1c0.5-0.9,0.8-2,0.7-3c0-0.3-0.1-0.8-0.6-0.5c-0.2,0.1-0.1,0.4-0.3,0.5l0,0l-0.2,0.4h-0.6
					c0-0.4,0.1-0.8,0.2-1.3c0.1-0.9,0.2-1.8,0-2.7c-0.2-1.1-1.9-1.8-2.8-2.4c-0.2-0.1-0.4-0.3-0.5-0.4c-0.3-0.1-0.1-0.1-0.4,0.1
					c-1,0.5-1.6,1.1-2.9,1c-1-0.1-2-0.3-3-0.3c-1.4,0-2.7,0.9-2.9,2.3c-0.1,0.5,0,1-0.1,1.6c0,0.4-0.1,0.7-0.1,1.1
					c0,0.1,0,0.2,0,0.4h-0.7c0-0.1,0-0.2,0-0.3c0-0.2,0-0.3,0-0.5c0-0.1,0-0.1-0.1-0.2c-0.4-0.3-0.6,0.2-0.6,0.5
					c-0.1,1,0,2.1,0.4,3.1c0.3,0.5,0.6,0.7,1,1.1c0.4,0.5,0.3,1.3,0.4,1.8c0.1,0.4,0.2,0.7,0.5,1c0.1,0.2,0.3,0.4,0.5,0.5
					C851.1,339.3,851.6,339.5,852,340z"/>
				<path class="st6" d="M848.5,331.6c0,0.1,0,0.2,0,0.3h0.7c0-0.1,0-0.2,0-0.4c0-0.4,0-0.7,0.1-1.1c0.1-0.5,0-1.1,0.1-1.6
					c0.2-1.3,1.5-2.2,2.9-2.3c1,0,2,0.2,3,0.3c1.3,0.1,1.9-0.5,2.9-1c0.3-0.1,0.1-0.2,0.4-0.1c0.2,0.1,0.4,0.3,0.5,0.4
					c0.9,0.6,2.6,1.2,2.8,2.4c0.2,0.9,0.1,1.8,0,2.7c-0.1,0.4-0.1,0.8-0.2,1.3h0.6l0.2-0.4c0.2-0.5,0.3-0.9,0.4-1.1
					c0.2-0.7,0.3-1.4,0.3-2.1c0.3-1.7,0.5-3.4-0.6-4.9c-1.1-1.6-2.9-2.6-3.9-2.6c-0.1,0-0.7,0-0.6,0.1c-0.3-0.3-0.9-0.4-1.4-0.5
					c-2.3-0.6-5.2,0.6-6.9,1.9c-1.8,1.4-1.7,3.3-1.6,5.2c0,0.6,0,1.4,0.2,2c0.1,0.3,0.1,0.7,0.1,1
					C848.6,331.3,848.6,331.4,848.5,331.6z"/>
				<path class="st10" d="M857.5,331.1c0.7-0.3,1.4-0.3,2.1,0"/>
				<path class="st10" d="M851.8,331.1c0.7-0.3,1.4-0.3,2.1,0"/>
				<circle class="st6" cx="858.4" cy="332.4" r="0.5"/>
				<circle class="st6" cx="853.1" cy="332.4" r="0.5"/>
				<path class="st10" d="M853.6,337.7c0,0,1.8,1.7,3.6,0.2"/>
				<path class="st10" d="M856.2,331.9c-0.1,0.6-0.1,1.3,0,1.9c0.1,0.5,0.2,0.9,0.2,1.4c0.1,0.2,0.1,0.5,0,0.7s-0.3,0.4-0.4,0.3"/>
			</g>
		</g>
	</g>
</g>
<g>
	
		<linearGradient id="SVGID_5_" gradientUnits="userSpaceOnUse" x1="151.7" y1="263.3105" x2="288.4" y2="263.3105" gradientTransform="matrix(1 0 0 1 0 -80)">
		<stop  offset="1.241987e-03" style="stop-color:#FFFFFF;stop-opacity:0.5"/>
		<stop  offset="1" style="stop-color:#CCCCCC"/>
	</linearGradient>
	<polygon class="st17" points="261.7,217.7 288.4,217.7 281.5,206.5 155,149 151.7,151.6 	"/>
	<g id="Layer_9_6_">
		<path class="st15" d="M281.7,214.2l8.6-66.4l-3.2-7l-18.3-1.6l-4.1,9l4.8,66h3.5l4-58.7c0,0,0.8-1.4,1.9,0l-1.2,58.7H281.7z"/>
		<path class="st3" d="M250.6,149.2l5.5-19.2l7.7-18.7c0,0,0.9-1.2,10.5-2.6c0,0,5.9,3.3,8.5,0.3l8.1,1.5l7.5,20.9l3,18.1h-3.6
			l-7.5-23.2c0,0-0.1,12.7,0.3,23.2c0,0-10.8,3-26-1.4l-0.9-19.3l-9.5,20.4H250.6"/>
		<path class="st3" d="M254.3,149.2c2.3,3.5-1.1,2.3-1.1,2.3s-1.9,4.9-2.9,4.9c-1.4-0.1,0.3-7.1,0.3-7.1L254.3,149.2L254.3,149.2z"
			/>
		<path class="st3" d="M301.5,149.6c0,0,1.7,7,0.3,7.1c-1,0.1-2.9-4.9-2.9-4.9s-3.4,1.2-1.1-2.3L301.5,149.6L301.5,149.6z"/>
		<polygon class="st4" points="273.3,214.2 273.3,217.6 271.4,217.6 271.4,216.8 270.3,217.6 261.6,217.6 261.6,217.6 269.3,214.2 
					"/>
		<polygon class="st4" points="277.7,214.2 277.7,217.6 279.5,217.6 279.5,216.8 280.7,217.6 289.4,217.6 289.4,217.6 281.7,214.2 
					"/>
		<path class="st16" d="M279.2,111l2.8,22.8l-3.9,4.7l-3.2-5.2l3.2-22.2C278.2,111.1,278.6,110,279.2,111z"/>
		<polygon class="st3" points="275.5,101.6 275.1,109.6 278.6,113.6 282.2,110.2 281.8,101.2 		"/>
		<g id="Layer_7_14_">
			<path class="st3" d="M273.7,108.8l2.1,5.2l0.6,1.4l1.3-2.2l0.9-1.5c0-0.1,0.1-0.1,0.2,0c0,0,0,0,0,0.1l1.1,1.6l1.7,2.5l1.3-6.8
				l-0.4-1.3l-0.1,0.1l-3.6,3.5c-0.1,0-0.1,0-0.2,0l-4.2-4.1l0,0L273.7,108.8z"/>
			<g>
				<path class="st3" d="M275.3,105.7c0.5,0.5,0.9,1,1.5,1.4c0.4,0.2,0.9,0.2,1.5,0.2h0.2c0.4,0.1,0.9,0,1.3-0.1
					c0.7-0.3,1.1-0.8,1.7-1.2c0.4-0.3,0.8-0.6,1.2-0.8c0.2-0.1,0.4-0.3,0.6-0.5c0.2-0.3,0.4-0.6,0.5-0.9c0.2-0.5,0.2-1.3,0.6-1.7
					c0.4-0.3,0.8-0.5,1-1c0.5-0.9,0.7-1.8,0.7-2.8c0-0.3-0.1-0.7-0.5-0.5c-0.2,0.1-0.1,0.4-0.3,0.5l0,0l-0.2,0.4h-0.5
					c0-0.4,0.1-0.8,0.1-1.2c0.1-0.9,0.2-1.7,0-2.6c-0.2-1.1-1.8-1.7-2.6-2.2c-0.1-0.1-0.3-0.3-0.5-0.4c-0.3-0.1-0.1,0-0.4,0.1
					c-1,0.5-1.5,1-2.7,0.9c-1,0-1.9-0.3-2.9-0.3c-1.3,0-2.5,0.9-2.7,2.1c-0.1,0.5,0,1-0.1,1.5c0,0.3-0.1,0.7-0.1,1
					c0,0.1,0,0.2,0,0.3H272c0-0.1,0-0.2,0-0.3c0-0.2,0-0.3,0-0.5c0-0.1,0-0.1-0.1-0.2c-0.4-0.3-0.5,0.2-0.6,0.4c-0.1,1,0,2,0.4,2.9
					c0.2,0.5,0.6,0.7,0.9,1.1c0.4,0.4,0.3,1.2,0.4,1.7c0.1,0.3,0.2,0.7,0.4,0.9c0.1,0.2,0.3,0.3,0.5,0.5
					C274.5,105.1,275,105.4,275.3,105.7z"/>
				<path class="st6" d="M272.1,97.9c0,0.1,0,0.2,0,0.3h0.7c0-0.1,0-0.2,0-0.3c0-0.3,0-0.7,0.1-1c0.1-0.5,0-1,0.1-1.5
					c0.2-1.3,1.4-2.1,2.7-2.1c1,0,1.9,0.2,2.9,0.3c1.2,0.1,1.7-0.4,2.7-0.9c0.3-0.1,0.1-0.2,0.4-0.1c0.2,0,0.4,0.3,0.5,0.4
					c0.9,0.6,2.4,1.1,2.6,2.2c0.2,0.9,0.1,1.7,0,2.6c-0.1,0.4-0.1,0.8-0.1,1.2h0.5l0.2-0.4c0.2-0.4,0.3-0.9,0.4-1.1
					c0.2-0.7,0.3-1.3,0.3-2c0.3-1.6,0.5-3.2-0.6-4.6c-1.1-1.5-2.7-2.5-3.7-2.4c-0.1,0-0.7,0-0.6,0.1c-0.3-0.3-0.9-0.3-1.3-0.4
					c-2.1-0.6-4.9,0.5-6.5,1.8c-1.7,1.3-1.6,3.1-1.5,4.9c0,0.6,0,1.3,0.1,1.9c0.1,0.3,0.1,0.6,0.1,0.9
					C272.2,97.6,272.2,97.7,272.1,97.9z"/>
				<path class="st10" d="M280.5,97.4c0.6-0.3,1.3-0.3,2,0"/>
				<path class="st10" d="M275.2,97.4c0.6-0.3,1.3-0.3,2,0"/>
				<circle class="st6" cx="281.4" cy="98.6" r="0.5"/>
				<circle class="st6" cx="276.5" cy="98.6" r="0.5"/>
				<path class="st10" d="M276.9,103.6c0,0,1.7,1.6,3.4,0.2"/>
				<path class="st10" d="M279.4,98.1c-0.1,0.6-0.1,1.2,0,1.8c0.1,0.4,0.2,0.9,0.2,1.3c0,0.2,0,0.4,0,0.7c-0.1,0.2-0.3,0.4-0.4,0.2"
					/>
			</g>
		</g>
	</g>
</g>
<g>
	
		<linearGradient id="SVGID_6_" gradientUnits="userSpaceOnUse" x1="427.7" y1="308.9105" x2="564.4" y2="308.9105" gradientTransform="matrix(1 0 0 1 0 -80)">
		<stop  offset="1.241987e-03" style="stop-color:#FFFFFF;stop-opacity:0.5"/>
		<stop  offset="1" style="stop-color:#CCCCCC"/>
	</linearGradient>
	<polygon class="st18" points="537.8,263.3 564.4,263.3 557.6,252.1 431.1,194.6 427.7,197.2 	"/>
	<g id="Layer_9_5_">
		<path class="st15" d="M557.8,259.8l8.6-66.4l-3.2-7l-18.3-1.6l-4.1,9l4.8,66h3.5l4-58.7c0,0,0.8-1.4,1.9,0l-1.2,58.7H557.8z"/>
		<path class="st3" d="M526.7,194.9l5.5-19.2l7.7-18.7c0,0,0.9-1.2,10.5-2.6c0,0,5.9,3.3,8.5,0.3l8.1,1.5l7.5,20.9l3,18.1h-3.6
			l-7.5-23.2c0,0-0.1,12.7,0.3,23.2c0,0-10.8,3-26-1.4l-0.9-19.3l-9.5,20.4H526.7"/>
		<path class="st3" d="M530.3,194.9c2.3,3.5-1.1,2.3-1.1,2.3s-1.9,4.9-2.9,4.9c-1.4-0.1,0.3-7.1,0.3-7.1L530.3,194.9L530.3,194.9z"
			/>
		<path class="st3" d="M577.6,195.2c0,0,1.7,7,0.3,7.1c-1,0.1-2.9-4.9-2.9-4.9s-3.4,1.2-1.1-2.3L577.6,195.2L577.6,195.2z"/>
		<polygon class="st4" points="549.4,259.8 549.4,263.2 547.5,263.2 547.5,262.4 546.3,263.2 537.6,263.2 537.6,263.2 545.4,259.8 
					"/>
		<polygon class="st4" points="553.7,259.8 553.7,263.2 555.6,263.2 555.6,262.4 556.8,263.2 565.5,263.2 565.5,263.2 557.7,259.8 
					"/>
		<path class="st16" d="M555.3,156.7l2.8,22.8l-3.9,4.7L551,179l3.2-22.2C554.2,156.8,554.7,155.6,555.3,156.7z"/>
		<polygon class="st3" points="551.6,147.2 551.1,155.3 554.7,159.2 558.3,155.8 557.9,146.8 		"/>
		<g id="Layer_7_12_">
			<path class="st3" d="M549.7,154.4l2.1,5.2l0.6,1.4l1.3-2.2l0.9-1.5c0-0.1,0.1-0.1,0.2,0c0,0,0,0,0,0.1l1.1,1.6l1.7,2.5l1.3-6.8
				l-0.5-1.3l-0.1,0.1l-3.6,3.5c-0.1,0-0.1,0-0.2,0l-4.2-4.1l0,0L549.7,154.4z"/>
			<g>
				<path class="st3" d="M551.4,151.4c0.5,0.5,0.9,1,1.5,1.4c0.4,0.2,0.9,0.2,1.5,0.2h0.2c0.4,0.1,0.9,0,1.3-0.1
					c0.7-0.3,1.1-0.8,1.7-1.2c0.4-0.3,0.8-0.6,1.2-0.8c0.2-0.1,0.4-0.3,0.6-0.5c0.2-0.3,0.4-0.6,0.5-0.9c0.2-0.5,0.2-1.3,0.6-1.7
					c0.4-0.3,0.8-0.5,1-1c0.5-0.9,0.7-1.8,0.7-2.8c0-0.3-0.1-0.7-0.5-0.5c-0.2,0.1-0.1,0.4-0.3,0.5l0,0l-0.2,0.4h-0.5
					c0-0.4,0.1-0.8,0.1-1.2c0.1-0.9,0.2-1.7,0-2.6c-0.2-1.1-1.8-1.7-2.6-2.2c-0.1-0.1-0.3-0.3-0.5-0.4c-0.3-0.1-0.1,0-0.4,0.1
					c-1,0.5-1.5,1-2.7,0.9c-1,0-1.9-0.3-2.9-0.3c-1.3,0-2.5,0.9-2.7,2.1c-0.1,0.5,0,1-0.1,1.5c0,0.3-0.1,0.7-0.1,1
					c0,0.1,0,0.2,0,0.3h-0.7c0-0.1,0-0.2,0-0.3c0-0.2,0-0.3,0-0.5c0-0.1,0-0.1-0.1-0.2c-0.4-0.3-0.5,0.2-0.6,0.4c-0.1,1,0,2,0.4,2.9
					c0.2,0.5,0.6,0.7,0.9,1.1c0.4,0.4,0.3,1.2,0.4,1.7c0.1,0.3,0.2,0.7,0.4,0.9c0.1,0.2,0.3,0.3,0.5,0.5
					C550.6,150.7,551.1,151,551.4,151.4z"/>
				<path class="st6" d="M548.2,143.5c0,0.1,0,0.2,0,0.3h0.7c0-0.1,0-0.2,0-0.3c0-0.3,0-0.7,0.1-1c0.1-0.5,0-1,0.1-1.5
					c0.2-1.3,1.4-2.1,2.7-2.1c1,0,1.9,0.2,2.9,0.3c1.2,0.1,1.7-0.4,2.7-0.9c0.3-0.1,0.1-0.2,0.4-0.1c0.2,0,0.4,0.3,0.5,0.4
					c0.9,0.6,2.4,1.1,2.6,2.2c0.2,0.9,0.1,1.7,0,2.6c-0.1,0.4-0.1,0.8-0.1,1.2h0.5l0.2-0.4c0.2-0.4,0.3-0.9,0.4-1.1
					c0.2-0.7,0.3-1.3,0.3-2c0.3-1.6,0.5-3.2-0.6-4.6c-1.1-1.5-2.7-2.5-3.7-2.4c-0.1,0-0.7,0-0.6,0.1c-0.3-0.3-0.9-0.3-1.3-0.4
					c-2.1-0.6-4.9,0.5-6.5,1.8c-1.7,1.3-1.6,3.1-1.5,4.9c0,0.6,0,1.3,0.1,1.9c0.1,0.3,0.1,0.6,0.1,0.9
					C548.2,143.2,548.2,143.4,548.2,143.5z"/>
				<path class="st10" d="M556.6,143c0.6-0.3,1.3-0.3,2,0"/>
				<path class="st10" d="M551.3,143c0.6-0.3,1.3-0.3,2,0"/>
				<circle class="st6" cx="557.5" cy="144.2" r="0.5"/>
				<circle class="st6" cx="552.5" cy="144.2" r="0.5"/>
				<path class="st10" d="M553,149.2c0,0,1.7,1.6,3.4,0.2"/>
				<path class="st10" d="M555.4,143.8c-0.1,0.6-0.1,1.2,0,1.8c0.1,0.4,0.2,0.9,0.2,1.3c0,0.2,0,0.4,0,0.7c-0.1,0.2-0.3,0.4-0.4,0.2
					"/>
			</g>
		</g>
	</g>
</g>
<g>
	
		<linearGradient id="SVGID_7_" gradientUnits="userSpaceOnUse" x1="488.3" y1="747.5105" x2="633.7" y2="747.5105" gradientTransform="matrix(1 0 0 1 0 -80)">
		<stop  offset="1.241987e-03" style="stop-color:#FFFFFF;stop-opacity:0.5"/>
		<stop  offset="1" style="stop-color:#CCCCCC"/>
	</linearGradient>
	<polygon class="st19" points="605.4,704.1 633.7,704.1 626.4,692.1 491.8,631 488.3,633.8 	"/>
	<g id="Layer_9_2_">
		<path class="st15" d="M626.6,700.3l9.1-70.7l-3.4-7.5l-19.5-1.7l-4.3,9.6l5.1,70.2h3.8l4.2-62.4c0,0,0.9-1.5,2,0l-1.3,62.4h4.3
			L626.6,700.3L626.6,700.3z"/>
		<path class="st3" d="M593.5,631.3l5.9-20.4l8.2-19.9c0,0,0.9-1.3,11.2-2.7c0,0,6.2,3.5,9.1,0.3l8.6,1.6l8,22.3l3.2,19.2h-3.8
			l-8-24.6c0,0-0.1,13.5,0.3,24.6c0,0-11.5,3.2-27.7-1.5l-1-20.5l-10.1,21.7L593.5,631.3"/>
		<path class="st3" d="M597.4,631.3c2.5,3.7-1.1,2.4-1.1,2.4s-2,5.3-3.1,5.2c-1.5-0.1,0.3-7.6,0.3-7.6L597.4,631.3L597.4,631.3z"/>
		<path class="st3" d="M647.7,631.6c0,0,1.8,7.4,0.3,7.6c-1.1,0.1-3.1-5.2-3.1-5.2s-3.6,1.3-1.1-2.4L647.7,631.6L647.7,631.6z"/>
		<polygon class="st4" points="617.7,700.3 617.7,704 615.7,704 615.7,703.1 614.5,704 605.2,704 605.2,704 613.4,700.3 		"/>
		<polygon class="st4" points="622.3,700.3 622.3,704 624.3,704 624.3,703.1 625.6,704 634.8,704 634.8,704 626.6,700.3 		"/>
		<path class="st16" d="M624,590.6l3,24.2l-4.1,5l-3.4-5.5l3.4-23.7C622.9,590.7,623.3,589.5,624,590.6z"/>
		<polygon class="st3" points="620.1,580.6 619.6,589.1 623.3,593.4 627.2,589.7 626.7,580.2 		"/>
		<g id="Layer_7_7_">
			<path class="st3" d="M618.1,588.2l2.2,5.5l0.6,1.5l1.4-2.3l0.9-1.6c0.1-0.1,0.2-0.1,0.2,0c0,0,0,0,0,0.1l1.2,1.7l1.8,2.6l1.3-7.3
				l-0.5-1.3l-0.1,0.1l-3.8,3.8c-0.1,0.1-0.2,0-0.2,0l-4.4-4.4l0,0L618.1,588.2z"/>
			<g>
				<path class="st3" d="M619.8,585c0.5,0.5,0.9,1.1,1.6,1.5c0.4,0.2,1,0.3,1.6,0.3h0.2c0.5,0.1,0.9,0,1.4-0.1
					c0.7-0.3,1.2-0.8,1.8-1.3c0.4-0.3,0.8-0.6,1.3-0.8c0.2-0.1,0.5-0.3,0.6-0.5c0.2-0.3,0.4-0.6,0.5-1c0.2-0.5,0.2-1.4,0.6-1.8
					c0.4-0.4,0.8-0.5,1.1-1c0.5-0.9,0.8-2,0.7-3c0-0.3-0.1-0.8-0.6-0.5c-0.2,0.1-0.1,0.4-0.3,0.5l0,0l-0.2,0.4h-0.6
					c0-0.4,0.1-0.8,0.2-1.3c0.1-0.9,0.2-1.8,0-2.7c-0.2-1.1-1.9-1.8-2.8-2.4c-0.2-0.1-0.4-0.3-0.5-0.4c-0.3-0.1-0.1-0.1-0.4,0.1
					c-1,0.5-1.6,1.1-2.9,1c-1-0.1-2-0.3-3-0.3c-1.4,0-2.7,0.9-2.9,2.3c-0.1,0.5,0,1-0.1,1.6c0,0.4-0.1,0.7-0.1,1.1
					c0,0.1,0,0.2,0,0.4h-0.7c0-0.1,0-0.2,0-0.3c0-0.2,0-0.3,0-0.5c0-0.1,0-0.1-0.1-0.2c-0.4-0.3-0.6,0.2-0.6,0.5
					c-0.1,1,0,2.1,0.4,3.1c0.3,0.5,0.6,0.7,1,1.1c0.4,0.5,0.3,1.3,0.4,1.8c0.1,0.4,0.2,0.7,0.5,1c0.1,0.2,0.3,0.4,0.5,0.5
					C619,584.3,619.5,584.6,619.8,585z"/>
				<path class="st6" d="M616.4,576.7c0,0.1,0,0.2,0,0.3h0.7c0-0.1,0-0.2,0-0.4c0-0.4,0-0.7,0.1-1.1c0.1-0.5,0-1.1,0.1-1.6
					c0.2-1.3,1.5-2.2,2.9-2.3c1,0,2,0.2,3,0.3c1.3,0.1,1.9-0.5,2.9-1c0.3-0.1,0.1-0.2,0.4-0.1c0.2,0.1,0.4,0.3,0.5,0.4
					c0.9,0.6,2.6,1.2,2.8,2.4c0.2,0.9,0.1,1.8,0,2.7c-0.1,0.4-0.1,0.8-0.2,1.3h0.6l0.2-0.4c0.2-0.5,0.3-0.9,0.4-1.1
					c0.2-0.7,0.3-1.4,0.3-2.1c0.3-1.7,0.5-3.4-0.6-4.9c-1.1-1.6-2.9-2.6-3.9-2.6c-0.1,0-0.7,0-0.6,0.1c-0.3-0.3-0.9-0.4-1.4-0.5
					c-2.3-0.6-5.2,0.6-6.9,1.9c-1.8,1.4-1.7,3.3-1.6,5.2c0,0.6,0,1.4,0.2,2c0.1,0.3,0.1,0.7,0.1,1
					C616.5,576.3,616.5,576.5,616.4,576.7z"/>
				<path class="st10" d="M625.3,576.1c0.7-0.3,1.4-0.3,2.1,0"/>
				<path class="st10" d="M619.7,576.1c0.7-0.3,1.4-0.3,2.1,0"/>
				<circle class="st6" cx="626.3" cy="577.4" r="0.5"/>
				<circle class="st6" cx="621" cy="577.4" r="0.5"/>
				<path class="st10" d="M621.5,582.7c0,0,1.8,1.7,3.6,0.2"/>
				<path class="st10" d="M624.1,576.9c-0.1,0.6-0.1,1.3,0,1.9c0.1,0.5,0.2,0.9,0.2,1.4c0.1,0.2,0.1,0.5,0,0.7s-0.3,0.4-0.4,0.3"/>
			</g>
		</g>
	</g>
</g>
<g>
	
		<linearGradient id="SVGID_8_" gradientUnits="userSpaceOnUse" x1="0" y1="425.8105" x2="134" y2="425.8105" gradientTransform="matrix(1 0 0 1 0 -80)">
		<stop  offset="1.241987e-03" style="stop-color:#FFFFFF;stop-opacity:0.5"/>
		<stop  offset="1" style="stop-color:#CCCCCC"/>
	</linearGradient>
	<polygon class="st20" points="107.9,379.6 134,379.6 127.3,368.6 3.2,312.1 0,314.7 	"/>
	<g id="Layer_9_3_">
		<path class="st15" d="M127.5,376.1l8.4-65.2l-3.2-6.9l-18-1.5l-4,8.8l4.7,64.8h3.5l3.9-57.6c0,0,0.8-1.4,1.8,0l-1.2,57.6H127.5z"
			/>
		<path class="st3" d="M97,312.4l5.4-18.8l7.6-18.3c0,0,0.9-1.2,10.3-2.5c0,0,5.7,3.3,8.4,0.3l7.9,1.5l7.3,20.5l2.9,17.7h-3.5
			l-7.4-22.7c0,0-0.1,12.4,0.3,22.7c0,0-10.6,3-25.5-1.4l-0.9-18.9l-9.3,20H97"/>
		<path class="st3" d="M100.6,312.4c2.3,3.4-1,2.2-1,2.2s-1.9,4.8-2.8,4.8c-1.3-0.1,0.3-7,0.3-7H100.6z"/>
		<path class="st3" d="M146.9,312.8c0,0,1.6,6.9,0.3,7c-1,0.1-2.8-4.8-2.8-4.8s-3.3,1.2-1-2.2H146.9z"/>
		<polygon class="st4" points="119.3,376.1 119.3,379.5 117.5,379.5 117.5,378.6 116.3,379.5 107.8,379.5 107.8,379.5 115.4,376.1 
					"/>
		<polygon class="st4" points="123.6,376.1 123.6,379.5 125.4,379.5 125.4,378.6 126.5,379.5 135.1,379.5 135.1,379.5 127.5,376.1 
					"/>
		<path class="st16" d="M125.1,274.9l2.8,22.3l-3.8,4.6l-3.1-5.1l3.1-21.8C124.1,275,124.5,273.9,125.1,274.9z"/>
		<polygon class="st3" points="121.5,265.7 121,273.6 124.5,277.5 128.1,274.1 127.6,265.3 		"/>
		<g id="Layer_7_9_">
			<path class="st3" d="M119.7,272.7l2,5.1l0.5,1.4l1.3-2.2l0.9-1.4c0-0.1,0.1-0.1,0.2,0c0,0,0,0,0,0.1l1.1,1.6l1.7,2.4l1.2-6.7
				l-0.4-1.2l-0.1,0.1l-3.5,3.5c-0.1,0-0.1,0-0.2,0l-4.1-4.1l0,0L119.7,272.7z"/>
			<g>
				<path class="st3" d="M121.3,269.8c0.4,0.5,0.9,1,1.5,1.4c0.4,0.2,0.9,0.2,1.4,0.2h0.2c0.4,0.1,0.8,0,1.3-0.1
					c0.7-0.3,1.1-0.7,1.6-1.2c0.4-0.3,0.8-0.6,1.2-0.8c0.2-0.1,0.4-0.3,0.6-0.5c0.2-0.3,0.4-0.6,0.5-0.9c0.2-0.5,0.1-1.3,0.6-1.6
					c0.4-0.3,0.7-0.5,1-0.9c0.5-0.8,0.7-1.8,0.7-2.8c0-0.3-0.1-0.7-0.5-0.5c-0.2,0.1-0.1,0.4-0.3,0.5l0,0l-0.2,0.4h-0.5
					c0-0.4,0.1-0.8,0.1-1.2c0.1-0.8,0.1-1.7,0-2.5c-0.2-1.1-1.7-1.6-2.6-2.2c-0.1-0.1-0.3-0.3-0.5-0.4c-0.3-0.1-0.1,0-0.4,0.1
					c-0.9,0.5-1.5,1-2.6,0.9c-0.9,0-1.9-0.3-2.8-0.3c-1.3,0-2.5,0.8-2.7,2.1c-0.1,0.5,0,1-0.1,1.4c0,0.3-0.1,0.7-0.1,1
					c0,0.1,0,0.2,0,0.3H118c0-0.1,0-0.2,0-0.3c0-0.2,0-0.3,0-0.4s0-0.1-0.1-0.2c-0.4-0.3-0.5,0.2-0.6,0.4c-0.1,1,0,1.9,0.4,2.8
					c0.2,0.5,0.6,0.7,0.9,1c0.4,0.4,0.3,1.2,0.4,1.7c0.1,0.3,0.2,0.6,0.4,0.9c0.1,0.2,0.3,0.3,0.4,0.5
					C120.5,269.1,120.9,269.4,121.3,269.8z"/>
				<path class="st6" d="M118.1,262.1c0,0.1,0,0.2,0,0.3h0.7c0-0.1,0-0.2,0-0.3c0-0.3,0-0.7,0.1-1c0.1-0.5,0-1,0.1-1.4
					c0.2-1.2,1.4-2.1,2.7-2.1c0.9,0,1.9,0.2,2.8,0.3c1.2,0.1,1.7-0.4,2.6-0.9c0.3-0.1,0.1-0.2,0.4-0.1c0.2,0,0.4,0.3,0.5,0.4
					c0.8,0.5,2.4,1.1,2.6,2.2c0.2,0.8,0.1,1.7,0,2.5c-0.1,0.4-0.1,0.8-0.1,1.2h0.5l0.2-0.4c0.2-0.4,0.3-0.8,0.4-1
					c0.2-0.6,0.3-1.3,0.3-2c0.3-1.6,0.4-3.1-0.5-4.5c-1.1-1.5-2.7-2.4-3.6-2.4c-0.1,0-0.7,0-0.6,0.1c-0.3-0.3-0.9-0.3-1.3-0.4
					c-2.1-0.6-4.8,0.5-6.4,1.7c-1.7,1.3-1.5,3.1-1.4,4.8c0,0.6,0,1.3,0.1,1.8c0.1,0.3,0.1,0.6,0.1,0.9
					C118.2,261.8,118.1,261.9,118.1,262.1z"/>
				<path class="st10" d="M126.3,261.6c0.6-0.3,1.3-0.3,1.9,0"/>
				<path class="st10" d="M121.1,261.6c0.6-0.3,1.3-0.3,1.9,0"/>
				<circle class="st6" cx="127.2" cy="262.8" r="0.5"/>
				<circle class="st6" cx="122.4" cy="262.8" r="0.5"/>
				<path class="st10" d="M122.8,267.7c0,0,1.6,1.6,3.3,0.2"/>
				<path class="st10" d="M125.2,262.3c-0.1,0.6-0.1,1.2,0,1.7c0.1,0.4,0.2,0.9,0.2,1.3c0,0.2,0,0.4,0,0.7c-0.1,0.2-0.2,0.3-0.4,0.2
					"/>
			</g>
		</g>
	</g>
</g>
<g>
	
		<linearGradient id="SVGID_9_" gradientUnits="userSpaceOnUse" x1="361" y1="864.0105" x2="506.4" y2="864.0105" gradientTransform="matrix(1 0 0 1 0 -80)">
		<stop  offset="1.241987e-03" style="stop-color:#FFFFFF;stop-opacity:0.5"/>
		<stop  offset="1" style="stop-color:#CCCCCC"/>
	</linearGradient>
	<polygon class="st21" points="478.1,820.6 506.4,820.6 499.2,808.7 364.6,747.5 361,750.3 	"/>
	<g id="Layer_9_4_">
		<path class="st15" d="M499.4,816.9l9.1-70.7l-3.4-7.5l-19.5-1.7l-4.3,9.6l5.1,70.2h3.8l4.2-62.4c0,0,0.9-1.5,2,0l-1.3,62.4h4.3
			L499.4,816.9L499.4,816.9z"/>
		<path class="st3" d="M466.3,747.8l5.9-20.4l8.2-19.9c0,0,0.9-1.3,11.2-2.7c0,0,6.2,3.5,9.1,0.3l8.6,1.6l8,22.3l3.2,19.2h-4
			l-8-24.6c0,0-0.1,13.5,0.3,24.6c0,0-11.5,3.2-27.7-1.5l-1-20.5l-9.9,21.6L466.3,747.8"/>
		<path class="st3" d="M470.2,747.8c2.5,3.7-1.1,2.4-1.1,2.4s-2,5.3-3.1,5.2c-1.5-0.1,0.3-7.6,0.3-7.6L470.2,747.8L470.2,747.8z"/>
		<path class="st3" d="M520.4,748.2c0,0,1.8,7.4,0.3,7.6c-1.1,0.1-3.1-5.2-3.1-5.2s-3.6,1.3-1.1-2.4L520.4,748.2L520.4,748.2z"/>
		<polygon class="st4" points="490.4,816.9 490.4,820.5 488.4,820.5 488.4,819.6 487.2,820.5 477.9,820.5 477.9,820.5 486.2,816.9 
					"/>
		<polygon class="st4" points="495.1,816.9 495.1,820.5 497,820.5 497,819.6 498.3,820.5 507.5,820.5 507.5,820.5 499.3,816.9 		"/>
		<path class="st16" d="M496.7,707.2l3,24.2l-4.1,5l-3.4-5.5l3.4-23.7C495.6,707.3,496.1,706.1,496.7,707.2z"/>
		<polygon class="st3" points="492.8,697.1 492.3,705.7 496.1,709.9 499.9,706.2 499.5,696.7 		"/>
		<g id="Layer_7_10_">
			<path class="st3" d="M490.8,704.8l2.2,5.5l0.6,1.5l1.4-2.3l0.9-1.6c0.1-0.1,0.2-0.1,0.2,0c0,0,0,0,0,0.1l1.2,1.7l1.8,2.6l1.3-7.3
				l-0.5-1.3l-0.1,0.1l-3.8,3.8c-0.1,0.1-0.2,0-0.2,0l-4.4-4.4l0,0L490.8,704.8z"/>
			<g>
				<path class="st3" d="M492.6,701.6c0.5,0.5,0.9,1.1,1.6,1.5c0.4,0.2,1,0.3,1.6,0.3h0.2c0.5,0.1,0.9,0,1.4-0.1
					c0.7-0.3,1.2-0.8,1.8-1.3c0.4-0.3,0.8-0.6,1.3-0.8c0.2-0.1,0.5-0.3,0.6-0.5c0.2-0.3,0.4-0.6,0.5-1c0.2-0.5,0.2-1.4,0.6-1.8
					c0.4-0.4,0.8-0.5,1.1-1c0.5-0.9,0.8-2,0.7-3c0-0.3-0.1-0.8-0.6-0.5c-0.2,0.1-0.1,0.4-0.3,0.5l0,0l-0.2,0.4h-0.6
					c0-0.4,0.1-0.8,0.2-1.3c0.1-0.9,0.2-1.8,0-2.7c-0.2-1.1-1.9-1.8-2.8-2.4c-0.2-0.1-0.4-0.3-0.5-0.4c-0.3-0.1-0.1-0.1-0.4,0.1
					c-1,0.5-1.6,1.1-2.9,1c-1-0.1-2-0.3-3-0.3c-1.4,0-2.7,0.9-2.9,2.3c-0.1,0.5,0,1-0.1,1.6c0,0.4-0.1,0.7-0.1,1.1
					c0,0.1,0,0.2,0,0.4h-0.7c0-0.1,0-0.2,0-0.3c0-0.2,0-0.3,0-0.5c0-0.1,0-0.1-0.1-0.2c-0.4-0.3-0.6,0.2-0.6,0.5
					c-0.1,1,0,2.1,0.4,3.1c0.3,0.5,0.6,0.7,1,1.1c0.4,0.5,0.3,1.3,0.4,1.8c0.1,0.4,0.2,0.7,0.5,1c0.1,0.2,0.3,0.4,0.5,0.5
					C491.7,700.9,492.2,701.1,492.6,701.6z"/>
				<path class="st6" d="M489.2,693.2c0,0.1,0,0.2,0,0.3h0.7c0-0.1,0-0.2,0-0.4c0-0.4,0-0.7,0.1-1.1c0.1-0.5,0-1.1,0.1-1.6
					c0.2-1.3,1.5-2.2,2.9-2.3c1,0,2,0.2,3,0.3c1.3,0.1,1.9-0.5,2.9-1c0.3-0.1,0.1-0.2,0.4-0.1c0.2,0.1,0.4,0.3,0.5,0.4
					c0.9,0.6,2.6,1.2,2.8,2.4c0.2,0.9,0.1,1.8,0,2.7c-0.1,0.4-0.1,0.8-0.2,1.3h0.6l0.2-0.4c0.2-0.5,0.3-0.9,0.4-1.1
					c0.2-0.7,0.3-1.4,0.3-2.1c0.3-1.7,0.5-3.4-0.6-4.9c-1.1-1.6-2.9-2.6-3.9-2.6c-0.1,0-0.7,0-0.6,0.1c-0.3-0.3-0.9-0.4-1.4-0.5
					c-2.3-0.6-5.2,0.6-6.9,1.9c-1.8,1.4-1.7,3.3-1.6,5.2c0,0.6,0,1.4,0.2,2c0.1,0.3,0.1,0.7,0.1,1
					C489.2,692.9,489.2,693,489.2,693.2z"/>
				<path class="st10" d="M498.1,692.7c0.7-0.3,1.4-0.3,2.1,0"/>
				<path class="st10" d="M492.4,692.7c0.7-0.3,1.4-0.3,2.1,0"/>
				<circle class="st6" cx="499" cy="694" r="0.5"/>
				<circle class="st6" cx="493.8" cy="694" r="0.5"/>
				<path class="st10" d="M494.2,699.3c0,0,1.8,1.7,3.6,0.2"/>
				<path class="st10" d="M496.8,693.5c-0.1,0.6-0.1,1.3,0,1.9c0.1,0.5,0.2,0.9,0.2,1.4c0.1,0.2,0.1,0.5,0,0.7s-0.3,0.4-0.4,0.3"/>
			</g>
		</g>
	</g>
</g>
<g>
	
		<linearGradient id="SVGID_10_" gradientUnits="userSpaceOnUse" x1="697.7" y1="764.0605" x2="832.9" y2="764.0605" gradientTransform="matrix(1 0 0 1 0 -80)">
		<stop  offset="1.241987e-03" style="stop-color:#FFFFFF;stop-opacity:0.5"/>
		<stop  offset="1" style="stop-color:#CCCCCC"/>
	</linearGradient>
	<polygon class="st22" points="806.6,718.1 832.9,718.1 826.2,707 701,650.1 697.7,652.7 	"/>
	<g id="Layer_8_2_">
		<path class="st3" d="M823.7,613.3c0,0.1,0,0.2,0,0.2c0,0.1-0.1,0.1-0.2,0.2c-0.8,0.6-1.6,1.2-2.5,1.6c-0.5,0.3-1.2,0.5-1.7,0.3
			c-0.3-0.2-0.6-0.5-0.7-0.8l-0.8-1.4c0.5-0.3,0.6-0.9,0.6-1.5c0-0.7,0-1.5,0-2.2c1.3-0.7,2.8-1.1,4.3-1.1c0.5,0,0.8,0.1,0.7,0.6
			s-0.1,0.9-0.1,1.4C823.4,611.5,823.5,612.4,823.7,613.3z"/>
		<path class="st4" d="M817.4,712.7v5.3h-0.8l-0.6-2.2l-1.4,2.2h-7.8c3-0.6,5.6-2.6,7-5.3H817.4z"/>
		<path class="st4" d="M822.5,712.7v5.3h0.8l0.6-2.2l1.4,2.2h7.8c-3-0.6-5.6-2.6-7-5.3H822.5z"/>
		<path class="st5" d="M822.3,712.7h3.3c0,0,6.7-47.1,6.2-58c-0.3-6.9-4.2-10.5-4.2-10.5h-15.2c0,0-3.8,3.6-4.2,10.5
			c-0.5,10.9,6.2,58,6.2,58h3.3c0,0,1-56.9,2.4-56.3C820,656.4,823,678.5,822.3,712.7z"/>
		<path class="st6" d="M810.2,612.3L810.2,612.3c0.9-0.2,1.8-0.2,2.8-0.6c0.1-0.1,0.8-0.5,1.4-0.9l1-0.8l0.3-1v0.1
			c0.5-1.4,0.7-2.9,0.5-4.4c0-0.1,0-0.1,0-0.2c-0.4-0.5-0.6-1.2-0.8-1.8c0-0.2-0.1-0.5-0.4-0.5c-0.7,0-1-1.2-1.1-1.9
			c1.1-0.9,2.5-1.4,3.7-2c1-0.6,3.1-2,3.1-2l0,0c0.7-0.3,1.3-0.6,1.9-1c0.5-0.3,2.4-1.2,2.3-1.9c0.1,0.8,0.5,1.4,0.7,2.2
			s0.6,1.6,0.7,2.4c0.3,1.6,0.3,3.4-0.2,4.9c-0.4,1.2-1.2,2.2-2.1,3.1c-0.1,1-0.1,2,0.1,3v0.1l0,0l0.3,1l1.2,1
			c0.1,0.1,0.2,0.2,0.3,0.3c1.5,0.6,3.5,1,3.8,1.1c1.3,0.4,2.4,0.8,3.2,1.4c-0.4-1.9-0.9-3.9-1.5-5.8c-0.5-1.8-1.1-3.6-1.6-5.3
			s-0.2-3.1-0.4-4.8c-0.5-5-3-8.7-8.1-9.5c-4.7-0.7-8.6,3.2-9.3,7.7c-0.1,0.5-0.1,1.1-0.1,1.7c0,1.5,0.1,3-0.2,4.6
			c-0.4,2.2-0.9,4.4-1.7,6.6c-0.4,1-1.2,2.5-2,4.1c0.1-0.1,0.2-0.1,0.4-0.2C809.2,612.6,809.7,612.4,810.2,612.3z"/>
		<path class="st8" d="M802.3,645.5l7.1-21.3c0,0-0.5-1.4,2.4,11.3c0.8,3.6-1.5,9.6-2.1,12.9c0,0,12.8,4.3,20.4-0.5
			c-1.1-1.4-2.8-6.6-2.7-11.7c0.1-3.9,1.8-7.7,2.4-10.2c0.6-2.3,0.6-2.3,0.6-2.3l7,21.9l3.2-0.4c-3.6-23.2-7.3-31.1-7.3-31.1
			c-2.2-1.2-8.5-3.8-8.5-3.8c-1.7,1.2-3.7,0.9-5.6,0.1c-1.3-1.1-10.7,1.7-12,3.2c-3.8,11.2-7.4,31.7-7.4,31.7L802.3,645.5z"/>
		<path class="st10" d="M811.4,625.4c0,0,2.1,4.3,7,2"/>
		<path class="st10" d="M829.2,625.4c0,0-2.1,4.3-7,2"/>
		<path class="st3" d="M837.7,645.5c-2.9,2.4,0.3,2,0.3,2s1.4,3.8,2.4,3.6c1.3-0.2-0.1-6.1-0.1-6.1L837.7,645.5z"/>
		<path class="st3" d="M799.7,645c0,0-1.4,5.8-0.1,6.1c1,0.2,2.4-3.6,2.4-3.6s3.1,0.4,0.3-2L799.7,645z"/>
		<g id="Layer_7_5_">
			<path class="st3" d="M820.1,613c0.7,0,2.5-1.2,3.5-2.5l0.8-1.4V609c-0.2-1-0.2-2-0.1-3c-0.1,0.1-0.3,0.3-0.5,0.4l-0.2,0.2
				c-0.9,0.8-1.7,1.1-2.6,1.1c-0.9,0-1.7-0.3-2.6-1.1l-0.2-0.2c-0.7-0.6-1.3-1.2-1.8-1.9c0,0.1,0,0.1,0,0.2c0.2,1.5,0,3-0.5,4.4
				l0.7,1.3C817.5,611.7,819.4,613,820.1,613z"/>
			<path class="st3" d="M818.1,606.4l0.2,0.2c0.9,0.8,1.7,1.1,2.6,1.1c0.9,0,1.7-0.3,2.6-1.1l0.2-0.2c0.2-0.1,0.3-0.3,0.5-0.4
				c0.9-0.9,1.7-1.9,2.1-3.1c0.5-1.5,0.5-3.3,0.2-4.9c-0.2-0.8-0.5-1.6-0.7-2.4c-0.2-0.7-0.6-1.4-0.7-2.2c0.1,0.7-1.8,1.5-2.3,1.9
				c-0.6,0.4-1.2,0.6-1.9,1l0,0c-0.1,0-2.1,1.4-3.1,2c-1.2,0.7-2.7,1.1-3.7,2c0.1,0.7,0.5,1.9,1.1,1.9c0.2,0,0.3,0.3,0.4,0.5
				c0.1,0.7,0.4,1.3,0.8,1.8C816.9,605.2,817.5,605.8,818.1,606.4z"/>
			<path class="st8" d="M821.8,615.5l-0.5-0.6l-0.4,0.8c-0.1,0.2-0.1,0.4-0.1,0.6l0.7,3.4l0.5-1.5l0.5-1.5l-0.3-0.5
				C822.1,615.8,821.9,615.7,821.8,615.5z"/>
			<path class="st8" d="M818,616l-0.3,0.5l0.5,1.5l0.5,1.5l0.7-3.4c0-0.2,0-0.4-0.1-0.6l-0.4-0.8l-0.5,0.6
				C818.2,615.7,818.1,615.8,818,616z"/>
			<path class="st23" d="M821.5,619.5l-0.7-3.4c0-0.2,0-0.4,0.1-0.6l0.4-0.8l-1.2-1.5l-1.2,1.5l0.4,0.8c0.1,0.2,0.1,0.4,0.1,0.6
				l-0.7,3.4l0.9,3c0.3,0,0.7,0,1,0L821.5,619.5z"/>
			<path class="st3" d="M824.4,609.1l-0.8,1.4c-1,1.3-2.8,2.5-3.5,2.5s-2.6-1.3-3.5-2.5l-0.7-1.3v-0.1l-0.3,1l0,0l2.2,6.5l0.3-0.5
				c0.1-0.2,0.3-0.4,0.4-0.6l0.5-0.6l1.2-1.5l1.2,1.5l0.5,0.6c0.2,0.2,0.3,0.4,0.4,0.6l0.3,0.5l2.2-6.5l0,0L824.4,609.1L824.4,609.1
				z"/>
			<path class="st3" d="M826.7,618.3l-1.6-2.9l2.2,0.2c-0.2-0.6-0.6-3.3-1.1-4.2c-0.1-0.1-0.1-0.2-0.3-0.3l-1.2-1l0,0l-2.2,6.5
				l-0.5,1.5l-0.5,1.5l-2.7,11.2L826.7,618.3z"/>
			<path class="st3" d="M820.3,624.7l-1.6-5.1l-0.5-1.5l-0.5-1.5l-2.2-6.5l0,0l-1,0.8l-0.2,0.2c-0.7,0.3-1.2,3.8-1.4,4.5l2.2-0.2
				l-1.6,2.9c-0.1,0.1,4.7,7.3,6.1,9.4L820.3,624.7z"/>
			<path class="st10" d="M823.3,599.1c0.6-0.3,1.4-0.3,2,0"/>
			<path class="st10" d="M817.8,599.1c0.6-0.3,1.4-0.3,2,0"/>
			<circle class="st6" cx="824.2" cy="600.3" r="0.5"/>
			<circle class="st6" cx="819.1" cy="600.3" r="0.5"/>
			<path class="st10" d="M819.5,604.3c0,0,1.7,1.7,3.5,0.2"/>
			<path class="st10" d="M822,599.8c-0.1,0.5-0.1,1,0,1.5c0.1,0.4,0.2,0.8,0.3,1.1c0.1,0.2,0.1,0.4,0,0.6c-0.1,0.2-0.3,0.3-0.5,0.2
				l0,0"/>
		</g>
	</g>
</g>
<g>
	
		<linearGradient id="SVGID_11_" gradientUnits="userSpaceOnUse" x1="650" y1="690.0605" x2="785.2" y2="690.0605" gradientTransform="matrix(1 0 0 1 0 -80)">
		<stop  offset="1.241987e-03" style="stop-color:#FFFFFF;stop-opacity:0.5"/>
		<stop  offset="1" style="stop-color:#CCCCCC"/>
	</linearGradient>
	<polygon class="st24" points="758.9,644.1 785.2,644.1 778.5,633 653.3,576.1 650,578.7 	"/>
	<g id="Layer_8_6_">
		<path class="st3" d="M776,539.3c0,0.1,0,0.2,0,0.2c0,0.1-0.1,0.1-0.2,0.2c-0.8,0.6-1.6,1.2-2.5,1.6c-0.5,0.3-1.2,0.5-1.7,0.3
			c-0.3-0.2-0.6-0.5-0.7-0.8l-0.8-1.4c0.5-0.3,0.6-0.9,0.6-1.5c0-0.7,0-1.5,0-2.2c1.3-0.7,2.8-1.1,4.3-1.1c0.5,0,0.8,0.1,0.7,0.6
			s-0.1,0.9-0.1,1.4C775.7,537.5,775.8,538.4,776,539.3z"/>
		<path class="st4" d="M769.7,638.7v5.3h-0.8l-0.6-2.2l-1.4,2.2h-7.8c3-0.6,5.6-2.6,7-5.3H769.7z"/>
		<path class="st4" d="M774.8,638.7v5.3h0.8l0.6-2.2l1.4,2.2h7.8c-3-0.6-5.6-2.6-7-5.3H774.8z"/>
		<path class="st5" d="M774.6,638.7h3.3c0,0,6.7-47.1,6.2-58c-0.3-6.9-4.2-10.5-4.2-10.5h-15.2c0,0-3.8,3.6-4.2,10.5
			c-0.5,10.9,6.2,58,6.2,58h3.3c0,0,1-56.9,2.4-56.3C772.3,582.4,775.3,604.5,774.6,638.7z"/>
		<path class="st6" d="M762.5,538.4L762.5,538.4c0.9-0.2,1.8-0.2,2.8-0.6c0.1-0.1,0.8-0.5,1.4-0.9l1-0.8l0.3-1v0.1
			c0.5-1.4,0.7-2.9,0.5-4.4c0-0.1,0-0.1,0-0.2c-0.4-0.5-0.6-1.2-0.8-1.8c0-0.2-0.1-0.5-0.4-0.5c-0.7,0-1-1.2-1.1-1.9
			c1.1-0.9,2.5-1.4,3.7-2c1-0.6,3.1-2,3.1-2l0,0c0.7-0.3,1.3-0.6,1.9-1c0.5-0.3,2.4-1.2,2.3-1.9c0.1,0.8,0.5,1.4,0.7,2.2
			s0.6,1.6,0.7,2.4c0.3,1.6,0.3,3.4-0.2,4.9c-0.4,1.2-1.2,2.2-2.1,3.1c-0.1,1-0.1,2,0.1,3v0.1l0,0l0.3,1l1.2,1
			c0.1,0.1,0.2,0.2,0.3,0.3c1.5,0.6,3.5,1,3.8,1.1c1.3,0.4,2.4,0.8,3.2,1.4c-0.4-1.9-0.9-3.9-1.5-5.8c-0.5-1.8-1.1-3.6-1.6-5.3
			s-0.2-3.1-0.4-4.8c-0.5-5-3-8.7-8.1-9.5c-4.7-0.7-8.6,3.2-9.3,7.7c-0.1,0.5-0.1,1.1-0.1,1.7c0,1.5,0.1,3-0.2,4.6
			c-0.4,2.2-0.9,4.4-1.7,6.6c-0.4,1-1.2,2.5-2,4.1c0.1-0.1,0.2-0.1,0.4-0.2C761.5,538.6,762,538.5,762.5,538.4z"/>
		<path class="st8" d="M754.6,571.5l7.1-21.3c0,0-0.5-1.4,2.4,11.3c0.8,3.6-1.5,9.6-2.1,12.9c0,0,12.8,4.3,20.4-0.5
			c-1.1-1.4-2.8-6.6-2.7-11.7c0.1-3.9,1.8-7.7,2.4-10.2c0.6-2.3,0.6-2.3,0.6-2.3l7,21.9l3.2-0.4c-3.6-23.2-7.3-31.1-7.3-31.1
			c-2.2-1.2-8.5-3.8-8.5-3.8c-1.7,1.2-3.7,0.9-5.6,0.1c-1.3-1.1-10.7,1.7-12,3.2c-3.8,11.2-7.4,31.7-7.4,31.7L754.6,571.5z"/>
		<path class="st10" d="M763.7,551.5c0,0,2.1,4.3,7,2"/>
		<path class="st10" d="M781.5,551.5c0,0-2.1,4.3-7,2"/>
		<path class="st3" d="M790,571.5c-2.9,2.4,0.3,2,0.3,2s1.4,3.8,2.4,3.6c1.3-0.2-0.1-6.1-0.1-6.1L790,571.5z"/>
		<path class="st3" d="M752,571c0,0-1.4,5.8-0.1,6.1c1,0.2,2.4-3.6,2.4-3.6s3.1,0.4,0.3-2L752,571z"/>
		<g id="Layer_7_13_">
			<path class="st3" d="M772.4,539c0.7,0,2.5-1.2,3.5-2.5l0.8-1.4V535c-0.2-1-0.2-2-0.1-3c-0.1,0.1-0.3,0.3-0.5,0.4l-0.2,0.2
				c-0.9,0.8-1.7,1.1-2.6,1.1c-0.9,0-1.7-0.3-2.6-1.1l-0.2-0.2c-0.7-0.6-1.3-1.2-1.8-1.9c0,0.1,0,0.1,0,0.2c0.2,1.5,0,3-0.5,4.4
				l0.7,1.3C769.8,537.7,771.7,539,772.4,539z"/>
			<path class="st3" d="M770.4,532.4l0.2,0.2c0.9,0.8,1.7,1.1,2.6,1.1c0.9,0,1.7-0.3,2.6-1.1l0.2-0.2c0.2-0.1,0.3-0.3,0.5-0.4
				c0.9-0.9,1.7-1.9,2.1-3.1c0.5-1.5,0.5-3.3,0.2-4.9c-0.2-0.8-0.5-1.6-0.7-2.4c-0.2-0.7-0.6-1.4-0.7-2.2c0.1,0.7-1.8,1.5-2.3,1.9
				c-0.6,0.4-1.2,0.6-1.9,1l0,0c-0.1,0-2.1,1.4-3.1,2c-1.2,0.7-2.7,1.1-3.7,2c0.1,0.7,0.5,1.9,1.1,1.9c0.2,0,0.3,0.3,0.4,0.5
				c0.1,0.7,0.4,1.3,0.8,1.8C769.2,531.2,769.8,531.9,770.4,532.4z"/>
			<path class="st8" d="M774.1,541.5l-0.5-0.6l-0.4,0.8c-0.1,0.2-0.1,0.4-0.1,0.6l0.7,3.4l0.5-1.5l0.5-1.5l-0.3-0.5
				C774.4,541.9,774.2,541.7,774.1,541.5z"/>
			<path class="st8" d="M770.3,542.1l-0.3,0.5l0.5,1.5l0.5,1.5l0.7-3.4c0-0.2,0-0.4-0.1-0.6l-0.4-0.8l-0.5,0.6
				C770.5,541.7,770.4,541.9,770.3,542.1z"/>
			<path class="st23" d="M773.8,545.5l-0.7-3.4c0-0.2,0-0.4,0.1-0.6l0.4-0.8l-1.2-1.5l-1.2,1.5l0.4,0.8c0.1,0.2,0.1,0.4,0.1,0.6
				l-0.7,3.4l0.9,3c0.3,0,0.7,0,1,0L773.8,545.5z"/>
			<path class="st3" d="M776.7,535.1l-0.8,1.4c-1,1.3-2.8,2.5-3.5,2.5s-2.6-1.3-3.5-2.5l-0.7-1.3v-0.1l-0.3,1l0,0l2.2,6.5l0.3-0.5
				c0.1-0.2,0.3-0.4,0.4-0.6l0.5-0.6l1.2-1.5l1.2,1.5l0.5,0.6c0.2,0.2,0.3,0.4,0.4,0.6l0.3,0.5l2.2-6.5l0,0L776.7,535.1L776.7,535.1
				z"/>
			<path class="st3" d="M779,544.3l-1.6-2.9l2.2,0.2c-0.2-0.6-0.6-3.3-1.1-4.2c-0.1-0.1-0.1-0.2-0.3-0.3l-1.2-1l0,0l-2.2,6.5
				l-0.5,1.5l-0.5,1.5l-2.7,11.2L779,544.3z"/>
			<path class="st3" d="M772.6,550.7l-1.6-5.1l-0.5-1.5l-0.5-1.5l-2.2-6.5l0,0l-1,0.8l-0.2,0.2c-0.7,0.3-1.2,3.8-1.4,4.5l2.2-0.2
				l-1.6,2.9c-0.1,0.1,4.7,7.3,6.1,9.4L772.6,550.7z"/>
			<path class="st10" d="M775.6,525.1c0.6-0.3,1.4-0.3,2,0"/>
			<path class="st10" d="M770.1,525.1c0.6-0.3,1.4-0.3,2,0"/>
			<circle class="st6" cx="776.5" cy="526.3" r="0.5"/>
			<circle class="st6" cx="771.4" cy="526.3" r="0.5"/>
			<path class="st10" d="M771.8,530.3c0,0,1.7,1.7,3.5,0.2"/>
			<path class="st10" d="M774.3,525.8c-0.1,0.5-0.1,1,0,1.5c0.1,0.4,0.2,0.8,0.3,1.1c0.1,0.2,0.1,0.4,0,0.6
				c-0.1,0.2-0.3,0.3-0.5,0.2l0,0"/>
		</g>
	</g>
</g>
<g>
	
		<linearGradient id="SVGID_12_" gradientUnits="userSpaceOnUse" x1="265.1" y1="785.7605" x2="400.3" y2="785.7605" gradientTransform="matrix(1 0 0 1 0 -80)">
		<stop  offset="1.241987e-03" style="stop-color:#FFFFFF;stop-opacity:0.5"/>
		<stop  offset="1" style="stop-color:#CCCCCC"/>
	</linearGradient>
	<polygon class="st25" points="374,739.8 400.3,739.8 393.5,728.7 268.4,671.8 265.1,674.4 	"/>
	<g id="Layer_8_5_">
		<path class="st3" d="M391.1,635c0,0.1,0,0.2,0,0.2c0,0.1-0.1,0.1-0.2,0.2c-0.8,0.6-1.6,1.2-2.5,1.6c-0.5,0.3-1.2,0.5-1.7,0.3
			c-0.3-0.2-0.6-0.5-0.7-0.8l-0.8-1.4c0.5-0.3,0.6-0.9,0.6-1.5c0-0.7,0-1.5,0-2.2c1.3-0.7,2.8-1.1,4.3-1.1c0.5,0,0.8,0.1,0.7,0.6
			s-0.1,0.9-0.1,1.4C390.8,633.2,390.9,634.1,391.1,635z"/>
		<path class="st4" d="M384.7,734.4v5.3h-0.8l-0.6-2.2l-1.4,2.2h-7.8c3-0.6,5.6-2.6,7-5.3H384.7z"/>
		<path class="st4" d="M389.9,734.4v5.3h0.8l0.6-2.2l1.4,2.2h7.8c-3-0.6-5.6-2.6-7-5.3H389.9z"/>
		<path class="st5" d="M389.7,734.4h3.3c0,0,6.7-47.1,6.2-58c-0.3-6.9-4.2-10.5-4.2-10.5h-15.2c0,0-3.8,3.6-4.2,10.5
			c-0.5,10.9,6.2,58,6.2,58h3.3c0,0,1-56.9,2.4-56.3C387.3,678.1,390.4,700.2,389.7,734.4z"/>
		<path class="st6" d="M377.5,634.1L377.5,634.1c0.9-0.2,1.8-0.2,2.8-0.6c0.1-0.1,0.8-0.5,1.4-0.9l1-0.8l0.3-1v0.1
			c0.5-1.4,0.7-2.9,0.5-4.4c0-0.1,0-0.1,0-0.2c-0.4-0.5-0.6-1.2-0.8-1.8c0-0.2-0.1-0.5-0.4-0.5c-0.7,0-1-1.2-1.1-1.9
			c1.1-0.9,2.5-1.4,3.7-2c1-0.6,3.1-2,3.1-2l0,0c0.7-0.3,1.3-0.6,1.9-1c0.5-0.3,2.4-1.2,2.3-1.9c0.1,0.8,0.5,1.4,0.7,2.2
			s0.6,1.6,0.7,2.4c0.3,1.6,0.3,3.4-0.2,4.9c-0.4,1.2-1.2,2.2-2.1,3.1c-0.1,1-0.1,2,0.1,3v0.1l0,0l0.3,1l1.2,1
			c0.1,0.1,0.2,0.2,0.3,0.3c1.5,0.6,3.5,1,3.8,1.1c1.3,0.4,2.4,0.8,3.2,1.4c-0.4-1.9-0.9-3.9-1.5-5.8c-0.5-1.8-1.1-3.6-1.6-5.3
			s-0.2-3.1-0.4-4.8c-0.5-5-3-8.7-8.1-9.5c-4.7-0.7-8.6,3.2-9.3,7.7c-0.1,0.5-0.1,1.1-0.1,1.7c0,1.5,0.1,3-0.2,4.6
			c-0.4,2.2-0.9,4.4-1.7,6.6c-0.4,1-1.2,2.5-2,4.1c0.1-0.1,0.2-0.1,0.4-0.2C376.6,634.3,377.1,634.2,377.5,634.1z"/>
		<path class="st8" d="M369.6,667.2l7.1-21.3c0,0-0.5-1.4,2.4,11.3c0.8,3.6-1.5,9.6-2.1,12.9c0,0,12.8,4.3,20.4-0.5
			c-1.1-1.4-2.8-6.6-2.7-11.7c0.1-3.9,1.8-7.7,2.4-10.2c0.6-2.3,0.6-2.3,0.6-2.3l7,21.9l3.2-0.4c-3.6-23.2-7.3-31.1-7.3-31.1
			c-2.2-1.2-8.5-3.8-8.5-3.8c-1.7,1.2-3.7,0.9-5.6,0.1c-1.3-1.1-10.7,1.7-12,3.2c-3.8,11.2-7.4,31.7-7.4,31.7L369.6,667.2z"/>
		<path class="st10" d="M378.7,647.2c0,0,2.1,4.3,7,2"/>
		<path class="st10" d="M396.6,647.2c0,0-2.1,4.3-7,2"/>
		<path class="st3" d="M405,667.2c-2.9,2.4,0.3,2,0.3,2s1.4,3.8,2.4,3.6c1.3-0.2-0.1-6.1-0.1-6.1L405,667.2z"/>
		<path class="st3" d="M367.1,666.7c0,0-1.4,5.8-0.1,6.1c1,0.2,2.4-3.6,2.4-3.6s3.1,0.4,0.3-2L367.1,666.7z"/>
		<g id="Layer_7_11_">
			<path class="st3" d="M387.4,634.7c0.7,0,2.5-1.2,3.5-2.5l0.8-1.4v-0.1c-0.2-1-0.2-2-0.1-3c-0.1,0.1-0.3,0.3-0.5,0.4l-0.2,0.2
				c-0.9,0.8-1.7,1.1-2.6,1.1s-1.7-0.3-2.6-1.1l-0.2-0.2c-0.7-0.6-1.3-1.2-1.8-1.9c0,0.1,0,0.1,0,0.2c0.2,1.5,0,3-0.5,4.4l0.7,1.3
				C384.8,633.4,386.8,634.7,387.4,634.7z"/>
			<path class="st3" d="M385.5,628.1l0.2,0.2c0.9,0.8,1.7,1.1,2.6,1.1s1.7-0.3,2.6-1.1l0.2-0.2c0.2-0.1,0.3-0.3,0.5-0.4
				c0.9-0.9,1.7-1.9,2.1-3.1c0.5-1.5,0.5-3.3,0.2-4.9c-0.2-0.8-0.5-1.6-0.7-2.4c-0.2-0.7-0.6-1.4-0.7-2.2c0.1,0.7-1.8,1.5-2.3,1.9
				c-0.6,0.4-1.2,0.6-1.9,1l0,0c-0.1,0-2.1,1.4-3.1,2c-1.2,0.7-2.7,1.1-3.7,2c0.1,0.7,0.5,1.9,1.1,1.9c0.2,0,0.3,0.3,0.4,0.5
				c0.1,0.7,0.4,1.3,0.8,1.8C384.2,626.9,384.8,627.6,385.5,628.1z"/>
			<path class="st8" d="M389.1,637.2l-0.5-0.6l-0.4,0.8c-0.1,0.2-0.1,0.4-0.1,0.6l0.7,3.4l0.5-1.5l0.5-1.5l-0.3-0.5
				C389.4,637.6,389.3,637.4,389.1,637.2z"/>
			<path class="st8" d="M385.3,637.8l-0.3,0.5l0.5,1.5l0.5,1.5l0.7-3.4c0-0.2,0-0.4-0.1-0.6l-0.4-0.8l-0.5,0.6
				C385.6,637.4,385.5,637.6,385.3,637.8z"/>
			<path class="st23" d="M388.9,641.2l-0.7-3.4c0-0.2,0-0.4,0.1-0.6l0.4-0.8l-1.2-1.5l-1.2,1.5l0.4,0.8c0.1,0.2,0.1,0.4,0.1,0.6
				l-0.7,3.4l0.9,3c0.3,0,0.7,0,1,0L388.9,641.2z"/>
			<path class="st3" d="M391.7,630.8l-0.8,1.4c-1,1.3-2.8,2.5-3.5,2.5s-2.6-1.3-3.5-2.5l-0.7-1.3v-0.1l-0.3,1l0,0l2.2,6.5l0.3-0.5
				c0.1-0.2,0.3-0.4,0.4-0.6l0.5-0.6l1.2-1.5l1.2,1.5l0.5,0.6c0.2,0.2,0.3,0.4,0.4,0.6l0.3,0.5l2.2-6.5l0,0L391.7,630.8L391.7,630.8
				z"/>
			<path class="st3" d="M394.1,640l-1.6-2.9l2.2,0.2c-0.2-0.6-0.6-3.3-1.1-4.2c-0.1-0.1-0.1-0.2-0.3-0.3l-1.2-1l0,0l-2.2,6.5
				l-0.5,1.5l-0.5,1.5l-2.7,11.2L394.1,640z"/>
			<path class="st3" d="M387.6,646.4l-1.6-5.1l-0.5-1.5l-0.5-1.5l-2.2-6.5l0,0l-1,0.8l-0.2,0.2c-0.7,0.3-1.2,3.8-1.4,4.5l2.2-0.2
				l-1.6,2.9c-0.1,0.1,4.7,7.3,6.1,9.4L387.6,646.4z"/>
			<path class="st10" d="M390.6,620.8c0.6-0.3,1.4-0.3,2,0"/>
			<path class="st10" d="M385.1,620.8c0.6-0.3,1.4-0.3,2,0"/>
			<circle class="st6" cx="391.5" cy="622" r="0.5"/>
			<circle class="st6" cx="386.4" cy="622" r="0.5"/>
			<path class="st10" d="M386.9,626c0,0,1.7,1.7,3.5,0.2"/>
			<path class="st10" d="M389.4,621.5c-0.1,0.5-0.1,1,0,1.5c0.1,0.4,0.2,0.8,0.3,1.1c0.1,0.2,0.1,0.4,0,0.6
				c-0.1,0.2-0.3,0.3-0.5,0.2l0,0"/>
		</g>
	</g>
</g>
<g>
	
		<linearGradient id="SVGID_13_" gradientUnits="userSpaceOnUse" x1="658.6" y1="357.3605" x2="793.8" y2="357.3605" gradientTransform="matrix(1 0 0 1 0 -80)">
		<stop  offset="1.241987e-03" style="stop-color:#FFFFFF;stop-opacity:0.5"/>
		<stop  offset="1" style="stop-color:#CCCCCC"/>
	</linearGradient>
	<polygon class="st26" points="767.4,311.4 793.8,311.4 787,300.3 661.8,243.4 658.6,246 	"/>
	<g id="Layer_8_4_">
		<path class="st3" d="M784.6,206.5c0,0.1,0,0.2,0,0.2c0,0.1-0.1,0.1-0.2,0.2c-0.8,0.6-1.6,1.2-2.5,1.6c-0.5,0.3-1.2,0.5-1.7,0.3
			c-0.3-0.2-0.6-0.5-0.7-0.8l-0.8-1.4c0.5-0.3,0.6-0.9,0.6-1.5c0-0.7,0-1.5,0-2.2c1.3-0.7,2.8-1.1,4.3-1.1c0.5,0,0.8,0.1,0.7,0.6
			s-0.1,0.9-0.1,1.4C784.2,204.8,784.4,205.7,784.6,206.5z"/>
		<path class="st4" d="M778.2,306v5.3h-0.8l-0.6-2.2l-1.4,2.2h-7.8c3-0.6,5.6-2.6,7-5.3H778.2z"/>
		<path class="st4" d="M783.4,306v5.3h0.8l0.6-2.2l1.4,2.2h7.8c-3-0.6-5.6-2.6-7-5.3H783.4z"/>
		<path class="st5" d="M783.1,306h3.3c0,0,6.7-47.1,6.2-58c-0.3-6.9-4.2-10.5-4.2-10.5h-15.2c0,0-3.8,3.6-4.2,10.5
			c-0.5,10.9,6.2,58,6.2,58h3.3c0,0,1-56.9,2.4-56.3C780.8,249.7,783.9,271.8,783.1,306z"/>
		<path class="st6" d="M771,205.6L771,205.6c0.9-0.2,1.8-0.2,2.8-0.6c0.1-0.1,0.8-0.5,1.4-0.9l1-0.8l0.3-1v0.1
			c0.5-1.4,0.7-2.9,0.5-4.4c0-0.1,0-0.1,0-0.2c-0.4-0.5-0.6-1.2-0.8-1.8c0-0.2-0.1-0.5-0.4-0.5c-0.7,0-1-1.2-1.1-1.9
			c1.1-0.9,2.5-1.4,3.7-2c1-0.6,3.1-2,3.1-2l0,0c0.7-0.3,1.3-0.6,1.9-1c0.5-0.3,2.4-1.2,2.3-1.9c0.1,0.8,0.5,1.4,0.7,2.2
			c0.2,0.8,0.6,1.6,0.7,2.4c0.3,1.6,0.3,3.4-0.2,4.9c-0.4,1.2-1.2,2.2-2.1,3.1c-0.1,1-0.1,2,0.1,3v0.1l0,0l0.3,1l1.2,1
			c0.1,0.1,0.2,0.2,0.3,0.3c1.5,0.6,3.5,1,3.8,1.1c1.3,0.4,2.4,0.8,3.2,1.4c-0.4-1.9-0.9-3.9-1.5-5.8c-0.5-1.8-1.1-3.6-1.6-5.3
			c-0.5-1.7-0.2-3.1-0.4-4.8c-0.5-5-3-8.7-8.1-9.5c-4.7-0.7-8.6,3.2-9.3,7.7c-0.1,0.5-0.1,1.1-0.1,1.7c0,1.5,0.1,3-0.2,4.6
			c-0.4,2.2-0.9,4.4-1.7,6.6c-0.4,1-1.2,2.5-2,4.1c0.1-0.1,0.2-0.1,0.4-0.2C770.1,205.9,770.5,205.7,771,205.6z"/>
		<path class="st8" d="M763.1,238.7l7.1-21.3c0,0-0.5-1.4,2.4,11.3c0.8,3.6-1.5,9.6-2.1,12.9c0,0,12.8,4.3,20.4-0.5
			c-1.1-1.4-2.8-6.6-2.7-11.7c0.1-3.9,1.8-7.7,2.4-10.2c0.6-2.3,0.6-2.3,0.6-2.3l7,21.9l3.2-0.4c-3.6-23.2-7.3-31.1-7.3-31.1
			c-2.2-1.2-8.5-3.8-8.5-3.8c-1.7,1.2-3.7,0.9-5.6,0.1c-1.3-1.1-10.7,1.7-12,3.2c-3.8,11.2-7.4,31.7-7.4,31.7L763.1,238.7z"/>
		<path class="st10" d="M772.2,218.7c0,0,2.1,4.3,7,2"/>
		<path class="st10" d="M790,218.7c0,0-2.1,4.3-7,2"/>
		<path class="st3" d="M798.5,238.7c-2.9,2.4,0.3,2,0.3,2s1.4,3.8,2.4,3.6c1.3-0.2-0.1-6.1-0.1-6.1L798.5,238.7z"/>
		<path class="st3" d="M760.6,238.3c0,0-1.4,5.8-0.1,6.1c1,0.2,2.4-3.6,2.4-3.6s3.1,0.4,0.3-2L760.6,238.3z"/>
		<g id="Layer_7_8_">
			<path class="st3" d="M780.9,206.3c0.7,0,2.5-1.2,3.5-2.5l0.8-1.4v-0.1c-0.2-1-0.2-2-0.1-3c-0.1,0.1-0.3,0.3-0.5,0.4l-0.2,0.2
				c-0.9,0.8-1.7,1.1-2.6,1.1c-0.9,0-1.7-0.3-2.6-1.1l-0.2-0.2c-0.7-0.6-1.3-1.2-1.8-1.9c0,0.1,0,0.1,0,0.2c0.2,1.5,0,3-0.5,4.4
				l0.7,1.3C778.3,205,780.2,206.2,780.9,206.3z"/>
			<path class="st3" d="M779,199.7l0.2,0.2c0.9,0.8,1.7,1.1,2.6,1.1c0.9,0,1.7-0.3,2.6-1.1l0.2-0.2c0.2-0.1,0.3-0.3,0.5-0.4
				c0.9-0.9,1.7-1.9,2.1-3.1c0.5-1.5,0.5-3.3,0.2-4.9c-0.2-0.8-0.5-1.6-0.7-2.4c-0.2-0.7-0.6-1.4-0.7-2.2c0.1,0.7-1.8,1.5-2.3,1.9
				c-0.6,0.4-1.2,0.6-1.9,1l0,0c-0.1,0-2.1,1.4-3.1,2c-1.2,0.7-2.7,1.1-3.7,2c0.1,0.7,0.5,1.9,1.1,1.9c0.2,0,0.3,0.3,0.4,0.5
				c0.1,0.7,0.4,1.3,0.8,1.8C777.7,198.5,778.3,199.1,779,199.7z"/>
			<path class="st8" d="M782.6,208.8l-0.5-0.6l-0.4,0.8c-0.1,0.2-0.1,0.4-0.1,0.6l0.7,3.4l0.5-1.5l0.5-1.5l-0.3-0.5
				C782.9,209.1,782.8,208.9,782.6,208.8z"/>
			<path class="st8" d="M778.8,209.3l-0.3,0.5l0.5,1.5l0.5,1.5l0.7-3.4c0-0.2,0-0.4-0.1-0.6l-0.4-0.8l-0.5,0.6
				C779.1,208.9,778.9,209.1,778.8,209.3z"/>
			<path class="st23" d="M782.4,212.8l-0.7-3.4c0-0.2,0-0.4,0.1-0.6l0.4-0.8l-1.2-1.5l-1.2,1.5l0.4,0.8c0.1,0.2,0.1,0.4,0.1,0.6
				l-0.8,3.4l0.9,3c0.3,0,0.7,0,1,0L782.4,212.8z"/>
			<path class="st3" d="M785.2,202.3l-0.8,1.4c-1,1.3-2.8,2.5-3.5,2.5s-2.6-1.3-3.5-2.5l-0.7-1.3v-0.1l-0.3,1l0,0l2.2,6.5l0.3-0.5
				c0.1-0.2,0.3-0.4,0.4-0.6l0.5-0.6l1.2-1.5l1.2,1.5l0.5,0.6c0.2,0.2,0.3,0.4,0.4,0.6l0.3,0.5l2.2-6.5l0,0L785.2,202.3L785.2,202.3
				z"/>
			<path class="st3" d="M787.6,211.5l-1.6-2.9l2.2,0.2c-0.2-0.6-0.6-3.3-1.1-4.2c-0.1-0.1-0.1-0.2-0.3-0.3l-1.2-1l0,0l-2.2,6.5
				l-0.5,1.5l-0.5,1.5l-2.7,11.2L787.6,211.5z"/>
			<path class="st3" d="M781.1,217.9l-1.6-5.1l-0.5-1.5l-0.5-1.5l-2.2-6.5l0,0l-1,0.8l-0.2,0.2c-0.7,0.3-1.2,3.8-1.4,4.5l2.2-0.2
				l-1.6,2.9c-0.1,0.1,4.7,7.3,6.1,9.4L781.1,217.9z"/>
			<path class="st10" d="M784.1,192.3c0.6-0.3,1.4-0.3,2,0"/>
			<path class="st10" d="M778.6,192.3c0.6-0.3,1.4-0.3,2,0"/>
			<circle class="st6" cx="785" cy="193.6" r="0.5"/>
			<circle class="st6" cx="779.9" cy="193.6" r="0.5"/>
			<path class="st10" d="M780.4,197.6c0,0,1.7,1.7,3.5,0.2"/>
			<path class="st10" d="M782.8,193.1c-0.1,0.5-0.1,1,0,1.5c0.1,0.4,0.2,0.8,0.3,1.1c0.1,0.2,0.1,0.4,0,0.6s-0.3,0.3-0.5,0.2l0,0"/>
		</g>
	</g>
</g>
<g>
	
		<linearGradient id="SVGID_14_" gradientUnits="userSpaceOnUse" x1="50.8" y1="596.8605" x2="186" y2="596.8605" gradientTransform="matrix(1 0 0 1 0 -80)">
		<stop  offset="1.241987e-03" style="stop-color:#FFFFFF;stop-opacity:0.5"/>
		<stop  offset="1" style="stop-color:#CCCCCC"/>
	</linearGradient>
	<polygon class="st27" points="159.7,550.9 186,550.9 179.2,539.8 54.1,482.9 50.8,485.6 	"/>
	<g id="Layer_8_3_">
		<path class="st3" d="M176.8,446.1c0,0.1,0,0.2,0,0.2c0,0.1-0.1,0.1-0.2,0.2c-0.8,0.6-1.6,1.2-2.5,1.6c-0.5,0.3-1.2,0.5-1.7,0.3
			c-0.3-0.2-0.6-0.5-0.7-0.8l-0.8-1.4c0.5-0.3,0.6-0.9,0.6-1.5c0-0.7,0-1.5,0-2.2c1.3-0.7,2.8-1.1,4.3-1.1c0.5,0,0.8,0.1,0.7,0.6
			s-0.1,0.9-0.1,1.4C176.5,444.3,176.6,445.2,176.8,446.1z"/>
		<path class="st4" d="M170.5,545.5v5.3h-0.8l-0.6-2.2l-1.4,2.2h-7.8c3-0.6,5.6-2.6,7-5.3H170.5z"/>
		<path class="st4" d="M175.6,545.5v5.3h0.8l0.6-2.2l1.4,2.2h7.8c-3-0.6-5.6-2.6-7-5.3H175.6z"/>
		<path class="st5" d="M175.4,545.5h3.3c0,0,6.7-47.1,6.2-58c-0.3-6.9-4.2-10.5-4.2-10.5h-15.2c0,0-3.8,3.6-4.2,10.5
			c-0.5,10.9,6.2,58,6.2,58h3.3c0,0,1-56.9,2.4-56.3C173,489.3,176.1,511.3,175.4,545.5z"/>
		<path class="st6" d="M163.2,445.2L163.2,445.2c0.9-0.2,1.8-0.2,2.8-0.6c0.1-0.1,0.8-0.5,1.4-0.9l1-0.8l0.3-1v0.1
			c0.5-1.4,0.7-2.9,0.5-4.4c0-0.1,0-0.1,0-0.2c-0.4-0.5-0.6-1.2-0.8-1.8c0-0.2-0.1-0.5-0.4-0.5c-0.7,0-1-1.2-1.1-1.9
			c1.1-0.9,2.5-1.4,3.7-2c1-0.6,3.1-2,3.1-2l0,0c0.7-0.3,1.3-0.6,1.9-1c0.5-0.3,2.4-1.2,2.3-1.9c0.1,0.8,0.5,1.4,0.7,2.2
			s0.6,1.6,0.7,2.4c0.3,1.6,0.3,3.4-0.2,4.9c-0.4,1.2-1.2,2.2-2.1,3.1c-0.1,1-0.1,2,0.1,3v0.1l0,0l0.3,1l1.2,1
			c0.1,0.1,0.2,0.2,0.3,0.3c1.5,0.6,3.5,1,3.8,1.1c1.3,0.4,2.4,0.8,3.2,1.4c-0.4-1.9-0.9-3.9-1.5-5.8c-0.5-1.8-1.1-3.6-1.6-5.3
			s-0.2-3.1-0.4-4.8c-0.5-5-3-8.7-8.1-9.5c-4.7-0.7-8.6,3.2-9.3,7.7c-0.1,0.5-0.1,1.1-0.1,1.7c0,1.5,0.1,3-0.2,4.6
			c-0.4,2.2-0.9,4.4-1.7,6.6c-0.4,1-1.2,2.5-2,4.1c0.1-0.1,0.2-0.1,0.4-0.2C162.3,445.4,162.8,445.3,163.2,445.2z"/>
		<path class="st8" d="M155.4,478.3l7.1-21.3c0,0-0.5-1.4,2.4,11.3c0.8,3.6-1.5,9.6-2.1,12.9c0,0,12.8,4.3,20.4-0.5
			c-1.1-1.4-2.8-6.6-2.7-11.7c0.1-3.9,1.8-7.7,2.4-10.2c0.6-2.3,0.6-2.3,0.6-2.3l7,21.9l3.2-0.4c-3.6-23.2-7.3-31.1-7.3-31.1
			c-2.2-1.2-8.5-3.8-8.5-3.8c-1.7,1.2-3.7,0.9-5.6,0.1c-1.3-1.1-10.7,1.7-12,3.2c-3.8,11.2-7.4,31.7-7.4,31.7L155.4,478.3z"/>
		<path class="st10" d="M164.4,458.3c0,0,2.1,4.3,7,2"/>
		<path class="st10" d="M182.3,458.3c0,0-2.1,4.3-7,2"/>
		<path class="st3" d="M190.7,478.3c-2.9,2.4,0.3,2,0.3,2s1.4,3.8,2.4,3.6c1.3-0.2-0.1-6.1-0.1-6.1L190.7,478.3z"/>
		<path class="st3" d="M152.8,477.9c0,0-1.4,5.8-0.1,6.1c1,0.2,2.4-3.6,2.4-3.6s3.1,0.4,0.3-2L152.8,477.9z"/>
		<g id="Layer_7_6_">
			<path class="st3" d="M173.2,445.8c0.7,0,2.5-1.2,3.5-2.5l0.8-1.4v-0.1c-0.2-1-0.2-2-0.1-3c-0.1,0.1-0.3,0.3-0.5,0.4l-0.2,0.2
				c-0.9,0.8-1.7,1.1-2.6,1.1c-0.9,0-1.7-0.3-2.6-1.1l-0.2-0.2c-0.7-0.6-1.3-1.2-1.8-1.9c0,0.1,0,0.1,0,0.2c0.2,1.5,0,3-0.5,4.4
				l0.7,1.3C170.5,444.6,172.5,445.8,173.2,445.8z"/>
			<path class="st3" d="M171.2,439.3l0.2,0.2c0.9,0.8,1.7,1.1,2.6,1.1c0.9,0,1.7-0.3,2.6-1.1l0.2-0.2c0.2-0.1,0.3-0.3,0.5-0.4
				c0.9-0.9,1.7-1.9,2.1-3.1c0.5-1.5,0.5-3.3,0.2-4.9c-0.2-0.8-0.5-1.6-0.7-2.4c-0.2-0.7-0.6-1.4-0.7-2.2c0.1,0.7-1.8,1.5-2.3,1.9
				c-0.6,0.4-1.2,0.6-1.9,1l0,0c-0.1,0-2.1,1.4-3.1,2c-1.2,0.7-2.7,1.1-3.7,2c0.1,0.7,0.5,1.9,1.1,1.9c0.2,0,0.3,0.3,0.4,0.5
				c0.1,0.7,0.4,1.3,0.8,1.8C169.9,438,170.5,438.7,171.2,439.3z"/>
			<path class="st8" d="M174.9,448.3l-0.5-0.6l-0.4,0.8c-0.1,0.2-0.1,0.4-0.1,0.6l0.7,3.4l0.5-1.5l0.5-1.5l-0.3-0.5
				C175.1,448.7,175,448.5,174.9,448.3z"/>
			<path class="st8" d="M171,448.9l-0.3,0.5l0.5,1.5l0.5,1.5l0.7-3.4c0-0.2,0-0.4-0.1-0.6l-0.4-0.8l-0.5,0.6
				C171.3,448.5,171.2,448.7,171,448.9z"/>
			<path class="st23" d="M174.6,452.4l-0.7-3.4c0-0.2,0-0.4,0.1-0.6l0.4-0.8l-1.2-1.5l-1.2,1.5l0.4,0.8c0.1,0.2,0.1,0.4,0.1,0.6
				l-0.7,3.4l0.9,3c0.3,0,0.7,0,1,0L174.6,452.4z"/>
			<path class="st3" d="M177.4,441.9l-0.8,1.4c-1,1.3-2.8,2.5-3.5,2.5s-2.6-1.3-3.5-2.5l-0.7-1.3v-0.1l-0.3,1l0,0l2.2,6.5l0.3-0.5
				c0.1-0.2,0.3-0.4,0.4-0.6l0.5-0.6l1.2-1.5l1.2,1.5l0.5,0.6c0.2,0.2,0.3,0.4,0.4,0.6l0.3,0.5l2.2-6.5l0,0L177.4,441.9L177.4,441.9
				z"/>
			<path class="st3" d="M179.8,451.1l-1.6-2.9l2.2,0.2c-0.2-0.6-0.6-3.3-1.1-4.2c-0.1-0.1-0.1-0.2-0.3-0.3l-1.2-1l0,0l-2.2,6.5
				l-0.5,1.5l-0.5,1.5l-2.7,11.2L179.8,451.1z"/>
			<path class="st3" d="M173.3,457.5l-1.6-5.1l-0.5-1.5l-0.5-1.5l-2.2-6.5l0,0l-1,0.8l-0.2,0.2c-0.7,0.3-1.2,3.8-1.4,4.5l2.2-0.2
				l-1.6,2.9c-0.1,0.1,4.7,7.3,6.1,9.4L173.3,457.5z"/>
			<path class="st10" d="M176.3,431.9c0.6-0.3,1.4-0.3,2,0"/>
			<path class="st10" d="M170.8,431.9c0.6-0.3,1.4-0.3,2,0"/>
			<circle class="st6" cx="177.2" cy="433.1" r="0.5"/>
			<circle class="st6" cx="172.1" cy="433.1" r="0.5"/>
			<path class="st10" d="M172.6,437.2c0,0,1.7,1.7,3.5,0.2"/>
			<path class="st10" d="M175.1,432.7c-0.1,0.5-0.1,1,0,1.5c0.1,0.4,0.2,0.8,0.3,1.1c0.1,0.2,0.1,0.4,0,0.6
				c-0.1,0.2-0.3,0.3-0.5,0.2l0,0"/>
		</g>
	</g>
</g>
<g>
	
		<linearGradient id="SVGID_15_" gradientUnits="userSpaceOnUse" x1="575.8" y1="202.4605" x2="695.9" y2="202.4605" gradientTransform="matrix(1 0 0 1 0 -80)">
		<stop  offset="1.241987e-03" style="stop-color:#FFFFFF;stop-opacity:0.5"/>
		<stop  offset="1" style="stop-color:#CCCCCC"/>
	</linearGradient>
	<polygon class="st28" points="672.5,152.7 695.9,152.7 689.9,142.9 578.7,92.3 575.8,94.6 	"/>
	<g id="Layer_8_8_">
		<path class="st3" d="M687.7,59.6c0,0.1,0,0.1,0,0.2c0,0.1-0.1,0.1-0.1,0.2c-0.7,0.6-1.4,1.1-2.2,1.5c-0.5,0.2-1,0.5-1.5,0.2
			c-0.3-0.2-0.5-0.4-0.6-0.7l-0.7-1.2c0.5-0.2,0.5-0.8,0.6-1.3c0-0.7,0-1.3,0-2c1.2-0.7,2.5-1,3.9-1c0.5,0,0.7,0.1,0.6,0.6
			c0,0.5-0.1,0.8-0.1,1.2C687.4,58,687.5,58.8,687.7,59.6z"/>
		<path class="st4" d="M682.1,147.9v4.7h-0.7l-0.5-2l-1.2,2h-7c2.7-0.6,5-2.3,6.2-4.7H682.1z"/>
		<path class="st4" d="M686.7,147.9v4.7h0.7l0.5-2l1.2,2h7c-2.7-0.6-5-2.3-6.2-4.7H686.7z"/>
		<path class="st5" d="M686.5,147.9h2.9c0,0,6-41.8,5.5-51.5c-0.3-6.1-3.7-9.3-3.7-9.3h-13.5c0,0-3.4,3.2-3.7,9.3
			c-0.5,9.7,5.5,51.5,5.5,51.5h2.9c0,0,0.9-50.5,2.1-50C684.4,97.9,687.1,117.5,686.5,147.9z"/>
		<path class="st6" d="M675.7,58.8L675.7,58.8c0.8-0.2,1.6-0.2,2.5-0.5c0.1,0,0.7-0.4,1.3-0.8l0.9-0.7l0.3-0.9V56
			c0.5-1.3,0.6-2.6,0.4-3.9c0-0.1,0-0.1,0-0.2c-0.3-0.5-0.6-1-0.7-1.6c0-0.2-0.1-0.4-0.3-0.4c-0.6,0-0.9-1.1-1-1.7
			c1-0.8,2.3-1.2,3.3-1.8c0.9-0.5,2.7-1.8,2.8-1.8l0,0c0.6-0.3,1.2-0.5,1.7-0.9c0.4-0.3,2.1-1.1,2-1.7c0.1,0.7,0.4,1.3,0.6,1.9
			c0.2,0.7,0.5,1.4,0.6,2.2c0.3,1.4,0.3,3-0.2,4.4c-0.4,1.1-1.1,2-1.9,2.7c-0.1,0.9-0.1,1.8,0.1,2.7c0,0,0,0,0,0.1l0,0l0.3,0.9
			l1.1,0.9c0.1,0.1,0.2,0.2,0.2,0.3c1.3,0.5,3.2,0.9,3.4,1c1.2,0.3,2.1,0.7,2.8,1.3c-0.4-1.7-0.8-3.4-1.3-5.1
			c-0.4-1.6-1-3.2-1.4-4.7s-0.2-2.7-0.3-4.3c-0.4-4.5-2.7-7.8-7.2-8.5c-4.2-0.7-7.7,2.8-8.2,6.8c-0.1,0.5-0.1,1-0.1,1.5
			c0,1.3,0.1,2.7-0.2,4.1c-0.3,2-0.8,3.9-1.5,5.8c-0.3,0.9-1.1,2.3-1.7,3.7c0.1-0.1,0.2-0.1,0.3-0.2C674.8,59,675.3,58.8,675.7,58.8
			z"/>
		<path class="st8" d="M668.7,88.2l6.3-19c0,0-0.5-1.2,2.1,10c0.7,3.2-1.3,8.5-1.9,11.5c0,0,11.4,3.8,18.1-0.5
			c-1-1.3-2.5-5.9-2.4-10.4c0.1-3.5,1.6-6.8,2.2-9c0.5-2.1,0.5-2.1,0.5-2.1l6.2,19.4l2.8-0.4c-3.2-20.6-6.5-27.7-6.5-27.7
			c-1.9-1.1-7.5-3.4-7.5-3.4c-1.5,1.1-3.2,0.8-5,0.1c-1.2-0.9-9.5,1.5-10.7,2.8c-3.4,9.9-6.5,28.1-6.5,28.1L668.7,88.2z"/>
		<path class="st10" d="M676.7,70.4c0,0,1.8,3.8,6.2,1.7"/>
		<path class="st10" d="M692.6,70.4c0,0-1.8,3.8-6.2,1.7"/>
		<path class="st3" d="M700.1,88.2c-2.6,2.1,0.2,1.8,0.2,1.8s1.3,3.4,2.1,3.2c1.2-0.2-0.1-5.4-0.1-5.4L700.1,88.2z"/>
		<path class="st3" d="M666.4,87.8c0,0-1.2,5.2-0.1,5.4c0.9,0.2,2.1-3.2,2.1-3.2s2.8,0.4,0.2-1.8L666.4,87.8z"/>
		<g id="Layer_7_16_">
			<path class="st3" d="M684.5,59.3c0.6,0,2.2-1.1,3.1-2.2l0.7-1.2c0,0,0,0,0-0.1c-0.2-0.9-0.2-1.8-0.1-2.7
				c-0.1,0.1-0.3,0.3-0.4,0.4l-0.2,0.2c-0.8,0.7-1.6,1-2.3,1c-0.8,0-1.5-0.3-2.3-1l-0.2-0.2c-0.6-0.5-1.1-1.1-1.6-1.7
				c0,0.1,0,0.1,0,0.2c0.2,1.3,0,2.7-0.4,3.9l0.7,1.2C682.2,58.2,683.9,59.3,684.5,59.3z"/>
			<path class="st3" d="M682.8,53.5l0.2,0.2c0.8,0.7,1.6,1,2.3,1c0.8,0,1.5-0.3,2.3-1l0.2-0.2c0.1-0.1,0.3-0.2,0.4-0.4
				c0.8-0.8,1.5-1.7,1.9-2.7c0.5-1.4,0.4-3,0.2-4.4c-0.1-0.7-0.4-1.4-0.6-2.2c-0.2-0.6-0.5-1.2-0.6-1.9c0.1,0.6-1.6,1.4-2,1.7
				c-0.5,0.4-1.1,0.6-1.7,0.9l0,0c-0.1,0-1.9,1.3-2.8,1.8c-1.1,0.6-2.4,1-3.3,1.8c0.1,0.6,0.4,1.7,1,1.7c0.2,0,0.3,0.2,0.3,0.4
				c0.1,0.6,0.3,1.1,0.7,1.6C681.6,52.4,682.2,53,682.8,53.5z"/>
			<path class="st8" d="M686,61.6l-0.5-0.6l-0.4,0.7c-0.1,0.2-0.1,0.3-0.1,0.5l0.7,3l0.4-1.4l0.4-1.3l-0.3-0.4
				C686.3,61.9,686.1,61.7,686,61.6z"/>
			<path class="st8" d="M682.6,62.1l-0.3,0.4l0.4,1.3l0.4,1.4l0.7-3c0-0.2,0-0.3-0.1-0.5l-0.4-0.7l-0.5,0.6
				C682.8,61.7,682.7,61.9,682.6,62.1z"/>
			<path class="st23" d="M685.8,65.1l-0.7-3c0-0.2,0-0.3,0.1-0.5l0.4-0.7l-1.1-1.3l-1.1,1.3l0.4,0.7c0.1,0.1,0.1,0.3,0.1,0.5l-0.7,3
				l0.8,2.7c0.3,0,0.6,0,0.9,0L685.8,65.1z"/>
			<path class="st3" d="M688.3,55.9l-0.7,1.2c-0.9,1.2-2.5,2.2-3.1,2.2s-2.3-1.1-3.1-2.2l-0.7-1.2v-0.1l-0.3,0.9l0,0l1.9,5.8
				l0.3-0.4c0.1-0.2,0.2-0.3,0.4-0.5l0.5-0.6l1.1-1.3l1.1,1.3l0.5,0.6c0.1,0.2,0.3,0.3,0.4,0.5l0.3,0.4l1.9-5.8l0,0L688.3,55.9
				L688.3,55.9z"/>
			<path class="st3" d="M690.4,64l-1.5-2.6l2,0.2c-0.2-0.5-0.5-2.9-1-3.8c-0.1-0.1-0.1-0.2-0.2-0.3l-1.1-0.9l0,0l-1.9,5.8l-0.4,1.3
				l-0.4,1.4l-2.4,9.9L690.4,64z"/>
			<path class="st3" d="M684.7,69.7l-1.4-4.6l-0.4-1.4l-0.4-1.3l-1.9-5.8l0,0l-0.9,0.7l-0.2,0.1c-0.6,0.3-1,3.4-1.2,4l2-0.2
				l-1.5,2.6c-0.1,0.1,4.2,6.5,5.4,8.4L684.7,69.7z"/>
			<path class="st10" d="M687.3,47c0.6-0.3,1.2-0.3,1.8,0"/>
			<path class="st10" d="M682.4,47c0.6-0.3,1.2-0.3,1.8,0"/>
			<circle class="st6" cx="688.1" cy="48.1" r="0.5"/>
			<circle class="st6" cx="683.6" cy="48.1" r="0.5"/>
			<path class="st10" d="M684,51.6c0,0,1.5,1.5,3.1,0.1"/>
			<path class="st10" d="M686.2,47.6c-0.1,0.4-0.1,0.9,0,1.4c0.1,0.3,0.2,0.7,0.2,1c0.1,0.2,0.1,0.3,0,0.5s-0.3,0.3-0.4,0.2l0,0"/>
		</g>
	</g>
</g>
<g>
	
		<linearGradient id="SVGID_16_" gradientUnits="userSpaceOnUse" x1="322.4" y1="183.4105" x2="449.5" y2="183.4105" gradientTransform="matrix(1 0 0 1 0 -80)">
		<stop  offset="1.241987e-03" style="stop-color:#FFFFFF;stop-opacity:0.5"/>
		<stop  offset="1" style="stop-color:#CCCCCC"/>
	</linearGradient>
	<polygon class="st29" points="424.8,135.4 449.5,135.4 443.2,125 325.5,71.5 322.4,73.9 	"/>
	<g id="Layer_8_7_">
		<path class="st3" d="M440.9,36.8c0,0.1,0,0.2,0,0.2c0,0.1-0.1,0.1-0.1,0.2c-0.7,0.6-1.5,1.1-2.3,1.5c-0.5,0.3-1.1,0.5-1.6,0.2
			c-0.3-0.2-0.5-0.4-0.7-0.8l-0.8-1.3c0.5-0.2,0.6-0.9,0.6-1.4c0-0.7,0-1.4,0-2.1c1.2-0.7,2.6-1.1,4.1-1.1c0.5,0,0.7,0.1,0.7,0.6
			c-0.1,0.5-0.1,0.9-0.1,1.3C440.6,35.2,440.7,36,440.9,36.8z"/>
		<path class="st4" d="M434.9,130.3v5h-0.7l-0.5-2.1l-1.3,2.1H425c2.8-0.6,5.2-2.4,6.6-5H434.9z"/>
		<path class="st4" d="M439.7,130.3v5h0.7l0.5-2.1l1.3,2.1h7.4c-2.8-0.6-5.3-2.4-6.6-5H439.7z"/>
		<path class="st5" d="M439.5,130.3h3.1c0,0,6.3-44.3,5.8-54.5c-0.3-6.5-3.9-9.9-3.9-9.9h-14.3c0,0-3.6,3.4-3.9,9.9
			c-0.5,10.3,5.8,54.5,5.8,54.5h3.1c0,0,1-53.5,2.2-52.9C437.3,77.4,440.2,98.2,439.5,130.3z"/>
		<path class="st6" d="M428.1,36L428.1,36c0.9-0.2,1.7-0.2,2.7-0.6c0.1-0.1,0.8-0.4,1.3-0.8l1-0.8l0.3-0.9V33
			c0.5-1.3,0.6-2.8,0.4-4.2c0-0.1,0-0.1,0-0.2c-0.4-0.5-0.6-1.1-0.7-1.7c0-0.2-0.1-0.4-0.3-0.4c-0.6,0-0.9-1.2-1.1-1.8
			c1-0.8,2.4-1.3,3.5-1.9c1-0.5,2.9-1.9,2.9-1.9l0,0c0.6-0.3,1.3-0.5,1.8-0.9c0.5-0.3,2.2-1.1,2.2-1.8c0.1,0.7,0.4,1.3,0.6,2
			c0.2,0.8,0.5,1.5,0.7,2.3c0.3,1.5,0.3,3.2-0.2,4.6c-0.4,1.1-1.1,2.1-2,2.9c-0.1,0.9-0.1,1.9,0.1,2.8v0.1l0,0l0.3,0.9l1.2,0.9
			c0.1,0.1,0.2,0.2,0.2,0.3c1.4,0.5,3.3,1,3.5,1c1.3,0.4,2.2,0.7,3,1.3c-0.4-1.8-0.9-3.6-1.4-5.4c-0.5-1.7-1-3.3-1.5-5
			c-0.5-1.6-0.2-2.9-0.3-4.5c-0.5-4.7-2.9-8.2-7.6-9c-4.5-0.7-8.1,3-8.7,7.2c-0.1,0.5-0.1,1-0.1,1.6c0,1.4,0.1,2.8-0.2,4.3
			c-0.3,2.1-0.9,4.2-1.6,6.2c-0.4,1-1.1,2.4-1.8,3.9c0.1-0.1,0.2-0.1,0.3-0.2C427.2,36.2,427.7,36.1,428.1,36z"/>
		<path class="st8" d="M420.7,67.1l6.7-20.1c0,0-0.5-1.3,2.3,10.6c0.8,3.3-1.4,9-2,12.1c0,0,12.1,4.1,19.1-0.5
			c-1-1.4-2.7-6.2-2.5-11c0.1-3.7,1.7-7.2,2.3-9.5c0.5-2.2,0.5-2.2,0.5-2.2l6.6,20.6l3-0.4c-3.4-21.8-6.9-29.3-6.9-29.3
			c-2-1.2-7.9-3.6-7.9-3.6c-1.6,1.2-3.4,0.8-5.3,0.1c-1.3-1-10.1,1.6-11.3,3c-3.6,10.5-6.9,29.8-6.9,29.8L420.7,67.1z"/>
		<path class="st10" d="M429.2,48.3c0,0,2,4.1,6.6,1.8"/>
		<path class="st10" d="M446,48.3c0,0-2,4.1-6.6,1.8"/>
		<path class="st3" d="M454,67.1c-2.7,2.2,0.2,1.9,0.2,1.9s1.3,3.6,2.3,3.4c1.2-0.2-0.1-5.7-0.1-5.7L454,67.1z"/>
		<path class="st3" d="M418.3,66.7c0,0-1.3,5.5-0.1,5.7c0.9,0.2,2.3-3.4,2.3-3.4s3,0.4,0.2-1.9L418.3,66.7z"/>
		<g id="Layer_7_15_">
			<path class="st3" d="M437.4,36.6c0.6,0,2.4-1.1,3.3-2.4l0.7-1.3v-0.1c-0.2-0.9-0.2-1.9-0.1-2.8c-0.1,0.1-0.3,0.3-0.4,0.4
				l-0.2,0.2c-0.8,0.7-1.6,1.1-2.5,1.1c-0.8,0-1.6-0.3-2.5-1.1l-0.2-0.2c-0.6-0.5-1.2-1.1-1.7-1.8c0,0.1,0,0.1,0,0.2
				c0.2,1.4,0,2.8-0.5,4.2l0.7,1.3C435,35.4,436.8,36.6,437.4,36.6z"/>
			<path class="st3" d="M435.6,30.4l0.2,0.2c0.8,0.7,1.6,1.1,2.5,1.1c0.8,0,1.6-0.3,2.5-1.1l0.2-0.2c0.1-0.1,0.3-0.3,0.4-0.4
				c0.9-0.8,1.6-1.8,2-2.9c0.5-1.4,0.5-3.1,0.2-4.6c-0.2-0.8-0.5-1.5-0.7-2.3c-0.2-0.7-0.6-1.3-0.6-2c0.1,0.6-1.7,1.5-2.2,1.8
				c-0.5,0.4-1.2,0.6-1.8,0.9l0,0c-0.1,0-2,1.3-2.9,1.9c-1.1,0.6-2.5,1.1-3.5,1.9c0.1,0.7,0.4,1.8,1.1,1.8c0.2,0,0.3,0.2,0.3,0.4
				c0.1,0.6,0.4,1.2,0.7,1.7C434.4,29.3,435,29.9,435.6,30.4z"/>
			<path class="st8" d="M439,38.9l-0.5-0.6l-0.4,0.7c-0.1,0.2-0.1,0.3-0.1,0.5l0.7,3.2l0.4-1.4l0.5-1.4l-0.3-0.5
				C439.3,39.3,439.2,39.1,439,38.9z"/>
			<path class="st8" d="M435.5,39.5l-0.3,0.5l0.5,1.4l0.4,1.4l0.7-3.2c0-0.2,0-0.4-0.1-0.5l-0.4-0.7l-0.5,0.6
				C435.7,39.1,435.6,39.3,435.5,39.5z"/>
			<path class="st23" d="M438.8,42.7l-0.7-3.2c0-0.2,0-0.4,0.1-0.5l0.4-0.7l-1.1-1.4l-1.1,1.4l0.4,0.7c0.1,0.2,0.1,0.3,0.1,0.5
				l-0.7,3.2l0.9,2.9c0.3,0,0.7,0,1,0L438.8,42.7z"/>
			<path class="st3" d="M441.4,32.9l-0.7,1.3c-0.9,1.2-2.6,2.3-3.3,2.4c-0.6,0-2.4-1.2-3.3-2.4l-0.7-1.3v-0.1l-0.3,0.9l0,0l2.1,6.1
				l0.3-0.5c0.1-0.2,0.2-0.4,0.4-0.5l0.5-0.6l1.1-1.4l1.1,1.4l0.5,0.6c0.1,0.2,0.3,0.3,0.4,0.5l0.3,0.5l2.1-6.1l0,0L441.4,32.9
				L441.4,32.9z"/>
			<path class="st3" d="M443.7,41.5l-1.5-2.8l2.1,0.2c-0.2-0.6-0.6-3.1-1.1-4c-0.1-0.1-0.1-0.2-0.2-0.3l-1.2-0.9l0,0l-2.1,6.1
				l-0.5,1.4l-0.4,1.4l-2.5,10.5L443.7,41.5z"/>
			<path class="st3" d="M437.6,47.5l-1.5-4.8l-0.4-1.4l-0.5-1.4l-2.1-6.1l0,0l-1,0.8l-0.2,0.1c-0.6,0.3-1.1,3.6-1.3,4.3l2.1-0.2
				l-1.5,2.8c-0.1,0.1,4.4,6.9,5.7,8.8L437.6,47.5z"/>
			<path class="st10" d="M440.4,23.5c0.6-0.3,1.3-0.3,1.9,0"/>
			<path class="st10" d="M435.2,23.5c0.6-0.3,1.3-0.3,1.9,0"/>
			<circle class="st6" cx="441.3" cy="24.7" r="0.5"/>
			<circle class="st6" cx="436.5" cy="24.7" r="0.5"/>
			<path class="st10" d="M436.9,28.4c0,0,1.6,1.6,3.3,0.2"/>
			<path class="st10" d="M439.2,24.2c-0.1,0.5-0.1,1,0,1.4s0.2,0.7,0.3,1.1c0.1,0.2,0.1,0.4,0,0.5c-0.1,0.2-0.3,0.3-0.4,0.2l0,0"/>
		</g>
	</g>
</g>
<g id="Layer_7" class="st30">
	<path class="st31" d="M-25.1,685.4l17.9-17.6l0.3-6.7c-2,1.1-3.9,2.3-5.6,3.7c-2.4,2.2-4.6,4.4-7.7,5.7c-1.9,0.6-4,0.8-5.9,0.5
		l-1-0.1c-2.4,0-5-0.2-6.8-1.1c-3-1.6-5-4-7.1-6.4c-1.6-1.8-3.8-3-5.7-4.6v0.4l-0.3,5.6l20.8,20.6
		C-25.9,685.6-25.5,685.6-25.1,685.4L-25.1,685.4z"/>
	<path class="st31" d="M-41,663.3c2.1,2.4,4.1,4.8,7.1,6.4c1.8,1,4.4,1.1,6.8,1.2l0.9,0.1c2,0.3,4,0.1,5.9-0.5
		c3.2-1.3,5.4-3.5,7.7-5.7c1.8-1.4,3.6-2.6,5.6-3.7c1.1-0.6,2-1.4,2.8-2.3c1.1-1.2,1.9-2.6,2.4-4.2c0.8-2.3,0.7-6,2.7-7.8
		c1.8-1.6,3.5-2.2,4.9-4.4c2.2-4,3.3-8.6,3.2-13.2c0-1.2-0.6-3.4-2.4-2.3c-0.8,0.5-0.5,1.9-1.2,2.3H5.3l-0.7,1.9L2.1,631
		c0.1-1.9,0.3-3.7,0.7-5.6c0.3-4,0.7-8,0-11.9c-0.9-5-8.2-7.7-12.2-10.3c-0.7-0.4-1.6-1.5-2.4-1.7c-1.2-0.3-0.5-0.2-1.7,0.4
		c-4.5,2.3-7.1,4.7-12.6,4.4c-4.5-0.2-8.9-1.3-13.3-1.2c-6.1,0.1-11.7,4-12.7,10c-0.4,2.2-0.2,4.6-0.4,6.9c-0.2,1.6-0.3,3.2-0.3,4.7
		c0,0.5,0,1-0.1,1.6l-3.2-0.2c0-0.5,0.1-1,0.1-1.3c0.1-0.8,0.1-1.4,0.1-2.1c0-0.3-0.2-0.7-0.5-0.9c-1.7-1.3-2.5,0.8-2.6,2
		c-0.6,4.6,0,9.2,1.8,13.4c1.1,2.4,2.8,3.1,4.4,4.9c1.8,2,1.3,5.6,1.9,8c0.4,1.6,1.1,3.1,2,4.4c0.6,0.8,1.3,1.6,2.1,2.2
		C-44.8,660.2-42.6,661.5-41,663.3z"/>
	<path class="st32" d="M-55.9,626.7c0,0.3-0.1,0.8-0.1,1.3l3.2,0.2c0-0.5,0.1-1,0.1-1.6c0-1.6,0.1-3.2,0.3-4.7
		c0.2-2.3,0.1-4.6,0.4-6.9c0.9-5.9,6.6-9.8,12.7-10c4.5-0.1,8.9,1,13.3,1.2c5.5,0.3,8.1-2.1,12.6-4.4c1.2-0.6,0.5-0.7,1.7-0.4
		c0.8,0.2,1.7,1.3,2.4,1.7c4,2.6,11.3,5.3,12.2,10.3c0.7,4,0.3,7.9,0,11.9c-0.4,1.8-0.6,3.7-0.7,5.6l2.5,0.1l0.7-1.9
		c0.8-2,1.5-4,1.7-4.9c0.8-3.1,1.3-6.2,1.5-9.4c1.3-7.6,2.1-14.8-2.6-21.5c-5-7.1-12.8-11.5-17.1-11.2c-0.2,0-3.1,0.1-2.8,0.4
		c-1.4-1.3-4.1-1.6-6-2.1c-9.9-2.7-22.8,2.5-30.4,8.3c-8,6.2-7.3,14.6-6.8,22.8c0.2,2.8,0,6,0.7,8.7c0.4,1.4,0.5,2.9,0.5,4.3
		C-55.8,625.3-55.9,626-55.9,626.7z"/>
	<path class="st33" d="M-33.3,715.4l2.8,7.2l2.7-21.4c0.1-1-0.1-2-0.6-2.9l-2.2-4l-6.7,11L-33.3,715.4z"/>
	<path class="st33" d="M-20.8,698.9c-0.4,0.9-0.4,1.9-0.2,2.9l6.2,22.8l1.6-7.2l2.3-9l0.1-0.7l-8.6-12.4L-20.8,698.9z"/>
	<path class="st34" d="M-21,701.8c-0.3-0.9-0.2-2,0.2-2.9l1.6-3.7l-5.7-8.2c-0.2-0.4-0.6-0.5-1-0.3c-0.1,0.1-0.2,0.1-0.3,0.2
		l-4.4,7.3l2.2,4c0.5,0.9,0.7,1.9,0.6,2.9l-2.7,21.5l4.9,12.7c2.9-0.1,5.7-0.2,8.6-0.6l2.3-10.1L-21,701.8z"/>
	<path class="st35" d="M30.3,685c-4.9-0.7-16.6-3-25.1-5.1c1.1,1.3,2,2.7,2.7,4.2c2.1,4.3,3.6,7.4,4.3,9.5l-11.7,5.2l10.6,5.6
		C4.8,713.1-0.6,722.5-5,732.3c20.4-5.6,38-18.6,49.3-36.5c-0.4-0.6-0.8-1.3-1.3-1.9C38.8,688.6,37,686,30.3,685z"/>
	<path class="st31" d="M-40,698.1l2.8,7.2l6.7-11l4.4-7.3c0.2-0.3,0.7-0.4,1-0.2c0.1,0.1,0.2,0.2,0.2,0.3l5.7,8.2l8.6,12.4l6.3-34.1
		l-2.3-6.3l-0.5,0.5l-18,17.6c-0.3,0.2-0.7,0.2-1-0.1l-20.8-20.6l-0.2-0.2l-3.2,5.8c0.3-0.3,0.7-0.6,1.1-0.8L-40,698.1z"/>
	<path class="st31" d="M11.1,704.4l-10.6-5.6l11.7-5.3c-0.7-2-2.2-5.2-4.3-9.5c-0.7-1.5-1.6-2.9-2.7-4.2c-2.6-3.2-5.7-5.9-9.3-7.9
		l-0.3,1.4l-6.3,34.1l-0.1,0.7l-2.3,9l-1.6,7.2l-2.3,10.1c4.1-0.5,8.1-1.3,12.1-2.3C-0.5,722.5,4.8,713.1,11.1,704.4z"/>
	<path class="st31" d="M-33.3,715.4l-3.9-10.1l-2.8-7.2l-9.3-28.6c-0.4,0.2-0.8,0.5-1.1,0.8c-2,1.7-6.2,6-9.7,9.9
		c-3.2,3.5-6,6.8-6.1,7.6l16.9,6.8l-12.9,11.7c7.3,8.9,14.6,16.9,21.6,27.8c4.5,0.7,9,1.1,13.5,1.1c0.6,0,1.1,0,1.6,0l-5-12.6
		L-33.3,715.4z"/>
	<path class="st36" d="M-16.9,624.4c2.9-1.3,6.3-1.3,9.2,0"/>
	<path class="st36" d="M-41.7,624.4c2.9-1.3,6.3-1.3,9.2,0"/>
	<circle class="st32" cx="-12.7" cy="630" r="2.4"/>
	
		<ellipse transform="matrix(1 -1.222496e-03 1.222496e-03 1 -0.7702 -4.329457e-02)" class="st32" cx="-35.8" cy="630" rx="2.4" ry="2.4"/>
	<path class="st36" d="M-33.6,653.4c0,0,7.7,7.5,15.8,0.7"/>
	<path class="st36" d="M-22.3,627.8c-0.5,2.7-0.5,5.5-0.2,8.2c0.2,2.1,0.7,4.1,1.1,6.2c0.2,1,0.2,2.1,0,3.1c-0.3,1-1.2,1.7-1.8,1.2"
		/>
	<path class="st31" d="M207.1,682.4l17.9-17.6l0.3-6.7c-2,1.1-3.9,2.3-5.6,3.7c-2.4,2.2-4.6,4.4-7.7,5.7c-1.9,0.6-4,0.8-6,0.5
		l-0.9-0.1c-2.4,0-5-0.2-6.8-1.1c-3-1.6-5-4-7.1-6.4c-1.6-1.8-3.8-3-5.7-4.6v0.4l-0.3,5.6l20.8,20.6
		C206.3,682.7,206.8,682.7,207.1,682.4z"/>
	<path class="st31" d="M191.2,660.4c2.1,2.4,4.1,4.8,7.1,6.4c1.8,1,4.4,1.1,6.8,1.2l0.9,0.1c2,0.3,4,0.1,6-0.5
		c3.2-1.3,5.4-3.5,7.7-5.7c1.8-1.4,3.6-2.6,5.6-3.7c1.1-0.6,2-1.4,2.8-2.3c1.1-1.2,1.9-2.6,2.4-4.2c0.8-2.3,0.7-6,2.7-7.8
		c1.8-1.6,3.5-2.2,4.9-4.4c2.2-4,3.3-8.6,3.2-13.2c0-1.2-0.6-3.4-2.4-2.3c-0.8,0.5-0.5,1.9-1.2,2.3h-0.1l-0.7,1.9l-2.5-0.1
		c0.1-1.9,0.3-3.7,0.7-5.6c0.3-4,0.7-8,0-11.9c-0.9-5-8.2-7.7-12.2-10.3c-0.7-0.4-1.6-1.5-2.4-1.7c-1.2-0.3-0.5-0.2-1.7,0.4
		c-4.5,2.3-7.1,4.7-12.6,4.4c-4.5-0.2-8.9-1.3-13.3-1.2c-6.1,0.1-11.7,4-12.7,10c-0.4,2.2-0.2,4.6-0.4,6.9c-0.2,1.6-0.3,3.2-0.3,4.7
		c0,0.5,0,1-0.1,1.6l-3.2-0.2c0-0.5,0.1-1,0.1-1.3c0.1-0.8,0.1-1.4,0.1-2.1c0-0.3-0.2-0.7-0.5-0.9c-1.7-1.3-2.5,0.8-2.6,2
		c-0.6,4.6,0.1,9.2,1.9,13.4c1.1,2.4,2.8,3.1,4.4,4.9c1.8,2,1.3,5.6,1.9,8c0.4,1.6,1.1,3.1,2,4.4c0.6,0.8,1.3,1.6,2.1,2.2
		C187.4,657.3,189.7,658.6,191.2,660.4z"/>
	<path class="st32" d="M176.3,623.8c0,0.3-0.1,0.8-0.1,1.3l3.2,0.2c0-0.5,0.1-1,0.1-1.6c0-1.6,0.1-3.2,0.3-4.7
		c0.2-2.3,0.1-4.6,0.4-6.9c0.9-5.9,6.6-9.8,12.7-10c4.5-0.1,8.9,1,13.3,1.2c5.5,0.3,8.1-2.1,12.6-4.4c1.2-0.6,0.5-0.7,1.7-0.4
		c0.8,0.2,1.7,1.3,2.4,1.7c4,2.6,11.3,5.3,12.2,10.3c0.7,4,0.3,7.9,0,11.9c-0.4,1.8-0.6,3.7-0.7,5.6l2.5,0.1l0.7-1.9
		c0.8-2,1.5-4,1.7-4.9c0.8-3.1,1.3-6.2,1.5-9.4c1.3-7.6,2.1-14.8-2.6-21.5c-5-7.1-12.8-11.5-17.1-11.2c-0.2,0-3.1,0.1-2.8,0.4
		c-1.5-1.3-4.1-1.6-6-2.1c-9.9-2.7-22.8,2.4-30.4,8.2c-8,6.1-7.3,14.6-6.8,22.8c0.2,2.8,0,6,0.7,8.7c0.4,1.4,0.5,2.9,0.5,4.3
		C176.4,622.4,176.4,623,176.3,623.8z"/>
	<path class="st33" d="M198.9,712.4l2.8,7.2l2.7-21.4c0.1-1-0.1-2-0.6-2.9l-2.2-4l-6.6,11L198.9,712.4z"/>
	<path class="st33" d="M211.4,696c-0.4,0.9-0.4,1.9-0.2,2.9l6.2,22.8l1.6-7.2l2.3-9l0.1-0.7l-8.6-12.4L211.4,696z"/>
	<path class="st34" d="M211.2,698.8c-0.3-0.9-0.2-2,0.2-2.9l1.6-3.7l-5.7-8.2c-0.2-0.4-0.6-0.5-1-0.3c-0.1,0.1-0.2,0.1-0.3,0.2
		l-4.4,7.3l2.2,4c0.5,0.9,0.7,1.9,0.6,2.9l-2.7,21.4l4.9,12.7c2.9-0.1,5.7-0.2,8.5-0.6l2.3-10.1L211.2,698.8z"/>
	<path class="st37" d="M262.6,682.1c-4.9-0.7-16.6-3-25.1-5.1c1.1,1.3,2,2.7,2.7,4.2c2.1,4.3,3.6,7.5,4.3,9.5l-11.7,5.3l10.6,5.6
		c-6.3,8.7-11.7,18.1-16.1,27.9c20.4-5.6,38-18.6,49.3-36.5c-0.4-0.6-0.8-1.3-1.3-1.9C271,685.7,269.2,683.1,262.6,682.1z"/>
	<path class="st31" d="M192.2,695.2l2.8,7.2l6.6-11l4.4-7.3c0.2-0.3,0.7-0.4,1-0.2c0.1,0.1,0.2,0.2,0.2,0.3l5.7,8.2l8.6,12.4
		l6.3-34.1l-2.3-6.3l-0.5,0.5l-17.9,17.6c-0.3,0.2-0.7,0.2-1-0.1l-20.7-20.6l-0.2-0.2l-3.2,5.8c0.3-0.3,0.7-0.6,1.1-0.8L192.2,695.2
		z"/>
	<path class="st31" d="M243.4,701.5l-10.6-5.6l11.7-5.3c-0.7-2-2.2-5.2-4.3-9.5c-0.7-1.5-1.6-2.9-2.7-4.2c-2.6-3.2-5.7-5.9-9.3-7.9
		l-0.3,1.4l-6.3,34.1l-0.1,0.7l-2.3,9l-1.6,7.2l-2.3,10.1c4.1-0.5,8.1-1.3,12.1-2.4C231.7,719.5,237.1,710.2,243.4,701.5z"/>
	<path class="st37" d="M182.9,691.7l-16.9-6.8c0.1-0.8,2.9-4,6.1-7.6c-9.2,2.6-18.6,6.5-27.9,8c-4.6,0.8-8.1,3.5-10.8,7.3
		c12.9,20.6,34.1,34.7,58.2,38.6c-7-10.9-14.3-19-21.6-27.9L182.9,691.7z"/>
	<path class="st31" d="M198.9,712.4l-3.9-10.1l-2.8-7.2l-9.3-28.5c-0.4,0.2-0.8,0.5-1.1,0.8c-2,1.7-6.2,6-9.7,9.9
		c-3.2,3.6-6,6.8-6.1,7.6l16.9,6.8L170,703.4c7.3,8.9,14.6,16.9,21.6,27.9c4.5,0.7,9,1.1,13.5,1.1c0.5,0,1.1,0,1.6,0l-4.9-12.7
		L198.9,712.4z"/>
	<path class="st36" d="M215.4,621.5c2.9-1.3,6.3-1.3,9.2,0"/>
	<path class="st36" d="M190.6,621.5c2.9-1.3,6.3-1.3,9.2,0"/>
	<circle class="st32" cx="219.5" cy="627.1" r="2.4"/>
	<circle class="st32" cx="196.4" cy="627.1" r="2.4"/>
	<path class="st36" d="M198.6,650.5c0,0,7.7,7.5,15.8,0.7"/>
	<path class="st36" d="M210,624.8c-0.5,2.7-0.5,5.5-0.2,8.2c0.2,2.1,0.7,4.1,1,6.2c0.2,1,0.2,2.1,0,3.1c-0.3,1-1.2,1.7-1.9,1.2"/>
	<path class="st32" d="M29,705.9L29,705.9c5.3-1.1,10.5-1.1,16.4-3.5c0.8-0.3,4.6-2.6,8.2-5l6-4.8l2-5.6l0.2,0.4
		c2.9-8.2,3.9-16.9,2.7-25.6c-0.1-0.4-0.1-0.8,0-1.2c-2.2-3.1-3.7-6.7-4.4-10.5c-0.2-1.2-0.9-2.6-2.1-2.7c-3.9-0.2-5.8-7.1-6.6-11.2
		c6.2-5.1,14.7-7.8,21.6-11.7c6-3.3,17.7-11.7,18.1-11.5v0.1c3.9-1.9,7.7-3.3,11.1-5.6c2.8-1.9,13.7-7,13.3-10.9
		c0.5,4.5,2.8,8.2,3.9,12.4c1.3,4.7,3.2,9.2,4.2,14.1c1.8,9,1.8,19.5-1.2,28.3c-2.4,7.1-7,12.7-12.3,17.8
		c-0.7,5.8-0.6,11.6,0.4,17.3c0,0.2,0,0.3,0.1,0.5l0,0l2,5.6l7.1,5.7c0.7,0.5,1.2,1.1,1.5,1.8c8.8,3.4,20.5,5.9,21.8,6.3
		c7.7,2.3,13.8,4.5,18.4,8.3c-2.4-11.2-5.4-22.3-8.4-33.4c-2.8-10.4-6.3-20.5-9.3-30.8c-2.9-9.6-1.1-17.9-2.1-27.8
		c-2.9-28.9-17.5-50.4-46.7-55c-27.3-4.3-49.9,18.2-53.5,44.2c-0.4,3.2-0.6,6.4-0.7,9.6c-0.2,8.7,0.5,17.4-1,26.4
		c-2.1,12.9-5.4,25.5-9.8,37.8c-2.2,6-7,14.6-11.3,23.9c0.7-0.4,1.4-0.8,2.1-1.2C23.4,707.3,26.2,706.5,29,705.9z"/>
	<path class="st31" d="M86.2,709.7c3.9-0.1,14.6-7,20.1-14.5l4.5-8.1c0-0.2,0-0.3-0.1-0.5c-1-5.7-1.1-11.6-0.4-17.3
		c-0.9,0.8-1.7,1.6-2.6,2.4l-1.4,1.2c-5.1,4.5-10.1,6.6-15.1,6.5c-5,0.1-10-2-15.1-6.5l-1.4-1.2c-3.9-3.3-7.3-7-10.2-11.1
		c-0.1,0.4-0.1,0.8,0,1.2c1.1,8.6,0.2,17.4-2.8,25.6l4.3,7.8C71.1,702.3,82.2,709.6,86.2,709.7z"/>
	<path class="st31" d="M74.8,671.7l1.4,1.2c5.1,4.5,10.1,6.6,15.1,6.5c5,0.1,10-2,15.1-6.5l1.4-1.2c0.9-0.8,1.8-1.6,2.6-2.4
		c5.3-5.1,9.9-10.8,12.3-17.8c3-8.8,2.9-19.2,1.2-28.3c-0.9-4.9-2.9-9.4-4.2-14.1c-1.2-4.2-3.5-8-3.9-12.4
		c0.4,3.8-10.5,8.9-13.3,10.9c-3.4,2.3-7.2,3.7-11.1,5.6v-0.1c-0.3-0.2-12.1,8.2-18.1,11.5c-6.9,3.8-15.4,6.6-21.6,11.6
		c0.8,4.2,2.6,11,6.6,11.2c1.2,0.1,1.9,1.5,2.1,2.7c0.7,3.8,2.2,7.3,4.4,10.5C67.5,664.7,71,668.4,74.8,671.7z"/>
	<path class="st33" d="M96,724l-3-3.7l-2.4,4.5c-0.5,1-0.7,2.1-0.4,3.2l4.3,19.4l2.7-8.8l2.8-8.4l-1.6-2.9
		C97.6,726.1,96.9,725,96,724z"/>
	<path class="st33" d="M74,727.3l-1.6,2.9l2.8,8.4l2.7,8.8l4.3-19.4c0.2-1.1,0.1-2.2-0.4-3.2l-2.4-4.5l-3,3.7
		C75.4,725,74.7,726.1,74,727.3z"/>
	<path class="st34" d="M161.5,714.8c-4.6-3.8-10.6-6-18.3-8.3c-1.3-0.4-13-2.9-21.8-6.3c3,5.5,5.4,20.8,6.5,24.4l-12.9-1.4l9.5,16.9
		c0.3,0.6-6,9.9-13.7,21.3c22.7-6.1,42.8-19.4,57.3-37.9C166.6,720.1,164.3,717.2,161.5,714.8z"/>
	<path class="st34" d="M47.8,740l9.4-16.9l-12.9,1.4c1.3-4.1,4.3-24.1,8.1-26.2l1.1-0.9c-3.5,2.3-7.4,4.6-8.2,5
		c-6,2.4-11.1,2.4-16.4,3.5l0,0c2,12.4,2.8,24.9,2.5,37.4c-0.1,2.9,0.1,5.8,0.2,8.6c9.6,5.2,20,8.9,30.7,11
		C54.3,750.8,47.5,740.7,47.8,740z"/>
	<path class="st35" d="M94.5,747.4L90.2,728c-0.2-1.1-0.1-2.2,0.4-3.2l2.4-4.5l-6.8-8.5l-6.8,8.5l2.4,4.5c0.5,1,0.7,2.1,0.4,3.2
		l-4.3,19.4l5.3,17.6c2,0,4-0.1,6-0.2L94.5,747.4z"/>
	<path class="st31" d="M110.8,687.1l-4.5,8.1c-5.6,7.5-16.2,14.4-20.1,14.5c-3.9-0.1-15-7.3-20.1-14.5l-4.3-7.8l-0.2-0.4l-2,5.6
		l0.2-0.1l12.6,37.6l1.6-2.8c0.7-1.2,1.5-2.3,2.3-3.3l3-3.7l6.8-8.5l6.8,8.5l3,3.7c0.9,1,1.7,2.1,2.3,3.3l1.6,2.9l12.6-37.6l0.2,0.1
		L110.8,687.1L110.8,687.1z"/>
	<path class="st31" d="M124.5,740l-9.5-16.9l12.9,1.4c-1.1-3.5-3.5-18.9-6.5-24.4c-0.3-0.7-0.9-1.3-1.5-1.8l-7.1-5.7l-0.2-0.1
		L100,730.1l-2.8,8.4l-2.7,8.8l-5.3,17.4c7.3-0.4,14.6-1.6,21.6-3.5C118.5,750,124.8,740.6,124.5,740z"/>
	<path class="st31" d="M77.9,747.4l-2.7-8.8l-2.8-8.4l-12.6-37.6l-0.2,0.1l-6,4.8l-1.1,0.9c-3.8,2-6.7,22.1-8.1,26.2l12.9-1.4
		l-9.4,16.9c-0.4,0.6,6.5,10.8,14.5,22.9c6.8,1.3,13.7,2,20.6,2h0.2L77.9,747.4z"/>
	<path class="st34" d="M29,705.9L29,705.9c-2.8,0.5-5.5,1.4-8.1,2.7c-0.7,0.4-1.4,0.8-2.1,1.2C12.4,713.9,7,721.6,3,729.5
		c8.2,9.1,17.9,16.6,28.7,22.5c-0.2-2.9-0.3-5.7-0.2-8.6C31.8,730.9,31,718.3,29,705.9z"/>
	<path class="st36" d="M104.4,629.3c3.7-1.7,8-1.7,11.8,0"/>
	<path class="st36" d="M72.7,629.3c3.7-1.7,8-1.7,11.8,0"/>
	<circle class="st32" cx="109.7" cy="636.4" r="3.1"/>
	<circle class="st32" cx="80.2" cy="636.4" r="3.1"/>
	<path class="st36" d="M83,659.6c0,0,9.9,9.5,20.2,0.9"/>
	<path class="st36" d="M97.2,633.6c-0.7,2.9-0.8,5.9-0.3,8.8c0.4,2.2,1.1,4.4,1.6,6.6c0.3,1.1,0.3,2.2,0,3.3
		c-0.4,1.1-1.7,1.6-2.7,1.2l0,0"/>
</g>
<g>
	<path class="st38" d="M472.9,198.4c49.6,0,96.2,19.3,131.3,54.4c35.1,35.1,54.4,81.7,54.4,131.3s-19.3,96.2-54.4,131.3
		c-35.1,35.1-81.7,54.4-131.3,54.4s-96.2-19.3-131.3-54.4c-35.1-35.1-54.4-81.7-54.4-131.3s19.4-96.3,54.4-131.3
		C376.7,217.7,423.3,198.4,472.9,198.4 M472.9,178.4c-113.6,0-205.7,92.1-205.7,205.7s92.1,205.7,205.7,205.7
		s205.7-92.1,205.7-205.7S586.5,178.4,472.9,178.4L472.9,178.4z"/>
	<g>
		
			<rect x="224" y="527.6" transform="matrix(0.7818 -0.6236 0.6236 0.7818 -284.7836 283.881)" class="st39" width="78.3" height="42.4"/>
		<path class="st38" d="M265.9,500.7l13.1-10.4c5.2-4.1,12.7-3.3,16.9,1.9l29.1,36.4c4.1,5.2,3.3,12.7-1.9,16.9L310,555.9
			c-5.2,4.1-12.7,3.3-16.9-1.9L264,517.6C259.9,512.4,260.7,504.8,265.9,500.7z"/>
		<path class="st9" d="M105.4,706.6l-32-40.1c-4.8-6.1-3.8-14.9,2.2-19.7l132.6-105.7c6.1-4.8,14.9-3.8,19.7,2.2l32,40.1
			c4.8,6.1,3.8,14.9-2.2,19.7L125.1,708.8C119.1,713.6,110.2,712.7,105.4,706.6z"/>
		<path class="st23" d="M105.4,706.6l-32-40.1c-4.8-6.1-3.8-14.9,2.2-19.7l11.5-9.2l49.5,62l-11.5,9.2
			C119.1,713.6,110.2,712.7,105.4,706.6z"/>
	</g>
</g>
</svg>
