<svg version="1.1" id="Layer_1" xmlns="http://www.w3.org/2000/svg" x="0" y="0" viewBox="0 0 870.8 757.5" xml:space="preserve"><style>.st2{fill:#fff;stroke:#000;stroke-width:.5;stroke-miterlimit:10}.st3{fill:none}.st4{fill:#ccc}.st5{fill:#eb058c;stroke:#000;stroke-width:.5;stroke-miterlimit:10}.st6{fill:#1a1a1a}.st7{fill:#0077bf;stroke-width:.5}.st10,.st11,.st7,.st8{stroke:#000;stroke-miterlimit:10}.st8{stroke-width:.5;fill:none}.st10,.st11{fill:#fff}.st11{fill:#1a1a1a;stroke-width:.5}.st14{enable-background:new}.st15{fill:#eb058c}.st16{fill:#fff}</style><g id="Layer_1_2_"><g id="Layer_1_1_"><path opacity=".08" fill="#0077bf" d="M.1 315.1v231.2h870.3V65.4l-74.8 8.9-198.4 83.3-240.3 86.3-231.3 35.4-41.7 37.2z" id="Layer_20"/><path fill="none" stroke="#0077bf" stroke-width="8" stroke-miterlimit="10" d="M870.4 65.4l-6.5.8-74.6 9-374.7 162-276.1 33.4-54.6 45.9-83.8-1.4" id="Layer_13"/><g id="Layer_9_copy_2"><g id="Layer_5"><path class="st2" d="M143.8 58.4H298c16.6 0 30 13.4 30 30v215c0 16.6-13.4 30-30 30H143.8c-16.6 0-30-13.4-30-30v-215c0-16.5 13.5-30 30-30z"/><path class="st3" d="M243 405.6c0-3.1 2.2-5.8 5.3-6.3M177.9 444.3c-.2 4.4.5 8.8 2 13"/><path class="st2" d="M383.8 58.4H538c16.6 0 30 13.4 30 30v215c0 16.6-13.4 30-30 30H383.8c-16.6 0-30-13.4-30-30v-215c0-16.5 13.5-30 30-30z"/><path class="st3" d="M483 405.6c0-3.1 2.2-5.8 5.3-6.3M417.9 444.3c-.2 4.4.5 8.8 2 13"/><path class="st2" d="M623.8 58.4H778c16.6 0 30 13.4 30 30v215c0 16.6-13.4 30-30 30H623.8c-16.6 0-30-13.4-30-30v-215c0-16.5 13.5-30 30-30z"/><path class="st3" d="M723 405.6c0-3.1 2.2-5.8 5.3-6.3M657.9 444.3c-.2 4.4.5 8.8 2 13"/></g><path class="st4" d="M161.3 183.6h136v3.3h-136z"/><circle class="st4" cx="149.3" cy="184.9" r="4"/><path class="st4" d="M161.3 210.6h136v3.3h-136z"/><circle class="st4" cx="149.3" cy="211.9" r="4"/><path class="st4" d="M161.3 238.6h136v3.3h-136z"/><circle class="st4" cx="149.3" cy="239.9" r="4"/><path class="st5" d="M146 273.9h148.9c2.8 0 5 2.2 5 5v20c0 2.8-2.2 5-5 5H146c-2.8 0-5-2.2-5-5v-20c0-2.7 2.2-5 5-5z"/><path class="st4" d="M401.3 183.6h136v3.3h-136z"/><circle class="st4" cx="389.3" cy="184.9" r="4"/><path class="st4" d="M401.3 210.6h136v3.3h-136z"/><circle class="st4" cx="389.3" cy="211.9" r="4"/><path class="st4" d="M401.3 238.6h136v3.3h-136z"/><circle class="st4" cx="389.3" cy="239.9" r="4"/><path class="st5" d="M386 273.9h148.9c2.8 0 5 2.2 5 5v20c0 2.8-2.2 5-5 5H386c-2.8 0-5-2.2-5-5v-20c0-2.7 2.2-5 5-5z"/><path class="st4" d="M641.3 183.6h136v3.3h-136z"/><circle class="st4" cx="629.3" cy="184.9" r="4"/><path class="st4" d="M641.3 210.6h136v3.3h-136z"/><circle class="st4" cx="629.3" cy="211.9" r="4"/><path class="st4" d="M641.3 238.6h136v3.3h-136z"/><circle class="st4" cx="629.3" cy="239.9" r="4"/><path class="st5" d="M626 273.9h148.9c2.8 0 5 2.2 5 5v20c0 2.8-2.2 5-5 5H626c-2.8 0-5-2.2-5-5v-20c0-2.7 2.2-5 5-5z"/></g><g id="Layer_12"><ellipse class="st4" cx="328.4" cy="743" rx="80.5" ry="14.6"/><ellipse class="st4" cx="578.2" cy="743" rx="65.3" ry="11.8"/></g><g id="Layer_24"><path class="st2" d="M456.6 403.8l-3.7-6.1c-3.3-3.1-4.6-7.9-3.2-12.3 0 0 1-10.7 1-11.2s2.3-1.2 2.8 0l1.3-15.4s1.3-2.3 3.2 0l1.2 31.2v4.6l2.7 5.5-5.3 3.7zM620.6 593.3c0 1.4-2.5 1.5-2.7.9s-5-11.5-5-11.5c-4.9-7.6-1.5-13.9-1.5-13.9l1.2-7.7 6.3 2-.5 6.7 1.7 4.9c4.1 7.9 5 17.1 2.6 25.7.1 0-3.2 1.1-2.1-7.1z"/><path class="st6" d="M575.6 734.3v10.6h-5.7v-2.6l-3.6 2.6h-26.7l23.8-10.6zM608.6 718.2l3.2 10-5.5 1.8-.8-2.5-2.6 3.5-25.5 8 19.5-17.2z"/><path class="st7" d="M576.2 680l19.5 43.4 13.6-4.8-28.3-86.3z"/><path class="st7" d="M591.3 550.2l-14.1 183.9-16.2 1.5 1.5-90.4-8.5-18.4-18-76.6z"/><path class="st8" d="M563.6 564.1l-1.1 81.1"/><path d="M597.2 491.5s-3.9 31.3-6 58.6c0 0-31.7 9.9-55.3 0 0 0 9.6-67.4 3.7-85.8l-56.6-19-29-42 10.2-8 28.1 37.1 66.4 9.2 26 1.1s18.1-4.6 25 14.5l18.5 54.5-7.2 54.5h-12.4l3.6-45.1.3-5.2-14.1-38.4-1.2 14z" fill="#f2f2f2" stroke="#000" stroke-width=".5" stroke-miterlimit="10"/><g id="Layer_16_copy"><path class="st2" d="M579.6 440.6c.1.2.2.5.2.7l-.3.6c-1.9 2.2-4.1 4.2-6.5 6-1.4 1.1-3.1 2.1-4.8 1.6-1-.4-1.9-1.1-2.5-2l-3.1-3.6c1.3-1 1.3-3 1.1-4.7-.3-2.2-.7-4.4-1.2-6.5 3.5-2.9 7.7-4.8 12.1-5.5 1.5-.3 2.3 0 2.4 1.5s.1 2.8.3 4.1c.4 2.8 1.2 5.4 2.3 7.8z"/><path class="st2" d="M577.4 431.7c-4 2.6-9 4.8-13.5 3.2-3.3-1.1-5.8-4.1-7.4-7.2-1.7-3.4-3-7-4-10.6-.8-2.3-1.3-4.6-1.4-7 0-3.4 1.4-6.7 2.8-9.8 2.3-5.2 4.8-10.7 9.7-13.5 2.8-1.6 6-2.2 9.2-2.7 2.3-.5 4.7-.7 7.1-.4 2 .3 3.9 1 5.6 2 5 2.7 8.8 7.1 10.7 12.3 4.9 14-8 26.8-18.8 33.7z"/><path class="st10" d="M576.9 401.1c2.7.4 4.8 2.7 5 5.4M557.6 398.4c2.1-1.8 5.2-1.9 7.4-.3"/><path class="st2" d="M563.8 415.7l-2.4-1.8c-.2-.1-.3-.3-.5-.5-.1-.6 0-1.2.4-1.6l1.7-2.6"/><ellipse transform="rotate(-60.797 574.198 408.021)" class="st11" cx="574.2" cy="408" rx="1.7" ry="1.4"/><ellipse transform="rotate(-71.808 560.241 404.513)" class="st11" cx="560.2" cy="404.5" rx="1.7" ry="1.4"/><path class="st6" d="M588.4 411.9s4.5.5-2 7.2c0 0 .9 5.1-2.2 7.6 0 0 7.8-1.6 16.7-16.5 0 0 4.2-13.9-4.8-22.5 0 0-11.5-11.5-27.4-6.3 0 0-16.9 6-16.2 22 0 0 5.2-11.9 12.7-15.7 0 0 11.8 6.9 17.8 5.5 0 .1 5.3 3.2 5.4 18.7z"/><path class="st8" d="M558.3 401.9c1.7-.2 3.3.5 4.4 1.8M573.2 405.4c1.4.3 2.7 1.1 3.6 2.3M566.1 422.1c1.7-.2 3.4-.8 4.9-1.5-.9 2.1-2.7 3.7-4.8 4.5-.9.4-1.8.5-2.7.4s-1.8-.7-2.1-1.6c-.2-.9-.2-1.8-.1-2.7 1.5.7 3.1 1.1 4.8.9z"/><path d="M559.9 436.9l-1.2 4.8c10.7 18.4 26 1.1 26 1.1l-1.7-5.9s-13.1 6.2-23.1 0z" fill="#ffe600" stroke="#000" stroke-width=".5" stroke-miterlimit="10" id="Layer_17_copy"/></g></g><g id="Layer_22"><path class="st3" d="M589.7 211.3c1.2 9.9 4.3 19.4 9.3 28"/><path d="M619.6 211.4c1.8 4.1 2.9 8.5 3.3 13 .3 3.3-.7 7.6-4 8" fill="none" stroke="#fff" stroke-width=".5" stroke-miterlimit="10"/><path class="st2" d="M367.5 621.2l-1.8 102.9v6.3l4.8 3 6.3 8.8h9.2l-14.8-16.6L386 619.4c-.1 0-12.6-4.4-18.5 1.8z"/><path class="st2" d="M273.1 645.2l20.3-5.2 59.7 14.8s11.1 5.5 16.2-36.9l-21.8 1.5-.4 21.4s-41.9-1.8-52.7-6.5l-7.7 2.2-10.5 1.4-3.1 7.3z"/><path class="st6" d="M385.9 639.2l15-58.9s8.3-22.7-1.9-38.2h-47s-6.6 11.1-6.9 33.5v60.8c0 .1 30.8 5.3 40.8 2.8z"/><path class="st2" d="M413.1 535.6l10.7 8.1s23.9 8.2 26.9 15.3c0 0-.3 1.2-2.8-.6 0 0-6.6-3.8-9.1-4.1 0 0 .9 2.2-1.2 1.6l-5.7-2.2c-4.3.2-8.4-2-10.5-5.8l-11.7-6.2s-3.1-4.5 3.4-6.1z"/><path class="st5" d="M413.9 546.6l5-10.5-25.7-16.3v14.9z"/><path class="st11" d="M306.6 458s5.9 6 15.6-8.5c0 0 7.6-11.2 11.4-23.3 0 0 5.4-14.6 17.9-22.7 0 0 9.2-7.6 24.1-4.7 0 0 13.6 2.3 18.2 15 0 0 7.4 15.1-3.9 32.7 0 0-3.9 5.7-4.8 11.4L355 473.6l-36.6-2.4-3.1-3c-.1 0-6.3-.8-8.7-10.2z"/><path class="st11" d="M318.4 471.3s16.4 12 30.7 9.1l38.3-16.1-2.2-6.4"/><path class="st2" d="M364.2 456.2c-.1.2-.2.5-.1.7s.2.4.4.6c2 2.1 4.1 4 6.5 5.7 1.4 1 3.1 2 4.7 1.4 1-.4 1.8-1.1 2.4-2l3-3.6c-1.4-.9-1.4-2.9-1.2-4.5.2-2.2.6-4.3 1-6.4-3.5-2.7-7.6-4.4-12-5-1.5-.2-2.3 0-2.3 1.6 0 1.4-.1 2.7-.2 4.1-.5 2.5-1.2 5-2.2 7.4z"/><path class="st2" d="M372.4 448.2c4.4 1.7 9.5 2.7 13.6.3 3-1.8 4.7-5.1 5.6-8.4.9-3.6 1.4-7.3 1.6-11 .3-2.3.3-4.7-.1-7-.7-3.3-2.7-6.1-4.7-8.9-3.2-4.5-6.8-9.2-12.1-10.9-3-1-6.2-.9-9.3-.7-2.3 0-4.6.3-6.9 1-1.8.7-3.5 1.7-5 3.1-4.2 3.6-6.9 8.5-7.7 14-1.8 14.5 13.2 24 25 28.5z"/><path class="st6" d="M357.9 443.1s9.9-21 1.6-31.8c0 0 6.4 2.5 11.4.9 0 0 12.8-3.5 18.2 6.5 0 0 2.5 6.1 5.4 8.5v-5.1l-4.4-10-11.9-10.3-11.2-2.7-11.2 4.6-7.3 7.2-3.4 16.7 7 11.6 5.8 3.9z"/><path class="st2" d="M364.9 427.9c.6 0 1.1-.3 1.5-.8.3-.5.6-1 .8-1.5.2-.4.4-.7.7-1.1.2-.3.6-.6.9-.9 1-.6 2.1-.7 3.2-.3 1 .4 2 1 2.8 1.7M379.7 420.9l.6-1.2c.3-1.1 1.1-1.9 2-2.5.9-.3 1.8-.3 2.7-.2.9.1 1.8-.3 2.4-1M372.2 419.5c-3.3-1-6.9.3-8.7 3.3M377.1 416.6c1-2.2 3-3.7 5.4-4M381.2 432.4c.7-.7 1.3-1.4 1.9-2.2.2-.2.3-.4.3-.6.1-.6-.3-1.1-.7-1.5l-2.2-2.1"/><ellipse transform="rotate(-41.323 370.606 424.783)" class="st11" cx="370.6" cy="424.8" rx="1.3" ry="1.7"/><ellipse transform="rotate(-41.323 383.212 418.594)" class="st11" cx="383.2" cy="418.6" rx="1.3" ry="1.7"/><path class="st8" d="M378.9 438.2c3.3-.2 6.4-2 8.1-4.8.1.8.2 1.6.2 2.5.1 1.3-.3 2.5-1.2 3.4-1 .8-2.3 1-3.4.6s-2.2-1-3.1-1.8"/><path class="st2" d="M431.2 405.9l3.7-12.9s-1.1-25.3 4.4-30.6c0 0 1.2-.2.5 2.9 0 0-1.1 7.5-.5 10 0 0 1.7-1.7 1.9.5v6.1c1.8 3.9 1.2 8.5-1.5 11.9l-1.5 13.1c.1 0-3 4.5-7-1z"/><path class="st8" d="M366.6 471.4l22.9 63.8"/><path class="st5" d="M379.6 471.9l6.2-2.8 38-17.1 17.4-46.7-10.2-1.6-18.8 39.3-50.9 15.2c-14.4 3.5-12.2 13.8-12.2 13.8l8.6 49.2L345 550s28.7 10.5 61.1.3c0 0-15.1-26.5-10.8-47.8 0 0 7.3-13.6-5-23.5 0 0-6.8-5-6.9-8.7"/><path class="st6" d="M280.1 629.9l6.9 3.9s-1.9 3-12.4 2.6l-7.5 13.1 8.9-5.1s-.6-3.9 5.1-6l11.8-.7 4.3-2.7s-.1-5.1-8.4-4.5c-.2.2-2.4 1.5-8.7-.6zM366.4 742.2l-.7-7.7s-5.2-5.1 0-9c0 0 1.8-.5 8.5 9.5 0 0 3.3 5.3 11.8 7.1l5.2 3.5-15.4-.8s-2.8-6.5-7.9-10c0 0-.6 3.8-1 7.3l-.5.1z"/></g></g><g class="st14" id="Layer_2"><path d="M373.9 4c3.9 0 6.9 1.7 6.9 5.9 0 4.7-3 6.2-7 6.2h-5.6v8.5h-2.7V4h8.4zm-5.8 9.9h5.2c2.6 0 4.7-.7 4.7-3.8 0-3.3-2.3-3.8-5-3.8h-4.9v7.6zM391.4 11.9h-.6c-4.1 0-4.8 3.1-4.8 6.5v6.3h-2.5v-15h2.3v3.2c1-2.5 2.9-3.6 5.5-3.6v2.6zM395.9 7h-2.5V4h2.5v3zm0 17.6h-2.5v-15h2.5v15zM406.1 25.1c-4.6 0-7.1-3.2-7.1-7.7 0-5 2.8-8.1 7.2-8.1 3.7 0 5.9 1.9 6.4 5.3H410c-.4-2.1-1.7-3.2-3.8-3.2-2.8 0-4.6 2.3-4.6 5.9 0 3.7 1.7 5.9 4.5 5.9 2.2 0 3.7-1.4 4.1-3.8h2.5c-.5 3.4-2.9 5.7-6.6 5.7zM417.9 7h-2.5V4h2.5v3zm0 17.6h-2.5v-15h2.5v15zM424.1 12c1.2-1.8 2.8-2.7 5.1-2.7 3.7 0 5 2 5 5.4v9.9h-2.5v-8.8c0-2.4-.1-4.4-3.2-4.4-3.2 0-4.3 2.4-4.3 5.4v7.8h-2.5v-15h2.3V12zM450.8 23c0 2.6-.2 3.8-1 5-1.1 1.8-3.2 2.7-5.9 2.7-3 0-5.9-1-6.3-4.4h2.5c.3 1.7 1.5 2.5 3.9 2.5 3.1 0 4.4-1.5 4.4-4.9v-1.8c-1 1.9-2.5 2.7-4.8 2.7-4 0-6.6-3-6.6-7.6 0-4.1 2.2-7.9 6.7-7.9 2.1 0 3.8.9 4.7 2.6V9.7h2.3V23zm-11.1-5.7c0 3.3 1.7 5.5 4.4 5.5s4.4-2.2 4.4-5.9c0-3.4-1.7-5.4-4.5-5.4-2.7-.1-4.3 2.1-4.3 5.8zM475.4 20l4 4.7h-3.2L474 22c-1.5 2.1-3.5 3-6 3-3.5 0-6.3-2.2-6.3-5.8 0-2.9 2.3-5.1 4.8-6.2-1.6-1.9-2.2-3.3-2.2-4.8 0-2.6 2-4.4 4.8-4.4s4.7 1.8 4.7 4.3-1.7 4.3-3.8 5.4l3.8 4.6c.4-.9.6-2.1.7-3.3h2.3c-.1 2-.6 3.8-1.4 5.2zm-11.1-.9c0 2.1 1.8 3.8 4 3.8 1.8 0 3.3-.9 4.4-2.6l-4.8-5.7c-1.8.9-3.6 2.4-3.6 4.5zm7.2-10.7c0-1.4-1-2.5-2.4-2.5s-2.4 1-2.4 2.3c0 1.3 1.3 2.8 2.1 3.8 1.2-.8 2.7-2 2.7-3.6zM498 4c3.9 0 6.9 1.7 6.9 5.9 0 4.7-3 6.2-7 6.2h-5.6v8.5h-2.7V4h8.4zm-5.8 9.9h5.2c2.6 0 4.7-.7 4.7-3.8 0-3.3-2.3-3.8-5-3.8h-4.9v7.6zM510.3 24.6h-2.5V4h2.5v20.6zM527.4 24.6c-.5.2-1.1.3-1.7.3-1.4 0-2.1-.8-2.2-2.2-1.5 1.7-3.1 2.4-5.4 2.4-3 0-4.8-1.6-4.8-4.2 0-2.7 1.8-4.2 5.3-4.7 3.6-.4 4.8-.3 4.8-2.4 0-1.6-1.2-2.5-3.4-2.5-2.3 0-3.5.8-3.7 3h-2.4c.1-3.2 2.4-5.1 6.3-5.1 2 0 3.7.5 4.7 1.5s1 2.6 1 3.9c0 2.2-.1 4.4-.1 6.7 0 1.1.3 1.5 1 1.5.2 0 .3 0 .6-.1v1.9zm-7.3-6.8c-1.8.2-4.2.4-4.2 2.8 0 1.5 1.1 2.5 3 2.5 2.3 0 4.6-1.6 4.6-3.5v-2.7c-1 .7-2.3.7-3.4.9zM532 12c1.2-1.8 2.8-2.7 5.1-2.7 3.7 0 5 2 5 5.4v9.9h-2.5v-8.8c0-2.4-.1-4.4-3.2-4.4-3.2 0-4.3 2.4-4.3 5.4v7.8h-2.5v-15h2.3V12zM554.5 14c-.2-2-1.5-2.7-3.7-2.7-1.9 0-3 .8-3 2 0 1.7 1.9 1.9 4 2.4 2.5.6 5.8 1.3 5.8 4.6 0 2.9-2.5 4.8-6.2 4.8-4.1 0-6.3-1.8-6.4-5.2h2.4c.1 2.3 1.7 3.2 4.1 3.2 2.2 0 3.7-1 3.7-2.5 0-1.7-1.7-2-3.8-2.5-2.6-.6-6-1-6-4.4 0-2.7 2.2-4.4 5.7-4.4 3.4 0 6 1.6 6 4.8h-2.6z"/></g></g><g class="st14" id="Layer_2_1_"><path class="st15" d="M186.2 92.9c-.2-1.6-1.2-2.3-2.8-2.3-1.6 0-2.6.7-2.6 1.9 0 1.3 1.3 1.6 3.1 1.9 1.9.4 4.2 1 4.2 3.4 0 2.5-2.3 3.5-4.4 3.5-2.7 0-4.7-1.3-4.7-4h1.5c.1 2.1 1.6 2.8 3.4 2.8 1.3 0 2.8-.5 2.8-2.1 0-1.5-1.4-1.8-3.3-2.2-1.8-.4-4-.7-4-3.1 0-2.3 2.1-3.2 4.1-3.2 2.4 0 4.1 1.1 4.2 3.6h-1.5zM193.3 93.9h-1.6v4.8c0 .8 0 1.2.9 1.2h.7v1.2c-.4 0-.6.1-1 .1-2.1 0-2-1-2-2.8V94h-1.4v-1.1h1.4v-2.4h1.4v2.4h1.6v1zM202.1 101c-.3.1-.6.2-.9.2-.8 0-1.2-.4-1.2-1.2-.8.9-1.7 1.3-3 1.3-1.6 0-2.6-.9-2.6-2.3 0-1.5 1-2.3 2.9-2.6 2-.2 2.6-.2 2.6-1.3 0-.9-.7-1.4-1.9-1.4-1.3 0-1.9.5-2 1.7h-1.3c0-1.8 1.3-2.8 3.5-2.8 1.1 0 2 .3 2.6.8.6.6.6 1.4.6 2.1 0 1.2-.1 2.4-.1 3.7 0 .6.1.8.6.8h.3v1zm-4-3.8c-1 .1-2.3.2-2.3 1.6 0 .8.6 1.4 1.6 1.4 1.3 0 2.5-.9 2.5-1.9v-1.5c-.5.3-1.2.3-1.8.4zM207.7 94h-.4c-2.2 0-2.6 1.7-2.6 3.6v3.5h-1.4v-8.3h1.3v1.8c.6-1.4 1.6-2 3.1-2V94zM212.2 93.9h-1.6v4.8c0 .8 0 1.2.9 1.2h.7v1.2c-.4 0-.6.1-1 .1-2.1 0-2-1-2-2.8V94h-1.4v-1.1h1.4v-2.4h1.4v2.4h1.6v1zM217.2 101.3c-2.4 0-3.9-1.6-3.9-4.3 0-2.7 1.6-4.5 3.8-4.5 2.7 0 3.7 2.2 3.7 4.5v.2h-6.2v.1c0 1.8 1 2.8 2.6 2.8 1.2 0 1.8-.5 2.2-1.8h1.3c-.3 2-1.6 3-3.5 3zm-.1-7.7c-1.3 0-2.3 1-2.4 2.5h4.8c-.2-1.5-1-2.5-2.4-2.5zM226.6 94h-.4c-2.2 0-2.6 1.7-2.6 3.6v3.5h-1.4v-8.3h1.3v1.8c.6-1.4 1.6-2 3.1-2V94zM233.4 93.9c.6-1 1.6-1.4 2.8-1.4 2.3 0 3.8 1.7 3.8 4.3s-1.4 4.4-3.7 4.4c-1.2 0-2.1-.4-2.8-1.4v4.3h-1.4V92.7h1.3v1.2zm0 2.9c0 2 1 3.2 2.6 3.2s2.5-1.2 2.5-3.2-1-3.2-2.6-3.2c-1.5 0-2.5 1.2-2.5 3.2zM243 101h-1.4V89.6h1.4V101zM252.4 101c-.3.1-.6.2-.9.2-.8 0-1.2-.4-1.2-1.2-.8.9-1.7 1.3-3 1.3-1.6 0-2.6-.9-2.6-2.3 0-1.5 1-2.3 2.9-2.6 2-.2 2.6-.2 2.6-1.3 0-.9-.7-1.4-1.9-1.4-1.3 0-1.9.5-2 1.7H245c0-1.8 1.3-2.8 3.5-2.8 1.1 0 2 .3 2.6.8.6.6.6 1.4.6 2.1 0 1.2-.1 2.4-.1 3.7 0 .6.1.8.6.8h.3v1zm-4-3.8c-1 .1-2.3.2-2.3 1.6 0 .8.6 1.4 1.6 1.4 1.3 0 2.5-.9 2.5-1.9v-1.5c-.5.3-1.2.3-1.8.4zM255 94c.7-1 1.6-1.5 2.8-1.5 2 0 2.8 1.1 2.8 3v5.5h-1.4v-4.9c0-1.3-.1-2.4-1.8-2.4-1.8 0-2.4 1.3-2.4 3v4.3h-1.4v-8.3h1.3V94z"/></g><g class="st14" id="Layer_2_copy"><path class="st15" d="M176.6 116.5c6.1.1 9.7 3 9.8 9.2h-4v-.3c0-3.4-1.9-5.3-5.8-5.6v11.9c5.6 1.6 10.6 3.1 10.6 10 0 5.9-3.9 9.6-10.6 10v4h-2.3v-4c-6.2-.3-10.6-3.7-10.6-10.5v-.5h4.1v.6c0 4.3 2.3 6.6 6.5 7v-13.2c-5.8-1.1-9.9-3.5-9.9-9.2 0-6 4.4-8.9 9.9-9.5v-3.3h2.3v3.4zm-2.2 3.4c-3.6.3-5.9 2.4-5.9 5.7 0 3.6 2.8 5 5.9 5.7v-11.4zm2.2 28.5c3.8-.1 6.5-2.8 6.5-6.6 0-3.9-3.2-5.4-6.5-6.1v12.7zM195.5 142.8c.4 3.3 2.8 5.3 6.2 5.3 5.9 0 7.2-6.4 7.6-11.1.1-1 .1-1.3.1-2.3-1.9 3.1-4.5 4.7-8.3 4.7-6.2 0-10.4-4.5-10.4-11 0-6.8 4.6-11.4 11.2-11.4 9.8 0 11.7 8.8 11.7 16.6 0 7.7-2.3 18.1-12 18.1-5.7 0-9.7-3.3-10.1-8.9h4zm-.5-14.6c0 4.1 2.3 7.5 6.7 7.5 4.2 0 7-3 7-7.4 0-4.7-2.8-7.7-7-7.7-4 0-6.7 3-6.7 7.6zM222.1 142.8c.4 3.3 2.8 5.3 6.2 5.3 5.9 0 7.2-6.4 7.6-11.1.1-1 .1-1.3.1-2.3-1.9 3.1-4.5 4.7-8.3 4.7-6.2 0-10.4-4.5-10.4-11 0-6.8 4.6-11.4 11.2-11.4 9.8 0 11.7 8.8 11.7 16.6 0 7.7-2.3 18.1-12 18.1-5.7 0-9.7-3.3-10.1-8.9h4zm-.4-14.6c0 4.1 2.3 7.5 6.7 7.5 4.2 0 7-3 7-7.4 0-4.7-2.8-7.7-7-7.7-4 0-6.7 3-6.7 7.6z"/></g><g class="st14" id="Layer_2_copy_2"><path class="st15" d="M249 134h-2.7v-2.7h2.7v2.7zM254.2 129.9c.2 1.7 1.4 2.7 3.1 2.7 2.9 0 3.6-3.2 3.8-5.5V126c-1 1.6-2.3 2.3-4.2 2.3-3.1 0-5.2-2.2-5.2-5.5 0-3.4 2.3-5.7 5.6-5.7 4.9 0 5.9 4.4 5.9 8.3 0 3.9-1.1 9-6 9-2.8 0-4.9-1.6-5.1-4.4h2.1zm-.2-7.3c0 2.1 1.1 3.8 3.4 3.8 2.1 0 3.5-1.5 3.5-3.7 0-2.4-1.4-3.9-3.5-3.9s-3.4 1.5-3.4 3.8zM267.6 129.9c.2 1.7 1.4 2.7 3.1 2.7 2.9 0 3.6-3.2 3.8-5.5V126c-1 1.6-2.3 2.3-4.2 2.3-3.1 0-5.2-2.2-5.2-5.5 0-3.4 2.3-5.7 5.6-5.7 4.9 0 5.9 4.4 5.9 8.3 0 3.9-1.1 9-6 9-2.8 0-4.9-1.6-5.1-4.4h2.1zm-.3-7.3c0 2.1 1.1 3.8 3.4 3.8 2.1 0 3.5-1.5 3.5-3.7 0-2.4-1.4-3.9-3.5-3.9-2 0-3.4 1.5-3.4 3.8z"/></g><g class="st14" id="Layer_2_copy_5"><path class="st15" d="M426.2 92.9c-.2-1.6-1.2-2.3-2.8-2.3-1.6 0-2.6.7-2.6 1.9 0 1.3 1.3 1.6 3.1 1.9 1.9.4 4.2 1 4.2 3.4 0 2.5-2.3 3.5-4.4 3.5-2.7 0-4.7-1.3-4.7-4h1.5c.1 2.1 1.6 2.8 3.4 2.8 1.3 0 2.8-.5 2.8-2.1 0-1.5-1.4-1.8-3.3-2.2-1.8-.4-4-.7-4-3.1 0-2.3 2.1-3.2 4.1-3.2 2.4 0 4.1 1.1 4.2 3.6h-1.5zM433.3 93.9h-1.6v4.8c0 .8 0 1.2.9 1.2h.7v1.2c-.4 0-.6.1-1 .1-2.1 0-2-1-2-2.8V94h-1.4v-1.1h1.4v-2.4h1.4v2.4h1.6v1zM442.1 101c-.3.1-.6.2-.9.2-.8 0-1.2-.4-1.2-1.2-.8.9-1.7 1.3-3 1.3-1.6 0-2.6-.9-2.6-2.3 0-1.5 1-2.3 2.9-2.6 2-.2 2.6-.2 2.6-1.3 0-.9-.7-1.4-1.9-1.4-1.3 0-1.9.5-2 1.7h-1.3c0-1.8 1.3-2.8 3.5-2.8 1.1 0 2 .3 2.6.8.6.6.6 1.4.6 2.1 0 1.2-.1 2.4-.1 3.7 0 .6.1.8.6.8h.3v1zm-4-3.8c-1 .1-2.3.2-2.3 1.6 0 .8.6 1.4 1.6 1.4 1.3 0 2.5-.9 2.5-1.9v-1.5c-.5.3-1.2.3-1.8.4zM447.7 94h-.4c-2.2 0-2.6 1.7-2.6 3.6v3.5h-1.4v-8.3h1.3v1.8c.6-1.4 1.6-2 3.1-2V94zM452.2 93.9h-1.6v4.8c0 .8 0 1.2.9 1.2h.7v1.2c-.4 0-.6.1-1 .1-2.1 0-2-1-2-2.8V94h-1.4v-1.1h1.4v-2.4h1.4v2.4h1.6v1zM457.2 101.3c-2.4 0-3.9-1.6-3.9-4.3 0-2.7 1.6-4.5 3.8-4.5 2.7 0 3.7 2.2 3.7 4.5v.2h-6.2v.1c0 1.8 1 2.8 2.6 2.8 1.2 0 1.8-.5 2.2-1.8h1.3c-.3 2-1.6 3-3.5 3zm-.1-7.7c-1.3 0-2.3 1-2.4 2.5h4.8c-.2-1.5-1-2.5-2.4-2.5zM466.6 94h-.4c-2.2 0-2.6 1.7-2.6 3.6v3.5h-1.4v-8.3h1.3v1.8c.6-1.4 1.6-2 3.1-2V94zM473.4 93.9c.6-1 1.6-1.4 2.8-1.4 2.3 0 3.8 1.7 3.8 4.3s-1.4 4.4-3.7 4.4c-1.2 0-2.1-.4-2.8-1.4v4.3h-1.4V92.7h1.3v1.2zm0 2.9c0 2 1 3.2 2.6 3.2s2.5-1.2 2.5-3.2-1-3.2-2.6-3.2c-1.5 0-2.5 1.2-2.5 3.2zM483 101h-1.4V89.6h1.4V101zM492.4 101c-.3.1-.6.2-.9.2-.8 0-1.2-.4-1.2-1.2-.8.9-1.7 1.3-3 1.3-1.6 0-2.6-.9-2.6-2.3 0-1.5 1-2.3 2.9-2.6 2-.2 2.6-.2 2.6-1.3 0-.9-.7-1.4-1.9-1.4-1.3 0-1.9.5-2 1.7H485c0-1.8 1.3-2.8 3.5-2.8 1.1 0 2 .3 2.6.8.6.6.6 1.4.6 2.1 0 1.2-.1 2.4-.1 3.7 0 .6.1.8.6.8h.3v1zm-4-3.8c-1 .1-2.3.2-2.3 1.6 0 .8.6 1.4 1.6 1.4 1.3 0 2.5-.9 2.5-1.9v-1.5c-.5.3-1.2.3-1.8.4zM495 94c.7-1 1.6-1.5 2.8-1.5 2 0 2.8 1.1 2.8 3v5.5h-1.4v-4.9c0-1.3-.1-2.4-1.8-2.4-1.8 0-2.4 1.3-2.4 3v4.3h-1.4v-8.3h1.3V94z"/></g><g class="st14" id="Layer_2_copy_4"><path class="st15" d="M404.6 116.5c6.1.1 9.7 3 9.8 9.2h-4v-.3c0-3.4-1.9-5.3-5.8-5.6v11.9c5.6 1.6 10.6 3.1 10.6 10 0 5.9-3.9 9.6-10.6 10v4h-2.3v-4c-6.2-.3-10.6-3.7-10.6-10.5v-.5h4.1v.6c0 4.3 2.3 6.6 6.5 7v-13.2c-5.8-1.1-9.9-3.5-9.9-9.2 0-6 4.4-8.9 9.9-9.5v-3.3h2.3v3.4zm-2.2 3.4c-3.6.3-5.9 2.4-5.9 5.7 0 3.6 2.8 5 5.9 5.7v-11.4zm2.2 28.5c3.8-.1 6.5-2.8 6.5-6.6 0-3.9-3.2-5.4-6.5-6.1v12.7zM434.2 151h-4.5v-24.6h-8.5v-3.1c5 0 8.6-1.2 9.8-6.3h3.2v34zM450.1 142.8c.4 3.3 2.8 5.3 6.2 5.3 5.9 0 7.2-6.4 7.6-11.1.1-1 .1-1.3.1-2.3-1.9 3.1-4.5 4.7-8.3 4.7-6.2 0-10.4-4.5-10.4-11 0-6.8 4.6-11.4 11.2-11.4 9.8 0 11.7 8.8 11.7 16.6 0 7.7-2.3 18.1-12 18.1-5.7 0-9.7-3.3-10.1-8.9h4zm-.4-14.6c0 4.1 2.3 7.5 6.7 7.5 4.2 0 7-3 7-7.4 0-4.7-2.8-7.7-7-7.7-4 0-6.7 3-6.7 7.6zM476.8 142.8c.4 3.3 2.8 5.3 6.2 5.3 5.9 0 7.2-6.4 7.6-11.1.1-1 .1-1.3.1-2.3-1.9 3.1-4.5 4.7-8.3 4.7-6.2 0-10.4-4.5-10.4-11 0-6.8 4.6-11.4 11.2-11.4 9.8 0 11.7 8.8 11.7 16.6 0 7.7-2.3 18.1-12 18.1-5.7 0-9.7-3.3-10.1-8.9h4zm-.5-14.6c0 4.1 2.3 7.5 6.7 7.5 4.2 0 7-3 7-7.4 0-4.7-2.8-7.7-7-7.7-3.9 0-6.7 3-6.7 7.6z"/></g><g class="st14" id="Layer_2_copy_3"><path class="st15" d="M503 134h-2.7v-2.7h2.7v2.7zM508.2 129.9c.2 1.7 1.4 2.7 3.1 2.7 2.9 0 3.6-3.2 3.8-5.5V126c-1 1.6-2.3 2.3-4.2 2.3-3.1 0-5.2-2.2-5.2-5.5 0-3.4 2.3-5.7 5.6-5.7 4.9 0 5.9 4.4 5.9 8.3 0 3.9-1.1 9-6 9-2.8 0-4.9-1.6-5.1-4.4h2.1zm-.2-7.3c0 2.1 1.1 3.8 3.4 3.8 2.1 0 3.5-1.5 3.5-3.7 0-2.4-1.4-3.9-3.5-3.9s-3.4 1.5-3.4 3.8zM521.6 129.9c.2 1.7 1.4 2.7 3.1 2.7 2.9 0 3.6-3.2 3.8-5.5V126c-1 1.6-2.3 2.3-4.2 2.3-3.1 0-5.2-2.2-5.2-5.5 0-3.4 2.3-5.7 5.6-5.7 4.9 0 5.9 4.4 5.9 8.3 0 3.9-1.1 9-6 9-2.8 0-4.9-1.6-5.1-4.4h2.1zm-.3-7.3c0 2.1 1.1 3.8 3.4 3.8 2.1 0 3.5-1.5 3.5-3.7 0-2.4-1.4-3.9-3.5-3.9-2 0-3.4 1.5-3.4 3.8z"/></g><g class="st14" id="Layer_2_copy_8"><path class="st15" d="M666.2 92.9c-.2-1.6-1.2-2.3-2.8-2.3-1.6 0-2.6.7-2.6 1.9 0 1.3 1.3 1.6 3.1 1.9 1.9.4 4.2 1 4.2 3.4 0 2.5-2.3 3.5-4.4 3.5-2.7 0-4.7-1.3-4.7-4h1.5c.1 2.1 1.6 2.8 3.4 2.8 1.3 0 2.8-.5 2.8-2.1 0-1.5-1.4-1.8-3.3-2.2-1.8-.4-4-.7-4-3.1 0-2.3 2.1-3.2 4.1-3.2 2.4 0 4.1 1.1 4.2 3.6h-1.5zM673.3 93.9h-1.6v4.8c0 .8 0 1.2.9 1.2h.7v1.2c-.4 0-.6.1-1 .1-2.1 0-2-1-2-2.8V94h-1.4v-1.1h1.4v-2.4h1.4v2.4h1.6v1zM682.1 101c-.3.1-.6.2-.9.2-.8 0-1.2-.4-1.2-1.2-.8.9-1.7 1.3-3 1.3-1.6 0-2.6-.9-2.6-2.3 0-1.5 1-2.3 2.9-2.6 2-.2 2.6-.2 2.6-1.3 0-.9-.7-1.4-1.9-1.4-1.3 0-1.9.5-2 1.7h-1.3c0-1.8 1.3-2.8 3.5-2.8 1.1 0 2 .3 2.6.8.6.6.6 1.4.6 2.1 0 1.2-.1 2.4-.1 3.7 0 .6.1.8.6.8h.3v1zm-4-3.8c-1 .1-2.3.2-2.3 1.6 0 .8.6 1.4 1.6 1.4 1.3 0 2.5-.9 2.5-1.9v-1.5c-.5.3-1.2.3-1.8.4zM687.7 94h-.4c-2.2 0-2.6 1.7-2.6 3.6v3.5h-1.4v-8.3h1.3v1.8c.6-1.4 1.6-2 3.1-2V94zM692.2 93.9h-1.6v4.8c0 .8 0 1.2.9 1.2h.7v1.2c-.4 0-.6.1-1 .1-2.1 0-2-1-2-2.8V94h-1.4v-1.1h1.4v-2.4h1.4v2.4h1.6v1zM697.2 101.3c-2.4 0-3.9-1.6-3.9-4.3 0-2.7 1.6-4.5 3.8-4.5 2.7 0 3.7 2.2 3.7 4.5v.2h-6.2v.1c0 1.8 1 2.8 2.6 2.8 1.2 0 1.8-.5 2.2-1.8h1.3c-.3 2-1.6 3-3.5 3zm-.1-7.7c-1.3 0-2.3 1-2.4 2.5h4.8c-.2-1.5-1-2.5-2.4-2.5zM706.6 94h-.4c-2.2 0-2.6 1.7-2.6 3.6v3.5h-1.4v-8.3h1.3v1.8c.6-1.4 1.6-2 3.1-2V94zM713.4 93.9c.6-1 1.6-1.4 2.8-1.4 2.3 0 3.8 1.7 3.8 4.3s-1.4 4.4-3.7 4.4c-1.2 0-2.1-.4-2.8-1.4v4.3h-1.4V92.7h1.3v1.2zm0 2.9c0 2 1 3.2 2.6 3.2s2.5-1.2 2.5-3.2-1-3.2-2.6-3.2c-1.5 0-2.5 1.2-2.5 3.2zM723 101h-1.4V89.6h1.4V101zM732.4 101c-.3.1-.6.2-.9.2-.8 0-1.2-.4-1.2-1.2-.8.9-1.7 1.3-3 1.3-1.6 0-2.6-.9-2.6-2.3 0-1.5 1-2.3 2.9-2.6 2-.2 2.6-.2 2.6-1.3 0-.9-.7-1.4-1.9-1.4-1.3 0-1.9.5-2 1.7H725c0-1.8 1.3-2.8 3.5-2.8 1.1 0 2 .3 2.6.8.6.6.6 1.4.6 2.1 0 1.2-.1 2.4-.1 3.7 0 .6.1.8.6.8h.3v1zm-4-3.8c-1 .1-2.3.2-2.3 1.6 0 .8.6 1.4 1.6 1.4 1.3 0 2.5-.9 2.5-1.9v-1.5c-.5.3-1.2.3-1.8.4zM735 94c.7-1 1.6-1.5 2.8-1.5 2 0 2.8 1.1 2.8 3v5.5h-1.4v-4.9c0-1.3-.1-2.4-1.8-2.4-1.8 0-2.4 1.3-2.4 3v4.3h-1.4v-8.3h1.3V94z"/></g><g class="st14" id="Layer_2_copy_7"><path class="st15" d="M644.6 116.5c6.1.1 9.7 3 9.8 9.2h-4v-.3c0-3.4-1.9-5.3-5.8-5.6v11.9c5.6 1.6 10.6 3.1 10.6 10 0 5.9-3.9 9.6-10.6 10v4h-2.3v-4c-6.2-.3-10.6-3.7-10.6-10.5v-.5h4.1v.6c0 4.3 2.3 6.6 6.5 7v-13.2c-5.8-1.1-9.9-3.5-9.9-9.2 0-6 4.4-8.9 9.9-9.5v-3.3h2.3v3.4zm-2.2 3.4c-3.6.3-5.9 2.4-5.9 5.7 0 3.6 2.8 5 5.9 5.7v-11.4zm2.2 28.5c3.8-.1 6.5-2.8 6.5-6.6 0-3.9-3.2-5.4-6.5-6.1v12.7zM680.4 151h-22.2c.4-7.8 4.2-10.6 10.1-14.3 3.6-2.3 8.1-4.8 8.1-9.7 0-3.8-2.7-6.4-6.6-6.4-5.1 0-6.5 4.3-6.6 8.5h-4.1v-.9c0-6.7 4.4-11.2 10.9-11.2 6.4 0 10.6 3.9 10.6 9.9 0 6.6-5.2 9.8-10.2 12.8-3.1 1.9-6.7 3.8-7.6 7.6h17.5v3.7zM690.1 142.8c.4 3.3 2.8 5.3 6.2 5.3 5.9 0 7.2-6.4 7.6-11.1.1-1 .1-1.3.1-2.3-1.9 3.1-4.5 4.7-8.3 4.7-6.2 0-10.4-4.5-10.4-11 0-6.8 4.6-11.4 11.2-11.4 9.8 0 11.7 8.8 11.7 16.6 0 7.7-2.3 18.1-12 18.1-5.7 0-9.7-3.3-10.1-8.9h4zm-.4-14.6c0 4.1 2.3 7.5 6.7 7.5 4.2 0 7-3 7-7.4 0-4.7-2.8-7.7-7-7.7-4 0-6.7 3-6.7 7.6zM716.8 142.8c.4 3.3 2.8 5.3 6.2 5.3 5.9 0 7.2-6.4 7.6-11.1.1-1 .1-1.3.1-2.3-1.9 3.1-4.5 4.7-8.3 4.7-6.2 0-10.4-4.5-10.4-11 0-6.8 4.6-11.4 11.2-11.4 9.8 0 11.7 8.8 11.7 16.6 0 7.7-2.3 18.1-12 18.1-5.7 0-9.7-3.3-10.1-8.9h4zm-.5-14.6c0 4.1 2.3 7.5 6.7 7.5 4.2 0 7-3 7-7.4 0-4.7-2.8-7.7-7-7.7-3.9 0-6.7 3-6.7 7.6z"/></g><g class="st14" id="Layer_2_copy_6"><path class="st15" d="M743 134h-2.7v-2.7h2.7v2.7zM748.2 129.9c.2 1.7 1.4 2.7 3.1 2.7 2.9 0 3.6-3.2 3.8-5.5V126c-1 1.6-2.3 2.3-4.2 2.3-3.1 0-5.2-2.2-5.2-5.5 0-3.4 2.3-5.7 5.6-5.7 4.9 0 5.9 4.4 5.9 8.3 0 3.9-1.1 9-6 9-2.8 0-4.9-1.6-5.1-4.4h2.1zm-.2-7.3c0 2.1 1.1 3.8 3.4 3.8 2.1 0 3.5-1.5 3.5-3.7 0-2.4-1.4-3.9-3.5-3.9s-3.4 1.5-3.4 3.8zM761.6 129.9c.2 1.7 1.4 2.7 3.1 2.7 2.9 0 3.6-3.2 3.8-5.5V126c-1 1.6-2.3 2.3-4.2 2.3-3.1 0-5.2-2.2-5.2-5.5 0-3.4 2.3-5.7 5.6-5.7 4.9 0 5.9 4.4 5.9 8.3 0 3.9-1.1 9-6 9-2.8 0-4.9-1.6-5.1-4.4h2.1zm-.3-7.3c0 2.1 1.1 3.8 3.4 3.8 2.1 0 3.5-1.5 3.5-3.7 0-2.4-1.4-3.9-3.5-3.9-2 0-3.4 1.5-3.4 3.8z"/></g><g class="st14" id="Layer_11"><path class="st16" d="M200.9 285.6c-.2-1.6-1.2-2.3-2.8-2.3-1.6 0-2.6.7-2.6 1.9 0 1.3 1.3 1.6 3.1 1.9 1.9.4 4.2 1 4.2 3.4 0 2.5-2.3 3.5-4.4 3.5-2.7 0-4.7-1.3-4.7-4h1.5c.1 2.1 1.6 2.8 3.4 2.8 1.3 0 2.8-.5 2.8-2.1 0-1.5-1.4-1.8-3.3-2.2-1.8-.4-4-.7-4-3.1 0-2.3 2.1-3.2 4.1-3.2 2.4 0 4.1 1.1 4.2 3.6h-1.5zM205.8 283.9h-1.4v-1.7h1.4v1.7zm0 9.8h-1.4v-8.3h1.4v8.3zM215.1 292.8c0 1.4-.1 2.1-.5 2.8-.6 1-1.7 1.5-3.3 1.5-1.7 0-3.2-.6-3.5-2.4h1.4c.2.9.8 1.4 2.1 1.4 1.7 0 2.4-.8 2.4-2.7v-1c-.5 1-1.4 1.5-2.6 1.5-2.2 0-3.6-1.6-3.6-4.2 0-2.2 1.2-4.4 3.7-4.4 1.1 0 2.1.5 2.6 1.4v-1.2h1.2v7.3zm-6.2-3.2c0 1.8 1 3 2.4 3 1.5 0 2.4-1.2 2.4-3.2 0-1.9-.9-3-2.5-3-1.4 0-2.3 1.2-2.3 3.2zM218.4 286.7c.7-1 1.6-1.5 2.8-1.5 2 0 2.8 1.1 2.8 3v5.5h-1.4v-4.9c0-1.3-.1-2.4-1.8-2.4-1.8 0-2.4 1.3-2.4 3v4.3H217v-8.3h1.3v1.3zM237.3 293.7H236v-1.3c-.7 1-1.6 1.5-2.8 1.5-1.7 0-2.8-1-2.8-2.8v-5.7h1.4v5.3c0 1.2.3 2 1.7 2 1.8 0 2.4-1.3 2.4-3v-4.3h1.4v8.3zM240.6 286.6c.6-1 1.6-1.4 2.8-1.4 2.3 0 3.8 1.7 3.8 4.3s-1.4 4.4-3.7 4.4c-1.2 0-2.1-.4-2.8-1.4v4.3h-1.4v-11.4h1.3v1.2zm.1 2.9c0 2 1 3.2 2.6 3.2s2.5-1.2 2.5-3.2-1-3.2-2.6-3.2-2.5 1.2-2.5 3.2z"/></g><g class="st14" id="Layer_11_copy"><path class="st16" d="M440.9 285.6c-.2-1.6-1.2-2.3-2.8-2.3-1.6 0-2.6.7-2.6 1.9 0 1.3 1.3 1.6 3.1 1.9 1.9.4 4.2 1 4.2 3.4 0 2.5-2.3 3.5-4.4 3.5-2.7 0-4.7-1.3-4.7-4h1.5c.1 2.1 1.6 2.8 3.4 2.8 1.3 0 2.8-.5 2.8-2.1 0-1.5-1.4-1.8-3.3-2.2-1.8-.4-4-.7-4-3.1 0-2.3 2.1-3.2 4.1-3.2 2.4 0 4.1 1.1 4.2 3.6h-1.5zM445.8 283.9h-1.4v-1.7h1.4v1.7zm0 9.8h-1.4v-8.3h1.4v8.3zM455.1 292.8c0 1.4-.1 2.1-.5 2.8-.6 1-1.7 1.5-3.3 1.5-1.7 0-3.2-.6-3.5-2.4h1.4c.2.9.8 1.4 2.1 1.4 1.7 0 2.4-.8 2.4-2.7v-1c-.5 1-1.4 1.5-2.6 1.5-2.2 0-3.6-1.6-3.6-4.2 0-2.2 1.2-4.4 3.7-4.4 1.1 0 2.1.5 2.6 1.4v-1.2h1.2v7.3zm-6.2-3.2c0 1.8 1 3 2.4 3 1.5 0 2.4-1.2 2.4-3.2 0-1.9-.9-3-2.5-3-1.4 0-2.3 1.2-2.3 3.2zM458.4 286.7c.7-1 1.6-1.5 2.8-1.5 2 0 2.8 1.1 2.8 3v5.5h-1.4v-4.9c0-1.3-.1-2.4-1.8-2.4-1.8 0-2.4 1.3-2.4 3v4.3H457v-8.3h1.3v1.3zM477.3 293.7H476v-1.3c-.7 1-1.6 1.5-2.8 1.5-1.7 0-2.8-1-2.8-2.8v-5.7h1.4v5.3c0 1.2.3 2 1.7 2 1.8 0 2.4-1.3 2.4-3v-4.3h1.4v8.3zM480.6 286.6c.6-1 1.6-1.4 2.8-1.4 2.3 0 3.8 1.7 3.8 4.3s-1.4 4.4-3.7 4.4c-1.2 0-2.1-.4-2.8-1.4v4.3h-1.4v-11.4h1.3v1.2zm.1 2.9c0 2 1 3.2 2.6 3.2s2.5-1.2 2.5-3.2-1-3.2-2.6-3.2-2.5 1.2-2.5 3.2z"/></g><g class="st14" id="Layer_11_copy_2"><path class="st16" d="M681.9 285.6c-.2-1.6-1.2-2.3-2.8-2.3-1.6 0-2.6.7-2.6 1.9 0 1.3 1.3 1.6 3.1 1.9 1.9.4 4.2 1 4.2 3.4 0 2.5-2.3 3.5-4.4 3.5-2.7 0-4.7-1.3-4.7-4h1.5c.1 2.1 1.6 2.8 3.4 2.8 1.3 0 2.8-.5 2.8-2.1 0-1.5-1.4-1.8-3.3-2.2-1.8-.4-4-.7-4-3.1 0-2.3 2.1-3.2 4.1-3.2 2.4 0 4.1 1.1 4.2 3.6h-1.5zM686.8 283.9h-1.4v-1.7h1.4v1.7zm0 9.8h-1.4v-8.3h1.4v8.3zM696.1 292.8c0 1.4-.1 2.1-.5 2.8-.6 1-1.7 1.5-3.3 1.5-1.7 0-3.2-.6-3.5-2.4h1.4c.2.9.8 1.4 2.1 1.4 1.7 0 2.4-.8 2.4-2.7v-1c-.5 1-1.4 1.5-2.6 1.5-2.2 0-3.6-1.6-3.6-4.2 0-2.2 1.2-4.4 3.7-4.4 1.1 0 2.1.5 2.6 1.4v-1.2h1.2v7.3zm-6.2-3.2c0 1.8 1 3 2.4 3 1.5 0 2.4-1.2 2.4-3.2 0-1.9-.9-3-2.5-3-1.4 0-2.3 1.2-2.3 3.2zM699.4 286.7c.7-1 1.6-1.5 2.8-1.5 2 0 2.8 1.1 2.8 3v5.5h-1.4v-4.9c0-1.3-.1-2.4-1.8-2.4-1.8 0-2.4 1.3-2.4 3v4.3H698v-8.3h1.3v1.3zM718.3 293.7H717v-1.3c-.7 1-1.6 1.5-2.8 1.5-1.7 0-2.8-1-2.8-2.8v-5.7h1.4v5.3c0 1.2.3 2 1.7 2 1.8 0 2.4-1.3 2.4-3v-4.3h1.4v8.3zM721.6 286.6c.6-1 1.6-1.4 2.8-1.4 2.3 0 3.8 1.7 3.8 4.3s-1.4 4.4-3.7 4.4c-1.2 0-2.1-.4-2.8-1.4v4.3h-1.4v-11.4h1.3v1.2zm.1 2.9c0 2 1 3.2 2.6 3.2s2.5-1.2 2.5-3.2-1-3.2-2.6-3.2-2.5 1.2-2.5 3.2z"/></g></svg>