<svg xmlns="http://www.w3.org/2000/svg" viewBox="0 0 917.2 626.2"><style>.st2{fill:#fff;stroke:#000;stroke-width:.5;stroke-miterlimit:10}.st5{fill:#ccc}.st6{font-family:&apos;MyriadPro-Regular&apos;}.st7{font-size:70px}.st8{stroke:#000;stroke-width:.5;stroke-miterlimit:10}.st8,.st9{fill:#1a1a1a}.st10,.st11{stroke-width:.5;stroke:#000;stroke-miterlimit:10;fill:none}.st11{fill:#f2f2f2}.st16{enable-background:new}.st17{fill:#b3b3b3}</style><g id="Layer_1"><g id="Layer_1_1_"><g id="Layer_13"><path opacity=".4" fill="#f2f2f2" d="M15.3 547.7V79.9h76.6l391.4 115.8h278.1l59.7 39 76.9-10.6v323.6z"/><path fill="none" stroke="#000" stroke-width="8" stroke-miterlimit="10" d="M10.2 79.9h81.7l391.4 115.8h278.1l59.7 39 83.1-11.5"/><path d="M894 204.9l4 37.1 19.2-20.8z"/></g><g id="Layer_5"><path class="st2" d="M401.2 59.8h154.3c16.6 0 30 13.4 30 30v215c0 16.6-13.4 30-30 30H401.2c-16.6 0-30-13.4-30-30v-215c0-16.6 13.4-30 30-30z"/><path d="M161.2 59.8h154.2c16.6 0 30 13.4 30 30v215c0 16.6-13.4 30-30 30H161.2c-16.6 0-30-13.4-30-30v-215c0-16.6 13.4-30 30-30z" fill="#f2f2f2"/><path class="st2" d="M647.2 59.8h154.2c16.6 0 30 13.4 30 30v215c0 16.6-13.4 30-30 30H647.2c-16.6 0-30-13.4-30-30v-215c0-16.6 13.4-30 30-30z"/><path d="M260.3 407c0-3.1 2.2-5.8 5.3-6.3m-70.4 45c-.2 4.4.5 8.8 2 13" fill="none"/></g><g id="Layer_12"><ellipse class="st5" cx="553" cy="606.5" rx="108.3" ry="19.6"/><ellipse class="st5" cx="81.6" cy="604" rx="72.8" ry="13.2"/></g><g id="Layer_9"><path class="st5" d="M664.7 169.9h136v3.3h-136z"/><circle class="st5" cx="652.7" cy="171.3" r="4"/><path class="st5" d="M664.7 196.9h136v3.3h-136z"/><circle class="st5" cx="652.7" cy="198.3" r="4"/><path class="st5" d="M664.7 224.9h136v3.3h-136z"/><circle class="st5" cx="652.7" cy="226.3" r="4"/><path class="st5" d="M644.3 266.3h158.9v30H644.3z"/></g><g id="Layer_9_copy"><path class="st5" d="M418.7 169.9h136v3.3h-136z"/><circle class="st5" cx="406.7" cy="171.3" r="4"/><path class="st5" d="M418.7 196.9h136v3.3h-136z"/><circle class="st5" cx="406.7" cy="198.3" r="4"/><path class="st5" d="M418.7 224.9h136v3.3h-136z"/><circle class="st5" cx="406.7" cy="226.3" r="4"/><path class="st5" d="M398.3 266.3h158.9v30H398.3z"/></g><g id="Layer_9_copy_2"><path class="st5" d="M178.7 169.9h136v3.3h-136z"/><circle class="st5" cx="166.7" cy="171.3" r="4"/><path class="st5" d="M178.7 196.9h136v3.3h-136z"/><circle class="st5" cx="166.7" cy="198.3" r="4"/><path class="st5" d="M178.7 224.9h136v3.3h-136z"/><circle class="st5" cx="166.7" cy="226.3" r="4"/><path class="st5" d="M158.3 266.3h158.9v30H158.3z"/></g><path class="st2" d="M118.7 165H273c16.6 0 30 13.4 30 30v215c0 16.6-13.4 30-30 30H118.7c-16.6 0-30-13.4-30-30V195c0-16.6 13.4-30 30-30z" id="Layer_14"/><g id="Layer_9_copy_3"><path class="st5" d="M139.7 277h136v3.3h-136z"/><circle class="st5" cx="127.7" cy="278.3" r="4"/><path class="st5" d="M139.7 304h136v3.3h-136z"/><circle class="st5" cx="127.7" cy="305.3" r="4"/><path class="st5" d="M139.7 332h136v3.3h-136z"/><circle class="st5" cx="127.7" cy="333.3" r="4"/></g><g id="Layer_4"><text transform="translate(536.96 234.35)" class="st6 st7">?</text><text transform="translate(63.96 234.35)" class="st6 st7">!</text></g><g id="Layer_15"><path class="st8" d="M13.1 305.6s5.8 5.9 15.4-8.4c0 0 7.5-11 11.3-23 0 0 5.3-14.4 17.7-22.4 0 0 9.1-7.5 23.8-4.6 0 0 13.5 2.3 18 14.8 0 0 7.3 15-3.8 32.3 0 0-3.8 5.6-4.7 11.2L61 321.1l-36.2-2.4-3.1-3c-.1.1-6.2-.7-8.6-10.1z"/><path class="st8" d="M24.7 318.8s16.2 11.9 30.3 9l37.8-15.9-2.1-6.3"/><path class="st2" d="M70 303.9c-.1.2-.2.5-.2.7.1.2.2.4.4.6 1.9 2.1 4.1 4 6.4 5.7 1.4 1 3.1 1.9 4.7 1.4 1-.4 1.8-1.1 2.4-2l2.9-3.5c-1.3-.9-1.4-2.9-1.2-4.5.2-2.1.6-4.3 1-6.4-3.5-2.7-7.5-4.4-11.8-5-1.5-.2-2.2 0-2.3 1.5-.1 1.3 0 2.7-.2 4-.4 2.6-1.1 5.1-2.1 7.5z"/><path class="st2" d="M78 296c4.3 1.6 9.4 2.7 13.4.3 2.9-1.8 4.6-5 5.6-8.3.9-3.5 1.4-7.2 1.6-10.8.3-2.3.3-4.6-.1-6.9-.7-3.2-2.7-6-4.6-8.7-3.2-4.4-6.8-9.1-11.9-10.8-2.9-1-6.1-.9-9.2-.7-2.3 0-4.6.4-6.7 1-1.8.7-3.5 1.7-4.9 3-4.1 3.5-6.9 8.5-7.6 13.8-2 14.2 12.8 23.7 24.4 28.1z"/><path class="st9" d="M63.7 290.9s9.8-20.8 1.6-31.4c0 0 6.3 2.5 11.2.9 0 0 12.6-3.4 18 6.4 0 0 2.5 6.1 5.3 8.4v-5l-4.3-9.9-11.8-10.2-11-2.7-11.1 4.6-7.2 7.1-3.3 16.5L58 287l5.7 3.9z"/><path class="st2" d="M70.7 276c.6 0 1.1-.3 1.4-.8s.6-1 .8-1.5c.2-.4.4-.7.7-1.1.2-.3.5-.6.9-.9.9-.6 2.1-.7 3.1-.3 1 .4 2 1 2.8 1.7m4.9-4.1l.6-1.2c.3-1 1.1-1.9 2-2.5.9-.3 1.8-.3 2.6-.2.9.1 1.8-.2 2.4-.9m-15 3.5c-3.3-1-6.8.3-8.6 3.2m13.4-6.1c1-2.2 3-3.7 5.3-4m-1.2 19.6c.7-.7 1.3-1.4 1.9-2.2.2-.2.3-.4.3-.6.1-.5-.3-1.1-.7-1.5l-2.1-2.1"/><ellipse transform="rotate(-41.323 76.293 272.869)" class="st8" cx="76.3" cy="272.9" rx="1.3" ry="1.7"/><ellipse transform="rotate(-41.323 88.73 266.795)" class="st8" cx="88.7" cy="266.8" rx="1.3" ry="1.7"/><path class="st10" d="M90 287.3c-.9.6-2 1-3.2 1-1.1 0-2.2-.1-3.3-.3l1.2-.9 3.4-2c.9-.6 1.9-1.1 3-1.5 2.5-.7-.3 3.2-1.1 3.7z"/><path class="st9" d="M89.4 591.4v15.3h2.3l1.6-6.4 4 6.4h22.4s-13.5-2.1-20-15.3H89.4zm-14.7 0v15.3h-2.2l-1.6-6.4-4 6.4H44.4s13.5-2.1 20-15.3h10.3z"/><path class="st11" d="M74.7 591.4H64.4s-21.2-135-19.5-166.3C46 405.3 58.1 395 58.1 395h48s12.1 10.3 13.1 30.1c1.7 31.3-19.5 166.3-19.5 166.3H89.4s-3.3-163-7.4-161.3c.1 0-9.6 63.3-7.3 161.3z"/><path d="M58.3 395c7.9-10.3-7.2-63.6-7.2-63.6l-37.5 65.8-6.6-3.7c22.7-71.7 32.2-83.2 32.2-83.2 4.7-4.7 30.5-5.7 30.5-5.7 4.9 3.5 11.2 4.3 16.7 2 3.8-3 25.7-1.8 25.7-1.8l33.4-5.8 28.7-36.2 6.7 3.4-28.3 48.5-37.7 12s-14.6 38.7-9 68.2c.2.1-26.1 14-47.6.1zm48.6-57.5s-6 12.5-20.1 5.6m-31-5.6s6 12.5 20.1 5.6" stroke-width=".5" fill="#eb058c" stroke="#000" stroke-miterlimit="10"/><path class="st2" d="M174.4 262.9c-5.8-9 2.4-5.1 2.4-5.1s7.3-9.2 9.8-7.9c3.4 1.8-5.5 16.4-5.5 16.4l-6.7-3.4zM13.6 397.2c5.4 9.2-2.6 5-2.6 5s-7.6 8.9-10 7.5c-3.3-1.9 6.2-16.2 6.2-16.2l6.4 3.7z"/></g><g id="Layer_16"><path d="M523.1 595.9h-10.8l1.8-191.1 69.8 8.1 17.6 182.9h-10.8l-40-162.6s-2.2-4-5 0l-22.6 162.7h-10.8" fill="#0077bf" stroke="#000" stroke-width=".5" stroke-miterlimit="10"/><path class="st2" d="M643.4 302c2.2-1.1 4.8-1.3 7.3-1.6 3.9-.5 7.8-1.4 11.6-2.6 1.2-.4 2.8-1.4 2.3-2.7-.2-.4-.5-.7-.9-.9-2.3-1.4-5.2-1.3-7.8-.7s-5.1 1.7-7.8 2c-2.4.3-5.1.1-7.1 1.5-1.4 1.1-2.5 2.5-3.2 4.1-.9 1.6-1.8 3.2-2.6 4.9 3.5 2.8 5.3-2.6 8.2-4zm-206.1-30c-2.2-1.1-4.8-1.3-7.3-1.6-3.9-.5-7.8-1.4-11.6-2.6-1.2-.4-2.8-1.4-2.3-2.7.2-.4.5-.7.9-.9 2.3-1.4 5.2-1.3 7.8-.7s5.1 1.7 7.8 2c2.4.3 5.1.1 7.1 1.5 1.4 1.1 2.5 2.5 3.2 4.2.9 1.6 1.8 3.2 2.6 4.9-3.5 2.7-5.3-2.7-8.2-4.1z"/><path class="st11" d="M437.4 275l6.2-5.7 30.7 27.4c5.7 5.1 8.9 4.8 8.9 4.8 31-3.4 54.8 5.5 54.8 5.5 7.3 8.5 17.2 0 17.2 0 25.4-.4 30.8 4 30.8 4l32.2 13s9.3-6.7 17.8-25.7l8.5 6s-13 42.3-32.2 37.7l-25.9-12.3v19.8l-2.5 63.6c-41.1 12.4-70-8.1-70-8.1 5.2-23.8-2.5-84.8-2.5-84.8s-40.4-3.5-46.2-11.1L437.4 275"/><path class="st9" d="M590.1 595.9v9.6h5.1v-2.4l3.3 2.4h24.1l-21.4-9.6zm-66.7 0v9.6h-5.1v-2.4l-3.3 2.4h-24.1l21.4-9.6z"/><path class="st2" d="M551.8 304.9c.1.2.2.4.2.7l-.3.6c-1.9 2.1-3.9 4.1-6.2 5.8-1.3 1-3 2-4.6 1.5-1-.4-1.8-1.1-2.4-1.9l-3-3.5c1.3-1 1.3-2.9 1.1-4.5-.3-2.1-.7-4.2-1.2-6.3 3.4-2.7 7.4-4.6 11.6-5.3 1.5-.2 2.2 0 2.3 1.5.1 1.3.1 2.7.3 4 .3 2.5 1.1 5.1 2.2 7.4z"/><path class="st2" d="M549.6 296.3c-3.9 2.5-8.6 4.6-13 3.1-3.2-1.1-5.6-3.9-7.2-6.9-1.6-3.3-2.9-6.7-3.8-10.2-.8-2.2-1.2-4.5-1.3-6.8 0-3.3 1.3-6.5 2.7-9.5 2.2-5 4.7-10.3 9.4-13 2.7-1.6 5.8-2.1 8.8-2.6 2.2-.5 4.5-.6 6.8-.4 1.9.3 3.7 1 5.4 1.9 4.8 2.6 8.5 6.8 10.3 11.9 4.8 13.5-7.7 25.8-18.1 32.5z"/><path d="M549.2 266.9c2.6.4 4.6 2.6 4.8 5.2m-23.5-7.9c2-1.7 5-1.8 7.1-.3" fill="#fff" stroke="#000" stroke-miterlimit="10"/><path class="st2" d="M537.5 280c-.8-.5-1.5-1.1-2.3-1.7-.2-.1-.3-.3-.4-.5-.1-.6 0-1.1.4-1.6l1.6-2.5"/><ellipse transform="rotate(-60.797 546.573 273.531)" class="st8" cx="546.6" cy="273.5" rx="1.7" ry="1.3"/><ellipse transform="rotate(-71.808 533.135 270.08)" class="st8" cx="533.1" cy="270.1" rx="1.7" ry="1.3"/><path class="st9" d="M560.2 277.2s4.3.5-1.9 6.9c0 0 .8 5-2.2 7.4 0 0 7.5-1.5 16.1-15.9 0 0 4.1-13.4-4.7-21.6 0 0-11.1-11.1-26.4-6 0 0-16.2 5.7-15.6 21.2 0 0 5-11.5 12.2-15.1 0 0 11.4 6.7 17.1 5.3.2-.1 5.3 2.9 5.4 17.8z"/><path class="st10" d="M531.2 267.6c1.6-.2 3.2.5 4.2 1.8m10.2 1.6c1.4.3 2.6 1.1 3.5 2.2m-2.6 12.9c.3.6.3 1.4-.1 1.9m-12.5.5c2.5 0 4.6-1.9 7.1-2.3 1.4-.2 2.8.1 4 .8"/><path d="M532.8 301.3l-1.2 4.6c10.3 17.7 25 1.1 25 1.1l-1.6-5.7s-12.6 6-22.2 0z" fill="#ffe600" stroke="#000" stroke-width=".5" stroke-miterlimit="10" id="Layer_17"/></g></g><g class="st16" id="Layer_2"><path class="st17" d="M221.5 101.5h-18v10.7h15.8v3.8h-15.8v15.8H199V97.6h22.5v3.9zm17.3 9.1h-1.1c-6.7 0-7.9 5.1-7.9 10.7v10.5h-4.1V107h3.9v5.3c1.7-4.2 4.8-5.9 9.2-5.9v4.2zm12.6 22c-7.3 0-11.7-4.8-11.7-12.9 0-8 4.7-13.4 11.5-13.4 8.2 0 11.2 6.5 11.2 13.6v.6h-18.6v.3c0 5.3 2.9 8.4 7.7 8.4 3.6 0 5.5-1.5 6.7-5.3h4c-1.3 5.7-5 8.7-10.8 8.7zm-.3-23c-4 0-6.8 2.9-7.3 7.5h14.4c-.4-4.6-3-7.5-7.1-7.5zm26 23c-7.3 0-11.7-4.8-11.7-12.9 0-8 4.7-13.4 11.5-13.4 8.2 0 11.2 6.5 11.2 13.6v.6h-18.6v.3c0 5.3 2.9 8.4 7.7 8.4 3.6 0 5.5-1.5 6.7-5.3h4c-1.2 5.7-4.9 8.7-10.8 8.7zm-.2-23c-4 0-6.8 2.9-7.3 7.5H284c-.4-4.6-3-7.5-7.1-7.5z"/></g><g class="st16" id="Layer_2_copy"><path class="st17" d="M454.5 97.2c6.1.1 9.7 3 9.8 9.2h-4v-.3c0-3.4-1.9-5.3-5.8-5.6v11.9c5.6 1.6 10.6 3.1 10.6 10 0 5.9-3.9 9.6-10.6 10v4h-2.3v-4c-6.2-.3-10.6-3.7-10.6-10.5v-.5h4.1v.6c0 4.3 2.3 6.6 6.5 7v-13.2c-5.8-1.1-9.9-3.5-9.9-9.2 0-6 4.4-8.9 9.9-9.5v-3.3h2.3v3.4zm-2.2 3.5c-3.6.3-5.9 2.4-5.9 5.7 0 3.6 2.8 5 5.9 5.7v-11.4zm2.2 28.5c3.8-.1 6.5-2.8 6.5-6.6 0-3.9-3.2-5.4-6.5-6.1v12.7zm35.8 2.6h-22.2c.4-7.8 4.2-10.6 10.1-14.3 3.6-2.3 8.1-4.8 8.1-9.7 0-3.8-2.7-6.4-6.6-6.4-5.1 0-6.5 4.3-6.6 8.5H469v-.9c0-6.7 4.4-11.2 10.9-11.2 6.4 0 10.6 3.9 10.6 9.9 0 6.6-5.2 9.8-10.2 12.8-3.1 1.9-6.7 3.8-7.6 7.6h17.5v3.7zm28-16.2c0 8-1.4 16.8-11.2 16.8-10.3 0-11.5-8.8-11.5-16.9s.8-17.8 11.3-17.8c10.6 0 11.4 9.8 11.4 17.9zm-18.4-.1c0 5 .1 13.3 7.1 13.3s6.9-8.6 6.9-13.5c0-5 .1-13.9-7-13.9s-7 8.9-7 14.1z"/></g><g class="st16" id="Layer_2_copy_2"><path class="st17" d="M701.5 97.2c6.1.1 9.7 3 9.8 9.2h-4v-.3c0-3.4-1.9-5.3-5.8-5.6v11.9c5.6 1.6 10.6 3.1 10.6 10 0 5.9-3.9 9.6-10.6 10v4h-2.3v-4c-6.2-.3-10.6-3.7-10.6-10.5v-.5h4.1v.6c0 4.3 2.3 6.6 6.5 7v-13.2c-5.8-1.1-9.9-3.5-9.9-9.2 0-6 4.4-8.9 9.9-9.5v-3.3h2.3v3.4zm-2.2 3.5c-3.6.3-5.9 2.4-5.9 5.7 0 3.6 2.8 5 5.9 5.7v-11.4zm2.2 28.5c3.8-.1 6.5-2.8 6.5-6.6 0-3.9-3.2-5.4-6.5-6.1v12.7zm35-27.3h-13.8l-2 10.1c1.9-2 4.1-2.7 6.9-2.7 6.4 0 10.8 4.5 10.8 11.1 0 6.9-4.7 11.9-11.8 11.9-6.5 0-10.8-3.9-11-9.8h4.1c.3 3.8 3.1 6.4 6.9 6.4 4.2 0 7.4-3.5 7.4-8 0-4.7-3-8-7.4-8-2.8 0-5 1.1-6.5 3.3l-3.5-.2 3.2-17.7h16.8v3.6zm28.8 13.7c0 8-1.4 16.8-11.2 16.8-10.3 0-11.5-8.8-11.5-16.9s.8-17.8 11.3-17.8c10.6 0 11.4 9.8 11.4 17.9zm-18.4-.1c0 5 .1 13.3 7.1 13.3s6.9-8.6 6.9-13.5c0-5 .1-13.9-7-13.9s-7 8.9-7 14.1z"/></g><g class="st16" id="Layer_2_copy_3"><path class="st17" d="M176.5 204.2c6.1.1 9.7 3 9.8 9.2h-4v-.3c0-3.4-1.9-5.3-5.8-5.6v11.9c5.6 1.6 10.6 3.1 10.6 10 0 5.9-3.9 9.6-10.6 10v4h-2.3v-4c-6.2-.3-10.6-3.7-10.6-10.5v-.5h4.1v.6c0 4.3 2.3 6.6 6.5 7v-13.2c-5.8-1.1-9.9-3.5-9.9-9.2 0-6 4.4-8.9 9.9-9.5v-3.3h2.3v3.4zm-2.2 3.5c-3.6.3-5.9 2.4-5.9 5.7 0 3.6 2.8 5 5.9 5.7v-11.4zm2.2 28.5c3.8-.1 6.5-2.8 6.5-6.6 0-3.9-3.2-5.4-6.5-6.1v12.7zm29.6 2.6h-4.5v-24.6h-8.5v-3.1c5 0 8.6-1.2 9.8-6.3h3.2v34zm32.1-29.9h-13.8l-2 10.1c1.9-2 4.1-2.7 6.9-2.7 6.4 0 10.8 4.5 10.8 11.1 0 6.9-4.7 11.9-11.8 11.9-6.5 0-10.8-3.9-11-9.8h4.1c.3 3.8 3.1 6.4 6.9 6.4 4.2 0 7.4-3.5 7.4-8 0-4.7-3-8-7.4-8-2.8 0-5 1.1-6.5 3.3l-3.5-.2 3.2-17.7h16.8v3.6z"/></g></g><path d="M393.9 5.3c3.9 0 6.9 1.7 6.9 5.9 0 4.7-3 6.2-7 6.2h-5.6V26h-2.7V5.3h8.4zm-5.8 9.9h5.3c2.6 0 4.7-.7 4.7-3.8 0-3.3-2.3-3.8-5-3.8h-4.9v7.6zm23.4-2h-.6c-4.1 0-4.8 3.1-4.8 6.5V26h-2.5V11h2.3v3.2c1-2.5 2.9-3.6 5.5-3.6v2.6zm4.4-4.8h-2.5v-3h2.5v3zm0 17.6h-2.5V11h2.5v15zm10.2.4c-4.6 0-7.1-3.2-7.1-7.7 0-5 2.8-8.1 7.2-8.1 3.7 0 5.9 1.9 6.4 5.3H430c-.4-2.1-1.7-3.2-3.8-3.2-2.8 0-4.6 2.3-4.6 5.9 0 3.7 1.7 5.9 4.5 5.9 2.2 0 3.7-1.4 4.1-3.8h2.5c-.5 3.4-2.9 5.7-6.6 5.7zm11.8-18h-2.5v-3h2.5v3zm0 17.6h-2.5V11h2.5v15zm6.2-12.6c1.2-1.8 2.8-2.7 5.1-2.7 3.7 0 5 2 5 5.4V26h-2.5v-8.8c0-2.4-.1-4.4-3.2-4.4-3.2 0-4.3 2.4-4.3 5.4V26h-2.5V11h2.3v2.4zm26.7 11c0 2.6-.2 3.8-1 5-1.1 1.8-3.2 2.7-5.9 2.7-3 0-5.9-1-6.3-4.4h2.5c.3 1.7 1.5 2.5 3.9 2.5 3.1 0 4.4-1.5 4.4-4.9v-1.8c-1 1.9-2.5 2.7-4.8 2.7-4 0-6.6-3-6.6-7.6 0-4.1 2.2-7.9 6.7-7.9 2.1 0 3.8.9 4.7 2.6V11h2.3v13.4zm-11.1-5.8c0 3.3 1.7 5.5 4.4 5.5s4.4-2.2 4.4-5.9c0-3.4-1.7-5.4-4.5-5.4-2.7 0-4.3 2.2-4.3 5.8zm35.7 2.7l4 4.7h-3.2l-2.2-2.6c-1.5 2.1-3.5 3-6 3-3.5 0-6.3-2.2-6.3-5.8 0-2.9 2.3-5.1 4.8-6.2-1.6-1.9-2.2-3.3-2.2-4.8 0-2.6 2-4.4 4.8-4.4s4.7 1.8 4.7 4.3-1.7 4.3-3.8 5.4l3.8 4.6c.4-.9.6-2.1.7-3.3h2.3c-.1 1.9-.6 3.8-1.4 5.1zm-11.1-.8c0 2.1 1.8 3.8 4 3.8 1.8 0 3.3-.9 4.4-2.6l-4.8-5.7c-1.7.9-3.6 2.4-3.6 4.5zm7.2-10.8c0-1.4-1-2.5-2.4-2.5s-2.4 1-2.4 2.3c0 1.3 1.3 2.8 2.1 3.8 1.2-.8 2.7-1.9 2.7-3.6zM518 5.3c3.9 0 6.9 1.7 6.9 5.9 0 4.7-3 6.2-7 6.2h-5.6V26h-2.7V5.3h8.4zm-5.8 9.9h5.3c2.6 0 4.7-.7 4.7-3.8 0-3.3-2.3-3.8-5-3.8h-4.9v7.6zM530.3 26h-2.5V5.3h2.5V26zm17.1-.1c-.5.2-1.1.3-1.7.3-1.4 0-2.1-.8-2.2-2.2-1.5 1.7-3.1 2.4-5.4 2.4-3 0-4.8-1.6-4.8-4.2 0-2.7 1.8-4.2 5.3-4.7 3.6-.4 4.8-.3 4.8-2.4 0-1.6-1.2-2.5-3.4-2.5-2.3 0-3.5.8-3.7 3h-2.4c.1-3.2 2.4-5.1 6.3-5.1 2 0 3.7.5 4.7 1.5s1 2.6 1 3.9c0 2.2-.1 4.4-.1 6.7 0 1.1.3 1.5 1 1.5.2 0 .3 0 .6-.1v1.9zm-7.3-6.8c-1.8.2-4.2.4-4.2 2.8 0 1.5 1.1 2.5 3 2.5 2.3 0 4.6-1.6 4.6-3.5v-2.7c-1 .7-2.3.8-3.4.9zm11.9-5.7c1.2-1.8 2.8-2.7 5.1-2.7 3.7 0 5 2 5 5.4V26h-2.5v-8.8c0-2.4-.1-4.4-3.2-4.4-3.2 0-4.3 2.4-4.3 5.4V26h-2.5V11h2.3v2.4zm22.5 2c-.2-2-1.5-2.7-3.7-2.7-1.9 0-3 .8-3 2 0 1.7 1.9 1.9 4 2.4 2.5.6 5.8 1.3 5.8 4.6 0 2.9-2.5 4.8-6.2 4.8-4.1 0-6.3-1.8-6.4-5.2h2.4c.1 2.3 1.7 3.2 4.1 3.2 2.2 0 3.7-1 3.7-2.5 0-1.7-1.7-2-3.8-2.5-2.6-.6-6-1-6-4.4 0-2.7 2.2-4.4 5.7-4.4 3.4 0 6 1.6 6 4.8h-2.6z" id="Layer_2_1_"/></svg>