<svg xmlns="http://www.w3.org/2000/svg" viewBox="0 0 870.85 758.88"><defs><style>.cls-21{fill:#0077bf}.cls-22,.cls-4{fill:none}.cls-21,.cls-22,.cls-25,.cls-3,.cls-6{stroke-miterlimit:10}.cls-3,.cls-9{fill:#fff}.cls-21,.cls-22,.cls-25,.cls-3,.cls-6{stroke:#000;stroke-width:.5px}.cls-5{fill:#ccc}.cls-11,.cls-6,.cls-7,.cls-8{fill:#eb058c}.cls-7,.cls-8{font-size:48px;font-family:MyriadPro-Bold,Myriad Pro;font-weight:700}.cls-8{font-size:24px}.cls-11,.cls-9{font-size:16px;font-family:MyriadPro-Regular,Myriad Pro}.cls-10{letter-spacing:-.01em}.cls-12{letter-spacing:0}.cls-13{letter-spacing:.02em}.cls-14{letter-spacing:-.01em}.cls-20,.cls-25{fill:#1a1a1a}</style></defs><path opacity=".08" fill="#0077bf" d="M.07 316.44v231.22h870.3V66.73l-74.8 8.93-198.33 83.33-240.34 86.29-231.33 35.38-41.61 37.14-83.89-1.36z" id="Layer_20" data-name="Layer 20"/><path stroke-miterlimit="10" stroke="#0077bf" stroke-width="8" fill="none" d="M870.37 66.73l-6.5.78-74.52 9.02-374.72 161.98-276.08 33.41-54.59 45.88-83.89-1.36" id="Layer_13" data-name="Layer 13"/><g id="Layer_9_copy_2" data-name="Layer 9 copy 2"><g id="Layer_5" data-name="Layer 5"><rect class="cls-3" x="113.83" y="59.79" width="214.25" height="274.99" rx="30" ry="30"/><path class="cls-4" d="M243 407a6.38 6.38 0 0 1 5.27-6.3m-70.38 44.96a32.74 32.74 0 0 0 2 13"/><rect class="cls-3" x="353.83" y="59.79" width="214.25" height="274.99" rx="30" ry="30"/><path class="cls-4" d="M483 407a6.38 6.38 0 0 1 5.27-6.3m-70.38 44.96a32.74 32.74 0 0 0 2 13"/><rect class="cls-3" x="593.83" y="59.79" width="214.25" height="274.99" rx="30" ry="30"/><path class="cls-4" d="M723 407a6.38 6.38 0 0 1 5.27-6.3m-70.38 44.96a32.74 32.74 0 0 0 2 13"/></g><path class="cls-5" d="M161.33 184.95h136.03v3.33H161.33z"/><circle class="cls-5" cx="149.32" cy="186.28" r="4"/><path class="cls-5" d="M161.33 211.95h136.03v3.33H161.33z"/><circle class="cls-5" cx="149.32" cy="213.28" r="4"/><path class="cls-5" d="M161.33 239.95h136.03v3.33H161.33z"/><circle class="cls-5" cx="149.32" cy="241.28" r="4"/><rect class="cls-6" x="140.99" y="275.28" width="158.92" height="30" rx="5" ry="5"/><text class="cls-7" transform="translate(165 150.75)">$99</text><text class="cls-8" transform="translate(245 130.75)">.99</text><text class="cls-9" transform="translate(196 294.75)">Si<tspan class="cls-10" x="11.63" y="0">g</tspan><tspan x="20.48" y="0">n up</tspan></text><text class="cls-11" transform="translate(182 105.75)"><tspan class="cls-12">S</tspan><tspan x="7.84" y="0">ta</tspan><tspan class="cls-13" x="20.85" y="0">r</tspan><tspan class="cls-14" x="26.46" y="0">t</tspan><tspan x="31.66" y="0">er plan</tspan></text><path class="cls-5" d="M401.33 184.95h136.03v3.33H401.33z"/><circle class="cls-5" cx="389.32" cy="186.28" r="4"/><path class="cls-5" d="M401.33 211.95h136.03v3.33H401.33z"/><circle class="cls-5" cx="389.32" cy="213.28" r="4"/><path class="cls-5" d="M401.33 239.95h136.03v3.33H401.33z"/><circle class="cls-5" cx="389.32" cy="241.28" r="4"/><rect class="cls-6" x="380.99" y="275.28" width="158.92" height="30" rx="5" ry="5"/><text class="cls-7" transform="translate(392 150.75)">$199</text><text class="cls-8" transform="translate(499 130.75)">.99</text><text class="cls-9" transform="translate(436 294.75)">Si<tspan class="cls-10" x="11.63" y="0">g</tspan><tspan x="20.48" y="0">n up</tspan></text><text class="cls-11" transform="translate(422 105.75)"><tspan class="cls-12">S</tspan><tspan x="7.84" y="0">ta</tspan><tspan class="cls-13" x="20.85" y="0">r</tspan><tspan class="cls-14" x="26.46" y="0">t</tspan><tspan x="31.66" y="0">er plan</tspan></text><path class="cls-5" d="M641.33 184.95h136.03v3.33H641.33z"/><circle class="cls-5" cx="629.32" cy="186.28" r="4"/><path class="cls-5" d="M641.33 211.95h136.03v3.33H641.33z"/><circle class="cls-5" cx="629.32" cy="213.28" r="4"/><path class="cls-5" d="M641.33 239.95h136.03v3.33H641.33z"/><circle class="cls-5" cx="629.32" cy="241.28" r="4"/><rect class="cls-6" x="620.99" y="275.28" width="158.92" height="30" rx="5" ry="5"/><text class="cls-7" transform="translate(633 150.75)">$299</text><text class="cls-8" transform="translate(739 130.75)">.99</text><text class="cls-9" transform="translate(676 294.75)">Si<tspan class="cls-10" x="11.63" y="0">g</tspan><tspan x="20.48" y="0">n up</tspan></text><text class="cls-11" transform="translate(662 105.75)"><tspan class="cls-12">S</tspan><tspan x="7.84" y="0">ta</tspan><tspan class="cls-13" x="20.85" y="0">r</tspan><tspan class="cls-14" x="26.46" y="0">t</tspan><tspan x="31.66" y="0">er plan</tspan></text></g><text transform="translate(372.33 24.26)" font-size="28.98" font-family="MyriadPro-Regular,Myriad Pro" id="Layer_4" data-name="Layer 4"><tspan letter-spacing="-.02em">P</tspan><tspan x="14.96" y="0" letter-spacing="0">r</tspan><tspan x="24.55" y="0" letter-spacing="0">icing &amp; </tspan><tspan x="113.2" y="0" letter-spacing="-.01em">P</tspan><tspan x="128.48" y="0">lans</tspan></text><g id="Layer_12" data-name="Layer 12"><ellipse class="cls-5" cx="328.38" cy="744.3" rx="80.47" ry="14.58"/><ellipse class="cls-5" cx="578.2" cy="744.3" rx="65.29" ry="11.83"/></g><g id="Layer_24" data-name="Layer 24"><path class="cls-3" d="M456.59 405.1l-3.67-6.1a11.91 11.91 0 0 1-3.18-12.28s1-10.72 1-11.22 2.34-1.17 2.84 0l1.34-15.38s1.34-2.34 3.18 0l1.17 31.26V396l2.67 5.52zm164.06 189.52c0 1.39-2.5 1.46-2.68.93s-5-11.45-5-11.45c-4.92-7.56-1.48-13.94-1.48-13.94l1.24-7.65 6.35 2-.52 6.67 1.71 4.91a34.77 34.77 0 0 1 2.56 25.69s-3.28 1.06-2.18-7.16z"/><path class="cls-20" d="M575.62 735.69v10.58h-5.72v-2.61l-3.58 2.61h-26.67l23.71-10.58h12.26zm33-16.19l3.16 10.1-5.47 1.71-.78-2.49-2.64 3.56-25.45 7.95 19.47-17.17 11.71-3.66z"/><path class="cls-21" d="M576.16 681.37l19.54 43.34 13.64-4.79-28.39-86.28-4.79 47.73z"/><path class="cls-21" d="M591.27 551.51l-14.01 183.9-16.22 1.51 1.48-90.37-8.48-18.44-18.07-76.6h55.3z"/><path class="cls-22" d="M563.62 565.43l-1.1 81.12"/><path d="M597.25 492.89s-3.89 31.25-6 58.62c0 0-31.71 9.86-55.31 0 0 0 9.59-67.38 3.69-85.82l-56.6-19-29-42 10.23-8 28.07 37.14 66.36 9.17 26 1.13s18.12-4.6 25 14.48l18.53 54.48-7.22 54.46h-12.4l3.59-45.07.28-5.25-14.1-38.44z" fill="#f2f2f2" stroke-width=".5" stroke="#000" stroke-miterlimit="10"/><g id="Layer_16_copy" data-name="Layer 16 copy"><path class="cls-3" d="M579.65 442a1.3 1.3 0 0 1 .18.71 1.26 1.26 0 0 1-.35.61 43.66 43.66 0 0 1-6.45 6c-1.39 1.06-3.12 2.08-4.79 1.57a5.94 5.94 0 0 1-2.54-2l-3.12-3.59c1.35-1 1.33-3 1.11-4.66a66.28 66.28 0 0 0-1.21-6.54 26.2 26.2 0 0 1 12.1-5.52c1.52-.26 2.31 0 2.43 1.53.1 1.39.12 2.76.33 4.14a28.66 28.66 0 0 0 2.31 7.75z"/><path class="cls-3" d="M577.43 433.09c-4 2.61-9 4.76-13.5 3.22-3.35-1.14-5.77-4.09-7.43-7.21a58.1 58.1 0 0 1-4-10.61 24.92 24.92 0 0 1-1.4-7c0-3.43 1.38-6.7 2.75-9.84 2.27-5.18 4.85-10.67 9.73-13.52 2.76-1.62 6-2.2 9.15-2.73a23.58 23.58 0 0 1 7.08-.44 16.42 16.42 0 0 1 5.6 2 23.15 23.15 0 0 1 10.74 12.34c4.96 14.01-7.96 26.8-18.72 33.79z"/><path d="M576.94 402.49a5.94 5.94 0 0 1 5 5.4m-24.37-8.13a5.94 5.94 0 0 1 7.38-.27" stroke="#000" fill="#fff" stroke-miterlimit="10"/><path class="cls-3" d="M563.81 417.09a25.2 25.2 0 0 1-2.36-1.81 1.68 1.68 0 0 1-.46-.53 1.78 1.78 0 0 1 .41-1.63l1.7-2.6"/><ellipse class="cls-25" cx="574.19" cy="409.33" rx="1.72" ry="1.36" transform="rotate(-60.8 574.204 409.33)"/><ellipse class="cls-25" cx="560.25" cy="405.82" rx="1.72" ry="1.36" transform="rotate(-71.81 560.24 405.821)"/><path class="cls-20" d="M588.41 413.26s4.51.52-2 7.17c0 0 .88 5.14-2.24 7.63 0 0 7.8-1.59 16.74-16.52 0 0 4.23-13.91-4.83-22.47 0 0-11.53-11.47-27.38-6.26 0 0-16.86 6-16.17 22 0 0 5.21-11.88 12.7-15.66 0 0 11.84 6.92 17.77 5.51 0-.02 5.29 3.09 5.41 18.6z"/><path class="cls-22" d="M558.32 403.28a5 5 0 0 1 4.39 1.82m10.48 1.63a6.22 6.22 0 0 1 3.6 2.31m-10.7 14.44a16.36 16.36 0 0 0 4.93-1.54 8.55 8.55 0 0 1-4.8 4.46 5.26 5.26 0 0 1-2.72.38 2.7 2.7 0 0 1-2.14-1.57 7.54 7.54 0 0 1-.06-2.74 8.82 8.82 0 0 0 4.79 1.01z"/><path d="M559.92 438.22l-1.23 4.78c10.72 18.39 26 1.13 26 1.13l-1.69-5.9s-13.11 6.26-23.08-.01z" fill="#ffe600" stroke-width=".5" stroke="#000" stroke-miterlimit="10" id="Layer_17_copy" data-name="Layer 17 copy"/></g></g><g id="Layer_22" data-name="Layer 22"><path class="cls-4" d="M589.72 212.68a73.59 73.59 0 0 0 9.28 27.95"/><path d="M619.61 212.8a40.87 40.87 0 0 1 3.26 13c.27 3.29-.68 7.61-4 8" stroke="#fff" stroke-width=".5" stroke-miterlimit="10" fill="none"/><path class="cls-3" d="M367.47 622.58l-1.84 102.87v6.27l4.79 2.95 6.27 8.85h9.22l-14.75-16.59 14.75-106.19s-12.54-4.43-18.44 1.84z"/><path class="cls-3" d="M273.08 646.55l20.28-5.16 59.73 14.75s11.06 5.45 16.22-36.91l-21.75 1.52-.37 21.38s-41.94-1.84-52.72-6.54l-7.74 2.21-10.51 1.38z"/><path class="cls-20" d="M385.91 640.56l15-58.9S409.23 559 399 543.5h-47s-6.64 11.06-6.91 33.46v60.84s30.77 5.2 40.82 2.76z"/><path class="cls-3" d="M413.16 536.91l10.68 8.09s23.93 8.16 26.89 15.26c0 0-.26 1.18-2.83-.61 0 0-6.58-3.81-9.15-4.07 0 0 .94 2.15-1.22 1.6l-5.66-2.18a11.52 11.52 0 0 1-10.52-5.75l-11.68-6.2s-3.04-4.49 3.49-6.14z"/><path class="cls-6" d="M413.93 547.92l4.97-10.51-25.71-16.31v14.93l20.74 11.89z"/><path class="cls-25" d="M306.63 459.33s5.85 5.95 15.57-8.47c0 0 7.62-11.17 11.43-23.32 0 0 5.36-14.63 17.91-22.66 0 0 9.22-7.64 24.13-4.7 0 0 13.65 2.3 18.22 14.95 0 0 7.41 15.14-3.89 32.67 0 0-3.89 5.71-4.79 11.38L355 475l-36.61-2.43-3.14-3s-6.25-.78-8.62-10.24z"/><path class="cls-25" d="M318.39 472.61s16.44 12.05 30.68 9.11l38.31-16.13-2.17-6.41"/><path class="cls-3" d="M364.2 457.56a1.28 1.28 0 0 0-.15.7 1.23 1.23 0 0 0 .36.59 42.73 42.73 0 0 0 6.48 5.73c1.39 1 3.11 1.95 4.73 1.4a5.81 5.81 0 0 0 2.42-2l2.94-3.6c-1.35-.93-1.39-2.89-1.22-4.53a64.87 64.87 0 0 1 1-6.43 25.64 25.64 0 0 0-12-5c-1.49-.21-2.26 0-2.33 1.57-.06 1.36 0 2.7-.2 4.06a28.05 28.05 0 0 1-2.03 7.51z"/><path class="cls-3" d="M372.38 449.56c4.38 1.67 9.55 2.71 13.58.3 3-1.78 4.68-5.1 5.63-8.43a56.86 56.86 0 0 0 1.63-11 24.39 24.39 0 0 0-.1-7c-.69-3.29-2.69-6.12-4.66-8.85-3.23-4.49-6.83-9.21-12.09-10.94-3-1-6.19-.88-9.32-.73a23.07 23.07 0 0 0-6.86 1 16.07 16.07 0 0 0-5 3.06 22.66 22.66 0 0 0-7.74 14c-1.79 14.54 13.2 24.12 24.93 28.59z"/><path class="cls-20" d="M357.86 444.43s9.92-21 1.64-31.76c0 0 6.4 2.51 11.39.93 0 0 12.75-3.46 18.21 6.45 0 0 2.49 6.15 5.41 8.52v-5.1l-4.38-10-11.91-10.34-11.22-2.71-11.22 4.58-7.29 7.21-3.35 16.72 7 11.57z"/><path class="cls-3" d="M364.92 429.28a1.82 1.82 0 0 0 1.45-.84 11 11 0 0 0 .8-1.55 7 7 0 0 1 .67-1.08 3.9 3.9 0 0 1 .9-.89 3.62 3.62 0 0 1 3.17-.26 10.16 10.16 0 0 1 2.81 1.69m5.01-4.1l.56-1.21a4.66 4.66 0 0 1 2-2.52 6.27 6.27 0 0 1 2.67-.2 2.64 2.64 0 0 0 2.4-1m-15.12 3.54a7.48 7.48 0 0 0-8.68 3.29m13.58-6.15a7 7 0 0 1 5.42-4m-1.35 19.78a24.66 24.66 0 0 0 1.88-2.22 1.65 1.65 0 0 0 .33-.61c.13-.56-.32-1.07-.72-1.47l-2.16-2.14"/><ellipse class="cls-25" cx="370.6" cy="426.16" rx="1.33" ry="1.68" transform="rotate(-41.32 370.636 426.172)"/><ellipse class="cls-25" cx="383.22" cy="419.94" rx="1.33" ry="1.68" transform="rotate(-41.32 383.246 419.962)"/><path class="cls-22" d="M378.91 439.51a10.13 10.13 0 0 0 8.12-4.79 13.4 13.4 0 0 1 .19 2.46 4.56 4.56 0 0 1-1.19 3.41 3.65 3.65 0 0 1-3.44.57 10.34 10.34 0 0 1-3.14-1.8"/><path class="cls-3" d="M431.26 407.26l3.69-12.9s-1.11-25.26 4.42-30.6c0 0 1.2-.18.46 2.86 0 0-1.15 7.51-.46 10 0 0 1.66-1.66 1.94.55v6.08a11.52 11.52 0 0 1-1.52 11.89l-1.52 13.14s-3.1 4.46-7.01-1.02z"/><path class="cls-6" d="M366.64 472.7l22.89 63.9m-9.89-63.34l6.2-2.79 38-17.12 17.42-46.73-10.19-1.62-18.8 39.27-50.88 15.21c-14.39 3.52-12.17 13.78-12.17 13.78l8.57 49.22-12.72 28.76s28.67 10.51 61.11.28c0 0-15.12-26.45-10.78-47.84 0 0 7.28-13.64-5-23.5 0 0-6.79-5-6.86-8.68"/><path class="cls-20" d="M280.09 631.29l6.91 3.87s-1.94 3-12.44 2.63l-7.47 13.13 8.88-5.11s-.59-3.87 5.08-5.95l11.75-.69 4.28-2.67s-.13-5.07-8.42-4.52c0 .02-2.21 1.39-8.57-.69zm86.27 112.23l-.74-7.7s-5.16-5.12 0-9c0 0 1.84-.55 8.48 9.54 0 0 3.27 5.3 11.8 7.14l5.21 3.5-15.35-.83s-2.77-6.5-7.88-10c0 0-.65 3.83-1 7.28z"/></g></svg>