<?xml version="1.0" encoding="utf-8"?>
<!-- Generator: Adobe Illustrator 21.0.2, SVG Export Plug-In . SVG Version: 6.00 Build 0)  -->
<svg version="1.1" id="Layer_1" xmlns="http://www.w3.org/2000/svg" xmlns:xlink="http://www.w3.org/1999/xlink" x="0px" y="0px"
	 viewBox="0 0 870.8 757.5" style="enable-background:new 0 0 870.8 757.5;" xml:space="preserve">
<style type="text/css">
	.st0{opacity:8.000000e-02;fill:#0077BF;enable-background:new    ;}
	.st1{fill:none;stroke:#0077BF;stroke-width:8;stroke-miterlimit:10;}
	.st2{fill:#FFFFFF;stroke:#000000;stroke-width:0.5;stroke-miterlimit:10;}
	.st3{fill:none;}
	.st4{fill:#CCCCCC;}
	.st5{fill:#EB058C;stroke:#000000;stroke-width:0.5;stroke-miterlimit:10;}
	.st6{fill:#1A1A1A;}
	.st7{fill:#0077BF;stroke:#000000;stroke-width:0.5;stroke-miterlimit:10;}
	.st8{fill:none;stroke:#000000;stroke-width:0.5;stroke-miterlimit:10;}
	.st9{fill:#F2F2F2;stroke:#000000;stroke-width:0.5;stroke-miterlimit:10;}
	.st10{fill:#FFFFFF;stroke:#000000;stroke-miterlimit:10;}
	.st11{fill:#1A1A1A;stroke:#000000;stroke-width:0.5;stroke-miterlimit:10;}
	.st12{fill:#FFE600;stroke:#000000;stroke-width:0.5;stroke-miterlimit:10;}
	.st13{fill:none;stroke:#FFFFFF;stroke-width:0.5;stroke-miterlimit:10;}
	.st14{enable-background:new    ;}
	.st15{fill:#EB058C;}
	.st16{fill:#FFFFFF;}
</style>
<g id="Layer_1_2_">
	<title>pricing-plans</title>
	<g id="Layer_1_1_">
		<g id="Layer_20">
			<polygon class="st0" points="0.1,315.1 0.1,546.3 870.4,546.3 870.4,65.4 795.6,74.3 597.2,157.6 356.9,243.9 125.6,279.3 
				83.9,316.5 			"/>
		</g>
		<g id="Layer_13">
			<polyline class="st1" points="870.4,65.4 863.9,66.2 789.3,75.2 414.6,237.2 138.5,270.6 83.9,316.5 0.1,315.1 			"/>
		</g>
		<g id="Layer_9_copy_2">
			<g id="Layer_5">
				<path class="st2" d="M143.8,58.4H298c16.6,0,30,13.4,30,30v215c0,16.6-13.4,30-30,30H143.8c-16.6,0-30-13.4-30-30v-215
					C113.8,71.9,127.3,58.4,143.8,58.4z"/>
				<path class="st3" d="M243,405.6c0-3.1,2.2-5.8,5.3-6.3"/>
				<path class="st3" d="M177.9,444.3c-0.2,4.4,0.5,8.8,2,13"/>
				<path class="st2" d="M383.8,58.4H538c16.6,0,30,13.4,30,30v215c0,16.6-13.4,30-30,30H383.8c-16.6,0-30-13.4-30-30v-215
					C353.8,71.9,367.3,58.4,383.8,58.4z"/>
				<path class="st3" d="M483,405.6c0-3.1,2.2-5.8,5.3-6.3"/>
				<path class="st3" d="M417.9,444.3c-0.2,4.4,0.5,8.8,2,13"/>
				<path class="st2" d="M623.8,58.4H778c16.6,0,30,13.4,30,30v215c0,16.6-13.4,30-30,30H623.8c-16.6,0-30-13.4-30-30v-215
					C593.8,71.9,607.3,58.4,623.8,58.4z"/>
				<path class="st3" d="M723,405.6c0-3.1,2.2-5.8,5.3-6.3"/>
				<path class="st3" d="M657.9,444.3c-0.2,4.4,0.5,8.8,2,13"/>
			</g>
			<rect x="161.3" y="183.6" class="st4" width="136" height="3.3"/>
			<circle class="st4" cx="149.3" cy="184.9" r="4"/>
			<rect x="161.3" y="210.6" class="st4" width="136" height="3.3"/>
			<circle class="st4" cx="149.3" cy="211.9" r="4"/>
			<rect x="161.3" y="238.6" class="st4" width="136" height="3.3"/>
			<circle class="st4" cx="149.3" cy="239.9" r="4"/>
			<path class="st5" d="M146,273.9h148.9c2.8,0,5,2.2,5,5v20c0,2.8-2.2,5-5,5H146c-2.8,0-5-2.2-5-5v-20
				C141,276.2,143.2,273.9,146,273.9z"/>
			<rect x="401.3" y="183.6" class="st4" width="136" height="3.3"/>
			<circle class="st4" cx="389.3" cy="184.9" r="4"/>
			<rect x="401.3" y="210.6" class="st4" width="136" height="3.3"/>
			<circle class="st4" cx="389.3" cy="211.9" r="4"/>
			<rect x="401.3" y="238.6" class="st4" width="136" height="3.3"/>
			<circle class="st4" cx="389.3" cy="239.9" r="4"/>
			<path class="st5" d="M386,273.9h148.9c2.8,0,5,2.2,5,5v20c0,2.8-2.2,5-5,5H386c-2.8,0-5-2.2-5-5v-20
				C381,276.2,383.2,273.9,386,273.9z"/>
			<rect x="641.3" y="183.6" class="st4" width="136" height="3.3"/>
			<circle class="st4" cx="629.3" cy="184.9" r="4"/>
			<rect x="641.3" y="210.6" class="st4" width="136" height="3.3"/>
			<circle class="st4" cx="629.3" cy="211.9" r="4"/>
			<rect x="641.3" y="238.6" class="st4" width="136" height="3.3"/>
			<circle class="st4" cx="629.3" cy="239.9" r="4"/>
			<path class="st5" d="M626,273.9h148.9c2.8,0,5,2.2,5,5v20c0,2.8-2.2,5-5,5H626c-2.8,0-5-2.2-5-5v-20
				C621,276.2,623.2,273.9,626,273.9z"/>
		</g>
		<g id="Layer_12">
			<ellipse class="st4" cx="328.4" cy="743" rx="80.5" ry="14.6"/>
			<ellipse class="st4" cx="578.2" cy="743" rx="65.3" ry="11.8"/>
		</g>
		<g id="Layer_24">
			<path class="st2" d="M456.6,403.8l-3.7-6.1c-3.3-3.1-4.6-7.9-3.2-12.3c0,0,1-10.7,1-11.2s2.3-1.2,2.8,0l1.3-15.4
				c0,0,1.3-2.3,3.2,0l1.2,31.2v4.6l2.7,5.5L456.6,403.8z"/>
			<path class="st2" d="M620.6,593.3c0,1.4-2.5,1.5-2.7,0.9s-5-11.5-5-11.5c-4.9-7.6-1.5-13.9-1.5-13.9l1.2-7.7l6.3,2l-0.5,6.7
				l1.7,4.9c4.1,7.9,5,17.1,2.6,25.7C622.8,600.4,619.5,601.5,620.6,593.3z"/>
			<polygon class="st6" points="575.6,734.3 575.6,744.9 569.9,744.9 569.9,742.3 566.3,744.9 539.6,744.9 539.6,744.9 563.4,734.3 
							"/>
			<polygon class="st6" points="608.6,718.2 611.8,728.2 606.3,730 605.5,727.5 602.9,731 577.4,739 577.4,739 596.9,721.8 			"/>
			<polygon class="st7" points="576.2,680 595.7,723.4 609.3,718.6 581,632.3 			"/>
			<polygon class="st7" points="591.3,550.2 577.2,734.1 561,735.6 562.5,645.2 554,626.8 536,550.2 			"/>
			<line class="st8" x1="563.6" y1="564.1" x2="562.5" y2="645.2"/>
			<path class="st9" d="M597.2,491.5c0,0-3.9,31.3-6,58.6c0,0-31.7,9.9-55.3,0c0,0,9.6-67.4,3.7-85.8l-56.6-19l-29-42l10.2-8
				l28.1,37.1l66.4,9.2l26,1.1c0,0,18.1-4.6,25,14.5l18.5,54.5l-7.2,54.5h-12.4l3.6-45.1l0.3-5.2l-14.1-38.4L597.2,491.5z"/>
			<g id="Layer_16_copy">
				<path class="st2" d="M579.6,440.6c0.1,0.2,0.2,0.5,0.2,0.7c-0.1,0.2-0.2,0.4-0.3,0.6c-1.9,2.2-4.1,4.2-6.5,6
					c-1.4,1.1-3.1,2.1-4.8,1.6c-1-0.4-1.9-1.1-2.5-2l-3.1-3.6c1.3-1,1.3-3,1.1-4.7c-0.3-2.2-0.7-4.4-1.2-6.5
					c3.5-2.9,7.7-4.8,12.1-5.5c1.5-0.3,2.3,0,2.4,1.5s0.1,2.8,0.3,4.1C577.7,435.6,578.5,438.2,579.6,440.6z"/>
				<path class="st2" d="M577.4,431.7c-4,2.6-9,4.8-13.5,3.2c-3.3-1.1-5.8-4.1-7.4-7.2c-1.7-3.4-3-7-4-10.6c-0.8-2.3-1.3-4.6-1.4-7
					c0-3.4,1.4-6.7,2.8-9.8c2.3-5.2,4.8-10.7,9.7-13.5c2.8-1.6,6-2.2,9.2-2.7c2.3-0.5,4.7-0.7,7.1-0.4c2,0.3,3.9,1,5.6,2
					c5,2.7,8.8,7.1,10.7,12.3C601.1,412,588.2,424.8,577.4,431.7z"/>
				<path class="st10" d="M576.9,401.1c2.7,0.4,4.8,2.7,5,5.4"/>
				<path class="st10" d="M557.6,398.4c2.1-1.8,5.2-1.9,7.4-0.3"/>
				<path class="st2" d="M563.8,415.7c-0.8-0.6-1.6-1.2-2.4-1.8c-0.2-0.1-0.3-0.3-0.5-0.5c-0.1-0.6,0-1.2,0.4-1.6l1.7-2.6"/>
				
					<ellipse transform="matrix(0.4879 -0.8729 0.8729 0.4879 -62.1149 710.1655)" class="st11" cx="574.2" cy="408" rx="1.7" ry="1.4"/>
				<ellipse transform="matrix(0.3122 -0.95 0.95 0.3122 1.0466 810.4529)" class="st11" cx="560.2" cy="404.5" rx="1.7" ry="1.4"/>
				<path class="st6" d="M588.4,411.9c0,0,4.5,0.5-2,7.2c0,0,0.9,5.1-2.2,7.6c0,0,7.8-1.6,16.7-16.5c0,0,4.2-13.9-4.8-22.5
					c0,0-11.5-11.5-27.4-6.3c0,0-16.9,6-16.2,22c0,0,5.2-11.9,12.7-15.7c0,0,11.8,6.9,17.8,5.5C583,393.3,588.3,396.4,588.4,411.9z"
					/>
				<path class="st8" d="M558.3,401.9c1.7-0.2,3.3,0.5,4.4,1.8"/>
				<path class="st8" d="M573.2,405.4c1.4,0.3,2.7,1.1,3.6,2.3"/>
				<path class="st8" d="M566.1,422.1c1.7-0.2,3.4-0.8,4.9-1.5c-0.9,2.1-2.7,3.7-4.8,4.5c-0.9,0.4-1.8,0.5-2.7,0.4s-1.8-0.7-2.1-1.6
					c-0.2-0.9-0.2-1.8-0.1-2.7C562.8,421.9,564.4,422.3,566.1,422.1z"/>
				<g id="Layer_17_copy">
					<path class="st12" d="M559.9,436.9l-1.2,4.8c10.7,18.4,26,1.1,26,1.1l-1.7-5.9C583,436.9,569.9,443.1,559.9,436.9z"/>
				</g>
			</g>
		</g>
		<g id="Layer_22">
			<path class="st3" d="M589.7,211.3c1.2,9.9,4.3,19.4,9.3,28"/>
			<path class="st13" d="M619.6,211.4c1.8,4.1,2.9,8.5,3.3,13c0.3,3.3-0.7,7.6-4,8"/>
			<path class="st2" d="M367.5,621.2l-1.8,102.9v6.3l4.8,3l6.3,8.8h9.2l-14.8-16.6L386,619.4C385.9,619.4,373.4,615,367.5,621.2z"/>
			<path class="st2" d="M273.1,645.2l20.3-5.2l59.7,14.8c0,0,11.1,5.5,16.2-36.9l-21.8,1.5l-0.4,21.4c0,0-41.9-1.8-52.7-6.5
				l-7.7,2.2l-10.5,1.4L273.1,645.2z"/>
			<path class="st6" d="M385.9,639.2l15-58.9c0,0,8.3-22.7-1.9-38.2h-47c0,0-6.6,11.1-6.9,33.5v60.8
				C345.1,636.5,375.9,641.7,385.9,639.2z"/>
			<path class="st2" d="M413.1,535.6l10.7,8.1c0,0,23.9,8.2,26.9,15.3c0,0-0.3,1.2-2.8-0.6c0,0-6.6-3.8-9.1-4.1c0,0,0.9,2.2-1.2,1.6
				l-5.7-2.2c-4.3,0.2-8.4-2-10.5-5.8l-11.7-6.2C409.7,541.7,406.6,537.2,413.1,535.6z"/>
			<polygon class="st5" points="413.9,546.6 418.9,536.1 393.2,519.8 393.2,534.7 			"/>
			<path class="st11" d="M306.6,458c0,0,5.9,6,15.6-8.5c0,0,7.6-11.2,11.4-23.3c0,0,5.4-14.6,17.9-22.7c0,0,9.2-7.6,24.1-4.7
				c0,0,13.6,2.3,18.2,15c0,0,7.4,15.1-3.9,32.7c0,0-3.9,5.7-4.8,11.4L355,473.6l-36.6-2.4l-3.1-3C315.2,468.2,309,467.4,306.6,458z
				"/>
			<path class="st11" d="M318.4,471.3c0,0,16.4,12,30.7,9.1l38.3-16.1l-2.2-6.4"/>
			<path class="st2" d="M364.2,456.2c-0.1,0.2-0.2,0.5-0.1,0.7s0.2,0.4,0.4,0.6c2,2.1,4.1,4,6.5,5.7c1.4,1,3.1,2,4.7,1.4
				c1-0.4,1.8-1.1,2.4-2l3-3.6c-1.4-0.9-1.4-2.9-1.2-4.5c0.2-2.2,0.6-4.3,1-6.4c-3.5-2.7-7.6-4.4-12-5c-1.5-0.2-2.3,0-2.3,1.6
				c0,1.4-0.1,2.7-0.2,4.1C365.9,451.3,365.2,453.8,364.2,456.2z"/>
			<path class="st2" d="M372.4,448.2c4.4,1.7,9.5,2.7,13.6,0.3c3-1.8,4.7-5.1,5.6-8.4c0.9-3.6,1.4-7.3,1.6-11c0.3-2.3,0.3-4.7-0.1-7
				c-0.7-3.3-2.7-6.1-4.7-8.9c-3.2-4.5-6.8-9.2-12.1-10.9c-3-1-6.2-0.9-9.3-0.7c-2.3,0-4.6,0.3-6.9,1c-1.8,0.7-3.5,1.7-5,3.1
				c-4.2,3.6-6.9,8.5-7.7,14C345.6,434.2,360.6,443.7,372.4,448.2z"/>
			<path class="st6" d="M357.9,443.1c0,0,9.9-21,1.6-31.8c0,0,6.4,2.5,11.4,0.9c0,0,12.8-3.5,18.2,6.5c0,0,2.5,6.1,5.4,8.5v-5.1
				l-4.4-10l-11.9-10.3l-11.2-2.7l-11.2,4.6l-7.3,7.2l-3.4,16.7l7,11.6L357.9,443.1z"/>
			<path class="st2" d="M364.9,427.9c0.6,0,1.1-0.3,1.5-0.8c0.3-0.5,0.6-1,0.8-1.5c0.2-0.4,0.4-0.7,0.7-1.1c0.2-0.3,0.6-0.6,0.9-0.9
				c1-0.6,2.1-0.7,3.2-0.3c1,0.4,2,1,2.8,1.7"/>
			<path class="st2" d="M379.7,420.9l0.6-1.2c0.3-1.1,1.1-1.9,2-2.5c0.9-0.3,1.8-0.3,2.7-0.2c0.9,0.1,1.8-0.3,2.4-1"/>
			<path class="st2" d="M372.2,419.5c-3.3-1-6.9,0.3-8.7,3.3"/>
			<path class="st2" d="M377.1,416.6c1-2.2,3-3.7,5.4-4"/>
			<path class="st2" d="M381.2,432.4c0.7-0.7,1.3-1.4,1.9-2.2c0.2-0.2,0.3-0.4,0.3-0.6c0.1-0.6-0.3-1.1-0.7-1.5l-2.2-2.1"/>
			
				<ellipse transform="matrix(0.751 -0.6603 0.6603 0.751 -188.203 350.4821)" class="st11" cx="370.6" cy="424.8" rx="1.3" ry="1.7"/>
			
				<ellipse transform="matrix(0.751 -0.6603 0.6603 0.751 -180.9777 357.2646)" class="st11" cx="383.2" cy="418.6" rx="1.3" ry="1.7"/>
			<path class="st8" d="M378.9,438.2c3.3-0.2,6.4-2,8.1-4.8c0.1,0.8,0.2,1.6,0.2,2.5c0.1,1.3-0.3,2.5-1.2,3.4c-1,0.8-2.3,1-3.4,0.6
				s-2.2-1-3.1-1.8"/>
			<path class="st2" d="M431.2,405.9l3.7-12.9c0,0-1.1-25.3,4.4-30.6c0,0,1.2-0.2,0.5,2.9c0,0-1.1,7.5-0.5,10c0,0,1.7-1.7,1.9,0.5
				v6.1c1.8,3.9,1.2,8.5-1.5,11.9l-1.5,13.1C438.3,406.9,435.2,411.4,431.2,405.9z"/>
			<path class="st5" d="M406.2,550.2"/>
			<line class="st8" x1="366.6" y1="471.4" x2="389.5" y2="535.2"/>
			<path class="st5" d="M379.6,471.9l6.2-2.8l38-17.1l17.4-46.7l-10.2-1.6L412.2,443l-50.9,15.2c-14.4,3.5-12.2,13.8-12.2,13.8
				l8.6,49.2L345,550c0,0,28.7,10.5,61.1,0.3c0,0-15.1-26.5-10.8-47.8c0,0,7.3-13.6-5-23.5c0,0-6.8-5-6.9-8.7"/>
			<path class="st6" d="M280.1,629.9l6.9,3.9c0,0-1.9,3-12.4,2.6l-7.5,13.1l8.9-5.1c0,0-0.6-3.9,5.1-6l11.8-0.7l4.3-2.7
				c0,0-0.1-5.1-8.4-4.5C288.6,630.7,286.4,632,280.1,629.9z"/>
			<path class="st6" d="M366.4,742.2l-0.7-7.7c0,0-5.2-5.1,0-9c0,0,1.8-0.5,8.5,9.5c0,0,3.3,5.3,11.8,7.1l5.2,3.5l-15.4-0.8
				c0,0-2.8-6.5-7.9-10c0,0-0.6,3.8-1,7.3L366.4,742.2z"/>
		</g>
	</g>
	<g id="Layer_2">
		<g class="st14">
			<path d="M373.9,4c3.9,0,6.9,1.7,6.9,5.9c0,4.7-3,6.2-7,6.2h-5.6v8.5h-2.7V4H373.9z M368.1,13.9h5.2c2.6,0,4.7-0.7,4.7-3.8
				c0-3.3-2.3-3.8-5-3.8h-4.9V13.9z"/>
			<path d="M391.4,11.9c-0.3,0-0.4,0-0.6,0c-4.1,0-4.8,3.1-4.8,6.5v6.3h-2.5v-15h2.3v3.2c1-2.5,2.9-3.6,5.5-3.6V11.9z"/>
			<path d="M395.9,7h-2.5V4h2.5V7z M395.9,24.6h-2.5v-15h2.5V24.6z"/>
			<path d="M406.1,25.1c-4.6,0-7.1-3.2-7.1-7.7c0-5,2.8-8.1,7.2-8.1c3.7,0,5.9,1.9,6.4,5.3H410c-0.4-2.1-1.7-3.2-3.8-3.2
				c-2.8,0-4.6,2.3-4.6,5.9c0,3.7,1.7,5.9,4.5,5.9c2.2,0,3.7-1.4,4.1-3.8h2.5C412.2,22.8,409.8,25.1,406.1,25.1z"/>
			<path d="M417.9,7h-2.5V4h2.5V7z M417.9,24.6h-2.5v-15h2.5V24.6z"/>
			<path d="M424.1,12c1.2-1.8,2.8-2.7,5.1-2.7c3.7,0,5,2,5,5.4v9.9h-2.5v-8.8c0-2.4-0.1-4.4-3.2-4.4c-3.2,0-4.3,2.4-4.3,5.4v7.8
				h-2.5v-15h2.3V12z"/>
			<path d="M450.8,23c0,2.6-0.2,3.8-1,5c-1.1,1.8-3.2,2.7-5.9,2.7c-3,0-5.9-1-6.3-4.4h2.5c0.3,1.7,1.5,2.5,3.9,2.5
				c3.1,0,4.4-1.5,4.4-4.9l0-1.8c-1,1.9-2.5,2.7-4.8,2.7c-4,0-6.6-3-6.6-7.6c0-4.1,2.2-7.9,6.7-7.9c2.1,0,3.8,0.9,4.7,2.6V9.7h2.3
				V23z M439.7,17.3c0,3.3,1.7,5.5,4.4,5.5c2.7,0,4.4-2.2,4.4-5.9c0-3.4-1.7-5.4-4.5-5.4C441.3,11.4,439.7,13.6,439.7,17.3z"/>
			<path d="M475.4,20l4,4.7h-3.2L474,22c-1.5,2.1-3.5,3-6,3c-3.5,0-6.3-2.2-6.3-5.8c0-2.9,2.3-5.1,4.8-6.2c-1.6-1.9-2.2-3.3-2.2-4.8
				c0-2.6,2-4.4,4.8-4.4c2.8,0,4.7,1.8,4.7,4.3c0,2.5-1.7,4.3-3.8,5.4l3.8,4.6c0.4-0.9,0.6-2.1,0.7-3.3h2.3
				C476.7,16.8,476.2,18.6,475.4,20z M464.3,19.1c0,2.1,1.8,3.8,4,3.8c1.8,0,3.3-0.9,4.4-2.6l-4.8-5.7
				C466.1,15.5,464.3,17,464.3,19.1z M471.5,8.4c0-1.4-1-2.5-2.4-2.5s-2.4,1-2.4,2.3c0,1.3,1.3,2.8,2.1,3.8
				C470,11.2,471.5,10,471.5,8.4z"/>
			<path d="M498,4c3.9,0,6.9,1.7,6.9,5.9c0,4.7-3,6.2-7,6.2h-5.6v8.5h-2.7V4H498z M492.2,13.9h5.2c2.6,0,4.7-0.7,4.7-3.8
				c0-3.3-2.3-3.8-5-3.8h-4.9V13.9z"/>
			<path d="M510.3,24.6h-2.5V4h2.5V24.6z"/>
			<path d="M527.4,24.6c-0.5,0.2-1.1,0.3-1.7,0.3c-1.4,0-2.1-0.8-2.2-2.2c-1.5,1.7-3.1,2.4-5.4,2.4c-3,0-4.8-1.6-4.8-4.2
				c0-2.7,1.8-4.2,5.3-4.7c3.6-0.4,4.8-0.3,4.8-2.4c0-1.6-1.2-2.5-3.4-2.5c-2.3,0-3.5,0.8-3.7,3h-2.4c0.1-3.2,2.4-5.1,6.3-5.1
				c2,0,3.7,0.5,4.7,1.5c1,1,1,2.6,1,3.9c0,2.2-0.1,4.4-0.1,6.7c0,1.1,0.3,1.5,1,1.5c0.2,0,0.3,0,0.6-0.1V24.6z M520.1,17.8
				c-1.8,0.2-4.2,0.4-4.2,2.8c0,1.5,1.1,2.5,3,2.5c2.3,0,4.6-1.6,4.6-3.5v-2.7C522.5,17.6,521.2,17.6,520.1,17.8z"/>
			<path d="M532,12c1.2-1.8,2.8-2.7,5.1-2.7c3.7,0,5,2,5,5.4v9.9h-2.5v-8.8c0-2.4-0.1-4.4-3.2-4.4c-3.2,0-4.3,2.4-4.3,5.4v7.8h-2.5
				v-15h2.3V12z"/>
			<path d="M554.5,14c-0.2-2-1.5-2.7-3.7-2.7c-1.9,0-3,0.8-3,2c0,1.7,1.9,1.9,4,2.4c2.5,0.6,5.8,1.3,5.8,4.6c0,2.9-2.5,4.8-6.2,4.8
				c-4.1,0-6.3-1.8-6.4-5.2h2.4c0.1,2.3,1.7,3.2,4.1,3.2c2.2,0,3.7-1,3.7-2.5c0-1.7-1.7-2-3.8-2.5c-2.6-0.6-6-1-6-4.4
				c0-2.7,2.2-4.4,5.7-4.4c3.4,0,6,1.6,6,4.8H554.5z"/>
		</g>
	</g>
</g>
<g id="Layer_2_1_">
	<g class="st14">
		<path class="st15" d="M186.2,92.9c-0.2-1.6-1.2-2.3-2.8-2.3c-1.6,0-2.6,0.7-2.6,1.9c0,1.3,1.3,1.6,3.1,1.9c1.9,0.4,4.2,1,4.2,3.4
			c0,2.5-2.3,3.5-4.4,3.5c-2.7,0-4.7-1.3-4.7-4h1.5c0.1,2.1,1.6,2.8,3.4,2.8c1.3,0,2.8-0.5,2.8-2.1c0-1.5-1.4-1.8-3.3-2.2
			c-1.8-0.4-4-0.7-4-3.1c0-2.3,2.1-3.2,4.1-3.2c2.4,0,4.1,1.1,4.2,3.6H186.2z"/>
		<path class="st15" d="M193.3,93.9h-1.6v4.8c0,0.8,0,1.2,0.9,1.2c0.3,0,0.4,0,0.7,0v1.2c-0.4,0-0.6,0.1-1,0.1c-2.1,0-2-1-2-2.8
			v-4.4h-1.4v-1.1h1.4v-2.4h1.4v2.4h1.6V93.9z"/>
		<path class="st15" d="M202.1,101c-0.3,0.1-0.6,0.2-0.9,0.2c-0.8,0-1.2-0.4-1.2-1.2c-0.8,0.9-1.7,1.3-3,1.3c-1.6,0-2.6-0.9-2.6-2.3
			c0-1.5,1-2.3,2.9-2.6c2-0.2,2.6-0.2,2.6-1.3c0-0.9-0.7-1.4-1.9-1.4c-1.3,0-1.9,0.5-2,1.7h-1.3c0-1.8,1.3-2.8,3.5-2.8
			c1.1,0,2,0.3,2.6,0.8c0.6,0.6,0.6,1.4,0.6,2.1c0,1.2-0.1,2.4-0.1,3.7c0,0.6,0.1,0.8,0.6,0.8c0.1,0,0.2,0,0.3,0V101z M198.1,97.2
			c-1,0.1-2.3,0.2-2.3,1.6c0,0.8,0.6,1.4,1.6,1.4c1.3,0,2.5-0.9,2.5-1.9v-1.5C199.4,97.1,198.7,97.1,198.1,97.2z"/>
		<path class="st15" d="M207.7,94c-0.1,0-0.2,0-0.4,0c-2.2,0-2.6,1.7-2.6,3.6v3.5h-1.4v-8.3h1.3v1.8c0.6-1.4,1.6-2,3.1-2V94z"/>
		<path class="st15" d="M212.2,93.9h-1.6v4.8c0,0.8,0,1.2,0.9,1.2c0.3,0,0.4,0,0.7,0v1.2c-0.4,0-0.6,0.1-1,0.1c-2.1,0-2-1-2-2.8
			v-4.4h-1.4v-1.1h1.4v-2.4h1.4v2.4h1.6V93.9z"/>
		<path class="st15" d="M217.2,101.3c-2.4,0-3.9-1.6-3.9-4.3c0-2.7,1.6-4.5,3.8-4.5c2.7,0,3.7,2.2,3.7,4.5v0.2h-6.2l0,0.1
			c0,1.8,1,2.8,2.6,2.8c1.2,0,1.8-0.5,2.2-1.8h1.3C220.4,100.3,219.1,101.3,217.2,101.3z M217.1,93.6c-1.3,0-2.3,1-2.4,2.5h4.8
			C219.3,94.6,218.5,93.6,217.1,93.6z"/>
		<path class="st15" d="M226.6,94c-0.1,0-0.2,0-0.4,0c-2.2,0-2.6,1.7-2.6,3.6v3.5h-1.4v-8.3h1.3v1.8c0.6-1.4,1.6-2,3.1-2V94z"/>
		<path class="st15" d="M233.4,93.9c0.6-1,1.6-1.4,2.8-1.4c2.3,0,3.8,1.7,3.8,4.3s-1.4,4.4-3.7,4.4c-1.2,0-2.1-0.4-2.8-1.4v4.3h-1.4
			V92.7h1.3V93.9z M233.4,96.8c0,2,1,3.2,2.6,3.2c1.6,0,2.5-1.2,2.5-3.2c0-2-1-3.2-2.6-3.2C234.4,93.6,233.4,94.8,233.4,96.8z"/>
		<path class="st15" d="M243,101h-1.4V89.6h1.4V101z"/>
		<path class="st15" d="M252.4,101c-0.3,0.1-0.6,0.2-0.9,0.2c-0.8,0-1.2-0.4-1.2-1.2c-0.8,0.9-1.7,1.3-3,1.3c-1.6,0-2.6-0.9-2.6-2.3
			c0-1.5,1-2.3,2.9-2.6c2-0.2,2.6-0.2,2.6-1.3c0-0.9-0.7-1.4-1.9-1.4c-1.3,0-1.9,0.5-2,1.7H245c0-1.8,1.3-2.8,3.5-2.8
			c1.1,0,2,0.3,2.6,0.8c0.6,0.6,0.6,1.4,0.6,2.1c0,1.2-0.1,2.4-0.1,3.7c0,0.6,0.1,0.8,0.6,0.8c0.1,0,0.2,0,0.3,0V101z M248.4,97.2
			c-1,0.1-2.3,0.2-2.3,1.6c0,0.8,0.6,1.4,1.6,1.4c1.3,0,2.5-0.9,2.5-1.9v-1.5C249.7,97.1,249,97.1,248.4,97.2z"/>
		<path class="st15" d="M255,94c0.7-1,1.6-1.5,2.8-1.5c2,0,2.8,1.1,2.8,3v5.5h-1.4v-4.9c0-1.3-0.1-2.4-1.8-2.4c-1.8,0-2.4,1.3-2.4,3
			v4.3h-1.4v-8.3h1.3V94z"/>
	</g>
</g>
<g id="Layer_2_copy">
	<g class="st14">
		<path class="st15" d="M176.6,116.5c6.1,0.1,9.7,3,9.8,9.2h-4v-0.3c0-3.4-1.9-5.3-5.8-5.6v11.9c5.6,1.6,10.6,3.1,10.6,10
			c0,5.9-3.9,9.6-10.6,10v4h-2.3v-4c-6.2-0.3-10.6-3.7-10.6-10.5v-0.5h4.1c0,0.3,0,0.5,0,0.6c0,4.3,2.3,6.6,6.5,7v-13.2
			c-5.8-1.1-9.9-3.5-9.9-9.2c0-6,4.4-8.9,9.9-9.5v-3.3h2.3V116.5z M174.4,119.9c-3.6,0.3-5.9,2.4-5.9,5.7c0,3.6,2.8,5,5.9,5.7V119.9
			z M176.6,148.4c3.8-0.1,6.5-2.8,6.5-6.6c0-3.9-3.2-5.4-6.5-6.1V148.4z"/>
		<path class="st15" d="M195.5,142.8c0.4,3.3,2.8,5.3,6.2,5.3c5.9,0,7.2-6.4,7.6-11.1c0.1-1,0.1-1.3,0.1-2.3
			c-1.9,3.1-4.5,4.7-8.3,4.7c-6.2,0-10.4-4.5-10.4-11c0-6.8,4.6-11.4,11.2-11.4c9.8,0,11.7,8.8,11.7,16.6c0,7.7-2.3,18.1-12,18.1
			c-5.7,0-9.7-3.3-10.1-8.9H195.5z M195,128.2c0,4.1,2.3,7.5,6.7,7.5c4.2,0,7-3,7-7.4c0-4.7-2.8-7.7-7-7.7
			C197.7,120.6,195,123.6,195,128.2z"/>
		<path class="st15" d="M222.1,142.8c0.4,3.3,2.8,5.3,6.2,5.3c5.9,0,7.2-6.4,7.6-11.1c0.1-1,0.1-1.3,0.1-2.3
			c-1.9,3.1-4.5,4.7-8.3,4.7c-6.2,0-10.4-4.5-10.4-11c0-6.8,4.6-11.4,11.2-11.4c9.8,0,11.7,8.8,11.7,16.6c0,7.7-2.3,18.1-12,18.1
			c-5.7,0-9.7-3.3-10.1-8.9H222.1z M221.7,128.2c0,4.1,2.3,7.5,6.7,7.5c4.2,0,7-3,7-7.4c0-4.7-2.8-7.7-7-7.7
			C224.4,120.6,221.7,123.6,221.7,128.2z"/>
	</g>
</g>
<g id="Layer_2_copy_2">
	<g class="st14">
		<path class="st15" d="M249,134h-2.7v-2.7h2.7V134z"/>
		<path class="st15" d="M254.2,129.9c0.2,1.7,1.4,2.7,3.1,2.7c2.9,0,3.6-3.2,3.8-5.5c0-0.5,0-0.7,0-1.1c-1,1.6-2.3,2.3-4.2,2.3
			c-3.1,0-5.2-2.2-5.2-5.5c0-3.4,2.3-5.7,5.6-5.7c4.9,0,5.9,4.4,5.9,8.3c0,3.9-1.1,9-6,9c-2.8,0-4.9-1.6-5.1-4.4H254.2z M254,122.6
			c0,2.1,1.1,3.8,3.4,3.8c2.1,0,3.5-1.5,3.5-3.7c0-2.4-1.4-3.9-3.5-3.9C255.3,118.8,254,120.3,254,122.6z"/>
		<path class="st15" d="M267.6,129.9c0.2,1.7,1.4,2.7,3.1,2.7c2.9,0,3.6-3.2,3.8-5.5c0-0.5,0-0.7,0-1.1c-1,1.6-2.3,2.3-4.2,2.3
			c-3.1,0-5.2-2.2-5.2-5.5c0-3.4,2.3-5.7,5.6-5.7c4.9,0,5.9,4.4,5.9,8.3c0,3.9-1.1,9-6,9c-2.8,0-4.9-1.6-5.1-4.4H267.6z
			 M267.3,122.6c0,2.1,1.1,3.8,3.4,3.8c2.1,0,3.5-1.5,3.5-3.7c0-2.4-1.4-3.9-3.5-3.9C268.7,118.8,267.3,120.3,267.3,122.6z"/>
	</g>
</g>
<g id="Layer_2_copy_5">
	<g class="st14">
		<path class="st15" d="M426.2,92.9c-0.2-1.6-1.2-2.3-2.8-2.3c-1.6,0-2.6,0.7-2.6,1.9c0,1.3,1.3,1.6,3.1,1.9c1.9,0.4,4.2,1,4.2,3.4
			c0,2.5-2.3,3.5-4.4,3.5c-2.7,0-4.7-1.3-4.7-4h1.5c0.1,2.1,1.6,2.8,3.4,2.8c1.3,0,2.8-0.5,2.8-2.1c0-1.5-1.4-1.8-3.3-2.2
			c-1.8-0.4-4-0.7-4-3.1c0-2.3,2.1-3.2,4.1-3.2c2.4,0,4.1,1.1,4.2,3.6H426.2z"/>
		<path class="st15" d="M433.3,93.9h-1.6v4.8c0,0.8,0,1.2,0.9,1.2c0.3,0,0.4,0,0.7,0v1.2c-0.4,0-0.6,0.1-1,0.1c-2.1,0-2-1-2-2.8
			v-4.4h-1.4v-1.1h1.4v-2.4h1.4v2.4h1.6V93.9z"/>
		<path class="st15" d="M442.1,101c-0.3,0.1-0.6,0.2-0.9,0.2c-0.8,0-1.2-0.4-1.2-1.2c-0.8,0.9-1.7,1.3-3,1.3c-1.6,0-2.6-0.9-2.6-2.3
			c0-1.5,1-2.3,2.9-2.6c2-0.2,2.6-0.2,2.6-1.3c0-0.9-0.7-1.4-1.9-1.4c-1.3,0-1.9,0.5-2,1.7h-1.3c0-1.8,1.3-2.8,3.5-2.8
			c1.1,0,2,0.3,2.6,0.8c0.6,0.6,0.6,1.4,0.6,2.1c0,1.2-0.1,2.4-0.1,3.7c0,0.6,0.1,0.8,0.6,0.8c0.1,0,0.2,0,0.3,0V101z M438.1,97.2
			c-1,0.1-2.3,0.2-2.3,1.6c0,0.8,0.6,1.4,1.6,1.4c1.3,0,2.5-0.9,2.5-1.9v-1.5C439.4,97.1,438.7,97.1,438.1,97.2z"/>
		<path class="st15" d="M447.7,94c-0.1,0-0.2,0-0.4,0c-2.2,0-2.6,1.7-2.6,3.6v3.5h-1.4v-8.3h1.3v1.8c0.6-1.4,1.6-2,3.1-2V94z"/>
		<path class="st15" d="M452.2,93.9h-1.6v4.8c0,0.8,0,1.2,0.9,1.2c0.3,0,0.4,0,0.7,0v1.2c-0.4,0-0.6,0.1-1,0.1c-2.1,0-2-1-2-2.8
			v-4.4h-1.4v-1.1h1.4v-2.4h1.4v2.4h1.6V93.9z"/>
		<path class="st15" d="M457.2,101.3c-2.4,0-3.9-1.6-3.9-4.3c0-2.7,1.6-4.5,3.8-4.5c2.7,0,3.7,2.2,3.7,4.5v0.2h-6.2l0,0.1
			c0,1.8,1,2.8,2.6,2.8c1.2,0,1.8-0.5,2.2-1.8h1.3C460.4,100.3,459.1,101.3,457.2,101.3z M457.1,93.6c-1.3,0-2.3,1-2.4,2.5h4.8
			C459.3,94.6,458.5,93.6,457.1,93.6z"/>
		<path class="st15" d="M466.6,94c-0.1,0-0.2,0-0.4,0c-2.2,0-2.6,1.7-2.6,3.6v3.5h-1.4v-8.3h1.3v1.8c0.6-1.4,1.6-2,3.1-2V94z"/>
		<path class="st15" d="M473.4,93.9c0.6-1,1.6-1.4,2.8-1.4c2.3,0,3.8,1.7,3.8,4.3s-1.4,4.4-3.7,4.4c-1.2,0-2.1-0.4-2.8-1.4v4.3h-1.4
			V92.7h1.3V93.9z M473.4,96.8c0,2,1,3.2,2.6,3.2c1.6,0,2.5-1.2,2.5-3.2c0-2-1-3.2-2.6-3.2C474.4,93.6,473.4,94.8,473.4,96.8z"/>
		<path class="st15" d="M483,101h-1.4V89.6h1.4V101z"/>
		<path class="st15" d="M492.4,101c-0.3,0.1-0.6,0.2-0.9,0.2c-0.8,0-1.2-0.4-1.2-1.2c-0.8,0.9-1.7,1.3-3,1.3c-1.6,0-2.6-0.9-2.6-2.3
			c0-1.5,1-2.3,2.9-2.6c2-0.2,2.6-0.2,2.6-1.3c0-0.9-0.7-1.4-1.9-1.4c-1.3,0-1.9,0.5-2,1.7H485c0-1.8,1.3-2.8,3.5-2.8
			c1.1,0,2,0.3,2.6,0.8c0.6,0.6,0.6,1.4,0.6,2.1c0,1.2-0.1,2.4-0.1,3.7c0,0.6,0.1,0.8,0.6,0.8c0.1,0,0.2,0,0.3,0V101z M488.4,97.2
			c-1,0.1-2.3,0.2-2.3,1.6c0,0.8,0.6,1.4,1.6,1.4c1.3,0,2.5-0.9,2.5-1.9v-1.5C489.7,97.1,489,97.1,488.4,97.2z"/>
		<path class="st15" d="M495,94c0.7-1,1.6-1.5,2.8-1.5c2,0,2.8,1.1,2.8,3v5.5h-1.4v-4.9c0-1.3-0.1-2.4-1.8-2.4c-1.8,0-2.4,1.3-2.4,3
			v4.3h-1.4v-8.3h1.3V94z"/>
	</g>
</g>
<g id="Layer_2_copy_4">
	<g class="st14">
		<path class="st15" d="M404.6,116.5c6.1,0.1,9.7,3,9.8,9.2h-4v-0.3c0-3.4-1.9-5.3-5.8-5.6v11.9c5.6,1.6,10.6,3.1,10.6,10
			c0,5.9-3.9,9.6-10.6,10v4h-2.3v-4c-6.2-0.3-10.6-3.7-10.6-10.5v-0.5h4.1c0,0.3,0,0.5,0,0.6c0,4.3,2.3,6.6,6.5,7v-13.2
			c-5.8-1.1-9.9-3.5-9.9-9.2c0-6,4.4-8.9,9.9-9.5v-3.3h2.3V116.5z M402.4,119.9c-3.6,0.3-5.9,2.4-5.9,5.7c0,3.6,2.8,5,5.9,5.7V119.9
			z M404.6,148.4c3.8-0.1,6.5-2.8,6.5-6.6c0-3.9-3.2-5.4-6.5-6.1V148.4z"/>
		<path class="st15" d="M434.2,151h-4.5v-24.6h-8.5v-3.1c5,0,8.6-1.2,9.8-6.3h3.2V151z"/>
		<path class="st15" d="M450.1,142.8c0.4,3.3,2.8,5.3,6.2,5.3c5.9,0,7.2-6.4,7.6-11.1c0.1-1,0.1-1.3,0.1-2.3
			c-1.9,3.1-4.5,4.7-8.3,4.7c-6.2,0-10.4-4.5-10.4-11c0-6.8,4.6-11.4,11.2-11.4c9.8,0,11.7,8.8,11.7,16.6c0,7.7-2.3,18.1-12,18.1
			c-5.7,0-9.7-3.3-10.1-8.9H450.1z M449.7,128.2c0,4.1,2.3,7.5,6.7,7.5c4.2,0,7-3,7-7.4c0-4.7-2.8-7.7-7-7.7
			C452.4,120.6,449.7,123.6,449.7,128.2z"/>
		<path class="st15" d="M476.8,142.8c0.4,3.3,2.8,5.3,6.2,5.3c5.9,0,7.2-6.4,7.6-11.1c0.1-1,0.1-1.3,0.1-2.3
			c-1.9,3.1-4.5,4.7-8.3,4.7c-6.2,0-10.4-4.5-10.4-11c0-6.8,4.6-11.4,11.2-11.4c9.8,0,11.7,8.8,11.7,16.6c0,7.7-2.3,18.1-12,18.1
			c-5.7,0-9.7-3.3-10.1-8.9H476.8z M476.3,128.2c0,4.1,2.3,7.5,6.7,7.5c4.2,0,7-3,7-7.4c0-4.7-2.8-7.7-7-7.7
			C479.1,120.6,476.3,123.6,476.3,128.2z"/>
	</g>
</g>
<g id="Layer_2_copy_3">
	<g class="st14">
		<path class="st15" d="M503,134h-2.7v-2.7h2.7V134z"/>
		<path class="st15" d="M508.2,129.9c0.2,1.7,1.4,2.7,3.1,2.7c2.9,0,3.6-3.2,3.8-5.5c0-0.5,0-0.7,0-1.1c-1,1.6-2.3,2.3-4.2,2.3
			c-3.1,0-5.2-2.2-5.2-5.5c0-3.4,2.3-5.7,5.6-5.7c4.9,0,5.9,4.4,5.9,8.3c0,3.9-1.1,9-6,9c-2.8,0-4.9-1.6-5.1-4.4H508.2z M508,122.6
			c0,2.1,1.1,3.8,3.4,3.8c2.1,0,3.5-1.5,3.5-3.7c0-2.4-1.4-3.9-3.5-3.9C509.3,118.8,508,120.3,508,122.6z"/>
		<path class="st15" d="M521.6,129.9c0.2,1.7,1.4,2.7,3.1,2.7c2.9,0,3.6-3.2,3.8-5.5c0-0.5,0-0.7,0-1.1c-1,1.6-2.3,2.3-4.2,2.3
			c-3.1,0-5.2-2.2-5.2-5.5c0-3.4,2.3-5.7,5.6-5.7c4.9,0,5.9,4.4,5.9,8.3c0,3.9-1.1,9-6,9c-2.8,0-4.9-1.6-5.1-4.4H521.6z
			 M521.3,122.6c0,2.1,1.1,3.8,3.4,3.8c2.1,0,3.5-1.5,3.5-3.7c0-2.4-1.4-3.9-3.5-3.9C522.7,118.8,521.3,120.3,521.3,122.6z"/>
	</g>
</g>
<g id="Layer_2_copy_8">
	<g class="st14">
		<path class="st15" d="M666.2,92.9c-0.2-1.6-1.2-2.3-2.8-2.3c-1.6,0-2.6,0.7-2.6,1.9c0,1.3,1.3,1.6,3.1,1.9c1.9,0.4,4.2,1,4.2,3.4
			c0,2.5-2.3,3.5-4.4,3.5c-2.7,0-4.7-1.3-4.7-4h1.5c0.1,2.1,1.6,2.8,3.4,2.8c1.3,0,2.8-0.5,2.8-2.1c0-1.5-1.4-1.8-3.3-2.2
			c-1.8-0.4-4-0.7-4-3.1c0-2.3,2.1-3.2,4.1-3.2c2.4,0,4.1,1.1,4.2,3.6H666.2z"/>
		<path class="st15" d="M673.3,93.9h-1.6v4.8c0,0.8,0,1.2,0.9,1.2c0.3,0,0.4,0,0.7,0v1.2c-0.4,0-0.6,0.1-1,0.1c-2.1,0-2-1-2-2.8
			v-4.4h-1.4v-1.1h1.4v-2.4h1.4v2.4h1.6V93.9z"/>
		<path class="st15" d="M682.1,101c-0.3,0.1-0.6,0.2-0.9,0.2c-0.8,0-1.2-0.4-1.2-1.2c-0.8,0.9-1.7,1.3-3,1.3c-1.6,0-2.6-0.9-2.6-2.3
			c0-1.5,1-2.3,2.9-2.6c2-0.2,2.6-0.2,2.6-1.3c0-0.9-0.7-1.4-1.9-1.4c-1.3,0-1.9,0.5-2,1.7h-1.3c0-1.8,1.3-2.8,3.5-2.8
			c1.1,0,2,0.3,2.6,0.8c0.6,0.6,0.6,1.4,0.6,2.1c0,1.2-0.1,2.4-0.1,3.7c0,0.6,0.1,0.8,0.6,0.8c0.1,0,0.2,0,0.3,0V101z M678.1,97.2
			c-1,0.1-2.3,0.2-2.3,1.6c0,0.8,0.6,1.4,1.6,1.4c1.3,0,2.5-0.9,2.5-1.9v-1.5C679.4,97.1,678.7,97.1,678.1,97.2z"/>
		<path class="st15" d="M687.7,94c-0.1,0-0.2,0-0.4,0c-2.2,0-2.6,1.7-2.6,3.6v3.5h-1.4v-8.3h1.3v1.8c0.6-1.4,1.6-2,3.1-2V94z"/>
		<path class="st15" d="M692.2,93.9h-1.6v4.8c0,0.8,0,1.2,0.9,1.2c0.3,0,0.4,0,0.7,0v1.2c-0.4,0-0.6,0.1-1,0.1c-2.1,0-2-1-2-2.8
			v-4.4h-1.4v-1.1h1.4v-2.4h1.4v2.4h1.6V93.9z"/>
		<path class="st15" d="M697.2,101.3c-2.4,0-3.9-1.6-3.9-4.3c0-2.7,1.6-4.5,3.8-4.5c2.7,0,3.7,2.2,3.7,4.5v0.2h-6.2l0,0.1
			c0,1.8,1,2.8,2.6,2.8c1.2,0,1.8-0.5,2.2-1.8h1.3C700.4,100.3,699.1,101.3,697.2,101.3z M697.1,93.6c-1.3,0-2.3,1-2.4,2.5h4.8
			C699.3,94.6,698.5,93.6,697.1,93.6z"/>
		<path class="st15" d="M706.6,94c-0.1,0-0.2,0-0.4,0c-2.2,0-2.6,1.7-2.6,3.6v3.5h-1.4v-8.3h1.3v1.8c0.6-1.4,1.6-2,3.1-2V94z"/>
		<path class="st15" d="M713.4,93.9c0.6-1,1.6-1.4,2.8-1.4c2.3,0,3.8,1.7,3.8,4.3s-1.4,4.4-3.7,4.4c-1.2,0-2.1-0.4-2.8-1.4v4.3h-1.4
			V92.7h1.3V93.9z M713.4,96.8c0,2,1,3.2,2.6,3.2c1.6,0,2.5-1.2,2.5-3.2c0-2-1-3.2-2.6-3.2C714.4,93.6,713.4,94.8,713.4,96.8z"/>
		<path class="st15" d="M723,101h-1.4V89.6h1.4V101z"/>
		<path class="st15" d="M732.4,101c-0.3,0.1-0.6,0.2-0.9,0.2c-0.8,0-1.2-0.4-1.2-1.2c-0.8,0.9-1.7,1.3-3,1.3c-1.6,0-2.6-0.9-2.6-2.3
			c0-1.5,1-2.3,2.9-2.6c2-0.2,2.6-0.2,2.6-1.3c0-0.9-0.7-1.4-1.9-1.4c-1.3,0-1.9,0.5-2,1.7H725c0-1.8,1.3-2.8,3.5-2.8
			c1.1,0,2,0.3,2.6,0.8c0.6,0.6,0.6,1.4,0.6,2.1c0,1.2-0.1,2.4-0.1,3.7c0,0.6,0.1,0.8,0.6,0.8c0.1,0,0.2,0,0.3,0V101z M728.4,97.2
			c-1,0.1-2.3,0.2-2.3,1.6c0,0.8,0.6,1.4,1.6,1.4c1.3,0,2.5-0.9,2.5-1.9v-1.5C729.7,97.1,729,97.1,728.4,97.2z"/>
		<path class="st15" d="M735,94c0.7-1,1.6-1.5,2.8-1.5c2,0,2.8,1.1,2.8,3v5.5h-1.4v-4.9c0-1.3-0.1-2.4-1.8-2.4c-1.8,0-2.4,1.3-2.4,3
			v4.3h-1.4v-8.3h1.3V94z"/>
	</g>
</g>
<g id="Layer_2_copy_7">
	<g class="st14">
		<path class="st15" d="M644.6,116.5c6.1,0.1,9.7,3,9.8,9.2h-4v-0.3c0-3.4-1.9-5.3-5.8-5.6v11.9c5.6,1.6,10.6,3.1,10.6,10
			c0,5.9-3.9,9.6-10.6,10v4h-2.3v-4c-6.2-0.3-10.6-3.7-10.6-10.5v-0.5h4.1c0,0.3,0,0.5,0,0.6c0,4.3,2.3,6.6,6.5,7v-13.2
			c-5.8-1.1-9.9-3.5-9.9-9.2c0-6,4.4-8.9,9.9-9.5v-3.3h2.3V116.5z M642.4,119.9c-3.6,0.3-5.9,2.4-5.9,5.7c0,3.6,2.8,5,5.9,5.7V119.9
			z M644.6,148.4c3.8-0.1,6.5-2.8,6.5-6.6c0-3.9-3.2-5.4-6.5-6.1V148.4z"/>
		<path class="st15" d="M680.4,151h-22.2c0.4-7.8,4.2-10.6,10.1-14.3c3.6-2.3,8.1-4.8,8.1-9.7c0-3.8-2.7-6.4-6.6-6.4
			c-5.1,0-6.5,4.3-6.6,8.5h-4.1v-0.9c0-6.7,4.4-11.2,10.9-11.2c6.4,0,10.6,3.9,10.6,9.9c0,6.6-5.2,9.8-10.2,12.8
			c-3.1,1.9-6.7,3.8-7.6,7.6h17.5V151z"/>
		<path class="st15" d="M690.1,142.8c0.4,3.3,2.8,5.3,6.2,5.3c5.9,0,7.2-6.4,7.6-11.1c0.1-1,0.1-1.3,0.1-2.3
			c-1.9,3.1-4.5,4.7-8.3,4.7c-6.2,0-10.4-4.5-10.4-11c0-6.8,4.6-11.4,11.2-11.4c9.8,0,11.7,8.8,11.7,16.6c0,7.7-2.3,18.1-12,18.1
			c-5.7,0-9.7-3.3-10.1-8.9H690.1z M689.7,128.2c0,4.1,2.3,7.5,6.7,7.5c4.2,0,7-3,7-7.4c0-4.7-2.8-7.7-7-7.7
			C692.4,120.6,689.7,123.6,689.7,128.2z"/>
		<path class="st15" d="M716.8,142.8c0.4,3.3,2.8,5.3,6.2,5.3c5.9,0,7.2-6.4,7.6-11.1c0.1-1,0.1-1.3,0.1-2.3
			c-1.9,3.1-4.5,4.7-8.3,4.7c-6.2,0-10.4-4.5-10.4-11c0-6.8,4.6-11.4,11.2-11.4c9.8,0,11.7,8.8,11.7,16.6c0,7.7-2.3,18.1-12,18.1
			c-5.7,0-9.7-3.3-10.1-8.9H716.8z M716.3,128.2c0,4.1,2.3,7.5,6.7,7.5c4.2,0,7-3,7-7.4c0-4.7-2.8-7.7-7-7.7
			C719.1,120.6,716.3,123.6,716.3,128.2z"/>
	</g>
</g>
<g id="Layer_2_copy_6">
	<g class="st14">
		<path class="st15" d="M743,134h-2.7v-2.7h2.7V134z"/>
		<path class="st15" d="M748.2,129.9c0.2,1.7,1.4,2.7,3.1,2.7c2.9,0,3.6-3.2,3.8-5.5c0-0.5,0-0.7,0-1.1c-1,1.6-2.3,2.3-4.2,2.3
			c-3.1,0-5.2-2.2-5.2-5.5c0-3.4,2.3-5.7,5.6-5.7c4.9,0,5.9,4.4,5.9,8.3c0,3.9-1.1,9-6,9c-2.8,0-4.9-1.6-5.1-4.4H748.2z M748,122.6
			c0,2.1,1.1,3.8,3.4,3.8c2.1,0,3.5-1.5,3.5-3.7c0-2.4-1.4-3.9-3.5-3.9C749.3,118.8,748,120.3,748,122.6z"/>
		<path class="st15" d="M761.6,129.9c0.2,1.7,1.4,2.7,3.1,2.7c2.9,0,3.6-3.2,3.8-5.5c0-0.5,0-0.7,0-1.1c-1,1.6-2.3,2.3-4.2,2.3
			c-3.1,0-5.2-2.2-5.2-5.5c0-3.4,2.3-5.7,5.6-5.7c4.9,0,5.9,4.4,5.9,8.3c0,3.9-1.1,9-6,9c-2.8,0-4.9-1.6-5.1-4.4H761.6z
			 M761.3,122.6c0,2.1,1.1,3.8,3.4,3.8c2.1,0,3.5-1.5,3.5-3.7c0-2.4-1.4-3.9-3.5-3.9C762.7,118.8,761.3,120.3,761.3,122.6z"/>
	</g>
</g>
<g id="Layer_11">
	<g class="st14">
		<path class="st16" d="M200.9,285.6c-0.2-1.6-1.2-2.3-2.8-2.3c-1.6,0-2.6,0.7-2.6,1.9c0,1.3,1.3,1.6,3.1,1.9c1.9,0.4,4.2,1,4.2,3.4
			c0,2.5-2.3,3.5-4.4,3.5c-2.7,0-4.7-1.3-4.7-4h1.5c0.1,2.1,1.6,2.8,3.4,2.8c1.3,0,2.8-0.5,2.8-2.1c0-1.5-1.4-1.8-3.3-2.2
			c-1.8-0.4-4-0.7-4-3.1c0-2.3,2.1-3.2,4.1-3.2c2.4,0,4.1,1.1,4.2,3.6H200.9z"/>
		<path class="st16" d="M205.8,283.9h-1.4v-1.7h1.4V283.9z M205.8,293.7h-1.4v-8.3h1.4V293.7z"/>
		<path class="st16" d="M215.1,292.8c0,1.4-0.1,2.1-0.5,2.8c-0.6,1-1.7,1.5-3.3,1.5c-1.7,0-3.2-0.6-3.5-2.4h1.4
			c0.2,0.9,0.8,1.4,2.1,1.4c1.7,0,2.4-0.8,2.4-2.7l0-1c-0.5,1-1.4,1.5-2.6,1.5c-2.2,0-3.6-1.6-3.6-4.2c0-2.2,1.2-4.4,3.7-4.4
			c1.1,0,2.1,0.5,2.6,1.4v-1.2h1.2V292.8z M208.9,289.6c0,1.8,1,3,2.4,3c1.5,0,2.4-1.2,2.4-3.2c0-1.9-0.9-3-2.5-3
			C209.8,286.4,208.9,287.6,208.9,289.6z"/>
		<path class="st16" d="M218.4,286.7c0.7-1,1.6-1.5,2.8-1.5c2,0,2.8,1.1,2.8,3v5.5h-1.4v-4.9c0-1.3-0.1-2.4-1.8-2.4
			c-1.8,0-2.4,1.3-2.4,3v4.3h-1.4v-8.3h1.3V286.7z"/>
		<path class="st16" d="M237.3,293.7h-1.3v-1.3c-0.7,1-1.6,1.5-2.8,1.5c-1.7,0-2.8-1-2.8-2.8v-5.7h1.4v5.3c0,1.2,0.3,2,1.7,2
			c1.8,0,2.4-1.3,2.4-3v-4.3h1.4V293.7z"/>
		<path class="st16" d="M240.6,286.6c0.6-1,1.6-1.4,2.8-1.4c2.3,0,3.8,1.7,3.8,4.3s-1.4,4.4-3.7,4.4c-1.2,0-2.1-0.4-2.8-1.4v4.3
			h-1.4v-11.4h1.3V286.6z M240.7,289.5c0,2,1,3.2,2.6,3.2c1.6,0,2.5-1.2,2.5-3.2c0-2-1-3.2-2.6-3.2
			C241.6,286.3,240.7,287.5,240.7,289.5z"/>
	</g>
</g>
<g id="Layer_11_copy">
	<g class="st14">
		<path class="st16" d="M440.9,285.6c-0.2-1.6-1.2-2.3-2.8-2.3c-1.6,0-2.6,0.7-2.6,1.9c0,1.3,1.3,1.6,3.1,1.9c1.9,0.4,4.2,1,4.2,3.4
			c0,2.5-2.3,3.5-4.4,3.5c-2.7,0-4.7-1.3-4.7-4h1.5c0.1,2.1,1.6,2.8,3.4,2.8c1.3,0,2.8-0.5,2.8-2.1c0-1.5-1.4-1.8-3.3-2.2
			c-1.8-0.4-4-0.7-4-3.1c0-2.3,2.1-3.2,4.1-3.2c2.4,0,4.1,1.1,4.2,3.6H440.9z"/>
		<path class="st16" d="M445.8,283.9h-1.4v-1.7h1.4V283.9z M445.8,293.7h-1.4v-8.3h1.4V293.7z"/>
		<path class="st16" d="M455.1,292.8c0,1.4-0.1,2.1-0.5,2.8c-0.6,1-1.7,1.5-3.3,1.5c-1.7,0-3.2-0.6-3.5-2.4h1.4
			c0.2,0.9,0.8,1.4,2.1,1.4c1.7,0,2.4-0.8,2.4-2.7l0-1c-0.5,1-1.4,1.5-2.6,1.5c-2.2,0-3.6-1.6-3.6-4.2c0-2.2,1.2-4.4,3.7-4.4
			c1.1,0,2.1,0.5,2.6,1.4v-1.2h1.2V292.8z M448.9,289.6c0,1.8,1,3,2.4,3c1.5,0,2.4-1.2,2.4-3.2c0-1.9-0.9-3-2.5-3
			C449.8,286.4,448.9,287.6,448.9,289.6z"/>
		<path class="st16" d="M458.4,286.7c0.7-1,1.6-1.5,2.8-1.5c2,0,2.8,1.1,2.8,3v5.5h-1.4v-4.9c0-1.3-0.1-2.4-1.8-2.4
			c-1.8,0-2.4,1.3-2.4,3v4.3h-1.4v-8.3h1.3V286.7z"/>
		<path class="st16" d="M477.3,293.7h-1.3v-1.3c-0.7,1-1.6,1.5-2.8,1.5c-1.7,0-2.8-1-2.8-2.8v-5.7h1.4v5.3c0,1.2,0.3,2,1.7,2
			c1.8,0,2.4-1.3,2.4-3v-4.3h1.4V293.7z"/>
		<path class="st16" d="M480.6,286.6c0.6-1,1.6-1.4,2.8-1.4c2.3,0,3.8,1.7,3.8,4.3s-1.4,4.4-3.7,4.4c-1.2,0-2.1-0.4-2.8-1.4v4.3
			h-1.4v-11.4h1.3V286.6z M480.7,289.5c0,2,1,3.2,2.6,3.2c1.6,0,2.5-1.2,2.5-3.2c0-2-1-3.2-2.6-3.2
			C481.6,286.3,480.7,287.5,480.7,289.5z"/>
	</g>
</g>
<g id="Layer_11_copy_2">
	<g class="st14">
		<path class="st16" d="M681.9,285.6c-0.2-1.6-1.2-2.3-2.8-2.3c-1.6,0-2.6,0.7-2.6,1.9c0,1.3,1.3,1.6,3.1,1.9c1.9,0.4,4.2,1,4.2,3.4
			c0,2.5-2.3,3.5-4.4,3.5c-2.7,0-4.7-1.3-4.7-4h1.5c0.1,2.1,1.6,2.8,3.4,2.8c1.3,0,2.8-0.5,2.8-2.1c0-1.5-1.4-1.8-3.3-2.2
			c-1.8-0.4-4-0.7-4-3.1c0-2.3,2.1-3.2,4.1-3.2c2.4,0,4.1,1.1,4.2,3.6H681.9z"/>
		<path class="st16" d="M686.8,283.9h-1.4v-1.7h1.4V283.9z M686.8,293.7h-1.4v-8.3h1.4V293.7z"/>
		<path class="st16" d="M696.1,292.8c0,1.4-0.1,2.1-0.5,2.8c-0.6,1-1.7,1.5-3.3,1.5c-1.7,0-3.2-0.6-3.5-2.4h1.4
			c0.2,0.9,0.8,1.4,2.1,1.4c1.7,0,2.4-0.8,2.4-2.7l0-1c-0.5,1-1.4,1.5-2.6,1.5c-2.2,0-3.6-1.6-3.6-4.2c0-2.2,1.2-4.4,3.7-4.4
			c1.1,0,2.1,0.5,2.6,1.4v-1.2h1.2V292.8z M689.9,289.6c0,1.8,1,3,2.4,3c1.5,0,2.4-1.2,2.4-3.2c0-1.9-0.9-3-2.5-3
			C690.8,286.4,689.9,287.6,689.9,289.6z"/>
		<path class="st16" d="M699.4,286.7c0.7-1,1.6-1.5,2.8-1.5c2,0,2.8,1.1,2.8,3v5.5h-1.4v-4.9c0-1.3-0.1-2.4-1.8-2.4
			c-1.8,0-2.4,1.3-2.4,3v4.3h-1.4v-8.3h1.3V286.7z"/>
		<path class="st16" d="M718.3,293.7h-1.3v-1.3c-0.7,1-1.6,1.5-2.8,1.5c-1.7,0-2.8-1-2.8-2.8v-5.7h1.4v5.3c0,1.2,0.3,2,1.7,2
			c1.8,0,2.4-1.3,2.4-3v-4.3h1.4V293.7z"/>
		<path class="st16" d="M721.6,286.6c0.6-1,1.6-1.4,2.8-1.4c2.3,0,3.8,1.7,3.8,4.3s-1.4,4.4-3.7,4.4c-1.2,0-2.1-0.4-2.8-1.4v4.3
			h-1.4v-11.4h1.3V286.6z M721.7,289.5c0,2,1,3.2,2.6,3.2c1.6,0,2.5-1.2,2.5-3.2c0-2-1-3.2-2.6-3.2
			C722.6,286.3,721.7,287.5,721.7,289.5z"/>
	</g>
</g>
</svg>
