<svg xmlns="http://www.w3.org/2000/svg" viewBox="0 0 629.65 592.95"><defs><style>.cls-13{fill:none}.cls-2,.cls-5{fill:#f2f2f2}.cls-10,.cls-11,.cls-13,.cls-14,.cls-2,.cls-6,.cls-7,.cls-9{stroke:#000;stroke-miterlimit:10;stroke-width:.5px}.cls-3{fill:#ccc}.cls-6,.cls-8{fill:#1a1a1a}.cls-7{fill:#fff}.cls-9{fill:#0077bf}.cls-10{fill:#ffe600}.cls-11{fill:#eb058c}.cls-14{fill:#c10072}</style><clipPath id="clip-path" transform="translate(0 -.01)"><path fill="none" d="M98.65 0h497.74v605.52H98.65z"/></clipPath><clipPath id="clip-path-2" transform="translate(0 -.01)"><circle class="cls-2" cx="419.31" cy="238.75" r="34.73" transform="rotate(-33.15 419.342 238.76)"/></clipPath></defs><g id="Layer_12" data-name="Layer 12"><ellipse class="cls-3" cx="561.02" cy="570.43" rx="68.02" ry="12.33"/><ellipse class="cls-3" cx="78.15" cy="569.92" rx="78.15" ry="11.66"/></g><g clip-path="url(#clip-path)" id="Layer_15" data-name="Layer 15"><path class="cls-5" d="M338.85 514.39l-23.24-34.24a13.49 13.49 0 1 1 22.3-15.2l37.48 55.18a13.56 13.56 0 0 1-.59 17.09l-44.23 51.15a13.65 13.65 0 0 1-19 1.36 13.81 13.81 0 0 1-1.29-19.23l25.36-29.22a239.88 239.88 0 0 1-25.19-2.12 225 225 0 0 1-39.8-8.87A244.43 244.43 0 0 1 109.7 224.47 243.37 243.37 0 0 1 276.34 61.85a13.55 13.55 0 0 1 16.74 9.22 13.35 13.35 0 0 1-9.4 16.73 220.36 220.36 0 0 0-92.49 53.63 213.43 213.43 0 0 0-55.53 90.95 217.21 217.21 0 0 0 142.81 272.2 245.88 245.88 0 0 0 35.53 7.86 237.24 237.24 0 0 0 24.83 2zm70.38 16.68a13.52 13.52 0 0 1-16.74-9.4 13.7 13.7 0 0 1 9.4-16.74 217.27 217.27 0 0 0 5.21-416.54 212.33 212.33 0 0 0-35.54-7.86 207.78 207.78 0 0 0-24.6-2L370 112.82a13.3 13.3 0 0 1-3.5 18.62 13.5 13.5 0 0 1-18.8-3.48L310.23 72.6a13.28 13.28 0 0 1 .59-16.91L355 4.6a13.64 13.64 0 0 1 19-1.36 13.48 13.48 0 0 1 1.36 19L350 51.5a252.56 252.56 0 0 1 25.19 2.13A264.42 264.42 0 0 1 415 62.44a244.62 244.62 0 0 1 98.44 408.3 246.73 246.73 0 0 1-104.18 60.33zm0 0" transform="translate(0 -.01)"/></g><g id="Layer_17" data-name="Layer 17"><path class="cls-6" d="M348.74 518.93a2.93 2.93 0 0 1-2.93 2.93 2.94 2.94 0 0 1-2.93-2.93v-271a2.94 2.94 0 0 1 2.92-2.93 2.94 2.94 0 0 1 2.93 2.94z" transform="translate(0 -.01)"/><path class="cls-6" d="M242.81 547.42A2.94 2.94 0 0 1 239 549a2.93 2.93 0 0 1-1.62-3.82L339.23 294.1a2.93 2.93 0 0 1 3.82-1.62 2.93 2.93 0 0 1 1.61 3.83z" transform="translate(0 -.01)"/><path class="cls-6" d="M441 547.42a2.93 2.93 0 0 0 3.8 1.58 2.93 2.93 0 0 0 1.62-3.82L344.55 294.1a2.94 2.94 0 0 0-3.82-1.62 2.94 2.94 0 0 0-1.62 3.83z" transform="translate(0 -.01)"/><path class="cls-7" d="M203.88 184.45h281.28V401.5H203.88z"/><path class="cls-8" d="M196.31 175.28h296.43v9.38H196.31zm0 222.54h296.43v9.38H196.31z"/><path class="cls-9" d="M388.85 376.41v-71.22h-2v73.47h73.52v-2.25h-71.52z"/><path class="cls-10" d="M396.65 355.05h12.06v14.69h-12.06zm16.06-11.57h12.05v26.26h-12.05zm15.91 4.14h12.05v22.12h-12.05zm15.92-18.74h12.05v40.85h-12.05z"/><path class="cls-9" d="M458.4 306.48l-10.46 1.05 2.68 2.94-20.67 17.75-10.85-5.14-22.49 18.65v6.7l23.43-19.44 10.96 5.2 22.87-20.16 2.84 3.12 1.69-10.67z"/><path class="cls-11" d="M232.65 208.57h10.44v64.57h-10.44zm15 19.57h10.43v45h-10.43zm15-5.87h10.44v50.87h-10.44zm15-18.26h10.44v69.13h-10.44zm15 19.79h10.44v49.34h-10.44zm15 14.95h10.44v34.39h-10.44zm15-4.48h10.43v38.88h-10.43zm15-13.96h10.44v52.83h-10.44z"/><path class="cls-10" d="M266.81 330.2l-20.06-17c-2.11 2.39-11.85 13.39-12.57 13.92l-.53-.67c.56-.43 7.92-8.68 12.73-14.13l.29-.32 20.06 17 11.4-12.65 6.73 5.7 17.95-17.21 23.74 17.42L346.61 300l.65.55-20.64 22.89-23.74-16.41-17.95 16.2-6.73-5.7z" transform="translate(0 -.01)"/><ellipse class="cls-10" cx="233.97" cy="326.74" rx="1.74" ry="1.69" transform="rotate(-3.84 233.497 326.326)"/><ellipse class="cls-10" cx="246.54" cy="312.82" rx="1.74" ry="1.69" transform="rotate(-3.84 246.202 312.567)"/><ellipse class="cls-10" cx="266.26" cy="329.27" rx="1.74" ry="1.69" transform="rotate(-3.84 265.813 328.903)"/><ellipse class="cls-10" cx="277.67" cy="316.62" rx="1.74" ry="1.69" transform="rotate(-3.83 277.598 316.784)"/><ellipse class="cls-10" cx="284.83" cy="321.64" rx="1.74" ry="1.69" transform="rotate(-3.84 284.433 321.314)"/><ellipse class="cls-10" cx="302.67" cy="305.54" rx="1.74" ry="1.69" transform="rotate(-3.83 302.672 305.645)"/><ellipse class="cls-10" cx="346.53" cy="300.16" rx="1.74" ry="1.69" transform="rotate(-3.84 346.072 299.937)"/><ellipse class="cls-10" cx="326.27" cy="322.25" rx="1.74" ry="1.69" transform="rotate(-3.84 325.773 321.953)"/><path class="cls-9" d="M233.17 360.67l16.68-4.63 9.93-4.57 16.88 8.95 9.61-14.48 15.4 1.63 10-13.6 16.25 3.65 20.24-10.2v48.09H233.49l-.32-14.84z"/></g><g id="Layer_18" data-name="Layer 18"><circle class="cls-5" cx="419.31" cy="238.75" r="34.73" transform="rotate(-33.15 419.325 238.754)"/><g clip-path="url(#clip-path-2)"><circle class="cls-11" cx="419.31" cy="238.75" r="34.73" transform="rotate(-33.15 419.325 238.754)"/><path class="cls-2" d="M419.51 238.25l-10.98 52.31 37.01-5.73-26.03-46.58zm-.2.49l-25.93-39.7 29.1-7.5-3.17 47.2z"/><path class="cls-2" d="M419.31 238.74l53-12.97-49.83-34.23-3.17 47.2z"/><path class="cls-2" d="M445.54 284.83l-26.03-46.58 48.9 14.8-22.87 31.78z"/><path class="cls-2" d="M467.66 253.37l4.65-27.6-53 12.97 48.35 14.63z"/><path class="cls-7" d="M419.31 238.74l-10.78 51.82 37.01-5.73-26.23-46.09z"/><path class="cls-9" d="M422.48 191.54l-29.1 7.5 25.93 39.7 53-12.97-49.83-34.23z"/><path class="cls-10" d="M472.31 225.77l-53 12.97 26.23 46.09 22.87-31.78-.66-.19 4.56-27.09z"/></g><circle class="cls-13" cx="419.31" cy="238.75" r="34.73" transform="rotate(-33.15 419.325 238.754)"/></g><g id="Layer_16" data-name="Layer 16"><path class="cls-9" d="M427.81 235.06l56.24 57.87 1.16-1.18-57.4-56.69z" id="Layer_19" data-name="Layer 19"/><path class="cls-6" d="M619 328.69s-4.66 4.73-12.39-6.74a80.82 80.82 0 0 1-9.1-18.56s-4.27-11.64-14.26-18c0 0-7.34-6.08-19.2-3.74 0 0-10.86 1.83-14.5 11.89 0 0-5.9 12.05 3.1 26a26.45 26.45 0 0 1 3.81 9.06l24 12.62 29.13-1.93 2.5-2.42s5.04-.66 6.91-8.18z" transform="translate(0 -.01)"/><path class="cls-6" d="M609.68 339.25s-13.08 9.59-24.42 7.25l-30.49-12.84 1.73-5.1" transform="translate(0 -.01)"/><path class="cls-7" d="M573.22 327.28a1 1 0 0 1 .12.55 1 1 0 0 1-.29.47 34 34 0 0 1-5.16 4.56c-1.11.79-2.47 1.55-3.76 1.11a4.63 4.63 0 0 1-1.93-1.62l-2.34-2.86c1.08-.74 1.1-2.3 1-3.6a51.62 51.62 0 0 0-.79-5.12 20.41 20.41 0 0 1 9.55-4c1.19-.17 1.8 0 1.85 1.25s0 2.15.16 3.23a22.33 22.33 0 0 0 1.59 6.03z" transform="translate(0 -.01)"/><path class="cls-7" d="M566.71 320.91c-3.49 1.33-7.6 2.16-10.81.24-2.36-1.41-3.73-4.06-4.48-6.7a45.25 45.25 0 0 1-1.3-8.73 19.41 19.41 0 0 1 .08-5.59c.55-2.62 2.14-4.87 3.71-7 2.57-3.57 5.44-7.33 9.62-8.71a20.67 20.67 0 0 1 7.42-.58 18.36 18.36 0 0 1 5.46.82 12.79 12.79 0 0 1 3.94 2.43 18 18 0 0 1 6.16 11.15c1.49 11.49-10.51 19.12-19.8 22.67z" transform="translate(0 -.01)"/><path class="cls-8" d="M578.27 316.83s-7.89-16.73-1.3-25.27c0 0-5.09 2-9.07.74 0 0-10.14-2.76-14.49 5.13 0 0-2 4.89-4.31 6.78v-4.06l3.48-8 9.48-8.23 8.89-2.15 8.94 3.61 5.8 5.74 2.67 13.3-5.59 9.21z" transform="translate(0 -.01)"/><path class="cls-7" d="M572.64 304.77a1.45 1.45 0 0 1-1.16-.67 8.74 8.74 0 0 1-.64-1.24 5.57 5.57 0 0 0-.54-.86 3.1 3.1 0 0 0-.71-.71 2.88 2.88 0 0 0-2.52-.21 8.09 8.09 0 0 0-2.24 1.34m-3.97-3.24l-.45-1a3.71 3.71 0 0 0-1.6-2 5 5 0 0 0-2.13-.16 2.1 2.1 0 0 1-1.91-.76m12.05 2.81a6 6 0 0 1 6.91 2.62m-10.81-4.92a5.54 5.54 0 0 0-4.31-3.22m1.08 15.8a19.63 19.63 0 0 1-1.5-1.76 1.31 1.31 0 0 1-.26-.48c-.1-.44.25-.85.58-1.17l1.72-1.7m-1.15 12.43a6.83 6.83 0 0 0-1.6 0 3.47 3.47 0 0 1-.56.11c-.72 0-1.24-.75-1.3-1.47a19.75 19.75 0 0 1 .21-2.16c0-.61-.11-1.23 0-1.83a.78.78 0 0 1 .19-.46c.24-.23.63-.15.94 0a16.39 16.39 0 0 1 5.48 4.11.47.47 0 0 1 .14.21c.11.44-.94 1-1.28 1.18a5.33 5.33 0 0 1-2.22.31z" transform="translate(0 -.01)"/><path class="cls-14" d="M555.34 315.71a2.73 2.73 0 0 0 1.91.94 6.24 6.24 0 0 0 2.16-.27c.54-.15 1.08-.32 1.61-.5a4.55 4.55 0 0 0 1.18-.54 1.64 1.64 0 0 0 .71-1 9.83 9.83 0 0 1-2.65.72 6.15 6.15 0 0 1-3.58-.51c-.39-.2-.86-.72-1.32-.45s-.36 1.2-.02 1.61z" transform="translate(0 -.01)"/><path class="cls-14" d="M555.89 308.91a6.36 6.36 0 0 1 4.14 1.67 18.91 18.91 0 0 1 2.94 3.47c.05.08.11.18.06.25s-.16.06-.25 0c-1.39-.36-2.45-1.46-3.61-2.3a9.57 9.57 0 0 0-3.12-1.49c-.95-.21-1.62-1.57-.16-1.6z" transform="translate(0 -.01)"/><ellipse class="cls-6" cx="568.13" cy="302.29" rx="1.34" ry="1.06" transform="rotate(-48.68 568.086 302.289)"/><ellipse class="cls-6" cx="558.09" cy="297.34" rx="1.34" ry="1.06" transform="rotate(-48.68 558.039 297.331)"/><path class="cls-7" d="M571.95 559.48l14.75-106.19s-12.54-4.42-18.44 1.84L566.42 558v6.27l4.79 2.95m-20.11-7.56l-8.22-106.89s12.78-3.65 18.29 3l-4.46 102.79-.38 6.26-5 2.65" transform="translate(0 -.01)"/><path class="cls-8" d="M557.51 559v12.3h-1.81l-1.29-5.16-3.23 5.16h-18.09a23.54 23.54 0 0 0 16.14-12.3zm7.92 0v12.3h1.81l1.3-5.16 3.23 5.16h18.08A23.54 23.54 0 0 1 573.7 559zm-31.89-135.77a32.53 32.53 0 0 1 10.59-22.56h38.68a32.53 32.53 0 0 1 10.59 22.56l-10 61.77h-39.95z" transform="translate(0 -.01)"/><path class="cls-11" d="M582.62 400.68c-6.4-8.3 5.77-51.23 5.77-51.23l30.21 53 5.28-3c-18.3-57.8-26-67.09-26-67.09-3.81-3.81-24.55-4.6-24.55-4.6a14.09 14.09 0 0 1-13.48 1.66c-3.07-2.42-20.74-1.42-20.74-1.42l-26.92-4.64-23.13-29.2-5.39 2.84 22.82 39 30.4 9.7s11.8 31.17 7.23 54.94c.01.04 21.14 11.23 38.5.04zm-39.17-46.35s4.8 10 16.22 4.54m25-4.54s-4.8 10-16.22 4.54" transform="translate(0 -.01)"/><path class="cls-7" d="M483.67 297l5.39-2.75c4.68-7.27-2-4.15-2-4.15s-3.52-3.69-6.93-3.87c.04-.05-5.89.09 3.54 10.77zm134.92 105.49c-4.39 7.44 2.12 4.07 2.12 4.07s6.15 7.15 8.11 6c2.68-1.54-5-13.07-5-13.07z" transform="translate(0 -.01)"/><g id="Layer_28" data-name="Layer 28"><path class="cls-9" d="M179.7 277.31l15.69 12.41a2 2 0 0 1 .33 2.81l-1.49 1.88a2 2 0 0 1-2.81.33l-15.69-12.41a2 2 0 0 1-.33-2.81l1.49-1.88a2 2 0 0 1 2.81-.33zm0 0" transform="translate(0 -.01)"/><path class="cls-9" d="M183.62 305.91L167.3 293a2 2 0 0 1-.33-2.81l8.93-11.3L193.79 293a2 2 0 0 1 .33 2.81l-7.69 9.73a2 2 0 0 1-2.81.33zm-6.46-26l-1.26-1 1-1.26a1.61 1.61 0 0 0 .26 2.25zm0 0" transform="translate(0 -.01)"/><path class="cls-10" d="M188.29 303.22l-2.51-2a2.8 2.8 0 0 1 3.47-4.39l2.51 2a.8.8 0 0 1 .13 1.12l-2.48 3.14a.8.8 0 0 1-1.12.13zm0 0" transform="translate(0 -.01)"/><path class="cls-11" d="M188.51 297.79a1.6 1.6 0 1 1-2.25.26 1.6 1.6 0 0 1 2.25-.26zm0 0" transform="translate(0 -.01)"/><path class="cls-9" d="M193.79 293l-16.63-13.15a1.61 1.61 0 0 1-.26-2.25l-.5.63a1.61 1.61 0 0 0 .26 2.25l16.63 13.15a2 2 0 0 1 .33 2.81l.5-.63a2 2 0 0 0-.33-2.81zm-9.68 12.28l-16.32-12.9a2 2 0 0 1-.33-2.81l-.5.63a2 2 0 0 0 .33 2.81l16.32 12.9a2 2 0 0 0 2.81-.33l.5-.63a2 2 0 0 1-2.81.33zm0 0" transform="translate(0 -.01)"/></g><path class="cls-8" d="M104.89 564.09h9l-1.48-154.46-58.15 6.57-14.63 147.89h9L81.89 432.6s1.86-3.23 4.2 0l18.8 131.49h9" transform="translate(0 -.01)"/><path class="cls-7" d="M175.72 304.69l-23 27.43c-4.83 6.12-38.32 9-38.32 9s-6.35 49.32-2.07 68.54c0 0-24 16.61-58.11 6.57l-2.09-51.38-11.65 11.1-11.7 43.18-6-.46L26 370.19l26.48-36.45s4.42-3.53 25.52-3.22c0 0 8.22 6.86 14.24 0a110.59 110.59 0 0 1 45.46-4.46s2.66.23 7.38-3.88L170.53 300l5.18 4.64" transform="translate(0 -.01)"/><path class="cls-7" d="M28.78 419.13c7.12 4.91-.21 4.59-.21 4.59s-2.58 9.08-4.82 8.89c-3.08-.27-1-13.94-1-13.94zm142.3-118.72c-2.94-8.07 2-3 2-3s5.54-4.52 7-2.91c2 2.22-5 10.22-5 10.22z" transform="translate(0 -.01)"/><path class="cls-8" d="M48.59 564.08v7.73h-4.18v-1.9l-2.62 1.9H22.3l17.33-7.73h8.96zm56.3 0v7.73h4.18v-1.9l2.62 1.9h19.49l-17.33-7.73h-8.96z"/><path class="cls-7" d="M90.78 325l7.69 7.72-11.67 1.37s-6-6.66-.72-8.46z" transform="translate(0 -.01)"/><path class="cls-7" d="M83.73 334.32l-11.99.66 4.15-7.99 6.96-.93.88 8.26z"/><path class="cls-9" d="M86.82 333.09l6.37 51-8.65 10.6-7.16-11.55 7.1-49.84s1.01-2.52 2.34-.21z" transform="translate(0 -.01)"/><path class="cls-7" d="M76.83 327.83a1 1 0 0 0-.12.55 1 1 0 0 0 .29.47 34 34 0 0 0 5.16 4.56c1.11.79 2.47 1.55 3.76 1.11a4.63 4.63 0 0 0 1.93-1.62l2.34-2.9c-1.08-.74-1.1-2.3-1-3.6a51.62 51.62 0 0 1 .79-5.12 20.41 20.41 0 0 0-9.55-4c-1.19-.17-1.8 0-1.85 1.25s0 2.15-.16 3.23a22.33 22.33 0 0 1-1.59 6.07z" transform="translate(0 -.01)"/><path class="cls-7" d="M83.34 321.46c3.49 1.33 7.6 2.16 10.81.24 2.36-1.41 3.73-4.06 4.48-6.7a45.25 45.25 0 0 0 1.3-8.73 19.41 19.41 0 0 0-.08-5.59c-.55-2.62-2.14-4.87-3.71-7-2.57-3.57-5.44-7.33-9.62-8.71a20.67 20.67 0 0 0-7.42-.58 18.36 18.36 0 0 0-5.46.82 12.79 12.79 0 0 0-3.94 2.43 18 18 0 0 0-6.16 11.15c-1.47 11.49 10.46 19.12 19.8 22.67z" transform="translate(0 -.01)"/><path d="M78.71 298.08a4.63 4.63 0 0 0-2.94 4.92M93 292.83a4.63 4.63 0 0 0-5.66 1" transform="translate(0 -.01)" fill="#fff" stroke="#000" stroke-miterlimit="10"/><path class="cls-7" d="M90.34 307.25a19.63 19.63 0 0 0 1.5-1.76 1.31 1.31 0 0 0 .26-.48c.1-.44-.25-.85-.58-1.17l-1.72-1.7" transform="translate(0 -.01)"/><ellipse class="cls-6" cx="81.92" cy="302.84" rx="1.06" ry="1.34" transform="rotate(-41.32 81.92 302.857)"/><ellipse class="cls-6" cx="91.97" cy="297.89" rx="1.06" ry="1.34" transform="rotate(-41.32 91.966 297.906)"/><path class="cls-8" d="M71.74 308.17s-3.35 1.14 2.69 5.13c0 0 .17 4.06 3 5.44 0 0-6.2.06-15.45-9.84 0 0-5.5-9.9 0-17.9 0 0 6.91-10.62 19.83-9.25 0 0 13.82 1.77 15.91 14.1 0 0-5.91-8.2-12.24-9.85 0 0-7.88 7.21-12.63 7.1-.05 0-3.55 3.23-1.11 15.07z" transform="translate(0 -.01)"/><path class="cls-13" d="M95.36 309.55s-1.75 4.21-7.45 3.23c0 0 5.29 4.84 7.45-3.23zm-10.02 1.61a1.9 1.9 0 0 0 .26 1.84m6.24-16.93a3.91 3.91 0 0 0-1.92 3.16M81.4 301a4.85 4.85 0 0 0-1.2 3.11" transform="translate(0 -.01)"/></g><g id="Layer_25" data-name="Layer 25"><circle class="cls-10" cx="479.91" cy="155.86" r="30.87" transform="rotate(-76.27 479.892 155.865)"/><path class="cls-7" d="M488.72 119.82a37.11 37.11 0 1 1-44.85 27.24 37.11 37.11 0 0 1 44.85-27.24zm-16.14 66a30.87 30.87 0 1 0-22.66-37.32 30.87 30.87 0 0 0 22.66 37.36z" transform="translate(0 -.01)"/><text transform="translate(472.07 166.77)" font-family="MyriadPro-Regular,Myriad Pro" font-size="36.79" fill="#1a1a1a">$</text></g><g id="Layer_26" data-name="Layer 26"><circle class="cls-10" cx="352.45" cy="104.58" r="24.73" transform="rotate(-62.03 352.46 104.578)"/><path class="cls-7" d="M366.39 78.33a29.72 29.72 0 1 1-40.19 12.31 29.72 29.72 0 0 1 40.19-12.31zm-25.54 48.09A24.73 24.73 0 1 0 330.61 93a24.73 24.73 0 0 0 10.24 33.43z" transform="translate(0 -.01)"/><text transform="rotate(14 -276.763 1409.972)" font-size="29.47" font-family="MyriadPro-Regular,Myriad Pro" fill="#1a1a1a">$</text></g><g id="Layer_27_copy" data-name="Layer 27 copy"><circle class="cls-10" cx="252.67" cy="166.29" r="19.86" transform="rotate(-2.57 252.293 166.23)"/><path class="cls-7" d="M251.6 142.45a23.87 23.87 0 1 1-22.77 24.91 23.87 23.87 0 0 1 22.77-24.91zm2 43.68a19.86 19.86 0 1 0-20.73-18.95 19.86 19.86 0 0 0 20.69 18.95z" transform="translate(0 -.01)"/><text transform="rotate(-16.3 733.95 -785.056)" font-size="23.67" font-family="MyriadPro-Regular,Myriad Pro" fill="#1a1a1a">$</text><circle class="cls-10" cx="190.96" cy="279.51" r="6.35" transform="rotate(-2.57 190.659 279.255)"/><path class="cls-7" d="M190.62 271.88a7.64 7.64 0 1 1-7.29 8 7.64 7.64 0 0 1 7.29-8zm.63 14a6.35 6.35 0 1 0-6.63-6.06 6.35 6.35 0 0 0 6.63 6.04z" transform="translate(0 -.01)"/><text transform="rotate(-16.3 1080.017 -522.574)" font-size="7.57" font-family="MyriadPro-Regular,Myriad Pro" fill="#1a1a1a">$</text><circle class="cls-10" cx="199.53" cy="233.66" r="8.62" transform="rotate(-2.57 199.267 233.507)"/><path class="cls-7" d="M199.07 223.3a10.37 10.37 0 1 1-9.89 10.82 10.37 10.37 0 0 1 9.89-10.82zm.85 19a8.62 8.62 0 1 0-9-8.23 8.62 8.62 0 0 0 9 8.2z" transform="translate(0 -.01)"/><text transform="rotate(-16.3 927.27 -573.807)" font-size="10.28" font-family="MyriadPro-Regular,Myriad Pro" fill="#1a1a1a">$</text></g></svg>