<svg version="1.1" id="Layer_1" xmlns="http://www.w3.org/2000/svg" x="0" y="0" viewBox="0 0 880.9 820.6" xml:space="preserve"><style>.st3{fill:#fff;stroke:#000;stroke-width:.5;stroke-miterlimit:10}.st4{fill:#1a1a1a}.st10,.st15,.st16,.st23{stroke:#000;stroke-width:.5;stroke-miterlimit:10}.st5{fill:#f2f2f2}.st5,.st6,.st7,.st8,.st9{stroke:#000;stroke-width:.5;stroke-miterlimit:10}.st6{fill:#1a1a1a}.st7{fill:#eb058c}.st8{fill:#ccc}.st9{fill:#0077bf}.st10{fill:none}.st15{fill:#757575}.st16{fill:#d3d3d3}.st23{fill:#5e5e5e}.st38{stroke:#000;stroke-width:.5;stroke-miterlimit:10;fill:#bfbfbf}</style><path d="M214.5 72.4C129.1 145.7-1.4 319.8 107.2 529c160.6 309.4 566.7 248 692.4 155.1 96.5-71.4 63.1-255.1-81.9-272.1-145.5-17-104.2-146.6-174.1-289.4C487.6 8.2 368-59.6 214.5 72.4z" fill="#f5f5f5"/><linearGradient id="SVGID_1_" gradientUnits="userSpaceOnUse" x1="393.9" y1="496.111" x2="600.1" y2="496.111" gradientTransform="translate(0 -80)"><stop offset=".001" stop-color="#fff" stop-opacity=".5"/><stop offset="1" stop-color="#ccc"/></linearGradient><path fill="url(#SVGID_1_)" d="M559.9 468h40.2l-10.3-16.9-190.9-86.8-5 4z"/><g id="Layer_8"><path class="st3" d="M586.1 308.1c0 .1.1.2 0 .4 0 .1-.1.2-.2.3-1.2 1-2.4 1.8-3.8 2.5-.8.4-1.8.8-2.6.4-.5-.3-.9-.7-1.1-1.2l-1.3-2.1c.8-.4.9-1.4 1-2.3 0-1.1 0-2.3-.1-3.4 2-1.1 4.3-1.7 6.6-1.7.8 0 1.2.2 1.1 1s-.2 1.4-.2 2.1c.1 1.3.2 2.7.6 4z"/><path class="st4" d="M576.4 459.7v8.1h-1.2l-.9-3.4-2.1 3.4h-11.9c4.6-1 8.5-3.9 10.7-8.1h5.4zm7.9 0v8.1h1.2l.9-3.4 2.1 3.4h11.9c-4.6-1-8.5-3.9-10.7-8.1h-5.4z"/><path class="st5" d="M583.9 459.7h5s10.2-71.8 9.4-88.5c-.5-10.5-6.4-16-6.4-16h-23.2s-5.8 5.5-6.4 16c-.8 16.7 9.4 88.5 9.4 88.5h5s1.6-86.7 3.6-85.8c0 0 4.7 33.7 3.6 85.8z"/><path class="st6" d="M565.4 306.7c1.4-.3 2.8-.3 4.3-.9.2-.1 1.2-.7 2.2-1.3l1.6-1.3.5-1.5.1.1c.8-2.2 1-4.5.7-6.8v-.3c-.6-.8-1-1.8-1.2-2.8-.1-.3-.2-.7-.5-.7-1-.1-1.5-1.9-1.7-3 1.7-1.3 3.9-2.1 5.7-3.1 1.6-.9 4.7-3.1 4.8-3 1-.5 2-.9 2.9-1.5.7-.5 3.6-1.8 3.5-2.9.1 1.2.7 2.2 1 3.3.4 1.2.9 2.4 1.1 3.7.5 2.4.5 5.1-.3 7.5-.6 1.9-1.8 3.4-3.2 4.7-.2 1.5-.1 3.1.1 4.6v.1l.5 1.5 1.9 1.5c.2.1.3.3.4.5 2.3.9 5.4 1.6 5.8 1.7 2 .6 3.6 1.2 4.9 2.2-.6-3-1.4-5.9-2.2-8.8-.7-2.7-1.7-5.4-2.5-8.1-.8-2.5-.3-4.7-.6-7.3-.8-7.6-4.6-13.3-12.3-14.5-7.2-1.1-13.2 4.8-14.1 11.7-.1.8-.2 1.7-.2 2.5 0 2.3.1 4.6-.3 7-.6 3.4-1.4 6.7-2.6 10-.6 1.6-1.8 3.9-3 6.3l.6-.3c.6-.4 1.4-.7 2.1-.8z"/><path class="st7" d="M553.4 357.2l10.8-32.5s-.8-2.1 3.7 17.2c1.3 5.4-2.3 14.7-3.2 19.7 0 0 19.6 6.6 31-.8-1.7-2.2-4.3-10.1-4.1-17.9.2-6 2.8-11.8 3.7-15.5l.9-3.5 10.7 33.4 4.8-.7c-5.5-35.4-11.2-47.5-11.2-47.5-3.3-1.9-12.9-5.8-12.9-5.8-2.6 1.9-5.6 1.3-8.5.2-2-1.6-16.4 2.6-18.3 4.9-5.8 17-11.2 48.3-11.2 48.3l3.8.5zm13.8-30.5s3.2 6.6 10.7 3m16.5-3s-3.2 6.6-10.7 3"/><path class="st3" d="M607.3 357.2c-4.4 3.6.4 3 .4 3s2.2 5.8 3.7 5.6c2-.3-.1-9.2-.1-9.2l-4 .6zm-57.8-.7s-2.1 8.9-.1 9.2c1.5.3 3.7-5.6 3.7-5.6s4.8.6.4-3l-4-.6z"/><g id="Layer_7_1_"><path class="st3" d="M580.5 307.7c1 0 3.8-1.8 5.3-3.8l1.2-2.1v-.1c-.3-1.5-.3-3.1-.1-4.6-.2.2-.5.4-.7.6l-.4.3c-1.3 1.2-2.7 1.8-4 1.7-1.3 0-2.6-.5-4-1.7l-.4-.3c-1-.9-1.9-1.8-2.7-2.9v.3c.3 2.3 0 4.6-.7 6.8l1.1 2c1.4 1.9 4.4 3.8 5.4 3.8z"/><path class="st3" d="M577.5 297.7l.4.3c1.3 1.2 2.7 1.8 4 1.7 1.3 0 2.6-.5 4-1.7l.4-.3c.2-.2.5-.4.7-.6 1.4-1.3 2.6-2.8 3.2-4.7.8-2.3.8-5.1.3-7.5-.2-1.3-.8-2.5-1.1-3.7-.3-1.1-.9-2.1-1-3.3.1 1-2.8 2.4-3.5 2.9-.9.6-1.9 1-2.9 1.5-.1 0-3.2 2.2-4.8 3-1.8 1-4.1 1.7-5.7 3.1.2 1.1.7 2.9 1.7 3 .3 0 .5.4.5.7.2 1 .6 1.9 1.2 2.8.7.9 1.6 1.9 2.6 2.8z"/><path class="st8" d="M583.1 311.5l-.8-1-.6 1.2c-.1.3-.2.6-.1.8l1.1 5.1.7-2.3.7-2.2-.4-.8c-.1-.3-.4-.5-.6-.8zm-5.8.9l-.4.8.7 2.2.7 2.3 1.1-5.1c.1-.3 0-.6-.1-.8l-.6-1.2-.8 1c-.2.2-.4.4-.6.8z"/><path class="st9" d="M582.7 317.7l-1.1-5.1c-.1-.3 0-.6.1-.8l.6-1.2-1.8-2.3-1.8 2.3.6 1.2c.1.3.2.6.1.8l-1.1 5.1 1.4 4.6h1.6l1.4-4.6z"/><path class="st3" d="M587 301.7l-1.2 2.1c-1.5 2-4.3 3.8-5.3 3.8s-4-1.9-5.3-3.8l-1.1-2-.1-.1-.5 1.5 3.3 9.9.4-.8.6-.9.8-1 1.8-2.3 1.8 2.3.8 1 .6.9.4.8 3.3-9.9-.3-1.5zm3.7 14l-2.5-4.5 3.4.4c-.3-.9-.9-5-1.7-6.4-.1-.2-.2-.4-.4-.5l-1.9-1.5-3.3 9.9-.7 2.2-.7 2.3-4.1 17 11.9-18.9z"/><path class="st3" d="M580.8 325.5l-2.5-7.8-.7-2.3-.7-2.2-3.3-9.9-1.6 1.3-.3.2c-1 .5-1.8 5.8-2.1 6.9l3.4-.4-2.5 4.5c-.1.2 7.2 11.1 9.3 14.3l1-4.6z"/><path class="st10" d="M585.3 286.5c1-.4 2.1-.4 3.1 0m-11.4 0c1-.4 2.1-.4 3.1 0"/><circle class="st6" cx="586.7" cy="288.3" r=".8"/><circle class="st6" cx="578.9" cy="288.3" r=".8"/><path class="st10" d="M579.7 294.5s2.6 2.5 5.3.2m-1.6-7.1c-.2.8-.2 1.6-.1 2.3.1.6.3 1.2.4 1.7.1.3.1.6 0 .9s-.4.4-.7.3"/></g></g><linearGradient id="SVGID_2_" gradientUnits="userSpaceOnUse" x1="230.9" y1="443.711" x2="422.8" y2="443.711" gradientTransform="translate(0 -80)"><stop offset=".001" stop-color="#fff" stop-opacity=".5"/><stop offset="1" stop-color="#ccc"/></linearGradient><path fill="url(#SVGID_2_)" d="M385.5 412h37.3l-9.6-15.8-177.6-80.7-4.7 3.7z"/><g id="Layer_8_1_"><path class="st3" d="M409.5 263.1c0 .1.1.2 0 .3 0 .1-.1.2-.2.3-1.1.9-2.3 1.7-3.5 2.3-.7.4-1.6.7-2.4.4-.4-.3-.8-.7-1-1.2l-1.2-2c.7-.4.9-1.3.9-2.1v-3.2c1.9-1.1 4-1.6 6.2-1.6.7 0 1.1.2 1 .9-.1.8-.2 1.3-.2 2-.1 1.4.1 2.7.4 3.9z"/><path class="st4" d="M400.5 404.4v7.6h-1.1l-.8-3.2-2 3.2h-11.1c4.3-.9 7.9-3.7 9.9-7.6h5.1zm7.3 0v7.6h1.1l.8-3.2 2 3.2h11.1c-4.3-.9-7.9-3.7-9.9-7.6h-5.1z"/><path class="st5" d="M407.5 404.4h4.6s9.5-66.9 8.8-82.4c-.5-9.8-5.9-14.9-5.9-14.9h-21.6s-5.4 5.1-5.9 14.9c-.8 15.5 8.8 82.4 8.8 82.4h4.6s1.5-80.8 3.4-80c-.1 0 4.2 31.4 3.2 80z"/><path class="st6" d="M390.2 261.8c1.3-.3 2.6-.3 4-.9.2-.1 1.1-.6 2-1.2l1.5-1.2.5-1.4.1.1c.7-2 1-4.2.7-6.3v-.3c-.5-.8-.9-1.6-1.1-2.6-.1-.3-.2-.6-.5-.7-1-.1-1.4-1.7-1.6-2.8 1.5-1.2 3.6-1.9 5.3-2.9 1.5-.8 4.4-2.9 4.4-2.8 1-.5 1.9-.8 2.7-1.4.7-.5 3.4-1.7 3.3-2.7.1 1.1.7 2 1 3.1.3 1.2.8 2.3 1 3.5.4 2.2.5 4.8-.3 7-.6 1.7-1.7 3.1-3 4.4-.2 1.4-.1 2.9.1 4.3v.1l.5 1.4 1.7 1.4c.2.1.3.3.4.4 2.2.8 5 1.5 5.4 1.6 1.9.6 3.4 1.1 4.5 2-.6-2.8-1.3-5.5-2.1-8.2-.7-2.6-1.5-5-2.3-7.6-.7-2.4-.3-4.4-.5-6.8-.7-7.1-4.3-12.4-11.5-13.5-6.7-1.1-12.3 4.5-13.2 10.9-.1.8-.2 1.6-.2 2.4 0 2.1.1 4.3-.2 6.5-.5 3.2-1.3 6.3-2.4 9.3-.5 1.5-1.7 3.6-2.8 5.9.2-.1.3-.2.5-.3.8-.3 1.5-.6 2.1-.7z"/><path d="M379 308.9l10.1-30.3s-.8-2 3.4 16c1.2 5.1-2.1 13.7-3 18.3 0 0 18.2 6.1 28.9-.7-1.6-2.1-4-9.4-3.8-16.7.1-5.5 2.6-11 3.4-14.4l.8-3.3 10 31.1 4.5-.6c-5.1-33-10.4-44.2-10.4-44.2-3.1-1.8-12-5.4-12-5.4-2.4 1.7-5.2 1.2-8 .2-1.9-1.5-15.2 2.4-17.1 4.5-5.4 15.9-10.4 45-10.4 45l3.6.5z" fill="#ffe600" stroke="#000" stroke-width=".5" stroke-miterlimit="10"/><path class="st10" d="M391.9 280.4s3 6.2 10 2.8m15.4-2.8s-3 6.2-10 2.8"/><path class="st3" d="M429.3 308.9c-4.1 3.4.4 2.8.4 2.8s2 5.4 3.4 5.2c1.9-.3-.1-8.6-.1-8.6l-3.7.6zm-53.9-.7s-2 8.3-.1 8.6c1.4.2 3.4-5.2 3.4-5.2s4.5.6.4-2.8l-3.7-.6z"/><g id="Layer_7_3_"><path class="st3" d="M404.3 262.7c1 0 3.6-1.7 5-3.6l1.1-2v-.1c-.2-1.4-.3-2.8-.1-4.3l-.6.6-.3.3c-1.2 1.1-2.5 1.6-3.7 1.6s-2.5-.5-3.7-1.6l-.3-.3c-.9-.8-1.8-1.7-2.5-2.7v.3c.3 2.1 0 4.3-.7 6.3l1.1 1.9c1 1.8 3.8 3.6 4.7 3.6z"/><path class="st3" d="M401.5 253.4l.3.3c1.2 1.1 2.5 1.6 3.7 1.6s2.5-.5 3.7-1.6l.3-.3.6-.6c1.3-1.3 2.4-2.7 3-4.4.7-2.2.7-4.7.3-7-.2-1.2-.7-2.3-1-3.5-.3-1-.8-2-1-3.1.1.9-2.6 2.2-3.3 2.7-.8.6-1.8.9-2.7 1.4-.1 0-3 2-4.4 2.8-1.7.9-3.8 1.6-5.3 2.9.2 1 .6 2.7 1.6 2.8.3 0 .5.4.5.7.2.9.5 1.8 1.1 2.6.8 1 1.7 1.9 2.6 2.7z"/><path class="st8" d="M406.7 266.3l-.7-.9-.6 1.1c-.1.2-.2.5-.1.8l1.1 4.8.7-2.2.7-2.1-.4-.7c-.2-.3-.4-.6-.7-.8zm-5.4.8l-.4.7.7 2.1.7 2.2 1.1-4.8c.1-.3 0-.5-.1-.8l-.6-1.1-.7.9c-.3.2-.5.5-.7.8z"/><path class="st9" d="M406.4 272l-1.1-4.8c-.1-.3 0-.5.1-.8l.6-1.1-1.7-2.1-1.7 2.1.6 1.1c.1.2.2.5.1.8l-1 4.8 1.3 4.3h1.5l1.3-4.3z"/><path class="st3" d="M410.4 257.2l-1.1 2c-1.4 1.9-4 3.5-5 3.6-1 0-3.7-1.8-5-3.6l-1.1-1.9-.1-.1-.5 1.4 3.1 9.3.4-.7c.2-.3.4-.6.6-.8l.7-.9 1.7-2.1 1.7 2.1.7.9c.2.3.4.5.6.8l.4.7 3.1-9.3-.2-1.4zm3.4 13l-2.3-4.2 3.2.3c-.3-.9-.9-4.7-1.6-6-.1-.2-.2-.3-.4-.4l-1.7-1.4-3.1 9.3-.7 2.1-.7 2.2-3.8 15.8 11.1-17.7z"/><path class="st3" d="M404.6 279.3l-2.3-7.3-.7-2.2-.7-2.1-3.1-9.3-1.5 1.2-.3.2c-.9.5-1.7 5.4-2 6.4l3.2-.3-2.3 4.2c-.1.2 6.7 10.4 8.7 13.4l1-4.2z"/><path class="st10" d="M408.8 243c.9-.4 2-.4 2.9 0m-10.7 0c.9-.4 2-.4 2.9 0"/><circle class="st6" cx="410.1" cy="244.7" r=".8"/><circle class="st6" cx="402.9" cy="244.7" r=".8"/><path class="st10" d="M403.5 250.4s2.4 2.3 5 .2M407 244c-.2.7-.2 1.4-.1 2.2.1.5.3 1.1.4 1.6.1.3.1.6 0 .8-.1.3-.4.4-.7.3"/></g></g><linearGradient id="SVGID_3_" gradientUnits="userSpaceOnUse" x1="275.8" y1="577.361" x2="506.9" y2="577.361" gradientTransform="translate(0 -80)"><stop offset=".001" stop-color="#fff" stop-opacity=".5"/><stop offset="1" stop-color="#ccc"/></linearGradient><path fill="url(#SVGID_3_)" d="M461.9 555.5h45l-11.5-19-213.9-97.2-5.7 4.4z"/><g id="Layer_9"><path class="st9" d="M495.7 549.5l14.5-112.3-5.4-11.9-31-2.6-6.9 15.2 8.2 111.6h6l6.7-99.2s1.4-2.4 3.2 0l-2.1 99.2h6.8z"/><path class="st3" d="M443.1 439.7l9.3-32.4 13.1-31.6s1.5-2 17.7-4.3c0 0 9.9 5.6 14.4.5l13.7 2.6 12.6 35.4 5 30.5h-6l-12.7-39.1s-.1 21.4.5 39.1c0 0-18.2 5.1-43.9-2.4l-1.6-32.6-16 34.5h-6.1"/><path class="st3" d="M449.3 439.7c3.9 5.9-1.8 3.8-1.8 3.8s-3.2 8.3-4.9 8.2c-2.3-.2.5-12 .5-12h6.2zm79.8.6s2.8 11.8.5 12c-1.7.1-4.9-8.2-4.9-8.2s-5.7 2-1.8-3.8h6.2z"/><path class="st4" d="M481.5 549.5v5.8h-3.2v-1.4l-2 1.4h-14.7l13.1-5.8zm7.3 0v5.8h3.2v-1.4l2 1.4h14.7l-13.1-5.8z"/><path class="st7" d="M491.5 375.2l4.8 38.5-6.5 8-5.4-8.7 5.4-37.6c-.1-.1.6-2 1.7-.2z"/><path class="st3" d="M485.2 359.2l-.7 13.6 5.9 6.7 6.2-5.8-.7-15.1z"/><g id="Layer_7_2_"><path class="st3" d="M482.1 371.4l3.5 8.8.9 2.4 2.3-3.7 1.5-2.5c.1-.1.2-.1.4-.1l.1.1 1.9 2.8 2.9 4.2 2.1-11.6-.8-2.1-.2.2-6.1 6c-.1.1-.3.1-.3 0l-7.1-7-.1-.1-1 2.6zm2.8-5.2c.8.9 1.5 1.7 2.6 2.3.7.4 1.6.4 2.5.4h.3c.7.1 1.5 0 2.2-.2 1.1-.5 1.9-1.3 2.8-2.1.6-.5 1.3-1 2-1.3.4-.2.7-.5 1-.8.4-.4.7-1 .9-1.5.3-.8.3-2.2 1-2.8.6-.6 1.3-.8 1.8-1.6.8-1.5 1.2-3.1 1.2-4.8 0-.5-.2-1.2-.9-.8-.3.2-.2.7-.5.8l-.3.7h-.9c0-.7.1-1.3.2-2 .1-1.4.3-2.9 0-4.3-.3-1.8-3-2.8-4.4-3.7-.2-.2-.6-.5-.9-.6-.4-.1-.2-.1-.6.1-1.6.8-2.6 1.7-4.6 1.6-1.6-.1-3.2-.5-4.8-.4-2.2.1-4.3 1.4-4.6 3.6-.1.8-.1 1.7-.2 2.5-.1.6-.1 1.1-.1 1.7v.6l-1.2-.1v-1.3c0-.1-.1-.2-.2-.3-.6-.5-.9.3-1 .7-.2 1.7 0 3.3.7 4.9.4.9 1 1.1 1.6 1.8.7.7.5 2 .7 2.9.1.6.4 1.1.7 1.6.2.3.5.6.8.8.8.5 1.6 1 2.2 1.6z"/><path class="st6" d="M479.5 353v.5l1.2.1v-.6c0-.6 0-1.1.1-1.7.1-.8 0-1.7.2-2.5.3-2.1 2.4-3.6 4.6-3.6 1.6 0 3.2.4 4.8.4 2 .1 2.9-.7 4.6-1.6.4-.2.2-.3.6-.1.3.1.6.5.9.6 1.4.9 4.1 1.9 4.4 3.7.3 1.4.1 2.9 0 4.3-.1.7-.2 1.3-.2 2h.9l.3-.7c.3-.7.5-1.4.6-1.8.3-1.1.5-2.2.6-3.4.5-2.7.8-5.4-.9-7.8-1.8-2.6-4.6-4.2-6.2-4.1-.1 0-1.1 0-1 .2-.5-.5-1.5-.6-2.2-.8-3.6-1-8.3.9-11 3-2.9 2.2-2.6 5.3-2.5 8.2.1 1 0 2.2.2 3.1.1.5.2 1 .2 1.6-.2.5-.2.7-.2 1z"/><path class="st10" d="M493.6 352.1c1.1-.5 2.3-.5 3.3 0m-12.3 0c1.1-.5 2.3-.5 3.3 0"/><circle class="st6" cx="495.1" cy="354.2" r=".9"/><circle class="st6" cx="486.8" cy="354.2" r=".9"/><path class="st10" d="M487.6 362.6s2.8 2.7 5.7.3m-1.6-9.5c-.2 1-.2 2-.1 3 .1.8.3 1.5.4 2.2.1.4.1.8 0 1.1-.1.4-.4.6-.7.4"/></g></g><linearGradient id="SVGID_4_" gradientUnits="userSpaceOnUse" x1="720.4" y1="502.411" x2="865.8" y2="502.411" gradientTransform="translate(0 -80)"><stop offset=".001" stop-color="#fff" stop-opacity=".5"/><stop offset="1" stop-color="#ccc"/></linearGradient><path fill="url(#SVGID_4_)" d="M837.5 459h28.3l-7.3-11.9-134.6-61.2-3.5 2.8z"/><g id="Layer_9_1_"><path class="st15" d="M858.8 455.3l9.1-70.7-3.4-7.5-19.5-1.7-4.3 9.6 5.1 70.2h3.8l4.2-62.4s.9-1.5 2 0l-1.3 62.4h4.3v.1z"/><path class="st3" d="M825.7 386.2l5.8-20.4 8.2-19.9s.9-1.3 11.2-2.7c0 0 6.2 3.5 9.1.3l8.6 1.6 8 22.3 3.2 19.2H876l-8-24.6s-.1 13.5.3 24.6c0 0-11.5 3.2-27.7-1.5l-1-20.5-10.1 21.7h-3.8"/><path class="st3" d="M829.6 386.2c2.5 3.7-1.1 2.4-1.1 2.4s-2 5.3-3.1 5.2c-1.5-.1.3-7.6.3-7.6h3.9zm50.2.4s1.8 7.4.3 7.6c-1.1.1-3.1-5.2-3.1-5.2s-3.6 1.3-1.1-2.4h3.9z"/><path class="st4" d="M849.8 455.3v3.6h-2v-.9l-1.2.9h-9.3l8.2-3.6zm4.6 0v3.6h2v-.9l1.3.9h9.2l-8.2-3.6z"/><path class="st16" d="M856.1 345.6l3 24.2-4.1 5-3.4-5.5 3.4-23.7c0 .1.5-1.1 1.1 0z"/><path class="st3" d="M852.2 335.5l-.5 8.6 3.7 4.2 3.9-3.7-.4-9.5z"/><g id="Layer_7_4_"><path class="st3" d="M850.2 343.2l2.2 5.5.6 1.5 1.4-2.3.9-1.6c.1-.1.2-.1.2 0v.1l1.2 1.7 1.8 2.6 1.3-7.3-.5-1.3-.1.1-3.8 3.8c-.1.1-.2 0-.2 0l-4.4-4.4-.6 1.6zm1.8-3.2c.5.5.9 1.1 1.6 1.5.4.2 1 .3 1.6.3h.2c.5.1.9 0 1.4-.1.7-.3 1.2-.8 1.8-1.3.4-.3.8-.6 1.3-.8.2-.1.5-.3.6-.5.2-.3.4-.6.5-1 .2-.5.2-1.4.6-1.8.4-.4.8-.5 1.1-1 .5-.9.8-2 .7-3 0-.3-.1-.8-.6-.5-.2.1-.1.4-.3.5l-.2.4h-.6c0-.4.1-.8.2-1.3.1-.9.2-1.8 0-2.7-.2-1.1-1.9-1.8-2.8-2.4-.2-.1-.4-.3-.5-.4-.3-.1-.1-.1-.4.1-1 .5-1.6 1.1-2.9 1-1-.1-2-.3-3-.3-1.4 0-2.7.9-2.9 2.3-.1.5 0 1-.1 1.6 0 .4-.1.7-.1 1.1v.4h-.7v-.8c0-.1 0-.1-.1-.2-.4-.3-.6.2-.6.5-.1 1 0 2.1.4 3.1.3.5.6.7 1 1.1.4.5.3 1.3.4 1.8.1.4.2.7.5 1 .1.2.3.4.5.5.5.2 1 .4 1.4.9z"/><path class="st6" d="M848.5 331.6v.3h.7v-.4c0-.4 0-.7.1-1.1.1-.5 0-1.1.1-1.6.2-1.3 1.5-2.2 2.9-2.3 1 0 2 .2 3 .3 1.3.1 1.9-.5 2.9-1 .3-.1.1-.2.4-.1.2.1.4.3.5.4.9.6 2.6 1.2 2.8 2.4.2.9.1 1.8 0 2.7-.1.4-.1.8-.2 1.3h.6l.2-.4c.2-.5.3-.9.4-1.1.2-.7.3-1.4.3-2.1.3-1.7.5-3.4-.6-4.9-1.1-1.6-2.9-2.6-3.9-2.6-.1 0-.7 0-.6.1-.3-.3-.9-.4-1.4-.5-2.3-.6-5.2.6-6.9 1.9-1.8 1.4-1.7 3.3-1.6 5.2 0 .6 0 1.4.2 2 .1.3.1.7.1 1 .1.2.1.3 0 .5z"/><path class="st10" d="M857.5 331.1c.7-.3 1.4-.3 2.1 0m-7.8 0c.7-.3 1.4-.3 2.1 0"/><circle class="st6" cx="858.4" cy="332.4" r=".5"/><circle class="st6" cx="853.1" cy="332.4" r=".5"/><path class="st10" d="M853.6 337.7s1.8 1.7 3.6.2m-1-6c-.1.6-.1 1.3 0 1.9.1.5.2.9.2 1.4.1.2.1.5 0 .7s-.3.4-.4.3"/></g></g><linearGradient id="SVGID_5_" gradientUnits="userSpaceOnUse" x1="151.7" y1="263.31" x2="288.4" y2="263.31" gradientTransform="translate(0 -80)"><stop offset=".001" stop-color="#fff" stop-opacity=".5"/><stop offset="1" stop-color="#ccc"/></linearGradient><path fill="url(#SVGID_5_)" d="M261.7 217.7h26.7l-6.9-11.2L155 149l-3.3 2.6z"/><g id="Layer_9_6_"><path class="st15" d="M281.7 214.2l8.6-66.4-3.2-7-18.3-1.6-4.1 9 4.8 66h3.5l4-58.7s.8-1.4 1.9 0l-1.2 58.7h4z"/><path class="st3" d="M250.6 149.2l5.5-19.2 7.7-18.7s.9-1.2 10.5-2.6c0 0 5.9 3.3 8.5.3l8.1 1.5 7.5 20.9 3 18.1h-3.6l-7.5-23.2s-.1 12.7.3 23.2c0 0-10.8 3-26-1.4l-.9-19.3-9.5 20.4h-3.6"/><path class="st3" d="M254.3 149.2c2.3 3.5-1.1 2.3-1.1 2.3s-1.9 4.9-2.9 4.9c-1.4-.1.3-7.1.3-7.1l3.7-.1zm47.2.4s1.7 7 .3 7.1c-1 .1-2.9-4.9-2.9-4.9s-3.4 1.2-1.1-2.3l3.7.1z"/><path class="st4" d="M273.3 214.2v3.4h-1.9v-.8l-1.1.8h-8.7l7.7-3.4zm4.4 0v3.4h1.8v-.8l1.2.8h8.7l-7.7-3.4z"/><path class="st16" d="M279.2 111l2.8 22.8-3.9 4.7-3.2-5.2 3.2-22.2c.1 0 .5-1.1 1.1-.1z"/><path class="st3" d="M275.5 101.6l-.4 8 3.5 4 3.6-3.4-.4-9z"/><g id="Layer_7_14_"><path class="st3" d="M273.7 108.8l2.1 5.2.6 1.4 1.3-2.2.9-1.5c0-.1.1-.1.2 0v.1l1.1 1.6 1.7 2.5 1.3-6.8-.4-1.3-.1.1-3.6 3.5h-.2l-4.2-4.1-.7 1.5zm1.6-3.1c.5.5.9 1 1.5 1.4.4.2.9.2 1.5.2h.2c.4.1.9 0 1.3-.1.7-.3 1.1-.8 1.7-1.2.4-.3.8-.6 1.2-.8.2-.1.4-.3.6-.5.2-.3.4-.6.5-.9.2-.5.2-1.3.6-1.7.4-.3.8-.5 1-1 .5-.9.7-1.8.7-2.8 0-.3-.1-.7-.5-.5-.2.1-.1.4-.3.5l-.2.4h-.5c0-.4.1-.8.1-1.2.1-.9.2-1.7 0-2.6-.2-1.1-1.8-1.7-2.6-2.2-.1-.1-.3-.3-.5-.4-.3-.1-.1 0-.4.1-1 .5-1.5 1-2.7.9-1 0-1.9-.3-2.9-.3-1.3 0-2.5.9-2.7 2.1-.1.5 0 1-.1 1.5 0 .3-.1.7-.1 1v.3h-.7v-.8c0-.1 0-.1-.1-.2-.4-.3-.5.2-.6.4-.1 1 0 2 .4 2.9.2.5.6.7.9 1.1.4.4.3 1.2.4 1.7.1.3.2.7.4.9.1.2.3.3.5.5.6.7 1.1 1 1.4 1.3z"/><path class="st6" d="M272.1 97.9v.3h.7v-.3c0-.3 0-.7.1-1 .1-.5 0-1 .1-1.5.2-1.3 1.4-2.1 2.7-2.1 1 0 1.9.2 2.9.3 1.2.1 1.7-.4 2.7-.9.3-.1.1-.2.4-.1.2 0 .4.3.5.4.9.6 2.4 1.1 2.6 2.2.2.9.1 1.7 0 2.6-.1.4-.1.8-.1 1.2h.5l.2-.4c.2-.4.3-.9.4-1.1.2-.7.3-1.3.3-2 .3-1.6.5-3.2-.6-4.6-1.1-1.5-2.7-2.5-3.7-2.4-.1 0-.7 0-.6.1-.3-.3-.9-.3-1.3-.4-2.1-.6-4.9.5-6.5 1.8-1.7 1.3-1.6 3.1-1.5 4.9 0 .6 0 1.3.1 1.9.1.3.1.6.1.9.1-.1.1 0 0 .2z"/><path class="st10" d="M280.5 97.4c.6-.3 1.3-.3 2 0m-7.3 0c.6-.3 1.3-.3 2 0"/><circle class="st6" cx="281.4" cy="98.6" r=".5"/><circle class="st6" cx="276.5" cy="98.6" r=".5"/><path class="st10" d="M276.9 103.6s1.7 1.6 3.4.2m-.9-5.7c-.1.6-.1 1.2 0 1.8.1.4.2.9.2 1.3v.7c-.1.2-.3.4-.4.2"/></g></g><linearGradient id="SVGID_6_" gradientUnits="userSpaceOnUse" x1="427.7" y1="308.911" x2="564.4" y2="308.911" gradientTransform="translate(0 -80)"><stop offset=".001" stop-color="#fff" stop-opacity=".5"/><stop offset="1" stop-color="#ccc"/></linearGradient><path fill="url(#SVGID_6_)" d="M537.8 263.3h26.6l-6.8-11.2-126.5-57.5-3.4 2.6z"/><g id="Layer_9_5_"><path class="st15" d="M557.8 259.8l8.6-66.4-3.2-7-18.3-1.6-4.1 9 4.8 66h3.5l4-58.7s.8-1.4 1.9 0l-1.2 58.7h4z"/><path class="st3" d="M526.7 194.9l5.5-19.2 7.7-18.7s.9-1.2 10.5-2.6c0 0 5.9 3.3 8.5.3l8.1 1.5 7.5 20.9 3 18.1h-3.6l-7.5-23.2s-.1 12.7.3 23.2c0 0-10.8 3-26-1.4l-.9-19.3-9.5 20.4h-3.6"/><path class="st3" d="M530.3 194.9c2.3 3.5-1.1 2.3-1.1 2.3s-1.9 4.9-2.9 4.9c-1.4-.1.3-7.1.3-7.1l3.7-.1zm47.3.3s1.7 7 .3 7.1c-1 .1-2.9-4.9-2.9-4.9s-3.4 1.2-1.1-2.3l3.7.1z"/><path class="st4" d="M549.4 259.8v3.4h-1.9v-.8l-1.2.8h-8.7l7.8-3.4zm4.3 0v3.4h1.9v-.8l1.2.8h8.7l-7.8-3.4z"/><path class="st16" d="M555.3 156.7l2.8 22.8-3.9 4.7-3.2-5.2 3.2-22.2s.5-1.2 1.1-.1z"/><path class="st3" d="M551.6 147.2l-.5 8.1 3.6 3.9 3.6-3.4-.4-9z"/><g id="Layer_7_12_"><path class="st3" d="M549.7 154.4l2.1 5.2.6 1.4 1.3-2.2.9-1.5c0-.1.1-.1.2 0v.1l1.1 1.6 1.7 2.5 1.3-6.8-.5-1.3-.1.1-3.6 3.5h-.2l-4.2-4.1-.6 1.5zm1.7-3c.5.5.9 1 1.5 1.4.4.2.9.2 1.5.2h.2c.4.1.9 0 1.3-.1.7-.3 1.1-.8 1.7-1.2.4-.3.8-.6 1.2-.8.2-.1.4-.3.6-.5.2-.3.4-.6.5-.9.2-.5.2-1.3.6-1.7.4-.3.8-.5 1-1 .5-.9.7-1.8.7-2.8 0-.3-.1-.7-.5-.5-.2.1-.1.4-.3.5l-.2.4h-.5c0-.4.1-.8.1-1.2.1-.9.2-1.7 0-2.6-.2-1.1-1.8-1.7-2.6-2.2-.1-.1-.3-.3-.5-.4-.3-.1-.1 0-.4.1-1 .5-1.5 1-2.7.9-1 0-1.9-.3-2.9-.3-1.3 0-2.5.9-2.7 2.1-.1.5 0 1-.1 1.5 0 .3-.1.7-.1 1v.3h-.7v-.8c0-.1 0-.1-.1-.2-.4-.3-.5.2-.6.4-.1 1 0 2 .4 2.9.2.5.6.7.9 1.1.4.4.3 1.2.4 1.7.1.3.2.7.4.9.1.2.3.3.5.5.6.6 1.1.9 1.4 1.3z"/><path class="st6" d="M548.2 143.5v.3h.7v-.3c0-.3 0-.7.1-1 .1-.5 0-1 .1-1.5.2-1.3 1.4-2.1 2.7-2.1 1 0 1.9.2 2.9.3 1.2.1 1.7-.4 2.7-.9.3-.1.1-.2.4-.1.2 0 .4.3.5.4.9.6 2.4 1.1 2.6 2.2.2.9.1 1.7 0 2.6-.1.4-.1.8-.1 1.2h.5l.2-.4c.2-.4.3-.9.4-1.1.2-.7.3-1.3.3-2 .3-1.6.5-3.2-.6-4.6-1.1-1.5-2.7-2.5-3.7-2.4-.1 0-.7 0-.6.1-.3-.3-.9-.3-1.3-.4-2.1-.6-4.9.5-6.5 1.8-1.7 1.3-1.6 3.1-1.5 4.9 0 .6 0 1.3.1 1.9.1.3.1.6.1.9v.2z"/><path class="st10" d="M556.6 143c.6-.3 1.3-.3 2 0m-7.3 0c.6-.3 1.3-.3 2 0"/><circle class="st6" cx="557.5" cy="144.2" r=".5"/><circle class="st6" cx="552.5" cy="144.2" r=".5"/><path class="st10" d="M553 149.2s1.7 1.6 3.4.2m-1-5.6c-.1.6-.1 1.2 0 1.8.1.4.2.9.2 1.3v.7c-.1.2-.3.4-.4.2"/></g></g><linearGradient id="SVGID_7_" gradientUnits="userSpaceOnUse" x1="488.3" y1="747.51" x2="633.7" y2="747.51" gradientTransform="translate(0 -80)"><stop offset=".001" stop-color="#fff" stop-opacity=".5"/><stop offset="1" stop-color="#ccc"/></linearGradient><path fill="url(#SVGID_7_)" d="M605.4 704.1h28.3l-7.3-12L491.8 631l-3.5 2.8z"/><g id="Layer_9_2_"><path class="st15" d="M626.6 700.3l9.1-70.7-3.4-7.5-19.5-1.7-4.3 9.6 5.1 70.2h3.8l4.2-62.4s.9-1.5 2 0l-1.3 62.4h4.3v.1z"/><path class="st3" d="M593.5 631.3l5.9-20.4 8.2-19.9s.9-1.3 11.2-2.7c0 0 6.2 3.5 9.1.3l8.6 1.6 8 22.3 3.2 19.2h-3.8l-8-24.6s-.1 13.5.3 24.6c0 0-11.5 3.2-27.7-1.5l-1-20.5-10.1 21.7-3.9-.1"/><path class="st3" d="M597.4 631.3c2.5 3.7-1.1 2.4-1.1 2.4s-2 5.3-3.1 5.2c-1.5-.1.3-7.6.3-7.6h3.9zm50.3.3s1.8 7.4.3 7.6c-1.1.1-3.1-5.2-3.1-5.2s-3.6 1.3-1.1-2.4h3.9z"/><path class="st4" d="M617.7 700.3v3.7h-2v-.9l-1.2.9h-9.3l8.2-3.7zm4.6 0v3.7h2v-.9l1.3.9h9.2l-8.2-3.7z"/><path class="st16" d="M624 590.6l3 24.2-4.1 5-3.4-5.5 3.4-23.7c0 .1.4-1.1 1.1 0z"/><path class="st3" d="M620.1 580.6l-.5 8.5 3.7 4.3 3.9-3.7-.5-9.5z"/><g id="Layer_7_7_"><path class="st3" d="M618.1 588.2l2.2 5.5.6 1.5 1.4-2.3.9-1.6c.1-.1.2-.1.2 0v.1l1.2 1.7 1.8 2.6 1.3-7.3-.5-1.3-.1.1-3.8 3.8c-.1.1-.2 0-.2 0l-4.4-4.4-.6 1.6zm1.7-3.2c.5.5.9 1.1 1.6 1.5.4.2 1 .3 1.6.3h.2c.5.1.9 0 1.4-.1.7-.3 1.2-.8 1.8-1.3.4-.3.8-.6 1.3-.8.2-.1.5-.3.6-.5.2-.3.4-.6.5-1 .2-.5.2-1.4.6-1.8.4-.4.8-.5 1.1-1 .5-.9.8-2 .7-3 0-.3-.1-.8-.6-.5-.2.1-.1.4-.3.5l-.2.4h-.6c0-.4.1-.8.2-1.3.1-.9.2-1.8 0-2.7-.2-1.1-1.9-1.8-2.8-2.4-.2-.1-.4-.3-.5-.4-.3-.1-.1-.1-.4.1-1 .5-1.6 1.1-2.9 1-1-.1-2-.3-3-.3-1.4 0-2.7.9-2.9 2.3-.1.5 0 1-.1 1.6 0 .4-.1.7-.1 1.1v.4h-.7v-.8c0-.1 0-.1-.1-.2-.4-.3-.6.2-.6.5-.1 1 0 2.1.4 3.1.3.5.6.7 1 1.1.4.5.3 1.3.4 1.8.1.4.2.7.5 1 .1.2.3.4.5.5.6.2 1.1.5 1.4.9z"/><path class="st6" d="M616.4 576.7v.3h.7v-.4c0-.4 0-.7.1-1.1.1-.5 0-1.1.1-1.6.2-1.3 1.5-2.2 2.9-2.3 1 0 2 .2 3 .3 1.3.1 1.9-.5 2.9-1 .3-.1.1-.2.4-.1.2.1.4.3.5.4.9.6 2.6 1.2 2.8 2.4.2.9.1 1.8 0 2.7-.1.4-.1.8-.2 1.3h.6l.2-.4c.2-.5.3-.9.4-1.1.2-.7.3-1.4.3-2.1.3-1.7.5-3.4-.6-4.9-1.1-1.6-2.9-2.6-3.9-2.6-.1 0-.7 0-.6.1-.3-.3-.9-.4-1.4-.5-2.3-.6-5.2.6-6.9 1.9-1.8 1.4-1.7 3.3-1.6 5.2 0 .6 0 1.4.2 2 .1.3.1.7.1 1 .1.1.1.3 0 .5z"/><path class="st10" d="M625.3 576.1c.7-.3 1.4-.3 2.1 0m-7.7 0c.7-.3 1.4-.3 2.1 0"/><circle class="st6" cx="626.3" cy="577.4" r=".5"/><circle class="st6" cx="621" cy="577.4" r=".5"/><path class="st10" d="M621.5 582.7s1.8 1.7 3.6.2m-1-6c-.1.6-.1 1.3 0 1.9.1.5.2.9.2 1.4.1.2.1.5 0 .7s-.3.4-.4.3"/></g></g><linearGradient id="SVGID_8_" gradientUnits="userSpaceOnUse" x1="0" y1="425.81" x2="134" y2="425.81" gradientTransform="translate(0 -80)"><stop offset=".001" stop-color="#fff" stop-opacity=".5"/><stop offset="1" stop-color="#ccc"/></linearGradient><path fill="url(#SVGID_8_)" d="M107.9 379.6H134l-6.7-11L3.2 312.1 0 314.7z"/><g id="Layer_9_3_"><path class="st15" d="M127.5 376.1l8.4-65.2-3.2-6.9-18-1.5-4 8.8 4.7 64.8h3.5l3.9-57.6s.8-1.4 1.8 0l-1.2 57.6h4.1z"/><path class="st3" d="M97 312.4l5.4-18.8 7.6-18.3s.9-1.2 10.3-2.5c0 0 5.7 3.3 8.4.3l7.9 1.5 7.3 20.5 2.9 17.7h-3.5l-7.4-22.7s-.1 12.4.3 22.7c0 0-10.6 3-25.5-1.4l-.9-18.9-9.3 20H97"/><path class="st3" d="M100.6 312.4c2.3 3.4-1 2.2-1 2.2s-1.9 4.8-2.8 4.8c-1.3-.1.3-7 .3-7h3.5zm46.3.4s1.6 6.9.3 7c-1 .1-2.8-4.8-2.8-4.8s-3.3 1.2-1-2.2h3.5z"/><path class="st4" d="M119.3 376.1v3.4h-1.8v-.9l-1.2.9h-8.5l7.6-3.4zm4.3 0v3.4h1.8v-.9l1.1.9h8.6l-7.6-3.4z"/><path class="st16" d="M125.1 274.9l2.8 22.3-3.8 4.6-3.1-5.1 3.1-21.8c0 .1.4-1 1 0z"/><path class="st3" d="M121.5 265.7l-.5 7.9 3.5 3.9 3.6-3.4-.5-8.8z"/><g id="Layer_7_9_"><path class="st3" d="M119.7 272.7l2 5.1.5 1.4 1.3-2.2.9-1.4c0-.1.1-.1.2 0v.1l1.1 1.6 1.7 2.4 1.2-6.7-.4-1.2-.1.1-3.5 3.5h-.2l-4.1-4.1-.6 1.4zm1.6-2.9c.4.5.9 1 1.5 1.4.4.2.9.2 1.4.2h.2c.4.1.8 0 1.3-.1.7-.3 1.1-.7 1.6-1.2.4-.3.8-.6 1.2-.8.2-.1.4-.3.6-.5.2-.3.4-.6.5-.9.2-.5.1-1.3.6-1.6.4-.3.7-.5 1-.9.5-.8.7-1.8.7-2.8 0-.3-.1-.7-.5-.5-.2.1-.1.4-.3.5l-.2.4h-.5c0-.4.1-.8.1-1.2.1-.8.1-1.7 0-2.5-.2-1.1-1.7-1.6-2.6-2.2-.1-.1-.3-.3-.5-.4-.3-.1-.1 0-.4.1-.9.5-1.5 1-2.6.9-.9 0-1.9-.3-2.8-.3-1.3 0-2.5.8-2.7 2.1-.1.5 0 1-.1 1.4 0 .3-.1.7-.1 1v.3h-.7v-.7c0-.1 0-.1-.1-.2-.4-.3-.5.2-.6.4-.1 1 0 1.9.4 2.8.2.5.6.7.9 1 .4.4.3 1.2.4 1.7.1.3.2.6.4.9.1.2.3.3.4.5.7.5 1.1.8 1.5 1.2z"/><path class="st6" d="M118.1 262.1v.3h.7v-.3c0-.3 0-.7.1-1 .1-.5 0-1 .1-1.4.2-1.2 1.4-2.1 2.7-2.1.9 0 1.9.2 2.8.3 1.2.1 1.7-.4 2.6-.9.3-.1.1-.2.4-.1.2 0 .4.3.5.4.8.5 2.4 1.1 2.6 2.2.2.8.1 1.7 0 2.5-.1.4-.1.8-.1 1.2h.5l.2-.4c.2-.4.3-.8.4-1 .2-.6.3-1.3.3-2 .3-1.6.4-3.1-.5-4.5-1.1-1.5-2.7-2.4-3.6-2.4-.1 0-.7 0-.6.1-.3-.3-.9-.3-1.3-.4-2.1-.6-4.8.5-6.4 1.7-1.7 1.3-1.5 3.1-1.4 4.8 0 .6 0 1.3.1 1.8.1.3.1.6.1.9-.1 0-.2.1-.2.3z"/><path class="st10" d="M126.3 261.6c.6-.3 1.3-.3 1.9 0m-7.1 0c.6-.3 1.3-.3 1.9 0"/><circle class="st6" cx="127.2" cy="262.8" r=".5"/><circle class="st6" cx="122.4" cy="262.8" r=".5"/><path class="st10" d="M122.8 267.7s1.6 1.6 3.3.2m-.9-5.6c-.1.6-.1 1.2 0 1.7.1.4.2.9.2 1.3v.7c-.1.2-.2.3-.4.2"/></g></g><linearGradient id="SVGID_9_" gradientUnits="userSpaceOnUse" x1="361" y1="864.01" x2="506.4" y2="864.01" gradientTransform="translate(0 -80)"><stop offset=".001" stop-color="#fff" stop-opacity=".5"/><stop offset="1" stop-color="#ccc"/></linearGradient><path fill="url(#SVGID_9_)" d="M478.1 820.6h28.3l-7.2-11.9-134.6-61.2-3.6 2.8z"/><g id="Layer_9_4_"><path class="st15" d="M499.4 816.9l9.1-70.7-3.4-7.5-19.5-1.7-4.3 9.6 5.1 70.2h3.8l4.2-62.4s.9-1.5 2 0l-1.3 62.4h4.3v.1z"/><path class="st3" d="M466.3 747.8l5.9-20.4 8.2-19.9s.9-1.3 11.2-2.7c0 0 6.2 3.5 9.1.3l8.6 1.6 8 22.3 3.2 19.2h-4l-8-24.6s-.1 13.5.3 24.6c0 0-11.5 3.2-27.7-1.5l-1-20.5-9.9 21.6h-3.9"/><path class="st3" d="M470.2 747.8c2.5 3.7-1.1 2.4-1.1 2.4s-2 5.3-3.1 5.2c-1.5-.1.3-7.6.3-7.6h3.9zm50.2.4s1.8 7.4.3 7.6c-1.1.1-3.1-5.2-3.1-5.2s-3.6 1.3-1.1-2.4h3.9z"/><path class="st4" d="M490.4 816.9v3.6h-2v-.9l-1.2.9h-9.3l8.3-3.6zm4.7 0v3.6h1.9v-.9l1.3.9h9.2l-8.2-3.6z"/><path class="st16" d="M496.7 707.2l3 24.2-4.1 5-3.4-5.5 3.4-23.7c0 .1.5-1.1 1.1 0z"/><path class="st3" d="M492.8 697.1l-.5 8.6 3.8 4.2 3.8-3.7-.4-9.5z"/><g id="Layer_7_10_"><path class="st3" d="M490.8 704.8l2.2 5.5.6 1.5 1.4-2.3.9-1.6c.1-.1.2-.1.2 0v.1l1.2 1.7 1.8 2.6 1.3-7.3-.5-1.3-.1.1-3.8 3.8c-.1.1-.2 0-.2 0l-4.4-4.4-.6 1.6zm1.8-3.2c.5.5.9 1.1 1.6 1.5.4.2 1 .3 1.6.3h.2c.5.1.9 0 1.4-.1.7-.3 1.2-.8 1.8-1.3.4-.3.8-.6 1.3-.8.2-.1.5-.3.6-.5.2-.3.4-.6.5-1 .2-.5.2-1.4.6-1.8.4-.4.8-.5 1.1-1 .5-.9.8-2 .7-3 0-.3-.1-.8-.6-.5-.2.1-.1.4-.3.5l-.2.4h-.6c0-.4.1-.8.2-1.3.1-.9.2-1.8 0-2.7-.2-1.1-1.9-1.8-2.8-2.4-.2-.1-.4-.3-.5-.4-.3-.1-.1-.1-.4.1-1 .5-1.6 1.1-2.9 1-1-.1-2-.3-3-.3-1.4 0-2.7.9-2.9 2.3-.1.5 0 1-.1 1.6 0 .4-.1.7-.1 1.1v.4h-.7v-.8c0-.1 0-.1-.1-.2-.4-.3-.6.2-.6.5-.1 1 0 2.1.4 3.1.3.5.6.7 1 1.1.4.5.3 1.3.4 1.8.1.4.2.7.5 1 .1.2.3.4.5.5.5.2 1 .4 1.4.9z"/><path class="st6" d="M489.2 693.2v.3h.7v-.4c0-.4 0-.7.1-1.1.1-.5 0-1.1.1-1.6.2-1.3 1.5-2.2 2.9-2.3 1 0 2 .2 3 .3 1.3.1 1.9-.5 2.9-1 .3-.1.1-.2.4-.1.2.1.4.3.5.4.9.6 2.6 1.2 2.8 2.4.2.9.1 1.8 0 2.7-.1.4-.1.8-.2 1.3h.6l.2-.4c.2-.5.3-.9.4-1.1.2-.7.3-1.4.3-2.1.3-1.7.5-3.4-.6-4.9-1.1-1.6-2.9-2.6-3.9-2.6-.1 0-.7 0-.6.1-.3-.3-.9-.4-1.4-.5-2.3-.6-5.2.6-6.9 1.9-1.8 1.4-1.7 3.3-1.6 5.2 0 .6 0 1.4.2 2 .1.3.1.7.1 1v.5z"/><path class="st10" d="M498.1 692.7c.7-.3 1.4-.3 2.1 0m-7.8 0c.7-.3 1.4-.3 2.1 0"/><circle class="st6" cx="499" cy="694" r=".5"/><circle class="st6" cx="493.8" cy="694" r=".5"/><path class="st10" d="M494.2 699.3s1.8 1.7 3.6.2m-1-6c-.1.6-.1 1.3 0 1.9.1.5.2.9.2 1.4.1.2.1.5 0 .7s-.3.4-.4.3"/></g></g><linearGradient id="SVGID_10_" gradientUnits="userSpaceOnUse" x1="697.7" y1="764.061" x2="832.9" y2="764.061" gradientTransform="translate(0 -80)"><stop offset=".001" stop-color="#fff" stop-opacity=".5"/><stop offset="1" stop-color="#ccc"/></linearGradient><path fill="url(#SVGID_10_)" d="M806.6 718.1h26.3l-6.7-11.1L701 650.1l-3.3 2.6z"/><g id="Layer_8_2_"><path class="st3" d="M823.7 613.3v.2c0 .1-.1.1-.2.2-.8.6-1.6 1.2-2.5 1.6-.5.3-1.2.5-1.7.3-.3-.2-.6-.5-.7-.8l-.8-1.4c.5-.3.6-.9.6-1.5v-2.2c1.3-.7 2.8-1.1 4.3-1.1.5 0 .8.1.7.6s-.1.9-.1 1.4c.1.9.2 1.8.4 2.7z"/><path class="st4" d="M817.4 712.7v5.3h-.8l-.6-2.2-1.4 2.2h-7.8c3-.6 5.6-2.6 7-5.3h3.6zm5.1 0v5.3h.8l.6-2.2 1.4 2.2h7.8c-3-.6-5.6-2.6-7-5.3h-3.6z"/><path class="st5" d="M822.3 712.7h3.3s6.7-47.1 6.2-58c-.3-6.9-4.2-10.5-4.2-10.5h-15.2s-3.8 3.6-4.2 10.5c-.5 10.9 6.2 58 6.2 58h3.3s1-56.9 2.4-56.3c-.1 0 2.9 22.1 2.2 56.3z"/><path class="st6" d="M810.2 612.3c.9-.2 1.8-.2 2.8-.6.1-.1.8-.5 1.4-.9l1-.8.3-1v.1c.5-1.4.7-2.9.5-4.4v-.2c-.4-.5-.6-1.2-.8-1.8 0-.2-.1-.5-.4-.5-.7 0-1-1.2-1.1-1.9 1.1-.9 2.5-1.4 3.7-2 1-.6 3.1-2 3.1-2 .7-.3 1.3-.6 1.9-1 .5-.3 2.4-1.2 2.3-1.9.1.8.5 1.4.7 2.2s.6 1.6.7 2.4c.3 1.6.3 3.4-.2 4.9-.4 1.2-1.2 2.2-2.1 3.1-.1 1-.1 2 .1 3v.1l.3 1 1.2 1 .3.3c1.5.6 3.5 1 3.8 1.1 1.3.4 2.4.8 3.2 1.4-.4-1.9-.9-3.9-1.5-5.8-.5-1.8-1.1-3.6-1.6-5.3s-.2-3.1-.4-4.8c-.5-5-3-8.7-8.1-9.5-4.7-.7-8.6 3.2-9.3 7.7-.1.5-.1 1.1-.1 1.7 0 1.5.1 3-.2 4.6-.4 2.2-.9 4.4-1.7 6.6-.4 1-1.2 2.5-2 4.1.1-.1.2-.1.4-.2.8-.4 1.3-.6 1.8-.7z"/><path class="st8" d="M802.3 645.5l7.1-21.3s-.5-1.4 2.4 11.3c.8 3.6-1.5 9.6-2.1 12.9 0 0 12.8 4.3 20.4-.5-1.1-1.4-2.8-6.6-2.7-11.7.1-3.9 1.8-7.7 2.4-10.2l.6-2.3 7 21.9 3.2-.4c-3.6-23.2-7.3-31.1-7.3-31.1-2.2-1.2-8.5-3.8-8.5-3.8-1.7 1.2-3.7.9-5.6.1-1.3-1.1-10.7 1.7-12 3.2-3.8 11.2-7.4 31.7-7.4 31.7l2.5.2z"/><path class="st10" d="M811.4 625.4s2.1 4.3 7 2m10.8-2s-2.1 4.3-7 2"/><path class="st3" d="M837.7 645.5c-2.9 2.4.3 2 .3 2s1.4 3.8 2.4 3.6c1.3-.2-.1-6.1-.1-6.1l-2.6.5zm-38-.5s-1.4 5.8-.1 6.1c1 .2 2.4-3.6 2.4-3.6s3.1.4.3-2l-2.6-.5z"/><g id="Layer_7_5_"><path class="st3" d="M820.1 613c.7 0 2.5-1.2 3.5-2.5l.8-1.4v-.1c-.2-1-.2-2-.1-3-.1.1-.3.3-.5.4l-.2.2c-.9.8-1.7 1.1-2.6 1.1-.9 0-1.7-.3-2.6-1.1l-.2-.2c-.7-.6-1.3-1.2-1.8-1.9v.2c.2 1.5 0 3-.5 4.4l.7 1.3c.9 1.3 2.8 2.6 3.5 2.6z"/><path class="st3" d="M818.1 606.4l.2.2c.9.8 1.7 1.1 2.6 1.1.9 0 1.7-.3 2.6-1.1l.2-.2c.2-.1.3-.3.5-.4.9-.9 1.7-1.9 2.1-3.1.5-1.5.5-3.3.2-4.9-.2-.8-.5-1.6-.7-2.4-.2-.7-.6-1.4-.7-2.2.1.7-1.8 1.5-2.3 1.9-.6.4-1.2.6-1.9 1-.1 0-2.1 1.4-3.1 2-1.2.7-2.7 1.1-3.7 2 .1.7.5 1.9 1.1 1.9.2 0 .3.3.4.5.1.7.4 1.3.8 1.8.5.7 1.1 1.3 1.7 1.9z"/><path class="st8" d="M821.8 615.5l-.5-.6-.4.8c-.1.2-.1.4-.1.6l.7 3.4.5-1.5.5-1.5-.3-.5c-.1-.4-.3-.5-.4-.7zm-3.8.5l-.3.5.5 1.5.5 1.5.7-3.4c0-.2 0-.4-.1-.6l-.4-.8-.5.6c-.2.4-.3.5-.4.7z"/><path class="st23" d="M821.5 619.5l-.7-3.4c0-.2 0-.4.1-.6l.4-.8-1.2-1.5-1.2 1.5.4.8c.1.2.1.4.1.6l-.7 3.4.9 3h1l.9-3z"/><path class="st3" d="M824.4 609.1l-.8 1.4c-1 1.3-2.8 2.5-3.5 2.5s-2.6-1.3-3.5-2.5l-.7-1.3v-.1l-.3 1 2.2 6.5.3-.5c.1-.2.3-.4.4-.6l.5-.6 1.2-1.5 1.2 1.5.5.6c.2.2.3.4.4.6l.3.5 2.2-6.5-.4-1z"/><path class="st3" d="M826.7 618.3l-1.6-2.9 2.2.2c-.2-.6-.6-3.3-1.1-4.2-.1-.1-.1-.2-.3-.3l-1.2-1-2.2 6.5-.5 1.5-.5 1.5-2.7 11.2 7.9-12.5z"/><path class="st3" d="M820.3 624.7l-1.6-5.1-.5-1.5-.5-1.5-2.2-6.5-1 .8-.2.2c-.7.3-1.2 3.8-1.4 4.5l2.2-.2-1.6 2.9c-.1.1 4.7 7.3 6.1 9.4l.7-3z"/><path class="st10" d="M823.3 599.1c.6-.3 1.4-.3 2 0m-7.5 0c.6-.3 1.4-.3 2 0"/><circle class="st6" cx="824.2" cy="600.3" r=".5"/><circle class="st6" cx="819.1" cy="600.3" r=".5"/><path class="st10" d="M819.5 604.3s1.7 1.7 3.5.2m-1-4.7c-.1.5-.1 1 0 1.5.1.4.2.8.3 1.1.1.2.1.4 0 .6-.1.2-.3.3-.5.2"/></g></g><linearGradient id="SVGID_11_" gradientUnits="userSpaceOnUse" x1="650" y1="690.061" x2="785.2" y2="690.061" gradientTransform="translate(0 -80)"><stop offset=".001" stop-color="#fff" stop-opacity=".5"/><stop offset="1" stop-color="#ccc"/></linearGradient><path fill="url(#SVGID_11_)" d="M758.9 644.1h26.3l-6.7-11.1-125.2-56.9-3.3 2.6z"/><g id="Layer_8_6_"><path class="st3" d="M776 539.3v.2c0 .1-.1.1-.2.2-.8.6-1.6 1.2-2.5 1.6-.5.3-1.2.5-1.7.3-.3-.2-.6-.5-.7-.8l-.8-1.4c.5-.3.6-.9.6-1.5v-2.2c1.3-.7 2.8-1.1 4.3-1.1.5 0 .8.1.7.6s-.1.9-.1 1.4c.1.9.2 1.8.4 2.7z"/><path class="st4" d="M769.7 638.7v5.3h-.8l-.6-2.2-1.4 2.2h-7.8c3-.6 5.6-2.6 7-5.3h3.6zm5.1 0v5.3h.8l.6-2.2 1.4 2.2h7.8c-3-.6-5.6-2.6-7-5.3h-3.6z"/><path class="st5" d="M774.6 638.7h3.3s6.7-47.1 6.2-58c-.3-6.9-4.2-10.5-4.2-10.5h-15.2s-3.8 3.6-4.2 10.5c-.5 10.9 6.2 58 6.2 58h3.3s1-56.9 2.4-56.3c-.1 0 2.9 22.1 2.2 56.3z"/><path class="st6" d="M762.5 538.4c.9-.2 1.8-.2 2.8-.6.1-.1.8-.5 1.4-.9l1-.8.3-1v.1c.5-1.4.7-2.9.5-4.4v-.2c-.4-.5-.6-1.2-.8-1.8 0-.2-.1-.5-.4-.5-.7 0-1-1.2-1.1-1.9 1.1-.9 2.5-1.4 3.7-2 1-.6 3.1-2 3.1-2 .7-.3 1.3-.6 1.9-1 .5-.3 2.4-1.2 2.3-1.9.1.8.5 1.4.7 2.2s.6 1.6.7 2.4c.3 1.6.3 3.4-.2 4.9-.4 1.2-1.2 2.2-2.1 3.1-.1 1-.1 2 .1 3v.1l.3 1 1.2 1 .3.3c1.5.6 3.5 1 3.8 1.1 1.3.4 2.4.8 3.2 1.4-.4-1.9-.9-3.9-1.5-5.8-.5-1.8-1.1-3.6-1.6-5.3s-.2-3.1-.4-4.8c-.5-5-3-8.7-8.1-9.5-4.7-.7-8.6 3.2-9.3 7.7-.1.5-.1 1.1-.1 1.7 0 1.5.1 3-.2 4.6-.4 2.2-.9 4.4-1.7 6.6-.4 1-1.2 2.5-2 4.1.1-.1.2-.1.4-.2.8-.5 1.3-.6 1.8-.7z"/><path class="st8" d="M754.6 571.5l7.1-21.3s-.5-1.4 2.4 11.3c.8 3.6-1.5 9.6-2.1 12.9 0 0 12.8 4.3 20.4-.5-1.1-1.4-2.8-6.6-2.7-11.7.1-3.9 1.8-7.7 2.4-10.2l.6-2.3 7 21.9 3.2-.4c-3.6-23.2-7.3-31.1-7.3-31.1-2.2-1.2-8.5-3.8-8.5-3.8-1.7 1.2-3.7.9-5.6.1-1.3-1.1-10.7 1.7-12 3.2-3.8 11.2-7.4 31.7-7.4 31.7l2.5.2z"/><path class="st10" d="M763.7 551.5s2.1 4.3 7 2m10.8-2s-2.1 4.3-7 2"/><path class="st3" d="M790 571.5c-2.9 2.4.3 2 .3 2s1.4 3.8 2.4 3.6c1.3-.2-.1-6.1-.1-6.1l-2.6.5zm-38-.5s-1.4 5.8-.1 6.1c1 .2 2.4-3.6 2.4-3.6s3.1.4.3-2l-2.6-.5z"/><g id="Layer_7_13_"><path class="st3" d="M772.4 539c.7 0 2.5-1.2 3.5-2.5l.8-1.4v-.1c-.2-1-.2-2-.1-3-.1.1-.3.3-.5.4l-.2.2c-.9.8-1.7 1.1-2.6 1.1-.9 0-1.7-.3-2.6-1.1l-.2-.2c-.7-.6-1.3-1.2-1.8-1.9v.2c.2 1.5 0 3-.5 4.4l.7 1.3c.9 1.3 2.8 2.6 3.5 2.6z"/><path class="st3" d="M770.4 532.4l.2.2c.9.8 1.7 1.1 2.6 1.1.9 0 1.7-.3 2.6-1.1l.2-.2c.2-.1.3-.3.5-.4.9-.9 1.7-1.9 2.1-3.1.5-1.5.5-3.3.2-4.9-.2-.8-.5-1.6-.7-2.4-.2-.7-.6-1.4-.7-2.2.1.7-1.8 1.5-2.3 1.9-.6.4-1.2.6-1.9 1-.1 0-2.1 1.4-3.1 2-1.2.7-2.7 1.1-3.7 2 .1.7.5 1.9 1.1 1.9.2 0 .3.3.4.5.1.7.4 1.3.8 1.8.5.7 1.1 1.4 1.7 1.9z"/><path class="st8" d="M774.1 541.5l-.5-.6-.4.8c-.1.2-.1.4-.1.6l.7 3.4.5-1.5.5-1.5-.3-.5c-.1-.3-.3-.5-.4-.7zm-3.8.6l-.3.5.5 1.5.5 1.5.7-3.4c0-.2 0-.4-.1-.6l-.4-.8-.5.6c-.2.3-.3.5-.4.7z"/><path class="st23" d="M773.8 545.5l-.7-3.4c0-.2 0-.4.1-.6l.4-.8-1.2-1.5-1.2 1.5.4.8c.1.2.1.4.1.6l-.7 3.4.9 3h1l.9-3z"/><path class="st3" d="M776.7 535.1l-.8 1.4c-1 1.3-2.8 2.5-3.5 2.5s-2.6-1.3-3.5-2.5l-.7-1.3v-.1l-.3 1 2.2 6.5.3-.5c.1-.2.3-.4.4-.6l.5-.6 1.2-1.5 1.2 1.5.5.6c.2.2.3.4.4.6l.3.5 2.2-6.5-.4-1z"/><path class="st3" d="M779 544.3l-1.6-2.9 2.2.2c-.2-.6-.6-3.3-1.1-4.2-.1-.1-.1-.2-.3-.3l-1.2-1-2.2 6.5-.5 1.5-.5 1.5-2.7 11.2 7.9-12.5z"/><path class="st3" d="M772.6 550.7l-1.6-5.1-.5-1.5-.5-1.5-2.2-6.5-1 .8-.2.2c-.7.3-1.2 3.8-1.4 4.5l2.2-.2-1.6 2.9c-.1.1 4.7 7.3 6.1 9.4l.7-3z"/><path class="st10" d="M775.6 525.1c.6-.3 1.4-.3 2 0m-7.5 0c.6-.3 1.4-.3 2 0"/><circle class="st6" cx="776.5" cy="526.3" r=".5"/><circle class="st6" cx="771.4" cy="526.3" r=".5"/><path class="st10" d="M771.8 530.3s1.7 1.7 3.5.2m-1-4.7c-.1.5-.1 1 0 1.5.1.4.2.8.3 1.1.1.2.1.4 0 .6-.1.2-.3.3-.5.2"/></g></g><linearGradient id="SVGID_12_" gradientUnits="userSpaceOnUse" x1="265.1" y1="785.76" x2="400.3" y2="785.76" gradientTransform="translate(0 -80)"><stop offset=".001" stop-color="#fff" stop-opacity=".5"/><stop offset="1" stop-color="#ccc"/></linearGradient><path fill="url(#SVGID_12_)" d="M374 739.8h26.3l-6.8-11.1-125.1-56.9-3.3 2.6z"/><g id="Layer_8_5_"><path class="st3" d="M391.1 635v.2c0 .1-.1.1-.2.2-.8.6-1.6 1.2-2.5 1.6-.5.3-1.2.5-1.7.3-.3-.2-.6-.5-.7-.8l-.8-1.4c.5-.3.6-.9.6-1.5v-2.2c1.3-.7 2.8-1.1 4.3-1.1.5 0 .8.1.7.6s-.1.9-.1 1.4c.1.9.2 1.8.4 2.7z"/><path class="st4" d="M384.7 734.4v5.3h-.8l-.6-2.2-1.4 2.2h-7.8c3-.6 5.6-2.6 7-5.3h3.6zm5.2 0v5.3h.8l.6-2.2 1.4 2.2h7.8c-3-.6-5.6-2.6-7-5.3h-3.6z"/><path class="st5" d="M389.7 734.4h3.3s6.7-47.1 6.2-58c-.3-6.9-4.2-10.5-4.2-10.5h-15.2s-3.8 3.6-4.2 10.5c-.5 10.9 6.2 58 6.2 58h3.3s1-56.9 2.4-56.3c-.2 0 2.9 22.1 2.2 56.3z"/><path class="st6" d="M377.5 634.1c.9-.2 1.8-.2 2.8-.6.1-.1.8-.5 1.4-.9l1-.8.3-1v.1c.5-1.4.7-2.9.5-4.4v-.2c-.4-.5-.6-1.2-.8-1.8 0-.2-.1-.5-.4-.5-.7 0-1-1.2-1.1-1.9 1.1-.9 2.5-1.4 3.7-2 1-.6 3.1-2 3.1-2 .7-.3 1.3-.6 1.9-1 .5-.3 2.4-1.2 2.3-1.9.1.8.5 1.4.7 2.2s.6 1.6.7 2.4c.3 1.6.3 3.4-.2 4.9-.4 1.2-1.2 2.2-2.1 3.1-.1 1-.1 2 .1 3v.1l.3 1 1.2 1 .3.3c1.5.6 3.5 1 3.8 1.1 1.3.4 2.4.8 3.2 1.4-.4-1.9-.9-3.9-1.5-5.8-.5-1.8-1.1-3.6-1.6-5.3s-.2-3.1-.4-4.8c-.5-5-3-8.7-8.1-9.5-4.7-.7-8.6 3.2-9.3 7.7-.1.5-.1 1.1-.1 1.7 0 1.5.1 3-.2 4.6-.4 2.2-.9 4.4-1.7 6.6-.4 1-1.2 2.5-2 4.1.1-.1.2-.1.4-.2.9-.5 1.4-.6 1.8-.7z"/><path class="st8" d="M369.6 667.2l7.1-21.3s-.5-1.4 2.4 11.3c.8 3.6-1.5 9.6-2.1 12.9 0 0 12.8 4.3 20.4-.5-1.1-1.4-2.8-6.6-2.7-11.7.1-3.9 1.8-7.7 2.4-10.2l.6-2.3 7 21.9 3.2-.4c-3.6-23.2-7.3-31.1-7.3-31.1-2.2-1.2-8.5-3.8-8.5-3.8-1.7 1.2-3.7.9-5.6.1-1.3-1.1-10.7 1.7-12 3.2-3.8 11.2-7.4 31.7-7.4 31.7l2.5.2z"/><path class="st10" d="M378.7 647.2s2.1 4.3 7 2m10.9-2s-2.1 4.3-7 2"/><path class="st3" d="M405 667.2c-2.9 2.4.3 2 .3 2s1.4 3.8 2.4 3.6c1.3-.2-.1-6.1-.1-6.1l-2.6.5zm-37.9-.5s-1.4 5.8-.1 6.1c1 .2 2.4-3.6 2.4-3.6s3.1.4.3-2l-2.6-.5z"/><g id="Layer_7_11_"><path class="st3" d="M387.4 634.7c.7 0 2.5-1.2 3.5-2.5l.8-1.4v-.1c-.2-1-.2-2-.1-3-.1.1-.3.3-.5.4l-.2.2c-.9.8-1.7 1.1-2.6 1.1s-1.7-.3-2.6-1.1l-.2-.2c-.7-.6-1.3-1.2-1.8-1.9v.2c.2 1.5 0 3-.5 4.4l.7 1.3c.9 1.3 2.9 2.6 3.5 2.6z"/><path class="st3" d="M385.5 628.1l.2.2c.9.8 1.7 1.1 2.6 1.1s1.7-.3 2.6-1.1l.2-.2c.2-.1.3-.3.5-.4.9-.9 1.7-1.9 2.1-3.1.5-1.5.5-3.3.2-4.9-.2-.8-.5-1.6-.7-2.4-.2-.7-.6-1.4-.7-2.2.1.7-1.8 1.5-2.3 1.9-.6.4-1.2.6-1.9 1-.1 0-2.1 1.4-3.1 2-1.2.7-2.7 1.1-3.7 2 .1.7.5 1.9 1.1 1.9.2 0 .3.3.4.5.1.7.4 1.3.8 1.8.4.7 1 1.4 1.7 1.9z"/><path class="st8" d="M389.1 637.2l-.5-.6-.4.8c-.1.2-.1.4-.1.6l.7 3.4.5-1.5.5-1.5-.3-.5c-.1-.3-.2-.5-.4-.7zm-3.8.6l-.3.5.5 1.5.5 1.5.7-3.4c0-.2 0-.4-.1-.6l-.4-.8-.5.6c-.1.3-.2.5-.4.7z"/><path class="st23" d="M388.9 641.2l-.7-3.4c0-.2 0-.4.1-.6l.4-.8-1.2-1.5-1.2 1.5.4.8c.1.2.1.4.1.6l-.7 3.4.9 3h1l.9-3z"/><path class="st3" d="M391.7 630.8l-.8 1.4c-1 1.3-2.8 2.5-3.5 2.5s-2.6-1.3-3.5-2.5l-.7-1.3v-.1l-.3 1 2.2 6.5.3-.5c.1-.2.3-.4.4-.6l.5-.6 1.2-1.5 1.2 1.5.5.6c.2.2.3.4.4.6l.3.5 2.2-6.5-.4-1zm2.4 9.2l-1.6-2.9 2.2.2c-.2-.6-.6-3.3-1.1-4.2-.1-.1-.1-.2-.3-.3l-1.2-1-2.2 6.5-.5 1.5-.5 1.5-2.7 11.2 7.9-12.5zm-6.5 6.4l-1.6-5.1-.5-1.5-.5-1.5-2.2-6.5-1 .8-.2.2c-.7.3-1.2 3.8-1.4 4.5l2.2-.2-1.6 2.9c-.1.1 4.7 7.3 6.1 9.4l.7-3z"/><path class="st10" d="M390.6 620.8c.6-.3 1.4-.3 2 0m-7.5 0c.6-.3 1.4-.3 2 0"/><circle class="st6" cx="391.5" cy="622" r=".5"/><circle class="st6" cx="386.4" cy="622" r=".5"/><path class="st10" d="M386.9 626s1.7 1.7 3.5.2m-1-4.7c-.1.5-.1 1 0 1.5.1.4.2.8.3 1.1.1.2.1.4 0 .6-.1.2-.3.3-.5.2"/></g></g><linearGradient id="SVGID_13_" gradientUnits="userSpaceOnUse" x1="658.6" y1="357.361" x2="793.8" y2="357.361" gradientTransform="translate(0 -80)"><stop offset=".001" stop-color="#fff" stop-opacity=".5"/><stop offset="1" stop-color="#ccc"/></linearGradient><path fill="url(#SVGID_13_)" d="M767.4 311.4h26.4l-6.8-11.1-125.2-56.9-3.2 2.6z"/><g id="Layer_8_4_"><path class="st3" d="M784.6 206.5v.2c0 .1-.1.1-.2.2-.8.6-1.6 1.2-2.5 1.6-.5.3-1.2.5-1.7.3-.3-.2-.6-.5-.7-.8l-.8-1.4c.5-.3.6-.9.6-1.5v-2.2c1.3-.7 2.8-1.1 4.3-1.1.5 0 .8.1.7.6s-.1.9-.1 1.4c0 1 .2 1.9.4 2.7z"/><path class="st4" d="M778.2 306v5.3h-.8l-.6-2.2-1.4 2.2h-7.8c3-.6 5.6-2.6 7-5.3h3.6zm5.2 0v5.3h.8l.6-2.2 1.4 2.2h7.8c-3-.6-5.6-2.6-7-5.3h-3.6z"/><path class="st5" d="M783.1 306h3.3s6.7-47.1 6.2-58c-.3-6.9-4.2-10.5-4.2-10.5h-15.2s-3.8 3.6-4.2 10.5c-.5 10.9 6.2 58 6.2 58h3.3s1-56.9 2.4-56.3c-.1 0 3 22.1 2.2 56.3z"/><path class="st6" d="M771 205.6c.9-.2 1.8-.2 2.8-.6.1-.1.8-.5 1.4-.9l1-.8.3-1v.1c.5-1.4.7-2.9.5-4.4v-.2c-.4-.5-.6-1.2-.8-1.8 0-.2-.1-.5-.4-.5-.7 0-1-1.2-1.1-1.9 1.1-.9 2.5-1.4 3.7-2 1-.6 3.1-2 3.1-2 .7-.3 1.3-.6 1.9-1 .5-.3 2.4-1.2 2.3-1.9.1.8.5 1.4.7 2.2.2.8.6 1.6.7 2.4.3 1.6.3 3.4-.2 4.9-.4 1.2-1.2 2.2-2.1 3.1-.1 1-.1 2 .1 3v.1l.3 1 1.2 1 .3.3c1.5.6 3.5 1 3.8 1.1 1.3.4 2.4.8 3.2 1.4-.4-1.9-.9-3.9-1.5-5.8-.5-1.8-1.1-3.6-1.6-5.3-.5-1.7-.2-3.1-.4-4.8-.5-5-3-8.7-8.1-9.5-4.7-.7-8.6 3.2-9.3 7.7-.1.5-.1 1.1-.1 1.7 0 1.5.1 3-.2 4.6-.4 2.2-.9 4.4-1.7 6.6-.4 1-1.2 2.5-2 4.1.1-.1.2-.1.4-.2.9-.4 1.3-.6 1.8-.7z"/><path class="st8" d="M763.1 238.7l7.1-21.3s-.5-1.4 2.4 11.3c.8 3.6-1.5 9.6-2.1 12.9 0 0 12.8 4.3 20.4-.5-1.1-1.4-2.8-6.6-2.7-11.7.1-3.9 1.8-7.7 2.4-10.2l.6-2.3 7 21.9 3.2-.4c-3.6-23.2-7.3-31.1-7.3-31.1-2.2-1.2-8.5-3.8-8.5-3.8-1.7 1.2-3.7.9-5.6.1-1.3-1.1-10.7 1.7-12 3.2-3.8 11.2-7.4 31.7-7.4 31.7l2.5.2z"/><path class="st10" d="M772.2 218.7s2.1 4.3 7 2m10.8-2s-2.1 4.3-7 2"/><path class="st3" d="M798.5 238.7c-2.9 2.4.3 2 .3 2s1.4 3.8 2.4 3.6c1.3-.2-.1-6.1-.1-6.1l-2.6.5zm-37.9-.4s-1.4 5.8-.1 6.1c1 .2 2.4-3.6 2.4-3.6s3.1.4.3-2l-2.6-.5z"/><g id="Layer_7_8_"><path class="st3" d="M780.9 206.3c.7 0 2.5-1.2 3.5-2.5l.8-1.4v-.1c-.2-1-.2-2-.1-3-.1.1-.3.3-.5.4l-.2.2c-.9.8-1.7 1.1-2.6 1.1-.9 0-1.7-.3-2.6-1.1l-.2-.2c-.7-.6-1.3-1.2-1.8-1.9v.2c.2 1.5 0 3-.5 4.4l.7 1.3c.9 1.3 2.8 2.5 3.5 2.6z"/><path class="st3" d="M779 199.7l.2.2c.9.8 1.7 1.1 2.6 1.1.9 0 1.7-.3 2.6-1.1l.2-.2c.2-.1.3-.3.5-.4.9-.9 1.7-1.9 2.1-3.1.5-1.5.5-3.3.2-4.9-.2-.8-.5-1.6-.7-2.4-.2-.7-.6-1.4-.7-2.2.1.7-1.8 1.5-2.3 1.9-.6.4-1.2.6-1.9 1-.1 0-2.1 1.4-3.1 2-1.2.7-2.7 1.1-3.7 2 .1.7.5 1.9 1.1 1.9.2 0 .3.3.4.5.1.7.4 1.3.8 1.8.4.7 1 1.3 1.7 1.9z"/><path class="st8" d="M782.6 208.8l-.5-.6-.4.8c-.1.2-.1.4-.1.6l.7 3.4.5-1.5.5-1.5-.3-.5c-.1-.4-.2-.6-.4-.7zm-3.8.5l-.3.5.5 1.5.5 1.5.7-3.4c0-.2 0-.4-.1-.6l-.4-.8-.5.6c-.1.3-.3.5-.4.7z"/><path class="st23" d="M782.4 212.8l-.7-3.4c0-.2 0-.4.1-.6l.4-.8-1.2-1.5-1.2 1.5.4.8c.1.2.1.4.1.6l-.8 3.4.9 3h1l1-3z"/><path class="st3" d="M785.2 202.3l-.8 1.4c-1 1.3-2.8 2.5-3.5 2.5s-2.6-1.3-3.5-2.5l-.7-1.3v-.1l-.3 1 2.2 6.5.3-.5c.1-.2.3-.4.4-.6l.5-.6 1.2-1.5 1.2 1.5.5.6c.2.2.3.4.4.6l.3.5 2.2-6.5-.4-1z"/><path class="st3" d="M787.6 211.5l-1.6-2.9 2.2.2c-.2-.6-.6-3.3-1.1-4.2-.1-.1-.1-.2-.3-.3l-1.2-1-2.2 6.5-.5 1.5-.5 1.5-2.7 11.2 7.9-12.5zm-6.5 6.4l-1.6-5.1-.5-1.5-.5-1.5-2.2-6.5-1 .8-.2.2c-.7.3-1.2 3.8-1.4 4.5l2.2-.2-1.6 2.9c-.1.1 4.7 7.3 6.1 9.4l.7-3z"/><path class="st10" d="M784.1 192.3c.6-.3 1.4-.3 2 0m-7.5 0c.6-.3 1.4-.3 2 0"/><circle class="st6" cx="785" cy="193.6" r=".5"/><circle class="st6" cx="779.9" cy="193.6" r=".5"/><path class="st10" d="M780.4 197.6s1.7 1.7 3.5.2m-1.1-4.7c-.1.5-.1 1 0 1.5.1.4.2.8.3 1.1.1.2.1.4 0 .6s-.3.3-.5.2"/></g></g><linearGradient id="SVGID_14_" gradientUnits="userSpaceOnUse" x1="50.8" y1="596.861" x2="186" y2="596.861" gradientTransform="translate(0 -80)"><stop offset=".001" stop-color="#fff" stop-opacity=".5"/><stop offset="1" stop-color="#ccc"/></linearGradient><path fill="url(#SVGID_14_)" d="M159.7 550.9H186l-6.8-11.1-125.1-56.9-3.3 2.7z"/><g id="Layer_8_3_"><path class="st3" d="M176.8 446.1v.2c0 .1-.1.1-.2.2-.8.6-1.6 1.2-2.5 1.6-.5.3-1.2.5-1.7.3-.3-.2-.6-.5-.7-.8l-.8-1.4c.5-.3.6-.9.6-1.5v-2.2c1.3-.7 2.8-1.1 4.3-1.1.5 0 .8.1.7.6s-.1.9-.1 1.4c.1.9.2 1.8.4 2.7z"/><path class="st4" d="M170.5 545.5v5.3h-.8l-.6-2.2-1.4 2.2h-7.8c3-.6 5.6-2.6 7-5.3h3.6zm5.1 0v5.3h.8l.6-2.2 1.4 2.2h7.8c-3-.6-5.6-2.6-7-5.3h-3.6z"/><path class="st5" d="M175.4 545.5h3.3s6.7-47.1 6.2-58c-.3-6.9-4.2-10.5-4.2-10.5h-15.2s-3.8 3.6-4.2 10.5c-.5 10.9 6.2 58 6.2 58h3.3s1-56.9 2.4-56.3c-.2.1 2.9 22.1 2.2 56.3z"/><path class="st6" d="M163.2 445.2c.9-.2 1.8-.2 2.8-.6.1-.1.8-.5 1.4-.9l1-.8.3-1v.1c.5-1.4.7-2.9.5-4.4v-.2c-.4-.5-.6-1.2-.8-1.8 0-.2-.1-.5-.4-.5-.7 0-1-1.2-1.1-1.9 1.1-.9 2.5-1.4 3.7-2 1-.6 3.1-2 3.1-2 .7-.3 1.3-.6 1.9-1 .5-.3 2.4-1.2 2.3-1.9.1.8.5 1.4.7 2.2s.6 1.6.7 2.4c.3 1.6.3 3.4-.2 4.9-.4 1.2-1.2 2.2-2.1 3.1-.1 1-.1 2 .1 3v.1l.3 1 1.2 1 .3.3c1.5.6 3.5 1 3.8 1.1 1.3.4 2.4.8 3.2 1.4-.4-1.9-.9-3.9-1.5-5.8-.5-1.8-1.1-3.6-1.6-5.3s-.2-3.1-.4-4.8c-.5-5-3-8.7-8.1-9.5-4.7-.7-8.6 3.2-9.3 7.7-.1.5-.1 1.1-.1 1.7 0 1.5.1 3-.2 4.6-.4 2.2-.9 4.4-1.7 6.6-.4 1-1.2 2.5-2 4.1.1-.1.2-.1.4-.2.9-.5 1.4-.6 1.8-.7z"/><path class="st8" d="M155.4 478.3l7.1-21.3s-.5-1.4 2.4 11.3c.8 3.6-1.5 9.6-2.1 12.9 0 0 12.8 4.3 20.4-.5-1.1-1.4-2.8-6.6-2.7-11.7.1-3.9 1.8-7.7 2.4-10.2l.6-2.3 7 21.9 3.2-.4c-3.6-23.2-7.3-31.1-7.3-31.1-2.2-1.2-8.5-3.8-8.5-3.8-1.7 1.2-3.7.9-5.6.1-1.3-1.1-10.7 1.7-12 3.2-3.8 11.2-7.4 31.7-7.4 31.7l2.5.2z"/><path class="st10" d="M164.4 458.3s2.1 4.3 7 2m10.9-2s-2.1 4.3-7 2"/><path class="st3" d="M190.7 478.3c-2.9 2.4.3 2 .3 2s1.4 3.8 2.4 3.6c1.3-.2-.1-6.1-.1-6.1l-2.6.5zm-37.9-.4s-1.4 5.8-.1 6.1c1 .2 2.4-3.6 2.4-3.6s3.1.4.3-2l-2.6-.5z"/><g id="Layer_7_6_"><path class="st3" d="M173.2 445.8c.7 0 2.5-1.2 3.5-2.5l.8-1.4v-.1c-.2-1-.2-2-.1-3-.1.1-.3.3-.5.4l-.2.2c-.9.8-1.7 1.1-2.6 1.1-.9 0-1.7-.3-2.6-1.1l-.2-.2c-.7-.6-1.3-1.2-1.8-1.9v.2c.2 1.5 0 3-.5 4.4l.7 1.3c.8 1.4 2.8 2.6 3.5 2.6z"/><path class="st3" d="M171.2 439.3l.2.2c.9.8 1.7 1.1 2.6 1.1.9 0 1.7-.3 2.6-1.1l.2-.2c.2-.1.3-.3.5-.4.9-.9 1.7-1.9 2.1-3.1.5-1.5.5-3.3.2-4.9-.2-.8-.5-1.6-.7-2.4-.2-.7-.6-1.4-.7-2.2.1.7-1.8 1.5-2.3 1.9-.6.4-1.2.6-1.9 1-.1 0-2.1 1.4-3.1 2-1.2.7-2.7 1.1-3.7 2 .1.7.5 1.9 1.1 1.9.2 0 .3.3.4.5.1.7.4 1.3.8 1.8.4.6 1 1.3 1.7 1.9z"/><path class="st8" d="M174.9 448.3l-.5-.6-.4.8c-.1.2-.1.4-.1.6l.7 3.4.5-1.5.5-1.5-.3-.5c-.2-.3-.3-.5-.4-.7zm-3.9.6l-.3.5.5 1.5.5 1.5.7-3.4c0-.2 0-.4-.1-.6l-.4-.8-.5.6c-.1.3-.2.5-.4.7z"/><path class="st23" d="M174.6 452.4l-.7-3.4c0-.2 0-.4.1-.6l.4-.8-1.2-1.5-1.2 1.5.4.8c.1.2.1.4.1.6l-.7 3.4.9 3h1l.9-3z"/><path class="st3" d="M177.4 441.9l-.8 1.4c-1 1.3-2.8 2.5-3.5 2.5s-2.6-1.3-3.5-2.5l-.7-1.3v-.1l-.3 1 2.2 6.5.3-.5c.1-.2.3-.4.4-.6l.5-.6 1.2-1.5 1.2 1.5.5.6c.2.2.3.4.4.6l.3.5 2.2-6.5-.4-1zm2.4 9.2l-1.6-2.9 2.2.2c-.2-.6-.6-3.3-1.1-4.2-.1-.1-.1-.2-.3-.3l-1.2-1-2.2 6.5-.5 1.5-.5 1.5-2.7 11.2 7.9-12.5zm-6.5 6.4l-1.6-5.1-.5-1.5-.5-1.5-2.2-6.5-1 .8-.2.2c-.7.3-1.2 3.8-1.4 4.5l2.2-.2-1.6 2.9c-.1.1 4.7 7.3 6.1 9.4l.7-3z"/><path class="st10" d="M176.3 431.9c.6-.3 1.4-.3 2 0m-7.5 0c.6-.3 1.4-.3 2 0"/><circle class="st6" cx="177.2" cy="433.1" r=".5"/><circle class="st6" cx="172.1" cy="433.1" r=".5"/><path class="st10" d="M172.6 437.2s1.7 1.7 3.5.2m-1-4.7c-.1.5-.1 1 0 1.5.1.4.2.8.3 1.1.1.2.1.4 0 .6-.1.2-.3.3-.5.2"/></g></g><linearGradient id="SVGID_15_" gradientUnits="userSpaceOnUse" x1="575.8" y1="202.46" x2="695.9" y2="202.46" gradientTransform="translate(0 -80)"><stop offset=".001" stop-color="#fff" stop-opacity=".5"/><stop offset="1" stop-color="#ccc"/></linearGradient><path fill="url(#SVGID_15_)" d="M672.5 152.7h23.4l-6-9.8-111.2-50.6-2.9 2.3z"/><g id="Layer_8_8_"><path class="st3" d="M687.7 59.6v.2c0 .1-.1.1-.1.2-.7.6-1.4 1.1-2.2 1.5-.5.2-1 .5-1.5.2-.3-.2-.5-.4-.6-.7l-.7-1.2c.5-.2.5-.8.6-1.3v-2c1.2-.7 2.5-1 3.9-1 .5 0 .7.1.6.6 0 .5-.1.8-.1 1.2-.2.7-.1 1.5.1 2.3z"/><path class="st4" d="M682.1 147.9v4.7h-.7l-.5-2-1.2 2h-7c2.7-.6 5-2.3 6.2-4.7h3.2zm4.6 0v4.7h.7l.5-2 1.2 2h7c-2.7-.6-5-2.3-6.2-4.7h-3.2z"/><path class="st5" d="M686.5 147.9h2.9s6-41.8 5.5-51.5c-.3-6.1-3.7-9.3-3.7-9.3h-13.5s-3.4 3.2-3.7 9.3c-.5 9.7 5.5 51.5 5.5 51.5h2.9s.9-50.5 2.1-50c-.1 0 2.6 19.6 2 50z"/><path class="st6" d="M675.7 58.8c.8-.2 1.6-.2 2.5-.5.1 0 .7-.4 1.3-.8l.9-.7.3-.9v.1c.5-1.3.6-2.6.4-3.9v-.2c-.3-.5-.6-1-.7-1.6 0-.2-.1-.4-.3-.4-.6 0-.9-1.1-1-1.7 1-.8 2.3-1.2 3.3-1.8.9-.5 2.7-1.8 2.8-1.8.6-.3 1.2-.5 1.7-.9.4-.3 2.1-1.1 2-1.7.1.7.4 1.3.6 1.9.2.7.5 1.4.6 2.2.3 1.4.3 3-.2 4.4-.4 1.1-1.1 2-1.9 2.7-.1.9-.1 1.8.1 2.7v.1l.3.9 1.1.9c.1.1.2.2.2.3 1.3.5 3.2.9 3.4 1 1.2.3 2.1.7 2.8 1.3-.4-1.7-.8-3.4-1.3-5.1-.4-1.6-1-3.2-1.4-4.7s-.2-2.7-.3-4.3c-.4-4.5-2.7-7.8-7.2-8.5-4.2-.7-7.7 2.8-8.2 6.8-.1.5-.1 1-.1 1.5 0 1.3.1 2.7-.2 4.1-.3 2-.8 3.9-1.5 5.8-.3.9-1.1 2.3-1.7 3.7.1-.1.2-.1.3-.2.5-.5 1-.7 1.4-.7z"/><path class="st8" d="M668.7 88.2l6.3-19s-.5-1.2 2.1 10c.7 3.2-1.3 8.5-1.9 11.5 0 0 11.4 3.8 18.1-.5-1-1.3-2.5-5.9-2.4-10.4.1-3.5 1.6-6.8 2.2-9l.5-2.1 6.2 19.4 2.8-.4c-3.2-20.6-6.5-27.7-6.5-27.7-1.9-1.1-7.5-3.4-7.5-3.4-1.5 1.1-3.2.8-5 .1-1.2-.9-9.5 1.5-10.7 2.8-3.4 9.9-6.5 28.1-6.5 28.1l2.3.6z"/><path class="st10" d="M676.7 70.4s1.8 3.8 6.2 1.7m9.7-1.7s-1.8 3.8-6.2 1.7"/><path class="st3" d="M700.1 88.2c-2.6 2.1.2 1.8.2 1.8s1.3 3.4 2.1 3.2c1.2-.2-.1-5.4-.1-5.4l-2.2.4zm-33.7-.4s-1.2 5.2-.1 5.4c.9.2 2.1-3.2 2.1-3.2s2.8.4.2-1.8l-2.2-.4z"/><g id="Layer_7_16_"><path class="st3" d="M684.5 59.3c.6 0 2.2-1.1 3.1-2.2l.7-1.2v-.1c-.2-.9-.2-1.8-.1-2.7l-.4.4-.2.2c-.8.7-1.6 1-2.3 1-.8 0-1.5-.3-2.3-1l-.2-.2c-.6-.5-1.1-1.1-1.6-1.7v.2c.2 1.3 0 2.7-.4 3.9l.7 1.2c.7 1.1 2.4 2.2 3 2.2z"/><path class="st3" d="M682.8 53.5l.2.2c.8.7 1.6 1 2.3 1 .8 0 1.5-.3 2.3-1l.2-.2c.1-.1.3-.2.4-.4.8-.8 1.5-1.7 1.9-2.7.5-1.4.4-3 .2-4.4-.1-.7-.4-1.4-.6-2.2-.2-.6-.5-1.2-.6-1.9.1.6-1.6 1.4-2 1.7-.5.4-1.1.6-1.7.9-.1 0-1.9 1.3-2.8 1.8-1.1.6-2.4 1-3.3 1.8.1.6.4 1.7 1 1.7.2 0 .3.2.3.4.1.6.3 1.1.7 1.6.3.6.9 1.2 1.5 1.7z"/><path class="st8" d="M686 61.6l-.5-.6-.4.7c-.1.2-.1.3-.1.5l.7 3 .4-1.4.4-1.3-.3-.4c.1-.2-.1-.4-.2-.5zm-3.4.5l-.3.4.4 1.3.4 1.4.7-3c0-.2 0-.3-.1-.5l-.4-.7-.5.6c0 .1-.1.3-.2.5z"/><path class="st23" d="M685.8 65.1l-.7-3c0-.2 0-.3.1-.5l.4-.7-1.1-1.3-1.1 1.3.4.7c.1.1.1.3.1.5l-.7 3 .8 2.7h.9l.9-2.7z"/><path class="st3" d="M688.3 55.9l-.7 1.2c-.9 1.2-2.5 2.2-3.1 2.2s-2.3-1.1-3.1-2.2l-.7-1.2v-.1l-.3.9 1.9 5.8.3-.4c.1-.2.2-.3.4-.5l.5-.6 1.1-1.3 1.1 1.3.5.6c.1.2.3.3.4.5l.3.4 1.9-5.8-.5-.8z"/><path class="st3" d="M690.4 64l-1.5-2.6 2 .2c-.2-.5-.5-2.9-1-3.8-.1-.1-.1-.2-.2-.3l-1.1-.9-1.9 5.8-.4 1.3-.4 1.4-2.4 9.9 6.9-11z"/><path class="st3" d="M684.7 69.7l-1.4-4.6-.4-1.4-.4-1.3-1.9-5.8-.9.7-.2.1c-.6.3-1 3.4-1.2 4l2-.2-1.5 2.6c-.1.1 4.2 6.5 5.4 8.4l.5-2.5z"/><path class="st10" d="M687.3 47c.6-.3 1.2-.3 1.8 0m-6.7 0c.6-.3 1.2-.3 1.8 0"/><circle class="st6" cx="688.1" cy="48.1" r=".5"/><circle class="st6" cx="683.6" cy="48.1" r=".5"/><path class="st10" d="M684 51.6s1.5 1.5 3.1.1m-.9-4.1c-.1.4-.1.9 0 1.4.1.3.2.7.2 1 .1.2.1.3 0 .5s-.3.3-.4.2"/></g></g><linearGradient id="SVGID_16_" gradientUnits="userSpaceOnUse" x1="322.4" y1="183.411" x2="449.5" y2="183.411" gradientTransform="translate(0 -80)"><stop offset=".001" stop-color="#fff" stop-opacity=".5"/><stop offset="1" stop-color="#ccc"/></linearGradient><path fill="url(#SVGID_16_)" d="M424.8 135.4h24.7l-6.3-10.4-117.7-53.5-3.1 2.4z"/><g id="Layer_8_7_"><path class="st3" d="M440.9 36.8v.2c0 .1-.1.1-.1.2-.7.6-1.5 1.1-2.3 1.5-.5.3-1.1.5-1.6.2-.3-.2-.5-.4-.7-.8l-.8-1.3c.5-.2.6-.9.6-1.4v-2.1c1.2-.7 2.6-1.1 4.1-1.1.5 0 .7.1.7.6-.1.5-.1.9-.1 1.3-.1 1.1 0 1.9.2 2.7z"/><path class="st4" d="M434.9 130.3v5h-.7l-.5-2.1-1.3 2.1H425c2.8-.6 5.2-2.4 6.6-5h3.3zm4.8 0v5h.7l.5-2.1 1.3 2.1h7.4c-2.8-.6-5.3-2.4-6.6-5h-3.3z"/><path class="st5" d="M439.5 130.3h3.1s6.3-44.3 5.8-54.5c-.3-6.5-3.9-9.9-3.9-9.9h-14.3s-3.6 3.4-3.9 9.9c-.5 10.3 5.8 54.5 5.8 54.5h3.1s1-53.5 2.2-52.9c-.1 0 2.8 20.8 2.1 52.9z"/><path class="st6" d="M428.1 36c.9-.2 1.7-.2 2.7-.6.1-.1.8-.4 1.3-.8l1-.8.3-.9v.1c.5-1.3.6-2.8.4-4.2v-.2c-.4-.5-.6-1.1-.7-1.7 0-.2-.1-.4-.3-.4-.6 0-.9-1.2-1.1-1.8 1-.8 2.4-1.3 3.5-1.9 1-.5 2.9-1.9 2.9-1.9.6-.3 1.3-.5 1.8-.9.5-.3 2.2-1.1 2.2-1.8.1.7.4 1.3.6 2 .2.8.5 1.5.7 2.3.3 1.5.3 3.2-.2 4.6-.4 1.1-1.1 2.1-2 2.9-.1.9-.1 1.9.1 2.8v.1l.3.9 1.2.9c.1.1.2.2.2.3 1.4.5 3.3 1 3.5 1 1.3.4 2.2.7 3 1.3-.4-1.8-.9-3.6-1.4-5.4-.5-1.7-1-3.3-1.5-5-.5-1.6-.2-2.9-.3-4.5-.5-4.7-2.9-8.2-7.6-9-4.5-.7-8.1 3-8.7 7.2-.1.5-.1 1-.1 1.6 0 1.4.1 2.8-.2 4.3-.3 2.1-.9 4.2-1.6 6.2-.4 1-1.1 2.4-1.8 3.9.1-.1.2-.1.3-.2.6-.2 1.1-.3 1.5-.4z"/><path class="st8" d="M420.7 67.1l6.7-20.1s-.5-1.3 2.3 10.6c.8 3.3-1.4 9-2 12.1 0 0 12.1 4.1 19.1-.5-1-1.4-2.7-6.2-2.5-11 .1-3.7 1.7-7.2 2.3-9.5l.5-2.2 6.6 20.6 3-.4c-3.4-21.8-6.9-29.3-6.9-29.3-2-1.2-7.9-3.6-7.9-3.6-1.6 1.2-3.4.8-5.3.1-1.3-1-10.1 1.6-11.3 3-3.6 10.5-6.9 29.8-6.9 29.8l2.3.4z"/><path class="st10" d="M429.2 48.3s2 4.1 6.6 1.8m10.2-1.8s-2 4.1-6.6 1.8"/><path class="st3" d="M454 67.1c-2.7 2.2.2 1.9.2 1.9s1.3 3.6 2.3 3.4c1.2-.2-.1-5.7-.1-5.7l-2.4.4zm-35.7-.4s-1.3 5.5-.1 5.7c.9.2 2.3-3.4 2.3-3.4s3 .4.2-1.9l-2.4-.4z"/><g id="Layer_7_15_"><path class="st3" d="M437.4 36.6c.6 0 2.4-1.1 3.3-2.4l.7-1.3v-.1c-.2-.9-.2-1.9-.1-2.8l-.4.4-.2.2c-.8.7-1.6 1.1-2.5 1.1-.8 0-1.6-.3-2.5-1.1l-.2-.2c-.6-.5-1.2-1.1-1.7-1.8v.2c.2 1.4 0 2.8-.5 4.2l.7 1.3c1 1.1 2.8 2.3 3.4 2.3z"/><path class="st3" d="M435.6 30.4l.2.2c.8.7 1.6 1.1 2.5 1.1.8 0 1.6-.3 2.5-1.1l.2-.2.4-.4c.9-.8 1.6-1.8 2-2.9.5-1.4.5-3.1.2-4.6-.2-.8-.5-1.5-.7-2.3-.2-.7-.6-1.3-.6-2 .1.6-1.7 1.5-2.2 1.8-.5.4-1.2.6-1.8.9-.1 0-2 1.3-2.9 1.9-1.1.6-2.5 1.1-3.5 1.9.1.7.4 1.8 1.1 1.8.2 0 .3.2.3.4.1.6.4 1.2.7 1.7.4.7 1 1.3 1.6 1.8z"/><path class="st8" d="M439 38.9l-.5-.6-.4.7c-.1.2-.1.3-.1.5l.7 3.2.4-1.4.5-1.4-.3-.5c0-.1-.1-.3-.3-.5zm-3.5.6l-.3.5.5 1.4.4 1.4.7-3.2c0-.2 0-.4-.1-.5l-.4-.7-.5.6c-.1.1-.2.3-.3.5z"/><path class="st23" d="M438.8 42.7l-.7-3.2c0-.2 0-.4.1-.5l.4-.7-1.1-1.4-1.1 1.4.4.7c.1.2.1.3.1.5l-.7 3.2.9 2.9h1l.7-2.9z"/><path class="st3" d="M441.4 32.9l-.7 1.3c-.9 1.2-2.6 2.3-3.3 2.4-.6 0-2.4-1.2-3.3-2.4l-.7-1.3v-.1l-.3.9 2.1 6.1.3-.5c.1-.2.2-.4.4-.5l.5-.6 1.1-1.4 1.1 1.4.5.6c.1.2.3.3.4.5l.3.5 2.1-6.1-.5-.8z"/><path class="st3" d="M443.7 41.5l-1.5-2.8 2.1.2c-.2-.6-.6-3.1-1.1-4-.1-.1-.1-.2-.2-.3l-1.2-.9-2.1 6.1-.5 1.4-.4 1.4-2.5 10.5 7.4-11.6zm-6.1 6l-1.5-4.8-.4-1.4-.5-1.4-2.1-6.1-1 .8-.2.1c-.6.3-1.1 3.6-1.3 4.3l2.1-.2-1.5 2.8c-.1.1 4.4 6.9 5.7 8.8l.7-2.9z"/><path class="st10" d="M440.4 23.5c.6-.3 1.3-.3 1.9 0m-7.1 0c.6-.3 1.3-.3 1.9 0"/><circle class="st6" cx="441.3" cy="24.7" r=".5"/><circle class="st6" cx="436.5" cy="24.7" r=".5"/><path class="st10" d="M436.9 28.4s1.6 1.6 3.3.2m-1-4.4c-.1.5-.1 1 0 1.4s.2.7.3 1.1c.1.2.1.4 0 .5-.1.2-.3.3-.4.2"/></g></g><path class="st38" d="M472.9 198.4c49.6 0 96.2 19.3 131.3 54.4 35.1 35.1 54.4 81.7 54.4 131.3s-19.3 96.2-54.4 131.3c-35.1 35.1-81.7 54.4-131.3 54.4s-96.2-19.3-131.3-54.4c-35.1-35.1-54.4-81.7-54.4-131.3s19.4-96.3 54.4-131.3c35.1-35.1 81.7-54.4 131.3-54.4m0-20c-113.6 0-205.7 92.1-205.7 205.7s92.1 205.7 205.7 205.7 205.7-92.1 205.7-205.7-92.1-205.7-205.7-205.7z"/><path fill="#9b9b9b" stroke="#000" stroke-width=".5" stroke-miterlimit="10" d="M219.351 556.672l61.215-48.828 26.44 33.149-61.214 48.828z"/><path class="st38" d="M265.9 500.7l13.1-10.4c5.2-4.1 12.7-3.3 16.9 1.9l29.1 36.4c4.1 5.2 3.3 12.7-1.9 16.9L310 555.9c-5.2 4.1-12.7 3.3-16.9-1.9L264 517.6c-4.1-5.2-3.3-12.8 1.9-16.9z"/><path class="st9" d="M105.4 706.6l-32-40.1c-4.8-6.1-3.8-14.9 2.2-19.7l132.6-105.7c6.1-4.8 14.9-3.8 19.7 2.2l32 40.1c4.8 6.1 3.8 14.9-2.2 19.7L125.1 708.8c-6 4.8-14.9 3.9-19.7-2.2z"/><path class="st23" d="M105.4 706.6l-32-40.1c-4.8-6.1-3.8-14.9 2.2-19.7l11.5-9.2 49.5 62-11.5 9.2c-6 4.8-14.9 3.9-19.7-2.2z"/></svg>