<svg xmlns="http://www.w3.org/2000/svg" viewBox="0 0 543.95 393.84"><defs><style>.cls-4,.cls-6,.cls-7{stroke:#000;stroke-miterlimit:10;stroke-width:.5px}.cls-4{fill:#eb058c}.cls-6{fill:#0077bf}.cls-7{fill:#ffe600}</style><clipPath id="clip-path"><path fill="none" d="M211.3 111.92h154.06v137.67H211.3z"/></clipPath></defs><g id="Layer_3" data-name="Layer 3"><path d="M304 47.36S353.43-41 456.58 23.67c0 0 130.31 63.66 72.65 216.8 0 0-20.34 70.71-119.09 129.78 0 0-87.74 41-169.73 14.91 0 0-142.5-43.24-206.28-150.68 0 0-98.39-123.36 38.95-164.82 0 0 48.65-10.07 97.14 26.72-.06.01 71.06 61.26 133.78-49.02z" fill="#f5f5f5" id="Layer_4" data-name="Layer 4"/></g><g id="Layer_8_copy" data-name="Layer 8 copy"><path d="M336.35 186s10.65-55.75 58.56-55.75 71.87 92.91 103.82 92.91c0 0-8.65 17.92-32.61 9.29 0 0 8.65 12.61 19.3 13.27S377 287.56 341.68 209.91M232.12 186s-10.65-55.75-58.56-55.75-71.87 92.91-103.82 92.91c0 0 8.65 17.92 32.61 9.29 0 0-8.65 12.61-19.3 13.27s108.48 41.81 143.75-35.84" stroke="#000" stroke-miterlimit="10" stroke-width=".5" fill="#fff"/><path class="cls-4" d="M223.32 129.05h120.17a12.05 12.05 0 0 1 12 12v14.42a12.05 12.05 0 0 1-12 12H223.32a12.05 12.05 0 0 1-12-12v-14.4a12.05 12.05 0 0 1 12-12zm0 0"/><g clip-path="url(#clip-path)"><path class="cls-6" d="M231.84 151c23.23-8.27 86-31.27 86-31.27a4.86 4.86 0 0 1 6.21 2.83l16.32 44.95a4.75 4.75 0 0 1-2.93 6.07l-95.54 34.08a4.86 4.86 0 0 1-6.21-2.83s-4.19-14.68-8.77-27.22c4.8-26.61 3.34-17.84 4.92-26.59zm0 0"/></g><path class="cls-4" d="M348.29 249.22h-125a12.05 12.05 0 0 1-12-12v-86.54h137a12.05 12.05 0 0 1 12 12v74.51a12.05 12.05 0 0 1-12 12zm-127.38-98.54h-9.61v-9.61a9.64 9.64 0 0 0 9.61 9.61zm0 0"/><path class="cls-7" d="M360.31 219.18h-19.23a16.82 16.82 0 0 1 0-33.65h19.23a4.82 4.82 0 0 1 4.81 4.81v24a4.82 4.82 0 0 1-4.81 4.81zm0 0"/><path class="cls-6" d="M341.08 192.74a9.61 9.61 0 1 1-9.61 9.61 9.64 9.64 0 0 1 9.61-9.61zm0 0"/><path class="cls-7" d="M348.29 150.68H220.91a9.64 9.64 0 0 1-9.61-9.61v4.81a9.64 9.64 0 0 0 9.61 9.61h127.38a12.05 12.05 0 0 1 12 12v-4.79a12.05 12.05 0 0 0-12-12zm0 93.74h-125a12.05 12.05 0 0 1-12-12v4.81a12.05 12.05 0 0 0 12 12h125a12.05 12.05 0 0 0 12-12v-4.83a12.05 12.05 0 0 1-12 12zM288.74 90.83c-4.87 0-47.62-.5-47.62-17.71s42.74-17.71 47.62-17.71 47.62.5 47.62 17.71-42.75 17.71-47.62 17.71zm-34-17.71c4.42 2.36 16.21 5.5 34 5.5s29.58-3.13 34-5.5c-4.42-2.36-16.21-5.5-34-5.5s-29.58 3.13-34 5.5z"/></g></svg>