<svg version="1.1" id="Layer_1" xmlns="http://www.w3.org/2000/svg" xmlns:xlink="http://www.w3.org/1999/xlink" x="0" y="0" viewBox="0 0 629.7 593" xml:space="preserve"><style>.st0{fill:#ccc}.st2{fill:#f2f2f2}.st3,.st4{fill:#1a1a1a;stroke:#000;stroke-width:.5;stroke-miterlimit:10}.st4{fill:#fff}.st5{fill:#1a1a1a}.st6{fill:#0077bf;stroke-width:.5}.st6,.st7,.st8{stroke:#000;stroke-miterlimit:10}.st7{stroke-width:.5;fill:#ffe600}.st8{fill:#eb058c}.st10,.st11,.st8{stroke-width:.5}.st10{stroke:#000;stroke-miterlimit:10;fill:#f2f2f2}.st11{fill:none}.st11,.st12,.st13{stroke:#000;stroke-miterlimit:10}.st12{stroke-width:.5;fill:#c10072}.st13{fill:#fff}.st14{enable-background:new}</style><g id="Layer_12"><ellipse class="st0" cx="561" cy="570.4" rx="68" ry="12.3"/><ellipse class="st0" cx="78.2" cy="569.9" rx="78.2" ry="11.7"/></g><g id="Layer_15"><defs><path id="SVGID_1_" d="M98.7 0h497.7v605.5H98.7z"/></defs><clipPath id="SVGID_2_"><use xlink:href="#SVGID_1_" overflow="visible"/></clipPath><g clip-path="url(#SVGID_2_)"><path class="st2" d="M338.9 514.4l-23.2-34.2c-4.2-6.2-2.6-14.6 3.5-18.8s14.6-2.6 18.8 3.5l37.5 55.2c3.9 5.1 3.6 12.3-.6 17.1l-44.2 51.2c-4.9 5.5-13.3 6.1-19 1.4-5.6-5-6.1-13.5-1.3-19.2l25.4-29.2c-8.4-.3-16.8-1-25.2-2.1-13.5-1.7-26.8-4.7-39.8-8.9-128.9-40-200.9-176.9-161-305.8 24.3-79 87.1-140.2 166.6-162.6 7.2-2.1 14.6 2.1 16.7 9.2 2.1 7.1-1.9 14.5-9 16.6-.1 0-.3.1-.4.1-34.8 10-66.5 28.4-92.5 53.6-25.9 25.1-45 56.4-55.5 90.9-35.8 114.5 28 236.3 142.5 272.1.1 0 .2.1.3.1 11.6 3.5 23.5 6.1 35.5 7.9 8.2 1 16.5 1.7 24.9 1.9zm70.3 16.7c-7.2 2-14.7-2.1-16.7-9.3v-.1c-2-7.2 2.2-14.7 9.4-16.7 115.5-32.7 182.5-152.8 149.8-268.3-20-70.7-74.4-126.5-144.6-148.3-11.6-3.6-23.5-6.3-35.5-7.9-8.2-1.2-16.4-1.8-24.6-2l23 34.3c4.2 6 2.7 14.3-3.3 18.5-.1 0-.1.1-.2.1-6.1 4.2-14.5 2.7-18.8-3.4l-37.5-55.4c-3.9-5-3.6-12.1.6-16.9L355 4.6c4.9-5.5 13.3-6.1 19-1.4 5.6 4.9 6.2 13.4 1.4 19L350 51.5c8.4.3 16.8 1 25.2 2.1 13.5 1.9 26.8 4.9 39.8 8.8 129 40.2 201 177.3 160.8 306.3-12 38.6-33.5 73.7-62.4 102-29.2 28.4-65 49.2-104.2 60.4z"/></g></g><g id="Layer_17"><path class="st3" d="M348.7 518.9c0 1.6-1.3 2.9-2.9 2.9-1.6 0-2.9-1.3-2.9-2.9v-271c0-1.6 1.3-2.9 2.9-2.9 1.6 0 2.9 1.3 2.9 2.9v271z"/><path class="st3" d="M242.8 547.4c-.6 1.5-2.3 2.2-3.8 1.6-1.5-.6-2.2-2.3-1.6-3.8l101.9-251.1c.6-1.5 2.3-2.2 3.8-1.6 1.5.6 2.2 2.3 1.6 3.8L242.8 547.4z"/><path class="st3" d="M441 547.4c.6 1.5 2.3 2.2 3.8 1.6 1.5-.6 2.2-2.3 1.6-3.8L344.5 294.1c-.6-1.5-2.3-2.2-3.8-1.6-1.5.6-2.2 2.3-1.6 3.8L441 547.4z"/><path class="st4" d="M203.9 184.4h281.3v217.1H203.9z"/><path class="st5" d="M196.3 175.3h296.4v9.4H196.3zM196.3 397.8h296.4v9.4H196.3z"/><path class="st6" d="M388.9 376.4v-71.2h-2v73.5h73.5v-2.3z"/><path class="st7" d="M396.6 355h12.1v14.7h-12.1zM412.7 343.5h12v26.3h-12zM428.6 347.6h12v22.1h-12zM444.5 328.9h12v40.9h-12z"/><path class="st6" d="M458.4 306.5l-10.5 1 2.7 3-20.6 17.7-10.9-5.1-22.5 18.6v6.7L420 329l11 5.2 22.9-20.2 2.8 3.1z"/><path class="st8" d="M232.6 208.6H243v64.6h-10.4zM247.6 228.1H258v45h-10.4zM262.6 222.3H273v50.9h-10.4zM277.6 204H288v69.1h-10.4zM292.6 223.8H303v49.3h-10.4zM307.6 238.8H318v34.4h-10.4zM322.6 234.3H333v38.9h-10.4zM337.6 220.3H348v52.8h-10.4z"/><path class="st7" d="M266.8 330.2l-20.1-17c-2.1 2.4-11.9 13.4-12.6 13.9l-.5-.7c.6-.4 7.9-8.7 12.7-14.1l.3-.3 20.1 17 11.4-12.6 6.7 5.7 18-17.2 23.7 17.4 20.1-22.3.6.5-20.6 22.9-23.7-16.4-18 16.2-6.7-5.7-11.4 12.7z"/><ellipse transform="matrix(.9978 -.06697 .06697 .9978 -21.354 16.404)" class="st7" cx="234" cy="326.7" rx="1.7" ry="1.7"/><ellipse transform="matrix(.9978 -.06697 .06697 .9978 -20.395 17.214)" class="st7" cx="246.6" cy="312.8" rx="1.7" ry="1.7"/><ellipse transform="matrix(.9978 -.06697 .06697 .9978 -21.451 18.572)" class="st7" cx="266.3" cy="329.2" rx="1.7" ry="1.7"/><ellipse transform="matrix(.9978 -.0668 .0668 .9978 -20.529 19.254)" class="st7" cx="277.7" cy="316.6" rx="1.7" ry="1.7"/><ellipse transform="matrix(.9978 -.06697 .06697 .9978 -20.9 19.799)" class="st7" cx="284.9" cy="321.6" rx="1.7" ry="1.7"/><ellipse transform="matrix(.9978 -.0668 .0668 .9978 -19.733 20.9)" class="st7" cx="302.7" cy="305.5" rx="1.7" ry="1.7"/><ellipse transform="matrix(.9978 -.06697 .06697 .9978 -19.322 23.882)" class="st7" cx="346.5" cy="300.1" rx="1.7" ry="1.7"/><ellipse transform="matrix(.9978 -.06697 .06697 .9978 -20.846 22.575)" class="st7" cx="326.3" cy="322.2" rx="1.7" ry="1.7"/><path class="st6" d="M233.2 360.7l16.7-4.7 9.9-4.5 16.9 8.9 9.6-14.5 15.4 1.7 10-13.6 16.2 3.6 20.3-10.2v48.1H233.5z"/></g><g id="Layer_18"><ellipse transform="rotate(-33.15 419.336 238.773)" class="st2" cx="419.3" cy="238.8" rx="34.7" ry="34.7"/><defs><ellipse id="SVGID_3_" transform="rotate(-33.15 419.336 238.773)" cx="419.3" cy="238.8" rx="34.7" ry="34.7"/></defs><clipPath id="SVGID_4_"><use xlink:href="#SVGID_3_" overflow="visible"/></clipPath><g clip-path="url(#SVGID_4_)"><ellipse transform="rotate(-33.15 419.336 238.773)" class="st8" cx="419.3" cy="238.8" rx="34.7" ry="34.7"/><path class="st10" d="M419.5 238.2l-11 52.4 37-5.8zM419.3 238.7L393.4 199l29.1-7.5z"/><path class="st10" d="M419.3 238.7l53-12.9-49.8-34.3z"/><path class="st10" d="M445.5 284.8l-26-46.6 48.9 14.9z"/><path class="st10" d="M467.7 253.4l4.6-27.6-53 12.9z"/><path class="st4" d="M419.3 238.7l-10.8 51.9 37-5.8z"/><path class="st6" d="M422.5 191.5l-29.1 7.5 25.9 39.7 53-12.9z"/><path class="st7" d="M472.3 225.8l-53 12.9 26.2 46.1 22.9-31.7-.6-.2z"/></g><ellipse transform="rotate(-33.15 419.336 238.773)" class="st11" cx="419.3" cy="238.8" rx="34.7" ry="34.7"/></g><g id="Layer_16"><path class="st6" d="M427.8 235.1l56.2 57.8 1.2-1.1z" id="Layer_19"/><path class="st3" d="M619 328.7s-4.7 4.7-12.4-6.7c-3.8-5.8-6.9-12-9.1-18.6 0 0-4.3-11.6-14.3-18 0 0-7.3-6.1-19.2-3.7 0 0-10.9 1.8-14.5 11.9 0 0-5.9 12 3.1 26 1.8 2.8 3.1 5.8 3.8 9.1l24 12.6 29.1-1.9 2.5-2.4c.1-.1 5.1-.8 7-8.3z"/><path class="st3" d="M609.7 339.2s-13.1 9.6-24.4 7.2l-30.5-12.8 1.7-5.1"/><path class="st4" d="M573.2 327.3c.1.2.1.4.1.5-.1.2-.2.3-.3.5-1.6 1.7-3.3 3.2-5.2 4.6-1.1.8-2.5 1.5-3.8 1.1-.8-.4-1.4-.9-1.9-1.6l-2.3-2.9c1.1-.7 1.1-2.3 1-3.6-.2-1.7-.4-3.4-.8-5.1 2.8-2.1 6.1-3.5 9.5-4 1.2-.2 1.8 0 1.8 1.2s0 2.1.2 3.2c.4 2.1.9 4.1 1.7 6.1z"/><path class="st4" d="M566.7 320.9c-3.5 1.3-7.6 2.2-10.8.2-2.4-1.4-3.7-4.1-4.5-6.7-.7-2.9-1.2-5.8-1.3-8.7-.2-1.9-.2-3.7.1-5.6.5-2.6 2.1-4.9 3.7-7 2.6-3.6 5.4-7.3 9.6-8.7 2.4-.6 4.9-.8 7.4-.6 1.9 0 3.7.3 5.5.8 1.5.6 2.8 1.4 3.9 2.4 3.3 2.8 5.5 6.8 6.2 11.1 1.5 11.6-10.5 19.2-19.8 22.8z"/><path class="st5" d="M578.3 316.8s-7.9-16.7-1.3-25.3c0 0-5.1 2-9.1.7 0 0-10.1-2.8-14.5 5.1 0 0-2 4.9-4.3 6.8V300l3.5-8 9.5-8.2 8.9-2.1 8.9 3.6 5.8 5.7 2.7 13.3-5.6 9.2-4.5 3.3z"/><path class="st4" d="M572.6 304.8c-.5 0-.9-.3-1.2-.7-.2-.4-.5-.8-.6-1.2-.2-.3-.3-.6-.5-.9-.2-.3-.4-.5-.7-.7-.8-.5-1.7-.5-2.5-.2s-1.6.8-2.2 1.3M560.9 299.2l-.5-1c-.3-.8-.8-1.5-1.6-2-.7-.2-1.4-.3-2.1-.2-.7.1-1.4-.2-1.9-.8M566.8 298.1c2.6-.8 5.5.3 6.9 2.6M562.9 295.8c-.8-1.7-2.4-3-4.3-3.2M559.7 308.3c-.5-.6-1-1.1-1.5-1.8-.1-.1-.2-.3-.3-.5-.1-.4.2-.9.6-1.2l1.7-1.7M559.1 315.7c-.5-.1-1.1-.1-1.6 0-.2.1-.4.1-.6.1-.7 0-1.2-.8-1.3-1.5 0-.7.1-1.4.2-2.2 0-.6-.1-1.2 0-1.8 0-.2.1-.3.2-.5.2-.2.6-.1.9 0 2.1 1 4 2.4 5.5 4.1.1.1.1.1.1.2.1.4-.9 1-1.3 1.2-.6.3-1.4.4-2.1.4z"/><path class="st12" d="M555.3 315.7c.5.6 1.2.9 1.9.9s1.5-.1 2.2-.3c.5-.1 1.1-.3 1.6-.5.4-.1.8-.3 1.2-.5.4-.2.6-.6.7-1-.8.4-1.7.6-2.7.7-1.2.2-2.5 0-3.6-.5-.4-.2-.9-.7-1.3-.5s-.3 1.3 0 1.7z"/><path class="st12" d="M555.9 308.9c1.5 0 3 .6 4.1 1.7 1.1 1 2.1 2.2 2.9 3.5 0 .1.1.2.1.2s-.2.1-.2 0c-1.4-.4-2.5-1.5-3.6-2.3-.9-.7-2-1.2-3.1-1.5-1-.2-1.7-1.6-.2-1.6z"/><ellipse transform="rotate(-48.677 568.154 302.26)" class="st3" cx="568.1" cy="302.3" rx="1.3" ry="1.1"/><ellipse transform="rotate(-48.677 558.117 297.302)" class="st3" cx="558.1" cy="297.3" rx="1.3" ry="1.1"/><path class="st4" d="M572 559.5l14.8-106.2s-12.5-4.4-18.4 1.8l-2 102.9v6.3l4.8 3M551.1 559.6l-8.2-106.9s12.8-3.6 18.3 3l-4.5 102.8-.4 6.3-5 2.7"/><path class="st5" d="M557.5 559v12.3h-1.8l-1.3-5.2-3.2 5.2h-18.1c7-1.5 12.9-6 16.1-12.3h8.3zM565.4 559v12.3h1.8l1.3-5.2 3.2 5.2h18.1c-7-1.4-12.9-6-16.1-12.3h-8.3zM533.5 423.2c.4-8.6 4.2-16.7 10.6-22.6h38.7c6.4 5.8 10.2 13.9 10.6 22.6l-10 61.8h-40l-9.9-61.8z"/><path class="st8" d="M582.6 400.7c-6.4-8.3 5.8-51.2 5.8-51.2l30.2 53 5.3-3c-18.3-57.8-26-67.1-26-67.1-3.8-3.8-24.5-4.6-24.5-4.6-3.9 2.8-9 3.5-13.5 1.7-3.1-2.4-20.7-1.4-20.7-1.4l-26.9-4.6-23.1-29.2-5.4 2.8 22.8 39 30.4 9.7s11.8 31.2 7.2 54.9c-.1 0 21.1 11.2 38.4 0zM543.5 354.3s4.8 10 16.2 4.5M584.7 354.3s-4.8 10-16.2 4.5"/><path class="st4" d="M483.7 297l5.4-2.8c4.7-7.3-2-4.1-2-4.1s-3.5-3.7-6.9-3.9c0 0-6 .1 3.5 10.8zM618.6 402.5c-4.4 7.4 2.1 4.1 2.1 4.1s6.2 7.1 8.1 6c2.7-1.5-5-13.1-5-13.1l-5.2 3z"/><g id="Layer_28"><path class="st6" d="M179.7 277.3l15.7 12.4c.9.7 1 1.9.3 2.8l-1.5 1.9c-.7.9-1.9 1-2.8.3l-15.7-12.4c-.9-.7-1-1.9-.3-2.8l1.5-1.9c.7-.8 1.9-1 2.8-.3z"/><path class="st6" d="M183.6 305.9L167.3 293c-.9-.7-1-1.9-.3-2.8l8.9-11.3 17.9 14.1c.9.7 1 1.9.3 2.8l-7.7 9.7c-.7.9-1.9 1-2.8.4zm-6.4-26l-1.3-1 1-1.3c-.5.7-.4 1.7.3 2.3z"/><path class="st7" d="M188.3 303.2l-2.5-2c-1.2-1-1.3-2.8-.3-3.9s2.6-1.3 3.8-.4l2.5 2c.3.3.4.8.1 1.1l-2.5 3.1c-.3.3-.8.4-1.1.1z"/><path class="st8" d="M188.5 297.8c.7.5.8 1.6.3 2.2-.5.7-1.6.8-2.2.3-.7-.5-.8-1.6-.3-2.2.5-.8 1.5-.9 2.2-.3z"/><path class="st6" d="M193.8 293l-16.6-13.1c-.7-.6-.8-1.6-.3-2.2l-.5.6c-.5.7-.4 1.7.3 2.2l16.6 13.1c.9.7 1 1.9.3 2.8l.5-.6c.7-.9.6-2.1-.3-2.8zM184.1 305.3l-16.3-12.9c-.9-.7-1-1.9-.3-2.8l-.5.6c-.7.9-.5 2.1.3 2.8l16.3 12.9c.9.7 2.1.5 2.8-.3l.5-.6c-.7.8-1.9 1-2.8.3z"/></g><path class="st5" d="M104.9 564.1h9l-1.5-154.5-58.1 6.6-14.7 147.9h9l33.3-131.5s1.9-3.2 4.2 0l18.8 131.5h9"/><path class="st4" d="M175.7 304.7l-23 27.4c-4.8 6.1-38.3 9-38.3 9s-6.3 49.3-2.1 68.5c0 0-24 16.6-58.1 6.6l-2.1-51.4-11.6 11.1-11.7 43.2-6-.5 3.2-48.5 26.5-36.5s4.4-3.5 25.5-3.2c0 0 8.2 6.9 14.2 0 14.7-4.6 30.2-6.2 45.5-4.5 0 0 2.7.2 7.4-3.9l25.4-22.2 5.2 4.9"/><path class="st4" d="M28.8 419.1c7.1 4.9-.2 4.6-.2 4.6s-2.6 9.1-4.8 8.9c-3.1-.3-1-13.9-1-13.9l6 .4zM171.1 300.4c-2.9-8.1 2-3 2-3s5.5-4.5 7-2.9c2 2.2-5 10.2-5 10.2l-4-4.3z"/><path class="st5" d="M48.6 564.1v7.7h-4.2v-1.9l-2.6 1.9H22.3l17.3-7.7zM104.9 564.1v7.7h4.2v-1.9l2.6 1.9h19.5l-17.4-7.7z"/><path class="st4" d="M90.8 325l7.7 7.7-11.7 1.4s-6-6.7-.7-8.5l4.7-.6zM83.7 334.3l-12 .7 4.2-8 6.9-.9z"/><path class="st6" d="M86.8 333.1l6.4 51-8.7 10.6-7.2-11.5 7.1-49.8c.1-.1 1.1-2.6 2.4-.3z"/><path class="st4" d="M76.8 327.8c-.1.2-.1.4-.1.5.1.2.2.3.3.5 1.6 1.7 3.3 3.2 5.2 4.6 1.1.8 2.5 1.5 3.8 1.1.8-.4 1.4-.9 1.9-1.6l2.3-2.9c-1.1-.7-1.1-2.3-1-3.6.2-1.7.4-3.4.8-5.1-2.8-2.1-6.1-3.5-9.6-4-1.2-.2-1.8 0-1.8 1.2s0 2.1-.2 3.2c-.2 2.1-.8 4.2-1.6 6.1z"/><path class="st4" d="M83.3 321.4c3.5 1.3 7.6 2.2 10.8.2 2.4-1.4 3.7-4.1 4.5-6.7.7-2.9 1.2-5.8 1.3-8.7.2-1.9.2-3.7-.1-5.6-.6-2.6-2.1-4.9-3.7-7-2.6-3.6-5.4-7.3-9.6-8.7-2.4-.6-4.9-.8-7.4-.6-1.9 0-3.7.3-5.5.8-1.5.6-2.8 1.4-3.9 2.4-3.3 2.8-5.5 6.8-6.2 11.1-1.4 11.7 10.5 19.3 19.8 22.8z"/><path class="st13" d="M78.7 298.1c-2 .8-3.2 2.8-2.9 4.9M93 292.8c-1.9-1-4.2-.6-5.7 1"/><path class="st4" d="M90.3 307.2c.5-.6 1-1.1 1.5-1.8.1-.1.2-.3.3-.5.1-.4-.2-.9-.6-1.2l-1.7-1.7"/><ellipse transform="rotate(-41.323 81.896 302.827)" class="st3" cx="81.9" cy="302.8" rx="1.1" ry="1.3"/><ellipse transform="rotate(-41.323 91.945 297.874)" class="st3" cx="92" cy="297.9" rx="1.1" ry="1.3"/><path class="st5" d="M71.7 308.2s-3.3 1.1 2.7 5.1c0 0 .2 4.1 3 5.4 0 0-6.2.1-15.5-9.8 0 0-5.5-9.9 0-17.9 0 0 6.9-10.6 19.8-9.2 0 0 13.8 1.8 15.9 14.1 0 0-5.9-8.2-12.2-9.9 0 0-7.9 7.2-12.6 7.1 0 0-3.5 3.2-1.1 15.1z"/><path class="st11" d="M95.4 309.5s-1.8 4.2-7.4 3.2c-.1.1 5.2 4.9 7.4-3.2zM85.3 311.1c-.2.6-.1 1.3.3 1.8M91.8 296.1c-1.1.7-1.8 1.9-1.9 3.2M81.4 301c-.8.9-1.2 2-1.2 3.1"/></g><g id="Layer_25"><ellipse transform="rotate(-76.272 479.893 155.857)" class="st7" cx="479.9" cy="155.8" rx="30.9" ry="30.9"/><path class="st4" d="M488.7 119.8c19.9 4.9 32.1 24.9 27.2 44.9-4.9 19.9-24.9 32.1-44.9 27.2-19.9-4.9-32.1-24.9-27.2-44.9 4.9-19.9 25-32 44.9-27.2zm-16.1 66c16.6 4 33.3-6.1 37.3-22.7s-6.1-33.3-22.7-37.3-33.3 6.1-37.3 22.7c-4.1 16.5 6.1 33.3 22.7 37.3-.1 0 0 0 0 0z"/><g class="st14"><path class="st5" d="M481.8 141.9c4.6.1 7.3 2.3 7.3 6.9h-3v-.2c0-2.6-1.4-4-4.3-4.2v8.9c4.2 1.2 8 2.3 8 7.5 0 4.4-2.9 7.2-8 7.5v3h-1.7v-3c-4.7-.2-7.9-2.8-7.9-7.9v-.4h3.1v.5c0 3.2 1.7 4.9 4.9 5.2v-9.9c-4.3-.8-7.4-2.6-7.4-6.9 0-4.5 3.3-6.7 7.4-7.1v-2.5h1.7v2.6zm-1.7 2.6c-2.7.3-4.4 1.8-4.4 4.2 0 2.7 2.1 3.7 4.4 4.3v-8.5zm1.7 21.3c2.9-.1 4.9-2.1 4.9-4.9 0-3-2.4-4.1-4.9-4.6v9.5z"/></g></g><g id="Layer_26"><ellipse transform="rotate(-62.031 352.453 104.588)" class="st7" cx="352.5" cy="104.6" rx="24.7" ry="24.7"/><path class="st4" d="M366.4 78.3c14.5 7.7 20 25.7 12.3 40.2s-25.7 20-40.2 12.3c-14.5-7.7-20-25.7-12.3-40.2 7.7-14.5 25.7-20 40.2-12.3zm-25.5 48.1c12.1 6.4 27 1.8 33.4-10.2 6.4-12.1 1.8-27-10.2-33.4-12.1-6.4-27-1.8-33.4 10.2-6.5 12-1.9 27 10.2 33.4z"/><g class="st14"><path class="st5" d="M357.2 93.8c3.7 1 5.4 3.3 4.5 7.1l-2.4-.6v-.2c.5-2.1-.3-3.5-2.6-4.3l-1.9 7.2c3.1 1.8 5.9 3.5 4.9 7.7-.9 3.5-3.8 5.2-8 4.4l-.6 2.4-1.4-.4.6-2.4c-3.7-1.1-5.8-3.9-4.8-8l.1-.3 2.5.6c-.1.2-.1.3-.1.4-.7 2.6.4 4.3 2.9 5.2l2.1-8c-3.3-1.6-5.4-3.7-4.5-7.1.9-3.6 4.1-4.7 7.5-4.2l.5-2 1.4.4-.7 2.1zm-1.9 1.8c-2.3-.4-4 .6-4.5 2.5-.6 2.2.9 3.5 2.7 4.4l1.8-6.9zm-3 17.6c2.3.5 4.4-.7 5-3 .6-2.4-1.1-3.8-3-4.7l-2 7.7z"/></g></g><g id="Layer_27_copy"><ellipse transform="rotate(-2.57 252.671 166.272)" class="st7" cx="252.7" cy="166.3" rx="19.9" ry="19.9"/><path class="st4" d="M251.6 142.4c13.2-.6 24.3 9.6 24.9 22.8.6 13.2-9.6 24.3-22.8 24.9s-24.3-9.6-24.9-22.8c-.6-13.1 9.6-24.3 22.8-24.9zm2 43.7c11-.5 19.4-9.8 19-20.7-.5-11-9.8-19.4-20.7-19-11 .5-19.4 9.8-19 20.7.5 11 9.7 19.5 20.7 19z"/><g class="st14"><path class="st5" d="M250.8 157.6c2.8-.8 4.9.1 5.7 2.9l-1.9.5v-.1c-.5-1.6-1.6-2.2-3.4-1.8l1.6 5.5c2.8 0 5.3 0 6.2 3.2.8 2.7-.5 4.9-3.5 6l.5 1.8-1 .3-.5-1.8c-2.9.7-5.4-.3-6.3-3.4l-.1-.2 1.9-.5c0 .1 0 .2.1.3.6 2 1.9 2.7 3.9 2.3l-1.8-6.1c-2.8.3-5-.3-5.8-2.9-.8-2.8.8-4.7 3.3-5.7l-.4-1.5 1-.3.5 1.5zm-.6 1.9c-1.6.6-2.4 1.9-2 3.4.5 1.7 2 1.9 3.5 1.8l-1.5-5.2zm4.9 12.8c1.8-.6 2.6-2.2 2.1-3.9-.5-1.8-2.2-2.1-3.8-1.9l1.7 5.8z"/></g><ellipse transform="rotate(-2.57 190.972 279.496)" class="st7" cx="191" cy="279.5" rx="6.4" ry="6.4"/><path class="st4" d="M190.6 271.9c4.2-.2 7.8 3.1 8 7.3s-3.1 7.8-7.3 8c-4.2.2-7.8-3.1-8-7.3-.2-4.2 3.1-7.8 7.3-8zm.6 14c3.5-.2 6.2-3.1 6.1-6.6s-3.1-6.2-6.6-6.1c-3.5.2-6.2 3.1-6.1 6.6.2 3.5 3.2 6.2 6.6 6.1z"/><g class="st14"><path class="st5" d="M190.7 276.7c.9-.2 1.5 0 1.7.9l-.6.2c-.1-.5-.5-.7-1-.5l.5 1.7c.8 0 1.6 0 1.9 1 .2.8-.2 1.5-1.1 1.8l.2.6-.3.1-.2-.6c-.9.2-1.6-.1-1.9-1v-.1l.6-.2v.1c.2.6.6.8 1.2.7l-.5-1.8c-.9.1-1.5-.1-1.8-.9-.2-.8.3-1.4 1-1.7l-.1-.5.3-.1.1.3zm-.2.6c-.5.2-.7.6-.6 1 .1.5.6.6 1.1.6l-.5-1.6zm1.5 3.9c.5-.2.8-.7.6-1.2-.2-.6-.7-.6-1.2-.6l.6 1.8z"/></g><ellipse transform="rotate(-2.57 199.536 233.649)" class="st7" cx="199.5" cy="233.6" rx="8.6" ry="8.6"/><path class="st4" d="M199.1 223.3c5.7-.3 10.6 4.2 10.8 9.9s-4.2 10.6-9.9 10.8-10.6-4.2-10.8-9.9c-.3-5.7 4.2-10.6 9.9-10.8zm.8 19c4.8-.2 8.4-4.2 8.2-9s-4.2-8.4-9-8.2c-4.8.2-8.4 4.2-8.2 9 .2 4.7 4.3 8.4 9 8.2z"/><g class="st14"><path class="st5" d="M199.2 229.5c1.2-.3 2.1 0 2.5 1.3l-.8.2v-.1c-.2-.7-.7-.9-1.5-.8l.7 2.4c1.2 0 2.3 0 2.7 1.4.3 1.2-.2 2.1-1.5 2.6l.2.8-.5.1-.2-.8c-1.3.3-2.3-.1-2.7-1.5v-.1l.8-.2v.1c.3.9.8 1.2 1.7 1l-.8-2.6c-1.2.1-2.2-.1-2.5-1.3-.4-1.2.4-2 1.4-2.5l-.2-.7.5-.1.2.8zm-.3.8c-.7.3-1 .8-.8 1.5.2.7.8.8 1.5.8l-.7-2.3zm2.1 5.5c.8-.2 1.1-.9.9-1.7-.2-.8-1-.9-1.7-.8l.8 2.5z"/></g></g></svg>