<svg xmlns="http://www.w3.org/2000/svg" viewBox="0 0 120.55 112.43"><defs><style>.cls-1{fill:#fff;}.cls-2{fill:#eb058c;}.cls-2,.cls-3,.cls-5,.cls-6{stroke:#000;stroke-miterlimit:10;}.cls-3{fill:#f2f2f2;}.cls-4{fill:#b4b6bc;}.cls-5{fill:#ffe600;}.cls-6{fill:#0077bf;}</style></defs><title>test</title><g id="Layer_2" data-name="Layer 2"><g id="test"><path class="cls-1" d="M107.5,14.17C105.28,11.74,96.73,2.36,82.64.47c-3-.4-17.09-2.29-26,6-11.74,11-1.81,28.07-11.87,41.16-8.65,11.25-25.08.26-36.17,11.5C2.84,65-.22,74.85,1.81,82.21c6.34,23,68.94,45.86,100.87,16C125.93,76.42,125.38,33.78,107.5,14.17Z"/><g id="Layer_1_copy_3" data-name="Layer 1 copy 3"><rect y="96.12" width="120" height="2.13" rx="1.06" ry="1.06"/></g><g id="Layer_82" data-name="Layer 82"><path class="cls-2" d="M80.5,37.27H40.63a5,5,0,0,0-5,5V91.1a5,5,0,0,0,5,5H80.5a5,5,0,0,0,5-5V42.25A5,5,0,0,0,80.5,37.27Z"/><path class="cls-3" d="M80.45,41.25a1,1,0,0,1,1,1V91.05a1,1,0,0,1-1,1H40.68a1,1,0,0,1-1-1V42.29a1,1,0,0,1,1-1Z"/><path class="cls-4" d="M53.59,59.2h-6a2,2,0,0,1-2-2v-6a2,2,0,0,1,2-2h6a2,2,0,0,1,2,2v6A2,2,0,0,1,53.59,59.2Zm-6-8v6h6v-6Z"/><path class="cls-4" d="M61.56,52.22h-3a1,1,0,1,1,0-2h3a1,1,0,0,1,0,2Z"/><path class="cls-4" d="M73.52,56.21h-15a1,1,0,0,1,0-2h15a1,1,0,0,1,0,2Z"/><path class="cls-4" d="M68.54,66.17h-10a1,1,0,1,1,0-2h10a1,1,0,1,1,0,2Z"/><path class="cls-4" d="M73.52,70.16h-15a1,1,0,1,1,0-2h15a1,1,0,0,1,0,2Z"/><path class="cls-4" d="M62.56,79.13h-4a1,1,0,0,1,0-2h4a1,1,0,1,1,0,2Z"/><path class="cls-4" d="M73.52,83.12h-15a1,1,0,1,1,0-2h15a1,1,0,0,1,0,2Z"/><path class="cls-5" d="M64.55,37.27a1,1,0,0,1-1-1v-1a1,1,0,0,0-1-1h-4a1,1,0,0,0-1,1v1a1,1,0,1,1-2,0v-1a3,3,0,0,1,3-3h4a3,3,0,0,1,3,3v1A1,1,0,0,1,64.55,37.27Z"/><path class="cls-5" d="M71.53,35.27H49.6a1,1,0,0,0-1,1v3a5,5,0,0,0,5,5h14a5,5,0,0,0,5-5v-3A1,1,0,0,0,71.53,35.27Z"/><path class="cls-4" d="M53.59,72.16h-6a2,2,0,0,1-2-2v-6a2,2,0,0,1,2-2h6a2,2,0,0,1,2,2v6A2,2,0,0,1,53.59,72.16Zm-6-8v6h6v-6Z"/><path class="cls-4" d="M53.59,85.11h-6a2,2,0,0,1-2-2v-6a2,2,0,0,1,2-2h6a2,2,0,0,1,2,2v6A2,2,0,0,1,53.59,85.11Zm-6-8v6h6v-6Z"/><path class="cls-6" d="M51.59,69.17a1,1,0,0,1-.7-.29l-2-2a1,1,0,0,1,1.41-1.41l1.29,1.29,4.28-4.28a1,1,0,0,1,1.41,1.41l-5,5A1,1,0,0,1,51.59,69.17Z"/></g></g></g></svg>