<svg xmlns="http://www.w3.org/2000/svg" viewBox="0 0 120 112.43"><defs><style>.cls-1,.cls-4{fill:#fff;}.cls-2{fill:#f2f2f2;}.cls-2,.cls-3,.cls-4{stroke:#000;stroke-miterlimit:10;}.cls-3{fill:#ccc;}</style></defs><title>junior</title><g id="Layer_2" data-name="Layer 2"><g id="junior"><path class="cls-1" d="M106.5,14.17C104.28,11.74,95.73,2.36,81.64.47c-3-.4-17.09-2.29-26,6-11.74,11-1.81,28.07-11.87,41.16-8.65,11.25-25.08.26-36.17,11.5C1.84,65-1.22,74.85.81,82.21c6.34,23,68.94,45.86,100.87,16C124.93,76.42,124.38,33.78,106.5,14.17Z"/><g id="Layer_1_copy_7" data-name="Layer 1 copy 7"><rect y="96.12" width="120" height="2.13" rx="1.06" ry="1.06"/></g><g id="Layer_116" data-name="Layer 116"><path class="cls-2" d="M75,94.44V75.75a3.23,3.23,0,0,0-2.21-3.07l-5.28-1.76a3.23,3.23,0,0,1-2.21-3.07V63.71h-9.7v4.14a3.23,3.23,0,0,1-2.21,3.07l-5.28,1.76a3.23,3.23,0,0,0-2.21,3.07V94.44H75Z"/><path class="cls-3" d="M72.81,72.68l-5.28-1.76a3.22,3.22,0,0,1-.87-.45,8,8,0,0,1-12.39,0,3.21,3.21,0,0,1-.87.45l-5.28,1.76a3.23,3.23,0,0,0-2.21,3.07V94.44H75V75.75A3.24,3.24,0,0,0,72.81,72.68Z"/><ellipse class="cls-3" cx="60.47" cy="49.96" rx="12.94" ry="12.13"/><path class="cls-2" d="M68.63,62.87,63.36,65.5a6.47,6.47,0,0,1-5.79,0l-5.26-2.63a3.23,3.23,0,0,1-1.76-2.49l-1-7.86a1.61,1.61,0,0,1,1.5-1.81c3-.2,9.3-1,13.18-3.86a1.6,1.6,0,0,1,2.12.19l4.5,4.8a1.62,1.62,0,0,1,.42,1.31l-.9,7.23A3.23,3.23,0,0,1,68.63,62.87Z"/><path class="cls-3" d="M73.41,34.6v9.7a1.62,1.62,0,1,0,3.23,0V34.6Z"/><path class="cls-2" d="M70.17,36.22H50.77l-1.24,5a1.62,1.62,0,0,0,1.12,1.95l8.93,2.55a3.23,3.23,0,0,0,1.78,0l8.93-2.55a1.62,1.62,0,0,0,1.12-1.95Z"/><path class="cls-2" d="M50.77,36.22l-1.24,5a1.62,1.62,0,0,0,1.12,1.95l8.93,2.55a3.24,3.24,0,0,0,.89.12V36.22Z"/><path class="cls-2" d="M59.19,29.92,44.73,34a.61.61,0,0,0,0,1.16l14.47,4.1a4.68,4.68,0,0,0,2.55,0l14.47-4.1a.61.61,0,0,0,0-1.16l-14.47-4.1A4.68,4.68,0,0,0,59.19,29.92Z"/><path class="cls-2" d="M68.19,92.82H52a1.62,1.62,0,0,1-1.62-1.62V81.5A1.62,1.62,0,0,1,52,79.89H68.19a1.62,1.62,0,0,1,1.62,1.62v9.7A1.62,1.62,0,0,1,68.19,92.82Z"/><path class="cls-2" d="M84.37,96.06H35.84a1.62,1.62,0,0,1,0-3.23H84.37a1.62,1.62,0,1,1,0,3.23Z"/><circle class="cls-4" cx="60.11" cy="86.35" r="1.62"/></g></g></g></svg>