<svg xmlns="http://www.w3.org/2000/svg" viewBox="0 0 120 112.43"><defs><style>.cls-1,.cls-4{fill:#fff;}.cls-2{fill:#f2f2f2;}.cls-2,.cls-3,.cls-4{stroke:#000;stroke-miterlimit:10;}.cls-3{fill:#ccc;}</style></defs><title>single</title><g id="Layer_2" data-name="Layer 2"><g id="junior_copy_2" data-name="junior copy 2"><path class="cls-1" d="M106.5,14.17C104.28,11.74,95.73,2.36,81.64.47c-3-.4-17.09-2.29-26,6-11.74,11-1.81,28.07-11.87,41.16-8.65,11.25-25.08.26-36.17,11.5C1.84,65-1.22,74.85.81,82.21c6.34,23,68.94,45.86,100.87,16C124.93,76.42,124.38,33.78,106.5,14.17Z"/><g id="Layer_1_copy_9" data-name="Layer 1 copy 9"><rect y="96.12" width="120" height="2.13" rx="1.06" ry="1.06"/></g><g id="Layer_139" data-name="Layer 139"><path class="cls-2" d="M98.9,29H20a2.33,2.33,0,0,0-2.33,2.33V74.06L58.7,79.95l42.54-5.89V31.29A2.34,2.34,0,0,0,98.9,29Z"/><polygon class="cls-2" points="66.87 80.82 68.63 95.29 50.25 95.29 52 80.82 66.87 80.82"/><polygon class="cls-2" points="68.04 90.42 66.87 80.82 52 80.82 50.84 90.42 68.04 90.42"/><path class="cls-3" d="M41.61,74.06h-24v5.58A2.34,2.34,0,0,0,20,82H98.9a2.34,2.34,0,0,0,2.33-2.34V74.06Z"/><path class="cls-3" d="M75.16,96.2H43.71a1.22,1.22,0,0,1,0-2.45H75.16a1.22,1.22,0,0,1,0,2.45Z"/><path class="cls-4" d="M86.68,43.37H32.19a2.13,2.13,0,0,0-2.13,2.13V57.86A2.13,2.13,0,0,0,32.19,60H86.68a2.13,2.13,0,0,0,2.13-2.13V45.5A2.13,2.13,0,0,0,86.68,43.37Z"/><path class="cls-3" d="M46.22,43.37V60h-14a2.13,2.13,0,0,1-2.13-2.13V45.5a2.13,2.13,0,0,1,2.13-2.13h14Z"/><path class="cls-4" d="M42.16,54,41,52.84a3.85,3.85,0,1,0-1.73,1.73l1.14,1.14A1.22,1.22,0,1,0,42.16,54Zm-5.57-1.86a1.4,1.4,0,1,1,2,0A1.4,1.4,0,0,1,36.59,52.12Z"/></g><g id="Layer_141" data-name="Layer 141"><path d="M82.24,10H76.89A4,4,0,0,0,72.95,14V19.3a4,4,0,0,0,3.94,3.94h5.35a4,4,0,0,0,3.94-3.94V14A4,4,0,0,0,82.24,10Zm2.61,9.29a2.61,2.61,0,0,1-2.61,2.61H76.89a2.61,2.61,0,0,1-2.61-2.61V14a2.61,2.61,0,0,1,2.61-2.61h5.35A2.61,2.61,0,0,1,84.85,14V19.3Z"/><path d="M79.57,13.2A3.42,3.42,0,1,0,83,16.63,3.43,3.43,0,0,0,79.57,13.2Zm0,5.52a2.09,2.09,0,1,1,2.09-2.09A2.09,2.09,0,0,1,79.57,18.72Z"/><circle cx="83" cy="13.23" r="0.82"/></g><g id="Layer_142" data-name="Layer 142"><circle class="cls-4" cx="100.54" cy="30.17" r="8.94"/><path class="cls-2" d="M102.79,30.52h-1.6v5.84H98.78V30.52H97.63V28.47h1.15V27.14a2.27,2.27,0,0,1,2.44-2.44H103v2h-1.3a.49.49,0,0,0-.51.56v1.21H103Z"/></g></g></g></svg>