<svg xmlns="http://www.w3.org/2000/svg" viewBox="0 0 120 112.43"><defs><style>.cls-1,.cls-4{fill:#fff;}.cls-2{fill:#ccc;}.cls-2,.cls-3,.cls-4{stroke:#000;stroke-miterlimit:10;}.cls-3{fill:#f2f2f2;}</style></defs><title>consulting-advice</title><g id="Layer_2" data-name="Layer 2"><g id="junior_copy" data-name="junior copy"><path class="cls-1" d="M106.5,14.17C104.28,11.74,95.73,2.36,81.64.47c-3-.4-17.09-2.29-26,6-11.74,11-1.81,28.07-11.87,41.16-8.65,11.25-25.08.26-36.17,11.5C1.84,65-1.22,74.85.81,82.21c6.34,23,68.94,45.86,100.87,16C124.93,76.42,124.38,33.78,106.5,14.17Z"/><g id="Layer_1_copy_8" data-name="Layer 1 copy 8"><rect y="96.12" width="120" height="2.13" rx="1.06" ry="1.06"/></g><g id="Layer_127" data-name="Layer 127"><path class="cls-2" d="M59.49,48.69c0,10.48-4.68,17.74-10.48,17.74S38.53,59.17,38.53,48.69c0-7.42,4.68-9.51,10.48-9.51S59.49,41.27,59.49,48.69Z"/><path class="cls-3" d="M42.08,59.81l-.16,6s-1.29,6.13.65,10.16C49.66,74.49,57.24,73.52,55,65.78v-6Z"/><polygon class="cls-2" points="55.79 95.93 62.24 74.16 46.11 74.16 38.53 72.07 38.85 95.93 55.79 95.93"/><polygon class="cls-4" points="52.72 95.93 50.47 79.97 46.59 79.97 44.34 95.93 52.72 95.93"/><polygon class="cls-4" points="50.47 79.97 52.4 78.03 48.53 74.16 44.66 78.03 46.59 79.97 50.47 79.97"/><path class="cls-2" d="M41.92,65.78a5.42,5.42,0,0,0,0,2.9C42.4,69.81,48.53,74,48.53,74l-5.64,5.8-3.71-7.42,1.13-4.19a6,6,0,0,1,.81-1.77A3.52,3.52,0,0,0,41.92,65.78Z"/><path class="cls-2" d="M42.4,95.93,38.69,79l.16-8.06L27.73,76.1A8.2,8.2,0,0,0,22.89,83l-.81,12.9Z"/><polygon class="cls-4" points="39.02 95.93 44.18 95.93 40.47 68.04 34.5 78.84 37.57 78.68 33.7 82.06 39.02 95.93"/><path class="cls-2" d="M55.14,65.78a5.42,5.42,0,0,1,0,2.9C54.66,69.81,48.53,74,48.53,74l5.64,5.64,3.71-7.42L56.75,68a6,6,0,0,0-.81-1.77A1.37,1.37,0,0,1,55.14,65.78Z"/><path class="cls-2" d="M75,95.93,74,83a8.2,8.2,0,0,0-4.84-6.93L58,70.94,58.2,79,54.66,95.93Z"/><polygon class="cls-4" points="52.88 95.93 58.04 95.93 63.37 82.06 59.49 78.68 62.56 78.84 56.59 68.04 52.88 95.93"/><ellipse class="cls-3" cx="39.51" cy="57.17" rx="1.61" ry="3.55" transform="translate(-7.44 5.93) rotate(-7.85)"/><ellipse class="cls-3" cx="58.53" cy="57.08" rx="3.55" ry="1.61" transform="matrix(0.14, -0.99, 0.99, 0.14, -6.01, 107.27)"/><path class="cls-3" d="M50.3,44.33c-1.61,4-5.16,7.09-10.8,7.26A17.58,17.58,0,0,0,39,55.78C39,63.68,43.21,70,48.37,70s9.35-6.45,9.35-14.19a20.09,20.09,0,0,0-1.29-7.26A11.11,11.11,0,0,1,50.3,44.33Z"/><path class="cls-2" d="M99.48,36.27c0,9.84-8.55,17.74-19,17.74a26.48,26.48,0,0,1-3.71-.32L67.4,60.94V49.17a16.9,16.9,0,0,1-6-12.9c0-9.84,8.55-17.74,19-17.74S99.48,26.43,99.48,36.27Z"/><path class="cls-4" d="M82.23,41.43H78.52v-1a5.52,5.52,0,0,1,.65-2.9A10.26,10.26,0,0,1,81.42,35,13.57,13.57,0,0,0,83.52,33,2.72,2.72,0,0,0,84,31.43a2.3,2.3,0,0,0-1-1.93,4.1,4.1,0,0,0-2.58-.81,4.46,4.46,0,0,0-2.58.81,5.71,5.71,0,0,0-1.45,2.58l-3.71-.48a6.57,6.57,0,0,1,2.1-4.35,7.83,7.83,0,0,1,5.32-1.77,8.28,8.28,0,0,1,5.48,1.77,5.6,5.6,0,0,1,2.1,4.19A5.35,5.35,0,0,1,86.91,34a14.76,14.76,0,0,1-3.22,3.22,14.7,14.7,0,0,0-1.61,1.61A11.48,11.48,0,0,1,82.23,41.43Zm-3.71,3.39h0a2,2,0,0,1,1.93-1.93h0a2,2,0,0,1,1.93,1.93h0a2,2,0,0,1-1.93,1.93h0A2,2,0,0,1,78.52,44.82Z"/></g></g></g></svg>