<svg xmlns="http://www.w3.org/2000/svg" viewBox="0 0 120 112.43"><defs><style>.cls-4{fill:#fff}.cls-2{fill:#ccc}.cls-2,.cls-3,.cls-4{stroke:#000;stroke-miterlimit:10}.cls-3{fill:#f2f2f2}</style></defs><g id="Layer_2" data-name="Layer 2"><g id="junior_copy" data-name="junior copy"><path d="M106.5 14.17C104.28 11.74 95.73 2.36 81.64.47c-3-.4-17.09-2.29-26 6-11.74 11-1.81 28.07-11.87 41.16-8.65 11.25-25.08.26-36.17 11.5C1.84 65-1.22 74.85.81 82.21c6.34 23 68.94 45.86 100.87 16 23.25-21.79 22.7-64.43 4.82-84.04z" fill="#fff"/><rect y="96.12" width="120" height="2.13" rx="1.06" ry="1.06" id="Layer_1_copy_8" data-name="Layer 1 copy 8"/><g id="Layer_127" data-name="Layer 127"><path class="cls-2" d="M59.49 48.69c0 10.48-4.68 17.74-10.48 17.74s-10.48-7.26-10.48-17.74c0-7.42 4.68-9.51 10.48-9.51s10.48 2.09 10.48 9.51z"/><path class="cls-3" d="M42.08 59.81l-.16 6s-1.29 6.13.65 10.16c7.09-1.48 14.67-2.45 12.43-10.19v-6z"/><path class="cls-2" d="M55.79 95.93l6.45-21.77H46.11l-7.58-2.09.32 23.86h16.94z"/><path class="cls-4" d="M52.72 95.93l-2.25-15.96h-3.88l-2.25 15.96h8.38zM50.47 79.97l1.93-1.94-3.87-3.87-3.87 3.87 1.93 1.94h3.88z"/><path class="cls-2" d="M41.92 65.78a5.42 5.42 0 0 0 0 2.9c.48 1.13 6.61 5.32 6.61 5.32l-5.64 5.8-3.71-7.42 1.13-4.19a6 6 0 0 1 .81-1.77 3.52 3.52 0 0 0 .8-.64zM42.4 95.93L38.69 79l.16-8.06-11.12 5.16a8.2 8.2 0 0 0-4.84 6.9l-.81 12.9z"/><path class="cls-4" d="M39.02 95.93h5.16l-3.71-27.89-5.97 10.8 3.07-.16-3.87 3.38 5.32 13.87z"/><path class="cls-2" d="M55.14 65.78a5.42 5.42 0 0 1 0 2.9c-.48 1.13-6.61 5.32-6.61 5.32l5.64 5.64 3.71-7.42L56.75 68a6 6 0 0 0-.81-1.77 1.37 1.37 0 0 1-.8-.45z"/><path class="cls-2" d="M75 95.93L74 83a8.2 8.2 0 0 0-4.84-6.93L58 70.94l.2 8.06-3.54 16.93z"/><path class="cls-4" d="M52.88 95.93h5.16l5.33-13.87-3.88-3.38 3.07.16-5.97-10.8-3.71 27.89z"/><ellipse class="cls-3" cx="39.51" cy="57.17" rx="1.61" ry="3.55" transform="rotate(-7.85 39.494 57.183)"/><ellipse class="cls-3" cx="58.53" cy="57.08" rx="3.55" ry="1.61" transform="rotate(-82 58.748 57.104)"/><path class="cls-3" d="M50.3 44.33c-1.61 4-5.16 7.09-10.8 7.26a17.58 17.58 0 0 0-.5 4.19C39 63.68 43.21 70 48.37 70s9.35-6.45 9.35-14.19a20.09 20.09 0 0 0-1.29-7.26 11.11 11.11 0 0 1-6.13-4.22z"/><path class="cls-2" d="M99.48 36.27c0 9.84-8.55 17.74-19 17.74a26.48 26.48 0 0 1-3.71-.32l-9.37 7.25V49.17a16.9 16.9 0 0 1-6-12.9c0-9.84 8.55-17.74 19-17.74s19.08 7.9 19.08 17.74z"/><path class="cls-4" d="M82.23 41.43h-3.71v-1a5.52 5.52 0 0 1 .65-2.9A10.26 10.26 0 0 1 81.42 35a13.57 13.57 0 0 0 2.1-2 2.72 2.72 0 0 0 .48-1.57 2.3 2.3 0 0 0-1-1.93 4.1 4.1 0 0 0-2.58-.81 4.46 4.46 0 0 0-2.58.81 5.71 5.71 0 0 0-1.45 2.58l-3.71-.48a6.57 6.57 0 0 1 2.1-4.35 7.83 7.83 0 0 1 5.32-1.77 8.28 8.28 0 0 1 5.48 1.77 5.6 5.6 0 0 1 2.1 4.19 5.35 5.35 0 0 1-.77 2.56 14.76 14.76 0 0 1-3.22 3.22 14.7 14.7 0 0 0-1.61 1.61 11.48 11.48 0 0 1 .15 2.6zm-3.71 3.39a2 2 0 0 1 1.93-1.93 2 2 0 0 1 1.93 1.93 2 2 0 0 1-1.93 1.93 2 2 0 0 1-1.93-1.93z"/></g></g></g></svg>