<?xml version="1.0" encoding="utf-8"?>
<!-- Generator: Adobe Illustrator 21.0.2, SVG Export Plug-In . SVG Version: 6.00 Build 0)  -->
<svg version="1.1" id="Layer_1" xmlns="http://www.w3.org/2000/svg" xmlns:xlink="http://www.w3.org/1999/xlink" x="0px" y="0px"
	 viewBox="0 0 814.1 721.1" style="enable-background:new 0 0 814.1 721.1;" xml:space="preserve">
<style type="text/css">
	.st0{fill:#F5F5F5;}
	.st1{fill:#BCBCBC;}
	.st2{fill:#1A1A1A;stroke:#000000;stroke-width:0.5;stroke-miterlimit:10;}
	.st3{fill:#FFE600;stroke:#000000;stroke-width:0.5;stroke-miterlimit:10;}
	.st4{fill:#FFFFFF;stroke:#000000;stroke-width:0.5;stroke-miterlimit:10;}
	.st5{fill:#1A1A1A;}
	.st6{fill:#FFFFFF;stroke:#000000;stroke-miterlimit:10;}
	.st7{fill:none;stroke:#000000;stroke-width:0.5;stroke-miterlimit:10;}
	.st8{fill:#F2F2F2;stroke:#000000;stroke-width:0.5;stroke-miterlimit:10;}
	.st9{fill:#0077BF;stroke:#000000;stroke-width:0.5;stroke-miterlimit:10;}
	.st10{fill:#CCCCCC;stroke:#000000;stroke-width:0.5;stroke-miterlimit:10;}
	.st11{fill:#EB058C;stroke:#000000;stroke-width:0.5;stroke-miterlimit:10;}
	.st12{fill:#B70272;stroke:#000000;stroke-width:0.5;stroke-miterlimit:10;}
	.st13{fill:#E5E5E5;stroke:#000000;stroke-width:0.5;stroke-miterlimit:10;}
	.st14{fill:#C10072;stroke:#000000;stroke-width:0.5;stroke-miterlimit:10;}
	.st15{enable-background:new    ;}
</style>
<title>RB1</title>
<g id="Layer_7">
	<path class="st0" d="M287.8,551.6c0,0-117.1,113.2-228.2-28.7c0,0-143.8-188.1,15.4-384.1c45.5-56,129.1-113.2,244.6-130.3
		c102-15.1,232.1-17.4,334,56.9c0,0,126.5,78.6,159.2,268.7c0,0,29.1,276.8-187,281.5c0,0-74.1-5.3-122.9-81.7
		C503,533.9,435.3,410.7,287.8,551.6z"/>
</g>
<ellipse class="st1" cx="360.4" cy="708.6" rx="133.8" ry="12.5"/>
<ellipse class="st1" cx="501.4" cy="683.8" rx="94.3" ry="9.7"/>
<ellipse class="st1" cx="296.7" cy="683.8" rx="94.3" ry="9.7"/>
<ellipse class="st1" cx="206.8" cy="676.8" rx="105.6" ry="9.7"/>
<ellipse class="st1" cx="636.7" cy="676.8" rx="105.6" ry="9.7"/>
<g id="Layer_9">
	<path class="st2" d="M158,664.9h-16l2.6-275.7l103.7,11.7l26.1,264h-16L199,430.1c0,0-3.3-5.7-7.5,0L158,664.9h-16"/>
	<path class="st3" d="M143.2,294c0,0,9.1,61,1.5,95.3c0,0,42.8,29.7,103.7,11.7l3.8-91.7l20.8,19.8l21,77.1l10.8-0.8l-5.7-86.5
		l-47.3-65c0,0-7.9-6.3-45.5-5.7c0,0-14.7,12.2-25.4,0c-11.2-3.5-24.1-4.7-35.1-0.7c-14.4,9.8-50.3,47.3-67.4,73.4
		c-3.5,5.4-2.1,12.6,3.1,16.3c12.6,8.9,35.7,25.2,50.9,35.3l8.1-9.9l-35.1-39L143.2,294z"/>
	<path class="st4" d="M293.8,406.1c-12.7,8.8,0.4,8.2,0.4,8.2s4.6,16.2,8.6,15.8c5.5-0.5,1.8-24.8,1.8-24.8L293.8,406.1z"/>
	<polygon class="st5" points="258.5,664.9 258.5,678.7 265.9,678.7 265.9,675.3 270.6,678.7 305.4,678.7 305.4,678.7 274.5,664.9 	
		"/>
	<polygon class="st5" points="158,664.9 158,678.7 150.5,678.7 150.5,675.3 145.8,678.7 111.1,678.7 111.1,678.7 142,664.9 	"/>
	<path class="st4" d="M183.2,238.2L169.4,252l20.8,2.5c0,0,10.7-11.9,1.3-15.1L183.2,238.2z"/>
	<polygon class="st4" points="195.7,254.8 217.2,256 209.7,241.8 197.3,240.1 	"/>
	<path class="st5" d="M190.2,252.6l-11.5,91.1l15.5,18.9L207,342l-12.7-89C194.3,253,192.6,248.5,190.2,252.6z"/>
	<path class="st4" d="M208.1,243.2c0.4,0.6,0.3,1.4-0.3,1.8c-2.8,3-5.9,5.7-9.2,8.1c-1.9,1.4-4.4,2.8-6.7,1.9
		c-1.4-0.6-2.6-1.6-3.4-2.9l-4.1-5c1.9-1.3,1.9-4.1,1.7-6.4c-0.3-3.1-0.8-6.1-1.4-9.1c5-3.8,10.8-6.3,17-7.2c2.1-0.3,3.2,0,3.3,2.2
		c0,1.9,0.1,3.8,0.3,5.7C205.6,236.1,206.6,239.8,208.1,243.2z"/>
	<path class="st4" d="M203.9,232.4c-5.6,3.6-12.5,6.6-18.8,4.5c-4.7-1.6-8-5.6-10.4-10c-2.3-4.7-4.2-9.7-5.5-14.7
		c-1.1-3.1-1.8-6.4-2-9.8c0-4.8,1.9-9.3,3.8-13.7c3.1-7.2,6.7-14.9,13.5-18.8c4-2,8.3-3.3,12.7-3.8c3.2-0.7,6.5-0.9,9.8-0.6
		c2.7,0.4,5.4,1.4,7.8,2.8c6.9,3.7,12.3,9.8,15,17.1C236.7,204.9,218.8,222.7,203.9,232.4z"/>
	<path class="st6" d="M203.1,189.9c3.8,0.6,6.7,3.7,7,7.5"/>
	<path class="st6" d="M176.2,186.2c2.9-2.5,7.2-2.7,10.3-0.4"/>
	<path class="st4" d="M186.3,210.3c-1.1-0.8-2.2-1.6-3.3-2.5c-0.3-0.2-0.5-0.4-0.6-0.7c-0.2-0.8,0-1.7,0.6-2.3l2.4-3.6"/>
	
		<ellipse transform="matrix(0.4862 -0.8739 0.8739 0.4862 -71.7628 276.5661)" class="st2" cx="199.3" cy="199.3" rx="2.4" ry="1.9"/>
	
		<ellipse transform="matrix(0.4862 -0.8739 0.8739 0.4862 -77.4695 257.1469)" class="st2" cx="179.9" cy="194.4" rx="2.4" ry="1.9"/>
	<path class="st5" d="M219.1,204.9c0,0,6.3,0.7-2.8,10c0,0,1.2,7.1-3.1,10.6c0,0,10.9-2.2,23.2-23c0,0,5.9-19.4-6.8-31.2
		c0,0-16.1-15.9-38.1-8.6c0,0-23.4,8.3-22.4,30.6c0,0,7.2-16.5,17.6-21.8c0,0,16.5,9.6,24.7,7.6C211.5,179,218.9,183.3,219.1,204.9z
		"/>
	<path class="st7" d="M178.4,216.2c0,0,4.6,6.7,14.3,2.8C192.6,219,185.2,229.5,178.4,216.2z"/>
	<path class="st7" d="M196.5,215.2c0.6,1,0.7,2.2,0.2,3.2"/>
	<path class="st7" d="M179.4,191.4c2.2,0.7,4,2.6,4.6,4.9"/>
	<path class="st7" d="M199.5,196c1.6,1.2,2.8,3,3.3,5"/>
	<path class="st4" d="M140.4,362.6c4.1,0,8.1,0.5,12.1,1.6c10.5,3.1,13.5,12.6,10.2,15.8c-3,2.9-12,1.2-14.5-1.4
		c-3.9-4.2-7.8,1-13-3.5l-2.9-2.5L140.4,362.6z"/>
</g>
<g id="Layer_9-2">
	<path class="st2" d="M586.8,664.2h-16l2.6-275.7l103.8,11.7l26.1,264h-16l-59.5-234.8c0,0-3.3-5.7-7.5,0L586.8,664.2h-16"/>
	<path class="st3" d="M716.5,322.9l-35.1,38.9l8.1,9.9c15.2-10,38.3-26.3,50.9-35.3c5.2-3.7,6.6-10.9,3.1-16.3
		c-17.1-26.1-53-63.6-67.3-73.4c-11-4-23.9-2.9-35.1,0.7c-10.8,12.2-25.4,0-25.4,0c-37.7-0.6-45.6,5.7-45.6,5.7l-47.3,65l-5.7,86.5
		l10.8,0.8l21-77.1l20.8-19.8l3.8,91.7c60.9,17.9,103.7,0,103.7,0c-7.6-34.3,1.5-107,1.5-107L716.5,322.9z"/>
	<path class="st4" d="M517.2,404.6c0,0-3.7,24.3,1.8,24.8c4,0.3,8.6-15.9,8.6-15.9s13.1,0.6,0.4-8.2L517.2,404.6z"/>
	<polygon class="st5" points="687.3,664.2 687.3,678 694.8,678 694.8,674.6 699.4,678 734.2,678 734.2,678 703.3,664.2 	"/>
	<polygon class="st5" points="586.8,664.2 586.8,678 579.4,678 579.4,674.6 574.7,678 539.9,678 539.9,678 570.8,664.2 	"/>
	<path class="st4" d="M612,237.4l-13.8,13.8l20.8,2.5c0,0,10.8-11.9,1.3-15.1L612,237.4z"/>
	<polygon class="st4" points="624.6,254.1 646,255.3 638.6,241 626.2,239.3 	"/>
	<path class="st5" d="M619.1,251.8l-11.5,91.1l15.4,18.9l12.8-20.6l-12.7-89C623.1,252.2,621.4,247.7,619.1,251.8z"/>
	<path class="st4" d="M636.9,242.5c0.2,0.3,0.2,0.7,0.2,1c-0.1,0.3-0.3,0.6-0.5,0.8c-2.8,3-5.9,5.7-9.2,8.1
		c-1.9,1.4-4.4,2.8-6.7,1.9c-1.4-0.6-2.6-1.6-3.4-2.9l-4.1-5c1.9-1.3,1.9-4.1,1.7-6.4c-0.3-3.1-0.8-6.1-1.4-9.1
		c5-3.8,10.8-6.3,17-7.2c2.1-0.3,3.2,0,3.3,2.2c0,1.9,0.1,3.8,0.3,5.7C634.5,235.4,635.4,239,636.9,242.5z"/>
	<path class="st4" d="M632.7,231.7c-5.6,3.6-12.5,6.6-18.8,4.5c-4.7-1.6-8-5.7-10.3-10c-2.3-4.7-4.2-9.7-5.5-14.8
		c-1.1-3.1-1.8-6.4-2-9.8c0-4.8,1.9-9.3,3.8-13.7c3.1-7.2,6.7-14.9,13.5-18.8c4-2,8.3-3.3,12.7-3.8c3.2-0.7,6.5-0.9,9.8-0.6
		c2.7,0.4,5.4,1.4,7.8,2.8c6.9,3.7,12.3,9.8,15,17.1C665.5,204.1,647.6,221.9,632.7,231.7z"/>
	<path class="st6" d="M631.9,189.1c3.8,0.6,6.7,3.7,7,7.5"/>
	<path class="st6" d="M605,185.4c2.9-2.5,7.2-2.7,10.3-0.4"/>
	<path class="st4" d="M615.1,209.5c-1.1-0.8-2.2-1.6-3.3-2.5c-0.3-0.2-0.5-0.4-0.6-0.7c-0.2-0.8,0-1.7,0.6-2.3l2.4-3.6"/>
	
		<ellipse transform="matrix(0.4862 -0.8739 0.8739 0.4862 149.2675 650.8618)" class="st2" cx="628.1" cy="198.5" rx="2.4" ry="1.9"/>
	
		<ellipse transform="matrix(0.4907 -0.8713 0.8713 0.4907 138.2963 632.1107)" class="st2" cx="609.9" cy="197.8" rx="2.4" ry="1.9"/>
	<path class="st5" d="M647.9,204.1c0,0,6.3,0.7-2.8,10c0,0,1.2,7.1-3.1,10.6c0,0,10.8-2.2,23.2-23c0,0,5.8-19.3-6.8-31.2
		c0,0-16.1-15.9-38.1-8.6c0,0-23.4,8.3-22.4,30.6c0,0,7.2-16.5,17.6-21.8c0,0,16.5,9.6,24.7,7.6
		C640.4,178.2,647.7,182.5,647.9,204.1z"/>
	<path class="st7" d="M607.2,215.4c0,0,4.7,6.7,14.3,2.8C621.4,218.3,614,228.7,607.2,215.4z"/>
	<path class="st7" d="M625.3,214.4c0.6,1,0.7,2.2,0.2,3.2"/>
	<path class="st7" d="M608.3,190.6c2.2,0.7,4,2.6,4.6,4.9"/>
	<path class="st7" d="M628.3,195.2c1.6,1.2,2.8,3,3.3,5"/>
	<path class="st4" d="M681.4,361.8c-4.1,0-8.1,0.5-12,1.6c-10.5,3.1-13.5,12.6-10.2,15.8c3,2.9,12,1.2,14.5-1.4
		c3.9-4.2,7.8,1,13-3.5l2.9-2.5L681.4,361.8z"/>
</g>
<g id="Layer_8">
	<path class="st4" d="M318.5,290.5c0.1,0.3,0.1,0.6,0.1,0.9c-0.1,0.3-0.3,0.5-0.6,0.7c-2.9,2.4-6.1,4.5-9.4,6.2c-2,1-4.4,2-6.4,1
		c-1.2-0.8-2.1-1.8-2.8-3.1l-3.1-5.2c1.9-1,2.3-3.5,2.4-5.6c0.1-2.8,0.1-5.7-0.1-8.5c5-2.8,10.7-4.3,16.4-4.3c2,0,2.9,0.4,2.7,2.5
		c-0.3,1.7-0.4,3.5-0.5,5.3C317.2,283.7,317.7,287.2,318.5,290.5z"/>
	<path class="st8" d="M330.9,668.8h10.6c0,0,9.3-180.1,7.3-221.5c-1.3-26.1-15.8-39.8-15.8-39.8h-57.6c0,0-14.5,13.7-15.8,39.8
		c-2,41.4-15.3,221.5-15.3,221.5h12.4c0,0,42.6-217.2,47.6-214.9C304.2,453.9,324.7,545.3,330.9,668.8z"/>
	<path class="st5" d="M258.2,667.1v20.2h-3l-2.1-8.4l-5.3,8.5h-29.6c11.4-2.4,21.1-9.8,26.5-20.2L258.2,667.1z"/>
	<path class="st5" d="M329,667.1v20.2h3l2.1-8.5l5.3,8.5H369c-11.4-2.4-21.2-9.8-26.5-20.2H329z"/>
	<path class="st2" d="M314.2,277.7L314.2,277.7l0.7,3.9l3.9,4.5c0.4,0.4,0.6,0.8,0.8,1.3c4.3,2.4,8.8,4.6,13.4,6.5
		c4.8,2.3,8.4,4.4,11,7.4c-0.3-7.5-1-15-1.7-22.5c-0.6-7-1.7-14-2.6-21c-0.8-6.5,1.3-11.7,1.8-18.2c1.4-19-5.7-34.6-24-40.8
		c-17.2-5.9-34.3,6.2-39.5,22.5c-0.6,2-1.1,4-1.5,6.1c-1.1,5.6-1.6,11.3-3.6,17c-2.8,8.1-6.3,15.9-10.6,23.4
		c-2.1,3.6-14,25.2-10,30.4L314.2,277.7z"/>
	<path class="st9" d="M264.7,323.4c0,0-2.7,2.8,8.5,50.9c3.1,13.5-5.6,36.4-8,48.9c0,0.1,48.6,16.4,77.1-2
		c-4.2-5.5-10.7-25.1-10.2-44.4c0.4-14.8,6.9-29.2,9.2-38.5l2.1-8.8l26.6,82.8l11.9-1.6c-13.6-88-27.8-117.9-27.8-117.9
		c-8.2-4.7-32-14.5-32-14.5c-6.4,4.6-13.9,3.3-21.2,0.4c-5-4-40.6,6.5-45.5,12.1c-14,22.3-30.6,43.8-40.8,56.3
		c-4.2,5.2-3.4,12.8,1.8,17c0.6,0.5,1.2,0.9,1.9,1.2l44.5,23.9l1.5-9.5l-27.2-27.3L264.7,323.4z"/>
	<path class="st9" d="M271.6,336.6c0,0,7.9,16.4,26.6,7.4"/>
	<path class="st9" d="M339.2,336.6c0,0-7.9,16.4-26.6,7.4"/>
	<path class="st4" d="M371.3,412.4c-11,9,1,7.5,1,7.5s5.4,14.5,9.1,13.8c5-0.9-0.3-22.9-0.3-22.9L371.3,412.4z"/>
	<g id="Layer_7-2">
		<path class="st4" d="M304.7,289.4c2.6-0.1,9.5-4.6,13.2-9.5l2.9-5.3c0-0.1,0,1.8,0,1.7c-2.1,0.9-4.3-8.6-3.8-12.4
			c-0.6,0.5,4.1-13.9,3.5-13.4l-5.5,7.1c-3.3,3-2.4,3.4-5.7,3.3c-3.3,0.1-7.9,7.3-11.3,4.4l-0.9-0.8c-2.5-2.1-4.8-4.6-6.7-7.3
			c0,0.3,1,3.2,1,3.4c0.7,5.7,0,10.2-2.9,14.2l2.8,5.1C294.8,284.6,302.1,289.4,304.7,289.4z"/>
		<path class="st4" d="M297.4,211.1c-0.9,2.4,5.2,7.4,6.7,9.1c1.9,1.9,3.9,3.7,6.1,5.4l0,0c0.2,0,6.3,7.2,9.6,10.3
			c3.4,3,6.4,6.4,9.1,10c-1.2,2.5-3.5,6.6-6,6.1c-0.8-0.1-1.4,0.6-1.8,1.4c-1,2.3-2.4,5.1-4.3,6.8c-4.8,3.1-10.1,5.5-15.7,7
			c-8.8,2.2-14.7-9.4-14.7-9.4c-3.5-7-4.8-14.8-3.7-22.5C284.8,222.7,297.4,211.1,297.4,211.1z"/>
		<path class="st10" d="M311.1,298.8l-2-2.4l-1.6,2.9c-0.3,0.6-0.4,1.4-0.3,2.1l2.8,12.7l1.7-5.8l1.9-5.5l-1.1-1.9
			C312.2,300.2,311.7,299.5,311.1,298.8z"/>
		<path class="st10" d="M296.7,301l-1.1,1.9l1.9,5.5l1.7,5.8l2.8-12.7c0.2-0.7,0-1.4-0.3-2.1l-1.5-2.9l-2,2.4
			C297.6,299.5,297.1,300.2,296.7,301z"/>
		<path class="st9" d="M310.1,314.2l-2.8-12.7c-0.2-0.7,0-1.4,0.3-2.1l1.6-2.9l-4.5-5.6l-4.5,5.6l1.6,2.9c0.3,0.6,0.4,1.4,0.3,2.1
			l-2.8,12.7l3.5,11.5c1.3,0,2.6,0,3.9-0.1L310.1,314.2z"/>
		<path class="st4" d="M320.8,274.6l-2.9,5.3c-3.7,4.9-10.6,9.5-13.2,9.5s-9.9-4.8-13.2-9.5l-2.8-5.1l-0.1-0.3l-1.3,3.7l0.1-0.1
			l8.3,24.7l1.1-1.9c0.4-0.8,1-1.5,1.5-2.1l2-2.4l4.5-5.6l4.5,5.6l2,2.4c0.6,0.7,1.1,1.4,1.5,2.1l1.1,1.9l8.3-24.7l0.1,0.1
			L320.8,274.6L320.8,274.6z"/>
		<path class="st4" d="M329.8,309.4l-6.2-11.1l8.4,0.9c-0.8-2.3-2.3-12.4-4.3-16c-0.2-0.5-0.6-0.9-1-1.2l-4.6-3.7l-0.1-0.1
			l-8.3,24.7l-1.9,5.5l-1.8,5.8l-10.2,42.2L329.8,309.4z"/>
		<path class="st4" d="M305.4,333.6l-6.1-19.5l-1.7-5.8l-1.9-5.5l-8.3-24.7l-0.1,0.1l-3.9,3.2l-0.7,0.6c-2.5,1.3-4.4,14.5-5.3,17.2
			l8.4-0.9l-6.2,11.1c-0.2,0.4,17.8,27.7,23.1,35.6L305.4,333.6z"/>
		<path class="st7" d="M309.9,231.7c2.7,0.3,5.1,1.7,6.7,3.9"/>
		<path class="st7" d="M289.4,229.4c2.5-1,5.3-1,7.7,0.2"/>
		<circle class="st2" cx="309.5" cy="237.6" r="2"/>
		<circle class="st2" cx="291.1" cy="234.1" r="2"/>
		<path class="st7" d="M292.5,252.8c0,0,5.3,7.3,12.9,2.9"/>
		<path class="st7" d="M302.8,237.6c-0.2,1.9-0.8,3.8-1.8,5.5c-0.7,1.3-1.6,2.5-2.4,3.7c-0.4,0.6-0.7,1.3-0.7,2.1s0.7,1.4,1.4,1.4
			l0,0"/>
		<path class="st4" d="M264.3,379.8c0,0,19.6-1.8,20.6,13.1c0,0-3.3,6.4-12.1-1.2c-5-4.2-4.8,0.3-9.9-2.5"/>
		<path class="st7" d="M307.8,235.6c0,0,3.7-0.8,6.5,3.2"/>
		<path class="st7" d="M295,235.4c0,0-3.2-5.7-6.7-2.4"/>
	</g>
</g>
<g id="Layer_8-2">
	<path class="st4" d="M533.3,290.5c0.1,0.3,0.1,0.6,0.1,0.9c-0.1,0.3-0.3,0.5-0.6,0.7c-2.9,2.4-6.1,4.5-9.4,6.2c-2,1-4.4,2-6.4,1
		c-1.2-0.7-2.1-1.8-2.8-3.1l-3.1-5.2c1.9-1,2.3-3.5,2.4-5.6c0.1-2.8,0.1-5.7-0.1-8.5c5-2.8,10.7-4.3,16.4-4.3c2,0,2.9,0.4,2.7,2.5
		c-0.3,1.7-0.4,3.5-0.5,5.3C532,283.7,532.4,287.2,533.3,290.5z"/>
	<path class="st8" d="M545.7,668.8h10.6c0,0,9.3-180.1,7.3-221.5c-1.3-26.1-15.8-39.8-15.8-39.8h-57.7c0,0-14.5,13.7-15.8,39.8
		c-2,41.4-15.3,221.5-15.3,221.5h12.3c0,0,42.6-217.2,47.6-214.9C519,453.9,539.5,545.3,545.7,668.8z"/>
	<path class="st5" d="M472.9,667.1v20.2h-3l-2.1-8.4l-5.3,8.5h-29.6c11.4-2.4,21.1-9.8,26.5-20.2L472.9,667.1z"/>
	<path class="st5" d="M543.8,667.1v20.2h3l2.1-8.5l5.3,8.5h29.6c-11.4-2.4-21.2-9.8-26.5-20.2H543.8z"/>
	<path class="st2" d="M528.9,277.7L528.9,277.7l0.7,3.9l3.9,4.5c0.4,0.4,0.6,0.8,0.8,1.3c4.3,2.4,8.8,4.6,13.4,6.5
		c4.8,2.3,8.4,4.4,11,7.4c-0.3-7.5-1-15-1.7-22.5c-0.7-7-1.7-14-2.6-21c-0.8-6.5,1.3-11.7,1.8-18.2c1.4-19-5.7-34.6-24-40.8
		c-17.2-5.9-34.3,6.2-39.5,22.5c-0.6,2-1.1,4-1.5,6.1c-1.1,5.6-1.6,11.3-3.6,17c-2.8,8.1-6.4,15.9-10.6,23.4
		c-2.1,3.6-14,25.2-10,30.4L528.9,277.7z"/>
	<path class="st9" d="M558.5,323.4c0,0,2.7,2.8-8.5,50.9c-3.1,13.5,5.7,36.4,8.1,48.9c0,0.1-48.7,16.4-77.1-2
		c4.2-5.5,10.7-25.1,10.2-44.4c-0.4-14.8-6.9-29.2-9.2-38.5l-2.2-8.8l-26.6,82.8l-11.9-1.6c13.7-88,27.9-117.9,27.9-117.9
		c8.2-4.7,32-14.5,32-14.5c6.4,4.6,13.8,3.3,21.2,0.4c5-4,40.6,6.5,45.5,12.1c14,22.3,30.6,43.8,40.7,56.3c4.2,5.2,3.4,12.8-1.8,17
		c-0.6,0.5-1.2,0.9-1.9,1.2l-44.5,23.9l-1.5-9.4l27.3-27.3L558.5,323.4z"/>
	<path class="st9" d="M551.7,336.6c0,0-7.9,16.4-26.6,7.4"/>
	<path class="st9" d="M484.1,336.6c0,0,7.9,16.4,26.6,7.4"/>
	<path class="st4" d="M452,412.4c11,9-1,7.5-1,7.5s-5.4,14.5-9.1,13.8c-5-0.9,0.3-22.9,0.3-22.9L452,412.4z"/>
	<g id="Layer_7-3">
		<path class="st4" d="M519.4,289.4c2.6-0.1,9.5-4.6,13.2-9.5l2.9-5.3c0-0.1,0,1.8,0,1.7c-2.2,0.9-4.3-8.6-3.8-12.4
			c-0.6,0.5,4.1-13.9,3.5-13.4l-5.5,7.1c-3.3,3-2.4,3.4-5.7,3.3c-3.3,0.1-8,7.3-11.3,4.4l-0.9-0.8c-2.5-2.1-4.8-4.6-6.7-7.3
			c0,0.3,1,3.2,1,3.4c0.7,5.7,0,10.2-2.9,14.2l2.8,5.1C509.5,284.6,516.8,289.4,519.4,289.4z"/>
		<path class="st4" d="M512.2,211.1c-0.9,2.4,5.2,7.4,6.7,9.1c1.9,1.9,3.9,3.7,6.1,5.4l0,0c0.2,0,6.3,7.2,9.6,10.3
			c3.4,3,6.4,6.4,9.2,10c-1.2,2.5-3.5,6.6-6,6.1c-0.8-0.1-1.4,0.6-1.8,1.4c-1,2.3-2.4,5.1-4.3,6.8c-4.8,3.1-10.1,5.5-15.7,7
			c-8.8,2.2-14.7-9.4-14.7-9.4c-3.5-7-4.8-14.8-3.7-22.5C499.6,222.7,512.2,211.1,512.2,211.1z"/>
		<path class="st10" d="M512.2,298.8l2-2.4l1.6,2.9c0.3,0.6,0.4,1.4,0.3,2.1l-2.8,12.7l-1.8-5.8l-1.8-5.5l1.1-1.9
			C511.1,300.2,511.6,299.5,512.2,298.8z"/>
		<path class="st10" d="M526.6,301l1.1,1.9l-1.8,5.5l-1.8,5.8l-2.8-12.7c-0.2-0.7-0.1-1.4,0.3-2.1l1.6-2.9l2,2.4
			C525.6,299.5,526.1,300.2,526.6,301z"/>
		<path class="st9" d="M513.1,314.2l2.8-12.7c0.2-0.7,0.1-1.4-0.3-2.1l-1.6-2.9l4.5-5.6l4.5,5.6l-1.6,2.9c-0.3,0.6-0.4,1.4-0.3,2.1
			l2.8,12.7l-3.5,11.5c-1.3,0-2.6,0-3.9-0.1L513.1,314.2z"/>
		<path class="st4" d="M504.2,273.7l2.8,5.6c3.7,4.9,9.1,9.2,11.7,9.3s9.8-4.1,13.2-8.8l2.8-5.1l0.2-0.3l1.3,3.7l-0.1-0.1l-8.3,24.7
			l-1.1-1.9c-0.4-0.8-1-1.5-1.5-2.1l-2-2.4l-4.5-5.6l-4.5,5.6l-2,2.4c-0.6,0.7-1.1,1.4-1.5,2.1l-1.1,1.9l-8.3-24.7l-0.1,0.1l1.6-2.6
			L504.2,273.7z"/>
		<path class="st4" d="M493.4,309.4l6.2-11.1l-8.4,0.9c0.7-2.3,2.3-12.4,4.3-16c0.2-0.5,0.6-0.9,1-1.2l4.7-3.7l0.1-0.1l8.3,24.7
			l1.9,5.5l1.7,5.8l10.3,42.2L493.4,309.4z"/>
		<path class="st4" d="M517.9,333.6l6.2-19.5l1.8-5.8l1.9-5.5l8.3-24.7l0.1,0.1l3.9,3.2l0.7,0.6c2.5,1.3,4.4,14.5,5.3,17.2l-8.4-0.9
			l6.2,11.1c0.2,0.4-17.8,27.7-23.1,35.6L517.9,333.6z"/>
		<path class="st7" d="M524.7,231.7c2.7,0.3,5.1,1.7,6.7,3.9"/>
		<path class="st7" d="M504.2,229.4c2.5-1,5.3-1,7.7,0.2"/>
		<circle class="st2" cx="524.2" cy="237.6" r="2"/>
		<circle class="st2" cx="505.8" cy="234.1" r="2"/>
		<path class="st7" d="M507.2,252.8c0,0,5.3,7.3,12.9,2.9"/>
		<path class="st7" d="M517.5,237.6c-0.2,1.9-0.8,3.8-1.8,5.5c-0.7,1.3-1.6,2.5-2.4,3.7c-0.4,0.6-0.7,1.3-0.7,2.1s0.7,1.4,1.4,1.4
			l0,0"/>
		<path class="st4" d="M558.9,379.8c0,0-19.6-1.8-20.6,13.1c0,0,3.3,6.4,12.1-1.2c5-4.2,4.8,0.3,9.9-2.5"/>
		<path class="st7" d="M522.5,235.6c0,0,3.7-0.8,6.5,3.2"/>
		<path class="st7" d="M509.8,235.4c0,0-3.2-5.7-6.7-2.4"/>
	</g>
</g>
<path class="st2" d="M443.5,312.6c21,10.4,47.7-21.8,47.7-21.8s13.9-7.9,12.9-20.9c0,0-5.7,11.1-24.1-3.1
	c-9.1-7.2-13.7-18.6-20.7-27.9c0,0-13-16.4-32.3-21.2c0,0-14.9-5.8-32.6,4.1c0,0-16.4,8.6-16.9,26.6c0,0-3.1,22.4,18.7,39.9
	c4.4,3.4,8.1,7.7,10.9,12.5l32.9,9.4"/>
<path class="st4" d="M394.6,453c0,0,37.6,189.9,41.9,229.4l13,6.2l-5.1-245.1C444.3,443.6,409.8,406.8,394.6,453z"/>
<path class="st4" d="M394.6,471.3c0,0-92.8,179.3-109.1,215.5h-12.4l77.1-239.9C350.2,446.9,394.4,422.6,394.6,471.3z"/>
<path class="st11" d="M436.5,682.4l-2,25.2h3.9l2.8-11l6.9,11h38.7c-14.9-3.1-30.5-12.8-37.4-26.3l-2.8-133.6l-27.1,31.5
	L436.5,682.4z"/>
<path class="st11" d="M274.8,681.3c-7,13.6-23.3,23.2-38.2,26.3h38.7l6.9-11l2.8,11h3.9l-1.4-26.3L342.8,572l-22.5-32.2L274.8,681.3
	z"/>
<path class="st12" d="M313,342.3c0,0-24.6,30.2,81.6,50c77.2,14.5,87.5-16.5,87.5-16.5s-30.9-66.5-53.9-67S367.9,300.7,313,342.3z"
	/>
<path class="st4" d="M351.6,340l-26.2,21.2l30.7,36.6l-5.5,8l-47.5-40.3c-3.7-3.1-4.1-8.6-1-12.3c0.3-0.4,0.7-0.7,1.1-1.1l47.4-37
	L351.6,340z"/>
<polygon class="st13" points="320.6,380.5 350.6,405.9 356.1,397.8 332.1,369.1 "/>
<polygon class="st4" points="427.2,318.3 458.1,396.5 489.7,448.1 497.7,442.4 471.9,384.2 446.4,311.2 "/>
<path class="st4" d="M374.7,302.4c0,0,19.7,2.2,22.9-6.2s-1.6-13-1.6-13l18.5,2.3c0,0-0.6,13.9,11.8,16.5c0,0,12.7,31.5,9.2,46.3
	c-5.8,24.8-30.4,38.5-40.9,40.7c-10.1,2.1-31.8-22-34.1-46.4C358.9,326.5,375.5,309.8,374.7,302.4z"/>
<polygon class="st13" points="467.4,411.8 489.7,448.1 497.7,442.4 480.9,404.6 "/>
<path class="st11" d="M482.1,375.9l-36.3-67.2c-2.1-1.7-4.6-2.9-7.2-3.6l-12.3-3.2c0,0-13.5,10.4-26,10.4c-9.5,0-12.3-5-13-10.4
	l-12.7,0.5c-3.4-0.1-6.7,0.7-9.6,2.5l-52.1,37.5c0,0-2.2,33.2,29,31c0,0,21.3-61.3,58.4-55.6c0,0,21.6,5.1,32.1,18.3
	C442.9,349.3,456.6,387,482.1,375.9z"/>
<path class="st9" d="M433.9,399.1c5,11.4,37.9,61.4,37.9,61.4s-30.4,27-66.9,27.9s-76-28.3-76-28.3s33.1-56.6,32.2-62.3
	C361.2,397.8,392.1,417,433.9,399.1z"/>
<path class="st4" d="M419.4,283.2c-4.9,4-11,7.5-17.1,6.1c-4.5-1-8.1-4.5-10.7-8.3c-2.7-4.2-4.9-8.6-6.7-13.3
	c-1.4-2.8-2.3-5.9-2.8-9c-0.5-4.5,0.9-8.9,2.2-13.1c2.2-7.1,4.8-14.6,10.8-19c3.5-2.3,7.4-3.9,11.5-4.8c3-1,6-1.5,9.2-1.6
	c2.6,0.1,5.2,0.8,7.6,1.8c6.8,2.8,12.4,8,15.7,14.6C447.5,254.1,432.4,272.6,419.4,283.2z"/>
<path class="st5" d="M435.7,270.6c0,0-16.9-22.3-10.9-39.4c0,0-11.6,5.6-18.6,5.7c0,0-18.2-1.1-21.8,12.5c-0.2,0.9-0.3,1.8-0.3,2.7
	c0.2,2.9,0.5,10.4-1.7,13.8l-2.1-6.5l1.3-14.6l10.8-18.1l13.1-8.1l16.2,1.1l12.3,6.1l11.3,19.8l-4.1,17.7L435.7,270.6z"/>
<path class="st4" d="M420.4,254.3c-0.8,0.2-1.6,0-2.2-0.5s-1.2-1.1-1.7-1.6c-0.4-0.4-0.9-0.8-1.3-1.1c-0.5-0.3-1-0.6-1.5-0.8
	c-1.5-0.3-3,0.1-4.1,1s-2.1,2.1-2.9,3.3"/>
<path class="st4" d="M398.6,251.6l-1.2-1.4c-0.9-1.2-2.2-2-3.6-2.4c-1.2,0-2.4,0.3-3.5,0.9c-1.1,0.5-2.4,0.5-3.5-0.2"/>
<path class="st4" d="M407.6,246.6c3.8-2.7,8.9-2.5,12.4,0.5"/>
<path class="st4" d="M400.1,245c-2.2-2.4-5.4-3.5-8.6-2.9"/>
<path class="st4" d="M401.6,266.8c-1.1-0.6-2.3-1.3-3.3-2c-0.3-0.2-0.5-0.4-0.7-0.6c-0.3-0.7-0.1-1.5,0.3-2.2l1.9-3.6"/>
<path class="st4" d="M404.5,278.8c-0.9,0.2-1.7,0.5-2.5,0.9c-0.3,0.2-0.5,0.3-0.8,0.5c-1.2,0.2-2.4-0.5-2.9-1.7
	c-0.3-1.2-0.6-2.4-0.8-3.6c-0.4-0.9-0.8-1.9-1-2.9c-0.1-0.3,0-0.6,0.1-0.8c0.4-0.5,0.9-0.6,1.5-0.5c3.9,0.4,7.6,1.7,10.9,3.7
	c0.1,0.1,0.2,0.1,0.3,0.3c0.4,0.6-1,2.1-1.4,2.6C406.8,277.9,405.7,278.5,404.5,278.8z"/>
<path class="st14" d="M398.5,280.9c1.1,0.6,2.3,0.8,3.5,0.5s2.3-0.9,3.3-1.6c0.8-0.5,1.5-1.1,2.3-1.6c0.6-0.4,1.1-0.9,1.6-1.5
	s0.7-1.3,0.6-2c-1.2,1-2.5,1.9-3.9,2.5c-1.8,1-3.9,1.3-6,1.1c-0.7-0.1-1.8-0.7-2.4,0S397.7,280.4,398.5,280.9z"/>
<path class="st14" d="M395.8,269.7c2.5-0.8,5.1-0.6,7.5,0.5c2.3,1.1,4.5,2.4,6.5,4c0.1,0.1,0.3,0.2,0.2,0.4s-0.2,0.2-0.4,0.1
	c-2.4,0.2-4.7-1-7-1.8c-1.9-0.6-3.8-0.8-5.8-0.7C395.3,272.3,393.5,270.5,395.8,269.7z"/>
<ellipse transform="matrix(0.3915 -0.9202 0.9202 0.3915 18.1956 532.6178)" class="st2" cx="411.8" cy="252.6" rx="2.2" ry="1.8"/>
<ellipse transform="matrix(0.3915 -0.9202 0.9202 0.3915 9.324 513.8373)" class="st2" cx="393.2" cy="249.9" rx="2.2" ry="1.8"/>
<path class="st3" d="M387.4,243.5c5.4-1.9,11.3-1.3,16.2,1.5c8.1-3,16-1.1,21.6,4.9c0,0-1.9-8.3-1.5-13.9
	c-3.8-2.6-12.6-2.8-16.5-8.4c-3.8,3.7-8.7,4.3-13.5,4.9C393.8,232.4,386.9,237.4,387.4,243.5z"/>
<path class="st11" d="M433.9,399.1c0,0-9.9-20.5-7.5-26.6s8.2-15.8,9.2-24.3s-18-23.2-39.3-9.8c0,0-23.1-18.6-36.5,5.3
	c0,0,4.1,18.9,6.1,26.8s-4.7,27.3-4.7,27.3S391.8,417.2,433.9,399.1z"/>
<path class="st3" d="M365.8,370.5c0,0,0.4,1.9,5,1.9s21-1.9,24.6,6c0,0,5.4-8,18.9-5.6s12-0.3,12-0.3c0.9,2.4,1,5,0.3,7.4
	c0,0-24.3-0.5-31.2,6.6c-8.7-5.9-19.2-8.5-29.6-7.5C365.1,376.2,365.1,373.3,365.8,370.5z"/>
<path class="st3" d="M372.2,332c-0.4,4.3,4.8,8.6,4.8,8.6c-0.4,4.3,3.8,6,3.8,6c0.2,2.5,3.1,4.3,4.9,5.2s4.1,10.3,4.1,10.3
	c1.9-1.2,4.6-6.2,4.6-6.2c0.1,1.6,4.2,6.9,4.2,6.9s2.6-9.3,5.9-10.9c2-1,3.6-2.6,4.5-4.6c4.2-1.7,4.6-6.4,4.6-6.4
	c4.2-1.2,4.3-8,4.3-8s-14-1.7-21.6,5.6C396.2,338.4,384.1,328.6,372.2,332z"/>
<circle class="st3" cx="397.9" cy="315.2" r="3.7"/>
<path class="st4" d="M489.7,448.1c0,0-1.1,15,1.7,12.7c0.6-0.5,1.5-2.7,2-2.6c1.8,0.4,2.9,7.3,5,8.9c2.7,2.1,7.9-6.9-0.7-24.6
	L489.7,448.1z"/>
<path class="st4" d="M356.2,397.8c2.8,0,5.6,0.4,8.3,1.3c7.3,2.5,9.3,10.3,7,12.9c-2.1,2.4-8.3,1-10-1.1c-2.7-3.4-5.4,0.8-9-2.8
	l-2-2.1L356.2,397.8z"/>
<g class="st15">
	<path d="M211.4,91.3c-0.4-3.9-3-5.6-6.8-5.6c-3.1,0-6.1,1.1-6.1,4.7c0,6.7,17.4,2,17.4,12.7c0,5.8-5.7,8.1-10.6,8.1
		c-6.1,0-11.3-3-11.3-9.6h3.4c0,4.6,3.8,6.6,7.9,6.6c3.3,0,6.9-1,6.9-5c0-7.5-17.4-2.6-17.4-12.6c0-5.5,4.9-8,9.9-8
		c5.6,0,9.8,2.6,10,8.6L211.4,91.3L211.4,91.3z"/>
	<path d="M219.8,90.9h3.1v2.9h0.1c1.5-2.2,3.6-3.4,6.4-3.4c2.4,0,4.6,0.9,5.4,3.4c1.3-2.1,3.6-3.4,6.2-3.4c3.9,0,6.6,1.6,6.6,5.7
		v14.5h-3.4V97.7c0-2.4-0.6-4.4-3.8-4.4s-5.1,2-5.1,5v12.3h-3.2V97.7c0-2.6-0.8-4.4-3.7-4.4c-3.8,0-5.3,3.5-5.3,5v12.3h-3.2
		L219.8,90.9L219.8,90.9z"/>
	<path d="M269.8,110.5c-0.6,0.3-1.4,0.5-2.3,0.5c-1.7,0-2.7-0.9-2.7-3.1c-1.8,2.1-4.2,3.1-6.9,3.1c-3.6,0-6.5-1.6-6.5-5.5
		c0-4.5,3.3-5.5,6.7-6.1c3.5-0.7,6.6-0.4,6.6-2.9c0-2.9-2.4-3.3-4.4-3.3c-2.7,0-4.8,0.8-4.9,3.7h-3.2c0.2-4.9,3.9-6.6,8.4-6.6
		c3.5,0,7.4,0.8,7.4,5.4v10.1c0,1.5,0,2.2,1,2.2c0.3,0,0.6-0.1,1-0.2v2.7C270,110.5,269.8,110.5,269.8,110.5z M264.6,100.4
		c-2.5,1.9-9.8,0-9.8,4.9c0,2.1,1.8,2.9,3.8,2.9c4.3,0,6-2.6,6-4.5V100.4z"/>
	<path d="M272.7,90.9h3.1v4.2h0.1c1.6-3.2,3.7-4.7,7.2-4.6v3.4c-5.2,0-7.1,2.9-7.1,8v8.8h-3.2V90.9H272.7z"/>
	<path d="M290,90.9h3.9v2.9H290V106c0,1.5,0.4,1.8,2.4,1.8h1.5v2.9h-2.5c-3.4,0-4.7-0.7-4.7-4.3V93.8h-3.4v-2.9h3.4V85h3.2v5.9H290z
		"/>
	<path d="M297.9,106.4h4.2v4.2h-4.2V106.4z M301.9,91.7l-1,11.9h-1.7l-1-11.9v-8.4h3.6v8.4H301.9z"/>
</g>
<g class="st15">
	<path d="M548.9,83.4h17.9v3.1h-14.3v8.7H565v3.1h-12.5v12.5h-3.6V83.4L548.9,83.4z"/>
	<path d="M587.8,110.5c-0.6,0.3-1.4,0.5-2.3,0.5c-1.7,0-2.7-0.9-2.7-3.1c-1.8,2.1-4.2,3.1-6.9,3.1c-3.6,0-6.5-1.6-6.5-5.5
		c0-4.5,3.3-5.5,6.7-6.1c3.5-0.7,6.6-0.4,6.6-2.9c0-2.9-2.4-3.3-4.4-3.3c-2.7,0-4.8,0.8-4.9,3.7h-3.2c0.2-4.9,3.9-6.6,8.4-6.6
		c3.5,0,7.4,0.8,7.4,5.4v10.1c0,1.5,0,2.2,1,2.2c0.3,0,0.6-0.1,1-0.2v2.7C588,110.5,587.8,110.5,587.8,110.5z M582.5,100.4
		c-2.5,1.9-9.8,0-9.8,4.9c0,2.1,1.8,2.9,3.8,2.9c4.3,0,6-2.6,6-4.5V100.4z"/>
	<path d="M592.8,104.4c0.1,2.9,2.7,3.8,5.3,3.8c2,0,4.8-0.5,4.8-2.9c0-5.1-12.9-1.6-12.9-9.2c0-4,3.9-5.6,7.4-5.6
		c4.4,0,7.8,1.4,8.1,6.2h-3.3c-0.2-2.5-2.5-3.3-4.6-3.3c-1.9,0-4.2,0.5-4.2,2.5c0,2.3,3.4,2.7,6.4,3.4c3.2,0.7,6.4,1.8,6.4,5.6
		c0,4.7-4.4,6.2-8.4,6.2c-4.4,0-8.2-1.8-8.4-6.7H592.8z"/>
	<path d="M614.4,90.9h3.9v2.9h-3.9V106c0,1.5,0.4,1.8,2.4,1.8h1.5v2.9h-2.5c-3.4,0-4.7-0.7-4.7-4.3V93.8h-3.4v-2.9h3.4V85h3.2
		L614.4,90.9L614.4,90.9z"/>
	<path d="M622.2,106.4h4.2v4.2h-4.2V106.4z M626.2,91.7l-1,11.9h-1.7l-1-11.9v-8.4h3.6v8.4H626.2z"/>
</g>
<g class="st15">
	<path d="M352.1,122.6h18.8v3.1h-15.2v8.7h14.2v3.1h-14.2v9.4H371v3.1h-18.9V122.6L352.1,122.6z"/>
	<path d="M376.2,132.9h-3.3V130h3.3v-2.9c0-3.2,1.9-4.9,5.5-4.9c0.6,0,1.5,0.1,2.1,0.3v2.8c-0.6-0.2-1.3-0.3-1.8-0.3
		c-1.6,0-2.5,0.5-2.5,2.2v2.7h3.8v2.9h-3.8v17h-3.3L376.2,132.9L376.2,132.9z"/>
	<path d="M387.5,132.9h-3.3V130h3.3v-2.9c0-3.2,1.9-4.9,5.5-4.9c0.6,0,1.5,0.1,2.1,0.3v2.8c-0.6-0.2-1.3-0.3-1.8-0.3
		c-1.6,0-2.5,0.5-2.5,2.2v2.7h3.8v2.9h-3.8v17h-3.2v-16.9H387.5z"/>
	<path d="M414.2,143.6c-0.9,4.4-4,6.7-8.4,6.7c-6.3,0-9.3-4.4-9.5-10.4c0-6,3.9-10.3,9.3-10.3c7,0,9.1,6.5,8.9,11.3h-14.8
		c-0.1,3.4,1.8,6.5,6.1,6.5c2.7,0,4.5-1.3,5.1-3.9L414.2,143.6L414.2,143.6z M411.1,138.1c-0.2-3.1-2.4-5.6-5.7-5.6
		c-3.4,0-5.5,2.5-5.6,5.6H411.1z"/>
	<path d="M431.3,136.4c-0.5-2.5-2.2-3.9-4.9-3.9c-4.7,0-6.1,3.7-6.1,7.7c0,3.7,1.6,7.2,5.8,7.2c3.2,0,5-1.8,5.4-4.8h3.3
		c-0.7,4.8-3.7,7.7-8.7,7.7c-6,0-9.2-4.2-9.2-10.1s3.1-10.6,9.3-10.6c4.5,0,8,2.1,8.5,6.8L431.3,136.4L431.3,136.4z"/>
	<path d="M442.9,130.1h3.9v2.9h-3.9v12.2c0,1.5,0.4,1.8,2.4,1.8h1.5v2.9h-2.5c-3.4,0-4.7-0.7-4.7-4.3V133h-3.4v-2.9h3.4v-5.9h3.2
		L442.9,130.1L442.9,130.1z"/>
	<path d="M453.8,126.5h-3.2v-4h3.2V126.5z M450.6,130.1h3.2v19.7h-3.2V130.1z"/>
	<path d="M467.8,149.8h-3.5l-7.3-19.7h3.6l5.5,16.4h0.1l5.4-16.4h3.4L467.8,149.8z"/>
	<path d="M494.8,143.6c-0.9,4.4-4,6.7-8.4,6.7c-6.3,0-9.3-4.4-9.5-10.4c0-6,3.9-10.3,9.3-10.3c7,0,9.1,6.5,8.9,11.3h-14.8
		c-0.1,3.4,1.8,6.5,6.1,6.5c2.7,0,4.5-1.3,5.1-3.9L494.8,143.6L494.8,143.6z M491.6,138.1c-0.2-3.1-2.4-5.6-5.7-5.6
		c-3.4,0-5.5,2.5-5.6,5.6H491.6z"/>
	<path d="M498.8,145.6h4.2v4.2h-4.2V145.6z M502.7,131l-1,11.9H500l-1-11.9v-8.4h3.6v8.4H502.7z"/>
</g>
</svg>
