<?xml version="1.0" encoding="utf-8"?>
<!-- Generator: Adobe Illustrator 22.0.1, SVG Export Plug-In . SVG Version: 6.00 Build 0)  -->
<svg version="1.1" id="Layer_1" xmlns="http://www.w3.org/2000/svg" xmlns:xlink="http://www.w3.org/1999/xlink" x="0px" y="0px"
	 viewBox="0 0 811.5 744.3" style="enable-background:new 0 0 811.5 744.3;" xml:space="preserve">
<style type="text/css">
	.st0{fill:#FFFFFF;}
	.st1{fill:#BCBCBC;}
	.st2{fill:#C6C6C6;stroke:#000000;stroke-width:0.5;stroke-miterlimit:10;}
	.st3{fill:#828282;stroke:#000000;stroke-width:0.5;stroke-miterlimit:10;}
	.st4{fill:#FFE600;stroke:#000000;stroke-width:0.5;stroke-miterlimit:10;}
	.st5{fill:#EB058C;stroke:#000000;stroke-width:0.5;stroke-miterlimit:10;}
	.st6{opacity:0.33;enable-background:new    ;}
	.st7{fill:#393D3D;stroke:#000000;stroke-width:0.5;stroke-miterlimit:10;}
	.st8{fill:#BFBFBF;stroke:#000000;stroke-width:0.5;stroke-miterlimit:10;}
	.st9{fill:#0077BF;stroke:#000000;stroke-width:0.5;stroke-miterlimit:10;}
	.st10{fill:#F2F2F2;stroke:#000000;stroke-width:0.5;stroke-miterlimit:10;}
	.st11{fill:#B5B5B5;stroke:#000000;stroke-width:0.5;stroke-miterlimit:10;}
	.st12{fill:#969696;stroke:#000000;stroke-width:0.5;stroke-miterlimit:10;}
	.st13{fill:#0077BF;}
	.st14{fill:#A5A5A5;}
	.st15{fill:#0077BF;stroke:#EAEAEA;stroke-miterlimit:10;}
	.st16{fill:#EAEAEA;stroke:#EB058C;stroke-miterlimit:10;}
	.st17{fill:none;stroke:#000000;stroke-width:0.5;stroke-miterlimit:10;}
	.st18{fill:#F0B238;stroke:#000000;stroke-width:0.5;stroke-miterlimit:10;}
	.st19{fill:#FFCC65;stroke:#000000;stroke-width:0.5;stroke-miterlimit:10;}
	.st20{fill:#FFBC00;stroke:#000000;stroke-width:0.5;stroke-miterlimit:10;}
	.st21{fill:#F1F2F2;}
</style>
<title>RB4</title>
<g id="Layer_2_1_">
	<g id="Layer_7">
		<path class="st0" d="M763.9,270.3c94.4,109.5,32,303.9-44,369.7c-170.3,147.2-382.7,95.6-382.7,95.6
			C192.8,707.7,108.9,623.6,73.7,558.9C1,424.9-12.6,317.8,9.9,239.6C34.8,153.4,119.6,21.8,279.3,2.8
			c194-23.2,212.7,106.5,265.1,152.5S693.4,202.4,763.9,270.3z"/>
	</g>
	<ellipse class="st1" cx="191.1" cy="672.5" rx="92.6" ry="29.4"/>
	<ellipse class="st1" cx="628.7" cy="672.5" rx="92.6" ry="29.4"/>
	<ellipse class="st1" cx="412.7" cy="670" rx="116.8" ry="24"/>
	<path class="st2" d="M404.8,170l17.6,3.7c0,0,57,7.7,124.2,44.5c65.6,36,108.6,38.6,122.9,39l0.5-0.1c2.4-0.7,4.4-2.2,5.7-4.3
		c0.7-1.1,1.2-2.3,1.9-3.3c0.7-1.1,1.8-1.7,3.1-1.8c2,0.1,3,2.7,3.1,4.9c0.2,5.5-2.2,10.7-6.5,14.1c-0.7,0.5-1.5,1-2.2,1.4
		c-2.3,1.1-7.3,1.4-7.3,1.4s-58.5-0.8-122.9-32.9c-37.7-18.8-117.5-38.6-123.1-32.1L400,201c-2.3-8.2-86.1-25.6-128.2-24.4
		c-71.9,2.1-125.3-21.6-125.3-21.6s-4.4-2.4-6-4.3c-0.6-0.7-1.1-1.4-1.5-2.2c-2.4-4.9-2.4-10.6,0-15.5c1-1.9,2.9-3.9,4.8-3.2
		c1.1,0.6,1.9,1.7,2,2.9c0.3,1.2,0.2,2.6,0.4,3.8c0.3,2.5,1.5,4.7,3.4,6.3l0.4,0.3c13.1,5.6,53.2,21.2,127.9,16
		C354.3,153.9,404.8,170,404.8,170"/>
	<polygon class="st3" points="529.5,487.2 524.2,486 619.9,267.6 625.3,268.7 	"/>
	<polygon class="st3" points="727.8,487.2 619.9,268.8 625.2,267.5 733.2,486 	"/>
	<path class="st4" d="M749.7,482.7c0,29.7-54.2,53.8-121,53.8s-121-24.1-121-53.8L749.7,482.7z"/>
	<path class="st3" d="M622.6,270c-4.8,0-8.7-3.9-8.7-8.7s3.9-8.7,8.7-8.7c4.8,0,8.7,3.9,8.7,8.7C631.3,266.1,627.4,270,622.6,270z
		 M622.6,256.3c-2.8,0-5,2.2-5,5s2.2,5,5,5s5-2.2,5-5S625.4,256.3,622.6,256.3z"/>
	<polygon class="st3" points="96.6,397.5 91.2,396.4 186.9,178 192.3,179.1 	"/>
	<polygon class="st3" points="294.8,397.6 186.9,179.2 192.2,177.9 300.2,396.4 	"/>
	<path class="st4" d="M316.7,393.1c0,29.7-54.2,53.8-121,53.8s-121-24.1-121-53.8H316.7z"/>
	<path class="st3" d="M189.6,180.4c-4.8,0-8.7-3.9-8.7-8.7s3.9-8.7,8.7-8.7s8.7,3.9,8.7,8.7C198.3,176.5,194.4,180.4,189.6,180.4z
		 M189.6,166.7c-2.8,0-5,2.2-5,5s2.2,5,5,5s5-2.2,5-5S192.4,166.7,189.6,166.7z"/>
	<path class="st3" d="M432.9,649c0,0-8.9-489.2-11.8-489.2h-18.5c-2.8,0-10.3,489.4-10.3,489.5L432.9,649z"/>
	<path class="st2" d="M422,122.5c0,6.7-4.6,12.1-10.3,12.1s-10.4-5.4-10.4-12.1s7-26.3,10.4-26.3C414.6,96.1,422,115.8,422,122.5z"
		/>
	<path class="st5" d="M416.2,120.5c0,2.9-2,5.2-4.5,5.2s-4.5-2.3-4.5-5.2s4-10.9,4.5-10.9C411.7,109.6,416.2,117.6,416.2,120.5z"/>
	<circle class="st2" cx="411.7" cy="147.8" r="19.3"/>
	<path class="st5" d="M422,147.8c0,5.8-4.7,10.6-10.6,10.6c-5.8,0-10.6-4.7-10.6-10.6s4.7-10.6,10.6-10.6c0,0,0,0,0,0
		C417.3,137.3,422,142,422,147.8z"/>
	<path class="st3" d="M504.6,662.9H317.2v-0.2c0-13.7,26.4-24.8,41.7-24.8h106.7c15.3,0,39,11.1,39,24.8L504.6,662.9z"/>
	<path class="st6" d="M504.6,662.1H317.2v-0.5c0-1,0.2-2,0.7-3l0.3-0.7l185.5-0.2l0,0c0.7,1.2,1,2.6,1,3.9L504.6,662.1z"/>
	<path class="st7" d="M508.1,673.2H309.7c-2,0-3.6-2.7-3.6-5.9v-0.1c0-3.3,1.6-5.9,3.6-5.9h198.3c2,0,3.6,2.7,3.6,5.9v0.1
		C511.7,670.6,510.1,673.2,508.1,673.2z"/>
</g>
<g id="Layer_1_1_">
	<path class="st8" d="M588.8,388.4c0,4.7-4.1,8.4-9.2,8.4s-9.2-3.8-9.2-8.4s4.1-8.4,9.2-8.4S588.8,383.8,588.8,388.4z"/>
	<path class="st8" d="M582.8,399.4c-2.3-0.4-4.7-0.4-7,0.1c-15.3,1.6-20.2,17.8-18.8,30.2c0.6,5.4,9.8,5.4,9.2,0
		c-0.5-4.5-0.3-11.3,2.3-16.1v17.6c0,0.2,0,0.4,0,0.6s0,0.2,0,0.3c0,14,0,21.7-0.7,35.7c-0.3,6.2,10.2,6.2,10.5,0
		c0.5-11,0.6-15.7,0.6-26.6c0.5,0,1,0,1.5,0c0,11,0.2,15.7,0.6,26.6c0.3,6.2,10.8,6.2,10.5,0c-0.6-14-0.7-21.7-0.7-35.7
		c0-0.4-0.1-0.8-0.2-1.2c0-6.1-0.3-12.1-0.2-18.2c3.1,4.9,3.4,12.2,2.9,17c-0.6,5.4,8.6,5.3,9.2,0
		C604,417.1,598.8,400.5,582.8,399.4L582.8,399.4z"/>
	<path class="st8" d="M634.7,388.4c0,4.7-4.1,8.4-9.2,8.4s-9.2-3.8-9.2-8.4s4.1-8.4,9.2-8.4S634.7,383.8,634.7,388.4z"/>
	<path class="st8" d="M628.7,399.4c-2.3-0.4-4.7-0.4-7,0.1c-15.3,1.6-20.2,17.8-18.8,30.2c0.6,5.4,9.8,5.4,9.2,0
		c-0.5-4.5-0.3-11.3,2.3-16.1v17.6c0,0.2,0,0.4,0,0.6s0,0.2,0,0.3c0,14,0,21.7-0.7,35.7c-0.3,6.2,10.2,6.2,10.5,0
		c0.5-11,0.6-15.7,0.7-26.6c0.5,0,1,0,1.5,0c0,11,0.2,15.7,0.6,26.6c0.3,6.2,10.8,6.2,10.5,0c-0.6-14-0.6-21.7-0.6-35.7
		c0-0.4-0.1-0.8-0.2-1.2c0-6.1-0.3-12.1-0.2-18.2c3.1,4.9,3.4,12.2,2.9,17c-0.6,5.4,8.6,5.3,9.2,0
		C650,417.1,644.8,400.5,628.7,399.4L628.7,399.4z"/>
	<path class="st8" d="M678.3,388.4c0,4.7-4.1,8.4-9.2,8.4s-9.2-3.8-9.2-8.4s4.1-8.4,9.2-8.4S678.3,383.8,678.3,388.4z"/>
	<path class="st8" d="M672.3,399.4c-2.3-0.4-4.7-0.4-7,0.1c-15.2,1.6-20.2,17.8-18.8,30.2c0.6,5.4,9.8,5.4,9.2,0
		c-0.5-4.5-0.3-11.3,2.3-16.1v17.6c0,0.2,0,0.4,0,0.6s0,0.2,0,0.3c0,14,0,21.7-0.7,35.7c-0.3,6.2,10.2,6.2,10.5,0
		c0.5-11,0.6-15.7,0.6-26.6c0.5,0,1,0,1.5,0c0,11,0.1,15.7,0.6,26.6c0.3,6.2,10.8,6.2,10.5,0c-0.6-14-0.7-21.7-0.7-35.7
		c0-0.4-0.1-0.8-0.2-1.2c0-6.1-0.3-12.1-0.2-18.2c3.1,4.9,3.4,12.2,2.9,17c-0.6,5.4,8.5,5.3,9.2,0
		C693.5,417.1,688.4,400.5,672.3,399.4L672.3,399.4z"/>
	<path class="st9" d="M700.1,394.4c0,4.6-4,8.3-9,8.3s-9-3.7-9-8.3s4-8.3,9-8.3S700.1,389.8,700.1,394.4z"/>
	<path class="st9" d="M694.2,405.2c-2.3-0.4-4.6-0.4-6.9,0.1c-15,1.6-19.9,17.5-18.5,29.7c0.6,5.3,9.6,5.3,9,0
		c-0.5-4.4-0.3-11.1,2.3-15.9v17.3c0,0.2,0,0.4,0,0.6s0,0.2,0,0.3c0,13.7,0,21.4-0.6,35.1c-0.3,6.1,10,6.1,10.3,0
		c0.5-10.8,0.6-15.4,0.6-26.2c0.5,0,1,0,1.5,0c0,10.8,0.2,15.4,0.6,26.2c0.3,6.1,10.6,6.1,10.3,0c-0.6-13.7-0.6-21.3-0.6-35.1
		c0-0.4-0.1-0.8-0.2-1.2c0-6-0.3-11.9-0.2-17.9c3.1,4.8,3.3,12,2.8,16.8c-0.6,5.3,8.4,5.2,9,0C715.1,422.5,710,406.2,694.2,405.2
		L694.2,405.2z"/>
	<path class="st9" d="M654.8,394.4c0,4.6-4,8.3-9,8.3s-9-3.7-9-8.3s4-8.3,9-8.3S654.8,389.8,654.8,394.4z"/>
	<path class="st9" d="M649,405.2c-2.3-0.4-4.6-0.4-6.9,0.1c-15,1.6-19.9,17.5-18.5,29.7c0.6,5.3,9.6,5.3,9,0
		c-0.5-4.4-0.3-11.1,2.3-15.9v17.3c0,0.2,0,0.4,0,0.6s0,0.2,0,0.3c0,13.7,0,21.4-0.6,35.1c-0.3,6.1,10,6.1,10.3,0
		c0.5-10.8,0.6-15.4,0.6-26.2c0.5,0,1,0,1.5,0c0,10.8,0.2,15.4,0.6,26.2c0.3,6.1,10.6,6.1,10.3,0c-0.6-13.7-0.6-21.3-0.6-35.1
		c0-0.4-0.1-0.8-0.2-1.2c0-6-0.3-11.9-0.2-17.9c3.1,4.8,3.3,12,2.8,16.8c-0.6,5.3,8.4,5.2,9,0C669.8,422.5,664.7,406.2,649,405.2
		L649,405.2z"/>
	<path class="st9" d="M609.6,394.4c0,4.6-4,8.3-9,8.3s-9-3.7-9-8.3s4-8.3,9-8.3S609.6,389.8,609.6,394.4z"/>
	<path class="st9" d="M603.7,405.2c-2.3-0.4-4.6-0.4-6.9,0.1c-15,1.6-19.9,17.5-18.5,29.7c0.6,5.3,9.6,5.3,9,0
		c-0.5-4.4-0.3-11.1,2.3-15.9v17.3c0,0.2,0,0.4,0,0.6s0,0.2,0,0.3c0,13.7,0,21.4-0.6,35.1c-0.3,6.1,10,6.1,10.3,0
		c0.5-10.8,0.6-15.4,0.6-26.2c0.5,0,1,0,1.5,0c0,10.8,0.2,15.4,0.6,26.2c0.3,6.1,10.6,6.1,10.3,0c-0.6-13.7-0.6-21.3-0.6-35.1
		c0-0.4-0.1-0.8-0.2-1.2c0-6-0.3-11.9-0.2-17.9c3.1,4.8,3.3,12,2.8,16.8c-0.6,5.3,8.4,5.2,9,0C624.6,422.5,619.5,406.2,603.7,405.2
		L603.7,405.2z"/>
	<path class="st9" d="M564.3,394.4c0,4.6-4,8.3-9,8.3s-9-3.7-9-8.3s4-8.3,9-8.3S564.3,389.8,564.3,394.4z"/>
	<path class="st9" d="M558.4,405.2c-2.3-0.4-4.6-0.4-6.9,0.1c-15,1.6-19.9,17.5-18.5,29.7c0.6,5.3,9.6,5.3,9,0
		c-0.5-4.4-0.3-11.1,2.3-15.9v17.3c0,0.2,0,0.4,0,0.6s0,0.2,0,0.3c0,13.7,0,21.4-0.7,35.1c-0.3,6.1,10,6.1,10.3,0
		c0.5-10.8,0.6-15.4,0.6-26.2c0.5,0,1,0,1.5,0c0,10.8,0.2,15.4,0.6,26.2c0.3,6.1,10.6,6.1,10.3,0c-0.6-13.7-0.6-21.3-0.6-35.1
		c0-0.4-0.1-0.8-0.2-1.2c0-6-0.3-11.9-0.2-17.9c3.1,4.8,3.3,12,2.8,16.8c-0.6,5.3,8.4,5.2,9,0C579.3,422.5,574.2,406.2,558.4,405.2
		L558.4,405.2z"/>
	<polygon class="st10" points="635.6,642.4 563.6,673 608.4,682.1 672.8,648.7 	"/>
	<polygon class="st11" points="608.4,682.1 608.4,693.1 563.6,684.2 563.6,673 	"/>
	<polygon class="st12" points="672.8,648.7 672.8,656.7 608.4,693.1 608.4,682.1 	"/>
	<path class="st13" d="M637.5,648.1l17,2.8l-48,23.2l-21.2-4L637.5,648.1 M637.1,644.7l-63,26.6l32.9,6.2l58.3-28.2L637.1,644.7
		L637.1,644.7z"/>
	<ellipse class="st14" cx="640" cy="652.3" rx="4.2" ry="1.9"/>
	<ellipse class="st15" cx="623.6" cy="659.9" rx="12" ry="5.5"/>
	<ellipse class="st16" cx="623.6" cy="659.9" rx="8.3" ry="3.8"/>
	<line class="st17" x1="670.4" y1="652.3" x2="611.6" y2="683.5"/>
	<line class="st17" x1="670.4" y1="653.8" x2="611.6" y2="686.1"/>
	<line class="st17" x1="670.4" y1="656.1" x2="611.6" y2="688.4"/>
	<line class="st17" x1="566.3" y1="676.5" x2="604.3" y2="684.1"/>
	<line class="st17" x1="566.3" y1="679.3" x2="604.3" y2="686.7"/>
	<line class="st17" x1="566.3" y1="681.7" x2="604.3" y2="689.2"/>
	<polyline class="st17" points="645,650.3 646.5,651.7 638.9,649.9 	"/>
	<line class="st17" x1="638.2" y1="650.2" x2="640.4" y2="649.2"/>
	
		<ellipse transform="matrix(0.2224 -0.975 0.975 0.2224 -137.5648 1131.5104)" class="st17" cx="640.6" cy="652" rx="0.8" ry="4.3"/>
	
		<ellipse transform="matrix(0.2224 -0.975 0.975 0.2224 -141.2789 1129.4585)" class="st17" cx="637.4" cy="653.3" rx="0.8" ry="4.3"/>
	<ellipse class="st14" cx="606.1" cy="668.4" rx="4.2" ry="1.9"/>
	<polyline class="st17" points="611,666.4 612.6,667.7 604.9,665.9 	"/>
	<line class="st17" x1="604.3" y1="666.3" x2="606.4" y2="665.2"/>
	
		<ellipse transform="matrix(0.2224 -0.975 0.975 0.2224 -179.6819 1110.8987)" class="st17" cx="606.6" cy="668.1" rx="0.8" ry="4.3"/>
	
		<ellipse transform="matrix(0.2224 -0.975 0.975 0.2224 -183.2677 1108.7759)" class="st17" cx="603.5" cy="669.3" rx="0.8" ry="4.3"/>
	<polygon class="st10" points="625.3,626.6 553.5,657.3 598.1,666.4 662.5,632.9 	"/>
	<polygon class="st11" points="598.1,666.4 598.1,677.3 553.5,668.5 553.5,657.3 	"/>
	<polygon class="st12" points="662.5,632.9 662.5,640.9 598.1,677.3 598.1,666.4 	"/>
	<path class="st13" d="M627.3,632.4l17,2.8l-48,23.2l-21.2-4L627.3,632.4 M626.8,629l-63,26.6l32.9,6.2l58.3-28.2L626.8,629
		L626.8,629z"/>
	<ellipse class="st14" cx="629.8" cy="636.6" rx="4.2" ry="1.9"/>
	<ellipse class="st15" cx="613.3" cy="644.1" rx="12" ry="5.5"/>
	<ellipse class="st16" cx="613.3" cy="644.1" rx="8.3" ry="3.8"/>
	<line class="st17" x1="660.2" y1="636.6" x2="601.3" y2="667.7"/>
	<line class="st17" x1="660.2" y1="638" x2="601.3" y2="670.5"/>
	<line class="st17" x1="660.2" y1="640.3" x2="601.3" y2="672.6"/>
	<line class="st17" x1="556.1" y1="660.9" x2="594.2" y2="668.4"/>
	<line class="st17" x1="556.1" y1="663.5" x2="594.2" y2="671"/>
	<line class="st17" x1="556.1" y1="665.9" x2="594.2" y2="673.4"/>
	<polyline class="st17" points="634.9,634.7 636.3,635.9 628.8,634.1 	"/>
	<line class="st17" x1="628" y1="634.4" x2="630.1" y2="633.5"/>
	
		<ellipse transform="matrix(0.2224 -0.975 0.975 0.2224 -130.1445 1109.2322)" class="st17" cx="630.3" cy="636.2" rx="0.8" ry="4.3"/>
	
		<ellipse transform="matrix(0.2224 -0.975 0.975 0.2224 -133.7974 1107.3165)" class="st17" cx="627.3" cy="637.5" rx="0.8" ry="4.3"/>
	<ellipse class="st14" cx="595.8" cy="652.6" rx="4.2" ry="1.9"/>
	<polyline class="st17" points="600.9,650.7 602.3,651.9 594.8,650.1 	"/>
	<line class="st17" x1="594" y1="650.6" x2="596.2" y2="649.5"/>
	
		<ellipse transform="matrix(0.2224 -0.975 0.975 0.2224 -172.2451 1088.6262)" class="st17" cx="596.3" cy="652.3" rx="0.8" ry="4.3"/>
	
		<ellipse transform="matrix(0.2224 -0.975 0.975 0.2224 -175.9146 1086.7047)" class="st17" cx="593.3" cy="653.6" rx="0.8" ry="4.3"/>
	<polygon class="st10" points="639,609.7 567.1,640.3 611.9,649.4 676.2,615.9 	"/>
	<polygon class="st11" points="611.9,649.4 611.9,660.3 567.1,651.5 567.1,640.3 	"/>
	<polygon class="st12" points="676.2,615.9 676.2,624 611.9,660.3 611.9,649.4 	"/>
	<path class="st13" d="M641,615.4l17,2.8l-48,23.2l-21.2-4L641,615.4 M640.5,612l-63,26.6l32.9,6.2l58.3-28.2L640.5,612L640.5,612z"
		/>
	<ellipse class="st14" cx="643.5" cy="619.6" rx="4.2" ry="1.9"/>
	<ellipse class="st15" cx="627.1" cy="627.1" rx="12" ry="5.5"/>
	<ellipse class="st16" cx="627.1" cy="627.1" rx="8.3" ry="3.8"/>
	<line class="st17" x1="673.9" y1="619.6" x2="615.1" y2="650.8"/>
	<line class="st17" x1="673.9" y1="621" x2="615.1" y2="653.5"/>
	<line class="st17" x1="673.9" y1="623.3" x2="615.1" y2="655.7"/>
	<line class="st17" x1="569.8" y1="643.9" x2="607.8" y2="651.4"/>
	<line class="st17" x1="569.8" y1="646.5" x2="607.8" y2="654"/>
	<line class="st17" x1="569.8" y1="649" x2="607.8" y2="656.5"/>
	<polyline class="st17" points="648.5,617.7 649.9,618.9 642.4,617.2 	"/>
	<line class="st17" x1="641.7" y1="617.5" x2="643.8" y2="616.5"/>
	
		<ellipse transform="matrix(0.2224 -0.975 0.975 0.2224 -103.0047 1109.3444)" class="st17" cx="643.9" cy="619.2" rx="0.8" ry="4.3"/>
	
		<ellipse transform="matrix(0.2224 -0.975 0.975 0.2224 -106.6689 1107.4342)" class="st17" cx="640.9" cy="620.6" rx="0.8" ry="4.3"/>
	<ellipse class="st14" cx="609.6" cy="635.6" rx="4.2" ry="1.9"/>
	<polyline class="st17" points="614.5,633.7 616,634.9 608.4,633.2 	"/>
	<line class="st17" x1="607.7" y1="633.6" x2="609.8" y2="632.5"/>
	
		<ellipse transform="matrix(0.2224 -0.975 0.975 0.2224 -145.1165 1088.7439)" class="st17" cx="610" cy="635.3" rx="0.8" ry="4.3"/>
	
		<ellipse transform="matrix(0.2224 -0.975 0.975 0.2224 -148.6402 1086.7533)" class="st17" cx="607" cy="636.6" rx="0.8" ry="4.3"/>
	<path class="st18" d="M653.8,659.1v2.9c0,2.5,5.9,4.4,13.2,4.4s13.2-2,13.2-4.4v-2.9L653.8,659.1z"/>
	<ellipse class="st19" cx="666.9" cy="659.1" rx="13.2" ry="4.4"/>
	<ellipse class="st18" cx="666.9" cy="659.1" rx="10.8" ry="3.6"/>
	<path class="st19" d="M663.7,660.8c-0.5-0.1-0.8-0.5-0.8-0.7v-0.1h3v0.1c0,0.1,0.1,0.2,0.2,0.4c0.2,0.1,0.5,0.1,0.7,0.1
		c0.4,0,0.6,0,0.7-0.1s0.2-0.1,0.2-0.2s-0.1-0.2-0.4-0.4c-0.3-0.1-0.6-0.2-0.8-0.2c-0.4,0-0.7-0.1-1.2-0.1c-0.4,0-0.8-0.1-1.2-0.2
		c-0.3-0.1-0.6-0.2-0.8-0.4c-0.2-0.1-0.4-0.3-0.4-0.6c0-0.7,1-1.1,3-1.2v-0.4h1.6v0.4c0.8,0,1.6,0.1,2.4,0.3
		c0.5,0.2,0.7,0.5,0.7,0.8h-2.9v-0.1c0-0.1-0.1-0.2-0.2-0.2c-0.2-0.1-0.4-0.2-0.6-0.1c-0.4,0-0.6,0-0.7,0.1s-0.2,0.1-0.2,0.2
		s0.1,0.2,0.4,0.4s0.6,0.1,1,0.2s0.7,0.1,1.2,0.1c0.4,0,0.8,0.1,1.2,0.2c0.3,0.1,0.7,0.2,1,0.4c0.2,0.1,0.4,0.3,0.4,0.6
		c0,0.4-0.2,0.7-0.8,0.8c-0.8,0.2-1.7,0.3-2.5,0.3v0.5h-1.6v-0.5C665,661,664.2,660.9,663.7,660.8z"/>
	<path class="st18" d="M655.1,655.4v2.9c0,2.5,5.9,4.4,13.2,4.4s13.2-2,13.2-4.4v-2.9H655.1z"/>
	<path class="st19" d="M681.5,655.4c0,2.5-5.9,4.4-13.2,4.4s-13.2-2-13.2-4.4s5.9-4.4,13.2-4.4S681.5,653,681.5,655.4z"/>
	<path class="st18" d="M679,655.4c0,2-4.8,3.6-10.8,3.6s-10.8-1.7-10.8-3.6s4.8-3.6,10.8-3.6S679,653.5,679,655.4z"/>
	<path class="st19" d="M665,657c-0.5-0.1-0.8-0.5-0.8-0.7v-0.1h3v0.1c0,0.1,0.1,0.2,0.2,0.4c0.2,0.1,0.5,0.1,0.7,0.1
		c0.4,0,0.6,0,0.7-0.1s0.2-0.1,0.2-0.2s-0.1-0.2-0.4-0.4c-0.3-0.1-0.6-0.2-0.8-0.2c-0.4,0-0.7-0.1-1.2-0.1c-0.4,0-0.8-0.1-1.2-0.2
		c-0.3-0.1-0.6-0.2-0.8-0.4c-0.2-0.1-0.4-0.3-0.4-0.6c0-0.7,1-1.1,3-1.2V653h1.6v0.3c0.8,0,1.6,0.1,2.4,0.4c0.5,0.2,0.7,0.5,0.7,0.8
		h-2.9v-0.1c0-0.1-0.1-0.2-0.2-0.2c-0.2-0.1-0.4-0.2-0.6-0.1c-0.4,0-0.6,0-0.7,0.1s-0.2,0.1-0.2,0.2s0.1,0.2,0.4,0.4s0.6,0.1,1,0.2
		s0.7,0.1,1.2,0.1c0.4,0,0.8,0.1,1.2,0.2c0.3,0.1,0.7,0.2,1,0.4c0.2,0.1,0.4,0.3,0.4,0.6c0,0.4-0.2,0.7-0.8,0.8
		c-0.8,0.2-1.7,0.3-2.5,0.4v0.5h-1.6v-0.5C666.3,657.3,665.6,657.2,665,657z"/>
	<path class="st18" d="M654.2,651.8v2.9c0,2.5,5.9,4.4,13.2,4.4s13.2-2,13.2-4.4v-2.9H654.2z"/>
	<ellipse class="st19" cx="667.4" cy="651.8" rx="13.2" ry="4.4"/>
	<ellipse class="st18" cx="667.4" cy="651.8" rx="10.8" ry="3.6"/>
	<path class="st19" d="M664.2,653.3c-0.5-0.1-0.8-0.3-0.8-0.7v-0.2h3v0.1c0,0.1,0.1,0.2,0.2,0.4c0.2,0.1,0.5,0.1,0.7,0.1
		c0.4,0,0.6,0,0.7-0.1s0.2-0.1,0.2-0.2s-0.1-0.2-0.4-0.4c-0.3-0.1-0.6-0.2-0.8-0.2c-0.4,0-0.7-0.1-1.2-0.1c-0.4,0-0.8-0.1-1.2-0.2
		c-0.3-0.1-0.6-0.2-0.8-0.4c-0.2-0.1-0.4-0.3-0.4-0.6c0-0.7,1-1.1,3-1.2v-0.3h1.5v0.3c0.8,0,1.6,0.1,2.4,0.4
		c0.5,0.2,0.7,0.5,0.7,0.8h-2.9v-0.1c0-0.1-0.1-0.2-0.2-0.2c-0.2-0.1-0.4-0.2-0.6-0.1c-0.4,0-0.6,0-0.7,0.1s-0.2,0.1-0.2,0.2
		s0.1,0.2,0.4,0.4s0.6,0.1,1,0.2s0.7,0.1,1.2,0.1c0.4,0,0.8,0.1,1.2,0.2c0.3,0.1,0.7,0.2,1,0.4c0.2,0.1,0.4,0.3,0.4,0.6
		c0,0.4-0.2,0.7-0.8,0.8c-0.8,0.2-1.7,0.3-2.5,0.4v0.5h-1.6v-0.5C665.8,653.7,665,653.6,664.2,653.3z"/>
	<path class="st18" d="M651.8,648.1v2.9c0,2.5,5.9,4.4,13.2,4.4s13.2-2,13.2-4.4v-2.9H651.8z"/>
	<path class="st19" d="M678.3,648.1c0,2.5-5.9,4.4-13.2,4.4s-13.2-2-13.2-4.4s5.9-4.4,13.2-4.4S678.3,645.6,678.3,648.1z"/>
	<path class="st18" d="M675.8,648.1c0,2-4.8,3.6-10.8,3.6s-10.8-1.7-10.8-3.6s4.8-3.6,10.8-3.6S675.8,646,675.8,648.1z"/>
	<path class="st19" d="M661.9,649.6c-0.5-0.1-0.8-0.3-0.8-0.7v-0.1h3v0.1c0,0.1,0.1,0.2,0.2,0.4c0.2,0.1,0.5,0.1,0.7,0.1
		c0.4,0,0.6,0,0.7-0.1s0.2-0.1,0.2-0.2s-0.1-0.2-0.3-0.4c-0.3-0.1-0.6-0.2-0.8-0.2c-0.4,0-0.7-0.1-1.2-0.1c-0.4,0-0.8-0.1-1.2-0.2
		c-0.3-0.1-0.6-0.2-0.8-0.4c-0.2-0.1-0.4-0.3-0.4-0.6c0-0.7,1-1.1,3-1.2v-0.3h1.5v0.3c0.8,0,1.6,0.1,2.4,0.4
		c0.5,0.2,0.7,0.5,0.7,0.8H666V647c0-0.1-0.1-0.2-0.2-0.2c-0.1-0.1-0.3-0.1-0.6-0.1s-0.6,0-0.7,0.1s-0.2,0.1-0.2,0.2
		s0.1,0.2,0.4,0.4s0.6,0.1,1,0.2s0.7,0.1,1.2,0.1c0.4,0,0.8,0.1,1.2,0.2c0.3,0.1,0.7,0.2,1,0.4c0.2,0.1,0.4,0.3,0.4,0.6
		c0,0.4-0.2,0.7-0.8,0.8c-0.8,0.2-1.7,0.3-2.5,0.4v0.5h-1.7V650C663.5,650,662.7,649.9,661.9,649.6z"/>
	<path class="st18" d="M653.3,644.4v2.9c0,2.5,5.9,4.4,13.2,4.4s13.2-2,13.2-4.4v-2.9H653.3z"/>
	<ellipse class="st19" cx="666.5" cy="644.4" rx="13.2" ry="4.4"/>
	<ellipse class="st18" cx="666.5" cy="644.4" rx="10.8" ry="3.6"/>
	<path class="st19" d="M663.2,646c-0.5-0.1-0.8-0.4-0.8-0.7v-0.1h3v0.1c0,0.1,0.1,0.2,0.2,0.3c0.2,0.1,0.5,0.1,0.7,0.1
		c0.4,0,0.6,0,0.7-0.1s0.2-0.1,0.2-0.2s-0.1-0.2-0.4-0.4c-0.3-0.1-0.6-0.2-0.8-0.2c-0.4,0-0.7-0.1-1.2-0.1c-0.4,0-0.8-0.1-1.2-0.2
		c-0.3-0.1-0.6-0.2-0.8-0.4c-0.2-0.1-0.4-0.3-0.4-0.6c0-0.7,1-1.1,3-1.2V642h1.5v0.4c0.8,0,1.6,0.1,2.4,0.4c0.5,0.2,0.7,0.5,0.7,0.8
		h-2.9v-0.1c0-0.1-0.1-0.2-0.2-0.2c-0.2-0.1-0.4-0.2-0.6-0.1c-0.4,0-0.6,0-0.7,0.1s-0.2,0.1-0.2,0.2s0.1,0.2,0.3,0.4s0.6,0.1,1,0.2
		s0.7,0.1,1.2,0.1c0.4,0,0.8,0.1,1.2,0.2c0.3,0.1,0.6,0.2,1,0.4c0.2,0.1,0.4,0.3,0.4,0.6c0,0.3-0.2,0.7-0.8,0.8
		c-0.8,0.2-1.7,0.3-2.5,0.4v0.5h-1.5v-0.5C664.5,646.3,663.7,646.2,663.2,646z"/>
	<path class="st20" d="M655.1,640.7v2.9c0,2.5,5.9,4.4,13.2,4.4s13.2-2,13.2-4.4v-2.9H655.1z"/>
	<path class="st4" d="M681.5,640.7c0,2.5-5.9,4.4-13.2,4.4s-13.2-2-13.2-4.4s5.9-4.4,13.2-4.4S681.5,638.2,681.5,640.7z"/>
	<path class="st20" d="M679,640.7c0,2-4.8,3.6-10.8,3.6s-10.8-1.7-10.8-3.6s4.8-3.6,10.8-3.6S679,638.6,679,640.7z"/>
	<path class="st19" d="M665,642.3c-0.5-0.1-0.8-0.5-0.8-0.7v-0.1h3v0.1c0,0.1,0.1,0.2,0.2,0.3c0.2,0.1,0.5,0.1,0.7,0.1
		c0.4,0,0.6,0,0.7-0.1s0.2-0.1,0.2-0.2s-0.1-0.2-0.4-0.4c-0.3-0.1-0.6-0.2-0.8-0.2c-0.4,0-0.7-0.1-1.2-0.1c-0.4,0-0.8-0.1-1.2-0.2
		c-0.3-0.1-0.6-0.2-0.8-0.4c-0.2-0.1-0.4-0.3-0.4-0.6c0-0.7,1-1.1,3-1.2v-0.4h1.6v0.4c0.8,0,1.6,0.1,2.4,0.4
		c0.5,0.2,0.7,0.5,0.7,0.8h-2.9v-0.1c0-0.1-0.1-0.2-0.2-0.2c-0.2-0.1-0.4-0.2-0.6-0.1c-0.4,0-0.6,0-0.7,0.1s-0.2,0.1-0.2,0.2
		s0.1,0.2,0.4,0.4s0.6,0.1,1,0.2s0.7,0.1,1.2,0.1c0.4,0,0.8,0.1,1.2,0.2c0.3,0.1,0.7,0.2,1,0.4c0.2,0.1,0.4,0.3,0.4,0.6
		c0,0.3-0.2,0.7-0.8,0.8c-0.8,0.2-1.7,0.3-2.5,0.4v0.5h-1.6v-0.5C666.3,642.6,665.6,642.4,665,642.3z"/>
	<path class="st20" d="M654.2,636.9v2.9c0,2.5,5.9,4.4,13.2,4.4s13.2-2,13.2-4.4v-2.9H654.2z"/>
	<ellipse class="st4" cx="667.4" cy="636.9" rx="13.2" ry="4.4"/>
	<ellipse class="st20" cx="667.4" cy="636.9" rx="10.8" ry="3.6"/>
	<path class="st19" d="M664.2,638.6c-0.5-0.1-0.8-0.5-0.8-0.7v-0.1h3v0.1c0,0.1,0.1,0.2,0.2,0.3c0.2,0.1,0.5,0.1,0.7,0.1
		c0.4,0,0.6,0,0.7-0.1s0.2-0.1,0.2-0.2s-0.1-0.2-0.4-0.4c-0.3-0.1-0.6-0.2-0.8-0.2c-0.4,0-0.7-0.1-1.2-0.1c-0.4,0-0.8-0.1-1.2-0.2
		c-0.3-0.1-0.6-0.2-0.8-0.4c-0.2-0.1-0.4-0.3-0.4-0.6c0-0.7,1-1.1,3-1.2v-0.4h1.5v0.4c0.8,0,1.6,0.1,2.4,0.4
		c0.5,0.2,0.7,0.5,0.7,0.8h-2.9V636c0-0.1-0.1-0.2-0.2-0.2c-0.2-0.1-0.4-0.2-0.6-0.1c-0.4,0-0.6,0-0.7,0.1s-0.2,0.1-0.2,0.2
		s0.1,0.2,0.4,0.4s0.6,0.1,1,0.2s0.7,0.1,1.2,0.1c0.4,0,0.8,0.1,1.2,0.2c0.3,0.1,0.7,0.2,1,0.4c0.2,0.1,0.4,0.3,0.4,0.6
		c0,0.3-0.2,0.7-0.8,0.8c-0.8,0.2-1.7,0.3-2.5,0.4v0.5h-1.6v-0.5C665.5,638.8,664.7,638.7,664.2,638.6z"/>
	<path class="st20" d="M655.6,633.3v2.9c0,2.5,5.9,4.4,13.2,4.4s13.2-2,13.2-4.4v-2.9H655.6z"/>
	<ellipse class="st4" cx="668.7" cy="633.3" rx="13.2" ry="4.4"/>
	<ellipse class="st20" cx="668.7" cy="633.3" rx="10.8" ry="3.6"/>
	<path class="st19" d="M665.5,634.9c-0.5-0.1-0.8-0.5-0.8-0.7v-0.1h3v0.1c0,0.1,0.1,0.2,0.2,0.3c0.2,0.1,0.5,0.1,0.7,0.1
		c0.4,0,0.6,0,0.7-0.1s0.2-0.1,0.2-0.2s-0.1-0.2-0.3-0.3c-0.3-0.1-0.6-0.2-0.8-0.2c-0.4,0-0.7-0.1-1.2-0.1c-0.4,0-0.8-0.1-1.2-0.2
		c-0.3-0.1-0.6-0.2-0.8-0.4c-0.2-0.1-0.4-0.3-0.4-0.6c0-0.7,1-1.1,3-1.2v-0.4h1.6v0.4c0.8,0,1.6,0.1,2.4,0.4
		c0.5,0.2,0.7,0.5,0.7,0.8h-2.8v-0.1c0-0.1-0.1-0.2-0.2-0.2c-0.1-0.1-0.3-0.1-0.6-0.1s-0.6,0-0.7,0.1s-0.2,0.1-0.2,0.2
		s0.1,0.2,0.4,0.4s0.6,0.1,1,0.2s0.7,0.1,1.2,0.1c0.4,0,0.8,0.1,1.2,0.2c0.3,0.1,0.7,0.2,1,0.4c0.2,0.1,0.4,0.3,0.4,0.6
		c0,0.3-0.2,0.7-0.8,0.8c-0.8,0.2-1.7,0.3-2.5,0.4v0.5H668v-0.5C666.8,635.1,666,635,665.5,634.9z"/>
	<path class="st20" d="M654.2,629.6v2.9c0,2.5,5.9,4.4,13.2,4.4s13.2-2,13.2-4.4v-2.9H654.2z"/>
	<ellipse class="st4" cx="667.4" cy="629.6" rx="13.2" ry="4.4"/>
	<ellipse class="st20" cx="667.4" cy="629.6" rx="10.8" ry="3.6"/>
	<path class="st19" d="M664.2,631.2c-0.5-0.1-0.8-0.5-0.8-0.7v-0.1h3v0.1c0,0.1,0.1,0.2,0.2,0.4c0.2,0.1,0.5,0.1,0.7,0.1
		c0.4,0,0.6,0,0.7-0.1s0.2-0.1,0.2-0.2s-0.1-0.2-0.4-0.3c-0.3-0.1-0.6-0.2-0.8-0.2c-0.4,0-0.7-0.1-1.2-0.1c-0.4,0-0.8-0.1-1.2-0.2
		c-0.3-0.1-0.6-0.2-0.8-0.4c-0.2-0.1-0.4-0.3-0.4-0.6c0-0.7,1-1.1,3-1.2v-0.2h1.5v0.4c0.8,0,1.6,0.1,2.4,0.4
		c0.5,0.2,0.7,0.5,0.7,0.8h-2.9v-0.1c0-0.1-0.1-0.2-0.2-0.2c-0.2-0.1-0.4-0.2-0.6-0.1c-0.4,0-0.6,0-0.7,0.1s-0.2,0.1-0.2,0.2
		s0.1,0.2,0.4,0.4s0.6,0.1,1,0.2s0.7,0.1,1.2,0.1c0.4,0,0.8,0.1,1.2,0.2c0.3,0.1,0.7,0.2,1,0.4c0.2,0.1,0.4,0.3,0.4,0.6
		c0,0.4-0.2,0.7-0.8,0.8c-0.8,0.2-1.7,0.3-2.5,0.4v0.5h-1.6v-0.5C665.5,631.4,664.7,631.4,664.2,631.2z"/>
	<path class="st20" d="M656,625.9v2.9c0,2.5,5.9,4.4,13.2,4.4s13.2-2,13.2-4.4v-2.9H656z"/>
	<ellipse class="st4" cx="669.2" cy="625.9" rx="13.2" ry="4.4"/>
	<ellipse class="st20" cx="669.2" cy="625.9" rx="10.8" ry="3.6"/>
	<path class="st19" d="M666,627.5c-0.5-0.1-0.8-0.4-0.8-0.7v-0.1h3v0.1c0,0.1,0.1,0.2,0.2,0.4c0.2,0.1,0.5,0.1,0.7,0.1
		c0.3,0,0.6,0,0.7-0.1s0.2-0.1,0.2-0.2s-0.1-0.2-0.4-0.3c-0.3-0.1-0.5-0.2-0.8-0.2c-0.4,0-0.7-0.1-1.2-0.1c-0.4,0-0.8-0.1-1.2-0.2
		c-0.3-0.1-0.6-0.2-0.8-0.4c-0.2-0.1-0.4-0.3-0.4-0.6c0-0.7,1-1.1,3-1.2v-0.4h1.5v0.4c0.8,0,1.6,0.1,2.4,0.4
		c0.5,0.2,0.7,0.5,0.7,0.8h-3v-0.1c0-0.1-0.1-0.2-0.2-0.2c-0.2-0.1-0.4-0.2-0.6-0.1c-0.4,0-0.6,0-0.7,0.1s-0.2,0.1-0.2,0.2
		s0.1,0.2,0.4,0.4s0.6,0.1,1,0.2s0.7,0.1,1.2,0.1c0.4,0,0.8,0.1,1.2,0.2c0.3,0.1,0.7,0.2,1,0.4c0.2,0.1,0.4,0.3,0.3,0.6
		c0,0.4-0.2,0.7-0.8,0.8c-0.8,0.2-1.7,0.3-2.5,0.4v0.5h-1.5V628C667.6,627.9,666.8,627.8,666,627.5z"/>
	<path class="st20" d="M654.2,622.2v2.9c0,2.5,5.9,4.4,13.2,4.4s13.2-2,13.2-4.4v-2.9H654.2z"/>
	<ellipse class="st4" cx="667.4" cy="622.2" rx="13.2" ry="4.4"/>
	<ellipse class="st18" cx="667.4" cy="622.2" rx="10.8" ry="3.6"/>
	<path class="st19" d="M664.2,623.9c-0.5-0.1-0.8-0.5-0.8-0.7v-0.1h3v0.1c0,0.1,0.1,0.2,0.2,0.4c0.2,0.1,0.5,0.1,0.7,0.1
		c0.4,0,0.6,0,0.7-0.1s0.2-0.1,0.2-0.2s-0.1-0.2-0.4-0.4s-0.5-0.1-0.8-0.2s-0.7-0.1-1.2-0.1c-0.4,0-0.8-0.1-1.2-0.2
		c-0.3-0.1-0.6-0.2-0.8-0.4c-0.2-0.1-0.4-0.3-0.4-0.6c0-0.7,1-1.1,3-1.2v-0.4h1.5v0.4c0.8,0,1.6,0.1,2.4,0.4
		c0.5,0.2,0.7,0.5,0.7,0.8h-2.9v-0.1c0-0.1-0.1-0.2-0.2-0.3c-0.2-0.1-0.4-0.2-0.6-0.1c-0.4,0-0.6,0-0.7,0.1s-0.2,0.1-0.2,0.2
		s0.1,0.2,0.4,0.4s0.6,0.1,1,0.2s0.7,0.1,1.2,0.1c0.4,0,0.8,0.1,1.2,0.2c0.3,0.1,0.7,0.2,1,0.4c0.2,0.1,0.4,0.3,0.4,0.6
		c0,0.4-0.2,0.7-0.8,0.8c-0.8,0.2-1.7,0.3-2.5,0.4v0.5h-1.6v-0.5C665.5,624.1,664.7,624,664.2,623.9z"/>
	<path class="st20" d="M653.3,618.5v2.9c0,2.5,5.9,4.4,13.2,4.4s13.2-2,13.2-4.4v-2.9H653.3z"/>
	<ellipse class="st4" cx="666.5" cy="618.5" rx="13.2" ry="4.4"/>
	<path class="st20" d="M671.8,679.9v2.9c0,2.5,5.9,4.4,13.2,4.4s13.2-2,13.2-4.4v-2.9H671.8z"/>
	<ellipse class="st4" cx="685" cy="679.9" rx="13.2" ry="4.4"/>
	<ellipse class="st20" cx="685" cy="679.9" rx="10.8" ry="3.6"/>
	<path class="st19" d="M681.8,681.5c-0.5-0.1-0.8-0.5-0.8-0.7v-0.1h3v0.1c0,0.1,0.1,0.2,0.2,0.4c0.2,0.1,0.5,0.1,0.7,0.1
		c0.4,0,0.6,0,0.7-0.1s0.2-0.1,0.2-0.2s-0.1-0.2-0.4-0.4c-0.3-0.1-0.6-0.2-0.8-0.2c-0.3,0-0.7-0.1-1.2-0.1c-0.4,0-0.8-0.1-1.2-0.2
		c-0.3-0.1-0.6-0.2-0.8-0.3c-0.2-0.1-0.4-0.3-0.4-0.6c0-0.7,1-1.1,3-1.2v-0.2h1.5v0.4c0.8,0,1.6,0.1,2.4,0.4
		c0.5,0.2,0.7,0.5,0.7,0.8h-2.9V679c0-0.1-0.1-0.2-0.2-0.2c-0.2-0.1-0.4-0.2-0.6-0.1c-0.4,0-0.6,0-0.7,0.1s-0.2,0.1-0.2,0.2
		s0.1,0.2,0.4,0.4s0.6,0.1,1,0.2s0.7,0.1,1.2,0.1c0.4,0,0.8,0.1,1.2,0.2c0.3,0.1,0.7,0.2,1,0.4c0.2,0.1,0.4,0.3,0.4,0.6
		c0,0.4-0.2,0.7-0.8,0.8c-0.8,0.2-1.7,0.3-2.5,0.4v0.5h-1.5v-0.5C683.4,682,682.6,681.7,681.8,681.5z"/>
	<path class="st20" d="M673.3,676.2v2.9c0,2.5,5.9,4.4,13.2,4.4s13.2-2,13.2-4.4v-2.9H673.3z"/>
	<path class="st4" d="M699.6,676.2c0,2.5-5.9,4.4-13.2,4.4s-13.2-2-13.2-4.4s5.9-4.4,13.2-4.4S699.6,673.7,699.6,676.2z"/>
	<path class="st18" d="M697.2,676.2c0,2-4.8,3.6-10.8,3.6s-10.8-1.7-10.8-3.6s4.8-3.6,10.8-3.6S697.2,674.2,697.2,676.2z"/>
	<path class="st19" d="M683.2,677.9c-0.5-0.1-0.8-0.5-0.8-0.7V677h3v0.1c0,0.1,0.1,0.2,0.2,0.4c0.2,0.1,0.5,0.1,0.7,0.1
		c0.4,0,0.6,0,0.7-0.1s0.2-0.1,0.2-0.2s-0.1-0.2-0.4-0.4c-0.3-0.1-0.6-0.2-0.8-0.2c-0.4,0-0.7-0.1-1.2-0.1c-0.4,0-0.8-0.1-1.2-0.2
		c-0.3-0.1-0.6-0.2-0.8-0.3c-0.2-0.1-0.4-0.3-0.4-0.6c0-0.7,1-1.1,3-1.2v-0.4h1.5v0.4c0.8,0,1.6,0.1,2.4,0.4
		c0.5,0.2,0.7,0.5,0.7,0.8h-2.9v-0.1c0-0.1-0.1-0.2-0.2-0.2c-0.2-0.1-0.4-0.2-0.6-0.1c-0.4,0-0.6,0-0.7,0.1s-0.2,0.1-0.2,0.2
		s0.1,0.2,0.4,0.4s0.6,0.1,1,0.2s0.7,0.1,1.2,0.1c0.4,0,0.8,0.1,1.2,0.2c0.3,0.1,0.7,0.2,1,0.4c0.2,0.1,0.4,0.3,0.4,0.6
		c0,0.4-0.2,0.7-0.8,0.8c-0.8,0.2-1.7,0.3-2.5,0.4v0.5h-1.6v-0.5C684.5,678.1,683.7,678,683.2,677.9z"/>
	<path class="st20" d="M672.3,672.5v2.9c0,2.5,5.9,4.4,13.2,4.4s13.2-2,13.2-4.4v-2.9H672.3z"/>
	<ellipse class="st4" cx="685.5" cy="672.5" rx="13.2" ry="4.4"/>
	<ellipse class="st20" cx="685.5" cy="672.5" rx="10.8" ry="3.6"/>
	<path class="st19" d="M682.2,674.2c-0.5-0.1-0.8-0.5-0.8-0.7v-0.1h3v0.1c0,0.1,0.1,0.2,0.2,0.4c0.2,0.1,0.5,0.1,0.7,0.1
		c0.4,0,0.6,0,0.7-0.1s0.2-0.1,0.2-0.2s-0.1-0.2-0.4-0.4c-0.3-0.1-0.6-0.2-0.8-0.2c-0.4,0-0.7-0.1-1.2-0.1c-0.4,0-0.8-0.1-1.2-0.2
		c-0.3-0.1-0.6-0.2-0.8-0.3c-0.2-0.1-0.4-0.3-0.4-0.6c0-0.7,1-1.1,3-1.2v-0.4h1.5v0.4c0.8,0,1.6,0.1,2.4,0.4
		c0.5,0.2,0.7,0.5,0.7,0.8h-2.8v-0.1c0-0.1-0.1-0.2-0.2-0.2c-0.2-0.1-0.4-0.2-0.6-0.1c-0.4,0-0.6,0-0.7,0.1s-0.2,0.1-0.2,0.2
		s0.1,0.2,0.4,0.4s0.6,0.1,1,0.2s0.7,0.1,1.2,0.1c0.4,0,0.8,0.1,1.2,0.2c0.3,0.1,0.6,0.2,1,0.4c0.2,0.1,0.4,0.3,0.4,0.6
		c0,0.4-0.2,0.7-0.8,0.8c-0.8,0.2-1.7,0.3-2.5,0.4v0.5h-1.6v-0.5C683.6,674.4,682.8,674.3,682.2,674.2z"/>
	<path class="st20" d="M670,668.8v2.9c0,2.5,5.9,4.4,13.2,4.4s13.2-2,13.2-4.4v-2.9H670z"/>
	<path class="st4" d="M696.4,668.9c0,2.5-5.9,4.4-13.2,4.4s-13.2-2-13.2-4.4s5.9-4.4,13.2-4.4S696.4,666.4,696.4,668.9z"/>
	<path class="st20" d="M694,668.9c0,2-4.8,3.6-10.8,3.6s-10.8-1.7-10.8-3.6s4.8-3.6,10.8-3.6S694,666.9,694,668.9z"/>
	<path class="st19" d="M680,670.5c-0.5-0.1-0.8-0.4-0.8-0.7v-0.1h3v0.1c0,0.1,0.1,0.2,0.2,0.4c0.2,0.1,0.5,0.1,0.7,0.1
		c0.4,0,0.6,0,0.7-0.1s0.2-0.1,0.2-0.2s-0.1-0.2-0.4-0.4c-0.3-0.1-0.6-0.2-0.8-0.2c-0.4,0-0.7-0.1-1.2-0.1c-0.4,0-0.8-0.1-1.2-0.2
		c-0.3-0.1-0.6-0.2-0.8-0.4c-0.2-0.1-0.4-0.3-0.4-0.6c0-0.7,1-1.1,3-1.2v-0.4h1.6v0.4c0.8,0,1.6,0.1,2.4,0.4
		c0.5,0.2,0.7,0.5,0.7,0.8h-2.9v-0.1c0-0.1-0.1-0.2-0.2-0.2c-0.2-0.1-0.4-0.2-0.6-0.1c-0.4,0-0.6,0-0.7,0.1s-0.2,0.1-0.2,0.2
		s0.1,0.2,0.4,0.4s0.6,0.1,1,0.2s0.7,0.1,1.2,0.1c0.4,0,0.8,0.1,1.2,0.2c0.3,0.1,0.7,0.2,1,0.4c0.2,0.1,0.4,0.3,0.4,0.6
		c0,0.4-0.2,0.7-0.8,0.8c-0.8,0.2-1.7,0.3-2.5,0.4v0.5h-1.6v-0.5C681.3,670.7,680.6,670.6,680,670.5z"/>
	<path class="st20" d="M671.4,665.2v2.9c0,2.5,5.9,4.4,13.2,4.4s13.2-2,13.2-4.4v-2.9H671.4z"/>
	<ellipse class="st4" cx="684.6" cy="665.2" rx="13.2" ry="4.4"/>
	<ellipse class="st20" cx="684.6" cy="665.2" rx="10.8" ry="3.6"/>
	<path class="st19" d="M681.4,666.7c-0.5-0.1-0.8-0.5-0.8-0.7v-0.1h3v0.1c0,0.1,0.1,0.2,0.2,0.4c0.2,0.1,0.5,0.1,0.7,0.1
		c0.3,0,0.6,0,0.7-0.1s0.2-0.1,0.2-0.2s-0.1-0.2-0.4-0.4c-0.3-0.1-0.5-0.2-0.8-0.2c-0.4,0-0.7-0.1-1.2-0.1c-0.4,0-0.8-0.1-1.2-0.2
		c-0.3-0.1-0.6-0.2-0.8-0.4c-0.2-0.1-0.4-0.3-0.3-0.6c0-0.7,1-1.1,3-1.2v-0.4h1.5v0.3c0.8,0,1.6,0.1,2.4,0.4
		c0.5,0.2,0.7,0.5,0.7,0.8h-2.9v-0.1c0-0.1-0.1-0.2-0.2-0.2c-0.2-0.1-0.4-0.2-0.6-0.1c-0.3,0-0.6,0-0.7,0.1s-0.2,0.1-0.2,0.2
		s0.1,0.2,0.4,0.4c0.3,0.1,0.7,0.2,1,0.2c0.4,0,0.7,0.1,1.2,0.1c0.4,0,0.8,0.1,1.2,0.2c0.3,0.1,0.7,0.2,1,0.4
		c0.2,0.1,0.4,0.4,0.3,0.6c0,0.4-0.2,0.7-0.8,0.8c-0.8,0.2-1.7,0.3-2.5,0.4v0.5h-1.5v-0.5C683.1,667.1,682.2,667,681.4,666.7z"/>
	<path class="st20" d="M673.3,661.5v2.9c0,2.5,5.9,4.4,13.2,4.4s13.2-2,13.2-4.4v-2.9H673.3z"/>
	<path class="st4" d="M699.6,661.5c0,2.5-5.9,4.4-13.2,4.4s-13.2-2-13.2-4.4s5.9-4.4,13.2-4.4S699.6,659,699.6,661.5z"/>
	<path class="st20" d="M697.2,661.5c0,2-4.8,3.6-10.8,3.6s-10.8-1.7-10.8-3.6s4.8-3.6,10.8-3.6S697.2,659.4,697.2,661.5z"/>
	<path class="st19" d="M683.2,663c-0.5-0.1-0.8-0.4-0.8-0.7v-0.1h3v0.1c0,0.1,0.1,0.2,0.2,0.4c0.2,0.1,0.5,0.1,0.7,0.1
		c0.4,0,0.6,0,0.7-0.1s0.2-0.1,0.2-0.2s-0.1-0.2-0.4-0.4c-0.3-0.1-0.6-0.2-0.8-0.2c-0.4,0-0.7-0.1-1.2-0.1c-0.4,0-0.8-0.1-1.2-0.2
		c-0.3-0.1-0.6-0.2-0.8-0.4c-0.2-0.1-0.4-0.3-0.4-0.6c0-0.7,1-1.1,3-1.2V659h1.5v0.4c0.8,0,1.6,0.1,2.4,0.4c0.5,0.2,0.7,0.5,0.7,0.8
		h-2.9v-0.1c0-0.1-0.1-0.2-0.2-0.2c-0.2-0.1-0.4-0.2-0.6-0.1c-0.4,0-0.6,0-0.7,0.1s-0.2,0.1-0.2,0.2s0.1,0.2,0.4,0.4
		c0.3,0.1,0.7,0.2,1,0.2c0.4,0,0.7,0.1,1.2,0.1c0.4,0,0.8,0.1,1.2,0.2c0.3,0.1,0.7,0.2,1,0.4c0.2,0.1,0.4,0.3,0.4,0.6
		c0,0.4-0.2,0.7-0.8,0.8c-0.8,0.2-1.7,0.3-2.5,0.4v0.5h-1.6v-0.5C684.8,663.5,684,663.3,683.2,663z"/>
	<path class="st20" d="M672.3,657.8v2.9c0,2.5,5.9,4.4,13.2,4.4s13.2-2,13.2-4.4v-2.9H672.3z"/>
	<ellipse class="st4" cx="685.5" cy="657.8" rx="13.2" ry="4.4"/>
	<ellipse class="st20" cx="685.5" cy="657.8" rx="10.8" ry="3.6"/>
	<path class="st19" d="M682.2,659.4c-0.5-0.1-0.8-0.5-0.8-0.7v-0.1h3v0.1c0,0.1,0.1,0.2,0.2,0.4c0.2,0.1,0.5,0.1,0.7,0.1
		c0.4,0,0.6,0,0.7-0.1s0.2-0.1,0.2-0.2s-0.1-0.2-0.4-0.4c-0.3-0.1-0.6-0.2-0.8-0.2c-0.4,0-0.7-0.1-1.2-0.1c-0.4,0-0.8-0.1-1.2-0.2
		c-0.3-0.1-0.6-0.2-0.8-0.4c-0.2-0.1-0.4-0.3-0.4-0.6c0-0.7,1-1.1,3-1.2v-0.4h1.5v0.4c0.8,0,1.6,0.1,2.4,0.4
		c0.5,0.2,0.7,0.5,0.7,0.8h-2.8v-0.1c0-0.1-0.1-0.2-0.2-0.2c-0.2-0.1-0.4-0.2-0.6-0.1c-0.4,0-0.6,0-0.7,0.1s-0.2,0.1-0.2,0.2
		s0.1,0.2,0.4,0.3s0.6,0.1,1,0.2s0.7,0.1,1.2,0.1c0.4,0,0.8,0.1,1.2,0.2c0.3,0.1,0.6,0.2,1,0.4c0.2,0.1,0.4,0.3,0.4,0.6
		c0,0.4-0.2,0.7-0.8,0.8c-0.8,0.2-1.7,0.3-2.5,0.4v0.5h-1.6v-0.5C683.6,659.7,682.8,659.6,682.2,659.4z"/>
	<path class="st20" d="M673.6,654v2.9c0,2.5,5.9,4.4,13.2,4.4s13.2-2,13.2-4.4V654H673.6z"/>
	<ellipse class="st4" cx="686.9" cy="654" rx="13.2" ry="4.4"/>
	<path class="st20" d="M697.6,654c0,2-4.8,3.6-10.8,3.6S676,656,676,654s4.8-3.6,10.8-3.6S697.6,652,697.6,654z"/>
	<path class="st19" d="M683.7,655.7c-0.5-0.1-0.8-0.5-0.8-0.7v-0.2h3v0.1c0,0.1,0.1,0.2,0.2,0.4c0.2,0.1,0.5,0.1,0.7,0.1
		c0.4,0,0.6,0,0.7-0.1s0.2-0.1,0.2-0.2s-0.1-0.2-0.4-0.4c-0.3-0.1-0.6-0.2-0.8-0.2c-0.4,0-0.7-0.1-1.2-0.1c-0.4,0-0.8-0.1-1.2-0.2
		c-0.3-0.1-0.6-0.2-0.8-0.4c-0.2-0.1-0.4-0.3-0.4-0.6c0-0.7,1-1.1,3-1.2v-0.4h1.6v0.4c0.8,0,1.6,0.1,2.4,0.4
		c0.5,0.2,0.7,0.5,0.7,0.8h-2.9V653c0-0.1-0.1-0.2-0.2-0.2c-0.2-0.1-0.4-0.2-0.6-0.1c-0.4,0-0.6,0-0.7,0.1s-0.2,0.1-0.2,0.2
		s0.1,0.2,0.4,0.3s0.6,0.1,1,0.2s0.7,0.1,1.2,0.1c0.4,0,0.8,0.1,1.2,0.2c0.3,0.1,0.7,0.2,1,0.4c0.2,0.1,0.4,0.3,0.4,0.6
		c0,0.4-0.2,0.7-0.8,0.8c-0.8,0.2-1.7,0.3-2.5,0.4v0.5h-1.6V656C685.3,656,684.5,655.9,683.7,655.7z"/>
	<path class="st20" d="M671.8,650.3v2.9c0,2.5,5.9,4.4,13.2,4.4s13.2-2,13.2-4.4v-2.9H671.8z"/>
	<ellipse class="st4" cx="685" cy="650.3" rx="13.2" ry="4.4"/>
	<ellipse class="st20" cx="685" cy="650.3" rx="10.8" ry="3.6"/>
	<path class="st19" d="M681.8,652c-0.5-0.1-0.8-0.5-0.8-0.7v-0.1h3v0.1c0,0.1,0.1,0.2,0.2,0.4c0.2,0.1,0.5,0.1,0.7,0.1
		c0.4,0,0.6,0,0.7-0.1s0.2-0.1,0.2-0.2s-0.1-0.2-0.4-0.4c-0.3-0.1-0.6-0.2-0.8-0.2c-0.3,0-0.7-0.1-1.2-0.1c-0.4,0-0.8-0.1-1.2-0.2
		c-0.3-0.1-0.6-0.2-0.8-0.4c-0.2-0.1-0.4-0.3-0.4-0.6c0-0.7,1-1.1,3-1.2V648h1.5v0.4c0.8,0,1.6,0.1,2.4,0.4c0.5,0.2,0.7,0.5,0.7,0.8
		h-2.9v-0.1c0-0.1-0.1-0.2-0.2-0.2c-0.2-0.1-0.4-0.2-0.6-0.1c-0.4,0-0.6,0-0.7,0.1s-0.2,0.1-0.2,0.2s0.1,0.2,0.4,0.3s0.6,0.1,1,0.2
		s0.7,0.1,1.2,0.1c0.4,0,0.8,0.1,1.2,0.2c0.3,0.1,0.7,0.2,1,0.4c0.2,0.1,0.4,0.3,0.4,0.6c0,0.4-0.2,0.7-0.8,0.8
		c-0.8,0.2-1.7,0.3-2.5,0.4v0.5h-1.5v-0.5C683.1,652.3,682.4,652.1,681.8,652z"/>
	<path class="st20" d="M670.5,646.8v2.9c0,2.5,5.9,4.4,13.2,4.4s13.2-2,13.2-4.4v-2.9H670.5z"/>
	<path class="st4" d="M696.8,646.8c0,2.5-5.9,4.4-13.2,4.4s-13.2-2-13.2-4.4s5.9-4.4,13.2-4.4S696.8,644.2,696.8,646.8z"/>
	<path class="st20" d="M694.5,646.8c0,2-4.8,3.6-10.8,3.6s-10.8-1.7-10.8-3.6s4.8-3.6,10.8-3.6S694.5,644.7,694.5,646.8z"/>
	<path class="st19" d="M680.5,648.3c-0.5-0.1-0.8-0.5-0.8-0.7v-0.1h3v0.1c0,0.1,0.1,0.2,0.2,0.4c0.2,0.1,0.5,0.1,0.7,0.1
		c0.4,0,0.6,0,0.7-0.1s0.2-0.1,0.2-0.2s-0.1-0.2-0.4-0.4c-0.3-0.1-0.6-0.2-0.8-0.2c-0.4,0-0.7-0.1-1.2-0.1c-0.4,0-0.8-0.1-1.2-0.2
		c-0.3-0.1-0.6-0.2-0.8-0.4c-0.2-0.1-0.4-0.3-0.4-0.6c0-0.7,1-1.1,3-1.2v-0.4h1.6v0.4c0.8,0,1.6,0.1,2.4,0.4
		c0.5,0.2,0.7,0.5,0.7,0.8h-2.9v-0.1c0-0.1-0.1-0.2-0.2-0.2c-0.2-0.1-0.4-0.2-0.6-0.1c-0.4,0-0.6,0-0.7,0.1s-0.2,0.1-0.2,0.2
		s0.1,0.2,0.4,0.4s0.6,0.1,1,0.2s0.7,0.1,1.2,0.1c0.4,0,0.8,0.1,1.2,0.2c0.3,0.1,0.7,0.2,1,0.4c0.2,0.1,0.4,0.3,0.4,0.6
		c0,0.4-0.2,0.7-0.8,0.8c-0.8,0.2-1.7,0.3-2.5,0.4v0.5h-1.6v-0.5C681.8,648.5,680.9,648.4,680.5,648.3z"/>
	<path class="st20" d="M672.3,643v2.9c0,2.5,5.9,4.4,13.2,4.4s13.2-2,13.2-4.4V643H672.3z"/>
	<ellipse class="st4" cx="685.5" cy="643" rx="13.2" ry="4.4"/>
	<ellipse class="st20" cx="685.5" cy="643" rx="10.8" ry="3.6"/>
	<path class="st19" d="M682.2,644.6c-0.5-0.1-0.8-0.4-0.8-0.7v-0.1h3v0.1c0,0.1,0.1,0.2,0.2,0.4c0.2,0.1,0.5,0.1,0.7,0.1
		c0.4,0,0.6,0,0.7-0.1s0.2-0.1,0.2-0.2s-0.1-0.2-0.4-0.4c-0.3-0.1-0.6-0.2-0.8-0.2c-0.4,0-0.7-0.1-1.2-0.1c-0.4,0-0.8-0.1-1.2-0.2
		c-0.3-0.1-0.6-0.2-0.8-0.4c-0.2-0.1-0.4-0.3-0.4-0.6c0-0.7,1-1.1,3-1.2v-0.4h1.5v0.4c0.8,0,1.6,0.1,2.4,0.4
		c0.5,0.2,0.7,0.5,0.7,0.8h-2.8V642c0-0.1-0.1-0.2-0.2-0.2c-0.2-0.1-0.4-0.2-0.6-0.1c-0.4,0-0.6,0-0.7,0.1s-0.2,0.1-0.2,0.2
		s0.1,0.2,0.4,0.4s0.6,0.1,1,0.2s0.7,0.1,1.2,0.1c0.4,0,0.8,0.1,1.2,0.2c0.3,0.1,0.6,0.2,1,0.4c0.2,0.1,0.4,0.3,0.4,0.6
		c0,0.4-0.2,0.7-0.8,0.8c-0.8,0.2-1.7,0.3-2.5,0.4v0.5h-1.6v-0.5C683.9,645,683.1,644.8,682.2,644.6z"/>
	<path class="st20" d="M673.6,639.3v2.9c0,2.5,5.9,4.4,13.2,4.4s13.2-2,13.2-4.4v-2.9H673.6z"/>
	<path class="st4" d="M700.1,639.3c0,2.5-5.9,4.4-13.2,4.4s-13.2-2-13.2-4.4s5.9-4.4,13.2-4.4S700.1,636.8,700.1,639.3z"/>
	<path class="st20" d="M634.1,678.2v2.9c0,2.5,5.9,4.4,13.2,4.4s13.2-2,13.2-4.4v-2.9H634.1z"/>
	<path class="st4" d="M660.5,678.2c0,2.5-5.9,4.4-13.2,4.4s-13.2-2-13.2-4.4s5.9-4.4,13.2-4.4S660.5,675.7,660.5,678.2z"/>
	<path class="st20" d="M658.1,678.2c0,2-4.8,3.6-10.8,3.6s-10.8-1.7-10.8-3.6s4.8-3.6,10.8-3.6S658.1,676.2,658.1,678.2z"/>
	<path class="st19" d="M644.1,679.8c-0.5-0.1-0.8-0.5-0.8-0.7V679h3v0.1c0,0.1,0.1,0.2,0.2,0.4c0.2,0.1,0.5,0.1,0.7,0.1
		c0.4,0,0.6,0,0.7-0.1s0.2-0.1,0.2-0.2s-0.1-0.2-0.4-0.4c-0.3-0.1-0.6-0.2-0.8-0.2c-0.3,0-0.7-0.1-1.2-0.1c-0.4,0-0.8-0.1-1.2-0.2
		c-0.3-0.1-0.6-0.2-0.8-0.4c-0.2-0.1-0.4-0.3-0.4-0.6c0-0.7,1-1.1,3-1.2v-0.4h1.5v0.4c0.8,0,1.6,0.1,2.4,0.3
		c0.5,0.2,0.7,0.5,0.7,0.8h-2.9v-0.1c0-0.1-0.1-0.2-0.2-0.2c-0.2-0.1-0.4-0.2-0.6-0.1c-0.4,0-0.6,0-0.7,0.1s-0.2,0.1-0.2,0.2
		s0.1,0.2,0.3,0.4s0.6,0.1,1,0.2s0.7,0.1,1.2,0.1c0.4,0,0.8,0.1,1.2,0.2c0.3,0.1,0.7,0.2,1,0.4c0.2,0.1,0.4,0.3,0.4,0.6
		c0,0.4-0.2,0.7-0.8,0.8c-0.8,0.2-1.7,0.3-2.5,0.4v0.5h-1.5v-0.5C645.7,680.2,644.9,680,644.1,679.8z"/>
	<path class="st20" d="M635.5,674.5v2.9c0,2.5,5.9,4.4,13.2,4.4s13.2-2,13.2-4.4v-2.9H635.5z"/>
	<ellipse class="st4" cx="648.6" cy="674.5" rx="13.2" ry="4.4"/>
	<ellipse class="st18" cx="648.6" cy="674.5" rx="10.8" ry="3.6"/>
	<path class="st19" d="M645.4,676.1c-0.5-0.1-0.8-0.5-0.8-0.7v-0.1h3v0.1c0,0.1,0.1,0.2,0.2,0.4c0.2,0.1,0.5,0.1,0.7,0.1
		c0.4,0,0.6,0,0.7-0.1s0.2-0.1,0.2-0.2s-0.1-0.2-0.4-0.4c-0.3-0.1-0.6-0.2-0.8-0.2c-0.4,0-0.7-0.1-1.2-0.1c-0.4,0-0.8-0.1-1.2-0.2
		c-0.3-0.1-0.6-0.2-0.8-0.4c-0.2-0.1-0.4-0.3-0.4-0.6c0-0.7,1-1.1,3-1.2V672h1.6v0.3c0.8,0,1.6,0.1,2.4,0.4c0.5,0.2,0.7,0.5,0.7,0.8
		h-2.9v-0.1c0-0.1-0.1-0.2-0.2-0.2c-0.2-0.1-0.4-0.2-0.6-0.1c-0.4,0-0.6,0-0.7,0.1s-0.2,0.1-0.2,0.2s0.1,0.2,0.4,0.4s0.6,0.1,1,0.2
		s0.7,0.1,1.2,0.1c0.4,0,0.8,0.1,1.2,0.2c0.3,0.1,0.7,0.2,1,0.4c0.2,0.1,0.4,0.3,0.4,0.6c0,0.4-0.2,0.7-0.8,0.8
		c-0.8,0.2-1.7,0.3-2.5,0.4v0.5h-1.6v-0.5C647,676.5,646.2,676.3,645.4,676.1z"/>
	<path class="st20" d="M634.6,670.8v2.9c0,2.5,5.9,4.4,13.2,4.4s13.2-2,13.2-4.4v-2.9H634.6z"/>
	<path class="st4" d="M661,670.8c0,2.5-5.9,4.4-13.2,4.4s-13.2-2-13.2-4.4s5.9-4.4,13.2-4.4S661,668.3,661,670.8z"/>
	<path class="st18" d="M658.5,670.8c0,2-4.8,3.6-10.8,3.6s-10.8-1.7-10.8-3.6s4.8-3.6,10.8-3.6S658.5,668.8,658.5,670.8z"/>
	<path class="st19" d="M644.5,672.5c-0.5-0.1-0.8-0.5-0.8-0.7v-0.2h3v0.1c0,0.1,0.1,0.2,0.2,0.4c0.2,0.1,0.5,0.1,0.7,0.1
		c0.4,0,0.6,0,0.7-0.1s0.2-0.1,0.2-0.2s-0.1-0.2-0.4-0.4c-0.3-0.1-0.6-0.2-0.8-0.2c-0.4,0-0.7-0.1-1.2-0.1c-0.4,0-0.8-0.1-1.2-0.2
		c-0.3-0.1-0.6-0.2-0.8-0.4c-0.2-0.1-0.4-0.3-0.4-0.6c0-0.7,1-1.1,3-1.2v-0.3h1.6v0.3c0.8,0,1.6,0.1,2.4,0.4
		c0.5,0.2,0.7,0.5,0.7,0.8h-2.9v-0.1c0-0.1-0.1-0.2-0.2-0.2c-0.2-0.1-0.4-0.2-0.6-0.1c-0.4,0-0.6,0-0.7,0.1s-0.2,0.1-0.2,0.2
		s0.1,0.2,0.4,0.4s0.6,0.1,1,0.2s0.7,0.1,1.2,0.1c0.4,0,0.8,0.1,1.2,0.2c0.3,0.1,0.7,0.2,1,0.4c0.2,0.1,0.4,0.3,0.4,0.6
		c0,0.4-0.2,0.7-0.8,0.8c-0.8,0.2-1.7,0.3-2.5,0.4v0.5H647v-0.6C646.2,672.7,645.4,672.7,644.5,672.5z"/>
	<path class="st20" d="M632.3,667.1v2.9c0,2.5,5.9,4.4,13.2,4.4s13.2-2,13.2-4.4v-2.9H632.3z"/>
	<ellipse class="st4" cx="645.5" cy="667.1" rx="13.2" ry="4.4"/>
	<ellipse class="st20" cx="645.5" cy="667.1" rx="10.8" ry="3.6"/>
	<path class="st19" d="M642.3,668.8c-0.5-0.1-0.8-0.5-0.8-0.7v-0.1h3v0.1c0,0.1,0.1,0.2,0.2,0.4c0.2,0.1,0.5,0.1,0.7,0.1
		c0.4,0,0.6,0,0.7-0.1s0.2-0.1,0.2-0.2s-0.1-0.2-0.4-0.4c-0.3-0.1-0.6-0.2-0.8-0.2c-0.4,0-0.7-0.1-1.2-0.1c-0.4,0-0.8-0.1-1.2-0.2
		c-0.3-0.1-0.6-0.2-0.8-0.4c-0.2-0.1-0.4-0.3-0.4-0.6c0-0.7,1-1.1,3-1.2v-0.4h1.6v0.4c0.8,0,1.6,0.1,2.4,0.4
		c0.5,0.2,0.7,0.5,0.7,0.8h-2.9v-0.1c0-0.1-0.1-0.2-0.2-0.2c-0.2-0.1-0.4-0.2-0.6-0.1c-0.4,0-0.6,0-0.7,0.1s-0.2,0.1-0.2,0.2
		s0.1,0.2,0.4,0.4s0.6,0.1,1,0.2s0.7,0.1,1.2,0.1c0.4,0,0.8,0.1,1.2,0.2c0.3,0.1,0.7,0.2,1,0.4c0.2,0.1,0.4,0.3,0.4,0.6
		c0,0.4-0.2,0.7-0.8,0.8c-0.8,0.2-1.7,0.3-2.5,0.4v0.5h-1.7v-0.5C643.6,669,642.8,668.9,642.3,668.8z"/>
	<path class="st20" d="M633.7,663.4v2.9c0,2.5,5.9,4.4,13.2,4.4s13.2-2,13.2-4.4v-2.9H633.7z"/>
	<path class="st4" d="M660,663.4c0,2.5-5.9,4.4-13.2,4.4s-13.2-2-13.2-4.4s5.9-4.4,13.2-4.4S660,661,660,663.4z"/>
	<path class="st20" d="M657.6,663.4c0,2-4.8,3.6-10.8,3.6s-10.8-1.7-10.8-3.6s4.8-3.6,10.8-3.6S657.6,661.5,657.6,663.4z"/>
	<path class="st19" d="M643.6,665.1c-0.5-0.1-0.8-0.4-0.8-0.7v-0.1h3v0.1c0,0.1,0.1,0.2,0.2,0.3c0.2,0.1,0.5,0.1,0.7,0.1
		c0.4,0,0.6,0,0.7-0.1s0.2-0.1,0.2-0.2s-0.1-0.2-0.4-0.4c-0.3-0.1-0.5-0.2-0.8-0.2c-0.4,0-0.7-0.1-1.2-0.1c-0.4,0-0.8-0.1-1.2-0.2
		c-0.3-0.1-0.6-0.2-0.8-0.4c-0.2-0.1-0.4-0.3-0.4-0.6c0-0.7,1-1.1,3-1.2V661h1.5v0.4c0.8,0,1.6,0.1,2.4,0.4c0.5,0.2,0.7,0.5,0.7,0.8
		h-2.9v-0.1c0-0.1-0.1-0.2-0.2-0.2c-0.2-0.1-0.4-0.2-0.6-0.1c-0.3,0-0.6,0-0.7,0.1s-0.2,0.1-0.2,0.2s0.1,0.2,0.4,0.4s0.6,0.1,1,0.2
		s0.7,0.1,1.2,0.1c0.4,0,0.8,0.1,1.2,0.2c0.3,0.1,0.6,0.2,1,0.4c0.2,0.1,0.4,0.3,0.4,0.6c0,0.3-0.2,0.7-0.8,0.8
		c-0.8,0.2-1.7,0.3-2.5,0.4v0.5H646v-0.5C644.9,665.3,644.2,665.2,643.6,665.1z"/>
	<path class="st20" d="M635.5,659.8v2.9c0,2.5,5.9,4.4,13.2,4.4s13.2-2,13.2-4.4v-2.9H635.5z"/>
	<ellipse class="st4" cx="648.6" cy="659.8" rx="13.2" ry="4.4"/>
	<ellipse class="st18" cx="648.6" cy="659.8" rx="10.8" ry="3.6"/>
	<path class="st19" d="M645.4,661.3c-0.5-0.1-0.8-0.5-0.8-0.7v-0.1h3v0.1c0,0.1,0.1,0.2,0.2,0.3c0.2,0.1,0.5,0.1,0.7,0.1
		c0.4,0,0.6,0,0.7-0.1s0.2-0.1,0.2-0.2s-0.1-0.2-0.4-0.4c-0.3-0.1-0.6-0.2-0.8-0.2c-0.4,0-0.7-0.1-1.2-0.1c-0.4,0-0.8-0.1-1.2-0.2
		c-0.3-0.1-0.6-0.2-0.8-0.4c-0.2-0.1-0.4-0.3-0.4-0.6c0-0.7,1-1.1,3-1.2v-0.4h1.6v0.4c0.8,0,1.6,0.1,2.4,0.4
		c0.5,0.2,0.7,0.5,0.7,0.8h-2.9v-0.1c0-0.1-0.1-0.2-0.2-0.2c-0.2-0.1-0.4-0.2-0.6-0.1c-0.4,0-0.6,0-0.7,0.1s-0.2,0.1-0.2,0.2
		s0.1,0.2,0.4,0.4s0.6,0.1,1,0.2s0.7,0.1,1.2,0.1c0.4,0,0.8,0.1,1.2,0.2c0.3,0.1,0.7,0.2,1,0.4c0.2,0.1,0.4,0.3,0.4,0.6
		c0,0.3-0.2,0.7-0.8,0.8c-0.8,0.2-1.7,0.3-2.5,0.4v0.5h-1.6v-0.5C647,661.7,646.2,661.6,645.4,661.3z"/>
	<path class="st20" d="M634.6,656.1v2.9c0,2.5,5.9,4.4,13.2,4.4s13.2-2.1,13.2-4.4v-2.9L634.6,656.1z"/>
	<ellipse class="st4" cx="647.8" cy="656.1" rx="13.2" ry="4.4"/>
	<ellipse class="st20" cx="647.8" cy="656.1" rx="10.8" ry="3.6"/>
	<path class="st19" d="M644.5,657.6c-0.5-0.1-0.8-0.4-0.8-0.7v-0.1h3v0.1c0,0.1,0.1,0.2,0.2,0.3c0.2,0.1,0.5,0.1,0.7,0.1
		c0.4,0,0.6,0,0.7-0.1s0.2-0.1,0.2-0.2s-0.1-0.2-0.4-0.4c-0.3-0.1-0.6-0.2-0.8-0.2c-0.4,0-0.7-0.1-1.2-0.1c-0.4,0-0.8-0.1-1.2-0.2
		c-0.3-0.1-0.6-0.2-0.8-0.4c-0.2-0.1-0.4-0.3-0.4-0.6c0-0.7,1-1.1,3-1.2v-0.4h1.6v0.4c0.8,0,1.6,0.1,2.4,0.4
		c0.5,0.2,0.7,0.5,0.7,0.8h-2.9V655c0-0.1-0.1-0.2-0.2-0.2c-0.2-0.1-0.4-0.2-0.6-0.1c-0.4,0-0.6,0-0.7,0.1s-0.2,0.1-0.2,0.2
		s0.1,0.2,0.4,0.4s0.6,0.1,1,0.2s0.7,0.1,1.2,0.1c0.4,0,0.8,0.1,1.2,0.2c0.3,0.1,0.7,0.2,1,0.4c0.2,0.1,0.4,0.3,0.4,0.6
		c0,0.3-0.2,0.7-0.8,0.8c-0.8,0.2-1.7,0.3-2.5,0.4v0.5H647v-0.5C646.2,658.1,645.4,657.9,644.5,657.6z"/>
	<path class="st20" d="M635.9,652.4v2.9c0,2.5,5.9,4.4,13.2,4.4s13.2-2,13.2-4.4v-2.9H635.9z"/>
	<ellipse class="st4" cx="649.1" cy="652.4" rx="13.2" ry="4.4"/>
	<ellipse class="st18" cx="649.1" cy="652.4" rx="10.8" ry="3.6"/>
	<path class="st19" d="M645.9,654c-0.5-0.1-0.8-0.5-0.8-0.7v-0.1h3v0.1c0,0.1,0.1,0.2,0.2,0.4c0.2,0.1,0.5,0.1,0.7,0.1
		c0.4,0,0.6,0,0.7-0.1s0.2-0.1,0.2-0.2s-0.1-0.2-0.4-0.3c-0.3-0.1-0.6-0.2-0.8-0.2c-0.4,0-0.7-0.1-1.2-0.1c-0.4,0-0.8-0.1-1.2-0.2
		c-0.3-0.1-0.6-0.2-0.8-0.4c-0.2-0.1-0.4-0.3-0.4-0.6c0-0.7,1-1.1,3-1.2V650h1.6v0.4c0.8,0,1.6,0.1,2.4,0.4c0.5,0.2,0.7,0.5,0.7,0.8
		H650v-0.1c0-0.1-0.1-0.2-0.2-0.2c-0.2-0.1-0.4-0.2-0.6-0.1c-0.4,0-0.6,0-0.7,0.1s-0.2,0.1-0.2,0.2s0.1,0.2,0.4,0.4s0.6,0.1,1,0.2
		s0.7,0.1,1.2,0.1c0.4,0,0.8,0.1,1.2,0.2c0.3,0.1,0.7,0.2,1,0.4c0.2,0.1,0.4,0.3,0.4,0.6c0,0.4-0.2,0.7-0.8,0.8
		c-0.8,0.2-1.7,0.3-2.5,0.4v0.5h-1.6v-0.5C647.2,654.3,646.5,654.2,645.9,654z"/>
	<path class="st20" d="M632.6,648.7v2.9c0,2.5,5.9,4.4,13.2,4.4s13.2-2,13.2-4.4v-2.9H632.6z"/>
	<ellipse class="st4" cx="645.8" cy="648.7" rx="13.2" ry="4.4"/>
	<ellipse class="st18" cx="645.8" cy="648.7" rx="10.8" ry="3.6"/>
	<path class="st19" d="M642.5,650.3c-0.5-0.1-0.8-0.5-0.8-0.7v-0.1h3v0.1c0,0.1,0.1,0.2,0.2,0.4c0.2,0.1,0.5,0.1,0.7,0.1
		c0.4,0,0.6,0,0.7-0.1s0.2-0.1,0.2-0.2s-0.1-0.2-0.4-0.3c-0.3-0.1-0.6-0.2-0.8-0.2c-0.4,0-0.7-0.1-1.2-0.1c-0.4,0-0.8-0.1-1.2-0.2
		c-0.3-0.1-0.6-0.2-0.8-0.4c-0.2-0.1-0.4-0.3-0.4-0.6c0-0.7,1-1.1,3-1.2v-0.4h1.6v0.4c0.8,0,1.6,0.1,2.4,0.4
		c0.5,0.2,0.7,0.5,0.7,0.8h-2.9v-0.1c0-0.1-0.1-0.2-0.2-0.2c-0.2-0.1-0.4-0.2-0.6-0.1c-0.4,0-0.6,0-0.7,0.1s-0.2,0.1-0.2,0.2
		s0.1,0.2,0.4,0.4s0.6,0.1,1,0.2s0.7,0.1,1.2,0.1c0.4,0,0.8,0.1,1.2,0.2c0.3,0.1,0.7,0.2,1,0.4c0.2,0.1,0.4,0.3,0.4,0.6
		c0,0.4-0.2,0.7-0.8,0.8c-0.8,0.2-1.7,0.3-2.5,0.4v0.5H645v-0.5C643.8,650.6,643.1,650.5,642.5,650.3z"/>
	<path class="st20" d="M632.6,645v2.9c0,2.5,5.9,4.4,13.2,4.4s13.2-2,13.2-4.4V645H632.6z"/>
	<ellipse class="st4" cx="645.8" cy="645" rx="13.2" ry="4.4"/>
	<ellipse class="st20" cx="645.8" cy="645" rx="10.8" ry="3.6"/>
	<path class="st19" d="M642.5,646.6c-0.5-0.1-0.8-0.4-0.8-0.7v-0.1h3v0.1c0,0.1,0.1,0.2,0.2,0.4c0.2,0.1,0.5,0.1,0.7,0.1
		c0.4,0,0.6,0,0.7-0.1s0.2-0.1,0.2-0.2s-0.1-0.2-0.4-0.4s-0.5-0.1-0.8-0.2s-0.7-0.1-1.2-0.1c-0.4,0-0.8-0.1-1.2-0.2
		c-0.3-0.1-0.6-0.2-0.8-0.4c-0.2-0.1-0.4-0.3-0.4-0.6c0-0.7,1-1.1,3-1.2v-0.4h1.6v0.4c0.8,0,1.6,0.1,2.4,0.4
		c0.5,0.2,0.7,0.5,0.7,0.8h-2.9V644c0-0.1-0.1-0.2-0.2-0.2c-0.2-0.1-0.4-0.2-0.6-0.1c-0.4,0-0.6,0-0.7,0.1s-0.2,0.1-0.2,0.2
		s0.1,0.2,0.4,0.4s0.6,0.1,1,0.2s0.7,0.1,1.2,0.1c0.4,0,0.8,0.1,1.2,0.2c0.3,0.1,0.7,0.2,1,0.4c0.2,0.1,0.4,0.3,0.4,0.6
		c0,0.4-0.2,0.7-0.8,0.8c-0.8,0.2-1.7,0.3-2.5,0.4v0.5H645v-0.5C643.8,646.9,643,646.8,642.5,646.6z"/>
	<path class="st20" d="M634.6,641.4v2.9c0,2.5,5.9,4.4,13.2,4.4s13.2-2,13.2-4.4v-2.9H634.6z"/>
	<ellipse class="st4" cx="647.8" cy="641.4" rx="13.2" ry="4.4"/>
	<path class="st4" d="M658.5,641.4c0,2-4.8,3.6-10.8,3.6s-10.8-1.7-10.8-3.6s4.8-3.6,10.8-3.6S658.5,639.3,658.5,641.4z"/>
	<path class="st19" d="M644.5,642.9c-0.5-0.1-0.8-0.5-0.8-0.7v-0.1h3v0.1c0,0.1,0.1,0.2,0.2,0.4c0.2,0.1,0.5,0.1,0.7,0.1
		c0.4,0,0.6,0,0.7-0.1s0.2-0.1,0.2-0.2s-0.1-0.2-0.4-0.4s-0.5-0.1-0.8-0.2s-0.7-0.1-1.2-0.1c-0.4,0-0.8-0.1-1.2-0.2
		c-0.3-0.1-0.6-0.2-0.8-0.4c-0.2-0.1-0.4-0.3-0.4-0.6c0-0.7,1-1.1,3-1.2v-0.4h1.6v0.4c0.8,0,1.6,0.1,2.4,0.4
		c0.5,0.2,0.7,0.5,0.7,0.8h-2.9v-0.1c0-0.1-0.1-0.2-0.2-0.2c-0.2-0.1-0.4-0.2-0.6-0.1c-0.4,0-0.6,0-0.7,0.1s-0.2,0.1-0.2,0.2
		s0.1,0.2,0.4,0.4s0.6,0.1,1,0.2s0.7,0.1,1.2,0.1c0.4,0,0.8,0.1,1.2,0.2c0.3,0.1,0.7,0.2,1,0.4c0.2,0.1,0.4,0.3,0.4,0.6
		c0,0.4-0.2,0.7-0.8,0.8c-0.8,0.2-1.7,0.3-2.5,0.4v0.5H647v-0.5C645.9,643.2,645,643,644.5,642.9z"/>
	<path class="st20" d="M635.9,637.7v2.9c0,2.5,5.9,4.4,13.2,4.4s13.2-2,13.2-4.4v-2.9H635.9z"/>
	<ellipse class="st4" cx="649.1" cy="637.7" rx="13.2" ry="4.4"/>
	<path class="st21" d="M670.5,647.7v1.8c0.1,0.8,0.6,1.6,1.3,2v1.7c0,0.8,0.7,1.5,1.8,2.3v0.2c-0.7,0.4-1.2,1.2-1.3,2l0,0v2.9
		c0.1,0.7,0.4,1.3,1,1.7v0.6c-1.2,0.7-1.8,1.4-1.8,2.3v1.7c-0.7,0.4-1.2,1.2-1.3,2v2.9c0,1,0.8,1.8,2.3,2.5v1.2
		c0.1,0.7,0.4,1.3,1,1.7v1c-0.7,0.4-1.2,1.2-1.3,2v3c0,1.5,2.5,3,6.2,3.8v-1.4c0-1-1-1.8-2.5-2.5l0,0c0.8-0.4,1.4-1.1,1.5-2v-1.4
		c1.3-0.7,2-1.4,2-2.3v-2.9c0-0.6-0.4-1.1-1.1-1.7v-1c1-0.6,1.6-1.3,1.6-2v-2.9c0-0.8-0.7-1.6-2-2.3V663c0-0.7-0.6-1.4-1.5-2v-0.2
		c1.3-0.7,2-1.4,2-2.3v-1.7c1-0.6,1.6-1.3,1.6-2v-2.9C679.6,650,675.9,648.4,670.5,647.7z"/>
	<path class="st21" d="M650.1,651.9v1.7c-1,0.6-1.6,1.3-1.6,2v1.4c-1.3,0.7-2,1.4-2,2.3v2.9c0.2,0.9,0.7,1.6,1.5,2v1.7
		c0,0.8,0.7,1.6,2,2.3v0.2c-1,0.6-1.6,1.3-1.6,2v2.9c0,0.6,0.4,1.1,1.1,1.7v0.6c-1.3,0.7-2,1.4-2,2.3v1.7c-0.8,0.4-1.4,1.1-1.5,2
		v2.9c0,0.5,0.3,1,0.6,1.3h0.6c7.3,0,13.2-2,13.2-4.4v-1.7c0.7-0.4,1.2-1.2,1.3-2v-2.9c-0.1-0.7-0.4-1.3-1-1.7v-2
		c0-1-0.8-1.8-2.3-2.5l0,0c0.7-0.4,1.2-1.2,1.3-2V665c1.2-0.7,1.8-1.4,1.8-2.3v-2.9c-0.1-0.7-0.4-1.3-1-1.7v-1.1
		c0.7-0.4,1.2-1.2,1.3-2v-2.8c0-0.8-0.7-1.6-1.8-2.3v-1.4c0-0.4-0.1-0.8-0.4-1.1C654.2,648.2,650.1,649.9,650.1,651.9z"/>
	<path class="st20" d="M649.7,691.2v2.8c0,2.5,5.9,4.4,13.2,4.4s13.1-2,13.1-4.4v-2.9L649.7,691.2z"/>
	<ellipse class="st4" cx="662.9" cy="691.2" rx="13.2" ry="4.4"/>
	<path class="st20" d="M673.6,691.2c0,2-4.8,3.6-10.8,3.6s-10.8-1.7-10.8-3.6s4.8-3.6,10.8-3.6S673.6,689.1,673.6,691.2z"/>
	<path class="st19" d="M659.6,692.7c-0.5-0.1-0.8-0.5-0.8-0.7v-0.1h3v0.1c0,0.1,0.1,0.2,0.2,0.4c0.2,0.1,0.5,0.1,0.7,0.1
		c0.4,0,0.6,0,0.7-0.1s0.2-0.1,0.2-0.2s-0.1-0.2-0.4-0.4c-0.3-0.1-0.6-0.2-0.8-0.2c-0.4,0-0.7-0.1-1.2-0.1c-0.4,0-0.8-0.1-1.2-0.2
		c-0.3-0.1-0.6-0.2-0.8-0.4c-0.2-0.1-0.4-0.3-0.4-0.6c0-0.7,1-1.1,3-1.2v-0.4h1.6v0.3c0.8,0,1.6,0.1,2.4,0.4
		c0.5,0.2,0.7,0.5,0.7,0.8h-2.9v-0.1c0-0.1-0.1-0.2-0.2-0.2c-0.2-0.1-0.4-0.2-0.6-0.1c-0.4,0-0.6,0-0.7,0.1s-0.2,0.1-0.2,0.2
		s0.1,0.2,0.4,0.4s0.6,0.1,1,0.2s0.7,0.1,1.2,0.1c0.4,0,0.8,0.1,1.2,0.2c0.3,0.1,0.7,0.2,1,0.3c0.2,0.1,0.4,0.3,0.4,0.6
		c0,0.4-0.2,0.7-0.8,0.8c-0.8,0.2-1.7,0.3-2.5,0.4v0.5H662v-0.6C661.2,693,660.4,692.9,659.6,692.7z"/>
	<path class="st20" d="M651,687.5v2.9c0,2.5,5.9,4.4,13.2,4.4s13.2-2,13.2-4.4v-2.9H651z"/>
	<ellipse class="st4" cx="664.2" cy="687.5" rx="13.2" ry="4.4"/>
	<ellipse class="st20" cx="664.2" cy="687.5" rx="10.8" ry="3.6"/>
	<path class="st19" d="M661,689c-0.5-0.1-0.8-0.5-0.8-0.7v-0.1h3v0.1c0,0.1,0.1,0.2,0.2,0.4c0.2,0.1,0.5,0.1,0.7,0.1
		c0.4,0,0.6,0,0.7-0.1s0.2-0.1,0.2-0.2s-0.1-0.2-0.4-0.4c-0.3-0.1-0.6-0.2-0.8-0.2c-0.4,0-0.7-0.1-1.2-0.1c-0.4,0-0.8-0.1-1.2-0.2
		c-0.3-0.1-0.6-0.2-0.8-0.4c-0.2-0.1-0.4-0.3-0.4-0.6c0-0.7,1-1.1,3-1.2v-0.4h1.6v0.4c0.8,0,1.6,0.1,2.4,0.4
		c0.5,0.2,0.7,0.5,0.7,0.8h-3v-0.1c0-0.1-0.1-0.2-0.2-0.2c-0.2-0.1-0.4-0.2-0.6-0.1c-0.4,0-0.6,0-0.7,0.1s-0.2,0.1-0.2,0.2
		s0.1,0.2,0.4,0.4s0.6,0.1,1,0.2s0.7,0.1,1.2,0.1c0.4,0,0.8,0.1,1.2,0.2c0.3,0.1,0.7,0.2,1,0.3c0.2,0.1,0.4,0.3,0.4,0.6
		c0,0.4-0.2,0.7-0.8,0.8c-0.8,0.2-1.7,0.3-2.5,0.4v0.5h-1.6v-0.5C662.6,689.4,661.8,689.2,661,689z"/>
	<path class="st20" d="M650.1,683.7v2.9c0,2.5,5.9,4.4,13.2,4.4s13.2-2,13.2-4.4v-2.9H650.1z"/>
	<ellipse class="st4" cx="663.3" cy="683.7" rx="13.2" ry="4.4"/>
	<path class="st20" d="M674,683.7c0,2-4.8,3.6-10.8,3.6s-10.8-1.7-10.8-3.6s4.8-3.6,10.8-3.6S674,681.7,674,683.7z"/>
	<path class="st19" d="M660,685.3c-0.5-0.1-0.8-0.5-0.8-0.7v-0.1h3v0.1c0,0.1,0.1,0.2,0.2,0.4c0.2,0.1,0.5,0.1,0.7,0.1
		c0.4,0,0.6,0,0.7-0.1s0.2-0.1,0.2-0.2s-0.1-0.2-0.4-0.4c-0.3-0.1-0.6-0.2-0.8-0.2c-0.4,0-0.7-0.1-1.2-0.1c-0.4,0-0.8-0.1-1.2-0.2
		c-0.3-0.1-0.6-0.2-0.8-0.3c-0.2-0.1-0.4-0.3-0.4-0.6c0-0.7,1-1.1,3-1.2v-0.4h1.6v0.4c0.8,0,1.6,0.1,2.4,0.4
		c0.5,0.2,0.7,0.5,0.7,0.8h-2.9v-0.1c0-0.1-0.1-0.2-0.2-0.2c-0.2-0.1-0.4-0.2-0.6-0.1c-0.4,0-0.6,0-0.7,0.1s-0.2,0.1-0.2,0.2
		s0.1,0.2,0.4,0.4s0.6,0.1,1,0.2s0.7,0.1,1.2,0.1c0.4,0,0.8,0.1,1.2,0.2c0.3,0.1,0.7,0.2,1,0.3c0.2,0.1,0.4,0.3,0.4,0.6
		c0,0.4-0.2,0.7-0.8,0.8c-0.8,0.2-1.7,0.3-2.5,0.4v0.5h-1.6v-0.5C661.6,685.7,660.8,685.5,660,685.3z"/>
	<path class="st20" d="M647.8,680v2.9c0,2.5,5.9,4.4,13.2,4.4s13.2-2,13.2-4.4V680H647.8z"/>
	<ellipse class="st4" cx="661.1" cy="680" rx="13.2" ry="4.4"/>
	<ellipse class="st20" cx="661.1" cy="680" rx="10.8" ry="3.6"/>
	<path class="st19" d="M657.7,681.7c-0.5-0.1-0.8-0.4-0.8-0.7v-0.1h3v0.1c0,0.1,0.1,0.2,0.2,0.4c0.2,0.1,0.5,0.1,0.7,0.1
		c0.4,0,0.6,0,0.7-0.1s0.2-0.1,0.2-0.2s-0.1-0.2-0.4-0.4c-0.3-0.1-0.6-0.2-0.8-0.2c-0.4,0-0.7-0.1-1.2-0.1c-0.4,0-0.8-0.1-1.2-0.2
		c-0.3-0.1-0.6-0.2-0.8-0.3c-0.2-0.1-0.4-0.3-0.4-0.6c0-0.7,1-1.1,3-1.2v-0.4h1.6v0.3c0.8,0,1.6,0.1,2.4,0.4
		c0.5,0.2,0.7,0.5,0.7,0.8h-2.9v-0.1c0-0.1-0.1-0.2-0.2-0.2c-0.2-0.1-0.4-0.2-0.6-0.1c-0.4,0-0.6,0-0.7,0.1s-0.2,0.1-0.2,0.2
		s0.1,0.2,0.4,0.4s0.6,0.1,1,0.2s0.7,0.1,1.2,0.1c0.4,0,0.8,0.1,1.2,0.2c0.3,0.1,0.7,0.2,1,0.4c0.2,0.1,0.4,0.3,0.4,0.6
		c0,0.4-0.2,0.7-0.8,0.8c-0.8,0.2-1.7,0.3-2.5,0.4v0.5h-1.6v-0.5C659.2,681.9,658.3,681.8,657.7,681.7z"/>
	<path class="st20" d="M649.2,676.3v2.9c0,2.5,5.9,4.4,13.2,4.4s13.2-2,13.2-4.4v-2.9H649.2z"/>
	<ellipse class="st4" cx="662.4" cy="676.3" rx="13.2" ry="4.4"/>
	<ellipse class="st4" cx="662.4" cy="676.3" rx="10.8" ry="3.6"/>
	<path class="st19" d="M659.2,678c-0.5-0.1-0.8-0.4-0.8-0.7v-0.1h3v0.1c0,0.1,0.1,0.2,0.2,0.4c0.2,0.1,0.5,0.1,0.7,0.1
		c0.4,0,0.6,0,0.7-0.1s0.2-0.1,0.2-0.2s-0.1-0.2-0.4-0.4c-0.3-0.1-0.6-0.2-0.8-0.2c-0.3,0-0.7-0.1-1.2-0.1c-0.4,0-0.8-0.1-1.2-0.2
		c-0.3-0.1-0.6-0.2-0.8-0.3c-0.2-0.1-0.4-0.3-0.4-0.6c0-0.7,1-1.1,3-1.2v-0.4h1.6v0.4c0.8,0,1.6,0.1,2.4,0.4
		c0.5,0.2,0.7,0.5,0.7,0.8h-2.9v-0.1c0-0.1-0.1-0.2-0.2-0.2c-0.2-0.1-0.4-0.2-0.6-0.1c-0.4,0-0.6,0-0.7,0.1s-0.2,0.1-0.2,0.2
		s0.1,0.2,0.4,0.4s0.6,0.1,1,0.2s0.7,0.1,1.2,0.1c0.4,0,0.8,0.1,1.2,0.2c0.3,0.1,0.7,0.2,1,0.4c0.2,0.1,0.4,0.3,0.4,0.6
		c0,0.4-0.2,0.7-0.8,0.8c-0.8,0.2-1.7,0.3-2.5,0.4v0.5h-1.5v-0.5C660.5,678.2,659.6,678.1,659.2,678z"/>
	<path class="st20" d="M651,672.7v2.9c0,2.5,5.9,4.4,13.2,4.4s13.2-2,13.2-4.4v-2.9H651z"/>
	<ellipse class="st4" cx="664.2" cy="672.7" rx="13.2" ry="4.4"/>
	<ellipse class="st20" cx="664.2" cy="672.7" rx="10.8" ry="3.6"/>
	<path class="st19" d="M661,674.3c-0.5-0.1-0.8-0.5-0.8-0.7v-0.1h3v0.1c0,0.1,0.1,0.2,0.2,0.4c0.2,0.1,0.5,0.1,0.7,0.1
		c0.4,0,0.6,0,0.7-0.1s0.2-0.1,0.2-0.2s-0.1-0.2-0.4-0.4c-0.3-0.1-0.6-0.2-0.8-0.2c-0.4,0-0.7-0.1-1.2-0.1c-0.4,0-0.8-0.1-1.2-0.2
		c-0.3-0.1-0.6-0.2-0.8-0.4c-0.2-0.1-0.4-0.3-0.4-0.6c0-0.7,1-1.1,3-1.2v-0.4h1.6v0.4c0.8,0,1.6,0.1,2.4,0.4
		c0.5,0.2,0.7,0.5,0.7,0.8h-3v-0.1c0-0.1-0.1-0.2-0.2-0.2c-0.2-0.1-0.4-0.2-0.6-0.1c-0.4,0-0.6,0-0.7,0.1s-0.2,0.1-0.2,0.2
		s0.1,0.2,0.4,0.4s0.6,0.1,1,0.2s0.7,0.1,1.2,0.1c0.4,0,0.8,0.1,1.2,0.2c0.3,0.1,0.7,0.2,1,0.4c0.2,0.1,0.4,0.3,0.4,0.6
		c0,0.4-0.2,0.7-0.8,0.8c-0.8,0.2-1.7,0.3-2.5,0.4v0.5h-1.6v-0.5C662.3,674.5,661.5,674.4,661,674.3z"/>
	<path class="st20" d="M650.1,669v2.9c0,2.5,5.9,4.4,13.2,4.4s13.2-2,13.2-4.4V669H650.1z"/>
	<path class="st4" d="M676.5,669c0,2.5-5.9,4.4-13.2,4.4s-13.2-2-13.2-4.4s5.9-4.4,13.2-4.4S676.5,666.5,676.5,669z"/>
	<path class="st20" d="M674,669c0,2-4.8,3.6-10.8,3.6s-10.8-1.7-10.8-3.6s4.8-3.6,10.8-3.6S674,667,674,669z"/>
	<path class="st19" d="M660,670.6c-0.5-0.1-0.8-0.5-0.8-0.7v-0.1h3v0.1c0,0.1,0.1,0.2,0.2,0.4c0.2,0.1,0.5,0.1,0.7,0.1
		c0.4,0,0.6,0,0.7-0.1s0.2-0.1,0.2-0.2s-0.1-0.2-0.4-0.4c-0.3-0.1-0.6-0.2-0.8-0.2c-0.4,0-0.7-0.1-1.2-0.1c-0.4,0-0.8-0.1-1.2-0.2
		c-0.3-0.1-0.6-0.2-0.8-0.4c-0.2-0.1-0.4-0.3-0.4-0.6c0-0.7,1-1.1,3-1.2v-0.4h1.6v0.4c0.8,0,1.6,0.1,2.4,0.4
		c0.5,0.2,0.7,0.5,0.7,0.8h-2.9v-0.1c0-0.1-0.1-0.2-0.2-0.2c-0.2-0.1-0.4-0.2-0.6-0.1c-0.4,0-0.6,0-0.7,0.1s-0.2,0.1-0.2,0.2
		s0.1,0.2,0.4,0.4c0.3,0.1,0.7,0.2,1,0.2c0.4,0,0.7,0.1,1.2,0.1c0.4,0,0.8,0.1,1.2,0.2c0.3,0.1,0.7,0.2,1,0.4
		c0.2,0.1,0.4,0.3,0.4,0.6c0,0.4-0.2,0.7-0.8,0.8c-0.8,0.2-1.7,0.3-2.5,0.4v0.5h-1.6V671C661.4,670.8,660.6,670.8,660,670.6z"/>
	<path class="st20" d="M651.5,665.3v2.9c0,2.5,5.9,4.4,13.2,4.4s13.2-2,13.2-4.4v-2.9H651.5z"/>
	<ellipse class="st4" cx="664.7" cy="665.3" rx="13.2" ry="4.4"/>
	<ellipse class="st20" cx="664.7" cy="665.3" rx="10.8" ry="3.6"/>
	<path class="st19" d="M661.4,666.9c-0.5-0.1-0.8-0.5-0.8-0.7V666h3v0.1c0,0.1,0.1,0.2,0.2,0.4c0.2,0.1,0.5,0.1,0.7,0.1
		c0.4,0,0.6,0,0.7-0.1s0.2-0.1,0.2-0.2s-0.1-0.2-0.4-0.4c-0.3-0.1-0.6-0.2-0.8-0.2c-0.4,0-0.7-0.1-1.2-0.1c-0.4,0-0.8-0.1-1.2-0.2
		c-0.3-0.1-0.6-0.2-0.8-0.4c-0.2-0.1-0.4-0.3-0.4-0.6c0-0.7,1-1.1,3-1.2v-0.4h1.6v0.4c0.8,0,1.6,0.1,2.4,0.4
		c0.5,0.2,0.7,0.5,0.7,0.8h-2.9c0-0.1-0.1-0.2-0.2-0.2c-0.2-0.1-0.4-0.2-0.6-0.1c-0.4,0-0.6,0-0.7,0.1s-0.2,0.1-0.2,0.2
		s0.1,0.2,0.4,0.3s0.6,0.1,1,0.2s0.7,0.1,1.2,0.1c0.4,0,0.8,0.1,1.2,0.2c0.3,0.1,0.7,0.2,1,0.4c0.2,0.1,0.4,0.3,0.4,0.6
		c0,0.4-0.2,0.7-0.8,0.8c-0.8,0.2-1.7,0.3-2.5,0.4v0.5h-1.6v-0.5C663.1,667.3,662.2,667.1,661.4,666.9z"/>
	<path class="st20" d="M649.7,661.6v2.9c0,2.5,5.9,4.4,13.2,4.4s13.2-2,13.2-4.4v-2.9H649.7z"/>
	<path class="st4" d="M676,661.6c0,2.5-5.9,4.4-13.2,4.4s-13.2-2-13.2-4.4s5.9-4.4,13.2-4.4S676,659.1,676,661.6z"/>
	<path class="st20" d="M673.6,661.6c0,2-4.8,3.6-10.8,3.6s-10.8-1.7-10.8-3.6s4.8-3.6,10.8-3.6S673.6,659.6,673.6,661.6z"/>
	<path class="st19" d="M659.6,663.3c-0.5-0.1-0.8-0.5-0.8-0.7v-0.1h3v0.1c0,0.1,0.1,0.2,0.2,0.4c0.2,0.1,0.5,0.1,0.7,0.1
		c0.4,0,0.6,0,0.7-0.1s0.2-0.1,0.2-0.2s-0.1-0.2-0.4-0.4c-0.3-0.1-0.6-0.2-0.8-0.2c-0.4,0-0.7-0.1-1.2-0.1c-0.4,0-0.8-0.1-1.2-0.2
		c-0.3-0.1-0.6-0.2-0.8-0.4c-0.2-0.1-0.4-0.3-0.4-0.6c0-0.7,1-1.1,3-1.2v-0.4h1.6v0.4c0.8,0,1.6,0.1,2.4,0.4
		c0.5,0.2,0.7,0.5,0.7,0.8h-2.9v-0.1c0-0.1-0.1-0.2-0.2-0.2c-0.2-0.1-0.4-0.2-0.6-0.1c-0.4,0-0.6,0-0.7,0.1s-0.2,0.1-0.2,0.2
		s0.1,0.2,0.4,0.3s0.6,0.1,1,0.2s0.7,0.1,1.2,0.1c0.4,0,0.8,0.1,1.2,0.2c0.3,0.1,0.7,0.2,1,0.4c0.2,0.1,0.4,0.3,0.4,0.6
		c0,0.4-0.2,0.7-0.8,0.8c-0.8,0.2-1.7,0.3-2.5,0.4v0.5H662v-0.5C661,663.5,660.1,663.4,659.6,663.3z"/>
	<path class="st20" d="M648.3,657.9v2.9c0,2.5,5.9,4.4,13.2,4.4s13.2-2,13.2-4.4v-2.9H648.3z"/>
	<ellipse class="st4" cx="661.4" cy="657.9" rx="13.2" ry="4.4"/>
	<ellipse class="st20" cx="661.4" cy="657.9" rx="10.8" ry="3.6"/>
	<path class="st19" d="M658.2,659.6c-0.5-0.1-0.8-0.4-0.8-0.7v-0.1h3v0.1c0,0.1,0.1,0.2,0.2,0.4c0.2,0.1,0.5,0.1,0.7,0.1
		c0.4,0,0.6,0,0.7-0.1s0.2-0.1,0.2-0.2s-0.1-0.2-0.4-0.4c-0.3-0.1-0.5-0.2-0.8-0.2c-0.4,0-0.7-0.1-1.2-0.1c-0.4,0-0.8-0.1-1.2-0.2
		c-0.3-0.1-0.6-0.2-0.8-0.4c-0.2-0.1-0.4-0.3-0.4-0.6c0-0.7,1-1.1,3-1.2v-0.4h1.5v0.4c0.8,0,1.6,0.1,2.4,0.4
		c0.5,0.2,0.7,0.5,0.7,0.8h-2.9v-0.1c0-0.1-0.1-0.2-0.2-0.2c-0.2-0.1-0.4-0.2-0.6-0.1c-0.4,0-0.6,0-0.7,0.1s-0.2,0.1-0.2,0.2
		s0.1,0.2,0.4,0.3s0.6,0.1,1,0.2s0.7,0.1,1.2,0.1c0.4,0,0.8,0.1,1.2,0.2c0.3,0.1,0.7,0.2,1,0.4c0.2,0.1,0.4,0.3,0.4,0.6
		c0,0.4-0.2,0.7-0.8,0.8c-0.8,0.2-1.7,0.3-2.5,0.4v0.5h-1.5V660C659.5,659.8,658.8,659.7,658.2,659.6z"/>
	<path class="st20" d="M650.1,654.2v2.9c0,2.5,5.9,4.4,13.2,4.4s13.2-2,13.2-4.4v-2.9H650.1z"/>
	<path class="st4" d="M676.5,654.2c0,2.5-5.9,4.4-13.2,4.4s-13.2-2-13.2-4.4s5.9-4.4,13.2-4.4S676.5,651.8,676.5,654.2z"/>
	<path class="st20" d="M674,654.2c0,2-4.8,3.6-10.8,3.6s-10.8-1.7-10.8-3.6s4.8-3.6,10.8-3.6S674,652.3,674,654.2z"/>
	<path class="st19" d="M660,655.8c-0.5-0.1-0.8-0.4-0.8-0.7V655h3v0.1c0,0.1,0.1,0.2,0.2,0.4c0.2,0.1,0.5,0.1,0.7,0.1
		c0.4,0,0.6,0,0.7-0.1s0.2-0.1,0.2-0.2s-0.1-0.2-0.4-0.4c-0.3-0.1-0.6-0.2-0.8-0.2c-0.4,0-0.7-0.1-1.2-0.1c-0.4,0-0.8-0.1-1.2-0.2
		c-0.3-0.1-0.6-0.2-0.8-0.4c-0.2-0.1-0.4-0.3-0.4-0.6c0-0.7,1-1.1,3-1.2v-0.4h1.6v0.4c0.8,0,1.6,0.1,2.4,0.4
		c0.5,0.2,0.7,0.5,0.7,0.8h-2.9v-0.1c0-0.1-0.1-0.2-0.2-0.2c-0.2-0.1-0.4-0.2-0.6-0.1c-0.4,0-0.6,0-0.7,0.1s-0.2,0.1-0.2,0.2
		s0.1,0.2,0.4,0.3s0.6,0.1,1,0.2s0.7,0.1,1.2,0.1c0.4,0,0.8,0.1,1.2,0.2c0.3,0.1,0.7,0.2,1,0.4c0.2,0.1,0.4,0.3,0.4,0.6
		c0,0.4-0.2,0.7-0.8,0.8c-0.8,0.2-1.7,0.3-2.5,0.4v0.5h-1.6v-0.5C661.4,656.1,660.6,656,660,655.8z"/>
	<path class="st20" d="M651.5,650.6v2.9c0,2.5,5.9,4.4,13.2,4.4s13.2-2,13.2-4.4v-2.9H651.5z"/>
	<ellipse class="st4" cx="664.7" cy="650.6" rx="13.2" ry="4.4"/>
	<polygon class="st10" points="208.5,642.4 136.5,673 181.3,682.1 245.7,648.7 	"/>
	<polygon class="st11" points="181.3,682.1 181.3,693.1 136.5,684.2 136.5,673 	"/>
	<polygon class="st12" points="245.7,648.7 245.7,656.7 181.3,693.1 181.3,682.1 	"/>
	<path class="st13" d="M210.4,648.1l17,2.8l-48,23.2l-21.2-4L210.4,648.1 M210,644.7l-63,26.6l33,6.2l58.3-28.2L210,644.7L210,644.7
		z"/>
	<ellipse class="st14" cx="212.9" cy="652.3" rx="4.2" ry="1.9"/>
	<ellipse class="st15" cx="196.5" cy="659.9" rx="12" ry="5.5"/>
	<ellipse class="st16" cx="196.5" cy="659.9" rx="8.3" ry="3.8"/>
	<line class="st17" x1="243.3" y1="652.3" x2="184.5" y2="683.5"/>
	<line class="st17" x1="243.3" y1="653.8" x2="184.5" y2="686.1"/>
	<line class="st17" x1="243.3" y1="656.1" x2="184.5" y2="688.4"/>
	<line class="st17" x1="139.2" y1="676.5" x2="177.2" y2="684.1"/>
	<line class="st17" x1="139.2" y1="679.3" x2="177.2" y2="686.7"/>
	<line class="st17" x1="139.2" y1="681.7" x2="177.2" y2="689.2"/>
	<polyline class="st17" points="217.9,650.3 219.4,651.7 211.8,649.9 	"/>
	<line class="st17" x1="211.1" y1="650.2" x2="213.2" y2="649.2"/>
	<ellipse transform="matrix(0.2224 -0.975 0.975 0.2224 -469.6882 715.1006)" class="st17" cx="213.5" cy="652" rx="0.8" ry="4.3"/>
	
		<ellipse transform="matrix(0.2224 -0.975 0.975 0.2224 -473.4101 713.0391)" class="st17" cx="210.3" cy="653.3" rx="0.8" ry="4.3"/>
	<ellipse class="st14" cx="179" cy="668.4" rx="4.2" ry="1.9"/>
	<polyline class="st17" points="183.9,666.4 185.5,667.7 177.8,665.9 	"/>
	<line class="st17" x1="177.2" y1="666.3" x2="179.3" y2="665.2"/>
	
		<ellipse transform="matrix(0.2224 -0.975 0.975 0.2224 -511.8131 694.4792)" class="st17" cx="179.5" cy="668.1" rx="0.8" ry="4.3"/>
	
		<ellipse transform="matrix(0.2224 -0.975 0.975 0.2224 -515.3892 692.3486)" class="st17" cx="176.3" cy="669.3" rx="0.8" ry="4.3"/>
	<polygon class="st10" points="198.2,626.6 126.4,657.3 171,666.4 235.4,632.9 	"/>
	<polygon class="st11" points="171,666.4 171,677.3 126.4,668.5 126.4,657.3 	"/>
	<polygon class="st12" points="235.4,632.9 235.4,640.9 171,677.3 171,666.4 	"/>
	<path class="st13" d="M200.2,632.4l17,2.8l-48,23.2l-21.2-4L200.2,632.4 M199.7,629l-63,26.6l32.9,6.2l58.3-28.2L199.7,629
		L199.7,629z"/>
	<ellipse class="st14" cx="202.7" cy="636.6" rx="4.2" ry="1.9"/>
	<ellipse class="st15" cx="186.2" cy="644.1" rx="12" ry="5.5"/>
	<ellipse class="st16" cx="186.2" cy="644.1" rx="8.3" ry="3.8"/>
	<line class="st17" x1="233.1" y1="636.6" x2="174.2" y2="667.7"/>
	<line class="st17" x1="233.1" y1="638" x2="174.2" y2="670.5"/>
	<line class="st17" x1="233.1" y1="640.3" x2="174.2" y2="672.6"/>
	<line class="st17" x1="129" y1="660.9" x2="167.1" y2="668.4"/>
	<line class="st17" x1="129" y1="663.5" x2="167.1" y2="671"/>
	<line class="st17" x1="129" y1="665.9" x2="167.1" y2="673.4"/>
	<polyline class="st17" points="207.8,634.7 209.2,635.9 201.6,634.1 	"/>
	<line class="st17" x1="200.9" y1="634.4" x2="203" y2="633.5"/>
	
		<ellipse transform="matrix(0.2224 -0.975 0.975 0.2224 -462.266 692.8049)" class="st17" cx="203.2" cy="636.2" rx="0.8" ry="4.3"/>
	
		<ellipse transform="matrix(0.2224 -0.975 0.975 0.2224 -465.9189 690.8892)" class="st17" cx="200.2" cy="637.5" rx="0.8" ry="4.3"/>
	<ellipse class="st14" cx="168.7" cy="652.6" rx="4.2" ry="1.9"/>
	<polyline class="st17" points="173.8,650.7 175.2,651.9 167.6,650.1 	"/>
	<line class="st17" x1="166.9" y1="650.6" x2="169.1" y2="649.5"/>
	
		<ellipse transform="matrix(0.2224 -0.975 0.975 0.2224 -504.3666 672.199)" class="st17" cx="169.2" cy="652.3" rx="0.8" ry="4.3"/>
	
		<ellipse transform="matrix(0.2224 -0.975 0.975 0.2224 -508.0361 670.2775)" class="st17" cx="166.2" cy="653.6" rx="0.8" ry="4.3"/>
	<rect x="59.7" y="310.4" class="st5" width="259" height="73.8"/>
	<path class="st0" d="M150.9,336.2c-0.3-0.7-1.3-0.5-2.5-0.4c-0.6,0.1-1.5,0.2-2.5,0.3l1-3.9c0.2-0.6-2.6-2.6-3.5-2
		c-0.6,0.4-1.5,3.1-2.5,6.7c-1.8,0.3-3.6,0.8-5.4,1.5v-0.3c0.2-1.7-2.3-2.6-3.8-2.6c-0.5,0-1,0-1.2,0.5c-3,5.7-5.1,12-7.1,17.8h-0.2
		c0-5.2,1.5-10.1,2.1-15.2c0.2-1.3-1.1-1.4-1.7-1.4c-2.7,0-4.1,7.1-4.5,15.9c-0.1,0.1-0.1,0.2-0.1,0.3c0,3.5-3.4,10.1-7.6,10.1
		c-2.8,0-3.8-1.9-3.8-4.3c0-2.4,0.3-4.8,1-7.1c0.5,1.3,1.8,2.2,3.2,2.2c4.3,0,6.2-6.1,6.2-12.9c0-4.9-2.4-6.4-4.5-6.4
		c-4.8,0-9.3,13.6-9.3,22.4c0,0.5,0,0.9,0.1,1.4c-0.2-0.3-0.6-0.4-0.9-0.3l-0.5,0.2c-2.2-3.1-5.3-6.7-7.7-9.3
		c6.2-1,10.1-4.8,10.1-11.1c0-5.9-5.5-10.9-12.1-11.5c0.1-0.4,0.2-0.7,0.3-1c-0.8-0.7-1.8-1.1-2.8-1.1c-1.4,0-1.2,0.9-1.3,1.5
		c-0.1,0.3-0.2,0.6-0.2,0.8c-7.3,1.1-8.7,6.3-8.7,6.3c0.1,0.8,3,2.5,3.4,2.5c0.1,0,0.2-0.1,0.3-0.2c0.6-2.1,2.2-3.9,4.2-4.9
		c-1.6,8.6-4.3,26-5.2,34.5c1.1,0.7,2.3,1.2,3.5,1.3c0.8,0,1.4-1.3,1.6-3.1c0.2-1.6-0.4-1.8-0.3-2.8l1.6-11.1h0.2
		c3.1,3.1,10.1,12.4,13.1,16.4c1-0.3,1.9-0.9,2.6-1.7c0.1-0.1,0.1-0.3,0.2-0.4c1.3,2.4,3.8,4,6.6,4c3.2,0,5.5-2.1,7-4.8
		c0.4,1.8,1.2,3,2.7,3c0.7,0,1.3-0.3,1.8-0.8c0-5,2.8-13.9,5-18.6h0.6c-0.7,3.4-1.2,6.9-1.4,10.5c0,4.3,1,8.1,4.7,8.1
		c2.7,0,4.6-2,5.5-4c1.1,2.8,3.3,4.5,5.7,4.5c3.4,0,8.4-4.1,8.4-7.7c0-3.2-1.9-2.7-1.9-2.7c-0.2,2.8-4.5,6.5-7.6,6.5
		c-1.1,0-1.7-0.8-1.7-2.2c0-8.1,0.6-8.4,3.4-19c2.6-0.4,5.2-0.7,7.8-0.8c0.4,0.1,0.7-0.2,0.8-0.6c0-0.1,0-0.1,0-0.2
		c-0.3-0.6-0.6-1.2-1.1-1.7C151.7,336.4,151.2,337,150.9,336.2z M113,338.9c0.3-0.7,0.6-1,0.8-1s0.7,0.3,0.7,2.5
		c0,4.9-1.6,10.8-3.5,10.8c-1.1,0-1.4-1.3-1.4-1.3C110.2,346.1,111.4,342.4,113,338.9z M93.1,329.8c0.3,0,0.7-0.1,1,0
		c4.4,0,7.5,2.7,7.5,6.9c0,6.8-4.8,9.7-11.1,9.5C91.3,340.1,92.3,334,93.1,329.8L93.1,329.8z M137.7,356.3c0,0.5,0,1,0.1,1.5
		c-0.5,1.5-1.5,3.6-3.1,3.6s-2.2-1.3-2.2-4c0-6.2,2.2-12.3,3-17.3c0.4,0.9,1.4,1.8,2.2,1.6l2.4-0.5
		C138.7,346.8,137.7,353.2,137.7,356.3L137.7,356.3z"/>
	<path class="st0" d="M183.8,354.5c-0.4,3.2-1.1,6.6-3.9,6.6c-1.8,0-2.2-1.6-2.2-4.1c0-4.2,1.3-9.7,2.9-15.6
		c0.3-1.2-1.7-1.3-2.2-1.4c0-0.2,0-0.4,0.1-0.6c0-1.6-1.6-3.9-5.2-3.9c-6.3,0-10.7,9.5-10.7,19c0,6.4,3,10.5,6.9,10.5
		c2.4-0.2,4.6-1.6,5.6-3.9h0.3c0.3,1.9,1.8,3.4,3.8,3.5c4,0,6.2-6,6.2-8.8c0-0.7-0.6-1.4-1.3-1.4C184,354.5,183.9,354.5,183.8,354.5
		z M169,361.5c-1.4,0-1.9-1.3-1.9-4.5c0-5.5,2.4-18.1,6.2-18.1c1,0,1,1.3,1,1.7c0,1.9-0.7,3.7-1.8,5.3c0.7,0.6,1.5,1,2.4,1.2
		C175,348.8,172.1,361.4,169,361.5L169,361.5z"/>
	<path class="st0" d="M228.1,358.3l-5.9-4.2l0,0l-1.4-1c-0.5,0.6-1,1.1-1.6,1.6c-0.6,0.6-1.3,1.1-2,1.5c-0.7,0.4-1.5,0.8-2.4,1
		c-0.9,0.2-1.9,0.3-2.8,0.3c-1.3,0-2.7-0.3-3.9-0.8c-1.1-0.5-2.2-1.3-3-2.3c-0.9-1-1.6-2.2-2-3.4c-0.5-1.3-0.7-2.8-0.7-4.2v-0.1
		c0-1.4,0.2-2.8,0.7-4.1c0.5-1.2,1.1-2.4,2-3.4c0.8-1,1.9-1.7,3-2.3c1.2-0.6,2.5-0.9,3.9-0.8c1.8,0,3.5,0.4,5,1.3
		c1.3,0.8,2.5,1.9,3.5,3.1l1.7-1.3l0,0l5.7-4.4c-0.8-1-1.6-2-2.6-2.9c-0.9-0.8-1.8-1.5-2.9-2.1h-0.1l-0.6-0.4
		c-1.4-0.7-2.8-1.3-4.3-1.6c-1.7-0.4-3.5-0.6-5.3-0.6c-2.7,0-5.5,0.5-8,1.5c-2.3,1-4.5,2.4-6.3,4.2c-3.7,3.7-5.7,8.7-5.7,13.9v0
		c0,5.2,2,10.3,5.7,14c1.8,1.8,3.9,3.1,6.2,4.1c2.4,1,5,1.5,7.6,1.5c1.9,0,3.8-0.2,5.6-0.6c1.6-0.4,3.1-1,4.5-1.8l0.4-0.2l0,0
		l0.2-0.1l0,0c1.1-0.7,2.1-1.4,3-2.3C226.3,360.5,227.3,359.4,228.1,358.3z"/>
	<path class="st0" d="M262.5,361.4c-1.9-1.8-3.4-4-4.4-6.4c-1.1-2.5-1.6-5.2-1.6-7.9V347c0-5.4,2.2-10.7,6.1-14.5l0.5-0.4l0.1-0.1
		v-3.9h-10.6l-9.4,15.3l-9.4-15.3H223v1.2l0.4,0.2l0.3,0.2l0.5,0.3l0.3,0.2c0.2,0.1,0.3,0.2,0.5,0.4c0.1,0.1,0.2,0.1,0.2,0.2
		c0.2,0.2,0.5,0.4,0.7,0.6c1.1,1,2.1,2.1,2.9,3.3l0.2,0.3l-6,4.6v14.1l6.3,4.5l-0.2,0.3c-0.9,1.2-1.9,2.4-3,3.5
		c-0.2,0.2-0.5,0.4-0.7,0.6l-0.2,0.2c-0.2,0.1-0.3,0.3-0.5,0.4l-0.3,0.2l-0.5,0.4l-0.4,0.2l-0.4,0.3v1.4h9.7v-23l10.3,15.7
		l10.4-15.9v23.1h9.8V362l-0.1-0.1C262.9,361.7,262.7,361.6,262.5,361.4z"/>
	<path class="st0" d="M296.5,339.2c-1-2.3-2.4-4.4-4.2-6.2c-1.9-1.8-4-3.2-6.4-4.2c-5.2-2-11-2-16.2,0c-2.1,0.8-4,2-5.6,3.5
		l-0.1,0.1l-0.2,0.2l0,0c-0.1,0.1-0.3,0.2-0.4,0.4l0,0c-3.7,3.6-5.8,8.6-5.8,13.9v0.1c0,2.6,0.5,5.2,1.5,7.6c1,2.3,2.4,4.4,4.2,6.2
		l0.1,0c0.1,0.1,0.3,0.2,0.4,0.4l0,0l0.2,0.2l0.1,0.1c1.6,1.4,3.5,2.6,5.5,3.4c5.2,2.1,11,2.1,16.2,0c2.4-1,4.6-2.4,6.5-4.2
		c3.7-3.6,5.8-8.6,5.8-13.8v-0.1C298,344.2,297.5,341.6,296.5,339.2z M287.9,347c0,1.4-0.2,2.8-0.8,4.1c-0.5,1.3-1.2,2.4-2.1,3.4
		c-0.9,1-2,1.8-3.2,2.3c-1.3,0.6-2.8,0.9-4.2,0.9c-1.4,0-2.9-0.3-4.2-0.9c-1.2-0.6-2.3-1.4-3.2-2.4c-0.9-1-1.6-2.2-2.1-3.4
		c-0.5-1.3-0.7-2.7-0.7-4.1v-0.1c0-1.4,0.2-2.8,0.7-4.1c0.9-2.5,2.8-4.6,5.3-5.7c2.7-1.2,5.7-1.2,8.4,0c2.5,1.2,4.4,3.2,5.4,5.8
		c0.5,1.3,0.8,2.7,0.8,4.1L287.9,347z"/>
</g>
</svg>
