<svg version="1.1" id="Layer_1" xmlns="http://www.w3.org/2000/svg" x="0" y="0" viewBox="0 0 890.5 683.9" xml:space="preserve"><style>.st0{fill:#fff}.st1{fill:#727272;stroke:#000;stroke-width:.5;stroke-miterlimit:10}.st3{fill:#1a1a1a}.st4,.st5{stroke-miterlimit:10}.st4{stroke:#000;stroke-width:.5;fill:#a0a0a0}.st5{fill:#fff}.st5,.st6,.st7{stroke:#000;stroke-width:.5}.st6{stroke-miterlimit:10;fill:#3d3d3d}.st7{fill:#0077bf}.st7,.st8,.st9{stroke-miterlimit:10}.st8{stroke:#000;stroke-width:.5;fill:#1a1a1a}.st9{fill:none}.st10,.st16,.st9{stroke:#000;stroke-width:.5}.st10{stroke-miterlimit:10;fill:#bcbcbc}.st16{fill:#ddd;stroke-linejoin:round}.st17,.st18,.st19{stroke:#000;stroke-miterlimit:10}.st17{stroke-width:.5;fill:#ffe600}.st18,.st19{fill:#fff}.st19{fill:none}</style><path class="st0" d="M585.5 608.5c-77-46.7-162.2 22.1-209.2 46.9-58.4 30.8-153.8 57-267.7-35.9 0 0-197.5-143.4-60-399.9 0 0 53.2-119.9 232.6-200.5 0 0 156.2-51.3 284.4 14.2 0 0 223.3 110.3 298.9 315.1 0 0 106.6 222.7-113.3 293.7-34.7 11.3-102.5 4.7-165.7-33.6z" id="Layer_6"/><g id="Layer_12"><path class="st1" d="M567.6 456.7h65.9v9.6l-66.9-.8z"/><path class="st1" d="M557.4 420.9l8.2 124.9h8.9l-7-124.9zM630.5 420.9l.6 124.9h9.2l2-125.8z"/><path fill="gray" stroke="#000" stroke-width=".5" stroke-miterlimit="10" d="M556 411l-.2 12.6 88.8-.7v-12.1z"/><path class="st3" d="M541.5 532.7v14.7h8v-3.6l5 3.6h37.2l-33-14.7zM655.5 532.7v14.7h-8v-3.6l-5 3.6h-37.1l33-14.7z"/><path class="st4" d="M541.5 532.7s7.9-135.3 32.3-141.5c23.3-5.9 20.7 17.4 15.7 37.1-4.9 18.9-30.9 104.4-30.9 104.4h-17.1zM657.6 532.7s-9.6-136.4-34.1-141.6c-23.5-5-23.5 16.4-19.2 35.5 4.2 18.8 34.2 106.2 34.2 106.2l19.1-.1z"/><path class="st5" d="M648.4 343.6c1.3-6.6-.3-17.7 3.3-34.7 2.5-3.7 5.2-7.3 8.1-10.7l-11.2-41.8c-1.8-4.9-3.9-8.3-9.1-9.5-10.5-2.5-21.2-4.3-32-5.5-14.1 11-19.2 4.6-19.2 4.6-2.7-.9-20.4 5.7-20.4 5.7-14 4.4-17 48.6-17 48.6l13.5 7.7 7.1 36.4 76.9-.8z"/><path class="st5" d="M586.5 255.4l.5-9.4c1.4-1.4.3-3.1-.3-5.1-.8-2.6.6-8.2-.4-10.7 3.7-4.1 7.1-5 12.3-6.7 1.8-.6 3.8-1.4 4.2.5s.6 3.3 1.1 5c1 3.2 2.4 6.2 4.2 9 .2.2-.6 1.4-.6 1.7s1.7 2.2 1.5 2.4c-2 3.1.4 9.4-2.1 12"/><path class="st6" d="M591 256.3l5.2 7.9 4.1-.2 4.6-9.8-4-5.7-10.9 1.7z"/><path class="st7" d="M584.5 243.9l-22.9 8.5 1.5 77.5 14.8-.8 11.2-72.7zM638.6 329.9l-14.8-.8-16.8-74.9 5.6-15 22.9 4.7s8.3-.1 12.8 6.4 5 15.3 5 15.3l6.4 32.6-9.5 18.6-.9 13.1h-10.7z"/><path class="st6" d="M600.3 264l8 61.9-6 14.8-11.8-17.2 5.7-59.3z"/><path class="st5" d="M584.9 239.3l-1.2 12.3 6.6 14 5.9-15.8zM607.6 233.3l-11.4 16.5 10.6 14.5 8.5-23.3z"/><g id="Layer_7"><path class="st5" d="M583 233.7c1.6 1.9 3.6 3.4 5.7 4.6 1.7.6 3.5.8 5.2.5h.7c1.5.1 3.1-.1 4.5-.7 2.1-1.2 4-2.8 5.6-4.7 1.3-1.1 2.6-2.2 4.1-3.1.8-.5 1.4-1.2 2-1.9.7-1 1.3-2.1 1.6-3.3.5-1.8.2-4.6 1.7-6s2.6-1.8 3.5-3.6c1.5-3.2 2.1-6.7 1.8-10.2-.1-.9-.6-2.5-2-1.6-.6.4-.3 1.4-.8 1.8l-.5 1.5h-1.9c0-1.4.1-2.8.2-4.3.2-3 0-6-.6-9-1-3.8-6.6-5.5-9.8-7.2-.6-.5-1.2-.9-1.9-1.2-.9-.2-.4-.1-1.3.4-3.3 2-5.2 3.9-9.4 3.9-3.4 0-6.8-.6-10.2-.3-4.6.4-8.7 3.6-9.2 8.2-.2 1.7.1 3.5 0 5.2-.1 1.2-.1 2.4 0 3.6v1.2h-2.4v-1-1.6c-.1-.3-.2-.5-.4-.6-1.3-.9-1.9.7-1.9 1.6-.2 3.5.5 7 2.1 10.1 1 1.8 2.3 2.2 3.6 3.5 1.5 1.4 1.3 4.2 1.8 6 .4 1.2 1 2.3 1.7 3.2.5.6 1.1 1.1 1.7 1.6 1.8 1.1 3.4 2.2 4.8 3.4z"/><path class="st8" d="M569.9 206.7v1h2.4v-1.2c-.1-1.2-.1-2.4 0-3.6.1-1.7-.2-3.5 0-5.2.4-4.5 4.5-7.8 9.2-8.2 3.4-.3 6.8.3 10.2.3 4.2 0 6.1-2 9.3-3.9.9-.5.4-.6 1.3-.4.7.3 1.3.7 1.9 1.2 3.2 1.8 8.8 3.5 9.8 7.2.6 3 .8 6 .6 9-.2 1.4-.3 2.8-.2 4.2h1.9l.5-1.5c.5-1.6 1-3.1 1.1-3.8.4-2.4.7-4.8.7-7.2.6-5.8.9-11.4-3-16.2-4.1-5.2-10.3-8.1-13.5-7.7-.2 0-2.4.2-2.1.5-1.2-.9-3.2-1-4.7-1.3-7.7-1.6-17.2 2.9-22.7 7.7-5.8 5-4.8 11.4-4.1 17.6.1 2.2.4 4.4.9 6.6.4 1 .6 2.1.6 3.2-.1.6-.1 1.1-.1 1.7z"/><path class="st9" d="M598.4 202.2c1.9-1.6 5.4 3.3 7.9 3.7M578.8 205.9c2.4-.5 5.5-4.5 7.5-3.1"/><circle class="st8" cx="600.5" cy="207.7" r="1.8"/><circle class="st8" cx="583.5" cy="208.6" r="1.8"/><path class="st9" d="M601.5 227.7c-7.1-7.7-10.8.4-10.8.4l10.8-.4zM591.1 206.1c.4 2.1.6 4.2.4 6.3-.1 1.6-.4 3.1-.6 4.7-.1.8-.1 1.6.1 2.4.3.8 1 1.2 1.4.8"/></g><path class="st7" d="M536.3 315.2l22.3-86.3 13.7-1.2-5.7 89.4c0-.1-16.7 34.7-30.3-1.9z"/><path class="st5" d="M561.7 228.6s-5.9-11.6-2.4-15.2 7.8-7.5 7.3-9.8 4.8.8 5 2.8-1.7 7-3 10.9 1.7 1.8 1.9 5.9-.5 4.6-.5 4.6l-8.3.8z"/><path class="st7" d="M659.8 298.2l-37.9-80.7-13.6 1.3 22.1 86.7c0 .1 22.8 31.2 29.4-7.3z"/><path class="st5" d="M618.9 217.8s3.7-12.5-.4-15.4-9.1-6-9-8.3-4.6 1.7-4.4 3.7 2.9 6.6 5 10.1-1.3 2.1-.7 6.2 1.4 4.5 1.4 4.5l8.1-.8z"/><path class="st7" d="M649.4 329.9l15.3 171-49.4-4-8.7-167zM547.8 329.9l-15.3 171 49.2 2.1 8.9-173.1zM567.1 187.9l-22.8-13.3 46.4-26.2 46.8 23.7-20 14.7z"/><path class="st7" d="M568.3 195.2s32.3-6.9 50.2-1.8l1-14.9s-10-10.9-28.8-9-25.3 8.2-25.3 8.2l2.9 17.5z"/><path class="st5" d="M574.2 191s-8.6 19.9-.9 20.4.9-20.4.9-20.4z"/></g><path class="st10" d="M488.7 337.6L475 553.7h6.9l29-216.8zM734.3 336.9l28.9 216.8h5.6l-14.3-217.5z"/><path fill="#d1d1d1" stroke="#000" stroke-width=".5" stroke-miterlimit="10" d="M469.9 341.6l302.7-6v76.1l-301.5 4.4z"/><path fill="#e5e5e5" stroke="#000" stroke-width=".5" stroke-miterlimit="10" d="M445.2 323.7l352-1.4v18.6l-350.6 1z"/><path class="st5" d="M463.6 305.9h71v17.4h-71z"/><path class="st9" d="M463.6 310.4h60.5M474.1 314.6h60.5M463.6 318.5h60.5"/><path fill="#bababa" stroke="#000" stroke-width=".5" stroke-linejoin="round" d="M698.3 318.9l21-52h85.5l-20 52z"/><path fill="#595959" stroke="#000" stroke-width=".5" stroke-miterlimit="10" d="M659.8 318.9h125v3.7h-125z"/><path fill="#6d6d6d" stroke="#000" stroke-width=".5" stroke-miterlimit="10" d="M698.3 318.9h86.5v3.7h-86.5z"/><path class="st16" d="M804.8 266.9l-4.2-1.5h-83.9l2.6 1.5z"/><path class="st16" d="M716.7 265.4l-21.2 53.5h2.8l21-52z"/><circle class="st16" cx="754.2" cy="294.7" r="5.5"/><path class="st5" d="M423 349.1s33-14.3 37.3-17c0 0 21.3 44.8 35.7 51.3 0 0-16 14.1-28.3 15.4-7.8 1-15.2 3.9-21.7 8.3l-23-58z"/><path class="st9" d="M430.9 353.9l26.5-12M433 357.4l26.5-12M434.8 361.6l26.5-12M437.1 365.9l26.5-12M439.3 370.4l26.5-12M441.2 374.6l26.5-12M444.1 379.3l26.5-12M446.2 385.3l26.5-12"/><path class="st5" d="M810.8 423.1s-22.1-28.4-24.6-32.8c0 0-40.2 29.1-55.9 27.8 0 0 7.3 20 17.5 27.1 6.4 4.6 11.5 10.7 15 17.7l48-39.8z"/><path class="st9" d="M801.5 423.5L784 400.3M798 425.6l-17.5-23.2M794.4 428.4l-17.5-23.3M790.3 431.1l-17.5-23.2M786.2 434l-17.5-23.3M782.5 436.7l-17.4-23.2M777.7 439.4l-17.5-23.2M773 443.7l-17.5-23.3"/><path class="st17" d="M642.3 164l-3.2-4.4 4.2-3 3.2 4.4-4.2 3zm26.6-16.9l-20.4 11.7-2.5-3.5 17.7-15.4 6.8-4.9 5.2 7.2-6.8 4.9zM632.1 154.2l-5-1.9 1.9-4.9 5 1.9-1.9 4.9zm12.9-28.8l-10.6 21-4-1.6 6.3-22.6 3-7.8 8.3 3.2-3 7.8zM621.8 148.7l-5.3.9-.8-5.1 5.3-.9.8 5.1zm-3.3-31.4l1.5 23.5-4.3.7-5.9-22.8-1.3-8.2 8.8-1.4 1.2 8.2zM375.1 646.3l-37.3-87.2-93.7-39.4h-68.7L63.9 559.1l-21.1 87.2z"/><path class="st5" d="M243.7 534.3l-23.9-14.6h-37.9l-12.6 22.2 8.7 104.4h41.8l14.6-31.1z"/><path class="st7" d="M210.1 564.7l28.9 74.7-19.2 6.9h-37.9l-7.4-4.9L197 565z"/><path class="st17" d="M167.5 516c-1.8 2.8-37.9 55.3-37.9 55.3l23.4 30.9-21 27.4 19.1 16.6h41l-16.6-126.7-8-3.5zM237 516c1.8 2.8 37.9 55.3 37.9 55.3l-23.3 31 21 27.4-20.9 16.6h-39.2l16.7-126.7 7.8-3.6z"/><path class="st5" d="M181.6 525c-3.8-4.7 0-51.2 0-51.2h49.1l-1.3 59.8c-.1 0-37.7 4-47.8-8.6z"/><path class="st7" d="M181.3 529.5l16.3 37.5 12.3-.9 19.4-36.6-33.6-4.7z"/><path class="st5" d="M172.9 507.5l-33.2 23.6 24.5 45.3 37.3-44.8 8.5.8 28.5 44 26.9-48.1-29.1-19.2-30.4 15.2z"/><g id="Layer_9"><path class="st5" d="M279.3 401.3c-2.3-18.8-4.4-43.4-17.3-57.3-7.8-7.5-16.8-13.5-26.8-17.7-7-3.9-14.5-6.7-22.3-8.3-6.7-.9-13.5-.6-20 1-18.5 3.8-41 22.9-52.4 38-29.5 40.5-8.3 90.9 19.5 123.7 10.4 12.3 32.1 27.2 48.2 26.7 45.8-3.6 57.1-40.7 63.6-60.8.5-1.4 18-20 14.2-38.7l-4.5-4.6-2.2-2z"/><path class="st18" d="M193.2 403.2c-11-3.3-25 5.4-29.1 11.8M260.5 412.5c-6.1-7-21.7-14.3-29.9-10"/><path class="st5" d="M206.5 459.2c2.7-1.9 5.3-4 7.8-6.2.6-.5 1.2-1.1 1.5-1.8.8-1.8-.4-3.8-1.4-5.5l-5.8-8.6"/><ellipse transform="matrix(.9993 -.03647 .03647 .9993 -15.379 9.295)" class="st8" cx="247.1" cy="426.2" rx="4.6" ry="5.8"/><ellipse transform="matrix(.9993 -.03647 .03647 .9993 -15.48 6.958)" class="st8" cx="183" cy="427.8" rx="4.6" ry="5.8"/><path class="st3" d="M140.3 440.2c.7 8.6 3.3 17 7.8 24.5 0 0-10.3-3.2-25.4-55.6 0 0-16.9-62.5 25.8-68.1 15.2-38.3 87.4-48 138 14.8 12.7 68.7-17.3 99-17.3 99l3.7-13.9s11.3-13.5 10.5-20.3-8-4.4-8-4.4c4.6-37.8-22.7-57.5-22.7-57.5s-62.7 32.9-89.7 2l-21.3 56.5s-13.6-6.7-10.9 5.2 9.5 17.8 9.5 17.8z"/><path class="st5" d="M185.8 487.2s11.8-35.5 32.1-12.9c1.9 2.1 6.9 9 6.9 9l-39 3.9z"/><path class="st19" d="M230.7 421.5s17-9.7 23.5 0M165.2 424.2s17.8-10.5 24.2-2.2"/></g><path class="st17" d="M235.9 646.3l38.8-118.2h23.8l3.7 118.2z"/><path d="M208.7 516.5c-3 4.3-1.9 10.2 2.4 13.2l6 4.2.1-.1c2.5 1.4 5.2 2.4 8.1 3 2.6.6 5.2.8 7.8.7 1.2-.1 28.9-2 57.2-41.4 20.5-28.5 26.5-48.1 20.9-67.4-.7-2.5-1.8-4.9-3.1-7.2-1.5-2.5-3.3-4.7-5.4-6.7l.1-.2-5.9-4.3c-4.2-3.1-10.2-2.3-13.3 1.9l-15.1 21c-2.9 4.3-1.9 10.2 2.5 13.2l3.5 2.5 7.1 5.1c-.2.6-.5 1.2-.7 1.9-2.2 6.3-5.3 14.9-12.2 24.5s-14 15.3-19.3 19.4l-1.6 1.3-10.6-7.6c-4.2-3.1-10.2-2.3-13.3 1.9l-15.2 21.1h0z" fill="#565656" stroke="#000" stroke-width=".5" stroke-miterlimit="10"/><path class="st5" d="M279.7 459.2s31.7 3.9 28.1 25.6c-2.6 16-9.2 43.3-9.2 43.3h-23.9s-4-13.6.3-24.1-13.1-15.2-13.1-15.2-6.4-27 17.8-29.6z"/><path class="st19" d="M217.1 534s-14.4 38 5.3 37-7.5-23.6-24.9-3.9 10.6 48.5 28.4 38.5-38.1-19.3-30 6.8c4.7 15.3 15.9 27.8 30.6 34.1"/><path class="st9" d="M63.9 559.1l16.5 31 7.3 56.2M337.8 559.1l-17 28.1v59.1"/><g><path d="M418.7 292h-84.9l-15 20.5-16-20.5h-92.4c-14.1 0-25.5-11.4-25.5-25.5V160.9c0-14.1 11.4-25.5 25.5-25.5h208.2c14.1 0 25.5 11.4 25.5 25.5v105.5c.1 14.2-11.3 25.6-25.4 25.6z" fill="#eb058c" stroke="#000" stroke-width=".5" stroke-miterlimit="10"/><path class="st0" d="M210.6 197.5h-10v-2.8h10v2.8zM235.2 181.2c4.6 0 8.2 1.5 8.2 6.7 0 2.8-1.7 5.2-4.2 5.9 3.4.7 3.5 3 3.7 6 .1 2 .1 4.4 1.4 5.7h-3.7c-.8-1.2-.8-4-.9-5.3-.2-4.1-1.3-5.2-5.7-5.2h-6.4v10.6h-3.2v-24.3l10.8-.1zm-7.5 11.2h6c3.2 0 6.4-.3 6.4-4.3 0-3.6-2.7-4.2-5.5-4.2h-6.9v8.5zM254.8 206.2c-5.2 0-8.3-3.4-8.3-9.2 0-5.7 3.4-9.5 8.2-9.5 5.8 0 8 4.6 8 9.7v.4h-13.2v.2c0 3.8 2.1 6 5.5 6 2.5 0 4-1.1 4.7-3.8h2.8c-.9 4-3.5 6.2-7.7 6.2zm-.2-16.5c-2.8 0-4.8 2.1-5.2 5.3h10.2c-.2-3.2-2.1-5.3-5-5.3zM268.5 190.6c1.5-2.1 3.4-3.2 6-3.2 4.3 0 5.8 2.3 5.8 6.4v11.7h-2.9v-10.4c0-2.8-.2-5.2-3.8-5.2-3.8 0-5.1 2.8-5.1 6.4v9.2h-2.9v-17.6h2.7l.2 2.7zM292.3 190.3h-3.5v10.3c0 1.6-.1 2.6 2 2.6.6 0 .9 0 1.5-.1v2.5c-.9.1-1.3.2-2.2.2-4.4 0-4.2-2.1-4.2-6v-9.4h-3V188h3v-5.2h2.9v5.2h3.5v2.3zM320.7 205.5c-.6.3-1.4.3-2 .3-1.6 0-2.5-.9-2.6-2.6-1.7 2-3.7 2.8-6.4 2.8-3.5 0-5.7-1.9-5.7-5 0-3.2 2.1-5 6.3-5.5 4.2-.5 5.7-.4 5.7-2.8 0-1.9-1.4-2.9-4-2.9-2.7 0-4.1 1-4.4 3.6h-2.8c.1-3.8 2.8-6 7.4-6 2.3 0 4.4.6 5.5 1.7 1.2 1.2 1.2 3 1.2 4.6 0 2.7-.2 5.2-.2 7.9 0 1.3.3 1.7 1.2 1.7.3 0 .4 0 .7-.1l.1 2.3zm-8.6-8c-2.1.3-5 .5-5 3.4 0 1.8 1.4 2.9 3.5 2.9 2.7 0 5.3-1.9 5.3-4.1v-3.2c-1 .7-2.5.8-3.8 1zM343.5 206.2c-7 0-11.3-4.9-11.3-12.7 0-7 4-12.7 11.5-12.7 4.8 0 9.6 2.7 10.1 7.9h-3.2c-.7-3.2-3.4-5.1-7-5.1-5.8 0-8.2 4.8-8.2 10 0 6.2 3.1 10 8.2 10 4.1 0 6.7-2.5 7.2-7h3.2c-.5 5.9-4.5 9.6-10.5 9.6zM362.6 181.2l7.8 20.6 7.6-20.6h4.5v24.3h-3v-20.3l-7.6 20.3H369l-7.7-20.3v20.3h-3.1v-24.3h4.4zM409.9 193.2c0 7.1-4 13-11.7 13-7.8 0-11.7-5.9-11.7-13.1 0-7.6 4.6-12.5 11.6-12.5 7.6 0 11.8 5.3 11.8 12.6zm-20.1.2c0 6.1 3.4 10.1 8.5 10.1s8.4-4 8.4-10.1c0-6-3.4-9.9-8.5-9.9-5.8-.1-8.4 4.6-8.4 9.9zM420.8 180.7c4.4 0 7.2 2.6 7.2 6.5 0 2.6-1 4.1-2.7 5.7-2.3 2.1-3.4 2.6-3.4 6.6h-2.8v-.2c0-4.1.9-5 3.8-7.8 1.5-1.5 2-2.5 2-4 0-2.7-1.6-4.3-4.2-4.3-3.5 0-4.6 2.5-4.8 5.5H413c.1-4.4 2.5-8 7.8-8zm1.6 24.9h-3.6v-3.4h3.6v3.4z"/><g><path class="st0" d="M231.6 242.6h-3.2v-24.3h3.2v24.3zM248.9 227.6c1.5-2.1 3.4-3.2 6-3.2 4.3 0 5.8 2.3 5.8 6.4v11.7h-2.9v-10.4c0-2.8-.2-5.2-3.8-5.2-3.8 0-5 2.8-5 6.4v9.2h-2.9V225h2.7l.1 2.6zM272.5 243.2c-5.2 0-8.3-3.4-8.3-9.2 0-5.7 3.4-9.5 8.2-9.5 5.8 0 8 4.6 8 9.7v.4h-13.2v.2c0 3.8 2.1 6 5.5 6 2.5 0 4-1.1 4.7-3.8h2.8c-.9 4-3.4 6.2-7.7 6.2zm-.1-16.4c-2.8 0-4.8 2.1-5.2 5.3h10.2c-.2-3.3-2.1-5.3-5-5.3zM290.9 243.2c-5.2 0-8.3-3.4-8.3-9.2 0-5.7 3.4-9.5 8.2-9.5 5.8 0 8 4.6 8 9.7v.4h-13.2v.2c0 3.8 2.1 6 5.5 6 2.5 0 4-1.1 4.7-3.8h2.8c-.9 4-3.5 6.2-7.7 6.2zm-.1-16.4c-2.8 0-4.8 2.1-5.2 5.3h10.2c-.2-3.3-2.1-5.3-5-5.3zM317.8 242.6h-2.7V240c-1.1 2-3.1 3.1-5.8 3.1-5 0-8.2-3.6-8.2-9.4 0-5 2.6-9.3 8.1-9.3 2.6 0 4.5 1 5.8 2.8v-9h2.9l-.1 24.4zm-13.7-8.9c0 4.3 2.1 7 5.5 7s5.4-2.6 5.4-6.9c0-3.5-1.5-6.9-5.5-6.9-3.4.1-5.4 2.6-5.4 6.8zM334.6 227.5c1.3-2 3.3-2.9 5.8-2.9 4.2 0 5.9 2.3 5.9 6v12h-2.8v-11.4c0-2.4-.7-4.2-3.9-4.2-3.7 0-5 2.6-5 6.6v8.9h-2.9v-24.3h2.9v9.3zM358.1 243.2c-5.2 0-8.3-3.4-8.3-9.2 0-5.7 3.4-9.5 8.2-9.5 5.8 0 8 4.6 8 9.7v.4h-13.2v.2c0 3.8 2.1 6 5.5 6 2.5 0 4-1.1 4.7-3.8h2.8c-.9 4-3.5 6.2-7.7 6.2zm-.1-16.4c-2.8 0-4.8 2.1-5.2 5.3H363c-.3-3.3-2.2-5.3-5-5.3zM372.1 242.6h-2.9v-24.3h2.9v24.3zM379.4 227.5c1.4-2.1 3.4-3 5.9-3 4.9 0 8.1 3.5 8.1 9.3 0 5.7-3.1 9.4-7.9 9.4-2.6 0-4.4-.9-5.9-2.9v9.3h-2.9V225h2.7v2.5zm0 6.2c0 4.3 2.1 6.9 5.5 6.9s5.3-2.7 5.3-6.9c0-4.3-2.1-6.9-5.5-6.9-3.2 0-5.3 2.6-5.3 6.9zM401 242.6h-3.6v-3.4h3.6v3.4zm-.2-16.9l-.9 10.8h-1.5l-.8-10.8v-7.5h3.2v7.5z"/></g></g></svg>