<svg version="1.1" id="Layer_1" xmlns="http://www.w3.org/2000/svg" x="0" y="0" viewBox="0 0 811.5 744.3" xml:space="preserve"><style>.st0{fill:#fff}.st1{fill:#bcbcbc}.st10,.st11,.st12,.st2,.st3,.st4,.st5,.st8,.st9{fill:#c6c6c6;stroke:#000;stroke-width:.5;stroke-miterlimit:10}.st10,.st11,.st12,.st3,.st4,.st5,.st8,.st9{fill:#828282}.st10,.st11,.st12,.st4,.st5,.st8,.st9{fill:#ffe600}.st10,.st11,.st12,.st5,.st8,.st9{fill:#eb058c}.st10,.st11,.st12,.st8,.st9{fill:#bfbfbf}.st10,.st11,.st12,.st9{fill:#0077bf}.st10,.st11,.st12{fill:#f2f2f2}.st11,.st12{fill:#b5b5b5}.st12{fill:#969696}.st13{fill:#0077bf}.st14{fill:#a5a5a5}.st15,.st16{fill:#0077bf;stroke:#eaeaea;stroke-miterlimit:10}.st16{fill:#eaeaea;stroke:#eb058c}.st17,.st18,.st19,.st20{fill:none;stroke:#000;stroke-width:.5;stroke-miterlimit:10}.st18,.st19,.st20{fill:#f0b238}.st19,.st20{fill:#ffcc65}.st20{fill:#ffbc00}.st21{fill:#f1f2f2}</style><g id="Layer_2_1_"><path class="st0" d="M763.9 270.3c94.4 109.5 32 303.9-44 369.7-170.3 147.2-382.7 95.6-382.7 95.6-144.4-27.9-228.3-112-263.5-176.7C1 424.9-12.6 317.8 9.9 239.6 34.8 153.4 119.6 21.8 279.3 2.8c194-23.2 212.7 106.5 265.1 152.5s149 47.1 219.5 115z" id="Layer_7"/><ellipse class="st1" cx="191.1" cy="672.5" rx="92.6" ry="29.4"/><ellipse class="st1" cx="628.7" cy="672.5" rx="92.6" ry="29.4"/><ellipse class="st1" cx="412.7" cy="670" rx="116.8" ry="24"/><path class="st2" d="M404.8 170l17.6 3.7s57 7.7 124.2 44.5c65.6 36 108.6 38.6 122.9 39l.5-.1c2.4-.7 4.4-2.2 5.7-4.3.7-1.1 1.2-2.3 1.9-3.3.7-1.1 1.8-1.7 3.1-1.8 2 .1 3 2.7 3.1 4.9.2 5.5-2.2 10.7-6.5 14.1-.7.5-1.5 1-2.2 1.4-2.3 1.1-7.3 1.4-7.3 1.4s-58.5-.8-122.9-32.9c-37.7-18.8-117.5-38.6-123.1-32.1L400 201c-2.3-8.2-86.1-25.6-128.2-24.4-71.9 2.1-125.3-21.6-125.3-21.6s-4.4-2.4-6-4.3c-.6-.7-1.1-1.4-1.5-2.2-2.4-4.9-2.4-10.6 0-15.5 1-1.9 2.9-3.9 4.8-3.2 1.1.6 1.9 1.7 2 2.9.3 1.2.2 2.6.4 3.8.3 2.5 1.5 4.7 3.4 6.3l.4.3c13.1 5.6 53.2 21.2 127.9 16 76.4-5.2 126.9 10.9 126.9 10.9"/><path class="st3" d="M529.5 487.2l-5.3-1.2 95.7-218.4 5.4 1.1z"/><path class="st3" d="M727.8 487.2L619.9 268.8l5.3-1.3 108 218.5z"/><path class="st4" d="M749.7 482.7c0 29.7-54.2 53.8-121 53.8s-121-24.1-121-53.8h242z"/><path class="st3" d="M622.6 270c-4.8 0-8.7-3.9-8.7-8.7s3.9-8.7 8.7-8.7c4.8 0 8.7 3.9 8.7 8.7 0 4.8-3.9 8.7-8.7 8.7zm0-13.7c-2.8 0-5 2.2-5 5s2.2 5 5 5 5-2.2 5-5-2.2-5-5-5zM96.6 397.5l-5.4-1.1L186.9 178l5.4 1.1z"/><path class="st3" d="M294.8 397.6L186.9 179.2l5.3-1.3 108 218.5z"/><path class="st4" d="M316.7 393.1c0 29.7-54.2 53.8-121 53.8s-121-24.1-121-53.8h242z"/><path class="st3" d="M189.6 180.4c-4.8 0-8.7-3.9-8.7-8.7s3.9-8.7 8.7-8.7 8.7 3.9 8.7 8.7c0 4.8-3.9 8.7-8.7 8.7zm0-13.7c-2.8 0-5 2.2-5 5s2.2 5 5 5 5-2.2 5-5-2.2-5-5-5zM432.9 649s-8.9-489.2-11.8-489.2h-18.5c-2.8 0-10.3 489.4-10.3 489.5l40.6-.3z"/><path class="st2" d="M422 122.5c0 6.7-4.6 12.1-10.3 12.1s-10.4-5.4-10.4-12.1 7-26.3 10.4-26.3c2.9-.1 10.3 19.6 10.3 26.3z"/><path class="st5" d="M416.2 120.5c0 2.9-2 5.2-4.5 5.2s-4.5-2.3-4.5-5.2 4-10.9 4.5-10.9c0 0 4.5 8 4.5 10.9z"/><circle class="st2" cx="411.7" cy="147.8" r="19.3"/><path class="st5" d="M422 147.8c0 5.8-4.7 10.6-10.6 10.6-5.8 0-10.6-4.7-10.6-10.6s4.7-10.6 10.6-10.6c5.9.1 10.6 4.8 10.6 10.6z"/><path class="st3" d="M504.6 662.9H317.2v-.2c0-13.7 26.4-24.8 41.7-24.8h106.7c15.3 0 39 11.1 39 24.8v.2z"/><path d="M504.6 662.1H317.2v-.5c0-1 .2-2 .7-3l.3-.7 185.5-.2c.7 1.2 1 2.6 1 3.9l-.1.5z" opacity=".33"/><path d="M508.1 673.2H309.7c-2 0-3.6-2.7-3.6-5.9v-.1c0-3.3 1.6-5.9 3.6-5.9H508c2 0 3.6 2.7 3.6 5.9v.1c.1 3.3-1.5 5.9-3.5 5.9z" fill="#393d3d" stroke="#000" stroke-width=".5" stroke-miterlimit="10"/></g><g id="Layer_1_1_"><path class="st8" d="M588.8 388.4c0 4.7-4.1 8.4-9.2 8.4s-9.2-3.8-9.2-8.4 4.1-8.4 9.2-8.4 9.2 3.8 9.2 8.4zM582.8 399.4c-2.3-.4-4.7-.4-7 .1-15.3 1.6-20.2 17.8-18.8 30.2.6 5.4 9.8 5.4 9.2 0-.5-4.5-.3-11.3 2.3-16.1V432.1c0 14 0 21.7-.7 35.7-.3 6.2 10.2 6.2 10.5 0 .5-11 .6-15.7.6-26.6h1.5c0 11 .2 15.7.6 26.6.3 6.2 10.8 6.2 10.5 0-.6-14-.7-21.7-.7-35.7 0-.4-.1-.8-.2-1.2 0-6.1-.3-12.1-.2-18.2 3.1 4.9 3.4 12.2 2.9 17-.6 5.4 8.6 5.3 9.2 0 1.5-12.6-3.7-29.2-19.7-30.3zM634.7 388.4c0 4.7-4.1 8.4-9.2 8.4s-9.2-3.8-9.2-8.4 4.1-8.4 9.2-8.4 9.2 3.8 9.2 8.4z"/><path class="st8" d="M628.7 399.4c-2.3-.4-4.7-.4-7 .1-15.3 1.6-20.2 17.8-18.8 30.2.6 5.4 9.8 5.4 9.2 0-.5-4.5-.3-11.3 2.3-16.1V432.1c0 14 0 21.7-.7 35.7-.3 6.2 10.2 6.2 10.5 0 .5-11 .6-15.7.7-26.6h1.5c0 11 .2 15.7.6 26.6.3 6.2 10.8 6.2 10.5 0-.6-14-.6-21.7-.6-35.7 0-.4-.1-.8-.2-1.2 0-6.1-.3-12.1-.2-18.2 3.1 4.9 3.4 12.2 2.9 17-.6 5.4 8.6 5.3 9.2 0 1.4-12.6-3.8-29.2-19.9-30.3zM678.3 388.4c0 4.7-4.1 8.4-9.2 8.4s-9.2-3.8-9.2-8.4 4.1-8.4 9.2-8.4 9.2 3.8 9.2 8.4z"/><path class="st8" d="M672.3 399.4c-2.3-.4-4.7-.4-7 .1-15.2 1.6-20.2 17.8-18.8 30.2.6 5.4 9.8 5.4 9.2 0-.5-4.5-.3-11.3 2.3-16.1V432.1c0 14 0 21.7-.7 35.7-.3 6.2 10.2 6.2 10.5 0 .5-11 .6-15.7.6-26.6h1.5c0 11 .1 15.7.6 26.6.3 6.2 10.8 6.2 10.5 0-.6-14-.7-21.7-.7-35.7 0-.4-.1-.8-.2-1.2 0-6.1-.3-12.1-.2-18.2 3.1 4.9 3.4 12.2 2.9 17-.6 5.4 8.5 5.3 9.2 0 1.5-12.6-3.6-29.2-19.7-30.3z"/><path class="st9" d="M700.1 394.4c0 4.6-4 8.3-9 8.3s-9-3.7-9-8.3 4-8.3 9-8.3 9 3.7 9 8.3zM694.2 405.2c-2.3-.4-4.6-.4-6.9.1-15 1.6-19.9 17.5-18.5 29.7.6 5.3 9.6 5.3 9 0-.5-4.4-.3-11.1 2.3-15.9V437.3c0 13.7 0 21.4-.6 35.1-.3 6.1 10 6.1 10.3 0 .5-10.8.6-15.4.6-26.2h1.5c0 10.8.2 15.4.6 26.2.3 6.1 10.6 6.1 10.3 0-.6-13.7-.6-21.3-.6-35.1 0-.4-.1-.8-.2-1.2 0-6-.3-11.9-.2-17.9 3.1 4.8 3.3 12 2.8 16.8-.6 5.3 8.4 5.2 9 0 1.5-12.5-3.6-28.8-19.4-29.8zM654.8 394.4c0 4.6-4 8.3-9 8.3s-9-3.7-9-8.3 4-8.3 9-8.3 9 3.7 9 8.3z"/><path class="st9" d="M649 405.2c-2.3-.4-4.6-.4-6.9.1-15 1.6-19.9 17.5-18.5 29.7.6 5.3 9.6 5.3 9 0-.5-4.4-.3-11.1 2.3-15.9V437.3c0 13.7 0 21.4-.6 35.1-.3 6.1 10 6.1 10.3 0 .5-10.8.6-15.4.6-26.2h1.5c0 10.8.2 15.4.6 26.2.3 6.1 10.6 6.1 10.3 0-.6-13.7-.6-21.3-.6-35.1 0-.4-.1-.8-.2-1.2 0-6-.3-11.9-.2-17.9 3.1 4.8 3.3 12 2.8 16.8-.6 5.3 8.4 5.2 9 0 1.4-12.5-3.7-28.8-19.4-29.8zM609.6 394.4c0 4.6-4 8.3-9 8.3s-9-3.7-9-8.3 4-8.3 9-8.3 9 3.7 9 8.3z"/><path class="st9" d="M603.7 405.2c-2.3-.4-4.6-.4-6.9.1-15 1.6-19.9 17.5-18.5 29.7.6 5.3 9.6 5.3 9 0-.5-4.4-.3-11.1 2.3-15.9V437.3c0 13.7 0 21.4-.6 35.1-.3 6.1 10 6.1 10.3 0 .5-10.8.6-15.4.6-26.2h1.5c0 10.8.2 15.4.6 26.2.3 6.1 10.6 6.1 10.3 0-.6-13.7-.6-21.3-.6-35.1 0-.4-.1-.8-.2-1.2 0-6-.3-11.9-.2-17.9 3.1 4.8 3.3 12 2.8 16.8-.6 5.3 8.4 5.2 9 0 1.5-12.5-3.6-28.8-19.4-29.8zM564.3 394.4c0 4.6-4 8.3-9 8.3s-9-3.7-9-8.3 4-8.3 9-8.3 9 3.7 9 8.3z"/><path class="st9" d="M558.4 405.2c-2.3-.4-4.6-.4-6.9.1-15 1.6-19.9 17.5-18.5 29.7.6 5.3 9.6 5.3 9 0-.5-4.4-.3-11.1 2.3-15.9V437.3c0 13.7 0 21.4-.7 35.1-.3 6.1 10 6.1 10.3 0 .5-10.8.6-15.4.6-26.2h1.5c0 10.8.2 15.4.6 26.2.3 6.1 10.6 6.1 10.3 0-.6-13.7-.6-21.3-.6-35.1 0-.4-.1-.8-.2-1.2 0-6-.3-11.9-.2-17.9 3.1 4.8 3.3 12 2.8 16.8-.6 5.3 8.4 5.2 9 0 1.6-12.5-3.5-28.8-19.3-29.8z"/><path class="st10" d="M635.6 642.4l-72 30.6 44.8 9.1 64.4-33.4z"/><path class="st11" d="M608.4 682.1v11l-44.8-8.9V673z"/><path class="st12" d="M672.8 648.7v8l-64.4 36.4v-11z"/><path class="st13" d="M637.5 648.1l17 2.8-48 23.2-21.2-4 52.2-22m-.4-3.4l-63 26.6 32.9 6.2 58.3-28.2-28.2-4.6z"/><ellipse class="st14" cx="640" cy="652.3" rx="4.2" ry="1.9"/><ellipse class="st15" cx="623.6" cy="659.9" rx="12" ry="5.5"/><ellipse class="st16" cx="623.6" cy="659.9" rx="8.3" ry="3.8"/><path class="st17" d="M670.4 652.3l-58.8 31.2M670.4 653.8l-58.8 32.3M670.4 656.1l-58.8 32.3M566.3 676.5l38 7.6M566.3 679.3l38 7.4M566.3 681.7l38 7.5M645 650.3l1.5 1.4-7.6-1.8M638.2 650.2l2.2-1"/><ellipse transform="rotate(-77.151 640.527 651.965)" class="st17" cx="640.6" cy="652" rx=".8" ry="4.3"/><ellipse transform="rotate(-77.151 637.384 653.268)" class="st17" cx="637.4" cy="653.3" rx=".8" ry="4.3"/><ellipse class="st14" cx="606.1" cy="668.4" rx="4.2" ry="1.9"/><path class="st17" d="M611 666.4l1.6 1.3-7.7-1.8M604.3 666.3l2.1-1.1"/><ellipse transform="rotate(-77.151 606.549 668.062)" class="st17" cx="606.6" cy="668.1" rx=".8" ry="4.3"/><ellipse transform="rotate(-77.151 603.425 669.248)" class="st17" cx="603.5" cy="669.3" rx=".8" ry="4.3"/><path class="st10" d="M625.3 626.6l-71.8 30.7 44.6 9.1 64.4-33.5z"/><path class="st11" d="M598.1 666.4v10.9l-44.6-8.8v-11.2z"/><path class="st12" d="M662.5 632.9v8l-64.4 36.4v-10.9z"/><path class="st13" d="M627.3 632.4l17 2.8-48 23.2-21.2-4 52.2-22m-.5-3.4l-63 26.6 32.9 6.2 58.3-28.2-28.2-4.6z"/><ellipse class="st14" cx="629.8" cy="636.6" rx="4.2" ry="1.9"/><ellipse class="st15" cx="613.3" cy="644.1" rx="12" ry="5.5"/><ellipse class="st16" cx="613.3" cy="644.1" rx="8.3" ry="3.8"/><path class="st17" d="M660.2 636.6l-58.9 31.1M660.2 638l-58.9 32.5M660.2 640.3l-58.9 32.3M556.1 660.9l38.1 7.5M556.1 663.5l38.1 7.5M556.1 665.9l38.1 7.5M634.9 634.7l1.4 1.2-7.5-1.8M628 634.4l2.1-.9"/><ellipse transform="rotate(-77.151 630.271 636.175)" class="st17" cx="630.3" cy="636.2" rx=".8" ry="4.3"/><ellipse transform="rotate(-77.151 627.244 637.507)" class="st17" cx="627.3" cy="637.5" rx=".8" ry="4.3"/><ellipse class="st14" cx="595.8" cy="652.6" rx="4.2" ry="1.9"/><path class="st17" d="M600.9 650.7l1.4 1.2-7.5-1.8M594 650.6l2.2-1.1"/><ellipse transform="rotate(-77.151 596.305 652.264)" class="st17" cx="596.3" cy="652.3" rx=".8" ry="4.3"/><ellipse transform="rotate(-77.151 593.266 653.604)" class="st17" cx="593.3" cy="653.6" rx=".8" ry="4.3"/><path class="st10" d="M639 609.7l-71.9 30.6 44.8 9.1 64.3-33.5z"/><path class="st11" d="M611.9 649.4v10.9l-44.8-8.8v-11.2z"/><path class="st12" d="M676.2 615.9v8.1l-64.3 36.3v-10.9z"/><path class="st13" d="M641 615.4l17 2.8-48 23.2-21.2-4 52.2-22m-.5-3.4l-63 26.6 32.9 6.2 58.3-28.2-28.2-4.6z"/><ellipse class="st14" cx="643.5" cy="619.6" rx="4.2" ry="1.9"/><ellipse class="st15" cx="627.1" cy="627.1" rx="12" ry="5.5"/><ellipse class="st16" cx="627.1" cy="627.1" rx="8.3" ry="3.8"/><path class="st17" d="M673.9 619.6l-58.8 31.2M673.9 621l-58.8 32.5M673.9 623.3l-58.8 32.4M569.8 643.9l38 7.5M569.8 646.5l38 7.5M569.8 649l38 7.5M648.5 617.7l1.4 1.2-7.5-1.7M641.7 617.5l2.1-1"/><ellipse transform="rotate(-77.151 643.911 619.218)" class="st17" cx="643.9" cy="619.2" rx=".8" ry="4.3"/><ellipse transform="rotate(-77.151 640.882 620.56)" class="st17" cx="640.9" cy="620.6" rx=".8" ry="4.3"/><ellipse class="st14" cx="609.6" cy="635.6" rx="4.2" ry="1.9"/><path class="st17" d="M614.5 633.7l1.5 1.2-7.6-1.7M607.7 633.6l2.1-1.1"/><ellipse transform="rotate(-77.151 609.942 635.317)" class="st17" cx="610" cy="635.3" rx=".8" ry="4.3"/><ellipse transform="rotate(-77.151 606.933 636.53)" class="st17" cx="607" cy="636.6" rx=".8" ry="4.3"/><path class="st18" d="M653.8 659.1v2.9c0 2.5 5.9 4.4 13.2 4.4s13.2-2 13.2-4.4v-2.9h-26.4z"/><ellipse class="st19" cx="666.9" cy="659.1" rx="13.2" ry="4.4"/><ellipse class="st18" cx="666.9" cy="659.1" rx="10.8" ry="3.6"/><path class="st19" d="M663.7 660.8c-.5-.1-.8-.5-.8-.7v-.1h3v.1c0 .1.1.2.2.4.2.1.5.1.7.1.4 0 .6 0 .7-.1s.2-.1.2-.2-.1-.2-.4-.4c-.3-.1-.6-.2-.8-.2-.4 0-.7-.1-1.2-.1-.4 0-.8-.1-1.2-.2-.3-.1-.6-.2-.8-.4-.2-.1-.4-.3-.4-.6 0-.7 1-1.1 3-1.2v-.4h1.6v.4c.8 0 1.6.1 2.4.3.5.2.7.5.7.8h-2.9v-.1c0-.1-.1-.2-.2-.2-.2-.1-.4-.2-.6-.1-.4 0-.6 0-.7.1s-.2.1-.2.2.1.2.4.4.6.1 1 .2.7.1 1.2.1c.4 0 .8.1 1.2.2.3.1.7.2 1 .4.2.1.4.3.4.6 0 .4-.2.7-.8.8-.8.2-1.7.3-2.5.3v.5h-1.6v-.5c-1.3-.2-2.1-.3-2.6-.4z"/><path class="st18" d="M655.1 655.4v2.9c0 2.5 5.9 4.4 13.2 4.4s13.2-2 13.2-4.4v-2.9h-26.4z"/><path class="st19" d="M681.5 655.4c0 2.5-5.9 4.4-13.2 4.4s-13.2-2-13.2-4.4 5.9-4.4 13.2-4.4 13.2 2 13.2 4.4z"/><path class="st18" d="M679 655.4c0 2-4.8 3.6-10.8 3.6s-10.8-1.7-10.8-3.6 4.8-3.6 10.8-3.6 10.8 1.7 10.8 3.6z"/><path class="st19" d="M665 657c-.5-.1-.8-.5-.8-.7v-.1h3v.1c0 .1.1.2.2.4.2.1.5.1.7.1.4 0 .6 0 .7-.1s.2-.1.2-.2-.1-.2-.4-.4c-.3-.1-.6-.2-.8-.2-.4 0-.7-.1-1.2-.1-.4 0-.8-.1-1.2-.2-.3-.1-.6-.2-.8-.4-.2-.1-.4-.3-.4-.6 0-.7 1-1.1 3-1.2v-.4h1.6v.3c.8 0 1.6.1 2.4.4.5.2.7.5.7.8H669v-.1c0-.1-.1-.2-.2-.2-.2-.1-.4-.2-.6-.1-.4 0-.6 0-.7.1s-.2.1-.2.2.1.2.4.4.6.1 1 .2.7.1 1.2.1c.4 0 .8.1 1.2.2.3.1.7.2 1 .4.2.1.4.3.4.6 0 .4-.2.7-.8.8-.8.2-1.7.3-2.5.4v.5h-1.6v-.5c-1.3-.2-2-.3-2.6-.5z"/><path class="st18" d="M654.2 651.8v2.9c0 2.5 5.9 4.4 13.2 4.4s13.2-2 13.2-4.4v-2.9h-26.4z"/><ellipse class="st19" cx="667.4" cy="651.8" rx="13.2" ry="4.4"/><ellipse class="st18" cx="667.4" cy="651.8" rx="10.8" ry="3.6"/><path class="st19" d="M664.2 653.3c-.5-.1-.8-.3-.8-.7v-.2h3v.1c0 .1.1.2.2.4.2.1.5.1.7.1.4 0 .6 0 .7-.1s.2-.1.2-.2-.1-.2-.4-.4c-.3-.1-.6-.2-.8-.2-.4 0-.7-.1-1.2-.1-.4 0-.8-.1-1.2-.2-.3-.1-.6-.2-.8-.4-.2-.1-.4-.3-.4-.6 0-.7 1-1.1 3-1.2v-.3h1.5v.3c.8 0 1.6.1 2.4.4.5.2.7.5.7.8h-2.9v-.1c0-.1-.1-.2-.2-.2-.2-.1-.4-.2-.6-.1-.4 0-.6 0-.7.1s-.2.1-.2.2.1.2.4.4.6.1 1 .2.7.1 1.2.1c.4 0 .8.1 1.2.2.3.1.7.2 1 .4.2.1.4.3.4.6 0 .4-.2.7-.8.8-.8.2-1.7.3-2.5.4v.5h-1.6v-.5c-.9-.1-1.7-.2-2.5-.5z"/><path class="st18" d="M651.8 648.1v2.9c0 2.5 5.9 4.4 13.2 4.4s13.2-2 13.2-4.4v-2.9h-26.4z"/><path class="st19" d="M678.3 648.1c0 2.5-5.9 4.4-13.2 4.4s-13.2-2-13.2-4.4 5.9-4.4 13.2-4.4 13.2 1.9 13.2 4.4z"/><path class="st18" d="M675.8 648.1c0 2-4.8 3.6-10.8 3.6s-10.8-1.7-10.8-3.6 4.8-3.6 10.8-3.6 10.8 1.5 10.8 3.6z"/><path class="st19" d="M661.9 649.6c-.5-.1-.8-.3-.8-.7v-.1h3v.1c0 .1.1.2.2.4.2.1.5.1.7.1.4 0 .6 0 .7-.1s.2-.1.2-.2-.1-.2-.3-.4c-.3-.1-.6-.2-.8-.2-.4 0-.7-.1-1.2-.1-.4 0-.8-.1-1.2-.2-.3-.1-.6-.2-.8-.4-.2-.1-.4-.3-.4-.6 0-.7 1-1.1 3-1.2v-.3h1.5v.3c.8 0 1.6.1 2.4.4.5.2.7.5.7.8H666v-.2c0-.1-.1-.2-.2-.2-.1-.1-.3-.1-.6-.1s-.6 0-.7.1-.2.1-.2.2.1.2.4.4.6.1 1 .2.7.1 1.2.1c.4 0 .8.1 1.2.2.3.1.7.2 1 .4.2.1.4.3.4.6 0 .4-.2.7-.8.8-.8.2-1.7.3-2.5.4v.5h-1.7v-.6c-1 0-1.8-.1-2.6-.4z"/><path class="st18" d="M653.3 644.4v2.9c0 2.5 5.9 4.4 13.2 4.4s13.2-2 13.2-4.4v-2.9h-26.4z"/><ellipse class="st19" cx="666.5" cy="644.4" rx="13.2" ry="4.4"/><ellipse class="st18" cx="666.5" cy="644.4" rx="10.8" ry="3.6"/><path class="st19" d="M663.2 646c-.5-.1-.8-.4-.8-.7v-.1h3v.1c0 .1.1.2.2.3.2.1.5.1.7.1.4 0 .6 0 .7-.1s.2-.1.2-.2-.1-.2-.4-.4c-.3-.1-.6-.2-.8-.2-.4 0-.7-.1-1.2-.1-.4 0-.8-.1-1.2-.2-.3-.1-.6-.2-.8-.4-.2-.1-.4-.3-.4-.6 0-.7 1-1.1 3-1.2v-.3h1.5v.4c.8 0 1.6.1 2.4.4.5.2.7.5.7.8h-2.9v-.1c0-.1-.1-.2-.2-.2-.2-.1-.4-.2-.6-.1-.4 0-.6 0-.7.1s-.2.1-.2.2.1.2.3.4.6.1 1 .2.7.1 1.2.1c.4 0 .8.1 1.2.2.3.1.6.2 1 .4.2.1.4.3.4.6s-.2.7-.8.8c-.8.2-1.7.3-2.5.4v.5h-1.5v-.5c-1.2-.3-2-.4-2.5-.6z"/><path class="st20" d="M655.1 640.7v2.9c0 2.5 5.9 4.4 13.2 4.4s13.2-2 13.2-4.4v-2.9h-26.4z"/><path class="st4" d="M681.5 640.7c0 2.5-5.9 4.4-13.2 4.4s-13.2-2-13.2-4.4 5.9-4.4 13.2-4.4 13.2 1.9 13.2 4.4z"/><path class="st20" d="M679 640.7c0 2-4.8 3.6-10.8 3.6s-10.8-1.7-10.8-3.6 4.8-3.6 10.8-3.6 10.8 1.5 10.8 3.6z"/><path class="st19" d="M665 642.3c-.5-.1-.8-.5-.8-.7v-.1h3v.1c0 .1.1.2.2.3.2.1.5.1.7.1.4 0 .6 0 .7-.1s.2-.1.2-.2-.1-.2-.4-.4c-.3-.1-.6-.2-.8-.2-.4 0-.7-.1-1.2-.1-.4 0-.8-.1-1.2-.2-.3-.1-.6-.2-.8-.4-.2-.1-.4-.3-.4-.6 0-.7 1-1.1 3-1.2v-.4h1.6v.4c.8 0 1.6.1 2.4.4.5.2.7.5.7.8H669v-.1c0-.1-.1-.2-.2-.2-.2-.1-.4-.2-.6-.1-.4 0-.6 0-.7.1s-.2.1-.2.2.1.2.4.4.6.1 1 .2.7.1 1.2.1c.4 0 .8.1 1.2.2.3.1.7.2 1 .4.2.1.4.3.4.6s-.2.7-.8.8c-.8.2-1.7.3-2.5.4v.5h-1.6v-.5c-1.3-.2-2-.4-2.6-.5z"/><path class="st20" d="M654.2 636.9v2.9c0 2.5 5.9 4.4 13.2 4.4s13.2-2 13.2-4.4v-2.9h-26.4z"/><ellipse class="st4" cx="667.4" cy="636.9" rx="13.2" ry="4.4"/><ellipse class="st20" cx="667.4" cy="636.9" rx="10.8" ry="3.6"/><path class="st19" d="M664.2 638.6c-.5-.1-.8-.5-.8-.7v-.1h3v.1c0 .1.1.2.2.3.2.1.5.1.7.1.4 0 .6 0 .7-.1s.2-.1.2-.2-.1-.2-.4-.4c-.3-.1-.6-.2-.8-.2-.4 0-.7-.1-1.2-.1-.4 0-.8-.1-1.2-.2-.3-.1-.6-.2-.8-.4-.2-.1-.4-.3-.4-.6 0-.7 1-1.1 3-1.2v-.4h1.5v.4c.8 0 1.6.1 2.4.4.5.2.7.5.7.8h-2.9v-.1c0-.1-.1-.2-.2-.2-.2-.1-.4-.2-.6-.1-.4 0-.6 0-.7.1s-.2.1-.2.2.1.2.4.4.6.1 1 .2.7.1 1.2.1c.4 0 .8.1 1.2.2.3.1.7.2 1 .4.2.1.4.3.4.6s-.2.7-.8.8c-.8.2-1.7.3-2.5.4v.5h-1.6v-.5c-1.2-.3-2-.4-2.5-.5z"/><path class="st20" d="M655.6 633.3v2.9c0 2.5 5.9 4.4 13.2 4.4s13.2-2 13.2-4.4v-2.9h-26.4z"/><ellipse class="st4" cx="668.7" cy="633.3" rx="13.2" ry="4.4"/><ellipse class="st20" cx="668.7" cy="633.3" rx="10.8" ry="3.6"/><path class="st19" d="M665.5 634.9c-.5-.1-.8-.5-.8-.7v-.1h3v.1c0 .1.1.2.2.3.2.1.5.1.7.1.4 0 .6 0 .7-.1s.2-.1.2-.2-.1-.2-.3-.3c-.3-.1-.6-.2-.8-.2-.4 0-.7-.1-1.2-.1-.4 0-.8-.1-1.2-.2-.3-.1-.6-.2-.8-.4-.2-.1-.4-.3-.4-.6 0-.7 1-1.1 3-1.2v-.4h1.6v.4c.8 0 1.6.1 2.4.4.5.2.7.5.7.8h-2.8v-.1c0-.1-.1-.2-.2-.2-.1-.1-.3-.1-.6-.1s-.6 0-.7.1-.2.1-.2.2.1.2.4.4.6.1 1 .2.7.1 1.2.1c.4 0 .8.1 1.2.2.3.1.7.2 1 .4.2.1.4.3.4.6s-.2.7-.8.8c-.8.2-1.7.3-2.5.4v.5H668v-.5c-1.2-.4-2-.5-2.5-.6z"/><path class="st20" d="M654.2 629.6v2.9c0 2.5 5.9 4.4 13.2 4.4s13.2-2 13.2-4.4v-2.9h-26.4z"/><ellipse class="st4" cx="667.4" cy="629.6" rx="13.2" ry="4.4"/><ellipse class="st20" cx="667.4" cy="629.6" rx="10.8" ry="3.6"/><path class="st19" d="M664.2 631.2c-.5-.1-.8-.5-.8-.7v-.1h3v.1c0 .1.1.2.2.4.2.1.5.1.7.1.4 0 .6 0 .7-.1s.2-.1.2-.2-.1-.2-.4-.3c-.3-.1-.6-.2-.8-.2-.4 0-.7-.1-1.2-.1-.4 0-.8-.1-1.2-.2-.3-.1-.6-.2-.8-.4-.2-.1-.4-.3-.4-.6 0-.7 1-1.1 3-1.2v-.2h1.5v.4c.8 0 1.6.1 2.4.4.5.2.7.5.7.8h-2.9v-.1c0-.1-.1-.2-.2-.2-.2-.1-.4-.2-.6-.1-.4 0-.6 0-.7.1s-.2.1-.2.2.1.2.4.4.6.1 1 .2.7.1 1.2.1c.4 0 .8.1 1.2.2.3.1.7.2 1 .4.2.1.4.3.4.6 0 .4-.2.7-.8.8-.8.2-1.7.3-2.5.4v.5h-1.6v-.5c-1.2-.7-2-.7-2.5-.9z"/><path class="st20" d="M656 625.9v2.9c0 2.5 5.9 4.4 13.2 4.4s13.2-2 13.2-4.4v-2.9H656z"/><ellipse class="st4" cx="669.2" cy="625.9" rx="13.2" ry="4.4"/><ellipse class="st20" cx="669.2" cy="625.9" rx="10.8" ry="3.6"/><path class="st19" d="M666 627.5c-.5-.1-.8-.4-.8-.7v-.1h3v.1c0 .1.1.2.2.4.2.1.5.1.7.1.3 0 .6 0 .7-.1s.2-.1.2-.2-.1-.2-.4-.3c-.3-.1-.5-.2-.8-.2-.4 0-.7-.1-1.2-.1-.4 0-.8-.1-1.2-.2-.3-.1-.6-.2-.8-.4-.2-.1-.4-.3-.4-.6 0-.7 1-1.1 3-1.2v-.4h1.5v.4c.8 0 1.6.1 2.4.4.5.2.7.5.7.8h-3v-.1c0-.1-.1-.2-.2-.2-.2-.1-.4-.2-.6-.1-.4 0-.6 0-.7.1s-.2.1-.2.2.1.2.4.4.6.1 1 .2.7.1 1.2.1c.4 0 .8.1 1.2.2.3.1.7.2 1 .4.2.1.4.3.3.6 0 .4-.2.7-.8.8-.8.2-1.7.3-2.5.4v.5h-1.5v-.7c-.8-.1-1.6-.2-2.4-.5z"/><path class="st20" d="M654.2 622.2v2.9c0 2.5 5.9 4.4 13.2 4.4s13.2-2 13.2-4.4v-2.9h-26.4z"/><ellipse class="st4" cx="667.4" cy="622.2" rx="13.2" ry="4.4"/><ellipse class="st18" cx="667.4" cy="622.2" rx="10.8" ry="3.6"/><path class="st19" d="M664.2 623.9c-.5-.1-.8-.5-.8-.7v-.1h3v.1c0 .1.1.2.2.4.2.1.5.1.7.1.4 0 .6 0 .7-.1s.2-.1.2-.2-.1-.2-.4-.4-.5-.1-.8-.2-.7-.1-1.2-.1c-.4 0-.8-.1-1.2-.2-.3-.1-.6-.2-.8-.4-.2-.1-.4-.3-.4-.6 0-.7 1-1.1 3-1.2v-.4h1.5v.4c.8 0 1.6.1 2.4.4.5.2.7.5.7.8h-2.9v-.1c0-.1-.1-.2-.2-.3-.2-.1-.4-.2-.6-.1-.4 0-.6 0-.7.1s-.2.1-.2.2.1.2.4.4.6.1 1 .2.7.1 1.2.1c.4 0 .8.1 1.2.2.3.1.7.2 1 .4.2.1.4.3.4.6 0 .4-.2.7-.8.8-.8.2-1.7.3-2.5.4v.5h-1.6v-.5c-1.2-.3-2-.4-2.5-.5z"/><path class="st20" d="M653.3 618.5v2.9c0 2.5 5.9 4.4 13.2 4.4s13.2-2 13.2-4.4v-2.9h-26.4z"/><ellipse class="st4" cx="666.5" cy="618.5" rx="13.2" ry="4.4"/><path class="st20" d="M671.8 679.9v2.9c0 2.5 5.9 4.4 13.2 4.4s13.2-2 13.2-4.4v-2.9h-26.4z"/><ellipse class="st4" cx="685" cy="679.9" rx="13.2" ry="4.4"/><ellipse class="st20" cx="685" cy="679.9" rx="10.8" ry="3.6"/><path class="st19" d="M681.8 681.5c-.5-.1-.8-.5-.8-.7v-.1h3v.1c0 .1.1.2.2.4.2.1.5.1.7.1.4 0 .6 0 .7-.1s.2-.1.2-.2-.1-.2-.4-.4c-.3-.1-.6-.2-.8-.2-.3 0-.7-.1-1.2-.1-.4 0-.8-.1-1.2-.2-.3-.1-.6-.2-.8-.3-.2-.1-.4-.3-.4-.6 0-.7 1-1.1 3-1.2v-.2h1.5v.4c.8 0 1.6.1 2.4.4.5.2.7.5.7.8h-2.9v-.4c0-.1-.1-.2-.2-.2-.2-.1-.4-.2-.6-.1-.4 0-.6 0-.7.1s-.2.1-.2.2.1.2.4.4.6.1 1 .2.7.1 1.2.1c.4 0 .8.1 1.2.2.3.1.7.2 1 .4.2.1.4.3.4.6 0 .4-.2.7-.8.8-.8.2-1.7.3-2.5.4v.5h-1.5v-.5c-1-.1-1.8-.4-2.6-.6z"/><path class="st20" d="M673.3 676.2v2.9c0 2.5 5.9 4.4 13.2 4.4s13.2-2 13.2-4.4v-2.9h-26.4z"/><path class="st4" d="M699.6 676.2c0 2.5-5.9 4.4-13.2 4.4s-13.2-2-13.2-4.4 5.9-4.4 13.2-4.4 13.2 1.9 13.2 4.4z"/><path class="st18" d="M697.2 676.2c0 2-4.8 3.6-10.8 3.6s-10.8-1.7-10.8-3.6 4.8-3.6 10.8-3.6 10.8 1.6 10.8 3.6z"/><path class="st19" d="M683.2 677.9c-.5-.1-.8-.5-.8-.7v-.2h3v.1c0 .1.1.2.2.4.2.1.5.1.7.1.4 0 .6 0 .7-.1s.2-.1.2-.2-.1-.2-.4-.4c-.3-.1-.6-.2-.8-.2-.4 0-.7-.1-1.2-.1-.4 0-.8-.1-1.2-.2-.3-.1-.6-.2-.8-.3-.2-.1-.4-.3-.4-.6 0-.7 1-1.1 3-1.2v-.4h1.5v.4c.8 0 1.6.1 2.4.4.5.2.7.5.7.8h-2.9v-.1c0-.1-.1-.2-.2-.2-.2-.1-.4-.2-.6-.1-.4 0-.6 0-.7.1s-.2.1-.2.2.1.2.4.4.6.1 1 .2.7.1 1.2.1c.4 0 .8.1 1.2.2.3.1.7.2 1 .4.2.1.4.3.4.6 0 .4-.2.7-.8.8-.8.2-1.7.3-2.5.4v.5h-1.6v-.5c-1.2-.4-2-.5-2.5-.6z"/><path class="st20" d="M672.3 672.5v2.9c0 2.5 5.9 4.4 13.2 4.4s13.2-2 13.2-4.4v-2.9h-26.4z"/><ellipse class="st4" cx="685.5" cy="672.5" rx="13.2" ry="4.4"/><ellipse class="st20" cx="685.5" cy="672.5" rx="10.8" ry="3.6"/><path class="st19" d="M682.2 674.2c-.5-.1-.8-.5-.8-.7v-.1h3v.1c0 .1.1.2.2.4.2.1.5.1.7.1.4 0 .6 0 .7-.1s.2-.1.2-.2-.1-.2-.4-.4c-.3-.1-.6-.2-.8-.2-.4 0-.7-.1-1.2-.1-.4 0-.8-.1-1.2-.2-.3-.1-.6-.2-.8-.3-.2-.1-.4-.3-.4-.6 0-.7 1-1.1 3-1.2v-.4h1.5v.4c.8 0 1.6.1 2.4.4.5.2.7.5.7.8h-2.8v-.1c0-.1-.1-.2-.2-.2-.2-.1-.4-.2-.6-.1-.4 0-.6 0-.7.1s-.2.1-.2.2.1.2.4.4.6.1 1 .2.7.1 1.2.1c.4 0 .8.1 1.2.2.3.1.6.2 1 .4.2.1.4.3.4.6 0 .4-.2.7-.8.8-.8.2-1.7.3-2.5.4v.5h-1.6v-.5c-1.2-.5-2-.6-2.6-.7z"/><path class="st20" d="M670 668.8v2.9c0 2.5 5.9 4.4 13.2 4.4s13.2-2 13.2-4.4v-2.9H670z"/><path class="st4" d="M696.4 668.9c0 2.5-5.9 4.4-13.2 4.4s-13.2-2-13.2-4.4 5.9-4.4 13.2-4.4 13.2 1.9 13.2 4.4z"/><path class="st20" d="M694 668.9c0 2-4.8 3.6-10.8 3.6s-10.8-1.7-10.8-3.6 4.8-3.6 10.8-3.6 10.8 1.6 10.8 3.6z"/><path class="st19" d="M680 670.5c-.5-.1-.8-.4-.8-.7v-.1h3v.1c0 .1.1.2.2.4.2.1.5.1.7.1.4 0 .6 0 .7-.1s.2-.1.2-.2-.1-.2-.4-.4c-.3-.1-.6-.2-.8-.2-.4 0-.7-.1-1.2-.1-.4 0-.8-.1-1.2-.2-.3-.1-.6-.2-.8-.4-.2-.1-.4-.3-.4-.6 0-.7 1-1.1 3-1.2v-.4h1.6v.4c.8 0 1.6.1 2.4.4.5.2.7.5.7.8H684v-.1c0-.1-.1-.2-.2-.2-.2-.1-.4-.2-.6-.1-.4 0-.6 0-.7.1s-.2.1-.2.2.1.2.4.4.6.1 1 .2.7.1 1.2.1c.4 0 .8.1 1.2.2.3.1.7.2 1 .4.2.1.4.3.4.6 0 .4-.2.7-.8.8-.8.2-1.7.3-2.5.4v.5h-1.6v-.5c-1.3-.4-2-.5-2.6-.6z"/><path class="st20" d="M671.4 665.2v2.9c0 2.5 5.9 4.4 13.2 4.4s13.2-2 13.2-4.4v-2.9h-26.4z"/><ellipse class="st4" cx="684.6" cy="665.2" rx="13.2" ry="4.4"/><ellipse class="st20" cx="684.6" cy="665.2" rx="10.8" ry="3.6"/><path class="st19" d="M681.4 666.7c-.5-.1-.8-.5-.8-.7v-.1h3v.1c0 .1.1.2.2.4.2.1.5.1.7.1.3 0 .6 0 .7-.1s.2-.1.2-.2-.1-.2-.4-.4c-.3-.1-.5-.2-.8-.2-.4 0-.7-.1-1.2-.1-.4 0-.8-.1-1.2-.2-.3-.1-.6-.2-.8-.4-.2-.1-.4-.3-.3-.6 0-.7 1-1.1 3-1.2v-.4h1.5v.3c.8 0 1.6.1 2.4.4.5.2.7.5.7.8h-2.9v-.1c0-.1-.1-.2-.2-.2-.2-.1-.4-.2-.6-.1-.3 0-.6 0-.7.1s-.2.1-.2.2.1.2.4.4c.3.1.7.2 1 .2.4 0 .7.1 1.2.1.4 0 .8.1 1.2.2.3.1.7.2 1 .4.2.1.4.4.3.6 0 .4-.2.7-.8.8-.8.2-1.7.3-2.5.4v.5H684v-.5c-.9-.1-1.8-.2-2.6-.5z"/><path class="st20" d="M673.3 661.5v2.9c0 2.5 5.9 4.4 13.2 4.4s13.2-2 13.2-4.4v-2.9h-26.4z"/><path class="st4" d="M699.6 661.5c0 2.5-5.9 4.4-13.2 4.4s-13.2-2-13.2-4.4 5.9-4.4 13.2-4.4 13.2 1.9 13.2 4.4z"/><path class="st20" d="M697.2 661.5c0 2-4.8 3.6-10.8 3.6s-10.8-1.7-10.8-3.6 4.8-3.6 10.8-3.6 10.8 1.5 10.8 3.6z"/><path class="st19" d="M683.2 663c-.5-.1-.8-.4-.8-.7v-.1h3v.1c0 .1.1.2.2.4.2.1.5.1.7.1.4 0 .6 0 .7-.1s.2-.1.2-.2-.1-.2-.4-.4c-.3-.1-.6-.2-.8-.2-.4 0-.7-.1-1.2-.1-.4 0-.8-.1-1.2-.2-.3-.1-.6-.2-.8-.4-.2-.1-.4-.3-.4-.6 0-.7 1-1.1 3-1.2v-.4h1.5v.4c.8 0 1.6.1 2.4.4.5.2.7.5.7.8h-2.9v-.1c0-.1-.1-.2-.2-.2-.2-.1-.4-.2-.6-.1-.4 0-.6 0-.7.1s-.2.1-.2.2.1.2.4.4c.3.1.7.2 1 .2.4 0 .7.1 1.2.1.4 0 .8.1 1.2.2.3.1.7.2 1 .4.2.1.4.3.4.6 0 .4-.2.7-.8.8-.8.2-1.7.3-2.5.4v.5h-1.6v-.5c-.9-.1-1.7-.3-2.5-.6z"/><path class="st20" d="M672.3 657.8v2.9c0 2.5 5.9 4.4 13.2 4.4s13.2-2 13.2-4.4v-2.9h-26.4z"/><ellipse class="st4" cx="685.5" cy="657.8" rx="13.2" ry="4.4"/><ellipse class="st20" cx="685.5" cy="657.8" rx="10.8" ry="3.6"/><path class="st19" d="M682.2 659.4c-.5-.1-.8-.5-.8-.7v-.1h3v.1c0 .1.1.2.2.4.2.1.5.1.7.1.4 0 .6 0 .7-.1s.2-.1.2-.2-.1-.2-.4-.4c-.3-.1-.6-.2-.8-.2-.4 0-.7-.1-1.2-.1-.4 0-.8-.1-1.2-.2-.3-.1-.6-.2-.8-.4-.2-.1-.4-.3-.4-.6 0-.7 1-1.1 3-1.2v-.4h1.5v.4c.8 0 1.6.1 2.4.4.5.2.7.5.7.8h-2.8v-.1c0-.1-.1-.2-.2-.2-.2-.1-.4-.2-.6-.1-.4 0-.6 0-.7.1s-.2.1-.2.2.1.2.4.3.6.1 1 .2.7.1 1.2.1c.4 0 .8.1 1.2.2.3.1.6.2 1 .4.2.1.4.3.4.6 0 .4-.2.7-.8.8-.8.2-1.7.3-2.5.4v.5h-1.6v-.5c-1.2-.2-2-.3-2.6-.5z"/><path class="st20" d="M673.6 654v2.9c0 2.5 5.9 4.4 13.2 4.4s13.2-2 13.2-4.4V654h-26.4z"/><ellipse class="st4" cx="686.9" cy="654" rx="13.2" ry="4.4"/><path class="st20" d="M697.6 654c0 2-4.8 3.6-10.8 3.6S676 656 676 654s4.8-3.6 10.8-3.6 10.8 1.6 10.8 3.6z"/><path class="st19" d="M683.7 655.7c-.5-.1-.8-.5-.8-.7v-.2h3v.1c0 .1.1.2.2.4.2.1.5.1.7.1.4 0 .6 0 .7-.1s.2-.1.2-.2-.1-.2-.4-.4c-.3-.1-.6-.2-.8-.2-.4 0-.7-.1-1.2-.1-.4 0-.8-.1-1.2-.2-.3-.1-.6-.2-.8-.4-.2-.1-.4-.3-.4-.6 0-.7 1-1.1 3-1.2v-.4h1.6v.4c.8 0 1.6.1 2.4.4.5.2.7.5.7.8h-2.9v-.2c0-.1-.1-.2-.2-.2-.2-.1-.4-.2-.6-.1-.4 0-.6 0-.7.1s-.2.1-.2.2.1.2.4.3.6.1 1 .2.7.1 1.2.1c.4 0 .8.1 1.2.2.3.1.7.2 1 .4.2.1.4.3.4.6 0 .4-.2.7-.8.8-.8.2-1.7.3-2.5.4v.5h-1.6v-.5c-1 0-1.8-.1-2.6-.3z"/><path class="st20" d="M671.8 650.3v2.9c0 2.5 5.9 4.4 13.2 4.4s13.2-2 13.2-4.4v-2.9h-26.4z"/><ellipse class="st4" cx="685" cy="650.3" rx="13.2" ry="4.4"/><ellipse class="st20" cx="685" cy="650.3" rx="10.8" ry="3.6"/><path class="st19" d="M681.8 652c-.5-.1-.8-.5-.8-.7v-.1h3v.1c0 .1.1.2.2.4.2.1.5.1.7.1.4 0 .6 0 .7-.1s.2-.1.2-.2-.1-.2-.4-.4c-.3-.1-.6-.2-.8-.2-.3 0-.7-.1-1.2-.1-.4 0-.8-.1-1.2-.2-.3-.1-.6-.2-.8-.4-.2-.1-.4-.3-.4-.6 0-.7 1-1.1 3-1.2v-.4h1.5v.4c.8 0 1.6.1 2.4.4.5.2.7.5.7.8h-2.9v-.1c0-.1-.1-.2-.2-.2-.2-.1-.4-.2-.6-.1-.4 0-.6 0-.7.1s-.2.1-.2.2.1.2.4.3.6.1 1 .2.7.1 1.2.1c.4 0 .8.1 1.2.2.3.1.7.2 1 .4.2.1.4.3.4.6 0 .4-.2.7-.8.8-.8.2-1.7.3-2.5.4v.5h-1.5v-.5c-1.3-.2-2-.4-2.6-.5z"/><path class="st20" d="M670.5 646.8v2.9c0 2.5 5.9 4.4 13.2 4.4s13.2-2 13.2-4.4v-2.9h-26.4z"/><path class="st4" d="M696.8 646.8c0 2.5-5.9 4.4-13.2 4.4s-13.2-2-13.2-4.4 5.9-4.4 13.2-4.4 13.2 1.8 13.2 4.4z"/><path class="st20" d="M694.5 646.8c0 2-4.8 3.6-10.8 3.6s-10.8-1.7-10.8-3.6 4.8-3.6 10.8-3.6 10.8 1.5 10.8 3.6z"/><path class="st19" d="M680.5 648.3c-.5-.1-.8-.5-.8-.7v-.1h3v.1c0 .1.1.2.2.4.2.1.5.1.7.1.4 0 .6 0 .7-.1s.2-.1.2-.2-.1-.2-.4-.4c-.3-.1-.6-.2-.8-.2-.4 0-.7-.1-1.2-.1-.4 0-.8-.1-1.2-.2-.3-.1-.6-.2-.8-.4-.2-.1-.4-.3-.4-.6 0-.7 1-1.1 3-1.2v-.4h1.6v.4c.8 0 1.6.1 2.4.4.5.2.7.5.7.8h-2.9v-.1c0-.1-.1-.2-.2-.2-.2-.1-.4-.2-.6-.1-.4 0-.6 0-.7.1s-.2.1-.2.2.1.2.4.4.6.1 1 .2.7.1 1.2.1c.4 0 .8.1 1.2.2.3.1.7.2 1 .4.2.1.4.3.4.6 0 .4-.2.7-.8.8-.8.2-1.7.3-2.5.4v.5h-1.6v-.5c-1.3-.4-2.2-.5-2.6-.6z"/><path class="st20" d="M672.3 643v2.9c0 2.5 5.9 4.4 13.2 4.4s13.2-2 13.2-4.4V643h-26.4z"/><ellipse class="st4" cx="685.5" cy="643" rx="13.2" ry="4.4"/><ellipse class="st20" cx="685.5" cy="643" rx="10.8" ry="3.6"/><path class="st19" d="M682.2 644.6c-.5-.1-.8-.4-.8-.7v-.1h3v.1c0 .1.1.2.2.4.2.1.5.1.7.1.4 0 .6 0 .7-.1s.2-.1.2-.2-.1-.2-.4-.4c-.3-.1-.6-.2-.8-.2-.4 0-.7-.1-1.2-.1-.4 0-.8-.1-1.2-.2-.3-.1-.6-.2-.8-.4-.2-.1-.4-.3-.4-.6 0-.7 1-1.1 3-1.2v-.4h1.5v.4c.8 0 1.6.1 2.4.4.5.2.7.5.7.8h-2.8v-.2c0-.1-.1-.2-.2-.2-.2-.1-.4-.2-.6-.1-.4 0-.6 0-.7.1s-.2.1-.2.2.1.2.4.4.6.1 1 .2.7.1 1.2.1c.4 0 .8.1 1.2.2.3.1.6.2 1 .4.2.1.4.3.4.6 0 .4-.2.7-.8.8-.8.2-1.7.3-2.5.4v.5h-1.6v-.5c-.9-.1-1.7-.3-2.6-.5z"/><path class="st20" d="M673.6 639.3v2.9c0 2.5 5.9 4.4 13.2 4.4s13.2-2 13.2-4.4v-2.9h-26.4z"/><path class="st4" d="M700.1 639.3c0 2.5-5.9 4.4-13.2 4.4s-13.2-2-13.2-4.4 5.9-4.4 13.2-4.4 13.2 1.9 13.2 4.4z"/><path class="st20" d="M634.1 678.2v2.9c0 2.5 5.9 4.4 13.2 4.4s13.2-2 13.2-4.4v-2.9h-26.4z"/><path class="st4" d="M660.5 678.2c0 2.5-5.9 4.4-13.2 4.4s-13.2-2-13.2-4.4 5.9-4.4 13.2-4.4 13.2 1.9 13.2 4.4z"/><path class="st20" d="M658.1 678.2c0 2-4.8 3.6-10.8 3.6s-10.8-1.7-10.8-3.6 4.8-3.6 10.8-3.6 10.8 1.6 10.8 3.6z"/><path class="st19" d="M644.1 679.8c-.5-.1-.8-.5-.8-.7v-.1h3v.1c0 .1.1.2.2.4.2.1.5.1.7.1.4 0 .6 0 .7-.1s.2-.1.2-.2-.1-.2-.4-.4c-.3-.1-.6-.2-.8-.2-.3 0-.7-.1-1.2-.1-.4 0-.8-.1-1.2-.2-.3-.1-.6-.2-.8-.4-.2-.1-.4-.3-.4-.6 0-.7 1-1.1 3-1.2v-.4h1.5v.4c.8 0 1.6.1 2.4.3.5.2.7.5.7.8H648v-.1c0-.1-.1-.2-.2-.2-.2-.1-.4-.2-.6-.1-.4 0-.6 0-.7.1s-.2.1-.2.2.1.2.3.4.6.1 1 .2.7.1 1.2.1c.4 0 .8.1 1.2.2.3.1.7.2 1 .4.2.1.4.3.4.6 0 .4-.2.7-.8.8-.8.2-1.7.3-2.5.4v.5h-1.5v-.5c-.9-.1-1.7-.3-2.5-.5z"/><path class="st20" d="M635.5 674.5v2.9c0 2.5 5.9 4.4 13.2 4.4s13.2-2 13.2-4.4v-2.9h-26.4z"/><ellipse class="st4" cx="648.6" cy="674.5" rx="13.2" ry="4.4"/><ellipse class="st18" cx="648.6" cy="674.5" rx="10.8" ry="3.6"/><path class="st19" d="M645.4 676.1c-.5-.1-.8-.5-.8-.7v-.1h3v.1c0 .1.1.2.2.4.2.1.5.1.7.1.4 0 .6 0 .7-.1s.2-.1.2-.2-.1-.2-.4-.4c-.3-.1-.6-.2-.8-.2-.4 0-.7-.1-1.2-.1-.4 0-.8-.1-1.2-.2-.3-.1-.6-.2-.8-.4-.2-.1-.4-.3-.4-.6 0-.7 1-1.1 3-1.2v-.5h1.6v.3c.8 0 1.6.1 2.4.4.5.2.7.5.7.8h-2.9v-.1c0-.1-.1-.2-.2-.2-.2-.1-.4-.2-.6-.1-.4 0-.6 0-.7.1s-.2.1-.2.2.1.2.4.4.6.1 1 .2.7.1 1.2.1c.4 0 .8.1 1.2.2.3.1.7.2 1 .4.2.1.4.3.4.6 0 .4-.2.7-.8.8-.8.2-1.7.3-2.5.4v.5H648v-.5c-1 0-1.8-.2-2.6-.4z"/><path class="st20" d="M634.6 670.8v2.9c0 2.5 5.9 4.4 13.2 4.4s13.2-2 13.2-4.4v-2.9h-26.4z"/><path class="st4" d="M661 670.8c0 2.5-5.9 4.4-13.2 4.4s-13.2-2-13.2-4.4 5.9-4.4 13.2-4.4 13.2 1.9 13.2 4.4z"/><path class="st18" d="M658.5 670.8c0 2-4.8 3.6-10.8 3.6s-10.8-1.7-10.8-3.6 4.8-3.6 10.8-3.6 10.8 1.6 10.8 3.6z"/><path class="st19" d="M644.5 672.5c-.5-.1-.8-.5-.8-.7v-.2h3v.1c0 .1.1.2.2.4.2.1.5.1.7.1.4 0 .6 0 .7-.1s.2-.1.2-.2-.1-.2-.4-.4c-.3-.1-.6-.2-.8-.2-.4 0-.7-.1-1.2-.1-.4 0-.8-.1-1.2-.2-.3-.1-.6-.2-.8-.4-.2-.1-.4-.3-.4-.6 0-.7 1-1.1 3-1.2v-.3h1.6v.3c.8 0 1.6.1 2.4.4.5.2.7.5.7.8h-2.9v-.1c0-.1-.1-.2-.2-.2-.2-.1-.4-.2-.6-.1-.4 0-.6 0-.7.1s-.2.1-.2.2.1.2.4.4.6.1 1 .2.7.1 1.2.1c.4 0 .8.1 1.2.2.3.1.7.2 1 .4.2.1.4.3.4.6 0 .4-.2.7-.8.8-.8.2-1.7.3-2.5.4v.5H647v-.6c-.8-.2-1.6-.2-2.5-.4z"/><path class="st20" d="M632.3 667.1v2.9c0 2.5 5.9 4.4 13.2 4.4s13.2-2 13.2-4.4v-2.9h-26.4z"/><ellipse class="st4" cx="645.5" cy="667.1" rx="13.2" ry="4.4"/><ellipse class="st20" cx="645.5" cy="667.1" rx="10.8" ry="3.6"/><path class="st19" d="M642.3 668.8c-.5-.1-.8-.5-.8-.7v-.1h3v.1c0 .1.1.2.2.4.2.1.5.1.7.1.4 0 .6 0 .7-.1s.2-.1.2-.2-.1-.2-.4-.4c-.3-.1-.6-.2-.8-.2-.4 0-.7-.1-1.2-.1-.4 0-.8-.1-1.2-.2-.3-.1-.6-.2-.8-.4-.2-.1-.4-.3-.4-.6 0-.7 1-1.1 3-1.2v-.4h1.6v.4c.8 0 1.6.1 2.4.4.5.2.7.5.7.8h-2.9v-.1c0-.1-.1-.2-.2-.2-.2-.1-.4-.2-.6-.1-.4 0-.6 0-.7.1s-.2.1-.2.2.1.2.4.4.6.1 1 .2.7.1 1.2.1c.4 0 .8.1 1.2.2.3.1.7.2 1 .4.2.1.4.3.4.6 0 .4-.2.7-.8.8-.8.2-1.7.3-2.5.4v.5h-1.7v-.5c-1.2-.4-2-.5-2.5-.6z"/><path class="st20" d="M633.7 663.4v2.9c0 2.5 5.9 4.4 13.2 4.4s13.2-2 13.2-4.4v-2.9h-26.4z"/><path class="st4" d="M660 663.4c0 2.5-5.9 4.4-13.2 4.4s-13.2-2-13.2-4.4 5.9-4.4 13.2-4.4 13.2 2 13.2 4.4z"/><path class="st20" d="M657.6 663.4c0 2-4.8 3.6-10.8 3.6s-10.8-1.7-10.8-3.6 4.8-3.6 10.8-3.6 10.8 1.7 10.8 3.6z"/><path class="st19" d="M643.6 665.1c-.5-.1-.8-.4-.8-.7v-.1h3v.1c0 .1.1.2.2.3.2.1.5.1.7.1.4 0 .6 0 .7-.1s.2-.1.2-.2-.1-.2-.4-.4c-.3-.1-.5-.2-.8-.2-.4 0-.7-.1-1.2-.1-.4 0-.8-.1-1.2-.2-.3-.1-.6-.2-.8-.4-.2-.1-.4-.3-.4-.6 0-.7 1-1.1 3-1.2v-.4h1.5v.4c.8 0 1.6.1 2.4.4.5.2.7.5.7.8h-2.9v-.1c0-.1-.1-.2-.2-.2-.2-.1-.4-.2-.6-.1-.3 0-.6 0-.7.1s-.2.1-.2.2.1.2.4.4.6.1 1 .2.7.1 1.2.1c.4 0 .8.1 1.2.2.3.1.6.2 1 .4.2.1.4.3.4.6s-.2.7-.8.8c-.8.2-1.7.3-2.5.4v.5H646v-.5c-1.1-.3-1.8-.4-2.4-.5z"/><path class="st20" d="M635.5 659.8v2.9c0 2.5 5.9 4.4 13.2 4.4s13.2-2 13.2-4.4v-2.9h-26.4z"/><ellipse class="st4" cx="648.6" cy="659.8" rx="13.2" ry="4.4"/><ellipse class="st18" cx="648.6" cy="659.8" rx="10.8" ry="3.6"/><path class="st19" d="M645.4 661.3c-.5-.1-.8-.5-.8-.7v-.1h3v.1c0 .1.1.2.2.3.2.1.5.1.7.1.4 0 .6 0 .7-.1s.2-.1.2-.2-.1-.2-.4-.4c-.3-.1-.6-.2-.8-.2-.4 0-.7-.1-1.2-.1-.4 0-.8-.1-1.2-.2-.3-.1-.6-.2-.8-.4-.2-.1-.4-.3-.4-.6 0-.7 1-1.1 3-1.2v-.4h1.6v.4c.8 0 1.6.1 2.4.4.5.2.7.5.7.8h-2.9v-.1c0-.1-.1-.2-.2-.2-.2-.1-.4-.2-.6-.1-.4 0-.6 0-.7.1s-.2.1-.2.2.1.2.4.4.6.1 1 .2.7.1 1.2.1c.4 0 .8.1 1.2.2.3.1.7.2 1 .4.2.1.4.3.4.6s-.2.7-.8.8c-.8.2-1.7.3-2.5.4v.5H648v-.5c-1-.1-1.8-.2-2.6-.5z"/><path class="st20" d="M634.6 656.1v2.9c0 2.5 5.9 4.4 13.2 4.4s13.2-2.1 13.2-4.4v-2.9h-26.4z"/><ellipse class="st4" cx="647.8" cy="656.1" rx="13.2" ry="4.4"/><ellipse class="st20" cx="647.8" cy="656.1" rx="10.8" ry="3.6"/><path class="st19" d="M644.5 657.6c-.5-.1-.8-.4-.8-.7v-.1h3v.1c0 .1.1.2.2.3.2.1.5.1.7.1.4 0 .6 0 .7-.1s.2-.1.2-.2-.1-.2-.4-.4c-.3-.1-.6-.2-.8-.2-.4 0-.7-.1-1.2-.1-.4 0-.8-.1-1.2-.2-.3-.1-.6-.2-.8-.4-.2-.1-.4-.3-.4-.6 0-.7 1-1.1 3-1.2v-.4h1.6v.4c.8 0 1.6.1 2.4.4.5.2.7.5.7.8h-2.9v-.1c0-.1-.1-.2-.2-.2-.2-.1-.4-.2-.6-.1-.4 0-.6 0-.7.1s-.2.1-.2.2.1.2.4.4.6.1 1 .2.7.1 1.2.1c.4 0 .8.1 1.2.2.3.1.7.2 1 .4.2.1.4.3.4.6s-.2.7-.8.8c-.8.2-1.7.3-2.5.4v.5H647v-.5c-.8 0-1.6-.2-2.5-.5z"/><path class="st20" d="M635.9 652.4v2.9c0 2.5 5.9 4.4 13.2 4.4s13.2-2 13.2-4.4v-2.9h-26.4z"/><ellipse class="st4" cx="649.1" cy="652.4" rx="13.2" ry="4.4"/><ellipse class="st18" cx="649.1" cy="652.4" rx="10.8" ry="3.6"/><path class="st19" d="M645.9 654c-.5-.1-.8-.5-.8-.7v-.1h3v.1c0 .1.1.2.2.4.2.1.5.1.7.1.4 0 .6 0 .7-.1s.2-.1.2-.2-.1-.2-.4-.3c-.3-.1-.6-.2-.8-.2-.4 0-.7-.1-1.2-.1-.4 0-.8-.1-1.2-.2-.3-.1-.6-.2-.8-.4-.2-.1-.4-.3-.4-.6 0-.7 1-1.1 3-1.2v-.5h1.6v.4c.8 0 1.6.1 2.4.4.5.2.7.5.7.8H650v-.1c0-.1-.1-.2-.2-.2-.2-.1-.4-.2-.6-.1-.4 0-.6 0-.7.1s-.2.1-.2.2.1.2.4.4.6.1 1 .2.7.1 1.2.1c.4 0 .8.1 1.2.2.3.1.7.2 1 .4.2.1.4.3.4.6 0 .4-.2.7-.8.8-.8.2-1.7.3-2.5.4v.5h-1.6v-.5c-1.4-.3-2.1-.4-2.7-.6z"/><path class="st20" d="M632.6 648.7v2.9c0 2.5 5.9 4.4 13.2 4.4s13.2-2 13.2-4.4v-2.9h-26.4z"/><ellipse class="st4" cx="645.8" cy="648.7" rx="13.2" ry="4.4"/><ellipse class="st18" cx="645.8" cy="648.7" rx="10.8" ry="3.6"/><path class="st19" d="M642.5 650.3c-.5-.1-.8-.5-.8-.7v-.1h3v.1c0 .1.1.2.2.4.2.1.5.1.7.1.4 0 .6 0 .7-.1s.2-.1.2-.2-.1-.2-.4-.3c-.3-.1-.6-.2-.8-.2-.4 0-.7-.1-1.2-.1-.4 0-.8-.1-1.2-.2-.3-.1-.6-.2-.8-.4-.2-.1-.4-.3-.4-.6 0-.7 1-1.1 3-1.2v-.4h1.6v.4c.8 0 1.6.1 2.4.4.5.2.7.5.7.8h-2.9v-.1c0-.1-.1-.2-.2-.2-.2-.1-.4-.2-.6-.1-.4 0-.6 0-.7.1s-.2.1-.2.2.1.2.4.4.6.1 1 .2.7.1 1.2.1c.4 0 .8.1 1.2.2.3.1.7.2 1 .4.2.1.4.3.4.6 0 .4-.2.7-.8.8-.8.2-1.7.3-2.5.4v.5H645v-.5c-1.2-.4-1.9-.5-2.5-.7z"/><path class="st20" d="M632.6 645v2.9c0 2.5 5.9 4.4 13.2 4.4s13.2-2 13.2-4.4V645h-26.4z"/><ellipse class="st4" cx="645.8" cy="645" rx="13.2" ry="4.4"/><ellipse class="st20" cx="645.8" cy="645" rx="10.8" ry="3.6"/><path class="st19" d="M642.5 646.6c-.5-.1-.8-.4-.8-.7v-.1h3v.1c0 .1.1.2.2.4.2.1.5.1.7.1.4 0 .6 0 .7-.1s.2-.1.2-.2-.1-.2-.4-.4-.5-.1-.8-.2-.7-.1-1.2-.1c-.4 0-.8-.1-1.2-.2-.3-.1-.6-.2-.8-.4-.2-.1-.4-.3-.4-.6 0-.7 1-1.1 3-1.2v-.4h1.6v.4c.8 0 1.6.1 2.4.4.5.2.7.5.7.8h-2.9v-.2c0-.1-.1-.2-.2-.2-.2-.1-.4-.2-.6-.1-.4 0-.6 0-.7.1s-.2.1-.2.2.1.2.4.4.6.1 1 .2.7.1 1.2.1c.4 0 .8.1 1.2.2.3.1.7.2 1 .4.2.1.4.3.4.6 0 .4-.2.7-.8.8-.8.2-1.7.3-2.5.4v.5H645v-.5c-1.2-.2-2-.3-2.5-.5z"/><path class="st20" d="M634.6 641.4v2.9c0 2.5 5.9 4.4 13.2 4.4s13.2-2 13.2-4.4v-2.9h-26.4z"/><ellipse class="st4" cx="647.8" cy="641.4" rx="13.2" ry="4.4"/><path class="st4" d="M658.5 641.4c0 2-4.8 3.6-10.8 3.6s-10.8-1.7-10.8-3.6 4.8-3.6 10.8-3.6 10.8 1.5 10.8 3.6z"/><path class="st19" d="M644.5 642.9c-.5-.1-.8-.5-.8-.7v-.1h3v.1c0 .1.1.2.2.4.2.1.5.1.7.1.4 0 .6 0 .7-.1s.2-.1.2-.2-.1-.2-.4-.4-.5-.1-.8-.2-.7-.1-1.2-.1c-.4 0-.8-.1-1.2-.2-.3-.1-.6-.2-.8-.4-.2-.1-.4-.3-.4-.6 0-.7 1-1.1 3-1.2v-.4h1.6v.4c.8 0 1.6.1 2.4.4.5.2.7.5.7.8h-2.9v-.1c0-.1-.1-.2-.2-.2-.2-.1-.4-.2-.6-.1-.4 0-.6 0-.7.1s-.2.1-.2.2.1.2.4.4.6.1 1 .2.7.1 1.2.1c.4 0 .8.1 1.2.2.3.1.7.2 1 .4.2.1.4.3.4.6 0 .4-.2.7-.8.8-.8.2-1.7.3-2.5.4v.5H647v-.5c-1.1-.3-2-.5-2.5-.6z"/><path class="st20" d="M635.9 637.7v2.9c0 2.5 5.9 4.4 13.2 4.4s13.2-2 13.2-4.4v-2.9h-26.4z"/><ellipse class="st4" cx="649.1" cy="637.7" rx="13.2" ry="4.4"/><path class="st21" d="M670.5 647.7v1.8c.1.8.6 1.6 1.3 2v1.7c0 .8.7 1.5 1.8 2.3v.2c-.7.4-1.2 1.2-1.3 2v2.9c.1.7.4 1.3 1 1.7v.6c-1.2.7-1.8 1.4-1.8 2.3v1.7c-.7.4-1.2 1.2-1.3 2v2.9c0 1 .8 1.8 2.3 2.5v1.2c.1.7.4 1.3 1 1.7v1c-.7.4-1.2 1.2-1.3 2v3c0 1.5 2.5 3 6.2 3.8v-1.4c0-1-1-1.8-2.5-2.5.8-.4 1.4-1.1 1.5-2v-1.4c1.3-.7 2-1.4 2-2.3v-2.9c0-.6-.4-1.1-1.1-1.7v-1c1-.6 1.6-1.3 1.6-2v-2.9c0-.8-.7-1.6-2-2.3V663c0-.7-.6-1.4-1.5-2v-.2c1.3-.7 2-1.4 2-2.3v-1.7c1-.6 1.6-1.3 1.6-2v-2.9c-.4-1.9-4.1-3.5-9.5-4.2zM650.1 651.9v1.7c-1 .6-1.6 1.3-1.6 2v1.4c-1.3.7-2 1.4-2 2.3v2.9c.2.9.7 1.6 1.5 2v1.7c0 .8.7 1.6 2 2.3v.2c-1 .6-1.6 1.3-1.6 2v2.9c0 .6.4 1.1 1.1 1.7v.6c-1.3.7-2 1.4-2 2.3v1.7c-.8.4-1.4 1.1-1.5 2v2.9c0 .5.3 1 .6 1.3h.6c7.3 0 13.2-2 13.2-4.4v-1.7c.7-.4 1.2-1.2 1.3-2v-2.9c-.1-.7-.4-1.3-1-1.7v-2c0-1-.8-1.8-2.3-2.5.7-.4 1.2-1.2 1.3-2V665c1.2-.7 1.8-1.4 1.8-2.3v-2.9c-.1-.7-.4-1.3-1-1.7V657c.7-.4 1.2-1.2 1.3-2v-2.8c0-.8-.7-1.6-1.8-2.3v-1.4c0-.4-.1-.8-.4-1.1-5.4.8-9.5 2.5-9.5 4.5z"/><path class="st20" d="M649.7 691.2v2.8c0 2.5 5.9 4.4 13.2 4.4s13.1-2 13.1-4.4v-2.9l-26.3.1z"/><ellipse class="st4" cx="662.9" cy="691.2" rx="13.2" ry="4.4"/><path class="st20" d="M673.6 691.2c0 2-4.8 3.6-10.8 3.6s-10.8-1.7-10.8-3.6 4.8-3.6 10.8-3.6 10.8 1.5 10.8 3.6z"/><path class="st19" d="M659.6 692.7c-.5-.1-.8-.5-.8-.7v-.1h3v.1c0 .1.1.2.2.4.2.1.5.1.7.1.4 0 .6 0 .7-.1s.2-.1.2-.2-.1-.2-.4-.4c-.3-.1-.6-.2-.8-.2-.4 0-.7-.1-1.2-.1-.4 0-.8-.1-1.2-.2-.3-.1-.6-.2-.8-.4-.2-.1-.4-.3-.4-.6 0-.7 1-1.1 3-1.2v-.4h1.6v.3c.8 0 1.6.1 2.4.4.5.2.7.5.7.8h-2.9v-.1c0-.1-.1-.2-.2-.2-.2-.1-.4-.2-.6-.1-.4 0-.6 0-.7.1s-.2.1-.2.2.1.2.4.4.6.1 1 .2.7.1 1.2.1c.4 0 .8.1 1.2.2.3.1.7.2 1 .3.2.1.4.3.4.6 0 .4-.2.7-.8.8-.8.2-1.7.3-2.5.4v.5H662v-.6c-.8 0-1.6-.1-2.4-.3z"/><path class="st20" d="M651 687.5v2.9c0 2.5 5.9 4.4 13.2 4.4s13.2-2 13.2-4.4v-2.9H651z"/><ellipse class="st4" cx="664.2" cy="687.5" rx="13.2" ry="4.4"/><ellipse class="st20" cx="664.2" cy="687.5" rx="10.8" ry="3.6"/><path class="st19" d="M661 689c-.5-.1-.8-.5-.8-.7v-.1h3v.1c0 .1.1.2.2.4.2.1.5.1.7.1.4 0 .6 0 .7-.1s.2-.1.2-.2-.1-.2-.4-.4c-.3-.1-.6-.2-.8-.2-.4 0-.7-.1-1.2-.1-.4 0-.8-.1-1.2-.2-.3-.1-.6-.2-.8-.4-.2-.1-.4-.3-.4-.6 0-.7 1-1.1 3-1.2v-.4h1.6v.4c.8 0 1.6.1 2.4.4.5.2.7.5.7.8h-3v-.1c0-.1-.1-.2-.2-.2-.2-.1-.4-.2-.6-.1-.4 0-.6 0-.7.1s-.2.1-.2.2.1.2.4.4.6.1 1 .2.7.1 1.2.1c.4 0 .8.1 1.2.2.3.1.7.2 1 .3.2.1.4.3.4.6 0 .4-.2.7-.8.8-.8.2-1.7.3-2.5.4v.5h-1.6v-.5c-.9-.1-1.7-.3-2.5-.5z"/><path class="st20" d="M650.1 683.7v2.9c0 2.5 5.9 4.4 13.2 4.4s13.2-2 13.2-4.4v-2.9h-26.4z"/><ellipse class="st4" cx="663.3" cy="683.7" rx="13.2" ry="4.4"/><path class="st20" d="M674 683.7c0 2-4.8 3.6-10.8 3.6s-10.8-1.7-10.8-3.6 4.8-3.6 10.8-3.6 10.8 1.6 10.8 3.6z"/><path class="st19" d="M660 685.3c-.5-.1-.8-.5-.8-.7v-.1h3v.1c0 .1.1.2.2.4.2.1.5.1.7.1.4 0 .6 0 .7-.1s.2-.1.2-.2-.1-.2-.4-.4c-.3-.1-.6-.2-.8-.2-.4 0-.7-.1-1.2-.1-.4 0-.8-.1-1.2-.2-.3-.1-.6-.2-.8-.3-.2-.1-.4-.3-.4-.6 0-.7 1-1.1 3-1.2v-.4h1.6v.4c.8 0 1.6.1 2.4.4.5.2.7.5.7.8H664v-.1c0-.1-.1-.2-.2-.2-.2-.1-.4-.2-.6-.1-.4 0-.6 0-.7.1s-.2.1-.2.2.1.2.4.4.6.1 1 .2.7.1 1.2.1c.4 0 .8.1 1.2.2.3.1.7.2 1 .3.2.1.4.3.4.6 0 .4-.2.7-.8.8-.8.2-1.7.3-2.5.4v.5h-1.6v-.5c-1-.2-1.8-.4-2.6-.6z"/><path class="st20" d="M647.8 680v2.9c0 2.5 5.9 4.4 13.2 4.4s13.2-2 13.2-4.4V680h-26.4z"/><ellipse class="st4" cx="661.1" cy="680" rx="13.2" ry="4.4"/><ellipse class="st20" cx="661.1" cy="680" rx="10.8" ry="3.6"/><path class="st19" d="M657.7 681.7c-.5-.1-.8-.4-.8-.7v-.1h3v.1c0 .1.1.2.2.4.2.1.5.1.7.1.4 0 .6 0 .7-.1s.2-.1.2-.2-.1-.2-.4-.4c-.3-.1-.6-.2-.8-.2-.4 0-.7-.1-1.2-.1-.4 0-.8-.1-1.2-.2-.3-.1-.6-.2-.8-.3-.2-.1-.4-.3-.4-.6 0-.7 1-1.1 3-1.2v-.4h1.6v.3c.8 0 1.6.1 2.4.4.5.2.7.5.7.8h-2.9v-.1c0-.1-.1-.2-.2-.2-.2-.1-.4-.2-.6-.1-.4 0-.6 0-.7.1s-.2.1-.2.2.1.2.4.4.6.1 1 .2.7.1 1.2.1c.4 0 .8.1 1.2.2.3.1.7.2 1 .4.2.1.4.3.4.6 0 .4-.2.7-.8.8-.8.2-1.7.3-2.5.4v.5h-1.6v-.5c-1.1-.4-2-.5-2.6-.6z"/><path class="st20" d="M649.2 676.3v2.9c0 2.5 5.9 4.4 13.2 4.4s13.2-2 13.2-4.4v-2.9h-26.4z"/><ellipse class="st4" cx="662.4" cy="676.3" rx="13.2" ry="4.4"/><ellipse class="st4" cx="662.4" cy="676.3" rx="10.8" ry="3.6"/><path class="st19" d="M659.2 678c-.5-.1-.8-.4-.8-.7v-.1h3v.1c0 .1.1.2.2.4.2.1.5.1.7.1.4 0 .6 0 .7-.1s.2-.1.2-.2-.1-.2-.4-.4c-.3-.1-.6-.2-.8-.2-.3 0-.7-.1-1.2-.1-.4 0-.8-.1-1.2-.2-.3-.1-.6-.2-.8-.3-.2-.1-.4-.3-.4-.6 0-.7 1-1.1 3-1.2v-.4h1.6v.4c.8 0 1.6.1 2.4.4.5.2.7.5.7.8h-2.9v-.1c0-.1-.1-.2-.2-.2-.2-.1-.4-.2-.6-.1-.4 0-.6 0-.7.1s-.2.1-.2.2.1.2.4.4.6.1 1 .2.7.1 1.2.1c.4 0 .8.1 1.2.2.3.1.7.2 1 .4.2.1.4.3.4.6 0 .4-.2.7-.8.8-.8.2-1.7.3-2.5.4v.5h-1.5v-.5c-1.4-.5-2.3-.6-2.7-.7z"/><path class="st20" d="M651 672.7v2.9c0 2.5 5.9 4.4 13.2 4.4s13.2-2 13.2-4.4v-2.9H651z"/><ellipse class="st4" cx="664.2" cy="672.7" rx="13.2" ry="4.4"/><ellipse class="st20" cx="664.2" cy="672.7" rx="10.8" ry="3.6"/><path class="st19" d="M661 674.3c-.5-.1-.8-.5-.8-.7v-.1h3v.1c0 .1.1.2.2.4.2.1.5.1.7.1.4 0 .6 0 .7-.1s.2-.1.2-.2-.1-.2-.4-.4c-.3-.1-.6-.2-.8-.2-.4 0-.7-.1-1.2-.1-.4 0-.8-.1-1.2-.2-.3-.1-.6-.2-.8-.4-.2-.1-.4-.3-.4-.6 0-.7 1-1.1 3-1.2v-.4h1.6v.4c.8 0 1.6.1 2.4.4.5.2.7.5.7.8h-3v-.1c0-.1-.1-.2-.2-.2-.2-.1-.4-.2-.6-.1-.4 0-.6 0-.7.1s-.2.1-.2.2.1.2.4.4.6.1 1 .2.7.1 1.2.1c.4 0 .8.1 1.2.2.3.1.7.2 1 .4.2.1.4.3.4.6 0 .4-.2.7-.8.8-.8.2-1.7.3-2.5.4v.5h-1.6v-.5c-1.2-.4-2-.5-2.5-.6z"/><path class="st20" d="M650.1 669v2.9c0 2.5 5.9 4.4 13.2 4.4s13.2-2 13.2-4.4V669h-26.4z"/><path class="st4" d="M676.5 669c0 2.5-5.9 4.4-13.2 4.4s-13.2-2-13.2-4.4 5.9-4.4 13.2-4.4 13.2 1.9 13.2 4.4z"/><path class="st20" d="M674 669c0 2-4.8 3.6-10.8 3.6s-10.8-1.7-10.8-3.6 4.8-3.6 10.8-3.6S674 667 674 669z"/><path class="st19" d="M660 670.6c-.5-.1-.8-.5-.8-.7v-.1h3v.1c0 .1.1.2.2.4.2.1.5.1.7.1.4 0 .6 0 .7-.1s.2-.1.2-.2-.1-.2-.4-.4c-.3-.1-.6-.2-.8-.2-.4 0-.7-.1-1.2-.1-.4 0-.8-.1-1.2-.2-.3-.1-.6-.2-.8-.4-.2-.1-.4-.3-.4-.6 0-.7 1-1.1 3-1.2v-.4h1.6v.4c.8 0 1.6.1 2.4.4.5.2.7.5.7.8H664v-.1c0-.1-.1-.2-.2-.2-.2-.1-.4-.2-.6-.1-.4 0-.6 0-.7.1s-.2.1-.2.2.1.2.4.4c.3.1.7.2 1 .2.4 0 .7.1 1.2.1.4 0 .8.1 1.2.2.3.1.7.2 1 .4.2.1.4.3.4.6 0 .4-.2.7-.8.8-.8.2-1.7.3-2.5.4v.5h-1.6v-.7c-1.2-.2-2-.2-2.6-.4z"/><path class="st20" d="M651.5 665.3v2.9c0 2.5 5.9 4.4 13.2 4.4s13.2-2 13.2-4.4v-2.9h-26.4z"/><ellipse class="st4" cx="664.7" cy="665.3" rx="13.2" ry="4.4"/><ellipse class="st20" cx="664.7" cy="665.3" rx="10.8" ry="3.6"/><path class="st19" d="M661.4 666.9c-.5-.1-.8-.5-.8-.7v-.2h3v.1c0 .1.1.2.2.4.2.1.5.1.7.1.4 0 .6 0 .7-.1s.2-.1.2-.2-.1-.2-.4-.4c-.3-.1-.6-.2-.8-.2-.4 0-.7-.1-1.2-.1-.4 0-.8-.1-1.2-.2-.3-.1-.6-.2-.8-.4-.2-.1-.4-.3-.4-.6 0-.7 1-1.1 3-1.2v-.4h1.6v.4c.8 0 1.6.1 2.4.4.5.2.7.5.7.8h-2.9c0-.1-.1-.2-.2-.2-.2-.1-.4-.2-.6-.1-.4 0-.6 0-.7.1s-.2.1-.2.2.1.2.4.3.6.1 1 .2.7.1 1.2.1c.4 0 .8.1 1.2.2.3.1.7.2 1 .4.2.1.4.3.4.6 0 .4-.2.7-.8.8-.8.2-1.7.3-2.5.4v.5H664v-.5c-.9-.1-1.8-.3-2.6-.5z"/><path class="st20" d="M649.7 661.6v2.9c0 2.5 5.9 4.4 13.2 4.4s13.2-2 13.2-4.4v-2.9h-26.4z"/><path class="st4" d="M676 661.6c0 2.5-5.9 4.4-13.2 4.4s-13.2-2-13.2-4.4 5.9-4.4 13.2-4.4 13.2 1.9 13.2 4.4z"/><path class="st20" d="M673.6 661.6c0 2-4.8 3.6-10.8 3.6s-10.8-1.7-10.8-3.6 4.8-3.6 10.8-3.6 10.8 1.6 10.8 3.6z"/><path class="st19" d="M659.6 663.3c-.5-.1-.8-.5-.8-.7v-.1h3v.1c0 .1.1.2.2.4.2.1.5.1.7.1.4 0 .6 0 .7-.1s.2-.1.2-.2-.1-.2-.4-.4c-.3-.1-.6-.2-.8-.2-.4 0-.7-.1-1.2-.1-.4 0-.8-.1-1.2-.2-.3-.1-.6-.2-.8-.4-.2-.1-.4-.3-.4-.6 0-.7 1-1.1 3-1.2v-.4h1.6v.4c.8 0 1.6.1 2.4.4.5.2.7.5.7.8h-2.9v-.1c0-.1-.1-.2-.2-.2-.2-.1-.4-.2-.6-.1-.4 0-.6 0-.7.1s-.2.1-.2.2.1.2.4.3.6.1 1 .2.7.1 1.2.1c.4 0 .8.1 1.2.2.3.1.7.2 1 .4.2.1.4.3.4.6 0 .4-.2.7-.8.8-.8.2-1.7.3-2.5.4v.5H662v-.5c-1-.3-1.9-.4-2.4-.5z"/><path class="st20" d="M648.3 657.9v2.9c0 2.5 5.9 4.4 13.2 4.4s13.2-2 13.2-4.4v-2.9h-26.4z"/><ellipse class="st4" cx="661.4" cy="657.9" rx="13.2" ry="4.4"/><ellipse class="st20" cx="661.4" cy="657.9" rx="10.8" ry="3.6"/><path class="st19" d="M658.2 659.6c-.5-.1-.8-.4-.8-.7v-.1h3v.1c0 .1.1.2.2.4.2.1.5.1.7.1.4 0 .6 0 .7-.1s.2-.1.2-.2-.1-.2-.4-.4c-.3-.1-.5-.2-.8-.2-.4 0-.7-.1-1.2-.1-.4 0-.8-.1-1.2-.2-.3-.1-.6-.2-.8-.4-.2-.1-.4-.3-.4-.6 0-.7 1-1.1 3-1.2v-.4h1.5v.4c.8 0 1.6.1 2.4.4.5.2.7.5.7.8h-2.9v-.1c0-.1-.1-.2-.2-.2-.2-.1-.4-.2-.6-.1-.4 0-.6 0-.7.1s-.2.1-.2.2.1.2.4.3.6.1 1 .2.7.1 1.2.1c.4 0 .8.1 1.2.2.3.1.7.2 1 .4.2.1.4.3.4.6 0 .4-.2.7-.8.8-.8.2-1.7.3-2.5.4v.5h-1.5v-.6c-1.3-.2-2-.3-2.6-.4z"/><path class="st20" d="M650.1 654.2v2.9c0 2.5 5.9 4.4 13.2 4.4s13.2-2 13.2-4.4v-2.9h-26.4z"/><path class="st4" d="M676.5 654.2c0 2.5-5.9 4.4-13.2 4.4s-13.2-2-13.2-4.4 5.9-4.4 13.2-4.4 13.2 2 13.2 4.4z"/><path class="st20" d="M674 654.2c0 2-4.8 3.6-10.8 3.6s-10.8-1.7-10.8-3.6 4.8-3.6 10.8-3.6 10.8 1.7 10.8 3.6z"/><path class="st19" d="M660 655.8c-.5-.1-.8-.4-.8-.7v-.1h3v.1c0 .1.1.2.2.4.2.1.5.1.7.1.4 0 .6 0 .7-.1s.2-.1.2-.2-.1-.2-.4-.4c-.3-.1-.6-.2-.8-.2-.4 0-.7-.1-1.2-.1-.4 0-.8-.1-1.2-.2-.3-.1-.6-.2-.8-.4-.2-.1-.4-.3-.4-.6 0-.7 1-1.1 3-1.2v-.4h1.6v.4c.8 0 1.6.1 2.4.4.5.2.7.5.7.8H664v-.1c0-.1-.1-.2-.2-.2-.2-.1-.4-.2-.6-.1-.4 0-.6 0-.7.1s-.2.1-.2.2.1.2.4.3.6.1 1 .2.7.1 1.2.1c.4 0 .8.1 1.2.2.3.1.7.2 1 .4.2.1.4.3.4.6 0 .4-.2.7-.8.8-.8.2-1.7.3-2.5.4v.5h-1.6v-.5c-1.2-.2-2-.3-2.6-.5z"/><path class="st20" d="M651.5 650.6v2.9c0 2.5 5.9 4.4 13.2 4.4s13.2-2 13.2-4.4v-2.9h-26.4z"/><ellipse class="st4" cx="664.7" cy="650.6" rx="13.2" ry="4.4"/><path class="st10" d="M208.5 642.4l-72 30.6 44.8 9.1 64.4-33.4z"/><path class="st11" d="M181.3 682.1v11l-44.8-8.9V673z"/><path class="st12" d="M245.7 648.7v8l-64.4 36.4v-11z"/><path class="st13" d="M210.4 648.1l17 2.8-48 23.2-21.2-4 52.2-22m-.4-3.4l-63 26.6 33 6.2 58.3-28.2-28.3-4.6z"/><ellipse class="st14" cx="212.9" cy="652.3" rx="4.2" ry="1.9"/><ellipse class="st15" cx="196.5" cy="659.9" rx="12" ry="5.5"/><ellipse class="st16" cx="196.5" cy="659.9" rx="8.3" ry="3.8"/><path class="st17" d="M243.3 652.3l-58.8 31.2M243.3 653.8l-58.8 32.3M243.3 656.1l-58.8 32.3M139.2 676.5l38 7.6M139.2 679.3l38 7.4M139.2 681.7l38 7.5M217.9 650.3l1.5 1.4-7.6-1.8M211.1 650.2l2.1-1"/><ellipse transform="rotate(-77.151 213.439 651.967)" class="st17" cx="213.5" cy="652" rx=".8" ry="4.3"/><ellipse transform="rotate(-77.151 210.286 653.27)" class="st17" cx="210.3" cy="653.3" rx=".8" ry="4.3"/><ellipse class="st14" cx="179" cy="668.4" rx="4.2" ry="1.9"/><path class="st17" d="M183.9 666.4l1.6 1.3-7.7-1.8M177.2 666.3l2.1-1.1"/><ellipse transform="rotate(-77.151 179.45 668.063)" class="st17" cx="179.5" cy="668.1" rx=".8" ry="4.3"/><ellipse transform="rotate(-77.151 176.327 669.24)" class="st17" cx="176.3" cy="669.3" rx=".8" ry="4.3"/><path class="st10" d="M198.2 626.6l-71.8 30.7 44.6 9.1 64.4-33.5z"/><path class="st11" d="M171 666.4v10.9l-44.6-8.8v-11.2z"/><path class="st12" d="M235.4 632.9v8L171 677.3v-10.9z"/><path class="st13" d="M200.2 632.4l17 2.8-48 23.2-21.2-4 52.2-22m-.5-3.4l-63 26.6 32.9 6.2 58.3-28.2-28.2-4.6z"/><ellipse class="st14" cx="202.7" cy="636.6" rx="4.2" ry="1.9"/><ellipse class="st15" cx="186.2" cy="644.1" rx="12" ry="5.5"/><ellipse class="st16" cx="186.2" cy="644.1" rx="8.3" ry="3.8"/><path class="st17" d="M233.1 636.6l-58.9 31.1M233.1 638l-58.9 32.5M233.1 640.3l-58.9 32.3M129 660.9l38.1 7.5M129 663.5l38.1 7.5M129 665.9l38.1 7.5M207.8 634.7l1.4 1.2-7.6-1.8M200.9 634.4l2.1-.9"/><ellipse transform="rotate(-77.151 203.173 636.167)" class="st17" cx="203.2" cy="636.2" rx=".8" ry="4.3"/><ellipse transform="rotate(-77.151 200.146 637.499)" class="st17" cx="200.2" cy="637.5" rx=".8" ry="4.3"/><ellipse class="st14" cx="168.7" cy="652.6" rx="4.2" ry="1.9"/><path class="st17" d="M173.8 650.7l1.4 1.2-7.6-1.8M166.9 650.6l2.2-1.1"/><ellipse transform="rotate(-77.151 169.207 652.256)" class="st17" cx="169.2" cy="652.3" rx=".8" ry="4.3"/><ellipse transform="rotate(-77.151 166.168 653.595)" class="st17" cx="166.2" cy="653.6" rx=".8" ry="4.3"/><path class="st5" d="M59.7 310.4h259v73.8h-259z"/><path class="st0" d="M150.9 336.2c-.3-.7-1.3-.5-2.5-.4-.6.1-1.5.2-2.5.3l1-3.9c.2-.6-2.6-2.6-3.5-2-.6.4-1.5 3.1-2.5 6.7-1.8.3-3.6.8-5.4 1.5v-.3c.2-1.7-2.3-2.6-3.8-2.6-.5 0-1 0-1.2.5-3 5.7-5.1 12-7.1 17.8h-.2c0-5.2 1.5-10.1 2.1-15.2.2-1.3-1.1-1.4-1.7-1.4-2.7 0-4.1 7.1-4.5 15.9-.1.1-.1.2-.1.3 0 3.5-3.4 10.1-7.6 10.1-2.8 0-3.8-1.9-3.8-4.3s.3-4.8 1-7.1c.5 1.3 1.8 2.2 3.2 2.2 4.3 0 6.2-6.1 6.2-12.9 0-4.9-2.4-6.4-4.5-6.4-4.8 0-9.3 13.6-9.3 22.4 0 .5 0 .9.1 1.4-.2-.3-.6-.4-.9-.3l-.5.2c-2.2-3.1-5.3-6.7-7.7-9.3 6.2-1 10.1-4.8 10.1-11.1 0-5.9-5.5-10.9-12.1-11.5.1-.4.2-.7.3-1-.8-.7-1.8-1.1-2.8-1.1-1.4 0-1.2.9-1.3 1.5-.1.3-.2.6-.2.8-7.3 1.1-8.7 6.3-8.7 6.3.1.8 3 2.5 3.4 2.5.1 0 .2-.1.3-.2.6-2.1 2.2-3.9 4.2-4.9-1.6 8.6-4.3 26-5.2 34.5 1.1.7 2.3 1.2 3.5 1.3.8 0 1.4-1.3 1.6-3.1.2-1.6-.4-1.8-.3-2.8l1.6-11.1h.2c3.1 3.1 10.1 12.4 13.1 16.4 1-.3 1.9-.9 2.6-1.7.1-.1.1-.3.2-.4 1.3 2.4 3.8 4 6.6 4 3.2 0 5.5-2.1 7-4.8.4 1.8 1.2 3 2.7 3 .7 0 1.3-.3 1.8-.8 0-5 2.8-13.9 5-18.6h.6c-.7 3.4-1.2 6.9-1.4 10.5 0 4.3 1 8.1 4.7 8.1 2.7 0 4.6-2 5.5-4 1.1 2.8 3.3 4.5 5.7 4.5 3.4 0 8.4-4.1 8.4-7.7 0-3.2-1.9-2.7-1.9-2.7-.2 2.8-4.5 6.5-7.6 6.5-1.1 0-1.7-.8-1.7-2.2 0-8.1.6-8.4 3.4-19 2.6-.4 5.2-.7 7.8-.8.4.1.7-.2.8-.6v-.2c-.3-.6-.6-1.2-1.1-1.7-.3-.9-.8-.3-1.1-1.1zm-37.9 2.7c.3-.7.6-1 .8-1s.7.3.7 2.5c0 4.9-1.6 10.8-3.5 10.8-1.1 0-1.4-1.3-1.4-1.3.6-3.8 1.8-7.5 3.4-11zm-19.9-9.1c.3 0 .7-.1 1 0 4.4 0 7.5 2.7 7.5 6.9 0 6.8-4.8 9.7-11.1 9.5.8-6.1 1.8-12.2 2.6-16.4zm44.6 26.5c0 .5 0 1 .1 1.5-.5 1.5-1.5 3.6-3.1 3.6s-2.2-1.3-2.2-4c0-6.2 2.2-12.3 3-17.3.4.9 1.4 1.8 2.2 1.6l2.4-.5c-1.4 5.6-2.4 12-2.4 15.1zM183.8 354.5c-.4 3.2-1.1 6.6-3.9 6.6-1.8 0-2.2-1.6-2.2-4.1 0-4.2 1.3-9.7 2.9-15.6.3-1.2-1.7-1.3-2.2-1.4 0-.2 0-.4.1-.6 0-1.6-1.6-3.9-5.2-3.9-6.3 0-10.7 9.5-10.7 19 0 6.4 3 10.5 6.9 10.5 2.4-.2 4.6-1.6 5.6-3.9h.3c.3 1.9 1.8 3.4 3.8 3.5 4 0 6.2-6 6.2-8.8 0-.7-.6-1.4-1.3-1.4-.1.1-.2.1-.3.1zm-14.8 7c-1.4 0-1.9-1.3-1.9-4.5 0-5.5 2.4-18.1 6.2-18.1 1 0 1 1.3 1 1.7 0 1.9-.7 3.7-1.8 5.3.7.6 1.5 1 2.4 1.2.1 1.7-2.8 14.3-5.9 14.4zM228.1 358.3l-5.9-4.2-1.4-1c-.5.6-1 1.1-1.6 1.6-.6.6-1.3 1.1-2 1.5-.7.4-1.5.8-2.4 1-.9.2-1.9.3-2.8.3-1.3 0-2.7-.3-3.9-.8-1.1-.5-2.2-1.3-3-2.3-.9-1-1.6-2.2-2-3.4-.5-1.3-.7-2.8-.7-4.2v-.1c0-1.4.2-2.8.7-4.1.5-1.2 1.1-2.4 2-3.4.8-1 1.9-1.7 3-2.3 1.2-.6 2.5-.9 3.9-.8 1.8 0 3.5.4 5 1.3 1.3.8 2.5 1.9 3.5 3.1l1.7-1.3 5.7-4.4c-.8-1-1.6-2-2.6-2.9-.9-.8-1.8-1.5-2.9-2.1h-.1l-.6-.4c-1.4-.7-2.8-1.3-4.3-1.6-1.7-.4-3.5-.6-5.3-.6-2.7 0-5.5.5-8 1.5-2.3 1-4.5 2.4-6.3 4.2-3.7 3.7-5.7 8.7-5.7 13.9 0 5.2 2 10.3 5.7 14 1.8 1.8 3.9 3.1 6.2 4.1 2.4 1 5 1.5 7.6 1.5 1.9 0 3.8-.2 5.6-.6 1.6-.4 3.1-1 4.5-1.8l.4-.2.2-.1c1.1-.7 2.1-1.4 3-2.3 1-.9 2-2 2.8-3.1z"/><path class="st0" d="M262.5 361.4c-1.9-1.8-3.4-4-4.4-6.4-1.1-2.5-1.6-5.2-1.6-7.9v-.1c0-5.4 2.2-10.7 6.1-14.5l.5-.4.1-.1v-3.9h-10.6l-9.4 15.3-9.4-15.3H223v1.2l.4.2.3.2.5.3.3.2c.2.1.3.2.5.4.1.1.2.1.2.2.2.2.5.4.7.6 1.1 1 2.1 2.1 2.9 3.3l.2.3-6 4.6v14.1l6.3 4.5-.2.3c-.9 1.2-1.9 2.4-3 3.5-.2.2-.5.4-.7.6l-.2.2c-.2.1-.3.3-.5.4l-.3.2-.5.4-.4.2-.4.3v1.4h9.7v-23l10.3 15.7 10.4-15.9v23.1h9.8V362l-.1-.1c-.3-.2-.5-.3-.7-.5z"/><path class="st0" d="M296.5 339.2c-1-2.3-2.4-4.4-4.2-6.2-1.9-1.8-4-3.2-6.4-4.2-5.2-2-11-2-16.2 0-2.1.8-4 2-5.6 3.5l-.1.1-.2.2c-.1.1-.3.2-.4.4-3.7 3.6-5.8 8.6-5.8 13.9v.1c0 2.6.5 5.2 1.5 7.6 1 2.3 2.4 4.4 4.2 6.2h.1c.1.1.3.2.4.4l.2.2.1.1c1.6 1.4 3.5 2.6 5.5 3.4 5.2 2.1 11 2.1 16.2 0 2.4-1 4.6-2.4 6.5-4.2 3.7-3.6 5.8-8.6 5.8-13.8v-.1c-.1-2.6-.6-5.2-1.6-7.6zm-8.6 7.8c0 1.4-.2 2.8-.8 4.1-.5 1.3-1.2 2.4-2.1 3.4-.9 1-2 1.8-3.2 2.3-1.3.6-2.8.9-4.2.9-1.4 0-2.9-.3-4.2-.9-1.2-.6-2.3-1.4-3.2-2.4-.9-1-1.6-2.2-2.1-3.4-.5-1.3-.7-2.7-.7-4.1v-.1c0-1.4.2-2.8.7-4.1a9.9 9.9 0 0 1 5.3-5.7c2.7-1.2 5.7-1.2 8.4 0 2.5 1.2 4.4 3.2 5.4 5.8.5 1.3.8 2.7.8 4.1l-.1.1z"/></g></svg>