<?xml version="1.0" encoding="utf-8"?>
<!-- Generator: Adobe Illustrator 22.0.1, SVG Export Plug-In . SVG Version: 6.00 Build 0)  -->
<svg version="1.1" id="Layer_1" xmlns="http://www.w3.org/2000/svg" xmlns:xlink="http://www.w3.org/1999/xlink" x="0px" y="0px"
	 viewBox="0 0 857.3 664" style="enable-background:new 0 0 857.3 664;" xml:space="preserve">
<style type="text/css">
	.st0{fill:#F5F5F5;}
	.st1{fill:#808080;stroke:#000000;stroke-width:0.5;stroke-miterlimit:10;}
	.st2{fill:#C6C6C6;stroke:#000000;stroke-width:0.5;stroke-miterlimit:10;}
	.st3{fill:#A5A5A5;stroke:#000000;stroke-width:0.5;stroke-miterlimit:10;}
	.st4{fill:#D8D8D8;stroke:#000000;stroke-width:0.5;stroke-miterlimit:10;}
	.st5{fill:#F4F4F4;stroke:#000000;stroke-width:0.5;stroke-miterlimit:10;}
	.st6{fill:#CCCCCC;stroke:#000000;stroke-width:0.5;stroke-miterlimit:10;}
	.st7{fill:#E8E8E8;stroke:#000000;stroke-width:0.5;stroke-miterlimit:10;}
	.st8{fill:#FFFFFF;stroke:#000000;stroke-width:0.5;stroke-miterlimit:10;}
	.st9{fill:#D1D1D1;}
	.st10{fill:#C4C4C4;stroke:#000000;stroke-width:0.5;stroke-miterlimit:10;}
	.st11{fill:#0077BF;stroke:#000000;stroke-width:0.5;stroke-miterlimit:10;}
	.st12{fill:#0077BF;}
	.st13{fill:#C4C4C4;}
	.st14{fill:#F4F4F4;stroke:#000000;stroke-width:0.5;stroke-linejoin:round;}
	.st15{fill:none;stroke:#000000;stroke-width:0.5;stroke-miterlimit:10;}
	.st16{fill:#EB058C;stroke:#000000;stroke-width:0.5;stroke-miterlimit:10;}
	.st17{stroke:#000000;stroke-width:0.5;stroke-miterlimit:10;}
	.st18{fill:#FFFFFF;}
	.st19{fill:#FFE600;}
	.st20{fill:#BFBFBF;}
	.st21{fill:#D8D8D8;}
	.st22{fill:#CECECE;stroke:#000000;stroke-width:0.5;stroke-miterlimit:10;}
	.st23{clip-path:url(#SVGID_2_);}
</style>
<title>LM6</title>
<g>
	<g id="Layer_1_1_">
		<g id="Layer_6">
			<path class="st0" d="M316.6,599.8c0,0-130.9,83.3-251.3-40.4c0,0-160.1-173.7,28.4-397.6c0,0,75.2-116.6,268.4-153.1
				c68.7-13,205-10.1,304.7,62.2c0,0,116.6,84.6,159,209.1c28.2,82.8,85.5,338.6-115.4,380.6c0,0-104.1,14.1-155.2-72.2
				C555.2,588.4,485,449.6,316.6,599.8z"/>
		</g>
		<polygon class="st1" points="817.9,603.9 308.5,600.5 308.5,634 815.5,636.5 		"/>
		<polygon class="st2" points="817.9,603.9 691.7,558.8 216.4,558.8 308.5,600.5 		"/>
		<polygon class="st3" points="308.5,600.5 216.4,558.8 216.4,582.8 308.5,634 		"/>
		<path class="st2" d="M457.6,481.8v74.3c0,0-1.1,21.2,40.8,15.8v6.9c0,0-15.3-4.1-27.2-2.5c-12.5,1.7-68.1-1.7-74.1-13.7v-80.8
			H457.6z"/>
		<path class="st4" d="M399.9,481.8v74.3c0,0-1,21.2,40.8,15.8v6.9c0,0-37.1,9.7-50.1-16.2v-80.8H399.9z"/>
		<rect x="440.7" y="571.9" class="st5" width="57.7" height="6.9"/>
		<path class="st6" d="M261.1,531.8L568.9,519c7.5,0,13.6-6.1,13.6-13.6l0,0L596.2,305c-7.1-13.3-11.2-15.8-18.7-15.8l-316.1-7.8
			c-7.5,0-18,7.7-16.8,24.1L241.4,508C241.4,515.6,246.2,531.8,261.1,531.8z"/>
		<path class="st7" d="M265.9,531.8l319.1-1.6c7.5,0,13.6-6.1,13.6-13.6l0,0V303c0-7.5-6.1-13.6-13.6-13.6l0,0l-319.1-8
			c-7.5,0-13.6,6.1-13.6,13.6v0v223.1C252.2,525.7,258.3,531.8,265.9,531.8z"/>
		<polygon class="st8" points="580,511.5 281.2,512.5 281.2,299.9 580,307.9 		"/>
		<polygon class="st9" points="557.9,340 300.8,335 300.8,328.1 557.9,333.1 		"/>
		<polygon class="st9" points="557.9,361.3 300.8,356.3 300.8,349.3 557.9,354.3 		"/>
		<polygon class="st9" points="557.9,382.6 300.8,377.6 300.8,370.6 557.9,375.6 		"/>
		<polygon class="st9" points="557.9,403.8 300.8,398.8 300.8,391.9 557.9,396.9 		"/>
		<polygon class="st9" points="557.9,425.1 300.8,420.1 300.8,413.1 557.9,418.1 		"/>
		<polygon class="st9" points="557.9,446.4 300.8,441.4 300.8,434.4 557.9,439.4 		"/>
		<polygon class="st9" points="557.9,467.6 300.8,462.6 300.8,455.6 557.9,460.6 		"/>
		<polygon class="st9" points="557.9,488.9 300.8,483.9 300.8,476.9 557.9,481.9 		"/>
		<polygon class="st10" points="580,511.5 281.2,512.5 281.2,299.9 580,307.9 		"/>
		<path class="st8" d="M496.9,453.1l-130.8-2.6c-3.3-0.1-6-2.8-6-6.1v-76.8c0-3.4,2.7-6.1,6.1-6.1c0,0,0.1,0,0.1,0l130.8,2.6
			c3.3,0.1,6,2.8,6,6.1V447c0,3.4-2.7,6.1-6.1,6.1C497,453.1,496.9,453.1,496.9,453.1z"/>
		<polygon class="st11" points="503.1,377.1 360.1,374.3 360.1,366.3 503.1,369.1 		"/>
		<path class="st12" d="M393,393.7c-2.6-0.1-5.1-1.5-6.3-3.9c-1.3,2.3-3.7,3.7-6.3,3.6c-4-0.1-7.2-3.4-7.2-7.4h1.8
			c0,3,2.4,5.5,5.4,5.5c2.9,0.1,5.4-2.3,5.4-5.2c0,0,0-0.1,0-0.1h1.8c0,3,2.4,5.5,5.4,5.5c2.9,0.1,5.4-2.3,5.4-5.2c0,0,0-0.1,0-0.1
			h1.8c0.1,3.9-3,7.1-7,7.2C393.2,393.7,393.1,393.7,393,393.7z"/>
		<path class="st12" d="M405.7,393.9c-4-0.1-7.2-3.4-7.2-7.4h1.8c0,3,2.4,5.5,5.4,5.6c2.9,0.1,5.4-2.3,5.4-5.2c0,0,0-0.1,0-0.1h1.8
			c0,3.9-3.1,7.1-7,7.1C405.8,393.9,405.7,393.9,405.7,393.9z"/>
		<path class="st12" d="M418.4,394.2c-4-0.1-7.2-3.4-7.2-7.4h1.8c0,3,2.4,5.5,5.4,5.5c2.9,0.1,5.4-2.3,5.4-5.2c0,0,0-0.1,0-0.1h1.8
			c0.1,3.9-3.1,7.1-7,7.2C418.5,394.2,418.5,394.2,418.4,394.2z"/>
		<path class="st12" d="M431,394.4c-4-0.1-7.2-3.4-7.2-7.4h1.8c0,3,2.4,5.5,5.4,5.5c2.9,0.1,5.3-2.2,5.4-5.2c0-0.1,0-0.1,0-0.2h1.8
			c0,3.9-3.1,7.1-7,7.2C431.2,394.4,431.1,394.4,431,394.4z"/>
		<polygon class="st13" points="492.1,409.3 369.1,406.9 369.1,403.1 492.1,405.5 		"/>
		<polygon class="st13" points="477.5,417.5 369.1,415.4 369.1,411.6 477.5,413.7 		"/>
		<polygon class="st13" points="461.9,425.7 369.1,423.9 369.1,420.1 461.9,421.9 		"/>
		<polygon class="st13" points="461.9,435.7 369.1,433.9 369.1,430.1 461.9,431.9 		"/>
		<polygon class="st14" points="397.3,588.5 599.4,588.5 554.7,575.7 352.5,575.7 		"/>
		<rect x="397.3" y="588.5" class="st5" width="202.1" height="9.7"/>
		<polygon class="st4" points="397.3,598.2 352.5,583.5 352.5,575.7 397.3,588.5 		"/>
		<line class="st15" x1="550" y1="579.1" x2="376.8" y2="579.1"/>
		<line class="st15" x1="563.1" y1="582.1" x2="390" y2="582.1"/>
		<line class="st15" x1="576.3" y1="585" x2="403.2" y2="585"/>
		<path class="st15" d="M389.8,579.1c0.7,0,26.2,5.8,26.2,5.8"/>
		<path class="st15" d="M404.4,579.1c0.7,0,26.2,5.8,26.2,5.8"/>
		<path class="st15" d="M419,579.1c0.7,0,26.2,5.8,26.2,5.8"/>
		<path class="st15" d="M433.6,579.1c0.7,0,26.2,5.8,26.2,5.8"/>
		<path class="st15" d="M448.2,579.1c0.7,0,26.2,5.8,26.2,5.8"/>
		<path class="st15" d="M462.8,579.1c0.7,0,26.2,5.8,26.2,5.8"/>
		<path class="st15" d="M477.4,579.1c0.7,0,26.2,5.8,26.2,5.8"/>
		<path class="st15" d="M492,579.1c0.7,0,26.2,5.8,26.2,5.8"/>
		<path class="st15" d="M506.6,579.1c0.7,0,26.2,5.8,26.2,5.8"/>
		<path class="st15" d="M521.2,579.1c0.7,0,26.2,5.8,26.2,5.8"/>
		<path class="st15" d="M535.8,579.1c0.7,0,26.2,5.8,26.2,5.8"/>
		<path class="st8" d="M509.5,514l-16,64l-56.3,0.4c0,0-24-20.6-33.4-14.2s-9.2,10.3-9.2,10.3s23.7,4.1,24.1,9.5s10.3,6.7,13.7,7
			c2.8,0.3,55.4,12.9,74.3,17.4c3.9,0.9,7.8-1.2,9.2-4.9l33.2-87.5L509.5,514z"/>
		<path class="st8" d="M742,508.7l24,73.6c1.8,5.5-1.2,11.4-6.7,13.1c-1.5,0.5-3.1,0.6-4.7,0.4l-98.1-14l-2.4-12.6l71.9-6
			l-17.9-52.5L742,508.7z"/>
		<path class="st8" d="M610.1,396.9l29.7,53.6l-58,3.8c0,0,11.5-38.6-14.4-47.8C560.4,404,610.1,396.9,610.1,396.9z"/>
		<path class="st16" d="M554.8,515.3l-15.5,43.2l-46.6-19.3l22.4-56.9c16.8-38,45.9-54.2,66.9-53.3s21.3,2.5,32.3-3.9
			s44-1.5,71.8,8.2s77.6,92.1,77.6,92.1l-53.3,8.5l-20.6-42.3l53.9,144.9l-185.1-1.6L554.8,515.3z"/>
		<path class="st8" d="M521.3,298.2c0,0-7.2,46.1-1.6,60.2c5.6,14.1,5.8,20.8,6.1,22.1s30.3,54.9,62.6,22
			C625,365.4,561.3,276.6,521.3,298.2z"/>
		<path class="st17" d="M633.1,327.5c-2.6-30.9-13.6-42.9-40.5-42.1c0,0-44.5-25.8-69.5,9.9c0,0-8.3,10.9-16.5,10.9
			c0,0,1.3,33.8,28.5,49.3c0,0,12.2-8.8,14.9,2.9s-5.1,17.6-5.1,17.6s9.7,12.5,20.5,20.9c11.4,8.8,19.7,14,26,16.3
			c0,0,4.6-22.1,24-6.7C615.4,406.5,634.7,346.4,633.1,327.5z"/>
		<path class="st8" d="M501.2,248.6h8.3l0.3,31.3l31.4-31.3h102.5c8.1,0,14.7-6.6,14.7-14.7V86.3c0-8.1-6.6-14.7-14.7-14.7H501.2
			c-8.1,0-14.7,6.6-14.7,14.7v147.6C486.5,242,493.1,248.6,501.2,248.6z"/>
		<path class="st8" d="M456.7,257.8h-8.4l-0.3,31.3l-31.4-31.3H314.1c-8.1,0-14.7-6.6-14.7-14.7V66c0-8.1,6.6-14.7,14.7-14.7h142.6
			c8.1,0,14.6,6.6,14.6,14.7v177.1C471.3,251.2,464.8,257.8,456.7,257.8z"/>
		<path class="st8" d="M326.1,70.8H447c2.6,0,4.8,2.1,4.8,4.8v157.9c0,2.6-2.1,4.8-4.8,4.8H326.1c-2.6,0-4.8-2.1-4.8-4.8V75.6
			C321.3,73,323.5,70.8,326.1,70.8z"/>
		<path class="st11" d="M326.1,70.8h120.9c2.6,0,4.8,2.1,4.8,4.8l0,0v6l0,0H321.3l0,0v-6C321.3,73,323.5,70.8,326.1,70.8z"/>
		<rect x="341.4" y="173.6" class="st13" width="88.4" height="5.9"/>
		<rect x="341.4" y="185.2" class="st13" width="88.4" height="5.9"/>
		<rect x="341.4" y="196.8" class="st13" width="88.4" height="5.9"/>
		<circle class="st8" cx="330" cy="76.2" r="3"/>
		<circle class="st8" cx="338.3" cy="76.2" r="3"/>
		<circle class="st8" cx="346.6" cy="76.2" r="3"/>
		<rect x="364.5" y="215" class="st16" width="43.7" height="9.7"/>
		<path class="st18" d="M383.5,221.6c-1.2,0-2.4-0.7-3-1.8c-0.9,1.7-3,2.3-4.7,1.3c-1.1-0.6-1.8-1.8-1.8-3h0.9
			c0,1.4,1.2,2.6,2.6,2.6c1.4,0,2.6-1.2,2.6-2.6c0,0,0,0,0,0h0.9c0,1.4,1.2,2.6,2.6,2.6c1.4,0,2.6-1.2,2.6-2.6c0,0,0,0,0,0h0.9
			C387,220,385.4,221.6,383.5,221.6C383.5,221.6,383.5,221.6,383.5,221.6z"/>
		<path class="st18" d="M389.5,221.6c-1.9,0-3.5-1.6-3.5-3.5h0.9c-0.1,1.4,1,2.7,2.4,2.8c1.4,0.1,2.7-1,2.8-2.4c0-0.1,0-0.2,0-0.3
			h0.9C393,220,391.5,221.6,389.5,221.6z"/>
		<path class="st18" d="M395.6,221.6c-1.9,0-3.5-1.6-3.5-3.5h0.9c0,1.4,1.2,2.6,2.6,2.6c1.4,0,2.6-1.2,2.6-2.6c0,0,0,0,0,0h0.9
			C399.1,220,397.5,221.6,395.6,221.6z"/>
		<path class="st12" d="M374.2,165.1c-2.5,0-4.7-1.3-5.9-3.5c-1.8,3.3-6,4.4-9.2,2.6c-2.1-1.2-3.5-3.5-3.5-5.9h1.7
			c0,2.8,2.3,5.1,5.1,5.1s5.1-2.3,5.1-5.1h1.7c0,2.8,2.3,5.1,5.1,5.1s5.1-2.3,5.1-5.1h1.7C381,162,378,165.1,374.2,165.1z"/>
		<path class="st12" d="M386.1,165.1c-3.7,0-6.8-3-6.8-6.8h1.7c0,2.8,2.3,5.1,5.1,5.1s5.1-2.3,5.1-5.1h1.7
			C392.9,162,389.8,165.1,386.1,165.1z"/>
		<path class="st12" d="M397.9,165.1c-3.7,0-6.8-3-6.8-6.8h1.7c0.1,2.8,2.5,5,5.3,4.8c2.6-0.1,4.7-2.2,4.8-4.8h1.7
			C404.7,162,401.7,165,397.9,165.1z"/>
		<path class="st12" d="M409.8,165.1c-3.7,0-6.8-3-6.8-6.8h1.7c0,2.8,2.3,5.1,5.1,5.1s5.1-2.3,5.1-5.1h1.7
			C416.5,162,413.5,165,409.8,165.1z"/>
		<circle class="st12" cx="385.6" cy="120.9" r="25.2"/>
		<rect x="356.9" y="103" class="st8" width="59.7" height="34.6"/>
		<rect x="356.9" y="103" class="st16" width="59.7" height="6.7"/>
		<circle class="st12" cx="389.8" cy="119.3" r="5.5"/>
		<circle class="st12" cx="404.1" cy="127.6" r="5.5"/>
		<rect x="363.7" y="113.8" class="st19" width="10.5" height="19.3"/>
		<path class="st8" d="M266,299.2h-8.4l-0.3,31.3L226,299.2H123.5c-8.1,0-14.7-6.6-14.7-14.7V131c0-8.1,6.6-14.7,14.7-14.7H266
			c8.1,0,14.7,6.6,14.7,14.7v153.5C280.7,292.6,274.2,299.1,266,299.2z"/>
		<path class="st8" d="M147.5,138.1h96.8c2.6,0,4.8,2.1,4.8,4.8v127c0,2.6-2.1,4.8-4.8,4.8h-96.8c-2.6,0-4.8-2.1-4.8-4.8v-127
			C142.8,140.3,144.9,138.1,147.5,138.1z"/>
		<path class="st11" d="M147.5,138.1h96.8c2.6,0,4.8,2.1,4.8,4.8c0,0,0,0,0,0v4l0,0H142.8l0,0v-4
			C142.8,140.3,144.9,138.1,147.5,138.1L147.5,138.1z"/>
		<rect x="159.2" y="230.2" class="st13" width="72.1" height="4.8"/>
		<rect x="159.2" y="239.6" class="st13" width="72.1" height="4.8"/>
		<circle class="st8" cx="149.9" cy="142.5" r="2.4"/>
		<circle class="st8" cx="156.6" cy="142.5" r="2.4"/>
		<circle class="st8" cx="163.4" cy="142.5" r="2.4"/>
		<rect x="178" y="255.7" class="st16" width="35.7" height="7.9"/>
		<path class="st18" d="M193.5,261.1c-1,0-2-0.6-2.5-1.5c-0.8,1.4-2.5,1.9-3.9,1.1c-0.9-0.5-1.4-1.4-1.4-2.5h0.7
			c0,1.2,0.9,2.1,2.1,2.1s2.1-0.9,2.1-2.1h0.7c0,1.2,0.9,2.1,2.1,2.1s2.1-0.9,2.1-2.1h0.7C196.3,259.8,195,261.1,193.5,261.1z"/>
		<path class="st18" d="M198.4,261.1c-1.6,0-2.8-1.3-2.8-2.8h0.7c0,1.2,0.9,2.1,2.1,2.1s2.1-0.9,2.1-2.1h0.7
			C201.2,259.8,200,261.1,198.4,261.1z"/>
		<path class="st18" d="M203.3,261.1c-1.6,0-2.8-1.3-2.8-2.8h0.7c0,1.2,0.9,2.1,2.1,2.1c1.2,0,2.1-0.9,2.1-2.1c0,0,0,0,0,0h0.7
			C206.2,259.8,204.9,261.1,203.3,261.1z"/>
		<path class="st16" d="M218,212h-45.7c-2.2,0-3.9-1.7-3.9-3.9c0,0,0,0,0,0v-30.6l26.7-18.3l26.7,18.3v30.6
			C222,210.3,220.2,212,218,212C218.1,212,218.1,212,218,212z"/>
		<rect x="171.8" y="166.4" class="st8" width="46.4" height="43.2"/>
		<rect x="175.7" y="171.5" class="st20" width="38.9" height="1.7"/>
		<rect x="175.7" y="175.2" class="st20" width="38.9" height="1.7"/>
		<rect x="175.7" y="179" class="st20" width="38.9" height="1.7"/>
		<rect x="175.7" y="182.7" class="st20" width="38.9" height="1.7"/>
		<rect x="175.7" y="186.5" class="st20" width="38.9" height="1.7"/>
		<rect x="175.7" y="190.3" class="st20" width="38.9" height="1.7"/>
		<path class="st16" d="M218,212h-45.7c-2.2,0-3.9-1.7-3.9-3.9c0,0,0,0,0,0v-30.3l26.7,18.5l26.7-18.5v30.3
			C222,210.3,220.2,212,218,212C218.1,212,218.1,212,218,212z"/>
		<path class="st8" d="M508.8,87.4h127.4c2.6,0,4.8,2.1,4.8,4.8v132.2c0,2.6-2.1,4.8-4.8,4.8H508.8c-2.6,0-4.8-2.1-4.8-4.8V92.1
			C504,89.5,506.1,87.4,508.8,87.4z"/>
		<path class="st21" d="M641,172.1v51.3c0,3.1-2.5,5.6-5.6,5.6H509.7c-3.1,0-5.6-2.5-5.6-5.6v-51.3H641z"/>
		<path class="st11" d="M508.8,87.4h127.4c2.6,0,4.8,2.1,4.8,4.8l0,0v6.5l0,0H504l0,0v-6.5C504,89.5,506.1,87.4,508.8,87.4
			C508.7,87.4,508.8,87.4,508.8,87.4z"/>
		<path class="st15" d="M508.8,87.4h127.4c2.6,0,4.8,2.1,4.8,4.8v132.2c0,2.6-2.1,4.8-4.8,4.8H508.8c-2.6,0-4.8-2.1-4.8-4.8V92.1
			C504,89.5,506.1,87.4,508.8,87.4z"/>
		<circle class="st8" cx="512.7" cy="93" r="3.1"/>
		<circle class="st8" cx="521.4" cy="93" r="3.1"/>
		<circle class="st8" cx="530.1" cy="93" r="3.1"/>
		<rect x="591.6" y="212.2" class="st16" width="38.5" height="8.6"/>
		<path class="st18" d="M608.3,218c-0.8-1.5-2.6-2-4-1.3c-0.5,0.3-1,0.7-1.3,1.3c-1.7,0-3-1.4-3-3h0.7c-0.1,1.3,0.9,2.3,2.1,2.4
			c1.3,0.1,2.3-0.9,2.4-2.1c0-0.1,0-0.2,0-0.3h0.8c0,1.3,1,2.3,2.3,2.3c1.3,0,2.3-1,2.3-2.3c0,0,0,0,0,0h0.8
			C611.3,216.6,610,218,608.3,218z"/>
		<path class="st18" d="M613.7,218c-1.7,0-3-1.4-3-3h0.8c0,1.3,1,2.3,2.3,2.3c1.3,0,2.3-1,2.3-2.3c0,0,0,0,0,0h0.7
			C616.7,216.6,615.4,218,613.7,218C613.7,218,613.7,218,613.7,218z"/>
		<path class="st18" d="M618.9,218c-1.7,0-3-1.3-3-3c0,0,0,0,0-0.1h0.7c0,1.3,1,2.3,2.3,2.3c1.3,0,2.3-1,2.3-2.3c0,0,0,0,0,0h0.8
			C622,216.6,620.6,218,618.9,218z"/>
		<path class="st18" d="M559.1,185.2c-2.6,0-5-1.4-6.2-3.7c-1.9,3.4-6.2,4.7-9.7,2.8c-2.3-1.3-3.7-3.6-3.7-6.2h1.8
			c-0.1,2.9,2.2,5.4,5.1,5.6s5.4-2.2,5.6-5.1c0-0.2,0-0.3,0-0.5h1.8c-0.1,2.9,2.2,5.4,5.1,5.6s5.4-2.2,5.6-5.1c0-0.2,0-0.3,0-0.5
			h1.8C566.2,182,563.1,185.2,559.1,185.2z"/>
		<path class="st18" d="M571.6,185.2c-3.9,0-7.1-3.2-7.1-7.1h1.8c-0.1,2.9,2.2,5.4,5.1,5.6s5.4-2.2,5.6-5.1c0-0.2,0-0.3,0-0.5h1.8
			C578.7,182,575.5,185.2,571.6,185.2z"/>
		<path class="st18" d="M584,185.2c-3.9,0-7.1-3.2-7.1-7.1h1.8c-0.1,2.9,2.2,5.4,5.1,5.6s5.4-2.2,5.6-5.1c0-0.2,0-0.3,0-0.5h1.8
			C591.1,182,587.9,185.2,584,185.2z"/>
		<path class="st18" d="M596.5,185.2c-3.9,0-7.1-3.2-7.1-7.1h1.8c-0.1,2.9,2.2,5.4,5.1,5.6s5.4-2.2,5.6-5.1c0-0.2,0-0.3,0-0.5h1.8
			C603.6,182,600.4,185.2,596.5,185.2z"/>
		<rect x="517.1" y="190.4" class="st18" width="111.8" height="3.2"/>
		<rect x="517.1" y="197.1" class="st18" width="111.8" height="3.2"/>
		<rect x="517.1" y="203.9" class="st18" width="74.5" height="3.2"/>
		<rect x="527" y="108.4" class="st22" width="92" height="55.7"/>
		<g>
			<defs>
				<rect id="SVGID_1_" x="527" y="108.4" width="92" height="55.7"/>
			</defs>
			<clipPath id="SVGID_2_">
				<use xlink:href="#SVGID_1_"  style="overflow:visible;"/>
			</clipPath>
			<g class="st23">
				<path class="st11" d="M550.2,169.1c0-17.4,10.2-36.2,22.8-36.2s22.8,18.9,22.8,36.2H550.2z"/>
				<circle class="st11" cx="572.4" cy="124.3" r="12.7"/>
			</g>
		</g>
		<rect x="527" y="108.4" class="st15" width="92" height="55.7"/>
		<path class="st18" d="M571.8,156.3c-11.1,0-20.1-9-20.1-20.1c0-11.1,9-20.1,20.1-20.1c11.1,0,20.1,9,20.1,20.1
			C591.8,147.3,582.8,156.3,571.8,156.3z M571.8,120.5c-8.7,0-15.8,7.1-15.8,15.8s7.1,15.8,15.8,15.8c8.7,0,15.8-7.1,15.8-15.8l0,0
			C587.5,127.5,580.5,120.5,571.8,120.5z"/>
		<polygon class="st18" points="584.1,136.7 566.2,126.4 566.2,147.1 		"/>
	</g>
</g>
</svg>
