<svg version="1.1" id="Layer_1" xmlns="http://www.w3.org/2000/svg" x="0" y="0" viewBox="0 0 892.6 836.7" xml:space="preserve"><style>.st1{fill:#bcbcbc}.st3{fill:#0077bf;stroke:#000;stroke-width:.5;stroke-miterlimit:10}.st4{enable-background:new}.st5{fill:#fff}.st6,.st7{stroke:#000;stroke-width:.5}.st6{stroke-miterlimit:10;fill:#eb058c}.st7{fill:#ffe600}.st10,.st7,.st9{stroke-miterlimit:10}.st9{stroke:#000;stroke-width:.5;fill:#d8d8d8}.st10{fill:#fff}.st10,.st12,.st13{stroke:#000;stroke-width:.5}.st12{stroke-miterlimit:10;fill:none}.st13{fill:#fff;stroke-linejoin:round}</style><path d="M540.4 202.8S561.5 14.7 351.1 13.4c0 0-247.4-29.9-323.2 268.1 0 0-43.8 131.4 34 322.6 0 0 80.9 151.8 222.3 192.7 0 0 243.6 74.2 442.7-31 0 0 240.8-118.2 113.9-297.8 0 0-57.8-64.4-163.2-54.9-.1.1-162.2 25.4-137.2-210.3z" fill="#f5f5f5" id="Layer_7"/><ellipse class="st1" cx="567" cy="741.4" rx="73.8" ry="11.1"/><ellipse class="st1" cx="422.6" cy="723.8" rx="69" ry="11.1"/><ellipse class="st1" cx="263" cy="679.7" rx="65.1" ry="9.8"/><ellipse class="st1" cx="258.5" cy="642.1" rx="83.8" ry="12.6"/><ellipse transform="scale(.99998) rotate(-84.7 736.555 752.913)" class="st1" cx="736.5" cy="752.9" rx="11.1" ry="73.8"/><path fill="#f7f7f7" stroke="#000" stroke-width=".5" stroke-miterlimit="10" d="M196.5 130.9h125.7v514H196.5z"/><path class="st3" d="M212.3 195.1h92.9c4.4 0 7.9 3.5 7.9 7.9v45.2c0 4.4-3.5 7.9-7.9 7.9h-92.9c-4.4 0-7.9-3.5-7.9-7.9V203c0-4.3 3.6-7.9 7.9-7.9z"/><g class="st4"><path d="M214.5 147.9v15.7c0 4.8 1.9 7 6.7 7 5 0 6.7-2.4 6.7-7v-15.7h3.3v14.8c0 7-2.5 10.6-10 10.6-7.2 0-10-3.4-10-10.3v-15.2h3.3zM246.5 160.1c-.2-2.4-1.9-3.3-4.4-3.3-2.3 0-3.7.9-3.7 2.5 0 2 2.3 2.3 4.8 2.9 3 .7 7 1.6 7 5.5 0 3.5-3 5.8-7.5 5.8-4.9 0-7.6-2.2-7.8-6.3h2.9c.2 2.7 2 3.8 4.9 3.8 2.7 0 4.4-1.2 4.4-3 0-2-2-2.4-4.6-3-3.1-.8-7.3-1.2-7.3-5.3 0-3.3 2.7-5.3 6.9-5.3 4.1 0 7.2 2 7.2 5.8h-2.8zM269.6 172.8c-.6.2-1.4.4-2 .4-1.7 0-2.6-.9-2.6-2.7-1.8 2-3.7 2.9-6.5 2.9-3.6 0-5.8-2-5.8-5.1 0-3.2 2.1-5.1 6.4-5.6 4.3-.5 5.8-.4 5.8-2.9 0-1.9-1.4-3-4.1-3-2.8 0-4.2 1-4.5 3.7h-2.9c.1-3.8 2.9-6.1 7.6-6.1 2.4 0 4.5.6 5.7 1.8 1.3 1.2 1.2 3.1 1.2 4.7 0 2.7-.1 5.4-.1 8.1 0 1.3.3 1.8 1.2 1.8.3 0 .4 0 .7-.1v2.1zm-8.8-8.2c-2.2.3-5.1.5-5.1 3.4 0 1.9 1.4 3 3.6 3 2.8 0 5.5-1.9 5.5-4.2v-3.3c-1.1.8-2.6.9-4 1.1zM288.1 170.9c0 3.1-.3 4.5-1.2 6-1.3 2.1-3.8 3.3-7.1 3.3-3.6 0-7.1-1.3-7.6-5.3h3c.4 2.1 1.9 3 4.7 3 3.7 0 5.3-1.8 5.3-5.9v-2.2c-1.2 2.3-3 3.3-5.7 3.3-4.8 0-7.9-3.6-7.9-9.2 0-4.9 2.7-9.6 8.1-9.6 2.5 0 4.6 1.1 5.7 3.1v-2.6h2.7v16.1zm-13.5-7c0 4 2.1 6.6 5.3 6.6 3.3 0 5.3-2.7 5.3-7.1 0-4.1-2-6.5-5.4-6.5-3.3 0-5.2 2.7-5.2 7zM300.1 173.5c-5.3 0-8.5-3.5-8.5-9.4 0-5.8 3.4-9.8 8.4-9.8 6 0 8.2 4.7 8.2 9.9v.4h-13.6v.2c0 3.9 2.1 6.2 5.6 6.2 2.6 0 4-1.1 4.9-3.9h2.9c-1 4.2-3.7 6.4-7.9 6.4zm-.2-16.8c-2.9 0-4.9 2.1-5.3 5.5h10.5c-.3-3.4-2.2-5.5-5.2-5.5z"/></g><g class="st4"><path class="st5" d="M266 237.6h-16.6c.3-5.8 3.2-7.9 7.6-10.7 2.7-1.7 6.1-3.6 6.1-7.3 0-2.8-2-4.8-4.9-4.8-3.8 0-4.9 3.2-5 6.4h-3.1v-.7c0-5 3.3-8.4 8.2-8.4 4.8 0 7.9 2.9 7.9 7.4 0 5-3.9 7.3-7.6 9.6-2.3 1.4-5 2.8-5.7 5.7H266v2.8zM286.6 215.2c-4.9 5.6-8.7 12.7-9.7 22.3h-3.4c.6-8.1 4.6-16.1 10-22.1h-13.3v-2.9h16.4v2.7zM305.3 215.3H295l-1.5 7.6c1.4-1.5 3-2 5.1-2 4.8 0 8 3.4 8 8.3 0 5.1-3.5 8.9-8.8 8.9-4.8 0-8.1-2.9-8.2-7.4h3.1c.3 2.8 2.3 4.8 5.2 4.8 3.2 0 5.5-2.6 5.5-6 0-3.5-2.3-6-5.6-6-2.1 0-3.7.8-4.9 2.5l-2.6-.2 2.4-13.2h12.6v2.7z"/></g><path class="st6" d="M221.9 286.6h74.9v8.6h-74.9zM221.9 319.3h74.9v8.6h-74.9zM221.9 352h74.9v8.6h-74.9zM221.9 384.7h74.9v8.6h-74.9zM221.9 417.4h74.9v8.6h-74.9zM221.9 450.1h74.9v8.6h-74.9zM221.9 482.8h74.9v8.6h-74.9zM221.9 515.5h74.9v8.6h-74.9zM221.9 548.2h74.9v8.6h-74.9z"/><path class="st7" d="M235.7 203.2c.2 3-2 5.6-5 5.9-3 .2-5.6-2-5.9-5-.2-3 2-5.6 5-5.9h.4c3-.1 5.4 2.1 5.5 5zM232.2 209.7c-1.4-.3-2.8-.2-4.1.1-9 1-11.9 10.5-11.1 17.8.4 3.2 5.8 3.2 5.4 0-.3-2.6-.2-6.7 1.4-9.5v11c0 8.3 0 12.8-.4 21.1-.2 3.7 6 3.6 6.2 0 .3-6.5.4-9.3.4-15.7h.9c0 6.5.1 9.3.4 15.7.2 3.6 6.4 3.7 6.2 0-.4-8.2-.4-12.8-.4-21.1 0-.2 0-.5-.1-.7 0-3.6-.2-7.2-.1-10.8 1.9 2.9 2 7.2 1.7 10.1-.4 3.2 5 3.1 5.4 0 .8-7.6-2.3-17.4-11.8-18z"/><path class="st3" d="M340.7 75c-1.5 2.8-4.9 3.8-7.7 2.3s-3.8-4.9-2.3-7.7 4.9-3.8 7.7-2.3c.1.1.3.2.4.3 2.6 1.5 3.5 4.9 1.9 7.4zM334 78.7c-1.1-1-2.3-1.8-3.6-2.3-8.4-4.3-16.4 2.4-19.8 9.2-1.5 3 3.2 6.1 4.7 3.1 1.2-2.5 3.6-5.9 6.6-7.5l-5.9 9.1-.2.3-.1.1c-4.7 7.2-7.3 11.2-12.3 18.2-2.2 3.1 3.2 6.6 5.4 3.5 3.9-5.5 5.6-7.9 9.3-13.5.2.2.5.3.8.5-3.7 5.6-5.2 8.1-8.6 13.9-1.9 3.3 3.5 6.8 5.4 3.5 4.4-7.4 7-11.4 11.6-18.6.1-.2.2-.4.3-.7 2-3.1 3.9-6.3 6-9.4 0 3.6-2.4 7.5-4.2 9.8-2.1 2.6 2.6 5.6 4.7 3.1 4.9-6.1 7.8-16.4-.1-22.3zM185.5 74c2 1.7 2.2 4.7.4 6.7-1.7 2-4.7 2.2-6.7.4-2-1.7-2.2-4.7-.4-6.7l.3-.3c1.7-1.8 4.6-1.9 6.4-.1zM187.2 80.2c-1 .7-1.9 1.5-2.6 2.5-5.1 6-1.2 13.8 3.8 17.9 2.1 1.8 5.6-1.5 3.4-3.3-1.8-1.5-4.1-4.1-4.9-6.8l6.3 6.5.2.2.1.1c5 5.2 7.7 8.1 12.4 13.5 2.1 2.4 6-1.3 3.9-3.7-3.7-4.2-5.4-6-9.2-10.1.2-.2.4-.3.6-.5 3.9 4.1 5.6 5.8 9.7 9.7 2.3 2.2 6.2-1.5 3.9-3.7-5.2-5-8-7.8-12.9-13-.1-.1-.3-.3-.5-.4-2.2-2.2-4.4-4.4-6.6-6.7 2.9.7 5.6 3.3 7.1 5.3 1.7 2.2 5.1-1.1 3.4-3.3-4-5.1-11.8-9.5-18.1-4.2z"/><path class="st7" d="M261.9 40.2c.6 3.4-1.7 6.6-5.1 7.2-3.4.6-6.6-1.7-7.2-5.1s1.7-6.6 5.1-7.2c.2 0 .4-.1.5-.1 3.3-.4 6.3 1.9 6.7 5.2zM258.5 48c-1.6-.2-3.2 0-4.7.4-10.2 1.9-12.6 13.1-11 21.3.7 3.6 6.9 3.1 6.2-.5-.6-3-.8-7.6.7-11l1 11.8V70.6c.8 9.4 1.2 14.6 1.5 24 .1 4.2 7.2 3.6 7-.6-.3-7.4-.5-10.6-1-17.9.3 0 .7 0 1-.1.6 7.4 1 10.5 1.9 17.8.5 4.1 7.6 3.6 7-.6-1.2-9.3-1.6-14.6-2.4-23.9 0-.3-.1-.5-.2-.8-.4-4.1-.9-8.1-1.1-12.2 2.4 3.1 3 8 2.9 11.3-.1 3.7 6 3.1 6.2-.5.2-8.5-4.2-19.4-15-19.1z"/><path fill="#bcbcbc" stroke="#000" stroke-width=".5" stroke-miterlimit="10" d="M227.3 603.1h65v78.1h-65z"/><path class="st3" d="M219.3 571.9h78.3c3.2 0 5.9 2.6 5.9 5.9v21.1c0 3.2-2.6 5.9-5.9 5.9h-78.3c-3.2 0-5.9-2.6-5.9-5.9v-21.1c0-3.2 2.7-5.9 5.9-5.9z"/><path class="st9" d="M297.2 682.3h-75.8c-1.5-.1-2.6-1.3-2.6-2.8v-11.9c-.1-1.5 1.1-2.8 2.6-2.8h75.8c1.5.1 2.6 1.3 2.6 2.8v11.9c.1 1.5-1.1 2.8-2.6 2.8z"/><path class="st10" d="M332.6 567.6s-2.8 9.3 11 5c.6-2.4 0-4.9-1.5-6.9l-9.5 1.9z"/><path transform="rotate(-76.898 307.238 560.505)" class="st9" d="M304.9 514.4h4.7v92.2h-4.7z"/><path d="M234.7 555.8l5.4-23.3c1.5-6.3 7.8-10.3 14.1-8.8l3.4.8c6.3 1.5 10.3 7.8 8.8 14.1l-5.4 23.3c-1.5 6.3-7.8 10.3-14.1 8.8l-3.4-.8c-6.4-1.4-10.3-7.8-8.8-14.1z" fill="#7c7c7c" stroke="#000" stroke-width=".5" stroke-miterlimit="10"/><path class="st7" d="M232.2 526.4l-60.1-38.2 17.1-25.7 45.2 60.5zM248.2 512.6l2.8-57.7 18.2 6.5-15.7 51.2zM277.3 529.5c.4-.8 46.8-36.6 46.8-36.6l8.2 22.3-53.8 17-1.2-2.7zM224.9 535c-7.5-1-42.1-6.1-42.1-6.1l1.2 16 40.9-6.6V535z"/><path class="st10" d="M312.2 564.1s8 .9 10.1-2.5c0 0 7.8-7.8 7.8 9.9 0 0-13.8-.2-17.9-7.4zM337 562.7s-5.7 4.5-.5 8.8c0 0 3.5 0 2-4.4 0 0 1.8-2.2 3.5-1.4.1 0-.9-4.3-5-3z"/><path class="st12" d="M343.6 572.6l11.6 21.7 21.7-10.8"/><path class="st6" d="M454.9 507.2s-1.2 42.2 6.9 57.1c0 0-63.8 38-87 80.3 0 0-37.4-39.4-17.9-99.6.1 0 10.2-37 98-37.8z"/><g class="st4"><path d="M308.6 457.7c3.1-2.3 6.9-3.1 9.4.3 1.3 1.8 1.4 4.2.2 6 2.7-1.2 5.2-.4 7 2.1 3.1 4.3.3 7.9-3.2 10.5l-7.7 5.6-13.6-18.7 7.9-5.8zm.3 12l4.4-3.2c2.1-1.5 4.5-3.5 2.5-6.3-2.1-2.8-4.3-1.4-6.5.3l-4.7 3.4 4.3 5.8zm6.3 8.7l4.9-3.6c2.5-1.8 4.8-3.8 2.4-7-2.4-3.3-5.2-1.1-7.7.7l-4.5 3.3 4.9 6.6zM343.9 460.6c-.3.5-.8 1-1.3 1.4-1.3.9-2.5.7-3.4-.6-.2 2.5-1.2 4.2-3.3 5.7-2.7 2-5.4 1.7-7.1-.7-1.8-2.4-1.2-5 1.7-7.7 2.9-2.8 4.1-3.5 2.8-5.3-1.1-1.4-2.7-1.5-4.7 0-2.1 1.5-2.6 3.1-1.4 5.2l-2.2 1.6c-2-2.9-1.2-6.2 2.3-8.7 1.8-1.3 3.7-2 5.2-1.8 1.6.2 2.6 1.6 3.5 2.9 1.5 2 2.8 4.1 4.3 6.1.7 1 1.2 1.2 1.9.7l.5-.5 1.2 1.7zm-11.1-1.4c-1.5 1.4-3.6 3.2-2 5.4 1 1.4 2.7 1.5 4.4.3 2.1-1.5 3.1-4.5 1.8-6.2l-1.8-2.5c-.4 1.2-1.5 2.1-2.4 3zM339.7 445.9c0-2.4.7-4.1 2.7-5.5 1.8-1.3 3.6-1.5 5.5-.4 0-2.4.7-4.2 2.8-5.6 2.9-2.1 5.5-1.4 7.5 1.3l6.9 9.5-2.2 1.6-6.2-8.5c-1.4-1.9-2.8-3.2-5.2-1.4-2.6 1.9-2.2 4.3-.4 6.8l5.6 7.7-2.2 1.6-6.3-8.7c-1.3-1.8-2.7-3-4.8-1.4-3 2.2-2.1 4.9-.2 7.4l5.2 7.2-2.2 1.6-9.9-13.6 2.1-1.5 1.3 1.9zM362 427.6l5.4 8.8-1.2.9-6.7-7.9-4.2-5.7 2.5-1.8 4.2 5.7zm9.6 12.9l-2.8 2-1.9-2.7 2.8-2 1.9 2.7zM368.8 422.6l5.4 8.8-1.2.9-6.7-7.9-4.2-5.7 2.5-1.8 4.2 5.7zm9.6 12.9l-2.8 2-1.9-2.7 2.8-2 1.9 2.7zM375.6 417.7l5.4 8.8-1.2.9-6.7-7.9-4.2-5.7 2.5-1.8 4.2 5.7zm9.6 12.9l-2.8 2-1.9-2.7 2.8-2 1.9 2.7z"/></g><path class="st12" d="M405.6 597.5l4.8 33.6 29.2-16.3"/><path class="st13" d="M439.6 614.3s-10.4 14.3-2.9 19.5c3.7 2.6 4.9-1.7 5-7.8.1-3.8.6-8.2-2.1-11.7z"/><path class="st12" d="M432.5 576.3L434 600l26.6-12.1"/><path class="st13" d="M460.3 587.5s-6.2 12.4.4 15.2c3.2 1.4 3.2-2.3 2.6-7-.4-2.9 0-6-3-8.2z"/><path class="st12" d="M330.1 571.5l12 22.8 22.3-11.4M540.5 689.8v47.7M588.2 694.4l-1.6 43.1"/><path class="st10" d="M521 740.4s.1-13.1 19.5-3c0 0 1.1 3.4-6.2 4.7s-13.7.9-13.3-1.7zM567.1 740.4s.1-13.1 19.5-3c0 0 1.1 3.4-6.2 4.7s-13.8.9-13.3-1.7z"/><path class="st12" d="M512.2 654.2s-3.8-.2-8.6-.9c-1.5-.2-.3-4.1-3.7-5.4-2.3-.9-4.6 3.8-6.2 3.4-4.7-1.3-8.9-3.2-10.6-5.9 1.7-9.7 5.3-19 10.7-27.2"/><path class="st10" d="M496 619.7s2.6 1.2 4.1 1.8c2.7 1.1 7.2 2 8.7-1.9.8-2.2.6-8.8-3.9-9.5s-16.4 8.7-8.9 9.6z"/><path class="st12" d="M627.5 662.2s3.4 1.6 8 3.3c1.5.5 2.2-3.4 5.8-2.9 2.4.3 2.2 5.5 3.9 5.9 4.8 1.1 9.4 1.5 12.2-.1 3.2-9.3 4.4-19.2 3.7-29"/><path class="st10" d="M658.3 639.7s-2.9-.2-4.4-.4c-2.9-.3-7.3-1.7-6.7-5.8.3-2.3 3.7-8 8-6.5s10.1 15.5 3.1 12.7z"/><path class="st6" d="M505 684.9c-5.5-1.5 17.9-76.1 17.9-76.1s48.8-6.7 114.6 3c0 0-9.8 71.9-17.5 89.8.1 0-43.8 3.2-115-16.7z"/><path class="st6" d="M522.9 608.8s29.2 34.2 48 40.3c0 0 32.9-8 66.7-37.3"/><path class="st12" d="M683.3 657.2s-18.4 36.3-27.3 52.5M786.2 693.9s6.3 27.2 2.2 49.2"/><path class="st10" d="M656.2 708.8s-16.7 12.9-10.1 16.7 10.3-6.5 10.3-6.5 2.3 6.1 4 2.5-4.2-12.7-4.2-12.7zM788.5 740.9s4.4 20.6-3.1 19.2-3.7-11.6-3.7-11.6-5.7 3.2-4.7-.7 11.5-6.9 11.5-6.9z"/><path class="st12" d="M707.6 701.4c0 .8-1.6 41.7-1.6 41.7"/><path class="st10" d="M686.4 745.2s.1-13.1 19.5-3c0 0 1.1 3.4-6.2 4.7s-13.7.9-13.3-1.7z"/><path class="st12" d="M734.3 711.7c0 .8-1.6 41.7-1.6 41.7"/><path class="st10" d="M713.2 755.6s.1-13.1 19.5-3c0 0 1.1 3.4-6.2 4.7s-13.7.9-13.3-1.7z"/><path class="st6" d="M687 613l-6.9 81.4 75.6 34.8s43.5-22.8 44.7-64.2c0 0-18.7-44.3-113.4-52z"/><path class="st6" d="M687 613s14.2 35.4 25.1 53.9c0 0 34.3-1.1 88.3-1.9"/></svg>