<?xml version="1.0" encoding="utf-8"?>
<!-- Generator: Adobe Illustrator 22.0.1, SVG Export Plug-In . SVG Version: 6.00 Build 0)  -->
<svg version="1.1" id="Layer_1" xmlns="http://www.w3.org/2000/svg" xmlns:xlink="http://www.w3.org/1999/xlink" x="0px" y="0px"
	 viewBox="0 0 894.4 608.3" style="enable-background:new 0 0 894.4 608.3;" xml:space="preserve">
<style type="text/css">
	.st0{fill:#F5F5F5;}
	.st1{fill:#C4C4C4;}
	.st2{fill:#9E9E9E;stroke:#000000;stroke-width:0.5;stroke-miterlimit:10;}
	.st3{fill:#B7B7B7;stroke:#000000;stroke-width:0.5;stroke-miterlimit:10;}
	.st4{fill:#8E8E8E;stroke:#000000;stroke-width:0.5;stroke-miterlimit:10;}
	.st5{fill:#0077BF;stroke:#000000;stroke-width:0.5;stroke-miterlimit:10;}
	.st6{fill:#FFFFFF;stroke:#000000;stroke-width:0.5;stroke-miterlimit:10;}
	.st7{fill:#FFE600;stroke:#000000;stroke-width:0.5;stroke-miterlimit:10;}
	.st8{fill:#FFFFFF;stroke:#000000;stroke-miterlimit:10;}
	.st9{fill:#1A1A1A;stroke:#000000;stroke-width:0.5;stroke-miterlimit:10;}
	.st10{fill:#1A1A1A;}
	.st11{fill:none;stroke:#000000;stroke-width:0.5;stroke-miterlimit:10;}
	.st12{fill:#C10072;stroke:#000000;stroke-width:0.5;stroke-miterlimit:10;}
	.st13{fill:#EB058C;stroke:#000000;stroke-width:0.5;stroke-miterlimit:10;}
	.st14{fill:#C10072;stroke:#000000;stroke-width:0.5;stroke-linecap:round;stroke-linejoin:round;}
	.st15{fill:#F2F2F2;stroke:#000000;stroke-width:0.5;stroke-miterlimit:10;}
	.st16{fill:#636363;stroke:#000000;stroke-width:0.5;stroke-miterlimit:10;}
	.st17{fill:none;stroke:#000000;stroke-miterlimit:10;}
	.st18{fill:#C6C6C6;stroke:#000000;stroke-width:0.5;stroke-miterlimit:10;}
	.st19{enable-background:new    ;}
	.st20{fill:#CCCCCC;stroke:#000000;stroke-width:0.5;stroke-miterlimit:10;}
	.st21{fill:#AAAAAA;stroke:#000000;stroke-width:0.5;stroke-miterlimit:10;}
	.st22{fill:#FFFFFF;}
</style>
<title>LM</title>
<g>
	<g id="Layer_6">
		<path class="st0" d="M301.5,512.6c0,0-136.8,98.7-216-40.8c0,0-115.1-151.1,85.8-335.8c0,0,84.7-88.2,260.6-122.6
			c0,0,146.8-14.5,230.8,61.2c0,0,147.7,128.7,140.9,308.5c0,0,24.6,218.5-186.5,209.8c0,0-71-9.5-102.9-83.9
			C514.3,509.1,473.4,389.9,301.5,512.6z"/>
	</g>
	<ellipse class="st1" cx="416.5" cy="397.4" rx="279.6" ry="4.4"/>
	<ellipse class="st1" cx="468.7" cy="571.4" rx="98.2" ry="9.8"/>
	<ellipse class="st1" cx="187.8" cy="539.3" rx="47.6" ry="7.9"/>
	<ellipse transform="matrix(0.9529 -0.3034 0.3034 0.9529 -112.6657 246.7509)" class="st1" cx="737.8" cy="486" rx="80.6" ry="8"/>
	<polygon class="st2" points="652.5,184.4 659.3,182.6 660.4,398.3 658,397.3 	"/>
	<polygon class="st2" points="641.7,191 655.5,191.9 656.5,194.7 641.7,193.7 	"/>
	<polygon class="st2" points="657.2,204.8 641,204.8 641.9,207.6 655.7,207.6 	"/>
	<polygon class="st2" points="661,219.4 641.9,219.4 641,222.1 658.3,222.1 	"/>
	<polygon class="st2" points="653.7,239 641.7,232.5 640,235.7 652.1,240.9 	"/>
	<path class="st2" d="M697.6,393.8c-14.6,1.7-29.3,2-44,0.9c-14.6-1-29.1-3.2-43.3-6.8c-28.3-7.3-55.2-21-75.6-41.7
		c-10.2-10.3-18.9-22-25.7-34.9c-6.9-12.8-11.6-26.6-15.3-40.7l-2.5-10.6c-0.6-3.6-1.2-7.2-1.7-10.8l-0.8-5.4
		c-0.2-1.8-0.4-3.6-0.5-5.4l-1-10.9c-0.9-14.5-0.3-29,1.8-43.4c2.1-14.2,6.8-27.9,13.8-40.5c7-12.4,17.1-22.7,29.3-30
		c1.5-0.9,3.1-1.7,4.7-2.4c1.6-0.7,3.1-1.6,4.8-2.2c3.3-1.3,6.6-2.3,10.1-3.1c6.9-1.6,13.9-2.3,21-1.9c14.2,0.8,27.9,5.4,39.7,13.2
		c6,3.7,11.2,8.6,16.2,13.6l3.4,4.1c1.2,1.3,2.3,2.7,3.3,4.2c2.1,2.9,4,5.9,5.7,9c7,12.4,10.8,26.3,12.5,40.5
		c3.4,28.7-0.7,57.9-11.8,84.6c-10.9,26.8-27.8,50.8-49.3,70.2c-5.3,4.8-11,9.4-16.8,13.5c-5.9,4.1-12,7.9-18.4,11.3
		c-12.6,6.8-26.3,11.5-40.5,13.8c-7,1-14.1,1.3-21.2,0.7c-7-0.8-14-2-20.5-4.8c-6.6-2.6-12.8-6.1-18.3-10.5
		c-5.6-4.4-10.8-9.3-15.5-14.7c-9.5-10.8-17.4-23.1-25.1-35.5s-15.5-25.1-23.5-37.4s-17-24.4-27.3-35.2s-22.5-20-36-26.5
		c-6.8-3.2-13.9-5.7-21.2-7.4c-7.3-2.2-15-2.7-22.6-1.6c-3.8,0.6-7.5,1.6-11.1,3c-3.5,1.4-6.9,3.1-10.1,5.1
		c-6.3,4-12.1,8.9-17.2,14.4c-10.1,11-18.1,23.7-25,36.7c-6.8,13.1-12.7,26.6-17.8,40.5c-10.1,27.6-18,56-23.6,85
		c3.1-14.4,6.9-28.6,11.1-42.6s8.9-28,14.2-41.6c5.3-13.7,11.4-27,18.4-39.9c7-12.8,15.1-25.1,25.1-35.5c4.9-5.2,10.5-9.8,16.6-13.6
		c3-1.9,6.2-3.4,9.5-4.7c3.3-1.3,6.7-2.2,10.2-2.6c3.5-0.5,7-0.6,10.5-0.2c1.8,0.1,3.5,0.5,5.2,0.8l5.2,1.3c7,1.8,13.8,4.2,20.2,7.3
		c12.9,6.4,24.4,15.4,34.4,25.9c9.9,10.6,18.4,22.4,26.2,34.7c15.8,24.5,28.7,51.3,48.3,74.2c4.9,5.8,10.3,11,16.3,15.6
		c6,4.8,12.7,8.6,19.8,11.4c7.1,3,14.7,4.4,22.3,5.3c7.6,0.6,15.2,0.4,22.7-0.7c14.9-2.4,29.3-7.2,42.7-14.3
		c13.3-6.9,25.7-15.6,36.8-25.7c22.4-20,40-44.9,51.4-72.7c11.5-27.9,15.6-58.2,12-88.2c-1.7-14.9-5.9-29.8-13.4-43
		c-1.8-3.3-3.9-6.6-6.1-9.6c-1.1-1.6-2.3-3.1-3.5-4.5l-3.7-4.4c-5.4-5.4-11-10.6-17.5-14.6c-12.8-8.4-27.7-13.2-43-14.1
		c-7.7-0.4-15.3,0.3-22.8,2.1c-3.7,0.9-7.4,2-11,3.4c-1.8,0.6-3.5,1.6-5.2,2.4c-1.7,0.8-3.4,1.7-5.1,2.7
		c-13.2,7.9-24,19.1-31.4,32.5c-7.2,13.3-11.9,27.7-14,42.7c-2.2,14.8-2.2,29.8-1.3,44.6l1.2,11.1c0.2,1.8,0.4,3.7,0.6,5.5l0.9,5.5
		c0.6,3.7,1.2,7.3,1.9,11l2.6,10.8c3.9,14.3,8.9,28.4,16.1,41.5c14.3,26.4,36.3,47.7,63,61.2c13.2,6.7,27.1,11.8,41.5,15.2
		C638.6,396.4,668.3,397.8,697.6,393.8z"/>
	<path class="st2" d="M681.1,395.8c-14.6,1.7-29.3,2-44,0.9c-14.6-1-29.1-3.2-43.3-6.8c-28.3-7.3-55.2-21-75.6-41.7
		c-10.2-10.3-18.9-22-25.7-34.9c-6.9-12.8-11.6-26.6-15.3-40.7l-2.5-10.6c-0.6-3.6-1.2-7.2-1.7-10.8l-0.8-5.4
		c-0.2-1.8-0.4-3.6-0.5-5.4l-1-10.9c-0.7-14.5-0.5-29.1,1.8-43.4c2.1-14.2,6.8-27.9,13.7-40.5c7-12.4,17.1-22.7,29.3-30
		c1.5-0.9,3.1-1.7,4.7-2.4c1.6-0.7,3.1-1.6,4.8-2.2c3.3-1.3,6.6-2.3,10.1-3.1c6.9-1.6,13.9-2.3,21-1.9c14.2,0.8,27.9,5.3,39.7,13.1
		c6,3.7,11.2,8.6,16.2,13.6l3.4,4.1c1.2,1.3,2.3,2.7,3.3,4.2c1.9,3,4.1,5.8,5.7,9c7,12.4,10.8,26.3,12.5,40.5
		c3.4,28.7-0.7,57.9-11.8,84.6c-10.9,26.8-27.8,50.8-49.3,70.2c-5.3,4.8-11,9.4-16.8,13.5c-5.9,4.1-12,7.9-18.4,11.2
		c-12.6,6.8-26.3,11.5-40.5,13.8c-7,1-14.1,1.3-21.2,0.8c-7-0.8-14-2-20.5-4.8c-6.6-2.6-12.7-6.1-18.3-10.5
		c-5.6-4.4-10.8-9.3-15.5-14.7c-9.5-10.8-17.4-23.1-25.1-35.5s-15.1-25.1-23.2-37.5s-17-24.4-27.3-35.2c-10.4-10.6-22.5-20-36-26.5
		c-6.8-3.2-13.9-5.7-21.2-7.4c-7.3-2.2-15-2.7-22.6-1.6c-3.8,0.6-7.5,1.6-11.1,3c-3.5,1.4-6.9,3.1-10.1,5.1
		c-6.3,4.1-12.1,8.9-17.2,14.5c-10.1,11-18.1,23.6-24.9,36.7c-6.8,13.1-12.7,26.6-17.8,40.5c-10.1,27.6-18,56-23.6,84.9
		c3.1-14.4,6.9-28.6,11.1-42.6s8.9-28,14.2-41.6c5.3-13.7,11.4-27,18.4-39.9c7.1-12.8,15.1-25.1,25.1-35.5
		c4.9-5.2,10.5-9.8,16.6-13.6c3-1.9,6.2-3.4,9.5-4.7c3.3-1.3,6.7-2.1,10.2-2.6s7-0.6,10.5-0.2c1.8,0.2,3.5,0.4,5.2,0.8l5.2,1.3
		c7,1.8,13.8,4.2,20.2,7.3c12.9,6.3,24.4,15.4,34.3,25.8c9.9,10.6,18.4,22.4,26.2,34.7c15.8,24.5,28.7,51.3,48.3,74.1
		c4.9,5.8,10.4,11,16.3,15.7c6,4.7,12.7,8.6,19.8,11.4c7.1,3.1,14.7,4.4,22.3,5.3c7.6,0.6,15.2,0.4,22.7-0.7
		c14.9-2.4,29.3-7.2,42.7-14.3c13.3-6.9,25.6-15.6,36.8-25.6c22.4-20,40-44.9,51.4-72.7c11.5-27.9,15.6-58.2,12-88.2
		c-1.8-14.9-5.9-29.8-13.5-43c-1.7-3.4-4-6.5-6.1-9.6c-1.1-1.6-2.3-3.1-3.5-4.5l-3.7-4.4c-5.4-5.4-11-10.6-17.5-14.6
		c-12.8-8.4-27.7-13.3-43-14.1c-7.7-0.4-15.3,0.3-22.8,2.1c-3.7,0.9-7.4,2-11,3.4c-1.8,0.6-3.5,1.6-5.2,2.4s-3.4,1.7-5.1,2.7
		c-13.2,7.9-24,19.1-31.4,32.5c-7.2,13.3-11.9,27.7-14,42.7c-2,14.8-2.4,29.7-1.3,44.6l1.1,11c0.2,1.8,0.4,3.7,0.6,5.5l0.9,5.5
		c0.6,3.7,1.2,7.3,1.9,11l2.6,10.8c3.9,14.3,8.9,28.4,16.1,41.5c14.3,26.3,36.3,47.7,63,61.2c13.2,6.7,27.1,11.8,41.5,15.2
		C622.1,398.6,651.8,399.9,681.1,395.8z"/>
	<polygon class="st2" points="640.6,148.1 629.9,150.7 629.9,148.7 641.7,146.2 	"/>
	<polygon class="st2" points="635.8,137.4 621.1,140.1 619.2,137.4 634.9,134.5 	"/>
	<polygon class="st2" points="622.9,124.1 613.1,124.8 606.7,121.2 622.9,123.1 	"/>
	<polygon class="st2" points="607.4,111.8 599.2,113.8 593.3,112.8 605.1,109.6 	"/>
	<polygon class="st2" points="633.1,162.8 650.7,162.8 650.7,166 634.3,167.8 	"/>
	<polygon class="st2" points="637.7,174.9 654.4,173.5 656.5,176.5 638.6,178.5 	"/>
	<polygon class="st2" points="651,250.6 637.7,249.9 637.7,252.2 650.7,254 	"/>
	<polygon class="st2" points="649.1,264.4 633.6,262.1 633.6,264.4 648.1,268.4 	"/>
	<polygon class="st2" points="641.4,279.7 631.7,274.9 630.3,277.3 640,282.2 	"/>
	<polygon class="st2" points="635.8,294 620.2,288.8 620.2,293.1 634.7,295.9 	"/>
	<polygon class="st2" points="626.8,305.8 614.1,304.4 614.1,305.8 623.8,308.4 	"/>
	<polygon class="st2" points="617.9,320 609.7,313.5 608.6,315.8 616.4,323 	"/>
	<polygon class="st2" points="606.8,332.4 599.4,328.1 598.6,330.2 606.8,334.1 	"/>
	<polygon class="st2" points="598.6,343.5 589.4,336.4 587.5,338.6 597,344.5 	"/>
	<polygon class="st2" points="584.3,353.5 578.8,347.2 578.8,348.2 581.6,355.6 	"/>
	<polygon class="st2" points="516,119.9 500.5,123.1 498.1,124.8 516,121.2 	"/>
	<polygon class="st2" points="507,132.8 493.2,130.3 492,131.6 500.1,136 	"/>
	<polygon class="st2" points="498.1,144.1 485.2,140.1 483.3,142.1 496.2,146.2 	"/>
	<polygon class="st2" points="492,155.6 477,158.4 476,160.8 490.7,160.8 	"/>
	<polygon class="st2" points="487.5,173.5 473,170.4 473,172 486.6,177.2 	"/>
	<polygon class="st2" points="486.1,188.1 469,188.1 469,191 484,192.9 	"/>
	<polygon class="st2" points="484,203.3 469,204.8 469,207.6 484,207.6 	"/>
	<polygon class="st2" points="484,220.7 467.8,218.4 467.8,222.1 484,224 	"/>
	<polygon class="st2" points="486.1,236.7 469,236.7 469,239.5 486.1,240.9 	"/>
	<polygon class="st2" points="487.8,255.5 472,255.5 472,258.6 489.2,258.6 	"/>
	<polygon class="st2" points="492.6,273.2 475.4,273.2 475.4,274.9 492.6,276 	"/>
	<polygon class="st2" points="496,285.1 480.6,288.8 481.4,292.4 496,288.8 	"/>
	<polygon class="st2" points="501.6,299.4 486.1,304.4 486.8,306.4 501.6,302.1 	"/>
	<polygon class="st2" points="505.7,310.7 490.2,315.3 492.6,317.4 505.3,313.3 	"/>
	<polygon class="st2" points="513.8,323 503.4,332.9 505.7,336.4 513.8,325.2 	"/>
	<polygon class="st2" points="524.5,337.5 510.6,342.6 513.8,344.5 526.1,338.9 	"/>
	<polygon class="st2" points="531.4,346.3 524.9,355.6 526.1,357.1 533.2,347.2 	"/>
	<polygon class="st2" points="542.5,355.6 534.9,365.2 536.2,365.2 546.4,357.1 	"/>
	<polygon class="st2" points="570.4,374.3 565.1,380.1 566.4,383.3 571.4,376.1 	"/>
	<polygon class="st2" points="584.3,380.7 578.8,386.5 580.7,386.5 585.1,380.7 	"/>
	<polygon class="st2" points="593,383.3 586.7,389.2 588.6,389.2 594.2,383.6 	"/>
	<polygon class="st2" points="606.8,387.8 599.6,392.2 602.3,393 608.9,388.5 	"/>
	<polygon class="st2" points="616.3,390.4 616.3,395.4 618.3,395.4 617.3,390.8 	"/>
	<polygon class="st2" points="452.3,368.2 445.4,362.3 426.7,360.4 427.8,363.2 	"/>
	<polygon class="st2" points="427.8,342.2 412.5,344.5 409.3,342.2 426.7,339.6 	"/>
	<polygon class="st2" points="419.3,329.7 398.4,324.8 397.3,323 418.5,325.5 	"/>
	<polygon class="st2" points="409.3,308.4 392.4,310.7 390.8,308.4 405.1,304.4 	"/>
	<polygon class="st2" points="397.3,290.3 378.8,292.4 376.5,290.3 393.2,287.1 	"/>
	<polygon class="st2" points="372.6,282.2 384.4,273.2 386.9,274.6 374.5,284.1 	"/>
	<polygon class="st2" points="374.5,258.6 351,254 352.9,257 374.5,260 	"/>
	<polygon class="st2" points="359.7,242.1 339.7,240.9 337.4,238.8 354.5,236.7 	"/>
	<polygon class="st2" points="328.5,233.4 342.3,229.2 337.4,225.6 326.1,231.3 	"/>
	<polygon class="st2" points="315.8,214.1 308.5,219.8 305.7,218.4 312,214.1 	"/>
	<polygon class="st2" points="296.7,210.1 293.9,211.5 288.7,214.1 286,213.1 	"/>
	<polygon class="st2" points="258.8,225.6 242.2,225.6 239.2,228.2 253,228.2 	"/>
	<polygon class="st2" points="246.6,234.2 231.3,234.2 230.4,236 244.8,236.7 	"/>
	<polygon class="st2" points="240.9,242.1 222.5,246.8 222.5,247.4 238.5,245.4 	"/>
	<polygon class="st2" points="228.1,260 216.7,254.9 215.6,256 226.1,261 	"/>
	<polygon class="st2" points="222.5,270.3 209.2,267.4 208.1,268.8 221.8,271.4 	"/>
	<polygon class="st2" points="217.1,281.1 204.4,276.6 203.2,278 215.6,282.9 	"/>
	<polygon class="st2" points="211,295.4 197.2,290.4 196.3,291.8 208.8,297.2 	"/>
	<polygon class="st2" points="205.1,309.8 191.3,304.4 190.8,306.4 204.5,311.5 	"/>
	<polygon class="st2" points="200.3,322.3 184.8,322.3 184.1,324.2 199.7,324.2 	"/>
	<polygon class="st2" points="195.5,334.7 180.8,333.1 180.2,335.8 195,336.6 	"/>
	<polygon class="st2" points="192.2,350.2 177.6,345.9 176.4,347.2 190.5,352 	"/>
	<polygon class="st2" points="188.1,361.2 173.1,358.6 173.1,359.9 187.9,362.3 	"/>
	<polygon class="st2" points="185.6,373.5 168.5,378.1 168.2,379 184.8,374.8 	"/>
	<polygon class="st2" points="278.3,210.6 283.5,213.2 286,397.6 282.2,397.4 	"/>
	<polygon class="st3" points="288.4,162 316.2,164.5 319,169.9 289.7,169.8 	"/>
	<polygon class="st3" points="234.8,174.6 253.1,171.5 256.1,175.4 240.6,180.8 	"/>
	<polygon class="st4" points="289.7,169.8 288.4,162 281.4,162 281.4,170.5 	"/>
	<polygon class="st4" points="240.6,180.8 234.8,174.6 231.3,175.9 232.3,185.3 	"/>
	<g id="Layer_9">
		<path class="st5" d="M273.3,114.5l4.4,22.5l-10,21.6c0,0,0.7,16,4.3,24c0,0-10.3,11.5-25.4,6.3l-5.8-24.7l-21-15L216,127l2.7-0.3
			l6.3,17.7l15.9,9.7c0,0-0.4-0.3,8.9-2c0,0,4.2,2.3,6.2-1.3c4.8-2.2,7.1-3.5,8.6-3.8l6-10.7l-0.3-21.2L273.3,114.5z"/>
		<path class="st6" d="M270.6,114.9c-2.4-3.5,0.1-2.4,0.1-2.4s1-6.1,2.4-4.7c1.2,1.1,0.2,6.6,0.2,6.6L270.6,114.9z"/>
		<path class="st6" d="M216.2,127c0,0-1.7-5.9-0.3-6.2c1-0.2,2.6,3.7,2.6,3.7s3.2-0.5,0.4,2L216.2,127z"/>
		<path class="st6" d="M255.2,148.3l4.1,2.7l-5,1.7c0,0-3.2-2.4-1.1-3.6L255.2,148.3z"/>
		<polygon class="st6" points="252.9,153 247.7,154.4 248.8,150.5 251.8,149.5 		"/>
		<path class="st7" d="M250,160.8l3.2-8.3c0,0,0.2-1.2,1-0.3v5.9L250,160.8z"/>
		<path class="st6" d="M249.3,150.8c0,0.1,0,0.2,0,0.3c0,0.1,0.1,0.1,0.2,0.2c0.8,0.6,1.7,1.1,2.7,1.5c0.5,0.3,1.2,0.4,1.7,0.1
			c0.3-0.2,0.6-0.5,0.7-0.9l0.8-1.4c-0.5-0.2-0.7-0.9-0.8-1.5c-0.1-0.8-0.1-1.5-0.1-2.3c-1.4-0.7-3-1-4.5-0.9
			c-0.5,0-0.8,0.2-0.7,0.7c0.1,0.5,0.2,0.9,0.2,1.4C249.6,148.9,249.5,149.8,249.3,150.8z"/>
		<path class="st6" d="M258,140.4c-0.6-2.4-0.4-2.4-0.9-3.5c-0.8-1.8-1.8-3.7-3.5-4.6c-1-0.5-2.1-0.8-3.2-0.9
			c-0.8-0.2-1.6-0.2-2.5-0.1c-0.7,0.1-1.3,0.4-1.9,0.8c-1.7,1-3,2.5-3.6,4.4c-1.6,5,3.1,9.3,6.9,11.6c1.4,0.9,3.2,1.5,4.7,1
			C259.6,147.3,258.6,142.6,258,140.4z"/>
		<path class="st8" d="M250.2,139.4c-0.9,0.2-1.6,1-1.7,1.9"/>
		<path class="st8" d="M256.5,138.1c-0.8-0.6-1.8-0.6-2.6,0"/>
		<path class="st6" d="M253.5,144.1c0.3-0.2,0.5-0.4,0.8-0.7c0.1,0,0.1-0.1,0.1-0.2c0-0.2,0-0.4-0.2-0.6l-0.6-0.9"/>
		
			<ellipse transform="matrix(0.8829 -0.4695 0.4695 0.8829 -37.3425 134.2246)" class="st9" cx="250.5" cy="142" rx="0.5" ry="0.6"/>
		
			<ellipse transform="matrix(0.9769 -0.2135 0.2135 0.9769 -24.1251 57.8057)" class="st9" cx="255.6" cy="140.6" rx="0.5" ry="0.6"/>
		<path class="st10" d="M245.1,141.3c0,0-1.6-1.3-1.9-0.3c0.2,1.4,1.3,2.5,2.6,2.8c-0.1,1,0.2,1.9,0.9,2.6c0,0-2.7-0.5-6-5.6
			c0,0-3-4.3,2.5-6.9c0.8-4.2,5-6.4,10.6-4.7c2.4,2.3,3.8,5.4,3.8,8.7c-0.5-1.8-1.7-3.3-3.3-4.1c0,0-3.5,4-6.8,1.4
			C247.4,135.3,245,135.9,245.1,141.3z"/>
		<path class="st11" d="M255.5,144.9c0,0-0.8,0.5-3.5,0.8C252,145.7,254.8,148.5,255.5,144.9z"/>
		<polygon class="st7" points="254.2,158.1 239.9,143.3 233,143 235.4,149.5 250,160.8 		"/>
	</g>
	<g id="Layer_7">
		<path class="st6" d="M317.2,136.4l4.2-16.7c0-0.5-0.2-0.9-0.4-1.3c-0.1-0.2-0.2-0.5-0.3-0.7c-0.1-0.4,0-1.4-0.1-2.4
			c0-0.7-0.3-1.2,0-1.2s0.6,0.3,0.8,0.9c0.1,0.5,0,1.4,0.4,1.4c0.1,0,0-0.5,0.1-0.6c0.2-1.1,0.3-2.2,0.1-3.3c-0.1-0.3,0-0.7,0.2-1
			c0.4-0.4,1-0.4,1.5-0.1c0.9,0.6,1.4,1.6,1.3,2.7c0.2,1.5,0,2.9-0.7,4.2c-0.4,0.6-0.6,1.2-0.7,1.9l-0.3,17.2L317.2,136.4z"/>
		<path class="st6" d="M261.9,127.5c0.9-1.5,1.4-0.3,2.1,0.7c0.6,0.8,1.3,1.5,2.1,2c0.1,0.1,0.3,0.2,0.5,0.1c0.4-0.2,0.1-0.6,0-1.1
			c-0.1-0.7,0.1-1.1,0.3-1.3s0.3,0.5,0.6,1.2c0.4,1,0.9,1.9,1.1,2.3c0,0.3,0.1,0.5,0.1,0.8c0,0.5,0.1,1,0.3,1.4l9.9,9.8
			c-1.3,1.4-2.6,2.8-4,4.1l-7.7-12.1c-0.4-0.6-1-1.1-1.6-1.5c-1.3-1-2.4-2.2-3.3-3.5C261.6,129.5,261.5,128.4,261.9,127.5z"/>
		<path class="st9" d="M296.2,152.3c12,3.1,14.1-3,14.1-3c3-7.4,1.4-10.5-0.2-13.2c-1.5-2.5-4.3-3.9-7.2-3.5
			c-1.6,0.1-6.7-4.4-6.9-7.5c-0.4-5.6-7.8-10.5-12.5-9.2c0,0,3.3,2.8,1.6,6.5C280.9,131.4,281.1,148.3,296.2,152.3z"/>
		<path class="st6" d="M300.1,151.9c0-0.5,0-1,0-1.6s0.3-0.7,0.9-0.6c1.7,0.2,3.3,0.9,4.6,1.9c-0.2,0.8-0.3,1.6-0.3,2.5
			c-0.2,0.6,0,1.3,0.5,1.7l-1.1,1.4c-0.2,0.3-0.6,0.6-0.9,0.8c-0.7,0.1-1.3-0.1-1.8-0.5c-0.9-0.6-1.8-1.4-2.5-2.2
			c-0.1-0.1-0.1-0.1-0.1-0.2s0-0.2,0-0.3C299.7,153.9,299.9,152.9,300.1,151.9z"/>
		<path class="st6" d="M292.6,140.9c0.3-2.1,1.3-4,2.9-5.5c0.6-0.5,1.2-0.9,1.9-1.2c0.8-0.3,1.7-0.4,2.6-0.4
			c1.2-0.2,2.4-0.1,3.6,0.2c2,0.6,3.5,2.4,4.7,4.1c0.8,1,1.5,2.1,1.9,3.4c0.2,0.9,0.2,1.8,0.1,2.7c0,1.4-0.2,2.8-0.5,4.2
			c-0.3,1.3-1,2.5-2.1,3.3c-1.5,1-3.5,0.6-5.2,0C297.8,150,292,146.5,292.6,140.9z"/>
		<path class="st10" d="M294.6,148.3l-2.8-4.4l1.2-6.5l2.8-2.8l4.3-1.8l4.3,1l4.6,3.9l1.8,3.8v2c-0.9-0.9-1.6-2-2.1-3.2
			c-2.2-3.8-7-2.4-7-2.4c-1.5,0.3-3,0.2-4.4-0.3c3.3,4.1-0.4,12.2-0.4,12.2L294.6,148.3z"/>
		<path class="st6" d="M298.7,143c0.7-1.2,1.4-2.8,3.5-2.4"/>
		<path class="st6" d="M306.1,137.9c-0.9,0.1-1.7,0.7-2.1,1.6"/>
		<path class="st6" d="M304.5,142.8l1.1,1c0.2,0.1,0.9,0.4,0.8,0.6c0,0.1-0.1,0.2-0.1,0.2c-0.2,0.3-0.5,0.6-0.7,0.9"/>
		<path class="st6" d="M305,148.9c-0.2-0.1-0.7-0.3-0.6-0.6c0,0,0-0.1,0.1-0.1c0.7-0.8,1.6-1.5,2.6-2c0.1-0.1,0.3-0.1,0.5,0
			c0.1,0.1,0.1,0.1,0.1,0.2c0,0.3,0,0.6,0,0.9c0.1,0.3,0.1,0.7,0.1,1c0,0.4-0.3,0.7-0.6,0.7h-0.3c-0.3,0-0.5,0-0.8,0
			C305.7,149.1,305.3,149,305,148.9z"/>
		<path class="st12" d="M307.8,148.3c-0.2-0.1-0.5,0.1-0.6,0.2c-0.5,0.3-1.1,0.4-1.7,0.3c-0.4,0-0.9-0.2-1.3-0.3
			c0.1,0.2,0.2,0.4,0.4,0.5c0.2,0.1,0.4,0.2,0.6,0.2l0.8,0.2c0.3,0.1,0.7,0.1,1,0.1c0.4,0,0.7-0.2,0.9-0.5
			C308,148.9,308,148.4,307.8,148.3z"/>
		<path class="st13" d="M299.1,180.1c0.7-2.2,1.2-3.9-0.2-5.8c-2.2-3.1-5.9-7.3-7.4-9.5c-3.4-5-15.2-15.5-15.2-15.5l-4.5-1.5
			c1.9-4.8,7.8-8.1,7.8-8.1l1.7,5.6l14.1,10.4l1.2-0.3c-0.5-0.7-0.4-1.6,0.2-2.1l2.4,1.5c3.1,2.5,4.7,0.2,4.7,0.2
			c1.1-1.8,4-1.7,4-1.7l-1,1.7l1.2-0.1l8.9-15.2l-1.1-5.2c2.5-1.2,10.1,1.1,10.1,1.1l-2.8,5.6c-0.4,3.4-5.8,13.3-7.5,16.1
			s-1.4,3.7-1,5.1s2.5,3.4,2.2,5.4s-1,3.1-0.4,4.8c0.3,1,0.9,1.9,1.5,2.7C312.6,179.2,305.9,180.8,299.1,180.1z"/>
		<path class="st6" d="M303,142.5c-0.6-0.3-1.2-0.3-1.8,0c-1,0.4-0.8,1.3-1.6,1.4"/>
		<path class="st6" d="M305.4,141.1c0-0.6,0.3-1.1,0.8-1.4c0.9-0.7,2.2,0.1,2.3-0.5"/>
		<path class="st14" d="M307.6,146.5c0,0,0.4-1-0.6-0.9s-2,1.8-2.9,1.9c-0.5,0-1,0-1.4-0.3c0,0,0.9,1.3,1.7,1
			S306.2,146.3,307.6,146.5z"/>
	</g>
	<path class="st13" d="M331.5,231.2h28.3l14.4-51.9c0,0-49.1-14-95-8.5s-58.3,24.4-58.3,24.4l13,35.2c0,0,14-16.3,44.9-15
		C306.3,216.5,331.5,231.2,331.5,231.2z"/>
	<line class="st11" x1="333.5" y1="171.5" x2="331.5" y2="231.2"/>
	<path class="st4" d="M305.7,216.1c0,5.3,2.6,9.5,5.9,9.5s5.9-4.3,5.9-9.5s-2.6-9.5-5.9-9.5S305.7,210.9,305.7,216.1z"/>
	<path class="st6" d="M309.1,216.1c0,2.3,1.1,4.1,2.5,4.1s2.5-1.8,2.5-4.1s-1.1-4.1-2.5-4.1S309.1,213.9,309.1,216.1z"/>
	<path class="st4" d="M237.4,216.7c1.2,5.1,4.8,8.6,8,7.9s4.7-5.5,3.5-10.6s-4.8-8.6-8-7.9S236.1,211.6,237.4,216.7z"/>
	<path class="st6" d="M240.6,215.9c0.5,2.2,2.1,3.7,3.4,3.4s2-2.4,1.5-4.6s-2.1-3.7-3.4-3.4S240.1,213.7,240.6,215.9z"/>
	<rect x="700.4" y="385.8" class="st13" width="5.2" height="92.8"/>
	<rect x="696.7" y="475.4" class="st4" width="12.8" height="6.8"/>
	<circle class="st15" cx="703" cy="382.5" r="7"/>
	<path class="st6" d="M683.3,318.2l-6.5-4.4c0,0-2.9,5.5-4.9,5.9l5.5,8.3C677.4,327.9,684.3,321.4,683.3,318.2z"/>
	<polygon class="st16" points="691.9,385.6 678,435.6 683.6,496.4 692.8,495.6 694.1,438.5 710.6,398.8 	"/>
	<polyline class="st16" points="691.9,385.6 723.1,372.4 741.1,420 788.9,436.9 791.1,444.6 731.5,433.8 691.8,385.9 	"/>
	<path class="st6" d="M691.6,385.5l31.5-13.1L710,339.5l13.6,9.3c1,0.6,1.7,1.6,2,2.7l7.8,27.2l6.2-0.3l-5-32.8
		c-0.2-1.1-0.7-2.2-1.6-2.9l-28.9-25.9l-20.9-2.1l-6.3,9l-4.4-1.4L667,336l-0.2,21.3c0,0.9-0.1,1.7-0.2,2.6l-29.8-1.2l1.8,5.9
		l36.2,4.1c0.4-0.6,0.6-1.3,0.7-2l4.1-17.3L691.6,385.5z"/>
	<path class="st5" d="M703.1,316.7c0,0,2.9,18.4,8.6,23.9l7.9,20.7l-8.4,12.5l-13.3-1.2l-7.6,9.3L675.4,347l-8.5-11.1l2.7-6.7l5.2,1
		l2.1-6.6l6.8,2.2l5-10.6L703.1,316.7z"/>
	<path class="st6" d="M739.6,378.4c0,0,3.4,9.6,1.2,11.2c-3.7,2.6-4.7-7.2-6.1-5.8c-1.9,1.8-2.1-0.7-1.3-5.2L739.6,378.4z"/>
	<path class="st6" d="M653.5,300.9c-1.5,1.5-1,5.7,0.5,7.8s4.4,5.6,3.7,6.5c-0.3,0.3-0.8,1-0.9,1.3c0,0.5,1.4,0.8,2.3,0.6
		c1.4-0.2,6.7,7,12.9,3.5s8.5-10.2,5.9-15.2S667.3,287.5,653.5,300.9z"/>
	<path class="st10" d="M666.1,289.2c-3.1-1.3-6.6-0.7-9.2,1.4c-4.3,3.6-8,12-10.2,12s-0.9,5.1,1.7,5.2c1.7,0,3.4,0,5.1-0.1
		c0,0,0.5-4.1,3.5-5.5s6.2-3.1,6.3-4.7c0,0,2.4,6.8,6.5,6c1-0.2,1.2-2.1,1.8-2c1.8,0.2,2.5,3.5,2.6,5.2c0,0,4.7,0.3,4.7,2
		s3.2-2.2,1.7-7.7S672.3,286.5,666.1,289.2z"/>
	<ellipse transform="matrix(0.6485 -0.7612 0.7612 0.6485 -4.266 611.1043)" class="st9" cx="659.6" cy="310.2" rx="0.9" ry="1.1"/>
	<path class="st11" d="M664.5,315.1c0,0,0.4,2.9-1.5,3.2"/>
	<path class="st11" d="M665.3,314.4c-0.3-0.2-0.6-0.3-1-0.3"/>
	<path class="st17" d="M660.9,306.6c0,0-2.9,0.2-4.5,1.7"/>
	<polygon class="st10" points="693.1,495.6 693.6,501.6 690.1,502 689.9,500.5 687.8,502.2 671.1,503.7 671.1,503.7 685.4,496.3 	
		"/>
	<polygon class="st10" points="789,436.7 795,435.8 795.6,439.3 794.1,439.6 795.9,441.6 798.4,458.1 798.4,458.1 790.1,444.3 	"/>
	<path class="st11" d="M661.5,309c-1.1-0.3-2.3,0-3.2,0.7"/>
	<path class="st6" d="M637.3,358.7c0,0-4.7-3.4-5.6-2.6s0.7,2.2,0.7,2.2s-6.5,0.2-6,2.3s7.2,3.3,12.7,3.9L637.3,358.7z"/>
	<rect x="821" y="321" class="st18" width="2.9" height="161.2"/>
	<path class="st15" d="M772.3,306h100.2c3.9,0,7.1,3.2,7.1,7.1v30.1c0,3.9-3.2,7.1-7.1,7.1H772.3c-3.9,0-7.1-3.2-7.1-7.1v-30.1
		C765.2,309.1,768.4,306,772.3,306z"/>
	<g class="st19">
		<path d="M817,320h-10.4v5.8h9.7v2.1h-9.7v6.4h10.5v2.1h-12.9v-18.5H817V320z"/>
		<path d="M826,329.1l5.2,7.2h-2.8l-3.8-5.5l-3.7,5.5h-2.7l5-7.1l-4.7-6.3h2.8l3.2,4.6l3.3-4.6h2.7L826,329.1z"/>
		<path d="M835.5,320.5h-2.2v-2.7h2.2V320.5z M835.5,336.3h-2.2v-13.4h2.2V336.3z"/>
		<path d="M844.7,324.7H842v7.8c0,1.2-0.1,2,1.5,2c0.4,0,0.7,0,1.2-0.1v1.9c-0.7,0.1-1,0.1-1.7,0.1c-3.4,0-3.2-1.7-3.2-4.6v-7.1
			h-2.3v-1.8h2.3v-4h2.2v4h2.7V324.7z"/>
	</g>
	<rect x="809.5" y="385.8" class="st13" width="5.2" height="92.8"/>
	<rect x="805.7" y="475.4" class="st4" width="12.8" height="6.8"/>
	<circle class="st15" cx="812.1" cy="382.5" r="7"/>
	<rect x="64.4" y="321" class="st18" width="2.9" height="161.2"/>
	<path class="st15" d="M15.7,306h100.2c3.9,0,7.1,3.2,7.1,7.1v30.1c0,3.9-3.2,7.1-7.1,7.1H15.7c-3.9,0-7.1-3.2-7.1-7.1v-30.1
		C8.6,309.1,11.8,306,15.7,306z"/>
	<g class="st19">
		<path d="M51.4,320H41v5.8h9.7v2.1H41v6.4h10.5v2.1H38.6v-18.5h12.8V320z"/>
		<path d="M56.2,325c1.1-1.6,2.5-2.4,4.6-2.4c3.3,0,4.5,1.8,4.5,4.9v8.9H63v-7.9c0-2.1-0.1-4-2.9-4c-2.9,0-3.8,2.2-3.8,4.8v7h-2.2
			v-13.4h2.1V325z"/>
		<path d="M74.3,324.7h-2.7v7.8c0,1.2-0.1,2,1.5,2c0.4,0,0.7,0,1.2-0.1v1.9c-0.7,0.1-1,0.1-1.7,0.1c-3.4,0-3.2-1.7-3.2-4.6v-7.1
			h-2.3v-1.8h2.3v-4h2.2v4h2.7V324.7z"/>
		<path d="M82.3,336.8c-4,0-6.3-2.6-6.3-7c0-4.3,2.5-7.3,6.2-7.3c4.4,0,6.1,3.5,6.1,7.4v0.3H78.3l0,0.2c0,2.9,1.6,4.6,4.2,4.6
			c1.9,0,3-0.8,3.6-2.9h2.2C87.5,335.2,85.5,336.8,82.3,336.8z M82.2,324.3c-2.2,0-3.7,1.6-4,4.1h7.8
			C85.8,325.9,84.4,324.3,82.2,324.3z"/>
		<path d="M97.7,324.9c-0.2,0-0.3,0-0.6,0c-3.6,0-4.3,2.8-4.3,5.8v5.7h-2.2v-13.4h2.1v2.9c0.9-2.3,2.6-3.2,5-3.2V324.9z"/>
	</g>
	<rect x="79.9" y="385.8" class="st13" width="5.2" height="92.8"/>
	<rect x="76.2" y="475.4" class="st13" width="12.8" height="6.8"/>
	<circle class="st15" cx="82.5" cy="382.5" r="7"/>
	<rect x="189" y="385.8" class="st13" width="5.2" height="92.8"/>
	<rect x="185.2" y="475.4" class="st4" width="12.8" height="6.8"/>
	<circle class="st15" cx="191.6" cy="382.5" r="7"/>
	<g id="Layer_3">
		<path class="st6" d="M390.8,401c-1.2,0.4-2.4,1.3-3.5,0.9s-1.5-2.3-2.6-3.1c-1-1.2-3-4.6-3-4.6c-0.7-0.5-1.9,0.2-2.5-0.5
			c-0.2-0.3-0.3-0.6-0.2-0.9c0-1.1,0.3-2.1,0.7-3.1c0.2-0.4,0.3-0.8,0.3-1.3c-0.1-0.7-0.8-1-1.2-1.5c-1-1.1-1-2.8-1-4.2
			c0-2-0.2-3.9-0.7-5.8c-0.3-1.4,0.7-2.9,1.7-3.9c2.7-2.2,6.2-3.2,9.7-2.7c3.4,0.5,6.7,1.8,9.5,3.8c1.2,0.7,2.2,1.6,3.1,2.6
			c1.5,1.9,2.5,4.1,2.8,6.5s0.4,4.8,0.5,7.2c0,1.7,0.4,3.3,1.2,4.7c0.2,0.2,0.3,0.5,0.4,0.7c0,0.2,0,0.5-0.1,0.7
			c-0.3,0.9-0.8,1.7-1.3,2.4c-2.6,3.8-1.6,4.1-5.8,6l-5.1-5L390.8,401z"/>
		<path class="st10" d="M390.2,385.9c0,0,1.3-4.8,3-4.1s1.4,2.5,1.9,3.9s5.7,5.2,9.8,3.6c1.1-3.2,1.4-6.5,0.9-9.8
			c-0.5-3.2-1.6-6.4-3.1-9.2c-0.5-1.1-1.2-2.1-2-3c-0.7-0.8-1.5-1.4-2.4-2c-1.2-0.9-2.6-1.5-4-2c-3.9-1.2-8.1-0.4-12,0.8
			c-2.5,0.8-5,1.7-6.9,3.6s-4.3,1.5-3.8,4c0.2,1.1,2.5,5,3.5,5.6s2.2,0.6,3.1,0c0.6-0.6,1.2-1.2,1.7-1.9s1.4-1,2.2-0.9
			c0.6,0.3,1,0.9,1.1,1.6c0.1,0.7,0.1,1.3,0.1,2c0,1.6,1,3.1,2.4,3.7c0.4,0.1,0.8,0.2,1.1,0.4c0.9,0.4,1.5,1.3,1.7,2.2
			c0.1,0.4,0.1,0.7,0.3,1.1c0.1,0.3,0.5,0.6,0.8,0.6"/>
		
			<ellipse transform="matrix(0.9736 -0.2284 0.2284 0.9736 -78.4393 97.3525)" class="st10" cx="381.4" cy="387.6" rx="0.9" ry="1.3"/>
		<path class="st11" d="M382.3,386c-0.9,0.2-1.8-0.8-2.9,0.5v0.2"/>
		<polygon class="st6" points="406.8,393.9 404.7,392.8 392.9,408 396.5,412.1 407.5,394.7 		"/>
		<polygon class="st20" points="363.9,436.4 361.5,435.8 359,443.7 361.2,444.2 365.4,444.3 		"/>
		<path class="st21" d="M445.8,474.4l-25.2,31.8c0,0-3.8,4.8-4.6,8.9l-13.3,50.8c0,0-3.2,1.8-7.3-1c0,0,2.3-36.6,3-40.3
			c0,0,0.8-13.4,4.3-20.1c0,0,15.4-35.1,21.5-41.2C424.2,463.2,442.5,469.4,445.8,474.4z"/>
		<path class="st6" d="M428.6,453.9l-10,9.4c0,0-18.9-20.8-19.7-26.8C398.8,436.4,425,447.1,428.6,453.9z"/>
		<polygon class="st5" points="420.9,468 416.4,463.3 417.2,462.6 421.8,467.2 		"/>
		<path class="st21" d="M447.8,453.8c0,0-0.2,2.8,9.7,17l13.9,21.3c0,0,3.6,5.4,8.1,2.8l44.5-11c0,0,3,3.9,2.9,7.5l-39,18.1
			c0,0-12.7,5.6-23.1-1.6c0,0-14-10.3-24-23.2l-21.7-20.5l18.8-11.8C437.9,452.4,445.4,450.9,447.8,453.8z"/>
		<polygon class="st10" points="431.4,456.9 421.2,467.4 417,463.2 429.4,451.9 		"/>
		<path class="st6" d="M459,420.8c0,0-0.5,4.1,0.2,5.8s3.3,2.4,5,1.5c1.7-0.9,0.1-2.6-2-2.9"/>
		<path class="st6" d="M464.3,417.1c0,0,5.8,3.8,6.2,6s-2.3,6.5-6.2,6.3s-5-3.2-1.7-5.4c3.4-2.2,4.8-1.9,5.4-1.4"/>
		<path class="st20" d="M463.7,415.3l1.3,2l-7.1,4.7l-1.8-2.3C456.1,419.7,460.1,413.4,463.7,415.3z"/>
		<path class="st7" d="M456.8,421.5l-14.7-16.7l-18,8.5l-10.3-13.8l24.3-8c0,0,5.7-3,9.6,1.5l17.2,22.5L456.8,421.5z"/>
		<path class="st7" d="M384.6,436.9c0,0-0.2,1.4-2.2,1.1l-19.4-2.5l-2.6,9l22.6,5.6c0,0,7.8,3.1,12-3.6l5-8.2l28.9,18.4
			c0,0,13.5,9,20.5-1.1s9.5-12.9,9.5-12.9s1.5-2.3-2.6-3.5c0,0-20.5-9.7-24.6-15.5c0,0-14.4-27-24.6-29.8
			C406.8,393.9,388.9,420.9,384.6,436.9z"/>
		<polygon class="st10" points="524.3,483.6 531.9,480.8 533.4,484.8 531.6,485.5 534.4,487.4 541.5,506.4 541.5,506.4 527.6,492.3 
					"/>
		<polygon class="st10" points="403.7,565.8 403.1,573.8 398.8,573.5 398.9,571.5 396.1,573.3 375.9,571.7 375.9,571.7 394.5,565.1 
					"/>
		<path class="st6" d="M383.7,397.5c0,0,3.1-3,3.8-5.1"/>
		<path class="st11" d="M377.8,384.6c0,0,3.1-1.5,5-0.3"/>
		<path class="st6" d="M361.5,435.8c0,0-7.2-7-7.4-5.2s0.2,2.2-2.2,2s-5.5,0-4.8,3.8s1.3,5.7,3.1,6.6s8.9,0.7,8.9,0.7L361.5,435.8z"
			/>
	</g>
	<path class="st20" d="M148.7,405.6h26.2c0,0,13.9,10.1,7.9,67.9c0,0,13.8,14.2,18.4,24.8l-3.7,0.5l-26.7-19.9l-6.3-44.7l-8.1,31.7
		l4.2,64l-6.2,2.8l-14.1-63.5C140.3,469.2,140,427.4,148.7,405.6z"/>
	<path class="st5" d="M178.7,372.4l7.7,23.4l-13.3,8.2c0,0-4-10-4.2-10.9S178.7,372.4,178.7,372.4z"/>
	<path class="st5" d="M174.9,405.6l3.8-33.3c0,0-3.3-14.4-16.1-16.9h-7.1l-12.1,4.4c0,0,7.2,39.8,5.3,45.8H174.9z"/>
	<path class="st5" d="M138,367.1c0,0,0.5-6.1,5.3-7.3s11.1,28.6,11.1,28.6l-15.1,17.2l-4.7-3.8l11.1-16.1L138,367.1z"/>
	<path class="st9" d="M155.3,322.6c0,0-7.3,0.7-8.2,6.7s-3.4,10-2.4,15.3s6.9,9.8,12.2,14.9s13.4,6.7,11.4,12.2c0,0,7.8-2.7,9.8-9.6
		c0,0,0.1,3.8,0,5.1c0,0,6.6-3.5,3.9-10.3s-7.8-9.9-7.1-14.1S169.7,319.2,155.3,322.6z"/>
	<path class="st6" d="M139.3,405.6c-1.4,1.6-3.3,2.6-5.3,2.9c-3.2,0.3-5.9-2.4-4.6-4.7s0.7-0.7,1-1.5s0.6-1.6,1.6-1.5
		c0.9,0.2,1.8,0.5,2.7,0.9L139.3,405.6z"/>
	<polygon class="st9" points="160.6,529.9 166,540.5 164.1,541.5 162.1,539.5 156.9,541.5 148.5,541.5 154.5,537.9 154.4,532.2 	"/>
	<polygon class="st9" points="201.6,498.6 197.5,499 201.8,510.7 210.5,517 210.1,506.5 	"/>
	<path class="st22" d="M272.7,188.2c-0.1-0.2-0.5-0.1-0.9-0.1c-0.2,0-0.5,0.1-0.9,0.2l0.3-1.4c0-0.2-1-0.9-1.3-0.6
		c-0.4,0.8-0.7,1.6-0.8,2.5c-0.7,0.1-1.3,0.4-1.9,0.6v-0.1c0-0.6-0.9-0.9-1.4-0.9c-0.2,0-0.4,0-0.4,0.2c-0.9,2.2-1.7,4.4-2.2,6.6
		h-0.1c0-1.9,0.2-3.7,0.5-5.6c0-0.5-0.4-0.5-0.6-0.5c-1,0-1.4,2.7-1.3,5.9v0.1c0.1,1.3-1,3.8-2.6,3.8c-1,0.1-1.4-0.6-1.5-1.5
		s0-1.7,0.2-2.6c0.2,0.5,0.7,0.8,1.2,0.7c1.6-0.1,2.1-2.4,2-4.8c-0.1-1.8-1-2.3-1.8-2.3c-1.8,0.1-3.1,5.1-3,8.4c0,0.2,0,0.3,0,0.5
		c-0.1-0.1-0.2-0.1-0.3-0.1l-0.2,0.1c-0.9-1.1-2.1-2.3-3-3.3c2.2-0.5,3.6-1.9,3.5-4.2s-2.2-3.9-4.6-4c0-0.1,0.1-0.2,0.1-0.3
		c-0.3-0.2-0.6-0.3-1-0.4c-0.5,0-0.4,0.3-0.5,0.6c0,0.1,0,0.2-0.1,0.3c-1.4,0.2-2.6,1.1-3,2.5c0.1,0.3,1.1,0.9,1.3,0.8
		c0,0,0.1,0,0.1-0.1c0.2-0.8,0.7-1.5,1.4-1.9c-0.4,3.2-1,9.6-1.2,12.7c0.4,0.2,0.9,0.4,1.3,0.4c0.3,0,0.5-0.5,0.5-1.2
		s-0.2-0.7-0.1-1l0.3-4.1h0.1c1.2,1.1,3.9,4.3,5.1,5.7c0.4-0.1,0.7-0.4,0.9-0.7V199c0.5,0.9,1.5,1.4,2.5,1.3c1.1-0.1,2-0.9,2.4-1.9
		c0.2,0.7,0.5,1.1,1.1,1c0.3,0,0.5-0.1,0.6-0.3c0.1-2.4,0.6-4.7,1.5-6.9h0.2c-0.2,1.3-0.3,2.6-0.3,3.8c0.1,1.6,0.5,2.9,1.9,2.9
		c0.9-0.1,1.7-0.7,1.9-1.6c0.3,0.9,1.2,1.5,2.2,1.5c1.2-0.1,3-1.7,2.9-3c-0.1-1.1-0.7-0.9-0.7-0.9c-0.3,1.3-1.3,2.3-2.6,2.5
		c-0.4,0-0.6-0.3-0.7-0.8c-0.2-2.9,0.1-3.1,0.9-7c0.9-0.2,1.9-0.4,2.8-0.5c0.1,0,0.3-0.1,0.3-0.2v-0.1c-0.1-0.2-0.3-0.4-0.4-0.6
		C273,188.3,272.8,188.5,272.7,188.2z M258.9,190c0.1-0.3,0.2-0.4,0.3-0.4s0.2,0.1,0.3,0.9c0.1,1.8-0.4,4-1.1,4
		c-0.4,0-0.5-0.5-0.5-0.5C258,192.6,258.4,191.3,258.9,190z M251.4,187c0.1,0,0.2,0,0.4,0c1.4-0.2,2.7,0.8,2.9,2.1
		c0,0.1,0,0.1,0,0.2c0.1,2.5-1.6,3.6-3.9,3.7C251,190.8,251.2,188.6,251.4,187z M268.2,195.8c0,0.2,0,0.4,0.1,0.5
		c-0.2,0.5-0.5,1.4-1.1,1.4s-0.8-0.4-0.9-1.4c-0.1-2.3,0.6-4.5,0.8-6.4c0.2,0.3,0.5,0.6,0.8,0.5l0.9-0.2
		C268.4,192.1,268.2,194,268.2,195.8z"/>
	<path class="st22" d="M285,194.2c-0.1,1.2-0.3,2.4-1.3,2.5c-0.7,0-0.9-0.5-0.9-1.4c0-1.9,0.3-3.9,0.8-5.7c0.1-0.5-0.7-0.4-0.8-0.5
		c0-0.1,0-0.1,0-0.2c0-0.6-0.6-1.4-2-1.3c-2.3,0.1-3.7,3.7-3.5,7.2c0.1,2.4,1.3,3.8,2.7,3.7c0.9-0.1,1.7-0.7,2-1.5h0.1
		c0.1,0.7,0.7,1.2,1.5,1.2c1.5-0.1,2.1-2.3,2.1-3.3c0-0.3-0.2-0.5-0.5-0.5C285.1,194.2,285.1,194.2,285,194.2z M279.8,197.1
		c-0.5,0-0.7-0.4-0.8-1.6c-0.1-2,0.5-6.7,1.9-6.8c0.4,0,0.4,0.4,0.4,0.6c0,0.7-0.2,1.4-0.5,2c0.3,0.2,0.6,0.3,0.9,0.4
		C281.7,192.4,280.9,197,279.8,197.1z"/>
	<path class="st22" d="M301.3,194.8l-2.2-1.4l0,0l-0.5-0.4c-0.2,0.2-0.4,0.4-0.5,0.6c-0.2,0.2-0.4,0.4-0.7,0.6
		c-0.3,0.2-0.5,0.3-0.8,0.4s-0.7,0.2-1,0.2c-0.5,0-1,0-1.4-0.2s-0.8-0.4-1.1-0.8c-0.3-0.3-0.6-0.8-0.8-1.2c-0.2-0.5-0.3-1-0.4-1.5
		l0,0c0-0.5,0-1,0.2-1.5c0.1-0.5,0.4-0.9,0.6-1.3c0.3-0.4,0.7-0.7,1.1-0.9c0.4-0.2,0.9-0.4,1.4-0.4c0.6-0.1,1.3,0.1,1.9,0.4
		c0.5,0.3,0.9,0.6,1.3,1.1l0.6-0.5l0,0l2-1.7c-0.3-0.4-0.6-0.7-1-1c-0.3-0.3-0.7-0.5-1.1-0.7l0,0l-0.2-0.1c-0.5-0.2-1.1-0.4-1.6-0.5
		c-0.6-0.1-1.3-0.1-1.9-0.1c-1,0-2,0.3-2.9,0.7c-1.7,0.8-3,2.2-3.6,4c-0.3,0.9-0.5,1.9-0.4,2.8l0,0c0.1,1.9,0.9,3.7,2.4,5
		c0.6,0.6,1.4,1.1,2.2,1.4c0.9,0.3,1.9,0.4,2.8,0.4c0.7,0,1.4-0.1,2-0.4c0.6-0.2,1.1-0.4,1.6-0.7l0.1-0.1l0,0h0.1l0,0
		c0.4-0.3,0.7-0.6,1-0.9C300.7,195.6,301,195.2,301.3,194.8z"/>
	<path class="st22" d="M313.9,195.2c-1.5-1.3-2.4-3.2-2.5-5.1l0,0c-0.1-2,0.6-3.9,1.9-5.4l0.2-0.2l0,0l-0.1-1.4l-3.9,0.2l-3.1,5.8
		l-3.7-5.4l-3.9,0.2v0.4l0.1,0.1l0.1,0.1l0.2,0.1l0.1,0.1l0.2,0.1h0.1l0.2,0.2c0.4,0.3,0.8,0.7,1.1,1.1l0.1,0.1l-2.1,1.8l0.3,5.1
		l2.4,1.5l-0.1,0.1c-0.3,0.5-0.6,0.9-1,1.4l-0.2,0.2l-0.1,0.1l-0.2,0.2l-0.1,0.1l-0.2,0.1l-0.1,0.1l-0.1,0.1v0.5l3.5-0.2l-0.5-8.4
		l4.1,5.5l3.5-6l0.5,8.4l3.6-0.2l-0.1-1.4l0,0L313.9,195.2z"/>
	<path class="st22" d="M325.8,186.4c-0.4-0.8-1-1.6-1.7-2.2s-1.5-1.1-2.4-1.4c-1-0.3-2-0.5-3-0.4c-1,0-2,0.3-2.9,0.7
		c-0.7,0.3-1.4,0.8-2,1.4l0,0l-0.1,0.1l0,0l-0.1,0.1l0,0c-0.6,0.7-1.1,1.5-1.4,2.4s-0.5,1.9-0.4,2.8l0,0c0,1,0.3,1.9,0.7,2.7
		c0.4,0.8,1,1.6,1.7,2.2l0,0l0.2,0.1l0,0l0.1,0.1h0.1c0.6,0.5,1.3,0.9,2.1,1.1c2.9,1,6.1,0.2,8.2-2c1.3-1.3,2-3.1,1.9-5l0,0
		C326.5,188.2,326.3,187.3,325.8,186.4z M322.8,189.4c0,0.5,0,1-0.2,1.5c-0.1,0.5-0.4,0.9-0.7,1.3c-0.3,0.4-0.7,0.7-1.1,0.9
		c-1,0.5-2.1,0.5-3.1,0.2c-0.5-0.2-0.9-0.5-1.2-0.8c-0.4-0.3-0.6-0.8-0.8-1.2c-0.2-0.5-0.3-1-0.4-1.5l0,0c0-0.5,0-1,0.2-1.5
		c0.1-0.5,0.4-0.9,0.7-1.3c0.3-0.4,0.7-0.7,1.1-0.9c1-0.5,2.1-0.5,3.1-0.2c0.9,0.4,1.7,1.1,2.1,2
		C322.7,188.4,322.8,188.9,322.8,189.4L322.8,189.4z"/>
	<path class="st11" d="M184.1,556.4c0,0,75.8,23,191.8,29.2"/>
	<path class="st11" d="M260.4,548.3c0,0,60,11.4,90.6,12.3"/>
	<path class="st11" d="M707.8,519.4c0,0-74.9,33-124.7,39.9"/>
	<path class="st11" d="M655,519.4c0,0-32,16.1-59,18.8"/>
	<line class="st11" x1="478.2" y1="422.8" x2="550.1" y2="406.2"/>
	<line class="st11" x1="503.1" y1="431.5" x2="537.3" y2="425.1"/>
	<line class="st11" x1="716.9" y1="315.4" x2="747.4" y2="297.2"/>
	<line class="st11" x1="727.9" y1="321.4" x2="749.5" y2="308.9"/>
	<line class="st11" x1="213.7" y1="414.9" x2="263.2" y2="429.1"/>
	<line class="st11" x1="202.2" y1="398.3" x2="279.7" y2="418.8"/>
</g>
</svg>
