<svg version="1.1" id="Layer_1" xmlns="http://www.w3.org/2000/svg" x="0" y="0" viewBox="0 0 1000 1000" xml:space="preserve"><style>.st1{fill:#bcbcbc}.st2,.st3{fill:#fff;stroke:#000;stroke-width:.5;stroke-miterlimit:10}.st3{fill:#ccc}.st5{fill:#1a1a1a}.st12,.st13,.st14{stroke:#000;stroke-width:.5;stroke-miterlimit:10}.st6{fill:#1a1a1a}.st6,.st7,.st9{stroke:#000;stroke-width:.5;stroke-miterlimit:10}.st7{fill:none}.st9{fill:#eaeaea}.st12{fill:#f2f2f2}.st13{fill:#0077bf}.st14,.st15,.st16{fill:#eb058c}.st15{opacity:.3}.st16{opacity:.2}.st17{fill:#ffe600;stroke:#000;stroke-width:.5;stroke-miterlimit:10}.st18{fill:#eb058c}</style><path d="M685.4 613.1S849.5 649.8 871 464.9c0 0 50.4-214.5-205.5-309.9 0 0-111.8-51.1-288.2-1.2 0 0-141.9 56.5-191.7 176.8 0 0-89.1 206.9-15.5 392.1 0 0 59 241 251.9 128.8 0 0 62.4-44.6 64.3-138.2 0 .1-6.7-144.9 199.1-100.2z" fill="#fff" id="Layer_7_4_"/><ellipse class="st1" cx="324.4" cy="817.2" rx="109.1" ry="10"/><ellipse class="st1" cx="527.1" cy="523" rx="58.1" ry="5.3"/><ellipse class="st1" cx="705" cy="697.4" rx="68.8" ry="6.3"/><path class="st2" d="M536.7 273.7l2.2 10.6-8 6-4.2-5.1-1.9-10.1z"/><path class="st3" d="M501.8 282l21.6 3.1 17 .4 21.6-4.2-4.9 77.9h-48.7z"/><path class="st3" d="M523.4 285.1l-20.9-5.1c-3.8-.9-7.3 2.3-6.7 6.1l7.6 51.3 49.1-19.4-2.7-7.9-34.7 9.3-3.5-23.4 11.8-10.9z"/><path class="st3" d="M540.4 285.5l20.8-6.2c3.1-.9 6.2 1.7 5.7 4.9l-8 55.4-41.6-14V317l29.9 4.8 4.7-30.1-11.5-6.2z"/><path class="st3" d="M521.7 317.7l28.1-7.6 2.7 7.9-7.8 3.3z"/><path class="st2" d="M517.2 317s-6.9-3.9-9.3-3.8c-2.3.1 0 3.2 0 3.2s-6.9-2.1-8-1.1 1.5 7.7 4.3 8.5c2.8.9 13 1.8 13 1.8V317zm32.6-6.9s7.2-6.6 7.4-5c.1 1.6 0 2.4 0 2.4l6.8-3.3s1.4 3.4-1.2 8c-2.5 4.6-10.3 5.9-10.3 5.9l-2.7-8zm-26.3-31.2l-4.8 5 2.4 9.9 9.8-8.5zm16.6 0l-9.2 6.4 7 8.5 4.6-7.1z"/><path d="M508.4 359.2l-11.3 78.5 20.5 78.5s10.2-.3 9.9-1.2c-.3-.9-13.2-76.1-13.2-76.1l13.5-53.2-5.3 50 16.7 79.6h8.7l-8.1-79 16.4-47.1.9-30.1h-48.7z" fill="#848484" stroke="#000" stroke-width=".5" stroke-miterlimit="10"/><path class="st5" d="M548 515.5v7.5h-4.1v-1.9l-2.6 1.9h-18.9l16.8-7.5z"/><path class="st5" d="M527.1 515.5v7.5H523v-1.9l-2.6 1.9h-18.9l16.8-7.5z"/><g id="Layer_7_1_"><path class="st2" d="M524.1 277.9c1.3.8 2.6 1.7 4.2 2 1 .2 2.2-.1 3.3-.4l.5-.1c1-.1 1.9-.5 2.7-1.1 1.3-1 2-2.4 2.8-3.7.6-.9 1.3-1.7 2.1-2.5.4-.4.8-.9 1-1.5.3-.7.5-1.5.6-2.3.1-1.2-.5-2.9.2-4 .6-1 1.4-1.5 1.7-2.7.5-2.2.4-4.5-.3-6.6-.2-.6-.7-1.5-1.4-.7-.3.3 0 .9-.3 1.2l-.1 1-1.2.3c-.2-.9-.4-1.8-.4-2.7-.4-1.9-.7-3.8-1.6-5.6-1.1-2.2-4.9-2.5-7.1-3.2-.4-.1-1-.5-1.4-.5-.6 0-.3 0-.7.4-1.8 1.7-2.7 3.1-5.3 3.7-2.1.5-4.3.6-6.4 1.2-2.8.9-4.9 3.5-4.6 6.4.1 1.1.5 2.2.7 3.3.1.8.3 1.5.5 2.3.1.2.1.5.2.7l-1.5.4c-.1-.2-.1-.5-.1-.6-.1-.4-.1-.7-.2-1-.1-.2-.2-.3-.3-.3-1-.4-1.1.7-1 1.3.4 2.2 1.3 4.3 2.7 6 .8 1 1.7 1.1 2.7 1.7 1.1.7 1.4 2.4 2 3.5.4.7.9 1.3 1.5 1.8.4.3.8.6 1.3.8 1 .6 2.2.9 3.2 1.5z"/><path class="st6" d="M512.1 262.9c0 .1.1.4.1.6l1.5-.4c0-.3-.1-.5-.2-.7-.2-.7-.4-1.5-.5-2.3-.2-1.1-.6-2.2-.7-3.3-.4-2.9 1.8-5.5 4.6-6.4 2.1-.7 4.3-.7 6.4-1.2 2.6-.6 3.5-2.1 5.3-3.7.5-.5.1-.4.7-.4.4 0 1 .4 1.4.5 2.2.7 6 .9 7.1 3.2.9 1.8 1.2 3.7 1.6 5.6.1.9.2 1.8.4 2.7l1.2-.3.1-1c.1-1 .2-2.1.1-2.5-.1-1.5-.3-3.1-.6-4.6-.4-3.7-1-7.2-4.1-9.7-3.3-2.6-7.6-3.6-9.5-2.9-.1 0-1.5.5-1.2.6-.9-.4-2.1-.2-3.1-.2-5 .1-10.3 4.2-13.1 8-2.9 4-1.4 7.8-.1 11.6.5 1.3.8 2.8 1.5 4 .4.6.6 1.3.8 1.9.2.2.3.5.3.9z"/><path class="st7" d="M528.8 254.8c.9-1.2 3.1.1 4.6 0m-15.8 3.8c1.4-.7 2.3-2.6 3.8-2"/><circle class="st6" cx="530.7" cy="256.9" r="1.2"/><circle class="st6" cx="519.9" cy="259.3" r="1.2"/><path class="st7" d="M526.2 272.3s4.4-2.9 8.9-1.4l.3 1.1-8.6 1.6-.6-1.3zm-.9-12.7c.6 1.2.9 2.5 1.1 3.9l.3 3c0 .5.2 1 .4 1.5.3.4.8.6 1 .3"/></g><path class="st7" d="M500.6 271.8l-8-5.8v9.1l-11-1.5 3.7 4.4-11.9 3.2 9.3 4.8-9.3 5.7 6.4 1.7-6.4 7.9 8.2 2.8-8.2 8.8h9.5l-5.7 10.4h7l-7 6.6h6.8l-5.2 8.2 8.2 3.1m75.3-73.8l7.9-5.7v9.1l11-1.5-3.6 4.3 11.9 3.3-9.3 4.7 9.3 5.7-6.5 1.7 6.5 7.9-8.3 2.9 8.3 8.8h-9.6l5.7 10.4h-7l7 6.5h-6.7l5.2 8.2-8.2 3.1m-83.3 33.9c-.6 0-8.7 2.8-8.7 2.8l8.7 2.8-8.7 6.7 5.6 2.6-7.2 6.5 7.2 2.8-5.6 7 5.6 2.6-7.2 5.7 7.2 2.8m81.3-42.7c.6 0 8.4 3.5 8.4 3.5l-8.9 2.1 8.1 7.4-5.8 2.1 6.7 7-7.4 2.3 5.1 7.4-5.8 2.1 6.7 6.3-7.4 2.3"/><path class="st2" d="M510 256.9l.9 16 3.2-16.4zm5.3-15.9l2.1 15.9 2.5-15.9zm22.4 7l1 15.9 2.2-14.5zm-9.6 47.3l1.1 17.7 3.6-14.3zm30.1-8.8l1 15.9 4.4-18zm-58.8-3l2.1 16.1 2.4-17.6zm9.9 51.4l.9 15.9 3-17.1zm34.1 5.3L546 353l1.8-15.6z"/><g id="Layer_7_2_"><path class="st2" d="M691.8 530l4.3 156.2h7.2l15-156.2z"/><path class="st2" d="M711.5 530l8.5 156.2h6.3L739.5 530z"/><path class="st5" d="M704.1 686.2v13.6h-2l-1.4-5.7-3.6 5.7h-20c7.7-1.6 14.2-6.6 17.8-13.6h9.2z"/><path class="st5" d="M727.6 686.2v13.6h-2l-1.4-5.7-3.6 5.7h-20c7.7-1.6 14.2-6.6 17.8-13.6h9.2z"/><path class="st2" d="M679.3 331.6c-.2 2.4 0 4.8-.2 5.7-.2.6-.4 1.1-.7 1.7-.4.9-1.1 2.2-.9 3.1l.6 3.9c.3 1.9-.4 3.5-2.3 3.8-2 .3-3.3-1.3-3.3-3.3l-.5-2.7c-.2-1.6-.8-3.2-1.6-4.6-1.5-3-1.3-6.9-.9-10 .3-1.9 2.5-3.5 5.5-5.3 1.5-.9 4-1.9 3.3.2-.6 1.7-5 4.9-2.7 9.7.1.2.5.8.8.8.9-.1.8-2.2 1-3.4.4-1.5 1.3-2.3 1.9-2.2s.1.9 0 2.6zm82.1-2.8c.6-.1 1.6.6 2 2.1.3 1.1.2 3.2 1.2 3.3.3 0 .6-.6.7-.8 2-4.9-2.5-7.8-3.2-9.5-.8-2 1.8-1.1 3.3-.3 3.1 1.7 5.3 3.1 5.7 5.1.6 3.1 1 7-.4 10.1-.8 1.5-1.3 3.1-1.4 4.7l-.3 2.8c0 2.1-1.1 3.7-3.2 3.5-1.9-.2-2.7-1.8-2.4-3.7l.4-3.9c.1-.9-.6-2.2-1.1-3-.3-.5-.5-1.1-.8-1.6-.2-.9-.2-3.3-.5-5.7 0-1.8-.6-3 0-3.1z"/><path d="M756.5 448.8c-8.3 5.3-5.3 15.2-5.3 15.2-11.2-3.7-46.3-18.9-39.7-30.8 3.7-6.7-5.5-13.6-8.9-15.4-4.1-2.2-5.6-15.6-5.3-25.5.3-7.6 0-17.2 15.1-25.6 7.3-4 18.2-5.2 33.7 10.6 26.7 26.9 30.7 58.5 10.4 71.5z" fill="#727272" stroke="#000" stroke-width=".5" stroke-miterlimit="10"/><path class="st9" d="M715.7 428.1l-1.3 1.1a10 10 0 0 1-6.8-4.7c-3.7-6.4-11.7-19.8-21.5-34.5l-6.6-44.7c-1.4-2.3-6.9-.6-8.2 1.1 0 0-.2 32.2 1.2 44.7 1.3 11.7 11.9 32.4 19.9 44.1 2.4 3.5 2.3 8.1-.2 11.5-1.4 1.8-2.6 3.8-3.6 5.9-.9 2.4-.8 5 .3 7.3l3.6 24.6c12.5 5.9 39.5 5.9 39.5 5.9-.7-3 .8-3.2 3.9-8.9.9-1.6 1.3-3.4 1.3-5.2l-.1-14.2c2.3-4.1 5.7-6.6 8.9-11.8 0 0 13.3-18.8-10.9-22.6l-4.2-3.2"/><path class="st9" d="M733.3 432.9c4.2-11.9 10.7-26 16.7-34.9l11.7-50.9c2.4-2.1 5-1.5 7.6-.8l-2.7 57.2c-4.1 13.2-14.6 40.8-22.6 50.2"/><path class="st2" d="M731 424.1c.1.2.2.4.2.6 0 .2-.1.4-.3.6-1.6 2.1-3.5 4.1-5.5 5.8-1.2 1-2.7 2.1-4.3 1.7-1-.3-1.8-.9-2.5-1.7l-3-3.1c1.2-1 1-2.8.8-4.3-.4-2-.9-3.9-1.4-5.9 3-2.8 6.7-4.7 10.7-5.6 1.4-.3 2.1-.1 2.3 1.3.2 1.4.3 2.5.5 3.7.5 2.5 1.3 4.8 2.5 6.9z"/><path class="st2" d="M710.7 419.7c-4.6-2.5-7.5-7.1-9-18.4-1.5-11.3 2.7-15.5 2.7-15.5 2.6-4.4 6.4-8.5 11.1-10.6 2.7-1 5.6-1.5 8.6-1.4 2.2-.2 4.3-.1 6.4.4 1.7.5 3.4 1.3 4.8 2.4 4.2 3 7.1 7.4 8.3 12.3 2.9 13.2-7.2 22.1-16.6 28.9-5.3 3.9-11.7 4.4-16.3 1.9z"/><path d="M740.1 410.8s-14-19.1-7.2-29.6c0 0-8 1.5-12.7.7-4.8-.8-13.3-1.5-17.6 8.1 0 0-.2 3.2-2.7 5.7l.4-4.9 3-7.2 10.5-8.5 10.1-3.4 10.8 3.3 7.3 6.1 4.4 15.2-5.6 11.3-.7 3.2z" fill="#727272"/><path class="st7" d="M740.1 410.8s-14-19.1-7.2-29.6c0 0-8 1.5-12.7.7-4.8-.8-13.3-1.5-17.6 8.1 0 0-1.5 3.5-1.1 4.6"/><path class="st2" d="M721.5 389.1c3.2.2 5.9 2.6 6.4 5.8m-12.2-7.8c-1.8-1.3-4.2-1.6-6.2-.8m3.9 17.2c-.7-.6-1.3-1.2-1.9-1.9-.2-.2-.3-.3-.4-.5-.2-.5.2-1 .5-1.4l1.8-2.1"/><ellipse transform="rotate(-53.658 723.049 394.168)" class="st6" cx="723.1" cy="394.2" rx="2" ry="1.6"/><ellipse transform="rotate(-53.658 709.61 390.269)" class="st6" cx="709.6" cy="390.3" rx="2" ry="1.6"/><path class="st2" d="M719.1 407.2s-2.9 3-6 3c-1.7 0-3-.5-3.8-2.9"/><path d="M692.6 484.6l-16.2 99.6s49.6 9.2 77.4 1.7c0 0-12.8-52.6-13.7-65.3-1-12.9-7.6-30.1-7.6-30.1s-34-1.8-39.9-5.9z" fill="#ddd" stroke="#000" stroke-width=".5" stroke-miterlimit="10"/><path class="st7" d="M669.2 385.9l-7.9 4.4 4 2-4 7.3h4l-2.3 7.6 8.4 1.5-2.2 8.7h5.5l-3.3 5.1h5m95.4-43l6.4 3.7-6.4 2.7 6.4 4.4-6.4 1.7 6.4 5.5-6.4 3 5.3 6.7-6.6 1.8"/></g><g id="Layer_8"><path class="st6" d="M350.5 461l-2.2 2.9-5.2 2.1c-.5.1-.9.4-1.2.8-5.8.5-13.2-.1-14 0-5 0-9 .2-12.3 1.6 3.4-6.1 7.1-11.9 10.8-17.8 3.5-5.5 7.3-10.7 10.9-16.1 3.4-5.1 3.8-10.1 6.1-15.6 6.8-16.2 19.2-26.1 37.3-23.8 17 2.1 26.4 18.9 24 34.5-.3 1.9-.7 3.8-1.3 5.6-1.4 5.1-3.3 9.9-4 15.4-1 7.8-1.3 15.6-.8 23.4.2 3.8 1.4 26.3-4.2 28.9L350.5 461z"/><path class="st2" d="M352.1 460.8c-.2.2-.4.5-.4.8 0 .3.1.6.3.9 1.8 3.3 4 6.5 6.5 9.4 1.5 1.7 3.4 3.5 5.7 3.3 1.4-.2 2.8-.9 3.8-1.8l5-3.6c-1.5-1.6-.8-4.1-.1-6.1 1-2.7 2.2-5.3 3.5-7.8-3.7-4.5-8.5-8.1-13.9-10.3-1.9-.8-2.9-.7-3.6 1.2s-.9 3.4-1.6 5.1c-1.3 3.2-3.1 6.2-5.2 8.9z"/><path class="st12" d="M330.9 803.1l43.8-100.7-4.1-106.9-52.8 5.1 32.9 98.5-30 104.9z"/><path class="st12" d="M338.4 601.2l12.3 97.9-42.1 103.4h-10.7l26-105.8-32.2-72.2c-3-6.8-4-14.4-2.7-21.7l2.2-12.6 47.2 11z"/><path class="st5" d="M317.8 802.5v20.2h3.1l2.2-8.5 5.5 8.5 30.5-.1c-11.8-2.4-21.8-9.8-27.3-20.1h-14z"/><path class="st5" d="M294.6 802.5v20.2h3.1l2.2-8.5 5.5 8.5 30.5-.1c-11.8-2.4-21.8-9.8-27.3-20.1h-14z"/><g id="Layer_7_3_"><path class="st2" d="M392.4 413.1c-.2 2.3-7.5 4-9.4 4.7-2.3 1-4.8 1.3-7.4 1.9-.2-.1-8.3 3.3-12.4 4.5-4.7 1.4-7.5 2.3-11.9 4.5-.1 2.5.2 6.8 2.5 7.4.7.2.9 1.1.9 1.8-.1 2.3-.1 5.2.8 7.3 0 0 3.9 6.7 10.4 12.1 6.5 5.4 16.3-1.7 16.3-1.7s9.1-6.1 12.5-17c3.5-10.9-2.3-25.5-2.3-25.5z"/><path class="st7" d="M373.2 425c-2.4-.8-5-.7-7.2.5m25.5 5.9c-1.7-1.9-4-2.9-6.6-3m-5.7 20.9s-7.5 3.8-12.1-2.9m9.7-13.7c-.6 1.7-.9 3.5-.8 5.2.1 1.3.4 2.7.5 4 .1.7.1 1.4-.2 2-.3.6-1.1.9-1.8.5m-1.3-14.2s-2.6-3.4-6.6-1.2m17.7 5s5.1-2.6 6.7 1.5"/><path class="st13" d="M282.9 603.4l99.9 11.3-14.7-64.1 19-41.5-4.9-31.5-2.4-5.2-37.3-10-29.8 8.5v21.6l2.2 52.4zm36.7-93s3.3 15.3 20.8 10.4m14.1 1.9s15.7 11.4 24.2 0"/><path class="st14" d="M375.7 540.6l-56.7-3.8c-2.2-.2-3.9-2-3.8-4.2l2.3-31.7c.2-2.2 2.1-3.8 4.3-3.7l56.7 3.8c2.2.2 3.9 2 3.8 4.2l-2.3 31.7c-.2 2.2-2.1 3.8-4.3 3.7z"/><path class="st14" d="M317.9 501.8l31.6 19.6 32.6-14.6"/><path class="st13" d="M325.4 535.4l-42.5 14.8c-9.6 3.1-18.5-6.2-14.6-15.2l28.2-54.4c2.8-5.4 7.6-9.5 13.4-11.6l32.7-6.5-6.4 4-45.9 62.4 34.2-4.4.9 10.9zm75.5-45.7l16.3 60.5c1.3 4.7-3.5 8.7-8.1 6.9L370.5 538v-10.1l23.7 7.3-7.1-23.7-5.2-33.5-2.5-5.5 17.8 11.5c1.8 1.4 3.1 3.4 3.7 5.7z"/><path class="st2" d="M352.2 456l-9.7 6.4 1.2 17 20.7-11.1 9.5 20.2 5.9-16.1-1.5-10-12.9 3.3zm-27.8 68.5s12-6.1 18.9 4.1c7.2 10.5-2.9 9.8-5.2 8s-2.7-3.4-4.8-3.1c-2.1.3-7.2 5.1-8 1.8-.1-.8-.9-10.8-.9-10.8zm46.1 3.3s-6.7-5-13-.8c-6.4 4.1-8.1 9-5.2 10.2s7.4-2.5 8.4-1.6c1 .9 9.1 3.4 9.8 2.4v-10.2z"/></g><ellipse class="st15" cx="388.2" cy="441.5" rx="3.7" ry="3.6"/><ellipse class="st15" cx="364" cy="436.3" rx="3.7" ry="3.6"/><ellipse class="st16" cx="350.9" cy="518.9" rx="74.6" ry="72.4"/><path class="st7" d="M312.3 362.4s-15.1 14.4 1.4 26.5c15.9 11.6-18.8 22.7-6 43.2"/><path class="st2" d="M329.3 365.3h-36.7c-14.6 0-23.6-8.8-26.5-25.7l-10.4-63.1c0-14.1 11.9-25.7 26.5-25.7h57.5c14.6 0 26.5 11.6 26.5 25.7l-10.4 63.1c-2.6 16.9-11.9 25.7-26.5 25.7z"/><path class="st17" d="M287.5 342.5c3 3.5 10.2 10 23.4 10 10 0 16.5-3.7 20.4-7 4-3.1 6.9-7.9 8-12.3 4.2-16.1-5-28.6-16.4-36.3 0 3.8-.6 6.9-1.7 9.6-4.5-5.4-9.5-11.2-9.5-21.7-10.5 7-19.1 18.3-17.1 32.6-2.3-2.3-4.3-5.2-5.6-9.4-7 8.1-11.1 19.6-4.3 31.1 1 1.2 1.8 2.3 2.8 3.4zm23.7-22.1c0 10.3 8.5 12.2 8.6 19.8.1 4.8-3.7 8.5-8.6 8.4-4.4-.1-7.7-4.6-8.7-8.4-2.2-8.8 2.7-15.7 8.7-19.8zm0 0"/><path class="st18" d="M311.4 351.9h-.2c-5.8-.1-10.1-5.4-11.4-10.7-2.2-8.9 1.5-17.5 10.2-23.5l3.5-2.4v4.2c0 5.2 2.3 8.1 4.7 11.1 2.2 2.8 4.5 5.7 4.6 10.1.1 3.1-1.1 5.9-3.2 8-2.2 2-5.1 3.2-8.2 3.2zm-1.9-27.6c-3.2 3.1-6.8 8.3-5 15.4.8 3.3 3.6 6.8 6.7 6.9 1.9 0 3.5-.6 4.7-1.8 1.2-1.2 1.8-2.8 1.8-4.5-.1-2.8-1.6-4.7-3.4-7.1-1.8-2.3-3.9-4.9-4.8-8.9z"/><path class="st7" d="M287.5 342.5c3 3.5 10.2 10 23.4 10 10 0 16.5-3.7 20.4-7 4-3.1 6.9-7.9 8-12.3 4.2-16.1-5-28.6-16.4-36.3 0 3.8-.6 6.9-1.7 9.6-4.5-5.4-9.5-11.2-9.5-21.7-10.5 7-19.1 18.3-17.1 32.6-2.3-2.3-4.3-5.2-5.6-9.4-7 8.1-11.1 19.6-4.3 31.1 1 1.2 1.8 2.3 2.8 3.4z"/></g><circle class="st16" cx="707.9" cy="318.2" r="78.4"/><path class="st7" d="M709.5 253.8s-10.8 10.7 1 19.6c11.4 8.6-13.5 16.8-4.3 31.9"/><path class="st2" d="M721.7 255.9h-26.3c-10.4 0-16.9-6.5-19-19l-7.5-46.6c0-10.4 8.5-19 19-19h41.2c10.4 0 19 8.5 19 19l-7.5 46.6c-1.8 12.5-8.5 19-18.9 19z"/><path class="st17" d="M691.7 239c2.1 2.6 7.3 7.4 16.8 7.4 7.1 0 11.9-2.7 14.7-5.2 2.9-2.3 4.9-5.9 5.7-9.1 3-11.9-3.6-21.2-11.7-26.8 0 2.8-.5 5.1-1.2 7.1-3.2-4-6.8-8.2-6.8-16-7.5 5.2-13.7 13.5-12.3 24.1-1.6-1.7-3.1-3.9-4-7-5 6-8 14.5-3.1 23 .6.9 1.2 1.8 1.9 2.5zm17-16.3c0 7.6 6.1 9 6.2 14.6.1 3.6-2.7 6.3-6.2 6.2-3.2-.1-5.5-3.4-6.2-6.2-1.6-6.4 1.9-11.5 6.2-14.6zm0 0"/><path class="st18" d="M708.8 246h-.1c-4.1-.1-7.2-4-8.2-7.9-1.6-6.6 1-12.9 7.3-17.4l2.5-1.8v3.1c0 3.8 1.6 5.9 3.3 8.2 1.6 2.1 3.2 4.2 3.3 7.5.1 2.3-.8 4.4-2.3 5.9-1.5 1.5-3.6 2.4-5.8 2.4zm-1.3-20.3c-2.3 2.3-4.8 6.1-3.6 11.3.6 2.5 2.6 5 4.8 5.1 1.3 0 2.5-.4 3.4-1.3.9-.9 1.3-2.1 1.3-3.4 0-2.1-1.1-3.5-2.5-5.2-1.3-1.7-2.8-3.6-3.4-6.5z"/><path class="st7" d="M691.7 239c2.1 2.6 7.3 7.4 16.8 7.4 7.1 0 11.9-2.7 14.7-5.2 2.9-2.3 4.9-5.9 5.7-9.1 3-11.9-3.6-21.2-11.7-26.8 0 2.8-.5 5.1-1.2 7.1-3.2-4-6.8-8.2-6.8-16-7.5 5.2-13.7 13.5-12.3 24.1-1.6-1.7-3.1-3.9-4-7-5 6-8 14.5-3.1 23 .6.9 1.2 1.8 1.9 2.5z"/><path class="st14" d="M726.7 332.8H686c-1.6 0-2.9-1.3-2.9-2.9v-23.4c0-1.6 1.3-2.9 2.9-2.9h40.8c1.6 0 2.9 1.3 2.9 2.9v23.4c0 1.6-1.3 2.9-3 2.9z"/><path class="st14" d="M683.4 307.1l23.7 12.9 22.6-12.3"/><circle class="st16" cx="440.8" cy="200.8" r="53.5"/><path class="st7" d="M442.9 155.6s-7.6 7.5.7 13.7c8 6-9.5 11.8-3 22.4"/><path class="st2" d="M451.4 157.1H433c-7.3 0-11.9-4.6-13.3-13.3l-5.2-32.7c0-7.3 6-13.3 13.3-13.3h28.9c7.3 0 13.3 6 13.3 13.3l-5.2 32.7c-1.4 8.7-6.1 13.3-13.4 13.3z"/><path class="st17" d="M430.4 145.2c1.5 1.8 5.1 5.2 11.8 5.2 5 0 8.3-1.9 10.3-3.7 2-1.6 3.5-4.1 4-6.4 2.1-8.3-2.5-14.8-8.2-18.8 0 1.9-.3 3.6-.8 5-2.2-2.8-4.8-5.8-4.8-11.2-5.3 3.6-9.6 9.5-8.6 16.9-1.2-1.2-2.2-2.7-2.8-4.9-3.5 4.2-5.6 10.2-2.1 16.1.3.7.7 1.3 1.2 1.8zm11.9-11.4c0 5.3 4.3 6.3 4.3 10.3.1 2.5-1.9 4.4-4.3 4.3-2.2 0-3.9-2.4-4.3-4.3-1.2-4.6 1.2-8.1 4.3-10.3zm0 0"/><path class="st18" d="M442.4 150.1h-.1c-2.9 0-5.1-2.8-5.7-5.5-1.1-4.6.7-9.1 5.1-12.2l1.8-1.3v2.2c0 2.7 1.1 4.2 2.3 5.7 1.1 1.4 2.3 2.9 2.3 5.3 0 1.6-.5 3.1-1.6 4.2-1.1 1-2.6 1.6-4.1 1.6zm-1-14.2c-1.6 1.6-3.4 4.3-2.5 8 .4 1.7 1.8 3.5 3.3 3.6.9 0 1.8-.3 2.4-.9.6-.6.9-1.4.9-2.4 0-1.5-.8-2.4-1.7-3.7-.9-1.2-1.9-2.6-2.4-4.6z"/><path class="st7" d="M430.4 145.2c1.5 1.8 5.1 5.2 11.8 5.2 5 0 8.3-1.9 10.3-3.7 2-1.6 3.5-4.1 4-6.4 2.1-8.3-2.5-14.8-8.2-18.8 0 1.9-.3 3.6-.8 5-2.2-2.8-4.8-5.8-4.8-11.2-5.3 3.6-9.6 9.5-8.6 16.9-1.2-1.2-2.2-2.7-2.8-4.9-3.5 4.2-5.6 10.2-2.1 16.1.3.7.7 1.3 1.2 1.8z"/><path class="st14" d="M454.9 211h-28.6c-1.1 0-2-.9-2-2v-16.4c0-1.1.9-2 2-2h28.6c1.1 0 2 .9 2 2V209c.1 1.1-.8 2-2 2z"/><path class="st14" d="M424.6 193l16.5 9 15.9-8.6"/></svg>