<svg xmlns="http://www.w3.org/2000/svg" viewBox="0 0 1000 1000"><defs><style>.cls-18{fill:none}.cls-11,.cls-3{fill:#fff}.cls-11,.cls-14,.cls-18,.cls-19,.cls-5,.cls-7,.cls-8{stroke:#000;stroke-width:.5px;stroke-miterlimit:10}.cls-5{fill:#c6c6c6}.cls-7{fill:#d8d8d8}.cls-8{fill:#f4f4f4}.cls-16{fill:#c4c4c4}.cls-14,.cls-15{fill:#0077bf}.cls-19{fill:#eb058c}</style><clipPath id="clip-path"><path fill="none" d="M579.29 258.39h91.98v55.71h-91.98z"/></clipPath></defs><g style="isolation:isolate"><g id="Layer_1" data-name="Layer 1"><path class="cls-3" d="M368.9 749.81S238 833.07 117.59 709.37c0 0-160.12-173.68 28.39-397.63 0 0 75.22-116.56 268.36-153.08 68.66-13 205-10.09 304.74 62.17 0 0 116.61 84.63 159 209.09 28.19 82.78 85.5 338.57-115.4 380.65 0 0-104.08 14.13-155.15-72.23.04.04-70.15-138.71-238.63 11.47z" id="Layer_6" data-name="Layer 6"/><path stroke-miterlimit="10" stroke="#000" stroke-width=".5" fill="gray" d="M870.19 753.91l-509.4-3.39v33.45l507.04 2.49 2.36-32.55z"/><path class="cls-5" d="M870.19 753.91l-126.14-45.1H268.78l92.01 41.71 509.4 3.39z"/><path fill="#a5a5a5" stroke-miterlimit="10" stroke="#000" stroke-width=".5" d="M360.79 750.52l-92.01-41.71v23.94l92.01 51.22v-33.45z"/><path class="cls-5" d="M509.9 631.8v74.26s-1.06 21.22 40.81 15.8v6.87s-15.26-4.13-27.15-2.5c-12.52 1.72-68.13-1.67-74.12-13.65V631.8z"/><path class="cls-7" d="M452.22 631.8v74.26s-1.05 21.22 40.82 15.8v6.87s-37.13 9.72-50.07-16.15V631.8z"/><path class="cls-8" d="M493.04 721.86h57.67v6.87h-57.67z"/><path d="M313.41 681.74L621.28 669a13.64 13.64 0 0 0 13.64-13.64l13.66-200.4c-7.13-13.34-11.21-15.8-18.74-15.8l-316.11-7.8c-7.54 0-18 7.72-16.79 24.11L293.74 658c0 7.57 4.84 23.74 19.67 23.74z" fill="#ccc" stroke-miterlimit="10" stroke="#000" stroke-width=".5"/><path d="M318.21 681.74l319.06-1.59a13.64 13.64 0 0 0 13.64-13.64V453a13.64 13.64 0 0 0-13.64-13.64l-319.06-8A13.64 13.64 0 0 0 304.57 445v223.11a13.64 13.64 0 0 0 13.64 13.63z" fill="#e8e8e8" stroke-miterlimit="10" stroke="#000" stroke-width=".5"/><path class="cls-11" d="M632.3 661.5l-298.74 1V449.91l298.74 8V661.5z"/><path d="M610.22 490.03l-257.08-5v-6.97l257.08 5v6.97zm0 21.26l-257.08-5v-6.97l257.08 5v6.97zm0 21.26l-257.08-5v-6.97l257.08 5v6.97zm0 21.26l-257.08-5v-6.96l257.08 5v6.96zm0 21.26l-257.08-5v-6.96l257.08 5v6.96zm0 21.27l-257.08-5v-6.97l257.08 5v6.97zm0 21.26l-257.08-5v-6.97l257.08 5v6.97zm0 21.26l-257.08-5v-6.97l257.08 5v6.97z" fill="#d1d1d1"/><path style="mix-blend-mode:multiply" fill="#c4c4c4" stroke-miterlimit="10" stroke="#000" stroke-width=".5" d="M632.3 661.5l-298.74 1V449.91l298.74 8V661.5z"/><path class="cls-11" d="M549.22 603.08l-130.79-2.56a6.1 6.1 0 0 1-6-6.1v-76.79a6.1 6.1 0 0 1 6.23-6.1l130.79 2.56a6.1 6.1 0 0 1 6 6.1V597a6.1 6.1 0 0 1-6.23 6.08z"/><path class="cls-14" d="M555.44 527.05l-143-2.8v-7.92l143 2.8v7.92z"/><path class="cls-15" d="M445.35 543.68a7.43 7.43 0 0 1-6.33-3.86 7.1 7.1 0 0 1-6.34 3.61 7.44 7.44 0 0 1-7.25-7.39h1.83a5.56 5.56 0 0 0 5.42 5.53 5.3 5.3 0 0 0 5.42-5.32h1.83a5.56 5.56 0 0 0 5.42 5.53 5.31 5.31 0 0 0 5.43-5.32h1.82a7.09 7.09 0 0 1-7.25 7.22z"/><path class="cls-15" d="M458 543.92a7.42 7.42 0 0 1-7.25-7.39h1.82a5.57 5.57 0 0 0 5.43 5.57 5.3 5.3 0 0 0 5.42-5.32h1.83a7.09 7.09 0 0 1-7.25 7.14z"/><path class="cls-15" d="M470.7 544.17a7.43 7.43 0 0 1-7.25-7.39h1.83a5.56 5.56 0 0 0 5.42 5.53 5.31 5.31 0 0 0 5.42-5.32h1.83a7.09 7.09 0 0 1-7.25 7.18z"/><path class="cls-15" d="M483.37 544.42a7.43 7.43 0 0 1-7.25-7.39h1.83a5.56 5.56 0 0 0 5.42 5.53 5.29 5.29 0 0 0 5.42-5.31h1.83a7.09 7.09 0 0 1-7.25 7.17z"/><path class="cls-16" d="M544.43 559.29l-123-2.41v-3.8l123 2.41v3.8zm-14.57 8.2l-108.43-2.12v-3.8l108.43 2.12v3.8zm-15.6 8.18l-92.83-1.82v-3.8l92.83 1.82v3.8zm0 10l-92.83-1.82v-3.8l92.83 1.82v3.8z"/><path stroke-linejoin="round" fill="#f4f4f4" stroke="#000" stroke-width=".5" d="M449.6 738.47h202.13l-44.72-12.83H404.88l44.72 12.83z"/><path class="cls-8" transform="rotate(180 550.665 743.33)" d="M449.6 738.47h202.13v9.72H449.6z"/><path class="cls-7" d="M449.6 748.19l-44.72-14.67v-7.88l44.72 12.83v9.72z"/><path class="cls-18" d="M602.3 729.13H429.17m186.31 2.92H442.35m186.31 2.92H455.53m-13.4-5.84c.66 0 26.2 5.84 26.2 5.84m-11.6-5.84c.66 0 26.2 5.84 26.2 5.84m-11.6-5.84c.66 0 26.2 5.84 26.2 5.84m-11.6-5.84c.66 0 26.2 5.84 26.2 5.84m-11.6-5.84c.66 0 26.2 5.84 26.2 5.84m-11.6-5.84c.66 0 26.2 5.84 26.2 5.84m-11.6-5.84c.66 0 26.2 5.84 26.2 5.84m-11.6-5.84c.66 0 26.2 5.84 26.2 5.84m-11.6-5.84c.66 0 26.2 5.84 26.2 5.84m-11.6-5.84c.66 0 26.21 5.84 26.21 5.84m-11.6-5.84c.65 0 26.2 5.84 26.2 5.84"/><path class="cls-11" d="M561.88 664l-16 64-56.3.43s-24-20.59-33.42-14.23-9.16 10.33-9.16 10.33 23.74 4.09 24.14 9.54 10.3 6.66 13.66 7c2.75.32 55.36 12.88 74.32 17.43a7.9 7.9 0 0 0 9.21-4.88l33.25-87.54zm232.5-5.34l24 73.59A10.42 10.42 0 0 1 807 745.8l-98.12-14-2.4-12.6 71.93-6-17.92-52.51zM662.4 546.85l29.69 53.61-58 3.85s11.54-38.59-14.39-47.78c-6.97-2.53 42.7-9.68 42.7-9.68z"/><path class="cls-19" d="M607.09 665.32l-15.45 43.16L545 689.14l22.39-56.86c16.76-38 45.92-54.17 66.93-53.28s21.32 2.54 32.3-3.89 44-1.53 71.77 8.15S816 675.32 816 675.32l-53.29 8.52-20.62-42.28 53.86 144.9-185.09-1.6z"/><path class="cls-11" d="M573.66 448.19s-7.19 46.09-1.6 60.21 5.83 20.78 6.11 22.11 30.29 54.89 62.63 22c36.55-37.13-27.18-125.9-67.14-104.32z"/><path d="M685.42 477.5c-2.61-30.87-13.59-42.89-40.5-42.1 0 0-44.49-25.84-69.53 9.86 0 0-8.26 10.92-16.52 10.92 0 0 1.33 33.84 28.51 49.29 0 0 12.25-8.79 14.92 2.93s-5.07 17.6-5.07 17.6 9.71 12.53 20.5 20.87c11.41 8.83 19.69 14 26 16.34 0 0 4.59-22.11 24-6.66.03-.02 19.27-60.12 17.69-79.05z" stroke-miterlimit="10" stroke="#000" stroke-width=".5"/><path class="cls-11" d="M553.55 398.59h8.35l.32 31.33 31.38-31.33h102.49a14.73 14.73 0 0 0 14.7-14.69V236.28a14.73 14.73 0 0 0-14.7-14.69H553.55a14.73 14.73 0 0 0-14.7 14.69V383.9a14.73 14.73 0 0 0 14.7 14.69zM509 407.82h-8.36l-.31 31.33-31.39-31.33H366.4a14.74 14.74 0 0 1-14.69-14.7V216a14.73 14.73 0 0 1 14.69-14.7H509a14.73 14.73 0 0 1 14.64 14.7v177.12a14.74 14.74 0 0 1-14.64 14.7z"/><rect class="cls-11" x="373.67" y="220.83" width="130.38" height="167.47" rx="4.76" ry="4.76"/><path class="cls-14" d="M378.43 220.83h120.85a4.76 4.76 0 0 1 4.76 4.76v6H373.67v-6a4.76 4.76 0 0 1 4.76-4.76z"/><path class="cls-16" d="M393.77 323.56h88.42v5.89h-88.42zm0 11.62h88.42v5.89h-88.42zm0 11.62h88.42v5.89h-88.42z"/><circle class="cls-11" cx="382.35" cy="226.2" r="2.97"/><circle class="cls-11" cx="390.64" cy="226.2" r="2.97"/><circle class="cls-11" cx="398.93" cy="226.2" r="2.97"/><path class="cls-19" d="M416.86 364.96h43.74v9.74h-43.74z"/><path class="cls-3" d="M435.83 371.56a3.47 3.47 0 0 1-3-1.78 3.47 3.47 0 0 1-6.5-1.69h.88a2.59 2.59 0 1 0 5.18 0h.88a2.59 2.59 0 1 0 5.18 0h.87a3.47 3.47 0 0 1-3.49 3.47z"/><path class="cls-3" d="M441.88 371.56a3.47 3.47 0 0 1-3.46-3.47h.87a2.6 2.6 0 1 0 5.19 0h.87a3.48 3.48 0 0 1-3.47 3.47z"/><path class="cls-3" d="M447.94 371.56a3.47 3.47 0 0 1-3.46-3.47h.87a2.59 2.59 0 1 0 5.18 0h.88a3.48 3.48 0 0 1-3.47 3.47z"/><path class="cls-15" d="M426.57 315.06a6.77 6.77 0 0 1-5.92-3.48 6.78 6.78 0 0 1-12.7-3.29h1.7a5.07 5.07 0 0 0 10.14 0h1.71a5.07 5.07 0 0 0 10.14 0h1.71a6.78 6.78 0 0 1-6.78 6.77z"/><path class="cls-15" d="M438.42 315.06a6.78 6.78 0 0 1-6.78-6.77h1.71a5.07 5.07 0 0 0 10.14 0h1.71a6.79 6.79 0 0 1-6.78 6.77z"/><path class="cls-15" d="M450.27 315.06a6.78 6.78 0 0 1-6.78-6.77h1.71a5.07 5.07 0 0 0 10.13 0H457a6.78 6.78 0 0 1-6.73 6.77z"/><path class="cls-15" d="M462.11 315.06a6.78 6.78 0 0 1-6.78-6.77H457a5.07 5.07 0 0 0 10.14 0h1.71a6.78 6.78 0 0 1-6.74 6.77z"/><circle class="cls-15" cx="437.98" cy="270.84" r="25.21"/><path class="cls-11" d="M409.21 252.94h59.68v34.56h-59.68z"/><path class="cls-19" d="M409.21 252.94h59.68v6.74h-59.68z"/><circle class="cls-15" cx="442.14" cy="269.28" r="5.48"/><circle class="cls-15" cx="456.46" cy="277.62" r="5.48"/><path fill="#ffe600" d="M416.07 263.8h10.49v19.29h-10.49z"/><path class="cls-11" d="M318.38 449.16H310l-.31 31.34-31.39-31.34H175.83a14.73 14.73 0 0 1-14.69-14.69V281a14.73 14.73 0 0 1 14.69-14.69h142.55A14.73 14.73 0 0 1 333.07 281v153.47a14.73 14.73 0 0 1-14.69 14.69z"/><rect class="cls-11" x="195.11" y="288.13" width="106.32" height="136.56" rx="4.76" ry="4.76"/><path class="cls-14" d="M199.87 288.13h96.8a4.76 4.76 0 0 1 4.76 4.76v4H195.11v-4a4.76 4.76 0 0 1 4.76-4.76z"/><path class="cls-16" d="M211.51 380.15h72.1v4.81h-72.1zm0 9.48h72.1v4.81h-72.1z"/><circle class="cls-11" cx="202.19" cy="292.51" r="2.43"/><circle class="cls-11" cx="208.95" cy="292.51" r="2.43"/><circle class="cls-11" cx="215.71" cy="292.51" r="2.43"/><path class="cls-19" d="M230.33 405.66H266v7.94h-35.67z"/><path class="cls-3" d="M245.8 411.05a2.82 2.82 0 0 1-2.47-1.46 2.83 2.83 0 0 1-5.3-1.37h.72a2.11 2.11 0 1 0 4.22 0h.72a2.11 2.11 0 1 0 4.22 0h.72a2.83 2.83 0 0 1-2.83 2.83z"/><path class="cls-3" d="M250.74 411.05a2.83 2.83 0 0 1-2.83-2.83h.72a2.11 2.11 0 1 0 4.22 0h.72a2.83 2.83 0 0 1-2.83 2.83z"/><path class="cls-3" d="M255.68 411.05a2.83 2.83 0 0 1-2.83-2.83h.72a2.11 2.11 0 1 0 4.22 0h.72a2.83 2.83 0 0 1-2.83 2.83z"/><path class="cls-19" d="M270.38 362h-45.65a3.9 3.9 0 0 1-3.9-3.91v-30.58l26.73-18.27 26.73 18.27v30.57a3.91 3.91 0 0 1-3.91 3.92z"/><path class="cls-11" d="M224.11 316.36h46.43v43.25h-46.43z"/><path d="M228.04 321.44h38.87v1.7h-38.87zm0 3.76h38.87v1.7h-38.87zm0 3.76h38.87v1.7h-38.87zm0 3.76h38.87v1.7h-38.87zm0 3.76h38.87v1.7h-38.87zm0 3.76h38.87v1.7h-38.87z" fill="#bfbfbf"/><path class="cls-19" d="M270.38 362h-45.65a3.9 3.9 0 0 1-3.9-3.91v-30.3l26.73 18.48 26.73-18.48v30.29a3.91 3.91 0 0 1-3.91 3.92z"/><rect class="cls-11" x="556.34" y="237.36" width="136.95" height="141.68" rx="4.76" ry="4.76"/><path d="M693.3 322.08v51.34a5.62 5.62 0 0 1-5.62 5.62H562a5.62 5.62 0 0 1-5.62-5.62v-51.34z" fill="#d8d8d8"/><path class="cls-14" d="M561.1 237.36h127.44a4.76 4.76 0 0 1 4.76 4.76v6.52h-137v-6.52a4.76 4.76 0 0 1 4.8-4.76z"/><rect class="cls-18" x="556.34" y="237.36" width="136.95" height="141.68" rx="4.76" ry="4.76"/><circle class="cls-11" cx="565" cy="243" r="3.12"/><circle class="cls-11" cx="573.71" cy="243" r="3.12"/><circle class="cls-11" cx="582.42" cy="243" r="3.12"/><path class="cls-19" d="M643.95 362.14h38.45v8.56h-38.45z"/><path class="cls-3" d="M660.62 368a3 3 0 0 0-5.32 0 3.06 3.06 0 0 1-3-3.05h.7a2.28 2.28 0 1 0 4.55 0h.77a2.28 2.28 0 1 0 4.56 0h.77a3.06 3.06 0 0 1-3.03 3.05z"/><path class="cls-3" d="M666 368a3.06 3.06 0 0 1-3.05-3.05h.77a2.28 2.28 0 1 0 4.56 0h.72a3 3 0 0 1-3 3.05z"/><path class="cls-3" d="M671.27 368a3 3 0 0 1-3-3.05h.73a2.28 2.28 0 1 0 4.56 0h.77a3.06 3.06 0 0 1-3.06 3.05zm-59.81-32.83a7.13 7.13 0 0 1-6.23-3.66 7.12 7.12 0 0 1-13.34-3.46h1.8a5.33 5.33 0 1 0 10.65 0h1.79a5.33 5.33 0 1 0 10.65 0h1.8a7.13 7.13 0 0 1-7.12 7.12z"/><path class="cls-3" d="M623.9 335.17a7.13 7.13 0 0 1-7.12-7.12h1.8a5.33 5.33 0 1 0 10.65 0H631a7.12 7.12 0 0 1-7.1 7.12z"/><path class="cls-3" d="M636.35 335.17a7.12 7.12 0 0 1-7.12-7.12H631a5.33 5.33 0 1 0 10.65 0h1.8a7.13 7.13 0 0 1-7.1 7.12z"/><path class="cls-3" d="M648.79 335.17a7.13 7.13 0 0 1-7.12-7.12h1.8a5.33 5.33 0 1 0 10.65 0h1.79a7.12 7.12 0 0 1-7.12 7.12zm-79.39 5.23h111.82v3.25H569.4zm0 6.73h111.82v3.25H569.4zm0 6.73h74.54v3.25H569.4z"/><path fill="#cecece" stroke-miterlimit="10" stroke="#000" stroke-width=".5" d="M579.29 258.39h91.98v55.71h-91.98z"/><g clip-path="url(#clip-path)"><path class="cls-14" d="M602.55 319.1c0-17.36 10.19-36.22 22.76-36.22s22.76 18.86 22.76 36.22z"/><circle class="cls-14" cx="624.77" cy="274.28" r="12.69"/></g><path class="cls-18" d="M579.29 258.39h91.98v55.71h-91.98z"/><path class="cls-3" d="M624.1 306.33a20.08 20.08 0 1 1 20.08-20.08 20.11 20.11 0 0 1-20.08 20.08zm0-35.87a15.79 15.79 0 1 0 15.79 15.79 15.81 15.81 0 0 0-15.79-15.79z"/><path class="cls-3" d="M636.48 286.73l-17.96-10.37v20.74l17.96-10.37z"/></g></g></svg>