<svg version="1.1" id="Layer_1" xmlns="http://www.w3.org/2000/svg" x="0" y="0" viewBox="0 0 1000 1000" xml:space="preserve"><style>.st0{fill:#fff}.st1{fill:#bcbcbc}.st3{fill:#0077bf;stroke:#000;stroke-width:.5;stroke-miterlimit:10}.st4{font-family:&apos;MyriadPro-Regular&apos;}.st5{font-size:35.8765px}.st10,.st12,.st14{stroke:#000;stroke-width:.5;stroke-miterlimit:10}.st6{fill:#eb058c}.st6,.st7,.st9{stroke:#000;stroke-width:.5;stroke-miterlimit:10}.st7{fill:#ffe600}.st9{fill:#d8d8d8}.st10{fill:#fff}.st12{fill:none}.st14{fill:#fff;stroke-linejoin:round}</style><path class="st0" d="M573.9 238.6S595 50.5 384.6 49.2c0 0-247.4-29.9-323.2 268.1 0 0-43.8 131.4 34 322.6 0 0 80.9 151.8 222.3 192.7 0 0 243.6 74.2 442.7-31 0 0 240.8-118.2 113.9-297.7 0 0-57.8-64.4-163.2-54.9-.1 0-162.2 25.3-137.2-210.4z" id="Layer_7_4_"/><ellipse class="st1" cx="600.6" cy="777.2" rx="73.9" ry="11.1"/><ellipse class="st1" cx="456.1" cy="759.6" rx="69" ry="11.1"/><ellipse class="st1" cx="296.5" cy="715.5" rx="65.1" ry="9.8"/><ellipse class="st1" cx="292" cy="677.9" rx="83.8" ry="12.6"/><ellipse transform="rotate(-84.703 770.049 788.64) scale(.99997)" class="st1" cx="770" cy="788.6" rx="11.1" ry="73.9"/><path fill="#f7f7f7" stroke="#000" stroke-width=".5" stroke-miterlimit="10" d="M230 166.7h125.7v514H230z"/><path class="st3" d="M338.7 291.9h-92.9c-4.4 0-7.9-3.6-7.9-7.9v-45.2c0-4.4 3.6-7.9 7.9-7.9h92.9c4.4 0 7.9 3.6 7.9 7.9V284c0 4.4-3.6 7.9-7.9 7.9z"/><text transform="translate(246.152 208.65)" class="st4 st5">Usage</text><text transform="translate(282.1 272.338)" class="st0 st4 st5">275</text><path class="st6" d="M255.4 322.4h74.9v8.6h-74.9zm0 32.7h74.9v8.6h-74.9zm0 32.7h74.9v8.6h-74.9zm0 32.7h74.9v8.6h-74.9zm0 32.7h74.9v8.6h-74.9zm0 32.7h74.9v8.6h-74.9zm0 32.7h74.9v8.6h-74.9zm0 32.7h74.9v8.6h-74.9zm0 32.7h74.9v8.6h-74.9z"/><path class="st7" d="M269.2 239c0 2.7-2.4 5-5.4 5-3 0-5.4-2.2-5.4-5 0-2.7 2.4-5 5.4-5 3 0 5.4 2.2 5.4 5zm-3.5 6.5c-1.3-.3-2.8-.2-4.1 0-9 1-11.9 10.5-11.1 17.8.4 3.2 5.8 3.2 5.4 0-.3-2.7-.2-6.7 1.4-9.5v11c0 8.3 0 12.8-.4 21.1-.2 3.7 6 3.6 6.2 0 .3-6.5.4-9.3.4-15.7h.9c0 6.5.1 9.3.4 15.7.2 3.6 6.4 3.7 6.2 0-.4-8.2-.4-12.8-.4-21.1 0-.3 0-.5-.1-.7 0-3.6-.2-7.2-.1-10.7 1.9 2.9 2 7.2 1.7 10.1-.4 3.2 5.1 3.2 5.4 0 .7-7.6-2.3-17.4-11.8-18zm0 0"/><path class="st3" d="M374.2 110.8c-1.6 2.4-4.9 3-7.6 1.3-2.6-1.7-3.5-5-1.9-7.4 1.6-2.4 4.9-3 7.6-1.3 2.7 1.7 3.5 5 1.9 7.4zm-6.7 3.7c-1-1-2.3-1.8-3.6-2.3-8.4-4.3-16.4 2.4-19.8 9.2-1.5 3 3.2 6.1 4.7 3.1 1.2-2.5 3.6-5.9 6.6-7.5l-5.9 9.1c-.1.1-.1.2-.2.3l-.1.1c-4.7 7.2-7.3 11.2-12.3 18.2-2.2 3.1 3.2 6.6 5.4 3.5 3.9-5.5 5.6-7.9 9.3-13.5.2.2.5.3.8.5-3.7 5.7-5.2 8.1-8.6 13.9-1.9 3.3 3.5 6.8 5.4 3.5 4.4-7.4 7-11.4 11.6-18.6.1-.2.2-.4.3-.7 2-3.1 3.9-6.3 6-9.4 0 3.6-2.4 7.5-4.2 9.8-2.1 2.6 2.6 5.6 4.7 3.1 4.9-6.1 7.8-16.4-.1-22.3zM219 109.8c1.7 1.7 1.5 4.6-.4 6.4-1.9 1.8-4.8 1.9-6.4.1s-1.5-4.6.4-6.4c1.9-1.8 4.7-1.9 6.4-.1zm1.7 6.2c-1 .7-1.9 1.5-2.6 2.5-5.1 6-1.2 13.8 3.7 17.9 2.1 1.8 5.6-1.5 3.4-3.3-1.8-1.5-4.1-4.1-4.9-6.8l6.3 6.6.2.2.1.1c5 5.2 7.7 8.1 12.5 13.5 2.1 2.4 6-1.3 3.9-3.7-3.7-4.2-5.3-6-9.2-10.1.2-.2.4-.3.6-.5 3.9 4.1 5.6 5.8 9.7 9.7 2.3 2.2 6.2-1.5 3.9-3.7-5.2-5-8-7.8-12.9-13-.2-.2-.3-.3-.5-.4-2.2-2.3-4.4-4.4-6.5-6.7 2.9.7 5.6 3.3 7.1 5.3 1.7 2.2 5.1-1.1 3.4-3.3-4.1-5.3-11.9-9.6-18.2-4.3zm0 0"/><path class="st7" d="M295.4 76c.3 3.1-2.3 5.9-5.7 6.2-3.4.3-6.4-2-6.6-5.2s2.3-5.9 5.7-6.2c3.4-.2 6.4 2.1 6.6 5.2zm-3.4 7.7c-1.6-.2-3.2 0-4.7.4-10.2 1.9-12.6 13.1-11 21.3.7 3.6 6.9 3.1 6.2-.5-.6-3-.8-7.6.7-11l1 11.8c0 .1 0 .3.1.4v.2c.8 9.4 1.2 14.6 1.5 24 .2 4.2 7.2 3.6 7-.6-.3-7.4-.4-10.6-1-17.9.3 0 .7 0 1-.1.6 7.4 1 10.5 1.9 17.9.5 4.1 7.6 3.6 7-.6-1.2-9.3-1.6-14.6-2.4-23.9 0-.3-.1-.5-.2-.8-.3-4.1-.8-8.1-1.1-12.2 2.4 3.1 3 8 2.9 11.3-.1 3.7 6 3.1 6.2-.5.1-8.5-4.3-19.3-15.1-19.2zm0 0"/><path fill="#bcbcbc" stroke="#000" stroke-width=".5" stroke-miterlimit="10" d="M260.8 638.9h65V717h-65z"/><path class="st3" d="M331.1 640.6h-78.3c-3.2 0-5.9-2.6-5.9-5.9v-21.1c0-3.2 2.6-5.9 5.9-5.9h78.3c3.2 0 5.9 2.6 5.9 5.9v21.1c0 3.2-2.6 5.9-5.9 5.9z"/><path class="st9" d="M330.7 718.1h-75.8c-1.4 0-2.6-1.3-2.6-2.8v-11.9c0-1.6 1.2-2.8 2.6-2.8h75.8c1.4 0 2.6 1.3 2.6 2.8v11.9c0 1.6-1.2 2.8-2.6 2.8z"/><path class="st10" d="M366.1 603.4s-2.8 9.3 11 5c0 0 1-3.8-1.5-6.9l-9.5 1.9z"/><path transform="rotate(-76.898 340.788 596.253)" class="st9" d="M338.5 550.2h4.7v92.2h-4.7z"/><path d="M299.9 574.5l-5.4 23.3c-1.5 6.3-7.8 10.2-14.1 8.8l-3.4-.8c-6.3-1.5-10.2-7.8-8.8-14.1l5.4-23.3c1.5-6.3 7.8-10.2 14.1-8.8l3.4.8c6.3 1.4 10.2 7.8 8.8 14.1z" fill="#7c7c7c" stroke="#000" stroke-width=".5" stroke-miterlimit="10"/><path class="st7" d="M265.7 562.2L205.6 524l17.1-25.7 45.2 60.4zm16-13.8l2.8-57.7 18.2 6.5-15.7 51.2zm29.1 16.9c.4-.8 46.7-36.6 46.7-36.6l8.2 22.4-53.7 17-1.2-2.8zm-52.4 5.5c-7.5-1-42.1-6.1-42.1-6.1l1.2 16 40.9-6.6v-3.3z"/><path class="st10" d="M345.7 599.9s8 .9 10.1-2.5c0 0 7.8-7.8 7.8 9.9 0 0-13.8-.2-17.9-7.4zm24.9-1.4s-5.7 4.5-.5 8.8c0 0 3.5 0 2-4.4 0 0 1.8-2.2 3.5-1.4 0 0-1-4.3-5-3z"/><path class="st12" d="M377.1 608.4l11.6 21.7 21.7-10.8"/><path class="st6" d="M488.4 543s-1.2 42.2 6.9 57.1c0 0-63.8 38-87 80.3 0 0-37.4-39.4-17.9-99.6.1 0 10.2-37 98-37.8z"/><text transform="rotate(-36.264 966.099 -268.18)" class="st4" font-size="32.467">Bam!!!</text><path class="st12" d="M439.1 633.3l4.8 33.6 29.2-16.3"/><path class="st14" d="M473.1 650.1s-10.4 14.3-2.9 19.5c3.7 2.6 4.9-1.6 5-7.8.1-3.8.6-8.2-2.1-11.7z"/><path class="st12" d="M466 612.1l1.5 23.7 26.7-12.1"/><path class="st14" d="M493.8 623.3s-6.2 12.4.3 15.2c3.2 1.4 3.2-2.3 2.6-7-.3-2.9.1-6-2.9-8.2z"/><path class="st12" d="M363.6 607.3l12 22.8 22.3-11.4M574 725.6v47.7m47.7-43.1l-1.6 43.1"/><path class="st10" d="M554.5 776.3s.1-13.1 19.5-3c0 0 1.1 3.4-6.2 4.7-7.3 1.2-13.7.8-13.3-1.7zm46.1 0s.1-13.1 19.5-3c0 0 1.1 3.4-6.2 4.7s-13.8.8-13.3-1.7z"/><path class="st12" d="M545.7 690s-3.8-.2-8.6-.9c-1.5-.2-.3-4.1-3.7-5.4-2.3-.9-4.6 3.8-6.3 3.4-4.7-1.3-8.9-3.2-10.6-5.9 0 0 1.8-13.5 10.7-27.2"/><path class="st10" d="M529.5 655.5s2.6 1.2 4.1 1.8c2.7 1.1 7.2 2 8.7-1.9.8-2.2.6-8.8-3.9-9.5s-16.4 8.7-8.9 9.6z"/><path class="st12" d="M661 697.9s3.4 1.6 8 3.4c1.4.5 2.2-3.4 5.8-2.9 2.4.3 2.2 5.6 3.9 5.9 4.8 1.1 9.4 1.5 12.2-.1 0 0 5-12.7 3.7-29"/><path class="st10" d="M691.8 675.5s-2.9-.2-4.4-.4c-2.9-.3-7.3-1.7-6.7-5.8.3-2.3 3.7-8 8-6.5s10.1 15.5 3.1 12.7z"/><path class="st6" d="M538.5 720.7c-5.5-1.5 17.9-76.1 17.9-76.1s48.8-6.7 114.6 3c0 0-9.8 71.9-17.5 89.8.1 0-43.8 3.2-115-16.7z"/><path class="st6" d="M556.4 644.6s29.2 34.2 48 40.3c0 0 32.9-8 66.7-37.3"/><path class="st12" d="M716.8 693s-18.4 36.3-27.3 52.5m130.2-15.8s6.3 27.2 2.2 49.2"/><path class="st10" d="M689.7 744.6s-16.7 12.9-10.1 16.7c6.6 3.8 10.3-6.4 10.3-6.4s2.3 6.1 4.1 2.5-4.3-12.8-4.3-12.8zM822 776.7s4.4 20.6-3.1 19.2-3.7-11.6-3.7-11.6-5.7 3.2-4.7-.7c1-3.9 11.5-6.9 11.5-6.9z"/><path class="st12" d="M741.1 737.2c0 .8-1.6 41.7-1.6 41.7"/><path class="st10" d="M719.9 781.1s.1-13.1 19.5-3c0 0 1.1 3.4-6.2 4.7-7.3 1.2-13.7.8-13.3-1.7z"/><path class="st12" d="M767.8 747.5c0 .8-1.6 41.7-1.6 41.7"/><path class="st10" d="M746.7 791.4s.1-13.1 19.5-3c0 0 1.1 3.4-6.2 4.7-7.3 1.3-13.7.9-13.3-1.7z"/><path class="st6" d="M720.5 648.8l-6.9 81.4 75.6 34.8s43.5-22.8 44.7-64.2c0 0-18.7-44.3-113.4-52z"/><path class="st6" d="M720.5 648.8s14.2 35.4 25.1 53.9c0 0 34.3-1.1 88.3-1.9"/></svg>