<?xml version="1.0" encoding="utf-8"?>
<!-- Generator: Adobe Illustrator 22.0.1, SVG Export Plug-In . SVG Version: 6.00 Build 0)  -->
<svg version="1.1" id="Layer_1" xmlns="http://www.w3.org/2000/svg" xmlns:xlink="http://www.w3.org/1999/xlink" x="0px" y="0px"
	 viewBox="0 0 892.6 836.7" style="enable-background:new 0 0 892.6 836.7;" xml:space="preserve">
<style type="text/css">
	.st0{fill:#F5F5F5;}
	.st1{fill:#BCBCBC;}
	.st2{fill:#F7F7F7;stroke:#000000;stroke-width:0.5;stroke-miterlimit:10;}
	.st3{fill:#0077BF;stroke:#000000;stroke-width:0.5;stroke-miterlimit:10;}
	.st4{enable-background:new    ;}
	.st5{fill:#FFFFFF;}
	.st6{fill:#EB058C;stroke:#000000;stroke-width:0.5;stroke-miterlimit:10;}
	.st7{fill:#FFE600;stroke:#000000;stroke-width:0.5;stroke-miterlimit:10;}
	.st8{fill:#BCBCBC;stroke:#000000;stroke-width:0.5;stroke-miterlimit:10;}
	.st9{fill:#D8D8D8;stroke:#000000;stroke-width:0.5;stroke-miterlimit:10;}
	.st10{fill:#FFFFFF;stroke:#000000;stroke-width:0.5;stroke-miterlimit:10;}
	.st11{fill:#7C7C7C;stroke:#000000;stroke-width:0.5;stroke-miterlimit:10;}
	.st12{fill:none;stroke:#000000;stroke-width:0.5;stroke-miterlimit:10;}
	.st13{fill:#FFFFFF;stroke:#000000;stroke-width:0.5;stroke-linejoin:round;}
</style>
<title>LM Auto Email</title>
<g id="Layer_7">
	<path class="st0" d="M540.4,202.8c0,0,21.1-188.1-189.3-189.4c0,0-247.4-29.9-323.2,268.1c0,0-43.8,131.4,34,322.6
		c0,0,80.9,151.8,222.3,192.7c0,0,243.6,74.2,442.7-31c0,0,240.8-118.2,113.9-297.8c0,0-57.8-64.4-163.2-54.9
		C677.5,413.2,515.4,438.5,540.4,202.8z"/>
</g>
<ellipse class="st1" cx="567" cy="741.4" rx="73.8" ry="11.1"/>
<ellipse class="st1" cx="422.6" cy="723.8" rx="69" ry="11.1"/>
<ellipse class="st1" cx="263" cy="679.7" rx="65.1" ry="9.8"/>
<ellipse class="st1" cx="258.5" cy="642.1" rx="83.8" ry="12.6"/>
<ellipse transform="matrix(9.237516e-02 -0.9957 0.9957 9.237516e-02 -81.178 1416.7324)" class="st1" cx="736.5" cy="752.9" rx="11.1" ry="73.8"/>
<rect x="196.5" y="130.9" class="st2" width="125.7" height="514"/>
<path class="st3" d="M212.3,195.1h92.9c4.4,0,7.9,3.5,7.9,7.9v45.2c0,4.4-3.5,7.9-7.9,7.9h-92.9c-4.4,0-7.9-3.5-7.9-7.9V203
	C204.4,198.7,208,195.1,212.3,195.1z"/>
<g class="st4">
	<path d="M214.5,147.9v15.7c0,4.8,1.9,7,6.7,7c5,0,6.7-2.4,6.7-7v-15.7h3.3v14.8c0,7-2.5,10.6-10,10.6c-7.2,0-10-3.4-10-10.3v-15.2
		H214.5z"/>
	<path d="M246.5,160.1c-0.2-2.4-1.9-3.3-4.4-3.3c-2.3,0-3.7,0.9-3.7,2.5c0,2,2.3,2.3,4.8,2.9c3,0.7,7,1.6,7,5.5c0,3.5-3,5.8-7.5,5.8
		c-4.9,0-7.6-2.2-7.8-6.3h2.9c0.2,2.7,2,3.8,4.9,3.8c2.7,0,4.4-1.2,4.4-3c0-2-2-2.4-4.6-3c-3.1-0.8-7.3-1.2-7.3-5.3
		c0-3.3,2.7-5.3,6.9-5.3c4.1,0,7.2,2,7.2,5.8H246.5z"/>
	<path d="M269.6,172.8c-0.6,0.2-1.4,0.4-2,0.4c-1.7,0-2.6-0.9-2.6-2.7c-1.8,2-3.7,2.9-6.5,2.9c-3.6,0-5.8-2-5.8-5.1
		c0-3.2,2.1-5.1,6.4-5.6c4.3-0.5,5.8-0.4,5.8-2.9c0-1.9-1.4-3-4.1-3c-2.8,0-4.2,1-4.5,3.7h-2.9c0.1-3.8,2.9-6.1,7.6-6.1
		c2.4,0,4.5,0.6,5.7,1.8c1.3,1.2,1.2,3.1,1.2,4.7c0,2.7-0.1,5.4-0.1,8.1c0,1.3,0.3,1.8,1.2,1.8c0.3,0,0.4,0,0.7-0.1V172.8z
		 M260.8,164.6c-2.2,0.3-5.1,0.5-5.1,3.4c0,1.9,1.4,3,3.6,3c2.8,0,5.5-1.9,5.5-4.2v-3.3C263.7,164.3,262.2,164.4,260.8,164.6z"/>
	<path d="M288.1,170.9c0,3.1-0.3,4.5-1.2,6c-1.3,2.1-3.8,3.3-7.1,3.3c-3.6,0-7.1-1.3-7.6-5.3h3c0.4,2.1,1.9,3,4.7,3
		c3.7,0,5.3-1.8,5.3-5.9l0-2.2c-1.2,2.3-3,3.3-5.7,3.3c-4.8,0-7.9-3.6-7.9-9.2c0-4.9,2.7-9.6,8.1-9.6c2.5,0,4.6,1.1,5.7,3.1v-2.6
		h2.7V170.9z M274.6,163.9c0,4,2.1,6.6,5.3,6.6c3.3,0,5.3-2.7,5.3-7.1c0-4.1-2-6.5-5.4-6.5C276.5,156.9,274.6,159.6,274.6,163.9z"/>
	<path d="M300.1,173.5c-5.3,0-8.5-3.5-8.5-9.4c0-5.8,3.4-9.8,8.4-9.8c6,0,8.2,4.7,8.2,9.9v0.4h-13.6l0,0.2c0,3.9,2.1,6.2,5.6,6.2
		c2.6,0,4-1.1,4.9-3.9h2.9C307,171.3,304.3,173.5,300.1,173.5z M299.9,156.7c-2.9,0-4.9,2.1-5.3,5.5h10.5
		C304.8,158.8,302.9,156.7,299.9,156.7z"/>
</g>
<g class="st4">
	<path class="st5" d="M266,237.6h-16.6c0.3-5.8,3.2-7.9,7.6-10.7c2.7-1.7,6.1-3.6,6.1-7.3c0-2.8-2-4.8-4.9-4.8c-3.8,0-4.9,3.2-5,6.4
		h-3.1v-0.7c0-5,3.3-8.4,8.2-8.4c4.8,0,7.9,2.9,7.9,7.4c0,5-3.9,7.3-7.6,9.6c-2.3,1.4-5,2.8-5.7,5.7H266V237.6z"/>
	<path class="st5" d="M286.6,215.2c-4.9,5.6-8.7,12.7-9.7,22.3h-3.4c0.6-8.1,4.6-16.1,10-22.1h-13.3v-2.9h16.4V215.2z"/>
	<path class="st5" d="M305.3,215.3H295l-1.5,7.6c1.4-1.5,3-2,5.1-2c4.8,0,8,3.4,8,8.3c0,5.1-3.5,8.9-8.8,8.9c-4.8,0-8.1-2.9-8.2-7.4
		h3.1c0.3,2.8,2.3,4.8,5.2,4.8c3.2,0,5.5-2.6,5.5-6c0-3.5-2.3-6-5.6-6c-2.1,0-3.7,0.8-4.9,2.5l-2.6-0.2l2.4-13.2h12.6V215.3z"/>
</g>
<rect x="221.9" y="286.6" class="st6" width="74.9" height="8.6"/>
<rect x="221.9" y="319.3" class="st6" width="74.9" height="8.6"/>
<rect x="221.9" y="352" class="st6" width="74.9" height="8.6"/>
<rect x="221.9" y="384.7" class="st6" width="74.9" height="8.6"/>
<rect x="221.9" y="417.4" class="st6" width="74.9" height="8.6"/>
<rect x="221.9" y="450.1" class="st6" width="74.9" height="8.6"/>
<rect x="221.9" y="482.8" class="st6" width="74.9" height="8.6"/>
<rect x="221.9" y="515.5" class="st6" width="74.9" height="8.6"/>
<rect x="221.9" y="548.2" class="st6" width="74.9" height="8.6"/>
<path class="st7" d="M235.7,203.2c0.2,3-2,5.6-5,5.9c-3,0.2-5.6-2-5.9-5c-0.2-3,2-5.6,5-5.9c0.1,0,0.3,0,0.4,0
	C233.2,198.1,235.6,200.3,235.7,203.2L235.7,203.2z"/>
<path class="st7" d="M232.2,209.7c-1.4-0.3-2.8-0.2-4.1,0.1c-9,1-11.9,10.5-11.1,17.8c0.4,3.2,5.8,3.2,5.4,0
	c-0.3-2.6-0.2-6.7,1.4-9.5v10.4c0,0.1,0,0.2,0,0.4s0,0.1,0,0.2c0,8.3,0,12.8-0.4,21.1c-0.2,3.7,6,3.6,6.2,0
	c0.3-6.5,0.4-9.3,0.4-15.7h0.9c0,6.5,0.1,9.3,0.4,15.7c0.2,3.6,6.4,3.7,6.2,0c-0.4-8.2-0.4-12.8-0.4-21.1c0-0.2,0-0.5-0.1-0.7
	c0-3.6-0.2-7.2-0.1-10.8c1.9,2.9,2,7.2,1.7,10.1c-0.4,3.2,5,3.1,5.4,0C244.8,220.1,241.7,210.3,232.2,209.7L232.2,209.7z"/>
<path class="st3" d="M340.7,75c-1.5,2.8-4.9,3.8-7.7,2.3s-3.8-4.9-2.3-7.7c1.5-2.8,4.9-3.8,7.7-2.3c0.1,0.1,0.3,0.2,0.4,0.3
	C341.4,69.1,342.3,72.5,340.7,75z"/>
<path class="st3" d="M334,78.7c-1.1-1-2.3-1.8-3.6-2.3c-8.4-4.3-16.4,2.4-19.8,9.2c-1.5,3,3.2,6.1,4.7,3.1c1.2-2.5,3.6-5.9,6.6-7.5
	l-5.9,9.1l-0.2,0.3l-0.1,0.1c-4.7,7.2-7.3,11.2-12.3,18.2c-2.2,3.1,3.2,6.6,5.4,3.5c3.9-5.5,5.6-7.9,9.3-13.5
	c0.2,0.2,0.5,0.3,0.8,0.5c-3.7,5.6-5.2,8.1-8.6,13.9c-1.9,3.3,3.5,6.8,5.4,3.5c4.4-7.4,7-11.4,11.6-18.6c0.1-0.2,0.2-0.4,0.3-0.7
	c2-3.1,3.9-6.3,6-9.4c0,3.6-2.4,7.5-4.2,9.8c-2.1,2.6,2.6,5.6,4.7,3.1C339,94.9,341.9,84.6,334,78.7L334,78.7z"/>
<path class="st3" d="M185.5,74c2,1.7,2.2,4.7,0.4,6.7c-1.7,2-4.7,2.2-6.7,0.4c-2-1.7-2.2-4.7-0.4-6.7c0.1-0.1,0.2-0.2,0.3-0.3
	C180.8,72.3,183.7,72.2,185.5,74z"/>
<path class="st3" d="M187.2,80.2c-1,0.7-1.9,1.5-2.6,2.5c-5.1,6-1.2,13.8,3.8,17.9c2.1,1.8,5.6-1.5,3.4-3.3
	c-1.8-1.5-4.1-4.1-4.9-6.8l6.3,6.5c0.1,0.1,0.1,0.1,0.2,0.2l0.1,0.1c5,5.2,7.7,8.1,12.4,13.5c2.1,2.4,6-1.3,3.9-3.7
	c-3.7-4.2-5.4-6-9.2-10.1c0.2-0.2,0.4-0.3,0.6-0.5c3.9,4.1,5.6,5.8,9.7,9.7c2.3,2.2,6.2-1.5,3.9-3.7c-5.2-5-8-7.8-12.9-13
	c-0.1-0.1-0.3-0.3-0.5-0.4c-2.2-2.2-4.4-4.4-6.6-6.7c2.9,0.7,5.6,3.3,7.1,5.3c1.7,2.2,5.1-1.1,3.4-3.3
	C201.3,79.3,193.5,74.9,187.2,80.2L187.2,80.2z"/>
<path class="st7" d="M261.9,40.2c0.6,3.4-1.7,6.6-5.1,7.2c-3.4,0.6-6.6-1.7-7.2-5.1s1.7-6.6,5.1-7.2c0.2,0,0.4-0.1,0.5-0.1
	C258.5,34.6,261.5,36.9,261.9,40.2z"/>
<path class="st7" d="M258.5,48c-1.6-0.2-3.2,0-4.7,0.4c-10.2,1.9-12.6,13.1-11,21.3c0.7,3.6,6.9,3.1,6.2-0.5c-0.6-3-0.8-7.6,0.7-11
	l1,11.8c0,0.1,0,0.3,0,0.4s0,0.1,0,0.2c0.8,9.4,1.2,14.6,1.5,24c0.1,4.2,7.2,3.6,7-0.6c-0.3-7.4-0.5-10.6-1-17.9c0.3,0,0.7,0,1-0.1
	c0.6,7.4,1,10.5,1.9,17.8c0.5,4.1,7.6,3.6,7-0.6c-1.2-9.3-1.6-14.6-2.4-23.9c0-0.3-0.1-0.5-0.2-0.8c-0.4-4.1-0.9-8.1-1.1-12.2
	c2.4,3.1,3,8,2.9,11.3c-0.1,3.7,6,3.1,6.2-0.5C273.7,58.6,269.3,47.7,258.5,48L258.5,48z"/>
<rect x="227.3" y="603.1" class="st8" width="65" height="78.1"/>
<path class="st3" d="M219.3,571.9h78.3c3.2,0,5.9,2.6,5.9,5.9v21.1c0,3.2-2.6,5.9-5.9,5.9h-78.3c-3.2,0-5.9-2.6-5.9-5.9v-21.1
	C213.4,574.6,216.1,571.9,219.3,571.9z"/>
<path class="st9" d="M297.2,682.3h-75.8c-1.5-0.1-2.6-1.3-2.6-2.8v-11.9c-0.1-1.5,1.1-2.8,2.6-2.8l0,0h75.8c1.5,0.1,2.6,1.3,2.6,2.8
	v11.9C299.9,681,298.7,682.3,297.2,682.3z"/>
<path class="st10" d="M332.6,567.6c0,0-2.8,9.3,11,5c0.6-2.4,0-4.9-1.5-6.9L332.6,567.6z"/>
<rect x="304.9" y="514.4" transform="matrix(0.2267 -0.974 0.974 0.2267 -308.3339 732.7073)" class="st9" width="4.7" height="92.2"/>
<path class="st11" d="M234.7,555.8l5.4-23.3c1.5-6.3,7.8-10.3,14.1-8.8l3.4,0.8c6.3,1.5,10.3,7.8,8.8,14.1l-5.4,23.3
	c-1.5,6.3-7.8,10.3-14.1,8.8l-3.4-0.8C237.1,568.5,233.2,562.1,234.7,555.8z"/>
<polygon class="st7" points="232.2,526.4 172.1,488.2 189.2,462.5 234.4,523 "/>
<polygon class="st7" points="248.2,512.6 251,454.9 269.2,461.4 253.5,512.6 "/>
<path class="st7" d="M277.3,529.5c0.4-0.8,46.8-36.6,46.8-36.6l8.2,22.3l-53.8,17L277.3,529.5z"/>
<path class="st7" d="M224.9,535c-7.5-1-42.1-6.1-42.1-6.1l1.2,16l40.9-6.6V535z"/>
<path class="st10" d="M312.2,564.1c0,0,8,0.9,10.1-2.5c0,0,7.8-7.8,7.8,9.9C330.1,571.5,316.3,571.3,312.2,564.1z"/>
<path class="st10" d="M337,562.7c0,0-5.7,4.5-0.5,8.8c0,0,3.5,0,2-4.4c0,0,1.8-2.2,3.5-1.4C342.1,565.7,341.1,561.4,337,562.7z"/>
<polyline class="st12" points="343.6,572.6 355.2,594.3 376.9,583.5 "/>
<path class="st6" d="M454.9,507.2c0,0-1.2,42.2,6.9,57.1c0,0-63.8,38-87,80.3c0,0-37.4-39.4-17.9-99.6
	C357,545,367.1,508,454.9,507.2z"/>
<g class="st4">
	<path d="M308.6,457.7c3.1-2.3,6.9-3.1,9.4,0.3c1.3,1.8,1.4,4.2,0.2,6c2.7-1.2,5.2-0.4,7,2.1c3.1,4.3,0.3,7.9-3.2,10.5l-7.7,5.6
		l-13.6-18.7L308.6,457.7z M308.9,469.7l4.4-3.2c2.1-1.5,4.5-3.5,2.5-6.3c-2.1-2.8-4.3-1.4-6.5,0.3l-4.7,3.4L308.9,469.7z
		 M315.2,478.4l4.9-3.6c2.5-1.8,4.8-3.8,2.4-7c-2.4-3.3-5.2-1.1-7.7,0.7l-4.5,3.3L315.2,478.4z"/>
	<path d="M343.9,460.6c-0.3,0.5-0.8,1-1.3,1.4c-1.3,0.9-2.5,0.7-3.4-0.6c-0.2,2.5-1.2,4.2-3.3,5.7c-2.7,2-5.4,1.7-7.1-0.7
		c-1.8-2.4-1.2-5,1.7-7.7c2.9-2.8,4.1-3.5,2.8-5.3c-1.1-1.4-2.7-1.5-4.7,0c-2.1,1.5-2.6,3.1-1.4,5.2l-2.2,1.6
		c-2-2.9-1.2-6.2,2.3-8.7c1.8-1.3,3.7-2,5.2-1.8c1.6,0.2,2.6,1.6,3.5,2.9c1.5,2,2.8,4.1,4.3,6.1c0.7,1,1.2,1.2,1.9,0.7
		c0.2-0.2,0.3-0.3,0.5-0.5L343.9,460.6z M332.8,459.2c-1.5,1.4-3.6,3.2-2,5.4c1,1.4,2.7,1.5,4.4,0.3c2.1-1.5,3.1-4.5,1.8-6.2
		l-1.8-2.5C334.8,457.4,333.7,458.3,332.8,459.2z"/>
	<path d="M339.7,445.9c0-2.4,0.7-4.1,2.7-5.5c1.8-1.3,3.6-1.5,5.5-0.4c0-2.4,0.7-4.2,2.8-5.6c2.9-2.1,5.5-1.4,7.5,1.3l6.9,9.5
		l-2.2,1.6l-6.2-8.5c-1.4-1.9-2.8-3.2-5.2-1.4c-2.6,1.9-2.2,4.3-0.4,6.8l5.6,7.7l-2.2,1.6l-6.3-8.7c-1.3-1.8-2.7-3-4.8-1.4
		c-3,2.2-2.1,4.9-0.2,7.4l5.2,7.2l-2.2,1.6l-9.9-13.6l2.1-1.5L339.7,445.9z"/>
	<path d="M362,427.6l5.4,8.8l-1.2,0.9l-6.7-7.9l-4.2-5.7l2.5-1.8L362,427.6z M371.6,440.5l-2.8,2l-1.9-2.7l2.8-2L371.6,440.5z"/>
	<path d="M368.8,422.6l5.4,8.8l-1.2,0.9l-6.7-7.9l-4.2-5.7l2.5-1.8L368.8,422.6z M378.4,435.5l-2.8,2l-1.9-2.7l2.8-2L378.4,435.5z"
		/>
	<path d="M375.6,417.7l5.4,8.8l-1.2,0.9l-6.7-7.9l-4.2-5.7l2.5-1.8L375.6,417.7z M385.2,430.6l-2.8,2l-1.9-2.7l2.8-2L385.2,430.6z"
		/>
</g>
<polyline class="st12" points="405.6,597.5 410.4,631.1 439.6,614.8 "/>
<path class="st13" d="M439.6,614.3c0,0-10.4,14.3-2.9,19.5c3.7,2.6,4.9-1.7,5-7.8C441.8,622.2,442.3,617.8,439.6,614.3z"/>
<polyline class="st12" points="432.5,576.3 434,600 460.6,587.9 "/>
<path class="st13" d="M460.3,587.5c0,0-6.2,12.4,0.4,15.2c3.2,1.4,3.2-2.3,2.6-7C462.9,592.8,463.3,589.7,460.3,587.5z"/>
<polyline class="st12" points="330.1,571.5 342.1,594.3 364.4,582.9 "/>
<line class="st12" x1="540.5" y1="689.8" x2="540.5" y2="737.5"/>
<line class="st12" x1="588.2" y1="694.4" x2="586.6" y2="737.5"/>
<path class="st10" d="M521,740.4c0,0,0.1-13.1,19.5-3c0,0,1.1,3.4-6.2,4.7S520.6,743,521,740.4z"/>
<path class="st10" d="M567.1,740.4c0,0,0.1-13.1,19.5-3c0,0,1.1,3.4-6.2,4.7S566.6,743,567.1,740.4z"/>
<path class="st12" d="M512.2,654.2c0,0-3.8-0.2-8.6-0.9c-1.5-0.2-0.3-4.1-3.7-5.4c-2.3-0.9-4.6,3.8-6.2,3.4
	c-4.7-1.3-8.9-3.2-10.6-5.9c1.7-9.7,5.3-19,10.7-27.2"/>
<path class="st10" d="M496,619.7c0,0,2.6,1.2,4.1,1.8c2.7,1.1,7.2,2,8.7-1.9c0.8-2.2,0.6-8.8-3.9-9.5S488.5,618.8,496,619.7z"/>
<path class="st12" d="M627.5,662.2c0,0,3.4,1.6,8,3.3c1.5,0.5,2.2-3.4,5.8-2.9c2.4,0.3,2.2,5.5,3.9,5.9c4.8,1.1,9.4,1.5,12.2-0.1
	c3.2-9.3,4.4-19.2,3.7-29"/>
<path class="st10" d="M658.3,639.7c0,0-2.9-0.2-4.4-0.4c-2.9-0.3-7.3-1.7-6.7-5.8c0.3-2.3,3.7-8,8-6.5S665.3,642.5,658.3,639.7z"/>
<path class="st6" d="M505,684.9c-5.5-1.5,17.9-76.1,17.9-76.1s48.8-6.7,114.6,3c0,0-9.8,71.9-17.5,89.8
	C620.1,701.6,576.2,704.8,505,684.9z"/>
<path class="st6" d="M522.9,608.8c0,0,29.2,34.2,48,40.3c0,0,32.9-8,66.7-37.3"/>
<path class="st12" d="M683.3,657.2c0,0-18.4,36.3-27.3,52.5"/>
<path class="st12" d="M786.2,693.9c0,0,6.3,27.2,2.2,49.2"/>
<path class="st10" d="M656.2,708.8c0,0-16.7,12.9-10.1,16.7s10.3-6.5,10.3-6.5s2.3,6.1,4,2.5S656.2,708.8,656.2,708.8z"/>
<path class="st10" d="M788.5,740.9c0,0,4.4,20.6-3.1,19.2s-3.7-11.6-3.7-11.6s-5.7,3.2-4.7-0.7S788.5,740.9,788.5,740.9z"/>
<path class="st12" d="M707.6,701.4c0,0.8-1.6,41.7-1.6,41.7"/>
<path class="st10" d="M686.4,745.2c0,0,0.1-13.1,19.5-3c0,0,1.1,3.4-6.2,4.7S686,747.8,686.4,745.2z"/>
<path class="st12" d="M734.3,711.7c0,0.8-1.6,41.7-1.6,41.7"/>
<path class="st10" d="M713.2,755.6c0,0,0.1-13.1,19.5-3c0,0,1.1,3.4-6.2,4.7S712.8,758.2,713.2,755.6z"/>
<path class="st6" d="M687,613l-6.9,81.4l75.6,34.8c0,0,43.5-22.8,44.7-64.2C800.4,665,781.7,620.7,687,613z"/>
<path class="st6" d="M687,613c0,0,14.2,35.4,25.1,53.9c0,0,34.3-1.1,88.3-1.9"/>
</svg>
