<svg version="1.1" id="Layer_1" xmlns="http://www.w3.org/2000/svg" x="0" y="0" viewBox="0 0 896.6 815.3" xml:space="preserve"><style>.st1{fill:#ccc}.st3,.st4{fill:#fff;stroke:#000;stroke-width:.5;stroke-miterlimit:10}.st4{fill:#f2f2f2}.st5{fill:#eb058c}.st11,.st5,.st6,.st7,.st8,.st9{stroke-width:.5;stroke-miterlimit:10}.st5,.st6,.st7,.st8,.st9{stroke:#000}.st7{fill:#e6e6e6}.st8{fill:#333}.st9{fill:#ffe600}.st11{fill:none;stroke:#000}.st12{font-family:&apos;MyriadPro-Regular&apos;}.st13{font-size:36.46px}.st14{letter-spacing:3}.st15{fill:#eb058c}.st16{font-family:&apos;MyriadPro-Bold&apos;}</style><path d="M377.3 180.1S369-12.4 581.9.7c0 0 252.2-13.5 308.1 294.4 0 0 35.1 136.4-56.8 325.4 0 0-92.4 148.7-238.1 180.5 0 0-251.4 58.7-445.4-61.7 0 0-260-115.2-94.5-310.2 0 0 62.9-61.4 168.9-44.6-.1 0 162 36.7 153.2-204.4z" fill="#fff" id="Layer_3"/><g id="Layer_2"><g id="_Group_"><ellipse class="st1" cx="609.6" cy="329.6" rx="65.7" ry="4.1"/><path id="_Rectangle_" fill="#0077bf" stroke="#000" stroke-width=".5" stroke-miterlimit="10" d="M604.1 57.5h10.2v71.1h-10.2z"/><path id="_Path_" class="st3" d="M669.3 149.2c-1.3-32.6-27.7-58.7-60.1-58.7s-58.8 26.1-60.1 58.7h120.2z"/><path id="_Path_2" class="st3" d="M654.6 325.5h-90.8l-16.3-168.6H671z"/><g id="_Group_2"><path id="_Path_3" class="st4" d="M651.8 322.4h-85.1l-15.3-165.5h115.7z"/></g><g id="_Group_3"><path id="_Path_4" class="st5" d="M659.4 276.4l7.4-76.9H551.7l7.4 76.9z"/></g><circle id="_Path_5" class="st3" cx="609.9" cy="238.7" r="33.7"/><circle id="_Path_6" class="st3" cx="609.9" cy="238.7" r="29.8"/><g id="_Group_4"><path id="_Path_7" class="st6" d="M614.8 250c0-.3.1-.5.2-.8.4-.9.5-1.9.1-2.8.1-.5.6-.9 1.2-.9 1.5-3.4 3.6-6.9 5.1-10.9-.3-.7-.4-1.5-.2-2.2.3-1.2.9-2.1 1.3-2 .5-2.7.7-5.5.6-8.2 6.2 2.7 9.5 11 7.6 19.6-2.1 9.3-9.6 15.6-16.8 14.3.1-2 .4-4.1.9-6.1z"/><path id="_Path_8" class="st6" d="M621.2 221.7c.1.9 0 1.9-.1 2.8.5.4.5 1.1.1 1.6-.1.1-.2.2-.4.3-.3 2.1-.8 4.1-1.3 6.1-.4 1.3-.9 2.6-1.4 3.9.2.7.1 1.5-.2 2.2-.4 1.1-1.1 1.9-1.5 1.8-1.3 2.8-2.5 5.7-3.4 8.6-.1.4-.2.9-.3 1.3.4.2.5 1.2.3 2.3-.1.7-.4 1.3-.9 1.9 0 .5-.1.9-.1 1.4-6.5-2.4-10.1-11-8.1-19.9 2.2-9.6 9.9-16 17.3-14.3z"/></g><g id="_Group_5"><path id="_Path_9" class="st6" d="M596.8 227.3c0 .2 0 .4.1.6.2.7.2 1.5-.2 2.1 0 .4.4.8.8.8.8 2.7 2 5.5 2.7 8.6-.3.5-.4 1.1-.3 1.6.1.9.4 1.6.8 1.6.1 2.1 0 4.2-.4 6.2 4.9-1.4 8.2-7.3 7.6-14-.7-7.2-5.6-12.6-11.2-12.3-.1 1.6 0 3.2.1 4.8z"/><path id="_Path_10" class="st6" d="M598.8 249.1c.1-.7.2-1.4.2-2.1.4-.2.5-.8.3-1.2l-.3-.3c0-1.6-.2-3.2-.4-4.7-.2-1-.4-2.1-.7-3.1.2-.5.2-1.1.1-1.6-.2-.9-.6-1.5-1-1.5-.7-2.2-1.3-4.5-1.7-6.8 0-.3-.1-.7-.1-1 .3-.1.5-.8.4-1.7 0-.5-.2-1.1-.5-1.5 0-.4 0-.7.1-1-5.1 1.2-8.7 7.2-8 14.1.8 7.4 5.9 13 11.6 12.4z"/></g><path id="_Rectangle_2" class="st3" d="M565.9 325.5h86.8v3.3h-86.8z"/><g id="_Group_6"><path id="_Rectangle_3" class="st3" d="M542.5 145.4H676v11.4H542.5z"/></g><g id="_Group_7"><path id="_Path_11" class="st3" d="M656.5 136.1c5.2-10.4-15.2-14.7-15.2-14.7-3.4-13.8-19.7-13.8-19.7-13.8 7 8.5-11.3 15.3-31.9 16.4-15.5.8-18.7 6.4-19.3 9.1-22 4.2-17.1 12.4-17.1 12.4H665c.2-.1 4.2-5.2-8.5-9.4z"/></g><g id="_Group_8"><circle id="_Path_12" class="st3" cx="635.5" cy="124.1" r="1.3"/><circle id="_Path_13" class="st3" cx="625.3" cy="133.3" r="1.3"/><circle id="_Path_14" class="st3" cx="634.2" cy="128.7" r="1.3"/><circle id="_Path_15" class="st3" cx="647" cy="136.4" r="1.3"/><circle id="_Path_16" class="st3" cx="641.3" cy="138.6" r="1.3"/><circle id="_Path_17" class="st3" cx="603.4" cy="133.3" r="1.3"/></g><g id="_Group_9"><path id="_Path_18" class="st3" d="M551.4 156.9l1.5 16.5.3 3.3v.4l.2 2.4s18.5 6.2 34.7.1c3-1.1 34.1-8.9 39.4-2.9 1.5 1.7-3.6 7.4 10.8 7.6 9.1 0 18.1-1.6 26.5-4.8l.2-2.4v-.4l1.8-19.7H551.4z"/></g></g><g id="_Group_10"><ellipse class="st1" cx="275.6" cy="329.6" rx="65.6" ry="4.1"/><g id="_Group_11"><path id="_Path_19" class="st3" d="M314.1 328.8h-78c-1.6 0-3-1.2-3.2-2.9l-14.7-152.6H332l-14.8 152.6c-.1 1.7-1.5 2.9-3.1 2.9z"/></g><g id="_Group_12"><path id="_Path_20" class="st7" d="M325.5 280l6.5-68.7H218.2l6.5 68.7z"/></g><g id="_Group_13"><path id="_Rectangle_4" class="st8" d="M213.8 161.6h122.6c.9 0 1.6.7 1.6 1.6v8.4c0 .9-.7 1.6-1.6 1.6H213.8c-.9 0-1.6-.7-1.6-1.6v-8.4c0-.9.7-1.6 1.6-1.6z"/></g><g id="_Group_14"><path id="_Path_21" class="st8" d="M326.9 152l-3.6-.6-99.8 8.1c-.7.1-1.3.7-1.3 1.4v.6h106v-8.1c-.1-.7-.6-1.3-1.3-1.4z"/></g><circle id="_Path_22" class="st3" cx="277.9" cy="244.7" r="22.4"/><circle id="_Path_23" class="st3" cx="277.9" cy="244.7" r="19.9"/><g id="_Group_15"><path id="_Path_24" class="st6" d="M280.5 252.5c-.1-.2-.1-.4-.2-.5-.4-.6-.5-1.3-.3-2-.1-.4-.5-.6-.9-.5-1.3-2.3-3-4.6-4.4-7.2.2-.5.2-1.1-.1-1.6-.3-.8-.8-1.4-1.1-1.3-.6-1.9-.9-3.8-1-5.7-4.2 2.3-5.9 8.4-3.9 14.4 2.2 6.4 7.9 10.2 12.9 8.8-.1-1.6-.5-3-1-4.4z"/><path id="_Path_25" class="st6" d="M273.9 233.1c0 .7.1 1.3.2 1.9-.3.3-.3.8 0 1.1.1.1.2.1.3.2.4 1.4.8 2.8 1.4 4.2.4.9.8 1.8 1.3 2.6-.1.5 0 1.1.3 1.5.4.7.9 1.2 1.2 1.1 1.1 1.9 2.1 3.8 3 5.8l.3.9c-.3.1-.3.9 0 1.6.1.5.4.9.8 1.2.1.3.1.6.2.9 4.4-2.2 6.3-8.4 4.2-14.5-2.2-6.3-8.1-10.2-13.2-8.5z"/></g></g><g id="_Group_16"><ellipse class="st1" cx="683" cy="620.8" rx="63.2" ry="4"/><path id="_Path_26" class="st3" d="M726.4 616.8H639l-15.7-162.3h118.8z"/><g id="_Group_17"><path id="_Path_27" class="st4" d="M723.7 613.8h-81.9L627 454.5h111.4z"/></g><path id="_Rectangle_5" class="st3" d="M641 616.8h83.5v3.2H641z"/><g id="_Group_18"><path id="_Path_28" class="st3" d="M627 454.5l1.5 15.9.3 3.1v.4l.2 2.3s17.8 6 33.4.1c2.9-1.1 32.8-8.6 38-2.8 1.5 1.6-3.5 7.1 10.4 7.3 8.7 0 17.4-1.5 25.5-4.6l.2-2.4v-.4l1.8-19-111.3.1z"/></g><path id="_Rectangle_6" transform="matrix(.08964 -.996 .996 .08964 148.29 1117.78)" class="st9" d="M568.1 472.9h235.1v9.8H568.1z"/><g id="_Group_19"><path id="_Rectangle_7" class="st3" d="M618.5 443.5H747v11H618.5z"/></g><g id="_Group_20"><circle id="_Path_29" class="st3" cx="700.3" cy="499.7" r="1.9"/><circle id="_Path_30" class="st3" cx="685" cy="513.5" r="1.9"/><circle id="_Path_31" class="st3" cx="698.3" cy="506.5" r="1.9"/><circle id="_Path_32" class="st3" cx="717.4" cy="518.1" r="1.9"/><circle id="_Path_33" class="st3" cx="708.9" cy="521.4" r="1.9"/><circle id="_Path_34" class="st3" cx="652.4" cy="513.5" r="1.9"/></g><g id="_Group_21"><circle id="_Path_35" class="st3" cx="670.4" cy="540.1" r="1.9"/><circle id="_Path_36" class="st3" cx="685.7" cy="553.9" r="1.9"/><circle id="_Path_37" class="st3" cx="672.4" cy="547" r="1.9"/><circle id="_Path_38" class="st3" cx="653.3" cy="558.5" r="1.9"/><circle id="_Path_39" class="st3" cx="661.8" cy="561.8" r="1.9"/><circle id="_Path_40" class="st3" cx="718.3" cy="553.9" r="1.9"/></g></g><g id="_Group_22"><ellipse class="st1" cx="275.6" cy="620.7" rx="65.6" ry="4.1"/><g id="_Group_23"><path id="_Path_41" class="st3" d="M314.1 619.8h-78c-1.6 0-3-1.2-3.2-2.9l-14.7-152.6H332l-14.8 152.6c-.1 1.7-1.5 2.9-3.1 2.9z"/></g><g id="_Group_24"><path id="_Path_42" class="st7" d="M325.5 571l6.5-68.7H218.2l6.5 68.7z"/></g><g id="_Group_25"><path id="_Rectangle_8" class="st8" d="M213.8 452.6h122.6c.9 0 1.6.7 1.6 1.6v8.4c0 .9-.7 1.6-1.6 1.6H213.8c-.9 0-1.6-.7-1.6-1.6v-8.4c0-.9.7-1.6 1.6-1.6z"/></g><g id="_Group_26"><path id="_Path_43" class="st8" d="M326.9 443l-3.6-.6-99.8 8.1c-.7.1-1.3.7-1.3 1.4v.6h106v-8.1c-.1-.7-.6-1.3-1.3-1.4z"/></g><circle id="_Path_44" class="st3" cx="277.9" cy="535.7" r="22.4"/><circle id="_Path_45" class="st3" cx="277.9" cy="535.7" r="19.8"/><g id="_Group_27"><path id="_Path_46" class="st6" d="M280.5 543.5c-.1-.2-.1-.3-.2-.5-.4-.6-.5-1.3-.3-2-.1-.4-.5-.6-.9-.5-1.3-2.3-3-4.5-4.4-7.2.2-.5.2-1.1-.1-1.6-.3-.8-.8-1.4-1.1-1.3-.6-1.9-.9-3.8-1-5.7-4.2 2.3-5.9 8.4-3.9 14.3 2.2 6.4 7.9 10.2 12.9 8.8-.1-1.5-.5-2.9-1-4.3z"/><path id="_Path_47" class="st6" d="M273.9 524.1c0 .7.1 1.3.2 1.9-.3.3-.3.8 0 1.1.1.1.2.1.3.2.4 1.4.8 2.8 1.4 4.2.4.9.8 1.8 1.3 2.7-.1.5 0 1.1.3 1.5.4.7.9 1.2 1.2 1.1 1.1 1.9 2.1 3.8 3 5.8l.3.9c-.3.2-.3.9 0 1.6.1.5.4.9.8 1.2.1.3.1.7.2.9 4.4-2.2 6.3-8.4 4.2-14.5-2.2-6.4-8.1-10.3-13.2-8.6z"/></g></g><g id="_Group_28"><ellipse class="st1" cx="536.6" cy="620.7" rx="65.7" ry="4.1"/><g id="_Group_29"><path id="_Path_48" class="st3" d="M575.1 619.8h-78c-1.6 0-3-1.2-3.2-2.9l-14.7-152.6H593l-14.8 152.6c-.1 1.7-1.5 2.9-3.1 2.9z"/></g><g id="_Group_30"><path id="_Path_49" class="st5" d="M586.5 571l6.5-68.7H479.2l6.5 68.7z"/></g><g id="_Group_31"><path id="_Rectangle_9" class="st9" d="M474.8 452.6h122.6c.9 0 1.6.7 1.6 1.6v8.4c0 .9-.7 1.6-1.6 1.6H474.8c-.9 0-1.6-.7-1.6-1.6v-8.4c0-.9.7-1.6 1.6-1.6z"/></g><g id="_Group_32"><path id="_Path_50" class="st9" d="M587.9 443l-3.7-.6-99.8 8.1c-.7.1-1.3.7-1.3 1.4v.6h106v-8.1c0-.7-.5-1.3-1.2-1.4z"/></g><circle id="_Path_51" class="st3" cx="538.9" cy="535.7" r="22.4"/><circle id="_Path_52" class="st3" cx="538.9" cy="535.7" r="19.8"/><g id="_Group_33"><path id="_Path_53" class="st6" d="M541.5 543.5c-.1-.2-.1-.3-.2-.5-.4-.6-.5-1.3-.3-2-.1-.4-.5-.6-.9-.5-1.3-2.3-3-4.5-4.3-7.2.2-.5.2-1.1-.1-1.6-.3-.8-.8-1.4-1.1-1.3-.6-1.9-.9-3.8-1-5.7-4.2 2.3-5.9 8.4-3.9 14.3 2.2 6.4 7.9 10.2 12.9 8.8-.2-1.5-.6-2.9-1.1-4.3z"/><path id="_Path_54" class="st6" d="M534.9 524.1c0 .7.1 1.3.2 1.9-.3.3-.3.8 0 1.1.1.1.2.1.3.2.4 1.4.8 2.8 1.4 4.2.4.9.8 1.8 1.3 2.7-.1.5 0 1.1.3 1.5.4.7.9 1.2 1.2 1.1 1.1 1.9 2.1 3.8 3 5.8l.3.9c-.3.2-.3.9 0 1.6.1.5.4.9.8 1.2.1.3.1.7.2.9 4.4-2.2 6.3-8.4 4.2-14.5-2.2-6.4-8.1-10.3-13.2-8.6z"/></g></g><g id="Layer_5"><ellipse class="st1" cx="617.3" cy="654" rx="42.5" ry="6.1"/><path class="st4" d="M573.2 591.7l84.5 1.7-8.4 57.5s-30.8 14.7-63.4.8l-13.8-61.2"/><path d="M587.4 603.2l9.9 52.3m7.2-49.5l5 51.2m12.3-51.4l-1.2 51.6m15.6-52.6l-3.9 51.3m14.5-54.6l-5.8 52.6" fill="none" stroke="#202020" stroke-width=".5" stroke-miterlimit="10"/><path class="st3" d="M579 600.2s-19.3-11.4-1.3-23.2c0 0-.1-26 27.9-24.8 0 0 16.8-13.4 28.3 4.4 0 0 19.4-2 16.9 17.2 0 0 20.9 11.4 2.7 25 0 0-5.1 4.7-27.4 7.4 0 0-32.4 1.5-47.1-6z"/><circle class="st9" cx="621.5" cy="557.3" r="2.1"/><circle class="st9" cx="622.5" cy="567.3" r="2.1"/><circle class="st9" cx="634.5" cy="572.3" r="2.1"/><circle class="st9" cx="643.5" cy="586.3" r="2.1"/><circle class="st9" cx="625.5" cy="586.3" r="2.1"/><circle class="st9" cx="614.5" cy="576.3" r="2.1"/><circle class="st9" cx="609.5" cy="562.3" r="2.1"/><circle class="st9" cx="593.5" cy="569.3" r="2.1"/><circle class="st9" cx="602.5" cy="575.3" r="2.1"/><circle class="st9" cx="599.5" cy="587.3" r="2.1"/><circle class="st9" cx="592.5" cy="577.3" r="2.1"/><circle class="st9" cx="616.5" cy="595.3" r="2.1"/><path class="st11" d="M584.7 584.4c-2 4.8.2 10.4 5 12.5m47-10.4c2.8 4 1.8 9.4-2.2 12.2-.6.4-1.3.8-2.1 1.1m-2.7-38.4c3.7-2 8.4-.6 10.4 3.1m-34.3-7.3c-4.4-1.9-9.5-.3-12 3.8"/><text transform="translate(215.72 729.97)" class="st12 st13 st14">be</text><text transform="translate(215.72 729.97)" class="st11 st12 st13 st14">be</text><text transform="translate(262.02 729.97)" class="st12 st13 st14">f</text><text transform="translate(262.02 729.97)" class="st11 st12 st13 st14">f</text><text transform="translate(275.84 729.97)" class="st12 st13 st14">o</text><text transform="translate(275.84 729.97)" class="st11 st12 st13 st14">o</text><text transform="translate(299.5 729.97)" class="st12 st13 st14">r</text><text transform="translate(299.5 729.97)" class="st11 st12 st13 st14">r</text><text transform="translate(314.7 729.97)" class="st12 st13 st14">e</text><text transform="translate(314.7 729.97)" class="st11 st12 st13 st14">e</text><text transform="translate(565.72 729.97)" class="st15 st16 st13 st14">a</text><text transform="translate(588.62 729.97)" class="st15 st16 st13" letter-spacing="4">f</text><text transform="translate(605.24 729.97)" class="st15 st16 st13 st14">t</text><text transform="translate(622.08 729.97)" class="st15 st16 st13 st14">er</text></g></g></svg>