<svg version="1.1" id="Layer_1" xmlns="http://www.w3.org/2000/svg" x="0" y="0" viewBox="0 0 740.8 696" xml:space="preserve"><style>.st3{stroke:#000;stroke-width:.5;stroke-miterlimit:10}.st3,.st4{fill:#1a1a1a}.st10,.st11,.st5,.st6,.st7,.st8,.st9{fill:#fff;stroke:#000;stroke-width:.5;stroke-miterlimit:10}.st10,.st11,.st6,.st7,.st8,.st9{fill:#eb058c}.st10,.st11,.st7,.st8,.st9{fill:none}.st10,.st11,.st8,.st9{fill:#e5e5e5}.st10,.st11,.st9{fill:#ffe600}.st10,.st11{fill:#0077bf}.st11{fill:#c10072}</style><path d="M665.2 194.2C594.4 56 467.5-12.3 322.8 1.8 215.3 12.2 40.7 76.7 6.3 270.1c-24.2 136 24.8 208.5 82.4 197.7 60.8-11.5 132.8-110.8 197.5-122.2 199.1-35.2 249.5 303 384.5 260.2 110.5-35 76.1-252.2-5.5-411.6z" fill="#fff"/><ellipse cx="434.9" cy="675.3" rx="196.7" ry="20.7" fill="#ccc"/><path class="st3" d="M454.1 232.1c20.5 20.3 65.6-9 65.6-9s10.5-1.4 14.3-17c0 0-9.7 9.8-25.7-14-7.9-12-14.3-24.9-18.9-38.5 0 0-8.9-24.1-29.6-37.3 0 0-15.2-12.6-39.8-7.8 0 0-22.5 3.8-30.1 24.7 0 0-12.2 25 6.4 53.9 3.8 5.7 6.5 12.1 7.9 18.8l49.9 26.2"/><path class="st4" d="M548.5 646.8v32.5h4.8l3.4-13.6 8.5 13.6h47.7c-18.4-3.8-34.1-15.8-42.6-32.5h-21.8zM304.4 642.8c-8.6 16.7-24.2 28.6-42.6 32.5h47.7l8.5-13.6 3.4 13.6h4.8v-32.5h-21.8z"/><path class="st4" d="M389.4 410.6l-76.2 97.7 7.5 138.6-11.8 2.3-36.7-145.8 70.5-133.7c-.1-.1 61.8-14.4 46.7 40.9z"/><path class="st4" d="M389.4 410.6s136.6 195.5 161 238l17.8.5-121.3-278s-63.3-20.1-57.5 39.5z"/><path class="st5" d="M306.9 212.8l-41.2 5.1-6.4-61.6-11.8-2-4.7 79.7c-.4 6.7 5.3 12.1 11.9 11.3l66.8-7.6-14.6-24.9z"/><path class="st4" d="M247.6 154.4l11.8 2 6.4 61.6 21-2.6 2.1 26.2-34 3.8c-6.6.8-12.3-4.7-11.9-11.3l4.6-79.7z"/><path class="st5" d="M460.1 296.3l22 38.5 55.3 67.2 8.7-8.5-49.6-76.5-14.4-33.2zM370.9 196.7s17.2 8.6 24.2 0 3.1-15.8 3.1-15.8l20.8 9.8s-4.8 12.9 8.8 20.8c0 0-11.7 42.4-32.7 40-21-2.4-29-32.1-24.2-54.8z"/><path class="st4" d="M490.3 302.9l-19.7 11.8 11.5 20.1 55.3 67.2 8.7-8.5-49.6-76.5z"/><path class="st6" d="M349.6 304.1c1.1 7-23.4 89-23.4 89s24.1 47.8 69 46.7 68.7-50 68.7-50S434.1 342 428 328c-3-7-3.8-18.9.7-25.1 1.5-2.1 4.1-3 6.6-2.4 11.5 2.8 38 6.7 56.1-15.8L448.8 226c-2-2.7-4.5-5-7.4-6.6l-13.6-7.8-42.6 33.6s-26.4-16-7.5-46.2l-11.4-3.7c-4-1.3-8.2-1.3-12.3-.2L305.8 209s-8 53.6 29.7 61.1c0 0 9.9-3.5 10.6 0l3.5 34"/><path class="st4" d="M387.4 200.5l-12.5-3.1s-31.2 52.9 50.8 121.7c0 0-1.5-8.2 3-16.2 0 0-41.4-24-43.5-57.8 0 0-1.4-23 2.2-44.6z"/><path class="st4" d="M427.8 211.5l13.6 7.8-55.9 34.2s-15-4.7-8.5-17.5c0 0 26-5 50.8-24.5zM349.6 304.1s50.9 17 79.1-1.2c0 0-5.2 7.3-3 16.2 0 0-64.9 14.5-79.7 3.2l3.6-18.2z"/><path class="st4" d="M403 319.1l-15.6 71.8 19.4 5.9 2.1-77.7zM408.9 319.1l7.4 73.8 15-15.8-17-60.1zM482.9 272.9s-16.7 23.1-51.5 16.6l-2.6 13.4s.9-4.7 12.7-1.2 36 .2 50-17l-8.6-11.8zM305.7 209l11.1-3.2s.1 42.8 22.5 57.1c2.5 1.6 9.3 5.9 6.7 7.2-2.7-1.5-10.6 0-10.6 0s-34.8-.9-29.7-61.1z"/><path class="st4" d="M456.4 377.6l7.5 12.2s-19.1 46.8-68.7 50c-21.3 1.3-42.9-3.3-69-46.7l3.3-11s28.5 49.3 65.6 47.7 61.3-52.2 61.3-52.2z"/><path class="st7" d="M352 257.2s-20 30.7 17.3 26.2M425.7 272.9s2.2 21.6-13.4 19.8"/><path class="st8" d="M555.8 430.2s62.9 48 43.3 80.9c0 0-5.8 9.1-15.5 11.6 0 0 9.7-41-30.8-88.7l3-3.8z"/><path class="st9" d="M550.7 434l-24.1-27.6c-1-1.1-.9-2.8.3-3.8l1.8-1.6c1.1-1 2.8-.9 3.8.3l24.1 27.6c1 1.1.9 2.8-.3 3.8l-1.8 1.6c-1.1 1-2.8.9-3.8-.3z"/><path class="st10" d="M546.8 431.2l-23.6-26.9c-1.1-1.3-1-3.3.3-4.4l2.8-2.4c1.3-1.1 3.3-1 4.4.3l23.6 26.9c1.1 1.3 1 3.3-.3 4.4l-2.8 2.4c-1.3 1.2-3.2 1-4.4-.3z"/><path class="st5" d="M551.3 418.1s-.7 7.1-4.3 9.2c-3.6 2.2-2.6-10-1.6-12.8s5.9 3.6 5.9 3.6z"/><path class="st4" d="M545.5 393.5l7.8 16.3-2.9 12.2s-3.5-10.7-7.8-7c-4.3 3.8-5.1 6.2-5.1 6.2v-25.3l8-2.4z"/><path class="st6" d="M534.6 392.9l-7.9 43.6 13.3 6.8-1.5-48.5z"/><path class="st6" d="M542.8 392.9l6.5 34.6-9.5 10.4-1.3-43.1z"/><path class="st6" d="M531 394.1l7.6-12.1 7.5 11.5-8.7 8.5z"/><path class="st4" d="M259.4 156.4l10.7-17.6s-8.2-.8-7.3-9.3l-13.9 5-1.3 19.9 11.8 2z"/><path class="st8" d="M273 119.9s45.2-65 78.9-46.9c0 0 9.3 5.4 12.3 15 0 0-41.4-7.9-87.3 34.8l-3.9-2.9z"/><path class="st9" d="M277.1 124.8l-26.4 25.3c-1.1 1-2.8 1-3.8-.1l-1.7-1.7c-1-1.1-1-2.8.1-3.8l26.4-25.3c1.1-1 2.8-1 3.8.1l1.7 1.7c1 1 1 2.7-.1 3.8z"/><path class="st10" d="M274.5 128.8l-25.8 24.8c-1.3 1.2-3.2 1.2-4.4-.1l-2.6-2.7c-1.2-1.3-1.2-3.2.1-4.4l25.8-24.8c1.3-1.2 3.2-1.2 4.4.1l2.6 2.7c1.2 1.2 1.1 3.2-.1 4.4z"/><path class="st5" d="M248.9 134.5s2.9-4.4 7.4-6.4 6.4-1.9 6.5 1.4-3.7 11.7-7.7 11.6c-4-.2-6.2-6.6-6.2-6.6zM269.4 136.3c-.2-.9-.7-1.7-1.2-2.5-1.4-1.8-3.9-4.5-4.5-1.6-.8 4.1 4.1 8.6 3.3 11.7l3.1-5.1-.7-2.5z"/><path class="st6" d="M254.6 157.3l-4.6 37.6 10 10.6-2-46.6z"/><path class="st6" d="M258.1 156.2l10.3 38.2-5.4 8.5-7.6-43.9z"/><path class="st6" d="M259.4 156.4l2.3 8.9-14.5-4.5.4-6.4z"/><path class="st4" d="M387.4 200.5l-12.5-3.1s-31.2 52.9 50.8 121.7c0 0-1.5-8.2 3-16.2 0 0-41.4-24-43.5-57.8 0 0-2.2-21.9 2.2-44.6z"/><path class="st5" d="M425.6 190c-7.2 2.8-15.8 4.5-22.4.5-4.9-2.9-7.7-8.4-9.3-13.9-1.5-5.9-2.4-12-2.7-18.1-.5-3.9-.4-7.8.2-11.6 1.1-5.4 4.4-10.1 7.7-14.5 5.3-7.4 11.3-15.2 19.9-18.1 5-1.3 10.2-1.7 15.4-1.2 3.8 0 7.7.6 11.3 1.7 3 1.2 5.8 2.9 8.2 5 6.9 5.9 11.5 14.1 12.8 23.1 3.1 23.9-21.8 39.8-41.1 47.1z"/><path class="st4" d="M449.6 181.6s-11.1-32.6 2.5-50.3c0 0-15.8 2.1-24-.5 0 0-20.9-8.4-30.3 6.2-.6.9-1.1 2-1.4 3.1-.9 3.5-3.5 12.3-7.3 15.4v-8.4l7.2-16.6 19.7-17.1 18.4-4.5 18.5 7.5 12 11.9 5.6 27.5-11.6 19.1-9.3 6.7z"/><path class="st5" d="M437.9 156.5c-1 0-1.9-.6-2.4-1.4s-1-1.7-1.3-2.6c-.3-.6-.7-1.2-1.1-1.8s-.9-1.1-1.5-1.5c-1.6-.9-3.5-1.1-5.2-.4s-3.3 1.6-4.6 2.8M413.5 145l-.9-2.1c-.6-1.7-1.8-3.2-3.3-4.1-1.4-.4-2.9-.5-4.4-.3s-3-.4-4-1.6M425.8 142.7c5.5-1.7 11.4.5 14.3 5.4M417.7 137.9c-1.6-3.6-5-6.1-8.9-6.7M411.1 164c-1.1-1.2-2.1-2.4-3.1-3.6-.2-.3-.4-.6-.5-1-.2-.9.5-1.8 1.2-2.4l3.6-3.5M409.8 179.1c-1.1-.1-2.2-.1-3.3 0-.4.1-.8.2-1.2.2-1.5 0-2.6-1.6-2.7-3 .1-1.5.2-3 .4-4.5 0-1.3-.2-2.6 0-3.8 0-.4.2-.7.4-1 .5-.5 1.3-.3 1.9 0 4.3 2 8.2 4.9 11.4 8.5.1.1.2.3.3.4.2.9-1.9 2.1-2.7 2.4-1.4.7-3 1-4.5.8z"/><path class="st11" d="M402 179.2c1 1.2 2.4 1.9 4 1.9 1.5.1 3-.1 4.5-.6 1.1-.3 2.2-.7 3.3-1 .9-.3 1.7-.6 2.4-1.1s1.3-1.2 1.5-2.1c-1.8.8-3.6 1.3-5.5 1.5-2.5.4-5.1 0-7.4-1.1-.8-.4-1.8-1.5-2.7-.9s-.8 2.6-.1 3.4z"/><path class="st11" d="M403.2 165.1c3.2.1 6.2 1.3 8.6 3.5 2.3 2.1 4.4 4.6 6.1 7.2.1.2.2.4.1.5s-.3.1-.5 0c-2.9-.7-5.1-3-7.5-4.8-2-1.4-4.1-2.5-6.5-3.1-2-.4-3.4-3.2-.3-3.3z"/><ellipse transform="rotate(-48.677 428.556 151.54)" class="st3" cx="428.6" cy="151.5" rx="2.8" ry="2.2"/><ellipse transform="rotate(-48.677 407.766 141.232)" class="st3" cx="407.8" cy="141.2" rx="2.8" ry="2.2"/><path class="st10" d="M403.5 131.2s32.2 1.6 41.8 22.2c0 0 1-10.5 3.6-16.9-5.4-7.2-12.8-14.7-33.7-15.7.1-.1-9.9 3-11.7 10.4z"/></svg>