<?xml version="1.0" encoding="utf-8"?>
<!-- Generator: Adobe Illustrator 22.0.1, SVG Export Plug-In . SVG Version: 6.00 Build 0)  -->
<svg version="1.1" id="Layer_1" xmlns="http://www.w3.org/2000/svg" xmlns:xlink="http://www.w3.org/1999/xlink" x="0px" y="0px"
	 viewBox="0 0 1127.8 1305.9" style="enable-background:new 0 0 1127.8 1305.9;" xml:space="preserve">
<style type="text/css">
	.st0{fill:#FFFFFF;}
	.st1{fill:#FFFFFF;stroke:#000000;stroke-width:0.5;stroke-miterlimit:10;}
	.st2{fill:#F2F2F2;stroke:#000000;stroke-width:0.5;stroke-miterlimit:10;}
	.st3{fill:#FFE600;stroke:#000000;stroke-width:0.5;stroke-miterlimit:10;}
	.st4{fill:#0077BF;stroke:#000000;stroke-width:0.5;stroke-miterlimit:10;}
	.st5{fill:#1A1A1A;stroke:#000000;stroke-width:0.5;stroke-miterlimit:10;}
	.st6{fill:none;stroke:#000000;stroke-width:0.5;stroke-miterlimit:10;}
	.st7{fill:#727272;stroke:#000000;stroke-width:0.5;stroke-miterlimit:10;}
	.st8{fill:#D3D3D3;stroke:#000000;stroke-width:0.5;stroke-miterlimit:10;}
	.st9{fill:#727272;}
	.st10{fill:#FFFFFF;stroke:#000000;stroke-width:0.5;stroke-linejoin:bevel;stroke-miterlimit:10;}
	.st11{fill:#EAEAEA;stroke:#000000;stroke-width:0.5;stroke-miterlimit:10;}
	.st12{opacity:0.38;fill:#E2E2E2;enable-background:new    ;}
	.st13{fill:#B3B3B3;stroke:#000000;stroke-width:0.5;stroke-miterlimit:10;}
	.st14{fill:#808080;}
	.st15{fill:#FFFFFF;stroke:#000000;stroke-miterlimit:10;}
	.st16{fill:#898989;stroke:#000000;stroke-width:0.5;stroke-miterlimit:10;}
	.st17{fill:#1A1A1A;}
	.st18{fill:#C10072;stroke:#000000;stroke-width:0.5;stroke-miterlimit:10;}
	.st19{fill:#EB058C;stroke:#000000;stroke-width:0.5;stroke-miterlimit:10;}
	.st20{fill:#C10072;stroke:#000000;stroke-width:0.5;stroke-linecap:round;stroke-linejoin:round;stroke-miterlimit:10;}
	.st21{fill:#DDDDDD;stroke:#000000;stroke-width:0.5;stroke-miterlimit:10;}
</style>
<g id="Layer_2_1_">
	<path class="st0" d="M355.5,116.3C95.1,249.8-28.8,479,5.6,735.4c25.5,190.4,157.8,497.2,529.1,547.7
		c261,35.5,381.3-53.3,373.4-157.4c-10.8-142.2-83.8-179.1-109-293.4c-77.6-351.9,327.4-449.5,238.7-687.1
		C965.2-49.3,655.7-37.6,355.5,116.3z"/>
</g>
<g id="Layer_1_2_">
	<g id="Layer_1_1_">
		<g>
			<circle class="st1" cx="527.5" cy="1014.5" r="85.9"/>
			<g id="Layer_9_1_">
				<path class="st2" d="M566.5,1102.1"/>
				<path class="st3" d="M567.5,837.5l-11.5,2.6l13.5,44.7l-13.9,57c-4.8,1.7-11.5,3.6-26.4,14.8c-5.2,13.2-20.8,7.4-20.8,7.4
					c-31.1,10.5-35.7,18-35.7,18l-37.5-20.3l-21.5-62.6l-13.2,5.1l18.4,76.3l69.5,47.1l29.1,72.4c58.2,4.8,82.4-39.4,82.4-39.4
					c-16.2-25.9-25.9-86.8-25.9-86.8s26.7-68.7,17-91.2C575.1,845.4,567.5,837.5,567.5,837.5z"/>
				<path class="st1" d="M566.3,837.5c0,0-3.1-24.2-8.3-26.6c-4.9-2.2-3.8,9.6-3.1,15.3c0.2,1.2-1,2.2-2.2,1.8
					c-1.4-0.5-2.8-0.8-3.4-0.3c-1,1.2,1.8,6,8.9,11.8L566.3,837.5z"/>
				<path class="st1" d="M404,902.4c0,0-10.9-21.9-7.8-26.7c2.9-4.6,8.5,5.9,11,11c0.5,1.1,2.1,1.3,2.8,0.3c0.9-1.2,1.9-2.3,2.7-2.1
					c1.5,0.4,1.8,6-0.9,14.8L404,902.4z"/>
				<path class="st1" d="M506.5,964.2l-0.8-1c-2.1,3-3.6,6.3-4.4,9.8c-0.3,1.4-0.5,2.9-0.6,4.3c0,4.2,0,7.3,0.2,9.2l11.3-0.2
					l-6.3,8.5c8.3,4.5,27.6,18.4,34.8,24.5c3.6-0.7-0.9-9,2.5-10.2L506.5,964.2z"/>
				<path class="st1" d="M550.3,1000.5c-0.8-11.4,0.2-21,0.8-31l-15.3-1.6l8.5-13.7c-2.7-1-5.5-1.8-8.3-2.2
					c-4.6-0.9-9.7-1.7-12.1-1.9c-0.4-0.1-0.8-0.1-1.2,0l8.3,25.1l1.7,6.5l2.5,9.2l1.8,6.6l5,29L550.3,1000.5z"/>
				<path class="st1" d="M517.9,952.4c-6.8,5.4,5.4,12,5.4,12l16.4-8.1l-15.3-7.3L517.9,952.4z"/>
				<polygon class="st1" points="513.4,954.7 503.7,959.7 501.8,973.6 519,966.3 				"/>
				<path class="st4" d="M526.7,985.3l-3-20.4c-3.1-2.7-3.2,1.5-3.2,1.5l-7,30.1L526.7,985.3z"/>
				<path class="st1" d="M504.7,950.7c-0.3-1.6-0.8-2.9-1.4-4.8c-0.6-1.9,0.2-2.4,2.1-2.8c5.3-1.1,10.9-0.8,16.1,0.9
					c0.4,2.7,0.9,5.3,1.5,7.9c0.5,2,1.3,4.2,3.3,4.8l-1.9,5.3c-0.3,1.3-1,2.5-2,3.4c-1.6,1.4-4.1,1-6.1,0.4c-3.4-1-6.8-2.3-9.9-4
					c-0.3-0.1-0.5-0.3-0.7-0.5c-0.1-0.3-0.2-0.6-0.1-0.9C505.7,957.2,505.4,953.9,504.7,950.7z"/>
				<polygon class="st4" points="526.7,985.3 470.3,941.3 446.4,943.7 457.8,964.7 513.5,996.6 				"/>
				<g>
					<path class="st1" d="M527.6,935.7c0.5-0.7,0.8-1.4,1.1-2.2c0.4-1.2,0.6-2.5,0.5-3.8c-0.1-1.9-1.2-4.7-0.4-6.4s1.9-2.6,2.2-4.7
						c0.4-3.6-0.1-7.2-1.6-10.5c-0.4-0.9-1.4-2.3-2.4-0.9c-0.1,0.2-0.2,0.5-0.1,0.8c0.1,0.5,0.4,1,0.5,1.6c0.1,0.2,0.2,0.6,0.4,1
						l-2.4,0.8c-0.1-0.4-0.3-0.8-0.4-1.2c-0.4-1.2-0.8-2.4-1.3-3.5c-0.7-1.7-1.1-3.5-1.9-5.1c-2-4.3-7.2-5.9-11.8-4.7
						c-3.4,0.9-6.5,2.7-9.8,3.9c-4.1,1.4-6.6,0.3-10.5-0.5c-1.1-0.2-0.6-0.4-1.4,0.1c-0.5,0.4-1,1.4-1.4,1.9
						c-2.5,2.8-7.3,6.5-6.9,10.5c0.5,3.1,1.4,6.1,2.6,9c0.7,1.3,1.3,2.7,1.8,4l-1.8,0.6l-1-1.3l0,0c-0.7-0.2-0.7-1.2-1.5-1.4
						c-1.6-0.4-1.6,1.3-1.3,2.2c0.9,3.5,2.8,6.7,5.4,9.2c1.5,1.4,2.8,1.4,4.7,2.3s2.6,3.7,3.7,5.2c0.7,1,1.7,1.9,2.7,2.6
						c0.8,0.5,1.7,0.9,2.7,1.1c1.7,0.4,3.4,0.9,5.1,1.5c2.2,1.3,4.6,2.1,7.1,2.6c1.6,0,3.1-0.3,4.6-0.9l0.7-0.2
						c1.8-0.4,3.5-1.2,4.9-2.4c1.7-1.9,3-4.1,3.9-6.4C525.4,938.8,526.4,937.2,527.6,935.7z"/>
					<path class="st5" d="M527.1,908c-0.3-1.1-0.5-2.2-0.6-3.4c-0.3-2.3-0.7-4.5-1.4-6.7c-1.5-6.2-2.8-12.8-10.2-15.6
						c-7-2.7-17.9-3.7-24.8,0.5c-1.3,0.8-3.2,1.6-4,2.9c0.2-0.3-2,0.2-2.2,0.3c-3.3,0.7-8.2,5.8-10.4,12.3
						c-2.1,6.1,0.2,11.3,2.8,16.8c0.9,2.3,2,4.6,3.2,6.7c0.4,0.6,1.4,2,2.4,3.3l1,1.3l1.8-0.6c-0.5-1.4-1.1-2.7-1.8-4
						c-1.3-2.9-2.2-5.9-2.6-9c-0.4-4,4.5-7.7,6.9-10.5c0.4-0.5,0.9-1.5,1.4-1.9c0.9-0.5,0.4-0.3,1.4-0.1c3.9,0.7,6.4,1.9,10.5,0.5
						c3.3-1.2,6.4-3,9.8-3.9c4.6-1.2,9.7,0.4,11.8,4.7c0.8,1.6,1.2,3.4,1.9,5.1c0.5,1.1,0.9,2.3,1.3,3.5c0.1,0.4,0.2,0.8,0.4,1.2
						l2.4-0.8c-0.2-0.4-0.3-0.7-0.4-1C527.4,909,527.2,908.5,527.1,908z"/>
					<path class="st6" d="M489.1,915.1c1.2-2.2,3.3-3.8,5.7-4.4"/>
					<path class="st6" d="M509,906.6c2.4-0.8,5-0.6,7.2,0.7"/>
					<circle class="st5" cx="494.9" cy="916.9" r="1.9"/>
					<path class="st5" d="M512,909.9c1,0,1.9,0.9,1.9,1.9s-0.9,1.9-1.9,1.9c-1,0-1.9-0.9-1.9-1.9S511,909.9,512,909.9z"/>
					<path class="st6" d="M503.8,932.5c7.5,3.3,11.7-4.1,11.7-4.1"/>
				</g>
				<line class="st6" x1="542" y1="1026.5" x2="561.3" y2="1093.3"/>
				<path class="st3" d="M537.5,1057.4l-24.5,7.5c0,0,3.6,7.3,13.8,4.7S537.5,1057.4,537.5,1057.4z"/>
				<path class="st3" d="M582.1,1041.7l-24.5,7.5c0,0,3.6,7.3,13.8,4.7C581.5,1051.4,582.1,1041.7,582.1,1041.7z"/>
				<path class="st6" d="M503.9,914.3c0,0,2,7.4,4.5,7.8s-0.9,3-2.1,3.1"/>
			</g>
		</g>
		<g>
			<circle class="st1" cx="659.7" cy="677.6" r="85.9"/>
			<g id="Layer_7_3_">
				<path class="st1" d="M647.1,538c-0.8,2.8-1.2,5.7-1.7,6.8c-0.4,0.6-0.8,1.3-1.2,1.8c-0.7,0.9-1.8,2.3-1.8,3.5l-0.3,4.8
					c-0.1,2.3-1.3,4.1-3.7,4l0,0c-2.5-0.1-3.6-2.3-3.2-4.8l0.1-3.4c0.1-2-0.1-4.1-0.8-6c-1.1-4,0.1-8.6,1.5-12.2
					c0.8-2.3,3.8-3.6,7.9-5.1c2-0.7,5.3-1.3,4,1c-1.1,1.9-7.2,4.6-5.6,10.9c0.1,0.3,0.4,1.1,0.7,1.1c1.2,0.1,1.5-2.5,2.1-3.8
					c0.9-1.8,2.1-2.4,2.9-2.2C648.6,534.6,647.6,536,647.1,538z"/>
				<path class="st1" d="M760.6,571.2c0.8,0.1,1.7,1.1,1.9,3.1c0.1,1.4-0.6,4,0.6,4.3c0.3,0.1,0.9-0.5,1.1-0.8
					c3.7-5.3-0.9-10-1.3-12.2c-0.4-2.7,2.4-0.9,4.1,0.5c3.3,2.9,5.6,5.2,5.5,7.6c-0.1,3.9-0.6,8.6-3.1,11.9
					c-1.3,1.5-2.3,3.3-2.9,5.3l-1.1,3.2c-0.5,2.5-2.3,4.2-4.7,3.4l0,0c-2.2-0.8-2.7-2.8-2-5l1.4-4.6c0.4-1.1-0.2-2.8-0.5-3.9
					c-0.2-0.7-0.4-1.4-0.5-2.2c0-1.2,0.6-4,0.9-6.9C760.2,572.7,759.8,571.1,760.6,571.2z"/>
				<path class="st5" d="M681.9,686.1"/>
				<path class="st7" d="M713.2,593.8c0,7.6-28.5,4.5-28.5,4.5c-5.7-0.4-15.1,0.1-21.3,10.4c-4.8,8-9.6,17.1-0.7,39
					c0,0,6.3,18.1,41.7,8.8c44.8-11.7,57.1-44.2,30.4-57c0,0-1.7,7.1-10.3,0.3C715.9,593.2,713.2,593.8,713.2,593.8z"/>
				<path class="st8" d="M686.6,666.6L686.6,666.6c25.5,27.4,11.4,32,11.4,32c-5.1,2.7-9.6,6.3-13.5,10.7l-20.4,31.1
					c-15.3,8.7-44.5-15.6-44.5-15.6c6.7-4.8,7.4-30.3,7.4-30.3c-0.7-3-0.1-6.2,1.5-8.8c1.7-2.3,3.6-4.4,5.8-6.2
					c3.9-3.5,5.1-9,3.1-13.8c-6.8-16-14.3-43.5-13-57.9c1.4-15.4,9.6-54,9.6-54c2-1.6,8.9-2.3,10.1,0.8l-3.2,55.3
					c8.2,20.1,14.4,38.2,17.3,46.8c1.1,3.3,3.7,6,6.9,7.3l4,0.4"/>
				<path class="st8" d="M746.5,665.6c4.2-3.6,7-8.5,8.1-14l11-57.6c-2.9-1.5-5.9-2.9-9.3-1l-17.8,50.1c-1,2.6-3,4.7-5.5,5.8
					c-23.9,10.2-37.1,24.4-40.2,24.7c5,5.3-6.1,29.6-1.6,28.8C704.8,699.9,733.5,676.6,746.5,665.6z"/>
				<path class="st1" d="M685.5,664.9c0.1,0.3,0.1,0.6,0,0.8s-0.3,0.4-0.6,0.6c-2.7,1.9-5.6,3.5-8.6,4.8c-1.8,0.8-3.9,1.4-5.6,0.4
					c-1-0.7-1.8-1.7-2.2-2.9l-2.4-4.7c1.7-0.7,2.3-2.9,2.5-4.7c0.3-2.5,0.5-4.9,0.5-7.4c4.6-2.1,9.6-3,14.6-2.6
					c1.7,0.1,2.5,0.6,2.2,2.3s-0.6,3-0.8,4.6C684.8,659,684.9,662,685.5,664.9z"/>
				<path class="st1" d="M663.4,652.2c-4.4-4.6-6.2-11.1-3.7-24.8c2.4-13.7,8.8-17.1,8.8-17.1c4.7-4.2,10.6-7.6,16.9-8.2
					c3.6-0.1,7.1,0.4,10.5,1.5c2.6,0.6,5.1,1.5,7.4,2.9c1.9,1.2,3.5,2.8,4.7,4.6c3.8,5,5.6,11.2,5.1,17.5
					c-1.5,16.5-16.6,23.2-30.1,27.6C675.5,658.6,667.8,656.8,663.4,652.2z"/>
				<path class="st9" d="M701,652.7c0,0-9.3-27.5,2.5-37.3c0,0-9.8-1.2-15.1-3.9s-15-6.7-23.5,2.9c0,0-1.5,3.7-5.3,5.6l2.3-5.6
					l6.1-7.4l15.4-6l13.1-0.2l11.3,7.8l6.3,9.8l-0.4,19.4L703,648.9L701,652.7z"/>
				<path class="st6" d="M701,652.7c0,0-9.3-27.5,2.5-37.3c0,0-9.8-1.2-15.1-3.9s-15-6.7-23.5,2.9c0,0-3.1,3.5-3.1,5"/>
				<path class="st1" d="M687.3,620.5c3.7,1.4,5.9,5.2,5.3,9.1"/>
				<path class="st1" d="M681.3,616c-1.6-2.2-4.3-3.4-7-3.2"/>
				<path class="st1" d="M672.5,634.3c-0.6-0.9-1.1-1.9-1.5-2.9c-0.1-0.2-0.2-0.5-0.2-0.8c0-0.6,0.6-1.1,1.2-1.5l2.9-1.8"/>
				
					<ellipse transform="matrix(0.8085 -0.5885 0.5885 0.8085 -239.3743 524.7804)" class="st5" cx="686.7" cy="630.2" rx="2.4" ry="1.9"/>
				
					<ellipse transform="matrix(0.8085 -0.5885 0.5885 0.8085 -236.4409 514.3858)" class="st5" cx="672.2" cy="620.5" rx="2.4" ry="1.9"/>
				<path class="st10" d="M666.4,637.1c0,0-1.6,6.8,3.5,8.2s8-4.6,8-4.6L666.4,637.1z"/>
				<path class="st11" d="M602.2,741.3l17.3-16.5c5.3,6.9,44.5,15.6,44.5,15.6l2,22.7C666.1,763.1,632.3,768.2,602.2,741.3z"/>
			</g>
		</g>
		<g>
			<path class="st2" d="M568.5,405"/>
			<path class="st2" d="M568.5,405"/>
			<path class="st12" d="M568.5,405c198.6-2.2,408.2,1.3,552.9,19.2c0,0,79.5,175.5-337.1,341.7c0,0-73.9,22.4-94.6,78.5
				c-33.5,37.4-86.8,40.5-118,40.5s-92.3-8.1-124.5-40.5c-20.7-56-94.6-78.5-94.6-78.5C-64,599.8,15.5,424.3,15.5,424.3
				C160.3,406.3,369.8,402.8,568.5,405"/>
			<path class="st6" d="M568.5,405c198.6-2.2,408.2,1.3,552.9,19.2c0,0,79.5,175.5-337.1,341.7c0,0-73.9,22.4-94.6,78.5
				c-33.5,37.4-86.8,40.5-118,40.5s-92.3-8.1-124.5-40.5c-20.7-56-94.6-78.5-94.6-78.5C-64,599.8,15.5,424.3,15.5,424.3
				C160.3,406.3,369.8,402.8,568.5,405"/>
			<ellipse class="st13" cx="568.6" cy="425" rx="552.7" ry="72.7"/>
			<path class="st14" d="M574.7,497.7c133.5,0,256.1-6.1,352.2-16.4c-20.9-13.1-170.6-23.2-352.2-23.2s-331.3,10.1-352.2,23.2
				C318.6,491.5,441.2,497.7,574.7,497.7z"/>
		</g>
		<g>
			<circle class="st1" cx="730.3" cy="240.7" r="85.9"/>
			<g id="Layer_9_2_">
				<path class="st11" d="M689.8,50.4L663,127.2l24.4,80.9c0,0-10.6,55.8-27.3,82.2c0,0,30.5,45.8,86.1,34.8l32.7-83.9l81.5-42.3
					l24.2-76.3l-9.3-2.4l-31.2,59.1l-60.7,26.1c0,0,1.4-0.8-30.4-11.6c0,0-16,5.9-21.3-7.6c-15.7-10.3-23.3-16-28.3-17.7l-15.7-40.7
					l11.6-74.3L689.8,50.4z"/>
				<path class="st1" d="M699.4,53.4c10.1-11,0.7-8.5,0.7-8.5s-0.3-21.9-6.2-17.8c-4.8,3.4-4,23.2-4,23.2L699.4,53.4z"/>
				<path class="st1" d="M884.5,123.3c0,0,8.9-20.1,4.3-21.7c-3.4-1.2-11.1,11.6-11.1,11.6s-11.1-3.6-2.2,6.9L884.5,123.3z"/>
				<path class="st1" d="M736.7,178.5l-15.7,7.4l16.7,8.3c0,0,12.6-6.7,5.6-12.3L736.7,178.5z"/>
				<polygon class="st1" points="742.3,196.2 759.9,203.7 757.9,189.5 748,184.3 				"/>
				<path class="st7" d="M748.6,225.1l-7-30.8c0,0-0.1-4.3-3.3-1.6l-3.1,20.9L748.6,225.1z"/>
				<path class="st1" d="M756.1,190.2c0,0.3,0,0.6-0.1,0.9c-0.2,0.2-0.4,0.4-0.7,0.5c-3.2,1.7-6.7,3-10.2,4.1c-2,0.6-4.5,1-6.2-0.4
					c-1-0.9-1.7-2.1-2-3.5l-2-5.4c2-0.5,2.8-2.9,3.4-4.9c0.7-2.7,1.2-5.4,1.6-8.1c5.3-1.7,11-2,16.4-0.9c1.9,0.4,2.7,1,2.1,2.9
					c-0.6,1.9-1.1,3.2-1.5,4.9C756.2,183.5,755.9,186.9,756.1,190.2z"/>
				<path class="st1" d="M721.6,165.3c-2-8.5-2.8-8.1-3.1-12.4c-0.4-7-0.6-14.5,3.2-20.4c2.4-3.2,5.3-6,8.6-8.1
					c2.3-1.9,4.8-3.3,7.6-4.4c2.4-0.7,4.8-1.1,7.3-0.9c7,0.2,13.6,2.9,18.8,7.7c13.3,12.8,6.1,34.2-1.9,47.9
					c-3,5.1-7.3,10.2-13.1,11.1C728.2,189.7,723.5,173.5,721.6,165.3z"/>
				<path class="st15" d="M744.2,149.2c3.2-1.1,6.8,0.2,8.6,3.2"/>
				<path class="st15" d="M722.2,155.6c1.3-3.2,4.6-5,8-4.4"/>
				<path class="st1" d="M741.7,169.4c-1.2-0.2-2.4-0.4-3.6-0.7c-0.3-0.1-0.6-0.2-0.8-0.3c-0.6-0.5-0.5-1.3-0.5-2l0.4-3.8"/>
				
					<ellipse transform="matrix(1 -9.273858e-03 9.273858e-03 1 -1.4321 6.9405)" class="st5" cx="747.7" cy="157.9" rx="1.8" ry="2.3"/>
				
					<ellipse transform="matrix(0.9603 -0.279 0.279 0.9603 -16.2341 209.9173)" class="st5" cx="729.3" cy="162" rx="1.7" ry="2.1"/>
				<path class="st7" d="M763.2,146.6c0,0,2.7-6.6,5.4-4.1c0.9,0.9,2,8.2-3.6,13.2c0,0,3.8,5.2,1.8,9.7c0,0,7.7-6.1,9.3-27.6
					c0,0,2-18.7-19.4-17.2c-9.8-11.6-26.5-11.5-41.1,3.1c0,0-6.5,16.2,3.2,33.6c0,0-2.7-10.1,3.4-18.5c0,0,17.6,6.7,23.5-7.2
					C745.8,131.6,754.4,129.5,763.2,146.6z"/>
				<path class="st6" d="M736.8,175.3c0,0,6.4,3.5,12.5-3.5C749.3,171.9,747.5,183.2,736.8,175.3z"/>
				<polygon class="st16" points="735.2,213.6 793.1,168.7 817.5,171.2 805.8,192.7 748.6,225.1 				"/>
			</g>
		</g>
		<g>
			<circle class="st1" cx="629.6" cy="1219.8" r="85.9"/>
			<g id="Layer_7_4_">
				<path class="st1" d="M592.5,1166.3l-4.6-52c0-1.2,1.1-2.6,1.7-3.6c0.4-0.6,0.8-1.3,1.2-1.9c0.4-1.1,0.7-4.1,1.4-7
					c0.5-2.1,1.4-3.5,0.6-3.7s-2,0.6-2.8,2.4c-0.5,1.4-0.7,4-1.9,4c-0.4,0,0.1-1.5,0-1.8c0.1-5.1,0.5-7.9,1.3-9.9
					c0.4-1,0.4-2.2-0.1-3.1c-0.9-1.5-2.8-1.5-4.3-0.9c-4.1,1.7-4.4,5-5.2,7.4c-1.2,3.8-1.3,9,0,13c0.8,1.9,1.2,4,1.1,6.1l-7.2,51.5
					L592.5,1166.3z"/>
				<path class="st1" d="M762.2,1165.9c-2-4.8-4.1-1.6-6.6,1.2c-2.6,3-7.3,4.9-7.3,4.9c-0.3,0.1-1.1,0.5-1.4,0.2
					c-0.9-0.9-0.1-1.9,0.6-3.3c0.8-2,0.4-3.5-0.3-3.9c-0.7-0.5-1.1,1.3-2.3,3.2c-1.7,2.7-3.7,5.2-4.2,6.3c-0.2,0.8-0.4,1.5-0.6,2.3
					c-0.3,1.2-0.6,3.1-1.4,4l-34.3,24.5c0,0,8.5,12.9,10.1,14.1l28.9-32.6c1.5-1.6,3.4-2.8,5.4-3.7c4-2.1,7.8-4.8,11.6-8.9
					C762.5,1171.4,763.1,1167.9,762.2,1165.9z"/>
				<path class="st5" d="M634.6,1251.8"/>
				<path class="st5" d="M647.8,1223.8c-37.3,3.6-40.7-15.7-40.7-15.7c-5.5-23.6,0.8-32,7-39.4c8-9.5,17.5-8.5,23.2-7.1
					c4.7,1.1,22.2-9.8,24.3-19.2c3.8-16.7,28.3-27.6,41.8-21.6c0,0-11.1,6.7-7.9,18.6C703.6,1168.7,695,1219.2,647.8,1223.8z"/>
				<path class="st1" d="M636.5,1220.8c0.1-1.6,0.4-2.9,0.6-4.7c0.2-1.8-0.6-2.2-2.4-2.3c-5.1-0.2-10.2,1-14.8,3.4
					c0.1,2.5,0,5.1-0.2,7.6c-0.1,1.9-0.6,4.2-2.3,5l2.6,4.7c0.5,1.2,1.4,2.1,2.4,2.8c1.7,1,3.9,0.2,5.7-0.6c3-1.5,5.9-3.2,8.6-5.3
					c0.2-0.1,0.4-0.4,0.5-0.6c0.1-0.3,0.1-0.6,0-0.8C636.6,1226.9,636.3,1223.8,636.5,1220.8z"/>
				<path class="st1" d="M663.9,1191.4c0.2-6.4-1.9-12.7-6-17.7c-1.4-1.8-3.1-3.3-5.1-4.5c-2.4-1.2-5-2.1-7.7-2.6
					c-3.5-1-7.2-1.4-10.8-1.1c-6.4,0.9-11.5,5.6-16.1,10.1c-2.8,2.7-5.7,5.6-7.1,9.2c-0.9,2.6-1.4,5.3-1.5,8
					c-0.5,4.3-0.7,8.6-0.4,12.9c0.4,4,1.7,8.2,4.7,10.8c4.1,3.6,10.3,3.5,15.7,2.4C644,1216.3,663.1,1208.4,663.9,1191.4z"/>
				<path class="st17" d="M654.6,1212.7l10.4-11.9l-0.4-19.9l-6.9-9.8l-12-7.5l-13.4,0.8l-15.8,9.4l-7,10.8l-1.1,5.9
					c3.8-2.1,8-8.7,8-8.7c8.3-10.2,22.2-3.7,22.2-3.7c5.4,2.8,13.3,1.3,13.3,1.3c-11.7,10.6-4.6,36.8-4.6,36.8L654.6,1212.7z"/>
				<path class="st1" d="M644.8,1195c-1.4-3.8-2.9-9-9.2-8.8"/>
				<path class="st1" d="M625.2,1176.1c2.7,0.9,4.7,3,5.4,5.7"/>
				<path class="st1" d="M627.4,1191.4l-3.9,2.5c-0.5,0.4-2.8,0.9-2.8,1.5c0,0.3,0.1,0.5,0.3,0.8c0.5,1,1.1,2,1.7,2.9"/>
				<path class="st1" d="M623.2,1209.6c0.5-0.1,2.2-0.7,2.2-1.4c0-0.1-0.1-0.2-0.2-0.3c-1.7-2.9-4.1-5.4-6.9-7.3
					c-0.4-0.2-1-0.5-1.4-0.2c-0.2,0.2-0.3,0.4-0.4,0.6c-0.3,0.9-0.2,1.8-0.4,2.6c-0.3,1-0.6,2-0.9,3.1c-0.1,1.1,0.5,2.3,1.5,2.5
					c0.3,0,0.6,0,0.8,0c0.8,0,1.6,0.2,2.3,0.4C621,1209.8,622.1,1209.8,623.2,1209.6z"/>
				<path class="st18" d="M615,1206.4c0.7-0.3,1.3,0.6,1.8,1c1.5,1,3.2,1.6,5,1.7c1.3,0.1,2.7-0.1,4-0.4c-0.2,0.6-0.7,1-1.3,1.3
					c-0.6,0.2-1.2,0.4-1.9,0.4c-0.8,0.1-1.6,0.2-2.5,0.3c-1.1,0.1-2.1,0.1-3.2-0.2c-1.1-0.2-2-0.9-2.5-1.8
					C614.2,1208,614.3,1206.7,615,1206.4z"/>
				<path class="st19" d="M625.8,1305.6c-1.1-6.9-1.6-12.1,3.2-17.1c7.9-8.2,21.2-18.9,26.7-24.8c12.5-13.2,53-39.1,53-39.1
					l14.1-2.4c-3.4-15.1-19.4-28-19.4-28l-7.8,16.1l-47.1,24.4l-3.6-1.6c2.9-3.2,0.3-6.5,0.3-6.5l-7.8,3.3
					c-10.4,6.1-14.2-1.6-14.2-1.6c-2.5-5.9-11.3-6.9-11.3-6.9l2.3,5.5l-3.5-0.9l-19.4-49.6l5.8-15.1c-6.8-4.8-30.8-1.5-30.8-1.5
					l5.7,18c-0.6,10.4,10.8,42.6,14.6,51.8c3.8,9.2,2.3,11.7,0.4,15.7c-1.9,4-9.1,8.8-9.2,15.2s1.4,9.8-1.2,14.6s-5.8,7.2-5.8,7.2
					S592.7,1304.5,625.8,1305.6z"/>
				<path class="st1" d="M632.2,1191.3c0,0,2.5-0.9,5.3,0.7s1.7,4.2,4.2,5.1"/>
				<path class="st1" d="M625.5,1186.1c0,0,0.6-2.1-1.7-4.6s-6.5-0.6-6.7-2.4"/>
				<path class="st20" d="M616.6,1201c0,0-0.6-3.2,2.3-2.2c2.9,1,5.2,6.4,7.6,7s4.3-0.1,4.3-0.1s-3.4,3.4-5.6,2.2
					S620.7,1201.2,616.6,1201z"/>
			</g>
		</g>
		<g>
			<circle class="st1" cx="414.9" cy="381.2" r="85.9"/>
			<g id="Layer_7_2_">
				<path class="st1" d="M432.2,242.3c0.8,2.8,1.2,5.8,1.7,6.8c0.4,0.6,0.8,1.3,1.2,1.9c0.7,1,1.8,2.3,1.9,3.5l0.3,4.8
					c0.1,2.4,1.3,4.1,3.7,4l0,0c2.5-0.1,3.6-2.3,3.2-4.9l-0.1-3.4c-0.1-2,0.1-4.1,0.8-6c1.1-4-0.1-8.7-1.5-12.3
					c-0.8-2.3-3.8-3.6-7.9-5.1c-2-0.7-5.4-1.3-4,1c1.1,2,7.2,4.7,5.7,11c-0.1,0.3-0.4,1.1-0.7,1.1c-1.2,0.1-1.5-2.5-2.1-3.8
					c-0.9-1.8-2.1-2.4-2.9-2.2C430.6,238.9,431.6,240.3,432.2,242.3z"/>
				<path class="st1" d="M317.8,275.8c-0.8,0.1-1.7,1.2-1.9,3.1c-0.1,1.4,0.6,4-0.6,4.3c-0.3,0.1-0.9-0.6-1.1-0.8
					c-3.7-5.4,0.9-10.1,1.3-12.3c0.4-2.7-2.4-0.9-4.1,0.5c-3.3,2.9-5.6,5.2-5.6,7.6c0.1,3.9,0.6,8.7,3.1,12c1.3,1.5,2.3,3.4,2.9,5.3
					l1.1,3.2c0.5,2.5,2.3,4.2,4.7,3.4l0,0c2.3-0.8,2.7-2.8,2-5.1l-1.5-4.6c-0.4-1.1,0.2-2.8,0.5-3.9c0.2-0.7,0.4-1.4,0.5-2.2
					c0-1.2-0.6-4.1-0.9-7C318.2,277.3,318.6,275.7,317.8,275.8z"/>
				<path class="st5" d="M397.1,391.6"/>
				<path class="st7" d="M341.2,272.5c5-11-4.8-19.3-4.8-19.3c14.1-3.7,36.2,10.7,37.3,27.5c0.6,9.4,16,22.8,20.7,22.4
					c5.8-0.4,15.2,0.1,21.5,10.5c4.9,8.1,9.7,17.2,0.7,39.3c0,0-6.3,18.2-42,8.9C329.3,350,328.9,299.6,341.2,272.5z"/>
				<path class="st11" d="M392.4,371.9L392.4,371.9c-25.7,27.6-11.4,32.3-11.4,32.3c5.1,2.8,9.7,6.4,13.6,10.7l3.5,17.2
					c0.4,2.2,1.4,4.2,2.9,5.9c5.2,6.1,14.3,4.4,14.2,8.2c0,0,31.2-5.4,44.9-15.7l0.4-10.3c-0.4-4.7,0.2-7.4-1.5-9.5
					c-4.1-5.1-7.4-6.2-6.4-10.7c0.7-3,0.1-6.2-1.5-8.9c-1.7-2.3-3.6-4.4-5.8-6.3c-3.9-3.5-5.1-9.1-3.1-13.9
					c6.8-16.1,14.5-43.8,13.1-58.3c-1.4-15.5-9.7-54.4-9.7-54.4c-2-1.6-9-2.3-10.2,0.8l3.2,55.7c-8.2,20.3-14.5,38.5-17.4,47.1
					c-1.1,3.4-3.7,6.1-7,7.3l-4,0.4"/>
				<path class="st11" d="M332,370.9c-4.2-3.6-7.1-8.6-8.1-14.1l-11.1-58c3-1.5,5.9-2.9,9.4-1l17.9,50.4c1,2.7,3,4.8,5.6,5.9
					c24,10.3,63.4,40.5,58.6,45.6c-5,5.4-12,9.1-16.5,8.3C374,405.5,345.1,382,332,370.9z"/>
				<path class="st1" d="M393.5,370.2c-0.1,0.3-0.1,0.6,0,0.8s0.3,0.4,0.6,0.6c2.7,1.9,5.6,3.5,8.7,4.8c1.8,0.8,4,1.4,5.6,0.4
					c1-0.7,1.8-1.7,2.3-2.9l2.4-4.8c-1.8-0.7-2.3-2.9-2.5-4.8c-0.3-2.5-0.5-5-0.5-7.4c-4.6-2.1-9.6-3-14.7-2.6
					c-1.7,0.1-2.5,0.6-2.2,2.3s0.6,3,0.8,4.6C394.2,364.2,394.1,367.3,393.5,370.2z"/>
				<path class="st1" d="M415.8,357.4c4.5-4.6,6.2-11.2,3.8-25c-2.5-13.8-8.9-17.2-8.9-17.2c-4.7-4.2-10.7-7.6-17-8.3
					c-3.6-0.1-7.2,0.4-10.6,1.5c-2.6,0.6-5.1,1.5-7.4,2.9c-1.9,1.3-3.5,2.8-4.8,4.7c-3.8,5.1-5.6,11.3-5.1,17.6
					c1.5,16.7,16.7,23.3,30.4,27.8C403.6,363.8,411.3,362,415.8,357.4z"/>
				<path class="st9" d="M377.8,357.9c0,0,9.4-27.7-2.6-37.6c0,0,9.9-1.2,15.3-4c5.3-2.7,15.1-6.7,23.7,3c0,0,1.5,3.7,5.3,5.6
					l-2.3-5.6l-6.2-7.4l-15.5-6.1l-13.2-0.2l-11.4,7.9l-6.3,9.9l0.4,19.5l10.8,11.2L377.8,357.9z"/>
				<path class="st6" d="M377.8,357.9c0,0,9.4-27.7-2.6-37.6c0,0,9.9-1.2,15.3-4c5.3-2.7,15.1-6.7,23.7,3c0,0,3.1,3.5,3.1,5"/>
				<path class="st1" d="M391.6,325.4c-3.7,1.4-5.9,5.3-5.4,9.2"/>
				<path class="st1" d="M397.7,320.9c1.6-2.2,4.3-3.4,7-3.2"/>
				<path class="st1" d="M406.6,339.4c0.6-0.9,1.1-1.9,1.6-2.9c0.1-0.2,0.2-0.5,0.2-0.8c0-0.7-0.6-1.1-1.2-1.5l-3-1.8"/>
				
					<ellipse transform="matrix(0.5885 -0.8085 0.8085 0.5885 -109.4137 455.2853)" class="st5" cx="392.6" cy="335.1" rx="1.9" ry="2.4"/>
				
					<ellipse transform="matrix(0.5885 -0.8085 0.8085 0.5885 -95.4911 462.9262)" class="st5" cx="407" cy="325.3" rx="1.9" ry="2.4"/>
				<path class="st1" d="M401.2,345.8c0,0,4.6,2.4,8.2,1.3c2-0.7,3.4-1.8,3.4-4.9"/>
				<path class="st21" d="M460,430.5l13.8,13.2c0,0-20.6,21.8-56.1,23.4l-2.6-20.8C415.1,446.2,454.6,437.5,460,430.5z"/>
			</g>
		</g>
	</g>
</g>
</svg>
