<?xml version="1.0" encoding="utf-8"?>
<!-- Generator: Adobe Illustrator 22.0.1, SVG Export Plug-In . SVG Version: 6.00 Build 0)  -->
<svg version="1.1" id="Layer_1" xmlns="http://www.w3.org/2000/svg" xmlns:xlink="http://www.w3.org/1999/xlink" x="0px" y="0px"
	 viewBox="0 0 689.9 680.1" style="enable-background:new 0 0 689.9 680.1;" xml:space="preserve">
<style type="text/css">
	.st0{fill:#FFFFFF;}
	.st1{fill:#CCCCCC;}
	.st2{fill:#D8D8D8;stroke:#000000;stroke-width:0.5;stroke-miterlimit:10;}
	.st3{fill:#848484;stroke:#000000;stroke-width:0.5;stroke-miterlimit:10;}
	.st4{fill:#F2F2F2;stroke:#000000;stroke-width:0.5;stroke-miterlimit:10;}
	.st5{fill:#353535;stroke:#000000;stroke-width:0.5;stroke-miterlimit:10;}
	.st6{fill:#0077BF;stroke:#000000;stroke-width:0.5;stroke-miterlimit:10;}
	.st7{fill:#848484;}
	.st8{fill:none;stroke:#000000;stroke-width:0.5;stroke-miterlimit:10;}
	.st9{fill:#353535;}
	.st10{fill:#EB058C;}
	.st11{opacity:0.45;fill:#C0EAFF;enable-background:new    ;}
	.st12{fill:#D3D3D3;stroke:#000000;stroke-width:0.5;stroke-miterlimit:10;}
	.st13{fill:#EDEDED;stroke:#000000;stroke-width:0.5;stroke-miterlimit:10;}
	.st14{fill:#FFE600;stroke:#000000;stroke-width:0.5;stroke-miterlimit:10;}
	.st15{enable-background:new    ;}
</style>
<title>DT2</title>
<g>
	<g id="Layer_7">
		<path class="st0" d="M247.6,184.7c0,0-32.6-145.6,131.4-164.6c0,0,190.3-44.7,275,182.3c0,0,45.4,99.2,1.1,255.7
			c0,0-50.1,125.9-156.8,170c0,0-183.6,79-347.8,13.7c0,0-213.8-52.3-114.3-223.5c0,0,39.6-55.4,122.6-57
			C158.7,361.3,287.2,367.3,247.6,184.7z"/>
	</g>
	<ellipse class="st1" cx="333.3" cy="604" rx="135.4" ry="16.5"/>
	<path class="st2" d="M302.8,297.1h13.1c6.3,0,11.4,5.1,11.4,11.4l0,0c0,6.3-5.1,11.4-11.4,11.4h-13.1c-6.3,0-11.4-5.1-11.4-11.4
		l0,0C291.3,302.2,296.4,297.1,302.8,297.1z"/>
	<path class="st3" d="M397.3,216.9l-3-0.2c2.6-33.1-31-62.9-75.1-66.4s-82.1,20.5-84.7,53.6l-3-0.2c2.8-34.8,42.2-60,88-56.4
		S400.1,182.2,397.3,216.9z"/>
	
		<ellipse transform="matrix(7.985155e-02 -0.9968 0.9968 7.985155e-02 50.9231 529.1863)" class="st4" cx="312.1" cy="237" rx="70.1" ry="78.8"/>
	
		<ellipse transform="matrix(7.985155e-02 -0.9968 0.9968 7.985155e-02 50.9231 529.1863)" class="st4" cx="312.1" cy="237" rx="70.1" ry="60.7"/>
	<path class="st5" d="M279.1,208l69.6,5.6c12,1,21,11.5,20.1,23.5l-0.1,1.6c-1,12-11.5,21-23.5,20.1l-69.6-5.6
		c-12-1-21-11.5-20.1-23.5l0.1-1.6C256.5,216,267,207,279.1,208z"/>
	<circle class="st6" cx="333.9" cy="235.1" r="7.2"/>
	<circle class="st6" cx="291" cy="231.7" r="7.2"/>
	<path class="st3" d="M329.7,294.2c-2.5-0.2-5.1-0.5-7.8-1l0.5-3c44.7,7.5,64.8-22.5,65-22.8l2.5,1.6
		C389.7,269.4,370.9,297.5,329.7,294.2z"/>
	<path class="st7" d="M219.4,251.2L219.4,251.2c-3.8,1.3-8.2-1.8-9.1-7c-2-11.7-1-23.7,2.8-35c1.7-4.9,6.5-7.3,10.1-5.4l0,0
		c3.5,1.9,4.9,6.3,3.6,10.1c-3.1,9-3.8,18.6-2.2,28C225.3,245.8,223.2,249.9,219.4,251.2z"/>
	<path class="st8" d="M219.4,251.2L219.4,251.2c-3.8,1.3-8.2-1.8-9.1-7c-2-11.7-1-23.7,2.8-35c1.7-4.9,6.5-7.3,10.1-5.4l0,0
		c3.5,1.9,4.9,6.3,3.6,10.1c-3.1,9-3.8,18.6-2.2,28C225.3,245.8,223.2,249.9,219.4,251.2z"/>
	<path class="st9" d="M234.2,261.7L234.2,261.7c-5.2,1.8-11.4-2.5-12.6-9.7c-2.7-16.3-1.4-33,3.9-48.6c2.3-6.9,9.1-10.1,14-7.6l0,0
		c4.9,2.6,6.8,8.8,5.1,14c-4.2,12.5-5.3,25.8-3.1,38.8C242.4,254.1,239.5,259.9,234.2,261.7z"/>
	<path class="st8" d="M234.2,261.7L234.2,261.7c-5.2,1.8-11.4-2.5-12.6-9.7c-2.7-16.3-1.4-33,3.9-48.6c2.3-6.9,9.1-10.1,14-7.6l0,0
		c4.9,2.6,6.8,8.8,5.1,14c-4.2,12.5-5.3,25.8-3.1,38.8C242.4,254.1,239.5,259.9,234.2,261.7z"/>
	<path class="st7" d="M402.7,265.9L402.7,265.9c3.5,1.8,8.4-0.5,10.1-5.4c3.8-11.3,4.8-23.3,2.8-35c-0.9-5.1-5.3-8.2-9.1-7l0,0
		c-3.8,1.3-5.9,5.4-5.2,9.4c1.6,9.4,0.8,19-2.2,28C397.8,259.6,399.2,264,402.7,265.9z"/>
	<path class="st8" d="M402.7,265.9L402.7,265.9c3.5,1.8,8.4-0.5,10.1-5.4c3.8-11.3,4.8-23.3,2.8-35c-0.9-5.1-5.3-8.2-9.1-7l0,0
		c-3.8,1.3-5.9,5.4-5.2,9.4c1.6,9.4,0.8,19-2.2,28C397.8,259.6,399.2,264,402.7,265.9z"/>
	<path class="st9" d="M386.4,273.9L386.4,273.9c4.9,2.6,11.6-0.7,14-7.5c5.3-15.6,6.6-32.3,3.9-48.6c-1.2-7.1-7.4-11.4-12.6-9.7l0,0
		c-5.2,1.8-8.1,7.5-7.2,13c2.2,13,1.1,26.4-3.1,38.9C379.6,265.1,381.5,271.3,386.4,273.9z"/>
	<path class="st8" d="M386.4,273.9L386.4,273.9c4.9,2.6,11.6-0.7,14-7.5c5.3-15.6,6.6-32.3,3.9-48.6c-1.2-7.1-7.4-11.4-12.6-9.7l0,0
		c-5.2,1.8-8.1,7.5-7.2,13c2.2,13,1.1,26.4-3.1,38.9C379.6,265.1,381.5,271.3,386.4,273.9z"/>
	<path class="st5" d="M313.1,284.1l9.5,0.8c4.1,0.3,7.1,3.9,6.8,7.9l0,0c-0.3,4.1-3.9,7.1-7.9,6.8l-9.5-0.8
		c-4.1-0.3-7.1-3.9-6.8-7.9l0,0C305.5,286.8,309,283.8,313.1,284.1z"/>
	<path class="st8" d="M286.4,270.2c0,0,22.2,14.9,46.9,3.8"/>
	<path class="st6" d="M289.6,311.9h38.8c2.9,0,5.3,2.4,5.3,5.3v1c0,2.9-2.4,5.3-5.3,5.3h-38.8c-2.9,0-5.3-2.4-5.3-5.3v-1
		C284.2,314.3,286.6,311.9,289.6,311.9z"/>
	
		<ellipse transform="matrix(0.125 -0.9922 0.9922 0.125 -177.824 583.9589)" class="st2" cx="242.2" cy="392.8" rx="31.1" ry="15.3"/>
	
		<ellipse transform="matrix(0.2598 -0.9657 0.9657 0.2598 -248.006 495.9245)" class="st4" cx="199.5" cy="409.7" rx="17.7" ry="47.4"/>
	<circle class="st4" cx="246.5" cy="360.9" r="13.6"/>
	<ellipse class="st6" cx="254.1" cy="349.3" rx="19.2" ry="22"/>
	<path class="st4" d="M347.1,414.6h-75.6c-6.6,0-9.8-5.1-12-12L244,365.1c-8.5-20.6,5.7-44.1,28-45.1c0.5,0,1,0,1.6,0h71.3
		c0.5,0,1,0,1.5,0c22.3,1,36.5,24.4,28,45.1l-15.5,37.5C356.6,409.9,353.7,414.6,347.1,414.6z"/>
	<path class="st8" d="M241.7,355c0,0,14.5,12.3,56.9,12.3s80.5-13.2,80.5-13.2"/>
	<ellipse class="st6" cx="365.5" cy="349.3" rx="19.2" ry="22"/>
	<path class="st10" d="M343.4,426c-22.5,2.6-45.3,2.6-67.8,0c-3.8-0.4-6.7-3.8-6.3-7.6c0-0.1,0-0.1,0-0.2l0,0c0.6-3.8,4.1-6.4,7.9-6
		c21.4,2.5,43.1,2.5,64.6,0c3.8-0.4,7.3,2.2,7.9,6l0,0c0.5,3.8-2.3,7.3-6.1,7.8C343.5,426,343.4,426,343.4,426z"/>
	<path class="st8" d="M343.4,426c-22.5,2.6-45.3,2.6-67.8,0c-3.8-0.4-6.7-3.8-6.3-7.6c0-0.1,0-0.1,0-0.2l0,0c0.6-3.8,4.1-6.4,7.9-6
		c21.4,2.5,43.1,2.5,64.6,0c3.8-0.4,7.3,2.2,7.9,6l0,0c0.5,3.8-2.3,7.3-6.1,7.8C343.5,426,343.4,426,343.4,426z"/>
	
		<ellipse transform="matrix(4.187663e-02 -0.9991 0.9991 4.187663e-02 -204.405 729.2552)" class="st6" cx="278" cy="471.2" rx="23.6" ry="19"/>
	<path class="st4" d="M276.8,557.3L276.8,557.3c-12.9-0.4-23-11.2-22.7-24.1l1.3-44.9c0.4-12.9,11.2-23,24.1-22.7l0,0
		c12.9,0.4,23,11.2,22.7,24.1l0.7,45.1C302.4,547.7,289.6,557.7,276.8,557.3z"/>
	<path class="st2" d="M263.5,551.1l22.1,1.8c5.4,0.4,9.4,5.1,8.9,10.5l0,0c-0.4,5.4-5.1,9.4-10.5,8.9l-22.1-1.8
		c-5.4-0.4-9.4-5.1-8.9-10.5l0,0C253.4,554.7,258.1,550.7,263.5,551.1z"/>
	<path class="st4" d="M281.6,604c5.8,0,10.6-4.2,10.6-9.3v-5.8c0-11.9-14-21.7-31-21.7h-7.9c-17.1,0-31,9.8-31,21.7v5.8
		c0,5.1,4.7,9.3,10.6,9.3H281.6z"/>
	<path class="st4" d="M286,427.4h48.2c16.7,0,24.5,20.7,12,31.7L318,478.7c-6.9,6.1-17.2,6.1-24.1,0l-20-19.6
		C261.5,448,269.3,427.4,286,427.4z"/>
	<ellipse class="st8" cx="300.8" cy="367.1" rx="30.1" ry="46.8"/>
	<path class="st8" d="M321.9,413.8c0,0,4.4,5,0,13.6"/>
	<path class="st8" d="M283,412.8c0,0-4.4,5.6,0,13.9"/>
	
		<ellipse transform="matrix(0.2475 -0.9689 0.9689 0.2475 -106.745 644.3845)" class="st2" cx="361.5" cy="390.9" rx="31.1" ry="15.3"/>
	<circle class="st4" cx="369.2" cy="360.9" r="13.6"/>
	
		<ellipse transform="matrix(0.2892 -0.9573 0.9573 0.2892 -153.3032 599.9191)" class="st4" cx="327.3" cy="403.2" rx="17.7" ry="47.6"/>
	<path class="st2" d="M173,399.4c-1.8,5.8-14.5,5.6-20.3,3.8c-5.8-1.9-9-8.2-7.1-14c1.9-5.7,8-8.9,13.8-7.2
		C165.3,383.8,174.9,393.5,173,399.4z"/>
	<path class="st6" d="M263.9,378.2L263.9,378.2c1-1.7,3.1-2.2,4.8-1.3l7.5,4.3c1.7,1,2.2,3.1,1.3,4.8l0,0c-1,1.7-3.1,2.2-4.8,1.3
		l-7.5-4.3C263.5,382,262.9,379.9,263.9,378.2z"/>
	<path class="st6" d="M256.7,381.7l0.1-0.4c0.4-1.5,1.9-2.4,3.5-2l7.6,1.9c1.5,0.4,2.4,1.9,2,3.5l-0.1,0.4c-0.4,1.5-1.9,2.4-3.5,2
		l-7.6-1.9C257.2,384.8,256.3,383.2,256.7,381.7z"/>
	<path class="st6" d="M250.2,385.7l-0.1-0.3c-0.6-1.5,0.2-3.1,1.6-3.7l5.8-2.2c1.5-0.6,3.1,0.2,3.7,1.6l0.1,0.3
		c0.6,1.5-0.2,3.1-1.6,3.7l-5.8,2.2C252.4,388,250.8,387.2,250.2,385.7z"/>
	<path class="st6" d="M255.4,385.4L255.4,385.4c0.5-1.9,2.4-3,4.2-2.5l8.4,2.1c1.9,0.5,3,2.4,2.5,4.2l0,0c-0.5,1.9-2.4,3-4.2,2.5
		l-8.4-2.1C256,389.1,254.9,387.2,255.4,385.4z"/>
	<path class="st6" d="M247.8,390.1L247.8,390.1c-0.7-1.8,0.2-3.8,2-4.5l6.3-2.4c1.8-0.7,3.8,0.2,4.5,2l0,0c0.7,1.8-0.2,3.8-2,4.5
		l-6.3,2.4C250.5,392.8,248.5,391.9,247.8,390.1z"/>
	<path class="st6" d="M258.3,390.2L258.3,390.2c0.4-1.7,2.1-2.7,3.8-2.3l7.5,1.9c1.7,0.4,2.7,2.1,2.3,3.8l0,0
		c-0.4,1.7-2.1,2.7-3.8,2.3l-7.5-1.9C258.8,393.5,257.8,391.8,258.3,390.2z"/>
	<path class="st6" d="M251.5,394.4L251.5,394.4c-0.6-1.6,0.2-3.4,1.8-4l5.7-2.1c1.6-0.6,3.4,0.2,4,1.8l0,0c0.6,1.6-0.2,3.4-1.8,4
		l-5.7,2.1C253.9,396.8,252.1,396,251.5,394.4z"/>
	<path class="st6" d="M260.3,394.9L260.3,394.9c0.4-1.4,1.8-2.3,3.2-1.9l6.3,1.6c1.4,0.4,2.3,1.8,1.9,3.2l0,0
		c-0.4,1.4-1.8,2.3-3.2,1.9l-6.3-1.6C260.8,397.7,260,396.3,260.3,394.9z"/>
	<path class="st6" d="M254.6,398.4L254.6,398.4c-0.5-1.4,0.2-2.9,1.5-3.4l4.7-1.8c1.4-0.5,2.9,0.2,3.4,1.5l0,0
		c0.5,1.4-0.2,2.9-1.5,3.4l-4.7,1.8C256.7,400.5,255.1,399.8,254.6,398.4z"/>
	<path class="st2" d="M292,397.4c-1.8,5.9-14.5,5.6-20.3,3.8c-5.8-1.9-9-8.2-7.1-14c1.9-5.7,8-8.9,13.8-7.2
		C284.3,381.9,293.9,391.6,292,397.4z"/>
	<path class="st11" d="M132.2,356.1l33.8-96.2c0,0,142-45.4,180.3,146.2l-114.9,33.4L132.2,356.1z"/>
	<path class="st12" d="M132,348.1l2.4-4.2c0.7-1.2,2-1.9,3.4-1.9l0,0l66.3,6.2c1.6,0.2,3,1.2,3.6,2.7l33.6,80.6
		c0.5,1.1,0.4,2.4-0.1,3.5l0,0c-1.2,2.6-7.6,6.2-9.8,4.4l-99.2-83.3C129.8,354.2,129.7,352.1,132,348.1z"/>
	<path class="st4" d="M203.3,436.8l-15.8-1.4c-1.3-0.1-2.5-0.8-3.3-1.9l-52.8-77.8c-1.4-2-0.8-4.7,1.2-6.1c0.9-0.6,1.9-0.8,2.9-0.7
		l63.9,6.6c1.6,0.2,2.9,1.2,3.6,2.6l32.7,75.5c1,2.2-0.1,4.8-2.3,5.8c-0.7,0.3-1.4,0.4-2.2,0.3L203.3,436.8"/>
	<line class="st8" x1="205.7" y1="350.1" x2="201.9" y2="355.6"/>
	<path class="st12" d="M194.9,366.1l-9.2-0.8c-1.8-0.1-3.3-1.6-3.3-3.4l0,0c0.1-1.7,1.5-2.9,3.2-2.8c0.1,0,0.2,0,0.3,0l9.2,0.8
		c1.8,0.1,3.3,1.6,3.3,3.4l0,0c-0.1,1.7-1.5,2.9-3.2,2.8C195.1,366.2,195,366.2,194.9,366.1z"/>
	
		<ellipse transform="matrix(0.2939 -0.9558 0.9558 0.2939 -212.2053 437.8849)" class="st5" cx="190.3" cy="362.6" rx="2.5" ry="2.8"/>
	
		<ellipse transform="matrix(0.2939 -0.9558 0.9558 0.2939 -212.2053 437.8849)" class="st6" cx="190.3" cy="362.6" rx="1.2" ry="1.4"/>
	<path class="st6" d="M150.7,384.9l0.1-0.4c0.4-1.5,1.9-2.4,3.5-2l7.6,1.9c1.5,0.4,2.4,1.9,2,3.5l-0.1,0.4c-0.4,1.5-1.9,2.4-3.5,2
		l-7.6-1.9C151.2,387.9,150.3,386.4,150.7,384.9z"/>
	<path class="st6" d="M144.2,388.9l-0.1-0.3c-0.6-1.5,0.2-3.1,1.6-3.7l5.8-2.2c1.5-0.6,3.1,0.2,3.7,1.6l0.1,0.3
		c0.6,1.5-0.2,3.1-1.6,3.7l-5.8,2.2C146.4,391.1,144.8,390.4,144.2,388.9z"/>
	<path class="st6" d="M149.4,388.6L149.4,388.6c0.5-1.9,2.4-3,4.2-2.5l8.4,2.1c1.9,0.5,3,2.4,2.5,4.2l0,0c-0.5,1.9-2.4,3-4.2,2.5
		l-8.4-2.1C150,392.3,148.9,390.4,149.4,388.6z"/>
	<path class="st6" d="M141.8,393.2L141.8,393.2c-0.7-1.8,0.2-3.8,2-4.5l6.3-2.4c1.8-0.7,3.8,0.2,4.5,2l0,0c0.7,1.8-0.2,3.8-2,4.5
		l-6.3,2.4C144.5,395.9,142.5,395,141.8,393.2z"/>
	<path class="st6" d="M152.2,393.3L152.2,393.3c0.4-1.7,2.1-2.7,3.8-2.3l7.5,1.9c1.7,0.4,2.7,2.1,2.3,3.8l0,0
		c-0.4,1.7-2.1,2.7-3.8,2.3l-7.5-1.9C152.8,396.7,151.8,395,152.2,393.3z"/>
	<path class="st6" d="M145.4,397.5L145.4,397.5c-0.6-1.6,0.2-3.4,1.8-4l5.7-2.1c1.6-0.6,3.4,0.2,4,1.8l0,0c0.6,1.6-0.2,3.4-1.8,4
		l-5.7,2.1C147.9,400,146.1,399.2,145.4,397.5z"/>
	<path class="st6" d="M154.3,398.1L154.3,398.1c0.4-1.4,1.8-2.3,3.2-1.9l6.3,1.6c1.4,0.4,2.3,1.8,1.9,3.2l0,0
		c-0.4,1.4-1.8,2.3-3.2,1.9l-6.3-1.6C154.8,400.9,153.9,399.5,154.3,398.1z"/>
	<path class="st6" d="M148.6,401.6L148.6,401.6c-0.5-1.4,0.2-2.9,1.5-3.4l4.7-1.8c1.4-0.5,2.9,0.2,3.4,1.5l0,0
		c0.5,1.4-0.2,2.9-1.5,3.4l-4.7,1.8C150.6,403.6,149.1,403,148.6,401.6z"/>
	
		<ellipse transform="matrix(0.2475 -0.9689 0.9689 0.2475 -200.3737 683.4716)" class="st6" cx="339.8" cy="470.7" rx="23.6" ry="19"/>
	<path class="st4" d="M352.3,559.9L352.3,559.9c-12.9,1-24.1-8.6-25.1-21.5l-3.5-44.8c-1-12.9,8.7-24.1,21.5-25.1l0,0
		c12.9-1,24.1,8.7,25.1,21.5l5.5,44.8C376.8,547.6,365.1,558.9,352.3,559.9z"/>
	<path class="st2" d="M342,549.6l22.1,1.8c5.4,0.4,9.4,5.1,8.9,10.5l0,0c-0.4,5.4-5.1,9.4-10.5,8.9l-22.1-1.8
		c-5.4-0.4-9.4-5.1-8.9-10.5l0,0C331.9,553.2,336.6,549.2,342,549.6z"/>
	<path class="st4" d="M366.5,604c5.8,0,10.6-4.2,10.6-9.3v-5.8c0-11.9-14-21.7-31-21.7h-7.9c-17.1,0-31,9.8-31,21.7v5.8
		c0,5.1,4.7,9.3,10.6,9.3H366.5z"/>
	<path class="st13" d="M126.9,323.6H119l1,10.7l-13-10.7H49.6c-9.1,0-16.5-7.4-16.5-16.5v-43.7c0-9.1,7.4-16.5,16.5-16.5h77.3
		c9.1,0,16.5,7.4,16.5,16.5v43.7C143.4,316.2,136,323.6,126.9,323.6z"/>
	<path class="st13" d="M358.4,127.1H370l-1.5,15.8l19.2-15.8h194.9c13.5,0,24.4-11,24.4-24.4V78.2c0-13.5-10.9-24.4-24.4-24.4H358.4
		c-13.5,0-24.4,10.9-24.5,24.4v24.5C333.9,116.2,344.9,127.1,358.4,127.1z"/>
	<path class="st14" d="M70.9,270.2h34.6c3.1,0,5.7,2.6,5.7,5.7v22.3c0,3.1-2.6,5.7-5.7,5.7H70.9c-3.1,0-5.7-2.6-5.7-5.7v-22.3
		C65.2,272.7,67.8,270.2,70.9,270.2z"/>
	<polyline class="st8" points="65.2,275.9 88.2,288.5 111.2,275.9 	"/>
	<g class="st15">
		<path class="st9" d="M374.4,98.2H372v-8.3h-9.3v8.3h-2.3V80.5h2.3v7.4h9.3v-7.4h2.3V98.2z"/>
		<path class="st9" d="M389.7,91.7c0,4.3-2.3,6.9-6.2,6.9c-3.9,0-6.3-2.5-6.3-6.8s2.4-6.8,6.3-6.8C387.4,85,389.7,87.5,389.7,91.7z
			 M379.4,91.8c0,3.2,1.5,5,4.1,5c2.5,0,4-1.9,4-5c0-3.1-1.5-5-4-5C381,86.8,379.4,88.7,379.4,91.8z"/>
		<path class="st9" d="M393.4,85.4l2.9,10.6l2.6-10.6h2.3l2.7,10.6l2.9-10.6h2.2l-4.1,12.8h-2.2l-2.6-10.1l-2.6,10.1h-2.3L391,85.4
			H393.4z"/>
		<path class="st9" d="M423.4,98.6c-4,0-6.1-2.7-6.1-6.6c0-4.3,2.4-7,6.2-7c3.1,0,5.1,1.6,5.4,4.5h-2.2c-0.4-1.8-1.5-2.8-3.2-2.8
			c-2.4,0-4,1.9-4,5c0,3.1,1.4,5,3.8,5c1.9,0,3.2-1.2,3.5-3.3h2.1C428.6,96.6,426.6,98.6,423.4,98.6z"/>
		<path class="st9" d="M442.7,98.2c-0.4,0.2-1,0.2-1.4,0.2c-1.2,0-1.8-0.7-1.9-1.9c-1.3,1.4-2.7,2-4.6,2c-2.5,0-4.1-1.4-4.1-3.6
			c0-2.3,1.5-3.6,4.5-4c3.1-0.4,4.1-0.3,4.1-2c0-1.4-1-2.1-2.9-2.1c-2,0-3,0.7-3.2,2.6h-2.1c0.1-2.7,2.1-4.3,5.4-4.3
			c1.7,0,3.2,0.4,4,1.2c0.9,0.9,0.9,2.2,0.9,3.3c0,1.9-0.1,3.8-0.1,5.7c0,0.9,0.2,1.3,0.9,1.3c0.2,0,0.3,0,0.5-0.1V98.2z
			 M436.4,92.3c-1.5,0.2-3.6,0.4-3.6,2.4c0,1.3,1,2.1,2.6,2.1c2,0,3.9-1.4,3.9-3v-2.3C438.5,92.1,437.4,92.2,436.4,92.3z"/>
		<path class="st9" d="M446.6,87.4c1.1-1.6,2.4-2.3,4.4-2.3c3.1,0,4.3,1.7,4.3,4.6v8.5h-2.1v-7.6c0-2-0.1-3.8-2.8-3.8
			c-2.8,0-3.7,2.1-3.7,4.6v6.7h-2.1V85.4h2V87.4z"/>
		<path class="st9" d="M468.2,98.2h-2.3V80.5h2.3V98.2z"/>
		<path class="st9" d="M480.9,87.2c0.9-1.4,2.4-2.1,4.2-2.1c3.1,0,4.3,1.7,4.3,4.4v8.8h-2.1v-8.3c0-1.8-0.5-3-2.8-3
			c-2.7,0-3.6,1.9-3.6,4.8v6.5h-2.1V80.5h2.1V87.2z"/>
		<path class="st9" d="M497.9,98.6c-3.8,0-6-2.5-6-6.7c0-4.2,2.4-7,6-7c4.2,0,5.8,3.4,5.8,7.1v0.3H494l0,0.1c0,2.7,1.5,4.4,4,4.4
			c1.8,0,2.9-0.8,3.5-2.7h2.1C502.9,97.1,501,98.6,497.9,98.6z M497.8,86.8c-2.1,0-3.5,1.5-3.8,3.9h7.5
			C501.3,88.2,499.9,86.8,497.8,86.8z"/>
		<path class="st9" d="M508.2,98.2H506V80.5h2.1V98.2z"/>
		<path class="st9" d="M513.4,87.2c1-1.6,2.4-2.2,4.3-2.2c3.6,0,5.8,2.6,5.8,6.7c0,4.2-2.2,6.8-5.7,6.8c-1.9,0-3.2-0.6-4.3-2.1v6.7
			h-2.1V85.4h2V87.2z M513.5,91.8c0,3.1,1.5,5,4,5c2.4,0,3.9-1.9,3.9-5c0-3.1-1.5-5-4-5C515,86.8,513.5,88.6,513.5,91.8z"/>
		<path class="st9" d="M538.2,99.9c-0.7,1.8-1.4,3.5-3.7,3.5c-0.5,0-1-0.1-1.6-0.2v-1.9c0.7,0.2,1,0.3,1.4,0.3
			c0.7,0,1.2-0.5,1.5-1.1l1-2.3l-5.1-12.8h2.4l3.8,10.2l3.6-10.2h2.2L538.2,99.9z"/>
		<path class="st9" d="M557.3,91.7c0,4.3-2.3,6.9-6.2,6.9c-3.9,0-6.3-2.5-6.3-6.8s2.4-6.8,6.3-6.8C555,85,557.3,87.5,557.3,91.7z
			 M547,91.8c0,3.2,1.5,5,4.1,5c2.5,0,4-1.9,4-5c0-3.1-1.5-5-4-5C548.6,86.8,547,88.7,547,91.8z"/>
		<path class="st9" d="M570.4,98.2h-2v-2c-1.1,1.6-2.5,2.4-4.4,2.4c-2.7,0-4.3-1.5-4.3-4.3v-8.8h2.1v8.3c0,1.8,0.5,3.1,2.7,3.1
			c2.8,0,3.8-2,3.8-4.6v-6.7h2.1V98.2z"/>
		<path class="st9" d="M579,80.2c3.2,0,5.2,1.9,5.2,4.8c0,1.9-0.7,3-1.9,4.2c-1.7,1.6-2.4,1.9-2.4,4.8h-2v-0.1c0-3,0.7-3.7,2.7-5.7
			c1.1-1.1,1.4-1.8,1.4-2.9c0-1.9-1.2-3.1-3-3.1c-2.5,0-3.4,1.8-3.5,4h-2.1C573.4,82.8,575.2,80.2,579,80.2z M580.1,98.2h-2.6v-2.5
			h2.6V98.2z"/>
	</g>
</g>
</svg>
