<?xml version="1.0" encoding="utf-8"?>
<!-- Generator: Adobe Illustrator 22.0.1, SVG Export Plug-In . SVG Version: 6.00 Build 0)  -->
<svg version="1.1" id="Layer_1" xmlns="http://www.w3.org/2000/svg" xmlns:xlink="http://www.w3.org/1999/xlink" x="0px" y="0px"
	 viewBox="0 0 1000 1000" style="enable-background:new 0 0 1000 1000;" xml:space="preserve">
<style type="text/css">
	.st0{fill:#FFFFFF;}
	.st1{fill:#BCBCBC;}
	.st2{fill:#D8D8D8;stroke:#000000;stroke-width:0.5;stroke-miterlimit:10;}
	.st3{clip-path:url(#SVGID_2_);}
	.st4{fill:none;stroke:#000000;stroke-width:0.5;stroke-miterlimit:10;}
	.st5{fill:#777777;}
	.st6{fill:#4C4C4C;}
	.st7{clip-path:url(#SVGID_4_);}
	.st8{fill:#7C7C7C;stroke:#606060;stroke-miterlimit:10;}
	.st9{fill:#F2F2F2;stroke:#000000;stroke-width:0.5;stroke-miterlimit:10;}
	.st10{fill:#C1C1C1;stroke:#000000;stroke-width:0.5;stroke-miterlimit:10;}
	.st11{fill:#B5B5B5;stroke:#000000;stroke-width:0.5;stroke-miterlimit:10;}
	.st12{fill:#969696;stroke:#000000;stroke-width:0.5;stroke-miterlimit:10;}
	.st13{fill:#0077BF;}
	.st14{fill:#A5A5A5;}
	.st15{fill:#0077BF;stroke:#EAEAEA;stroke-miterlimit:10;}
	.st16{fill:#EAEAEA;stroke:#EB058C;stroke-miterlimit:10;}
</style>
<title>DT5</title>
<path class="st0" d="M857.2,549.6C771.6,698,645.3,710,500,713.8c-108,2.8-283.3-30.3-346.8-96.9c-95.3-99.9-68.8-211.4-7.1-229.3
	c46.5-13.5,66.5,0.8,132.1,4.2c201.9,10.5,167.4-231,430.8-230.7C855.8,161.2,946.6,394.6,857.2,549.6z"/>
<ellipse class="st1" cx="509" cy="690.2" rx="344.2" ry="93.7"/>
<path class="st2" d="M394.7,411.4c-21.6,12.8-71.4,43.2-98.4,59.7c-11.2,6.9-18.1,19.1-18.1,32.3v127.2c0,18.6,13.5,34.4,31.8,37.3
	l339,54.4c11.2,1.8,22.6-1.5,31.1-9l68.5-60.7c8.1-7.2,12.7-17.5,12.7-28.3v-161c0-20-15.5-36.5-35.5-37.7l-309.5-19.4
	C408.7,405.7,401.2,407.5,394.7,411.4z"/>
<g>
	<defs>
		<path id="SVGID_1_" d="M394.7,411.4c-21.6,12.8-71.4,43.2-98.4,59.7c-11.2,6.9-18.1,19.1-18.1,32.3v127.2
			c0,18.6,13.5,34.4,31.8,37.3l339,54.4c11.2,1.8,22.6-1.5,31.1-9l68.5-60.7c8.1-7.2,12.7-17.5,12.7-28.3v-161
			c0-20-15.5-36.5-35.5-37.7l-309.5-19.4C408.7,405.7,401.2,407.5,394.7,411.4z"/>
	</defs>
	<clipPath id="SVGID_2_">
		<use xlink:href="#SVGID_1_"  style="overflow:visible;"/>
	</clipPath>
	<g class="st3">
		<path class="st0" d="M278.2,509.7c0,0,10.5-14.3,48.5-11.9s283.6,25.4,283.6,25.4s38.9,2.5,37.4,38.5s0,160.6,0,160.6l19,12.3
			V547.2c0,0,3.5-34-27.5-38c-27.4-3.5-278.6-28-335.9-33.6c-10.4-1.1-20.5,3.7-26.2,12.5C273.2,494.2,271.8,501.8,278.2,509.7z"/>
	</g>
</g>
<path class="st4" d="M666.6,720.9v-181c0-9.9,3.9-19.4,10.8-26.4l74-75.7"/>
<path class="st5" d="M329.8,671.1V545.3c0-12.2,9.8-22,22-22c0.8,0,1.6,0,2.3,0.1l244,24.9c11.3,1.1,19.8,10.6,19.8,21.9v147.1
	L329.8,671.1z"/>
<path class="st4" d="M329.8,671.1V545.3c0-12.2,9.8-22,22-22c0.8,0,1.6,0,2.3,0.1l244,24.9c11.3,1.1,19.8,10.6,19.8,21.9v147.1"/>
<path class="st4" d="M738.6,428.6l-65,63.4c-4.4,4.3-10.4,6.4-16.4,5.8L346.8,468c-3.5-0.3-6-3.4-5.7-6.8c0.2-1.8,1.1-3.5,2.7-4.6
	l72.4-50.5"/>
<path class="st6" d="M441.1,417c-7.5,4.5-42.2,26.6-59.3,37.5c-1.8,1.2-2.3,3.5-1.2,5.3c0.6,1,1.7,1.7,2.9,1.8l235.3,21
	c3.3,0.3,6.5-0.8,9-3l44.4-39.2c2.1-1.8,2.4-4.9,0.6-7c-0.9-1.1-2.2-1.7-3.6-1.8l-225.3-15.3C443,416.2,442,416.5,441.1,417z"/>
<g>
	<defs>
		<path id="SVGID_3_" d="M441.1,417c-7.5,4.5-42.2,26.6-59.3,37.5c-1.8,1.2-2.3,3.5-1.2,5.3c0.6,1,1.7,1.7,2.9,1.8l235.3,21
			c3.3,0.3,6.5-0.8,9-3l44.4-39.2c2.1-1.8,2.4-4.9,0.6-7c-0.9-1.1-2.2-1.7-3.6-1.8l-225.3-15.3C443,416.2,442,416.5,441.1,417z"/>
	</defs>
	<clipPath id="SVGID_4_">
		<use xlink:href="#SVGID_3_"  style="overflow:visible;"/>
	</clipPath>
	<g class="st7">
		<polygon class="st8" points="417.7,431.7 659.3,452 626,488.9 360.3,463.3 		"/>
	</g>
</g>
<path class="st9" d="M399.4,463.1c0,0,35-97.5,90.5-116.2c57.8,12.7,180.1,8.7,200.8,14c0,0-100.4,93.1-71.7,121.8L399.4,463.1z"/>
<path class="st4" d="M411.4,435.7c-10.7,6.8-21.9,14-29.6,18.8c-1.8,1.2-2.3,3.5-1.2,5.3c0.6,1,1.7,1.7,2.9,1.8l235.4,21
	c3.3,0.3,6.5-0.8,9-3l44.4-39.2c2.1-1.8,2.4-4.9,0.6-7c-0.9-1.1-2.2-1.7-3.6-1.8l-38.7-2.6"/>
<line class="st4" x1="727.5" y1="439.3" x2="674.1" y2="436.3"/>
<line class="st4" x1="419.6" y1="419.4" x2="399.4" y2="417.9"/>
<polyline class="st4" points="414.4,474.5 404.3,485.5 547.5,499.6 553.4,487.8 "/>
<line class="st4" x1="329.8" y1="579.3" x2="617.9" y2="616.9"/>
<polyline class="st4" points="545.5,607.5 545.5,631.2 412.2,612.2 412.2,590.1 "/>
<polygon class="st10" points="329.8,600.1 617.9,641.3 617.9,656 329.8,612.2 "/>
<polygon class="st6" points="412.2,624.8 255.2,700 508.9,749.9 617.9,691.2 617.9,656 "/>
<polygon class="st2" points="617.9,691.2 617.9,705.7 508.7,766.3 255.2,715.2 255.2,700 508.9,749.9 "/>
<line class="st4" x1="508.9" y1="749.9" x2="508.7" y2="766.3"/>
<polygon class="st9" points="392.3,632.8 282.4,679.6 350.7,693.5 449.2,642.3 "/>
<polygon class="st11" points="350.7,693.5 350.7,710.2 282.4,696.8 282.4,679.6 "/>
<polygon class="st12" points="449.2,642.3 449.2,654.6 350.7,710.2 350.7,693.5 "/>
<path class="st13" d="M395.3,641.5l26.1,4.1L348,681.2l-32.4-6.1L395.3,641.5 M394.6,636.4l-96.2,40.6l50.3,9.5l89.1-43.2
	L394.6,636.4L394.6,636.4z"/>
<ellipse class="st14" cx="399.2" cy="647.9" rx="6.3" ry="2.9"/>
<ellipse class="st15" cx="374" cy="659.5" rx="18.3" ry="8.5"/>
<ellipse class="st16" cx="374" cy="659.5" rx="12.7" ry="5.9"/>
<line class="st4" x1="445.6" y1="647.9" x2="355.7" y2="695.6"/>
<line class="st4" x1="445.6" y1="650.2" x2="355.7" y2="699.7"/>
<line class="st4" x1="445.6" y1="653.7" x2="355.7" y2="703.1"/>
<line class="st4" x1="286.5" y1="685.1" x2="344.6" y2="696.6"/>
<line class="st4" x1="286.5" y1="689.2" x2="344.6" y2="700.6"/>
<line class="st4" x1="286.5" y1="692.9" x2="344.6" y2="704.3"/>
<polyline class="st4" points="406.8,645 409,646.9 397.5,644.2 "/>
<line class="st4" x1="396.4" y1="644.8" x2="399.6" y2="643.2"/>
<ellipse transform="matrix(0.2224 -0.975 0.975 0.2224 -320.3241 893.2802)" class="st4" cx="399.8" cy="647.5" rx="1.3" ry="6.5"/>
<ellipse transform="matrix(0.2224 -0.975 0.975 0.2224 -325.8685 890.2215)" class="st4" cx="395.1" cy="649.4" rx="1.3" ry="6.5"/>
<ellipse class="st14" cx="347.3" cy="672.5" rx="6.3" ry="2.9"/>
<polyline class="st4" points="354.9,669.5 357.1,671.4 345.6,668.7 "/>
<line class="st4" x1="344.5" y1="669.3" x2="347.7" y2="667.7"/>
<ellipse transform="matrix(0.2224 -0.975 0.975 0.2224 -384.628 861.7517)" class="st4" cx="347.9" cy="672" rx="1.3" ry="6.5"/>
<ellipse transform="matrix(0.2224 -0.975 0.975 0.2224 -390.1646 858.7028)" class="st4" cx="343.2" cy="673.9" rx="1.3" ry="6.5"/>
<polygon class="st9" points="473.2,648.1 363.3,694.9 431.6,708.7 530,657.6 "/>
<polygon class="st11" points="431.6,708.7 431.6,725.5 363.3,712.1 363.3,694.9 "/>
<polygon class="st12" points="530,657.6 530,669.9 431.6,725.5 431.6,708.7 "/>
<path class="st13" d="M476.1,656.8l26.1,4.2l-73.3,35.5l-32.4-6.1L476.1,656.8 M475.5,651.7l-96.2,40.6l50.3,9.5l89.1-43.2
	L475.5,651.7z"/>
<ellipse class="st14" cx="480" cy="663.2" rx="6.3" ry="2.9"/>
<ellipse class="st15" cx="454.9" cy="674.8" rx="18.3" ry="8.5"/>
<ellipse class="st16" cx="454.9" cy="674.8" rx="12.7" ry="5.9"/>
<line class="st4" x1="526.4" y1="663.2" x2="436.5" y2="710.9"/>
<line class="st4" x1="526.4" y1="665.5" x2="436.5" y2="715"/>
<line class="st4" x1="526.4" y1="669" x2="436.5" y2="718.4"/>
<line class="st4" x1="367.3" y1="700.4" x2="425.5" y2="711.8"/>
<line class="st4" x1="367.3" y1="704.4" x2="425.5" y2="715.9"/>
<line class="st4" x1="367.3" y1="708.2" x2="425.5" y2="719.6"/>
<polyline class="st4" points="487.6,660.3 489.9,662.2 478.3,659.5 "/>
<line class="st4" x1="477.2" y1="660" x2="480.5" y2="658.5"/>
<ellipse transform="matrix(0.2224 -0.975 0.975 0.2224 -272.3498 984.0014)" class="st4" cx="480.7" cy="662.7" rx="1.3" ry="6.5"/>
<ellipse transform="matrix(0.2224 -0.975 0.975 0.2224 -277.9055 980.9482)" class="st4" cx="476" cy="664.7" rx="1.3" ry="6.5"/>
<ellipse class="st14" cx="428.1" cy="687.8" rx="6.3" ry="2.9"/>
<polyline class="st4" points="435.7,684.8 438,686.7 426.4,684 "/>
<line class="st4" x1="425.3" y1="684.6" x2="428.6" y2="683"/>
<ellipse transform="matrix(0.2224 -0.975 0.975 0.2224 -336.6649 952.4784)" class="st4" cx="428.8" cy="687.3" rx="1.3" ry="6.5"/>
<ellipse transform="matrix(0.2224 -0.975 0.975 0.2224 -342.2016 949.4295)" class="st4" cx="424.1" cy="689.2" rx="1.3" ry="6.5"/>
<polygon class="st9" points="553.3,663.1 443.4,709.9 511.8,723.8 610.2,672.6 "/>
<polygon class="st11" points="511.8,723.8 511.8,740.5 443.4,727.1 443.4,709.9 "/>
<polygon class="st12" points="610.2,672.6 610.2,684.9 511.8,740.5 511.8,723.8 "/>
<path class="st13" d="M556.3,671.8l26.1,4.2L509,711.5l-32.4-6.1L556.3,671.8 M555.6,666.7l-96.2,40.6l50.3,9.5l89.1-43.2
	L555.6,666.7z"/>
<ellipse class="st14" cx="560.2" cy="678.2" rx="6.3" ry="2.9"/>
<ellipse class="st15" cx="535" cy="689.8" rx="18.3" ry="8.5"/>
<ellipse class="st16" cx="535" cy="689.8" rx="12.7" ry="5.9"/>
<line class="st4" x1="606.6" y1="678.2" x2="516.7" y2="725.9"/>
<line class="st4" x1="606.6" y1="680.5" x2="516.7" y2="730"/>
<line class="st4" x1="606.6" y1="684" x2="516.7" y2="733.4"/>
<line class="st4" x1="447.5" y1="715.4" x2="505.7" y2="726.9"/>
<line class="st4" x1="447.5" y1="719.5" x2="505.7" y2="730.9"/>
<line class="st4" x1="447.5" y1="723.2" x2="505.7" y2="734.6"/>
<polyline class="st4" points="567.8,675.3 570,677.2 558.5,674.5 "/>
<line class="st4" x1="557.4" y1="675.1" x2="560.6" y2="673.5"/>
<ellipse transform="matrix(0.2224 -0.975 0.975 0.2224 -224.652 1073.8325)" class="st4" cx="560.9" cy="677.8" rx="1.3" ry="6.5"/>
<ellipse transform="matrix(0.2224 -0.975 0.975 0.2224 -230.1887 1070.7837)" class="st4" cx="556.2" cy="679.7" rx="1.3" ry="6.5"/>
<ellipse class="st14" cx="508.3" cy="702.8" rx="6.3" ry="2.9"/>
<polyline class="st4" points="515.9,699.8 518.1,701.7 506.6,699 "/>
<line class="st4" x1="505.5" y1="699.6" x2="508.7" y2="698"/>
<ellipse transform="matrix(0.2224 -0.975 0.975 0.2224 -288.9426 1042.3251)" class="st4" cx="509" cy="702.3" rx="1.3" ry="6.5"/>
<ellipse transform="matrix(0.2224 -0.975 0.975 0.2224 -294.4793 1039.2762)" class="st4" cx="504.3" cy="704.2" rx="1.3" ry="6.5"/>
<polygon class="st9" points="373.3,748.7 483.2,795.5 414.9,809.4 316.4,758.3 "/>
<path class="st13" d="M370.3,757.5l79.6,33.5l-32.4,6.1l-73.3-35.5L370.3,757.5 M370.9,752.3l-43.2,6.9l89.1,43.2l50.3-9.5
	L370.9,752.3L370.9,752.3z"/>
<ellipse class="st14" cx="366.4" cy="763.9" rx="6.3" ry="2.9"/>
<ellipse class="st15" cx="391.6" cy="775.5" rx="18.3" ry="8.5"/>
<ellipse class="st16" cx="391.6" cy="775.5" rx="12.7" ry="5.9"/>
<ellipse transform="matrix(0.975 -0.2224 0.2224 0.975 -160.605 100.4667)" class="st4" cx="365.8" cy="763.3" rx="6.5" ry="1.3"/>
<ellipse transform="matrix(0.975 -0.2224 0.2224 0.975 -160.9214 101.5578)" class="st4" cx="370.5" cy="765.3" rx="6.5" ry="1.3"/>
<ellipse class="st14" cx="418.3" cy="788.4" rx="6.3" ry="2.9"/>
<polyline class="st4" points="408.5,787.3 420,784.7 415.9,784.6 "/>
<line class="st4" x1="410.4" y1="788.4" x2="407.1" y2="786.6"/>
<polyline class="st4" points="356.1,762.3 367.7,759.7 363.6,759.6 "/>
<line class="st4" x1="358" y1="763.4" x2="354.8" y2="761.5"/>
<ellipse transform="matrix(0.975 -0.2224 0.2224 0.975 -164.7657 112.6241)" class="st4" cx="417.7" cy="787.9" rx="6.5" ry="1.3"/>
<ellipse transform="matrix(0.975 -0.2224 0.2224 0.975 -165.0821 113.7152)" class="st4" cx="422.4" cy="789.8" rx="6.5" ry="1.3"/>
<polygon class="st9" points="421.9,750.4 531.8,797.3 463.4,811.1 365,760 "/>
<path class="st13" d="M418.9,759.2l79.6,33.6l-32.4,6.1l-73.3-35.5L418.9,759.2 M419.5,754l-43.2,6.9l89.1,43.2l50.3-9.5L419.5,754
	L419.5,754z"/>
<ellipse class="st14" cx="415" cy="765.6" rx="6.3" ry="2.9"/>
<ellipse class="st15" cx="440.2" cy="777.2" rx="18.3" ry="8.5"/>
<ellipse class="st16" cx="440.2" cy="777.2" rx="12.7" ry="5.9"/>
<ellipse transform="matrix(0.975 -0.2224 0.2224 0.975 -159.773 111.3159)" class="st4" cx="414.4" cy="765.1" rx="6.5" ry="1.3"/>
<ellipse transform="matrix(0.975 -0.2224 0.2224 0.975 -160.0894 112.407)" class="st4" cx="419.1" cy="767" rx="6.5" ry="1.3"/>
<ellipse class="st14" cx="466.9" cy="790.2" rx="6.3" ry="2.9"/>
<polyline class="st4" points="457.1,789.1 468.6,786.4 464.5,786.3 "/>
<line class="st4" x1="459" y1="790.2" x2="455.8" y2="788.3"/>
<polyline class="st4" points="404.7,764.1 416.3,761.4 412.2,761.3 "/>
<line class="st4" x1="406.6" y1="765.1" x2="403.4" y2="763.3"/>
<ellipse transform="matrix(0.975 -0.2224 0.2224 0.975 -163.9337 123.4734)" class="st4" cx="466.3" cy="789.6" rx="6.5" ry="1.3"/>
<ellipse transform="matrix(0.975 -0.2224 0.2224 0.975 -164.2493 124.5666)" class="st4" cx="471" cy="791.6" rx="6.5" ry="1.3"/>
<polygon class="st9" points="466.5,739 576.3,785.9 508,799.7 409.6,748.6 "/>
<polygon class="st11" points="508,799.7 508,816.5 576.3,803.1 576.3,785.9 "/>
<polygon class="st12" points="409.6,748.6 409.6,760.9 508,816.5 508,799.7 "/>
<path class="st13" d="M463.5,747.8l79.6,33.6l-32.4,6.1l-73.3-35.5L463.5,747.8 M464.1,742.6l-43.2,6.9l89.1,43.2l50.3-9.5
	L464.1,742.6z"/>
<ellipse class="st14" cx="459.6" cy="754.2" rx="6.3" ry="2.9"/>
<ellipse class="st15" cx="484.8" cy="765.8" rx="18.3" ry="8.5"/>
<ellipse class="st16" cx="484.8" cy="765.8" rx="12.7" ry="5.9"/>
<line class="st4" x1="413.2" y1="754.2" x2="503.1" y2="801.9"/>
<line class="st4" x1="413.2" y1="756.5" x2="503.1" y2="805.9"/>
<line class="st4" x1="413.2" y1="759.9" x2="503.1" y2="809.4"/>
<line class="st4" x1="572.3" y1="791.4" x2="514.1" y2="802.8"/>
<line class="st4" x1="572.3" y1="795.4" x2="514.1" y2="806.9"/>
<line class="st4" x1="572.3" y1="799.1" x2="514.1" y2="810.6"/>
<ellipse transform="matrix(0.975 -0.2224 0.2224 0.975 -156.1207 120.9467)" class="st4" cx="459" cy="753.7" rx="6.5" ry="1.3"/>
<ellipse transform="matrix(0.975 -0.2224 0.2224 0.975 -156.4392 122.0386)" class="st4" cx="463.6" cy="755.6" rx="6.5" ry="1.3"/>
<ellipse class="st14" cx="511.5" cy="778.8" rx="6.3" ry="2.9"/>
<polyline class="st4" points="501.6,777.7 513.2,775 509.1,774.9 "/>
<line class="st4" x1="503.5" y1="778.8" x2="500.3" y2="776.9"/>
<polyline class="st4" points="449.3,752.7 460.9,750 456.8,749.9 "/>
<line class="st4" x1="451.2" y1="753.8" x2="448" y2="751.9"/>
<ellipse transform="matrix(0.975 -0.2224 0.2224 0.975 -160.2814 133.1042)" class="st4" cx="510.9" cy="778.2" rx="6.5" ry="1.3"/>
<ellipse transform="matrix(0.975 -0.2224 0.2224 0.975 -160.5976 134.1951)" class="st4" cx="515.5" cy="780.2" rx="6.5" ry="1.3"/>
</svg>
