<?xml version="1.0" encoding="utf-8"?>
<!-- Generator: Adobe Illustrator 22.0.1, SVG Export Plug-In . SVG Version: 6.00 Build 0)  -->
<svg version="1.1" id="Layer_1" xmlns="http://www.w3.org/2000/svg" xmlns:xlink="http://www.w3.org/1999/xlink" x="0px" y="0px"
	 viewBox="0 0 802.1 655.8" style="enable-background:new 0 0 802.1 655.8;" xml:space="preserve">
<style type="text/css">
	.st0{fill:#FFFFFF;}
	.st1{fill:#BCBCBC;}
	.st2{fill:#D8D8D8;stroke:#000000;stroke-width:0.5;stroke-miterlimit:10;}
	.st3{clip-path:url(#SVGID_2_);}
	.st4{fill:none;stroke:#000000;stroke-width:0.5;stroke-miterlimit:10;}
	.st5{fill:#777777;}
	.st6{fill:#4C4C4C;}
	.st7{clip-path:url(#SVGID_4_);}
	.st8{fill:#7C7C7C;stroke:#606060;stroke-miterlimit:10;}
	.st9{fill:#F2F2F2;stroke:#000000;stroke-width:0.5;stroke-miterlimit:10;}
	.st10{fill:#C1C1C1;stroke:#000000;stroke-width:0.5;stroke-miterlimit:10;}
	.st11{fill:#B5B5B5;stroke:#000000;stroke-width:0.5;stroke-miterlimit:10;}
	.st12{fill:#969696;stroke:#000000;stroke-width:0.5;stroke-miterlimit:10;}
	.st13{fill:#0077BF;}
	.st14{fill:#A5A5A5;}
	.st15{fill:#0077BF;stroke:#EAEAEA;stroke-miterlimit:10;}
	.st16{fill:#EAEAEA;stroke:#EB058C;stroke-miterlimit:10;}
</style>
<title>DT5</title>
<g>
	<path class="st0" d="M766.6,388.5C681,536.9,554.7,548.9,409.4,552.7c-108,2.8-283.3-30.3-346.8-96.9
		c-95.3-99.9-68.8-211.4-7.1-229.3c46.5-13.5,66.5,0.8,132.1,4.2C389.5,241.2,355-0.3,618.4,0C765.2,0.1,856,233.5,766.6,388.5z"/>
	<ellipse class="st1" cx="418.4" cy="529.1" rx="344.2" ry="93.7"/>
	<path class="st2" d="M304.1,250.3c-21.6,12.8-71.4,43.2-98.4,59.7c-11.2,6.9-18.1,19.1-18.1,32.3v127.2c0,18.6,13.5,34.4,31.8,37.3
		l339,54.4c11.2,1.8,22.6-1.5,31.1-9l68.5-60.7c8.1-7.2,12.7-17.5,12.7-28.3v-161c0-20-15.5-36.5-35.5-37.7l-309.5-19.4
		C318.1,244.6,310.6,246.4,304.1,250.3z"/>
	<g>
		<g>
			<g>
				<defs>
					<path id="SVGID_1_" d="M304.1,250.3c-21.6,12.8-71.4,43.2-98.4,59.7c-11.2,6.9-18.1,19.1-18.1,32.3v127.2
						c0,18.6,13.5,34.4,31.8,37.3l339,54.4c11.2,1.8,22.6-1.5,31.1-9l68.5-60.7c8.1-7.2,12.7-17.5,12.7-28.3v-161
						c0-20-15.5-36.5-35.5-37.7l-309.5-19.4C318.1,244.6,310.6,246.4,304.1,250.3z"/>
				</defs>
				<clipPath id="SVGID_2_">
					<use xlink:href="#SVGID_1_"  style="overflow:visible;"/>
				</clipPath>
				<g class="st3">
					<path class="st0" d="M187.6,348.6c0,0,10.5-14.3,48.5-11.9s283.6,25.4,283.6,25.4s38.9,2.5,37.4,38.5s0,160.6,0,160.6l19,12.3
						V386.1c0,0,3.5-34-27.5-38c-27.4-3.5-278.6-28-335.9-33.6c-10.4-1.1-20.5,3.7-26.2,12.5C182.6,333.1,181.2,340.7,187.6,348.6z"
						/>
				</g>
			</g>
		</g>
	</g>
	<path class="st4" d="M576,559.8v-181c0-9.9,3.9-19.4,10.8-26.4l74-75.7"/>
	<path class="st5" d="M239.2,510V384.2c0-12.2,9.8-22,22-22c0.8,0,1.6,0,2.3,0.1l244,24.9c11.3,1.1,19.8,10.6,19.8,21.9v147.1
		L239.2,510z"/>
	<path class="st4" d="M239.2,510V384.2c0-12.2,9.8-22,22-22c0.8,0,1.6,0,2.3,0.1l244,24.9c11.3,1.1,19.8,10.6,19.8,21.9v147.1"/>
	<path class="st4" d="M648,267.5l-65,63.4c-4.4,4.3-10.4,6.4-16.4,5.8l-310.4-29.8c-3.5-0.3-6-3.4-5.7-6.8c0.2-1.8,1.1-3.5,2.7-4.6
		l72.4-50.5"/>
	<path class="st6" d="M350.5,255.9c-7.5,4.5-42.2,26.6-59.3,37.5c-1.8,1.2-2.3,3.5-1.2,5.3c0.6,1,1.7,1.7,2.9,1.8l235.3,21
		c3.3,0.3,6.5-0.8,9-3l44.4-39.2c2.1-1.8,2.4-4.9,0.6-7c-0.9-1.1-2.2-1.7-3.6-1.8l-225.3-15.3C352.4,255.1,351.4,255.4,350.5,255.9z
		"/>
	<g>
		<g>
			<g>
				<defs>
					<path id="SVGID_3_" d="M350.5,255.9c-7.5,4.5-42.2,26.6-59.3,37.5c-1.8,1.2-2.3,3.5-1.2,5.3c0.6,1,1.7,1.7,2.9,1.8l235.3,21
						c3.3,0.3,6.5-0.8,9-3l44.4-39.2c2.1-1.8,2.4-4.9,0.6-7c-0.9-1.1-2.2-1.7-3.6-1.8l-225.3-15.3
						C352.4,255.1,351.4,255.4,350.5,255.9z"/>
				</defs>
				<clipPath id="SVGID_4_">
					<use xlink:href="#SVGID_3_"  style="overflow:visible;"/>
				</clipPath>
				<g class="st7">
					<polygon class="st8" points="327.1,270.6 568.7,290.9 535.4,327.8 269.7,302.2 					"/>
				</g>
			</g>
		</g>
	</g>
	<path class="st9" d="M308.8,302c0,0,35-97.5,90.5-116.2c57.8,12.7,180.1,8.7,200.8,14c0,0-100.4,93.1-71.7,121.8L308.8,302z"/>
	<path class="st4" d="M320.8,274.6c-10.7,6.8-21.9,14-29.6,18.8c-1.8,1.2-2.3,3.5-1.2,5.3c0.6,1,1.7,1.7,2.9,1.8l235.4,21
		c3.3,0.3,6.5-0.8,9-3l44.4-39.2c2.1-1.8,2.4-4.9,0.6-7c-0.9-1.1-2.2-1.7-3.6-1.8l-38.7-2.6"/>
	<line class="st4" x1="636.9" y1="278.2" x2="583.5" y2="275.2"/>
	<line class="st4" x1="329" y1="258.3" x2="308.8" y2="256.8"/>
	<polyline class="st4" points="323.8,313.4 313.7,324.4 456.9,338.5 462.8,326.7 	"/>
	<line class="st4" x1="239.2" y1="418.2" x2="527.3" y2="455.8"/>
	<polyline class="st4" points="454.9,446.4 454.9,470.1 321.6,451.1 321.6,429 	"/>
	<polygon class="st10" points="239.2,439 527.3,480.2 527.3,494.9 239.2,451.1 	"/>
	<polygon class="st6" points="321.6,463.7 164.6,538.9 418.3,588.8 527.3,530.1 527.3,494.9 	"/>
	<polygon class="st2" points="527.3,530.1 527.3,544.6 418.1,605.2 164.6,554.1 164.6,538.9 418.3,588.8 	"/>
	<line class="st4" x1="418.3" y1="588.8" x2="418.1" y2="605.2"/>
	<polygon class="st9" points="301.7,471.7 191.8,518.5 260.1,532.4 358.6,481.2 	"/>
	<polygon class="st11" points="260.1,532.4 260.1,549.1 191.8,535.7 191.8,518.5 	"/>
	<polygon class="st12" points="358.6,481.2 358.6,493.5 260.1,549.1 260.1,532.4 	"/>
	<path class="st13" d="M304.7,480.4l26.1,4.1l-73.4,35.6L225,514L304.7,480.4 M304,475.3l-96.2,40.6l50.3,9.5l89.1-43.2L304,475.3
		L304,475.3z"/>
	<ellipse class="st14" cx="308.6" cy="486.8" rx="6.3" ry="2.9"/>
	<ellipse class="st15" cx="283.4" cy="498.4" rx="18.3" ry="8.5"/>
	<ellipse class="st16" cx="283.4" cy="498.4" rx="12.7" ry="5.9"/>
	<line class="st4" x1="355" y1="486.8" x2="265.1" y2="534.5"/>
	<line class="st4" x1="355" y1="489.1" x2="265.1" y2="538.6"/>
	<line class="st4" x1="355" y1="492.6" x2="265.1" y2="542"/>
	<line class="st4" x1="195.9" y1="524" x2="254" y2="535.5"/>
	<line class="st4" x1="195.9" y1="528.1" x2="254" y2="539.5"/>
	<line class="st4" x1="195.9" y1="531.8" x2="254" y2="543.2"/>
	<polyline class="st4" points="316.2,483.9 318.4,485.8 306.9,483.1 	"/>
	<line class="st4" x1="305.8" y1="483.7" x2="309" y2="482.1"/>
	
		<ellipse transform="matrix(0.2224 -0.975 0.975 0.2224 -233.6022 679.8398)" class="st4" cx="309.4" cy="486.4" rx="1.3" ry="6.5"/>
	
		<ellipse transform="matrix(0.2224 -0.975 0.975 0.2224 -239.1669 676.6627)" class="st4" cx="304.6" cy="488.3" rx="1.3" ry="6.5"/>
	<ellipse class="st14" cx="256.7" cy="511.4" rx="6.3" ry="2.9"/>
	<polyline class="st4" points="264.3,508.4 266.5,510.3 255,507.6 	"/>
	<line class="st4" x1="253.9" y1="508.2" x2="257.1" y2="506.6"/>
	
		<ellipse transform="matrix(0.2224 -0.975 0.975 0.2224 -297.9751 648.2503)" class="st4" cx="257.4" cy="510.9" rx="1.3" ry="6.5"/>
	
		<ellipse transform="matrix(0.2224 -0.975 0.975 0.2224 -303.5033 645.1936)" class="st4" cx="252.7" cy="512.9" rx="1.3" ry="6.5"/>
	<polygon class="st9" points="382.6,487 272.7,533.8 341,547.6 439.4,496.5 	"/>
	<polygon class="st11" points="341,547.6 341,564.4 272.7,551 272.7,533.8 	"/>
	<polygon class="st12" points="439.4,496.5 439.4,508.8 341,564.4 341,547.6 	"/>
	<path class="st13" d="M385.5,495.7l26.1,4.2l-73.3,35.5l-32.4-6.1L385.5,495.7 M384.9,490.6l-96.2,40.6l50.3,9.5l89.1-43.2
		L384.9,490.6z"/>
	<ellipse class="st14" cx="389.4" cy="502.1" rx="6.3" ry="2.9"/>
	<ellipse class="st15" cx="364.3" cy="513.7" rx="18.3" ry="8.5"/>
	<ellipse class="st16" cx="364.3" cy="513.7" rx="12.7" ry="5.9"/>
	<line class="st4" x1="435.8" y1="502.1" x2="345.9" y2="549.8"/>
	<line class="st4" x1="435.8" y1="504.4" x2="345.9" y2="553.9"/>
	<line class="st4" x1="435.8" y1="507.9" x2="345.9" y2="557.3"/>
	<line class="st4" x1="276.7" y1="539.3" x2="334.9" y2="550.7"/>
	<line class="st4" x1="276.7" y1="543.3" x2="334.9" y2="554.8"/>
	<line class="st4" x1="276.7" y1="547.1" x2="334.9" y2="558.5"/>
	<polyline class="st4" points="397,499.2 399.3,501.1 387.7,498.4 	"/>
	<line class="st4" x1="386.6" y1="498.9" x2="389.9" y2="497.4"/>
	<ellipse transform="matrix(0.2224 -0.975 0.975 0.2224 -185.6183 770.406)" class="st4" cx="390.2" cy="501.6" rx="1.3" ry="6.5"/>
	
		<ellipse transform="matrix(0.2224 -0.975 0.975 0.2224 -191.2008 767.4625)" class="st4" cx="385.5" cy="503.6" rx="1.3" ry="6.5"/>
	<ellipse class="st14" cx="337.5" cy="526.7" rx="6.3" ry="2.9"/>
	<polyline class="st4" points="345.1,523.7 347.4,525.6 335.8,522.9 	"/>
	<line class="st4" x1="334.7" y1="523.5" x2="338" y2="521.9"/>
	
		<ellipse transform="matrix(0.2224 -0.975 0.975 0.2224 -249.8966 738.9958)" class="st4" cx="338.3" cy="526.2" rx="1.3" ry="6.5"/>
	<ellipse transform="matrix(0.2224 -0.975 0.975 0.2224 -255.479 735.8271)" class="st4" cx="333.5" cy="528.1" rx="1.3" ry="6.5"/>
	<polygon class="st9" points="462.7,502 352.8,548.8 421.2,562.7 519.6,511.5 	"/>
	<polygon class="st11" points="421.2,562.7 421.2,579.4 352.8,566 352.8,548.8 	"/>
	<polygon class="st12" points="519.6,511.5 519.6,523.8 421.2,579.4 421.2,562.7 	"/>
	<path class="st13" d="M465.7,510.7l26.1,4.2l-73.4,35.5l-32.4-6.1L465.7,510.7 M465,505.6l-96.2,40.6l50.3,9.5l89.1-43.2L465,505.6
		z"/>
	<ellipse class="st14" cx="469.6" cy="517.1" rx="6.3" ry="2.9"/>
	<ellipse class="st15" cx="444.4" cy="528.7" rx="18.3" ry="8.5"/>
	<ellipse class="st16" cx="444.4" cy="528.7" rx="12.7" ry="5.9"/>
	<line class="st4" x1="516" y1="517.1" x2="426.1" y2="564.8"/>
	<line class="st4" x1="516" y1="519.4" x2="426.1" y2="568.9"/>
	<line class="st4" x1="516" y1="522.9" x2="426.1" y2="572.3"/>
	<line class="st4" x1="356.9" y1="554.3" x2="415.1" y2="565.8"/>
	<line class="st4" x1="356.9" y1="558.4" x2="415.1" y2="569.8"/>
	<line class="st4" x1="356.9" y1="562.1" x2="415.1" y2="573.5"/>
	<polyline class="st4" points="477.2,514.2 479.4,516.1 467.9,513.4 	"/>
	<line class="st4" x1="466.8" y1="514" x2="470" y2="512.4"/>
	
		<ellipse transform="matrix(0.2224 -0.975 0.975 0.2224 -137.8852 860.3487)" class="st4" cx="470.4" cy="516.6" rx="1.3" ry="6.5"/>
	
		<ellipse transform="matrix(0.2224 -0.975 0.975 0.2224 -143.4135 857.2922)" class="st4" cx="465.7" cy="518.6" rx="1.3" ry="6.5"/>
	<ellipse class="st14" cx="417.7" cy="541.7" rx="6.3" ry="2.9"/>
	<polyline class="st4" points="425.3,538.7 427.5,540.6 416,537.9 	"/>
	<line class="st4" x1="414.9" y1="538.5" x2="418.1" y2="536.9"/>
	
		<ellipse transform="matrix(0.2224 -0.975 0.975 0.2224 -202.1822 828.7178)" class="st4" cx="418.4" cy="541.1" rx="1.3" ry="6.5"/>
	<ellipse transform="matrix(0.2224 -0.975 0.975 0.2224 -207.7106 825.6613)" class="st4" cx="413.7" cy="543" rx="1.3" ry="6.5"/>
	<polygon class="st9" points="282.7,587.6 392.6,634.4 324.3,648.3 225.8,597.2 	"/>
	<path class="st13" d="M279.7,596.4l79.6,33.5l-32.4,6.1l-73.3-35.5L279.7,596.4 M280.3,591.2l-43.2,6.9l89.1,43.2l50.3-9.5
		L280.3,591.2L280.3,591.2z"/>
	<ellipse class="st14" cx="275.8" cy="602.8" rx="6.3" ry="2.9"/>
	<ellipse class="st15" cx="301" cy="614.4" rx="18.3" ry="8.5"/>
	<ellipse class="st16" cx="301" cy="614.4" rx="12.7" ry="5.9"/>
	<ellipse transform="matrix(0.975 -0.2224 0.2224 0.975 -127.0354 76.2959)" class="st4" cx="275.3" cy="602.2" rx="6.5" ry="1.3"/>
	<ellipse transform="matrix(0.975 -0.2224 0.2224 0.975 -127.3629 77.3916)" class="st4" cx="280" cy="604.2" rx="6.5" ry="1.3"/>
	<ellipse class="st14" cx="327.7" cy="627.3" rx="6.3" ry="2.9"/>
	<polyline class="st4" points="317.9,626.2 329.4,623.6 325.3,623.5 	"/>
	<line class="st4" x1="319.8" y1="627.3" x2="316.5" y2="625.5"/>
	<polyline class="st4" points="265.5,601.2 277.1,598.6 273,598.5 	"/>
	<line class="st4" x1="267.4" y1="602.3" x2="264.2" y2="600.4"/>
	<ellipse transform="matrix(0.975 -0.2224 0.2224 0.975 -131.2072 88.4547)" class="st4" cx="327.2" cy="626.8" rx="6.5" ry="1.3"/>
	<ellipse transform="matrix(0.975 -0.2224 0.2224 0.975 -131.5114 89.5475)" class="st4" cx="331.9" cy="628.7" rx="6.5" ry="1.3"/>
	<polygon class="st9" points="331.3,589.3 441.2,636.2 372.8,650 274.4,598.9 	"/>
	<path class="st13" d="M328.3,598.1l79.6,33.6l-32.4,6.1l-73.3-35.5L328.3,598.1 M328.9,592.9l-43.2,6.9l89.1,43.2l50.3-9.5
		L328.9,592.9L328.9,592.9z"/>
	<ellipse class="st14" cx="324.4" cy="604.5" rx="6.3" ry="2.9"/>
	<ellipse class="st15" cx="349.6" cy="616.1" rx="18.3" ry="8.5"/>
	<ellipse class="st16" cx="349.6" cy="616.1" rx="12.7" ry="5.9"/>
	<ellipse transform="matrix(0.975 -0.2224 0.2224 0.975 -126.2193 87.15)" class="st4" cx="323.9" cy="604" rx="6.5" ry="1.3"/>
	<ellipse transform="matrix(0.975 -0.2224 0.2224 0.975 -126.5236 88.2428)" class="st4" cx="328.6" cy="605.9" rx="6.5" ry="1.3"/>
	<ellipse class="st14" cx="376.3" cy="629.1" rx="6.3" ry="2.9"/>
	<polyline class="st4" points="366.5,628 378,625.3 373.9,625.2 	"/>
	<line class="st4" x1="368.4" y1="629.1" x2="365.2" y2="627.2"/>
	<polyline class="st4" points="314.1,603 325.7,600.3 321.6,600.2 	"/>
	<line class="st4" x1="316" y1="604" x2="312.8" y2="602.2"/>
	<ellipse transform="matrix(0.975 -0.2224 0.2224 0.975 -130.3678 99.3059)" class="st4" cx="375.8" cy="628.5" rx="6.5" ry="1.3"/>
	
		<ellipse transform="matrix(0.975 -0.2224 0.2224 0.975 -130.6954 100.4015)" class="st4" cx="380.5" cy="630.5" rx="6.5" ry="1.3"/>
	<polygon class="st9" points="375.9,577.9 485.7,624.8 417.4,638.6 319,587.5 	"/>
	<polygon class="st11" points="417.4,638.6 417.4,655.4 485.7,642 485.7,624.8 	"/>
	<polygon class="st12" points="319,587.5 319,599.8 417.4,655.4 417.4,638.6 	"/>
	<path class="st13" d="M372.9,586.7l79.6,33.6l-32.4,6.1l-73.3-35.5L372.9,586.7 M373.5,581.5l-43.2,6.9l89.1,43.2l50.3-9.5
		L373.5,581.5z"/>
	<ellipse class="st14" cx="369" cy="593.1" rx="6.3" ry="2.9"/>
	<ellipse class="st15" cx="394.2" cy="604.7" rx="18.3" ry="8.5"/>
	<ellipse class="st16" cx="394.2" cy="604.7" rx="12.7" ry="5.9"/>
	<line class="st4" x1="322.6" y1="593.1" x2="412.5" y2="640.8"/>
	<line class="st4" x1="322.6" y1="595.4" x2="412.5" y2="644.8"/>
	<line class="st4" x1="322.6" y1="598.8" x2="412.5" y2="648.3"/>
	<line class="st4" x1="481.7" y1="630.3" x2="423.5" y2="641.7"/>
	<line class="st4" x1="481.7" y1="634.3" x2="423.5" y2="645.8"/>
	<line class="st4" x1="481.7" y1="638" x2="423.5" y2="649.5"/>
	<ellipse transform="matrix(0.975 -0.2224 0.2224 0.975 -122.5669 96.7837)" class="st4" cx="368.5" cy="592.6" rx="6.5" ry="1.3"/>
	<ellipse transform="matrix(0.975 -0.2224 0.2224 0.975 -122.874 97.8531)" class="st4" cx="373.1" cy="594.5" rx="6.5" ry="1.3"/>
	<ellipse class="st14" cx="420.9" cy="617.7" rx="6.3" ry="2.9"/>
	<polyline class="st4" points="411,616.6 422.6,613.9 418.5,613.8 	"/>
	<line class="st4" x1="412.9" y1="617.7" x2="409.7" y2="615.8"/>
	<polyline class="st4" points="358.7,591.6 370.3,588.9 366.2,588.8 	"/>
	<line class="st4" x1="360.6" y1="592.7" x2="357.4" y2="590.8"/>
	
		<ellipse transform="matrix(0.975 -0.2224 0.2224 0.975 -126.7154 108.9396)" class="st4" cx="420.4" cy="617.1" rx="6.5" ry="1.3"/>
	<ellipse transform="matrix(0.975 -0.2224 0.2224 0.975 -127.0459 110.012)" class="st4" cx="425" cy="619.1" rx="6.5" ry="1.3"/>
</g>
</svg>
