<?xml version="1.0" encoding="utf-8"?>
<!-- Generator: Adobe Illustrator 22.0.1, SVG Export Plug-In . SVG Version: 6.00 Build 0)  -->
<svg version="1.1" id="Layer_1" xmlns="http://www.w3.org/2000/svg" xmlns:xlink="http://www.w3.org/1999/xlink" x="0px" y="0px"
	 viewBox="0 0 1000 888" style="enable-background:new 0 0 1000 888;" xml:space="preserve">
<style type="text/css">
	.st0{fill:#FFFFFF;}
	.st1{fill:#CCCCCC;}
	.st2{fill:#1A1A1A;}
	.st3{fill:#0077BF;stroke:#000000;stroke-width:0.5;stroke-miterlimit:10;}
	.st4{fill:#FFFFFF;stroke:#000000;stroke-width:0.5;stroke-miterlimit:10;}
	.st5{fill:#F2F2F2;stroke:#000000;stroke-width:0.5;stroke-miterlimit:10;}
	.st6{fill:#F2F2F2;stroke:#000000;stroke-width:0.5;stroke-linecap:round;stroke-linejoin:round;}
	.st7{fill:#FFE600;stroke:#000000;stroke-width:0.5;stroke-linecap:round;stroke-linejoin:round;}
	.st8{fill:#5E5E5E;stroke:#000000;stroke-width:0.5;stroke-linecap:round;stroke-linejoin:round;}
	.st9{fill:#878787;stroke:#000000;stroke-width:0.5;stroke-linecap:round;stroke-linejoin:round;}
	.st10{fill:none;stroke:#000000;stroke-width:0.5;stroke-miterlimit:10;}
	.st11{fill:#C4C4C4;stroke:#000000;stroke-width:0.5;stroke-linecap:round;stroke-linejoin:round;}
	.st12{fill:#FFFFFF;stroke:#000000;stroke-miterlimit:10;}
	.st13{fill:#1A1A1A;stroke:#000000;stroke-width:0.5;stroke-miterlimit:10;}
	.st14{fill:#EB058C;stroke:#000000;stroke-width:0.5;stroke-miterlimit:10;}
	.st15{fill:#C10072;stroke:#000000;stroke-width:0.5;stroke-miterlimit:10;}
	.st16{opacity:0.17;fill:#0077BF;stroke:#000000;stroke-width:0.5;stroke-miterlimit:10;enable-background:new    ;}
	.st17{clip-path:url(#SVGID_2_);}
	.st18{opacity:0.6;}
	.st19{fill:none;stroke:#FFFFFF;stroke-width:3;stroke-miterlimit:10;}
	.st20{opacity:0.4;}
	.st21{fill:#0077BF;}
	.st22{opacity:0.4;fill:#0077BF;enable-background:new    ;}
</style>
<title>DT7</title>
<g id="Layer_1_1_">
	<g id="Layer_6">
		<path class="st0" d="M283.7,352.1c86.6-1.9,121.1-105.7,146.8-151.8c32-57.3,96.5-130.6,236.6-113.4c0,0,234,14.9,252.2,305
			c0,0,17.6,129.6-87.8,293.9c0,0-101.4,127.1-239.2,140.6c0,0-238.2,26.8-404-105.3c0,0-200.2-130.6-56.9-308.5
			C154,384.5,212.6,353.7,283.7,352.1z"/>
	</g>
	<ellipse class="st1" cx="282.3" cy="739.7" rx="113.2" ry="14.7"/>
	<ellipse class="st1" cx="809.2" cy="745.3" rx="99.5" ry="12.9"/>
</g>
<g id="Layer_2_1_">
	<g id="Layer_12">
		<path class="st2" d="M330.7,729.2l-1.2,13l32.9,6.9c0,0,6.2-7.2-17.5-14.5l-1.1-5.4L330.7,729.2z"/>
		<path class="st3" d="M323.5,619.8l-60.6-126.3l58.4,7.9l38.4,115.5l-7.8,115.7h-24.3L323.5,619.8z"/>
		<path class="st2" d="M262.4,730.2l-1.2,13l32.9,6.8c0,0,6.2-7.2-17.5-14.5l-1.1-5.4L262.4,730.2z"/>
		<path class="st3" d="M276.3,618l-27-98.8c-4.2-14.6-1.8-30.3,6.5-43l9.4-14.3L304,489l8.4,133.2l-28.9,112.5l-23.8-4.7L276.3,618z
			"/>
		<path class="st4" d="M389.4,566.2c5.8-3.8,4.7-13.3,1.2-17.2c-1.2-1.3-4.8-6.3-4.8-6.3s-7-28.4-4.5-50.9c0,0,4.7-48,9-58.9
			c0-0.1-17.1-30.5-19.5-21.2c0,0-14.5,47.7-7.7,84.4l6,34.1l3.1,11.5l5.1,12.5l0.9,4C381.3,566,381.8,571.2,389.4,566.2z"/>
		<path class="st4" d="M407,386.7c-0.8-2.1,0.8-4.3,2.2-6c2-2.2,4.1-4.4,6.2-6.4c-1.8-5.8-5-11.1-9.5-15.3c-1.5-1.4-2.6-1.8-3.9-0.1
			s-2.2,3-3.4,4.4c-2.4,2.7-5.2,5-8.3,6.9c-0.3,0.1-0.6,0.4-0.7,0.7c-0.1,0.3-0.2,0.6-0.1,0.9c0.5,3.9-0.3,17.9,1,21.6L407,386.7z"
			/>
		<path class="st5" d="M389.5,385.9c0,0,26.6,16.7,3,57.5c0,0-22.2-5.5-30.4-15.8C362.1,427.7,364.5,374.9,389.5,385.9z"/>
		<path class="st5" d="M327.5,520.1c-1.9-16.4,8.8-29.5,8.8-29.5l49.8-52.6l17.4-22.3l3.3-29c0,0-16,1.1-16.9-15.8
			c0,0-35.3-6.2-48.1,6.9l-54.7,56l-18.1,17.4c0,0-9.4-2-9.5,5.1c0,0-5.9-1-5,4.1C263.5,509.3,327.5,520.1,327.5,520.1z"/>
		<path class="st6" d="M352.9,556.5c0,0-1.7-2.4,1.1-4.3s26.1-14.9,26.1-14.9s-0.5-2,2-3.1s20.1-11.5,20.1-11.5s2.6-2.3,4.6,0
			s10.6,16.4,11.2,18.3s1.1,4.9-2.2,7.1s-35.4,20.9-40.3,22.8s-9.7,4.6-14,1.5c0,0,0.1,3.1-3.7,3.1s-18.9,1.8-18.9,1.8
			s-2.3,0.7-3.5-2.6s-8.1-16.3-8.1-16.3s-1.6-3.2,1.6-4s19.2-1.4,20.6-0.9S352.9,556.5,352.9,556.5z"/>
		<path class="st7" d="M389.5,533l9.3,14.9c0.4,0.6,0.2,1.4-0.4,1.7l-4.3,2.7c-0.6,0.4-1.4,0.2-1.7-0.4l-9.3-14.9
			c-0.4-0.6-0.2-1.4,0.4-1.7l4.3-2.7C388.4,532.2,389.1,532.4,389.5,533z"/>
		<path class="st8" d="M364.9,567.5l-7-13.5c-0.6-1-0.2-2.3,0.8-2.8l18.3-10.3c1-0.6,2.3-0.2,2.8,0.8l7.7,13.8
			c0.6,1,0.2,2.3-0.8,2.8l-19,10C366.7,568.9,365.5,568.5,364.9,567.5z"/>
		<path class="st9" d="M377.2,544.3l1,1.7c0.4,0.6,0.1,1.4-0.5,1.8l-0.8,0.5c-0.6,0.4-1.4,0.1-1.8-0.5l-1-1.7
			c-0.4-0.6-0.1-1.4,0.5-1.8l0.8-0.5C376,543.4,376.8,543.6,377.2,544.3z"/>
		<path class="st9" d="M380.1,549.4l1,1.7c0.4,0.6,0.1,1.4-0.5,1.8l-0.8,0.5c-0.6,0.4-1.4,0.1-1.8-0.5l-1-1.7
			c-0.4-0.6-0.1-1.4,0.5-1.8l0.8-0.5C378.9,548.6,379.7,548.8,380.1,549.4z"/>
		<path class="st9" d="M382.9,554.6l1,1.7c0.4,0.6,0.1,1.4-0.5,1.8l-0.8,0.5c-0.6,0.4-1.4,0.1-1.8-0.5l-1-1.7
			c-0.4-0.6-0.1-1.4,0.5-1.8l0.8-0.5C381.8,553.7,382.6,553.9,382.9,554.6z"/>
		<path class="st9" d="M372.8,546.7l1,1.7c0.4,0.6,0.1,1.4-0.5,1.8l-0.8,0.5c-0.6,0.4-1.4,0.1-1.8-0.5l-1-1.7
			c-0.4-0.6-0.1-1.4,0.5-1.8l0.8-0.5C371.6,545.9,372.4,546.1,372.8,546.7z"/>
		<path class="st9" d="M375.7,551.9l1,1.7c0.4,0.6,0.1,1.4-0.5,1.8l-0.8,0.5c-0.6,0.4-1.4,0.1-1.8-0.5l-1-1.7
			c-0.4-0.6-0.1-1.4,0.5-1.8l0.8-0.5C374.5,551,375.3,551.2,375.7,551.9z"/>
		<path class="st9" d="M378.5,557l1,1.7c0.4,0.6,0.1,1.4-0.5,1.8l-0.8,0.5c-0.6,0.4-1.4,0.1-1.8-0.5l-1-1.7
			c-0.4-0.6-0.1-1.4,0.5-1.8l0.8-0.5C377.4,556.2,378.2,556.4,378.5,557z"/>
		<path class="st9" d="M368.4,549.2l1,1.7c0.4,0.6,0.1,1.4-0.5,1.8l-0.8,0.5c-0.6,0.4-1.4,0.1-1.8-0.5l-1-1.7
			c-0.4-0.6-0.1-1.4,0.5-1.8l0.8-0.5C367.3,548.3,368.1,548.5,368.4,549.2z"/>
		<path class="st9" d="M371.3,554.3l1,1.7c0.4,0.6,0.1,1.4-0.5,1.8l-0.8,0.5c-0.6,0.4-1.4,0.1-1.8-0.5l-1-1.7
			c-0.4-0.6-0.1-1.4,0.5-1.8l0.8-0.5C370.1,553.5,370.9,553.7,371.3,554.3z"/>
		<path class="st9" d="M374.2,559.5l1,1.7c0.4,0.6,0.1,1.4-0.5,1.8l-0.8,0.5c-0.6,0.4-1.4,0.1-1.8-0.5l-1-1.7
			c-0.4-0.6-0.1-1.4,0.5-1.8l0.8-0.5C373,558.6,373.8,558.8,374.2,559.5z"/>
		<path class="st9" d="M364,551.6l1,1.7c0.4,0.6,0.1,1.4-0.5,1.8l-0.8,0.5c-0.6,0.4-1.4,0.1-1.8-0.5l-1-1.7
			c-0.4-0.6-0.1-1.4,0.5-1.8l0.8-0.5C362.9,550.8,363.7,551,364,551.6z"/>
		<path class="st9" d="M366.9,556.8l1,1.7c0.4,0.6,0.1,1.4-0.5,1.8l-0.8,0.5c-0.6,0.4-1.4,0.1-1.8-0.5l-1-1.7
			c-0.4-0.6-0.1-1.4,0.5-1.8l0.8-0.5C365.7,555.9,366.5,556.1,366.9,556.8z"/>
		<path class="st9" d="M369.8,561.9l1,1.7c0.4,0.6,0.1,1.4-0.5,1.8l-0.8,0.5c-0.6,0.4-1.4,0.1-1.8-0.5l-1-1.7
			c-0.4-0.6-0.1-1.4,0.5-1.8l0.8-0.5C368.6,561,369.4,561.3,369.8,561.9z"/>
		<path class="st10" d="M363,564c-4-0.3-5.3,1.7-5.3,1.7l-3-6.4c0,0,2.8-2.6,5-1.8"/>
		<path class="st10" d="M365.3,568c0,0-3.2-0.9-4.7,1.7l1.1,2.5"/>
		<path class="st10" d="M358.2,554.6c0,0-3.8,0.2-4.8,2.4l-1-1.2"/>
		<path class="st10" d="M358.8,570.8c0,0,1.5,1.6,0,1.8s-17.2,1.9-17.2,1.9s-2.5,0.7-3.3-0.7s-8.5-16-8.5-16s-1.5-1.8,1.1-2.1
			s16.8-1,17.8-0.8c1,0.3,1.7,1.1,2.1,2"/>
		<line class="st10" x1="357.4" y1="559.9" x2="358.5" y2="562.4"/>
		<line class="st10" x1="358.5" y1="559.5" x2="359.6" y2="562"/>
		<path class="st10" d="M363.5,573.2c0,0,1.3-2.8,3.9-2s28.5-13.8,28.9-14.8s-1.2-1,0.3-1.9s17.8-11,18.3-10.7s0.5,1.5,2.1,0.5
			s1.5-2,1.5-2"/>
		<path class="st11" d="M398,531.2l4.3-2.6c2.1-1.2,4.7-0.6,6,1.5l2.5,4.1c1.2,2.1,0.6,4.7-1.5,6l-4.3,2.6c-2.1,1.2-4.7,0.6-6-1.5
			l-2.5-4.1C395.2,535.1,395.9,532.4,398,531.2z"/>
		<circle cx="403.9" cy="533.6" r="0.4"/>
		<circle cx="404.7" cy="535" r="0.4"/>
		<circle cx="405.6" cy="536.5" r="0.4"/>
		<circle cx="402.6" cy="534.3" r="0.4"/>
		<circle cx="403.5" cy="535.8" r="0.4"/>
		<circle cx="404.4" cy="537.2" r="0.4"/>
		<circle cx="401.4" cy="535.1" r="0.4"/>
		<circle cx="402.2" cy="536.5" r="0.4"/>
		<circle cx="403.1" cy="538" r="0.4"/>
		
			<rect x="410.4" y="518.1" transform="matrix(0.8533 -0.5215 0.5215 0.8533 -208.8391 295.1347)" class="st8" width="19.2" height="1.1"/>
		
			<rect x="427.4" y="511.9" transform="matrix(0.8533 -0.5215 0.5215 0.8533 -205.0721 298.6374)" class="st8" width="1.5" height="3.8"/>
		<path class="st6" d="M406.9,522.6c0,0,6.1-3.1,6.9-2.5c1.1,1,2,2.3,2.5,3.7c0.1,0.9-4.7,5.8-4.7,5.8L406.9,522.6z"/>
		<path class="st10" d="M409.3,521.4c1.7,1.8,3.1,3.8,4.3,6"/>
		<path class="st4" d="M370,548.3c0,0,9.7,0.5,6.9,8.5c-2,5.6-0.9-2-5.3-2.5C368.3,553.8,370,548.3,370,548.3z"/>
		<path class="st4" d="M374.3,572.6c5.8-3.8,2.3-16.4-1.2-20.3c-1.2-1.3-4.8-6.3-4.8-6.3s-7-28.4-4.5-50.9c0,0,4.7-48,9-58.9
			c0-0.1-17.1-30.5-19.5-21.2c0,0-14.5,47.7-7.7,84.4l6,34.1l3.1,11.6l5.1,12.5l3.1,7.8C366,573.1,366.6,577.6,374.3,572.6z"/>
		<path class="st5" d="M371,384.9c0,0,26.6,16.7,3,57.5c0,0-22.2-5.5-30.4-15.8C343.6,426.7,346.1,373.9,371,384.9z"/>
		<path class="st4" d="M442.1,352.6c1.4-5.5,1.9-11.2,1.4-16.8c-0.9-7.6-2.1-15.6-7.3-21.2c-3.1-3-6.8-5.4-10.7-7.1
			c-2.8-1.6-5.8-2.7-9-3.3c-2.7-0.4-5.4-0.2-8,0.4c-7.4,1.5-14,5.6-18.6,11.7c-11.9,16.3-0.2,37.8,10.9,51c4.2,4.9,9.7,9.6,16.1,9.4
			C434.8,376.6,442.1,352.6,442.1,352.6z"/>
		<path class="st12" d="M413.5,328c-3.7-0.5-7.2,1.5-8.6,5"/>
		<path class="st12" d="M439.5,332c-2-3.1-5.9-4.5-9.4-3.2"/>
		<path class="st4" d="M423.4,351.5c1.3-0.4,2.5-0.9,3.7-1.5c0.3-0.1,0.6-0.3,0.8-0.5c0.4-0.7,0.5-1.5,0.1-2.3l-1.2-4"/>
		
			<ellipse transform="matrix(0.9768 -0.2142 0.2142 0.9768 -62.7492 96.6041)" class="st13" cx="414.3" cy="337.8" rx="1.8" ry="2.3"/>
		
			<ellipse transform="matrix(0.9768 -0.2142 0.2142 0.9768 -62.4957 100.7632)" class="st13" cx="433.7" cy="338.7" rx="1.8" ry="2.3"/>
		<path class="st2" d="M394.5,337.4c0,0-8.4-0.9-0.2,10.1c0,0-6,1.4-3,5.8c0,0-7.7-5-10.7-22.8c0,0-5.1-21.9,13.5-27.2
			c0,0,19.4-10,39,1.9c5.7,3.5,9.3,6.9,15.9,7.1c0,0,2.3,7.8-4.9,28.2c0,0-2.1-17.3-10.3-25.1c0,0-18,4.4-25,0.2
			C408.7,315.4,400.7,317.4,394.5,337.4z"/>
		<path class="st10" d="M412.5,353.2c-0.8,0.7-1.3,1.8-1.1,2.9"/>
		<path class="st10" d="M435,335.9c-2.3,0.1-4.4,1.3-5.6,3.2"/>
		<path class="st10" d="M415.1,334.6c-1.8,0.7-3.4,2-4.4,3.7"/>
		<path class="st10" d="M415.7,359.2c0,0,5.3,4.8,10.6,3.3"/>
	</g>
	<g id="Layer_7">
		<path class="st13" d="M843.3,422.4l-36.4-20.6c-0.9-5-2.8-9.8-5.5-14.2c-13.2-21.9-3.6-40.3-3.6-40.3c6.1-15.4,23-17.7,23-17.7
			c18.3-3,29.4,6.7,29.4,6.7s38.9,18.5,34.5,105.9c-0.8,5.5,1.8,10.9,6.7,13.6c-14.8,2.7-30.1-1.6-41.2-11.8
			c-18.8-17.2-17.2-42.6-17.2-42.6"/>
		<path class="st4" d="M795.2,728.8c-0.1-0.7-0.2-1.5-0.2-2.2c0.1,0,10.9-153.1,17.1-184.9c1.4-7,2.3-14.1,2.8-21.2
			c0-1,0-2.1-0.1-3.1c-1.1-12.3-12-21.4-24.4-20.3l0,0c-9.4,1-17,8.2-18.5,17.6c-5.4,35.8-4.9,72.2,1.6,107.9L787.7,726
			c0.1,1.1,0.2,2.1,0.2,3.2"/>
		<path class="st4" d="M876,730.2c-1.4-1-2.6-2.3-3.4-3.9c-0.6-1.4-1.1-2.9-1.6-4.4c-3-13.5-19.6-87.4-22.5-99.3
			c-3.2-13.1,0-33.4,0-33.4c4.2-37.4-0.2-63.1-4.8-78.3c-3.1-10.2-12.7-17-23.4-16.5l-21.1,1.8c-3.1,23.5,12.3,106.9,21.2,133
			c7.4,21.7,33.6,75.2,42.2,92.5c2.1,4.3,3.5,8.9,4.1,13.7"/>
		<path class="st4" d="M719.4,413.5c0,0-5.1-5.1-7.1-8.5c-2.4-4.1,3.7-8.1,6.3-9.2c0,0-4.1-8.6-2-10.6c2.5-2.4,4.7,7.8,5.9,9.8
			s3,2.4,3.9,4.2s-0.5,12.9-0.5,12.9L719.4,413.5z"/>
		<path class="st14" d="M822.2,406.6l-4.3,0.8c-3.8-0.3-5.8-3.6-9.4-5.5c-18.8-1-34.4,32.4-56,49c-6.2,0-25-40.7-25-40.7l-9.5,2.4
			c0,0,10.6,49.5,30,61.1c4.2,2.5,9.5,2.1,13.3-0.9c6.8-5.2,19.2-14.9,27.1-20.9c1.4,1.3,1.2,2.2,1.5,3.8c0.6,2.7-0.1,5.6-2.7,11.1
			l-15.4,42c-0.1,0.2-0.2,0.5-0.3,0.7c-0.6,2.1,0.5,4.3,2.6,4.9c20.8,6.6,53.4,5.8,69.5,0.2c1.4-0.5,2.2-2.1,1.7-3.5l-3.2-9.8
			c-1.5-4.7-5.8-18.5-4.4-23.1l14-29.8c2.7-5.6,6.3-10.8,10.7-15.1c0,0,5.4-8.5-21.5-29.8l0,0"/>
		<path class="st10" d="M790.7,433c-1.7,2.6-3.1,5.3-4.1,8.2c-0.9,3.2,0.2,8,1.8,10.9"/>
		<path class="st4" d="M834.4,568.8c0.7,0.5,2.2,0.2,3.7-1.3c1-1.1,2.2-3.7,3.4-3.2c0.3,0.2,0.3,1.1,0.3,1.4c-0.6,7-7.7,7.7-9.5,9.3
			c-2.2,1.9,1.4,2.4,3.7,2.4c4.7-0.2,8.2-0.5,9.8-2.5c2.6-3.3,5.4-7.6,5.6-12.1c-0.1-2.2,0.3-4.4,1.2-6.4l1.3-3.4
			c1.3-2.5,1-5.1-1.6-6l0,0c-2.4-0.9-4.2,0.5-5.1,2.8l-1.9,4.8c-0.4,1.2-2.1,2.2-3.1,3c-0.7,0.4-1.3,0.9-1.9,1.5
			c-0.8,1-2.2,3.8-4,6.4C835.2,567.2,833.7,568.3,834.4,568.8z"/>
		<path class="st14" d="M882.4,482.2c1.5,5.8,0.9,11.9-1.6,17.3l-26.2,57.6c-3.5-0.5-7-1.2-8.9-4.9l15.6-55.2c0.8-2.9,0.3-6-1.2-8.6
			c-8-28-21.3-54.3-19.2-61.5c3.2-11.1,11.3-14.6,14.7-11C866,426.8,877.8,464.5,882.4,482.2z"/>
		<path class="st2" d="M785.6,727.8c-5.2,10.1-14.7,17.4-25.9,19.7h29l5.2-8.3l2.1,8.3h2.9v-19.7H785.6z"/>
		<path class="st2" d="M864,727.8c-5.2,10.1-14.7,17.4-25.9,19.7h29l5.2-8.3l2.1,8.3h2.9v-19.7H864z"/>
		<path class="st4" d="M831.8,411.5c2.7-2.3,5.3-4.8,7.5-7.5c0.5-0.4,0.5-1.1,0.2-1.6c-1.5-2.9-2.5-6-3.2-9.2
			c-0.3-1.6-0.4-3.1-0.6-5s-1.2-2.1-3-1.8c-5.3,1.1-10.2,3.6-14.3,7.1c0.7,2.6,1.2,5.2,1.7,7.8c0.3,2,0.5,4.4-1.1,5.6
			C817.7,417.3,831.8,411.5,831.8,411.5z"/>
		<path class="st4" d="M846.4,346.5c-3.8-5.6-9.5-9.7-16.1-11.4c-2.3-0.7-4.7-0.9-7.1-0.7c-2.8,0.4-5.6,1.3-8.1,2.5
			c-3.6,1.3-7,3.3-9.9,5.8c-4.9,4.8-6.3,11.9-7.5,18.6c-0.7,4.1-1.4,8.3-0.4,12.3c0.8,2.8,2.1,5.4,3.6,7.8c2.2,4,4.8,7.8,7.7,11.3
			c2.8,3.2,6.5,5.9,10.7,6.3c5.8,0.5,10.9-3.4,14.9-7.6C844.8,380.1,856.2,361.5,846.4,346.5z"/>
		<path class="st2" d="M851.7,370.4l1.6-16.6l-12.7-16.7l-11.9-4.1l-14.9,1l-10.9,9l-7.7,17.8l0.5,13.4l2.7,5.7
			c2-4.2,1.4-12.3,1.4-12.3c0.8-13.9,16.7-16.9,16.7-16.9c6.4-0.9,12.1-7.1,12.1-7.1c-3.4,16.3,18.8,34.3,18.8,34.3L851.7,370.4z"/>
		<path class="st4" d="M819.2,366.9c0.5-1.2,1.3-2.4,2.2-3.4c0.9-1,2.3-1.6,3.6-1.5c0.5,0.1,1,0.3,1.5,0.5c0.5,0.2,0.9,0.5,1.3,0.8
			c0.5,0.5,1.1,0.9,1.7,1.3c0.6,0.4,1.4,0.4,2.1,0.1"/>
		<path class="st4" d="M800.4,363.8c1,0.5,2.2,0.4,3.2-0.2c0.9-0.6,2-1.1,3.1-1.2c1.4,0.1,2.6,0.7,3.6,1.7l1.3,1"/>
		<path class="st4" d="M830.3,358.5c-3.6-2.4-8.3-1.9-11.4,1"/>
		<path class="st4" d="M803.8,357.3c2.8-0.9,5.9-0.3,8.2,1.6"/>
		<path class="st4" d="M813.3,371.1l-1.3,3.5c-0.6,0.7-0.5,1.7,0.2,2.2c0.1,0.1,0.3,0.2,0.5,0.3c1.1,0.5,2.2,1,3.3,1.4"/>
		<path class="st4" d="M822.9,387.2c0.4-0.4,1.4-2,1-2.5c-0.1-0.1-0.2-0.2-0.3-0.2c-3.3-1.4-6.8-2.1-10.4-2c-0.5,0-1.1,0.2-1.3,0.7
			c-0.1,0.3,0,0.5,0.1,0.8c0.3,0.9,0.9,1.6,1.3,2.5c0.3,1.1,0.7,2.1,1.2,3.1c0.6,1,1.8,1.7,2.8,1.2c0.2-0.2,0.5-0.3,0.7-0.5
			c0.7-0.5,1.4-0.8,2.2-1.1C821.1,388.7,822.1,388.1,822.9,387.2z"/>
		<path class="st15" d="M813.9,389.5c0.5-0.7,1.5-0.3,2.1-0.3c1.9,0,3.8-0.6,5.3-1.7c1.2-0.8,2.3-1.7,3.2-2.8c0.1,0.6,0,1.3-0.3,1.9
			c-0.4,0.6-0.8,1.1-1.3,1.5c-0.7,0.6-1.2,1.2-1.9,1.8c-0.8,0.8-1.8,1.4-2.8,1.8c-1.1,0.4-2.2,0.4-3.3,0
			C814.1,391.4,813.4,390.2,813.9,389.5z"/>
		<path class="st15" d="M812.3,384.1c1.8-0.3,3.6-0.3,5.3,0c2.2,0.4,4.4,1.2,6.6,0.8c0.1,0,0.3-0.1,0.3-0.2s-0.1-0.2-0.2-0.3
			c-2-1.2-4.1-2.2-6.4-2.9c-2.3-0.7-4.7-0.5-6.9,0.4C809,382.9,810.9,384.4,812.3,384.1z"/>
		
			<ellipse transform="matrix(0.2676 -0.9635 0.9635 0.2676 252.0466 1060.4388)" class="st13" cx="823.5" cy="364.4" rx="2.1" ry="1.6"/>
		
			<ellipse transform="matrix(0.2676 -0.9635 0.9635 0.2676 239.521 1043.6912)" class="st13" cx="806.3" cy="364.3" rx="2.1" ry="1.6"/>
	</g>
	<path class="st10" d="M839.7,444.5c0,0-4.5,13.7-16.2,15.3"/>
	<path class="st4" d="M820.5,412.1c0,0-16,13.6-20.8,27.6s-1.9,42.5-1.9,42.5l4.8,1c0,0,0.3-28.5,2.6-38.8
		c2.5-11.5,20.4-31.4,20.4-31.4S822.1,413.5,820.5,412.1z"/>
	<path class="st4" d="M785.9,470.8c0,0-4.8,2-5,13.8c0,0,13.8,9.7,57.7,3.7c0,0,2-5.9-0.7-9.9C837.9,478.4,790.7,481,785.9,470.8z"
		/>
	<circle class="st4" cx="800.2" cy="483.2" r="8.7"/>
	<circle class="st4" cx="800.2" cy="483.2" r="4.8"/>
	<path class="st4" d="M847.1,451c0,0,15.9,3.2,22.9-7.5c0,0,5.3,15.4,6,17.2c0,0-11,13.9-22.7,7L847.1,451z"/>
	<path class="st4" d="M775.7,426.8L765,439.2c0,0,0.5,17.8,14.9,19.4l8-6.1c0,0,0.9-0.3-0.2-1.8s-2-7.4-1.1-9.5
		C786.6,441.2,776.8,431.4,775.7,426.8z"/>
	<path class="st14" d="M816.6,616.2c0,0,21,5.3,30.5-6.5c0.4,6.2,1.4,12.4,2.7,18.5l1.4,5.9c0,0-19.8,16.5-26.1,7.1
		C825,641.2,819.1,626.4,816.6,616.2z"/>
	<path class="st14" d="M803.8,616.2c0,0-20.4,5.4-31.5-0.5L776,641c0,0,4.3,5.4,25.5,1.5L803.8,616.2z"/>
	<path class="st4" d="M857,551.8c0,0-8.9-0.9-9.7-5.2l3-10.8c0,0,7.5,5.7,11.9,4.5L857,551.8z"/>
	<path class="st4" d="M719.4,418.7c0,0,2.9,0.7,10.8-2.5l4.8,9.6c0,0-5.3,9.3-12.4,4.1L719.4,418.7z"/>
	<path class="st4" d="M819,407.1c0,0-1,0.9-3.7-0.2c0,0-5.1,12.9,13.9,10.9c1.1-0.1,2.1-0.4,3.1-0.9c3.4-1.7,11.8-6.1,12.6-10
		l-5.3-3.7c0,0-6,6.7-9,8S818.4,415.5,819,407.1z"/>
	<path class="st4" d="M724.2,401.9c0,0-1.1,3.8-3.1,4.7s-2.9-7.4,3.7-9.2"/>
	<path class="st10" d="M711.9,404.1c0,0,2.8,3.2,7.6,0.5"/>
	<polygon class="st16" points="533,316.3 533,517.1 780.9,558.8 780.9,350.7 	"/>
	<g>
		<defs>
			<polygon id="SVGID_1_" points="533,316.3 533,517.1 780.9,558.8 780.9,350.7 			"/>
		</defs>
		<clipPath id="SVGID_2_">
			<use xlink:href="#SVGID_1_"  style="overflow:visible;"/>
		</clipPath>
		<g class="st17">
			<g class="st18">
				<line class="st19" x1="553" y1="312.5" x2="553" y2="562"/>
				<line class="st19" x1="573.3" y1="312.5" x2="573.3" y2="562"/>
				<line class="st19" x1="593.7" y1="312.5" x2="593.7" y2="562"/>
				<line class="st19" x1="614" y1="312.5" x2="614" y2="562"/>
				<line class="st19" x1="634.3" y1="312.5" x2="634.3" y2="562"/>
				<line class="st19" x1="654.7" y1="312.5" x2="654.7" y2="562"/>
				<line class="st19" x1="675" y1="312.5" x2="675" y2="562"/>
				<line class="st19" x1="695.3" y1="312.5" x2="695.3" y2="562"/>
				<line class="st19" x1="715.7" y1="312.5" x2="715.7" y2="562"/>
				<line class="st19" x1="736" y1="312.5" x2="736" y2="562"/>
				<line class="st19" x1="756.3" y1="312.5" x2="756.3" y2="562"/>
				<line class="st19" x1="472.5" y1="326.3" x2="842.9" y2="378.6"/>
				<line class="st19" x1="472.5" y1="350.4" x2="842.9" y2="402.7"/>
				<line class="st19" x1="472.5" y1="374.6" x2="842.9" y2="426.9"/>
				<line class="st19" x1="472.5" y1="398.7" x2="842.9" y2="451"/>
				<line class="st19" x1="472.5" y1="422.9" x2="842.9" y2="475.2"/>
				<line class="st19" x1="472.5" y1="447" x2="842.9" y2="499.3"/>
				<line class="st19" x1="472.5" y1="471.2" x2="842.9" y2="523.5"/>
				<line class="st19" x1="472.5" y1="495.3" x2="842.9" y2="547.6"/>
			</g>
		</g>
	</g>
	<g class="st20">
		<path class="st21" d="M716.8,396.9c-7.3-0.8-12.7-6.7-12-13.2s7.2-11.2,14.5-10.4s12.7,6.7,12,13.2S724.1,397.6,716.8,396.9z
			 M719,376c-5.7-0.6-10.7,3-11.2,8s3.7,9.6,9.3,10.2s10.7-3,11.2-8S724.6,376.5,719,376z"/>
		<path class="st21" d="M716,403.8c-11.6-1.2-20.2-10.6-19.1-20.9s11.4-17.7,23-16.5s20.2,10.6,19.1,20.9S727.7,405,716,403.8z
			 M719.5,370.6c-9-1-17,4.8-17.8,12.8s5.8,15.2,14.8,16.2s17-4.8,17.8-12.8S728.5,371.5,719.5,370.6L719.5,370.6z"/>
		<polyline class="st21" points="553,506.7 553,361.8 570.9,364.3 570.9,509.2 		"/>
		<polyline class="st21" points="632.4,518.8 632.4,457.3 650.2,459.9 650.2,521.4 		"/>
		<polyline class="st21" points="717.7,531 717.7,469.4 735.6,472 735.6,533.5 		"/>
		<polyline class="st21" points="747.2,534.6 747.2,485.1 765,487.6 765,537.1 		"/>
		<polyline class="st21" points="577,509.8 577,393 594.9,395.5 594.9,512.3 		"/>
		<polyline class="st21" points="660.5,522.8 660.5,406 678.4,408.5 678.4,525.3 		"/>
		<polyline class="st21" points="601.6,513.8 601.6,422.5 619.4,425 619.4,516.4 		"/>
		<polyline class="st21" points="687.9,525.9 687.9,442.6 705.8,445.1 705.8,528.5 		"/>
	</g>
	<ellipse transform="matrix(0.104 -0.9946 0.9946 0.104 260.3177 1059.0728)" class="st22" cx="718" cy="385.1" rx="3.8" ry="4.2"/>
	<polygon class="st10" points="533,316.3 533,517.1 780.9,558.8 780.9,350.7 	"/>
</g>
</svg>
