<?xml version="1.0" encoding="utf-8"?>
<!-- Generator: Adobe Illustrator 22.0.1, SVG Export Plug-In . SVG Version: 6.00 Build 0)  -->
<svg version="1.1" id="Layer_1" xmlns="http://www.w3.org/2000/svg" xmlns:xlink="http://www.w3.org/1999/xlink" x="0px" y="0px"
	 viewBox="0 0 785.8 785.8" style="enable-background:new 0 0 785.8 785.8;" xml:space="preserve">
<style type="text/css">
	.st0{fill:#FFFFFF;}
	.st1{fill:#BCBCBC;}
	.st2{fill:#D8D8D8;stroke:#000000;stroke-width:0.5;stroke-miterlimit:10;}
	.st3{fill:#A1E4FF;}
	.st4{fill:#EB058C;}
	.st5{opacity:0.6;fill:#FFFFFF;}
	.st6{fill:none;stroke:#000000;stroke-width:0.5;stroke-miterlimit:10;}
	.st7{fill:#0077BF;}
	.st8{fill:#353535;}
	.st9{fill:#FFE600;}
	.st10{fill:#1A1A1A;stroke:#000000;stroke-width:0.5;stroke-miterlimit:10;}
	.st11{fill:#FFFFFF;stroke:#000000;stroke-width:0.5;stroke-miterlimit:10;}
	.st12{fill:#1A1A1A;}
	.st13{fill:#F2F2F2;stroke:#000000;stroke-width:0.5;stroke-miterlimit:10;}
	.st14{fill:#EB058C;stroke:#000000;stroke-width:0.5;stroke-miterlimit:10;}
	.st15{display:none;}
	.st16{display:inline;fill:#FFFFFF;stroke:#000000;stroke-width:0.5;stroke-miterlimit:10;}
	.st17{fill:#C10072;stroke:#000000;stroke-width:0.5;stroke-miterlimit:10;}
	.st18{display:none;fill:none;stroke:#000000;stroke-width:0.5;stroke-miterlimit:10;}
	.st19{display:none;fill:#FFFFFF;}
	.st20{fill:#C10072;stroke:#000000;stroke-width:0.5;stroke-linejoin:round;stroke-miterlimit:10;}
	.st21{opacity:0.71;fill:#FFFFFF;}
	.st22{fill:#0077BF;stroke:#000000;stroke-width:0.5;stroke-miterlimit:10;}
	.st23{fill:none;stroke:#000000;stroke-width:0.5;stroke-linecap:round;stroke-miterlimit:10;}
	.st24{opacity:0.74;fill:#FFFFFF;}
	.st25{fill:#BFBFBF;stroke:#000000;stroke-width:0.5;stroke-miterlimit:10;}
	.st26{font-family:'MyriadPro-Regular';}
	.st27{font-size:18.5311px;}
</style>
<g id="Layer_7_1_">
	<path class="st0" d="M267.2,727.8c140.5,9.4,222.1-37.7,271.9-92.1c60.2-65.7,104.9-181.7,105-229.2
		c0.3-128.5-17.7-164.7-47.7-213.9C480.7,3,308.9,91.7,308.9,91.7c-103.5,47.6-125.1,128.7-112.4,175.6
		c42.6,156.4-47.4,189.3-47.4,189.3c0,0-85.9,42.2-54.3,155.5C125,720.8,267.2,727.8,267.2,727.8z"/>
</g>
<polygon class="st1" points="462.2,365.1 578.4,352.7 589.7,372 470.5,372 "/>
<polygon class="st1" points="462.2,291.8 578.4,279.4 589.7,298.7 470.5,298.7 "/>
<ellipse class="st1" cx="393.2" cy="706.6" rx="208.8" ry="15.7"/>
<rect x="462.2" y="352.7" class="st2" width="116.2" height="12.4"/>
<rect x="462.2" y="279.5" class="st2" width="116.2" height="12.4"/>
<g>
	<g>
		<path class="st3" d="M523.3,269.4c-2.9-5-7.9-10.9-10.3-13.6c-0.1-0.2-0.2-0.4-0.2-0.6v-14.5c0-0.5,0.4-0.9,0.9-0.9h1.2
			c0.7,0,1.2-0.7,1.2-1.6c0-0.9-0.6-1.6-1.2-1.6h-13.4c-0.7,0-1.2,0.7-1.2,1.6c0,0.9,0.6,1.6,1.2,1.6h1.6c0.5,0,0.9,0.4,0.9,0.9
			v14.5c0,0.2-0.1,0.4-0.2,0.6c-2.5,2.7-7.7,8.7-10.7,13.7c2.6-0.1,5.2-0.1,7.8-0.1C508,269.4,515.7,269.4,523.3,269.4z"/>
		<path class="st4" d="M500.6,269.4c-2.6,0-5.2,0.1-7.8,0.1c-1.4,2.3-2.3,4.3-2.3,5.7c0,1.8,1.1,4,6,4c0.7,0,1.2-0.1,1.2-0.1
			c0,0,0.1,0,0.1,0h20.5c0,0,0.1,0,0.1,0c0,0,0.5,0.1,1.2,0.1c5,0,6-2.2,6-4c0-1.4-0.9-3.5-2.3-5.9
			C515.7,269.4,508,269.4,500.6,269.4z"/>
	</g>
	<path class="st5" d="M512.2,276.3c5.5,1.2,13.7-0.4,6.2-10.1c-7.5-9.6-8.6-3.3-6.2,0C516,271.4,507.9,275.4,512.2,276.3z"/>
	<path class="st6" d="M523.3,269.4c-2.9-5-7.9-10.9-10.3-13.6c-0.1-0.2-0.2-0.4-0.2-0.6v-14.5c0-0.5,0.4-0.9,0.9-0.9h1.2
		c0.7,0,1.2-0.7,1.2-1.6c0-0.9-0.6-1.6-1.2-1.6h-13.4c-0.7,0-1.2,0.7-1.2,1.6c0,0.9,0.6,1.6,1.2,1.6h1.6c0.5,0,0.9,0.4,0.9,0.9v14.5
		c0,0.2-0.1,0.4-0.2,0.6c-2.5,2.7-7.7,8.7-10.7,13.7c-1.4,2.3-2.3,4.3-2.3,5.7c0,1.8,1.1,4,6,4c0.7,0,1.2-0.1,1.2-0.1
		c0,0,0.1,0,0.1,0h20.5c0,0,0.1,0,0.1,0c0,0,0.5,0.1,1.2,0.1c5,0,6-2.2,6-4C525.6,273.8,524.6,271.7,523.3,269.4z"/>
</g>
<g>
	<g>
		<path class="st7" d="M482.4,345.4c0.3,5,6.2,6.1,8,6.4c4.2,0.6,7.4,0.7,9.4,0.7c0.2,0,0.3,0,0.4,0c0.2,0,0.3,0,0.4,0
			c2,0,5.2-0.1,9.4-0.7c1.8-0.2,7.7-1.4,8-6.4c0-0.7,0-3.3-0.1-6.4c-11.8,0-23.7-0.2-35.5-0.5C482.4,341.8,482.4,344.7,482.4,345.4z
			"/>
		<path class="st3" d="M515.5,325.4c-0.2-0.2-0.3-0.5-0.2-0.8c0.1-0.3,0.4-0.5,0.7-0.5c0.6,0,1-0.5,1-1c0-0.3-0.1-0.6-0.4-0.8
			c-0.2-0.1-0.3-0.4-0.3-0.6s0.1-0.4,0.3-0.6c0.2-0.2,0.4-0.5,0.4-0.8c0-0.6-0.5-1-1-1h-31.3c-0.6,0-1,0.5-1,1
			c0,0.3,0.1,0.6,0.4,0.8c0.2,0.1,0.3,0.4,0.3,0.6s-0.1,0.4-0.3,0.6c-0.2,0.2-0.4,0.5-0.4,0.8c0,0.6,0.4,1,1,1
			c0.3,0,0.6,0.2,0.7,0.5c0.1,0.3,0,0.6-0.2,0.8c-1.1,1-1.7,2.1-1.9,3.1c-0.3,2-0.6,6.3-0.7,10.1c11.8,0.3,23.7,0.5,35.5,0.5
			c-0.1-3.9-0.4-8.5-0.7-10.6C517.2,327.5,516.6,326.4,515.5,325.4z"/>
	</g>
	<path class="st8" d="M518.4,321.5c0.5-0.4,0.9-1,0.9-1.8c0-1.1-0.8-2.1-1.9-2.1h-34.3c-1,0-1.9,0.9-1.9,2.1c0,0.7,0.4,1.4,0.9,1.8
		c-0.5,0.4-0.9,1-0.9,1.8c0,1.1,0.8,2.1,1.9,2.1h34.3c1,0,1.9-0.9,1.9-2.1C519.3,322.5,519,321.9,518.4,321.5z"/>
	<path class="st5" d="M515,327.6c-0.1-0.8-0.6-1.6-1.4-2.4c-0.1-0.1-0.1-0.2-0.1-0.2c-0.1,0-0.2,0.1-0.3,0.1
		c-4.3,2.9-0.9,8.2-1.7,12.7c0,1.3-0.9,2.2-1.4,3.5c-0.5,2.2,0.4,3.5,1.8,4c1.6-0.6,3.6-1.9,3.7-4.5c0-0.5,0-2.6-0.1-4.9
		C515.4,332.8,515.3,329.2,515,327.6z"/>
	<path class="st6" d="M518.4,321.5c0.5-0.4,0.9-1,0.9-1.8c0-1.1-0.8-2.1-1.9-2.1h-34.3c-1,0-1.9,0.9-1.9,2.1c0,0.7,0.4,1.4,0.9,1.8
		c-0.5,0.4-0.9,1-0.9,1.8c0,1.1,0.8,2.1,1.9,2.1h2.1c0,0-0.1,0.1-0.1,0.1c-1.1,1-1.7,2.1-1.9,3.1c-0.3,2-0.6,6.3-0.7,10.1
		c-0.1,3.2-0.2,6.1-0.1,6.8c0.3,5,6.2,6.1,8,6.4c4.2,0.6,7.4,0.7,9.4,0.7c0.2,0,0.3,0,0.4,0c0.2,0,0.3,0,0.4,0c2,0,5.2-0.1,9.4-0.7
		c1.8-0.2,7.7-1.4,8-6.4c0-0.7,0-3.3-0.1-6.4c-0.1-3.9-0.4-8.5-0.7-10.6c-0.2-1-0.8-2-1.9-3.1c0,0-0.1-0.1-0.1-0.1h2.1
		c1,0,1.9-0.9,1.9-2.1C519.3,322.5,519,321.9,518.4,321.5z"/>
</g>
<g>
	<g>
		<path class="st3" d="M556.6,332.1c-1.6-4.2-5-7.5-9.5-8.8c-0.2-0.1-0.4-0.3-0.4-0.5v-11.5c0-0.3,0.2-0.5,0.5-0.5h1
			c0.7,0,1.2-0.7,1.2-1.5c0-0.8-0.5-1.5-1.2-1.5h-11c-0.7,0-1.2,0.7-1.2,1.5c0,0.8,0.5,1.5,1.2,1.5h1.3c0.3,0,0.5,0.2,0.5,0.5v11.4
			c0,0.2-0.2,0.4-0.4,0.5c-4.5,1.3-8,4.5-9.7,8.7C538.2,331.9,547.4,332.1,556.6,332.1z"/>
		<path class="st4" d="M529,331.8c-0.7,1.8-1.1,3.7-1.1,5.6c0,8.2,6.7,14.9,14.9,14.9c8.2,0,14.9-6.7,14.9-14.9c0-1.9-0.4-3.7-1-5.4
			C547.4,332.1,538.2,331.9,529,331.8z"/>
	</g>
	<path class="st5" d="M546.1,324.7c3.6,2.4,5.9,6.4,5.9,11c0,7.3-5.9,13.2-13.2,13.2c-1.1,0-2.2-0.1-3.3-0.4
		c2.1,1.4,4.6,2.2,7.3,2.2c7.3,0,13.2-5.9,13.2-13.2C556.1,331.3,551.9,326.1,546.1,324.7z"/>
	<g>
		<g>
			<path class="st6" d="M556.6,332.1c-1.6-4.2-5-7.5-9.5-8.8c-0.2-0.1-0.4-0.3-0.4-0.5v-11.5c0-0.3,0.2-0.5,0.5-0.5h1
				c0.7,0,1.2-0.7,1.2-1.5c0-0.8-0.5-1.5-1.2-1.5h-11c-0.7,0-1.2,0.7-1.2,1.5c0,0.8,0.5,1.5,1.2,1.5h1.3c0.3,0,0.5,0.2,0.5,0.5v11.4
				c0,0.2-0.2,0.4-0.4,0.5c-4.5,1.3-8,4.5-9.7,8.7"/>
			<path class="st6" d="M529,331.8c-0.7,1.8-1.1,3.7-1.1,5.6c0,8.2,6.7,14.9,14.9,14.9c8.2,0,14.9-6.7,14.9-14.9
				c0-1.9-0.4-3.7-1-5.4"/>
		</g>
		<path class="st5" d="M546.1,324.7c3.6,2.4,5.9,6.4,5.9,11c0,7.3-5.9,13.2-13.2,13.2c-1.1,0-2.2-0.1-3.3-0.4
			c2.1,1.4,4.6,2.2,7.3,2.2c7.3,0,13.2-5.9,13.2-13.2C556.1,331.3,551.9,326.1,546.1,324.7z"/>
	</g>
</g>
<g>
	<g>
		<path class="st3" d="M548.3,237.3v-8.8c0-0.4,0.3-0.7,0.7-0.7h1c0.6,0,1-0.6,1-1.3c0-0.7-0.5-1.3-1-1.3h-11c-0.6,0-1,0.6-1,1.3
			c0,0.7,0.5,1.3,1,1.3h1.3c0.4,0,0.7,0.3,0.7,0.7v8.8C543.4,237.3,545.8,237.3,548.3,237.3z"/>
		<path class="st9" d="M540.9,237.3v39.1c0,1.6,1.6,2.9,3.7,2.9c2,0,3.7-1.3,3.7-2.9v-39.1C545.8,237.3,543.4,237.3,540.9,237.3z"/>
	</g>
	<path class="st6" d="M549.9,225.2h-11c-0.6,0-1,0.6-1,1.3c0,0.7,0.5,1.3,1,1.3h1.3c0.4,0,0.7,0.3,0.7,0.7v8.8v39.1
		c0,1.6,1.6,2.9,3.7,2.9c2,0,3.7-1.3,3.7-2.9v-39.1v-8.8c0-0.4,0.3-0.7,0.7-0.7h1c0.6,0,1-0.6,1-1.3
		C551,225.8,550.5,225.2,549.9,225.2z"/>
	<path class="st5" d="M546.9,275.3c0,0.6-0.5,1.2-1.2,1.2l0,0c-0.6,0-1.2-0.5-1.2-1.2V230c0-0.6,0.5-1.2,1.2-1.2l0,0
		c0.6,0,1.2,0.5,1.2,1.2V275.3z"/>
</g>
<g id="Layer_8">
	<path class="st10" d="M346.4,329.5c16.3,17.7,53.6-3.3,53.6-3.3s19.4-4.8,23.2-17.6c0,0-13.6,3.9-26-16.5
		c-6.1-10.3-5.3-15.8-8.6-27.3c0,0-3.7-22.6-20.4-34.4c0,0-14.1-11.5-34.7-8.5c0,0-17.4,4-24.5,21c0,0-13.4,21.2,1,46
		c2.9,4.9,6.8,19.8,7.7,25.4l26.1,11.6"/>
	<path class="st11" d="M353.2,309.5c0.2,0.3,0.2,0.6,0.2,0.9c-0.1,0.3-0.2,0.6-0.5,0.8c-2.6,2.8-5.4,5.3-8.5,7.5
		c-1.8,1.3-4,2.5-6.2,1.8c-1.3-0.6-2.4-1.5-3.2-2.7l-3.8-4.7c0.5-2,1.2-3.6,1-5.7c-0.3-2.8-0.1-5.8-0.7-8.6c4.6-3.5,10-5.7,15.6-6.6
		c1.9-0.3,2.9,0,3,2c0.1,2,0,3.5,0.3,5.3C350.9,303,351.8,306.4,353.2,309.5z"/>
	<path class="st12" d="M346.9,689v20.1h3l2.1-8.5l5.3,8.5h29.6c-11.4-2.4-21.1-9.8-26.5-20.1H346.9z"/>
	<path class="st12" d="M327.6,689v20.1h-3l-2.1-8.5l-5.3,8.5h-29.6c11.4-2.4,21.1-9.8,26.5-20.1H327.6z"/>
	<path class="st13" d="M346.9,689h13.5c0,0,27.9-178.2,25.7-219.5c-1.4-26.1-17.3-39.7-17.3-39.7h-63.3c0,0-15.9,13.6-17.3,39.7
		c-2.2,41.3,25.7,219.5,25.7,219.5h13.6c0,0,4.3-215.2,9.8-212.9C337.2,476.1,349.9,559.7,346.9,689z"/>
	<path class="st14" d="M297.3,343.4c0,0,15.7,47.4,8.2,86.3c0,0.1,34.6,18.4,63,0.1c-10.5-13.6,9.5-83.9,9.5-83.9l1-30.5
		c-6.2-6.2-25.7-5.1-25.7-5.1c-6.4,4.6-14.7,5.7-22.1,2.8c-4-3.2-20.1-3.4-28.7-2.2c-2.4,0.3,1.3,1.9-2.8,3L297.3,343.4z"/>
	<path class="st14" d="M304.4,353.9c0,0,7.9,16.4,26.6,7.4"/>
	<path class="st14" d="M371.9,353.9c0,0-7.9,16.4-26.6,7.4"/>
	<g class="st15">
		<path class="st16" d="M199.3,294.6c0,0-7.3-18.2-13.9-17.9c-5.6,0.3-6.1,12.1-3.1,14.4c3,2.3,8.3,5.8,9.6,9L199.3,294.6z"/>
		<path class="st16" d="M183,277.1c1-1.3,4.1-1.5,5.4,1.5c1.3,3,3.6,16.3-4.3,14.3c-0.9-0.2-2.6-1.8-3.1-2.5
			C178.8,287.6,179.9,281,183,277.1z"/>
		<path class="st16" d="M196.1,288.5c0,0-5.4-13.2-7.9-9.3c-2.5,3.9-2,10.9-0.1,10.5c1.9-0.4,2.5-4.8,2.5-4.8s2.9,5.5,7.1,6.3
			L196.1,288.5z"/>
	</g>
</g>
<g>
	<path class="st11" d="M354.2,294.8c-4.4,4.7-10.1,9.2-16.5,8.7c-4.7-0.4-8.9-3.4-12.1-6.9c-3.3-3.9-6.2-8-8.7-12.5
		c-1.8-2.7-3.2-5.6-4.2-8.7c-1.2-4.5-0.4-9.2,0.3-13.7c1.2-7.5,2.8-15.5,8.2-20.8c3.2-2.8,7-5.1,11-6.6c2.9-1.4,5.9-2.4,9.1-2.9
		c2.7-0.2,5.4,0,8,0.7c7.3,1.8,13.8,6.3,18.1,12.5C378.5,261.2,365.8,282.2,354.2,294.8z"/>
	<path class="st12" d="M314.2,282.6l-3.1-6.3l-3.8-15.1l11.3-19.9l12.1-10.2l16.6-1.3l13.4,4.4l14.3,18.5l-1.6,18.5l-4.5,8.4
		c0,0-22.7-20.3-19-38.5c0,0-17,13.7-34.2,11.5C315.6,252.6,308.6,261.3,314.2,282.6z"/>
	<path class="st11" d="M339.1,262.7c3.4-3.3,8.7-3.8,12.7-1.3"/>
	<path class="st11" d="M326.2,263.3c-2.6-2.1-8.3-1.9-11,0.3"/>
	<path class="st11" d="M336.8,283.2c-1.3-0.4-2.5-1-3.7-1.6c-0.3-0.1-0.6-0.3-0.8-0.5c-0.5-0.6-0.3-1.5,0-2.3l1.3-3.9"/>
	<path class="st17" d="M332.4,286.2c2.2-1,4.8-1.2,7.1-0.6c2.3,0.7,4.6,1.7,6.7,2.9c0.1,0.1,0.3,0.2,0.3,0.3c0,0.1-0.2,0.2-0.4,0.2
		c-2.2,0.5-4.6-0.3-6.8-0.7c-1.8-0.3-3.7-0.3-5.5,0.1c-0.9,0.2-4.4,1.5-4.7,1C328.9,288.9,331.5,286.6,332.4,286.2z"/>
	
		<ellipse transform="matrix(0.9923 -0.1236 0.1236 0.9923 -30.8809 44.7276)" class="st10" cx="344.9" cy="271.2" rx="1.8" ry="2.3"/>
	
		<ellipse transform="matrix(0.9923 -0.1236 0.1236 0.9923 -31.1612 42.1824)" class="st10" cx="324.3" cy="272.1" rx="1.8" ry="2.3"/>
</g>
<path class="st18" d="M378.5,246.7c0,0,4.5-4.3,8.5-1.6c4,2.7,5.5,0.8,5.5,0.8"/>
<path class="st19" d="M378.9,248.5c0,0,5.2,3.6,11.4,0.2c0,0,2.3,1.5,3.9,0.1l-2.8-5.7l-13.1-1L378.9,248.5z"/>
<path class="st6" d="M338.8,269.6c0,0,3.9-4.9,11.3-1.4c0,0,2.5,1.2,3.9-0.4"/>
<path class="st6" d="M328.1,269.9c-1.4-1.6-6.2-3-10.1,0.2c0,0-2.3,1.5-3.9,0.1"/>
<path class="st20" d="M329.1,289.3c0,0,3.9,3.6,8.5,3.1s5.9-3.2,8.5-3.4c0,0-2,6.8-8.5,6.9C331.2,296,329.2,291.1,329.1,289.3z"/>
<g>
	<path class="st12" d="M324.1,280.6c-1.7,0-3.4-0.4-5.1-1.2c-2.3-1.1-4.8-3.4-6.5-6c-1.8-2.8-2.4-5.5-1.6-7.2
		c1.8-3.9,9.8-2.7,14.6-0.5c4.9,2.3,7.4,7.3,5.6,11l0,0c-0.9,1.8-2.6,3.1-4.9,3.6C325.5,280.5,324.8,280.6,324.1,280.6z
		 M316.6,264.4c-2.3,0-4.3,0.6-5,2.1c-0.7,1.5-0.1,3.9,1.5,6.5c1.6,2.5,4,4.7,6.2,5.7c2.2,1,4.6,1.4,6.7,0.9
		c2.1-0.4,3.6-1.6,4.4-3.2l0,0c1.6-3.4-0.7-7.9-5.2-10C322.7,265.3,319.4,264.4,316.6,264.4z"/>
</g>
<g>
	<path class="st12" d="M343.1,279.6c-0.7,0-1.4-0.1-2.1-0.2c-2.3-0.5-4-1.8-4.9-3.6c-0.9-1.8-0.8-4,0.3-6.1c1.1-2.1,2.9-3.8,5.3-4.9
		c2.5-1.2,5.7-2,8.3-2.1c3.3-0.1,5.4,0.8,6.3,2.5c0.8,1.8,0.3,4.4-1.6,7.2c-1.7,2.6-4.2,4.9-6.5,6
		C346.6,279.2,344.8,279.6,343.1,279.6z M350.6,263.4c-0.2,0-0.4,0-0.5,0c-2.5,0.1-5.6,0.9-8,2c-2.2,1-3.9,2.7-4.9,4.6
		c-1,1.9-1.1,3.8-0.3,5.4s2.3,2.8,4.4,3.2c2.1,0.4,4.5,0.1,6.7-0.9c2.2-1,4.6-3.2,6.2-5.7c1.7-2.6,2.2-5,1.5-6.5
		C354.8,263.8,352.3,263.4,350.6,263.4z"/>
</g>
<g>
	<path class="st12" d="M333.4,274.6c-0.1,0-0.2,0-0.2,0c-1.5-0.1-2.4-1.5-2.4-1.6l0.6-0.4c0,0,0.7,1.1,1.8,1.2
		c0.8,0.1,1.6-0.4,2.4-1.3l0.6,0.5C335.3,274.1,334.4,274.6,333.4,274.6z"/>
</g>
<g>
	<polygon class="st12" points="355.9,269.4 356.2,268.5 368,263.7 368.3,264.4 	"/>
</g>
<path class="st11" d="M331.3,313.1c-4.1,8.8-17.6,25.3-17.2,34.8c0.4,9.5-9.7,211.5-9.7,211.5H268l29-144l0.2-60.5
	c0,0-22.6,38.3-33,38.9c-10.3,0.6-18.5-1.4-28.7-58.4l10.9-0.9l15.5,33.4c0,0,24.2-54.4,35.8-57.5s35.1-3.2,35.1-3.2
	S332.9,312.5,331.3,313.1z"/>
<path class="st11" d="M245.4,334.8c0,0-0.6-1.4-1.1-2.9c-0.6-1.8-3.2-9.5-3.2-9.5"/>
<g>
	<g>
		<g>
			<path class="st3" d="M243.1,306.4v-9.7c0-0.4,0.3-0.8,0.8-0.8h1.1c0.6,0,1.1-0.7,1.1-1.5c0-0.8-0.5-1.5-1.1-1.5h-12.2
				c-0.6,0-1.1,0.7-1.1,1.5c0,0.8,0.5,1.5,1.1,1.5h1.4c0.4,0,0.8,0.3,0.8,0.8v9.7C237.7,306.4,240.4,306.3,243.1,306.4z"/>
			<path class="st7" d="M235,306.4v43.3c0,1.7,1.8,3.2,4.1,3.2c2.2,0,4.1-1.4,4.1-3.2v-43.3C240.4,306.3,237.7,306.4,235,306.4z"/>
			<path class="st6" d="M245,293h-12.2c-0.6,0-1.1,0.7-1.1,1.5c0,0.8,0.5,1.5,1.1,1.5h1.4c0.4,0,0.8,0.3,0.8,0.8v9.7v43.3
				c0,1.7,1.8,3.2,4.1,3.2c2.2,0,4.1-1.4,4.1-3.2v-43.3v-9.7c0-0.4,0.3-0.8,0.8-0.8h1.1c0.6,0,1.1-0.7,1.1-1.5
				C246.1,293.6,245.6,293,245,293z"/>
		</g>
		<path class="st21" d="M241.6,348.4c0,0.7-0.6,1.3-1.3,1.3l0,0c-0.7,0-1.3-0.6-1.3-1.3v-50.2c0-0.7,0.6-1.3,1.3-1.3l0,0
			c0.7,0,1.3,0.6,1.3,1.3V348.4z"/>
	</g>
	<g>
		<path class="st11" d="M238.8,285.5c0,1-0.8,1.9-1.9,1.9c-1,0-1.9-0.8-1.9-1.9c0-1,0.8-1.9,1.9-1.9
			C238,283.6,238.8,284.4,238.8,285.5z"/>
		
			<ellipse transform="matrix(2.498823e-02 -0.9997 0.9997 2.498823e-02 -42.0851 513.5302)" class="st22" cx="242.2" cy="278.3" rx="2.7" ry="2.7"/>
		<path class="st11" d="M236.2,272.9c0,1-0.8,1.9-1.9,1.9c-1,0-1.9-0.8-1.9-1.9c0-1,0.8-1.9,1.9-1.9
			C235.3,271,236.2,271.9,236.2,272.9z"/>
	</g>
</g>
<path class="st11" d="M231.7,323.9c14.4,9.2,13.2-5.9,12.9-9.5c-0.3-3.6-11.7-8.9-15.1-1.3c-0.8,1.8-1.2,7.2,0.1,10.3"/>
<line class="st23" x1="235" y1="333.1" x2="229.5" y2="323.4"/>
<path class="st11" d="M379.6,374.4l-2.4,42.2l26,142.9h-39.9c-1.2-51.8-8.4-245.9-9.9-249.1c-1.5-3.1-1.6-4.6-1.6-4.6
	s17.1,1.5,30.7,6.2c12.5,4.3,28.8,12.7,39.3,17.7c3.3,1.6,18.2,7,22,13.3c1.4,2.3,2.6,7.2,0,9.9c-10,10.4-41.3,20.9-81.8,23.1
	l-1.9-12.3l56.7-23.6"/>
<g>
	<g>
		<path class="st3" d="M376.3,379.3c-4.7-1.8-10.1-1.4-14.6,1.4c-0.2,0.1-0.5,0.1-0.7-0.1l-16-14.3c-0.2-0.2-0.3-0.6,0-0.8l0.7-0.8
			c0.5-0.6,0.3-1.5-0.4-2.1c-0.7-0.6-1.7-0.7-2.2-0.1l-8.3,9.2c-0.5,0.6-0.3,1.5,0.4,2.1c0.7,0.6,1.7,0.7,2.2,0.1l1-1.1
			c0.2-0.2,0.6-0.3,0.8,0l15.9,14.2c0.2,0.2,0.3,0.5,0.1,0.7c-2.3,4.7-2.2,10.1,0,14.7c5.2-5.7,25.4-8.2,30.6-13.9
			C385.4,386.1,380.8,380.8,376.3,379.3z"/>
		<path class="st9" d="M385.1,387c3.4,6.1,2.7,13.9-2.2,19.3c-6.2,6.9-16.8,7.5-23.7,1.3c-9.4-9.8-3.7-18.1-4-20.6L385.1,387z"/>
		<path class="st6" d="M376.3,379.3c-4.7-1.8-10.1-1.4-14.6,1.4c-0.2,0.1-0.5,0.1-0.7-0.1l-16-14.3c-0.2-0.2-0.3-0.6,0-0.8l0.7-0.8
			c0.5-0.6,0.3-1.5-0.4-2.1c-0.7-0.6-1.7-0.7-2.2-0.1l-8.3,9.2c-0.5,0.6-0.3,1.5,0.4,2.1c0.7,0.6,1.7,0.7,2.2,0.1l1-1.1
			c0.2-0.2,0.6-0.3,0.8,0l15.9,14.2c0.2,0.2,0.3,0.5,0.1,0.7c-2.3,4.7-2.2,10.1,0,14.7c0.9,1.9,2.2,3.7,3.9,5.2
			c6.9,6.2,17.5,5.6,23.7-1.3c6.2-6.9,5.6-17.5-1.3-23.7C380,381.1,378.2,380.1,376.3,379.3z"/>
	</g>
	<path class="st24" d="M362.1,382.6c4.7-1.2,9.9-0.1,13.8,3.3c6.2,5.5,6.7,15,1.2,21.1c-0.8,0.9-1.8,1.8-2.8,2.4
		c2.8-0.7,5.3-2.2,7.4-4.5c5.5-6.2,5-15.6-1.2-21.1C375.3,379.2,367.7,378.9,362.1,382.6z"/>
</g>
<path class="st11" d="M360.2,363.6c0,0-16.7,4.8-20.1,9.4s-3.7,7.6,1.8,13c5.1,5,10.3-0.4,11.1-2.4c0.9-2,4.4-8.8,8.8-7.9
	L360.2,363.6z"/>
<rect x="225.6" y="468.4" class="st25" width="17.3" height="240.8"/>
<rect x="551.6" y="468.4" class="st25" width="17.3" height="240.8"/>
<rect x="197.2" y="455.7" class="st25" width="401.4" height="24.2"/>
<g>
	<g>
		<path class="st3" d="M351.1,418c0-0.2,0.1-0.4,0.3-0.5c0.3-0.2,0.4-0.4,0.4-0.6c0-0.5-0.5-0.9-1.2-0.9h-35.4
			c-0.7,0-1.2,0.4-1.2,0.9c0,0.2,0.2,0.5,0.4,0.6c0.2,0.1,0.3,0.3,0.3,0.5c0,0.2-0.1,0.4-0.3,0.5c-0.1,0-0.1,0.1-0.1,0.1
			c12.3,0,24.7,0,37-0.1C351.2,418.3,351.1,418.1,351.1,418z"/>
		<path class="st3" d="M350.1,421C350,421,350,421,350.1,421c-11.4,0-22.9-0.1-34.3,0c0,0,0,0,0,0c-1.2,0.8-2,1.7-2.2,2.5
			c-0.1,0.6-0.3,3.3-0.4,6.6c13.1,0,26.3,0.2,39.4-0.2c-0.1-3.1-0.2-5.7-0.4-6.3C352,422.7,351.3,421.9,350.1,421z"/>
		<path class="st3" d="M353,444.4c-0.1-2-0.2-9.1-0.4-14.5c-13.1,0.4-26.3,0.3-39.4,0.2c-0.2,5.3-0.3,12-0.4,13.9
			c-0.1,2.6-0.2,5-0.1,5.5c0.4,4,7,5,9.1,5.2c4.8,0.5,8.4,0.5,10.6,0.5c0.2,0,0.3,0,0.5,0c0.2,0,0.3,0,0.5,0c2.2,0,5.9-0.1,10.6-0.5
			c2-0.2,8.7-1.1,9.1-5.2C353.2,449,353.1,446.9,353,444.4z"/>
	</g>
	<path class="st5" d="M349.4,427.9c-0.2-1-1-2.1-2.4-3.2c-0.1-0.1-0.2-0.2-0.2-0.3c-0.2,0-0.3,0.1-0.5,0.2c-7.6,3.8-1.5,11.1-3,17
		c0,1.7-1.5,3-2.5,4.7c-0.9,2.9,0.7,4.7,3.1,5.3c2.9-0.8,6.3-2.5,6.5-6c0.1-0.7,0-3.4-0.1-6.6C350.2,434.9,349.9,430.1,349.4,427.9z
		"/>
	<path class="st22" d="M350,421c-0.2-0.2-0.3-0.4-0.1-0.6c0.1-0.2,0.4-0.4,0.8-0.4c0.6,0,1.1-0.4,1.1-0.8c0-0.2-0.2-0.5-0.4-0.6
		c0,0,0,0,0,0c-12.3,0.1-24.7,0.1-37,0.1c-0.2,0.2-0.3,0.3-0.3,0.5c0,0.5,0.5,0.8,1.1,0.8c0.4,0,0.7,0.2,0.8,0.4
		c0.1,0.2,0,0.5-0.2,0.6C327.2,420.9,338.6,421,350,421z"/>
	<path class="st6" d="M353,444.4c-0.1-2-0.2-9.1-0.4-14.5c-0.1-3.1-0.2-5.7-0.4-6.3c-0.2-0.8-0.9-1.7-2.2-2.5c0,0,0,0-0.1-0.1
		c-0.2-0.2-0.3-0.4-0.1-0.6c0.1-0.2,0.4-0.4,0.8-0.4c0.6,0,1.1-0.4,1.1-0.8c0-0.2-0.2-0.5-0.4-0.6c0,0,0,0,0,0
		c-0.2-0.1-0.3-0.3-0.3-0.4c0-0.2,0.1-0.4,0.3-0.5c0.3-0.2,0.4-0.4,0.4-0.6c0-0.5-0.5-0.9-1.2-0.9h-35.4c-0.7,0-1.2,0.4-1.2,0.9
		c0,0.2,0.2,0.5,0.4,0.6c0.2,0.1,0.3,0.3,0.3,0.5c0,0.2-0.1,0.4-0.3,0.5c-0.1,0-0.1,0.1-0.1,0.1c-0.2,0.2-0.3,0.3-0.3,0.5
		c0,0.5,0.5,0.8,1.1,0.8c0.4,0,0.7,0.2,0.8,0.4c0.1,0.2,0,0.5-0.2,0.6c0,0,0,0,0,0c-1.2,0.8-2,1.7-2.2,2.5c-0.1,0.6-0.3,3.3-0.4,6.6
		c-0.2,5.3-0.3,12-0.4,13.9c-0.1,2.6-0.2,5-0.1,5.5c0.4,4,7,5,9.1,5.2c4.8,0.5,8.4,0.5,10.6,0.5c0.2,0,0.3,0,0.5,0
		c0.2,0,0.3,0,0.5,0c2.2,0,5.9-0.1,10.6-0.5c2-0.2,8.7-1.1,9.1-5.2C353.2,449,353.1,446.9,353,444.4z"/>
</g>
<circle class="st11" cx="325.1" cy="403" r="3.8"/>
<circle class="st11" cx="332.8" cy="394.1" r="2.4"/>
<circle class="st11" cx="335.3" cy="411" r="2.4"/>
<circle class="st11" cx="337.7" cy="399.2" r="1.7"/>
<rect x="446.5" y="172.3" class="st11" width="150" height="33.2"/>
<text transform="matrix(1 0 0 1 458.0058 193.677)" class="st26 st27">optimal features</text>
<path class="st11" d="M330.8,301.1l-9.4,9.8l-3.2,13.4l11.6-8.3c0,0,2.8-4.3,3.2-5.8s-0.4-8.2-0.4-8.2L330.8,301.1z"/>
<path class="st11" d="M350.4,298.9l12.7,8.3l0.2,16l-9.4-7.2C353.9,316.1,350.6,305,350.4,298.9z"/>
</svg>
