<?xml version="1.0" encoding="utf-8"?>
<!-- Generator: Adobe Illustrator 22.0.1, SVG Export Plug-In . SVG Version: 6.00 Build 0)  -->
<svg version="1.1" id="Layer_1" xmlns="http://www.w3.org/2000/svg" xmlns:xlink="http://www.w3.org/1999/xlink" x="0px" y="0px"
	 viewBox="0 0 1000 1000" style="enable-background:new 0 0 1000 1000;" xml:space="preserve">
<style type="text/css">
	.st0{fill:#FFFFFF;}
	.st1{fill:#E5E5E5;stroke:#000000;stroke-width:0.5;stroke-miterlimit:10;}
	.st2{clip-path:url(#SVGID_2_);}
	.st3{fill:none;stroke:#000000;stroke-width:0.5;stroke-miterlimit:10;}
	.st4{fill:none;stroke:#000000;stroke-miterlimit:10;}
	.st5{opacity:0.7;fill:#BCBCBC;}
	.st6{fill:#FFFFFF;stroke:#000000;stroke-width:0.5;stroke-miterlimit:10;}
	.st7{fill:#1A1A1A;}
	.st8{fill:#BCBCBC;stroke:#000000;stroke-width:0.5;stroke-miterlimit:10;}
	.st9{fill:#0077BF;stroke:#000000;stroke-width:0.5;stroke-miterlimit:10;}
	.st10{display:none;}
	.st11{display:inline;fill:#FFFFFF;stroke:#000000;stroke-width:0.5;stroke-miterlimit:10;}
	.st12{display:inline;fill:#1A1A1A;}
	.st13{display:inline;fill:#1A1A1A;stroke:#000000;stroke-width:0.5;stroke-miterlimit:10;}
	.st14{display:inline;fill:none;stroke:#000000;stroke-width:0.5;stroke-miterlimit:10;}
	.st15{display:inline;fill:none;stroke:#000000;stroke-miterlimit:10;}
	.st16{font-family:'MyriadPro-Regular';}
	.st17{font-size:24.7873px;}
	.st18{fill:#CCCCCC;stroke:#000000;stroke-width:0.5;stroke-miterlimit:10;}
	.st19{stroke:#000000;stroke-width:0.5;stroke-miterlimit:10;}
	.st20{fill:#777777;stroke:#000000;stroke-width:0.5;stroke-miterlimit:10;}
	.st21{fill:#1A1A1A;stroke:#000000;stroke-width:0.5;stroke-miterlimit:10;}
	.st22{fill:#EB058C;stroke:#000000;stroke-width:0.5;stroke-miterlimit:10;}
	.st23{fill:#A3A3A3;stroke:#000000;stroke-width:0.5;stroke-miterlimit:10;}
</style>
<g id="Layer_7_1_">
	<path class="st0" d="M224.1,420.7c0,0-126.9-122.8,47.7-256.9c0,0,188.7-178.2,425.1-10.5c0,0,112.8,67.3,159.1,255
		c0,0,20.8,161.1-73.3,280.1c0,0-108.4,122.7-279.7,190.4c-75.8,30-158.3,33.7-231.1,8.2c-56.8-19.8-110.2-57.6-110.1-129.5
		c0,0,10-45,70.3-97.7C232.1,659.7,381.9,575.4,224.1,420.7z"/>
</g>
<path class="st1" d="M243.5,295.1c-551.9,234,235.2,522.5,235.2,522.5l486.8-238.1c0,0-519-80.6-552.2-209.6
	c-23.4-90.7,222.5-118.2,222.5-118.2S399.2,229,243.5,295.1z"/>
<g>
	<defs>
		<path id="SVGID_1_" d="M243.5,295.1c-551.9,234,235.2,522.5,235.2,522.5l486.8-238.1c0,0-519-80.6-552.2-209.6
			c-23.4-90.7,222.5-118.2,222.5-118.2S399.2,229,243.5,295.1z"/>
	</defs>
	<clipPath id="SVGID_2_">
		<use xlink:href="#SVGID_1_"  style="overflow:visible;"/>
	</clipPath>
	<g class="st2">
		<path class="st0" d="M641,760.7c-1.1-0.3-111.5-28.6-229.8-73.6c-69.5-26.4-128.2-53.4-174.3-80.1c-58-33.6-96.4-66.9-114.1-99.2
			c-12.2-22.2-14.8-44.1-7.9-65.3c12.5-38.1,47.8-72,105.1-100.7c45.4-22.8,104.7-42.5,176.2-58.5c121.6-27.3,238.2-34.6,239.3-34.7
			l0.7,6.2c-0.9,0.2-90,16-178.4,47.1c-51.8,18.2-93.2,38-123.1,58.8c-36.8,25.6-56,52.7-56.9,80.6C276,493.9,383,545.6,587.3,590.7
			c155.5,34.3,313.5,52.7,315.1,52.9l-0.7,6.2c-1.6-0.2-160-18.6-315.7-53c-91.6-20.2-164.4-42-216.4-64.6
			c-31.1-13.5-55-27.6-71.2-41.7c-18.3-16-27.3-32.6-26.7-49.4c1.1-29.9,21.1-58.7,59.6-85.5c30.4-21.1,72.3-41.2,124.7-59.6
			c46.7-16.4,93.6-28.6,127.7-36.5c-45.4,4.8-114.9,13.9-186,29.9c-71,15.9-129.8,35.5-174.7,58c-55.7,28-90,60.6-101.9,97.1
			c-6.4,19.5-3.9,39.8,7.4,60.4c17.2,31.3,54.8,63.8,111.8,96.8c45.8,26.5,104.2,53.3,173.4,79.7c118,44.8,228,73.1,229.1,73.3
			L641,760.7z"/>
	</g>
</g>
<path class="st3" d="M243.5,295.1c-551.9,234,235.2,522.5,235.2,522.5l486.8-238.1c0,0-519-80.6-552.2-209.6
	c-23.4-90.7,222.5-118.2,222.5-118.2S399.2,229,243.5,295.1z"/>
<g>
	<line class="st4" x1="461.7" y1="494.9" x2="347.2" y2="450.7"/>
	<line class="st4" x1="419.2" y1="506.8" x2="287.2" y2="456"/>
	<line class="st4" x1="445.9" y1="463.4" x2="313.9" y2="412.6"/>
	<line class="st4" x1="598.4" y1="357.4" x2="478.1" y2="310.7"/>
	<line class="st4" x1="591.9" y1="383" x2="484.8" y2="341.4"/>
	<line class="st4" x1="646.4" y1="357.7" x2="526.1" y2="311"/>
</g>
<ellipse transform="matrix(0.331 -0.9436 0.9436 0.331 -326.8319 920.5529)" class="st5" cx="485.8" cy="690.8" rx="15.7" ry="144"/>
<ellipse transform="matrix(0.331 -0.9436 0.9436 0.331 -188.17 998.6317)" class="st5" cx="610.2" cy="632" rx="15.7" ry="144"/>
<path class="st5" d="M522.2,267.7c2.4,5.3-39,12.1-85.2,39.1c-47.4,27.6-64.3,53.5-66.8,48.2s17.2-40.6,65.9-62.7
	S519.8,262.4,522.2,267.7z"/>
<path class="st5" d="M467,258.7c1.8,5.6-36.1,12.3-85.2,33.6c-50.3,21.8-74.3,40.6-76.1,35c-1.8-5.6,26.5-33.3,77.4-49.5
	C434.1,261.6,465.3,253.1,467,258.7z"/>
<g>
	<path class="st6" d="M704,349.8l9.3-10.6c0,0,6.9,8.8,10.3,8.7l-6.1,17.2C717.5,365.2,703.5,356.1,704,349.8z"/>
	<path class="st7" d="M699.5,654.1c0,0-2.7,6.2-3.9,8.7c-1.3,2.6,10.1,11.8,34.1,11c29-0.9-15.1-11.7-18.3-14.9s-0.1-7.6-0.1-7.6
		l-9.3-0.2L699.5,654.1z"/>
	<path class="st6" d="M710.6,463.3l30,88.9c1,3,1,6.2,0.1,9.2l-30.1,93l-11-0.4l18-92.8l-36.6-70.5L710.6,463.3z"/>
	<path class="st6" d="M710.6,458.9c0,0-15.2,16-17.6,34.9c-1.9,14.8-13.3,60.6-18.5,81.3c-1.4,5.6-7.3,8.8-12.7,6.9l-94.1-32.6
		l2.1-11.6l85.9,17.2l-2.2-106.9L710.6,458.9z"/>
	<path class="st7" d="M567.4,536.1c0,0-7.5-4.2-10.1-5.4s-9.7,12.3-8.9,36.1c1,29,10.6-13.1,13.4-16.7c1.9-2.4,8.5,0.3,8.5,0.3
		l1.6-12.2L567.4,536.1z"/>
	<path class="st6" d="M671.8,391.5l-14.4,72.4l57.4,11.2l8.8-73.2l11.7,28.6c0,0,0,0,0,0c0.6,1.9,2.3,3.3,4.2,3.9l45,12.8l4.2-9.6
		L750,423.3c-0.6-0.9-1-1.9-1.3-3L735,375.5L723.6,353l-6.9,4.3l-13.8-13.8l-34.1,12.1L671.8,391.5z"/>
	<polygon class="st8" points="708.8,459.4 749.4,542.9 700.5,554.4 678.9,481.1 680.6,450.7 	"/>
	<polygon class="st8" points="697.6,452.5 695,556.8 645.9,547.6 653.4,452.5 	"/>
	<path class="st9" d="M669.3,385.2l-24.3,86l75.2,10.2l7.5-82.2l-2.3,25.5l22-21.7l-9.6-27.3l-6.9-11.1l-7.3-11.6l-6.9,4.3
		l-13.8-13.8l-8.8,3.1l-22.4,5.5c0,0-22.2,16.3-32.7,24.2l16.6,23.2L669.3,385.2z"/>
	<path class="st6" d="M665,437.7c0,0,8.7,13.3,13.1,9.2c17.2-15.9-3.2-9.2,2.7-11.2c5.6-1.8-1.3-2.1-11.4-5.1L665,437.7z"/>
	<g class="st10">
		<path class="st11" d="M747.3,306.7c3,2,3.7,9.9,2,14.4c-1.7,4.5-5.2,11.8-3.8,13.2c0.5,0.5,1.8,1.5,1.9,2c0.2,0.9-2.1,2-3.6,2
			c-2.3,0.2-8.6,15.3-20.3,11.4c-11.6-3.9-17.9-15.1-15.4-25.3C710.7,314.3,719.4,288,747.3,306.7z"/>
		<path class="st12" d="M722.2,290.5c0,0,7.3-6,15.9-1.2s17.6,18.7,21.4,17.6c3.8-1,3.4,8.9-0.9,10.1c-4.3,1.2-8.6,1.8-8.6,1.8
			s-2.4-7.3-7.9-8.7s-11.4-3.3-12.3-6c0,0-1.5,13.2-8.7,13.5c-1.8,0.1-2.8-3.3-3.8-2.9c-2.9,1.2-2.9,7.3-2.4,10.5
			c0,0-7.7,2.4-7.1,5.5c0.5,3.1-6.2-2.7-5.7-13.2C702.6,307.1,710.7,288.1,722.2,290.5z"/>
		<ellipse transform="matrix(0.4492 -0.8934 0.8934 0.4492 116.6813 841.2293)" class="st13" cx="740.6" cy="326" rx="2" ry="1.6"/>
		<path class="st14" d="M734.2,336.8c0,0,0.5,5.4,3.7,5.3"/>
		<path class="st14" d="M732.6,335.9c0,0,0.4-0.7,1.5-0.9"/>
		<path class="st15" d="M737.1,320c0,0,5-0.8,8.1,1.2"/>
		<path class="st14" d="M737.1,324.6c0,0,2.7-1.6,5.6,0"/>
	</g>
	<path class="st6" d="M642.7,381.5c-0.1-0.1-11.7,10.9-20.1,18.7c-4.1,3.9-3.3,10.7,1.6,13.5l40.5,24l4.6-7.2l-27.5-25.1l10.9-9.9
		L642.7,381.5z"/>
	<path class="st6" d="M788.7,437.6c0,0,11.1-1.4,9.6,1c-1.5,2.4-1.2,1.6-1.2,1.6s0.9-0.3,2.4-0.1c0.5,0.1,1.2-0.3,1.8,0.1
		c2.2,1.5,0.9,6.5-2.7,10.4c-4.1,4.4-13.1-5.5-13.1-5.5L788.7,437.6z"/>
	<path class="st6" d="M801.3,440.3c0,0-6.5-2.4-9,3.2c-2.5,5.6,2.7,8.3,2.7,8.3"/>
	<text transform="matrix(0.9858 0.1681 -0.1681 0.9858 674.3929 405.2623)" class="st0 st16 st17">TIME</text>
	<g>
		<path class="st18" d="M742.4,293c0,0-4.3-2.9-13.9-2.5c-11.3,0.5-18.9,8.5-23.4,20.2c-2,5.1-4.8,22,2.6,29.8
			c2.7,2.8,9,5.5,14.2,6.7L742.4,293z"/>
		
			<ellipse transform="matrix(0.3547 -0.935 0.935 0.3547 173.1043 891.1329)" class="st6" cx="732.1" cy="320.2" rx="29" ry="17.8"/>
		
			<ellipse transform="matrix(0.3547 -0.935 0.935 0.3547 173.6898 891.9813)" class="st6" cx="733" cy="320.2" rx="25.4" ry="15.5"/>
		
			<rect x="732.5" y="313.4" transform="matrix(0.8302 0.5575 -0.5575 0.8302 307.6107 -352.9115)" class="st19" width="1.1" height="30"/>
		
			<rect x="735" y="305.5" transform="matrix(0.9306 -0.3659 0.3659 0.9306 -64.761 291.1272)" class="st19" width="1.1" height="21.8"/>
		<ellipse transform="matrix(0.3547 -0.935 0.935 0.3547 175.9122 896.9316)" class="st20" cx="737.7" cy="321" rx="3.4" ry="2.1"/>
	</g>
</g>
<g>
	<g id="Layer_6">
		<g id="Layer_2_1_">
			<path class="st21" d="M502.5,428.7c0,0,2.5,8.5,18.8-0.1c0,0,12.7-6.6,22.4-16c0,0,12.3-11,28.1-12.2c0,0,12.4-2.5,24.9,7.7
				c0,0,11.6,9,9.5,23.1c0,0-0.7,17.8-20,28.5c0,0-6.5,3.4-10.2,8.2l-36.1-0.4L506.8,447l-1.4-4.4
				C505.4,442.6,500,438.7,502.5,428.7z"/>
			<path class="st6" d="M557.1,455.9c-0.2,0.1-0.4,0.3-0.5,0.6c-0.1,0.2,0,0.5,0,0.7c0.8,3,1.8,5.8,3.2,8.6c0.8,1.6,1.9,3.4,3.7,3.7
				c1.1,0.1,2.3-0.2,3.3-0.7l4.6-1.9c-0.8-1.6,0.1-3.4,1.1-4.8c1.3-1.9,2.7-3.7,4.2-5.5c-1.9-4.3-4.9-8-8.7-10.7
				c-1.3-0.9-2.1-1.1-3,0.3c-0.7,1.2-1.4,2.5-2.2,3.7C561.2,452.2,559.3,454.2,557.1,455.9z"/>
			<path class="st6" d="M568.7,452.6c3.2,3.8,7.5,7.3,12.5,7.1c3.7-0.2,6.9-2.4,9.5-5c2.6-2.9,5-6.1,7-9.4c1.5-2,2.6-4.2,3.4-6.6
				c1-3.4,0.6-7.1,0.1-10.6c-0.8-5.8-1.8-12-5.8-16.3c-2.3-2.4-5.3-3.9-8.3-5.3c-2.2-1.2-4.5-2-6.9-2.5c-2.1-0.3-4.1-0.1-6.1,0.4
				c-5.7,1.2-10.8,4.5-14.3,9.2C550.8,426.1,560,442.5,568.7,452.6z"/>
			<path class="st7" d="M557.7,440.5c0,0,19.8-14.7,17.5-28.8c0,0,4.7,5.6,10.2,6.6c0,0,13.6,3.1,13.8,15.2c0,0-0.8,7,0.8,10.7
				l2.6-4.8l0.9-11.5l-5.9-15.6l-9.1-8.1l-12.8-1.4l-10.4,3.1l-11.5,13.9l0.7,14.3L557.7,440.5z"/>
			<path class="st6" d="M572.5,429.6c0.6,0.3,1.2,0.3,1.8-0.1c0.5-0.3,1-0.7,1.5-1c0.4-0.3,0.8-0.5,1.2-0.7c0.4-0.2,0.8-0.3,1.3-0.4
				c1.2-0.1,2.3,0.4,3.1,1.3c0.8,0.9,1.4,1.9,1.8,3"/>
			<path class="st6" d="M589.3,430.8l1.1-0.8c0.9-0.7,2-1.4,3.1-1.3c0.9,0.2,1.8,0.6,2.6,1.2c0.8,0.5,1.9,0.8,2.7,0.3"/>
			<path class="st6" d="M583,425.7c-2.6-2.6-6.6-3.2-9.8-1.3"/>
			<path class="st6" d="M589,425.5c2-1.5,4.7-1.9,7.1-1.1"/>
			<path class="st6" d="M584.9,442.3c1-0.3,1.9-0.7,2.9-1.1c0.2-0.1,0.4-0.2,0.6-0.4c0.4-0.5,0.2-1.2,0.1-1.7l-1-3.1"/>
			<path class="st6" d="M581,451.2c0.7,0.3,1.3,0.6,1.9,1c0.2,0.2,0.4,0.3,0.6,0.5c0.8,0.5,1.9-0.1,2.5-0.9c0.4-0.9,0.8-1.8,1.1-2.7
				c0.4-0.7,0.9-1.4,1.2-2.1c0.1-0.2,0.1-0.4,0.1-0.7c-0.1-0.4-0.6-0.6-1.1-0.6c-3-0.4-6.1,0.5-9,1.4c-0.1,0-0.2,0.1-0.3,0.2
				c-0.4,0.4,0.4,1.8,0.8,2.2C579.3,450.2,580.1,450.8,581,451.2z"/>
			<path class="st22" d="M585.3,453.6c-0.9,0.3-1.9,0.3-2.8-0.1c-0.9-0.4-1.7-1-2.4-1.7c-0.6-0.5-1.1-1.1-1.6-1.6
				c-0.4-0.4-0.8-0.9-1-1.4c-0.3-0.5-0.3-1.1-0.2-1.7c0.8,1,1.7,1.8,2.7,2.5c1.3,1,2.9,1.6,4.5,1.7c0.6,0,1.5-0.3,1.8,0.3
				C586.8,452.4,586,453.4,585.3,453.6z"/>
			<path class="st22" d="M589,445.3c-1.8-0.9-3.9-1.1-5.9-0.6c-2,0.5-3.9,1.3-5.6,2.2c-0.1,0.1-0.2,0.1-0.2,0.3
				c0,0.1,0.2,0.2,0.3,0.2c1.9,0.5,3.8-0.2,5.7-0.4c1.5-0.2,3.1-0.2,4.6,0.2C589,447.5,590.7,446.3,589,445.3z"/>
			
				<ellipse transform="matrix(0.9742 -0.2259 0.2259 0.9742 -81.9912 141.7714)" class="st21" cx="578.6" cy="429.2" rx="1.4" ry="1.8"/>
			
				<ellipse transform="matrix(0.9742 -0.2259 0.2259 0.9742 -81.8697 145.2141)" class="st21" cx="593.7" cy="430.4" rx="1.4" ry="1.8"/>
			<path class="st21" d="M506.8,447c0,0,9.3,19.5,24.1,23.9l43.8,4.2l1.2-7.1"/>
		</g>
		<path class="st6" d="M588.3,604.8l2.1,3.5c0,0,14.2,12.8,9.7,27.9l-24,74.1l-8.9-4.8l11.2-65.9c0,0,0.3-29.9-16.4-35.2
			C562,604.4,581.2,602,588.3,604.8z"/>
		<path class="st6" d="M513.1,613.4c0,0-11,33.6-22.4,39.8c0,0-7,3.1-18.2-3.6l-51.9-33l6-7.9l44.9,18c0,0,7.4,3.6,12.9-5
			c0,0,9.8-21.1,8.5-22.8L513.1,613.4z"/>
		<path class="st7" d="M560.6,725l3.7,0.7l3.4-11.8l8.6,14.4l25,7.1c0,0,1.2-3.6-3.6-6.6c0,0-16.6-6.6-19-21.1c0,0-9.5-2.5-11.9-6.4
			c0,0-3.4,5.2-2.4,10C564.3,711.3,565.3,713.5,560.6,725z"/>
		<path class="st7" d="M409.3,602.7l11.3,6.1l-15.9,5.5l-10.9,23.9c0,0,4.4,2.1,7.7-2.9c0,0,7.7-13.9,23.9-14.4l8.4-10.8
			c0,0-4.9-4.3-8.9-4.8c-4.9-1.1-9.7-2.9-14-5.4L409.3,602.7z"/>
		<path class="st18" d="M574.7,475.1l3.1,40.9l32.2-7.6l1.8,11.2l-36.4,12.9c-2.8,1-5.8-0.5-6.7-3.3l-15.8-49.4L574.7,475.1z"/>
		<path class="st8" d="M557.8,541.1c0,0,39.3,69.1,42.6,81.8c1.6,6.1-0.2,13.6-1.2,16c-2.2,5.4-8.2,0.5-20.8-2.3
			c0,0-10.3-19.9-22.1-34.7c-17.5-21.7-24.9-40.7-28.7-49.9C523.9,542.8,552.3,530.9,557.8,541.1z"/>
		<path class="st22" d="M514.5,532.5c0,0,9.1-20.7,8.4-53c0,0,6.3-13.5,9.1-21.5c4.8-0.8,12.1-1.5,18.3,0.1
			c12.4,3.4,23.5,11.2,24.5,8.9c0,0-2.2,3.6-0.3,4.4c0,0,3.4,7.3,3.8,22.5c0,0,0.8,15-10.5,17.4c0,0-12.7,22-9.9,29.5
			C531.6,544.1,514.5,532.5,514.5,532.5z"/>
		<path class="st18" d="M523.1,487.8c-10.8,8.9-12.5,12.3-19.4,18.3l35.4,12.2c-4.3,1.4-6.8,9.5-6.8,9.5l-45.6-14
			c-3.6-1.2-5.1-5.4-3.2-8.7c6.3-10.6,21.6-25.3,21.6-25.3c20.4-23.2,30.5-22.5,30.5-22.5S541.9,469,523.1,487.8z"/>
		<path class="st6" d="M550.2,458.2c2.2-0.7,4.1-2.3,5.1-4.4c0,0,8.9,11.6,17.5,10.2c1.8,1.7,1.3,4.5,2.1,6.2c0.3,0.5,0,1.3-0.6,1.3
			C557.8,472.3,550.2,458.2,550.2,458.2z"/>
	</g>
	<path class="st6" d="M538,519.1c0,0,9.3-0.5,8.6,1.5c-0.7,2-4.4,1-2.7,1.1c1.6,0.1,2.9-0.8,4.3,1.1c1.1,1.5-4.2,6.9-6.3,8.1
		c-2.3,1.3-4.8-2.1-9.1-4C532.9,526.8,534.9,521,538,519.1z"/>
	<path class="st6" d="M610.2,510.3c0,0,5.4-3.5,7.2-4c3-0.9,0.8,1.4-0.1,2.6c-0.9,1.1,0.7-1.3,3.7-0.9s2.3,7-0.6,9.4
		c-1.6,1.4-4,1-9,0.8L610.2,510.3z"/>
	<path class="st6" d="M617.3,508.8c0,0-6.9,7.2,1.1,9.4"/>
	<path class="st8" d="M514.5,532.5c0,0-14.1,11.8-17.8,32.7c-3.7,21-9.4,54-15.2,59.7c0,0-5,26.2,1.2,28.7s10.1,1.7,20.1-15.9
		c10-17.5,45.6-96.1,45.6-96.1S527.8,539.2,514.5,532.5z"/>
</g>
<g id="Layer_3_3_">
	<path class="st6" d="M404.2,215.8l-1.1-3.3c0-0.1,0-0.1-0.1-0.2c-0.1,0-0.2,0-0.3,0c-0.5,0.2-1.1,0.5-1.6,0.3
		c-0.6-0.3-0.6-1.1-1.1-1.5c-0.8-0.7,0.6-0.6,0.5-0.8c-0.1-0.2-0.4-0.3-0.6-0.4c-0.3,0-0.7,0-0.8-0.2c-0.2-0.2,0-0.6-0.3-0.8
		c-0.3-0.3-0.8,0-1.1-0.3c-0.1-0.1-0.1-0.3-0.1-0.4c0-0.5,0.2-0.9,0.4-1.4c0.1-0.2,0.2-0.4,0.2-0.6c0-0.3-0.3-0.5-0.5-0.7
		c-0.4-0.5-0.3-1.3-0.3-1.9c0-0.9,0-1.8-0.1-2.6c-0.1-0.6,0.4-1.3,0.9-1.7c1.2-1,2.9-1.2,4.4-0.9c1.5,0.3,2.9,1.1,4.1,2
		c0.5,0.3,0.9,0.7,1.3,1.2c0.7,0.8,1,1.9,1.1,3c0.1,1.1,0.1,2.1,0,3.2c0,0.7,0,1.5,0.4,2.1c0.1,0.1,0.1,0.2,0.2,0.3
		c0,0.1,0,0.2-0.1,0.3c-0.2,0.4-0.4,0.7-0.7,1C407.6,213.4,406.1,215.1,404.2,215.8z"/>
	<path class="st6" d="M405.8,285.8c0,0-1.1,3.5-1.3,4.2l-5.1-1.6c0,0,1.2-2,1.6-3.6C400.9,284.9,405.5,284.9,405.8,285.8z"/>
	<path class="st7" d="M404.4,292.8l0,0.5l-4,0.4l-0.2-0.4c0,0-7.6,1.6-9.1,0.2c0,0-0.6-0.5,1.3-1.2c0,0,6.1-2.9,7.7-5.4
		c0,0,0.9,2.5,4.7,1.9C404.8,288.8,405.3,291.3,404.4,292.8z"/>
	<path class="st6" d="M459,251.4l2.4-1.2c0,0,2.8,3.4,2.5,4.6l-3.7,1.3L459,251.4z"/>
	<path class="st7" d="M462.8,247.9l0.6-0.6l3.2,1.6l-0.2,0.4c0,0,0.7,1,3.7,2c0,0,6.1,2.3,4.2,3.8c0,0-0.6,0.2-2.2-0.2
		c0,0-2.7-1.2-8.1,0l-0.4,0.1c0,0-0.6-3.1-2.7-4.5C460.8,250.5,461.4,248,462.8,247.9z"/>
	<path class="st7" d="M395.6,200.2c0.1,0.5,0.3,0.9,0.7,1.2c0.4,0.3,1,0.3,1.4,0.1c0.3-0.2,0.5-0.5,0.8-0.8c0.3-0.3,0.7-0.5,1-0.3
		c0.3,0.1,0.4,0.4,0.4,0.7c0,0.3,0,0.6,0,0.9c0,0.7,0.3,1.4,1,1.7c0.2,0.1,0.3,0.1,0.5,0.2c0.4,0.2,0.6,0.6,0.7,1
		c0,0.2,0,0.3,0.1,0.5c0.1,0.2,0.2,0.3,0.4,0.3c0.2,0,0.3-0.2,0.4-0.4c0.1-0.3,0.1-0.6,0.1-0.8c-0.1-0.8,0.7-1.5,1.4-1.8
		c0.3-0.2,0.7-0.2,1-0.1c0.4,0.1,0.7,0.5,0.9,0.9c0.7,1.4,1.1,2.9,1.2,4.4c0.6-0.1,1.1-0.2,1.7-0.2c0.6-1.3,0.8-2.9,0.7-4.4
		c-0.1-1.5-0.5-2.9-1.1-4.2c-0.2-0.5-0.5-1-0.8-1.4c-0.3-0.4-0.6-0.7-1-1c-0.5-0.4-1.1-0.8-1.7-1c-1.7-0.7-3.6-0.4-5.4,0
		c-1.1,0.3-2.3,0.6-3.2,1.4C395.9,197.9,395.5,199,395.6,200.2z"/>
	<path class="st3" d="M399.1,204.6c-0.2-0.1-0.5-0.1-0.7-0.1c-0.3,0.1-0.6,0.3-0.8,0.5c-0.1,0.1-0.1,0.1-0.2,0.2"/>
	<ellipse transform="matrix(0.986 -0.1667 0.1667 0.986 -28.7435 69.3016)" class="st7" cx="398.5" cy="205.9" rx="0.3" ry="0.6"/>
	<path class="st3" d="M399.1,205.2c-0.4,0-0.8,0.2-1.1,0.4l0,0.1"/>
	<path class="st3" d="M406.1,202.9c0.3,0.6,0.5,1.4,0.4,2.1c0,0.2-0.1,0.5-0.1,0.7c-0.1,0.2-0.2,0.4-0.3,0.6
		c-0.2,0.1-0.4,0.2-0.6,0.2c-0.2,0-0.4-0.2-0.4-0.5"/>
	<polygon class="st6" points="410,209.7 409.1,209.1 403.4,215.6 404.9,217.5 410.3,210.1 	"/>
	<path class="st6" d="M387.6,225.5c-0.2-0.4-0.4-0.9-0.9-0.9c-0.2,0-0.4,0.1-0.5,0.1c-0.3,0-0.6-0.2-0.9-0.2c-0.3,0-0.5,0.2-0.8,0.3
		c-0.3,0-0.6-0.1-0.8,0c-0.2,0.2-0.3,0.4-0.3,0.7c0,0.3,0,0.5-0.1,0.8c-0.1,0.2-0.3,0.4-0.4,0.6c-0.1,0.3,0.1,0.6,0,0.9
		c0,0.1-0.1,0.2-0.1,0.4c-0.1,0.4-0.1,0.8-0.1,1.2c0,0.1,0,0.3,0.1,0.4c0.1,0.3,0.4,0.5,0.7,0.6c0.7,0.2,1.5,0.1,2.2,0.1
		c0.5,0,0.9,0,1.4,0.1c0.6,0.1,1.2,0.3,1.8,0.3c0.1,0,0.2,0,0.2-0.1c0-0.1,0.1-0.1,0.1-0.2c0.1-0.5,0.2-0.9,0.3-1.4
		c0-0.3,0.3-0.8,0.2-1c0-0.2-0.6-0.5-0.8-0.7C388.3,226.8,387.9,226.2,387.6,225.5z"/>
	<polygon class="st18" points="389.7,227.4 388.6,227.1 387.3,230.5 388.3,230.8 390.1,231 	"/>
	<path class="st18" d="M425.1,246.6l-10.6,14.2c0,0-1.8,2-2.3,3.8l-6.1,22.1c0,0-4.1,0.2-5.9-1.1c0,0,2-16.2,2.5-17.9
		c0,0,1-7.8,2.8-10.7c0,0,6.5-13.4,9.4-16C414.7,241,423.8,244.3,425.1,246.6z"/>
	<path class="st6" d="M418,237l-4.7,3.9c0,0-7.8-9.8-8-12.5C405.2,228.4,416.6,233.9,418,237z"/>
	<polygon class="st9" points="414.2,243.1 412.3,240.9 412.7,240.6 414.6,242.8 	"/>
	<path class="st18" d="M426.6,237.5c0,0,3.7,2.2,3.8,7.9l5.6,9.9c0,0,1.5,2.5,3.5,1.5l19.5-5.9c0,0,1.9,4,1.8,5.6l-17.9,7
		c0,0-7,3.2-11.4-0.2c0,0-6.5-5.3-10.6-11.3l-7.4-10.6l8.7-4.7C422.2,236.6,425.6,236.2,426.6,237.5z"/>
	<polygon class="st7" points="419.2,238.4 414.3,242.8 412.6,240.8 418.4,236.2 	"/>
	<path class="st6" d="M431.6,222.5c0.3,0.4,0.5,0.7,0.7,1.2c0.1,0.3,0.2,0.6,0.3,0.9l0.7,2.8c0,0.2,0.1,0.4,0.2,0.6
		c0.2,0.2,0.4,0.4,0.6,0.5c0.4,0.3,0.8,0.6,1.1,1c0.3,0.4,0.6,0.8,1,1c0.5,0.1,1-0.1,1.2-0.5c0.1-0.2,0.1-0.3,0.2-0.5
		c0.1-0.1,0.3-0.2,0.4-0.3c0.2-0.2,0.1-0.6,0.3-0.9c0.1-0.2,0.4-0.4,0.4-0.6c0-0.1-0.1-0.3,0-0.4c0.1-0.1,0.1-0.1,0.2-0.1
		c0.2-0.2,0.3-0.5,0.1-0.8c0,0,0,0,0,0c-0.5-0.6-0.8-1.3-1.4-1.8c-1.1-1.1-2.1-2.2-3.2-3.2c-0.1-0.1-0.1-0.1-0.2-0.2
		c-0.1,0-0.2,0-0.2,0C433,221.3,432.2,221.8,431.6,222.5z"/>
	<path class="st18" d="M434.8,220.8l0.5,0.9l-3.3,1.9l-0.7-1.1C431.3,222.6,433.2,219.9,434.8,220.8z"/>
	<path class="st23" d="M431.5,223.4l-6.1-7.9l-8.3,3.3l-4.2-6.5l11-2.9c0,0,2.6-1.2,4.2,0.9l7,10.5L431.5,223.4z"/>
	<path class="st23" d="M398.9,228.2c0,0-0.1,0.6-1,0.4l-8.6-1.6l-1.4,3.9l9.9,3.1c0,0,3.4,1.6,5.4-1.3l2.5-3.5l12.3,9
		c0,0,5.8,4.4,9.1,0.1c3.4-4.3,4.6-5.5,4.6-5.5s0.7-1-1.1-1.6c0,0-8.8-4.9-10.5-7.6c0,0-5.6-12.4-10.1-14
		C410,209.7,401.3,221.2,398.9,228.2z"/>
</g>
<g id="Layer_3_4_">
	<path class="st6" d="M450.1,220.7l-1.1-3.3c0-0.1,0-0.1-0.1-0.2c-0.1,0-0.2,0-0.3,0c-0.5,0.2-1.1,0.5-1.6,0.3
		c-0.6-0.3-0.6-1.1-1.1-1.5c-0.8-0.7,0.6-0.6,0.5-0.8c-0.1-0.2-0.4-0.3-0.6-0.4c-0.3,0-0.7,0-0.8-0.2c-0.2-0.2,0-0.6-0.3-0.8
		c-0.3-0.3-0.8,0-1.1-0.3c-0.1-0.1-0.1-0.3-0.1-0.4c0-0.5,0.2-0.9,0.4-1.4c0.1-0.2,0.2-0.4,0.2-0.6c0-0.3-0.3-0.5-0.5-0.7
		c-0.4-0.5-0.3-1.3-0.3-1.9c0-0.9,0-1.8-0.1-2.6c-0.1-0.6,0.4-1.3,0.9-1.7c1.2-1,2.9-1.2,4.4-0.9s2.9,1.1,4.1,2
		c0.5,0.3,0.9,0.7,1.3,1.2c0.7,0.8,1,1.9,1.1,3c0.1,1.1,0.1,2.1,0,3.2c0,0.7,0,1.5,0.4,2.1c0.1,0.1,0.1,0.2,0.2,0.3
		c0,0.1,0,0.2-0.1,0.3c-0.2,0.4-0.4,0.7-0.7,1C453.6,218.2,452,219.9,450.1,220.7z"/>
	<path class="st6" d="M451.7,290.6c0,0-1.1,3.5-1.3,4.2l-5.1-1.6c0,0,1.2-2,1.6-3.6C446.9,289.7,451.5,289.8,451.7,290.6z"/>
	<path class="st7" d="M450.4,297.6l0,0.5l-4,0.4l-0.2-0.4c0,0-7.6,1.6-9.1,0.2c0,0-0.6-0.5,1.3-1.2c0,0,6.1-2.9,7.7-5.4
		c0,0,0.9,2.5,4.7,1.9C450.8,293.6,451.2,296.1,450.4,297.6z"/>
	<path class="st6" d="M505,256.2l2.4-1.2c0,0,2.8,3.4,2.5,4.6l-3.7,1.3L505,256.2z"/>
	<path class="st7" d="M508.8,252.7l0.6-0.6l3.2,1.6l-0.2,0.4c0,0,0.7,1,3.7,2c0,0,6.1,2.3,4.2,3.8c0,0-0.6,0.2-2.2-0.2
		c0,0-2.7-1.2-8.1,0l-0.4,0.1c0,0-0.6-3.1-2.7-4.5C506.8,255.3,507.3,252.9,508.8,252.7z"/>
	<path class="st7" d="M441.6,205c0.1,0.5,0.3,0.9,0.7,1.2c0.4,0.3,1,0.3,1.4,0.1c0.3-0.2,0.5-0.5,0.8-0.8s0.7-0.5,1-0.3
		c0.3,0.1,0.4,0.4,0.4,0.7c0,0.3,0,0.6,0,0.9c0,0.7,0.3,1.4,1,1.7c0.2,0.1,0.3,0.1,0.5,0.2c0.4,0.2,0.6,0.6,0.7,1
		c0,0.2,0,0.3,0.1,0.5c0.1,0.2,0.2,0.3,0.4,0.3c0.2,0,0.3-0.2,0.4-0.4c0.1-0.3,0.1-0.6,0.1-0.8c-0.1-0.8,0.7-1.5,1.4-1.8
		c0.3-0.2,0.7-0.2,1-0.1c0.4,0.1,0.7,0.5,0.9,0.9c0.7,1.4,1.1,2.9,1.2,4.4c0.6-0.1,1.1-0.2,1.7-0.2c0.6-1.3,0.8-2.9,0.7-4.4
		c-0.1-1.5-0.5-2.9-1.1-4.2c-0.2-0.5-0.5-1-0.8-1.4c-0.3-0.4-0.6-0.7-1-1c-0.5-0.4-1.1-0.8-1.7-1c-1.7-0.7-3.6-0.4-5.4,0
		c-1.1,0.3-2.3,0.6-3.2,1.4C441.9,202.7,441.4,203.8,441.6,205z"/>
	<path class="st3" d="M445.1,209.4c-0.2-0.1-0.5-0.1-0.7-0.1c-0.3,0.1-0.6,0.3-0.8,0.5c-0.1,0.1-0.1,0.1-0.2,0.2"/>
	<ellipse transform="matrix(0.986 -0.1667 0.1667 0.986 -28.9046 77.0308)" class="st7" cx="444.5" cy="210.7" rx="0.3" ry="0.6"/>
	<path class="st3" d="M445,210c-0.4,0-0.8,0.2-1.1,0.4l0,0.1"/>
	<path class="st3" d="M452.1,207.7c0.3,0.6,0.5,1.4,0.4,2.1c0,0.2-0.1,0.5-0.1,0.7c-0.1,0.2-0.2,0.4-0.3,0.6
		c-0.2,0.1-0.4,0.2-0.6,0.2c-0.2,0-0.4-0.2-0.4-0.5"/>
	<polygon class="st6" points="456,214.5 455.1,214 449.4,220.4 450.9,222.4 456.3,214.9 	"/>
	<path class="st6" d="M433.5,230.3c-0.2-0.4-0.4-0.9-0.9-0.9c-0.2,0-0.4,0.1-0.5,0.1c-0.3,0-0.6-0.2-0.9-0.2c-0.3,0-0.5,0.2-0.8,0.3
		c-0.3,0-0.6-0.1-0.8,0c-0.2,0.2-0.3,0.4-0.3,0.7c0,0.3,0,0.5-0.1,0.8c-0.1,0.2-0.3,0.4-0.4,0.6c-0.1,0.3,0.1,0.6,0,0.9
		c0,0.1-0.1,0.2-0.1,0.4c-0.1,0.4-0.1,0.8-0.1,1.2c0,0.1,0,0.3,0.1,0.4c0.1,0.3,0.4,0.5,0.7,0.6c0.7,0.2,1.5,0.1,2.2,0.1
		c0.5,0,0.9,0,1.4,0.1c0.6,0.1,1.2,0.3,1.8,0.3c0.1,0,0.2,0,0.2-0.1c0-0.1,0.1-0.1,0.1-0.2c0.1-0.5,0.2-0.9,0.3-1.4
		c0-0.3,0.3-0.8,0.2-1c0-0.2-0.6-0.5-0.8-0.7C434.3,231.6,433.8,231,433.5,230.3z"/>
	<polygon class="st18" points="435.7,232.3 434.6,231.9 433.3,235.4 434.2,235.7 436.1,235.8 	"/>
	<path class="st18" d="M471.1,251.5l-10.6,14.2c0,0-1.8,2-2.3,3.8l-6.1,22.1c0,0-4.1,0.2-5.9-1.1c0,0,2-16.2,2.5-17.9
		c0,0,1-7.8,2.8-10.7c0,0,6.5-13.4,9.4-16C460.7,245.8,469.8,249.2,471.1,251.5z"/>
	<path class="st6" d="M464,241.8l-4.7,3.9c0,0-7.8-9.8-8-12.5C451.2,233.2,462.6,238.7,464,241.8z"/>
	<polygon class="st9" points="460.2,247.9 458.3,245.7 458.7,245.4 460.6,247.6 	"/>
	<path class="st18" d="M472.5,242.3c0,0,3.7,2.2,3.8,7.9l5.6,9.9c0,0,1.5,2.5,3.5,1.5l19.5-5.9c0,0,1.9,4,1.8,5.6l-17.9,7
		c0,0-7,3.2-11.4-0.2c0,0-6.5-5.3-10.6-11.3l-7.4-10.6l8.7-4.7C468.1,241.4,471.5,241,472.5,242.3z"/>
	<polygon class="st7" points="465.2,243.3 460.3,247.6 458.6,245.7 464.4,241 	"/>
	<path class="st6" d="M477.6,227.4c0.3,0.4,0.5,0.7,0.7,1.2c0.1,0.3,0.2,0.6,0.3,0.9l0.7,2.8c0,0.2,0.1,0.4,0.2,0.6
		c0.2,0.2,0.4,0.4,0.6,0.5c0.4,0.3,0.8,0.6,1.1,1c0.3,0.4,0.6,0.8,1,1c0.5,0.1,1-0.1,1.2-0.5c0.1-0.2,0.1-0.3,0.2-0.5
		c0.1-0.1,0.3-0.2,0.4-0.3c0.2-0.2,0.1-0.6,0.3-0.9c0.1-0.2,0.4-0.4,0.4-0.6c0-0.1-0.1-0.3,0-0.4c0.1-0.1,0.1-0.1,0.2-0.1
		c0.2-0.2,0.3-0.5,0.1-0.8c0,0,0,0,0,0c-0.5-0.6-0.8-1.3-1.4-1.8c-1.1-1.1-2.1-2.2-3.2-3.2c-0.1-0.1-0.1-0.1-0.2-0.2
		c-0.1,0-0.2,0-0.2,0C479,226.1,478.2,226.6,477.6,227.4z"/>
	<path class="st18" d="M480.7,225.6l0.5,0.9l-3.3,1.9l-0.7-1.1C477.2,227.4,479.1,224.7,480.7,225.6z"/>
	<path class="st23" d="M477.4,228.2l-6.1-7.9l-8.3,3.3l-4.2-6.5l11-2.9c0,0,2.6-1.2,4.2,0.9l7,10.5L477.4,228.2z"/>
	<path class="st23" d="M444.9,233c0,0-0.1,0.6-1,0.4l-8.6-1.6l-1.4,3.9l9.9,3.1c0,0,3.4,1.6,5.4-1.3l2.5-3.5l12.3,9
		c0,0,5.8,4.4,9.1,0.1c3.4-4.3,4.6-5.5,4.6-5.5s0.7-1-1.1-1.6c0,0-8.8-4.9-10.5-7.6c0,0-5.6-12.4-10.1-14
		C456,214.5,447.2,226.1,444.9,233z"/>
</g>
<g id="Layer_3_1_">
	<path class="st6" d="M332.1,230.4l-1.4-4c0-0.1-0.1-0.1-0.1-0.2c-0.1-0.1-0.2-0.1-0.3,0c-0.6,0.2-1.3,0.6-1.9,0.3
		c-0.7-0.3-0.7-1.3-1.3-1.8c-1-0.8,0.7-0.7,0.6-1c-0.1-0.3-0.5-0.4-0.8-0.4c-0.3,0-0.8,0-1-0.2c-0.2-0.2,0-0.7-0.3-1
		c-0.4-0.3-1,0-1.3-0.3c-0.1-0.2-0.1-0.3-0.1-0.5c0.1-0.6,0.2-1.1,0.5-1.7c0.1-0.2,0.2-0.4,0.2-0.7c0-0.4-0.4-0.6-0.6-0.9
		c-0.5-0.6-0.4-1.5-0.4-2.3c0.1-1.1,0-2.1-0.2-3.2c-0.1-0.8,0.5-1.6,1.1-2c1.5-1.2,3.5-1.5,5.4-1.1c1.8,0.4,3.5,1.3,5.1,2.4
		c0.6,0.4,1.1,0.9,1.6,1.5c0.8,1,1.2,2.3,1.3,3.6c0.1,1.3,0.1,2.6,0,3.9c0,0.9,0,1.8,0.5,2.6c0.1,0.1,0.2,0.3,0.2,0.4
		c0,0.1,0,0.3-0.1,0.4c-0.2,0.5-0.5,0.9-0.8,1.3C336.3,227.4,334.5,229.5,332.1,230.4z"/>
	<path class="st6" d="M316.5,308.8c0,0-2.6,3.6-3.2,4.4l-5.3-3.9c0,0,2.2-1.9,3.2-3.5C311.3,305.8,316.6,307.7,316.5,308.8z"/>
	<path class="st7" d="M312.4,316.4l-0.2,0.6l-4.8-1.1l-0.1-0.6c0,0-9.4-1-10.7-3.2c0,0-0.5-0.8,1.9-0.9c0,0,8.1-1,11-3.3
		c0,0,0.1,3.2,4.7,4C314.3,311.9,313.9,314.9,312.4,316.4z"/>
	<path class="st6" d="M400.5,264.8l2.6-1.9c0,0,4.1,3.5,4,5l-4.2,2.4L400.5,264.8z"/>
	<path class="st7" d="M404.4,259.9l0.5-0.8l4.2,1.3l-0.2,0.5c0,0,1.1,1.1,4.8,1.6c0,0,7.9,1.5,5.8,3.7c0,0-0.7,0.3-2.7,0.2
		c0,0-3.4-0.9-9.7,1.6l-0.4,0.2c0,0-1.4-3.6-4.2-4.8C402.5,263.4,402.7,260.3,404.4,259.9z"/>
	<path class="st7" d="M321.8,211.2c0.1,0.6,0.4,1.2,0.9,1.5c0.5,0.3,1.2,0.4,1.7,0.1c0.4-0.2,0.7-0.6,1-1c0.3-0.3,0.8-0.6,1.2-0.4
		c0.3,0.2,0.5,0.5,0.5,0.9c0,0.4,0,0.7,0,1.1c0,0.9,0.4,1.8,1.2,2.1c0.2,0.1,0.4,0.1,0.6,0.2c0.5,0.3,0.8,0.7,0.8,1.3
		c0,0.2,0.1,0.4,0.1,0.6c0.1,0.2,0.2,0.3,0.4,0.3c0.3,0,0.4-0.3,0.5-0.5c0.1-0.3,0.1-0.7,0.1-1c-0.1-1,0.8-1.9,1.7-2.2
		c0.4-0.2,0.8-0.2,1.2-0.1c0.5,0.2,0.8,0.7,1.1,1.1c0.9,1.7,1.4,3.5,1.4,5.4c0.7-0.2,1.4-0.2,2.1-0.2c0.8-1.6,1-3.5,0.8-5.3
		c-0.2-1.8-0.6-3.5-1.4-5.1c-0.2-0.6-0.6-1.2-1-1.7c-0.4-0.4-0.8-0.8-1.2-1.2c-0.6-0.5-1.3-0.9-2.1-1.3c-2.1-0.8-4.4-0.5-6.6,0
		c-1.4,0.3-2.8,0.8-3.9,1.7C322.1,208.4,321.6,209.8,321.8,211.2z"/>
	<path class="st3" d="M326,216.7c-0.3-0.1-0.6-0.2-0.9-0.1c-0.4,0.1-0.7,0.4-1,0.6c-0.1,0.1-0.2,0.1-0.2,0.2"/>
	
		<ellipse transform="matrix(0.9865 -0.1639 0.1639 0.9865 -31.3769 56.2767)" class="st7" cx="325.3" cy="218.2" rx="0.3" ry="0.7"/>
	<path class="st3" d="M325.9,217.4c-0.5,0-0.9,0.2-1.3,0.5l0,0.1"/>
	<path class="st3" d="M334.6,214.6c0.4,0.8,0.6,1.7,0.5,2.6c0,0.3-0.1,0.6-0.2,0.8c-0.1,0.3-0.2,0.5-0.4,0.7
		c-0.2,0.2-0.5,0.3-0.7,0.2c-0.3,0-0.5-0.3-0.5-0.6"/>
	<polygon class="st6" points="339.3,222.9 338.2,222.2 331.2,230.1 333,232.5 339.6,223.4 	"/>
	<path class="st6" d="M311.8,242.1c-0.2-0.5-0.5-1.1-1.1-1.1c-0.2,0-0.4,0.1-0.7,0.1c-0.4,0-0.7-0.3-1.1-0.2c-0.4,0-0.6,0.3-1,0.3
		s-0.7-0.1-1,0c-0.3,0.2-0.4,0.5-0.4,0.8c0,0.3,0,0.6-0.1,0.9c-0.1,0.3-0.4,0.4-0.5,0.7c-0.1,0.3,0.1,0.7,0.1,1.1
		c0,0.1-0.1,0.3-0.1,0.4c-0.1,0.5-0.2,0.9-0.1,1.4c0,0.2,0,0.4,0.1,0.5c0.2,0.3,0.5,0.6,0.9,0.7c0.9,0.3,1.8,0.2,2.7,0.2
		c0.6,0,1.1,0.1,1.7,0.2c0.7,0.1,1.5,0.4,2.2,0.3c0.1,0,0.2,0,0.3-0.1c0.1-0.1,0.1-0.1,0.1-0.2c0.2-0.6,0.3-1.1,0.4-1.7
		c0.1-0.3,0.3-1,0.3-1.3c-0.1-0.3-0.7-0.7-0.9-0.9C312.8,243.7,312.2,242.9,311.8,242.1z"/>
	<polygon class="st18" points="314.4,244.5 313.1,244.1 311.5,248.3 312.7,248.6 315,248.8 	"/>
	<path class="st18" d="M353.9,270.8l-17.7,12.3c0,0-2.9,1.6-4.1,3.6l-15.5,23.2c0,0-4.9-1.4-6.4-3.6c0,0,8.6-18,9.7-19.8
		c0,0,4.1-8.7,7.3-11.3c0,0,12.6-13.1,17-14.9C344,260.3,353.3,267.6,353.9,270.8z"/>
	<path class="st6" d="M348.9,256.3l-5.8,4.7c0,0-9.5-11.9-9.8-15.3C333.4,245.7,347.3,252.5,348.9,256.3z"/>
	<polygon class="st7" points="350.4,258 344.5,263.3 342.3,260.9 349.5,255.2 	"/>
	<polygon class="st9" points="344.3,263.7 342,261 342.5,260.6 344.8,263.3 	"/>
	<path class="st18" d="M358.7,254.8c0,0,4.9,1.9,6.2,8.7l8.7,10.7c0,0,2.3,2.7,4.6,1.1l22.2-11.1c0,0,3.2,4.5,3.3,6.4l-20.1,12
		c0,0-7.7,5.3-13.7,2c0,0-8.9-5-15.1-11.4l-11.1-11.2l9.5-7.5C353.2,254.6,357.2,253.4,358.7,254.8z"/>
	<path class="st6" d="M365.6,238.7c0.3,0.4,0.6,0.9,0.8,1.4c0.1,0.4,0.2,0.8,0.3,1.2l0.8,3.4c0,0.3,0.1,0.5,0.3,0.7
		c0.2,0.2,0.4,0.4,0.7,0.6c0.5,0.3,1,0.7,1.3,1.2c0.4,0.4,0.7,1,1.3,1.2c0.6,0.2,1.2-0.1,1.5-0.6c0.1-0.2,0.2-0.4,0.3-0.6
		c0.1-0.2,0.3-0.2,0.5-0.4c0.3-0.3,0.1-0.8,0.3-1.1c0.2-0.3,0.5-0.5,0.5-0.8c0-0.2-0.1-0.4,0.1-0.5c0.1-0.1,0.2-0.1,0.3-0.2
		c0.3-0.2,0.4-0.6,0.2-0.9c0,0,0,0,0,0c-0.6-0.7-1-1.5-1.7-2.2c-1.3-1.3-2.6-2.6-3.9-3.9c-0.1-0.1-0.2-0.2-0.3-0.2
		c-0.1,0-0.2,0-0.3,0C367.3,237.1,366.3,237.7,365.6,238.7z"/>
	<path class="st18" d="M369.4,236.6l0.6,1.2l-4,2.3l-0.9-1.3C365.2,238.7,367.5,235.4,369.4,236.6z"/>
	<path class="st23" d="M365.4,239.7l-7.4-9.6l-10.1,3.9l-5.1-7.9l13.5-3.5c0,0,3.2-1.5,5.2,1.1l8.6,12.8L365.4,239.7z"/>
	<path class="st23" d="M325.7,245.5c0,0-0.1,0.8-1.2,0.5l-10.4-2l-1.7,4.8l12.1,3.9c0,0,4.1,2,6.6-1.5l3-4.3l15,11
		c0,0,7,5.3,11.1,0.1c4.1-5.2,5.6-6.6,5.6-6.6s0.9-1.2-1.3-2c0,0-10.8-6-12.8-9.3c0,0-6.8-15.2-12.3-17.1
		C339.3,222.9,328.6,237,325.7,245.5z"/>
</g>
<g id="Layer_3_2_">
	<path class="st6" d="M383.6,244.1l-1.6-3.9c0-0.1-0.1-0.1-0.1-0.2c-0.1,0-0.2,0-0.3,0c-0.6,0.2-1.3,0.7-1.9,0.5
		c-0.7-0.3-0.8-1.3-1.4-1.7c-1-0.8,0.6-0.8,0.5-1c-0.1-0.3-0.5-0.4-0.8-0.4c-0.3,0-0.8,0.1-1-0.1c-0.2-0.2-0.1-0.7-0.4-1
		c-0.4-0.3-1,0.1-1.3-0.3c-0.1-0.1-0.1-0.3-0.1-0.5c0-0.6,0.1-1.2,0.4-1.7c0.1-0.2,0.2-0.4,0.1-0.7c-0.1-0.4-0.4-0.6-0.7-0.8
		c-0.5-0.6-0.5-1.5-0.5-2.3c0-1.1-0.1-2.1-0.4-3.2c-0.2-0.7,0.4-1.6,0.9-2.1c1.4-1.3,3.4-1.7,5.3-1.5s3.6,1.1,5.2,2.1
		c0.6,0.4,1.2,0.8,1.7,1.4c0.9,1,1.3,2.3,1.5,3.5c0.2,1.3,0.2,2.6,0.3,3.9c0.1,0.9,0.2,1.8,0.7,2.6c0.1,0.1,0.2,0.3,0.2,0.4
		c0,0.1,0,0.3,0,0.4c-0.2,0.5-0.4,0.9-0.7,1.3C387.6,240.8,385.8,243,383.6,244.1z"/>
	<path class="st6" d="M390.9,329.1c0,0-1.1,4.3-1.3,5.3l-6.4-1.6c0,0,1.3-2.5,1.7-4.4C384.9,328.3,390.5,328.1,390.9,329.1z"/>
	<path class="st7" d="M389.8,337.7l0,0.7l-4.8,0.8l-0.3-0.5c0,0-9.1,2.5-11.1,1c0,0-0.8-0.6,1.4-1.6c0,0,7.2-3.9,9-7.2
		c0,0,1.3,2.9,5.9,1.9C389.9,332.8,390.7,335.8,389.8,337.7z"/>
	<path class="st6" d="M453,283.1l2.8-1.6c0,0,3.7,3.9,3.4,5.4l-4.5,1.9L453,283.1z"/>
	<path class="st7" d="M457.4,278.6l0.6-0.7l4,1.7l-0.3,0.5c0,0,1,1.2,4.7,2.1c0,0,7.7,2.3,5.4,4.3c0,0-0.7,0.3-2.7-0.1
		c0,0-3.3-1.3-9.8,0.6l-0.4,0.2c0,0-1-3.7-3.7-5.2C455.2,281.9,455.6,278.9,457.4,278.6z"/>
	<path class="st7" d="M372,225.6c0.1,0.6,0.5,1.1,1,1.5c0.5,0.3,1.2,0.3,1.7,0c0.4-0.3,0.6-0.7,0.9-1c0.3-0.3,0.8-0.6,1.2-0.5
		c0.3,0.2,0.6,0.5,0.6,0.9c0,0.4,0.1,0.7,0.1,1.1c0.1,0.9,0.5,1.7,1.3,2c0.2,0.1,0.4,0.1,0.6,0.2c0.5,0.2,0.8,0.7,0.9,1.2
		c0,0.2,0.1,0.4,0.2,0.6c0.1,0.2,0.3,0.3,0.5,0.3c0.2,0,0.4-0.3,0.5-0.5c0.1-0.3,0.1-0.7,0-1c-0.2-1,0.7-1.9,1.6-2.3
		c0.4-0.2,0.8-0.3,1.2-0.2c0.5,0.1,0.9,0.6,1.1,1.1c1,1.6,1.6,3.4,1.8,5.3c0.7-0.2,1.4-0.3,2.1-0.4c0.7-1.7,0.7-3.6,0.5-5.4
		c-0.3-1.8-0.9-3.5-1.7-5c-0.3-0.6-0.7-1.2-1.1-1.7c-0.4-0.4-0.8-0.8-1.3-1.1c-0.7-0.5-1.4-0.8-2.1-1.1c-2.1-0.7-4.4-0.2-6.6,0.5
		c-1.4,0.4-2.7,0.9-3.7,2C372.1,222.8,371.7,224.2,372,225.6z"/>
	<path class="st3" d="M376.6,230.8c-0.3-0.1-0.6-0.1-0.9-0.1c-0.4,0.2-0.7,0.4-0.9,0.7c-0.1,0.1-0.1,0.2-0.2,0.2"/>
	<ellipse transform="matrix(0.9736 -0.2284 0.2284 0.9736 -43.1392 91.994)" class="st7" cx="375.9" cy="232.4" rx="0.3" ry="0.7"/>
	<path class="st3" d="M376.5,231.5c-0.5,0.1-0.9,0.3-1.3,0.6l0,0.1"/>
	<path class="st3" d="M385,228.1c0.5,0.8,0.7,1.6,0.7,2.5c0,0.3,0,0.6-0.1,0.8c-0.1,0.3-0.2,0.5-0.4,0.7c-0.2,0.2-0.4,0.3-0.7,0.3
		c-0.3,0-0.5-0.3-0.5-0.5"/>
	<polygon class="st6" points="390.2,236.2 389.1,235.5 382.6,243.8 384.6,246.1 390.6,236.6 	"/>
	<path class="st6" d="M364.1,257.1c-0.3-0.5-0.6-1.1-1.1-1c-0.2,0-0.4,0.1-0.6,0.2c-0.4,0-0.8-0.2-1.1-0.2c-0.4,0.1-0.6,0.3-0.9,0.4
		s-0.7-0.1-1,0.1c-0.2,0.2-0.4,0.5-0.3,0.8c0,0.3,0,0.6-0.1,0.9c-0.1,0.3-0.4,0.5-0.4,0.8c-0.1,0.3,0.1,0.7,0.1,1
		c0,0.1-0.1,0.3-0.1,0.4c-0.1,0.5-0.1,1,0,1.4c0,0.2,0,0.3,0.1,0.5c0.2,0.3,0.5,0.6,0.9,0.6c0.9,0.2,1.8,0,2.7,0
		c0.6,0,1.1,0,1.7,0.1c0.7,0.1,1.5,0.3,2.2,0.2c0.1,0,0.2,0,0.3-0.1c0.1-0.1,0.1-0.1,0.1-0.2c0.1-0.6,0.2-1.1,0.3-1.7
		c0-0.3,0.3-1,0.2-1.3s-0.8-0.6-1-0.8C365.1,258.6,364.5,257.9,364.1,257.1z"/>
	<polygon class="st18" points="366.8,259.3 365.5,259 364.2,263.2 365.4,263.5 367.6,263.6 	"/>
	<path class="st18" d="M411.4,279.9l-11.9,18c0,0-2.1,2.6-2.5,4.8l-5.8,27.3c0,0-5,0.5-7.3-0.9c0,0,1.2-19.9,1.6-22
		c0,0,0.6-9.6,2.5-13.2c0,0,6.9-16.8,10.2-20.2C398.3,273.9,409.6,277.2,411.4,279.9z"/>
	<path class="st6" d="M402,268.8l-5.5,5.1c0,0-10.3-11.3-10.7-14.6C385.8,259.3,400.1,265.1,402,268.8z"/>
	<polygon class="st9" points="397.9,276.5 395.4,273.9 395.9,273.5 398.3,276 	"/>
	<path class="st18" d="M412.5,268.7c0,0,4.6,2.4,5.3,9.3l7.6,11.6c0,0,2,3,4.4,1.5l23.2-8.7c0,0,2.7,4.8,2.6,6.7l-21.2,9.8
		c0,0-8.2,4.5-13.9,0.6c0,0-8.3-5.9-13.8-12.9l-9.8-12.3l10.2-6.4C407.1,268,411.2,267.2,412.5,268.7z"/>
	<polygon class="st7" points="403.6,270.4 398,276.1 395.8,273.8 402.5,267.7 	"/>
	<path class="st6" d="M417.5,250.1c0.4,0.4,0.7,0.9,0.9,1.4c0.2,0.4,0.3,0.7,0.4,1.1l1,3.3c0.1,0.3,0.2,0.5,0.3,0.7
		c0.2,0.2,0.5,0.4,0.7,0.5c0.5,0.3,1,0.7,1.4,1.1c0.4,0.4,0.8,0.9,1.3,1.1c0.6,0.1,1.2-0.2,1.4-0.7c0.1-0.2,0.1-0.4,0.2-0.6
		c0.1-0.2,0.3-0.3,0.5-0.4c0.2-0.3,0.1-0.8,0.2-1.1c0.1-0.3,0.5-0.5,0.5-0.8c0-0.2-0.1-0.4,0-0.5c0.1-0.1,0.2-0.1,0.3-0.2
		c0.3-0.2,0.3-0.7,0.1-0.9c0,0,0,0,0,0c-0.7-0.7-1.1-1.5-1.8-2.1c-1.4-1.2-2.8-2.5-4.2-3.7c-0.1-0.1-0.2-0.1-0.3-0.2
		c-0.1,0-0.2,0-0.3,0C419.1,248.4,418.1,249.2,417.5,250.1z"/>
	<path class="st18" d="M421.2,247.8l0.7,1.1l-3.8,2.6l-1-1.3C417.1,250.2,419.2,246.7,421.2,247.8z"/>
	<path class="st23" d="M417.4,251.1l-8-9.1l-9.8,4.6l-5.6-7.5l13.2-4.4c0,0,3.1-1.7,5.2,0.8l9.4,12.2L417.4,251.1z"/>
	<path class="st23" d="M378.1,259.5c0,0-0.1,0.8-1.2,0.6l-10.6-1.3l-1.4,4.9l12.3,3.1c0,0,4.3,1.7,6.5-2l2.7-4.5l15.7,10
		c0,0,7.4,4.9,11.1-0.6s5.1-7,5.1-7s0.8-1.3-1.4-1.9c0,0-11.1-5.3-13.4-8.4c0,0-7.8-14.7-13.4-16.2
		C390.2,236.2,380.5,250.9,378.1,259.5z"/>
</g>
</svg>
