<?xml version="1.0" encoding="utf-8"?>
<!-- Generator: Adobe Illustrator 22.0.1, SVG Export Plug-In . SVG Version: 6.00 Build 0)  -->
<svg version="1.1" id="Layer_1" xmlns="http://www.w3.org/2000/svg" xmlns:xlink="http://www.w3.org/1999/xlink" x="0px" y="0px"
	 viewBox="0 0 947.9 854.6" style="enable-background:new 0 0 947.9 854.6;" xml:space="preserve">
<style type="text/css">
	.st0{fill:#FFFFFF;}
	.st1{fill:#E5E5E5;stroke:#000000;stroke-width:0.5;stroke-miterlimit:10;}
	.st2{clip-path:url(#SVGID_2_);}
	.st3{fill:none;stroke:#000000;stroke-width:0.5;stroke-miterlimit:10;}
	.st4{fill:none;stroke:#000000;stroke-miterlimit:10;}
	.st5{opacity:0.7;fill:#BCBCBC;enable-background:new    ;}
	.st6{fill:#FFFFFF;stroke:#000000;stroke-width:0.5;stroke-miterlimit:10;}
	.st7{fill:#1A1A1A;}
	.st8{fill:#BCBCBC;stroke:#000000;stroke-width:0.5;stroke-miterlimit:10;}
	.st9{fill:#0077BF;stroke:#000000;stroke-width:0.5;stroke-miterlimit:10;}
	.st10{enable-background:new    ;}
	.st11{fill:#CCCCCC;stroke:#000000;stroke-width:0.5;stroke-miterlimit:10;}
	.st12{stroke:#000000;stroke-width:0.5;stroke-miterlimit:10;}
	.st13{fill:#777777;stroke:#000000;stroke-width:0.5;stroke-miterlimit:10;}
	.st14{fill:#1A1A1A;stroke:#000000;stroke-width:0.5;stroke-miterlimit:10;}
	.st15{fill:#EB058C;stroke:#000000;stroke-width:0.5;stroke-miterlimit:10;}
	.st16{fill:#A3A3A3;stroke:#000000;stroke-width:0.5;stroke-miterlimit:10;}
</style>
<title>DT9</title>
<g>
	<g id="Layer_1_1_">
		<g id="Layer_7">
			<path class="st0" d="M190.1,353.9c0,0-126.9-122.8,47.7-256.9c0,0,188.8-178.2,425.1-10.6c0,0,112.8,67.3,159.1,255
				c0,0,20.8,161.1-73.3,280.1c0,0-108.4,122.7-279.8,190.4c-75.8,30-158.3,33.7-231.1,8.2c-56.8-19.8-110.2-57.6-110.1-129.5
				c0,0,10-45,70.3-97.7C198.1,593,347.9,508.6,190.1,353.9z"/>
		</g>
		<path class="st1" d="M209.5,228.3c-552,234,235.2,522.5,235.2,522.5l486.7-238.1c0,0-518.9-80.6-552.2-209.6
			c-23.4-90.7,222.5-118.2,222.5-118.2S365.2,162.2,209.5,228.3z"/>
		<g>
			<g>
				<g>
					<defs>
						<path id="SVGID_1_" d="M209.5,228.3c-552,234,235.2,522.5,235.2,522.5l486.7-238.1c0,0-518.9-80.6-552.2-209.6
							c-23.4-90.7,222.5-118.2,222.5-118.2S365.2,162.2,209.5,228.3z"/>
					</defs>
					<clipPath id="SVGID_2_">
						<use xlink:href="#SVGID_1_"  style="overflow:visible;"/>
					</clipPath>
					<g class="st2">
						<path class="st0" d="M607,693.9c-1.1-0.3-111.5-28.6-229.8-73.5C307.7,594,249,567,202.9,540.3c-58-33.6-96.4-66.9-114.1-99.2
							C76.6,419,74,397,80.9,375.8c12.5-38.1,47.8-72,105.1-100.7c45.4-22.8,104.7-42.5,176.2-58.5
							c121.6-27.3,238.2-34.6,239.3-34.7l0.7,6.2c-0.9,0.1-90,16-178.4,47.1c-51.8,18.2-93.2,38-123.1,58.8
							c-36.8,25.6-56,52.7-56.9,80.6C242,427.1,349,478.8,553.3,523.9c155.5,34.3,313.5,52.7,315.1,52.9l-0.7,6.2
							c-1.6-0.2-160-18.6-315.7-53c-91.6-20.2-164.4-42-216.4-64.6c-31.1-13.5-55-27.5-71.2-41.7c-18.3-16-27.3-32.6-26.7-49.5
							c1-29.9,21.1-58.7,59.6-85.5c30.4-21.1,72.3-41.2,124.6-59.6c46.7-16.4,93.6-28.6,127.7-36.5c-45.4,4.8-114.9,13.9-186,29.9
							c-71,15.9-129.8,35.5-174.8,58c-55.7,28-90,60.6-101.9,97.1c-6.4,19.5-3.9,39.8,7.4,60.4c17.2,31.3,54.7,63.9,111.7,96.8
							c45.8,26.5,104.2,53.3,173.4,79.7c118,44.8,228,73.1,229.1,73.3L607,693.9z"/>
					</g>
				</g>
			</g>
		</g>
		<path class="st3" d="M209.5,228.3c-552,234,235.2,522.5,235.2,522.5l486.7-238.1c0,0-518.9-80.6-552.2-209.6
			c-23.4-90.7,222.5-118.2,222.5-118.2S365.2,162.2,209.5,228.3z"/>
		<line class="st4" x1="427.7" y1="428.1" x2="313.2" y2="384"/>
		<line class="st4" x1="385.2" y1="440" x2="253.2" y2="389.2"/>
		<line class="st4" x1="411.9" y1="396.6" x2="279.9" y2="345.8"/>
		<line class="st4" x1="564.4" y1="290.6" x2="444.1" y2="243.9"/>
		<line class="st4" x1="557.9" y1="316.2" x2="450.8" y2="274.6"/>
		<line class="st4" x1="612.4" y1="290.9" x2="492.1" y2="244.2"/>
		
			<ellipse transform="matrix(0.331 -0.9436 0.9436 0.331 -286.6951 843.8189)" class="st5" cx="451.8" cy="624.1" rx="15.7" ry="144"/>
		
			<ellipse transform="matrix(0.331 -0.9436 0.9436 0.331 -147.9983 921.7884)" class="st5" cx="576.1" cy="565.3" rx="15.7" ry="144"/>
		<path class="st5" d="M488.2,200.9c2.4,5.3-39,12.1-85.2,39c-47.4,27.6-64.4,53.5-66.8,48.2s17.2-40.6,65.9-62.7
			S485.8,195.6,488.2,200.9z"/>
		<path class="st5" d="M433,191.9c1.8,5.6-36.1,12.4-85.2,33.6c-50.3,21.8-74.3,40.6-76.1,35c-1.8-5.6,26.5-33.2,77.4-49.5
			S431.3,186.3,433,191.9z"/>
		<path class="st6" d="M670,283.1l9.3-10.6c0,0,6.8,8.8,10.3,8.7l-6.1,17.2C683.5,298.4,669.5,289.3,670,283.1z"/>
		<path class="st7" d="M665.5,587.3c0,0-2.7,6.2-3.9,8.7s10.1,11.8,34.1,11c29-0.9-15.1-11.7-18.3-14.9s-0.1-7.6-0.1-7.6l-9.3-0.2
			L665.5,587.3z"/>
		<path class="st6" d="M676.6,396.5l30,88.9c1,3,1,6.2,0.1,9.2l-30.1,93l-11-0.4l18-92.8L647,424.1L676.6,396.5z"/>
		<path class="st6" d="M676.6,392.1c0,0-15.2,16-17.6,34.9c-1.9,14.8-13.3,60.6-18.5,81.3c-1.3,5.3-6.6,8.5-11.9,7.1
			c-0.3-0.1-0.6-0.2-0.8-0.2l-94.1-32.6l2.1-11.6l85.9,17.2l-2.2-106.9L676.6,392.1z"/>
		<path class="st7" d="M533.4,469.2c0,0-7.5-4.2-10.1-5.4s-9.7,12.3-8.9,36.1c1,29,10.6-13.1,13.4-16.7c1.9-2.4,8.5,0.3,8.5,0.3
			l1.6-12.1L533.4,469.2z"/>
		<path class="st6" d="M637.8,324.7l-14.4,72.4l57.4,11.2l8.8-73.2l11.7,28.6l0,0c0.7,1.9,2.3,3.4,4.2,3.9l45,12.8l4.2-9.6
			L716,356.5c-0.6-0.9-1-1.9-1.3-3L701,308.7l-11.4-22.5l-6.8,4.3L669,276.7l-34.1,12.1L637.8,324.7z"/>
		<polygon class="st8" points="674.8,392.6 715.4,476.1 666.5,487.7 645,414.3 646.6,383.8 		"/>
		<polygon class="st8" points="663.6,385.7 661,490 611.9,480.8 619.4,385.7 		"/>
		<path class="st9" d="M635.3,318.4l-24.3,86l75.2,10.2l7.5-82.2l-2.3,25.5l22-21.7l-9.6-27.3l-6.9-11.1l-7.3-11.6l-6.8,4.3
			L669,276.7l-8.8,3l-22.4,5.5c0,0-22.2,16.3-32.7,24.2l16.6,23.2L635.3,318.4z"/>
		<path class="st6" d="M631,370.8c0,0,8.7,13.3,13.1,9.2c17.2-15.9-3.2-9.2,2.7-11.2c5.6-1.8-1.3-2.1-11.4-5.1L631,370.8z"/>
		<path class="st6" d="M608.7,314.7c-0.1-0.1-11.7,10.9-20.1,18.8c-3.4,3.2-3.5,8.5-0.3,11.9c0.6,0.6,1.2,1.1,2,1.5l40.5,24l4.5-7.2
			l-27.5-25.1l10.9-9.9L608.7,314.7z"/>
		<path class="st6" d="M754.7,370.8c0,0,11.1-1.4,9.6,1s-1.2,1.6-1.2,1.6c0.8-0.2,1.6-0.2,2.5-0.1c0.5,0.1,1.2-0.3,1.8,0.1
			c2.2,1.5,0.9,6.5-2.7,10.4c-4.1,4.5-13.1-5.5-13.1-5.5L754.7,370.8z"/>
		<path class="st6" d="M767.3,373.5c0,0-6.5-2.4-9,3.2s2.7,8.3,2.7,8.3"/>
		<g class="st10">
			<path class="st0" d="M652.1,327l-5.2-0.9l-2.3,13.7l-2-0.3l2.3-13.7l-5.2-0.9l0.3-1.8l12.4,2.1L652.1,327z"/>
			<path class="st0" d="M653.6,341.3l-2-0.3l2.6-15.4l2,0.3L653.6,341.3z"/>
			<path class="st0" d="M662.6,326.9l2.7,13.9l7-12.3l2.8,0.5l-2.6,15.4l-1.9-0.3l2.2-12.9l-7,12.1l-1.8-0.3l-2.7-13.7l-2.2,12.9
				l-2-0.3l2.6-15.4L662.6,326.9z"/>
			<path class="st0" d="M689.1,333.3l-8.7-1.5l-0.8,4.8l8.1,1.4l-0.3,1.7l-8.1-1.4l-0.9,5.3l8.8,1.5l-0.3,1.8l-10.8-1.8l2.6-15.4
				l10.7,1.8L689.1,333.3z"/>
		</g>
		<path class="st11" d="M708.4,226.2c0,0-4.3-2.9-13.9-2.5c-11.3,0.5-18.9,8.5-23.4,20.2c-2,5.1-4.8,22,2.6,29.8
			c2.7,2.8,9,5.5,14.2,6.7L708.4,226.2z"/>
		
			<ellipse transform="matrix(0.3548 -0.9349 0.9349 0.3548 213.4291 816.2316)" class="st6" cx="698.1" cy="253.5" rx="29" ry="17.8"/>
		
			<ellipse transform="matrix(0.3548 -0.9349 0.9349 0.3548 213.9935 817.0642)" class="st6" cx="699" cy="253.5" rx="25.3" ry="15.5"/>
		
			<rect x="683.1" y="262.8" transform="matrix(0.5593 -0.829 0.829 0.5593 89.3878 694.8079)" class="st12" width="30.1" height="1.1"/>
		
			<rect x="701" y="238.6" transform="matrix(0.9306 -0.366 0.366 0.9306 -42.6786 274.0734)" class="st12" width="1.1" height="21.9"/>
		
			<ellipse transform="matrix(0.3548 -0.9349 0.9349 0.3548 216.1953 822.09)" class="st13" cx="703.7" cy="254.4" rx="3.5" ry="2.1"/>
		<g id="Layer_6">
			<g id="Layer_2_1_">
				<path class="st14" d="M468.5,361.9c0,0,2.5,8.5,18.8-0.1c0,0,12.7-6.6,22.4-16c0,0,12.3-11,28.1-12.2c0,0,12.4-2.5,24.9,7.7
					c0,0,11.6,9,9.5,23.1c0,0-0.7,17.9-20,28.5c0,0-6.5,3.4-10.2,8.2l-36.1-0.4l-33-20.6l-1.4-4.4
					C471.4,375.8,466,371.9,468.5,361.9z"/>
				<path class="st6" d="M523.1,389.1c-0.2,0.1-0.4,0.3-0.5,0.6c-0.1,0.2-0.1,0.5,0,0.7c0.8,3,1.8,5.8,3.2,8.6
					c0.8,1.6,1.9,3.4,3.7,3.7c1.1,0.1,2.3-0.2,3.3-0.7l4.5-1.9c-0.8-1.5,0.1-3.4,1.1-4.8c1.3-1.9,2.7-3.7,4.2-5.5
					c-1.9-4.3-4.8-8-8.6-10.7c-1.3-0.9-2.1-1.1-3,0.3c-0.7,1.3-1.4,2.5-2.2,3.7C527.2,385.4,525.3,387.4,523.1,389.1z"/>
				<path class="st6" d="M534.7,385.8c3.2,3.8,7.5,7.3,12.5,7.1c3.7-0.2,6.9-2.4,9.5-5c2.6-2.9,5-6.1,7-9.4c1.5-2,2.6-4.2,3.4-6.6
					c1-3.4,0.6-7.1,0.1-10.6c-0.8-5.8-1.8-12-5.8-16.3c-2.3-2.4-5.3-3.9-8.3-5.3c-2.2-1.2-4.5-2-6.9-2.5c-2.1-0.3-4.1-0.1-6.1,0.4
					c-5.7,1.2-10.8,4.5-14.3,9.2C516.8,359.3,526,375.7,534.7,385.8z"/>
				<path class="st7" d="M523.8,373.7c0,0,19.8-14.6,17.5-28.8c0,0,4.7,5.5,10.2,6.6c0,0,13.6,3.1,13.8,15.1c0,0-0.8,7,0.8,10.7
					l2.6-4.8l0.9-11.5l-5.9-15.6l-9.1-8.2l-12.8-1.4l-10.4,3.1l-11.5,13.9l0.7,14.3L523.8,373.7z"/>
				<path class="st6" d="M538.5,362.8c0.6,0.3,1.2,0.3,1.8,0c0.5-0.3,1-0.6,1.5-1c0.4-0.3,0.8-0.5,1.2-0.6c1.5-0.8,3.4-0.4,4.4,1
					c0.8,0.9,1.4,1.9,1.8,3"/>
				<path class="st6" d="M555.3,364l1.1-0.9c0.9-0.8,2-1.3,3.1-1.3c0.9,0.2,1.8,0.6,2.6,1.2s1.8,0.7,2.7,0.3"/>
				<path class="st6" d="M549,358.9c-2.6-2.6-6.6-3.2-9.8-1.3"/>
				<path class="st6" d="M555,358.7c2-1.6,4.7-1.9,7.1-1"/>
				<path class="st6" d="M550.9,375.5c1-0.3,1.9-0.7,2.9-1.1c0.2-0.1,0.4-0.2,0.6-0.4c0.3-0.5,0.3-1.2,0.1-1.7l-1-3.1"/>
				<path class="st6" d="M547,384.4c0.7,0.3,1.3,0.6,1.9,1c0.2,0.2,0.4,0.3,0.6,0.5c0.9,0.3,2,0,2.5-0.9c0.4-0.9,0.8-1.8,1.1-2.7
					c0.4-0.7,0.8-1.4,1.2-2.1c0.1-0.2,0.1-0.4,0.1-0.6c-0.1-0.4-0.7-0.6-1.1-0.6c-3-0.4-6.1,0.5-9,1.4c-0.1,0-0.2,0.1-0.3,0.1
					c-0.4,0.5,0.4,1.8,0.8,2.2C545.3,383.4,546.1,384,547,384.4z"/>
				<path class="st15" d="M551.3,386.8c-0.9,0.4-1.9,0.3-2.8-0.1c-0.9-0.4-1.7-1-2.4-1.7c-0.6-0.5-1.1-1.1-1.6-1.6
					c-0.4-0.4-0.7-0.9-1-1.4s-0.3-1.1-0.2-1.7c0.8,1,1.7,1.8,2.7,2.5c1.3,1,2.9,1.6,4.5,1.7c0.6,0,1.5-0.3,1.8,0.3
					C552.8,385.7,552,386.6,551.3,386.8z"/>
				<path class="st15" d="M555,378.5c-1.8-0.9-3.9-1.1-5.9-0.6s-3.9,1.3-5.6,2.2c-0.1,0-0.2,0.1-0.2,0.3s0.2,0.2,0.3,0.2
					c1.9,0.5,3.8-0.2,5.7-0.4c1.5-0.2,3.1-0.1,4.6,0.2C555,380.7,556.7,379.5,555,378.5z"/>
				
					<ellipse transform="matrix(0.973 -0.2307 0.2307 0.973 -69.0354 135.4924)" class="st14" cx="544.9" cy="362.9" rx="1.4" ry="1.8"/>
				
					<ellipse transform="matrix(0.9742 -0.2258 0.2258 0.9742 -67.658 135.7658)" class="st14" cx="559.7" cy="363.7" rx="1.4" ry="1.8"/>
				<path class="st14" d="M472.8,380.2c0,0,9.3,19.5,24.1,23.9l43.8,4.2l1.2-7.1"/>
			</g>
			<path class="st6" d="M554.3,538l2.1,3.5c0,0,14.2,12.8,9.7,27.9l-24,74.1l-8.9-4.8l11.2-65.9c0,0,0.3-29.9-16.4-35.2
				C528,537.6,547.2,535.2,554.3,538z"/>
			<path class="st6" d="M479.1,546.6c0,0-11,33.6-22.4,39.8c0,0-7,3-18.2-3.6l-51.9-33l6-7.9l44.9,18c0,0,7.4,3.6,12.9-5
				c0,0,9.8-21,8.5-22.8L479.1,546.6z"/>
			<path class="st7" d="M526.6,658.2l3.7,0.7l3.4-11.8l8.6,14.4l25,7.1c0,0,1.2-3.6-3.6-6.6c0,0-16.6-6.6-19-21.1
				c0,0-9.5-2.5-11.9-6.4c0,0-3.4,5.2-2.4,10C530.3,644.5,531.3,646.7,526.6,658.2z"/>
			<path class="st7" d="M375.4,535.9l11.3,6.1l-15.9,5.5l-10.9,23.9c0,0,4.4,2.1,7.7-2.9c0,0,7.7-13.9,23.9-14.3l8.4-10.8
				c0,0-4.9-4.3-8.9-4.8c-4.9-1.1-9.6-2.9-14-5.4L375.4,535.9z"/>
			<path class="st11" d="M540.7,408.3l3.1,40.9l32.2-7.6l1.8,11.2l-36.4,13c-2.7,1-5.7-0.5-6.6-3.2c0-0.1,0-0.1-0.1-0.2L518.9,413
				L540.7,408.3z"/>
			<path class="st8" d="M523.8,474.3c0,0,39.3,69.1,42.6,81.8c1.6,6.1-0.2,13.6-1.2,16c-2.2,5.4-8.2,0.5-20.8-2.3
				c0,0-10.2-19.9-22.1-34.7c-12.1-15-21.8-31.9-28.7-49.9C489.9,476,518.3,464,523.8,474.3z"/>
			<path class="st15" d="M480.5,465.7c0,0,9.1-20.7,8.4-53c0,0,6.3-13.5,9.1-21.5c4.8-0.8,12.1-1.5,18.3,0.1
				c12.4,3.4,23.5,11.2,24.5,8.9c0,0-2.2,3.6-0.3,4.4c0,0,3.4,7.3,3.8,22.5c0,0,0.8,15-10.5,17.5c0,0-12.7,22-9.9,29.5
				C497.6,477.3,480.5,465.7,480.5,465.7z"/>
			<path class="st11" d="M489.1,421c-10.8,8.9-12.5,12.3-19.4,18.3l35.4,12.2c-4.3,1.4-6.8,9.5-6.8,9.5l-45.6-14
				c-3.1-1.1-4.8-4.4-3.7-7.5c0.1-0.4,0.3-0.8,0.5-1.2c6.3-10.6,21.6-25.3,21.6-25.3c20.4-23.2,30.5-22.5,30.5-22.5
				S507.9,402.2,489.1,421z"/>
			<path class="st6" d="M516.2,391.4c2.2-0.7,4.1-2.3,5.1-4.4c0,0,9,11.6,17.5,10.2c1.8,1.7,1.3,4.5,2.1,6.2c0.3,0.5,0,1.3-0.6,1.3
				C523.8,405.5,516.2,391.4,516.2,391.4z"/>
		</g>
		<path class="st6" d="M504,452.3c0,0,9.3-0.5,8.6,1.5s-4.4,1-2.7,1.1s2.9-0.8,4.3,1.1c1.1,1.5-4.2,6.9-6.3,8.1s-4.8-2.1-9.1-4
			C498.9,460,500.8,454.2,504,452.3z"/>
		<path class="st6" d="M576.2,443.5c0,0,5.4-3.5,7.2-4c3-0.9,0.8,1.4-0.1,2.6s0.8-1.3,3.7-0.9s2.3,7-0.6,9.4c-1.6,1.4-4,1-9,0.8
			L576.2,443.5z"/>
		<path class="st6" d="M583.3,442c0,0-6.9,7.2,1.2,9.4"/>
		<path class="st8" d="M480.5,465.7c-9.3,8.7-15.6,20.2-17.8,32.7c-3.8,21-9.4,54-15.2,59.7c0,0-5,26.2,1.2,28.7s10.1,1.7,20.1-15.9
			c10-17.6,45.6-96.1,45.6-96.1S493.8,472.4,480.5,465.7z"/>
		<g id="Layer_3">
			<path class="st6" d="M370.2,149.1l-1.2-3.3c0-0.1,0-0.1-0.1-0.2c-0.1,0-0.2,0-0.3,0c-0.5,0.2-1.1,0.5-1.6,0.3s-0.6-1.1-1.1-1.5
				c-0.8-0.7,0.5-0.6,0.5-0.8s-0.4-0.3-0.6-0.4s-0.7,0-0.8-0.2s0-0.6-0.2-0.8s-0.9,0-1.1-0.3c-0.1-0.1-0.1-0.3-0.1-0.4
				c0-0.5,0.2-1,0.4-1.4c0.1-0.2,0.2-0.4,0.1-0.6c0-0.3-0.3-0.5-0.5-0.7c-0.3-0.6-0.4-1.3-0.3-1.9c0.1-0.9,0-1.8-0.1-2.6
				c0-0.7,0.3-1.3,0.9-1.7c1.3-0.9,2.9-1.3,4.4-0.9c1.5,0.4,2.9,1,4.1,2c0.5,0.3,0.9,0.7,1.3,1.2c0.6,0.9,1,1.9,1.1,3s0.1,2.1,0,3.2
				c-0.1,0.7,0.1,1.5,0.4,2.1c0.1,0.1,0.1,0.2,0.1,0.3s0,0.2-0.1,0.3c-0.2,0.4-0.4,0.7-0.6,1C373.6,146.7,372,148.1,370.2,149.1z"/>
			<path class="st6" d="M371.8,219c0,0-1.1,3.5-1.3,4.2l-5.1-1.6c0.7-1.1,1.2-2.3,1.6-3.5C366.9,218.1,371.5,218.1,371.8,219z"/>
			<path class="st7" d="M370.5,226v0.5l-4,0.4l-0.2-0.4c0,0-7.6,1.6-9.1,0.2c0,0-0.6-0.5,1.3-1.2c0,0,6.1-2.9,7.7-5.4
				c0,0,0.9,2.5,4.7,1.9C371.1,223.4,370.9,224.7,370.5,226z"/>
			<path class="st6" d="M425,184.6l2.4-1.1c0,0,2.8,3.4,2.5,4.6l-3.7,1.3L425,184.6z"/>
			<path class="st7" d="M428.8,181.1l0.5-0.6l3.2,1.6l-0.2,0.4c0,0,0.7,1,3.7,2c0,0,6.1,2.3,4.2,3.8c-0.8,0.1-1.5,0-2.2-0.2
				c0,0-2.7-1.2-8,0l-0.4,0.1c0,0-0.6-3.1-2.7-4.4C426.8,183.7,427.4,181.2,428.8,181.1z"/>
			<path class="st7" d="M361.6,133.4c0.1,0.5,0.3,1,0.7,1.2c0.4,0.3,1,0.3,1.4,0.1c0.3-0.2,0.6-0.5,0.8-0.8c0.2-0.3,0.6-0.4,1-0.3
				c0.3,0.2,0.4,0.4,0.5,0.7c0,0.3,0,0.6,0,0.9c0,0.7,0.4,1.4,1,1.7c0.2,0.1,0.3,0.1,0.5,0.2c0.4,0.2,0.6,0.6,0.7,1.1
				c0,0.2,0,0.3,0.1,0.5s0.2,0.3,0.4,0.3c0.2,0,0.3-0.2,0.4-0.4c0.1-0.3,0.1-0.6,0.1-0.8c-0.1-0.8,0.7-1.5,1.4-1.8
				c0.3-0.2,0.7-0.2,1-0.1c0.4,0.2,0.7,0.5,0.9,0.9c0.7,1.4,1.1,2.9,1.2,4.4c0.6-0.1,1.1-0.2,1.7-0.2c0.6-1.4,0.8-2.9,0.6-4.4
				c-0.1-1.5-0.5-2.9-1.1-4.2c-0.2-0.5-0.5-1-0.8-1.4s-0.6-0.7-1-1c-0.5-0.4-1.1-0.7-1.7-1c-1.8-0.5-3.6-0.5-5.4,0
				c-1.1,0.2-2.2,0.7-3.1,1.4C361.9,131,361.5,132.2,361.6,133.4z"/>
			<path class="st3" d="M365.1,137.8c-0.2-0.1-0.5-0.1-0.7-0.1c-0.3,0.1-0.6,0.3-0.8,0.5l-0.2,0.2"/>
			
				<ellipse transform="matrix(0.9856 -0.1692 0.1692 0.9856 -18.1716 64.0565)" class="st7" cx="366.8" cy="138.7" rx="0.3" ry="0.6"/>
			<path class="st3" d="M365.1,138.4c-0.4,0-0.8,0.2-1.1,0.4v0.1"/>
			<path class="st3" d="M372.1,136.1c0.3,0.6,0.5,1.4,0.4,2.1c0,0.2-0.1,0.5-0.1,0.7c-0.1,0.2-0.2,0.4-0.3,0.6
				c-0.2,0.1-0.4,0.2-0.6,0.2s-0.4-0.2-0.4-0.5"/>
			<polygon class="st6" points="376,142.9 375.1,142.3 369.4,148.8 370.9,150.7 376.3,143.3 			"/>
			<path class="st6" d="M353.5,158.7c-0.2-0.4-0.4-0.9-0.9-0.9c-0.2,0-0.4,0.1-0.5,0.1s-0.6-0.2-0.9-0.2s-0.5,0.2-0.8,0.3
				s-0.6-0.1-0.8,0c-0.2,0.2-0.3,0.4-0.3,0.7s0,0.5-0.1,0.8c-0.1,0.2-0.3,0.4-0.4,0.6s0.1,0.6,0,0.9c0,0.1-0.1,0.2-0.1,0.4
				c-0.1,0.4-0.1,0.8-0.1,1.2c0,0.1,0,0.3,0.1,0.4c0.1,0.3,0.4,0.5,0.7,0.6c0.7,0.2,1.5,0.2,2.2,0.1c0.5,0,0.9,0,1.4,0.1
				c0.6,0.2,1.2,0.2,1.8,0.3c0.1,0,0.2,0,0.2-0.1c0,0,0.1-0.1,0.1-0.2c0.1-0.5,0.2-0.9,0.3-1.4c0.1-0.3,0.2-0.7,0.2-1
				c0-0.2-0.6-0.5-0.8-0.7C354.3,160,353.9,159.4,353.5,158.7z"/>
			<polygon class="st11" points="355.7,160.6 354.6,160.3 353.3,163.7 354.3,164 356.1,164.2 			"/>
			<path class="st11" d="M391.1,179.8L380.5,194c-1,1.1-1.8,2.4-2.3,3.8l-6.2,22.1c0,0-4.1,0.2-5.9-1.1c0,0,2-16.2,2.5-17.9
				c0,0,1-7.8,2.8-10.7c0,0,6.5-13.4,9.4-16C380.7,174.2,389.8,177.5,391.1,179.8z"/>
			<path class="st6" d="M384,170.2l-4.7,3.9c0,0-7.8-9.8-8-12.5C371.2,161.6,382.6,167.1,384,170.2z"/>
			<polygon class="st9" points="380.2,176.3 378.3,174.1 378.7,173.8 380.6,176 			"/>
			<path class="st11" d="M392.6,170.7c0,0,3.7,2.2,3.8,7.9l5.6,9.9c0,0,1.5,2.5,3.5,1.5l19.5-5.9c0,0,1.9,4,1.8,5.6l-17.9,7
				c0,0-7,3.2-11.4-0.2c-4-3.3-7.6-7.1-10.6-11.3l-7.4-10.6l8.7-4.7C388.2,169.9,391.6,169.4,392.6,170.7z"/>
			<polygon class="st7" points="385.2,171.6 380.4,176 378.6,174 384.4,169.4 			"/>
			<path class="st6" d="M397.6,155.8c0.3,0.3,0.5,0.7,0.7,1.2c0.1,0.3,0.2,0.6,0.3,0.9l0.7,2.8c0,0.2,0.1,0.4,0.2,0.6
				c0.2,0.2,0.4,0.4,0.6,0.5c0.4,0.3,0.8,0.6,1.1,1c0.3,0.4,0.6,0.8,1,0.9c0.5,0.1,1-0.1,1.2-0.5c0.1-0.2,0.1-0.3,0.2-0.5
				c0.1-0.1,0.3-0.2,0.4-0.3s0.1-0.6,0.3-0.9s0.4-0.4,0.5-0.6s-0.1-0.3,0-0.4c0.1-0.1,0.1-0.1,0.2-0.1c0.2-0.2,0.3-0.5,0.1-0.8l0,0
				c-0.5-0.6-0.8-1.3-1.4-1.8c-1.1-1.1-2.1-2.2-3.2-3.2c-0.1-0.1-0.1-0.1-0.2-0.2c-0.1,0-0.2,0-0.2,0
				C399,154.5,398.2,155,397.6,155.8z"/>
			<path class="st11" d="M400.8,154l0.5,0.9l-3.3,1.9l-0.8-1.1C397.2,155.8,399.2,153.1,400.8,154z"/>
			<path class="st16" d="M397.5,156.6l-6.1-7.9l-8.3,3.3l-4.2-6.4l11.1-2.9c0,0,2.6-1.2,4.2,0.9l7,10.5L397.5,156.6z"/>
			<path class="st16" d="M364.9,161.4c0,0-0.1,0.6-1,0.4l-8.6-1.6l-1.4,3.9l9.9,3.1c0,0,3.4,1.6,5.4-1.3l2.5-3.5l12.3,9
				c0,0,5.8,4.4,9.1,0.1c1.4-1.9,2.9-3.7,4.6-5.5c0,0,0.7-1-1.1-1.6c0,0-8.8-4.9-10.5-7.6c0,0-5.6-12.4-10.1-14
				C376,142.9,367.3,154.4,364.9,161.4z"/>
		</g>
		<g id="Layer_3-2">
			<path class="st6" d="M416.1,153.9l-1.1-3.3c0-0.1,0-0.1-0.1-0.2c-0.1,0-0.2,0-0.3,0c-0.5,0.1-1.1,0.5-1.6,0.3s-0.6-1.1-1.1-1.5
				c-0.8-0.7,0.5-0.6,0.5-0.8s-0.4-0.3-0.6-0.4s-0.7,0-0.8-0.2s0-0.6-0.2-0.8s-0.9,0-1.1-0.3c-0.1-0.1-0.1-0.3-0.1-0.4
				c0-0.5,0.2-0.9,0.4-1.4c0.1-0.2,0.2-0.4,0.1-0.6c0-0.3-0.3-0.5-0.5-0.7c-0.3-0.6-0.4-1.3-0.3-1.9c0.1-0.9,0-1.8-0.1-2.6
				c0-0.7,0.3-1.3,0.9-1.7c1.3-0.9,2.9-1.3,4.4-0.9c1.5,0.3,2.9,1,4.1,2c0.5,0.3,0.9,0.7,1.3,1.2c0.6,0.9,1,1.9,1.1,3s0.1,2.1,0,3.2
				c-0.1,0.7,0.1,1.5,0.4,2.1c0.1,0.1,0.1,0.2,0.1,0.3s0,0.2-0.1,0.3c-0.2,0.4-0.4,0.7-0.6,1C419.6,151.6,418,153,416.1,153.9z"/>
			<path class="st6" d="M417.7,223.8c0,0-1.1,3.5-1.3,4.2l-5.1-1.6c0.7-1.1,1.2-2.3,1.6-3.6C412.9,222.9,417.5,223,417.7,223.8z"/>
			<path class="st7" d="M416.4,230.8v0.5l-4,0.4l-0.2-0.4c0,0-7.6,1.6-9.1,0.2c0,0-0.6-0.5,1.3-1.2c0,0,6.1-2.9,7.7-5.4
				c0,0,0.9,2.5,4.7,1.9C417,228.2,416.9,229.6,416.4,230.8z"/>
			<path class="st6" d="M471,189.4l2.4-1.2c0,0,2.8,3.4,2.5,4.6l-3.8,1.3L471,189.4z"/>
			<path class="st7" d="M474.8,185.9l0.6-0.6l3.2,1.6l-0.2,0.4c0,0,0.7,1,3.7,2c0,0,6.2,2.3,4.2,3.8c-0.8,0.1-1.5,0-2.2-0.2
				c0,0-2.7-1.2-8,0l-0.4,0.1c0,0-0.6-3.1-2.7-4.5C472.8,188.5,473.3,186.1,474.8,185.9z"/>
			<path class="st7" d="M407.6,138.2c0.1,0.5,0.3,0.9,0.7,1.2c0.4,0.3,1,0.3,1.4,0.1c0.3-0.2,0.6-0.5,0.8-0.8c0.2-0.3,0.6-0.4,1-0.3
				c0.3,0.2,0.4,0.4,0.4,0.7s0,0.6,0,0.9c0,0.7,0.4,1.4,1,1.7c0.2,0.1,0.3,0.1,0.5,0.2c0.4,0.2,0.6,0.6,0.7,1c0,0.2,0.1,0.3,0.1,0.5
				c0.1,0.2,0.2,0.3,0.4,0.3c0.2,0,0.3-0.2,0.4-0.4c0.1-0.3,0.1-0.6,0.1-0.8c-0.1-0.8,0.7-1.5,1.4-1.8c0.3-0.2,0.7-0.2,1-0.1
				c0.4,0.2,0.7,0.5,0.9,0.9c0.7,1.4,1.1,2.9,1.2,4.4c0.6-0.1,1.1-0.2,1.7-0.2c0.6-1.4,0.8-2.9,0.6-4.4c-0.1-1.5-0.5-2.9-1.1-4.2
				c-0.2-0.5-0.5-1-0.8-1.4s-0.6-0.7-1-1c-0.5-0.4-1.1-0.7-1.7-1c-1.8-0.5-3.6-0.5-5.4,0c-1.1,0.2-2.2,0.7-3.1,1.4
				C407.9,135.8,407.4,137,407.6,138.2z"/>
			<path class="st3" d="M411.1,142.6c-0.2-0.1-0.5-0.1-0.7-0.1c-0.3,0.1-0.6,0.3-0.8,0.5c-0.1,0.1-0.1,0.1-0.2,0.2"/>
			<ellipse transform="matrix(0.986 -0.1666 0.1666 0.986 -18.262 70.3979)" class="st7" cx="410.5" cy="144" rx="0.3" ry="0.6"/>
			<path class="st3" d="M411,143.2c-0.4,0-0.8,0.2-1.1,0.4v0.1"/>
			<path class="st3" d="M418.1,140.9c0.3,0.6,0.5,1.4,0.5,2.1c0,0.2-0.1,0.5-0.1,0.7c-0.1,0.2-0.2,0.4-0.3,0.6
				c-0.2,0.2-0.4,0.2-0.6,0.2s-0.4-0.2-0.4-0.5"/>
			<polygon class="st6" points="422,147.7 421.1,147.1 415.4,153.6 416.9,155.6 422.3,148.1 			"/>
			<path class="st6" d="M399.5,163.5c-0.2-0.4-0.4-0.9-0.9-0.9c-0.2,0-0.4,0.1-0.5,0.1s-0.6-0.2-0.9-0.2s-0.5,0.2-0.8,0.3
				s-0.6-0.1-0.8,0c-0.2,0.2-0.3,0.4-0.3,0.7s0,0.5-0.1,0.8c-0.1,0.2-0.3,0.4-0.4,0.6s0.1,0.6,0,0.9c0,0.1-0.1,0.2-0.1,0.4
				c-0.1,0.4-0.1,0.8-0.1,1.2c0,0.1,0,0.3,0.1,0.4c0.1,0.3,0.4,0.5,0.7,0.6c0.7,0.2,1.5,0.2,2.2,0.1c0.5,0,0.9,0.1,1.4,0.1
				c0.6,0.2,1.2,0.3,1.8,0.3c0.1,0,0.2,0,0.2-0.1s0.1-0.1,0.1-0.2c0.1-0.5,0.2-0.9,0.3-1.4c0.1-0.3,0.2-0.7,0.2-1
				c0-0.2-0.6-0.5-0.8-0.7C400.3,164.8,399.8,164.2,399.5,163.5z"/>
			<polygon class="st11" points="401.7,165.5 400.6,165.1 399.3,168.6 400.2,168.9 402.1,169 			"/>
			<path class="st11" d="M437.1,184.7l-10.6,14.2c-1,1.1-1.8,2.4-2.3,3.8l-6.1,22.1c0,0-4.1,0.2-5.9-1.1c0,0,2-16.2,2.5-17.9
				c0,0,1-7.8,2.8-10.7c0,0,6.5-13.4,9.4-16C426.7,179,435.8,182.3,437.1,184.7z"/>
			<path class="st6" d="M430,175l-4.7,3.9c0,0-7.8-9.8-8-12.5C417.2,166.4,428.6,171.9,430,175z"/>
			<polygon class="st9" points="426.2,181.1 424.3,178.9 424.7,178.6 426.6,180.8 			"/>
			<path class="st11" d="M438.5,175.5c0,0,3.7,2.2,3.8,7.9l5.6,9.9c0,0,1.5,2.5,3.5,1.5l19.5-5.9c0,0,1.9,4.1,1.8,5.6l-17.9,7
				c0,0-7,3.2-11.4-0.2c-4-3.3-7.6-7.1-10.6-11.3l-7.4-10.6l8.7-4.7C434.2,174.6,437.5,174.2,438.5,175.5z"/>
			<polygon class="st7" points="431.2,176.5 426.3,180.8 424.6,178.9 430.4,174.2 			"/>
			<path class="st6" d="M443.6,160.6c0.3,0.4,0.5,0.7,0.7,1.2c0.1,0.3,0.2,0.7,0.3,1l0.7,2.8c0,0.2,0.1,0.4,0.2,0.6
				c0.2,0.2,0.4,0.4,0.6,0.5c0.4,0.3,0.8,0.6,1.1,1c0.3,0.4,0.6,0.8,1,1c0.5,0.2,1-0.1,1.2-0.5c0.1-0.2,0.1-0.3,0.2-0.5
				c0.1-0.1,0.3-0.2,0.4-0.3s0.1-0.6,0.3-0.9s0.4-0.4,0.4-0.6s0-0.3,0-0.4c0.1-0.1,0.1-0.1,0.2-0.1c0.2-0.2,0.3-0.5,0.1-0.8l0,0
				c-0.5-0.6-0.8-1.3-1.4-1.8c-1.1-1.1-2.1-2.2-3.2-3.2c-0.1-0.1-0.1-0.1-0.2-0.2c-0.1,0-0.2,0-0.2,0
				C445,159.4,444.2,159.9,443.6,160.6z"/>
			<path class="st11" d="M446.7,158.8l0.5,1l-3.3,1.9l-0.8-1.1C443.2,160.6,445.1,157.9,446.7,158.8z"/>
			<path class="st16" d="M443.4,161.4l-6.1-7.9l-8.3,3.3l-4.2-6.5l11-2.9c0,0,2.6-1.2,4.2,0.9l7,10.5L443.4,161.4z"/>
			<path class="st16" d="M410.9,166.2c0,0-0.1,0.6-1,0.4l-8.6-1.6l-1.4,3.9l9.9,3.1c0,0,3.4,1.6,5.4-1.3l2.5-3.5l12.3,9
				c0,0,5.8,4.4,9.1,0.1c1.4-1.9,3-3.7,4.6-5.5c0,0,0.7-1-1.1-1.6c0,0-8.8-4.9-10.5-7.6c0,0-5.6-12.4-10.1-14
				C422,147.7,413.2,159.3,410.9,166.2z"/>
		</g>
		<g id="Layer_3-3">
			<path class="st6" d="M298.1,163.6l-1.4-4c0-0.1-0.1-0.1-0.1-0.2c-0.1-0.1-0.2-0.1-0.3,0c-0.6,0.2-1.3,0.6-2,0.4s-0.7-1.3-1.3-1.8
				c-1-0.8,0.7-0.7,0.6-1s-0.5-0.4-0.8-0.4s-0.8,0-1-0.2s0-0.7-0.3-1s-1,0-1.3-0.3c-0.1-0.2-0.1-0.3-0.1-0.5
				c0.1-0.6,0.2-1.1,0.5-1.7c0.1-0.2,0.2-0.4,0.2-0.7c0-0.4-0.4-0.6-0.6-0.9c-0.4-0.7-0.5-1.5-0.4-2.3c0.1-1.1,0-2.1-0.2-3.2
				c0-0.8,0.4-1.5,1.1-2c1.5-1.1,3.5-1.5,5.4-1.1c1.8,0.4,3.6,1.2,5,2.4c0.6,0.4,1.1,0.9,1.6,1.5c0.8,1.1,1.2,2.3,1.3,3.6
				c0.1,1.3,0.1,2.6,0,3.9c-0.1,0.9,0.1,1.8,0.5,2.6c0.1,0.1,0.2,0.3,0.2,0.4c0,0.1,0,0.3-0.1,0.4c-0.2,0.5-0.5,0.9-0.8,1.2
				C302.3,160.6,300.5,162.7,298.1,163.6z"/>
			<path class="st6" d="M282.5,242c0,0-2.6,3.6-3.1,4.4l-5.3-3.9c1.2-1,2.3-2.2,3.2-3.5C277.3,239,282.6,240.9,282.5,242z"/>
			<path class="st7" d="M278.4,249.6l-0.2,0.6l-4.8-1l-0.1-0.6c0,0-9.4-1-10.7-3.2c0,0-0.5-0.8,1.9-0.9c0,0,8.1-1,11-3.3
				c0,0,0.1,3.2,4.7,4C280.3,245.1,279.9,248.1,278.4,249.6z"/>
			<path class="st6" d="M366.5,198l2.6-1.9c0,0,4.1,3.5,4,5l-4.2,2.4L366.5,198z"/>
			<path class="st7" d="M370.4,193.1l0.5-0.8l4.2,1.3l-0.2,0.5c0,0,1.1,1.1,4.9,1.6c0,0,7.9,1.5,5.8,3.7c-0.9,0.3-1.8,0.3-2.7,0.2
				c0,0-3.4-0.9-9.7,1.6l-0.4,0.2c0,0-1.4-3.6-4.2-4.8C368.5,196.6,368.6,193.5,370.4,193.1z"/>
			<path class="st7" d="M287.8,144.4c0.1,0.6,0.4,1.2,0.9,1.5s1.2,0.4,1.7,0.1c0.4-0.3,0.7-0.6,1-1s0.8-0.5,1.2-0.4
				c0.3,0.2,0.5,0.5,0.5,0.9s0,0.7,0,1.1c0,0.9,0.4,1.7,1.2,2.1c0.2,0.1,0.4,0.1,0.6,0.2c0.5,0.3,0.8,0.7,0.8,1.3
				c0,0.2,0.1,0.4,0.1,0.6c0.1,0.2,0.2,0.3,0.4,0.3c0.2,0,0.4-0.3,0.5-0.5c0.1-0.3,0.1-0.7,0.1-1c-0.1-1,0.8-1.9,1.8-2.2
				c0.4-0.2,0.8-0.2,1.2-0.1c0.5,0.2,0.9,0.6,1.1,1.1c0.9,1.7,1.4,3.5,1.4,5.4c0.7-0.2,1.4-0.2,2.1-0.2c0.7-1.7,1-3.5,0.8-5.3
				s-0.6-3.5-1.4-5.1c-0.3-0.6-0.6-1.2-1-1.7c-0.4-0.4-0.8-0.8-1.2-1.2c-0.6-0.5-1.3-0.9-2.1-1.2c-2.1-0.8-4.4-0.5-6.6,0
				c-1.4,0.2-2.7,0.8-3.9,1.7C288.1,141.6,287.6,143,287.8,144.4z"/>
			<path class="st3" d="M292,149.8c-0.3-0.1-0.6-0.2-0.9-0.1c-0.4,0.1-0.7,0.4-1,0.6c-0.1,0.1-0.2,0.1-0.2,0.2"/>
			
				<ellipse transform="matrix(0.9865 -0.164 0.164 0.9865 -20.8945 49.8192)" class="st7" cx="291.3" cy="151.5" rx="0.3" ry="0.7"/>
			<path class="st3" d="M292,150.6c-0.5,0-0.9,0.2-1.3,0.5v0.1"/>
			<path class="st3" d="M300.6,147.8c0.4,0.8,0.6,1.7,0.5,2.6c0,0.3-0.1,0.6-0.2,0.8c-0.1,0.3-0.2,0.5-0.4,0.7
				c-0.2,0.2-0.5,0.3-0.7,0.2c-0.3-0.1-0.5-0.3-0.5-0.6"/>
			<polygon class="st6" points="305.3,156.1 304.2,155.4 297.2,163.3 299,165.7 305.6,156.6 			"/>
			<path class="st6" d="M277.8,175.3c-0.2-0.5-0.5-1.1-1.1-1.1c-0.2,0-0.4,0.1-0.6,0.1c-0.4,0-0.7-0.3-1.1-0.2s-0.6,0.3-1,0.3
				s-0.7-0.1-1,0c-0.3,0.2-0.4,0.5-0.4,0.8s0,0.6-0.1,0.9c-0.1,0.3-0.4,0.4-0.5,0.7s0.1,0.7,0,1.1c0,0.1-0.1,0.3-0.1,0.4
				c-0.1,0.5-0.2,0.9-0.1,1.4c0,0.2,0,0.4,0.1,0.5c0.2,0.3,0.5,0.6,0.9,0.7c0.9,0.2,1.8,0.2,2.7,0.2c0.6,0,1.1,0.1,1.7,0.2
				c0.7,0.2,1.5,0.3,2.2,0.4c0.1,0,0.2,0,0.3-0.1c0.1-0.1,0.1-0.1,0.1-0.2c0.2-0.6,0.3-1.1,0.4-1.7c0.1-0.4,0.2-0.8,0.3-1.3
				c0-0.3-0.7-0.6-0.9-0.9C278.8,176.9,278.2,176.1,277.8,175.3z"/>
			<polygon class="st11" points="280.5,177.7 279.1,177.3 277.5,181.4 278.7,181.8 281,182 			"/>
			<path class="st11" d="M319.9,204l-17.7,12.3c-1.6,0.9-3,2.1-4.1,3.6l-15.5,23.2c0,0-4.9-1.4-6.4-3.6c0,0,8.6-18,9.7-19.8
				c0,0,4.1-8.7,7.3-11.3c0,0,12.6-13.1,17-14.9C310,193.5,319.3,200.8,319.9,204z"/>
			<path class="st6" d="M315,189.5l-5.8,4.7c0,0-9.5-11.9-9.8-15.3C299.4,178.9,313.3,185.7,315,189.5z"/>
			<polygon class="st7" points="316.4,191.2 310.5,196.5 308.4,194.1 315.5,188.4 			"/>
			<polygon class="st9" points="310.3,196.8 308,194.2 308.5,193.8 310.8,196.5 			"/>
			<path class="st11" d="M324.7,188c0,0,4.9,1.9,6.2,8.7l8.8,10.7c0,0,2.3,2.7,4.6,1.1l22.2-11.1c0,0,3.2,4.5,3.3,6.4l-20.1,12
				c0,0-7.7,5.3-13.7,2c0,0-8.9-5-15.1-11.4l-11.2-11.2l9.5-7.5C319.2,187.8,323.2,186.6,324.7,188z"/>
			<path class="st6" d="M331.6,171.9c0.3,0.4,0.6,0.9,0.8,1.4c0.1,0.4,0.2,0.8,0.3,1.1l0.8,3.4c0,0.3,0.1,0.5,0.3,0.7
				c0.2,0.2,0.4,0.4,0.7,0.6c0.5,0.3,1,0.7,1.3,1.2c0.4,0.4,0.7,1,1.2,1.2c0.6,0.2,1.2-0.1,1.5-0.6c0.1-0.2,0.2-0.4,0.3-0.6
				c0.1-0.1,0.4-0.2,0.5-0.4s0.1-0.8,0.3-1.1s0.5-0.4,0.5-0.8s-0.1-0.4,0-0.5s0.2-0.1,0.3-0.2c0.3-0.2,0.4-0.6,0.2-0.9l0,0l0,0
				c-0.6-0.7-1-1.6-1.7-2.2c-1.3-1.3-2.6-2.6-3.9-3.9c-0.1-0.2-0.4-0.3-0.6-0.2C333.3,170.3,332.3,170.9,331.6,171.9z"/>
			<path class="st11" d="M335.4,169.8l0.6,1.2l-4,2.3l-0.9-1.3C331.2,171.9,333.5,168.6,335.4,169.8z"/>
			<path class="st16" d="M331.4,172.9l-7.4-9.6l-10.1,4l-5.1-7.9l13.5-3.5c0,0,3.2-1.5,5.2,1.1l8.5,12.8L331.4,172.9z"/>
			<path class="st16" d="M291.7,178.7c0,0-0.1,0.8-1.2,0.5l-10.5-2l-1.7,4.8l12.1,3.9c0,0,4.1,2,6.6-1.5l3-4.3l15,11
				c0,0,7,5.3,11.1,0.1c1.7-2.3,3.6-4.5,5.6-6.6c0,0,0.9-1.2-1.3-2c0,0-10.8-6-12.8-9.3c0,0-6.8-15.2-12.3-17.1
				C305.3,156.1,294.6,170.2,291.7,178.7z"/>
		</g>
		<g id="Layer_3-4">
			<path class="st6" d="M349.6,177.3l-1.6-3.9c0-0.1-0.1-0.1-0.1-0.2c-0.1-0.1-0.2-0.1-0.3,0c-0.6,0.2-1.3,0.7-1.9,0.5
				s-0.8-1.2-1.4-1.7c-1-0.8,0.6-0.8,0.5-1s-0.5-0.4-0.8-0.4s-0.8,0.1-1-0.1s-0.1-0.7-0.4-1s-1,0.1-1.3-0.2
				c-0.1-0.2-0.1-0.3-0.1-0.5c0-0.6,0.1-1.2,0.4-1.7c0.1-0.2,0.2-0.5,0.1-0.7c-0.1-0.4-0.4-0.6-0.7-0.8c-0.5-0.7-0.6-1.5-0.5-2.3
				c0-1.1-0.1-2.1-0.4-3.2c-0.1-0.8,0.3-1.6,0.9-2.1c1.5-1.2,3.4-1.8,5.3-1.5s3.6,1,5.2,2.1c0.6,0.4,1.2,0.8,1.7,1.4
				c0.8,1,1.3,2.2,1.5,3.5s0.2,2.6,0.3,3.9c0,0.9,0.2,1.8,0.6,2.6c0.1,0.1,0.2,0.3,0.2,0.4c0,0.1,0,0.3,0,0.4
				c-0.2,0.5-0.4,0.9-0.7,1.3C353.6,174,351.8,176.2,349.6,177.3z"/>
			<path class="st6" d="M356.9,262.3c0,0-1.1,4.3-1.3,5.3l-6.4-1.6c0.7-1.4,1.3-2.9,1.7-4.5C350.9,261.5,356.5,261.3,356.9,262.3z"
				/>
			<path class="st7" d="M355.8,270.9v0.7l-4.8,0.8l-0.3-0.5c0,0-9.1,2.5-11.1,1c0,0-0.8-0.6,1.4-1.6c0,0,7.2-3.9,9-7.2
				c0,0,1.3,2.9,5.9,1.9C355.9,266,356.7,269,355.8,270.9z"/>
			<path class="st6" d="M419,216.3l2.8-1.6c0,0,3.7,3.9,3.4,5.4l-4.5,1.9L419,216.3z"/>
			<path class="st7" d="M423.4,211.8l0.6-0.8l4,1.8l-0.3,0.5c0,0,1,1.2,4.6,2.1c0,0,7.6,2.3,5.4,4.3c-0.9,0.2-1.8,0.1-2.7-0.1
				c0,0-3.3-1.3-9.8,0.6l-0.4,0.2c0,0-1-3.7-3.7-5.2C421.2,215.1,421.6,212.1,423.4,211.8z"/>
			<path class="st7" d="M338,158.8c0.1,0.6,0.5,1.1,1,1.4c0.5,0.3,1.2,0.3,1.7,0c0.3-0.3,0.7-0.6,0.9-1c0.3-0.4,0.7-0.6,1.2-0.5
				c0.3,0.2,0.6,0.5,0.6,0.9s0,0.7,0,1.1c0,0.9,0.5,1.6,1.3,2c0.2,0.1,0.4,0.1,0.6,0.2c0.5,0.2,0.8,0.7,0.9,1.2
				c0,0.2,0.1,0.4,0.2,0.6c0.1,0.2,0.3,0.3,0.5,0.3s0.4-0.3,0.5-0.5c0.1-0.3,0.1-0.7,0-1c-0.2-1,0.7-1.9,1.6-2.3
				c0.4-0.2,0.8-0.3,1.2-0.2c0.5,0.2,0.9,0.5,1.1,1c1,1.6,1.6,3.4,1.8,5.3c0.7-0.2,1.4-0.3,2.1-0.4c0.6-1.7,0.8-3.6,0.5-5.4
				c-0.3-1.7-0.9-3.4-1.7-5c-0.3-0.6-0.6-1.2-1.1-1.7c-0.4-0.4-0.8-0.8-1.3-1.1c-0.7-0.5-1.4-0.9-2.1-1.1c-2.1-0.7-4.4-0.2-6.6,0.5
				c-1.4,0.3-2.7,1-3.7,1.9C338.1,156,337.7,157.5,338,158.8z"/>
			<path class="st3" d="M342.6,164c-0.3-0.1-0.6-0.2-0.9-0.1c-0.4,0.2-0.7,0.4-0.9,0.7c-0.1,0.1-0.2,0.2-0.2,0.2"/>
			
				<ellipse transform="matrix(0.9736 -0.2284 0.2284 0.9736 -28.7988 82.4631)" class="st7" cx="341.9" cy="165.7" rx="0.3" ry="0.7"/>
			<path class="st3" d="M342.5,164.7c-0.5,0.1-0.9,0.3-1.3,0.6v0.1"/>
			<path class="st3" d="M351,161.3c0.5,0.8,0.7,1.6,0.7,2.5c0,0.3,0,0.6-0.1,0.8c-0.1,0.3-0.2,0.5-0.4,0.7c-0.2,0.2-0.4,0.3-0.7,0.3
				c-0.3,0-0.5-0.3-0.5-0.5"/>
			<polygon class="st6" points="356.2,169.4 355,168.7 348.6,177 350.6,179.3 356.6,169.8 			"/>
			<path class="st6" d="M330.1,190.3c-0.3-0.5-0.6-1-1.1-1c-0.2,0-0.4,0.1-0.6,0.1c-0.4,0-0.8-0.2-1.1-0.2s-0.6,0.3-0.9,0.4
				s-0.7-0.1-1,0.1c-0.2,0.2-0.4,0.5-0.3,0.9c0.1,0.3,0,0.6-0.1,0.9s-0.4,0.5-0.4,0.8s0.1,0.7,0.1,1c0,0.1-0.1,0.3-0.1,0.4
				c-0.1,0.5-0.1,1,0,1.4c0,0.2,0,0.3,0.1,0.5c0.2,0.3,0.5,0.6,0.9,0.6c0.9,0.1,1.8,0.1,2.7,0c0.6,0,1.1,0,1.7,0.1
				c0.7,0.1,1.5,0.2,2.2,0.2c0.1,0,0.2,0,0.2-0.1c0.1-0.1,0.1-0.1,0.1-0.2c0.1-0.6,0.2-1.1,0.3-1.7c0.1-0.4,0.2-0.8,0.2-1.3
				c-0.1-0.3-0.8-0.6-1-0.8C331.1,191.9,330.5,191.1,330.1,190.3z"/>
			<polygon class="st11" points="332.8,192.5 331.5,192.2 330.2,196.4 331.4,196.7 333.6,196.8 			"/>
			<path class="st11" d="M377.4,213.2l-11.9,18c-1.1,1.4-2,3.1-2.5,4.8l-5.8,27.3c0,0-5,0.5-7.3-0.9c0,0,1.2-19.9,1.6-22
				c0,0,0.6-9.6,2.5-13.2c0,0,6.9-16.8,10.2-20.2C364.4,207.1,375.6,210.4,377.4,213.2z"/>
			<path class="st6" d="M368,202l-5.5,5.1c0,0-10.3-11.3-10.7-14.6C351.9,192.5,366.1,198.3,368,202z"/>
			<polygon class="st9" points="363.9,209.7 361.4,207.1 361.9,206.7 364.4,209.2 			"/>
			<path class="st11" d="M378.5,201.9c0,0,4.6,2.4,5.3,9.3l7.6,11.6c0,0,2,3,4.4,1.5l23.2-8.7c0,0,2.7,4.8,2.6,6.7l-21.2,9.8
				c0,0-8.2,4.5-13.9,0.6c0,0-8.3-5.9-13.8-12.9l-9.8-12.3l10.2-6.4C373.1,201.2,377.2,200.4,378.5,201.9z"/>
			<polygon class="st7" points="369.6,203.6 364,209.3 361.8,207 368.5,200.9 			"/>
			<path class="st6" d="M383.5,183.3c0.4,0.4,0.7,0.9,0.9,1.4c0.2,0.4,0.3,0.7,0.4,1.1l1,3.3c0.1,0.3,0.2,0.5,0.3,0.7
				c0.2,0.2,0.5,0.4,0.7,0.5c0.5,0.3,1,0.7,1.4,1.1c0.3,0.5,0.8,0.8,1.3,1.1c0.6,0.1,1.2-0.2,1.4-0.7c0.1-0.2,0.1-0.4,0.2-0.6
				s0.3-0.3,0.5-0.4s0.1-0.8,0.2-1.1s0.5-0.5,0.5-0.8s-0.1-0.4,0-0.5s0.2-0.2,0.3-0.2c0.3-0.2,0.3-0.6,0.1-0.9l0,0
				c-0.7-0.7-1.1-1.5-1.8-2.1c-1.4-1.2-2.8-2.5-4.2-3.7c-0.1-0.1-0.2-0.1-0.3-0.2c-0.1,0-0.2,0-0.3,0
				C385.1,181.6,384.1,182.4,383.5,183.3z"/>
			<path class="st11" d="M387.2,181l0.7,1.1l-3.8,2.6l-1-1.3C383,183.4,385.2,179.9,387.2,181z"/>
			<path class="st16" d="M383.4,184.3l-8-9.1l-9.8,4.6l-5.6-7.5l13.2-4.4c0,0,3.1-1.7,5.2,0.8l9.4,12.2L383.4,184.3z"/>
			<path class="st16" d="M344.1,192.7c0,0-0.1,0.8-1.2,0.6l-10.6-1.4l-1.4,4.9l12.3,3.1c0,0,4.3,1.7,6.5-2l2.8-4.5l15.7,10
				c0,0,7.4,4.9,11.1-0.6c1.6-2.4,3.3-4.8,5.1-7c0,0,0.8-1.3-1.4-1.9c0,0-11.1-5.3-13.4-8.4c0,0-7.8-14.7-13.4-16.2
				C356.2,169.4,346.5,184.1,344.1,192.7z"/>
		</g>
	</g>
</g>
</svg>
