<?xml version="1.0" encoding="utf-8"?>
<!-- Generator: Adobe Illustrator 22.0.1, SVG Export Plug-In . SVG Version: 6.00 Build 0)  -->
<svg version="1.1" id="Layer_1" xmlns="http://www.w3.org/2000/svg" xmlns:xlink="http://www.w3.org/1999/xlink" x="0px" y="0px"
	 viewBox="0 0 888 869.8" style="enable-background:new 0 0 888 869.8;" xml:space="preserve">
<style type="text/css">
	.st0{fill:#FFFFFF;}
	.st1{fill:#BCBCBC;}
	.st2{fill:#FFFFFF;stroke:#000000;stroke-width:0.5;stroke-miterlimit:10;}
	.st3{fill:#1A1A1A;}
	.st4{fill:#1A1A1A;stroke:#000000;stroke-width:0.5;stroke-miterlimit:10;}
	.st5{fill:#EB058C;stroke:#000000;stroke-width:0.5;stroke-miterlimit:10;}
	.st6{fill:#C10072;stroke:#000000;stroke-width:0.5;stroke-miterlimit:10;}
	.st7{fill:#848484;stroke:#000000;stroke-width:0.5;stroke-miterlimit:10;}
	.st8{fill:#0077BF;stroke:#000000;stroke-width:0.5;stroke-miterlimit:10;}
	.st9{fill:none;stroke:#000000;stroke-width:0.5;stroke-miterlimit:10;}
	.st10{fill:none;stroke:#000000;stroke-miterlimit:10;}
	.st11{fill:#FFFCE3;}
	.st12{fill:#FFE600;stroke:#000000;stroke-width:0.5;stroke-miterlimit:10;}
</style>
<title>DT3</title>
<g>
	<g id="Layer_7">
		<path class="st0" d="M317.8,224.7c0,0-43.5-194.5,175.6-219.9c0,0,254.2-59.7,367.3,243.6c0,0,60.6,132.5,1.4,341.5
			c0,0-66.9,168.2-209.5,227.1c0,0-245.2,105.6-464.6,18.3c0,0-285.6-69.9-152.7-298.5c0,0,52.8-74,163.7-76.1
			C199,460.7,370.7,468.6,317.8,224.7z"/>
	</g>
	<ellipse class="st1" cx="186.7" cy="770.6" rx="115.4" ry="18.2"/>
	<ellipse class="st1" cx="416.7" cy="773.3" rx="102.1" ry="16.1"/>
	<path class="st2" d="M305.3,482.5c0,0,6.2,7.9,9.7,10.7c6,5,3.9,9.6,0,7.6s-2.2-1.7-4.7,1.7s-13.2,7.4-15.5,5.2s-4.3-19.4-4.3-19.4
		L305.3,482.5z"/>
	<path class="st2" d="M314.7,478.1c0,0-20,12.6-21.8,15.9s-6.1,12.3,2,13.7c8.1,1.4,12.3-7.4,15.5-5.2c-1,1.1-2.1,2-3.4,2.7
		c-1.8,0.9,5.3,1,8-4.4s6-17.2,6-17.2L314.7,478.1z"/>
	<path class="st2" d="M310.3,502.5c0,0-1.5-9.6-5.1-10.4s-14.9,4.7-10.3,15.5C300.6,508.8,306.5,506.9,310.3,502.5z"/>
	<g id="Layer_7-2">
		<polygon class="st3" points="614.9,435 620.3,449.2 573.3,459.6 571.5,453.2 		"/>
		<path class="st4" d="M446.8,369.8c0,0-3.5,28.6-28,44c-14.5,9.1-32.4,10.8-48.4,4.7c6-2,10-7.6,10.2-13.9
			c13-98.4,60.2-111,60.2-111s14.3-8.6,34.2-1.4c0,0,18.3,6,22,24.4c0,0,7,22.5-12.3,44.2c-3.9,4.3-10.6,19-12.6,24.4l-41.2,5.7"/>
		<path class="st2" d="M599.5,449.1c-1.2-0.6-2.6-0.7-3.9-0.3c-0.4,0.1-0.8,0.3-1.1,0.6c-0.8,0.7-1.8,1-2.8,0.8
			c-0.9-0.2-1.8-0.1-2.7,0.1c-1.6,0.4-3.1,1.3-4.2,2.5c-0.9,1-1.9,1.7-3.1,2.2c-1.6,0.9-2.2,3-1.2,4.6c0.9,1.6,3,2.2,4.6,1.2
			c0.5-0.4,1.2-0.6,1.9-0.5h0.3c0.9,0,1.7-0.4,2.4-1c0.6-0.7,1.6-0.9,2.5-0.7c1,0.3,2.1,0.3,3.1-0.1c0.6-0.2,1.2-0.5,1.6-1
			c0.6-0.7,1.6-1,2.5-0.7s2,0,2.7-0.6C603.7,454.3,601.5,449.9,599.5,449.1z"/>
		<path class="st2" d="M580.3,438L580.3,438c1.6-0.2,3.1-0.3,4.7-0.1l5.5,0.6c3.6,0.7,6.2,0.6,8.3,3c3.3,3.8,7.7,9.5,5.6,11.2
			s-7.2-2.8-9.8-5.6c-0.9-1-2.2-1.3-3.4-0.8c0,0-11.2,10.2-16.2,4.1l-6.9,1.9l-1.8-10.8l7.7-1.8C575.9,438.9,578.1,438.3,580.3,438z
			"/>
		<path class="st2" d="M434.1,751.3c0-1.2,0.1-2.4,0.2-3.6l24.9-116.3c7.3-40.4,25.4-89,19.3-129.6c-1.7-10.6-15.6-6.5-26.3-7.7
			l-9.5,5.9h-8.5l-1,125.8l-11.3,123.6c0,0.8-0.1,1.7-0.2,2.5"/>
		<path class="st2" d="M342.7,759.5c0.7-5.4,2.2-10.7,4.7-15.5c9.7-19.7,55.5-93.5,63.9-118.1c10.1-29.5,46.2-110,46-131.8l-31.5-16
			c-12.1-0.6-18.5,5.8-22,17.3c-5.2,17.3-14.6,57.1-25,118.3c0,0-9.6,28-16,48.7c-5.7,18.2-21.4,66.4-24.8,81.8
			c-0.5,1.7-1.1,3.4-1.8,5c-0.9,1.8-2.2,3.3-3.9,4.4"/>
		<path class="st5" d="M506.2,462.4l61.7-10l-1.8-10.8l-49.4-0.4c-4.7,0-9-2.4-11.4-6.4l-27.7-44.2c0,0-10-9.8-14.7-7.6
			s-12.3,21.8-2.1,33.2c7.5,8.4,24.2,30.1,32.5,41C496.3,461.2,501.3,463.2,506.2,462.4z"/>
		<path class="st5" d="M438.2,367.5L438.2,367.5c-44.1,12.6-32.1,26.4-32.1,26.4c3.6,6.1,6.1,12.7,7.4,19.7l6.7,36.7
			c0.2,5.5-8.5,19.5-11.5,24.1l-6.3,9.8c-1,1.5-0.6,3.4,0.9,4.4c16.1,10.8,46.3,19.9,71,18.6c2.4-0.1,4.3-2.2,4.2-4.6
			c0-0.3-0.1-0.6-0.1-0.8c0,0-0.7-37-2-49.2c-1.2-11-1.3-13.1,3.3-18c1.2-1.2,2.2-2.7,2.8-4.3c1.2-2.9,1.1-6.2-0.3-9l-16.4-39.8
			l-7.9-5.4"/>
		<path class="st5" d="M342.4,428.2c1.2-2.5,2.9-4.8,5.1-6.5c17.5-14.2,51.3-41.6,67.1-44.2c5.5-0.9,9.6,9,15.5,15.7
			c5.4,6-31.7,28.8-61,41.7c-2.6,1.1-4.8,2.8-6.6,5l-41.4,43.7l-6.2-5.4L342.4,428.2z"/>
		<path class="st3" d="M419.5,750.8v22.3h3.3l2.4-9.4l5.9,9.4h32.8c-12.6-2.6-23.4-10.8-29.3-22.3H419.5z"/>
		<path class="st3" d="M330.8,750.8v22.3h3.3l2.4-9.4l5.9,9.4h32.8c-12.6-2.6-23.4-10.8-29.3-22.3H330.8z"/>
		<path class="st2" d="M461.1,378.4l0.3-0.8c-1.4-1.8-0.6-4.4,0.4-6.5c1.2-2.8,2.6-5.5,4.2-8.1c-3.4-5.1-8.1-9.2-13.6-12
			c-1.9-1-3-0.9-3.8,1s-1.2,3.6-2,5.3c-1.6,3.3-3.7,6.4-6.1,9.1c-0.2,0.2-0.4,0.5-0.5,0.9c0,0.3,0.1,0.7,0.2,0.9
			c1.6,3.7,3.7,7.2,6,10.4c0.8,1,1.7,1.9,2.6,2.7c3.5,2.8,8.5,2.2,11.2-1.3C460.5,379.6,460.8,379,461.1,378.4z"/>
		<path class="st2" d="M454.7,359.5c5,4.1,11.4,7.8,17.8,6.4c4.7-1,8.4-4.7,11.2-8.7c2.8-4.4,5.1-9,7-13.8c1.4-2.9,2.5-6.1,3-9.3
			c0.5-4.6-0.9-9.3-2.3-13.7c-2.3-7.4-5-15.2-11.2-19.8c-3.7-2.4-7.7-4.1-12-5c-3.1-1-6.3-1.6-9.5-1.7c-2.7,0.1-5.4,0.8-7.9,1.9
			c-7.1,2.9-13,8.3-16.4,15.1C425.6,329.2,441.2,348.4,454.7,359.5z"/>
		<path class="st3" d="M437.8,346.4c0,0,22.4-23.4,16.1-41.3c0,0,7.4,6.1,14.7,6.2c0,0,18.4,1.1,21.2,16.5c0,0,0.6,9.2,3.4,13.6
			l2.2-6.8l-1.4-15.1l-11.2-18.9l-13.6-8.5l-16.8,1l-12.8,6.3L427.8,320l4.2,18.4L437.8,346.4z"/>
		<path class="st2" d="M453.8,329.4c0.8,0.2,1.7,0.1,2.3-0.5c0.6-0.5,1.2-1.1,1.8-1.7c0.4-0.4,0.9-0.8,1.4-1.1
			c0.5-0.3,1-0.6,1.6-0.8c1.5-0.3,3.1,0.1,4.3,1.1c1.2,1,2.2,2.2,3,3.5"/>
		<path class="st2" d="M476.5,326.6l1.3-1.4c0.9-1.2,2.3-2.1,3.8-2.4c1.3,0.1,2.5,0.4,3.6,1s2.5,0.5,3.6-0.2"/>
		<path class="st2" d="M467.2,321.5c-3.9-2.9-9.3-2.6-12.9,0.5"/>
		<path class="st2" d="M474.9,319.8c2.3-2.5,5.6-3.6,8.9-3"/>
		<path class="st2" d="M473.4,342.5c1.2-0.6,2.3-1.3,3.5-2.1c0.3-0.2,0.5-0.4,0.7-0.7c0.3-0.8,0.2-1.6-0.3-2.3l-1.9-3.8"/>
		<path class="st2" d="M470.3,355c0.9,0.2,1.8,0.5,2.7,0.9c0.3,0.2,0.6,0.3,0.9,0.5c1.2,0.4,2.5-0.6,3-1.7c0.4-1.2,0.6-2.5,0.8-3.7
			c0.3-1,0.9-2,1.1-3c0.1-0.3,0.1-0.6,0-0.9c-0.3-0.5-1-0.6-1.5-0.6c-4,0.5-7.9,1.7-11.4,3.8c-0.1,0.1-0.3,0.1-0.3,0.3
			c-0.4,0.7,1,2.2,1.5,2.7C467.9,354.1,469.1,354.7,470.3,355z"/>
		<path class="st6" d="M476.5,357.1c-1.1,0.7-2.4,0.8-3.7,0.5c-1.2-0.3-2.4-0.9-3.4-1.6c-0.8-0.5-1.6-1.1-2.4-1.7
			c-0.6-0.4-1.2-0.9-1.7-1.5s-0.7-1.3-0.6-2c1.2,1.1,2.5,2,4,2.7c1.9,1,4.1,1.4,6.2,1.1c0.7-0.1,1.8-0.7,2.4,0
			S477.3,356.7,476.5,357.1z"/>
		<path class="st6" d="M479.4,345.6c-2.6-0.8-5.3-0.6-7.8,0.5c-2.4,1.1-4.7,2.5-6.7,4.2c-0.1,0.1-0.3,0.2-0.2,0.4s0.2,0.2,0.4,0.2
			c2.5,0.2,4.9-1.1,7.3-1.8c1.9-0.6,4-0.9,6-0.7C479.9,348.3,481.8,346.4,479.4,345.6z"/>
		
			<ellipse transform="matrix(0.9211 -0.3893 0.3893 0.9211 -91.0625 205.9573)" class="st4" cx="462.6" cy="327.7" rx="1.8" ry="2.3"/>
		
			<ellipse transform="matrix(0.9211 -0.3893 0.3893 0.9211 -88.5176 213.315)" class="st4" cx="482.1" cy="325.1" rx="1.8" ry="2.3"/>
		<path class="st5" d="M426.4,371.4c0,0-12.7-3.9-15.1-0.3s0.9,5,0.9,5s-7.1,0.5-4.6,6.5c2.2,5.3,5.9,1.9,5.9,1.9
			c-1.4,2-1.1,4.8,0.6,6.5c1.7,1.9,4.4,2.4,6.6,1.1c0,0-0.8,5.3,2.5,6.5s6.5-1.7,6.5-1.7s-1.5,3.1,2.1,5.6s6.2-1.8,6.2-1.8
			c-0.1,2.5,1.6,4.8,4,5.5c4.4,1.5,5.5-3,5.5-3s1.2,5.1,5.3,4.7c2.3,0,4.1-1.9,4.2-4.1c0,0,1.3,4.5,5.7,3.2s2.5-5,2.5-5
			s2.5,4.3,5.2,1.6s1.8-4.5,1.8-4.5s1.1,2.1,3.6,0.3s1.7-3.8,1.7-3.8s1.2,0.9,2.8-2.4s-3.7-4.5-3.7-4.5s3.3-2.5,1-3.9
			s-10.3-4-12.2-2.5c0,0-2.6,10.8-13.7,9.3S426.4,371.4,426.4,371.4z"/>
	</g>
	<path class="st2" d="M200.4,318.3l12.4-14.2c0,0,9.2,11.8,13.7,11.6l-8.2,23C218.4,338.8,199.7,326.6,200.4,318.3z"/>
	<polygon class="st7" points="214.4,485.1 256.6,605.2 256.6,756.8 235.5,756.8 220.6,616.1 174.9,521.9 	"/>
	<path class="st7" d="M214.4,485.1c0,0-16.7,22.1-23.5,46.6c-6.8,24.5-8.5,94.8-8.5,94.8L134,756.8h-22.6l31.4-151.5L138,470.8
		L214.4,485.1z"/>
	<path class="st2" d="M214.7,485.7l-76.7-15l13.2-86.5l-25.6,29.6c-1.9,2.1-3,4.8-3.1,7.7l-4.2,70l-13.9,2.7l-4.9-82.1
		c-0.2-2.8,0.6-5.6,2.1-7.9l51.9-78L199,310l18.5,18.4l9.2-5.8l19,30.3l14.5,59.6c0.3,1.4,0.9,2.8,1.7,4l43.5,66l-14.7,5.8
		L237.5,428c-1.1-1.3-2-2.7-2.5-4.3l-10.8-31.6L214.7,485.7z"/>
	<path class="st8" d="M155.6,325.3c0,0,2.5,46-7.5,62.5l-7.4,54.2l24.8,25.9l29-9.8l21.4,18.5l16.2-92.3l13.5-31.4l-9.2-14.8
		l-11.1,5.2l-7.9-15l-14,8.8L187.1,314L155.6,325.3z"/>
	<path class="st2" d="M104.2,494.1c0,0-3,25.1,2.8,27.7c9.6,4.3,6.9-19.8,10.8-17.2c5.2,3.4,4.4-2.9,0.4-13.2L104.2,494.1z"/>
	<path class="st2" d="M258.2,260.6c4,2.7,5,13.3,2.7,19.2s-7,15.8-5.1,17.6c0.7,0.7,2.4,2,2.5,2.7c0.3,1.2-2.8,2.6-4.8,2.7
		c-3.1,0.2-11.5,20.4-27.1,15.2s-23.9-20.1-20.6-33.7S221,235.6,258.2,260.6z"/>
	<path class="st3" d="M224.6,239c0,0,9.8-8,21.2-1.6c11.4,6.4,23.6,24.9,28.6,23.6s4.6,11.9-1.1,13.5c-3.8,1-7.7,1.8-11.6,2.4
		c0,0-3.2-9.8-10.5-11.6c-7.3-1.8-15.3-4.4-16.4-8c0,0-2.1,17.6-11.7,18.1c-2.4,0.1-3.7-4.4-5-3.9c-3.9,1.6-3.9,9.7-3.2,14
		c0,0-10.2,3.2-9.5,7.3s-8.3-3.7-7.6-17.6S209.3,235.8,224.6,239z"/>
	
		<ellipse transform="matrix(0.4492 -0.8934 0.8934 0.4492 -118.6389 380.3588)" class="st4" cx="249.2" cy="286.4" rx="2.7" ry="2.1"/>
	<path class="st9" d="M240.6,300.9c0,0,0.6,7.2,4.9,7"/>
	<path class="st9" d="M238.6,299.6c0.5-0.7,1.2-1.1,2-1.1"/>
	<path class="st10" d="M244.5,278.4c0,0,6.6-1.1,10.8,1.6"/>
	<polygon class="st3" points="235,756.8 235,771.9 243.3,771.9 243.3,768.2 248.4,771.9 286.6,771.9 286.6,771.9 252.6,756.8 	"/>
	<polygon class="st3" points="113,756.8 113,771.9 121.3,771.9 121.3,768.2 126.4,771.9 164.7,771.9 164.7,771.9 130.6,756.8 	"/>
	<path class="st9" d="M244.5,284.6c2.3-1.2,5.1-1.2,7.4,0"/>
	<path class="st11" d="M628.1,429.4l181.2-128.5c0,0,75.4,66.6,35.4,199.1l-211.6-54.8L628.1,429.4z"/>
	<path class="st2" d="M624.9,429.4l2.5-0.8c0.2-0.1,0.5,0.1,0.6,0.3l5.2,16.7c0.1,0.2-0.1,0.5-0.3,0.6l-2.5,0.8
		c-0.2,0.1-0.5-0.1-0.6-0.3l-5.2-16.7C624.6,429.8,624.7,429.5,624.9,429.4z"/>
	<path class="st12" d="M616.5,449.3l-4.3-13.9c-0.4-1.3,0.3-2.1,1.6-3.1l8.7-4.7c1.3-0.4,2.7,0.3,3.1,1.6l5.4,17.6
		c0.4,1.3-0.3,2.7-1.6,3.1l-9.9,1C617.8,450.8,616.9,450.6,616.5,449.3z"/>
</g>
</svg>
