<?xml version="1.0" encoding="utf-8"?>
<!-- Generator: Adobe Illustrator 22.0.1, SVG Export Plug-In . SVG Version: 6.00 Build 0)  -->
<svg version="1.1" id="Layer_1" xmlns="http://www.w3.org/2000/svg" xmlns:xlink="http://www.w3.org/1999/xlink" x="0px" y="0px"
	 viewBox="0 0 664.7 651.1" style="enable-background:new 0 0 664.7 651.1;" xml:space="preserve">
<style type="text/css">
	.st0{fill:#FFFFFF;}
	.st1{fill:#CCCCCC;}
	.st2{fill:#D8D8D8;stroke:#000000;stroke-width:0.5;stroke-miterlimit:10;}
	.st3{fill:#848484;stroke:#000000;stroke-width:0.5;stroke-miterlimit:10;}
	.st4{fill:#F2F2F2;stroke:#000000;stroke-width:0.5;stroke-miterlimit:10;}
	.st5{fill:#353535;stroke:#000000;stroke-width:0.5;stroke-miterlimit:10;}
	.st6{fill:#0077BF;stroke:#000000;stroke-width:0.5;stroke-miterlimit:10;}
	.st7{fill:#848484;}
	.st8{fill:none;stroke:#000000;stroke-width:0.5;stroke-miterlimit:10;}
	.st9{fill:#353535;}
	.st10{fill:#EB058C;}
	.st11{opacity:0.45;fill:#C0EAFF;enable-background:new    ;}
	.st12{fill:#D3D3D3;stroke:#000000;stroke-width:0.5;stroke-miterlimit:10;}
	.st13{fill:#EDEDED;stroke:#000000;stroke-width:0.5;stroke-miterlimit:10;}
	.st14{fill:#FFE600;stroke:#000000;stroke-width:0.5;stroke-miterlimit:10;}
	.st15{enable-background:new    ;}
</style>
<title>DT2</title>
<g>
	<g id="Layer_7">
		<path class="st0" d="M237.8,168.2c0,0-32.6-145.6,131.4-164.6c0,0,190.3-44.7,275,182.3c0,0,45.4,99.2,1.1,255.7
			c0,0-50.1,125.9-156.8,170c0,0-183.6,79-347.8,13.7c0,0-213.8-52.3-114.3-223.5c0,0,39.6-55.4,122.6-57
			C148.9,344.8,277.4,350.8,237.8,168.2z"/>
	</g>
	<ellipse class="st1" cx="323.5" cy="587.5" rx="135.4" ry="16.5"/>
	<path class="st2" d="M293,280.6h13.1c6.3,0,11.4,5.1,11.4,11.4l0,0c0,6.3-5.1,11.4-11.4,11.4H293c-6.3,0-11.4-5.1-11.4-11.4l0,0
		C281.5,285.7,286.6,280.6,293,280.6z"/>
	<path class="st3" d="M387.5,200.4l-3-0.2c2.6-33.1-31-62.9-75.1-66.4s-82.1,20.5-84.7,53.6l-3-0.2c2.8-34.8,42.2-60,88-56.4
		S390.3,165.7,387.5,200.4z"/>
	
		<ellipse transform="matrix(7.985209e-02 -0.9968 0.9968 7.985209e-02 58.3746 504.1949)" class="st4" cx="302.3" cy="220.5" rx="70.1" ry="78.8"/>
	
		<ellipse transform="matrix(7.985209e-02 -0.9968 0.9968 7.985209e-02 58.3746 504.1949)" class="st4" cx="302.3" cy="220.5" rx="70.1" ry="60.7"/>
	<path class="st5" d="M269.3,191.5l69.6,5.6c12,1,21,11.5,20.1,23.5l-0.1,1.6c-1,12-11.5,21-23.5,20.1l-69.6-5.6
		c-12-1-21-11.5-20.1-23.5l0.1-1.6C246.7,199.5,257.2,190.5,269.3,191.5z"/>
	<circle class="st6" cx="324.1" cy="218.6" r="7.2"/>
	<circle class="st6" cx="281.2" cy="215.2" r="7.2"/>
	<path class="st3" d="M319.9,277.7c-2.5-0.2-5.1-0.5-7.8-1l0.5-3c44.7,7.5,64.8-22.5,65-22.8l2.5,1.6
		C379.9,252.9,361.1,281,319.9,277.7z"/>
	<path class="st7" d="M209.6,234.7L209.6,234.7c-3.8,1.3-8.2-1.8-9.1-7c-2-11.7-1-23.7,2.8-35c1.7-4.9,6.5-7.3,10.1-5.4l0,0
		c3.5,1.9,4.9,6.3,3.6,10.1c-3.1,9-3.8,18.6-2.2,28C215.5,229.3,213.4,233.4,209.6,234.7z"/>
	<path class="st8" d="M209.6,234.7L209.6,234.7c-3.8,1.3-8.2-1.8-9.1-7c-2-11.7-1-23.7,2.8-35c1.7-4.9,6.5-7.3,10.1-5.4l0,0
		c3.5,1.9,4.9,6.3,3.6,10.1c-3.1,9-3.8,18.6-2.2,28C215.5,229.3,213.4,233.4,209.6,234.7z"/>
	<path class="st9" d="M224.4,245.2L224.4,245.2c-5.2,1.8-11.4-2.5-12.6-9.7c-2.7-16.3-1.4-33,3.9-48.6c2.3-6.9,9.1-10.1,14-7.6l0,0
		c4.9,2.6,6.8,8.8,5.1,14c-4.2,12.5-5.3,25.8-3.1,38.8C232.6,237.6,229.7,243.4,224.4,245.2z"/>
	<path class="st8" d="M224.4,245.2L224.4,245.2c-5.2,1.8-11.4-2.5-12.6-9.7c-2.7-16.3-1.4-33,3.9-48.6c2.3-6.9,9.1-10.1,14-7.6l0,0
		c4.9,2.6,6.8,8.8,5.1,14c-4.2,12.5-5.3,25.8-3.1,38.8C232.6,237.6,229.7,243.4,224.4,245.2z"/>
	<path class="st7" d="M392.9,249.4L392.9,249.4c3.5,1.8,8.4-0.5,10.1-5.4c3.8-11.3,4.8-23.3,2.8-35c-0.9-5.1-5.3-8.2-9.1-7l0,0
		c-3.8,1.3-5.9,5.4-5.2,9.4c1.6,9.4,0.8,19-2.2,28C388,243.1,389.4,247.5,392.9,249.4z"/>
	<path class="st8" d="M392.9,249.4L392.9,249.4c3.5,1.8,8.4-0.5,10.1-5.4c3.8-11.3,4.8-23.3,2.8-35c-0.9-5.1-5.3-8.2-9.1-7l0,0
		c-3.8,1.3-5.9,5.4-5.2,9.4c1.6,9.4,0.8,19-2.2,28C388,243.1,389.4,247.5,392.9,249.4z"/>
	<path class="st9" d="M376.6,257.4L376.6,257.4c4.9,2.6,11.6-0.7,14-7.5c5.3-15.6,6.6-32.3,3.9-48.6c-1.2-7.1-7.4-11.4-12.6-9.7l0,0
		c-5.2,1.8-8.1,7.5-7.2,13c2.2,13,1.1,26.4-3.1,38.9C369.8,248.6,371.7,254.8,376.6,257.4z"/>
	<path class="st8" d="M376.6,257.4L376.6,257.4c4.9,2.6,11.6-0.7,14-7.5c5.3-15.6,6.6-32.3,3.9-48.6c-1.2-7.1-7.4-11.4-12.6-9.7l0,0
		c-5.2,1.8-8.1,7.5-7.2,13c2.2,13,1.1,26.4-3.1,38.9C369.8,248.6,371.7,254.8,376.6,257.4z"/>
	<path class="st5" d="M303.3,267.6l9.5,0.8c4.1,0.3,7.1,3.9,6.8,7.9l0,0c-0.3,4.1-3.9,7.1-7.9,6.8l-9.5-0.8
		c-4.1-0.3-7.1-3.9-6.8-7.9l0,0C295.7,270.3,299.2,267.3,303.3,267.6z"/>
	<path class="st8" d="M276.6,253.7c0,0,22.2,14.9,46.9,3.8"/>
	<path class="st6" d="M279.8,295.4h38.8c2.9,0,5.3,2.4,5.3,5.3v1c0,2.9-2.4,5.3-5.3,5.3h-38.8c-2.9,0-5.3-2.4-5.3-5.3v-1
		C274.4,297.8,276.8,295.4,279.8,295.4z"/>
	
		<ellipse transform="matrix(0.125 -0.9922 0.9922 0.125 -169.9254 559.7573)" class="st2" cx="232.4" cy="376.2" rx="31.1" ry="15.3"/>
	
		<ellipse transform="matrix(0.2598 -0.9657 0.9657 0.2598 -239.2791 474.1926)" class="st4" cx="189.7" cy="393.2" rx="17.7" ry="47.4"/>
	<circle class="st4" cx="236.7" cy="344.4" r="13.6"/>
	<ellipse class="st6" cx="244.3" cy="332.8" rx="19.2" ry="22"/>
	<path class="st4" d="M337.3,398.1h-75.6c-6.6,0-9.8-5.1-12-12l-15.5-37.5c-8.5-20.6,5.7-44.1,28-45.1c0.5,0,1,0,1.6,0h71.3
		c0.5,0,1,0,1.5,0c22.3,1,36.5,24.4,28,45.1l-15.5,37.5C346.8,393.4,343.9,398.1,337.3,398.1z"/>
	<path class="st8" d="M231.9,338.5c0,0,14.5,12.3,56.9,12.3s80.5-13.2,80.5-13.2"/>
	<ellipse class="st6" cx="355.7" cy="332.8" rx="19.2" ry="22"/>
	<path class="st10" d="M333.6,409.5c-22.5,2.6-45.3,2.6-67.8,0c-3.8-0.4-6.7-3.8-6.3-7.6c0-0.1,0-0.1,0-0.2l0,0
		c0.6-3.8,4.1-6.4,7.9-6c21.4,2.5,43.1,2.5,64.6,0c3.8-0.4,7.3,2.2,7.9,6l0,0c0.5,3.8-2.3,7.3-6.1,7.8
		C333.7,409.5,333.6,409.5,333.6,409.5z"/>
	<path class="st8" d="M333.6,409.5c-22.5,2.6-45.3,2.6-67.8,0c-3.8-0.4-6.7-3.8-6.3-7.6c0-0.1,0-0.1,0-0.2l0,0
		c0.6-3.8,4.1-6.4,7.9-6c21.4,2.5,43.1,2.5,64.6,0c3.8-0.4,7.3,2.2,7.9,6l0,0c0.5,3.8-2.3,7.3-6.1,7.8
		C333.7,409.5,333.6,409.5,333.6,409.5z"/>
	
		<ellipse transform="matrix(4.187758e-02 -0.9991 0.9991 4.187758e-02 -197.326 703.6427)" class="st6" cx="268.2" cy="454.7" rx="23.6" ry="19"/>
	<path class="st4" d="M267,540.8L267,540.8c-12.9-0.4-23-11.2-22.7-24.1l1.3-44.9c0.4-12.9,11.2-23,24.1-22.7l0,0
		c12.9,0.4,23,11.2,22.7,24.1l0.7,45.1C292.6,531.2,279.8,541.2,267,540.8z"/>
	<path class="st2" d="M253.7,534.6l22.1,1.8c5.4,0.4,9.4,5.1,8.9,10.5l0,0c-0.4,5.4-5.1,9.4-10.5,8.9l-22.1-1.8
		c-5.4-0.4-9.4-5.1-8.9-10.5l0,0C243.6,538.2,248.3,534.2,253.7,534.6z"/>
	<path class="st4" d="M271.8,587.5c5.8,0,10.6-4.2,10.6-9.3v-5.8c0-11.9-14-21.7-31-21.7h-7.9c-17.1,0-31,9.8-31,21.7v5.8
		c0,5.1,4.7,9.3,10.6,9.3H271.8z"/>
	<path class="st4" d="M276.2,410.9h48.2c16.7,0,24.5,20.7,12,31.7l-28.2,19.6c-6.9,6.1-17.2,6.1-24.1,0l-20-19.6
		C251.7,431.5,259.5,410.9,276.2,410.9z"/>
	<ellipse class="st8" cx="291" cy="350.6" rx="30.1" ry="46.8"/>
	<path class="st8" d="M312.1,397.3c0,0,4.4,5,0,13.6"/>
	<path class="st8" d="M273.2,396.3c0,0-4.4,5.6,0,13.9"/>
	
		<ellipse transform="matrix(0.2475 -0.9689 0.9689 0.2475 -98.0644 622.424)" class="st2" cx="351.7" cy="374.3" rx="31.1" ry="15.3"/>
	<circle class="st4" cx="359.4" cy="344.4" r="13.6"/>
	
		<ellipse transform="matrix(0.2892 -0.9573 0.9573 0.2892 -144.4396 578.816)" class="st4" cx="317.5" cy="386.7" rx="17.7" ry="47.6"/>
	<path class="st2" d="M163.2,382.9c-1.8,5.8-14.5,5.6-20.3,3.8c-5.8-1.9-9-8.2-7.1-14c1.9-5.7,8-8.9,13.8-7.2
		C155.5,367.3,165.1,377,163.2,382.9z"/>
	<path class="st6" d="M254.1,361.7L254.1,361.7c1-1.7,3.1-2.2,4.8-1.3l7.5,4.3c1.7,1,2.2,3.1,1.3,4.8l0,0c-1,1.7-3.1,2.2-4.8,1.3
		l-7.5-4.3C253.7,365.5,253.1,363.4,254.1,361.7z"/>
	<path class="st6" d="M246.9,365.2l0.1-0.4c0.4-1.5,1.9-2.4,3.5-2l7.6,1.9c1.5,0.4,2.4,1.9,2,3.5l-0.1,0.4c-0.4,1.5-1.9,2.4-3.5,2
		l-7.6-1.9C247.4,368.3,246.5,366.7,246.9,365.2z"/>
	<path class="st6" d="M240.4,369.2l-0.1-0.3c-0.6-1.5,0.2-3.1,1.6-3.7l5.8-2.2c1.5-0.6,3.1,0.2,3.7,1.6l0.1,0.3
		c0.6,1.5-0.2,3.1-1.6,3.7l-5.8,2.2C242.6,371.5,241,370.7,240.4,369.2z"/>
	<path class="st6" d="M245.6,368.9L245.6,368.9c0.5-1.9,2.4-3,4.2-2.5l8.4,2.1c1.9,0.5,3,2.4,2.5,4.2l0,0c-0.5,1.9-2.4,3-4.2,2.5
		l-8.4-2.1C246.2,372.6,245.1,370.7,245.6,368.9z"/>
	<path class="st6" d="M238,373.6L238,373.6c-0.7-1.8,0.2-3.8,2-4.5l6.3-2.4c1.8-0.7,3.8,0.2,4.5,2l0,0c0.7,1.8-0.2,3.8-2,4.5
		l-6.3,2.4C240.7,376.3,238.7,375.4,238,373.6z"/>
	<path class="st6" d="M248.5,373.7L248.5,373.7c0.4-1.7,2.1-2.7,3.8-2.3l7.5,1.9c1.7,0.4,2.7,2.1,2.3,3.8l0,0
		c-0.4,1.7-2.1,2.7-3.8,2.3l-7.5-1.9C249,377,248,375.3,248.5,373.7z"/>
	<path class="st6" d="M241.7,377.9L241.7,377.9c-0.6-1.6,0.2-3.4,1.8-4l5.7-2.1c1.6-0.6,3.4,0.2,4,1.8l0,0c0.6,1.6-0.2,3.4-1.8,4
		l-5.7,2.1C244.1,380.3,242.3,379.5,241.7,377.9z"/>
	<path class="st6" d="M250.5,378.4L250.5,378.4c0.4-1.4,1.8-2.3,3.2-1.9l6.3,1.6c1.4,0.4,2.3,1.8,1.9,3.2l0,0
		c-0.4,1.4-1.8,2.3-3.2,1.9l-6.3-1.6C251,381.2,250.2,379.8,250.5,378.4z"/>
	<path class="st6" d="M244.8,381.9L244.8,381.9c-0.5-1.4,0.2-2.9,1.5-3.4l4.7-1.8c1.4-0.5,2.9,0.2,3.4,1.5l0,0
		c0.5,1.4-0.2,2.9-1.5,3.4l-4.7,1.8C246.9,384,245.3,383.3,244.8,381.9z"/>
	<path class="st2" d="M282.2,380.9c-1.8,5.9-14.5,5.6-20.3,3.8c-5.8-1.9-9-8.2-7.1-14c1.9-5.7,8-8.9,13.8-7.2
		C274.5,365.4,284.1,375.1,282.2,380.9z"/>
	<path class="st11" d="M122.4,339.6l33.8-96.2c0,0,142-45.4,180.3,146.2L221.6,423L122.4,339.6z"/>
	<path class="st12" d="M122.2,331.6l2.4-4.2c0.7-1.2,2-1.9,3.4-1.9l0,0l66.3,6.2c1.6,0.2,3,1.2,3.6,2.7l33.6,80.6
		c0.5,1.1,0.4,2.4-0.1,3.5l0,0c-1.2,2.6-7.6,6.2-9.8,4.4l-99.2-83.3C120,337.7,119.9,335.6,122.2,331.6z"/>
	<path class="st4" d="M193.5,420.3l-15.8-1.4c-1.3-0.1-2.5-0.8-3.3-1.9l-52.8-77.8c-1.4-2-0.8-4.7,1.2-6.1c0.9-0.6,1.9-0.8,2.9-0.7
		l63.9,6.6c1.6,0.2,2.9,1.2,3.6,2.6l32.7,75.5c1,2.2-0.1,4.8-2.3,5.8c-0.7,0.3-1.4,0.4-2.2,0.3L193.5,420.3"/>
	<line class="st8" x1="195.9" y1="333.6" x2="192.1" y2="339.1"/>
	<path class="st12" d="M185.1,349.6l-9.2-0.8c-1.8-0.1-3.3-1.6-3.3-3.4l0,0c0.1-1.7,1.5-2.9,3.2-2.8c0.1,0,0.2,0,0.3,0l9.2,0.8
		c1.8,0.1,3.3,1.6,3.3,3.4l0,0c-0.1,1.7-1.5,2.9-3.2,2.8C185.3,349.7,185.2,349.7,185.1,349.6z"/>
	<ellipse transform="matrix(0.2939 -0.9558 0.9558 0.2939 -203.302 416.8563)" class="st5" cx="180.5" cy="346" rx="2.5" ry="2.8"/>
	<ellipse transform="matrix(0.2939 -0.9558 0.9558 0.2939 -203.302 416.8563)" class="st6" cx="180.5" cy="346" rx="1.2" ry="1.4"/>
	<path class="st6" d="M140.9,368.4l0.1-0.4c0.4-1.5,1.9-2.4,3.5-2l7.6,1.9c1.5,0.4,2.4,1.9,2,3.5l-0.1,0.4c-0.4,1.5-1.9,2.4-3.5,2
		l-7.6-1.9C141.4,371.4,140.5,369.9,140.9,368.4z"/>
	<path class="st6" d="M134.4,372.4l-0.1-0.3c-0.6-1.5,0.2-3.1,1.6-3.7l5.8-2.2c1.5-0.6,3.1,0.2,3.7,1.6l0.1,0.3
		c0.6,1.5-0.2,3.1-1.6,3.7l-5.8,2.2C136.6,374.6,135,373.9,134.4,372.4z"/>
	<path class="st6" d="M139.6,372.1L139.6,372.1c0.5-1.9,2.4-3,4.2-2.5l8.4,2.1c1.9,0.5,3,2.4,2.5,4.2l0,0c-0.5,1.9-2.4,3-4.2,2.5
		l-8.4-2.1C140.2,375.8,139.1,373.9,139.6,372.1z"/>
	<path class="st6" d="M132,376.7L132,376.7c-0.7-1.8,0.2-3.8,2-4.5l6.3-2.4c1.8-0.7,3.8,0.2,4.5,2l0,0c0.7,1.8-0.2,3.8-2,4.5
		l-6.3,2.4C134.7,379.4,132.7,378.5,132,376.7z"/>
	<path class="st6" d="M142.4,376.8L142.4,376.8c0.4-1.7,2.1-2.7,3.8-2.3l7.5,1.9c1.7,0.4,2.7,2.1,2.3,3.8l0,0
		c-0.4,1.7-2.1,2.7-3.8,2.3l-7.5-1.9C143,380.2,142,378.5,142.4,376.8z"/>
	<path class="st6" d="M135.6,381L135.6,381c-0.6-1.6,0.2-3.4,1.8-4l5.7-2.1c1.6-0.6,3.4,0.2,4,1.8l0,0c0.6,1.6-0.2,3.4-1.8,4
		l-5.7,2.1C138.1,383.5,136.3,382.7,135.6,381z"/>
	<path class="st6" d="M144.5,381.6L144.5,381.6c0.4-1.4,1.8-2.3,3.2-1.9l6.3,1.6c1.4,0.4,2.3,1.8,1.9,3.2l0,0
		c-0.4,1.4-1.8,2.3-3.2,1.9l-6.3-1.6C145,384.4,144.1,383,144.5,381.6z"/>
	<path class="st6" d="M138.8,385.1L138.8,385.1c-0.5-1.4,0.2-2.9,1.5-3.4l4.7-1.8c1.4-0.5,2.9,0.2,3.4,1.5l0,0
		c0.5,1.4-0.2,2.9-1.5,3.4l-4.7,1.8C140.8,387.1,139.3,386.5,138.8,385.1z"/>
	
		<ellipse transform="matrix(0.2475 -0.9689 0.9689 0.2475 -191.7577 661.5142)" class="st6" cx="330" cy="454.2" rx="23.6" ry="19"/>
	<path class="st4" d="M342.5,543.4L342.5,543.4c-12.9,1-24.1-8.6-25.1-21.5l-3.5-44.8c-1-12.9,8.7-24.1,21.5-25.1l0,0
		c12.9-1,24.1,8.7,25.1,21.5l5.5,44.8C367,531.1,355.3,542.4,342.5,543.4z"/>
	<path class="st2" d="M332.2,533.1l22.1,1.8c5.4,0.4,9.4,5.1,8.9,10.5l0,0c-0.4,5.4-5.1,9.4-10.5,8.9l-22.1-1.8
		c-5.4-0.4-9.4-5.1-8.9-10.5l0,0C322.1,536.7,326.8,532.7,332.2,533.1z"/>
	<path class="st4" d="M356.7,587.5c5.8,0,10.6-4.2,10.6-9.3v-5.8c0-11.9-14-21.7-31-21.7h-7.9c-17.1,0-31,9.8-31,21.7v5.8
		c0,5.1,4.7,9.3,10.6,9.3H356.7z"/>
	<path class="st13" d="M117.1,307.1h-7.9l1,10.7l-13-10.7H39.8c-9.1,0-16.5-7.4-16.5-16.5v-43.7c0-9.1,7.4-16.5,16.5-16.5h77.3
		c9.1,0,16.5,7.4,16.5,16.5v43.7C133.6,299.7,126.2,307.1,117.1,307.1z"/>
	<path class="st13" d="M348.6,110.6h11.6l-1.5,15.8l19.2-15.8h194.9c13.5,0,24.4-11,24.4-24.4V61.7c0-13.5-10.9-24.4-24.4-24.4
		H348.6c-13.5,0-24.4,10.9-24.5,24.4v24.5C324.1,99.7,335.1,110.6,348.6,110.6z"/>
	<path class="st14" d="M61.1,253.7h34.6c3.1,0,5.7,2.6,5.7,5.7v22.3c0,3.1-2.6,5.7-5.7,5.7H61.1c-3.1,0-5.7-2.6-5.7-5.7v-22.3
		C55.4,256.2,58,253.7,61.1,253.7z"/>
	<polyline class="st8" points="55.4,259.4 78.4,272 101.4,259.4 	"/>
	<g class="st15">
		<path class="st9" d="M364.6,81.7h-2.4v-8.3h-9.3v8.3h-2.3V64h2.3v7.4h9.3V64h2.3v17.7H364.6z"/>
		<path class="st9" d="M379.9,75.2c0,4.3-2.3,6.9-6.2,6.9c-3.9,0-6.3-2.5-6.3-6.8s2.4-6.8,6.3-6.8C377.6,68.5,379.9,71,379.9,75.2z
			 M369.6,75.3c0,3.2,1.5,5,4.1,5c2.5,0,4-1.9,4-5s-1.5-5-4-5S369.6,72.2,369.6,75.3z"/>
		<path class="st9" d="M383.6,68.9l2.9,10.6l2.6-10.6h2.3l2.7,10.6l2.9-10.6h2.2l-4.1,12.8h-2.2l-2.6-10.1l-2.6,10.1h-2.3l-4.2-12.8
			H383.6z"/>
		<path class="st9" d="M413.6,82.1c-4,0-6.1-2.7-6.1-6.6c0-4.3,2.4-7,6.2-7c3.1,0,5.1,1.6,5.4,4.5h-2.2c-0.4-1.8-1.5-2.8-3.2-2.8
			c-2.4,0-4,1.9-4,5s1.4,5,3.8,5c1.9,0,3.2-1.2,3.5-3.3h2.1C418.8,80.1,416.8,82.1,413.6,82.1z"/>
		<path class="st9" d="M432.9,81.7c-0.4,0.2-1,0.2-1.4,0.2c-1.2,0-1.8-0.7-1.9-1.9c-1.3,1.4-2.7,2-4.6,2c-2.5,0-4.1-1.4-4.1-3.6
			c0-2.3,1.5-3.6,4.5-4c3.1-0.4,4.1-0.3,4.1-2c0-1.4-1-2.1-2.9-2.1c-2,0-3,0.7-3.2,2.6h-2.1c0.1-2.7,2.1-4.3,5.4-4.3
			c1.7,0,3.2,0.4,4,1.2c0.9,0.9,0.9,2.2,0.9,3.3c0,1.9-0.1,3.8-0.1,5.7c0,0.9,0.2,1.3,0.9,1.3c0.2,0,0.3,0,0.5-0.1L432.9,81.7
			L432.9,81.7z M426.6,75.8c-1.5,0.2-3.6,0.4-3.6,2.4c0,1.3,1,2.1,2.6,2.1c2,0,3.9-1.4,3.9-3V75C428.7,75.6,427.6,75.7,426.6,75.8z"
			/>
		<path class="st9" d="M436.8,70.9c1.1-1.6,2.4-2.3,4.4-2.3c3.1,0,4.3,1.7,4.3,4.6v8.5h-2.1v-7.6c0-2-0.1-3.8-2.8-3.8
			c-2.8,0-3.7,2.1-3.7,4.6v6.7h-2.1V68.9h2L436.8,70.9L436.8,70.9z"/>
		<path class="st9" d="M458.4,81.7h-2.3V64h2.3V81.7z"/>
		<path class="st9" d="M471.1,70.7c0.9-1.4,2.4-2.1,4.2-2.1c3.1,0,4.3,1.7,4.3,4.4v8.8h-2.1v-8.3c0-1.8-0.5-3-2.8-3
			c-2.7,0-3.6,1.9-3.6,4.8v6.5H469V64h2.1V70.7z"/>
		<path class="st9" d="M488.1,82.1c-3.8,0-6-2.5-6-6.7s2.4-7,6-7c4.2,0,5.8,3.4,5.8,7.1v0.3h-9.7v0.1c0,2.7,1.5,4.4,4,4.4
			c1.8,0,2.9-0.8,3.5-2.7h2.1C493.1,80.6,491.2,82.1,488.1,82.1z M488,70.3c-2.1,0-3.5,1.5-3.8,3.9h7.5
			C491.5,71.7,490.1,70.3,488,70.3z"/>
		<path class="st9" d="M498.4,81.7h-2.2V64h2.1v17.7H498.4z"/>
		<path class="st9" d="M503.6,70.7c1-1.6,2.4-2.2,4.3-2.2c3.6,0,5.8,2.6,5.8,6.7c0,4.2-2.2,6.8-5.7,6.8c-1.9,0-3.2-0.6-4.3-2.1v6.7
			h-2.1V68.9h2V70.7z M503.7,75.3c0,3.1,1.5,5,4,5c2.4,0,3.9-1.9,3.9-5s-1.5-5-4-5C505.2,70.3,503.7,72.1,503.7,75.3z"/>
		<path class="st9" d="M528.4,83.4c-0.7,1.8-1.4,3.5-3.7,3.5c-0.5,0-1-0.1-1.6-0.2v-1.9c0.7,0.2,1,0.3,1.4,0.3
			c0.7,0,1.2-0.5,1.5-1.1l1-2.3l-5.1-12.8h2.4l3.8,10.2l3.6-10.2h2.2L528.4,83.4z"/>
		<path class="st9" d="M547.5,75.2c0,4.3-2.3,6.9-6.2,6.9s-6.3-2.5-6.3-6.8s2.4-6.8,6.3-6.8C545.2,68.5,547.5,71,547.5,75.2z
			 M537.2,75.3c0,3.2,1.5,5,4.1,5c2.5,0,4-1.9,4-5s-1.5-5-4-5S537.2,72.2,537.2,75.3z"/>
		<path class="st9" d="M560.6,81.7h-2v-2c-1.1,1.6-2.5,2.4-4.4,2.4c-2.7,0-4.3-1.5-4.3-4.3V69h2.1v8.3c0,1.8,0.5,3.1,2.7,3.1
			c2.8,0,3.8-2,3.8-4.6v-6.7h2.1L560.6,81.7L560.6,81.7z"/>
		<path class="st9" d="M569.2,63.7c3.2,0,5.2,1.9,5.2,4.8c0,1.9-0.7,3-1.9,4.2c-1.7,1.6-2.4,1.9-2.4,4.8h-2v-0.1
			c0-3,0.7-3.7,2.7-5.7c1.1-1.1,1.4-1.8,1.4-2.9c0-1.9-1.2-3.1-3-3.1c-2.5,0-3.4,1.8-3.5,4h-2.1C563.6,66.3,565.4,63.7,569.2,63.7z
			 M570.3,81.7h-2.6v-2.5h2.6V81.7z"/>
	</g>
</g>
</svg>
