<?xml version="1.0" encoding="utf-8"?>
<!-- Generator: Adobe Illustrator 21.0.2, SVG Export Plug-In . SVG Version: 6.00 Build 0)  -->
<svg version="1.1" id="Layer_1" xmlns="http://www.w3.org/2000/svg" xmlns:xlink="http://www.w3.org/1999/xlink" x="0px" y="0px"
	 viewBox="0 0 24 17" style="enable-background:new 0 0 24 17;" xml:space="preserve">
<style type="text/css">
	.st0{fill:#3E75BA;}
</style>
<path id="Forma_1" class="st0" d="M16.2,0.3c-0.3-0.3-0.8-0.4-1.2,0c0,0,0,0,0,0c-0.3,0.3-0.3,0.9,0,1.2l6.1,6.2H0.9
	C0.4,7.6,0,8,0,8.5c0,0,0,0,0,0C0,9,0.4,9.4,0.8,9.4c0,0,0,0,0,0h20.2L15,15.5c-0.3,0.3-0.3,0.9,0,1.2c0.3,0.3,0.8,0.4,1.2,0
	c0,0,0,0,0,0l7.6-7.6c0.3-0.3,0.3-0.9,0-1.2L16.2,0.3z"/>
</svg>
