<?xml version="1.0" encoding="utf-8"?>
<!-- Generator: Adobe Illustrator 21.0.2, SVG Export Plug-In . SVG Version: 6.00 Build 0)  -->
<svg version="1.1" id="Layer_1" xmlns="http://www.w3.org/2000/svg" xmlns:xlink="http://www.w3.org/1999/xlink" x="0px" y="0px"
	 viewBox="0 0 25 22" style="enable-background:new 0 0 25 22;" xml:space="preserve">
<style type="text/css">
	.st0{fill:#3E75BA;}
</style>
<path id="Forma_1" class="st0" d="M24.7,7.3l-7.2-7c-0.3-0.3-0.9-0.3-1.2,0c0,0,0,0,0,0c-0.2,0.2-0.3,0.4-0.3,0.6v3.5H13
	C6.3,4.4,2.3,6.2,0.7,9.9C0.2,11.4,0,13,0,14.5c0.2,2.2,0.8,4.3,1.8,6.2c0,0.1,0.1,0.2,0.2,0.3s0.1,0.3,0.2,0.4
	c0,0.1,0.1,0.2,0.2,0.3C2.4,21.9,2.5,22,2.7,22c0.1,0,0.2,0,0.3-0.1c0.1-0.1,0.1-0.2,0.1-0.3c0-0.1,0-0.2,0-0.4c0-0.1,0-0.2,0-0.3
	C3,20.2,3,19.6,3,19.1c0-0.8,0.1-1.7,0.2-2.5c0.1-0.7,0.4-1.3,0.7-1.9c0.3-0.5,0.7-1,1.1-1.4c0.4-0.4,0.9-0.7,1.5-1
	c0.6-0.3,1.2-0.5,1.9-0.6c0.7-0.1,1.4-0.2,2.2-0.3c0.7,0,1.5-0.1,2.4-0.1h3.1V15c0,0.2,0.1,0.5,0.3,0.6c0.3,0.3,0.9,0.3,1.2,0
	c0,0,0,0,0,0l7.2-7C24.9,8.4,25,8.2,25,7.9C25,7.7,24.9,7.5,24.7,7.3z"/>
</svg>
