<?xml version="1.0" encoding="utf-8"?>
<!-- Generator: Adobe Illustrator 21.0.2, SVG Export Plug-In . SVG Version: 6.00 Build 0)  -->
<svg version="1.1" id="Layer_1" xmlns="http://www.w3.org/2000/svg" xmlns:xlink="http://www.w3.org/1999/xlink" x="0px" y="0px"
	 viewBox="0 0 30 18" style="enable-background:new 0 0 30 18;" xml:space="preserve">
<style type="text/css">
	.st0{fill:#3E75BA;}
</style>
<path class="st0" d="M15,0C9.3,0,4.1,3.2,0.2,8.3c-0.3,0.4-0.3,1,0,1.4C4.1,14.8,9.3,18,15,18s10.9-3.2,14.8-8.3
	c0.3-0.4,0.3-1,0-1.4C25.9,3.2,20.7,0,15,0z M15.4,15.3c-3.5,0.2-6.5-2.4-6.8-5.9C8.4,6,11,2.9,14.5,2.7c3.5-0.2,6.5,2.4,6.8,5.9
	c0,0.3,0,0.6,0,0.9C21.1,12.6,18.6,15.1,15.4,15.3z M15.2,12.4c-1.9,0.1-3.5-1.3-3.7-3.2c-0.1-1.9,1.3-3.5,3.2-3.7
	c1.9-0.1,3.5,1.3,3.7,3.2c0,0.2,0,0.3,0,0.5C18.3,10.9,16.9,12.3,15.2,12.4L15.2,12.4z"/>
</svg>
