<?xml version="1.0" encoding="utf-8"?>
<!-- Generator: Adobe Illustrator 22.0.1, SVG Export Plug-In . SVG Version: 6.00 Build 0)  -->
<svg version="1.1" id="Layer_1" xmlns="http://www.w3.org/2000/svg" xmlns:xlink="http://www.w3.org/1999/xlink" x="0px" y="0px"
	 viewBox="0 0 587.5 803.1" style="enable-background:new 0 0 587.5 803.1;" xml:space="preserve">
<style type="text/css">
	.st0{fill:#FFFFFF;}
	.st1{fill:#CCCCCC;}
	.st2{fill:#1A1A1A;stroke:#000000;stroke-width:0.5;stroke-miterlimit:10;}
	.st3{fill:#E2E2E2;stroke:#000000;stroke-width:0.5;stroke-miterlimit:10;}
	.st4{fill:#FFFFFF;stroke:#000000;stroke-width:0.5;stroke-miterlimit:10;}
	.st5{fill:#1A1A1A;}
	.st6{fill:#C10072;stroke:#000000;stroke-width:0.5;stroke-miterlimit:10;}
	.st7{fill:none;stroke:#000000;stroke-width:0.5;stroke-miterlimit:10;}
	.st8{fill:#EB058C;stroke:#000000;stroke-width:0.5;stroke-miterlimit:10;}
	.st9{fill:#0077BF;stroke:#000000;stroke-width:0.5;stroke-miterlimit:10;}
	.st10{enable-background:new    ;}
</style>
<title>SE41</title>
<g id="Layer_7">
	<path class="st0" d="M0,523.5c16.3,132.6,101.8,208,164,216.7c160,22.5,260.2-73.9,315.7-133.2c78.9-84.3,111.5-219.3,107.5-281.8
		C578,182.6,484.3,91.1,484.3,91.1c-168.1-174.5-344-44.7-344-44.7C-2.5,129.3,53.8,269.7,53.8,269.7s24,78.5,1.2,110.9
		S1.1,440.4,0,523.5z"/>
</g>
<ellipse class="st1" cx="258.7" cy="772.7" rx="161.6" ry="30.3"/>
<path class="st2" d="M351,335.2c23.4,11.6,53.2-24.3,53.2-24.3s15.5-8.8,14.5-23.3c0,0-6.3,12.4-26.9-3.5
	c-10.2-8-15.3-20.8-23.1-31.1c0,0-14.5-18.3-36-23.7c0,0-16.7-6.5-36.5,4.6c0,0-18.3,9.7-18.9,29.7c0,0-3.4,25,20.8,44.5
	c4.9,3.8,9,8.6,12.1,13.9l36.6,10.5"/>
<path class="st3" d="M302.6,481.4c0,0-109.9,227.7-128,268.1h-13.9L259,426.9C259,426.9,307.7,417,302.6,481.4z"/>
<path class="st3" d="M287.7,436.1c0,0,50.5,264.4,55.4,308.5l14.6,6.9L351.4,456c0,0-5.5-20.8-11.2-27.7
	C325.7,410.5,300,399,287.7,436.1z"/>
<path class="st2" d="M357.5,743.3c7.8,15.1,25.1,26,41.8,29.4H356l-7.7-12.3l-3.1,12.3h-4.3l2.2-28.1L357.5,743.3z"/>
<path class="st2" d="M176.8,743.3l1.6,29.4h-4.3l-3.1-12.3l-7.7,12.3H120c16.7-3.5,34.9-14.3,42.6-29.4H176.8z"/>
<polygon class="st4" points="381.9,282 397.9,216.4 408.3,219.7 400.8,290.4 342.6,361.6 327.8,335.2 "/>
<polygon class="st4" points="244.4,277.7 244.5,210.1 233.5,210.9 224,281.4 262.9,366.6 284.4,342.2 "/>
<path class="st4" d="M274.1,320.3c0,0,22,2.4,25.6-7s-1.8-14.5-1.8-14.5l20.9-2.8c0,0-2.5,18.3,10.2,23c0.9,0.3,15.4,1.5,16.4,1.7
	c0,0-4.4,32-8.2,48.5c-6.5,27.7-29.1,45.3-40.8,47.7c-11.3,2.3-35.5-24.6-38.1-51.8C256.5,347.2,275,328.6,274.1,320.3z"/>
<path class="st4" d="M244.5,210.1c0,0,9.8-13.6,5.8-13.1c-0.9,0.1-3,1.7-3.4,1.4c-1.4-1.4-1-4.9-3.1-10.4
	c-2.5-6.6-11.6-3.3-10.2,22.8L244.5,210.1z"/>
<path class="st4" d="M321.8,295.1c-5.4,4.4-12.3,8.3-19.1,6.8c-5-1.1-9-5-11.9-9.3c-2.3-3.4-4.1-7-5.4-10.9
	c-1.5-3.2-1.3-4.3-1.9-7.8c-0.5-5.1,0-10.2,1.6-15.1c2.5-7.9,5.3-14.7,11.9-19.6c3.9-2.6,8.3-4.4,12.9-5.4c3.3-1.1,6.7-1.7,10.2-1.8
	c2.9,0.1,5.8,0.8,8.5,2c7.6,3.1,13.9,8.9,17.5,16.3C355.5,269.9,336.3,283.3,321.8,295.1z"/>
<path class="st5" d="M284.7,283.2l-4.2-7.4l1.5-16.3l12.1-20.3l14.6-9.1l18.1,1.2l13.7,6.8l12.6,22.1l-4.6,19.8l-8.1,11.1
	c0,0-12.9-12.4-10.1-40.4c0,0-26.5-8-26.1-15.2C304.1,235.5,272.6,252.3,284.7,283.2z"/>
<path class="st4" d="M313.2,254.9c7.4-3.8,9.7-0.4,13.7,3"/>
<path class="st4" d="M301.6,251.7c-2.4-2.6-6.1-2.2-9.6-1.5"/>
<path class="st4" d="M308.3,266.9c-1.3-0.7-2.5-1.4-3.7-2.3c-0.3-0.2-0.6-0.4-0.8-0.7c-0.3-0.8-0.2-1.7,0.4-2.4l2.1-4"/>
<path class="st4" d="M307.2,283c-1,0.2-1.9,0.5-2.9,0.9c-0.3,0.2-0.6,0.4-0.9,0.5c-1.3,0.4-2.7-0.6-3.2-1.9c-0.4-1.3-0.7-2.7-0.9-4
	c-0.5-1.1-0.8-2.1-1.1-3.3c-0.1-0.3-0.1-0.6,0.1-0.9c0.4-0.5,1.1-0.7,1.7-0.6c4.3,0.5,8.5,1.9,12.2,4.1c0.1,0.1,0.3,0.2,0.4,0.3
	c0.5,0.7-1.1,2.3-1.6,2.9C309.8,282,308.6,282.6,307.2,283z"/>
<path class="st6" d="M300.5,285.3c1.2,0.7,2.6,0.9,4,0.6c1.3-0.4,2.6-1,3.7-1.8c0.9-0.6,1.7-1.2,2.6-1.8c0.7-0.5,1.3-1,1.8-1.7
	c0.5-0.6,0.7-1.4,0.7-2.2c-1.3,1.1-2.7,2.1-4.3,2.9c-2.1,1.1-4.4,1.5-6.7,1.2c-0.8-0.1-2-0.8-2.6,0S299.7,284.8,300.5,285.3z"/>
<path class="st6" d="M297.5,272.9c2.8-0.8,5.7-0.6,8.4,0.5c2.6,1.2,5,2.7,7.3,4.5c0.1,0.1,0.3,0.3,0.3,0.4s-0.2,0.2-0.5,0.1
	c-2.7,0.2-5.2-1.2-7.8-2c-2.1-0.7-4.3-0.9-6.5-0.8C296.9,275.8,294.9,273.8,297.5,272.9z"/>
<ellipse transform="matrix(0.3915 -0.9202 0.9202 0.3915 -44.3214 450.7014)" class="st2" cx="318.6" cy="258.9" rx="2.5" ry="2"/>
<path class="st7" d="M313.6,258.1c0,0,5-4.1,8.2,0s6,3.2,6,3.2"/>
<ellipse transform="matrix(0.9999 -1.535801e-02 1.535801e-02 0.9999 -3.8859 4.5915)" class="st2" cx="297" cy="255.3" rx="2" ry="2.5"/>
<path class="st7" d="M301.6,257.3c0,0-2-6.1-6.9-4.4s-6.8-0.5-6.8-0.5"/>
<path class="st8" d="M224,281.4l34.3,75.2c0,0-1,7.4-0.9,9.9c0.5,7.6,4.6,21.1,6.8,29.9S259,427,259,427s34.2,21.6,81.2,1.4
	c0,0-11.1-22.9-8.4-29.7s3.1-12.4,10.2-27.2l58.8-81l7.5-70.7l-10.5-3.3l-16,65.6l-24.3,24l-13.4,12.7l-11.2,0.8l-17.2,13.2l-22.1-1
	l-4-12l-8.7,0.9L258.5,301l-14.3-23.1l0.1-67.5l-10.9,0.7L224,281.4z"/>
<path class="st4" d="M397.9,216.4c0,0-6.3-15.5-2.5-14.1c0.8,0.3,2.5,2.4,3,2.1c1.7-1.1,2.1-4.6,5.5-9.4c4-5.8,12.1-0.4,4.5,24.6
	L397.9,216.4z"/>
<path class="st8" d="M265.4,372.8c0,0,8.8,4.9,17.1-1.4"/>
<path class="st8" d="M303.3,371.4c7.2,5.4,16.7,6.7,25,3.2"/>
<path class="st9" d="M90.9,318.4l25.3-7.9c9.9-3.1,20.4,2.4,23.5,12.3l7.9,25.3c3.1,9.9-2.4,20.4-12.3,23.5l-25.3,7.9
	c-9.9,3.1-20.4-2.4-23.5-12.3l-7.9-25.3C75.5,332,81,321.5,90.9,318.4z"/>
<path class="st4" d="M137.2,350l-8.6-4.5c-1.8-0.9-3.9-0.2-4.8,1.6l-2.3,4.3l-0.8-0.2c-6.8-1.1-13.1-4.4-17.9-9.4l-0.6-0.5l1.5-2.9
	l0.8-1.4c0.9-1.7,0.3-3.9-1.4-4.8l-8.6-4.5c-1.8-0.9-3.9-0.2-4.8,1.6l-1.3,2.4h0.1c-0.4,1-0.6,2.1-0.7,3.1s0,2,0.2,2.9
	c1.4,7.4,6.7,13,18.3,19.1c16.1,8.4,25.7,4.4,26.1,4.2c0.9-0.4,1.7-0.9,2.5-1.5c0.8-0.7,1.6-1.5,2.2-2.4h0.1l1.3-2.4
	C139.5,353,138.9,350.9,137.2,350L137.2,350z"/>
<g class="st10">
	<path d="M101.9,391.5l-4.2,1.3l3.4,11l-1.6,0.5l-3.4-11l-4.2,1.3l-0.4-1.4l10-3.1L101.9,391.5z"/>
</g>
<g class="st10">
	<path d="M108.4,401.8c-2.7,0.8-4.8-0.4-5.7-3.4c-0.9-2.9,0.2-5.4,2.7-6.2c3-0.9,4.8,1.1,5.6,3.7l0.1,0.2l-6.8,2.1v0.1
		c0.6,1.9,2,2.7,3.8,2.2c1.3-0.4,1.8-1.2,1.8-2.7l1.4-0.5C111.5,399.7,110.5,401.2,108.4,401.8z M105.7,393.5
		c-1.4,0.5-2.1,1.8-1.8,3.6l5.2-1.6C108.4,393.8,107.2,393,105.7,393.5z"/>
	<path d="M115.4,399.3l-1.5,0.5l-3.9-12.4l1.5-0.5L115.4,399.3z"/>
	<path d="M121.6,397.7c-2.7,0.8-4.8-0.4-5.7-3.4c-0.9-2.9,0.2-5.4,2.7-6.2c3-0.9,4.8,1.1,5.6,3.7l0.1,0.2l-6.8,2.1v0.1
		c0.6,1.9,2,2.7,3.8,2.2c1.3-0.4,1.8-1.2,1.8-2.7l1.4-0.5C124.7,395.5,123.7,397,121.6,397.7z M118.9,389.4
		c-1.4,0.5-2.1,1.8-1.8,3.6l5.2-1.6C121.7,389.6,120.4,388.9,118.9,389.4z"/>
	<path d="M131,394.7c-2.8,0.9-4.9-0.6-5.7-3.3c-0.9-3,0.2-5.4,2.8-6.2c2.2-0.7,3.9,0,4.8,2l-1.5,0.5c-0.7-1.2-1.7-1.6-2.9-1.2
		c-1.7,0.5-2.4,2.2-1.7,4.4c0.7,2.2,2.1,3.2,3.8,2.7c1.3-0.4,2-1.5,1.7-3.1l1.5-0.5C134.2,392.2,133.3,394,131,394.7z"/>
	<path d="M143.3,385.6c1,3.1-0.1,5.3-2.8,6.2c-2.8,0.9-5-0.4-5.9-3.4s0.2-5.3,2.9-6.2C140.3,381.4,142.4,382.6,143.3,385.6z
		 M136.1,387.9c0.7,2.2,2.2,3.2,4,2.6c1.7-0.5,2.4-2.2,1.7-4.4c-0.7-2.1-2.2-3.2-3.9-2.6C136.1,384,135.5,385.7,136.1,387.9z"/>
	<path d="M145.5,381.5c0.4-1.3,1.1-2,2.5-2.5c1.2-0.4,2.2-0.2,3,0.8c0.4-1.3,1.1-2.1,2.5-2.5c1.9-0.6,3.2,0.2,3.8,2.1l2,6.3
		l-1.5,0.5l-1.8-5.7c-0.4-1.3-0.9-2.2-2.5-1.7c-1.7,0.5-1.9,1.9-1.4,3.5l1.6,5.1l-1.5,0.5l-1.8-5.8c-0.4-1.2-0.9-2.1-2.3-1.6
		c-2,0.6-2,2.2-1.5,3.9l1.5,4.8l-1.5,0.5l-2.8-9l1.4-0.4L145.5,381.5z"/>
</g>
<path class="st8" d="M465.7,238.2l6.5-25.7c2.5-10,12.7-16.1,22.8-13.6l25.7,6.5c10,2.5,16.1,12.7,13.6,22.8l-6.5,25.7
	c-2.5,10-12.7,16.1-22.8,13.6l-25.7-6.5C469.2,258.4,463.1,248.2,465.7,238.2z"/>
<path class="st4" d="M522.2,224.9l-12.5-3.2l0.7-2.9c0.5-1.9-0.7-3.7-2.5-4.2l-7.4-1.9c-1.9-0.5-3.7,0.7-4.2,2.5l-0.7,2.9l-12.5-3.1
	c-1.1-0.3-2.3,0.4-2.6,1.5l0,0l-6.7,26.3c-0.3,1.1,0.4,2.3,1.5,2.6l39,9.9c1.1,0.3,2.3-0.4,2.6-1.5l6.7-26.3
	C523.9,226.3,523.3,225.2,522.2,224.9C522.1,224.9,522.1,224.9,522.2,224.9L522.2,224.9z M499.8,216.2l7.1,1.8l-0.7,2.8l-7.1-1.8
	L499.8,216.2z M495.6,247.5c-6.9-1.7-11-8.7-9.3-15.6c1.7-6.9,8.7-11,15.6-9.3s11,8.7,9.3,15.6l0,0
	C509.4,245.1,502.5,249.3,495.6,247.5z"/>
<path class="st4" d="M505.8,233.8l-3.3-0.9l0.8-3.3c0.2-0.9-0.3-1.8-1.2-2l0,0l-2.6-0.7c-0.9-0.2-1.8,0.3-2,1.2l-0.9,3.3l-3.3-0.8
	c-0.9-0.2-1.8,0.3-2,1.2l0,0l-0.7,2.6c-0.2,0.9,0.3,1.8,1.2,2l3.3,0.8l-0.8,3.3c-0.2,0.9,0.3,1.8,1.2,2l2.6,0.7
	c0.9,0.2,1.8-0.3,2-1.2l0.8-3.3l3.3,0.9c0.9,0.2,1.8-0.3,2-1.2l0.7-2.6C507.2,234.8,506.7,233.9,505.8,233.8L505.8,233.8z"/>
<g class="st10">
	<path d="M457.6,275.2l-1.7-0.4l1.5-5.9l-6.7-1.7l-1.5,5.9l-1.7-0.4l3.2-12.6l1.7,0.4l-1.3,5.3l6.7,1.7l1.3-5.3l1.7,0.4L457.6,275.2
		z"/>
	<path d="M463.9,277.1c-2.7-0.7-3.9-2.9-3.1-5.8c0.7-3,3-4.5,5.5-3.9c3,0.8,3.5,3.4,2.9,6.1l-0.1,0.2l-6.9-1.7v0.1
		c-0.5,1.9,0.3,3.4,2.1,3.8c1.3,0.3,2.2-0.1,3-1.3l1.5,0.4C467.7,276.9,466.1,277.7,463.9,277.1z M466,268.6
		c-1.5-0.4-2.8,0.4-3.4,2.1l5.3,1.3C468.2,270.3,467.5,269,466,268.6z"/>
	<path d="M477.8,280.3c-0.4,0-0.7,0-1.1-0.1c-0.9-0.2-1.2-0.8-1-1.7c-1.2,0.8-2.3,1-3.7,0.6c-1.8-0.5-2.7-1.7-2.3-3.3
		c0.4-1.6,1.7-2.3,4-2c2.2,0.3,3,0.5,3.3-0.7c0.2-1-0.3-1.7-1.7-2c-1.4-0.4-2.3,0-2.7,1.3l-1.5-0.4c0.5-1.9,2.3-2.7,4.6-2.1
		c1.2,0.3,2.2,0.9,2.6,1.6c0.5,0.8,0.2,1.7,0,2.5c-0.3,1.4-0.8,2.7-1.1,4.1c-0.2,0.7-0.1,0.9,0.4,1.1c0.1,0,0.2,0,0.4,0L477.8,280.3
		z M474.4,275c-1.1-0.1-2.7-0.4-3,1.1c-0.2,0.9,0.3,1.7,1.4,2c1.4,0.4,3-0.3,3.3-1.4l0.4-1.7C475.9,275.2,475.1,275.1,474.4,275z"/>
	<path d="M480.8,281l-1.5-0.4l3.2-12.6l1.5,0.4L480.8,281z"/>
	<path d="M489.1,274.7l-1.8-0.5l-1.3,5.3c-0.2,0.8-0.4,1.3,0.7,1.6c0.3,0.1,0.5,0.1,0.8,0.2l-0.3,1.3c-0.5-0.1-0.7-0.1-1.2-0.2
		c-2.3-0.6-1.9-1.7-1.4-3.7l1.2-4.9l-1.5-0.4l0.3-1.2l1.5,0.4l0.7-2.7l1.5,0.4l-0.7,2.7l1.8,0.5L489.1,274.7z"/>
	<path d="M492.2,275.6c0.9-0.8,2.1-1.1,3.4-0.8c2.2,0.5,2.8,2,2.3,3.9l-1.6,6.3l-1.5-0.4l1.5-5.9c0.3-1.3,0.2-2.3-1.5-2.7
		c-1.9-0.5-2.9,0.7-3.4,2.8l-1.2,4.6l-1.5-0.4l3.2-12.6l1.5,0.4L492.2,275.6z"/>
	<path d="M502.4,286.8c-2.8-0.7-3.9-3-3.2-5.8c0.8-3,3-4.5,5.6-3.9c2.2,0.6,3.3,2.1,3.1,4.2l-1.6-0.4c0.1-1.4-0.6-2.3-1.8-2.6
		c-1.7-0.4-3.2,0.7-3.7,2.9c-0.6,2.2,0.1,3.8,1.8,4.3c1.4,0.3,2.5-0.3,3.1-1.7l1.5,0.4C506.5,286.3,504.7,287.3,502.4,286.8z"/>
	<path d="M516.2,289.9c-0.3,0-0.7,0-1.1-0.1c-0.9-0.2-1.2-0.8-1-1.7c-1.2,0.8-2.3,1-3.7,0.6c-1.8-0.5-2.7-1.7-2.3-3.3
		c0.4-1.6,1.7-2.3,4-2c2.2,0.3,3,0.5,3.3-0.7c0.2-1-0.3-1.7-1.7-2c-1.4-0.4-2.3,0-2.7,1.3l-1.5-0.4c0.5-1.9,2.3-2.7,4.6-2.1
		c1.2,0.3,2.2,0.9,2.6,1.6c0.5,0.8,0.2,1.7,0,2.5c-0.3,1.4-0.8,2.7-1.1,4.1c-0.2,0.7-0.1,0.9,0.4,1.1c0.1,0,0.2,0,0.4,0L516.2,289.9
		z M512.8,284.6c-1.1-0.1-2.7-0.4-3,1.1c-0.2,0.9,0.3,1.7,1.4,2c1.4,0.4,3-0.3,3.3-1.4l0.4-1.7C514.3,284.9,513.5,284.7,512.8,284.6
		z"/>
</g>
<g class="st10">
	<path d="M524.4,283.7c-0.2-0.1-0.2-0.1-0.4-0.1c-2.5-0.6-3.4,1.2-3.9,3.2l-1,3.9l-1.5-0.4l2.3-9.1l1.4,0.4l-0.5,2
		c1-1.4,2.3-1.7,3.9-1.3L524.4,283.7z"/>
</g>
<g class="st10">
	<path d="M527,293c-2.7-0.7-3.9-2.9-3.1-5.8c0.7-3,3-4.5,5.5-3.9c3,0.8,3.5,3.4,2.9,6.1l-0.1,0.2l-6.9-1.7v0.1
		c-0.5,1.9,0.3,3.4,2.1,3.8c1.3,0.3,2.2-0.1,3-1.3l1.5,0.4C530.8,292.8,529.2,293.5,527,293z M529,284.5c-1.5-0.4-2.8,0.4-3.4,2.1
		l5.3,1.3C531.3,286.2,530.5,284.9,529,284.5z"/>
</g>
<path class="st8" d="M127.3,206.4l25.7-6.3c10.1-2.5,20.2,3.7,22.7,13.7l6.3,25.7c2.5,10.1-3.7,20.2-13.7,22.7l-25.7,6.3
	c-10.1,2.5-20.2-3.7-22.7-13.7l-6.3-25.7C111.1,219,117.3,208.8,127.3,206.4z"/>
<path class="st4" d="M149.9,236l1.4,6.2c1.9-0.6,3.6-1.9,3.1-4S151.6,235.9,149.9,236L149.9,236z"/>
<path class="st4" d="M142.7,229.8c0.4,1.6,1.7,2.2,4.2,2.1l-1.3-5.6C143.5,226.9,142.4,228.5,142.7,229.8L142.7,229.8z"/>
<path class="st4" d="M144,215.5c-10.4,2.4-16.9,12.9-14.5,23.3c2.4,10.4,12.9,16.9,23.3,14.5c10.4-2.4,16.9-12.9,14.5-23.3
	C164.9,219.6,154.5,213.1,144,215.5z M152,245.3l0.4,1.9c0.3,0.5,0.1,1.1-0.4,1.4c-0.5,0.3-1.1,0.1-1.4-0.4
	c-0.1-0.2-0.1-0.4-0.1-0.5l-0.4-1.9c-5.3,1.1-8.7-1.4-9.2-3.9c-0.3-1,0.2-2,1.1-2.4c0.1,0,0.2-0.1,0.3-0.1c3.5-0.8,1.8,4.1,7,3.1
	l-1.5-6.6c-4.8,0.2-8.1-1.1-8.9-4.6c-1-4.2,2-7.3,5.9-8.3l-0.4-1.7c-0.3-0.5-0.1-1.1,0.4-1.4s1.1-0.1,1.4,0.4
	c0.1,0.2,0.1,0.4,0.1,0.5l0.4,1.7c2.4-0.5,7.8-0.1,8.5,2.9c0.3,1-0.3,2.1-1.4,2.4h-0.1c-2,0.5-2.8-2.9-6.3-2.1l1.4,5.9
	c4.3-0.1,8.3,0.3,9.4,5.1C159.3,241.1,156.6,243.9,152,245.3L152,245.3z"/>
<g class="st10">
	<path d="M135.8,277.4l-6.6,1.6l1,3.9l5.9-1.4l0.3,1.4l-5.9,1.4l1.4,5.8l-1.7,0.4l-3.1-12.6l8.3-2L135.8,277.4z"/>
	<path d="M139.1,277l-1.5,0.4l-0.5-1.8l1.5-0.4L139.1,277z M141.8,287.8l-1.5,0.4L138,279l1.5-0.4L141.8,287.8z"/>
	<path d="M143.6,279.1c0.5-1.3,1.3-2.1,2.7-2.4c2.2-0.5,3.4,0.5,3.9,2.6l1.5,6.1l-1.5,0.4l-1.3-5.4c-0.4-1.5-0.7-2.7-2.6-2.2
		c-2,0.5-2.2,2.1-1.8,3.9l1.2,4.8l-1.5,0.4l-2.2-9.2l1.4-0.3L143.6,279.1z"/>
</g>
<g class="st10">
	<path d="M160.3,271.4l-4.2,1l2.7,11.2l-1.7,0.4l-2.7-11.2l-4.2,1l-0.4-1.5l10.2-2.5L160.3,271.4z"/>
</g>
<g class="st10">
	<path d="M166.1,282.1c-2.7,0.7-4.8-0.7-5.5-3.7s0.5-5.4,3-6c3-0.7,4.7,1.4,5.4,4l0.1,0.2l-6.9,1.7v0.1c0.5,2,1.8,2.9,3.6,2.4
		c1.3-0.3,1.9-1.1,2-2.6l1.5-0.4C169.4,280.2,168.3,281.6,166.1,282.1z M164,273.7c-1.5,0.4-2.2,1.7-2,3.5l5.3-1.3
		C166.7,274.1,165.5,273.3,164,273.7z"/>
	<path d="M175.7,279.7c-2.8,0.7-4.8-0.9-5.5-3.7c-0.8-3.1,0.5-5.4,3.2-6.1c2.2-0.5,3.9,0.3,4.7,2.3l-1.6,0.4
		c-0.6-1.2-1.6-1.7-2.8-1.4c-1.7,0.4-2.5,2.1-2,4.3c0.5,2.2,1.9,3.3,3.6,2.9c1.4-0.3,2.1-1.4,1.9-3l1.5-0.4
		C179.1,277.4,178,279.2,175.7,279.7z"/>
	<path d="M180.9,269.9c0.4-1.2,1.3-1.9,2.6-2.3c2.2-0.5,3.4,0.4,3.9,2.4l1.5,6.3l-1.5,0.4l-1.5-5.9c-0.3-1.3-0.9-2.1-2.5-1.7
		c-1.9,0.5-2.2,2-1.7,4.1l1.1,4.7l-1.5,0.4l-3.1-12.6l1.5-0.4L180.9,269.9z"/>
</g>
<path class="st8" d="M287.5,155l0.3-26.5c0.1-10.4,8.6-18.7,19-18.6l26.5,0.3c10.4,0.1,18.7,8.6,18.6,19l-0.3,26.5
	c-0.1,10.4-8.6,18.7-19,18.6L306,174C295.7,173.9,287.4,165.4,287.5,155z"/>
<path class="st4" d="M339.9,140.4c-0.6-0.3-1.3-0.3-1.9,0.1l-10,6.7V142c0-1-0.8-1.9-1.9-1.9c-0.4,0-0.7,0.1-1,0.3l-10.3,6.8V133
	c0-0.4-0.3-0.7-0.7-0.7h-12c-0.4,0-0.7,0.3-0.7,0.7v29c0,0.4,0.3,0.7,0.7,0.7l0,0h38.1c0.4,0,0.7-0.3,0.7-0.7l0,0v-20
	C340.8,141.3,340.5,140.7,339.9,140.4L339.9,140.4z M323.6,154.1c0,0.3-0.2,0.5-0.5,0.5l0,0h-3.4c-0.3,0-0.5-0.2-0.5-0.5l0,0v-3.4
	c0-0.3,0.2-0.5,0.5-0.5l0,0h3.4c0.3,0,0.5,0.2,0.5,0.5l0,0V154.1z M336.3,154.1c0,0.3-0.2,0.5-0.5,0.5h-3.4c-0.3,0-0.5-0.2-0.5-0.5
	v-3.4c0-0.3,0.2-0.5,0.5-0.5h3.4c0.3,0,0.5,0.2,0.5,0.5V154.1z"/>
<path class="st4" d="M302.1,129.5h12c0.3,0,0.6-0.2,0.7-0.6c0,0,0,0,0-0.1v-5.5c0-1-0.8-1.8-1.8-1.9l0,0h-9.7c-1,0-1.9,0.8-1.9,1.9
	v5.5C301.4,129.3,301.7,129.5,302.1,129.5L302.1,129.5L302.1,129.5z"/>
<g class="st10">
	<path d="M268.8,180.6l4.1,11.1l4.1-11h2.4l-0.1,13h-1.6l0.1-10.9l-4.2,10.8h-1.5l-4-10.9l-0.1,10.9h-1.6l0.1-13L268.8,180.6z"/>
	<path d="M290.3,193.8c-0.3,0.1-0.7,0.2-1.1,0.2c-0.9,0-1.3-0.5-1.4-1.4c-0.9,1-2,1.5-3.4,1.5c-1.9,0-3-1.1-3-2.7
		c0-1.7,1.1-2.7,3.4-2.9c2.3-0.3,3-0.2,3-1.5c0-1-0.7-1.6-2.1-1.6s-2.2,0.5-2.4,1.9h-1.5c0.1-2,1.5-3.2,4-3.2c1.3,0,2.3,0.4,3,0.9
		c0.7,0.6,0.6,1.6,0.6,2.5c0,1.4-0.1,2.8-0.1,4.2c0,0.7,0.2,0.9,0.6,0.9c0.1,0,0.2,0,0.4-0.1V193.8z M285.8,189.4
		c-1.1,0.1-2.7,0.2-2.7,1.8c0,1,0.7,1.6,1.9,1.6c1.5,0,2.9-1,2.9-2.2v-1.7C287.3,189.3,286.4,189.3,285.8,189.4z"/>
	<path d="M293.3,185.9c0.8-1.1,1.8-1.7,3.2-1.7c2.3,0,3.1,1.3,3.1,3.4l-0.1,6.3h-1.6l0.1-5.6c0-1.5,0-2.8-2-2.8s-2.7,1.5-2.7,3.4
		v4.9h-1.6l0.1-9.4h1.5V185.9z"/>
	<path d="M309.7,194h-1.4v-1.5c-0.8,1.2-1.9,1.7-3.3,1.7c-2,0-3.1-1.1-3.1-3.2l0.1-6.5h1.6l-0.1,6.1c0,1.4,0.4,2.3,2,2.3
		c2,0,2.8-1.4,2.8-3.4v-4.9h1.6L309.7,194z"/>
	<path d="M316.5,182.4c-0.2,0-0.5-0.1-0.9-0.1c-1,0-1.2,0.2-1.2,1.2v1.1h1.8v1.3h-1.8l-0.1,8.2h-1.6l0.1-8.2h-1.6v-1.3h1.6v-1.3
		c0-1.8,1-2.4,2.6-2.4c0.4,0,0.5,0,1,0.1L316.5,182.4z"/>
	<path d="M325.8,194.1c-0.3,0.1-0.7,0.2-1.1,0.2c-0.9,0-1.3-0.5-1.4-1.4c-0.9,1-2,1.5-3.4,1.5c-1.9,0-3-1.1-3-2.7
		c0-1.7,1.1-2.7,3.4-2.9c2.3-0.3,3-0.2,3-1.5c0-1-0.7-1.6-2.1-1.6s-2.2,0.5-2.4,1.9h-1.5c0.1-2,1.5-3.2,4-3.2c1.3,0,2.3,0.4,3,0.9
		c0.7,0.6,0.6,1.6,0.6,2.5c0,1.4-0.1,2.8-0.1,4.2c0,0.7,0.2,0.9,0.6,0.9c0.1,0,0.2,0,0.4-0.1V194.1z M321.3,189.8
		c-1.1,0.1-2.7,0.2-2.7,1.8c0,1,0.7,1.6,1.9,1.6c1.5,0,2.9-1,2.9-2.2v-1.7C322.8,189.7,322,189.7,321.3,189.8z"/>
	<path d="M331.3,194.5c-2.9,0-4.5-2-4.4-4.9c0-3.1,1.8-5.1,4.6-5.1c2.3,0,3.7,1.2,4,3.4h-1.6c-0.3-1.3-1.1-2.1-2.4-2.1
		c-1.8,0-2.9,1.4-3,3.7c0,2.3,1,3.7,2.8,3.7c1.4,0,2.3-0.8,2.6-2.4h1.6C335.2,193.1,333.7,194.5,331.3,194.5z"/>
	<path d="M341.2,186.2h-1.9l-0.1,5.5c0,0.9-0.1,1.4,1,1.4c0.3,0,0.5,0,0.8,0v1.3c-0.5,0.1-0.7,0.1-1.2,0.1c-2.4,0-2.2-1.2-2.2-3.3
		v-5H336v-1.3h1.6v-2.8h1.6v2.8h1.9L341.2,186.2z"/>
	<path d="M350.7,194.4h-1.4v-1.5c-0.8,1.2-1.9,1.7-3.3,1.7c-2,0-3.1-1.1-3.1-3.2l0.1-6.5h1.6l-0.1,6.1c0,1.4,0.4,2.3,2,2.3
		c2,0,2.8-1.4,2.8-3.4V185h1.6L350.7,194.4z"/>
	<path d="M358,186.4c-0.2,0-0.2,0-0.4,0c-2.6,0-3,1.9-3.1,4v4h-1.6l0.1-9.4h1.5v2c0.7-1.6,1.8-2.2,3.5-2.2V186.4z"/>
	<path d="M360.8,194.5h-1.6l0.1-9.4h1.6L360.8,194.5z M360.9,183.4h-1.6v-1.9h1.6V183.4z"/>
	<path d="M364.7,186.6c0.8-1.1,1.8-1.7,3.2-1.7c2.3,0,3.1,1.3,3.1,3.4l-0.1,6.3h-1.6l0.1-5.6c0-1.5,0-2.8-2-2.8s-2.7,1.5-2.7,3.4
		v4.9h-1.6l0.1-9.4h1.5V186.6z"/>
	<path d="M381.5,193.7c0,1.6-0.2,2.4-0.6,3.1c-0.7,1.1-2,1.7-3.7,1.7c-1.9,0-3.7-0.7-3.9-2.8h1.6c0.2,1.1,1,1.6,2.4,1.6
		c1.9,0,2.8-0.9,2.8-3.1V193c-0.6,1.2-1.6,1.7-3,1.7c-2.5,0-4.1-1.9-4.1-4.8c0-2.6,1.5-5,4.3-5c1.3,0,2.4,0.6,3,1.7v-1.4h1.4
		L381.5,193.7z M374.5,190c0,2.1,1.1,3.4,2.7,3.5c1.7,0,2.8-1.4,2.8-3.7c0-2.1-1-3.4-2.8-3.4C375.6,186.3,374.6,187.7,374.5,190z"/>
</g>
<path class="st9" d="M475,344.7l10-24.6c3.9-9.6,14.9-14.2,24.5-10.3l24.6,10c9.6,3.9,14.2,14.9,10.3,24.5l-10,24.6
	c-3.9,9.6-14.9,14.2-24.5,10.3l-24.6-10C475.7,365.2,471.1,354.3,475,344.7z"/>
<path class="st4" d="M532.9,354.1c-1-1.5-2.5-2.7-4.2-3.3c-3-1.2-6-1-7.2,0.4l-0.2-0.1c0.1-1.9-1.9-4.2-4.9-5.4
	c-1.7-0.7-3.5-1-5.3-0.6l-5.7,14c-1.5,3.5-5.5,5.1-9,3.6c-3.4-1.5-5-5.3-3.7-8.7c0.3-0.8,1.2-1.1,2-0.8s1.1,1.2,0.8,2
	c-0.8,2,0.1,4.2,2.1,5s4.2-0.1,5-2.1l5.7-14c-1-1.5-2.5-2.7-4.2-3.3c-3-1.2-6-1-7.2,0.4l-0.2-0.1c0.1-1.9-1.9-4.2-4.9-5.4
	c-1.7-0.7-3.5-1-5.3-0.6c5-9.6,17.6-13.7,29.5-9.5l0.4-1c0.3-0.8,1.2-1.1,2-0.8c0.8,0.3,1.1,1.2,0.8,2l-0.4,1
	C529.9,332.1,536.1,343.8,532.9,354.1L532.9,354.1z"/>
<g class="st10">
	<path d="M456.4,375.2l-1.6-0.6l4.9-12.1l1.6,0.6L456.4,375.2z"/>
	<path d="M463.2,369.4c1.2-0.8,2.3-0.9,3.6-0.4c2.1,0.9,2.4,2.4,1.6,4.4l-2.4,5.8l-1.4-0.6l2.1-5.1c0.6-1.4,1-2.6-0.8-3.3
		c-1.9-0.8-3.1,0.4-3.8,2.1l-1.9,4.6l-1.4-0.6l3.6-8.7l1.4,0.6L463.2,369.4z"/>
	<path d="M475.9,375.9c0.4-1.2-0.2-2-1.5-2.5c-1.1-0.4-2-0.3-2.3,0.5c-0.4,1,0.7,1.6,1.7,2.3c1.3,0.9,3.1,2.1,2.3,4
		c-0.7,1.7-2.6,2.2-4.8,1.3c-2.4-1-3.2-2.6-2.5-4.6l1.4,0.6c-0.5,1.4,0.2,2.2,1.6,2.8c1.3,0.5,2.4,0.3,2.7-0.6
		c0.4-1-0.5-1.6-1.6-2.4c-1.4-1-3.3-2-2.5-4c0.6-1.6,2.4-2,4.4-1.2s3.1,2.4,2.3,4.2L475.9,375.9z"/>
	<path d="M484,386.5l-1.3-0.5l0.6-1.4c-1.2,0.8-2.4,0.9-3.7,0.4c-1.8-0.7-2.5-2.2-1.7-4.1l2.4-6l1.4,0.6l-2.3,5.6
		c-0.5,1.3-0.5,2.2,1,2.8c1.9,0.8,3.1-0.3,3.8-2.1l1.9-4.6l1.4,0.6L484,386.5z"/>
	<path d="M493.8,381.8c-0.1-0.1-0.2-0.1-0.4-0.2c-2.4-1-3.5,0.7-4.3,2.6l-1.5,3.7l-1.4-0.6l3.6-8.7l1.4,0.6l-0.8,1.9
		c1.2-1.2,2.5-1.4,4.1-0.8L493.8,381.8z"/>
	<path d="M499.6,392.8c-0.4,0-0.7-0.1-1.1-0.2c-0.8-0.3-1.1-1-0.7-1.8c-1.3,0.6-2.4,0.7-3.7,0.1c-1.7-0.7-2.4-2.1-1.8-3.6
		c0.6-1.6,2-2.1,4.2-1.5s2.9,0.9,3.4-0.2c0.4-0.9-0.1-1.7-1.4-2.2s-2.2-0.3-2.9,0.9l-1.4-0.6c0.8-1.8,2.6-2.4,4.9-1.5
		c1.2,0.5,2,1.2,2.4,2s0,1.7-0.3,2.5c-0.5,1.3-1.1,2.6-1.7,3.9c-0.3,0.6-0.2,0.9,0.2,1.1c0.1,0.1,0.2,0.1,0.4,0.1L499.6,392.8z
		 M496.9,387.1c-1.1-0.3-2.6-0.8-3.1,0.7c-0.4,0.9,0.1,1.7,1.2,2.2c1.4,0.6,3,0.2,3.5-1l0.6-1.6
		C498.4,387.5,497.6,387.2,496.9,387.1z"/>
	<path d="M505.3,386.5c1.2-0.8,2.3-0.9,3.6-0.4c2.1,0.9,2.4,2.4,1.6,4.4l-2.4,5.8l-1.4-0.6l2.1-5.1c0.6-1.4,1-2.6-0.8-3.3
		c-1.9-0.8-3.1,0.4-3.8,2.1l-1.9,4.6l-1.4-0.6l3.6-8.7l1.4,0.6L505.3,386.5z"/>
	<path d="M513.9,398.9c-2.7-1.1-3.4-3.5-2.3-6.2c1.2-2.9,3.6-4.1,6.1-3c2.1,0.9,3,2.5,2.4,4.6l-1.5-0.6c0.2-1.3-0.2-2.3-1.4-2.8
		c-1.7-0.7-3.2,0.2-4.1,2.3c-0.9,2.1-0.4,3.8,1.2,4.5c1.3,0.5,2.5,0.1,3.3-1.3l1.5,0.6C518,399,516.1,399.8,513.9,398.9z"/>
	<path d="M522.9,402.7c-2.6-1-3.4-3.4-2.3-6.2c1.2-2.8,3.6-4.1,6-3.1c2.9,1.2,3,3.9,2,6.4l-0.1,0.2l-6.6-2.7l-0.1,0.1
		c-0.8,1.9-0.2,3.4,1.5,4.1c1.3,0.5,2.2,0.3,3.1-0.9l1.4,0.6C526.7,403,525,403.5,522.9,402.7z M526.1,394.5c-1.4-0.6-2.8,0-3.7,1.6
		l5.1,2.1C528.1,396.5,527.6,395.1,526.1,394.5z"/>
</g>
<path class="st9" d="M414.9,127.5l8.1-25.3c3.2-9.9,13.7-15.3,23.6-12.2l25.3,8.1c9.9,3.2,15.3,13.7,12.2,23.6L476,147
	c-3.2,9.9-13.7,15.3-23.6,12.2L427,151C417.2,147.9,411.7,137.3,414.9,127.5z"/>
<path class="st4" d="M471.9,129.7l-2.5-6.3l-2.4-12.9c-0.2-1.2-1.1-2.2-2.2-2.5l-18-5.8c-1.1-0.4-2.4-0.1-3.3,0.8l-9.4,9.1l-5.7,3.6
	c-0.9,0.8-1.6,1.8-2,2.9l-4.6,14.2c-0.4,1.3,0.3,2.7,1.6,3.2l0,0l3.5,1.1c1.3,0.4,2.7-0.3,3.2-1.6l1.5-4.5l28.7,9.2l-1.5,4.5
	c-0.4,1.3,0.3,2.7,1.6,3.2l3.5,1.1c1.3,0.4,2.7-0.3,3.1-1.6l4.6-14.2C472.1,132.1,472.1,130.8,471.9,129.7L471.9,129.7z
	 M439.1,110.8l5.4-5.6c0.7-0.8,1.8-1,2.8-0.7l15.7,5.1c1,0.3,1.7,1.2,1.9,2.2l1.1,7.7c0,0.3-0.1,0.6-0.3,0.8
	c-0.2,0.2-0.6,0.3-0.9,0.2l-11.1-3.6l7.6-3.7c0.2-0.1,0.3-0.4,0.2-0.6c-0.1-0.2-0.4-0.3-0.6-0.2l0,0l-8.5,4.1l0,0l-12.9-4.1
	c-0.3-0.1-0.5-0.3-0.6-0.6C438.8,111.4,438.9,111.1,439.1,110.8L439.1,110.8z M435.5,126.1l-5.2-1.7c-0.9-0.3-1.5-1.3-1.2-2.3
	c0.3-0.9,1.1-2.9,2.1-2.5c1.4,0.6,4.1,2.3,5.4,3c0.9,0.3,1.4,1.3,1.2,2.2C437.4,125.9,436.4,126.4,435.5,126.1L435.5,126.1z
	 M454.1,131.4c-0.2,0.3-0.6,0.5-1,0.3l-10.6-3.4c-0.4-0.1-0.6-0.5-0.6-0.9c0-1.2,0-2.4,0.2-3.6c0.2-0.6,0.8-0.9,1.4-0.7l11.9,3.8
	c0.6,0.2,0.9,0.8,0.7,1.4l0,0C455.5,129.4,454.8,130.4,454.1,131.4L454.1,131.4z M465.3,135.7L460,134c-0.9-0.3-1.5-1.3-1.2-2.3
	c0.3-0.9,1.1-1.3,2.3-1.1c1.5,0.2,4.6,0.4,6.2,0.7c1,0.2,0.5,2.3,0.2,3.2C467.2,135.5,466.2,136,465.3,135.7
	C465.2,135.7,465.2,135.7,465.3,135.7L465.3,135.7z"/>
<g class="st10">
	<path d="M405,161.4l-1.8-0.5l-0.2-4.2l-5.2-1.6l-2.6,3.4l-1.8-0.5l8.6-11l1.9,0.6L405,161.4z M402.4,148.8l-3.9,5.1l4.3,1.3
		L402.4,148.8z"/>
	<path d="M413.4,163.9l-1.4-0.4l0.4-1.4c-1.1,0.9-2.3,1.1-3.6,0.7c-1.9-0.6-2.7-2-2.1-4l1.8-6.2l1.5,0.4l-1.7,5.8
		c-0.4,1.3-0.3,2.3,1.2,2.7c2,0.6,3.1-0.6,3.6-2.5l1.4-4.7l1.5,0.4L413.4,163.9z"/>
	<path d="M421.9,157.9l-1.8-0.5l-1.6,5.3c-0.2,0.8-0.4,1.3,0.6,1.6c0.3,0.1,0.5,0.1,0.8,0.2l-0.4,1.3c-0.5-0.1-0.7-0.1-1.2-0.3
		c-2.3-0.7-1.8-1.8-1.2-3.7l1.4-4.8l-1.5-0.5l0.4-1.2l1.5,0.5l0.8-2.7l1.5,0.4l-0.8,2.7l1.8,0.5L421.9,157.9z"/>
	<path d="M430.8,164.1c-0.9,3.1-3,4.4-5.8,3.6c-2.8-0.8-3.9-3.1-3-6.1s3.1-4.3,5.9-3.5S431.7,161.1,430.8,164.1z M423.6,162
		c-0.7,2.2,0,3.9,1.8,4.4s3.2-0.5,3.9-2.7c0.6-2.2,0-3.8-1.8-4.4C425.8,158.8,424.3,159.9,423.6,162z"/>
	<path d="M435,161.9c1.1-0.8,2.1-1.1,3.4-0.7c1.2,0.4,1.9,1.1,2,2.3c1.1-0.8,2.1-1.1,3.5-0.7c1.9,0.6,2.5,2,2,3.8L444,173l-1.5-0.4
		l1.7-5.7c0.4-1.3,0.5-2.3-1.1-2.8c-1.7-0.5-2.7,0.5-3.2,2.1l-1.5,5.1l-1.5-0.4l1.7-5.8c0.4-1.2,0.4-2.2-1-2.6
		c-2-0.6-2.9,0.7-3.4,2.4l-1.4,4.8l-1.5-0.4l2.7-9l1.4,0.4L435,161.9z"/>
	<path d="M455.9,171.5c-0.9,3.1-3,4.4-5.8,3.6c-2.8-0.8-3.9-3.1-3-6.1s3.1-4.3,5.9-3.5C455.7,166.3,456.7,168.5,455.9,171.5z
		 M448.6,169.4c-0.7,2.2,0,3.9,1.8,4.4s3.2-0.5,3.9-2.7c0.6-2.2,0-3.8-1.8-4.4C450.8,166.2,449.3,167.3,448.6,169.4z"/>
	<path d="M462.5,170l-1.8-0.5l-1.6,5.3c-0.2,0.8-0.4,1.3,0.6,1.6c0.3,0.1,0.5,0.1,0.8,0.2l-0.4,1.3c-0.5-0.1-0.7-0.1-1.2-0.3
		c-2.3-0.7-1.8-1.8-1.2-3.7l1.4-4.8l-1.5-0.5l0.4-1.2l1.5,0.5l0.8-2.7l1.5,0.4l-0.8,2.7l1.8,0.5L462.5,170z"/>
	<path d="M463.4,178.7l-1.5-0.4l2.7-9l1.5,0.4L463.4,178.7z M466.5,168.1l-1.5-0.4l0.5-1.8l1.5,0.4L466.5,168.1z"/>
	<path d="M469.1,170.6l0.3,8.3l4.7-6.8l1.6,0.5l-6,8.1l-1.6-0.5l-0.7-10L469.1,170.6z"/>
	<path d="M478.1,183.4c-2.7-0.8-3.7-3-2.9-6c0.9-2.9,3.2-4.4,5.7-3.7c3,0.9,3.4,3.6,2.6,6.2l-0.1,0.2l-6.8-2v0.1
		c-0.6,1.9,0.2,3.4,1.9,3.9c1.3,0.4,2.2,0,3-1.2l1.5,0.4C481.9,183.4,480.3,184.1,478.1,183.4z M480.5,175c-1.5-0.4-2.8,0.3-3.5,2
		l5.3,1.6C482.7,176.8,482,175.5,480.5,175z"/>
</g>
<path class="st9" d="M166.5,94.3l25.7-6.5c10-2.5,20.2,3.6,22.8,13.6l6.5,25.7c2.5,10-3.6,20.2-13.6,22.8l-25.7,6.5
	c-10,2.5-20.2-3.6-22.8-13.6l-6.5-25.7C150.3,107,156.4,96.8,166.5,94.3z"/>
<path class="st4" d="M212.9,133.4l-7.6-13.3c-0.2-0.4-0.7-0.6-1.2-0.5l-1.7,0.4l1.8,7.3c0.4,1.7-0.6,3.4-2.3,3.8l0,0l-23.2,5.7
	c-1.7,0.4-3.4-0.6-3.9-2.3l0,0l0,0l-1.8-7.3l-1.7,0.4c-0.5,0.1-0.8,0.5-0.8,1l-0.6,15.3c0,0.6,0.4,1.1,1,1.1c0.1,0,0.2,0,0.3,0
	l41.1-10.1c0.3-0.1,0.6-0.3,0.7-0.6C213.1,134.1,213.1,133.7,212.9,133.4L212.9,133.4z"/>
<path class="st4" d="M171.4,119.7l11.4-15.9l17.4,8.8c0.3,0.2,0.7,0.2,1.1,0.1c0.4-0.1,0.8-0.4,1-0.8c0.4-0.8,0.1-1.7-0.7-2.1l0,0
	l-18.6-9.5c-0.7-0.3-1.5-0.1-2,0.5l-12.1,17c-0.5,0.7-0.3,1.7,0.4,2.2C169.9,120.5,170.9,120.3,171.4,119.7L171.4,119.7z"/>
<path class="st4" d="M182.6,105.9l-9.1,12.9c-0.2,0.2-0.2,0.6-0.2,0.9l3.6,14.5c0.1,0.6,0.7,0.9,1.3,0.8l23.2-5.7
	c0.6-0.1,0.9-0.7,0.8-1.3l-3.6-14.5c-0.1-0.3-0.3-0.5-0.6-0.7l-14.1-7.2C183.4,105.3,182.9,105.4,182.6,105.9z M187.6,127.7
	c0.1,0.6-0.2,1.1-0.8,1.3l0,0l-3.6,0.9c-0.6,0.1-1.1-0.2-1.3-0.8l-0.9-3.6c-0.1-0.6,0.2-1.1,0.8-1.3l3.6-0.9
	c0.6-0.1,1.1,0.2,1.3,0.8L187.6,127.7z M185.7,120c0.1,0.6-0.2,1.1-0.8,1.3l0,0l-3.6,0.9c-0.6,0.1-1.1-0.2-1.3-0.8l-0.9-3.6
	c-0.1-0.6,0.2-1.1,0.8-1.3l0,0l3.6-0.9c0.6-0.1,1.1,0.2,1.3,0.8L185.7,120z M186.8,115.9c-0.1-0.6,0.2-1.1,0.8-1.3l3.6-0.9
	c0.6-0.1,1.1,0.2,1.3,0.8l0.9,3.6c0.1,0.6-0.2,1.1-0.8,1.3l0,0l-3.6,0.9c-0.6,0.1-1.1-0.2-1.3-0.8L186.8,115.9z M188.7,123.6
	c-0.1-0.6,0.2-1.1,0.8-1.3l3.6-0.9c0.6-0.1,1.1,0.2,1.3,0.8l0.9,3.6c0.1,0.6-0.2,1.1-0.8,1.3l-3.6,0.9c-0.6,0.1-1.1-0.2-1.3-0.8
	L188.7,123.6z"/>
<g class="st10">
	<path d="M158.8,178.5c-3.6,0.9-6.5-1.1-7.5-5.1c-0.9-3.6,0.4-7.1,4.3-8.1c2.5-0.6,5.3,0.1,6.3,2.8l-1.7,0.4
		c-0.8-1.6-2.4-2.2-4.3-1.7c-3,0.8-3.6,3.6-3,6.2c0.8,3.2,2.9,4.8,5.5,4.1c2.1-0.5,3.1-2.1,2.8-4.6l1.7-0.4
		C163.5,175.4,161.9,177.7,158.8,178.5z"/>
	<path d="M173.2,169.6c0.8,3.1-0.4,5.3-3.2,6s-4.9-0.7-5.7-3.7s0.5-5.3,3.3-6S172.5,166.6,173.2,169.6z M165.9,171.5
		c0.6,2.3,2,3.3,3.8,2.8c1.8-0.4,2.5-2.1,1.9-4.3c-0.5-2.2-2-3.3-3.8-2.8C166.2,167.7,165.4,169.4,165.9,171.5z"/>
	<path d="M175.7,165.7c0.5-1.3,1.3-2.1,2.7-2.5c2.2-0.6,3.4,0.5,3.9,2.5l1.5,6.1l-1.5,0.4l-1.4-5.4c-0.4-1.5-0.7-2.7-2.6-2.2
		c-2,0.5-2.2,2.1-1.8,4l1.2,4.8l-1.5,0.4l-2.3-9.1l1.4-0.4L175.7,165.7z"/>
	<path d="M189.7,163.5c-0.4-1.2-1.4-1.4-2.7-1.1c-1.2,0.3-1.7,0.9-1.5,1.7c0.3,1,1.5,0.9,2.8,0.9c1.6,0,3.7-0.1,4.2,1.9
		c0.4,1.8-0.8,3.3-3.1,3.9c-2.5,0.6-4.1-0.2-4.7-2.2l1.5-0.4c0.4,1.4,1.5,1.7,3,1.3c1.3-0.3,2.1-1.2,1.9-2.1c-0.3-1-1.3-1-2.7-1
		c-1.7,0-3.8,0.3-4.4-1.8c-0.4-1.6,0.7-3,2.8-3.6c2.1-0.5,3.9,0.1,4.4,2L189.7,163.5z"/>
	<path d="M196.8,160.2l-1.8,0.5l1.3,5.3c0.2,0.8,0.3,1.4,1.3,1.1c0.3-0.1,0.5-0.1,0.8-0.3l0.3,1.3c-0.5,0.2-0.7,0.2-1.1,0.4
		c-2.3,0.6-2.5-0.6-3-2.6l-1.2-4.9l-1.5,0.4l-0.3-1.2l1.5-0.4l-0.7-2.7l1.5-0.4l0.7,2.7l1.8-0.5L196.8,160.2z"/>
	<path d="M203.3,158.7c-0.2,0-0.2,0-0.4,0.1c-2.5,0.6-2.4,2.6-1.9,4.7l1,3.9l-1.5,0.4l-2.3-9.1l1.4-0.4l0.5,2c0.3-1.7,1.2-2.6,2.8-3
		L203.3,158.7z"/>
	<path d="M214,164.3l-1.4,0.4l-0.4-1.4c-0.5,1.4-1.4,2.1-2.7,2.5c-1.9,0.5-3.3-0.3-3.8-2.3l-1.6-6.3l1.5-0.4l1.5,5.9
		c0.3,1.3,0.9,2.1,2.5,1.7c2-0.5,2.3-2.1,1.8-4l-1.2-4.8l1.5-0.4L214,164.3z"/>
	<path d="M220.2,163c-2.8,0.7-4.8-0.8-5.5-3.6c-0.8-3,0.5-5.4,3.1-6.1c2.2-0.6,3.9,0.3,4.7,2.3L221,156c-0.6-1.2-1.6-1.7-2.8-1.4
		c-1.7,0.4-2.5,2.1-1.9,4.3s1.9,3.3,3.6,2.9c1.4-0.3,2.1-1.4,1.9-3l1.5-0.4C223.6,160.7,222.5,162.5,220.2,163z"/>
	<path d="M227.7,152.5l-1.8,0.5l1.3,5.3c0.2,0.8,0.3,1.4,1.3,1.1c0.3-0.1,0.5-0.1,0.8-0.3l0.3,1.3c-0.5,0.2-0.7,0.2-1.1,0.4
		c-2.3,0.6-2.5-0.6-3-2.6l-1.2-4.9l-1.5,0.4l-0.3-1.2l1.5-0.4l-0.7-2.7l1.5-0.4l0.7,2.7l1.8-0.5L227.7,152.5z"/>
	<path d="M230.2,148.8l-1.5,0.4l-0.5-1.8l1.5-0.4L230.2,148.8z M233,159.5l-1.5,0.4l-2.3-9.1l1.5-0.4L233,159.5z"/>
	<path d="M242.5,152.2c0.8,3.1-0.4,5.3-3.2,6s-4.9-0.7-5.7-3.7s0.5-5.3,3.3-6C239.7,147.8,241.8,149.2,242.5,152.2z M235.2,154.1
		c0.6,2.3,2,3.3,3.8,2.8c1.8-0.4,2.5-2.1,1.9-4.3c-0.5-2.2-2-3.3-3.8-2.8C235.4,150.3,234.7,151.9,235.2,154.1z"/>
	<path d="M244.9,148.3c0.5-1.3,1.3-2.1,2.7-2.5c2.2-0.6,3.4,0.5,3.9,2.5l1.5,6.1l-1.5,0.4l-1.4-5.4c-0.4-1.5-0.7-2.7-2.6-2.2
		c-2,0.5-2.2,2.1-1.8,4l1.2,4.8l-1.5,0.4l-2.3-9.1l1.4-0.4L244.9,148.3z"/>
</g>
</svg>
