<?xml version="1.0" encoding="utf-8"?>
<!-- Generator: Adobe Illustrator 22.0.1, SVG Export Plug-In . SVG Version: 6.00 Build 0)  -->
<svg version="1.1" id="Layer_1" xmlns="http://www.w3.org/2000/svg" xmlns:xlink="http://www.w3.org/1999/xlink" x="0px" y="0px"
	 viewBox="0 0 775.8 793.7" style="enable-background:new 0 0 775.8 793.7;" xml:space="preserve">
<style type="text/css">
	.st0{fill:#FFFFFF;}
	.st1{fill:#CCCCCC;}
	.st2{fill:#FFFFFF;stroke:#000000;stroke-width:0.5;stroke-miterlimit:10;}
	.st3{fill:#0077BF;stroke:#000000;stroke-width:0.5;stroke-miterlimit:10;}
	.st4{fill:#FFFFFF;stroke:#000000;stroke-miterlimit:10;}
	.st5{fill:#1A1A1A;stroke:#000000;stroke-width:0.5;stroke-miterlimit:10;}
	.st6{fill:#1A1A1A;}
	.st7{fill:none;stroke:#000000;stroke-width:0.5;stroke-miterlimit:10;}
	.st8{fill:#CECECE;stroke:#000000;stroke-width:0.5;stroke-miterlimit:10;}
	.st9{stroke:#000000;stroke-width:0.5;stroke-miterlimit:10;}
	.st10{fill:#EB058C;stroke:#000000;stroke-width:0.5;stroke-miterlimit:10;}
	.st11{fill:#FFE600;stroke:#000000;stroke-width:0.5;stroke-miterlimit:10;}
	.st12{fill:#005B99;stroke:#000000;stroke-width:0.5;stroke-miterlimit:10;}
	.st13{fill:#BCBCBC;}
	.st14{enable-background:new    ;}
	.st15{fill:#B2B2B2;stroke:#000000;stroke-width:0.5;stroke-miterlimit:10;}
	.st16{fill:#B70071;stroke:#000000;stroke-width:0.5;stroke-miterlimit:10;}
</style>
<title>SE2</title>
<g>
	<g id="Layer_7">
		<path class="st0" d="M204.9,510.5c0,0-165.1,36.9-186.7-149.1c0,0-50.7-215.9,206.8-311.9c0,0,112.5-51.5,290-1.2
			c0,0,142.8,56.8,192.9,177.9c0,0,89.6,208.2,15.6,394.5c0,0-59.3,242.5-253.5,129.6c0,0-62.8-44.9-64.7-139
			C405.3,611.3,412,465.5,204.9,510.5z"/>
	</g>
	<ellipse class="st1" cx="254.2" cy="701.5" rx="108.9" ry="13.3"/>
	<polygon class="st2" points="268.8,171.2 270.9,147.2 293.9,150.2 292.5,171.2 283.5,184 	"/>
	<path class="st3" d="M340.8,103.8c0,0-3.1,7.8-17.9,4.1l-7-21.4l19.3,2.7L340.8,103.8z"/>
	<g id="Layer_9">
		<path class="st2" d="M325.7,122c1.2-13,2.5-12.6,1.9-19c-0.9-10.4-2.2-21.6-9.1-29.6c-4.2-4.3-9.1-7.7-14.5-10.2
			c-3.8-2.3-7.9-4-12.2-5c-3.6-0.6-7.4-0.5-11,0.2c-10.3,1.7-19.6,7.2-26.2,15.3c-17,21.8-6.2,50,8.5,68.7
			c5.5,7,17.3,15.6,26.1,15.6C314.6,156.9,324.6,134.5,325.7,122z"/>
		<path class="st4" d="M292.7,100.4c-5.7-2.9-15-1.7-17.9,1.4"/>
		<path class="st4" d="M323.8,106c-2.6-4.4-9.5-6.9-14.3-5.3"/>
		<path class="st2" d="M296.6,132.2c1.8-0.5,3.5-1.1,5.2-1.8c0.4-0.1,0.8-0.4,1.1-0.7c0.7-0.8,0.5-2.1,0.2-3.1l-1.4-5.6"/>
		<ellipse transform="matrix(0.9914 -0.131 0.131 0.9914 -12.7713 38.4102)" class="st5" cx="285.6" cy="116.3" rx="2.7" ry="3.4"/>
		
			<ellipse transform="matrix(0.1416 -0.9899 0.9899 0.1416 151.6979 412.004)" class="st5" cx="313.4" cy="118.5" rx="3.2" ry="2.5"/>
		<path class="st6" d="M259.9,102.9c0,0-5.4-9.3-8.8-5c-1.2,1.5-1.2,12.6,8.1,18.8c0,0-7.2,9-3.2,15.2c0,0-10.1-7.9-17-39.4
			c0,0-6.9-27.2,25.2-29.6c12-19.3,36.9-22.6,61.6-4c7.3,16.2,7.8,34.7,1.5,51.3c0,0,2.8-16.4-8.2-27.5c0,0-24.7,13.7-36.4-5.8
			C282.7,76.9,269.4,75.7,259.9,102.9z"/>
	</g>
	<path class="st7" d="M281.7,134.8c0,0,13.4,9.3,20.5,6.2C302.2,141,286.6,158.8,281.7,134.8z"/>
	<path class="st8" d="M338.9,98.7c-6,52.9-41.4,59.3-41.4,59.3v-1.8c36.5-16.1,36.2-61.1,36.2-61.1L338.9,98.7z"/>
	<path class="st8" d="M245.4,89.2c0,0,0.5,42.9,34.4,64.2l-1,2.5c0,0-38.4-16.7-39.9-63.5L245.4,89.2z"/>
	<path class="st3" d="M238.4,114.4c0,0,28.6-28,65.1-23.8c0,0,29.8,1.8,37.4,12.5c0,0,2.1-60.5-57.1-58.1c-24,1-40,16.8-45.4,29.7
		C227.5,100.9,238.4,114.4,238.4,114.4z"/>
	<polygon class="st3" points="269.3,437 262.2,483.2 276,496.5 295.8,498.7 315.7,483.5 312.3,438.2 	"/>
	<polygon class="st3" points="312.8,328.7 310.3,527.5 291.4,603.4 263.7,603.4 246,529.2 267.5,331.5 	"/>
	<polygon class="st3" points="277.7,322.3 260.7,527.5 238.4,603.4 210.4,601.1 194.7,519.1 214.5,322.3 	"/>
	<polygon class="st9" points="206.2,593.3 244.1,596.6 229.3,687.1 258.7,709.3 209.5,705.7 	"/>
	<polygon class="st9" points="259.4,591.4 296,593 280.3,685.7 316.7,706.1 264.5,703.1 	"/>
	<polygon class="st10" points="243.5,206 198.1,360.1 189.9,356.1 232.1,196.6 	"/>
	<polygon class="st3" points="200.8,433.1 189.9,478.6 202.5,493 222,496.8 243.2,483.4 243.5,437.9 	"/>
	<polygon class="st3" points="200.8,433.1 196.2,444.6 216.1,457.9 243.8,454.6 243.5,437.9 	"/>
	<polygon class="st3" points="330.6,192.4 351.4,262.8 386.8,256.8 391.9,258.3 400.3,256.8 405,271 398.2,277.2 395.8,282 
		338.2,317.8 327.7,316.5 289.8,252 	"/>
	<polygon class="st3" points="217.5,310.4 202.1,266 222.3,181.5 265.1,171.2 285.3,180.1 298.5,171.2 330.6,192.4 332.9,245 
		328.2,289.6 312.8,313.1 	"/>
	<path class="st11" d="M312.8,313.1l-0.1,22c0,0-71.2,0.4-99-4.8l2.3-23.2L312.8,313.1z"/>
	<path d="M266.5,314.4l16,1.2l-1.1,14.5l-16.2-0.8L266.5,314.4 M262.7,309.9l-2.6,24.3l25.3,0.5l1.8-22.9L262.7,309.9L262.7,309.9z"
		/>
	<polygon class="st3" points="209.3,236 145.3,182 143.2,162 210.1,106 222.9,106 232.1,100.8 243.7,114.4 237.8,121.6 236.9,130.4 
		199.3,171.2 222.3,181.5 232.4,179.1 231.8,221.7 	"/>
	<path class="st3" d="M262.7,180.1c-1.4-0.1-36.2,5.6-36.2,5.6l1-11.2l32.2-5L262.7,180.1z"/>
	<path class="st3" d="M299.2,183.5c1.4,0.2,33.9,13.9,33.9,13.9l1.6-11.1L304.5,174L299.2,183.5z"/>
	<path class="st3" d="M269.5,157c-1,0.2-13.7,10.6-13.7,10.6l4.2,27.3l25.3-14.7L269.5,157z"/>
	<polygon class="st3" points="307.5,173.6 302,196.6 285.3,180.1 293.7,160.6 	"/>
	<path class="st2" d="M233.5,102.4c0,0,13.1-16.8,30.3-14.6s16.8,5,15.4,7.2s-17.2,3.2-21.4,4.4c-4.6,1.3-6.3,15.4-14.1,15
		L233.5,102.4z"/>
	<polygon class="st3" points="234,245.6 238.6,219.2 270.7,222.6 269.4,250 248.6,256.8 	"/>
	<polygon class="st3" points="238.6,219.2 237,228.2 252.3,236 270.2,233 270.7,222.6 	"/>
	<polygon class="st3" points="292.6,250.3 295.1,223.6 327.3,224.4 328.2,251.8 310.4,260.7 	"/>
	<polygon class="st3" points="295.1,223.6 294.2,232.7 310.1,239.3 327.7,234.8 327.3,224.4 	"/>
	<line class="st7" x1="285.3" y1="180.1" x2="277.7" y2="309.9"/>
	<polyline class="st7" points="216.9,231.4 210.3,260.7 216,307.1 	"/>
	<path class="st2" d="M404.3,269c0,0,28.9-1.3,33.2-21.8c4.2-19.9-23.8-2.9-32.6,3.8c-1.3,1-4.2,7.3-4.2,7.3L404.3,269z"/>
	<polygon class="st10" points="422.8,262.8 407.2,252.1 433.4,204.9 456.1,220.5 	"/>
	<polygon class="st10" points="424,264.4 410.2,251.4 443.4,208.9 463.5,227.8 	"/>
	<polygon class="st10" points="420.4,267.5 409.3,252.2 449.8,216.5 466,238.8 	"/>
	<path class="st2" d="M400.8,258.4c0,0,5.3-12.8,10.5-16.4s11.1,5.4,11,8.6c0,1.8-5.6,3.1-10-1.8l-4.2,3.9"/>
	<path class="st10" d="M279.5,149.3l16.4,1.8c2.2,0.2,3.8,2.2,3.6,4.5l-0.2,1.6c-0.2,2.2-2.2,3.8-4.5,3.6l-16.4-1.8
		c-2.2-0.2-3.8-2.2-3.6-4.5l0.2-1.6C275.3,150.6,277.3,149,279.5,149.3z"/>
	<path class="st12" d="M244.7,344.1c5.4-3.6,12.7-2.4,16.6,2.8c1.2,1.4,1.8,3.2,1.8,5.1c-0.4,7.3-2.5,0.7-4.5,9s5.7,8.7-2.2,11.7
		c-7.9,3-5.3-4-14.5-7.4s-24-14-8.7-17.1C240.7,346.8,240.8,346.7,244.7,344.1z"/>
	<path class="st12" d="M237.8,390.1c0,0-5.4-15.6-10.2-7.8s-3.3,3.6-8.4,7.8s-7.5,10.8-3.3,12.9s5.7-4.5,12,0
		c6.3,4.5,1.8,8.1,4.8,9.6s12.3-3.9,12.4-10.5S244.7,390.1,237.8,390.1z"/>
	<path class="st12" d="M270,415.8c0,0-7.8-4.2-13.2,1.5c-5.4,5.7-6.4,4.8-10.8,5.7s-8.3,2.7-4.9,6.3s15.7-0.5,16.9,7.6
		s8.6,11.1,9.4,9.9L270,415.8z"/>
	<path class="st12" d="M203.5,473.4c-2.2-3.4-1.8-7.9,1-10.8c1.3-1.3,2.7-1.8,3.7,0.2c2.4,5,2.7,5,9,5s9.6-4.2,10,4.5
		s-2.9,11.2-3.5,14.7s-2.8,5.4-9.2,1.2s2.3-6.3-4.6-9C207.2,478,204.9,476,203.5,473.4z"/>
	<path class="st12" d="M204.6,512.8c2.7-1.8,2.1-12.6,6.9-10.5s4.7,1.5,8.5,5.1s1.2-2.1,7.3,2.4c6.1,4.5,5.2,7.8,3.1,10.8
		s-4.4,3.3-3.1,7.8s-16.1,8.7-14.6,0s-3-7.5-6.3-9.3S204.6,512.8,204.6,512.8z"/>
	<path class="st12" d="M262.8,502.1c0,0-11.8-9.5-13.5-3.4s-6.5,6.6-9.5,8.5s-2.4,6.9,3.7,9s10.4,0.9,11.4,6.6s5.9,4.8,5.9,4.8
		L262.8,502.1z"/>
	<path class="st12" d="M220,561.4c0,0,0.9-10.2,7.3-10.2s15.1-5.7,16.2-7.2s6.5,3.9,4.4,8.7s-6,3.6-5.7,8.7s8.7,5.1-1,9
		s-12.4-0.6-13.8,2.7s-11.5,6.9-9.2,0C219.6,569.4,220.2,565.4,220,561.4z"/>
	<path class="st12" d="M282.1,584.1c-0.9,0.4-13.8,0-11.7-7.4s5.9-6,1.7-13.7s-3.2-12.2,1-11.9s5.4,0,9,2.8s9.6,1,12.8,0
		s5.6,2.5,5.6,2.5S296.7,578.1,282.1,584.1z"/>
	<path class="st12" d="M272.7,519.9c0,0,5,5.7,3.5,12.3s4.5,2.4,12.5,0s2.2-5.7,1.7-11.7s5.9-1.5,7.1-6.6c1.2-5.1-2.4-5.1-7.1-4.5
		s-6.1-1.8-6.7-8.7s-5.7-1.2-5.7-1.2s-4.6,0.4-4.7,2.9s1.2,8.2,0.3,10.8C272.7,515.8,271.3,517.9,272.7,519.9z"/>
	<path class="st12" d="M293.6,459.5c0,0,5.1-7.8,6.6-4.8s1,4.8,5.4,4.8s1.2,8.7,0,12.3s-1.2,3,0.6,5.7s2.1,5.4-2.1,7.2
		s-9,4.5-10.5,2.4s2.1-3.9,0-7.2s-7.1-2.7-5.7-6s0.1-1.5,2.9-4.2S293.6,459.5,293.6,459.5z"/>
	<path class="st12" d="M283.3,421.7c5,0,6.8-2.4,6.9,0s-2.3,3.3,2.5,6.6s9,1.8,8.1,5.4s-0.1,0.9-5,4s-3.6,6.8-10.1,7.1
		s-7.9,2.8-7.2-3.2s-2.8-4.3-3.9-8.9S276.4,421.7,283.3,421.7z"/>
	<path class="st12" d="M297.6,396.7c2.7-6.9,6.9-11.1,7.5-6.9s6.9,3.9,6.9,3.9l-0.3,20.7c0,0-7.5-2.1-9.3,0s-8.2,5.4-7.4,0
		s-4.3-6.3-5.2-9.9S297.6,396.7,297.6,396.7z"/>
	<path class="st12" d="M287.1,355.3c4.3-4.8,7.4-4.8,8-2.1s4.1,4.8,7.1,4.8s10.5,7.2,7.2,10.2s-7.6,0.5-8.5,4.3s0.2,6.2-5.9,6.5
		s-8.9,3.6-8-3s-2.3-6.3-4.6-8.7s-3.1-6.3,0-6.6S287.1,355.3,287.1,355.3z"/>
	<path class="st12" d="M247.9,282.9c5.9-4.2,8.3-5.7,8.6-8.1s1.2-2.1,4.8,0s3.7,1.2,5.6,6.3s5.9,1.8,4.8,7.8s-2.2,3.3-8.1,6.6
		s-0.8,11.1-9.8,7.5c-9-3.6-9.9-4.5-12.6-8.1s-3.2-5.4,2-4.8S247.9,282.9,247.9,282.9z"/>
	<path class="st12" d="M289.8,264.4c1.8-0.7,3.2-2.1,4.1-3.7c1.3-2.7,3.5-3,5.3-1.2s3.8,4.5,5.6,6.6s8.3,1.8,6.1,7.2
		s-9,2.4-11.7,3.6s-4.6,8.1-9.4,2.7s-6.6-12-4.5-12.1S289.8,264.4,289.8,264.4z"/>
	<path class="st12" d="M302.1,293.1c4.2-1.8,2.1-8.6,5.4-8.2s1.9,2.7,5.3,4.1s2.8-0.5,5.4,0s5.3,7.8,5.3,7.8l-6.7,10.2
		c0,0-4.5-2.9-5.8,0s-3.7,4.7-6.4,1.4s0-6.2-2.4-8.1S298.5,294.6,302.1,293.1z"/>
	<path class="st12" d="M227.7,255.1c2.7-2.5,7.7-3.8,8.5-1.6s3.5,7.8,5.9,7.2s9.8,8.5,2.5,8.3s-11.5-1.7-12.7,1s-4.5,3.5-7.5,3.1
		s-5.7,0.2-5.1-5.6s-3.4-10.3-2.4-12.4S227.7,255.1,227.7,255.1z"/>
	<path class="st12" d="M305.1,201.6c3-4.5,1.7-5.7,5.8-6.6s4.7,1.8,6,3.3s1.7,5.1,4.7,3.3s5.1,0,3.6,3.3s-6.9,3.9-9.3,6
		s-6,8.2-10.8,5.6s-10.5-2.9-13.2-6.2s-2-7.3,0.6-7.1s6.7,1.6,9.6,0L305.1,201.6z"/>
	<path class="st12" d="M277.7,197.5c-1.7,2.6-4.3,2.6-7,4.5s-1.1-2.4-5.5,0s-8,1-7.1,4.1s-1.8,5.8,5.2,5.8s6.4-0.3,8.7,3.3
		c1.3,2.5,4.4,3.4,6.9,2.1c0.4-0.2,0.7-0.4,1-0.7c1-1,2.2-1.7,3.5-2.3l1.1-14.7c0,0-0.7,0.7-3.1-2S277.7,197.5,277.7,197.5z"/>
	<path class="st12" d="M198.8,189.4c2.8-2.7,4-4,5.5-7.1s4.4-0.8,6.1,0s7.9,6.4,6,8.4s-2.3-0.3-3,5s6.7,8.8,0,11.4s-15.4-2-16,0
		s-2.1,3.5-3.3-4S198.8,189.4,198.8,189.4z"/>
	<path class="st12" d="M161.4,166.7c3.3-3.3,2.1-6.6,5.4-6.9s3.3,0.9,4.5,3.5s7.5,2.9,9.3,3.5s4.8,2,3,6.1s-5.7-0.6-3.9,5.6
		s3,9.5-1.5,9.1s-11.4,3.4-11.1-2.4s-0.9-6.9-5.7-6.7s-9.6,2.6-8.4-1.7S161.4,166.7,161.4,166.7z"/>
	<path class="st12" d="M197.2,147.4c3.5-2.8,2.7-6.2,4.9-6.3s7,0.8,6.5,2s2.8,1,4.9,1.1s3.4-1.8,3.3,3.1s-5.4,10.7-5.4,10.7l-7,7.6
		c0,0-2-2.4-7.3-1.2s-8.2,1.5-8.5-2.1s-3.9-6.6,1.5-6.3s6.9-1.4,7-2.7S197.2,147.4,197.2,147.4z"/>
	<path class="st12" d="M186.6,125.7c0,0,0,8.3-1.8,9.1s-6.9-1-2.4,4.1s9.5,0.3,11-2.1s4-6.7,7-4.9s7.5,2.9,8.2,0s-1-2.9,0-6.2
		s5-2.5,3.8-7.1s-4.5-5.3-7.2-4.2c-1.7,0.6-3.5,0.6-5.1,0L186.6,125.7z"/>
	<path class="st12" d="M350.9,309.9c0,0-1.7-5.3-3.5-4.1s-3.6,4.7-6.3,1.3s-5.1-3.7-2.2-7.3s8.5-10.1,10-11.2s2.4,1.3,5.7,3.1
		s4.2-1.5,7.8-1.5s6.3,0.9,4.5,3.3s-1.3,7.3-1.3,7.3L350.9,309.9z"/>
	<path class="st12" d="M365.8,264.4c-2.4,4.8,7.8,2.9,4.2,7.1s-2.5,5.4,1,6.9s5.2,0,9.1,0c4,0,5.2,2.1,7.9-0.6s2.1-2.1,2.7-6
		s3.6-5.5-1.8-7.4s-4-0.8-10-1.6S368.8,258.5,365.8,264.4z"/>
	<path class="st12" d="M344,238c0,0-3.1,0.2-5.1,7s1.8,6.5-1.3,10.1s-7.8,3.8-2.9,5.6s4.9-2.6,7.6,0.4s6.4-7.1,7.7-2.7L344,238z"/>
	<path class="st10" d="M316,178.6c0,0-52.9,191.5-65.6,201.4l12.7,5.2c0,0,61.4-184.5,64.6-201.8C327.7,183.5,320.2,175.6,316,178.6
		z"/>
	
		<rect x="175.1" y="332.9" transform="matrix(0.3092 -0.951 0.951 0.3092 -195.1029 467.4594)" class="st2" width="98.2" height="70.3"/>
	
		<rect x="234.3" y="304.1" transform="matrix(0.3092 -0.951 0.951 0.3092 -153.7066 454.0888)" class="st13" width="2.9" height="57.4"/>
	
		<rect x="231.9" y="311.2" transform="matrix(0.3092 -0.951 0.951 0.3092 -162.0036 456.7286)" class="st13" width="2.9" height="57.4"/>
	
		<rect x="229.7" y="318.2" transform="matrix(0.3092 -0.951 0.951 0.3092 -170.2663 459.484)" class="st13" width="2.9" height="57.4"/>
	
		<rect x="227.4" y="325.3" transform="matrix(0.3092 -0.951 0.951 0.3092 -178.5676 462.137)" class="st13" width="2.9" height="57.4"/>
	
		<rect x="225.1" y="332.3" transform="matrix(0.3092 -0.951 0.951 0.3092 -186.8282 464.8887)" class="st13" width="2.9" height="57.4"/>
	
		<rect x="222.8" y="339.4" transform="matrix(0.3092 -0.951 0.951 0.3092 -195.1295 467.5416)" class="st13" width="2.9" height="57.4"/>
	
		<rect x="220.5" y="346.3" transform="matrix(0.3092 -0.951 0.951 0.3092 -203.3279 470.1409)" class="st13" width="2.9" height="57.4"/>
	
		<rect x="218.3" y="353.4" transform="matrix(0.3092 -0.951 0.951 0.3092 -211.5928 472.9056)" class="st13" width="2.9" height="57.4"/>
	
		<rect x="215.9" y="360.4" transform="matrix(0.3092 -0.951 0.951 0.3092 -219.8898 475.5455)" class="st13" width="2.9" height="57.4"/>
	
		<rect x="213.7" y="367.5" transform="matrix(0.3092 -0.951 0.951 0.3092 -228.1679 478.3059)" class="st13" width="2.9" height="57.4"/>
	
		<rect x="211.4" y="374.5" transform="matrix(0.3092 -0.951 0.951 0.3092 -236.465 480.9457)" class="st13" width="2.9" height="57.4"/>
	
		<rect x="180.3" y="331.5" transform="matrix(0.4521 -0.892 0.892 0.4521 -201.3821 405.5404)" class="st2" width="98.2" height="70.3"/>
	
		<rect x="244.7" y="304.9" transform="matrix(0.4521 -0.892 0.892 0.4521 -162.7477 402.3371)" class="st13" width="2.9" height="57.4"/>
	
		<rect x="241.4" y="311.5" transform="matrix(0.4521 -0.892 0.892 0.4521 -170.4232 402.9793)" class="st13" width="2.9" height="57.4"/>
	<rect x="238" y="318.2" transform="matrix(0.4521 -0.892 0.892 0.4521 -178.2052 403.6)" class="st13" width="2.9" height="57.4"/>
	
		<rect x="234.6" y="324.7" transform="matrix(0.4521 -0.892 0.892 0.4521 -185.8767 404.221)" class="st13" width="2.9" height="57.4"/>
	
		<rect x="231.3" y="331.4" transform="matrix(0.4521 -0.892 0.892 0.4521 -193.6476 404.8653)" class="st13" width="2.9" height="57.4"/>
	
		<rect x="227.9" y="337.9" transform="matrix(0.4521 -0.892 0.892 0.4521 -201.3342 405.484)" class="st13" width="2.9" height="57.4"/>
	
		<rect x="224.6" y="344.6" transform="matrix(0.4521 -0.892 0.892 0.4521 -209.115 406.1233)" class="st13" width="2.9" height="57.4"/>
	
		<rect x="221.2" y="351.1" transform="matrix(0.4521 -0.892 0.892 0.4521 -216.7765 406.7492)" class="st13" width="2.9" height="57.4"/>
	
		<rect x="217.9" y="357.7" transform="matrix(0.4521 -0.892 0.892 0.4521 -224.4568 407.3769)" class="st13" width="2.9" height="57.4"/>
	
		<rect x="214.5" y="364.3" transform="matrix(0.4521 -0.892 0.892 0.4521 -232.2439 408.0073)" class="st13" width="2.9" height="57.4"/>
	
		<rect x="211.2" y="370.9" transform="matrix(0.4521 -0.892 0.892 0.4521 -239.9054 408.6333)" class="st13" width="2.9" height="57.4"/>
	
		<rect x="116.8" y="288.7" transform="matrix(0.9971 -7.671542e-02 7.671542e-02 0.9971 -23.6547 12.8659)" class="st2" width="77.7" height="51.3"/>
	<g class="st14">
		<path d="M131,298.2l5.3-0.4c1.3-0.1,3-0.2,3.9,0.2c1,0.5,1.9,1.5,2,2.9c0.1,1.6-0.6,2.8-1.9,3.5l0,0c1.8,0.3,2.9,1.5,3.1,3.3
			c0.2,2.1-1.2,4.3-4.1,4.6l-7.1,0.5L131,298.2z M133.4,304.4l3.9-0.3c2.2-0.2,3.1-1,3-2.6c-0.2-2.1-1.6-2.2-3.3-2.1l-3.9,0.3
			L133.4,304.4z M133.9,311.1l4.9-0.4c1.7-0.1,2.7-1.2,2.6-2.9c-0.1-1.9-1.7-2.3-3.4-2.2l-4.5,0.3L133.9,311.1z"/>
		<path d="M155.4,311.1c-0.3,0.2-0.7,0.3-1.2,0.4c-0.9,0.1-1.5-0.4-1.6-1.5c-0.9,1.2-2.1,1.8-3.6,1.9c-1.9,0.1-3.6-0.6-3.8-2.7
			c-0.2-2.4,1.6-3.1,3.4-3.6c1.9-0.5,3.6-0.5,3.5-1.8c-0.1-1.5-1.4-1.7-2.5-1.6c-1.5,0.1-2.5,0.7-2.5,2.2l-1.8,0.1
			c-0.1-2.6,1.8-3.7,4.2-3.9c1.9-0.1,4,0.1,4.2,2.6l0.4,5.5c0.1,0.8,0.1,1.2,0.6,1.2c0.2,0,0.3-0.1,0.5-0.1L155.4,311.1z
			 M152.1,305.9c-1.3,1.1-5.3,0.4-5.1,3c0.1,1.2,1.1,1.5,2.2,1.4c2.3-0.2,3.1-1.7,3.1-2.7L152.1,305.9z"/>
		<path d="M158.6,300.2l2.1-0.2l0.1,1.5l-2.1,0.2l0.5,6.6c0.1,0.8,0.3,0.9,1.4,0.8l0.8-0.1l0.1,1.5l-1.3,0.1
			c-1.8,0.1-2.6-0.2-2.7-2.1l-0.5-6.8l-1.8,0.1l-0.1-1.5l1.8-0.1l-0.2-3.2l1.8-0.1L158.6,300.2z"/>
		<path d="M165.1,299.7l2.1-0.2l0.1,1.5l-2.1,0.2l0.5,6.6c0.1,0.8,0.3,0.9,1.4,0.8l0.8-0.1l0.1,1.5l-1.3,0.1
			c-1.8,0.1-2.6-0.2-2.7-2.1l-0.5-6.8l-1.8,0.1l-0.1-1.5l1.8-0.1l-0.2-3.2l1.8-0.1L165.1,299.7z"/>
		<path d="M169,295.3l1.8-0.1l1.1,14.7l-1.8,0.1L169,295.3z"/>
		<path d="M183.4,305.6c-0.3,2.4-1.9,3.8-4.3,4c-3.4,0.3-5.2-2-5.5-5.2c-0.2-3.2,1.7-5.7,4.6-5.9c3.8-0.3,5.2,3.1,5.3,5.7l-8,0.6
			c0.1,1.9,1.3,3.4,3.6,3.2c1.5-0.1,2.4-0.9,2.6-2.3L183.4,305.6z M181.5,302.7c-0.2-1.7-1.6-2.9-3.3-2.8c-1.8,0.1-2.8,1.6-2.8,3.2
			L181.5,302.7z"/>
	</g>
	<g class="st14">
		<path d="M137.8,331.5c-3.3,0.3-5.2-1.9-5.5-5.1c-0.3-3.5,1.5-5.9,4.7-6.2c2.6-0.2,4.3,1,4.8,3.4l-1.8,0.1
			c-0.4-1.5-1.4-2.2-2.9-2.1c-2,0.2-3.2,1.9-3,4.4c0.2,2.6,1.5,4.1,3.5,3.9c1.6-0.1,2.6-1.2,2.7-2.9l1.8-0.1
			C142,329.6,140.4,331.3,137.8,331.5z"/>
		<path d="M153.8,330c-0.4,0.2-0.8,0.3-1.2,0.3c-1,0.1-1.6-0.4-1.7-1.4c-1,1.3-2.1,1.9-3.7,2c-2.1,0.2-3.5-0.9-3.6-2.7
			c-0.1-1.9,1-3.1,3.5-3.6c2.5-0.5,3.4-0.5,3.3-2c-0.1-1.1-1-1.7-2.5-1.6c-1.6,0.1-2.4,0.8-2.5,2.4l-1.7,0.1c-0.1-2.3,1.4-3.7,4.2-4
			c1.4-0.1,2.7,0.2,3.4,0.8c0.8,0.7,0.9,1.8,0.9,2.7c0.1,1.6,0.2,3.2,0.3,4.7c0.1,0.8,0.3,1,0.8,1c0.2,0,0.2,0,0.4-0.1L153.8,330z
			 M148.2,325.5c-1.3,0.3-3,0.5-2.9,2.3c0.1,1.1,0.9,1.7,2.3,1.6c1.6-0.1,3.1-1.4,3-2.7l-0.1-1.9C149.9,325.2,149,325.4,148.2,325.5
			z"/>
		<path d="M160.3,320.4c-0.2,0-0.3,0-0.5,0c-2.9,0.2-3.2,2.5-3,4.9l0.3,4.5l-1.8,0.1l-0.8-10.6l1.7-0.1l0.2,2.3
			c0.6-1.9,1.8-2.7,3.7-2.8L160.3,320.4z"/>
		<path d="M171.5,328.6l-1.6,0.1l-0.1-1.6c-0.6,1.3-1.7,2-3.4,2.1c-3,0.2-5.1-1.8-5.4-5.2c-0.2-3,1.1-5.7,4.4-6
			c1.5-0.1,2.7,0.4,3.6,1.5l-0.4-5.5l1.8-0.1L171.5,328.6z M162.8,323.9c0.2,2.6,1.6,4.1,3.6,4c2-0.2,3.1-1.8,2.9-4.4
			c-0.2-2.1-1.2-4.1-3.6-3.9C163.8,319.7,162.6,321.4,162.8,323.9z"/>
		<path d="M179.7,320.4c-0.2-1.4-1.2-1.9-2.7-1.7c-1.3,0.1-2.1,0.7-2.1,1.6c0.1,1.2,1.5,1.3,3,1.5c1.8,0.3,4.2,0.6,4.4,2.9
			c0.2,2.1-1.5,3.6-4.1,3.8c-2.9,0.2-4.6-1-4.9-3.3l1.7-0.1c0.2,1.6,1.4,2.2,3.1,2c1.6-0.1,2.5-0.9,2.5-2c-0.1-1.2-1.3-1.3-2.8-1.6
			c-1.9-0.3-4.3-0.4-4.5-2.8c-0.1-1.9,1.3-3.3,3.8-3.4c2.4-0.2,4.3,0.8,4.5,3.1L179.7,320.4z"/>
	</g>
	
		<rect x="192.9" y="285.7" transform="matrix(0.9971 -7.671542e-02 7.671542e-02 0.9971 -25.4076 15.9331)" class="st15" width="3.6" height="106"/>
	<path class="st10" d="M163.5,406.9l25.9-61.1l79.4,31.1l-15.8,65C253,441.9,189.9,437,163.5,406.9z"/>
	<path class="st0" d="M206.5,383.3c0-0.3-0.4-0.3-0.8-0.5c-0.2-0.1-0.5-0.1-0.9-0.2l0.9-1.2c0.1-0.2-0.6-1.2-1-1.1
		c-0.7,0.6-1.3,1.2-1.7,2c-0.7-0.1-1.4-0.2-2-0.2V382c0.3-0.6-0.5-1.2-1-1.4c-0.2-0.1-0.3-0.1-0.5,0c-1.7,1.7-3.2,3.4-4.7,5.3h-0.1
		c0.8-1.7,1.7-3.4,2.7-5c0.2-0.4-0.2-0.6-0.4-0.7c-0.9-0.4-2.4,2-3.6,5l-0.1,0.1c-0.5,1.2-2.5,3.1-4,2.5c-1-0.4-1.1-1.1-0.8-2
		c0.3-0.9,0.7-1.7,1.2-2.4c0,0.5,0.3,1,0.8,1.2c1.5,0.6,3-1.3,3.8-3.7c0.6-1.7,0-2.6-0.7-2.8c-1.7-0.6-5,3.5-6.1,6.6
		c-0.1,0.2-0.1,0.3-0.2,0.5c0-0.1-0.1-0.2-0.3-0.2h-0.2c-0.4-1.4-1-3-1.5-4.2c2.1,0.7,4.3-0.5,5-2.6c0.8-2.1-0.5-4.5-2.7-5.6
		c0.1-0.1,0.1-0.2,0.2-0.3c-0.2-0.3-0.5-0.6-0.8-0.8c-0.5-0.2-0.5,0.1-0.6,0.4c-0.1,0.1-0.1,0.2-0.2,0.3c-1.4-0.4-2.9,0-3.9,1.1
		c-0.1,0.3,0.7,1.2,0.9,1.3h0.1c0.5-0.7,1.3-1.1,2.1-1.1c-1.7,2.8-4.9,8.5-6.3,11.4c0.3,0.4,0.6,0.7,1.1,0.9c0.3,0.1,0.6-0.3,1-0.9
		s0.1-0.7,0.3-1l2-3.7h0.1c0.7,1.5,1.9,5.6,2.5,7.4c0.4,0,0.8-0.1,1.1-0.3l0.1-0.1c0.1,1,0.8,1.9,1.8,2.3c1.1,0.3,2.3,0,3-0.8
		c-0.1,0.7,0,1.2,0.6,1.4c0.2,0.1,0.5,0.1,0.7,0c1-2.2,2.4-4.2,4.1-5.9l0.2,0.1c-0.7,1.1-1.3,2.3-1.8,3.5c-0.5,1.5-0.7,3,0.6,3.4
		c0.9,0.3,1.8,0,2.4-0.7c-0.1,1,0.5,1.9,1.4,2.3c1.2,0.4,3.5-0.4,3.9-1.6s-0.3-1.2-0.3-1.2c-0.8,1.1-2.2,1.6-3.5,1.3
		c-0.4-0.1-0.5-0.5-0.3-1c1-2.8,1.3-2.8,3.6-6.2c1,0.2,1.9,0.4,2.8,0.7c0.1,0.1,0.3,0,0.4-0.1c0,0,0,0,0-0.1c0-0.3-0.1-0.5-0.2-0.8
		C206.8,383.4,206.5,383.6,206.5,383.3z M193,379.3c0.2-0.2,0.3-0.3,0.4-0.2s0.2,0.2-0.1,1c-0.6,1.7-2,3.6-2.6,3.3
		c-0.4-0.1-0.3-0.6-0.3-0.6C191.1,381.5,191.9,380.3,193,379.3L193,379.3z M187.2,373.5c1.5,0.3,2.5,1.8,2.1,3.4v0.1
		c-0.9,2.4-2.9,2.8-5.1,1.9C185.2,376.9,186.4,374.9,187.2,373.5L187.2,373.5z M199.3,388.5c-0.1,0.2-0.1,0.3-0.2,0.5
		c-0.4,0.4-1,1.1-1.6,0.9s-0.6-0.8-0.2-1.7c0.8-2.2,2.4-4,3.3-5.7c0,0.4,0.2,0.8,0.5,0.9l0.9,0.1C201,385.1,200.1,386.8,199.3,388.5
		L199.3,388.5z"/>
	<path class="st0" d="M215.7,393.9c-0.5,1.1-1.2,2.2-2.2,1.8c-0.6-0.2-0.6-0.9-0.2-1.7c0.8-1.8,1.8-3.5,3-5c0.3-0.4-0.5-0.7-0.6-0.8
		c0-0.1,0.1-0.1,0.1-0.2c0.2-0.5,0-1.6-1.3-2c-2.2-0.8-5,1.9-6.2,5.3c-0.8,2.2-0.3,4,1,4.5c0.9,0.3,1.8,0,2.5-0.6h0.1
		c-0.2,0.7,0.2,1.4,0.9,1.7c1.4,0.5,2.9-1.3,3.3-2.3C216,394.3,215.9,394,215.7,393.9L215.7,393.9z M209.6,394.4
		c-0.5-0.2-0.5-0.7-0.1-1.8c0.7-1.9,3.2-6,4.5-5.5c0.4,0.1,0.2,0.6,0.1,0.7c-0.3,0.7-0.7,1.2-1.3,1.6c0.2,0.3,0.4,0.5,0.7,0.7
		C213.3,390.8,210.7,394.8,209.6,394.4L209.6,394.4z"/>
	<path class="st0" d="M230.6,401l-1.5-2.2l0,0l-0.4-0.5c-0.3,0.1-0.5,0.3-0.8,0.4s-0.6,0.2-0.9,0.3c-0.3,0.1-0.7,0.1-1,0
		c-0.3,0-0.7-0.1-1-0.2c-0.5-0.2-0.9-0.4-1.2-0.8c-0.3-0.3-0.6-0.7-0.8-1.2c-0.2-0.5-0.3-1-0.2-1.5c0-0.5,0.1-1.1,0.3-1.5l0,0
		c0.2-0.5,0.4-0.9,0.8-1.3c0.3-0.4,0.7-0.7,1.1-0.9c0.4-0.2,0.9-0.4,1.4-0.4s1,0,1.5,0.2c0.6,0.2,1.2,0.6,1.6,1.1s0.6,1,0.8,1.5
		l0.8-0.2l0,0l2.5-0.8c-0.1-0.5-0.3-0.9-0.5-1.3s-0.4-0.8-0.7-1.1l0,0c-0.1-0.1-0.1-0.1-0.2-0.2c-0.4-0.4-0.8-0.8-1.3-1.1
		c-0.6-0.4-1.2-0.7-1.8-0.9c-1-0.4-2-0.5-3-0.5c-0.9,0-1.9,0.2-2.7,0.6c-0.8,0.4-1.6,1-2.3,1.6c-0.7,0.7-1.2,1.6-1.5,2.5l0,0
		c-0.7,1.8-0.6,3.8,0.2,5.6c0.4,0.8,0.9,1.6,1.6,2.2c0.7,0.7,1.6,1.2,2.5,1.5c0.7,0.3,1.4,0.4,2.1,0.5c0.6,0.1,1.2,0.1,1.8,0h0.2
		h0.1c0.5-0.1,0.9-0.2,1.4-0.4C229.7,401.5,230.2,401.3,230.6,401z"/>
	<path class="st0" d="M242.2,406.5c-0.4-0.9-0.7-1.8-0.7-2.8c-0.1-1,0.1-2,0.5-3l0,0c0.7-1.9,2.1-3.5,4-4.3l0.2-0.1l0,0l0.5-1.4
		l-3.7-1.4l-5.2,4.1l-1.3-6.5l-3.7-1.4l-0.2,0.4l0.1,0.1l0.1,0.1l0.1,0.2l0.1,0.1l0.1,0.2v0.1l0.2,0.3c0.2,0.5,0.4,1,0.6,1.5v0.1
		l-2.7,0.8l-1.8,4.9l1.6,2.4l-0.1,0.1c-0.5,0.3-1,0.6-1.5,0.8l-0.3,0.1H229l-0.2,0.1h-0.1l-0.2,0.1h-0.1h-0.2l-0.2,0.5l3.4,1.2l3-8
		l1.6,6.8l5.7-4.2l-3,8.1l3.4,1.3l0.5-1.3l0,0C242.3,406.6,242.3,406.5,242.2,406.5z"/>
	<path class="st0" d="M256.9,403.1c0-0.9-0.3-1.9-0.7-2.7c-0.4-0.9-1-1.6-1.7-2.3c-0.8-0.7-1.7-1.2-2.6-1.6c-1-0.4-2-0.5-3-0.5
		c-0.8,0-1.6,0.2-2.4,0.5h-0.1h-0.1l0,0l-0.2,0.1l0,0c-0.9,0.4-1.7,0.9-2.4,1.6c-0.7,0.7-1.2,1.6-1.5,2.5l0,0
		c-0.7,1.8-0.6,3.8,0.2,5.6l0,0l0.1,0.2l0,0l0.1,0.1v0.1c1.5,2.5,4.2,4.1,7.1,4c1,0,1.9-0.2,2.8-0.6c1.8-0.8,3.2-2.3,3.8-4.1l0,0
		C256.8,405.1,257,404.1,256.9,403.1z M252.9,404.8c-0.2,0.5-0.4,0.9-0.8,1.3c-0.3,0.4-0.7,0.7-1.2,0.9c-0.4,0.2-0.9,0.4-1.4,0.4
		s-1.1-0.1-1.6-0.2c-0.5-0.2-1-0.5-1.4-0.8c-0.4-0.4-0.6-0.8-0.8-1.2c-0.4-1-0.4-2,0-3l0,0c0.2-0.5,0.4-0.9,0.8-1.3
		c0.3-0.4,0.7-0.7,1.2-0.9c0.4-0.2,0.9-0.4,1.4-0.4c1.1-0.1,2.1,0.3,2.9,1.1c0.4,0.4,0.6,0.8,0.8,1.3c0.2,0.5,0.3,1,0.3,1.5
		C253.2,403.8,253.1,404.3,252.9,404.8L252.9,404.8z"/>
	<ellipse class="st1" cx="556.6" cy="703.9" rx="89.3" ry="13.3"/>
	<polygon class="st10" points="620.6,293.3 656,229.2 630.8,165.2 615.7,169.2 622.2,205.7 587.5,264.1 	"/>
	<path class="st10" d="M617.5,385.3l9.6,38.4c0.5,4.7,0.6,9.4,0.5,14.2v118.7l-23.8,40.5h-26.4l-16.7-53.3c0,0,10.1-181.3,12-181.3
		S617.5,385.3,617.5,385.3z"/>
	<path class="st10" d="M580.8,379.1l13.3,51.2c0.1,1.9,0.2,3.7,0,5.6l-10.7,118.6L563.9,596l-22.9,4.1l-29.3-52.8l17.4-119.7
		l-1.9-57.3L580.8,379.1z"/>
	<path class="st10" d="M566.8,223.6l-37.2,15.7l6,78.5l1.8,22.6l-19.2,42.3c0,0,35.5,28.4,109.9,10.9l-15.9-46.5l1.2-16.8l20.1-75.1
		L598,223.7L566.8,223.6z"/>
	<polygon class="st11" points="613.5,330.2 612.3,347 534.4,346.9 539.5,330.2 	"/>
	<polygon class="st10" points="551.3,264.9 547.3,243.6 541.7,233.8 530.3,236.5 519.7,252.9 511.1,332.5 490,393.1 497.3,402.7 
		498.4,412.8 511.2,417.2 518.2,409.6 530.5,406.4 547.4,337.6 	"/>
	<path class="st6" d="M597.7,682.8v23.3h-3.4l-2.5-9.8l-6.1,9.8h-34.2c13.2-2.7,24.4-11.3,30.5-23.3l-4.7-85.7h26.5L597.7,682.8z"/>
	<path class="st6" d="M558.6,687.3v23.6h-3.5l-2.5-9.9l-6.2,9.9h-34.8c13.4-2.8,24.8-11.5,31-23.6l-4.3-92.9l26.7,1.7L558.6,687.3z"
		/>
	<path class="st2" d="M550.2,137.4c0,0-29.8,38.7-1.2,68.3l28.3-30.7L550.2,137.4z"/>
	<path class="st16" d="M558.2,267.5c0,0-2.7,5.1,2.5,4.1s6-6,8.5,0.1s3.5,6.1,6.6,4.5s4.2,0,7.6-3.9s1.6-5.5,0-11.9s-2.2-11-5.8-8.8
		s-1.6,0.4-6.2,2.8s-8.3,0.8-9.8,0.6s-8.8,2.8-5.6,5.4S558.2,267.5,558.2,267.5z"/>
	<path class="st16" d="M633.8,211.7c1.5-5,2.2-9.8,3.8-7.1s1.3,5.9,4.6,7s5.1,0.4,3,4.6s-1.1,1.6-1.2,7s3,6-4.1,5.2
		s-13.7,5.6-12-1.3s7-4,7-7.1C634.8,217.3,634.4,214.5,633.8,211.7z"/>
	<path class="st5" d="M547.3,243.6c25.5,42.3,74.2,14.8,74.2,14.8s22.2,8.8,32.4-13.4c0,0-20.4,10.1-26.3-27.2
		c-3.1-14.1,5.1-21.5,5.7-36c0,0,6.2-25.9-8.5-45.9c0,0-9.7-17.4-34.6-21.8c-13.5-1-26.9,3.4-37.2,12.2c0,0-23,18.5-9,41.9
		c0,0,8.8-8.8,9.3,2.1c0.1,2.9-1.1,9.7-6.5,9.7c0,0,2.9,17.6-1.1,30.9S544.9,239.7,547.3,243.6z"/>
	<path class="st8" d="M539.5,140.9c0,0-6.8,50.5,7.6,64c0,0-11.5-42.5,0.5-62.5L539.5,140.9z"/>
	<path class="st10" d="M532,150.8c0,0,55,27.1,106.3,22.4c0,0,4.1-55.5-41.7-63.6C547.4,100.8,532,150.8,532,150.8z"/>
	<polygon class="st10" points="518.7,467.8 513.6,507.1 529.5,520.1 551.8,513.7 554.8,475.6 	"/>
	<polygon class="st10" points="518.7,467.8 513.6,482.8 530.4,496 554.8,489.8 554.8,475.6 	"/>
	<path class="st16" d="M538.4,574.1c0,0,4.8,0.4,6-7s-0.8-9.4,6-11.8s12.8,0,12.8,4.8s6,5.6,7.6,7s2.8,1.4,0,5.4s-7.6-0.8-8.8,4.8
		s-1.9,10-6.5,8.8s-3.6-3.2-7.5-6.4S539.6,579.7,538.4,574.1z"/>
	<path class="st16" d="M520.7,537.2c-0.1-4.8,0.7,3.2,3.5-8s8.7,5.6,14.2,4s8.7-2.8,9.1,2.4s1.2,4.4-2.8,7.6s-10,1.6-12.4,5
		s-6.9,5-9.2-3L520.7,537.2z"/>
	<path class="st16" d="M565.1,516.5c0,0,7.6,0.8,10.8-5.6c3.2-6.4,7.6-8.8,7.2-4.4s3.8,10,3.8,10l-1.6,17.2c0,0-8.2-3.1-7.7,0
		s-1.3,6.3-5.2,5.9s-6.2-1.2-4.2-5.6s-4.4-0.1-4.8-5.5S569.6,522.5,565.1,516.5z"/>
	<path class="st16" d="M559.8,478.3c0,0-6.3,3-2.7,8.1s6.7-1.3,3.5,5.1s1.6,7.6,3.6,6.4s4.1-7.2,8-7.2s2,2,6.4-2.4s7.7-4.8,4.6-10
		s-5.8-2.4-9.2,0s-6.2-3.9-7-6S559.8,478.3,559.8,478.3z"/>
	<path class="st16" d="M538.4,443.5c7.5,4.9,1.8-10.4,9.4-5.6c5.1,3.3,4.5,8.8,7.7,9.2s8.1,2,5.3,4.8s-5.7,1.2-4.7,5.2
		s0.1,3.6-4.7,5.2s-12.4-4-13,0s-11.8,1.6-8.2-3.6S532.9,440,538.4,443.5z"/>
	<path class="st16" d="M572.5,426.5c0,0,6.2-1.7,8.2-4.5s6,3.3,6.2,6.5s-1.7,4.6,2.8,5.6s1.8,5.7,0,7.7s-3.8,0.3-5.2,5.1
		s-11.2,8.4-10.5,3.2s1.9-9.6-3.7-11.2s-8.7-4.8-5.1-6.4S572.5,426.5,572.5,426.5z"/>
	<path class="st16" d="M542.6,412.9c3.6-4.4,0.7-8.6,4.8-7.7c4.1,0.9,4,4.9,8.2,5.7s7.4-6.8,12.9,2c0.5,0.8-1.8-1.5-3.8,3.9
		s-2.5,8.6-6.8,10.5s-3.8-3.2-6.9-2.5s-8.7,3.1-10.7-1.7S542.6,412.9,542.6,412.9z"/>
	<path class="st16" d="M603.8,501.5c0,0,6.5-2.5,6.5-8.3s5.2-5.7,5.6-2s1.2,5.3,3.6,7s5.6-2.5,3.6,3.4s-6.4,3-6.4,7
		c0,4,1.2,6.8-7.2,4.8C601.1,511.4,602.9,510,603.8,501.5z"/>
	<path class="st16" d="M589.6,536.5c0,0,3.4-9.6,8.2-7.6s6,2.2,9.2-0.3s5.4,1.2,6.9,3.9s4.3,0.8,3.5,7.2s-3.2,2.8-7.2,6.4
		s-13.2,5.2-12,0S589.4,544.1,589.6,536.5z"/>
	<path class="st16" d="M603.6,568.5c2.6-7.6,3-6.8,6.6-5.6s5.1-3.2,7.3-2.8s1.9,3.5,4.3,6.2l-9.1,15.5c0,0-4.9-2.3-7.3,0
		s-10,6.9-8.4,0s4.7-8.4,6.7-9S603.6,568.5,603.6,568.5z"/>
	<path class="st16" d="M581,565.7c4.9-0.6,4.8,0.8,5.8,4.6s1.8,1.8,2.8,5.4s-1.3,2.8-2.8,7.6s-2.6,9.1-7.4,3s-7.6-7-7.6-7l6.5-13.9
		C578.3,565.5,578.3,566.1,581,565.7z"/>
	<path class="st16" d="M594.9,473.5c0,0,5.8-0.3,7.4,2.3s-0.6,3.2,3,3.2s2-3.7,6-5.5s2.5,5.1,6.9-1.3s8.1-6.6,4.9-9.8s0,0-8.5-3.6
		s-5.5-7.4-8.7-5.6s-3.4,3.8-4.2,7.4s-3.6,6.3-5.6,5.2S593.5,465.8,594.9,473.5z"/>
	<path class="st16" d="M625.4,417.2c0,0-4.6-5.5-6.8-0.8s-2.2,4.3-6.2,5.9s-6,1.2-4,4s5,0.4,5.5,4.4s-2.7,3.4-1.7,7.4s3.8,7,6.4,5
		c0,0,1.5-6.8,3.7-6.1s1.8-0.1,1.4-3.5s3.4-9.8,3.4-9.8L625.4,417.2z"/>
	<path class="st16" d="M551.4,384.3c0.4-3.7,4.1-1.8,5.2-7s2.3-6.2,4.2-4.8s2.2,1,8.6,0s7.2-2.6,7.1,0s-3.7-0.3,0,5.5
		s6.3,0.5,6.7,6.4s-2.8,10.8-9,8.6s-9.1-5.2-11-2.8s-8.6,4.4-6.6-0.2S550.8,389.3,551.4,384.3z"/>
	<path class="st16" d="M590.5,372.7c-3.8,4.4,6.4,4.6,8,3.4s5.2-5.2,6.6,0s5.2,7.4,6.4,3.4s-0.2-5.8,1.6-6.8s4-3.6,0-6.6
		s-3.6-0.8-4.6-5.2s-4.6-6.8-5.6-3.4s1,7.4-4.2,6.4s-6.6-5.4-8.2-1.6S593.1,369.7,590.5,372.7z"/>
	<path class="st16" d="M554.1,347c0,0-8.5,3.9-6.5,5.7s4-3.8,5.3,2s4.7,5.2,5.7,3.8s-0.5-4.2,5-2.6s7.5,1.8,10.4-0.8
		s1.9-8.1,1.9-8.1H554.1z"/>
	<path class="st16" d="M598.5,322.3c-3.8-1-2.8-4.2-7.2-3s-7-4.8-4-7.8s4-4.6,6.9-3s2.7,3.7,5.5-0.6s4.8-7.4,6.4-3.6
		s0.6,3.4,2.4,6.4s6.2,1.9,5,6s-4,1.6-5,4.6s-0.2,7.6-4.4,5.2S598.5,322.3,598.5,322.3z"/>
	<path class="st16" d="M561.3,305.9c0,0,2.1,4.6,6,2.3s6.2-4.1,8.4-2.3s4.4,0.2,4-4.8s4.8-2.8,3-6.2s-2.2-3.6-7-5.8
		s-9.1,1.8-7.8,4.8s-0.2,6.4-2.3,6.6s-4.3-5-4.3,0.2L561.3,305.9z"/>
	<path class="st16" d="M602.5,271.4c-4.6,1.4-12.7-2.4-11.5,2.2s7.1,2,8.8,7.8s0.2,6.8,4,8s1.4,1.8,7-2.2s7,0.8,9.6-2.4
		s6.2-6.8,2-8.8s-6.6,4.6-8.5-1.8s-6.1-10-7.7-6.7S602.5,271.4,602.5,271.4z"/>
	<path class="st16" d="M508.1,394.3c-0.3,6,5.9,7.1,9,4.7s6.1,0.6,8.8,1.1s5.9-4.6,4.9-9.7s-4.8,0.3-4.9-8.6s-3.8-15.5-6.4-8.8
		s-8.2,11.1-9.6,11.1s-6.2-2-4.2,1S508.1,394.3,508.1,394.3z"/>
	<path class="st16" d="M515.7,344.9c-0.2-4,5.7-3.7,6-1.6s0.3,3.3,3,4.5s6.3-1.2,5.4,3.3s-3.3,1.8-4.5,4.5s-0.8,2.1-2.6,6.1
		s-6.4,3.7-7.3,0s-4.1-1.9-4.6-6.4S516.3,354.6,515.7,344.9z"/>
	<path class="st16" d="M531.1,330.2c-0.8,2-3.2,5.6,1.3,4.4s3-10.3,7.2-4.4s3.6,4.2,6,1.3s2.4-3.8,0-9.9s1.5-13.3-4.2-8.6
		s-8.9,5.3-11.8,2.9s-6.8,3-3.8,4.8S531.1,330.2,531.1,330.2z"/>
	<path class="st16" d="M523,300.3c-0.4,2.7-3.8,4.4,0,4.7s4.1-3.8,7.1-4.7s2.5,0,5.9,0s1.3,2.3,4.3-4.6s3.1-5.2-2-9.1
		s-7.9-7.7-11.3-3.5s-10.5,3-5.8,5.9S523,300.3,523,300.3z"/>
	<path class="st16" d="M533.9,250.1c2.6-2.4,6.9-5.7,6.4-3s3.4,4.2,4.9,6.4s2.7,1.8,0.3,5.3s-6.7,3.8-4.8,6.5s-4,8.1-6.8,4.6
		s-5.3-2.5-4.9-8.2s1.3-5.8,3.4-7S533.9,250.1,533.9,250.1z"/>
	<path class="st2" d="M498.4,412.8c0,0-10.8,14.7-6.9,16.3c2.1,0.9,3.6-2.9,3.6-2.9s-2.5,13.3,0.9,14.2c6.8,1.9,11.8-11.1,15.2-23.3
		L498.4,412.8z"/>
</g>
</svg>
