<svg version="1.1" id="Layer_1" xmlns="http://www.w3.org/2000/svg" x="0" y="0" viewBox="0 0 775.8 793.7" xml:space="preserve"><style>.st0{fill:#fff}.st1{fill:#ccc}.st2,.st3{stroke-width:.5}.st2{fill:#fff}.st2,.st3,.st5{stroke:#000;stroke-miterlimit:10}.st3{fill:#0077bf}.st5{stroke-width:.5}.st5,.st6{fill:#1a1a1a}.st7{fill:none;stroke:#000;stroke-width:.5;stroke-miterlimit:10}.st8{fill:#cecece}.st10,.st11,.st8{stroke:#000;stroke-width:.5;stroke-miterlimit:10}.st10{fill:#eb058c}.st11{fill:#ffe600}.st13{fill:#bcbcbc}.st16{fill:#b70071;stroke:#000;stroke-width:.5;stroke-miterlimit:10}</style><path class="st0" d="M204.9 510.5S39.8 547.4 18.2 361.4c0 0-50.7-215.9 206.8-311.9 0 0 112.5-51.5 290-1.2 0 0 142.8 56.8 192.9 177.9 0 0 89.6 208.2 15.6 394.5 0 0-59.3 242.5-253.5 129.6 0 0-62.8-44.9-64.7-139 0 0 6.7-145.8-200.4-100.8z" id="Layer_7"/><ellipse class="st1" cx="254.2" cy="701.5" rx="108.9" ry="13.3"/><path class="st2" d="M268.8 171.2l2.1-24 23 3-1.4 21-9 12.8z"/><path class="st3" d="M340.8 103.8s-3.1 7.8-17.9 4.1l-7-21.4 19.3 2.7 5.6 14.6z"/><g id="Layer_9"><path class="st2" d="M325.7 122c1.2-13 2.5-12.6 1.9-19-.9-10.4-2.2-21.6-9.1-29.6-4.2-4.3-9.1-7.7-14.5-10.2-3.8-2.3-7.9-4-12.2-5-3.6-.6-7.4-.5-11 .2-10.3 1.7-19.6 7.2-26.2 15.3-17 21.8-6.2 50 8.5 68.7 5.5 7 17.3 15.6 26.1 15.6 25.4-1.1 35.4-23.5 36.5-36z"/><path d="M292.7 100.4c-5.7-2.9-15-1.7-17.9 1.4m49 4.2c-2.6-4.4-9.5-6.9-14.3-5.3" fill="#fff" stroke="#000" stroke-miterlimit="10"/><path class="st2" d="M296.6 132.2c1.8-.5 3.5-1.1 5.2-1.8.4-.1.8-.4 1.1-.7.7-.8.5-2.1.2-3.1l-1.4-5.6"/><ellipse transform="rotate(-7.52 285.577 116.239)" class="st5" cx="285.6" cy="116.3" rx="2.7" ry="3.4"/><ellipse transform="rotate(-81.86 313.417 118.537)" class="st5" cx="313.4" cy="118.5" rx="3.2" ry="2.5"/><path class="st6" d="M259.9 102.9s-5.4-9.3-8.8-5c-1.2 1.5-1.2 12.6 8.1 18.8 0 0-7.2 9-3.2 15.2 0 0-10.1-7.9-17-39.4 0 0-6.9-27.2 25.2-29.6 12-19.3 36.9-22.6 61.6-4 7.3 16.2 7.8 34.7 1.5 51.3 0 0 2.8-16.4-8.2-27.5 0 0-24.7 13.7-36.4-5.8 0 0-13.3-1.2-22.8 26z"/></g><path class="st7" d="M281.7 134.8s13.4 9.3 20.5 6.2c0 0-15.6 17.8-20.5-6.2z"/><path class="st8" d="M338.9 98.7c-6 52.9-41.4 59.3-41.4 59.3v-1.8c36.5-16.1 36.2-61.1 36.2-61.1l5.2 3.6zm-93.5-9.5s.5 42.9 34.4 64.2l-1 2.5s-38.4-16.7-39.9-63.5l6.5-3.2z"/><path class="st3" d="M238.4 114.4s28.6-28 65.1-23.8c0 0 29.8 1.8 37.4 12.5 0 0 2.1-60.5-57.1-58.1-24 1-40 16.8-45.4 29.7-10.9 26.2 0 39.7 0 39.7zM269.3 437l-7.1 46.2 13.8 13.3 19.8 2.2 19.9-15.2-3.4-45.3z"/><path class="st3" d="M312.8 328.7l-2.5 198.8-18.9 75.9h-27.7L246 529.2l21.5-197.7z"/><path class="st3" d="M277.7 322.3l-17 205.2-22.3 75.9-28-2.3-15.7-82 19.8-196.8z"/><path d="M206.2 593.3l37.9 3.3-14.8 90.5 29.4 22.2-49.2-3.6zm53.2-1.9L296 593l-15.7 92.7 36.4 20.4-52.2-3z" stroke="#000" stroke-width=".5" stroke-miterlimit="10"/><path class="st10" d="M243.5 206l-45.4 154.1-8.2-4 42.2-159.5z"/><path class="st3" d="M200.8 433.1l-10.9 45.5 12.6 14.4 19.5 3.8 21.2-13.4.3-45.5z"/><path class="st3" d="M200.8 433.1l-4.6 11.5 19.9 13.3 27.7-3.3-.3-16.7zm129.8-240.7l20.8 70.4 35.4-6 5.1 1.5 8.4-1.5L405 271l-6.8 6.2-2.4 4.8-57.6 35.8-10.5-1.3-37.9-64.5z"/><path class="st3" d="M217.5 310.4L202.1 266l20.2-84.5 42.8-10.3 20.2 8.9 13.2-8.9 32.1 21.2 2.3 52.6-4.7 44.6-15.4 23.5z"/><path class="st11" d="M312.8 313.1l-.1 22s-71.2.4-99-4.8l2.3-23.2 96.8 6z"/><path d="M266.5 314.4l16 1.2-1.1 14.5-16.2-.8 1.3-14.9m-3.8-4.5l-2.6 24.3 25.3.5 1.8-22.9-24.5-1.9z"/><path class="st3" d="M209.3 236l-64-54-2.1-20 66.9-56h12.8l9.2-5.2 11.6 13.6-5.9 7.2-.9 8.8-37.6 40.8 23 10.3 10.1-2.4-.6 42.6z"/><path class="st3" d="M262.7 180.1c-1.4-.1-36.2 5.6-36.2 5.6l1-11.2 32.2-5 3 10.6zm36.5 3.4c1.4.2 33.9 13.9 33.9 13.9l1.6-11.1-30.2-12.3-5.3 9.5z"/><path class="st3" d="M269.5 157c-1 .2-13.7 10.6-13.7 10.6l4.2 27.3 25.3-14.7-15.8-23.2zm38 16.6l-5.5 23-16.7-16.5 8.4-19.5z"/><path class="st2" d="M233.5 102.4s13.1-16.8 30.3-14.6 16.8 5 15.4 7.2-17.2 3.2-21.4 4.4c-4.6 1.3-6.3 15.4-14.1 15l-10.2-12z"/><path class="st3" d="M234 245.6l4.6-26.4 32.1 3.4-1.3 27.4-20.8 6.8z"/><path class="st3" d="M238.6 219.2l-1.6 9 15.3 7.8 17.9-3 .5-10.4zm54 31.1l2.5-26.7 32.2.8.9 27.4-17.8 8.9z"/><path class="st3" d="M295.1 223.6l-.9 9.1 15.9 6.6 17.6-4.5-.4-10.4z"/><path class="st7" d="M285.3 180.1l-7.6 129.8m-60.8-78.5l-6.6 29.3 5.7 46.4"/><path class="st2" d="M404.3 269s28.9-1.3 33.2-21.8c4.2-19.9-23.8-2.9-32.6 3.8-1.3 1-4.2 7.3-4.2 7.3l3.6 10.7z"/><path class="st10" d="M422.8 262.8l-15.6-10.7 26.2-47.2 22.7 15.6z"/><path class="st10" d="M424 264.4l-13.8-13 33.2-42.5 20.1 18.9z"/><path class="st10" d="M420.4 267.5l-11.1-15.3 40.5-35.7 16.2 22.3z"/><path class="st2" d="M400.8 258.4s5.3-12.8 10.5-16.4 11.1 5.4 11 8.6c0 1.8-5.6 3.1-10-1.8l-4.2 3.9"/><path class="st10" d="M279.5 149.3l16.4 1.8c2.2.2 3.8 2.2 3.6 4.5l-.2 1.6c-.2 2.2-2.2 3.8-4.5 3.6l-16.4-1.8c-2.2-.2-3.8-2.2-3.6-4.5l.2-1.6c.3-2.3 2.3-3.9 4.5-3.6z"/><path d="M244.7 344.1c5.4-3.6 12.7-2.4 16.6 2.8 1.2 1.4 1.8 3.2 1.8 5.1-.4 7.3-2.5.7-4.5 9s5.7 8.7-2.2 11.7-5.3-4-14.5-7.4-24-14-8.7-17.1c7.5-1.4 7.6-1.5 11.5-4.1zm-6.9 46s-5.4-15.6-10.2-7.8-3.3 3.6-8.4 7.8-7.5 10.8-3.3 12.9 5.7-4.5 12 0 1.8 8.1 4.8 9.6 12.3-3.9 12.4-10.5-.4-12-7.3-12zm32.2 25.7s-7.8-4.2-13.2 1.5c-5.4 5.7-6.4 4.8-10.8 5.7s-8.3 2.7-4.9 6.3 15.7-.5 16.9 7.6 8.6 11.1 9.4 9.9l2.6-31zm-66.5 57.6c-2.2-3.4-1.8-7.9 1-10.8 1.3-1.3 2.7-1.8 3.7.2 2.4 5 2.7 5 9 5s9.6-4.2 10 4.5-2.9 11.2-3.5 14.7-2.8 5.4-9.2 1.2 2.3-6.3-4.6-9c-2.7-1.2-5-3.2-6.4-5.8zm1.1 39.4c2.7-1.8 2.1-12.6 6.9-10.5s4.7 1.5 8.5 5.1 1.2-2.1 7.3 2.4 5.2 7.8 3.1 10.8-4.4 3.3-3.1 7.8-16.1 8.7-14.6 0-3-7.5-6.3-9.3-1.8-6.3-1.8-6.3zm58.2-10.7s-11.8-9.5-13.5-3.4-6.5 6.6-9.5 8.5-2.4 6.9 3.7 9 10.4.9 11.4 6.6 5.9 4.8 5.9 4.8l2-25.5zM220 561.4s.9-10.2 7.3-10.2 15.1-5.7 16.2-7.2 6.5 3.9 4.4 8.7-6 3.6-5.7 8.7 8.7 5.1-1 9-12.4-.6-13.8 2.7-11.5 6.9-9.2 0c1.4-3.7 2-7.7 1.8-11.7zm62.1 22.7c-.9.4-13.8 0-11.7-7.4s5.9-6 1.7-13.7-3.2-12.2 1-11.9 5.4 0 9 2.8 9.6 1 12.8 0 5.6 2.5 5.6 2.5-3.8 21.7-18.4 27.7zm-9.4-64.2s5 5.7 3.5 12.3 4.5 2.4 12.5 0 2.2-5.7 1.7-11.7 5.9-1.5 7.1-6.6c1.2-5.1-2.4-5.1-7.1-4.5s-6.1-1.8-6.7-8.7-5.7-1.2-5.7-1.2-4.6.4-4.7 2.9 1.2 8.2.3 10.8c-.9 2.6-2.3 4.7-.9 6.7zm20.9-60.4s5.1-7.8 6.6-4.8 1 4.8 5.4 4.8 1.2 8.7 0 12.3-1.2 3 .6 5.7 2.1 5.4-2.1 7.2-9 4.5-10.5 2.4 2.1-3.9 0-7.2-7.1-2.7-5.7-6 .1-1.5 2.9-4.2 2.8-10.2 2.8-10.2zm-10.3-37.8c5 0 6.8-2.4 6.9 0s-2.3 3.3 2.5 6.6 9 1.8 8.1 5.4-.1.9-5 4-3.6 6.8-10.1 7.1-7.9 2.8-7.2-3.2-2.8-4.3-3.9-8.9 1.8-11 8.7-11zm14.3-25c2.7-6.9 6.9-11.1 7.5-6.9s6.9 3.9 6.9 3.9l-.3 20.7s-7.5-2.1-9.3 0-8.2 5.4-7.4 0-4.3-6.3-5.2-9.9 7.8-7.8 7.8-7.8zm-10.5-41.4c4.3-4.8 7.4-4.8 8-2.1s4.1 4.8 7.1 4.8 10.5 7.2 7.2 10.2-7.6.5-8.5 4.3.2 6.2-5.9 6.5-8.9 3.6-8-3-2.3-6.3-4.6-8.7-3.1-6.3 0-6.6 4.7-5.4 4.7-5.4zm-39.2-72.4c5.9-4.2 8.3-5.7 8.6-8.1s1.2-2.1 4.8 0 3.7 1.2 5.6 6.3 5.9 1.8 4.8 7.8-2.2 3.3-8.1 6.6-.8 11.1-9.8 7.5c-9-3.6-9.9-4.5-12.6-8.1s-3.2-5.4 2-4.8 4.7-7.2 4.7-7.2zm41.9-18.5c1.8-.7 3.2-2.1 4.1-3.7 1.3-2.7 3.5-3 5.3-1.2s3.8 4.5 5.6 6.6 8.3 1.8 6.1 7.2-9 2.4-11.7 3.6-4.6 8.1-9.4 2.7-6.6-12-4.5-12.1 4.5-3.1 4.5-3.1zm12.3 28.7c4.2-1.8 2.1-8.6 5.4-8.2s1.9 2.7 5.3 4.1 2.8-.5 5.4 0 5.3 7.8 5.3 7.8l-6.7 10.2s-4.5-2.9-5.8 0-3.7 4.7-6.4 1.4 0-6.2-2.4-8.1-3.7-5.7-.1-7.2zm-74.4-38c2.7-2.5 7.7-3.8 8.5-1.6s3.5 7.8 5.9 7.2 9.8 8.5 2.5 8.3-11.5-1.7-12.7 1-4.5 3.5-7.5 3.1-5.7.2-5.1-5.6-3.4-10.3-2.4-12.4 10.8 0 10.8 0zm77.4-53.5c3-4.5 1.7-5.7 5.8-6.6s4.7 1.8 6 3.3 1.7 5.1 4.7 3.3 5.1 0 3.6 3.3-6.9 3.9-9.3 6-6 8.2-10.8 5.6-10.5-2.9-13.2-6.2-2-7.3.6-7.1 6.7 1.6 9.6 0l3-1.6zm-27.4-4.1c-1.7 2.6-4.3 2.6-7 4.5s-1.1-2.4-5.5 0-8 1-7.1 4.1-1.8 5.8 5.2 5.8 6.4-.3 8.7 3.3c1.3 2.5 4.4 3.4 6.9 2.1.4-.2.7-.4 1-.7 1-1 2.2-1.7 3.5-2.3l1.1-14.7s-.7.7-3.1-2-3.7-.1-3.7-.1zm-78.9-8.1c2.8-2.7 4-4 5.5-7.1s4.4-.8 6.1 0 7.9 6.4 6 8.4-2.3-.3-3 5 6.7 8.8 0 11.4-15.4-2-16 0-2.1 3.5-3.3-4 4.7-13.7 4.7-13.7zm-37.4-22.7c3.3-3.3 2.1-6.6 5.4-6.9s3.3.9 4.5 3.5 7.5 2.9 9.3 3.5 4.8 2 3 6.1-5.7-.6-3.9 5.6 3 9.5-1.5 9.1-11.4 3.4-11.1-2.4-.9-6.9-5.7-6.7-9.6 2.6-8.4-1.7 8.4-10.1 8.4-10.1zm35.8-19.3c3.5-2.8 2.7-6.2 4.9-6.3s7 .8 6.5 2 2.8 1 4.9 1.1 3.4-1.8 3.3 3.1-5.4 10.7-5.4 10.7l-7 7.6s-2-2.4-7.3-1.2-8.2 1.5-8.5-2.1-3.9-6.6 1.5-6.3 6.9-1.4 7-2.7.1-5.9.1-5.9zm-10.6-21.7s0 8.3-1.8 9.1-6.9-1-2.4 4.1 9.5.3 11-2.1 4-6.7 7-4.9 7.5 2.9 8.2 0-1-2.9 0-6.2 5-2.5 3.8-7.1-4.5-5.3-7.2-4.2c-1.7.6-3.5.6-5.1 0l-13.5 11.3zm164.3 184.2s-1.7-5.3-3.5-4.1-3.6 4.7-6.3 1.3-5.1-3.7-2.2-7.3 8.5-10.1 10-11.2 2.4 1.3 5.7 3.1 4.2-1.5 7.8-1.5 6.3.9 4.5 3.3-1.3 7.3-1.3 7.3l-14.7 9.1zm14.9-45.5c-2.4 4.8 7.8 2.9 4.2 7.1s-2.5 5.4 1 6.9 5.2 0 9.1 0c4 0 5.2 2.1 7.9-.6s2.1-2.1 2.7-6 3.6-5.5-1.8-7.4-4-.8-10-1.6-10.1-4.3-13.1 1.6zM344 238s-3.1.2-5.1 7 1.8 6.5-1.3 10.1-7.8 3.8-2.9 5.6 4.9-2.6 7.6.4 6.4-7.1 7.7-2.7l-6-20.4z" fill="#005b99" stroke="#000" stroke-width=".5" stroke-miterlimit="10"/><path class="st10" d="M316 178.6S263.1 370.1 250.4 380l12.7 5.2s61.4-184.5 64.6-201.8c0 .1-7.5-7.8-11.7-4.8z"/><path transform="rotate(-71.989 224.215 368.024)" class="st2" d="M175.1 332.9h98.2v70.3h-98.2z"/><path transform="rotate(-71.989 235.71 332.844)" class="st13" d="M234.3 304.1h2.9v57.4h-2.9z"/><path transform="rotate(-71.989 233.378 339.875)" class="st13" d="M231.9 311.2h2.9v57.4h-2.9z"/><path transform="rotate(-71.989 231.144 346.94)" class="st13" d="M229.7 318.2h2.9v57.4h-2.9z"/><path transform="rotate(-71.989 228.82 353.98)" class="st13" d="M227.4 325.3h2.9v57.4h-2.9z"/><path transform="rotate(-71.989 226.583 361.043)" class="st13" d="M225.1 332.3h2.9v57.4h-2.9z"/><path transform="rotate(-71.989 224.258 368.083)" class="st13" d="M222.8 339.4h2.9v57.4h-2.9z"/><path transform="rotate(-71.989 221.948 375.026)" class="st13" d="M220.5 346.3h2.9v57.4h-2.9z"/><path transform="rotate(-71.989 219.719 382.097)" class="st13" d="M218.3 353.4h2.9v57.4h-2.9z"/><path transform="rotate(-71.989 217.388 389.128)" class="st13" d="M215.9 360.4h2.9v57.4h-2.9z"/><path transform="rotate(-71.989 215.149 396.207)" class="st13" d="M213.7 367.5h2.9v57.4h-2.9z"/><path transform="rotate(-71.989 212.817 403.238)" class="st13" d="M211.4 374.5h2.9v57.4h-2.9z"/><path transform="rotate(-63.122 229.401 366.68)" class="st2" d="M180.3 331.5h98.2v70.3h-98.2z"/><path transform="rotate(-63.122 246.11 333.631)" class="st13" d="M244.7 304.9h2.9v57.4h-2.9z"/><path transform="rotate(-63.122 242.796 340.2)" class="st13" d="M241.4 311.5h2.9v57.4h-2.9z"/><path transform="rotate(-63.122 239.41 346.844)" class="st13" d="M238 318.2h2.9v57.4H238z"/><path transform="rotate(-63.122 236.08 353.399)" class="st13" d="M234.6 324.7h2.9v57.4h-2.9z"/><path transform="rotate(-63.122 232.72 360.046)" class="st13" d="M231.3 331.4h2.9v57.4h-2.9z"/><path transform="rotate(-63.122 229.38 366.612)" class="st13" d="M227.9 337.9h2.9v57.4h-2.9z"/><path transform="rotate(-63.122 226.01 373.265)" class="st13" d="M224.6 344.6h2.9V402h-2.9z"/><path transform="rotate(-63.122 222.688 379.814)" class="st13" d="M221.2 351.1h2.9v57.4h-2.9z"/><path transform="rotate(-63.122 219.36 386.38)" class="st13" d="M217.9 357.7h2.9v57.4h-2.9z"/><path transform="rotate(-63.122 215.979 393.033)" class="st13" d="M214.5 364.3h2.9v57.4h-2.9z"/><path transform="rotate(-63.122 212.658 399.582)" class="st13" d="M211.2 370.9h2.9v57.4h-2.9z"/><path transform="matrix(.9971 -.07672 .07672 .9971 -23.655 12.866)" class="st2" d="M116.8 288.7h77.7V340h-77.7z"/><path d="M131 298.2l5.3-.4c1.3-.1 3-.2 3.9.2 1 .5 1.9 1.5 2 2.9.1 1.6-.6 2.8-1.9 3.5 1.8.3 2.9 1.5 3.1 3.3.2 2.1-1.2 4.3-4.1 4.6l-7.1.5-1.2-14.6zm2.4 6.2l3.9-.3c2.2-.2 3.1-1 3-2.6-.2-2.1-1.6-2.2-3.3-2.1l-3.9.3.3 4.7zm.5 6.7l4.9-.4c1.7-.1 2.7-1.2 2.6-2.9-.1-1.9-1.7-2.3-3.4-2.2l-4.5.3.4 5.2zm21.5 0c-.3.2-.7.3-1.2.4-.9.1-1.5-.4-1.6-1.5-.9 1.2-2.1 1.8-3.6 1.9-1.9.1-3.6-.6-3.8-2.7-.2-2.4 1.6-3.1 3.4-3.6 1.9-.5 3.6-.5 3.5-1.8-.1-1.5-1.4-1.7-2.5-1.6-1.5.1-2.5.7-2.5 2.2l-1.8.1c-.1-2.6 1.8-3.7 4.2-3.9 1.9-.1 4 .1 4.2 2.6l.4 5.5c.1.8.1 1.2.6 1.2.2 0 .3-.1.5-.1l.2 1.3zm-3.3-5.2c-1.3 1.1-5.3.4-5.1 3 .1 1.2 1.1 1.5 2.2 1.4 2.3-.2 3.1-1.7 3.1-2.7l-.2-1.7zm6.5-5.7l2.1-.2.1 1.5-2.1.2.5 6.6c.1.8.3.9 1.4.8l.8-.1.1 1.5-1.3.1c-1.8.1-2.6-.2-2.7-2.1l-.5-6.8-1.8.1-.1-1.5 1.8-.1-.2-3.2 1.8-.1.1 3.3zm6.5-.5l2.1-.2.1 1.5-2.1.2.5 6.6c.1.8.3.9 1.4.8l.8-.1.1 1.5-1.3.1c-1.8.1-2.6-.2-2.7-2.1l-.5-6.8-1.8.1-.1-1.5 1.8-.1-.2-3.2 1.8-.1.1 3.3zm3.9-4.4l1.8-.1 1.1 14.7-1.8.1-1.1-14.7zm14.4 10.3c-.3 2.4-1.9 3.8-4.3 4-3.4.3-5.2-2-5.5-5.2-.2-3.2 1.7-5.7 4.6-5.9 3.8-.3 5.2 3.1 5.3 5.7l-8 .6c.1 1.9 1.3 3.4 3.6 3.2 1.5-.1 2.4-.9 2.6-2.3l1.7-.1zm-1.9-2.9c-.2-1.7-1.6-2.9-3.3-2.8-1.8.1-2.8 1.6-2.8 3.2l6.1-.4zm-43.7 28.8c-3.3.3-5.2-1.9-5.5-5.1-.3-3.5 1.5-5.9 4.7-6.2 2.6-.2 4.3 1 4.8 3.4l-1.8.1c-.4-1.5-1.4-2.2-2.9-2.1-2 .2-3.2 1.9-3 4.4.2 2.6 1.5 4.1 3.5 3.9 1.6-.1 2.6-1.2 2.7-2.9l1.8-.1c-.1 2.7-1.7 4.4-4.3 4.6zm16-1.5c-.4.2-.8.3-1.2.3-1 .1-1.6-.4-1.7-1.4-1 1.3-2.1 1.9-3.7 2-2.1.2-3.5-.9-3.6-2.7-.1-1.9 1-3.1 3.5-3.6s3.4-.5 3.3-2c-.1-1.1-1-1.7-2.5-1.6-1.6.1-2.4.8-2.5 2.4l-1.7.1c-.1-2.3 1.4-3.7 4.2-4 1.4-.1 2.7.2 3.4.8.8.7.9 1.8.9 2.7.1 1.6.2 3.2.3 4.7.1.8.3 1 .8 1 .2 0 .2 0 .4-.1l.1 1.4zm-5.6-4.5c-1.3.3-3 .5-2.9 2.3.1 1.1.9 1.7 2.3 1.6 1.6-.1 3.1-1.4 3-2.7l-.1-1.9c-.6.4-1.5.6-2.3.7zm12.1-5.1h-.5c-2.9.2-3.2 2.5-3 4.9l.3 4.5-1.8.1-.8-10.6 1.7-.1.2 2.3c.6-1.9 1.8-2.7 3.7-2.8l.2 1.7zm11.2 8.2l-1.6.1-.1-1.6c-.6 1.3-1.7 2-3.4 2.1-3 .2-5.1-1.8-5.4-5.2-.2-3 1.1-5.7 4.4-6 1.5-.1 2.7.4 3.6 1.5l-.4-5.5 1.8-.1 1.1 14.7zm-8.7-4.7c.2 2.6 1.6 4.1 3.6 4 2-.2 3.1-1.8 2.9-4.4-.2-2.1-1.2-4.1-3.6-3.9-1.9.1-3.1 1.8-2.9 4.3zm16.9-3.5c-.2-1.4-1.2-1.9-2.7-1.7-1.3.1-2.1.7-2.1 1.6.1 1.2 1.5 1.3 3 1.5 1.8.3 4.2.6 4.4 2.9.2 2.1-1.5 3.6-4.1 3.8-2.9.2-4.6-1-4.9-3.3l1.7-.1c.2 1.6 1.4 2.2 3.1 2 1.6-.1 2.5-.9 2.5-2-.1-1.2-1.3-1.3-2.8-1.6-1.9-.3-4.3-.4-4.5-2.8-.1-1.9 1.3-3.3 3.8-3.4 2.4-.2 4.3.8 4.5 3.1h-1.9z"/><path fill="#b2b2b2" stroke="#000" stroke-width=".5" stroke-miterlimit="10" d="M188.85 286.006l3.59-.276 8.132 105.693-3.59.276z"/><path class="st10" d="M163.5 406.9l25.9-61.1 79.4 31.1-15.8 65s-63.1-4.9-89.5-35z"/><path class="st0" d="M206.5 383.3c0-.3-.4-.3-.8-.5-.2-.1-.5-.1-.9-.2l.9-1.2c.1-.2-.6-1.2-1-1.1-.7.6-1.3 1.2-1.7 2-.7-.1-1.4-.2-2-.2v-.1c.3-.6-.5-1.2-1-1.4-.2-.1-.3-.1-.5 0-1.7 1.7-3.2 3.4-4.7 5.3h-.1c.8-1.7 1.7-3.4 2.7-5 .2-.4-.2-.6-.4-.7-.9-.4-2.4 2-3.6 5l-.1.1c-.5 1.2-2.5 3.1-4 2.5-1-.4-1.1-1.1-.8-2 .3-.9.7-1.7 1.2-2.4 0 .5.3 1 .8 1.2 1.5.6 3-1.3 3.8-3.7.6-1.7 0-2.6-.7-2.8-1.7-.6-5 3.5-6.1 6.6-.1.2-.1.3-.2.5 0-.1-.1-.2-.3-.2h-.2c-.4-1.4-1-3-1.5-4.2 2.1.7 4.3-.5 5-2.6.8-2.1-.5-4.5-2.7-5.6.1-.1.1-.2.2-.3-.2-.3-.5-.6-.8-.8-.5-.2-.5.1-.6.4-.1.1-.1.2-.2.3-1.4-.4-2.9 0-3.9 1.1-.1.3.7 1.2.9 1.3h.1c.5-.7 1.3-1.1 2.1-1.1-1.7 2.8-4.9 8.5-6.3 11.4.3.4.6.7 1.1.9.3.1.6-.3 1-.9s.1-.7.3-1l2-3.7h.1c.7 1.5 1.9 5.6 2.5 7.4.4 0 .8-.1 1.1-.3l.1-.1c.1 1 .8 1.9 1.8 2.3 1.1.3 2.3 0 3-.8-.1.7 0 1.2.6 1.4.2.1.5.1.7 0 1-2.2 2.4-4.2 4.1-5.9l.2.1c-.7 1.1-1.3 2.3-1.8 3.5-.5 1.5-.7 3 .6 3.4.9.3 1.8 0 2.4-.7-.1 1 .5 1.9 1.4 2.3 1.2.4 3.5-.4 3.9-1.6s-.3-1.2-.3-1.2c-.8 1.1-2.2 1.6-3.5 1.3-.4-.1-.5-.5-.3-1 1-2.8 1.3-2.8 3.6-6.2 1 .2 1.9.4 2.8.7.1.1.3 0 .4-.1v-.1c0-.3-.1-.5-.2-.8.1-.4-.2-.2-.2-.5zm-13.5-4c.2-.2.3-.3.4-.2s.2.2-.1 1c-.6 1.7-2 3.6-2.6 3.3-.4-.1-.3-.6-.3-.6.7-1.3 1.5-2.5 2.6-3.5zm-5.8-5.8c1.5.3 2.5 1.8 2.1 3.4v.1c-.9 2.4-2.9 2.8-5.1 1.9 1-2 2.2-4 3-5.4zm12.1 15c-.1.2-.1.3-.2.5-.4.4-1 1.1-1.6.9s-.6-.8-.2-1.7c.8-2.2 2.4-4 3.3-5.7 0 .4.2.8.5.9l.9.1c-1 1.6-1.9 3.3-2.7 5zm16.4 5.4c-.5 1.1-1.2 2.2-2.2 1.8-.6-.2-.6-.9-.2-1.7.8-1.8 1.8-3.5 3-5 .3-.4-.5-.7-.6-.8 0-.1.1-.1.1-.2.2-.5 0-1.6-1.3-2-2.2-.8-5 1.9-6.2 5.3-.8 2.2-.3 4 1 4.5.9.3 1.8 0 2.5-.6h.1c-.2.7.2 1.4.9 1.7 1.4.5 2.9-1.3 3.3-2.3-.1-.3-.2-.6-.4-.7zm-6.1.5c-.5-.2-.5-.7-.1-1.8.7-1.9 3.2-6 4.5-5.5.4.1.2.6.1.7-.3.7-.7 1.2-1.3 1.6.2.3.4.5.7.7-.2.7-2.8 4.7-3.9 4.3zm21 6.6l-1.5-2.2-.4-.5c-.3.1-.5.3-.8.4l-.9.3c-.3.1-.7.1-1 0-.3 0-.7-.1-1-.2-.5-.2-.9-.4-1.2-.8-.3-.3-.6-.7-.8-1.2-.2-.5-.3-1-.2-1.5 0-.5.1-1.1.3-1.5.2-.5.4-.9.8-1.3.3-.4.7-.7 1.1-.9.4-.2.9-.4 1.4-.4s1 0 1.5.2c.6.2 1.2.6 1.6 1.1s.6 1 .8 1.5l.8-.2 2.5-.8c-.1-.5-.3-.9-.5-1.3s-.4-.8-.7-1.1l-.2-.2c-.4-.4-.8-.8-1.3-1.1-.6-.4-1.2-.7-1.8-.9-1-.4-2-.5-3-.5-.9 0-1.9.2-2.7.6-.8.4-1.6 1-2.3 1.6-.7.7-1.2 1.6-1.5 2.5-.7 1.8-.6 3.8.2 5.6.4.8.9 1.6 1.6 2.2.7.7 1.6 1.2 2.5 1.5.7.3 1.4.4 2.1.5.6.1 1.2.1 1.8 0h.3c.5-.1.9-.2 1.4-.4.2-.5.7-.7 1.1-1z"/><path class="st0" d="M242.2 406.5c-.4-.9-.7-1.8-.7-2.8-.1-1 .1-2 .5-3 .7-1.9 2.1-3.5 4-4.3l.2-.1.5-1.4-3.7-1.4-5.2 4.1-1.3-6.5-3.7-1.4-.2.4.1.1.1.1.1.2.1.1.1.2v.1l.2.3.6 1.5v.1l-2.7.8-1.8 4.9 1.6 2.4-.1.1c-.5.3-1 .6-1.5.8l-.3.1h-.1l-.2.1h-.1l-.2.1h-.3l-.2.5 3.4 1.2 3-8 1.6 6.8 5.7-4.2-3 8.1 3.4 1.3.5-1.3c-.3.1-.3 0-.4 0z"/><path class="st0" d="M256.9 403.1c0-.9-.3-1.9-.7-2.7-.4-.9-1-1.6-1.7-2.3-.8-.7-1.7-1.2-2.6-1.6-1-.4-2-.5-3-.5-.8 0-1.6.2-2.4.5h-.2l-.2.1c-.9.4-1.7.9-2.4 1.6-.7.7-1.2 1.6-1.5 2.5-.7 1.8-.6 3.8.2 5.6l.1.2.1.1v.1c1.5 2.5 4.2 4.1 7.1 4 1 0 1.9-.2 2.8-.6 1.8-.8 3.2-2.3 3.8-4.1.5-.9.7-1.9.6-2.9zm-4 1.7c-.2.5-.4.9-.8 1.3-.3.4-.7.7-1.2.9-.4.2-.9.4-1.4.4s-1.1-.1-1.6-.2c-.5-.2-1-.5-1.4-.8-.4-.4-.6-.8-.8-1.2-.4-1-.4-2 0-3 .2-.5.4-.9.8-1.3.3-.4.7-.7 1.2-.9.4-.2.9-.4 1.4-.4 1.1-.1 2.1.3 2.9 1.1.4.4.6.8.8 1.3.2.5.3 1 .3 1.5.1.3 0 .8-.2 1.3z"/><ellipse class="st1" cx="556.6" cy="703.9" rx="89.3" ry="13.3"/><path class="st10" d="M620.6 293.3l35.4-64.1-25.2-64-15.1 4 6.5 36.5-34.7 58.4zm-3.1 92l9.6 38.4c.5 4.7.6 9.4.5 14.2v118.7l-23.8 40.5h-26.4l-16.7-53.3s10.1-181.3 12-181.3 44.8 22.8 44.8 22.8z"/><path class="st10" d="M580.8 379.1l13.3 51.2c.1 1.9.2 3.7 0 5.6l-10.7 118.6-19.5 41.5-22.9 4.1-29.3-52.8 17.4-119.7-1.9-57.3 53.6 8.8z"/><path class="st10" d="M566.8 223.6l-37.2 15.7 6 78.5 1.8 22.6-19.2 42.3s35.5 28.4 109.9 10.9l-15.9-46.5 1.2-16.8 20.1-75.1-35.5-31.5-31.2-.1z"/><path class="st11" d="M613.5 330.2l-1.2 16.8-77.9-.1 5.1-16.7z"/><path class="st10" d="M551.3 264.9l-4-21.3-5.6-9.8-11.4 2.7-10.6 16.4-8.6 79.6-21.1 60.6 7.3 9.6 1.1 10.1 12.8 4.4 7-7.6 12.3-3.2 16.9-68.8z"/><path class="st6" d="M597.7 682.8v23.3h-3.4l-2.5-9.8-6.1 9.8h-34.2c13.2-2.7 24.4-11.3 30.5-23.3l-4.7-85.7h26.5l-6.1 85.7z"/><path class="st6" d="M558.6 687.3v23.6h-3.5l-2.5-9.9-6.2 9.9h-34.8c13.4-2.8 24.8-11.5 31-23.6l-4.3-92.9 26.7 1.7-6.4 91.2z"/><path class="st2" d="M550.2 137.4s-29.8 38.7-1.2 68.3l28.3-30.7-27.1-37.6z"/><path class="st16" d="M558.2 267.5s-2.7 5.1 2.5 4.1 6-6 8.5.1 3.5 6.1 6.6 4.5 4.2 0 7.6-3.9 1.6-5.5 0-11.9-2.2-11-5.8-8.8-1.6.4-6.2 2.8-8.3.8-9.8.6-8.8 2.8-5.6 5.4 2.2 7.1 2.2 7.1zm75.6-55.8c1.5-5 2.2-9.8 3.8-7.1s1.3 5.9 4.6 7 5.1.4 3 4.6-1.1 1.6-1.2 7 3 6-4.1 5.2-13.7 5.6-12-1.3 7-4 7-7.1c-.1-2.7-.5-5.5-1.1-8.3z"/><path class="st5" d="M547.3 243.6c25.5 42.3 74.2 14.8 74.2 14.8s22.2 8.8 32.4-13.4c0 0-20.4 10.1-26.3-27.2-3.1-14.1 5.1-21.5 5.7-36 0 0 6.2-25.9-8.5-45.9 0 0-9.7-17.4-34.6-21.8-13.5-1-26.9 3.4-37.2 12.2 0 0-23 18.5-9 41.9 0 0 8.8-8.8 9.3 2.1.1 2.9-1.1 9.7-6.5 9.7 0 0 2.9 17.6-1.1 30.9s-.8 28.8 1.6 32.7z"/><path class="st8" d="M539.5 140.9s-6.8 50.5 7.6 64c0 0-11.5-42.5.5-62.5l-8.1-1.5z"/><path class="st10" d="M532 150.8s55 27.1 106.3 22.4c0 0 4.1-55.5-41.7-63.6-49.2-8.8-64.6 41.2-64.6 41.2zm-13.3 317l-5.1 39.3 15.9 13 22.3-6.4 3-38.1z"/><path class="st10" d="M518.7 467.8l-5.1 15 16.8 13.2 24.4-6.2v-14.2z"/><path class="st16" d="M538.4 574.1s4.8.4 6-7-.8-9.4 6-11.8 12.8 0 12.8 4.8 6 5.6 7.6 7 2.8 1.4 0 5.4-7.6-.8-8.8 4.8-1.9 10-6.5 8.8-3.6-3.2-7.5-6.4-8.4 0-9.6-5.6zm-17.7-36.9c-.1-4.8.7 3.2 3.5-8s8.7 5.6 14.2 4 8.7-2.8 9.1 2.4 1.2 4.4-2.8 7.6-10 1.6-12.4 5-6.9 5-9.2-3l-2.4-8zm44.4-20.7s7.6.8 10.8-5.6c3.2-6.4 7.6-8.8 7.2-4.4s3.8 10 3.8 10l-1.6 17.2s-8.2-3.1-7.7 0-1.3 6.3-5.2 5.9-6.2-1.2-4.2-5.6-4.4-.1-4.8-5.5 6.2-6 1.7-12zm-5.3-38.2s-6.3 3-2.7 8.1 6.7-1.3 3.5 5.1 1.6 7.6 3.6 6.4 4.1-7.2 8-7.2 2 2 6.4-2.4 7.7-4.8 4.6-10-5.8-2.4-9.2 0-6.2-3.9-7-6-7.2 6-7.2 6zm-21.4-34.8c7.5 4.9 1.8-10.4 9.4-5.6 5.1 3.3 4.5 8.8 7.7 9.2s8.1 2 5.3 4.8-5.7 1.2-4.7 5.2.1 3.6-4.7 5.2-12.4-4-13 0-11.8 1.6-8.2-3.6 2.7-18.7 8.2-15.2zm34.1-17s6.2-1.7 8.2-4.5 6 3.3 6.2 6.5-1.7 4.6 2.8 5.6 1.8 5.7 0 7.7-3.8.3-5.2 5.1-11.2 8.4-10.5 3.2 1.9-9.6-3.7-11.2-8.7-4.8-5.1-6.4 7.3-6 7.3-6zm-29.9-13.6c3.6-4.4.7-8.6 4.8-7.7 4.1.9 4 4.9 8.2 5.7s7.4-6.8 12.9 2c.5.8-1.8-1.5-3.8 3.9s-2.5 8.6-6.8 10.5-3.8-3.2-6.9-2.5-8.7 3.1-10.7-1.7 2.3-10.2 2.3-10.2zm61.2 88.6s6.5-2.5 6.5-8.3 5.2-5.7 5.6-2 1.2 5.3 3.6 7 5.6-2.5 3.6 3.4-6.4 3-6.4 7 1.2 6.8-7.2 4.8-6.6-3.4-5.7-11.9zm-14.2 35s3.4-9.6 8.2-7.6 6 2.2 9.2-.3 5.4 1.2 6.9 3.9 4.3.8 3.5 7.2-3.2 2.8-7.2 6.4-13.2 5.2-12 0-8.8-2-8.6-9.6zm14 32c2.6-7.6 3-6.8 6.6-5.6s5.1-3.2 7.3-2.8 1.9 3.5 4.3 6.2l-9.1 15.5s-4.9-2.3-7.3 0-10 6.9-8.4 0 4.7-8.4 6.7-9-.1-4.3-.1-4.3zm-22.6-2.8c4.9-.6 4.8.8 5.8 4.6s1.8 1.8 2.8 5.4-1.3 2.8-2.8 7.6-2.6 9.1-7.4 3-7.6-7-7.6-7l6.5-13.9c0 .1 0 .7 2.7.3zm13.9-92.2s5.8-.3 7.4 2.3-.6 3.2 3 3.2 2-3.7 6-5.5 2.5 5.1 6.9-1.3 8.1-6.6 4.9-9.8 0 0-8.5-3.6-5.5-7.4-8.7-5.6-3.4 3.8-4.2 7.4-3.6 6.3-5.6 5.2-2.6 0-1.2 7.7zm30.5-56.3s-4.6-5.5-6.8-.8-2.2 4.3-6.2 5.9-6 1.2-4 4 5 .4 5.5 4.4-2.7 3.4-1.7 7.4 3.8 7 6.4 5c0 0 1.5-6.8 3.7-6.1s1.8-.1 1.4-3.5 3.4-9.8 3.4-9.8l-1.7-6.5zm-74-32.9c.4-3.7 4.1-1.8 5.2-7s2.3-6.2 4.2-4.8 2.2 1 8.6 0 7.2-2.6 7.1 0-3.7-.3 0 5.5 6.3.5 6.7 6.4-2.8 10.8-9 8.6-9.1-5.2-11-2.8-8.6 4.4-6.6-.2-5.8-.7-5.2-5.7zm39.1-11.6c-3.8 4.4 6.4 4.6 8 3.4s5.2-5.2 6.6 0 5.2 7.4 6.4 3.4-.2-5.8 1.6-6.8 4-3.6 0-6.6-3.6-.8-4.6-5.2-4.6-6.8-5.6-3.4 1 7.4-4.2 6.4-6.6-5.4-8.2-1.6 2.6 7.4 0 10.4zM554.1 347s-8.5 3.9-6.5 5.7 4-3.8 5.3 2 4.7 5.2 5.7 3.8-.5-4.2 5-2.6 7.5 1.8 10.4-.8 1.9-8.1 1.9-8.1h-21.8zm44.4-24.7c-3.8-1-2.8-4.2-7.2-3s-7-4.8-4-7.8 4-4.6 6.9-3 2.7 3.7 5.5-.6 4.8-7.4 6.4-3.6.6 3.4 2.4 6.4 6.2 1.9 5 6-4 1.6-5 4.6-.2 7.6-4.4 5.2-5.6-4.2-5.6-4.2zm-37.2-16.4s2.1 4.6 6 2.3 6.2-4.1 8.4-2.3 4.4.2 4-4.8 4.8-2.8 3-6.2-2.2-3.6-7-5.8-9.1 1.8-7.8 4.8-.2 6.4-2.3 6.6-4.3-5-4.3.2v5.2zm41.2-34.5c-4.6 1.4-12.7-2.4-11.5 2.2s7.1 2 8.8 7.8.2 6.8 4 8 1.4 1.8 7-2.2 7 .8 9.6-2.4 6.2-6.8 2-8.8-6.6 4.6-8.5-1.8-6.1-10-7.7-6.7-3.7 3.9-3.7 3.9zm-94.4 122.9c-.3 6 5.9 7.1 9 4.7s6.1.6 8.8 1.1 5.9-4.6 4.9-9.7-4.8.3-4.9-8.6-3.8-15.5-6.4-8.8-8.2 11.1-9.6 11.1-6.2-2-4.2 1 2.4 9.2 2.4 9.2zm7.6-49.4c-.2-4 5.7-3.7 6-1.6s.3 3.3 3 4.5 6.3-1.2 5.4 3.3-3.3 1.8-4.5 4.5-.8 2.1-2.6 6.1-6.4 3.7-7.3 0-4.1-1.9-4.6-6.4 5.2-.7 4.6-10.4zm15.4-14.7c-.8 2-3.2 5.6 1.3 4.4s3-10.3 7.2-4.4 3.6 4.2 6 1.3 2.4-3.8 0-9.9 1.5-13.3-4.2-8.6-8.9 5.3-11.8 2.9-6.8 3-3.8 4.8 5.3 9.5 5.3 9.5zm-8.1-29.9c-.4 2.7-3.8 4.4 0 4.7s4.1-3.8 7.1-4.7 2.5 0 5.9 0 1.3 2.3 4.3-4.6 3.1-5.2-2-9.1-7.9-7.7-11.3-3.5-10.5 3-5.8 5.9 1.8 11.3 1.8 11.3zm10.9-50.2c2.6-2.4 6.9-5.7 6.4-3s3.4 4.2 4.9 6.4 2.7 1.8.3 5.3-6.7 3.8-4.8 6.5-4 8.1-6.8 4.6-5.3-2.5-4.9-8.2 1.3-5.8 3.4-7 1.5-4.6 1.5-4.6z"/><path class="st2" d="M498.4 412.8s-10.8 14.7-6.9 16.3c2.1.9 3.6-2.9 3.6-2.9s-2.5 13.3.9 14.2c6.8 1.9 11.8-11.1 15.2-23.3l-12.8-4.3z"/></svg>