<?xml version="1.0" encoding="utf-8"?>
<!-- Generator: Adobe Illustrator 22.0.1, SVG Export Plug-In . SVG Version: 6.00 Build 0)  -->
<svg version="1.1" id="Layer_1" xmlns="http://www.w3.org/2000/svg" xmlns:xlink="http://www.w3.org/1999/xlink" x="0px" y="0px"
	 viewBox="0 0 792.8 546.8" style="enable-background:new 0 0 792.8 546.8;" xml:space="preserve">
<style type="text/css">
	.st0{fill:#FFFFFF;}
	.st1{fill:#CCCCCC;}
	.st2{fill:none;stroke:#000000;stroke-width:0.5;stroke-miterlimit:10;}
	.st3{fill:url(#SVGID_1_);}
	.st4{fill:#404041;stroke:#000000;stroke-width:0.5;stroke-miterlimit:10;}
	.st5{fill:#BABABA;stroke:#000000;stroke-width:0.5;stroke-miterlimit:10;}
	.st6{fill:url(#SVGID_2_);}
	.st7{fill:#0077BF;stroke:#000000;stroke-width:0.5;stroke-miterlimit:10;}
	.st8{fill:#A0A0A0;stroke:#000000;stroke-width:0.5;stroke-miterlimit:10;}
	.st9{clip-path:url(#SVGID_4_);}
	.st10{fill:#FFFFFF;stroke:#000000;stroke-width:0.5;stroke-miterlimit:10;}
	.st11{fill:#FFE600;stroke:#000000;stroke-width:0.5;stroke-miterlimit:10;}
	.st12{fill:#1A1A1A;}
	.st13{fill:#1A1A1A;stroke:#000000;stroke-width:0.5;stroke-miterlimit:10;}
	.st14{fill:none;stroke:#000000;stroke-miterlimit:10;}
	.st15{fill:#F2F2F2;stroke:#000000;stroke-width:0.5;stroke-miterlimit:10;}
	.st16{fill:#525458;stroke:#000000;stroke-width:0.5;stroke-miterlimit:10;}
	.st17{fill:#696B6F;}
	.st18{fill:#EB058C;stroke:#000000;stroke-width:0.5;stroke-miterlimit:10;}
	.st19{fill:#EB058C;stroke:#000000;stroke-width:0.5;stroke-linejoin:round;}
	.st20{fill:#E0E0E0;stroke:#000000;stroke-width:0.5;stroke-miterlimit:10;}
	.st21{fill:#C10072;stroke:#000000;stroke-width:0.5;stroke-miterlimit:10;}
	.st22{fill:#282828;stroke:#000000;stroke-width:0.5;stroke-miterlimit:10;}
	.st23{fill:#7C7C7C;stroke:#000000;stroke-width:0.5;stroke-miterlimit:10;}
	.st24{fill:#FFFFFF;stroke:#000000;stroke-width:0.5;stroke-linejoin:round;}
	.st25{enable-background:new    ;}
	.st26{clip-path:url(#SVGID_6_);}
</style>
<title>SE3</title>
<g>
	<g id="Layer_7">
		<path class="st0" d="M237,429.1c101.6-23,125.1-31.7,225.6,49.5c74.8,60.4,211,67,255.2,43.1c61.3-33.3,79.9-122.8,50.7-258.5
			c-13.4-62.4-50.7-128.4-163.4-203.4C540,16.4,422.6,2.1,323.8,25.1c-78.7,18.3-179.2,63-255.6,198.1
			C43.8,266.6,12,365.1,110.6,418C155.6,442.1,203.4,436.7,237,429.1z"/>
	</g>
	<ellipse class="st1" cx="601.8" cy="486.6" rx="64.4" ry="12.1"/>
	
		<ellipse transform="matrix(0.9977 -6.749421e-02 6.749421e-02 0.9977 -20.2961 16.8412)" class="st1" cx="239.1" cy="308.8" rx="218.4" ry="20.4"/>
	<line class="st2" x1="13.1" y1="325.4" x2="483.6" y2="283.7"/>
	<line class="st2" x1="66.5" y1="357.6" x2="487.8" y2="320.3"/>
	<line class="st2" x1="110.6" y1="333.9" x2="395.3" y2="307.6"/>
	<line class="st2" x1="71.9" y1="300.9" x2="443.9" y2="263.8"/>
	<line class="st2" x1="379.7" y1="190.3" x2="483.6" y2="181.9"/>
	<line class="st2" x1="408.7" y1="207" x2="505.3" y2="197.8"/>
	<line class="st2" x1="395.3" y1="229.8" x2="499.9" y2="220.8"/>
	
		<linearGradient id="SVGID_1_" gradientUnits="userSpaceOnUse" x1="587.2141" y1="239.0302" x2="607.6441" y2="239.0302" gradientTransform="matrix(-1 6.000000e-02 6.000000e-02 1 662.4823 -21.6556)">
		<stop  offset="0" style="stop-color:#6A8991"/>
		<stop  offset="0.53" style="stop-color:#335C64"/>
		<stop  offset="1" style="stop-color:#02383C"/>
	</linearGradient>
	<path class="st3" d="M87.2,241.6c0,0-8.5,10.7-9.9,22.9C77.3,264.5,96,255.2,87.2,241.6z"/>
	<polygon class="st1" points="87.6,243.2 81.2,253.1 83.8,250.7 83,253.5 81.6,254.5 80.7,256.2 80.8,258 81.5,257.9 79.9,259 
		80,259.9 80.3,260.4 82.4,260.3 83.8,258.6 86.1,256.7 88.4,254 88.2,251.4 88.8,248.5 	"/>
	<path class="st4" d="M74.8,308.8c-2.8,0-5.5,0-8.3,0l9.6-38.6l41.4-20.1l39.2-0.7l170.8-8.8l48.6,4.9l10.7,45.9L74.8,308.8z"/>
	<path class="st5" d="M190.1,179.7l8.4,1.5l4.1,2.3c0,0-22.7,5.9-44.3,41l-33.6-2.2C124.6,222.4,144.1,197.2,190.1,179.7z"/>
	
		<linearGradient id="SVGID_2_" gradientUnits="userSpaceOnUse" x1="283.6041" y1="216.2448" x2="305.8641" y2="216.2448" gradientTransform="matrix(-1 6.000000e-02 6.000000e-02 1 662.4823 -21.6556)">
		<stop  offset="0" style="stop-color:#BC352E"/>
		<stop  offset="0.13" style="stop-color:#DD4D2F"/>
		<stop  offset="0.21" style="stop-color:#BE4A2B"/>
		<stop  offset="0.33" style="stop-color:#D35A39"/>
		<stop  offset="0.46" style="stop-color:#EC6B4E"/>
		<stop  offset="0.62" style="stop-color:#EE5F3C"/>
		<stop  offset="0.91" style="stop-color:#ED4E2C"/>
		<stop  offset="1" style="stop-color:#BC4C24"/>
	</linearGradient>
	<path class="st6" d="M372.1,197.3l1.9-1.2c3.6-0.4,17.6,27.8,12.6,32.4C386.6,228.5,368.6,212.4,372.1,197.3z"/>
	<path class="st7" d="M361.4,177.9c-2.3-3.9,9.3-5.2,6.9-8.1c0,0-111.5-11.6-178.3,9.9l8.4,1.5c0,0-28.8,12.8-41.4,41.1l-32.8-1.8
		c-28.1,8-58.9,14.8-66.6,46.7l1.9,26.8l-2.7,3.1l1.3,10.1l3.7,0.9c0,0,7.9,1.9,11.9,1.7c0,0-4.3-40.4,33.1-42.1
		c35.5-3.1,37.2,34.6,37.2,34.6l173.4-9.7c0,0-5.6-38,35.5-38.7c34.4-0.6,31.9,39.3,31.9,39.3l5-1.7c0,0,3.3-31.8,3.9-41.7
		c0,0-4-6.3-4.3-12.5C389.1,237.5,378.3,193.7,361.4,177.9z"/>
	<path class="st8" d="M55,286.5l3.1,20.8l3.7,0.9c0,0,7.9,1.9,11.9,1.6c0,0-4.3-40.4,33.1-42.1c35.5-3.1,37.2,34.6,37.2,34.6
		l173.4-9.7c0,0-5.6-38,35.5-38.7c34.4-0.6,31.9,39.3,31.9,39.3l8.4-2.6c0,0,1.2-11.8,2.3-23.2c-2.7-0.4-5.3-0.6-8-0.7
		c-6.9-18.1-22.7-26.8-38.7-26.8c-28.7-0.1-39.6,29.9-41.7,46.2L154.6,294c-13.1-56.2-69.9-49.3-89.1-9.1
		C65.5,284.9,58.1,285.9,55,286.5z"/>
	<path class="st5" d="M335.5,178.6c-13.1-4.2-62.9-2.3-77.1-1.7l6.7,41.2l87.8-4.9C350.7,202.9,346.4,179,335.5,178.6L335.5,178.6z
		 M260.1,218.3l-5.2-41.3c-7.3,0.4-14.8,0.9-22.2,1.5c-42.9,3.9-61.1,35.5-65.7,45L260.1,218.3z"/>
	<g>
		<g>
			<defs>
				<path id="SVGID_3_" d="M260.1,218.3l-5.2-41.3c-7.3,0.4-14.8,0.9-22.2,1.5c-42.9,3.9-61.1,35.5-65.7,45L260.1,218.3z"/>
			</defs>
			<clipPath id="SVGID_4_">
				<use xlink:href="#SVGID_3_"  style="overflow:visible;"/>
			</clipPath>
			<g class="st9">
				<path class="st10" d="M226.1,213.3l-3.5-5.4c0,0-3.7,3.6-5.2,3.3l1.7,8.2C219,219.4,225.9,216.1,226.1,213.3z"/>
				<path class="st10" d="M213.1,269.5l26.8-1.4l-0.3-30l7.3,11.3c0.5,0.8,0.8,1.8,0.7,2.8l-2,24l4.6,1.6l5.7-27.7
					c0.2-0.9,0.1-1.9-0.3-2.8l-13.9-29l-14.7-7.7l-7.2,5.4l-2.8-2.4l-7.9,9.4l-7.8,19.6c-0.2,0.5-0.5,0.9-0.8,1.3l-18,20.3l4.7,2.7
					l21-17.9c0.4-0.4,0.8-0.8,1.1-1.4l5.1-10.2L213.1,269.5z"/>
				<path class="st11" d="M241,217.8c0,0-3.1,15.5-0.5,21.6l-0.1,18.8l-9.7,7.6l-9.4-4.8l-8.2,5.3l-1-32.2l-3-11.3l3.9-4.6l3.5,2.3
					l3.4-4.7l4.3,3.7l6.6-7.1L241,217.8z"/>
				<path class="st10" d="M250.3,277.7c0,0-0.2,8.7-2.3,9.3c-3.5,1-1.4-7.1-2.8-6.4c-1.9,0.9-1.4-1.2,0.5-4.5L250.3,277.7z"/>
				<path class="st10" d="M209.2,190.9c-1.5,0.7-2.3,4.3-1.8,6.4s1.6,5.7,0.9,6.2c-0.3,0.2-0.9,0.6-1,0.8c-0.1,0.4,0.8,1,1.5,1.2
					c1,0.2,2.9,7.5,8.5,6.5s9.1-5.7,8.6-10.5S223.1,184.2,209.2,190.9z"/>
				<path class="st12" d="M221.7,185.1c-1.9-1.9-4.7-2.5-7.1-1.6c-4.2,1.6-9.2,7.3-10.9,6.6s-2.1,3.8-0.3,4.6c1.2,0.5,2.5,1,3.8,1.4
					c0,0,1.6-3.2,4.1-3.4s5.4-0.7,6-1.9c0,0-0.1,6.1,3.1,6.7c0.8,0.1,1.5-1.3,1.9-1.1c1.2,0.7,0.9,3.5,0.4,4.9c0,0,3.3,1.6,2.9,3
					s3-0.9,3.4-5.6S227.1,184.8,221.7,185.1z"/>
				
					<ellipse transform="matrix(0.9478 -0.3188 0.3188 0.9478 -52.7533 77.6971)" class="st13" cx="211" cy="200" rx="0.7" ry="0.9"/>
				<path class="st2" d="M213.3,205.4c0,0-0.6,2.4-2,2.2"/>
				<path class="st2" d="M214,205.1c-0.1-0.3-0.4-0.4-0.6-0.5"/>
				<path class="st14" d="M213,197.6c-1.2-0.4-2.5-0.4-3.8,0"/>
				<path class="st2" d="M212.7,199.7c-0.7-0.5-1.7-0.7-2.5-0.4"/>
			</g>
		</g>
	</g>
	<path class="st7" d="M183.3,211.9c0,0,4.8,7.7-0.6,14.6C182.7,226.4,161.9,219.6,183.3,211.9z"/>
	<path class="st11" d="M62.2,262.3c4-12.8,11.2-18.1,21.5-24c10.1-1.6,10.8,5.8,7,12.9C87,258.4,69.7,273.3,62.2,262.3z"/>
	<path class="st15" d="M259.6,229.8l-0.1-1.3c0-1-0.7-1.9-1.7-2.1l-19.3,1c-1,0.2-1.7,1.2-1.5,2.2l0.1,1.3L259.6,229.8z"/>
	<path class="st15" d="M299.3,228.1l-0.1-1.3c0-1-0.7-1.9-1.7-2.1l-19.3,1c-1,0.2-1.7,1.2-1.5,2.2l0.1,1.3L299.3,228.1z"/>
	<path class="st12" d="M129.4,317.9c10.1-11.2,9.2-28.3-2-38.4c-11.2-10.1-28.3-9.2-38.4,2s-9.2,28.3,2,38.4l0,0
		C102.1,329.9,119.3,329,129.4,317.9z M94.5,286.4c7.3-8.1,19.9-8.7,28-1.4s8.7,19.9,1.4,28s-19.8,8.7-27.9,1.4l0,0
		C87.8,307.1,87.1,294.5,94.5,286.4L94.5,286.4z"/>
	<path class="st0" d="M109.2,322.4c-12.5,0-22.7-10.2-22.7-22.8c0-12.1,9.5-22,21.6-22.7h1.2c12.5-0.1,22.8,10,22.9,22.5
		c0.1,12.3-9.5,22.4-21.8,22.9L109.2,322.4L109.2,322.4z"/>
	<path d="M109.2,277.2c12.4-0.1,22.6,9.9,22.7,22.3c0.1,12.1-9.4,22.1-21.5,22.6c-0.4,0-0.8,0-1.2,0c-12.4,0-22.5-10.1-22.4-22.5
		c0-11.9,9.4-21.8,21.3-22.4L109.2,277.2 M109.2,276.7c-0.4,0-0.8,0-1.2,0c-12.7,1-22.1,12.2-21,24.8c1,11.6,10.5,20.7,22.2,21.1
		c0.4,0,0.8,0,1.2,0c12.7-1,22.1-12.2,21-24.8C130.4,286.1,120.9,277.1,109.2,276.7L109.2,276.7z"/>
	<path class="st16" d="M108.2,279.9c10.9-0.6,20.2,7.8,20.8,18.8c0.6,10.9-7.8,20.2-18.8,20.8c-10.9,0.6-20.2-7.8-20.8-18.8
		S97.2,280.4,108.2,279.9L108.2,279.9z"/>
	<path class="st17" d="M105.5,305.2c-2.8-2.6-3-6.9-0.5-9.7s6.9-3,9.7-0.5c2.8,2.6,3,6.9,0.5,9.7l0,0
		C112.7,307.5,108.4,307.7,105.5,305.2L105.5,305.2z"/>
	<path class="st0" d="M112.6,321.2l-2.8,0.1l-1.9-14.9L97,316.7l-2.1-1.9l9.2-11.9l-15-0.4l-0.1-2.8l14.9-1.9l-10.3-10.9l1.9-2.1
		l11.9,9.2l0.4-15l2.8-0.1l1.9,14.9l10.9-10.3l2.1,1.9l-9.2,11.9l15,0.4l0.1,2.8l-14.9,1.9l10.3,10.9l-1.9,2.1l-11.9-9.2
		L112.6,321.2L112.6,321.2z M113.4,301.2l-0.1-2.7l-2-1.8l-2.7,0.1l-1.8,2l0.1,2.7l2,1.8l2.7-0.1L113.4,301.2z"/>
	<path class="st12" d="M371.2,304.4c10.1-11.2,9.2-28.3-2-38.4s-28.3-9.2-38.4,2s-9.2,28.3,2,38.4l0,0
		C344,316.4,361.2,315.6,371.2,304.4z M336.3,272.9c7.3-8.1,19.9-8.7,28-1.4s8.7,19.9,1.4,28c-7.3,8.1-19.8,8.7-27.9,1.4l0,0
		C329.6,293.6,329,281.1,336.3,272.9L336.3,272.9z"/>
	<path class="st0" d="M351,308.9c-12.5,0.1-22.8-10-22.9-22.5c-0.1-12.3,9.5-22.4,21.8-22.9h1.2c12.5-0.1,22.8,10,22.9,22.5
		c0.1,12.3-9.5,22.4-21.8,22.9H351z"/>
	<path d="M351.1,263.7c12.4-0.1,22.6,9.9,22.7,22.3c0.1,12.1-9.4,22.1-21.5,22.6c-0.4,0-0.8,0-1.1,0c-12.4,0.1-22.6-9.9-22.7-22.3
		c-0.1-12.1,9.4-22.1,21.5-22.6C350.3,263.7,350.7,263.7,351.1,263.7 M351.1,263.2h-1.2c-12.7,1-22.1,12.1-21.1,24.7
		c0.9,11.7,10.5,20.9,22.3,21.2h1.2c12.7-1,22.1-12.1,21.1-24.7C372.4,272.7,362.8,263.5,351.1,263.2z"/>
	<path class="st16" d="M350,266.4c10.9-0.6,20.2,7.8,20.8,18.8c0.6,10.9-7.8,20.2-18.8,20.8c-10.9,0.6-20.2-7.8-20.8-18.8
		C330.7,276.3,339.1,267,350,266.4z"/>
	<path class="st17" d="M347.4,291.7c-2.8-2.5-3-6.9-0.5-9.7s6.9-3,9.7-0.5c2.8,2.5,3,6.9,0.5,9.7l0,0
		C354.6,294,350.2,294.3,347.4,291.7z"/>
	<path class="st0" d="M354.5,307.7l-2.8,0.1l-1.9-14.9l-10.9,10.3l-2.1-1.9l9.2-11.9l-15-0.4l-0.1-2.8l14.9-1.9l-10.3-10.9l1.9-2.1
		l11.9,9.2l0.4-15l2.8-0.1l1.9,14.9l10.9-10.3l2.1,1.9l-9.2,11.9l15,0.4l0.1,2.8l-14.9,1.9l10.3,10.9l-1.9,2.1l-11.9-9.2
		L354.5,307.7L354.5,307.7z M355.3,287.7l-0.1-2.7l-2-1.8l-2.7,0.1l-1.8,2l0.1,2.7l2,1.8l2.7-0.1L355.3,287.7z"/>
	<polyline class="st10" points="469.1,44.1 469.1,406.1 717.8,494.4 	"/>
	<polygon class="st18" points="599.7,247.9 592.1,259.5 597.6,266.1 605.4,255.3 	"/>
	<path class="st19" d="M582.5,294.4c0.1-0.1,20.2-16.3,20.2-16.3l-3-15l-9.3,7.5L582.5,294.4z"/>
	<polygon class="st8" points="591.4,322.6 593.4,478.6 600.7,478.6 622.9,322.6 	"/>
	<polygon class="st8" points="620.6,478.6 627,478.6 639.3,372.1 635.8,322.6 607.8,322.6 616.4,419.2 	"/>
	<path class="st13" d="M626.3,257.6L603,244.4c-0.6-3.2-1.8-6.3-3.5-9.1c-8.5-14-2.3-25.8-2.3-25.8c3.9-9.9,14.7-11.3,14.7-11.3
		c11.8-2,18.8,4.3,18.8,4.3s25,11.9,22.1,67.9c-0.5,3.5,1.2,7,4.3,8.8c-9.5,1.8-19.3-1-26.4-7.6c-12.1-11.1-11.1-27.4-11.1-27.4"/>
	<path class="st10" d="M618,250.6c1.8-1.4,3.4-3.1,4.8-4.8c0.1-0.1,0.2-0.3,0.2-0.5s-0.1-0.4-0.2-0.5c-0.9-1.9-1.6-3.8-2-5.9
		c-0.2-1.1-0.2-2-0.4-3.2s-0.8-1.4-1.9-1.1c-3.4,0.7-6.6,2.3-9.2,4.6c0.5,1.7,0.8,3.3,1.1,5c0.2,1.3,0.3,2.8-0.7,3.6
		C608.9,254.3,618,250.6,618,250.6z"/>
	<path class="st20" d="M598.8,322.6h30.3l1.2-59.5l-8.3-16.4c0,0-1.7,4.2-15.3,0l-6.3,24l4.4,24.8L598.8,322.6z"/>
	<path class="st18" d="M634.9,281.4l-3.5,11.6l-0.6,6.4c11.5,33.6,20.3,68,26.1,103c0,0-13.3,13.7-37.7,8.3l-10-103.7l-18.3,104.9
		c0,0-22.3-7.6-24.7-13.2l34.1-100.4l0.3-6.6l-5.7-18.6l4.8-25.3l10.6-4.5l1.3,27.6l10.7-27.6l18.2,8.7L634.9,281.4z"/>
	<polygon class="st18" points="610.7,242.6 605.1,245 601.9,255.4 606.1,260.8 601.9,267.1 611.6,285.1 611.6,269.6 	"/>
	<polygon class="st18" points="621.6,241.6 626.8,244.7 627.8,258.3 622.3,262.6 623.6,270.1 611.6,281.3 611.6,271 	"/>
	<polygon class="st18" points="600.6,291.8 631.5,293 630.8,299.4 600.3,298.3 	"/>
	<circle class="st18" cx="610" cy="295.6" r="5.2"/>
	<circle class="st18" cx="610" cy="295.6" r="3.3"/>
	<polygon class="st18" points="635.5,249.7 642.8,253.7 645,293.9 633.7,329.4 628,327.8 634.2,292.2 630.8,270.7 	"/>
	<path class="st12" d="M592.4,478.6c-3.5,6.9-10,11.8-17.5,13.4h19.6l3.5-5.6l1.4,5.6h2v-13.4H592.4z"/>
	<path class="st12" d="M619.2,478.6c-3.5,6.9-10,11.8-17.5,13.4h19.6l3.5-5.6l1.4,5.6h2v-13.4H619.2z"/>
	<path class="st10" d="M628.4,208.9c-2.4-3.6-6.1-6.2-10.3-7.3c-1.5-0.4-3-0.6-4.6-0.5c-1.8,0.3-3.6,0.8-5.2,1.6
		c-2.3,0.8-4.5,2.1-6.4,3.7c-3.1,3-4.1,7.6-4.8,11.9c-0.5,2.6-0.9,5.3-0.3,7.9c0.5,1.8,1.3,3.5,2.3,5c1.4,2.6,3,5,4.9,7.2
		c1.8,2,4.2,3.8,6.9,4c3.7,0.3,7-2.2,9.5-4.9C627.3,230.5,634.6,218.6,628.4,208.9z"/>
	<path class="st12" d="M631.7,224.3l1-10.6l-8.1-10.7l-7.6-2.6l-9.5,0.6l-7,5.7l-4.9,11.4l0.3,8.6l1.7,3.6c1.3-2.7,0.9-7.9,0.9-7.9
		c0.5-8.9,10.7-10.8,10.7-10.8c4.1-0.6,7.8-4.6,7.8-4.6c-2.2,10.5,12,22,12,22L631.7,224.3z"/>
	<path class="st10" d="M610.9,222.1c0.3-0.8,0.8-1.5,1.4-2.2c0.6-0.7,1.4-1,2.3-1c0.3,0.1,0.6,0.2,0.9,0.3c0.3,0.1,0.6,0.3,0.8,0.5
		c0.3,0.3,0.7,0.6,1.1,0.8c0.4,0.2,0.9,0.3,1.3,0.1"/>
	<path class="st10" d="M598.8,220c0.6,0.3,1.4,0.2,2-0.1c0.6-0.4,1.3-0.7,2-0.8c0.9,0.1,1.7,0.5,2.3,1.1l0.8,0.7"/>
	<path class="st10" d="M618,216.6c-2.3-1.5-5.3-1.2-7.3,0.6"/>
	<path class="st10" d="M601.1,215.9c1.8-0.6,3.8-0.2,5.2,1"/>
	<path class="st10" d="M607.1,224.7l-0.8,2.2c-0.2,0.4-0.2,0.9,0,1.3c0.1,0.1,0.3,0.2,0.4,0.3c0.7,0.3,1.4,0.7,2.1,0.9"/>
	<path class="st10" d="M613.2,235c0.2-0.3,0.9-1.2,0.6-1.6c-0.1-0.1-0.1-0.1-0.2-0.1c-2.1-0.9-4.4-1.3-6.7-1.3
		c-0.3,0-0.7,0.1-0.8,0.4c-0.1,0.2-0.1,0.3,0,0.5c0.2,0.6,0.6,1.1,0.8,1.6c0.2,0.7,0.5,1.3,0.7,2c0.3,0.7,1.1,1,1.8,0.8
		c0.2-0.1,0.3-0.2,0.5-0.3c0.4-0.3,0.9-0.5,1.4-0.7C612.1,236,612.7,235.6,613.2,235z"/>
	<path class="st21" d="M607.5,236.5c0.3-0.4,0.9-0.2,1.4-0.2c1.2,0,2.4-0.4,3.4-1.1c0.8-0.5,1.5-1.1,2-1.8c0.1,0.4,0,0.8-0.2,1.2
		c-0.2,0.4-0.5,0.7-0.8,1c-0.4,0.4-0.8,0.8-1.2,1.1c-0.5,0.5-1.1,0.9-1.8,1.2c-0.7,0.3-1.4,0.3-2.1,0
		C607.6,237.7,607.2,237,607.5,236.5z"/>
	<path class="st21" d="M606.5,233.1c1.1-0.2,2.3-0.2,3.4,0c1.4,0.2,2.8,0.8,4.2,0.5c0.1,0,0.2,0,0.2-0.1s-0.1-0.1-0.2-0.2
		c-1.3-0.8-2.7-1.4-4.1-1.8c-1.5-0.4-3-0.3-4.4,0.3C604.4,232.3,605.6,233.2,606.5,233.1z"/>
	<ellipse transform="matrix(0.2676 -0.9635 0.9635 0.2676 237.043 752.7032)" class="st13" cx="613.6" cy="220.4" rx="1.3" ry="1"/>
	
		<ellipse transform="matrix(0.2676 -0.9635 0.9635 0.2676 228.9785 741.9683)" class="st13" cx="602.6" cy="220.4" rx="1.3" ry="1"/>
	<path class="st2" d="M606.4,222.7c0,0,0.9,1.7,3.5,0.4"/>
	<path class="st22" d="M606.6,224.4c-1.1,2.6-6,3.6-9,1.4c-2.3-1.7-3.6-4.9-3.2-6.4c0.5-2.2,4.7-2.9,8-2.2c3,0.6,5,3.5,4.4,6.5
		C606.7,223.9,606.7,224.2,606.6,224.4z"/>
	<path class="st22" d="M610,224.3c1.1,2.7,6.2,3.7,9.2,1.5c2.4-1.7,3.7-5,3.3-6.5c-0.5-2.2-4.8-2.9-8.2-2.3
		c-3.1,0.6-5.1,3.6-4.5,6.7C609.9,223.9,609.9,224.1,610,224.3z"/>
	
		<rect x="592.5" y="223.1" transform="matrix(0.9871 -0.1604 0.1604 0.9871 -29.0491 98.1552)" class="st23" width="1.9" height="11.8"/>
	<path class="st23" d="M595,229.6l6.7-1.1c1.3-0.2,2.5,0.7,2.7,1.9l2.9,17.9c0.2,1.3-0.7,2.5-1.9,2.7l-6.8,1.1
		c-1.3,0.2-2.5-0.7-2.7-1.9l-2.9-17.9C592.8,231,593.7,229.9,595,229.6z"/>
	<path class="st24" d="M599.9,250c0,0,5.5-3,6.1-4.5c0.5-1.7,0.4-3.4-0.1-5.1c0,0-0.7-0.7-3.6-0.4c-1.9,0.2-4.7,2.7-6.1,1.7
		c-2.9-2.1-2.2-4.2-2.2-4.2s-1.9,3.7,0.2,9.3c0.3,0.8,0,1.1-0.1,2.2L599.9,250z"/>
	<polygon class="st18" points="594.2,248.7 578,281.5 578.7,292.1 582.5,294.4 591.7,285.4 600,250 	"/>
	<polygon class="st10" points="591.4,231.3 579.6,220.4 574.7,224.2 591,232.7 	"/>
	<path class="st10" d="M590.4,234.1c-0.8-0.2-19.4-4.2-19.4-4.2v6.1l19.4-0.9V234.1z"/>
	<polygon class="st10" points="590.8,236.4 591.4,237.5 582.2,249.7 578.3,244.4 	"/>
	<path class="st24" d="M628,327.8c0,0-3.7,4.3-3.1,5.1s1.8,0.1,1.8,0.1s-1.3,6.9,0.8,7.4c3.8,0.8,6.2-11.1,6.2-11.1L628,327.8z"/>
	<path class="st10" d="M649.8,208v-47.4c0-6.6,5.4-12,12-12h80c6.6,0,12,5.4,12,12v61c0,6.6-5.4,12-12,12h-80c-6.6,0-12-5.4-12-12
		v-0.3h-14L649.8,208z"/>
	<g class="st25">
		<path d="M668.6,168.6h-5.7v-1.7h5.7V168.6z"/>
		<path d="M682.6,159.2c2.3,0,4.5,0.9,4.5,3.5c0,1.4-0.8,2.6-2.1,3c1.7,0.4,2.7,1.7,2.7,3.5c0,3.2-2.6,4-5.3,4h-5.8v-14H682.6z
			 M678.4,165.2h3.3c1.6,0,3.5-0.1,3.5-2.2c0-2.1-1.6-2.2-3.3-2.2h-3.5V165.2z M678.4,171.7h3.7c1.9,0,3.7-0.1,3.7-2.6
			c0-2.4-2.1-2.4-4-2.4h-3.4V171.7z"/>
		<path d="M697.3,164.2l-6.2,7.6h6.4v1.4H689V172l6.1-7.5h-5.7v-1.4h7.9V164.2z"/>
		<path d="M706.7,164.2l-6.2,7.6h6.4v1.4h-8.6V172l6.1-7.5h-5.7v-1.4h7.9V164.2z"/>
		<path d="M716.2,164.2l-6.2,7.6h6.4v1.4h-8.6V172l6.1-7.5h-5.7v-1.4h7.9V164.2z"/>
		<path d="M720.7,173.2h-2.2v-2.2h2.2V173.2z"/>
		<path d="M726.2,173.2H724v-2.2h2.2V173.2z"/>
		<path d="M731.6,173.2h-2.2v-2.2h2.2V173.2z"/>
	</g>
	<g class="st25">
		<path d="M662.9,199h5.7v1.6h-5.7V199z"/>
		<path d="M676.6,191.2h1.9v6h7.4v-6h1.9v14.1h-1.9v-6.4h-7.4v6.4h-1.9V191.2z"/>
		<path d="M699.2,202c-0.5,2.3-2,3.5-4.4,3.5c-3.2,0-4.8-2.3-4.9-5.4c0-3.1,2-5.3,4.8-5.3c3.6,0,4.7,3.4,4.6,5.8h-7.6
			c-0.1,1.8,0.9,3.3,3.2,3.3c1.4,0,2.3-0.6,2.6-2H699.2z M697.6,199.2c-0.1-1.6-1.3-2.9-2.9-2.9c-1.7,0-2.8,1.3-2.9,2.9H697.6z"/>
		<path d="M706.7,191.2h1.7v14.1h-1.7V191.2z"/>
		<path d="M712.7,193.2H711v-2h1.7V193.2z M711,195.1h1.7v10.2H711V195.1z"/>
		<path d="M715.4,191.2h1.7v8.3l4.6-4.4h2.2l-4,3.7l4.3,6.5h-2.1l-3.5-5.3l-1.6,1.5v3.9h-1.7V191.2z"/>
		<path d="M734.2,202c-0.5,2.3-2,3.5-4.4,3.5c-3.2,0-4.8-2.3-4.9-5.4c0-3.1,2-5.3,4.8-5.3c3.6,0,4.7,3.4,4.6,5.8h-7.6
			c-0.1,1.8,0.9,3.3,3.2,3.3c1.4,0,2.3-0.6,2.6-2H734.2z M732.6,199.2c-0.1-1.6-1.3-2.9-2.9-2.9c-1.7,0-2.8,1.3-2.9,2.9H732.6z"/>
		<path d="M737.1,202c0.1,1.5,1.4,2,2.7,2c1,0,2.5-0.2,2.5-1.5c0-2.6-6.7-0.8-6.7-4.8c0-2,2-2.9,3.8-2.9c2.3,0,4,0.7,4.2,3.2h-1.7
			c-0.1-1.3-1.3-1.7-2.4-1.7c-1,0-2.2,0.3-2.2,1.3c0,1.2,1.8,1.4,3.3,1.8c1.7,0.4,3.3,0.9,3.3,2.9c0,2.4-2.3,3.2-4.3,3.2
			c-2.3,0-4.2-0.9-4.3-3.4H737.1z"/>
	</g>
	<g class="st25">
		<path d="M669,214c-0.1-1.3-1-1.9-2.5-1.9c-1.3,0-2.1,0.5-2.1,1.4c0,1.1,1.3,1.3,2.7,1.6c1.7,0.4,3.9,0.9,3.9,3.1
			c0,2-1.7,3.3-4.2,3.3c-2.8,0-4.3-1.2-4.4-3.5h1.7c0.1,1.5,1.1,2.1,2.8,2.1c1.5,0,2.5-0.7,2.5-1.7c0-1.1-1.1-1.4-2.6-1.7
			c-1.8-0.4-4.1-0.7-4.1-3c0-1.8,1.5-3,3.9-3c2.3,0,4.1,1.1,4.1,3.2H669z"/>
		<path d="M674.6,212.5c0.8-1.3,1.9-1.8,3.4-1.8c2.8,0,4.6,2,4.6,5.3s-1.8,5.4-4.5,5.4c-1.5,0-2.5-0.5-3.4-1.7v5.3H673v-14.1h1.6
			V212.5z M674.6,216.1c0,2.5,1.2,4,3.2,4c1.9,0,3.1-1.5,3.1-4c0-2.5-1.2-4-3.1-4C675.8,212.2,674.6,213.7,674.6,216.1z"/>
		<path d="M688.9,221.6c-3,0-4.8-2-4.8-5.3c0-3.3,1.9-5.5,4.7-5.5c3.3,0,4.6,2.7,4.6,5.6v0.2h-7.6l0,0.1c0,2.2,1.2,3.5,3.2,3.5
			c1.5,0,2.3-0.6,2.7-2.2h1.6C692.9,220.4,691.3,221.6,688.9,221.6z M688.8,212.2c-1.6,0-2.8,1.2-3,3.1h5.9
			C691.6,213.3,690.5,212.2,688.8,212.2z"/>
		<path d="M699.5,221.6c-3,0-4.8-2-4.8-5.3c0-3.3,1.9-5.5,4.7-5.5c3.3,0,4.6,2.7,4.6,5.6v0.2h-7.6l0,0.1c0,2.2,1.2,3.5,3.2,3.5
			c1.5,0,2.3-0.6,2.7-2.2h1.6C703.4,220.4,701.9,221.6,699.5,221.6z M699.4,212.2c-1.6,0-2.8,1.2-3,3.1h5.9
			C702.2,213.3,701.1,212.2,699.4,212.2z"/>
		<path d="M715,221.2h-1.6v-1.5c-0.6,1.2-1.8,1.8-3.3,1.8c-2.9,0-4.7-2.1-4.7-5.4c0-2.9,1.5-5.4,4.6-5.4c1.5,0,2.6,0.6,3.3,1.7v-5.2
			h1.7V221.2z M707.1,216.1c0,2.5,1.2,4,3.1,4c1.9,0,3.1-1.5,3.1-4c0-2-0.9-3.9-3.1-3.9C708.3,212.2,707.1,213.7,707.1,216.1z"/>
	</g>
	<path class="st10" d="M571.9,273.7c8.1,7.7,13,17.8,13,28.8c0,24.3-23.9,44.1-53.5,44.1s-53.5-19.7-53.5-44.1s23.9-44.1,53.5-44.1
		c9.6-0.1,19,2.1,27.6,6.3l16.8-9.6L571.9,273.7z"/>
	<g>
		<g>
			<defs>
				<path id="SVGID_5_" d="M571.9,273.7c8.1,7.7,13,17.8,13,28.8c0,24.3-23.9,44.1-53.5,44.1s-53.5-19.7-53.5-44.1
					s23.9-44.1,53.5-44.1c9.6-0.1,19,2.1,27.6,6.3l16.8-9.6L571.9,273.7z"/>
			</defs>
			<clipPath id="SVGID_6_">
				<use xlink:href="#SVGID_5_"  style="overflow:visible;"/>
			</clipPath>
			<g class="st26">
				<g id="Layer_9">
					<path class="st7" d="M423.3,408.9l37.6-90.8c0,0,4.3-5.8,50.9-12.5c0,0,28.5,16.2,41.5,1.3l39.3,7.5l36.3,101.7L423.3,408.9z"
						/>
					<path class="st18" d="M535.4,316.6l13.8,110.6l-18.8,23l-15.5-25l15.4-108C530.4,317.2,532.5,311.6,535.4,316.6z"/>
					<polygon class="st10" points="517.6,270.8 515.3,309.8 533.1,319.9 550.1,312.3 548.1,268.8 					"/>
					<g id="Layer_7-2">
						<path class="st10" d="M508.5,305.6l10,25.3l2.7,7l6.5-10.7l4.4-7.1c0.2-0.3,0.7-0.4,1-0.2c0.1,0.1,0.2,0.2,0.2,0.2l5.5,8
							l8.3,12.1l6.1-33.2l-2.2-6.1l-0.5,0.5L533,318.5c-0.3,0.3-0.7,0.2-1-0.1l-20.2-20.1l-0.2-0.2L508.5,305.6z"/>
						<path class="st10" d="M516.6,290.9c2.2,2.5,4.3,5,7.4,6.7c1.9,1,4.6,1.2,7.1,1.2l1,0.1c2.1,0.3,4.2,0.1,6.2-0.5
							c3.3-1.4,5.6-3.7,8-5.9c1.8-1.4,3.8-2.7,5.8-3.8c1.1-0.6,2.1-1.5,3-2.4c1.1-1.3,2-2.8,2.5-4.3c0.8-2.4,0.7-6.2,2.8-8.1
							c1.9-1.7,3.7-2.3,5.1-4.6c2.3-4.2,3.5-8.9,3.3-13.7c0-1.3-0.6-3.5-2.5-2.4c-0.8,0.5-0.5,1.9-1.3,2.4h-0.1l-0.8,2l-2.6-0.1
							c0.1-1.9,0.3-3.9,0.7-5.8c0.3-4.2,0.7-8.3,0-12.4c-1-5.2-8.6-8.1-12.7-10.7c-0.7-0.4-1.7-1.5-2.5-1.8
							c-1.2-0.4-0.5-0.2-1.8,0.4c-4.7,2.4-7.4,4.8-13.1,4.5c-4.6-0.2-9.2-1.4-13.9-1.3c-6.3,0.1-12.2,4.2-13.2,10.4
							c-0.4,2.3-0.2,4.8-0.4,7.1c-0.2,1.6-0.3,3.3-0.3,4.9c0,0.5,0,1.1-0.1,1.6l-3.3-0.2c0-0.5,0.1-1,0.1-1.3
							c0.1-0.8,0.1-1.5,0.1-2.2c0-0.4-0.2-0.7-0.5-0.9c-1.8-1.3-2.6,0.8-2.7,2.1c-0.6,4.8,0.1,9.6,2,14c1.1,2.5,2.9,3.3,4.6,5.1
							c1.9,2.1,1.3,5.8,2,8.3c0.4,1.6,1.1,3.2,2.1,4.6c0.6,0.9,1.4,1.7,2.2,2.3C512.6,287.7,514.9,289,516.6,290.9z"/>
						<path class="st13" d="M501,252.9c0,0.3-0.1,0.8-0.1,1.3l3.3,0.2c0-0.5,0.1-1.1,0.1-1.6c0-1.6,0.1-3.3,0.3-4.9
							c0.2-2.4,0.1-4.8,0.4-7.1c1-6.1,6.9-10.2,13.2-10.4c4.6-0.1,9.2,1,13.9,1.3c5.7,0.3,8.5-2.1,13.1-4.5c1.2-0.6,0.5-0.8,1.8-0.4
							c0.9,0.5,1.7,1.1,2.5,1.8c4.2,2.7,11.8,5.5,12.7,10.7c0.8,4.2,0.4,8.3,0,12.4c-0.4,1.9-0.6,3.8-0.7,5.8l2.6,0.1l0.7-2
							c0.8-2.1,1.6-4.2,1.8-5.1c0.8-3.2,1.3-6.5,1.6-9.8c1.3-7.9,2.2-15.5-2.7-22.3c-5.2-7.4-13.3-12-17.8-11.7
							c-0.3,0-3.3,0.1-2.9,0.5c-1.5-1.4-4.3-1.6-6.2-2.2c-10.3-2.9-23.8,2.5-31.7,8.6c-8.3,6.4-7.6,15.2-7.1,23.7
							c0.2,2.9,0,6.2,0.7,9c0.4,1.5,0.6,3,0.5,4.5C501.1,251.4,501.1,252.1,501,252.9z"/>
						<path class="st2" d="M541.7,250.4c3-1.4,6.5-1.4,9.6,0"/>
						<path class="st2" d="M515.9,250.4c3-1.4,6.5-1.4,9.6,0"/>
						<circle class="st13" cx="546" cy="256.2" r="2.5"/>
						<circle class="st13" cx="522" cy="256.2" r="2.5"/>
						<path class="st2" d="M536.1,253.9c-0.5,2.8-0.5,5.7-0.2,8.6c0.3,2.2,0.8,4.3,1.1,6.4c0.2,1.1,0.2,2.2,0,3.2
							c-0.3,1-1.2,1.7-1.9,1.2"/>
					</g>
					<ellipse class="st2" cx="532.8" cy="283.4" rx="10.6" ry="5.7"/>
					<path class="st18" d="M523.1,285.6c0,0,7.7-3.7,10.1-1c0,0,4.4-3.3,9.1,1.3c0,0-1.8,2.8-9.5,3.2
						C532.8,289.2,525.6,289.1,523.1,285.6z"/>
					
						<rect x="499.2" y="272.3" transform="matrix(0.9871 -0.1604 0.1604 0.9871 -39.5833 84.1682)" class="st23" width="4.7" height="29.9"/>
					<path class="st23" d="M501.9,289.5l24-3.9c1.3-0.2,2.5,0.7,2.7,1.9l8.5,52.4c0.2,1.3-0.7,2.5-1.9,2.7l-24,3.9
						c-1.3,0.2-2.5-0.7-2.7-1.9l-8.5-52.4C499.8,290.9,500.6,289.7,501.9,289.5z"/>
					<path class="st24" d="M517.9,340.6c0,0,14-7.6,15.5-11.4c2.1-5.7-0.3-12.9-0.3-12.9s-1.9-1.8-9.1-1c-4.7,0.5-12,6.9-15.6,4.3
						c-7.2-5.4-5.6-10.7-5.6-10.7s-4.9,9.5,0.4,23.7c0.8,2.1-0.1,2.9-0.3,5.7L517.9,340.6z"/>
					<polygon class="st24" points="496.9,346.6 502.9,338.3 517.9,340.6 516.4,353 					"/>
				</g>
			</g>
		</g>
	</g>
	<path class="st10" d="M535.3,235.6v-42.9c0-6-4.9-10.8-10.9-10.9H452c-6,0-10.8,4.9-10.9,10.9V248c0,6,4.9,10.9,10.9,10.9h58
		l16.6,8.7l-2.2-8.7c6,0,10.9-4.9,10.9-10.9L535.3,235.6L535.3,235.6z"/>
	<g class="st25">
		<path d="M459.3,205.2h-5.7v-1.7h5.7V205.2z"/>
		<path d="M473.3,195.8c2.3,0,4.5,0.9,4.5,3.5c0,1.4-0.8,2.6-2.1,3c1.7,0.4,2.7,1.7,2.7,3.5c0,3.2-2.6,4-5.3,4h-5.8v-14H473.3z
			 M469.1,201.8h3.3c1.6,0,3.5-0.1,3.5-2.2c0-2.1-1.6-2.2-3.3-2.2h-3.5V201.8z M469.1,208.2h3.7c1.9,0,3.7-0.1,3.7-2.6
			c0-2.4-2.1-2.4-4-2.4h-3.4V208.2z"/>
		<path d="M488,200.7l-6.2,7.6h6.4v1.4h-8.6v-1.3l6.1-7.5H480v-1.4h7.9V200.7z"/>
		<path d="M497.4,200.7l-6.2,7.6h6.4v1.4h-8.6v-1.3l6.1-7.5h-5.7v-1.4h7.9V200.7z"/>
		<path d="M506.9,200.7l-6.2,7.6h6.4v1.4h-8.6v-1.3l6.1-7.5h-5.7v-1.4h7.9V200.7z"/>
		<path d="M511.4,209.8h-2.2v-2.2h2.2V209.8z"/>
		<path d="M516.8,209.8h-2.2v-2.2h2.2V209.8z"/>
		<path d="M522.3,209.8h-2.2v-2.2h2.2V209.8z"/>
	</g>
	<g class="st25">
		<path d="M459.3,234.7h-5.7V233h5.7V234.7z"/>
		<path d="M479.5,239.3h-1.2l-0.5-1.8c-1.2,1.5-2.6,2.1-4.5,2.1c-4,0-6.7-2.9-6.7-7.2c0-4.1,2.4-7.4,6.8-7.4c2.8,0,5.6,1.6,5.9,4.6
			h-1.8c-0.3-1.8-1.9-3.1-4.1-3.1c-3.1,0-5,2.2-5,5.8c0,3.5,1.9,5.7,4.9,5.7c3,0,4.3-2,4.4-4.7h-4.5v-1.5h6.1V239.3z"/>
		<path d="M491.2,234.2c0,3.4-1.8,5.5-4.9,5.5c-3.1,0-5-2-5-5.4c0-3.3,1.9-5.4,5-5.4C489.4,228.9,491.2,230.8,491.2,234.2z
			 M483.1,234.2c0,2.5,1.2,4,3.2,4c2,0,3.1-1.5,3.1-4c0-2.4-1.2-4-3.2-4C484.4,230.3,483.1,231.8,483.1,234.2z"/>
		<path d="M497.6,230.5h-2v5.9c0,0.9-0.1,1.5,1.1,1.5c0.3,0,0.6,0,0.9-0.1v1.4c-0.5,0.1-0.7,0.1-1.3,0.1c-2.5,0-2.4-1.3-2.4-3.5
			v-5.4h-1.7v-1.4h1.7v-3h1.7v3h2V230.5z"/>
		<path d="M506.7,227.4H505v-2h1.7V227.4z M506.7,239.3H505v-10.2h1.7V239.3z"/>
		<path d="M513.6,230.5h-2v5.9c0,0.9-0.1,1.5,1.1,1.5c0.3,0,0.6,0,0.9-0.1v1.4c-0.5,0.1-0.7,0.1-1.3,0.1c-2.5,0-2.4-1.3-2.4-3.5
			v-5.4h-1.7v-1.4h1.7v-3h1.7v3h2V230.5z"/>
		<path d="M517.8,239.3h-2.1v-2h2.1V239.3z M517.7,229.6l-0.5,6.2h-0.9l-0.5-6.2v-4.3h1.8V229.6z"/>
	</g>
</g>
</svg>
