<svg version="1.1" id="Layer_1" xmlns="http://www.w3.org/2000/svg" x="0" y="0" viewBox="0 0 591.2 807.4" xml:space="preserve"><style>.st2{fill:#1a1a1a}.st2,.st3,.st4{stroke-miterlimit:10;stroke:#000;stroke-width:.5}.st3{fill:#fff}.st4{fill:#eb058c}.st10,.st11,.st12,.st8{stroke:#000;stroke-width:.5;stroke-miterlimit:10}.st8{fill:#0077bf}.st10{fill:#c10072}.st11{fill:none}.st12{fill:#ffe600}</style><path d="M2.3 525.5c16.3 132.5 101.9 208 164 216.7 160 22.5 260.2-73.9 315.7-133.2 78.9-84.3 111.5-219.3 107.5-281.8-9.1-142.6-102.8-234.1-102.8-234.1-168.1-174.5-344-44.7-344-44.7C-.2 131.3 56.2 271.7 56.2 271.7s24 78.5 1.2 110.8-54 59.9-55.1 143z" fill="#fff" id="Layer_7"/><ellipse cx="261.1" cy="774.7" rx="161.6" ry="30.3" fill="#ccc"/><path class="st2" d="M353.3 337.2c23.4 11.6 53.2-24.3 53.2-24.3s15.5-8.8 14.5-23.3c0 0-6.3 12.4-26.8-3.5-10.2-8-15.3-20.7-23.1-31.1 0 0-14.5-18.2-36-23.7 0 0-16.7-6.5-36.5 4.6 0 0-18.3 9.7-18.9 29.8 0 0-3.4 25 20.8 44.6 4.9 3.8 9 8.6 12.1 13.9l36.6 10.5"/><path class="st3" d="M298.7 490.5s41.9 212 46.7 256.1l14.6 6.9-5.8-273.5s-38.5-41.1-55.5 10.5zm0 20.4S195.1 711.1 176.9 751.5H163l86.2-267.8s49.3-27.1 49.5 27.2z"/><path class="st4" d="M345.4 746.6l-2.2 28.1h4.3l3.1-12.3 7.7 12.3h43.2c-16.7-3.5-34-14.3-41.8-29.4l-3.1-149.2-30.2 35.2 19 115.3zM165 745.3c-7.8 15.1-26 26-42.6 29.4h43.2l7.7-12.3 3.1 12.3h4.3l-1.6-29.4 61.8-122-25.1-36-50.8 158z"/><path d="M441.1 370.3s-59.8 74.1-146.1 58.5c-86.9-15.7-121.7-84.5-121.7-84.5s14 3.7 26.4-15.9c9.9-15.7 27.1-24.6 58.2-24.6 1.1-.2 2.2-.5 3.2-1l54.9 53.5 46.1-43.8s25.8 4.3 38.9 20 13.2 37.8 40.1 37.8z" fill="#b70272" stroke="#000" stroke-width=".5" stroke-miterlimit="10"/><path d="M261.1 302.8s-37.9-2-53.5 15.4c-13.5 15.2-17.5 26.4-34.2 26.2 0 0 8.1 7.8 20.9 3.3s22.4-45.3 66.8-44.9zm101 9.7s30.6-9.6 44.8 14.8 16.3 40.8 34.2 43.1c0 0-26.9 3.2-35.4-18s-24.2-41.5-43.6-39.9z" stroke-linejoin="round" fill="#eb058c" stroke="#000" stroke-width=".5"/><path class="st3" d="M384.2 284l16-65.6 10.5 3.3-7.5 70.7-58.2 71.2-14.9-26.4zm-137.5-4.3l.1-67.5-10.9.7-9.5 70.5 38.8 85.2 21.5-24.4z"/><path class="st3" d="M276.4 322.3s22 2.4 25.6-7-1.8-14.5-1.8-14.5l20.9-2.8s-2.9 20.8 13 23.7c0 0 14.2 35.1 10.2 51.7-6.5 27.7-33.9 43-45.7 45.5-11.3 2.3-35.5-24.6-38.1-51.8-1.7-17.9 16.8-36.5 15.9-44.8z"/><path d="M389 264.6l11.2-46.2 10.5 3.3-5 45.9zm-142.2-4.9v-47.5l-10.9.7-6.1 45.7z" fill="#e5e5e5" stroke="#000" stroke-width=".5" stroke-miterlimit="10"/><path class="st3" d="M246.8 212.2s9.8-13.6 5.8-13.1c-.9.1-3 1.7-3.4 1.4-1.4-1.4-1-4.9-3.1-10.4-2.5-6.6-11.6-3.3-10.2 22.8l10.9-.7z"/><path class="st8" d="M342.5 430.3c5.5 12.7 42.3 68.6 42.3 68.6s-34 30.2-74.6 31.2-84.8-31.6-84.8-31.6 37-63.2 36-69.6c-.1 0 34.4 21.4 81.1 1.4z"/><path class="st3" d="M324.2 297.1c-5.4 4.4-12.3 8.3-19.1 6.8-5-1.1-9-5-11.9-9.3-2.3-3.4-4.1-7-5.4-10.9-1.5-3.2-1.3-4.3-1.9-7.8-.5-5.1 0-10.2 1.5-15.1 2.5-7.9 5.2-14.7 11.9-19.6 3.9-2.6 8.3-4.4 12.9-5.4 3.3-1.1 6.8-1.7 10.2-1.8 2.9.1 5.8.8 8.5 2 7.6 3.1 13.9 8.9 17.5 16.3 9.3 19.6-9.7 33-24.2 44.8z"/><path d="M287 285.2l-4.2-7.4 1.5-16.3 12.1-20.3 14.6-9.1 18.1 1.2 13.8 6.8 12.6 22.2-4.6 19.7-8.1 11.1s-12.5-22-9.6-49.9c0 0-18.6-5.7-26.5-5.6-.2-.1-31.8 16.7-19.7 47.6z" fill="#1a1a1a"/><path class="st3" d="M315.6 256.8c7.5-3.8 9.7-.4 13.7 3m-25.3-6.1c-2.4-2.7-6.1-2.2-9.6-1.5m16.2 16.7c-1.3-.7-2.5-1.4-3.7-2.3-.3-.2-.5-.4-.7-.7-.3-.8-.2-1.7.3-2.4l2.1-4m.9 25.5c-1 .2-1.9.5-2.9.9-.3.2-.6.4-.9.5-1.3.4-2.6-.6-3.2-1.9-.4-1.3-.7-2.6-.9-4-.5-1.1-.8-2.1-1.1-3.3-.1-.3-.1-.6.1-.9.4-.5 1.1-.7 1.7-.5 4.3.5 8.5 1.9 12.2 4.1.1.1.3.2.4.3.5.7-1.1 2.3-1.6 2.9-1.1.9-2.4 1.6-3.8 1.9z"/><path class="st10" d="M302.9 287.3c1.2.7 2.6.9 4 .5 1.3-.4 2.6-1 3.7-1.8.9-.6 1.7-1.2 2.6-1.8.7-.5 1.3-1 1.8-1.7.5-.6.7-1.4.7-2.2-1.3 1.1-2.7 2.1-4.3 2.8-2.1 1.1-4.4 1.5-6.7 1.2-.8-.1-2-.8-2.6 0s-.1 2.5.8 3z"/><path class="st10" d="M299.8 274.8c2.8-.8 5.7-.6 8.4.5 2.6 1.2 5 2.7 7.3 4.5.1.1.3.3.3.4s-.2.2-.5.1c-2.7.2-5.2-1.2-7.8-2-2.1-.7-4.3-1-6.5-.8-1.7.3-3.7-1.7-1.2-2.7z"/><ellipse transform="rotate(-66.952 320.91 260.859)" class="st2" cx="320.9" cy="260.9" rx="2.5" ry="2"/><path class="st11" d="M315.9 260.1s5-4.1 8.2 0c3.2 4.1 6 3.2 6 3.2"/><ellipse transform="rotate(-.888 299.259 257.391) scale(1.00002)" class="st2" cx="299.3" cy="257.3" rx="2" ry="2.5"/><path class="st11" d="M304 259.3s-2-6.2-6.9-4.4c-4.9 1.8-6.8-.5-6.8-.5"/><path class="st12" d="M291.2 249.8s9.9-3.6 19.5 1.8c9.1-3.4 15.7-1.2 22 5.5 0 0 0-9.3.4-15.6-4.2-2.9-14.1-3.1-18.4-9.4-4.2 4.1-9.7 4.8-15 5.4 0 0-9.1 5.5-8.5 12.3z"/><path class="st4" d="M342.5 430.3s-11.1-22.9-8.4-29.7 9.2-17.7 10.2-27.2-20.1-25.9-43.9-10.9c0 0-25.8-20.8-40.7 5.9 0 0 4.6 21.1 6.8 29.9s-5.2 30.5-5.2 30.5 34.3 21.7 81.2 1.5z"/><path class="st12" d="M266.6 398.3s.5 2.1 5.6 2.1 23.4-2.1 27.5 6.7c0 0 6-9 21.1-6.2s13.4-.3 13.4-.3c1 2.6 1.2 5.5.4 8.3 0 0-27.1-.6-34.9 7.4-9.7-6.6-21.4-9.5-33.1-8.4-.8-3.2-.5-6.4 0-9.6zm7.1-43c-.4 4.8 5.3 9.6 5.3 9.6-.4 4.8 4.2 6.7 4.2 6.7.2 2.8 3.5 4.9 5.4 5.8s4.6 11.5 4.6 11.5c2.1-1.3 5.1-6.9 5.1-6.9.1 1.8 4.7 7.8 4.7 7.8s2.9-10.4 6.6-12.2c2.2-1.1 4-2.9 5-5.2 4.7-1.9 5.2-7.2 5.2-7.2 4.7-1.4 4.8-9 4.8-9s-15.7-1.9-24.2 6.3c.1 0-13.5-10.9-26.7-7.2z"/><path class="st4" d="M302.7 339.4c-7.8-1.3-26 29.5-47.6 21.8s5.9-58.4 5.9-58.4c2.8 4 11.8 7.8 20.2 11.2 2.8 1.1 13.4 7 13.4 7 .7 6-.2 12.4 10.4 12.4 13.9 0 29-11.7 29-11.7s7.9-.4 10.3-1.4c6.7-2.6 8.2-5.7 15.6-12.4 0 0 13.7 58.4-17.6 56.7-11.9-.6-23.6-22.4-39.6-25.2z"/><circle class="st12" cx="302.4" cy="336.6" r="4.1"/><path class="st3" d="M400.2 218.4s-6.3-15.5-2.5-14.1c.8.3 2.5 2.4 3 2.1 1.7-1.1 2.1-4.6 5.4-9.3 4-5.8 12.1-.4 4.5 24.6l-10.4-3.3z"/><path class="st8" d="M93.2 320.4l25.3-7.9c9.9-3.1 20.4 2.4 23.5 12.3l7.9 25.3c3.1 9.9-2.4 20.4-12.3 23.5l-25.3 7.9c-9.9 3.1-20.4-2.4-23.5-12.3l-7.9-25.3c-3.1-9.9 2.4-20.4 12.3-23.5z"/><path class="st3" d="M139.5 352l-8.6-4.5c-1.8-.9-3.9-.2-4.8 1.6l-2.3 4.3-.8-.2c-6.8-1.1-13.1-4.4-17.9-9.4l-.6-.5 1.5-2.9.8-1.4c.9-1.7.3-3.9-1.4-4.8l-8.6-4.5c-1.8-.9-3.9-.2-4.8 1.6l-1.3 2.4h.1c-.4 1-.6 2.1-.7 3.1-.1 1 0 2 .2 2.9 1.4 7.4 6.7 13 18.3 19.1 16.1 8.4 25.7 4.4 26.1 4.2.9-.4 1.7-.9 2.5-1.5.8-.7 1.6-1.5 2.2-2.3l1.3-2.4c1.2-1.7.5-3.9-1.2-4.8z"/><path d="M104.2 393.5l-4.2 1.3 3.4 11-1.6.5-3.4-11-4.2 1.3-.4-1.4 10-3.1.4 1.4zm6.5 10.3c-2.7.8-4.8-.4-5.7-3.4-.9-2.9.2-5.4 2.7-6.2 3-.9 4.8 1.1 5.6 3.7l.1.2-6.8 2.1v.1c.6 1.9 2 2.7 3.8 2.2 1.3-.4 1.8-1.2 1.8-2.7l1.4-.5c.2 2.4-.8 3.9-2.9 4.5zm-2.7-8.3c-1.4.5-2.1 1.8-1.8 3.6l5.2-1.6c-.6-1.7-1.9-2.5-3.4-2zm9.8 5.8l-1.5.5-3.9-12.4 1.5-.5 3.9 12.4zm6.1-1.6c-2.7.8-4.8-.4-5.7-3.4-.9-2.9.2-5.4 2.7-6.2 3-.9 4.8 1.1 5.6 3.7l.1.2-6.8 2.1v.1c.6 1.9 2 2.7 3.8 2.2 1.3-.4 1.8-1.2 1.8-2.7l1.4-.5c.3 2.3-.7 3.8-2.9 4.5zm-2.6-8.3c-1.4.5-2.1 1.8-1.8 3.6l5.2-1.6c-.7-1.8-2-2.5-3.4-2zm12.1 5.3c-2.8.9-4.9-.6-5.7-3.3-.9-3 .2-5.4 2.8-6.2 2.2-.7 3.9 0 4.8 2l-1.5.5c-.7-1.2-1.7-1.6-2.9-1.2-1.7.5-2.4 2.2-1.7 4.4s2.1 3.2 3.8 2.7c1.3-.4 2-1.5 1.7-3.1l1.5-.5c.4 2.2-.6 4-2.8 4.7zm12.3-9.1c1 3.1-.1 5.3-2.8 6.2-2.8.9-5-.4-5.9-3.4-.9-3 .2-5.3 2.9-6.2 2.7-.8 4.8.4 5.8 3.4zm-7.2 2.3c.7 2.2 2.2 3.2 4 2.6 1.7-.5 2.4-2.2 1.7-4.4-.7-2.1-2.2-3.2-3.9-2.6s-2.5 2.2-1.8 4.4zm9.3-6.4c.4-1.3 1.1-2 2.5-2.5 1.2-.4 2.2-.2 3 .8.4-1.3 1.2-2.1 2.5-2.5 1.9-.6 3.2.2 3.8 2.1l2 6.3-1.5.5-1.8-5.7c-.4-1.3-.9-2.2-2.5-1.7-1.7.5-1.9 1.9-1.4 3.5l1.6 5.1-1.5.5-1.8-5.8c-.4-1.2-.9-2.1-2.3-1.6-2 .6-2 2.2-1.5 3.9l1.5 4.8-1.5.5-2.8-9 1.4-.4.3 1.2z"/><path class="st4" d="M468 240.1l6.5-25.7c2.5-10 12.7-16.1 22.8-13.6l25.7 6.5c10 2.5 16.1 12.7 13.6 22.8l-6.5 25.7c-2.5 10-12.7 16.1-22.8 13.6l-25.7-6.5c-10-2.5-16.1-12.7-13.6-22.8z"/><path class="st3" d="M524.5 226.9l-12.5-3.2.7-2.9c.5-1.9-.7-3.7-2.5-4.2l-7.3-1.9c-1.9-.5-3.7.6-4.2 2.5l-.7 2.9-12.5-3.2c-1.1-.3-2.3.4-2.6 1.5l-6.7 26.3c-.3 1.1.4 2.3 1.5 2.6l39 9.9c1.1.3 2.3-.3 2.6-1.4v-.1l6.7-26.3c.3-1.1-.4-2.3-1.5-2.5 0-.1 0-.1 0 0zm-22.4-8.7l7.2 1.8-.7 2.8-7.1-1.8.6-2.8zm-4.1 31.3c-6.9-1.7-11-8.7-9.3-15.6 1.7-6.9 8.7-11 15.6-9.3 6.8 1.7 11 8.7 9.3 15.6-1.8 6.9-8.8 11.1-15.6 9.3z"/><path class="st3" d="M508.1 235.8l-3.3-.8.8-3.3c.2-.9-.3-1.8-1.2-2l-2.6-.7c-.9-.2-1.8.3-2 1.2l-.8 3.3-3.3-.9c-.9-.2-1.8.3-2 1.2l-.7 2.6c-.2.9.3 1.8 1.2 2l3.3.9-.8 3.3c-.2.9.3 1.8 1.2 2l2.6.6c.9.2 1.8-.3 2-1.2l.8-3.3 3.3.8c.9.2 1.8-.3 2-1.2l.7-2.6c.3-.8-.3-1.7-1.2-1.9z"/><path d="M460 277.2l-1.7-.4 1.5-5.9-6.7-1.7-1.5 5.9-1.7-.4 3.2-12.6 1.7.4-1.3 5.3 6.7 1.7 1.3-5.3 1.7.4-3.2 12.6zm6.3 1.9c-2.7-.7-3.9-2.9-3.1-5.8.7-3 3-4.5 5.5-3.9 3 .8 3.5 3.4 2.9 6.1l-.1.2-6.9-1.7v.1c-.5 1.9.3 3.4 2.1 3.8 1.3.3 2.2-.1 3-1.3l1.5.4c-1.1 1.9-2.8 2.7-4.9 2.1zm2-8.5c-1.5-.4-2.8.4-3.4 2.1l5.3 1.3c.3-1.7-.4-3-1.9-3.4zm11.9 11.7c-.4 0-.7 0-1.1-.1-.9-.2-1.2-.8-1-1.7-1.2.8-2.3 1-3.7.6-1.8-.5-2.7-1.7-2.3-3.3.4-1.6 1.7-2.3 4-2 2.2.3 3 .5 3.3-.7.2-1-.3-1.7-1.7-2-1.4-.4-2.3 0-2.7 1.3l-1.5-.4c.5-1.9 2.3-2.7 4.6-2.1 1.2.3 2.2.9 2.6 1.6.5.8.2 1.7 0 2.5-.3 1.4-.8 2.7-1.1 4.1-.2.7-.1.9.4 1.1h.4l-.2 1.1zm-3.5-5.3c-1.1-.1-2.7-.4-3 1.1-.2.9.3 1.7 1.4 2 1.4.4 3-.3 3.3-1.4l.4-1.7c-.6.2-1.4 0-2.1 0zm6.5 6l-1.5-.4 3.2-12.6 1.5.4-3.2 12.6zm8.2-6.3l-1.8-.5-1.3 5.3c-.2.8-.4 1.3.7 1.6.3.1.5.1.8.2l-.3 1.3c-.5-.1-.7-.1-1.2-.2-2.3-.6-1.9-1.7-1.4-3.7l1.2-4.9-1.5-.4.3-1.2 1.5.4.7-2.7 1.5.4-.7 2.7 1.8.5-.3 1.2zm3.2.9c.9-.8 2.1-1.1 3.4-.8 2.2.5 2.8 2 2.3 3.9l-1.6 6.3-1.5-.4 1.5-5.9c.3-1.3.2-2.3-1.5-2.7-1.9-.5-2.9.7-3.4 2.8l-1.2 4.6-1.5-.4 3.2-12.6 1.5.4-1.2 4.8zm10.2 11.2c-2.8-.7-3.9-3-3.2-5.8.8-3 3-4.5 5.6-3.9 2.2.6 3.3 2.1 3.1 4.2l-1.6-.4c.1-1.4-.6-2.3-1.8-2.6-1.7-.4-3.2.7-3.7 2.9-.6 2.2.1 3.8 1.8 4.3 1.4.3 2.5-.3 3.1-1.7l1.5.4c-.8 2.1-2.6 3.1-4.8 2.6zm13.8 3.1c-.4 0-.7 0-1.1-.1-.9-.2-1.2-.8-1-1.7-1.2.8-2.3 1-3.7.6-1.8-.5-2.7-1.7-2.3-3.3.4-1.6 1.7-2.3 4-2 2.2.3 3 .5 3.3-.7.2-1-.3-1.7-1.7-2-1.4-.4-2.3 0-2.7 1.3l-1.5-.4c.5-1.9 2.3-2.7 4.6-2.1 1.2.3 2.2.9 2.6 1.6.5.8.2 1.7 0 2.5-.3 1.4-.8 2.7-1.1 4.1-.2.7-.1.9.4 1.1h.4l-.2 1.1zm-3.4-5.3c-1.1-.1-2.7-.4-3 1.1-.2.9.3 1.7 1.4 2 1.4.4 3-.3 3.3-1.4l.4-1.7c-.6.3-1.4.1-2.1 0zm11.5-.9c-.2-.1-.2-.1-.4-.1-2.5-.6-3.4 1.2-3.9 3.2l-1 3.9-1.5-.4 2.3-9.1 1.4.4-.5 2c1-1.4 2.3-1.7 3.9-1.3l-.3 1.4zm2.6 9.3c-2.7-.7-3.9-2.9-3.1-5.8.7-3 3-4.5 5.5-3.9 3 .8 3.5 3.4 2.9 6.1l-.1.2-6.9-1.7v.1c-.5 1.9.3 3.4 2.1 3.8 1.3.3 2.2-.1 3-1.3l1.5.4c-1.1 1.9-2.7 2.6-4.9 2.1zm2.1-8.5c-1.5-.4-2.8.4-3.4 2.1l5.3 1.3c.3-1.8-.4-3-1.9-3.4z"/><path class="st4" d="M129.7 208.4l25.7-6.3c10.1-2.5 20.2 3.7 22.7 13.7l6.3 25.7c2.5 10.1-3.7 20.2-13.7 22.7l-25.7 6.3c-10.1 2.5-20.2-3.7-22.7-13.7l-6.3-25.7c-2.5-10.1 3.6-20.3 13.7-22.7z"/><path class="st3" d="M152.2 237.9l1.4 6.2c1.9-.6 3.6-1.9 3.1-4s-2.7-2.2-4.5-2.2zm-7.1-6.1c.4 1.6 1.7 2.2 4.2 2.1l-1.3-5.6c-2.1.6-3.2 2.2-2.9 3.5z"/><path class="st3" d="M146.3 217.5c-10.4 2.4-16.9 12.9-14.5 23.3 2.4 10.4 12.9 16.9 23.3 14.5 10.4-2.4 16.9-12.9 14.5-23.3-2.4-10.5-12.8-16.9-23.3-14.5zm8 29.8l.5 1.9c.3.5.1 1.1-.4 1.4-.5.3-1.1.1-1.4-.4-.1-.2-.1-.4-.1-.5l-.5-1.9c-5.3 1.1-8.7-1.4-9.2-3.9-.3-1 .2-2 1.1-2.3.1 0 .2-.1.3-.1 3.5-.8 1.8 4.1 7 3.1l-1.5-6.5c-4.8.2-8.1-1.1-8.9-4.6-1-4.2 2-7.3 5.9-8.3l-.4-1.7c-.3-.5-.1-1.1.4-1.4.5-.3 1.1-.1 1.4.4.1.2.1.4.1.5l.4 1.7c2.5-.5 7.8-.1 8.5 2.9.3 1-.3 2.1-1.4 2.4h-.1c-2 .5-2.8-2.9-6.3-2.1l1.4 5.9c4.3-.1 8.3.3 9.4 5.1 1.1 4.2-1.6 7-6.2 8.4z"/><path d="M138.2 279.4l-6.6 1.6 1 3.9 5.9-1.4.3 1.4-5.9 1.4 1.4 5.8-1.7.4-3.1-12.6 8.3-2 .4 1.5zm3.3-.4l-1.5.4-.5-1.8 1.5-.4.5 1.8zm2.6 10.8l-1.5.4-2.2-9.2 1.5-.4 2.2 9.2zm1.9-8.7c.5-1.3 1.3-2.1 2.7-2.4 2.2-.5 3.4.5 3.9 2.6l1.5 6.1-1.5.4-1.3-5.4c-.4-1.5-.7-2.7-2.6-2.2-2 .5-2.2 2.1-1.8 3.9l1.2 4.8-1.5.4-2.2-9.2 1.4-.3.2 1.3zm16.6-7.7l-4.2 1 2.7 11.2-1.7.4-2.7-11.2-4.2 1-.4-1.5 10.2-2.5.3 1.6zm5.9 10.7c-2.7.7-4.8-.7-5.5-3.7-.7-3 .5-5.4 3-6 3-.7 4.7 1.4 5.4 4l.1.2-6.9 1.7v.1c.5 2 1.8 2.9 3.6 2.4 1.3-.3 1.9-1.1 2-2.6l1.5-.4c0 2.4-1.1 3.8-3.2 4.3zm-2.2-8.4c-1.5.4-2.2 1.7-2 3.4l5.3-1.3c-.6-1.7-1.8-2.5-3.3-2.1zm11.7 6c-2.8.7-4.8-.9-5.5-3.7-.8-3.1.5-5.4 3.2-6.1 2.2-.5 3.9.3 4.7 2.3l-1.6.4c-.6-1.2-1.6-1.7-2.8-1.4-1.7.4-2.5 2.1-2 4.3.5 2.2 1.9 3.3 3.6 2.9 1.4-.3 2.1-1.4 1.9-3l1.5-.4c.4 2.4-.7 4.2-3 4.7zm5.2-9.8c.4-1.2 1.3-1.9 2.6-2.3 2.2-.5 3.4.4 3.9 2.4l1.5 6.3-1.5.4-1.5-5.9c-.3-1.3-.9-2.1-2.5-1.7-1.9.5-2.2 2-1.7 4.1l1.1 4.7-1.5.4-3.1-12.6 1.5-.4 1.2 4.6z"/><path class="st4" d="M289.8 157l.3-26.5c.1-10.4 8.6-18.7 19-18.6l26.5.3c10.4.1 18.7 8.6 18.6 19l-.3 26.5c-.1 10.4-8.6 18.7-19 18.6l-26.5-.3c-10.4-.1-18.7-8.6-18.6-19z"/><path class="st3" d="M342.2 142.4c-.6-.3-1.3-.3-1.9.1l-10 6.7V144c0-1-.8-1.9-1.9-1.9-.4 0-.7.1-1 .3l-10.3 6.9V135c0-.4-.3-.7-.7-.7h-12c-.4 0-.7.3-.7.7v29c0 .4.3.7.7.7h38.1c.4 0 .7-.3.7-.7v-20c0-.7-.4-1.3-1-1.6zm-16.3 13.7c0 .3-.2.5-.5.5H322c-.3 0-.5-.2-.5-.5v-3.4c0-.3.2-.5.5-.5h3.4c.3 0 .5.2.5.5v3.4zm12.7 0c0 .3-.2.5-.5.5h-3.4c-.3 0-.5-.2-.5-.5v-3.4c0-.3.2-.5.5-.5h3.4c.3 0 .5.2.5.5v3.4zm-34.2-24.6h12c.4 0 .7-.2.7-.6v-5.5c0-1-.8-1.8-1.8-1.9h-9.7c-1 0-1.9.8-1.9 1.8v5.5c0 .5.3.7.7.7z"/><path d="M271.2 182.6l4.1 11.1 4.1-11h2.4l-.1 13h-1.6l.1-10.9-4.2 10.8h-1.5l-4-10.9-.1 10.9h-1.6l.1-13h2.3zm21.4 13.2c-.3.1-.7.2-1.1.2-.9 0-1.3-.5-1.4-1.4-.9 1-2 1.5-3.4 1.5-1.9 0-3-1.1-3-2.7 0-1.7 1.1-2.7 3.4-2.9 2.3-.3 3-.2 3-1.5 0-1-.7-1.6-2.1-1.6-1.4 0-2.2.5-2.4 1.9h-1.5c.1-2 1.5-3.2 4-3.2 1.3 0 2.3.4 3 .9.7.6.6 1.6.6 2.5 0 1.4-.1 2.8-.1 4.2 0 .7.2.9.6.9.1 0 .2 0 .4-.1v1.3zm-4.5-4.4c-1.1.1-2.7.2-2.7 1.8 0 1 .7 1.6 1.9 1.6 1.5 0 2.9-1 2.9-2.2v-1.7c-.6.4-1.4.4-2.1.5zm7.5-3.5c.8-1.1 1.8-1.7 3.2-1.7 2.3 0 3.1 1.3 3.1 3.4l-.1 6.3h-1.6l.1-5.6c0-1.5 0-2.8-2-2.8s-2.7 1.5-2.7 3.4v4.9H294l.1-9.4h1.5v1.5zm16.5 8.1h-1.4v-1.5c-.8 1.2-1.9 1.7-3.3 1.7-2 0-3.1-1.1-3.1-3.2l.1-6.5h1.6l-.1 6.1c0 1.4.4 2.3 2 2.3 2 0 2.8-1.4 2.8-3.4v-4.9h1.6l-.2 9.4zm6.7-11.6c-.2 0-.5-.1-.9-.1-1 0-1.2.2-1.2 1.2v1.1h1.8v1.3h-1.8l-.1 8.2H315l.1-8.2h-1.6v-1.3h1.6v-1.3c0-1.8 1-2.4 2.6-2.4.4 0 .5 0 1 .1l.1 1.4zm9.4 11.7c-.3.1-.7.2-1.1.2-.9 0-1.3-.5-1.4-1.4-.9 1-2 1.5-3.4 1.5-1.9 0-3-1.1-3-2.7 0-1.7 1.1-2.7 3.4-2.9 2.3-.3 3-.2 3-1.5 0-1-.7-1.6-2.1-1.6-1.4 0-2.2.5-2.4 1.9h-1.5c.1-2 1.5-3.2 4-3.2 1.3 0 2.3.4 3 .9.7.6.6 1.6.6 2.5 0 1.4-.1 2.8-.1 4.2 0 .7.2.9.6.9.1 0 .2 0 .4-.1v1.3zm-4.6-4.3c-1.1.1-2.7.2-2.7 1.8 0 1 .7 1.6 1.9 1.6 1.5 0 2.9-1 2.9-2.2v-1.7c-.6.4-1.4.4-2.1.5zm10 4.7c-2.9 0-4.5-2-4.4-4.9 0-3.1 1.8-5.1 4.6-5.1 2.3 0 3.7 1.2 4 3.4h-1.6c-.3-1.3-1.1-2.1-2.4-2.1-1.8 0-2.9 1.4-3 3.7 0 2.3 1 3.7 2.8 3.7 1.4 0 2.3-.8 2.6-2.4h1.6c-.3 2.3-1.8 3.7-4.2 3.7zm10-8.3h-1.9l-.1 5.5c0 .9-.1 1.4 1 1.4h.8v1.3c-.5 0-.7.1-1.2.1-2.4 0-2.2-1.2-2.2-3.3l.1-5h-1.6v-1.3h1.6v-2.8h1.6v2.8h1.9v1.3zm9.4 8.2h-1.4v-1.5c-.8 1.2-1.9 1.7-3.3 1.7-2 0-3.1-1.1-3.1-3.2l.1-6.5h1.6l-.1 6.1c0 1.4.4 2.3 2 2.3 2 0 2.8-1.4 2.8-3.4V187h1.6l-.2 9.4zm7.4-8h-.4c-2.6 0-3 1.9-3.1 4v4h-1.6l.1-9.4h1.5v2c.7-1.6 1.8-2.2 3.5-2.2v1.6zm2.7 8.1h-1.6l.1-9.4h1.6l-.1 9.4zm.1-11.1h-1.6v-1.9h1.6v1.9zm3.9 3.2c.8-1.1 1.8-1.7 3.2-1.7 2.3 0 3.1 1.3 3.1 3.4l-.1 6.3h-1.6l.1-5.6c0-1.5 0-2.8-2-2.8s-2.7 1.5-2.7 3.4v4.9h-1.6l.1-9.4h1.5v1.5zm16.8 7.1c0 1.6-.2 2.4-.6 3.1-.7 1.1-2 1.7-3.7 1.7-1.9 0-3.7-.7-3.9-2.8h1.6c.2 1.1 1 1.6 2.4 1.6 1.9 0 2.8-.9 2.8-3.1V195c-.6 1.2-1.6 1.7-3 1.7-2.5 0-4.1-1.9-4.1-4.8 0-2.6 1.5-5 4.3-5 1.3 0 2.4.6 3 1.7v-1.4h1.4l-.2 8.5zm-7-3.7c0 2.1 1.1 3.4 2.7 3.5 1.7 0 2.8-1.4 2.8-3.7 0-2.1-1-3.4-2.8-3.4-1.7-.1-2.7 1.3-2.7 3.6z"/><path class="st8" d="M477.4 346.7l10-24.6c3.9-9.6 14.9-14.2 24.5-10.3l24.6 10c9.6 3.9 14.2 14.9 10.3 24.5l-10 24.6c-3.9 9.6-14.9 14.2-24.5 10.3l-24.6-10c-9.6-3.9-14.2-14.9-10.3-24.5z"/><path class="st3" d="M535.2 356.1c-1-1.5-2.5-2.6-4.2-3.3-3-1.2-6-1-7.2.4l-.2-.1c.1-1.9-1.9-4.2-4.9-5.4-1.7-.7-3.5-1-5.3-.6l-5.7 14c-1.4 3.5-5.4 5.2-8.9 3.7-3.5-1.4-5.2-5.4-3.8-8.9.3-.8 1.2-1.1 2-.8.8.3 1.1 1.2.8 2-.8 2 .1 4.2 2.1 5 2 .8 4.2-.1 5-2.1l5.7-14c-1-1.5-2.5-2.7-4.2-3.3-3-1.2-6-1-7.2.4l-.2-.1c.1-1.9-1.9-4.2-4.9-5.4-1.7-.7-3.5-1-5.3-.6 5-9.6 17.6-13.7 29.5-9.5l.4-1c.3-.8 1.1-1.2 1.9-1s1.2 1.1 1 1.9c0 .1 0 .1-.1.2l-.4 1c11.2 5.4 17.3 17.2 14.1 27.5z"/><path d="M458.7 377.2l-1.6-.6 4.9-12.1 1.6.6-4.9 12.1zm6.9-5.8c1.2-.8 2.3-.9 3.6-.4 2.1.9 2.4 2.4 1.6 4.4l-2.4 5.8-1.4-.6 2.1-5.1c.6-1.4 1-2.6-.8-3.3-1.9-.8-3.1.4-3.8 2.1l-1.9 4.6-1.4-.6 3.6-8.7 1.4.6-.6 1.2zm12.6 6.5c.4-1.2-.2-2-1.5-2.5-1.1-.4-2-.3-2.3.5-.4 1 .7 1.6 1.7 2.3 1.3.9 3.1 2.1 2.3 4-.7 1.7-2.6 2.2-4.8 1.3-2.4-1-3.2-2.6-2.5-4.6l1.4.6c-.5 1.4.2 2.2 1.6 2.8 1.3.5 2.4.3 2.7-.6.4-1-.5-1.6-1.6-2.4-1.4-1-3.3-2-2.5-4 .6-1.6 2.4-2 4.4-1.2 2 .8 3.1 2.4 2.3 4.2l-1.2-.4zm8.1 10.6l-1.3-.5.6-1.4c-1.2.8-2.4.9-3.7.4-1.8-.7-2.5-2.2-1.7-4.1l2.4-6 1.4.6-2.3 5.6c-.5 1.3-.5 2.2 1 2.8 1.9.8 3.1-.3 3.8-2.1l1.9-4.6 1.4.6-3.5 8.7zm9.8-4.7c-.1-.1-.2-.1-.4-.2-2.4-1-3.5.7-4.3 2.6l-1.5 3.7-1.4-.6 3.6-8.7 1.4.6-.8 1.9c1.2-1.2 2.5-1.4 4.1-.8l-.7 1.5zm5.8 11c-.4 0-.7-.1-1.1-.2-.8-.3-1.1-1-.7-1.8-1.3.6-2.4.7-3.7.1-1.7-.7-2.4-2.1-1.8-3.6.6-1.6 2-2.1 4.2-1.5 2.2.6 2.9.9 3.4-.2.4-.9-.1-1.7-1.4-2.2-1.3-.5-2.2-.3-2.9.9l-1.4-.6c.8-1.8 2.6-2.4 4.9-1.5 1.2.5 2 1.2 2.4 2 .4.8 0 1.7-.3 2.5-.5 1.3-1.1 2.6-1.7 3.9-.3.6-.2.9.2 1.1.1.1.2.1.4.1l-.5 1zm-2.6-5.8c-1.1-.3-2.6-.8-3.1.7-.4.9.1 1.7 1.2 2.2 1.4.6 3 .2 3.5-1l.6-1.6c-.8.2-1.6-.1-2.2-.3zm8.3-.5c1.2-.8 2.3-.9 3.6-.4 2.1.9 2.4 2.4 1.6 4.4l-2.4 5.8-1.4-.6 2.1-5.1c.6-1.4 1-2.6-.8-3.3-1.9-.8-3.1.4-3.8 2.1l-1.9 4.6-1.4-.6 3.6-8.7 1.4.6-.6 1.2zm8.6 12.4c-2.7-1.1-3.4-3.5-2.3-6.2 1.2-2.9 3.6-4.1 6.1-3 2.1.9 3 2.5 2.4 4.6l-1.5-.6c.2-1.3-.2-2.3-1.4-2.8-1.7-.7-3.2.2-4.1 2.3-.9 2.1-.4 3.8 1.2 4.5 1.3.5 2.5.1 3.3-1.3l1.5.6c-1 2-3 2.8-5.2 1.9zm9.1 3.8c-2.6-1-3.4-3.4-2.3-6.2 1.2-2.8 3.6-4.1 6-3.1 2.9 1.2 3 3.9 2 6.4l-.1.2-6.6-2.7-.1.1c-.8 1.9-.2 3.4 1.5 4.1 1.3.5 2.2.2 3.1-.9l1.4.6c-1.1 1.8-2.9 2.3-4.9 1.5zm3.2-8.2c-1.4-.6-2.8 0-3.7 1.6l5.1 2.1c.5-1.7 0-3.1-1.4-3.7z"/><path class="st8" d="M417.2 129.5l8.1-25.3c3.2-9.9 13.7-15.3 23.6-12.2l25.3 8.1c9.9 3.2 15.3 13.7 12.2 23.6l-8.1 25.3c-3.2 9.9-13.7 15.3-23.6 12.2l-25.3-8.1c-9.9-3.2-15.3-13.7-12.2-23.6z"/><path class="st3" d="M474.2 131.7l-2.5-6.2-2.3-12.9c-.2-1.2-1.1-2.2-2.2-2.5l-18-5.8c-1.2-.4-2.4-.1-3.3.8l-9.4 9.1-5.7 3.6c-.9.8-1.6 1.8-2 2.9l-4.6 14.2c-.4 1.3.3 2.7 1.6 3.2l3.5 1.1c1.3.4 2.7-.3 3.2-1.6l1.5-4.5 28.7 9.2-1.5 4.5c-.4 1.3.3 2.7 1.6 3.1l3.5 1.1c1.3.4 2.7-.3 3.1-1.6l4.6-14.2c.5-1.2.5-2.4.2-3.5zm-32.7-18.9l5.4-5.6c.7-.7 1.8-1 2.8-.7l15.8 5.1c1 .3 1.7 1.2 1.9 2.2l1.1 7.7c0 .3-.1.6-.3.8-.2.2-.6.3-.8.2l-11.2-3.6 7.6-3.7c.2-.1.3-.4.2-.6-.1-.2-.4-.3-.6-.2l-8.5 4.1-12.9-4.1c-.5-.1-.7-.6-.6-1.1-.1-.2 0-.4.1-.5zm-3.7 15.3l-5.2-1.7c-.9-.3-1.5-1.3-1.2-2.3.3-.9 1.2-2.9 2.1-2.5 1.4.6 4.1 2.3 5.4 3 .9.3 1.4 1.3 1.2 2.2-.3 1.1-1.3 1.6-2.3 1.3zm18.6 5.3c-.2.3-.6.5-1 .3l-10.6-3.4c-.4-.1-.6-.5-.6-.9 0-1.2 0-2.4.2-3.6.2-.6.8-.9 1.4-.7l11.9 3.8c.6.2.9.8.7 1.4-.6 1.1-1.2 2.1-2 3.1zm11.2 4.3l-5.2-1.7c-.9-.3-1.5-1.3-1.2-2.3.3-.9 1.3-1.4 2.3-1.1 1.5.2 4.6.4 6.2.7 1 .2.5 2.3.2 3.2-.3 1-1.3 1.5-2.3 1.2z"/><path d="M407.3 163.4l-1.8-.5-.2-4.2-5.2-1.6-2.6 3.4-1.8-.5 8.6-11 1.9.6 1.1 13.8zm-2.6-12.6l-3.9 5.1 4.3 1.3-.4-6.4zm11.1 15.1l-1.4-.4.4-1.4c-1.1.9-2.3 1.1-3.6.7-1.9-.6-2.7-2-2.1-4l1.8-6.2 1.5.4-1.7 5.8c-.4 1.3-.3 2.3 1.2 2.7 2 .6 3.1-.6 3.6-2.5l1.4-4.7 1.5.4-2.6 9.2zm8.4-6l-1.8-.5-1.6 5.3c-.2.8-.4 1.3.6 1.6.3.1.5.1.8.2l-.4 1.3c-.5-.1-.7-.1-1.2-.3-2.3-.7-1.8-1.8-1.2-3.7l1.4-4.8-1.5-.5.4-1.2 1.5.5.8-2.7 1.5.4-.8 2.7 1.8.5-.3 1.2zm9 6.2c-.9 3.1-3 4.4-5.8 3.6-2.8-.8-3.9-3.1-3-6.1s3.1-4.3 5.9-3.5 3.8 3 2.9 6zM426 164c-.7 2.2 0 3.9 1.8 4.4 1.8.5 3.2-.5 3.9-2.7.6-2.2 0-3.8-1.8-4.4-1.8-.5-3.3.6-3.9 2.7zm11.3-.1c1.1-.8 2.1-1.1 3.4-.7 1.2.4 1.9 1.1 2 2.3 1.1-.8 2.1-1.1 3.5-.7 1.9.6 2.5 2 2 3.8l-1.9 6.3-1.5-.4 1.7-5.7c.4-1.3.5-2.3-1.1-2.8-1.7-.5-2.7.5-3.2 2.1l-1.5 5.1-1.5-.4 1.7-5.8c.4-1.2.4-2.2-1-2.6-2-.6-2.9.7-3.4 2.4l-1.4 4.8-1.5-.4 2.7-9 1.4.4-.4 1.3zm20.9 9.6c-.9 3.1-3 4.4-5.8 3.6-2.8-.8-3.9-3.1-3-6.1s3.1-4.3 5.9-3.5 3.8 3 2.9 6zm-7.2-2.1c-.7 2.2 0 3.9 1.8 4.4 1.8.5 3.2-.5 3.9-2.7.6-2.2 0-3.8-1.8-4.4-1.8-.5-3.3.6-3.9 2.7zm13.8.6l-1.8-.5-1.6 5.3c-.2.8-.4 1.3.6 1.6.3.1.5.1.8.2l-.4 1.3c-.5-.1-.7-.1-1.2-.3-2.3-.7-1.8-1.8-1.2-3.7l1.4-4.8-1.5-.5.4-1.2 1.5.5.8-2.7 1.5.4-.8 2.7 1.8.5-.3 1.2zm.9 8.7l-1.5-.4 2.7-9 1.5.4-2.7 9zm3.2-10.6l-1.5-.4.5-1.8 1.5.4-.5 1.8zm2.6 2.5l.3 8.3 4.7-6.8 1.6.5-6 8.1-1.6-.5-.7-10 1.7.4zm9 12.9c-2.7-.8-3.7-3-2.9-6 .9-2.9 3.2-4.4 5.7-3.7 3 .9 3.4 3.6 2.6 6.2l-.1.2-6.8-2v.1c-.6 1.9.2 3.4 1.9 3.9 1.3.4 2.2 0 3-1.2l1.5.4c-1.1 2-2.8 2.7-4.9 2.1zm2.4-8.4c-1.5-.4-2.8.3-3.5 2l5.3 1.6c.3-1.9-.3-3.2-1.8-3.6z"/><path class="st8" d="M168.8 96.3l25.7-6.5c10-2.5 20.2 3.6 22.8 13.6l6.5 25.7c2.5 10-3.6 20.2-13.6 22.8l-25.7 6.5c-10 2.5-20.2-3.6-22.8-13.6l-6.5-25.7c-2.5-10.1 3.6-20.3 13.6-22.8z"/><path class="st3" d="M215.3 135.4l-7.6-13.3c-.2-.4-.7-.6-1.2-.5l-1.8.4 1.8 7.3c.4 1.7-.6 3.4-2.3 3.9l-23.2 5.7c-1.7.4-3.4-.6-3.8-2.3l-1.8-7.4-1.8.4c-.5.1-.8.5-.8 1l-.6 15.4c0 .6.4 1.1 1 1.1h.3l41.1-10.1c.3-.1.6-.3.7-.6.2-.4.1-.7 0-1zm-41.6-13.7l11.4-15.9 17.5 8.8c.3.2.7.2 1.1.1.4-.1.8-.4 1-.8.4-.8.1-1.7-.7-2.1l-18.7-9.4c-.7-.4-1.5-.1-2 .5l-12.1 17c-.5.7-.4 1.7.4 2.2.6.5 1.6.3 2.1-.4z"/><path class="st3" d="M184.9 107.9l-9.2 12.9c-.2.3-.2.6-.2.9l3.6 14.5c.1.6.7.9 1.3.8l23.2-5.7c.6-.1.9-.7.8-1.3l-3.6-14.5c-.1-.3-.3-.6-.5-.7l-14.1-7.2c-.4-.3-1-.2-1.3.3zm5 21.8c.1.6-.2 1.1-.8 1.3l-3.6.9c-.6.1-1.1-.2-1.3-.8l-.9-3.6c-.1-.6.2-1.1.8-1.3l3.6-.9c.6-.1 1.1.2 1.3.8l.9 3.6zM188 122c.1.6-.2 1.1-.8 1.3l-3.6.9c-.6.1-1.1-.2-1.3-.8l-.9-3.6c-.1-.6.2-1.1.8-1.3l3.6-.9c.6-.1 1.1.2 1.3.8l.9 3.6zm1.2-4.1c-.1-.6.2-1.1.8-1.3l3.6-.9c.6-.1 1.1.2 1.3.8l.9 3.6c.1.6-.2 1.1-.8 1.3l-3.6.9c-.6.1-1.1-.2-1.3-.8l-.9-3.6zm1.9 7.7c-.1-.6.2-1.1.8-1.3l3.6-.9c.6-.1 1.1.2 1.3.8l.9 3.6c.1.6-.2 1.1-.8 1.3l-3.6.9c-.6.1-1.1-.2-1.3-.8l-.9-3.6z"/><path d="M161.1 180.5c-3.6.9-6.5-1.1-7.5-5.1-.9-3.6.4-7.1 4.3-8.1 2.5-.6 5.3.1 6.3 2.8l-1.7.4c-.8-1.6-2.4-2.2-4.3-1.7-3 .8-3.6 3.6-3 6.2.8 3.2 2.9 4.8 5.5 4.1 2.1-.5 3.1-2.1 2.8-4.6l1.7-.4c.6 3.2-1 5.6-4.1 6.4zm14.5-8.9c.8 3.1-.4 5.3-3.2 6-2.8.7-4.9-.7-5.7-3.7s.5-5.3 3.3-6c2.8-.6 4.8.7 5.6 3.7zm-7.3 1.9c.6 2.3 2 3.3 3.8 2.8 1.8-.4 2.5-2.1 1.9-4.3-.5-2.2-2-3.3-3.8-2.8-1.7.5-2.5 2.1-1.9 4.3zm9.7-5.8c.5-1.3 1.3-2.1 2.7-2.5 2.2-.6 3.4.5 3.9 2.5l1.5 6.1-1.5.4-1.4-5.4c-.4-1.5-.7-2.7-2.6-2.2-2 .5-2.2 2.1-1.8 4l1.2 4.8-1.5.4-2.3-9.1 1.4-.4.4 1.4zm14-2.2c-.4-1.2-1.4-1.4-2.7-1.1-1.2.3-1.7.9-1.5 1.7.3 1 1.5.9 2.8.9 1.6 0 3.7-.1 4.2 1.9.4 1.8-.8 3.3-3.1 3.9-2.5.6-4.1-.1-4.7-2.2l1.5-.4c.4 1.4 1.5 1.7 3 1.3 1.3-.3 2.1-1.2 1.8-2.1-.3-1-1.3-1-2.7-1-1.7 0-3.8.3-4.4-1.8-.4-1.6.7-3 2.8-3.6 2.1-.5 3.9.1 4.4 2l-1.4.5zm7.2-3.3l-1.8.5 1.3 5.3c.2.8.3 1.4 1.3 1.1.3-.1.5-.1.8-.3l.3 1.3c-.5.2-.7.2-1.1.4-2.3.6-2.5-.6-3-2.6l-1.2-4.9-1.5.4-.3-1.2 1.5-.4-.7-2.7 1.5-.4.7 2.7 1.8-.5.4 1.3zm6.4-1.5c-.2 0-.2 0-.4.1-2.5.6-2.4 2.6-1.9 4.7l1 3.9-1.5.4-2.3-9.1 1.4-.4.5 2c.2-1.7 1.2-2.6 2.8-3l.4 1.4zm10.7 5.6l-1.4.4-.4-1.4c-.5 1.4-1.4 2.1-2.7 2.5-1.9.5-3.3-.3-3.8-2.3l-1.6-6.3 1.5-.4 1.5 5.9c.3 1.3.9 2.1 2.5 1.7 2-.5 2.3-2.1 1.8-4l-1.2-4.8 1.5-.4 2.3 9.1zm6.2-1.3c-2.8.7-4.8-.8-5.5-3.6-.8-3 .5-5.4 3.1-6.1 2.2-.6 3.9.3 4.7 2.3l-1.6.4c-.6-1.2-1.6-1.7-2.8-1.4-1.7.4-2.5 2.1-1.9 4.3.6 2.2 1.9 3.3 3.6 2.9 1.4-.3 2.1-1.4 1.9-3l1.5-.4c.4 2.3-.7 4.1-3 4.6zm7.5-10.5l-1.8.5 1.3 5.3c.2.8.3 1.4 1.3 1.1.3-.1.5-.1.8-.3l.3 1.3c-.5.2-.7.2-1.1.4-2.3.6-2.5-.6-3-2.6l-1.2-4.9-1.5.4-.3-1.2 1.5-.4-.7-2.7 1.5-.4.7 2.7 1.8-.5.4 1.3zm2.6-3.7l-1.5.4-.5-1.8 1.5-.4.5 1.8zm2.7 10.7l-1.5.4-2.3-9.1 1.5-.4 2.3 9.1zm9.6-7.3c.8 3.1-.4 5.3-3.2 6-2.8.7-4.9-.7-5.7-3.7-.8-3 .5-5.3 3.3-6 2.7-.7 4.8.7 5.6 3.7zm-7.3 1.9c.6 2.3 2 3.3 3.8 2.8 1.8-.4 2.5-2.1 1.9-4.3-.5-2.2-2-3.3-3.8-2.8-1.7.5-2.5 2.1-1.9 4.3zm9.7-5.8c.5-1.3 1.3-2.1 2.7-2.5 2.2-.6 3.4.5 3.9 2.5l1.5 6.1-1.5.4-1.4-5.4c-.4-1.5-.7-2.7-2.6-2.2-2 .5-2.2 2.1-1.8 4l1.2 4.8-1.5.4-2.3-9.1 1.4-.4.4 1.4z"/></svg>