<?xml version="1.0" encoding="utf-8"?>
<!-- Generator: Adobe Illustrator 22.0.1, SVG Export Plug-In . SVG Version: 6.00 Build 0)  -->
<svg version="1.1" id="Layer_1" xmlns="http://www.w3.org/2000/svg" xmlns:xlink="http://www.w3.org/1999/xlink" x="0px" y="0px"
	 viewBox="0 0 591.2 807.4" style="enable-background:new 0 0 591.2 807.4;" xml:space="preserve">
<style type="text/css">
	.st0{fill:#FFFFFF;}
	.st1{fill:#CCCCCC;}
	.st2{fill:#1A1A1A;stroke:#000000;stroke-width:0.5;stroke-miterlimit:10;}
	.st3{fill:#FFFFFF;stroke:#000000;stroke-width:0.5;stroke-miterlimit:10;}
	.st4{fill:#EB058C;stroke:#000000;stroke-width:0.5;stroke-miterlimit:10;}
	.st5{fill:#B70272;stroke:#000000;stroke-width:0.5;stroke-miterlimit:10;}
	.st6{fill:#EB058C;stroke:#000000;stroke-width:0.5;stroke-linejoin:round;}
	.st7{fill:#E5E5E5;stroke:#000000;stroke-width:0.5;stroke-miterlimit:10;}
	.st8{fill:#0077BF;stroke:#000000;stroke-width:0.5;stroke-miterlimit:10;}
	.st9{fill:#1A1A1A;}
	.st10{fill:#C10072;stroke:#000000;stroke-width:0.5;stroke-miterlimit:10;}
	.st11{fill:none;stroke:#000000;stroke-width:0.5;stroke-miterlimit:10;}
	.st12{fill:#FFE600;stroke:#000000;stroke-width:0.5;stroke-miterlimit:10;}
	.st13{enable-background:new    ;}
</style>
<title>SE4</title>
<g>
	<g id="Layer_7">
		<path class="st0" d="M2.3,525.5c16.3,132.5,101.9,208,164,216.7c160,22.5,260.2-73.9,315.7-133.2
			c78.9-84.3,111.5-219.3,107.5-281.8C580.4,184.6,486.7,93.1,486.7,93.1c-168.1-174.5-344-44.7-344-44.7
			C-0.2,131.3,56.2,271.7,56.2,271.7s24,78.5,1.2,110.8S3.4,442.4,2.3,525.5z"/>
	</g>
	<ellipse class="st1" cx="261.1" cy="774.7" rx="161.6" ry="30.3"/>
	<path class="st2" d="M353.3,337.2c23.4,11.6,53.2-24.3,53.2-24.3s15.5-8.8,14.5-23.3c0,0-6.3,12.4-26.8-3.5
		c-10.2-8-15.3-20.7-23.1-31.1c0,0-14.5-18.2-36-23.7c0,0-16.7-6.5-36.5,4.6c0,0-18.3,9.7-18.9,29.8c0,0-3.4,25,20.8,44.6
		c4.9,3.8,9,8.6,12.1,13.9l36.6,10.5"/>
	<path class="st3" d="M298.7,490.5c0,0,41.9,212,46.7,256.1l14.6,6.9L354.2,480C354.2,480,315.7,438.9,298.7,490.5z"/>
	<path class="st3" d="M298.7,510.9c0,0-103.6,200.2-121.8,240.6H163l86.2-267.8C249.2,483.7,298.5,456.6,298.7,510.9z"/>
	<path class="st4" d="M345.4,746.6l-2.2,28.1h4.3l3.1-12.3l7.7,12.3h43.2c-16.7-3.5-34-14.3-41.8-29.4l-3.1-149.2l-30.2,35.2
		L345.4,746.6z"/>
	<path class="st4" d="M165,745.3c-7.8,15.1-26,26-42.6,29.4h43.2l7.7-12.3l3.1,12.3h4.3l-1.6-29.4l61.8-122l-25.1-36L165,745.3z"/>
	<path class="st5" d="M441.1,370.3c0,0-59.8,74.1-146.1,58.5c-86.9-15.7-121.7-84.5-121.7-84.5s14,3.7,26.4-15.9
		c9.9-15.7,27.1-24.6,58.2-24.6c1.1-0.2,2.2-0.5,3.2-1l54.9,53.5l46.1-43.8c0,0,25.8,4.3,38.9,20S414.2,370.3,441.1,370.3z"/>
	<path class="st6" d="M261.1,302.8c0,0-37.9-2-53.5,15.4c-13.5,15.2-17.5,26.4-34.2,26.2c0,0,8.1,7.8,20.9,3.3
		S216.7,302.4,261.1,302.8z"/>
	<path class="st6" d="M362.1,312.5c0,0,30.6-9.6,44.8,14.8s16.3,40.8,34.2,43.1c0,0-26.9,3.2-35.4-18S381.5,310.9,362.1,312.5z"/>
	<polygon class="st3" points="384.2,284 400.2,218.4 410.7,221.7 403.2,292.4 345,363.6 330.1,337.2 	"/>
	<polygon class="st3" points="246.7,279.7 246.8,212.2 235.9,212.9 226.4,283.4 265.2,368.6 286.7,344.2 	"/>
	<path class="st3" d="M276.4,322.3c0,0,22,2.4,25.6-7s-1.8-14.5-1.8-14.5l20.9-2.8c0,0-2.9,20.8,13,23.7c0,0,14.2,35.1,10.2,51.7
		c-6.5,27.7-33.9,43-45.7,45.5c-11.3,2.3-35.5-24.6-38.1-51.8C258.8,349.2,277.3,330.6,276.4,322.3z"/>
	<polygon class="st7" points="389,264.6 400.2,218.4 410.7,221.7 405.7,267.6 	"/>
	<polygon class="st7" points="246.8,259.7 246.8,212.2 235.9,212.9 229.8,258.6 	"/>
	<path class="st3" d="M246.8,212.2c0,0,9.8-13.6,5.8-13.1c-0.9,0.1-3,1.7-3.4,1.4c-1.4-1.4-1-4.9-3.1-10.4
		c-2.5-6.6-11.6-3.3-10.2,22.8L246.8,212.2z"/>
	<path class="st8" d="M342.5,430.3c5.5,12.7,42.3,68.6,42.3,68.6s-34,30.2-74.6,31.2s-84.8-31.6-84.8-31.6s37-63.2,36-69.6
		C261.3,428.9,295.8,450.3,342.5,430.3z"/>
	<path class="st3" d="M324.2,297.1c-5.4,4.4-12.3,8.3-19.1,6.8c-5-1.1-9-5-11.9-9.3c-2.3-3.4-4.1-7-5.4-10.9
		c-1.5-3.2-1.3-4.3-1.9-7.8c-0.5-5.1,0-10.2,1.5-15.1c2.5-7.9,5.2-14.7,11.9-19.6c3.9-2.6,8.3-4.4,12.9-5.4
		c3.3-1.1,6.8-1.7,10.2-1.8c2.9,0.1,5.8,0.8,8.5,2c7.6,3.1,13.9,8.9,17.5,16.3C357.7,271.9,338.7,285.3,324.2,297.1z"/>
	<path class="st9" d="M287,285.2l-4.2-7.4l1.5-16.3l12.1-20.3l14.6-9.1l18.1,1.2l13.8,6.8l12.6,22.2l-4.6,19.7l-8.1,11.1
		c0,0-12.5-22-9.6-49.9c0,0-18.6-5.7-26.5-5.6C306.5,237.5,274.9,254.3,287,285.2z"/>
	<path class="st3" d="M315.6,256.8c7.5-3.8,9.7-0.4,13.7,3"/>
	<path class="st3" d="M304,253.7c-2.4-2.7-6.1-2.2-9.6-1.5"/>
	<path class="st3" d="M310.6,268.9c-1.3-0.7-2.5-1.4-3.7-2.3c-0.3-0.2-0.5-0.4-0.7-0.7c-0.3-0.8-0.2-1.7,0.3-2.4l2.1-4"/>
	<path class="st3" d="M309.5,285c-1,0.2-1.9,0.5-2.9,0.9c-0.3,0.2-0.6,0.4-0.9,0.5c-1.3,0.4-2.6-0.6-3.2-1.9c-0.4-1.3-0.7-2.6-0.9-4
		c-0.5-1.1-0.8-2.1-1.1-3.3c-0.1-0.3-0.1-0.6,0.1-0.9c0.4-0.5,1.1-0.7,1.7-0.5c4.3,0.5,8.5,1.9,12.2,4.1c0.1,0.1,0.3,0.2,0.4,0.3
		c0.5,0.7-1.1,2.3-1.6,2.9C312.2,284,310.9,284.7,309.5,285z"/>
	<path class="st10" d="M302.9,287.3c1.2,0.7,2.6,0.9,4,0.5c1.3-0.4,2.6-1,3.7-1.8c0.9-0.6,1.7-1.2,2.6-1.8c0.7-0.5,1.3-1,1.8-1.7
		c0.5-0.6,0.7-1.4,0.7-2.2c-1.3,1.1-2.7,2.1-4.3,2.8c-2.1,1.1-4.4,1.5-6.7,1.2c-0.8-0.1-2-0.8-2.6,0S302,286.8,302.9,287.3z"/>
	<path class="st10" d="M299.8,274.8c2.8-0.8,5.7-0.6,8.4,0.5c2.6,1.2,5,2.7,7.3,4.5c0.1,0.1,0.3,0.3,0.3,0.4s-0.2,0.2-0.5,0.1
		c-2.7,0.2-5.2-1.2-7.8-2c-2.1-0.7-4.3-1-6.5-0.8C299.3,277.8,297.3,275.8,299.8,274.8z"/>
	<ellipse transform="matrix(0.3915 -0.9202 0.9202 0.3915 -44.7682 454.034)" class="st2" cx="320.9" cy="260.9" rx="2.5" ry="2"/>
	<path class="st11" d="M315.9,260.1c0,0,5-4.1,8.2,0c3.2,4.1,6,3.2,6,3.2"/>
	
		<ellipse transform="matrix(0.9999 -1.535829e-02 1.535829e-02 0.9999 -3.9171 4.6269)" class="st2" cx="299.3" cy="257.3" rx="2" ry="2.5"/>
	<path class="st11" d="M304,259.3c0,0-2-6.2-6.9-4.4c-4.9,1.8-6.8-0.5-6.8-0.5"/>
	<path class="st12" d="M291.2,249.8c0,0,9.9-3.6,19.5,1.8c9.1-3.4,15.7-1.2,22,5.5c0,0,0-9.3,0.4-15.6c-4.2-2.9-14.1-3.1-18.4-9.4
		c-4.2,4.1-9.7,4.8-15,5.4C299.7,237.5,290.6,243,291.2,249.8z"/>
	<path class="st4" d="M342.5,430.3c0,0-11.1-22.9-8.4-29.7s9.2-17.7,10.2-27.2s-20.1-25.9-43.9-10.9c0,0-25.8-20.8-40.7,5.9
		c0,0,4.6,21.1,6.8,29.9s-5.2,30.5-5.2,30.5S295.6,450.5,342.5,430.3z"/>
	<path class="st12" d="M266.6,398.3c0,0,0.5,2.1,5.6,2.1s23.4-2.1,27.5,6.7c0,0,6-9,21.1-6.2s13.4-0.3,13.4-0.3
		c1,2.6,1.2,5.5,0.4,8.3c0,0-27.1-0.6-34.9,7.4c-9.7-6.6-21.4-9.5-33.1-8.4C265.8,404.7,266.1,401.5,266.6,398.3z"/>
	<path class="st12" d="M273.7,355.3c-0.4,4.8,5.3,9.6,5.3,9.6c-0.4,4.8,4.2,6.7,4.2,6.7c0.2,2.8,3.5,4.9,5.4,5.8s4.6,11.5,4.6,11.5
		c2.1-1.3,5.1-6.9,5.1-6.9c0.1,1.8,4.7,7.8,4.7,7.8s2.9-10.4,6.6-12.2c2.2-1.1,4-2.9,5-5.2c4.7-1.9,5.2-7.2,5.2-7.2
		c4.7-1.4,4.8-9,4.8-9s-15.7-1.9-24.2,6.3C300.5,362.5,286.9,351.6,273.7,355.3z"/>
	<path class="st4" d="M302.7,339.4c-7.8-1.3-26,29.5-47.6,21.8s5.9-58.4,5.9-58.4c2.8,4,11.8,7.8,20.2,11.2c2.8,1.1,13.4,7,13.4,7
		c0.7,6-0.2,12.4,10.4,12.4c13.9,0,29-11.7,29-11.7s7.9-0.4,10.3-1.4c6.7-2.6,8.2-5.7,15.6-12.4c0,0,13.7,58.4-17.6,56.7
		C330.4,364,318.7,342.2,302.7,339.4z"/>
	<circle class="st12" cx="302.4" cy="336.6" r="4.1"/>
	<path class="st3" d="M400.2,218.4c0,0-6.3-15.5-2.5-14.1c0.8,0.3,2.5,2.4,3,2.1c1.7-1.1,2.1-4.6,5.4-9.3c4-5.8,12.1-0.4,4.5,24.6
		L400.2,218.4z"/>
	<path class="st8" d="M93.2,320.4l25.3-7.9c9.9-3.1,20.4,2.4,23.5,12.3l7.9,25.3c3.1,9.9-2.4,20.4-12.3,23.5l-25.3,7.9
		c-9.9,3.1-20.4-2.4-23.5-12.3l-7.9-25.3C77.8,334,83.3,323.5,93.2,320.4z"/>
	<path class="st3" d="M139.5,352l-8.6-4.5c-1.8-0.9-3.9-0.2-4.8,1.6l-2.3,4.3l-0.8-0.2c-6.8-1.1-13.1-4.4-17.9-9.4l-0.6-0.5l1.5-2.9
		l0.8-1.4c0.9-1.7,0.3-3.9-1.4-4.8l-8.6-4.5c-1.8-0.9-3.9-0.2-4.8,1.6l-1.3,2.4h0.1c-0.4,1-0.6,2.1-0.7,3.1c-0.1,1,0,2,0.2,2.9
		c1.4,7.4,6.7,13,18.3,19.1c16.1,8.4,25.7,4.4,26.1,4.2c0.9-0.4,1.7-0.9,2.5-1.5c0.8-0.7,1.6-1.5,2.2-2.3h0l1.3-2.4
		C141.9,355.1,141.2,352.9,139.5,352L139.5,352z"/>
	<g class="st13">
		<path d="M104.2,393.5l-4.2,1.3l3.4,11l-1.6,0.5l-3.4-11l-4.2,1.3l-0.4-1.4l10-3.1L104.2,393.5z"/>
	</g>
	<g class="st13">
		<path d="M110.7,403.8c-2.7,0.8-4.8-0.4-5.7-3.4c-0.9-2.9,0.2-5.4,2.7-6.2c3-0.9,4.8,1.1,5.6,3.7l0.1,0.2l-6.8,2.1l0,0.1
			c0.6,1.9,2,2.7,3.8,2.2c1.3-0.4,1.8-1.2,1.8-2.7l1.4-0.5C113.8,401.7,112.8,403.2,110.7,403.8z M108,395.5
			c-1.4,0.5-2.1,1.8-1.8,3.6l5.2-1.6C110.8,395.8,109.5,395,108,395.5z"/>
		<path d="M117.8,401.3l-1.5,0.5l-3.9-12.4l1.5-0.5L117.8,401.3z"/>
		<path d="M123.9,399.7c-2.7,0.8-4.8-0.4-5.7-3.4c-0.9-2.9,0.2-5.4,2.7-6.2c3-0.9,4.8,1.1,5.6,3.7l0.1,0.2l-6.8,2.1l0,0.1
			c0.6,1.9,2,2.7,3.8,2.2c1.3-0.4,1.8-1.2,1.8-2.7l1.4-0.5C127.1,397.5,126.1,399,123.9,399.7z M121.3,391.4
			c-1.4,0.5-2.1,1.8-1.8,3.6l5.2-1.6C124,391.6,122.7,390.9,121.3,391.4z"/>
		<path d="M133.4,396.7c-2.8,0.9-4.9-0.6-5.7-3.3c-0.9-3,0.2-5.4,2.8-6.2c2.2-0.7,3.9,0,4.8,2l-1.5,0.5c-0.7-1.2-1.7-1.6-2.9-1.2
			c-1.7,0.5-2.4,2.2-1.7,4.4c0.7,2.2,2.1,3.2,3.8,2.7c1.3-0.4,2-1.5,1.7-3.1l1.5-0.5C136.6,394.2,135.6,396,133.4,396.7z"/>
		<path d="M145.7,387.6c1,3.1-0.1,5.3-2.8,6.2c-2.8,0.9-5-0.4-5.9-3.4c-0.9-3,0.2-5.3,2.9-6.2C142.6,383.4,144.7,384.6,145.7,387.6z
			 M138.5,389.9c0.7,2.2,2.2,3.2,4,2.6c1.7-0.5,2.4-2.2,1.7-4.4c-0.7-2.1-2.2-3.2-3.9-2.6S137.8,387.7,138.5,389.9z"/>
		<path d="M147.8,383.5c0.4-1.3,1.1-2,2.5-2.5c1.2-0.4,2.2-0.2,3,0.8c0.4-1.3,1.2-2.1,2.5-2.5c1.9-0.6,3.2,0.2,3.8,2.1l2,6.3
			l-1.5,0.5l-1.8-5.7c-0.4-1.3-0.9-2.2-2.5-1.7c-1.7,0.5-1.9,1.9-1.4,3.5l1.6,5.1l-1.5,0.5l-1.8-5.8c-0.4-1.2-0.9-2.1-2.3-1.6
			c-2,0.6-2,2.2-1.5,3.9l1.5,4.8l-1.5,0.5l-2.8-9l1.4-0.4L147.8,383.5z"/>
	</g>
	<path class="st4" d="M468,240.1l6.5-25.7c2.5-10,12.7-16.1,22.8-13.6l25.7,6.5c10,2.5,16.1,12.7,13.6,22.8l-6.5,25.7
		c-2.5,10-12.7,16.1-22.8,13.6l-25.7-6.5C471.6,260.4,465.5,250.2,468,240.1z"/>
	<path class="st3" d="M524.5,226.9l-12.5-3.2l0.7-2.9c0.5-1.9-0.7-3.7-2.5-4.2l-7.3-1.9c-1.9-0.5-3.7,0.6-4.2,2.5c0,0,0,0,0,0
		l-0.7,2.9l-12.5-3.2c-1.1-0.3-2.3,0.4-2.6,1.5l-6.7,26.3c-0.3,1.1,0.4,2.3,1.5,2.6c0,0,0,0,0,0l39,9.9c1.1,0.3,2.3-0.3,2.6-1.4
		c0,0,0-0.1,0-0.1l6.7-26.3C526.3,228.3,525.6,227.1,524.5,226.9C524.5,226.8,524.5,226.8,524.5,226.9L524.5,226.9z M502.1,218.2
		l7.2,1.8l-0.7,2.8l-7.1-1.8L502.1,218.2z M498,249.5c-6.9-1.7-11-8.7-9.3-15.6c1.7-6.9,8.7-11,15.6-9.3c6.8,1.7,11,8.7,9.3,15.6
		C511.8,247.1,504.8,251.3,498,249.5C498,249.5,498,249.5,498,249.5z"/>
	<path class="st3" d="M508.1,235.8l-3.3-0.8l0.8-3.3c0.2-0.9-0.3-1.8-1.2-2l-2.6-0.7c-0.9-0.2-1.8,0.3-2,1.2l-0.8,3.3l-3.3-0.9
		c-0.9-0.2-1.8,0.3-2,1.2l-0.7,2.6c-0.2,0.9,0.3,1.8,1.2,2l3.3,0.9l-0.8,3.3c-0.2,0.9,0.3,1.8,1.2,2c0,0,0,0,0,0l2.6,0.6
		c0.9,0.2,1.8-0.3,2-1.2c0,0,0,0,0,0l0.8-3.3l3.3,0.8c0.9,0.2,1.8-0.3,2-1.2l0.7-2.6C509.6,236.9,509,236,508.1,235.8L508.1,235.8z"
		/>
	<g class="st13">
		<path d="M460,277.2l-1.7-0.4l1.5-5.9l-6.7-1.7l-1.5,5.9l-1.7-0.4l3.2-12.6l1.7,0.4l-1.3,5.3l6.7,1.7l1.3-5.3l1.7,0.4L460,277.2z"
			/>
		<path d="M466.3,279.1c-2.7-0.7-3.9-2.9-3.1-5.8c0.7-3,3-4.5,5.5-3.9c3,0.8,3.5,3.4,2.9,6.1l-0.1,0.2l-6.9-1.7l0,0.1
			c-0.5,1.9,0.3,3.4,2.1,3.8c1.3,0.3,2.2-0.1,3-1.3l1.5,0.4C470.1,278.9,468.4,279.7,466.3,279.1z M468.3,270.6
			c-1.5-0.4-2.8,0.4-3.4,2.1l5.3,1.3C470.5,272.3,469.8,271,468.3,270.6z"/>
		<path d="M480.2,282.3c-0.4,0-0.7,0-1.1-0.1c-0.9-0.2-1.2-0.8-1-1.7c-1.2,0.8-2.3,1-3.7,0.6c-1.8-0.5-2.7-1.7-2.3-3.3
			c0.4-1.6,1.7-2.3,4-2c2.2,0.3,3,0.5,3.3-0.7c0.2-1-0.3-1.7-1.7-2c-1.4-0.4-2.3,0-2.7,1.3l-1.5-0.4c0.5-1.9,2.3-2.7,4.6-2.1
			c1.2,0.3,2.2,0.9,2.6,1.6c0.5,0.8,0.2,1.7,0,2.5c-0.3,1.4-0.8,2.7-1.1,4.1c-0.2,0.7-0.1,0.9,0.4,1.1c0.1,0,0.2,0,0.4,0
			L480.2,282.3z M476.7,277c-1.1-0.1-2.7-0.4-3,1.1c-0.2,0.9,0.3,1.7,1.4,2c1.4,0.4,3-0.3,3.3-1.4l0.4-1.7
			C478.2,277.2,477.4,277,476.7,277z"/>
		<path d="M483.2,283l-1.5-0.4l3.2-12.6l1.5,0.4L483.2,283z"/>
		<path d="M491.4,276.7l-1.8-0.5l-1.3,5.3c-0.2,0.8-0.4,1.3,0.7,1.6c0.3,0.1,0.5,0.1,0.8,0.2l-0.3,1.3c-0.5-0.1-0.7-0.1-1.2-0.2
			c-2.3-0.6-1.9-1.7-1.4-3.7l1.2-4.9l-1.5-0.4l0.3-1.2l1.5,0.4l0.7-2.7l1.5,0.4l-0.7,2.7l1.8,0.5L491.4,276.7z"/>
		<path d="M494.6,277.6c0.9-0.8,2.1-1.1,3.4-0.8c2.2,0.5,2.8,2,2.3,3.9l-1.6,6.3l-1.5-0.4l1.5-5.9c0.3-1.3,0.2-2.3-1.5-2.7
			c-1.9-0.5-2.9,0.7-3.4,2.8l-1.2,4.6l-1.5-0.4l3.2-12.6l1.5,0.4L494.6,277.6z"/>
		<path d="M504.8,288.8c-2.8-0.7-3.9-3-3.2-5.8c0.8-3,3-4.5,5.6-3.9c2.2,0.6,3.3,2.1,3.1,4.2l-1.6-0.4c0.1-1.4-0.6-2.3-1.8-2.6
			c-1.7-0.4-3.2,0.7-3.7,2.9c-0.6,2.2,0.1,3.8,1.8,4.3c1.4,0.3,2.5-0.3,3.1-1.7l1.5,0.4C508.8,288.3,507,289.3,504.8,288.8z"/>
		<path d="M518.6,291.9c-0.4,0-0.7,0-1.1-0.1c-0.9-0.2-1.2-0.8-1-1.7c-1.2,0.8-2.3,1-3.7,0.6c-1.8-0.5-2.7-1.7-2.3-3.3
			c0.4-1.6,1.7-2.3,4-2c2.2,0.3,3,0.5,3.3-0.7c0.2-1-0.3-1.7-1.7-2c-1.4-0.4-2.3,0-2.7,1.3l-1.5-0.4c0.5-1.9,2.3-2.7,4.6-2.1
			c1.2,0.3,2.2,0.9,2.6,1.6c0.5,0.8,0.2,1.7,0,2.5c-0.3,1.4-0.8,2.7-1.1,4.1c-0.2,0.7-0.1,0.9,0.4,1.1c0.1,0,0.2,0,0.4,0
			L518.6,291.9z M515.2,286.6c-1.1-0.1-2.7-0.4-3,1.1c-0.2,0.9,0.3,1.7,1.4,2c1.4,0.4,3-0.3,3.3-1.4l0.4-1.7
			C516.7,286.9,515.9,286.7,515.2,286.6z"/>
	</g>
	<g class="st13">
		<path d="M526.7,285.7c-0.2-0.1-0.2-0.1-0.4-0.1c-2.5-0.6-3.4,1.2-3.9,3.2l-1,3.9l-1.5-0.4l2.3-9.1l1.4,0.4l-0.5,2
			c1-1.4,2.3-1.7,3.9-1.3L526.7,285.7z"/>
	</g>
	<g class="st13">
		<path d="M529.3,295c-2.7-0.7-3.9-2.9-3.1-5.8c0.7-3,3-4.5,5.5-3.9c3,0.8,3.5,3.4,2.9,6.1l-0.1,0.2l-6.9-1.7l0,0.1
			c-0.5,1.9,0.3,3.4,2.1,3.8c1.3,0.3,2.2-0.1,3-1.3l1.5,0.4C533.1,294.8,531.5,295.5,529.3,295z M531.4,286.5
			c-1.5-0.4-2.8,0.4-3.4,2.1l5.3,1.3C533.6,288.1,532.9,286.9,531.4,286.5z"/>
	</g>
	<path class="st4" d="M129.7,208.4l25.7-6.3c10.1-2.5,20.2,3.7,22.7,13.7l6.3,25.7c2.5,10.1-3.7,20.2-13.7,22.7l-25.7,6.3
		c-10.1,2.5-20.2-3.7-22.7-13.7l-6.3-25.7C113.5,221,119.6,210.8,129.7,208.4z"/>
	<path class="st3" d="M152.2,237.9l1.4,6.2c1.9-0.6,3.6-1.9,3.1-4S154,237.9,152.2,237.9L152.2,237.9z"/>
	<path class="st3" d="M145.1,231.8c0.4,1.6,1.7,2.2,4.2,2.1l-1.3-5.6C145.9,228.9,144.8,230.5,145.1,231.8L145.1,231.8z"/>
	<path class="st3" d="M146.3,217.5c-10.4,2.4-16.9,12.9-14.5,23.3c2.4,10.4,12.9,16.9,23.3,14.5c10.4-2.4,16.9-12.9,14.5-23.3
		C167.2,221.5,156.8,215.1,146.3,217.5z M154.3,247.3l0.5,1.9c0.3,0.5,0.1,1.1-0.4,1.4c-0.5,0.3-1.1,0.1-1.4-0.4
		c-0.1-0.2-0.1-0.4-0.1-0.5l-0.5-1.9c-5.3,1.1-8.7-1.4-9.2-3.9c-0.3-1,0.2-2,1.1-2.3c0.1,0,0.2-0.1,0.3-0.1c3.5-0.8,1.8,4.1,7,3.1
		l-1.5-6.5c-4.8,0.2-8.1-1.1-8.9-4.6c-1-4.2,2-7.3,5.9-8.3l-0.4-1.7c-0.3-0.5-0.1-1.1,0.4-1.4c0.5-0.3,1.1-0.1,1.4,0.4
		c0.1,0.2,0.1,0.4,0.1,0.5l0.4,1.7c2.5-0.5,7.8-0.1,8.5,2.9c0.3,1-0.3,2.1-1.4,2.4c0,0-0.1,0-0.1,0c-2,0.5-2.8-2.9-6.3-2.1l1.4,5.9
		c4.3-0.1,8.3,0.3,9.4,5.1C161.6,243.1,158.9,245.9,154.3,247.3L154.3,247.3z"/>
	<g class="st13">
		<path d="M138.2,279.4l-6.6,1.6l1,3.9l5.9-1.4l0.3,1.4l-5.9,1.4l1.4,5.8l-1.7,0.4l-3.1-12.6l8.3-2L138.2,279.4z"/>
		<path d="M141.5,279l-1.5,0.4l-0.5-1.8l1.5-0.4L141.5,279z M144.1,289.8l-1.5,0.4l-2.2-9.2l1.5-0.4L144.1,289.8z"/>
		<path d="M146,281.1c0.5-1.3,1.3-2.1,2.7-2.4c2.2-0.5,3.4,0.5,3.9,2.6l1.5,6.1l-1.5,0.4l-1.3-5.4c-0.4-1.5-0.7-2.7-2.6-2.2
			c-2,0.5-2.2,2.1-1.8,3.9l1.2,4.8l-1.5,0.4l-2.2-9.2l1.4-0.3L146,281.1z"/>
	</g>
	<g class="st13">
		<path d="M162.6,273.4l-4.2,1l2.7,11.2l-1.7,0.4l-2.7-11.2l-4.2,1l-0.4-1.5l10.2-2.5L162.6,273.4z"/>
	</g>
	<g class="st13">
		<path d="M168.5,284.1c-2.7,0.7-4.8-0.7-5.5-3.7c-0.7-3,0.5-5.4,3-6c3-0.7,4.7,1.4,5.4,4l0.1,0.2l-6.9,1.7l0,0.1
			c0.5,2,1.8,2.9,3.6,2.4c1.3-0.3,1.9-1.1,2-2.6l1.5-0.4C171.7,282.2,170.6,283.6,168.5,284.1z M166.3,275.7c-1.5,0.4-2.2,1.7-2,3.4
			l5.3-1.3C169,276.1,167.8,275.3,166.3,275.7z"/>
		<path d="M178,281.7c-2.8,0.7-4.8-0.9-5.5-3.7c-0.8-3.1,0.5-5.4,3.2-6.1c2.2-0.5,3.9,0.3,4.7,2.3l-1.6,0.4
			c-0.6-1.2-1.6-1.7-2.8-1.4c-1.7,0.4-2.5,2.1-2,4.3c0.5,2.2,1.9,3.3,3.6,2.9c1.4-0.3,2.1-1.4,1.9-3l1.5-0.4
			C181.4,279.4,180.3,281.2,178,281.7z"/>
		<path d="M183.2,271.9c0.4-1.2,1.3-1.9,2.6-2.3c2.2-0.5,3.4,0.4,3.9,2.4l1.5,6.3l-1.5,0.4l-1.5-5.9c-0.3-1.3-0.9-2.1-2.5-1.7
			c-1.9,0.5-2.2,2-1.7,4.1l1.1,4.7l-1.5,0.4l-3.1-12.6l1.5-0.4L183.2,271.9z"/>
	</g>
	<path class="st4" d="M289.8,157l0.3-26.5c0.1-10.4,8.6-18.7,19-18.6l26.5,0.3c10.4,0.1,18.7,8.6,18.6,19l-0.3,26.5
		c-0.1,10.4-8.6,18.7-19,18.6l-26.5-0.3C298,175.9,289.7,167.4,289.8,157z"/>
	<path class="st3" d="M342.2,142.4c-0.6-0.3-1.3-0.3-1.9,0.1l-10,6.7V144c0-1-0.8-1.9-1.9-1.9c-0.4,0-0.7,0.1-1,0.3l-10.3,6.9V135
		c0-0.4-0.3-0.7-0.7-0.7h-12c-0.4,0-0.7,0.3-0.7,0.7v29c0,0.4,0.3,0.7,0.7,0.7l0,0h38.1c0.4,0,0.7-0.3,0.7-0.7c0,0,0,0,0,0v-20
		C343.2,143.3,342.8,142.7,342.2,142.4L342.2,142.4z M325.9,156.1c0,0.3-0.2,0.5-0.5,0.5c0,0,0,0,0,0h-3.4c-0.3,0-0.5-0.2-0.5-0.5
		v-3.4c0-0.3,0.2-0.5,0.5-0.5h3.4c0.3,0,0.5,0.2,0.5,0.5c0,0,0,0,0,0V156.1z M338.6,156.1c0,0.3-0.2,0.5-0.5,0.5h-3.4
		c-0.3,0-0.5-0.2-0.5-0.5v-3.4c0-0.3,0.2-0.5,0.5-0.5h3.4c0.3,0,0.5,0.2,0.5,0.5L338.6,156.1z"/>
	<path class="st3" d="M304.4,131.5h12c0.4,0,0.7-0.2,0.7-0.6c0,0,0,0,0,0v-5.5c0-1-0.8-1.8-1.8-1.9c0,0,0,0,0,0h-9.7
		c-1,0-1.9,0.8-1.9,1.8c0,0,0,0,0,0v5.5C303.7,131.3,304,131.5,304.4,131.5C304.4,131.5,304.4,131.5,304.4,131.5L304.4,131.5z"/>
	<g class="st13">
		<path d="M271.2,182.6l4.1,11.1l4.1-11l2.4,0l-0.1,13l-1.6,0l0.1-10.9l-4.2,10.8l-1.5,0l-4-10.9l-0.1,10.9l-1.6,0l0.1-13
			L271.2,182.6z"/>
		<path d="M292.6,195.8c-0.3,0.1-0.7,0.2-1.1,0.2c-0.9,0-1.3-0.5-1.4-1.4c-0.9,1-2,1.5-3.4,1.5c-1.9,0-3-1.1-3-2.7
			c0-1.7,1.1-2.7,3.4-2.9c2.3-0.3,3-0.2,3-1.5c0-1-0.7-1.6-2.1-1.6c-1.4,0-2.2,0.5-2.4,1.9l-1.5,0c0.1-2,1.5-3.2,4-3.2
			c1.3,0,2.3,0.4,3,0.9c0.7,0.6,0.6,1.6,0.6,2.5c0,1.4-0.1,2.8-0.1,4.2c0,0.7,0.2,0.9,0.6,0.9c0.1,0,0.2,0,0.4-0.1L292.6,195.8z
			 M288.1,191.4c-1.1,0.1-2.7,0.2-2.7,1.8c0,1,0.7,1.6,1.9,1.6c1.5,0,2.9-1,2.9-2.2l0-1.7C289.6,191.3,288.8,191.3,288.1,191.4z"/>
		<path d="M295.6,187.9c0.8-1.1,1.8-1.7,3.2-1.7c2.3,0,3.1,1.3,3.1,3.4l-0.1,6.3l-1.6,0l0.1-5.6c0-1.5,0-2.8-2-2.8
			c-2,0-2.7,1.5-2.7,3.4l0,4.9l-1.6,0l0.1-9.4l1.5,0L295.6,187.9z"/>
		<path d="M312.1,196l-1.4,0l0-1.5c-0.8,1.2-1.9,1.7-3.3,1.7c-2,0-3.1-1.1-3.1-3.2l0.1-6.5l1.6,0l-0.1,6.1c0,1.4,0.4,2.3,2,2.3
			c2,0,2.8-1.4,2.8-3.4l0-4.9l1.6,0L312.1,196z"/>
		<path d="M318.8,184.4c-0.2,0-0.5-0.1-0.9-0.1c-1,0-1.2,0.2-1.2,1.2l0,1.1l1.8,0l0,1.3l-1.8,0l-0.1,8.2l-1.6,0l0.1-8.2l-1.6,0
			l0-1.3l1.6,0l0-1.3c0-1.8,1-2.4,2.6-2.4c0.4,0,0.5,0,1,0.1L318.8,184.4z"/>
		<path d="M328.2,196.1c-0.3,0.1-0.7,0.2-1.1,0.2c-0.9,0-1.3-0.5-1.4-1.4c-0.9,1-2,1.5-3.4,1.5c-1.9,0-3-1.1-3-2.7
			c0-1.7,1.1-2.7,3.4-2.9c2.3-0.3,3-0.2,3-1.5c0-1-0.7-1.6-2.1-1.6c-1.4,0-2.2,0.5-2.4,1.9l-1.5,0c0.1-2,1.5-3.2,4-3.2
			c1.3,0,2.3,0.4,3,0.9c0.7,0.6,0.6,1.6,0.6,2.5c0,1.4-0.1,2.8-0.1,4.2c0,0.7,0.2,0.9,0.6,0.9c0.1,0,0.2,0,0.4-0.1L328.2,196.1z
			 M323.6,191.8c-1.1,0.1-2.7,0.2-2.7,1.8c0,1,0.7,1.6,1.9,1.6c1.5,0,2.9-1,2.9-2.2l0-1.7C325.1,191.7,324.3,191.7,323.6,191.8z"/>
		<path d="M333.6,196.5c-2.9,0-4.5-2-4.4-4.9c0-3.1,1.8-5.1,4.6-5.1c2.3,0,3.7,1.2,4,3.4l-1.6,0c-0.3-1.3-1.1-2.1-2.4-2.1
			c-1.8,0-2.9,1.4-3,3.7c0,2.3,1,3.7,2.8,3.7c1.4,0,2.3-0.8,2.6-2.4l1.6,0C337.5,195.1,336,196.5,333.6,196.5z"/>
		<path d="M343.6,188.2l-1.9,0l-0.1,5.5c0,0.9-0.1,1.4,1,1.4c0.3,0,0.5,0,0.8,0l0,1.3c-0.5,0-0.7,0.1-1.2,0.1
			c-2.4,0-2.2-1.2-2.2-3.3l0.1-5l-1.6,0l0-1.3l1.6,0l0-2.8l1.6,0l0,2.8l1.9,0L343.6,188.2z"/>
		<path d="M353,196.4l-1.4,0l0-1.5c-0.8,1.2-1.9,1.7-3.3,1.7c-2,0-3.1-1.1-3.1-3.2l0.1-6.5l1.6,0l-0.1,6.1c0,1.4,0.4,2.3,2,2.3
			c2,0,2.8-1.4,2.8-3.4l0-4.9l1.6,0L353,196.4z"/>
		<path d="M360.4,188.4c-0.2,0-0.2,0-0.4,0c-2.6,0-3,1.9-3.1,4l0,4l-1.6,0l0.1-9.4l1.5,0l0,2c0.7-1.6,1.8-2.2,3.5-2.2L360.4,188.4z"
			/>
		<path d="M363.1,196.5l-1.6,0l0.1-9.4l1.6,0L363.1,196.5z M363.2,185.4l-1.6,0l0-1.9l1.6,0L363.2,185.4z"/>
		<path d="M367.1,188.6c0.8-1.1,1.8-1.7,3.2-1.7c2.3,0,3.1,1.3,3.1,3.4l-0.1,6.3l-1.6,0l0.1-5.6c0-1.5,0-2.8-2-2.8
			c-2,0-2.7,1.5-2.7,3.4l0,4.9l-1.6,0l0.1-9.4l1.5,0L367.1,188.6z"/>
		<path d="M383.9,195.7c0,1.6-0.2,2.4-0.6,3.1c-0.7,1.1-2,1.7-3.7,1.7c-1.9,0-3.7-0.7-3.9-2.8l1.6,0c0.2,1.1,1,1.6,2.4,1.6
			c1.9,0,2.8-0.9,2.8-3.1l0-1.2c-0.6,1.2-1.6,1.7-3,1.7c-2.5,0-4.1-1.9-4.1-4.8c0-2.6,1.5-5,4.3-5c1.3,0,2.4,0.6,3,1.7l0-1.4l1.4,0
			L383.9,195.7z M376.9,192c0,2.1,1.1,3.4,2.7,3.5c1.7,0,2.8-1.4,2.8-3.7c0-2.1-1-3.4-2.8-3.4C377.9,188.3,376.9,189.7,376.9,192z"
			/>
	</g>
	<path class="st8" d="M477.4,346.7l10-24.6c3.9-9.6,14.9-14.2,24.5-10.3l24.6,10c9.6,3.9,14.2,14.9,10.3,24.5l-10,24.6
		c-3.9,9.6-14.9,14.2-24.5,10.3l-24.6-10C478.1,367.3,473.5,356.3,477.4,346.7z"/>
	<path class="st3" d="M535.2,356.1c-1-1.5-2.5-2.6-4.2-3.3c-3-1.2-6-1-7.2,0.4l-0.2-0.1c0.1-1.9-1.9-4.2-4.9-5.4
		c-1.7-0.7-3.5-1-5.3-0.6l-5.7,14c-1.4,3.5-5.4,5.2-8.9,3.7c-3.5-1.4-5.2-5.4-3.8-8.9c0.3-0.8,1.2-1.1,2-0.8c0.8,0.3,1.1,1.2,0.8,2
		c-0.8,2,0.1,4.2,2.1,5c2,0.8,4.2-0.1,5-2.1l5.7-14c-1-1.5-2.5-2.7-4.2-3.3c-3-1.2-6-1-7.2,0.4l-0.2-0.1c0.1-1.9-1.9-4.2-4.9-5.4
		c-1.7-0.7-3.5-1-5.3-0.6c5-9.6,17.6-13.7,29.5-9.5l0.4-1c0.3-0.8,1.1-1.2,1.9-1s1.2,1.1,1,1.9c0,0.1,0,0.1-0.1,0.2l-0.4,1
		C532.3,334,538.4,345.8,535.2,356.1L535.2,356.1z"/>
	<g class="st13">
		<path d="M458.7,377.2l-1.6-0.6l4.9-12.1l1.6,0.6L458.7,377.2z"/>
		<path d="M465.6,371.4c1.2-0.8,2.3-0.9,3.6-0.4c2.1,0.9,2.4,2.4,1.6,4.4l-2.4,5.8l-1.4-0.6l2.1-5.1c0.6-1.4,1-2.6-0.8-3.3
			c-1.9-0.8-3.1,0.4-3.8,2.1l-1.9,4.6l-1.4-0.6l3.6-8.7l1.4,0.6L465.6,371.4z"/>
		<path d="M478.2,377.9c0.4-1.2-0.2-2-1.5-2.5c-1.1-0.4-2-0.3-2.3,0.5c-0.4,1,0.7,1.6,1.7,2.3c1.3,0.9,3.1,2.1,2.3,4
			c-0.7,1.7-2.6,2.2-4.8,1.3c-2.4-1-3.2-2.6-2.5-4.6l1.4,0.6c-0.5,1.4,0.2,2.2,1.6,2.8c1.3,0.5,2.4,0.3,2.7-0.6
			c0.4-1-0.5-1.6-1.6-2.4c-1.4-1-3.3-2-2.5-4c0.6-1.6,2.4-2,4.4-1.2c2,0.8,3.1,2.4,2.3,4.2L478.2,377.9z"/>
		<path d="M486.3,388.5l-1.3-0.5l0.6-1.4c-1.2,0.8-2.4,0.9-3.7,0.4c-1.8-0.7-2.5-2.2-1.7-4.1l2.4-6l1.4,0.6l-2.3,5.6
			c-0.5,1.3-0.5,2.2,1,2.8c1.9,0.8,3.1-0.3,3.8-2.1l1.9-4.6l1.4,0.6L486.3,388.5z"/>
		<path d="M496.1,383.8c-0.1-0.1-0.2-0.1-0.4-0.2c-2.4-1-3.5,0.7-4.3,2.6l-1.5,3.7l-1.4-0.6l3.6-8.7l1.4,0.6l-0.8,1.9
			c1.2-1.2,2.5-1.4,4.1-0.8L496.1,383.8z"/>
		<path d="M501.9,394.8c-0.4,0-0.7-0.1-1.1-0.2c-0.8-0.3-1.1-1-0.7-1.8c-1.3,0.6-2.4,0.7-3.7,0.1c-1.7-0.7-2.4-2.1-1.8-3.6
			c0.6-1.6,2-2.1,4.2-1.5c2.2,0.6,2.9,0.9,3.4-0.2c0.4-0.9-0.1-1.7-1.4-2.2c-1.3-0.5-2.2-0.3-2.9,0.9l-1.4-0.6
			c0.8-1.8,2.6-2.4,4.9-1.5c1.2,0.5,2,1.2,2.4,2c0.4,0.8,0,1.7-0.3,2.5c-0.5,1.3-1.1,2.6-1.7,3.9c-0.3,0.6-0.2,0.9,0.2,1.1
			c0.1,0.1,0.2,0.1,0.4,0.1L501.9,394.8z M499.3,389c-1.1-0.3-2.6-0.8-3.1,0.7c-0.4,0.9,0.1,1.7,1.2,2.2c1.4,0.6,3,0.2,3.5-1
			l0.6-1.6C500.7,389.5,499.9,389.2,499.3,389z"/>
		<path d="M507.6,388.5c1.2-0.8,2.3-0.9,3.6-0.4c2.1,0.9,2.4,2.4,1.6,4.4l-2.4,5.8l-1.4-0.6l2.1-5.1c0.6-1.4,1-2.6-0.8-3.3
			c-1.9-0.8-3.1,0.4-3.8,2.1l-1.9,4.6l-1.4-0.6l3.6-8.7l1.4,0.6L507.6,388.5z"/>
		<path d="M516.2,400.9c-2.7-1.1-3.4-3.5-2.3-6.2c1.2-2.9,3.6-4.1,6.1-3c2.1,0.9,3,2.5,2.4,4.6l-1.5-0.6c0.2-1.3-0.2-2.3-1.4-2.8
			c-1.7-0.7-3.2,0.2-4.1,2.3c-0.9,2.1-0.4,3.8,1.2,4.5c1.3,0.5,2.5,0.1,3.3-1.3l1.5,0.6C520.4,401,518.4,401.8,516.2,400.9z"/>
		<path d="M525.3,404.7c-2.6-1-3.4-3.4-2.3-6.2c1.2-2.8,3.6-4.1,6-3.1c2.9,1.2,3,3.9,2,6.4l-0.1,0.2l-6.6-2.7l-0.1,0.1
			c-0.8,1.9-0.2,3.4,1.5,4.1c1.3,0.5,2.2,0.2,3.1-0.9l1.4,0.6C529.1,405,527.3,405.5,525.3,404.7z M528.5,396.5
			c-1.4-0.6-2.8,0-3.7,1.6l5.1,2.1C530.4,398.5,529.9,397.1,528.5,396.5z"/>
	</g>
	<path class="st8" d="M417.2,129.5l8.1-25.3c3.2-9.9,13.7-15.3,23.6-12.2l25.3,8.1c9.9,3.2,15.3,13.7,12.2,23.6l-8.1,25.3
		c-3.2,9.9-13.7,15.3-23.6,12.2l-25.3-8.1C419.5,149.9,414.1,139.4,417.2,129.5z"/>
	<path class="st3" d="M474.2,131.7l-2.5-6.2l-2.3-12.9c-0.2-1.2-1.1-2.2-2.2-2.5l-18-5.8c-1.2-0.4-2.4-0.1-3.3,0.8l-9.4,9.1
		l-5.7,3.6c-0.9,0.8-1.6,1.8-2,2.9l-4.6,14.2c-0.4,1.3,0.3,2.7,1.6,3.2c0,0,0,0,0,0l3.5,1.1c1.3,0.4,2.7-0.3,3.2-1.6c0,0,0,0,0,0
		l1.5-4.5l28.7,9.2l-1.5,4.5c-0.4,1.3,0.3,2.7,1.6,3.1l3.5,1.1c1.3,0.4,2.7-0.3,3.1-1.6c0,0,0,0,0,0l4.6-14.2
		C474.5,134,474.5,132.8,474.2,131.7L474.2,131.7z M441.5,112.8l5.4-5.6c0.7-0.7,1.8-1,2.8-0.7l15.8,5.1c1,0.3,1.7,1.2,1.9,2.2
		l1.1,7.7c0,0.3-0.1,0.6-0.3,0.8c-0.2,0.2-0.6,0.3-0.8,0.2l-11.2-3.6l7.6-3.7c0.2-0.1,0.3-0.4,0.2-0.6c-0.1-0.2-0.4-0.3-0.6-0.2
		l-8.5,4.1l0,0l-12.9-4.1c-0.5-0.1-0.7-0.6-0.6-1.1C441.3,113.1,441.4,112.9,441.5,112.8L441.5,112.8z M437.8,128.1l-5.2-1.7
		c-0.9-0.3-1.5-1.3-1.2-2.3c0.3-0.9,1.2-2.9,2.1-2.5c1.4,0.6,4.1,2.3,5.4,3c0.9,0.3,1.4,1.3,1.2,2.2
		C439.8,127.9,438.8,128.4,437.8,128.1C437.8,128.1,437.8,128.1,437.8,128.1L437.8,128.1z M456.4,133.4c-0.2,0.3-0.6,0.5-1,0.3
		l-10.6-3.4c-0.4-0.1-0.6-0.5-0.6-0.9c0-1.2,0-2.4,0.2-3.6c0.2-0.6,0.8-0.9,1.4-0.7c0,0,0,0,0,0l11.9,3.8c0.6,0.2,0.9,0.8,0.7,1.4
		C457.8,131.4,457.2,132.4,456.4,133.4L456.4,133.4z M467.6,137.7l-5.2-1.7c-0.9-0.3-1.5-1.3-1.2-2.3c0.3-0.9,1.3-1.4,2.3-1.1
		c1.5,0.2,4.6,0.4,6.2,0.7c1,0.2,0.5,2.3,0.2,3.2C469.6,137.5,468.6,138,467.6,137.7L467.6,137.7z"/>
	<g class="st13">
		<path d="M407.3,163.4l-1.8-0.5l-0.2-4.2l-5.2-1.6l-2.6,3.4l-1.8-0.5l8.6-11l1.9,0.6L407.3,163.4z M404.7,150.8l-3.9,5.1l4.3,1.3
			L404.7,150.8z"/>
		<path d="M415.8,165.9l-1.4-0.4l0.4-1.4c-1.1,0.9-2.3,1.1-3.6,0.7c-1.9-0.6-2.7-2-2.1-4l1.8-6.2l1.5,0.4l-1.7,5.8
			c-0.4,1.3-0.3,2.3,1.2,2.7c2,0.6,3.1-0.6,3.6-2.5l1.4-4.7l1.5,0.4L415.8,165.9z"/>
		<path d="M424.2,159.9l-1.8-0.5l-1.6,5.3c-0.2,0.8-0.4,1.3,0.6,1.6c0.3,0.1,0.5,0.1,0.8,0.2l-0.4,1.3c-0.5-0.1-0.7-0.1-1.2-0.3
			c-2.3-0.7-1.8-1.8-1.2-3.7l1.4-4.8l-1.5-0.5l0.4-1.2l1.5,0.5l0.8-2.7l1.5,0.4l-0.8,2.7l1.8,0.5L424.2,159.9z"/>
		<path d="M433.2,166.1c-0.9,3.1-3,4.4-5.8,3.6c-2.8-0.8-3.9-3.1-3-6.1s3.1-4.3,5.9-3.5S434.1,163.1,433.2,166.1z M426,164
			c-0.7,2.2,0,3.9,1.8,4.4c1.8,0.5,3.2-0.5,3.9-2.7c0.6-2.2,0-3.8-1.8-4.4C428.1,160.8,426.6,161.9,426,164z"/>
		<path d="M437.3,163.9c1.1-0.8,2.1-1.1,3.4-0.7c1.2,0.4,1.9,1.1,2,2.3c1.1-0.8,2.1-1.1,3.5-0.7c1.9,0.6,2.5,2,2,3.8l-1.9,6.3
			l-1.5-0.4l1.7-5.7c0.4-1.3,0.5-2.3-1.1-2.8c-1.7-0.5-2.7,0.5-3.2,2.1l-1.5,5.1l-1.5-0.4l1.7-5.8c0.4-1.2,0.4-2.2-1-2.6
			c-2-0.6-2.9,0.7-3.4,2.4l-1.4,4.8l-1.5-0.4l2.7-9l1.4,0.4L437.3,163.9z"/>
		<path d="M458.2,173.5c-0.9,3.1-3,4.4-5.8,3.6c-2.8-0.8-3.9-3.1-3-6.1s3.1-4.3,5.9-3.5S459.1,170.5,458.2,173.5z M451,171.4
			c-0.7,2.2,0,3.9,1.8,4.4c1.8,0.5,3.2-0.5,3.9-2.7c0.6-2.2,0-3.8-1.8-4.4C453.1,168.2,451.6,169.3,451,171.4z"/>
		<path d="M464.8,172l-1.8-0.5l-1.6,5.3c-0.2,0.8-0.4,1.3,0.6,1.6c0.3,0.1,0.5,0.1,0.8,0.2l-0.4,1.3c-0.5-0.1-0.7-0.1-1.2-0.3
			c-2.3-0.7-1.8-1.8-1.2-3.7l1.4-4.8l-1.5-0.5l0.4-1.2l1.5,0.5l0.8-2.7l1.5,0.4l-0.8,2.7l1.8,0.5L464.8,172z"/>
		<path d="M465.7,180.7l-1.5-0.4l2.7-9l1.5,0.4L465.7,180.7z M468.9,170.1l-1.5-0.4l0.5-1.8l1.5,0.4L468.9,170.1z"/>
		<path d="M471.5,172.6l0.3,8.3l4.7-6.8l1.6,0.5l-6,8.1l-1.6-0.5l-0.7-10L471.5,172.6z"/>
		<path d="M480.5,185.5c-2.7-0.8-3.7-3-2.9-6c0.9-2.9,3.2-4.4,5.7-3.7c3,0.9,3.4,3.6,2.6,6.2l-0.1,0.2l-6.8-2l0,0.1
			c-0.6,1.9,0.2,3.4,1.9,3.9c1.3,0.4,2.2,0,3-1.2l1.5,0.4C484.3,185.4,482.6,186.1,480.5,185.5z M482.9,177.1
			c-1.5-0.4-2.8,0.3-3.5,2l5.3,1.6C485,178.8,484.4,177.5,482.9,177.1z"/>
	</g>
	<path class="st8" d="M168.8,96.3l25.7-6.5c10-2.5,20.2,3.6,22.8,13.6l6.5,25.7c2.5,10-3.6,20.2-13.6,22.8l-25.7,6.5
		c-10,2.5-20.2-3.6-22.8-13.6l-6.5-25.7C152.7,109,158.8,98.8,168.8,96.3z"/>
	<path class="st3" d="M215.3,135.4l-7.6-13.3c-0.2-0.4-0.7-0.6-1.2-0.5l-1.8,0.4l1.8,7.3c0.4,1.7-0.6,3.4-2.3,3.9l-23.2,5.7
		c-1.7,0.4-3.4-0.6-3.8-2.3l0,0l0,0l-1.8-7.4l-1.8,0.4c-0.5,0.1-0.8,0.5-0.8,1l-0.6,15.4c0,0.6,0.4,1.1,1,1.1c0.1,0,0.2,0,0.3,0
		l41.1-10.1c0.3-0.1,0.6-0.3,0.7-0.6C215.5,136,215.4,135.7,215.3,135.4L215.3,135.4z"/>
	<path class="st3" d="M173.7,121.7l11.4-15.9l17.5,8.8c0.3,0.2,0.7,0.2,1.1,0.1c0.4-0.1,0.8-0.4,1-0.8c0.4-0.8,0.1-1.7-0.7-2.1
		l-18.7-9.4c-0.7-0.4-1.5-0.1-2,0.5l-12.1,17c-0.5,0.7-0.4,1.7,0.4,2.2C172.2,122.6,173.2,122.4,173.7,121.7L173.7,121.7z"/>
	<path class="st3" d="M184.9,107.9l-9.2,12.9c-0.2,0.3-0.2,0.6-0.2,0.9l3.6,14.5c0.1,0.6,0.7,0.9,1.3,0.8l23.2-5.7
		c0.6-0.1,0.9-0.7,0.8-1.3l-3.6-14.5c-0.1-0.3-0.3-0.6-0.5-0.7l-14.1-7.2C185.8,107.3,185.2,107.4,184.9,107.9L184.9,107.9z
		 M189.9,129.7c0.1,0.6-0.2,1.1-0.8,1.3l-3.6,0.9c-0.6,0.1-1.1-0.2-1.3-0.8c0,0,0,0,0,0l-0.9-3.6c-0.1-0.6,0.2-1.1,0.8-1.3
		c0,0,0,0,0,0l3.6-0.9c0.6-0.1,1.1,0.2,1.3,0.8L189.9,129.7z M188,122c0.1,0.6-0.2,1.1-0.8,1.3l-3.6,0.9c-0.6,0.1-1.1-0.2-1.3-0.8
		c0,0,0,0,0,0l-0.9-3.6c-0.1-0.6,0.2-1.1,0.8-1.3l3.6-0.9c0.6-0.1,1.1,0.2,1.3,0.8L188,122z M189.2,117.9c-0.1-0.6,0.2-1.1,0.8-1.3
		l3.6-0.9c0.6-0.1,1.1,0.2,1.3,0.8c0,0,0,0,0,0l0.9,3.6c0.1,0.6-0.2,1.1-0.8,1.3l-3.6,0.9c-0.6,0.1-1.1-0.2-1.3-0.8L189.2,117.9z
		 M191.1,125.6c-0.1-0.6,0.2-1.1,0.8-1.3l3.6-0.9c0.6-0.1,1.1,0.2,1.3,0.8l0.9,3.6c0.1,0.6-0.2,1.1-0.8,1.3l-3.6,0.9
		c-0.6,0.1-1.1-0.2-1.3-0.8c0,0,0,0,0,0L191.1,125.6z"/>
	<g class="st13">
		<path d="M161.1,180.5c-3.6,0.9-6.5-1.1-7.5-5.1c-0.9-3.6,0.4-7.1,4.3-8.1c2.5-0.6,5.3,0.1,6.3,2.8l-1.7,0.4
			c-0.8-1.6-2.4-2.2-4.3-1.7c-3,0.8-3.6,3.6-3,6.2c0.8,3.2,2.9,4.8,5.5,4.1c2.1-0.5,3.1-2.1,2.8-4.6l1.7-0.4
			C165.8,177.3,164.2,179.7,161.1,180.5z"/>
		<path d="M175.6,171.6c0.8,3.1-0.4,5.3-3.2,6c-2.8,0.7-4.9-0.7-5.7-3.7s0.5-5.3,3.3-6C172.8,167.3,174.8,168.6,175.6,171.6z
			 M168.3,173.5c0.6,2.3,2,3.3,3.8,2.8c1.8-0.4,2.5-2.1,1.9-4.3c-0.5-2.2-2-3.3-3.8-2.8C168.5,169.7,167.7,171.3,168.3,173.5z"/>
		<path d="M178,167.7c0.5-1.3,1.3-2.1,2.7-2.5c2.2-0.6,3.4,0.5,3.9,2.5l1.5,6.1l-1.5,0.4l-1.4-5.4c-0.4-1.5-0.7-2.7-2.6-2.2
			c-2,0.5-2.2,2.1-1.8,4l1.2,4.8l-1.5,0.4l-2.3-9.1l1.4-0.4L178,167.7z"/>
		<path d="M192,165.5c-0.4-1.2-1.4-1.4-2.7-1.1c-1.2,0.3-1.7,0.9-1.5,1.7c0.3,1,1.5,0.9,2.8,0.9c1.6,0,3.7-0.1,4.2,1.9
			c0.4,1.8-0.8,3.3-3.1,3.9c-2.5,0.6-4.1-0.1-4.7-2.2l1.5-0.4c0.4,1.4,1.5,1.7,3,1.3c1.3-0.3,2.1-1.2,1.8-2.1c-0.3-1-1.3-1-2.7-1
			c-1.7,0-3.8,0.3-4.4-1.8c-0.4-1.6,0.7-3,2.8-3.6c2.1-0.5,3.9,0.1,4.4,2L192,165.5z"/>
		<path d="M199.2,162.2l-1.8,0.5l1.3,5.3c0.2,0.8,0.3,1.4,1.3,1.1c0.3-0.1,0.5-0.1,0.8-0.3l0.3,1.3c-0.5,0.2-0.7,0.2-1.1,0.4
			c-2.3,0.6-2.5-0.6-3-2.6l-1.2-4.9l-1.5,0.4l-0.3-1.2l1.5-0.4l-0.7-2.7l1.5-0.4l0.7,2.7l1.8-0.5L199.2,162.2z"/>
		<path d="M205.6,160.7c-0.2,0-0.2,0-0.4,0.1c-2.5,0.6-2.4,2.6-1.9,4.7l1,3.9l-1.5,0.4l-2.3-9.1l1.4-0.4l0.5,2
			c0.2-1.7,1.2-2.6,2.8-3L205.6,160.7z"/>
		<path d="M216.3,166.3l-1.4,0.4l-0.4-1.4c-0.5,1.4-1.4,2.1-2.7,2.5c-1.9,0.5-3.3-0.3-3.8-2.3l-1.6-6.3l1.5-0.4l1.5,5.9
			c0.3,1.3,0.9,2.1,2.5,1.7c2-0.5,2.3-2.1,1.8-4l-1.2-4.8l1.5-0.4L216.3,166.3z"/>
		<path d="M222.5,165c-2.8,0.7-4.8-0.8-5.5-3.6c-0.8-3,0.5-5.4,3.1-6.1c2.2-0.6,3.9,0.3,4.7,2.3l-1.6,0.4c-0.6-1.2-1.6-1.7-2.8-1.4
			c-1.7,0.4-2.5,2.1-1.9,4.3c0.6,2.2,1.9,3.3,3.6,2.9c1.4-0.3,2.1-1.4,1.9-3l1.5-0.4C225.9,162.7,224.8,164.5,222.5,165z"/>
		<path d="M230,154.5l-1.8,0.5l1.3,5.3c0.2,0.8,0.3,1.4,1.3,1.1c0.3-0.1,0.5-0.1,0.8-0.3l0.3,1.3c-0.5,0.2-0.7,0.2-1.1,0.4
			c-2.3,0.6-2.5-0.6-3-2.6l-1.2-4.9l-1.5,0.4l-0.3-1.2l1.5-0.4l-0.7-2.7l1.5-0.4l0.7,2.7l1.8-0.5L230,154.5z"/>
		<path d="M232.6,150.8l-1.5,0.4l-0.5-1.8l1.5-0.4L232.6,150.8z M235.3,161.5l-1.5,0.4l-2.3-9.1l1.5-0.4L235.3,161.5z"/>
		<path d="M244.9,154.2c0.8,3.1-0.4,5.3-3.2,6c-2.8,0.7-4.9-0.7-5.7-3.7c-0.8-3,0.5-5.3,3.3-6C242,149.8,244.1,151.2,244.9,154.2z
			 M237.6,156.1c0.6,2.3,2,3.3,3.8,2.8c1.8-0.4,2.5-2.1,1.9-4.3c-0.5-2.2-2-3.3-3.8-2.8C237.8,152.3,237,153.9,237.6,156.1z"/>
		<path d="M247.3,150.3c0.5-1.3,1.3-2.1,2.7-2.5c2.2-0.6,3.4,0.5,3.9,2.5l1.5,6.1l-1.5,0.4l-1.4-5.4c-0.4-1.5-0.7-2.7-2.6-2.2
			c-2,0.5-2.2,2.1-1.8,4l1.2,4.8l-1.5,0.4l-2.3-9.1l1.4-0.4L247.3,150.3z"/>
	</g>
</g>
</svg>
