<svg version="1.1" id="Layer_1" xmlns="http://www.w3.org/2000/svg" xmlns:xlink="http://www.w3.org/1999/xlink" x="0" y="0" viewBox="0 0 792.8 546.8" xml:space="preserve"><style>.st0{fill:#fff}.st1{fill:#ccc}.st10,.st11,.st2,.st5,.st7,.st8{fill:none;stroke:#000;stroke-width:.5;stroke-miterlimit:10}.st10,.st11,.st5,.st7,.st8{fill:#bababa}.st10,.st11,.st7,.st8{fill:#0077bf}.st10,.st11,.st8{fill:#a0a0a0}.st10,.st11{fill:#fff}.st11{fill:#ffe600}.st12{fill:#1a1a1a}.st13,.st15,.st16{fill:#1a1a1a;stroke:#000;stroke-width:.5;stroke-miterlimit:10}.st15,.st16{fill:#f2f2f2}.st16{fill:#525458}.st17{fill:#696b6f}.st18{fill:#eb058c;stroke:#000;stroke-width:.5}.st18,.st21,.st22{stroke-miterlimit:10}.st21{stroke:#000;stroke-width:.5;fill:#c10072}.st22{fill:#282828}.st22,.st23,.st24{stroke:#000;stroke-width:.5}.st23{stroke-miterlimit:10;fill:#7c7c7c}.st24{fill:#fff;stroke-linejoin:round}.st25{enable-background:new}</style><path class="st0" d="M237 429.1c101.6-23 125.1-31.7 225.6 49.5 74.8 60.4 211 67 255.2 43.1 61.3-33.3 79.9-122.8 50.7-258.5-13.4-62.4-50.7-128.4-163.4-203.4C540 16.4 422.6 2.1 323.8 25.1c-78.7 18.3-179.2 63-255.6 198.1C43.8 266.6 12 365.1 110.6 418c45 24.1 92.8 18.7 126.4 11.1z" id="Layer_7"/><ellipse class="st1" cx="601.8" cy="486.6" rx="64.4" ry="12.1"/><ellipse transform="rotate(-3.87 239.085 308.78) scale(.99998)" class="st1" cx="239.1" cy="308.8" rx="218.4" ry="20.4"/><path class="st2" d="M13.1 325.4l470.5-41.7M66.5 357.6l421.3-37.3M110.6 333.9l284.7-26.3M71.9 300.9l372-37.1M379.7 190.3l103.9-8.4M408.7 207l96.6-9.2M395.3 229.8l104.6-9"/><linearGradient id="SVGID_1_" gradientUnits="userSpaceOnUse" x1="587.214" y1="239.03" x2="607.644" y2="239.03" gradientTransform="matrix(-1 .06 .06 1 662.482 -21.656)"><stop offset="0" stop-color="#6a8991"/><stop offset=".53" stop-color="#335c64"/><stop offset="1" stop-color="#02383c"/></linearGradient><path d="M87.2 241.6s-8.5 10.7-9.9 22.9c0 0 18.7-9.3 9.9-22.9z" fill="url(#SVGID_1_)"/><path class="st1" d="M87.6 243.2l-6.4 9.9 2.6-2.4-.8 2.8-1.4 1-.9 1.7.1 1.8.7-.1-1.6 1.1.1.9.3.5 2.1-.1 1.4-1.7 2.3-1.9 2.3-2.7-.2-2.6.6-2.9z"/><path d="M74.8 308.8h-8.3l9.6-38.6 41.4-20.1 39.2-.7 170.8-8.8 48.6 4.9 10.7 45.9-312 17.4z" fill="#404041" stroke="#000" stroke-width=".5" stroke-miterlimit="10"/><path class="st5" d="M190.1 179.7l8.4 1.5 4.1 2.3s-22.7 5.9-44.3 41l-33.6-2.2c-.1.1 19.4-25.1 65.4-42.6z"/><linearGradient id="SVGID_2_" gradientUnits="userSpaceOnUse" x1="283.604" y1="216.245" x2="305.864" y2="216.245" gradientTransform="matrix(-1 .06 .06 1 662.482 -21.656)"><stop offset="0" stop-color="#bc352e"/><stop offset=".13" stop-color="#dd4d2f"/><stop offset=".21" stop-color="#be4a2b"/><stop offset=".33" stop-color="#d35a39"/><stop offset=".46" stop-color="#ec6b4e"/><stop offset=".62" stop-color="#ee5f3c"/><stop offset=".91" stop-color="#ed4e2c"/><stop offset="1" stop-color="#bc4c24"/></linearGradient><path d="M372.1 197.3l1.9-1.2c3.6-.4 17.6 27.8 12.6 32.4 0 0-18-16.1-14.5-31.2z" fill="url(#SVGID_2_)"/><path class="st7" d="M361.4 177.9c-2.3-3.9 9.3-5.2 6.9-8.1 0 0-111.5-11.6-178.3 9.9l8.4 1.5S169.6 194 157 222.3l-32.8-1.8c-28.1 8-58.9 14.8-66.6 46.7l1.9 26.8-2.7 3.1 1.3 10.1 3.7.9s7.9 1.9 11.9 1.7c0 0-4.3-40.4 33.1-42.1 35.5-3.1 37.2 34.6 37.2 34.6l173.4-9.7s-5.6-38 35.5-38.7c34.4-.6 31.9 39.3 31.9 39.3l5-1.7s3.3-31.8 3.9-41.7c0 0-4-6.3-4.3-12.5-.3.2-11.1-43.6-28-59.4z"/><path class="st8" d="M55 286.5l3.1 20.8 3.7.9s7.9 1.9 11.9 1.6c0 0-4.3-40.4 33.1-42.1 35.5-3.1 37.2 34.6 37.2 34.6l173.4-9.7s-5.6-38 35.5-38.7c34.4-.6 31.9 39.3 31.9 39.3l8.4-2.6s1.2-11.8 2.3-23.2c-2.7-.4-5.3-.6-8-.7-6.9-18.1-22.7-26.8-38.7-26.8-28.7-.1-39.6 29.9-41.7 46.2L154.6 294c-13.1-56.2-69.9-49.3-89.1-9.1 0 0-7.4 1-10.5 1.6z"/><path class="st5" d="M335.5 178.6c-13.1-4.2-62.9-2.3-77.1-1.7l6.7 41.2 87.8-4.9c-2.2-10.3-6.5-34.2-17.4-34.6zm-75.4 39.7l-5.2-41.3c-7.3.4-14.8.9-22.2 1.5-42.9 3.9-61.1 35.5-65.7 45l93.1-5.2z"/><defs><path id="SVGID_3_" d="M260.1 218.3l-5.2-41.3c-7.3.4-14.8.9-22.2 1.5-42.9 3.9-61.1 35.5-65.7 45l93.1-5.2z"/></defs><clipPath id="SVGID_4_"><use xlink:href="#SVGID_3_" overflow="visible"/></clipPath><g clip-path="url(#SVGID_4_)"><path class="st10" d="M226.1 213.3l-3.5-5.4s-3.7 3.6-5.2 3.3l1.7 8.2c-.1 0 6.8-3.3 7-6.1z"/><path class="st10" d="M213.1 269.5l26.8-1.4-.3-30 7.3 11.3c.5.8.8 1.8.7 2.8l-2 24 4.6 1.6 5.7-27.7c.2-.9.1-1.9-.3-2.8l-13.9-29-14.7-7.7-7.2 5.4-2.8-2.4-7.9 9.4-7.8 19.6c-.2.5-.5.9-.8 1.3l-18 20.3 4.7 2.7 21-17.9c.4-.4.8-.8 1.1-1.4l5.1-10.2-1.3 32.1z"/><path class="st11" d="M241 217.8s-3.1 15.5-.5 21.6l-.1 18.8-9.7 7.6-9.4-4.8-8.2 5.3-1-32.2-3-11.3 3.9-4.6 3.5 2.3 3.4-4.7 4.3 3.7 6.6-7.1 10.2 5.4z"/><path class="st10" d="M250.3 277.7s-.2 8.7-2.3 9.3c-3.5 1-1.4-7.1-2.8-6.4-1.9.9-1.4-1.2.5-4.5l4.6 1.6zM209.2 190.9c-1.5.7-2.3 4.3-1.8 6.4s1.6 5.7.9 6.2c-.3.2-.9.6-1 .8-.1.4.8 1 1.5 1.2 1 .2 2.9 7.5 8.5 6.5s9.1-5.7 8.6-10.5-2.8-17.3-16.7-10.6z"/><path class="st12" d="M221.7 185.1c-1.9-1.9-4.7-2.5-7.1-1.6-4.2 1.6-9.2 7.3-10.9 6.6s-2.1 3.8-.3 4.6c1.2.5 2.5 1 3.8 1.4 0 0 1.6-3.2 4.1-3.4s5.4-.7 6-1.9c0 0-.1 6.1 3.1 6.7.8.1 1.5-1.3 1.9-1.1 1.2.7.9 3.5.4 4.9 0 0 3.3 1.6 2.9 3s3-.9 3.4-5.6-1.9-13.9-7.3-13.6z"/><ellipse transform="rotate(-18.594 210.967 200.018)" class="st13" cx="211" cy="200" rx=".7" ry=".9"/><path class="st2" d="M213.3 205.4s-.6 2.4-2 2.2M214 205.1c-.1-.3-.4-.4-.6-.5"/><path d="M213 197.6c-1.2-.4-2.5-.4-3.8 0" fill="none" stroke="#000" stroke-miterlimit="10"/><path class="st2" d="M212.7 199.7c-.7-.5-1.7-.7-2.5-.4"/></g><path class="st7" d="M183.3 211.9s4.8 7.7-.6 14.6c0-.1-20.8-6.9.6-14.6z"/><path class="st11" d="M62.2 262.3c4-12.8 11.2-18.1 21.5-24 10.1-1.6 10.8 5.8 7 12.9-3.7 7.2-21 22.1-28.5 11.1z"/><path class="st15" d="M259.6 229.8l-.1-1.3c0-1-.7-1.9-1.7-2.1l-19.3 1c-1 .2-1.7 1.2-1.5 2.2l.1 1.3 22.5-1.1zM299.3 228.1l-.1-1.3c0-1-.7-1.9-1.7-2.1l-19.3 1c-1 .2-1.7 1.2-1.5 2.2l.1 1.3 22.5-1.1z"/><path class="st12" d="M129.4 317.9c10.1-11.2 9.2-28.3-2-38.4-11.2-10.1-28.3-9.2-38.4 2s-9.2 28.3 2 38.4c11.1 10 28.3 9.1 38.4-2zm-34.9-31.5c7.3-8.1 19.9-8.7 28-1.4s8.7 19.9 1.4 28-19.8 8.7-27.9 1.4c-8.2-7.3-8.9-19.9-1.5-28z"/><path class="st0" d="M109.2 322.4c-12.5 0-22.7-10.2-22.7-22.8 0-12.1 9.5-22 21.6-22.7h1.2c12.5-.1 22.8 10 22.9 22.5.1 12.3-9.5 22.4-21.8 22.9l-1.2.1z"/><path d="M109.2 277.2c12.4-.1 22.6 9.9 22.7 22.3.1 12.1-9.4 22.1-21.5 22.6h-1.2c-12.4 0-22.5-10.1-22.4-22.5 0-11.9 9.4-21.8 21.3-22.4h1.1m0-.5H108c-12.7 1-22.1 12.2-21 24.8 1 11.6 10.5 20.7 22.2 21.1h1.2c12.7-1 22.1-12.2 21-24.8-1-11.7-10.5-20.7-22.2-21.1z"/><path class="st16" d="M108.2 279.9c10.9-.6 20.2 7.8 20.8 18.8.6 10.9-7.8 20.2-18.8 20.8-10.9.6-20.2-7.8-20.8-18.8s7.8-20.3 18.8-20.8z"/><path class="st17" d="M105.5 305.2c-2.8-2.6-3-6.9-.5-9.7s6.9-3 9.7-.5c2.8 2.6 3 6.9.5 9.7-2.5 2.8-6.8 3-9.7.5z"/><path class="st0" d="M112.6 321.2l-2.8.1-1.9-14.9L97 316.7l-2.1-1.9 9.2-11.9-15-.4-.1-2.8 14.9-1.9-10.3-10.9 1.9-2.1 11.9 9.2.4-15 2.8-.1 1.9 14.9 10.9-10.3 2.1 1.9-9.2 11.9 15 .4.1 2.8-14.9 1.9 10.3 10.9-1.9 2.1-11.9-9.2-.4 15zm.8-20l-.1-2.7-2-1.8-2.7.1-1.8 2 .1 2.7 2 1.8 2.7-.1 1.8-2z"/><path class="st12" d="M371.2 304.4c10.1-11.2 9.2-28.3-2-38.4s-28.3-9.2-38.4 2-9.2 28.3 2 38.4c11.2 10 28.4 9.2 38.4-2zm-34.9-31.5c7.3-8.1 19.9-8.7 28-1.4s8.7 19.9 1.4 28c-7.3 8.1-19.8 8.7-27.9 1.4-8.2-7.3-8.8-19.8-1.5-28z"/><path class="st0" d="M351 308.9c-12.5.1-22.8-10-22.9-22.5-.1-12.3 9.5-22.4 21.8-22.9h1.2c12.5-.1 22.8 10 22.9 22.5.1 12.3-9.5 22.4-21.8 22.9H351z"/><path d="M351.1 263.7c12.4-.1 22.6 9.9 22.7 22.3.1 12.1-9.4 22.1-21.5 22.6h-1.1c-12.4.1-22.6-9.9-22.7-22.3-.1-12.1 9.4-22.1 21.5-22.6h1.1m0-.5h-1.2c-12.7 1-22.1 12.1-21.1 24.7.9 11.7 10.5 20.9 22.3 21.2h1.2c12.7-1 22.1-12.1 21.1-24.7-1-11.7-10.6-20.9-22.3-21.2z"/><path class="st16" d="M350 266.4c10.9-.6 20.2 7.8 20.8 18.8.6 10.9-7.8 20.2-18.8 20.8-10.9.6-20.2-7.8-20.8-18.8-.5-10.9 7.9-20.2 18.8-20.8z"/><path class="st17" d="M347.4 291.7c-2.8-2.5-3-6.9-.5-9.7s6.9-3 9.7-.5c2.8 2.5 3 6.9.5 9.7-2.5 2.8-6.9 3.1-9.7.5z"/><path class="st0" d="M354.5 307.7l-2.8.1-1.9-14.9-10.9 10.3-2.1-1.9 9.2-11.9-15-.4-.1-2.8 14.9-1.9-10.3-10.9 1.9-2.1 11.9 9.2.4-15 2.8-.1 1.9 14.9 10.9-10.3 2.1 1.9-9.2 11.9 15 .4.1 2.8-14.9 1.9 10.3 10.9-1.9 2.1-11.9-9.2-.4 15zm.8-20l-.1-2.7-2-1.8-2.7.1-1.8 2 .1 2.7 2 1.8 2.7-.1 1.8-2z"/><path class="st10" d="M469.1 44.1v362l248.7 88.3"/><path class="st18" d="M599.7 247.9l-7.6 11.6 5.5 6.6 7.8-10.8z"/><path d="M582.5 294.4c.1-.1 20.2-16.3 20.2-16.3l-3-15-9.3 7.5-7.9 23.8z" fill="#eb058c" stroke="#000" stroke-width=".5" stroke-linejoin="round"/><path class="st8" d="M591.4 322.6l2 156h7.3l22.2-156z"/><path class="st8" d="M620.6 478.6h6.4l12.3-106.5-3.5-49.5h-28l8.6 96.6z"/><path class="st13" d="M626.3 257.6L603 244.4c-.6-3.2-1.8-6.3-3.5-9.1-8.5-14-2.3-25.8-2.3-25.8 3.9-9.9 14.7-11.3 14.7-11.3 11.8-2 18.8 4.3 18.8 4.3s25 11.9 22.1 67.9c-.5 3.5 1.2 7 4.3 8.8-9.5 1.8-19.3-1-26.4-7.6-12.1-11.1-11.1-27.4-11.1-27.4"/><path class="st10" d="M618 250.6c1.8-1.4 3.4-3.1 4.8-4.8.1-.1.2-.3.2-.5s-.1-.4-.2-.5c-.9-1.9-1.6-3.8-2-5.9-.2-1.1-.2-2-.4-3.2s-.8-1.4-1.9-1.1c-3.4.7-6.6 2.3-9.2 4.6.5 1.7.8 3.3 1.1 5 .2 1.3.3 2.8-.7 3.6-.8 6.5 8.3 2.8 8.3 2.8z"/><path d="M598.8 322.6h30.3l1.2-59.5-8.3-16.4s-1.7 4.2-15.3 0l-6.3 24 4.4 24.8-6 27.1z" fill="#e0e0e0" stroke="#000" stroke-width=".5" stroke-miterlimit="10"/><path class="st18" d="M634.9 281.4l-3.5 11.6-.6 6.4c11.5 33.6 20.3 68 26.1 103 0 0-13.3 13.7-37.7 8.3l-10-103.7-18.3 104.9s-22.3-7.6-24.7-13.2l34.1-100.4.3-6.6-5.7-18.6 4.8-25.3 10.6-4.5 1.3 27.6 10.7-27.6 18.2 8.7-5.6 29.4z"/><path class="st18" d="M610.7 242.6l-5.6 2.4-3.2 10.4 4.2 5.4-4.2 6.3 9.7 18v-15.5zM621.6 241.6l5.2 3.1 1 13.6-5.5 4.3 1.3 7.5-12 11.2V271zM600.6 291.8l30.9 1.2-.7 6.4-30.5-1.1z"/><circle class="st18" cx="610" cy="295.6" r="5.2"/><circle class="st18" cx="610" cy="295.6" r="3.3"/><path class="st18" d="M635.5 249.7l7.3 4 2.2 40.2-11.3 35.5-5.7-1.6 6.2-35.6-3.4-21.5z"/><path class="st12" d="M592.4 478.6c-3.5 6.9-10 11.8-17.5 13.4h19.6l3.5-5.6 1.4 5.6h2v-13.4h-9zM619.2 478.6c-3.5 6.9-10 11.8-17.5 13.4h19.6l3.5-5.6 1.4 5.6h2v-13.4h-9z"/><path class="st10" d="M628.4 208.9c-2.4-3.6-6.1-6.2-10.3-7.3-1.5-.4-3-.6-4.6-.5-1.8.3-3.6.8-5.2 1.6-2.3.8-4.5 2.1-6.4 3.7-3.1 3-4.1 7.6-4.8 11.9-.5 2.6-.9 5.3-.3 7.9.5 1.8 1.3 3.5 2.3 5 1.4 2.6 3 5 4.9 7.2 1.8 2 4.2 3.8 6.9 4 3.7.3 7-2.2 9.5-4.9 6.9-7 14.2-18.9 8-28.6z"/><path class="st12" d="M631.7 224.3l1-10.6-8.1-10.7-7.6-2.6-9.5.6-7 5.7-4.9 11.4.3 8.6 1.7 3.6c1.3-2.7.9-7.9.9-7.9.5-8.9 10.7-10.8 10.7-10.8 4.1-.6 7.8-4.6 7.8-4.6-2.2 10.5 12 22 12 22l2.7-4.7z"/><path class="st10" d="M610.9 222.1c.3-.8.8-1.5 1.4-2.2.6-.7 1.4-1 2.3-1l.9.3c.3.1.6.3.8.5.3.3.7.6 1.1.8.4.2.9.3 1.3.1M598.8 220c.6.3 1.4.2 2-.1.6-.4 1.3-.7 2-.8.9.1 1.7.5 2.3 1.1l.8.7M618 216.6c-2.3-1.5-5.3-1.2-7.3.6M601.1 215.9c1.8-.6 3.8-.2 5.2 1M607.1 224.7l-.8 2.2c-.2.4-.2.9 0 1.3.1.1.3.2.4.3.7.3 1.4.7 2.1.9M613.2 235c.2-.3.9-1.2.6-1.6-.1-.1-.1-.1-.2-.1-2.1-.9-4.4-1.3-6.7-1.3-.3 0-.7.1-.8.4-.1.2-.1.3 0 .5.2.6.6 1.1.8 1.6.2.7.5 1.3.7 2 .3.7 1.1 1 1.8.8.2-.1.3-.2.5-.3.4-.3.9-.5 1.4-.7.8-.3 1.4-.7 1.9-1.3z"/><path class="st21" d="M607.5 236.5c.3-.4.9-.2 1.4-.2 1.2 0 2.4-.4 3.4-1.1.8-.5 1.5-1.1 2-1.8.1.4 0 .8-.2 1.2-.2.4-.5.7-.8 1-.4.4-.8.8-1.2 1.1-.5.5-1.1.9-1.8 1.2-.7.3-1.4.3-2.1 0-.6-.2-1-.9-.7-1.4z"/><path class="st21" d="M606.5 233.1c1.1-.2 2.3-.2 3.4 0 1.4.2 2.8.8 4.2.5.1 0 .2 0 .2-.1s-.1-.1-.2-.2c-1.3-.8-2.7-1.4-4.1-1.8-1.5-.4-3-.3-4.4.3-1.2.5 0 1.4.9 1.3z"/><ellipse transform="rotate(-74.478 613.664 220.432)" class="st13" cx="613.6" cy="220.4" rx="1.3" ry="1"/><ellipse transform="rotate(-74.478 602.57 220.37)" class="st13" cx="602.6" cy="220.4" rx="1.3" ry="1"/><path class="st2" d="M606.4 222.7s.9 1.7 3.5.4"/><path class="st22" d="M606.6 224.4c-1.1 2.6-6 3.6-9 1.4-2.3-1.7-3.6-4.9-3.2-6.4.5-2.2 4.7-2.9 8-2.2 3 .6 5 3.5 4.4 6.5-.1.2-.1.5-.2.7zM610 224.3c1.1 2.7 6.2 3.7 9.2 1.5 2.4-1.7 3.7-5 3.3-6.5-.5-2.2-4.8-2.9-8.2-2.3-3.1.6-5.1 3.6-4.5 6.7.1.2.1.4.2.6z"/><path transform="rotate(-9.23 593.455 229.007)" class="st23" d="M592.5 223.1h1.9v11.8h-1.9z"/><path class="st23" d="M595 229.6l6.7-1.1c1.3-.2 2.5.7 2.7 1.9l2.9 17.9c.2 1.3-.7 2.5-1.9 2.7l-6.8 1.1c-1.3.2-2.5-.7-2.7-1.9l-2.9-17.9c-.2-1.3.7-2.4 2-2.7z"/><path class="st24" d="M599.9 250s5.5-3 6.1-4.5c.5-1.7.4-3.4-.1-5.1 0 0-.7-.7-3.6-.4-1.9.2-4.7 2.7-6.1 1.7-2.9-2.1-2.2-4.2-2.2-4.2s-1.9 3.7.2 9.3c.3.8 0 1.1-.1 2.2l5.8 1z"/><path class="st18" d="M594.2 248.7L578 281.5l.7 10.6 3.8 2.3 9.2-9L600 250z"/><path class="st10" d="M591.4 231.3l-11.8-10.9-4.9 3.8 16.3 8.5zM590.4 234.1c-.8-.2-19.4-4.2-19.4-4.2v6.1l19.4-.9v-1zM590.8 236.4l.6 1.1-9.2 12.2-3.9-5.3z"/><path class="st24" d="M628 327.8s-3.7 4.3-3.1 5.1 1.8.1 1.8.1-1.3 6.9.8 7.4c3.8.8 6.2-11.1 6.2-11.1l-5.7-1.5z"/><path class="st10" d="M649.8 208v-47.4c0-6.6 5.4-12 12-12h80c6.6 0 12 5.4 12 12v61c0 6.6-5.4 12-12 12h-80c-6.6 0-12-5.4-12-12v-.3h-14l14-13.3z"/><g class="st25"><path d="M668.6 168.6h-5.7v-1.7h5.7v1.7zM682.6 159.2c2.3 0 4.5.9 4.5 3.5 0 1.4-.8 2.6-2.1 3 1.7.4 2.7 1.7 2.7 3.5 0 3.2-2.6 4-5.3 4h-5.8v-14h6zm-4.2 6h3.3c1.6 0 3.5-.1 3.5-2.2s-1.6-2.2-3.3-2.2h-3.5v4.4zm0 6.5h3.7c1.9 0 3.7-.1 3.7-2.6 0-2.4-2.1-2.4-4-2.4h-3.4v5zM697.3 164.2l-6.2 7.6h6.4v1.4H689V172l6.1-7.5h-5.7v-1.4h7.9v1.1zM706.7 164.2l-6.2 7.6h6.4v1.4h-8.6V172l6.1-7.5h-5.7v-1.4h7.9v1.1zM716.2 164.2l-6.2 7.6h6.4v1.4h-8.6V172l6.1-7.5h-5.7v-1.4h7.9v1.1zM720.7 173.2h-2.2V171h2.2v2.2zM726.2 173.2H724V171h2.2v2.2zM731.6 173.2h-2.2V171h2.2v2.2z"/></g><g class="st25"><path d="M662.9 199h5.7v1.6h-5.7V199zM676.6 191.2h1.9v6h7.4v-6h1.9v14.1h-1.9v-6.4h-7.4v6.4h-1.9v-14.1zM699.2 202c-.5 2.3-2 3.5-4.4 3.5-3.2 0-4.8-2.3-4.9-5.4 0-3.1 2-5.3 4.8-5.3 3.6 0 4.7 3.4 4.6 5.8h-7.6c-.1 1.8.9 3.3 3.2 3.3 1.4 0 2.3-.6 2.6-2h1.7zm-1.6-2.8c-.1-1.6-1.3-2.9-2.9-2.9-1.7 0-2.8 1.3-2.9 2.9h5.8zM706.7 191.2h1.7v14.1h-1.7v-14.1zM712.7 193.2H711v-2h1.7v2zm-1.7 1.9h1.7v10.2H711v-10.2zM715.4 191.2h1.7v8.3l4.6-4.4h2.2l-4 3.7 4.3 6.5h-2.1l-3.5-5.3-1.6 1.5v3.9h-1.7v-14.2zM734.2 202c-.5 2.3-2 3.5-4.4 3.5-3.2 0-4.8-2.3-4.9-5.4 0-3.1 2-5.3 4.8-5.3 3.6 0 4.7 3.4 4.6 5.8h-7.6c-.1 1.8.9 3.3 3.2 3.3 1.4 0 2.3-.6 2.6-2h1.7zm-1.6-2.8c-.1-1.6-1.3-2.9-2.9-2.9-1.7 0-2.8 1.3-2.9 2.9h5.8zM737.1 202c.1 1.5 1.4 2 2.7 2 1 0 2.5-.2 2.5-1.5 0-2.6-6.7-.8-6.7-4.8 0-2 2-2.9 3.8-2.9 2.3 0 4 .7 4.2 3.2h-1.7c-.1-1.3-1.3-1.7-2.4-1.7-1 0-2.2.3-2.2 1.3 0 1.2 1.8 1.4 3.3 1.8 1.7.4 3.3.9 3.3 2.9 0 2.4-2.3 3.2-4.3 3.2-2.3 0-4.2-.9-4.3-3.4h1.8z"/></g><g class="st25"><path d="M669 214c-.1-1.3-1-1.9-2.5-1.9-1.3 0-2.1.5-2.1 1.4 0 1.1 1.3 1.3 2.7 1.6 1.7.4 3.9.9 3.9 3.1 0 2-1.7 3.3-4.2 3.3-2.8 0-4.3-1.2-4.4-3.5h1.7c.1 1.5 1.1 2.1 2.8 2.1 1.5 0 2.5-.7 2.5-1.7 0-1.1-1.1-1.4-2.6-1.7-1.8-.4-4.1-.7-4.1-3 0-1.8 1.5-3 3.9-3 2.3 0 4.1 1.1 4.1 3.2H669zM674.6 212.5c.8-1.3 1.9-1.8 3.4-1.8 2.8 0 4.6 2 4.6 5.3s-1.8 5.4-4.5 5.4c-1.5 0-2.5-.5-3.4-1.7v5.3H673v-14.1h1.6v1.6zm0 3.6c0 2.5 1.2 4 3.2 4 1.9 0 3.1-1.5 3.1-4s-1.2-4-3.1-4c-2 .1-3.2 1.6-3.2 4zM688.9 221.6c-3 0-4.8-2-4.8-5.3s1.9-5.5 4.7-5.5c3.3 0 4.6 2.7 4.6 5.6v.2h-7.6v.1c0 2.2 1.2 3.5 3.2 3.5 1.5 0 2.3-.6 2.7-2.2h1.6c-.4 2.4-2 3.6-4.4 3.6zm-.1-9.4c-1.6 0-2.8 1.2-3 3.1h5.9c-.1-2-1.2-3.1-2.9-3.1zM699.5 221.6c-3 0-4.8-2-4.8-5.3s1.9-5.5 4.7-5.5c3.3 0 4.6 2.7 4.6 5.6v.2h-7.6v.1c0 2.2 1.2 3.5 3.2 3.5 1.5 0 2.3-.6 2.7-2.2h1.6c-.5 2.4-2 3.6-4.4 3.6zm-.1-9.4c-1.6 0-2.8 1.2-3 3.1h5.9c-.1-2-1.2-3.1-2.9-3.1zM715 221.2h-1.6v-1.5c-.6 1.2-1.8 1.8-3.3 1.8-2.9 0-4.7-2.1-4.7-5.4 0-2.9 1.5-5.4 4.6-5.4 1.5 0 2.6.6 3.3 1.7v-5.2h1.7v14zm-7.9-5.1c0 2.5 1.2 4 3.1 4 1.9 0 3.1-1.5 3.1-4 0-2-.9-3.9-3.1-3.9-1.9 0-3.1 1.5-3.1 3.9z"/></g><path class="st10" d="M571.9 273.7c8.1 7.7 13 17.8 13 28.8 0 24.3-23.9 44.1-53.5 44.1s-53.5-19.7-53.5-44.1 23.9-44.1 53.5-44.1c9.6-.1 19 2.1 27.6 6.3l16.8-9.6-3.9 18.6z"/><defs><path id="SVGID_5_" d="M571.9 273.7c8.1 7.7 13 17.8 13 28.8 0 24.3-23.9 44.1-53.5 44.1s-53.5-19.7-53.5-44.1 23.9-44.1 53.5-44.1c9.6-.1 19 2.1 27.6 6.3l16.8-9.6-3.9 18.6z"/></defs><clipPath id="SVGID_6_"><use xlink:href="#SVGID_5_" overflow="visible"/></clipPath><g clip-path="url(#SVGID_6_)"><g id="Layer_9"><path class="st7" d="M423.3 408.9l37.6-90.8s4.3-5.8 50.9-12.5c0 0 28.5 16.2 41.5 1.3l39.3 7.5 36.3 101.7-205.6-7.2z"/><path class="st18" d="M535.4 316.6l13.8 110.6-18.8 23-15.5-25 15.4-108c.1 0 2.2-5.6 5.1-.6z"/><path class="st10" d="M517.6 270.8l-2.3 39 17.8 10.1 17-7.6-2-43.5z"/><g id="Layer_7-2"><path class="st10" d="M508.5 305.6l10 25.3 2.7 7 6.5-10.7 4.4-7.1c.2-.3.7-.4 1-.2l.2.2 5.5 8 8.3 12.1 6.1-33.2-2.2-6.1-.5.5-17.5 17.1c-.3.3-.7.2-1-.1l-20.2-20.1-.2-.2-3.1 7.5zM516.6 290.9c2.2 2.5 4.3 5 7.4 6.7 1.9 1 4.6 1.2 7.1 1.2l1 .1c2.1.3 4.2.1 6.2-.5 3.3-1.4 5.6-3.7 8-5.9 1.8-1.4 3.8-2.7 5.8-3.8 1.1-.6 2.1-1.5 3-2.4 1.1-1.3 2-2.8 2.5-4.3.8-2.4.7-6.2 2.8-8.1 1.9-1.7 3.7-2.3 5.1-4.6 2.3-4.2 3.5-8.9 3.3-13.7 0-1.3-.6-3.5-2.5-2.4-.8.5-.5 1.9-1.3 2.4h-.1l-.8 2-2.6-.1c.1-1.9.3-3.9.7-5.8.3-4.2.7-8.3 0-12.4-1-5.2-8.6-8.1-12.7-10.7-.7-.4-1.7-1.5-2.5-1.8-1.2-.4-.5-.2-1.8.4-4.7 2.4-7.4 4.8-13.1 4.5-4.6-.2-9.2-1.4-13.9-1.3-6.3.1-12.2 4.2-13.2 10.4-.4 2.3-.2 4.8-.4 7.1-.2 1.6-.3 3.3-.3 4.9 0 .5 0 1.1-.1 1.6l-3.3-.2c0-.5.1-1 .1-1.3.1-.8.1-1.5.1-2.2 0-.4-.2-.7-.5-.9-1.8-1.3-2.6.8-2.7 2.1-.6 4.8.1 9.6 2 14 1.1 2.5 2.9 3.3 4.6 5.1 1.9 2.1 1.3 5.8 2 8.3.4 1.6 1.1 3.2 2.1 4.6.6.9 1.4 1.7 2.2 2.3 1.8 1.5 4.1 2.8 5.8 4.7z"/><path class="st13" d="M501 252.9c0 .3-.1.8-.1 1.3l3.3.2c0-.5.1-1.1.1-1.6 0-1.6.1-3.3.3-4.9.2-2.4.1-4.8.4-7.1 1-6.1 6.9-10.2 13.2-10.4 4.6-.1 9.2 1 13.9 1.3 5.7.3 8.5-2.1 13.1-4.5 1.2-.6.5-.8 1.8-.4.9.5 1.7 1.1 2.5 1.8 4.2 2.7 11.8 5.5 12.7 10.7.8 4.2.4 8.3 0 12.4-.4 1.9-.6 3.8-.7 5.8l2.6.1.7-2c.8-2.1 1.6-4.2 1.8-5.1.8-3.2 1.3-6.5 1.6-9.8 1.3-7.9 2.2-15.5-2.7-22.3-5.2-7.4-13.3-12-17.8-11.7-.3 0-3.3.1-2.9.5-1.5-1.4-4.3-1.6-6.2-2.2-10.3-2.9-23.8 2.5-31.7 8.6-8.3 6.4-7.6 15.2-7.1 23.7.2 2.9 0 6.2.7 9 .4 1.5.6 3 .5 4.5.1.6.1 1.3 0 2.1z"/><path class="st2" d="M541.7 250.4c3-1.4 6.5-1.4 9.6 0M515.9 250.4c3-1.4 6.5-1.4 9.6 0"/><circle class="st13" cx="546" cy="256.2" r="2.5"/><circle class="st13" cx="522" cy="256.2" r="2.5"/><path class="st2" d="M536.1 253.9c-.5 2.8-.5 5.7-.2 8.6.3 2.2.8 4.3 1.1 6.4.2 1.1.2 2.2 0 3.2-.3 1-1.2 1.7-1.9 1.2"/></g><ellipse class="st2" cx="532.8" cy="283.4" rx="10.6" ry="5.7"/><path class="st18" d="M523.1 285.6s7.7-3.7 10.1-1c0 0 4.4-3.3 9.1 1.3 0 0-1.8 2.8-9.5 3.2 0 .1-7.2 0-9.7-3.5z"/><path transform="rotate(-9.23 501.552 287.263)" class="st23" d="M499.2 272.3h4.7v29.9h-4.7z"/><path class="st23" d="M501.9 289.5l24-3.9c1.3-.2 2.5.7 2.7 1.9l8.5 52.4c.2 1.3-.7 2.5-1.9 2.7l-24 3.9c-1.3.2-2.5-.7-2.7-1.9l-8.5-52.4c-.2-1.3.6-2.5 1.9-2.7z"/><path class="st24" d="M517.9 340.6s14-7.6 15.5-11.4c2.1-5.7-.3-12.9-.3-12.9s-1.9-1.8-9.1-1c-4.7.5-12 6.9-15.6 4.3-7.2-5.4-5.6-10.7-5.6-10.7s-4.9 9.5.4 23.7c.8 2.1-.1 2.9-.3 5.7l15 2.3z"/><path class="st24" d="M496.9 346.6l6-8.3 15 2.3-1.5 12.4z"/></g></g><path class="st10" d="M535.3 235.6v-42.9c0-6-4.9-10.8-10.9-10.9H452c-6 0-10.8 4.9-10.9 10.9V248c0 6 4.9 10.9 10.9 10.9h58l16.6 8.7-2.2-8.7c6 0 10.9-4.9 10.9-10.9v-12.4z"/><g class="st25"><path d="M459.3 205.2h-5.7v-1.7h5.7v1.7zM473.3 195.8c2.3 0 4.5.9 4.5 3.5 0 1.4-.8 2.6-2.1 3 1.7.4 2.7 1.7 2.7 3.5 0 3.2-2.6 4-5.3 4h-5.8v-14h6zm-4.2 6h3.3c1.6 0 3.5-.1 3.5-2.2s-1.6-2.2-3.3-2.2h-3.5v4.4zm0 6.4h3.7c1.9 0 3.7-.1 3.7-2.6 0-2.4-2.1-2.4-4-2.4h-3.4v5zM488 200.7l-6.2 7.6h6.4v1.4h-8.6v-1.3l6.1-7.5H480v-1.4h7.9v1.2zM497.4 200.7l-6.2 7.6h6.4v1.4H489v-1.3l6.1-7.5h-5.7v-1.4h7.9v1.2zM506.9 200.7l-6.2 7.6h6.4v1.4h-8.6v-1.3l6.1-7.5h-5.7v-1.4h7.9v1.2zM511.4 209.8h-2.2v-2.2h2.2v2.2zM516.8 209.8h-2.2v-2.2h2.2v2.2zM522.3 209.8h-2.2v-2.2h2.2v2.2z"/></g><g class="st25"><path d="M459.3 234.7h-5.7V233h5.7v1.7zM479.5 239.3h-1.2l-.5-1.8c-1.2 1.5-2.6 2.1-4.5 2.1-4 0-6.7-2.9-6.7-7.2 0-4.1 2.4-7.4 6.8-7.4 2.8 0 5.6 1.6 5.9 4.6h-1.8c-.3-1.8-1.9-3.1-4.1-3.1-3.1 0-5 2.2-5 5.8 0 3.5 1.9 5.7 4.9 5.7 3 0 4.3-2 4.4-4.7h-4.5v-1.5h6.1v7.5zM491.2 234.2c0 3.4-1.8 5.5-4.9 5.5-3.1 0-5-2-5-5.4 0-3.3 1.9-5.4 5-5.4s4.9 1.9 4.9 5.3zm-8.1 0c0 2.5 1.2 4 3.2 4s3.1-1.5 3.1-4c0-2.4-1.2-4-3.2-4-1.8.1-3.1 1.6-3.1 4zM497.6 230.5h-2v5.9c0 .9-.1 1.5 1.1 1.5.3 0 .6 0 .9-.1v1.4c-.5.1-.7.1-1.3.1-2.5 0-2.4-1.3-2.4-3.5v-5.4h-1.7V229h1.7v-3h1.7v3h2v1.5zM506.7 227.4H505v-2h1.7v2zm0 11.9H505v-10.2h1.7v10.2zM513.6 230.5h-2v5.9c0 .9-.1 1.5 1.1 1.5.3 0 .6 0 .9-.1v1.4c-.5.1-.7.1-1.3.1-2.5 0-2.4-1.3-2.4-3.5v-5.4h-1.7V229h1.7v-3h1.7v3h2v1.5zM517.8 239.3h-2.1v-2h2.1v2zm-.1-9.7l-.5 6.2h-.9l-.5-6.2v-4.3h1.8v4.3z"/></g></svg>