<?xml version="1.0" encoding="utf-8"?>
<!-- Generator: Adobe Illustrator 22.0.1, SVG Export Plug-In . SVG Version: 6.00 Build 0)  -->
<svg version="1.1" id="Layer_1" xmlns="http://www.w3.org/2000/svg" xmlns:xlink="http://www.w3.org/1999/xlink" x="0px" y="0px"
	 viewBox="0 0 785.3 766.5" style="enable-background:new 0 0 785.3 766.5;" xml:space="preserve">
<style type="text/css">
	.st0{fill:#F5F5F5;}
	.st1{fill:#272525;}
	.st2{fill:#FFE600;stroke:#000000;stroke-width:0.5;stroke-miterlimit:10;}
	.st3{fill:#FFFFFF;stroke:#000000;stroke-width:0.5;stroke-miterlimit:10;}
	.st4{fill:#F2F2F2;stroke:#000000;stroke-width:0.5;stroke-miterlimit:10;}
	.st5{fill:#0077BF;stroke:#000000;stroke-width:0.5;stroke-miterlimit:10;}
	.st6{fill:#CCCCCC;stroke:#000000;stroke-width:0.5;stroke-miterlimit:10;}
	.st7{fill:#EB058C;stroke:#000000;stroke-width:0.5;stroke-miterlimit:10;}
	.st8{fill:#1A1A1A;}
	.st9{fill:#1A1A1A;stroke:#000000;stroke-width:0.5;stroke-miterlimit:10;}
	.st10{enable-background:new    ;}
</style>
<title>SE1</title>
<g>
	<g id="Layer_6">
		<path class="st0" d="M281,181.9c0,0-2.3-149.8,172.2-172.1c0,0,224.4-26.8,292.3,245c0,0,39.3,119.8-31.8,293.9
			c0,0-73.8,138.2-202.1,175.1c0,0-221.1,67.1-401.3-29.2c0,0-173-120.2-62.8-305.3c0,0,46.5-49.7,131.8-48.1
			c18.3,0.5,36.3-4.8,51.5-15C258.7,306.9,291.7,266.1,281,181.9z"/>
	</g>
	<g id="Layer_10">
		<path class="st1" d="M376.7,240.7c154.1,0,286.6-0.3,347.6-0.8c-61-0.4-193.5-0.8-347.6-0.8s-286.6,0.3-347.6,0.8
			C90,240.4,222.5,240.7,376.7,240.7z"/>
		<path class="st1" d="M376.7,329.2c154.1,0,286.6-0.3,347.6-0.8c-61-0.4-193.5-0.8-347.6-0.8s-286.6,0.3-347.6,0.8
			C90,328.9,222.5,329.2,376.7,329.2z"/>
		<path class="st1" d="M376.7,415.9c154.1,0,286.6-0.3,347.6-0.8c-61-0.4-193.5-0.8-347.6-0.8s-286.6,0.3-347.6,0.8
			C90,415.6,222.5,415.9,376.7,415.9z"/>
		<path class="st1" d="M376.7,504.4c154.1,0,286.6-0.3,347.6-0.8c-61-0.4-193.5-0.8-347.6-0.8s-286.6,0.3-347.6,0.8
			C90,504.1,222.5,504.4,376.7,504.4z"/>
		<path class="st1" d="M376.7,591.2c154.1,0,286.6-0.3,347.6-0.8c-61-0.4-193.5-0.8-347.6-0.8s-286.6,0.3-347.6,0.8
			C90,590.9,222.5,591.2,376.7,591.2z"/>
		<path class="st1" d="M115.9,416.1c0-116.5-0.3-216.7-0.8-262.9c-0.4,46.1-0.8,146.3-0.8,262.9s0.3,216.8,0.8,262.8
			C115.6,632.8,115.9,532.6,115.9,416.1z"/>
		<path class="st1" d="M203.6,416.1c0-116.5-0.3-216.7-0.8-262.9c-0.4,46.1-0.8,146.3-0.8,262.9s0.3,216.8,0.8,262.8
			C203.3,632.8,203.6,532.6,203.6,416.1z"/>
		<path class="st1" d="M289.6,416.1c0-116.6-0.3-216.7-0.7-262.9c-0.4,46.1-0.7,146.2-0.7,262.9s0.3,216.8,0.8,262.8
			C289.3,632.8,289.6,532.6,289.6,416.1z"/>
		<path class="st1" d="M377.4,416.1c0-116.5-0.3-216.7-0.8-262.9c-0.4,46.1-0.8,146.3-0.8,262.9s0.3,216.8,0.8,262.8
			C377.1,632.8,377.4,532.6,377.4,416.1z"/>
		<path class="st1" d="M463.4,416.1c0-116.5-0.3-216.7-0.8-262.9c-0.4,46.1-0.8,146.3-0.8,262.9s0.3,216.8,0.8,262.8
			C463.1,632.8,463.4,532.6,463.4,416.1z"/>
		<path class="st1" d="M551.3,416.1c0-116.5-0.3-216.7-0.8-262.9c-0.4,46.1-0.8,146.3-0.8,262.9s0.3,216.8,0.8,262.8
			C550.9,632.8,551.3,532.6,551.3,416.1z"/>
		<path class="st1" d="M637.2,416.1c0-116.5-0.3-216.7-0.8-262.9c-0.4,46.1-0.7,146.3-0.7,262.9s0.3,216.8,0.7,262.8
			C636.9,632.8,637.2,532.6,637.2,416.1z"/>
		<polygon class="st2" points="690.3,258.2 426.6,556.9 354.2,425 246.8,586 174.9,500.1 56.7,665 63.6,669.8 174.9,513.8 
			247.6,599.7 353.4,441.6 425,571.2 697.3,264.2 		"/>
		<polygon class="st2" points="672.1,259.2 698.8,281.9 708.8,243.5 		"/>
	</g>
	<g id="Layer_8">
		
			<rect x="410.2" y="390.4" transform="matrix(0.7157 -0.6984 0.6984 0.7157 -151.0429 425.4212)" class="st3" width="73.7" height="15.7"/>
		
			<ellipse transform="matrix(0.7157 -0.6984 0.6984 0.7157 -172.196 398.5033)" class="st3" cx="403.4" cy="410.8" rx="18" ry="18.2"/>
		
			<ellipse transform="matrix(0.7157 -0.6984 0.6984 0.7157 -186.0902 437.0609)" class="st3" cx="443.8" cy="447.1" rx="16.1" ry="16.4"/>
		
			<ellipse transform="matrix(0.7157 -0.6984 0.6984 0.7157 -171.2088 422.6828)" class="st3" cx="433.6" cy="421.6" rx="12.6" ry="12.8"/>
		
			<ellipse transform="matrix(0.7157 -0.6984 0.6984 0.7157 -158.904 408.8889)" class="st3" cx="422.8" cy="399.6" rx="8.8" ry="8.9"/>
		
			<ellipse transform="matrix(0.7157 -0.6984 0.6984 0.7157 -161.3522 425.164)" class="st3" cx="441.6" cy="410.8" rx="6" ry="6.1"/>
		
			<ellipse transform="matrix(0.7157 -0.6984 0.6984 0.7157 -194.2209 449.0109)" class="st3" cx="454.4" cy="463.1" rx="6" ry="6.1"/>
		<ellipse transform="matrix(0.7157 -0.6984 0.6984 0.7157 -197.5415 456.6357)" class="st3" cx="462.1" cy="471" rx="6" ry="6.1"/>
		<ellipse transform="matrix(0.7157 -0.6984 0.6984 0.7157 -166.4135 385.2922)" class="st3" cx="390" cy="397.1" rx="6" ry="6.1"/>
		
			<ellipse transform="matrix(0.7157 -0.6984 0.6984 0.7157 -163.3709 378.2204)" class="st3" cx="382.9" cy="389.8" rx="6" ry="6.1"/>
		
			<ellipse transform="matrix(0.7157 -0.6984 0.6984 0.7157 -167.6834 414.8028)" class="st3" cx="425.7" cy="413.4" rx="10.6" ry="10.8"/>
		
			<ellipse transform="matrix(0.7157 -0.6984 0.6984 0.7157 -182.4828 414.1492)" class="st3" cx="417.5" cy="431.2" rx="18.5" ry="18.8"/>
		<path class="st2" d="M520.2,351.6c7-6.8,7.1-18.1,0.3-25.1s-18.1-7.1-25.1-0.3c0,0-31.6,27.6-33.5,57.5
			C491.8,382.5,520.2,351.6,520.2,351.6z"/>
		<path class="st4" d="M520.9,341.9c4.4-4.3,4.5-11.4,0.2-15.9c-4.3-4.4-11.4-4.5-15.9-0.2c0,0-20,17.5-21.3,36.5
			C502.9,361.5,520.9,341.9,520.9,341.9z"/>
		<path class="st5" d="M529.2,263.4c0,0-43.9-15.9-75.3,38c0,0,27.8-14.7,53.3,0.2L529.2,263.4z"/>
		<path class="st5" d="M584.2,319.8c0,0,14.8,44.3-39.8,74.3c0,0,15.4-27.5,1.1-53.3L584.2,319.8z"/>
		<path class="st6" d="M526.9,339.7l-20-20.5c-0.8-0.8-0.9-2.1-0.3-3l3.9-6c0.7-1.1,2.2-1.4,3.3-0.7c0.1,0.1,0.3,0.2,0.4,0.3
			l22.2,22.7c0.9,0.9,0.9,2.5,0,3.4l0,0c-0.1,0.1-0.3,0.2-0.4,0.3l-6.1,3.7C528.9,340.6,527.7,340.5,526.9,339.7z"/>
		<path class="st7" d="M539.1,250.2c0,0-25.8,31.3-34.6,58.8c0,0,22.5,8.2,32.9,33.7c0,0,26.3-3.9,62.5-34.8
			c20.8-17.8,41.7-41.1,54.6-66.4l-44.2-45.2C588.7,205.5,563.4,221.8,539.1,250.2z"/>
		<path class="st7" d="M659.4,184.2c-9.6,0.5-27.5,2.7-49.2,12.1l44.2,45.3c8.3-16.2,13.3-33.1,13.1-49.9c-0.1-4.2-3.6-7.6-7.8-7.5
			H659.4z"/>
		<path class="st5" d="M568.9,278.1c0,0-45.1,16.9-69.1,67.4C499.8,345.5,546.2,330.3,568.9,278.1z"/>
		<circle class="st8" cx="599.5" cy="250.8" r="24.4"/>
		<circle class="st3" cx="599.5" cy="250.8" r="17"/>
		<path class="st3" d="M654.4,241.5c0,0,2.7-5.5,3.1-6.5l-41.1-41.3c0,0-3.7,1.5-6.2,2.5L654.4,241.5z"/>
	</g>
	<g id="Layer_6-2">
		<g id="Layer_2_1_">
			<path class="st9" d="M472.5,156.8c0,0,5.4,3.5,10.2-9c2.4-6.2,3.9-12.7,4.7-19.4c0,0,1.6-11.9,9.6-20c0,0,5.6-7.3,17.3-7.6
				c0,0,10.6-0.6,16.2,8.1c0,0,8.1,10.1,2.5,25.1c-1.1,3-1.7,6.1-1.7,9.3l-20,16.9l-27.8,4.3l-2.9-1.8
				C480.6,163,475.9,163.5,472.5,156.8z"/>
			<path class="st3" d="M514.2,145.9c-0.1,0.2-0.1,0.4,0,0.6s0.2,0.3,0.4,0.4c1.8,1.3,3.8,2.3,5.8,3.2c1.2,0.5,2.7,0.9,3.8,0.3
				c0.7-0.5,1.2-1.2,1.5-1.9l1.6-3.2c-1.2-0.5-1.5-1.9-1.7-3.2c-0.2-1.6-0.3-3.3-0.3-5c-3.1-1.4-6.5-2-9.8-1.8
				c-1.2,0.1-1.7,0.4-1.5,1.6s0.5,2,0.5,3.1C514.6,141.9,514.5,143.9,514.2,145.9z"/>
			<path class="st3" d="M520.1,138.5c3.6,0.5,7.6,0.4,10.2-2c1.9-1.8,2.7-4.6,2.8-7.2c0.1-2.8-0.1-5.7-0.6-8.5
				c-0.2-1.8-0.6-3.6-1.2-5.2c-1.1-2.4-3-4.1-5-5.9c-3.2-2.8-6.7-5.7-10.9-6.2c-2.4-0.1-4.8,0.2-7.1,1c-1.8,0.4-3.4,1-5,1.9
				c-1.2,0.8-2.3,1.9-3.2,3.1c-2.6,3.4-3.8,7.6-3.5,11.8C497.7,132.4,510.6,137.1,520.1,138.5z"/>
			<path class="st8" d="M508.4,137.1c0,0,3.9-17.4-4.1-24.1c0,0,5.2,0.8,8.7-1.2c0,0,9-4.7,14.7,1.8c0,0,2.9,4.2,5.5,5.5l-0.8-3.8
				l-5-6.8l-10.6-5.8l-8.8-0.2l-7.7,5.3l-4.2,6.6l0.3,13.1l7.2,7.5L508.4,137.1z"/>
			<path class="st3" d="M512.1,124.5c0.4-0.1,0.8-0.4,1-0.9c0.1-0.4,0.3-0.9,0.3-1.3c0.1-0.3,0.2-0.6,0.3-0.9s0.3-0.6,0.5-0.8
				c0.6-0.6,1.5-0.8,2.3-0.7c0.8,0.1,1.6,0.4,2.4,0.8"/>
			<path class="st3" d="M522.9,116.8c-0.3-4.5,3.3-3.5,3.3-3.5c0.7,0,1.3-0.4,1.7-1"/>
			<path class="st3" d="M515.2,117c-2.7-0.2-5.1,1.4-6,3.9"/>
			<path class="st3" d="M518.4,114c0.4-1.8,1.6-3.3,3.4-3.9"/>
			<path class="st3" d="M524.1,125.2c0.4-0.6,0.7-1.3,1-2c0.1-0.2,0.1-0.3,0.1-0.5c0-0.4-0.4-0.8-0.8-1l-2-1.2"/>
			<path class="st3" d="M526.2,131.9c0.5-0.2,1-0.3,1.5-0.3c0.2,0,0.4,0,0.5,0c0.7-0.1,1-1,0.9-1.7c-0.2-0.7-0.4-1.3-0.7-2
				c-0.1-0.6-0.2-1.2-0.4-1.7c0-0.2-0.1-0.3-0.3-0.4c-0.3-0.2-0.6,0-0.9,0.2c-1.8,1.3-3.2,3-4.3,5c-0.1,0.1-0.1,0.1-0.1,0.2
				c0,0.4,1.1,0.8,1.5,0.9C524.8,132.2,525.5,132.1,526.2,131.9z"/>
			<path class="st7" d="M529.7,131.2c-0.3,0.6-0.9,1.1-1.6,1.3c-0.7,0.2-1.4,0.3-2.1,0.2c-0.6,0-1.1-0.1-1.6-0.1
				c-0.4,0-0.8-0.1-1.2-0.3c-0.4-0.1-0.7-0.4-0.9-0.8c0.9,0.2,1.8,0.2,2.6,0.1c1.2-0.1,2.3-0.5,3.3-1.2c0.3-0.3,0.7-0.9,1.2-0.7
				S529.9,130.7,529.7,131.2z"/>
			<path class="st7" d="M527.8,124.9c-1.4,0.4-2.7,1.2-3.5,2.5c-0.8,1.2-1.5,2.5-2,3.9c0,0.1,0,0.2,0,0.2c0.1,0.1,0.2,0,0.2,0
				c1.2-0.6,2-1.9,2.9-2.9c0.7-0.8,1.6-1.6,2.6-2.1C528.8,126.1,529.1,124.6,527.8,124.9z"/>
			<path class="st9" d="M483.5,164.8c0,0,14.3,6.3,24.5,1.7l26-18.5l-2.7-4.4"/>
		</g>
		<path class="st3" d="M575.8,242.8c0,0,8.1,24.3,4.2,32.8c0,0-2.7,4.8-12.2,5.8l-44.4,3.4v-7.2l33.9-9c0,0,5.9-1.1,5.3-8.5
			c0,0-3.4-16.5-5-16.9L575.8,242.8z"/>
		<path class="st8" d="M510.9,281.6l9.2-1.4l-6.9,10.1l4,18.6c0,0,3.5-0.7,3.2-5c0,0-1.6-11.4,7.6-18.7l0.2-9.9c0,0-4.7-0.4-7.2,1.1
			c-3.3,1.5-6.9,2.5-10.5,2.9L510.9,281.6z"/>
		<path class="st6" d="M542.5,158.6l21.2-24.2c1.6-1.5,2-4,1-5.9l-13.5-25.4l-5,3.2l7.2,25l-21.6,14.1L542.5,158.6z"/>
		<path class="st6" d="M544,155.2c0,0,7.2,11.3,1.7,17.6c0,0,1.7,13.5,7,15.8c5,2.3,11.4,3.4,20.8,9.9c7.6,5.3,17.4,6.4,26,2.9
			c0,0-9.5,42.7-27.3,53.9c-27.9,17.6-36.9,6.6-59.8,5.5c0,0,6.2-9.8,6.5-19.9s-2.5-12.4-1.6-26.6c0.5-8.4,4.5-20.1,4.5-20.1
			s-1.7-2.2-16.1-20.6c0,0-9.3-10.7-2.7-18c5.9-6.6,27.8-10,27.4-11.6c2.7-0.3,5.3-0.7,7.9-1.3C538.5,142.7,541.8,150.7,544,155.2z"
			/>
		<path class="st3" d="M512.4,149.4c1-1.4,1.4-3.1,1.1-4.8c0,0,10.2,2.9,14.6-1.7c1.4,1,3.2,1.4,4.9,1.2l-3.3,5.5l-5.5,2.4
			C524.2,151.9,514.8,153.7,512.4,149.4z"/>
		<polygon class="st7" points="530.5,143.9 536.6,170.4 539.4,157.4 536.1,154.9 538.8,151.9 538.4,142.7 		"/>
		<path class="st7" d="M501.8,157.2l13.7,6.2l6.5-0.5l0.7,4.5l14,3l-24.2-21.1C512.5,149.3,505,152.3,501.8,157.2z"/>
		<path class="st3" d="M512.4,149.4l24.2,21.1l-6.1-26C530.5,144.4,528.1,151.6,512.4,149.4z"/>
		<path class="st6" d="M501.8,157c0,0-5.2,7.9,5.3,18.1c0,0,26.1-18.9,35-23.2c9.3-4.5,31.4-39.3,31.4-39.3l-3.8-4.5l-33,34.1
			L501.8,157z"/>
		<path class="st3" d="M569.6,108c0,0,8.5-14.4,9.8-14.3s-2.2,6.8-2.1,7.8s3.2,4.7,1.9,6s-5.8,5.1-5.8,5.1L569.6,108z"/>
		<path class="st3" d="M546.2,106.3l5-3.2l-1.1-6.1c0,0-0.6-3.7-5.7-1.1c-4.5,2.3-3.6,5-2,5.9s6.9-0.4,7.1-3.6"/>
		<path class="st3" d="M546.2,106.3c0,0-4.8-3-4.8-4.5s4.8-5,4.9-3.1s-1.8,4-1.8,4"/>
	</g>
	<rect x="26.1" y="155.8" class="st5" width="6" height="541.9"/>
	<rect x="26.1" y="691.8" class="st5" width="724.8" height="6"/>
	<polygon class="st5" points="29.1,134.3 14.7,159.2 43.4,159.2 	"/>
	<polygon class="st5" points="756.3,694.8 731.5,680.4 731.5,709.1 	"/>
	<g class="st10">
		<path d="M686.8,731.7c-0.5-4.5-3.2-6.4-7.8-6.4c-4.5,0-7.1,1.9-7.1,5.2c0,3.5,3.7,4.3,8.5,5.3c5.1,1.1,11.7,2.7,11.7,9.3
			c0,7-6.2,9.5-12.2,9.5c-7.5,0-13-3.5-13-11.1h4c0.2,5.7,4.3,7.7,9.4,7.7c3.7,0,7.8-1.3,7.8-5.7c0-4.1-4-4.9-9.1-6.1
			c-5.1-1.1-11-2-11-8.6c0-6.4,5.7-9,11.4-9c6.7,0,11.3,3.1,11.5,9.9H686.8z"/>
		<path d="M716.7,753.9c-0.8,0.3-1.7,0.4-2.6,0.4c-2.1,0-3.3-1.2-3.3-3.4c-2.3,2.5-4.7,3.6-8.3,3.6c-4.5,0-7.3-2.5-7.3-6.4
			c0-4.1,2.7-6.4,8.1-7.1c5.4-0.7,7.3-0.5,7.3-3.6c0-2.4-1.8-3.8-5.2-3.8c-3.5,0-5.3,1.3-5.7,4.6h-3.7c0.1-4.9,3.7-7.7,9.5-7.7
			c3,0,5.7,0.8,7.2,2.2c1.6,1.5,1.5,3.9,1.5,5.9c0,3.4-0.2,6.8-0.2,10.2c0,1.7,0.4,2.3,1.5,2.3c0.4,0,0.5,0,0.9-0.1V753.9z
			 M705.6,743.5c-2.7,0.4-6.5,0.7-6.5,4.3c0,2.3,1.7,3.8,4.5,3.8c3.5,0,6.9-2.4,6.9-5.3v-4.2C709.2,743.2,707.3,743.3,705.6,743.5z"
			/>
		<path d="M724.2,753.9h-3.8v-31.5h3.8V753.9z"/>
		<path d="M739.6,754.7c-6.7,0-10.7-4.4-10.7-11.8c0-7.4,4.3-12.4,10.6-12.4c7.5,0,10.3,6,10.3,12.5v0.5h-17.1l0,0.3
			c0,4.9,2.7,7.8,7.1,7.8c3.3,0,5.1-1.4,6.1-4.9h3.7C748.4,752,745,754.7,739.6,754.7z M739.4,733.6c-3.7,0-6.2,2.7-6.7,6.9h13.3
			C745.6,736.2,743.1,733.6,739.4,733.6z"/>
		<path d="M766.9,737.8c-0.3-3-2.3-4.2-5.6-4.2c-2.9,0-4.6,1.2-4.6,3.1c0,2.6,3,3,6.1,3.7c3.8,0.9,8.8,2,8.8,6.9
			c0,4.4-3.8,7.3-9.5,7.3c-6.2,0-9.6-2.8-9.8-7.9h3.7c0.2,3.4,2.6,4.8,6.2,4.8c3.4,0,5.6-1.5,5.6-3.8c0-2.5-2.6-3-5.7-3.8
			c-3.9-1-9.2-1.5-9.2-6.7c0-4.1,3.4-6.7,8.7-6.7c5.1,0,9.1,2.5,9.1,7.3H766.9z"/>
	</g>
</g>
</svg>
