<svg version="1.1" id="Layer_1" xmlns="http://www.w3.org/2000/svg" x="0" y="0" viewBox="0 0 785.3 766.5" xml:space="preserve"><style>.st1{fill:#272525}.st2,.st3,.st5,.st6,.st7{fill:#ffe600;stroke:#000;stroke-width:.5;stroke-miterlimit:10}.st3,.st5,.st6,.st7{fill:#fff}.st5,.st6,.st7{fill:#0077bf}.st6,.st7{fill:#ccc}.st7{fill:#eb058c}.st8,.st9{fill:#1a1a1a}.st9{stroke:#000;stroke-width:.5;stroke-miterlimit:10}</style><path d="M281 181.9S278.7 32.1 453.2 9.8c0 0 224.4-26.8 292.3 245 0 0 39.3 119.8-31.8 293.9 0 0-73.8 138.2-202.1 175.1 0 0-221.1 67.1-401.3-29.2 0 0-173-120.2-62.8-305.3 0 0 46.5-49.7 131.8-48.1 18.3.5 36.3-4.8 51.5-15 27.9-19.3 60.9-60.1 50.2-144.3z" fill="#f5f5f5" id="Layer_6"/><g id="Layer_10"><path class="st1" d="M376.7 240.7c154.1 0 286.6-.3 347.6-.8-61-.4-193.5-.8-347.6-.8s-286.6.3-347.6.8c60.9.5 193.4.8 347.6.8zM376.7 329.2c154.1 0 286.6-.3 347.6-.8-61-.4-193.5-.8-347.6-.8s-286.6.3-347.6.8c60.9.5 193.4.8 347.6.8zM376.7 415.9c154.1 0 286.6-.3 347.6-.8-61-.4-193.5-.8-347.6-.8s-286.6.3-347.6.8c60.9.5 193.4.8 347.6.8zM376.7 504.4c154.1 0 286.6-.3 347.6-.8-61-.4-193.5-.8-347.6-.8s-286.6.3-347.6.8c60.9.5 193.4.8 347.6.8zM376.7 591.2c154.1 0 286.6-.3 347.6-.8-61-.4-193.5-.8-347.6-.8s-286.6.3-347.6.8c60.9.5 193.4.8 347.6.8z"/><path class="st1" d="M115.9 416.1c0-116.5-.3-216.7-.8-262.9-.4 46.1-.8 146.3-.8 262.9s.3 216.8.8 262.8c.5-46.1.8-146.3.8-262.8zM203.6 416.1c0-116.5-.3-216.7-.8-262.9-.4 46.1-.8 146.3-.8 262.9s.3 216.8.8 262.8c.5-46.1.8-146.3.8-262.8zM289.6 416.1c0-116.6-.3-216.7-.7-262.9-.4 46.1-.7 146.2-.7 262.9s.3 216.8.8 262.8c.3-46.1.6-146.3.6-262.8zM377.4 416.1c0-116.5-.3-216.7-.8-262.9-.4 46.1-.8 146.3-.8 262.9s.3 216.8.8 262.8c.5-46.1.8-146.3.8-262.8zM463.4 416.1c0-116.5-.3-216.7-.8-262.9-.4 46.1-.8 146.3-.8 262.9s.3 216.8.8 262.8c.5-46.1.8-146.3.8-262.8zM551.3 416.1c0-116.5-.3-216.7-.8-262.9-.4 46.1-.8 146.3-.8 262.9s.3 216.8.8 262.8c.4-46.1.8-146.3.8-262.8zM637.2 416.1c0-116.5-.3-216.7-.8-262.9-.4 46.1-.7 146.3-.7 262.9s.3 216.8.7 262.8c.5-46.1.8-146.3.8-262.8z"/><path class="st2" d="M690.3 258.2L426.6 556.9 354.2 425 246.8 586l-71.9-85.9L56.7 665l6.9 4.8 111.3-156 72.7 85.9 105.8-158.1L425 571.2l272.3-307z"/><path class="st2" d="M672.1 259.2l26.7 22.7 10-38.4z"/></g><g id="Layer_8"><path transform="rotate(-44.299 447.024 398.241)" class="st3" d="M410.2 390.4h73.7v15.7h-73.7z"/><ellipse transform="rotate(-44.299 403.383 410.764)" class="st3" cx="403.4" cy="410.8" rx="18" ry="18.2"/><ellipse transform="rotate(-44.299 443.797 447.11)" class="st3" cx="443.8" cy="447.1" rx="16.1" ry="16.4"/><ellipse transform="rotate(-44.299 433.577 421.642)" class="st3" cx="433.6" cy="421.6" rx="12.6" ry="12.8"/><ellipse transform="rotate(-44.299 422.786 399.63)" class="st3" cx="422.8" cy="399.6" rx="8.8" ry="8.9"/><ellipse transform="rotate(-44.299 441.553 410.776)" class="st3" cx="441.6" cy="410.8" rx="6" ry="6.1"/><ellipse transform="rotate(-44.299 454.41 463.072)" class="st3" cx="454.4" cy="463.1" rx="6" ry="6.1"/><ellipse transform="rotate(-44.299 462.115 470.963)" class="st3" cx="462.1" cy="471" rx="6" ry="6.1"/><ellipse transform="rotate(-44.299 390.047 397.056)" class="st3" cx="390" cy="397.1" rx="6" ry="6.1"/><ellipse transform="rotate(-44.299 382.882 389.783)" class="st3" cx="382.9" cy="389.8" rx="6" ry="6.1"/><ellipse transform="rotate(-44.299 425.66 413.372)" class="st3" cx="425.7" cy="413.4" rx="10.6" ry="10.8"/><ellipse transform="rotate(-44.299 417.458 431.223)" class="st3" cx="417.5" cy="431.2" rx="18.5" ry="18.8"/><path class="st2" d="M520.2 351.6c7-6.8 7.1-18.1.3-25.1s-18.1-7.1-25.1-.3c0 0-31.6 27.6-33.5 57.5 29.9-1.2 58.3-32.1 58.3-32.1z"/><path d="M520.9 341.9c4.4-4.3 4.5-11.4.2-15.9-4.3-4.4-11.4-4.5-15.9-.2 0 0-20 17.5-21.3 36.5 19-.8 37-20.4 37-20.4z" fill="#f2f2f2" stroke="#000" stroke-width=".5" stroke-miterlimit="10"/><path class="st5" d="M529.2 263.4s-43.9-15.9-75.3 38c0 0 27.8-14.7 53.3.2l22-38.2zM584.2 319.8s14.8 44.3-39.8 74.3c0 0 15.4-27.5 1.1-53.3l38.7-21z"/><path class="st6" d="M526.9 339.7l-20-20.5c-.8-.8-.9-2.1-.3-3l3.9-6c.7-1.1 2.2-1.4 3.3-.7.1.1.3.2.4.3l22.2 22.7c.9.9.9 2.5 0 3.4-.1.1-.3.2-.4.3l-6.1 3.7c-1 .7-2.2.6-3-.2z"/><path class="st7" d="M539.1 250.2s-25.8 31.3-34.6 58.8c0 0 22.5 8.2 32.9 33.7 0 0 26.3-3.9 62.5-34.8 20.8-17.8 41.7-41.1 54.6-66.4l-44.2-45.2c-21.6 9.2-46.9 25.5-71.2 53.9z"/><path class="st7" d="M659.4 184.2c-9.6.5-27.5 2.7-49.2 12.1l44.2 45.3c8.3-16.2 13.3-33.1 13.1-49.9-.1-4.2-3.6-7.6-7.8-7.5h-.3z"/><path class="st5" d="M568.9 278.1s-45.1 16.9-69.1 67.4c0 0 46.4-15.2 69.1-67.4z"/><circle class="st8" cx="599.5" cy="250.8" r="24.4"/><circle class="st3" cx="599.5" cy="250.8" r="17"/><path class="st3" d="M654.4 241.5s2.7-5.5 3.1-6.5l-41.1-41.3s-3.7 1.5-6.2 2.5l44.2 45.3z"/></g><g id="Layer_6-2"><g id="Layer_2_1_"><path class="st9" d="M472.5 156.8s5.4 3.5 10.2-9c2.4-6.2 3.9-12.7 4.7-19.4 0 0 1.6-11.9 9.6-20 0 0 5.6-7.3 17.3-7.6 0 0 10.6-.6 16.2 8.1 0 0 8.1 10.1 2.5 25.1-1.1 3-1.7 6.1-1.7 9.3l-20 16.9-27.8 4.3-2.9-1.8c0 .3-4.7.8-8.1-5.9z"/><path class="st3" d="M514.2 145.9c-.1.2-.1.4 0 .6s.2.3.4.4c1.8 1.3 3.8 2.3 5.8 3.2 1.2.5 2.7.9 3.8.3.7-.5 1.2-1.2 1.5-1.9l1.6-3.2c-1.2-.5-1.5-1.9-1.7-3.2-.2-1.6-.3-3.3-.3-5-3.1-1.4-6.5-2-9.8-1.8-1.2.1-1.7.4-1.5 1.6s.5 2 .5 3.1c.1 1.9 0 3.9-.3 5.9z"/><path class="st3" d="M520.1 138.5c3.6.5 7.6.4 10.2-2 1.9-1.8 2.7-4.6 2.8-7.2.1-2.8-.1-5.7-.6-8.5-.2-1.8-.6-3.6-1.2-5.2-1.1-2.4-3-4.1-5-5.9-3.2-2.8-6.7-5.7-10.9-6.2-2.4-.1-4.8.2-7.1 1-1.8.4-3.4 1-5 1.9-1.2.8-2.3 1.9-3.2 3.1-2.6 3.4-3.8 7.6-3.5 11.8 1.1 11.1 14 15.8 23.5 17.2z"/><path class="st8" d="M508.4 137.1s3.9-17.4-4.1-24.1c0 0 5.2.8 8.7-1.2 0 0 9-4.7 14.7 1.8 0 0 2.9 4.2 5.5 5.5l-.8-3.8-5-6.8-10.6-5.8-8.8-.2-7.7 5.3-4.2 6.6.3 13.1 7.2 7.5 4.8 2.1z"/><path class="st3" d="M512.1 124.5c.4-.1.8-.4 1-.9.1-.4.3-.9.3-1.3l.3-.9c.1-.3.3-.6.5-.8.6-.6 1.5-.8 2.3-.7.8.1 1.6.4 2.4.8M522.9 116.8c-.3-4.5 3.3-3.5 3.3-3.5.7 0 1.3-.4 1.7-1M515.2 117c-2.7-.2-5.1 1.4-6 3.9M518.4 114c.4-1.8 1.6-3.3 3.4-3.9M524.1 125.2c.4-.6.7-1.3 1-2 .1-.2.1-.3.1-.5 0-.4-.4-.8-.8-1l-2-1.2M526.2 131.9c.5-.2 1-.3 1.5-.3h.5c.7-.1 1-1 .9-1.7-.2-.7-.4-1.3-.7-2-.1-.6-.2-1.2-.4-1.7 0-.2-.1-.3-.3-.4-.3-.2-.6 0-.9.2-1.8 1.3-3.2 3-4.3 5-.1.1-.1.1-.1.2 0 .4 1.1.8 1.5.9.9.1 1.6 0 2.3-.2z"/><path class="st7" d="M529.7 131.2c-.3.6-.9 1.1-1.6 1.3-.7.2-1.4.3-2.1.2-.6 0-1.1-.1-1.6-.1-.4 0-.8-.1-1.2-.3-.4-.1-.7-.4-.9-.8.9.2 1.8.2 2.6.1 1.2-.1 2.3-.5 3.3-1.2.3-.3.7-.9 1.2-.7s.5 1 .3 1.5z"/><path class="st7" d="M527.8 124.9c-1.4.4-2.7 1.2-3.5 2.5-.8 1.2-1.5 2.5-2 3.9v.2c.1.1.2 0 .2 0 1.2-.6 2-1.9 2.9-2.9.7-.8 1.6-1.6 2.6-2.1.8-.4 1.1-1.9-.2-1.6z"/><path class="st9" d="M483.5 164.8s14.3 6.3 24.5 1.7l26-18.5-2.7-4.4"/></g><path class="st3" d="M575.8 242.8s8.1 24.3 4.2 32.8c0 0-2.7 4.8-12.2 5.8l-44.4 3.4v-7.2l33.9-9s5.9-1.1 5.3-8.5c0 0-3.4-16.5-5-16.9l18.2-.4z"/><path class="st8" d="M510.9 281.6l9.2-1.4-6.9 10.1 4 18.6s3.5-.7 3.2-5c0 0-1.6-11.4 7.6-18.7l.2-9.9s-4.7-.4-7.2 1.1c-3.3 1.5-6.9 2.5-10.5 2.9l.4 2.3z"/><path class="st6" d="M542.5 158.6l21.2-24.2c1.6-1.5 2-4 1-5.9l-13.5-25.4-5 3.2 7.2 25-21.6 14.1 10.7 13.2z"/><path class="st6" d="M544 155.2s7.2 11.3 1.7 17.6c0 0 1.7 13.5 7 15.8 5 2.3 11.4 3.4 20.8 9.9 7.6 5.3 17.4 6.4 26 2.9 0 0-9.5 42.7-27.3 53.9-27.9 17.6-36.9 6.6-59.8 5.5 0 0 6.2-9.8 6.5-19.9s-2.5-12.4-1.6-26.6c.5-8.4 4.5-20.1 4.5-20.1s-1.7-2.2-16.1-20.6c0 0-9.3-10.7-2.7-18 5.9-6.6 27.8-10 27.4-11.6 2.7-.3 5.3-.7 7.9-1.3.2 0 3.5 8 5.7 12.5z"/><path class="st3" d="M512.4 149.4c1-1.4 1.4-3.1 1.1-4.8 0 0 10.2 2.9 14.6-1.7 1.4 1 3.2 1.4 4.9 1.2l-3.3 5.5-5.5 2.4c0-.1-9.4 1.7-11.8-2.6z"/><path class="st7" d="M530.5 143.9l6.1 26.5 2.8-13-3.3-2.5 2.7-3-.4-9.2z"/><path class="st7" d="M501.8 157.2l13.7 6.2 6.5-.5.7 4.5 14 3-24.2-21.1s-7.5 3-10.7 7.9z"/><path class="st3" d="M512.4 149.4l24.2 21.1-6.1-26c0-.1-2.4 7.1-18.1 4.9z"/><path class="st6" d="M501.8 157s-5.2 7.9 5.3 18.1c0 0 26.1-18.9 35-23.2 9.3-4.5 31.4-39.3 31.4-39.3l-3.8-4.5-33 34.1-34.9 14.8z"/><path class="st3" d="M569.6 108s8.5-14.4 9.8-14.3-2.2 6.8-2.1 7.8 3.2 4.7 1.9 6-5.8 5.1-5.8 5.1l-3.8-4.6zM546.2 106.3l5-3.2-1.1-6.1s-.6-3.7-5.7-1.1c-4.5 2.3-3.6 5-2 5.9s6.9-.4 7.1-3.6"/><path class="st3" d="M546.2 106.3s-4.8-3-4.8-4.5 4.8-5 4.9-3.1-1.8 4-1.8 4"/></g><path class="st5" d="M26.1 155.8h6v541.9h-6z"/><path class="st5" d="M26.1 691.8h724.8v6H26.1zM29.1 134.3l-14.4 24.9h28.7z"/><path class="st5" d="M756.3 694.8l-24.8-14.4v28.7z"/><path d="M686.8 731.7c-.5-4.5-3.2-6.4-7.8-6.4-4.5 0-7.1 1.9-7.1 5.2 0 3.5 3.7 4.3 8.5 5.3 5.1 1.1 11.7 2.7 11.7 9.3 0 7-6.2 9.5-12.2 9.5-7.5 0-13-3.5-13-11.1h4c.2 5.7 4.3 7.7 9.4 7.7 3.7 0 7.8-1.3 7.8-5.7 0-4.1-4-4.9-9.1-6.1-5.1-1.1-11-2-11-8.6 0-6.4 5.7-9 11.4-9 6.7 0 11.3 3.1 11.5 9.9h-4.1zM716.7 753.9c-.8.3-1.7.4-2.6.4-2.1 0-3.3-1.2-3.3-3.4-2.3 2.5-4.7 3.6-8.3 3.6-4.5 0-7.3-2.5-7.3-6.4 0-4.1 2.7-6.4 8.1-7.1 5.4-.7 7.3-.5 7.3-3.6 0-2.4-1.8-3.8-5.2-3.8-3.5 0-5.3 1.3-5.7 4.6H696c.1-4.9 3.7-7.7 9.5-7.7 3 0 5.7.8 7.2 2.2 1.6 1.5 1.5 3.9 1.5 5.9 0 3.4-.2 6.8-.2 10.2 0 1.7.4 2.3 1.5 2.3.4 0 .5 0 .9-.1v2.9zm-11.1-10.4c-2.7.4-6.5.7-6.5 4.3 0 2.3 1.7 3.8 4.5 3.8 3.5 0 6.9-2.4 6.9-5.3v-4.2c-1.3 1.1-3.2 1.2-4.9 1.4zM724.2 753.9h-3.8v-31.5h3.8v31.5zM739.6 754.7c-6.7 0-10.7-4.4-10.7-11.8s4.3-12.4 10.6-12.4c7.5 0 10.3 6 10.3 12.5v.5h-17.1v.3c0 4.9 2.7 7.8 7.1 7.8 3.3 0 5.1-1.4 6.1-4.9h3.7c-1.2 5.3-4.6 8-10 8zm-.2-21.1c-3.7 0-6.2 2.7-6.7 6.9H746c-.4-4.3-2.9-6.9-6.6-6.9zM766.9 737.8c-.3-3-2.3-4.2-5.6-4.2-2.9 0-4.6 1.2-4.6 3.1 0 2.6 3 3 6.1 3.7 3.8.9 8.8 2 8.8 6.9 0 4.4-3.8 7.3-9.5 7.3-6.2 0-9.6-2.8-9.8-7.9h3.7c.2 3.4 2.6 4.8 6.2 4.8 3.4 0 5.6-1.5 5.6-3.8 0-2.5-2.6-3-5.7-3.8-3.9-1-9.2-1.5-9.2-6.7 0-4.1 3.4-6.7 8.7-6.7 5.1 0 9.1 2.5 9.1 7.3h-3.8z"/></svg>