<svg xmlns="http://www.w3.org/2000/svg" viewBox="0 0 663.71 579.97"><defs><style>.cls-1{fill:none}.cls-5{fill:#ffe600}.cls-13,.cls-5,.cls-7,.cls-8,.cls-9{stroke:#000;stroke-miterlimit:10;stroke-width:.5px}.cls-7{fill:#e6e6e6}.cls-8{fill:#b3b3b3}.cls-9{fill:#fff}.cls-13{fill:#f2f2f2}</style><clipPath id="clip-path"><path class="cls-1" d="M392.52 110.74h41.7v39.75h-41.7z"/></clipPath><clipPath id="clip-path-2"><path class="cls-1" d="M395.84 53.74h41.7v39.75h-41.7z"/></clipPath><clipPath id="clip-path-3"><path class="cls-1" d="M452.52 53.74h41.7v39.75h-41.7z"/></clipPath><clipPath id="clip-path-4"><path class="cls-1" d="M509.2 53.74h41.7v39.75h-41.7z"/></clipPath><clipPath id="clip-path-5"><path class="cls-1" d="M565.08 53.74h41.7v39.75h-41.7z"/></clipPath><clipPath id="clip-path-6"><path class="cls-1" d="M621.75 53.74h41.7v39.75h-41.7z"/></clipPath></defs><path d="M374.82 395.17s14.05 120-119.65 121.64c0 0-157.07 20.09-206.25-169.87 0 0-28.26-83.68 20.52-206.08 0 0 50.9-97.24 140.56-123.87 0 0 154.51-48.32 281.35 18 0 0 167.89 60 73.39 189.61 0 0-36.49 41.3-103.51 35.68 0 .02-103.08-15.49-86.41 134.89z" fill="#f5f5f5" id="Layer_3" data-name="Layer 3"/><g id="Layer_2" data-name="Layer 2"><ellipse cx="227.54" cy="565.72" rx="227.54" ry="14.25" fill="#ccc"/><g clip-path="url(#clip-path)"><path class="cls-5" d="M394.48 124.19l11.44-1.08a2 2 0 0 0 1.64-1.21l4.1-9.93a2 2 0 0 1 3.64 0l4.07 9.93a1.93 1.93 0 0 0 1.64 1.21l11.44 1.08a2 2 0 0 1 1.11 3.44l-8.62 7.57a2 2 0 0 0-.62 1.94l2.59 10.62a2 2 0 0 1-2.92 2.16l-9.54-5.61a2 2 0 0 0-2 0l-9.54 5.61a2 2 0 0 1-2.92-2.16l2.56-10.62a2 2 0 0 0-.62-1.94l-8.62-7.57a2 2 0 0 1 1.18-3.44zm0 0"/></g><g opacity=".75"><path class="cls-7" d="M74.82 562.12a3.15 3.15 0 0 0 3.08-2.52L164 133.66a3.15 3.15 0 1 0-6.17-1.25l-86.1 425.93a3.14 3.14 0 0 0 3.09 3.77zm63.5 0a3.15 3.15 0 0 0 3.08-2.52l86.12-425.93a3.15 3.15 0 0 0-6.17-1.25l-86.12 425.92a3.14 3.14 0 0 0 3.09 3.77z"/><path class="cls-7" d="M81.82 537.42h61.76a3.15 3.15 0 1 0 0-6.3H81.82a3.15 3.15 0 1 0 0 6.3zm6.61-34.02h61.76a3.15 3.15 0 0 0 0-6.3H88.43a3.15 3.15 0 0 0 0 6.3zm6.62-34.02h61.76a3.15 3.15 0 0 0 0-6.3H95.05a3.15 3.15 0 0 0 0 6.3zm6.62-34.02h61.75a3.15 3.15 0 1 0 0-6.3h-61.75a3.15 3.15 0 1 0 0 6.3zm6.62-34.03H170a3.15 3.15 0 1 0 0-6.3h-61.71a3.15 3.15 0 1 0 0 6.3zm6.62-34.02h61.75a3.15 3.15 0 0 0 0-6.3h-61.75a3.15 3.15 0 0 0 0 6.3zm6.61-34.02h61.76a3.15 3.15 0 0 0 0-6.3h-61.76a3.15 3.15 0 0 0 0 6.3zm6.62-34.02h61.76a3.15 3.15 0 0 0 0-6.3h-61.76a3.15 3.15 0 0 0 0 6.3zm6.62-34.03h61.76a3.15 3.15 0 0 0 0-6.3h-61.76a3.15 3.15 0 0 0 0 6.3zm9.77-34.02h58.61a3.15 3.15 0 0 0 0-6.3h-58.61a3.15 3.15 0 0 0 0 6.3zm6.62-34.02h58.61a3.15 3.15 0 1 0 0-6.3h-58.61a3.15 3.15 0 0 0 0 6.3zm6.61-34.02h58.61a3.15 3.15 0 0 0 0-6.3h-58.61a3.15 3.15 0 0 0 0 6.3z"/></g><path class="cls-8" d="M255.41 562.12a3.29 3.29 0 0 0 .69-.07 3.15 3.15 0 0 0 2.39-3.76L164 132.36a3.15 3.15 0 0 0-6.15 1.37l94.47 425.93a3.15 3.15 0 0 0 3.09 2.46zm63.5 0a3.29 3.29 0 0 0 .69-.07 3.15 3.15 0 0 0 2.39-3.76l-94.47-425.93a3.15 3.15 0 0 0-6.15 1.37l94.47 425.93a3.15 3.15 0 0 0 3.07 2.46z"/><path class="cls-8" d="M251.94 537.42h61.76a3.15 3.15 0 1 0 0-6.3h-61.76a3.15 3.15 0 0 0 0 6.3zm-7.81-34.02h61.76a3.15 3.15 0 0 0 0-6.3h-61.76a3.15 3.15 0 0 0 0 6.3zm-7.81-34.02h61.76a3.15 3.15 0 0 0 0-6.3h-61.76a3.15 3.15 0 0 0 0 6.3zm-7.8-34.02h61.75a3.15 3.15 0 1 0 0-6.3h-61.75a3.15 3.15 0 1 0 0 6.3zm-7.81-34.03h61.75a3.15 3.15 0 0 0 0-6.3h-61.75a3.15 3.15 0 0 0 0 6.3zm-7.81-34.02h61.76a3.15 3.15 0 0 0 0-6.3H212.9a3.15 3.15 0 1 0 0 6.3zm-7.81-34.02h61.76a3.15 3.15 0 0 0 0-6.3h-61.76a3.15 3.15 0 0 0 0 6.3zm-7.8-34.02H259a3.15 3.15 0 0 0 0-6.3h-61.71a3.15 3.15 0 0 0 0 6.3zm-7.81-34.03h61.75a3.15 3.15 0 0 0 0-6.3h-61.75a3.15 3.15 0 0 0 0 6.3zm-4.66-34.02h58.61a3.15 3.15 0 0 0 0-6.3h-58.61a3.15 3.15 0 0 0 0 6.3zM177 197.2h58.61a3.15 3.15 0 0 0 0-6.3H177a3.15 3.15 0 0 0 0 6.3zm-7.79-34.02h58.61a3.15 3.15 0 0 0 0-6.3h-58.61a3.15 3.15 0 0 0 0 6.3z"/><path class="cls-9" d="M386.27 163.41l3-11s8.14-4.89 11.85-9c0 0 .65 3.35-2.89 7l10.42-5.55s5.69-1 2.6 2.4-2.93 6.93-3.53 9.82-11.86 7.65-14.88 12.43-6.57-6.1-6.57-6.1zm-133.9-4.26c-.79-2.61-.27-12.42-5.78-15.66S232.16 141 230.09 124s17.69-21.85 25.13-23.21c6.81-1.25 20.71 19.09 19.76 24-1.46 7.49-7.53 14-7.53 14l4.22 20.63z"/><path d="M262.9 116.16s-4.51-.9-4.87 1.19 2.88 3.92 7.17 6.83c0 0 2.12 10.1-2.36 13.62s-13.24 8.92-13.24 8.92-27.13-9.83-26.31-31.9S248 88.27 260.55 90.34c0 0 3.37 3.63 3.46 7.15.13 5.33-2.81 12.06-1.11 18.67z" stroke="#000" stroke-miterlimit="10" stroke-width=".5"/><path class="cls-9" d="M199.87 160.36l.13-.42c.46-1.54 1.85-6.77-.13-7.31-2.33-.64-10.76-1.69-10.76-1.69l-.37 8.5 5.08 2.51z"/><path d="M252.57 239s-31.74 9.49-30.74 74.75c.19 12.36-.09 29.67-.09 29.67l-3.81 18.16h14.67l1.1-16.53s4.41-18 6-46.29c1-18.23 5.7-15.35 12.39-13.88 5.36 1.18 12.81-.42 14.74-.42 10.17 0-13.46 160-13.46 160l3.86 18.54H275l-5.72-16.53S308 325.95 294.59 245.78c0 0-32.66-11.28-42.02-6.78z" fill="#0077bf" stroke="#000" stroke-miterlimit="10" stroke-width=".5"/><path d="M199.81 157.06L220 185.4s6.69-25.29 17.9-30.46c6.58-3 25.85 1.57 31-9.1.2-.41.71-.66 1.47-.77l-.07-.07a5.2 5.2 0 0 0 .54 0h.75c2.4-.13 8.34-1.05 19.23-6.26 12.34-5.9 59.16 46.61 59.16 46.61l37.49-26.26 5.4 10.39s-34 35.87-46.28 35.19c-8.68-.48-30.34-16.82-42.32-26.39-1.66 19.65-4.71 47.64-9.67 67.49l-42-6.74s1.74-31.91-8.56-44.43c0 0-12.11 12.82-23.17 10.06-12.87-3.2-27.87-43.3-27.87-43.3z" fill="#eb058c" stroke="#000" stroke-miterlimit="10" stroke-width=".5"/><path class="cls-13" d="M274.42 146l-6.42-4.73-17.31 7.95-3.08 4.39s10.73 7.12 26.86-7.26zm21.67 110.79v-17.51l-43.61-5.62-3.04 6.8 46.65 16.33z"/><g clip-path="url(#clip-path-2)"><path class="cls-13" d="M397.8 67.19l11.44-1.08a2 2 0 0 0 1.64-1.21L415 55a2 2 0 0 1 3.64 0l4.07 9.93a1.93 1.93 0 0 0 1.64 1.21l11.44 1.08a2 2 0 0 1 1.11 3.44l-8.62 7.57a2 2 0 0 0-.62 1.94l2.59 10.62a2 2 0 0 1-2.92 2.16l-9.54-5.61a2 2 0 0 0-2 0l-9.54 5.61a2 2 0 0 1-2.92-2.16l2.56-10.62a2 2 0 0 0-.62-1.94l-8.62-7.57a2 2 0 0 1 1.18-3.44zm0 0"/></g><g clip-path="url(#clip-path-3)"><path class="cls-5" d="M454.48 67.19l11.44-1.08a2 2 0 0 0 1.64-1.21l4.1-9.93a2 2 0 0 1 3.64 0l4.07 9.93a1.93 1.93 0 0 0 1.63 1.21l11.44 1.08a2 2 0 0 1 1.11 3.44l-8.62 7.57a2 2 0 0 0-.62 1.94l2.59 10.62a2 2 0 0 1-2.9 2.17l-9.54-5.61a2 2 0 0 0-2 0l-9.54 5.61a2 2 0 0 1-2.92-2.16l2.56-10.62a2 2 0 0 0-.62-1.94l-8.62-7.57a2 2 0 0 1 1.18-3.44zm0 0"/></g><g clip-path="url(#clip-path-4)"><path class="cls-5" d="M511.16 67.19l11.44-1.08a2 2 0 0 0 1.64-1.21l4.1-9.93A2 2 0 0 1 532 55l4 9.9a1.93 1.93 0 0 0 1.64 1.21l11.44 1.08a2 2 0 0 1 1.11 3.44l-8.62 7.57a2 2 0 0 0-.62 1.94l2.59 10.62a2 2 0 0 1-2.92 2.16l-9.54-5.61a2 2 0 0 0-2 0l-9.54 5.61a2 2 0 0 1-2.92-2.16l2.56-10.62a2 2 0 0 0-.62-1.94L510 70.64a2 2 0 0 1 1.18-3.44zm0 0"/></g><g clip-path="url(#clip-path-5)"><path class="cls-5" d="M567 67.19l11.44-1.08a2 2 0 0 0 1.64-1.21l4.1-9.93a2 2 0 0 1 3.64 0l4.07 9.93a1.93 1.93 0 0 0 1.64 1.21L605 67.19a2 2 0 0 1 1.11 3.44l-8.62 7.57a2 2 0 0 0-.62 1.94l2.59 10.62a2 2 0 0 1-2.92 2.16l-9.54-5.6a2 2 0 0 0-2 0l-9.54 5.61a2 2 0 0 1-2.92-2.16l2.56-10.62a2 2 0 0 0-.62-1.94l-8.62-7.57a2 2 0 0 1 1.14-3.45zm0 0"/></g><g clip-path="url(#clip-path-6)"><path class="cls-5" d="M623.72 67.19l11.44-1.08a2 2 0 0 0 1.64-1.21l4.1-9.9a2 2 0 0 1 3.64 0l4.07 9.93a1.93 1.93 0 0 0 1.64 1.21l11.44 1.08a2 2 0 0 1 1.11 3.44l-8.62 7.57a2 2 0 0 0-.62 1.94l2.59 10.62a2 2 0 0 1-2.92 2.16l-9.54-5.61a2 2 0 0 0-2 0l-9.54 5.61a2 2 0 0 1-2.92-2.16l2.56-10.62a2 2 0 0 0-.62-1.94l-8.62-7.57a2 2 0 0 1 1.18-3.44zm0 0"/></g></g></svg>