<svg xmlns="http://www.w3.org/2000/svg" viewBox="0 0 585.79 591.87"><defs><style>.cls-13,.cls-6{stroke:#000;stroke-miterlimit:10}.cls-6{stroke-width:.5px;font-family:MyriadPro-Regular,Myriad Pro;font-size:24px;letter-spacing:.09em}.cls-7{letter-spacing:.1em}.cls-13{fill:none}</style></defs><path d="M292.24 457.2s-27 117.77-153.5 74.51c0 0-154.72-33.71-137.39-229.17 0 0 1.41-88.31 88.39-187.28 0 0 80.54-74.56 173.94-69.6 0 0 161.76 6.26 259 111.27 0 0 138.06 112.82 5.6 203.24 0 0-48.22 26.68-109.49-1.07.06-.02-91.86-49.17-126.55 98.1z" fill="#f5f5f5" id="Layer_4" data-name="Layer 4"/><ellipse cx="283.11" cy="584.59" rx="74.02" ry="7.28" fill="#ccc" id="Layer_5" data-name="Layer 5"/><g id="Layer_2" data-name="Layer 2"><path d="M221.44 330.63v70.22s.51 54.72 57.46 57.46c0 0 49.78 0 57.45-52.93v-74.75h-34v70.22s.68 20.44-22.1 23.37c0 0-24.71 1.39-24.71-26.08v-67.51z" stroke-width=".5" stroke="#000" stroke-miterlimit="10" fill="#eb058c"/><path d="M221.44 358.06h34.05v12.99h-34.05zm80.9 0h34.05v12.99h-34.05z" fill="#fff" stroke-width=".5" stroke="#000" stroke-miterlimit="10"/><text transform="translate(260.37 548.11)" font-family="MyriadPro-Regular,Myriad Pro" font-size="88.51" letter-spacing=".12em" stroke-width=".5" stroke="#000" stroke-miterlimit="10">$</text><text class="cls-6" transform="translate(86.24 20.34)">L<tspan class="cls-7" x="13.39" y="0">eads</tspan></text><text class="cls-6" transform="translate(243.6 20.34)">L<tspan class="cls-7" x="13.39" y="0">eads</tspan></text><text class="cls-6" transform="translate(399.57 20.34)">L<tspan class="cls-7" x="13.39" y="0">eads</tspan></text><text class="cls-6" transform="translate(183.81 66.39)">L<tspan class="cls-7" x="13.39" y="0">eads</tspan></text><text class="cls-6" transform="translate(306.12 66.39)">L<tspan class="cls-7" x="13.39" y="0">eads</tspan></text><path fill="#ffe600" stroke-width=".5" stroke="#000" stroke-miterlimit="10" d="M232.13 292.27l11.04-4.27-2.76 12.1 4.05-1.14-2.98 10.23 2.52-.71-6.06 14.38-.09-10.98-3.4.87.75-9.46-4.04 1.2.97-12.22z"/><path fill="#0077bf" stroke-width=".5" stroke="#000" stroke-miterlimit="10" d="M313.47 292.27l11.04-4.27-2.76 12.1 4.06-1.14-2.99 10.23 2.53-.71-6.06 14.38-.1-10.98-3.4.87.76-9.46-4.05 1.2.97-12.22z"/><path d="M96 131.84s-1.57 57.52 135 112c0 0 24.21 7.35 31 25.72 0 0 20.45 6.12 34.92 0 0 0-1-13.47 28-26.33 0 0 123-50.71 137.5-111.4-.04.01-248.67-14.63-366.42.01z" fill="#f2f2f2" stroke-width=".5" stroke="#000" stroke-miterlimit="10"/><ellipse cx="279.3" cy="131.82" rx="183.2" ry="24.08" fill="#b3b3b3" stroke-width=".5" stroke="#000" stroke-miterlimit="10"/><path d="M279.3 155.9c43.77 0 83.95-2 115.46-5.38-6.85-4.29-55.92-7.62-115.46-7.62s-108.61 3.33-115.46 7.62c31.51 3.36 71.69 5.38 115.46 5.38z" fill="gray"/><path class="cls-13" d="M278.88 34.3v103.41m61.87-59.41l-21.11 59.41M225.98 80.3l21.66 57.41m119.52 0L426.64 34.3m-305 0l79 103.41m172.6-1.25l-6.31 1.73-2.06-6.12m-39.46 3.54l-5.92 2.79-3.1-5.65m-74.55 2.81l5.92 2.79 3.09-5.65m-56.37 4.87l6.51.66 1.03-6.37m81.72 1.97l-4.88 4.36-4.58-4.55m4.6 128.37v50"/><text transform="translate(198.91 206.34)" font-size="36.46" letter-spacing=".1em" font-family="MyriadPro-Regular,Myriad Pro" stroke-width=".5" stroke="#000" stroke-miterlimit="10">Business</text><path class="cls-13" d="M283.74 307.83l-4.88 4.36-4.58-4.55"/></g></svg>