<svg version="1.1" id="Layer_1" xmlns="http://www.w3.org/2000/svg" x="0" y="0" viewBox="0 0 585.7 591.9" xml:space="preserve"><style/><g id="Layer_1_1_"><path d="M292.2 457.3s-27 117.8-153.5 74.5c0 0-154.7-33.7-137.4-229.2 0 0 1.4-88.3 88.4-187.3 0 0 80.5-74.6 173.9-69.6 0 0 161.8 6.3 259 111.3 0 0 138.1 112.8 5.6 203.2 0 0-48.2 26.7-109.5-1.1.2 0-91.8-49.1-126.5 98.2z" fill="#f5f5f5" id="Layer_4"/><ellipse cx="283.1" cy="584.7" rx="74" ry="7.3" fill="#ccc" id="Layer_5"/><g id="Layer_2"><path d="M221.4 330.7v70.2s.5 54.7 57.5 57.5c0 0 49.8 0 57.5-52.9v-74.8h-34v70.2s.7 20.4-22.1 23.4c0 0-24.7 1.4-24.7-26.1v-67.5h-34.2z" fill="#eb058c" stroke="#000" stroke-width=".5" stroke-miterlimit="10"/><path d="M221.4 358.1h34.1v13h-34.1zm80.9 0h34v13h-34z" stroke-width=".5" fill="#fff" stroke="#000" stroke-miterlimit="10"/><path fill="#ffe600" stroke="#000" stroke-width=".5" stroke-miterlimit="10" d="M232.1 292.3l11.1-4.2-2.8 12.1 4.1-1.2-3 10.2 2.5-.7-6.1 14.4v-11l-3.5.9.8-9.4-4 1.1z"/><path fill="#0077bf" stroke="#000" stroke-width=".5" stroke-miterlimit="10" d="M313.5 292.3l11-4.2-2.7 12.1 4-1.2-3 10.2 2.6-.7-6.1 14.4-.1-11-3.4.9.7-9.4-4 1.1z"/><path d="M96 131.9s-1.6 57.5 135 112c0 0 24.2 7.4 31 25.7 0 0 20.5 6.1 34.9 0 0 0-1-13.5 28-26.3 0 0 123-50.7 137.5-111.4 0 0-248.6-14.6-366.4 0z" fill="#f2f2f2" stroke="#000" stroke-width=".5" stroke-miterlimit="10"/><ellipse cx="279.3" cy="131.9" rx="183.2" ry="24.1" fill="#b3b3b3" stroke="#000" stroke-width=".5" stroke-miterlimit="10"/><path d="M279.3 156c43.8 0 84-2 115.5-5.4-6.9-4.3-55.9-7.6-115.5-7.6s-108.6 3.3-115.5 7.6c31.6 3.3 71.7 5.4 115.5 5.4z" fill="gray"/><path d="M278.9 34.4v103.4m61.9-59.4l-21.2 59.4M226 80.4l21.6 57.4m119.6 0l59.4-103.4m-305 0l79 103.4m172.6-1.3l-6.3 1.7-2-6.1m-39.5 3.6l-5.9 2.8-3.1-5.7m-74.6 2.8l6 2.8 3.1-5.6m-56.4 4.8l6.5.7 1-6.4m81.7 2l-4.8 4.3-4.6-4.5m4.6 128.4v50m4.8-4.2l-4.8 4.3-4.6-4.5" fill="none" stroke="#000" stroke-miterlimit="10"/></g></g><path d="M219.3 184.4c4.2 0 8.2 1.7 8.2 6.4 0 2.5-1.5 4.7-3.8 5.5 3.2.7 4.9 3.1 4.9 6.5 0 5.9-4.8 7.2-9.7 7.2h-10.5v-25.6h10.9zm-7.7 11h6.1c2.9 0 6.3-.2 6.3-4.1s-3-4-6-4h-6.4v8.1zm0 11.8h6.8c3.4 0 6.8-.2 6.8-4.7s-3.9-4.4-7.3-4.4h-6.2v9.1zm36.3 2.9H245v-2.9c-1.6 2.3-3.7 3.4-6.4 3.4-3.9 0-6.2-2.2-6.2-6.3v-12.8h3.1v12c0 2.7.8 4.5 3.9 4.5 4 0 5.4-2.9 5.4-6.7v-9.7h3.1v18.5zm15.3-13.2c-.2-2.4-1.9-3.4-4.5-3.4-2.3 0-3.8 1-3.8 2.5 0 2.1 2.4 2.4 4.9 3 3.1.7 7.2 1.6 7.2 5.7 0 3.6-3.1 6-7.7 6-5 0-7.8-2.3-8-6.4h3c.2 2.8 2.1 3.9 5 3.9 2.7 0 4.5-1.2 4.5-3.1 0-2.1-2.1-2.5-4.7-3.1-3.2-.8-7.5-1.2-7.5-5.5 0-3.3 2.8-5.5 7.1-5.5 4.2 0 7.4 2 7.4 5.9h-2.9zm10.5-8.7h-3.1v-3.7h3.1v3.7zm0 21.9h-3.1v-18.6h3.1v18.6zm7.6-15.7c1.5-2.3 3.5-3.4 6.3-3.4 4.5 0 6.2 2.5 6.2 6.7V210h-3.1v-10.9c0-3-.1-5.5-4-5.5-4 0-5.3 3-5.3 6.7v9.7h-3.1v-18.6h2.9v3zm24.9 16.3c-5.5 0-8.7-3.6-8.7-9.6s3.5-10.1 8.6-10.1c6.1 0 8.4 4.9 8.4 10.2v.4h-14v.2c0 4 2.2 6.3 5.8 6.3 2.7 0 4.1-1.2 5-4h3c-.9 4.4-3.7 6.6-8.1 6.6zm-.1-17.2c-3 0-5.1 2.2-5.5 5.7h10.8c-.3-3.6-2.3-5.7-5.3-5.7zm22.4 3.4c-.2-2.4-1.9-3.4-4.5-3.4-2.3 0-3.8 1-3.8 2.5 0 2.1 2.4 2.4 4.9 3 3.1.7 7.2 1.6 7.2 5.7 0 3.6-3.1 6-7.7 6-5 0-7.8-2.3-8-6.4h3c.2 2.8 2.1 3.9 5 3.9 2.7 0 4.5-1.2 4.5-3.1 0-2.1-2.1-2.5-4.7-3.1-3.2-.8-7.5-1.2-7.5-5.5 0-3.3 2.8-5.5 7.1-5.5 4.2 0 7.4 2 7.4 5.9h-2.9zm18 0c-.2-2.4-1.9-3.4-4.5-3.4-2.3 0-3.8 1-3.8 2.5 0 2.1 2.4 2.4 4.9 3 3.1.7 7.2 1.6 7.2 5.7 0 3.6-3.1 6-7.7 6-5 0-7.8-2.3-8-6.4h3c.2 2.8 2.1 3.9 5 3.9 2.7 0 4.5-1.2 4.5-3.1 0-2.1-2.1-2.5-4.7-3.1-3.2-.8-7.5-1.2-7.5-5.5 0-3.3 2.8-5.5 7.1-5.5 4.2 0 7.4 2 7.4 5.9h-2.9z" id="Layer_2-2"/><path d="M412.8 20.4h-11.3V3.3h2.3v15.1h9.1v2zm6.8.4c-3.6 0-5.8-2.4-5.8-6.4s2.3-6.7 5.8-6.7c4.1 0 5.6 3.2 5.6 6.8v.3h-9.3v.1c0 2.6 1.5 4.2 3.9 4.2 1.8 0 2.8-.8 3.3-2.6h2c-.7 2.8-2.5 4.3-5.5 4.3zm-.1-11.5c-2 0-3.4 1.4-3.6 3.8h7.2c-.2-2.3-1.5-3.8-3.6-3.8zm18.8 11.1c-.4.2-.9.2-1.4.2-1.2 0-1.8-.6-1.8-1.8-1.2 1.4-2.6 2-4.5 2-2.4 0-4-1.3-4-3.5s1.5-3.5 4.4-3.9c3-.4 4-.3 4-2 0-1.3-1-2-2.8-2-1.9 0-2.9.7-3.1 2.5h-2c.1-2.6 2-4.2 5.2-4.2 1.7 0 3.1.4 3.9 1.2.9.8.8 2.1.8 3.2 0 1.8-.1 3.7-.1 5.5 0 .9.2 1.2.8 1.2.2 0 .3 0 .5-.1v1.7zm-6-5.7c-1.5.2-3.5.4-3.5 2.4 0 1.3.9 2.1 2.5 2.1 1.9 0 3.8-1.3 3.8-2.9V14c-.9.5-1.9.6-2.8.7zm19.1 5.7h-1.9v-1.8c-.8 1.4-2.2 2.2-4.1 2.2-3.5 0-5.7-2.5-5.7-6.6 0-3.5 1.8-6.5 5.6-6.5 1.8 0 3.1.7 4.1 2V3.3h2v17.1zm-9.6-6.3c0 3 1.5 4.9 3.8 4.9 2.4 0 3.8-1.8 3.8-4.8 0-2.5-1.1-4.8-3.8-4.8-2.4 0-3.8 1.8-3.8 4.7zm19.8-2.5c-.1-1.6-1.3-2.3-3-2.3-1.6 0-2.5.6-2.5 1.7 0 1.4 1.6 1.6 3.3 2 2.1.5 4.8 1.1 4.8 3.8 0 2.4-2 4-5.1 4-3.4 0-5.2-1.5-5.3-4.3h2c.1 1.9 1.4 2.6 3.4 2.6 1.8 0 3-.8 3-2.1 0-1.4-1.4-1.7-3.1-2.1-2.1-.5-5-.8-5-3.6 0-2.2 1.8-3.6 4.7-3.6 2.8 0 4.9 1.3 4.9 4h-2.1z" id="Layer_3"/><path d="M259.8 20.4h-11.3V3.3h2.3v15.1h9.1v2zm6.8.4c-3.6 0-5.8-2.4-5.8-6.4s2.3-6.7 5.8-6.7c4.1 0 5.6 3.2 5.6 6.8v.3h-9.3v.1c0 2.6 1.5 4.2 3.9 4.2 1.8 0 2.8-.8 3.3-2.6h2c-.7 2.8-2.5 4.3-5.5 4.3zm-.1-11.5c-2 0-3.4 1.4-3.6 3.8h7.2c-.2-2.3-1.5-3.8-3.6-3.8zm18.8 11.1c-.4.2-.9.2-1.4.2-1.2 0-1.8-.6-1.8-1.8-1.2 1.4-2.6 2-4.5 2-2.4 0-4-1.3-4-3.5s1.5-3.5 4.4-3.9c3-.4 4-.3 4-2 0-1.3-1-2-2.8-2-1.9 0-2.9.7-3.1 2.5h-2c.1-2.6 2-4.2 5.2-4.2 1.7 0 3.1.4 3.9 1.2.9.8.8 2.1.8 3.2 0 1.8-.1 3.7-.1 5.5 0 .9.2 1.2.8 1.2.2 0 .3 0 .5-.1v1.7zm-6-5.7c-1.5.2-3.5.4-3.5 2.4 0 1.3.9 2.1 2.5 2.1 1.9 0 3.8-1.3 3.8-2.9V14c-.9.5-1.9.6-2.8.7zm19.1 5.7h-1.9v-1.8c-.8 1.4-2.2 2.2-4.1 2.2-3.5 0-5.7-2.5-5.7-6.6 0-3.5 1.8-6.5 5.6-6.5 1.8 0 3.1.7 4.1 2V3.3h2v17.1zm-9.6-6.3c0 3 1.5 4.9 3.8 4.9 2.4 0 3.8-1.8 3.8-4.8 0-2.5-1.1-4.8-3.8-4.8-2.4 0-3.8 1.8-3.8 4.7zm19.8-2.5c-.1-1.6-1.3-2.3-3-2.3-1.6 0-2.5.6-2.5 1.7 0 1.4 1.6 1.6 3.3 2 2.1.5 4.8 1.1 4.8 3.8 0 2.4-2 4-5.1 4-3.4 0-5.2-1.5-5.3-4.3h2c.1 1.9 1.4 2.6 3.4 2.6 1.8 0 3-.8 3-2.1 0-1.4-1.4-1.7-3.1-2.1-2.1-.5-5-.8-5-3.6 0-2.2 1.8-3.6 4.7-3.6 2.8 0 4.9 1.3 4.9 4h-2.1z" id="Layer_3_copy"/><path d="M99.8 20.4H88.5V3.3h2.3v15.1h9.1v2zm6.8.4c-3.6 0-5.8-2.4-5.8-6.4s2.3-6.7 5.8-6.7c4.1 0 5.6 3.2 5.6 6.8v.3h-9.3v.1c0 2.6 1.5 4.2 3.9 4.2 1.8 0 2.8-.8 3.3-2.6h2c-.7 2.8-2.5 4.3-5.5 4.3zm-.1-11.5c-2 0-3.4 1.4-3.6 3.8h7.2c-.2-2.3-1.5-3.8-3.6-3.8zm18.8 11.1c-.4.2-.9.2-1.4.2-1.2 0-1.8-.6-1.8-1.8-1.2 1.4-2.6 2-4.5 2-2.4 0-4-1.3-4-3.5s1.5-3.5 4.4-3.9c3-.4 4-.3 4-2 0-1.3-1-2-2.8-2-1.9 0-2.9.7-3.1 2.5h-2c.1-2.6 2-4.2 5.2-4.2 1.7 0 3.1.4 3.9 1.2.9.8.8 2.1.8 3.2 0 1.8-.1 3.7-.1 5.5 0 .9.2 1.2.8 1.2.2 0 .3 0 .5-.1v1.7zm-6-5.7c-1.5.2-3.5.4-3.5 2.4 0 1.3.9 2.1 2.5 2.1 1.9 0 3.8-1.3 3.8-2.9V14c-.9.5-1.9.6-2.8.7zm19.1 5.7h-1.9v-1.8c-.8 1.4-2.2 2.2-4.1 2.2-3.5 0-5.7-2.5-5.7-6.6 0-3.5 1.8-6.5 5.6-6.5 1.8 0 3.1.7 4.1 2V3.3h2v17.1zm-9.6-6.3c0 3 1.5 4.9 3.8 4.9 2.4 0 3.8-1.8 3.8-4.8 0-2.5-1.1-4.8-3.8-4.8-2.4 0-3.8 1.8-3.8 4.7zm19.8-2.5c-.1-1.6-1.3-2.3-3-2.3-1.6 0-2.5.6-2.5 1.7 0 1.4 1.6 1.6 3.3 2 2.1.5 4.8 1.1 4.8 3.8 0 2.4-2 4-5.1 4-3.4 0-5.2-1.5-5.3-4.3h2c.1 1.9 1.4 2.6 3.4 2.6 1.8 0 3-.8 3-2.1 0-1.4-1.4-1.7-3.1-2.1-2.1-.5-5-.8-5-3.6 0-2.2 1.8-3.6 4.7-3.6 2.8 0 4.9 1.3 4.9 4h-2.1z" id="Layer_3_copy_2"/><path d="M204.8 67.4h-11.3V50.3h2.3v15.1h9.1v2zm6.8.4c-3.6 0-5.8-2.4-5.8-6.4s2.3-6.7 5.8-6.7c4.1 0 5.6 3.2 5.6 6.8v.3h-9.3v.1c0 2.6 1.5 4.2 3.9 4.2 1.8 0 2.8-.8 3.3-2.6h2c-.7 2.8-2.5 4.3-5.5 4.3zm-.1-11.5c-2 0-3.4 1.4-3.6 3.8h7.2c-.2-2.3-1.5-3.8-3.6-3.8zm18.8 11.1c-.4.2-.9.2-1.4.2-1.2 0-1.8-.6-1.8-1.8-1.2 1.4-2.6 2-4.5 2-2.4 0-4-1.3-4-3.5s1.5-3.5 4.4-3.9c3-.4 4-.3 4-2 0-1.3-1-2-2.8-2-1.9 0-2.9.7-3.1 2.5h-2c.1-2.6 2-4.2 5.2-4.2 1.7 0 3.1.4 3.9 1.2.9.8.8 2.1.8 3.2 0 1.8-.1 3.7-.1 5.5 0 .9.2 1.2.8 1.2.2 0 .3 0 .5-.1v1.7zm-6-5.7c-1.5.2-3.5.4-3.5 2.4 0 1.3.9 2.1 2.5 2.1 1.9 0 3.8-1.3 3.8-2.9V61c-.9.5-1.9.6-2.8.7zm19.1 5.7h-1.9v-1.8c-.8 1.4-2.2 2.2-4.1 2.2-3.5 0-5.7-2.5-5.7-6.6 0-3.5 1.8-6.5 5.6-6.5 1.8 0 3.1.7 4.1 2v-6.4h2v17.1zm-9.6-6.3c0 3 1.5 4.9 3.8 4.9 2.4 0 3.8-1.8 3.8-4.8 0-2.5-1.1-4.8-3.8-4.8-2.4 0-3.8 1.8-3.8 4.7zm19.8-2.5c-.1-1.6-1.3-2.3-3-2.3-1.6 0-2.5.6-2.5 1.7 0 1.4 1.6 1.6 3.3 2 2.1.5 4.8 1.1 4.8 3.8 0 2.4-2 4-5.1 4-3.4 0-5.2-1.5-5.3-4.3h2c.1 1.9 1.4 2.6 3.4 2.6 1.8 0 3-.8 3-2.1 0-1.4-1.4-1.7-3.1-2.1-2.1-.5-5-.8-5-3.6 0-2.2 1.8-3.6 4.7-3.6 2.8 0 4.9 1.3 4.9 4h-2.1z" id="Layer_3_copy_3"/><path d="M323.8 67.4h-11.3V50.3h2.3v15.1h9.1v2zm6.8.4c-3.6 0-5.8-2.4-5.8-6.4s2.3-6.7 5.8-6.7c4.1 0 5.6 3.2 5.6 6.8v.3h-9.3v.1c0 2.6 1.5 4.2 3.9 4.2 1.8 0 2.8-.8 3.3-2.6h2c-.7 2.8-2.5 4.3-5.5 4.3zm-.1-11.5c-2 0-3.4 1.4-3.6 3.8h7.2c-.2-2.3-1.5-3.8-3.6-3.8zm18.8 11.1c-.4.2-.9.2-1.4.2-1.2 0-1.8-.6-1.8-1.8-1.2 1.4-2.6 2-4.5 2-2.4 0-4-1.3-4-3.5s1.5-3.5 4.4-3.9c3-.4 4-.3 4-2 0-1.3-1-2-2.8-2-1.9 0-2.9.7-3.1 2.5h-2c.1-2.6 2-4.2 5.2-4.2 1.7 0 3.1.4 3.9 1.2.9.8.8 2.1.8 3.2 0 1.8-.1 3.7-.1 5.5 0 .9.2 1.2.8 1.2.2 0 .3 0 .5-.1v1.7zm-6-5.7c-1.5.2-3.5.4-3.5 2.4 0 1.3.9 2.1 2.5 2.1 1.9 0 3.8-1.3 3.8-2.9V61c-.9.5-1.9.6-2.8.7zm19.1 5.7h-1.9v-1.8c-.8 1.4-2.2 2.2-4.1 2.2-3.5 0-5.7-2.5-5.7-6.6 0-3.5 1.8-6.5 5.6-6.5 1.8 0 3.1.7 4.1 2v-6.4h2v17.1zm-9.6-6.3c0 3 1.5 4.9 3.8 4.9 2.4 0 3.8-1.8 3.8-4.8 0-2.5-1.1-4.8-3.8-4.8-2.4 0-3.8 1.8-3.8 4.7zm19.8-2.5c-.1-1.6-1.3-2.3-3-2.3-1.6 0-2.5.6-2.5 1.7 0 1.4 1.6 1.6 3.3 2 2.1.5 4.8 1.1 4.8 3.8 0 2.4-2 4-5.1 4-3.4 0-5.2-1.5-5.3-4.3h2c.1 1.9 1.4 2.6 3.4 2.6 1.8 0 3-.8 3-2.1 0-1.4-1.4-1.7-3.1-2.1-2.1-.5-5-.8-5-3.6 0-2.2 1.8-3.6 4.7-3.6 2.8 0 4.9 1.3 4.9 4h-2.1zm-91.9 428.3c11.2.2 17.8 5.5 18 16.9h-7.4v-.5c0-6.2-3.5-9.7-10.6-10.2v21.8c10.2 2.9 19.4 5.6 19.4 18.3 0 10.7-7.1 17.6-19.4 18.4v7.3h-4.1v-7.3c-11.4-.5-19.4-6.8-19.4-19.3v-.9h7.5c-.1.5-.1.9-.1 1.1 0 7.9 4.2 12.1 12 12.8v-24.2c-10.6-2-18.1-6.4-18.1-16.9 0-11 8.1-16.4 18.1-17.3v-6.1h4.1v6.1zm-4.1 6.3c-6.7.6-10.8 4.5-10.8 10.4 0 6.7 5.1 9.2 10.8 10.5v-20.9zm4.1 52.2c7-.2 12-5.1 12-12.1 0-7.2-5.8-9.9-12-11.3v23.4z" id="Layer_3_copy_4"/></svg>