<svg xmlns="http://www.w3.org/2000/svg" viewBox="0 0 577.9 708.69"><defs><style>.cls-1{fill:#f5f5f5;}.cls-2,.cls-7{fill:#fff;}.cls-2,.cls-3,.cls-5,.cls-6,.cls-8,.cls-9{stroke:#000;stroke-miterlimit:10;stroke-width:0.5px;}.cls-3{fill:#f2f2f2;}.cls-4{fill:#ccc;}.cls-5{fill:#0077bf;}.cls-8{fill:#eb058c;}.cls-9{fill:#ffe600;}</style></defs><title>partner</title><g id="Layer_4" data-name="Layer 4"><path class="cls-1" d="M526.86,435.52s119.25,97.34-6.79,205.77c0,0-132.05,143.82-346.51,11.28,0,0-100.76-53.1-162.21-202.87,0,0-37.24-128.7,24.76-224.51,0,0,104.71-167.31,284.18-208.75,0,0,213-80,237.23,112.85,0,0,1.63,66.56-67.23,115.08C490.28,244.38,378.31,312.8,526.86,435.52Z"/></g><g id="Layer_8" data-name="Layer 8"><g id="Layer_2" data-name="Layer 2"><path class="cls-2" d="M395,176.07,248,155,209.71,422.42l183.65,26.28,33-230.72Z"/><polygon class="cls-3" points="394.96 176.07 389.57 213.77 426.38 217.98 394.96 176.07"/><path class="cls-3" d="M399.42,242.7,263.73,223.28A2,2,0,0,1,262,221h0a2,2,0,0,1,2.26-1.69L400,238.75a2,2,0,0,1,1.69,2.26h0A2,2,0,0,1,399.42,242.7Z"/><path class="cls-3" d="M378.76,256.8l-99.15-14.19a2,2,0,0,1-1.69-2.26h0a2,2,0,0,1,2.26-1.69l99.15,14.19A2,2,0,0,1,381,255.1h0A2,2,0,0,1,378.76,256.8Z"/><path class="cls-3" d="M394.64,276.13,258.95,256.71a2,2,0,0,1-1.69-2.26h0a2,2,0,0,1,2.26-1.69L395.2,272.17a2,2,0,0,1,1.69,2.26h0A2,2,0,0,1,394.64,276.13Z"/><path class="cls-3" d="M374,290.23,274.82,276a2,2,0,0,1-1.69-2.26h0a2,2,0,0,1,2.26-1.69l99.15,14.19a2,2,0,0,1,1.69,2.26h0A2,2,0,0,1,374,290.23Z"/><path class="cls-3" d="M389.85,309.55,254.16,290.14a2,2,0,0,1-1.69-2.26h0a2,2,0,0,1,2.26-1.69L390.42,305.6a2,2,0,0,1,1.69,2.26h0A2,2,0,0,1,389.85,309.55Z"/><path class="cls-3" d="M369.19,323.65,270,309.47a2,2,0,0,1-1.69-2.26h0a2,2,0,0,1,2.26-1.69l99.15,14.19a2,2,0,0,1,1.69,2.26h0A2,2,0,0,1,369.19,323.65Z"/><path class="cls-3" d="M385.07,343,249.38,323.57a2,2,0,0,1-1.69-2.26h0a2,2,0,0,1,2.26-1.69L385.63,339a2,2,0,0,1,1.69,2.26h0A2,2,0,0,1,385.07,343Z"/><path class="cls-3" d="M364.41,357.08l-99.15-14.19a2,2,0,0,1-1.69-2.26h0a2,2,0,0,1,2.26-1.69L365,353.13a2,2,0,0,1,1.69,2.26h0A2,2,0,0,1,364.41,357.08Z"/><path class="cls-3" d="M380.28,376.41,244.6,357a2,2,0,0,1-1.69-2.26h0a2,2,0,0,1,2.26-1.69l135.69,19.42a2,2,0,0,1,1.69,2.26h0A2,2,0,0,1,380.28,376.41Z"/><path class="cls-3" d="M359.62,390.51l-99.15-14.19a2,2,0,0,1-1.69-2.26h0a2,2,0,0,1,2.26-1.69l99.15,14.19a2,2,0,0,1,1.69,2.26h0A2,2,0,0,1,359.62,390.51Z"/><path class="cls-2" d="M224.54,227.5l-99.39,20.41,37.12,180.8,124.18-25.5-32-156Z"/><polygon class="cls-3" points="224.54 227.5 229.78 252.99 254.42 247.2 224.54 227.5"/><path class="cls-3" d="M242.79,269.32,151,288.15a1.37,1.37,0,0,1-1.61-1.06h0a1.37,1.37,0,0,1,1.06-1.61l91.75-18.84a1.37,1.37,0,0,1,1.61,1.06h0A1.37,1.37,0,0,1,242.79,269.32Z"/><path class="cls-3" d="M232.76,283.15l-67,13.77a1.37,1.37,0,0,1-1.61-1.06h0a1.37,1.37,0,0,1,1.06-1.61l67-13.77a1.37,1.37,0,0,1,1.61,1.06h0A1.37,1.37,0,0,1,232.76,283.15Z"/><path class="cls-3" d="M247.43,291.92l-91.75,18.84a1.37,1.37,0,0,1-1.61-1.06h0a1.37,1.37,0,0,1,1.06-1.61l91.75-18.84a1.37,1.37,0,0,1,1.61,1.06h0A1.37,1.37,0,0,1,247.43,291.92Z"/><path class="cls-3" d="M237.4,305.76l-67,13.77a1.37,1.37,0,0,1-1.61-1.06h0a1.37,1.37,0,0,1,1.06-1.61l67-13.77a1.37,1.37,0,0,1,1.61,1.06h0A1.37,1.37,0,0,1,237.4,305.76Z"/><path class="cls-3" d="M252.07,314.52l-91.75,18.84a1.37,1.37,0,0,1-1.61-1.06h0a1.37,1.37,0,0,1,1.06-1.61l91.75-18.84a1.37,1.37,0,0,1,1.61,1.06h0A1.37,1.37,0,0,1,252.07,314.52Z"/><path class="cls-3" d="M242,328.36l-67,13.77a1.37,1.37,0,0,1-1.61-1.06h0a1.37,1.37,0,0,1,1.06-1.61l67-13.77a1.37,1.37,0,0,1,1.61,1.06h0A1.37,1.37,0,0,1,242,328.36Z"/><path class="cls-3" d="M256.71,337.13,165,356a1.37,1.37,0,0,1-1.61-1.06h0a1.37,1.37,0,0,1,1.06-1.61l91.75-18.84a1.37,1.37,0,0,1,1.61,1.06h0A1.37,1.37,0,0,1,256.71,337.13Z"/><path class="cls-3" d="M246.68,351l-67,13.77a1.37,1.37,0,0,1-1.61-1.06h0a1.37,1.37,0,0,1,1.06-1.61l67-13.77a1.37,1.37,0,0,1,1.61,1.06h0A1.37,1.37,0,0,1,246.68,351Z"/><path class="cls-3" d="M261.36,359.73l-91.75,18.84a1.37,1.37,0,0,1-1.61-1.06h0a1.37,1.37,0,0,1,1.06-1.61l91.75-18.84a1.37,1.37,0,0,1,1.61,1.06h0A1.37,1.37,0,0,1,261.36,359.73Z"/><path class="cls-3" d="M251.32,373.57l-67,13.77a1.37,1.37,0,0,1-1.61-1.06h0a1.37,1.37,0,0,1,1.06-1.61l67-13.77a1.37,1.37,0,0,1,1.61,1.06h0A1.37,1.37,0,0,1,251.32,373.57Z"/></g></g><g id="Layer_3" data-name="Layer 3"><path class="cls-4" d="M426,602c0-8-75-14.48-167.6-14.48-68.87,0-128,3.59-153.8,8.72,4.67,4.92,9.24,9.48,13.66,13.7,30,3.94,81.53,6.54,140.14,6.54C350.94,616.48,426,610,426,602Z"/></g><g id="Layer_6" data-name="Layer 6"><g id="_Group_" data-name="&lt;Group&gt;"><path id="_Path_" data-name="&lt;Path&gt;" class="cls-2" d="M269.75,544.5c-4,3.87-18.94,6-28.14,0s-68.17-40.57-77.55-52.12-6.95-26.81-21-35.48-17.36-11.77-17.36-11.77l43.62-57.31s13.53,9.74,23.81,10.28,20-2.71,31.93,0S264.86,425,264.86,425l81.2,57.78s11.09,10,4.87,22.46-19.75,5.14-29.77,0c0,0,6.49,7,3.79,14.34s-14.88,14.88-28.68,3.25c0,0,0,10-8.12,13.26,0,0-5.46,2.39-15.21.44A11.27,11.27,0,0,1,269.75,544.5Z"/><path id="_Path_2" data-name="&lt;Path&gt;" class="cls-3" d="M342.35,386l-15.88,12.63-21.62-6.87a130.88,130.88,0,0,0-51-5.66l-15.44,1.34A42.67,42.67,0,0,0,223.64,403l-18,31.39s21.29,28.86,50.87-15.51l93.37,68.72L391.45,455Z"/><rect id="_Rectangle_" data-name="&lt;Rectangle&gt;" class="cls-3" x="147.45" y="475.7" width="47.97" height="32.28" rx="14.91" ry="14.91" transform="translate(673.36 631.01) rotate(124.71)"/><path id="_Path_3" data-name="&lt;Path&gt;" class="cls-3" d="M189.49,485.85C195,477.94,205,475.28,211.72,480l2,1.4c6.74,4.67,7.77,15,2.29,22.88L202.8,523.33c-5.48,7.91-15.48,10.57-22.23,5.89l-2-1.4c-6.74-4.67-7.77-15-2.29-22.88"/><polygon id="_Path_4" data-name="&lt;Path&gt;" class="cls-2" points="336.43 380.97 395.6 461.79 425.97 440.87 360.48 360.04 336.43 380.97"/><path class="cls-5" d="M465.51,268.34l-111,85.21,76.13,92.72,58.28-46.9C434.36,338,447.38,293.49,465.51,268.34Z"/><polygon id="_Path_5" data-name="&lt;Path&gt;" class="cls-6" points="180.33 380.97 121.16 461.79 90.78 440.87 156.28 360.04 180.33 380.97"/><path id="_Path_6" data-name="&lt;Path&gt;" class="cls-7" d="M170.41,472.88s8.25-3.38,14,2.93,3.25,10.55,3.25,10.55l-5.83,6-15.92-13S167.91,474.88,170.41,472.88Z"/><path id="_Path_7" data-name="&lt;Path&gt;" class="cls-7" d="M197.75,483.08s8.25-3.38,14,2.93S215,496.56,215,496.56l-5.83,6-15.92-13S195.25,485.08,197.75,483.08Z"/><path id="_Path_8" data-name="&lt;Path&gt;" class="cls-3" d="M208.61,506.06a15,15,0,0,1,18.8-1.48l2,1.4a15,15,0,0,1,3.77,20.75l-11,15.85a15,15,0,0,1-20.75,3.77l-2-1.4a15,15,0,0,1-3.77-20.75"/><path id="_Path_9" data-name="&lt;Path&gt;" class="cls-7" d="M214.74,507.11s8.25-3.38,14,2.93S232,520.6,232,520.6l-5.83,6-15.92-13S212.24,509.11,214.74,507.11Z"/><path id="_Path_10" data-name="&lt;Path&gt;" class="cls-3" d="M231,524.28c5.22-3.13,11.48-3.42,16.16-.17h0c6.74,4.67,7.77,15,2.29,22.88l-2.36,3.4c-5.48,7.91-15.48,10.57-22.23,5.89h0c-5-3.43-6.82-9.89-5.3-16.22"/><path id="_Path_11" data-name="&lt;Path&gt;" class="cls-3" d="M224.91,530"/><path id="_Path_12" data-name="&lt;Path&gt;" class="cls-7" d="M236.31,525.54s6.94-2.84,11.77,2.47,2.73,8.87,2.73,8.87l-4.9,5.06L232.53,531S234.21,527.22,236.31,525.54Z"/><path class="cls-8" d="M150.67,331.94a46.75,46.75,0,0,0-17.84-28.28L26.18,242.39C-.33,294.11-2,352.2,1.76,393.7l6.41,4.68,55,37,27.62,5.53L156.28,360Z"/><circle id="_Path_13" data-name="&lt;Path&gt;" class="cls-9" cx="444.16" cy="424.35" r="5.5"/><circle id="_Path_14" data-name="&lt;Path&gt;" class="cls-9" cx="459.66" cy="413.35" r="5.5"/><circle id="_Path_15" data-name="&lt;Path&gt;" class="cls-9" cx="475.16" cy="402.35" r="5.5"/><path id="_Path_16" data-name="&lt;Path&gt;" class="cls-4" d="M320.95,505.16a4.69,4.69,0,0,1,.49.33,8.12,8.12,0,0,1,1.68.57c-16.63-15-42.21-37.61-45.72-37.2-5.25.61,12,13.62,24.39,22.1,4.39,3,11.31,8.4,17.9,13.68A6.83,6.83,0,0,1,320.95,505.16Z"/><path id="_Path_17" data-name="&lt;Path&gt;" class="cls-4" d="M298,524.27a3.41,3.41,0,0,1,.36.25,5.71,5.71,0,0,1,1.23.44c-12.15-11.65-30.84-29.12-33.4-28.81-3.83.47,8.75,10.55,17.81,17.11,3.2,2.32,8.26,6.51,13.07,10.6A4.83,4.83,0,0,1,298,524.27Z"/><path id="_Path_18" data-name="&lt;Path&gt;" class="cls-4" d="M273.26,536.47a3.41,3.41,0,0,1,.36.25,5.71,5.71,0,0,1,1.23.44C262.7,525.52,244,508,241.45,508.36c-3.83.47,8.75,10.55,17.81,17.11,3.2,2.32,8.26,6.51,13.07,10.6A4.83,4.83,0,0,1,273.26,536.47Z"/></g></g></svg>