<svg xmlns="http://www.w3.org/2000/svg" viewBox="0 0 669.42 624.33"><defs><style>.cls-1{fill:#f5f5f5;}.cls-2{fill:#ccc;}.cls-3{fill:#272525;}.cls-4{fill:#ffe600;}.cls-10,.cls-11,.cls-12,.cls-4,.cls-5,.cls-6,.cls-8,.cls-9{stroke:#000;stroke-miterlimit:10;}.cls-11,.cls-12,.cls-4,.cls-5,.cls-6,.cls-8,.cls-9{stroke-width:0.5px;}.cls-5{fill:#eb058c;}.cls-10,.cls-6{fill:#fff;}.cls-11,.cls-7{fill:#1a1a1a;}.cls-8{fill:#f2f2f2;}.cls-9{fill:#0077bf;}.cls-12{fill:none;}</style></defs><title>sales</title><g id="Layer_6" data-name="Layer 6"><path class="cls-1" d="M266.91,146.37S251.17,1.21,412.76.61c0,0,190-22.65,247.48,207.41,0,0,33.29,101.41-26.93,248.82,0,0-62.51,117-171.13,148.24,0,0-187.21,56.79-339.81-24.69,0,0-202.26-74.28-86.72-229.88,0,0,44.52-49.53,125.46-42C161.11,308.46,285.5,328.26,266.91,146.37Z"/></g><g id="Layer_3" data-name="Layer 3"><ellipse class="cls-2" cx="554.67" cy="573.52" rx="41.14" ry="7.46"/><ellipse class="cls-2" cx="164.25" cy="573.52" rx="76.57" ry="7.46"/></g><g id="Layer_10" data-name="Layer 10"><path class="cls-3" d="M363.2,127c104.85,0,195-.21,236.47-.51-41.52-.3-131.62-.51-236.47-.51s-195,.21-236.46.51C168.18,126.82,258.36,127,363.2,127Z"/><path class="cls-3" d="M363.2,187.23c104.85,0,195-.21,236.47-.51-41.52-.3-131.62-.51-236.47-.51s-195,.21-236.46.51C168.18,187,258.36,187.23,363.2,187.23Z"/><path class="cls-3" d="M363.2,246.24c104.85,0,195-.21,236.47-.51-41.52-.3-131.62-.51-236.47-.51s-195,.21-236.46.51C168.18,246,258.36,246.24,363.2,246.24Z"/><path class="cls-3" d="M363.2,306.44c104.85,0,195-.21,236.47-.51-41.52-.3-131.62-.51-236.47-.51s-195,.21-236.46.51C168.18,306.23,258.36,306.44,363.2,306.44Z"/><path class="cls-3" d="M363.2,365.46c104.85,0,195-.21,236.47-.51-41.52-.3-131.62-.51-236.47-.51s-195,.21-236.46.51C168.18,365.25,258.36,365.46,363.2,365.46Z"/><path class="cls-3" d="M185.78,246.33c0-79.29-.21-147.43-.51-178.83-.3,31.4-.51,99.54-.51,178.83s.21,147.48.51,178.82C185.57,393.81,185.78,325.61,185.78,246.33Z"/><path class="cls-3" d="M245.49,246.33c0-79.29-.21-147.43-.51-178.83-.3,31.4-.51,99.54-.51,178.83s.21,147.48.51,178.82C245.27,393.81,245.49,325.61,245.49,246.33Z"/><path class="cls-3" d="M304,246.33C304,167,303.8,98.9,303.5,67.5,303.2,98.9,303,167,303,246.33s.21,147.48.51,178.82C303.8,393.81,304,325.61,304,246.33Z"/><path class="cls-3" d="M363.72,246.33c0-79.29-.21-147.43-.51-178.83-.3,31.4-.51,99.54-.51,178.83s.21,147.48.51,178.82C363.51,393.81,363.72,325.61,363.72,246.33Z"/><path class="cls-3" d="M422.25,246.33c0-79.29-.21-147.43-.51-178.83-.3,31.4-.51,99.54-.51,178.83s.21,147.48.51,178.82C422,393.81,422.25,325.61,422.25,246.33Z"/><path class="cls-3" d="M482,246.33c0-79.29-.21-147.43-.51-178.83-.3,31.4-.51,99.54-.51,178.83s.21,147.48.51,178.82C481.74,393.81,482,325.61,482,246.33Z"/><path class="cls-3" d="M540.48,246.33c0-79.29-.21-147.43-.51-178.83-.3,31.4-.51,99.54-.51,178.83s.21,147.48.51,178.82C540.27,393.81,540.48,325.61,540.48,246.33Z"/><polygon class="cls-4" points="194.05 336.74 198.83 340.05 276.25 231.56 326.82 291.32 400.38 181.35 450.21 271.46 557.79 151.38 552.82 146.15 550.91 149.45 451.31 261.53 400.93 169.77 326.27 281.76 276.25 221.99 194.05 336.74"/><polygon class="cls-4" points="544.21 143.76 562.76 159.51 569.77 132.8 544.21 143.76"/><path class="cls-5" d="M602.93,126.57l-8-7.48L611,102.15s3.35-3.79-.85-8.56c0,0-4-4.09-8.64.43l-15.7,16.39L578.08,103l15.73-16.73s6.72-7.9,15.83-5.29a23.39,23.39,0,0,1,10.47,7.22s5.59,6.22,3.23,14.28a22.4,22.4,0,0,1-6.5,9.25l-9.12,9.72Z"/><polygon class="cls-6" points="610.58 118.48 602.62 111.03 597.81 116.09 605.8 123.57 610.58 118.48"/><polygon class="cls-6" points="593.54 102.36 585.76 94.92 580.95 100.03 588.7 107.41 593.54 102.36"/><polygon class="cls-7" points="591 131.41 586.73 133.07 589.02 130.91 587.79 129.44 593.69 126.17 590.11 129.56 591 131.41"/><polygon class="cls-7" points="578.08 109.78 573.22 114.32 572.18 112.66 569.83 114.13 572.54 110.95 573.9 112.39 578.08 109.78"/></g><g id="Layer_9" data-name="Layer 9"><path class="cls-8" d="M168.59,429"/><path class="cls-9" d="M190.16,566.08h9l-1.48-154.46-58.11,6.57L124.9,566.08h9l33.3-131.49s1.86-3.23,4.2,0l18.8,131.49h9"/><path class="cls-6" d="M261,306.69l-23,27.43c-4.83,6.12-38.32,9-38.32,9s-6.35,49.32-2.07,68.54c0,0-24,16.61-58.11,6.57l-2.09-51.38-11.65,11.1-11.74,43.21-6-.46,3.24-48.47,26.48-36.45s4.42-3.53,25.52-3.22c0,0,8.22,6.86,14.24,0A110.59,110.59,0,0,1,223,328.06s2.66.23,7.38-3.88L255.81,302l5.18,4.64"/><path class="cls-6" d="M255.81,302,269,289.54c2.43,1.54-6.44,12.33-6.44,12.33s3,2.79-1.57,4.81Z"/><path class="cls-6" d="M114.06,421.12c7.12,4.91-.21,4.59-.21,4.59s-2.58,9.08-4.82,8.89c-3.08-.27-1-13.94-1-13.94Z"/><polygon class="cls-7" points="133.87 566.08 133.87 573.81 129.69 573.81 129.69 571.91 127.07 573.81 107.58 573.81 107.58 573.81 124.9 566.08 133.87 566.08"/><polygon class="cls-7" points="190.16 566.08 190.16 573.81 194.35 573.81 194.35 571.91 196.97 573.81 216.46 573.81 216.46 573.81 199.13 566.08 190.16 566.08"/><path class="cls-6" d="M176.06,327l7.69,7.72-11.68,1.37s-6-6.66-.72-8.46Z"/><polygon class="cls-6" points="169.01 336.32 157.01 336.98 161.17 328.99 168.13 328.06 169.01 336.32"/><path class="cls-5" d="M172.1,335.08l6.37,51-8.65,10.6-7.16-11.55,7.1-49.84S170.77,332.77,172.1,335.08Z"/><path class="cls-6" d="M162.11,329.82a1,1,0,0,0-.12.55,1,1,0,0,0,.29.47,34,34,0,0,0,5.16,4.56c1.11.79,2.47,1.55,3.76,1.11a4.63,4.63,0,0,0,1.93-1.62l2.34-2.86c-1.08-.74-1.1-2.3-1-3.6a51.62,51.62,0,0,1,.79-5.12,20.41,20.41,0,0,0-9.55-4c-1.19-.17-1.8,0-1.85,1.25s0,2.15-.16,3.23A22.33,22.33,0,0,1,162.11,329.82Z"/><path class="cls-6" d="M168.62,323.46c3.49,1.33,7.6,2.16,10.81.24,2.36-1.41,3.73-4.06,4.48-6.7a45.25,45.25,0,0,0,1.3-8.73,19.41,19.41,0,0,0-.08-5.59c-.55-2.62-2.14-4.87-3.71-7-2.57-3.57-5.44-7.33-9.62-8.71a20.67,20.67,0,0,0-7.42-.58,18.36,18.36,0,0,0-5.46.82A12.79,12.79,0,0,0,155,289.6a18,18,0,0,0-6.16,11.15C147.35,312.27,159.28,319.9,168.62,323.46Z"/><path class="cls-10" d="M164,300.08A4.63,4.63,0,0,0,161,305"/><path class="cls-10" d="M178.3,294.83a4.63,4.63,0,0,0-5.66,1"/><path class="cls-6" d="M175.62,309.24a19.63,19.63,0,0,0,1.5-1.76,1.31,1.31,0,0,0,.26-.48c.1-.44-.25-.85-.58-1.17l-1.72-1.7"/><ellipse class="cls-11" cx="167.2" cy="304.83" rx="1.06" ry="1.34" transform="translate(-159.65 186.31) rotate(-41.32)"/><ellipse class="cls-11" cx="177.24" cy="299.89" rx="1.06" ry="1.34" transform="translate(-153.88 191.7) rotate(-41.32)"/><path class="cls-7" d="M157,310.16s-3.35,1.14,2.69,5.13c0,0,.17,4.06,3,5.44,0,0-6.2.06-15.45-9.84,0,0-5.5-9.9,0-17.9,0,0,6.91-10.62,19.83-9.25,0,0,13.82,1.77,15.91,14.1,0,0-5.91-8.2-12.24-9.85,0,0-7.88,7.21-12.63,7.1C158.08,295.1,154.57,298.33,157,310.16Z"/><path class="cls-12" d="M180.64,311.54s-1.75,4.21-7.45,3.23C173.19,314.78,178.48,319.62,180.64,311.54Z"/><path class="cls-12" d="M170.62,313.15a1.9,1.9,0,0,0,.25,1.81"/><path class="cls-12" d="M177.12,298.06a3.91,3.91,0,0,0-1.92,3.16"/><path class="cls-12" d="M166.68,303a4.85,4.85,0,0,0-1.2,3.11"/></g><g id="Layer_8" data-name="Layer 8"><path class="cls-11" d="M610.63,331.23S606,336,598.25,324.49a80.82,80.82,0,0,1-9.1-18.56s-4.27-11.64-14.26-18c0,0-7.34-6.08-19.2-3.74,0,0-10.86,1.83-14.5,11.89,0,0-5.9,12.05,3.1,26a26.45,26.45,0,0,1,3.81,9.06l24,12.62,29.13-1.93,2.5-2.42S608.74,338.76,610.63,331.23Z"/><path class="cls-11" d="M601.28,341.8s-13.08,9.59-24.42,7.25l-30.49-12.84,1.73-5.1"/><path class="cls-6" d="M564.82,329.82a1,1,0,0,1,.12.55,1,1,0,0,1-.29.47,34,34,0,0,1-5.16,4.56c-1.11.79-2.47,1.55-3.76,1.11a4.63,4.63,0,0,1-1.93-1.62L551.46,332c1.08-.74,1.1-2.3,1-3.6a51.62,51.62,0,0,0-.79-5.12,20.41,20.41,0,0,1,9.55-4c1.19-.17,1.8,0,1.85,1.25s0,2.15.16,3.23A22.33,22.33,0,0,0,564.82,329.82Z"/><path class="cls-6" d="M558.31,323.46c-3.49,1.33-7.6,2.16-10.81.24-2.36-1.41-3.73-4.06-4.48-6.7a45.25,45.25,0,0,1-1.3-8.73,19.41,19.41,0,0,1,.08-5.59c.55-2.62,2.14-4.87,3.71-7,2.57-3.57,5.44-7.33,9.62-8.71a20.67,20.67,0,0,1,7.42-.58,18.36,18.36,0,0,1,5.46.82,12.79,12.79,0,0,1,3.94,2.43,18,18,0,0,1,6.16,11.15C579.58,312.27,567.65,319.9,558.31,323.46Z"/><path class="cls-7" d="M569.87,319.38s-7.89-16.73-1.3-25.27c0,0-5.09,2-9.07.74,0,0-10.14-2.76-14.49,5.13,0,0-2,4.89-4.31,6.78l0-4.06,3.48-8,9.48-8.23,8.89-2.15,8.94,3.61,5.8,5.74L580,307l-5.59,9.21Z"/><path class="cls-6" d="M564.24,307.31a1.45,1.45,0,0,1-1.16-.67,8.74,8.74,0,0,1-.64-1.24,5.57,5.57,0,0,0-.54-.86,3.1,3.1,0,0,0-.71-.71,2.88,2.88,0,0,0-2.52-.21,8.09,8.09,0,0,0-2.24,1.34"/><path class="cls-6" d="M552.46,301.72l-.45-1a3.71,3.71,0,0,0-1.6-2,5,5,0,0,0-2.13-.16,2.1,2.1,0,0,1-1.91-.76"/><path class="cls-6" d="M558.42,300.62a6,6,0,0,1,6.91,2.62"/><path class="cls-6" d="M554.52,298.31a5.54,5.54,0,0,0-4.31-3.22"/><path class="cls-6" d="M551.29,310.9a19.63,19.63,0,0,1-1.5-1.76,1.31,1.31,0,0,1-.26-.48c-.1-.44.25-.85.58-1.17l1.72-1.7"/><path class="cls-6" d="M550.68,318.21a6.83,6.83,0,0,0-1.6,0,3.47,3.47,0,0,1-.56.11c-.72,0-1.24-.75-1.3-1.47a19.75,19.75,0,0,1,.21-2.16c0-.61-.11-1.23,0-1.83a.78.78,0,0,1,.19-.46c.24-.23.63-.15.94,0a16.39,16.39,0,0,1,5.48,4.11.47.47,0,0,1,.14.21c.11.44-.94,1-1.28,1.18A5.33,5.33,0,0,1,550.68,318.21Z"/><path class="cls-5" d="M546.94,318.25a2.73,2.73,0,0,0,1.91.94,6.24,6.24,0,0,0,2.16-.27c.54-.15,1.08-.32,1.61-.5a4.55,4.55,0,0,0,1.18-.54,1.64,1.64,0,0,0,.71-1,9.83,9.83,0,0,1-2.65.72,6.15,6.15,0,0,1-3.58-.51c-.39-.2-.86-.72-1.32-.45S546.62,317.84,546.94,318.25Z"/><path class="cls-5" d="M547.49,311.45a6.36,6.36,0,0,1,4.14,1.67,18.91,18.91,0,0,1,2.94,3.47c.05.08.11.18.06.25s-.16.06-.25,0c-1.39-.36-2.45-1.46-3.61-2.3a9.57,9.57,0,0,0-3.12-1.49C546.7,312.85,546,311.48,547.49,311.45Z"/><ellipse class="cls-11" cx="559.73" cy="304.83" rx="1.34" ry="1.06" transform="translate(-38.79 523.91) rotate(-48.68)"/><ellipse class="cls-11" cx="549.69" cy="299.89" rx="1.34" ry="1.06" transform="translate(-38.49 514.69) rotate(-48.68)"/><path class="cls-7" d="M549.11,561.51v12.3H547.3L546,568.65l-3.23,5.16H524.69a23.54,23.54,0,0,0,16.14-12.3Z"/><path class="cls-7" d="M561,561.51v12.3h1.81l1.3-5.16,3.23,5.16h18.08a23.54,23.54,0,0,1-16.15-12.3Z"/><path class="cls-8" d="M561,561.51h8.27s17.06-108.79,15.69-134c-.86-15.93-10.59-24.26-10.59-24.26H535.73s-9.72,8.33-10.59,24.26c-1.36,25.24,15.69,134,15.69,134h8.28s2.63-131.39,6-130C555.07,431.52,562.85,482.54,561,561.51Z"/><path class="cls-5" d="M574.22,403.22C567.82,394.92,580,352,580,352l30.21,53,5.28-3c-18.3-57.8-26-67.09-26-67.09-3.81-3.81-24.55-4.6-24.55-4.6A14.09,14.09,0,0,1,551.46,332c-3.08-2.46-20.75-1.46-20.75-1.46l-26.92-4.64-23.13-29.2-5.39,2.75,22.83,39.09,30.4,9.7s11.8,31.17,7.23,54.94C535.73,403.22,556.86,414.42,574.22,403.22Z"/><path class="cls-5" d="M535.05,356.88s4.8,10,16.22,4.54"/><path class="cls-5" d="M576.27,356.88s-4.8,10-16.22,4.54"/><path class="cls-6" d="M480.66,296.74c4.68-7.27-2-4.15-2-4.15s-5.87-7.39-7.87-6.35c-2.74,1.43,4.44,13.25,4.44,13.25Z"/><path class="cls-6" d="M610.19,405c-4.39,7.44,2.12,4.07,2.12,4.07s6.15,7.15,8.11,6c2.68-1.54-5-13.07-5-13.07Z"/></g></svg>