<svg xmlns="http://www.w3.org/2000/svg" viewBox="0 0 896.58 815.3"><defs><style>.cls-2{fill:#ccc}.cls-10,.cls-4,.cls-5,.cls-6,.cls-7,.cls-8,.cls-9{stroke:#000;stroke-miterlimit:10;stroke-width:.5px}.cls-4{fill:#fff}.cls-5{fill:#f2f2f2}.cls-6{fill:#eb058c}.cls-8{fill:#e6e6e6}.cls-9{fill:#333}.cls-10{fill:#ffe600}.cls-15{letter-spacing:.1em}</style></defs><path d="M377.26 180.08S369-12.46 581.87.64c0 0 252.2-13.51 308.12 294.43 0 0 35.13 136.42-56.84 325.39 0 0-92.38 148.7-238.13 180.53 0 0-251.44 58.71-445.42-61.71 0 0-260-115.21-94.47-310.22 0 0 62.89-61.41 168.85-44.6.02.01 162.13 36.78 153.28-204.38z" fill="#f5f5f5" id="Layer_3" data-name="Layer 3"/><g id="Layer_2" data-name="Layer 2"><g id="_Group_" data-name="&lt;Group&gt;"><ellipse class="cls-2" cx="609.56" cy="329.65" rx="65.65" ry="4.11"/><path id="_Rectangle_" data-name="&lt;Rectangle&gt;" stroke-miterlimit="10" stroke-width=".5" stroke="#000" fill="#0077bf" d="M604.11 57.52h10.18v71.14h-10.18z"/><path id="_Path_" data-name="&lt;Path&gt;" class="cls-4" d="M669.31 149.16c-1.26-32.64-27.67-58.71-60.07-58.71s-58.81 26.07-60.07 58.71z"/><path id="_Path_2" data-name="&lt;Path&gt;" class="cls-4" d="M654.64 325.49h-90.79l-16.33-168.62h123.44l-16.32 168.62z"/><g id="_Group_2" data-name="&lt;Group&gt;"><path id="_Path_3" data-name="&lt;Path&gt;" class="cls-5" d="M651.8 322.41h-85.12l-15.3-165.54h115.73L651.8 322.41z"/></g><g id="_Group_3" data-name="&lt;Group&gt;"><path id="_Path_4" data-name="&lt;Path&gt;" class="cls-6" d="M659.39 276.35l7.45-76.88H551.65l7.44 76.88h100.3z"/></g><circle id="_Path_5" data-name="&lt;Path&gt;" class="cls-4" cx="609.93" cy="238.66" r="33.68"/><circle id="_Path_6" data-name="&lt;Path&gt;" class="cls-4" cx="609.93" cy="238.66" r="29.81"/><g id="_Group_4" data-name="&lt;Group&gt;"><path id="_Path_7" data-name="&lt;Path&gt;" class="cls-7" d="M614.77 250c.05-.26.12-.51.18-.76a3.47 3.47 0 0 0 .09-2.84 1.14 1.14 0 0 1 1.2-.88c1.48-3.44 3.56-6.85 5.07-10.86a2.85 2.85 0 0 1-.15-2.22c.27-1.19.86-2.07 1.32-2h.05a34.08 34.08 0 0 0 .57-8.21c6.2 2.68 9.54 11 7.56 19.65-2.13 9.31-9.6 15.58-16.85 14.26a52.08 52.08 0 0 1 .96-6.14z"/><path id="_Path_8" data-name="&lt;Path&gt;" class="cls-7" d="M621.21 221.69a15.88 15.88 0 0 1-.07 2.77 1.13 1.13 0 0 1-.24 1.89 62.15 62.15 0 0 1-1.32 6.13 31.1 31.1 0 0 1-1.42 3.92 3.05 3.05 0 0 1-.2 2.16c-.42 1.09-1.09 1.85-1.53 1.76a61.26 61.26 0 0 0-3.37 8.6c-.12.44-.22.87-.32 1.29.41.18.54 1.18.28 2.31a3.38 3.38 0 0 1-.94 1.85c0 .49-.07.94-.09 1.35-6.53-2.44-10.11-11-8.08-19.86 2.18-9.5 9.92-15.86 17.3-14.17z"/></g><g id="_Group_5" data-name="&lt;Group&gt;"><path id="_Path_9" data-name="&lt;Path&gt;" class="cls-7" d="M596.83 227.32c0 .2 0 .39.06.59a2.62 2.62 0 0 1-.21 2.13.86.86 0 0 0 .81.78c.77 2.72 2 5.48 2.72 8.63a2.15 2.15 0 0 0-.33 1.64c.08.92.44 1.63.79 1.6a25.72 25.72 0 0 1-.39 6.2c4.91-1.39 8.23-7.27 7.61-14-.66-7.18-5.64-12.62-11.19-12.34a39.31 39.31 0 0 0 .13 4.77z"/><path id="_Path_10" data-name="&lt;Path&gt;" class="cls-7" d="M598.83 249.15a12 12 0 0 0 .23-2.08.85.85 0 0 0 0-1.44 46.91 46.91 0 0 0-.38-4.72 23.47 23.47 0 0 0-.67-3.07 2.3 2.3 0 0 0 .06-1.63c-.21-.86-.63-1.49-1-1.47a46.24 46.24 0 0 1-1.67-6.77c0-.34-.08-.67-.11-1 .33-.09.52-.83.44-1.7a2.55 2.55 0 0 0-.52-1.48c0-.37 0-.71.07-1-5.13 1.17-8.65 7.19-8 14.06.72 7.3 5.86 12.81 11.55 12.3z"/></g><path id="_Rectangle_2" data-name="&lt;Rectangle&gt;" class="cls-4" d="M565.86 325.49h86.75v3.33h-86.75z"/><g id="_Group_6" data-name="&lt;Group&gt;"><path id="_Rectangle_3" data-name="&lt;Rectangle&gt;" class="cls-4" d="M542.49 145.44h133.5v11.43h-133.5z"/></g><g id="_Group_7" data-name="&lt;Group&gt;"><path id="_Path_11" data-name="&lt;Path&gt;" class="cls-4" d="M656.55 136.06c5.16-10.42-15.16-14.68-15.16-14.68-3.38-13.77-19.65-13.77-19.65-13.77 7 8.48-11.26 15.32-31.86 16.36-15.51.78-18.66 6.37-19.27 9.09-22 4.2-17.14 12.38-17.14 12.38h111.68s4.03-5.16-8.6-9.38z"/></g><g id="_Group_8" data-name="&lt;Group&gt;"><circle id="_Path_12" data-name="&lt;Path&gt;" class="cls-4" cx="635.5" cy="124.06" r="1.3"/><circle id="_Path_13" data-name="&lt;Path&gt;" class="cls-4" cx="625.26" cy="133.29" r="1.3"/><circle id="_Path_14" data-name="&lt;Path&gt;" class="cls-4" cx="634.2" cy="128.66" r="1.3"/><circle id="_Path_15" data-name="&lt;Path&gt;" class="cls-4" cx="646.96" cy="136.42" r="1.3"/><circle id="_Path_16" data-name="&lt;Path&gt;" class="cls-4" cx="641.3" cy="138.62" r="1.3"/><circle id="_Path_17" data-name="&lt;Path&gt;" class="cls-4" cx="603.39" cy="133.29" r="1.3"/></g><g id="_Group_9" data-name="&lt;Group&gt;"><path id="_Path_18" data-name="&lt;Path&gt;" class="cls-4" d="M551.38 156.87l1.53 16.52.3 3.26v.36l.23 2.44s18.45 6.21 34.74.09c3-1.14 34.1-8.94 39.44-2.92 1.51 1.7-3.64 7.39 10.84 7.58a75.18 75.18 0 0 0 26.54-4.75l.23-2.44v-.44l1.82-19.7z"/></g></g><g id="_Group_10" data-name="&lt;Group&gt;"><ellipse class="cls-2" cx="275.56" cy="329.65" rx="65.65" ry="4.11"/><g id="_Group_11" data-name="&lt;Group&gt;"><path id="_Path_19" data-name="&lt;Path&gt;" class="cls-4" d="M314.08 328.81h-78a3.19 3.19 0 0 1-3.18-2.88l-14.73-152.65H332l-14.75 152.65a3.19 3.19 0 0 1-3.17 2.88z"/></g><g id="_Group_12" data-name="&lt;Group&gt;"><path id="_Path_20" data-name="&lt;Path&gt;" class="cls-8" d="M325.47 279.96l6.56-68.69H218.17l6.56 68.69h100.74z"/></g><g id="_Group_13" data-name="&lt;Group&gt;"><rect id="_Rectangle_4" data-name="&lt;Rectangle&gt;" class="cls-9" x="212.16" y="161.57" width="125.87" height="11.72" rx="1.64" ry="1.64"/></g><g id="_Group_14" data-name="&lt;Group&gt;"><path id="_Path_21" data-name="&lt;Path&gt;" class="cls-9" d="M326.89 152l-3.65-.57-99.82 8.08a1.41 1.41 0 0 0-1.3 1.41v.62h106v-8.14a1.41 1.41 0 0 0-1.23-1.4z"/></g><circle id="_Path_22" data-name="&lt;Path&gt;" class="cls-4" cx="277.93" cy="244.66" r="22.43"/><circle id="_Path_23" data-name="&lt;Path&gt;" class="cls-4" cx="277.93" cy="244.66" r="19.85"/><g id="_Group_15" data-name="&lt;Group&gt;"><path id="_Path_24" data-name="&lt;Path&gt;" class="cls-7" d="M280.51 252.52c-.06-.18-.12-.35-.18-.52a2.45 2.45 0 0 1-.27-2 .8.8 0 0 0-.91-.53c-1.29-2.31-3-4.55-4.35-7.25a2 2 0 0 0-.06-1.57c-.28-.81-.76-1.39-1.07-1.28a24.05 24.05 0 0 1-1-5.72c-4.16 2.33-5.9 8.4-3.88 14.35 2.17 6.38 7.87 10.24 12.87 8.78a36.75 36.75 0 0 0-1.15-4.26z"/><path id="_Path_25" data-name="&lt;Path&gt;" class="cls-7" d="M273.94 233.1a11.21 11.21 0 0 0 .25 1.94.8.8 0 0 0 .31 1.31 43.86 43.86 0 0 0 1.37 4.21 22 22 0 0 0 1.28 2.65 2.15 2.15 0 0 0 .3 1.5c.37.74.9 1.22 1.2 1.13a43.24 43.24 0 0 1 3 5.8c.12.3.22.59.32.88-.28.15-.3.87 0 1.64a2.39 2.39 0 0 0 .79 1.23c.07.34.12.65.16.94 4.41-2.18 6.3-8.43 4.23-14.53-2.26-6.52-8.15-10.41-13.21-8.7z"/></g></g><g id="_Group_16" data-name="&lt;Group&gt;"><ellipse class="cls-2" cx="683.03" cy="620.81" rx="63.17" ry="3.96"/><path id="_Path_26" data-name="&lt;Path&gt;" class="cls-4" d="M726.41 616.8h-87.37l-15.71-162.26h118.78l-15.7 162.26z"/><g id="_Group_17" data-name="&lt;Group&gt;"><path id="_Path_27" data-name="&lt;Path&gt;" class="cls-5" d="M723.68 613.84h-81.91l-14.73-159.3h111.37l-14.73 159.3z"/></g><path id="_Rectangle_5" data-name="&lt;Rectangle&gt;" class="cls-4" d="M640.98 616.8h83.48v3.2h-83.48z"/><g id="_Group_18" data-name="&lt;Group&gt;"><path id="_Path_28" data-name="&lt;Path&gt;" class="cls-4" d="M627 454.54l1.47 15.89.29 3.14v.35l.22 2.34s17.75 6 33.43.09c2.91-1.09 32.82-8.61 38-2.81 1.45 1.64-3.51 7.11 10.43 7.29a72.35 72.35 0 0 0 25.54-4.57l.22-2.35v-.42l1.75-19z"/></g><path id="_Rectangle_6" data-name="&lt;Rectangle&gt;" class="cls-10" transform="matrix(1 .09 -.09 1 45.75 -59.68)" d="M677.79 358.94h9.79v234.14h-9.79z"/><g id="_Group_19" data-name="&lt;Group&gt;"><path id="_Rectangle_7" data-name="&lt;Rectangle&gt;" class="cls-4" d="M618.49 443.54h128.47v11H618.49z"/></g><g id="_Group_20" data-name="&lt;Group&gt;"><circle id="_Path_29" data-name="&lt;Path&gt;" class="cls-4" cx="700.28" cy="499.67" r="1.94"/><circle id="_Path_30" data-name="&lt;Path&gt;" class="cls-4" cx="685.01" cy="513.45" r="1.94"/><circle id="_Path_31" data-name="&lt;Path&gt;" class="cls-4" cx="698.34" cy="506.54" r="1.94"/><circle id="_Path_32" data-name="&lt;Path&gt;" class="cls-4" cx="717.37" cy="518.11" r="1.94"/><circle id="_Path_33" data-name="&lt;Path&gt;" class="cls-4" cx="708.93" cy="521.4" r="1.94"/><circle id="_Path_34" data-name="&lt;Path&gt;" class="cls-4" cx="652.38" cy="513.45" r="1.94"/></g><g id="_Group_21" data-name="&lt;Group&gt;"><circle id="_Path_35" data-name="&lt;Path&gt;" class="cls-4" cx="670.44" cy="540.09" r="1.94"/><circle id="_Path_36" data-name="&lt;Path&gt;" class="cls-4" cx="685.71" cy="553.87" r="1.94"/><circle id="_Path_37" data-name="&lt;Path&gt;" class="cls-4" cx="672.37" cy="546.96" r="1.94"/><circle id="_Path_38" data-name="&lt;Path&gt;" class="cls-4" cx="653.35" cy="558.53" r="1.94"/><circle id="_Path_39" data-name="&lt;Path&gt;" class="cls-4" cx="661.78" cy="561.82" r="1.94"/><circle id="_Path_40" data-name="&lt;Path&gt;" class="cls-4" cx="718.33" cy="553.87" r="1.94"/></g></g><g id="_Group_22" data-name="&lt;Group&gt;"><ellipse class="cls-2" cx="275.56" cy="620.65" rx="65.65" ry="4.11"/><g id="_Group_23" data-name="&lt;Group&gt;"><path id="_Path_41" data-name="&lt;Path&gt;" class="cls-4" d="M314.08 619.81h-78a3.19 3.19 0 0 1-3.18-2.88l-14.73-152.65H332l-14.75 152.65a3.19 3.19 0 0 1-3.17 2.88z"/></g><g id="_Group_24" data-name="&lt;Group&gt;"><path id="_Path_42" data-name="&lt;Path&gt;" class="cls-8" d="M325.47 570.96l6.56-68.69H218.17l6.56 68.69h100.74z"/></g><g id="_Group_25" data-name="&lt;Group&gt;"><rect id="_Rectangle_8" data-name="&lt;Rectangle&gt;" class="cls-9" x="212.16" y="452.57" width="125.87" height="11.72" rx="1.64" ry="1.64"/></g><g id="_Group_26" data-name="&lt;Group&gt;"><path id="_Path_43" data-name="&lt;Path&gt;" class="cls-9" d="M326.89 443l-3.65-.57-99.82 8.08a1.41 1.41 0 0 0-1.3 1.41v.62h106v-8.14a1.41 1.41 0 0 0-1.23-1.4z"/></g><circle id="_Path_44" data-name="&lt;Path&gt;" class="cls-4" cx="277.93" cy="535.66" r="22.43"/><circle id="_Path_45" data-name="&lt;Path&gt;" class="cls-4" cx="277.93" cy="535.66" r="19.85"/><g id="_Group_27" data-name="&lt;Group&gt;"><path id="_Path_46" data-name="&lt;Path&gt;" class="cls-7" d="M280.51 543.52c-.06-.18-.12-.35-.18-.52a2.45 2.45 0 0 1-.27-2 .8.8 0 0 0-.91-.53c-1.29-2.31-3-4.55-4.35-7.25a2 2 0 0 0-.06-1.57c-.28-.81-.76-1.39-1.07-1.28a24.05 24.05 0 0 1-1-5.72c-4.16 2.33-5.9 8.4-3.88 14.35 2.17 6.38 7.87 10.24 12.87 8.78a36.75 36.75 0 0 0-1.15-4.26z"/><path id="_Path_47" data-name="&lt;Path&gt;" class="cls-7" d="M273.94 524.1a11.21 11.21 0 0 0 .25 1.94.8.8 0 0 0 .31 1.31 43.86 43.86 0 0 0 1.37 4.21 22 22 0 0 0 1.28 2.65 2.15 2.15 0 0 0 .3 1.5c.37.74.9 1.22 1.2 1.13a43.24 43.24 0 0 1 3 5.8c.12.3.22.59.32.88-.28.15-.3.87 0 1.64a2.39 2.39 0 0 0 .79 1.23c.07.34.12.65.16.94 4.41-2.18 6.3-8.43 4.23-14.53-2.26-6.52-8.15-10.41-13.21-8.7z"/></g></g><g id="_Group_28" data-name="&lt;Group&gt;"><ellipse class="cls-2" cx="536.56" cy="620.65" rx="65.65" ry="4.11"/><g id="_Group_29" data-name="&lt;Group&gt;"><path id="_Path_48" data-name="&lt;Path&gt;" class="cls-4" d="M575.08 619.81h-78a3.19 3.19 0 0 1-3.18-2.88l-14.73-152.65H593l-14.75 152.65a3.19 3.19 0 0 1-3.17 2.88z"/></g><g id="_Group_30" data-name="&lt;Group&gt;"><path id="_Path_49" data-name="&lt;Path&gt;" class="cls-6" d="M586.47 570.96l6.56-68.69H479.17l6.56 68.69h100.74z"/></g><g id="_Group_31" data-name="&lt;Group&gt;"><rect id="_Rectangle_9" data-name="&lt;Rectangle&gt;" class="cls-10" x="473.16" y="452.57" width="125.87" height="11.72" rx="1.64" ry="1.64"/></g><g id="_Group_32" data-name="&lt;Group&gt;"><path id="_Path_50" data-name="&lt;Path&gt;" class="cls-10" d="M587.89 443l-3.65-.57-99.82 8.08a1.41 1.41 0 0 0-1.3 1.41v.62h106v-8.14a1.41 1.41 0 0 0-1.23-1.4z"/></g><circle id="_Path_51" data-name="&lt;Path&gt;" class="cls-4" cx="538.93" cy="535.66" r="22.43"/><circle id="_Path_52" data-name="&lt;Path&gt;" class="cls-4" cx="538.93" cy="535.66" r="19.85"/><g id="_Group_33" data-name="&lt;Group&gt;"><path id="_Path_53" data-name="&lt;Path&gt;" class="cls-7" d="M541.51 543.52c-.06-.18-.12-.35-.18-.52a2.45 2.45 0 0 1-.27-2 .8.8 0 0 0-.91-.53c-1.29-2.31-3-4.55-4.35-7.25a2 2 0 0 0-.06-1.57c-.28-.81-.76-1.39-1.07-1.28a24.05 24.05 0 0 1-1-5.72c-4.16 2.33-5.9 8.4-3.88 14.35 2.17 6.38 7.87 10.24 12.87 8.78a36.75 36.75 0 0 0-1.15-4.26z"/><path id="_Path_54" data-name="&lt;Path&gt;" class="cls-7" d="M534.94 524.1a11.21 11.21 0 0 0 .25 1.94.8.8 0 0 0 .31 1.31 43.86 43.86 0 0 0 1.37 4.21 22 22 0 0 0 1.28 2.65 2.15 2.15 0 0 0 .3 1.5c.37.74.9 1.22 1.2 1.13a43.24 43.24 0 0 1 3 5.8c.12.3.22.59.32.88-.28.15-.3.87 0 1.64a2.39 2.39 0 0 0 .79 1.23c.07.34.12.65.16.94 4.41-2.18 6.3-8.43 4.23-14.53-2.26-6.52-8.15-10.41-13.21-8.7z"/></g></g><g id="Layer_5" data-name="Layer 5"><ellipse class="cls-2" cx="617.31" cy="654" rx="42.45" ry="6.14"/><path class="cls-5" d="M573.23 591.73l84.53 1.71-8.43 57.48s-30.78 14.74-63.43.85l-13.81-61.16"/><path d="M587.39 603.16l9.88 52.37m7.28-49.51l4.93 51.18m12.35-51.36l-1.19 51.54m15.57-52.63l-3.87 51.32m14.5-54.53l-5.86 52.55" stroke="#202020" fill="none" stroke-miterlimit="10" stroke-width=".5"/><path class="cls-4" d="M579 600.22s-19.29-11.39-1.3-23.22c0 0-.14-26 27.93-24.84 0 0 16.84-13.4 28.27 4.42 0 0 19.37-2 16.86 17.18 0 0 20.92 11.4 2.71 25 0 0-5.1 4.71-27.41 7.43 0 .03-32.4 1.54-47.06-5.97z"/><circle class="cls-10" cx="621.52" cy="557.26" r="2.07"/><circle class="cls-10" cx="622.52" cy="567.26" r="2.07"/><circle class="cls-10" cx="634.52" cy="572.26" r="2.07"/><circle class="cls-10" cx="643.52" cy="586.26" r="2.07"/><circle class="cls-10" cx="625.52" cy="586.26" r="2.07"/><circle class="cls-10" cx="614.52" cy="576.26" r="2.07"/><circle class="cls-10" cx="609.52" cy="562.26" r="2.07"/><circle class="cls-10" cx="593.52" cy="569.26" r="2.07"/><circle class="cls-10" cx="602.52" cy="575.26" r="2.07"/><circle class="cls-10" cx="599.52" cy="587.26" r="2.07"/><circle class="cls-10" cx="592.52" cy="577.26" r="2.07"/><circle class="cls-10" cx="616.52" cy="595.26" r="2.07"/><path d="M584.65 584.39a9.55 9.55 0 0 0 5 12.47m47.06-10.31a8.76 8.76 0 0 1-4.26 13.27m-2.74-38.43a7.75 7.75 0 0 1 10.44 3.09m-34.34-7.24a9.58 9.58 0 0 0-12 3.79" fill="none" stroke-miterlimit="10" stroke-width=".5" stroke="#000"/><text transform="translate(215.72 729.97)" font-family="MyriadPro-Regular,Myriad Pro" font-size="36.46" letter-spacing=".1em" stroke-miterlimit="10" stroke-width=".5" stroke="#000">be<tspan x="46.3" y="0" letter-spacing=".09em">f</tspan><tspan class="cls-15" x="60.12" y="0">o</tspan><tspan x="83.78" y="0" letter-spacing=".09em">r</tspan><tspan class="cls-15" x="98.98" y="0">e</tspan></text><text transform="translate(565.72 729.97)" font-family="MyriadPro-Bold,Myriad Pro" font-weight="700" font-size="36.46" letter-spacing=".1em" fill="#eb058c">a<tspan x="22.9" y="0" letter-spacing=".11em">f</tspan><tspan x="39.52" y="0">t</tspan><tspan class="cls-15" x="56.36" y="0">er</tspan></text></g></g></svg>