<svg version="1.1" id="Layer_1" xmlns="http://www.w3.org/2000/svg" x="0" y="0" viewBox="0 0 828.5 677.1" xml:space="preserve"><style>.st1{fill:#ccc}.st2{fill:#1a1a1a}.st3{fill:#0077bf;stroke:#000;stroke-miterlimit:10}.st3,.st4{stroke-width:.5}.st4,.st6{fill:#fff;stroke:#000;stroke-miterlimit:10}.st10,.st11,.st12,.st13,.st7,.st8{fill:#1a1a1a;stroke:#000;stroke-width:.5;stroke-miterlimit:10}.st10,.st11,.st12,.st13,.st8{fill:none}.st10,.st11,.st12,.st13{fill:#999}.st11,.st12,.st13{fill:#848484}.st12,.st13{fill:#f2f2f2}.st13{fill:none;stroke:#0077bf;stroke-width:5}.st14{fill:#0077bf}.st15{fill:#f2f2f2}.st16{fill:#eaeaea}.st17{fill:#eb058c}.st18{fill:#b7b7b7}.st19{fill:#bababa;stroke-miterlimit:10}.st19,.st23,.st24,.st25{stroke:#000;stroke-width:.5}.st23{stroke-linejoin:round;fill:#fff}.st24,.st25{fill:#eb058c;stroke-miterlimit:10}.st25{fill:#c10072}</style><path d="M290.4 569.3S152.5 677 49.9 512.8c0 0-143-179.2 55.1-382.9 0 0 82.3-97.9 270.3-129.6 0 0 158.6-10.2 258.9 80.7 0 0 176 154.8 189.3 361.6 0 0 52 252.8-179.4 233.4 0 0-78.6-14.1-122-101.2.1 0-58.2-139.2-231.7-5.5z" fill="#f5f5f5" id="Layer_7"/><ellipse class="st1" cx="380.3" cy="657.4" rx="98.9" ry="12"/><ellipse class="st1" cx="153.3" cy="661.4" rx="88.3" ry="12"/><ellipse class="st1" cx="618.8" cy="661.5" rx="134.1" ry="12"/><path class="st2" d="M604.3 647.4v14.1h-7.7v-3.4l-4.8 3.4h-35.7l31.7-14.1zM548.4 647.4v14.1h-7.7v-3.4l-4.8 3.4h-35.7l31.7-14.1z"/><path class="st3" d="M534.7 349v298.4h13.4L594.3 349z"/><path class="st3" d="M550 349l40.3 298.4h14l6.1-299.7z"/><path class="st4" d="M536.8 222.9l-11 26.6-28.9 32.9-47.7-23.8-6.3 11.1 59 39.9 68.8-68.3z"/><path fill="#ffe600" stroke="#000" stroke-width=".5" stroke-miterlimit="10" d="M532.6 355l-5.2-96.8 9.4-35.3 17.4-8.4h26.2l32.7 11 8 42.1-9.7 86.3z"/><path class="st4" d="M613 225.5l11.5 23.9 9.8 54.8s2.1 9.8-5.1 16.4l-37 64.4-10.3-5 27.3-74.6-3.6-30.5-4.2-28.2 11.6-21.2zM570.7 211.4c1.4-1.9 0-21 0-21h-18.5l2 24.1s12.7 2 16.5-3.1z"/><path class="st4" d="M574.3 204.1l10.8 10.4-12.8 20.8-10.7-17.8-2.9-.6-5.7 18.4-9.8-18.4 8.3-10.5 8.6 7.2z"/><g id="Layer_9"><path class="st4" d="M534.3 162.3c3.7-8.9 2.7-9.1 5.2-13.1 4.2-6.5 8.8-13.4 16.1-16.3 4.2-1.4 8.6-2 13-1.8 3.3-.2 6.5.1 9.7.9 2.6.8 5 2.2 7.2 3.9 6.2 4.7 10.4 11.4 12 19 3.7 20.1-13 34.9-29.1 42.2-6 2.7-16.7 4.3-22.5 1.3-16.3-9.4-15.2-27.5-11.6-36.1z"/><path class="st6" d="M563.3 159.4c4.7.1 10.5 4 11.3 7M541 152.5c3.2-2 8.6-1.3 11.2 1.4"/><path class="st4" d="M549.9 179c-1-.9-1.9-1.9-2.8-3-.2-.2-.4-.5-.5-.8-.2-.8.4-1.5.9-2.1l2.9-3.2"/><ellipse transform="rotate(-54.942 562.453 172.31)" class="st7" cx="562.5" cy="172.3" rx="2.5" ry="2"/><ellipse transform="rotate(-70.61 543.467 164.256)" class="st7" cx="543.5" cy="164.3" rx="2.4" ry="1.9"/><path class="st2" d="M583.9 172.3s6.7-4.2 7.5-.2c.3 1.4-3.5 8.7-11.7 9.6 0 0 1.7 8.4-3.1 11.1 0 0 9.4-1.7 24.6-20.1 0 0 13.9-15.5-6.4-28-1.3-16.8-16.5-27.4-39.1-23.7-10.5 7.6-17.3 19.4-18.8 32.3 0 0 4-10.9 15-14.4 0 0 11.5 17.4 25.8 8.6.2 0 9.3 3.7 6.2 24.8z"/></g><path class="st8" d="M558.8 185.8s-12 1.5-15.6-3c0 0 4.1 17.1 15.6 3z"/><path d="M563.6 375.4c-7.8-2.4-19.6-2.2-20.9 2.2s8.3 11.2 16.1 13.6l4.8-15.8z" fill="#c6c6c6" stroke="#000" stroke-width=".5" stroke-miterlimit="10"/><path transform="rotate(-72.848 562.687 383.646)" class="st10" d="M558.6 382.1h8.1v3.1h-8.1z"/><path transform="rotate(-72.848 581.711 389.52)" class="st10" d="M579.4 371.1h4.6v36.7h-4.6z"/><path class="st8" d="M542.7 377.5l18.5 5.7"/><path class="st4" d="M581.8 380.1s-9.6-1.5-10.7.5 0 3.2-.5 3.9-4.5 4.6-3.1 7.3c.8 1.5 5.7 5.4 9.8 6.9 3.2 1.3 6.8.1 8.7-2.7 1.4-2.3 4.6-7.8 6.2-10.9l-10.4-5zM449.2 258.6s-4.5-7.4-9.7-9-1.4 2.4-1.4 2.4-13.7-5.7-15-2.6c-1.8 4.1 1.1 6.7 19.7 20.3l6.4-11.1z"/><path class="st11" d="M384.2 267.7s6 29.8 4.5 40.6l5.9-9.4-10.4-31.2zM420.2 305.4s-28.6 10.2-37.2 17.1l5.1-9.9 32.1-7.2zM346.1 399.9s-5.9 29.8-4.4 40.6l-5.9-9.4 10.3-31.2zM304.8 429.5s28.1 11.4 36.4 18.6l-4.6-10.1-31.8-8.5zM312.4 333.4s28.6 10.2 37.2 17.1l-5-9.9-32.2-7.2z"/><path class="st11" d="M313.8 272.8s50.8 102.8 56.5 182.8l2.8-56.4c-.1 0-22.3-68.7-59.3-126.4zM339.6 221s6.8 19.1 10.2 35.1 17.8 43.9 17.8 43.9l.7-14.5S356.5 268 352.1 252c-3.1-10.7-7.3-21.1-12.5-31zM435 252.1s-25 11.8-46 52.4c-14 27-15.2 38.4-19.2 43.1l2.7 18.3s10-40.3 19-58c10.3-20 18-36 43.5-55.8zM459 368.9s-78.5 72.7-81.4 86.7l2 34.5c7.5-21.2 17.2-41.5 28.9-60.6 13-20.8 30.3-37.5 50.5-60.6zM304.8 376.2s22 28.9 28.2 51.4 19 83 40 94.2l-3.3-36.2s-26-30.9-28-46.5c-2.8-22.2-22.9-51.8-36.9-62.9z"/><path class="st11" d="M367.7 543.4s.1-208.7-2.2-272.3S394 156.4 394 156.4s-23.3 48.7-23.3 102.6 19.2 281 19.2 281l-22.2 3.4z"/><path transform="rotate(-51.941 396.944 166.25)" class="st12" d="M364 152.4h66v27.7h-66z"/><path transform="rotate(-51.875 395.286 166.82)" class="st13" d="M366.8 157h57.1v19.6h-57.1z"/><circle class="st14" cx="397.1" cy="166.4" r="9.2"/><path class="st15" d="M389.7 160.5c3.2-4.1 9.2-4.8 13.3-1.6s4.8 9.2 1.6 13.3c-3.2 4.1-9.2 4.8-13.3 1.6-4.1-3.2-4.9-9.1-1.6-13.3zm14.5 11.4c3-3.9 2.4-9.5-1.5-12.5s-9.5-2.4-12.5 1.5-2.4 9.5 1.5 12.5c3.8 3 9.4 2.4 12.5-1.5z"/><circle class="st16" cx="397.1" cy="166.4" r="6"/><path class="st17" d="M392.2 162.5c2.2-2.8 6.1-3.2 8.9-1.1 2.8 2.2 3.2 6.1 1.1 8.9-2.2 2.8-6.1 3.2-8.9 1.1-2.8-2.2-3.3-6.2-1.1-8.9zm9.5 7.4c2-2.5 1.5-6.1-1-8.1s-6.1-1.5-8.1 1-1.5 6.1 1 8.1 6.1 1.5 8.1-1z"/><circle class="st18" cx="385" cy="181.5" r="3.5"/><path d="M386.8 183.3c-.3.6-1.1.8-1.7.4-.1 0-.1-.1-.2-.1l.4-.5c.3.3.8.2 1.1-.1 0 0 0-.1.1-.1l-1.4-1.1c-.7.5-1.3.9-2.1.3-.6-.5-.7-1.4-.3-2l.1-.1-.5-.4.2-.2.5.4c.4-.6 1.3-.8 2-.4.1 0 .1.1.2.1h.1l-.4.5-.1-.1c-.4-.3-.9-.3-1.3 0l-.1.1 1.5 1.2c.6-.6 1.3-.8 1.9-.3.6.4.8 1.3.3 1.9 0 .1-.1.1-.1.1l.4.3-.2.2-.4-.1zm-.2-.6c.3-.3.3-.9-.1-1.2-.4-.3-.8-.1-1.2.2l1.3 1zm-3.4-2.3c-.3.4-.3 1 .1 1.3.5.4.9.1 1.3-.2l-1.4-1.1z"/><circle class="st18" cx="408.7" cy="151.3" r="3.5"/><path d="M410.5 153c-.4.6-1.1.8-1.7.4-.1 0-.1-.1-.2-.1l.4-.5c.3.3.8.2 1.1-.1 0 0 0-.1.1-.1l-1.3-1.1c-.7.5-1.3.9-2.1.3-.6-.5-.7-1.4-.3-2 0 0 0-.1.1-.1l-.5-.4.2-.2.5.4c.4-.6 1.3-.8 2-.4.1 0 .1.1.2.1l-.4.5-.1-.1c-.4-.3-.9-.3-1.3 0l-.1.1 1.5 1.2c.6-.6 1.3-.8 1.9-.3.6.5.7 1.3.2 1.9l.4.3-.2.3-.4-.1zm-.2-.6c.3-.4.2-.9-.1-1.2-.4-.3-.8-.1-1.2.2l1.3 1zm-3.4-2.2c-.3.4-.3 1 .1 1.3h.1c.4.3.9.1 1.3-.2l-1.5-1.1z"/><path transform="rotate(-28.003 335.99 219.798)" class="st12" d="M322.2 186.8h27.7v65.9h-27.7z"/><path transform="rotate(-28.003 336.143 219.681)" class="st13" d="M326.4 191.3h19.5v56.8h-19.5z"/><circle class="st14" cx="336.2" cy="219.7" r="9.2"/><path class="st15" d="M327.8 224.1c-2.5-4.6-.7-10.4 3.9-12.8 4.6-2.5 10.4-.7 12.8 3.9 2.5 4.6.7 10.4-3.9 12.8-4.6 2.5-10.3.8-12.8-3.9zm16.2-8.6c-2.3-4.3-7.7-6-12.1-3.7-4.3 2.3-6 7.7-3.7 12.1 2.3 4.3 7.7 6 12.1 3.7 4.4-2.3 6-7.7 3.7-12.1z"/><circle class="st16" cx="336.2" cy="219.7" r="6"/><path class="st17" d="M330.6 222.7c-1.6-3.1-.5-6.9 2.6-8.6 3.1-1.6 6.9-.5 8.6 2.6s.5 6.9-2.6 8.6c-3.1 1.6-7 .4-8.6-2.6zm10.6-5.7c-1.5-2.8-5-3.9-7.8-2.4s-3.9 5-2.4 7.8 5 3.9 7.8 2.4c2.9-1.5 3.9-5 2.4-7.8z"/><circle class="st18" cx="345.1" cy="236.9" r="3.5"/><path d="M347.4 236c.4.6.3 1.3-.3 1.7-.1.1-.2.1-.2.1l-.3-.5c.4-.2.5-.6.4-1 0 0 0-.1-.1-.1l-1.5.8c.2.8.3 1.6-.5 2-.7.4-1.5.2-1.9-.5l-.1-.1-.5.3-.1-.3.5-.3c-.4-.7-.2-1.5.5-1.9 0 0 .1 0 .1-.1h.1l.3.5h-.1c-.5.2-.7.7-.5 1.2v.1l1.7-.9c-.2-.8-.2-1.5.5-1.9.7-.4 1.5-.1 1.8.5v.1l.4-.2.1.3-.3.2zm-.6-.1c-.2-.4-.7-.6-1.1-.4-.5.2-.4.7-.3 1.1l1.4-.7zm-3.4 2.2c.2.4.8.6 1.2.4.5-.3.5-.8.3-1.2l-1.5.8z"/><circle class="st18" cx="327.1" cy="203" r="3.5"/><path d="M329.4 202.1c.4.6.3 1.3-.3 1.7-.1.1-.1.1-.2.1l-.3-.5c.4-.2.5-.6.4-1v-.1l-1.5.8c.2.8.3 1.5-.5 2-.7.4-1.5.1-1.9-.5 0 0 0-.1-.1-.1l-.5.3-.1-.3.5-.3c-.4-.7-.2-1.5.5-1.9 0 0 .1 0 .1-.1h.1l.3.5h-.1c-.5.2-.7.7-.5 1.2 0 0 0 .1.1.1l1.7-.9c-.2-.8-.2-1.5.5-1.9.7-.3 1.5-.1 1.8.6l.4-.2.1.3-.5.2zm-.6-.1c-.2-.4-.7-.6-1.1-.4-.5.2-.4.7-.3 1.1l1.4-.7zm-3.5 2.2c.2.5.8.6 1.2.4.5-.3.5-.8.3-1.2l-1.5.8z"/><path transform="rotate(-28.003 311.78 271.514)" class="st12" d="M297.9 238.5h27.7v66h-27.7z"/><path transform="rotate(-28.003 311.946 271.411)" class="st13" d="M302.2 243h19.5v56.8h-19.5z"/><circle class="st14" cx="312" cy="271.4" r="9.2"/><path class="st15" d="M303.6 275.9c-2.5-4.6-.7-10.4 3.9-12.9s10.4-.7 12.9 3.9.7 10.4-3.9 12.9c-4.7 2.5-10.5.7-12.9-3.9zm16.2-8.7c-2.3-4.4-7.7-6-12.1-3.7-4.4 2.3-6 7.7-3.7 12.1 2.3 4.4 7.7 6 12.1 3.7 4.4-2.3 6-7.7 3.7-12.1z"/><circle class="st16" cx="312" cy="271.4" r="6"/><path class="st17" d="M306.4 274.4c-1.6-3.1-.5-6.9 2.6-8.6 3.1-1.6 6.9-.5 8.6 2.6 1.6 3.1.5 6.9-2.6 8.6-3.1 1.6-7 .5-8.6-2.6zm10.6-5.7c-1.5-2.8-5-3.9-7.8-2.4s-3.9 5-2.4 7.8 5 3.9 7.8 2.4 3.9-5 2.4-7.8z"/><circle class="st18" cx="320.9" cy="288.6" r="3.5"/><path d="M323.2 287.7c.4.6.3 1.3-.3 1.7-.1.1-.1.1-.2.1l-.3-.5c.4-.2.5-.6.4-1 0 0 0-.1-.1-.1l-1.5.8c.2.8.3 1.5-.5 2-.7.4-1.5.1-1.9-.5 0 0 0-.1-.1-.1l-.5.3-.2-.3.5-.3c-.4-.7-.2-1.5.5-1.9 0 0 .1 0 .1-.1h.1l.3.5h-.1c-.5.2-.7.7-.5 1.2 0 0 0 .1.1.1l1.7-.9c-.2-.8-.2-1.5.5-1.9.7-.3 1.5-.1 1.8.6l.4-.2.2.3-.4.2zm-.6 0c-.2-.4-.7-.6-1.1-.4-.5.2-.5.7-.3 1.1l1.4-.7zm-3.4 2.2c.2.5.8.6 1.2.4.5-.3.5-.8.3-1.2l-1.5.8z"/><circle class="st18" cx="302.8" cy="254.7" r="3.5"/><path d="M305.2 253.8c.4.6.3 1.3-.3 1.7-.1.1-.2.1-.2.1l-.3-.5c.4-.2.5-.6.4-1 0 0 0-.1-.1-.1l-1.5.8c.2.8.3 1.5-.5 2-.7.4-1.5.2-1.9-.5l-.1-.1-.5.3-.1-.3.5-.3c-.4-.7-.2-1.5.5-1.9 0 0 .1 0 .1-.1h.1l.3.5h-.1c-.5.2-.7.7-.5 1.2v.1l1.7-.9c-.2-.8-.2-1.5.5-1.9.7-.4 1.5-.1 1.8.5v.1l.4-.2.1.3-.3.2zm-.6-.1c-.2-.4-.7-.6-1.1-.4-.5.2-.4.7-.3 1.1l1.4-.7zm-3.5 2.2c.2.4.8.6 1.2.4.5-.3.5-.8.3-1.2l-1.5.8z"/><path transform="rotate(-48.178 299.398 374.697)" class="st12" d="M285.5 341.7h27.7v65.9h-27.7z"/><path transform="rotate(-48.178 299.514 374.535)" class="st13" d="M289.7 346.1h19.5v56.8h-19.5z"/><circle class="st14" cx="299.4" cy="374.5" r="9.2"/><path class="st15" d="M293.1 381.6c-3.9-3.5-4.2-9.5-.7-13.4 3.5-3.9 9.5-4.2 13.4-.7 3.9 3.5 4.2 9.5.7 13.4-3.5 3.8-9.5 4.2-13.4.7zm12.3-13.7c-3.7-3.3-9.3-3-12.6.7-3.3 3.7-3 9.3.7 12.6 3.7 3.3 9.3 3 12.6-.7 3.3-3.7 3-9.3-.7-12.6z"/><circle class="st16" cx="299.4" cy="374.5" r="6"/><path class="st17" d="M295.2 379.2c-2.6-2.3-2.8-6.3-.5-8.9 2.3-2.6 6.3-2.8 8.9-.5 2.6 2.3 2.8 6.3.5 8.9-2.3 2.6-6.3 2.9-8.9.5zm8.1-9c-2.4-2.1-6-1.9-8.1.5-2.1 2.4-1.9 6 .5 8.1 2.4 2.1 6 1.9 8.1-.4 2.1-2.4 1.9-6.1-.5-8.2z"/><circle class="st18" cx="313.8" cy="387.6" r="3.5"/><path d="M315.6 385.9c.6.4.7 1.2.3 1.7 0 .1-.1.1-.2.2l-.4-.4c.3-.3.3-.8 0-1.1l-.1-.1-1.1 1.3c.4.7.8 1.3.2 2.1-.5.6-1.4.7-2 .2l-.1-.1-.4.4-.2-.2.4-.4c-.6-.5-.7-1.4-.3-2l.1-.1.4.4s-.1 0-.1.1c-.4.3-.4.9-.1 1.3 0 0 0 .1.1.1l1.3-1.4c-.5-.7-.7-1.3-.2-1.9.5-.6 1.3-.6 1.9-.1l.1.1.3-.4.2.2-.1.1zm-.6.2c-.3-.3-.8-.3-1.2 0-.3.4-.2.8.1 1.2l1.1-1.2zm-2.4 3.2c.4.3.9.3 1.3 0 .4-.4.2-.9-.1-1.3l-1.2 1.3z"/><circle class="st18" cx="285.1" cy="361.9" r="3.5"/><path d="M287 360.3c.6.4.7 1.2.3 1.7 0 .1-.1.1-.2.2l-.4-.4c.3-.3.3-.8 0-1.1l-.1-.1-1.1 1.3c.4.7.8 1.3.2 2.1-.5.6-1.4.7-2 .2l-.1-.1-.4.4-.2-.2.4-.4c-.6-.5-.7-1.4-.3-2l.1-.1.4.4-.1.1c-.4.3-.4.9-.1 1.3 0 0 0 .1.1.1l1.3-1.4c-.5-.7-.7-1.3-.2-1.9.5-.6 1.3-.6 1.9-.1l.1.1.3-.4.2.2-.1.1zm-.6.2c-.3-.3-.8-.3-1.2 0-.4.4-.2.8.1 1.2l1.1-1.2zm-2.4 3.2c.4.3.9.3 1.3 0v-.1c.4-.4.2-.9-.1-1.3l-1.2 1.4z"/><path transform="rotate(-72.681 286.423 422.255)" class="st12" d="M272.6 389.3h27.7v65.9h-27.7z"/><path transform="rotate(-72.681 286.456 422.067)" class="st13" d="M276.7 393.7h19.5v56.8h-19.5z"/><circle class="st14" cx="286.4" cy="422.1" r="9.2"/><path class="st15" d="M283.6 431.2c-5-1.6-7.8-6.9-6.2-11.9 1.6-5 6.9-7.8 11.9-6.2 5 1.6 7.8 6.9 6.2 11.9-1.6 4.9-6.9 7.7-11.9 6.2zm5.5-17.6c-4.7-1.4-9.7 1.2-11.1 5.9-1.4 4.7 1.2 9.7 5.9 11.1 4.7 1.4 9.7-1.2 11.1-5.9 1.5-4.7-1.2-9.7-5.9-11.1z"/><circle class="st16" cx="286.4" cy="422.1" r="6"/><path class="st17" d="M284.6 428.1c-3.3-1-5.2-4.6-4.2-7.9s4.6-5.2 7.9-4.2 5.2 4.6 4.2 7.9c-1.1 3.4-4.6 5.3-7.9 4.2zm3.6-11.5c-3-.9-6.3.8-7.2 3.8-.9 3 .8 6.3 3.8 7.2 3 .9 6.2-.7 7.2-3.8.9-3-.8-6.2-3.8-7.2z"/><circle class="st18" cx="304.9" cy="428" r="3.5"/><path d="M305.9 425.8c.7.1 1.1.8 1 1.4 0 .1 0 .2-.1.3l-.5-.2c.1-.4 0-.8-.4-1h-.1l-.5 1.6c.7.5 1.3.9 1 1.8-.2.7-1 1.2-1.7 1h-.1l-.2.5-.3-.1.2-.5c-.8-.2-1.2-.9-1.1-1.7 0-.1 0-.1.1-.2v-.1l.5.2v.1c-.2.5 0 1 .5 1.2h.1l.6-1.8c-.7-.4-1.2-.9-1-1.7.2-.7 1-1.1 1.7-.9l.1-.5.3.1-.1.5zm-.5.4c-.4-.2-.9.1-1 .5-.2.5.2.8.6 1l.4-1.5zm-.9 4c.5.2 1-.1 1.2-.6v-.1c.2-.5-.2-.9-.6-1.1l-.6 1.8z"/><circle class="st18" cx="268.2" cy="416.6" r="3.5"/><path d="M269.2 414.3c.7.1 1.1.8 1 1.4 0 .1 0 .2-.1.3l-.5-.2c.1-.4 0-.8-.4-1h-.1l-.5 1.6c.7.5 1.3.9 1 1.8-.2.8-1 1.2-1.8 1h-.1l-.2.5-.3-.1.2-.5c-.8-.2-1.2-.9-1.1-1.7 0-.1 0-.1.1-.2v-.1l.5.2v.1c-.2.5 0 1 .5 1.2h.1l.6-1.8c-.7-.4-1.2-.9-1-1.7.2-.7 1-1.1 1.7-.9l.1-.5.3.1v.5zm-.4.4c-.4-.1-.9.1-1 .5-.2.5.2.8.6 1l.4-1.5zm-1 4c.5.2 1-.1 1.2-.6.2-.5-.2-.9-.6-1.1l-.6 1.7z"/><path transform="rotate(-44.529 436.88 244.754)" class="st12" d="M403.9 230.9h66v27.7h-66z"/><path transform="rotate(-44.529 437.025 244.88)" class="st13" d="M408.6 235.1h56.8v19.5h-56.8z"/><circle class="st14" cx="437" cy="244.9" r="9.2"/><path class="st15" d="M430.4 238.1c3.7-3.7 9.7-3.6 13.4.1 3.7 3.7 3.6 9.7-.1 13.4-3.7 3.7-9.7 3.6-13.4-.1-3.7-3.7-3.7-9.7.1-13.4zm12.9 13.1c3.5-3.5 3.6-9.1.1-12.6s-9.1-3.6-12.6-.1-3.6 9.1-.1 12.6c3.4 3.5 9.1 3.6 12.6.1z"/><circle class="st16" cx="437" cy="244.9" r="6"/><path class="st17" d="M432.6 240.3c2.5-2.4 6.5-2.4 9 .1s2.4 6.5-.1 9c-2.5 2.4-6.5 2.4-8.9-.1-2.6-2.4-2.5-6.5 0-9 0 .1 0 .1 0 0zm8.4 8.7c2.3-2.2 2.3-5.9.1-8.1-2.2-2.3-5.9-2.3-8.1-.1-2.3 2.2-2.3 5.9-.1 8.1 2.2 2.3 5.9 2.3 8.1.1z"/><circle class="st18" cx="423.1" cy="258.3" r="3.5"/><path d="M424.6 260.3c-.4.5-1.2.6-1.7.2l-.2-.2.4-.4c.3.3.7.4 1.1.1l.1-.1-1.2-1.2c-.7.4-1.4.8-2.1 0-.6-.5-.6-1.4 0-2l.1-.1-.4-.4.2-.2.4.4c.5-.6 1.4-.6 2-.1l.1.1-.4.4-.1-.1c-.3-.4-.9-.4-1.3-.1l-.1.1 1.3 1.4c.7-.5 1.4-.6 1.9-.1s.6 1.4 0 1.9l-.1.1.3.3-.2.2-.1-.2zm-.1-.6c.3-.3.3-.8 0-1.2-.4-.4-.8-.2-1.2 0l1.2 1.2zm-3.1-2.7c-.4.3-.4.9 0 1.3s.9.2 1.3 0l-1.3-1.3z"/><circle class="st18" cx="450.5" cy="231.4" r="3.5"/><path d="M452 233.3c-.4.5-1.2.6-1.7.2l-.2-.2.4-.4c.3.3.7.4 1.1.1l.1-.1-1.2-1.2c-.7.4-1.4.8-2.1 0-.6-.5-.6-1.4 0-2l.1-.1-.4-.4.2-.2.4.4c.5-.6 1.4-.7 2-.1.1 0 .1.1.1.1v.1l-.4.4-.1-.1c-.3-.4-.9-.4-1.3-.1l-.1.1 1.3 1.3c.7-.5 1.4-.6 1.9-.1s.5 1.4 0 1.9l-.1.1.3.3-.2.2-.1-.2zm-.1-.6c.3-.3.3-.8 0-1.1-.4-.4-.8-.2-1.2 0l1.2 1.1zm-3.1-2.6c-.4.3-.4.9 0 1.3s.9.2 1.3 0l-1.3-1.3z"/><path transform="rotate(-9.648 385.558 252.15)" class="st12" d="M371.6 219.1h27.7v66h-27.7z"/><path transform="rotate(-9.648 385.742 252.087)" class="st13" d="M375.9 223.6h19.5v56.8h-19.5z"/><circle class="st14" cx="385.7" cy="252.1" r="9.2"/><path class="st15" d="M376.3 253.7c-.9-5.2 2.6-10.1 7.8-10.9s10.1 2.6 10.9 7.8c.9 5.2-2.6 10.1-7.8 10.9-5.1.8-10-2.7-10.9-7.8zm18.2-3.1c-.8-4.9-5.4-8.1-10.3-7.3-4.9.8-8.1 5.4-7.3 10.3.8 4.9 5.4 8.1 10.3 7.3 4.8-.9 8.1-5.5 7.3-10.3z"/><circle class="st16" cx="385.7" cy="252.1" r="6"/><path class="st17" d="M379.4 253.1c-.6-3.4 1.7-6.7 5.2-7.3s6.7 1.7 7.3 5.2c.6 3.4-1.7 6.7-5.2 7.3-3.4.6-6.7-1.7-7.3-5.2zm12-2c-.5-3.1-3.5-5.2-6.6-4.7s-5.2 3.5-4.7 6.6c.5 3.1 3.5 5.2 6.6 4.7 3.1-.5 5.2-3.4 4.7-6.6z"/><circle class="st18" cx="388.7" cy="271.2" r="3.5"/><path d="M391.2 271.1c.2.6-.1 1.3-.8 1.5-.1 0-.2 0-.3.1l-.1-.6c.5-.1.7-.4.6-.9l-1.7.3c-.1.8-.2 1.6-1.1 1.7-.8.1-1.5-.4-1.7-1.1v-.1l-.6.1v-.3l.6-.1c-.2-.8.3-1.5 1.1-1.7H387.5l.1.6h-.1c-.5 0-.9.5-.8 1v.1l1.9-.3c0-.8.3-1.5 1.1-1.6.7-.1 1.4.4 1.6 1.1l.5-.1v.3h-.6zm-.5-.3c-.1-.4-.5-.8-.9-.7-.5.1-.6.5-.7 1l1.6-.3zm-4 1c.1.5.5.9 1 .8.6-.1.7-.6.7-1.1l-1.7.3z"/><circle class="st18" cx="382.3" cy="233.3" r="3.5"/><path d="M384.8 233.2c.2.6-.1 1.3-.8 1.5-.1 0-.2 0-.3.1l-.1-.6c.4 0 .7-.4.7-.8v-.1l-1.7.3c-.1.8-.2 1.6-1.2 1.7-.8.1-1.5-.4-1.7-1.1v-.1l-.6.1v-.3l.6-.1c-.2-.8.3-1.5 1.1-1.7H381.1l.1.6h-.2c-.5 0-.9.5-.8 1v.1l1.9-.3c0-.8.3-1.5 1.1-1.6.7-.1 1.4.4 1.6 1.1l.5-.1.1.3h-.6zm-.6-.3c-.1-.4-.5-.8-.9-.7-.5.1-.6.5-.7 1l1.6-.3zm-4 1c.1.5.5.8 1 .8h.1c.6-.1.7-.6.7-1.1l-1.8.3z"/><path class="st11" d="M401.1 386.8s6 29.8 4.5 40.6l5.9-9.4-10.4-31.2z"/><path transform="rotate(-9.648 402.46 371.229)" class="st12" d="M388.5 338.2h27.7v65.9h-27.7z"/><path transform="rotate(-9.648 402.645 371.177)" class="st13" d="M392.8 342.7h19.5v56.8h-19.5z"/><circle class="st14" cx="402.6" cy="371.1" r="9.2"/><path class="st15" d="M393.2 372.7c-.9-5.2 2.6-10.1 7.8-10.9 5.2-.9 10.1 2.6 10.9 7.8.9 5.1-2.6 10-7.7 10.9-5.1.9-10.1-2.6-11-7.8zm18.2-3.1c-.8-4.9-5.4-8.1-10.3-7.3-4.9.8-8.1 5.4-7.3 10.3.8 4.9 5.4 8.1 10.3 7.3 4.8-.8 8.1-5.4 7.3-10.3z"/><circle class="st16" cx="402.6" cy="371.1" r="6"/><path class="st17" d="M396.3 372.2c-.6-3.4 1.7-6.7 5.2-7.3s6.7 1.7 7.3 5.2c.6 3.4-1.7 6.7-5.2 7.3-3.4.6-6.7-1.8-7.3-5.2.1 0 .1 0 0 0zm12-2c-.5-3.1-3.5-5.2-6.6-4.7s-5.2 3.5-4.7 6.6c.5 3.1 3.5 5.2 6.6 4.7 3.1-.5 5.2-3.5 4.7-6.6z"/><circle class="st18" cx="405.6" cy="390.3" r="3.5"/><path d="M408.1 390.1c.2.7-.2 1.3-.8 1.6h-.3l-.1-.6c.5-.1.7-.4.6-.9l-1.7.3c-.1.8-.2 1.6-1.1 1.7-.8.1-1.5-.4-1.7-1.1v-.1l-.6.1-.1-.3.6-.1c-.2-.8.3-1.5 1-1.7H404.2l.1.6h-.1c-.5 0-.9.5-.8 1v.1l1.9-.3c0-.8.3-1.5 1.1-1.6.7-.1 1.4.4 1.6 1.1l.5-.1.1.3h-.5zm-.5-.2c-.1-.4-.5-.8-.9-.7-.5.1-.6.5-.7 1l1.6-.3zm-4 1c.1.5.5.8 1 .8h.1c.5-.1.7-.6.7-1.1l-1.8.3z"/><circle class="st18" cx="399.2" cy="352.4" r="3.5"/><path d="M401.7 352.2c.2.7-.2 1.3-.8 1.6h-.3l-.1-.6c.5-.1.7-.4.6-1l-1.7.3c-.1.8-.2 1.6-1.1 1.7-.8.1-1.5-.4-1.7-1.1v-.1l-.6.1-.1-.3.6-.1c-.2-.8.3-1.5 1-1.7H397.8l.1.6h-.1c-.5 0-.9.5-.8 1v.1l1.9-.3c0-.8.3-1.5 1.1-1.6.7-.1 1.4.4 1.6 1.1l.5-.1v.3l-.4.1zm-.6-.2c-.1-.4-.5-.8-.9-.7-.5.1-.6.5-.7 1l1.6-.3zm-4 1c.1.5.5.9 1 .8.5-.1.7-.6.7-1.1l-1.7.3z"/><path transform="rotate(-23.36 435.029 296.84)" class="st12" d="M402 283h65.9v27.7H402z"/><path transform="rotate(-23.36 435.13 297.004)" class="st13" d="M406.7 287.2h56.8v19.5h-56.8z"/><circle class="st14" cx="435.1" cy="297" r="9.2"/><path class="st15" d="M431.4 288.3c4.8-2.1 10.4.2 12.4 5 2.1 4.8-.2 10.4-5 12.4s-10.4-.2-12.4-5c-2.1-4.7.1-10.3 5-12.4-.1 0-.1 0 0 0zm7.3 16.9c4.5-2 6.6-7.2 4.6-11.7-2-4.5-7.2-6.6-11.7-4.6-4.5 2-6.6 7.2-4.6 11.7 1.9 4.5 7.1 6.5 11.7 4.6z"/><circle class="st16" cx="435.1" cy="297" r="6"/><path class="st17" d="M432.6 291.2c3.2-1.4 6.9.1 8.3 3.3 1.4 3.2-.1 6.9-3.3 8.3-3.2 1.4-6.9-.1-8.3-3.3-1.4-3.2.1-6.9 3.3-8.3zm4.8 11.1c2.9-1.3 4.3-4.6 3-7.6-1.3-2.9-4.6-4.3-7.6-3s-4.3 4.6-3 7.6c1.3 2.9 4.7 4.2 7.6 3z"/><circle class="st18" cx="417.3" cy="304.5" r="3.5"/><path d="M418 306.9c-.6.4-1.3.2-1.7-.4 0-.1-.1-.2-.1-.2l.5-.2c.2.5.5.6 1.1.4l-.7-1.6c-.8.1-1.6.2-2-.7-.3-.7 0-1.5.7-1.9 0 0 .1 0 .1-.1l-.2-.5.3-.1.2.5c.7-.4 1.5-.1 1.9.6 0 .1.1.1.1.2v.1l-.5.2v-.1c-.1-.5-.7-.7-1.1-.6h-.1l.8 1.7c.8-.2 1.5-.1 1.8.6.3.7 0 1.5-.7 1.8l.2.4-.3.1-.3-.2zm.1-.6c.4-.2.6-.6.5-1.1-.2-.5-.6-.5-1.1-.4l.6 1.5zm-1.9-3.6c-.5.2-.7.7-.5 1.2v.1c.2.5.7.5 1.2.4l-.7-1.7z"/><circle class="st18" cx="452.5" cy="289.3" r="3.5"/><path d="M453.2 291.6c-.6.4-1.3.2-1.7-.4 0-.1-.1-.2-.1-.2l.5-.2c.1.4.6.6 1 .5h.1l-.7-1.6c-.8.1-1.6.2-2-.7-.3-.7 0-1.6.7-1.9h.1l-.2-.5.3-.1.2.5c.7-.4 1.5-.1 1.9.6 0 .1.1.1.1.2v.1l-.4.1v-.1c-.2-.5-.7-.7-1.2-.6h-.1l.8 1.7c.8-.2 1.5-.1 1.8.6.3.7 0 1.5-.7 1.8l.2.4-.3.1-.3-.3zm.1-.5c.4-.2.6-.6.5-1.1-.2-.5-.6-.5-1.1-.4l.6 1.5zm-1.9-3.6c-.5.2-.7.7-.5 1.2.2.5.7.5 1.2.4l-.7-1.6z"/><path class="st11" d="M436.2 429.5s-28.6 10.2-37.2 17.1l5.1-9.9 32.1-7.2z"/><path transform="rotate(-23.36 451.086 420.975)" class="st12" d="M418.1 407.1H484v27.7h-65.9z"/><path transform="rotate(-23.36 451.188 421.139)" class="st13" d="M422.8 411.4h56.8v19.5h-56.8z"/><circle class="st14" cx="451.2" cy="421.1" r="9.2"/><path class="st15" d="M447.4 412.4c4.8-2.1 10.4.1 12.5 5s-.1 10.4-5 12.5c-4.8 2.1-10.4-.1-12.5-4.9-2-4.9.2-10.5 5-12.6zm7.3 16.9c4.5-1.9 6.6-7.2 4.7-11.7-1.9-4.5-7.2-6.6-11.7-4.7-4.5 1.9-6.6 7.2-4.7 11.7 2 4.6 7.2 6.7 11.7 4.7z"/><circle class="st16" cx="451.2" cy="421.1" r="6"/><path class="st17" d="M448.7 415.3c3.2-1.4 6.9.1 8.3 3.3 1.4 3.2-.1 6.9-3.3 8.3-3.2 1.4-6.9-.1-8.3-3.3-1.4-3.2.1-6.9 3.3-8.3zm4.8 11.1c2.9-1.3 4.3-4.7 3-7.6s-4.7-4.3-7.6-3c-2.9 1.3-4.3 4.7-3 7.6 1.3 2.9 4.6 4.3 7.6 3z"/><circle class="st18" cx="433.3" cy="428.6" r="3.5"/><path d="M434 431c-.6.4-1.3.2-1.7-.4 0-.1-.1-.2-.1-.2l.5-.2c.2.5.5.6 1.1.4l-.7-1.6c-.8.1-1.6.2-2-.7-.3-.7 0-1.5.7-1.9 0 0 .1 0 .1-.1l-.2-.5.3-.1.2.5c.7-.4 1.6-.1 1.9.6 0 .1.1.1.1.2v.1l-.5.2v-.1c-.1-.5-.7-.7-1.1-.6h-.1l.8 1.7c.8-.2 1.5-.1 1.8.6.3.7 0 1.5-.7 1.8l.2.4-.3.1-.3-.2zm.1-.6c.4-.2.6-.6.5-1.1-.2-.5-.6-.5-1.1-.4l.6 1.5zm-1.9-3.6c-.5.2-.7.7-.5 1.2v.1c.2.5.7.5 1.2.4l-.7-1.7z"/><circle class="st18" cx="468.6" cy="413.4" r="3.5"/><path d="M469.3 415.8c-.6.4-1.3.2-1.7-.4 0-.1-.1-.2-.1-.2l.5-.2c.1.4.6.6 1 .5 0 0 .1 0 .1-.1l-.7-1.6c-.8.1-1.6.2-2-.7-.3-.7 0-1.5.7-1.9 0 0 .1 0 .1-.1l-.2-.5.3-.1.2.5c.7-.4 1.5-.1 1.9.6 0 .1.1.1.1.2v.1l-.5.2v-.1c-.1-.5-.7-.7-1.1-.6h-.1l.8 1.7c.8-.2 1.5-.1 1.8.6.3.7 0 1.5-.7 1.8l.2.4-.3.1-.3-.2zm.1-.6c.4-.2.6-.6.5-1.1-.2-.5-.6-.5-1.1-.4l.6 1.5zm-1.9-3.6c-.5.2-.7.7-.5 1.2v.1c.2.5.7.5 1.2.4l-.7-1.7z"/><path transform="rotate(-46.694 454.496 372.28)" class="st12" d="M421.6 358.4h66v27.7h-66z"/><path transform="rotate(-46.694 454.66 372.39)" class="st13" d="M426.3 362.6h56.8v19.5h-56.8z"/><circle class="st14" cx="454.7" cy="372.4" r="9.2"/><path class="st15" d="M447.8 365.9c3.6-3.8 9.6-4 13.4-.4 3.8 3.6 4 9.6.4 13.4-3.6 3.8-9.6 4-13.4.4-3.8-3.6-4-9.6-.4-13.4zm13.4 12.6c3.4-3.6 3.2-9.2-.4-12.6s-9.2-3.2-12.6.4c-3.4 3.6-3.2 9.2.4 12.6 3.6 3.4 9.2 3.2 12.6-.4z"/><circle class="st16" cx="454.7" cy="372.4" r="6"/><path class="st17" d="M450.1 368.1c2.4-2.5 6.4-2.7 8.9-.3 2.5 2.4 2.7 6.4.3 8.9-2.4 2.5-6.4 2.7-8.9.3-2.6-2.4-2.7-6.4-.3-8.9zm8.8 8.2c2.2-2.3 2.1-6-.2-8.1-2.3-2.2-6-2.1-8.1.2-2.2 2.3-2.1 6 .2 8.1 2.3 2.3 5.9 2.2 8.1-.2z"/><circle class="st18" cx="441.3" cy="386.4" r="3.5"/><path d="M442.9 388.3c-.4.6-1.2.7-1.7.3l-.2-.2.4-.4c.3.3.8.3 1.1 0l.1-.1-1.2-1.2c-.7.4-1.4.8-2.1.1-.6-.5-.6-1.4-.1-2l.1-.1-.4-.4.2-.2.4.4c.5-.6 1.4-.7 2-.2.1 0 .1.1.1.1l-.4.4-.1-.1c-.3-.4-.9-.4-1.3-.1l-.1.1 1.4 1.3c.7-.5 1.3-.7 1.9-.1.6.5.6 1.4.1 1.9l-.1.1.3.3-.2.2-.2-.1zm-.2-.6c.3-.3.3-.8 0-1.2-.4-.4-.8-.2-1.2 0l1.2 1.2zm-3.2-2.6c-.4.4-.3.9 0 1.3.4.4.9.2 1.3-.1l-1.3-1.2z"/><circle class="st18" cx="467.6" cy="358.4" r="3.5"/><path d="M469.2 360.3c-.4.6-1.2.7-1.7.3-.1 0-.1-.1-.2-.2l.4-.4c.3.3.7.4 1.1.1l.1-.1-1.2-1.2c-.7.4-1.4.8-2.1.1-.6-.5-.6-1.4-.1-2l.1-.1-.4-.4.2-.2.4.4c.5-.6 1.4-.7 2-.2.1 0 .1.1.1.1l-.4.4-.1-.1c-.3-.4-.9-.4-1.3-.1l-.1.1 1.4 1.3c.7-.5 1.3-.7 1.9-.1.6.5.6 1.4.1 1.9l-.1.1.4.3-.2.2-.3-.2zm-.1-.6c.3-.3.3-.8 0-1.1-.4-.4-.8-.2-1.2.1l1.2 1zm-3.2-2.5c-.4.4-.4.9 0 1.3s.9.2 1.3-.1l-1.3-1.2z"/><path class="st19" d="M465.4 530.3l-85 4.6v3.3l-85-7.9c-.6 3.7-.8 7.5-.8 11.3 0 22.3 9.5 87.8 25 102.5l60.9 3.5 60.9-3.5c15.5-14.7 25-80.2 25-102.5-.1-3.8-.5-7.5-1-11.3z"/><path d="M470 530.3H290.7c-1 6.4-1.1 12.9-.4 19.3h180.2c.3-2.7.4-5.3.4-8 0-3.7-.3-7.5-.9-11.3z" fill="#d8d8d8" stroke="#000" stroke-width=".5" stroke-miterlimit="10"/><path d="M444.9 648.7l-3.6-4.6H319.4l-3.6 4.6c-2.3 2.9-1.8 7 1.1 9.3 1.2.9 2.6 1.4 4.1 1.4h118.7c3.7 0 6.6-3 6.6-6.6 0-1.5-.5-2.9-1.4-4.1z" fill="#939393" stroke="#000" stroke-width=".5" stroke-miterlimit="10"/><path class="st4" d="M148.7 208.4l10.4-15.8s10.7 10.5 15.2 9.7l-5 23.9c-.1.1-20.2-9.5-20.6-17.8z"/><path class="st11" d="M185 371.8l.5 148.6L173.9 651h-17.6l-2-133.1-22.6-148.7z"/><path class="st11" d="M163.3 370.7s1.4 27-2.1 52.2-13.9 95.4-13.9 95.4l-20 132.7h-17.6l1.3-143.4-3.6-139.8 55.9 2.9z"/><path class="st4" d="M152.2 321.7l18.2-50 15 100.7-78-4.6 1.5-87.5-21.5 32.8c-1.5 2.4-2.3 5.2-2.1 8l5.2 69.9-13.5 4.5-15.9-80.7c-.6-2.7-.2-5.6 1-8.1l40.9-84.2 43-22.1 20.8 15.8 8.3-7 22.9 27.5-7.4 50.2 23.7-9.9 5.2 9.9-46.2 44.1-21.1-9.3z"/><path class="st3" d="M105.3 221.4s8.7 45.2.9 62.9l-.1 54.7 28.1 22.3 27.4-13.6 23.7 15.5 3.7-93.7 9.1-32.9-11.1-13.4-10.3 6.7-9.8-13.8-12.7 10.6L135 206l-29.7 15.4z"/><path class="st4" d="M77 395.5s.4 25.3 6.5 27.1c10.1 3 4.2-20.5 8.4-18.5 5.6 2.7 3.9-3.4-1.4-13.1L77 395.5zM198.3 143.5c4.4 2.1 6.7 12.5 5.2 18.7s-4.8 16.6-2.7 18.1c.8.6 2.6 1.6 2.9 2.3.4 1.1-2.4 3-4.4 3.4-3.1.6-8.7 21.8-24.8 18.7S148.2 188 149.7 174s8.3-50.3 48.6-30.5z"/><path class="st2" d="M162 126.6s8.6-9.2 20.8-4.4 26.7 21.6 31.5 19.5 6.1 11.2.7 13.5c-3.6 1.5-7.3 2.9-11.1 4 0 0-4.5-9.2-12-10.1s-15.7-2.3-17.4-5.7c0 0 .3 17.7-9.1 19.5-2.4.4-4.3-3.9-5.5-3.2-3.6 2.1-2.6 10.1-1.3 14.3 0 0-9.7 4.5-8.5 8.5s-8.7-2.5-9.9-16.4 6.3-40.7 21.8-39.5z"/><ellipse transform="rotate(-71.021 192.805 170.262)" class="st7" cx="192.8" cy="170.3" rx="2.7" ry="2.1"/><path class="st8" d="M186.2 185.8s1.6 7.1 5.8 6.3M184 184.8c.4-.7 1.1-1.2 1.9-1.4"/><path d="M187.1 163s6.4-1.9 10.9.2" fill="none" stroke="#000" stroke-miterlimit="10"/><path class="st2" d="M156.3 651v15.2h8.2v-3.8l5.1 3.8h38.3l-34-15.2z"/><path class="st2" d="M109.7 651v15.2h8.2v-3.8l5.1 3.8h38.3l-34-15.2z"/><path class="st8" d="M187.9 169.1c2.2-1.5 4.9-1.9 7.4-1"/><g id="Layer_8"><path class="st4" d="M214.4 276.9s17.5-16.1 24.5-12.3c6 3.3.4 16.4-4.1 17.4s-12.2 2-15.2 4.8l-5.2-9.9z"/><path class="st19" d="M236.9 299.9L225.3 313l53 29.8 5.8-20 35-13.5 10.5 5.7-6.6-23.8-6.3 11.5-28.9 7.8 11.4-36.5-25.7-14.6-7.4 8.1c-15.1-11-26.1-6.7-31.4-.9-15.8 17.3 2.2 33.3 2.2 33.3zm-.3-31.1c10.4-11 27.5 1.2 27.5 1.2l-25.2 26.8s-13.7-16-2.3-28z"/><path class="st4" d="M241.4 266.4c-.4-2-3.7-3.8-6.7-1.3S222.2 281 232 283c1.1.2 3.8-.6 4.7-1.1 3.7-1.9 6.1-9.6 4.7-15.5z"/><path class="st4" d="M221.6 271.1s12.3-10.6 13-5.1-3.6 13-5.4 11.6-.3-6.5-.3-6.5-6.1 4.5-11 3.2l3.7-3.2zM347.8 313.9s4 7.5 6.9 5.3c3.4-2.6-6.9-5.3-6.9-5.3zM362.5 321.2s11 4.8 6.9 7.6c-3.5 2.3-6.9-7.6-6.9-7.6zM349.9 328.7s11 4.8 6.9 7.6c-3.5 2.3-6.9-7.6-6.9-7.6zM363 308s11.9 1.5 8.7 5.4c-2.6 3.2-8.7-5.4-8.7-5.4zM347.4 300.3s10.5 1 7.4 3.6-7.4-3.6-7.4-3.6zM337.8 319.9s3.8 9.8 5.5 6.2-5.5-6.2-5.5-6.2zM333.4 308.4s10.4 1.8 7.1 4.2-7.1-4.2-7.1-4.2zM331.5 298.4s10.5-.9 7.9 2.3-7.9-2.3-7.9-2.3z"/></g><g id="Layer_7-2"><path class="st7" d="M676.1 269.5s-4.8 28.8 14.6 50.7c11.5 12.9 28.4 19.7 45.6 18.3-5.2-3.7-7.6-10.2-6-16.4 15.4-99.1-26.8-124.8-26.8-124.8s-11.5-12.4-32.7-11.1c0 0-19.5.7-28.3 17.4 0 0-13.2 19.8-.7 46.4 2.5 5.3 4.8 21.5 5.3 27.3l38.4 17.3"/><path class="st23" d="M618.8 385.9l-3.1 91.5 11.5 166.2H640l12.2-171.9 19.4-91.4z"/><path class="st23" d="M691.3 391.1l.3 87.8 8.2 164.7h-11.5l-33.1-156.7-17.7-89.8z"/><path class="st24" d="M594.6 302.2l34.3 14.2 30.8-25.8 13.2 23.5-35.4 27c-17-6.8-32.8-16.4-46.7-28.4l3.8-10.5z"/><path class="st24" d="M685 269.7s25.1 10.8 23.6 21c-3.4 22.5-16.8 38.9-16.8 38.9l-12.9 25.6c-1.8 5.3 7.5 17.5 13 27.5l49 105.2s-83.6 50.5-171.4 6.9c-.2-.1.2-.5.3-.8 0 0 41.8-127.3 57.4-141.5 4.3-10.3 1.5-23.5-1.6-29.6-.8-1.6-1.3-3.3-1.5-5-.3-3.2.7-6.3 2.8-8.7l27.2-33.9 9.2-3"/><g id="Layer_8-2"><path class="st4" d="M594.6 302.2s-19.5-13.6-26-8.9c-5.5 4 1.9 16.3 6.4 16.7s12.3.4 15.7 2.7l3.9-10.5z"/><path class="st19" d="M573 294.8c-6.1-5-17.6-7.8-31 5.1l-8.4-7.1-23.5 18 16.2 34.7-29.6-3.8-7.8-10.5-3.4 24.5 9.6-7.1 36.5 8.6 8.5 19 48.5-36.7-13.1-11.5s15.6-18.2-2.5-33.2zm0 30.5L544.4 302s15.3-14.4 27.1-4.9c12.9 10.4 1.5 28.2 1.5 28.2z"/><path class="st4" d="M566.4 295.4c.2-2 3.2-4.3 6.5-2.1s14.5 14.1 5.1 17.4c-1 .4-3.8-.1-4.8-.5-4-1.4-7.3-8.7-6.8-14.8z"/><path class="st4" d="M587.3 298.2s-14.2-9.7-14.2-4.1 5.2 12.4 6.9 10.7-.6-6.5-.6-6.5 6.6 3.7 11.3 1.7l-3.4-1.8zM467.3 356.8s-3 7.9-6.1 6.2c-3.7-2.2 6.1-6.2 6.1-6.2zM453.8 366s-10.3 6.2-5.8 8.4c3.7 1.9 5.8-8.4 5.8-8.4zM467.3 371.7s-10.3 6.2-5.8 8.4c3.7 1.9 5.8-8.4 5.8-8.4zM451.5 353s-11.6 3.1-7.9 6.5c3 2.8 7.9-6.5 7.9-6.5zM465.9 343.2s-10.3 2.4-6.9 4.6 6.9-4.6 6.9-4.6zM478 361.3s-2.4 10.3-4.6 6.9 4.6-6.9 4.6-6.9zM480.9 349.4s-10.1 3.2-6.5 5.1 6.5-5.1 6.5-5.1zM481.4 339.2s-10.5.6-7.6 3.3 7.6-3.3 7.6-3.3z"/></g><path class="st24" d="M574.5 349.6l-1.9 12.9s56.9 2.8 75.5-1.2c33.2-7 54-41.9 59.4-57.1 1.9-5.3-3.3-19.4-16.3-21.8 0 0-26 48.4-47.9 54.9s-68.8 12.3-68.8 12.3z"/><path class="st2" d="M641.2 643.6v22.6h-3.3l-2.4-9.5-5.9 9.5h-33.2c12.8-2.7 23.7-11 29.7-22.6h15.1zM702.2 643.6v22.6h-3.3l-2.4-9.5-5.9 9.5h-33.2c12.8-2.7 23.7-11 29.6-22.6h15.2z"/><path class="st4" d="M659.8 273.7l-.1-.8c1.9-1.4 1.8-4.1 1.5-6.4-.4-3-1-6-1.7-9 4.8-4 10.5-6.6 16.6-7.7 2.1-.4 3.2 0 3.4 2.1s.2 3.8.5 5.7c.6 3.7 1.7 7.2 3.3 10.6.2.3.3.6.2 1-.1.3-.3.6-.5.9-2.7 3.1-5.6 5.9-8.8 8.4-1 .8-2.1 1.4-3.3 1.8-4.2 1.7-8.9-.3-10.5-4.5-.3-.8-.5-1.5-.6-2.1z"/><path class="st4" d="M671.3 257.2c-6.1 2.6-13.3 4.3-19.1 1.1-4.3-2.3-6.8-6.9-8.3-11.6-1.4-5-2.4-10.2-2.8-15.4-.5-3.3-.6-6.6-.2-9.9.8-4.7 3.5-8.8 6.1-12.7 4.3-6.5 9.2-13.3 16.5-16.1 4.2-1.3 8.7-1.8 13.1-1.5 3.3-.1 6.6.2 9.7 1.1 2.6.9 5 2.3 7.1 4.1 6.1 4.8 10.2 11.7 11.6 19.4 3.2 20.4-17.4 34.6-33.7 41.5zM658.7 213c-1.5-3-4.5-5.1-7.8-5.4"/><path class="st2" d="M691.5 249.2s-15-29.1-3.9-44.6c0 0-8.9 3.9-16 1.9 0 0-20.5-4.5-27.7 9.7 0 0-2.2 8.8-4.8 12.6l-.2-7.2 5.7-14.3 16.3-15.2 15.6-4.4 16 5.8 10.6 9.8 5.6 23.4-9.3 16.6-7.9 5.9z"/><path class="st4" d="M670.1 216.8c4.6-1.7 9.7.1 12.4 4.2M658.1 235.4c-1-.9-1.9-1.9-2.8-3-.2-.2-.4-.5-.5-.8-.2-.8.4-1.5.9-2.1l2.9-3.1M657.5 248.4c-.9-.1-1.9 0-2.8.1-.3.1-.7.2-1 .2-1.3.1-2.2-1.3-2.4-2.5 0-1.3.1-2.6.2-3.8 0-1.1-.3-2.2-.2-3.2 0-.3.1-.6.3-.8.4-.4 1.1-.3 1.7-.1 3.8 1.6 7.2 3.9 10 6.9.1.1.2.2.3.4.2.8-1.6 1.9-2.2 2.2-1.2.4-2.6.6-3.9.6z"/><path class="st25" d="M650.9 248.7c.9 1 2.1 1.5 3.4 1.5 1.3 0 2.6-.2 3.8-.6 1-.3 1.9-.6 2.8-1 .7-.2 1.4-.6 2.1-1 .6-.4 1-1.1 1.2-1.8-1.5.7-3 1.2-4.6 1.4-2.1.4-4.4.2-6.4-.7-.7-.3-1.6-1.2-2.3-.7s-.6 2.2 0 2.9z"/><path class="st25" d="M651.4 236.6c2.7 0 5.3.9 7.4 2.7 2 1.8 3.8 3.8 5.3 6 .1.1.2.3.1.4s-.3.1-.5.1c-2.5-.6-4.4-2.4-6.5-3.9-1.7-1.1-3.6-2-5.6-2.4-1.5-.3-2.8-2.7-.2-2.9z"/><path class="st4" d="M678.3 227.1c-.9.2-1.8 0-2.5-.5-.6-.6-1.3-1.2-1.8-1.8-.4-.4-.9-.9-1.5-1.2-.5-.4-1.1-.7-1.7-.8-1.6-.4-3.3 0-4.6 1.1-1.2 1-2.3 2.3-3.2 3.7M654.2 224.1l-1.4-1.5c-1-1.3-2.4-2.2-4-2.6-1.3 0-2.7.4-3.9 1-1.2.6-2.7.5-3.8-.2"/><ellipse transform="rotate(-66.952 667.957 226.342)" class="st7" cx="668" cy="226.3" rx="2.5" ry="2"/><ellipse transform="rotate(-66.952 647.277 223.382)" class="st7" cx="647.3" cy="223.4" rx="2.5" ry="2"/><path class="st24" d="M695.4 276.8s13.5-.2 14.7 4-2.3 4.6-2.3 4.6 6.8 2.5 2.6 7.6c-3.7 4.5-6.2.1-6.2.1.8 2.4-.2 4.9-2.4 6.1-2.1 1.3-4.9 1-6.7-.8 0 0-.7 5.4-4.3 5.6s-5.9-3.5-5.9-3.5.6 3.4-3.6 4.8-5.6-3.5-5.6-3.5c-.6 2.5-2.9 4.2-5.5 4.2-4.7.2-4.5-4.5-4.5-4.5s-2.6 4.6-6.5 3.1c-2.2-.7-3.4-3-2.9-5.2 0 0-2.6 4-6.5 1.5s-1-5.6-1-5.6-3.7 3.4-5.5.1-.5-4.8-.5-4.8-1.7 1.7-3.6-.7-.6-4.1-.6-4.1-1.4.5-2-3.1 4.9-3.3 4.9-3.3-2.5-3.3.2-4 11.1-1 12.6 1.1c0 0-.6 11.2 10.7 12.9s30.4-12.6 30.4-12.6z"/><path class="st23" d="M574.5 349.6s-15.8-7.8-15.9-5.1 1.5 3.6 1.5 3.6-12.9-2-15.3 2.2c-4.5 8 27.7 12.1 27.7 12.1l2-12.8z"/></g></svg>