<?xml version="1.0" encoding="utf-8"?>
<!-- Generator: Adobe Illustrator 21.0.2, SVG Export Plug-In . SVG Version: 6.00 Build 0)  -->
<svg version="1.1" id="Layer_1" xmlns="http://www.w3.org/2000/svg" xmlns:xlink="http://www.w3.org/1999/xlink" x="0px" y="0px"
	 viewBox="0 0 828.5 677.1" style="enable-background:new 0 0 828.5 677.1;" xml:space="preserve">
<style type="text/css">
	.st0{fill:#F5F5F5;}
	.st1{fill:#CCCCCC;}
	.st2{fill:#1A1A1A;}
	.st3{fill:#0077BF;stroke:#000000;stroke-width:0.5;stroke-miterlimit:10;}
	.st4{fill:#FFFFFF;stroke:#000000;stroke-width:0.5;stroke-miterlimit:10;}
	.st5{fill:#FFE600;stroke:#000000;stroke-width:0.5;stroke-miterlimit:10;}
	.st6{fill:#FFFFFF;stroke:#000000;stroke-miterlimit:10;}
	.st7{fill:#1A1A1A;stroke:#000000;stroke-width:0.5;stroke-miterlimit:10;}
	.st8{fill:none;stroke:#000000;stroke-width:0.5;stroke-miterlimit:10;}
	.st9{fill:#C6C6C6;stroke:#000000;stroke-width:0.5;stroke-miterlimit:10;}
	.st10{fill:#999999;stroke:#000000;stroke-width:0.5;stroke-miterlimit:10;}
	.st11{fill:#848484;stroke:#000000;stroke-width:0.5;stroke-miterlimit:10;}
	.st12{fill:#F2F2F2;stroke:#000000;stroke-width:0.5;stroke-miterlimit:10;}
	.st13{fill:none;stroke:#0077BF;stroke-width:5;stroke-miterlimit:10;}
	.st14{fill:#0077BF;}
	.st15{fill:#F2F2F2;}
	.st16{fill:#EAEAEA;}
	.st17{fill:#EB058C;}
	.st18{fill:#B7B7B7;}
	.st19{fill:#BABABA;stroke:#000000;stroke-width:0.5;stroke-miterlimit:10;}
	.st20{fill:#D8D8D8;stroke:#000000;stroke-width:0.5;stroke-miterlimit:10;}
	.st21{fill:#939393;stroke:#000000;stroke-width:0.5;stroke-miterlimit:10;}
	.st22{fill:none;stroke:#000000;stroke-miterlimit:10;}
	.st23{fill:#FFFFFF;stroke:#000000;stroke-width:0.5;stroke-linejoin:round;}
	.st24{fill:#EB058C;stroke:#000000;stroke-width:0.5;stroke-miterlimit:10;}
	.st25{fill:#C10072;stroke:#000000;stroke-width:0.5;stroke-miterlimit:10;}
</style>
<title>About</title>
<g id="Layer_7">
	<path class="st0" d="M290.4,569.3c0,0-137.9,107.7-240.5-56.5c0,0-143-179.2,55.1-382.9c0,0,82.3-97.9,270.3-129.6
		c0,0,158.6-10.2,258.9,80.7c0,0,176,154.8,189.3,361.6c0,0,52,252.8-179.4,233.4c0,0-78.6-14.1-122-101.2
		C522.2,574.8,463.9,435.6,290.4,569.3z"/>
</g>
<ellipse class="st1" cx="380.3" cy="657.4" rx="98.9" ry="12"/>
<ellipse class="st1" cx="153.3" cy="661.4" rx="88.3" ry="12"/>
<ellipse class="st1" cx="618.8" cy="661.5" rx="134.1" ry="12"/>
<polygon class="st2" points="604.3,647.4 604.3,661.5 596.6,661.5 596.6,658.1 591.8,661.5 556.1,661.5 556.1,661.5 587.8,647.4 "/>
<polygon class="st2" points="548.4,647.4 548.4,661.5 540.7,661.5 540.7,658.1 535.9,661.5 500.2,661.5 500.2,661.5 531.9,647.4 "/>
<polygon class="st3" points="534.7,349 534.7,647.4 548.1,647.4 594.3,349 "/>
<polygon class="st3" points="550,349 590.3,647.4 604.3,647.4 610.4,347.7 "/>
<polygon class="st4" points="536.8,222.9 525.8,249.5 496.9,282.4 449.2,258.6 442.9,269.7 501.9,309.6 570.7,241.3 "/>
<polygon class="st5" points="532.6,355 527.4,258.2 536.8,222.9 554.2,214.5 580.4,214.5 613.1,225.5 621.1,267.6 611.4,353.9 "/>
<path class="st4" d="M613,225.5l11.5,23.9l9.8,54.8c0,0,2.1,9.8-5.1,16.4l-37,64.4l-10.3-5l27.3-74.6l-3.6-30.5l-4.2-28.2L613,225.5
	z"/>
<path class="st4" d="M570.7,211.4c1.4-1.9,0-21,0-21h-18.5l2,24.1C554.2,214.5,566.9,216.5,570.7,211.4z"/>
<polygon class="st4" points="574.3,204.1 585.1,214.5 572.3,235.3 561.6,217.5 558.7,216.9 553,235.3 543.2,216.9 551.5,206.4 
	560.1,213.6 "/>
<g id="Layer_9">
	<path class="st4" d="M534.3,162.3c3.7-8.9,2.7-9.1,5.2-13.1c4.2-6.5,8.8-13.4,16.1-16.3c4.2-1.4,8.6-2,13-1.8
		c3.3-0.2,6.5,0.1,9.7,0.9c2.6,0.8,5,2.2,7.2,3.9c6.2,4.7,10.4,11.4,12,19c3.7,20.1-13,34.9-29.1,42.2c-6,2.7-16.7,4.3-22.5,1.3
		C529.6,189,530.7,170.9,534.3,162.3z"/>
	<path class="st6" d="M563.3,159.4c4.7,0.1,10.5,4,11.3,7"/>
	<path class="st6" d="M541,152.5c3.2-2,8.6-1.3,11.2,1.4"/>
	<path class="st4" d="M549.9,179c-1-0.9-1.9-1.9-2.8-3c-0.2-0.2-0.4-0.5-0.5-0.8c-0.2-0.8,0.4-1.5,0.9-2.1l2.9-3.2"/>
	<ellipse transform="matrix(0.5744 -0.8186 0.8186 0.5744 98.3271 533.7587)" class="st7" cx="562.5" cy="172.3" rx="2.5" ry="2"/>
	<ellipse transform="matrix(0.332 -0.9433 0.9433 0.332 208.0931 622.3759)" class="st7" cx="543.5" cy="164.3" rx="2.4" ry="1.9"/>
	<path class="st2" d="M583.9,172.3c0,0,6.7-4.2,7.5-0.2c0.3,1.4-3.5,8.7-11.7,9.6c0,0,1.7,8.4-3.1,11.1c0,0,9.4-1.7,24.6-20.1
		c0,0,13.9-15.5-6.4-28c-1.3-16.8-16.5-27.4-39.1-23.7c-10.5,7.6-17.3,19.4-18.8,32.3c0,0,4-10.9,15-14.4c0,0,11.5,17.4,25.8,8.6
		C577.9,147.5,587,151.2,583.9,172.3z"/>
</g>
<path class="st8" d="M558.8,185.8c0,0-12,1.5-15.6-3C543.2,182.8,547.3,199.9,558.8,185.8z"/>
<path class="st9" d="M563.6,375.4c-7.8-2.4-19.6-2.2-20.9,2.2s8.3,11.2,16.1,13.6L563.6,375.4z"/>
<rect x="558.6" y="382.1" transform="matrix(0.2949 -0.9555 0.9555 0.2949 30.1612 808.1456)" class="st10" width="8.1" height="3.1"/>
<rect x="579.4" y="371.1" transform="matrix(0.2949 -0.9555 0.9555 0.2949 37.9633 830.4648)" class="st10" width="4.6" height="36.7"/>
<line class="st8" x1="542.7" y1="377.5" x2="561.2" y2="383.2"/>
<path class="st4" d="M581.8,380.1c0,0-9.6-1.5-10.7,0.5s0,3.2-0.5,3.9s-4.5,4.6-3.1,7.3c0.8,1.5,5.7,5.4,9.8,6.9
	c3.2,1.3,6.8,0.1,8.7-2.7c1.4-2.3,4.6-7.8,6.2-10.9L581.8,380.1z"/>
<path class="st4" d="M449.2,258.6c0,0-4.5-7.4-9.7-9s-1.4,2.4-1.4,2.4s-13.7-5.7-15-2.6c-1.8,4.1,1.1,6.7,19.7,20.3L449.2,258.6z"/>
<path class="st11" d="M384.2,267.7c0,0,6,29.8,4.5,40.6l5.9-9.4L384.2,267.7z"/>
<path class="st11" d="M420.2,305.4c0,0-28.6,10.2-37.2,17.1l5.1-9.9L420.2,305.4z"/>
<path class="st11" d="M346.1,399.9c0,0-5.9,29.8-4.4,40.6l-5.9-9.4L346.1,399.9z"/>
<path class="st11" d="M304.8,429.5c0,0,28.1,11.4,36.4,18.6l-4.6-10.1L304.8,429.5z"/>
<path class="st11" d="M312.4,333.4c0,0,28.6,10.2,37.2,17.1l-5-9.9L312.4,333.4z"/>
<path class="st11" d="M313.8,272.8c0,0,50.8,102.8,56.5,182.8l2.8-56.4C373,399.2,350.8,330.5,313.8,272.8z"/>
<path class="st11" d="M339.6,221c0,0,6.8,19.1,10.2,35.1s17.8,43.9,17.8,43.9l0.7-14.5c0,0-11.8-17.5-16.2-33.5
	C349,241.3,344.8,230.9,339.6,221z"/>
<path class="st11" d="M435,252.1c0,0-25,11.8-46,52.4c-14,27-15.2,38.4-19.2,43.1l2.7,18.3c0,0,10-40.3,19-58
	C401.8,287.9,409.5,271.9,435,252.1z"/>
<path class="st11" d="M459,368.9c0,0-78.5,72.7-81.4,86.7l2,34.5c7.5-21.2,17.2-41.5,28.9-60.6C421.5,408.7,438.8,392,459,368.9z"/>
<path class="st11" d="M304.8,376.2c0,0,22,28.9,28.2,51.4s19,83,40,94.2l-3.3-36.2c0,0-26-30.9-28-46.5
	C338.9,416.9,318.8,387.3,304.8,376.2z"/>
<path class="st11" d="M367.7,543.4c0,0,0.1-208.7-2.2-272.3s28.5-114.7,28.5-114.7s-23.3,48.7-23.3,102.6S389.9,540,389.9,540
	L367.7,543.4z"/>
<rect x="364" y="152.4" transform="matrix(0.6165 -0.7874 0.7874 0.6165 21.3361 376.3165)" class="st12" width="66" height="27.7"/>
<rect x="366.8" y="157" transform="matrix(0.6174 -0.7867 0.7867 0.6174 20.0156 374.8031)" class="st13" width="57.1" height="19.6"/>
<circle class="st14" cx="397.1" cy="166.4" r="9.2"/>
<path class="st15" d="M389.7,160.5c3.2-4.1,9.2-4.8,13.3-1.6s4.8,9.2,1.6,13.3c-3.2,4.1-9.2,4.8-13.3,1.6
	C387.2,170.6,386.4,164.7,389.7,160.5z M404.2,171.9c3-3.9,2.4-9.5-1.5-12.5s-9.5-2.4-12.5,1.5s-2.4,9.5,1.5,12.5c0,0,0,0,0,0
	C395.5,176.4,401.1,175.8,404.2,171.9z"/>
<circle class="st16" cx="397.1" cy="166.4" r="6"/>
<path class="st17" d="M392.2,162.5c2.2-2.8,6.1-3.2,8.9-1.1c2.8,2.2,3.2,6.1,1.1,8.9c-2.2,2.8-6.1,3.2-8.9,1.1c0,0,0,0,0,0
	C390.5,169.2,390,165.2,392.2,162.5z M401.7,169.9c2-2.5,1.5-6.1-1-8.1c-2.5-2-6.1-1.5-8.1,1s-1.5,6.1,1,8.1c0,0,0,0,0,0
	C396.1,172.9,399.7,172.4,401.7,169.9z"/>
<circle class="st18" cx="385" cy="181.5" r="3.5"/>
<path d="M386.8,183.3c-0.3,0.6-1.1,0.8-1.7,0.4c-0.1,0-0.1-0.1-0.2-0.1l0.4-0.5l0,0c0.3,0.3,0.8,0.2,1.1-0.1c0,0,0-0.1,0.1-0.1
	l-1.4-1.1c-0.7,0.5-1.3,0.9-2.1,0.3c-0.6-0.5-0.7-1.4-0.3-2c0,0,0.1-0.1,0.1-0.1l-0.5-0.4l0.2-0.2l0.5,0.4c0.4-0.6,1.3-0.8,2-0.4
	c0.1,0,0.1,0.1,0.2,0.1h0.1l-0.4,0.5l-0.1-0.1c-0.4-0.3-0.9-0.3-1.3,0c0,0-0.1,0.1-0.1,0.1l1.5,1.2c0.6-0.6,1.3-0.8,1.9-0.3
	c0.6,0.4,0.8,1.3,0.3,1.9c0,0.1-0.1,0.1-0.1,0.1l0.4,0.3l-0.2,0.2L386.8,183.3z M386.6,182.7c0.3-0.3,0.3-0.9-0.1-1.2c0,0,0,0,0,0
	c-0.4-0.3-0.8-0.1-1.2,0.2L386.6,182.7z M383.2,180.4c-0.3,0.4-0.3,1,0.1,1.3c0,0,0,0,0,0c0.5,0.4,0.9,0.1,1.3-0.2L383.2,180.4z"/>
<circle class="st18" cx="408.7" cy="151.3" r="3.5"/>
<path d="M410.5,153c-0.4,0.6-1.1,0.8-1.7,0.4c-0.1,0-0.1-0.1-0.2-0.1l0.4-0.5l0,0c0.3,0.3,0.8,0.2,1.1-0.1c0,0,0-0.1,0.1-0.1
	l-1.3-1.1c-0.7,0.5-1.3,0.9-2.1,0.3c-0.6-0.5-0.7-1.4-0.3-2c0,0,0-0.1,0.1-0.1l-0.5-0.4l0.2-0.2l0.5,0.4c0.4-0.6,1.3-0.8,2-0.4
	c0.1,0,0.1,0.1,0.2,0.1h0l-0.4,0.5l-0.1-0.1c-0.4-0.3-0.9-0.3-1.3,0c0,0-0.1,0.1-0.1,0.1l1.5,1.2c0.6-0.6,1.3-0.8,1.9-0.3
	c0.6,0.5,0.7,1.3,0.2,1.9c0,0,0,0,0,0l0.4,0.3l-0.2,0.3L410.5,153z M410.3,152.4c0.3-0.4,0.2-0.9-0.1-1.2c0,0,0,0,0,0
	c-0.4-0.3-0.8-0.1-1.2,0.2L410.3,152.4z M406.9,150.2c-0.3,0.4-0.3,1,0.1,1.3c0,0,0,0,0.1,0c0.4,0.3,0.9,0.1,1.3-0.2L406.9,150.2z"
	/>
<rect x="322.2" y="186.8" transform="matrix(0.8829 -0.4695 0.4695 0.8829 -63.8605 183.4794)" class="st12" width="27.7" height="65.9"/>
<rect x="326.4" y="191.3" transform="matrix(0.8829 -0.4695 0.4695 0.8829 -63.7877 183.5377)" class="st13" width="19.5" height="56.8"/>
<circle class="st14" cx="336.2" cy="219.7" r="9.2"/>
<path class="st15" d="M327.8,224.1c-2.5-4.6-0.7-10.4,3.9-12.8c4.6-2.5,10.4-0.7,12.8,3.9c2.5,4.6,0.7,10.4-3.9,12.8
	C336,230.5,330.3,228.8,327.8,224.1z M344,215.5c-2.3-4.3-7.7-6-12.1-3.7c-4.3,2.3-6,7.7-3.7,12.1c2.3,4.3,7.7,6,12.1,3.7
	c0,0,0,0,0,0C344.7,225.3,346.3,219.9,344,215.5z"/>
<circle class="st16" cx="336.2" cy="219.7" r="6"/>
<path class="st17" d="M330.6,222.7c-1.6-3.1-0.5-6.9,2.6-8.6c3.1-1.6,6.9-0.5,8.6,2.6s0.5,6.9-2.6,8.6c0,0,0,0,0,0
	C336.1,226.9,332.2,225.7,330.6,222.7z M341.2,217c-1.5-2.8-5-3.9-7.8-2.4c-2.8,1.5-3.9,5-2.4,7.8c1.5,2.8,5,3.9,7.8,2.4
	c0,0,0,0,0,0C341.7,223.3,342.7,219.8,341.2,217z"/>
<circle class="st18" cx="345.1" cy="236.9" r="3.5"/>
<path d="M347.4,236c0.4,0.6,0.3,1.3-0.3,1.7c-0.1,0.1-0.2,0.1-0.2,0.1l-0.3-0.5l0,0c0.4-0.2,0.5-0.6,0.4-1c0,0,0-0.1-0.1-0.1
	l-1.5,0.8c0.2,0.8,0.3,1.6-0.5,2c-0.7,0.4-1.5,0.2-1.9-0.5c0,0-0.1-0.1-0.1-0.1l-0.5,0.3l-0.1-0.3l0.5-0.3c-0.4-0.7-0.2-1.5,0.5-1.9
	c0,0,0.1,0,0.1-0.1h0.1l0.3,0.5h-0.1c-0.5,0.2-0.7,0.7-0.5,1.2c0,0,0,0.1,0,0.1l1.7-0.9c-0.2-0.8-0.2-1.5,0.5-1.9
	c0.7-0.4,1.5-0.1,1.8,0.5c0,0,0,0,0,0.1l0.4-0.2l0.1,0.3L347.4,236z M346.8,235.9c-0.2-0.4-0.7-0.6-1.1-0.4c0,0,0,0,0,0
	c-0.5,0.2-0.4,0.7-0.3,1.1L346.8,235.9z M343.4,238.1c0.2,0.4,0.8,0.6,1.2,0.4c0,0,0,0,0,0c0.5-0.3,0.5-0.8,0.3-1.2L343.4,238.1z"/>
<circle class="st18" cx="327.1" cy="203" r="3.5"/>
<path d="M329.4,202.1c0.4,0.6,0.3,1.3-0.3,1.7c-0.1,0.1-0.1,0.1-0.2,0.1l-0.3-0.5l0,0c0.4-0.2,0.5-0.6,0.4-1c0,0,0-0.1,0-0.1
	l-1.5,0.8c0.2,0.8,0.3,1.5-0.5,2c-0.7,0.4-1.5,0.1-1.9-0.5c0,0,0-0.1-0.1-0.1l-0.5,0.3l-0.1-0.3l0.5-0.3c-0.4-0.7-0.2-1.5,0.5-1.9
	c0,0,0.1,0,0.1-0.1h0.1l0.3,0.5c0,0-0.1,0-0.1,0c-0.5,0.2-0.7,0.7-0.5,1.2c0,0,0,0.1,0.1,0.1l1.7-0.9c-0.2-0.8-0.2-1.5,0.5-1.9
	c0.7-0.3,1.5-0.1,1.8,0.6c0,0,0,0,0,0l0.4-0.2l0.1,0.3L329.4,202.1z M328.8,202c-0.2-0.4-0.7-0.6-1.1-0.4c0,0,0,0,0,0
	c-0.5,0.2-0.4,0.7-0.3,1.1L328.8,202z M325.3,204.2c0.2,0.5,0.8,0.6,1.2,0.4c0,0,0,0,0,0c0.5-0.3,0.5-0.8,0.3-1.2L325.3,204.2z"/>
<rect x="297.9" y="238.5" transform="matrix(0.8829 -0.4695 0.4695 0.8829 -90.9754 178.1671)" class="st12" width="27.7" height="66"/>
<rect x="302.2" y="243" transform="matrix(0.8829 -0.4695 0.4695 0.8829 -90.9076 178.2333)" class="st13" width="19.5" height="56.8"/>
<circle class="st14" cx="312" cy="271.4" r="9.2"/>
<path class="st15" d="M303.6,275.9c-2.5-4.6-0.7-10.4,3.9-12.9s10.4-0.7,12.9,3.9s0.7,10.4-3.9,12.9c0,0,0,0,0,0
	C311.8,282.3,306,280.5,303.6,275.9z M319.8,267.2c-2.3-4.4-7.7-6-12.1-3.7c-4.4,2.3-6,7.7-3.7,12.1c2.3,4.4,7.7,6,12.1,3.7
	c0,0,0,0,0,0C320.5,277,322.1,271.6,319.8,267.2z"/>
<circle class="st16" cx="312" cy="271.4" r="6"/>
<path class="st17" d="M306.4,274.4c-1.6-3.1-0.5-6.9,2.6-8.6c3.1-1.6,6.9-0.5,8.6,2.6c1.6,3.1,0.5,6.9-2.6,8.6
	C311.9,278.6,308,277.5,306.4,274.4L306.4,274.4z M317,268.7c-1.5-2.8-5-3.9-7.8-2.4c-2.8,1.5-3.9,5-2.4,7.8c1.5,2.8,5,3.9,7.8,2.4
	c0,0,0,0,0,0C317.4,275,318.5,271.5,317,268.7z"/>
<circle class="st18" cx="320.9" cy="288.6" r="3.5"/>
<path d="M323.2,287.7c0.4,0.6,0.3,1.3-0.3,1.7c-0.1,0.1-0.1,0.1-0.2,0.1l-0.3-0.5l0,0c0.4-0.2,0.5-0.6,0.4-1c0,0,0-0.1-0.1-0.1
	l-1.5,0.8c0.2,0.8,0.3,1.5-0.5,2c-0.7,0.4-1.5,0.1-1.9-0.5c0,0,0-0.1-0.1-0.1l-0.5,0.3l-0.2-0.3l0.5-0.3c-0.4-0.7-0.2-1.5,0.5-1.9
	c0,0,0.1,0,0.1-0.1h0.1l0.3,0.5h-0.1c-0.5,0.2-0.7,0.7-0.5,1.2c0,0,0,0.1,0.1,0.1l1.7-0.9c-0.2-0.8-0.2-1.5,0.5-1.9
	c0.7-0.3,1.5-0.1,1.8,0.6c0,0,0,0,0,0l0.4-0.2l0.2,0.3L323.2,287.7z M322.6,287.7c-0.2-0.4-0.7-0.6-1.1-0.4c0,0,0,0,0,0
	c-0.5,0.2-0.5,0.7-0.3,1.1L322.6,287.7z M319.2,289.9c0.2,0.5,0.8,0.6,1.2,0.4c0,0,0,0,0,0c0.5-0.3,0.5-0.8,0.3-1.2L319.2,289.9z"/>
<circle class="st18" cx="302.8" cy="254.7" r="3.5"/>
<path d="M305.2,253.8c0.4,0.6,0.3,1.3-0.3,1.7c-0.1,0.1-0.2,0.1-0.2,0.1l-0.3-0.5l0,0c0.4-0.2,0.5-0.6,0.4-1c0,0,0-0.1-0.1-0.1
	l-1.5,0.8c0.2,0.8,0.3,1.5-0.5,2c-0.7,0.4-1.5,0.2-1.9-0.5c0,0-0.1-0.1-0.1-0.1l-0.5,0.3l-0.1-0.3l0.5-0.3c-0.4-0.7-0.2-1.5,0.5-1.9
	c0,0,0.1,0,0.1-0.1h0.1l0.3,0.5h-0.1c-0.5,0.2-0.7,0.7-0.5,1.2c0,0,0,0.1,0,0.1l1.7-0.9c-0.2-0.8-0.2-1.5,0.5-1.9
	c0.7-0.4,1.5-0.1,1.8,0.5c0,0,0,0,0,0.1l0.4-0.2l0.1,0.3L305.2,253.8z M304.6,253.7c-0.2-0.4-0.7-0.6-1.1-0.4c0,0,0,0,0,0
	c-0.5,0.2-0.4,0.7-0.3,1.1L304.6,253.7z M301.1,255.9c0.2,0.4,0.8,0.6,1.2,0.4c0,0,0,0,0,0c0.5-0.3,0.5-0.8,0.3-1.2L301.1,255.9z"/>
<rect x="285.5" y="341.7" transform="matrix(0.6668 -0.7452 0.7452 0.6668 -179.4727 347.9503)" class="st12" width="27.7" height="65.9"/>
<rect x="289.7" y="346.1" transform="matrix(0.6668 -0.7452 0.7452 0.6668 -179.3134 347.9823)" class="st13" width="19.5" height="56.8"/>
<circle class="st14" cx="299.4" cy="374.5" r="9.2"/>
<path class="st15" d="M293.1,381.6c-3.9-3.5-4.2-9.5-0.7-13.4c3.5-3.9,9.5-4.2,13.4-0.7c3.9,3.5,4.2,9.5,0.7,13.4
	C303,384.7,297,385.1,293.1,381.6z M305.4,367.9c-3.7-3.3-9.3-3-12.6,0.7c-3.3,3.7-3,9.3,0.7,12.6c3.7,3.3,9.3,3,12.6-0.7
	c0,0,0,0,0,0C309.4,376.8,309.1,371.2,305.4,367.9z"/>
<circle class="st16" cx="299.4" cy="374.5" r="6"/>
<path class="st17" d="M295.2,379.2c-2.6-2.3-2.8-6.3-0.5-8.9c2.3-2.6,6.3-2.8,8.9-0.5c2.6,2.3,2.8,6.3,0.5,8.9
	C301.8,381.3,297.8,381.6,295.2,379.2z M303.3,370.2c-2.4-2.1-6-1.9-8.1,0.5c-2.1,2.4-1.9,6,0.5,8.1c2.4,2.1,6,1.9,8.1-0.4
	C305.9,376,305.7,372.3,303.3,370.2L303.3,370.2z"/>
<circle class="st18" cx="313.8" cy="387.6" r="3.5"/>
<path d="M315.6,385.9c0.6,0.4,0.7,1.2,0.3,1.7c0,0.1-0.1,0.1-0.2,0.2l-0.4-0.4l0,0c0.3-0.3,0.3-0.8,0-1.1c0,0-0.1-0.1-0.1-0.1
	l-1.1,1.3c0.4,0.7,0.8,1.3,0.2,2.1c-0.5,0.6-1.4,0.7-2,0.2c0,0-0.1-0.1-0.1-0.1l-0.4,0.4l-0.2-0.2l0.4-0.4c-0.6-0.5-0.7-1.4-0.3-2
	c0,0,0.1-0.1,0.1-0.1l0,0l0.4,0.4c0,0-0.1,0-0.1,0.1c-0.4,0.3-0.4,0.9-0.1,1.3c0,0,0,0.1,0.1,0.1l1.3-1.4c-0.5-0.7-0.7-1.3-0.2-1.9
	c0.5-0.6,1.3-0.6,1.9-0.1c0,0,0.1,0.1,0.1,0.1l0.3-0.4l0.2,0.2L315.6,385.9z M315,386.1c-0.3-0.3-0.8-0.3-1.2,0c0,0,0,0,0,0
	c-0.3,0.4-0.2,0.8,0.1,1.2L315,386.1z M312.6,389.3c0.4,0.3,0.9,0.3,1.3,0c0,0,0,0,0,0c0.4-0.4,0.2-0.9-0.1-1.3L312.6,389.3z"/>
<circle class="st18" cx="285.1" cy="361.9" r="3.5"/>
<path d="M287,360.3c0.6,0.4,0.7,1.2,0.3,1.7c0,0.1-0.1,0.1-0.2,0.2l-0.4-0.4l0,0c0.3-0.3,0.3-0.8,0-1.1c0,0,0,0-0.1-0.1l-1.1,1.3
	c0.4,0.7,0.8,1.3,0.2,2.1c-0.5,0.6-1.4,0.7-2,0.2c0,0-0.1-0.1-0.1-0.1l-0.4,0.4l-0.2-0.2l0.4-0.4c-0.6-0.5-0.7-1.4-0.3-2
	c0,0,0.1-0.1,0.1-0.1v0l0.4,0.4l-0.1,0.1c-0.4,0.3-0.4,0.9-0.1,1.3c0,0,0,0.1,0.1,0.1l1.3-1.4c-0.5-0.7-0.7-1.3-0.2-1.9
	c0.5-0.6,1.3-0.6,1.9-0.1c0,0,0.1,0.1,0.1,0.1l0.3-0.4l0.2,0.2L287,360.3z M286.4,360.5c-0.3-0.3-0.8-0.3-1.2,0c0,0,0,0,0,0
	c-0.4,0.4-0.2,0.8,0.1,1.2L286.4,360.5z M284,363.7c0.4,0.3,0.9,0.3,1.3,0c0,0,0,0,0-0.1c0.4-0.4,0.2-0.9-0.1-1.3L284,363.7z"/>
<rect x="272.6" y="389.3" transform="matrix(0.2977 -0.9547 0.9547 0.2977 -201.9606 570.0135)" class="st12" width="27.7" height="65.9"/>
<rect x="276.7" y="393.7" transform="matrix(0.2977 -0.9547 0.9547 0.2977 -201.7578 569.9139)" class="st13" width="19.5" height="56.8"/>
<circle class="st14" cx="286.4" cy="422.1" r="9.2"/>
<path class="st15" d="M283.6,431.2c-5-1.6-7.8-6.9-6.2-11.9c1.6-5,6.9-7.8,11.9-6.2c5,1.6,7.8,6.9,6.2,11.9c0,0,0,0,0,0
	C293.9,429.9,288.6,432.7,283.6,431.2z M289.1,413.6c-4.7-1.4-9.7,1.2-11.1,5.9c-1.4,4.7,1.2,9.7,5.9,11.1c4.7,1.4,9.7-1.2,11.1-5.9
	C296.5,420,293.8,415,289.1,413.6C289.1,413.6,289.1,413.6,289.1,413.6L289.1,413.6z"/>
<circle class="st16" cx="286.4" cy="422.1" r="6"/>
<path class="st17" d="M284.6,428.1c-3.3-1-5.2-4.6-4.2-7.9s4.6-5.2,7.9-4.2s5.2,4.6,4.2,7.9c0,0,0,0,0,0
	C291.4,427.3,287.9,429.2,284.6,428.1z M288.2,416.6c-3-0.9-6.3,0.8-7.2,3.8c-0.9,3,0.8,6.3,3.8,7.2c3,0.9,6.2-0.7,7.2-3.8
	C292.9,420.8,291.2,417.6,288.2,416.6C288.2,416.6,288.2,416.6,288.2,416.6L288.2,416.6z"/>
<circle class="st18" cx="304.9" cy="428" r="3.5"/>
<path d="M305.9,425.8c0.7,0.1,1.1,0.8,1,1.4c0,0.1,0,0.2-0.1,0.3l-0.5-0.2l0,0c0.1-0.4,0-0.8-0.4-1c0,0-0.1,0-0.1,0l-0.5,1.6
	c0.7,0.5,1.3,0.9,1,1.8c-0.2,0.7-1,1.2-1.7,1c0,0-0.1,0-0.1,0l-0.2,0.5l-0.3-0.1l0.2-0.5c-0.8-0.2-1.2-0.9-1.1-1.7
	c0-0.1,0-0.1,0.1-0.2v-0.1l0.5,0.2c0,0,0,0.1,0,0.1c-0.2,0.5,0,1,0.5,1.2c0,0,0.1,0,0.1,0l0.6-1.8c-0.7-0.4-1.2-0.9-1-1.7
	c0.2-0.7,1-1.1,1.7-0.9c0,0,0,0,0,0l0.1-0.5l0.3,0.1L305.9,425.8z M305.4,426.2c-0.4-0.2-0.9,0.1-1,0.5c0,0,0,0,0,0
	c-0.2,0.5,0.2,0.8,0.6,1L305.4,426.2z M304.5,430.2c0.5,0.2,1-0.1,1.2-0.6c0,0,0,0,0-0.1c0.2-0.5-0.2-0.9-0.6-1.1L304.5,430.2z"/>
<circle class="st18" cx="268.2" cy="416.6" r="3.5"/>
<path d="M269.2,414.3c0.7,0.1,1.1,0.8,1,1.4c0,0.1,0,0.2-0.1,0.3l-0.5-0.2l0,0c0.1-0.4,0-0.8-0.4-1c0,0-0.1,0-0.1,0l-0.5,1.6
	c0.7,0.5,1.3,0.9,1,1.8c-0.2,0.8-1,1.2-1.8,1c0,0-0.1,0-0.1,0l-0.2,0.5l-0.3-0.1l0.2-0.5c-0.8-0.2-1.2-0.9-1.1-1.7
	c0-0.1,0-0.1,0.1-0.2v-0.1l0.5,0.2v0.1c-0.2,0.5,0,1,0.5,1.2c0,0,0.1,0,0.1,0l0.6-1.8c-0.7-0.4-1.2-0.9-1-1.7c0.2-0.7,1-1.1,1.7-0.9
	c0,0,0,0,0,0l0.1-0.5l0.3,0.1L269.2,414.3z M268.8,414.7c-0.4-0.1-0.9,0.1-1,0.5c0,0,0,0,0,0c-0.2,0.5,0.2,0.8,0.6,1L268.8,414.7z
	 M267.8,418.7c0.5,0.2,1-0.1,1.2-0.6c0,0,0,0,0,0c0.2-0.5-0.2-0.9-0.6-1.1L267.8,418.7z"/>
<rect x="403.9" y="230.9" transform="matrix(0.7129 -0.7013 0.7013 0.7129 -46.218 376.6525)" class="st12" width="66" height="27.7"/>
<rect x="408.6" y="235.1" transform="matrix(0.7129 -0.7013 0.7013 0.7129 -46.2646 376.7906)" class="st13" width="56.8" height="19.5"/>
<circle class="st14" cx="437" cy="244.9" r="9.2"/>
<path class="st15" d="M430.4,238.1c3.7-3.7,9.7-3.6,13.4,0.1c3.7,3.7,3.6,9.7-0.1,13.4c-3.7,3.7-9.7,3.6-13.4-0.1c0,0,0,0,0,0
	C426.6,247.8,426.6,241.8,430.4,238.1z M443.3,251.2c3.5-3.5,3.6-9.1,0.1-12.6c-3.5-3.5-9.1-3.6-12.6-0.1c-3.5,3.5-3.6,9.1-0.1,12.6
	c0,0,0,0,0,0C434.1,254.6,439.8,254.7,443.3,251.2z"/>
<circle class="st16" cx="437" cy="244.9" r="6"/>
<path class="st17" d="M432.6,240.3c2.5-2.4,6.5-2.4,9,0.1s2.4,6.5-0.1,9c-2.5,2.4-6.5,2.4-8.9-0.1
	C430,246.9,430.1,242.8,432.6,240.3C432.6,240.4,432.6,240.4,432.6,240.3z M441,249c2.3-2.2,2.3-5.9,0.1-8.1
	c-2.2-2.3-5.9-2.3-8.1-0.1c-2.3,2.2-2.3,5.9-0.1,8.1c0,0,0,0,0,0C435.1,251.2,438.8,251.2,441,249z"/>
<circle class="st18" cx="423.1" cy="258.3" r="3.5"/>
<path d="M424.6,260.3c-0.4,0.5-1.2,0.6-1.7,0.2c-0.1-0.1-0.1-0.1-0.2-0.2l0.4-0.4l0,0c0.3,0.3,0.7,0.4,1.1,0.1c0,0,0.1-0.1,0.1-0.1
	l-1.2-1.2c-0.7,0.4-1.4,0.8-2.1,0c-0.6-0.5-0.6-1.4,0-2c0,0,0.1-0.1,0.1-0.1l-0.4-0.4l0.2-0.2l0.4,0.4c0.5-0.6,1.4-0.6,2-0.1
	c0,0,0.1,0.1,0.1,0.1l0,0l-0.4,0.4l-0.1-0.1c-0.3-0.4-0.9-0.4-1.3-0.1c0,0-0.1,0.1-0.1,0.1l1.3,1.4c0.7-0.5,1.4-0.6,1.9-0.1
	c0.5,0.5,0.6,1.4,0,1.9c0,0-0.1,0.1-0.1,0.1l0.3,0.3l-0.2,0.2L424.6,260.3z M424.5,259.7c0.3-0.3,0.3-0.8,0-1.2c0,0,0,0,0,0
	c-0.4-0.4-0.8-0.2-1.2,0L424.5,259.7z M421.4,257c-0.4,0.3-0.4,0.9,0,1.3c0,0,0,0,0,0c0.4,0.4,0.9,0.2,1.3,0L421.4,257z"/>
<circle class="st18" cx="450.5" cy="231.4" r="3.5"/>
<path d="M452,233.3c-0.4,0.5-1.2,0.6-1.7,0.2c-0.1-0.1-0.1-0.1-0.2-0.2l0.4-0.4l0,0c0.3,0.3,0.7,0.4,1.1,0.1c0,0,0.1-0.1,0.1-0.1
	l-1.2-1.2c-0.7,0.4-1.4,0.8-2.1,0c-0.6-0.5-0.6-1.4,0-2c0,0,0.1-0.1,0.1-0.1l-0.4-0.4l0.2-0.2l0.4,0.4c0.5-0.6,1.4-0.7,2-0.1
	c0.1,0,0.1,0.1,0.1,0.1v0.1l-0.4,0.4l-0.1-0.1c-0.3-0.4-0.9-0.4-1.3-0.1c0,0-0.1,0.1-0.1,0.1l1.3,1.3c0.7-0.5,1.4-0.6,1.9-0.1
	c0.5,0.5,0.5,1.4,0,1.9c0,0,0,0-0.1,0.1l0.3,0.3l-0.2,0.2L452,233.3z M451.9,232.7c0.3-0.3,0.3-0.8,0-1.1c0,0,0,0,0,0
	c-0.4-0.4-0.8-0.2-1.2,0L451.9,232.7z M448.8,230.1c-0.4,0.3-0.4,0.9,0,1.3c0,0,0,0,0,0c0.4,0.4,0.9,0.2,1.3,0L448.8,230.1z"/>
<rect x="371.6" y="219.1" transform="matrix(0.9859 -0.1676 0.1676 0.9859 -36.8068 68.186)" class="st12" width="27.7" height="66"/>
<rect x="375.9" y="223.6" transform="matrix(0.9859 -0.1676 0.1676 0.9859 -36.7938 68.216)" class="st13" width="19.5" height="56.8"/>
<circle class="st14" cx="385.7" cy="252.1" r="9.2"/>
<path class="st15" d="M376.3,253.7c-0.9-5.2,2.6-10.1,7.8-10.9s10.1,2.6,10.9,7.8c0.9,5.2-2.6,10.1-7.8,10.9
	C382.1,262.3,377.2,258.8,376.3,253.7z M394.5,250.6c-0.8-4.9-5.4-8.1-10.3-7.3c-4.9,0.8-8.1,5.4-7.3,10.3c0.8,4.9,5.4,8.1,10.3,7.3
	c0,0,0,0,0,0C392,260,395.3,255.4,394.5,250.6z"/>
<circle class="st16" cx="385.7" cy="252.1" r="6"/>
<path class="st17" d="M379.4,253.1c-0.6-3.4,1.7-6.7,5.2-7.3s6.7,1.7,7.3,5.2c0.6,3.4-1.7,6.7-5.2,7.3c0,0,0,0,0,0
	C383.3,258.9,380,256.6,379.4,253.1z M391.4,251.1c-0.5-3.1-3.5-5.2-6.6-4.7s-5.2,3.5-4.7,6.6c0.5,3.1,3.5,5.2,6.6,4.7
	C389.8,257.2,391.9,254.3,391.4,251.1C391.4,251.1,391.4,251.1,391.4,251.1L391.4,251.1z"/>
<circle class="st18" cx="388.7" cy="271.2" r="3.5"/>
<path d="M391.2,271.1c0.2,0.6-0.1,1.3-0.8,1.5c-0.1,0-0.2,0-0.3,0.1l-0.1-0.6l0,0c0.5-0.1,0.7-0.4,0.6-0.9l-1.7,0.3
	c-0.1,0.8-0.2,1.6-1.1,1.7c-0.8,0.1-1.5-0.4-1.7-1.1c0,0,0-0.1,0-0.1l-0.6,0.1l0-0.3l0.6-0.1c-0.2-0.8,0.3-1.5,1.1-1.7
	c0.1,0,0.1,0,0.2,0h0.1l0.1,0.6h-0.1c-0.5,0-0.9,0.5-0.8,1c0,0,0,0.1,0,0.1l1.9-0.3c0-0.8,0.3-1.5,1.1-1.6c0.7-0.1,1.4,0.4,1.6,1.1
	c0,0,0,0,0,0l0.5-0.1l0,0.3L391.2,271.1z M390.7,270.8c-0.1-0.4-0.5-0.8-0.9-0.7c0,0,0,0,0,0c-0.5,0.1-0.6,0.5-0.7,1L390.7,270.8z
	 M386.7,271.8c0.1,0.5,0.5,0.9,1,0.8c0,0,0,0,0,0c0.6-0.1,0.7-0.6,0.7-1.1L386.7,271.8z"/>
<circle class="st18" cx="382.3" cy="233.3" r="3.5"/>
<path d="M384.8,233.2c0.2,0.6-0.1,1.3-0.8,1.5c-0.1,0-0.2,0-0.3,0.1l-0.1-0.6l0,0c0.4,0,0.7-0.4,0.7-0.8c0,0,0-0.1,0-0.1l-1.7,0.3
	c-0.1,0.8-0.2,1.6-1.2,1.7c-0.8,0.1-1.5-0.4-1.7-1.1c0,0,0-0.1,0-0.1l-0.6,0.1l0-0.3l0.6-0.1c-0.2-0.8,0.3-1.5,1.1-1.7
	c0.1,0,0.2,0,0.2,0h0.1l0.1,0.6H381c-0.5,0-0.9,0.5-0.8,1c0,0,0,0.1,0,0.1l1.9-0.3c0-0.8,0.3-1.5,1.1-1.6c0.7-0.1,1.4,0.4,1.6,1.1
	c0,0,0,0,0,0l0.5-0.1l0.1,0.3L384.8,233.2z M384.2,232.9c-0.1-0.4-0.5-0.8-0.9-0.7c0,0,0,0,0,0c-0.5,0.1-0.6,0.5-0.7,1L384.2,232.9z
	 M380.2,233.9c0.1,0.5,0.5,0.8,1,0.8c0,0,0,0,0.1,0c0.6-0.1,0.7-0.6,0.7-1.1L380.2,233.9z"/>
<path class="st11" d="M401.1,386.8c0,0,6,29.8,4.5,40.6l5.9-9.4L401.1,386.8z"/>
<rect x="388.5" y="338.2" transform="matrix(0.9859 -0.1676 0.1676 0.9859 -56.5254 72.7032)" class="st12" width="27.7" height="65.9"/>
<rect x="392.8" y="342.7" transform="matrix(0.9859 -0.1676 0.1676 0.9859 -56.5141 72.7333)" class="st13" width="19.5" height="56.8"/>
<circle class="st14" cx="402.6" cy="371.1" r="9.2"/>
<path class="st15" d="M393.2,372.7c-0.9-5.2,2.6-10.1,7.8-10.9c5.2-0.9,10.1,2.6,10.9,7.8c0.9,5.1-2.6,10-7.7,10.9
	C399.1,381.4,394.1,377.9,393.2,372.7C393.2,372.7,393.2,372.7,393.2,372.7z M411.4,369.6c-0.8-4.9-5.4-8.1-10.3-7.3
	c-4.9,0.8-8.1,5.4-7.3,10.3c0.8,4.9,5.4,8.1,10.3,7.3C408.9,379.1,412.2,374.5,411.4,369.6z"/>
<circle class="st16" cx="402.6" cy="371.1" r="6"/>
<path class="st17" d="M396.3,372.2c-0.6-3.4,1.7-6.7,5.2-7.3s6.7,1.7,7.3,5.2c0.6,3.4-1.7,6.7-5.2,7.3
	C400.2,378,396.9,375.6,396.3,372.2C396.4,372.2,396.4,372.2,396.3,372.2z M408.3,370.2c-0.5-3.1-3.5-5.2-6.6-4.7s-5.2,3.5-4.7,6.6
	c0.5,3.1,3.5,5.2,6.6,4.7c0,0,0,0,0,0C406.7,376.3,408.8,373.3,408.3,370.2C408.3,370.2,408.3,370.2,408.3,370.2L408.3,370.2z"/>
<circle class="st18" cx="405.6" cy="390.3" r="3.5"/>
<path d="M408.1,390.1c0.2,0.7-0.2,1.3-0.8,1.6c-0.1,0-0.2,0-0.3,0l-0.1-0.6l0,0c0.5-0.1,0.7-0.4,0.6-0.9l-1.7,0.3
	c-0.1,0.8-0.2,1.6-1.1,1.7c-0.8,0.1-1.5-0.4-1.7-1.1c0,0,0-0.1,0-0.1l-0.6,0.1l-0.1-0.3l0.6-0.1c-0.2-0.8,0.3-1.5,1-1.7
	c0.1,0,0.1,0,0.2,0h0.1l0.1,0.6h-0.1c-0.5,0-0.9,0.5-0.8,1c0,0,0,0.1,0,0.1l1.9-0.3c0-0.8,0.3-1.5,1.1-1.6c0.7-0.1,1.4,0.4,1.6,1.1
	c0,0,0,0,0,0l0.5-0.1l0.1,0.3L408.1,390.1z M407.6,389.9c-0.1-0.4-0.5-0.8-0.9-0.7c0,0,0,0,0,0c-0.5,0.1-0.6,0.5-0.7,1L407.6,389.9z
	 M403.6,390.9c0.1,0.5,0.5,0.8,1,0.8c0,0,0,0,0.1,0c0.5-0.1,0.7-0.6,0.7-1.1L403.6,390.9z"/>
<circle class="st18" cx="399.2" cy="352.4" r="3.5"/>
<path d="M401.7,352.2c0.2,0.7-0.2,1.3-0.8,1.6c-0.1,0-0.2,0-0.3,0l-0.1-0.6l0,0c0.5-0.1,0.7-0.4,0.6-1l-1.7,0.3
	c-0.1,0.8-0.2,1.6-1.1,1.7c-0.8,0.1-1.5-0.4-1.7-1.1c0,0,0-0.1,0-0.1l-0.6,0.1l-0.1-0.3l0.6-0.1c-0.2-0.8,0.3-1.5,1-1.7
	c0.1,0,0.1,0,0.2,0h0.1l0.1,0.6h-0.1c-0.5,0-0.9,0.5-0.8,1c0,0,0,0.1,0,0.1l1.9-0.3c0-0.8,0.3-1.5,1.1-1.6c0.7-0.1,1.4,0.4,1.6,1.1
	c0,0,0,0,0,0l0.5-0.1l0,0.3L401.7,352.2z M401.1,352c-0.1-0.4-0.5-0.8-0.9-0.7c0,0,0,0,0,0c-0.5,0.1-0.6,0.5-0.7,1L401.1,352z
	 M397.1,353c0.1,0.5,0.5,0.9,1,0.8c0,0,0,0,0,0c0.5-0.1,0.7-0.6,0.7-1.1L397.1,353z"/>
<rect x="402" y="283" transform="matrix(0.918 -0.3965 0.3965 0.918 -82.0385 196.8202)" class="st12" width="65.9" height="27.7"/>
<rect x="406.7" y="287.2" transform="matrix(0.918 -0.3965 0.3965 0.918 -82.0952 196.8741)" class="st13" width="56.8" height="19.5"/>
<circle class="st14" cx="435.1" cy="297" r="9.2"/>
<path class="st15" d="M431.4,288.3c4.8-2.1,10.4,0.2,12.4,5c2.1,4.8-0.2,10.4-5,12.4c-4.8,2-10.4-0.2-12.4-5
	C424.3,296,426.5,290.4,431.4,288.3C431.3,288.3,431.3,288.3,431.4,288.3z M438.7,305.2c4.5-2,6.6-7.2,4.6-11.7
	c-2-4.5-7.2-6.6-11.7-4.6c-4.5,2-6.6,7.2-4.6,11.7C428.9,305.1,434.1,307.1,438.7,305.2L438.7,305.2z"/>
<circle class="st16" cx="435.1" cy="297" r="6"/>
<path class="st17" d="M432.6,291.2c3.2-1.4,6.9,0.1,8.3,3.3c1.4,3.2-0.1,6.9-3.3,8.3c-3.2,1.4-6.9-0.1-8.3-3.3c0,0,0,0,0,0
	C427.9,296.3,429.4,292.6,432.6,291.2z M437.4,302.3c2.9-1.3,4.3-4.6,3-7.6c-1.3-2.9-4.6-4.3-7.6-3s-4.3,4.6-3,7.6c0,0,0,0,0,0
	C431.1,302.2,434.5,303.5,437.4,302.3z"/>
<circle class="st18" cx="417.3" cy="304.5" r="3.5"/>
<path d="M418,306.9c-0.6,0.4-1.3,0.2-1.7-0.4c0-0.1-0.1-0.2-0.1-0.2l0.5-0.2l0,0c0.2,0.5,0.5,0.6,1.1,0.4l-0.7-1.6
	c-0.8,0.1-1.6,0.2-2-0.7c-0.3-0.7,0-1.5,0.7-1.9c0,0,0.1,0,0.1-0.1l-0.2-0.5l0.3-0.1l0.2,0.5c0.7-0.4,1.5-0.1,1.9,0.6
	c0,0.1,0.1,0.1,0.1,0.2v0.1l-0.5,0.2v-0.1c-0.1-0.5-0.7-0.7-1.1-0.6c0,0-0.1,0-0.1,0l0.8,1.7c0.8-0.2,1.5-0.1,1.8,0.6
	c0.3,0.7,0,1.5-0.7,1.8c0,0,0,0,0,0l0.2,0.4l-0.3,0.1L418,306.9z M418.1,306.3c0.4-0.2,0.6-0.6,0.5-1.1c0,0,0,0,0,0
	c-0.2-0.5-0.6-0.5-1.1-0.4L418.1,306.3z M416.2,302.7c-0.5,0.2-0.7,0.7-0.5,1.2c0,0,0,0,0,0.1c0.2,0.5,0.7,0.5,1.2,0.4L416.2,302.7z
	"/>
<circle class="st18" cx="452.5" cy="289.3" r="3.5"/>
<path d="M453.2,291.6c-0.6,0.4-1.3,0.2-1.7-0.4c0-0.1-0.1-0.2-0.1-0.2l0.5-0.2l0,0c0.1,0.4,0.6,0.6,1,0.5c0,0,0.1,0,0.1,0l-0.7-1.6
	c-0.8,0.1-1.6,0.2-2-0.7c-0.3-0.7,0-1.6,0.7-1.9c0,0,0.1,0,0.1,0l-0.2-0.5l0.3-0.1l0.2,0.5c0.7-0.4,1.5-0.1,1.9,0.6
	c0,0.1,0.1,0.1,0.1,0.2v0.1L453,288c0,0,0-0.1,0-0.1c-0.2-0.5-0.7-0.7-1.2-0.6c0,0-0.1,0-0.1,0l0.8,1.7c0.8-0.2,1.5-0.1,1.8,0.6
	c0.3,0.7,0,1.5-0.7,1.8c0,0,0,0,0,0l0.2,0.4l-0.3,0.1L453.2,291.6z M453.3,291.1c0.4-0.2,0.6-0.6,0.5-1.1c0,0,0,0,0,0
	c-0.2-0.5-0.6-0.5-1.1-0.4L453.3,291.1z M451.4,287.5c-0.5,0.2-0.7,0.7-0.5,1.2c0,0,0,0,0,0c0.2,0.5,0.7,0.5,1.2,0.4L451.4,287.5z"
	/>
<path class="st11" d="M436.2,429.5c0,0-28.6,10.2-37.2,17.1l5.1-9.9L436.2,429.5z"/>
<rect x="418.1" y="407.1" transform="matrix(0.918 -0.3965 0.3965 0.918 -129.9417 213.3622)" class="st12" width="65.9" height="27.7"/>
<rect x="422.8" y="411.4" transform="matrix(0.918 -0.3965 0.3965 0.918 -129.9984 213.4161)" class="st13" width="56.8" height="19.5"/>
<circle class="st14" cx="451.2" cy="421.1" r="9.2"/>
<path class="st15" d="M447.4,412.4c4.8-2.1,10.4,0.1,12.5,5s-0.1,10.4-5,12.5c-4.8,2.1-10.4-0.1-12.5-4.9
	C440.4,420.1,442.6,414.5,447.4,412.4z M454.7,429.3c4.5-1.9,6.6-7.2,4.7-11.7c-1.9-4.5-7.2-6.6-11.7-4.7c-4.5,1.9-6.6,7.2-4.7,11.7
	c0,0,0,0,0,0C445,429.2,450.2,431.3,454.7,429.3L454.7,429.3z"/>
<circle class="st16" cx="451.2" cy="421.1" r="6"/>
<path class="st17" d="M448.7,415.3c3.2-1.4,6.9,0.1,8.3,3.3c1.4,3.2-0.1,6.9-3.3,8.3c-3.2,1.4-6.9-0.1-8.3-3.3c0,0,0,0,0,0
	C444,420.4,445.5,416.7,448.7,415.3z M453.5,426.4c2.9-1.3,4.3-4.7,3-7.6s-4.7-4.3-7.6-3c-2.9,1.3-4.3,4.7-3,7.6c0,0,0,0,0,0
	C447.2,426.3,450.5,427.7,453.5,426.4L453.5,426.4z"/>
<circle class="st18" cx="433.3" cy="428.6" r="3.5"/>
<path d="M434,431c-0.6,0.4-1.3,0.2-1.7-0.4c0-0.1-0.1-0.2-0.1-0.2l0.5-0.2l0,0c0.2,0.5,0.5,0.6,1.1,0.4l-0.7-1.6
	c-0.8,0.1-1.6,0.2-2-0.7c-0.3-0.7,0-1.5,0.7-1.9c0,0,0.1,0,0.1-0.1l-0.2-0.5l0.3-0.1l0.2,0.5c0.7-0.4,1.6-0.1,1.9,0.6
	c0,0.1,0.1,0.1,0.1,0.2v0.1l-0.5,0.2v-0.1c-0.1-0.5-0.7-0.7-1.1-0.6c0,0-0.1,0-0.1,0l0.8,1.7c0.8-0.2,1.5-0.1,1.8,0.6
	c0.3,0.7,0,1.5-0.7,1.8c0,0,0,0,0,0l0.2,0.4l-0.3,0.1L434,431z M434.1,430.4c0.4-0.2,0.6-0.6,0.5-1.1c0,0,0,0,0,0
	c-0.2-0.5-0.6-0.5-1.1-0.4L434.1,430.4z M432.2,426.8c-0.5,0.2-0.7,0.7-0.5,1.2c0,0,0,0,0,0.1c0.2,0.5,0.7,0.5,1.2,0.4L432.2,426.8z
	"/>
<circle class="st18" cx="468.6" cy="413.4" r="3.5"/>
<path d="M469.3,415.8c-0.6,0.4-1.3,0.2-1.7-0.4c0-0.1-0.1-0.2-0.1-0.2l0.5-0.2l0,0c0.1,0.4,0.6,0.6,1,0.5c0,0,0.1,0,0.1-0.1
	l-0.7-1.6c-0.8,0.1-1.6,0.2-2-0.7c-0.3-0.7,0-1.5,0.7-1.9c0,0,0.1,0,0.1-0.1l-0.2-0.5l0.3-0.1l0.2,0.5c0.7-0.4,1.5-0.1,1.9,0.6
	c0,0.1,0.1,0.1,0.1,0.2v0.1l-0.5,0.2c0,0,0-0.1,0-0.1c-0.1-0.5-0.7-0.7-1.1-0.6c0,0-0.1,0-0.1,0l0.8,1.7c0.8-0.2,1.5-0.1,1.8,0.6
	c0.3,0.7,0,1.5-0.7,1.8c0,0,0,0,0,0l0.2,0.4l-0.3,0.1L469.3,415.8z M469.4,415.2c0.4-0.2,0.6-0.6,0.5-1.1c0,0,0,0,0,0
	c-0.2-0.5-0.6-0.5-1.1-0.4L469.4,415.2z M467.5,411.6c-0.5,0.2-0.7,0.7-0.5,1.2c0,0,0,0,0,0.1c0.2,0.5,0.7,0.5,1.2,0.4L467.5,411.6z
	"/>
<rect x="421.6" y="358.4" transform="matrix(0.6859 -0.7277 0.7277 0.6859 -128.1506 447.67)" class="st12" width="66" height="27.7"/>
<rect x="426.3" y="362.6" transform="matrix(0.6859 -0.7277 0.7277 0.6859 -128.1795 447.8236)" class="st13" width="56.8" height="19.5"/>
<circle class="st14" cx="454.7" cy="372.4" r="9.2"/>
<path class="st15" d="M447.8,365.9c3.6-3.8,9.6-4,13.4-0.4c3.8,3.6,4,9.6,0.4,13.4c-3.6,3.8-9.6,4-13.4,0.4
	C444.4,375.7,444.2,369.7,447.8,365.9z M461.2,378.5c3.4-3.6,3.2-9.2-0.4-12.6s-9.2-3.2-12.6,0.4c-3.4,3.6-3.2,9.2,0.4,12.6
	C452.2,382.3,457.8,382.1,461.2,378.5L461.2,378.5z"/>
<circle class="st16" cx="454.7" cy="372.4" r="6"/>
<path class="st17" d="M450.1,368.1c2.4-2.5,6.4-2.7,8.9-0.3c2.5,2.4,2.7,6.4,0.3,8.9c-2.4,2.5-6.4,2.7-8.9,0.3
	C447.8,374.6,447.7,370.6,450.1,368.1C450.1,368.1,450.1,368.1,450.1,368.1z M458.9,376.3c2.2-2.3,2.1-6-0.2-8.1
	c-2.3-2.2-6-2.1-8.1,0.2c-2.2,2.3-2.1,6,0.2,8.1c0,0,0,0,0,0C453.1,378.8,456.7,378.7,458.9,376.3z"/>
<circle class="st18" cx="441.3" cy="386.4" r="3.5"/>
<path d="M442.9,388.3c-0.4,0.6-1.2,0.7-1.7,0.3c-0.1-0.1-0.1-0.1-0.2-0.2l0.4-0.4l0,0c0.3,0.3,0.8,0.3,1.1,0c0,0,0.1-0.1,0.1-0.1
	l-1.2-1.2c-0.7,0.4-1.4,0.8-2.1,0.1c-0.6-0.5-0.6-1.4-0.1-2c0,0,0.1-0.1,0.1-0.1l-0.4-0.4l0.2-0.2l0.4,0.4c0.5-0.6,1.4-0.7,2-0.2
	c0.1,0,0.1,0.1,0.1,0.1h0l-0.4,0.4l-0.1-0.1c-0.3-0.4-0.9-0.4-1.3-0.1c0,0,0,0-0.1,0.1l1.4,1.3c0.7-0.5,1.3-0.7,1.9-0.1
	c0.6,0.5,0.6,1.4,0.1,1.9c0,0-0.1,0.1-0.1,0.1l0.3,0.3l-0.2,0.2L442.9,388.3z M442.7,387.7c0.3-0.3,0.3-0.8,0-1.2c0,0,0,0,0,0
	c-0.4-0.4-0.8-0.2-1.2,0L442.7,387.7z M439.5,385.1c-0.4,0.4-0.3,0.9,0,1.3c0,0,0,0,0,0c0.4,0.4,0.9,0.2,1.3-0.1L439.5,385.1z"/>
<circle class="st18" cx="467.6" cy="358.4" r="3.5"/>
<path d="M469.2,360.3c-0.4,0.6-1.2,0.7-1.7,0.3c-0.1,0-0.1-0.1-0.2-0.2l0.4-0.4l0,0c0.3,0.3,0.7,0.4,1.1,0.1c0,0,0.1-0.1,0.1-0.1
	l-1.2-1.2c-0.7,0.4-1.4,0.8-2.1,0.1c-0.6-0.5-0.6-1.4-0.1-2c0,0,0.1-0.1,0.1-0.1l-0.4-0.4l0.2-0.2l0.4,0.4c0.5-0.6,1.4-0.7,2-0.2
	c0.1,0,0.1,0.1,0.1,0.1h0l-0.4,0.4l-0.1-0.1c-0.3-0.4-0.9-0.4-1.3-0.1c0,0-0.1,0.1-0.1,0.1l1.4,1.3c0.7-0.5,1.3-0.7,1.9-0.1
	c0.6,0.5,0.6,1.4,0.1,1.9c0,0-0.1,0.1-0.1,0.1l0.4,0.3l-0.2,0.2L469.2,360.3z M469.1,359.7c0.3-0.3,0.3-0.8,0-1.1c0,0,0,0,0,0
	c-0.4-0.4-0.8-0.2-1.2,0.1L469.1,359.7z M465.9,357.2c-0.4,0.4-0.4,0.9,0,1.3c0,0,0,0,0,0c0.4,0.4,0.9,0.2,1.3-0.1L465.9,357.2z"/>
<path class="st19" d="M465.4,530.3l-85,4.6v3.3l-85-7.9c-0.6,3.7-0.8,7.5-0.8,11.3c0,22.3,9.5,87.8,25,102.5l60.9,3.5l60.9-3.5
	c15.5-14.7,25-80.2,25-102.5C466.3,537.8,465.9,534.1,465.4,530.3z"/>
<path class="st20" d="M470,530.3H290.7c-1,6.4-1.1,12.9-0.4,19.3h180.2c0.3-2.7,0.4-5.3,0.4-8C470.9,537.9,470.6,534.1,470,530.3z"
	/>
<path class="st21" d="M444.9,648.7l-3.6-4.6H319.4l-3.6,4.6c-2.3,2.9-1.8,7,1.1,9.3c1.2,0.9,2.6,1.4,4.1,1.4h118.7
	c3.7,0,6.6-3,6.6-6.6C446.3,651.3,445.8,649.9,444.9,648.7z"/>
<path class="st4" d="M148.7,208.4l10.4-15.8c0,0,10.7,10.5,15.2,9.7l-5,23.9C169.2,226.3,149.1,216.7,148.7,208.4z"/>
<polygon class="st11" points="185,371.8 185.5,520.4 173.9,651 156.3,651 154.3,517.9 131.7,369.2 "/>
<path class="st11" d="M163.3,370.7c0,0,1.4,27-2.1,52.2s-13.9,95.4-13.9,95.4L127.3,651h-17.6l1.3-143.4l-3.6-139.8L163.3,370.7z"/>
<path class="st4" d="M152.2,321.7l18.2-50l15,100.7l-78-4.6l1.5-87.5l-21.5,32.8c-1.5,2.4-2.3,5.2-2.1,8l5.2,69.9L77,395.5
	l-15.9-80.7c-0.6-2.7-0.2-5.6,1-8.1l40.9-84.2l43-22.1l20.8,15.8l8.3-7l22.9,27.5l-7.4,50.2l23.7-9.9l5.2,9.9L173.3,331L152.2,321.7
	z"/>
<path class="st3" d="M105.3,221.4c0,0,8.7,45.2,0.9,62.9l-0.1,54.7l28.1,22.3l27.4-13.6l23.7,15.5l3.7-93.7l9.1-32.9L187,223.2
	l-10.3,6.7l-9.8-13.8l-12.7,10.6L135,206L105.3,221.4z"/>
<path class="st4" d="M77,395.5c0,0,0.4,25.3,6.5,27.1c10.1,3,4.2-20.5,8.4-18.5c5.6,2.7,3.9-3.4-1.4-13.1L77,395.5z"/>
<path class="st4" d="M198.3,143.5c4.4,2.1,6.7,12.5,5.2,18.7s-4.8,16.6-2.7,18.1c0.8,0.6,2.6,1.6,2.9,2.3c0.4,1.1-2.4,3-4.4,3.4
	c-3.1,0.6-8.7,21.8-24.8,18.7S148.2,188,149.7,174S158,123.7,198.3,143.5z"/>
<path class="st2" d="M162,126.6c0,0,8.6-9.2,20.8-4.4s26.7,21.6,31.5,19.5s6.1,11.2,0.7,13.5c-3.6,1.5-7.3,2.9-11.1,4
	c0,0-4.5-9.2-12-10.1s-15.7-2.3-17.4-5.7c0,0,0.3,17.7-9.1,19.5c-2.4,0.4-4.3-3.9-5.5-3.2c-3.6,2.1-2.6,10.1-1.3,14.3
	c0,0-9.7,4.5-8.5,8.5s-8.7-2.5-9.9-16.4S146.5,125.4,162,126.6z"/>
<ellipse transform="matrix(0.3252 -0.9456 0.9456 0.3252 -30.9033 297.2017)" class="st7" cx="192.8" cy="170.3" rx="2.7" ry="2.1"/>
<path class="st8" d="M186.2,185.8c0,0,1.6,7.1,5.8,6.3"/>
<path class="st8" d="M184,184.8c0.4-0.7,1.1-1.2,1.9-1.4"/>
<path class="st22" d="M187.1,163c0,0,6.4-1.9,10.9,0.2"/>
<polygon class="st2" points="156.3,651 156.3,666.2 164.5,666.2 164.5,662.4 169.6,666.2 207.9,666.2 207.9,666.2 173.9,651 "/>
<polygon class="st2" points="109.7,651 109.7,666.2 117.9,666.2 117.9,662.4 123,666.2 161.3,666.2 161.3,666.2 127.3,651 "/>
<path class="st8" d="M187.9,169.1c2.2-1.5,4.9-1.9,7.4-1"/>
<g id="Layer_8">
	<path class="st4" d="M214.4,276.9c0,0,17.5-16.1,24.5-12.3c6,3.3,0.4,16.4-4.1,17.4s-12.2,2-15.2,4.8L214.4,276.9z"/>
	<path class="st19" d="M236.9,299.9l-11.6,13.1l53,29.8l5.8-20l35-13.5l10.5,5.7l-6.6-23.8l-6.3,11.5l-28.9,7.8l11.4-36.5
		l-25.7-14.6l-7.4,8.1c-15.1-11-26.1-6.7-31.4-0.9C218.9,283.9,236.9,299.9,236.9,299.9z M236.6,268.8c10.4-11,27.5,1.2,27.5,1.2
		l-25.2,26.8C238.9,296.8,225.2,280.8,236.6,268.8L236.6,268.8z"/>
	<path class="st4" d="M241.4,266.4c-0.4-2-3.7-3.8-6.7-1.3S222.2,281,232,283c1.1,0.2,3.8-0.6,4.7-1.1
		C240.4,280,242.8,272.3,241.4,266.4z"/>
	<path class="st4" d="M221.6,271.1c0,0,12.3-10.6,13-5.1s-3.6,13-5.4,11.6s-0.3-6.5-0.3-6.5s-6.1,4.5-11,3.2L221.6,271.1z"/>
	<path class="st4" d="M347.8,313.9c0,0,4,7.5,6.9,5.3C358.1,316.6,347.8,313.9,347.8,313.9z"/>
	<path class="st4" d="M362.5,321.2c0,0,11,4.8,6.9,7.6C365.9,331.1,362.5,321.2,362.5,321.2z"/>
	<path class="st4" d="M349.9,328.7c0,0,11,4.8,6.9,7.6C353.3,338.6,349.9,328.7,349.9,328.7z"/>
	<path class="st4" d="M363,308c0,0,11.9,1.5,8.7,5.4C369.1,316.6,363,308,363,308z"/>
	<path class="st4" d="M347.4,300.3c0,0,10.5,1,7.4,3.6S347.4,300.3,347.4,300.3z"/>
	<path class="st4" d="M337.8,319.9c0,0,3.8,9.8,5.5,6.2S337.8,319.9,337.8,319.9z"/>
	<path class="st4" d="M333.4,308.4c0,0,10.4,1.8,7.1,4.2S333.4,308.4,333.4,308.4z"/>
	<path class="st4" d="M331.5,298.4c0,0,10.5-0.9,7.9,2.3S331.5,298.4,331.5,298.4z"/>
</g>
<g id="Layer_7-2">
	<path class="st7" d="M676.1,269.5c0,0-4.8,28.8,14.6,50.7c11.5,12.9,28.4,19.7,45.6,18.3c-5.2-3.7-7.6-10.2-6-16.4
		c15.4-99.1-26.8-124.8-26.8-124.8s-11.5-12.4-32.7-11.1c0,0-19.5,0.7-28.3,17.4c0,0-13.2,19.8-0.7,46.4c2.5,5.3,4.8,21.5,5.3,27.3
		l38.4,17.3"/>
	<polygon class="st23" points="618.8,385.9 615.7,477.4 627.2,643.6 640,643.6 652.2,471.7 671.6,380.3 	"/>
	<polygon class="st23" points="691.3,391.1 691.6,478.9 699.8,643.6 688.3,643.6 655.2,486.9 637.5,397.1 	"/>
	<path class="st24" d="M594.6,302.2l34.3,14.2l30.8-25.8l13.2,23.5l-35.4,27c-17-6.8-32.8-16.4-46.7-28.4L594.6,302.2z"/>
	<path class="st24" d="M685,269.7L685,269.7c0,0,25.1,10.8,23.6,21c-3.4,22.5-16.8,38.9-16.8,38.9l-12.9,25.6
		c-1.8,5.3,7.5,17.5,13,27.5l49,105.2c0,0-83.6,50.5-171.4,6.9c-0.2-0.1,0.2-0.5,0.3-0.8c0,0,41.8-127.3,57.4-141.5
		c4.3-10.3,1.5-23.5-1.6-29.6c-0.8-1.6-1.3-3.3-1.5-5c-0.3-3.2,0.7-6.3,2.8-8.7l27.2-33.9l9.2-3"/>
	<g id="Layer_8-2">
		<path class="st4" d="M594.6,302.2c0,0-19.5-13.6-26-8.9c-5.5,4,1.9,16.3,6.4,16.7s12.3,0.4,15.7,2.7L594.6,302.2z"/>
		<path class="st19" d="M573,294.8c-6.1-5-17.6-7.8-31,5.1l-8.4-7.1l-23.5,18l16.2,34.7l-29.6-3.8l-7.8-10.5l-3.4,24.5l9.6-7.1
			l36.5,8.6l8.5,19l48.5-36.7L575.5,328C575.5,328,591.1,309.8,573,294.8z M573,325.3L544.4,302c0,0,15.3-14.4,27.1-4.9
			C584.4,307.5,573,325.3,573,325.3z"/>
		<path class="st4" d="M566.4,295.4c0.2-2,3.2-4.3,6.5-2.1s14.5,14.1,5.1,17.4c-1,0.4-3.8-0.1-4.8-0.5
			C569.2,308.8,565.9,301.5,566.4,295.4z"/>
		<path class="st4" d="M587.3,298.2c0,0-14.2-9.7-14.2-4.1s5.2,12.4,6.9,10.7s-0.6-6.5-0.6-6.5s6.6,3.7,11.3,1.7L587.3,298.2z"/>
		<path class="st4" d="M467.3,356.8c0,0-3,7.9-6.1,6.2C457.5,360.8,467.3,356.8,467.3,356.8z"/>
		<path class="st4" d="M453.8,366c0,0-10.3,6.2-5.8,8.4C451.7,376.3,453.8,366,453.8,366z"/>
		<path class="st4" d="M467.3,371.7c0,0-10.3,6.2-5.8,8.4C465.2,382,467.3,371.7,467.3,371.7z"/>
		<path class="st4" d="M451.5,353c0,0-11.6,3.1-7.9,6.5C446.6,362.3,451.5,353,451.5,353z"/>
		<path class="st4" d="M465.9,343.2c0,0-10.3,2.4-6.9,4.6S465.9,343.2,465.9,343.2z"/>
		<path class="st4" d="M478,361.3c0,0-2.4,10.3-4.6,6.9S478,361.3,478,361.3z"/>
		<path class="st4" d="M480.9,349.4c0,0-10.1,3.2-6.5,5.1S480.9,349.4,480.9,349.4z"/>
		<path class="st4" d="M481.4,339.2c0,0-10.5,0.6-7.6,3.3S481.4,339.2,481.4,339.2z"/>
	</g>
	<path class="st24" d="M574.5,349.6l-1.9,12.9c0,0,56.9,2.8,75.5-1.2c33.2-7,54-41.9,59.4-57.1c1.9-5.3-3.3-19.4-16.3-21.8
		c0,0-26,48.4-47.9,54.9S574.5,349.6,574.5,349.6z"/>
	<path class="st2" d="M641.2,643.6v22.6h-3.3l-2.4-9.5l-5.9,9.5h-33.2c12.8-2.7,23.7-11,29.7-22.6H641.2z"/>
	<path class="st2" d="M702.2,643.6v22.6h-3.3l-2.4-9.5l-5.9,9.5h-33.2c12.8-2.7,23.7-11,29.6-22.6H702.2z"/>
	<path class="st4" d="M659.8,273.7l-0.1-0.8c1.9-1.4,1.8-4.1,1.5-6.4c-0.4-3-1-6-1.7-9c4.8-4,10.5-6.6,16.6-7.7
		c2.1-0.4,3.2,0,3.4,2.1s0.2,3.8,0.5,5.7c0.6,3.7,1.7,7.2,3.3,10.6c0.2,0.3,0.3,0.6,0.2,1c-0.1,0.3-0.3,0.6-0.5,0.9
		c-2.7,3.1-5.6,5.9-8.8,8.4c-1,0.8-2.1,1.4-3.3,1.8c-4.2,1.7-8.9-0.3-10.5-4.5C660.1,275,659.9,274.3,659.8,273.7z"/>
	<path class="st4" d="M671.3,257.2c-6.1,2.6-13.3,4.3-19.1,1.1c-4.3-2.3-6.8-6.9-8.3-11.6c-1.4-5-2.4-10.2-2.8-15.4
		c-0.5-3.3-0.6-6.6-0.2-9.9c0.8-4.7,3.5-8.8,6.1-12.7c4.3-6.5,9.2-13.3,16.5-16.1c4.2-1.3,8.7-1.8,13.1-1.5c3.3-0.1,6.6,0.2,9.7,1.1
		c2.6,0.9,5,2.3,7.1,4.1c6.1,4.8,10.2,11.7,11.6,19.4C708.2,236.1,687.6,250.3,671.3,257.2z"/>
	<path class="st4" d="M658.7,213c-1.5-3-4.5-5.1-7.8-5.4"/>
	<path class="st2" d="M691.5,249.2c0,0-15-29.1-3.9-44.6c0,0-8.9,3.9-16,1.9c0,0-20.5-4.5-27.7,9.7c0,0-2.2,8.8-4.8,12.6l-0.2-7.2
		l5.7-14.3l16.3-15.2l15.6-4.4l16,5.8l10.6,9.8l5.6,23.4l-9.3,16.6L691.5,249.2z"/>
	<path class="st4" d="M670.1,216.8c4.6-1.7,9.7,0.1,12.4,4.2"/>
	<path class="st4" d="M658.1,235.4c-1-0.9-1.9-1.9-2.8-3c-0.2-0.2-0.4-0.5-0.5-0.8c-0.2-0.8,0.4-1.5,0.9-2.1l2.9-3.1"/>
	<path class="st4" d="M657.5,248.4c-0.9-0.1-1.9,0-2.8,0.1c-0.3,0.1-0.7,0.2-1,0.2c-1.3,0.1-2.2-1.3-2.4-2.5c0-1.3,0.1-2.6,0.2-3.8
		c0-1.1-0.3-2.2-0.2-3.2c0-0.3,0.1-0.6,0.3-0.8c0.4-0.4,1.1-0.3,1.7-0.1c3.8,1.6,7.2,3.9,10,6.9c0.1,0.1,0.2,0.2,0.3,0.4
		c0.2,0.8-1.6,1.9-2.2,2.2C660.2,248.2,658.8,248.4,657.5,248.4z"/>
	<path class="st25" d="M650.9,248.7c0.9,1,2.1,1.5,3.4,1.5c1.3,0,2.6-0.2,3.8-0.6c1-0.3,1.9-0.6,2.8-1c0.7-0.2,1.4-0.6,2.1-1
		c0.6-0.4,1-1.1,1.2-1.8c-1.5,0.7-3,1.2-4.6,1.4c-2.1,0.4-4.4,0.2-6.4-0.7c-0.7-0.3-1.6-1.2-2.3-0.7S650.3,248,650.9,248.7z"/>
	<path class="st25" d="M651.4,236.6c2.7,0,5.3,0.9,7.4,2.7c2,1.8,3.8,3.8,5.3,6c0.1,0.1,0.2,0.3,0.1,0.4s-0.3,0.1-0.5,0.1
		c-2.5-0.6-4.4-2.4-6.5-3.9c-1.7-1.1-3.6-2-5.6-2.4C650.1,239.2,648.8,236.8,651.4,236.6z"/>
	<path class="st4" d="M678.3,227.1c-0.9,0.2-1.8,0-2.5-0.5c-0.6-0.6-1.3-1.2-1.8-1.8c-0.4-0.4-0.9-0.9-1.5-1.2
		c-0.5-0.4-1.1-0.7-1.7-0.8c-1.6-0.4-3.3,0-4.6,1.1c-1.2,1-2.3,2.3-3.2,3.7"/>
	<path class="st4" d="M654.2,224.1l-1.4-1.5c-1-1.3-2.4-2.2-4-2.6c-1.3,0-2.7,0.4-3.9,1c-1.2,0.6-2.7,0.5-3.8-0.2"/>
	<ellipse transform="matrix(0.3915 -0.9202 0.9202 0.3915 198.172 752.3831)" class="st7" cx="668" cy="226.3" rx="2.5" ry="2"/>
	<ellipse transform="matrix(0.3915 -0.9202 0.9202 0.3915 188.3122 731.5525)" class="st7" cx="647.3" cy="223.4" rx="2.5" ry="2"/>
	<path class="st24" d="M695.4,276.8c0,0,13.5-0.2,14.7,4s-2.3,4.6-2.3,4.6s6.8,2.5,2.6,7.6c-3.7,4.5-6.2,0.1-6.2,0.1
		c0.8,2.4-0.2,4.9-2.4,6.1c-2.1,1.3-4.9,1-6.7-0.8c0,0-0.7,5.4-4.3,5.6s-5.9-3.5-5.9-3.5s0.6,3.4-3.6,4.8s-5.6-3.5-5.6-3.5
		c-0.6,2.5-2.9,4.2-5.5,4.2c-4.7,0.2-4.5-4.5-4.5-4.5s-2.6,4.6-6.5,3.1c-2.2-0.7-3.4-3-2.9-5.2c0,0-2.6,4-6.5,1.5s-1-5.6-1-5.6
		s-3.7,3.4-5.5,0.1s-0.5-4.8-0.5-4.8s-1.7,1.7-3.6-0.7s-0.6-4.1-0.6-4.1s-1.4,0.5-2-3.1s4.9-3.3,4.9-3.3s-2.5-3.3,0.2-4
		s11.1-1,12.6,1.1c0,0-0.6,11.2,10.7,12.9S695.4,276.8,695.4,276.8z"/>
	<path class="st23" d="M574.5,349.6c0,0-15.8-7.8-15.9-5.1s1.5,3.6,1.5,3.6s-12.9-2-15.3,2.2c-4.5,8,27.7,12.1,27.7,12.1
		L574.5,349.6z"/>
</g>
</svg>
