<?xml version="1.0" encoding="utf-8"?>
<!-- Generator: Adobe Illustrator 21.0.2, SVG Export Plug-In . SVG Version: 6.00 Build 0)  -->
<svg version="1.1" id="Layer_1" xmlns="http://www.w3.org/2000/svg" xmlns:xlink="http://www.w3.org/1999/xlink" x="0px" y="0px"
	 viewBox="0 0 25 25.9" style="enable-background:new 0 0 25 25.9;" xml:space="preserve">
<style type="text/css">
	.st0{fill:#3E75BA;}
</style>
<path id="Forma_1" class="st0" d="M24.6,23.6l-6.2-6.4c3.7-4.4,3.1-11-1.3-14.7c-4.4-3.7-11-3.1-14.7,1.3c-3.7,4.4-3.1,11,1.3,14.7
	c1.9,1.6,4.3,2.4,6.7,2.4c2.1,0,4.2-0.7,6-1.9l6.2,6.5c0.3,0.3,0.6,0.4,1,0.4c0.4,0,0.7-0.1,0.9-0.4C25.1,25,25.1,24.1,24.6,23.6z
	 M10.4,2.6c4.3,0,7.8,3.4,7.8,7.7c0,4.3-3.4,7.8-7.7,7.8c-4.3,0-7.8-3.4-7.8-7.7c0,0,0,0,0,0C2.7,6.1,6.2,2.6,10.4,2.6z"/>
</svg>
