<?xml version="1.0" encoding="utf-8"?>
<!-- Generator: Adobe Illustrator 21.0.2, SVG Export Plug-In . SVG Version: 6.00 Build 0)  -->
<svg version="1.1" id="Layer_1" xmlns="http://www.w3.org/2000/svg" xmlns:xlink="http://www.w3.org/1999/xlink" x="0px" y="0px"
	 viewBox="0 0 29 38" style="enable-background:new 0 0 29 38;" xml:space="preserve">
<style type="text/css">
	.st0{fill:#3E75BA;}
</style>
<path id="Forma_1" class="st0" d="M14.5,18.6c4.2,0,7.7-4.2,7.7-9.3S21,0,14.5,0S6.8,4.2,6.8,9.3S10.3,18.6,14.5,18.6z M0,32.8
	C0,32.5,0,32.7,0,32.8L0,32.8z M29,33C29,32.9,29,32.4,29,33L29,33z M29,32.4c-0.1-8.9-1.3-11.5-10.3-13.1c-2.4,2.1-6,2.1-8.4,0
	C1.4,20.9,0.2,23.4,0,32.1c0,0.2,0,0.4,0,0.7c0,0.2,0,0.4,0,0.9c0,0,2.1,4.3,14.5,4.3S29,33.7,29,33.7c0-0.3,0-0.5,0-0.7
	C29,32.8,29,32.6,29,32.4L29,32.4z"/>
</svg>
