<svg xmlns="http://www.w3.org/2000/svg" xmlns:xlink="http://www.w3.org/1999/xlink" viewBox="0 0 663.71 579.97"><defs><style>.cls-1{fill:none;}.cls-2{fill:#f5f5f5;}.cls-3{fill:#ccc;}.cls-4{clip-path:url(#clip-path);}.cls-5{fill:#ffe600;}.cls-10,.cls-11,.cls-12,.cls-13,.cls-5,.cls-7,.cls-8,.cls-9{stroke:#000;stroke-miterlimit:10;stroke-width:0.5px;}.cls-6{opacity:0.75;}.cls-7{fill:#e6e6e6;}.cls-8{fill:#b3b3b3;}.cls-9{fill:#fff;}.cls-11{fill:#0077bf;}.cls-12{fill:#eb058c;}.cls-13{fill:#f2f2f2;}.cls-14{clip-path:url(#clip-path-2);}.cls-15{clip-path:url(#clip-path-3);}.cls-16{clip-path:url(#clip-path-4);}.cls-17{clip-path:url(#clip-path-5);}.cls-18{clip-path:url(#clip-path-6);}</style><clipPath id="clip-path"><rect class="cls-1" x="392.52" y="110.74" width="41.7" height="39.75"/></clipPath><clipPath id="clip-path-2"><rect class="cls-1" x="395.84" y="53.74" width="41.7" height="39.75"/></clipPath><clipPath id="clip-path-3"><rect class="cls-1" x="452.52" y="53.74" width="41.7" height="39.75"/></clipPath><clipPath id="clip-path-4"><rect class="cls-1" x="509.2" y="53.74" width="41.7" height="39.75"/></clipPath><clipPath id="clip-path-5"><rect class="cls-1" x="565.08" y="53.74" width="41.7" height="39.75"/></clipPath><clipPath id="clip-path-6"><rect class="cls-1" x="621.75" y="53.74" width="41.7" height="39.75"/></clipPath></defs><title>adoption</title><g id="Layer_3" data-name="Layer 3"><path class="cls-2" d="M374.82,395.17s14.05,120-119.65,121.64c0,0-157.07,20.09-206.25-169.87,0,0-28.26-83.68,20.52-206.08,0,0,50.9-97.24,140.56-123.87,0,0,154.51-48.32,281.35,18,0,0,167.89,60,73.39,189.61,0,0-36.49,41.3-103.51,35.68C461.23,260.3,358.15,244.79,374.82,395.17Z"/></g><g id="Layer_2" data-name="Layer 2"><ellipse class="cls-3" cx="227.54" cy="565.72" rx="227.54" ry="14.25"/><g class="cls-4"><path class="cls-5" d="M394.48,124.19l11.44-1.08a2,2,0,0,0,1.64-1.21l4.1-9.93a2,2,0,0,1,3.64,0l4.07,9.93a1.93,1.93,0,0,0,1.64,1.21l11.44,1.08a2,2,0,0,1,1.11,3.44l-8.62,7.57a2,2,0,0,0-.62,1.94l2.59,10.62a2,2,0,0,1-2.92,2.16l-9.54-5.61a2,2,0,0,0-2,0l-9.54,5.61a2,2,0,0,1-2.92-2.16l2.56-10.62a2,2,0,0,0-.62-1.94l-8.62-7.57a2,2,0,0,1,1.18-3.44Zm0,0"/></g><g class="cls-6"><path class="cls-7" d="M74.82,562.12a3.15,3.15,0,0,0,3.08-2.52L164,133.66a3.15,3.15,0,1,0-6.17-1.25L71.73,558.34a3.14,3.14,0,0,0,3.09,3.77Z"/><path class="cls-7" d="M138.32,562.12a3.15,3.15,0,0,0,3.08-2.52l86.12-425.93a3.15,3.15,0,0,0-6.17-1.25L135.23,558.34a3.14,3.14,0,0,0,3.09,3.77Z"/><path class="cls-7" d="M81.82,537.42h61.76a3.15,3.15,0,1,0,0-6.3H81.82a3.15,3.15,0,1,0,0,6.3Z"/><path class="cls-7" d="M88.43,503.4h61.76a3.15,3.15,0,0,0,0-6.3H88.43a3.15,3.15,0,0,0,0,6.3Z"/><path class="cls-7" d="M95.05,469.38h61.76a3.15,3.15,0,0,0,0-6.3H95.05a3.15,3.15,0,0,0,0,6.3Z"/><path class="cls-7" d="M101.67,435.36h61.75a3.15,3.15,0,1,0,0-6.3H101.67a3.15,3.15,0,1,0,0,6.3Z"/><path class="cls-7" d="M108.29,401.33H170a3.15,3.15,0,1,0,0-6.3H108.29a3.15,3.15,0,1,0,0,6.3Z"/><path class="cls-7" d="M114.91,367.31h61.75a3.15,3.15,0,0,0,0-6.3H114.91a3.15,3.15,0,0,0,0,6.3Z"/><path class="cls-7" d="M121.52,333.29h61.76a3.15,3.15,0,0,0,0-6.3H121.52a3.15,3.15,0,0,0,0,6.3Z"/><path class="cls-7" d="M128.14,299.27H189.9a3.15,3.15,0,0,0,0-6.3H128.14a3.15,3.15,0,0,0,0,6.3Z"/><path class="cls-7" d="M134.76,265.24h61.76a3.15,3.15,0,0,0,0-6.3H134.76a3.15,3.15,0,0,0,0,6.3Z"/><path class="cls-7" d="M144.53,231.22h58.61a3.15,3.15,0,0,0,0-6.3H144.53a3.15,3.15,0,0,0,0,6.3Z"/><path class="cls-7" d="M151.15,197.2h58.61a3.15,3.15,0,1,0,0-6.3H151.15a3.15,3.15,0,0,0,0,6.3Z"/><path class="cls-7" d="M157.76,163.18h58.61a3.15,3.15,0,0,0,0-6.3H157.76a3.15,3.15,0,0,0,0,6.3Z"/></g><path class="cls-8" d="M255.41,562.12a3.29,3.29,0,0,0,.69-.07,3.15,3.15,0,0,0,2.39-3.76L164,132.36a3.15,3.15,0,0,0-6.15,1.37l94.47,425.93A3.15,3.15,0,0,0,255.41,562.12Z"/><path class="cls-8" d="M318.91,562.12a3.29,3.29,0,0,0,.69-.07,3.15,3.15,0,0,0,2.39-3.76L227.52,132.36a3.15,3.15,0,0,0-6.15,1.37l94.47,425.93A3.15,3.15,0,0,0,318.91,562.12Z"/><path class="cls-8" d="M251.94,537.42H313.7a3.15,3.15,0,1,0,0-6.3H251.94a3.15,3.15,0,0,0,0,6.3Z"/><path class="cls-8" d="M244.13,503.4h61.76a3.15,3.15,0,0,0,0-6.3H244.13a3.15,3.15,0,0,0,0,6.3Z"/><path class="cls-8" d="M236.32,469.38h61.76a3.15,3.15,0,0,0,0-6.3H236.32a3.15,3.15,0,0,0,0,6.3Z"/><path class="cls-8" d="M228.52,435.36h61.75a3.15,3.15,0,1,0,0-6.3H228.52a3.15,3.15,0,1,0,0,6.3Z"/><path class="cls-8" d="M220.71,401.33h61.75a3.15,3.15,0,0,0,0-6.3H220.71a3.15,3.15,0,0,0,0,6.3Z"/><path class="cls-8" d="M212.9,367.31h61.76a3.15,3.15,0,0,0,0-6.3H212.9a3.15,3.15,0,1,0,0,6.3Z"/><path class="cls-8" d="M205.09,333.29h61.76a3.15,3.15,0,0,0,0-6.3H205.09a3.15,3.15,0,0,0,0,6.3Z"/><path class="cls-8" d="M197.29,299.27H259a3.15,3.15,0,0,0,0-6.3H197.29a3.15,3.15,0,0,0,0,6.3Z"/><path class="cls-8" d="M189.48,265.24h61.75a3.15,3.15,0,0,0,0-6.3H189.48a3.15,3.15,0,0,0,0,6.3Z"/><path class="cls-8" d="M184.82,231.22h58.61a3.15,3.15,0,0,0,0-6.3H184.82a3.15,3.15,0,0,0,0,6.3Z"/><path class="cls-8" d="M177,197.2h58.61a3.15,3.15,0,0,0,0-6.3H177a3.15,3.15,0,0,0,0,6.3Z"/><path class="cls-8" d="M169.21,163.18h58.61a3.15,3.15,0,0,0,0-6.3H169.21a3.15,3.15,0,0,0,0,6.3Z"/><path class="cls-9" d="M386.27,163.41l3-11s8.14-4.89,11.85-9c0,0,.65,3.35-2.89,7l10.42-5.55s5.69-1,2.6,2.4-2.93,6.93-3.53,9.82-11.86,7.65-14.88,12.43S386.27,163.41,386.27,163.41Z"/><path class="cls-9" d="M252.37,159.15c-.79-2.61-.27-12.42-5.78-15.66S232.16,141,230.09,124s17.69-21.85,25.13-23.21c6.81-1.25,20.71,19.09,19.76,24-1.46,7.49-7.53,14-7.53,14l4.22,20.63Z"/><path class="cls-10" d="M262.9,116.16s-4.51-.9-4.87,1.19,2.88,3.92,7.17,6.83c0,0,2.12,10.1-2.36,13.62s-13.24,8.92-13.24,8.92-27.13-9.83-26.31-31.9S248,88.27,260.55,90.34c0,0,3.37,3.63,3.46,7.15C264.14,102.82,261.2,109.55,262.9,116.16Z"/><path class="cls-9" d="M199.87,160.36s.05-.16.13-.42c.46-1.54,1.85-6.77-.13-7.31-2.33-.64-10.76-1.69-10.76-1.69l-.37,8.5,5.08,2.51Z"/><path class="cls-11" d="M252.57,239s-31.74,9.49-30.74,74.75c.19,12.36-.09,29.67-.09,29.67l-3.81,18.16H232.6l1.1-16.53s4.41-18,6-46.29c1-18.23,5.7-15.35,12.39-13.88,5.36,1.18,12.81-.42,14.74-.42,10.17,0-13.46,160-13.46,160L257.23,463H275l-5.72-16.53S308,325.95,294.59,245.78C294.59,245.78,261.93,234.5,252.57,239Z"/><path class="cls-12" d="M199.81,157.06,220,185.4s6.69-25.29,17.9-30.46c6.58-3,25.85,1.57,31-9.1.2-.41.71-.66,1.47-.77l-.07-.07a5.2,5.2,0,0,0,.54,0c.23,0,.48,0,.75,0,2.4-.13,8.34-1.05,19.23-6.26,12.34-5.9,59.16,46.61,59.16,46.61l37.49-26.26,5.4,10.39s-34,35.87-46.28,35.19c-8.68-.48-30.34-16.82-42.32-26.39-1.66,19.65-4.71,47.64-9.67,67.49l-42-6.74s1.74-31.91-8.56-44.43c0,0-12.11,12.82-23.17,10.06C208,201.46,193,161.36,193,161.36Z"/><path class="cls-13" d="M274.42,146,268,141.27l-17.31,7.95-3.08,4.39s10.73,7.12,26.86-7.26Z"/><polygon class="cls-13" points="296.09 256.79 296.09 239.28 252.48 233.66 249.44 240.46 296.09 256.79"/><g class="cls-14"><path class="cls-13" d="M397.8,67.19l11.44-1.08a2,2,0,0,0,1.64-1.21L415,55a2,2,0,0,1,3.64,0l4.07,9.93a1.93,1.93,0,0,0,1.64,1.21l11.44,1.08a2,2,0,0,1,1.11,3.44l-8.62,7.57a2,2,0,0,0-.62,1.94l2.59,10.62a2,2,0,0,1-2.92,2.16l-9.54-5.61a2,2,0,0,0-2,0l-9.54,5.61a2,2,0,0,1-2.92-2.16l2.56-10.62a2,2,0,0,0-.62-1.94l-8.62-7.57a2,2,0,0,1,1.18-3.44Zm0,0"/></g><g class="cls-15"><path class="cls-5" d="M454.48,67.19l11.44-1.08a2,2,0,0,0,1.64-1.21l4.1-9.93a2,2,0,0,1,3.64,0l4.07,9.93A1.93,1.93,0,0,0,481,66.11l11.44,1.08a2,2,0,0,1,1.11,3.44l-8.62,7.57a2,2,0,0,0-.62,1.94l2.59,10.62A2,2,0,0,1,484,92.93l-9.54-5.61a2,2,0,0,0-2,0l-9.54,5.61A2,2,0,0,1,460,90.77l2.56-10.62a2,2,0,0,0-.62-1.94l-8.62-7.57a2,2,0,0,1,1.18-3.44Zm0,0"/></g><g class="cls-16"><path class="cls-5" d="M511.16,67.19l11.44-1.08a2,2,0,0,0,1.64-1.21l4.1-9.93A2,2,0,0,1,532,55L536,64.9a1.93,1.93,0,0,0,1.64,1.21l11.44,1.08a2,2,0,0,1,1.11,3.44l-8.62,7.57a2,2,0,0,0-.62,1.94l2.59,10.62a2,2,0,0,1-2.92,2.16l-9.54-5.61a2,2,0,0,0-2,0l-9.54,5.61a2,2,0,0,1-2.92-2.16l2.56-10.62a2,2,0,0,0-.62-1.94L510,70.64a2,2,0,0,1,1.18-3.44Zm0,0"/></g><g class="cls-17"><path class="cls-5" d="M567,67.19l11.44-1.08a2,2,0,0,0,1.64-1.21l4.1-9.93a2,2,0,0,1,3.64,0l4.07,9.93a1.93,1.93,0,0,0,1.64,1.21L605,67.19a2,2,0,0,1,1.11,3.44l-8.62,7.57a2,2,0,0,0-.62,1.94l2.59,10.62a2,2,0,0,1-2.92,2.16L587,87.32a2,2,0,0,0-2,0l-9.54,5.61a2,2,0,0,1-2.92-2.16l2.56-10.62a2,2,0,0,0-.62-1.94l-8.62-7.57A2,2,0,0,1,567,67.19Zm0,0"/></g><g class="cls-18"><path class="cls-5" d="M623.72,67.19l11.44-1.08a2,2,0,0,0,1.64-1.21L640.9,55a2,2,0,0,1,3.64,0l4.07,9.93a1.93,1.93,0,0,0,1.64,1.21l11.44,1.08a2,2,0,0,1,1.11,3.44l-8.62,7.57a2,2,0,0,0-.62,1.94l2.59,10.62a2,2,0,0,1-2.92,2.16l-9.54-5.61a2,2,0,0,0-2,0l-9.54,5.61a2,2,0,0,1-2.92-2.16l2.56-10.62a2,2,0,0,0-.62-1.94l-8.62-7.57a2,2,0,0,1,1.18-3.44Zm0,0"/></g></g></svg>