<svg xmlns="http://www.w3.org/2000/svg" viewBox="0 0 585.79 591.87"><defs><style>.cls-1{fill:#f5f5f5;}.cls-2{fill:#ccc;}.cls-3{fill:#eb058c;}.cls-10,.cls-11,.cls-13,.cls-14,.cls-3,.cls-4,.cls-5,.cls-6,.cls-8,.cls-9{stroke:#000;stroke-miterlimit:10;}.cls-10,.cls-11,.cls-14,.cls-3,.cls-4,.cls-5,.cls-6,.cls-8,.cls-9{stroke-width:0.5px;}.cls-4{fill:#fff;}.cls-5{font-size:88.51px;letter-spacing:0.12em;}.cls-14,.cls-5,.cls-6{font-family:MyriadPro-Regular, Myriad Pro;}.cls-6{font-size:24px;letter-spacing:0.09em;}.cls-7{letter-spacing:0.1em;}.cls-8{fill:#ffe600;}.cls-9{fill:#0077bf;}.cls-10{fill:#f2f2f2;}.cls-11{fill:#b3b3b3;}.cls-12{fill:gray;}.cls-13{fill:none;}.cls-14{font-size:36.46px;letter-spacing:0.1em;}</style></defs><title>marketing</title><g id="Layer_4" data-name="Layer 4"><path class="cls-1" d="M292.24,457.2s-27,117.77-153.5,74.51c0,0-154.72-33.71-137.39-229.17,0,0,1.41-88.31,88.39-187.28,0,0,80.54-74.56,173.94-69.6,0,0,161.76,6.26,259,111.27,0,0,138.06,112.82,5.6,203.24,0,0-48.22,26.68-109.49-1.07C418.85,359.08,326.93,309.93,292.24,457.2Z"/></g><g id="Layer_5" data-name="Layer 5"><ellipse class="cls-2" cx="283.11" cy="584.59" rx="74.02" ry="7.28"/></g><g id="Layer_2" data-name="Layer 2"><path class="cls-3" d="M221.44,330.63v70.22s.51,54.72,57.46,57.46c0,0,49.78,0,57.45-52.93V330.63h-34v70.22s.68,20.44-22.1,23.37c0,0-24.71,1.39-24.71-26.08V330.63Z"/><rect class="cls-4" x="221.44" y="358.06" width="34.05" height="12.99"/><rect class="cls-4" x="302.34" y="358.06" width="34.05" height="12.99"/><text class="cls-5" transform="translate(260.37 548.11)">$</text><text class="cls-6" transform="translate(86.24 20.34)">L<tspan class="cls-7" x="13.39" y="0">eads</tspan></text><text class="cls-6" transform="translate(243.6 20.34)">L<tspan class="cls-7" x="13.39" y="0">eads</tspan></text><text class="cls-6" transform="translate(399.57 20.34)">L<tspan class="cls-7" x="13.39" y="0">eads</tspan></text><text class="cls-6" transform="translate(183.81 66.39)">L<tspan class="cls-7" x="13.39" y="0">eads</tspan></text><text class="cls-6" transform="translate(306.12 66.39)">L<tspan class="cls-7" x="13.39" y="0">eads</tspan></text><polygon class="cls-8" points="232.13 292.27 243.17 288 240.41 300.1 244.46 298.96 241.48 309.19 244 308.48 237.94 322.86 237.85 311.88 234.45 312.75 235.2 303.29 231.16 304.49 232.13 292.27"/><polygon class="cls-9" points="313.47 292.27 324.51 288 321.75 300.1 325.81 298.96 322.82 309.19 325.35 308.48 319.29 322.86 319.19 311.88 315.79 312.75 316.55 303.29 312.5 304.49 313.47 292.27"/><path class="cls-10" d="M96,131.84s-1.57,57.52,135,112c0,0,24.21,7.35,31,25.72,0,0,20.45,6.12,34.92,0,0,0-1-13.47,28-26.33,0,0,123-50.71,137.5-111.4C462.38,131.84,213.75,117.2,96,131.84Z"/><ellipse class="cls-11" cx="279.3" cy="131.82" rx="183.2" ry="24.08"/><path class="cls-12" d="M279.3,155.9c43.77,0,83.95-2,115.46-5.38-6.85-4.29-55.92-7.62-115.46-7.62s-108.61,3.33-115.46,7.62C195.35,153.88,235.53,155.9,279.3,155.9Z"/><line class="cls-13" x1="278.88" y1="34.3" x2="278.88" y2="137.71"/><line class="cls-13" x1="340.75" y1="78.3" x2="319.64" y2="137.71"/><line class="cls-13" x1="225.98" y1="80.3" x2="247.64" y2="137.71"/><line class="cls-13" x1="367.16" y1="137.71" x2="426.64" y2="34.3"/><line class="cls-13" x1="121.64" y1="34.3" x2="200.64" y2="137.71"/><polyline class="cls-13" points="373.24 136.46 366.93 138.19 364.87 132.07"/><polyline class="cls-13" points="325.41 135.61 319.49 138.4 316.39 132.75"/><polyline class="cls-13" points="241.84 135.56 247.76 138.35 250.85 132.7"/><polyline class="cls-13" points="194.48 137.57 200.99 138.23 202.02 131.86"/><polyline class="cls-13" points="283.74 133.83 278.86 138.19 274.28 133.64"/><line class="cls-13" x1="278.88" y1="262.01" x2="278.88" y2="312.01"/><text class="cls-14" transform="translate(198.91 206.34)">Business</text><polyline class="cls-13" points="283.74 307.83 278.86 312.19 274.28 307.64"/></g></svg>