<?xml version="1.0" encoding="utf-8"?>
<!-- Generator: Adobe Illustrator 21.0.2, SVG Export Plug-In . SVG Version: 6.00 Build 0)  -->
<svg version="1.1" id="Layer_1" xmlns="http://www.w3.org/2000/svg" xmlns:xlink="http://www.w3.org/1999/xlink" x="0px" y="0px"
	 viewBox="0 0 585.7 591.9" style="enable-background:new 0 0 585.7 591.9;" xml:space="preserve">
<style type="text/css">
	.st0{fill:#F5F5F5;}
	.st1{fill:#CCCCCC;}
	.st2{fill:#EB058C;stroke:#000000;stroke-width:0.5;stroke-miterlimit:10;}
	.st3{fill:#FFFFFF;stroke:#000000;stroke-width:0.5;stroke-miterlimit:10;}
	.st4{fill:#FFE600;stroke:#000000;stroke-width:0.5;stroke-miterlimit:10;}
	.st5{fill:#0077BF;stroke:#000000;stroke-width:0.5;stroke-miterlimit:10;}
	.st6{fill:#F2F2F2;stroke:#000000;stroke-width:0.5;stroke-miterlimit:10;}
	.st7{fill:#B3B3B3;stroke:#000000;stroke-width:0.5;stroke-miterlimit:10;}
	.st8{fill:#808080;}
	.st9{fill:none;stroke:#000000;stroke-miterlimit:10;}
	.st10{enable-background:new    ;}
</style>
<title>marketing-business</title>
<g id="Layer_1_1_">
	<g id="Layer_4">
		<path class="st0" d="M292.2,457.3c0,0-27,117.8-153.5,74.5c0,0-154.7-33.7-137.4-229.2c0,0,1.4-88.3,88.4-187.3
			c0,0,80.5-74.6,173.9-69.6c0,0,161.8,6.3,259,111.3c0,0,138.1,112.8,5.6,203.2c0,0-48.2,26.7-109.5-1.1
			C418.9,359.1,326.9,310,292.2,457.3z"/>
	</g>
	<g id="Layer_5">
		<ellipse class="st1" cx="283.1" cy="584.7" rx="74" ry="7.3"/>
	</g>
	<g id="Layer_2">
		<path class="st2" d="M221.4,330.7v70.2c0,0,0.5,54.7,57.5,57.5c0,0,49.8,0,57.5-52.9v-74.8h-34v70.2c0,0,0.7,20.4-22.1,23.4
			c0,0-24.7,1.4-24.7-26.1v-67.5H221.4z"/>
		<rect x="221.4" y="358.1" class="st3" width="34.1" height="13"/>
		<rect x="302.3" y="358.1" class="st3" width="34" height="13"/>
		<polygon class="st4" points="232.1,292.3 243.2,288.1 240.4,300.2 244.5,299 241.5,309.2 244,308.5 237.9,322.9 237.9,311.9 
			234.4,312.8 235.2,303.4 231.2,304.5 		"/>
		<polygon class="st5" points="313.5,292.3 324.5,288.1 321.8,300.2 325.8,299 322.8,309.2 325.4,308.5 319.3,322.9 319.2,311.9 
			315.8,312.8 316.5,303.4 312.5,304.5 		"/>
		<path class="st6" d="M96,131.9c0,0-1.6,57.5,135,112c0,0,24.2,7.4,31,25.7c0,0,20.5,6.1,34.9,0c0,0-1-13.5,28-26.3
			c0,0,123-50.7,137.5-111.4C462.4,131.9,213.8,117.3,96,131.9z"/>
		<ellipse class="st7" cx="279.3" cy="131.9" rx="183.2" ry="24.1"/>
		<path class="st8" d="M279.3,156c43.8,0,84-2,115.5-5.4c-6.9-4.3-55.9-7.6-115.5-7.6s-108.6,3.3-115.5,7.6
			C195.4,153.9,235.5,156,279.3,156z"/>
		<line class="st9" x1="278.9" y1="34.4" x2="278.9" y2="137.8"/>
		<line class="st9" x1="340.8" y1="78.4" x2="319.6" y2="137.8"/>
		<line class="st9" x1="226" y1="80.4" x2="247.6" y2="137.8"/>
		<line class="st9" x1="367.2" y1="137.8" x2="426.6" y2="34.4"/>
		<line class="st9" x1="121.6" y1="34.4" x2="200.6" y2="137.8"/>
		<polyline class="st9" points="373.2,136.5 366.9,138.2 364.9,132.1 		"/>
		<polyline class="st9" points="325.4,135.7 319.5,138.5 316.4,132.8 		"/>
		<polyline class="st9" points="241.8,135.6 247.8,138.4 250.9,132.8 		"/>
		<polyline class="st9" points="194.5,137.6 201,138.3 202,131.9 		"/>
		<polyline class="st9" points="283.7,133.9 278.9,138.2 274.3,133.7 		"/>
		<line class="st9" x1="278.9" y1="262.1" x2="278.9" y2="312.1"/>
		<polyline class="st9" points="283.7,307.9 278.9,312.2 274.3,307.7 		"/>
	</g>
</g>
<g id="Layer_2-2">
	<g class="st10">
		<path d="M219.3,184.4c4.2,0,8.2,1.7,8.2,6.4c0,2.5-1.5,4.7-3.8,5.5c3.2,0.7,4.9,3.1,4.9,6.5c0,5.9-4.8,7.2-9.7,7.2h-10.5v-25.6
			H219.3z M211.6,195.4h6.1c2.9,0,6.3-0.2,6.3-4.1s-3-4-6-4h-6.4V195.4z M211.6,207.2h6.8c3.4,0,6.8-0.2,6.8-4.7
			c0-4.5-3.9-4.4-7.3-4.4h-6.2V207.2z"/>
		<path d="M247.9,210.1H245v-2.9c-1.6,2.3-3.7,3.4-6.4,3.4c-3.9,0-6.2-2.2-6.2-6.3v-12.8h3.1v12c0,2.7,0.8,4.5,3.9,4.5
			c4,0,5.4-2.9,5.4-6.7v-9.7h3.1V210.1z"/>
		<path d="M263.2,196.9c-0.2-2.4-1.9-3.4-4.5-3.4c-2.3,0-3.8,1-3.8,2.5c0,2.1,2.4,2.4,4.9,3c3.1,0.7,7.2,1.6,7.2,5.7
			c0,3.6-3.1,6-7.7,6c-5,0-7.8-2.3-8-6.4h3c0.2,2.8,2.1,3.9,5,3.9c2.7,0,4.5-1.2,4.5-3.1c0-2.1-2.1-2.5-4.7-3.1
			c-3.2-0.8-7.5-1.2-7.5-5.5c0-3.3,2.8-5.5,7.1-5.5c4.2,0,7.4,2,7.4,5.9H263.2z"/>
		<path d="M273.7,188.2h-3.1v-3.7h3.1V188.2z M273.7,210.1h-3.1v-18.6h3.1V210.1z"/>
		<path d="M281.3,194.4c1.5-2.3,3.5-3.4,6.3-3.4c4.5,0,6.2,2.5,6.2,6.7v12.3h-3.1v-10.9c0-3-0.1-5.5-4-5.5c-4,0-5.3,3-5.3,6.7v9.7
			h-3.1v-18.6h2.9V194.4z"/>
		<path d="M306.2,210.7c-5.5,0-8.7-3.6-8.7-9.6c0-6,3.5-10.1,8.6-10.1c6.1,0,8.4,4.9,8.4,10.2v0.4h-14l0,0.2c0,4,2.2,6.3,5.8,6.3
			c2.7,0,4.1-1.2,5-4h3C313.4,208.5,310.6,210.7,306.2,210.7z M306.1,193.5c-3,0-5.1,2.2-5.5,5.7h10.8
			C311.1,195.6,309.1,193.5,306.1,193.5z"/>
		<path d="M328.5,196.9c-0.2-2.4-1.9-3.4-4.5-3.4c-2.3,0-3.8,1-3.8,2.5c0,2.1,2.4,2.4,4.9,3c3.1,0.7,7.2,1.6,7.2,5.7
			c0,3.6-3.1,6-7.7,6c-5,0-7.8-2.3-8-6.4h3c0.2,2.8,2.1,3.9,5,3.9c2.7,0,4.5-1.2,4.5-3.1c0-2.1-2.1-2.5-4.7-3.1
			c-3.2-0.8-7.5-1.2-7.5-5.5c0-3.3,2.8-5.5,7.1-5.5c4.2,0,7.4,2,7.4,5.9H328.5z"/>
		<path d="M346.5,196.9c-0.2-2.4-1.9-3.4-4.5-3.4c-2.3,0-3.8,1-3.8,2.5c0,2.1,2.4,2.4,4.9,3c3.1,0.7,7.2,1.6,7.2,5.7
			c0,3.6-3.1,6-7.7,6c-5,0-7.8-2.3-8-6.4h3c0.2,2.8,2.1,3.9,5,3.9c2.7,0,4.5-1.2,4.5-3.1c0-2.1-2.1-2.5-4.7-3.1
			c-3.2-0.8-7.5-1.2-7.5-5.5c0-3.3,2.8-5.5,7.1-5.5c4.2,0,7.4,2,7.4,5.9H346.5z"/>
	</g>
</g>
<g id="Layer_3">
	<g class="st10">
		<path d="M412.8,20.4h-11.3V3.3h2.3v15.1h9.1V20.4z"/>
		<path d="M419.6,20.8c-3.6,0-5.8-2.4-5.8-6.4c0-4,2.3-6.7,5.8-6.7c4.1,0,5.6,3.2,5.6,6.8v0.3h-9.3l0,0.1c0,2.6,1.5,4.2,3.9,4.2
			c1.8,0,2.8-0.8,3.3-2.6h2C424.4,19.3,422.6,20.8,419.6,20.8z M419.5,9.3c-2,0-3.4,1.4-3.6,3.8h7.2C422.9,10.8,421.6,9.3,419.5,9.3
			z"/>
		<path d="M438.3,20.4c-0.4,0.2-0.9,0.2-1.4,0.2c-1.2,0-1.8-0.6-1.8-1.8c-1.2,1.4-2.6,2-4.5,2c-2.4,0-4-1.3-4-3.5
			c0-2.2,1.5-3.5,4.4-3.9c3-0.4,4-0.3,4-2c0-1.3-1-2-2.8-2c-1.9,0-2.9,0.7-3.1,2.5h-2c0.1-2.6,2-4.2,5.2-4.2c1.7,0,3.1,0.4,3.9,1.2
			c0.9,0.8,0.8,2.1,0.8,3.2c0,1.8-0.1,3.7-0.1,5.5c0,0.9,0.2,1.2,0.8,1.2c0.2,0,0.3,0,0.5-0.1V20.4z M432.3,14.7
			c-1.5,0.2-3.5,0.4-3.5,2.4c0,1.3,0.9,2.1,2.5,2.1c1.9,0,3.8-1.3,3.8-2.9V14C434.2,14.5,433.2,14.6,432.3,14.7z"/>
		<path d="M451.4,20.4h-1.9v-1.8c-0.8,1.4-2.2,2.2-4.1,2.2c-3.5,0-5.7-2.5-5.7-6.6c0-3.5,1.8-6.5,5.6-6.5c1.8,0,3.1,0.7,4.1,2V3.3h2
			V20.4z M441.8,14.1c0,3,1.5,4.9,3.8,4.9c2.4,0,3.8-1.8,3.8-4.8c0-2.5-1.1-4.8-3.8-4.8C443.2,9.4,441.8,11.2,441.8,14.1z"/>
		<path d="M461.6,11.6c-0.1-1.6-1.3-2.3-3-2.3c-1.6,0-2.5,0.6-2.5,1.7c0,1.4,1.6,1.6,3.3,2c2.1,0.5,4.8,1.1,4.8,3.8c0,2.4-2,4-5.1,4
			c-3.4,0-5.2-1.5-5.3-4.3h2c0.1,1.9,1.4,2.6,3.4,2.6c1.8,0,3-0.8,3-2.1c0-1.4-1.4-1.7-3.1-2.1c-2.1-0.5-5-0.8-5-3.6
			c0-2.2,1.8-3.6,4.7-3.6c2.8,0,4.9,1.3,4.9,4H461.6z"/>
	</g>
</g>
<g id="Layer_3_copy">
	<g class="st10">
		<path d="M259.8,20.4h-11.3V3.3h2.3v15.1h9.1V20.4z"/>
		<path d="M266.6,20.8c-3.6,0-5.8-2.4-5.8-6.4c0-4,2.3-6.7,5.8-6.7c4.1,0,5.6,3.2,5.6,6.8v0.3h-9.3l0,0.1c0,2.6,1.5,4.2,3.9,4.2
			c1.8,0,2.8-0.8,3.3-2.6h2C271.4,19.3,269.6,20.8,266.6,20.8z M266.5,9.3c-2,0-3.4,1.4-3.6,3.8h7.2C269.9,10.8,268.6,9.3,266.5,9.3
			z"/>
		<path d="M285.3,20.4c-0.4,0.2-0.9,0.2-1.4,0.2c-1.2,0-1.8-0.6-1.8-1.8c-1.2,1.4-2.6,2-4.5,2c-2.4,0-4-1.3-4-3.5
			c0-2.2,1.5-3.5,4.4-3.9c3-0.4,4-0.3,4-2c0-1.3-1-2-2.8-2c-1.9,0-2.9,0.7-3.1,2.5h-2c0.1-2.6,2-4.2,5.2-4.2c1.7,0,3.1,0.4,3.9,1.2
			c0.9,0.8,0.8,2.1,0.8,3.2c0,1.8-0.1,3.7-0.1,5.5c0,0.9,0.2,1.2,0.8,1.2c0.2,0,0.3,0,0.5-0.1V20.4z M279.3,14.7
			c-1.5,0.2-3.5,0.4-3.5,2.4c0,1.3,0.9,2.1,2.5,2.1c1.9,0,3.8-1.3,3.8-2.9V14C281.2,14.5,280.2,14.6,279.3,14.7z"/>
		<path d="M298.4,20.4h-1.9v-1.8c-0.8,1.4-2.2,2.2-4.1,2.2c-3.5,0-5.7-2.5-5.7-6.6c0-3.5,1.8-6.5,5.6-6.5c1.8,0,3.1,0.7,4.1,2V3.3h2
			V20.4z M288.8,14.1c0,3,1.5,4.9,3.8,4.9c2.4,0,3.8-1.8,3.8-4.8c0-2.5-1.1-4.8-3.8-4.8C290.2,9.4,288.8,11.2,288.8,14.1z"/>
		<path d="M308.6,11.6c-0.1-1.6-1.3-2.3-3-2.3c-1.6,0-2.5,0.6-2.5,1.7c0,1.4,1.6,1.6,3.3,2c2.1,0.5,4.8,1.1,4.8,3.8c0,2.4-2,4-5.1,4
			c-3.4,0-5.2-1.5-5.3-4.3h2c0.1,1.9,1.4,2.6,3.4,2.6c1.8,0,3-0.8,3-2.1c0-1.4-1.4-1.7-3.1-2.1c-2.1-0.5-5-0.8-5-3.6
			c0-2.2,1.8-3.6,4.7-3.6c2.8,0,4.9,1.3,4.9,4H308.6z"/>
	</g>
</g>
<g id="Layer_3_copy_2">
	<g class="st10">
		<path d="M99.8,20.4H88.5V3.3h2.3v15.1h9.1V20.4z"/>
		<path d="M106.6,20.8c-3.6,0-5.8-2.4-5.8-6.4c0-4,2.3-6.7,5.8-6.7c4.1,0,5.6,3.2,5.6,6.8v0.3h-9.3l0,0.1c0,2.6,1.5,4.2,3.9,4.2
			c1.8,0,2.8-0.8,3.3-2.6h2C111.4,19.3,109.6,20.8,106.6,20.8z M106.5,9.3c-2,0-3.4,1.4-3.6,3.8h7.2C109.9,10.8,108.6,9.3,106.5,9.3
			z"/>
		<path d="M125.3,20.4c-0.4,0.2-0.9,0.2-1.4,0.2c-1.2,0-1.8-0.6-1.8-1.8c-1.2,1.4-2.6,2-4.5,2c-2.4,0-4-1.3-4-3.5
			c0-2.2,1.5-3.5,4.4-3.9c3-0.4,4-0.3,4-2c0-1.3-1-2-2.8-2c-1.9,0-2.9,0.7-3.1,2.5h-2c0.1-2.6,2-4.2,5.2-4.2c1.7,0,3.1,0.4,3.9,1.2
			c0.9,0.8,0.8,2.1,0.8,3.2c0,1.8-0.1,3.7-0.1,5.5c0,0.9,0.2,1.2,0.8,1.2c0.2,0,0.3,0,0.5-0.1V20.4z M119.3,14.7
			c-1.5,0.2-3.5,0.4-3.5,2.4c0,1.3,0.9,2.1,2.5,2.1c1.9,0,3.8-1.3,3.8-2.9V14C121.2,14.5,120.2,14.6,119.3,14.7z"/>
		<path d="M138.4,20.4h-1.9v-1.8c-0.8,1.4-2.2,2.2-4.1,2.2c-3.5,0-5.7-2.5-5.7-6.6c0-3.5,1.8-6.5,5.6-6.5c1.8,0,3.1,0.7,4.1,2V3.3h2
			V20.4z M128.8,14.1c0,3,1.5,4.9,3.8,4.9c2.4,0,3.8-1.8,3.8-4.8c0-2.5-1.1-4.8-3.8-4.8C130.2,9.4,128.8,11.2,128.8,14.1z"/>
		<path d="M148.6,11.6c-0.1-1.6-1.3-2.3-3-2.3c-1.6,0-2.5,0.6-2.5,1.7c0,1.4,1.6,1.6,3.3,2c2.1,0.5,4.8,1.1,4.8,3.8c0,2.4-2,4-5.1,4
			c-3.4,0-5.2-1.5-5.3-4.3h2c0.1,1.9,1.4,2.6,3.4,2.6c1.8,0,3-0.8,3-2.1c0-1.4-1.4-1.7-3.1-2.1c-2.1-0.5-5-0.8-5-3.6
			c0-2.2,1.8-3.6,4.7-3.6c2.8,0,4.9,1.3,4.9,4H148.6z"/>
	</g>
</g>
<g id="Layer_3_copy_3">
	<g class="st10">
		<path d="M204.8,67.4h-11.3V50.3h2.3v15.1h9.1V67.4z"/>
		<path d="M211.6,67.8c-3.6,0-5.8-2.4-5.8-6.4c0-4,2.3-6.7,5.8-6.7c4.1,0,5.6,3.2,5.6,6.8v0.3h-9.3l0,0.1c0,2.6,1.5,4.2,3.9,4.2
			c1.8,0,2.8-0.8,3.3-2.6h2C216.4,66.3,214.6,67.8,211.6,67.8z M211.5,56.3c-2,0-3.4,1.4-3.6,3.8h7.2
			C214.9,57.8,213.6,56.3,211.5,56.3z"/>
		<path d="M230.3,67.4c-0.4,0.2-0.9,0.2-1.4,0.2c-1.2,0-1.8-0.6-1.8-1.8c-1.2,1.4-2.6,2-4.5,2c-2.4,0-4-1.3-4-3.5
			c0-2.2,1.5-3.5,4.4-3.9c3-0.4,4-0.3,4-2c0-1.3-1-2-2.8-2c-1.9,0-2.9,0.7-3.1,2.5h-2c0.1-2.6,2-4.2,5.2-4.2c1.7,0,3.1,0.4,3.9,1.2
			c0.9,0.8,0.8,2.1,0.8,3.2c0,1.8-0.1,3.7-0.1,5.5c0,0.9,0.2,1.2,0.8,1.2c0.2,0,0.3,0,0.5-0.1V67.4z M224.3,61.7
			c-1.5,0.2-3.5,0.4-3.5,2.4c0,1.3,0.9,2.1,2.5,2.1c1.9,0,3.8-1.3,3.8-2.9V61C226.2,61.5,225.2,61.6,224.3,61.7z"/>
		<path d="M243.4,67.4h-1.9v-1.8c-0.8,1.4-2.2,2.2-4.1,2.2c-3.5,0-5.7-2.5-5.7-6.6c0-3.5,1.8-6.5,5.6-6.5c1.8,0,3.1,0.7,4.1,2v-6.4
			h2V67.4z M233.8,61.1c0,3,1.5,4.9,3.8,4.9c2.4,0,3.8-1.8,3.8-4.8c0-2.5-1.1-4.8-3.8-4.8C235.2,56.4,233.8,58.2,233.8,61.1z"/>
		<path d="M253.6,58.6c-0.1-1.6-1.3-2.3-3-2.3c-1.6,0-2.5,0.6-2.5,1.7c0,1.4,1.6,1.6,3.3,2c2.1,0.5,4.8,1.1,4.8,3.8c0,2.4-2,4-5.1,4
			c-3.4,0-5.2-1.5-5.3-4.3h2c0.1,1.9,1.4,2.6,3.4,2.6c1.8,0,3-0.8,3-2.1c0-1.4-1.4-1.7-3.1-2.1c-2.1-0.5-5-0.8-5-3.6
			c0-2.2,1.8-3.6,4.7-3.6c2.8,0,4.9,1.3,4.9,4H253.6z"/>
	</g>
</g>
<g id="Layer_3_copy_4">
	<g class="st10">
		<path d="M323.8,67.4h-11.3V50.3h2.3v15.1h9.1V67.4z"/>
		<path d="M330.6,67.8c-3.6,0-5.8-2.4-5.8-6.4c0-4,2.3-6.7,5.8-6.7c4.1,0,5.6,3.2,5.6,6.8v0.3h-9.3l0,0.1c0,2.6,1.5,4.2,3.9,4.2
			c1.8,0,2.8-0.8,3.3-2.6h2C335.4,66.3,333.6,67.8,330.6,67.8z M330.5,56.3c-2,0-3.4,1.4-3.6,3.8h7.2
			C333.9,57.8,332.6,56.3,330.5,56.3z"/>
		<path d="M349.3,67.4c-0.4,0.2-0.9,0.2-1.4,0.2c-1.2,0-1.8-0.6-1.8-1.8c-1.2,1.4-2.6,2-4.5,2c-2.4,0-4-1.3-4-3.5
			c0-2.2,1.5-3.5,4.4-3.9c3-0.4,4-0.3,4-2c0-1.3-1-2-2.8-2c-1.9,0-2.9,0.7-3.1,2.5h-2c0.1-2.6,2-4.2,5.2-4.2c1.7,0,3.1,0.4,3.9,1.2
			c0.9,0.8,0.8,2.1,0.8,3.2c0,1.8-0.1,3.7-0.1,5.5c0,0.9,0.2,1.2,0.8,1.2c0.2,0,0.3,0,0.5-0.1V67.4z M343.3,61.7
			c-1.5,0.2-3.5,0.4-3.5,2.4c0,1.3,0.9,2.1,2.5,2.1c1.9,0,3.8-1.3,3.8-2.9V61C345.2,61.5,344.2,61.6,343.3,61.7z"/>
		<path d="M362.4,67.4h-1.9v-1.8c-0.8,1.4-2.2,2.2-4.1,2.2c-3.5,0-5.7-2.5-5.7-6.6c0-3.5,1.8-6.5,5.6-6.5c1.8,0,3.1,0.7,4.1,2v-6.4
			h2V67.4z M352.8,61.1c0,3,1.5,4.9,3.8,4.9c2.4,0,3.8-1.8,3.8-4.8c0-2.5-1.1-4.8-3.8-4.8C354.2,56.4,352.8,58.2,352.8,61.1z"/>
		<path d="M372.6,58.6c-0.1-1.6-1.3-2.3-3-2.3c-1.6,0-2.5,0.6-2.5,1.7c0,1.4,1.6,1.6,3.3,2c2.1,0.5,4.8,1.1,4.8,3.8c0,2.4-2,4-5.1,4
			c-3.4,0-5.2-1.5-5.3-4.3h2c0.1,1.9,1.4,2.6,3.4,2.6c1.8,0,3-0.8,3-2.1c0-1.4-1.4-1.7-3.1-2.1c-2.1-0.5-5-0.8-5-3.6
			c0-2.2,1.8-3.6,4.7-3.6c2.8,0,4.9,1.3,4.9,4H372.6z"/>
	</g>
	<g class="st10">
		<path d="M280.7,486.9c11.2,0.2,17.8,5.5,18,16.9h-7.4v-0.5c0-6.2-3.5-9.7-10.6-10.2v21.8c10.2,2.9,19.4,5.6,19.4,18.3
			c0,10.7-7.1,17.6-19.4,18.4v7.3h-4.1v-7.3c-11.4-0.5-19.4-6.8-19.4-19.3v-0.9h7.5c-0.1,0.5-0.1,0.9-0.1,1.1
			c0,7.9,4.2,12.1,12,12.8v-24.2c-10.6-2-18.1-6.4-18.1-16.9c0-11,8.1-16.4,18.1-17.3v-6.1h4.1V486.9z M276.6,493.2
			c-6.7,0.6-10.8,4.5-10.8,10.4c0,6.7,5.1,9.2,10.8,10.5V493.2z M280.7,545.4c7-0.2,12-5.1,12-12.1c0-7.2-5.8-9.9-12-11.3V545.4z"/>
	</g>
</g>
</svg>
