<svg xmlns="http://www.w3.org/2000/svg" viewBox="0 0 888 904.1"><defs><style>.cls-1,.cls-7{fill:#ccc;}.cls-2{fill:#f5f5f5;}.cls-3,.cls-5{fill:#1a1a1a;}.cls-10,.cls-11,.cls-3,.cls-4,.cls-6,.cls-7,.cls-9{stroke:#000;stroke-miterlimit:10;stroke-width:0.5px;}.cls-4{fill:#fff;}.cls-6{fill:#eb058c;}.cls-10,.cls-8{fill:none;}.cls-9{fill:#0077bf;}.cls-11{fill:#ffe600;}</style></defs><title>new-customer</title><g id="Layer_3" data-name="Layer 3"><ellipse class="cls-1" cx="276.93" cy="889.85" rx="164.96" ry="14.25"/></g><g id="Layer_7" data-name="Layer 7"><path class="cls-2" d="M317.8,224.69S274.31,30.22,493.37,4.76c0,0,254.24-59.7,367.26,243.55,0,0,60.61,132.46,1.43,341.55,0,0-66.94,168.19-209.49,227.14,0,0-245.23,105.57-464.61,18.34,0,0-285.63-69.9-152.67-298.55,0,0,52.83-74,163.74-76.15C199,460.65,370.75,468.54,317.8,224.69Z"/></g><g id="Layer_6" data-name="Layer 6"><g id="Layer_2" data-name="Layer 2"><path class="cls-3" d="M123,547.28s8.29,8.42,22-12c0,0,10.79-15.81,16.19-33,0,0,7.6-20.71,25.36-32.08,0,0,13.06-10.81,34.16-6.66,0,0,19.32,3.26,25.8,21.16,0,0,10.49,21.44-5.51,46.25,0,0-5.5,8.09-6.78,16.11l-42.77,22.46-51.83-3.44-4.44-4.3S126.35,560.67,123,547.28Z"/><path class="cls-4" d="M204.47,544.78a1.81,1.81,0,0,0-.22,1,1.74,1.74,0,0,0,.51.84,60.49,60.49,0,0,0,9.18,8.11c2,1.41,4.4,2.76,6.69,2a8.23,8.23,0,0,0,3.43-2.89l4.17-5.09c-1.92-1.32-2-4.09-1.72-6.41a91.84,91.84,0,0,1,1.41-9.11,36.3,36.3,0,0,0-17-7.15c-2.11-.3-3.21.07-3.3,2.22-.08,1.93,0,3.82-.28,5.74A39.72,39.72,0,0,1,204.47,544.78Z"/><path class="cls-4" d="M216.06,533.46c6.2,2.36,13.52,3.84,19.22.43,4.21-2.51,6.63-7.22,8-11.93a80.5,80.5,0,0,0,2.31-15.53,34.53,34.53,0,0,0-.14-9.94c-1-4.65-3.81-8.67-6.59-12.53-4.58-6.35-9.67-13-17.11-15.49-4.22-1.39-8.76-1.24-13.19-1a32.67,32.67,0,0,0-9.72,1.46,22.76,22.76,0,0,0-7,4.33,32.08,32.08,0,0,0-11,19.84C178.22,513.56,199.45,527.13,216.06,533.46Z"/><path class="cls-5" d="M195.5,526.2s14-29.76,2.32-45c0,0,9.06,3.55,16.13,1.31,0,0,18-4.9,25.78,9.13,0,0,3.53,8.7,7.67,12.06l0-7.23-6.2-14.16-16.86-14.64-15.81-3.83-15.91,6.42-10.32,10.21-4.75,23.67,9.94,16.38Z"/><path class="cls-4" d="M205.9,504a2.58,2.58,0,0,0,2.06-1.19,15.54,15.54,0,0,0,1.14-2.2,9.91,9.91,0,0,1,1-1.53,5.52,5.52,0,0,1,1.27-1.26,5.13,5.13,0,0,1,4.48-.37,14.38,14.38,0,0,1,4,2.39"/><path class="cls-4" d="M226.46,494.79l.8-1.71c.66-1.41,1.43-2.94,2.85-3.56a8.87,8.87,0,0,1,3.79-.28c1.28,0,2.74-.26,3.39-1.35"/><path class="cls-4" d="M215.86,492.82a10.59,10.59,0,0,0-12.3,4.66"/><path class="cls-4" d="M222.8,488.73a9.86,9.86,0,0,1,7.67-5.72"/><path class="cls-4" d="M228.55,511.11a34.92,34.92,0,0,0,2.67-3.14,2.33,2.33,0,0,0,.47-.86c.18-.79-.45-1.52-1-2.08l-3.06-3"/><path class="cls-4" d="M229.63,524.12a12.16,12.16,0,0,1,2.84,0,6.18,6.18,0,0,0,1,.2c1.29.05,2.21-1.34,2.31-2.62a35.14,35.14,0,0,0-.38-3.84c0-1.09.2-2.18.06-3.26a1.4,1.4,0,0,0-.33-.82c-.42-.42-1.12-.27-1.67-.06-3.82,1.46-6.86,4.41-9.75,7.31a.84.84,0,0,0-.25.37c-.2.78,1.67,1.84,2.28,2.11A9.49,9.49,0,0,0,229.63,524.12Z"/><path class="cls-6" d="M236.28,524.19a4.86,4.86,0,0,1-3.4,1.66,11.1,11.1,0,0,1-3.84-.49c-1-.26-1.92-.57-2.87-.89a8.1,8.1,0,0,1-2.09-1,2.92,2.92,0,0,1-1.27-1.85,17.49,17.49,0,0,0,4.71,1.28,10.94,10.94,0,0,0,6.36-.9c.69-.36,1.53-1.28,2.34-.8C237.25,521.85,236.85,523.47,236.28,524.19Z"/><path class="cls-6" d="M235.31,512.1a11.32,11.32,0,0,0-7.36,3,33.65,33.65,0,0,0-5.23,6.17c-.1.13-.19.32-.1.45s.29.11.44.07c2.48-.63,4.35-2.6,6.43-4.1A17,17,0,0,1,235,515C236.71,514.58,237.9,512.15,235.31,512.1Z"/><ellipse class="cls-3" cx="213.54" cy="500.33" rx="1.88" ry="2.39" transform="translate(-277.19 265.58) rotate(-41.32)"/><ellipse class="cls-3" cx="231.4" cy="491.52" rx="1.88" ry="2.39" transform="translate(-266.93 275.18) rotate(-41.32)"/><path class="cls-3" d="M139.62,566.08s23.27,17.07,43.43,12.9l54.24-22.83-3.08-9.08"/></g><path class="cls-4" d="M335.48,700.2l4.74,2.78s29.33,10.33,35,35.67l12.67,93.46h-13.5l-28.5-84.62s-9.25-22-32.25-17.75C313.63,729.73,325.33,701.42,335.48,700.2Z"/><path class="cls-4" d="M252.38,758s8.25,46.5-1.25,61c0,0-6.25,8-23.75,7.25l-82-5.91,2-13.09L211.63,800s11-.5,12-14c0,0-1.75-31-4.5-32.25Z"/><path class="cls-5" d="M378.88,859.23l4.75-1.5-3.5-16,19.25,11.5,33.94-7.5s-.94-5-8.44-5.5c0,0-23.75,2.75-35.75-12.75,0,0-12.75,3-18,0,0,0-.75,8.25,3.5,13.25C374.63,840.73,377.13,842.73,378.88,859.23Z"/><path class="cls-5" d="M123.45,811h17.18l-15.25,16.5,2.25,35s6.5-.25,7.25-8.25c0,0,.25-21.25,19-32l3-18s-8.5-2-13.5,0a63.84,63.84,0,0,1-19.93,2.5Z"/><path class="cls-4" d="M319.72,604.15l5.67-.83s6.33-4.5,11.17-4,6.83,10,6.83,10,.11,6.43,8.8,8.22c0,0,.53,2.78-4.47,2.28,0,0-3-.83-6.83-2a21.25,21.25,0,0,1-3.33-1.5s-10.57-4.65-14.33-1.67C323.22,614.65,316.27,613.76,319.72,604.15Z"/><path class="cls-7" d="M254.88,548.24l42,25.63,26.67-5.56v13.18l-25,7a9.71,9.71,0,0,1-9.3,0L253.88,571s10,22.52-1.67,32.52c0,0-1,33.94,7,41l101.67,47s-59.84,85.26-173,80.33l15-110s-2.46-30.15-23.67-67.67c0,0,53.79-40.73,53.1-47.35C232.32,546.79,251.7,545.68,254.88,548.24Z"/><path class="cls-1" d="M197.88,551.8s-34.5,10.9-31,30.92c0,0,1,11.7,31,31.1,0,0,33,22.74,43.75,21.95l86-20s-4.1-8.39-3.5-14l-78.25,13.5a105.82,105.82,0,0,1-42-23.25S193.38,564.87,197.88,551.8Z"/><path class="cls-7" d="M197.88,551.8s-34.5,10.9-31,30.92c0,0,1,11.7,31,31.1,0,0,33,22.74,43.75,21.95l86-20s-4.1-8.39-3.5-14l-78.25,13.5a105.82,105.82,0,0,1-42-23.25"/><path class="cls-4" d="M197.88,551.8a11.1,11.1,0,0,0,3.25-8.4s17.87,8,27.1.92a13.08,13.08,0,0,0,8.65,3.47l-7.5,9.14-10.75,2.81S201,560.37,197.88,551.8Z"/><polyline class="cls-6" points="232.32 546.79 236.22 596.82 244.88 573.87 239.63 568.3 245.38 563.62 247.13 546.7"/><path class="cls-6" d="M176.29,563.19l23.27,15,12,.92v8.33l24.67,9.33-38.33-45S183.46,555.19,176.29,563.19Z"/><path class="cls-4" d="M197.88,551.8l38.33,45-4-49S225.88,560.14,197.88,551.8Z"/><circle class="cls-4" cx="747.97" cy="180.48" r="47.67"/><path class="cls-6" d="M442.88,356.82l40,52.33L370.55,493.82s-23.67,19.17-3.42,51.67c0,0,19.75,28.25,51.75,6l109.5-81.75,38.75,51.5L457.13,605s-47.75,40.25-99.25,15.75c0,0-35.5-17.5-55-53.25,0,0-27-42.5-5-88,0,0,13.5-27.25,47.75-48.5l63.81-48.67Z"/><polygon class="cls-4" points="389.45 397.32 429.3 449.46 462.88 424.15 422.88 371.82 389.45 397.32"/><polygon class="cls-4" points="474.63 509.93 513.49 561.85 547.13 536.23 508.38 484.73 474.63 509.93"/><polygon class="cls-5" points="452.55 297.82 469.22 275.82 464.22 294.15 475.22 297.82 455.22 333.15 462.88 304.48 452.55 297.82"/><polygon class="cls-5" points="598.55 519.15 637.88 511.48 637.88 523.29 654.55 523.29 630.55 530.82 628.22 519.15 598.55 519.15"/><path class="cls-8" d="M719.63,203.83c1.88-4.1,4-7.92,5-10.56a94,94,0,0,0,4.34-16.71c.65-4,.34-7.8.42-11.65a36.11,36.11,0,0,1,.3-4.21c1.57-11.44,11.54-21.37,23.59-19.48,12.86,2,19.31,11.5,20.59,24.26.44,4.37-.33,8,.93,12.25,1.35,4.53,2.87,9,4.11,13.58,1.32,4.88,2.64,9.78,3.69,14.72a10.6,10.6,0,0,1,2.92,3.8,47.66,47.66,0,1,0-72.84,2.69C714.44,209,716.79,205.64,719.63,203.83Z"/><path class="cls-3" d="M724.14,202.12h0c2.35-.47,4.61-.5,7.25-1.55.35-.14,2-1.16,3.61-2.18l2.64-2.13.87-2.49.1.18a24.2,24.2,0,0,0,1.22-11.3,1.47,1.47,0,0,1,0-.54,11.71,11.71,0,0,1-1.92-4.61c-.09-.53-.38-1.15-.91-1.18-1.74-.1-2.55-3.13-2.9-5,2.75-2.23,6.48-3.44,9.53-5.14,2.64-1.47,7.82-5.15,8-5.08v0a35.43,35.43,0,0,0,4.88-2.47c1.23-.85,6-3.11,5.86-4.79.21,2,1.21,3.62,1.73,5.48.58,2.09,1.43,4.07,1.85,6.21a25.2,25.2,0,0,1-.51,12.48,20,20,0,0,1-5.41,7.87,26,26,0,0,0,.19,7.64c0,.07,0,.14,0,.21v0l.87,2.49,3.13,2.52a2,2,0,0,1,.67.79,90.44,90.44,0,0,0,9.61,2.79c3.39,1,6.06,2,8.09,3.67-1-4.95-2.37-9.84-3.69-14.72-1.24-4.57-2.76-9-4.11-13.58-1.27-4.24-.5-7.88-.93-12.25-1.28-12.76-7.73-22.24-20.59-24.26-12.06-1.89-22,8-23.59,19.48a36.11,36.11,0,0,0-.3,4.21c-.08,3.84.23,7.66-.42,11.65a94,94,0,0,1-4.34,16.71c-1,2.64-3.1,6.46-5,10.56a9.9,9.9,0,0,1,.93-.53A14.08,14.08,0,0,1,724.14,202.12Z"/><path class="cls-4" d="M749.37,203.77c1.74,0,6.42-3.08,8.88-6.4l2-3.58c0-.07,0-.14,0-.21a26,26,0,0,1-.19-7.64q-.56.54-1.15,1.07l-.6.54c-2.24,2-4.45,2.92-6.64,2.86s-4.41-.87-6.64-2.86l-.6-.54a27.41,27.41,0,0,1-4.52-4.9,1.47,1.47,0,0,0,0,.54,24.2,24.2,0,0,1-1.22,11.3l1.89,3.42C742.73,200.54,747.63,203.73,749.37,203.77Z"/><path class="cls-4" d="M744.36,187l.6.54c2.24,2,4.45,2.92,6.64,2.86s4.41-.87,6.64-2.86l.6-.54q.58-.53,1.15-1.07a20,20,0,0,0,5.41-7.87,25.2,25.2,0,0,0,.51-12.48c-.42-2.15-1.26-4.13-1.85-6.21-.52-1.86-1.52-3.52-1.73-5.48.18,1.68-4.63,3.94-5.86,4.79a35.43,35.43,0,0,1-4.88,2.47v0c-.14-.07-5.33,3.61-8,5.08-3,1.7-6.77,2.91-9.53,5.14.34,1.84,1.16,4.86,2.9,5,.53,0,.82.66.91,1.18a11.71,11.71,0,0,0,1.92,4.61A27.41,27.41,0,0,0,744.36,187Z"/><path class="cls-7" d="M753.7,210.1l-1.31-1.64-1,2a2,2,0,0,0-.19,1.4l1.89,8.56,1.17-3.87,1.25-3.72-.72-1.26A9.34,9.34,0,0,0,753.7,210.1Z"/><path class="cls-7" d="M744,211.54l-.73,1.26,1.25,3.72,1.17,3.87,1.89-8.56a2,2,0,0,0-.19-1.4l-1-2L745,210.1A9.25,9.25,0,0,0,744,211.54Z"/><path class="cls-9" d="M782.59,206c-2-1.66-4.7-2.64-8.09-3.67a90.44,90.44,0,0,1-9.61-2.79c1.35,2.41,2.39,9.19,2.89,10.75l-5.67-.61,4.17,7.45c.15.27-2.66,4.38-6,9.38a47.69,47.69,0,0,0,25.27-16.71A10.6,10.6,0,0,0,782.59,206Z"/><path class="cls-9" d="M732.46,217.16l4.17-7.45-5.67.61c.58-1.8,1.89-10.65,3.55-11.54l.48-.39c-1.56,1-3.26,2-3.61,2.18-2.64,1-4.9,1.08-7.25,1.55h0a86.46,86.46,0,0,1,1.08,16.51c0,1.27,0,2.53.11,3.8a47.34,47.34,0,0,0,13.54,4.84C735.32,221.93,732.3,217.45,732.46,217.16Z"/><path class="cls-6" d="M753,220.39l-1.89-8.56a2,2,0,0,1,.19-1.4l1-2-3-3.76-3,3.76,1,2a2,2,0,0,1,.19,1.4l-1.89,8.56,2.35,7.76c.89,0,1.77,0,2.65-.08Z"/><path class="cls-4" d="M760.22,193.79l-2,3.58c-2.46,3.32-7.14,6.36-8.88,6.4s-6.64-3.24-8.88-6.4l-1.89-3.42-.1-.18-.87,2.49.07-.06,5.57,16.6.73-1.26a9.25,9.25,0,0,1,1-1.44l1.31-1.64,3-3.76,3,3.76,1.31,1.64a9.34,9.34,0,0,1,1,1.44l.72,1.26L761,196.2l.07.06-.87-2.49Z"/><path class="cls-4" d="M766.27,217.16l-4.17-7.45,5.67.61c-.5-1.56-1.54-8.34-2.89-10.75a2,2,0,0,0-.67-.79l-3.13-2.52-.07-.06-5.57,16.6-1.25,3.72L753,220.39l-2.33,7.68a47.57,47.57,0,0,0,9.54-1.52C763.62,221.54,766.42,217.43,766.27,217.16Z"/><path class="cls-4" d="M745.7,220.39l-1.17-3.87-1.25-3.72-5.57-16.6-.07.06L735,198.39l-.48.39c-1.67.89-3,9.74-3.55,11.54l5.67-.61-4.17,7.45c-.16.28,2.86,4.77,6.4,10.11a47.88,47.88,0,0,0,9.1.88h.09Z"/><path class="cls-9" d="M724.14,202.12h0a14.08,14.08,0,0,0-3.58,1.18,9.9,9.9,0,0,0-.93.53c-2.84,1.81-5.19,5.19-7,8.69a47.86,47.86,0,0,0,12.65,9.91c-.08-1.26-.14-2.53-.11-3.8A86.46,86.46,0,0,0,724.14,202.12Z"/><path class="cls-10" d="M757.42,168.31a6.32,6.32,0,0,1,5.18,0"/><path class="cls-10" d="M743.42,168.31a6.32,6.32,0,0,1,5.18,0"/><circle class="cls-3" cx="759.74" cy="171.46" r="1.36"/><circle class="cls-3" cx="746.74" cy="171.46" r="1.36"/><path class="cls-10" d="M748,181.67s4.37,4.21,8.89.41"/><path class="cls-10" d="M754.23,170.23a9.91,9.91,0,0,0-.12,3.88c.16,1,.48,1.93.69,2.9a2.42,2.42,0,0,1,0,1.47.94.94,0,0,1-1.21.54"/><circle class="cls-4" cx="496.97" cy="150.48" r="47.67"/><path class="cls-8" d="M468.63,173.83c1.88-4.1,4-7.92,5-10.56a94,94,0,0,0,4.34-16.71c.65-4,.34-7.8.42-11.65a36.11,36.11,0,0,1,.3-4.21c1.57-11.44,11.54-21.37,23.59-19.48,12.86,2,19.31,11.5,20.59,24.26.44,4.37-.33,8,.93,12.25,1.35,4.53,2.87,9,4.11,13.58,1.32,4.88,2.64,9.78,3.69,14.72a10.6,10.6,0,0,1,2.92,3.8,47.66,47.66,0,1,0-72.84,2.69C463.44,179,465.79,175.64,468.63,173.83Z"/><path class="cls-3" d="M473.14,172.12h0c2.35-.47,4.61-.5,7.25-1.55.35-.14,2-1.16,3.61-2.18l2.64-2.13.87-2.49.1.18a24.2,24.2,0,0,0,1.22-11.3,1.47,1.47,0,0,1,0-.54,11.71,11.71,0,0,1-1.92-4.61c-.09-.53-.38-1.15-.91-1.18-1.74-.1-2.55-3.13-2.9-5,2.75-2.23,6.48-3.44,9.53-5.14,2.64-1.47,7.82-5.15,8-5.08v0a35.43,35.43,0,0,0,4.88-2.47c1.23-.85,6-3.11,5.86-4.79.21,2,1.21,3.62,1.73,5.48.58,2.09,1.43,4.07,1.85,6.21a25.2,25.2,0,0,1-.51,12.48,20,20,0,0,1-5.41,7.87,26,26,0,0,0,.19,7.64c0,.07,0,.14,0,.21v0l.87,2.49,3.13,2.52a2,2,0,0,1,.67.79,90.44,90.44,0,0,0,9.61,2.79c3.39,1,6.06,2,8.09,3.67-1-4.95-2.37-9.84-3.69-14.72-1.24-4.57-2.76-9-4.11-13.58-1.27-4.24-.5-7.88-.93-12.25-1.28-12.76-7.73-22.24-20.59-24.26-12.06-1.89-22,8-23.59,19.48a36.11,36.11,0,0,0-.3,4.21c-.08,3.84.23,7.66-.42,11.65a94,94,0,0,1-4.34,16.71c-1,2.64-3.1,6.46-5,10.56a9.9,9.9,0,0,1,.93-.53A14.08,14.08,0,0,1,473.14,172.12Z"/><path class="cls-4" d="M498.37,173.77c1.74,0,6.42-3.08,8.88-6.4l2-3.58c0-.07,0-.14,0-.21a26,26,0,0,1-.19-7.64q-.56.54-1.15,1.07l-.6.54c-2.24,2-4.45,2.92-6.64,2.86s-4.41-.87-6.64-2.86l-.6-.54a27.41,27.41,0,0,1-4.52-4.9,1.47,1.47,0,0,0,0,.54,24.2,24.2,0,0,1-1.22,11.3l1.89,3.42C491.73,170.54,496.63,173.73,498.37,173.77Z"/><path class="cls-4" d="M493.36,157l.6.54c2.24,2,4.45,2.92,6.64,2.86s4.41-.87,6.64-2.86l.6-.54q.58-.53,1.15-1.07a20,20,0,0,0,5.41-7.87,25.2,25.2,0,0,0,.51-12.48c-.42-2.15-1.26-4.13-1.85-6.21-.52-1.86-1.52-3.52-1.73-5.48.18,1.68-4.63,3.94-5.86,4.79a35.43,35.43,0,0,1-4.88,2.47v0c-.14-.07-5.33,3.61-8,5.08-3,1.7-6.77,2.91-9.53,5.14.34,1.84,1.16,4.86,2.9,5,.53,0,.82.66.91,1.18a11.71,11.71,0,0,0,1.92,4.61A27.41,27.41,0,0,0,493.36,157Z"/><path class="cls-7" d="M502.7,180.1l-1.31-1.64-1,2a2,2,0,0,0-.19,1.4l1.89,8.56,1.17-3.87,1.25-3.72-.72-1.26A9.34,9.34,0,0,0,502.7,180.1Z"/><path class="cls-7" d="M493,181.54l-.73,1.26,1.25,3.72,1.17,3.87,1.89-8.56a2,2,0,0,0-.19-1.4l-1-2L494,180.1A9.25,9.25,0,0,0,493,181.54Z"/><path class="cls-11" d="M531.59,176c-2-1.66-4.7-2.64-8.09-3.67a90.44,90.44,0,0,1-9.61-2.79c1.35,2.41,2.39,9.19,2.89,10.75l-5.67-.61,4.17,7.45c.15.27-2.66,4.38-6,9.38a47.69,47.69,0,0,0,25.27-16.71A10.6,10.6,0,0,0,531.59,176Z"/><path class="cls-11" d="M481.46,187.16l4.17-7.45-5.67.61c.58-1.8,1.89-10.65,3.55-11.54l.48-.39c-1.56,1-3.26,2-3.61,2.18-2.64,1-4.9,1.08-7.25,1.55h0a86.46,86.46,0,0,1,1.08,16.51c0,1.27,0,2.53.11,3.8a47.34,47.34,0,0,0,13.54,4.84C484.32,191.93,481.3,187.45,481.46,187.16Z"/><path class="cls-6" d="M502,190.39l-1.89-8.56a2,2,0,0,1,.19-1.4l1-2-3-3.76-3,3.76,1,2a2,2,0,0,1,.19,1.4l-1.89,8.56,2.35,7.76c.89,0,1.77,0,2.65-.08Z"/><path class="cls-4" d="M509.22,163.79l-2,3.58c-2.46,3.32-7.14,6.36-8.88,6.4s-6.64-3.24-8.88-6.4l-1.89-3.42-.1-.18-.87,2.49.07-.06,5.57,16.6.73-1.26a9.25,9.25,0,0,1,1-1.44l1.31-1.64,3-3.76,3,3.76,1.31,1.64a9.34,9.34,0,0,1,1,1.44l.72,1.26L510,166.2l.07.06-.87-2.49Z"/><path class="cls-4" d="M515.27,187.16l-4.17-7.45,5.67.61c-.5-1.56-1.54-8.34-2.89-10.75a2,2,0,0,0-.67-.79l-3.13-2.52-.07-.06-5.57,16.6-1.25,3.72L502,190.39l-2.33,7.68a47.57,47.57,0,0,0,9.54-1.52C512.62,191.54,515.42,187.43,515.27,187.16Z"/><path class="cls-4" d="M494.7,190.39l-1.17-3.87-1.25-3.72-5.57-16.6-.07.06L484,168.39l-.48.39c-1.67.89-3,9.74-3.55,11.54l5.67-.61-4.17,7.45c-.16.28,2.86,4.77,6.4,10.11a47.88,47.88,0,0,0,9.1.88h.09Z"/><path class="cls-11" d="M473.14,172.12h0a14.08,14.08,0,0,0-3.58,1.18,9.9,9.9,0,0,0-.93.53c-2.84,1.81-5.19,5.19-7,8.69a47.86,47.86,0,0,0,12.65,9.91c-.08-1.26-.14-2.53-.11-3.8A86.46,86.46,0,0,0,473.14,172.12Z"/><path class="cls-10" d="M506.42,138.31a6.32,6.32,0,0,1,5.18,0"/><path class="cls-10" d="M492.42,138.31a6.32,6.32,0,0,1,5.18,0"/><circle class="cls-3" cx="508.74" cy="141.46" r="1.36"/><circle class="cls-3" cx="495.74" cy="141.46" r="1.36"/><path class="cls-10" d="M497,151.67s4.37,4.21,8.89.41"/><path class="cls-10" d="M503.23,140.23a9.91,9.91,0,0,0-.12,3.88c.16,1,.48,1.93.69,2.9a2.42,2.42,0,0,1,0,1.47.94.94,0,0,1-1.21.54"/><circle class="cls-4" cx="697.97" cy="631.48" r="47.67"/><path class="cls-8" d="M669.63,654.83c1.88-4.1,4-7.92,5-10.56a94,94,0,0,0,4.34-16.71c.65-4,.34-7.8.42-11.65a36.11,36.11,0,0,1,.3-4.21c1.57-11.44,11.54-21.37,23.59-19.48,12.86,2,19.31,11.5,20.59,24.26.44,4.37-.33,8,.93,12.25,1.35,4.53,2.87,9,4.11,13.58,1.32,4.88,2.64,9.78,3.69,14.72a10.6,10.6,0,0,1,2.92,3.8,47.66,47.66,0,1,0-72.84,2.69C664.44,660,666.79,656.64,669.63,654.83Z"/><path class="cls-3" d="M674.14,653.12h0c2.35-.47,4.61-.5,7.25-1.55.35-.14,2-1.16,3.61-2.18l2.64-2.13.87-2.49.1.18a24.2,24.2,0,0,0,1.22-11.3,1.47,1.47,0,0,1,0-.54,11.71,11.71,0,0,1-1.92-4.61c-.09-.53-.38-1.15-.91-1.18-1.74-.1-2.55-3.13-2.9-5,2.75-2.23,6.48-3.44,9.53-5.14,2.64-1.47,7.82-5.15,8-5.08v0a35.43,35.43,0,0,0,4.88-2.47c1.23-.85,6-3.11,5.86-4.79.21,2,1.21,3.62,1.73,5.48.58,2.09,1.43,4.07,1.85,6.21a25.2,25.2,0,0,1-.51,12.48,20,20,0,0,1-5.41,7.87,26,26,0,0,0,.19,7.64c0,.07,0,.14,0,.21v0l.87,2.49,3.13,2.52a2,2,0,0,1,.67.79,90.44,90.44,0,0,0,9.61,2.79c3.39,1,6.06,2,8.09,3.67-1-4.95-2.37-9.84-3.69-14.72-1.24-4.57-2.76-9-4.11-13.58-1.27-4.24-.5-7.88-.93-12.25-1.28-12.76-7.73-22.24-20.59-24.26-12.06-1.89-22,8-23.59,19.48a36.11,36.11,0,0,0-.3,4.21c-.08,3.84.23,7.66-.42,11.65a94,94,0,0,1-4.34,16.71c-1,2.64-3.1,6.46-5,10.56a9.9,9.9,0,0,1,.93-.53A14.08,14.08,0,0,1,674.14,653.12Z"/><path class="cls-4" d="M699.37,654.77c1.74,0,6.42-3.08,8.88-6.4l2-3.58c0-.07,0-.14,0-.21a26,26,0,0,1-.19-7.64q-.56.54-1.15,1.07l-.6.54c-2.24,2-4.45,2.92-6.64,2.86s-4.41-.87-6.64-2.86l-.6-.54a27.41,27.41,0,0,1-4.52-4.9,1.47,1.47,0,0,0,0,.54,24.2,24.2,0,0,1-1.22,11.3l1.89,3.42C692.73,651.54,697.63,654.73,699.37,654.77Z"/><path class="cls-4" d="M694.36,638l.6.54c2.24,2,4.45,2.92,6.64,2.86s4.41-.87,6.64-2.86l.6-.54q.58-.53,1.15-1.07a20,20,0,0,0,5.41-7.87,25.2,25.2,0,0,0,.51-12.48c-.42-2.15-1.26-4.13-1.85-6.21-.52-1.86-1.52-3.52-1.73-5.48.18,1.68-4.63,3.94-5.86,4.79a35.43,35.43,0,0,1-4.88,2.47v0c-.14-.07-5.33,3.61-8,5.08-3,1.7-6.77,2.91-9.53,5.14.34,1.84,1.16,4.86,2.9,5,.53,0,.82.66.91,1.18a11.71,11.71,0,0,0,1.92,4.61A27.41,27.41,0,0,0,694.36,638Z"/><path class="cls-7" d="M703.7,661.1l-1.31-1.64-1,2a2,2,0,0,0-.19,1.4l1.89,8.56,1.17-3.87,1.25-3.72-.72-1.26A9.34,9.34,0,0,0,703.7,661.1Z"/><path class="cls-7" d="M694,662.54l-.73,1.26,1.25,3.72,1.17,3.87,1.89-8.56a2,2,0,0,0-.19-1.4l-1-2L695,661.1A9.25,9.25,0,0,0,694,662.54Z"/><path class="cls-11" d="M732.59,657c-2-1.66-4.7-2.64-8.09-3.67a90.44,90.44,0,0,1-9.61-2.79c1.35,2.41,2.39,9.19,2.89,10.75l-5.67-.61,4.17,7.45c.15.27-2.66,4.38-6,9.38a47.69,47.69,0,0,0,25.27-16.71A10.6,10.6,0,0,0,732.59,657Z"/><path class="cls-11" d="M682.46,668.16l4.17-7.45-5.67.61c.58-1.8,1.89-10.65,3.55-11.54l.48-.39c-1.56,1-3.26,2-3.61,2.18-2.64,1-4.9,1.08-7.25,1.55h0a86.46,86.46,0,0,1,1.08,16.51c0,1.27,0,2.53.11,3.8a47.34,47.34,0,0,0,13.54,4.84C685.32,672.93,682.3,668.45,682.46,668.16Z"/><path class="cls-6" d="M703,671.39l-1.89-8.56a2,2,0,0,1,.19-1.4l1-2-3-3.76-3,3.76,1,2a2,2,0,0,1,.19,1.4l-1.89,8.56,2.35,7.76c.89,0,1.77,0,2.65-.08Z"/><path class="cls-4" d="M710.22,644.79l-2,3.58c-2.46,3.32-7.14,6.36-8.88,6.4s-6.64-3.24-8.88-6.4l-1.89-3.42-.1-.18-.87,2.49.07-.06,5.57,16.6.73-1.26a9.25,9.25,0,0,1,1-1.44l1.31-1.64,3-3.76,3,3.76,1.31,1.64a9.34,9.34,0,0,1,1,1.44l.72,1.26L711,647.2l.07.06-.87-2.49Z"/><path class="cls-4" d="M716.27,668.16l-4.17-7.45,5.67.61c-.5-1.56-1.54-8.34-2.89-10.75a2,2,0,0,0-.67-.79l-3.13-2.52-.07-.06-5.57,16.6-1.25,3.72L703,671.39l-2.33,7.68a47.57,47.57,0,0,0,9.54-1.52C713.62,672.54,716.42,668.43,716.27,668.16Z"/><path class="cls-4" d="M695.7,671.39l-1.17-3.87-1.25-3.72-5.57-16.6-.07.06L685,649.39l-.48.39c-1.67.89-3,9.74-3.55,11.54l5.67-.61-4.17,7.45c-.16.28,2.86,4.77,6.4,10.11a47.88,47.88,0,0,0,9.1.88h.09Z"/><path class="cls-11" d="M674.14,653.12h0a14.08,14.08,0,0,0-3.58,1.18,9.9,9.9,0,0,0-.93.53c-2.84,1.81-5.19,5.19-7,8.69a47.86,47.86,0,0,0,12.65,9.91c-.08-1.26-.14-2.53-.11-3.8A86.46,86.46,0,0,0,674.14,653.12Z"/><path class="cls-10" d="M707.42,619.31a6.32,6.32,0,0,1,5.18,0"/><path class="cls-10" d="M693.42,619.31a6.32,6.32,0,0,1,5.18,0"/><circle class="cls-3" cx="709.74" cy="622.46" r="1.36"/><circle class="cls-3" cx="696.74" cy="622.46" r="1.36"/><path class="cls-10" d="M698,632.67s4.37,4.21,8.89.41"/><path class="cls-10" d="M704.23,621.23a9.91,9.91,0,0,0-.12,3.88c.16,1,.48,1.93.69,2.9a2.42,2.42,0,0,1,0,1.47.94.94,0,0,1-1.21.54"/><path class="cls-4" d="M605.65,378c5.23-.85,10.57-3.06,15.74-4.54,2-2.21,4.36-4.61,5.49-5.58l1.82-3.29.12.12.16-3.16v-.22a6.48,6.48,0,0,1-1.21-1.26,7.39,7.39,0,0,1-1.11-2.48c-.33-1.34,0-3.39-1.06-4.5s-1.86-1.42-2.48-2.77a14.71,14.71,0,0,1-1.06-7.58c.07-.7.54-1.86,1.48-1.13a.78.78,0,0,1,.26.5,8.93,8.93,0,0,0-.29-2.44,26.32,26.32,0,0,1-.38-4.9c-.26-4.58-.66-9.36,3.86-12.83,4.28-3.29,11.58-6.2,17.16-4.66,1,.29,2.55.42,3.37,1.18-.2-.18,1.44-.24,1.57-.25,2.42-.16,6.81,2.32,9.65,6.33,2.66,3.74,2.19,7.84,1.47,12.11a34.11,34.11,0,0,1-.86,5.28c-.14.53-.56,1.68-1,2.78h0c.43-.23.25-1,.71-1.28,1-.63,1.36.57,1.36,1.28a14.73,14.73,0,0,1-1.82,7.43c-.76,1.28-1.74,1.61-2.75,2.51s-1,3.08-1.51,4.37a7.4,7.4,0,0,1-1.36,2.36,7,7,0,0,1-1.6,1.31l-.19,3.78.31-.3,1.28,3.53.15-.8a17.85,17.85,0,0,1,5.26,4.44c4.79,1.19,11.38,2.49,14.15,2.88,3.77.53,4.77,2,7.15,5a11.24,11.24,0,0,1,.74,1,47.67,47.67,0,1,0-80.74-.1A9,9,0,0,1,605.65,378Z"/><path class="cls-4" d="M641.14,376.33l10.12-9.93.19-3.78a21.22,21.22,0,0,0-3.17,2.07,15,15,0,0,1-4.36,3.21,7.58,7.58,0,0,1-3.35.3l-.53,0a8.57,8.57,0,0,1-3.84-.65,15,15,0,0,1-4-3.63,27,27,0,0,0-3.2-2.59v.22l-.16,3.16,11.73,11.61A.42.42,0,0,0,641.14,376.33Z"/><path class="cls-4" d="M632.2,363.88a15,15,0,0,0,4,3.63,8.57,8.57,0,0,0,3.84.65l.53,0a7.58,7.58,0,0,0,3.35-.3,15,15,0,0,0,4.36-3.21,21.22,21.22,0,0,1,3.17-2.07,7,7,0,0,0,1.6-1.31,7.4,7.4,0,0,0,1.36-2.36c.46-1.3.39-3.37,1.51-4.37s2-1.23,2.75-2.51a14.73,14.73,0,0,0,1.82-7.43c0-.7-.35-1.91-1.36-1.28-.46.28-.28,1-.71,1.28h0l-.41,1.06-1.4-.07a23.07,23.07,0,0,1,.39-3.14,25.41,25.41,0,0,0,0-6.71c-.53-2.84-4.64-4.37-6.9-5.81-.37-.24-.92-.83-1.35-1-.68-.2-.29-.13-1,.22-2.52,1.3-4,2.62-7.1,2.46-2.51-.13-5-.74-7.52-.68-3.43.08-6.62,2.28-7.15,5.62-.2,1.27-.1,2.6-.24,3.88a22.34,22.34,0,0,0-.17,2.68,8.33,8.33,0,0,1,0,.89l-1.79-.09c0-.29,0-.56.05-.73,0-.43.06-.81.06-1.19a.78.78,0,0,0-.26-.5c-.95-.73-1.41.43-1.48,1.13a14.71,14.71,0,0,0,1.06,7.58c.62,1.35,1.57,1.77,2.48,2.77s.73,3.17,1.06,4.5a7.39,7.39,0,0,0,1.11,2.48,6.48,6.48,0,0,0,1.21,1.26A27,27,0,0,1,632.2,363.88Z"/><path class="cls-3" d="M623.77,343.26c0,.18,0,.44-.05.73l1.79.09a8.33,8.33,0,0,0,0-.89,22.34,22.34,0,0,1,.17-2.68c.14-1.28,0-2.61.24-3.88.53-3.33,3.73-5.54,7.15-5.62,2.52-.06,5,.55,7.52.68,3.11.16,4.58-1.16,7.1-2.46.68-.35.29-.42,1-.22.44.13,1,.72,1.35,1,2.26,1.45,6.37,3,6.9,5.81a25.41,25.41,0,0,1,0,6.71,23.07,23.07,0,0,0-.39,3.14l1.4.07.41-1.06c.42-1.1.85-2.25,1-2.78a34.11,34.11,0,0,0,.86-5.28c.72-4.27,1.19-8.36-1.47-12.11-2.84-4-7.23-6.49-9.65-6.33-.14,0-1.77.06-1.57.25-.82-.76-2.32-.89-3.37-1.18-5.58-1.54-12.88,1.37-17.16,4.66-4.52,3.47-4.12,8.25-3.86,12.83a26.32,26.32,0,0,0,.38,4.9,8.93,8.93,0,0,1,.29,2.44C623.82,342.44,623.81,342.83,623.77,343.26Z"/><path class="cls-7" d="M636.53,393.26l1.58,4,1.53-12.06a2.74,2.74,0,0,0-.34-1.65l-1.24-2.25-3.75,6.2Z"/><path class="cls-7" d="M643.56,384a2.44,2.44,0,0,0-.09,1.62L647,398.45l.92-4.09,1.32-5.08.07-.4-4.83-7Z"/><path class="cls-6" d="M643.47,385.59a2.44,2.44,0,0,1,.09-1.62l.91-2.08-3.2-4.62a.42.42,0,0,0-.72-.06l-2.5,4.14,1.24,2.25a2.74,2.74,0,0,1,.34,1.65l-1.53,12.06,2.78,7.15a48.05,48.05,0,0,0,4.82-.33l1.28-5.68Z"/><path class="cls-11" d="M672.42,376.15c-2.77-.39-9.36-1.69-14.15-2.88a12.37,12.37,0,0,1,1.52,2.34c1.17,2.42,2,4.2,2.43,5.34l-6.62,3,6,3.13a90.93,90.93,0,0,0-9.08,15.72,47.74,47.74,0,0,0,27.79-20.6,11.24,11.24,0,0,0-.74-1C677.19,378.18,676.18,376.68,672.42,376.15Z"/><path class="cls-4" d="M632.74,383.51l1.57,4,3.75-6.2,2.5-4.14a.42.42,0,0,1,.72.06l3.2,4.62,4.83,7,3.54-19.25-1.28-3.53-.31.3-10.12,9.93a.42.42,0,0,1-.59,0l-11.73-11.61-.12-.12-1.82,3.29a2.49,2.49,0,0,1,.61-.44Z"/><path class="cls-4" d="M661.6,387.08l-6-3.13,6.62-3c-.39-1.14-1.26-2.92-2.43-5.34a12.37,12.37,0,0,0-1.52-2.34,17.85,17.85,0,0,0-5.26-4.44l-.15.8-3.54,19.25-.07.4-1.32,5.08-.92,4.09-1.28,5.68a47.44,47.44,0,0,0,6.81-1.33A90.93,90.93,0,0,1,661.6,387.08Z"/><path class="cls-11" d="M627.49,381.55l-9.55-3.84a24.26,24.26,0,0,1,3.45-4.28c-5.17,1.48-10.51,3.69-15.74,4.54a9,9,0,0,0-6.09,4.14,47.68,47.68,0,0,0,32.81,21.77c-3.93-6.16-8.08-10.71-12.18-15.71Z"/><path class="cls-4" d="M636.53,393.26l-2.22-5.71-1.57-4-5.24-16.11a2.49,2.49,0,0,0-.61.44c-1.13,1-3.48,3.37-5.49,5.58a24.26,24.26,0,0,0-3.45,4.28l9.55,3.84-7.3,6.62c4.1,5,8.25,9.56,12.18,15.71a48,48,0,0,0,7.6.61l.92,0-2.78-7.15Z"/><path class="cls-10" d="M645.81,341.94a6.32,6.32,0,0,1,5.18,0"/><path class="cls-10" d="M631.81,341.94a6.32,6.32,0,0,1,5.18,0"/><circle class="cls-3" cx="648.13" cy="345.09" r="1.36"/><circle class="cls-3" cx="635.13" cy="345.09" r="1.36"/><path class="cls-10" d="M636.34,358.29s4.37,4.21,8.89.41"/><path class="cls-10" d="M642.76,343.85a16.37,16.37,0,0,0-.1,4.65c.14,1.17.41,2.31.59,3.47a4,4,0,0,1,0,1.76c-.17.55-.67.94-1,.65"/><path class="cls-4" d="M245.07,248.41c5.23-.85,10.57-3.06,15.74-4.54,2-2.21,4.36-4.61,5.49-5.58l1.82-3.29.12.12.16-3.16v-.22a6.48,6.48,0,0,1-1.21-1.26A7.39,7.39,0,0,1,266.1,228c-.33-1.34,0-3.39-1.06-4.5s-1.86-1.42-2.48-2.77a14.71,14.71,0,0,1-1.06-7.58c.07-.7.54-1.86,1.48-1.13a.78.78,0,0,1,.26.5,8.93,8.93,0,0,0-.29-2.44,26.32,26.32,0,0,1-.38-4.9c-.26-4.58-.66-9.36,3.86-12.83,4.28-3.29,11.58-6.2,17.16-4.66,1,.29,2.55.42,3.37,1.18-.2-.18,1.44-.24,1.57-.25,2.42-.16,6.81,2.32,9.65,6.33,2.66,3.74,2.19,7.84,1.47,12.11a34.11,34.11,0,0,1-.86,5.28c-.14.53-.56,1.68-1,2.78h0c.43-.23.25-1,.71-1.28,1-.63,1.36.57,1.36,1.28a14.73,14.73,0,0,1-1.82,7.43c-.76,1.28-1.74,1.61-2.75,2.51s-1,3.08-1.51,4.37a7.4,7.4,0,0,1-1.36,2.36,7,7,0,0,1-1.6,1.31l-.19,3.78.31-.3,1.28,3.53.15-.8a17.85,17.85,0,0,1,5.26,4.44c4.79,1.19,11.38,2.49,14.15,2.88,3.77.53,4.77,2,7.15,5a11.24,11.24,0,0,1,.74,1,47.67,47.67,0,1,0-80.74-.1A9,9,0,0,1,245.07,248.41Z"/><path class="cls-4" d="M280.56,246.79l10.12-9.93.19-3.78a21.22,21.22,0,0,0-3.17,2.07,15,15,0,0,1-4.36,3.21,7.58,7.58,0,0,1-3.35.3l-.53,0a8.57,8.57,0,0,1-3.84-.65,15,15,0,0,1-4-3.63,27,27,0,0,0-3.2-2.59V232l-.16,3.16L280,246.74A.42.42,0,0,0,280.56,246.79Z"/><path class="cls-4" d="M271.62,234.34a15,15,0,0,0,4,3.63,8.57,8.57,0,0,0,3.84.65l.53,0a7.58,7.58,0,0,0,3.35-.3,15,15,0,0,0,4.36-3.21,21.22,21.22,0,0,1,3.17-2.07,7,7,0,0,0,1.6-1.31,7.4,7.4,0,0,0,1.36-2.36c.46-1.3.39-3.37,1.51-4.37s2-1.23,2.75-2.51a14.73,14.73,0,0,0,1.82-7.43c0-.7-.35-1.91-1.36-1.28-.46.28-.28,1-.71,1.28h0l-.41,1.06-1.4-.07a23.07,23.07,0,0,1,.39-3.14,25.41,25.41,0,0,0,0-6.71c-.53-2.84-4.64-4.37-6.9-5.81-.37-.24-.92-.83-1.35-1-.68-.2-.29-.13-1,.22-2.52,1.3-4,2.62-7.1,2.46-2.51-.13-5-.74-7.52-.68-3.43.08-6.62,2.28-7.15,5.62-.2,1.27-.1,2.6-.24,3.88a22.34,22.34,0,0,0-.17,2.68,8.33,8.33,0,0,1,0,.89l-1.79-.09c0-.29,0-.56.05-.73,0-.43.06-.81.06-1.19a.78.78,0,0,0-.26-.5c-.95-.73-1.41.43-1.48,1.13a14.71,14.71,0,0,0,1.06,7.58c.62,1.35,1.57,1.77,2.48,2.77s.73,3.17,1.06,4.5a7.39,7.39,0,0,0,1.11,2.48,6.48,6.48,0,0,0,1.21,1.26A27,27,0,0,1,271.62,234.34Z"/><path class="cls-3" d="M263.19,213.71c0,.18,0,.44-.05.73l1.79.09a8.33,8.33,0,0,0,0-.89,22.34,22.34,0,0,1,.17-2.68c.14-1.28,0-2.61.24-3.88.53-3.33,3.73-5.54,7.15-5.62,2.52-.06,5,.55,7.52.68,3.11.16,4.58-1.16,7.1-2.46.68-.35.29-.42,1-.22.44.13,1,.72,1.35,1,2.26,1.45,6.37,3,6.9,5.81a25.41,25.41,0,0,1,0,6.71,23.07,23.07,0,0,0-.39,3.14l1.4.07.41-1.06c.42-1.1.85-2.25,1-2.78a34.11,34.11,0,0,0,.86-5.28c.72-4.27,1.19-8.36-1.47-12.11-2.84-4-7.23-6.49-9.65-6.33-.14,0-1.77.06-1.57.25-.82-.76-2.32-.89-3.37-1.18-5.58-1.54-12.88,1.37-17.16,4.66-4.52,3.47-4.12,8.25-3.86,12.83a26.32,26.32,0,0,0,.38,4.9,8.93,8.93,0,0,1,.29,2.44C263.24,212.9,263.23,213.29,263.19,213.71Z"/><path class="cls-7" d="M275.95,263.71l1.58,4,1.53-12.06a2.74,2.74,0,0,0-.34-1.65l-1.24-2.25-3.75,6.2Z"/><path class="cls-7" d="M283,254.43a2.44,2.44,0,0,0-.09,1.62l3.52,12.86.92-4.09,1.32-5.08.07-.4-4.83-7Z"/><path class="cls-6" d="M282.89,256a2.44,2.44,0,0,1,.09-1.62l.91-2.08-3.2-4.62a.42.42,0,0,0-.72-.06l-2.5,4.14,1.24,2.25a2.74,2.74,0,0,1,.34,1.65l-1.53,12.06,2.78,7.15a48.05,48.05,0,0,0,4.82-.33l1.28-5.68Z"/><path class="cls-9" d="M311.83,246.6c-2.77-.39-9.36-1.69-14.15-2.88a12.37,12.37,0,0,1,1.52,2.34c1.17,2.42,2,4.2,2.43,5.34l-6.62,3,6,3.13a90.93,90.93,0,0,0-9.08,15.72,47.74,47.74,0,0,0,27.79-20.6,11.24,11.24,0,0,0-.74-1C316.61,248.63,315.6,247.14,311.83,246.6Z"/><path class="cls-4" d="M272.15,254l1.57,4,3.75-6.2,2.5-4.14a.42.42,0,0,1,.72.06l3.2,4.62,4.83,7,3.54-19.25L291,236.56l-.31.3-10.12,9.93a.42.42,0,0,1-.59,0l-11.73-11.61-.12-.12-1.82,3.29a2.49,2.49,0,0,1,.61-.44Z"/><path class="cls-4" d="M301,257.53l-6-3.13,6.62-3c-.39-1.14-1.26-2.92-2.43-5.34a12.37,12.37,0,0,0-1.52-2.34,17.85,17.85,0,0,0-5.26-4.44l-.15.8-3.54,19.25-.07.4-1.32,5.08-.92,4.09-1.28,5.68a47.44,47.44,0,0,0,6.81-1.33A90.93,90.93,0,0,1,301,257.53Z"/><path class="cls-9" d="M266.91,252l-9.55-3.84a24.26,24.26,0,0,1,3.45-4.28c-5.17,1.48-10.51,3.69-15.74,4.54a9,9,0,0,0-6.09,4.14,47.68,47.68,0,0,0,32.81,21.77c-3.93-6.16-8.08-10.71-12.18-15.71Z"/><path class="cls-4" d="M275.95,263.71,273.73,258l-1.57-4-5.24-16.11a2.49,2.49,0,0,0-.61.44c-1.13,1-3.48,3.37-5.49,5.58a24.26,24.26,0,0,0-3.45,4.28l9.55,3.84-7.3,6.62c4.1,5,8.25,9.56,12.18,15.71a48,48,0,0,0,7.6.61l.92,0-2.78-7.15Z"/><path class="cls-10" d="M285.23,212.39a6.32,6.32,0,0,1,5.18,0"/><path class="cls-10" d="M271.23,212.39a6.32,6.32,0,0,1,5.18,0"/><circle class="cls-3" cx="287.55" cy="215.55" r="1.36"/><circle class="cls-3" cx="274.55" cy="215.55" r="1.36"/><path class="cls-10" d="M275.76,228.75s4.37,4.21,8.89.41"/><path class="cls-10" d="M282.18,214.31a16.37,16.37,0,0,0-.1,4.65c.14,1.17.41,2.31.59,3.47a4,4,0,0,1,0,1.76c-.17.55-.67.94-1,.65"/><path class="cls-4" d="M789.65,482c5.23-.85,10.57-3.06,15.74-4.54,2-2.21,4.36-4.61,5.49-5.58l1.82-3.29.12.12.16-3.16v-.22a6.48,6.48,0,0,1-1.21-1.26,7.39,7.39,0,0,1-1.11-2.48c-.33-1.34,0-3.39-1.06-4.5s-1.86-1.42-2.48-2.77a14.71,14.71,0,0,1-1.06-7.58c.07-.7.54-1.86,1.48-1.13a.78.78,0,0,1,.26.5,8.93,8.93,0,0,0-.29-2.44,26.32,26.32,0,0,1-.38-4.9c-.26-4.58-.66-9.36,3.86-12.83,4.28-3.29,11.58-6.2,17.16-4.66,1,.29,2.55.42,3.37,1.18-.2-.18,1.44-.24,1.57-.25,2.42-.16,6.81,2.32,9.65,6.33,2.66,3.74,2.19,7.84,1.47,12.11a34.11,34.11,0,0,1-.86,5.28c-.14.53-.56,1.68-1,2.78h0c.43-.23.25-1,.71-1.28,1-.63,1.36.57,1.36,1.28a14.73,14.73,0,0,1-1.82,7.43c-.76,1.28-1.74,1.61-2.75,2.51s-1,3.08-1.51,4.37a7.4,7.4,0,0,1-1.36,2.36,7,7,0,0,1-1.6,1.31l-.19,3.78.31-.3,1.28,3.53.15-.8a17.85,17.85,0,0,1,5.26,4.44c4.79,1.19,11.38,2.49,14.15,2.88,3.77.53,4.77,2,7.15,5a11.24,11.24,0,0,1,.74,1,47.67,47.67,0,1,0-80.74-.1A9,9,0,0,1,789.65,482Z"/><path class="cls-4" d="M825.14,480.33l10.12-9.93.19-3.78a21.22,21.22,0,0,0-3.17,2.07,15,15,0,0,1-4.36,3.21,7.58,7.58,0,0,1-3.35.3l-.53,0a8.57,8.57,0,0,1-3.84-.65,15,15,0,0,1-4-3.63,27,27,0,0,0-3.2-2.59v.22l-.16,3.16,11.73,11.61A.42.42,0,0,0,825.14,480.33Z"/><path class="cls-4" d="M816.2,467.88a15,15,0,0,0,4,3.63,8.57,8.57,0,0,0,3.84.65l.53,0a7.58,7.58,0,0,0,3.35-.3,15,15,0,0,0,4.36-3.21,21.22,21.22,0,0,1,3.17-2.07,7,7,0,0,0,1.6-1.31,7.4,7.4,0,0,0,1.36-2.36c.46-1.3.39-3.37,1.51-4.37s2-1.23,2.75-2.51a14.73,14.73,0,0,0,1.82-7.43c0-.7-.35-1.91-1.36-1.28-.46.28-.28,1-.71,1.28h0l-.41,1.06-1.4-.07a23.07,23.07,0,0,1,.39-3.14,25.41,25.41,0,0,0,0-6.71c-.53-2.84-4.64-4.37-6.9-5.81-.37-.24-.92-.83-1.35-1-.68-.2-.29-.13-1,.22-2.52,1.3-4,2.62-7.1,2.46-2.51-.13-5-.74-7.52-.68-3.43.08-6.62,2.28-7.15,5.62-.2,1.27-.1,2.6-.24,3.88a22.34,22.34,0,0,0-.17,2.68,8.33,8.33,0,0,1,0,.89l-1.79-.09c0-.29,0-.56.05-.73,0-.43.06-.81.06-1.19a.78.78,0,0,0-.26-.5c-.95-.73-1.41.43-1.48,1.13a14.71,14.71,0,0,0,1.06,7.58c.62,1.35,1.57,1.77,2.48,2.77s.73,3.17,1.06,4.5a7.39,7.39,0,0,0,1.11,2.48,6.48,6.48,0,0,0,1.21,1.26A27,27,0,0,1,816.2,467.88Z"/><path class="cls-3" d="M807.77,447.26c0,.18,0,.44-.05.73l1.79.09a8.33,8.33,0,0,0,0-.89,22.34,22.34,0,0,1,.17-2.68c.14-1.28,0-2.61.24-3.88.53-3.33,3.73-5.54,7.15-5.62,2.52-.06,5,.55,7.52.68,3.11.16,4.58-1.16,7.1-2.46.68-.35.29-.42,1-.22.44.13,1,.72,1.35,1,2.26,1.45,6.37,3,6.9,5.81a25.41,25.41,0,0,1,0,6.71,23.07,23.07,0,0,0-.39,3.14l1.4.07.41-1.06c.42-1.1.85-2.25,1-2.78a34.11,34.11,0,0,0,.86-5.28c.72-4.27,1.19-8.36-1.47-12.11-2.84-4-7.23-6.49-9.65-6.33-.14,0-1.77.06-1.57.25-.82-.76-2.32-.89-3.37-1.18-5.58-1.54-12.88,1.37-17.16,4.66-4.52,3.47-4.12,8.25-3.86,12.83a26.32,26.32,0,0,0,.38,4.9,8.93,8.93,0,0,1,.29,2.44C807.82,446.44,807.81,446.83,807.77,447.26Z"/><path class="cls-7" d="M820.53,497.26l1.58,4,1.53-12.06a2.74,2.74,0,0,0-.34-1.65l-1.24-2.25-3.75,6.2Z"/><path class="cls-7" d="M827.56,488a2.44,2.44,0,0,0-.09,1.62L831,502.45l.92-4.09,1.32-5.08.07-.4-4.83-7Z"/><path class="cls-6" d="M827.47,489.59a2.44,2.44,0,0,1,.09-1.62l.91-2.08-3.2-4.62a.42.42,0,0,0-.72-.06l-2.5,4.14,1.24,2.25a2.74,2.74,0,0,1,.34,1.65l-1.53,12.06,2.78,7.15a48.05,48.05,0,0,0,4.82-.33l1.28-5.68Z"/><path class="cls-9" d="M856.42,480.15c-2.77-.39-9.36-1.69-14.15-2.88a12.37,12.37,0,0,1,1.52,2.34c1.17,2.42,2,4.2,2.43,5.34l-6.62,3,6,3.13a90.93,90.93,0,0,0-9.08,15.72,47.74,47.74,0,0,0,27.79-20.6,11.24,11.24,0,0,0-.74-1C861.19,482.18,860.18,480.68,856.42,480.15Z"/><path class="cls-4" d="M816.74,487.51l1.57,4,3.75-6.2,2.5-4.14a.42.42,0,0,1,.72.06l3.2,4.62,4.83,7,3.54-19.25-1.28-3.53-.31.3-10.12,9.93a.42.42,0,0,1-.59,0l-11.73-11.61-.12-.12-1.82,3.29a2.49,2.49,0,0,1,.61-.44Z"/><path class="cls-4" d="M845.6,491.08l-6-3.13,6.62-3c-.39-1.14-1.26-2.92-2.43-5.34a12.37,12.37,0,0,0-1.52-2.34,17.85,17.85,0,0,0-5.26-4.44l-.15.8-3.54,19.25-.07.4-1.32,5.08-.92,4.09-1.28,5.68a47.44,47.44,0,0,0,6.81-1.33A90.93,90.93,0,0,1,845.6,491.08Z"/><path class="cls-9" d="M811.49,485.55l-9.55-3.84a24.26,24.26,0,0,1,3.45-4.28c-5.17,1.48-10.51,3.69-15.74,4.54a9,9,0,0,0-6.09,4.14,47.68,47.68,0,0,0,32.81,21.77c-3.93-6.16-8.08-10.71-12.18-15.71Z"/><path class="cls-4" d="M820.53,497.26l-2.22-5.71-1.57-4-5.24-16.11a2.49,2.49,0,0,0-.61.44c-1.13,1-3.48,3.37-5.49,5.58a24.26,24.26,0,0,0-3.45,4.28l9.55,3.84-7.3,6.62c4.1,5,8.25,9.56,12.18,15.71a48,48,0,0,0,7.6.61l.92,0-2.78-7.15Z"/><path class="cls-10" d="M829.81,445.94a6.32,6.32,0,0,1,5.18,0"/><path class="cls-10" d="M815.81,445.94a6.32,6.32,0,0,1,5.18,0"/><circle class="cls-3" cx="832.13" cy="449.09" r="1.36"/><circle class="cls-3" cx="819.13" cy="449.09" r="1.36"/><path class="cls-10" d="M820.34,462.29s4.37,4.21,8.89.41"/><path class="cls-10" d="M826.76,447.85a16.37,16.37,0,0,0-.1,4.65c.14,1.17.41,2.31.59,3.47a4,4,0,0,1,0,1.76c-.17.55-.67.94-1,.65"/></g></svg>