<svg xmlns="http://www.w3.org/2000/svg" viewBox="0 0 577.9 708.69"><defs><style>.cls-2,.cls-7{fill:#fff}.cls-2,.cls-3,.cls-9{stroke:#000;stroke-miterlimit:10;stroke-width:.5px}.cls-3{fill:#f2f2f2}.cls-4{fill:#ccc}.cls-9{fill:#ffe600}</style></defs><path d="M526.86 435.52s119.25 97.34-6.79 205.77c0 0-132.05 143.82-346.51 11.28 0 0-100.76-53.1-162.21-202.87 0 0-37.24-128.7 24.76-224.51 0 0 104.71-167.31 284.18-208.75 0 0 213-80 237.23 112.85 0 0 1.63 66.56-67.23 115.08-.01.01-111.98 68.43 36.57 191.15z" fill="#f5f5f5" id="Layer_4" data-name="Layer 4"/><g id="Layer_8" data-name="Layer 8"><g id="Layer_2" data-name="Layer 2"><path class="cls-2" d="M395 176.07L248 155l-38.29 267.42 183.65 26.28 33-230.72z"/><path class="cls-3" d="M394.96 176.07l-5.39 37.7 36.81 4.21-31.42-41.91zM399.42 242.7l-135.69-19.42A2 2 0 0 1 262 221a2 2 0 0 1 2.26-1.69L400 238.75a2 2 0 0 1 1.69 2.26 2 2 0 0 1-2.27 1.69zM378.76 256.8l-99.15-14.19a2 2 0 0 1-1.69-2.26 2 2 0 0 1 2.26-1.69l99.15 14.19a2 2 0 0 1 1.67 2.25 2 2 0 0 1-2.24 1.7zM394.64 276.13l-135.69-19.42a2 2 0 0 1-1.69-2.26 2 2 0 0 1 2.26-1.69l135.68 19.41a2 2 0 0 1 1.69 2.26 2 2 0 0 1-2.25 1.7zM374 290.23L274.82 276a2 2 0 0 1-1.69-2.26 2 2 0 0 1 2.26-1.69l99.15 14.19a2 2 0 0 1 1.69 2.26 2 2 0 0 1-2.23 1.73zM389.85 309.55l-135.69-19.41a2 2 0 0 1-1.69-2.26 2 2 0 0 1 2.26-1.69l135.69 19.41a2 2 0 0 1 1.69 2.26 2 2 0 0 1-2.26 1.69zM369.19 323.65L270 309.47a2 2 0 0 1-1.69-2.26 2 2 0 0 1 2.26-1.69l99.15 14.19a2 2 0 0 1 1.69 2.26 2 2 0 0 1-2.22 1.68zM385.07 343l-135.69-19.43a2 2 0 0 1-1.69-2.26 2 2 0 0 1 2.26-1.69L385.63 339a2 2 0 0 1 1.69 2.26 2 2 0 0 1-2.25 1.74zM364.41 357.08l-99.15-14.19a2 2 0 0 1-1.69-2.26 2 2 0 0 1 2.26-1.69L365 353.13a2 2 0 0 1 1.69 2.26 2 2 0 0 1-2.28 1.69zM380.28 376.41L244.6 357a2 2 0 0 1-1.69-2.26 2 2 0 0 1 2.26-1.69l135.69 19.42a2 2 0 0 1 1.69 2.26 2 2 0 0 1-2.27 1.68zM359.62 390.51l-99.15-14.19a2 2 0 0 1-1.69-2.26 2 2 0 0 1 2.26-1.69l99.15 14.19a2 2 0 0 1 1.69 2.26 2 2 0 0 1-2.26 1.69z"/><path class="cls-2" d="M224.54 227.5l-99.39 20.41 37.12 180.8 124.18-25.5-32-156z"/><path class="cls-3" d="M224.54 227.5l5.24 25.49 24.64-5.79-29.88-19.7zM242.79 269.32L151 288.15a1.37 1.37 0 0 1-1.61-1.06 1.37 1.37 0 0 1 1.06-1.61l91.75-18.84a1.37 1.37 0 0 1 1.61 1.06 1.37 1.37 0 0 1-1.02 1.62zM232.76 283.15l-67 13.77a1.37 1.37 0 0 1-1.61-1.06 1.37 1.37 0 0 1 1.06-1.61l67-13.77a1.37 1.37 0 0 1 1.61 1.06 1.37 1.37 0 0 1-1.06 1.61zM247.43 291.92l-91.75 18.84a1.37 1.37 0 0 1-1.61-1.06 1.37 1.37 0 0 1 1.06-1.61l91.75-18.84a1.37 1.37 0 0 1 1.61 1.06 1.37 1.37 0 0 1-1.06 1.61zM237.4 305.76l-67 13.77a1.37 1.37 0 0 1-1.61-1.06 1.37 1.37 0 0 1 1.06-1.61l67-13.77a1.37 1.37 0 0 1 1.61 1.06 1.37 1.37 0 0 1-1.06 1.61zM252.07 314.52l-91.75 18.84a1.37 1.37 0 0 1-1.61-1.06 1.37 1.37 0 0 1 1.06-1.61l91.75-18.84a1.37 1.37 0 0 1 1.61 1.06 1.37 1.37 0 0 1-1.06 1.61zM242 328.36l-67 13.77a1.37 1.37 0 0 1-1.61-1.06 1.37 1.37 0 0 1 1.06-1.61l67-13.77a1.37 1.37 0 0 1 1.61 1.06 1.37 1.37 0 0 1-1.06 1.61zM256.71 337.13L165 356a1.37 1.37 0 0 1-1.61-1.06 1.37 1.37 0 0 1 1.06-1.61l91.75-18.84a1.37 1.37 0 0 1 1.61 1.06 1.37 1.37 0 0 1-1.1 1.58zM246.68 351l-67 13.77a1.37 1.37 0 0 1-1.61-1.06 1.37 1.37 0 0 1 1.06-1.61l67-13.77a1.37 1.37 0 0 1 1.61 1.06 1.37 1.37 0 0 1-1.06 1.61zM261.36 359.73l-91.75 18.84a1.37 1.37 0 0 1-1.61-1.06 1.37 1.37 0 0 1 1.06-1.61l91.75-18.84a1.37 1.37 0 0 1 1.61 1.06 1.37 1.37 0 0 1-1.06 1.61zM251.32 373.57l-67 13.77a1.37 1.37 0 0 1-1.61-1.06 1.37 1.37 0 0 1 1.06-1.61l67-13.77a1.37 1.37 0 0 1 1.61 1.06 1.37 1.37 0 0 1-1.06 1.61z"/></g></g><path class="cls-4" d="M426 602c0-8-75-14.48-167.6-14.48-68.87 0-128 3.59-153.8 8.72 4.67 4.92 9.24 9.48 13.66 13.7 30 3.94 81.53 6.54 140.14 6.54C350.94 616.48 426 610 426 602z" id="Layer_3" data-name="Layer 3"/><g id="Layer_6" data-name="Layer 6"><g id="_Group_" data-name="&lt;Group&gt;"><path id="_Path_" data-name="&lt;Path&gt;" class="cls-2" d="M269.75 544.5c-4 3.87-18.94 6-28.14 0s-68.17-40.57-77.55-52.12-6.95-26.81-21-35.48-17.36-11.77-17.36-11.77l43.62-57.31s13.53 9.74 23.81 10.28 20-2.71 31.93 0 39.8 26.9 39.8 26.9l81.2 57.78s11.09 10 4.87 22.46-19.75 5.14-29.77 0c0 0 6.49 7 3.79 14.34s-14.88 14.88-28.68 3.25c0 0 0 10-8.12 13.26 0 0-5.46 2.39-15.21.44a11.27 11.27 0 0 1-3.19 7.97z"/><path id="_Path_2" data-name="&lt;Path&gt;" class="cls-3" d="M342.35 386l-15.88 12.63-21.62-6.87a130.88 130.88 0 0 0-51-5.66l-15.44 1.34A42.67 42.67 0 0 0 223.64 403l-18 31.39s21.29 28.86 50.87-15.51l93.37 68.72 41.57-32.6z"/><rect id="_Rectangle_" data-name="&lt;Rectangle&gt;" class="cls-3" x="147.45" y="475.7" width="47.97" height="32.28" rx="14.91" ry="14.91" transform="rotate(124.71 171.422 491.854)"/><path id="_Path_3" data-name="&lt;Path&gt;" class="cls-3" d="M189.49 485.85c5.51-7.91 15.51-10.57 22.23-5.85l2 1.4c6.74 4.67 7.77 15 2.29 22.88l-13.21 19.05c-5.48 7.91-15.48 10.57-22.23 5.89l-2-1.4c-6.74-4.67-7.77-15-2.29-22.88"/><path id="_Path_4" data-name="&lt;Path&gt;" class="cls-2" d="M336.43 380.97l59.17 80.82 30.37-20.92-65.49-80.83-24.05 20.93z"/><path d="M465.51 268.34l-111 85.21 76.13 92.72 58.28-46.9c-54.56-61.37-41.54-105.88-23.41-131.03z" fill="#0077bf" stroke="#000" stroke-miterlimit="10" stroke-width=".5"/><path id="_Path_5" data-name="&lt;Path&gt;" stroke="#000" stroke-miterlimit="10" stroke-width=".5" d="M180.33 380.97l-59.17 80.82-30.38-20.92 65.5-80.83 24.05 20.93z"/><path id="_Path_6" data-name="&lt;Path&gt;" class="cls-7" d="M170.41 472.88s8.25-3.38 14 2.93 3.25 10.55 3.25 10.55l-5.83 6-15.92-13s2-4.48 4.5-6.48z"/><path id="_Path_7" data-name="&lt;Path&gt;" class="cls-7" d="M197.75 483.08s8.25-3.38 14 2.93 3.25 10.55 3.25 10.55l-5.83 6-15.92-13s2-4.48 4.5-6.48z"/><path id="_Path_8" data-name="&lt;Path&gt;" class="cls-3" d="M208.61 506.06a15 15 0 0 1 18.8-1.48l2 1.4a15 15 0 0 1 3.77 20.75l-11 15.85a15 15 0 0 1-20.75 3.77l-2-1.4a15 15 0 0 1-3.77-20.75"/><path id="_Path_9" data-name="&lt;Path&gt;" class="cls-7" d="M214.74 507.11s8.25-3.38 14 2.93S232 520.6 232 520.6l-5.83 6-15.92-13s1.99-4.49 4.49-6.49z"/><path id="_Path_10" data-name="&lt;Path&gt;" class="cls-3" d="M231 524.28c5.22-3.13 11.48-3.42 16.16-.17 6.74 4.67 7.77 15 2.29 22.88l-2.36 3.4c-5.48 7.91-15.48 10.57-22.23 5.89-5-3.43-6.82-9.89-5.3-16.22"/><path id="_Path_12" data-name="&lt;Path&gt;" class="cls-7" d="M236.31 525.54s6.94-2.84 11.77 2.47 2.73 8.87 2.73 8.87l-4.9 5.06L232.53 531s1.68-3.78 3.78-5.46z"/><path d="M150.67 331.94a46.75 46.75 0 0 0-17.84-28.28L26.18 242.39C-.33 294.11-2 352.2 1.76 393.7l6.41 4.68 55 37 27.62 5.53L156.28 360z" fill="#eb058c" stroke="#000" stroke-miterlimit="10" stroke-width=".5"/><circle id="_Path_13" data-name="&lt;Path&gt;" class="cls-9" cx="444.16" cy="424.35" r="5.5"/><circle id="_Path_14" data-name="&lt;Path&gt;" class="cls-9" cx="459.66" cy="413.35" r="5.5"/><circle id="_Path_15" data-name="&lt;Path&gt;" class="cls-9" cx="475.16" cy="402.35" r="5.5"/><path id="_Path_16" data-name="&lt;Path&gt;" class="cls-4" d="M320.95 505.16a4.69 4.69 0 0 1 .49.33 8.12 8.12 0 0 1 1.68.57c-16.63-15-42.21-37.61-45.72-37.2-5.25.61 12 13.62 24.39 22.1 4.39 3 11.31 8.4 17.9 13.68a6.83 6.83 0 0 1 1.26.52z"/><path id="_Path_17" data-name="&lt;Path&gt;" class="cls-4" d="M298 524.27a3.41 3.41 0 0 1 .36.25 5.71 5.71 0 0 1 1.23.44c-12.15-11.65-30.84-29.12-33.4-28.81-3.83.47 8.75 10.55 17.81 17.11 3.2 2.32 8.26 6.51 13.07 10.6a4.83 4.83 0 0 1 .93.41z"/><path id="_Path_18" data-name="&lt;Path&gt;" class="cls-4" d="M273.26 536.47a3.41 3.41 0 0 1 .36.25 5.71 5.71 0 0 1 1.23.44c-12.15-11.64-30.85-29.16-33.4-28.8-3.83.47 8.75 10.55 17.81 17.11 3.2 2.32 8.26 6.51 13.07 10.6a4.83 4.83 0 0 1 .93.4z"/></g></g></svg>