<?xml version="1.0" encoding="utf-8"?>
<!-- Generator: Adobe Illustrator 21.0.2, SVG Export Plug-In . SVG Version: 6.00 Build 0)  -->
<svg version="1.1" id="Layer_1" xmlns="http://www.w3.org/2000/svg" xmlns:xlink="http://www.w3.org/1999/xlink" x="0px" y="0px"
	 viewBox="0 0 896.6 815.3" style="enable-background:new 0 0 896.6 815.3;" xml:space="preserve">
<style type="text/css">
	.st0{fill:#F5F5F5;}
	.st1{fill:#CCCCCC;}
	.st2{fill:#0077BF;stroke:#000000;stroke-width:0.5;stroke-miterlimit:10;}
	.st3{fill:#FFFFFF;stroke:#000000;stroke-width:0.5;stroke-miterlimit:10;}
	.st4{fill:#F2F2F2;stroke:#000000;stroke-width:0.5;stroke-miterlimit:10;}
	.st5{fill:#EB058C;stroke:#000000;stroke-width:0.5;stroke-miterlimit:10;}
	.st6{stroke:#000000;stroke-width:0.5;stroke-miterlimit:10;}
	.st7{fill:#E6E6E6;stroke:#000000;stroke-width:0.5;stroke-miterlimit:10;}
	.st8{fill:#333333;stroke:#000000;stroke-width:0.5;stroke-miterlimit:10;}
	.st9{fill:#FFE600;stroke:#000000;stroke-width:0.5;stroke-miterlimit:10;}
	.st10{fill:none;stroke:#202020;stroke-width:0.5;stroke-miterlimit:10;}
	.st11{fill:none;stroke:#000000;stroke-width:0.5;stroke-miterlimit:10;}
	.st12{enable-background:new    ;}
	.st13{fill:#EB058C;}
</style>
<title>upsell</title>
<g id="Layer_1_1_">
	<g id="Layer_3">
		<path class="st0" d="M377.3,180.1c0,0-8.3-192.5,204.6-179.4c0,0,252.2-13.5,308.1,294.4c0,0,35.1,136.4-56.8,325.4
			c0,0-92.4,148.7-238.1,180.5c0,0-251.4,58.7-445.4-61.7c0,0-260-115.2-94.5-310.2c0,0,62.9-61.4,168.9-44.6
			C224,384.5,386.1,421.2,377.3,180.1z"/>
	</g>
	<g id="Layer_2">
		<g id="_Group_">
			<ellipse class="st1" cx="609.6" cy="329.6" rx="65.7" ry="4.1"/>
			<rect id="_Rectangle_" x="604.1" y="57.5" class="st2" width="10.2" height="71.1"/>
			<path id="_Path_" class="st3" d="M669.3,149.2c-1.3-32.6-27.7-58.7-60.1-58.7s-58.8,26.1-60.1,58.7H669.3z"/>
			<polygon id="_Path_2" class="st3" points="654.6,325.5 563.8,325.5 547.5,156.9 671,156.9 			"/>
			<g id="_Group_2">
				<polygon id="_Path_3" class="st4" points="651.8,322.4 566.7,322.4 551.4,156.9 667.1,156.9 				"/>
			</g>
			<g id="_Group_3">
				<polygon id="_Path_4" class="st5" points="659.4,276.4 666.8,199.5 551.7,199.5 559.1,276.4 				"/>
			</g>
			<circle id="_Path_5" class="st3" cx="609.9" cy="238.7" r="33.7"/>
			<circle id="_Path_6" class="st3" cx="609.9" cy="238.7" r="29.8"/>
			<g id="_Group_4">
				<path id="_Path_7" class="st6" d="M614.8,250c0-0.3,0.1-0.5,0.2-0.8c0.4-0.9,0.5-1.9,0.1-2.8c0.1-0.5,0.6-0.9,1.2-0.9
					c1.5-3.4,3.6-6.9,5.1-10.9c-0.3-0.7-0.4-1.5-0.2-2.2c0.3-1.2,0.9-2.1,1.3-2l0,0c0.5-2.7,0.7-5.5,0.6-8.2
					c6.2,2.7,9.5,11,7.6,19.6c-2.1,9.3-9.6,15.6-16.8,14.3C614,254.1,614.3,252,614.8,250z"/>
				<path id="_Path_8" class="st6" d="M621.2,221.7c0.1,0.9,0,1.9-0.1,2.8c0.5,0.4,0.5,1.1,0.1,1.6c-0.1,0.1-0.2,0.2-0.4,0.3
					c-0.3,2.1-0.8,4.1-1.3,6.1c-0.4,1.3-0.9,2.6-1.4,3.9c0.2,0.7,0.1,1.5-0.2,2.2c-0.4,1.1-1.1,1.9-1.5,1.8
					c-1.3,2.8-2.5,5.7-3.4,8.6c-0.1,0.4-0.2,0.9-0.3,1.3c0.4,0.2,0.5,1.2,0.3,2.3c-0.1,0.7-0.4,1.3-0.9,1.9c0,0.5-0.1,0.9-0.1,1.4
					c-6.5-2.4-10.1-11-8.1-19.9C606.1,226.4,613.8,220,621.2,221.7z"/>
			</g>
			<g id="_Group_5">
				<path id="_Path_9" class="st6" d="M596.8,227.3c0,0.2,0,0.4,0.1,0.6c0.2,0.7,0.2,1.5-0.2,2.1c0,0.4,0.4,0.8,0.8,0.8
					c0.8,2.7,2,5.5,2.7,8.6c-0.3,0.5-0.4,1.1-0.3,1.6c0.1,0.9,0.4,1.6,0.8,1.6l0,0c0.1,2.1,0,4.2-0.4,6.2c4.9-1.4,8.2-7.3,7.6-14
					c-0.7-7.2-5.6-12.6-11.2-12.3C596.6,224.1,596.7,225.7,596.8,227.3z"/>
				<path id="_Path_10" class="st6" d="M598.8,249.1c0.1-0.7,0.2-1.4,0.2-2.1c0.4-0.2,0.5-0.8,0.3-1.2c-0.1-0.1-0.2-0.2-0.3-0.3
					c0-1.6-0.2-3.2-0.4-4.7c-0.2-1-0.4-2.1-0.7-3.1c0.2-0.5,0.2-1.1,0.1-1.6c-0.2-0.9-0.6-1.5-1-1.5c-0.7-2.2-1.3-4.5-1.7-6.7
					c0-0.3-0.1-0.7-0.1-1c0.3-0.1,0.5-0.8,0.4-1.7c0-0.5-0.2-1.1-0.5-1.5c0-0.3,0-0.7,0.1-1c-5.1,1.2-8.7,7.2-8,14.1
					C588,244.1,593.1,249.7,598.8,249.1z"/>
			</g>
			<rect id="_Rectangle_2" x="565.9" y="325.5" class="st3" width="86.8" height="3.3"/>
			<g id="_Group_6">
				<rect id="_Rectangle_3" x="542.5" y="145.4" class="st3" width="133.5" height="11.4"/>
			</g>
			<g id="_Group_7">
				<path id="_Path_11" class="st3" d="M656.5,136.1L656.5,136.1c5.2-10.4-15.2-14.7-15.2-14.7c-3.4-13.8-19.7-13.8-19.7-13.8
					c7,8.5-11.3,15.3-31.9,16.4c-15.5,0.8-18.7,6.4-19.3,9.1c-22,4.2-17.1,12.4-17.1,12.4h111.7
					C665.2,145.4,669.2,140.3,656.5,136.1z"/>
			</g>
			<g id="_Group_8">
				<circle id="_Path_12" class="st3" cx="635.5" cy="124.1" r="1.3"/>
				<circle id="_Path_13" class="st3" cx="625.3" cy="133.3" r="1.3"/>
				<circle id="_Path_14" class="st3" cx="634.2" cy="128.7" r="1.3"/>
				<circle id="_Path_15" class="st3" cx="647" cy="136.4" r="1.3"/>
				<circle id="_Path_16" class="st3" cx="641.3" cy="138.6" r="1.3"/>
				<circle id="_Path_17" class="st3" cx="603.4" cy="133.3" r="1.3"/>
			</g>
			<g id="_Group_9">
				<path id="_Path_18" class="st3" d="M551.4,156.9l1.5,16.5l0,0l0.3,3.3v0.4l0,0l0.2,2.4c0,0,18.5,6.2,34.7,0.1
					c3-1.1,34.1-8.9,39.4-2.9c1.5,1.7-3.6,7.4,10.8,7.6c9.1,0,18.1-1.6,26.5-4.7l0.2-2.4l0,0v-0.4l1.8-19.7H551.4z"/>
			</g>
		</g>
		<g id="_Group_10">
			<ellipse class="st1" cx="275.6" cy="329.6" rx="65.6" ry="4.1"/>
			<g id="_Group_11">
				<path id="_Path_19" class="st3" d="M314.1,328.8h-78c-1.6,0-3-1.2-3.2-2.9l-14.7-152.6H332l-14.8,152.6
					C317.1,327.6,315.7,328.8,314.1,328.8z"/>
			</g>
			<g id="_Group_12">
				<polygon id="_Path_20" class="st7" points="325.5,280 332,211.3 218.2,211.3 224.7,280 				"/>
			</g>
			<g id="_Group_13">
				<path id="_Rectangle_4" class="st8" d="M213.8,161.6h122.6c0.9,0,1.6,0.7,1.6,1.6v8.4c0,0.9-0.7,1.6-1.6,1.6H213.8
					c-0.9,0-1.6-0.7-1.6-1.6v-8.4C212.2,162.3,212.9,161.6,213.8,161.6z"/>
			</g>
			<g id="_Group_14">
				<path id="_Path_21" class="st8" d="M326.9,152l-3.6-0.6l-99.8,8.1c-0.7,0.1-1.3,0.7-1.3,1.4v0.6h106v-8.1
					C328.1,152.7,327.6,152.1,326.9,152z"/>
			</g>
			<circle id="_Path_22" class="st3" cx="277.9" cy="244.7" r="22.4"/>
			<circle id="_Path_23" class="st3" cx="277.9" cy="244.7" r="19.9"/>
			<g id="_Group_15">
				<path id="_Path_24" class="st6" d="M280.5,252.5l-0.2-0.5c-0.4-0.6-0.5-1.3-0.3-2c-0.1-0.4-0.5-0.6-0.9-0.5
					c-1.3-2.3-3-4.6-4.4-7.2c0.2-0.5,0.2-1.1-0.1-1.6c-0.3-0.8-0.8-1.4-1.1-1.3l0,0c-0.6-1.9-0.9-3.8-1-5.7
					c-4.2,2.3-5.9,8.4-3.9,14.4c2.2,6.4,7.9,10.2,12.9,8.8C281.4,255.3,281,253.9,280.5,252.5z"/>
				<path id="_Path_25" class="st6" d="M273.9,233.1c0,0.7,0.1,1.3,0.2,1.9c-0.3,0.3-0.3,0.8,0,1.1c0.1,0.1,0.2,0.1,0.3,0.2
					c0.4,1.4,0.8,2.8,1.4,4.2c0.4,0.9,0.8,1.8,1.3,2.6c-0.1,0.5,0,1.1,0.3,1.5c0.4,0.7,0.9,1.2,1.2,1.1c1.1,1.9,2.1,3.8,3,5.8
					c0.1,0.3,0.2,0.6,0.3,0.9c-0.3,0.1-0.3,0.9,0,1.6c0.1,0.5,0.4,0.9,0.8,1.2c0.1,0.3,0.1,0.6,0.2,0.9c4.4-2.2,6.3-8.4,4.2-14.5
					C284.9,235.3,279,231.4,273.9,233.1z"/>
			</g>
		</g>
		<g id="_Group_16">
			<ellipse class="st1" cx="683" cy="620.8" rx="63.2" ry="4"/>
			<polygon id="_Path_26" class="st3" points="726.4,616.8 639,616.8 623.3,454.5 742.1,454.5 			"/>
			<g id="_Group_17">
				<polygon id="_Path_27" class="st4" points="723.7,613.8 641.8,613.8 627,454.5 738.4,454.5 				"/>
			</g>
			<rect id="_Rectangle_5" x="641" y="616.8" class="st3" width="83.5" height="3.2"/>
			<g id="_Group_18">
				<path id="_Path_28" class="st3" d="M627,454.5l1.5,15.9l0,0l0.3,3.1v0.4l0,0l0.2,2.3c0,0,17.8,6,33.4,0.1
					c2.9-1.1,32.8-8.6,38-2.8c1.5,1.6-3.5,7.1,10.4,7.3c8.7,0,17.4-1.5,25.5-4.6l0.2-2.4l0,0v-0.4l1.8-19L627,454.5z"/>
			</g>
			
				<rect id="_Rectangle_6" x="568" y="472.8" transform="matrix(8.958963e-02 -0.996 0.996 8.958963e-02 148.3218 1117.7537)" class="st9" width="235.1" height="9.8"/>
			<g id="_Group_19">
				<rect id="_Rectangle_7" x="618.5" y="443.5" class="st3" width="128.5" height="11"/>
			</g>
			<g id="_Group_20">
				<circle id="_Path_29" class="st3" cx="700.3" cy="499.7" r="1.9"/>
				<circle id="_Path_30" class="st3" cx="685" cy="513.5" r="1.9"/>
				<circle id="_Path_31" class="st3" cx="698.3" cy="506.5" r="1.9"/>
				<circle id="_Path_32" class="st3" cx="717.4" cy="518.1" r="1.9"/>
				<circle id="_Path_33" class="st3" cx="708.9" cy="521.4" r="1.9"/>
				<circle id="_Path_34" class="st3" cx="652.4" cy="513.5" r="1.9"/>
			</g>
			<g id="_Group_21">
				<circle id="_Path_35" class="st3" cx="670.4" cy="540.1" r="1.9"/>
				<circle id="_Path_36" class="st3" cx="685.7" cy="553.9" r="1.9"/>
				<circle id="_Path_37" class="st3" cx="672.4" cy="547" r="1.9"/>
				<circle id="_Path_38" class="st3" cx="653.3" cy="558.5" r="1.9"/>
				<circle id="_Path_39" class="st3" cx="661.8" cy="561.8" r="1.9"/>
				<circle id="_Path_40" class="st3" cx="718.3" cy="553.9" r="1.9"/>
			</g>
		</g>
		<g id="_Group_22">
			<ellipse class="st1" cx="275.6" cy="620.7" rx="65.6" ry="4.1"/>
			<g id="_Group_23">
				<path id="_Path_41" class="st3" d="M314.1,619.8h-78c-1.6,0-3-1.2-3.2-2.9l-14.7-152.6H332l-14.8,152.6
					C317.1,618.6,315.7,619.8,314.1,619.8z"/>
			</g>
			<g id="_Group_24">
				<polygon id="_Path_42" class="st7" points="325.5,571 332,502.3 218.2,502.3 224.7,571 				"/>
			</g>
			<g id="_Group_25">
				<path id="_Rectangle_8" class="st8" d="M213.8,452.6h122.6c0.9,0,1.6,0.7,1.6,1.6v8.4c0,0.9-0.7,1.6-1.6,1.6H213.8
					c-0.9,0-1.6-0.7-1.6-1.6v-8.4C212.2,453.3,212.9,452.6,213.8,452.6z"/>
			</g>
			<g id="_Group_26">
				<path id="_Path_43" class="st8" d="M326.9,443l-3.6-0.6l-99.8,8.1c-0.7,0.1-1.3,0.7-1.3,1.4v0.6h106v-8.1
					C328.1,443.7,327.6,443.1,326.9,443z"/>
			</g>
			<circle id="_Path_44" class="st3" cx="277.9" cy="535.7" r="22.4"/>
			<circle id="_Path_45" class="st3" cx="277.9" cy="535.7" r="19.8"/>
			<g id="_Group_27">
				<path id="_Path_46" class="st6" d="M280.5,543.5l-0.2-0.5c-0.4-0.6-0.5-1.3-0.3-2c-0.1-0.4-0.5-0.6-0.9-0.5
					c-1.3-2.3-3-4.5-4.4-7.2c0.2-0.5,0.2-1.1-0.1-1.6c-0.3-0.8-0.8-1.4-1.1-1.3l0,0c-0.6-1.9-0.9-3.8-1-5.7
					c-4.2,2.3-5.9,8.4-3.9,14.3c2.2,6.4,7.9,10.2,12.9,8.8C281.4,546.3,281,544.9,280.5,543.5z"/>
				<path id="_Path_47" class="st6" d="M273.9,524.1c0,0.7,0.1,1.3,0.2,1.9c-0.3,0.3-0.3,0.8,0,1.1c0.1,0.1,0.2,0.1,0.3,0.2
					c0.4,1.4,0.8,2.8,1.4,4.2c0.4,0.9,0.8,1.8,1.3,2.7c-0.1,0.5,0,1.1,0.3,1.5c0.4,0.7,0.9,1.2,1.2,1.1c1.1,1.9,2.1,3.8,3,5.8
					c0.1,0.3,0.2,0.6,0.3,0.9c-0.3,0.2-0.3,0.9,0,1.6c0.1,0.5,0.4,0.9,0.8,1.2c0.1,0.3,0.1,0.7,0.2,0.9c4.4-2.2,6.3-8.4,4.2-14.5
					C284.9,526.3,279,522.4,273.9,524.1z"/>
			</g>
		</g>
		<g id="_Group_28">
			<ellipse class="st1" cx="536.6" cy="620.7" rx="65.7" ry="4.1"/>
			<g id="_Group_29">
				<path id="_Path_48" class="st3" d="M575.1,619.8h-78c-1.6,0-3-1.2-3.2-2.9l-14.7-152.6H593l-14.8,152.6
					C578.1,618.6,576.7,619.8,575.1,619.8z"/>
			</g>
			<g id="_Group_30">
				<polygon id="_Path_49" class="st5" points="586.5,571 593,502.3 479.2,502.3 485.7,571 				"/>
			</g>
			<g id="_Group_31">
				<path id="_Rectangle_9" class="st9" d="M474.8,452.6h122.6c0.9,0,1.6,0.7,1.6,1.6v8.4c0,0.9-0.7,1.6-1.6,1.6H474.8
					c-0.9,0-1.6-0.7-1.6-1.6v-8.4C473.2,453.3,473.9,452.6,474.8,452.6z"/>
			</g>
			<g id="_Group_32">
				<path id="_Path_50" class="st9" d="M587.9,443l-3.7-0.6l-99.8,8.1c-0.7,0.1-1.3,0.7-1.3,1.4v0.6h106v-8.1
					C589.1,443.7,588.6,443.1,587.9,443z"/>
			</g>
			<circle id="_Path_51" class="st3" cx="538.9" cy="535.7" r="22.4"/>
			<circle id="_Path_52" class="st3" cx="538.9" cy="535.7" r="19.8"/>
			<g id="_Group_33">
				<path id="_Path_53" class="st6" d="M541.5,543.5l-0.2-0.5c-0.4-0.6-0.5-1.3-0.3-2c-0.1-0.4-0.5-0.6-0.9-0.5
					c-1.3-2.3-3-4.5-4.3-7.2c0.2-0.5,0.2-1.1-0.1-1.6c-0.3-0.8-0.8-1.4-1.1-1.3l0,0c-0.6-1.9-0.9-3.8-1-5.7
					c-4.2,2.3-5.9,8.4-3.9,14.3c2.2,6.4,7.9,10.2,12.9,8.8C542.4,546.3,542,544.9,541.5,543.5z"/>
				<path id="_Path_54" class="st6" d="M534.9,524.1c0,0.7,0.1,1.3,0.2,1.9c-0.3,0.3-0.3,0.8,0,1.1c0.1,0.1,0.2,0.1,0.3,0.2
					c0.4,1.4,0.8,2.8,1.4,4.2c0.4,0.9,0.8,1.8,1.3,2.7c-0.1,0.5,0,1.1,0.3,1.5c0.4,0.7,0.9,1.2,1.2,1.1c1.1,1.9,2.1,3.8,3,5.8
					c0.1,0.3,0.2,0.6,0.3,0.9c-0.3,0.2-0.3,0.9,0,1.6c0.1,0.5,0.4,0.9,0.8,1.2c0.1,0.3,0.1,0.7,0.2,0.9c4.4-2.2,6.3-8.4,4.2-14.5
					C545.9,526.3,540,522.4,534.9,524.1z"/>
			</g>
		</g>
		<g id="Layer_5">
			<ellipse class="st1" cx="617.3" cy="654" rx="42.5" ry="6.1"/>
			<path class="st4" d="M573.2,591.7l84.5,1.7l-8.4,57.5c0,0-30.8,14.7-63.4,0.8l-13.8-61.2"/>
			<line class="st10" x1="587.4" y1="603.2" x2="597.3" y2="655.5"/>
			<line class="st10" x1="604.5" y1="606" x2="609.5" y2="657.2"/>
			<line class="st10" x1="621.8" y1="605.8" x2="620.6" y2="657.4"/>
			<line class="st10" x1="636.2" y1="604.8" x2="632.3" y2="656.1"/>
			<line class="st10" x1="646.8" y1="601.5" x2="641" y2="654.1"/>
			<path class="st3" d="M579,600.2c0,0-19.3-11.4-1.3-23.2c0,0-0.1-26,27.9-24.8c0,0,16.8-13.4,28.3,4.4c0,0,19.4-2,16.9,17.2
				c0,0,20.9,11.4,2.7,25c0,0-5.1,4.7-27.4,7.4C626.1,606.2,593.7,607.7,579,600.2z"/>
			<circle class="st9" cx="621.5" cy="557.3" r="2.1"/>
			<circle class="st9" cx="622.5" cy="567.3" r="2.1"/>
			<circle class="st9" cx="634.5" cy="572.3" r="2.1"/>
			<circle class="st9" cx="643.5" cy="586.3" r="2.1"/>
			<circle class="st9" cx="625.5" cy="586.3" r="2.1"/>
			<circle class="st9" cx="614.5" cy="576.3" r="2.1"/>
			<circle class="st9" cx="609.5" cy="562.3" r="2.1"/>
			<circle class="st9" cx="593.5" cy="569.3" r="2.1"/>
			<circle class="st9" cx="602.5" cy="575.3" r="2.1"/>
			<circle class="st9" cx="599.5" cy="587.3" r="2.1"/>
			<circle class="st9" cx="592.5" cy="577.3" r="2.1"/>
			<circle class="st9" cx="616.5" cy="595.3" r="2.1"/>
			<path class="st11" d="M584.7,584.4c-2,4.8,0.2,10.4,5,12.5"/>
			<path class="st11" d="M636.7,586.5c2.8,4,1.8,9.4-2.2,12.2c-0.6,0.4-1.3,0.8-2.1,1.1"/>
			<path class="st11" d="M629.7,561.4c3.7-2,8.4-0.6,10.4,3.1"/>
			<path class="st11" d="M605.8,557.2c-4.4-1.9-9.5-0.3-12,3.8"/>
		</g>
	</g>
</g>
<g id="Layer_2-2">
	<g class="st12">
		<path d="M230,714c1.4-2.1,3.6-3.1,6.2-3.1c5.1,0,8.4,3.8,8.4,9.7c0,6-3.4,9.9-8.6,9.9c-2.6,0-4.9-0.9-6.2-3.2v2.7H227v-25.6h3.1
			V714z M229.9,720.8c0,4.4,2.2,7.1,5.8,7.1c3.4,0,5.7-2.9,5.7-7.3c0-4.4-2.2-7.2-5.7-7.2C231.5,713.5,229.9,717.1,229.9,720.8z"/>
		<path d="M256.1,730.6c-5.5,0-8.7-3.6-8.7-9.6c0-6,3.5-10.1,8.6-10.1c6.1,0,8.4,4.9,8.4,10.2v0.4h-14l0,0.2c0,4,2.2,6.3,5.8,6.3
			c2.7,0,4.1-1.2,5-4h3C263.3,728.4,260.5,730.6,256.1,730.6z M256,713.4c-3,0-5.1,2.2-5.5,5.7h10.8C261,715.5,259,713.4,256,713.4z
			"/>
		<path d="M276.1,706.9c-0.4-0.1-1.1-0.1-1.7-0.1c-1.9,0-2.3,0.4-2.3,2.5v2.1h3.6v2.5h-3.6V730H269v-16.1h-3.1v-2.5h3.1v-2.5
			c0-3.5,1.9-4.8,5.1-4.8c0.8,0,1.1,0,2,0.1V706.9z"/>
		<path d="M295.4,720.6c0,6.3-3.3,10-8.9,10c-5.7,0-9.1-3.7-9.1-9.8s3.5-9.9,9.1-9.9C292.1,710.9,295.4,714.4,295.4,720.6z
			 M280.6,720.7c0,4.6,2.2,7.3,5.9,7.3c3.6,0,5.8-2.7,5.8-7.3c0-4.4-2.2-7.2-5.8-7.2S280.6,716.3,280.6,720.7z"/>
	</g>
	<g class="st12">
		<path d="M308.7,714.1c-0.3,0-0.5,0-0.8,0c-5,0-5.9,3.9-5.9,8v7.8h-3.1v-18.6h2.9v4c1.3-3.1,3.6-4.4,6.9-4.4V714.1z"/>
	</g>
	<g class="st12">
		<path d="M318.1,730.6c-5.5,0-8.7-3.6-8.7-9.6c0-6,3.5-10.1,8.6-10.1c6.1,0,8.4,4.9,8.4,10.2v0.4h-14l0,0.2c0,4,2.2,6.3,5.8,6.3
			c2.7,0,4.1-1.2,5-4h3C325.3,728.4,322.5,730.6,318.1,730.6z M318,713.4c-3,0-5.1,2.2-5.5,5.7h10.8C323,715.5,321,713.4,318,713.4z
			"/>
	</g>
</g>
<g id="Layer_2_copy">
	<g class="st12">
		<path class="st13" d="M591.5,729.9c-0.6,0.3-1.4,0.4-2.1,0.4c-1.7,0-2.7-1-2.7-2.7c-1.8,2.1-3.9,3-6.7,3c-3.7,0-5.9-2-5.9-5.3
			c0-3.3,2.2-5.3,6.6-5.8c4.4-0.5,5.9-0.4,5.9-3c0-2-1.5-3.1-4.2-3.1c-2.8,0-4.3,1-4.6,3.8h-3c0.1-4,3-6.3,7.8-6.3
			c2.5,0,4.6,0.6,5.8,1.8c1.3,1.3,1.3,3.2,1.3,4.8c0,2.8-0.1,5.5-0.1,8.3c0,1.4,0.3,1.8,1.3,1.8c0.3,0,0.4,0,0.8-0.1V729.9z
			 M582.4,721.4c-2.2,0.3-5.3,0.5-5.3,3.5c0,1.9,1.4,3.1,3.7,3.1c2.9,0,5.7-2,5.7-4.4v-3.4C585.4,721.2,583.8,721.3,582.4,721.4z"/>
		<path class="st13" d="M602.7,706.9c-0.4-0.1-1.1-0.1-1.7-0.1c-1.9,0-2.3,0.4-2.3,2.5v2.1h3.6v2.5h-3.6V730h-3.1v-16.1h-3.1v-2.5
			h3.1v-2.5c0-3.5,1.9-4.8,5.1-4.8c0.8,0,1.1,0,2,0.1V706.9z"/>
		<path class="st13" d="M613,713.9h-3.7v10.8c0,1.7-0.1,2.7,2.1,2.7c0.6,0,1,0,1.7-0.1v2.6c-1,0.1-1.4,0.1-2.3,0.1
			c-4.6,0-4.4-2.3-4.4-6.4v-9.9h-3.1v-2.5h3.1v-5.5h3.1v5.5h3.7V713.9z"/>
		<path class="st13" d="M624.1,730.6c-5.5,0-8.7-3.6-8.7-9.6c0-6,3.5-10.1,8.6-10.1c6.1,0,8.4,4.9,8.4,10.2v0.4h-14l0,0.2
			c0,4,2.2,6.3,5.8,6.3c2.7,0,4.1-1.2,5-4h3C631.3,728.4,628.5,730.6,624.1,730.6z M623.9,713.4c-3,0-5.1,2.2-5.5,5.7h10.8
			C629,715.5,627,713.4,623.9,713.4z"/>
		<path class="st13" d="M645.4,714.1c-0.3,0-0.5,0-0.8,0c-5,0-5.9,3.9-5.9,8v7.8h-3.1v-18.6h2.9v4c1.3-3.1,3.6-4.4,6.9-4.4V714.1z"
			/>
	</g>
</g>
</svg>
