<svg version="1.1" id="Layer_1" xmlns="http://www.w3.org/2000/svg" x="0" y="0" viewBox="0 0 664.7 651.1" xml:space="preserve"><style>.st2{fill:#d8d8d8}.st2,.st3,.st4,.st5,.st6{stroke:#000;stroke-width:.5;stroke-miterlimit:10}.st3{fill:#848484}.st4{fill:#f2f2f2}.st5{fill:#353535}.st6{fill:#0077bf}.st7{fill:#848484}.st8{fill:none;stroke:#000;stroke-width:.5;stroke-miterlimit:10}.st9{fill:#353535}.st12{fill:#d3d3d3;stroke:#000;stroke-width:.5;stroke-miterlimit:10}</style><path d="M237.8 168.2S205.2 22.6 369.2 3.6c0 0 190.3-44.7 275 182.3 0 0 45.4 99.2 1.1 255.7 0 0-50.1 125.9-156.8 170 0 0-183.6 79-347.8 13.7 0 0-213.8-52.3-114.3-223.5 0 0 39.6-55.4 122.6-57-.1 0 128.4 6 88.8-176.6z" fill="#fff" id="Layer_7"/><ellipse cx="323.5" cy="587.5" rx="135.4" ry="16.5" fill="#ccc"/><path class="st2" d="M293 280.6h13.1c6.3 0 11.4 5.1 11.4 11.4 0 6.3-5.1 11.4-11.4 11.4H293c-6.3 0-11.4-5.1-11.4-11.4-.1-6.3 5-11.4 11.4-11.4z"/><path class="st3" d="M387.5 200.4l-3-.2c2.6-33.1-31-62.9-75.1-66.4s-82.1 20.5-84.7 53.6l-3-.2c2.8-34.8 42.2-60 88-56.4s80.6 34.9 77.8 69.6z"/><ellipse transform="rotate(-85.42 302.29 220.48)" class="st4" cx="302.3" cy="220.5" rx="70.1" ry="78.8"/><ellipse transform="rotate(-85.42 302.29 220.48)" class="st4" cx="302.3" cy="220.5" rx="70.1" ry="60.7"/><path class="st5" d="M269.3 191.5l69.6 5.6c12 1 21 11.5 20.1 23.5l-.1 1.6c-1 12-11.5 21-23.5 20.1l-69.6-5.6c-12-1-21-11.5-20.1-23.5l.1-1.6c.9-12.1 11.4-21.1 23.5-20.1z"/><circle class="st6" cx="324.1" cy="218.6" r="7.2"/><circle class="st6" cx="281.2" cy="215.2" r="7.2"/><path class="st3" d="M319.9 277.7c-2.5-.2-5.1-.5-7.8-1l.5-3c44.7 7.5 64.8-22.5 65-22.8l2.5 1.6c-.2.4-19 28.5-60.2 25.2z"/><path class="st7" d="M209.6 234.7c-3.8 1.3-8.2-1.8-9.1-7-2-11.7-1-23.7 2.8-35 1.7-4.9 6.5-7.3 10.1-5.4 3.5 1.9 4.9 6.3 3.6 10.1-3.1 9-3.8 18.6-2.2 28 .7 3.9-1.4 8-5.2 9.3z"/><path class="st8" d="M209.6 234.7c-3.8 1.3-8.2-1.8-9.1-7-2-11.7-1-23.7 2.8-35 1.7-4.9 6.5-7.3 10.1-5.4 3.5 1.9 4.9 6.3 3.6 10.1-3.1 9-3.8 18.6-2.2 28 .7 3.9-1.4 8-5.2 9.3z"/><path class="st9" d="M224.4 245.2c-5.2 1.8-11.4-2.5-12.6-9.7-2.7-16.3-1.4-33 3.9-48.6 2.3-6.9 9.1-10.1 14-7.6 4.9 2.6 6.8 8.8 5.1 14-4.2 12.5-5.3 25.8-3.1 38.8.9 5.5-2 11.3-7.3 13.1z"/><path class="st8" d="M224.4 245.2c-5.2 1.8-11.4-2.5-12.6-9.7-2.7-16.3-1.4-33 3.9-48.6 2.3-6.9 9.1-10.1 14-7.6 4.9 2.6 6.8 8.8 5.1 14-4.2 12.5-5.3 25.8-3.1 38.8.9 5.5-2 11.3-7.3 13.1z"/><path class="st7" d="M392.9 249.4c3.5 1.8 8.4-.5 10.1-5.4 3.8-11.3 4.8-23.3 2.8-35-.9-5.1-5.3-8.2-9.1-7-3.8 1.3-5.9 5.4-5.2 9.4 1.6 9.4.8 19-2.2 28-1.3 3.7.1 8.1 3.6 10z"/><path class="st8" d="M392.9 249.4c3.5 1.8 8.4-.5 10.1-5.4 3.8-11.3 4.8-23.3 2.8-35-.9-5.1-5.3-8.2-9.1-7-3.8 1.3-5.9 5.4-5.2 9.4 1.6 9.4.8 19-2.2 28-1.3 3.7.1 8.1 3.6 10z"/><path class="st9" d="M376.6 257.4c4.9 2.6 11.6-.7 14-7.5 5.3-15.6 6.6-32.3 3.9-48.6-1.2-7.1-7.4-11.4-12.6-9.7-5.2 1.8-8.1 7.5-7.2 13 2.2 13 1.1 26.4-3.1 38.9-1.8 5.1.1 11.3 5 13.9z"/><path class="st8" d="M376.6 257.4c4.9 2.6 11.6-.7 14-7.5 5.3-15.6 6.6-32.3 3.9-48.6-1.2-7.1-7.4-11.4-12.6-9.7-5.2 1.8-8.1 7.5-7.2 13 2.2 13 1.1 26.4-3.1 38.9-1.8 5.1.1 11.3 5 13.9z"/><path class="st5" d="M303.3 267.6l9.5.8c4.1.3 7.1 3.9 6.8 7.9-.3 4.1-3.9 7.1-7.9 6.8l-9.5-.8c-4.1-.3-7.1-3.9-6.8-7.9.3-4.1 3.8-7.1 7.9-6.8z"/><path class="st8" d="M276.6 253.7s22.2 14.9 46.9 3.8"/><path class="st6" d="M279.8 295.4h38.8c2.9 0 5.3 2.4 5.3 5.3v1c0 2.9-2.4 5.3-5.3 5.3h-38.8c-2.9 0-5.3-2.4-5.3-5.3v-1c-.1-2.9 2.3-5.3 5.3-5.3z"/><ellipse transform="rotate(-82.82 232.378 376.2)" class="st2" cx="232.4" cy="376.2" rx="31.1" ry="15.3"/><ellipse transform="rotate(-74.942 189.665 393.162)" class="st4" cx="189.7" cy="393.2" rx="17.7" ry="47.4"/><circle class="st4" cx="236.7" cy="344.4" r="13.6"/><ellipse class="st6" cx="244.3" cy="332.8" rx="19.2" ry="22"/><path class="st4" d="M337.3 398.1h-75.6c-6.6 0-9.8-5.1-12-12l-15.5-37.5c-8.5-20.6 5.7-44.1 28-45.1h74.4c22.3 1 36.5 24.4 28 45.1l-15.5 37.5c-2.3 7.3-5.2 12-11.8 12z"/><path class="st8" d="M231.9 338.5s14.5 12.3 56.9 12.3 80.5-13.2 80.5-13.2"/><ellipse class="st6" cx="355.7" cy="332.8" rx="19.2" ry="22"/><path d="M333.6 409.5c-22.5 2.6-45.3 2.6-67.8 0-3.8-.4-6.7-3.8-6.3-7.6v-.2c.6-3.8 4.1-6.4 7.9-6 21.4 2.5 43.1 2.5 64.6 0 3.8-.4 7.3 2.2 7.9 6 .5 3.8-2.3 7.3-6.1 7.8h-.2z" fill="#eb058c"/><path class="st8" d="M333.6 409.5c-22.5 2.6-45.3 2.6-67.8 0-3.8-.4-6.7-3.8-6.3-7.6v-.2c.6-3.8 4.1-6.4 7.9-6 21.4 2.5 43.1 2.5 64.6 0 3.8-.4 7.3 2.2 7.9 6 .5 3.8-2.3 7.3-6.1 7.8h-.2z"/><ellipse transform="rotate(-87.6 268.215 454.708) scale(.99998)" class="st6" cx="268.2" cy="454.7" rx="23.6" ry="19"/><path class="st4" d="M267 540.8c-12.9-.4-23-11.2-22.7-24.1l1.3-44.9c.4-12.9 11.2-23 24.1-22.7 12.9.4 23 11.2 22.7 24.1l.7 45.1c-.5 12.9-13.3 22.9-26.1 22.5z"/><path class="st2" d="M253.7 534.6l22.1 1.8c5.4.4 9.4 5.1 8.9 10.5-.4 5.4-5.1 9.4-10.5 8.9l-22.1-1.8c-5.4-.4-9.4-5.1-8.9-10.5.4-5.3 5.1-9.3 10.5-8.9z"/><path class="st4" d="M271.8 587.5c5.8 0 10.6-4.2 10.6-9.3v-5.8c0-11.9-14-21.7-31-21.7h-7.9c-17.1 0-31 9.8-31 21.7v5.8c0 5.1 4.7 9.3 10.6 9.3h48.7zm4.4-176.6h48.2c16.7 0 24.5 20.7 12 31.7l-28.2 19.6c-6.9 6.1-17.2 6.1-24.1 0l-20-19.6c-12.4-11.1-4.6-31.7 12.1-31.7z"/><ellipse class="st8" cx="291" cy="350.6" rx="30.1" ry="46.8"/><path class="st8" d="M312.1 397.3s4.4 5 0 13.6m-38.9-14.6s-4.4 5.6 0 13.9"/><ellipse transform="rotate(-75.67 351.671 374.339)" class="st2" cx="351.7" cy="374.3" rx="31.1" ry="15.3"/><circle class="st4" cx="359.4" cy="344.4" r="13.6"/><ellipse transform="rotate(-73.19 317.527 386.657)" class="st4" cx="317.5" cy="386.7" rx="17.7" ry="47.6"/><path class="st2" d="M163.2 382.9c-1.8 5.8-14.5 5.6-20.3 3.8-5.8-1.9-9-8.2-7.1-14 1.9-5.7 8-8.9 13.8-7.2 5.9 1.8 15.5 11.5 13.6 17.4z"/><path class="st6" d="M254.1 361.7c1-1.7 3.1-2.2 4.8-1.3l7.5 4.3c1.7 1 2.2 3.1 1.3 4.8-1 1.7-3.1 2.2-4.8 1.3l-7.5-4.3c-1.7-1-2.3-3.1-1.3-4.8z"/><path class="st6" d="M246.9 365.2l.1-.4c.4-1.5 1.9-2.4 3.5-2l7.6 1.9c1.5.4 2.4 1.9 2 3.5l-.1.4c-.4 1.5-1.9 2.4-3.5 2l-7.6-1.9c-1.5-.4-2.4-2-2-3.5z"/><path class="st6" d="M240.4 369.2l-.1-.3c-.6-1.5.2-3.1 1.6-3.7l5.8-2.2c1.5-.6 3.1.2 3.7 1.6l.1.3c.6 1.5-.2 3.1-1.6 3.7l-5.8 2.2c-1.5.7-3.1-.1-3.7-1.6z"/><path class="st6" d="M245.6 368.9c.5-1.9 2.4-3 4.2-2.5l8.4 2.1c1.9.5 3 2.4 2.5 4.2-.5 1.9-2.4 3-4.2 2.5l-8.4-2.1c-1.9-.5-3-2.4-2.5-4.2z"/><path class="st6" d="M238 373.6c-.7-1.8.2-3.8 2-4.5l6.3-2.4c1.8-.7 3.8.2 4.5 2 .7 1.8-.2 3.8-2 4.5l-6.3 2.4c-1.8.7-3.8-.2-4.5-2z"/><path class="st6" d="M248.5 373.7c.4-1.7 2.1-2.7 3.8-2.3l7.5 1.9c1.7.4 2.7 2.1 2.3 3.8-.4 1.7-2.1 2.7-3.8 2.3l-7.5-1.9c-1.8-.5-2.8-2.2-2.3-3.8z"/><path class="st6" d="M241.7 377.9c-.6-1.6.2-3.4 1.8-4l5.7-2.1c1.6-.6 3.4.2 4 1.8.6 1.6-.2 3.4-1.8 4l-5.7 2.1c-1.6.6-3.4-.2-4-1.8z"/><path class="st6" d="M250.5 378.4c.4-1.4 1.8-2.3 3.2-1.9l6.3 1.6c1.4.4 2.3 1.8 1.9 3.2-.4 1.4-1.8 2.3-3.2 1.9l-6.3-1.6c-1.4-.4-2.2-1.8-1.9-3.2z"/><path class="st6" d="M244.8 381.9c-.5-1.4.2-2.9 1.5-3.4l4.7-1.8c1.4-.5 2.9.2 3.4 1.5.5 1.4-.2 2.9-1.5 3.4l-4.7 1.8c-1.3.6-2.9-.1-3.4-1.5z"/><path class="st2" d="M282.2 380.9c-1.8 5.9-14.5 5.6-20.3 3.8-5.8-1.9-9-8.2-7.1-14 1.9-5.7 8-8.9 13.8-7.2 5.9 1.9 15.5 11.6 13.6 17.4z"/><path d="M122.4 339.6l33.8-96.2s142-45.4 180.3 146.2L221.6 423l-99.2-83.4z" opacity=".45" fill="#c0eaff"/><path class="st12" d="M122.2 331.6l2.4-4.2c.7-1.2 2-1.9 3.4-1.9l66.3 6.2c1.6.2 3 1.2 3.6 2.7l33.6 80.6c.5 1.1.4 2.4-.1 3.5-1.2 2.6-7.6 6.2-9.8 4.4l-99.2-83.3c-2.4-1.9-2.5-4-.2-8z"/><path class="st4" d="M193.5 420.3l-15.8-1.4c-1.3-.1-2.5-.8-3.3-1.9l-52.8-77.8c-1.4-2-.8-4.7 1.2-6.1.9-.6 1.9-.8 2.9-.7l63.9 6.6c1.6.2 2.9 1.2 3.6 2.6l32.7 75.5c1 2.2-.1 4.8-2.3 5.8-.7.3-1.4.4-2.2.3l-27.9-2.9"/><path class="st8" d="M195.9 333.6l-3.8 5.5"/><path class="st12" d="M185.1 349.6l-9.2-.8c-1.8-.1-3.3-1.6-3.3-3.4.1-1.7 1.5-2.9 3.2-2.8h.3l9.2.8c1.8.1 3.3 1.6 3.3 3.4-.1 1.7-1.5 2.9-3.2 2.8-.1.1-.2.1-.3 0z"/><ellipse transform="rotate(-72.908 180.504 346.045)" class="st5" cx="180.5" cy="346" rx="2.5" ry="2.8"/><ellipse transform="rotate(-72.908 180.504 346.045)" class="st6" cx="180.5" cy="346" rx="1.2" ry="1.4"/><path class="st6" d="M140.9 368.4l.1-.4c.4-1.5 1.9-2.4 3.5-2l7.6 1.9c1.5.4 2.4 1.9 2 3.5l-.1.4c-.4 1.5-1.9 2.4-3.5 2l-7.6-1.9c-1.5-.5-2.4-2-2-3.5z"/><path class="st6" d="M134.4 372.4l-.1-.3c-.6-1.5.2-3.1 1.6-3.7l5.8-2.2c1.5-.6 3.1.2 3.7 1.6l.1.3c.6 1.5-.2 3.1-1.6 3.7l-5.8 2.2c-1.5.6-3.1-.1-3.7-1.6z"/><path class="st6" d="M139.6 372.1c.5-1.9 2.4-3 4.2-2.5l8.4 2.1c1.9.5 3 2.4 2.5 4.2-.5 1.9-2.4 3-4.2 2.5l-8.4-2.1c-1.9-.5-3-2.4-2.5-4.2z"/><path class="st6" d="M132 376.7c-.7-1.8.2-3.8 2-4.5l6.3-2.4c1.8-.7 3.8.2 4.5 2 .7 1.8-.2 3.8-2 4.5l-6.3 2.4c-1.8.7-3.8-.2-4.5-2z"/><path class="st6" d="M142.4 376.8c.4-1.7 2.1-2.7 3.8-2.3l7.5 1.9c1.7.4 2.7 2.1 2.3 3.8-.4 1.7-2.1 2.7-3.8 2.3l-7.5-1.9c-1.7-.4-2.7-2.1-2.3-3.8z"/><path class="st6" d="M135.6 381c-.6-1.6.2-3.4 1.8-4l5.7-2.1c1.6-.6 3.4.2 4 1.8.6 1.6-.2 3.4-1.8 4l-5.7 2.1c-1.5.7-3.3-.1-4-1.8z"/><path class="st6" d="M144.5 381.6c.4-1.4 1.8-2.3 3.2-1.9l6.3 1.6c1.4.4 2.3 1.8 1.9 3.2-.4 1.4-1.8 2.3-3.2 1.9l-6.3-1.6c-1.4-.4-2.3-1.8-1.9-3.2z"/><path class="st6" d="M138.8 385.1c-.5-1.4.2-2.9 1.5-3.4l4.7-1.8c1.4-.5 2.9.2 3.4 1.5.5 1.4-.2 2.9-1.5 3.4l-4.7 1.8c-1.4.5-2.9-.1-3.4-1.5z"/><ellipse transform="rotate(-75.67 329.99 454.201)" class="st6" cx="330" cy="454.2" rx="23.6" ry="19"/><path class="st4" d="M342.5 543.4c-12.9 1-24.1-8.6-25.1-21.5l-3.5-44.8c-1-12.9 8.7-24.1 21.5-25.1 12.9-1 24.1 8.7 25.1 21.5l5.5 44.8c1 12.8-10.7 24.1-23.5 25.1z"/><path class="st2" d="M332.2 533.1l22.1 1.8c5.4.4 9.4 5.1 8.9 10.5-.4 5.4-5.1 9.4-10.5 8.9l-22.1-1.8c-5.4-.4-9.4-5.1-8.9-10.5.4-5.3 5.1-9.3 10.5-8.9z"/><path class="st4" d="M356.7 587.5c5.8 0 10.6-4.2 10.6-9.3v-5.8c0-11.9-14-21.7-31-21.7h-7.9c-17.1 0-31 9.8-31 21.7v5.8c0 5.1 4.7 9.3 10.6 9.3h48.7z"/><path d="M117.1 307.1h-7.9l1 10.7-13-10.7H39.8c-9.1 0-16.5-7.4-16.5-16.5v-43.7c0-9.1 7.4-16.5 16.5-16.5h77.3c9.1 0 16.5 7.4 16.5 16.5v43.7c0 9.1-7.4 16.5-16.5 16.5zm231.5-196.5h11.6l-1.5 15.8 19.2-15.8h194.9c13.5 0 24.4-11 24.4-24.4V61.7c0-13.5-10.9-24.4-24.4-24.4H348.6c-13.5 0-24.4 10.9-24.5 24.4v24.5c0 13.5 11 24.4 24.5 24.4z" fill="#ededed" stroke="#000" stroke-width=".5" stroke-miterlimit="10"/><path d="M61.1 253.7h34.6c3.1 0 5.7 2.6 5.7 5.7v22.3c0 3.1-2.6 5.7-5.7 5.7H61.1c-3.1 0-5.7-2.6-5.7-5.7v-22.3c0-3.2 2.6-5.7 5.7-5.7z" fill="#ffe600" stroke="#000" stroke-width=".5" stroke-miterlimit="10"/><path class="st8" d="M55.4 259.4l23 12.6 23-12.6"/><path class="st9" d="M364.6 81.7h-2.4v-8.3h-9.3v8.3h-2.3V64h2.3v7.4h9.3V64h2.3v17.7h.1zm15.3-6.5c0 4.3-2.3 6.9-6.2 6.9-3.9 0-6.3-2.5-6.3-6.8s2.4-6.8 6.3-6.8 6.2 2.5 6.2 6.7zm-10.3.1c0 3.2 1.5 5 4.1 5 2.5 0 4-1.9 4-5s-1.5-5-4-5-4.1 1.9-4.1 5zm14-6.4l2.9 10.6 2.6-10.6h2.3l2.7 10.6 2.9-10.6h2.2l-4.1 12.8h-2.2l-2.6-10.1-2.6 10.1h-2.3l-4.2-12.8h2.4zm30 13.2c-4 0-6.1-2.7-6.1-6.6 0-4.3 2.4-7 6.2-7 3.1 0 5.1 1.6 5.4 4.5h-2.2c-.4-1.8-1.5-2.8-3.2-2.8-2.4 0-4 1.9-4 5s1.4 5 3.8 5c1.9 0 3.2-1.2 3.5-3.3h2.1c-.3 3.2-2.3 5.2-5.5 5.2zm19.3-.4c-.4.2-1 .2-1.4.2-1.2 0-1.8-.7-1.9-1.9-1.3 1.4-2.7 2-4.6 2-2.5 0-4.1-1.4-4.1-3.6 0-2.3 1.5-3.6 4.5-4 3.1-.4 4.1-.3 4.1-2 0-1.4-1-2.1-2.9-2.1-2 0-3 .7-3.2 2.6h-2.1c.1-2.7 2.1-4.3 5.4-4.3 1.7 0 3.2.4 4 1.2.9.9.9 2.2.9 3.3 0 1.9-.1 3.8-.1 5.7 0 .9.2 1.3.9 1.3.2 0 .3 0 .5-.1v1.7zm-6.3-5.9c-1.5.2-3.6.4-3.6 2.4 0 1.3 1 2.1 2.6 2.1 2 0 3.9-1.4 3.9-3V75c-.8.6-1.9.7-2.9.8zm10.2-4.9c1.1-1.6 2.4-2.3 4.4-2.3 3.1 0 4.3 1.7 4.3 4.6v8.5h-2.1v-7.6c0-2-.1-3.8-2.8-3.8-2.8 0-3.7 2.1-3.7 4.6v6.7h-2.1V68.9h2v2zm21.6 10.8h-2.3V64h2.3v17.7zm12.7-11c.9-1.4 2.4-2.1 4.2-2.1 3.1 0 4.3 1.7 4.3 4.4v8.8h-2.1v-8.3c0-1.8-.5-3-2.8-3-2.7 0-3.6 1.9-3.6 4.8v6.5H469V64h2.1v6.7zm17 11.4c-3.8 0-6-2.5-6-6.7s2.4-7 6-7c4.2 0 5.8 3.4 5.8 7.1v.3h-9.7v.1c0 2.7 1.5 4.4 4 4.4 1.8 0 2.9-.8 3.5-2.7h2.1c-.7 3-2.6 4.5-5.7 4.5zm-.1-11.8c-2.1 0-3.5 1.5-3.8 3.9h7.5c-.2-2.5-1.6-3.9-3.7-3.9zm10.4 11.4h-2.2V64h2.1v17.7h.1zm5.2-11c1-1.6 2.4-2.2 4.3-2.2 3.6 0 5.8 2.6 5.8 6.7 0 4.2-2.2 6.8-5.7 6.8-1.9 0-3.2-.6-4.3-2.1v6.7h-2.1V68.9h2v1.8zm.1 4.6c0 3.1 1.5 5 4 5 2.4 0 3.9-1.9 3.9-5s-1.5-5-4-5c-2.4 0-3.9 1.8-3.9 5zm24.7 8.1c-.7 1.8-1.4 3.5-3.7 3.5-.5 0-1-.1-1.6-.2v-1.9c.7.2 1 .3 1.4.3.7 0 1.2-.5 1.5-1.1l1-2.3-5.1-12.8h2.4l3.8 10.2 3.6-10.2h2.2l-5.5 14.5zm19.1-8.2c0 4.3-2.3 6.9-6.2 6.9s-6.3-2.5-6.3-6.8 2.4-6.8 6.3-6.8 6.2 2.5 6.2 6.7zm-10.3.1c0 3.2 1.5 5 4.1 5 2.5 0 4-1.9 4-5s-1.5-5-4-5-4.1 1.9-4.1 5zm23.4 6.4h-2v-2c-1.1 1.6-2.5 2.4-4.4 2.4-2.7 0-4.3-1.5-4.3-4.3V69h2.1v8.3c0 1.8.5 3.1 2.7 3.1 2.8 0 3.8-2 3.8-4.6v-6.7h2.1v12.6zm8.6-18c3.2 0 5.2 1.9 5.2 4.8 0 1.9-.7 3-1.9 4.2-1.7 1.6-2.4 1.9-2.4 4.8h-2v-.1c0-3 .7-3.7 2.7-5.7 1.1-1.1 1.4-1.8 1.4-2.9 0-1.9-1.2-3.1-3-3.1-2.5 0-3.4 1.8-3.5 4h-2.1c0-3.4 1.8-6 5.6-6zm1.1 18h-2.6v-2.5h2.6v2.5z"/></svg>