<svg version="1.1" id="Layer_1" xmlns="http://www.w3.org/2000/svg" x="0" y="0" viewBox="0 0 888 869.8" xml:space="preserve"><style>.st1{fill:#bcbcbc}.st2{fill:#fff;stroke:#000;stroke-width:.5;stroke-miterlimit:10}.st3,.st4{fill:#1a1a1a}.st4,.st5,.st6,.st7,.st9{stroke:#000;stroke-width:.5;stroke-miterlimit:10}.st5{fill:#eb058c}.st6{fill:#c10072}.st7{fill:#848484}.st9{fill:none}</style><path d="M317.8 224.7S274.3 30.2 493.4 4.8c0 0 254.2-59.7 367.3 243.6 0 0 60.6 132.5 1.4 341.5 0 0-66.9 168.2-209.5 227.1 0 0-245.2 105.6-464.6 18.3 0 0-285.6-69.9-152.7-298.5 0 0 52.8-74 163.7-76.1 0 0 171.7 7.9 118.8-236z" fill="#fff" id="Layer_7"/><ellipse class="st1" cx="186.7" cy="770.6" rx="115.4" ry="18.2"/><ellipse class="st1" cx="416.7" cy="773.3" rx="102.1" ry="16.1"/><path class="st2" d="M305.3 482.5s6.2 7.9 9.7 10.7c6 5 3.9 9.6 0 7.6s-2.2-1.7-4.7 1.7-13.2 7.4-15.5 5.2-4.3-19.4-4.3-19.4l14.8-5.8z"/><path class="st2" d="M314.7 478.1s-20 12.6-21.8 15.9-6.1 12.3 2 13.7c8.1 1.4 12.3-7.4 15.5-5.2-1 1.1-2.1 2-3.4 2.7-1.8.9 5.3 1 8-4.4s6-17.2 6-17.2l-6.3-5.5z"/><path class="st2" d="M310.3 502.5s-1.5-9.6-5.1-10.4-14.9 4.7-10.3 15.5c5.7 1.2 11.6-.7 15.4-5.1z"/><g id="Layer_7-2"><path class="st3" d="M614.9 435l5.4 14.2-47 10.4-1.8-6.4z"/><path class="st4" d="M446.8 369.8s-3.5 28.6-28 44c-14.5 9.1-32.4 10.8-48.4 4.7 6-2 10-7.6 10.2-13.9 13-98.4 60.2-111 60.2-111s14.3-8.6 34.2-1.4c0 0 18.3 6 22 24.4 0 0 7 22.5-12.3 44.2-3.9 4.3-10.6 19-12.6 24.4l-41.2 5.7"/><path class="st2" d="M599.5 449.1c-1.2-.6-2.6-.7-3.9-.3-.4.1-.8.3-1.1.6-.8.7-1.8 1-2.8.8-.9-.2-1.8-.1-2.7.1-1.6.4-3.1 1.3-4.2 2.5-.9 1-1.9 1.7-3.1 2.2-1.6.9-2.2 3-1.2 4.6.9 1.6 3 2.2 4.6 1.2.5-.4 1.2-.6 1.9-.5h.3c.9 0 1.7-.4 2.4-1 .6-.7 1.6-.9 2.5-.7 1 .3 2.1.3 3.1-.1.6-.2 1.2-.5 1.6-1 .6-.7 1.6-1 2.5-.7s2 0 2.7-.6c1.6-1.9-.6-6.3-2.6-7.1z"/><path class="st2" d="M580.3 438c1.6-.2 3.1-.3 4.7-.1l5.5.6c3.6.7 6.2.6 8.3 3 3.3 3.8 7.7 9.5 5.6 11.2s-7.2-2.8-9.8-5.6c-.9-1-2.2-1.3-3.4-.8 0 0-11.2 10.2-16.2 4.1l-6.9 1.9-1.8-10.8 7.7-1.8c1.9-.8 4.1-1.4 6.3-1.7zM434.1 751.3c0-1.2.1-2.4.2-3.6l24.9-116.3c7.3-40.4 25.4-89 19.3-129.6-1.7-10.6-15.6-6.5-26.3-7.7l-9.5 5.9h-8.5l-1 125.8-11.3 123.6c0 .8-.1 1.7-.2 2.5"/><path class="st2" d="M342.7 759.5c.7-5.4 2.2-10.7 4.7-15.5 9.7-19.7 55.5-93.5 63.9-118.1 10.1-29.5 46.2-110 46-131.8l-31.5-16c-12.1-.6-18.5 5.8-22 17.3-5.2 17.3-14.6 57.1-25 118.3 0 0-9.6 28-16 48.7-5.7 18.2-21.4 66.4-24.8 81.8-.5 1.7-1.1 3.4-1.8 5-.9 1.8-2.2 3.3-3.9 4.4"/><path class="st5" d="M506.2 462.4l61.7-10-1.8-10.8-49.4-.4c-4.7 0-9-2.4-11.4-6.4l-27.7-44.2s-10-9.8-14.7-7.6-12.3 21.8-2.1 33.2c7.5 8.4 24.2 30.1 32.5 41 3 4 8 6 12.9 5.2z"/><path class="st5" d="M438.2 367.5c-44.1 12.6-32.1 26.4-32.1 26.4 3.6 6.1 6.1 12.7 7.4 19.7l6.7 36.7c.2 5.5-8.5 19.5-11.5 24.1l-6.3 9.8c-1 1.5-.6 3.4.9 4.4 16.1 10.8 46.3 19.9 71 18.6 2.4-.1 4.3-2.2 4.2-4.6 0-.3-.1-.6-.1-.8 0 0-.7-37-2-49.2-1.2-11-1.3-13.1 3.3-18 1.2-1.2 2.2-2.7 2.8-4.3 1.2-2.9 1.1-6.2-.3-9l-16.4-39.8-7.9-5.4"/><path class="st5" d="M342.4 428.2c1.2-2.5 2.9-4.8 5.1-6.5 17.5-14.2 51.3-41.6 67.1-44.2 5.5-.9 9.6 9 15.5 15.7 5.4 6-31.7 28.8-61 41.7-2.6 1.1-4.8 2.8-6.6 5l-41.4 43.7-6.2-5.4 27.5-50z"/><path class="st3" d="M419.5 750.8v22.3h3.3l2.4-9.4 5.9 9.4h32.8c-12.6-2.6-23.4-10.8-29.3-22.3h-15.1zm-88.7 0v22.3h3.3l2.4-9.4 5.9 9.4h32.8c-12.6-2.6-23.4-10.8-29.3-22.3h-15.1z"/><path class="st2" d="M461.1 378.4l.3-.8c-1.4-1.8-.6-4.4.4-6.5 1.2-2.8 2.6-5.5 4.2-8.1-3.4-5.1-8.1-9.2-13.6-12-1.9-1-3-.9-3.8 1s-1.2 3.6-2 5.3c-1.6 3.3-3.7 6.4-6.1 9.1-.2.2-.4.5-.5.9 0 .3.1.7.2.9 1.6 3.7 3.7 7.2 6 10.4.8 1 1.7 1.9 2.6 2.7 3.5 2.8 8.5 2.2 11.2-1.3.5-.4.8-1 1.1-1.6z"/><path class="st2" d="M454.7 359.5c5 4.1 11.4 7.8 17.8 6.4 4.7-1 8.4-4.7 11.2-8.7 2.8-4.4 5.1-9 7-13.8 1.4-2.9 2.5-6.1 3-9.3.5-4.6-.9-9.3-2.3-13.7-2.3-7.4-5-15.2-11.2-19.8-3.7-2.4-7.7-4.1-12-5-3.1-1-6.3-1.6-9.5-1.7-2.7.1-5.4.8-7.9 1.9-7.1 2.9-13 8.3-16.4 15.1-8.8 18.3 6.8 37.5 20.3 48.6z"/><path class="st3" d="M437.8 346.4s22.4-23.4 16.1-41.3c0 0 7.4 6.1 14.7 6.2 0 0 18.4 1.1 21.2 16.5 0 0 .6 9.2 3.4 13.6l2.2-6.8-1.4-15.1-11.2-18.9-13.6-8.5-16.8 1-12.8 6.3-11.8 20.6 4.2 18.4 5.8 8z"/><path class="st2" d="M453.8 329.4c.8.2 1.7.1 2.3-.5.6-.5 1.2-1.1 1.8-1.7.4-.4.9-.8 1.4-1.1.5-.3 1-.6 1.6-.8 1.5-.3 3.1.1 4.3 1.1 1.2 1 2.2 2.2 3 3.5m8.3-3.3l1.3-1.4c.9-1.2 2.3-2.1 3.8-2.4 1.3.1 2.5.4 3.6 1s2.5.5 3.6-.2m-21.6-2.1c-3.9-2.9-9.3-2.6-12.9.5m20.6-2.2c2.3-2.5 5.6-3.6 8.9-3m-10.4 25.7c1.2-.6 2.3-1.3 3.5-2.1.3-.2.5-.4.7-.7.3-.8.2-1.6-.3-2.3l-1.9-3.8m-5.1 21.4c.9.2 1.8.5 2.7.9.3.2.6.3.9.5 1.2.4 2.5-.6 3-1.7.4-1.2.6-2.5.8-3.7.3-1 .9-2 1.1-3 .1-.3.1-.6 0-.9-.3-.5-1-.6-1.5-.6-4 .5-7.9 1.7-11.4 3.8-.1.1-.3.1-.3.3-.4.7 1 2.2 1.5 2.7.8.8 2 1.4 3.2 1.7z"/><path class="st6" d="M476.5 357.1c-1.1.7-2.4.8-3.7.5-1.2-.3-2.4-.9-3.4-1.6-.8-.5-1.6-1.1-2.4-1.7-.6-.4-1.2-.9-1.7-1.5s-.7-1.3-.6-2c1.2 1.1 2.5 2 4 2.7 1.9 1 4.1 1.4 6.2 1.1.7-.1 1.8-.7 2.4 0s0 2.1-.8 2.5z"/><path class="st6" d="M479.4 345.6c-2.6-.8-5.3-.6-7.8.5-2.4 1.1-4.7 2.5-6.7 4.2-.1.1-.3.2-.2.4s.2.2.4.2c2.5.2 4.9-1.1 7.3-1.8 1.9-.6 4-.9 6-.7 1.5-.1 3.4-2 1-2.8z"/><ellipse transform="rotate(-22.913 462.635 327.676)" class="st4" cx="462.6" cy="327.7" rx="1.8" ry="2.3"/><ellipse transform="rotate(-22.913 482.061 325.076)" class="st4" cx="482.1" cy="325.1" rx="1.8" ry="2.3"/><path class="st5" d="M426.4 371.4s-12.7-3.9-15.1-.3.9 5 .9 5-7.1.5-4.6 6.5c2.2 5.3 5.9 1.9 5.9 1.9-1.4 2-1.1 4.8.6 6.5 1.7 1.9 4.4 2.4 6.6 1.1 0 0-.8 5.3 2.5 6.5s6.5-1.7 6.5-1.7-1.5 3.1 2.1 5.6 6.2-1.8 6.2-1.8c-.1 2.5 1.6 4.8 4 5.5 4.4 1.5 5.5-3 5.5-3s1.2 5.1 5.3 4.7c2.3 0 4.1-1.9 4.2-4.1 0 0 1.3 4.5 5.7 3.2s2.5-5 2.5-5 2.5 4.3 5.2 1.6 1.8-4.5 1.8-4.5 1.1 2.1 3.6.3 1.7-3.8 1.7-3.8 1.2.9 2.8-2.4-3.7-4.5-3.7-4.5 3.3-2.5 1-3.9-10.3-4-12.2-2.5c0 0-2.6 10.8-13.7 9.3s-25.3-20.2-25.3-20.2z"/></g><path class="st2" d="M200.4 318.3l12.4-14.2s9.2 11.8 13.7 11.6l-8.2 23c.1.1-18.6-12.1-17.9-20.4z"/><path class="st7" d="M214.4 485.1l42.2 120.1v151.6h-21.1l-14.9-140.7-45.7-94.2z"/><path class="st7" d="M214.4 485.1s-16.7 22.1-23.5 46.6c-6.8 24.5-8.5 94.8-8.5 94.8L134 756.8h-22.6l31.4-151.5-4.8-134.5 76.4 14.3z"/><path class="st2" d="M214.7 485.7l-76.7-15 13.2-86.5-25.6 29.6c-1.9 2.1-3 4.8-3.1 7.7l-4.2 70-13.9 2.7-4.9-82.1c-.2-2.8.6-5.6 2.1-7.9l51.9-78L199 310l18.5 18.4 9.2-5.8 19 30.3 14.5 59.6c.3 1.4.9 2.8 1.7 4l43.5 66-14.7 5.8-53.2-60.3c-1.1-1.3-2-2.7-2.5-4.3l-10.8-31.6-9.5 93.6z"/><path d="M155.6 325.3s2.5 46-7.5 62.5l-7.4 54.2 24.8 25.9 29-9.8 21.4 18.5 16.2-92.3 13.5-31.4-9.2-14.8-11.1 5.2-7.9-15-14 8.8-16.3-23.1-31.5 11.3z" fill="#0077bf" stroke="#000" stroke-width=".5" stroke-miterlimit="10"/><path class="st2" d="M104.2 494.1s-3 25.1 2.8 27.7c9.6 4.3 6.9-19.8 10.8-17.2 5.2 3.4 4.4-2.9.4-13.2l-14 2.7zm154-233.5c4 2.7 5 13.3 2.7 19.2s-7 15.8-5.1 17.6c.7.7 2.4 2 2.5 2.7.3 1.2-2.8 2.6-4.8 2.7-3.1.2-11.5 20.4-27.1 15.2s-23.9-20.1-20.6-33.7 15.2-48.7 52.4-23.7z"/><path class="st3" d="M224.6 239s9.8-8 21.2-1.6c11.4 6.4 23.6 24.9 28.6 23.6s4.6 11.9-1.1 13.5c-3.8 1-7.7 1.8-11.6 2.4 0 0-3.2-9.8-10.5-11.6-7.3-1.8-15.3-4.4-16.4-8 0 0-2.1 17.6-11.7 18.1-2.4.1-3.7-4.4-5-3.9-3.9 1.6-3.9 9.7-3.2 14 0 0-10.2 3.2-9.5 7.3s-8.3-3.7-7.6-17.6 11.5-39.4 26.8-36.2z"/><ellipse transform="rotate(-63.307 249.175 286.409)" class="st4" cx="249.2" cy="286.4" rx="2.7" ry="2.1"/><path class="st9" d="M240.6 300.9s.6 7.2 4.9 7m-6.9-8.3c.5-.7 1.2-1.1 2-1.1"/><path d="M244.5 278.4s6.6-1.1 10.8 1.6" fill="none" stroke="#000" stroke-miterlimit="10"/><path class="st3" d="M235 756.8v15.1h8.3v-3.7l5.1 3.7h38.2l-34-15.1zm-122 0v15.1h8.3v-3.7l5.1 3.7h38.3l-34.1-15.1z"/><path class="st9" d="M244.5 284.6c2.3-1.2 5.1-1.2 7.4 0"/><path d="M628.1 429.4l181.2-128.5s75.4 66.6 35.4 199.1l-211.6-54.8-5-15.8z" fill="#fffce3"/><path class="st2" d="M624.9 429.4l2.5-.8c.2-.1.5.1.6.3l5.2 16.7c.1.2-.1.5-.3.6l-2.5.8c-.2.1-.5-.1-.6-.3l-5.2-16.7c0-.2.1-.5.3-.6z"/><path d="M616.5 449.3l-4.3-13.9c-.4-1.3.3-2.1 1.6-3.1l8.7-4.7c1.3-.4 2.7.3 3.1 1.6l5.4 17.6c.4 1.3-.3 2.7-1.6 3.1l-9.9 1c-1.7-.1-2.6-.3-3-1.6z" fill="#ffe600" stroke="#000" stroke-width=".5" stroke-miterlimit="10"/></svg>