<svg version="1.1" id="Layer_1" xmlns="http://www.w3.org/2000/svg" xmlns:xlink="http://www.w3.org/1999/xlink" x="0" y="0" viewBox="0 0 802.1 655.8" xml:space="preserve"><style>.st0{fill:#fff}.st2,.st4{fill:#d8d8d8;stroke:#000;stroke-width:.5;stroke-miterlimit:10}.st4{fill:none}.st6{fill:#4c4c4c}.st11,.st12,.st9{stroke:#000;stroke-width:.5;stroke-miterlimit:10}.st9{fill:#f2f2f2}.st11{fill:#b5b5b5}.st12{fill:#969696}.st13{fill:#0077bf}.st14{fill:#a5a5a5}.st15,.st16{fill:#0077bf;stroke:#eaeaea;stroke-miterlimit:10}.st16{fill:#eaeaea;stroke:#eb058c}</style><path class="st0" d="M766.6 388.5C681 536.9 554.7 548.9 409.4 552.7c-108 2.8-283.3-30.3-346.8-96.9-95.3-99.9-68.8-211.4-7.1-229.3 46.5-13.5 66.5.8 132.1 4.2C389.5 241.2 355-.3 618.4 0 765.2.1 856 233.5 766.6 388.5z"/><ellipse cx="418.4" cy="529.1" rx="344.2" ry="93.7" fill="#bcbcbc"/><path class="st2" d="M304.1 250.3c-21.6 12.8-71.4 43.2-98.4 59.7-11.2 6.9-18.1 19.1-18.1 32.3v127.2c0 18.6 13.5 34.4 31.8 37.3l339 54.4c11.2 1.8 22.6-1.5 31.1-9l68.5-60.7c8.1-7.2 12.7-17.5 12.7-28.3v-161c0-20-15.5-36.5-35.5-37.7l-309.5-19.4c-7.6-.5-15.1 1.3-21.6 5.2z"/><defs><path id="SVGID_1_" d="M304.1 250.3c-21.6 12.8-71.4 43.2-98.4 59.7-11.2 6.9-18.1 19.1-18.1 32.3v127.2c0 18.6 13.5 34.4 31.8 37.3l339 54.4c11.2 1.8 22.6-1.5 31.1-9l68.5-60.7c8.1-7.2 12.7-17.5 12.7-28.3v-161c0-20-15.5-36.5-35.5-37.7l-309.5-19.4c-7.6-.5-15.1 1.3-21.6 5.2z"/></defs><clipPath id="SVGID_2_"><use xlink:href="#SVGID_1_" overflow="visible"/></clipPath><g clip-path="url(#SVGID_2_)"><path class="st0" d="M187.6 348.6s10.5-14.3 48.5-11.9 283.6 25.4 283.6 25.4 38.9 2.5 37.4 38.5 0 160.6 0 160.6l19 12.3V386.1s3.5-34-27.5-38c-27.4-3.5-278.6-28-335.9-33.6-10.4-1.1-20.5 3.7-26.2 12.5-3.9 6.1-5.3 13.7 1.1 21.6z"/></g><path class="st4" d="M576 559.8v-181c0-9.9 3.9-19.4 10.8-26.4l74-75.7"/><path d="M239.2 510V384.2c0-12.2 9.8-22 22-22 .8 0 1.6 0 2.3.1l244 24.9c11.3 1.1 19.8 10.6 19.8 21.9v147.1L239.2 510z" fill="#777"/><path class="st4" d="M239.2 510V384.2c0-12.2 9.8-22 22-22 .8 0 1.6 0 2.3.1l244 24.9c11.3 1.1 19.8 10.6 19.8 21.9v147.1M648 267.5l-65 63.4c-4.4 4.3-10.4 6.4-16.4 5.8l-310.4-29.8c-3.5-.3-6-3.4-5.7-6.8.2-1.8 1.1-3.5 2.7-4.6l72.4-50.5"/><path class="st6" d="M350.5 255.9c-7.5 4.5-42.2 26.6-59.3 37.5-1.8 1.2-2.3 3.5-1.2 5.3.6 1 1.7 1.7 2.9 1.8l235.3 21c3.3.3 6.5-.8 9-3l44.4-39.2c2.1-1.8 2.4-4.9.6-7-.9-1.1-2.2-1.7-3.6-1.8l-225.3-15.3c-.9-.1-1.9.2-2.8.7z"/><defs><path id="SVGID_3_" d="M350.5 255.9c-7.5 4.5-42.2 26.6-59.3 37.5-1.8 1.2-2.3 3.5-1.2 5.3.6 1 1.7 1.7 2.9 1.8l235.3 21c3.3.3 6.5-.8 9-3l44.4-39.2c2.1-1.8 2.4-4.9.6-7-.9-1.1-2.2-1.7-3.6-1.8l-225.3-15.3c-.9-.1-1.9.2-2.8.7z"/></defs><clipPath id="SVGID_4_"><use xlink:href="#SVGID_3_" overflow="visible"/></clipPath><g clip-path="url(#SVGID_4_)"><path fill="#7c7c7c" stroke="#606060" stroke-miterlimit="10" d="M327.1 270.6l241.6 20.3-33.3 36.9-265.7-25.6z"/></g><path class="st9" d="M308.8 302s35-97.5 90.5-116.2c57.8 12.7 180.1 8.7 200.8 14 0 0-100.4 93.1-71.7 121.8L308.8 302z"/><path class="st4" d="M320.8 274.6c-10.7 6.8-21.9 14-29.6 18.8-1.8 1.2-2.3 3.5-1.2 5.3.6 1 1.7 1.7 2.9 1.8l235.4 21c3.3.3 6.5-.8 9-3l44.4-39.2c2.1-1.8 2.4-4.9.6-7-.9-1.1-2.2-1.7-3.6-1.8l-38.7-2.6m96.9 10.3l-53.4-3M329 258.3l-20.2-1.5m15 56.6l-10.1 11 143.2 14.1 5.9-11.8m-223.6 91.5l288.1 37.6m-72.4-9.4v23.7l-133.3-19V429"/><path fill="#c1c1c1" stroke="#000" stroke-width=".5" stroke-miterlimit="10" d="M239.2 439l288.1 41.2v14.7l-288.1-43.8z"/><path class="st6" d="M321.6 463.7l-157 75.2 253.7 49.9 109-58.7v-35.2z"/><path class="st2" d="M527.3 530.1v14.5l-109.2 60.6-253.5-51.1v-15.2l253.7 49.9z"/><path class="st4" d="M418.3 588.8l-.2 16.4"/><path class="st9" d="M301.7 471.7l-109.9 46.8 68.3 13.9 98.5-51.2z"/><path class="st11" d="M260.1 532.4v16.7l-68.3-13.4v-17.2z"/><path class="st12" d="M358.6 481.2v12.3l-98.5 55.6v-16.7z"/><path class="st13" d="M304.7 480.4l26.1 4.1-73.4 35.6L225 514l79.7-33.6m-.7-5.1l-96.2 40.6 50.3 9.5 89.1-43.2-43.2-6.9z"/><ellipse class="st14" cx="308.6" cy="486.8" rx="6.3" ry="2.9"/><ellipse class="st15" cx="283.4" cy="498.4" rx="18.3" ry="8.5"/><ellipse class="st16" cx="283.4" cy="498.4" rx="12.7" ry="5.9"/><path class="st4" d="M355 486.8l-89.9 47.7m89.9-45.4l-89.9 49.5m89.9-46L265.1 542m-69.2-18l58.1 11.5m-58.1-7.4l58.1 11.4m-58.1-7.7l58.1 11.4m62.2-59.3l2.2 1.9-11.5-2.7m-1.1.6l3.2-1.6"/><ellipse transform="rotate(-77.151 309.373 486.343)" class="st4" cx="309.4" cy="486.4" rx="1.3" ry="6.5"/><ellipse transform="rotate(-77.151 304.6 488.242)" class="st4" cx="304.6" cy="488.3" rx="1.3" ry="6.5"/><ellipse class="st14" cx="256.7" cy="511.4" rx="6.3" ry="2.9"/><path class="st4" d="M264.3 508.4l2.2 1.9-11.5-2.7m-1.1.6l3.2-1.6"/><ellipse transform="rotate(-77.151 257.386 510.902)" class="st4" cx="257.4" cy="510.9" rx="1.3" ry="6.5"/><ellipse transform="rotate(-77.151 252.705 512.839)" class="st4" cx="252.7" cy="512.9" rx="1.3" ry="6.5"/><path class="st9" d="M382.6 487l-109.9 46.8 68.3 13.8 98.4-51.1z"/><path class="st11" d="M341 547.6v16.8L272.7 551v-17.2z"/><path class="st12" d="M439.4 496.5v12.3L341 564.4v-16.8z"/><path class="st13" d="M385.5 495.7l26.1 4.2-73.3 35.5-32.4-6.1 79.6-33.6m-.6-5.1l-96.2 40.6 50.3 9.5 89.1-43.2-43.2-6.9z"/><ellipse class="st14" cx="389.4" cy="502.1" rx="6.3" ry="2.9"/><ellipse class="st15" cx="364.3" cy="513.7" rx="18.3" ry="8.5"/><ellipse class="st16" cx="364.3" cy="513.7" rx="12.7" ry="5.9"/><path class="st4" d="M435.8 502.1l-89.9 47.7m89.9-45.4l-89.9 49.5m89.9-46l-89.9 49.4m-69.2-18l58.2 11.4m-58.2-7.4l58.2 11.5m-58.2-7.7l58.2 11.4m62.1-59.3l2.3 1.9-11.6-2.7m-1.1.5l3.3-1.5"/><ellipse transform="rotate(-77.151 390.137 501.544)" class="st4" cx="390.2" cy="501.6" rx="1.3" ry="6.5"/><ellipse transform="rotate(-77.151 385.5 503.572)" class="st4" cx="385.5" cy="503.6" rx="1.3" ry="6.5"/><ellipse class="st14" cx="337.5" cy="526.7" rx="6.3" ry="2.9"/><path class="st4" d="M345.1 523.7l2.3 1.9-11.6-2.7m-1.1.6l3.3-1.6"/><ellipse transform="rotate(-77.151 338.31 526.134)" class="st4" cx="338.3" cy="526.2" rx="1.3" ry="6.5"/><ellipse transform="rotate(-77.151 333.532 528.049)" class="st4" cx="333.5" cy="528.1" rx="1.3" ry="6.5"/><path class="st9" d="M462.7 502l-109.9 46.8 68.4 13.9 98.4-51.2z"/><path class="st11" d="M421.2 562.7v16.7L352.8 566v-17.2z"/><path class="st12" d="M519.6 511.5v12.3l-98.4 55.6v-16.7z"/><path class="st13" d="M465.7 510.7l26.1 4.2-73.4 35.5-32.4-6.1 79.7-33.6m-.7-5.1l-96.2 40.6 50.3 9.5 89.1-43.2-43.2-6.9z"/><ellipse class="st14" cx="469.6" cy="517.1" rx="6.3" ry="2.9"/><ellipse class="st15" cx="444.4" cy="528.7" rx="18.3" ry="8.5"/><ellipse class="st16" cx="444.4" cy="528.7" rx="12.7" ry="5.9"/><path class="st4" d="M516 517.1l-89.9 47.7m89.9-45.4l-89.9 49.5m89.9-46l-89.9 49.4m-69.2-18l58.2 11.5m-58.2-7.4l58.2 11.4m-58.2-7.7l58.2 11.4m62.1-59.3l2.2 1.9-11.5-2.7m-1.1.6l3.2-1.6"/><ellipse transform="rotate(-77.151 470.384 516.591)" class="st4" cx="470.4" cy="516.6" rx="1.3" ry="6.5"/><ellipse transform="rotate(-77.151 465.704 518.529)" class="st4" cx="465.7" cy="518.6" rx="1.3" ry="6.5"/><ellipse class="st14" cx="417.7" cy="541.7" rx="6.3" ry="2.9"/><path class="st4" d="M425.3 538.7l2.2 1.9-11.5-2.7m-1.1.6l3.2-1.6"/><ellipse transform="rotate(-77.151 418.409 541.082)" class="st4" cx="418.4" cy="541.1" rx="1.3" ry="6.5"/><ellipse transform="rotate(-77.151 413.729 543.02)" class="st4" cx="413.7" cy="543" rx="1.3" ry="6.5"/><path class="st9" d="M282.7 587.6l109.9 46.8-68.3 13.9-98.5-51.1z"/><path class="st13" d="M279.7 596.4l79.6 33.5-32.4 6.1-73.3-35.5 26.1-4.1m.6-5.2l-43.2 6.9 89.1 43.2 50.3-9.5-96.2-40.6z"/><ellipse class="st14" cx="275.8" cy="602.8" rx="6.3" ry="2.9"/><ellipse class="st15" cx="301" cy="614.4" rx="18.3" ry="8.5"/><ellipse class="st16" cx="301" cy="614.4" rx="12.7" ry="5.9"/><ellipse transform="rotate(-12.849 275.247 602.197)" class="st4" cx="275.3" cy="602.2" rx="6.5" ry="1.3"/><ellipse transform="rotate(-12.849 279.948 604.198)" class="st4" cx="280" cy="604.2" rx="6.5" ry="1.3"/><ellipse class="st14" cx="327.7" cy="627.3" rx="6.3" ry="2.9"/><path class="st4" d="M317.9 626.2l11.5-2.6-4.1-.1m-5.5 3.8l-3.3-1.8m-51-24.3l11.6-2.6-4.1-.1m-5.6 3.8l-3.2-1.9"/><ellipse transform="rotate(-12.849 327.147 626.799)" class="st4" cx="327.2" cy="626.8" rx="6.5" ry="1.3"/><ellipse transform="rotate(-12.849 331.847 628.696)" class="st4" cx="331.9" cy="628.7" rx="6.5" ry="1.3"/><path class="st9" d="M331.3 589.3l109.9 46.9-68.4 13.8-98.4-51.1z"/><path class="st13" d="M328.3 598.1l79.6 33.6-32.4 6.1-73.3-35.5 26.1-4.2m.6-5.2l-43.2 6.9 89.1 43.2 50.3-9.5-96.2-40.6z"/><ellipse class="st14" cx="324.4" cy="604.5" rx="6.3" ry="2.9"/><ellipse class="st15" cx="349.6" cy="616.1" rx="18.3" ry="8.5"/><ellipse class="st16" cx="349.6" cy="616.1" rx="12.7" ry="5.9"/><ellipse transform="rotate(-12.849 323.848 604)" class="st4" cx="323.9" cy="604" rx="6.5" ry="1.3"/><ellipse transform="rotate(-12.849 328.548 605.897)" class="st4" cx="328.6" cy="605.9" rx="6.5" ry="1.3"/><ellipse class="st14" cx="376.3" cy="629.1" rx="6.3" ry="2.9"/><path class="st4" d="M366.5 628l11.5-2.7-4.1-.1m-5.5 3.9l-3.2-1.9M314.1 603l11.6-2.7-4.1-.1M316 604l-3.2-1.8"/><ellipse transform="rotate(-12.849 375.747 628.497)" class="st4" cx="375.8" cy="628.5" rx="6.5" ry="1.3"/><ellipse transform="rotate(-12.849 380.448 630.5)" class="st4" cx="380.5" cy="630.5" rx="6.5" ry="1.3"/><path class="st9" d="M375.9 577.9l109.8 46.9-68.3 13.8-98.4-51.1z"/><path class="st11" d="M417.4 638.6v16.8l68.3-13.4v-17.2z"/><path class="st12" d="M319 587.5v12.3l98.4 55.6v-16.8z"/><path class="st13" d="M372.9 586.7l79.6 33.6-32.4 6.1-73.3-35.5 26.1-4.2m.6-5.2l-43.2 6.9 89.1 43.2 50.3-9.5-96.2-40.6z"/><ellipse class="st14" cx="369" cy="593.1" rx="6.3" ry="2.9"/><ellipse class="st15" cx="394.2" cy="604.7" rx="18.3" ry="8.5"/><ellipse class="st16" cx="394.2" cy="604.7" rx="12.7" ry="5.9"/><path class="st4" d="M322.6 593.1l89.9 47.7m-89.9-45.4l89.9 49.4m-89.9-46l89.9 49.5m69.2-18l-58.2 11.4m58.2-7.4l-58.2 11.5m58.2-7.8l-58.2 11.5"/><ellipse transform="rotate(-12.849 368.449 592.6)" class="st4" cx="368.5" cy="592.6" rx="6.5" ry="1.3"/><ellipse transform="rotate(-12.849 373.043 594.498)" class="st4" cx="373.1" cy="594.5" rx="6.5" ry="1.3"/><ellipse class="st14" cx="420.9" cy="617.7" rx="6.3" ry="2.9"/><path class="st4" d="M411 616.6l11.6-2.7-4.1-.1m-5.6 3.9l-3.2-1.9m-51-24.2l11.6-2.7-4.1-.1m-5.6 3.9l-3.2-1.9"/><ellipse transform="rotate(-12.849 420.348 617.097)" class="st4" cx="420.4" cy="617.1" rx="6.5" ry="1.3"/><ellipse transform="rotate(-12.849 424.944 619.1)" class="st4" cx="425" cy="619.1" rx="6.5" ry="1.3"/></svg>