<svg version="1.1" id="Layer_1" xmlns="http://www.w3.org/2000/svg" xmlns:xlink="http://www.w3.org/1999/xlink" x="0" y="0" viewBox="0 0 1000 1000" xml:space="preserve"><style>.st0{fill:#fff}.st2,.st4{fill:#d8d8d8;stroke:#000;stroke-width:.5;stroke-miterlimit:10}.st4{fill:none}.st6{fill:#4c4c4c}.st11,.st12,.st9{stroke:#000;stroke-width:.5;stroke-miterlimit:10}.st9{fill:#f2f2f2}.st11{fill:#b5b5b5}.st12{fill:#969696}.st13{fill:#0077bf}.st14{fill:#a5a5a5}.st15,.st16{fill:#0077bf;stroke:#eaeaea;stroke-miterlimit:10}.st16{fill:#eaeaea;stroke:#eb058c}</style><path class="st0" d="M857.2 549.6C771.6 698 645.3 710 500 713.8c-108 2.8-283.3-30.3-346.8-96.9-95.3-99.9-68.8-211.4-7.1-229.3 46.5-13.5 66.5.8 132.1 4.2 201.9 10.5 167.4-231 430.8-230.7 146.8.1 237.6 233.5 148.2 388.5z"/><ellipse cx="509" cy="690.2" rx="344.2" ry="93.7" fill="#bcbcbc"/><path class="st2" d="M394.7 411.4c-21.6 12.8-71.4 43.2-98.4 59.7-11.2 6.9-18.1 19.1-18.1 32.3v127.2c0 18.6 13.5 34.4 31.8 37.3l339 54.4c11.2 1.8 22.6-1.5 31.1-9l68.5-60.7c8.1-7.2 12.7-17.5 12.7-28.3v-161c0-20-15.5-36.5-35.5-37.7l-309.5-19.4c-7.6-.5-15.1 1.3-21.6 5.2z"/><defs><path id="SVGID_1_" d="M394.7 411.4c-21.6 12.8-71.4 43.2-98.4 59.7-11.2 6.9-18.1 19.1-18.1 32.3v127.2c0 18.6 13.5 34.4 31.8 37.3l339 54.4c11.2 1.8 22.6-1.5 31.1-9l68.5-60.7c8.1-7.2 12.7-17.5 12.7-28.3v-161c0-20-15.5-36.5-35.5-37.7l-309.5-19.4c-7.6-.5-15.1 1.3-21.6 5.2z"/></defs><clipPath id="SVGID_2_"><use xlink:href="#SVGID_1_" overflow="visible"/></clipPath><g clip-path="url(#SVGID_2_)"><path class="st0" d="M278.2 509.7s10.5-14.3 48.5-11.9 283.6 25.4 283.6 25.4 38.9 2.5 37.4 38.5 0 160.6 0 160.6l19 12.3V547.2s3.5-34-27.5-38c-27.4-3.5-278.6-28-335.9-33.6-10.4-1.1-20.5 3.7-26.2 12.5-3.9 6.1-5.3 13.7 1.1 21.6z"/></g><path class="st4" d="M666.6 720.9v-181c0-9.9 3.9-19.4 10.8-26.4l74-75.7"/><path d="M329.8 671.1V545.3c0-12.2 9.8-22 22-22 .8 0 1.6 0 2.3.1l244 24.9c11.3 1.1 19.8 10.6 19.8 21.9v147.1l-288.1-46.2z" fill="#777"/><path class="st4" d="M329.8 671.1V545.3c0-12.2 9.8-22 22-22 .8 0 1.6 0 2.3.1l244 24.9c11.3 1.1 19.8 10.6 19.8 21.9v147.1m120.7-288.7l-65 63.4c-4.4 4.3-10.4 6.4-16.4 5.8L346.8 468c-3.5-.3-6-3.4-5.7-6.8.2-1.8 1.1-3.5 2.7-4.6l72.4-50.5"/><path class="st6" d="M441.1 417c-7.5 4.5-42.2 26.6-59.3 37.5-1.8 1.2-2.3 3.5-1.2 5.3.6 1 1.7 1.7 2.9 1.8l235.3 21c3.3.3 6.5-.8 9-3l44.4-39.2c2.1-1.8 2.4-4.9.6-7-.9-1.1-2.2-1.7-3.6-1.8l-225.3-15.3c-.9-.1-1.9.2-2.8.7z"/><defs><path id="SVGID_3_" d="M441.1 417c-7.5 4.5-42.2 26.6-59.3 37.5-1.8 1.2-2.3 3.5-1.2 5.3.6 1 1.7 1.7 2.9 1.8l235.3 21c3.3.3 6.5-.8 9-3l44.4-39.2c2.1-1.8 2.4-4.9.6-7-.9-1.1-2.2-1.7-3.6-1.8l-225.3-15.3c-.9-.1-1.9.2-2.8.7z"/></defs><clipPath id="SVGID_4_"><use xlink:href="#SVGID_3_" overflow="visible"/></clipPath><g clip-path="url(#SVGID_4_)"><path fill="#7c7c7c" stroke="#606060" stroke-miterlimit="10" d="M417.7 431.7L659.3 452 626 488.9l-265.7-25.6z"/></g><path class="st9" d="M399.4 463.1s35-97.5 90.5-116.2c57.8 12.7 180.1 8.7 200.8 14 0 0-100.4 93.1-71.7 121.8l-219.6-19.6z"/><path class="st4" d="M411.4 435.7c-10.7 6.8-21.9 14-29.6 18.8-1.8 1.2-2.3 3.5-1.2 5.3.6 1 1.7 1.7 2.9 1.8l235.4 21c3.3.3 6.5-.8 9-3l44.4-39.2c2.1-1.8 2.4-4.9.6-7-.9-1.1-2.2-1.7-3.6-1.8l-38.7-2.6m96.9 10.3l-53.4-3m-254.5-16.9l-20.2-1.5m15 56.6l-10.1 11 143.2 14.1 5.9-11.8m-223.6 91.5l288.1 37.6m-72.4-9.4v23.7l-133.3-19v-22.1"/><path fill="#c1c1c1" stroke="#000" stroke-width=".5" stroke-miterlimit="10" d="M329.8 600.1l288.1 41.2V656l-288.1-43.8z"/><path class="st6" d="M412.2 624.8l-157 75.2 253.7 49.9 109-58.7V656z"/><path class="st2" d="M617.9 691.2v14.5l-109.2 60.6-253.5-51.1V700l253.7 49.9z"/><path class="st4" d="M508.9 749.9l-.2 16.4"/><path class="st9" d="M392.3 632.8l-109.9 46.8 68.3 13.9 98.5-51.2z"/><path class="st11" d="M350.7 693.5v16.7l-68.3-13.4v-17.2z"/><path class="st12" d="M449.2 642.3v12.3l-98.5 55.6v-16.7z"/><path class="st13" d="M395.3 641.5l26.1 4.1-73.4 35.6-32.4-6.1 79.7-33.6m-.7-5.1L298.4 677l50.3 9.5 89.1-43.2-43.2-6.9z"/><ellipse class="st14" cx="399.2" cy="647.9" rx="6.3" ry="2.9"/><ellipse class="st15" cx="374" cy="659.5" rx="18.3" ry="8.5"/><ellipse class="st16" cx="374" cy="659.5" rx="12.7" ry="5.9"/><path class="st4" d="M445.6 647.9l-89.9 47.7m89.9-45.4l-89.9 49.5m89.9-46l-89.9 49.4m-69.2-18l58.1 11.5m-58.1-7.4l58.1 11.4m-58.1-7.7l58.1 11.4m62.2-59.3l2.2 1.9-11.5-2.7m-1.1.6l3.2-1.6"/><ellipse transform="rotate(-77.151 399.813 647.421)" class="st4" cx="399.8" cy="647.5" rx="1.3" ry="6.5"/><ellipse transform="rotate(-77.151 395.123 649.368)" class="st4" cx="395.1" cy="649.4" rx="1.3" ry="6.5"/><ellipse class="st14" cx="347.3" cy="672.5" rx="6.3" ry="2.9"/><path class="st4" d="M354.9 669.5l2.2 1.9-11.5-2.7m-1.1.6l3.2-1.6"/><ellipse transform="rotate(-77.151 347.898 671.968)" class="st4" cx="347.9" cy="672" rx="1.3" ry="6.5"/><ellipse transform="rotate(-77.151 343.218 673.914)" class="st4" cx="343.2" cy="673.9" rx="1.3" ry="6.5"/><path class="st9" d="M473.2 648.1l-109.9 46.8 68.3 13.8 98.4-51.1z"/><path class="st11" d="M431.6 708.7v16.8l-68.3-13.4v-17.2z"/><path class="st12" d="M530 657.6v12.3l-98.4 55.6v-16.8z"/><path class="st13" d="M476.1 656.8l26.1 4.2-73.3 35.5-32.4-6.1 79.6-33.6m-.6-5.1l-96.2 40.6 50.3 9.5 89.1-43.2-43.2-6.9z"/><ellipse class="st14" cx="480" cy="663.2" rx="6.3" ry="2.9"/><ellipse class="st15" cx="454.9" cy="674.8" rx="18.3" ry="8.5"/><ellipse class="st16" cx="454.9" cy="674.8" rx="12.7" ry="5.9"/><path class="st4" d="M526.4 663.2l-89.9 47.7m89.9-45.4L436.5 715m89.9-46l-89.9 49.4m-69.2-18l58.2 11.4m-58.2-7.4l58.2 11.5m-58.2-7.7l58.2 11.4m62.1-59.3l2.3 1.9-11.6-2.7m-1.1.5l3.3-1.5"/><ellipse transform="rotate(-77.151 480.669 662.706)" class="st4" cx="480.7" cy="662.7" rx="1.3" ry="6.5"/><ellipse transform="rotate(-77.151 475.977 664.663)" class="st4" cx="476" cy="664.7" rx="1.3" ry="6.5"/><ellipse class="st14" cx="428.1" cy="687.8" rx="6.3" ry="2.9"/><path class="st4" d="M435.7 684.8l2.3 1.9-11.6-2.7m-1.1.6l3.3-1.6"/><ellipse transform="rotate(-77.151 428.752 687.263)" class="st4" cx="428.8" cy="687.3" rx="1.3" ry="6.5"/><ellipse transform="rotate(-77.151 424.072 689.209)" class="st4" cx="424.1" cy="689.2" rx="1.3" ry="6.5"/><path class="st9" d="M553.3 663.1l-109.9 46.8 68.4 13.9 98.4-51.2z"/><path class="st11" d="M511.8 723.8v16.7l-68.4-13.4v-17.2z"/><path class="st12" d="M610.2 672.6v12.3l-98.4 55.6v-16.7z"/><path class="st13" d="M556.3 671.8l26.1 4.2-73.4 35.5-32.4-6.1 79.7-33.6m-.7-5.1l-96.2 40.6 50.3 9.5 89.1-43.2-43.2-6.9z"/><ellipse class="st14" cx="560.2" cy="678.2" rx="6.3" ry="2.9"/><ellipse class="st15" cx="535" cy="689.8" rx="18.3" ry="8.5"/><ellipse class="st16" cx="535" cy="689.8" rx="12.7" ry="5.9"/><path class="st4" d="M606.6 678.2l-89.9 47.7m89.9-45.4L516.7 730m89.9-46l-89.9 49.4m-69.2-18l58.2 11.5m-58.2-7.4l58.2 11.4m-58.2-7.7l58.2 11.4m62.1-59.3l2.2 1.9-11.5-2.7m-1.1.6l3.2-1.6"/><ellipse transform="rotate(-77.151 560.829 677.72)" class="st4" cx="560.9" cy="677.8" rx="1.3" ry="6.5"/><ellipse transform="rotate(-77.151 556.15 679.666)" class="st4" cx="556.2" cy="679.7" rx="1.3" ry="6.5"/><ellipse class="st14" cx="508.3" cy="702.8" rx="6.3" ry="2.9"/><path class="st4" d="M515.9 699.8l2.2 1.9-11.5-2.7m-1.1.6l3.2-1.6"/><ellipse transform="rotate(-77.151 508.934 702.268)" class="st4" cx="509" cy="702.3" rx="1.3" ry="6.5"/><ellipse transform="rotate(-77.151 504.255 704.215)" class="st4" cx="504.3" cy="704.2" rx="1.3" ry="6.5"/><path class="st9" d="M373.3 748.7l109.9 46.8-68.3 13.9-98.5-51.1z"/><path class="st13" d="M370.3 757.5l79.6 33.5-32.4 6.1-73.3-35.5 26.1-4.1m.6-5.2l-43.2 6.9 89.1 43.2 50.3-9.5-96.2-40.6z"/><ellipse class="st14" cx="366.4" cy="763.9" rx="6.3" ry="2.9"/><ellipse class="st15" cx="391.6" cy="775.5" rx="18.3" ry="8.5"/><ellipse class="st16" cx="391.6" cy="775.5" rx="12.7" ry="5.9"/><ellipse transform="rotate(-12.849 365.783 763.334)" class="st4" cx="365.8" cy="763.3" rx="6.5" ry="1.3"/><ellipse transform="rotate(-12.849 370.47 765.284)" class="st4" cx="370.5" cy="765.3" rx="6.5" ry="1.3"/><ellipse class="st14" cx="418.3" cy="788.4" rx="6.3" ry="2.9"/><path class="st4" d="M408.5 787.3l11.5-2.6-4.1-.1m-5.5 3.8l-3.3-1.8m-51-24.3l11.6-2.6-4.1-.1m-5.6 3.8l-3.2-1.9"/><ellipse transform="rotate(-12.849 417.683 787.886)" class="st4" cx="417.7" cy="787.9" rx="6.5" ry="1.3"/><ellipse transform="rotate(-12.849 422.37 789.837)" class="st4" cx="422.4" cy="789.8" rx="6.5" ry="1.3"/><path class="st9" d="M421.9 750.4l109.9 46.9-68.4 13.8L365 760z"/><path class="st13" d="M418.9 759.2l79.6 33.6-32.4 6.1-73.3-35.5 26.1-4.2m.6-5.2l-43.2 6.9 89.1 43.2 50.3-9.5-96.2-40.6z"/><ellipse class="st14" cx="415" cy="765.6" rx="6.3" ry="2.9"/><ellipse class="st15" cx="440.2" cy="777.2" rx="18.3" ry="8.5"/><ellipse class="st16" cx="440.2" cy="777.2" rx="12.7" ry="5.9"/><ellipse transform="rotate(-12.849 414.371 765.064)" class="st4" cx="414.4" cy="765.1" rx="6.5" ry="1.3"/><ellipse transform="rotate(-12.849 419.057 767.014)" class="st4" cx="419.1" cy="767" rx="6.5" ry="1.3"/><ellipse class="st14" cx="466.9" cy="790.2" rx="6.3" ry="2.9"/><path class="st4" d="M457.1 789.1l11.5-2.7-4.1-.1m-5.5 3.9l-3.2-1.9m-51.1-24.2l11.6-2.7-4.1-.1m-5.6 3.8l-3.2-1.8"/><ellipse transform="rotate(-12.849 466.271 789.616)" class="st4" cx="466.3" cy="789.6" rx="6.5" ry="1.3"/><ellipse transform="rotate(-12.849 470.967 791.564)" class="st4" cx="471" cy="791.6" rx="6.5" ry="1.3"/><path class="st9" d="M466.5 739l109.8 46.9-68.3 13.8-98.4-51.1z"/><path class="st11" d="M508 799.7v16.8l68.3-13.4v-17.2z"/><path class="st12" d="M409.6 748.6v12.3l98.4 55.6v-16.8z"/><path class="st13" d="M463.5 747.8l79.6 33.6-32.4 6.1-73.3-35.5 26.1-4.2m.6-5.2l-43.2 6.9 89.1 43.2 50.3-9.5-96.2-40.6z"/><ellipse class="st14" cx="459.6" cy="754.2" rx="6.3" ry="2.9"/><ellipse class="st15" cx="484.8" cy="765.8" rx="18.3" ry="8.5"/><ellipse class="st16" cx="484.8" cy="765.8" rx="12.7" ry="5.9"/><path class="st4" d="M413.2 754.2l89.9 47.7m-89.9-45.4l89.9 49.4m-89.9-46l89.9 49.5m69.2-18l-58.2 11.4m58.2-7.4l-58.2 11.5m58.2-7.8l-58.2 11.5"/><ellipse transform="rotate(-12.849 458.959 753.663)" class="st4" cx="459" cy="753.7" rx="6.5" ry="1.3"/><ellipse transform="rotate(-12.849 463.648 755.623)" class="st4" cx="463.6" cy="755.6" rx="6.5" ry="1.3"/><ellipse class="st14" cx="511.5" cy="778.8" rx="6.3" ry="2.9"/><path class="st4" d="M501.6 777.7l11.6-2.7-4.1-.1m-5.6 3.9l-3.2-1.9m-51-24.2l11.6-2.7-4.1-.1m-5.6 3.9l-3.2-1.9"/><ellipse transform="rotate(-12.849 510.86 778.215)" class="st4" cx="510.9" cy="778.2" rx="6.5" ry="1.3"/><ellipse transform="rotate(-12.849 515.545 780.164)" class="st4" cx="515.5" cy="780.2" rx="6.5" ry="1.3"/></svg>