<svg version="1.1" id="Layer_1" xmlns="http://www.w3.org/2000/svg" x="0" y="0" viewBox="0 0 577.9 677.5" xml:space="preserve"><style>.st1{fill:#bcbcbc}.st3{fill:#a1e4ff}.st4{fill:#eb058c}.st5{opacity:.6;fill:#fff;enable-background:new}.st6{fill:none;stroke:#000;stroke-width:.5;stroke-miterlimit:10}.st7{fill:#0077bf}.st9{fill:#ffe600}.st10,.st11{fill:#1a1a1a;stroke:#000;stroke-width:.5;stroke-miterlimit:10}.st11{fill:#fff}.st12{fill:#1a1a1a}.st18,.st21{stroke:#000;stroke-width:.5;stroke-miterlimit:10;fill:#0077bf}.st21{fill:#bfbfbf}</style><g id="Layer_1_1_"><path d="M189.6 667.8c140.5 9.4 222.1-37.7 271.9-92.1 60.2-65.7 104.8-181.7 105-229.2.3-128.5-17.7-164.7-47.7-213.9C403.1-57 231.3 31.7 231.3 31.7 127.8 79.3 106.2 160.5 118.9 207.3c42.6 156.4-47.4 189.3-47.4 189.3s-85.9 42.2-54.3 155.5c30.2 108.7 172.4 115.7 172.4 115.7z" fill="#fff" id="Layer_7"/><path class="st1" d="M384.6 305.1l116.2-12.4 11.3 19.3H392.9zm0-73.3l116.2-12.4 11.3 19.3H392.9z"/><ellipse class="st1" cx="315.6" cy="646.6" rx="208.8" ry="15.7"/><path d="M384.6 292.7h116.2v12.4H384.6zm0-73.2h116.2v12.4H384.6z" fill="#d8d8d8" stroke="#000" stroke-width=".5" stroke-miterlimit="10"/><path class="st3" d="M445.6 209.4c-3.1-4.8-6.5-9.4-10.3-13.6-.1-.2-.2-.4-.2-.6v-14.5c0-.5.4-.9.8-.9h1.2c.9-.2 1.4-1.2 1.2-2.1-.2-.6-.6-1-1.2-1.2h-13.4c-.9.2-1.4 1.2-1.2 2.1.2.6.6 1 1.2 1.2h1.6c.5 0 .9.4.9.9v14.5c0 .2-.1.4-.2.6-4 4.2-7.5 8.8-10.7 13.7 2.6-.1 5.2-.1 7.8-.1h22.5z"/><path class="st4" d="M423 209.4c-2.6 0-5.2.1-7.8.1-1.4 2.3-2.3 4.3-2.3 5.7 0 1.8 1.1 4 6 4H442c5 0 6-2.2 6-4 0-1.4-.9-3.5-2.3-5.9l-22.7.1z"/><path class="st5" d="M434.6 216.3c5.5 1.2 13.7-.5 6.2-10.1s-8.6-3.3-6.2 0c3.8 5.2-4.3 9.3 0 10.1z"/><path class="st6" d="M445.6 209.4c-3.1-4.8-6.5-9.4-10.3-13.6-.1-.2-.2-.4-.2-.6v-14.5c0-.5.4-.9.8-.9h1.2c.9-.2 1.4-1.2 1.2-2.1-.2-.6-.6-1-1.2-1.2h-13.4c-.9.2-1.4 1.2-1.2 2.1.2.6.6 1 1.2 1.2h1.6c.5 0 .9.4.9.9v14.5c0 .2-.1.4-.2.6-4 4.2-7.5 8.8-10.7 13.7-1.4 2.3-2.3 4.3-2.3 5.7 0 1.8 1.1 4 6 4h23.1c5 0 6-2.2 6-4-.1-1.4-1.1-3.5-2.5-5.8z"/><path class="st7" d="M404.8 285.4c.3 5 6.2 6.1 8 6.4 3.1.4 6.3.7 9.4.7h.9c3.1 0 6.3-.2 9.4-.7 1.8-.2 7.7-1.4 8-6.4 0-.7 0-3.3-.1-6.4-11.8 0-23.7-.2-35.5-.5-.1 3.3-.1 6.2-.1 6.9z"/><path class="st3" d="M437.9 265.4c-.2-.2-.3-.5-.2-.8s.4-.5.7-.5c.5.1 1-.3 1.1-.9 0-.4-.1-.7-.5-1-.2-.1-.3-.4-.3-.6s.1-.4.3-.6.4-.5.4-.8c0-.6-.4-1-1-1H407c-.5-.1-1.1.3-1.1.8-.1.4.1.8.5 1 .2.1.3.4.3.6s-.1.4-.3.6c-.2.2-.4.5-.4.8 0 .6.4 1 1 1 .4 0 .8.4.7.8 0 .2-.1.4-.2.5-1 .8-1.6 1.9-1.9 3.1-.3 2-.6 6.3-.7 10.1 11.9.3 23.7.5 35.5.5-.1-3.9-.4-8.5-.7-10.6-.2-1.1-.9-2.2-1.8-3z"/><path d="M440.8 261.5c.6-.4.9-1.1.9-1.8 0-1.1-.8-2-1.9-2.1h-34.3c-1.1.1-1.9 1-1.9 2.1 0 .7.3 1.4.9 1.8-.6.4-.9 1-.9 1.8 0 1.1.8 2 1.9 2.1h34.3c1.1-.1 1.9-1 1.9-2.1 0-.7-.3-1.4-.9-1.8z" fill="#353535"/><path class="st5" d="M437.4 267.6c-.2-.9-.7-1.8-1.3-2.4-.1-.1-.1-.1-.1-.2-.1 0-.2.1-.3.1-4.3 2.9-.9 8.2-1.7 12.7 0 1.3-.9 2.2-1.4 3.5-.5 2.2.4 3.5 1.8 4 2.1-.6 3.6-2.3 3.7-4.5 0-.5 0-2.6-.1-5-.2-3-.4-6.6-.6-8.2z"/><path class="st6" d="M440.8 261.5c.6-.4.9-1.1.9-1.8 0-1.1-.8-2-1.9-2.1h-34.3c-1.1.1-1.9 1-1.9 2.1 0 .7.3 1.4.9 1.8-.6.4-.9 1-.9 1.8 0 1.1.8 2 1.9 2.1h2.1l-.1.1c-1 .8-1.6 1.9-1.9 3.1-.3 2-.6 6.3-.7 10.1-.1 3.2-.1 6.1-.1 6.8.3 5 6.2 6.1 8 6.4 3.1.4 6.3.7 9.4.7h.9c3.1 0 6.3-.2 9.4-.7 1.8-.2 7.7-1.4 8-6.4 0-.7 0-3.3-.1-6.4-.1-3.9-.4-8.5-.7-10.6-.3-1.2-.9-2.3-1.9-3.1l-.1-.1h2c1.1-.1 1.9-1 1.9-2.1.1-.6-.2-1.3-.8-1.7z"/><path class="st3" d="M479 272.1c-1.6-4.3-5.2-7.5-9.5-8.8-.2-.1-.4-.3-.4-.5v-11.5c0-.3.2-.5.5-.5h1c.8-.2 1.4-1 1.2-1.8-.1-.6-.6-1.1-1.2-1.2h-11c-.8.2-1.4 1-1.2 1.8.1.6.6 1.1 1.2 1.2h1.3c.3 0 .5.2.5.5v11.4c0 .2-.2.4-.4.5-4.4 1.3-8 4.4-9.7 8.7 9.3 0 18.5.2 27.7.2z"/><path class="st4" d="M451.4 271.9c-.7 1.8-1.1 3.7-1.1 5.6 0 8.2 6.7 14.9 14.9 14.8 8.2 0 14.9-6.7 14.8-14.9 0-1.8-.3-3.6-1-5.3-9.2 0-18.4-.2-27.6-.2z"/><path class="st5" d="M468.5 264.7c6.1 4 7.8 12.2 3.8 18.3-2.5 3.8-6.7 6-11.2 6-1.1 0-2.2-.1-3.3-.4 2.2 1.4 4.7 2.2 7.3 2.2 7.3 0 13.2-5.9 13.2-13.3.2-6-3.9-11.3-9.8-12.8z"/><path class="st6" d="M479 272.1c-1.6-4.3-5.2-7.5-9.5-8.8-.2-.1-.4-.3-.4-.5v-11.5c0-.3.2-.5.5-.5h1c.8-.2 1.4-1 1.2-1.8-.1-.6-.6-1.1-1.2-1.2h-11c-.8.2-1.4 1-1.2 1.8.1.6.6 1.1 1.2 1.2h1.3c.3 0 .5.2.5.5v11.4c0 .2-.2.4-.4.5-4.4 1.3-8 4.4-9.7 8.7"/><path class="st6" d="M451.4 271.9c-.7 1.8-1.1 3.7-1.1 5.6 0 8.2 6.7 14.9 14.9 14.8 8.2 0 14.9-6.7 14.8-14.9 0-1.8-.3-3.6-1-5.3"/><path class="st5" d="M468.5 264.7c6.1 4 7.8 12.2 3.8 18.3-2.5 3.8-6.7 6-11.2 6-1.1 0-2.2-.1-3.3-.4 2.2 1.4 4.7 2.2 7.3 2.2 7.3 0 13.2-5.9 13.2-13.3.2-6-3.9-11.3-9.8-12.8z"/><path class="st3" d="M470.6 177.3v-8.8c0-.4.3-.7.7-.7h1c.7-.2 1.2-.9 1-1.6-.1-.5-.5-.9-1-1h-11c-.7.2-1.2.9-1 1.6.1.5.5.9 1 1h1.3c.4 0 .7.3.7.7v8.8h7.3z"/><path class="st9" d="M463.3 177.3v39.1c0 1.6 1.7 2.9 3.7 2.9s3.7-1.3 3.7-2.9v-39.1h-7.4z"/><path class="st6" d="M472.3 165.2h-11c-.7.2-1.2.9-1 1.6.1.5.5.9 1 1h1.3c.4 0 .7.3.7.7v47.9c0 1.6 1.7 2.9 3.7 2.9s3.7-1.3 3.7-2.9v-47.8c0-.4.3-.7.7-.7h1c.7-.2 1.2-.9 1-1.6-.2-.6-.5-1-1.1-1.1z"/><path class="st5" d="M469.3 215.3c0 .6-.5 1.2-1.2 1.2-.6 0-1.2-.5-1.2-1.2V170c0-.6.5-1.2 1.2-1.2.6 0 1.2.5 1.2 1.2v45.3z"/><g id="Layer_8"><path class="st10" d="M268.8 269.5c16.3 17.7 53.6-3.3 53.6-3.3s19.4-4.8 23.2-17.6c0 0-13.6 3.9-26-16.5-6.1-10.3-5.3-15.8-8.6-27.3 0 0-3.7-22.6-20.4-34.4-10-7.3-22.5-10.3-34.7-8.5 0 0-17.4 4-24.5 21 0 0-13.4 21.2 1 46 2.9 4.9 6.8 19.8 7.7 25.4l26.1 11.6"/><path class="st11" d="M275.5 249.5c.4.5.3 1.3-.3 1.7-2.6 2.8-5.4 5.3-8.5 7.5-1.8 1.3-4 2.5-6.2 1.8-1.3-.6-2.4-1.5-3.2-2.7l-3.8-4.7c.5-2 1.2-3.6 1-5.7-.3-2.8-.1-5.8-.6-8.6 4.6-3.5 10-5.8 15.6-6.6 2-.3 3 0 3 2 0 1.8.1 3.5.3 5.3.5 3.5 1.4 6.9 2.7 10z"/><path class="st12" d="M269.3 629v20.2h3l2.1-8.5 5.3 8.5h29.6c-11.4-2.4-21.1-9.8-26.5-20.2h-13.5zm-19.3 0v20.2h-3l-2.1-8.5-5.3 8.5H210c11.4-2.4 21.1-9.8 26.5-20.2H250z"/><path d="M269.3 629h13.5s28-178.2 25.7-219.5c-1.4-26.1-17.3-39.7-17.3-39.7h-63.3s-15.9 13.6-17.3 39.7c-2.2 41.4 25.7 219.5 25.7 219.5h13.6s4.3-215.2 9.8-212.9c-.1 0 12.6 83.6 9.6 212.9z" fill="#f2f2f2" stroke="#000" stroke-width=".5" stroke-miterlimit="10"/><path d="M219.7 283.4s15.7 47.4 8.2 86.3c0 .1 34.6 18.4 63 .1-10.5-13.6 9.5-83.9 9.5-83.9l1-30.5c-6.2-6.2-25.7-5.1-25.7-5.1-6.4 4.6-14.7 5.7-22.1 2.8-4-3.2-20.1-3.4-28.7-2.2-2.4.3 1.3 1.9-2.8 3l-2.4 29.5zm7.1 10.5s7.9 16.4 26.6 7.4m40.9-7.4s-7.9 16.4-26.6 7.4" fill="#eb058c" stroke="#000" stroke-width=".5" stroke-miterlimit="10"/></g><path class="st11" d="M276.6 234.8c-4.4 4.7-10.1 9.2-16.5 8.7-4.7-.4-8.9-3.4-12.1-6.9-3.3-3.9-6.2-8-8.7-12.5-1.8-2.7-3.2-5.6-4.2-8.7-1.2-4.5-.4-9.2.3-13.7 1.2-7.5 2.8-15.5 8.2-20.8 3.2-2.8 7-5.1 11-6.6 2.9-1.4 5.9-2.4 9.1-2.9 2.7-.2 5.4 0 8 .7 7.3 1.8 13.8 6.3 18.1 12.5 11.1 16.6-1.6 37.6-13.2 50.2z"/><path class="st12" d="M236.6 222.6l-3.2-6.3-3.8-15.1 11.3-19.9 12.1-10.2 16.6-1.3 13.4 4.4 14.3 18.5-1.5 18.5-4.5 8.4s-22.6-20.3-19-38.5c0 0-17 13.7-34.2 11.5-.1 0-7.1 8.7-1.5 30z"/><path class="st11" d="M261.5 202.6c3.4-3.3 8.7-3.8 12.7-1.3m-25.6 2c-2.6-2.1-8.3-1.9-11 .3m21.6 19.6c-1.3-.4-2.5-1-3.7-1.6-.3-.1-.6-.3-.8-.5-.4-.7-.4-1.5 0-2.2l1.4-4"/><path d="M254.8 226.2c2.2-1 4.8-1.2 7.1-.6 2.3.7 4.6 1.6 6.7 2.9.1.1.3.2.3.3s-.2.2-.4.2c-2.2.5-4.6-.4-6.8-.7-1.8-.3-3.7-.3-5.5.1-.9.2-4.4 1.5-4.7 1-.2-.5 2.4-2.8 3.3-3.2z" fill="#c10072" stroke="#000" stroke-width=".5" stroke-miterlimit="10"/><ellipse transform="rotate(-7.1 267.301 211.17)" class="st10" cx="267.3" cy="211.2" rx="1.8" ry="2.3"/><ellipse transform="rotate(-7.1 246.702 212.165)" class="st10" cx="246.7" cy="212.2" rx="1.8" ry="2.3"/><path class="st6" d="M261.2 209.6s3.9-5 11.3-1.4c0 0 2.5 1.2 3.9-.4m-25.9 2.1c-1.4-1.6-6.2-3-10.1.2 0 0-2.3 1.5-3.9.1"/><path d="M251.5 229.3s3.9 3.6 8.5 3.1 5.9-3.2 8.5-3.4c0 0-2 6.8-8.5 6.9-6.5.1-8.4-4.8-8.5-6.6z" fill="#c10072" stroke="#000" stroke-width=".5" stroke-linejoin="round"/><path class="st12" d="M246.5 220.6c-1.8 0-3.5-.4-5.1-1.2-2.6-1.4-4.9-3.5-6.5-6-1.8-2.8-2.4-5.5-1.6-7.2 1.8-3.9 9.8-2.7 14.5-.5s7.4 7.2 5.6 11c-1 1.9-2.8 3.3-4.9 3.6-.6.2-1.3.3-2 .3zm-7.5-16.2c-2.3 0-4.3.6-5 2.1s-.1 3.9 1.5 6.5c1.5 2.4 3.7 4.4 6.2 5.7 2.1 1 4.4 1.3 6.7.9 1.9-.3 3.5-1.5 4.4-3.2 1.6-3.4-.7-7.9-5.2-10-2.7-1.2-5.6-1.9-8.6-2zm26.5 15.2c-.7 0-1.4-.1-2.1-.2-3.5-.5-6-3.8-5.5-7.3.1-.9.4-1.7.9-2.4 1.2-2.2 3-3.9 5.3-4.9 2.6-1.2 5.4-1.9 8.3-2.1 3.2-.1 5.4.8 6.2 2.5s.3 4.4-1.6 7.2c-1.6 2.5-3.8 4.6-6.5 6-1.5.8-3.2 1.2-5 1.2zm7.5-16.1h-.5c-2.8.2-5.5.8-8 2-2.1 1-3.8 2.6-4.9 4.6-1.7 2.7-.8 6.2 1.8 7.8.7.4 1.5.7 2.3.8 2.3.4 4.6.1 6.7-.9 2.5-1.3 4.7-3.3 6.2-5.7 1.7-2.6 2.2-5 1.5-6.5-.9-1.8-3.4-2.1-5.1-2.1z"/><path class="st12" d="M255.8 214.6h-.2c-1-.2-1.9-.8-2.4-1.6l.6-.4c.4.6 1.1 1.1 1.8 1.2 1 0 1.9-.5 2.4-1.3l.6.5c-.6 1-1.7 1.5-2.8 1.6zm22.5-5.2l.3-.9 11.8-4.8.3.7z"/><path class="st11" d="M253.7 253.1c-4.1 8.8-17.6 25.3-17.2 34.8s-9.7 211.5-9.7 211.5h-36.4l29-144 .2-60.5s-22.6 38.3-33 38.9-18.5-1.4-28.7-58.4l10.9-.9 15.6 33.3s24.2-54.4 35.8-57.5 35.1-3.2 35.1-3.2 0 5.4-1.6 6z"/><path class="st11" d="M167.8 274.8s-.6-1.4-1.1-2.9c-.6-1.8-3.2-9.5-3.2-9.5"/><path class="st3" d="M165.5 246.4v-9.7c0-.4.3-.8.8-.8h1.1c.8-.2 1.3-1 1.1-1.8-.1-.5-.6-1-1.1-1.1h-12.2c-.8.2-1.3 1-1.1 1.8.1.5.6 1 1.1 1.1h1.4c.4 0 .8.3.8.8v9.7c2.7 0 5.4-.1 8.1 0z"/><path class="st7" d="M157.4 246.4v43.3c0 1.7 1.8 3.2 4.1 3.2s4.1-1.4 4.1-3.2v-43.3c-2.8-.1-5.5 0-8.2 0z"/><path class="st6" d="M167.4 233h-12.2c-.8.2-1.3 1-1.1 1.8.1.5.6 1 1.1 1.1h1.4c.4 0 .8.3.8.8v53c0 1.7 1.8 3.2 4.1 3.2s4.1-1.4 4.1-3.2v-53c0-.4.3-.8.8-.8h1.1c.8-.2 1.3-1 1.1-1.8-.2-.5-.7-1-1.2-1.1z"/><path d="M164 288.4c0 .7-.6 1.3-1.3 1.3-.7 0-1.3-.6-1.3-1.3v-50.1c0-.7.6-1.3 1.3-1.3.7 0 1.3.6 1.3 1.3v50.1z" opacity=".71" fill="#fff"/><path class="st11" d="M161.2 225.5c0 1-.9 1.9-1.9 1.9s-1.9-.9-1.9-1.9.9-1.9 1.9-1.9c1.1 0 1.9.8 1.9 1.9z"/><circle class="st18" cx="164.6" cy="218.3" r="2.7"/><path class="st11" d="M158.6 212.9c0 1-.8 1.9-1.9 1.9-1 0-1.9-.8-1.9-1.9 0-1 .8-1.9 1.9-1.9 1 .1 1.9.9 1.9 1.9zm-4.5 51c14.4 9.2 13.2-5.9 12.9-9.5-.3-3.6-11.7-9-15.1-1.3-1 3.4-1 7 .1 10.3"/><path fill="none" stroke="#000" stroke-width=".5" stroke-linecap="round" stroke-miterlimit="10" d="M157.4 273.1l-5.5-9.7"/><path class="st11" d="M302 314.4l-2.4 42.2 26 142.9h-39.9c-1.2-51.8-8.4-245.9-9.9-249.1-.8-1.4-1.3-3-1.6-4.6 0 0 17.1 1.5 30.7 6.2 12.5 4.3 28.8 12.7 39.3 17.7 3.3 1.6 18.2 7 22 13.3 1.4 2.3 2.6 7.2 0 9.9-10 10.4-41.2 20.9-81.8 23.1l-1.9-12.3 56.7-23.6"/><path class="st3" d="M298.7 319.4c-4.8-1.8-10.2-1.3-14.6 1.4-.2.1-.5.1-.7-.1l-16-14.3c-.2-.2-.2-.6 0-.8l.7-.8c.5-.8.1-1.9-.7-2.3-.6-.3-1.3-.3-1.8.1l-8.3 9.2c-.5.8-.2 1.9.7 2.3.6.3 1.3.3 1.8-.1l1-1.1c.2-.2.6-.3.8-.1l15.9 14.2c.2.2.3.5.1.7-2.2 4.6-2.2 10 0 14.7 5.2-5.7 25.4-8.2 30.6-13.9-.3-2.4-5-7.7-9.5-9.1z"/><path class="st9" d="M307.5 327c4.5 8.1 1.6 18.3-6.6 22.8-6.3 3.5-14 2.6-19.4-2.2-9.4-9.8-3.7-18.1-4-20.6h30z"/><path class="st6" d="M298.7 319.4c-4.8-1.8-10.2-1.3-14.6 1.4-.2.1-.5.1-.7-.1l-16-14.3c-.2-.2-.2-.6 0-.8l.7-.8c.5-.8.1-1.9-.7-2.3-.6-.3-1.3-.3-1.8.1l-8.3 9.2c-.5.8-.2 1.9.7 2.3.6.3 1.3.3 1.8-.1l1-1.1c.2-.2.6-.3.8-.1l15.9 14.2c.2.2.3.5.1.7-2.2 4.6-2.2 10 0 14.7.9 2 2.3 3.7 3.9 5.2 7.2 5.9 17.8 4.8 23.6-2.4 5.5-6.7 4.9-16.5-1.2-22.6-1.4-1.4-3.2-2.5-5.2-3.2z"/><path d="M284.5 322.6c8-2 16.2 2.9 18.1 11 1.5 6-.9 12.4-6 15.9 8-2 13-10.1 11-18.1s-10.1-13-18.1-11c-1.8.4-3.5 1.2-5 2.2z" opacity=".74" fill="#fff"/><path class="st11" d="M282.6 303.6s-16.7 4.8-20.1 9.4-3.7 7.6 1.8 13c5.1 5 10.3-.4 11.1-2.4s4.4-8.8 8.9-8l-1.7-12z"/><path class="st21" d="M148 408.4h17.3v240.8H148zm326 0h17.3v240.8H474z"/><path class="st21" d="M119.6 395.7H521v24.2H119.6z"/><path class="st3" d="M273.5 358c0-.2.1-.4.3-.5.2-.1.4-.4.4-.6 0-.5-.5-.9-1.2-.9h-35.4c-.6 0-1.2.4-1.2.9 0 .3.2.5.4.6.3.1.4.4.2.7-.1.1-.1.2-.2.2l-.1.1c12.3 0 24.7 0 37-.1-.1 0-.2-.2-.2-.4zm-1 3s-.1 0 0 0c-11.4-.1-22.9-.1-34.3-.1-1 .5-1.8 1.4-2.1 2.5-.1.6-.3 3.3-.4 6.6 13.1 0 26.2.2 39.4-.2-.1-3.1-.2-5.7-.4-6.3-.5-1.1-1.2-2-2.2-2.5z"/><path class="st3" d="M275.4 384.4c-.1-2-.2-9.1-.4-14.5-13.1.4-26.3.3-39.4.2-.2 5.3-.3 12-.4 13.9-.1 2.6-.2 5-.1 5.5.4 4 7 5 9.1 5.2 4.8.5 8.4.5 10.6.5h1c2.2 0 5.9-.1 10.6-.5 2-.2 8.7-1.1 9.1-5.2.1-.5 0-2.6-.1-5.1z"/><path class="st5" d="M271.9 367.9c-.4-1.3-1.2-2.4-2.4-3.2-.1-.1-.2-.2-.2-.3-.2.1-.4.1-.5.2-7.6 3.8-1.5 11-3 17 0 1.7-1.5 3-2.5 4.7-.9 2.9.7 4.7 3.1 5.3 2.9-.8 6.3-2.5 6.5-6 .1-.7 0-3.4-.1-6.6-.1-3.7-.4-7.4-.9-11.1z"/><path class="st18" d="M272.4 361c-.2-.1-.3-.4-.1-.6.2-.3.5-.4.8-.4.6 0 1.1-.4 1.1-.9 0-.3-.2-.5-.4-.6-12.3.1-24.7.1-37 .1-.2.1-.3.3-.3.5 0 .5.5.8 1.1.9.3 0 .6.1.8.4.1.2 0 .5-.2.6 11.4-.1 22.8 0 34.2 0z"/><path class="st6" d="M275.4 384.4c-.1-2-.2-9.1-.4-14.5-.1-3.1-.2-5.7-.4-6.3-.4-1.1-1.2-2-2.1-2.5l-.1-.1c-.2-.1-.3-.4-.1-.6.2-.3.5-.4.8-.4.6 0 1.1-.4 1.1-.9 0-.3-.2-.5-.4-.6-.2-.1-.3-.3-.3-.5s.1-.4.3-.5c.2-.1.4-.4.4-.6 0-.5-.5-.9-1.2-.9h-35.4c-.6 0-1.2.4-1.2.9 0 .3.2.5.4.6.3.1.4.4.2.7-.1.1-.1.2-.2.2l-.1.1c-.2.1-.3.3-.3.5 0 .5.5.8 1.1.9.3 0 .6.1.8.4.1.2 0 .5-.2.6-1 .5-1.8 1.4-2.1 2.5-.1.6-.3 3.3-.4 6.6-.2 5.3-.3 12-.4 13.9-.1 2.6-.2 5-.1 5.5.4 4 7 5 9.1 5.2 4.8.5 8.4.5 10.6.5h1c2.2 0 5.9-.1 10.6-.5 2-.2 8.7-1.1 9.1-5.2.1-.4 0-2.5-.1-5z"/><circle class="st11" cx="247.5" cy="343" r="3.8"/><circle class="st11" cx="255.2" cy="334.1" r="2.4"/><circle class="st11" cx="257.7" cy="351" r="2.4"/><circle class="st11" cx="260.1" cy="339.2" r="1.7"/><path class="st11" d="M368.9 112.3h150v33.2h-150z"/><path d="M386.9 130.8c0 3.2-1.7 5.1-4.6 5.1-2.9 0-4.7-1.9-4.7-5s1.8-5.1 4.7-5.1 4.6 1.8 4.6 5zm-7.7.1c0 2.4 1.1 3.7 3.1 3.7 1.9 0 3-1.4 3-3.8 0-2.3-1.1-3.7-3-3.7s-3.1 1.5-3.1 3.8zm11-3.5c.7-1.2 1.8-1.6 3.2-1.6 2.7 0 4.4 1.9 4.4 5s-1.7 5.1-4.3 5.1c-1.4 0-2.4-.5-3.2-1.6v5h-1.6v-13.2h1.5v1.3zm.1 3.4c0 2.3 1.1 3.7 3 3.7 1.8 0 2.9-1.4 2.9-3.7 0-2.3-1.1-3.7-3-3.7-1.8 0-2.9 1.4-2.9 3.7zm13.5-3.4h-1.9v5.6c0 .9-.1 1.4 1.1 1.4.3 0 .5 0 .9-.1v1.4c-.5.1-.7.1-1.2.1-2.4 0-2.3-1.2-2.3-3.3v-5.1h-1.6v-1.3h1.6v-2.8h1.6v2.8h1.9v1.3zm3.4-3h-1.6v-1.9h1.6v1.9zm0 11.3h-1.6v-9.6h1.6v9.6zm4-8.2c.8-1.1 1.7-1.6 3.1-1.6 1.3 0 2.2.5 2.6 1.6.8-1.1 1.7-1.7 3.2-1.7 2 0 3 1.2 3 3.1v6.7h-1.6v-6c0-1.4-.2-2.4-1.9-2.4-1.8 0-2.4 1.2-2.4 3v5.4h-1.6v-6.1c0-1.3-.2-2.3-1.8-2.3-2.1 0-2.6 1.5-2.6 3.3v5.1h-1.6V126h1.5v1.5zm22.7 8.1c-.3.1-.7.2-1.1.2-.9 0-1.4-.5-1.4-1.4-.9 1.1-2 1.5-3.5 1.5-1.9 0-3.1-1-3.1-2.7 0-1.7 1.1-2.7 3.4-3 2.3-.3 3.1-.2 3.1-1.5 0-1-.8-1.6-2.2-1.6-1.5 0-2.2.5-2.4 1.9h-1.5c.1-2 1.5-3.2 4-3.2 1.3 0 2.4.3 3 .9.7.6.6 1.6.6 2.5 0 1.4-.1 2.8-.1 4.3 0 .7.2.9.6.9.1 0 .2 0 .4-.1v1.3zm-4.6-4.3c-1.1.1-2.7.3-2.7 1.8 0 1 .7 1.6 1.9 1.6 1.5 0 2.9-1 2.9-2.2v-1.7c-.6.3-1.4.4-2.1.5zm7.8 4.4h-1.6v-13.2h1.6v13.2zm11.9-11.9c-.2 0-.6-.1-.9-.1-1 0-1.2.2-1.2 1.3v1.1h1.8v1.3h-1.8v8.3h-1.6v-8.3h-1.6v-1.3h1.6v-1.3c0-1.8 1-2.5 2.6-2.5.4 0 .6 0 1 .1v1.4zm5.2 12.2c-2.8 0-4.5-1.9-4.5-5s1.8-5.2 4.4-5.2c3.1 0 4.3 2.5 4.3 5.3v.2h-7.2v.1c0 2 1.1 3.3 3 3.3 1.4 0 2.1-.6 2.6-2h1.5c-.4 2.1-1.9 3.3-4.1 3.3zm-.1-8.9c-1.5 0-2.6 1.1-2.8 2.9h5.6c-.2-1.8-1.2-2.9-2.8-2.9zm14.5 8.5c-.3.1-.7.2-1.1.2-.9 0-1.4-.5-1.4-1.4-.9 1.1-2 1.5-3.5 1.5-1.9 0-3.1-1-3.1-2.7 0-1.7 1.1-2.7 3.4-3 2.3-.3 3.1-.2 3.1-1.5 0-1-.8-1.6-2.2-1.6-1.5 0-2.2.5-2.4 1.9H460c.1-2 1.5-3.2 4-3.2 1.3 0 2.4.3 3 .9.7.6.6 1.6.6 2.5 0 1.4-.1 2.8-.1 4.3 0 .7.2.9.6.9.1 0 .2 0 .4-.1v1.3zm-4.7-4.3c-1.1.1-2.7.3-2.7 1.8 0 1 .7 1.6 1.9 1.6 1.5 0 2.9-1 2.9-2.2v-1.7c-.5.3-1.4.4-2.1.5zm10.3-3.9h-1.9v5.6c0 .9-.1 1.4 1.1 1.4.3 0 .5 0 .9-.1v1.4c-.5.1-.7.1-1.2.1-2.4 0-2.3-1.2-2.3-3.3v-5.1h-1.6v-1.3h1.6v-2.8h1.6v2.8h1.9v1.3zm9.6 8.3h-1.5v-1.5c-.8 1.2-1.9 1.8-3.3 1.8-2 0-3.2-1.1-3.2-3.2v-6.6h1.6v6.2c0 1.4.4 2.3 2 2.3 2.1 0 2.8-1.5 2.8-3.4v-5h1.6v9.4zm7.4-8.2h-.4c-2.6 0-3.1 2-3.1 4.1v4h-1.6V126h1.5v2.1c.7-1.6 1.8-2.3 3.5-2.3v1.7zm4.9 8.5c-2.8 0-4.5-1.9-4.5-5s1.8-5.2 4.4-5.2c3.1 0 4.3 2.5 4.3 5.3v.2h-7.2v.1c0 2 1.1 3.3 3 3.3 1.4 0 2.1-.6 2.6-2h1.5c-.5 2.1-1.9 3.3-4.1 3.3zm-.1-8.9c-1.5 0-2.6 1.1-2.8 2.9h5.6c-.2-1.8-1.3-2.9-2.8-2.9zm11.5 1.8c-.1-1.3-1-1.7-2.3-1.7-1.2 0-1.9.5-1.9 1.3 0 1.1 1.2 1.2 2.5 1.5 1.6.4 3.7.8 3.7 2.9 0 1.9-1.6 3.1-4 3.1-2.6 0-4-1.2-4.1-3.3h1.6c.1 1.4 1.1 2 2.6 2 1.4 0 2.3-.6 2.3-1.6 0-1.1-1.1-1.3-2.4-1.6-1.6-.4-3.9-.6-3.9-2.8 0-1.7 1.4-2.8 3.6-2.8 2.1 0 3.8 1 3.8 3.1h-1.5z"/><path class="st11" d="M253.2 241.1l-9.4 9.8-3.2 13.4 11.6-8.3s2.8-4.3 3.2-5.8-.4-8.2-.4-8.2l-1.8-.9zm19.6-2.2l12.7 8.3.2 16-9.4-7.2s-3.3-11-3.5-17.1z"/></g></svg>