<svg version="1.1" id="Layer_1" xmlns="http://www.w3.org/2000/svg" x="0" y="0" viewBox="0 0 1000 1000" xml:space="preserve"><style>.st3{fill:#fff;stroke:#000;stroke-width:.5;stroke-miterlimit:10}.st4{fill:#1a1a1a}.st10,.st15,.st16,.st23{stroke:#000;stroke-width:.5;stroke-miterlimit:10}.st5{fill:#f2f2f2}.st5,.st6,.st7,.st8,.st9{stroke:#000;stroke-width:.5;stroke-miterlimit:10}.st6{fill:#1a1a1a}.st7{fill:#eb058c}.st8{fill:#ccc}.st9{fill:#0077bf}.st10{fill:none}.st15{fill:#757575}.st16{fill:#d3d3d3}.st23{fill:#5e5e5e}.st38{stroke:#000;stroke-width:.5;stroke-miterlimit:10;fill:#bfbfbf}</style><path d="M248 162.6C162.6 235.9 32.1 410 140.7 619.2c160.6 309.4 566.7 248 692.4 155.1 96.5-71.4 63.1-255.1-81.9-272.1-145.5-17-104.2-146.6-174.1-289.4-56-114.4-175.6-182.2-329.1-50.2z" fill="#fff"/><linearGradient id="SVGID_1_" gradientUnits="userSpaceOnUse" x1="427.4" y1="493.65" x2="633.6" y2="493.65" gradientTransform="matrix(1 0 0 -1 0 1000)"><stop offset=".001" stop-color="#fff" stop-opacity=".5"/><stop offset="1" stop-color="#ccc"/></linearGradient><path fill="url(#SVGID_1_)" d="M593.4 558.2h40.2l-10.3-16.9-190.9-86.8-5 4z"/><g id="Layer_8"><path class="st3" d="M619.6 398.3c0 .1.1.2 0 .4 0 .1-.1.2-.2.3-1.2 1-2.4 1.8-3.8 2.5-.8.4-1.8.8-2.6.4-.5-.3-.9-.7-1.1-1.2l-1.3-2.1c.8-.4.9-1.4 1-2.3 0-1.1 0-2.3-.1-3.4 2-1.1 4.3-1.7 6.6-1.7.8 0 1.2.2 1.1 1s-.2 1.4-.2 2.1c.1 1.3.2 2.7.6 4z"/><path class="st4" d="M609.9 549.9v8.1h-1.2l-.9-3.4-2.1 3.4h-11.9c4.6-1 8.5-3.9 10.7-8.1h5.4zm7.9 0v8.1h1.2l.9-3.4 2.1 3.4h11.9c-4.6-1-8.5-3.9-10.7-8.1h-5.4z"/><path class="st5" d="M617.4 549.9h5s10.2-71.8 9.4-88.5c-.5-10.5-6.4-16-6.4-16h-23.2s-5.8 5.5-6.4 16c-.8 16.7 9.4 88.5 9.4 88.5h5s1.6-86.7 3.6-85.8c0 0 4.7 33.7 3.6 85.8z"/><path class="st6" d="M598.9 396.9c1.4-.3 2.8-.3 4.3-.9.2-.1 1.2-.7 2.2-1.3l1.6-1.3.5-1.5.1.1c.8-2.2 1-4.5.7-6.8v-.3c-.6-.8-1-1.8-1.2-2.8-.1-.3-.2-.7-.5-.7-1-.1-1.5-1.9-1.7-3 1.7-1.3 3.9-2.1 5.7-3.1 1.6-.9 4.7-3.1 4.8-3 1-.5 2-.9 2.9-1.5.7-.5 3.6-1.8 3.5-2.9.1 1.2.7 2.2 1 3.3.4 1.2.9 2.4 1.1 3.7.5 2.4.5 5.1-.3 7.5-.6 1.9-1.8 3.4-3.2 4.7-.2 1.5-.1 3.1.1 4.6v.1l.5 1.5 1.9 1.5c.2.1.3.3.4.5 2.3.9 5.4 1.6 5.8 1.7 2 .6 3.6 1.2 4.9 2.2-.6-3-1.4-5.9-2.2-8.8-.7-2.7-1.7-5.4-2.5-8.1-.8-2.5-.3-4.7-.6-7.3-.8-7.6-4.6-13.3-12.3-14.5-7.2-1.1-13.2 4.8-14.1 11.7-.1.8-.2 1.7-.2 2.5 0 2.3.1 4.6-.3 7-.6 3.4-1.4 6.7-2.6 10-.6 1.6-1.8 3.9-3 6.3l.6-.3c.6-.4 1.4-.7 2.1-.8z"/><path class="st7" d="M586.9 447.4l10.8-32.5s-.8-2.1 3.7 17.2c1.3 5.4-2.3 14.7-3.2 19.7 0 0 19.6 6.6 31-.8-1.7-2.2-4.3-10.1-4.1-17.9.2-6 2.8-11.8 3.7-15.5l.9-3.5 10.7 33.4 4.8-.7c-5.5-35.4-11.2-47.5-11.2-47.5-3.3-1.9-12.9-5.8-12.9-5.8-2.6 1.9-5.6 1.3-8.5.2-2-1.6-16.4 2.6-18.3 4.9-5.8 17-11.2 48.3-11.2 48.3l3.8.5zm13.8-30.5s3.2 6.6 10.7 3m16.5-3s-3.2 6.6-10.7 3"/><path class="st3" d="M640.8 447.4c-4.4 3.6.4 3 .4 3s2.2 5.8 3.7 5.6c2-.3-.1-9.2-.1-9.2l-4 .6zm-57.8-.7s-2.1 8.9-.1 9.2c1.5.3 3.7-5.6 3.7-5.6s4.8.6.4-3l-4-.6z"/><g id="Layer_7_1_"><path class="st3" d="M614 397.9c1 0 3.8-1.8 5.3-3.8l1.2-2.1v-.1c-.3-1.5-.3-3.1-.1-4.6-.2.2-.5.4-.7.6l-.4.3c-1.3 1.2-2.7 1.8-4 1.7-1.3 0-2.6-.5-4-1.7l-.4-.3c-1-.9-1.9-1.8-2.7-2.9v.3c.3 2.3 0 4.6-.7 6.8l1.1 2c1.4 1.9 4.4 3.8 5.4 3.8z"/><path class="st3" d="M611 387.9l.4.3c1.3 1.2 2.7 1.8 4 1.7 1.3 0 2.6-.5 4-1.7l.4-.3c.2-.2.5-.4.7-.6 1.4-1.3 2.6-2.8 3.2-4.7.8-2.3.8-5.1.3-7.5-.2-1.3-.8-2.5-1.1-3.7-.3-1.1-.9-2.1-1-3.3.1 1-2.8 2.4-3.5 2.9-.9.6-1.9 1-2.9 1.5-.1 0-3.2 2.2-4.8 3-1.8 1-4.1 1.7-5.7 3.1.2 1.1.7 2.9 1.7 3 .3 0 .5.4.5.7.2 1 .6 1.9 1.2 2.8.7.9 1.6 1.9 2.6 2.8z"/><path class="st8" d="M616.6 401.7l-.8-1-.6 1.2c-.1.3-.2.6-.1.8l1.1 5.1.7-2.3.7-2.2-.4-.8c-.1-.3-.4-.5-.6-.8zm-5.8.9l-.4.8.7 2.2.7 2.3 1.1-5.1c.1-.3 0-.6-.1-.8l-.6-1.2-.8 1c-.2.2-.4.4-.6.8z"/><path class="st9" d="M616.2 407.9l-1.1-5.1c-.1-.3 0-.6.1-.8l.6-1.2-1.8-2.3-1.8 2.3.6 1.2c.1.3.2.6.1.8l-1.1 5.1 1.4 4.6h1.6l1.4-4.6z"/><path class="st3" d="M620.5 391.9l-1.2 2.1c-1.5 2-4.3 3.8-5.3 3.8s-4-1.9-5.3-3.8l-1.1-2-.1-.1-.5 1.5 3.3 9.9.4-.8.6-.9.8-1 1.8-2.3 1.8 2.3.8 1 .6.9.4.8 3.3-9.9-.3-1.5zm3.7 14l-2.5-4.5 3.4.4c-.3-.9-.9-5-1.7-6.4-.1-.2-.2-.4-.4-.5l-1.9-1.5-3.3 9.9-.7 2.2-.7 2.3-4.1 17 11.9-18.9z"/><path class="st3" d="M614.3 415.7l-2.5-7.8-.7-2.3-.7-2.2-3.3-9.9-1.6 1.3-.3.2c-1 .5-1.8 5.8-2.1 6.9l3.4-.4-2.5 4.5c-.1.2 7.2 11.1 9.3 14.3l1-4.6z"/><path class="st10" d="M618.8 376.7c1-.4 2.1-.4 3.1 0m-11.4 0c1-.4 2.1-.4 3.1 0"/><circle class="st6" cx="620.2" cy="378.5" r=".8"/><circle class="st6" cx="612.4" cy="378.5" r=".8"/><path class="st10" d="M613.2 384.7s2.6 2.5 5.3.2m-1.6-7.1c-.2.8-.2 1.6-.1 2.3.1.6.3 1.2.4 1.7.1.3.1.6 0 .9s-.4.4-.7.3"/></g></g><linearGradient id="SVGID_2_" gradientUnits="userSpaceOnUse" x1="264.4" y1="546.05" x2="456.3" y2="546.05" gradientTransform="matrix(1 0 0 -1 0 1000)"><stop offset=".001" stop-color="#fff" stop-opacity=".5"/><stop offset="1" stop-color="#ccc"/></linearGradient><path fill="url(#SVGID_2_)" d="M419 502.2h37.3l-9.6-15.8-177.6-80.7-4.7 3.7z"/><g id="Layer_8_1_"><path class="st3" d="M443 353.3c0 .1.1.2 0 .3 0 .1-.1.2-.2.3-1.1.9-2.3 1.7-3.5 2.3-.7.4-1.6.7-2.4.4-.4-.3-.8-.7-1-1.2l-1.2-2c.7-.4.9-1.3.9-2.1v-3.2c1.9-1.1 4-1.6 6.2-1.6.7 0 1.1.2 1 .9-.1.8-.2 1.3-.2 2-.1 1.4.1 2.7.4 3.9z"/><path class="st4" d="M434 494.6v7.6h-1.1l-.8-3.2-2 3.2H419c4.3-.9 7.9-3.7 9.9-7.6h5.1zm7.3 0v7.6h1.1l.8-3.2 2 3.2h11.1c-4.3-.9-7.9-3.7-9.9-7.6h-5.1z"/><path class="st5" d="M441 494.6h4.6s9.5-66.9 8.8-82.4c-.5-9.8-5.9-14.9-5.9-14.9h-21.6s-5.4 5.1-5.9 14.9c-.8 15.5 8.8 82.4 8.8 82.4h4.6s1.5-80.8 3.4-80c-.1 0 4.2 31.4 3.2 80z"/><path class="st6" d="M423.7 352c1.3-.3 2.6-.3 4-.9.2-.1 1.1-.6 2-1.2l1.5-1.2.5-1.4.1.1c.7-2 1-4.2.7-6.3v-.3c-.5-.8-.9-1.6-1.1-2.6-.1-.3-.2-.6-.5-.7-1-.1-1.4-1.7-1.6-2.8 1.5-1.2 3.6-1.9 5.3-2.9 1.5-.8 4.4-2.9 4.4-2.8 1-.5 1.9-.8 2.7-1.4.7-.5 3.4-1.7 3.3-2.7.1 1.1.7 2 1 3.1.3 1.2.8 2.3 1 3.5.4 2.2.5 4.8-.3 7-.6 1.7-1.7 3.1-3 4.4-.2 1.4-.1 2.9.1 4.3v.1l.5 1.4 1.7 1.4c.2.1.3.3.4.4 2.2.8 5 1.5 5.4 1.6 1.9.6 3.4 1.1 4.5 2-.6-2.8-1.3-5.5-2.1-8.2-.7-2.6-1.5-5-2.3-7.6-.7-2.4-.3-4.4-.5-6.8-.7-7.1-4.3-12.4-11.5-13.5-6.7-1.1-12.3 4.5-13.2 10.9-.1.8-.2 1.6-.2 2.4 0 2.1.1 4.3-.2 6.5-.5 3.2-1.3 6.3-2.4 9.3-.5 1.5-1.7 3.6-2.8 5.9.2-.1.3-.2.5-.3.8-.3 1.5-.6 2.1-.7z"/><path d="M412.5 399.1l10.1-30.3s-.8-2 3.4 16c1.2 5.1-2.1 13.7-3 18.3 0 0 18.2 6.1 28.9-.7-1.6-2.1-4-9.4-3.8-16.7.1-5.5 2.6-11 3.4-14.4l.8-3.3 10 31.1 4.5-.6c-5.1-33-10.4-44.2-10.4-44.2-3.1-1.8-12-5.4-12-5.4-2.4 1.7-5.2 1.2-8 .2-1.9-1.5-15.2 2.4-17.1 4.5-5.4 15.9-10.4 45-10.4 45l3.6.5z" fill="#ffe600" stroke="#000" stroke-width=".5" stroke-miterlimit="10"/><path class="st10" d="M425.4 370.6s3 6.2 10 2.8m15.4-2.8s-3 6.2-10 2.8"/><path class="st3" d="M462.8 399.1c-4.1 3.4.4 2.8.4 2.8s2 5.4 3.4 5.2c1.9-.3-.1-8.6-.1-8.6l-3.7.6zm-53.9-.7s-2 8.3-.1 8.6c1.4.2 3.4-5.2 3.4-5.2s4.5.6.4-2.8l-3.7-.6z"/><g id="Layer_7_3_"><path class="st3" d="M437.8 352.9c1 0 3.6-1.7 5-3.6l1.1-2v-.1c-.2-1.4-.3-2.8-.1-4.3l-.6.6-.3.3c-1.2 1.1-2.5 1.6-3.7 1.6s-2.5-.5-3.7-1.6l-.3-.3c-.9-.8-1.8-1.7-2.5-2.7v.3c.3 2.1 0 4.3-.7 6.3l1.1 1.9c1 1.8 3.8 3.6 4.7 3.6z"/><path class="st3" d="M435 343.6l.3.3c1.2 1.1 2.5 1.6 3.7 1.6s2.5-.5 3.7-1.6l.3-.3.6-.6c1.3-1.3 2.4-2.7 3-4.4.7-2.2.7-4.7.3-7-.2-1.2-.7-2.3-1-3.5-.3-1-.8-2-1-3.1.1.9-2.6 2.2-3.3 2.7-.8.6-1.8.9-2.7 1.4-.1 0-3 2-4.4 2.8-1.7.9-3.8 1.6-5.3 2.9.2 1 .6 2.7 1.6 2.8.3 0 .5.4.5.7.2.9.5 1.8 1.1 2.6.8 1 1.7 1.9 2.6 2.7z"/><path class="st8" d="M440.2 356.5l-.7-.9-.6 1.1c-.1.2-.2.5-.1.8l1.1 4.8.7-2.2.7-2.1-.4-.7c-.2-.3-.4-.6-.7-.8zm-5.4.8l-.4.7.7 2.1.7 2.2 1.1-4.8c.1-.3 0-.5-.1-.8l-.6-1.1-.7.9c-.3.2-.5.5-.7.8z"/><path class="st9" d="M439.9 362.2l-1.1-4.8c-.1-.3 0-.5.1-.8l.6-1.1-1.7-2.1-1.7 2.1.6 1.1c.1.2.2.5.1.8l-1 4.8 1.3 4.3h1.5l1.3-4.3z"/><path class="st3" d="M443.9 347.4l-1.1 2c-1.4 1.9-4 3.5-5 3.6-1 0-3.7-1.8-5-3.6l-1.1-1.9-.1-.1-.5 1.4 3.1 9.3.4-.7c.2-.3.4-.6.6-.8l.7-.9 1.7-2.1 1.7 2.1.7.9c.2.3.4.5.6.8l.4.7 3.1-9.3-.2-1.4zm3.4 13l-2.3-4.2 3.2.3c-.3-.9-.9-4.7-1.6-6-.1-.2-.2-.3-.4-.4l-1.7-1.4-3.1 9.3-.7 2.1-.7 2.2-3.8 15.8 11.1-17.7z"/><path class="st3" d="M438.1 369.5l-2.3-7.3-.7-2.2-.7-2.1-3.1-9.3-1.5 1.2-.3.2c-.9.5-1.7 5.4-2 6.4l3.2-.3-2.3 4.2c-.1.2 6.7 10.4 8.7 13.4l1-4.2z"/><path class="st10" d="M442.3 333.2c.9-.4 2-.4 2.9 0m-10.7 0c.9-.4 2-.4 2.9 0"/><circle class="st6" cx="443.6" cy="334.9" r=".8"/><circle class="st6" cx="436.4" cy="334.9" r=".8"/><path class="st10" d="M437 340.6s2.4 2.3 5 .2m-1.5-6.6c-.2.7-.2 1.4-.1 2.2.1.5.3 1.1.4 1.6.1.3.1.6 0 .8-.1.3-.4.4-.7.3"/></g></g><linearGradient id="SVGID_3_" gradientUnits="userSpaceOnUse" x1="309.3" y1="412.4" x2="540.4" y2="412.4" gradientTransform="matrix(1 0 0 -1 0 1000)"><stop offset=".001" stop-color="#fff" stop-opacity=".5"/><stop offset="1" stop-color="#ccc"/></linearGradient><path fill="url(#SVGID_3_)" d="M495.4 645.7h45l-11.5-19L315 529.5l-5.7 4.4z"/><g id="Layer_9"><path class="st9" d="M529.2 639.7l14.5-112.3-5.4-11.9-31-2.6-6.9 15.2 8.2 111.6h6l6.7-99.2s1.4-2.4 3.2 0l-2.1 99.2h6.8z"/><path class="st3" d="M476.6 529.9l9.3-32.4 13.1-31.6s1.5-2 17.7-4.3c0 0 9.9 5.6 14.4.5l13.7 2.6 12.6 35.4 5 30.5h-6l-12.7-39.1s-.1 21.4.5 39.1c0 0-18.2 5.1-43.9-2.4l-1.6-32.6-16 34.5h-6.1"/><path class="st3" d="M482.8 529.9c3.9 5.9-1.8 3.8-1.8 3.8s-3.2 8.3-4.9 8.2c-2.3-.2.5-12 .5-12h6.2zm79.8.6s2.8 11.8.5 12c-1.7.1-4.9-8.2-4.9-8.2s-5.7 2-1.8-3.8h6.2z"/><path class="st4" d="M515 639.7v5.8h-3.2v-1.4l-2 1.4h-14.7l13.1-5.8zm7.3 0v5.8h3.2v-1.4l2 1.4h14.7l-13.1-5.8z"/><path class="st7" d="M525 465.4l4.8 38.5-6.5 8-5.4-8.7 5.4-37.6c-.1-.1.6-2 1.7-.2z"/><path class="st3" d="M518.7 449.4L518 463l5.9 6.7 6.2-5.8-.7-15.1z"/><g id="Layer_7_2_"><path class="st3" d="M515.6 461.6l3.5 8.8.9 2.4 2.3-3.7 1.5-2.5c.1-.1.2-.1.4-.1l.1.1 1.9 2.8 2.9 4.2 2.1-11.6-.8-2.1-.2.2-6.1 6c-.1.1-.3.1-.3 0l-7.1-7-.1-.1-1 2.6zm2.8-5.2c.8.9 1.5 1.7 2.6 2.3.7.4 1.6.4 2.5.4h.3c.7.1 1.5 0 2.2-.2 1.1-.5 1.9-1.3 2.8-2.1.6-.5 1.3-1 2-1.3.4-.2.7-.5 1-.8.4-.4.7-1 .9-1.5.3-.8.3-2.2 1-2.8.6-.6 1.3-.8 1.8-1.6.8-1.5 1.2-3.1 1.2-4.8 0-.5-.2-1.2-.9-.8-.3.2-.2.7-.5.8l-.3.7h-.9c0-.7.1-1.3.2-2 .1-1.4.3-2.9 0-4.3-.3-1.8-3-2.8-4.4-3.7-.2-.2-.6-.5-.9-.6-.4-.1-.2-.1-.6.1-1.6.8-2.6 1.7-4.6 1.6-1.6-.1-3.2-.5-4.8-.4-2.2.1-4.3 1.4-4.6 3.6-.1.8-.1 1.7-.2 2.5-.1.6-.1 1.1-.1 1.7v.6l-1.2-.1v-1.3c0-.1-.1-.2-.2-.3-.6-.5-.9.3-1 .7-.2 1.7 0 3.3.7 4.9.4.9 1 1.1 1.6 1.8.7.7.5 2 .7 2.9.1.6.4 1.1.7 1.6.2.3.5.6.8.8.8.5 1.6 1 2.2 1.6z"/><path class="st6" d="M513 443.2v.5l1.2.1v-.6c0-.6 0-1.1.1-1.7.1-.8 0-1.7.2-2.5.3-2.1 2.4-3.6 4.6-3.6 1.6 0 3.2.4 4.8.4 2 .1 2.9-.7 4.6-1.6.4-.2.2-.3.6-.1.3.1.6.5.9.6 1.4.9 4.1 1.9 4.4 3.7.3 1.4.1 2.9 0 4.3-.1.7-.2 1.3-.2 2h.9l.3-.7c.3-.7.5-1.4.6-1.8.3-1.1.5-2.2.6-3.4.5-2.7.8-5.4-.9-7.8-1.8-2.6-4.6-4.2-6.2-4.1-.1 0-1.1 0-1 .2-.5-.5-1.5-.6-2.2-.8-3.6-1-8.3.9-11 3-2.9 2.2-2.6 5.3-2.5 8.2.1 1 0 2.2.2 3.1.1.5.2 1 .2 1.6-.2.5-.2.7-.2 1z"/><path class="st10" d="M527.1 442.3c1.1-.5 2.3-.5 3.3 0m-12.3 0c1.1-.5 2.3-.5 3.3 0"/><circle class="st6" cx="528.6" cy="444.4" r=".9"/><circle class="st6" cx="520.3" cy="444.4" r=".9"/><path class="st10" d="M521.1 452.8s2.8 2.7 5.7.3m-1.6-9.5c-.2 1-.2 2-.1 3 .1.8.3 1.5.4 2.2.1.4.1.8 0 1.1-.1.4-.4.6-.7.4"/></g></g><linearGradient id="SVGID_4_" gradientUnits="userSpaceOnUse" x1="753.9" y1="487.35" x2="899.3" y2="487.35" gradientTransform="matrix(1 0 0 -1 0 1000)"><stop offset=".001" stop-color="#fff" stop-opacity=".5"/><stop offset="1" stop-color="#ccc"/></linearGradient><path fill="url(#SVGID_4_)" d="M871 549.2h28.3l-7.3-11.9-134.6-61.2-3.5 2.8z"/><g id="Layer_9_1_"><path class="st15" d="M892.3 545.5l9.1-70.7-3.4-7.5-19.5-1.7-4.3 9.6 5.1 70.2h3.8l4.2-62.4s.9-1.5 2 0l-1.3 62.4h4.3v.1z"/><path class="st3" d="M859.2 476.4L865 456l8.2-19.9s.9-1.3 11.2-2.7c0 0 6.2 3.5 9.1.3l8.6 1.6 8 22.3 3.2 19.2h-3.8l-8-24.6s-.1 13.5.3 24.6c0 0-11.5 3.2-27.7-1.5l-1-20.5-10.1 21.7h-3.8"/><path class="st3" d="M863.1 476.4c2.5 3.7-1.1 2.4-1.1 2.4s-2 5.3-3.1 5.2c-1.5-.1.3-7.6.3-7.6h3.9zm50.2.4s1.8 7.4.3 7.6c-1.1.1-3.1-5.2-3.1-5.2s-3.6 1.3-1.1-2.4h3.9z"/><path class="st4" d="M883.3 545.5v3.6h-2v-.9l-1.2.9h-9.3l8.2-3.6zm4.6 0v3.6h2v-.9l1.3.9h9.2l-8.2-3.6z"/><path class="st16" d="M889.6 435.8l3 24.2-4.1 5-3.4-5.5 3.4-23.7c0 .1.5-1.1 1.1 0z"/><path class="st3" d="M885.7 425.7l-.5 8.6 3.7 4.2 3.9-3.7-.4-9.5z"/><g id="Layer_7_4_"><path class="st3" d="M883.7 433.4l2.2 5.5.6 1.5 1.4-2.3.9-1.6c.1-.1.2-.1.2 0v.1l1.2 1.7 1.8 2.6 1.3-7.3-.5-1.3-.1.1-3.8 3.8c-.1.1-.2 0-.2 0l-4.4-4.4-.6 1.6zm1.8-3.2c.5.5.9 1.1 1.6 1.5.4.2 1 .3 1.6.3h.2c.5.1.9 0 1.4-.1.7-.3 1.2-.8 1.8-1.3.4-.3.8-.6 1.3-.8.2-.1.5-.3.6-.5.2-.3.4-.6.5-1 .2-.5.2-1.4.6-1.8.4-.4.8-.5 1.1-1 .5-.9.8-2 .7-3 0-.3-.1-.8-.6-.5-.2.1-.1.4-.3.5l-.2.4h-.6c0-.4.1-.8.2-1.3.1-.9.2-1.8 0-2.7-.2-1.1-1.9-1.8-2.8-2.4-.2-.1-.4-.3-.5-.4-.3-.1-.1-.1-.4.1-1 .5-1.6 1.1-2.9 1-1-.1-2-.3-3-.3-1.4 0-2.7.9-2.9 2.3-.1.5 0 1-.1 1.6 0 .4-.1.7-.1 1.1v.4h-.7v-.8c0-.1 0-.1-.1-.2-.4-.3-.6.2-.6.5-.1 1 0 2.1.4 3.1.3.5.6.7 1 1.1.4.5.3 1.3.4 1.8.1.4.2.7.5 1 .1.2.3.4.5.5.5.2 1 .4 1.4.9z"/><path class="st6" d="M882 421.8v.3h.7v-.4c0-.4 0-.7.1-1.1.1-.5 0-1.1.1-1.6.2-1.3 1.5-2.2 2.9-2.3 1 0 2 .2 3 .3 1.3.1 1.9-.5 2.9-1 .3-.1.1-.2.4-.1.2.1.4.3.5.4.9.6 2.6 1.2 2.8 2.4.2.9.1 1.8 0 2.7-.1.4-.1.8-.2 1.3h.6l.2-.4c.2-.5.3-.9.4-1.1.2-.7.3-1.4.3-2.1.3-1.7.5-3.4-.6-4.9-1.1-1.6-2.9-2.6-3.9-2.6-.1 0-.7 0-.6.1-.3-.3-.9-.4-1.4-.5-2.3-.6-5.2.6-6.9 1.9-1.8 1.4-1.7 3.3-1.6 5.2 0 .6 0 1.4.2 2 .1.3.1.7.1 1 .1.2.1.3 0 .5z"/><path class="st10" d="M891 421.3c.7-.3 1.4-.3 2.1 0m-7.8 0c.7-.3 1.4-.3 2.1 0"/><circle class="st6" cx="891.9" cy="422.6" r=".5"/><circle class="st6" cx="886.6" cy="422.6" r=".5"/><path class="st10" d="M887.1 427.9s1.8 1.7 3.6.2m-1-6c-.1.6-.1 1.3 0 1.9.1.5.2.9.2 1.4.1.2.1.5 0 .7s-.3.4-.4.3"/></g></g><linearGradient id="SVGID_5_" gradientUnits="userSpaceOnUse" x1="185.2" y1="726.45" x2="321.9" y2="726.45" gradientTransform="matrix(1 0 0 -1 0 1000)"><stop offset=".001" stop-color="#fff" stop-opacity=".5"/><stop offset="1" stop-color="#ccc"/></linearGradient><path fill="url(#SVGID_5_)" d="M295.2 307.9h26.7l-6.9-11.2-126.5-57.5-3.3 2.6z"/><g id="Layer_9_6_"><path class="st15" d="M315.2 304.4l8.6-66.4-3.2-7-18.3-1.6-4.1 9 4.8 66h3.5l4-58.7s.8-1.4 1.9 0l-1.2 58.7h4z"/><path class="st3" d="M284.1 239.4l5.5-19.2 7.7-18.7s.9-1.2 10.5-2.6c0 0 5.9 3.3 8.5.3l8.1 1.5 7.5 20.9 3 18.1h-3.6l-7.5-23.2s-.1 12.7.3 23.2c0 0-10.8 3-26-1.4l-.9-19.3-9.5 20.4h-3.6"/><path class="st3" d="M287.8 239.4c2.3 3.5-1.1 2.3-1.1 2.3s-1.9 4.9-2.9 4.9c-1.4-.1.3-7.1.3-7.1l3.7-.1zm47.2.4s1.7 7 .3 7.1c-1 .1-2.9-4.9-2.9-4.9s-3.4 1.2-1.1-2.3l3.7.1z"/><path class="st4" d="M306.8 304.4v3.4h-1.9v-.8l-1.1.8h-8.7l7.7-3.4zm4.4 0v3.4h1.8v-.8l1.2.8h8.7l-7.7-3.4z"/><path class="st16" d="M312.7 201.2l2.8 22.8-3.9 4.7-3.2-5.2 3.2-22.2c.1 0 .5-1.1 1.1-.1z"/><path class="st3" d="M309 191.8l-.4 8 3.5 4 3.6-3.4-.4-9z"/><g id="Layer_7_14_"><path class="st3" d="M307.2 199l2.1 5.2.6 1.4 1.3-2.2.9-1.5c0-.1.1-.1.2 0v.1l1.1 1.6 1.7 2.5 1.3-6.8-.4-1.3-.1.1-3.6 3.5h-.2l-4.2-4.1-.7 1.5zm1.6-3.1c.5.5.9 1 1.5 1.4.4.2.9.2 1.5.2h.2c.4.1.9 0 1.3-.1.7-.3 1.1-.8 1.7-1.2.4-.3.8-.6 1.2-.8.2-.1.4-.3.6-.5.2-.3.4-.6.5-.9.2-.5.2-1.3.6-1.7.4-.3.8-.5 1-1 .5-.9.7-1.8.7-2.8 0-.3-.1-.7-.5-.5-.2.1-.1.4-.3.5l-.2.4h-.5c0-.4.1-.8.1-1.2.1-.9.2-1.7 0-2.6-.2-1.1-1.8-1.7-2.6-2.2-.1-.1-.3-.3-.5-.4-.3-.1-.1 0-.4.1-1 .5-1.5 1-2.7.9-1 0-1.9-.3-2.9-.3-1.3 0-2.5.9-2.7 2.1-.1.5 0 1-.1 1.5 0 .3-.1.7-.1 1v.3h-.7v-.8c0-.1 0-.1-.1-.2-.4-.3-.5.2-.6.4-.1 1 0 2 .4 2.9.2.5.6.7.9 1.1.4.4.3 1.2.4 1.7.1.3.2.7.4.9.1.2.3.3.5.5.6.7 1.1 1 1.4 1.3z"/><path class="st6" d="M305.6 188.1v.3h.7v-.3c0-.3 0-.7.1-1 .1-.5 0-1 .1-1.5.2-1.3 1.4-2.1 2.7-2.1 1 0 1.9.2 2.9.3 1.2.1 1.7-.4 2.7-.9.3-.1.1-.2.4-.1.2 0 .4.3.5.4.9.6 2.4 1.1 2.6 2.2.2.9.1 1.7 0 2.6-.1.4-.1.8-.1 1.2h.5l.2-.4c.2-.4.3-.9.4-1.1.2-.7.3-1.3.3-2 .3-1.6.5-3.2-.6-4.6-1.1-1.5-2.7-2.5-3.7-2.4-.1 0-.7 0-.6.1-.3-.3-.9-.3-1.3-.4-2.1-.6-4.9.5-6.5 1.8-1.7 1.3-1.6 3.1-1.5 4.9 0 .6 0 1.3.1 1.9.1.3.1.6.1.9.1-.1.1 0 0 .2z"/><path class="st10" d="M314 187.6c.6-.3 1.3-.3 2 0m-7.3 0c.6-.3 1.3-.3 2 0"/><circle class="st6" cx="314.9" cy="188.8" r=".5"/><circle class="st6" cx="310" cy="188.8" r=".5"/><path class="st10" d="M310.4 193.8s1.7 1.6 3.4.2m-.9-5.7c-.1.6-.1 1.2 0 1.8.1.4.2.9.2 1.3v.7c-.1.2-.3.4-.4.2"/></g></g><linearGradient id="SVGID_6_" gradientUnits="userSpaceOnUse" x1="461.2" y1="680.85" x2="597.9" y2="680.85" gradientTransform="matrix(1 0 0 -1 0 1000)"><stop offset=".001" stop-color="#fff" stop-opacity=".5"/><stop offset="1" stop-color="#ccc"/></linearGradient><path fill="url(#SVGID_6_)" d="M571.3 353.5h26.6l-6.8-11.2-126.5-57.5-3.4 2.6z"/><g id="Layer_9_5_"><path class="st15" d="M591.3 350l8.6-66.4-3.2-7-18.3-1.6-4.1 9 4.8 66h3.5l4-58.7s.8-1.4 1.9 0l-1.2 58.7h4z"/><path class="st3" d="M560.2 285.1l5.5-19.2 7.7-18.7s.9-1.2 10.5-2.6c0 0 5.9 3.3 8.5.3l8.1 1.5 7.5 20.9 3 18.1h-3.6l-7.5-23.2s-.1 12.7.3 23.2c0 0-10.8 3-26-1.4l-.9-19.3-9.5 20.4h-3.6"/><path class="st3" d="M563.8 285.1c2.3 3.5-1.1 2.3-1.1 2.3s-1.9 4.9-2.9 4.9c-1.4-.1.3-7.1.3-7.1l3.7-.1zm47.3.3s1.7 7 .3 7.1c-1 .1-2.9-4.9-2.9-4.9s-3.4 1.2-1.1-2.3l3.7.1z"/><path class="st4" d="M582.9 350v3.4H581v-.8l-1.2.8h-8.7l7.8-3.4zm4.3 0v3.4h1.9v-.8l1.2.8h8.7l-7.8-3.4z"/><path class="st16" d="M588.8 246.9l2.8 22.8-3.9 4.7-3.2-5.2 3.2-22.2s.5-1.2 1.1-.1z"/><path class="st3" d="M585.1 237.4l-.5 8.1 3.6 3.9 3.6-3.4-.4-9z"/><g id="Layer_7_12_"><path class="st3" d="M583.2 244.6l2.1 5.2.6 1.4 1.3-2.2.9-1.5c0-.1.1-.1.2 0v.1l1.1 1.6 1.7 2.5 1.3-6.8-.5-1.3-.1.1-3.6 3.5h-.2l-4.2-4.1-.6 1.5zm1.7-3c.5.5.9 1 1.5 1.4.4.2.9.2 1.5.2h.2c.4.1.9 0 1.3-.1.7-.3 1.1-.8 1.7-1.2.4-.3.8-.6 1.2-.8.2-.1.4-.3.6-.5.2-.3.4-.6.5-.9.2-.5.2-1.3.6-1.7.4-.3.8-.5 1-1 .5-.9.7-1.8.7-2.8 0-.3-.1-.7-.5-.5-.2.1-.1.4-.3.5l-.2.4h-.5c0-.4.1-.8.1-1.2.1-.9.2-1.7 0-2.6-.2-1.1-1.8-1.7-2.6-2.2-.1-.1-.3-.3-.5-.4-.3-.1-.1 0-.4.1-1 .5-1.5 1-2.7.9-1 0-1.9-.3-2.9-.3-1.3 0-2.5.9-2.7 2.1-.1.5 0 1-.1 1.5 0 .3-.1.7-.1 1v.3h-.7v-.8c0-.1 0-.1-.1-.2-.4-.3-.5.2-.6.4-.1 1 0 2 .4 2.9.2.5.6.7.9 1.1.4.4.3 1.2.4 1.7.1.3.2.7.4.9.1.2.3.3.5.5.6.6 1.1.9 1.4 1.3z"/><path class="st6" d="M581.7 233.7v.3h.7v-.3c0-.3 0-.7.1-1 .1-.5 0-1 .1-1.5.2-1.3 1.4-2.1 2.7-2.1 1 0 1.9.2 2.9.3 1.2.1 1.7-.4 2.7-.9.3-.1.1-.2.4-.1.2 0 .4.3.5.4.9.6 2.4 1.1 2.6 2.2.2.9.1 1.7 0 2.6-.1.4-.1.8-.1 1.2h.5l.2-.4c.2-.4.3-.9.4-1.1.2-.7.3-1.3.3-2 .3-1.6.5-3.2-.6-4.6-1.1-1.5-2.7-2.5-3.7-2.4-.1 0-.7 0-.6.1-.3-.3-.9-.3-1.3-.4-2.1-.6-4.9.5-6.5 1.8-1.7 1.3-1.6 3.1-1.5 4.9 0 .6 0 1.3.1 1.9.1.3.1.6.1.9v.2z"/><path class="st10" d="M590.1 233.2c.6-.3 1.3-.3 2 0m-7.3 0c.6-.3 1.3-.3 2 0"/><circle class="st6" cx="591" cy="234.4" r=".5"/><circle class="st6" cx="586" cy="234.4" r=".5"/><path class="st10" d="M586.5 239.4s1.7 1.6 3.4.2m-1-5.6c-.1.6-.1 1.2 0 1.8.1.4.2.9.2 1.3v.7c-.1.2-.3.4-.4.2"/></g></g><linearGradient id="SVGID_7_" gradientUnits="userSpaceOnUse" x1="521.8" y1="242.25" x2="667.2" y2="242.25" gradientTransform="matrix(1 0 0 -1 0 1000)"><stop offset=".001" stop-color="#fff" stop-opacity=".5"/><stop offset="1" stop-color="#ccc"/></linearGradient><path fill="url(#SVGID_7_)" d="M638.9 794.3h28.3l-7.3-12-134.6-61.1-3.5 2.8z"/><g id="Layer_9_2_"><path class="st15" d="M660.1 790.5l9.1-70.7-3.4-7.5-19.5-1.7-4.3 9.6 5.1 70.2h3.8l4.2-62.4s.9-1.5 2 0l-1.3 62.4h4.3v.1z"/><path class="st3" d="M627 721.5l5.9-20.4 8.2-19.9s.9-1.3 11.2-2.7c0 0 6.2 3.5 9.1.3l8.6 1.6 8 22.3 3.2 19.2h-3.8l-8-24.6s-.1 13.5.3 24.6c0 0-11.5 3.2-27.7-1.5l-1-20.5-10.1 21.7-3.9-.1"/><path class="st3" d="M630.9 721.5c2.5 3.7-1.1 2.4-1.1 2.4s-2 5.3-3.1 5.2c-1.5-.1.3-7.6.3-7.6h3.9zm50.3.3s1.8 7.4.3 7.6c-1.1.1-3.1-5.2-3.1-5.2s-3.6 1.3-1.1-2.4h3.9z"/><path class="st4" d="M651.2 790.5v3.7h-2v-.9l-1.2.9h-9.3l8.2-3.7zm4.6 0v3.7h2v-.9l1.3.9h9.2l-8.2-3.7z"/><path class="st16" d="M657.5 680.8l3 24.2-4.1 5-3.4-5.5 3.4-23.7c0 .1.4-1.1 1.1 0z"/><path class="st3" d="M653.6 670.8l-.5 8.5 3.7 4.3 3.9-3.7-.5-9.5z"/><g id="Layer_7_7_"><path class="st3" d="M651.6 678.4l2.2 5.5.6 1.5 1.4-2.3.9-1.6c.1-.1.2-.1.2 0v.1l1.2 1.7 1.8 2.6 1.3-7.3-.5-1.3-.1.1-3.8 3.8c-.1.1-.2 0-.2 0l-4.4-4.4-.6 1.6zm1.7-3.2c.5.5.9 1.1 1.6 1.5.4.2 1 .3 1.6.3h.2c.5.1.9 0 1.4-.1.7-.3 1.2-.8 1.8-1.3.4-.3.8-.6 1.3-.8.2-.1.5-.3.6-.5.2-.3.4-.6.5-1 .2-.5.2-1.4.6-1.8.4-.4.8-.5 1.1-1 .5-.9.8-2 .7-3 0-.3-.1-.8-.6-.5-.2.1-.1.4-.3.5l-.2.4h-.6c0-.4.1-.8.2-1.3.1-.9.2-1.8 0-2.7-.2-1.1-1.9-1.8-2.8-2.4-.2-.1-.4-.3-.5-.4-.3-.1-.1-.1-.4.1-1 .5-1.6 1.1-2.9 1-1-.1-2-.3-3-.3-1.4 0-2.7.9-2.9 2.3-.1.5 0 1-.1 1.6 0 .4-.1.7-.1 1.1v.4h-.7v-.8c0-.1 0-.1-.1-.2-.4-.3-.6.2-.6.5-.1 1 0 2.1.4 3.1.3.5.6.7 1 1.1.4.5.3 1.3.4 1.8.1.4.2.7.5 1 .1.2.3.4.5.5.6.2 1.1.5 1.4.9z"/><path class="st6" d="M649.9 666.9v.3h.7v-.4c0-.4 0-.7.1-1.1.1-.5 0-1.1.1-1.6.2-1.3 1.5-2.2 2.9-2.3 1 0 2 .2 3 .3 1.3.1 1.9-.5 2.9-1 .3-.1.1-.2.4-.1.2.1.4.3.5.4.9.6 2.6 1.2 2.8 2.4.2.9.1 1.8 0 2.7-.1.4-.1.8-.2 1.3h.6l.2-.4c.2-.5.3-.9.4-1.1.2-.7.3-1.4.3-2.1.3-1.7.5-3.4-.6-4.9-1.1-1.6-2.9-2.6-3.9-2.6-.1 0-.7 0-.6.1-.3-.3-.9-.4-1.4-.5-2.3-.6-5.2.6-6.9 1.9-1.8 1.4-1.7 3.3-1.6 5.2 0 .6 0 1.4.2 2 .1.3.1.7.1 1 .1.1.1.3 0 .5z"/><path class="st10" d="M658.8 666.3c.7-.3 1.4-.3 2.1 0m-7.7 0c.7-.3 1.4-.3 2.1 0"/><circle class="st6" cx="659.8" cy="667.6" r=".5"/><circle class="st6" cx="654.5" cy="667.6" r=".5"/><path class="st10" d="M655 672.9s1.8 1.7 3.6.2m-1-6c-.1.6-.1 1.3 0 1.9.1.5.2.9.2 1.4.1.2.1.5 0 .7s-.3.4-.4.3"/></g></g><linearGradient id="SVGID_8_" gradientUnits="userSpaceOnUse" x1="33.5" y1="563.95" x2="167.5" y2="563.95" gradientTransform="matrix(1 0 0 -1 0 1000)"><stop offset=".001" stop-color="#fff" stop-opacity=".5"/><stop offset="1" stop-color="#ccc"/></linearGradient><path fill="url(#SVGID_8_)" d="M141.4 469.8h26.1l-6.7-11-124.1-56.5-3.2 2.6z"/><g id="Layer_9_3_"><path class="st15" d="M161 466.3l8.4-65.2-3.2-6.9-18-1.5-4 8.8 4.7 64.8h3.5l3.9-57.6s.8-1.4 1.8 0l-1.2 57.6h4.1z"/><path class="st3" d="M130.5 402.6l5.4-18.8 7.6-18.3s.9-1.2 10.3-2.5c0 0 5.7 3.3 8.4.3l7.9 1.5 7.3 20.5 2.9 17.7h-3.5l-7.4-22.7s-.1 12.4.3 22.7c0 0-10.6 3-25.5-1.4l-.9-18.9-9.3 20h-3.5"/><path class="st3" d="M134.1 402.6c2.3 3.4-1 2.2-1 2.2s-1.9 4.8-2.8 4.8c-1.3-.1.3-7 .3-7h3.5zm46.3.4s1.6 6.9.3 7c-1 .1-2.8-4.8-2.8-4.8s-3.3 1.2-1-2.2h3.5z"/><path class="st4" d="M152.8 466.3v3.4H151v-.9l-1.2.9h-8.5l7.6-3.4zm4.3 0v3.4h1.8v-.9l1.1.9h8.6l-7.6-3.4z"/><path class="st16" d="M158.6 365.1l2.8 22.3-3.8 4.6-3.1-5.1 3.1-21.8c0 .1.4-1 1 0z"/><path class="st3" d="M155 355.9l-.5 7.9 3.5 3.9 3.6-3.4-.5-8.8z"/><g id="Layer_7_9_"><path class="st3" d="M153.2 362.9l2 5.1.5 1.4 1.3-2.2.9-1.4c0-.1.1-.1.2 0v.1l1.1 1.6 1.7 2.4 1.2-6.7-.4-1.2-.1.1-3.5 3.5h-.2l-4.1-4.1-.6 1.4zm1.6-2.9c.4.5.9 1 1.5 1.4.4.2.9.2 1.4.2h.2c.4.1.8 0 1.3-.1.7-.3 1.1-.7 1.6-1.2.4-.3.8-.6 1.2-.8.2-.1.4-.3.6-.5.2-.3.4-.6.5-.9.2-.5.1-1.3.6-1.6.4-.3.7-.5 1-.9.5-.8.7-1.8.7-2.8 0-.3-.1-.7-.5-.5-.2.1-.1.4-.3.5l-.2.4h-.5c0-.4.1-.8.1-1.2.1-.8.1-1.7 0-2.5-.2-1.1-1.7-1.6-2.6-2.2-.1-.1-.3-.3-.5-.4-.3-.1-.1 0-.4.1-.9.5-1.5 1-2.6.9-.9 0-1.9-.3-2.8-.3-1.3 0-2.5.8-2.7 2.1-.1.5 0 1-.1 1.4 0 .3-.1.7-.1 1v.3h-.7v-.7c0-.1 0-.1-.1-.2-.4-.3-.5.2-.6.4-.1 1 0 1.9.4 2.8.2.5.6.7.9 1 .4.4.3 1.2.4 1.7.1.3.2.6.4.9.1.2.3.3.4.5.7.5 1.1.8 1.5 1.2z"/><path class="st6" d="M151.6 352.3v.3h.7v-.3c0-.3 0-.7.1-1 .1-.5 0-1 .1-1.4.2-1.2 1.4-2.1 2.7-2.1.9 0 1.9.2 2.8.3 1.2.1 1.7-.4 2.6-.9.3-.1.1-.2.4-.1.2 0 .4.3.5.4.8.5 2.4 1.1 2.6 2.2.2.8.1 1.7 0 2.5-.1.4-.1.8-.1 1.2h.5l.2-.4c.2-.4.3-.8.4-1 .2-.6.3-1.3.3-2 .3-1.6.4-3.1-.5-4.5-1.1-1.5-2.7-2.4-3.6-2.4-.1 0-.7 0-.6.1-.3-.3-.9-.3-1.3-.4-2.1-.6-4.8.5-6.4 1.7-1.7 1.3-1.5 3.1-1.4 4.8 0 .6 0 1.3.1 1.8.1.3.1.6.1.9-.1 0-.2.1-.2.3z"/><path class="st10" d="M159.8 351.8c.6-.3 1.3-.3 1.9 0m-7.1 0c.6-.3 1.3-.3 1.9 0"/><circle class="st6" cx="160.7" cy="353" r=".5"/><circle class="st6" cx="155.9" cy="353" r=".5"/><path class="st10" d="M156.3 357.9s1.6 1.6 3.3.2m-.9-5.6c-.1.6-.1 1.2 0 1.7.1.4.2.9.2 1.3v.7c-.1.2-.2.3-.4.2"/></g></g><linearGradient id="SVGID_9_" gradientUnits="userSpaceOnUse" x1="394.5" y1="125.75" x2="539.9" y2="125.75" gradientTransform="matrix(1 0 0 -1 0 1000)"><stop offset=".001" stop-color="#fff" stop-opacity=".5"/><stop offset="1" stop-color="#ccc"/></linearGradient><path fill="url(#SVGID_9_)" d="M511.6 910.8h28.3l-7.2-11.9-134.6-61.2-3.6 2.8z"/><g id="Layer_9_4_"><path class="st15" d="M532.9 907.1l9.1-70.7-3.4-7.5-19.5-1.7-4.3 9.6 5.1 70.2h3.8l4.2-62.4s.9-1.5 2 0l-1.3 62.4h4.3v.1z"/><path class="st3" d="M499.8 838l5.9-20.4 8.2-19.9s.9-1.3 11.2-2.7c0 0 6.2 3.5 9.1.3l8.6 1.6 8 22.3 3.2 19.2h-4l-8-24.6s-.1 13.5.3 24.6c0 0-11.5 3.2-27.7-1.5l-1-20.5-9.9 21.6h-3.9"/><path class="st3" d="M503.7 838c2.5 3.7-1.1 2.4-1.1 2.4s-2 5.3-3.1 5.2c-1.5-.1.3-7.6.3-7.6h3.9zm50.2.4s1.8 7.4.3 7.6c-1.1.1-3.1-5.2-3.1-5.2s-3.6 1.3-1.1-2.4h3.9z"/><path class="st4" d="M523.9 907.1v3.6h-2v-.9l-1.2.9h-9.3l8.3-3.6zm4.7 0v3.6h1.9v-.9l1.3.9h9.2l-8.2-3.6z"/><path class="st16" d="M530.2 797.4l3 24.2-4.1 5-3.4-5.5 3.4-23.7c0 .1.5-1.1 1.1 0z"/><path class="st3" d="M526.3 787.3l-.5 8.6 3.8 4.2 3.8-3.7-.4-9.5z"/><g id="Layer_7_10_"><path class="st3" d="M524.3 795l2.2 5.5.6 1.5 1.4-2.3.9-1.6c.1-.1.2-.1.2 0v.1l1.2 1.7 1.8 2.6 1.3-7.3-.5-1.3-.1.1-3.8 3.8c-.1.1-.2 0-.2 0l-4.4-4.4-.6 1.6zm1.8-3.2c.5.5.9 1.1 1.6 1.5.4.2 1 .3 1.6.3h.2c.5.1.9 0 1.4-.1.7-.3 1.2-.8 1.8-1.3.4-.3.8-.6 1.3-.8.2-.1.5-.3.6-.5.2-.3.4-.6.5-1 .2-.5.2-1.4.6-1.8.4-.4.8-.5 1.1-1 .5-.9.8-2 .7-3 0-.3-.1-.8-.6-.5-.2.1-.1.4-.3.5l-.2.4h-.6c0-.4.1-.8.2-1.3.1-.9.2-1.8 0-2.7-.2-1.1-1.9-1.8-2.8-2.4-.2-.1-.4-.3-.5-.4-.3-.1-.1-.1-.4.1-1 .5-1.6 1.1-2.9 1-1-.1-2-.3-3-.3-1.4 0-2.7.9-2.9 2.3-.1.5 0 1-.1 1.6 0 .4-.1.7-.1 1.1v.4h-.7v-.8c0-.1 0-.1-.1-.2-.4-.3-.6.2-.6.5-.1 1 0 2.1.4 3.1.3.5.6.7 1 1.1.4.5.3 1.3.4 1.8.1.4.2.7.5 1 .1.2.3.4.5.5.5.2 1 .4 1.4.9z"/><path class="st6" d="M522.7 783.4v.3h.7v-.4c0-.4 0-.7.1-1.1.1-.5 0-1.1.1-1.6.2-1.3 1.5-2.2 2.9-2.3 1 0 2 .2 3 .3 1.3.1 1.9-.5 2.9-1 .3-.1.1-.2.4-.1.2.1.4.3.5.4.9.6 2.6 1.2 2.8 2.4.2.9.1 1.8 0 2.7-.1.4-.1.8-.2 1.3h.6l.2-.4c.2-.5.3-.9.4-1.1.2-.7.3-1.4.3-2.1.3-1.7.5-3.4-.6-4.9-1.1-1.6-2.9-2.6-3.9-2.6-.1 0-.7 0-.6.1-.3-.3-.9-.4-1.4-.5-2.3-.6-5.2.6-6.9 1.9-1.8 1.4-1.7 3.3-1.6 5.2 0 .6 0 1.4.2 2 .1.3.1.7.1 1v.5z"/><path class="st10" d="M531.6 782.9c.7-.3 1.4-.3 2.1 0m-7.8 0c.7-.3 1.4-.3 2.1 0"/><circle class="st6" cx="532.5" cy="784.2" r=".5"/><circle class="st6" cx="527.3" cy="784.2" r=".5"/><path class="st10" d="M527.7 789.5s1.8 1.7 3.6.2m-1-6c-.1.6-.1 1.3 0 1.9.1.5.2.9.2 1.4.1.2.1.5 0 .7s-.3.4-.4.3"/></g></g><linearGradient id="SVGID_10_" gradientUnits="userSpaceOnUse" x1="731.2" y1="225.7" x2="866.4" y2="225.7" gradientTransform="matrix(1 0 0 -1 0 1000)"><stop offset=".001" stop-color="#fff" stop-opacity=".5"/><stop offset="1" stop-color="#ccc"/></linearGradient><path fill="url(#SVGID_10_)" d="M840.1 808.3h26.3l-6.7-11.1-125.2-56.9-3.3 2.6z"/><g id="Layer_8_2_"><path class="st3" d="M857.2 703.5v.2c0 .1-.1.1-.2.2-.8.6-1.6 1.2-2.5 1.6-.5.3-1.2.5-1.7.3-.3-.2-.6-.5-.7-.8l-.8-1.4c.5-.3.6-.9.6-1.5v-2.2c1.3-.7 2.8-1.1 4.3-1.1.5 0 .8.1.7.6s-.1.9-.1 1.4c.1.9.2 1.8.4 2.7z"/><path class="st4" d="M850.9 802.9v5.3h-.8l-.6-2.2-1.4 2.2h-7.8c3-.6 5.6-2.6 7-5.3h3.6zm5.1 0v5.3h.8l.6-2.2 1.4 2.2h7.8c-3-.6-5.6-2.6-7-5.3H856z"/><path class="st5" d="M855.8 802.9h3.3s6.7-47.1 6.2-58c-.3-6.9-4.2-10.5-4.2-10.5h-15.2s-3.8 3.6-4.2 10.5c-.5 10.9 6.2 58 6.2 58h3.3s1-56.9 2.4-56.3c-.1 0 2.9 22.1 2.2 56.3z"/><path class="st6" d="M843.7 702.5c.9-.2 1.8-.2 2.8-.6.1-.1.8-.5 1.4-.9l1-.8.3-1v.1c.5-1.4.7-2.9.5-4.4v-.2c-.4-.5-.6-1.2-.8-1.8 0-.2-.1-.5-.4-.5-.7 0-1-1.2-1.1-1.9 1.1-.9 2.5-1.4 3.7-2 1-.6 3.1-2 3.1-2 .7-.3 1.3-.6 1.9-1 .5-.3 2.4-1.2 2.3-1.9.1.8.5 1.4.7 2.2s.6 1.6.7 2.4c.3 1.6.3 3.4-.2 4.9-.4 1.2-1.2 2.2-2.1 3.1-.1 1-.1 2 .1 3v.1l.3 1 1.2 1 .3.3c1.5.6 3.5 1 3.8 1.1 1.3.4 2.4.8 3.2 1.4-.4-1.9-.9-3.9-1.5-5.8-.5-1.8-1.1-3.6-1.6-5.3s-.2-3.1-.4-4.8c-.5-5-3-8.7-8.1-9.5-4.7-.7-8.6 3.2-9.3 7.7-.1.5-.1 1.1-.1 1.7 0 1.5.1 3-.2 4.6-.4 2.2-.9 4.4-1.7 6.6-.4 1-1.2 2.5-2 4.1.1-.1.2-.1.4-.2.8-.4 1.3-.6 1.8-.7z"/><path class="st8" d="M835.8 735.7l7.1-21.3s-.5-1.4 2.4 11.3c.8 3.6-1.5 9.6-2.1 12.9 0 0 12.8 4.3 20.4-.5-1.1-1.4-2.8-6.6-2.7-11.7.1-3.9 1.8-7.7 2.4-10.2l.6-2.3 7 21.9 3.2-.4c-3.6-23.2-7.3-31.1-7.3-31.1-2.2-1.2-8.5-3.8-8.5-3.8-1.7 1.2-3.7.9-5.6.1-1.3-1.1-10.7 1.7-12 3.2-3.8 11.2-7.4 31.7-7.4 31.7l2.5.2z"/><path class="st10" d="M844.9 715.6s2.1 4.3 7 2m10.8-2s-2.1 4.3-7 2"/><path class="st3" d="M871.2 735.7c-2.9 2.4.3 2 .3 2s1.4 3.8 2.4 3.6c1.3-.2-.1-6.1-.1-6.1l-2.6.5zm-38-.5s-1.4 5.8-.1 6.1c1 .2 2.4-3.6 2.4-3.6s3.1.4.3-2l-2.6-.5z"/><g id="Layer_7_5_"><path class="st3" d="M853.6 703.2c.7 0 2.5-1.2 3.5-2.5l.8-1.4v-.1c-.2-1-.2-2-.1-3-.1.1-.3.3-.5.4l-.2.2c-.9.8-1.7 1.1-2.6 1.1-.9 0-1.7-.3-2.6-1.1l-.2-.2c-.7-.6-1.3-1.2-1.8-1.9v.2c.2 1.5 0 3-.5 4.4l.7 1.3c.9 1.3 2.8 2.6 3.5 2.6z"/><path class="st3" d="M851.6 696.6l.2.2c.9.8 1.7 1.1 2.6 1.1.9 0 1.7-.3 2.6-1.1l.2-.2c.2-.1.3-.3.5-.4.9-.9 1.7-1.9 2.1-3.1.5-1.5.5-3.3.2-4.9-.2-.8-.5-1.6-.7-2.4-.2-.7-.6-1.4-.7-2.2.1.7-1.8 1.5-2.3 1.9-.6.4-1.2.6-1.9 1-.1 0-2.1 1.4-3.1 2-1.2.7-2.7 1.1-3.7 2 .1.7.5 1.9 1.1 1.9.2 0 .3.3.4.5.1.7.4 1.3.8 1.8.5.7 1.1 1.3 1.7 1.9z"/><path class="st8" d="M855.3 705.7l-.5-.6-.4.8c-.1.2-.1.4-.1.6l.7 3.4.5-1.5.5-1.5-.3-.5c-.1-.4-.3-.5-.4-.7zm-3.8.5l-.3.5.5 1.5.5 1.5.7-3.4c0-.2 0-.4-.1-.6l-.4-.8-.5.6c-.2.4-.3.5-.4.7z"/><path class="st23" d="M855 709.7l-.7-3.4c0-.2 0-.4.1-.6l.4-.8-1.2-1.5-1.2 1.5.4.8c.1.2.1.4.1.6l-.7 3.4.9 3h1l.9-3z"/><path class="st3" d="M857.9 699.3l-.8 1.4c-1 1.3-2.8 2.5-3.5 2.5s-2.6-1.3-3.5-2.5l-.7-1.3v-.1l-.3 1 2.2 6.5.3-.5c.1-.2.3-.4.4-.6l.5-.6 1.2-1.5 1.2 1.5.5.6c.2.2.3.4.4.6l.3.5 2.2-6.5-.4-1z"/><path class="st3" d="M860.2 708.5l-1.6-2.9 2.2.2c-.2-.6-.6-3.3-1.1-4.2-.1-.1-.1-.2-.3-.3l-1.2-1-2.2 6.5-.5 1.5-.5 1.5-2.7 11.2 7.9-12.5z"/><path class="st3" d="M853.8 714.9l-1.6-5.1-.5-1.5-.5-1.5-2.2-6.5-1 .8-.2.2c-.7.3-1.2 3.8-1.4 4.5l2.2-.2-1.6 2.9c-.1.1 4.7 7.3 6.1 9.4l.7-3z"/><path class="st10" d="M856.8 689.3c.6-.3 1.4-.3 2 0m-7.5 0c.6-.3 1.4-.3 2 0"/><circle class="st6" cx="857.7" cy="690.5" r=".5"/><circle class="st6" cx="852.6" cy="690.5" r=".5"/><path class="st10" d="M853 694.5s1.7 1.7 3.5.2m-1-4.7c-.1.5-.1 1 0 1.5.1.4.2.8.3 1.1.1.2.1.4 0 .6-.1.2-.3.3-.5.2"/></g></g><linearGradient id="SVGID_11_" gradientUnits="userSpaceOnUse" x1="683.5" y1="299.7" x2="818.7" y2="299.7" gradientTransform="matrix(1 0 0 -1 0 1000)"><stop offset=".001" stop-color="#fff" stop-opacity=".5"/><stop offset="1" stop-color="#ccc"/></linearGradient><path fill="url(#SVGID_11_)" d="M792.4 734.3h26.3l-6.7-11.1-125.2-56.9-3.3 2.6z"/><g id="Layer_8_6_"><path class="st3" d="M809.5 629.5v.2c0 .1-.1.1-.2.2-.8.6-1.6 1.2-2.5 1.6-.5.3-1.2.5-1.7.3-.3-.2-.6-.5-.7-.8l-.8-1.4c.5-.3.6-.9.6-1.5v-2.2c1.3-.7 2.8-1.1 4.3-1.1.5 0 .8.1.7.6s-.1.9-.1 1.4c.1.9.2 1.8.4 2.7z"/><path class="st4" d="M803.2 728.9v5.3h-.8l-.6-2.2-1.4 2.2h-7.8c3-.6 5.6-2.6 7-5.3h3.6zm5.1 0v5.3h.8l.6-2.2 1.4 2.2h7.8c-3-.6-5.6-2.6-7-5.3h-3.6z"/><path class="st5" d="M808.1 728.9h3.3s6.7-47.1 6.2-58c-.3-6.9-4.2-10.5-4.2-10.5h-15.2s-3.8 3.6-4.2 10.5c-.5 10.9 6.2 58 6.2 58h3.3s1-56.9 2.4-56.3c-.1 0 2.9 22.1 2.2 56.3z"/><path class="st6" d="M796 628.6c.9-.2 1.8-.2 2.8-.6.1-.1.8-.5 1.4-.9l1-.8.3-1v.1c.5-1.4.7-2.9.5-4.4v-.2c-.4-.5-.6-1.2-.8-1.8 0-.2-.1-.5-.4-.5-.7 0-1-1.2-1.1-1.9 1.1-.9 2.5-1.4 3.7-2 1-.6 3.1-2 3.1-2 .7-.3 1.3-.6 1.9-1 .5-.3 2.4-1.2 2.3-1.9.1.8.5 1.4.7 2.2s.6 1.6.7 2.4c.3 1.6.3 3.4-.2 4.9-.4 1.2-1.2 2.2-2.1 3.1-.1 1-.1 2 .1 3v.1l.3 1 1.2 1 .3.3c1.5.6 3.5 1 3.8 1.1 1.3.4 2.4.8 3.2 1.4-.4-1.9-.9-3.9-1.5-5.8-.5-1.8-1.1-3.6-1.6-5.3s-.2-3.1-.4-4.8c-.5-5-3-8.7-8.1-9.5-4.7-.7-8.6 3.2-9.3 7.7-.1.5-.1 1.1-.1 1.7 0 1.5.1 3-.2 4.6-.4 2.2-.9 4.4-1.7 6.6-.4 1-1.2 2.5-2 4.1.1-.1.2-.1.4-.2.8-.5 1.3-.6 1.8-.7z"/><path class="st8" d="M788.1 661.7l7.1-21.3s-.5-1.4 2.4 11.3c.8 3.6-1.5 9.6-2.1 12.9 0 0 12.8 4.3 20.4-.5-1.1-1.4-2.8-6.6-2.7-11.7.1-3.9 1.8-7.7 2.4-10.2l.6-2.3 7 21.9 3.2-.4c-3.6-23.2-7.3-31.1-7.3-31.1-2.2-1.2-8.5-3.8-8.5-3.8-1.7 1.2-3.7.9-5.6.1-1.3-1.1-10.7 1.7-12 3.2-3.8 11.2-7.4 31.7-7.4 31.7l2.5.2z"/><path class="st10" d="M797.2 641.7s2.1 4.3 7 2m10.8-2s-2.1 4.3-7 2"/><path class="st3" d="M823.5 661.7c-2.9 2.4.3 2 .3 2s1.4 3.8 2.4 3.6c1.3-.2-.1-6.1-.1-6.1l-2.6.5zm-38-.5s-1.4 5.8-.1 6.1c1 .2 2.4-3.6 2.4-3.6s3.1.4.3-2l-2.6-.5z"/><g id="Layer_7_13_"><path class="st3" d="M805.9 629.2c.7 0 2.5-1.2 3.5-2.5l.8-1.4v-.1c-.2-1-.2-2-.1-3-.1.1-.3.3-.5.4l-.2.2c-.9.8-1.7 1.1-2.6 1.1-.9 0-1.7-.3-2.6-1.1l-.2-.2c-.7-.6-1.3-1.2-1.8-1.9v.2c.2 1.5 0 3-.5 4.4l.7 1.3c.9 1.3 2.8 2.6 3.5 2.6z"/><path class="st3" d="M803.9 622.6l.2.2c.9.8 1.7 1.1 2.6 1.1.9 0 1.7-.3 2.6-1.1l.2-.2c.2-.1.3-.3.5-.4.9-.9 1.7-1.9 2.1-3.1.5-1.5.5-3.3.2-4.9-.2-.8-.5-1.6-.7-2.4-.2-.7-.6-1.4-.7-2.2.1.7-1.8 1.5-2.3 1.9-.6.4-1.2.6-1.9 1-.1 0-2.1 1.4-3.1 2-1.2.7-2.7 1.1-3.7 2 .1.7.5 1.9 1.1 1.9.2 0 .3.3.4.5.1.7.4 1.3.8 1.8.5.7 1.1 1.4 1.7 1.9z"/><path class="st8" d="M807.6 631.7l-.5-.6-.4.8c-.1.2-.1.4-.1.6l.7 3.4.5-1.5.5-1.5-.3-.5c-.1-.3-.3-.5-.4-.7zm-3.8.6l-.3.5.5 1.5.5 1.5.7-3.4c0-.2 0-.4-.1-.6l-.4-.8-.5.6c-.2.3-.3.5-.4.7z"/><path class="st23" d="M807.3 635.7l-.7-3.4c0-.2 0-.4.1-.6l.4-.8-1.2-1.5-1.2 1.5.4.8c.1.2.1.4.1.6l-.7 3.4.9 3h1l.9-3z"/><path class="st3" d="M810.2 625.3l-.8 1.4c-1 1.3-2.8 2.5-3.5 2.5s-2.6-1.3-3.5-2.5l-.7-1.3v-.1l-.3 1 2.2 6.5.3-.5c.1-.2.3-.4.4-.6l.5-.6 1.2-1.5 1.2 1.5.5.6c.2.2.3.4.4.6l.3.5 2.2-6.5-.4-1z"/><path class="st3" d="M812.5 634.5l-1.6-2.9 2.2.2c-.2-.6-.6-3.3-1.1-4.2-.1-.1-.1-.2-.3-.3l-1.2-1-2.2 6.5-.5 1.5-.5 1.5-2.7 11.2 7.9-12.5z"/><path class="st3" d="M806.1 640.9l-1.6-5.1-.5-1.5-.5-1.5-2.2-6.5-1 .8-.2.2c-.7.3-1.2 3.8-1.4 4.5l2.2-.2-1.6 2.9c-.1.1 4.7 7.3 6.1 9.4l.7-3z"/><path class="st10" d="M809.1 615.3c.6-.3 1.4-.3 2 0m-7.5 0c.6-.3 1.4-.3 2 0"/><circle class="st6" cx="810" cy="616.5" r=".5"/><circle class="st6" cx="804.9" cy="616.5" r=".5"/><path class="st10" d="M805.3 620.5s1.7 1.7 3.5.2m-1-4.7c-.1.5-.1 1 0 1.5.1.4.2.8.3 1.1.1.2.1.4 0 .6-.1.2-.3.3-.5.2"/></g></g><linearGradient id="SVGID_12_" gradientUnits="userSpaceOnUse" x1="298.6" y1="204" x2="433.8" y2="204" gradientTransform="matrix(1 0 0 -1 0 1000)"><stop offset=".001" stop-color="#fff" stop-opacity=".5"/><stop offset="1" stop-color="#ccc"/></linearGradient><path fill="url(#SVGID_12_)" d="M407.5 830h26.3l-6.8-11.1L301.9 762l-3.3 2.6z"/><g id="Layer_8_5_"><path class="st3" d="M424.6 725.2v.2c0 .1-.1.1-.2.2-.8.6-1.6 1.2-2.5 1.6-.5.3-1.2.5-1.7.3-.3-.2-.6-.5-.7-.8l-.8-1.4c.5-.3.6-.9.6-1.5v-2.2c1.3-.7 2.8-1.1 4.3-1.1.5 0 .8.1.7.6s-.1.9-.1 1.4c.1.9.2 1.8.4 2.7z"/><path class="st4" d="M418.2 824.6v5.3h-.8l-.6-2.2-1.4 2.2h-7.8c3-.6 5.6-2.6 7-5.3h3.6zm5.2 0v5.3h.8l.6-2.2 1.4 2.2h7.8c-3-.6-5.6-2.6-7-5.3h-3.6z"/><path class="st5" d="M423.2 824.6h3.3s6.7-47.1 6.2-58c-.3-6.9-4.2-10.5-4.2-10.5h-15.2s-3.8 3.6-4.2 10.5c-.5 10.9 6.2 58 6.2 58h3.3s1-56.9 2.4-56.3c-.2 0 2.9 22.1 2.2 56.3z"/><path class="st6" d="M411 724.3c.9-.2 1.8-.2 2.8-.6.1-.1.8-.5 1.4-.9l1-.8.3-1v.1c.5-1.4.7-2.9.5-4.4v-.2c-.4-.5-.6-1.2-.8-1.8 0-.2-.1-.5-.4-.5-.7 0-1-1.2-1.1-1.9 1.1-.9 2.5-1.4 3.7-2 1-.6 3.1-2 3.1-2 .7-.3 1.3-.6 1.9-1 .5-.3 2.4-1.2 2.3-1.9.1.8.5 1.4.7 2.2s.6 1.6.7 2.4c.3 1.6.3 3.4-.2 4.9-.4 1.2-1.2 2.2-2.1 3.1-.1 1-.1 2 .1 3v.1l.3 1 1.2 1 .3.3c1.5.6 3.5 1 3.8 1.1 1.3.4 2.4.8 3.2 1.4-.4-1.9-.9-3.9-1.5-5.8-.5-1.8-1.1-3.6-1.6-5.3s-.2-3.1-.4-4.8c-.5-5-3-8.7-8.1-9.5-4.7-.7-8.6 3.2-9.3 7.7-.1.5-.1 1.1-.1 1.7 0 1.5.1 3-.2 4.6-.4 2.2-.9 4.4-1.7 6.6-.4 1-1.2 2.5-2 4.1.1-.1.2-.1.4-.2.9-.5 1.4-.6 1.8-.7z"/><path class="st8" d="M403.1 757.4l7.1-21.3s-.5-1.4 2.4 11.3c.8 3.6-1.5 9.6-2.1 12.9 0 0 12.8 4.3 20.4-.5-1.1-1.4-2.8-6.6-2.7-11.7.1-3.9 1.8-7.7 2.4-10.2l.6-2.3 7 21.9 3.2-.4c-3.6-23.2-7.3-31.1-7.3-31.1-2.2-1.2-8.5-3.8-8.5-3.8-1.7 1.2-3.7.9-5.6.1-1.3-1.1-10.7 1.7-12 3.2-3.8 11.2-7.4 31.7-7.4 31.7l2.5.2z"/><path class="st10" d="M412.2 737.4s2.1 4.3 7 2m10.9-2s-2.1 4.3-7 2"/><path class="st3" d="M438.5 757.4c-2.9 2.4.3 2 .3 2s1.4 3.8 2.4 3.6c1.3-.2-.1-6.1-.1-6.1l-2.6.5zm-37.9-.5s-1.4 5.8-.1 6.1c1 .2 2.4-3.6 2.4-3.6s3.1.4.3-2l-2.6-.5z"/><g id="Layer_7_11_"><path class="st3" d="M420.9 724.9c.7 0 2.5-1.2 3.5-2.5l.8-1.4v-.1c-.2-1-.2-2-.1-3-.1.1-.3.3-.5.4l-.2.2c-.9.8-1.7 1.1-2.6 1.1s-1.7-.3-2.6-1.1l-.2-.2c-.7-.6-1.3-1.2-1.8-1.9v.2c.2 1.5 0 3-.5 4.4l.7 1.3c.9 1.3 2.9 2.6 3.5 2.6z"/><path class="st3" d="M419 718.3l.2.2c.9.8 1.7 1.1 2.6 1.1s1.7-.3 2.6-1.1l.2-.2c.2-.1.3-.3.5-.4.9-.9 1.7-1.9 2.1-3.1.5-1.5.5-3.3.2-4.9-.2-.8-.5-1.6-.7-2.4-.2-.7-.6-1.4-.7-2.2.1.7-1.8 1.5-2.3 1.9-.6.4-1.2.6-1.9 1-.1 0-2.1 1.4-3.1 2-1.2.7-2.7 1.1-3.7 2 .1.7.5 1.9 1.1 1.9.2 0 .3.3.4.5.1.7.4 1.3.8 1.8.4.7 1 1.4 1.7 1.9z"/><path class="st8" d="M422.6 727.4l-.5-.6-.4.8c-.1.2-.1.4-.1.6l.7 3.4.5-1.5.5-1.5-.3-.5c-.1-.3-.2-.5-.4-.7zm-3.8.6l-.3.5.5 1.5.5 1.5.7-3.4c0-.2 0-.4-.1-.6l-.4-.8-.5.6c-.1.3-.2.5-.4.7z"/><path class="st23" d="M422.4 731.4l-.7-3.4c0-.2 0-.4.1-.6l.4-.8-1.2-1.5-1.2 1.5.4.8c.1.2.1.4.1.6l-.7 3.4.9 3h1l.9-3z"/><path class="st3" d="M425.2 721l-.8 1.4c-1 1.3-2.8 2.5-3.5 2.5s-2.6-1.3-3.5-2.5l-.7-1.3v-.1l-.3 1 2.2 6.5.3-.5c.1-.2.3-.4.4-.6l.5-.6 1.2-1.5 1.2 1.5.5.6c.2.2.3.4.4.6l.3.5 2.2-6.5-.4-1zm2.4 9.2l-1.6-2.9 2.2.2c-.2-.6-.6-3.3-1.1-4.2-.1-.1-.1-.2-.3-.3l-1.2-1-2.2 6.5-.5 1.5-.5 1.5-2.7 11.2 7.9-12.5zm-6.5 6.4l-1.6-5.1-.5-1.5-.5-1.5-2.2-6.5-1 .8-.2.2c-.7.3-1.2 3.8-1.4 4.5l2.2-.2-1.6 2.9c-.1.1 4.7 7.3 6.1 9.4l.7-3z"/><path class="st10" d="M424.1 711c.6-.3 1.4-.3 2 0m-7.5 0c.6-.3 1.4-.3 2 0"/><circle class="st6" cx="425" cy="712.2" r=".5"/><circle class="st6" cx="419.9" cy="712.2" r=".5"/><path class="st10" d="M420.4 716.2s1.7 1.7 3.5.2m-1-4.7c-.1.5-.1 1 0 1.5.1.4.2.8.3 1.1.1.2.1.4 0 .6-.1.2-.3.3-.5.2"/></g></g><linearGradient id="SVGID_13_" gradientUnits="userSpaceOnUse" x1="692.1" y1="632.4" x2="827.3" y2="632.4" gradientTransform="matrix(1 0 0 -1 0 1000)"><stop offset=".001" stop-color="#fff" stop-opacity=".5"/><stop offset="1" stop-color="#ccc"/></linearGradient><path fill="url(#SVGID_13_)" d="M800.9 401.6h26.4l-6.8-11.1-125.2-56.9-3.2 2.6z"/><g id="Layer_8_4_"><path class="st3" d="M818.1 296.7v.2c0 .1-.1.1-.2.2-.8.6-1.6 1.2-2.5 1.6-.5.3-1.2.5-1.7.3-.3-.2-.6-.5-.7-.8l-.8-1.4c.5-.3.6-.9.6-1.5v-2.2c1.3-.7 2.8-1.1 4.3-1.1.5 0 .8.1.7.6s-.1.9-.1 1.4c0 1 .2 1.9.4 2.7z"/><path class="st4" d="M811.7 396.2v5.3h-.8l-.6-2.2-1.4 2.2h-7.8c3-.6 5.6-2.6 7-5.3h3.6zm5.2 0v5.3h.8l.6-2.2 1.4 2.2h7.8c-3-.6-5.6-2.6-7-5.3h-3.6z"/><path class="st5" d="M816.6 396.2h3.3s6.7-47.1 6.2-58c-.3-6.9-4.2-10.5-4.2-10.5h-15.2s-3.8 3.6-4.2 10.5c-.5 10.9 6.2 58 6.2 58h3.3s1-56.9 2.4-56.3c-.1 0 3 22.1 2.2 56.3z"/><path class="st6" d="M804.5 295.8c.9-.2 1.8-.2 2.8-.6.1-.1.8-.5 1.4-.9l1-.8.3-1v.1c.5-1.4.7-2.9.5-4.4v-.2c-.4-.5-.6-1.2-.8-1.8 0-.2-.1-.5-.4-.5-.7 0-1-1.2-1.1-1.9 1.1-.9 2.5-1.4 3.7-2 1-.6 3.1-2 3.1-2 .7-.3 1.3-.6 1.9-1 .5-.3 2.4-1.2 2.3-1.9.1.8.5 1.4.7 2.2.2.8.6 1.6.7 2.4.3 1.6.3 3.4-.2 4.9-.4 1.2-1.2 2.2-2.1 3.1-.1 1-.1 2 .1 3v.1l.3 1 1.2 1 .3.3c1.5.6 3.5 1 3.8 1.1 1.3.4 2.4.8 3.2 1.4-.4-1.9-.9-3.9-1.5-5.8-.5-1.8-1.1-3.6-1.6-5.3-.5-1.7-.2-3.1-.4-4.8-.5-5-3-8.7-8.1-9.5-4.7-.7-8.6 3.2-9.3 7.7-.1.5-.1 1.1-.1 1.7 0 1.5.1 3-.2 4.6-.4 2.2-.9 4.4-1.7 6.6-.4 1-1.2 2.5-2 4.1.1-.1.2-.1.4-.2.9-.4 1.3-.6 1.8-.7z"/><path class="st8" d="M796.6 328.9l7.1-21.3s-.5-1.4 2.4 11.3c.8 3.6-1.5 9.6-2.1 12.9 0 0 12.8 4.3 20.4-.5-1.1-1.4-2.8-6.6-2.7-11.7.1-3.9 1.8-7.7 2.4-10.2l.6-2.3 7 21.9 3.2-.4c-3.6-23.2-7.3-31.1-7.3-31.1-2.2-1.2-8.5-3.8-8.5-3.8-1.7 1.2-3.7.9-5.6.1-1.3-1.1-10.7 1.7-12 3.2-3.8 11.2-7.4 31.7-7.4 31.7l2.5.2z"/><path class="st10" d="M805.7 308.9s2.1 4.3 7 2m10.8-2s-2.1 4.3-7 2"/><path class="st3" d="M832 328.9c-2.9 2.4.3 2 .3 2s1.4 3.8 2.4 3.6c1.3-.2-.1-6.1-.1-6.1l-2.6.5zm-37.9-.4s-1.4 5.8-.1 6.1c1 .2 2.4-3.6 2.4-3.6s3.1.4.3-2l-2.6-.5z"/><g id="Layer_7_8_"><path class="st3" d="M814.4 296.5c.7 0 2.5-1.2 3.5-2.5l.8-1.4v-.1c-.2-1-.2-2-.1-3-.1.1-.3.3-.5.4l-.2.2c-.9.8-1.7 1.1-2.6 1.1-.9 0-1.7-.3-2.6-1.1l-.2-.2c-.7-.6-1.3-1.2-1.8-1.9v.2c.2 1.5 0 3-.5 4.4l.7 1.3c.9 1.3 2.8 2.5 3.5 2.6z"/><path class="st3" d="M812.5 289.9l.2.2c.9.8 1.7 1.1 2.6 1.1.9 0 1.7-.3 2.6-1.1l.2-.2c.2-.1.3-.3.5-.4.9-.9 1.7-1.9 2.1-3.1.5-1.5.5-3.3.2-4.9-.2-.8-.5-1.6-.7-2.4-.2-.7-.6-1.4-.7-2.2.1.7-1.8 1.5-2.3 1.9-.6.4-1.2.6-1.9 1-.1 0-2.1 1.4-3.1 2-1.2.7-2.7 1.1-3.7 2 .1.7.5 1.9 1.1 1.9.2 0 .3.3.4.5.1.7.4 1.3.8 1.8.4.7 1 1.3 1.7 1.9z"/><path class="st8" d="M816.1 299l-.5-.6-.4.8c-.1.2-.1.4-.1.6l.7 3.4.5-1.5.5-1.5-.3-.5c-.1-.4-.2-.6-.4-.7zm-3.8.5l-.3.5.5 1.5.5 1.5.7-3.4c0-.2 0-.4-.1-.6l-.4-.8-.5.6c-.1.3-.3.5-.4.7z"/><path class="st23" d="M815.9 303l-.7-3.4c0-.2 0-.4.1-.6l.4-.8-1.2-1.5-1.2 1.5.4.8c.1.2.1.4.1.6l-.8 3.4.9 3h1l1-3z"/><path class="st3" d="M818.7 292.5l-.8 1.4c-1 1.3-2.8 2.5-3.5 2.5s-2.6-1.3-3.5-2.5l-.7-1.3v-.1l-.3 1 2.2 6.5.3-.5c.1-.2.3-.4.4-.6l.5-.6 1.2-1.5 1.2 1.5.5.6c.2.2.3.4.4.6l.3.5 2.2-6.5-.4-1z"/><path class="st3" d="M821.1 301.7l-1.6-2.9 2.2.2c-.2-.6-.6-3.3-1.1-4.2-.1-.1-.1-.2-.3-.3l-1.2-1-2.2 6.5-.5 1.5-.5 1.5-2.7 11.2 7.9-12.5zm-6.5 6.4L813 303l-.5-1.5-.5-1.5-2.2-6.5-1 .8-.2.2c-.7.3-1.2 3.8-1.4 4.5l2.2-.2-1.6 2.9c-.1.1 4.7 7.3 6.1 9.4l.7-3z"/><path class="st10" d="M817.6 282.5c.6-.3 1.4-.3 2 0m-7.5 0c.6-.3 1.4-.3 2 0"/><circle class="st6" cx="818.5" cy="283.8" r=".5"/><circle class="st6" cx="813.4" cy="283.8" r=".5"/><path class="st10" d="M813.9 287.8s1.7 1.7 3.5.2m-1.1-4.7c-.1.5-.1 1 0 1.5.1.4.2.8.3 1.1.1.2.1.4 0 .6s-.3.3-.5.2"/></g></g><linearGradient id="SVGID_14_" gradientUnits="userSpaceOnUse" x1="84.3" y1="392.9" x2="219.5" y2="392.9" gradientTransform="matrix(1 0 0 -1 0 1000)"><stop offset=".001" stop-color="#fff" stop-opacity=".5"/><stop offset="1" stop-color="#ccc"/></linearGradient><path fill="url(#SVGID_14_)" d="M193.2 641.1h26.3l-6.8-11.1-125.1-56.9-3.3 2.7z"/><g id="Layer_8_3_"><path class="st3" d="M210.3 536.3v.2c0 .1-.1.1-.2.2-.8.6-1.6 1.2-2.5 1.6-.5.3-1.2.5-1.7.3-.3-.2-.6-.5-.7-.8l-.8-1.4c.5-.3.6-.9.6-1.5v-2.2c1.3-.7 2.8-1.1 4.3-1.1.5 0 .8.1.7.6s-.1.9-.1 1.4c.1.9.2 1.8.4 2.7z"/><path class="st4" d="M204 635.7v5.3h-.8l-.6-2.2-1.4 2.2h-7.8c3-.6 5.6-2.6 7-5.3h3.6zm5.1 0v5.3h.8l.6-2.2 1.4 2.2h7.8c-3-.6-5.6-2.6-7-5.3h-3.6z"/><path class="st5" d="M208.9 635.7h3.3s6.7-47.1 6.2-58c-.3-6.9-4.2-10.5-4.2-10.5H199s-3.8 3.6-4.2 10.5c-.5 10.9 6.2 58 6.2 58h3.3s1-56.9 2.4-56.3c-.2.1 2.9 22.1 2.2 56.3z"/><path class="st6" d="M196.7 535.4c.9-.2 1.8-.2 2.8-.6.1-.1.8-.5 1.4-.9l1-.8.3-1v.1c.5-1.4.7-2.9.5-4.4v-.2c-.4-.5-.6-1.2-.8-1.8 0-.2-.1-.5-.4-.5-.7 0-1-1.2-1.1-1.9 1.1-.9 2.5-1.4 3.7-2 1-.6 3.1-2 3.1-2 .7-.3 1.3-.6 1.9-1 .5-.3 2.4-1.2 2.3-1.9.1.8.5 1.4.7 2.2s.6 1.6.7 2.4c.3 1.6.3 3.4-.2 4.9-.4 1.2-1.2 2.2-2.1 3.1-.1 1-.1 2 .1 3v.1l.3 1 1.2 1 .3.3c1.5.6 3.5 1 3.8 1.1 1.3.4 2.4.8 3.2 1.4-.4-1.9-.9-3.9-1.5-5.8-.5-1.8-1.1-3.6-1.6-5.3s-.2-3.1-.4-4.8c-.5-5-3-8.7-8.1-9.5-4.7-.7-8.6 3.2-9.3 7.7-.1.5-.1 1.1-.1 1.7 0 1.5.1 3-.2 4.6-.4 2.2-.9 4.4-1.7 6.6-.4 1-1.2 2.5-2 4.1.1-.1.2-.1.4-.2.9-.5 1.4-.6 1.8-.7z"/><path class="st8" d="M188.9 568.5l7.1-21.3s-.5-1.4 2.4 11.3c.8 3.6-1.5 9.6-2.1 12.9 0 0 12.8 4.3 20.4-.5-1.1-1.4-2.8-6.6-2.7-11.7.1-3.9 1.8-7.7 2.4-10.2l.6-2.3 7 21.9 3.2-.4c-3.6-23.2-7.3-31.1-7.3-31.1-2.2-1.2-8.5-3.8-8.5-3.8-1.7 1.2-3.7.9-5.6.1-1.3-1.1-10.7 1.7-12 3.2-3.8 11.2-7.4 31.7-7.4 31.7l2.5.2z"/><path class="st10" d="M197.9 548.5s2.1 4.3 7 2m10.9-2s-2.1 4.3-7 2"/><path class="st3" d="M224.2 568.5c-2.9 2.4.3 2 .3 2s1.4 3.8 2.4 3.6c1.3-.2-.1-6.1-.1-6.1l-2.6.5zm-37.9-.4s-1.4 5.8-.1 6.1c1 .2 2.4-3.6 2.4-3.6s3.1.4.3-2l-2.6-.5z"/><g id="Layer_7_6_"><path class="st3" d="M206.7 536c.7 0 2.5-1.2 3.5-2.5l.8-1.4v-.1c-.2-1-.2-2-.1-3-.1.1-.3.3-.5.4l-.2.2c-.9.8-1.7 1.1-2.6 1.1-.9 0-1.7-.3-2.6-1.1l-.2-.2c-.7-.6-1.3-1.2-1.8-1.9v.2c.2 1.5 0 3-.5 4.4l.7 1.3c.8 1.4 2.8 2.6 3.5 2.6z"/><path class="st3" d="M204.7 529.5l.2.2c.9.8 1.7 1.1 2.6 1.1.9 0 1.7-.3 2.6-1.1l.2-.2c.2-.1.3-.3.5-.4.9-.9 1.7-1.9 2.1-3.1.5-1.5.5-3.3.2-4.9-.2-.8-.5-1.6-.7-2.4-.2-.7-.6-1.4-.7-2.2.1.7-1.8 1.5-2.3 1.9-.6.4-1.2.6-1.9 1-.1 0-2.1 1.4-3.1 2-1.2.7-2.7 1.1-3.7 2 .1.7.5 1.9 1.1 1.9.2 0 .3.3.4.5.1.7.4 1.3.8 1.8.4.6 1 1.3 1.7 1.9z"/><path class="st8" d="M208.4 538.5l-.5-.6-.4.8c-.1.2-.1.4-.1.6l.7 3.4.5-1.5.5-1.5-.3-.5c-.2-.3-.3-.5-.4-.7zm-3.9.6l-.3.5.5 1.5.5 1.5.7-3.4c0-.2 0-.4-.1-.6l-.4-.8-.5.6c-.1.3-.2.5-.4.7z"/><path class="st23" d="M208.1 542.6l-.7-3.4c0-.2 0-.4.1-.6l.4-.8-1.2-1.5-1.2 1.5.4.8c.1.2.1.4.1.6l-.7 3.4.9 3h1l.9-3z"/><path class="st3" d="M210.9 532.1l-.8 1.4c-1 1.3-2.8 2.5-3.5 2.5s-2.6-1.3-3.5-2.5l-.7-1.3v-.1l-.3 1 2.2 6.5.3-.5c.1-.2.3-.4.4-.6l.5-.6 1.2-1.5 1.2 1.5.5.6c.2.2.3.4.4.6l.3.5 2.2-6.5-.4-1zm2.4 9.2l-1.6-2.9 2.2.2c-.2-.6-.6-3.3-1.1-4.2-.1-.1-.1-.2-.3-.3l-1.2-1-2.2 6.5-.5 1.5-.5 1.5-2.7 11.2 7.9-12.5zm-6.5 6.4l-1.6-5.1-.5-1.5-.5-1.5-2.2-6.5-1 .8-.2.2c-.7.3-1.2 3.8-1.4 4.5l2.2-.2-1.6 2.9c-.1.1 4.7 7.3 6.1 9.4l.7-3z"/><path class="st10" d="M209.8 522.1c.6-.3 1.4-.3 2 0m-7.5 0c.6-.3 1.4-.3 2 0"/><circle class="st6" cx="210.7" cy="523.3" r=".5"/><circle class="st6" cx="205.6" cy="523.3" r=".5"/><path class="st10" d="M206.1 527.4s1.7 1.7 3.5.2m-1-4.7c-.1.5-.1 1 0 1.5.1.4.2.8.3 1.1.1.2.1.4 0 .6-.1.2-.3.3-.5.2"/></g></g><linearGradient id="SVGID_15_" gradientUnits="userSpaceOnUse" x1="609.3" y1="787.3" x2="729.4" y2="787.3" gradientTransform="matrix(1 0 0 -1 0 1000)"><stop offset=".001" stop-color="#fff" stop-opacity=".5"/><stop offset="1" stop-color="#ccc"/></linearGradient><path fill="url(#SVGID_15_)" d="M706 242.9h23.4l-6-9.8-111.2-50.6-2.9 2.3z"/><g id="Layer_8_8_"><path class="st3" d="M721.2 149.8v.2c0 .1-.1.1-.1.2-.7.6-1.4 1.1-2.2 1.5-.5.2-1 .5-1.5.2-.3-.2-.5-.4-.6-.7l-.7-1.2c.5-.2.5-.8.6-1.3v-2c1.2-.7 2.5-1 3.9-1 .5 0 .7.1.6.6 0 .5-.1.8-.1 1.2-.2.7-.1 1.5.1 2.3z"/><path class="st4" d="M715.6 238.1v4.7h-.7l-.5-2-1.2 2h-7c2.7-.6 5-2.3 6.2-4.7h3.2zm4.6 0v4.7h.7l.5-2 1.2 2h7c-2.7-.6-5-2.3-6.2-4.7h-3.2z"/><path class="st5" d="M720 238.1h2.9s6-41.8 5.5-51.5c-.3-6.1-3.7-9.3-3.7-9.3h-13.5s-3.4 3.2-3.7 9.3c-.5 9.7 5.5 51.5 5.5 51.5h2.9s.9-50.5 2.1-50c-.1 0 2.6 19.6 2 50z"/><path class="st6" d="M709.2 149c.8-.2 1.6-.2 2.5-.5.1 0 .7-.4 1.3-.8l.9-.7.3-.9v.1c.5-1.3.6-2.6.4-3.9v-.2c-.3-.5-.6-1-.7-1.6 0-.2-.1-.4-.3-.4-.6 0-.9-1.1-1-1.7 1-.8 2.3-1.2 3.3-1.8.9-.5 2.7-1.8 2.8-1.8.6-.3 1.2-.5 1.7-.9.4-.3 2.1-1.1 2-1.7.1.7.4 1.3.6 1.9.2.7.5 1.4.6 2.2.3 1.4.3 3-.2 4.4-.4 1.1-1.1 2-1.9 2.7-.1.9-.1 1.8.1 2.7v.1l.3.9 1.1.9c.1.1.2.2.2.3 1.3.5 3.2.9 3.4 1 1.2.3 2.1.7 2.8 1.3-.4-1.7-.8-3.4-1.3-5.1-.4-1.6-1-3.2-1.4-4.7s-.2-2.7-.3-4.3c-.4-4.5-2.7-7.8-7.2-8.5-4.2-.7-7.7 2.8-8.2 6.8-.1.5-.1 1-.1 1.5 0 1.3.1 2.7-.2 4.1-.3 2-.8 3.9-1.5 5.8-.3.9-1.1 2.3-1.7 3.7.1-.1.2-.1.3-.2.5-.5 1-.7 1.4-.7z"/><path class="st8" d="M702.2 178.4l6.3-19s-.5-1.2 2.1 10c.7 3.2-1.3 8.5-1.9 11.5 0 0 11.4 3.8 18.1-.5-1-1.3-2.5-5.9-2.4-10.4.1-3.5 1.6-6.8 2.2-9l.5-2.1 6.2 19.4 2.8-.4c-3.2-20.6-6.5-27.7-6.5-27.7-1.9-1.1-7.5-3.4-7.5-3.4-1.5 1.1-3.2.8-5 .1-1.2-.9-9.5 1.5-10.7 2.8-3.4 9.9-6.5 28.1-6.5 28.1l2.3.6z"/><path class="st10" d="M710.2 160.6s1.8 3.8 6.2 1.7m9.7-1.7s-1.8 3.8-6.2 1.7"/><path class="st3" d="M733.6 178.4c-2.6 2.1.2 1.8.2 1.8s1.3 3.4 2.1 3.2c1.2-.2-.1-5.4-.1-5.4l-2.2.4zm-33.7-.4s-1.2 5.2-.1 5.4c.9.2 2.1-3.2 2.1-3.2s2.8.4.2-1.8l-2.2-.4z"/><g id="Layer_7_16_"><path class="st3" d="M718 149.5c.6 0 2.2-1.1 3.1-2.2l.7-1.2v-.1c-.2-.9-.2-1.8-.1-2.7l-.4.4-.2.2c-.8.7-1.6 1-2.3 1-.8 0-1.5-.3-2.3-1l-.2-.2c-.6-.5-1.1-1.1-1.6-1.7v.2c.2 1.3 0 2.7-.4 3.9l.7 1.2c.7 1.1 2.4 2.2 3 2.2z"/><path class="st3" d="M716.3 143.7l.2.2c.8.7 1.6 1 2.3 1 .8 0 1.5-.3 2.3-1l.2-.2c.1-.1.3-.2.4-.4.8-.8 1.5-1.7 1.9-2.7.5-1.4.4-3 .2-4.4-.1-.7-.4-1.4-.6-2.2-.2-.6-.5-1.2-.6-1.9.1.6-1.6 1.4-2 1.7-.5.4-1.1.6-1.7.9-.1 0-1.9 1.3-2.8 1.8-1.1.6-2.4 1-3.3 1.8.1.6.4 1.7 1 1.7.2 0 .3.2.3.4.1.6.3 1.1.7 1.6.3.6.9 1.2 1.5 1.7z"/><path class="st8" d="M719.5 151.8l-.5-.6-.4.7c-.1.2-.1.3-.1.5l.7 3 .4-1.4.4-1.3-.3-.4c.1-.2-.1-.4-.2-.5zm-3.4.5l-.3.4.4 1.3.4 1.4.7-3c0-.2 0-.3-.1-.5l-.4-.7-.5.6c0 .1-.1.3-.2.5z"/><path class="st23" d="M719.3 155.3l-.7-3c0-.2 0-.3.1-.5l.4-.7-1.1-1.3-1.1 1.3.4.7c.1.1.1.3.1.5l-.7 3 .8 2.7h.9l.9-2.7z"/><path class="st3" d="M721.8 146.1l-.7 1.2c-.9 1.2-2.5 2.2-3.1 2.2s-2.3-1.1-3.1-2.2l-.7-1.2v-.1l-.3.9 1.9 5.8.3-.4c.1-.2.2-.3.4-.5l.5-.6 1.1-1.3 1.1 1.3.5.6c.1.2.3.3.4.5l.3.4 1.9-5.8-.5-.8z"/><path class="st3" d="M723.9 154.2l-1.5-2.6 2 .2c-.2-.5-.5-2.9-1-3.8-.1-.1-.1-.2-.2-.3l-1.1-.9-1.9 5.8-.4 1.3-.4 1.4-2.4 9.9 6.9-11z"/><path class="st3" d="M718.2 159.9l-1.4-4.6-.4-1.4-.4-1.3-1.9-5.8-.9.7-.2.1c-.6.3-1 3.4-1.2 4l2-.2-1.5 2.6c-.1.1 4.2 6.5 5.4 8.4l.5-2.5z"/><path class="st10" d="M720.8 137.2c.6-.3 1.2-.3 1.8 0m-6.7 0c.6-.3 1.2-.3 1.8 0"/><circle class="st6" cx="721.6" cy="138.3" r=".5"/><circle class="st6" cx="717.1" cy="138.3" r=".5"/><path class="st10" d="M717.5 141.8s1.5 1.5 3.1.1m-.9-4.1c-.1.4-.1.9 0 1.4.1.3.2.7.2 1 .1.2.1.3 0 .5s-.3.3-.4.2"/></g></g><linearGradient id="SVGID_16_" gradientUnits="userSpaceOnUse" x1="355.9" y1="806.35" x2="483" y2="806.35" gradientTransform="matrix(1 0 0 -1 0 1000)"><stop offset=".001" stop-color="#fff" stop-opacity=".5"/><stop offset="1" stop-color="#ccc"/></linearGradient><path fill="url(#SVGID_16_)" d="M458.3 225.6H483l-6.3-10.4L359 161.7l-3.1 2.4z"/><g id="Layer_8_7_"><path class="st3" d="M474.4 127v.2c0 .1-.1.1-.1.2-.7.6-1.5 1.1-2.3 1.5-.5.3-1.1.5-1.6.2-.3-.2-.5-.4-.7-.8l-.8-1.3c.5-.2.6-.9.6-1.4v-2.1c1.2-.7 2.6-1.1 4.1-1.1.5 0 .7.1.7.6-.1.5-.1.9-.1 1.3-.1 1.1 0 1.9.2 2.7z"/><path class="st4" d="M468.4 220.5v5h-.7l-.5-2.1-1.3 2.1h-7.4c2.8-.6 5.2-2.4 6.6-5h3.3zm4.8 0v5h.7l.5-2.1 1.3 2.1h7.4c-2.8-.6-5.3-2.4-6.6-5h-3.3z"/><path class="st5" d="M473 220.5h3.1s6.3-44.3 5.8-54.5c-.3-6.5-3.9-9.9-3.9-9.9h-14.3s-3.6 3.4-3.9 9.9c-.5 10.3 5.8 54.5 5.8 54.5h3.1s1-53.5 2.2-52.9c-.1 0 2.8 20.8 2.1 52.9z"/><path class="st6" d="M461.6 126.2c.9-.2 1.7-.2 2.7-.6.1-.1.8-.4 1.3-.8l1-.8.3-.9v.1c.5-1.3.6-2.8.4-4.2v-.2c-.4-.5-.6-1.1-.7-1.7 0-.2-.1-.4-.3-.4-.6 0-.9-1.2-1.1-1.8 1-.8 2.4-1.3 3.5-1.9 1-.5 2.9-1.9 2.9-1.9.6-.3 1.3-.5 1.8-.9.5-.3 2.2-1.1 2.2-1.8.1.7.4 1.3.6 2 .2.8.5 1.5.7 2.3.3 1.5.3 3.2-.2 4.6-.4 1.1-1.1 2.1-2 2.9-.1.9-.1 1.9.1 2.8v.1l.3.9 1.2.9c.1.1.2.2.2.3 1.4.5 3.3 1 3.5 1 1.3.4 2.2.7 3 1.3-.4-1.8-.9-3.6-1.4-5.4-.5-1.7-1-3.3-1.5-5-.5-1.6-.2-2.9-.3-4.5-.5-4.7-2.9-8.2-7.6-9-4.5-.7-8.1 3-8.7 7.2-.1.5-.1 1-.1 1.6 0 1.4.1 2.8-.2 4.3-.3 2.1-.9 4.2-1.6 6.2-.4 1-1.1 2.4-1.8 3.9.1-.1.2-.1.3-.2.6-.2 1.1-.3 1.5-.4z"/><path class="st8" d="M454.2 157.3l6.7-20.1s-.5-1.3 2.3 10.6c.8 3.3-1.4 9-2 12.1 0 0 12.1 4.1 19.1-.5-1-1.4-2.7-6.2-2.5-11 .1-3.7 1.7-7.2 2.3-9.5l.5-2.2 6.6 20.6 3-.4c-3.4-21.8-6.9-29.3-6.9-29.3-2-1.2-7.9-3.6-7.9-3.6-1.6 1.2-3.4.8-5.3.1-1.3-1-10.1 1.6-11.3 3-3.6 10.5-6.9 29.8-6.9 29.8l2.3.4z"/><path class="st10" d="M462.7 138.5s2 4.1 6.6 1.8m10.2-1.8s-2 4.1-6.6 1.8"/><path class="st3" d="M487.5 157.3c-2.7 2.2.2 1.9.2 1.9s1.3 3.6 2.3 3.4c1.2-.2-.1-5.7-.1-5.7l-2.4.4zm-35.7-.4s-1.3 5.5-.1 5.7c.9.2 2.3-3.4 2.3-3.4s3 .4.2-1.9l-2.4-.4z"/><g id="Layer_7_15_"><path class="st3" d="M470.9 126.8c.6 0 2.4-1.1 3.3-2.4l.7-1.3v-.1c-.2-.9-.2-1.9-.1-2.8l-.4.4-.2.2c-.8.7-1.6 1.1-2.5 1.1-.8 0-1.6-.3-2.5-1.1l-.2-.2c-.6-.5-1.2-1.1-1.7-1.8v.2c.2 1.4 0 2.8-.5 4.2l.7 1.3c1 1.1 2.8 2.3 3.4 2.3z"/><path class="st3" d="M469.1 120.6l.2.2c.8.7 1.6 1.1 2.5 1.1.8 0 1.6-.3 2.5-1.1l.2-.2.4-.4c.9-.8 1.6-1.8 2-2.9.5-1.4.5-3.1.2-4.6-.2-.8-.5-1.5-.7-2.3-.2-.7-.6-1.3-.6-2 .1.6-1.7 1.5-2.2 1.8-.5.4-1.2.6-1.8.9-.1 0-2 1.3-2.9 1.9-1.1.6-2.5 1.1-3.5 1.9.1.7.4 1.8 1.1 1.8.2 0 .3.2.3.4.1.6.4 1.2.7 1.7.4.7 1 1.3 1.6 1.8z"/><path class="st8" d="M472.5 129.1l-.5-.6-.4.7c-.1.2-.1.3-.1.5l.7 3.2.4-1.4.5-1.4-.3-.5c0-.1-.1-.3-.3-.5zm-3.5.6l-.3.5.5 1.4.4 1.4.7-3.2c0-.2 0-.4-.1-.5l-.4-.7-.5.6c-.1.1-.2.3-.3.5z"/><path class="st23" d="M472.3 132.9l-.7-3.2c0-.2 0-.4.1-.5l.4-.7-1.1-1.4-1.1 1.4.4.7c.1.2.1.3.1.5l-.7 3.2.9 2.9h1l.7-2.9z"/><path class="st3" d="M474.9 123.1l-.7 1.3c-.9 1.2-2.6 2.3-3.3 2.4-.6 0-2.4-1.2-3.3-2.4l-.7-1.3v-.1l-.3.9 2.1 6.1.3-.5c.1-.2.2-.4.4-.5l.5-.6 1.1-1.4 1.1 1.4.5.6c.1.2.3.3.4.5l.3.5 2.1-6.1-.5-.8z"/><path class="st3" d="M477.2 131.7l-1.5-2.8 2.1.2c-.2-.6-.6-3.1-1.1-4-.1-.1-.1-.2-.2-.3l-1.2-.9-2.1 6.1-.5 1.4-.4 1.4-2.5 10.5 7.4-11.6zm-6.1 6l-1.5-4.8-.4-1.4-.5-1.4-2.1-6.1-1 .8-.2.1c-.6.3-1.1 3.6-1.3 4.3l2.1-.2-1.5 2.8c-.1.1 4.4 6.9 5.7 8.8l.7-2.9z"/><path class="st10" d="M473.9 113.7c.6-.3 1.3-.3 1.9 0m-7.1 0c.6-.3 1.3-.3 1.9 0"/><circle class="st6" cx="474.8" cy="114.9" r=".5"/><circle class="st6" cx="470" cy="114.9" r=".5"/><path class="st10" d="M470.4 118.6s1.6 1.6 3.3.2m-1-4.4c-.1.5-.1 1 0 1.4s.2.7.3 1.1c.1.2.1.4 0 .5-.1.2-.3.3-.4.2"/></g></g><path class="st38" d="M506.4 288.6c49.6 0 96.2 19.3 131.3 54.4 35.1 35.1 54.4 81.7 54.4 131.3s-19.3 96.2-54.4 131.3C602.6 640.7 556 660 506.4 660s-96.2-19.3-131.3-54.4c-35.1-35.1-54.4-81.7-54.4-131.3S340.1 378 375.1 343c35.1-35.1 81.7-54.4 131.3-54.4m0-20c-113.6 0-205.7 92.1-205.7 205.7S392.8 680 506.4 680s205.7-92.1 205.7-205.7S620 268.6 506.4 268.6z"/><path fill="#9b9b9b" stroke="#000" stroke-width=".5" stroke-miterlimit="10" d="M252.854 646.883l61.215-48.828 26.44 33.149-61.214 48.827z"/><path class="st38" d="M299.4 590.9l13.1-10.4c5.2-4.1 12.7-3.3 16.9 1.9l29.1 36.4c4.1 5.2 3.3 12.7-1.9 16.9l-13.1 10.4c-5.2 4.1-12.7 3.3-16.9-1.9l-29.1-36.4c-4.1-5.2-3.3-12.8 1.9-16.9z"/><path class="st9" d="M138.9 796.8l-32-40.1c-4.8-6.1-3.8-14.9 2.2-19.7l132.6-105.7c6.1-4.8 14.9-3.8 19.7 2.2l32 40.1c4.8 6.1 3.8 14.9-2.2 19.7L158.6 799c-6 4.8-14.9 3.9-19.7-2.2z"/><path class="st23" d="M138.9 796.8l-32-40.1c-4.8-6.1-3.8-14.9 2.2-19.7l11.5-9.2 49.5 62-11.5 9.2c-6 4.8-14.9 3.9-19.7-2.2z"/></svg>