<svg version="1.1" id="Layer_1" xmlns="http://www.w3.org/2000/svg" xmlns:xlink="http://www.w3.org/1999/xlink" x="0" y="0" viewBox="0 0 1000 888" xml:space="preserve"><style>.st1{fill:#ccc}.st2{fill:#1a1a1a}.st3{fill:#0077bf}.st3,.st4,.st5{stroke:#000;stroke-width:.5;stroke-miterlimit:10}.st4{fill:#fff}.st5{fill:#f2f2f2}.st6,.st8{stroke-linecap:round;stroke-linejoin:round}.st6{stroke:#000;stroke-width:.5;fill:#f2f2f2}.st8{fill:#5e5e5e}.st10,.st8{stroke:#000;stroke-width:.5}.st10{fill:none;stroke-miterlimit:10}.st13{fill:#1a1a1a}.st13,.st14,.st15{stroke:#000;stroke-miterlimit:10;stroke-width:.5}.st14{fill:#eb058c}.st15{fill:#c10072}.st21{fill:#0077bf}</style><g id="Layer_1_1_"><path d="M283.7 352.1c86.6-1.9 121.1-105.7 146.8-151.8C462.5 143 527 69.7 667.1 86.9c0 0 234 14.9 252.2 305 0 0 17.6 129.6-87.8 293.9 0 0-101.4 127.1-239.2 140.6 0 0-238.2 26.8-404-105.3 0 0-200.2-130.6-56.9-308.5 22.6-28.1 81.2-58.9 152.3-60.5z" fill="#fff" id="Layer_6"/><ellipse class="st1" cx="282.3" cy="739.7" rx="113.2" ry="14.7"/><ellipse class="st1" cx="809.2" cy="745.3" rx="99.5" ry="12.9"/></g><g id="Layer_2_1_"><g id="Layer_12"><path class="st2" d="M330.7 729.2l-1.2 13 32.9 6.9s6.2-7.2-17.5-14.5l-1.1-5.4h-13.1z"/><path class="st3" d="M323.5 619.8l-60.6-126.3 58.4 7.9 38.4 115.5-7.8 115.7h-24.3l-4.1-112.8z"/><path class="st2" d="M262.4 730.2l-1.2 13 32.9 6.8s6.2-7.2-17.5-14.5l-1.1-5.4-13.1.1z"/><path class="st3" d="M276.3 618l-27-98.8c-4.2-14.6-1.8-30.3 6.5-43l9.4-14.3L304 489l8.4 133.2-28.9 112.5-23.8-4.7 16.6-112z"/><path class="st4" d="M389.4 566.2c5.8-3.8 4.7-13.3 1.2-17.2-1.2-1.3-4.8-6.3-4.8-6.3s-7-28.4-4.5-50.9c0 0 4.7-48 9-58.9 0-.1-17.1-30.5-19.5-21.2 0 0-14.5 47.7-7.7 84.4l6 34.1 3.1 11.5 5.1 12.5.9 4c3.1 7.8 3.6 13 11.2 8zM407 386.7c-.8-2.1.8-4.3 2.2-6 2-2.2 4.1-4.4 6.2-6.4-1.8-5.8-5-11.1-9.5-15.3-1.5-1.4-2.6-1.8-3.9-.1s-2.2 3-3.4 4.4c-2.4 2.7-5.2 5-8.3 6.9-.3.1-.6.4-.7.7-.1.3-.2.6-.1.9.5 3.9-.3 17.9 1 21.6l16.5-6.7z"/><path class="st5" d="M389.5 385.9s26.6 16.7 3 57.5c0 0-22.2-5.5-30.4-15.8 0 .1 2.4-52.7 27.4-41.7z"/><path class="st5" d="M327.5 520.1c-1.9-16.4 8.8-29.5 8.8-29.5l49.8-52.6 17.4-22.3 3.3-29s-16 1.1-16.9-15.8c0 0-35.3-6.2-48.1 6.9l-54.7 56-18.1 17.4s-9.4-2-9.5 5.1c0 0-5.9-1-5 4.1 9 48.9 73 59.7 73 59.7z"/><path class="st6" d="M352.9 556.5s-1.7-2.4 1.1-4.3 26.1-14.9 26.1-14.9-.5-2 2-3.1 20.1-11.5 20.1-11.5 2.6-2.3 4.6 0 10.6 16.4 11.2 18.3 1.1 4.9-2.2 7.1-35.4 20.9-40.3 22.8-9.7 4.6-14 1.5c0 0 .1 3.1-3.7 3.1s-18.9 1.8-18.9 1.8-2.3.7-3.5-2.6-8.1-16.3-8.1-16.3-1.6-3.2 1.6-4 19.2-1.4 20.6-.9 3.4 3 3.4 3z"/><path d="M389.5 533l9.3 14.9c.4.6.2 1.4-.4 1.7l-4.3 2.7c-.6.4-1.4.2-1.7-.4l-9.3-14.9c-.4-.6-.2-1.4.4-1.7l4.3-2.7c.6-.4 1.3-.2 1.7.4z" fill="#ffe600" stroke="#000" stroke-width=".5" stroke-linecap="round" stroke-linejoin="round"/><path class="st8" d="M364.9 567.5l-7-13.5c-.6-1-.2-2.3.8-2.8l18.3-10.3c1-.6 2.3-.2 2.8.8l7.7 13.8c.6 1 .2 2.3-.8 2.8l-19 10c-1 .6-2.2.2-2.8-.8z"/><path d="M377.2 544.3l1 1.7c.4.6.1 1.4-.5 1.8l-.8.5c-.6.4-1.4.1-1.8-.5l-1-1.7c-.4-.6-.1-1.4.5-1.8l.8-.5c.6-.4 1.4-.2 1.8.5zm2.9 5.1l1 1.7c.4.6.1 1.4-.5 1.8l-.8.5c-.6.4-1.4.1-1.8-.5l-1-1.7c-.4-.6-.1-1.4.5-1.8l.8-.5c.6-.3 1.4-.1 1.8.5zm2.8 5.2l1 1.7c.4.6.1 1.4-.5 1.8l-.8.5c-.6.4-1.4.1-1.8-.5l-1-1.7c-.4-.6-.1-1.4.5-1.8l.8-.5c.7-.4 1.5-.2 1.8.5zm-10.1-7.9l1 1.7c.4.6.1 1.4-.5 1.8l-.8.5c-.6.4-1.4.1-1.8-.5l-1-1.7c-.4-.6-.1-1.4.5-1.8l.8-.5c.6-.3 1.4-.1 1.8.5zm2.9 5.2l1 1.7c.4.6.1 1.4-.5 1.8l-.8.5c-.6.4-1.4.1-1.8-.5l-1-1.7c-.4-.6-.1-1.4.5-1.8l.8-.5c.6-.4 1.4-.2 1.8.5zm2.8 5.1l1 1.7c.4.6.1 1.4-.5 1.8l-.8.5c-.6.4-1.4.1-1.8-.5l-1-1.7c-.4-.6-.1-1.4.5-1.8l.8-.5c.7-.3 1.5-.1 1.8.5zm-10.1-7.8l1 1.7c.4.6.1 1.4-.5 1.8l-.8.5c-.6.4-1.4.1-1.8-.5l-1-1.7c-.4-.6-.1-1.4.5-1.8l.8-.5c.7-.4 1.5-.2 1.8.5zm2.9 5.1l1 1.7c.4.6.1 1.4-.5 1.8l-.8.5c-.6.4-1.4.1-1.8-.5l-1-1.7c-.4-.6-.1-1.4.5-1.8l.8-.5c.6-.3 1.4-.1 1.8.5zm2.9 5.2l1 1.7c.4.6.1 1.4-.5 1.8l-.8.5c-.6.4-1.4.1-1.8-.5l-1-1.7c-.4-.6-.1-1.4.5-1.8l.8-.5c.6-.4 1.4-.2 1.8.5zm-10.2-7.9l1 1.7c.4.6.1 1.4-.5 1.8l-.8.5c-.6.4-1.4.1-1.8-.5l-1-1.7c-.4-.6-.1-1.4.5-1.8l.8-.5c.7-.3 1.5-.1 1.8.5zm2.9 5.2l1 1.7c.4.6.1 1.4-.5 1.8l-.8.5c-.6.4-1.4.1-1.8-.5l-1-1.7c-.4-.6-.1-1.4.5-1.8l.8-.5c.6-.4 1.4-.2 1.8.5zm2.9 5.1l1 1.7c.4.6.1 1.4-.5 1.8l-.8.5c-.6.4-1.4.1-1.8-.5l-1-1.7c-.4-.6-.1-1.4.5-1.8l.8-.5c.6-.4 1.4-.1 1.8.5z" stroke-linecap="round" stroke-linejoin="round" fill="#878787" stroke="#000" stroke-width=".5"/><path class="st10" d="M363 564c-4-.3-5.3 1.7-5.3 1.7l-3-6.4s2.8-2.6 5-1.8m5.6 10.5s-3.2-.9-4.7 1.7l1.1 2.5m-3.5-17.6s-3.8.2-4.8 2.4l-1-1.2m6.4 15s1.5 1.6 0 1.8-17.2 1.9-17.2 1.9-2.5.7-3.3-.7-8.5-16-8.5-16-1.5-1.8 1.1-2.1 16.8-1 17.8-.8c1 .3 1.7 1.1 2.1 2m6.6 3l1.1 2.5m0-2.9l1.1 2.5m3.9 11.2s1.3-2.8 3.9-2 28.5-13.8 28.9-14.8-1.2-1 .3-1.9 17.8-11 18.3-10.7.5 1.5 2.1.5 1.5-2 1.5-2"/><path d="M398 531.2l4.3-2.6c2.1-1.2 4.7-.6 6 1.5l2.5 4.1c1.2 2.1.6 4.7-1.5 6l-4.3 2.6c-2.1 1.2-4.7.6-6-1.5l-2.5-4.1c-1.3-2.1-.6-4.8 1.5-6z" fill="#c4c4c4" stroke="#000" stroke-width=".5" stroke-linecap="round" stroke-linejoin="round"/><circle cx="403.9" cy="533.6" r=".4"/><circle cx="404.7" cy="535" r=".4"/><circle cx="405.6" cy="536.5" r=".4"/><circle cx="402.6" cy="534.3" r=".4"/><circle cx="403.5" cy="535.8" r=".4"/><circle cx="404.4" cy="537.2" r=".4"/><circle cx="401.4" cy="535.1" r=".4"/><circle cx="402.2" cy="536.5" r=".4"/><circle cx="403.1" cy="538" r=".4"/><path transform="rotate(-31.431 419.998 518.639)" class="st8" d="M410.4 518.1h19.2v1.1h-19.2z"/><path transform="rotate(-31.431 428.105 513.697)" class="st8" d="M427.4 511.9h1.5v3.8h-1.5z"/><path class="st6" d="M406.9 522.6s6.1-3.1 6.9-2.5c1.1 1 2 2.3 2.5 3.7.1.9-4.7 5.8-4.7 5.8l-4.7-7z"/><path class="st10" d="M409.3 521.4c1.7 1.8 3.1 3.8 4.3 6"/><path class="st4" d="M370 548.3s9.7.5 6.9 8.5c-2 5.6-.9-2-5.3-2.5-3.3-.5-1.6-6-1.6-6z"/><path class="st4" d="M374.3 572.6c5.8-3.8 2.3-16.4-1.2-20.3-1.2-1.3-4.8-6.3-4.8-6.3s-7-28.4-4.5-50.9c0 0 4.7-48 9-58.9 0-.1-17.1-30.5-19.5-21.2 0 0-14.5 47.7-7.7 84.4l6 34.1 3.1 11.6 5.1 12.5 3.1 7.8c3.1 7.7 3.7 12.2 11.4 7.2z"/><path class="st5" d="M371 384.9s26.6 16.7 3 57.5c0 0-22.2-5.5-30.4-15.8 0 .1 2.5-52.7 27.4-41.7z"/><path class="st4" d="M442.1 352.6c1.4-5.5 1.9-11.2 1.4-16.8-.9-7.6-2.1-15.6-7.3-21.2-3.1-3-6.8-5.4-10.7-7.1-2.8-1.6-5.8-2.7-9-3.3-2.7-.4-5.4-.2-8 .4-7.4 1.5-14 5.6-18.6 11.7-11.9 16.3-.2 37.8 10.9 51 4.2 4.9 9.7 9.6 16.1 9.4 17.9-.1 25.2-24.1 25.2-24.1z"/><path d="M413.5 328c-3.7-.5-7.2 1.5-8.6 5m34.6-1c-2-3.1-5.9-4.5-9.4-3.2" fill="#fff" stroke="#000" stroke-miterlimit="10"/><path class="st4" d="M423.4 351.5c1.3-.4 2.5-.9 3.7-1.5.3-.1.6-.3.8-.5.4-.7.5-1.5.1-2.3l-1.2-4"/><ellipse transform="rotate(-12.366 414.409 337.831)" class="st13" cx="414.3" cy="337.8" rx="1.8" ry="2.3"/><ellipse transform="rotate(-12.366 433.727 338.74)" class="st13" cx="433.7" cy="338.7" rx="1.8" ry="2.3"/><path class="st2" d="M394.5 337.4s-8.4-.9-.2 10.1c0 0-6 1.4-3 5.8 0 0-7.7-5-10.7-22.8 0 0-5.1-21.9 13.5-27.2 0 0 19.4-10 39 1.9 5.7 3.5 9.3 6.9 15.9 7.1 0 0 2.3 7.8-4.9 28.2 0 0-2.1-17.3-10.3-25.1 0 0-18 4.4-25 .2-.1-.2-8.1 1.8-14.3 21.8z"/><path class="st10" d="M412.5 353.2c-.8.7-1.3 1.8-1.1 2.9m23.6-20.2c-2.3.1-4.4 1.3-5.6 3.2m-14.3-4.5c-1.8.7-3.4 2-4.4 3.7m5 20.9s5.3 4.8 10.6 3.3"/></g><g id="Layer_7"><path class="st13" d="M843.3 422.4l-36.4-20.6c-.9-5-2.8-9.8-5.5-14.2-13.2-21.9-3.6-40.3-3.6-40.3 6.1-15.4 23-17.7 23-17.7 18.3-3 29.4 6.7 29.4 6.7s38.9 18.5 34.5 105.9c-.8 5.5 1.8 10.9 6.7 13.6-14.8 2.7-30.1-1.6-41.2-11.8-18.8-17.2-17.2-42.6-17.2-42.6"/><path class="st4" d="M795.2 728.8c-.1-.7-.2-1.5-.2-2.2.1 0 10.9-153.1 17.1-184.9 1.4-7 2.3-14.1 2.8-21.2 0-1 0-2.1-.1-3.1-1.1-12.3-12-21.4-24.4-20.3-9.4 1-17 8.2-18.5 17.6-5.4 35.8-4.9 72.2 1.6 107.9L787.7 726c.1 1.1.2 2.1.2 3.2"/><path class="st4" d="M876 730.2c-1.4-1-2.6-2.3-3.4-3.9-.6-1.4-1.1-2.9-1.6-4.4-3-13.5-19.6-87.4-22.5-99.3-3.2-13.1 0-33.4 0-33.4 4.2-37.4-.2-63.1-4.8-78.3-3.1-10.2-12.7-17-23.4-16.5l-21.1 1.8c-3.1 23.5 12.3 106.9 21.2 133 7.4 21.7 33.6 75.2 42.2 92.5 2.1 4.3 3.5 8.9 4.1 13.7M719.4 413.5s-5.1-5.1-7.1-8.5c-2.4-4.1 3.7-8.1 6.3-9.2 0 0-4.1-8.6-2-10.6 2.5-2.4 4.7 7.8 5.9 9.8s3 2.4 3.9 4.2-.5 12.9-.5 12.9l-6.5 1.4z"/><path class="st14" d="M822.2 406.6l-4.3.8c-3.8-.3-5.8-3.6-9.4-5.5-18.8-1-34.4 32.4-56 49-6.2 0-25-40.7-25-40.7l-9.5 2.4s10.6 49.5 30 61.1c4.2 2.5 9.5 2.1 13.3-.9 6.8-5.2 19.2-14.9 27.1-20.9 1.4 1.3 1.2 2.2 1.5 3.8.6 2.7-.1 5.6-2.7 11.1l-15.4 42c-.1.2-.2.5-.3.7-.6 2.1.5 4.3 2.6 4.9 20.8 6.6 53.4 5.8 69.5.2 1.4-.5 2.2-2.1 1.7-3.5l-3.2-9.8c-1.5-4.7-5.8-18.5-4.4-23.1l14-29.8c2.7-5.6 6.3-10.8 10.7-15.1 0 0 5.4-8.5-21.5-29.8"/><path class="st10" d="M790.7 433c-1.7 2.6-3.1 5.3-4.1 8.2-.9 3.2.2 8 1.8 10.9"/><path class="st4" d="M834.4 568.8c.7.5 2.2.2 3.7-1.3 1-1.1 2.2-3.7 3.4-3.2.3.2.3 1.1.3 1.4-.6 7-7.7 7.7-9.5 9.3-2.2 1.9 1.4 2.4 3.7 2.4 4.7-.2 8.2-.5 9.8-2.5 2.6-3.3 5.4-7.6 5.6-12.1-.1-2.2.3-4.4 1.2-6.4l1.3-3.4c1.3-2.5 1-5.1-1.6-6-2.4-.9-4.2.5-5.1 2.8l-1.9 4.8c-.4 1.2-2.1 2.2-3.1 3-.7.4-1.3.9-1.9 1.5-.8 1-2.2 3.8-4 6.4-1.1 1.7-2.6 2.8-1.9 3.3z"/><path class="st14" d="M882.4 482.2c1.5 5.8.9 11.9-1.6 17.3l-26.2 57.6c-3.5-.5-7-1.2-8.9-4.9l15.6-55.2c.8-2.9.3-6-1.2-8.6-8-28-21.3-54.3-19.2-61.5 3.2-11.1 11.3-14.6 14.7-11 10.4 10.9 22.2 48.6 26.8 66.3z"/><path class="st2" d="M785.6 727.8c-5.2 10.1-14.7 17.4-25.9 19.7h29l5.2-8.3 2.1 8.3h2.9v-19.7h-13.3zm78.4 0c-5.2 10.1-14.7 17.4-25.9 19.7h29l5.2-8.3 2.1 8.3h2.9v-19.7H864z"/><path class="st4" d="M831.8 411.5c2.7-2.3 5.3-4.8 7.5-7.5.5-.4.5-1.1.2-1.6-1.5-2.9-2.5-6-3.2-9.2-.3-1.6-.4-3.1-.6-5s-1.2-2.1-3-1.8c-5.3 1.1-10.2 3.6-14.3 7.1.7 2.6 1.2 5.2 1.7 7.8.3 2 .5 4.4-1.1 5.6-1.3 10.4 12.8 4.6 12.8 4.6z"/><path class="st4" d="M846.4 346.5c-3.8-5.6-9.5-9.7-16.1-11.4-2.3-.7-4.7-.9-7.1-.7-2.8.4-5.6 1.3-8.1 2.5-3.6 1.3-7 3.3-9.9 5.8-4.9 4.8-6.3 11.9-7.5 18.6-.7 4.1-1.4 8.3-.4 12.3.8 2.8 2.1 5.4 3.6 7.8 2.2 4 4.8 7.8 7.7 11.3 2.8 3.2 6.5 5.9 10.7 6.3 5.8.5 10.9-3.4 14.9-7.6 10.6-11.3 22-29.9 12.2-44.9z"/><path class="st2" d="M851.7 370.4l1.6-16.6-12.7-16.7-11.9-4.1-14.9 1-10.9 9-7.7 17.8.5 13.4 2.7 5.7c2-4.2 1.4-12.3 1.4-12.3.8-13.9 16.7-16.9 16.7-16.9 6.4-.9 12.1-7.1 12.1-7.1-3.4 16.3 18.8 34.3 18.8 34.3l4.3-7.5z"/><path class="st4" d="M819.2 366.9c.5-1.2 1.3-2.4 2.2-3.4.9-1 2.3-1.6 3.6-1.5.5.1 1 .3 1.5.5s.9.5 1.3.8c.5.5 1.1.9 1.7 1.3.6.4 1.4.4 2.1.1m-31.2-.9c1 .5 2.2.4 3.2-.2.9-.6 2-1.1 3.1-1.2 1.4.1 2.6.7 3.6 1.7l1.3 1m18.7-6.6c-3.6-2.4-8.3-1.9-11.4 1m-15.1-2.2c2.8-.9 5.9-.3 8.2 1.6m1.3 12.2l-1.3 3.5c-.6.7-.5 1.7.2 2.2.1.1.3.2.5.3 1.1.5 2.2 1 3.3 1.4m6.9 8.7c.4-.4 1.4-2 1-2.5-.1-.1-.2-.2-.3-.2-3.3-1.4-6.8-2.1-10.4-2-.5 0-1.1.2-1.3.7-.1.3 0 .5.1.8.3.9.9 1.6 1.3 2.5.3 1.1.7 2.1 1.2 3.1.6 1 1.8 1.7 2.8 1.2.2-.2.5-.3.7-.5.7-.5 1.4-.8 2.2-1.1.9-.5 1.9-1.1 2.7-2z"/><path class="st15" d="M813.9 389.5c.5-.7 1.5-.3 2.1-.3 1.9 0 3.8-.6 5.3-1.7 1.2-.8 2.3-1.7 3.2-2.8.1.6 0 1.3-.3 1.9-.4.6-.8 1.1-1.3 1.5-.7.6-1.2 1.2-1.9 1.8-.8.8-1.8 1.4-2.8 1.8-1.1.4-2.2.4-3.3 0-.8-.3-1.5-1.5-1-2.2z"/><path class="st15" d="M812.3 384.1c1.8-.3 3.6-.3 5.3 0 2.2.4 4.4 1.2 6.6.8.1 0 .3-.1.3-.2s-.1-.2-.2-.3c-2-1.2-4.1-2.2-6.4-2.9-2.3-.7-4.7-.5-6.9.4-2 1-.1 2.5 1.3 2.2z"/><ellipse transform="rotate(-74.478 823.599 364.435)" class="st13" cx="823.5" cy="364.4" rx="2.1" ry="1.6"/><ellipse transform="rotate(-74.478 806.319 364.3)" class="st13" cx="806.3" cy="364.3" rx="2.1" ry="1.6"/></g><path class="st10" d="M839.7 444.5s-4.5 13.7-16.2 15.3"/><path class="st4" d="M820.5 412.1s-16 13.6-20.8 27.6-1.9 42.5-1.9 42.5l4.8 1s.3-28.5 2.6-38.8c2.5-11.5 20.4-31.4 20.4-31.4s-3.5.5-5.1-.9z"/><path class="st4" d="M785.9 470.8s-4.8 2-5 13.8c0 0 13.8 9.7 57.7 3.7 0 0 2-5.9-.7-9.9 0 0-47.2 2.6-52-7.6z"/><circle class="st4" cx="800.2" cy="483.2" r="8.7"/><circle class="st4" cx="800.2" cy="483.2" r="4.8"/><path class="st4" d="M847.1 451s15.9 3.2 22.9-7.5c0 0 5.3 15.4 6 17.2 0 0-11 13.9-22.7 7l-6.2-16.7zm-71.4-24.2L765 439.2s.5 17.8 14.9 19.4l8-6.1s.9-.3-.2-1.8-2-7.4-1.1-9.5c0 0-9.8-9.8-10.9-14.4z"/><path class="st14" d="M816.6 616.2s21 5.3 30.5-6.5c.4 6.2 1.4 12.4 2.7 18.5l1.4 5.9s-19.8 16.5-26.1 7.1c-.1 0-6-14.8-8.5-25zm-12.8 0s-20.4 5.4-31.5-.5L776 641s4.3 5.4 25.5 1.5l2.3-26.3z"/><path class="st4" d="M857 551.8s-8.9-.9-9.7-5.2l3-10.8s7.5 5.7 11.9 4.5l-5.2 11.5zM719.4 418.7s2.9.7 10.8-2.5l4.8 9.6s-5.3 9.3-12.4 4.1l-3.2-11.2zm99.6-11.6s-1 .9-3.7-.2c0 0-5.1 12.9 13.9 10.9 1.1-.1 2.1-.4 3.1-.9 3.4-1.7 11.8-6.1 12.6-10l-5.3-3.7s-6 6.7-9 8-12.2 4.3-11.6-4.1zm-94.8-5.2s-1.1 3.8-3.1 4.7-2.9-7.4 3.7-9.2"/><path class="st10" d="M711.9 404.1s2.8 3.2 7.6.5"/><path opacity=".17" fill="#0077bf" stroke="#000" stroke-width=".5" stroke-miterlimit="10" d="M533 316.3v200.8l247.9 41.7V350.7z"/><defs><path id="SVGID_1_" d="M533 316.3v200.8l247.9 41.7V350.7z"/></defs><clipPath id="SVGID_2_"><use xlink:href="#SVGID_1_" overflow="visible"/></clipPath><g opacity=".6" clip-path="url(#SVGID_2_)"><path d="M553 312.5V562m20.3-249.5V562m20.4-249.5V562M614 312.5V562m20.3-249.5V562m20.4-249.5V562M675 312.5V562m20.3-249.5V562m20.4-249.5V562M736 312.5V562m20.3-249.5V562M472.5 326.3l370.4 52.3m-370.4-28.2l370.4 52.3m-370.4-28.1l370.4 52.3m-370.4-28.2L842.9 451m-370.4-28.1l370.4 52.3M472.5 447l370.4 52.3m-370.4-28.1l370.4 52.3m-370.4-28.2l370.4 52.3" fill="none" stroke="#fff" stroke-width="3" stroke-miterlimit="10"/></g><g opacity=".4"><path class="st21" d="M716.8 396.9c-7.3-.8-12.7-6.7-12-13.2s7.2-11.2 14.5-10.4 12.7 6.7 12 13.2-7.2 11.1-14.5 10.4zM719 376c-5.7-.6-10.7 3-11.2 8s3.7 9.6 9.3 10.2 10.7-3 11.2-8-3.7-9.7-9.3-10.2z"/><path class="st21" d="M716 403.8c-11.6-1.2-20.2-10.6-19.1-20.9s11.4-17.7 23-16.5 20.2 10.6 19.1 20.9-11.3 17.7-23 16.5zm3.5-33.2c-9-1-17 4.8-17.8 12.8s5.8 15.2 14.8 16.2 17-4.8 17.8-12.8-5.8-15.3-14.8-16.2zM553 506.7V361.8l17.9 2.5v144.9m61.5 9.6v-61.5l17.8 2.6v61.5m67.5 9.6v-61.6l17.9 2.6v61.5m11.6 1.1v-49.5l17.8 2.5v49.5m-188-27.3V393l17.9 2.5v116.8m65.6 10.5V406l17.9 2.5v116.8m-76.8-11.5v-91.3l17.8 2.5v91.4m68.5 9.5v-83.3l17.9 2.5v83.4"/></g><ellipse transform="rotate(-84.03 717.95 385.045)" cx="718" cy="385.1" rx="3.8" ry="4.2" opacity=".4" fill="#0077bf"/><path class="st10" d="M533 316.3v200.8l247.9 41.7V350.7z"/></g></svg>