<svg version="1.1" id="Layer_1" xmlns="http://www.w3.org/2000/svg" x="0" y="0" viewBox="0 0 785.8 785.8" xml:space="preserve"><style>.st1{fill:#bcbcbc}.st3{fill:#a1e4ff}.st4{fill:#eb058c}.st5{opacity:.6;fill:#fff}.st6{fill:none;stroke:#000;stroke-width:.5;stroke-miterlimit:10}.st7{fill:#0077bf}.st9{fill:#ffe600}.st10,.st11{fill:#1a1a1a;stroke:#000;stroke-width:.5;stroke-miterlimit:10}.st11{fill:#fff}.st12{fill:#1a1a1a}.st22,.st25{stroke:#000;stroke-width:.5;stroke-miterlimit:10;fill:#0077bf}.st25{fill:#bfbfbf}</style><path d="M267.2 727.8c140.5 9.4 222.1-37.7 271.9-92.1C599.3 570 644 454 644.1 406.5c.3-128.5-17.7-164.7-47.7-213.9C480.7 3 308.9 91.7 308.9 91.7c-103.5 47.6-125.1 128.7-112.4 175.6 42.6 156.4-47.4 189.3-47.4 189.3s-85.9 42.2-54.3 155.5C125 720.8 267.2 727.8 267.2 727.8z" fill="#fff" id="Layer_7_1_"/><path class="st1" d="M462.2 365.1l116.2-12.4 11.3 19.3H470.5zm0-73.3l116.2-12.4 11.3 19.3H470.5z"/><ellipse class="st1" cx="393.2" cy="706.6" rx="208.8" ry="15.7"/><path d="M462.2 352.7h116.2v12.4H462.2zm0-73.2h116.2v12.4H462.2z" fill="#d8d8d8" stroke="#000" stroke-width=".5" stroke-miterlimit="10"/><path class="st3" d="M523.3 269.4c-2.9-5-7.9-10.9-10.3-13.6-.1-.2-.2-.4-.2-.6v-14.5c0-.5.4-.9.9-.9h1.2c.7 0 1.2-.7 1.2-1.6 0-.9-.6-1.6-1.2-1.6h-13.4c-.7 0-1.2.7-1.2 1.6 0 .9.6 1.6 1.2 1.6h1.6c.5 0 .9.4.9.9v14.5c0 .2-.1.4-.2.6-2.5 2.7-7.7 8.7-10.7 13.7 2.6-.1 5.2-.1 7.8-.1h22.4z"/><path class="st4" d="M500.6 269.4c-2.6 0-5.2.1-7.8.1-1.4 2.3-2.3 4.3-2.3 5.7 0 1.8 1.1 4 6 4 .7 0 1.2-.1 1.2-.1h20.7s.5.1 1.2.1c5 0 6-2.2 6-4 0-1.4-.9-3.5-2.3-5.9-7.6.1-15.3.1-22.7.1z"/><path class="st5" d="M512.2 276.3c5.5 1.2 13.7-.4 6.2-10.1-7.5-9.6-8.6-3.3-6.2 0 3.8 5.2-4.3 9.2 0 10.1z"/><path class="st6" d="M523.3 269.4c-2.9-5-7.9-10.9-10.3-13.6-.1-.2-.2-.4-.2-.6v-14.5c0-.5.4-.9.9-.9h1.2c.7 0 1.2-.7 1.2-1.6 0-.9-.6-1.6-1.2-1.6h-13.4c-.7 0-1.2.7-1.2 1.6 0 .9.6 1.6 1.2 1.6h1.6c.5 0 .9.4.9.9v14.5c0 .2-.1.4-.2.6-2.5 2.7-7.7 8.7-10.7 13.7-1.4 2.3-2.3 4.3-2.3 5.7 0 1.8 1.1 4 6 4 .7 0 1.2-.1 1.2-.1h20.7s.5.1 1.2.1c5 0 6-2.2 6-4-.3-1.4-1.3-3.5-2.6-5.8z"/><path class="st7" d="M482.4 345.4c.3 5 6.2 6.1 8 6.4 4.2.6 7.4.7 9.4.7h.8c2 0 5.2-.1 9.4-.7 1.8-.2 7.7-1.4 8-6.4 0-.7 0-3.3-.1-6.4-11.8 0-23.7-.2-35.5-.5v6.9z"/><path class="st3" d="M515.5 325.4c-.2-.2-.3-.5-.2-.8.1-.3.4-.5.7-.5.6 0 1-.5 1-1 0-.3-.1-.6-.4-.8-.2-.1-.3-.4-.3-.6s.1-.4.3-.6c.2-.2.4-.5.4-.8 0-.6-.5-1-1-1h-31.3c-.6 0-1 .5-1 1 0 .3.1.6.4.8.2.1.3.4.3.6s-.1.4-.3.6c-.2.2-.4.5-.4.8 0 .6.4 1 1 1 .3 0 .6.2.7.5.1.3 0 .6-.2.8-1.1 1-1.7 2.1-1.9 3.1-.3 2-.6 6.3-.7 10.1 11.8.3 23.7.5 35.5.5-.1-3.9-.4-8.5-.7-10.6-.2-1-.8-2.1-1.9-3.1z"/><path d="M518.4 321.5c.5-.4.9-1 .9-1.8 0-1.1-.8-2.1-1.9-2.1h-34.3c-1 0-1.9.9-1.9 2.1 0 .7.4 1.4.9 1.8-.5.4-.9 1-.9 1.8 0 1.1.8 2.1 1.9 2.1h34.3c1 0 1.9-.9 1.9-2.1 0-.8-.3-1.4-.9-1.8z" fill="#353535"/><path class="st5" d="M515 327.6c-.1-.8-.6-1.6-1.4-2.4-.1-.1-.1-.2-.1-.2-.1 0-.2.1-.3.1-4.3 2.9-.9 8.2-1.7 12.7 0 1.3-.9 2.2-1.4 3.5-.5 2.2.4 3.5 1.8 4 1.6-.6 3.6-1.9 3.7-4.5 0-.5 0-2.6-.1-4.9-.1-3.1-.2-6.7-.5-8.3z"/><path class="st6" d="M518.4 321.5c.5-.4.9-1 .9-1.8 0-1.1-.8-2.1-1.9-2.1h-34.3c-1 0-1.9.9-1.9 2.1 0 .7.4 1.4.9 1.8-.5.4-.9 1-.9 1.8 0 1.1.8 2.1 1.9 2.1h2.1l-.1.1c-1.1 1-1.7 2.1-1.9 3.1-.3 2-.6 6.3-.7 10.1-.1 3.2-.2 6.1-.1 6.8.3 5 6.2 6.1 8 6.4 4.2.6 7.4.7 9.4.7h.8c2 0 5.2-.1 9.4-.7 1.8-.2 7.7-1.4 8-6.4 0-.7 0-3.3-.1-6.4-.1-3.9-.4-8.5-.7-10.6-.2-1-.8-2-1.9-3.1l-.1-.1h2.1c1 0 1.9-.9 1.9-2.1.1-.7-.2-1.3-.8-1.7z"/><path class="st3" d="M556.6 332.1c-1.6-4.2-5-7.5-9.5-8.8-.2-.1-.4-.3-.4-.5v-11.5c0-.3.2-.5.5-.5h1c.7 0 1.2-.7 1.2-1.5s-.5-1.5-1.2-1.5h-11c-.7 0-1.2.7-1.2 1.5s.5 1.5 1.2 1.5h1.3c.3 0 .5.2.5.5v11.4c0 .2-.2.4-.4.5-4.5 1.3-8 4.5-9.7 8.7 9.3 0 18.5.2 27.7.2z"/><path class="st4" d="M529 331.8c-.7 1.8-1.1 3.7-1.1 5.6 0 8.2 6.7 14.9 14.9 14.9s14.9-6.7 14.9-14.9c0-1.9-.4-3.7-1-5.4-9.3.1-18.5-.1-27.7-.2z"/><path class="st5" d="M546.1 324.7c3.6 2.4 5.9 6.4 5.9 11 0 7.3-5.9 13.2-13.2 13.2-1.1 0-2.2-.1-3.3-.4 2.1 1.4 4.6 2.2 7.3 2.2 7.3 0 13.2-5.9 13.2-13.2.1-6.2-4.1-11.4-9.9-12.8z"/><path class="st6" d="M556.6 332.1c-1.6-4.2-5-7.5-9.5-8.8-.2-.1-.4-.3-.4-.5v-11.5c0-.3.2-.5.5-.5h1c.7 0 1.2-.7 1.2-1.5s-.5-1.5-1.2-1.5h-11c-.7 0-1.2.7-1.2 1.5s.5 1.5 1.2 1.5h1.3c.3 0 .5.2.5.5v11.4c0 .2-.2.4-.4.5-4.5 1.3-8 4.5-9.7 8.7"/><path class="st6" d="M529 331.8c-.7 1.8-1.1 3.7-1.1 5.6 0 8.2 6.7 14.9 14.9 14.9s14.9-6.7 14.9-14.9c0-1.9-.4-3.7-1-5.4"/><path class="st5" d="M546.1 324.7c3.6 2.4 5.9 6.4 5.9 11 0 7.3-5.9 13.2-13.2 13.2-1.1 0-2.2-.1-3.3-.4 2.1 1.4 4.6 2.2 7.3 2.2 7.3 0 13.2-5.9 13.2-13.2.1-6.2-4.1-11.4-9.9-12.8z"/><path class="st3" d="M548.3 237.3v-8.8c0-.4.3-.7.7-.7h1c.6 0 1-.6 1-1.3 0-.7-.5-1.3-1-1.3h-11c-.6 0-1 .6-1 1.3 0 .7.5 1.3 1 1.3h1.3c.4 0 .7.3.7.7v8.8h7.3z"/><path class="st9" d="M540.9 237.3v39.1c0 1.6 1.6 2.9 3.7 2.9 2 0 3.7-1.3 3.7-2.9v-39.1h-7.4z"/><path class="st6" d="M549.9 225.2h-11c-.6 0-1 .6-1 1.3 0 .7.5 1.3 1 1.3h1.3c.4 0 .7.3.7.7v47.9c0 1.6 1.6 2.9 3.7 2.9 2 0 3.7-1.3 3.7-2.9v-47.9c0-.4.3-.7.7-.7h1c.6 0 1-.6 1-1.3 0-.7-.5-1.3-1.1-1.3z"/><path class="st5" d="M546.9 275.3c0 .6-.5 1.2-1.2 1.2-.6 0-1.2-.5-1.2-1.2V230c0-.6.5-1.2 1.2-1.2.6 0 1.2.5 1.2 1.2v45.3z"/><g id="Layer_8"><path class="st10" d="M346.4 329.5c16.3 17.7 53.6-3.3 53.6-3.3s19.4-4.8 23.2-17.6c0 0-13.6 3.9-26-16.5-6.1-10.3-5.3-15.8-8.6-27.3 0 0-3.7-22.6-20.4-34.4 0 0-14.1-11.5-34.7-8.5 0 0-17.4 4-24.5 21 0 0-13.4 21.2 1 46 2.9 4.9 6.8 19.8 7.7 25.4l26.1 11.6"/><path class="st11" d="M353.2 309.5c.2.3.2.6.2.9-.1.3-.2.6-.5.8-2.6 2.8-5.4 5.3-8.5 7.5-1.8 1.3-4 2.5-6.2 1.8-1.3-.6-2.4-1.5-3.2-2.7l-3.8-4.7c.5-2 1.2-3.6 1-5.7-.3-2.8-.1-5.8-.7-8.6 4.6-3.5 10-5.7 15.6-6.6 1.9-.3 2.9 0 3 2 .1 2 0 3.5.3 5.3.5 3.5 1.4 6.9 2.8 10z"/><path class="st12" d="M346.9 689v20.1h3l2.1-8.5 5.3 8.5h29.6c-11.4-2.4-21.1-9.8-26.5-20.1h-13.5zm-19.3 0v20.1h-3l-2.1-8.5-5.3 8.5h-29.6c11.4-2.4 21.1-9.8 26.5-20.1h13.5z"/><path d="M346.9 689h13.5s27.9-178.2 25.7-219.5c-1.4-26.1-17.3-39.7-17.3-39.7h-63.3s-15.9 13.6-17.3 39.7C286 510.8 313.9 689 313.9 689h13.6s4.3-215.2 9.8-212.9c-.1 0 12.6 83.6 9.6 212.9z" fill="#f2f2f2" stroke="#000" stroke-width=".5" stroke-miterlimit="10"/><path d="M297.3 343.4s15.7 47.4 8.2 86.3c0 .1 34.6 18.4 63 .1-10.5-13.6 9.5-83.9 9.5-83.9l1-30.5c-6.2-6.2-25.7-5.1-25.7-5.1-6.4 4.6-14.7 5.7-22.1 2.8-4-3.2-20.1-3.4-28.7-2.2-2.4.3 1.3 1.9-2.8 3l-2.4 29.5zm7.1 10.5s7.9 16.4 26.6 7.4m40.9-7.4s-7.9 16.4-26.6 7.4" stroke="#000" stroke-width=".5" stroke-miterlimit="10" fill="#eb058c"/></g><path class="st11" d="M354.2 294.8c-4.4 4.7-10.1 9.2-16.5 8.7-4.7-.4-8.9-3.4-12.1-6.9-3.3-3.9-6.2-8-8.7-12.5-1.8-2.7-3.2-5.6-4.2-8.7-1.2-4.5-.4-9.2.3-13.7 1.2-7.5 2.8-15.5 8.2-20.8 3.2-2.8 7-5.1 11-6.6 2.9-1.4 5.9-2.4 9.1-2.9 2.7-.2 5.4 0 8 .7 7.3 1.8 13.8 6.3 18.1 12.5 11.1 16.6-1.6 37.6-13.2 50.2z"/><path class="st12" d="M314.2 282.6l-3.1-6.3-3.8-15.1 11.3-19.9 12.1-10.2 16.6-1.3 13.4 4.4 14.3 18.5-1.6 18.5-4.5 8.4s-22.7-20.3-19-38.5c0 0-17 13.7-34.2 11.5-.1 0-7.1 8.7-1.5 30z"/><path class="st11" d="M339.1 262.7c3.4-3.3 8.7-3.8 12.7-1.3m-25.6 1.9c-2.6-2.1-8.3-1.9-11 .3m21.6 19.6c-1.3-.4-2.5-1-3.7-1.6-.3-.1-.6-.3-.8-.5-.5-.6-.3-1.5 0-2.3l1.3-3.9"/><path d="M332.4 286.2c2.2-1 4.8-1.2 7.1-.6 2.3.7 4.6 1.7 6.7 2.9.1.1.3.2.3.3 0 .1-.2.2-.4.2-2.2.5-4.6-.3-6.8-.7-1.8-.3-3.7-.3-5.5.1-.9.2-4.4 1.5-4.7 1-.2-.5 2.4-2.8 3.3-3.2z" fill="#c10072" stroke="#000" stroke-width=".5" stroke-miterlimit="10"/><ellipse transform="rotate(-7.1 345.045 271.252)" class="st10" cx="344.9" cy="271.2" rx="1.8" ry="2.3"/><ellipse transform="rotate(-7.1 324.392 272.238)" class="st10" cx="324.3" cy="272.1" rx="1.8" ry="2.3"/><path class="st6" d="M338.8 269.6s3.9-4.9 11.3-1.4c0 0 2.5 1.2 3.9-.4m-25.9 2.1c-1.4-1.6-6.2-3-10.1.2 0 0-2.3 1.5-3.9.1"/><path d="M329.1 289.3s3.9 3.6 8.5 3.1 5.9-3.2 8.5-3.4c0 0-2 6.8-8.5 6.9-6.4.1-8.4-4.8-8.5-6.6z" fill="#c10072" stroke="#000" stroke-width=".5" stroke-linejoin="round" stroke-miterlimit="10"/><path class="st12" d="M324.1 280.6c-1.7 0-3.4-.4-5.1-1.2-2.3-1.1-4.8-3.4-6.5-6-1.8-2.8-2.4-5.5-1.6-7.2 1.8-3.9 9.8-2.7 14.6-.5 4.9 2.3 7.4 7.3 5.6 11-.9 1.8-2.6 3.1-4.9 3.6-.7.2-1.4.3-2.1.3zm-7.5-16.2c-2.3 0-4.3.6-5 2.1-.7 1.5-.1 3.9 1.5 6.5 1.6 2.5 4 4.7 6.2 5.7s4.6 1.4 6.7.9c2.1-.4 3.6-1.6 4.4-3.2 1.6-3.4-.7-7.9-5.2-10-2.5-1.1-5.8-2-8.6-2zm26.5 15.2c-.7 0-1.4-.1-2.1-.2-2.3-.5-4-1.8-4.9-3.6-.9-1.8-.8-4 .3-6.1 1.1-2.1 2.9-3.8 5.3-4.9 2.5-1.2 5.7-2 8.3-2.1 3.3-.1 5.4.8 6.3 2.5.8 1.8.3 4.4-1.6 7.2-1.7 2.6-4.2 4.9-6.5 6-1.6.8-3.4 1.2-5.1 1.2zm7.5-16.2h-.5c-2.5.1-5.6.9-8 2-2.2 1-3.9 2.7-4.9 4.6-1 1.9-1.1 3.8-.3 5.4s2.3 2.8 4.4 3.2c2.1.4 4.5.1 6.7-.9s4.6-3.2 6.2-5.7c1.7-2.6 2.2-5 1.5-6.5-.9-1.7-3.4-2.1-5.1-2.1z"/><path class="st12" d="M333.4 274.6h-.2c-1.5-.1-2.4-1.5-2.4-1.6l.6-.4s.7 1.1 1.8 1.2c.8.1 1.6-.4 2.4-1.3l.6.5c-.9 1.1-1.8 1.6-2.8 1.6zm22.5-5.2l.3-.9 11.8-4.8.3.7z"/><path class="st11" d="M331.3 313.1c-4.1 8.8-17.6 25.3-17.2 34.8.4 9.5-9.7 211.5-9.7 211.5H268l29-144 .2-60.5s-22.6 38.3-33 38.9c-10.3.6-18.5-1.4-28.7-58.4l10.9-.9 15.5 33.4s24.2-54.4 35.8-57.5 35.1-3.2 35.1-3.2.1 5.3-1.5 5.9z"/><path class="st11" d="M245.4 334.8s-.6-1.4-1.1-2.9c-.6-1.8-3.2-9.5-3.2-9.5"/><path class="st3" d="M243.1 306.4v-9.7c0-.4.3-.8.8-.8h1.1c.6 0 1.1-.7 1.1-1.5s-.5-1.5-1.1-1.5h-12.2c-.6 0-1.1.7-1.1 1.5s.5 1.5 1.1 1.5h1.4c.4 0 .8.3.8.8v9.7c2.7 0 5.4-.1 8.1 0z"/><path class="st7" d="M235 306.4v43.3c0 1.7 1.8 3.2 4.1 3.2 2.2 0 4.1-1.4 4.1-3.2v-43.3c-2.8-.1-5.5 0-8.2 0z"/><path class="st6" d="M245 293h-12.2c-.6 0-1.1.7-1.1 1.5s.5 1.5 1.1 1.5h1.4c.4 0 .8.3.8.8v53c0 1.7 1.8 3.2 4.1 3.2 2.2 0 4.1-1.4 4.1-3.2v-53c0-.4.3-.8.8-.8h1.1c.6 0 1.1-.7 1.1-1.5-.1-.9-.6-1.5-1.2-1.5z"/><path d="M241.6 348.4c0 .7-.6 1.3-1.3 1.3-.7 0-1.3-.6-1.3-1.3v-50.2c0-.7.6-1.3 1.3-1.3.7 0 1.3.6 1.3 1.3v50.2z" opacity=".71" fill="#fff"/><path class="st11" d="M238.8 285.5c0 1-.8 1.9-1.9 1.9-1 0-1.9-.8-1.9-1.9 0-1 .8-1.9 1.9-1.9 1.1 0 1.9.8 1.9 1.9z"/><ellipse transform="rotate(-88.568 242.22 278.34) scale(1.00001)" class="st22" cx="242.2" cy="278.3" rx="2.7" ry="2.7"/><path class="st11" d="M236.2 272.9c0 1-.8 1.9-1.9 1.9-1 0-1.9-.8-1.9-1.9 0-1 .8-1.9 1.9-1.9 1 0 1.9.9 1.9 1.9zm-4.5 51c14.4 9.2 13.2-5.9 12.9-9.5-.3-3.6-11.7-8.9-15.1-1.3-.8 1.8-1.2 7.2.1 10.3"/><path fill="none" stroke="#000" stroke-width=".5" stroke-linecap="round" stroke-miterlimit="10" d="M235 333.1l-5.5-9.7"/><path class="st11" d="M379.6 374.4l-2.4 42.2 26 142.9h-39.9c-1.2-51.8-8.4-245.9-9.9-249.1-1.5-3.1-1.6-4.6-1.6-4.6s17.1 1.5 30.7 6.2c12.5 4.3 28.8 12.7 39.3 17.7 3.3 1.6 18.2 7 22 13.3 1.4 2.3 2.6 7.2 0 9.9-10 10.4-41.3 20.9-81.8 23.1l-1.9-12.3 56.7-23.6"/><path class="st3" d="M376.3 379.3c-4.7-1.8-10.1-1.4-14.6 1.4-.2.1-.5.1-.7-.1l-16-14.3c-.2-.2-.3-.6 0-.8l.7-.8c.5-.6.3-1.5-.4-2.1-.7-.6-1.7-.7-2.2-.1l-8.3 9.2c-.5.6-.3 1.5.4 2.1.7.6 1.7.7 2.2.1l1-1.1c.2-.2.6-.3.8 0l15.9 14.2c.2.2.3.5.1.7-2.3 4.7-2.2 10.1 0 14.7 5.2-5.7 25.4-8.2 30.6-13.9-.4-2.4-5-7.7-9.5-9.2z"/><path class="st9" d="M385.1 387c3.4 6.1 2.7 13.9-2.2 19.3-6.2 6.9-16.8 7.5-23.7 1.3-9.4-9.8-3.7-18.1-4-20.6h29.9z"/><path class="st6" d="M376.3 379.3c-4.7-1.8-10.1-1.4-14.6 1.4-.2.1-.5.1-.7-.1l-16-14.3c-.2-.2-.3-.6 0-.8l.7-.8c.5-.6.3-1.5-.4-2.1-.7-.6-1.7-.7-2.2-.1l-8.3 9.2c-.5.6-.3 1.5.4 2.1.7.6 1.7.7 2.2.1l1-1.1c.2-.2.6-.3.8 0l15.9 14.2c.2.2.3.5.1.7-2.3 4.7-2.2 10.1 0 14.7.9 1.9 2.2 3.7 3.9 5.2 6.9 6.2 17.5 5.6 23.7-1.3 6.2-6.9 5.6-17.5-1.3-23.7-1.5-1.5-3.3-2.5-5.2-3.3z"/><path d="M362.1 382.6c4.7-1.2 9.9-.1 13.8 3.3 6.2 5.5 6.7 15 1.2 21.1-.8.9-1.8 1.8-2.8 2.4 2.8-.7 5.3-2.2 7.4-4.5 5.5-6.2 5-15.6-1.2-21.1-5.2-4.6-12.8-4.9-18.4-1.2z" opacity=".74" fill="#fff"/><path class="st11" d="M360.2 363.6s-16.7 4.8-20.1 9.4-3.7 7.6 1.8 13c5.1 5 10.3-.4 11.1-2.4.9-2 4.4-8.8 8.8-7.9l-1.6-12.1z"/><path class="st25" d="M225.6 468.4h17.3v240.8h-17.3zm326 0h17.3v240.8h-17.3z"/><path class="st25" d="M197.2 455.7h401.4v24.2H197.2z"/><path class="st3" d="M351.1 418c0-.2.1-.4.3-.5.3-.2.4-.4.4-.6 0-.5-.5-.9-1.2-.9h-35.4c-.7 0-1.2.4-1.2.9 0 .2.2.5.4.6.2.1.3.3.3.5s-.1.4-.3.5c-.1 0-.1.1-.1.1 12.3 0 24.7 0 37-.1-.1-.2-.2-.4-.2-.5zm-1 3c-.1 0-.1 0 0 0-11.4 0-22.9-.1-34.3 0-1.2.8-2 1.7-2.2 2.5-.1.6-.3 3.3-.4 6.6 13.1 0 26.3.2 39.4-.2-.1-3.1-.2-5.7-.4-6.3-.2-.9-.9-1.7-2.1-2.6z"/><path class="st3" d="M353 444.4c-.1-2-.2-9.1-.4-14.5-13.1.4-26.3.3-39.4.2-.2 5.3-.3 12-.4 13.9-.1 2.6-.2 5-.1 5.5.4 4 7 5 9.1 5.2 4.8.5 8.4.5 10.6.5h1c2.2 0 5.9-.1 10.6-.5 2-.2 8.7-1.1 9.1-5.2.1-.5 0-2.6-.1-5.1z"/><path class="st5" d="M349.4 427.9c-.2-1-1-2.1-2.4-3.2-.1-.1-.2-.2-.2-.3-.2 0-.3.1-.5.2-7.6 3.8-1.5 11.1-3 17 0 1.7-1.5 3-2.5 4.7-.9 2.9.7 4.7 3.1 5.3 2.9-.8 6.3-2.5 6.5-6 .1-.7 0-3.4-.1-6.6-.1-4.1-.4-8.9-.9-11.1z"/><path class="st22" d="M350 421c-.2-.2-.3-.4-.1-.6.1-.2.4-.4.8-.4.6 0 1.1-.4 1.1-.8 0-.2-.2-.5-.4-.6-12.3.1-24.7.1-37 .1-.2.2-.3.3-.3.5 0 .5.5.8 1.1.8.4 0 .7.2.8.4.1.2 0 .5-.2.6 11.4-.1 22.8 0 34.2 0z"/><path class="st6" d="M353 444.4c-.1-2-.2-9.1-.4-14.5-.1-3.1-.2-5.7-.4-6.3-.2-.8-.9-1.7-2.2-2.5l-.1-.1c-.2-.2-.3-.4-.1-.6.1-.2.4-.4.8-.4.6 0 1.1-.4 1.1-.8 0-.2-.2-.5-.4-.6-.2-.1-.3-.3-.3-.4 0-.2.1-.4.3-.5.3-.2.4-.4.4-.6 0-.5-.5-.9-1.2-.9h-35.4c-.7 0-1.2.4-1.2.9 0 .2.2.5.4.6.2.1.3.3.3.5s-.1.4-.3.5c-.1 0-.1.1-.1.1-.2.2-.3.3-.3.5 0 .5.5.8 1.1.8.4 0 .7.2.8.4.1.2 0 .5-.2.6-1.2.8-2 1.7-2.2 2.5-.1.6-.3 3.3-.4 6.6-.2 5.3-.3 12-.4 13.9-.1 2.6-.2 5-.1 5.5.4 4 7 5 9.1 5.2 4.8.5 8.4.5 10.6.5h1c2.2 0 5.9-.1 10.6-.5 2-.2 8.7-1.1 9.1-5.2.3-.6.2-2.7.1-5.2z"/><circle class="st11" cx="325.1" cy="403" r="3.8"/><circle class="st11" cx="332.8" cy="394.1" r="2.4"/><circle class="st11" cx="335.3" cy="411" r="2.4"/><circle class="st11" cx="337.7" cy="399.2" r="1.7"/><path class="st11" d="M446.5 172.3h150v33.2h-150z"/><text transform="translate(458.006 193.677)" font-size="18.531" font-family="MyriadPro-Regular">optimal features</text><path class="st11" d="M330.8 301.1l-9.4 9.8-3.2 13.4 11.6-8.3s2.8-4.3 3.2-5.8-.4-8.2-.4-8.2l-1.8-.9zm19.6-2.2l12.7 8.3.2 16-9.4-7.2c0 .1-3.3-11-3.5-17.1z"/></svg>