<svg version="1.1" id="Layer_1" xmlns="http://www.w3.org/2000/svg" xmlns:xlink="http://www.w3.org/1999/xlink" x="0" y="0" viewBox="0 0 1000 1000" xml:space="preserve"><style>.st0{fill:#fff}.st3{stroke-width:.5;fill:none;stroke:#000;stroke-miterlimit:10}.st5{opacity:.7;fill:#bcbcbc}.st6{fill:#fff;stroke:#000;stroke-width:.5;stroke-miterlimit:10}.st7{fill:#1a1a1a}.st8,.st9{fill:#bcbcbc;stroke:#000;stroke-width:.5;stroke-miterlimit:10}.st9{fill:#0077bf}.st18{fill:#ccc}.st18,.st19,.st21,.st22,.st23{stroke:#000;stroke-width:.5;stroke-miterlimit:10}.st21{fill:#1a1a1a}.st22{fill:#eb058c}.st23{fill:#a3a3a3}</style><path class="st0" d="M224.1 420.7S97.2 297.9 271.8 163.8c0 0 188.7-178.2 425.1-10.5 0 0 112.8 67.3 159.1 255 0 0 20.8 161.1-73.3 280.1 0 0-108.4 122.7-279.7 190.4-75.8 30-158.3 33.7-231.1 8.2-56.8-19.8-110.2-57.6-110.1-129.5 0 0 10-45 70.3-97.7 0-.1 149.8-84.4-8-239.1z" id="Layer_7_1_"/><path d="M243.5 295.1c-551.9 234 235.2 522.5 235.2 522.5l486.8-238.1s-519-80.6-552.2-209.6c-23.4-90.7 222.5-118.2 222.5-118.2S399.2 229 243.5 295.1z" fill="#e5e5e5" stroke="#000" stroke-width=".5" stroke-miterlimit="10"/><defs><path id="SVGID_1_" d="M243.5 295.1c-551.9 234 235.2 522.5 235.2 522.5l486.8-238.1s-519-80.6-552.2-209.6c-23.4-90.7 222.5-118.2 222.5-118.2S399.2 229 243.5 295.1z"/></defs><clipPath id="SVGID_2_"><use xlink:href="#SVGID_1_" overflow="visible"/></clipPath><g clip-path="url(#SVGID_2_)"><path class="st0" d="M641 760.7c-1.1-.3-111.5-28.6-229.8-73.6-69.5-26.4-128.2-53.4-174.3-80.1-58-33.6-96.4-66.9-114.1-99.2-12.2-22.2-14.8-44.1-7.9-65.3 12.5-38.1 47.8-72 105.1-100.7 45.4-22.8 104.7-42.5 176.2-58.5 121.6-27.3 238.2-34.6 239.3-34.7l.7 6.2c-.9.2-90 16-178.4 47.1-51.8 18.2-93.2 38-123.1 58.8-36.8 25.6-56 52.7-56.9 80.6C276 493.9 383 545.6 587.3 590.7c155.5 34.3 313.5 52.7 315.1 52.9l-.7 6.2c-1.6-.2-160-18.6-315.7-53-91.6-20.2-164.4-42-216.4-64.6-31.1-13.5-55-27.6-71.2-41.7-18.3-16-27.3-32.6-26.7-49.4 1.1-29.9 21.1-58.7 59.6-85.5 30.4-21.1 72.3-41.2 124.7-59.6 46.7-16.4 93.6-28.6 127.7-36.5-45.4 4.8-114.9 13.9-186 29.9-71 15.9-129.8 35.5-174.7 58-55.7 28-90 60.6-101.9 97.1-6.4 19.5-3.9 39.8 7.4 60.4 17.2 31.3 54.8 63.8 111.8 96.8 45.8 26.5 104.2 53.3 173.4 79.7 118 44.8 228 73.1 229.1 73.3l-1.8 6z"/></g><path class="st3" d="M243.5 295.1c-551.9 234 235.2 522.5 235.2 522.5l486.8-238.1s-519-80.6-552.2-209.6c-23.4-90.7 222.5-118.2 222.5-118.2S399.2 229 243.5 295.1z"/><path d="M461.7 494.9l-114.5-44.2m72 56.1l-132-50.8m158.7 7.4l-132-50.8m284.5-55.2l-120.3-46.7M591.9 383l-107.1-41.6m161.6 16.3L526.1 311" fill="none" stroke="#000" stroke-miterlimit="10"/><ellipse transform="rotate(-70.67 485.83 690.799)" class="st5" cx="485.8" cy="690.8" rx="15.7" ry="144"/><ellipse transform="rotate(-70.67 610.23 632.043)" class="st5" cx="610.2" cy="632" rx="15.7" ry="144"/><path class="st5" d="M522.2 267.7c2.4 5.3-39 12.1-85.2 39.1-47.4 27.6-64.3 53.5-66.8 48.2s17.2-40.6 65.9-62.7 83.7-29.9 86.1-24.6zm-55.2-9c1.8 5.6-36.1 12.3-85.2 33.6-50.3 21.8-74.3 40.6-76.1 35-1.8-5.6 26.5-33.3 77.4-49.5 51-16.2 82.2-24.7 83.9-19.1z"/><path class="st6" d="M704 349.8l9.3-10.6s6.9 8.8 10.3 8.7l-6.1 17.2c0 .1-14-9-13.5-15.3z"/><path class="st7" d="M699.5 654.1s-2.7 6.2-3.9 8.7c-1.3 2.6 10.1 11.8 34.1 11 29-.9-15.1-11.7-18.3-14.9s-.1-7.6-.1-7.6l-9.3-.2-2.5 3z"/><path class="st6" d="M710.6 463.3l30 88.9c1 3 1 6.2.1 9.2l-30.1 93-11-.4 18-92.8-36.6-70.5 29.6-27.4z"/><path class="st6" d="M710.6 458.9s-15.2 16-17.6 34.9c-1.9 14.8-13.3 60.6-18.5 81.3-1.4 5.6-7.3 8.8-12.7 6.9l-94.1-32.6 2.1-11.6 85.9 17.2-2.2-106.9 57.1 10.8z"/><path class="st7" d="M567.4 536.1s-7.5-4.2-10.1-5.4-9.7 12.3-8.9 36.1c1 29 10.6-13.1 13.4-16.7 1.9-2.4 8.5.3 8.5.3l1.6-12.2-4.5-2.1z"/><path class="st6" d="M671.8 391.5l-14.4 72.4 57.4 11.2 8.8-73.2 11.7 28.6c.6 1.9 2.3 3.3 4.2 3.9l45 12.8 4.2-9.6-38.7-14.3c-.6-.9-1-1.9-1.3-3L735 375.5 723.6 353l-6.9 4.3-13.8-13.8-34.1 12.1 3 35.9z"/><path class="st8" d="M708.8 459.4l40.6 83.5-48.9 11.5-21.6-73.3 1.7-30.4z"/><path class="st8" d="M697.6 452.5L695 556.8l-49.1-9.2 7.5-95.1z"/><path class="st9" d="M669.3 385.2l-24.3 86 75.2 10.2 7.5-82.2-2.3 25.5 22-21.7-9.6-27.3-6.9-11.1-7.3-11.6-6.9 4.3-13.8-13.8-8.8 3.1-22.4 5.5s-22.2 16.3-32.7 24.2l16.6 23.2 13.7-14.3z"/><path class="st6" d="M665 437.7s8.7 13.3 13.1 9.2c17.2-15.9-3.2-9.2 2.7-11.2 5.6-1.8-1.3-2.1-11.4-5.1l-4.4 7.1zm-22.3-56.2c-.1-.1-11.7 10.9-20.1 18.7-4.1 3.9-3.3 10.7 1.6 13.5l40.5 24 4.6-7.2-27.5-25.1 10.9-9.9-10-14zm146 56.1s11.1-1.4 9.6 1-1.2 1.6-1.2 1.6.9-.3 2.4-.1c.5.1 1.2-.3 1.8.1 2.2 1.5.9 6.5-2.7 10.4-4.1 4.4-13.1-5.5-13.1-5.5l3.2-7.5z"/><path class="st6" d="M801.3 440.3s-6.5-2.4-9 3.2 2.7 8.3 2.7 8.3"/><text transform="rotate(9.677 -2056.502 4185.938)" class="st0" font-size="24.787" font-family="MyriadPro-Regular">TIME</text><path class="st18" d="M742.4 293s-4.3-2.9-13.9-2.5c-11.3.5-18.9 8.5-23.4 20.2-2 5.1-4.8 22 2.6 29.8 2.7 2.8 9 5.5 14.2 6.7l20.5-54.2z"/><ellipse transform="rotate(-69.225 732.13 320.149)" class="st6" cx="732.1" cy="320.2" rx="29" ry="17.8"/><ellipse transform="rotate(-69.225 733.037 320.149)" class="st6" cx="733" cy="320.2" rx="25.4" ry="15.5"/><path transform="rotate(33.881 733.075 328.492)" class="st19" d="M732.5 313.4h1.1v30h-1.1z"/><path transform="rotate(-21.464 735.674 316.424)" class="st19" d="M735 305.5h1.1v21.8H735z"/><ellipse transform="rotate(-69.225 737.734 321.014)" cx="737.7" cy="321" rx="3.4" ry="2.1" fill="#777" stroke="#000" stroke-width=".5" stroke-miterlimit="10"/><g id="Layer_6"><g id="Layer_2_1_"><path class="st21" d="M502.5 428.7s2.5 8.5 18.8-.1c0 0 12.7-6.6 22.4-16 0 0 12.3-11 28.1-12.2 0 0 12.4-2.5 24.9 7.7 0 0 11.6 9 9.5 23.1 0 0-.7 17.8-20 28.5 0 0-6.5 3.4-10.2 8.2l-36.1-.4-33.1-20.5-1.4-4.4s-5.4-3.9-2.9-13.9z"/><path class="st6" d="M557.1 455.9c-.2.1-.4.3-.5.6-.1.2 0 .5 0 .7.8 3 1.8 5.8 3.2 8.6.8 1.6 1.9 3.4 3.7 3.7 1.1.1 2.3-.2 3.3-.7l4.6-1.9c-.8-1.6.1-3.4 1.1-4.8 1.3-1.9 2.7-3.7 4.2-5.5-1.9-4.3-4.9-8-8.7-10.7-1.3-.9-2.1-1.1-3 .3-.7 1.2-1.4 2.5-2.2 3.7-1.6 2.3-3.5 4.3-5.7 6z"/><path class="st6" d="M568.7 452.6c3.2 3.8 7.5 7.3 12.5 7.1 3.7-.2 6.9-2.4 9.5-5 2.6-2.9 5-6.1 7-9.4 1.5-2 2.6-4.2 3.4-6.6 1-3.4.6-7.1.1-10.6-.8-5.8-1.8-12-5.8-16.3-2.3-2.4-5.3-3.9-8.3-5.3-2.2-1.2-4.5-2-6.9-2.5-2.1-.3-4.1-.1-6.1.4-5.7 1.2-10.8 4.5-14.3 9.2-9 12.5.2 28.9 8.9 39z"/><path class="st7" d="M557.7 440.5s19.8-14.7 17.5-28.8c0 0 4.7 5.6 10.2 6.6 0 0 13.6 3.1 13.8 15.2 0 0-.8 7 .8 10.7l2.6-4.8.9-11.5-5.9-15.6-9.1-8.1-12.8-1.4-10.4 3.1-11.5 13.9.7 14.3 3.2 6.4z"/><path class="st6" d="M572.5 429.6c.6.3 1.2.3 1.8-.1.5-.3 1-.7 1.5-1 .4-.3.8-.5 1.2-.7.4-.2.8-.3 1.3-.4 1.2-.1 2.3.4 3.1 1.3.8.9 1.4 1.9 1.8 3m6.1-.9l1.1-.8c.9-.7 2-1.4 3.1-1.3.9.2 1.8.6 2.6 1.2.8.5 1.9.8 2.7.3m-15.8-4.5c-2.6-2.6-6.6-3.2-9.8-1.3m15.8 1.1c2-1.5 4.7-1.9 7.1-1.1m-11.2 17.9c1-.3 1.9-.7 2.9-1.1.2-.1.4-.2.6-.4.4-.5.2-1.2.1-1.7l-1-3.1m-6.5 15.2c.7.3 1.3.6 1.9 1 .2.2.4.3.6.5.8.5 1.9-.1 2.5-.9.4-.9.8-1.8 1.1-2.7.4-.7.9-1.4 1.2-2.1.1-.2.1-.4.1-.7-.1-.4-.6-.6-1.1-.6-3-.4-6.1.5-9 1.4-.1 0-.2.1-.3.2-.4.4.4 1.8.8 2.2.5.7 1.3 1.3 2.2 1.7z"/><path class="st22" d="M585.3 453.6c-.9.3-1.9.3-2.8-.1-.9-.4-1.7-1-2.4-1.7-.6-.5-1.1-1.1-1.6-1.6-.4-.4-.8-.9-1-1.4-.3-.5-.3-1.1-.2-1.7.8 1 1.7 1.8 2.7 2.5 1.3 1 2.9 1.6 4.5 1.7.6 0 1.5-.3 1.8.3.5.8-.3 1.8-1 2z"/><path class="st22" d="M589 445.3c-1.8-.9-3.9-1.1-5.9-.6-2 .5-3.9 1.3-5.6 2.2-.1.1-.2.1-.2.3 0 .1.2.2.3.2 1.9.5 3.8-.2 5.7-.4 1.5-.2 3.1-.2 4.6.2 1.1.3 2.8-.9 1.1-1.9z"/><ellipse transform="rotate(-13.055 578.48 429.145)" class="st21" cx="578.6" cy="429.2" rx="1.4" ry="1.8"/><ellipse transform="rotate(-13.055 593.584 430.336)" class="st21" cx="593.7" cy="430.4" rx="1.4" ry="1.8"/><path class="st21" d="M506.8 447s9.3 19.5 24.1 23.9l43.8 4.2 1.2-7.1"/></g><path class="st6" d="M588.3 604.8l2.1 3.5s14.2 12.8 9.7 27.9l-24 74.1-8.9-4.8 11.2-65.9s.3-29.9-16.4-35.2c0 0 19.2-2.4 26.3.4zm-75.2 8.6s-11 33.6-22.4 39.8c0 0-7 3.1-18.2-3.6l-51.9-33 6-7.9 44.9 18s7.4 3.6 12.9-5c0 0 9.8-21.1 8.5-22.8l20.2 14.5z"/><path class="st7" d="M560.6 725l3.7.7 3.4-11.8 8.6 14.4 25 7.1s1.2-3.6-3.6-6.6c0 0-16.6-6.6-19-21.1 0 0-9.5-2.5-11.9-6.4 0 0-3.4 5.2-2.4 10-.1 0 .9 2.2-3.8 13.7zM409.3 602.7l11.3 6.1-15.9 5.5-10.9 23.9s4.4 2.1 7.7-2.9c0 0 7.7-13.9 23.9-14.4l8.4-10.8s-4.9-4.3-8.9-4.8c-4.9-1.1-9.7-2.9-14-5.4l-1.6 2.8z"/><path class="st18" d="M574.7 475.1l3.1 40.9 32.2-7.6 1.8 11.2-36.4 12.9c-2.8 1-5.8-.5-6.7-3.3l-15.8-49.4 21.8-4.7z"/><path class="st8" d="M557.8 541.1s39.3 69.1 42.6 81.8c1.6 6.1-.2 13.6-1.2 16-2.2 5.4-8.2.5-20.8-2.3 0 0-10.3-19.9-22.1-34.7-17.5-21.7-24.9-40.7-28.7-49.9-3.7-9.2 24.7-21.1 30.2-10.9z"/><path class="st22" d="M514.5 532.5s9.1-20.7 8.4-53c0 0 6.3-13.5 9.1-21.5 4.8-.8 12.1-1.5 18.3.1 12.4 3.4 23.5 11.2 24.5 8.9 0 0-2.2 3.6-.3 4.4 0 0 3.4 7.3 3.8 22.5 0 0 .8 15-10.5 17.4 0 0-12.7 22-9.9 29.5-26.3 3.3-43.4-8.3-43.4-8.3z"/><path class="st18" d="M523.1 487.8c-10.8 8.9-12.5 12.3-19.4 18.3l35.4 12.2c-4.3 1.4-6.8 9.5-6.8 9.5l-45.6-14c-3.6-1.2-5.1-5.4-3.2-8.7 6.3-10.6 21.6-25.3 21.6-25.3 20.4-23.2 30.5-22.5 30.5-22.5s6.3 11.7-12.5 30.5z"/><path class="st6" d="M550.2 458.2c2.2-.7 4.1-2.3 5.1-4.4 0 0 8.9 11.6 17.5 10.2 1.8 1.7 1.3 4.5 2.1 6.2.3.5 0 1.3-.6 1.3-16.5.8-24.1-13.3-24.1-13.3z"/></g><path class="st6" d="M538 519.1s9.3-.5 8.6 1.5c-.7 2-4.4 1-2.7 1.1 1.6.1 2.9-.8 4.3 1.1 1.1 1.5-4.2 6.9-6.3 8.1-2.3 1.3-4.8-2.1-9.1-4 .1-.1 2.1-5.9 5.2-7.8zm72.2-8.8s5.4-3.5 7.2-4c3-.9.8 1.4-.1 2.6-.9 1.1.7-1.3 3.7-.9s2.3 7-.6 9.4c-1.6 1.4-4 1-9 .8l-1.2-7.9zm7.1-1.5s-6.9 7.2 1.1 9.4"/><path class="st8" d="M514.5 532.5s-14.1 11.8-17.8 32.7c-3.7 21-9.4 54-15.2 59.7 0 0-5 26.2 1.2 28.7s10.1 1.7 20.1-15.9c10-17.5 45.6-96.1 45.6-96.1s-20.6-2.4-33.9-9.1z"/><g id="Layer_3_3_"><path class="st6" d="M404.2 215.8l-1.1-3.3c0-.1 0-.1-.1-.2h-.3c-.5.2-1.1.5-1.6.3-.6-.3-.6-1.1-1.1-1.5-.8-.7.6-.6.5-.8-.1-.2-.4-.3-.6-.4-.3 0-.7 0-.8-.2-.2-.2 0-.6-.3-.8-.3-.3-.8 0-1.1-.3-.1-.1-.1-.3-.1-.4 0-.5.2-.9.4-1.4.1-.2.2-.4.2-.6 0-.3-.3-.5-.5-.7-.4-.5-.3-1.3-.3-1.9 0-.9 0-1.8-.1-2.6-.1-.6.4-1.3.9-1.7 1.2-1 2.9-1.2 4.4-.9 1.5.3 2.9 1.1 4.1 2 .5.3.9.7 1.3 1.2.7.8 1 1.9 1.1 3 .1 1.1.1 2.1 0 3.2 0 .7 0 1.5.4 2.1.1.1.1.2.2.3 0 .1 0 .2-.1.3-.2.4-.4.7-.7 1-1.3 1.9-2.8 3.6-4.7 4.3zm1.6 70s-1.1 3.5-1.3 4.2l-5.1-1.6s1.2-2 1.6-3.6c-.1.1 4.5.1 4.8 1z"/><path class="st7" d="M404.4 292.8v.5l-4 .4-.2-.4s-7.6 1.6-9.1.2c0 0-.6-.5 1.3-1.2 0 0 6.1-2.9 7.7-5.4 0 0 .9 2.5 4.7 1.9 0 0 .5 2.5-.4 4z"/><path class="st6" d="M459 251.4l2.4-1.2s2.8 3.4 2.5 4.6l-3.7 1.3-1.2-4.7z"/><path class="st7" d="M462.8 247.9l.6-.6 3.2 1.6-.2.4s.7 1 3.7 2c0 0 6.1 2.3 4.2 3.8 0 0-.6.2-2.2-.2 0 0-2.7-1.2-8.1 0l-.4.1s-.6-3.1-2.7-4.5c-.1 0 .5-2.5 1.9-2.6zm-67.2-47.7c.1.5.3.9.7 1.2.4.3 1 .3 1.4.1.3-.2.5-.5.8-.8.3-.3.7-.5 1-.3.3.1.4.4.4.7v.9c0 .7.3 1.4 1 1.7.2.1.3.1.5.2.4.2.6.6.7 1 0 .2 0 .3.1.5s.2.3.4.3.3-.2.4-.4c.1-.3.1-.6.1-.8-.1-.8.7-1.5 1.4-1.8.3-.2.7-.2 1-.1.4.1.7.5.9.9.7 1.4 1.1 2.9 1.2 4.4.6-.1 1.1-.2 1.7-.2.6-1.3.8-2.9.7-4.4-.1-1.5-.5-2.9-1.1-4.2-.2-.5-.5-1-.8-1.4-.3-.4-.6-.7-1-1-.5-.4-1.1-.8-1.7-1-1.7-.7-3.6-.4-5.4 0-1.1.3-2.3.6-3.2 1.4-.9.8-1.3 1.9-1.2 3.1z"/><path class="st3" d="M399.1 204.6c-.2-.1-.5-.1-.7-.1-.3.1-.6.3-.8.5l-.2.2"/><ellipse transform="rotate(-9.599 398.435 205.888)" class="st7" cx="398.5" cy="205.9" rx=".3" ry=".6"/><path class="st3" d="M399.1 205.2c-.4 0-.8.2-1.1.4v.1m8.1-2.8c.3.6.5 1.4.4 2.1 0 .2-.1.5-.1.7l-.3.6c-.2.1-.4.2-.6.2-.2 0-.4-.2-.4-.5"/><path class="st6" d="M410 209.7l-.9-.6-5.7 6.5 1.5 1.9 5.4-7.4zm-22.4 15.8c-.2-.4-.4-.9-.9-.9-.2 0-.4.1-.5.1-.3 0-.6-.2-.9-.2-.3 0-.5.2-.8.3-.3 0-.6-.1-.8 0-.2.2-.3.4-.3.7 0 .3 0 .5-.1.8-.1.2-.3.4-.4.6-.1.3.1.6 0 .9 0 .1-.1.2-.1.4-.1.4-.1.8-.1 1.2 0 .1 0 .3.1.4.1.3.4.5.7.6.7.2 1.5.1 2.2.1.5 0 .9 0 1.4.1.6.1 1.2.3 1.8.3.1 0 .2 0 .2-.1s.1-.1.1-.2c.1-.5.2-.9.3-1.4 0-.3.3-.8.2-1 0-.2-.6-.5-.8-.7-.6-.7-1-1.3-1.3-2z"/><path class="st18" d="M389.7 227.4l-1.1-.3-1.3 3.4 1 .3 1.8.2zm35.4 19.2l-10.6 14.2s-1.8 2-2.3 3.8l-6.1 22.1s-4.1.2-5.9-1.1c0 0 2-16.2 2.5-17.9 0 0 1-7.8 2.8-10.7 0 0 6.5-13.4 9.4-16-.2 0 8.9 3.3 10.2 5.6z"/><path class="st6" d="M418 237l-4.7 3.9s-7.8-9.8-8-12.5c-.1 0 11.3 5.5 12.7 8.6z"/><path class="st9" d="M414.2 243.1l-1.9-2.2.4-.3 1.9 2.2z"/><path class="st18" d="M426.6 237.5s3.7 2.2 3.8 7.9l5.6 9.9s1.5 2.5 3.5 1.5l19.5-5.9s1.9 4 1.8 5.6l-17.9 7s-7 3.2-11.4-.2c0 0-6.5-5.3-10.6-11.3l-7.4-10.6 8.7-4.7c0-.1 3.4-.5 4.4.8z"/><path class="st7" d="M419.2 238.4l-4.9 4.4-1.7-2 5.8-4.6z"/><path class="st6" d="M431.6 222.5c.3.4.5.7.7 1.2l.3.9.7 2.8c0 .2.1.4.2.6.2.2.4.4.6.5.4.3.8.6 1.1 1 .3.4.6.8 1 1 .5.1 1-.1 1.2-.5.1-.2.1-.3.2-.5.1-.1.3-.2.4-.3.2-.2.1-.6.3-.9.1-.2.4-.4.4-.6 0-.1-.1-.3 0-.4.1-.1.1-.1.2-.1.2-.2.3-.5.1-.8-.5-.6-.8-1.3-1.4-1.8-1.1-1.1-2.1-2.2-3.2-3.2l-.2-.2h-.2c-1 .1-1.8.6-2.4 1.3z"/><path class="st18" d="M434.8 220.8l.5.9-3.3 1.9-.7-1.1c0 .1 1.9-2.6 3.5-1.7z"/><path class="st23" d="M431.5 223.4l-6.1-7.9-8.3 3.3-4.2-6.5 11-2.9s2.6-1.2 4.2.9l7 10.5-3.6 2.6z"/><path class="st23" d="M398.9 228.2s-.1.6-1 .4l-8.6-1.6-1.4 3.9 9.9 3.1s3.4 1.6 5.4-1.3l2.5-3.5 12.3 9s5.8 4.4 9.1.1c3.4-4.3 4.6-5.5 4.6-5.5s.7-1-1.1-1.6c0 0-8.8-4.9-10.5-7.6 0 0-5.6-12.4-10.1-14 0 .1-8.7 11.6-11.1 18.6z"/></g><g id="Layer_3_4_"><path class="st6" d="M450.1 220.7l-1.1-3.3c0-.1 0-.1-.1-.2h-.3c-.5.2-1.1.5-1.6.3-.6-.3-.6-1.1-1.1-1.5-.8-.7.6-.6.5-.8-.1-.2-.4-.3-.6-.4-.3 0-.7 0-.8-.2-.2-.2 0-.6-.3-.8-.3-.3-.8 0-1.1-.3-.1-.1-.1-.3-.1-.4 0-.5.2-.9.4-1.4.1-.2.2-.4.2-.6 0-.3-.3-.5-.5-.7-.4-.5-.3-1.3-.3-1.9 0-.9 0-1.8-.1-2.6-.1-.6.4-1.3.9-1.7 1.2-1 2.9-1.2 4.4-.9s2.9 1.1 4.1 2c.5.3.9.7 1.3 1.2.7.8 1 1.9 1.1 3 .1 1.1.1 2.1 0 3.2 0 .7 0 1.5.4 2.1.1.1.1.2.2.3 0 .1 0 .2-.1.3-.2.4-.4.7-.7 1-1.2 1.8-2.8 3.5-4.7 4.3zm1.6 69.9s-1.1 3.5-1.3 4.2l-5.1-1.6s1.2-2 1.6-3.6c0 .1 4.6.2 4.8 1z"/><path class="st7" d="M450.4 297.6v.5l-4 .4-.2-.4s-7.6 1.6-9.1.2c0 0-.6-.5 1.3-1.2 0 0 6.1-2.9 7.7-5.4 0 0 .9 2.5 4.7 1.9 0 0 .4 2.5-.4 4z"/><path class="st6" d="M505 256.2l2.4-1.2s2.8 3.4 2.5 4.6l-3.7 1.3-1.2-4.7z"/><path class="st7" d="M508.8 252.7l.6-.6 3.2 1.6-.2.4s.7 1 3.7 2c0 0 6.1 2.3 4.2 3.8 0 0-.6.2-2.2-.2 0 0-2.7-1.2-8.1 0l-.4.1s-.6-3.1-2.7-4.5c-.1 0 .4-2.4 1.9-2.6zM441.6 205c.1.5.3.9.7 1.2.4.3 1 .3 1.4.1.3-.2.5-.5.8-.8s.7-.5 1-.3c.3.1.4.4.4.7v.9c0 .7.3 1.4 1 1.7.2.1.3.1.5.2.4.2.6.6.7 1 0 .2 0 .3.1.5s.2.3.4.3.3-.2.4-.4c.1-.3.1-.6.1-.8-.1-.8.7-1.5 1.4-1.8.3-.2.7-.2 1-.1.4.1.7.5.9.9.7 1.4 1.1 2.9 1.2 4.4.6-.1 1.1-.2 1.7-.2.6-1.3.8-2.9.7-4.4-.1-1.5-.5-2.9-1.1-4.2-.2-.5-.5-1-.8-1.4-.3-.4-.6-.7-1-1-.5-.4-1.1-.8-1.7-1-1.7-.7-3.6-.4-5.4 0-1.1.3-2.3.6-3.2 1.4-.9.8-1.4 1.9-1.2 3.1z"/><path class="st3" d="M445.1 209.4c-.2-.1-.5-.1-.7-.1-.3.1-.6.3-.8.5l-.2.2"/><ellipse transform="rotate(-9.599 444.396 210.715)" class="st7" cx="444.5" cy="210.7" rx=".3" ry=".6"/><path class="st3" d="M445 210c-.4 0-.8.2-1.1.4v.1m8.2-2.8c.3.6.5 1.4.4 2.1 0 .2-.1.5-.1.7l-.3.6c-.2.1-.4.2-.6.2-.2 0-.4-.2-.4-.5"/><path class="st6" d="M456 214.5l-.9-.5-5.7 6.4 1.5 2 5.4-7.5zm-22.5 15.8c-.2-.4-.4-.9-.9-.9-.2 0-.4.1-.5.1-.3 0-.6-.2-.9-.2-.3 0-.5.2-.8.3-.3 0-.6-.1-.8 0-.2.2-.3.4-.3.7 0 .3 0 .5-.1.8-.1.2-.3.4-.4.6-.1.3.1.6 0 .9 0 .1-.1.2-.1.4-.1.4-.1.8-.1 1.2 0 .1 0 .3.1.4.1.3.4.5.7.6.7.2 1.5.1 2.2.1.5 0 .9 0 1.4.1.6.1 1.2.3 1.8.3.1 0 .2 0 .2-.1s.1-.1.1-.2c.1-.5.2-.9.3-1.4 0-.3.3-.8.2-1 0-.2-.6-.5-.8-.7-.5-.7-1-1.3-1.3-2z"/><path class="st18" d="M435.7 232.3l-1.1-.4-1.3 3.5.9.3 1.9.1zm35.4 19.2l-10.6 14.2s-1.8 2-2.3 3.8l-6.1 22.1s-4.1.2-5.9-1.1c0 0 2-16.2 2.5-17.9 0 0 1-7.8 2.8-10.7 0 0 6.5-13.4 9.4-16-.2-.1 8.9 3.3 10.2 5.6z"/><path class="st6" d="M464 241.8l-4.7 3.9s-7.8-9.8-8-12.5c-.1 0 11.3 5.5 12.7 8.6z"/><path class="st9" d="M460.2 247.9l-1.9-2.2.4-.3 1.9 2.2z"/><path class="st18" d="M472.5 242.3s3.7 2.2 3.8 7.9l5.6 9.9s1.5 2.5 3.5 1.5l19.5-5.9s1.9 4 1.8 5.6l-17.9 7s-7 3.2-11.4-.2c0 0-6.5-5.3-10.6-11.3l-7.4-10.6 8.7-4.7c0-.1 3.4-.5 4.4.8z"/><path class="st7" d="M465.2 243.3l-4.9 4.3-1.7-1.9 5.8-4.7z"/><path class="st6" d="M477.6 227.4c.3.4.5.7.7 1.2l.3.9.7 2.8c0 .2.1.4.2.6.2.2.4.4.6.5.4.3.8.6 1.1 1 .3.4.6.8 1 1 .5.1 1-.1 1.2-.5.1-.2.1-.3.2-.5.1-.1.3-.2.4-.3.2-.2.1-.6.3-.9.1-.2.4-.4.4-.6 0-.1-.1-.3 0-.4.1-.1.1-.1.2-.1.2-.2.3-.5.1-.8-.5-.6-.8-1.3-1.4-1.8-1.1-1.1-2.1-2.2-3.2-3.2l-.2-.2h-.2c-1 0-1.8.5-2.4 1.3z"/><path class="st18" d="M480.7 225.6l.5.9-3.3 1.9-.7-1.1c0 .1 1.9-2.6 3.5-1.7z"/><path class="st23" d="M477.4 228.2l-6.1-7.9-8.3 3.3-4.2-6.5 11-2.9s2.6-1.2 4.2.9l7 10.5-3.6 2.6z"/><path class="st23" d="M444.9 233s-.1.6-1 .4l-8.6-1.6-1.4 3.9 9.9 3.1s3.4 1.6 5.4-1.3l2.5-3.5 12.3 9s5.8 4.4 9.1.1c3.4-4.3 4.6-5.5 4.6-5.5s.7-1-1.1-1.6c0 0-8.8-4.9-10.5-7.6 0 0-5.6-12.4-10.1-14 0 .1-8.8 11.7-11.1 18.6z"/></g><g id="Layer_3_1_"><path class="st6" d="M332.1 230.4l-1.4-4c0-.1-.1-.1-.1-.2-.1-.1-.2-.1-.3 0-.6.2-1.3.6-1.9.3-.7-.3-.7-1.3-1.3-1.8-1-.8.7-.7.6-1-.1-.3-.5-.4-.8-.4-.3 0-.8 0-1-.2-.2-.2 0-.7-.3-1-.4-.3-1 0-1.3-.3-.1-.2-.1-.3-.1-.5.1-.6.2-1.1.5-1.7.1-.2.2-.4.2-.7 0-.4-.4-.6-.6-.9-.5-.6-.4-1.5-.4-2.3.1-1.1 0-2.1-.2-3.2-.1-.8.5-1.6 1.1-2 1.5-1.2 3.5-1.5 5.4-1.1 1.8.4 3.5 1.3 5.1 2.4.6.4 1.1.9 1.6 1.5.8 1 1.2 2.3 1.3 3.6.1 1.3.1 2.6 0 3.9 0 .9 0 1.8.5 2.6.1.1.2.3.2.4 0 .1 0 .3-.1.4-.2.5-.5.9-.8 1.3-1.7 1.9-3.5 4-5.9 4.9zm-15.6 78.4s-2.6 3.6-3.2 4.4l-5.3-3.9s2.2-1.9 3.2-3.5c.1 0 5.4 1.9 5.3 3z"/><path class="st7" d="M312.4 316.4l-.2.6-4.8-1.1-.1-.6s-9.4-1-10.7-3.2c0 0-.5-.8 1.9-.9 0 0 8.1-1 11-3.3 0 0 .1 3.2 4.7 4 .1 0-.3 3-1.8 4.5z"/><path class="st6" d="M400.5 264.8l2.6-1.9s4.1 3.5 4 5l-4.2 2.4-2.4-5.5z"/><path class="st7" d="M404.4 259.9l.5-.8 4.2 1.3-.2.5s1.1 1.1 4.8 1.6c0 0 7.9 1.5 5.8 3.7 0 0-.7.3-2.7.2 0 0-3.4-.9-9.7 1.6l-.4.2s-1.4-3.6-4.2-4.8c0 0 .2-3.1 1.9-3.5zm-82.6-48.7c.1.6.4 1.2.9 1.5.5.3 1.2.4 1.7.1.4-.2.7-.6 1-1 .3-.3.8-.6 1.2-.4.3.2.5.5.5.9v1.1c0 .9.4 1.8 1.2 2.1.2.1.4.1.6.2.5.3.8.7.8 1.3 0 .2.1.4.1.6.1.2.2.3.4.3.3 0 .4-.3.5-.5.1-.3.1-.7.1-1-.1-1 .8-1.9 1.7-2.2.4-.2.8-.2 1.2-.1.5.2.8.7 1.1 1.1.9 1.7 1.4 3.5 1.4 5.4.7-.2 1.4-.2 2.1-.2.8-1.6 1-3.5.8-5.3-.2-1.8-.6-3.5-1.4-5.1-.2-.6-.6-1.2-1-1.7l-1.2-1.2c-.6-.5-1.3-.9-2.1-1.3-2.1-.8-4.4-.5-6.6 0-1.4.3-2.8.8-3.9 1.7-.8.9-1.3 2.3-1.1 3.7z"/><path class="st3" d="M326 216.7c-.3-.1-.6-.2-.9-.1-.4.1-.7.4-1 .6-.1.1-.2.1-.2.2"/><ellipse transform="rotate(-9.425 325.384 218.24)" class="st7" cx="325.3" cy="218.2" rx=".3" ry=".7"/><path class="st3" d="M325.9 217.4c-.5 0-.9.2-1.3.5v.1m10-3.4c.4.8.6 1.7.5 2.6 0 .3-.1.6-.2.8-.1.3-.2.5-.4.7-.2.2-.5.3-.7.2-.3 0-.5-.3-.5-.6"/><path class="st6" d="M339.3 222.9l-1.1-.7-7 7.9 1.8 2.4 6.6-9.1zm-27.5 19.2c-.2-.5-.5-1.1-1.1-1.1-.2 0-.4.1-.7.1-.4 0-.7-.3-1.1-.2-.4 0-.6.3-1 .3s-.7-.1-1 0c-.3.2-.4.5-.4.8 0 .3 0 .6-.1.9-.1.3-.4.4-.5.7-.1.3.1.7.1 1.1 0 .1-.1.3-.1.4-.1.5-.2.9-.1 1.4 0 .2 0 .4.1.5.2.3.5.6.9.7.9.3 1.8.2 2.7.2.6 0 1.1.1 1.7.2.7.1 1.5.4 2.2.3.1 0 .2 0 .3-.1.1-.1.1-.1.1-.2.2-.6.3-1.1.4-1.7.1-.3.3-1 .3-1.3-.1-.3-.7-.7-.9-.9-.8-.5-1.4-1.3-1.8-2.1z"/><path class="st18" d="M314.4 244.5l-1.3-.4-1.6 4.2 1.2.3 2.3.2zm39.5 26.3l-17.7 12.3s-2.9 1.6-4.1 3.6l-15.5 23.2s-4.9-1.4-6.4-3.6c0 0 8.6-18 9.7-19.8 0 0 4.1-8.7 7.3-11.3 0 0 12.6-13.1 17-14.9-.2 0 9.1 7.3 9.7 10.5z"/><path class="st6" d="M348.9 256.3l-5.8 4.7s-9.5-11.9-9.8-15.3c.1 0 14 6.8 15.6 10.6z"/><path class="st7" d="M350.4 258l-5.9 5.3-2.2-2.4 7.2-5.7z"/><path class="st9" d="M344.3 263.7L342 261l.5-.4 2.3 2.7z"/><path class="st18" d="M358.7 254.8s4.9 1.9 6.2 8.7l8.7 10.7s2.3 2.7 4.6 1.1l22.2-11.1s3.2 4.5 3.3 6.4l-20.1 12s-7.7 5.3-13.7 2c0 0-8.9-5-15.1-11.4L343.7 262l9.5-7.5c0 .1 4-1.1 5.5.3z"/><path class="st6" d="M365.6 238.7c.3.4.6.9.8 1.4l.3 1.2.8 3.4c0 .3.1.5.3.7.2.2.4.4.7.6.5.3 1 .7 1.3 1.2.4.4.7 1 1.3 1.2.6.2 1.2-.1 1.5-.6l.3-.6c.1-.2.3-.2.5-.4.3-.3.1-.8.3-1.1.2-.3.5-.5.5-.8 0-.2-.1-.4.1-.5.1-.1.2-.1.3-.2.3-.2.4-.6.2-.9-.6-.7-1-1.5-1.7-2.2l-3.9-3.9c-.1-.1-.2-.2-.3-.2h-.3c-1.3.1-2.3.7-3 1.7z"/><path class="st18" d="M369.4 236.6l.6 1.2-4 2.3-.9-1.3c.1-.1 2.4-3.4 4.3-2.2z"/><path class="st23" d="M365.4 239.7l-7.4-9.6-10.1 3.9-5.1-7.9 13.5-3.5s3.2-1.5 5.2 1.1l8.6 12.8-4.7 3.2z"/><path class="st23" d="M325.7 245.5s-.1.8-1.2.5l-10.4-2-1.7 4.8 12.1 3.9s4.1 2 6.6-1.5l3-4.3 15 11s7 5.3 11.1.1 5.6-6.6 5.6-6.6.9-1.2-1.3-2c0 0-10.8-6-12.8-9.3 0 0-6.8-15.2-12.3-17.1-.1-.1-10.8 14-13.7 22.5z"/></g><g id="Layer_3_2_"><path class="st6" d="M383.6 244.1l-1.6-3.9c0-.1-.1-.1-.1-.2h-.3c-.6.2-1.3.7-1.9.5-.7-.3-.8-1.3-1.4-1.7-1-.8.6-.8.5-1-.1-.3-.5-.4-.8-.4-.3 0-.8.1-1-.1-.2-.2-.1-.7-.4-1-.4-.3-1 .1-1.3-.3-.1-.1-.1-.3-.1-.5 0-.6.1-1.2.4-1.7.1-.2.2-.4.1-.7-.1-.4-.4-.6-.7-.8-.5-.6-.5-1.5-.5-2.3 0-1.1-.1-2.1-.4-3.2-.2-.7.4-1.6.9-2.1 1.4-1.3 3.4-1.7 5.3-1.5s3.6 1.1 5.2 2.1c.6.4 1.2.8 1.7 1.4.9 1 1.3 2.3 1.5 3.5.2 1.3.2 2.6.3 3.9.1.9.2 1.8.7 2.6.1.1.2.3.2.4v.4c-.2.5-.4.9-.7 1.3-1.6 2-3.4 4.2-5.6 5.3zm7.3 85s-1.1 4.3-1.3 5.3l-6.4-1.6s1.3-2.5 1.7-4.4c0-.1 5.6-.3 6 .7z"/><path class="st7" d="M389.8 337.7v.7l-4.8.8-.3-.5s-9.1 2.5-11.1 1c0 0-.8-.6 1.4-1.6 0 0 7.2-3.9 9-7.2 0 0 1.3 2.9 5.9 1.9 0 0 .8 3-.1 4.9z"/><path class="st6" d="M453 283.1l2.8-1.6s3.7 3.9 3.4 5.4l-4.5 1.9-1.7-5.7z"/><path class="st7" d="M457.4 278.6l.6-.7 4 1.7-.3.5s1 1.2 4.7 2.1c0 0 7.7 2.3 5.4 4.3 0 0-.7.3-2.7-.1 0 0-3.3-1.3-9.8.6l-.4.2s-1-3.7-3.7-5.2c0-.1.4-3.1 2.2-3.4zm-85.4-53c.1.6.5 1.1 1 1.5.5.3 1.2.3 1.7 0 .4-.3.6-.7.9-1 .3-.3.8-.6 1.2-.5.3.2.6.5.6.9s.1.7.1 1.1c.1.9.5 1.7 1.3 2 .2.1.4.1.6.2.5.2.8.7.9 1.2 0 .2.1.4.2.6.1.2.3.3.5.3s.4-.3.5-.5c.1-.3.1-.7 0-1-.2-1 .7-1.9 1.6-2.3.4-.2.8-.3 1.2-.2.5.1.9.6 1.1 1.1 1 1.6 1.6 3.4 1.8 5.3.7-.2 1.4-.3 2.1-.4.7-1.7.7-3.6.5-5.4-.3-1.8-.9-3.5-1.7-5-.3-.6-.7-1.2-1.1-1.7-.4-.4-.8-.8-1.3-1.1-.7-.5-1.4-.8-2.1-1.1-2.1-.7-4.4-.2-6.6.5-1.4.4-2.7.9-3.7 2-1.2.7-1.6 2.1-1.3 3.5z"/><path class="st3" d="M376.6 230.8c-.3-.1-.6-.1-.9-.1-.4.2-.7.4-.9.7-.1.1-.1.2-.2.2"/><ellipse transform="rotate(-13.202 375.884 232.375)" class="st7" cx="375.9" cy="232.4" rx=".3" ry=".7"/><path class="st3" d="M376.5 231.5c-.5.1-.9.3-1.3.6v.1m9.8-4.1c.5.8.7 1.6.7 2.5 0 .3 0 .6-.1.8-.1.3-.2.5-.4.7-.2.2-.4.3-.7.3-.3 0-.5-.3-.5-.5"/><path class="st6" d="M390.2 236.2l-1.1-.7-6.5 8.3 2 2.3 6-9.5zm-26.1 20.9c-.3-.5-.6-1.1-1.1-1-.2 0-.4.1-.6.2-.4 0-.8-.2-1.1-.2-.4.1-.6.3-.9.4s-.7-.1-1 .1c-.2.2-.4.5-.3.8 0 .3 0 .6-.1.9-.1.3-.4.5-.4.8-.1.3.1.7.1 1 0 .1-.1.3-.1.4-.1.5-.1 1 0 1.4 0 .2 0 .3.1.5.2.3.5.6.9.6.9.2 1.8 0 2.7 0 .6 0 1.1 0 1.7.1.7.1 1.5.3 2.2.2.1 0 .2 0 .3-.1.1-.1.1-.1.1-.2.1-.6.2-1.1.3-1.7 0-.3.3-1 .2-1.3s-.8-.6-1-.8c-1-.6-1.6-1.3-2-2.1z"/><path class="st18" d="M366.8 259.3l-1.3-.3-1.3 4.2 1.2.3 2.2.1zm44.6 20.6l-11.9 18s-2.1 2.6-2.5 4.8l-5.8 27.3s-5 .5-7.3-.9c0 0 1.2-19.9 1.6-22 0 0 .6-9.6 2.5-13.2 0 0 6.9-16.8 10.2-20.2.1.2 11.4 3.5 13.2 6.2z"/><path class="st6" d="M402 268.8l-5.5 5.1s-10.3-11.3-10.7-14.6c0 0 14.3 5.8 16.2 9.5z"/><path class="st9" d="M397.9 276.5l-2.5-2.6.5-.4 2.4 2.5z"/><path class="st18" d="M412.5 268.7s4.6 2.4 5.3 9.3l7.6 11.6s2 3 4.4 1.5l23.2-8.7s2.7 4.8 2.6 6.7l-21.2 9.8s-8.2 4.5-13.9.6c0 0-8.3-5.9-13.8-12.9l-9.8-12.3 10.2-6.4c0 .1 4.1-.7 5.4.8z"/><path class="st7" d="M403.6 270.4l-5.6 5.7-2.2-2.3 6.7-6.1z"/><path class="st6" d="M417.5 250.1c.4.4.7.9.9 1.4.2.4.3.7.4 1.1l1 3.3c.1.3.2.5.3.7.2.2.5.4.7.5.5.3 1 .7 1.4 1.1.4.4.8.9 1.3 1.1.6.1 1.2-.2 1.4-.7.1-.2.1-.4.2-.6.1-.2.3-.3.5-.4.2-.3.1-.8.2-1.1.1-.3.5-.5.5-.8 0-.2-.1-.4 0-.5.1-.1.2-.1.3-.2.3-.2.3-.7.1-.9-.7-.7-1.1-1.5-1.8-2.1-1.4-1.2-2.8-2.5-4.2-3.7-.1-.1-.2-.1-.3-.2h-.3c-1 .3-2 1.1-2.6 2z"/><path class="st18" d="M421.2 247.8l.7 1.1-3.8 2.6-1-1.3s2.1-3.5 4.1-2.4z"/><path class="st23" d="M417.4 251.1l-8-9.1-9.8 4.6-5.6-7.5 13.2-4.4s3.1-1.7 5.2.8l9.4 12.2-4.4 3.4z"/><path class="st23" d="M378.1 259.5s-.1.8-1.2.6l-10.6-1.3-1.4 4.9 12.3 3.1s4.3 1.7 6.5-2l2.7-4.5 15.7 10s7.4 4.9 11.1-.6 5.1-7 5.1-7 .8-1.3-1.4-1.9c0 0-11.1-5.3-13.4-8.4 0 0-7.8-14.7-13.4-16.2.1 0-9.6 14.7-12 23.3z"/></g></svg>