<svg version="1.1" id="Layer_1" xmlns="http://www.w3.org/2000/svg" x="0" y="0" viewBox="0 0 1127.8 1305.9" xml:space="preserve"><style>.st1,.st2,.st3,.st4,.st5,.st6,.st7,.st8{fill:#fff;stroke:#000;stroke-width:.5;stroke-miterlimit:10}.st2,.st3,.st4,.st5,.st6,.st7,.st8{fill:#f2f2f2}.st3,.st4,.st5,.st6,.st7,.st8{fill:#ffe600}.st4,.st5,.st6,.st7,.st8{fill:#0077bf}.st5,.st6,.st7,.st8{fill:#1a1a1a}.st6,.st7,.st8{fill:none}.st7,.st8{fill:#727272}.st8{fill:#d3d3d3}.st9{fill:#727272}.st11,.st15{stroke:#000;stroke-miterlimit:10}.st11{stroke-width:.5;fill:#eaeaea}.st15{fill:#fff}</style><path d="M355.5 116.3C95.1 249.8-28.8 479 5.6 735.4c25.5 190.4 157.8 497.2 529.1 547.7 261 35.5 381.3-53.3 373.4-157.4-10.8-142.2-83.8-179.1-109-293.4-77.6-351.9 327.4-449.5 238.7-687.1-72.6-194.5-382.1-182.8-682.3-28.9z" fill="#fff" id="Layer_2_1_"/><g id="Layer_1_2_"><g id="Layer_1_1_"><circle class="st1" cx="527.5" cy="1014.5" r="85.9"/><g id="Layer_9_1_"><path class="st3" d="M567.5 837.5l-11.5 2.6 13.5 44.7-13.9 57c-4.8 1.7-11.5 3.6-26.4 14.8-5.2 13.2-20.8 7.4-20.8 7.4-31.1 10.5-35.7 18-35.7 18l-37.5-20.3-21.5-62.6-13.2 5.1 18.4 76.3 69.5 47.1 29.1 72.4c58.2 4.8 82.4-39.4 82.4-39.4-16.2-25.9-25.9-86.8-25.9-86.8s26.7-68.7 17-91.2c-15.9-37.2-23.5-45.1-23.5-45.1z"/><path class="st1" d="M566.3 837.5s-3.1-24.2-8.3-26.6c-4.9-2.2-3.8 9.6-3.1 15.3.2 1.2-1 2.2-2.2 1.8-1.4-.5-2.8-.8-3.4-.3-1 1.2 1.8 6 8.9 11.8l8.1-2zM404 902.4s-10.9-21.9-7.8-26.7c2.9-4.6 8.5 5.9 11 11 .5 1.1 2.1 1.3 2.8.3.9-1.2 1.9-2.3 2.7-2.1 1.5.4 1.8 6-.9 14.8l-7.8 2.7zM506.5 964.2l-.8-1c-2.1 3-3.6 6.3-4.4 9.8-.3 1.4-.5 2.9-.6 4.3 0 4.2 0 7.3.2 9.2l11.3-.2-6.3 8.5c8.3 4.5 27.6 18.4 34.8 24.5 3.6-.7-.9-9 2.5-10.2l-36.7-44.9z"/><path class="st1" d="M550.3 1000.5c-.8-11.4.2-21 .8-31l-15.3-1.6 8.5-13.7c-2.7-1-5.5-1.8-8.3-2.2-4.6-.9-9.7-1.7-12.1-1.9-.4-.1-.8-.1-1.2 0l8.3 25.1 1.7 6.5 2.5 9.2 1.8 6.6 5 29 8.3-26z"/><path class="st1" d="M517.9 952.4c-6.8 5.4 5.4 12 5.4 12l16.4-8.1-15.3-7.3-6.5 3.4zM513.4 954.7l-9.7 5-1.9 13.9 17.2-7.3z"/><path class="st4" d="M526.7 985.3l-3-20.4c-3.1-2.7-3.2 1.5-3.2 1.5l-7 30.1 13.2-11.2z"/><path class="st1" d="M504.7 950.7c-.3-1.6-.8-2.9-1.4-4.8-.6-1.9.2-2.4 2.1-2.8 5.3-1.1 10.9-.8 16.1.9.4 2.7.9 5.3 1.5 7.9.5 2 1.3 4.2 3.3 4.8l-1.9 5.3c-.3 1.3-1 2.5-2 3.4-1.6 1.4-4.1 1-6.1.4-3.4-1-6.8-2.3-9.9-4-.3-.1-.5-.3-.7-.5-.1-.3-.2-.6-.1-.9.1-3.2-.2-6.5-.9-9.7z"/><path class="st4" d="M526.7 985.3l-56.4-44-23.9 2.4 11.4 21 55.7 31.9z"/><path class="st1" d="M527.6 935.7c.5-.7.8-1.4 1.1-2.2.4-1.2.6-2.5.5-3.8-.1-1.9-1.2-4.7-.4-6.4s1.9-2.6 2.2-4.7c.4-3.6-.1-7.2-1.6-10.5-.4-.9-1.4-2.3-2.4-.9-.1.2-.2.5-.1.8.1.5.4 1 .5 1.6.1.2.2.6.4 1l-2.4.8c-.1-.4-.3-.8-.4-1.2-.4-1.2-.8-2.4-1.3-3.5-.7-1.7-1.1-3.5-1.9-5.1-2-4.3-7.2-5.9-11.8-4.7-3.4.9-6.5 2.7-9.8 3.9-4.1 1.4-6.6.3-10.5-.5-1.1-.2-.6-.4-1.4.1-.5.4-1 1.4-1.4 1.9-2.5 2.8-7.3 6.5-6.9 10.5.5 3.1 1.4 6.1 2.6 9 .7 1.3 1.3 2.7 1.8 4l-1.8.6-1-1.3c-.7-.2-.7-1.2-1.5-1.4-1.6-.4-1.6 1.3-1.3 2.2.9 3.5 2.8 6.7 5.4 9.2 1.5 1.4 2.8 1.4 4.7 2.3s2.6 3.7 3.7 5.2c.7 1 1.7 1.9 2.7 2.6.8.5 1.7.9 2.7 1.1 1.7.4 3.4.9 5.1 1.5 2.2 1.3 4.6 2.1 7.1 2.6 1.6 0 3.1-.3 4.6-.9l.7-.2c1.8-.4 3.5-1.2 4.9-2.4 1.7-1.9 3-4.1 3.9-6.4 1.1-1.7 2.1-3.3 3.3-4.8z"/><path class="st5" d="M527.1 908c-.3-1.1-.5-2.2-.6-3.4-.3-2.3-.7-4.5-1.4-6.7-1.5-6.2-2.8-12.8-10.2-15.6-7-2.7-17.9-3.7-24.8.5-1.3.8-3.2 1.6-4 2.9.2-.3-2 .2-2.2.3-3.3.7-8.2 5.8-10.4 12.3-2.1 6.1.2 11.3 2.8 16.8.9 2.3 2 4.6 3.2 6.7.4.6 1.4 2 2.4 3.3l1 1.3 1.8-.6c-.5-1.4-1.1-2.7-1.8-4-1.3-2.9-2.2-5.9-2.6-9-.4-4 4.5-7.7 6.9-10.5.4-.5.9-1.5 1.4-1.9.9-.5.4-.3 1.4-.1 3.9.7 6.4 1.9 10.5.5 3.3-1.2 6.4-3 9.8-3.9 4.6-1.2 9.7.4 11.8 4.7.8 1.6 1.2 3.4 1.9 5.1.5 1.1.9 2.3 1.3 3.5.1.4.2.8.4 1.2l2.4-.8c-.2-.4-.3-.7-.4-1-.3-.6-.5-1.1-.6-1.6z"/><path class="st6" d="M489.1 915.1c1.2-2.2 3.3-3.8 5.7-4.4M509 906.6c2.4-.8 5-.6 7.2.7"/><circle class="st5" cx="494.9" cy="916.9" r="1.9"/><path class="st5" d="M512 909.9c1 0 1.9.9 1.9 1.9s-.9 1.9-1.9 1.9c-1 0-1.9-.9-1.9-1.9s.9-1.9 1.9-1.9z"/><path class="st6" d="M503.8 932.5c7.5 3.3 11.7-4.1 11.7-4.1M542 1026.5l19.3 66.8"/><path class="st3" d="M537.5 1057.4l-24.5 7.5s3.6 7.3 13.8 4.7 10.7-12.2 10.7-12.2zM582.1 1041.7l-24.5 7.5s3.6 7.3 13.8 4.7c10.1-2.5 10.7-12.2 10.7-12.2z"/><path class="st6" d="M503.9 914.3s2 7.4 4.5 7.8-.9 3-2.1 3.1"/></g><circle class="st1" cx="659.7" cy="677.6" r="85.9"/><g id="Layer_7_3_"><path class="st1" d="M647.1 538c-.8 2.8-1.2 5.7-1.7 6.8-.4.6-.8 1.3-1.2 1.8-.7.9-1.8 2.3-1.8 3.5l-.3 4.8c-.1 2.3-1.3 4.1-3.7 4-2.5-.1-3.6-2.3-3.2-4.8l.1-3.4c.1-2-.1-4.1-.8-6-1.1-4 .1-8.6 1.5-12.2.8-2.3 3.8-3.6 7.9-5.1 2-.7 5.3-1.3 4 1-1.1 1.9-7.2 4.6-5.6 10.9.1.3.4 1.1.7 1.1 1.2.1 1.5-2.5 2.1-3.8.9-1.8 2.1-2.4 2.9-2.2.6.2-.4 1.6-.9 3.6zM760.6 571.2c.8.1 1.7 1.1 1.9 3.1.1 1.4-.6 4 .6 4.3.3.1.9-.5 1.1-.8 3.7-5.3-.9-10-1.3-12.2-.4-2.7 2.4-.9 4.1.5 3.3 2.9 5.6 5.2 5.5 7.6-.1 3.9-.6 8.6-3.1 11.9-1.3 1.5-2.3 3.3-2.9 5.3l-1.1 3.2c-.5 2.5-2.3 4.2-4.7 3.4-2.2-.8-2.7-2.8-2-5l1.4-4.6c.4-1.1-.2-2.8-.5-3.9-.2-.7-.4-1.4-.5-2.2 0-1.2.6-4 .9-6.9.2-2.2-.2-3.8.6-3.7z"/><path class="st7" d="M713.2 593.8c0 7.6-28.5 4.5-28.5 4.5-5.7-.4-15.1.1-21.3 10.4-4.8 8-9.6 17.1-.7 39 0 0 6.3 18.1 41.7 8.8 44.8-11.7 57.1-44.2 30.4-57 0 0-1.7 7.1-10.3.3-8.6-6.6-11.3-6-11.3-6z"/><path class="st8" d="M686.6 666.6c25.5 27.4 11.4 32 11.4 32-5.1 2.7-9.6 6.3-13.5 10.7l-20.4 31.1c-15.3 8.7-44.5-15.6-44.5-15.6 6.7-4.8 7.4-30.3 7.4-30.3-.7-3-.1-6.2 1.5-8.8 1.7-2.3 3.6-4.4 5.8-6.2 3.9-3.5 5.1-9 3.1-13.8-6.8-16-14.3-43.5-13-57.9 1.4-15.4 9.6-54 9.6-54 2-1.6 8.9-2.3 10.1.8l-3.2 55.3c8.2 20.1 14.4 38.2 17.3 46.8 1.1 3.3 3.7 6 6.9 7.3l4 .4"/><path class="st8" d="M746.5 665.6c4.2-3.6 7-8.5 8.1-14l11-57.6c-2.9-1.5-5.9-2.9-9.3-1l-17.8 50.1c-1 2.6-3 4.7-5.5 5.8-23.9 10.2-37.1 24.4-40.2 24.7 5 5.3-6.1 29.6-1.6 28.8 13.6-2.5 42.3-25.8 55.3-36.8z"/><path class="st1" d="M685.5 664.9c.1.3.1.6 0 .8s-.3.4-.6.6c-2.7 1.9-5.6 3.5-8.6 4.8-1.8.8-3.9 1.4-5.6.4-1-.7-1.8-1.7-2.2-2.9l-2.4-4.7c1.7-.7 2.3-2.9 2.5-4.7.3-2.5.5-4.9.5-7.4 4.6-2.1 9.6-3 14.6-2.6 1.7.1 2.5.6 2.2 2.3s-.6 3-.8 4.6c-.3 2.9-.2 5.9.4 8.8z"/><path class="st1" d="M663.4 652.2c-4.4-4.6-6.2-11.1-3.7-24.8 2.4-13.7 8.8-17.1 8.8-17.1 4.7-4.2 10.6-7.6 16.9-8.2 3.6-.1 7.1.4 10.5 1.5 2.6.6 5.1 1.5 7.4 2.9 1.9 1.2 3.5 2.8 4.7 4.6 3.8 5 5.6 11.2 5.1 17.5-1.5 16.5-16.6 23.2-30.1 27.6-7.5 2.4-15.2.6-19.6-4z"/><path class="st9" d="M701 652.7s-9.3-27.5 2.5-37.3c0 0-9.8-1.2-15.1-3.9s-15-6.7-23.5 2.9c0 0-1.5 3.7-5.3 5.6l2.3-5.6 6.1-7.4 15.4-6 13.1-.2 11.3 7.8 6.3 9.8-.4 19.4-10.7 11.1-2 3.8z"/><path class="st6" d="M701 652.7s-9.3-27.5 2.5-37.3c0 0-9.8-1.2-15.1-3.9s-15-6.7-23.5 2.9c0 0-3.1 3.5-3.1 5"/><path class="st1" d="M687.3 620.5c3.7 1.4 5.9 5.2 5.3 9.1M681.3 616c-1.6-2.2-4.3-3.4-7-3.2M672.5 634.3c-.6-.9-1.1-1.9-1.5-2.9-.1-.2-.2-.5-.2-.8 0-.6.6-1.1 1.2-1.5l2.9-1.8"/><ellipse transform="rotate(-36.05 686.658 630.194)" class="st5" cx="686.7" cy="630.2" rx="2.4" ry="1.9"/><ellipse transform="rotate(-36.05 672.153 620.49)" class="st5" cx="672.2" cy="620.5" rx="2.4" ry="1.9"/><path d="M666.4 637.1s-1.6 6.8 3.5 8.2 8-4.6 8-4.6l-11.5-3.6z" fill="#fff" stroke="#000" stroke-width=".5" stroke-linejoin="bevel" stroke-miterlimit="10"/><path class="st11" d="M602.2 741.3l17.3-16.5c5.3 6.9 44.5 15.6 44.5 15.6l2 22.7c.1 0-33.7 5.1-63.8-21.8z"/></g><path d="M568.5 405c198.6-2.2 408.2 1.3 552.9 19.2 0 0 79.5 175.5-337.1 341.7 0 0-73.9 22.4-94.6 78.5-33.5 37.4-86.8 40.5-118 40.5s-92.3-8.1-124.5-40.5c-20.7-56-94.6-78.5-94.6-78.5C-64 599.8 15.5 424.3 15.5 424.3c144.8-18 354.3-21.5 553-19.3" opacity=".38" fill="#e2e2e2"/><path class="st6" d="M568.5 405c198.6-2.2 408.2 1.3 552.9 19.2 0 0 79.5 175.5-337.1 341.7 0 0-73.9 22.4-94.6 78.5-33.5 37.4-86.8 40.5-118 40.5s-92.3-8.1-124.5-40.5c-20.7-56-94.6-78.5-94.6-78.5C-64 599.8 15.5 424.3 15.5 424.3c144.8-18 354.3-21.5 553-19.3"/><ellipse cx="568.6" cy="425" rx="552.7" ry="72.7" fill="#b3b3b3" stroke="#000" stroke-width=".5" stroke-miterlimit="10"/><path d="M574.7 497.7c133.5 0 256.1-6.1 352.2-16.4-20.9-13.1-170.6-23.2-352.2-23.2s-331.3 10.1-352.2 23.2c96.1 10.2 218.7 16.4 352.2 16.4z" fill="gray"/><g><circle class="st1" cx="730.3" cy="240.7" r="85.9"/><g id="Layer_9_2_"><path class="st11" d="M689.8 50.4L663 127.2l24.4 80.9s-10.6 55.8-27.3 82.2c0 0 30.5 45.8 86.1 34.8l32.7-83.9 81.5-42.3 24.2-76.3-9.3-2.4-31.2 59.1-60.7 26.1s1.4-.8-30.4-11.6c0 0-16 5.9-21.3-7.6-15.7-10.3-23.3-16-28.3-17.7l-15.7-40.7 11.6-74.3-9.5-3.1z"/><path class="st1" d="M699.4 53.4c10.1-11 .7-8.5.7-8.5s-.3-21.9-6.2-17.8c-4.8 3.4-4 23.2-4 23.2l9.5 3.1zM884.5 123.3s8.9-20.1 4.3-21.7c-3.4-1.2-11.1 11.6-11.1 11.6s-11.1-3.6-2.2 6.9l9 3.2zM736.7 178.5l-15.7 7.4 16.7 8.3s12.6-6.7 5.6-12.3l-6.6-3.4zM742.3 196.2l17.6 7.5-2-14.2-9.9-5.2z"/><path class="st7" d="M748.6 225.1l-7-30.8s-.1-4.3-3.3-1.6l-3.1 20.9 13.4 11.5z"/><path class="st1" d="M756.1 190.2c0 .3 0 .6-.1.9-.2.2-.4.4-.7.5-3.2 1.7-6.7 3-10.2 4.1-2 .6-4.5 1-6.2-.4-1-.9-1.7-2.1-2-3.5l-2-5.4c2-.5 2.8-2.9 3.4-4.9.7-2.7 1.2-5.4 1.6-8.1 5.3-1.7 11-2 16.4-.9 1.9.4 2.7 1 2.1 2.9-.6 1.9-1.1 3.2-1.5 4.9-.7 3.2-1 6.6-.8 9.9z"/><path class="st1" d="M721.6 165.3c-2-8.5-2.8-8.1-3.1-12.4-.4-7-.6-14.5 3.2-20.4 2.4-3.2 5.3-6 8.6-8.1 2.3-1.9 4.8-3.3 7.6-4.4 2.4-.7 4.8-1.1 7.3-.9 7 .2 13.6 2.9 18.8 7.7 13.3 12.8 6.1 34.2-1.9 47.9-3 5.1-7.3 10.2-13.1 11.1-20.8 3.9-25.5-12.3-27.4-20.5z"/><path class="st15" d="M744.2 149.2c3.2-1.1 6.8.2 8.6 3.2M722.2 155.6c1.3-3.2 4.6-5 8-4.4"/><path class="st1" d="M741.7 169.4c-1.2-.2-2.4-.4-3.6-.7-.3-.1-.6-.2-.8-.3-.6-.5-.5-1.3-.5-2l.4-3.8"/><ellipse transform="matrix(1 -.00927 .00927 1 -1.432 6.94)" class="st5" cx="747.7" cy="157.9" rx="1.8" ry="2.3"/><ellipse transform="rotate(-16.199 729.345 161.968)" class="st5" cx="729.3" cy="162" rx="1.7" ry="2.1"/><path class="st7" d="M763.2 146.6s2.7-6.6 5.4-4.1c.9.9 2 8.2-3.6 13.2 0 0 3.8 5.2 1.8 9.7 0 0 7.7-6.1 9.3-27.6 0 0 2-18.7-19.4-17.2-9.8-11.6-26.5-11.5-41.1 3.1 0 0-6.5 16.2 3.2 33.6 0 0-2.7-10.1 3.4-18.5 0 0 17.6 6.7 23.5-7.2.1 0 8.7-2.1 17.5 15z"/><path class="st6" d="M736.8 175.3s6.4 3.5 12.5-3.5c0 .1-1.8 11.4-12.5 3.5z"/><path fill="#898989" stroke="#000" stroke-width=".5" stroke-miterlimit="10" d="M735.2 213.6l57.9-44.9 24.4 2.5-11.7 21.5-57.2 32.4z"/></g></g><g><circle class="st1" cx="629.6" cy="1219.8" r="85.9"/><g id="Layer_7_4_"><path class="st1" d="M592.5 1166.3l-4.6-52c0-1.2 1.1-2.6 1.7-3.6.4-.6.8-1.3 1.2-1.9.4-1.1.7-4.1 1.4-7 .5-2.1 1.4-3.5.6-3.7s-2 .6-2.8 2.4c-.5 1.4-.7 4-1.9 4-.4 0 .1-1.5 0-1.8.1-5.1.5-7.9 1.3-9.9.4-1 .4-2.2-.1-3.1-.9-1.5-2.8-1.5-4.3-.9-4.1 1.7-4.4 5-5.2 7.4-1.2 3.8-1.3 9 0 13 .8 1.9 1.2 4 1.1 6.1l-7.2 51.5 18.8-.5zM762.2 1165.9c-2-4.8-4.1-1.6-6.6 1.2-2.6 3-7.3 4.9-7.3 4.9-.3.1-1.1.5-1.4.2-.9-.9-.1-1.9.6-3.3.8-2 .4-3.5-.3-3.9-.7-.5-1.1 1.3-2.3 3.2-1.7 2.7-3.7 5.2-4.2 6.3-.2.8-.4 1.5-.6 2.3-.3 1.2-.6 3.1-1.4 4l-34.3 24.5s8.5 12.9 10.1 14.1l28.9-32.6c1.5-1.6 3.4-2.8 5.4-3.7 4-2.1 7.8-4.8 11.6-8.9 2.1-2.8 2.7-6.3 1.8-8.3z"/><path class="st5" d="M647.8 1223.8c-37.3 3.6-40.7-15.7-40.7-15.7-5.5-23.6.8-32 7-39.4 8-9.5 17.5-8.5 23.2-7.1 4.7 1.1 22.2-9.8 24.3-19.2 3.8-16.7 28.3-27.6 41.8-21.6 0 0-11.1 6.7-7.9 18.6 8.1 29.3-.5 79.8-47.7 84.4z"/><path class="st1" d="M636.5 1220.8c.1-1.6.4-2.9.6-4.7.2-1.8-.6-2.2-2.4-2.3-5.1-.2-10.2 1-14.8 3.4.1 2.5 0 5.1-.2 7.6-.1 1.9-.6 4.2-2.3 5l2.6 4.7c.5 1.2 1.4 2.1 2.4 2.8 1.7 1 3.9.2 5.7-.6 3-1.5 5.9-3.2 8.6-5.3.2-.1.4-.4.5-.6.1-.3.1-.6 0-.8-.6-3.1-.9-6.2-.7-9.2z"/><path class="st1" d="M663.9 1191.4c.2-6.4-1.9-12.7-6-17.7-1.4-1.8-3.1-3.3-5.1-4.5-2.4-1.2-5-2.1-7.7-2.6-3.5-1-7.2-1.4-10.8-1.1-6.4.9-11.5 5.6-16.1 10.1-2.8 2.7-5.7 5.6-7.1 9.2-.9 2.6-1.4 5.3-1.5 8-.5 4.3-.7 8.6-.4 12.9.4 4 1.7 8.2 4.7 10.8 4.1 3.6 10.3 3.5 15.7 2.4 14.4-2.6 33.5-10.5 34.3-27.5z"/><path d="M654.6 1212.7l10.4-11.9-.4-19.9-6.9-9.8-12-7.5-13.4.8-15.8 9.4-7 10.8-1.1 5.9c3.8-2.1 8-8.7 8-8.7 8.3-10.2 22.2-3.7 22.2-3.7 5.4 2.8 13.3 1.3 13.3 1.3-11.7 10.6-4.6 36.8-4.6 36.8l7.3-3.5z" fill="#1a1a1a"/><path class="st1" d="M644.8 1195c-1.4-3.8-2.9-9-9.2-8.8M625.2 1176.1c2.7.9 4.7 3 5.4 5.7M627.4 1191.4l-3.9 2.5c-.5.4-2.8.9-2.8 1.5 0 .3.1.5.3.8.5 1 1.1 2 1.7 2.9M623.2 1209.6c.5-.1 2.2-.7 2.2-1.4 0-.1-.1-.2-.2-.3-1.7-2.9-4.1-5.4-6.9-7.3-.4-.2-1-.5-1.4-.2-.2.2-.3.4-.4.6-.3.9-.2 1.8-.4 2.6-.3 1-.6 2-.9 3.1-.1 1.1.5 2.3 1.5 2.5h.8c.8 0 1.6.2 2.3.4 1.2.2 2.3.2 3.4 0z"/><path d="M615 1206.4c.7-.3 1.3.6 1.8 1 1.5 1 3.2 1.6 5 1.7 1.3.1 2.7-.1 4-.4-.2.6-.7 1-1.3 1.3-.6.2-1.2.4-1.9.4-.8.1-1.6.2-2.5.3-1.1.1-2.1.1-3.2-.2-1.1-.2-2-.9-2.5-1.8-.2-.7-.1-2 .6-2.3z" fill="#c10072" stroke="#000" stroke-width=".5" stroke-miterlimit="10"/><path d="M625.8 1305.6c-1.1-6.9-1.6-12.1 3.2-17.1 7.9-8.2 21.2-18.9 26.7-24.8 12.5-13.2 53-39.1 53-39.1l14.1-2.4c-3.4-15.1-19.4-28-19.4-28l-7.8 16.1-47.1 24.4-3.6-1.6c2.9-3.2.3-6.5.3-6.5l-7.8 3.3c-10.4 6.1-14.2-1.6-14.2-1.6-2.5-5.9-11.3-6.9-11.3-6.9l2.3 5.5-3.5-.9-19.4-49.6 5.8-15.1c-6.8-4.8-30.8-1.5-30.8-1.5l5.7 18c-.6 10.4 10.8 42.6 14.6 51.8 3.8 9.2 2.3 11.7.4 15.7s-9.1 8.8-9.2 15.2 1.4 9.8-1.2 14.6-5.8 7.2-5.8 7.2 21.9 22.2 55 23.3z" fill="#eb058c" stroke="#000" stroke-width=".5" stroke-miterlimit="10"/><path class="st1" d="M632.2 1191.3s2.5-.9 5.3.7 1.7 4.2 4.2 5.1M625.5 1186.1s.6-2.1-1.7-4.6-6.5-.6-6.7-2.4"/><path d="M616.6 1201s-.6-3.2 2.3-2.2 5.2 6.4 7.6 7 4.3-.1 4.3-.1-3.4 3.4-5.6 2.2-4.5-6.7-8.6-6.9z" fill="#c10072" stroke="#000" stroke-width=".5" stroke-linecap="round" stroke-linejoin="round" stroke-miterlimit="10"/></g></g><g><circle class="st1" cx="414.9" cy="381.2" r="85.9"/><g id="Layer_7_2_"><path class="st1" d="M432.2 242.3c.8 2.8 1.2 5.8 1.7 6.8.4.6.8 1.3 1.2 1.9.7 1 1.8 2.3 1.9 3.5l.3 4.8c.1 2.4 1.3 4.1 3.7 4 2.5-.1 3.6-2.3 3.2-4.9l-.1-3.4c-.1-2 .1-4.1.8-6 1.1-4-.1-8.7-1.5-12.3-.8-2.3-3.8-3.6-7.9-5.1-2-.7-5.4-1.3-4 1 1.1 2 7.2 4.7 5.7 11-.1.3-.4 1.1-.7 1.1-1.2.1-1.5-2.5-2.1-3.8-.9-1.8-2.1-2.4-2.9-2.2-.9.2.1 1.6.7 3.6zM317.8 275.8c-.8.1-1.7 1.2-1.9 3.1-.1 1.4.6 4-.6 4.3-.3.1-.9-.6-1.1-.8-3.7-5.4.9-10.1 1.3-12.3.4-2.7-2.4-.9-4.1.5-3.3 2.9-5.6 5.2-5.6 7.6.1 3.9.6 8.7 3.1 12 1.3 1.5 2.3 3.4 2.9 5.3l1.1 3.2c.5 2.5 2.3 4.2 4.7 3.4 2.3-.8 2.7-2.8 2-5.1l-1.5-4.6c-.4-1.1.2-2.8.5-3.9.2-.7.4-1.4.5-2.2 0-1.2-.6-4.1-.9-7 0-2 .4-3.6-.4-3.5z"/><path class="st7" d="M341.2 272.5c5-11-4.8-19.3-4.8-19.3 14.1-3.7 36.2 10.7 37.3 27.5.6 9.4 16 22.8 20.7 22.4 5.8-.4 15.2.1 21.5 10.5 4.9 8.1 9.7 17.2.7 39.3 0 0-6.3 18.2-42 8.9-45.3-11.8-45.7-62.2-33.4-89.3z"/><path class="st11" d="M392.4 371.9c-25.7 27.6-11.4 32.3-11.4 32.3 5.1 2.8 9.7 6.4 13.6 10.7l3.5 17.2c.4 2.2 1.4 4.2 2.9 5.9 5.2 6.1 14.3 4.4 14.2 8.2 0 0 31.2-5.4 44.9-15.7l.4-10.3c-.4-4.7.2-7.4-1.5-9.5-4.1-5.1-7.4-6.2-6.4-10.7.7-3 .1-6.2-1.5-8.9-1.7-2.3-3.6-4.4-5.8-6.3-3.9-3.5-5.1-9.1-3.1-13.9 6.8-16.1 14.5-43.8 13.1-58.3-1.4-15.5-9.7-54.4-9.7-54.4-2-1.6-9-2.3-10.2.8l3.2 55.7c-8.2 20.3-14.5 38.5-17.4 47.1-1.1 3.4-3.7 6.1-7 7.3l-4 .4"/><path class="st11" d="M332 370.9c-4.2-3.6-7.1-8.6-8.1-14.1l-11.1-58c3-1.5 5.9-2.9 9.4-1l17.9 50.4c1 2.7 3 4.8 5.6 5.9 24 10.3 63.4 40.5 58.6 45.6-5 5.4-12 9.1-16.5 8.3-13.8-2.5-42.7-26-55.8-37.1z"/><path class="st1" d="M393.5 370.2c-.1.3-.1.6 0 .8s.3.4.6.6c2.7 1.9 5.6 3.5 8.7 4.8 1.8.8 4 1.4 5.6.4 1-.7 1.8-1.7 2.3-2.9l2.4-4.8c-1.8-.7-2.3-2.9-2.5-4.8-.3-2.5-.5-5-.5-7.4-4.6-2.1-9.6-3-14.7-2.6-1.7.1-2.5.6-2.2 2.3s.6 3 .8 4.6c.2 3 .1 6.1-.5 9z"/><path class="st1" d="M415.8 357.4c4.5-4.6 6.2-11.2 3.8-25-2.5-13.8-8.9-17.2-8.9-17.2-4.7-4.2-10.7-7.6-17-8.3-3.6-.1-7.2.4-10.6 1.5-2.6.6-5.1 1.5-7.4 2.9-1.9 1.3-3.5 2.8-4.8 4.7-3.8 5.1-5.6 11.3-5.1 17.6 1.5 16.7 16.7 23.3 30.4 27.8 7.4 2.4 15.1.6 19.6-4z"/><path class="st9" d="M377.8 357.9s9.4-27.7-2.6-37.6c0 0 9.9-1.2 15.3-4 5.3-2.7 15.1-6.7 23.7 3 0 0 1.5 3.7 5.3 5.6l-2.3-5.6-6.2-7.4-15.5-6.1-13.2-.2-11.4 7.9-6.3 9.9.4 19.5 10.8 11.2 2 3.8z"/><path class="st6" d="M377.8 357.9s9.4-27.7-2.6-37.6c0 0 9.9-1.2 15.3-4 5.3-2.7 15.1-6.7 23.7 3 0 0 3.1 3.5 3.1 5"/><path class="st1" d="M391.6 325.4c-3.7 1.4-5.9 5.3-5.4 9.2M397.7 320.9c1.6-2.2 4.3-3.4 7-3.2M406.6 339.4c.6-.9 1.1-1.9 1.6-2.9.1-.2.2-.5.2-.8 0-.7-.6-1.1-1.2-1.5l-3-1.8"/><ellipse transform="rotate(-53.949 392.555 335.127)" class="st5" cx="392.6" cy="335.1" rx="1.9" ry="2.4"/><ellipse transform="rotate(-53.949 407.022 325.27)" class="st5" cx="407" cy="325.3" rx="1.9" ry="2.4"/><path class="st1" d="M401.2 345.8s4.6 2.4 8.2 1.3c2-.7 3.4-1.8 3.4-4.9"/><path d="M460 430.5l13.8 13.2s-20.6 21.8-56.1 23.4l-2.6-20.8c0-.1 39.5-8.8 44.9-15.8z" fill="#ddd" stroke="#000" stroke-width=".5" stroke-miterlimit="10"/></g></g></g></g></svg>