<svg version="1.1" id="Layer_1" xmlns="http://www.w3.org/2000/svg" xmlns:xlink="http://www.w3.org/1999/xlink" x="0" y="0" viewBox="0 0 947.9 854.6" xml:space="preserve"><style>.st0{fill:#fff}.st3{stroke-width:.5}.st3,.st4{fill:none;stroke:#000;stroke-miterlimit:10}.st5{opacity:.7;fill:#bcbcbc;enable-background:new}.st6{fill:#fff;stroke:#000;stroke-width:.5;stroke-miterlimit:10}.st7{fill:#1a1a1a}.st8,.st9{fill:#bcbcbc;stroke:#000;stroke-width:.5;stroke-miterlimit:10}.st9{fill:#0077bf}.st11{fill:#ccc}.st11,.st12,.st14,.st15,.st16{stroke:#000;stroke-width:.5;stroke-miterlimit:10}.st14,.st15,.st16{fill:#1a1a1a}.st15,.st16{fill:#eb058c}.st16{fill:#a3a3a3}</style><g id="Layer_1_1_"><path class="st0" d="M190.1 353.9S63.2 231.1 237.8 97c0 0 188.8-178.2 425.1-10.6 0 0 112.8 67.3 159.1 255 0 0 20.8 161.1-73.3 280.1 0 0-108.4 122.7-279.8 190.4-75.8 30-158.3 33.7-231.1 8.2-56.8-19.8-110.2-57.6-110.1-129.5 0 0 10-45 70.3-97.7.1.1 149.9-84.3-7.9-239z" id="Layer_7"/><path d="M209.5 228.3c-552 234 235.2 522.5 235.2 522.5l486.7-238.1s-518.9-80.6-552.2-209.6c-23.4-90.7 222.5-118.2 222.5-118.2s-236.5-22.7-392.2 43.4z" fill="#e5e5e5" stroke="#000" stroke-width=".5" stroke-miterlimit="10"/><defs><path id="SVGID_1_" d="M209.5 228.3c-552 234 235.2 522.5 235.2 522.5l486.7-238.1s-518.9-80.6-552.2-209.6c-23.4-90.7 222.5-118.2 222.5-118.2s-236.5-22.7-392.2 43.4z"/></defs><clipPath id="SVGID_2_"><use xlink:href="#SVGID_1_" overflow="visible"/></clipPath><g clip-path="url(#SVGID_2_)"><path class="st0" d="M607 693.9c-1.1-.3-111.5-28.6-229.8-73.5C307.7 594 249 567 202.9 540.3c-58-33.6-96.4-66.9-114.1-99.2C76.6 419 74 397 80.9 375.8c12.5-38.1 47.8-72 105.1-100.7 45.4-22.8 104.7-42.5 176.2-58.5 121.6-27.3 238.2-34.6 239.3-34.7l.7 6.2c-.9.1-90 16-178.4 47.1-51.8 18.2-93.2 38-123.1 58.8-36.8 25.6-56 52.7-56.9 80.6C242 427.1 349 478.8 553.3 523.9c155.5 34.3 313.5 52.7 315.1 52.9l-.7 6.2c-1.6-.2-160-18.6-315.7-53-91.6-20.2-164.4-42-216.4-64.6-31.1-13.5-55-27.5-71.2-41.7-18.3-16-27.3-32.6-26.7-49.5 1-29.9 21.1-58.7 59.6-85.5 30.4-21.1 72.3-41.2 124.6-59.6 46.7-16.4 93.6-28.6 127.7-36.5-45.4 4.8-114.9 13.9-186 29.9-71 15.9-129.8 35.5-174.8 58-55.7 28-90 60.6-101.9 97.1-6.4 19.5-3.9 39.8 7.4 60.4 17.2 31.3 54.7 63.9 111.7 96.8 45.8 26.5 104.2 53.3 173.4 79.7 118 44.8 228 73.1 229.1 73.3l-1.5 6.1z"/></g><path class="st3" d="M209.5 228.3c-552 234 235.2 522.5 235.2 522.5l486.7-238.1s-518.9-80.6-552.2-209.6c-23.4-90.7 222.5-118.2 222.5-118.2s-236.5-22.7-392.2 43.4z"/><path class="st4" d="M427.7 428.1L313.2 384M385.2 440l-132-50.8M411.9 396.6l-132-50.8M564.4 290.6l-120.3-46.7M557.9 316.2l-107.1-41.6M612.4 290.9l-120.3-46.7"/><ellipse transform="rotate(-70.67 451.78 624.123)" class="st5" cx="451.8" cy="624.1" rx="15.7" ry="144"/><ellipse transform="rotate(-70.67 576.12 565.288)" class="st5" cx="576.1" cy="565.3" rx="15.7" ry="144"/><path class="st5" d="M488.2 200.9c2.4 5.3-39 12.1-85.2 39-47.4 27.6-64.4 53.5-66.8 48.2s17.2-40.6 65.9-62.7 83.7-29.8 86.1-24.5zM433 191.9c1.8 5.6-36.1 12.4-85.2 33.6-50.3 21.8-74.3 40.6-76.1 35-1.8-5.6 26.5-33.2 77.4-49.5s82.2-24.7 83.9-19.1z"/><path class="st6" d="M670 283.1l9.3-10.6s6.8 8.8 10.3 8.7l-6.1 17.2s-14-9.1-13.5-15.3z"/><path class="st7" d="M665.5 587.3s-2.7 6.2-3.9 8.7 10.1 11.8 34.1 11c29-.9-15.1-11.7-18.3-14.9s-.1-7.6-.1-7.6l-9.3-.2-2.5 3z"/><path class="st6" d="M676.6 396.5l30 88.9c1 3 1 6.2.1 9.2l-30.1 93-11-.4 18-92.8-36.6-70.3 29.6-27.6z"/><path class="st6" d="M676.6 392.1s-15.2 16-17.6 34.9c-1.9 14.8-13.3 60.6-18.5 81.3-1.3 5.3-6.6 8.5-11.9 7.1-.3-.1-.6-.2-.8-.2l-94.1-32.6 2.1-11.6 85.9 17.2-2.2-106.9 57.1 10.8z"/><path class="st7" d="M533.4 469.2s-7.5-4.2-10.1-5.4-9.7 12.3-8.9 36.1c1 29 10.6-13.1 13.4-16.7 1.9-2.4 8.5.3 8.5.3l1.6-12.1-4.5-2.2z"/><path class="st6" d="M637.8 324.7l-14.4 72.4 57.4 11.2 8.8-73.2 11.7 28.6c.7 1.9 2.3 3.4 4.2 3.9l45 12.8 4.2-9.6-38.7-14.3c-.6-.9-1-1.9-1.3-3L701 308.7l-11.4-22.5-6.8 4.3-13.8-13.8-34.1 12.1 2.9 35.9z"/><path class="st8" d="M674.8 392.6l40.6 83.5-48.9 11.6-21.5-73.4 1.6-30.5z"/><path class="st8" d="M663.6 385.7L661 490l-49.1-9.2 7.5-95.1z"/><path class="st9" d="M635.3 318.4l-24.3 86 75.2 10.2 7.5-82.2-2.3 25.5 22-21.7-9.6-27.3-6.9-11.1-7.3-11.6-6.8 4.3-13.8-13.8-8.8 3-22.4 5.5s-22.2 16.3-32.7 24.2l16.6 23.2 13.6-14.2z"/><path class="st6" d="M631 370.8s8.7 13.3 13.1 9.2c17.2-15.9-3.2-9.2 2.7-11.2 5.6-1.8-1.3-2.1-11.4-5.1l-4.4 7.1zM608.7 314.7c-.1-.1-11.7 10.9-20.1 18.8-3.4 3.2-3.5 8.5-.3 11.9.6.6 1.2 1.1 2 1.5l40.5 24 4.5-7.2-27.5-25.1 10.9-9.9-10-14zM754.7 370.8s11.1-1.4 9.6 1-1.2 1.6-1.2 1.6c.8-.2 1.6-.2 2.5-.1.5.1 1.2-.3 1.8.1 2.2 1.5.9 6.5-2.7 10.4-4.1 4.5-13.1-5.5-13.1-5.5l3.1-7.5z"/><path class="st6" d="M767.3 373.5s-6.5-2.4-9 3.2 2.7 8.3 2.7 8.3"/><path class="st0" d="M652.1 327l-5.2-.9-2.3 13.7-2-.3 2.3-13.7-5.2-.9.3-1.8 12.4 2.1-.3 1.8zM653.6 341.3l-2-.3 2.6-15.4 2 .3-2.6 15.4zM662.6 326.9l2.7 13.9 7-12.3 2.8.5-2.6 15.4-1.9-.3 2.2-12.9-7 12.1-1.8-.3-2.7-13.7-2.2 12.9-2-.3 2.6-15.4 2.9.4zM689.1 333.3l-8.7-1.5-.8 4.8 8.1 1.4-.3 1.7-8.1-1.4-.9 5.3 8.8 1.5-.3 1.8-10.8-1.8 2.6-15.4 10.7 1.8-.3 1.8z"/><path class="st11" d="M708.4 226.2s-4.3-2.9-13.9-2.5c-11.3.5-18.9 8.5-23.4 20.2-2 5.1-4.8 22 2.6 29.8 2.7 2.8 9 5.5 14.2 6.7l20.5-54.2z"/><ellipse transform="rotate(-69.218 698.141 253.486)" class="st6" cx="698.1" cy="253.5" rx="29" ry="17.8"/><ellipse transform="rotate(-69.218 699.027 253.493)" class="st6" cx="699" cy="253.5" rx="25.3" ry="15.5"/><path transform="rotate(-55.994 698.132 263.328)" class="st12" d="M683.1 262.8h30.1v1.1h-30.1z"/><path transform="rotate(-21.471 701.501 249.625)" class="st12" d="M701 238.6h1.1v21.9H701z"/><ellipse transform="rotate(-69.218 703.77 254.411)" cx="703.7" cy="254.4" rx="3.5" ry="2.1" fill="#777" stroke="#000" stroke-width=".5" stroke-miterlimit="10"/><g id="Layer_6"><g id="Layer_2_1_"><path class="st14" d="M468.5 361.9s2.5 8.5 18.8-.1c0 0 12.7-6.6 22.4-16 0 0 12.3-11 28.1-12.2 0 0 12.4-2.5 24.9 7.7 0 0 11.6 9 9.5 23.1 0 0-.7 17.9-20 28.5 0 0-6.5 3.4-10.2 8.2l-36.1-.4-33-20.6-1.4-4.4c-.1.1-5.5-3.8-3-13.8z"/><path class="st6" d="M523.1 389.1c-.2.1-.4.3-.5.6-.1.2-.1.5 0 .7.8 3 1.8 5.8 3.2 8.6.8 1.6 1.9 3.4 3.7 3.7 1.1.1 2.3-.2 3.3-.7l4.5-1.9c-.8-1.5.1-3.4 1.1-4.8 1.3-1.9 2.7-3.7 4.2-5.5-1.9-4.3-4.8-8-8.6-10.7-1.3-.9-2.1-1.1-3 .3-.7 1.3-1.4 2.5-2.2 3.7-1.6 2.3-3.5 4.3-5.7 6z"/><path class="st6" d="M534.7 385.8c3.2 3.8 7.5 7.3 12.5 7.1 3.7-.2 6.9-2.4 9.5-5 2.6-2.9 5-6.1 7-9.4 1.5-2 2.6-4.2 3.4-6.6 1-3.4.6-7.1.1-10.6-.8-5.8-1.8-12-5.8-16.3-2.3-2.4-5.3-3.9-8.3-5.3-2.2-1.2-4.5-2-6.9-2.5-2.1-.3-4.1-.1-6.1.4-5.7 1.2-10.8 4.5-14.3 9.2-9 12.5.2 28.9 8.9 39z"/><path class="st7" d="M523.8 373.7s19.8-14.6 17.5-28.8c0 0 4.7 5.5 10.2 6.6 0 0 13.6 3.1 13.8 15.1 0 0-.8 7 .8 10.7l2.6-4.8.9-11.5-5.9-15.6-9.1-8.2-12.8-1.4-10.4 3.1-11.5 13.9.7 14.3 3.2 6.6z"/><path class="st6" d="M538.5 362.8c.6.3 1.2.3 1.8 0 .5-.3 1-.6 1.5-1 .4-.3.8-.5 1.2-.6 1.5-.8 3.4-.4 4.4 1 .8.9 1.4 1.9 1.8 3M555.3 364l1.1-.9c.9-.8 2-1.3 3.1-1.3.9.2 1.8.6 2.6 1.2s1.8.7 2.7.3M549 358.9c-2.6-2.6-6.6-3.2-9.8-1.3M555 358.7c2-1.6 4.7-1.9 7.1-1M550.9 375.5c1-.3 1.9-.7 2.9-1.1.2-.1.4-.2.6-.4.3-.5.3-1.2.1-1.7l-1-3.1M547 384.4c.7.3 1.3.6 1.9 1 .2.2.4.3.6.5.9.3 2 0 2.5-.9.4-.9.8-1.8 1.1-2.7l1.2-2.1c.1-.2.1-.4.1-.6-.1-.4-.7-.6-1.1-.6-3-.4-6.1.5-9 1.4-.1 0-.2.1-.3.1-.4.5.4 1.8.8 2.2.5.7 1.3 1.3 2.2 1.7z"/><path class="st15" d="M551.3 386.8c-.9.4-1.9.3-2.8-.1-.9-.4-1.7-1-2.4-1.7-.6-.5-1.1-1.1-1.6-1.6-.4-.4-.7-.9-1-1.4s-.3-1.1-.2-1.7c.8 1 1.7 1.8 2.7 2.5 1.3 1 2.9 1.6 4.5 1.7.6 0 1.5-.3 1.8.3.5.9-.3 1.8-1 2z"/><path class="st15" d="M555 378.5c-1.8-.9-3.9-1.1-5.9-.6s-3.9 1.3-5.6 2.2c-.1 0-.2.1-.2.3s.2.2.3.2c1.9.5 3.8-.2 5.7-.4 1.5-.2 3.1-.1 4.6.2 1.1.3 2.8-.9 1.1-1.9z"/><ellipse transform="rotate(-13.344 544.825 363.007)" class="st14" cx="544.9" cy="362.9" rx="1.4" ry="1.8"/><ellipse transform="rotate(-13.05 559.674 363.649)" class="st14" cx="559.7" cy="363.7" rx="1.4" ry="1.8"/><path class="st14" d="M472.8 380.2s9.3 19.5 24.1 23.9l43.8 4.2 1.2-7.1"/></g><path class="st6" d="M554.3 538l2.1 3.5s14.2 12.8 9.7 27.9l-24 74.1-8.9-4.8 11.2-65.9s.3-29.9-16.4-35.2c0 0 19.2-2.4 26.3.4zM479.1 546.6s-11 33.6-22.4 39.8c0 0-7 3-18.2-3.6l-51.9-33 6-7.9 44.9 18s7.4 3.6 12.9-5c0 0 9.8-21 8.5-22.8l20.2 14.5z"/><path class="st7" d="M526.6 658.2l3.7.7 3.4-11.8 8.6 14.4 25 7.1s1.2-3.6-3.6-6.6c0 0-16.6-6.6-19-21.1 0 0-9.5-2.5-11.9-6.4 0 0-3.4 5.2-2.4 10-.1 0 .9 2.2-3.8 13.7zM375.4 535.9l11.3 6.1-15.9 5.5-10.9 23.9s4.4 2.1 7.7-2.9c0 0 7.7-13.9 23.9-14.3l8.4-10.8s-4.9-4.3-8.9-4.8c-4.9-1.1-9.6-2.9-14-5.4l-1.6 2.7z"/><path class="st11" d="M540.7 408.3l3.1 40.9 32.2-7.6 1.8 11.2-36.4 13c-2.7 1-5.7-.5-6.6-3.2 0-.1 0-.1-.1-.2L518.9 413l21.8-4.7z"/><path class="st8" d="M523.8 474.3s39.3 69.1 42.6 81.8c1.6 6.1-.2 13.6-1.2 16-2.2 5.4-8.2.5-20.8-2.3 0 0-10.2-19.9-22.1-34.7-12.1-15-21.8-31.9-28.7-49.9-3.7-9.2 24.7-21.2 30.2-10.9z"/><path class="st15" d="M480.5 465.7s9.1-20.7 8.4-53c0 0 6.3-13.5 9.1-21.5 4.8-.8 12.1-1.5 18.3.1 12.4 3.4 23.5 11.2 24.5 8.9 0 0-2.2 3.6-.3 4.4 0 0 3.4 7.3 3.8 22.5 0 0 .8 15-10.5 17.5 0 0-12.7 22-9.9 29.5-26.3 3.2-43.4-8.4-43.4-8.4z"/><path class="st11" d="M489.1 421c-10.8 8.9-12.5 12.3-19.4 18.3l35.4 12.2c-4.3 1.4-6.8 9.5-6.8 9.5l-45.6-14c-3.1-1.1-4.8-4.4-3.7-7.5.1-.4.3-.8.5-1.2 6.3-10.6 21.6-25.3 21.6-25.3 20.4-23.2 30.5-22.5 30.5-22.5s6.3 11.7-12.5 30.5z"/><path class="st6" d="M516.2 391.4c2.2-.7 4.1-2.3 5.1-4.4 0 0 9 11.6 17.5 10.2 1.8 1.7 1.3 4.5 2.1 6.2.3.5 0 1.3-.6 1.3-16.5.8-24.1-13.3-24.1-13.3z"/></g><path class="st6" d="M504 452.3s9.3-.5 8.6 1.5-4.4 1-2.7 1.1 2.9-.8 4.3 1.1c1.1 1.5-4.2 6.9-6.3 8.1s-4.8-2.1-9.1-4c.1-.1 2-5.9 5.2-7.8zM576.2 443.5s5.4-3.5 7.2-4c3-.9.8 1.4-.1 2.6s.8-1.3 3.7-.9 2.3 7-.6 9.4c-1.6 1.4-4 1-9 .8l-1.2-7.9zM583.3 442s-6.9 7.2 1.2 9.4"/><path class="st8" d="M480.5 465.7c-9.3 8.7-15.6 20.2-17.8 32.7-3.8 21-9.4 54-15.2 59.7 0 0-5 26.2 1.2 28.7s10.1 1.7 20.1-15.9c10-17.6 45.6-96.1 45.6-96.1s-20.6-2.4-33.9-9.1z"/><g id="Layer_3"><path class="st6" d="M370.2 149.1l-1.2-3.3c0-.1 0-.1-.1-.2h-.3c-.5.2-1.1.5-1.6.3s-.6-1.1-1.1-1.5c-.8-.7.5-.6.5-.8s-.4-.3-.6-.4-.7 0-.8-.2 0-.6-.2-.8-.9 0-1.1-.3c-.1-.1-.1-.3-.1-.4 0-.5.2-1 .4-1.4.1-.2.2-.4.1-.6 0-.3-.3-.5-.5-.7-.3-.6-.4-1.3-.3-1.9.1-.9 0-1.8-.1-2.6 0-.7.3-1.3.9-1.7 1.3-.9 2.9-1.3 4.4-.9 1.5.4 2.9 1 4.1 2 .5.3.9.7 1.3 1.2.6.9 1 1.9 1.1 3s.1 2.1 0 3.2c-.1.7.1 1.5.4 2.1.1.1.1.2.1.3s0 .2-.1.3c-.2.4-.4.7-.6 1-1.2 1.9-2.8 3.3-4.6 4.3zM371.8 219s-1.1 3.5-1.3 4.2l-5.1-1.6c.7-1.1 1.2-2.3 1.6-3.5-.1 0 4.5 0 4.8.9z"/><path class="st7" d="M370.5 226v.5l-4 .4-.2-.4s-7.6 1.6-9.1.2c0 0-.6-.5 1.3-1.2 0 0 6.1-2.9 7.7-5.4 0 0 .9 2.5 4.7 1.9.2 1.4 0 2.7-.4 4z"/><path class="st6" d="M425 184.6l2.4-1.1s2.8 3.4 2.5 4.6l-3.7 1.3-1.2-4.8z"/><path class="st7" d="M428.8 181.1l.5-.6 3.2 1.6-.2.4s.7 1 3.7 2c0 0 6.1 2.3 4.2 3.8-.8.1-1.5 0-2.2-.2 0 0-2.7-1.2-8 0l-.4.1s-.6-3.1-2.7-4.4c-.1-.1.5-2.6 1.9-2.7zM361.6 133.4c.1.5.3 1 .7 1.2.4.3 1 .3 1.4.1.3-.2.6-.5.8-.8.2-.3.6-.4 1-.3.3.2.4.4.5.7v.9c0 .7.4 1.4 1 1.7.2.1.3.1.5.2.4.2.6.6.7 1.1 0 .2 0 .3.1.5s.2.3.4.3.3-.2.4-.4c.1-.3.1-.6.1-.8-.1-.8.7-1.5 1.4-1.8.3-.2.7-.2 1-.1.4.2.7.5.9.9.7 1.4 1.1 2.9 1.2 4.4.6-.1 1.1-.2 1.7-.2.6-1.4.8-2.9.6-4.4-.1-1.5-.5-2.9-1.1-4.2-.2-.5-.5-1-.8-1.4s-.6-.7-1-1c-.5-.4-1.1-.7-1.7-1-1.8-.5-3.6-.5-5.4 0-1.1.2-2.2.7-3.1 1.4-1 .6-1.4 1.8-1.3 3z"/><path class="st3" d="M365.1 137.8c-.2-.1-.5-.1-.7-.1-.3.1-.6.3-.8.5l-.2.2"/><ellipse transform="rotate(-9.735 366.788 138.613)" class="st7" cx="366.8" cy="138.7" rx=".3" ry=".6"/><path class="st3" d="M365.1 138.4c-.4 0-.8.2-1.1.4v.1M372.1 136.1c.3.6.5 1.4.4 2.1 0 .2-.1.5-.1.7l-.3.6c-.2.1-.4.2-.6.2s-.4-.2-.4-.5"/><path class="st6" d="M376 142.9l-.9-.6-5.7 6.5 1.5 1.9 5.4-7.4zM353.5 158.7c-.2-.4-.4-.9-.9-.9-.2 0-.4.1-.5.1s-.6-.2-.9-.2-.5.2-.8.3-.6-.1-.8 0c-.2.2-.3.4-.3.7s0 .5-.1.8c-.1.2-.3.4-.4.6s.1.6 0 .9c0 .1-.1.2-.1.4-.1.4-.1.8-.1 1.2 0 .1 0 .3.1.4.1.3.4.5.7.6.7.2 1.5.2 2.2.1.5 0 .9 0 1.4.1.6.2 1.2.2 1.8.3.1 0 .2 0 .2-.1 0 0 .1-.1.1-.2.1-.5.2-.9.3-1.4.1-.3.2-.7.2-1 0-.2-.6-.5-.8-.7-.5-.7-.9-1.3-1.3-2z"/><path class="st11" d="M355.7 160.6l-1.1-.3-1.3 3.4 1 .3 1.8.2zM391.1 179.8L380.5 194c-1 1.1-1.8 2.4-2.3 3.8l-6.2 22.1s-4.1.2-5.9-1.1c0 0 2-16.2 2.5-17.9 0 0 1-7.8 2.8-10.7 0 0 6.5-13.4 9.4-16-.1 0 9 3.3 10.3 5.6z"/><path class="st6" d="M384 170.2l-4.7 3.9s-7.8-9.8-8-12.5c-.1 0 11.3 5.5 12.7 8.6z"/><path class="st9" d="M380.2 176.3l-1.9-2.2.4-.3 1.9 2.2z"/><path class="st11" d="M392.6 170.7s3.7 2.2 3.8 7.9l5.6 9.9s1.5 2.5 3.5 1.5l19.5-5.9s1.9 4 1.8 5.6l-17.9 7s-7 3.2-11.4-.2c-4-3.3-7.6-7.1-10.6-11.3l-7.4-10.6 8.7-4.7s3.4-.5 4.4.8z"/><path class="st7" d="M385.2 171.6l-4.8 4.4-1.8-2 5.8-4.6z"/><path class="st6" d="M397.6 155.8c.3.3.5.7.7 1.2l.3.9.7 2.8c0 .2.1.4.2.6.2.2.4.4.6.5.4.3.8.6 1.1 1 .3.4.6.8 1 .9.5.1 1-.1 1.2-.5.1-.2.1-.3.2-.5.1-.1.3-.2.4-.3s.1-.6.3-.9.4-.4.5-.6-.1-.3 0-.4c.1-.1.1-.1.2-.1.2-.2.3-.5.1-.8-.5-.6-.8-1.3-1.4-1.8-1.1-1.1-2.1-2.2-3.2-3.2l-.2-.2h-.2c-1.1.1-1.9.6-2.5 1.4z"/><path class="st11" d="M400.8 154l.5.9-3.3 1.9-.8-1.1c0 .1 2-2.6 3.6-1.7z"/><path class="st16" d="M397.5 156.6l-6.1-7.9-8.3 3.3-4.2-6.4 11.1-2.9s2.6-1.2 4.2.9l7 10.5-3.7 2.5z"/><path class="st16" d="M364.9 161.4s-.1.6-1 .4l-8.6-1.6-1.4 3.9 9.9 3.1s3.4 1.6 5.4-1.3l2.5-3.5 12.3 9s5.8 4.4 9.1.1c1.4-1.9 2.9-3.7 4.6-5.5 0 0 .7-1-1.1-1.6 0 0-8.8-4.9-10.5-7.6 0 0-5.6-12.4-10.1-14 0 .1-8.7 11.6-11.1 18.6z"/></g><g id="Layer_3-2"><path class="st6" d="M416.1 153.9l-1.1-3.3c0-.1 0-.1-.1-.2h-.3c-.5.1-1.1.5-1.6.3s-.6-1.1-1.1-1.5c-.8-.7.5-.6.5-.8s-.4-.3-.6-.4-.7 0-.8-.2 0-.6-.2-.8-.9 0-1.1-.3c-.1-.1-.1-.3-.1-.4 0-.5.2-.9.4-1.4.1-.2.2-.4.1-.6 0-.3-.3-.5-.5-.7-.3-.6-.4-1.3-.3-1.9.1-.9 0-1.8-.1-2.6 0-.7.3-1.3.9-1.7 1.3-.9 2.9-1.3 4.4-.9 1.5.3 2.9 1 4.1 2 .5.3.9.7 1.3 1.2.6.9 1 1.9 1.1 3s.1 2.1 0 3.2c-.1.7.1 1.5.4 2.1.1.1.1.2.1.3s0 .2-.1.3c-.2.4-.4.7-.6 1-1.2 2-2.8 3.4-4.7 4.3zM417.7 223.8s-1.1 3.5-1.3 4.2l-5.1-1.6c.7-1.1 1.2-2.3 1.6-3.6 0 .1 4.6.2 4.8 1z"/><path class="st7" d="M416.4 230.8v.5l-4 .4-.2-.4s-7.6 1.6-9.1.2c0 0-.6-.5 1.3-1.2 0 0 6.1-2.9 7.7-5.4 0 0 .9 2.5 4.7 1.9.2 1.4.1 2.8-.4 4z"/><path class="st6" d="M471 189.4l2.4-1.2s2.8 3.4 2.5 4.6l-3.8 1.3-1.1-4.7z"/><path class="st7" d="M474.8 185.9l.6-.6 3.2 1.6-.2.4s.7 1 3.7 2c0 0 6.2 2.3 4.2 3.8-.8.1-1.5 0-2.2-.2 0 0-2.7-1.2-8 0l-.4.1s-.6-3.1-2.7-4.5c-.2 0 .3-2.4 1.8-2.6zM407.6 138.2c.1.5.3.9.7 1.2.4.3 1 .3 1.4.1.3-.2.6-.5.8-.8.2-.3.6-.4 1-.3.3.2.4.4.4.7v.9c0 .7.4 1.4 1 1.7.2.1.3.1.5.2.4.2.6.6.7 1 0 .2.1.3.1.5.1.2.2.3.4.3s.3-.2.4-.4c.1-.3.1-.6.1-.8-.1-.8.7-1.5 1.4-1.8.3-.2.7-.2 1-.1.4.2.7.5.9.9.7 1.4 1.1 2.9 1.2 4.4.6-.1 1.1-.2 1.7-.2.6-1.4.8-2.9.6-4.4-.1-1.5-.5-2.9-1.1-4.2-.2-.5-.5-1-.8-1.4s-.6-.7-1-1c-.5-.4-1.1-.7-1.7-1-1.8-.5-3.6-.5-5.4 0-1.1.2-2.2.7-3.1 1.4-.9.7-1.4 1.9-1.2 3.1z"/><path class="st3" d="M411.1 142.6c-.2-.1-.5-.1-.7-.1-.3.1-.6.3-.8.5l-.2.2"/><ellipse transform="rotate(-9.599 410.447 144.107)" class="st7" cx="410.5" cy="144" rx=".3" ry=".6"/><path class="st3" d="M411 143.2c-.4 0-.8.2-1.1.4v.1M418.1 140.9c.3.6.5 1.4.5 2.1 0 .2-.1.5-.1.7l-.3.6c-.2.2-.4.2-.6.2s-.4-.2-.4-.5"/><path class="st6" d="M422 147.7l-.9-.6-5.7 6.5 1.5 2 5.4-7.5zM399.5 163.5c-.2-.4-.4-.9-.9-.9-.2 0-.4.1-.5.1s-.6-.2-.9-.2-.5.2-.8.3-.6-.1-.8 0c-.2.2-.3.4-.3.7s0 .5-.1.8c-.1.2-.3.4-.4.6s.1.6 0 .9c0 .1-.1.2-.1.4-.1.4-.1.8-.1 1.2 0 .1 0 .3.1.4.1.3.4.5.7.6.7.2 1.5.2 2.2.1.5 0 .9.1 1.4.1.6.2 1.2.3 1.8.3.1 0 .2 0 .2-.1s.1-.1.1-.2c.1-.5.2-.9.3-1.4.1-.3.2-.7.2-1 0-.2-.6-.5-.8-.7-.5-.7-1-1.3-1.3-2z"/><path class="st11" d="M401.7 165.5l-1.1-.4-1.3 3.5.9.3 1.9.1zM437.1 184.7l-10.6 14.2c-1 1.1-1.8 2.4-2.3 3.8l-6.1 22.1s-4.1.2-5.9-1.1c0 0 2-16.2 2.5-17.9 0 0 1-7.8 2.8-10.7 0 0 6.5-13.4 9.4-16-.2-.1 8.9 3.2 10.2 5.6z"/><path class="st6" d="M430 175l-4.7 3.9s-7.8-9.8-8-12.5c-.1 0 11.3 5.5 12.7 8.6z"/><path class="st9" d="M426.2 181.1l-1.9-2.2.4-.3 1.9 2.2z"/><path class="st11" d="M438.5 175.5s3.7 2.2 3.8 7.9l5.6 9.9s1.5 2.5 3.5 1.5l19.5-5.9s1.9 4.1 1.8 5.6l-17.9 7s-7 3.2-11.4-.2c-4-3.3-7.6-7.1-10.6-11.3l-7.4-10.6 8.7-4.7c.1-.1 3.4-.5 4.4.8z"/><path class="st7" d="M431.2 176.5l-4.9 4.3-1.7-1.9 5.8-4.7z"/><path class="st6" d="M443.6 160.6c.3.4.5.7.7 1.2.1.3.2.7.3 1l.7 2.8c0 .2.1.4.2.6.2.2.4.4.6.5.4.3.8.6 1.1 1 .3.4.6.8 1 1 .5.2 1-.1 1.2-.5.1-.2.1-.3.2-.5.1-.1.3-.2.4-.3s.1-.6.3-.9.4-.4.4-.6v-.4c.1-.1.1-.1.2-.1.2-.2.3-.5.1-.8-.5-.6-.8-1.3-1.4-1.8-1.1-1.1-2.1-2.2-3.2-3.2l-.2-.2h-.2c-1 0-1.8.5-2.4 1.2z"/><path class="st11" d="M446.7 158.8l.5 1-3.3 1.9-.8-1.1c.1 0 2-2.7 3.6-1.8z"/><path class="st16" d="M443.4 161.4l-6.1-7.9-8.3 3.3-4.2-6.5 11-2.9s2.6-1.2 4.2.9l7 10.5-3.6 2.6z"/><path class="st16" d="M410.9 166.2s-.1.6-1 .4l-8.6-1.6-1.4 3.9 9.9 3.1s3.4 1.6 5.4-1.3l2.5-3.5 12.3 9s5.8 4.4 9.1.1c1.4-1.9 3-3.7 4.6-5.5 0 0 .7-1-1.1-1.6 0 0-8.8-4.9-10.5-7.6 0 0-5.6-12.4-10.1-14 0 .1-8.8 11.7-11.1 18.6z"/></g><g id="Layer_3-3"><path class="st6" d="M298.1 163.6l-1.4-4c0-.1-.1-.1-.1-.2-.1-.1-.2-.1-.3 0-.6.2-1.3.6-2 .4s-.7-1.3-1.3-1.8c-1-.8.7-.7.6-1s-.5-.4-.8-.4-.8 0-1-.2 0-.7-.3-1-1 0-1.3-.3c-.1-.2-.1-.3-.1-.5.1-.6.2-1.1.5-1.7.1-.2.2-.4.2-.7 0-.4-.4-.6-.6-.9-.4-.7-.5-1.5-.4-2.3.1-1.1 0-2.1-.2-3.2 0-.8.4-1.5 1.1-2 1.5-1.1 3.5-1.5 5.4-1.1 1.8.4 3.6 1.2 5 2.4.6.4 1.1.9 1.6 1.5.8 1.1 1.2 2.3 1.3 3.6.1 1.3.1 2.6 0 3.9-.1.9.1 1.8.5 2.6.1.1.2.3.2.4 0 .1 0 .3-.1.4-.2.5-.5.9-.8 1.2-1.5 1.9-3.3 4-5.7 4.9zM282.5 242s-2.6 3.6-3.1 4.4l-5.3-3.9c1.2-1 2.3-2.2 3.2-3.5 0 0 5.3 1.9 5.2 3z"/><path class="st7" d="M278.4 249.6l-.2.6-4.8-1-.1-.6s-9.4-1-10.7-3.2c0 0-.5-.8 1.9-.9 0 0 8.1-1 11-3.3 0 0 .1 3.2 4.7 4 .1-.1-.3 2.9-1.8 4.4z"/><path class="st6" d="M366.5 198l2.6-1.9s4.1 3.5 4 5l-4.2 2.4-2.4-5.5z"/><path class="st7" d="M370.4 193.1l.5-.8 4.2 1.3-.2.5s1.1 1.1 4.9 1.6c0 0 7.9 1.5 5.8 3.7-.9.3-1.8.3-2.7.2 0 0-3.4-.9-9.7 1.6l-.4.2s-1.4-3.6-4.2-4.8c-.1 0 0-3.1 1.8-3.5zM287.8 144.4c.1.6.4 1.2.9 1.5s1.2.4 1.7.1c.4-.3.7-.6 1-1s.8-.5 1.2-.4c.3.2.5.5.5.9v1.1c0 .9.4 1.7 1.2 2.1.2.1.4.1.6.2.5.3.8.7.8 1.3 0 .2.1.4.1.6.1.2.2.3.4.3s.4-.3.5-.5c.1-.3.1-.7.1-1-.1-1 .8-1.9 1.8-2.2.4-.2.8-.2 1.2-.1.5.2.9.6 1.1 1.1.9 1.7 1.4 3.5 1.4 5.4.7-.2 1.4-.2 2.1-.2.7-1.7 1-3.5.8-5.3s-.6-3.5-1.4-5.1c-.3-.6-.6-1.2-1-1.7l-1.2-1.2c-.6-.5-1.3-.9-2.1-1.2-2.1-.8-4.4-.5-6.6 0-1.4.2-2.7.8-3.9 1.7-.9.8-1.4 2.2-1.2 3.6z"/><path class="st3" d="M292 149.8c-.3-.1-.6-.2-.9-.1-.4.1-.7.4-1 .6-.1.1-.2.1-.2.2"/><ellipse transform="rotate(-9.439 291.272 151.452)" class="st7" cx="291.3" cy="151.5" rx=".3" ry=".7"/><path class="st3" d="M292 150.6c-.5 0-.9.2-1.3.5v.1M300.6 147.8c.4.8.6 1.7.5 2.6 0 .3-.1.6-.2.8-.1.3-.2.5-.4.7-.2.2-.5.3-.7.2-.3-.1-.5-.3-.5-.6"/><path class="st6" d="M305.3 156.1l-1.1-.7-7 7.9 1.8 2.4 6.6-9.1zM277.8 175.3c-.2-.5-.5-1.1-1.1-1.1-.2 0-.4.1-.6.1-.4 0-.7-.3-1.1-.2s-.6.3-1 .3-.7-.1-1 0c-.3.2-.4.5-.4.8s0 .6-.1.9c-.1.3-.4.4-.5.7s.1.7 0 1.1c0 .1-.1.3-.1.4-.1.5-.2.9-.1 1.4 0 .2 0 .4.1.5.2.3.5.6.9.7.9.2 1.8.2 2.7.2.6 0 1.1.1 1.7.2.7.2 1.5.3 2.2.4.1 0 .2 0 .3-.1.1-.1.1-.1.1-.2.2-.6.3-1.1.4-1.7.1-.4.2-.8.3-1.3 0-.3-.7-.6-.9-.9-.8-.6-1.4-1.4-1.8-2.2z"/><path class="st11" d="M280.5 177.7l-1.4-.4-1.6 4.1 1.2.4 2.3.2zM319.9 204l-17.7 12.3c-1.6.9-3 2.1-4.1 3.6l-15.5 23.2s-4.9-1.4-6.4-3.6c0 0 8.6-18 9.7-19.8 0 0 4.1-8.7 7.3-11.3 0 0 12.6-13.1 17-14.9-.2 0 9.1 7.3 9.7 10.5z"/><path class="st6" d="M315 189.5l-5.8 4.7s-9.5-11.9-9.8-15.3c0 0 13.9 6.8 15.6 10.6z"/><path class="st7" d="M316.4 191.2l-5.9 5.3-2.1-2.4 7.1-5.7z"/><path class="st9" d="M310.3 196.8l-2.3-2.6.5-.4 2.3 2.7z"/><path class="st11" d="M324.7 188s4.9 1.9 6.2 8.7l8.8 10.7s2.3 2.7 4.6 1.1l22.2-11.1s3.2 4.5 3.3 6.4l-20.1 12s-7.7 5.3-13.7 2c0 0-8.9-5-15.1-11.4l-11.2-11.2 9.5-7.5c0 .1 4-1.1 5.5.3z"/><path class="st6" d="M331.6 171.9c.3.4.6.9.8 1.4.1.4.2.8.3 1.1l.8 3.4c0 .3.1.5.3.7.2.2.4.4.7.6.5.3 1 .7 1.3 1.2.4.4.7 1 1.2 1.2.6.2 1.2-.1 1.5-.6l.3-.6c.1-.1.4-.2.5-.4s.1-.8.3-1.1.5-.4.5-.8-.1-.4 0-.5.2-.1.3-.2c.3-.2.4-.6.2-.9-.6-.7-1-1.6-1.7-2.2l-3.9-3.9c-.1-.2-.4-.3-.6-.2-1.1.2-2.1.8-2.8 1.8z"/><path class="st11" d="M335.4 169.8l.6 1.2-4 2.3-.9-1.3c.1-.1 2.4-3.4 4.3-2.2z"/><path class="st16" d="M331.4 172.9l-7.4-9.6-10.1 4-5.1-7.9 13.5-3.5s3.2-1.5 5.2 1.1l8.5 12.8-4.6 3.1z"/><path class="st16" d="M291.7 178.7s-.1.8-1.2.5l-10.5-2-1.7 4.8 12.1 3.9s4.1 2 6.6-1.5l3-4.3 15 11s7 5.3 11.1.1c1.7-2.3 3.6-4.5 5.6-6.6 0 0 .9-1.2-1.3-2 0 0-10.8-6-12.8-9.3 0 0-6.8-15.2-12.3-17.1 0-.1-10.7 14-13.6 22.5z"/></g><g id="Layer_3-4"><path class="st6" d="M349.6 177.3l-1.6-3.9c0-.1-.1-.1-.1-.2-.1-.1-.2-.1-.3 0-.6.2-1.3.7-1.9.5s-.8-1.2-1.4-1.7c-1-.8.6-.8.5-1s-.5-.4-.8-.4-.8.1-1-.1-.1-.7-.4-1-1 .1-1.3-.2c-.1-.2-.1-.3-.1-.5 0-.6.1-1.2.4-1.7.1-.2.2-.5.1-.7-.1-.4-.4-.6-.7-.8-.5-.7-.6-1.5-.5-2.3 0-1.1-.1-2.1-.4-3.2-.1-.8.3-1.6.9-2.1 1.5-1.2 3.4-1.8 5.3-1.5s3.6 1 5.2 2.1c.6.4 1.2.8 1.7 1.4.8 1 1.3 2.2 1.5 3.5s.2 2.6.3 3.9c0 .9.2 1.8.6 2.6.1.1.2.3.2.4v.4c-.2.5-.4.9-.7 1.3-1.5 1.9-3.3 4.1-5.5 5.2zM356.9 262.3s-1.1 4.3-1.3 5.3l-6.4-1.6c.7-1.4 1.3-2.9 1.7-4.5 0 0 5.6-.2 6 .8z"/><path class="st7" d="M355.8 270.9v.7l-4.8.8-.3-.5s-9.1 2.5-11.1 1c0 0-.8-.6 1.4-1.6 0 0 7.2-3.9 9-7.2 0 0 1.3 2.9 5.9 1.9 0 0 .8 3-.1 4.9z"/><path class="st6" d="M419 216.3l2.8-1.6s3.7 3.9 3.4 5.4l-4.5 1.9-1.7-5.7z"/><path class="st7" d="M423.4 211.8l.6-.8 4 1.8-.3.5s1 1.2 4.6 2.1c0 0 7.6 2.3 5.4 4.3-.9.2-1.8.1-2.7-.1 0 0-3.3-1.3-9.8.6l-.4.2s-1-3.7-3.7-5.2c.1-.1.5-3.1 2.3-3.4zM338 158.8c.1.6.5 1.1 1 1.4.5.3 1.2.3 1.7 0 .3-.3.7-.6.9-1 .3-.4.7-.6 1.2-.5.3.2.6.5.6.9v1.1c0 .9.5 1.6 1.3 2 .2.1.4.1.6.2.5.2.8.7.9 1.2 0 .2.1.4.2.6.1.2.3.3.5.3s.4-.3.5-.5c.1-.3.1-.7 0-1-.2-1 .7-1.9 1.6-2.3.4-.2.8-.3 1.2-.2.5.2.9.5 1.1 1 1 1.6 1.6 3.4 1.8 5.3.7-.2 1.4-.3 2.1-.4.6-1.7.8-3.6.5-5.4-.3-1.7-.9-3.4-1.7-5-.3-.6-.6-1.2-1.1-1.7-.4-.4-.8-.8-1.3-1.1-.7-.5-1.4-.9-2.1-1.1-2.1-.7-4.4-.2-6.6.5-1.4.3-2.7 1-3.7 1.9-1.1 1-1.5 2.5-1.2 3.8z"/><path class="st3" d="M342.6 164c-.3-.1-.6-.2-.9-.1-.4.2-.7.4-.9.7l-.2.2"/><ellipse transform="rotate(-13.202 341.877 165.653)" class="st7" cx="341.9" cy="165.7" rx=".3" ry=".7"/><path class="st3" d="M342.5 164.7c-.5.1-.9.3-1.3.6v.1M351 161.3c.5.8.7 1.6.7 2.5 0 .3 0 .6-.1.8-.1.3-.2.5-.4.7-.2.2-.4.3-.7.3-.3 0-.5-.3-.5-.5"/><path class="st6" d="M356.2 169.4l-1.2-.7-6.4 8.3 2 2.3 6-9.5zM330.1 190.3c-.3-.5-.6-1-1.1-1-.2 0-.4.1-.6.1-.4 0-.8-.2-1.1-.2s-.6.3-.9.4-.7-.1-1 .1c-.2.2-.4.5-.3.9.1.3 0 .6-.1.9s-.4.5-.4.8.1.7.1 1c0 .1-.1.3-.1.4-.1.5-.1 1 0 1.4 0 .2 0 .3.1.5.2.3.5.6.9.6.9.1 1.8.1 2.7 0 .6 0 1.1 0 1.7.1.7.1 1.5.2 2.2.2.1 0 .2 0 .2-.1.1-.1.1-.1.1-.2.1-.6.2-1.1.3-1.7.1-.4.2-.8.2-1.3-.1-.3-.8-.6-1-.8-.9-.5-1.5-1.3-1.9-2.1z"/><path class="st11" d="M332.8 192.5l-1.3-.3-1.3 4.2 1.2.3 2.2.1zM377.4 213.2l-11.9 18c-1.1 1.4-2 3.1-2.5 4.8l-5.8 27.3s-5 .5-7.3-.9c0 0 1.2-19.9 1.6-22 0 0 .6-9.6 2.5-13.2 0 0 6.9-16.8 10.2-20.2.2.1 11.4 3.4 13.2 6.2z"/><path class="st6" d="M368 202l-5.5 5.1s-10.3-11.3-10.7-14.6c.1 0 14.3 5.8 16.2 9.5z"/><path class="st9" d="M363.9 209.7l-2.5-2.6.5-.4 2.5 2.5z"/><path class="st11" d="M378.5 201.9s4.6 2.4 5.3 9.3l7.6 11.6s2 3 4.4 1.5l23.2-8.7s2.7 4.8 2.6 6.7l-21.2 9.8s-8.2 4.5-13.9.6c0 0-8.3-5.9-13.8-12.9l-9.8-12.3 10.2-6.4c0 .1 4.1-.7 5.4.8z"/><path class="st7" d="M369.6 203.6l-5.6 5.7-2.2-2.3 6.7-6.1z"/><path class="st6" d="M383.5 183.3c.4.4.7.9.9 1.4.2.4.3.7.4 1.1l1 3.3c.1.3.2.5.3.7.2.2.5.4.7.5.5.3 1 .7 1.4 1.1.3.5.8.8 1.3 1.1.6.1 1.2-.2 1.4-.7.1-.2.1-.4.2-.6s.3-.3.5-.4.1-.8.2-1.1.5-.5.5-.8-.1-.4 0-.5.2-.2.3-.2c.3-.2.3-.6.1-.9-.7-.7-1.1-1.5-1.8-2.1-1.4-1.2-2.8-2.5-4.2-3.7-.1-.1-.2-.1-.3-.2h-.3c-1 .3-2 1.1-2.6 2z"/><path class="st11" d="M387.2 181l.7 1.1-3.8 2.6-1-1.3c-.1 0 2.1-3.5 4.1-2.4z"/><path class="st16" d="M383.4 184.3l-8-9.1-9.8 4.6-5.6-7.5 13.2-4.4s3.1-1.7 5.2.8l9.4 12.2-4.4 3.4z"/><path class="st16" d="M344.1 192.7s-.1.8-1.2.6l-10.6-1.4-1.4 4.9 12.3 3.1s4.3 1.7 6.5-2l2.8-4.5 15.7 10s7.4 4.9 11.1-.6c1.6-2.4 3.3-4.8 5.1-7 0 0 .8-1.3-1.4-1.9 0 0-11.1-5.3-13.4-8.4 0 0-7.8-14.7-13.4-16.2 0 .1-9.7 14.8-12.1 23.4z"/></g></g></svg>