<?xml version="1.0" encoding="utf-8"?>
<!-- Generator: Adobe Illustrator 22.0.1, SVG Export Plug-In . SVG Version: 6.00 Build 0)  -->
<svg version="1.1" id="Layer_1" xmlns="http://www.w3.org/2000/svg" xmlns:xlink="http://www.w3.org/1999/xlink" x="0px" y="0px"
	 viewBox="0 0 577.9 677.5" style="enable-background:new 0 0 577.9 677.5;" xml:space="preserve">
<style type="text/css">
	.st0{fill:#FFFFFF;}
	.st1{fill:#BCBCBC;}
	.st2{fill:#D8D8D8;stroke:#000000;stroke-width:0.5;stroke-miterlimit:10;}
	.st3{fill:#A1E4FF;}
	.st4{fill:#EB058C;}
	.st5{opacity:0.6;fill:#FFFFFF;enable-background:new    ;}
	.st6{fill:none;stroke:#000000;stroke-width:0.5;stroke-miterlimit:10;}
	.st7{fill:#0077BF;}
	.st8{fill:#353535;}
	.st9{fill:#FFE600;}
	.st10{fill:#1A1A1A;stroke:#000000;stroke-width:0.5;stroke-miterlimit:10;}
	.st11{fill:#FFFFFF;stroke:#000000;stroke-width:0.5;stroke-miterlimit:10;}
	.st12{fill:#1A1A1A;}
	.st13{fill:#F2F2F2;stroke:#000000;stroke-width:0.5;stroke-miterlimit:10;}
	.st14{fill:#EB058C;stroke:#000000;stroke-width:0.5;stroke-miterlimit:10;}
	.st15{fill:#C10072;stroke:#000000;stroke-width:0.5;stroke-miterlimit:10;}
	.st16{fill:#C10072;stroke:#000000;stroke-width:0.5;stroke-linejoin:round;}
	.st17{opacity:0.71;fill:#FFFFFF;enable-background:new    ;}
	.st18{fill:#0077BF;stroke:#000000;stroke-width:0.5;stroke-miterlimit:10;}
	.st19{fill:none;stroke:#000000;stroke-width:0.5;stroke-linecap:round;stroke-miterlimit:10;}
	.st20{opacity:0.74;fill:#FFFFFF;enable-background:new    ;}
	.st21{fill:#BFBFBF;stroke:#000000;stroke-width:0.5;stroke-miterlimit:10;}
	.st22{enable-background:new    ;}
</style>
<title>DT8</title>
<g>
	<g id="Layer_1_1_">
		<g id="Layer_7">
			<path class="st0" d="M189.6,667.8c140.5,9.4,222.1-37.7,271.9-92.1c60.2-65.7,104.8-181.7,105-229.2
				c0.3-128.5-17.7-164.7-47.7-213.9C403.1-57,231.3,31.7,231.3,31.7C127.8,79.3,106.2,160.5,118.9,207.3
				c42.6,156.4-47.4,189.3-47.4,189.3s-85.9,42.2-54.3,155.5C47.4,660.8,189.6,667.8,189.6,667.8z"/>
		</g>
		<polygon class="st1" points="384.6,305.1 500.8,292.7 512.1,312 392.9,312 		"/>
		<polygon class="st1" points="384.6,231.8 500.8,219.4 512.1,238.7 392.9,238.7 		"/>
		<ellipse class="st1" cx="315.6" cy="646.6" rx="208.8" ry="15.7"/>
		<rect x="384.6" y="292.7" class="st2" width="116.2" height="12.4"/>
		<rect x="384.6" y="219.5" class="st2" width="116.2" height="12.4"/>
		<path class="st3" d="M445.6,209.4c-3.1-4.8-6.5-9.4-10.3-13.6c-0.1-0.2-0.2-0.4-0.2-0.6v-14.5c0-0.5,0.4-0.9,0.8-0.9h1.2
			c0.9-0.2,1.4-1.2,1.2-2.1c-0.2-0.6-0.6-1-1.2-1.2h-13.4c-0.9,0.2-1.4,1.2-1.2,2.1c0.2,0.6,0.6,1,1.2,1.2h1.6
			c0.5,0,0.9,0.4,0.9,0.9v14.5c0,0.2-0.1,0.4-0.2,0.6c-4,4.2-7.5,8.8-10.7,13.7c2.6-0.1,5.2-0.1,7.8-0.1H445.6z"/>
		<path class="st4" d="M423,209.4c-2.6,0-5.2,0.1-7.8,0.1c-1.4,2.3-2.3,4.3-2.3,5.7c0,1.8,1.1,4,6,4c0.7,0,1.2,0,1.2,0h20.7
			c0,0,0.5,0,1.2,0c5,0,6-2.2,6-4c0-1.4-0.9-3.5-2.3-5.9L423,209.4z"/>
		<path class="st5" d="M434.6,216.3c5.5,1.2,13.7-0.5,6.2-10.1s-8.6-3.3-6.2,0C438.4,211.4,430.3,215.5,434.6,216.3z"/>
		<path class="st6" d="M445.6,209.4c-3.1-4.8-6.5-9.4-10.3-13.6c-0.1-0.2-0.2-0.4-0.2-0.6v-14.5c0-0.5,0.4-0.9,0.8-0.9h1.2
			c0.9-0.2,1.4-1.2,1.2-2.1c-0.2-0.6-0.6-1-1.2-1.2h-13.4c-0.9,0.2-1.4,1.2-1.2,2.1c0.2,0.6,0.6,1,1.2,1.2h1.6
			c0.5,0,0.9,0.4,0.9,0.9v14.5c0,0.2-0.1,0.4-0.2,0.6c-4,4.2-7.5,8.8-10.7,13.7c-1.4,2.3-2.3,4.3-2.3,5.7c0,1.8,1.1,4,6,4
			c0.7,0,1.2,0,1.2,0h20.7c0,0,0.5,0,1.2,0c5,0,6-2.2,6-4C448,213.8,447,211.7,445.6,209.4z"/>
		<path class="st7" d="M404.8,285.4c0.3,5,6.2,6.1,8,6.4c3.1,0.4,6.3,0.7,9.4,0.7h0.9c3.1,0,6.3-0.2,9.4-0.7c1.8-0.2,7.7-1.4,8-6.4
			c0-0.7,0-3.3-0.1-6.4c-11.8,0-23.7-0.2-35.5-0.5C404.8,281.8,404.8,284.7,404.8,285.4z"/>
		<path class="st3" d="M437.9,265.4c-0.2-0.2-0.3-0.5-0.2-0.8s0.4-0.5,0.7-0.5c0.5,0.1,1-0.3,1.1-0.9c0-0.4-0.1-0.7-0.5-1
			c-0.2-0.1-0.3-0.4-0.3-0.6s0.1-0.4,0.3-0.6s0.4-0.5,0.4-0.8c0-0.6-0.4-1-1-1c0,0,0,0-0.1,0H407c-0.5-0.1-1.1,0.3-1.1,0.8
			c-0.1,0.4,0.1,0.8,0.5,1c0.2,0.1,0.3,0.4,0.3,0.6s-0.1,0.4-0.3,0.6c-0.2,0.2-0.4,0.5-0.4,0.8c0,0.6,0.4,1,1,1
			c0.4,0,0.8,0.4,0.7,0.8c0,0.2-0.1,0.4-0.2,0.5c-1,0.8-1.6,1.9-1.9,3.1c-0.3,2-0.6,6.3-0.7,10.1c11.9,0.3,23.7,0.5,35.5,0.5
			c-0.1-3.9-0.4-8.5-0.7-10.6C439.5,267.3,438.8,266.2,437.9,265.4z"/>
		<path class="st8" d="M440.8,261.5c0.6-0.4,0.9-1.1,0.9-1.8c0-1.1-0.8-2-1.9-2.1h-34.3c-1.1,0.1-1.9,1-1.9,2.1
			c0,0.7,0.3,1.4,0.9,1.8c-0.6,0.4-0.9,1-0.9,1.8c0,1.1,0.8,2,1.9,2.1h34.3c1.1-0.1,1.9-1,1.9-2.1
			C441.7,262.6,441.4,261.9,440.8,261.5z"/>
		<path class="st5" d="M437.4,267.6c-0.2-0.9-0.7-1.8-1.3-2.4c-0.1-0.1-0.1-0.1-0.1-0.2c-0.1,0-0.2,0.1-0.3,0.1
			c-4.3,2.9-0.9,8.2-1.7,12.7c0,1.3-0.9,2.2-1.4,3.5c-0.5,2.2,0.4,3.5,1.8,4c2.1-0.6,3.6-2.3,3.7-4.5c0-0.5,0-2.6-0.1-5
			C437.8,272.8,437.6,269.2,437.4,267.6z"/>
		<path class="st6" d="M440.8,261.5c0.6-0.4,0.9-1.1,0.9-1.8c0-1.1-0.8-2-1.9-2.1h-34.3c-1.1,0.1-1.9,1-1.9,2.1
			c0,0.7,0.3,1.4,0.9,1.8c-0.6,0.4-0.9,1-0.9,1.8c0,1.1,0.8,2,1.9,2.1h2.1l-0.1,0.1c-1,0.8-1.6,1.9-1.9,3.1c-0.3,2-0.6,6.3-0.7,10.1
			c-0.1,3.2-0.1,6.1-0.1,6.8c0.3,5,6.2,6.1,8,6.4c3.1,0.4,6.3,0.7,9.4,0.7h0.9c3.1,0,6.3-0.2,9.4-0.7c1.8-0.2,7.7-1.4,8-6.4
			c0-0.7,0-3.3-0.1-6.4c-0.1-3.9-0.4-8.5-0.7-10.6c-0.3-1.2-0.9-2.3-1.9-3.1l-0.1-0.1h2c1.1-0.1,1.9-1,1.9-2.1
			C441.7,262.6,441.4,261.9,440.8,261.5z"/>
		<path class="st3" d="M479,272.1c-1.6-4.3-5.2-7.5-9.5-8.8c-0.2-0.1-0.4-0.3-0.4-0.5v-11.5c0-0.3,0.2-0.5,0.5-0.5l0,0h1
			c0.8-0.2,1.4-1,1.2-1.8c-0.1-0.6-0.6-1.1-1.2-1.2h-11c-0.8,0.2-1.4,1-1.2,1.8c0.1,0.6,0.6,1.1,1.2,1.2h1.3c0.3,0,0.5,0.2,0.5,0.5
			l0,0v11.4c0,0.2-0.2,0.4-0.4,0.5c-4.4,1.3-8,4.4-9.7,8.7C460.6,271.9,469.8,272.1,479,272.1z"/>
		<path class="st4" d="M451.4,271.9c-0.7,1.8-1.1,3.7-1.1,5.6c0,8.2,6.7,14.9,14.9,14.8c8.2,0,14.9-6.7,14.8-14.9
			c0-1.8-0.3-3.6-1-5.3C469.8,272.1,460.6,271.9,451.4,271.9z"/>
		<path class="st5" d="M468.5,264.7c6.1,4,7.8,12.2,3.8,18.3c-2.5,3.8-6.7,6-11.2,6c-1.1,0-2.2-0.1-3.3-0.4c2.2,1.4,4.7,2.2,7.3,2.2
			c7.3,0,13.2-5.9,13.2-13.3C478.5,271.5,474.4,266.2,468.5,264.7L468.5,264.7z"/>
		<path class="st6" d="M479,272.1c-1.6-4.3-5.2-7.5-9.5-8.8c-0.2-0.1-0.4-0.3-0.4-0.5v-11.5c0-0.3,0.2-0.5,0.5-0.5l0,0h1
			c0.8-0.2,1.4-1,1.2-1.8c-0.1-0.6-0.6-1.1-1.2-1.2h-11c-0.8,0.2-1.4,1-1.2,1.8c0.1,0.6,0.6,1.1,1.2,1.2h1.3c0.3,0,0.5,0.2,0.5,0.5
			l0,0v11.4c0,0.2-0.2,0.4-0.4,0.5c-4.4,1.3-8,4.4-9.7,8.7"/>
		<path class="st6" d="M451.4,271.9c-0.7,1.8-1.1,3.7-1.1,5.6c0,8.2,6.7,14.9,14.9,14.8c8.2,0,14.9-6.7,14.8-14.9
			c0-1.8-0.3-3.6-1-5.3"/>
		<path class="st5" d="M468.5,264.7c6.1,4,7.8,12.2,3.8,18.3c-2.5,3.8-6.7,6-11.2,6c-1.1,0-2.2-0.1-3.3-0.4c2.2,1.4,4.7,2.2,7.3,2.2
			c7.3,0,13.2-5.9,13.2-13.3C478.5,271.5,474.4,266.2,468.5,264.7L468.5,264.7z"/>
		<path class="st3" d="M470.6,177.3v-8.8c0-0.4,0.3-0.7,0.7-0.7h1c0.7-0.2,1.2-0.9,1-1.6c-0.1-0.5-0.5-0.9-1-1h-11
			c-0.7,0.2-1.2,0.9-1,1.6c0.1,0.5,0.5,0.9,1,1h1.3c0.4,0,0.7,0.3,0.7,0.7l0,0v8.8C465.8,177.3,468.2,177.3,470.6,177.3z"/>
		<path class="st9" d="M463.3,177.3v39.1c0,1.6,1.7,2.9,3.7,2.9s3.7-1.3,3.7-2.9v-39.1C468.2,177.3,465.8,177.3,463.3,177.3z"/>
		<path class="st6" d="M472.3,165.2h-11c-0.7,0.2-1.2,0.9-1,1.6c0.1,0.5,0.5,0.9,1,1h1.3c0.4,0,0.7,0.3,0.7,0.7l0,0v47.9
			c0,1.6,1.7,2.9,3.7,2.9s3.7-1.3,3.7-2.9v-47.8c0-0.4,0.3-0.7,0.7-0.7h1c0.7-0.2,1.2-0.9,1-1.6
			C473.2,165.7,472.9,165.3,472.3,165.2L472.3,165.2z"/>
		<path class="st5" d="M469.3,215.3c0,0.6-0.5,1.2-1.2,1.2l0,0c-0.6,0-1.2-0.5-1.2-1.2V170c0-0.6,0.5-1.2,1.2-1.2l0,0
			c0.6,0,1.2,0.5,1.2,1.2V215.3z"/>
		<g id="Layer_8">
			<path class="st10" d="M268.8,269.5c16.3,17.7,53.6-3.3,53.6-3.3s19.4-4.8,23.2-17.6c0,0-13.6,3.9-26-16.5
				c-6.1-10.3-5.3-15.8-8.6-27.3c0,0-3.7-22.6-20.4-34.4c-10-7.3-22.5-10.3-34.7-8.5c0,0-17.4,4-24.5,21c0,0-13.4,21.2,1,46
				c2.9,4.9,6.8,19.8,7.7,25.4l26.1,11.6"/>
			<path class="st11" d="M275.5,249.5c0.4,0.5,0.3,1.3-0.3,1.7c-2.6,2.8-5.4,5.3-8.5,7.5c-1.8,1.3-4,2.5-6.2,1.8
				c-1.3-0.6-2.4-1.5-3.2-2.7l-3.8-4.7c0.5-2,1.2-3.6,1-5.7c-0.3-2.8-0.1-5.8-0.6-8.6c4.6-3.5,10-5.8,15.6-6.6c2-0.3,3,0,3,2
				c0,1.8,0.1,3.5,0.3,5.3C273.3,243,274.2,246.4,275.5,249.5z"/>
			<path class="st12" d="M269.3,629v20.2h3l2.1-8.5l5.3,8.5h29.6c-11.4-2.4-21.1-9.8-26.5-20.2H269.3z"/>
			<path class="st12" d="M250,629v20.2h-3l-2.1-8.5l-5.3,8.5H210c11.4-2.4,21.1-9.8,26.5-20.2H250z"/>
			<path class="st13" d="M269.3,629h13.5c0,0,28-178.2,25.7-219.5c-1.4-26.1-17.3-39.7-17.3-39.7h-63.3c0,0-15.9,13.6-17.3,39.7
				c-2.2,41.4,25.7,219.5,25.7,219.5h13.6c0,0,4.3-215.2,9.8-212.9C259.6,416.1,272.3,499.7,269.3,629z"/>
			<path class="st14" d="M219.7,283.4c0,0,15.7,47.4,8.2,86.3c0,0.1,34.6,18.4,63,0.1c-10.5-13.6,9.5-83.9,9.5-83.9l1-30.5
				c-6.2-6.2-25.7-5.1-25.7-5.1c-6.4,4.6-14.7,5.7-22.1,2.8c-4-3.2-20.1-3.4-28.7-2.2c-2.4,0.3,1.3,1.9-2.8,3L219.7,283.4z"/>
			<path class="st14" d="M226.8,293.9c0,0,7.9,16.4,26.6,7.4"/>
			<path class="st14" d="M294.3,293.9c0,0-7.9,16.4-26.6,7.4"/>
		</g>
		<path class="st11" d="M276.6,234.8c-4.4,4.7-10.1,9.2-16.5,8.7c-4.7-0.4-8.9-3.4-12.1-6.9c-3.3-3.9-6.2-8-8.7-12.5
			c-1.8-2.7-3.2-5.6-4.2-8.7c-1.2-4.5-0.4-9.2,0.3-13.7c1.2-7.5,2.8-15.5,8.2-20.8c3.2-2.8,7-5.1,11-6.6c2.9-1.4,5.9-2.4,9.1-2.9
			c2.7-0.2,5.4,0,8,0.7c7.3,1.8,13.8,6.3,18.1,12.5C300.9,201.2,288.2,222.2,276.6,234.8z"/>
		<path class="st12" d="M236.6,222.6l-3.2-6.3l-3.8-15.1l11.3-19.9l12.1-10.2l16.6-1.3l13.4,4.4l14.3,18.5l-1.5,18.5l-4.5,8.4
			c0,0-22.6-20.3-19-38.5c0,0-17,13.7-34.2,11.5C238,192.6,231,201.3,236.6,222.6z"/>
		<path class="st11" d="M261.5,202.6c3.4-3.3,8.7-3.8,12.7-1.3"/>
		<path class="st11" d="M248.6,203.3c-2.6-2.1-8.3-1.9-11,0.3"/>
		<path class="st11" d="M259.2,223.2c-1.3-0.4-2.5-1-3.7-1.6c-0.3-0.1-0.6-0.3-0.8-0.5c-0.4-0.7-0.4-1.5,0-2.2l1.4-4"/>
		<path class="st15" d="M254.8,226.2c2.2-1,4.8-1.2,7.1-0.6c2.3,0.7,4.6,1.6,6.7,2.9c0.1,0.1,0.3,0.2,0.3,0.3s-0.2,0.2-0.4,0.2
			c-2.2,0.5-4.6-0.4-6.8-0.7c-1.8-0.3-3.7-0.3-5.5,0.1c-0.9,0.2-4.4,1.5-4.7,1C251.3,228.9,253.9,226.6,254.8,226.2z"/>
		
			<ellipse transform="matrix(0.9923 -0.1236 0.1236 0.9923 -24.051 34.6577)" class="st10" cx="267.3" cy="211.2" rx="1.8" ry="2.3"/>
		
			<ellipse transform="matrix(0.9923 -0.1236 0.1236 0.9923 -24.3318 32.1193)" class="st10" cx="246.7" cy="212.2" rx="1.8" ry="2.3"/>
		<path class="st6" d="M261.2,209.6c0,0,3.9-5,11.3-1.4c0,0,2.5,1.2,3.9-0.4"/>
		<path class="st6" d="M250.5,209.9c-1.4-1.6-6.2-3-10.1,0.2c0,0-2.3,1.5-3.9,0.1"/>
		<path class="st16" d="M251.5,229.3c0,0,3.9,3.6,8.5,3.1c4.6-0.5,5.9-3.2,8.5-3.4c0,0-2,6.8-8.5,6.9
			C253.5,236,251.6,231.1,251.5,229.3z"/>
		<path class="st12" d="M246.5,220.6c-1.8,0-3.5-0.4-5.1-1.2c-2.6-1.4-4.9-3.5-6.5-6c-1.8-2.8-2.4-5.5-1.6-7.2
			c1.8-3.9,9.8-2.7,14.5-0.5s7.4,7.2,5.6,11l0,0c-1,1.9-2.8,3.3-4.9,3.6C247.9,220.5,247.2,220.6,246.5,220.6z M239,204.4
			c-2.3,0-4.3,0.6-5,2.1s-0.1,3.9,1.5,6.5c1.5,2.4,3.7,4.4,6.2,5.7c2.1,1,4.4,1.3,6.7,0.9c1.9-0.3,3.5-1.5,4.4-3.2l0,0
			c1.6-3.4-0.7-7.9-5.2-10C244.9,205.2,242,204.5,239,204.4z"/>
		<path class="st12" d="M265.5,219.6c-0.7,0-1.4-0.1-2.1-0.2c-3.5-0.5-6-3.8-5.5-7.3c0.1-0.9,0.4-1.7,0.9-2.4c1.2-2.2,3-3.9,5.3-4.9
			c2.6-1.2,5.4-1.9,8.3-2.1c3.2-0.1,5.4,0.8,6.2,2.5s0.3,4.4-1.6,7.2c-1.6,2.5-3.8,4.6-6.5,6C269,219.2,267.3,219.6,265.5,219.6z
			 M273,203.5h-0.5c-2.8,0.2-5.5,0.8-8,2c-2.1,1-3.8,2.6-4.9,4.6c-1.7,2.7-0.8,6.2,1.8,7.8c0.7,0.4,1.5,0.7,2.3,0.8
			c2.3,0.4,4.6,0.1,6.7-0.9c2.5-1.3,4.7-3.3,6.2-5.7c1.7-2.6,2.2-5,1.5-6.5C277.2,203.8,274.7,203.5,273,203.5L273,203.5z"/>
		<path class="st12" d="M255.8,214.6h-0.2c-1-0.2-1.9-0.8-2.4-1.6l0.6-0.4c0.4,0.6,1.1,1.1,1.8,1.2c1,0,1.9-0.5,2.4-1.3l0.6,0.5
			C258,214,256.9,214.5,255.8,214.6z"/>
		<polygon class="st12" points="278.3,209.4 278.6,208.5 290.4,203.7 290.7,204.4 		"/>
		<path class="st11" d="M253.7,253.1c-4.1,8.8-17.6,25.3-17.2,34.8s-9.7,211.5-9.7,211.5h-36.4l29-144l0.2-60.5
			c0,0-22.6,38.3-33,38.9s-18.5-1.4-28.7-58.4l10.9-0.9l15.6,33.3c0,0,24.2-54.4,35.8-57.5s35.1-3.2,35.1-3.2
			S255.3,252.5,253.7,253.1z"/>
		<path class="st11" d="M167.8,274.8c0,0-0.6-1.4-1.1-2.9c-0.6-1.8-3.2-9.5-3.2-9.5"/>
		<path class="st3" d="M165.5,246.4v-9.7c0-0.4,0.3-0.8,0.8-0.8h1.1c0.8-0.2,1.3-1,1.1-1.8c-0.1-0.5-0.6-1-1.1-1.1h-12.2
			c-0.8,0.2-1.3,1-1.1,1.8c0.1,0.5,0.6,1,1.1,1.1h1.4c0.4,0,0.8,0.3,0.8,0.8v9.7C160.1,246.4,162.8,246.3,165.5,246.4z"/>
		<path class="st7" d="M157.4,246.4v43.3c0,1.7,1.8,3.2,4.1,3.2s4.1-1.4,4.1-3.2v-43.3C162.8,246.3,160.1,246.4,157.4,246.4z"/>
		<path class="st6" d="M167.4,233h-12.2c-0.8,0.2-1.3,1-1.1,1.8c0.1,0.5,0.6,1,1.1,1.1h1.4c0.4,0,0.8,0.3,0.8,0.8v53
			c0,1.7,1.8,3.2,4.1,3.2s4.1-1.4,4.1-3.2v-53c0-0.4,0.3-0.8,0.8-0.8h1.1c0.8-0.2,1.3-1,1.1-1.8C168.4,233.6,167.9,233.1,167.4,233z
			"/>
		<path class="st17" d="M164,288.4c0,0.7-0.6,1.3-1.3,1.3l0,0c-0.7,0-1.3-0.6-1.3-1.3v-50.1c0-0.7,0.6-1.3,1.3-1.3l0,0
			c0.7,0,1.3,0.6,1.3,1.3V288.4z"/>
		<path class="st11" d="M161.2,225.5c0,1-0.9,1.9-1.9,1.9s-1.9-0.9-1.9-1.9s0.9-1.9,1.9-1.9l0,0
			C160.4,223.6,161.2,224.4,161.2,225.5z"/>
		<circle class="st18" cx="164.6" cy="218.3" r="2.7"/>
		<path class="st11" d="M158.6,212.9c0,1-0.8,1.9-1.9,1.9c-1,0-1.9-0.8-1.9-1.9c0-1,0.8-1.9,1.9-1.9l0,0
			C157.7,211.1,158.6,211.9,158.6,212.9z"/>
		<path class="st11" d="M154.1,263.9c14.4,9.2,13.2-5.9,12.9-9.5c-0.3-3.6-11.7-9-15.1-1.3c-1,3.4-1,7,0.1,10.3"/>
		<line class="st19" x1="157.4" y1="273.1" x2="151.9" y2="263.4"/>
		<path class="st11" d="M302,314.4l-2.4,42.2l26,142.9h-39.9c-1.2-51.8-8.4-245.9-9.9-249.1c-0.8-1.4-1.3-3-1.6-4.6
			c0,0,17.1,1.5,30.7,6.2c12.5,4.3,28.8,12.7,39.3,17.7c3.3,1.6,18.2,7,22,13.3c1.4,2.3,2.6,7.2,0,9.9c-10,10.4-41.2,20.9-81.8,23.1
			l-1.9-12.3l56.7-23.6"/>
		<path class="st3" d="M298.7,319.4c-4.8-1.8-10.2-1.3-14.6,1.4c-0.2,0.1-0.5,0.1-0.7-0.1l-16-14.3c-0.2-0.2-0.2-0.6,0-0.8l0.7-0.8
			c0.5-0.8,0.1-1.9-0.7-2.3c-0.6-0.3-1.3-0.3-1.8,0.1l-8.3,9.2c-0.5,0.8-0.2,1.9,0.7,2.3c0.6,0.3,1.3,0.3,1.8-0.1l1-1.1
			c0.2-0.2,0.6-0.3,0.8-0.1l0,0l15.9,14.2c0.2,0.2,0.3,0.5,0.1,0.7c-2.2,4.6-2.2,10,0,14.7c5.2-5.7,25.4-8.2,30.6-13.9
			C307.9,326.1,303.2,320.8,298.7,319.4z"/>
		<path class="st9" d="M307.5,327c4.5,8.1,1.6,18.3-6.6,22.8c-6.3,3.5-14,2.6-19.4-2.2c-9.4-9.8-3.7-18.1-4-20.6L307.5,327z"/>
		<path class="st6" d="M298.7,319.4c-4.8-1.8-10.2-1.3-14.6,1.4c-0.2,0.1-0.5,0.1-0.7-0.1l-16-14.3c-0.2-0.2-0.2-0.6,0-0.8l0.7-0.8
			c0.5-0.8,0.1-1.9-0.7-2.3c-0.6-0.3-1.3-0.3-1.8,0.1l-8.3,9.2c-0.5,0.8-0.2,1.9,0.7,2.3c0.6,0.3,1.3,0.3,1.8-0.1l1-1.1
			c0.2-0.2,0.6-0.3,0.8-0.1l0,0l15.9,14.2c0.2,0.2,0.3,0.5,0.1,0.7c-2.2,4.6-2.2,10,0,14.7c0.9,2,2.3,3.7,3.9,5.2
			c7.2,5.9,17.8,4.8,23.6-2.4c5.5-6.7,4.9-16.5-1.2-22.6C302.5,321.2,300.7,320.1,298.7,319.4z"/>
		<path class="st20" d="M284.5,322.6c8-2,16.2,2.9,18.1,11c1.5,6-0.9,12.4-6,15.9c8-2,13-10.1,11-18.1s-10.1-13-18.1-11
			C287.7,320.8,286,321.6,284.5,322.6z"/>
		<path class="st11" d="M282.6,303.6c0,0-16.7,4.8-20.1,9.4s-3.7,7.6,1.8,13c5.1,5,10.3-0.4,11.1-2.4s4.4-8.8,8.9-8L282.6,303.6z"/>
		<rect x="148" y="408.4" class="st21" width="17.3" height="240.8"/>
		<rect x="474" y="408.4" class="st21" width="17.3" height="240.8"/>
		<rect x="119.6" y="395.7" class="st21" width="401.4" height="24.2"/>
		<path class="st3" d="M273.5,358c0-0.2,0.1-0.4,0.3-0.5c0.2-0.1,0.4-0.4,0.4-0.6c0-0.5-0.5-0.9-1.2-0.9h-35.4
			c-0.6,0-1.2,0.4-1.2,0.9c0,0.3,0.2,0.5,0.4,0.6c0.3,0.1,0.4,0.4,0.2,0.7c-0.1,0.1-0.1,0.2-0.2,0.2l-0.1,0.1c12.3,0,24.7,0,37-0.1
			C273.6,358.4,273.5,358.2,273.5,358z"/>
		<path class="st3" d="M272.5,361C272.5,361,272.4,361,272.5,361c-11.4-0.1-22.9-0.1-34.3-0.1l0,0c-1,0.5-1.8,1.4-2.1,2.5
			c-0.1,0.6-0.3,3.3-0.4,6.6c13.1,0,26.2,0.2,39.4-0.2c-0.1-3.1-0.2-5.7-0.4-6.3C274.2,362.4,273.5,361.5,272.5,361z"/>
		<path class="st3" d="M275.4,384.4c-0.1-2-0.2-9.1-0.4-14.5c-13.1,0.4-26.3,0.3-39.4,0.2c-0.2,5.3-0.3,12-0.4,13.9
			c-0.1,2.6-0.2,5-0.1,5.5c0.4,4,7,5,9.1,5.2c4.8,0.5,8.4,0.5,10.6,0.5h1c2.2,0,5.9-0.1,10.6-0.5c2-0.2,8.7-1.1,9.1-5.2
			C275.6,389,275.5,386.9,275.4,384.4z"/>
		<path class="st5" d="M271.9,367.9c-0.4-1.3-1.2-2.4-2.4-3.2c-0.1-0.1-0.2-0.2-0.2-0.3c-0.2,0.1-0.4,0.1-0.5,0.2
			c-7.6,3.8-1.5,11-3,17c0,1.7-1.5,3-2.5,4.7c-0.9,2.9,0.7,4.7,3.1,5.3c2.9-0.8,6.3-2.5,6.5-6c0.1-0.7,0-3.4-0.1-6.6
			C272.7,375.3,272.4,371.6,271.9,367.9z"/>
		<path class="st18" d="M272.4,361c-0.2-0.1-0.3-0.4-0.1-0.6c0.2-0.3,0.5-0.4,0.8-0.4c0.6,0,1.1-0.4,1.1-0.9c0-0.3-0.2-0.5-0.4-0.6
			l0,0c-12.3,0.1-24.7,0.1-37,0.1c-0.2,0.1-0.3,0.3-0.3,0.5c0,0.5,0.5,0.8,1.1,0.9c0.3,0,0.6,0.1,0.8,0.4c0.1,0.2,0,0.5-0.2,0.6
			C249.6,360.9,261,361,272.4,361z"/>
		<path class="st6" d="M275.4,384.4c-0.1-2-0.2-9.1-0.4-14.5c-0.1-3.1-0.2-5.7-0.4-6.3c-0.4-1.1-1.2-2-2.1-2.5c0,0,0,0-0.1-0.1
			c-0.2-0.1-0.3-0.4-0.1-0.6c0.2-0.3,0.5-0.4,0.8-0.4c0.6,0,1.1-0.4,1.1-0.9c0-0.3-0.2-0.5-0.4-0.6l0,0c-0.2-0.1-0.3-0.3-0.3-0.5
			s0.1-0.4,0.3-0.5c0.2-0.1,0.4-0.4,0.4-0.6c0-0.5-0.5-0.9-1.2-0.9h-35.4c-0.6,0-1.2,0.4-1.2,0.9c0,0.3,0.2,0.5,0.4,0.6
			c0.3,0.1,0.4,0.4,0.2,0.7c-0.1,0.1-0.1,0.2-0.2,0.2l-0.1,0.1c-0.2,0.1-0.3,0.3-0.3,0.5c0,0.5,0.5,0.8,1.1,0.9
			c0.3,0,0.6,0.1,0.8,0.4c0.1,0.2,0,0.5-0.2,0.6l0,0c-1,0.5-1.8,1.4-2.1,2.5c-0.1,0.6-0.3,3.3-0.4,6.6c-0.2,5.3-0.3,12-0.4,13.9
			c-0.1,2.6-0.2,5-0.1,5.5c0.4,4,7,5,9.1,5.2c4.8,0.5,8.4,0.5,10.6,0.5h1c2.2,0,5.9-0.1,10.6-0.5c2-0.2,8.7-1.1,9.1-5.2
			C275.6,389,275.5,386.9,275.4,384.4z"/>
		<circle class="st11" cx="247.5" cy="343" r="3.8"/>
		<circle class="st11" cx="255.2" cy="334.1" r="2.4"/>
		<circle class="st11" cx="257.7" cy="351" r="2.4"/>
		<circle class="st11" cx="260.1" cy="339.2" r="1.7"/>
		<rect x="368.9" y="112.3" class="st11" width="150" height="33.2"/>
		<g class="st22">
			<path d="M386.9,130.8c0,3.2-1.7,5.1-4.6,5.1c-2.9,0-4.7-1.9-4.7-5s1.8-5.1,4.7-5.1S386.9,127.6,386.9,130.8z M379.2,130.9
				c0,2.4,1.1,3.7,3.1,3.7c1.9,0,3-1.4,3-3.8c0-2.3-1.1-3.7-3-3.7S379.2,128.6,379.2,130.9z"/>
			<path d="M390.2,127.4c0.7-1.2,1.8-1.6,3.2-1.6c2.7,0,4.4,1.9,4.4,5s-1.7,5.1-4.3,5.1c-1.4,0-2.4-0.5-3.2-1.6v5h-1.6v-13.2h1.5
				V127.4z M390.3,130.8c0,2.3,1.1,3.7,3,3.7c1.8,0,2.9-1.4,2.9-3.7c0-2.3-1.1-3.7-3-3.7C391.4,127.1,390.3,128.5,390.3,130.8z"/>
			<path d="M403.8,127.4h-1.9v5.6c0,0.9-0.1,1.4,1.1,1.4c0.3,0,0.5,0,0.9-0.1v1.4c-0.5,0.1-0.7,0.1-1.2,0.1c-2.4,0-2.3-1.2-2.3-3.3
				v-5.1h-1.6v-1.3h1.6v-2.8h1.6v2.8h1.9V127.4z"/>
			<path d="M407.2,124.4h-1.6v-1.9h1.6V124.4z M407.2,135.7h-1.6v-9.6h1.6V135.7z"/>
			<path d="M411.2,127.5c0.8-1.1,1.7-1.6,3.1-1.6c1.3,0,2.2,0.5,2.6,1.6c0.8-1.1,1.7-1.7,3.2-1.7c2,0,3,1.2,3,3.1v6.7h-1.6v-6
				c0-1.4-0.2-2.4-1.9-2.4c-1.8,0-2.4,1.2-2.4,3v5.4h-1.6v-6.1c0-1.3-0.2-2.3-1.8-2.3c-2.1,0-2.6,1.5-2.6,3.3v5.1h-1.6v-9.6h1.5
				V127.5z"/>
			<path d="M433.9,135.6c-0.3,0.1-0.7,0.2-1.1,0.2c-0.9,0-1.4-0.5-1.4-1.4c-0.9,1.1-2,1.5-3.5,1.5c-1.9,0-3.1-1-3.1-2.7
				c0-1.7,1.1-2.7,3.4-3c2.3-0.3,3.1-0.2,3.1-1.5c0-1-0.8-1.6-2.2-1.6c-1.5,0-2.2,0.5-2.4,1.9h-1.5c0.1-2,1.5-3.2,4-3.2
				c1.3,0,2.4,0.3,3,0.9c0.7,0.6,0.6,1.6,0.6,2.5c0,1.4-0.1,2.8-0.1,4.3c0,0.7,0.2,0.9,0.6,0.9c0.1,0,0.2,0,0.4-0.1V135.6z
				 M429.3,131.3c-1.1,0.1-2.7,0.3-2.7,1.8c0,1,0.7,1.6,1.9,1.6c1.5,0,2.9-1,2.9-2.2v-1.7C430.8,131.1,430,131.2,429.3,131.3z"/>
			<path d="M437.1,135.7h-1.6v-13.2h1.6V135.7z"/>
			<path d="M449,123.8c-0.2,0-0.6-0.1-0.9-0.1c-1,0-1.2,0.2-1.2,1.3v1.1h1.8v1.3h-1.8v8.3h-1.6v-8.3h-1.6v-1.3h1.6v-1.3
				c0-1.8,1-2.5,2.6-2.5c0.4,0,0.6,0,1,0.1V123.8z"/>
			<path d="M454.2,136c-2.8,0-4.5-1.9-4.5-5c0-3.1,1.8-5.2,4.4-5.2c3.1,0,4.3,2.5,4.3,5.3v0.2h-7.2l0,0.1c0,2,1.1,3.3,3,3.3
				c1.4,0,2.1-0.6,2.6-2h1.5C457.9,134.8,456.4,136,454.2,136z M454.1,127.1c-1.5,0-2.6,1.1-2.8,2.9h5.6
				C456.7,128.2,455.7,127.1,454.1,127.1z"/>
			<path d="M468.6,135.6c-0.3,0.1-0.7,0.2-1.1,0.2c-0.9,0-1.4-0.5-1.4-1.4c-0.9,1.1-2,1.5-3.5,1.5c-1.9,0-3.1-1-3.1-2.7
				c0-1.7,1.1-2.7,3.4-3c2.3-0.3,3.1-0.2,3.1-1.5c0-1-0.8-1.6-2.2-1.6c-1.5,0-2.2,0.5-2.4,1.9H460c0.1-2,1.5-3.2,4-3.2
				c1.3,0,2.4,0.3,3,0.9c0.7,0.6,0.6,1.6,0.6,2.5c0,1.4-0.1,2.8-0.1,4.3c0,0.7,0.2,0.9,0.6,0.9c0.1,0,0.2,0,0.4-0.1V135.6z
				 M463.9,131.3c-1.1,0.1-2.7,0.3-2.7,1.8c0,1,0.7,1.6,1.9,1.6c1.5,0,2.9-1,2.9-2.2v-1.7C465.5,131.1,464.6,131.2,463.9,131.3z"/>
			<path d="M474.2,127.4h-1.9v5.6c0,0.9-0.1,1.4,1.1,1.4c0.3,0,0.5,0,0.9-0.1v1.4c-0.5,0.1-0.7,0.1-1.2,0.1c-2.4,0-2.3-1.2-2.3-3.3
				v-5.1h-1.6v-1.3h1.6v-2.8h1.6v2.8h1.9V127.4z"/>
			<path d="M483.8,135.7h-1.5v-1.5c-0.8,1.2-1.9,1.8-3.3,1.8c-2,0-3.2-1.1-3.2-3.2v-6.6h1.6v6.2c0,1.4,0.4,2.3,2,2.3
				c2.1,0,2.8-1.5,2.8-3.4v-5h1.6V135.7z"/>
			<path d="M491.2,127.5c-0.2,0-0.2,0-0.4,0c-2.6,0-3.1,2-3.1,4.1v4h-1.6v-9.6h1.5v2.1c0.7-1.6,1.8-2.3,3.5-2.3V127.5z"/>
			<path d="M496.1,136c-2.8,0-4.5-1.9-4.5-5c0-3.1,1.8-5.2,4.4-5.2c3.1,0,4.3,2.5,4.3,5.3v0.2h-7.2l0,0.1c0,2,1.1,3.3,3,3.3
				c1.4,0,2.1-0.6,2.6-2h1.5C499.7,134.8,498.3,136,496.1,136z M496,127.1c-1.5,0-2.6,1.1-2.8,2.9h5.6
				C498.6,128.2,497.5,127.1,496,127.1z"/>
			<path d="M507.5,128.9c-0.1-1.3-1-1.7-2.3-1.7c-1.2,0-1.9,0.5-1.9,1.3c0,1.1,1.2,1.2,2.5,1.5c1.6,0.4,3.7,0.8,3.7,2.9
				c0,1.9-1.6,3.1-4,3.1c-2.6,0-4-1.2-4.1-3.3h1.6c0.1,1.4,1.1,2,2.6,2c1.4,0,2.3-0.6,2.3-1.6c0-1.1-1.1-1.3-2.4-1.6
				c-1.6-0.4-3.9-0.6-3.9-2.8c0-1.7,1.4-2.8,3.6-2.8c2.1,0,3.8,1,3.8,3.1H507.5z"/>
		</g>
		<path class="st11" d="M253.2,241.1l-9.4,9.8l-3.2,13.4l11.6-8.3c0,0,2.8-4.3,3.2-5.8S255,242,255,242L253.2,241.1z"/>
		<path class="st11" d="M272.8,238.9l12.7,8.3l0.2,16l-9.4-7.2C276.3,256,273,245,272.8,238.9z"/>
	</g>
</g>
</svg>
