<svg version="1.1" id="Layer_1" xmlns="http://www.w3.org/2000/svg" xmlns:xlink="http://www.w3.org/1999/xlink" x="0" y="0" viewBox="0 0 875.4 709.2" xml:space="preserve"><style>.st0{fill:#fff}.st1,.st3{stroke:#000;stroke-width:.5}.st1{stroke-miterlimit:10;fill:#fff}.st3{fill:#1a1a1a}.st3,.st4,.st5{stroke-miterlimit:10}.st4{stroke:#000;stroke-width:.5;fill:none}.st5{fill:#eb058c}.st5,.st6,.st7,.st8,.st9{stroke:#000;stroke-width:.5}.st6{stroke-miterlimit:10;fill:#eaeaea}.st7,.st8,.st9{fill:#c4c4c4;stroke-linejoin:round}.st8,.st9{fill:#eaeaea}.st9{fill:#d8d8d8}.st11,.st13{stroke:#000;stroke-miterlimit:10}.st11{stroke-width:.5;fill:#0077bf}.st13{fill:#fff}.st14{fill:#1a1a1a}.st16,.st18{stroke:#000;stroke-width:.5}.st16{stroke-miterlimit:10;fill:#ffe600}.st18{fill:#f9f9f9;stroke-linejoin:round}</style><path class="st0" d="M103.2 562.7C-26.9 487.2-15.5 303.1 36.8 212.6 154 9.9 364.6 5.2 364.6 5.2 516-16.5 650.9 33.3 707.5 85c117.2 107 162.2 215.1 166.7 299.7 5 93.1 1.3 225.3-149 298.4-182.8 88.9-274.8-75-342-102.4s-187.7 24.7-280-18z" id="Layer_7"/><circle class="st1" cx="440.2" cy="537.2" r="145.9"/><defs><circle id="SVGID_1_" cx="440.2" cy="537.2" r="145.9"/></defs><clipPath id="SVGID_2_"><use xlink:href="#SVGID_1_" overflow="visible"/></clipPath><g clip-path="url(#SVGID_2_)"><g id="Layer_8"><path class="st3" d="M553.9 575.3c7.4.8 4.4-31 2.5-41.8-3.9-9.8-8.4-19.5-12.9-29.1-4.2-8.9-8.9-17.6-13.4-26.6-4.2-8.3-3.9-16.1-6.3-25-7.2-25.9-24-43.2-51.3-42.7-25.6.4-42.6 24.6-41.8 48.8.1 3 .4 5.9.9 8.8 1.2 8 5.9 19.6 5.9 28.1 1.3 11 3 18.9 2.2 30.9-2.3 34.6 14.3 37.4 22.1 42.4l40.5-2.1 51.6 8.3z"/><g id="Layer_7-2"><path class="st1" d="M509.6 517.8c-2 1.9-7.1-9.2-8.1-13.6-1.5-6.3-4.5-18.9-5-18L468 500.7c2.5 4.3 5.4 10.2 5.6 10.5 3.1 6.1 4.1 11.4 2.5 17 0 0 2.9 12.5 18.7 10.9s14.8-21.3 14.8-21.3z"/><path class="st1" d="M505 467.8c-.4 3.9 0 10.2-3.6 10.8-1.1.2-1.8 2.1-1.9 3.2-.3 3.5.9 7.5-.8 10.5-4 6.3-9.3 11.7-15.5 15.8-10.6 7.2-24-5.4-24-5.4s-12.4-10.8-15.6-28.2 8-38.7 8-38.7 19.7 19.4 29.4 21.5 24 10.5 24 10.5z"/><path class="st4" d="M471.2 457.9c3.7-.9 7.6-.2 10.7 2M444.2 465.8c2.8-2.6 6.5-3.8 10.3-3.5"/><circle class="st3" cx="475.2" cy="468.5" r="2.8"/><circle class="st3" cx="450.8" cy="473.7" r="2.8"/><path class="st4" d="M463.1 497s11 6.3 16.2-5.5M463.8 470.8c.6 2.7.7 5.4.3 8.1-.3 2.1-1 4-1.4 6.1-.3 1-.3 2.1 0 3.1.4 1 1.5 1.5 2.5 1.1M471.2 465s4.5-2.9 10.2 1.1M456.7 472.2s-5-6.3-10.1-.8"/></g></g><path class="st5" d="M460.6 540.6l-8.5 13.4-6.4 67.9-58.7 23.2 3.5 13.7 85.9-17.3 18.2-73.4z"/><path class="st5" d="M476.1 529.5l-16.8 11.3 2.3 52.7c-.4 3.7.5 7.4 2.6 10.5l10.5 10.3 14.4 64.2s62.6 0 63-6.7 5.8-106.5 5.8-106.5l-13.6-42.5-30.9-12.3-18.9 17.4-18.4 1.6z"/><path class="st1" d="M506.2 504.2l-21.5 22.3-8.4-5.5-8 11.1 3.7 14.1 12.8-16 14.4 13 21.7-29.6z"/><path class="st5" d="M507.1 599.1s22.8 9.7 27.7-11.4"/><path class="st1" d="M387 645.1s-29.4 2.3-33.3 14.8 15.5-.1 18.6-1 11.8 5 18.1 0l-3.4-13.8z"/><path class="st1" d="M374.7 653.2s-11.3 5.6-11.1 8.3c.4 4.7 8.9-2.9 13.8-1.9"/><path class="st6" d="M522.2 662.3l-130-45.9 47.7 62.1z"/><path class="st4" d="M497.6 661l-74.8-28M485 664.3l-75.7-28.9M471.9 667.6l-76.3-29.5M457.2 669.4l-69.4-27.9M495.1 656.9l-72.6 12.5M483.9 652.8l-72.6 12.5M473.6 647.8L401 660.3M460.1 643.8l-72.5 12.5M448.9 640.3l-72.6 12.5"/><path class="st7" d="M434.6 688.1l-17.5-112.4-109.2-36.5 18 108z"/><path class="st8" d="M307.9 539.2l11-1.9 103.9 34.1-5.7 4.3z"/><path class="st9" d="M422.8 571.4l17.1 107.1-5.3 9.6-17.5-112.4z"/><path class="st9" d="M439.9 678.5l82.3-16.2v7.2l-87.6 18.6z"/><path class="st5" d="M421.4 647.7L322 609.1l-4.2-34.8 99.4 38.6z"/><path class="st0" d="M354.4 601.2c-.1-.3-.5-.4-.9-.5-.2-.1-.5-.2-.9-.2l.2-1.3c0-.2-1.1-1.3-1.4-1.2s-.4 1-.6 2.2c-.6-.1-1.3-.2-1.9-.2v-.1c0-.6-1-1.3-1.5-1.5-.2-.1-.4-.1-.4 0-.8 1.8-1.4 3.8-1.8 5.8h-.1c-.1-1.8-.1-3.6.1-5.5 0-.5-.5-.7-.7-.8-1-.4-1.2 2.1-1 5.4v.1c.2 1.3-.8 3.3-2.3 2.7-.9-.4-1.5-1.2-1.6-2.2-.1-.8-.1-1.7 0-2.5.3.6.7 1 1.3 1.3 1.6.6 2-1.4 1.7-4 0-1.3-.8-2.5-1.9-3.1-1.8-.7-2.8 3.8-2.4 7.2l.1.5c-.1-.1-.2-.2-.4-.2h-.2c-1-1.5-2.3-3.3-3.3-4.6 2.2.5 3.5-.3 3.2-2.8-.3-2.2-2.5-4.9-5-6.1v-.4c-.3-.3-.7-.6-1.1-.8-.5-.2-.4.2-.4.4v.3c-2.6-.6-2.9 1.2-2.9 1.2.4.6.8 1 1.4 1.4h.1c.1-.7.6-1.2 1.3-1.2-.2 3-.4 9.3-.4 12.3.4.4.9.7 1.4 1 .3.1.5-.3.5-.9s-.2-.8-.2-1.1l.1-4h.1c1.3 1.6 4.3 6.2 5.6 8.1.3 0 .7-.1.9-.3v-.1c.6 1.1 1.5 2 2.6 2.5.8.4 1.9.1 2.3-.7 0 0 0-.1.1-.1.1.7.5 1.2 1.1 1.5.2.1.4.1.6 0-.1-2.2.2-4.3 1-6.3l.2.1c-.1 1.3-.1 2.5 0 3.8.2 1.6.7 3.2 2.1 3.7.6.3 1.4.1 1.8-.6 0-.1.1-.1.1-.2.4 1.1 1.3 2 2.3 2.5 1.2.5 2.9-.4 2.8-1.7-.1-1.2-.8-1.3-.8-1.3 0 1-1.4 1.8-2.5 1.4-.4-.2-.7-.6-.7-1.1-.4-3.1-.1-3.1.4-6.8 1 .2 1.9.5 2.9.8.3.1.3 0 .3-.2-.1-.3-.3-.6-.5-.8-.5-.6-.7-.5-.8-.8zm-13.9-4.4c.1-.2.2-.3.3-.2s.2.2.4 1c.2 1.8-.1 3.9-.8 3.6-.3-.1-.5-.4-.6-.7 0-1.3.2-2.6.7-3.7zm-7.8-6.3l.4.1c1.6.6 2.8 2 3.1 3.7.3 2.6-1.3 3-3.7 2 0-2.2.1-4.4.2-5.8zm17.7 16.4c0 .2.1.4.1.6-.1.5-.4 1.2-1 .9s-.9-.8-1-1.8c-.3-2.4.3-4.3.3-6.2.2.4.6.9.9.9l.9.1c-.3 1.9-.3 3.7-.2 5.5zM367.4 612.9c0 1.2-.1 2.3-1.1 2-.7-.2-.9-.9-1-1.9-.1-1.8 0-3.7.4-5.5.1-.4-.7-.7-.9-.9v-.2c-.3-1-1.1-1.9-2.1-2.2-2.3-.9-3.5 2.1-3.1 5.7.3 2.5 1.6 4.4 3 5 .7.4 1.5.1 1.9-.6v-.1h.1c.2.8.8 1.5 1.6 1.9 1.5.6 2-1.4 1.9-2.4-.1-.4-.3-.7-.7-.8zm-5.2.5c-.5-.2-.8-.8-.9-2-.2-2.1 0-6.5 1.5-6 .4.1.4.6.5.8.1.6 0 1.2-.4 1.8.3.3.6.6 1 .8 0 .7-.5 5-1.7 4.6zM384 620.7l-2.4-2.5-.6-.6c-.2.1-.3.3-.5.4-.2.1-.4.2-.7.3-.3.1-.6.1-.8 0-.3-.1-.7-.1-1-.3-.5-.2-1-.5-1.5-.9s-.9-.8-1.2-1.3c-.4-.5-.7-1-.9-1.6-.2-.5-.4-1.1-.5-1.7-.1-.5 0-1 .1-1.5.1-.4.3-.7.6-1 .3-.2.6-.4 1-.4.5 0 .9.1 1.4.3.7.3 1.3.7 1.9 1.2.5.5 1 1.1 1.4 1.7l.6-.3 1.9-.8c-.3-.5-.7-1-1.1-1.5l-1.2-1.2-.2-.2c-.5-.5-1.1-.9-1.7-1.2-.6-.4-1.3-.7-2-1-.9-.4-1.9-.6-2.9-.6-.8 0-1.5.3-2.1.7-.6.5-1 1.1-1.2 1.8-.3.9-.3 1.8-.2 2.7.1 1.1.5 2.2.9 3.2.5 1.1 1.1 2.1 1.8 3 .7.9 1.6 1.7 2.5 2.4.9.7 1.8 1.2 2.9 1.7.7.3 1.4.5 2.1.6.5.1 1.1.1 1.6 0h.2c.4-.1.7-.2 1-.5.2-.3.5-.6.8-.9z"/><path class="st0" d="M396.8 626.8c-.8-.9-1.4-2-1.9-3.1-.5-1-.8-2.1-1-3.2-.1-.9-.1-1.9.2-2.8.2-.7.7-1.4 1.4-1.8l.2-.1-.2-1.5-3.9-1.5-2.8 4.4-4.1-7.2-3.9-1.5.1.5.1.1.1.1.2.2.1.1.2.2.1.1.3.3c.4.5.9 1.1 1.2 1.7l.1.2-2 .9.6 5.3 2.5 2.6-.1.1c-.3.3-.6.7-1 .9l-.2.1h-.1l-.2.1h-.1l-.2.1h-.2l.1.5 3.6 1.4-1-8.5 4.5 7.5 3.1-4.5 1.1 8.8 3.6 1.4-.2-1.4-.3-.5z"/><path class="st0" d="M408.4 623.3c-.5-1.1-1.1-2.1-1.9-3-.7-.9-1.6-1.7-2.5-2.5-.9-.7-2-1.3-3.1-1.8-.9-.4-1.9-.6-2.9-.6-.7 0-1.4.2-2 .5h-.1l-.1.1c-.6.4-1.1 1-1.3 1.8-.3.9-.3 1.8-.2 2.7.1 1.1.4 2.1.9 3.1.5 1.1 1.1 2.1 1.9 3l.2.2.1.1.1.1c.7.8 1.4 1.5 2.2 2.1.9.7 2 1.3 3.1 1.8.9.4 1.9.6 2.9.6.8 0 1.6-.2 2.2-.7.6-.4 1.1-1 1.3-1.8.3-.9.3-1.8.2-2.7-.3-1-.6-2.1-1-3zm-2.8 1.7c.1.5 0 1-.1 1.5-.1.4-.3.7-.6 1-.3.3-.7.4-1.1.4-.5 0-1-.1-1.5-.3-.6-.2-1.1-.5-1.6-.9-1-.8-1.7-1.8-2.2-3-.2-.5-.4-1.1-.4-1.7-.1-.5 0-1 .1-1.5.1-.4.3-.7.6-1 .3-.2.7-.4 1.1-.4.5 0 1 .1 1.5.3.6.2 1.1.6 1.6 1s.9.9 1.3 1.4c.4.5.7 1 .9 1.6.2.5.3 1.1.4 1.6z"/><path class="st5" d="M533 518.5l24.6 9c2.8 1 5 3.2 6.1 5.9l39.3 84.9c3.1 5.5 1.2 12.6-4.4 15.7-.9.5-1.9.9-2.9 1.2L489 661.6l-4.8-17 82.5-29.6-27.7-48.8-6-47.7z"/><path class="st1" d="M484.4 644.5s-35.2 8.2-35.9 19.9c-.2 3.9 6.9 5.7 15.7-.4s14.4 3.2 25-2.4l-4.8-17.1z"/></g><circle class="st4" cx="440.2" cy="537.2" r="145.9"/><circle class="st1" cx="224.3" cy="235.9" r="92.7"/><defs><circle id="SVGID_3_" cx="224.3" cy="235.9" r="92.7"/></defs><clipPath id="SVGID_4_"><use xlink:href="#SVGID_3_" overflow="visible"/></clipPath><g clip-path="url(#SVGID_4_)"><g id="Layer_8-2"><path class="st3" d="M161.1 204.4c2.7-5.7 3.4-6.4 6.2-12.1 2.6-5.3 2.5-10.2 4-15.9 4.6-16.5 15.2-27.4 32.6-27.1 16.3.3 27.1 15.6 26.5 31-.1 1.9-.3 3.8-.6 5.6-.8 5.1-3.7 12.5-3.7 17.9-.9 7 .4 7.2.9 14.9 0-.2-13.4 8.7-65.9-14.3z"/><g id="Layer_7-3"><path class="st1" d="M180.2 217.6c1.3 1.2 4.5-5.9 5.2-8.7.9-4 2.9-12 3.2-11.5l18.1 9.2c-1.6 2.8-3.4 6.5-3.6 6.7-2 3.9-2.6 7.3-1.6 10.8 0 0-1.8 7.9-11.9 6.9s-9.4-13.4-9.4-13.4z"/><path class="st1" d="M183.1 185.9c.2 2.5 0 6.5 2.3 6.9.7.1.4 2.2.4 2.9.2 2.2.2 3.9 1.3 5.8 1.8 4.5 5.4 8.1 9.9 10 8.5 3.5 13.6-.1 16.6-3 3.7-3.5 6.5-7.3 8.5-18.3s-5.1-24.6-5.1-24.6-12.5 12.4-18.7 13.7-15.2 6.6-15.2 6.6z"/><path class="st4" d="M204.6 179.6c-2.3-.6-4.8-.1-6.8 1.3M221.8 184.6c-1.8-1.6-4.2-2.4-6.6-2.2"/><circle class="st3" cx="202.1" cy="186.3" r="1.8"/><circle class="st3" cx="217.6" cy="189.6" r="1.8"/><path class="st4" d="M209.8 204.4s-6.9 4-10.3-3.5M209.3 187.8c-.4 1.7-.5 3.5-.2 5.2.2 1.3.6 2.6.9 3.9.2.7.2 1.3 0 2-.3.6-1 1-1.6.7M204.6 184.1s-2.9-1.8-6.5.7M213.8 188.6s3.2-4 6.4-.5"/></g></g><path class="st11" d="M211.3 232.1l5.4 8.5 4.1 43.2 37.3 14.7-2.2 8.7-54.6-11-11.5-46.6z"/><path class="st11" d="M201.5 225.1l10.7 7.2-1.5 33.4c.3 2.3-.3 4.7-1.7 6.6l-6.7 6.5-9.1 40.8s-39.8 0-40-4.2-3.7-67.7-3.7-67.7l8.7-27 19.6-7.8 12 11 11.7 1.2z"/><path class="st1" d="M182.4 209l13.6 14.2 5.4-3.5 5 7-2.3 9-8.1-10.2-9.2 8.3L173 215z"/><path class="st11" d="M181.8 269.3s-14.5 6.2-17.6-7.3"/><path class="st1" d="M258.1 298.5s18.7 1.5 21.1 9.4-9.9 0-11.8-.7-7.5 3.2-11.5 0l2.2-8.7z"/><path class="st1" d="M265.9 303.7s7.2 3.6 7 5.3c-.2 3-5.6-1.9-8.8-1.2"/><path class="st6" d="M172.2 314.7l78.2-27.6-28.7 37.3z"/><path class="st4" d="M187 313.9l44.9-16.8M194.6 315.9l45.5-17.4M202.4 317.9l45.9-17.8M211.3 318.9l41.7-16.7M188.5 311.5l43.6 7.4M195.2 309l43.7 7.5M201.4 306l43.6 7.5M209.5 303.6l43.6 7.5M216.3 301.5l43.6 7.5"/><path class="st7" d="M224.9 330.2l10.5-67.6 65.6-21.9-10.8 64.9z"/><path class="st8" d="M301 240.7l-6.6-1.2-62.5 20.5 3.5 2.6z"/><path class="st9" d="M231.9 260l-10.2 64.4 3.2 5.8 10.5-67.6zM221.7 324.4l-49.5-9.7v4.3l52.7 11.2z"/><ellipse transform="rotate(-16.81 268.898 283.35)" class="st0" cx="268.9" cy="283.4" rx="5.5" ry="4.7"/><path class="st11" d="M165.3 218.1l-15.6 5.8c-1.8.6-3.2 2-3.9 3.8l-25 53.9c-2 3.5-.8 8 2.8 10 .6.3 1.2.6 1.9.7l67.8 16.7 3-10.8-52.4-18.8 17.7-31 3.7-30.3z"/><path class="st1" d="M196.2 298.1s22.4 5.2 22.8 12.6c.1 2.5-4.4 3.6-10-.3s-9.1 2-15.9-1.5l3.1-10.8z"/></g><circle class="st4" cx="224.3" cy="235.9" r="92.7"/><circle class="st1" cx="656" cy="235.9" r="92.7"/><defs><circle id="SVGID_5_" cx="656" cy="235.9" r="92.7"/></defs><clipPath id="SVGID_6_"><use xlink:href="#SVGID_5_" overflow="visible"/></clipPath><g clip-path="url(#SVGID_6_)"><g id="Layer_8-3"><path class="st1" d="M700.1 216.8c-1.3 1.2-4.5-5.9-5.2-8.7-.9-4-2.9-12-3.2-11.5l-18.1 9.2c1.6 2.8 3.5 6.5 3.5 6.7 2 3.9 2.6 7.3 1.6 10.8 0 0 1.8 7.9 11.9 6.9s9.5-13.4 9.5-13.4z" id="Layer_7-4"/></g><path class="st1" d="M669 231.3l-5.4 8.5-4.1 43.2-37.3 14.7 2.3 8.7 54.5-11 11.5-46.6z"/><path class="st11" d="M672.1 315.8s54.9 3 55.1-1.2 3.7-67.7 3.7-67.7l-8.7-27-19.6-7.8-12 11-11.8 1-10.7 7.2 4 84.5"/><path class="st1" d="M697.9 208.2l-13.6 14.2-5.4-3.5-5 7 2.3 9 8.1-10.2 9.2 8.3 13.8-18.8zM622.2 297.7s-18.7 1.5-21.1 9.4 9.9 0 11.8-.7 7.5 3.2 11.5 0l-2.2-8.7z"/><path class="st1" d="M614.4 302.8s-7.2 3.6-7 5.3c.2 3 5.7-1.9 8.8-1.2"/><g id="Layer_9"><path class="st1" d="M655.6 193.1c-1.5-7.8-2.3-7.5-2.4-11.4-.1-6.4-.1-13.2 3.6-18.4 2.2-2.8 5-5.3 8.1-7.1 2.1-1.6 4.5-2.9 7-3.8 2.2-.6 4.4-.8 6.7-.6 6.3.4 12.3 3.1 16.8 7.6 11.7 12.1 7 29.9-.8 42.1-2.9 4.6-9.4 10.5-14.8 11.1-15.3.9-22.7-12-24.2-19.5z"/><path class="st13" d="M674.2 177.9c3.2-2.1 9-2 10.9-.3M655.7 183.3c1.6-3 5-4.6 8.3-4.1"/><path class="st1" d="M673.8 197.4c-1.1-.2-2.2-.4-3.3-.8-.3-.1-.5-.2-.7-.3-.4-.5-.6-1.2-.4-1.9l.5-3.5"/><ellipse transform="rotate(-88.53 679.49 187.166) scale(1.00003)" class="st3" cx="679.5" cy="187.2" rx="2.1" ry="1.6"/><ellipse transform="rotate(-14.2 662.825 190.291)" class="st3" cx="662.8" cy="190.3" rx="1.5" ry="1.9"/><path class="st14" d="M694.1 177.4s2.7-6 5-3.6c.8.8 1.5 7.5-3.7 11.9 0 0 4.9 5 2.9 9 0 0 5.6-5.4 7.8-24.9 0 0 2.4-16.9-17.1-16.3-8.5-10.9-23.7-11.3-37.5 1.6-3.7 10-3 21.2 1.9 30.7 0 0-2.2-9.3 3.7-16.7 0 0 15.8 6.7 21.6-5.8 0-.2 8-1.7 15.4 14.1z"/></g><path class="st4" d="M683 198.1s-7.5 6.5-12 5c0 0 10.6 9.8 12-5z"/><path class="st6" d="M712.5 315.9L629 286.4l30.6 39.9z"/><path class="st4" d="M696.7 315.1l-48-18M688.6 317.2L640 298.6M680.2 319.3l-49-18.9M670.8 320.5l-44.6-18M695.1 312.4l-46.6 8.1M687.9 309.8l-46.6 8M681.3 306.6l-46.6 8M672.7 304l-46.7 8M665.4 301.8l-46.6 8"/><path class="st7" d="M656.3 332.5L645 260.3l-70.1-23.4 11.5 69.3z"/><path class="st8" d="M574.9 236.9l7-1.3 66.8 21.9-3.7 2.8z"/><path class="st9" d="M648.7 257.5l10.9 68.8-3.3 6.2-11.3-72.2z"/><path class="st9" d="M659.6 326.3l52.9-10.4v4.6l-56.2 12z"/><ellipse transform="rotate(-73.232 610.334 282.106)" class="st0" cx="610.4" cy="282.1" rx="5" ry="5.8"/><path class="st1" d="M715 217.2l15.6 5.8c1.8.6 3.2 2 3.9 3.8l25 53.9c2 3.5.7 8-2.8 10-.6.3-1.2.6-1.8.7l-67.8 16.7-3-10.8 52.4-18.8-17.7-31-3.8-30.3z"/><path class="st1" d="M684.1 297.3s-22.4 5.2-22.8 12.6c-.2 2.5 4.4 3.6 10-.3s9.2 2 15.9-1.5l-3.1-10.8z"/></g><circle class="st4" cx="656" cy="235.9" r="92.7"/><circle class="st1" cx="440.2" cy="235.9" r="92.7"/><defs><circle id="SVGID_7_" cx="440.2" cy="235.9" r="92.7"/></defs><clipPath id="SVGID_8_"><use xlink:href="#SVGID_7_" overflow="visible"/></clipPath><g clip-path="url(#SVGID_8_)"><path class="st16" d="M506.8 308.9L485 234.5l-32.6-13.7h-23.9l-38.8 13.7-16.2 74.4z"/><path class="st1" d="M452.2 225.9l-8.3-5.1h-13.2l-4.3 7.7 4.3 80.4h13.2L449 254z"/><path class="st11" d="M440.6 236.4l11 45.5-7.7 27h-13.2l-6.1-28.3 11.4-44z"/><path class="st16" d="M425.7 219.5c-.6 1-13.2 19.2-13.2 19.2l8.1 10.8-7.3 9.5 13.6 49.9h7.3l-5.8-88.2-2.7-1.2zM449.9 219.5c.6 1 13.2 19.2 13.2 19.2l-8.1 10.8 7.3 9.5-14.6 49.9h-6.3l5.8-88.2 2.7-1.2z"/><path class="st1" d="M430.6 222.6c-1.3-1.6 0-17.8 0-17.8h17.1l-.5 20.8c.1 0-13.1 1.4-16.6-3z"/><path class="st11" d="M430.5 224.2l5.7 13 4.3-.3 6.7-12.7-11.7-1.6z"/><path class="st1" d="M427.6 216.5l-11.5 8.3 8.5 15.7 13-15.6 2.9.3 9.9 15.3 9.4-16.7-10.1-6.7-10.6 5.3z"/><g id="Layer_9-2"><path class="st1" d="M464.6 179.6c-.8-6.5-1.5-15.1-6-19.9-2.7-2.6-5.9-4.7-9.3-6.2-2.4-1.4-5-2.3-7.8-2.9-2.3-.3-4.7-.2-7 .4-6.4 1.3-14.3 8-18.2 13.2-10.3 14.1-2.9 31.6 6.8 43 3.6 4.3 11.2 9.5 16.8 9.3 15.9-1.2 19.9-14.2 22.1-21.1.2-.5 6.3-7 4.9-13.5l-1.6-1.6-.7-.7z"/><path class="st13" d="M434.7 180.2c-3.8-1.1-8.7 1.9-10.1 4.1M458.1 183.5c-2.1-2.4-7.5-5-10.4-3.5"/><path class="st1" d="M439.3 199.7c.9-.7 1.9-1.4 2.7-2.2.2-.2.4-.4.5-.6.3-.6-.1-1.3-.5-1.9l-2-3"/><ellipse transform="scale(.99997) rotate(-2.09 452 189.779)" class="st3" cx="452" cy="189.8" rx="1.6" ry="2"/><ellipse transform="matrix(.9993 -.03647 .03647 .9993 -6.656 15.793)" class="st3" cx="429.6" cy="190.3" rx="1.6" ry="2"/><path class="st14" d="M416.3 193.1c.2 3 1.2 5.9 2.7 8.5 0 0-3.6-1.1-8.8-19.4 0 0-5.9-21.8 9-23.7 5.3-13.3 30.4-16.7 48 5.1 4.4 23.9-6 34.4-6 34.4l1.3-4.8s3.9-4.7 3.6-7.1-2.8-1.5-2.8-1.5c1-7.6-2-15.2-7.9-20 0 0-21.8 11.4-31.2.7l-7.4 19.7s-4.7-2.3-3.8 1.8c.4 2.5 1.6 4.6 3.3 6.3z"/><path class="st4" d="M447.7 186.6s5.9-3.4 8.2 0M424.9 187.6c2.3-2.1 5.7-2.4 8.4-.8"/><path class="st1" d="M432.8 203.5s5.3 9.2 14.4 0"/></g><path class="st4" d="M389.7 234.5l5.7 10.8-6.2 63.6M485 234.5l-5.9 9.8 8.8 64.6"/><path class="st7" d="M375.3 256.8h129.5v83.4H375.3z"/><circle class="st0" cx="440" cy="298.5" r="7.9"/></g><circle class="st4" cx="440.2" cy="235.9" r="92.7"/><path d="M368.3 34.3c5.3 0 10.1 2.1 10.1 7.9 0 3.1-1.8 5.8-4.7 6.8 3.9.9 6.1 3.8 6.1 8 0 7.3-6 9-12 9h-13.1V34.3h13.6zm-9.4 13.6h7.5c3.6 0 7.8-.3 7.8-5s-3.7-5-7.4-5h-7.9v10zm0 14.6h8.4c4.2 0 8.4-.3 8.4-5.8s-4.9-5.5-9.1-5.5h-7.7v11.3zM388.7 66h-3.8V34.3h3.8V66zM415.6 54.4c0 7.8-4.1 12.3-11.1 12.3s-11.2-4.5-11.2-12.1 4.3-12.3 11.3-12.3c7 .1 11 4.5 11 12.1zm-18.3.1c0 5.7 2.7 9 7.4 9 4.5 0 7.1-3.4 7.1-9.1 0-5.5-2.8-9-7.2-9s-7.3 3.7-7.3 9.1zM440.1 63.5c0 4-.4 5.8-1.5 7.7-1.6 2.7-4.9 4.2-9.1 4.2-4.6 0-9-1.6-9.7-6.8h3.9c.4 2.6 2.4 3.8 5.9 3.8 4.7 0 6.7-2.2 6.8-7.5v-2.8c-1.5 2.9-3.8 4.2-7.3 4.2-6.2 0-10.1-4.5-10.1-11.7 0-6.2 3.4-12.2 10.3-12.2 3.2 0 5.8 1.4 7.3 4V43h3.5v20.5zm-17.2-8.8c0 5.1 2.7 8.4 6.7 8.4 4.2 0 6.8-3.4 6.8-9 0-5.2-2.5-8.3-6.9-8.3-4.1-.1-6.6 3.3-6.6 8.9zM465.7 63.5c0 4-.4 5.8-1.5 7.7-1.7 2.7-4.9 4.2-9.1 4.2-4.6 0-9-1.6-9.7-6.8h3.9c.4 2.6 2.4 3.8 5.9 3.8 4.7 0 6.7-2.2 6.8-7.5v-2.8c-1.5 2.9-3.8 4.2-7.3 4.2-6.2 0-10.1-4.5-10.1-11.7 0-6.2 3.4-12.2 10.3-12.2 3.2 0 5.8 1.4 7.3 4V43h3.5v20.5zm-17.2-8.8c0 5.1 2.7 8.4 6.7 8.4 4.2 0 6.8-3.4 6.8-9 0-5.2-2.5-8.3-6.9-8.3-4.1-.1-6.6 3.3-6.6 8.9zM481 66.8c-6.8 0-10.8-4.5-10.8-11.9s4.3-12.5 10.7-12.5c7.6 0 10.4 6 10.4 12.7v.5H474v.3c0 4.9 2.7 7.8 7.2 7.8 3.3 0 5.1-1.4 6.2-4.9h3.7c-1.3 5.3-4.7 8-10.1 8zm-.3-21.3c-3.7 0-6.3 2.7-6.8 7h13.4c-.3-4.4-2.8-7-6.6-7zM507.3 46.4h-1c-6.2 0-7.4 4.8-7.4 9.9V66h-3.8V43h3.6v5c1.6-3.9 4.4-5.5 8.5-5.5v3.9zM523.4 49.7c-.3-3-2.4-4.2-5.6-4.2-2.9 0-4.7 1.2-4.7 3.1 0 2.6 3 3 6.1 3.7 3.9.9 8.9 2 8.9 7 0 4.5-3.8 7.4-9.5 7.4-6.2 0-9.7-2.8-9.9-8h3.7c.2 3.5 2.6 4.9 6.2 4.9 3.4 0 5.6-1.5 5.6-3.8 0-2.5-2.6-3.1-5.8-3.9-4-1-9.3-1.5-9.3-6.8 0-4.1 3.4-6.8 8.8-6.8 5.2 0 9.2 2.5 9.2 7.4h-3.7z"/><path class="st4" d="M440.2 77.8L627 147.9M440.2 143.2V77.8l-186.9 70.1M627 324l-186.8 67v-62.4M253.3 324l186.9 67"/><path class="st11" d="M208.2 435.9h-1.6c-3.3 0-5.9-2.6-5.9-5.9 0-3.3 2.7-5.9 5.9-5.9h1.6c3.3 0 5.9 2.7 5.9 5.9s-2.7 5.9-5.9 5.9z"/><path class="st5" d="M271 386.2l-3.2 2c-1.3.8-2.8.7-3.3-.3-1.9-3.9-4.7-7.2-8.3-9.5-.9-.7-.9-2.1.2-3.3l2.5-2.9c.9-1.2 2.5-1.5 3.8-.8 4 2.9 7.3 6.7 9.6 11.1.5 1.4 0 3-1.3 3.7z"/><path class="st7" d="M212.5 415.2c2.4-2.1 6-1.8 8.1.6l25.3 29c2.1 2.4 1.8 6-.5 8.1-2.4 2.1-6 1.8-8.1-.6l-25.3-29c-2.2-2.4-1.9-6 .5-8.1z"/><path class="st16" d="M278.9 379.7l17.5-5.2c.8-.2 1.6.2 1.9 1 .2.8-.2 1.6-1 1.8l-17.5 5.2c-.8.2-1.6-.2-1.8-1-.4-.7.1-1.5.9-1.8zM273 372.3l13.7-12c.6-.5 1.5-.5 2.1.1.5.6.5 1.5-.1 2.1l-13.7 12c-.6.5-1.5.5-2.1-.1-.6-.6-.5-1.5.1-2.1zM266.1 366.4l6.7-17c.3-.8 1.2-1.1 1.9-.8.8.3 1.1 1.2.8 1.9l-6.7 17c-.3.8-1.2 1.1-1.9.8-.7-.3-1.1-1.2-.8-1.9z"/><path class="st5" d="M218.5 400.7L199 419.1c1.5 8.9 8.7 15.8 17.7 16.7l3.4.4 24.5-20.3-26.1-15.2z"/><path class="st18" d="M244.8 365.2s-11.4 21-26.3 35.5c0 7 13.4 18.5 20.3 19.5 24.7-18.7 37.6-18.8 37.6-18.8l-31.6-36.2z"/><path class="st7" d="M275.9 405.2c-1.9 1-4.3.2-5.3-1.7-7.3-13.4-17.4-25-29.7-34.1-1.8-1.3-2.2-3.7-.9-5.5 1.3-1.8 3.9-2.3 5.8-1 13.2 9.8 24.1 22.3 31.9 36.7 1 2.1.2 4.5-1.8 5.6z"/><path class="st16" d="M208.1 418.6l6.7-6.5c1.3-1.3 3.5-1.3 4.8.1 1.3 1.3 1.3 3.5-.1 4.8l-6.7 6.5c-1.3 1.3-3.5 1.3-4.8-.1-1.3-1.3-1.3-3.5.1-4.8z"/><path class="st11" d="M215.4 413.1c1.2-.7 2.8-.2 3.4 1 .7 1.2.2 2.8-1 3.4-1.2.7-2.8.2-3.4-1-.6-1.2-.2-2.7 1-3.4zM675 435.9h1.7c3.3 0 5.9-2.6 5.9-5.9 0-3.3-2.7-5.9-5.9-5.9H675c-3.3 0-5.9 2.7-5.9 5.9s2.6 5.9 5.9 5.9z"/><path class="st5" d="M612.1 386.2l3.2 2c1.3.8 2.8.7 3.3-.3 1.9-3.9 4.7-7.1 8.3-9.5.9-.7.9-2.1-.2-3.3l-2.5-2.9c-.9-1.2-2.5-1.5-3.8-.8-4 2.9-7.3 6.7-9.6 11.1-.5 1.4 0 3 1.3 3.7z"/><path class="st7" d="M637.9 452.8c-2.4-2.1-2.6-5.7-.5-8.1l25.3-29c2.1-2.4 5.7-2.6 8.1-.6 2.4 2.1 2.6 5.7.5 8.1l-25.3 29c-2.1 2.5-5.7 2.7-8.1.6z"/><path class="st16" d="M604.3 379.7l-17.5-5.2c-.8-.2-1.6.2-1.8 1-.2.8.2 1.6 1 1.8l17.5 5.2c.8.2 1.6-.2 1.8-1 .2-.7-.2-1.6-1-1.8zM610.2 372.3l-13.7-12c-.6-.5-1.5-.5-2.1.1-.5.6-.5 1.5.1 2.1l13.7 12c.6.5 1.6.5 2.1-.1.6-.6.5-1.5-.1-2.1zM617.1 366.4l-6.7-17c-.3-.8-1.2-1.1-1.9-.8-.8.3-1.1 1.2-.8 1.9l6.7 17c.3.8 1.2 1.1 1.9.8.7-.3 1.1-1.2.8-1.9z"/><path class="st5" d="M664.7 400.7l19.5 18.4c-1.5 8.9-8.7 15.8-17.7 16.7l-3.5.4-24.5-20.3 26.2-15.2z"/><path class="st18" d="M638.4 365.2s11.5 21 26.3 35.5c0 7-13.4 18.5-20.3 19.5-24.7-18.7-37.7-18.8-37.7-18.8l31.7-36.2z"/><path class="st7" d="M607.2 405.2c1.9 1 4.3.2 5.3-1.7 7.3-13.4 17.4-25 29.7-34.1 1.8-1.3 2.2-3.7.9-5.5-1.3-1.8-3.9-2.3-5.8-1-13.2 9.8-24.1 22.3-31.9 36.7-1 2.1-.2 4.5 1.8 5.6z"/><path class="st16" d="M670.5 423.5l-6.7-6.5c-1.3-1.3-1.4-3.4-.1-4.8 1.3-1.3 3.4-1.4 4.8-.1l6.7 6.5c1.3 1.3 1.4 3.4.1 4.8-1.4 1.4-3.5 1.4-4.8.1z"/><path class="st11" d="M665.2 417.6c-1.2-.7-1.7-2.2-1-3.4.7-1.2 2.2-1.7 3.4-1 1.2.7 1.7 2.2 1 3.4-.6 1.2-2.2 1.7-3.4 1z"/></svg>