<?xml version="1.0" encoding="utf-8"?>
<!-- Generator: Adobe Illustrator 22.0.1, SVG Export Plug-In . SVG Version: 6.00 Build 0)  -->
<svg version="1.1" id="Layer_1" xmlns="http://www.w3.org/2000/svg" xmlns:xlink="http://www.w3.org/1999/xlink" x="0px" y="0px"
	 viewBox="0 0 930.3 629.2" style="enable-background:new 0 0 930.3 629.2;" xml:space="preserve">
<style type="text/css">
	.st0{fill:#F5F5F5;}
	.st1{fill:#CCCCCC;stroke:#000000;stroke-width:0.5;stroke-miterlimit:10;}
	.st2{fill:#E5E5E5;}
	.st3{fill:none;stroke:#000000;stroke-width:0.5;stroke-miterlimit:10;}
	.st4{fill:#E5E5E5;stroke:#000000;stroke-width:0.5;stroke-miterlimit:10;}
	.st5{fill:#CCCCCC;}
	.st6{fill:#FFFFFF;stroke:#000000;stroke-width:0.5;stroke-miterlimit:10;}
	.st7{enable-background:new    ;}
	.st8{fill:#AAAAAA;stroke:#000000;stroke-width:0.5;stroke-miterlimit:10;}
	.st9{fill:#1A1A1A;}
	.st10{fill:#1A1A1A;stroke:#000000;stroke-width:0.5;stroke-miterlimit:10;}
	.st11{fill:none;stroke:#000000;stroke-miterlimit:10;}
	.st12{fill:#0077BF;stroke:#000000;stroke-width:0.5;stroke-miterlimit:10;}
	.st13{fill:#FFE600;stroke:#000000;stroke-width:0.5;stroke-miterlimit:10;}
	.st14{fill:#AFAFAF;stroke:#000000;stroke-width:0.5;stroke-miterlimit:10;}
	.st15{fill:#EB058C;stroke:#000000;stroke-width:0.5;stroke-miterlimit:10;}
	.st16{fill:#FFFFFF;}
	.st17{fill:#C10072;}
	.st18{fill:#C1C1C1;stroke:#000000;stroke-width:0.5;stroke-miterlimit:10;}
</style>
<title>CEO1</title>
<g id="Layer_7">
	<path class="st0" d="M313,616.8c0,0-110.9,52.6-224.4-59.4c-74.7-73.7-104.4-281.8,36.6-418.2c0,0,101-100.5,268.8-132.5
		C466.2-7.1,576.9-6,689.2,72.5c97,67.7,135.3,123.4,169,194.9C897,349.9,896.5,538.6,727,604.5c-40,15.6-127.8,24.2-183.9-49.5
		C543.1,555,463,513,313,616.8z"/>
</g>
<path class="st1" d="M0.2,352.2l190.1-169.5l10.5,2.1l19.6-19.1c0,0,11.5,9.9,17.2,17s15.3,11.1,21,14.7
	c5.7,3.6,44.9,33.6,44.9,33.6l93.1,103.6L224.2,440.2"/>
<path class="st1" d="M930.2,412.4c0,0-68-76.8-81.4-94s-31.5-39.6-56.4-59.7s-84.5-97.9-86.9-99.3s-6.2,3.2-6.2,3.2
	c-6.7-3.5-26.3-31.4-31-30s-28.7,23.9-34.4,33.1c-4.5,7.2-25.6,27-34.6,35.2c-2.5,2.3-186.8,171.5-186.8,171.5l210.3,164.7"/>
<path class="st2" d="M491.3,92.1l-16.2-19.6c0,0-52.8,41.7-59,49.5s-11.4,3.5-17.4,6.9c-6,3.3-81.9,82-81.9,82s-8.6-1.6-16.2-2.2
	s-54.4,39.5-70.7,57.2S31.2,453.1,31.2,453.1s25.8,25.8,44.9,36.8s110.8,93.1,189.6,93.6s81.9-3.3,130.5,12.4s140.8,10.5,236.7-20.5
	s157.1-29.6,172.4-27.2s69.7,12.4,91.2-9.6c0,0-64-74.5-73.5-86.4s-7.2-33.9-41.5-58.3s-92.7-84.2-112.7-110.6s-40.6-71-88.3-98.4
	s-42.2-28.8-50-42.6S491.3,92.1,491.3,92.1z"/>
<path class="st3" d="M896.5,538.6c0,0-64-74.5-73.5-86.4s-7.2-33.9-41.5-58.3s-92.7-84.2-112.7-110.6s-40.6-71-88.3-98.4
	s-42.2-28.8-50-42.6s-39.1-50.1-39.1-50.1l-16.2-19.6c0,0-52.8,41.7-59,49.5s-11.4,3.5-17.4,6.9c-6,3.3-81.9,82-81.9,82
	s-8.6-1.6-16.2-2.2S246.3,248.3,230,266S31.2,453.1,31.2,453.1"/>
<path class="st4" d="M567.6,326.6c0,0-11.3-5.3-17.3-0.3c-7.7,6.4-3.8,13.7-3.8,13.7"/>
<path class="st4" d="M346.2,531.5c0,0,11.5-8,21.5,0s11.4,15,11.4,15"/>
<path class="st4" d="M472.3,453.9c0,0,1.1-10.3,12.9-14.5s23.7,4.3,23.7,4.3"/>
<path class="st4" d="M423.6,275.1c0,0-3.9-5.2-7.7,4.3s5.4,14.6,5.4,14.6"/>
<path class="st4" d="M481,113.9c0,0,6.2-3.6,10.8,3.3s-3.2,9-3.2,9"/>
<path class="st4" d="M599.2,329.4c0,0,7.9-8.1,9-11.1s11-8.1,17-5.5s4.9,2,4.9,2"/>
<path class="st5" d="M502.9,438.1c3.5,5.1-27.7,32.5-69.6,61.2c-41.9,28.7-62,37.2-65.5,32.1c-1.5-2.3,33.9-30.2,53.6-70.1
	c24.4-49.4,34.5-110.4,37.5-82.5C469.1,473.1,499.4,433,502.9,438.1z"/>
<path class="st5" d="M628,311.9c3.1,2-19.1,12.4-44.8,19.7s-31.8-1.7-32.8-5.2s-28.9-101.4-3.1-108.8S554.7,266.2,628,311.9z"/>
<path class="st3" d="M368,158.4c0,0,8.9,27.8,17,33.5s25.2-6.4,33.7-1.3s42.1,28.7,60.9,28.9s48.1-28.7,64.1-25.3s36.7-9.4,36.7-9.4
	"/>
<path class="st3" d="M191.2,303.3c0,0,20.5-5.6,32.4,1.4s24.4,27,59.2,36.1s39.2,16.4,60.2,18s96-13.3,110.3-18s68-9.3,95.1-3.7
	s69.6,0.3,75.8-13.3s34.6-35.2,54.5-28.2"/>
<path class="st3" d="M74.9,412.4c0,0,118.6,22.1,134.9,33.1s52.5,55.2,82.6,59.9s122.4-58.9,183.9-49.8s145.8,22,202.5,28.6
	s83-4.8,96.4-18.6s30.6-47.8,30.6-47.8"/>
<rect x="233.7" y="99.2" transform="matrix(0.9932 -0.116 0.116 0.9932 -12.8007 34.1264)" class="st6" width="106.2" height="55.7"/>
<g class="st7">
	<path d="M259.4,137l-12.1,1.4c-0.3-4.3,1.6-6.1,4.6-8.5c1.8-1.5,4.1-3.1,3.8-5.8c-0.2-2.1-1.9-3.3-4-3.1c-2.8,0.3-3.3,2.8-3.1,5.1
		l-2.3,0.3l-0.1-0.5c-0.4-3.7,1.7-6.4,5.3-6.8c3.5-0.4,6,1.4,6.4,4.7c0.4,3.6-2.2,5.7-4.7,7.7c-1.6,1.2-3.4,2.5-3.7,4.7l9.6-1.1
		L259.4,137z"/>
	<path d="M270.9,123.9c0.9-1.8,2.3-2.6,4.3-2.9c3.8-0.4,6.5,2,7,6.4s-1.5,7.5-5.2,7.9c-2,0.2-3.5-0.3-4.8-1.7l0.8,7.1l-2.2,0.3
		l-2.2-18.8l2.1-0.2L270.9,123.9z M271.5,128.7c0.4,3.3,2.2,5.1,4.9,4.8c2.5-0.3,3.9-2.5,3.5-5.8s-2.2-5.1-4.8-4.8
		C272.5,123.2,271.2,125.4,271.5,128.7z"/>
	<path d="M297.7,132.5c-0.5,0.2-1,0.4-1.5,0.4c-1.3,0.1-2-0.5-2.2-1.8c-1.2,1.7-2.6,2.5-4.7,2.7c-2.7,0.3-4.5-1-4.8-3.3
		c-0.3-2.4,1.2-4,4.3-4.8c3.2-0.8,4.3-0.8,4.1-2.7c-0.2-1.4-1.3-2.1-3.3-1.9c-2.1,0.2-3.1,1.1-3,3.1l-2.2,0.3
		c-0.3-2.9,1.6-4.8,5.1-5.3c1.8-0.2,3.4,0.1,4.4,0.8c1.1,0.8,1.2,2.2,1.3,3.4c0.2,2,0.4,4,0.6,6.1c0.1,1,0.4,1.3,1.1,1.2
		c0.2,0,0.3-0.1,0.5-0.1L297.7,132.5z M290.4,127.1c-1.6,0.4-3.8,0.8-3.5,3c0.2,1.4,1.3,2.1,3,1.9c2.1-0.2,4-1.9,3.8-3.7l-0.3-2.5
		C292.6,126.7,291.4,126.9,290.4,127.1z"/>
	<path d="M311.4,129.5c0.3,2.3,0.2,3.4-0.3,4.6c-0.8,1.7-2.6,2.8-5.1,3.1c-2.7,0.3-5.4-0.3-6.2-3.3l2.3-0.3c0.4,1.5,1.7,2.1,3.8,1.8
		c2.8-0.3,3.8-1.8,3.5-4.9l-0.2-1.7c-0.7,1.8-2,2.7-4,3c-3.6,0.4-6.3-2-6.8-6.2c-0.4-3.7,1.2-7.4,5.2-7.9c1.9-0.2,3.5,0.4,4.6,1.8
		l-0.2-2l2-0.2L311.4,129.5z M300.7,125.4c0.3,3,2.2,4.8,4.5,4.5c2.5-0.3,3.8-2.5,3.4-5.8c-0.4-3.1-2.1-4.7-4.6-4.4
		C301.5,120,300.3,122.1,300.7,125.4z"/>
	<path d="M320.6,130.3c-4,0.5-6.7-1.9-7.2-6.3c-0.5-4.4,1.7-7.6,5.4-8.1c4.5-0.5,6.6,2.8,7,6.7v0.3l-10.2,1.2v0.2
		c0.3,2.9,2.1,4.4,4.8,4.1c1.9-0.2,2.9-1.2,3.3-3.3l2.2-0.3C325.7,128.1,323.8,130,320.6,130.3z M319,117.8c-2.2,0.3-3.5,2-3.5,4.6
		l7.9-0.9C322.9,118.9,321.3,117.5,319,117.8z"/>
</g>
<rect x="340.7" y="93" transform="matrix(0.9932 -0.116 0.116 0.9932 -17.4553 40.9394)" class="st8" width="4.6" height="154.9"/>
<rect x="150" y="386.4" transform="matrix(0.9932 -0.116 0.116 0.9932 -46.6809 26.3569)" class="st6" width="106.2" height="55.7"/>
<g class="st7">
	<path d="M175.9,419.7l-2.5,0.3l0.5,4.5l-2.1,0.2l-0.5-4.5l-8.2,1l-0.2-2.1l7-13l1.8-0.2l1.4,12.2l2.5-0.3L175.9,419.7z M170,409.4
		l-5.1,9.7l6.2-0.7L170,409.4z"/>
	<path d="M187.2,411.1c0.9-1.8,2.3-2.6,4.3-2.9c3.8-0.4,6.5,2,7,6.4s-1.5,7.5-5.2,7.9c-2,0.2-3.5-0.3-4.8-1.7l0.8,7.1l-2.2,0.3
		l-2.2-18.8l2.1-0.2L187.2,411.1z M187.8,415.9c0.4,3.3,2.2,5.1,4.9,4.8c2.5-0.3,3.9-2.5,3.5-5.8s-2.2-5.1-4.8-4.8
		C188.8,410.4,187.5,412.6,187.8,415.9z"/>
	<path d="M214.1,419.7c-0.5,0.2-1,0.4-1.5,0.4c-1.3,0.1-2-0.5-2.2-1.8c-1.2,1.7-2.6,2.5-4.7,2.7c-2.7,0.3-4.5-1-4.8-3.3
		c-0.3-2.4,1.2-4,4.3-4.8c3.2-0.8,4.3-0.8,4.1-2.7c-0.2-1.4-1.3-2.1-3.3-1.9c-2.1,0.2-3.1,1.1-3,3.1l-2.2,0.3
		c-0.3-2.9,1.6-4.8,5.1-5.3c1.8-0.2,3.4,0.1,4.4,0.8c1.1,0.8,1.2,2.2,1.3,3.4c0.2,2,0.4,4,0.6,6c0.1,1,0.4,1.3,1.1,1.2
		c0.2,0,0.3-0.1,0.5-0.1L214.1,419.7z M206.7,414.3c-1.6,0.4-3.8,0.8-3.5,3c0.2,1.4,1.3,2.1,3,1.9c2.1-0.2,4-1.9,3.8-3.7l-0.3-2.5
		C208.9,413.9,207.7,414,206.7,414.3z"/>
	<path d="M227.7,416.7c0.3,2.3,0.2,3.4-0.3,4.6c-0.8,1.7-2.6,2.8-5.1,3.1c-2.7,0.3-5.4-0.3-6.2-3.3l2.3-0.3c0.4,1.5,1.7,2.1,3.8,1.8
		c2.8-0.3,3.8-1.8,3.5-4.9l-0.2-1.7c-0.7,1.8-2,2.7-4,3c-3.6,0.4-6.3-2-6.8-6.2c-0.4-3.7,1.2-7.4,5.2-7.9c1.9-0.2,3.5,0.4,4.6,1.8
		l-0.2-2l2-0.2L227.7,416.7z M217,412.6c0.3,3,2.2,4.8,4.5,4.5c2.5-0.3,3.8-2.5,3.4-5.8c-0.4-3.1-2.1-4.7-4.6-4.4
		C217.9,407.2,216.6,409.3,217,412.6z"/>
	<path d="M236.9,417.5c-4,0.5-6.7-1.9-7.2-6.3s1.7-7.6,5.4-8.1c4.5-0.5,6.6,2.8,7,6.7v0.3l-10.2,1.2v0.2c0.3,2.9,2.1,4.4,4.8,4.1
		c1.9-0.2,2.9-1.2,3.3-3.3l2.2-0.3C242,415.3,240.1,417.2,236.9,417.5z M235.4,405c-2.2,0.3-3.5,2-3.5,4.6l7.9-0.9
		C239.2,406.1,237.6,404.7,235.4,405z"/>
</g>
<rect x="257" y="380.2" transform="matrix(0.9932 -0.116 0.116 0.9932 -51.3355 33.1698)" class="st8" width="4.6" height="154.9"/>
<rect x="494.1" y="-7.3" transform="matrix(0.2168 -0.9762 0.9762 0.2168 364.1322 545.4379)" class="st6" width="55.7" height="106.2"/>
<g class="st7">
	<path d="M489.5,45.4l-2.4-0.5l2.9-13.2l-4.6-1l0.4-1.7c2.7,0.6,4.8,0.4,6-2.2l1.7,0.4L489.5,45.4z"/>
	<path d="M508.1,37.5c1.4-1.4,3-1.7,5-1.3c3.7,0.8,5.5,4,4.5,8.3s-3.9,6.6-7.5,5.7c-2-0.4-3.2-1.4-4-3.2l-1.6,7l-2.2-0.5l4.1-18.4
		l2.1,0.5L508.1,37.5z M507.1,42.2c-0.7,3.2,0.4,5.5,3,6.1c2.5,0.6,4.5-1.1,5.2-4.3s-0.4-5.5-3-6.1C509.8,37.4,507.8,39,507.1,42.2z
		"/>
	<path d="M530.6,54.4c-0.5,0.1-1.1,0-1.6-0.1c-1.2-0.3-1.8-1.1-1.5-2.4c-1.6,1.2-3.2,1.5-5.3,1c-2.6-0.6-3.9-2.4-3.4-4.7
		c0.5-2.4,2.4-3.4,5.6-3.1c3.3,0.3,4.3,0.6,4.7-1.2c0.3-1.4-0.6-2.4-2.5-2.9c-2-0.5-3.3,0.1-3.9,2l-2.1-0.5c0.7-2.8,3.1-4,6.6-3.3
		c1.8,0.4,3.2,1.2,3.9,2.2c0.7,1.1,0.4,2.5,0.1,3.7c-0.4,2-1,3.9-1.4,5.9c-0.2,1-0.1,1.4,0.6,1.5c0.2,0,0.3,0,0.6,0L530.6,54.4z
		 M525.5,46.9c-1.6-0.1-3.9-0.4-4.3,1.7c-0.3,1.4,0.5,2.4,2.2,2.8c2.1,0.5,4.4-0.5,4.7-2.2l0.5-2.4C527.6,47.2,526.5,47,525.5,46.9z
		"/>
	<path d="M544.5,56.1c-0.5,2.3-1,3.3-1.8,4.2c-1.3,1.4-3.3,1.8-5.8,1.3c-2.7-0.6-5-2.1-4.7-5.2l2.2,0.5c-0.1,1.6,0.9,2.5,2.9,3
		c2.7,0.6,4.2-0.4,4.9-3.5l0.4-1.6c-1.2,1.5-2.8,1.9-4.8,1.5c-3.6-0.8-5.3-3.9-4.4-8.1c0.8-3.6,3.6-6.6,7.5-5.7
		c1.8,0.4,3.2,1.6,3.7,3.2l0.4-1.9l2,0.4L544.5,56.1z M535.7,48.7c-0.7,2.9,0.5,5.2,2.8,5.7c2.4,0.5,4.4-1.1,5.1-4.3
		c0.7-3-0.4-5.2-2.9-5.7C538.3,43.9,536.4,45.5,535.7,48.7z"/>
	<path d="M552.9,59.9c-3.9-0.9-5.7-4-4.7-8.3s4.1-6.7,7.8-5.8c4.4,1,5.3,4.8,4.4,8.7l-0.1,0.3l-10-2.2l-0.1,0.1
		c-0.6,2.8,0.6,4.9,3.1,5.5c1.9,0.4,3.2-0.2,4.2-2l2.1,0.5C558.4,59.5,556.1,60.6,552.9,59.9z M555.5,47.5c-2.1-0.5-4,0.7-4.8,3.2
		l7.7,1.7C558.8,49.9,557.7,48,555.5,47.5z"/>
</g>
<rect x="402.1" y="66.2" transform="matrix(0.2168 -0.9762 0.9762 0.2168 297.1644 507.3353)" class="st8" width="125.3" height="4.6"/>
<rect x="725.7" y="288.3" transform="matrix(0.2168 -0.9762 0.9762 0.2168 256.9437 1003.0484)" class="st6" width="55.7" height="106.2"/>
<g class="st7">
	<path d="M722.9,322.2c3.2,0.7,4.9,3.1,4.3,6c-0.4,1.7-1.6,2.9-3.4,3.3c2,1,2.9,2.9,2.4,5.2c-0.7,3.4-3.8,5.1-7.6,4.2
		c-3.7-0.8-5.6-3.6-4.9-7l0.1-0.3l2.2,0.5c-0.5,2.6,0.6,4.4,3.1,5c2.3,0.5,4.3-0.6,4.7-2.7c0.5-2.1-0.8-3.9-3.3-4.4
		c-0.4-0.1-0.7-0.1-1.2-0.2l0.4-1.9c0.4,0.1,0.5,0.1,0.7,0.2c2.3,0.5,3.9-0.3,4.4-2.2c0.4-1.8-0.6-3.3-2.5-3.7
		c-2.2-0.5-3.8,0.7-4.5,3.2l-2.1-0.5C716.7,323.1,719.3,321.4,722.9,322.2z"/>
	<path d="M739.6,333.1c1.4-1.4,3-1.7,5-1.3c3.7,0.8,5.5,4,4.5,8.3s-3.9,6.6-7.5,5.7c-2-0.4-3.2-1.4-4-3.2l-1.6,7l-2.2-0.5l4.1-18.4
		l2.1,0.5L739.6,333.1z M738.6,337.9c-0.7,3.2,0.4,5.5,3,6.1c2.5,0.6,4.5-1.1,5.2-4.3c0.7-3.2-0.4-5.5-3-6.1
		C741.3,333,739.4,334.6,738.6,337.9z"/>
	<path d="M762.1,350.1c-0.5,0.1-1.1,0-1.6-0.1c-1.2-0.3-1.8-1.1-1.5-2.4c-1.6,1.2-3.2,1.5-5.3,1c-2.6-0.6-3.9-2.4-3.4-4.7
		c0.5-2.4,2.4-3.4,5.6-3.1c3.3,0.3,4.3,0.6,4.7-1.2c0.3-1.4-0.6-2.4-2.5-2.9c-2-0.5-3.3,0.1-3.9,2l-2.1-0.5c0.7-2.8,3.1-4,6.6-3.3
		c1.8,0.4,3.2,1.2,3.9,2.2c0.7,1.1,0.4,2.5,0.1,3.7c-0.4,2-1,3.9-1.4,5.9c-0.2,1-0.1,1.4,0.6,1.5c0.2,0,0.3,0,0.6,0L762.1,350.1z
		 M757,342.6c-1.6-0.1-3.9-0.4-4.3,1.7c-0.3,1.4,0.5,2.4,2.2,2.8c2.1,0.5,4.4-0.5,4.7-2.2l0.5-2.4C759.2,342.8,758,342.6,757,342.6z
		"/>
	<path d="M776,351.7c-0.5,2.3-1,3.3-1.8,4.2c-1.3,1.4-3.4,1.8-5.8,1.3c-2.7-0.6-5-2.1-4.7-5.2l2.2,0.5c-0.1,1.6,0.9,2.5,2.9,3
		c2.7,0.6,4.2-0.4,4.9-3.5l0.4-1.6c-1.2,1.5-2.8,1.9-4.8,1.5c-3.6-0.8-5.3-3.9-4.4-8.1c0.8-3.6,3.6-6.6,7.5-5.7
		c1.8,0.4,3.2,1.6,3.7,3.2l0.4-1.9l2,0.4L776,351.7z M767.2,344.3c-0.7,2.9,0.5,5.2,2.8,5.7c2.4,0.5,4.4-1.1,5.1-4.3
		c0.7-3-0.4-5.2-2.9-5.7C769.8,339.5,768,341.1,767.2,344.3z"/>
	<path d="M784.5,355.5c-3.9-0.9-5.7-4-4.7-8.3s4.1-6.7,7.8-5.8c4.4,1,5.3,4.8,4.4,8.7l-0.1,0.3l-10-2.2l-0.1,0.1
		c-0.6,2.8,0.6,4.9,3.1,5.5c1.9,0.4,3.2-0.2,4.2-2l2.1,0.5C790,355.1,787.6,356.2,784.5,355.5z M787.1,343.2c-2.1-0.5-4,0.7-4.8,3.2
		l7.7,1.7C790.4,345.5,789.3,343.7,787.1,343.2z"/>
</g>
<rect x="621.7" y="371.5" transform="matrix(0.2168 -0.9762 0.9762 0.2168 178.7524 970.4766)" class="st8" width="145.1" height="4.6"/>
<path class="st4" d="M335.4,253c0,0,7.4-10.5,27.3-8.3"/>
<path class="st4" d="M661.1,442.3c0,0,13.8-6.1,30.9,4.7"/>
<path class="st4" d="M439.4,127.4c0,0,14-2.2,22.5,5.2"/>
<path class="st4" d="M259.3,537.5c0,0,1.5-6.3,19.4-5"/>
<path id="_Path_" class="st6" d="M394.5,320.2c-4.2-0.1-6.5-8.8-6.5-8.8l-12,1.3l6,13.6L394.5,320.2z"/>
<path class="st6" d="M379.7,284.1c2.4-0.5,6.4,2.8,7.7,5.7s3.2,8,4.5,7.9c0.6-0.1,1.2-0.1,1.8,0c0.5,0.3,0,1.9-0.7,2.6
	c-1,1.2,3.2,11.1-4,14.8s-15.4,1.5-19-4.4S358,288.6,379.7,284.1z"/>
<path class="st9" d="M360.4,288.5c0.5-3.8,3.1-6.9,6.8-8c6.2-1.8,17,0.3,18.2-2s5.8,2.5,4.4,5.1c-0.9,1.7-2,3.3-3.1,4.9
	c0,0-4.6-2.2-7.7-0.3s-6.8,3.9-8.5,3c0,0,5.5,6.8,2.4,10.4c-0.8,0.9-2.9-0.2-3.1,0.4c-0.8,1.9,2.1,4.7,3.8,6c0,0-2.4,4.7-0.7,5.9
	s-4.2,1.7-8.9-3.4S354,292.8,360.4,288.5z"/>
<ellipse transform="matrix(0.946 -0.3242 0.3242 0.946 -75.2025 141.0413)" class="st10" cx="385.7" cy="296.2" rx="1" ry="1.3"/>
<path class="st3" d="M387.8,304.3c0,0,2.8,2.3,4.2,0.7"/>
<path class="st3" d="M386.7,304.5c-0.1-0.4,0-0.8,0.3-1.1"/>
<path class="st11" d="M381.2,295.1c0,0,1.9-2.7,4.3-3.2"/>
<path class="st3" d="M383.4,297.2c0.4-1.2,1.3-2.2,2.6-2.6"/>
<polygon class="st12" points="410.7,293.4 416.7,293.4 415.3,322.9 397,332.4 "/>
<path class="st12" d="M469,267.4L448.6,308l-27.3,24c0,0,6,31.7,6,34.7s-4.7,11-4.7,11l-31,19l-22-59l10-18l29.3-3l28-21l26-31.7
	L469,267.4z"/>
<path class="st12" d="M391.7,396.7l-2.3,58.3l-26.7,58l9.7,5l38.3-56.7l6-49L455,389l14,49.3l9.6-4l-8.9-67.9
	c-0.4-2.5-2.7-4.3-5.3-4c-0.3,0-0.7,0.1-1,0.2l-40.9,15L391.7,396.7z"/>
<polygon class="st9" points="372.3,518 369.2,528.5 373.4,535.7 362.7,535 357.9,526.5 362.7,513 "/>
<polygon class="st9" points="478.7,434.4 480.7,437 497.2,432.7 499.7,438.7 473.7,449 469,438.4 "/>
<path class="st6" d="M410.7,293.4c0,0-1.7-7.8,0-10.8s6.2-5.2,7.3-4.3s-2.1,5.8-2.1,7.5s2,5.3,0.8,7.7L410.7,293.4z"/>
<path class="st6" d="M414.1,288.1c0,0-0.3-5.1,1.2-4.2s1.8,8.3,1.8,8.3"/>
<path class="st6" d="M463,264c0,0,0.9-7.3,1.8-7.2s1.2,1.9,1.2,1.9s5.1-7.2,7.8-6.8c4.3,0.7-2.5,13.3-4.8,15.5L463,264z"/>
<path class="st13" d="M395.3,318.7c0,0,28.4,27,28.1,54.4c-0.2,16.3-24.7,24.4-35.7,27.5c-9.6,2.8-26.6-9.1-34.8-59.6L395.3,318.7z"
	/>
<path class="st13" d="M422.2,378.9c-15.2-0.5-30.5-61.1-30.5-61.1"/>
<path class="st14" d="M341.7,338l53.6-31.1c0,0,8.1-1.4,12.2,7.8s-1.4,15.2-1.4,15.2l-55.4,32.2c0,0-7.3,0.4-11.2-8.6
	C337.2,348.3,338.1,342.3,341.7,338z"/>
<path class="st14" d="M395.3,306.9c0,0-7.2,3.7-1.3,15c3.9,7.5,8.5,9.3,12.1,8"/>
<path class="st3" d="M408.7,324.5c0,0,0.9-6.1-1.1-9.8s-6.9-5-9.9-4.2c-5.6,1.6-2.3,8.2,0.1,11c1.3,1.5,5.7,5,7.9,2.2
	s-4.3-8.5-5.4-6.8s2.9,4.2,2.9,4.2"/>
<path class="st12" d="M412.1,380c0,0-7-11.5-9.2-14.5s-11.8,1.7-13,5c-1.6,4.5,7.4,19.9,7.4,19.9S409.3,388,412.1,380z"/>
<path class="st3" d="M402.9,365.5c0,0-2,10.2,9.2,14.5"/>
<path class="st12" d="M403,369.4c0,0-5.2,7.8-13.2,8.2c0,0-2.5-0.2,0.2-7.1c0,0,1.1-4.1,9-5.9C405,363.2,403,369.4,403,369.4z"/>
<path class="st15" d="M408.3,392.5c-24.1-31.1-26.2-78.1-26.2-78.1c-1.7-0.2-3.3,0.4-4.4,1.7c5.6,48.4,27.6,78,27.6,78
	S408.2,395.2,408.3,392.5z"/>
<rect x="396.3" y="377.4" transform="matrix(0.854 -0.5203 0.5203 0.854 -139.2721 262.6821)" class="st13" width="4.2" height="4.2"/>
<path class="st12" d="M391.3,391.2c0,0-7-11.5-9.2-14.5s-11.8,1.7-13,5c-1.6,4.5,7.4,19.9,7.4,19.9S388.5,399.2,391.3,391.2z"/>
<path class="st3" d="M382.1,376.8c0,0-2,10.2,9.2,14.5"/>
<path class="st12" d="M382.1,380.7c0,0-5.1,7.8-13.1,8.2c0,0-2.5-0.2,0.2-7.1c0,0,1.1-4.1,9-5.9
	C384.2,374.5,382.1,380.7,382.1,380.7z"/>
<path class="st15" d="M386.2,401c-24.1-31.1-25.9-73.8-25.9-73.8c-3.1-0.2-3.7,1.6-3.7,1.6c5.6,48.4,26,72.1,26,72.1
	S384,402.9,386.2,401z"/>
<rect x="375.4" y="388.7" transform="matrix(0.854 -0.5203 0.5203 0.854 -148.2135 253.4871)" class="st13" width="4.2" height="4.2"/>
<path class="st13" d="M421.3,332c0,0,3,28.8,1.9,37.8c0.2,1.9,0.1,3.9-0.1,5.8c0,0,4.8-15,2-47L421.3,332z"/>
<path class="st15" d="M556,211.7c2.2,2.1,13.8,7.7,16.2,24.2c2.7,19,12.8,30.5,12.8,30.5l32,36.8l-6.8,3.8c0,0-34-24.8-40-30.5
	s-15.4-34.8-19.4-34.8s-25.1,26.8-26.3,29s26,44.5,26,44.5l-5.2,5.5c0,0-37.7-41.9-37.8-49.2c-0.1-10,11.7-23,17.8-32.2l2-12.7
	L556,211.7z"/>
<path class="st16" d="M511.2,178.2l-0.2-0.3c0.4-1-0.3-2.1-1-2.9c-0.9-1.1-1.8-2.2-2.8-3.2c0.9-2.5,2.4-4.7,4.5-6.4
	c0.7-0.6,1.3-0.8,1.8,0s1,1.5,1.5,2.1c1.1,1.3,2.4,2.5,3.8,3.4c0.1,0.1,0.3,0.2,0.3,0.3s0,0.3,0,0.4c-0.2,1.6-0.6,3.3-1.2,4.8
	c-0.2,0.5-0.5,1-0.9,1.5c-1.2,1.7-3.6,2-5.3,0.7C511.6,178.6,511.4,178.4,511.2,178.2z"/>
<path d="M516.4,179c-1.7,1.2-4.1,0.9-5.4-0.7l-0.3-0.4v-0.1c0.4-0.9-0.3-2-0.9-2.7c-0.9-1.1-1.8-2.1-2.8-3.1l-0.1-0.1v-0.1
	c0.9-2.5,2.4-4.8,4.5-6.4c0.5-0.4,0.9-0.6,1.2-0.6c0.4,0.1,0.7,0.3,0.9,0.6c0.2,0.2,0.3,0.5,0.5,0.7c0.3,0.5,0.7,1,1.1,1.5
	c1.1,1.3,2.4,2.4,3.8,3.4c0.2,0.1,0.3,0.2,0.4,0.4c0.1,0.2,0.1,0.4,0,0.6c-0.2,1.6-0.6,3.3-1.2,4.8c-0.2,0.6-0.5,1.1-0.9,1.6
	C516.9,178.5,516.7,178.8,516.4,179z M511.3,178.1c0.7,0.9,1.7,1.4,2.8,1.3c1.1,0,2.2-0.5,2.8-1.4c0.4-0.5,0.6-0.9,0.9-1.5
	c0.6-1.5,1-3.1,1.2-4.8c0-0.1,0-0.3,0-0.4c-0.1-0.1-0.2-0.2-0.3-0.2c-1.5-1-2.8-2.1-3.9-3.4c-0.4-0.5-0.8-1-1.1-1.5l-0.5-0.7
	c-0.1-0.2-0.4-0.4-0.6-0.5c-0.2,0-0.5,0.1-1,0.5c-2,1.6-3.5,3.8-4.4,6.2c1,1,1.9,2,2.8,3.1c0.6,0.8,1.4,1.9,1,3L511.3,178.1z"/>
<path class="st15" d="M512,205.3c3.5,8.7,16.3-1.3,15.1,21.2l28.8-14.8c-0.3,1.1-6.9-9.4-8.5-18.8c-0.9-5.2-6.3-20.3-14.8-26.8
	s-11.8-14.3-16.2-20.1s-19.8-25-19.8-25l-4.3,2c0,0,23.3,42.5,25.5,46.8s-6.7,6.4-12.4,12.7s-7,7-10.5,21.5s-16.8,40-19.8,44.5
	l5,1.8c0,0,12.8-13.5,18.2-24.8s11.8-22.6,11.8-22.6C511,203.5,511.6,204.4,512,205.3z"/>
<path class="st9" d="M550.6,315.2l7.8,7.8l-1.1,1.1l-4.1-2.4l1.2,5.3L543,338.5c3.5-5.3,4.3-12,2.4-18L550.6,315.2z"/>
<path class="st9" d="M617.1,303.1l5.6,9.5l-1.4,0.8L618,310l-0.1,5.5l-13.9,8.3c4.7-4.3,7.2-10.5,6.8-16.9L617.1,303.1z"/>
<g id="Layer_7-2">
	<path class="st10" d="M503.3,173.9c-12.5-2.5-14.5-15.9-14.5-15.9c-1.5-8.4,5.2-14,5.2-14c7.2-6.4,16.4-5.7,16.4-5.7
		s24-2.4,42.4,37.4c1.1,2.6,3.8,4.3,6.7,4.1c-5.7,5.3-15.3,10.2-23,8.8c-13-2.4-17-6.5-21.3-11.3c-5.2-5.7-14.5-22.3-14.1-30.5"/>
	<path class="st6" d="M513.8,168.5c-1.4,2.6-3.7,5.4-6.6,5.9c-2.1,0.3-4.3-0.2-6-1.5c-1.9-1.4-3.7-2.9-5.3-4.7c-1.1-1-2-2.2-2.8-3.4
		c-1.1-1.9-1.8-4-2.1-6.1c-0.3-3.6,0.4-7.2,2.2-10.3c1.1-1.6,2.6-3,4.2-4.1c1.1-1,2.4-1.7,3.8-2.3c1.2-0.4,2.4-0.6,3.7-0.5
		c3.5,0,6.9,1.3,9.5,3.6C521.1,151.3,517.6,161.6,513.8,168.5z"/>
	<path class="st9" d="M490.6,162.5c-1.4-7,5.3-10.6,5.3-10.6c3.1-1.3,5.1-5.1,5.1-5.1c0.4,8.6,10.9,26.4,10.9,26.4l9.5-16l-4.4-13
		l-10.5-4l-6.9,1.3l-2.4,1.3l-7.2,8.6L490.6,162.5z"/>
	<path class="st16" d="M505,157c-0.3,0.2-0.7,0.3-1,0.2s-0.7-0.3-1-0.4c-0.2-0.1-0.5-0.2-0.8-0.2c-0.3-0.1-0.5-0.1-0.8-0.1
		c-0.7,0.1-1.3,0.6-1.6,1.2c-0.3,0.6-0.6,1.3-0.7,2"/>
	<path d="M499.2,159.6h-0.3c0.1-0.7,0.4-1.4,0.7-2c0.4-1,1.6-1.5,2.6-1.2c0.3,0.1,0.5,0.1,0.8,0.3s0.7,0.3,1,0.4
		c0.3,0.1,0.6,0,0.9-0.2l0.2,0.2c-0.3,0.3-0.8,0.3-1.2,0.2c-0.4-0.1-0.7-0.3-1-0.4c-0.2-0.1-0.5-0.2-0.7-0.2
		c-0.2-0.1-0.5-0.1-0.8-0.1c-0.6,0.1-1.2,0.5-1.5,1.1C499.5,158.4,499.3,159,499.2,159.6z"/>
	<path d="M495,160.4l-0.8-0.4c-0.6-0.3-1.2-0.5-1.9-0.4c-0.5,0.2-0.9,0.6-1.3,1c-0.4,0.5-1.1,0.7-1.7,0.6l0.1-0.3
		c0.5,0.1,1-0.1,1.4-0.5s0.9-0.8,1.4-1l0,0c0.7-0.1,1.5,0,2.1,0.4l0.8,0.4L495,160.4z"/>
	<path d="M503.7,154.5c-2-0.7-4.2,0.1-5.4,1.9l-0.3-0.2c1.2-1.9,3.6-2.7,5.8-2L503.7,154.5z"/>
	<path d="M494.7,157.2c-1.3-0.7-2.9-0.6-4.1,0.2l-0.2-0.3c1.3-0.9,3-0.9,4.4-0.3L494.7,157.2z"/>
	<path class="st16" d="M499.1,165.1c-0.6-0.1-1.2-0.2-1.8-0.3c-0.1,0-0.3-0.1-0.4-0.2c-0.2-0.3-0.3-0.6-0.2-1l0.2-1.9"/>
	<path d="M499.1,165.2c-0.6-0.1-1.2-0.2-1.8-0.3c-0.2,0-0.3-0.1-0.5-0.2c-0.3-0.3-0.4-0.7-0.3-1.1l0.2-1.9h0.3l-0.2,1.9
		c0,0.3,0,0.7,0.2,0.9c0.1,0.1,0.2,0.1,0.3,0.1c0.6,0.1,1.2,0.2,1.8,0.3V165.2z"/>
	<path class="st16" d="M502.9,170.4c-0.4,0.2-0.7,0.5-1,0.8c-0.1,0.1-0.2,0.2-0.3,0.4c-0.5,0.3-1.2,0.2-1.5-0.2
		c-0.4-0.5-0.7-0.9-1-1.4c-0.3-0.4-0.7-0.7-1-1.1c-0.1-0.1-0.1-0.2-0.1-0.4c0-0.3,0.3-0.4,0.5-0.5c1.8-0.5,3.6-0.6,5.5-0.3
		c0.1,0,0.1,0,0.2,0.1c0.3,0.2,0,1.1-0.2,1.4C503.7,169.6,503.3,170,502.9,170.4z"/>
	<path d="M501.4,171.9c-0.5,0.2-1.1,0-1.5-0.4c-0.4-0.5-0.7-0.9-1-1.4c-0.1-0.2-0.3-0.3-0.4-0.4c-0.2-0.2-0.4-0.4-0.5-0.6
		c-0.1-0.1-0.2-0.3-0.1-0.5c0-0.3,0.2-0.5,0.7-0.6c1.8-0.5,3.7-0.6,5.5-0.3c0.1,0,0.2,0,0.2,0.1c0.5,0.4-0.1,1.6-0.1,1.6
		c-0.3,0.5-0.7,1-1.2,1.4l0,0c-0.3,0.2-0.7,0.5-0.9,0.8c-0.1,0.1-0.2,0.3-0.3,0.4C501.6,171.8,501.5,171.8,501.4,171.9z
		 M498.5,168.1c-0.2,0.1-0.4,0.2-0.4,0.3s0,0.2,0.1,0.3c0.1,0.2,0.3,0.4,0.5,0.6c0.2,0.2,0.3,0.3,0.4,0.5c0.3,0.5,0.6,1,1,1.4
		c0.3,0.4,0.9,0.5,1.3,0.2c0.1-0.1,0.2-0.2,0.3-0.3c0.3-0.3,0.6-0.6,1-0.9c0.5-0.3,0.8-0.8,1.1-1.3c0.2-0.4,0.4-1.1,0.2-1.2l0,0
		C502.2,167.5,500.4,167.6,498.5,168.1L498.5,168.1z"/>
	<path class="st17" d="M500.6,172.4c0.6,0.1,1.2-0.1,1.6-0.4c0.5-0.4,0.9-0.8,1.2-1.3c0.3-0.4,0.5-0.7,0.7-1.1
		c0.2-0.3,0.4-0.6,0.5-0.9c0.1-0.3,0.1-0.7-0.1-1c-0.3,0.7-0.7,1.3-1.2,1.8c-0.6,0.7-1.5,1.3-2.4,1.5c-0.3,0.1-0.9,0-1,0.4
		S500.2,172.3,500.6,172.4z"/>
	<path d="M501.8,172.4c-0.4,0.2-0.8,0.2-1.2,0.1l0,0c-0.3-0.1-0.6-0.3-0.8-0.6c-0.1-0.2-0.1-0.4-0.1-0.6c0.1-0.4,0.6-0.4,0.9-0.5
		h0.3c0.9-0.2,1.7-0.8,2.4-1.5c0.5-0.5,0.9-1.1,1.2-1.8l0.1-0.3l0.1,0.3c0.2,0.3,0.2,0.7,0.1,1.1c-0.1,0.4-0.3,0.7-0.5,1l0,0
		c-0.2,0.4-0.5,0.7-0.7,1.1c-0.3,0.5-0.7,0.9-1.2,1.3C502.2,172.2,502,172.3,501.8,172.4z M500.6,172.2c0.5,0.1,1.1-0.1,1.5-0.4
		c0.4-0.3,0.8-0.8,1.1-1.2c0.2-0.4,0.5-0.7,0.7-1.1v-0.1c0.2-0.3,0.3-0.6,0.5-0.9c0-0.2,0-0.3,0-0.5c-0.3,0.5-0.7,1.1-1.1,1.5
		c-0.7,0.8-1.5,1.3-2.5,1.6h-0.3c-0.3,0-0.5,0.1-0.6,0.3c0,0.1,0,0.2,0.1,0.3C500.1,172,500.3,172.1,500.6,172.2L500.6,172.2z"/>
	<path class="st17" d="M497.5,167.9c1-0.8,2.2-1.2,3.4-1.1c1.2,0.1,2.4,0.3,3.5,0.6c0.1,0,0.1,0.1,0.2,0.1s-0.1,0.1-0.1,0.1
		c-1.1,0.4-2.2,0.5-3.4,0.4c-0.9,0.1-1.8,0.3-2.7,0.7C497.7,169.2,496.6,168.7,497.5,167.9z"/>
	<path d="M504.3,168c-0.8,0.2-1.6,0.4-2.4,0.3c-0.3,0-0.6,0-0.9,0c-0.9,0.1-1.8,0.3-2.6,0.7c-0.5,0.2-1,0.1-1.4-0.3
		c-0.1-0.1-0.2-0.5,0.3-0.9l0,0c1-0.8,2.2-1.2,3.5-1.1c1.2,0.1,2.4,0.3,3.6,0.6c0.2,0,0.3,0.1,0.3,0.3c0,0.1-0.1,0.3-0.2,0.3
		L504.3,168z M498.7,168.6c0.7-0.3,1.5-0.5,2.3-0.6c0.3,0,0.6,0,0.9,0c0.8,0,1.6-0.1,2.4-0.4c-1.1-0.3-2.3-0.5-3.5-0.6
		c-1.2,0-2.3,0.3-3.3,1.1c-0.1,0.1-0.4,0.4-0.2,0.5c0.3,0.3,0.7,0.3,1,0.2L498.7,168.6z"/>
	
		<ellipse transform="matrix(2.181405e-02 -0.9998 0.9998 2.181405e-02 331.6463 655.7318)" class="st9" cx="500.9" cy="158.4" rx="1.1" ry="0.8"/>
	<path d="M501.2,159.6c-0.1,0-0.2,0.1-0.3,0.1c-0.3,0-0.5-0.2-0.7-0.4s-0.3-0.6-0.3-0.9c0-0.6,0.4-1.1,1-1.2c0.3,0,0.5,0.2,0.7,0.4
		s0.3,0.5,0.3,0.9C501.9,158.9,501.6,159.3,501.2,159.6z M500.7,157.6c-0.3,0.2-0.5,0.5-0.5,0.9c0,0.2,0.1,0.5,0.2,0.7
		s0.3,0.3,0.5,0.3c0.4,0,0.7-0.4,0.7-0.9c0-0.2-0.1-0.5-0.2-0.7s-0.3-0.3-0.5-0.3C500.9,157.5,500.8,157.5,500.7,157.6L500.7,157.6z
		"/>
	
		<ellipse transform="matrix(2.181405e-02 -0.9998 0.9998 2.181405e-02 321.4194 650.7001)" class="st9" cx="493.2" cy="161.1" rx="1.1" ry="0.8"/>
	<path d="M493.6,162.3c-0.1,0-0.2,0.1-0.3,0.1c-0.3,0-0.5-0.2-0.7-0.4s-0.3-0.6-0.3-0.9c0-0.6,0.4-1.1,1-1.2l0,0
		c0.3,0,0.5,0.2,0.7,0.4s0.3,0.6,0.3,0.9C494.3,161.6,494,162.1,493.6,162.3z M493.1,160.3c-0.3,0.2-0.5,0.5-0.5,0.9
		c0,0.2,0.1,0.5,0.2,0.7s0.3,0.3,0.5,0.3c0.4,0,0.7-0.4,0.7-0.9c0-0.2-0.1-0.5-0.2-0.7s-0.3-0.3-0.5-0.3
		C493.2,160.3,493.1,160.3,493.1,160.3L493.1,160.3z"/>
</g>
<path class="st6" d="M492.3,123c0,0-5.4-3.2-5.2-4.1s2.1-0.6,2.1-0.6s-1.9-5.6-0.7-6.2c1.9-1.1,3.3,0.1,8.1,8.9L492.3,123z"/>
<path class="st6" d="M475.2,248.5c0,0-7.8,2.2-7.5,3.4s3.2,1.3,3.2,1.3s-3.9,6.9-1.9,8.2s11.1-11.1,11.1-11.1L475.2,248.5z"/>
<path class="st12" d="M514.2,183.6c0,0,0.9,31.9,17.7,46.7c10,8.8,28.3-1.7,36.2-6.6c7-4.3,9-21.1-17.1-53.6L514.2,183.6z"/>
<path class="st12" d="M536,232.8c8-9.5-20.4-51.9-20.4-51.9"/>
<path class="st13" d="M555.1,161.7L507,177.2c0,0-5.3,4.1-1.9,11.7s10,7.4,10,7.4l49.8-16c0,0,4.2-4.2,0.9-11.5
	C563.9,164.6,559.8,161.8,555.1,161.7z"/>
<path class="st13" d="M507,177.2c0,0,6.2-2.3,9.8,7.4c2.4,6.4,1,10.3-1.7,11.7"/>
<path class="st3" d="M510.4,194.9c0,0-4.2-2.9-5.3-6.1c-0.9-3.1,0.2-6.4,2.9-8.3c4-2.5,6.3,3.1,6.6,6c0.2,1.7-0.1,6.2-3,6
	s-2.8-7.2-1.2-7s1,4,1,4"/>
<path class="st12" d="M542.2,227.3c0,0-3.1-10.5-3.8-13.5s7.5-6.2,10.1-5.1c3.6,1.4,8,15.4,8,15.4S548.5,230,542.2,227.3z"/>
<path class="st3" d="M538.4,213.8c0,0,7.2,4.4,3.8,13.5"/>
<path class="st12" d="M540.8,216c0,0,7.5,1.1,12.2-3.5c0,0,1.2-1.6-4.4-3.8c0,0-3.1-1.6-8.5,2.2C535.9,213.8,540.8,216,540.8,216z"
	/>
<path class="st18" d="M551.8,231.9c-5.7-31.6-33.1-58.6-33.1-58.6c0.8-1.1,2.1-1.8,3.5-1.7c26.3,29.8,32.2,59.3,32.2,59.3
	S553.5,233.3,551.8,231.9z"/>
<rect x="547.7" y="217.1" transform="matrix(0.9581 -0.2864 0.2864 0.9581 -39.6413 166.5143)" class="st13" width="3.4" height="3.4"/>
<path class="st12" d="M560.4,220.9c0,0-3.1-10.5-3.8-13.5s7.5-6.2,10.1-5.1c3.6,1.4,8,15.4,8,15.4S566.7,223.5,560.4,220.9z"/>
<path class="st3" d="M556.6,207.4c0,0,7.2,4.4,3.8,13.5"/>
<path class="st12" d="M559,209.5c0,0,7.5,1.1,12.2-3.5c0,0,1.2-1.6-4.4-3.8c0,0-3.1-1.6-8.5,2.2C554.1,207.4,559,209.5,559,209.5z"
	/>
<path class="st18" d="M569.1,223.1c-5.7-31.6-30.6-56-30.6-56c1.6-2,3-1.4,3-1.4c26.3,29.8,29.5,55.1,29.5,55.1c0.2,1-0.5,2-1.5,2.2
	C569.4,223.1,569.2,223.1,569.1,223.1z"/>
<rect x="565.9" y="210.6" transform="matrix(0.9581 -0.2864 0.2864 0.9581 -37.0169 171.454)" class="st13" width="3.4" height="3.4"/>
<path class="st12" d="M518,209.7c2,10.5,10.8,17.6,10.8,17.6l3,3c-13.1-3-18.5-23-18.5-23S516.3,209.6,518,209.7z"/>
</svg>
