<svg version="1.1" id="Layer_1" xmlns="http://www.w3.org/2000/svg" x="0" y="0" viewBox="0 0 842 678.1" xml:space="preserve"><style>.st0{fill:#fff}.st1,.st2{fill:#fff;stroke:#000;stroke-width:.5;stroke-miterlimit:10}.st2{fill:#0077bf}.st3{fill:#bcbcbc}.st4{fill:#eb058c;stroke:#000;stroke-width:.5;stroke-miterlimit:10}.st6{fill:#c6c6c6}.st10{enable-background:new}.st11{fill:none;stroke:#000;stroke-width:.75;stroke-miterlimit:10}.st12{fill:#d8d8d8}.st13{fill:none;stroke:#000;stroke-width:.5;stroke-miterlimit:10}</style><path class="st0" d="M278.6 575.7s-142.8 60.6-241.2-81.2c0 0-129.4-197.6 93.3-387.6 0 0 93.4-102.6 289.9-106.9C490.4-1.5 624.4 23.8 711 111.5c0 0 101.1 102.6 122.5 232.4 14.2 86.3 34.8 284-160.8 332.2 0 0-120.5 21.2-156.7-72.4-.1 0-46.5-148.5-237.4-28z" id="Layer_6"/><path class="st1" d="M282.2 262.5h305.6c2.6 0 4.8 2.1 4.8 4.8v201.2c0 2.6-2.1 4.8-4.8 4.8H282.2c-2.6 0-4.8-2.1-4.8-4.8V267.2c.1-2.6 2.2-4.7 4.8-4.7z"/><path class="st2" d="M282.2 262.5h305.6c2.6 0 4.8 2.1 4.8 4.8v16.3H277.5v-16.3c0-2.7 2.1-4.8 4.7-4.8z"/><circle class="st1" cx="290" cy="272.6" r="5.6"/><circle class="st1" cx="305.7" cy="272.6" r="5.6"/><circle class="st1" cx="321.4" cy="272.6" r="5.6"/><path class="st1" d="M560.3 380H457.9c-7.4 0-13.3-6-13.3-13.3v-49.3c0-7.4 6-13.3 13.3-13.3h102.3c7.4 0 13.3 6 13.3 13.3v49.3c.1 7.3-5.9 13.3-13.2 13.3z"/><path class="st2" d="M444.6 316.8v-3.3c0-5.2 4.2-9.4 9.4-9.4h110.2c5.2 0 9.4 4.2 9.4 9.4v3.3h-129z"/><circle class="st1" cx="562.2" cy="310.4" r="1.9"/><circle class="st1" cx="556.5" cy="310.4" r="1.9"/><circle class="st1" cx="550.9" cy="310.4" r="1.9"/><path class="st3" d="M450.6 327.6h117.1v5.6H450.6zM450.6 337.5h117.1v5.6H450.6zM450.6 347.4h117.1v5.6H450.6zM450.6 357.2h117.1v5.6H450.6z"/><path class="st1" d="M310.2 304.1H424c7.4 0 13.3 6 13.3 13.3v49.1c0 7.4-6 13.3-13.3 13.3H310.2c-7.4 0-13.3-6-13.3-13.3v-49.1c0-7.4 6-13.3 13.3-13.3z"/><path class="st4" d="M437.4 365.8v3.9c0 5.6-4.5 10.1-10.1 10.1H307c-5.6 0-10.1-4.5-10.1-10.1v-3.9h140.5z"/><path class="st2" d="M311.3 356l22.6-24.1L348 349l8-5 17.6 12 27.2-18.6 19.6 19.6z"/><circle cx="378.6" cy="328.2" r="7.3" fill="#ffe600" stroke="#000" stroke-width=".5" stroke-miterlimit="10"/><path class="st1" d="M462.3 393.8h97.5c7.4 0 13.4 6 13.4 13.4v41.2c0 7.4-6 13.4-13.4 13.4h-97.5c-7.4 0-13.4-6-13.4-13.4v-41.2c0-7.4 6-13.4 13.4-13.4z"/><path class="st2" d="M502.8 419.4h-1.2v12.8c0 2-1.2 3.8-3.5 3.8h-22.9v.6c0 1.8 2 3.5 4.1 3.5h17.5l6.7 3.9-1-3.9h.3c2.1 0 3-1.8 3-3.5v-14.2c.2-1.5-.9-2.9-2.4-3h-.6z"/><path class="st2" d="M494.7 410.5h-26.5c-2.3 0-5 2.1-5 4.1v16.1c0 1.8 2.3 3.2 4.5 3.4l-1.4 5.4 9.1-5.4h19.4c2.3 0 4.5-1.4 4.5-3.4v-16.1c-.1-2-2.2-4.1-4.6-4.1zm-22.5 13.6c-1.3 0-2.4-1.1-2.4-2.4 0-1.3 1.1-2.4 2.4-2.4s2.4 1.1 2.4 2.4c0 1.3-1.1 2.4-2.4 2.4zm9 0c-1.3 0-2.4-1.1-2.4-2.4 0-1.3 1.1-2.4 2.4-2.4 1.3 0 2.4 1.1 2.4 2.4 0 1.3-1.1 2.4-2.4 2.4zm9 0c-1.3 0-2.4-1.1-2.4-2.4 0-1.3 1.1-2.4 2.4-2.4 1.3 0 2.4 1.1 2.4 2.4 0 1.3-1.1 2.4-2.4 2.4z"/><path class="st4" d="M538 426zm19.9-11.5v20.8c0 2.3-2.1 4.1-4.7 4.1h-9.3l-5.8 6.2-5.8-6.1H523c-2.4.1-4.5-1.7-4.7-4.1v-20.8c.2-2.4 2.3-4.3 4.7-4.1h30.4c2.4-.1 4.5 1.8 4.5 4zm-10.3 8.7c0-2.9-2.3-5.2-5.2-5.2-1.8 0-3.4.9-4.4 2.4-1.5-2.4-4.7-3.1-7.2-1.6s-3.1 4.7-1.6 7.2c.2.3.4.5.6.7l7.8 7.2 8.1-6.8c1.2-.9 1.9-2.4 1.9-3.9z"/><path class="st6" d="M296.9 395.4h140.5v7.9H296.9zM296.9 410h140.5v7.9H296.9zM296.9 424.6h140.5v7.9H296.9zM296.9 439.3h140.5v7.9H296.9zM296.9 453.9h140.5v7.9H296.9z"/><text transform="translate(301.97 249.04)" letter-spacing="-5" font-size="46.28" font-family="HelveticaNeueCyr-Roman">Y</text><g class="st10"><path d="M351.7 237c0 8.1-4.2 12.8-11.5 12.8s-11.7-4.7-11.7-12.6 4.5-12.7 11.7-12.7c7.3 0 11.5 4.5 11.5 12.5zm-19.1.1c0 5.9 2.8 9.3 7.6 9.3 4.6 0 7.4-3.5 7.4-9.4 0-5.7-2.9-9.3-7.5-9.3s-7.5 3.7-7.5 9.4zM376.2 249h-3.7v-3.7c-2.1 3-4.7 4.4-8.2 4.4-5 0-8-2.8-8-8.1v-16.4h3.9v15.4c0 3.4 1 5.7 5 5.7 5.2 0 7-3.7 7-8.6v-12.5h3.9V249zM394.5 228.7h-1c-6.5 0-7.6 5-7.6 10.3v10H382v-23.9h3.7v5.1c1.7-4 4.6-5.7 8.8-5.7v4.2zM412.5 225.2l5.5 19.7 4.9-19.7h4.3l5 19.7 5.4-19.7h4.1L434 249h-4.2l-4.9-18.9L420 249h-4.3l-7.7-23.9h4.5zM455.4 249.8c-7 0-11.2-4.6-11.2-12.4 0-7.7 4.5-13 11.1-13 7.9 0 10.8 6.2 10.8 13.1v.6h-18v.3c0 5.1 2.8 8.1 7.5 8.1 3.4 0 5.3-1.5 6.4-5.1h3.8c-1.2 5.6-4.7 8.4-10.4 8.4zm-.2-22.1c-3.8 0-6.5 2.8-7 7.3H462c-.3-4.6-2.9-7.3-6.8-7.3zM474.2 228.4c1.8-2.7 4.6-3.9 7.9-3.9 6.5 0 10.8 4.9 10.8 12.5 0 7.7-4.4 12.7-11 12.7-3.3 0-6.3-1.2-7.9-4.2v3.5h-3.7v-33h3.9v12.4zm-.2 8.9c0 5.6 2.9 9.2 7.5 9.2 4.4 0 7.3-3.7 7.3-9.4 0-5.6-2.9-9.2-7.3-9.2-5.5-.1-7.5 4.6-7.5 9.4zM511.5 232.1c-.3-3.1-2.5-4.4-5.8-4.4-3 0-4.9 1.2-4.9 3.2 0 2.7 3.1 3.1 6.3 3.8 4 .9 9.3 2.1 9.3 7.3 0 4.6-3.9 7.7-9.9 7.7-6.5 0-10-2.9-10.3-8.3h3.9c.2 3.6 2.7 5 6.5 5 3.5 0 5.8-1.6 5.8-4 0-2.6-2.7-3.2-6-4-4.1-1-9.6-1.5-9.6-7 0-4.3 3.6-7 9.1-7 5.4 0 9.5 2.6 9.5 7.6h-3.9zM525 220.9h-4v-4.8h4v4.8zm0 28.1h-4v-23.9h4V249zM541.4 228.4h-4.8v13.9c0 2.2-.1 3.5 2.6 3.5.8 0 1.3 0 2.1-.1v3.4c-1.2.1-1.8.2-3 .2-6 0-5.7-3-5.7-8.2v-12.7h-4v-3.2h4v-7.1h3.9v7.1h4.8v3.2zM555.7 249.8c-7 0-11.2-4.6-11.2-12.4 0-7.7 4.5-13 11.1-13 7.9 0 10.8 6.2 10.8 13.1v.6h-18v.3c0 5.1 2.8 8.1 7.5 8.1 3.4 0 5.3-1.5 6.4-5.1h3.8c-1.2 5.6-4.7 8.4-10.4 8.4zm-.2-22.1c-3.8 0-6.5 2.8-7 7.3h13.9c-.4-4.6-3-7.3-6.9-7.3z"/></g><path class="st11" d="M502.5 125.9c20.6 0 37.3 16.7 37.3 37.3 0 9.9-3.9 19.4-10.9 26.4"/><path class="st4" d="M522.3 198.7l14.6-6.4-12.8-9.4z"/><path class="st11" d="M365.8 570.3c-20.6 0-37.3-16.7-37.3-37.3 0-9.9 3.9-19.4 10.9-26.4"/><path class="st4" d="M346 497.5l-14.6 6.4 12.8 9.4z"/><path class="st11" d="M190.8 409.9c-13.5-15.5-11.8-39.1 3.7-52.6 7.5-6.5 17.2-9.7 27.1-9"/><path class="st4" d="M232.7 347.1l-14.3-6.8 1.2 15.8z"/><path class="st11" d="M192.8 186.5c11.2-17.3 34.3-22.2 51.5-11 8.3 5.4 14.1 13.8 16.2 23.5"/><path class="st4" d="M264.7 209.5l2.5-15.7-14.8 5.6z"/><path class="st11" d="M673.5 299.8c14.6 14.6 14.5 38.2 0 52.7-7 7-16.5 10.9-26.4 10.9"/><path class="st4" d="M636.1 365.4l14.8 5.7-2.4-15.6z"/><path class="st11" d="M675.5 515.1c-6.8 19.4-28.1 29.6-47.5 22.7-9.3-3.3-17-10.1-21.2-19.1"/><path class="st4" d="M600.2 509.6l1.2 15.9 13.1-9z"/><path class="st1" d="M658.2 401.9H790c2.6 0 4.8 2.1 4.8 4.8V517c0 2.6-2.1 4.8-4.8 4.8H658.2c-2.6 0-4.8-2.1-4.8-4.8V406.6c.1-2.6 2.2-4.7 4.8-4.7z"/><path class="st12" d="M794.7 467.3V517c0 2.6-2.1 4.8-4.8 4.8H658.2c-2.6 0-4.8-2.1-4.8-4.8v-49.7h141.3z"/><path class="st2" d="M658.2 401.9H790c2.6 0 4.8 2.1 4.8 4.8v4.8H653.5v-4.8c0-2.7 2.1-4.8 4.7-4.8z"/><path class="st13" d="M658.2 401.9H790c2.6 0 4.8 2.1 4.8 4.8V517c0 2.6-2.1 4.8-4.8 4.8H658.2c-2.6 0-4.8-2.1-4.8-4.8V406.6c.1-2.6 2.2-4.7 4.8-4.7z"/><circle class="st1" cx="660.8" cy="406.6" r="2.6"/><circle class="st1" cx="668.2" cy="406.6" r="2.6"/><circle class="st1" cx="675.5" cy="406.6" r="2.6"/><path class="st0" d="M713.4 484.6c-2.2 0-4.2-1.2-5.3-3.1-1.6 2.9-5.2 4-8.1 2.5-2-1.1-3.2-3.1-3.2-5.4h1.5c.2 2.5 2.3 4.4 4.8 4.2 2.3-.2 4-1.9 4.2-4.2h1.5c.2 2.5 2.3 4.4 4.8 4.2 2.3-.2 4-1.9 4.2-4.2h1.5c.1 3.3-2.6 6-5.9 6z"/><path class="st0" d="M723.9 484.6c-3.3 0-6-2.7-6-6h1.5c-.2 2.5 1.7 4.6 4.2 4.8s4.6-1.7 4.8-4.2v-.6h1.6c0 3.4-2.7 6-6.1 6 .1 0 .1 0 0 0z"/><path class="st0" d="M734.5 484.6c-3.3 0-6-2.7-6-6h1.5c-.2 2.5 1.7 4.6 4.2 4.8s4.6-1.7 4.8-4.2v-.6h1.5c0 3.4-2.7 6-6 6z"/><path class="st0" d="M745 484.6c-3.3 0-6-2.7-6-6h1.5c-.2 2.5 1.7 4.6 4.2 4.8s4.6-1.7 4.8-4.2v-.6h1.5c0 3.4-2.7 6-6 6zM664.5 489.1h118.8v2.8H664.5zM664.5 494.8h118.8v2.8H664.5zM664.5 500.5h87.3v2.8h-87.3z"/><g class="st10"><path d="M682.8 428.5c3.1 0 6 1.3 6 4.7 0 1.9-1.1 3.5-2.8 4.1 2.3.5 3.6 2.3 3.6 4.8 0 4.4-3.6 5.4-7.2 5.4h-7.8v-19h8.2zm-5.6 8.1h4.5c2.1 0 4.7-.2 4.7-3s-2.2-3-4.4-3h-4.7v6zm0 8.8h5c2.5 0 5-.2 5-3.5s-2.9-3.3-5.4-3.3h-4.6v6.8zM704.7 447.4c-.5.2-1 .3-1.5.3-1.3 0-2-.7-2-2-1.4 1.5-2.9 2.2-5 2.2-2.7 0-4.4-1.5-4.4-3.9 0-2.5 1.6-3.9 4.9-4.3 3.3-.4 4.4-.3 4.4-2.2 0-1.5-1.1-2.3-3.1-2.3-2.1 0-3.2.8-3.4 2.8h-2.2c.1-2.9 2.2-4.7 5.8-4.7 1.8 0 3.4.5 4.3 1.3 1 .9.9 2.3.9 3.6 0 2.1-.1 4.1-.1 6.1 0 1 .2 1.4.9 1.4.2 0 .3 0 .6-.1v1.8zm-6.6-6.2c-1.7.2-3.9.4-3.9 2.6 0 1.4 1 2.3 2.7 2.3 2.1 0 4.2-1.5 4.2-3.2v-2.5c-.9.6-2 .6-3 .8zM712.7 447.9c-4.3 0-6.5-2.9-6.5-7.1 0-4.6 2.6-7.5 6.6-7.5 3.4 0 5.5 1.8 5.8 4.9h-2.3c-.4-1.9-1.6-3-3.5-3-2.6 0-4.3 2.1-4.3 5.4 0 3.4 1.5 5.4 4.1 5.4 2.1 0 3.4-1.3 3.8-3.5h2.3c-.4 3.2-2.6 5.4-6 5.4zM727.3 438.7l5.9 8.8h-2.9l-4.7-7.2-2.2 2v5.2h-2.2v-19h2.2v11.2l6.3-6h3l-5.4 5zM737.4 447.5h-2.3v-19h2.3v19zM743.3 431.3H741v-2.8h2.3v2.8zm0 16.2H741v-13.7h2.3v13.7zM749 435.9c1.1-1.7 2.6-2.5 4.7-2.5 3.4 0 4.6 1.8 4.6 5v9.1H756v-8.1c0-2.2-.1-4-3-4-3 0-3.9 2.2-3.9 5v7.2h-2.3v-13.7h2.1v2zM767.7 438.7l5.9 8.8h-2.9l-4.7-7.2-2.2 2v5.2h-2.2v-19h2.2v11.2l6.3-6h3l-5.4 5z"/></g><path class="st1" d="M78.6 401.9h131.8c2.6 0 4.8 2.1 4.8 4.8V517c0 2.6-2.1 4.8-4.8 4.8H78.6c-2.6 0-4.8-2.1-4.8-4.8V406.6c0-2.6 2.2-4.7 4.8-4.7z"/><path class="st12" d="M215.1 467.3V517c0 2.6-2.1 4.8-4.8 4.8H78.6c-2.6 0-4.8-2.1-4.8-4.8v-49.7h141.3z"/><path class="st2" d="M78.6 401.9h131.8c2.6 0 4.8 2.1 4.8 4.8v4.8H73.8v-4.8c0-2.7 2.2-4.8 4.8-4.8z"/><path class="st13" d="M78.6 401.9h131.8c2.6 0 4.8 2.1 4.8 4.8V517c0 2.6-2.1 4.8-4.8 4.8H78.6c-2.6 0-4.8-2.1-4.8-4.8V406.6c0-2.6 2.2-4.7 4.8-4.7z"/><circle class="st1" cx="81.2" cy="406.6" r="2.6"/><circle class="st1" cx="88.5" cy="406.6" r="2.6"/><circle class="st1" cx="95.9" cy="406.6" r="2.6"/><path class="st0" d="M133.8 484.6c-2.2 0-4.2-1.2-5.3-3.1-1.6 2.9-5.2 4-8.1 2.5-2-1.1-3.2-3.1-3.2-5.4h1.5c-.2 2.5 1.7 4.6 4.2 4.8s4.6-1.7 4.8-4.2v-.6h1.5c-.2 2.5 1.7 4.6 4.2 4.8 2.5.2 4.6-1.7 4.8-4.2v-.6h1.5c.1 3.3-2.6 6-5.9 6z"/><path class="st0" d="M144.3 484.6c-3.3 0-6-2.7-6-6h1.5c-.2 2.5 1.7 4.6 4.2 4.8 2.5.2 4.6-1.7 4.8-4.2v-.6h1.5c.1 3.4-2.6 6-6 6z"/><path class="st0" d="M154.8 484.6c-3.3 0-6-2.7-6-6h1.5c-.2 2.5 1.7 4.6 4.2 4.8 2.5.2 4.6-1.7 4.8-4.2v-.6h1.5c.1 3.4-2.6 6-6 6 .1 0 .1 0 0 0z"/><path class="st0" d="M165.4 484.6c-3.3 0-6-2.7-6-6h1.5c-.2 2.5 1.7 4.6 4.2 4.8 2.5.2 4.6-1.7 4.8-4.2v-.6h1.5c0 3.4-2.7 6-6 6zM84.9 489.1h118.8v2.8H84.9zM84.9 494.8h118.8v2.8H84.9zM84.9 500.5h87.3v2.8H84.9z"/><g class="st10"><path d="M103.2 428.5c3.1 0 6 1.3 6 4.7 0 1.9-1.1 3.5-2.8 4.1 2.3.5 3.6 2.3 3.6 4.8 0 4.4-3.6 5.4-7.2 5.4H95v-19h8.2zm-5.7 8.1h4.5c2.1 0 4.7-.2 4.7-3s-2.2-3-4.4-3h-4.7v6zm0 8.8h5c2.5 0 5-.2 5-3.5s-2.9-3.3-5.4-3.3h-4.6v6.8zM125.1 447.4c-.5.2-1 .3-1.5.3-1.3 0-2-.7-2-2-1.4 1.5-2.9 2.2-5 2.2-2.7 0-4.4-1.5-4.4-3.9 0-2.5 1.6-3.9 4.9-4.3 3.3-.4 4.4-.3 4.4-2.2 0-1.5-1.1-2.3-3.1-2.3-2.1 0-3.2.8-3.4 2.8h-2.2c.1-2.9 2.2-4.7 5.8-4.7 1.8 0 3.4.5 4.3 1.3 1 .9.9 2.3.9 3.6 0 2.1-.1 4.1-.1 6.1 0 1 .2 1.4.9 1.4.2 0 .3 0 .6-.1v1.8zm-6.7-6.2c-1.7.2-3.9.4-3.9 2.6 0 1.4 1 2.3 2.7 2.3 2.1 0 4.2-1.5 4.2-3.2v-2.5c-.8.6-2 .6-3 .8zM133.1 447.9c-4.3 0-6.5-2.9-6.5-7.1 0-4.6 2.6-7.5 6.6-7.5 3.4 0 5.5 1.8 5.8 4.9h-2.3c-.4-1.9-1.6-3-3.5-3-2.6 0-4.3 2.1-4.3 5.4 0 3.4 1.5 5.4 4.1 5.4 2.1 0 3.4-1.3 3.8-3.5h2.3c-.4 3.2-2.6 5.4-6 5.4zM147.7 438.7l5.9 8.8h-2.9l-4.7-7.2-2.2 2v5.2h-2.2v-19h2.2v11.2l6.3-6h3l-5.4 5zM157.8 447.5h-2.3v-19h2.3v19zM163.7 431.3h-2.3v-2.8h2.3v2.8zm0 16.2h-2.3v-13.7h2.3v13.7zM169.3 435.9c1.1-1.7 2.6-2.5 4.7-2.5 3.4 0 4.6 1.8 4.6 5v9.1h-2.3v-8.1c0-2.2-.1-4-3-4-3 0-3.9 2.2-3.9 5v7.2h-2.3v-13.7h2.1v2zM188.1 438.7l5.9 8.8h-2.9l-4.7-7.2-2.2 2v5.2H182v-19h2.2v11.2l6.3-6h3l-5.4 5z"/></g><path class="st1" d="M658.2 186.1H790c2.6 0 4.8 2.1 4.8 4.8v110.4c0 2.6-2.1 4.8-4.8 4.8H658.2c-2.6 0-4.8-2.1-4.8-4.8V190.9c.1-2.6 2.2-4.8 4.8-4.8z"/><path class="st12" d="M794.7 251.6v49.7c0 2.6-2.1 4.7-4.7 4.7H658.2c-2.6 0-4.8-2.1-4.8-4.8v-49.6h141.3z"/><path class="st2" d="M658.2 186.1H790c2.6 0 4.8 2.1 4.8 4.8v4.8H653.5v-4.8c0-2.6 2.1-4.8 4.7-4.8z"/><path class="st13" d="M658.2 186.1H790c2.6 0 4.8 2.1 4.8 4.8v110.4c0 2.6-2.1 4.8-4.8 4.8H658.2c-2.6 0-4.8-2.1-4.8-4.8V190.9c.1-2.6 2.2-4.8 4.8-4.8z"/><circle class="st1" cx="660.8" cy="190.9" r="2.6"/><circle class="st1" cx="668.2" cy="190.9" r="2.6"/><circle class="st1" cx="675.5" cy="190.9" r="2.6"/><path class="st0" d="M713.4 268.9c-2.2 0-4.2-1.2-5.3-3.1-1.6 2.9-5.2 4-8.1 2.5-2-1.1-3.2-3.1-3.2-5.4h1.5c.2 2.5 2.3 4.4 4.8 4.2 2.3-.2 4-1.9 4.2-4.2h1.5c.2 2.5 2.3 4.4 4.8 4.2 2.3-.2 4-1.9 4.2-4.2h1.5c.1 3.3-2.6 6-5.9 6z"/><path class="st0" d="M723.9 268.9c-3.3 0-6-2.7-6-6h1.5c.2 2.5 2.3 4.4 4.8 4.2 2.3-.2 4-1.9 4.2-4.2h1.6c0 3.3-2.7 6-6.1 6 .1 0 .1 0 0 0z"/><path class="st0" d="M734.5 268.9c-3.3 0-6-2.7-6-6h1.5c.2 2.5 2.3 4.4 4.8 4.2 2.3-.2 4-1.9 4.2-4.2h1.5c0 3.3-2.7 6-6 6z"/><path class="st0" d="M745 268.9c-3.3 0-6-2.7-6-6h1.5c.2 2.5 2.3 4.4 4.8 4.2 2.3-.2 4-1.9 4.2-4.2h1.5c0 3.3-2.7 6-6 6zM664.5 273.3h118.8v2.8H664.5zM664.5 279h118.8v2.8H664.5zM664.5 284.7h87.3v2.8h-87.3z"/><g class="st10"><path d="M682.8 212.8c3.1 0 6 1.3 6 4.7 0 1.9-1.1 3.5-2.8 4.1 2.3.5 3.6 2.3 3.6 4.8 0 4.4-3.6 5.4-7.2 5.4h-7.8v-19h8.2zm-5.6 8.1h4.5c2.1 0 4.7-.2 4.7-3s-2.2-3-4.4-3h-4.7v6zm0 8.7h5c2.5 0 5-.2 5-3.5s-2.9-3.3-5.4-3.3h-4.6v6.8zM704.7 231.7c-.5.2-1 .3-1.5.3-1.3 0-2-.7-2-2-1.4 1.5-2.9 2.2-5 2.2-2.7 0-4.4-1.5-4.4-3.9 0-2.5 1.6-3.9 4.9-4.3 3.3-.4 4.4-.3 4.4-2.2 0-1.5-1.1-2.3-3.1-2.3-2.1 0-3.2.8-3.4 2.8h-2.2c.1-2.9 2.2-4.7 5.8-4.7 1.8 0 3.4.5 4.3 1.3 1 .9.9 2.3.9 3.6 0 2.1-.1 4.1-.1 6.1 0 1 .2 1.4.9 1.4.2 0 .3 0 .6-.1v1.8zm-6.6-6.3c-1.7.2-3.9.4-3.9 2.6 0 1.4 1 2.3 2.7 2.3 2.1 0 4.2-1.5 4.2-3.2v-2.5c-.9.6-2 .7-3 .8zM712.7 232.1c-4.3 0-6.5-2.9-6.5-7.1 0-4.6 2.6-7.5 6.6-7.5 3.4 0 5.5 1.8 5.8 4.9h-2.3c-.4-1.9-1.6-3-3.5-3-2.6 0-4.3 2.1-4.3 5.4 0 3.4 1.5 5.4 4.1 5.4 2.1 0 3.4-1.3 3.8-3.5h2.3c-.4 3.3-2.6 5.4-6 5.4zM727.3 223l5.9 8.8h-2.9l-4.7-7.2-2.2 2v5.2h-2.2v-19h2.2V224l6.3-6h3l-5.4 5zM737.4 231.7h-2.3v-19h2.3v19zM743.3 215.5H741v-2.8h2.3v2.8zm0 16.2H741V218h2.3v13.7zM749 220.1c1.1-1.7 2.6-2.5 4.7-2.5 3.4 0 4.6 1.8 4.6 5v9.1H756v-8.1c0-2.2-.1-4-3-4-3 0-3.9 2.2-3.9 5v7.2h-2.3V218h2.1v2.1zM767.7 223l5.9 8.8h-2.9l-4.7-7.2-2.2 2v5.2h-2.2v-19h2.2V224l6.3-6h3l-5.4 5z"/></g><path class="st1" d="M78.6 186.1h131.8c2.6 0 4.8 2.1 4.8 4.8v110.4c0 2.6-2.1 4.8-4.8 4.8H78.6c-2.6 0-4.8-2.1-4.8-4.8V190.9c0-2.6 2.2-4.8 4.8-4.8z"/><path class="st12" d="M215.1 251.6v49.7c0 2.6-2.1 4.8-4.8 4.8H78.6c-2.6 0-4.8-2.1-4.8-4.8v-49.7h141.3z"/><path class="st2" d="M78.6 186.1h131.8c2.6 0 4.8 2.1 4.8 4.8v4.8H73.8v-4.8c0-2.6 2.2-4.8 4.8-4.8z"/><path class="st13" d="M78.6 186.1h131.8c2.6 0 4.8 2.1 4.8 4.8v110.4c0 2.6-2.1 4.8-4.8 4.8H78.6c-2.6 0-4.8-2.1-4.8-4.8V190.9c0-2.6 2.2-4.8 4.8-4.8z"/><circle class="st1" cx="81.2" cy="190.9" r="2.6"/><circle class="st1" cx="88.5" cy="190.9" r="2.6"/><circle class="st1" cx="95.9" cy="190.9" r="2.6"/><path class="st0" d="M133.8 268.9c-2.2 0-4.2-1.2-5.3-3.1-1.6 2.9-5.2 4-8.1 2.5-2-1.1-3.2-3.1-3.2-5.4h1.5c.2 2.5 2.3 4.4 4.8 4.2 2.3-.2 4-1.9 4.2-4.2h1.5c.2 2.5 2.3 4.4 4.8 4.2 2.3-.2 4-1.9 4.2-4.2h1.5c.1 3.3-2.6 6-5.9 6z"/><path class="st0" d="M144.3 268.9c-3.3 0-6-2.7-6-6h1.5c.2 2.5 2.3 4.4 4.8 4.2 2.3-.2 4-1.9 4.2-4.2h1.5c.1 3.3-2.6 6-6 6z"/><path class="st0" d="M154.8 268.9c-3.3 0-6-2.7-6-6h1.5c.2 2.5 2.3 4.4 4.8 4.2 2.3-.2 4-1.9 4.2-4.2h1.5c.1 3.3-2.6 6-6 6 .1 0 .1 0 0 0z"/><path class="st0" d="M165.4 268.9c-3.3 0-6-2.7-6-6h1.5c.2 2.5 2.3 4.4 4.8 4.2 2.3-.2 4-1.9 4.2-4.2h1.5c0 3.3-2.7 6-6 6zM84.9 273.3h118.8v2.8H84.9zM84.9 279h118.8v2.8H84.9zM84.9 284.7h87.3v2.8H84.9z"/><g class="st10"><path d="M103.2 212.8c3.1 0 6 1.3 6 4.7 0 1.9-1.1 3.5-2.8 4.1 2.3.5 3.6 2.3 3.6 4.8 0 4.4-3.6 5.4-7.2 5.4H95v-19h8.2zm-5.7 8.1h4.5c2.1 0 4.7-.2 4.7-3s-2.2-3-4.4-3h-4.7v6zm0 8.7h5c2.5 0 5-.2 5-3.5s-2.9-3.3-5.4-3.3h-4.6v6.8zM125.1 231.7c-.5.2-1 .3-1.5.3-1.3 0-2-.7-2-2-1.4 1.5-2.9 2.2-5 2.2-2.7 0-4.4-1.5-4.4-3.9 0-2.5 1.6-3.9 4.9-4.3 3.3-.4 4.4-.3 4.4-2.2 0-1.5-1.1-2.3-3.1-2.3-2.1 0-3.2.8-3.4 2.8h-2.2c.1-2.9 2.2-4.7 5.8-4.7 1.8 0 3.4.5 4.3 1.3 1 .9.9 2.3.9 3.6 0 2.1-.1 4.1-.1 6.1 0 1 .2 1.4.9 1.4.2 0 .3 0 .6-.1v1.8zm-6.7-6.3c-1.7.2-3.9.4-3.9 2.6 0 1.4 1 2.3 2.7 2.3 2.1 0 4.2-1.5 4.2-3.2v-2.5c-.8.6-2 .7-3 .8zM133.1 232.1c-4.3 0-6.5-2.9-6.5-7.1 0-4.6 2.6-7.5 6.6-7.5 3.4 0 5.5 1.8 5.8 4.9h-2.3c-.4-1.9-1.6-3-3.5-3-2.6 0-4.3 2.1-4.3 5.4 0 3.4 1.5 5.4 4.1 5.4 2.1 0 3.4-1.3 3.8-3.5h2.3c-.4 3.3-2.6 5.4-6 5.4zM147.7 223l5.9 8.8h-2.9l-4.7-7.2-2.2 2v5.2h-2.2v-19h2.2V224l6.3-6h3l-5.4 5zM157.8 231.7h-2.3v-19h2.3v19zM163.7 215.5h-2.3v-2.8h2.3v2.8zm0 16.2h-2.3V218h2.3v13.7zM169.3 220.1c1.1-1.7 2.6-2.5 4.7-2.5 3.4 0 4.6 1.8 4.6 5v9.1h-2.3v-8.1c0-2.2-.1-4-3-4-3 0-3.9 2.2-3.9 5v7.2h-2.3V218h2.1v2.1zM188.1 223l5.9 8.8h-2.9l-4.7-7.2-2.2 2v5.2H182v-19h2.2V224l6.3-6h3l-5.4 5z"/></g><path class="st1" d="M369.2 537.9H501c2.6 0 4.8 2.1 4.8 4.8V653c0 2.6-2.1 4.8-4.8 4.8H369.2c-2.6 0-4.8-2.1-4.8-4.8V542.6c0-2.6 2.1-4.7 4.8-4.7z"/><path class="st12" d="M505.7 603.3V653c0 2.6-2.1 4.8-4.8 4.8H369.2c-2.6 0-4.8-2.1-4.8-4.8v-49.7h141.3z"/><path class="st2" d="M369.2 537.9H501c2.6 0 4.8 2.1 4.8 4.8v4.8H364.4v-4.8c0-2.7 2.1-4.8 4.8-4.8z"/><path class="st13" d="M369.2 537.9H501c2.6 0 4.8 2.1 4.8 4.8V653c0 2.6-2.1 4.8-4.8 4.8H369.2c-2.6 0-4.8-2.1-4.8-4.8V542.6c0-2.6 2.1-4.7 4.8-4.7z"/><circle class="st1" cx="371.7" cy="542.7" r="2.6"/><circle class="st1" cx="379.1" cy="542.7" r="2.6"/><circle class="st1" cx="386.5" cy="542.7" r="2.6"/><path class="st0" d="M424.4 620.7c-2.2 0-4.2-1.2-5.3-3.1-1.6 2.9-5.2 4-8.1 2.5-2-1.1-3.2-3.1-3.2-5.4h1.5c-.2 2.5 1.7 4.6 4.2 4.8s4.6-1.7 4.8-4.2v-.6h1.5c-.2 2.5 1.7 4.6 4.2 4.8s4.6-1.7 4.8-4.2v-.6h1.5c.1 3.2-2.6 5.9-5.9 6z"/><path class="st0" d="M434.9 620.7c-3.3 0-6-2.7-6-6h1.5c-.2 2.5 1.7 4.6 4.2 4.8s4.6-1.7 4.8-4.2v-.6h1.5c0 3.3-2.7 6-6 6z"/><path class="st0" d="M445.4 620.7c-3.3 0-6-2.7-6-6h1.5c-.2 2.5 1.7 4.6 4.2 4.8s4.6-1.7 4.8-4.2v-.6h1.5c.1 3.3-2.6 6-6 6z"/><path class="st0" d="M455.9 620.7c-3.3 0-6-2.7-6-6h1.5c.2 2.5 2.3 4.4 4.8 4.2 2.3-.2 4-1.9 4.2-4.2h1.5c.1 3.3-2.6 6-6 6 .1 0 .1 0 0 0zM375.5 625.1h118.9v2.8H375.5zM375.5 630.8h118.9v2.8H375.5zM375.5 636.5h87.3v2.8h-87.3z"/><g class="st10"><path d="M393.8 564.5c3.1 0 6 1.3 6 4.7 0 1.9-1.1 3.5-2.8 4.1 2.3.5 3.6 2.3 3.6 4.8 0 4.4-3.6 5.4-7.2 5.4h-7.8v-19h8.2zm-5.7 8.1h4.5c2.1 0 4.7-.2 4.7-3 0-2.9-2.2-3-4.4-3h-4.7v6zm0 8.8h5c2.5 0 5-.2 5-3.5s-2.9-3.3-5.4-3.3h-4.6v6.8zM415.7 583.4c-.5.2-1 .3-1.5.3-1.3 0-2-.7-2-2-1.4 1.5-2.9 2.2-5 2.2-2.7 0-4.4-1.5-4.4-3.9 0-2.5 1.6-3.9 4.9-4.3 3.3-.4 4.4-.3 4.4-2.2 0-1.5-1.1-2.3-3.1-2.3-2.1 0-3.2.8-3.4 2.8h-2.2c.1-2.9 2.2-4.7 5.8-4.7 1.8 0 3.4.5 4.3 1.3 1 .9.9 2.3.9 3.6 0 2.1-.1 4.1-.1 6.1 0 1 .2 1.4.9 1.4.2 0 .3 0 .6-.1v1.8zm-6.7-6.2c-1.7.2-3.9.4-3.9 2.6 0 1.4 1 2.3 2.7 2.3 2.1 0 4.2-1.5 4.2-3.2v-2.5c-.8.6-2 .6-3 .8zM423.7 583.9c-4.3 0-6.5-2.9-6.5-7.1 0-4.6 2.6-7.5 6.6-7.5 3.4 0 5.5 1.8 5.8 4.9h-2.3c-.4-1.9-1.6-3-3.5-3-2.6 0-4.3 2.1-4.3 5.4 0 3.4 1.5 5.4 4.1 5.4 2.1 0 3.4-1.3 3.8-3.5h2.3c-.5 3.2-2.6 5.4-6 5.4zM438.2 574.7l5.9 8.8h-2.9l-4.7-7.2-2.2 2v5.2h-2.2v-19h2.2v11.2l6.3-6h3l-5.4 5zM448.3 583.5H446v-19h2.3v19zM454.3 567.3H452v-2.8h2.3v2.8zm0 16.2H452v-13.7h2.3v13.7zM459.9 571.9c1.1-1.7 2.6-2.5 4.7-2.5 3.4 0 4.6 1.8 4.6 5v9.1h-2.3v-8.1c0-2.2-.1-4-3-4-3 0-3.9 2.2-3.9 5v7.2h-2.3v-13.7h2.1v2zM478.7 574.7l5.9 8.8h-2.9l-4.7-7.2-2.2 2v5.2h-2.2v-19h2.2v11.2l6.3-6h3l-5.4 5z"/></g><path class="st1" d="M369.2 38.7H501c2.6 0 4.8 2.1 4.8 4.8v110.4c0 2.6-2.1 4.8-4.8 4.8H369.2c-2.6 0-4.8-2.1-4.8-4.8V43.4c0-2.6 2.1-4.7 4.8-4.7z"/><path class="st12" d="M505.7 104.1v49.7c0 2.6-2.1 4.8-4.8 4.8H369.2c-2.6 0-4.8-2.1-4.8-4.8v-49.7h141.3z"/><path class="st2" d="M369.2 38.7H501c2.6 0 4.8 2.1 4.8 4.8v4.8H364.4v-4.8c0-2.7 2.1-4.8 4.8-4.8z"/><path class="st13" d="M369.2 38.7H501c2.6 0 4.8 2.1 4.8 4.8v110.4c0 2.6-2.1 4.8-4.8 4.8H369.2c-2.6 0-4.8-2.1-4.8-4.8V43.4c0-2.6 2.1-4.7 4.8-4.7z"/><circle class="st1" cx="371.7" cy="43.5" r="2.6"/><circle class="st1" cx="379.1" cy="43.5" r="2.6"/><circle class="st1" cx="386.5" cy="43.5" r="2.6"/><path class="st0" d="M424.4 121.4c-2.2 0-4.2-1.2-5.3-3.1-1.6 2.9-5.2 4-8.1 2.5-2-1.1-3.2-3.1-3.2-5.4h1.5c.2 2.5 2.3 4.4 4.8 4.2 2.3-.2 4-1.9 4.2-4.2h1.5c.2 2.5 2.3 4.4 4.8 4.2 2.3-.2 4-1.9 4.2-4.2h1.5c.1 3.3-2.6 6-5.9 6z"/><path class="st0" d="M434.9 121.4c-3.3 0-6-2.7-6-6h1.5c.2 2.5 2.3 4.4 4.8 4.2 2.3-.2 4-1.9 4.2-4.2h1.5c0 3.4-2.7 6-6 6z"/><path class="st0" d="M445.4 121.4c-3.3 0-6-2.7-6-6h1.5c.2 2.5 2.3 4.4 4.8 4.2 2.3-.2 4-1.9 4.2-4.2h1.5c.1 3.4-2.6 6-6 6z"/><path class="st0" d="M455.9 121.4c-3.3 0-6-2.7-6-6h1.5c.2 2.5 2.3 4.4 4.8 4.2 2.3-.2 4-1.9 4.2-4.2h1.5c.1 3.4-2.6 6-6 6 .1 0 .1 0 0 0zM375.5 125.9h118.9v2.7H375.5zM375.5 131.6h118.9v2.8H375.5zM375.5 137.3h87.3v2.8h-87.3z"/><g class="st10"><path d="M393.8 65.3c3.1 0 6 1.3 6 4.7 0 1.9-1.1 3.5-2.8 4.1 2.3.5 3.6 2.3 3.6 4.8 0 4.4-3.6 5.4-7.2 5.4h-7.8v-19h8.2zm-5.7 8.1h4.5c2.1 0 4.7-.2 4.7-3s-2.2-3-4.4-3h-4.7v6zm0 8.8h5c2.5 0 5-.2 5-3.5s-2.9-3.3-5.4-3.3h-4.6v6.8zM415.7 84.2c-.5.2-1 .3-1.5.3-1.3 0-2-.7-2-2-1.4 1.5-2.9 2.2-5 2.2-2.7 0-4.4-1.5-4.4-3.9 0-2.5 1.6-3.9 4.9-4.3 3.3-.4 4.4-.3 4.4-2.2 0-1.5-1.1-2.3-3.1-2.3-2.1 0-3.2.8-3.4 2.8h-2.2c.1-2.9 2.2-4.7 5.8-4.7 1.8 0 3.4.5 4.3 1.3 1 .9.9 2.3.9 3.6 0 2.1-.1 4.1-.1 6.1 0 1 .2 1.4.9 1.4.2 0 .3 0 .6-.1v1.8zM409 78c-1.7.2-3.9.4-3.9 2.6 0 1.4 1 2.3 2.7 2.3 2.1 0 4.2-1.5 4.2-3.2v-2.5c-.8.6-2 .6-3 .8zM423.7 84.7c-4.3 0-6.5-2.9-6.5-7.1 0-4.6 2.6-7.5 6.6-7.5 3.4 0 5.5 1.8 5.8 4.9h-2.3c-.4-1.9-1.6-3-3.5-3-2.6 0-4.3 2.1-4.3 5.4 0 3.4 1.5 5.4 4.1 5.4 2.1 0 3.4-1.3 3.8-3.5h2.3c-.5 3.2-2.6 5.4-6 5.4zM438.2 75.5l5.9 8.8h-2.9l-4.7-7.2-2.2 2v5.2h-2.2v-19h2.2v11.2l6.3-6h3l-5.4 5zM448.3 84.3H446v-19h2.3v19zM454.3 68.1H452v-2.8h2.3v2.8zm0 16.2H452V70.5h2.3v13.8zM459.9 72.7c1.1-1.7 2.6-2.5 4.7-2.5 3.4 0 4.6 1.8 4.6 5v9.1h-2.3v-8.1c0-2.2-.1-4-3-4-3 0-3.9 2.2-3.9 5v7.2h-2.3V70.5h2.1v2.2zM478.7 75.5l5.9 8.8h-2.9l-4.7-7.2-2.2 2v5.2h-2.2v-19h2.2v11.2l6.3-6h3l-5.4 5z"/></g></svg>