<svg version="1.1" id="Layer_1" xmlns="http://www.w3.org/2000/svg" x="0" y="0" viewBox="0 0 881.9 617.2" xml:space="preserve"><style>.st6{fill:#fff;stroke:#000;stroke-width:.5;stroke-linejoin:round}.st10,.st11,.st7,.st8,.st9{fill:#0077bf;stroke:#000;stroke-width:.5;stroke-miterlimit:10}.st10,.st11,.st8,.st9{fill:#fff}.st10,.st11,.st9{fill:#eb058c}.st10,.st11{fill:#ffe600}.st11{fill:#cecece}.st12{fill:#fff}.st13{fill:none;stroke:#000;stroke-width:.5;stroke-miterlimit:10}.st14{enable-background:new}.st15{fill:#c4c4c4}.st18{fill:#b5b5b5}</style><path d="M347.8 547.9s-76.2 131.4-212.1 32.4c0 0-168.9-96.3-79.7-326.4 23.5-60.7 69.9-136.6 200.2-204.2 61-31.6 135.9-68.4 260.4-39C610.3 32.8 751.1 85.4 811.2 255c25.1 70.9 51.5 214-143.8 264.2-33.3 8.6-67.8 14.1-131.1-42 0 0-92.1-93.2-188.5 70.7z" fill="#f5f5f5" id="Layer_6"/><path d="M196.9 507.4c0-4.7 111.4-8.5 234.1-8.5s210.5 3.8 210.5 8.5-87.7 8.4-210.5 8.4-234.1-3.7-234.1-8.4z" fill="#bcbcbc"/><path d="M589.1 493.1v-206c0-9.8-7.9-17.8-17.8-17.8h0-296.6c-9.8 0-17.8 8-17.8 17.8v206h332.2z" fill="#383838" stroke="#000" stroke-width=".5" stroke-miterlimit="10"/><path d="M615.6 505.2H230.5c-8 0-9.2-10.6-9.2-10.6h403.5s-1.2 10.6-9.2 10.6z" fill="#c6c6c6" stroke="#000" stroke-width=".5" stroke-miterlimit="10"/><path fill="#efefef" stroke="#000" stroke-width=".5" stroke-linejoin="round" d="M221.3 490.5h403.5v5.9H221.3z"/><path fill="#bbbdbf" d="M384.1 490.5H462v3.4h-77.9z"/><path class="st6" d="M270 286.1h306.2v193.5H270z"/><path class="st7" d="M270 286.1h306.2v18.5H270z"/><path class="st8" d="M304 341.2h97.1c7.4 0 13.3 6 13.3 13.3v80.1c0 7.4-6 13.3-13.3 13.3H304c-7.4 0-13.3-6-13.3-13.3v-80.1c0-7.3 5.9-13.3 13.3-13.3z"/><path class="st9" d="M414.5 435.6v3.4c0 4.9-4 8.9-8.9 8.9h-106c-4.9 0-8.9-4-8.9-8.9v-3.4h123.8z"/><path class="st7" d="M293.5 429.3l29.8-48.1 14.1 21.8 15.5-10.2 16.3 22.4 19.7-27.9 21.5 43z"/><circle class="st10" cx="368.7" cy="374.6" r="9.6"/><path class="st11" d="M452.6 341.2h85.6c6.6 0 12 5.4 12 12v82.6c0 6.6-5.4 12-12 12h-85.6c-6.6 0-12-5.4-12-12v-82.6c0-6.6 5.4-12 12-12z"/><path class="st12" d="M449 355.4h92.8v5.5H449zM449 365.6h92.8v5.5H449zM449 375.8h92.8v5.5H449zM449 386h92.8v5.5H449zM449 396.2h92.8v5.5H449zM449 407h92.8v5.5H449zM449 417.7h92.8v5.5H449zM449 428.5h92.8v5.5H449z"/><path class="st11" d="M440.6 313.8h109.6v7H440.6zM440.6 325.7h109.6v7H440.6zM291.3 313.8h123.2v7H291.3zM291.3 459.5h123.2v7H291.3zM440.6 459.5h109.6v7H440.6zM291.3 325.7h123.2v7H291.3z"/><circle class="st8" cx="281.7" cy="295.4" r="5"/><circle class="st8" cx="295.5" cy="295.4" r="5"/><circle class="st8" cx="309.4" cy="295.4" r="5"/><path class="st8" d="M305.6 100.4h227c5.5 0 9.9 4.4 9.9 9.9v126.1c0 2.6-2.1 4.8-4.8 4.8H300.5c-2.6 0-4.8-2.1-4.8-4.8V110.3c0-5.4 4.4-9.9 9.9-9.9z"/><path class="st7" d="M305.6 100.4h227c5.5 0 9.9 4.4 9.9 9.9v14.8H295.7v-14.8c0-5.4 4.4-9.9 9.9-9.9z"/><path class="st13" d="M305.6 100.4h227c5.5 0 9.9 4.4 9.9 9.9v126.1c0 2.6-2.1 4.8-4.8 4.8H300.5c-2.6 0-4.8-2.1-4.8-4.8V110.3c0-5.4 4.4-9.9 9.9-9.9z"/><path class="st11" d="M311 137.7h20.2v20.2H311zM343.6 137.7h20.2v20.2h-20.2zM376.3 137.7h20.2v20.2h-20.2zM409 137.7h20.2v20.2H409zM441.6 137.7h20.2v20.2h-20.2zM474.3 137.7h20.2v20.2h-20.2zM507 137.7h20.2v20.2H507zM311 170.7h20.2v20.2H311zM343.6 170.7h20.2v20.2h-20.2zM376.3 170.7h20.2v20.2h-20.2zM409 170.7h20.2v20.2H409zM441.6 170.7h20.2v20.2h-20.2zM474.3 170.7h20.2v20.2h-20.2z"/><path class="st9" d="M507 170.7h20.2v20.2H507z"/><path class="st11" d="M311 203.7h20.2v20.2H311zM343.6 203.7h20.2v20.2h-20.2zM376.3 203.7h20.2v20.2h-20.2zM409 203.7h20.2v20.2H409zM441.6 203.7h20.2v20.2h-20.2zM474.3 203.7h20.2v20.2h-20.2zM507 203.7h20.2v20.2H507z"/><ellipse transform="rotate(-80.781 517.104 180.792)" class="st13" cx="517.1" cy="180.8" rx="20.4" ry="20.4"/><path class="st13" d="M537.5 180.8l43.9-14.9"/><circle class="st8" cx="623.4" cy="152.3" r="57.7"/><g class="st14"><path d="M598.9 121.5c4 0 7.6 1.6 7.6 6 0 2.4-1.4 4.4-3.5 5.1 3 .7 4.6 2.9 4.6 6 0 5.5-4.5 6.8-9.1 6.8h-9.8v-23.9h10.2zm-7.2 10.3h5.7c2.7 0 5.9-.2 5.9-3.8 0-3.6-2.8-3.8-5.6-3.8h-6v7.6zm0 11h6.3c3.2 0 6.3-.2 6.3-4.4s-3.7-4.1-6.9-4.1h-5.8v8.5h.1zM614.2 145.5h-2.9v-23.9h2.9v23.9zM634.5 136.7c0 5.9-3.1 9.3-8.3 9.3-5.3 0-8.5-3.4-8.5-9.1s3.3-9.2 8.5-9.2c5.2-.1 8.3 3.2 8.3 9zm-13.9.1c0 4.3 2 6.8 5.5 6.8 3.4 0 5.4-2.6 5.4-6.8 0-4.1-2.1-6.8-5.4-6.8s-5.5 2.7-5.5 6.8zM652.9 143.6c0 3-.3 4.4-1.1 5.8-1.2 2-3.7 3.2-6.9 3.2-3.5 0-6.8-1.2-7.3-5.1h2.9c.3 2 1.8 2.9 4.5 2.9 3.6 0 5-1.7 5.1-5.7v-2.1c-1.1 2.2-2.9 3.2-5.5 3.2-4.6 0-7.6-3.4-7.6-8.8 0-4.7 2.6-9.2 7.8-9.2 2.4 0 4.4 1.1 5.5 3v-2.5h2.6v15.3zm-12.9-6.7c0 3.8 2 6.3 5 6.3 3.2 0 5.1-2.6 5.1-6.8 0-3.9-1.9-6.3-5.2-6.3-3.1 0-4.9 2.6-4.9 6.8z"/></g><g class="st14"><path d="M603.8 180.7h-2.7v-2.6c-1.1 2-3.1 3-5.7 3-4.9 0-8-3.5-8-9.2 0-4.9 2.6-9.1 7.9-9.1 2.5 0 4.4 1 5.7 2.8v-8.9h2.9v24h-.1zm-13.5-8.7c0 4.2 2.1 6.9 5.4 6.9 3.3 0 5.3-2.6 5.3-6.8 0-3.5-1.5-6.7-5.4-6.7-3.3-.1-5.3 2.5-5.3 6.6zM623.9 172c0 5.9-3.1 9.3-8.3 9.3-5.3 0-8.5-3.4-8.5-9.1s3.3-9.2 8.5-9.2c5.3-.1 8.3 3.2 8.3 9zm-13.8.1c0 4.3 2 6.8 5.5 6.8 3.4 0 5.4-2.6 5.4-6.8 0-4.1-2.1-6.8-5.4-6.8s-5.5 2.6-5.5 6.8zM630 166.1c1.4-2.1 3.3-3.2 5.9-3.2 4.2 0 5.8 2.3 5.8 6.3v11.5h-2.9v-10.2c0-2.8-.1-5.1-3.7-5.1-3.7 0-4.9 2.8-4.9 6.2v9.1h-2.9v-17.3h2.7v2.7zM653.3 181.3c-5.1 0-8.2-3.4-8.2-9s3.3-9.4 8.1-9.4c5.7 0 7.9 4.5 7.9 9.5v.4h-13v.2c0 3.7 2 5.9 5.4 5.9 2.5 0 3.9-1.1 4.7-3.7h2.8c-1.1 4.1-3.7 6.1-7.7 6.1zm-.2-16.1c-2.8 0-4.7 2-5.1 5.3h10.1c-.3-3.3-2.2-5.3-5-5.3z"/></g><path class="st9" d="M667.9 256.7c-6.1 0-11.9 2.9-15.7 7.7-6.6-8.6-19-10.3-27.6-3.7-4.9 3.7-7.7 9.5-7.7 15.7 0 24.4 35.4 39.1 35.4 39.1s35.4-14.5 35.4-39.1c-.1-10.9-8.9-19.7-19.8-19.7z"/><path class="st10" d="M783.9 413.8v54.3c0 8.2-6.1 14.8-13.5 14.8h-98.5c-7.5 0-13.5-6.7-13.5-14.8v-54.3l62.8-42 62.7 42z"/><path class="st8" d="M681.1 381.1h80c6.6 0 12 5.4 12 12v57.7c0 6.6-5.4 12-12 12h-80c-6.6 0-12-5.4-12-12v-57.7c0-6.7 5.4-12 12-12z"/><path class="st15" d="M681.2 395.9h78.6v2.8h-78.6zM681.2 403h78.6v2.8h-78.6zM681.2 410.1h78.6v2.8h-78.6zM681.2 417.2h78.6v2.8h-78.6zM681.2 424.3h78.6v2.8h-78.6zM681.2 431.4h78.6v2.8h-78.6z"/><path class="st10" d="M783.9 413.8v54.3c0 8.2-6.1 14.8-13.5 14.8h-98.5c-7.5 0-13.5-6.7-13.5-14.8v-54.3l62.8 33.4 62.7-33.4z"/><path class="st13" d="M770.3 482.9l-49.2-35.7-49.3 35.7"/><path fill="#e0e0e0" stroke="#000" stroke-width=".5" stroke-linejoin="round" d="M232.8 288.9l-81 33.2-45.7-111.4 63.8-26.1 17.2-7.1 7.7 18.8z"/><path class="st6" d="M192.2 205l37.6 91.8-80.9 33.2-45.7-111.4 61.7-25.3z"/><path fill="#e8e8e8" stroke="#000" stroke-width=".5" stroke-linejoin="round" d="M192.2 205l-19.3 7.9-8-19.6z"/><path transform="rotate(-22.31 155.376 229.049)" class="st18" d="M124.9 227.1h61v3.9h-61z"/><path transform="rotate(-22.31 158.588 236.838)" class="st18" d="M128.1 234.9h61v3.9h-61z"/><path transform="rotate(-22.31 161.712 244.663)" class="st18" d="M131.2 242.7h61v3.9h-61z"/><path transform="rotate(-22.31 164.893 252.365)" class="st18" d="M134.4 250.4h61v3.9h-61z"/><path transform="rotate(-22.31 168.106 260.154)" class="st18" d="M137.6 258.2h61v3.9h-61z"/><path transform="rotate(-22.31 171.28 267.85)" class="st18" d="M140.8 265.9h61v3.9h-61z"/><path transform="rotate(-22.226 175.819 277.96)" class="st18" d="M145.2 276h61.3v3.9h-61.3z"/><path transform="rotate(-22.31 177.581 283.378)" class="st18" d="M147.1 281.4h61v3.9h-61z"/><path transform="rotate(-22.31 180.794 291.167)" class="st18" d="M150.3 289.2h61v3.9h-61z"/><path class="st8" d="M9.4 289.4c-2.4-.9-3.5-3.6-2.6-6l.3-.8c.8-2.4 3.3-3.8 5.8-3l7 2.5.5-1.4-6.1-2.1c-2-.7-3-3.3-2.1-5.8l.3-.8c.9-2.5 3.3-3.9 5.3-3.2l6.1 2.1 1.1.4 19.8 7-.7-10c.6-4.6 4.5-7.9 8.5-7.3s6.9 4.8 6.2 9.4l1.1 17.2c.7 4.5.4 9.2-.8 13.6l-5.7 16.2c-1.4 4.1-7.3 10.1-11.4 8.7L9.6 314.6l-1.2-.4-5.8-2.1c-2-.7-2.9-3.3-2-5.8l.3-.8c.9-2.5 3.2-3.9 5.2-3.2l5.8 2 .5-1.4-7-2.5c-2.4-.9-3.5-3.6-2.6-6l.3-.8c.8-2.4 3.4-3.8 5.8-3l7 2.5.5-1.4-7-2.3z"/><path class="st7" d="M72.1 335.6l-23.5-8.3c-.9-.3-1.3-1.3-1-2.1l13.2-37.5c.3-.9 1.3-1.3 2.1-1l23.5 8.3c.9.3 1.3 1.3 1 2.1l-13.2 37.5c-.3.9-1.3 1.3-2.1 1z"/><path class="st8" d="M65.7 295.7c-.6 1.7.3 3.6 2 4.2s3.6-.3 4.2-2-.3-3.6-2-4.2c-1.7-.6-3.6.3-4.2 2z"/><path d="M72.8 381.3h107.3l.2 35.9h-5.1c-1.7-12.9-6.5-21.6-14.4-26.1-4.5-2.5-11.1-3.9-20-4.1v93.9c0 6.6 1.1 10.9 3.4 13.1s7.1 3.2 14.3 3.2v4.5H94.9v-4.5c7 0 11.6-1.1 13.9-3.3 2.3-2.2 3.4-6.5 3.4-13V387c-8.7.2-15.3 1.6-20 4.1-8.5 4.7-13.3 13.4-14.4 26.1h-5.1l.1-35.9z" fill="#727272" stroke="#000" stroke-width=".5" stroke-miterlimit="10"/><path class="st8" d="M750.9 264.2l29.3 72.3 26.7-9.5 20.4-7.3-15.3-11.1-1.3-.9zM750.9 264.2l89.6 49.8 40.3-5z"/><path fill="#d1d1d1" stroke="#000" stroke-width=".5" stroke-miterlimit="10" d="M806.9 327l17.1 26 3.3-33.3z"/><path fill="#c1c1c1" stroke="#000" stroke-width=".5" stroke-miterlimit="10" d="M750.9 264.2l76.4 55.5L824 353l16.5-39z"/></svg>