<?xml version="1.0" encoding="utf-8"?>
<!-- Generator: Adobe Illustrator 22.0.1, SVG Export Plug-In . SVG Version: 6.00 Build 0)  -->
<svg version="1.1" id="Layer_1" xmlns="http://www.w3.org/2000/svg" xmlns:xlink="http://www.w3.org/1999/xlink" x="0px" y="0px"
	 viewBox="0 0 875.4 709.2" style="enable-background:new 0 0 875.4 709.2;" xml:space="preserve">
<style type="text/css">
	.st0{fill:#FFFFFF;}
	.st1{fill:#FFFFFF;stroke:#000000;stroke-width:0.5;stroke-miterlimit:10;}
	.st2{clip-path:url(#SVGID_2_);}
	.st3{fill:#1A1A1A;stroke:#000000;stroke-width:0.5;stroke-miterlimit:10;}
	.st4{fill:none;stroke:#000000;stroke-width:0.5;stroke-miterlimit:10;}
	.st5{fill:#EB058C;stroke:#000000;stroke-width:0.5;stroke-miterlimit:10;}
	.st6{fill:#EAEAEA;stroke:#000000;stroke-width:0.5;stroke-miterlimit:10;}
	.st7{fill:#C4C4C4;stroke:#000000;stroke-width:0.5;stroke-linejoin:round;}
	.st8{fill:#EAEAEA;stroke:#000000;stroke-width:0.5;stroke-linejoin:round;}
	.st9{fill:#D8D8D8;stroke:#000000;stroke-width:0.5;stroke-linejoin:round;}
	.st10{clip-path:url(#SVGID_4_);}
	.st11{fill:#0077BF;stroke:#000000;stroke-width:0.5;stroke-miterlimit:10;}
	.st12{clip-path:url(#SVGID_6_);}
	.st13{fill:#FFFFFF;stroke:#000000;stroke-miterlimit:10;}
	.st14{fill:#1A1A1A;}
	.st15{clip-path:url(#SVGID_8_);}
	.st16{fill:#FFE600;stroke:#000000;stroke-width:0.5;stroke-miterlimit:10;}
	.st17{enable-background:new    ;}
	.st18{fill:#F9F9F9;stroke:#000000;stroke-width:0.5;stroke-linejoin:round;}
</style>
<title>CEO2</title>
<g id="Layer_7">
	<path class="st0" d="M103.2,562.7C-26.9,487.2-15.5,303.1,36.8,212.6C154,9.9,364.6,5.2,364.6,5.2C516-16.5,650.9,33.3,707.5,85
		c117.2,107,162.2,215.1,166.7,299.7c5,93.1,1.3,225.3-149,298.4c-182.8,88.9-274.8-75-342-102.4S195.5,605.4,103.2,562.7z"/>
</g>
<circle class="st1" cx="440.2" cy="537.2" r="145.9"/>
<g>
	<defs>
		<circle id="SVGID_1_" cx="440.2" cy="537.2" r="145.9"/>
	</defs>
	<clipPath id="SVGID_2_">
		<use xlink:href="#SVGID_1_"  style="overflow:visible;"/>
	</clipPath>
	<g class="st2">
		<g id="Layer_8">
			<path class="st3" d="M553.9,575.3c7.4,0.8,4.4-31,2.5-41.8c-3.9-9.8-8.4-19.5-12.9-29.1c-4.2-8.9-8.9-17.6-13.4-26.6
				c-4.2-8.3-3.9-16.1-6.3-25c-7.2-25.9-24-43.2-51.3-42.7c-25.6,0.4-42.6,24.6-41.8,48.8c0.1,3,0.4,5.9,0.9,8.8
				c1.2,8,5.9,19.6,5.9,28.1c1.3,11,3,18.9,2.2,30.9c-2.3,34.6,14.3,37.4,22.1,42.4l40.5-2.1L553.9,575.3z"/>
			<g id="Layer_7-2">
				<path class="st1" d="M509.6,517.8c-2,1.9-7.1-9.2-8.1-13.6c-1.5-6.3-4.5-18.9-5-18l-28.5,14.5c2.5,4.3,5.4,10.2,5.6,10.5
					c3.1,6.1,4.1,11.4,2.5,17c0,0,2.9,12.5,18.7,10.9S509.6,517.8,509.6,517.8z"/>
				<path class="st1" d="M505,467.8c-0.4,3.9,0,10.2-3.6,10.8c-1.1,0.2-1.8,2.1-1.9,3.2c-0.3,3.5,0.9,7.5-0.8,10.5
					c-4,6.3-9.3,11.7-15.5,15.8c-10.6,7.2-24-5.4-24-5.4s-12.4-10.8-15.6-28.2s8-38.7,8-38.7s19.7,19.4,29.4,21.5
					S505,467.8,505,467.8z"/>
				<path class="st4" d="M471.2,457.9c3.7-0.9,7.6-0.2,10.7,2"/>
				<path class="st4" d="M444.2,465.8c2.8-2.6,6.5-3.8,10.3-3.5"/>
				<circle class="st3" cx="475.2" cy="468.5" r="2.8"/>
				<circle class="st3" cx="450.8" cy="473.7" r="2.8"/>
				<path class="st4" d="M463.1,497c0,0,11,6.3,16.2-5.5"/>
				<path class="st4" d="M463.8,470.8c0.6,2.7,0.7,5.4,0.3,8.1c-0.3,2.1-1,4-1.4,6.1c-0.3,1-0.3,2.1,0,3.1c0.4,1,1.5,1.5,2.5,1.1
					l0,0"/>
				<path class="st4" d="M471.2,465c0,0,4.5-2.9,10.2,1.1"/>
				<path class="st4" d="M456.7,472.2c0,0-5-6.3-10.1-0.8"/>
			</g>
		</g>
		<polygon class="st5" points="460.6,540.6 452.1,554 445.7,621.9 387,645.1 390.5,658.8 476.4,641.5 494.6,568.1 		"/>
		<path class="st5" d="M476.1,529.5l-16.8,11.3l2.3,52.7c-0.4,3.7,0.5,7.4,2.6,10.5l10.5,10.3l14.4,64.2c0,0,62.6,0,63-6.7
			s5.8-106.5,5.8-106.5l-13.6-42.5l-30.9-12.3l-18.9,17.4L476.1,529.5z"/>
		<polygon class="st1" points="506.2,504.2 484.7,526.5 476.3,521 468.3,532.1 472,546.2 484.8,530.2 499.2,543.2 520.9,513.6 		"/>
		<path class="st5" d="M507.1,599.1c0,0,22.8,9.7,27.7-11.4"/>
		<path class="st1" d="M387,645.1c0,0-29.4,2.3-33.3,14.8s15.5-0.1,18.6-1s11.8,5,18.1,0L387,645.1z"/>
		<path class="st1" d="M374.7,653.2c0,0-11.3,5.6-11.1,8.3c0.4,4.7,8.9-2.9,13.8-1.9"/>
		<polygon class="st6" points="522.2,662.3 392.2,616.4 439.9,678.5 		"/>
		<line class="st4" x1="497.6" y1="661" x2="422.8" y2="633"/>
		<line class="st4" x1="485" y1="664.3" x2="409.3" y2="635.4"/>
		<line class="st4" x1="471.9" y1="667.6" x2="395.6" y2="638.1"/>
		<line class="st4" x1="457.2" y1="669.4" x2="387.8" y2="641.5"/>
		<line class="st4" x1="495.1" y1="656.9" x2="422.5" y2="669.4"/>
		<line class="st4" x1="483.9" y1="652.8" x2="411.3" y2="665.3"/>
		<line class="st4" x1="473.6" y1="647.8" x2="401" y2="660.3"/>
		<line class="st4" x1="460.1" y1="643.8" x2="387.6" y2="656.3"/>
		<line class="st4" x1="448.9" y1="640.3" x2="376.3" y2="652.8"/>
		<polygon class="st7" points="434.6,688.1 417.1,575.7 307.9,539.2 325.9,647.2 		"/>
		<polygon class="st8" points="307.9,539.2 318.9,537.3 422.8,571.4 417.1,575.7 		"/>
		<polygon class="st9" points="422.8,571.4 439.9,678.5 434.6,688.1 417.1,575.7 		"/>
		<polygon class="st9" points="439.9,678.5 522.2,662.3 522.2,669.5 434.6,688.1 		"/>
		<polygon class="st5" points="421.4,647.7 322,609.1 317.8,574.3 417.2,612.9 		"/>
		<path class="st0" d="M354.4,601.2c-0.1-0.3-0.5-0.4-0.9-0.5c-0.2-0.1-0.5-0.2-0.9-0.2l0.2-1.3c0-0.2-1.1-1.3-1.4-1.2
			s-0.4,1-0.6,2.2c-0.6-0.1-1.3-0.2-1.9-0.2v-0.1c0-0.6-1-1.3-1.5-1.5c-0.2-0.1-0.4-0.1-0.4,0c-0.8,1.8-1.4,3.8-1.8,5.8h-0.1
			c-0.1-1.8-0.1-3.6,0.1-5.5c0-0.5-0.5-0.7-0.7-0.8c-1-0.4-1.2,2.1-1,5.4c0,0,0,0.1,0,0.1c0.2,1.3-0.8,3.3-2.3,2.7
			c-0.9-0.4-1.5-1.2-1.6-2.2c-0.1-0.8-0.1-1.7,0-2.5c0.3,0.6,0.7,1,1.3,1.3c1.6,0.6,2-1.4,1.7-4c0-1.3-0.8-2.5-1.9-3.1
			c-1.8-0.7-2.8,3.8-2.4,7.2l0.1,0.5c-0.1-0.1-0.2-0.2-0.4-0.2h-0.2c-1-1.5-2.3-3.3-3.3-4.6c2.2,0.5,3.5-0.3,3.2-2.8
			c-0.3-2.2-2.5-4.9-5-6.1c0-0.1,0-0.2,0-0.4c-0.3-0.3-0.7-0.6-1.1-0.8c-0.5-0.2-0.4,0.2-0.4,0.4s0,0.2,0,0.3
			c-2.6-0.6-2.9,1.2-2.9,1.2c0.4,0.6,0.8,1,1.4,1.4c0.1,0,0.1,0,0.1,0c0.1-0.7,0.6-1.2,1.3-1.2c-0.2,3-0.4,9.3-0.4,12.3
			c0.4,0.4,0.9,0.7,1.4,1c0.3,0.1,0.5-0.3,0.5-0.9s-0.2-0.8-0.2-1.1l0.1-4h0.1c1.3,1.6,4.3,6.2,5.6,8.1c0.3,0,0.7-0.1,0.9-0.3
			c0,0,0-0.1,0-0.1c0.6,1.1,1.5,2,2.6,2.5c0.8,0.4,1.9,0.1,2.3-0.7c0,0,0-0.1,0.1-0.1c0.1,0.7,0.5,1.2,1.1,1.5
			c0.2,0.1,0.4,0.1,0.6,0c-0.1-2.2,0.2-4.3,1-6.3l0.2,0.1c-0.1,1.3-0.1,2.5,0,3.8c0.2,1.6,0.7,3.2,2.1,3.7c0.6,0.3,1.4,0.1,1.8-0.6
			c0-0.1,0.1-0.1,0.1-0.2c0.4,1.1,1.3,2,2.3,2.5c1.2,0.5,2.9-0.4,2.8-1.7c-0.1-1.2-0.8-1.3-0.8-1.3c0,1-1.4,1.8-2.5,1.4
			c-0.4-0.2-0.7-0.6-0.7-1.1c-0.4-3.1-0.1-3.1,0.4-6.8c1,0.2,1.9,0.5,2.9,0.8c0.3,0.1,0.3,0,0.3-0.2c-0.1-0.3-0.3-0.6-0.5-0.8
			C354.7,601.4,354.5,601.5,354.4,601.2z M340.5,596.8c0.1-0.2,0.2-0.3,0.3-0.2s0.2,0.2,0.4,1c0.2,1.8-0.1,3.9-0.8,3.6
			c-0.3-0.1-0.5-0.4-0.6-0.7C339.8,599.2,340,597.9,340.5,596.8z M332.7,590.5l0.4,0.1c1.6,0.6,2.8,2,3.1,3.7c0.3,2.6-1.3,3-3.7,2
			C332.5,594.1,332.6,591.9,332.7,590.5z M350.4,606.9c0,0.2,0.1,0.4,0.1,0.6c-0.1,0.5-0.4,1.2-1,0.9s-0.9-0.8-1-1.8
			c-0.3-2.4,0.3-4.3,0.3-6.2c0.2,0.4,0.6,0.9,0.9,0.9l0.9,0.1C350.3,603.3,350.3,605.1,350.4,606.9z"/>
		<path class="st0" d="M367.4,612.9c0,1.2-0.1,2.3-1.1,2c-0.7-0.2-0.9-0.9-1-1.9c-0.1-1.8,0-3.7,0.4-5.5c0.1-0.4-0.7-0.7-0.9-0.9
			c0,0,0-0.1,0-0.2c-0.3-1-1.1-1.9-2.1-2.2c-2.3-0.9-3.5,2.1-3.1,5.7c0.3,2.5,1.6,4.4,3,5c0.7,0.4,1.5,0.1,1.9-0.6c0,0,0,0,0-0.1
			h0.1c0.2,0.8,0.8,1.5,1.6,1.9c1.5,0.6,2-1.4,1.9-2.4C368,613.3,367.8,613,367.4,612.9z M362.2,613.4c-0.5-0.2-0.8-0.8-0.9-2
			c-0.2-2.1,0-6.5,1.5-6c0.4,0.1,0.4,0.6,0.5,0.8c0.1,0.6,0,1.2-0.4,1.8c0.3,0.3,0.6,0.6,1,0.8C363.9,609.5,363.4,613.8,362.2,613.4
			L362.2,613.4z"/>
		<path class="st0" d="M384,620.7l-2.4-2.5l0,0l-0.6-0.6c-0.2,0.1-0.3,0.3-0.5,0.4c-0.2,0.1-0.4,0.2-0.7,0.3c-0.3,0.1-0.6,0.1-0.8,0
			c-0.3-0.1-0.7-0.1-1-0.3c-0.5-0.2-1-0.5-1.5-0.9c-0.5-0.4-0.9-0.8-1.2-1.3c-0.4-0.5-0.7-1-0.9-1.6c-0.2-0.5-0.4-1.1-0.5-1.7l0,0
			c-0.1-0.5,0-1,0.1-1.5c0.1-0.4,0.3-0.7,0.6-1c0.3-0.2,0.6-0.4,1-0.4c0.5,0,0.9,0.1,1.4,0.3c0.7,0.3,1.3,0.7,1.9,1.2
			c0.5,0.5,1,1.1,1.4,1.7l0.6-0.3l0,0l1.9-0.8c-0.3-0.5-0.7-1-1.1-1.5c-0.4-0.4-0.8-0.8-1.2-1.2l0,0l-0.2-0.2
			c-0.5-0.5-1.1-0.9-1.7-1.2c-0.6-0.4-1.3-0.7-2-1c-0.9-0.4-1.9-0.6-2.9-0.6c-0.8,0-1.5,0.3-2.1,0.7c-0.6,0.5-1,1.1-1.2,1.8
			c-0.3,0.9-0.3,1.8-0.2,2.7l0,0c0.1,1.1,0.5,2.2,0.9,3.2c0.5,1.1,1.1,2.1,1.8,3c0.7,0.9,1.6,1.7,2.5,2.4c0.9,0.7,1.8,1.2,2.9,1.7
			c0.7,0.3,1.4,0.5,2.1,0.6c0.5,0.1,1.1,0.1,1.6,0h0.1h0.1c0.4-0.1,0.7-0.2,1-0.5C383.4,621.3,383.7,621,384,620.7z"/>
		<path class="st0" d="M396.8,626.8c-0.8-0.9-1.4-2-1.9-3.1c-0.5-1-0.8-2.1-1-3.2l0,0c-0.1-0.9-0.1-1.9,0.2-2.8
			c0.2-0.7,0.7-1.4,1.4-1.8l0.2-0.1l0,0l-0.2-1.5l-3.9-1.5l-2.8,4.4l-4.1-7.2l-3.9-1.5l0.1,0.5l0.1,0.1c0,0,0.1,0.1,0.1,0.1l0.2,0.2
			c0,0,0.1,0.1,0.1,0.1l0.2,0.2l0.1,0.1l0.3,0.3c0.4,0.5,0.9,1.1,1.2,1.7l0.1,0.2l-2,0.9l0.6,5.3l2.5,2.6l-0.1,0.1
			c-0.3,0.3-0.6,0.7-1,0.9l-0.2,0.1H383l-0.2,0.1h-0.1l-0.2,0.1h-0.1h-0.1l0.1,0.5l3.6,1.4l-1-8.5l4.5,7.5l3.1-4.5l1.1,8.8l3.6,1.4
			l-0.2-1.4l0,0L396.8,626.8z"/>
		<path class="st0" d="M408.4,623.3c-0.5-1.1-1.1-2.1-1.9-3c-0.7-0.9-1.6-1.7-2.5-2.5c-0.9-0.7-2-1.3-3.1-1.8
			c-0.9-0.4-1.9-0.6-2.9-0.6c-0.7,0-1.4,0.2-2,0.5h0h-0.1l0,0l-0.1,0.1l0,0c-0.6,0.4-1.1,1-1.3,1.8c-0.3,0.9-0.3,1.8-0.2,2.7l0,0
			c0.1,1.1,0.4,2.1,0.9,3.1c0.5,1.1,1.1,2.1,1.9,3l0,0l0.2,0.2l0,0l0.1,0.1l0.1,0.1c0.7,0.8,1.4,1.5,2.2,2.1c0.9,0.7,2,1.3,3.1,1.8
			c0.9,0.4,1.9,0.6,2.9,0.6c0.8,0,1.6-0.2,2.2-0.7c0.6-0.4,1.1-1,1.3-1.8c0.3-0.9,0.3-1.8,0.2-2.7l0,0
			C409.1,625.3,408.8,624.2,408.4,623.3z M405.6,625c0.1,0.5,0,1-0.1,1.5c-0.1,0.4-0.3,0.7-0.6,1c-0.3,0.3-0.7,0.4-1.1,0.4
			c-0.5,0-1-0.1-1.5-0.3c-0.6-0.2-1.1-0.5-1.6-0.9c-1-0.8-1.7-1.8-2.2-3c-0.2-0.5-0.4-1.1-0.4-1.7l0,0c-0.1-0.5,0-1,0.1-1.5
			c0.1-0.4,0.3-0.7,0.6-1c0.3-0.2,0.7-0.4,1.1-0.4c0.5,0,1,0.1,1.5,0.3c0.6,0.2,1.1,0.6,1.6,1c0.5,0.4,0.9,0.9,1.3,1.4
			c0.4,0.5,0.7,1,0.9,1.6C405.4,623.9,405.5,624.5,405.6,625L405.6,625z"/>
		<path class="st5" d="M533,518.5l24.6,9c2.8,1,5,3.2,6.1,5.9l39.3,84.9c3.1,5.5,1.2,12.6-4.4,15.7c-0.9,0.5-1.9,0.9-2.9,1.2
			l-106.7,26.4l-4.8-17l82.5-29.6L539,566.2L533,518.5z"/>
		<path class="st1" d="M484.4,644.5c0,0-35.2,8.2-35.9,19.9c-0.2,3.9,6.9,5.7,15.7-0.4s14.4,3.2,25-2.4L484.4,644.5z"/>
	</g>
</g>
<circle class="st4" cx="440.2" cy="537.2" r="145.9"/>
<circle class="st1" cx="224.3" cy="235.9" r="92.7"/>
<g>
	<defs>
		<circle id="SVGID_3_" cx="224.3" cy="235.9" r="92.7"/>
	</defs>
	<clipPath id="SVGID_4_">
		<use xlink:href="#SVGID_3_"  style="overflow:visible;"/>
	</clipPath>
	<g class="st10">
		<g id="Layer_8-2">
			<path class="st3" d="M161.1,204.4c2.7-5.7,3.4-6.4,6.2-12.1c2.6-5.3,2.5-10.2,4-15.9c4.6-16.5,15.2-27.4,32.6-27.1
				c16.3,0.3,27.1,15.6,26.5,31c-0.1,1.9-0.3,3.8-0.6,5.6c-0.8,5.1-3.7,12.5-3.7,17.9c-0.9,7,0.4,7.2,0.9,14.9
				C227,218.5,213.6,227.4,161.1,204.4z"/>
			<g id="Layer_7-3">
				<path class="st1" d="M180.2,217.6c1.3,1.2,4.5-5.9,5.2-8.7c0.9-4,2.9-12,3.2-11.5l18.1,9.2c-1.6,2.8-3.4,6.5-3.6,6.7
					c-2,3.9-2.6,7.3-1.6,10.8c0,0-1.8,7.9-11.9,6.9S180.2,217.6,180.2,217.6z"/>
				<path class="st1" d="M183.1,185.9c0.2,2.5,0,6.5,2.3,6.9c0.7,0.1,0.4,2.2,0.4,2.9c0.2,2.2,0.2,3.9,1.3,5.8
					c1.8,4.5,5.4,8.1,9.9,10c8.5,3.5,13.6-0.1,16.6-3c3.7-3.5,6.5-7.3,8.5-18.3s-5.1-24.6-5.1-24.6s-12.5,12.4-18.7,13.7
					S183.1,185.9,183.1,185.9z"/>
				<path class="st4" d="M204.6,179.6c-2.3-0.6-4.8-0.1-6.8,1.3"/>
				<path class="st4" d="M221.8,184.6c-1.8-1.6-4.2-2.4-6.6-2.2"/>
				<circle class="st3" cx="202.1" cy="186.3" r="1.8"/>
				<circle class="st3" cx="217.6" cy="189.6" r="1.8"/>
				<path class="st4" d="M209.8,204.4c0,0-6.9,4-10.3-3.5"/>
				<path class="st4" d="M209.3,187.8c-0.4,1.7-0.5,3.5-0.2,5.2c0.2,1.3,0.6,2.6,0.9,3.9c0.2,0.7,0.2,1.3,0,2c-0.3,0.6-1,1-1.6,0.7
					l0,0"/>
				<path class="st4" d="M204.6,184.1c0,0-2.9-1.8-6.5,0.7"/>
				<path class="st4" d="M213.8,188.6c0,0,3.2-4,6.4-0.5"/>
			</g>
		</g>
		<polygon class="st11" points="211.3,232.1 216.7,240.6 220.8,283.8 258.1,298.5 255.9,307.2 201.3,296.2 189.8,249.6 		"/>
		<path class="st11" d="M201.5,225.1l10.7,7.2l-1.5,33.4c0.3,2.3-0.3,4.7-1.7,6.6l-6.7,6.5l-9.1,40.8c0,0-39.8,0-40-4.2
			s-3.7-67.7-3.7-67.7l8.7-27l19.6-7.8l12,11L201.5,225.1z"/>
		<polygon class="st1" points="182.4,209 196,223.2 201.4,219.7 206.4,226.7 204.1,235.7 196,225.5 186.8,233.8 173,215 		"/>
		<path class="st11" d="M181.8,269.3c0,0-14.5,6.2-17.6-7.3"/>
		<path class="st1" d="M258.1,298.5c0,0,18.7,1.5,21.1,9.4s-9.9,0-11.8-0.7s-7.5,3.2-11.5,0L258.1,298.5z"/>
		<path class="st1" d="M265.9,303.7c0,0,7.2,3.6,7,5.3c-0.2,3-5.6-1.9-8.8-1.2"/>
		<polygon class="st6" points="172.2,314.7 250.4,287.1 221.7,324.4 		"/>
		<line class="st4" x1="187" y1="313.9" x2="231.9" y2="297.1"/>
		<line class="st4" x1="194.6" y1="315.9" x2="240.1" y2="298.5"/>
		<line class="st4" x1="202.4" y1="317.9" x2="248.3" y2="300.1"/>
		<line class="st4" x1="211.3" y1="318.9" x2="253" y2="302.2"/>
		<line class="st4" x1="188.5" y1="311.5" x2="232.1" y2="318.9"/>
		<line class="st4" x1="195.2" y1="309" x2="238.9" y2="316.5"/>
		<line class="st4" x1="201.4" y1="306" x2="245" y2="313.5"/>
		<line class="st4" x1="209.5" y1="303.6" x2="253.1" y2="311.1"/>
		<line class="st4" x1="216.3" y1="301.5" x2="259.9" y2="309"/>
		<polygon class="st7" points="224.9,330.2 235.4,262.6 301,240.7 290.2,305.6 		"/>
		<polygon class="st8" points="301,240.7 294.4,239.5 231.9,260 235.4,262.6 		"/>
		<polygon class="st9" points="231.9,260 221.7,324.4 224.9,330.2 235.4,262.6 		"/>
		<polygon class="st9" points="221.7,324.4 172.2,314.7 172.2,319 224.9,330.2 		"/>
		
			<ellipse transform="matrix(0.9573 -0.2892 0.2892 0.9573 -70.4546 89.8728)" class="st0" cx="268.9" cy="283.4" rx="5.5" ry="4.7"/>
		<path class="st11" d="M165.3,218.1l-15.6,5.8c-1.8,0.6-3.2,2-3.9,3.8l-25,53.9c-2,3.5-0.8,8,2.8,10c0.6,0.3,1.2,0.6,1.9,0.7
			l67.8,16.7l3-10.8l-52.4-18.8l17.7-31L165.3,218.1z"/>
		<path class="st1" d="M196.2,298.1c0,0,22.4,5.2,22.8,12.6c0.1,2.5-4.4,3.6-10-0.3s-9.1,2-15.9-1.5L196.2,298.1z"/>
	</g>
</g>
<circle class="st4" cx="224.3" cy="235.9" r="92.7"/>
<circle class="st1" cx="656" cy="235.9" r="92.7"/>
<g>
	<defs>
		<circle id="SVGID_5_" cx="656" cy="235.9" r="92.7"/>
	</defs>
	<clipPath id="SVGID_6_">
		<use xlink:href="#SVGID_5_"  style="overflow:visible;"/>
	</clipPath>
	<g class="st12">
		<g id="Layer_8-3">
			<g id="Layer_7-4">
				<path class="st1" d="M700.1,216.8c-1.3,1.2-4.5-5.9-5.2-8.7c-0.9-4-2.9-12-3.2-11.5l-18.1,9.2c1.6,2.8,3.5,6.5,3.5,6.7
					c2,3.9,2.6,7.3,1.6,10.8c0,0,1.8,7.9,11.9,6.9S700.1,216.8,700.1,216.8z"/>
			</g>
		</g>
		<polygon class="st1" points="669,231.3 663.6,239.8 659.5,283 622.2,297.7 624.5,306.4 679,295.4 690.5,248.8 		"/>
		<path class="st11" d="M672.1,315.8c0,0,54.9,3,55.1-1.2s3.7-67.7,3.7-67.7l-8.7-27l-19.6-7.8l-12,11l-11.8,1l-10.7,7.2
			L672.1,315.8"/>
		<polygon class="st1" points="697.9,208.2 684.3,222.4 678.9,218.9 673.9,225.9 676.2,234.9 684.3,224.7 693.5,233 707.3,214.2 		
			"/>
		<path class="st1" d="M622.2,297.7c0,0-18.7,1.5-21.1,9.4s9.9,0,11.8-0.7s7.5,3.2,11.5,0L622.2,297.7z"/>
		<path class="st1" d="M614.4,302.8c0,0-7.2,3.6-7,5.3c0.2,3,5.7-1.9,8.8-1.2"/>
		<g id="Layer_9">
			<path class="st1" d="M655.6,193.1c-1.5-7.8-2.3-7.5-2.4-11.4c-0.1-6.4-0.1-13.2,3.6-18.4c2.2-2.8,5-5.3,8.1-7.1
				c2.1-1.6,4.5-2.9,7-3.8c2.2-0.6,4.4-0.8,6.7-0.6c6.3,0.4,12.3,3.1,16.8,7.6c11.7,12.1,7,29.9-0.8,42.1
				c-2.9,4.6-9.4,10.5-14.8,11.1C664.5,213.5,657.1,200.6,655.6,193.1z"/>
			<path class="st13" d="M674.2,177.9c3.2-2.1,9-2,10.9-0.3"/>
			<path class="st13" d="M655.7,183.3c1.6-3,5-4.6,8.3-4.1"/>
			<path class="st1" d="M673.8,197.4c-1.1-0.2-2.2-0.4-3.3-0.8c-0.3-0.1-0.5-0.2-0.7-0.3c-0.4-0.5-0.6-1.2-0.4-1.9l0.5-3.5"/>
			
				<ellipse transform="matrix(2.565355e-02 -0.9997 0.9997 2.565355e-02 474.9551 861.6296)" class="st3" cx="679.5" cy="187.2" rx="2.1" ry="1.6"/>
			
				<ellipse transform="matrix(0.9694 -0.2453 0.2453 0.9694 -26.4263 168.4051)" class="st3" cx="662.8" cy="190.3" rx="1.5" ry="1.9"/>
			<path class="st14" d="M694.1,177.4c0,0,2.7-6,5-3.6c0.8,0.8,1.5,7.5-3.7,11.9c0,0,4.9,5,2.9,9c0,0,5.6-5.4,7.8-24.9
				c0,0,2.4-16.9-17.1-16.3c-8.5-10.9-23.7-11.3-37.5,1.6c-3.7,10-3,21.2,1.9,30.7c0,0-2.2-9.3,3.7-16.7c0,0,15.8,6.7,21.6-5.8
				C678.7,163.1,686.7,161.6,694.1,177.4z"/>
		</g>
		<path class="st4" d="M683,198.1c0,0-7.5,6.5-12,5C671,203.1,681.6,212.9,683,198.1z"/>
		<polygon class="st6" points="712.5,315.9 629,286.4 659.6,326.3 		"/>
		<line class="st4" x1="696.7" y1="315.1" x2="648.7" y2="297.1"/>
		<line class="st4" x1="688.6" y1="317.2" x2="640" y2="298.6"/>
		<line class="st4" x1="680.2" y1="319.3" x2="631.2" y2="300.4"/>
		<line class="st4" x1="670.8" y1="320.5" x2="626.2" y2="302.5"/>
		<line class="st4" x1="695.1" y1="312.4" x2="648.5" y2="320.5"/>
		<line class="st4" x1="687.9" y1="309.8" x2="641.3" y2="317.8"/>
		<line class="st4" x1="681.3" y1="306.6" x2="634.7" y2="314.6"/>
		<line class="st4" x1="672.7" y1="304" x2="626" y2="312"/>
		<line class="st4" x1="665.4" y1="301.8" x2="618.8" y2="309.8"/>
		<polygon class="st7" points="656.3,332.5 645,260.3 574.9,236.9 586.4,306.2 		"/>
		<polygon class="st8" points="574.9,236.9 581.9,235.6 648.7,257.5 645,260.3 		"/>
		<polygon class="st9" points="648.7,257.5 659.6,326.3 656.3,332.5 645,260.3 		"/>
		<polygon class="st9" points="659.6,326.3 712.5,315.9 712.5,320.5 656.3,332.5 		"/>
		
			<ellipse transform="matrix(0.2885 -0.9575 0.9575 0.2885 164.1363 785.1132)" class="st0" cx="610.4" cy="282.1" rx="5" ry="5.8"/>
		<path class="st1" d="M715,217.2l15.6,5.8c1.8,0.6,3.2,2,3.9,3.8l25,53.9c2,3.5,0.7,8-2.8,10c-0.6,0.3-1.2,0.6-1.8,0.7l-67.8,16.7
			l-3-10.8l52.4-18.8l-17.7-31L715,217.2z"/>
		<path class="st1" d="M684.1,297.3c0,0-22.4,5.2-22.8,12.6c-0.2,2.5,4.4,3.6,10-0.3s9.2,2,15.9-1.5L684.1,297.3z"/>
	</g>
</g>
<circle class="st4" cx="656" cy="235.9" r="92.7"/>
<circle class="st1" cx="440.2" cy="235.9" r="92.7"/>
<g>
	<defs>
		<circle id="SVGID_7_" cx="440.2" cy="235.9" r="92.7"/>
	</defs>
	<clipPath id="SVGID_8_">
		<use xlink:href="#SVGID_7_"  style="overflow:visible;"/>
	</clipPath>
	<g class="st15">
		<polygon class="st16" points="506.8,308.9 485,234.5 452.4,220.8 428.5,220.8 389.7,234.5 373.5,308.9 		"/>
		<polygon class="st1" points="452.2,225.9 443.9,220.8 430.7,220.8 426.4,228.5 430.7,308.9 443.9,308.9 449,254 		"/>
		<polygon class="st11" points="440.6,236.4 451.6,281.9 443.9,308.9 430.7,308.9 424.6,280.6 436,236.6 		"/>
		<path class="st16" d="M425.7,219.5c-0.6,1-13.2,19.2-13.2,19.2l8.1,10.8l-7.3,9.5l13.6,49.9h7.3l-5.8-88.2L425.7,219.5z"/>
		<path class="st16" d="M449.9,219.5c0.6,1,13.2,19.2,13.2,19.2l-8.1,10.8l7.3,9.5l-14.6,49.9h-6.3l5.8-88.2L449.9,219.5z"/>
		<path class="st1" d="M430.6,222.6c-1.3-1.6,0-17.8,0-17.8h17.1l-0.5,20.8C447.3,225.6,434.1,227,430.6,222.6z"/>
		<polygon class="st11" points="430.5,224.2 436.2,237.2 440.5,236.9 447.2,224.2 435.5,222.6 		"/>
		<polygon class="st1" points="427.6,216.5 416.1,224.8 424.6,240.5 437.6,224.9 440.5,225.2 450.4,240.5 459.8,223.8 449.7,217.1 
			439.1,222.4 		"/>
		<g id="Layer_9-2">
			<path class="st1" d="M464.6,179.6c-0.8-6.5-1.5-15.1-6-19.9c-2.7-2.6-5.9-4.7-9.3-6.2c-2.4-1.4-5-2.3-7.8-2.9
				c-2.3-0.3-4.7-0.2-7,0.4c-6.4,1.3-14.3,8-18.2,13.2c-10.3,14.1-2.9,31.6,6.8,43c3.6,4.3,11.2,9.5,16.8,9.3
				c15.9-1.2,19.9-14.2,22.1-21.1c0.2-0.5,6.3-7,4.9-13.5l-1.6-1.6L464.6,179.6z"/>
			<path class="st13" d="M434.7,180.2c-3.8-1.1-8.7,1.9-10.1,4.1"/>
			<path class="st13" d="M458.1,183.5c-2.1-2.4-7.5-5-10.4-3.5"/>
			<path class="st1" d="M439.3,199.7c0.9-0.7,1.9-1.4,2.7-2.2c0.2-0.2,0.4-0.4,0.5-0.6c0.3-0.6-0.1-1.3-0.5-1.9l-2-3"/>
			
				<ellipse transform="matrix(0.9993 -3.646929e-02 3.646929e-02 0.9993 -6.6204 16.6104)" class="st3" cx="452" cy="189.8" rx="1.6" ry="2"/>
			
				<ellipse transform="matrix(0.9993 -3.646929e-02 3.646929e-02 0.9993 -6.6557 15.7933)" class="st3" cx="429.6" cy="190.3" rx="1.6" ry="2"/>
			<path class="st14" d="M416.3,193.1c0.2,3,1.2,5.9,2.7,8.5c0,0-3.6-1.1-8.8-19.4c0,0-5.9-21.8,9-23.7c5.3-13.3,30.4-16.7,48,5.1
				c4.4,23.9-6,34.4-6,34.4l1.3-4.8c0,0,3.9-4.7,3.6-7.1s-2.8-1.5-2.8-1.5c1-7.6-2-15.2-7.9-20c0,0-21.8,11.4-31.2,0.7l-7.4,19.7
				c0,0-4.7-2.3-3.8,1.8C413.4,189.3,414.6,191.4,416.3,193.1z"/>
			<path class="st4" d="M447.7,186.6c0,0,5.9-3.4,8.2,0"/>
			<path class="st4" d="M424.9,187.6c2.3-2.1,5.7-2.4,8.4-0.8"/>
			<path class="st1" d="M432.8,203.5c0,0,5.3,9.2,14.4,0"/>
		</g>
		<polyline class="st4" points="389.7,234.5 395.4,245.3 389.2,308.9 		"/>
		<polyline class="st4" points="485,234.5 479.1,244.3 487.9,308.9 		"/>
		<rect x="375.3" y="256.8" class="st7" width="129.5" height="83.4"/>
		<circle class="st0" cx="440" cy="298.5" r="7.9"/>
	</g>
</g>
<circle class="st4" cx="440.2" cy="235.9" r="92.7"/>
<g class="st17">
	<path d="M368.3,34.3c5.3,0,10.1,2.1,10.1,7.9c0,3.1-1.8,5.8-4.7,6.8c3.9,0.9,6.1,3.8,6.1,8c0,7.3-6,9-12,9h-13.1V34.3H368.3z
		 M358.9,47.9h7.5c3.6,0,7.8-0.3,7.8-5s-3.7-5-7.4-5h-7.9V47.9z M358.9,62.5h8.4c4.2,0,8.4-0.3,8.4-5.8c0-5.5-4.9-5.5-9.1-5.5h-7.7
		V62.5z"/>
	<path d="M388.7,66h-3.8V34.3h3.8V66z"/>
	<path d="M415.6,54.4c0,7.8-4.1,12.3-11.1,12.3c-7,0-11.2-4.5-11.2-12.1s4.3-12.3,11.3-12.3C411.6,42.4,415.6,46.8,415.6,54.4z
		 M397.3,54.5c0,5.7,2.7,9,7.4,9c4.5,0,7.1-3.4,7.1-9.1c0-5.5-2.8-9-7.2-9S397.3,49.1,397.3,54.5z"/>
	<path d="M440.1,63.5c0,4-0.4,5.8-1.5,7.7c-1.6,2.7-4.9,4.2-9.1,4.2c-4.6,0-9-1.6-9.7-6.8h3.9c0.4,2.6,2.4,3.8,5.9,3.8
		c4.7,0,6.7-2.2,6.8-7.5l0-2.8c-1.5,2.9-3.8,4.2-7.3,4.2c-6.2,0-10.1-4.5-10.1-11.7c0-6.2,3.4-12.2,10.3-12.2c3.2,0,5.8,1.4,7.3,4
		V43h3.5V63.5z M422.9,54.7c0,5.1,2.7,8.4,6.7,8.4c4.2,0,6.8-3.4,6.8-9c0-5.2-2.5-8.3-6.9-8.3C425.4,45.7,422.9,49.1,422.9,54.7z"/>
	<path d="M465.7,63.5c0,4-0.4,5.8-1.5,7.7c-1.7,2.7-4.9,4.2-9.1,4.2c-4.6,0-9-1.6-9.7-6.8h3.9c0.4,2.6,2.4,3.8,5.9,3.8
		c4.7,0,6.7-2.2,6.8-7.5l0-2.8c-1.5,2.9-3.8,4.2-7.3,4.2c-6.2,0-10.1-4.5-10.1-11.7c0-6.2,3.4-12.2,10.3-12.2c3.2,0,5.8,1.4,7.3,4
		V43h3.5V63.5z M448.5,54.7c0,5.1,2.7,8.4,6.7,8.4c4.2,0,6.8-3.4,6.8-9c0-5.2-2.5-8.3-6.9-8.3C451,45.7,448.5,49.1,448.5,54.7z"/>
	<path d="M481,66.8c-6.8,0-10.8-4.5-10.8-11.9c0-7.4,4.3-12.5,10.7-12.5c7.6,0,10.4,6,10.4,12.7v0.5H474l0,0.3
		c0,4.9,2.7,7.8,7.2,7.8c3.3,0,5.1-1.4,6.2-4.9h3.7C489.8,64.1,486.4,66.8,481,66.8z M480.7,45.5c-3.7,0-6.3,2.7-6.8,7h13.4
		C487,48.1,484.5,45.5,480.7,45.5z"/>
	<path d="M507.3,46.4c-0.4,0-0.6,0-1,0c-6.2,0-7.4,4.8-7.4,9.9V66h-3.8V43h3.6V48c1.6-3.9,4.4-5.5,8.5-5.5V46.4z"/>
	<path d="M523.4,49.7c-0.3-3-2.4-4.2-5.6-4.2c-2.9,0-4.7,1.2-4.7,3.1c0,2.6,3,3,6.1,3.7c3.9,0.9,8.9,2,8.9,7c0,4.5-3.8,7.4-9.5,7.4
		c-6.2,0-9.7-2.8-9.9-8h3.7c0.2,3.5,2.6,4.9,6.2,4.9c3.4,0,5.6-1.5,5.6-3.8c0-2.5-2.6-3.1-5.8-3.9c-4-1-9.3-1.5-9.3-6.8
		c0-4.1,3.4-6.8,8.8-6.8c5.2,0,9.2,2.5,9.2,7.4H523.4z"/>
</g>
<line class="st4" x1="440.2" y1="77.8" x2="627" y2="147.9"/>
<polyline class="st4" points="440.2,143.2 440.2,77.8 253.3,147.9 "/>
<polyline class="st4" points="627,324 440.2,391 440.2,328.6 "/>
<line class="st4" x1="253.3" y1="324" x2="440.2" y2="391"/>
<path class="st11" d="M208.2,435.9h-1.6c-3.3,0-5.9-2.6-5.9-5.9l0,0c0-3.3,2.7-5.9,5.9-5.9h1.6c3.3,0,5.9,2.7,5.9,5.9l0,0
	C214.1,433.2,211.4,435.9,208.2,435.9z"/>
<path class="st5" d="M271,386.2l-3.2,2c-1.3,0.8-2.8,0.7-3.3-0.3c-1.9-3.9-4.7-7.2-8.3-9.5c-0.9-0.7-0.9-2.1,0.2-3.3l2.5-2.9
	c0.9-1.2,2.5-1.5,3.8-0.8c4,2.9,7.3,6.7,9.6,11.1C272.8,383.9,272.3,385.5,271,386.2z"/>
<path class="st7" d="M212.5,415.2L212.5,415.2c2.4-2.1,6-1.8,8.1,0.6l25.3,29c2.1,2.4,1.8,6-0.5,8.1l0,0c-2.4,2.1-6,1.8-8.1-0.6
	l-25.3-29C209.8,420.9,210.1,417.3,212.5,415.2z"/>
<path class="st16" d="M278.9,379.7l17.5-5.2c0.8-0.2,1.6,0.2,1.9,1l0,0c0.2,0.8-0.2,1.6-1,1.8l-17.5,5.2c-0.8,0.2-1.6-0.2-1.8-1l0,0
	C277.6,380.8,278.1,380,278.9,379.7C278.9,379.7,278.9,379.7,278.9,379.7z"/>
<path class="st16" d="M273,372.3l13.7-12c0.6-0.5,1.5-0.5,2.1,0.1c0,0,0,0,0,0l0,0c0.5,0.6,0.5,1.5-0.1,2.1c0,0,0,0,0,0l-13.7,12
	c-0.6,0.5-1.5,0.5-2.1-0.1c0,0,0,0,0,0l0,0C272.3,373.8,272.4,372.9,273,372.3C273,372.3,273,372.3,273,372.3z"/>
<path class="st16" d="M266.1,366.4l6.7-17c0.3-0.8,1.2-1.1,1.9-0.8c0,0,0,0,0,0l0,0c0.8,0.3,1.1,1.2,0.8,1.9l-6.7,17
	c-0.3,0.8-1.2,1.1-1.9,0.8l0,0C266.2,368,265.8,367.1,266.1,366.4C266.1,366.4,266.1,366.4,266.1,366.4z"/>
<path class="st5" d="M218.5,400.7L199,419.1l0,0c1.5,8.9,8.7,15.8,17.7,16.7l3.4,0.4l24.5-20.3L218.5,400.7z"/>
<path class="st18" d="M244.8,365.2c0,0-11.4,21-26.3,35.5c0,7,13.4,18.5,20.3,19.5c24.7-18.7,37.6-18.8,37.6-18.8L244.8,365.2z"/>
<path class="st7" d="M275.9,405.2L275.9,405.2c-1.9,1-4.3,0.2-5.3-1.7c-7.3-13.4-17.4-25-29.7-34.1c-1.8-1.3-2.2-3.7-0.9-5.5l0,0
	c1.3-1.8,3.9-2.3,5.8-1c13.2,9.8,24.1,22.3,31.9,36.7C278.7,401.7,277.9,404.1,275.9,405.2z"/>
<path class="st16" d="M208.1,418.6l6.7-6.5c1.3-1.3,3.5-1.3,4.8,0.1l0,0c1.3,1.3,1.3,3.5-0.1,4.8l-6.7,6.5c-1.3,1.3-3.5,1.3-4.8-0.1
	l0,0C206.7,422.1,206.7,419.9,208.1,418.6z"/>
<path class="st11" d="M215.4,413.1L215.4,413.1c1.2-0.7,2.8-0.2,3.4,1l0,0c0.7,1.2,0.2,2.8-1,3.4l0,0c-1.2,0.7-2.8,0.2-3.4-1l0,0
	C213.8,415.3,214.2,413.8,215.4,413.1z"/>
<path class="st11" d="M675,435.9h1.7c3.3,0,5.9-2.6,5.9-5.9l0,0c0-3.3-2.7-5.9-5.9-5.9H675c-3.3,0-5.9,2.7-5.9,5.9l0,0
	C669.1,433.2,671.7,435.9,675,435.9z"/>
<path class="st5" d="M612.1,386.2l3.2,2c1.3,0.8,2.8,0.7,3.3-0.3c1.9-3.9,4.7-7.1,8.3-9.5c0.9-0.7,0.9-2.1-0.2-3.3l-2.5-2.9
	c-0.9-1.2-2.5-1.5-3.8-0.8c-4,2.9-7.3,6.7-9.6,11.1C610.3,383.9,610.8,385.5,612.1,386.2z"/>
<path class="st7" d="M637.9,452.8L637.9,452.8c-2.4-2.1-2.6-5.7-0.5-8.1l25.3-29c2.1-2.4,5.7-2.6,8.1-0.6l0,0
	c2.4,2.1,2.6,5.7,0.5,8.1l-25.3,29C643.9,454.7,640.3,454.9,637.9,452.8z"/>
<path class="st16" d="M604.3,379.7l-17.5-5.2c-0.8-0.2-1.6,0.2-1.8,1l0,0c-0.2,0.8,0.2,1.6,1,1.8c0,0,0,0,0,0l17.5,5.2
	c0.8,0.2,1.6-0.2,1.8-1l0,0C605.5,380.8,605.1,379.9,604.3,379.7z"/>
<path class="st16" d="M610.2,372.3l-13.7-12c-0.6-0.5-1.5-0.5-2.1,0.1l0,0c-0.5,0.6-0.5,1.5,0.1,2.1c0,0,0,0,0,0l13.7,12
	c0.6,0.5,1.6,0.5,2.1-0.1l0,0C610.9,373.8,610.8,372.9,610.2,372.3z"/>
<path class="st16" d="M617.1,366.4l-6.7-17c-0.3-0.8-1.2-1.1-1.9-0.8l0,0c-0.8,0.3-1.1,1.2-0.8,1.9c0,0,0,0,0,0l6.7,17
	c0.3,0.8,1.2,1.1,1.9,0.8c0,0,0,0,0,0l0,0C617,368,617.4,367.1,617.1,366.4z"/>
<path class="st5" d="M664.7,400.7l19.5,18.4l0,0c-1.5,8.9-8.7,15.8-17.7,16.7l-3.5,0.4l-24.5-20.3L664.7,400.7z"/>
<path class="st18" d="M638.4,365.2c0,0,11.5,21,26.3,35.5c0,7-13.4,18.5-20.3,19.5c-24.7-18.7-37.7-18.8-37.7-18.8L638.4,365.2z"/>
<path class="st7" d="M607.2,405.2L607.2,405.2c1.9,1,4.3,0.2,5.3-1.7c7.3-13.4,17.4-25,29.7-34.1c1.8-1.3,2.2-3.7,0.9-5.5l0,0
	c-1.3-1.8-3.9-2.3-5.8-1c-13.2,9.8-24.1,22.3-31.9,36.7C604.4,401.7,605.2,404.1,607.2,405.2z"/>
<path class="st16" d="M670.5,423.5l-6.7-6.5c-1.3-1.3-1.4-3.4-0.1-4.8l0,0c1.3-1.3,3.4-1.4,4.8-0.1l6.7,6.5c1.3,1.3,1.4,3.4,0.1,4.8
	l0,0C673.9,424.8,671.8,424.8,670.5,423.5z"/>
<path class="st11" d="M665.2,417.6L665.2,417.6c-1.2-0.7-1.7-2.2-1-3.4l0,0c0.7-1.2,2.2-1.7,3.4-1l0,0c1.2,0.7,1.7,2.2,1,3.4l0,0
	C668,417.8,666.4,418.3,665.2,417.6z"/>
</svg>
