<svg version="1.1" id="Layer_1" xmlns="http://www.w3.org/2000/svg" x="0" y="0" viewBox="0 0 854.6 802.2" xml:space="preserve"><style>.st0,.st3{fill:#fff}.st3{stroke:#000;stroke-width:.5;stroke-miterlimit:10}.st4{fill:#ccc}.st5{opacity:.75}.st6,.st7{fill:#e6e6e6;stroke:#000;stroke-width:.5;stroke-miterlimit:10}.st7{fill:#b3b3b3}.st8{fill:#d3d3d3}.st9{fill:#eb058c}.st10,.st11,.st9{stroke:#000;stroke-width:.5;stroke-miterlimit:10}.st10{stroke-linejoin:round;fill:#fff}.st11{fill:#0077bf}.st12{fill:#bcbcbc}.st13,.st15{fill:#1a1a1a}.st15{stroke:#000;stroke-miterlimit:10}.st15,.st16{stroke-width:.5}.st16,.st17{fill:none;stroke:#000;stroke-miterlimit:10}.st18{fill:#ffe600}.st18,.st19,.st20,.st22{stroke:#000;stroke-width:.5;stroke-miterlimit:10}.st20,.st22{fill:#d8d8d8}.st22{fill:#8c8c8c}.st23{display:none}.st24{display:inline}.st25{fill:#4e5050}.st26{fill:#373737}.st27{display:inline;fill:#de5558}.st28,.st29,.st30{display:inline;fill:#983240}.st29,.st30{fill:#c84353}.st30{fill:#d1ceba}.st33{fill:#656565}.st34{fill:#424242}.st36,.st38,.st39{fill:#e2e2e2;stroke:#000;stroke-width:.5;stroke-miterlimit:10}.st38,.st39{fill:#757575}.st39{fill:#ededed}</style><path class="st0" d="M809.5 347.5C928.8 537.4 783.9 697 692 748.6c-205.9 115.6-437.5 8.3-437.5 8.3C112 697.9 45 529.8 45 529.8c-59.2-209.1 1.4-341.5 1.4-341.5S168.9-18.6 372.9 1.4s218.4 148.4 262.5 206.7 150.7 91.4 174.1 139.4z" id="Layer_7_1_"/><path fill="#c6c6c6" d="M94.4 356.3v-98.1h33.1v-43.4h37.1v22.3h27.9v-68.7h45v51h36v36.7h90.1V152.4h41v17h31.2v45.4h27.7v-69.4h37v52.8H529v21.2h58.8v-50h27.8v-24h26.8v44.3h35.5v29.7h23.7v-29.7h28.3v166.6z"/><path fill="#eaeaea" d="M95 356.3h635v197H95z"/><path class="st3" d="M74.9 111v462.6h675V111h-675zm655 442.6h-635V131h635v422.6z"/><path class="st3" d="M340.6 185h234.9v242.9H340.6z"/><ellipse class="st4" cx="516.8" cy="449.2" rx="30.5" ry="3.8"/><ellipse class="st4" cx="435.1" cy="478.9" rx="30.5" ry="3.8"/><ellipse class="st4" cx="668.2" cy="483" rx="30.5" ry="3.8"/><ellipse class="st4" cx="613.3" cy="438.8" rx="61.4" ry="3.8"/><g class="st5"><path class="st6" d="M572.1 437.8c.4 0 .8-.3.8-.7l23.2-115c.1-.5-.2-.9-.6-1-.5-.1-.9.2-1 .6v.1l-23.2 115c-.1.5.2.9.8 1zM589.3 437.8c.4 0 .8-.3.8-.7l23.2-115c.1-.5-.2-.9-.7-1-.4-.1-.9.2-1 .6l-23.2 115c-.1.5.2.9.7 1 0 .1.1.1.2.1z"/><path class="st6" d="M574 431.2h16.7c.5 0 .9-.4.9-.8s-.4-.9-.8-.9h-16.7c-.5 0-.9.4-.9.8s.3.9.8.9zM575.8 422h16.7c.5 0 .8-.4.8-.9s-.4-.8-.8-.8h-16.7c-.5 0-.8.4-.8.9-.1.4.3.8.8.8zM577.6 412.8h16.7c.5 0 .8-.4.8-.9s-.4-.8-.8-.8h-16.7c-.5 0-.8.4-.8.9 0 .4.3.8.8.8zM579.4 403.6h16.7c.5 0 .9-.4.9-.8 0-.5-.4-.9-.8-.9h-16.7c-.5 0-.9.4-.9.8s.3.9.8.9zM581.1 394.4h16.7c.5 0 .9-.4.9-.8s-.4-.9-.8-.9h-16.7c-.5 0-.9.4-.9.8s.5.9.8.9zM582.9 385.2h16.7c.5 0 .8-.4.8-.9s-.4-.8-.8-.8h-16.7c-.5 0-.8.4-.8.9s.4.8.8.8zM584.8 376.1h16.7c.5 0 .8-.4.8-.9s-.4-.8-.8-.8h-16.7c-.5 0-.8.4-.8.9-.1.4.3.7.8.8zM586.5 366.9h16.7c.5 0 .8-.4.8-.9s-.4-.8-.8-.8h-16.7c-.5 0-.8.4-.8.9.1.4.3.8.8.8zM588.3 357.7H605c.5 0 .8-.4.8-.9s-.4-.8-.8-.8h-16.7c-.5 0-.8.4-.8.9-.1.4.3.8.8.8zM590.9 348.5h15.9c.5 0 .9-.4.9-.9s-.4-.9-.9-.9H591c-.5 0-.9.4-.9.9s.4.9.8.9zM592.8 339.3h15.8c.5 0 .9-.4.9-.9s-.4-.9-.9-.9h-15.8c-.5 0-.9.4-.9.9s.3.9.9.9zM594.5 330.1h15.8c.5 0 .9-.4.9-.9s-.4-.9-.9-.9h-15.8c-.5 0-.9.4-.9.9.2.5.4.9.9.9z"/></g><path class="st7" d="M620.9 437.8h.2c.5-.1.7-.6.6-1l-25.5-115c-.1-.5-.6-.7-1-.6-.5.1-.7.6-.6 1l25.5 115c0 .4.4.6.8.6zM638 437.8h.2c.5-.1.7-.6.6-1l-25.5-115c-.1-.5-.6-.7-1-.6-.5.1-.7.6-.6 1l25.5 115c.1.3.4.6.8.6z"/><path class="st7" d="M619.9 431.2h16.7c.5 0 .9-.4.9-.8s-.4-.9-.8-.9H620c-.5 0-.8.4-.8.9-.1.4.3.8.7.8zM617.8 422h16.7c.5 0 .8-.4.8-.9s-.4-.8-.8-.8h-16.7c-.5 0-.8.4-.8.9 0 .4.4.8.8.8zM615.8 412.8h16.7c.5 0 .8-.4.8-.9s-.4-.8-.8-.8h-16.7c-.5 0-.8.4-.8.9-.1.4.2.8.8.8zM613.6 403.6h16.7c.5 0 .9-.4.9-.8 0-.5-.4-.9-.8-.9h-16.7c-.5 0-.9.4-.9.8 0 .5.3.9.8.9zM611.5 394.4h16.7c.5 0 .8-.4.8-.9s-.4-.8-.8-.8h-16.7c-.5 0-.8.4-.8.9-.1.4.3.8.8.8zM609.4 385.2h16.7c.5 0 .8-.4.8-.9s-.4-.8-.8-.8h-16.7c-.5 0-.9.4-.9.8s.4.9.9.9zM607.3 376.1H624c.5 0 .8-.4.8-.9s-.4-.8-.8-.8h-16.7c-.5 0-.8.4-.8.9-.1.4.3.7.8.8zM605.2 366.9h16.6c.5 0 .8-.4.8-.9s-.4-.8-.8-.8h-16.7c-.5 0-.8.4-.8.9 0 .4.5.8.9.8zM603.1 357.7h16.7c.5 0 .8-.4.8-.9s-.4-.8-.8-.8h-16.7c-.5 0-.8.4-.8.9-.1.4.3.8.8.8zM601.8 348.5h15.8c.5 0 .9-.4.9-.9s-.4-.9-.9-.9h-15.8c-.5 0-.9.4-.9.9.1.5.4.9.9.9zM599.8 339.3h15.8c.5 0 .9-.4.9-.9s-.4-.9-.9-.9h-15.8c-.5 0-.9.4-.9.9s.3.9.9.9zM597.6 330.1h15.8c.5 0 .9-.4.9-.9s-.4-.9-.9-.9h-15.8c-.5 0-.9.4-.9.9.1.5.4.9.9.9z"/><g><path class="st8" d="M557.3 377.9h-75.7c-7.4 0-13.3-6-13.3-13.3v-19.4c0-7.4 6-13.3 13.3-13.3h75.7c7.4 0 13.3 6 13.3 13.3v19.4c0 7.4-6 13.3-13.3 13.3z"/></g><g><path class="st9" d="M566.8 244.8l7.5 5.6 22.8 11.3-10.1 2.5-15-10.3-7-7.2z"/><path class="st10" d="M566.8 244.8s0-2.4-.8-2.7-.5.7-.5.7-2.2-2.2-2.6-1.8c-.4.4-.1 2.9 2.2 5.7l1.7-1.9z"/><path class="st11" d="M609.6 279.4l-3.2 31.9 1 26h-10.1l-.5-2 7-.9-3.8-23-3.2-28.5z"/><path class="st3" d="M467.1 214.8h90.2c7.4 0 13.3 6 13.3 13.3v28c0 7.4-6 13.3-13.3 13.3h-90.2c-7.4 0-13.3-6-13.3-13.3v-28c0-7.3 6-13.3 13.3-13.3z"/><path class="st11" d="M453.8 227.9v-3.4c0-5.3 4.3-9.7 9.7-9.7H561c5.3 0 9.7 4.3 9.7 9.7v3.4H453.8z"/><circle class="st3" cx="558.9" cy="221.3" r="2"/><circle class="st3" cx="553.1" cy="221.3" r="2"/><circle class="st3" cx="547.3" cy="221.3" r="2"/><path class="st12" d="M459.9 235.1h104.6v4H459.9zM459.9 242.1h104.6v4H459.9zM459.9 249.1h104.6v4H459.9zM459.9 256.1h104.6v4H459.9z"/><path class="st9" d="M562.4 246.3c3.4 2.2 13.4 9.5 17.3 10.6l8 2.4 8.9 1 13.7 14.7-14.2 8.4-10.5-17.8-9.4-4.1c-3.9-1.7-13.3-10.2-16-13.5l2.2-1.7z"/><path class="st11" d="M641.9 295.7l-18.5.8-13.1-21.6-7.5 4.5-3.5 2 21.3 22.4 20.5-4.7 2 5.2 1.7-.7z"/><path class="st13" d="M643.1 304.3l-3-4.9v-3.6l1.8-.1 2.9 7.9zM596.8 335.3l.5 2h10.1l-.2-3.9z"/><path class="st11" d="M596.9 285.8l3.6-4.5-8.4-11-3.3.9zM602.3 266.3l-2.2 1.9 7.2 8.6 3-1.9z"/><path class="st11" d="M600.1 268.2l-9-8.6 3.1.4 6.9 7.3z"/><path fill="#0077bf" stroke="#000" stroke-width=".5" stroke-linecap="round" stroke-linejoin="round" stroke-miterlimit="10" d="M585.6 265.5l5.2 5.2-2 .5z"/><path class="st10" d="M562.4 246.3s-.5-2.5-1.4-2.9-.4 1.1-.4 1.1-1.9-2.6-2.9-2.4.8 4.9 2.5 5.9l2.2-1.7zM596.6 260.2l-4-5.5-3.8.4 3.2 4.6z"/><g><path class="st3" d="M592.4 244.9c-.9-.3-2.7.9-3.4 2-.6 1.1-1.6 3.1-2.1 3-.2 0-.6-.1-.7-.1-.2.1-.1.8.2 1.1.4.5-1.7 4.4 1.1 6.2 2.8 1.8 6.2 1.2 7.9-1.1 1.6-2.1 5.7-8.4-3-11.1z"/><path class="st13" d="M600.1 247.4s0-2.6-2.4-3.5c-2.5-1-6.9-.5-7.3-1.5-.4-1-2.5.8-2 1.9s1.1 2.1 1.1 2.1 1.9-.7 3.2.2c1.2.9 2.6 1.9 3.4 1.6 0 0-2.5 2.6-1.4 4.1.3.4 1.2 0 1.3.3.2.8-1 1.8-1.8 2.3 0 0 .8 2 .1 2.4s1.6.8 3.7-1c1.9-1.9 4.5-6.9 2.1-8.9z"/><ellipse transform="rotate(-65.632 589.565 249.578)" class="st15" cx="589.6" cy="249.6" rx=".5" ry=".4"/><path class="st16" d="M588.3 252.8s-1.2.8-1.7.1M588.8 252.9s.1-.2-.1-.5"/><path class="st17" d="M591.3 249.3s-.7-1.2-1.6-1.5"/><path class="st16" d="M590.4 250.1s-.1-.8-.9-1.2"/></g><g><path class="st18" d="M601.4 252.8c3.4-3.2 3.6-8.5.5-11.7s-8.3-3.2-11.7.1l11.2 11.6z"/><path class="st18" d="M602.3 240.9c-.9-.9-2.3-.9-3.2-.1l-3.4 3.3c-.9.9-.9 2.3-.1 3.2.9.9 2.3.9 3.2.1l3.4-3.3c.9-.9 1-2.3.1-3.2z"/><path class="st18" d="M601.4 252.8c.1 2.7-4-1.1-7.1-4.3s-7-7.5-4.1-7.2l11.2 11.5z"/></g></g><g><path class="st9" d="M505.6 394.9l-3.2-33-4.3-35.3 3.4-.5 7.3 33.5 11.4.9 11.9-33.9 3.2.4-8.7 36.3.4 30.7z"/><path class="st3" d="M503.2 324.7c0 1.5-1.2 2.8-2.8 2.8-1.5 0-2.8-1.2-2.8-2.8 0-1.5 1.2-2.8 2.8-2.8 1.7.1 2.8 1.3 2.8 2.8zM536.2 325.7c0 1.5-1.2 2.8-2.8 2.8-1.5 0-2.8-1.2-2.8-2.8s1.2-2.8 2.8-2.8c1.5 0 2.8 1.2 2.8 2.8zM517.8 357.7v4s-4.9-.4-4.9-.6c-.1-.2 0-4.6 0-4.6l4.9 1.2z"/><path class="st3" d="M521 349.8s.9 4.4-1 7.5-9.7 4.7-10.7-3.7 11.6-4.5 11.7-3.8z"/><path class="st19" d="M519.8 355.5l.1-.1c.2-.3.3-.5.5-.8 0 0 0-.1.1-.1.1-.2.2-.4.3-.7 0-.1.1-.1.1-.2.1-.3.2-.5.3-.8.2-.8.3-1.6.2-2.4-.1-.5-.2-1-.4-1.4-.4-.9-1-1.8-1.8-2.4-.2-.1-.4-.3-.6-.4-.1-.1-.3-.2-.4-.3-.4-.2-.7-.3-1.1-.4-.4-.1-.9-.2-1.3-.2h-.3c-.3 0-.7 0-1 .1h-.2c-.4.1-.7.2-1.1.3h-.1c-1.6.7-2.9 2-3.4 3.8-.9 3.2.5 8.2 3.7 9.1 1.5.4 3.1-.2 4.4-1.2.5-.4 1-.9 1.5-1.4v-.1c.1.1.3-.1.5-.4z"/><path class="st11" d="M527 394l-3.5 51H520l-3.2-48.3h-1.3l-3.2 49.2-2.7-.1-4-50.9-.6-6.3 3.9.1 1-17.5 10.7-.4 1.6 18.1h4.8z"/><path class="st13" d="M523.5 445l8.1 2.1-.3 1.2H520V445zM512.3 445.9v2.9l-10.4-.4v-2l7.7-.6z"/><path class="st18" d="M522.4 348.7c0-4.1-3.2-7.4-7.1-7.4-3.9 0-7.1 3.3-7.1 7.4h14.2z"/><path class="st18" d="M515.5 340.9h-.4c-1 0-1.8.8-1.8 1.8v4.5c0 1 .8 1.8 1.8 1.8h.4c1 0 1.8-.8 1.8-1.8v-4.5c0-1-.8-1.8-1.8-1.8z"/><path class="st18" d="M522.4 348.7c1.8 1.5-3.2 1.8-7.1 1.8-3.9 0-9.1-.1-7.1-1.8h14.2z"/><path class="st11" d="M520.6 370.8l-.4-10.3-2-.2.3 10.6zM509.9 371.2l-1.1-11.6 2 .1 1 11.5z"/><g><path class="st3" d="M542.2 325.7h-67.5c-7.4 0-13.4-6-13.4-13.4v-15.6c0-7.4 6-13.4 13.4-13.4h67.5c7.4 0 13.4 6 13.4 13.4v15.6c0 7.4-6 13.4-13.4 13.4z"/><path class="st11" d="M502.2 298.7h-.9v9.7c0 1.5-.9 2.9-2.7 2.9h-17.3v.5c0 1.3 1.5 2.7 3.1 2.7h13.3l5.1 3-.7-3h.2c1.6 0 2.3-1.4 2.3-2.7V301c0-1.3-.7-2.3-2.4-2.3z"/><path class="st11" d="M496.1 291.9H476c-1.8 0-3.8 1.6-3.8 3.1v12.2c0 1.4 1.7 2.4 3.4 2.6l-1.1 4.1 6.9-4.1h14.7c1.8 0 3.4-1.1 3.4-2.6V295c.1-1.5-1.6-3.1-3.4-3.1zm-17 10.3c-1 0-1.8-.8-1.8-1.8s.8-1.8 1.8-1.8 1.8.8 1.8 1.8-.8 1.8-1.8 1.8zm6.8 0c-1 0-1.8-.8-1.8-1.8s.8-1.8 1.8-1.8 1.8.8 1.8 1.8-.8 1.8-1.8 1.8zm6.7 0c-1 0-1.8-.8-1.8-1.8s.8-1.8 1.8-1.8 1.8.8 1.8 1.8-.8 1.8-1.8 1.8z"/><g><path class="st11" d="M528.9 303.7zM544 295v15.8c0 1.7-1.6 3.1-3.6 3.1h-7.1L529 318l-4.4-4.1h-7.1c-2 0-3.6-1.4-3.6-3.1V295c0-1.7 1.6-3.1 3.6-3.1h23c1.9-.1 3.5 1.3 3.5 3.1zm-7.8 6.6c0-2.2-1.8-3.9-3.9-3.9-1.4 0-2.6.7-3.3 1.8-.7-1.1-1.9-1.8-3.3-1.8-2.2 0-3.9 1.8-3.9 3.9 0 1 .4 2 1.1 2.7l5.9 5.5 6.1-5.2c.7-.7 1.3-1.8 1.3-3z"/></g></g></g><g><path class="st8" d="M411 338.1h-57.5c-4.4 0-7.9-3.5-7.9-7.9v-43.4c0-4.4 3.5-7.9 7.9-7.9H411c4.4 0 7.9 3.5 7.9 7.9v43.4c0 4.4-3.5 7.9-7.9 7.9zM411 397.8h-57.5c-4.4 0-7.9-3.5-7.9-7.9v-26.2c0-4.4 3.5-7.9 7.9-7.9H411c4.4 0 7.9 3.5 7.9 7.9v26.2c0 4.4-3.5 7.9-7.9 7.9z"/></g><g><path class="st9" d="M430.2 360.2l2.2 18.3 7.2 18.9-6.5 2.1-5.2-19.8-.8-19.5z"/><path class="st11" d="M446.8 418.2l-3.2 33 1 28.9h-11.2l-.6-2.1 7.7-1.1-4.1-25.6-3.8-31.9z"/><path class="st11" d="M450.5 417.8l2.6 28.1 17.1 22.8-2.1 10.8h-5l3-2.3.5-6.9-16.4-18.5-14.8-33.1z"/><path class="st9" d="M418.6 361.7c1.5 4.2 8.5 20.1 11.7 23.2l6.7 6.5 8.3 5.6 5.2 20.9-17.8 1.6-1.1-22.9-7.1-8.9c-4.9-4.7-7.8-21.2-8.7-25.8h2.8"/><path class="st11" d="M449.8 360.2h-57.5c-4.4 0-7.9-3.5-7.9-7.9v-43.4c0-4.4 3.5-7.9 7.9-7.9h57.5c4.4 0 7.9 3.5 7.9 7.9v43.4c-.1 4.3-3.6 7.9-7.9 7.9z"/><path class="st0" d="M403.1 309l1-.4c.4-.1.7-.3 1-.4.7.6.6.7.8 1.3l-8 3.6 3.4 1.6c1.7.8 3.2 1.5 4.5 2.1-.2.7 0 .8-.8 1.4-.4-.1-.8-.3-1.2-.5-2.3-1-5.2-2.4-8.8-4v-.5c0-.1.1-.1.4-.3-.1 0-.2.1-.3.1v-.1c0-.1 0-.2.2-.3l7.8-3.6zM403.1 342.6l1-.4c.4-.1.7-.3 1-.4.7.6.6.7.8 1.3l-8 3.6 3.4 1.6c1.7.8 3.2 1.5 4.5 2.1-.2.7 0 .8-.8 1.4-.4-.1-.8-.3-1.2-.5-2.3-1-5.2-2.4-8.8-4v-.5c0-.1.1-.1.4-.3-.1 0-.2.1-.3.1v-.1c0-.1 0-.2.2-.3l7.8-3.6zM421.1 311.1h24.1v3.3h-24.1zM432.1 319.2h13.2v3.3h-13.2zM414.1 344.8h31v3.3h-31zM421.1 335.1h24.1v3.3h-24.1zM432.1 327h13.2v3.3h-13.2zM410.2 341.1l-3.2 11.7 2.4.1 3.2-11.6z"/><path class="st3" d="M418.6 361.7s1.2-2.5.9-3.4c-.3-1-.9.2-.9.2s-1.7-3.6-2.9-3.3c-1.2.3 0 6.6 0 6.6"/><path class="st13" d="M466.6 470.3l1.8-4 1.8 2.4-2.1 10.8h-5l3-2.3zM440.5 476.9h4l.1 3.2h-11.2l-.6-2.1z"/><path class="st11" d="M432.6 419.4l-.5-13.5 3.3-.4 2.2 13.5zM448.6 418l-3-13.4h1.5l3.4 13.2zM435.4 405.5l-3.8-9 2 9.2zM438.4 392.3l7.2 12.3h1.5l-5.3-10z"/><path class="st3" d="M444.6 396.5l.5-5.3-4.2-1.4-.7 3.6z"/><g><path class="st3" d="M443.5 378.8c-.9-.3-2.7.9-3.4 2-.6 1.1-1.6 3.1-2.1 3-.2 0-.6-.1-.7-.1-.2.1-.1.8.2 1.1.4.5-1.7 4.4 1.1 6.2 2.8 1.8 6.2 1.2 7.9-1.1 1.6-2.2 5.6-8.5-3-11.1z"/><path class="st13" d="M451.1 381.3s0-2.6-2.4-3.5c-2.5-1-6.9-.5-7.3-1.5s-2.5.8-2 1.9 1.1 2.1 1.1 2.1 1.9-.7 3.2.2c1.2.9 2.6 1.9 3.4 1.6 0 0-2.5 2.6-1.4 4.1.3.4 1.2 0 1.3.3.2.8-1 1.8-1.8 2.3 0 0 .8 2 .1 2.4s1.6.8 3.7-1c2-2 4.6-6.9 2.1-8.9z"/><ellipse transform="rotate(-65.632 440.6 383.475)" class="st15" cx="440.6" cy="383.5" rx=".5" ry=".4"/><path class="st16" d="M439.4 386.7s-1.2.8-1.7.1M439.8 386.8s.1-.2-.1-.5"/><path class="st17" d="M442.4 383.2s-.7-1.2-1.6-1.5"/><path class="st16" d="M441.5 384s-.1-.8-.9-1.2"/></g><g><path class="st18" d="M452.5 386.7c3.4-3.2 3.6-8.5.5-11.7s-8.3-3.2-11.7.1l11.2 11.6z"/><path class="st18" d="M453.4 374.7c-.9-.9-2.3-.9-3.2-.1l-3.4 3.3c-.9.9-.9 2.3-.1 3.2.9.9 2.3.9 3.2.1l3.4-3.3c.8-.8.9-2.3.1-3.2z"/><path class="st18" d="M452.5 386.7c.1 2.7-4-1.1-7.1-4.3-3.1-3.2-7-7.5-4.1-7.2l11.2 11.5z"/></g></g><g id="Layer_8_1_"><path class="st15" d="M696.5 364.5s-2.3 2.3-6.1-3.3c-1.9-2.8-3.4-5.9-4.5-9.1 0 0-2.1-5.7-7-8.8 0 0-3.6-3-9.4-1.8 0 0-5.3.9-7.1 5.8 0 0-2.9 5.9 1.5 12.8.9 1.4 1.5 2.9 1.9 4.4l11.8 6.2 14.3-.9 1.2-1.2c0-.1 2.5-.4 3.4-4.1z"/><path class="st15" d="M691.9 369.7s-6.4 4.7-12 3.6l-15-6.3.8-2.5"/><path class="st3" d="M674 363.8c0 .1.1.2.1.3 0 .1-.1.2-.1.2-.8.8-1.6 1.6-2.5 2.2-.5.4-1.2.8-1.8.5-.4-.2-.7-.4-.9-.8l-1.1-1.4c.5-.4.5-1.1.5-1.8-.1-.8-.2-1.7-.4-2.5 1.4-1 3-1.7 4.7-2 .6-.1.9 0 .9.6s0 1.1.1 1.6c-.1 1.2.1 2.2.5 3.1z"/><path class="st3" d="M670.8 360.7c-1.7.7-3.7 1.1-5.3.1-1.2-.7-1.8-2-2.2-3.3-.4-1.4-.6-2.8-.6-4.3-.1-.9-.1-1.8 0-2.7.3-1.3 1.1-2.4 1.8-3.4 1.3-1.8 2.7-3.6 4.7-4.3 1.2-.3 2.4-.4 3.6-.3.9 0 1.8.1 2.7.4.7.3 1.4.7 1.9 1.2 1.6 1.4 2.7 3.3 3 5.5.9 5.6-5 9.3-9.6 11.1z"/><path class="st13" d="M676.5 358.7s-3.9-8.2-.6-12.4c0 0-2.5 1-4.5.4 0 0-5-1.4-7.1 2.5 0 0-1 2.4-2.1 3.3v-2l1.7-3.9 4.7-4 4.4-1.1 4.4 1.8 2.8 2.8 1.3 6.5-2.7 4.5-2.3 1.6z"/><path class="st3" d="M673.8 352.8c-.2 0-.4-.1-.6-.3l-.3-.6c-.1-.1-.2-.3-.3-.4s-.2-.3-.3-.3c-.4-.2-.8-.3-1.2-.1-.4.2-.8.4-1.1.7M668 350l-.2-.5c-.1-.4-.4-.8-.8-1-.3-.1-.7-.1-1-.1-.4 0-.7-.1-.9-.4M670.9 349.5c1.3-.4 2.7.1 3.4 1.3M669 348.3c-.4-.9-1.2-1.5-2.1-1.6M667.4 354.5c-.3-.3-.5-.6-.7-.9-.1-.1-.1-.1-.1-.2 0-.2.1-.4.3-.6l.8-.8M667.1 358.1h-.8c-.1 0-.2 0-.3.1-.4 0-.6-.4-.6-.7 0-.4 0-.7.1-1.1 0-.3-.1-.6 0-.9 0-.1 0-.2.1-.2.1-.1.3-.1.5 0 1 .5 1.9 1.2 2.7 2l.1.1c.1.2-.5.5-.6.6-.5.1-.8.1-1.2.1z"/><path class="st9" d="M665.3 358.1c.2.3.6.4.9.5.4 0 .7 0 1.1-.1.3-.1.5-.2.8-.2.2-.1.4-.1.6-.3.2-.1.3-.3.3-.5-.4.2-.9.3-1.3.4-.6.1-1.2 0-1.8-.3-.2-.1-.4-.4-.6-.2s-.2.5 0 .7zM665.5 354.8c.8 0 1.5.3 2 .8s1 1.1 1.4 1.7c0 0 .1.1 0 .1h-.1c-.7-.2-1.2-.7-1.8-1.1-.5-.3-1-.6-1.5-.7-.4-.1-.7-.8 0-.8z"/><ellipse transform="rotate(-48.677 671.584 351.553)" class="st15" cx="671.6" cy="351.6" rx=".7" ry=".5"/><ellipse transform="rotate(-48.677 666.636 349.083)" class="st15" cx="666.6" cy="349.1" rx=".7" ry=".5"/><path class="st13" d="M666.3 477.6v6h-.9l-.6-2.5-1.6 2.5h-8.9c3.4-.7 6.3-2.9 7.9-6h4.1zM672.2 477.6v6h.9l.6-2.5 1.6 2.5h8.9c-3.4-.7-6.3-2.9-7.9-6h-4.1z"/><path class="st20" d="M678.8 399.9c-3.1-4.1 2.8-25.2 2.8-25.2l14.8 26 2.6-1.5c-9-28.4-12.8-32.9-12.8-32.9-1.9-1.9-12.1-2.3-12.1-2.3-1.9 1.4-4.4 1.7-6.6.8-1.5-1.2-10.2-.7-10.2-.7l-13.2-2.3-11.4-14.3-2.6 1.4 11.2 19.2 14.9 4.8s5.8 15.3 3.6 27c0 0 10.3 5.5 19 0zM659.4 377.1s2.4 4.9 8 2.2M679.8 377.1s-2.4 4.9-8 2.2"/><path class="st9" d="M672.2 477.6h4.1s8.4-53.4 7.7-65.8c-.4-7.8-5.2-11.9-5.2-11.9H677l-.7-22h-13.6l-1.7 22h-1.2s-4.8 4.1-5.2 11.9c-.7 12.4 7.7 65.8 7.7 65.8h4.1s1.3-64.5 2.9-63.8c0 0 3.8 25 2.9 63.8z"/><path class="st3" d="M632.8 347.6c2.3-3.6-1-2-1-2s-2.9-3.6-3.9-3.1c-1.3.7 2.2 6.5 2.2 6.5l2.7-1.4zM696.3 400.7c-2.2 3.7 1 2 1 2s3 3.5 4 2.9c1.3-.8-2.5-6.4-2.5-6.4l-2.5 1.5z"/><path class="st18" d="M684.4 349c2-5.1-.6-10.9-5.8-13s-11.1.4-13.1 5.5l18.9 7.5z"/><path class="st18" d="M675.9 334.7c-1.5-.6-3.2.1-3.8 1.6l-1.9 4.8c-.6 1.5.1 3.2 1.6 3.8 1.5.6 3.2-.1 3.8-1.6l1.9-4.8c.7-1.5-.1-3.2-1.6-3.8z"/><path class="st18" d="M684.4 349c1.6 2.9-5.1.6-10.4-1.4s-12-4.9-8.6-6l19 7.4z"/><path class="st9" d="M676.2 377.8l5.3-13-3-.4-4.2 13.4zM662.6 377.8l-2.5-13.7h2.1l2.8 13.7z"/></g><g id="Layer_2_1_"><ellipse class="st4" cx="320.2" cy="437.2" rx="61.4" ry="3.8"/><g class="st5"><path class="st6" d="M279.1 436.3c.4 0 .8-.3.8-.7l23.2-115c.1-.5-.2-.9-.6-1-.5-.1-.9.2-1 .6v.1l-23.2 115c-.1.5.2.9.7 1h.1zM296.1 436.3c.4 0 .8-.3.8-.7l23.2-115c.1-.5-.2-.9-.7-1-.4-.1-.9.2-1 .6l-23.2 115c-.1.5.2.9.7 1l.2.1z"/><path class="st6" d="M280.9 429.6h16.7c.5 0 .9-.4.9-.8 0-.5-.4-.9-.8-.9h-16.8c-.5 0-.9.4-.9.8.1.5.5.9.9.9zM282.6 420.4h16.7c.5 0 .8-.4.8-.9s-.4-.8-.8-.8h-16.7c-.5 0-.8.4-.8.9.1.4.4.8.8.8zM284.5 411.2h16.7c.5 0 .8-.4.8-.9s-.4-.8-.8-.8h-16.7c-.5 0-.8.4-.8.9-.1.5.3.8.8.8zM286.2 402H303c.5 0 .9-.4.9-.8 0-.5-.4-.9-.8-.9h-16.7c-.5 0-.9.4-.9.8-.1.6.3.9.7.9zM288.1 392.9h16.7c.5 0 .9-.4.9-.8s-.4-.9-.8-.9h-16.7c-.5 0-.9.4-.9.8-.2.5.3.9.8.9zM289.9 383.7h16.7c.5 0 .8-.4.8-.9s-.4-.8-.8-.8h-16.7c-.5 0-.8.4-.8.9-.1.4.3.8.8.8zM291.6 374.5h16.7c.5 0 .8-.4.8-.9s-.4-.8-.8-.8h-16.7c-.5 0-.8.4-.8.9 0 .4.3.8.8.8zM293.4 365.3h16.7c.5 0 .8-.4.8-.9s-.4-.8-.8-.8h-16.7c-.5 0-.8.4-.8.9 0 .4.4.8.8.8zM295.1 356.1h16.7c.5 0 .8-.4.8-.9s-.4-.8-.8-.8h-16.7c-.5 0-.8.4-.8.9.1.4.5.8.8.8zM297.9 346.9h15.8c.5 0 .9-.4.9-.9s-.4-.9-.9-.9h-15.8c-.5 0-.9.4-.9.9 0 .6.4.9.9.9zM299.6 337.8h15.8c.5 0 .9-.4.9-.9s-.4-.9-.9-.9h-15.8c-.5 0-.9.4-.9.9s.4.9.9.9zM301.4 328.6h15.8c.5 0 .9-.4.9-.9s-.4-.9-.9-.9h-15.8c-.5 0-.9.4-.9.9.1.5.5.9.9.9z"/></g><path class="st7" d="M327.8 436.3h.2c.5-.1.7-.6.6-1l-25.5-115c-.1-.5-.6-.7-1-.6-.5.1-.7.6-.6 1l25.5 115c.1.3.4.6.8.6zM344.9 436.3h.2c.5-.1.7-.6.6-1l-25.5-115c-.1-.5-.6-.7-1-.6-.5.1-.7.6-.6 1l25.5 115c0 .3.4.6.8.6z"/><path class="st7" d="M326.9 429.6h16.7c.5 0 .9-.4.9-.8 0-.5-.4-.9-.8-.9h-16.8c-.5 0-.8.4-.8.9-.1.4.3.8.8.8zM324.8 420.4h16.7c.5 0 .8-.4.8-.9s-.4-.8-.8-.8h-16.7c-.5 0-.8.4-.8.9-.1.4.2.8.8.8zM322.6 411.2h16.7c.5 0 .8-.4.8-.9s-.4-.8-.8-.8h-16.7c-.5 0-.8.4-.8.9s.3.8.8.8zM320.5 402h16.7c.5 0 .9-.4.9-.8 0-.5-.4-.9-.8-.9h-16.7c-.5 0-.9.4-.9.8-.1.6.4.9.8.9zM318.4 392.9h16.7c.5 0 .8-.4.8-.9s-.4-.8-.8-.8h-16.7c-.5 0-.8.4-.8.9 0 .4.4.8.8.8zM316.2 383.7H333c.5 0 .8-.4.8-.9s-.4-.8-.8-.8h-16.7c-.5 0-.9.4-.9.8.1.5.5.9.8.9zM314.1 374.5h16.7c.5 0 .8-.4.8-.9s-.4-.8-.8-.8h-16.7c-.5 0-.8.4-.8.9.1.4.5.8.8.8zM312.1 365.3h16.7c.5 0 .8-.4.8-.9s-.4-.8-.8-.8h-16.7c-.5 0-.8.4-.8.9-.1.4.3.8.8.8zM310 356.1h16.7c.5 0 .8-.4.8-.9s-.4-.8-.8-.8H310c-.5 0-.8.4-.8.9-.1.4.3.8.8.8zM308.6 346.9h15.8c.5 0 .9-.4.9-.9s-.4-.9-.9-.9h-15.8c-.5 0-.9.4-.9.9.2.6.5.9.9.9zM306.6 337.8h15.8c.5 0 .9-.4.9-.9s-.4-.9-.9-.9h-15.8c-.5 0-.9.4-.9.9.1.5.4.9.9.9zM304.5 328.6h15.8c.5 0 .9-.4.9-.9s-.4-.9-.9-.9h-15.8c-.5 0-.9.4-.9.9s.5.9.9.9z"/><g><path class="st8" d="M434.6 269.4h-75.7c-7.4 0-13.3-6-13.3-13.3v-28c0-7.4 6-13.3 13.3-13.3h75.7c7.4 0 13.3 6 13.3 13.3v28c.1 7.4-5.9 13.3-13.3 13.3z"/></g><g><path class="st3" d="M377.6 280.6h-75.7c-7.4 0-13.3-6-13.3-13.3v-28c0-7.4 6-13.3 13.3-13.3h75.7c7.4 0 13.3 6 13.3 13.3v28c.2 7.3-5.8 13.3-13.3 13.3z"/><path class="st11" d="M391.1 267.5v3.4c0 5.3-4.3 9.7-9.7 9.7h-83.1c-5.3 0-9.7-4.3-9.7-9.7v-3.4h102.5zM299.1 263.4l16.3-17.4 10.1 12.3 5.7-3.6 12.8 8.7 19.6-13.4 14 14.1z"/><circle class="st18" cx="347.6" cy="243.3" r="5.3"/></g><g><path class="st3" d="M355.9 282.4l.8-3s2.2-1.3 3.2-2.4c0 0 .2.9-.8 1.9l2.8-1.5s1.5-.3.7.6-.8 1.9-1 2.7c-.2.8-3.2 2.1-4 3.4s-1.7-1.7-1.7-1.7zM322.4 277.8c0-.7 1.1-3.2 0-4.5s-3.4-2-2.4-6.5 6.5-3.9 8.5-3.6c1.8.3 3.5 6.7 2.8 7.9-1.1 1.8-3.2 2.9-3.2 2.9l-.8 5.6-4.9-1.8z"/><path class="st19" d="M329 267.9s-1.1-.6-1.3-.1.4 1.3 1.2 2.4c0 0-.4 2.8-1.8 3.2-1.5.5-4.2 1.1-4.2 1.1s-6-5-3.8-10.5 8.7-4.5 11.7-2.8c0 0 .5 1.2.2 2.1-.5 1.3-1.9 2.7-2 4.6z"/><path class="st3" d="M305.6 281.5v-.1c.1-.4.5-1.8 0-2-.6-.2-2.9-.5-2.9-.5l-.1 2.3 1.4.7 1.6-.4z"/><path class="st9" d="M330.8 277.4c3.3-1.6 15.4 10.9 15.4 10.9l10.1-7.1 1.5 2.8s-9.2 9.7-12.5 9.5c-2.3-.1-7.2-2.8-10.5-5.4-.4 5.3-2.2 11.1-3.6 16.5l-11.3-1.8s-2.4-8.9-2.4-13.8c0 0-3.2 5.3-6.2 4.5-3.5-.9-7.5-11.7-7.5-11.7l1.8-1.2 5.5 7.7s5.4-8.5 8.5-9.9c0 0 1.7-.4 3.7-1h7.5z"/><path class="st13" d="M324.4 358.8l.6 4.7-2.9-.2-2-5.1zM318.1 358.1l1.5 5.2H317l-1.6-5.6z"/><path class="st11" d="M318.1 299.8s-2.8 10.7-2.9 12.8-1.2 35.8 0 45.1l2.9.4 5.5-43.1c1.6 1.1-3.6 43.2-3.6 43.2l4.3.5s6.2-25 7.1-43.1c.2-4.2 2.1-10.4 1.6-13.4l-2.8-.7.8-13.2h-10.5l-.8 11.5h-1.6zM331.1 288.3l.9-11-2.6-.3-.8 11.3zM320.6 288.3l-1.1-9.9 2.3-1 .6 10.9z"/><path d="M329.4 277.2l-1.2-1.8-5.1.4-1.3 1.5c0 .1 2.2 2.2 7.6-.1h0z" fill="#f2f2f2" stroke="#000" stroke-width=".5" stroke-miterlimit="10"/><path class="st18" d="M331.1 260.9c-.6-3.5-3.9-5.9-7.4-5.3-3.5.6-5.9 3.9-5.3 7.4l12.7-2.1z"/><path class="st18" d="M323.6 255.3c-1 .2-1.7 1.1-1.5 2.1l.6 3.4c.2 1 1.1 1.7 2.1 1.5 1-.2 1.7-1.1 1.5-2.1l-.6-3.4c-.2-.9-1.1-1.6-2.1-1.5z"/><path class="st18" d="M331.1 260.9c1.8 1.1-2.6 2-6.1 2.6s-8.1 1.2-6.6-.5l12.7-2.1z"/></g></g><g><path class="st11" d="M570.6 208.1H345.8v-5.2c0-7.3 5.9-13.2 13.2-13.2h198.6c7.3 0 13.2 5.9 13.2 13.2v5.2h-.2z"/><path class="st0" d="M555.3 196.3H545c-.4 0-.8-.3-.8-.8s.3-.8.8-.8h10.3c.4 0 .8.3.8.8s-.3.8-.8.8zM555.3 199.8H545c-.4 0-.8-.3-.8-.8s.3-.8.8-.8h10.3c.4 0 .8.3.8.8s-.3.8-.8.8zM555.3 203.2H545c-.4 0-.8-.3-.8-.8s.3-.8.8-.8h10.3c.4 0 .8.3.8.8s-.3.8-.8.8z"/></g><path class="st3" d="M366.5 131h12.8v422.6h-12.8z"/><g><ellipse class="st4" cx="298.1" cy="736" rx="183.9" ry="22.1"/><path class="st22" d="M147.6 626.8h13.8v118.3h-13.8zM227 630.4h13.8v118.3H227zM205.6 613.2h13.8v118.3h-13.8zM286.6 613.2h13.8v118.3h-13.8z"/><path class="st20" d="M143.5 599.7L87.2 432.8h89.2l61 162.1 70.6 4.8-81 10.2z"/><path class="st22" d="M227 637.1l-83.5-10.3v-27.1l83.5 10.2z"/><path class="st22" d="M87.2 432.8l-11.7 11.4 68 182.6 9.6 1.2zM227 637.1l83.1-12.8-2.1-24.6-81 10.2z"/><g id="XMLID_50_"><g id="XMLID_235_" class="st23"><g id="XMLID_245_" class="st24"><path id="XMLID_247_" class="st25" d="M212.4 641l-2.5 9.4-8.3 30.6c-.5 1.8-2.2 3-4.1 3h-4.2c-2.2 0-4.1-1.6-4.2-3.8l-3.2-40.9 26.5 1.7z"/><path id="XMLID_246_" class="st26" d="M212.4 641l-2.5 9.4c-4.1.2-8 0-10.8.7-4.4 1.1-3.3 21.5-3.3 33h-2.5c-2.2 0-4.1-1.6-4.2-3.8l-3.2-40.9 26.5 1.6z"/></g><g id="XMLID_242_" class="st24"><path id="XMLID_244_" class="st25" d="M321.5 641l.3 9.4.9 30.6c.1 1.8-1.3 3-3.2 3h-4.2c-2.2 0-4.5-1.6-5.3-3.8l-15.7-40.9 27.2 1.7z"/><path id="XMLID_243_" class="st26" d="M321.5 641l.3 9.4c-4.1.2-8.1 0-10.7.7-4.1 1.1 3.5 21.5 6.7 33h-2.5c-2.2 0-4.5-1.6-5.3-3.8l-15.7-40.9 27.2 1.6z"/></g><path id="XMLID_241_" class="st27" d="M343.9 595c-.7 10.7-2.8 19.8-5.4 27-5.9 16.4-14.3 24.4-14.3 24.4h-120s-1.3-7.1-2.9-17.5c-.3-2-.6-4.3-1-6.5-1.8-12.2-3.8-27.5-4.8-41.5-.3-4.2-.9-8-1.6-11.7-1.7-8.9-4.2-17.1-5.7-28-.3-2.2-.6-4.5-.8-6.9-.6-7 12.6 10.4 13 4.7.2-2.2 2.6-5.2 6.3-8.3 9.5-8 27.8-16.9 38.9-16.9 5.4 0 10.6-.7 15.7-1.5 10.7-1.6 20.9-3.3 30.9 1.1 14.9 6.4 53.8 47 51.7 81.6z"/><path id="XMLID_240_" class="st28" d="M316.1 595c-.7 11.1-3 20.5-5.8 27.9-5.9 15.8-14 23.5-14 23.5h-120s-1.1-7.1-2.8-17.7c-.2-1.1-.4-2.3-.6-3.5-2.6-16.7-6.4-40.4-9.2-59.9-1.4-9.5-2.6-18-3.4-24.2-.3-2.8-.6-5.1-.8-6.9-.6-5.9 3.6-11.7 5.1-16.8.3-.9.4-1.8.5-2.6.6-8.1-6.1-28.9-7.2-37.2-4.3-30.9-3.9-58.9 9.3-67.8 8-5.4 14.7-6.3 20.1-4.2 17.6 6.7 22.6 45.1 22.6 65.5 0 26.7 9 46.6 9 46.6s26.5-9.5 42.2-5.5c1.1.3 2.2.6 3.2 1.1 14.9 6.5 53.9 47.1 51.8 81.7z"/><path id="XMLID_239_" class="st29" d="M300.6 628.5c7.1-8.5 9.2-22.1 7.8-33.4-1.4-11.4-13.5-26.3-25.6-33.4-12.1-7.1-52-11.4-80.4-10s-47 10-47 10l2.9 63.3s-2.8 8.4 7.8 9.2c10.8.7 134.5-5.7 134.5-5.7z"/><path id="XMLID_238_" class="st29" d="M45.5 404.7s36.8-4.5 72-4.5 65.8 4.1 69.7 5.5c29.4 10 28.5 91.3 31.7 112.1 3.2 20.8 26.9 44.4 26.9 44.4s-101.3-3-129.4 2.8c-28.2 5.9-49-34.7-49-34.7L45.5 404.7z"/><path id="XMLID_237_" class="st30" d="M328.4 610l-5.2 12.1-10.4 24.4h-54.6c1-4.7 2.5-10.9 4.3-16.1.2-.5.3-.9.5-1.4.3-.9.6-1.7.9-2.5 4.1-10-6.7-63-8.1-64.5s-12.5.2-19-1.6c-6.5-1.7-30.5-.8-37.7-2.8-7.1-2-13.1-1-22-2.7l3.4-27.9 44.7-4.2 51-4.1 43.8 47 8.4 44.3z"/><path id="XMLID_236_" class="st30" d="M338.5 622.1c-5.9 16.4-14.3 24.4-14.3 24.4h-112c.7-4.4 1.4-9.2 2.2-13.9.5-2.6.9-5.2 1.4-7.8 7.4 1.2 17.1 2.5 31.3 3.6 5.6.4 10.8.6 15.6.5 17.6-.2 29.9-3.1 40.8-5.1 2.3-.4 4.5-.8 6.6-1.1 3.2-.4 6.3-.7 9.5-.7h3.3c5.5.1 10.7.1 15.6.1z"/></g><path id="XMLID_234_" class="st3" d="M144.9 465.7s.7 3 1.8 7.9c19.9-1.8 39.7-3.8 59.6-4.9 1.5-.1 3-.2 4.5-.2 0-.2.1-.4.1-.7l-1.4-29.9s-8.5-6.6-12-8.9c-7.4-4.9-1.7-23-1.7-23l-22.9-11.2-4.5 31s-13.5 4.5-22.3 9.7c-.1 0 2.7 21.9-1.2 30.2z"/><path id="XMLID_4_" class="st11" d="M312.8 535.9c-15.4-2.7-59.6-15.9-59.6-15.9-.5-1.8-18-53.7-18-53.7-6.9-18.6-20.4-37.1-20.4-37.1s-9.5 8.9-12.4 18.4 5.6 26.7 11.3 36.7 14.6 44.8 17.3 51.1 4.6 12.7 14.2 13.1c9.6.4 53.2-1.1 68-.1l-.4-12.5z"/><path id="XMLID_213_" class="st11" d="M248.6 568.4s-14 13.1-43.3 21.3c-29.3 8.1-48-11.3-48-11.3-.6-19.9-28.6-99.5-32.2-107.2s-4.5-30.5-4.5-30.5c3.6-3.8 27.2-13.7 34.9-17.9l1.8.3 31.8 5.7 15-2c.3.1.5.1.8.2 5.7 1.2 7.8.7 9.8 2.3 6.1 4.8 5.9 11.3 8 30.1 1.8 15.3 6 39.4 8.7 56.1 2.8 16.7 17.2 52.9 17.2 52.9z"/><path id="XMLID_208_" class="st3" d="M164.1 417.9s18.6 8.2 29.2 9.5c0 0-.8 8.7-6.8 11.9 0 0-23.6-8.4-30.9-16.5l8.5-4.9z"/><path id="XMLID_204_" class="st3" d="M193.2 427.4s4.6-.8 8.9-5.1l3.5 6.4s-.7 5.3-4.4 8.3c0 0-6.6-2.8-8-9.6z"/><g id="XMLID_173_"><path id="XMLID_2_" class="st11" d="M139.2 552c-9.5 3.8-19.9-3.3-19.9-13.5 0-34.8-2.1-91.1.8-97.9 2.7-6.2 26.5 13.8 27.5 25 1.4 15 .8 35.6-1.4 55.7l51.4-8.6 8 12.9-66.4 26.4z"/></g><path class="st13" d="M342.5 730.4v14.7h7.9v-3.6l5 3.6h36.8l-32.7-14.7zM383.9 685.4l4.7 13.8 7.5-2.6-1.1-3.4 5.9 1.8 34.7-12.2-35.7-3z"/><path id="XMLID_1_" d="M183.4 603.7c-14.6-4.1-26.1-25.4-26.1-25.4 8.2-1.8 28.7-6.9 47.3-11.3 9.9-2.4 19.3-4.6 26.1-6.1 19.4-4.2 79.3-17.6 94.6-15.3 15.3 2.4 19.3 6.5 24.8 18 1.7 3.5 11.4 21.6 17.2 36 13.2 32.8 31.8 80.1 31.8 80.1s-5.4 4.6-14.8 6.6c0 0-49.5-78.8-56.8-91 0 0-8.8 3-10.1.3 0 0-.7 3.7-5.4 3.1-4.8-.7-9.8 5-9.8 5h-57.7s-22.1 2.9-29.3 2.9c-8.1 0-31.8-2.9-31.8-2.9z" fill="#bfbfbf" stroke="#000" stroke-width=".5" stroke-miterlimit="10"/><g id="XMLID_112_"><path id="XMLID_117_" d="M244.4 603.7s24.4-10.4 37.6-13.6c13.2-3.2 35.3-13.3 39.9-12.8 4.6.6 16.6.1 20.3 18.6 3.7 18.6 18.1 134.1 18.1 134.1s-5.8 3.3-18.6.9L298 603.7h-53.6 0z" fill="#aaa" stroke="#000" stroke-width=".5" stroke-miterlimit="10"/></g><g id="XMLID_53_" class="st23"><g id="XMLID_94_" class="st24"><path id="XMLID_97_" class="st33" d="M79 644.3l-2.6 9.4-8.3 30.6c-.5 1.8-2.2 3-4.1 3h-4.2c-2.2 0-4.1-1.6-4.2-3.8l-3.2-40.9 26.6 1.7z"/><path id="XMLID_95_" class="st34" d="M79 644.3l-2.6 9.4c-4.1.2-8 0-10.8.7-4.4 1.1-3.3 21.5-3.3 33h-2.5c-2.2 0-4.1-1.6-4.2-3.8l-3.2-40.9 26.6 1.6z"/></g><g id="XMLID_56_" class="st24"><path id="XMLID_93_" class="st33" d="M175.2 644.3l.3 9.4.9 30.6c.1 1.8-1.3 3-3.2 3H169c-2.2 0-4.5-1.6-5.3-3.8L148 642.6l27.2 1.7z"/><path id="XMLID_57_" class="st34" d="M175.2 644.3l.3 9.4c-4.1.2-8.1 0-10.7.7-4.1 1.1 3.5 21.5 6.7 33H169c-2.2 0-4.5-1.6-5.3-3.8L148 642.7l27.2 1.6z"/></g><path id="XMLID_55_" class="st27" d="M209.4 595c-.7 11.1-3 20.4-5.7 27.8-.8 2.2-1.6 4.3-2.5 6.1-5.4 11.7-11.5 17.5-11.5 17.5h-120s-.8-4.6-2-11.8c-2.1-12.9-5.3-34.4-6.7-53.6-1.2-16.1-6.3-27-8.1-46.7-.6-7 12.6 10.4 13 4.7.1-1.6 1.3-3.5 3.3-5.6 8.1-8.5 37.2-21 42.3-21.8 10.7-1.6 36.1-2.6 46.2 1.7 2 .8 4.3 2.3 7 4.2 6.9 5 15.6 13.4 23.5 23.6 6.9 8.9 13.3 19.3 17.2 29.9 2.8 8.1 4.5 16.2 4 24z"/><path id="XMLID_54_" class="st28" d="M181.7 595c-.7 11.9-3.3 21.6-6.3 29.3-.6 1.5-1.2 3.1-1.9 4.5-5.5 11.8-11.6 17.7-11.6 17.7h-120s-.7-4.5-1.9-11.7c-4.1-25.4-13.5-85.1-14.9-100.4-.6-7 5.1-13.6 5.5-19.4.6-8.1-6.1-28.9-7.2-37.2-4.3-30.9-3.9-58.9 9.3-67.8 4.8-3.2 9-4.8 12.8-5.2 23.5-2.3 29.9 43.5 29.9 66.4 0 26.7 9 46.6 9 46.6s26.5-9.5 42.2-5.5c1.1.3 2.2.6 3.2 1.1 7.1 3 19.5 13.7 30.4 27.8 6 7.7 11.5 16.5 15.5 25.5 4.2 9.4 6.5 19 6 28.3z"/></g><g id="XMLID_51_" class="st23"><path id="XMLID_52_" class="st30" d="M203.7 622.8c-1.2-.2-2.3-.3-3.5-.4-4.1-.5-8-.6-12.9-.3-5.5.3-8.9 1.2-11.9 2.2l-2.4.9c-5.2 2.1-10.7 4.8-26.7 6.8-18.1 2.2-49.3 2.5-78.7 2.6-9.6 0-19 .1-27.6.2 1.1 7.1 1.9 11.7 1.9 11.7h170.4c1-6.9 2.3-14.5 3.7-21.6-4.8-.8-8.8-1.5-12.3-2.1z"/></g></g><path class="st3" d="M313.1 543.8l17.3 1.6s11.1-2.8 13.2-5.7c2.2-2.9-13.1-4.5-14.3-2.2-1.2 2.2-1.9 5.4-1.9 5.4"/><g id="XMLID_46_"><path id="XMLID_47_" d="M353.1 539.7h-28.6c-2.1 0-4-1-5.2-2.6l-.8-1.1c-.2-.3 0-.8.4-.8h39.8c.4 0 .6.5.4.8l-.8 1.1c-1.2 1.6-3.2 2.6-5.2 2.6z" fill="#efefef" stroke="#000" stroke-width=".5" stroke-miterlimit="10"/></g><g id="XMLID_42_"><path id="XMLID_43_" class="st36" d="M225.7 516.9v-2.2h-2c-2.3 0-4.2-1.7-4.5-3.9l-.8-4.9c-.1-.4.1-.6.2-.7.1-.1.3-.3.7-.3h3.3v-2.2h-3.3c-.9 0-1.8.4-2.4 1.1-.6.7-.9 1.6-.7 2.5l.8 4.9c.5 3.3 3.3 5.7 6.7 5.8l2-.1z"/></g><g id="XMLID_48_"><path id="XMLID_49_" class="st36" d="M227.9 519.9H241c1.7 0 3.1-1.2 3.4-2.9l2.6-14.9c.1-.8-.5-1.4-1.2-1.4h-22.6c-.8 0-1.3.7-1.2 1.4l2.6 14.9c.2 1.7 1.6 2.9 3.3 2.9z"/></g><path class="st3" d="M312.8 535.9s25.7-7.5 28.6-5.4c2.9 2-.9 3.4-4.5 4.8s-4.5-.1-2-2.6M197.6 512.8s7.5-4.6 11.1-5.6 2.8 1.1 3.6 1.2 9.1-3.2 9.6-.9c.9 3.8-3.4 4.7-3.1 5.3.3.7 1 9.2-.6 10.4s-12.7 2.5-12.7 2.5l-7.9-12.9zM234.6 494.6s-4.8-2-2.3-4.8c2.5-2.7.2-4.8.2-4.8s3.9.6 3.6 2.8c-.4 2.3-2.6 4.3-1.5 6.8zM239.6 498.1s-4-1.7-1.9-3.9.1-3.9.1-3.9 3.2.5 2.9 2.3c-.2 1.8-2 3.5-1.1 5.5zM211.7 348c4.7 1.8 8.2 12.3 7.3 18.8-.9 6.6-3.3 17.7-.9 19 .9.5 2.9 1.4 3.2 2.1.6 1.1-2.2 3.3-4.2 3.9-3.1 1-6.8 23.4-23.8 21.9-17-1.6-29-14.7-28.9-29.3.2-14.5 3.6-52.8 47.3-36.4z"/><path class="st13" d="M172.5 334.1s8-10.4 21.1-6.7c13.1 3.7 29.8 19.6 34.6 17s7.5 10.9 2.1 13.9-11.1 5.2-11.1 5.2-5.6-9.1-13.4-9.2-16.5-.7-18.5-4.2c0 0 2.1 18.3-7.5 21.1-2.4.7-4.8-3.6-6-2.7-3.6 2.5-1.6 10.7.1 14.9 0 0-9.6 5.7-7.9 9.7 1.7 4-9.3-1.7-11.9-16-2.9-14.3 2.1-42.6 18.4-43z"/><ellipse transform="rotate(-76.597 208.763 376.24)" class="st15" cx="208.8" cy="376.3" rx="2.8" ry="2.2"/><path class="st16" d="M203.5 393s2.4 7.2 6.6 5.9M201.1 392.1s.3-1.1 1.8-1.6"/><path class="st17" d="M202.1 369.3s6.4-2.7 11.3-.9"/><path class="st16" d="M203.6 375.5s3.2-3 7.5-1.8"/></g><g><path fill="#a3a3a3" stroke="#000" stroke-width=".5" stroke-miterlimit="10" d="M8 72h808.9v9H8z"/><path class="st38" d="M809.5 61.7h15.3V91h-15.3zM.2 61.7h15.3V91H.2z"/><path class="st39" d="M25.9 70h29.7v483H25.9z"/><path class="st16" d="M40.8 70v483"/><g><path class="st39" d="M770.9 70h29.7v483h-29.7z"/><path class="st16" d="M785.8 70v483"/></g></g></svg>