<?xml version="1.0" encoding="utf-8"?>
<!-- Generator: Adobe Illustrator 21.0.2, SVG Export Plug-In . SVG Version: 6.00 Build 0)  -->
<svg version="1.1" id="Layer_1" xmlns="http://www.w3.org/2000/svg" xmlns:xlink="http://www.w3.org/1999/xlink" x="0px" y="0px"
	 viewBox="0 0 854.6 802.2" style="enable-background:new 0 0 854.6 802.2;" xml:space="preserve">
<style type="text/css">
	.st0{fill:#FFFFFF;}
	.st1{fill:#C6C6C6;}
	.st2{fill:#EAEAEA;}
	.st3{fill:#FFFFFF;stroke:#000000;stroke-width:0.5;stroke-miterlimit:10;}
	.st4{fill:#CCCCCC;}
	.st5{opacity:0.75;}
	.st6{fill:#E6E6E6;stroke:#000000;stroke-width:0.5;stroke-miterlimit:10;}
	.st7{fill:#B3B3B3;stroke:#000000;stroke-width:0.5;stroke-miterlimit:10;}
	.st8{fill:#D3D3D3;}
	.st9{fill:#EB058C;stroke:#000000;stroke-width:0.5;stroke-miterlimit:10;}
	.st10{fill:#FFFFFF;stroke:#000000;stroke-width:0.5;stroke-linejoin:round;stroke-miterlimit:10;}
	.st11{fill:#0077BF;stroke:#000000;stroke-width:0.5;stroke-miterlimit:10;}
	.st12{fill:#BCBCBC;}
	.st13{fill:#1A1A1A;}
	.st14{fill:#0077BF;stroke:#000000;stroke-width:0.5;stroke-linecap:round;stroke-linejoin:round;stroke-miterlimit:10;}
	.st15{fill:#1A1A1A;stroke:#000000;stroke-width:0.5;stroke-miterlimit:10;}
	.st16{fill:none;stroke:#000000;stroke-width:0.5;stroke-miterlimit:10;}
	.st17{fill:none;stroke:#000000;stroke-miterlimit:10;}
	.st18{fill:#FFE600;stroke:#000000;stroke-width:0.5;stroke-miterlimit:10;}
	.st19{stroke:#000000;stroke-width:0.5;stroke-miterlimit:10;}
	.st20{fill:#D8D8D8;stroke:#000000;stroke-width:0.5;stroke-miterlimit:10;}
	.st21{fill:#F2F2F2;stroke:#000000;stroke-width:0.5;stroke-miterlimit:10;}
	.st22{fill:#8C8C8C;stroke:#000000;stroke-width:0.5;stroke-miterlimit:10;}
	.st23{display:none;}
	.st24{display:inline;}
	.st25{fill:#4E5050;}
	.st26{fill:#373737;}
	.st27{display:inline;fill:#DE5558;}
	.st28{display:inline;fill:#983240;}
	.st29{display:inline;fill:#C84353;}
	.st30{display:inline;fill:#D1CEBA;}
	.st31{fill:#BFBFBF;stroke:#000000;stroke-width:0.5;stroke-miterlimit:10;}
	.st32{fill:#AAAAAA;stroke:#000000;stroke-width:0.5;stroke-miterlimit:10;}
	.st33{fill:#656565;}
	.st34{fill:#424242;}
	.st35{fill:#EFEFEF;stroke:#000000;stroke-width:0.5;stroke-miterlimit:10;}
	.st36{fill:#E2E2E2;stroke:#000000;stroke-width:0.5;stroke-miterlimit:10;}
	.st37{fill:#A3A3A3;stroke:#000000;stroke-width:0.5;stroke-miterlimit:10;}
	.st38{fill:#757575;stroke:#000000;stroke-width:0.5;stroke-miterlimit:10;}
	.st39{fill:#EDEDED;stroke:#000000;stroke-width:0.5;stroke-miterlimit:10;}
</style>
<g>
	<g id="Layer_7_1_">
		<path class="st0" d="M809.5,347.5C928.8,537.4,783.9,697,692,748.6c-205.9,115.6-437.5,8.3-437.5,8.3
			c-142.5-59-209.5-227.1-209.5-227.1c-59.2-209.1,1.4-341.5,1.4-341.5S168.9-18.6,372.9,1.4s218.4,148.4,262.5,206.7
			S786.1,299.5,809.5,347.5z"/>
	</g>
	<polygon class="st1" points="94.4,356.3 94.4,258.2 127.5,258.2 127.5,214.8 164.6,214.8 164.6,237.1 192.5,237.1 192.5,168.4 
		237.5,168.4 237.5,219.4 273.5,219.4 273.5,256.1 292.9,256.1 363.6,256.1 363.6,152.4 404.6,152.4 404.6,169.4 435.8,169.4 
		435.8,214.8 463.5,214.8 463.5,145.4 500.5,145.4 500.5,198.2 529,198.2 529,219.4 587.8,219.4 587.8,169.4 615.6,169.4 
		615.6,145.4 642.4,145.4 642.4,189.7 677.9,189.7 677.9,219.4 701.6,219.4 701.6,189.7 729.9,189.7 729.9,356.3 	"/>
	<g>
		<rect x="95" y="356.3" class="st2" width="635" height="197"/>
		<path class="st3" d="M74.9,111v462.6h675V111H74.9z M729.9,553.6h-635V131h635V553.6z"/>
		<g>
			<g>
				<rect x="340.6" y="185" class="st3" width="234.9" height="242.9"/>
			</g>
			<ellipse class="st4" cx="516.8" cy="449.2" rx="30.5" ry="3.8"/>
			<ellipse class="st4" cx="435.1" cy="478.9" rx="30.5" ry="3.8"/>
			<ellipse class="st4" cx="668.2" cy="483" rx="30.5" ry="3.8"/>
			<g>
				<ellipse class="st4" cx="613.3" cy="438.8" rx="61.4" ry="3.8"/>
				<g class="st5">
					<path class="st6" d="M572.1,437.8c0.4,0,0.8-0.3,0.8-0.7l23.2-115c0.1-0.5-0.2-0.9-0.6-1c-0.5-0.1-0.9,0.2-1,0.6c0,0,0,0,0,0.1
						l-23.2,115C571.2,437.3,571.5,437.7,572.1,437.8L572.1,437.8L572.1,437.8z"/>
					<path class="st6" d="M589.3,437.8c0.4,0,0.8-0.3,0.8-0.7l23.2-115c0.1-0.5-0.2-0.9-0.7-1c-0.4-0.1-0.9,0.2-1,0.6l-23.2,115
						c-0.1,0.5,0.2,0.9,0.7,1C589.1,437.8,589.2,437.8,589.3,437.8L589.3,437.8z"/>
					<path class="st6" d="M574,431.2h16.7c0.5,0,0.9-0.4,0.9-0.8s-0.4-0.9-0.8-0.9l0,0h-16.7c-0.5,0-0.9,0.4-0.9,0.8
						S573.5,431.2,574,431.2L574,431.2z"/>
					<path class="st6" d="M575.8,422h16.7c0.5,0,0.8-0.4,0.8-0.9s-0.4-0.8-0.8-0.8h-16.7c-0.5,0-0.8,0.4-0.8,0.9
						C574.9,421.6,575.3,422,575.8,422z"/>
					<path class="st6" d="M577.6,412.8h16.7c0.5,0,0.8-0.4,0.8-0.9s-0.4-0.8-0.8-0.8h-16.7c-0.5,0-0.8,0.4-0.8,0.9
						C576.8,412.4,577.1,412.8,577.6,412.8z"/>
					<path class="st6" d="M579.4,403.6h16.7c0.5,0,0.9-0.4,0.9-0.8c0-0.5-0.4-0.9-0.8-0.9l0,0h-16.7c-0.5,0-0.9,0.4-0.9,0.8
						S578.9,403.6,579.4,403.6L579.4,403.6z"/>
					<path class="st6" d="M581.1,394.4h16.7c0.5,0,0.9-0.4,0.9-0.8s-0.4-0.9-0.8-0.9l0,0h-16.7c-0.5,0-0.9,0.4-0.9,0.8
						S580.8,394.4,581.1,394.4L581.1,394.4z"/>
					<path class="st6" d="M582.9,385.2h16.7c0.5,0,0.8-0.4,0.8-0.9s-0.4-0.8-0.8-0.8h-16.7c-0.5,0-0.8,0.4-0.8,0.9
						S582.5,385.2,582.9,385.2z"/>
					<path class="st6" d="M584.8,376.1h16.7c0.5,0,0.8-0.4,0.8-0.9s-0.4-0.8-0.8-0.8h-16.7c-0.5,0-0.8,0.4-0.8,0.9
						C583.9,375.7,584.3,376,584.8,376.1z"/>
					<path class="st6" d="M586.5,366.9h16.7c0.5,0,0.8-0.4,0.8-0.9s-0.4-0.8-0.8-0.8h-16.7c-0.5,0-0.8,0.4-0.8,0.9
						C585.8,366.5,586,366.9,586.5,366.9z"/>
					<path class="st6" d="M588.3,357.7H605c0.5,0,0.8-0.4,0.8-0.9s-0.4-0.8-0.8-0.8h-16.7c-0.5,0-0.8,0.4-0.8,0.9
						C587.4,357.3,587.8,357.7,588.3,357.7z"/>
					<path class="st6" d="M590.9,348.5h15.9c0.5,0,0.9-0.4,0.9-0.9s-0.4-0.9-0.9-0.9H591c-0.5,0-0.9,0.4-0.9,0.9
						S590.5,348.5,590.9,348.5z"/>
					<path class="st6" d="M592.8,339.3h15.8c0.5,0,0.9-0.4,0.9-0.9s-0.4-0.9-0.9-0.9h-15.8c-0.5,0-0.9,0.4-0.9,0.9
						C591.9,338.9,592.2,339.3,592.8,339.3z"/>
					<path class="st6" d="M594.5,330.1h15.8c0.5,0,0.9-0.4,0.9-0.9s-0.4-0.9-0.9-0.9h-15.8c-0.5,0-0.9,0.4-0.9,0.9
						C593.8,329.7,594,330.1,594.5,330.1L594.5,330.1z"/>
				</g>
				<path class="st7" d="M620.9,437.8c0.1,0,0.1,0,0.2,0c0.5-0.1,0.7-0.6,0.6-1l0,0l-25.5-115c-0.1-0.5-0.6-0.7-1-0.6
					c-0.5,0.1-0.7,0.6-0.6,1l25.5,115C620.1,437.6,620.5,437.8,620.9,437.8z"/>
				<path class="st7" d="M638,437.8c0.1,0,0.1,0,0.2,0c0.5-0.1,0.7-0.6,0.6-1l0,0l-25.5-115c-0.1-0.5-0.6-0.7-1-0.6
					c-0.5,0.1-0.7,0.6-0.6,1l25.5,115C637.3,437.5,637.6,437.8,638,437.8z"/>
				<path class="st7" d="M619.9,431.2h16.7c0.5,0,0.9-0.4,0.9-0.8s-0.4-0.9-0.8-0.9l0,0H620c-0.5,0-0.8,0.4-0.8,0.9
					C619.1,430.8,619.5,431.2,619.9,431.2z"/>
				<path class="st7" d="M617.8,422h16.7c0.5,0,0.8-0.4,0.8-0.9s-0.4-0.8-0.8-0.8h-16.7c-0.5,0-0.8,0.4-0.8,0.9
					C617,421.6,617.4,422,617.8,422z"/>
				<path class="st7" d="M615.8,412.8h16.7c0.5,0,0.8-0.4,0.8-0.9s-0.4-0.8-0.8-0.8h-16.7c-0.5,0-0.8,0.4-0.8,0.9
					C614.9,412.4,615.2,412.8,615.8,412.8z"/>
				<path class="st7" d="M613.6,403.6h16.7c0.5,0,0.9-0.4,0.9-0.8c0-0.5-0.4-0.9-0.8-0.9l0,0h-16.7c-0.5,0-0.9,0.4-0.9,0.8
					C612.8,403.2,613.1,403.6,613.6,403.6L613.6,403.6z"/>
				<path class="st7" d="M611.5,394.4h16.7c0.5,0,0.8-0.4,0.8-0.9s-0.4-0.8-0.8-0.8h-16.7c-0.5,0-0.8,0.4-0.8,0.9
					C610.6,394,611,394.4,611.5,394.4z"/>
				<path class="st7" d="M609.4,385.2h16.7c0.5,0,0.8-0.4,0.8-0.9s-0.4-0.8-0.8-0.8h-16.7c-0.5,0-0.9,0.4-0.9,0.8
					S608.9,385.2,609.4,385.2L609.4,385.2z"/>
				<path class="st7" d="M607.3,376.1H624c0.5,0,0.8-0.4,0.8-0.9s-0.4-0.8-0.8-0.8h-16.7c-0.5,0-0.8,0.4-0.8,0.9
					C606.4,375.7,606.8,376,607.3,376.1z"/>
				<path class="st7" d="M605.2,366.9h16.6c0.5,0,0.8-0.4,0.8-0.9s-0.4-0.8-0.8-0.8h-16.7c-0.5,0-0.8,0.4-0.8,0.9
					C604.3,366.5,604.8,366.9,605.2,366.9z"/>
				<path class="st7" d="M603.1,357.7h16.7c0.5,0,0.8-0.4,0.8-0.9s-0.4-0.8-0.8-0.8h-16.7c-0.5,0-0.8,0.4-0.8,0.9
					C602.2,357.3,602.6,357.7,603.1,357.7z"/>
				<path class="st7" d="M601.8,348.5h15.8c0.5,0,0.9-0.4,0.9-0.9s-0.4-0.9-0.9-0.9h-15.8c-0.5,0-0.9,0.4-0.9,0.9
					C601,348.1,601.3,348.5,601.8,348.5z"/>
				<path class="st7" d="M599.8,339.3h15.8c0.5,0,0.9-0.4,0.9-0.9s-0.4-0.9-0.9-0.9h-15.8c-0.5,0-0.9,0.4-0.9,0.9
					S599.2,339.3,599.8,339.3z"/>
				<path class="st7" d="M597.6,330.1h15.8c0.5,0,0.9-0.4,0.9-0.9s-0.4-0.9-0.9-0.9h-15.8c-0.5,0-0.9,0.4-0.9,0.9
					C596.8,329.7,597.1,330.1,597.6,330.1z"/>
			</g>
			<g>
				<path class="st8" d="M557.3,377.9h-75.7c-7.4,0-13.3-6-13.3-13.3v-19.4c0-7.4,6-13.3,13.3-13.3h75.7c7.4,0,13.3,6,13.3,13.3
					v19.4C570.6,372,564.6,377.9,557.3,377.9z"/>
			</g>
			<g>
				<polygon class="st9" points="566.8,244.8 574.3,250.4 597.1,261.7 587,264.2 572,253.9 565,246.7 				"/>
				<path class="st10" d="M566.8,244.8c0,0,0-2.4-0.8-2.7s-0.5,0.7-0.5,0.7s-2.2-2.2-2.6-1.8c-0.4,0.4-0.1,2.9,2.2,5.7L566.8,244.8z
					"/>
				<polygon class="st11" points="609.6,279.4 606.4,311.3 607.4,337.3 597.3,337.3 596.8,335.3 603.8,334.4 600,311.4 596.8,282.9 
									"/>
				<g>
					<path class="st3" d="M467.1,214.8h90.2c7.4,0,13.3,6,13.3,13.3v28c0,7.4-6,13.3-13.3,13.3h-90.2c-7.4,0-13.3-6-13.3-13.3v-28
						C453.8,220.8,459.8,214.8,467.1,214.8z"/>
					<path class="st11" d="M453.8,227.9v-3.4c0-5.3,4.3-9.7,9.7-9.7H561c5.3,0,9.7,4.3,9.7,9.7v3.4H453.8z"/>
					<circle class="st3" cx="558.9" cy="221.3" r="2"/>
					<circle class="st3" cx="553.1" cy="221.3" r="2"/>
					<circle class="st3" cx="547.3" cy="221.3" r="2"/>
					<rect x="459.9" y="235.1" class="st12" width="104.6" height="4"/>
					<rect x="459.9" y="242.1" class="st12" width="104.6" height="4"/>
					<rect x="459.9" y="249.1" class="st12" width="104.6" height="4"/>
					<rect x="459.9" y="256.1" class="st12" width="104.6" height="4"/>
				</g>
				<path class="st9" d="M562.4,246.3c3.4,2.2,13.4,9.5,17.3,10.6l8,2.4l8.9,1l13.7,14.7l-14.2,8.4l-10.5-17.8l-9.4-4.1
					c-3.9-1.7-13.3-10.2-16-13.5L562.4,246.3z"/>
				<polygon class="st11" points="641.9,295.7 623.4,296.5 610.3,274.9 602.8,279.4 599.3,281.4 620.6,303.8 641.1,299.1 
					643.1,304.3 644.8,303.6 				"/>
				<polygon class="st13" points="643.1,304.3 640.1,299.4 640.1,295.8 641.9,295.7 644.8,303.6 				"/>
				<polygon class="st13" points="596.8,335.3 597.3,337.3 607.4,337.3 607.2,333.4 				"/>
				<polygon class="st11" points="596.9,285.8 600.5,281.3 592.1,270.3 588.8,271.2 				"/>
				<polygon class="st11" points="602.3,266.3 600.1,268.2 607.3,276.8 610.3,274.9 				"/>
				<polygon class="st11" points="600.1,268.2 591.1,259.6 594.2,260 601.1,267.3 				"/>
				<polygon class="st14" points="585.6,265.5 590.8,270.7 588.8,271.2 				"/>
				<path class="st10" d="M562.4,246.3c0,0-0.5-2.5-1.4-2.9s-0.4,1.1-0.4,1.1s-1.9-2.6-2.9-2.4s0.8,4.9,2.5,5.9L562.4,246.3z"/>
				<polygon class="st10" points="596.6,260.2 592.6,254.7 588.8,255.1 592,259.7 				"/>
				<g>
					<path class="st3" d="M592.4,244.9c-0.9-0.3-2.7,0.9-3.4,2c-0.6,1.1-1.6,3.1-2.1,3c-0.2,0-0.6-0.1-0.7-0.1
						c-0.2,0.1-0.1,0.8,0.2,1.1c0.4,0.5-1.7,4.4,1.1,6.2c2.8,1.8,6.2,1.2,7.9-1.1C597,253.9,601.1,247.6,592.4,244.9z"/>
					<path class="st13" d="M600.1,247.4c0,0,0-2.6-2.4-3.5c-2.5-1-6.9-0.5-7.3-1.5c-0.4-1-2.5,0.8-2,1.9s1.1,2.1,1.1,2.1
						s1.9-0.7,3.2,0.2c1.2,0.9,2.6,1.9,3.4,1.6c0,0-2.5,2.6-1.4,4.1c0.3,0.4,1.2,0,1.3,0.3c0.2,0.8-1,1.8-1.8,2.3c0,0,0.8,2,0.1,2.4
						s1.6,0.8,3.7-1C599.9,254.4,602.5,249.4,600.1,247.4z"/>
					
						<ellipse transform="matrix(0.4126 -0.9109 0.9109 0.4126 118.9696 683.6373)" class="st15" cx="589.6" cy="249.6" rx="0.5" ry="0.4"/>
					<path class="st16" d="M588.3,252.8c0,0-1.2,0.8-1.7,0.1"/>
					<path class="st16" d="M588.8,252.9c0,0,0.1-0.2-0.1-0.5"/>
					<path class="st17" d="M591.3,249.3c0,0-0.7-1.2-1.6-1.5"/>
					<path class="st16" d="M590.4,250.1c0,0-0.1-0.8-0.9-1.2"/>
				</g>
				<g>
					<path class="st18" d="M601.4,252.8c3.4-3.2,3.6-8.5,0.5-11.7s-8.3-3.2-11.7,0.1L601.4,252.8z"/>
					<path class="st18" d="M602.3,240.9L602.3,240.9c-0.9-0.9-2.3-0.9-3.2-0.1l-3.4,3.3c-0.9,0.9-0.9,2.3-0.1,3.2l0,0
						c0.9,0.9,2.3,0.9,3.2,0.1l3.4-3.3C603.1,243.2,603.2,241.8,602.3,240.9z"/>
					<path class="st18" d="M601.4,252.8c0.1,2.7-4-1.1-7.1-4.3s-7-7.5-4.1-7.2L601.4,252.8z"/>
				</g>
			</g>
			<g>
				<polygon class="st9" points="505.6,394.9 502.4,361.9 498.1,326.6 501.5,326.1 508.8,359.6 520.2,360.5 532.1,326.6 535.3,327 
					526.6,363.3 527,394 				"/>
				<path class="st3" d="M503.2,324.7c0,1.5-1.2,2.8-2.8,2.8c-1.5,0-2.8-1.2-2.8-2.8c0-1.5,1.2-2.8,2.8-2.8
					C502.1,322,503.2,323.2,503.2,324.7z"/>
				<path class="st3" d="M536.2,325.7c0,1.5-1.2,2.8-2.8,2.8c-1.5,0-2.8-1.2-2.8-2.8s1.2-2.8,2.8-2.8
					C534.9,322.9,536.2,324.1,536.2,325.7z"/>
				<path class="st3" d="M517.8,357.7v4c0,0-4.9-0.4-4.9-0.6c-0.1-0.2,0-4.6,0-4.6L517.8,357.7z"/>
				<path class="st3" d="M521,349.8c0,0,0.9,4.4-1,7.5s-9.7,4.7-10.7-3.7S520.9,349.1,521,349.8z"/>
				<path class="st19" d="M519.8,355.5l0.1-0.1c0.2-0.3,0.3-0.5,0.5-0.8c0,0,0-0.1,0.1-0.1c0.1-0.2,0.2-0.4,0.3-0.7
					c0-0.1,0.1-0.1,0.1-0.2c0.1-0.3,0.2-0.5,0.3-0.8c0.2-0.8,0.3-1.6,0.2-2.4c-0.1-0.5-0.2-1-0.4-1.4c-0.4-0.9-1-1.8-1.8-2.4
					c-0.2-0.1-0.4-0.3-0.6-0.4c-0.1-0.1-0.3-0.2-0.4-0.3c-0.4-0.2-0.7-0.3-1.1-0.4l0,0c-0.4-0.1-0.9-0.2-1.3-0.2c-0.1,0-0.2,0-0.3,0
					c-0.3,0-0.7,0-1,0.1c-0.1,0-0.1,0-0.2,0c-0.4,0.1-0.7,0.2-1.1,0.3c0,0,0,0-0.1,0c-1.6,0.7-2.9,2-3.4,3.8
					c-0.9,3.2,0.5,8.2,3.7,9.1c1.5,0.4,3.1-0.2,4.4-1.2l0,0c0.5-0.4,1-0.9,1.5-1.4c0,0,0,0,0-0.1C519.4,356,519.6,355.8,519.8,355.5
					z"/>
				<polygon class="st11" points="527,394 523.5,445 520,445 516.8,396.7 515.5,396.7 512.3,445.9 509.6,445.8 505.6,394.9 
					505,388.6 508.9,388.7 509.9,371.2 520.6,370.8 522.2,388.9 527,388.9 				"/>
				<polygon class="st13" points="523.5,445 531.6,447.1 531.3,448.3 520,448.3 520,445 				"/>
				<polygon class="st13" points="512.3,445.9 512.3,448.8 501.9,448.4 501.9,446.4 509.6,445.8 				"/>
				<g>
					<path class="st18" d="M522.4,348.7c0-4.1-3.2-7.4-7.1-7.4c-3.9,0-7.1,3.3-7.1,7.4H522.4z"/>
					<path class="st18" d="M515.5,340.9h-0.4c-1,0-1.8,0.8-1.8,1.8v4.5c0,1,0.8,1.8,1.8,1.8h0.4c1,0,1.8-0.8,1.8-1.8v-4.5
						C517.3,341.7,516.5,340.9,515.5,340.9z"/>
					<path class="st18" d="M522.4,348.7c1.8,1.5-3.2,1.8-7.1,1.8c-3.9,0-9.1-0.1-7.1-1.8H522.4z"/>
				</g>
				<polygon class="st11" points="520.6,370.8 520.2,360.5 518.2,360.3 518.5,370.9 				"/>
				<polygon class="st11" points="509.9,371.2 508.8,359.6 510.8,359.7 511.8,371.2 				"/>
				<g>
					<path class="st3" d="M542.2,325.7h-67.5c-7.4,0-13.4-6-13.4-13.4v-15.6c0-7.4,6-13.4,13.4-13.4h67.5c7.4,0,13.4,6,13.4,13.4
						v15.6C555.6,319.7,549.6,325.7,542.2,325.7z"/>
					<g>
						<path class="st11" d="M502.2,298.7h-0.9v9.7c0,1.5-0.9,2.9-2.7,2.9h-17.3v0.5c0,1.3,1.5,2.7,3.1,2.7h13.3l5.1,3l-0.7-3h0.2
							c1.6,0,2.3-1.4,2.3-2.7V301C504.6,299.7,503.9,298.7,502.2,298.7L502.2,298.7z"/>
						<path class="st11" d="M496.1,291.9H476c-1.8,0-3.8,1.6-3.8,3.1v12.2c0,1.4,1.7,2.4,3.4,2.6l-1.1,4.1l6.9-4.1h14.7
							c1.8,0,3.4-1.1,3.4-2.6V295C499.6,293.5,497.9,291.9,496.1,291.9L496.1,291.9z M479.1,302.2c-1,0-1.8-0.8-1.8-1.8
							s0.8-1.8,1.8-1.8s1.8,0.8,1.8,1.8S480.1,302.2,479.1,302.2L479.1,302.2z M485.9,302.2c-1,0-1.8-0.8-1.8-1.8s0.8-1.8,1.8-1.8
							s1.8,0.8,1.8,1.8S486.9,302.2,485.9,302.2L485.9,302.2z M492.6,302.2c-1,0-1.8-0.8-1.8-1.8s0.8-1.8,1.8-1.8s1.8,0.8,1.8,1.8
							S493.6,302.2,492.6,302.2L492.6,302.2z"/>
					</g>
					<g>
						<path class="st11" d="M528.9,303.7L528.9,303.7L528.9,303.7L528.9,303.7L528.9,303.7z M544,295v15.8c0,1.7-1.6,3.1-3.6,3.1
							h-7.1L529,318l-4.4-4.1h-7.1c-2,0-3.6-1.4-3.6-3.1V295c0-1.7,1.6-3.1,3.6-3.1h23C542.4,291.8,544,293.2,544,295L544,295z
							 M536.2,301.6c0-2.2-1.8-3.9-3.9-3.9c-1.4,0-2.6,0.7-3.3,1.8c-0.7-1.1-1.9-1.8-3.3-1.8c-2.2,0-3.9,1.8-3.9,3.9
							c0,1,0.4,2,1.1,2.7l5.9,5.5l6.1-5.2C535.6,303.9,536.2,302.8,536.2,301.6L536.2,301.6z"/>
					</g>
				</g>
			</g>
			<g>
				<path class="st8" d="M411,338.1h-57.5c-4.4,0-7.9-3.5-7.9-7.9v-43.4c0-4.4,3.5-7.9,7.9-7.9H411c4.4,0,7.9,3.5,7.9,7.9v43.4
					C418.9,334.6,415.4,338.1,411,338.1z"/>
				<path class="st8" d="M411,397.8h-57.5c-4.4,0-7.9-3.5-7.9-7.9v-26.2c0-4.4,3.5-7.9,7.9-7.9H411c4.4,0,7.9,3.5,7.9,7.9v26.2
					C418.9,394.3,415.4,397.8,411,397.8z"/>
			</g>
			<g>
				<polygon class="st9" points="430.2,360.2 432.4,378.5 439.6,397.4 433.1,399.5 427.9,379.7 427.1,360.2 				"/>
				<polygon class="st11" points="446.8,418.2 443.6,451.2 444.6,480.1 433.4,480.1 432.8,478 440.5,476.9 436.4,451.3 432.6,419.4 
									"/>
				<polygon class="st11" points="450.5,417.8 453.1,445.9 470.2,468.7 468.1,479.5 463.1,479.5 466.1,477.2 466.6,470.3 
					450.2,451.8 435.4,418.7 				"/>
				<path class="st9" d="M418.6,361.7c1.5,4.2,8.5,20.1,11.7,23.2l6.7,6.5l8.3,5.6l5.2,20.9l-17.8,1.6l-1.1-22.9l-7.1-8.9
					c-4.9-4.7-7.8-21.2-8.7-25.8h2.8"/>
				<g>
					<path class="st11" d="M449.8,360.2h-57.5c-4.4,0-7.9-3.5-7.9-7.9v-43.4c0-4.4,3.5-7.9,7.9-7.9h57.5c4.4,0,7.9,3.5,7.9,7.9v43.4
						C457.6,356.6,454.1,360.2,449.8,360.2z"/>
					<g>
						<path class="st0" d="M403.1,309l1-0.4c0.4-0.1,0.7-0.3,1-0.4c0.7,0.6,0.6,0.7,0.8,1.3l-8,3.6l0,0l3.4,1.6
							c1.7,0.8,3.2,1.5,4.5,2.1c-0.2,0.7,0,0.8-0.8,1.4c-0.4-0.1-0.8-0.3-1.2-0.5c-2.3-1-5.2-2.4-8.8-4v-0.5c0-0.1,0.1-0.1,0.4-0.3
							c-0.1,0-0.2,0.1-0.3,0.1v-0.1c0-0.1,0-0.2,0.2-0.3L403.1,309z"/>
					</g>
					<g>
						<path class="st0" d="M403.1,342.6l1-0.4c0.4-0.1,0.7-0.3,1-0.4c0.7,0.6,0.6,0.7,0.8,1.3l-8,3.6l0,0l3.4,1.6
							c1.7,0.8,3.2,1.5,4.5,2.1c-0.2,0.7,0,0.8-0.8,1.4c-0.4-0.1-0.8-0.3-1.2-0.5c-2.3-1-5.2-2.4-8.8-4v-0.5c0-0.1,0.1-0.1,0.4-0.3
							c-0.1,0-0.2,0.1-0.3,0.1v-0.1c0-0.1,0-0.2,0.2-0.3L403.1,342.6z"/>
					</g>
					<rect x="421.1" y="311.1" class="st0" width="24.1" height="3.3"/>
					<rect x="432.1" y="319.2" class="st0" width="13.2" height="3.3"/>
					<rect x="414.1" y="344.8" class="st0" width="31" height="3.3"/>
					<rect x="421.1" y="335.1" class="st0" width="24.1" height="3.3"/>
					<rect x="432.1" y="327" class="st0" width="13.2" height="3.3"/>
					<polygon class="st0" points="410.2,341.1 407,352.8 409.4,352.9 412.6,341.3 					"/>
				</g>
				<path class="st3" d="M418.6,361.7c0,0,1.2-2.5,0.9-3.4c-0.3-1-0.9,0.2-0.9,0.2s-1.7-3.6-2.9-3.3c-1.2,0.3,0,6.6,0,6.6"/>
				<polygon class="st13" points="466.6,470.3 468.4,466.3 470.2,468.7 468.1,479.5 463.1,479.5 466.1,477.2 				"/>
				<polygon class="st13" points="440.5,476.9 444.5,476.9 444.6,480.1 433.4,480.1 432.8,478 				"/>
				<polygon class="st11" points="432.6,419.4 432.1,405.9 435.4,405.5 437.6,419 				"/>
				<polygon class="st11" points="448.6,418 445.6,404.6 447.1,404.6 450.5,417.8 				"/>
				<polygon class="st11" points="435.4,405.5 431.6,396.5 433.6,405.7 				"/>
				<polygon class="st11" points="438.4,392.3 445.6,404.6 447.1,404.6 441.8,394.6 				"/>
				<polygon class="st3" points="444.6,396.5 445.1,391.2 440.9,389.8 440.2,393.4 				"/>
				<g>
					<path class="st3" d="M443.5,378.8c-0.9-0.3-2.7,0.9-3.4,2c-0.6,1.1-1.6,3.1-2.1,3c-0.2,0-0.6-0.1-0.7-0.1
						c-0.2,0.1-0.1,0.8,0.2,1.1c0.4,0.5-1.7,4.4,1.1,6.2c2.8,1.8,6.2,1.2,7.9-1.1C448.1,387.7,452.1,381.4,443.5,378.8z"/>
					<path class="st13" d="M451.1,381.3c0,0,0-2.6-2.4-3.5c-2.5-1-6.9-0.5-7.3-1.5s-2.5,0.8-2,1.9s1.1,2.1,1.1,2.1s1.9-0.7,3.2,0.2
						c1.2,0.9,2.6,1.9,3.4,1.6c0,0-2.5,2.6-1.4,4.1c0.3,0.4,1.2,0,1.3,0.3c0.2,0.8-1,1.8-1.8,2.3c0,0,0.8,2,0.1,2.4s1.6,0.8,3.7-1
						C451,388.2,453.6,383.3,451.1,381.3z"/>
					
						<ellipse transform="matrix(0.4126 -0.9109 0.9109 0.4126 -90.4985 626.5959)" class="st15" cx="440.6" cy="383.5" rx="0.5" ry="0.4"/>
					<path class="st16" d="M439.4,386.7c0,0-1.2,0.8-1.7,0.1"/>
					<path class="st16" d="M439.8,386.8c0,0,0.1-0.2-0.1-0.5"/>
					<path class="st17" d="M442.4,383.2c0,0-0.7-1.2-1.6-1.5"/>
					<path class="st16" d="M441.5,384c0,0-0.1-0.8-0.9-1.2"/>
				</g>
				<g>
					<path class="st18" d="M452.5,386.7c3.4-3.2,3.6-8.5,0.5-11.7s-8.3-3.2-11.7,0.1L452.5,386.7z"/>
					<path class="st18" d="M453.4,374.7L453.4,374.7c-0.9-0.9-2.3-0.9-3.2-0.1l-3.4,3.3c-0.9,0.9-0.9,2.3-0.1,3.2l0,0
						c0.9,0.9,2.3,0.9,3.2,0.1l3.4-3.3C454.1,377.1,454.2,375.6,453.4,374.7z"/>
					<path class="st18" d="M452.5,386.7c0.1,2.7-4-1.1-7.1-4.3c-3.1-3.2-7-7.5-4.1-7.2L452.5,386.7z"/>
				</g>
			</g>
			<g id="Layer_8_1_">
				<path class="st15" d="M696.5,364.5c0,0-2.3,2.3-6.1-3.3c-1.9-2.8-3.4-5.9-4.5-9.1c0,0-2.1-5.7-7-8.8c0,0-3.6-3-9.4-1.8
					c0,0-5.3,0.9-7.1,5.8c0,0-2.9,5.9,1.5,12.8c0.9,1.4,1.5,2.9,1.9,4.4l11.8,6.2l14.3-0.9l1.2-1.2
					C693.1,368.5,695.6,368.2,696.5,364.5z"/>
				<path class="st15" d="M691.9,369.7c0,0-6.4,4.7-12,3.6l-15-6.3l0.8-2.5"/>
				<path class="st3" d="M674,363.8c0,0.1,0.1,0.2,0.1,0.3c0,0.1-0.1,0.2-0.1,0.2c-0.8,0.8-1.6,1.6-2.5,2.2
					c-0.5,0.4-1.2,0.8-1.8,0.5c-0.4-0.2-0.7-0.4-0.9-0.8l-1.1-1.4c0.5-0.4,0.5-1.1,0.5-1.8c-0.1-0.8-0.2-1.7-0.4-2.5
					c1.4-1,3-1.7,4.7-2c0.6-0.1,0.9,0,0.9,0.6s0,1.1,0.1,1.6C673.4,361.9,673.6,362.9,674,363.8z"/>
				<path class="st3" d="M670.8,360.7c-1.7,0.7-3.7,1.1-5.3,0.1c-1.2-0.7-1.8-2-2.2-3.3c-0.4-1.4-0.6-2.8-0.6-4.3
					c-0.1-0.9-0.1-1.8,0-2.7c0.3-1.3,1.1-2.4,1.8-3.4c1.3-1.8,2.7-3.6,4.7-4.3c1.2-0.3,2.4-0.4,3.6-0.3c0.9,0,1.8,0.1,2.7,0.4
					c0.7,0.3,1.4,0.7,1.9,1.2c1.6,1.4,2.7,3.3,3,5.5C681.3,355.2,675.4,358.9,670.8,360.7z"/>
				<path class="st13" d="M676.5,358.7c0,0-3.9-8.2-0.6-12.4c0,0-2.5,1-4.5,0.4c0,0-5-1.4-7.1,2.5c0,0-1,2.4-2.1,3.3v-2l1.7-3.9
					l4.7-4l4.4-1.1l4.4,1.8l2.8,2.8l1.3,6.5l-2.7,4.5L676.5,358.7z"/>
				<path class="st3" d="M673.8,352.8c-0.2,0-0.4-0.1-0.6-0.3c-0.1-0.2-0.2-0.4-0.3-0.6c-0.1-0.1-0.2-0.3-0.3-0.4s-0.2-0.3-0.3-0.3
					c-0.4-0.2-0.8-0.3-1.2-0.1c-0.4,0.2-0.8,0.4-1.1,0.7"/>
				<path class="st3" d="M668,350l-0.2-0.5c-0.1-0.4-0.4-0.8-0.8-1c-0.3-0.1-0.7-0.1-1-0.1c-0.4,0-0.7-0.1-0.9-0.4"/>
				<path class="st3" d="M670.9,349.5c1.3-0.4,2.7,0.1,3.4,1.3"/>
				<path class="st3" d="M669,348.3c-0.4-0.9-1.2-1.5-2.1-1.6"/>
				<path class="st3" d="M667.4,354.5c-0.3-0.3-0.5-0.6-0.7-0.9c-0.1-0.1-0.1-0.1-0.1-0.2c0-0.2,0.1-0.4,0.3-0.6l0.8-0.8"/>
				<path class="st3" d="M667.1,358.1c-0.3,0-0.5,0-0.8,0c-0.1,0-0.2,0-0.3,0.1c-0.4,0-0.6-0.4-0.6-0.7c0-0.4,0-0.7,0.1-1.1
					c0-0.3-0.1-0.6,0-0.9c0-0.1,0-0.2,0.1-0.2c0.1-0.1,0.3-0.1,0.5,0c1,0.5,1.9,1.2,2.7,2l0.1,0.1c0.1,0.2-0.5,0.5-0.6,0.6
					C667.8,358.1,667.5,358.1,667.1,358.1z"/>
				<path class="st9" d="M665.3,358.1c0.2,0.3,0.6,0.4,0.9,0.5c0.4,0,0.7,0,1.1-0.1c0.3-0.1,0.5-0.2,0.8-0.2
					c0.2-0.1,0.4-0.1,0.6-0.3c0.2-0.1,0.3-0.3,0.3-0.5c-0.4,0.2-0.9,0.3-1.3,0.4c-0.6,0.1-1.2,0-1.8-0.3c-0.2-0.1-0.4-0.4-0.6-0.2
					S665.1,357.9,665.3,358.1z"/>
				<path class="st9" d="M665.5,354.8c0.8,0,1.5,0.3,2,0.8s1,1.1,1.4,1.7c0,0,0.1,0.1,0,0.1h-0.1c-0.7-0.2-1.2-0.7-1.8-1.1
					c-0.5-0.3-1-0.6-1.5-0.7C665.1,355.5,664.8,354.8,665.5,354.8z"/>
				
					<ellipse transform="matrix(0.6603 -0.751 0.751 0.6603 -35.879 623.782)" class="st15" cx="671.6" cy="351.6" rx="0.7" ry="0.5"/>
				
					<ellipse transform="matrix(0.6603 -0.751 0.751 0.6603 -35.7054 619.2271)" class="st15" cx="666.6" cy="349.1" rx="0.7" ry="0.5"/>
				<path class="st13" d="M666.3,477.6v6h-0.9l-0.6-2.5l-1.6,2.5h-8.9c3.4-0.7,6.3-2.9,7.9-6H666.3z"/>
				<path class="st13" d="M672.2,477.6v6h0.9l0.6-2.5l1.6,2.5h8.9c-3.4-0.7-6.3-2.9-7.9-6H672.2z"/>
				<path class="st20" d="M678.8,399.9c-3.1-4.1,2.8-25.2,2.8-25.2l14.8,26l2.6-1.5c-9-28.4-12.8-32.9-12.8-32.9
					c-1.9-1.9-12.1-2.3-12.1-2.3c-1.9,1.4-4.4,1.7-6.6,0.8c-1.5-1.2-10.2-0.7-10.2-0.7l-13.2-2.3l-11.4-14.3l-2.6,1.4l11.2,19.2
					l14.9,4.8c0,0,5.8,15.3,3.6,27C659.8,399.9,670.1,405.4,678.8,399.9z"/>
				<path class="st20" d="M659.4,377.1c0,0,2.4,4.9,8,2.2"/>
				<path class="st20" d="M679.8,377.1c0,0-2.4,4.9-8,2.2"/>
				<path class="st9" d="M672.2,477.6h4.1c0,0,8.4-53.4,7.7-65.8c-0.4-7.8-5.2-11.9-5.2-11.9H677l-0.7-22h-13.6l-1.7,22h-1.2
					c0,0-4.8,4.1-5.2,11.9c-0.7,12.4,7.7,65.8,7.7,65.8h4.1c0,0,1.3-64.5,2.9-63.8C669.3,413.8,673.1,438.8,672.2,477.6z"/>
				<path class="st3" d="M632.8,347.6c2.3-3.6-1-2-1-2s-2.9-3.6-3.9-3.1c-1.3,0.7,2.2,6.5,2.2,6.5L632.8,347.6z"/>
				<path class="st3" d="M696.3,400.7c-2.2,3.7,1,2,1,2s3,3.5,4,2.9c1.3-0.8-2.5-6.4-2.5-6.4L696.3,400.7z"/>
				<g>
					<path class="st18" d="M684.4,349c2-5.1-0.6-10.9-5.8-13s-11.1,0.4-13.1,5.5L684.4,349z"/>
					<path class="st18" d="M675.9,334.7L675.9,334.7c-1.5-0.6-3.2,0.1-3.8,1.6l-1.9,4.8c-0.6,1.5,0.1,3.2,1.6,3.8l0,0
						c1.5,0.6,3.2-0.1,3.8-1.6l1.9-4.8C678.2,337,677.4,335.3,675.9,334.7z"/>
					<path class="st18" d="M684.4,349c1.6,2.9-5.1,0.6-10.4-1.4s-12-4.9-8.6-6L684.4,349z"/>
				</g>
				<polygon class="st9" points="676.2,377.8 681.5,364.8 678.5,364.4 674.3,377.8 				"/>
				<polygon class="st9" points="662.6,377.8 660.1,364.1 662.2,364.1 665,377.8 				"/>
			</g>
			<g id="Layer_2_1_">
				<g>
					<ellipse class="st4" cx="320.2" cy="437.2" rx="61.4" ry="3.8"/>
					<g class="st5">
						<path class="st6" d="M279.1,436.3c0.4,0,0.8-0.3,0.8-0.7l23.2-115c0.1-0.5-0.2-0.9-0.6-1c-0.5-0.1-0.9,0.2-1,0.6
							c0,0,0,0,0,0.1l-23.2,115c-0.1,0.5,0.2,0.9,0.7,1C278.9,436.3,279,436.3,279.1,436.3L279.1,436.3z"/>
						<path class="st6" d="M296.1,436.3c0.4,0,0.8-0.3,0.8-0.7l23.2-115c0.1-0.5-0.2-0.9-0.7-1c-0.4-0.1-0.9,0.2-1,0.6l-23.2,115
							c-0.1,0.5,0.2,0.9,0.7,1C296.1,436.3,296.1,436.3,296.1,436.3L296.1,436.3z"/>
						<path class="st6" d="M280.9,429.6h16.7c0.5,0,0.9-0.4,0.9-0.8c0-0.5-0.4-0.9-0.8-0.9l0,0h-16.8c-0.5,0-0.9,0.4-0.9,0.8
							C280.1,429.2,280.5,429.6,280.9,429.6L280.9,429.6z"/>
						<path class="st6" d="M282.6,420.4h16.7c0.5,0,0.8-0.4,0.8-0.9s-0.4-0.8-0.8-0.8h-16.7c-0.5,0-0.8,0.4-0.8,0.9
							C281.9,420,282.2,420.4,282.6,420.4z"/>
						<path class="st6" d="M284.5,411.2h16.7c0.5,0,0.8-0.4,0.8-0.9s-0.4-0.8-0.8-0.8h-16.7c-0.5,0-0.8,0.4-0.8,0.9
							C283.6,410.9,284,411.2,284.5,411.2z"/>
						<path class="st6" d="M286.2,402H303c0.5,0,0.9-0.4,0.9-0.8c0-0.5-0.4-0.9-0.8-0.9l0,0h-16.7c-0.5,0-0.9,0.4-0.9,0.8
							C285.4,401.7,285.8,402,286.2,402L286.2,402z"/>
						<path class="st6" d="M288.1,392.9h16.7c0.5,0,0.9-0.4,0.9-0.8s-0.4-0.9-0.8-0.9l0,0h-16.7c-0.5,0-0.9,0.4-0.9,0.8
							C287.1,392.5,287.6,392.9,288.1,392.9L288.1,392.9z"/>
						<path class="st6" d="M289.9,383.7h16.7c0.5,0,0.8-0.4,0.8-0.9s-0.4-0.8-0.8-0.8h-16.7c-0.5,0-0.8,0.4-0.8,0.9
							C289,383.3,289.4,383.7,289.9,383.7z"/>
						<path class="st6" d="M291.6,374.5h16.7c0.5,0,0.8-0.4,0.8-0.9s-0.4-0.8-0.8-0.8h-16.7c-0.5,0-0.8,0.4-0.8,0.9
							C290.8,374.1,291.1,374.5,291.6,374.5z"/>
						<path class="st6" d="M293.4,365.3h16.7c0.5,0,0.8-0.4,0.8-0.9s-0.4-0.8-0.8-0.8h-16.7c-0.5,0-0.8,0.4-0.8,0.9
							C292.6,364.9,293,365.3,293.4,365.3z"/>
						<path class="st6" d="M295.1,356.1h16.7c0.5,0,0.8-0.4,0.8-0.9s-0.4-0.8-0.8-0.8h-16.7c-0.5,0-0.8,0.4-0.8,0.9
							C294.4,355.7,294.8,356.1,295.1,356.1z"/>
						<path class="st6" d="M297.9,346.9h15.8c0.5,0,0.9-0.4,0.9-0.9s-0.4-0.9-0.9-0.9h-15.8c-0.5,0-0.9,0.4-0.9,0.9
							C297,346.6,297.4,346.9,297.9,346.9z"/>
						<path class="st6" d="M299.6,337.8h15.8c0.5,0,0.9-0.4,0.9-0.9s-0.4-0.9-0.9-0.9h-15.8c-0.5,0-0.9,0.4-0.9,0.9
							S299.1,337.8,299.6,337.8z"/>
						<path class="st6" d="M301.4,328.6h15.8c0.5,0,0.9-0.4,0.9-0.9s-0.4-0.9-0.9-0.9h-15.8c-0.5,0-0.9,0.4-0.9,0.9
							C300.6,328.2,301,328.6,301.4,328.6L301.4,328.6z"/>
					</g>
					<path class="st7" d="M327.8,436.3c0.1,0,0.1,0,0.2,0c0.5-0.1,0.7-0.6,0.6-1l0,0l-25.5-115c-0.1-0.5-0.6-0.7-1-0.6
						c-0.5,0.1-0.7,0.6-0.6,1l25.5,115C327.1,436,327.4,436.3,327.8,436.3z"/>
					<path class="st7" d="M344.9,436.3c0.1,0,0.1,0,0.2,0c0.5-0.1,0.7-0.6,0.6-1l0,0l-25.5-115c-0.1-0.5-0.6-0.7-1-0.6
						c-0.5,0.1-0.7,0.6-0.6,1l25.5,115C344.1,436,344.5,436.3,344.9,436.3z"/>
					<path class="st7" d="M326.9,429.6h16.7c0.5,0,0.9-0.4,0.9-0.8c0-0.5-0.4-0.9-0.8-0.9l0,0h-16.8c-0.5,0-0.8,0.4-0.8,0.9
						C326,429.2,326.4,429.6,326.9,429.6z"/>
					<path class="st7" d="M324.8,420.4h16.7c0.5,0,0.8-0.4,0.8-0.9s-0.4-0.8-0.8-0.8h-16.7c-0.5,0-0.8,0.4-0.8,0.9
						C323.9,420,324.2,420.4,324.8,420.4z"/>
					<path class="st7" d="M322.6,411.2h16.7c0.5,0,0.8-0.4,0.8-0.9s-0.4-0.8-0.8-0.8h-16.7c-0.5,0-0.8,0.4-0.8,0.9
						C321.8,410.9,322.1,411.2,322.6,411.2z"/>
					<path class="st7" d="M320.5,402h16.7c0.5,0,0.9-0.4,0.9-0.8c0-0.5-0.4-0.9-0.8-0.9l0,0h-16.7c-0.5,0-0.9,0.4-0.9,0.8
						C319.6,401.7,320.1,402,320.5,402L320.5,402z"/>
					<path class="st7" d="M318.4,392.9h16.7c0.5,0,0.8-0.4,0.8-0.9s-0.4-0.8-0.8-0.8h-16.7c-0.5,0-0.8,0.4-0.8,0.9
						C317.6,392.5,318,392.9,318.4,392.9z"/>
					<path class="st7" d="M316.2,383.7H333c0.5,0,0.8-0.4,0.8-0.9s-0.4-0.8-0.8-0.8h-16.7c-0.5,0-0.9,0.4-0.9,0.8
						C315.5,383.3,315.9,383.7,316.2,383.7L316.2,383.7z"/>
					<path class="st7" d="M314.1,374.5h16.7c0.5,0,0.8-0.4,0.8-0.9s-0.4-0.8-0.8-0.8h-16.7c-0.5,0-0.8,0.4-0.8,0.9
						C313.4,374.1,313.8,374.5,314.1,374.5z"/>
					<path class="st7" d="M312.1,365.3h16.7c0.5,0,0.8-0.4,0.8-0.9s-0.4-0.8-0.8-0.8h-16.7c-0.5,0-0.8,0.4-0.8,0.9
						C311.2,364.9,311.6,365.3,312.1,365.3z"/>
					<path class="st7" d="M310,356.1h16.7c0.5,0,0.8-0.4,0.8-0.9s-0.4-0.8-0.8-0.8H310c-0.5,0-0.8,0.4-0.8,0.9
						C309.1,355.7,309.5,356.1,310,356.1z"/>
					<path class="st7" d="M308.6,346.9h15.8c0.5,0,0.9-0.4,0.9-0.9s-0.4-0.9-0.9-0.9h-15.8c-0.5,0-0.9,0.4-0.9,0.9
						C307.9,346.6,308.2,346.9,308.6,346.9z"/>
					<path class="st7" d="M306.6,337.8h15.8c0.5,0,0.9-0.4,0.9-0.9s-0.4-0.9-0.9-0.9h-15.8c-0.5,0-0.9,0.4-0.9,0.9
						C305.8,337.4,306.1,337.8,306.6,337.8z"/>
					<path class="st7" d="M304.5,328.6h15.8c0.5,0,0.9-0.4,0.9-0.9s-0.4-0.9-0.9-0.9h-15.8c-0.5,0-0.9,0.4-0.9,0.9
						C303.6,328.2,304.1,328.6,304.5,328.6z"/>
				</g>
				<g>
					<path class="st8" d="M434.6,269.4h-75.7c-7.4,0-13.3-6-13.3-13.3v-28c0-7.4,6-13.3,13.3-13.3h75.7c7.4,0,13.3,6,13.3,13.3v28
						C448,263.5,442,269.4,434.6,269.4z"/>
				</g>
				<g>
					<path class="st3" d="M377.6,280.6h-75.7c-7.4,0-13.3-6-13.3-13.3v-28c0-7.4,6-13.3,13.3-13.3h75.7c7.4,0,13.3,6,13.3,13.3v28
						C391.1,274.6,385.1,280.6,377.6,280.6z"/>
					<path class="st11" d="M391.1,267.5v3.4c0,5.3-4.3,9.7-9.7,9.7h-83.1c-5.3,0-9.7-4.3-9.7-9.7v-3.4H391.1z"/>
					<polygon class="st11" points="299.1,263.4 315.4,246 325.5,258.3 331.2,254.7 344,263.4 363.6,250 377.6,264.1 					"/>
					<circle class="st18" cx="347.6" cy="243.3" r="5.3"/>
				</g>
				<g>
					<path class="st3" d="M355.9,282.4l0.8-3c0,0,2.2-1.3,3.2-2.4c0,0,0.2,0.9-0.8,1.9l2.8-1.5c0,0,1.5-0.3,0.7,0.6s-0.8,1.9-1,2.7
						c-0.2,0.8-3.2,2.1-4,3.4S355.9,282.4,355.9,282.4z"/>
					<path class="st3" d="M322.4,277.8c0-0.7,1.1-3.2,0-4.5s-3.4-2-2.4-6.5s6.5-3.9,8.5-3.6c1.8,0.3,3.5,6.7,2.8,7.9
						c-1.1,1.8-3.2,2.9-3.2,2.9l-0.8,5.6L322.4,277.8z"/>
					<path class="st19" d="M329,267.9c0,0-1.1-0.6-1.3-0.1s0.4,1.3,1.2,2.4c0,0-0.4,2.8-1.8,3.2c-1.5,0.5-4.2,1.1-4.2,1.1
						s-6-5-3.8-10.5s8.7-4.5,11.7-2.8c0,0,0.5,1.2,0.2,2.1C330.5,264.6,329.1,266,329,267.9z"/>
					<path class="st3" d="M305.6,281.5c0,0,0,0,0-0.1c0.1-0.4,0.5-1.8,0-2c-0.6-0.2-2.9-0.5-2.9-0.5l-0.1,2.3l1.4,0.7L305.6,281.5z"
						/>
					<path class="st9" d="M330.8,277.4c3.3-1.6,15.4,10.9,15.4,10.9l10.1-7.1l1.5,2.8c0,0-9.2,9.7-12.5,9.5
						c-2.3-0.1-7.2-2.8-10.5-5.4c-0.4,5.3-2.2,11.1-3.6,16.5l-11.3-1.8c0,0-2.4-8.9-2.4-13.8c0,0-3.2,5.3-6.2,4.5
						c-3.5-0.9-7.5-11.7-7.5-11.7l1.8-1.2l5.5,7.7c0,0,5.4-8.5,8.5-9.9c0,0,1.7-0.4,3.7-1H330.8z"/>
					<polygon class="st13" points="324.4,358.8 325,363.5 322.1,363.3 320.1,358.2 					"/>
					<polygon class="st13" points="318.1,358.1 319.6,363.3 317,363.3 315.4,357.7 					"/>
					<path class="st11" d="M318.1,299.8c0,0-2.8,10.7-2.9,12.8s-1.2,35.8,0,45.1l2.9,0.4l5.5-43.1c1.6,1.1-3.6,43.2-3.6,43.2
						l4.3,0.5c0,0,6.2-25,7.1-43.1c0.2-4.2,2.1-10.4,1.6-13.4l-2.8-0.7l0.8-13.2h-10.5l-0.8,11.5L318.1,299.8L318.1,299.8z"/>
					<polygon class="st11" points="331.1,288.3 332,277.3 329.4,277 328.6,288.3 					"/>
					<polygon class="st11" points="320.6,288.3 319.5,278.4 321.8,277.4 322.4,288.3 					"/>
					<path class="st21" d="M329.4,277.2l-1.2-1.8l-5.1,0.4l-1.3,1.5C321.8,277.4,324,279.5,329.4,277.2L329.4,277.2z"/>
					<g>
						<path class="st18" d="M331.1,260.9c-0.6-3.5-3.9-5.9-7.4-5.3c-3.5,0.6-5.9,3.9-5.3,7.4L331.1,260.9z"/>
						<path class="st18" d="M323.6,255.3L323.6,255.3c-1,0.2-1.7,1.1-1.5,2.1l0.6,3.4c0.2,1,1.1,1.7,2.1,1.5l0,0
							c1-0.2,1.7-1.1,1.5-2.1l-0.6-3.4C325.5,255.9,324.6,255.2,323.6,255.3z"/>
						<path class="st18" d="M331.1,260.9c1.8,1.1-2.6,2-6.1,2.6s-8.1,1.2-6.6-0.5L331.1,260.9z"/>
					</g>
				</g>
			</g>
			<g>
				<path class="st11" d="M570.6,208.1H345.8v-5.2c0-7.3,5.9-13.2,13.2-13.2h198.6c7.3,0,13.2,5.9,13.2,13.2v5.2H570.6z"/>
				<g>
					<path class="st0" d="M555.3,196.3H545c-0.4,0-0.8-0.3-0.8-0.8s0.3-0.8,0.8-0.8h10.3c0.4,0,0.8,0.3,0.8,0.8
						S555.8,196.3,555.3,196.3z"/>
				</g>
				<g>
					<path class="st0" d="M555.3,199.8H545c-0.4,0-0.8-0.3-0.8-0.8s0.3-0.8,0.8-0.8h10.3c0.4,0,0.8,0.3,0.8,0.8
						S555.8,199.8,555.3,199.8z"/>
				</g>
				<g>
					<path class="st0" d="M555.3,203.2H545c-0.4,0-0.8-0.3-0.8-0.8s0.3-0.8,0.8-0.8h10.3c0.4,0,0.8,0.3,0.8,0.8
						S555.8,203.2,555.3,203.2z"/>
				</g>
			</g>
		</g>
		<rect x="366.5" y="131" class="st3" width="12.8" height="422.6"/>
	</g>
	<g>
		<ellipse class="st4" cx="298.1" cy="736" rx="183.9" ry="22.1"/>
		<g>
			<rect x="147.6" y="626.8" class="st22" width="13.8" height="118.3"/>
			<rect x="227" y="630.4" class="st22" width="13.8" height="118.3"/>
			<rect x="205.6" y="613.2" class="st22" width="13.8" height="118.3"/>
			<rect x="286.6" y="613.2" class="st22" width="13.8" height="118.3"/>
			<polygon class="st20" points="143.5,599.7 87.2,432.8 176.4,432.8 237.4,594.9 308,599.7 227,609.9 			"/>
			<polygon class="st22" points="227,637.1 143.5,626.8 143.5,599.7 227,609.9 			"/>
			<polygon class="st22" points="87.2,432.8 75.5,444.2 143.5,626.8 153.1,628 			"/>
			<polygon class="st22" points="227,637.1 310.1,624.3 308,599.7 227,609.9 			"/>
		</g>
		<g>
			<g id="XMLID_50_">
				<g id="XMLID_235_" class="st23">
					<g id="XMLID_245_" class="st24">
						<path id="XMLID_247_" class="st25" d="M212.4,641l-2.5,9.4l-8.3,30.6c-0.5,1.8-2.2,3-4.1,3h-4.2c-2.2,0-4.1-1.6-4.2-3.8
							l-3.2-40.9L212.4,641z"/>
						<path id="XMLID_246_" class="st26" d="M212.4,641l-2.5,9.4c-4.1,0.2-8,0-10.8,0.7c-4.4,1.1-3.3,21.5-3.3,33h-2.5
							c-2.2,0-4.1-1.6-4.2-3.8l-3.2-40.9L212.4,641z"/>
					</g>
					<g id="XMLID_242_" class="st24">
						<path id="XMLID_244_" class="st25" d="M321.5,641l0.3,9.4l0.9,30.6c0.1,1.8-1.3,3-3.2,3h-4.2c-2.2,0-4.5-1.6-5.3-3.8
							l-15.7-40.9L321.5,641z"/>
						<path id="XMLID_243_" class="st26" d="M321.5,641l0.3,9.4c-4.1,0.2-8.1,0-10.7,0.7c-4.1,1.1,3.5,21.5,6.7,33h-2.5
							c-2.2,0-4.5-1.6-5.3-3.8l-15.7-40.9L321.5,641z"/>
					</g>
					<path id="XMLID_241_" class="st27" d="M343.9,595c-0.7,10.7-2.8,19.8-5.4,27c-5.9,16.4-14.3,24.4-14.3,24.4h-120
						c0,0-1.3-7.1-2.9-17.5c-0.3-2-0.6-4.3-1-6.5c-1.8-12.2-3.8-27.5-4.8-41.5c-0.3-4.2-0.9-8-1.6-11.7c-1.7-8.9-4.2-17.1-5.7-28
						c-0.3-2.2-0.6-4.5-0.8-6.9c-0.6-7,12.6,10.4,13,4.7c0.2-2.2,2.6-5.2,6.3-8.3c9.5-8,27.8-16.9,38.9-16.9
						c5.4,0,10.6-0.7,15.7-1.5c10.7-1.6,20.9-3.3,30.9,1.1C307.1,519.8,346,560.4,343.9,595z"/>
					<path id="XMLID_240_" class="st28" d="M316.1,595c-0.7,11.1-3,20.5-5.8,27.9c-5.9,15.8-14,23.5-14,23.5h-120
						c0,0-1.1-7.1-2.8-17.7c-0.2-1.1-0.4-2.3-0.6-3.5c-2.6-16.7-6.4-40.4-9.2-59.9c-1.4-9.5-2.6-18-3.4-24.2
						c-0.3-2.8-0.6-5.1-0.8-6.9c-0.6-5.9,3.6-11.7,5.1-16.8c0.3-0.9,0.4-1.8,0.5-2.6c0.6-8.1-6.1-28.9-7.2-37.2
						c-4.3-30.9-3.9-58.9,9.3-67.8c8-5.4,14.7-6.3,20.1-4.2c17.6,6.7,22.6,45.1,22.6,65.5c0,26.7,9,46.6,9,46.6s26.5-9.5,42.2-5.5
						c1.1,0.3,2.2,0.6,3.2,1.1C279.2,519.8,318.2,560.4,316.1,595z"/>
					<path id="XMLID_239_" class="st29" d="M300.6,628.5c7.1-8.5,9.2-22.1,7.8-33.4c-1.4-11.4-13.5-26.3-25.6-33.4
						c-12.1-7.1-52-11.4-80.4-10s-47,10-47,10l2.9,63.3c0,0-2.8,8.4,7.8,9.2C176.9,634.9,300.6,628.5,300.6,628.5z"/>
					<path id="XMLID_238_" class="st29" d="M45.5,404.7c0,0,36.8-4.5,72-4.5s65.8,4.1,69.7,5.5c29.4,10,28.5,91.3,31.7,112.1
						c3.2,20.8,26.9,44.4,26.9,44.4s-101.3-3-129.4,2.8c-28.2,5.9-49-34.7-49-34.7L45.5,404.7z"/>
					<path id="XMLID_237_" class="st30" d="M328.4,610l-5.2,12.1l-10.4,24.4h-54.6c1-4.7,2.5-10.9,4.3-16.1c0.2-0.5,0.3-0.9,0.5-1.4
						c0.3-0.9,0.6-1.7,0.9-2.5c4.1-10-6.7-63-8.1-64.5s-12.5,0.2-19-1.6c-6.5-1.7-30.5-0.8-37.7-2.8c-7.1-2-13.1-1-22-2.7l3.4-27.9
						l44.7-4.2l51-4.1l43.8,47L328.4,610z"/>
					<path id="XMLID_236_" class="st30" d="M338.5,622.1c-5.9,16.4-14.3,24.4-14.3,24.4H212.2c0.7-4.4,1.4-9.2,2.2-13.9
						c0.5-2.6,0.9-5.2,1.4-7.8c7.4,1.2,17.1,2.5,31.3,3.6c5.6,0.4,10.8,0.6,15.6,0.5c17.6-0.2,29.9-3.1,40.8-5.1
						c2.3-0.4,4.5-0.8,6.6-1.1c3.2-0.4,6.3-0.7,9.5-0.7c1.1,0,2.2,0,3.3,0C328.4,622.1,333.6,622.1,338.5,622.1z"/>
				</g>
				<path id="XMLID_234_" class="st3" d="M144.9,465.7c0,0,0.7,3,1.8,7.9c19.9-1.8,39.7-3.8,59.6-4.9c1.5-0.1,3-0.2,4.5-0.2
					c0-0.2,0.1-0.4,0.1-0.7l-1.4-29.9c0,0-8.5-6.6-12-8.9c-7.4-4.9-1.7-23-1.7-23l-22.9-11.2l-4.5,31c0,0-13.5,4.5-22.3,9.7
					C146,435.5,148.8,457.4,144.9,465.7z"/>
				<path id="XMLID_4_" class="st11" d="M312.8,535.9c-15.4-2.7-59.6-15.9-59.6-15.9c-0.5-1.8-18-53.7-18-53.7
					c-6.9-18.6-20.4-37.1-20.4-37.1s-9.5,8.9-12.4,18.4s5.6,26.7,11.3,36.7s14.6,44.8,17.3,51.1s4.6,12.7,14.2,13.1
					c9.6,0.4,53.2-1.1,68-0.1L312.8,535.9z"/>
				<path id="XMLID_213_" class="st11" d="M248.6,568.4c0,0-14,13.1-43.3,21.3c-29.3,8.1-48-11.3-48-11.3
					c-0.6-19.9-28.6-99.5-32.2-107.2s-4.5-30.5-4.5-30.5c3.6-3.8,27.2-13.7,34.9-17.9l1.8,0.3l31.8,5.7l15-2
					c0.3,0.1,0.5,0.1,0.8,0.2c5.7,1.2,7.8,0.7,9.8,2.3c6.1,4.8,5.9,11.3,8,30.1c1.8,15.3,6,39.4,8.7,56.1
					C234.2,532.2,248.6,568.4,248.6,568.4z"/>
				<path id="XMLID_208_" class="st3" d="M164.1,417.9c0,0,18.6,8.2,29.2,9.5c0,0-0.8,8.7-6.8,11.9c0,0-23.6-8.4-30.9-16.5
					L164.1,417.9z"/>
				<path id="XMLID_204_" class="st3" d="M193.2,427.4c0,0,4.6-0.8,8.9-5.1l3.5,6.4c0,0-0.7,5.3-4.4,8.3
					C201.2,437,194.6,434.2,193.2,427.4z"/>
				<g id="XMLID_173_">
					<path id="XMLID_2_" class="st11" d="M139.2,552c-9.5,3.8-19.9-3.3-19.9-13.5c0-34.8-2.1-91.1,0.8-97.9
						c2.7-6.2,26.5,13.8,27.5,25c1.4,15,0.8,35.6-1.4,55.7l51.4-8.6l8,12.9L139.2,552z"/>
				</g>
				<polygon class="st13" points="342.5,730.4 342.5,745.1 350.4,745.1 350.4,741.5 355.4,745.1 392.2,745.1 392.2,745.1 
					359.5,730.4 				"/>
				<polygon class="st13" points="383.9,685.4 388.6,699.2 396.1,696.6 395,693.2 400.9,695 435.6,682.8 435.6,682.8 399.9,679.8 
									"/>
				<path id="XMLID_1_" class="st31" d="M183.4,603.7c-14.6-4.1-26.1-25.4-26.1-25.4c8.2-1.8,28.7-6.9,47.3-11.3
					c9.9-2.4,19.3-4.6,26.1-6.1c19.4-4.2,79.3-17.6,94.6-15.3c15.3,2.4,19.3,6.5,24.8,18c1.7,3.5,11.4,21.6,17.2,36
					c13.2,32.8,31.8,80.1,31.8,80.1s-5.4,4.6-14.8,6.6c0,0-49.5-78.8-56.8-91c0,0-8.8,3-10.1,0.3c0,0-0.7,3.7-5.4,3.1
					c-4.8-0.7-9.8,5-9.8,5h-57.7c0,0-22.1,2.9-29.3,2.9C207.1,606.6,183.4,603.7,183.4,603.7z"/>
				<g id="XMLID_112_">
					<path id="XMLID_117_" class="st32" d="M244.4,603.7c0,0,24.4-10.4,37.6-13.6c13.2-3.2,35.3-13.3,39.9-12.8
						c4.6,0.6,16.6,0.1,20.3,18.6c3.7,18.6,18.1,134.1,18.1,134.1s-5.8,3.3-18.6,0.9l-43.7-127.2L244.4,603.7L244.4,603.7z"/>
				</g>
				<g id="XMLID_53_" class="st23">
					<g id="XMLID_94_" class="st24">
						<path id="XMLID_97_" class="st33" d="M79,644.3l-2.6,9.4l-8.3,30.6c-0.5,1.8-2.2,3-4.1,3h-4.2c-2.2,0-4.1-1.6-4.2-3.8
							l-3.2-40.9L79,644.3z"/>
						<path id="XMLID_95_" class="st34" d="M79,644.3l-2.6,9.4c-4.1,0.2-8,0-10.8,0.7c-4.4,1.1-3.3,21.5-3.3,33h-2.5
							c-2.2,0-4.1-1.6-4.2-3.8l-3.2-40.9L79,644.3z"/>
					</g>
					<g id="XMLID_56_" class="st24">
						<path id="XMLID_93_" class="st33" d="M175.2,644.3l0.3,9.4l0.9,30.6c0.1,1.8-1.3,3-3.2,3h-4.2c-2.2,0-4.5-1.6-5.3-3.8
							l-15.7-40.9L175.2,644.3z"/>
						<path id="XMLID_57_" class="st34" d="M175.2,644.3l0.3,9.4c-4.1,0.2-8.1,0-10.7,0.7c-4.1,1.1,3.5,21.5,6.7,33h-2.5
							c-2.2,0-4.5-1.6-5.3-3.8l-15.7-40.9L175.2,644.3z"/>
					</g>
					<path id="XMLID_55_" class="st27" d="M209.4,595c-0.7,11.1-3,20.4-5.7,27.8c-0.8,2.2-1.6,4.3-2.5,6.1
						c-5.4,11.7-11.5,17.5-11.5,17.5h-120c0,0-0.8-4.6-2-11.8c-2.1-12.9-5.3-34.4-6.7-53.6c-1.2-16.1-6.3-27-8.1-46.7
						c-0.6-7,12.6,10.4,13,4.7c0.1-1.6,1.3-3.5,3.3-5.6c8.1-8.5,37.2-21,42.3-21.8c10.7-1.6,36.1-2.6,46.2,1.7c2,0.8,4.3,2.3,7,4.2
						c6.9,5,15.6,13.4,23.5,23.6c6.9,8.9,13.3,19.3,17.2,29.9C208.2,579.1,209.9,587.2,209.4,595z"/>
					<path id="XMLID_54_" class="st28" d="M181.7,595c-0.7,11.9-3.3,21.6-6.3,29.3c-0.6,1.5-1.2,3.1-1.9,4.5
						c-5.5,11.8-11.6,17.7-11.6,17.7h-120c0,0-0.7-4.5-1.9-11.7c-4.1-25.4-13.5-85.1-14.9-100.4c-0.6-7,5.1-13.6,5.5-19.4
						c0.6-8.1-6.1-28.9-7.2-37.2c-4.3-30.9-3.9-58.9,9.3-67.8c4.8-3.2,9-4.8,12.8-5.2c23.5-2.3,29.9,43.5,29.9,66.4
						c0,26.7,9,46.6,9,46.6s26.5-9.5,42.2-5.5c1.1,0.3,2.2,0.6,3.2,1.1c7.1,3,19.5,13.7,30.4,27.8c6,7.7,11.5,16.5,15.5,25.5
						C179.9,576.1,182.2,585.7,181.7,595z"/>
				</g>
				<g id="XMLID_51_" class="st23">
					<path id="XMLID_52_" class="st30" d="M203.7,622.8c-1.2-0.2-2.3-0.3-3.5-0.4c-4.1-0.5-8-0.6-12.9-0.3
						c-5.5,0.3-8.9,1.2-11.9,2.2c-0.8,0.3-1.6,0.6-2.4,0.9c-5.2,2.1-10.7,4.8-26.7,6.8c-18.1,2.2-49.3,2.5-78.7,2.6
						c-9.6,0-19,0.1-27.6,0.2c1.1,7.1,1.9,11.7,1.9,11.7h170.4c1-6.9,2.3-14.5,3.7-21.6C211.2,624.1,207.2,623.4,203.7,622.8z"/>
				</g>
			</g>
			<path class="st3" d="M313.1,543.8l17.3,1.6c0,0,11.1-2.8,13.2-5.7c2.2-2.9-13.1-4.5-14.3-2.2c-1.2,2.2-1.9,5.4-1.9,5.4"/>
			<g id="XMLID_46_">
				<path id="XMLID_47_" class="st35" d="M353.1,539.7h-28.6c-2.1,0-4-1-5.2-2.6l-0.8-1.1c-0.2-0.3,0-0.8,0.4-0.8h39.8
					c0.4,0,0.6,0.5,0.4,0.8l-0.8,1.1C357.1,538.7,355.1,539.7,353.1,539.7z"/>
			</g>
			<g>
				<g id="XMLID_42_">
					<path id="XMLID_43_" class="st36" d="M225.7,516.9v-2.2h-2c-2.3,0-4.2-1.7-4.5-3.9l-0.8-4.9c-0.1-0.4,0.1-0.6,0.2-0.7
						c0.1-0.1,0.3-0.3,0.7-0.3h3.3v-2.2h-3.3c-0.9,0-1.8,0.4-2.4,1.1c-0.6,0.7-0.9,1.6-0.7,2.5l0.8,4.9c0.5,3.3,3.3,5.7,6.7,5.8
						L225.7,516.9z"/>
				</g>
				<g id="XMLID_48_">
					<path id="XMLID_49_" class="st36" d="M227.9,519.9H241c1.7,0,3.1-1.2,3.4-2.9l2.6-14.9c0.1-0.8-0.5-1.4-1.2-1.4h-22.6
						c-0.8,0-1.3,0.7-1.2,1.4l2.6,14.9C224.8,518.7,226.2,519.9,227.9,519.9z"/>
				</g>
			</g>
			<path class="st3" d="M312.8,535.9c0,0,25.7-7.5,28.6-5.4c2.9,2-0.9,3.4-4.5,4.8s-4.5-0.1-2-2.6"/>
		</g>
		<path class="st3" d="M197.6,512.8c0,0,7.5-4.6,11.1-5.6s2.8,1.1,3.6,1.2s9.1-3.2,9.6-0.9c0.9,3.8-3.4,4.7-3.1,5.3
			c0.3,0.7,1,9.2-0.6,10.4s-12.7,2.5-12.7,2.5L197.6,512.8z"/>
		<path class="st3" d="M234.6,494.6c0,0-4.8-2-2.3-4.8c2.5-2.7,0.2-4.8,0.2-4.8s3.9,0.6,3.6,2.8
			C235.7,490.1,233.5,492.1,234.6,494.6z"/>
		<path class="st3" d="M239.6,498.1c0,0-4-1.7-1.9-3.9s0.1-3.9,0.1-3.9s3.2,0.5,2.9,2.3C240.5,494.4,238.7,496.1,239.6,498.1z"/>
		<path class="st3" d="M211.7,348c4.7,1.8,8.2,12.3,7.3,18.8c-0.9,6.6-3.3,17.7-0.9,19c0.9,0.5,2.9,1.4,3.2,2.1
			c0.6,1.1-2.2,3.3-4.2,3.9c-3.1,1-6.8,23.4-23.8,21.9c-17-1.6-29-14.7-28.9-29.3C164.6,369.9,168,331.6,211.7,348z"/>
		<path class="st13" d="M172.5,334.1c0,0,8-10.4,21.1-6.7c13.1,3.7,29.8,19.6,34.6,17s7.5,10.9,2.1,13.9s-11.1,5.2-11.1,5.2
			s-5.6-9.1-13.4-9.2s-16.5-0.7-18.5-4.2c0,0,2.1,18.3-7.5,21.1c-2.4,0.7-4.8-3.6-6-2.7c-3.6,2.5-1.6,10.7,0.1,14.9
			c0,0-9.6,5.7-7.9,9.7c1.7,4-9.3-1.7-11.9-16C151.2,362.8,156.2,334.5,172.5,334.1z"/>
		
			<ellipse transform="matrix(0.2318 -0.9728 0.9728 0.2318 -205.6269 492.1252)" class="st15" cx="208.8" cy="376.3" rx="2.8" ry="2.2"/>
		<path class="st16" d="M203.5,393c0,0,2.4,7.2,6.6,5.9"/>
		<path class="st16" d="M201.1,392.1c0,0,0.3-1.1,1.8-1.6"/>
		<path class="st17" d="M202.1,369.3c0,0,6.4-2.7,11.3-0.9"/>
		<path class="st16" d="M203.6,375.5c0,0,3.2-3,7.5-1.8"/>
	</g>
	<g>
		<rect x="8" y="72" class="st37" width="808.9" height="9"/>
		<rect x="809.5" y="61.7" class="st38" width="15.3" height="29.3"/>
		<rect x="0.2" y="61.7" class="st38" width="15.3" height="29.3"/>
		<g>
			<rect x="25.9" y="70" class="st39" width="29.7" height="483"/>
			<line class="st16" x1="40.8" y1="70" x2="40.8" y2="553"/>
		</g>
		<g>
			<rect x="770.9" y="70" class="st39" width="29.7" height="483"/>
			<line class="st16" x1="785.8" y1="70" x2="785.8" y2="553"/>
		</g>
	</g>
</g>
</svg>
