<svg xmlns="http://www.w3.org/2000/svg" viewBox="0 0 120 112.43"><defs><style>.cls-1{fill:#fff;}.cls-2,.cls-3,.cls-4,.cls-5,.cls-6,.cls-7,.cls-8,.cls-9{stroke:#000;stroke-miterlimit:10;}.cls-3{fill:#f2f2f2;}.cls-4{fill:#eb058c;}.cls-5{fill:#ffe600;}.cls-6{fill:#0077bf;}.cls-7,.cls-9{fill:none;}.cls-7,.cls-8{stroke-width:0.5px;}.cls-8{fill:#1a1a1a;}</style></defs><title>consultant</title><g id="Layer_2" data-name="Layer 2"><g id="consultant"><path class="cls-1" d="M106.5,14.17C104.28,11.74,95.73,2.36,81.64.47c-3-.4-17.09-2.29-26,6-11.74,11-1.81,28.07-11.87,41.16-8.65,11.25-25.08.26-36.17,11.5C1.84,65-1.22,74.85.81,82.21c6.34,23,68.94,45.86,100.87,16C124.93,76.42,124.38,33.78,106.5,14.17Z"/><g id="Layer_1_copy_2" data-name="Layer 1 copy 2"><rect y="96.12" width="120" height="2.13" rx="1.06" ry="1.06"/></g><g id="Layer_75" data-name="Layer 75"><path class="cls-2" d="M81.31,71.93a2.19,2.19,0,0,1-1.28,2c-4.91,2.28-11.73,3.69-19.29,3.69s-14.38-1.41-19.29-3.69a2.19,2.19,0,0,1-1.28-2c.15-20.67,3.94-38.71,20.57-38.71S81.16,51.26,81.31,71.93Z"/><path class="cls-3" d="M68.32,75.28V70H53.16v5.24a3.25,3.25,0,0,1-2.22,3.08L40.62,81.8a5.41,5.41,0,0,0-3.7,5.14v6.93A2.17,2.17,0,0,0,39.09,96H82.4a2.17,2.17,0,0,0,2.17-2.17V86.94a5.41,5.41,0,0,0-3.7-5.14L70.54,78.36A3.25,3.25,0,0,1,68.32,75.28Z"/><path class="cls-4" d="M80.86,81.8,72.43,79c-4,5.44-8.7,8.49-11.69,9.46-3-1-7.68-4-11.69-9.46L40.62,81.8a5.41,5.41,0,0,0-3.7,5.14v6.93A2.17,2.17,0,0,0,39.09,96H82.4a2.17,2.17,0,0,0,2.17-2.17V86.94A5.41,5.41,0,0,0,80.86,81.8Z"/><path class="cls-5" d="M46.85,56H45.59a2.17,2.17,0,0,0-2.17,2.17v4.28a2.17,2.17,0,0,0,2.21,2.17l1.87,0Z"/><path class="cls-5" d="M74.64,56H75.9a2.17,2.17,0,0,1,2.17,2.17v4.28a2.17,2.17,0,0,1-2.21,2.17l-1.87,0Z"/><path class="cls-3" d="M46.67,46.22v4.67q0,2.91.22,5.81l.62,8.11a6.5,6.5,0,0,0,2.75,4.82l6.54,4.58a6.87,6.87,0,0,0,3.94,1.24h0a6.86,6.86,0,0,0,3.94-1.24l6.54-4.58A6.5,6.5,0,0,0,74,64.81l.62-8.11q.22-2.9.22-5.81V46.22Z"/><path d="M45.58,45.13v7.58c12.83,0,22.6-4.47,24.23-5.45,1.76,4.37,4.93,5.45,4.93,5.45H75.9V45.13Z"/><path class="cls-6" d="M75.86,64.58l-1.86,0c-.83,1.5-3.3,4-10.69,4v2.17c9.87,0,12.4-4.2,13-6.14A2.17,2.17,0,0,1,75.86,64.58Z"/><path class="cls-5" d="M62.37,71.12H61.28a1.62,1.62,0,0,1-1.62-1.62h0a1.62,1.62,0,0,1,1.62-1.62h1.08A1.62,1.62,0,0,1,64,69.5h0A1.62,1.62,0,0,1,62.37,71.12Z"/><path class="cls-7" d="M64.88,54.22a5.73,5.73,0,0,1,4.7,0"/><path class="cls-7" d="M52.18,54.22a5.73,5.73,0,0,1,4.7,0"/><circle class="cls-8" cx="66.98" cy="57.08" r="1.23"/><circle class="cls-8" cx="55.19" cy="57.08" r="1.23"/><path class="cls-7" d="M56.29,66.34s4,3.82,8.07.38"/><path class="cls-7" d="M62,56a9,9,0,0,0-.11,3.52c.15.89.43,1.75.62,2.63a2.2,2.2,0,0,1,0,1.33.85.85,0,0,1-1.1.49"/></g><g id="Layer_76" data-name="Layer 76"><path class="cls-9" d="M46.19,53.24s15-.62,23.53-5.37c0,0,2.21,4.88,5.61,5.38"/></g></g></g></svg>