<svg xmlns="http://www.w3.org/2000/svg" viewBox="0 0 120.55 112.43"><defs><style>.cls-5{stroke:#000;stroke-miterlimit:10}.cls-4{fill:#b4b6bc}.cls-5{fill:#ffe600}</style></defs><g id="Layer_2" data-name="Layer 2"><g id="test"><path d="M107.5 14.17C105.28 11.74 96.73 2.36 82.64.47c-3-.4-17.09-2.29-26 6-11.74 11-1.81 28.07-11.87 41.16-8.65 11.25-25.08.26-36.17 11.5C2.84 65-.22 74.85 1.81 82.21c6.34 23 68.94 45.86 100.87 16 23.25-21.79 22.7-64.43 4.82-84.04z" fill="#fff"/><rect y="96.12" width="120" height="2.13" rx="1.06" ry="1.06" id="Layer_1_copy_3" data-name="Layer 1 copy 3"/><g id="Layer_82" data-name="Layer 82"><path d="M80.5 37.27H40.63a5 5 0 0 0-5 5V91.1a5 5 0 0 0 5 5H80.5a5 5 0 0 0 5-5V42.25a5 5 0 0 0-5-4.98z" stroke="#000" stroke-miterlimit="10" fill="#eb058c"/><path d="M80.45 41.25a1 1 0 0 1 1 1v48.8a1 1 0 0 1-1 1H40.68a1 1 0 0 1-1-1V42.29a1 1 0 0 1 1-1z" fill="#f2f2f2" stroke="#000" stroke-miterlimit="10"/><path class="cls-4" d="M53.59 59.2h-6a2 2 0 0 1-2-2v-6a2 2 0 0 1 2-2h6a2 2 0 0 1 2 2v6a2 2 0 0 1-2 2zm-6-8v6h6v-6zM61.56 52.22h-3a1 1 0 1 1 0-2h3a1 1 0 0 1 0 2zM73.52 56.21h-15a1 1 0 0 1 0-2h15a1 1 0 0 1 0 2zM68.54 66.17h-10a1 1 0 1 1 0-2h10a1 1 0 1 1 0 2zM73.52 70.16h-15a1 1 0 1 1 0-2h15a1 1 0 0 1 0 2zM62.56 79.13h-4a1 1 0 0 1 0-2h4a1 1 0 1 1 0 2zM73.52 83.12h-15a1 1 0 1 1 0-2h15a1 1 0 0 1 0 2z"/><path class="cls-5" d="M64.55 37.27a1 1 0 0 1-1-1v-1a1 1 0 0 0-1-1h-4a1 1 0 0 0-1 1v1a1 1 0 1 1-2 0v-1a3 3 0 0 1 3-3h4a3 3 0 0 1 3 3v1a1 1 0 0 1-1 1z"/><path class="cls-5" d="M71.53 35.27H49.6a1 1 0 0 0-1 1v3a5 5 0 0 0 5 5h14a5 5 0 0 0 5-5v-3a1 1 0 0 0-1.07-1z"/><path class="cls-4" d="M53.59 72.16h-6a2 2 0 0 1-2-2v-6a2 2 0 0 1 2-2h6a2 2 0 0 1 2 2v6a2 2 0 0 1-2 2zm-6-8v6h6v-6zM53.59 85.11h-6a2 2 0 0 1-2-2v-6a2 2 0 0 1 2-2h6a2 2 0 0 1 2 2v6a2 2 0 0 1-2 2zm-6-8v6h6v-6z"/><path d="M51.59 69.17a1 1 0 0 1-.7-.29l-2-2a1 1 0 0 1 1.41-1.41l1.29 1.29 4.28-4.28a1 1 0 0 1 1.41 1.41l-5 5a1 1 0 0 1-.69.28z" fill="#0077bf" stroke="#000" stroke-miterlimit="10"/></g></g></g></svg>