<svg xmlns="http://www.w3.org/2000/svg" viewBox="0 0 120 112.43"><defs><style>.cls-1{fill:#fff;}.cls-2{fill:#eb058c;}.cls-2,.cls-3,.cls-4,.cls-5{stroke:#000;stroke-miterlimit:10;}.cls-3{fill:#f2f2f2;}.cls-4{fill:#0077bf;}.cls-5{fill:#ffe600;}</style></defs><title>life cycle</title><g id="Layer_2" data-name="Layer 2"><g id="life_cycle" data-name="life cycle"><path class="cls-1" d="M106.5,14.17C104.28,11.74,95.73,2.36,81.64.47c-3-.4-17.09-2.29-26,6-11.74,11-1.81,28.07-11.87,41.16-8.65,11.25-25.08.26-36.17,11.5C1.84,65-1.22,74.85.81,82.21c6.34,23,68.94,45.86,100.87,16C124.93,76.42,124.38,33.78,106.5,14.17Z"/><g id="Layer_1_copy_4" data-name="Layer 1 copy 4"><rect y="96.12" width="120" height="2.13" rx="1.06" ry="1.06"/></g><g id="Layer_89" data-name="Layer 89"><path class="cls-2" d="M88.76,60.91V39.06A4.76,4.76,0,0,0,84,34.3H60.45v6.39H80.23a2.14,2.14,0,0,1,2.14,2.14h0V60.91H79.18l6.39,7.45L92,60.91Z"/><path class="cls-3" d="M65.35,37.49,57.9,31.11V34.3H36.61a5.32,5.32,0,0,0-5.32,5.32v23h6.39V42.81a2.13,2.13,0,0,1,2.13-2.13H57.9v3.19Z"/><path class="cls-4" d="M40.57,85.39a2.9,2.9,0,0,1-2.9-2.9h0V65.17h3.19l-6.39-6.39-6.39,6.39h3.19V86.45a5.32,5.32,0,0,0,5.32,5.32h23V85.39Z"/><path class="cls-3" d="M85.57,68.36l-3.19-3.73V83.71a1.68,1.68,0,0,1-1.68,1.68H62.15V82.2L54.7,88.58,62.15,95V91.77H83.44a5.32,5.32,0,0,0,5.32-5.32V64.63Z"/><path class="cls-5" d="M59.49,54.52l1.88,5.69h6.1l-4.93,3.52,1.88,5.69-4.93-3.52-4.93,3.52,1.88-5.69-4.93-3.52h6.1Z"/></g></g></g></svg>