<svg xmlns="http://www.w3.org/2000/svg" viewBox="0 0 120 112.43"><g data-name="Layer 2"><path d="M106.5 14.17C104.28 11.74 95.73 2.36 81.64.47c-3-.4-17.09-2.29-26 6-11.74 11-1.81 28.07-11.87 41.16-8.65 11.25-25.08.26-36.17 11.5C1.84 65-1.22 74.85.81 82.21c6.34 23 68.94 45.86 100.87 16 23.25-21.79 22.7-64.43 4.82-84.04z" fill="#fff"/><rect y="96.12" width="120" height="2.13" rx="1.06" ry="1.06" data-name="Layer 1 copy 5"/><g data-name="Layer 97" stroke="#000" stroke-miterlimit="10"><path d="M93.47 63.14a33.1 33.1 0 0 0-33-33v7.73a25.39 25.39 0 0 1 25.27 25.27c0 7-2.74 12.72-7.32 17.68l-2.71-2.71-1.2 6L73 91.76l5.76-1.16 7.86-1.6L84 86.34c.42-.7 9.47-9.08 9.47-23.2z" fill="#0077bf"/><path d="M35.24 63.14c0-7 2.74-12.59 7.32-17.55l2.71 2.71L48 34.65 34.36 37.4 37 40.07c-.74 1.17-9.52 8.48-9.52 23.08a33.1 33.1 0 0 0 33 33v-7.76a25.39 25.39 0 0 1-25.24-25.25z" fill="#eb058c"/><path d="M66.29 67a5.82 5.82 0 0 1-3.87 5.45v4.21h-3.86v-4.2A5.82 5.82 0 0 1 54.69 67h3.87a1.93 1.93 0 1 0 1.93-1.93 5.79 5.79 0 0 1-1.93-11.25v-4.21h3.87v4.21a5.82 5.82 0 0 1 3.87 5.45h-3.88a1.93 1.93 0 1 0-1.93 1.93 5.79 5.79 0 0 1 5.8 5.8z" fill="#ffe600"/></g></g></svg>