<svg xmlns="http://www.w3.org/2000/svg" viewBox="0 0 120 112.43"><defs><style>.cls-2,.cls-3{fill:#f2f2f2;stroke:#000;stroke-miterlimit:10}.cls-3{fill:#ccc}</style></defs><g id="Layer_2" data-name="Layer 2"><g id="half"><path d="M106.5 14.17C104.28 11.74 95.73 2.36 81.64.47c-3-.4-17.09-2.29-26 6-11.74 11-1.81 28.07-11.87 41.16-8.65 11.25-25.08.26-36.17 11.5C1.84 65-1.22 74.85.81 82.21c6.34 23 68.94 45.86 100.87 16 23.25-21.79 22.7-64.43 4.82-84.04z" fill="#fff"/><rect y="96.12" width="120" height="2.13" rx="1.06" ry="1.06" id="Layer_1_copy_6" data-name="Layer 1 copy 6"/><g id="Layer_106" data-name="Layer 106"><path class="cls-2" d="M83.94 51.75c0 5.75-2.32 13.62-6.12 20.35-2.29 4.05-7.28 11.45-7.28 16.09H60.49v-58c13 0 23.45 9.35 23.45 21.59zM37 51.79c0 5.75 2.32 13.62 6.12 20.35 2.29 4.05 7.28 11.45 7.28 16.09h10.09v-58C47.54 30.2 37 39.55 37 51.79z"/><path class="cls-3" d="M69.7 91.58H51.29a2.23 2.23 0 0 1-2.23-2.23v-.08a2.11 2.11 0 0 1 2.13-2.08H69.7a2.11 2.11 0 0 1 2.23 2v.18a2.23 2.23 0 0 1-2.23 2.21z"/><path class="cls-2" d="M51 91.58h19a2.23 2.23 0 0 1 2.23 2.23v.08A2.23 2.23 0 0 1 70 96.12H51a2.23 2.23 0 0 1-2.23-2.23v-.08A2.23 2.23 0 0 1 51 91.58z"/><path class="cls-3" d="M60.49 46.91v-6.7a15.71 15.71 0 0 0-1.9.13l-.49 2.33a13.27 13.27 0 0 0-2.13.57l-1.6-1.79a15.59 15.59 0 0 0-3.28 1.92l.74 2.25a13.48 13.48 0 0 0-1.56 1.56L48 46.44a15.59 15.59 0 0 0-1.92 3.28l1.79 1.6a13.28 13.28 0 0 0-.57 2.13l-2.3.49v3.81l2.33.49a13.26 13.26 0 0 0 .57 2.13L46.1 62a15.59 15.59 0 0 0 1.9 3.24l2.25-.74a13.48 13.48 0 0 0 1.56 1.56l-.74 2.25a15.59 15.59 0 0 0 3.28 1.92L56 68.45a13.28 13.28 0 0 0 2.1.55l.49 2.33a15.74 15.74 0 0 0 1.9.13v-6.7a8.93 8.93 0 0 1 0-17.87z"/></g></g></g></svg>