<svg version="1.1" id="Layer_1" xmlns="http://www.w3.org/2000/svg" x="0" y="0" viewBox="0 0 814.1 721.1" xml:space="preserve"><style>.st1{fill:#bcbcbc}.st2,.st3,.st4{fill:#1a1a1a;stroke:#000;stroke-width:.5;stroke-miterlimit:10}.st3,.st4{fill:#ffe600}.st4{fill:#fff}.st5{fill:#1a1a1a}.st10,.st6,.st7,.st8,.st9{fill:#fff;stroke:#000;stroke-miterlimit:10}.st10,.st7,.st8,.st9{fill:none;stroke-width:.5}.st10,.st8,.st9{fill:#f2f2f2}.st10,.st9{fill:#0077bf}.st10{fill:#ccc}.st11{enable-background:new}.st12,.st13{fill:#eb058c;stroke:#000;stroke-width:.5;stroke-miterlimit:10}.st13{fill:#c10072}</style><path d="M287.8 551.6S170.7 664.8 59.6 522.9c0 0-143.8-188.1 15.4-384.1 45.5-56 129.1-113.2 244.6-130.3 102-15.1 232.1-17.4 334 56.9 0 0 126.5 78.6 159.2 268.7 0 0 29.1 276.8-187 281.5 0 0-74.1-5.3-122.9-81.7.1 0-67.6-123.2-215.1 17.7z" fill="#f5f5f5" id="Layer_7"/><ellipse class="st1" cx="360.4" cy="708.6" rx="133.8" ry="12.5"/><ellipse class="st1" cx="501.4" cy="683.8" rx="94.3" ry="9.7"/><ellipse class="st1" cx="296.7" cy="683.8" rx="94.3" ry="9.7"/><ellipse class="st1" cx="206.8" cy="676.8" rx="105.6" ry="9.7"/><ellipse class="st1" cx="636.7" cy="676.8" rx="105.6" ry="9.7"/><g id="Layer_9"><path class="st2" d="M158 664.9h-16l2.6-275.7 103.7 11.7 26.1 264h-16L199 430.1s-3.3-5.7-7.5 0L158 664.9h-16"/><path class="st3" d="M143.2 294s9.1 61 1.5 95.3c0 0 42.8 29.7 103.7 11.7l3.8-91.7 20.8 19.8 21 77.1 10.8-.8-5.7-86.5-47.3-65s-7.9-6.3-45.5-5.7c0 0-14.7 12.2-25.4 0-11.2-3.5-24.1-4.7-35.1-.7-14.4 9.8-50.3 47.3-67.4 73.4-3.5 5.4-2.1 12.6 3.1 16.3 12.6 8.9 35.7 25.2 50.9 35.3l8.1-9.9-35.1-39 37.8-29.6z"/><path class="st4" d="M293.8 406.1c-12.7 8.8.4 8.2.4 8.2s4.6 16.2 8.6 15.8c5.5-.5 1.8-24.8 1.8-24.8l-10.8.8z"/><path class="st5" d="M258.5 664.9v13.8h7.4v-3.4l4.7 3.4h34.8l-30.9-13.8zM158 664.9v13.8h-7.5v-3.4l-4.7 3.4h-34.7l30.9-13.8z"/><path class="st4" d="M183.2 238.2L169.4 252l20.8 2.5s10.7-11.9 1.3-15.1l-8.3-1.2zM195.7 254.8l21.5 1.2-7.5-14.2-12.4-1.7z"/><path class="st5" d="M190.2 252.6l-11.5 91.1 15.5 18.9L207 342l-12.7-89s-1.7-4.5-4.1-.4z"/><path class="st4" d="M208.1 243.2c.4.6.3 1.4-.3 1.8-2.8 3-5.9 5.7-9.2 8.1-1.9 1.4-4.4 2.8-6.7 1.9-1.4-.6-2.6-1.6-3.4-2.9l-4.1-5c1.9-1.3 1.9-4.1 1.7-6.4-.3-3.1-.8-6.1-1.4-9.1 5-3.8 10.8-6.3 17-7.2 2.1-.3 3.2 0 3.3 2.2 0 1.9.1 3.8.3 5.7.3 3.8 1.3 7.5 2.8 10.9z"/><path class="st4" d="M203.9 232.4c-5.6 3.6-12.5 6.6-18.8 4.5-4.7-1.6-8-5.6-10.4-10-2.3-4.7-4.2-9.7-5.5-14.7-1.1-3.1-1.8-6.4-2-9.8 0-4.8 1.9-9.3 3.8-13.7 3.1-7.2 6.7-14.9 13.5-18.8 4-2 8.3-3.3 12.7-3.8 3.2-.7 6.5-.9 9.8-.6 2.7.4 5.4 1.4 7.8 2.8 6.9 3.7 12.3 9.8 15 17.1 6.9 19.5-11 37.3-25.9 47z"/><path class="st6" d="M203.1 189.9c3.8.6 6.7 3.7 7 7.5M176.2 186.2c2.9-2.5 7.2-2.7 10.3-.4"/><path class="st4" d="M186.3 210.3c-1.1-.8-2.2-1.6-3.3-2.5-.3-.2-.5-.4-.6-.7-.2-.8 0-1.7.6-2.3l2.4-3.6"/><ellipse transform="rotate(-60.91 199.308 199.29)" class="st2" cx="199.3" cy="199.3" rx="2.4" ry="1.9"/><ellipse transform="rotate(-60.91 179.852 194.4)" class="st2" cx="179.9" cy="194.4" rx="2.4" ry="1.9"/><path class="st5" d="M219.1 204.9s6.3.7-2.8 10c0 0 1.2 7.1-3.1 10.6 0 0 10.9-2.2 23.2-23 0 0 5.9-19.4-6.8-31.2 0 0-16.1-15.9-38.1-8.6 0 0-23.4 8.3-22.4 30.6 0 0 7.2-16.5 17.6-21.8 0 0 16.5 9.6 24.7 7.6.1-.1 7.5 4.2 7.7 25.8z"/><path class="st7" d="M178.4 216.2s4.6 6.7 14.3 2.8c-.1 0-7.5 10.5-14.3-2.8zM196.5 215.2c.6 1 .7 2.2.2 3.2M179.4 191.4c2.2.7 4 2.6 4.6 4.9M199.5 196c1.6 1.2 2.8 3 3.3 5"/><path class="st4" d="M140.4 362.6c4.1 0 8.1.5 12.1 1.6 10.5 3.1 13.5 12.6 10.2 15.8-3 2.9-12 1.2-14.5-1.4-3.9-4.2-7.8 1-13-3.5l-2.9-2.5 8.1-10z"/></g><g id="Layer_9-2"><path class="st2" d="M586.8 664.2h-16l2.6-275.7 103.8 11.7 26.1 264h-16l-59.5-234.8s-3.3-5.7-7.5 0l-33.5 234.8h-16"/><path class="st3" d="M716.5 322.9l-35.1 38.9 8.1 9.9c15.2-10 38.3-26.3 50.9-35.3 5.2-3.7 6.6-10.9 3.1-16.3-17.1-26.1-53-63.6-67.3-73.4-11-4-23.9-2.9-35.1.7-10.8 12.2-25.4 0-25.4 0-37.7-.6-45.6 5.7-45.6 5.7l-47.3 65-5.7 86.5 10.8.8 21-77.1 20.8-19.8 3.8 91.7c60.9 17.9 103.7 0 103.7 0-7.6-34.3 1.5-107 1.5-107l37.8 29.7z"/><path class="st4" d="M517.2 404.6s-3.7 24.3 1.8 24.8c4 .3 8.6-15.9 8.6-15.9s13.1.6.4-8.2l-10.8-.7z"/><path class="st5" d="M687.3 664.2V678h7.5v-3.4l4.6 3.4h34.8l-30.9-13.8zM586.8 664.2V678h-7.4v-3.4l-4.7 3.4h-34.8l30.9-13.8z"/><path class="st4" d="M612 237.4l-13.8 13.8 20.8 2.5s10.8-11.9 1.3-15.1l-8.3-1.2zM624.6 254.1l21.4 1.2-7.4-14.3-12.4-1.7z"/><path class="st5" d="M619.1 251.8l-11.5 91.1 15.4 18.9 12.8-20.6-12.7-89s-1.7-4.5-4-.4z"/><path class="st4" d="M636.9 242.5c.2.3.2.7.2 1-.1.3-.3.6-.5.8-2.8 3-5.9 5.7-9.2 8.1-1.9 1.4-4.4 2.8-6.7 1.9-1.4-.6-2.6-1.6-3.4-2.9l-4.1-5c1.9-1.3 1.9-4.1 1.7-6.4-.3-3.1-.8-6.1-1.4-9.1 5-3.8 10.8-6.3 17-7.2 2.1-.3 3.2 0 3.3 2.2 0 1.9.1 3.8.3 5.7.4 3.8 1.3 7.4 2.8 10.9z"/><path class="st4" d="M632.7 231.7c-5.6 3.6-12.5 6.6-18.8 4.5-4.7-1.6-8-5.7-10.3-10-2.3-4.7-4.2-9.7-5.5-14.8-1.1-3.1-1.8-6.4-2-9.8 0-4.8 1.9-9.3 3.8-13.7 3.1-7.2 6.7-14.9 13.5-18.8 4-2 8.3-3.3 12.7-3.8 3.2-.7 6.5-.9 9.8-.6 2.7.4 5.4 1.4 7.8 2.8 6.9 3.7 12.3 9.8 15 17.1 6.8 19.5-11.1 37.3-26 47.1z"/><path class="st6" d="M631.9 189.1c3.8.6 6.7 3.7 7 7.5M605 185.4c2.9-2.5 7.2-2.7 10.3-.4"/><path class="st4" d="M615.1 209.5c-1.1-.8-2.2-1.6-3.3-2.5-.3-.2-.5-.4-.6-.7-.2-.8 0-1.7.6-2.3l2.4-3.6"/><ellipse transform="rotate(-60.91 628.124 198.474)" class="st2" cx="628.2" cy="198.5" rx="2.4" ry="1.9"/><ellipse transform="rotate(-60.613 608.93 193.824)" class="st2" cx="608.9" cy="193.8" rx="2.4" ry="1.9"/><path class="st5" d="M647.9 204.1s6.3.7-2.8 10c0 0 1.2 7.1-3.1 10.6 0 0 10.8-2.2 23.2-23 0 0 5.8-19.3-6.8-31.2 0 0-16.1-15.9-38.1-8.6 0 0-23.4 8.3-22.4 30.6 0 0 7.2-16.5 17.6-21.8 0 0 16.5 9.6 24.7 7.6.2-.1 7.5 4.2 7.7 25.8z"/><path class="st7" d="M607.2 215.4s4.7 6.7 14.3 2.8c-.1.1-7.5 10.5-14.3-2.8zM625.3 214.4c.6 1 .7 2.2.2 3.2M608.3 190.6c2.2.7 4 2.6 4.6 4.9M628.3 195.2c1.6 1.2 2.8 3 3.3 5"/><path class="st4" d="M681.4 361.8c-4.1 0-8.1.5-12 1.6-10.5 3.1-13.5 12.6-10.2 15.8 3 2.9 12 1.2 14.5-1.4 3.9-4.2 7.8 1 13-3.5l2.9-2.5-8.2-10z"/></g><g id="Layer_8"><path class="st4" d="M318.5 290.5c.1.3.1.6.1.9-.1.3-.3.5-.6.7-2.9 2.4-6.1 4.5-9.4 6.2-2 1-4.4 2-6.4 1-1.2-.8-2.1-1.8-2.8-3.1l-3.1-5.2c1.9-1 2.3-3.5 2.4-5.6.1-2.8.1-5.7-.1-8.5 5-2.8 10.7-4.3 16.4-4.3 2 0 2.9.4 2.7 2.5-.3 1.7-.4 3.5-.5 5.3 0 3.3.5 6.8 1.3 10.1z"/><path class="st8" d="M330.9 668.8h10.6s9.3-180.1 7.3-221.5c-1.3-26.1-15.8-39.8-15.8-39.8h-57.6s-14.5 13.7-15.8 39.8c-2 41.4-15.3 221.5-15.3 221.5h12.4s42.6-217.2 47.6-214.9c-.1 0 20.4 91.4 26.6 214.9z"/><path class="st5" d="M258.2 667.1v20.2h-3l-2.1-8.4-5.3 8.5h-29.6c11.4-2.4 21.1-9.8 26.5-20.2l13.5-.1zM329 667.1v20.2h3l2.1-8.5 5.3 8.5H369c-11.4-2.4-21.2-9.8-26.5-20.2H329z"/><path class="st2" d="M314.2 277.7l.7 3.9 3.9 4.5c.4.4.6.8.8 1.3 4.3 2.4 8.8 4.6 13.4 6.5 4.8 2.3 8.4 4.4 11 7.4-.3-7.5-1-15-1.7-22.5-.6-7-1.7-14-2.6-21-.8-6.5 1.3-11.7 1.8-18.2 1.4-19-5.7-34.6-24-40.8-17.2-5.9-34.3 6.2-39.5 22.5-.6 2-1.1 4-1.5 6.1-1.1 5.6-1.6 11.3-3.6 17-2.8 8.1-6.3 15.9-10.6 23.4-2.1 3.6-14 25.2-10 30.4l61.9-20.5z"/><path class="st9" d="M264.7 323.4s-2.7 2.8 8.5 50.9c3.1 13.5-5.6 36.4-8 48.9 0 .1 48.6 16.4 77.1-2-4.2-5.5-10.7-25.1-10.2-44.4.4-14.8 6.9-29.2 9.2-38.5l2.1-8.8 26.6 82.8 11.9-1.6c-13.6-88-27.8-117.9-27.8-117.9-8.2-4.7-32-14.5-32-14.5-6.4 4.6-13.9 3.3-21.2.4-5-4-40.6 6.5-45.5 12.1-14 22.3-30.6 43.8-40.8 56.3-4.2 5.2-3.4 12.8 1.8 17 .6.5 1.2.9 1.9 1.2l44.5 23.9 1.5-9.5-27.2-27.3 27.6-29zM271.6 336.6s7.9 16.4 26.6 7.4M339.2 336.6s-7.9 16.4-26.6 7.4"/><path class="st4" d="M371.3 412.4c-11 9 1 7.5 1 7.5s5.4 14.5 9.1 13.8c5-.9-.3-22.9-.3-22.9l-9.8 1.6z"/><g id="Layer_7-2"><path class="st4" d="M304.7 289.4c2.6-.1 9.5-4.6 13.2-9.5l2.9-5.3v1.7c-2.1.9-4.3-8.6-3.8-12.4-.6.5 4.1-13.9 3.5-13.4l-5.5 7.1c-3.3 3-2.4 3.4-5.7 3.3-3.3.1-7.9 7.3-11.3 4.4l-.9-.8c-2.5-2.1-4.8-4.6-6.7-7.3 0 .3 1 3.2 1 3.4.7 5.7 0 10.2-2.9 14.2l2.8 5.1c3.5 4.7 10.8 9.5 13.4 9.5z"/><path class="st4" d="M297.4 211.1c-.9 2.4 5.2 7.4 6.7 9.1 1.9 1.9 3.9 3.7 6.1 5.4.2 0 6.3 7.2 9.6 10.3 3.4 3 6.4 6.4 9.1 10-1.2 2.5-3.5 6.6-6 6.1-.8-.1-1.4.6-1.8 1.4-1 2.3-2.4 5.1-4.3 6.8-4.8 3.1-10.1 5.5-15.7 7-8.8 2.2-14.7-9.4-14.7-9.4-3.5-7-4.8-14.8-3.7-22.5 2.1-12.6 14.7-24.2 14.7-24.2z"/><path class="st10" d="M311.1 298.8l-2-2.4-1.6 2.9c-.3.6-.4 1.4-.3 2.1l2.8 12.7 1.7-5.8 1.9-5.5-1.1-1.9c-.3-.7-.8-1.4-1.4-2.1zM296.7 301l-1.1 1.9 1.9 5.5 1.7 5.8 2.8-12.7c.2-.7 0-1.4-.3-2.1l-1.5-2.9-2 2.4c-.6.6-1.1 1.3-1.5 2.1z"/><path class="st9" d="M310.1 314.2l-2.8-12.7c-.2-.7 0-1.4.3-2.1l1.6-2.9-4.5-5.6-4.5 5.6 1.6 2.9c.3.6.4 1.4.3 2.1l-2.8 12.7 3.5 11.5c1.3 0 2.6 0 3.9-.1l3.4-11.4z"/><path class="st4" d="M320.8 274.6l-2.9 5.3c-3.7 4.9-10.6 9.5-13.2 9.5s-9.9-4.8-13.2-9.5l-2.8-5.1-.1-.3-1.3 3.7.1-.1 8.3 24.7 1.1-1.9c.4-.8 1-1.5 1.5-2.1l2-2.4 4.5-5.6 4.5 5.6 2 2.4c.6.7 1.1 1.4 1.5 2.1l1.1 1.9 8.3-24.7.1.1-1.5-3.6z"/><path class="st4" d="M329.8 309.4l-6.2-11.1 8.4.9c-.8-2.3-2.3-12.4-4.3-16-.2-.5-.6-.9-1-1.2l-4.6-3.7-.1-.1-8.3 24.7-1.9 5.5-1.8 5.8-10.2 42.2 30-47z"/><path class="st4" d="M305.4 333.6l-6.1-19.5-1.7-5.8-1.9-5.5-8.3-24.7-.1.1-3.9 3.2-.7.6c-2.5 1.3-4.4 14.5-5.3 17.2l8.4-.9-6.2 11.1c-.2.4 17.8 27.7 23.1 35.6l2.7-11.4z"/><path class="st7" d="M309.9 231.7c2.7.3 5.1 1.7 6.7 3.9M289.4 229.4c2.5-1 5.3-1 7.7.2"/><circle class="st2" cx="309.5" cy="237.6" r="2"/><circle class="st2" cx="291.1" cy="234.1" r="2"/><path class="st7" d="M292.5 252.8s5.3 7.3 12.9 2.9M302.8 237.6c-.2 1.9-.8 3.8-1.8 5.5-.7 1.3-1.6 2.5-2.4 3.7-.4.6-.7 1.3-.7 2.1s.7 1.4 1.4 1.4"/><path class="st4" d="M264.3 379.8s19.6-1.8 20.6 13.1c0 0-3.3 6.4-12.1-1.2-5-4.2-4.8.3-9.9-2.5"/><path class="st7" d="M307.8 235.6s3.7-.8 6.5 3.2M295 235.4s-3.2-5.7-6.7-2.4"/></g></g><g id="Layer_8-2"><path class="st4" d="M533.3 290.5c.1.3.1.6.1.9-.1.3-.3.5-.6.7-2.9 2.4-6.1 4.5-9.4 6.2-2 1-4.4 2-6.4 1-1.2-.7-2.1-1.8-2.8-3.1l-3.1-5.2c1.9-1 2.3-3.5 2.4-5.6.1-2.8.1-5.7-.1-8.5 5-2.8 10.7-4.3 16.4-4.3 2 0 2.9.4 2.7 2.5-.3 1.7-.4 3.5-.5 5.3 0 3.3.4 6.8 1.3 10.1z"/><path class="st8" d="M545.7 668.8h10.6s9.3-180.1 7.3-221.5c-1.3-26.1-15.8-39.8-15.8-39.8h-57.7s-14.5 13.7-15.8 39.8c-2 41.4-15.3 221.5-15.3 221.5h12.3s42.6-217.2 47.6-214.9c.1 0 20.6 91.4 26.8 214.9z"/><path class="st5" d="M472.9 667.1v20.2h-3l-2.1-8.4-5.3 8.5h-29.6c11.4-2.4 21.1-9.8 26.5-20.2l13.5-.1zM543.8 667.1v20.2h3l2.1-8.5 5.3 8.5h29.6c-11.4-2.4-21.2-9.8-26.5-20.2h-13.5z"/><path class="st2" d="M528.9 277.7l.7 3.9 3.9 4.5c.4.4.6.8.8 1.3 4.3 2.4 8.8 4.6 13.4 6.5 4.8 2.3 8.4 4.4 11 7.4-.3-7.5-1-15-1.7-22.5-.7-7-1.7-14-2.6-21-.8-6.5 1.3-11.7 1.8-18.2 1.4-19-5.7-34.6-24-40.8-17.2-5.9-34.3 6.2-39.5 22.5-.6 2-1.1 4-1.5 6.1-1.1 5.6-1.6 11.3-3.6 17-2.8 8.1-6.4 15.9-10.6 23.4-2.1 3.6-14 25.2-10 30.4l61.9-20.5z"/><path class="st9" d="M558.5 323.4s2.7 2.8-8.5 50.9c-3.1 13.5 5.7 36.4 8.1 48.9 0 .1-48.7 16.4-77.1-2 4.2-5.5 10.7-25.1 10.2-44.4-.4-14.8-6.9-29.2-9.2-38.5l-2.2-8.8-26.6 82.8-11.9-1.6c13.7-88 27.9-117.9 27.9-117.9 8.2-4.7 32-14.5 32-14.5 6.4 4.6 13.8 3.3 21.2.4 5-4 40.6 6.5 45.5 12.1 14 22.3 30.6 43.8 40.7 56.3 4.2 5.2 3.4 12.8-1.8 17-.6.5-1.2.9-1.9 1.2l-44.5 23.9-1.5-9.4 27.3-27.3-27.7-29.1zM551.7 336.6s-7.9 16.4-26.6 7.4M484.1 336.6s7.9 16.4 26.6 7.4"/><path class="st4" d="M452 412.4c11 9-1 7.5-1 7.5s-5.4 14.5-9.1 13.8c-5-.9.3-22.9.3-22.9l9.8 1.6z"/><g id="Layer_7-3"><path class="st4" d="M519.4 289.4c2.6-.1 9.5-4.6 13.2-9.5l2.9-5.3v1.7c-2.2.9-4.3-8.6-3.8-12.4-.6.5 4.1-13.9 3.5-13.4l-5.5 7.1c-3.3 3-2.4 3.4-5.7 3.3-3.3.1-8 7.3-11.3 4.4l-.9-.8c-2.5-2.1-4.8-4.6-6.7-7.3 0 .3 1 3.2 1 3.4.7 5.7 0 10.2-2.9 14.2l2.8 5.1c3.5 4.7 10.8 9.5 13.4 9.5z"/><path class="st4" d="M512.2 211.1c-.9 2.4 5.2 7.4 6.7 9.1 1.9 1.9 3.9 3.7 6.1 5.4.2 0 6.3 7.2 9.6 10.3 3.4 3 6.4 6.4 9.2 10-1.2 2.5-3.5 6.6-6 6.1-.8-.1-1.4.6-1.8 1.4-1 2.3-2.4 5.1-4.3 6.8-4.8 3.1-10.1 5.5-15.7 7-8.8 2.2-14.7-9.4-14.7-9.4-3.5-7-4.8-14.8-3.7-22.5 2-12.6 14.6-24.2 14.6-24.2z"/><path class="st10" d="M512.2 298.8l2-2.4 1.6 2.9c.3.6.4 1.4.3 2.1l-2.8 12.7-1.8-5.8-1.8-5.5 1.1-1.9c.3-.7.8-1.4 1.4-2.1zM526.6 301l1.1 1.9-1.8 5.5-1.8 5.8-2.8-12.7c-.2-.7-.1-1.4.3-2.1l1.6-2.9 2 2.4c.4.6.9 1.3 1.4 2.1z"/><path class="st9" d="M513.1 314.2l2.8-12.7c.2-.7.1-1.4-.3-2.1l-1.6-2.9 4.5-5.6 4.5 5.6-1.6 2.9c-.3.6-.4 1.4-.3 2.1l2.8 12.7-3.5 11.5c-1.3 0-2.6 0-3.9-.1l-3.4-11.4z"/><path class="st4" d="M504.2 273.7l2.8 5.6c3.7 4.9 9.1 9.2 11.7 9.3s9.8-4.1 13.2-8.8l2.8-5.1.2-.3 1.3 3.7-.1-.1-8.3 24.7-1.1-1.9c-.4-.8-1-1.5-1.5-2.1l-2-2.4-4.5-5.6-4.5 5.6-2 2.4c-.6.7-1.1 1.4-1.5 2.1l-1.1 1.9-8.3-24.7-.1.1 1.6-2.6 1.4-1.8z"/><path class="st4" d="M493.4 309.4l6.2-11.1-8.4.9c.7-2.3 2.3-12.4 4.3-16 .2-.5.6-.9 1-1.2l4.7-3.7.1-.1 8.3 24.7 1.9 5.5 1.7 5.8 10.3 42.2-30.1-47z"/><path class="st4" d="M517.9 333.6l6.2-19.5 1.8-5.8 1.9-5.5 8.3-24.7.1.1 3.9 3.2.7.6c2.5 1.3 4.4 14.5 5.3 17.2l-8.4-.9 6.2 11.1c.2.4-17.8 27.7-23.1 35.6l-2.9-11.4z"/><path class="st7" d="M524.7 231.7c2.7.3 5.1 1.7 6.7 3.9M504.2 229.4c2.5-1 5.3-1 7.7.2"/><circle class="st2" cx="524.2" cy="237.6" r="2"/><circle class="st2" cx="505.8" cy="234.1" r="2"/><path class="st7" d="M507.2 252.8s5.3 7.3 12.9 2.9M517.5 237.6c-.2 1.9-.8 3.8-1.8 5.5-.7 1.3-1.6 2.5-2.4 3.7-.4.6-.7 1.3-.7 2.1s.7 1.4 1.4 1.4"/><path class="st4" d="M558.9 379.8s-19.6-1.8-20.6 13.1c0 0 3.3 6.4 12.1-1.2 5-4.2 4.8.3 9.9-2.5"/><path class="st7" d="M522.5 235.6s3.7-.8 6.5 3.2M509.8 235.4s-3.2-5.7-6.7-2.4"/></g></g><g class="st11"><path d="M211.4 91.3c-.4-3.9-3-5.6-6.8-5.6-3.1 0-6.1 1.1-6.1 4.7 0 6.7 17.4 2 17.4 12.7 0 5.8-5.7 8.1-10.6 8.1-6.1 0-11.3-3-11.3-9.6h3.4c0 4.6 3.8 6.6 7.9 6.6 3.3 0 6.9-1 6.9-5 0-7.5-17.4-2.6-17.4-12.6 0-5.5 4.9-8 9.9-8 5.6 0 9.8 2.6 10 8.6l-3.3.1zM219.8 90.9h3.1v2.9h.1c1.5-2.2 3.6-3.4 6.4-3.4 2.4 0 4.6.9 5.4 3.4 1.3-2.1 3.6-3.4 6.2-3.4 3.9 0 6.6 1.6 6.6 5.7v14.5h-3.4V97.7c0-2.4-.6-4.4-3.8-4.4s-5.1 2-5.1 5v12.3h-3.2V97.7c0-2.6-.8-4.4-3.7-4.4-3.8 0-5.3 3.5-5.3 5v12.3h-3.2l-.1-19.7zM269.8 110.5c-.6.3-1.4.5-2.3.5-1.7 0-2.7-.9-2.7-3.1-1.8 2.1-4.2 3.1-6.9 3.1-3.6 0-6.5-1.6-6.5-5.5 0-4.5 3.3-5.5 6.7-6.1 3.5-.7 6.6-.4 6.6-2.9 0-2.9-2.4-3.3-4.4-3.3-2.7 0-4.8.8-4.9 3.7h-3.2c.2-4.9 3.9-6.6 8.4-6.6 3.5 0 7.4.8 7.4 5.4v10.1c0 1.5 0 2.2 1 2.2.3 0 .6-.1 1-.2v2.7h-.2zm-5.2-10.1c-2.5 1.9-9.8 0-9.8 4.9 0 2.1 1.8 2.9 3.8 2.9 4.3 0 6-2.6 6-4.5v-3.3zM272.7 90.9h3.1v4.2h.1c1.6-3.2 3.7-4.7 7.2-4.6v3.4c-5.2 0-7.1 2.9-7.1 8v8.8h-3.2V90.9h-.1zM290 90.9h3.9v2.9H290V106c0 1.5.4 1.8 2.4 1.8h1.5v2.9h-2.5c-3.4 0-4.7-.7-4.7-4.3V93.8h-3.4v-2.9h3.4V85h3.2v5.9h.1zM297.9 106.4h4.2v4.2h-4.2v-4.2zm4-14.7l-1 11.9h-1.7l-1-11.9v-8.4h3.6v8.4h.1z"/></g><g class="st11"><path d="M548.9 83.4h17.9v3.1h-14.3v8.7H565v3.1h-12.5v12.5h-3.6V83.4zM587.8 110.5c-.6.3-1.4.5-2.3.5-1.7 0-2.7-.9-2.7-3.1-1.8 2.1-4.2 3.1-6.9 3.1-3.6 0-6.5-1.6-6.5-5.5 0-4.5 3.3-5.5 6.7-6.1 3.5-.7 6.6-.4 6.6-2.9 0-2.9-2.4-3.3-4.4-3.3-2.7 0-4.8.8-4.9 3.7h-3.2c.2-4.9 3.9-6.6 8.4-6.6 3.5 0 7.4.8 7.4 5.4v10.1c0 1.5 0 2.2 1 2.2.3 0 .6-.1 1-.2v2.7h-.2zm-5.3-10.1c-2.5 1.9-9.8 0-9.8 4.9 0 2.1 1.8 2.9 3.8 2.9 4.3 0 6-2.6 6-4.5v-3.3zM592.8 104.4c.1 2.9 2.7 3.8 5.3 3.8 2 0 4.8-.5 4.8-2.9 0-5.1-12.9-1.6-12.9-9.2 0-4 3.9-5.6 7.4-5.6 4.4 0 7.8 1.4 8.1 6.2h-3.3c-.2-2.5-2.5-3.3-4.6-3.3-1.9 0-4.2.5-4.2 2.5 0 2.3 3.4 2.7 6.4 3.4 3.2.7 6.4 1.8 6.4 5.6 0 4.7-4.4 6.2-8.4 6.2-4.4 0-8.2-1.8-8.4-6.7h3.4zM614.4 90.9h3.9v2.9h-3.9V106c0 1.5.4 1.8 2.4 1.8h1.5v2.9h-2.5c-3.4 0-4.7-.7-4.7-4.3V93.8h-3.4v-2.9h3.4V85h3.2l.1 5.9zM622.2 106.4h4.2v4.2h-4.2v-4.2zm4-14.7l-1 11.9h-1.7l-1-11.9v-8.4h3.6v8.4h.1z"/></g><g class="st11"><path d="M352.1 122.6h18.8v3.1h-15.2v8.7h14.2v3.1h-14.2v9.4H371v3.1h-18.9v-27.4zM376.2 132.9h-3.3V130h3.3v-2.9c0-3.2 1.9-4.9 5.5-4.9.6 0 1.5.1 2.1.3v2.8c-.6-.2-1.3-.3-1.8-.3-1.6 0-2.5.5-2.5 2.2v2.7h3.8v2.9h-3.8v17h-3.3v-16.9zM387.5 132.9h-3.3V130h3.3v-2.9c0-3.2 1.9-4.9 5.5-4.9.6 0 1.5.1 2.1.3v2.8c-.6-.2-1.3-.3-1.8-.3-1.6 0-2.5.5-2.5 2.2v2.7h3.8v2.9h-3.8v17h-3.2v-16.9h-.1zM414.2 143.6c-.9 4.4-4 6.7-8.4 6.7-6.3 0-9.3-4.4-9.5-10.4 0-6 3.9-10.3 9.3-10.3 7 0 9.1 6.5 8.9 11.3h-14.8c-.1 3.4 1.8 6.5 6.1 6.5 2.7 0 4.5-1.3 5.1-3.9l3.3.1zm-3.1-5.5c-.2-3.1-2.4-5.6-5.7-5.6-3.4 0-5.5 2.5-5.6 5.6h11.3zM431.3 136.4c-.5-2.5-2.2-3.9-4.9-3.9-4.7 0-6.1 3.7-6.1 7.7 0 3.7 1.6 7.2 5.8 7.2 3.2 0 5-1.8 5.4-4.8h3.3c-.7 4.8-3.7 7.7-8.7 7.7-6 0-9.2-4.2-9.2-10.1s3.1-10.6 9.3-10.6c4.5 0 8 2.1 8.5 6.8h-3.4zM442.9 130.1h3.9v2.9h-3.9v12.2c0 1.5.4 1.8 2.4 1.8h1.5v2.9h-2.5c-3.4 0-4.7-.7-4.7-4.3V133h-3.4v-2.9h3.4v-5.9h3.2l.1 5.9zM453.8 126.5h-3.2v-4h3.2v4zm-3.2 3.6h3.2v19.7h-3.2v-19.7zM467.8 149.8h-3.5l-7.3-19.7h3.6l5.5 16.4h.1l5.4-16.4h3.4l-7.2 19.7zM494.8 143.6c-.9 4.4-4 6.7-8.4 6.7-6.3 0-9.3-4.4-9.5-10.4 0-6 3.9-10.3 9.3-10.3 7 0 9.1 6.5 8.9 11.3h-14.8c-.1 3.4 1.8 6.5 6.1 6.5 2.7 0 4.5-1.3 5.1-3.9l3.3.1zm-3.2-5.5c-.2-3.1-2.4-5.6-5.7-5.6-3.4 0-5.5 2.5-5.6 5.6h11.3zM498.8 145.6h4.2v4.2h-4.2v-4.2zm3.9-14.6l-1 11.9H500l-1-11.9v-8.4h3.6v8.4h.1z"/></g><path class="st2" d="M443.4 313.6c20.9 10.4 47.5-21.7 47.5-21.7s13.9-7.8 12.9-20.8c0 0-5.6 11.1-24-3.1-9.1-7.2-13.6-18.5-20.6-27.8 0 0-12.9-16.3-32.2-21.2 0 0-14.9-5.8-32.6 4.1 0 0-16.3 8.6-16.9 26.6 0 0-3.1 22.3 18.6 39.8 4.4 3.4 8 7.6 10.8 12.4l32.8 9.4"/><path class="st4" d="M394.6 453.7s37.5 189.4 41.7 228.8l13 6.2-5.2-244.4c.1 0-34.3-36.7-49.5 9.4zM394.6 471.9S302 650.7 285.8 686.8h-12.4l77-239.2s44-24.2 44.2 24.3z"/><path class="st2" d="M449.2 681.3c6.9 13.5 22.4 23.2 37.3 26.3h-38.6l-6.9-11-2.8 11h-3.9l2-25.1 12.9-1.2zM287.8 681.3l1.4 26.3h-3.9l-2.8-11-6.9 11H237c14.9-3.1 31.2-12.8 38.1-26.3h12.7z"/><path class="st4" d="M350.8 406.6l-47.4-40.2c-4.1-3.5-4-9.9.1-13.3l51.2-39.4-2.9 27.4-26.1 21.1 30.6 36.5M497.4 443.1L471.7 385l-25.4-72.8-19.2 7.1 30.8 78.1 31.5 51.3"/><path class="st4" d="M374.7 303.4s19.7 2.2 22.9-6.2c3.2-8.4-1.6-13-1.6-13l18.5 2.3s-.6 13.8 11.8 16.4c0 0 12.6 31.4 9.2 46.2-5.8 24.7-30.3 38.4-40.8 40.6-10.1 2.1-31.7-22-34.1-46.2-1.6-16 14.9-32.7 14.1-40.1z"/><path class="st12" d="M433.8 399.9s-9.9-20.5-7.5-26.5c2.4-6.1 8.2-15.8 9.1-24.3s-16.7-44.1-38-30.7c0 0-28-16-37.6 26.3 0 0 4.1 18.9 6.1 26.7 2 7.9-4.7 27.3-4.7 27.3s30.6 19.2 72.6 1.2z"/><path class="st12" d="M467.9 361.5l-22.2-51.8c-2.1-1.7-4.6-2.9-7.2-3.6l-12.3-3.2s-13.5 10.4-25.9 10.4c-9.5 0-12.3-5-12.9-10.4l-12.7.5c-3.4-.1-6.7.7-9.6 2.5l-44.3 32.8s21.7 32.1 42.9 9.2c7.9-8.6 3-31.7 34.5-21.2 0 0 23.7-10.5 31.2 17.2 4.3 16.2 13.1 28.7 38.5 17.6z"/><path class="st2" d="M433.8 399.9c22.7 27.2 22.7 148.8 22.7 148.8s-25.5 12.5-61.9 13.4-73.8-22.7-73.8-22.7 41.3-135.1 40.4-140.7c.1 0 30.9 19.1 72.6 1.2z"/><path class="st4" d="M419.4 284.3c-4.9 4-11 7.4-17.1 6.1-4.5-1-8.1-4.5-10.7-8.3-2.6-4.2-4.9-8.6-6.7-13.2-1.4-2.8-2.3-5.8-2.8-9-.5-4.5.8-8.9 2.2-13.1 2.2-7 4.8-14.5 10.7-18.9 3.5-2.3 7.4-3.9 11.5-4.8 2.9-1 6-1.5 9.1-1.6 2.6.1 5.2.7 7.6 1.8 6.8 2.8 12.4 7.9 15.7 14.5 8.5 17.5-6.6 36-19.5 46.5z"/><path class="st5" d="M435.6 271.7s-16.8-22.3-10.8-39.3c0 0-11.6 5.6-18.6 5.7 0 0-18.2-1.1-21.7 12.4-.2.9-.3 1.8-.3 2.7.2 2.9.4 10.4-1.7 13.7l-2.1-6.5 1.3-14.6 10.8-18.1 13-8.1 16.1 1.1 12.3 6.1 11.3 19.8-4.1 17.6-5.5 7.5z"/><path class="st4" d="M420.3 255.5c-.8.2-1.6 0-2.2-.5s-1.2-1-1.7-1.6c-.4-.4-.8-.8-1.3-1.1s-1-.6-1.5-.8c-1.5-.3-3 0-4.1 1-1.1.9-2.1 2.1-2.9 3.3M398.6 252.7l-1.2-1.4c-.9-1.2-2.2-2-3.6-2.3-1.2 0-2.4.3-3.5.9-1.1.5-2.4.5-3.4-.2M407.5 247.8c3.8-2.7 8.9-2.5 12.4.5M400.1 246.2c-2.2-2.4-5.4-3.5-8.6-2.9M401.6 268c-1.1-.6-2.3-1.3-3.3-2-.3-.2-.5-.4-.7-.6-.4-.6 0-1.5.3-2.2l1.8-3.6M404.4 280c-.9.2-1.7.5-2.5.8-.3.2-.5.3-.8.5-1.1.4-2.4-.5-2.8-1.7-.3-1.2-.6-2.4-.8-3.6-.3-1-.8-1.9-1-2.9-.1-.3 0-.6.1-.8.3-.5.9-.6 1.5-.5 3.8.4 7.6 1.7 10.9 3.7.1.1.2.1.3.3.4.6-1 2.1-1.4 2.6-1.1.7-2.2 1.3-3.5 1.6z"/><path class="st13" d="M398.5 282c1.1.6 2.3.8 3.5.5s2.3-.9 3.3-1.6c.8-.5 1.6-1.1 2.3-1.6.6-.4 1.1-.9 1.6-1.5.4-.6.7-1.3.6-2-1.2 1-2.5 1.9-3.8 2.5-1.8.9-3.9 1.3-6 1.1-.7-.1-1.7-.7-2.3 0s0 2.1.8 2.6z"/><path class="st13" d="M395.8 270.9c2.5-.7 5.1-.6 7.5.5 2.3 1.1 4.5 2.4 6.5 4 .1.1.3.2.2.4 0 .1-.2.2-.4.1-2.4.2-4.7-1-7-1.8-1.9-.6-3.8-.8-5.8-.7-1.5.1-3.3-1.7-1-2.5z"/><ellipse transform="rotate(-66.945 411.836 253.945)" class="st2" cx="411.8" cy="253.9" rx="2.2" ry="1.8"/><ellipse transform="rotate(-66.945 393.15 251.203)" class="st2" cx="393.1" cy="251.2" rx="2.2" ry="1.8"/><path class="st4" d="M489.4 448.7s-1.1 14.9 1.7 12.6c.6-.5 1.5-2.7 2-2.6 1.7.4 2.9 7.2 5 8.9 2.7 2.1 7.9-6.9-.7-24.6M356.3 398.7s4.5 0 8.3 1.3c7.2 2.5 9.3 10.3 7 12.9-2.1 2.4-8.3 1-10-1.1-2.7-3.4-5.4.8-8.9-2.8l-2-2.1"/></svg>