<svg version="1.1" id="Layer_1" xmlns="http://www.w3.org/2000/svg" x="0" y="0" viewBox="0 0 1040.7 818.9" xml:space="preserve"><style>.st3,.st4{fill:#eb058c;stroke:#000;stroke-width:.5;stroke-miterlimit:10}.st4{fill:#0077bf}.st5{fill:#1a1a1a}.st6,.st7{stroke:#000;stroke-width:.5}.st6{stroke-miterlimit:10;fill:#fff}.st7{fill:#ffe600}.st7,.st8{stroke-miterlimit:10}.st11,.st12,.st8,.st9{fill:#fff;stroke:#000}.st9{stroke-miterlimit:10;stroke-width:.75}.st11,.st12{stroke-width:.5;stroke-linejoin:round}.st12{fill:none;stroke-width:.75}.st13,.st14,.st15,.st16,.st18{fill:#1a1a1a;stroke:#000;stroke-width:.5;stroke-miterlimit:10}.st14,.st15,.st16,.st18{fill:#c10072}.st15,.st16,.st18{fill:#848484}.st16,.st18{fill:none}.st18{fill:#bcbcbc}.st21{fill:#fff}</style><path d="M706.5 719.9c-93.4-53.8-193.5 31-249 61.9-69 38.4-182.4 72.4-321.2-35.6 0 0-240.2-166.2-82.7-476.7 0 0 34.9-132.2 247.4-233.6 0 0 210.9-78.3 366-3.5 0 0 233.1 93.1 328.2 319.3 0 0 148 309.8-89.4 404-40.8 16.1-122.7 8.3-199.3-35.8z" fill="#f5f5f5" id="Layer_6"/><path fill="#c6c6c6" stroke="#000" stroke-width=".5" stroke-miterlimit="10" d="M87 554.3h645.6v24H87z"/><path fill="#e8e8e8" stroke="#000" stroke-width=".5" stroke-miterlimit="10" d="M732.6 554.3L684 516.1H119l-32 38.2z"/><path class="st3" d="M491.9 264.4c-3.8 1.1-29.9-4.8-41.4-14.2l-29.6-24.4s-11.6-9.9-14.9-6.9-4.8 20.5 6.2 27.3c8 5 25.4 19.3 36.2 23.4 8.2 3.1 39.7 8.9 43.5 7"/><path class="st4" d="M551.2 283.3L569 532.1l-13.7-2.9-55.1-239.4z"/><path class="st4" d="M538.1 285l-51.3 245.7-11.2 1.4 10.7-241.7z"/><path class="st5" d="M474.6 528.5v13.4h7.3v-3.3l4.6 3.3h33.8l-30.1-13.4zM554.9 528.5v13.4h7.3v-3.3l4.6 3.3h33.9l-30.2-13.4z"/><path class="st6" d="M505 178.2l16.4 16.5 16.8 27.9 33.7-24.9 2.7 11.1-41.4 44.1-37.5-53.4zM473.5 181.9c-1.4-1.5-4-20-4-20l12.5-.8 8.6 22.5s-13.4 2.2-17.1-1.7z"/><path class="st7" d="M551.2 283.3L529 213.2l-24-35-16.6.3-21.3 8.2-20.4 13.1 39.4 53.6-.2 46.4z"/><path class="st6" d="M471.6 175.6l-6.5 11.2 16.9 10.1 4-15.4 1.7-.8 11.4 7.1-3-9.9-9.4-6.8-3.1 7.9z"/><g id="Layer_9"><path class="st6" d="M495.4 134.2c-4.9-6.7-4.1-7.1-7-9.9-4.8-4.6-10.1-9.5-16.8-10.4-3.8-.3-7.6.1-11.3 1.1-2.8.5-5.4 1.4-7.9 2.7-2 1.2-3.8 2.8-5.2 4.7-4.2 5.2-6.4 11.7-6.2 18.4 1 17.6 18 26.6 32.9 29.4 5.6 1 14.8.2 19.1-3.5 11.7-11.1 7.1-26 2.4-32.5z"/><path class="st8" d="M469.7 137.4c-3.9 1-7.2 5.8-7.3 8.5M488.5 128.1c-3.1-1-8.2-.1-9.9 2.7"/><path class="st6" d="M485.7 151.3c.6-1 1.2-2 1.8-3.1.1-.2.2-.5.3-.8 0-.7-.6-1.2-1.2-1.6l-3-2.1"/><path class="st5" d="M455.8 152.7s-6.5-2.2-6.3 1.3c0 1.2 4.7 6.6 11.7 5.6 0 0 .3 7.3 4.8 8.6 0 0-8.2.5-24.7-11.8 0 0-14.8-10.2-.3-24.8-2.3-14.3 8.2-26.3 27.9-27.8 10.3 4.7 18.3 13.4 22.2 24 0 0-5.6-9.1-15.5-9.8 0 0-6.1 17-19.9 12.5.1.1-6.8 5.1.1 22.2z"/><path class="st9" d="M489.4 132.1s-4.9 1.4-4.6 5.3c0 0 2.4-2.7 5-2.5M466.2 147.2s3.1-3.8 7.5-3.9c-1.5.7-2.7 1.9-3.3 3.5"/><path class="st6" d="M475.5 162.5s4.3-6.2 8.1-6.1c3.2.1 5.6 5.3 5.6 5.3s-8.6-.2-13.7.8zM457.4 140.3s-3 17.4 2.1 17.1c7.2-.4-2.1-17.1-2.1-17.1z"/></g><path d="M557 210s9.8-36.8 67.4-96.1C683.5 53 766.7 17.7 766.7 17.7s-25.5 11-74.6 43.9c-28 18.8-55.5 43.4-67.6 56.7-58 63.6-63.7 93.8-63.7 93.8L557 210z" fill="#aaa" stroke="#000" stroke-width=".5" stroke-miterlimit="10"/><path class="st6" d="M585.8 201.5c.5 4.7-11.3 7.3-11.3 7.3l-2.7-11s2-4.9 3.8-4.7 8 .9 6.9 4.1-5-.8-5-.8c1.4 10.7 8.2 7.2 8.3 5.1.1-2 .6-8.7-.9-10.4s-9.2 1.9-9.2 1.9"/><path class="st4" d="M582.4 194.7c-.3-.3-.6-.6-1-.8-.3-.2-.6-.3-.9-.4-1.1-4.1-2.3-8.1-3.3-12.3-.1-.4-.6-.7-1-.6-1.1.1-2.1.3-3.1.6-.8.2-.8 1.6.2 1.5.9 0 1.7-.2 2.6-.3 1.2 3.7 2.1 7.5 2.8 11.4-.3.2-.5.4-.8.6-1.5 1.6-.9 4.1.2 6.3 0 1.2.2 2.4.6 3.6 1 3.5 1.9 3.5 5.4 2.5.6-.2 1-.8.8-1.4-.4-2-.8-4-1.3-6-.3-1.2-.4-3.6-1.2-4.7zM564.9 213.1c.6-1.2 1.1-2.4 1.6-3.6.5-1.4-.4-2.1-1.6-2.4-.6-.4-1.4-.4-1.8.2-.1.1-.1.2-.2.3-1.2 2-2.3 4.1-3.4 6.1-.4.7-.1 1.6.6 1.9.2.1.5.2.8.2.4.3.8.4 1.3.5.4.1.8 0 1.1-.3.7-.8 1.2-1.8 1.6-2.9z"/><path class="st6" d="M585 191.1c-1-1.1-3.8-1.5-6 .1s-2.9 15.7 5.7 13c3.2-1 2.4-10.6.3-13.1z"/><circle class="st4" cx="572.6" cy="183.9" r="11.4"/><circle class="st4" cx="572.6" cy="183.9" r="6.5"/><path class="st4" d="M564 203.8c.4.1.8.4 1 .8.2.5.1 1.1-.2 1.5-6.8 16.2-30.8 63.2-39.3 78.5-.2.4-.5.8-.9.9-.3 0-.7 0-1-.2l-2.8-1.3c-.4-.1-.8-.4-1.1-.8-.1-.4-.1-.9 0-1.3.5-2.3 17.7-35.7 18.7-37.8 3.7-8.4 7.6-16.7 11.7-25 2-4.1 4.1-8.2 6.2-12.3.6-1.1 1.4-3.9 2.7-4.5 1.4-.7 3.7.9 5 1.5z"/><path class="st11" d="M446.7 199.8l1.3 23.4 28.4 45.4c3.7 4.4 10.1 7.1 15.4 4.2l48.5-22.8-4.4-10.1-46.4 12.9-16.6-38.9-17-13.6-9.2-.5z"/><path class="st6" d="M535.9 239.9s3.5-6.9 5.5-6.9 2.4 1.2 3.2 1.1 7.1-3.7 8.6-1.6-3.8 13.1-3.8 13.1-2.2 2.6-9.1 4.7l-4.4-10.4z"/><path class="st12" d="M766.7 17.7s42.2 404.5-19.8 610.5"/><path class="st6" d="M325.5 172.4l20.8 53.6 46.3 20.2-.8 9.2-58.9-11-35.4-46.2z"/><g id="Layer_7"><path class="st13" d="M389.9 212.1s4 23.9-12.1 42.1c-9.6 10.7-23.6 16.4-37.9 15.3 4.3-3 6.3-8.5 5-13.6C332 173.5 367 152.1 367 152.1s9.5-10.3 27.2-9.2c0 0 16.2.5 23.5 14.5 0 0 11 16.5.6 38.5-2.1 4.4-4 17.9-4.4 22.7L382 233"/><path class="st11" d="M437.6 308.9l2.5 76.1-9.6 138.2h-10.6l-10.1-142.9-16.2-76z"/><path class="st11" d="M377.3 313.2l-.3 73.1-6.8 136.9h9.6l27.5-130.3 14.7-74.6z"/><path class="st3" d="M382.5 212.3s-20.9 9-19.6 17.4c2.8 18.7 13.9 32.3 13.9 32.3l10.8 21.3c1.5 4.4-6.2 14.6-10.8 22.8L336 393.7s69.5 42 142.5 5.8c.2-.1-.2-.4-.3-.6 0 0-34.7-105.9-47.7-117.6-3.6-8.6-1.3-19.6 1.3-24.6.7-1.3 1.1-2.7 1.3-4.1.3-2.6-.6-5.3-2.4-7.2L408.1 217l-7.7-2.5"/><path class="st3" d="M487 276.4l1.6 10.7s-47.3 2.3-62.8-1c-27.6-5.8-57.5-32.5-62-45.1-1.6-4.4 2.7-16.1 13.6-18.1 0 0 34.2 37.8 52.5 43.3s57.1 10.2 57.1 10.2z"/><path class="st5" d="M418.9 523.2V542h2.8l2-7.9 4.9 7.9h27.6c-10.6-2.2-19.7-9.1-24.6-18.8h-12.7zM368.2 523.2V542h2.8l2-7.9 4.9 7.9h27.6c-10.6-2.2-19.7-9.1-24.6-18.8h-12.7z"/><path class="st6" d="M403.5 215.6l.1-.7c-1.6-1.1-1.5-3.4-1.2-5.4.4-2.5.8-5 1.4-7.5-4-3.3-8.7-5.5-13.8-6.4-1.7-.3-2.7 0-2.8 1.8s-.1 3.2-.4 4.7c-.5 3.1-1.4 6-2.7 8.9-.1.2-.2.5-.2.8.1.3.2.5.4.7 2.2 2.6 4.7 4.9 7.4 7 .9.6 1.8 1.1 2.8 1.5 3.5 1.4 7.4-.3 8.7-3.8.1-.5.2-1 .3-1.6z"/><path class="st6" d="M393.9 201.9c5.1 2.1 11.1 3.6 15.9.9 3.5-1.9 5.7-5.8 7-9.6 1.2-4.2 2-8.4 2.4-12.8.5-2.7.5-5.5.2-8.2-.7-3.9-2.9-7.3-5.1-10.5-3.6-5.4-7.6-11.1-13.7-13.3-3.5-1.1-7.2-1.5-10.9-1.2-2.7-.1-5.4.2-8.1.9-2.2.7-4.2 1.9-5.9 3.4-5.1 4-8.5 9.7-9.7 16.1-2.8 16.8 14.3 28.6 27.9 34.3zM404.4 165.1c1.2-2.5 3.7-4.2 6.5-4.5"/><path class="st5" d="M377.1 195.3s12.5-24.2 3.2-37.1c0 0 7.4 3.2 13.3 1.6 0 0 17.1-3.8 23 8 0 0 1.9 7.3 4 10.5l.2-6-4.7-11.9-13.5-12.6-13-3.6-13.3 4.9-8.8 8.1-4.6 19.4 7.7 13.8 6.5 4.9z"/><path class="st6" d="M386 177.9c.7 0 1.4-.3 1.8-.9.4-.6.7-1.2 1-1.8.2-.4.5-.9.8-1.2.3-.4.7-.7 1.1-1 1.2-.6 2.5-.6 3.7-.1s2.3 1.2 3.2 2.1M394.9 168.3c-3.8-1.4-8.1.1-10.3 3.5M404.9 183.8c.8-.8 1.6-1.6 2.3-2.5.2-.2.3-.4.4-.7.2-.6-.3-1.3-.8-1.8l-2.4-2.6M405.4 194.6c.8-.1 1.6 0 2.4.1.3.1.5.2.8.2 1 .1 1.9-1 2-2.1 0-1.1-.1-2.1-.2-3.2 0-.9.2-1.8.1-2.7 0-.3-.1-.5-.2-.7-.3-.4-.9-.2-1.4-.1-3.1 1.3-6 3.3-8.3 5.8-.1.1-.2.2-.2.3-.2.6 1.3 1.6 1.8 1.8 1 .4 2.1.6 3.2.6z"/><path class="st14" d="M410.9 194.9c-.7.8-1.8 1.3-2.9 1.3s-2.1-.2-3.2-.5c-.8-.2-1.5-.5-2.4-.8-.6-.2-1.2-.5-1.7-.8-.5-.4-.9-.9-1-1.5 1.2.6 2.5 1 3.9 1.2 1.8.3 3.6.2 5.3-.6.6-.3 1.3-1 2-.6s.5 1.7 0 2.3z"/><path class="st14" d="M410.4 184.9c-2.3 0-4.4.8-6.2 2.2-1.7 1.5-3.2 3.2-4.4 5-.1.1-.2.2-.1.4s.2.1.4.1c2.1-.5 3.7-2 5.4-3.2 1.4-.9 3-1.6 4.7-2 1.3-.5 2.4-2.4.2-2.5z"/><path class="st3" d="M373.9 218.2s-11.2-.1-12.2 3.4 1.9 3.8 1.9 3.8-5.6 2.1-2.2 6.3c3 3.7 5.2.1 5.2.1-.7 2 .2 4.1 2 5.1 1.8 1.1 4.1.8 5.6-.7 0 0 .6 4.5 3.6 4.6s4.9-2.9 4.9-2.9-.5 2.9 3 4 4.6-2.9 4.6-2.9c.5 2.1 2.4 3.5 4.5 3.5 3.9.2 3.7-3.7 3.7-3.7s2.2 3.9 5.4 2.6c1.8-.6 2.9-2.5 2.4-4.3 0 0 2.1 3.3 5.4 1.3s.8-4.6.8-4.6 3 2.8 4.5.1.4-4 .4-4 1.4 1.4 3-.6.5-3.4.5-3.4 1.1.4 1.7-2.6-4.1-2.7-4.1-2.7 2.1-2.8-.1-3.3-9.2-.8-10.5.9c0 0 .5 9.3-8.9 10.8s-25.1-10.8-25.1-10.8z"/><path class="st11" d="M487 276.4s13.2-6.5 13.2-4.2c.2 1.2-.3 2.3-1.2 3 0 0 10.7-1.6 12.7 1.9 3.8 6.6-23 10.1-23 10.1l-1.7-10.8z"/><path class="st6" d="M407.6 172.4s.4-4.8 3.3-4.2c.5.1 2.3 1 2.7 1.1 2 .7 2.3.2 2.7-.1"/></g><path class="st7" d="M179.9 229.6l6.1-10.8 11.7 2.5 31.7 35.1 42.7-11.1 3.5 10.2-51.1 21.1-44.8-29.6z"/><path class="st6" d="M292 165.1l14.6-18.3s7.9 10.2 11.9 10.1l-7.1 19.9c.1 0-19.9-4.5-19.4-11.7z"/><path class="st15" d="M326.4 293.4l3.4 115.6-7.5 119.4H304l-5.4-110L272 277z"/><path class="st15" d="M312.7 285S302 325.4 296 346.6s-14 81.8-14 81.8l-24 100h-19.5l13.2-103-2.7-101 8.3-49.8 55.4 10.4z"/><path class="st6" d="M257.3 274.7l-5.6 20.9 78.1 12-3.4-14.2-7.8-33.1z"/><path class="st4" d="M296.4 158.5l-30.5 11.1s-7.3 13.7-10 28.6c-1.7 9.7-.5 16.7 0 29.2l1.4 47.3 24.9 18.5 34.5-12.5 9.8 12.7.1-78.8-1-42.2-9.6-8.1-3.1 1.7-16.5-7.5z"/><path class="st6" d="M381.3 277s16.2 10.6 19.9 7.5c6.1-5.1-11.3-11.2-8.2-13 4-2.4-3.2-4.8-11.6-5.4l-.1 10.9zM346 109.3c3.5 2.3 4.3 11.5 2.3 16.7s-6.1 13.7-4.4 15.2c.6.6 2 1.7 2.2 2.3.3 1-2.4 2.2-4.1 2.4-2.7.2-10 17.7-23.4 13.1s-20.6-17.4-17.8-29.2 13-42.1 45.2-20.5z"/><path class="st5" d="M316.9 90.5s8.4-6.9 18.3-1.4 20.4 21.6 24.7 20.4 4 10.3-1 11.7c-3.3.9-6.6 1.6-10 2.1 0 0-2.8-8.4-9.1-10s-13.2-3.8-14.2-6.9c0 0-1.8 15.2-10.1 15.6-2.1.1-3.2-3.8-4.4-3.4-3.4 1.4-3.4 8.4-2.8 12.1 0 0-8.9 2.8-8.2 6.3s-7.2-3.2-6.6-15.2 10.2-34 23.4-31.3z"/><ellipse transform="rotate(-63.307 338.246 131.588)" class="st13" cx="338.2" cy="131.6" rx="2.3" ry="1.8"/><path class="st16" d="M330.8 144.1s.5 6.3 4.2 6.1M329 143c.4-.6 1.1-1 1.8-1"/><path d="M334.1 124.7s5.7-.9 9.3 1.4" fill="none" stroke="#000" stroke-miterlimit="10"/><path class="st5" d="M303.6 528.4v13.1h7.1v-3.3l4.5 3.3h33l-29.4-13.1zM239.7 528.4v13.1h7.1v-3.3l4.5 3.3h33.1l-29.5-13.1z"/><path class="st16" d="M334.1 130c2-1 4.4-1 6.4 0"/><path class="st6" d="M301.4 153.5l-6.1 2.6-5 6.8 18.9 12.2 3.6-7.3 5.8 7.3v-10l-1.5-4.1-3.6 3.8zM265.9 169.6l12.6 7.8 8.5 15 21.3 46.6 73 27v11l-90.5-16.7-34.9-52.6-1.6-21.7z"/><g id="Layer_8"><path class="st5" d="M151.3 523.2V542h2.8l2-7.9 4.9 7.9h27.6c-10.6-2.2-19.7-9.1-24.6-18.8h-12.7zM193.1 523.2V542h2.8l2-7.9 4.9 7.9h27.6c-10.6-2.2-19.7-9.1-24.6-18.8h-12.7z"/><path class="st18" d="M233.9 318.4v111l-28.8 93.8h-11l14.8-89.8.5-120.2z"/><path class="st18" d="M186.4 310.5l-10.7 22.4 3.2 95.5-26.6 94.8h11l41.8-89 20.2-116.3z"/><path class="st13" d="M190.3 213.9s3.8 22.8-11.6 40.1c-9.1 10.2-22.5 15.6-36.1 14.5 4.1-2.9 6-8.1 4.7-12.9 7.8-67.7 21.2-98.9 21.2-98.9s9.1-9.8 25.9-8.8c0 0 15.4.5 22.4 13.8 0 0 10.4 15.7.6 36.7-2 4.2 4.6 38 4.3 42.7l-38.8-7.3"/><path class="st7" d="M186.8 214.9l-8.2 6.4-8.5 26.9c-.5 4.4.3 8.9 2.4 12.8l16.3 36.9-11.6 25.4 58.2.7-5.5-54.2 2.5-7.5c1.5-4.5.6-9.5-2.3-13.3l-13-17-12.9-12.2-17.4-4.9z"/><path class="st7" d="M170.7 230.7l7.9-9.5 13.8 4.8 25 40 44-3.4 1.6 10.7-54 11.8-38.9-37z"/><path class="st6" d="M261.4 262.6s12.1-7.3 14.2-4.6c1.1 1.3-1.6 2.8-1.6 2.8s11.1-3 12.5 2c1.8 6.5-23.4 10.5-23.4 10.5l-1.7-10.7z"/><path fill="none" stroke="#000" stroke-width=".5" stroke-linejoin="round" d="M207.9 223.3l23.8 28.1-22-5.5V239l-7-2.1-5.5-19"/><path class="st6" d="M231.7 251.4L217.1 232l-8-7.2zM188.1 213l3.4-15.6 11.9 5.2-2.3 18z"/><path class="st6" d="M188.8 208.7l-6.7 7.7 25.6 13.8L206 219zM167.5 171.3c1.1-6.1 4.4-11.5 9.2-15.3 1.7-1.4 3.6-2.5 5.6-3.2a25 25 0 0 1 7.7-.9c3.5-.2 7 .1 10.4 1.2 5.8 2.2 9.6 7.6 13.1 12.7 2.1 3.1 4.2 6.4 4.8 10.1 0 0 3.2 19.1-8.3 28.1s-36.9-10.8-37.1-22.7-5.4-10-5.4-10M205.8 170.2c1.2-2.4 6.2-3.4 9.1-.6"/><path class="st5" d="M219.6 181.6l.2-5.7-4.5-11.3-12.9-12-12.4-3.5-12.7 4.6-8.4 7.8-4.4 18.5 7.4 13.2 5.4 7.9 2.2-12.6c-4.1 1-7.4-2.2-4.9-8.9.8-2.2 5.1 4 5.1 4l6.9-22.9s16.6 13.7 26.9 5.2l6.1 15.7z"/><path class="st6" d="M195.1 172.1c-3.6-1.3-7.7.1-9.8 3.3M204.6 186.9c.8-.8 1.5-1.5 2.2-2.4.2-.2.3-.4.4-.7 0-.6-.2-1.3-.8-1.7l-2.3-2.5"/><ellipse class="st13" cx="195.4" cy="178.5" rx="1.5" ry="1.9"/><ellipse class="st13" cx="210.8" cy="176.2" rx="1.5" ry="1.9"/><path class="st6" d="M196.6 188.9s6.8 4.7 11.9 3.2c0 0-5.2 7.3-9 4.7s-2.9-7.9-2.9-7.9z"/><path class="st16" d="M208.5 175.1s1.1-2.1 4.5-.6M197.1 176.8s-2-1.7-4.6.7"/></g><path class="st3" d="M655.3 617l-12.9 77.5 180.2 30 12.9-77.5-180.2-30zm86 39.7c-4.9-.8-8.2-5.4-7.5-10.3s5.4-8.2 10.3-7.5c4.9.8 8.2 5.4 7.5 10.3v.1c-.9 4.8-5.4 8.1-10.3 7.4z"/><path class="st21" d="M683.4 661.3c.2-4.1-1.9-6.1-6-6.8-4-.7-6.6.6-7.1 3.6-.5 3.1 2.6 4.3 6.8 5.9 4.4 1.7 9.9 4.1 8.9 9.9-1 6.2-6.9 7.5-12.2 6.6-6.6-1.1-11-5-9.9-11.7l3.6.6c-.7 5.1 2.7 7.4 7.1 8.2 3.2.5 7.1 0 7.8-3.9.6-3.6-2.8-4.9-7.2-6.7-4.3-1.8-9.4-3.4-8.4-9.2.9-5.7 6.4-7.1 11.4-6.3 5.9 1 9.5 4.4 8.7 10.4l-3.5-.6zM705.4 685.1l-3.1-.5.5-3.2c-2.2 2.2-4.6 3-7.6 2.6-4.2-.7-6.3-3.5-5.6-8l2.3-13.9 3.3.6-2.2 13c-.5 2.9 0 5 3.4 5.5 4.4.7 6.4-2.1 7.1-6.3l1.8-10.5 3.3.6-3.2 20.1zM718.9 688c-6.2-1-8.9-5.9-7.8-12 1.1-6.7 5.6-10.3 11.5-9.3 4.9.8 7.6 3.9 7.4 8.6l-3.4-.6c-.1-2.9-1.6-4.8-4.3-5.2-3.8-.6-6.8 2-7.6 6.9s1 8.3 4.7 8.9c3 .5 5.3-1 6.4-4.2l3.4.6c-1.6 4.5-5.3 7.1-10.3 6.3zM739.8 691.5c-6.2-1-8.9-5.8-7.8-12 1.1-6.7 5.6-10.3 11.5-9.3 4.9.8 7.6 3.9 7.4 8.6l-3.4-.6c-.1-2.9-1.6-4.8-4.3-5.2-3.8-.6-6.8 2-7.6 6.9s1 8.3 4.7 8.9c3 .5 5.3-1 6.4-4.2l3.4.6c-1.5 4.5-5.3 7.1-10.3 6.3zM760.7 695c-5.9-1-8.8-5.5-7.7-12s5.6-10.3 11.2-9.4c6.6 1.1 8.3 6.8 7.3 12.6l-.1.5-15.2-2.5-.1.2c-.7 4.3 1.2 7.3 5.1 7.9 2.9.5 4.7-.5 6.1-3.4l3.2.5c-1.7 4.5-5.1 6.4-9.8 5.6zm2.9-18.7c-3.2-.5-5.9 1.4-7 5.1l11.7 2c.4-3.9-1.4-6.5-4.7-7.1zM787.3 684.1c.2-2.7-1.5-4-4.3-4.5-2.5-.4-4.3.4-4.6 2.1-.4 2.3 2.2 3.1 4.8 4.1 3.3 1.3 7.5 3.1 6.8 7.4-.6 3.9-4.4 5.9-9.4 5.1-5.5-.9-8.1-3.9-7.5-8.4l3.3.5c-.3 3.1 1.6 4.6 4.8 5.2 3 .5 5.1-.5 5.5-2.5.4-2.2-1.8-3.1-4.5-4.2-3.3-1.4-7.9-2.6-7.1-7.3.6-3.6 4-5.4 8.7-4.7 4.5.8 7.7 3.5 7 7.8l-3.5-.6zM806.9 687.3c.2-2.7-1.5-4-4.3-4.5-2.5-.4-4.3.4-4.6 2.1-.4 2.3 2.2 3.1 4.8 4.1 3.3 1.3 7.5 3.1 6.8 7.4-.7 3.9-4.4 5.9-9.4 5.1-5.5-.9-8.1-3.9-7.5-8.4l3.3.5c-.3 3.1 1.6 4.6 4.8 5.2 3 .5 5.1-.5 5.5-2.5.4-2.2-1.8-3.1-4.5-4.2-3.3-1.4-7.9-2.6-7.1-7.3.6-3.6 4-5.4 8.7-4.7 4.5.8 7.7 3.5 7 7.8l-3.5-.6z"/><path class="st11" d="M744 640.2c4.2.7 7.1 4.7 6.4 8.9-.7 4.2-4.7 7.1-8.9 6.4-4.2-.7-7.1-4.7-6.4-8.9.7-4.3 4.7-7.1 8.9-6.4m.4-2.4c-5.5-.9-10.8 2.8-11.7 8.3s2.8 10.8 8.3 11.7 10.8-2.8 11.7-8.3c1-5.5-2.8-10.8-8.3-11.7z"/><path d="M749.6 651.3c-4.5 1.3-7.7.6-9.3-.5-11.5-7.3 7.1-23.5 7.1-23.5s-8.7 12.4-6.9 16c2.5 4.9 7.5 3.5 9.8 2.4 0 .1.8 3.5-.7 5.6z" fill="#e0e0e0" stroke="#000" stroke-width=".5" stroke-linejoin="round"/><path class="st12" d="M732.6 569.6s41.8-12 79.8-3.3c27.3 6.2 68 9.3 87.3 3.3s74.7-5 98 4.5M136.3 652.4s33.5-14.5 55.9-7 41.9-2.2 41.9-2.2M559.3 738.2s33.5-14.5 55.9-7 41.9-2.2 41.9-2.2M803.5 612.4s33.5-14.5 55.9-7 41.9-2.2 41.9-2.2M279.7 733.2s16.3-25 59.6-17c26 4.8 52.4 23 71.1 17M440.1 628.2s21.8 15.1 47.1 9.4c25.4-5.7 46.1-13.5 57.5-10.3M865.2 692s24.7 11.4 51 0c33-14.3 46.5 4.3 46.5 4.3"/></svg>