<?xml version="1.0" encoding="utf-8"?>
<!-- Generator: Adobe Illustrator 21.0.2, SVG Export Plug-In . SVG Version: 6.00 Build 0)  -->
<svg version="1.1" id="Layer_1" xmlns="http://www.w3.org/2000/svg" xmlns:xlink="http://www.w3.org/1999/xlink" x="0px" y="0px"
	 viewBox="0 0 1040.7 818.9" style="enable-background:new 0 0 1040.7 818.9;" xml:space="preserve">
<style type="text/css">
	.st0{fill:#F5F5F5;}
	.st1{fill:#C6C6C6;stroke:#000000;stroke-width:0.5;stroke-miterlimit:10;}
	.st2{fill:#E8E8E8;stroke:#000000;stroke-width:0.5;stroke-miterlimit:10;}
	.st3{fill:#EB058C;stroke:#000000;stroke-width:0.5;stroke-miterlimit:10;}
	.st4{fill:#0077BF;stroke:#000000;stroke-width:0.5;stroke-miterlimit:10;}
	.st5{fill:#1A1A1A;}
	.st6{fill:#FFFFFF;stroke:#000000;stroke-width:0.5;stroke-miterlimit:10;}
	.st7{fill:#FFE600;stroke:#000000;stroke-width:0.5;stroke-miterlimit:10;}
	.st8{fill:#FFFFFF;stroke:#000000;stroke-miterlimit:10;}
	.st9{fill:#FFFFFF;stroke:#000000;stroke-width:0.75;stroke-miterlimit:10;}
	.st10{fill:#AAAAAA;stroke:#000000;stroke-width:0.5;stroke-miterlimit:10;}
	.st11{fill:#FFFFFF;stroke:#000000;stroke-width:0.5;stroke-linejoin:round;}
	.st12{fill:none;stroke:#000000;stroke-width:0.75;stroke-linejoin:round;}
	.st13{fill:#1A1A1A;stroke:#000000;stroke-width:0.5;stroke-miterlimit:10;}
	.st14{fill:#C10072;stroke:#000000;stroke-width:0.5;stroke-miterlimit:10;}
	.st15{fill:#848484;stroke:#000000;stroke-width:0.5;stroke-miterlimit:10;}
	.st16{fill:none;stroke:#000000;stroke-width:0.5;stroke-miterlimit:10;}
	.st17{fill:none;stroke:#000000;stroke-miterlimit:10;}
	.st18{fill:#BCBCBC;stroke:#000000;stroke-width:0.5;stroke-miterlimit:10;}
	.st19{fill:none;stroke:#000000;stroke-width:0.5;stroke-linejoin:round;}
	.st20{enable-background:new    ;}
	.st21{fill:#FFFFFF;}
	.st22{fill:#E0E0E0;stroke:#000000;stroke-width:0.5;stroke-linejoin:round;}
</style>
<title>RB2</title>
<g id="Layer_6">
	<path class="st0" d="M706.5,719.9c-93.4-53.8-193.5,31-249,61.9c-69,38.4-182.4,72.4-321.2-35.6c0,0-240.2-166.2-82.7-476.7
		c0,0,34.9-132.2,247.4-233.6c0,0,210.9-78.3,366-3.5c0,0,233.1,93.1,328.2,319.3c0,0,148,309.8-89.4,404
		C865,771.8,783.1,764,706.5,719.9z"/>
</g>
<rect x="87" y="554.3" class="st1" width="645.6" height="24"/>
<polygon class="st2" points="732.6,554.3 684,516.1 119,516.1 87,554.3 "/>
<path class="st3" d="M491.9,264.4c-3.8,1.1-29.9-4.8-41.4-14.2l-29.6-24.4c0,0-11.6-9.9-14.9-6.9s-4.8,20.5,6.2,27.3
	c8,5,25.4,19.3,36.2,23.4c8.2,3.1,39.7,8.9,43.5,7"/>
<polygon class="st4" points="551.2,283.3 569,532.1 555.3,529.2 500.2,289.8 "/>
<polygon class="st4" points="538.1,285 486.8,530.7 475.6,532.1 486.3,290.4 "/>
<polygon class="st5" points="474.6,528.5 474.6,541.9 481.9,541.9 481.9,538.6 486.5,541.9 520.3,541.9 520.3,541.9 490.2,528.5 "/>
<polygon class="st5" points="554.9,528.5 554.9,541.9 562.2,541.9 562.2,538.6 566.8,541.9 600.7,541.9 600.7,541.9 570.5,528.5 "/>
<polygon class="st6" points="505,178.2 521.4,194.7 538.2,222.6 571.9,197.7 574.6,208.8 533.2,252.9 495.7,199.5 "/>
<path class="st6" d="M473.5,181.9c-1.4-1.5-4-20-4-20l12.5-0.8l8.6,22.5C490.6,183.6,477.2,185.8,473.5,181.9z"/>
<polygon class="st7" points="551.2,283.3 529,213.2 505,178.2 488.4,178.5 467.1,186.7 446.7,199.8 486.1,253.4 485.9,299.8 "/>
<polygon class="st6" points="471.6,175.6 465.1,186.8 482,196.9 486,181.5 487.7,180.7 499.1,187.8 496.1,177.9 486.7,171.1 
	483.6,179 "/>
<g id="Layer_9">
	<path class="st6" d="M495.4,134.2c-4.9-6.7-4.1-7.1-7-9.9c-4.8-4.6-10.1-9.5-16.8-10.4c-3.8-0.3-7.6,0.1-11.3,1.1
		c-2.8,0.5-5.4,1.4-7.9,2.7c-2,1.2-3.8,2.8-5.2,4.7c-4.2,5.2-6.4,11.7-6.2,18.4c1,17.6,18,26.6,32.9,29.4c5.6,1,14.8,0.2,19.1-3.5
		C504.7,155.6,500.1,140.7,495.4,134.2z"/>
	<path class="st8" d="M469.7,137.4c-3.9,1-7.2,5.8-7.3,8.5"/>
	<path class="st8" d="M488.5,128.1c-3.1-1-8.2-0.1-9.9,2.7"/>
	<path class="st6" d="M485.7,151.3c0.6-1,1.2-2,1.8-3.1c0.1-0.2,0.2-0.5,0.3-0.8c0-0.7-0.6-1.2-1.2-1.6l-3-2.1"/>
	<path class="st5" d="M455.8,152.7c0,0-6.5-2.2-6.3,1.3c0,1.2,4.7,6.6,11.7,5.6c0,0,0.3,7.3,4.8,8.6c0,0-8.2,0.5-24.7-11.8
		c0,0-14.8-10.2-0.3-24.8c-2.3-14.3,8.2-26.3,27.9-27.8c10.3,4.7,18.3,13.4,22.2,24c0,0-5.6-9.1-15.5-9.8c0,0-6.1,17-19.9,12.5
		C455.8,130.6,448.9,135.6,455.8,152.7z"/>
	<path class="st9" d="M489.4,132.1c0,0-4.9,1.4-4.6,5.3c0,0,2.4-2.7,5-2.5"/>
	<path class="st9" d="M466.2,147.2c0,0,3.1-3.8,7.5-3.9c-1.5,0.7-2.7,1.9-3.3,3.5"/>
	<path class="st6" d="M475.5,162.5c0,0,4.3-6.2,8.1-6.1c3.2,0.1,5.6,5.3,5.6,5.3S480.6,161.5,475.5,162.5z"/>
	<path class="st6" d="M457.4,140.3c0,0-3,17.4,2.1,17.1C466.7,157,457.4,140.3,457.4,140.3z"/>
</g>
<path class="st10" d="M557,210c0,0,9.8-36.8,67.4-96.1C683.5,53,766.7,17.7,766.7,17.7s-25.5,11-74.6,43.9
	c-28,18.8-55.5,43.4-67.6,56.7c-58,63.6-63.7,93.8-63.7,93.8L557,210z"/>
<path class="st6" d="M585.8,201.5c0.5,4.7-11.3,7.3-11.3,7.3l-2.7-11c0,0,2-4.9,3.8-4.7s8,0.9,6.9,4.1s-5-0.8-5-0.8
	C578.9,207.1,585.7,203.6,585.8,201.5c0.1-2,0.6-8.7-0.9-10.4s-9.2,1.9-9.2,1.9"/>
<path class="st4" d="M582.4,194.7c-0.3-0.3-0.6-0.6-1-0.8c-0.3-0.2-0.6-0.3-0.9-0.4c-1.1-4.1-2.3-8.1-3.3-12.3
	c-0.1-0.4-0.6-0.7-1-0.6c-1.1,0.1-2.1,0.3-3.1,0.6c-0.8,0.2-0.8,1.6,0.2,1.5c0.9,0,1.7-0.2,2.6-0.3c1.2,3.7,2.1,7.5,2.8,11.4
	c-0.3,0.2-0.5,0.4-0.8,0.6c-1.5,1.6-0.9,4.1,0.2,6.3c0,1.2,0.2,2.4,0.6,3.6c1,3.5,1.9,3.5,5.4,2.5c0.6-0.2,1-0.8,0.8-1.4
	c-0.4-2-0.8-4-1.3-6C583.3,198.2,583.2,195.8,582.4,194.7z"/>
<path class="st4" d="M564.9,213.1c0.6-1.2,1.1-2.4,1.6-3.6c0.5-1.4-0.4-2.1-1.6-2.4c-0.6-0.4-1.4-0.4-1.8,0.2
	c-0.1,0.1-0.1,0.2-0.2,0.3c-1.2,2-2.3,4.1-3.4,6.1c-0.4,0.7-0.1,1.6,0.6,1.9c0.2,0.1,0.5,0.2,0.8,0.2c0.4,0.3,0.8,0.4,1.3,0.5
	c0.4,0.1,0.8,0,1.1-0.3C564,215.2,564.5,214.2,564.9,213.1z"/>
<path class="st6" d="M585,191.1c-1-1.1-3.8-1.5-6,0.1s-2.9,15.7,5.7,13C587.9,203.2,587.1,193.6,585,191.1z"/>
<circle class="st4" cx="572.6" cy="183.9" r="11.4"/>
<circle class="st4" cx="572.6" cy="183.9" r="6.5"/>
<path class="st4" d="M564,203.8c0.4,0.1,0.8,0.4,1,0.8c0.2,0.5,0.1,1.1-0.2,1.5c-6.8,16.2-30.8,63.2-39.3,78.5
	c-0.2,0.4-0.5,0.8-0.9,0.9c-0.3,0-0.7,0-1-0.2l-2.8-1.3c-0.4-0.1-0.8-0.4-1.1-0.8c-0.1-0.4-0.1-0.9,0-1.3
	c0.5-2.3,17.7-35.7,18.7-37.8c3.7-8.4,7.6-16.7,11.7-25c2-4.1,4.1-8.2,6.2-12.3c0.6-1.1,1.4-3.9,2.7-4.5
	C560.4,201.6,562.7,203.2,564,203.8z"/>
<path class="st11" d="M446.7,199.8l1.3,23.4l28.4,45.4c3.7,4.4,10.1,7.1,15.4,4.2l48.5-22.8l-4.4-10.1l-46.4,12.9l-16.6-38.9
	l-17-13.6L446.7,199.8z"/>
<path class="st6" d="M535.9,239.9c0,0,3.5-6.9,5.5-6.9s2.4,1.2,3.2,1.1s7.1-3.7,8.6-1.6s-3.8,13.1-3.8,13.1s-2.2,2.6-9.1,4.7
	L535.9,239.9z"/>
<path class="st12" d="M766.7,17.7c0,0,42.2,404.5-19.8,610.5"/>
<polygon class="st6" points="325.5,172.4 346.3,226 392.6,246.2 391.8,255.4 332.9,244.4 297.5,198.2 "/>
<g id="Layer_7">
	<path class="st13" d="M389.9,212.1c0,0,4,23.9-12.1,42.1c-9.6,10.7-23.6,16.4-37.9,15.3c4.3-3,6.3-8.5,5-13.6
		C332,173.5,367,152.1,367,152.1s9.5-10.3,27.2-9.2c0,0,16.2,0.5,23.5,14.5c0,0,11,16.5,0.6,38.5c-2.1,4.4-4,17.9-4.4,22.7L382,233"
		/>
	<polygon class="st11" points="437.6,308.9 440.1,385 430.5,523.2 419.9,523.2 409.8,380.3 393.6,304.3 	"/>
	<polygon class="st11" points="377.3,313.2 377,386.3 370.2,523.2 379.8,523.2 407.3,392.9 422,318.3 	"/>
	<path class="st3" d="M382.5,212.3L382.5,212.3c0,0-20.9,9-19.6,17.4c2.8,18.7,13.9,32.3,13.9,32.3l10.8,21.3
		c1.5,4.4-6.2,14.6-10.8,22.8L336,393.7c0,0,69.5,42,142.5,5.8c0.2-0.1-0.2-0.4-0.3-0.6c0,0-34.7-105.9-47.7-117.6
		c-3.6-8.6-1.3-19.6,1.3-24.6c0.7-1.3,1.1-2.7,1.3-4.1c0.3-2.6-0.6-5.3-2.4-7.2L408.1,217l-7.7-2.5"/>
	<path class="st3" d="M487,276.4l1.6,10.7c0,0-47.3,2.3-62.8-1c-27.6-5.8-57.5-32.5-62-45.1c-1.6-4.4,2.7-16.1,13.6-18.1
		c0,0,34.2,37.8,52.5,43.3S487,276.4,487,276.4z"/>
	<path class="st5" d="M418.9,523.2V542h2.8l2-7.9l4.9,7.9h27.6c-10.6-2.2-19.7-9.1-24.6-18.8H418.9z"/>
	<path class="st5" d="M368.2,523.2V542h2.8l2-7.9l4.9,7.9h27.6c-10.6-2.2-19.7-9.1-24.6-18.8H368.2z"/>
	<path class="st6" d="M403.5,215.6l0.1-0.7c-1.6-1.1-1.5-3.4-1.2-5.4c0.4-2.5,0.8-5,1.4-7.5c-4-3.3-8.7-5.5-13.8-6.4
		c-1.7-0.3-2.7,0-2.8,1.8s-0.1,3.2-0.4,4.7c-0.5,3.1-1.4,6-2.7,8.9c-0.1,0.2-0.2,0.5-0.2,0.8c0.1,0.3,0.2,0.5,0.4,0.7
		c2.2,2.6,4.7,4.9,7.4,7c0.9,0.6,1.8,1.1,2.8,1.5c3.5,1.4,7.4-0.3,8.7-3.8C403.3,216.7,403.4,216.2,403.5,215.6z"/>
	<path class="st6" d="M393.9,201.9c5.1,2.1,11.1,3.6,15.9,0.9c3.5-1.9,5.7-5.8,7-9.6c1.2-4.2,2-8.4,2.4-12.8
		c0.5-2.7,0.5-5.5,0.2-8.2c-0.7-3.9-2.9-7.3-5.1-10.5c-3.6-5.4-7.6-11.1-13.7-13.3c-3.5-1.1-7.2-1.5-10.9-1.2
		c-2.7-0.1-5.4,0.2-8.1,0.9c-2.2,0.7-4.2,1.9-5.9,3.4c-5.1,4-8.5,9.7-9.7,16.1C363.2,184.4,380.3,196.2,393.9,201.9z"/>
	<path class="st6" d="M404.4,165.1c1.2-2.5,3.7-4.2,6.5-4.5"/>
	<path class="st5" d="M377.1,195.3c0,0,12.5-24.2,3.2-37.1c0,0,7.4,3.2,13.3,1.6c0,0,17.1-3.8,23,8c0,0,1.9,7.3,4,10.5l0.2-6
		l-4.7-11.9l-13.5-12.6l-13-3.6l-13.3,4.9l-8.8,8.1l-4.6,19.4l7.7,13.8L377.1,195.3z"/>
	<path class="st6" d="M386,177.9c0.7,0,1.4-0.3,1.8-0.9c0.4-0.6,0.7-1.2,1-1.8c0.2-0.4,0.5-0.9,0.8-1.2c0.3-0.4,0.7-0.7,1.1-1
		c1.2-0.6,2.5-0.6,3.7-0.1s2.3,1.2,3.2,2.1"/>
	<path class="st6" d="M394.9,168.3c-3.8-1.4-8.1,0.1-10.3,3.5"/>
	<path class="st6" d="M404.9,183.8c0.8-0.8,1.6-1.6,2.3-2.5c0.2-0.2,0.3-0.4,0.4-0.7c0.2-0.6-0.3-1.3-0.8-1.8l-2.4-2.6"/>
	<path class="st6" d="M405.4,194.6c0.8-0.1,1.6,0,2.4,0.1c0.3,0.1,0.5,0.2,0.8,0.2c1,0.1,1.9-1,2-2.1c0-1.1-0.1-2.1-0.2-3.2
		c0-0.9,0.2-1.8,0.1-2.7c0-0.3-0.1-0.5-0.2-0.7c-0.3-0.4-0.9-0.2-1.4-0.1c-3.1,1.3-6,3.3-8.3,5.8c-0.1,0.1-0.2,0.2-0.2,0.3
		c-0.2,0.6,1.3,1.6,1.8,1.8C403.2,194.4,404.3,194.6,405.4,194.6z"/>
	<path class="st14" d="M410.9,194.9c-0.7,0.8-1.8,1.3-2.9,1.3s-2.1-0.2-3.2-0.5c-0.8-0.2-1.5-0.5-2.4-0.8c-0.6-0.2-1.2-0.5-1.7-0.8
		c-0.5-0.4-0.9-0.9-1-1.5c1.2,0.6,2.5,1,3.9,1.2c1.8,0.3,3.6,0.2,5.3-0.6c0.6-0.3,1.3-1,2-0.6S411.4,194.3,410.9,194.9z"/>
	<path class="st14" d="M410.4,184.9c-2.3,0-4.4,0.8-6.2,2.2c-1.7,1.5-3.2,3.2-4.4,5c-0.1,0.1-0.2,0.2-0.1,0.4s0.2,0.1,0.4,0.1
		c2.1-0.5,3.7-2,5.4-3.2c1.4-0.9,3-1.6,4.7-2C411.5,186.9,412.6,185,410.4,184.9z"/>
	<path class="st3" d="M373.9,218.2c0,0-11.2-0.1-12.2,3.4s1.9,3.8,1.9,3.8s-5.6,2.1-2.2,6.3c3,3.7,5.2,0.1,5.2,0.1
		c-0.7,2,0.2,4.1,2,5.1c1.8,1.1,4.1,0.8,5.6-0.7c0,0,0.6,4.5,3.6,4.6s4.9-2.9,4.9-2.9s-0.5,2.9,3,4s4.6-2.9,4.6-2.9
		c0.5,2.1,2.4,3.5,4.5,3.5c3.9,0.2,3.7-3.7,3.7-3.7s2.2,3.9,5.4,2.6c1.8-0.6,2.9-2.5,2.4-4.3c0,0,2.1,3.3,5.4,1.3s0.8-4.6,0.8-4.6
		s3,2.8,4.5,0.1s0.4-4,0.4-4s1.4,1.4,3-0.6s0.5-3.4,0.5-3.4s1.1,0.4,1.7-2.6s-4.1-2.7-4.1-2.7s2.1-2.8-0.1-3.3s-9.2-0.8-10.5,0.9
		c0,0,0.5,9.3-8.9,10.8S373.9,218.2,373.9,218.2z"/>
	<path class="st11" d="M487,276.4c0,0,13.2-6.5,13.2-4.2c0.2,1.2-0.3,2.3-1.2,3c0,0,10.7-1.6,12.7,1.9c3.8,6.6-23,10.1-23,10.1
		L487,276.4z"/>
	<path class="st6" d="M407.6,172.4c0,0,0.4-4.8,3.3-4.2c0.5,0.1,2.3,1,2.7,1.1c2,0.7,2.3,0.2,2.7-0.1"/>
</g>
<polygon class="st7" points="179.9,229.6 186,218.8 197.7,221.3 229.4,256.4 272.1,245.3 275.6,255.5 224.5,276.6 179.7,247 "/>
<path class="st6" d="M292,165.1l14.6-18.3c0,0,7.9,10.2,11.9,10.1l-7.1,19.9C311.5,176.8,291.5,172.3,292,165.1z"/>
<polygon class="st15" points="326.4,293.4 329.8,409 322.3,528.4 304,528.4 298.6,418.4 272,277 "/>
<path class="st15" d="M312.7,285c0,0-10.7,40.4-16.7,61.6s-14,81.8-14,81.8l-24,100h-19.5l13.2-103l-2.7-101l8.3-49.8L312.7,285z"/>
<polygon class="st6" points="257.3,274.7 251.7,295.6 329.8,307.6 326.4,293.4 318.6,260.3 "/>
<path class="st4" d="M296.4,158.5l-30.5,11.1c0,0-7.3,13.7-10,28.6c-1.7,9.7-0.5,16.7,0,29.2l1.4,47.3l24.9,18.5l34.5-12.5l9.8,12.7
	l0.1-78.8l-1-42.2l-9.6-8.1l-3.1,1.7L296.4,158.5z"/>
<path class="st6" d="M381.3,277c0,0,16.2,10.6,19.9,7.5c6.1-5.1-11.3-11.2-8.2-13c4-2.4-3.2-4.8-11.6-5.4L381.3,277L381.3,277z"/>
<path class="st6" d="M346,109.3c3.5,2.3,4.3,11.5,2.3,16.7s-6.1,13.7-4.4,15.2c0.6,0.6,2,1.7,2.2,2.3c0.3,1-2.4,2.2-4.1,2.4
	c-2.7,0.2-10,17.7-23.4,13.1s-20.6-17.4-17.8-29.2S313.8,87.7,346,109.3z"/>
<path class="st5" d="M316.9,90.5c0,0,8.4-6.9,18.3-1.4s20.4,21.6,24.7,20.4s4,10.3-1,11.7c-3.3,0.9-6.6,1.6-10,2.1
	c0,0-2.8-8.4-9.1-10s-13.2-3.8-14.2-6.9c0,0-1.8,15.2-10.1,15.6c-2.1,0.1-3.2-3.8-4.4-3.4c-3.4,1.4-3.4,8.4-2.8,12.1
	c0,0-8.9,2.8-8.2,6.3s-7.2-3.2-6.6-15.2S303.7,87.8,316.9,90.5z"/>
<ellipse transform="matrix(0.4492 -0.8934 0.8934 0.4492 68.7363 374.6639)" class="st13" cx="338.2" cy="131.6" rx="2.3" ry="1.8"/>
<path class="st16" d="M330.8,144.1c0,0,0.5,6.3,4.2,6.1"/>
<path class="st16" d="M329,143c0.4-0.6,1.1-1,1.8-1"/>
<path class="st17" d="M334.1,124.7c0,0,5.7-0.9,9.3,1.4"/>
<polygon class="st5" points="303.6,528.4 303.6,541.5 310.7,541.5 310.7,538.2 315.2,541.5 348.2,541.5 348.2,541.5 318.8,528.4 "/>
<polygon class="st5" points="239.7,528.4 239.7,541.5 246.8,541.5 246.8,538.2 251.3,541.5 284.4,541.5 284.4,541.5 254.9,528.4 "/>
<path class="st16" d="M334.1,130c2-1,4.4-1,6.4,0"/>
<polygon class="st6" points="301.4,153.5 295.3,156.1 290.3,162.9 309.2,175.1 312.8,167.8 318.6,175.1 318.6,165.1 317.1,161 
	313.5,164.8 "/>
<polygon class="st6" points="265.9,169.6 278.5,177.4 287,192.4 308.3,239 381.3,266 381.3,277 290.8,260.3 255.9,207.7 254.3,186 
	"/>
<g id="Layer_8">
	<path class="st5" d="M151.3,523.2V542h2.8l2-7.9l4.9,7.9h27.6c-10.6-2.2-19.7-9.1-24.6-18.8H151.3z"/>
	<path class="st5" d="M193.1,523.2V542h2.8l2-7.9l4.9,7.9h27.6c-10.6-2.2-19.7-9.1-24.6-18.8H193.1z"/>
	<polygon class="st18" points="233.9,318.4 233.9,429.4 205.1,523.2 194.1,523.2 208.9,433.4 209.4,313.2 	"/>
	<polygon class="st18" points="186.4,310.5 175.7,332.9 178.9,428.4 152.3,523.2 163.3,523.2 205.1,434.2 225.3,317.9 	"/>
	<path class="st13" d="M190.3,213.9c0,0,3.8,22.8-11.6,40.1c-9.1,10.2-22.5,15.6-36.1,14.5c4.1-2.9,6-8.1,4.7-12.9
		c7.8-67.7,21.2-98.9,21.2-98.9s9.1-9.8,25.9-8.8c0,0,15.4,0.5,22.4,13.8c0,0,10.4,15.7,0.6,36.7c-2,4.2,4.6,38,4.3,42.7l-38.8-7.3"
		/>
	<path class="st7" d="M186.8,214.9l-8.2,6.4l-8.5,26.9c-0.5,4.4,0.3,8.9,2.4,12.8l16.3,36.9l-11.6,25.4l58.2,0.7l-5.5-54.2l2.5-7.5
		c1.5-4.5,0.6-9.5-2.3-13.3l-13-17l-12.9-12.2L186.8,214.9z"/>
	<polygon class="st7" points="170.7,230.7 178.6,221.2 192.4,226 217.4,266 261.4,262.6 263,273.3 209,285.1 170.1,248.1 	"/>
	<path class="st6" d="M261.4,262.6c0,0,12.1-7.3,14.2-4.6c1.1,1.3-1.6,2.8-1.6,2.8s11.1-3,12.5,2c1.8,6.5-23.4,10.5-23.4,10.5
		L261.4,262.6z"/>
	<polyline class="st19" points="207.9,223.3 231.7,251.4 209.7,245.9 209.7,239 202.7,236.9 197.2,217.9 	"/>
	<polygon class="st6" points="231.7,251.4 217.1,232 209.1,224.8 	"/>
	<polygon class="st6" points="188.1,213 191.5,197.4 203.4,202.6 201.1,220.6 	"/>
	<polygon class="st6" points="188.8,208.7 182.1,216.4 207.7,230.2 206,219 	"/>
	<path class="st6" d="M167.5,171.3c1.1-6.1,4.4-11.5,9.2-15.3c1.7-1.4,3.6-2.5,5.6-3.2c2.5-0.7,5.1-1,7.7-0.9
		c3.5-0.2,7,0.1,10.4,1.2c5.8,2.2,9.6,7.6,13.1,12.7c2.1,3.1,4.2,6.4,4.8,10.1c0,0,3.2,19.1-8.3,28.1s-36.9-10.8-37.1-22.7
		S167.5,171.3,167.5,171.3"/>
	<path class="st6" d="M205.8,170.2c1.2-2.4,6.2-3.4,9.1-0.6"/>
	<path class="st5" d="M219.6,181.6l0.2-5.7l-4.5-11.3l-12.9-12l-12.4-3.5l-12.7,4.6l-8.4,7.8l-4.4,18.5l7.4,13.2l5.4,7.9l2.2-12.6
		c-4.1,1-7.4-2.2-4.9-8.9c0.8-2.2,5.1,4,5.1,4l6.9-22.9c0,0,16.6,13.7,26.9,5.2L219.6,181.6z"/>
	<path class="st6" d="M195.1,172.1c-3.6-1.3-7.7,0.1-9.8,3.3"/>
	<path class="st6" d="M204.6,186.9c0.8-0.8,1.5-1.5,2.2-2.4c0.2-0.2,0.3-0.4,0.4-0.7c0-0.6-0.2-1.3-0.8-1.7l-2.3-2.5"/>
	<ellipse class="st13" cx="195.4" cy="178.5" rx="1.5" ry="1.9"/>
	<ellipse class="st13" cx="210.8" cy="176.2" rx="1.5" ry="1.9"/>
	<path class="st6" d="M196.6,188.9c0,0,6.8,4.7,11.9,3.2c0,0-5.2,7.3-9,4.7S196.6,188.9,196.6,188.9z"/>
	<path class="st16" d="M208.5,175.1c0,0,1.1-2.1,4.5-0.6"/>
	<path class="st16" d="M197.1,176.8c0,0-2-1.7-4.6,0.7"/>
</g>
<path class="st3" d="M655.3,617l-12.9,77.5l180.2,30l12.9-77.5L655.3,617z M741.3,656.7c-4.9-0.8-8.2-5.4-7.5-10.3s5.4-8.2,10.3-7.5
	c4.9,0.8,8.2,5.4,7.5,10.3v0.1C750.7,654.1,746.2,657.4,741.3,656.7L741.3,656.7z"/>
<g class="st20">
	<path class="st21" d="M683.4,661.3c0.2-4.1-1.9-6.1-6-6.8c-4-0.7-6.6,0.6-7.1,3.6c-0.5,3.1,2.6,4.3,6.8,5.9
		c4.4,1.7,9.9,4.1,8.9,9.9c-1,6.2-6.9,7.5-12.2,6.6c-6.6-1.1-11-5-9.9-11.7l3.6,0.6c-0.7,5.1,2.7,7.4,7.1,8.2c3.2,0.5,7.1,0,7.8-3.9
		c0.6-3.6-2.8-4.9-7.2-6.7c-4.3-1.8-9.4-3.4-8.4-9.2c0.9-5.7,6.4-7.1,11.4-6.3c5.9,1,9.5,4.4,8.7,10.4L683.4,661.3z"/>
	<path class="st21" d="M705.4,685.1l-3.1-0.5l0.5-3.2c-2.2,2.2-4.6,3-7.6,2.6c-4.2-0.7-6.3-3.5-5.6-8l2.3-13.9l3.3,0.6l-2.2,13
		c-0.5,2.9,0,5,3.4,5.5c4.4,0.7,6.4-2.1,7.1-6.3l1.8-10.5l3.3,0.6L705.4,685.1z"/>
	<path class="st21" d="M718.9,688c-6.2-1-8.9-5.9-7.8-12c1.1-6.7,5.6-10.3,11.5-9.3c4.9,0.8,7.6,3.9,7.4,8.6l-3.4-0.6
		c-0.1-2.9-1.6-4.8-4.3-5.2c-3.8-0.6-6.8,2-7.6,6.9s1,8.3,4.7,8.9c3,0.5,5.3-1,6.4-4.2l3.4,0.6C727.6,686.2,723.9,688.8,718.9,688z"
		/>
	<path class="st21" d="M739.8,691.5c-6.2-1-8.9-5.8-7.8-12c1.1-6.7,5.6-10.3,11.5-9.3c4.9,0.8,7.6,3.9,7.4,8.6l-3.4-0.6
		c-0.1-2.9-1.6-4.8-4.3-5.2c-3.8-0.6-6.8,2-7.6,6.9s1,8.3,4.7,8.9c3,0.5,5.3-1,6.4-4.2l3.4,0.6C748.6,689.7,744.8,692.3,739.8,691.5
		z"/>
	<path class="st21" d="M760.7,695c-5.9-1-8.8-5.5-7.7-12s5.6-10.3,11.2-9.4c6.6,1.1,8.3,6.8,7.3,12.6l-0.1,0.5l-15.2-2.5l-0.1,0.2
		c-0.7,4.3,1.2,7.3,5.1,7.9c2.9,0.5,4.7-0.5,6.1-3.4l3.2,0.5C768.8,693.9,765.4,695.8,760.7,695z M763.6,676.3
		c-3.2-0.5-5.9,1.4-7,5.1l11.7,2C768.7,679.5,766.9,676.9,763.6,676.3z"/>
	<path class="st21" d="M787.3,684.1c0.2-2.7-1.5-4-4.3-4.5c-2.5-0.4-4.3,0.4-4.6,2.1c-0.4,2.3,2.2,3.1,4.8,4.1
		c3.3,1.3,7.5,3.1,6.8,7.4c-0.6,3.9-4.4,5.9-9.4,5.1c-5.5-0.9-8.1-3.9-7.5-8.4l3.3,0.5c-0.3,3.1,1.6,4.6,4.8,5.2
		c3,0.5,5.1-0.5,5.5-2.5c0.4-2.2-1.8-3.1-4.5-4.2c-3.3-1.4-7.9-2.6-7.1-7.3c0.6-3.6,4-5.4,8.7-4.7c4.5,0.8,7.7,3.5,7,7.8
		L787.3,684.1z"/>
	<path class="st21" d="M806.9,687.3c0.2-2.7-1.5-4-4.3-4.5c-2.5-0.4-4.3,0.4-4.6,2.1c-0.4,2.3,2.2,3.1,4.8,4.1
		c3.3,1.3,7.5,3.1,6.8,7.4c-0.7,3.9-4.4,5.9-9.4,5.1c-5.5-0.9-8.1-3.9-7.5-8.4l3.3,0.5c-0.3,3.1,1.6,4.6,4.8,5.2
		c3,0.5,5.1-0.5,5.5-2.5c0.4-2.2-1.8-3.1-4.5-4.2c-3.3-1.4-7.9-2.6-7.1-7.3c0.6-3.6,4-5.4,8.7-4.7c4.5,0.8,7.7,3.5,7,7.8
		L806.9,687.3z"/>
</g>
<path class="st11" d="M744,640.2c4.2,0.7,7.1,4.7,6.4,8.9c-0.7,4.2-4.7,7.1-8.9,6.4c-4.2-0.7-7.1-4.7-6.4-8.9
	C735.8,642.3,739.8,639.5,744,640.2L744,640.2 M744.4,637.8c-5.5-0.9-10.8,2.8-11.7,8.3s2.8,10.8,8.3,11.7s10.8-2.8,11.7-8.3l0,0
	C753.7,644,749.9,638.7,744.4,637.8z"/>
<path class="st22" d="M749.6,651.3c-4.5,1.3-7.7,0.6-9.3-0.5c-11.5-7.3,7.1-23.5,7.1-23.5s-8.7,12.4-6.9,16c2.5,4.9,7.5,3.5,9.8,2.4
	C750.3,645.8,751.1,649.2,749.6,651.3z"/>
<path class="st12" d="M732.6,569.6c0,0,41.8-12,79.8-3.3c27.3,6.2,68,9.3,87.3,3.3s74.7-5,98,4.5"/>
<path class="st12" d="M136.3,652.4c0,0,33.5-14.5,55.9-7s41.9-2.2,41.9-2.2"/>
<path class="st12" d="M559.3,738.2c0,0,33.5-14.5,55.9-7s41.9-2.2,41.9-2.2"/>
<path class="st12" d="M803.5,612.4c0,0,33.5-14.5,55.9-7s41.9-2.2,41.9-2.2"/>
<path class="st12" d="M279.7,733.2c0,0,16.3-25,59.6-17c26,4.8,52.4,23,71.1,17"/>
<path class="st12" d="M440.1,628.2c0,0,21.8,15.1,47.1,9.4c25.4-5.7,46.1-13.5,57.5-10.3"/>
<path class="st12" d="M865.2,692c0,0,24.7,11.4,51,0c33-14.3,46.5,4.3,46.5,4.3"/>
</svg>
