<?xml version="1.0" encoding="utf-8"?>
<!-- Generator: Adobe Illustrator 22.0.1, SVG Export Plug-In . SVG Version: 6.00 Build 0)  -->
<svg version="1.1" id="Layer_1" xmlns="http://www.w3.org/2000/svg" xmlns:xlink="http://www.w3.org/1999/xlink" x="0px" y="0px"
	 viewBox="0 0 890.5 683.9" style="enable-background:new 0 0 890.5 683.9;" xml:space="preserve">
<style type="text/css">
	.st0{fill:#FFFFFF;}
	.st1{fill:#727272;stroke:#000000;stroke-width:0.5;stroke-miterlimit:10;}
	.st2{fill:#808080;stroke:#000000;stroke-width:0.5;stroke-miterlimit:10;}
	.st3{fill:#1A1A1A;}
	.st4{fill:#A0A0A0;stroke:#000000;stroke-width:0.5;stroke-miterlimit:10;}
	.st5{fill:#FFFFFF;stroke:#000000;stroke-width:0.5;stroke-miterlimit:10;}
	.st6{fill:#3D3D3D;stroke:#000000;stroke-width:0.5;stroke-miterlimit:10;}
	.st7{fill:#0077BF;stroke:#000000;stroke-width:0.5;stroke-miterlimit:10;}
	.st8{fill:#1A1A1A;stroke:#000000;stroke-width:0.5;stroke-miterlimit:10;}
	.st9{fill:none;stroke:#000000;stroke-width:0.5;stroke-miterlimit:10;}
	.st10{fill:#BCBCBC;stroke:#000000;stroke-width:0.5;stroke-miterlimit:10;}
	.st11{fill:#D1D1D1;stroke:#000000;stroke-width:0.5;stroke-miterlimit:10;}
	.st12{fill:#E5E5E5;stroke:#000000;stroke-width:0.5;stroke-miterlimit:10;}
	.st13{fill:#BABABA;stroke:#000000;stroke-width:0.5;stroke-linejoin:round;}
	.st14{fill:#595959;stroke:#000000;stroke-width:0.5;stroke-miterlimit:10;}
	.st15{fill:#6D6D6D;stroke:#000000;stroke-width:0.5;stroke-miterlimit:10;}
	.st16{fill:#DDDDDD;stroke:#000000;stroke-width:0.5;stroke-linejoin:round;}
	.st17{fill:#FFE600;stroke:#000000;stroke-width:0.5;stroke-miterlimit:10;}
	.st18{fill:#FFFFFF;stroke:#000000;stroke-miterlimit:10;}
	.st19{fill:none;stroke:#000000;stroke-miterlimit:10;}
	.st20{fill:#565656;stroke:#000000;stroke-width:0.5;stroke-miterlimit:10;}
	.st21{fill:#EB058C;stroke:#000000;stroke-width:0.5;stroke-miterlimit:10;}
</style>
<title>RB5</title>
<g id="Layer_6">
	<path class="st0" d="M585.5,608.5c-77-46.7-162.2,22.1-209.2,46.9c-58.4,30.8-153.8,57-267.7-35.9c0,0-197.5-143.4-60-399.9
		c0,0,53.2-119.9,232.6-200.5c0,0,156.2-51.3,284.4,14.2c0,0,223.3,110.3,298.9,315.1c0,0,106.6,222.7-113.3,293.7
		C716.5,653.4,648.7,646.8,585.5,608.5z"/>
</g>
<g id="Layer_12">
	<polygon class="st1" points="567.6,456.7 633.5,456.7 633.5,466.3 566.6,465.5 	"/>
	<polygon class="st1" points="557.4,420.9 565.6,545.8 574.5,545.8 567.5,420.9 	"/>
	<polygon class="st1" points="630.5,420.9 631.1,545.8 640.3,545.8 642.3,420 	"/>
	<polygon class="st2" points="556,411 555.8,423.6 644.6,422.9 644.6,410.8 	"/>
	<polygon class="st3" points="541.5,532.7 541.5,547.4 549.5,547.4 549.5,543.8 554.5,547.4 591.7,547.4 591.7,547.4 558.7,532.7 	
		"/>
	<polygon class="st3" points="655.5,532.7 655.5,547.4 647.5,547.4 647.5,543.8 642.5,547.4 605.4,547.4 605.4,547.4 638.4,532.7 	
		"/>
	<path class="st4" d="M541.5,532.7c0,0,7.9-135.3,32.3-141.5c23.3-5.9,20.7,17.4,15.7,37.1c-4.9,18.9-30.9,104.4-30.9,104.4H541.5z"
		/>
	<path class="st4" d="M657.6,532.7c0,0-9.6-136.4-34.1-141.6c-23.5-5-23.5,16.4-19.2,35.5c4.2,18.8,34.2,106.2,34.2,106.2
		L657.6,532.7L657.6,532.7z"/>
	<path class="st5" d="M648.4,343.6c1.3-6.6-0.3-17.7,3.3-34.7c2.5-3.7,5.2-7.3,8.1-10.7l-11.2-41.8c-1.8-4.9-3.9-8.3-9.1-9.5
		c-10.5-2.5-21.2-4.3-32-5.5c-14.1,11-19.2,4.6-19.2,4.6c-2.7-0.9-20.4,5.7-20.4,5.7c-14,4.4-17,48.6-17,48.6l13.5,7.7l7.1,36.4
		L648.4,343.6z"/>
	<path class="st5" d="M586.5,255.4l0.5-9.4c1.4-1.4,0.3-3.1-0.3-5.1c-0.8-2.6,0.6-8.2-0.4-10.7c3.7-4.1,7.1-5,12.3-6.7
		c1.8-0.6,3.8-1.4,4.2,0.5s0.6,3.3,1.1,5c1,3.2,2.4,6.2,4.2,9c0.2,0.2-0.6,1.4-0.6,1.7s1.7,2.2,1.5,2.4c-2,3.1,0.4,9.4-2.1,12"/>
	<polygon class="st6" points="591,256.3 596.2,264.2 600.3,264 604.9,254.2 600.9,248.5 590,250.2 	"/>
	<polygon class="st7" points="584.5,243.9 561.6,252.4 563.1,329.9 577.9,329.1 589.1,256.4 	"/>
	<path class="st7" d="M638.6,329.9l-14.8-0.8L607,254.2l5.6-15l22.9,4.7c0,0,8.3-0.1,12.8,6.4c4.5,6.5,5,15.3,5,15.3l6.4,32.6
		l-9.5,18.6l-0.9,13.1L638.6,329.9z"/>
	<polygon class="st6" points="600.3,264 608.3,325.9 602.3,340.7 590.5,323.5 596.2,264.2 	"/>
	<polygon class="st5" points="584.9,239.3 583.7,251.6 590.3,265.6 596.2,249.8 	"/>
	<polygon class="st5" points="607.6,233.3 596.2,249.8 606.8,264.3 615.3,241 	"/>
	<g id="Layer_7">
		<path class="st5" d="M583,233.7c1.6,1.9,3.6,3.4,5.7,4.6c1.7,0.6,3.5,0.8,5.2,0.5h0.7c1.5,0.1,3.1-0.1,4.5-0.7
			c2.1-1.2,4-2.8,5.6-4.7c1.3-1.1,2.6-2.2,4.1-3.1c0.8-0.5,1.4-1.2,2-1.9c0.7-1,1.3-2.1,1.6-3.3c0.5-1.8,0.2-4.6,1.7-6
			s2.6-1.8,3.5-3.6c1.5-3.2,2.1-6.7,1.8-10.2c-0.1-0.9-0.6-2.5-2-1.6c-0.6,0.4-0.3,1.4-0.8,1.8l0,0l-0.5,1.5h-1.9
			c0-1.4,0.1-2.8,0.2-4.3c0.2-3,0-6-0.6-9c-1-3.8-6.6-5.5-9.8-7.2c-0.6-0.5-1.2-0.9-1.9-1.2c-0.9-0.2-0.4-0.1-1.3,0.4
			c-3.3,2-5.2,3.9-9.4,3.9c-3.4,0-6.8-0.6-10.2-0.3c-4.6,0.4-8.7,3.6-9.2,8.2c-0.2,1.7,0.1,3.5,0,5.2c-0.1,1.2-0.1,2.4,0,3.6
			c0,0.4,0,0.8,0,1.2h-2.4c0-0.4,0-0.8,0-1c0-0.6,0-1.1,0-1.6c-0.1-0.3-0.2-0.5-0.4-0.6c-1.3-0.9-1.9,0.7-1.9,1.6
			c-0.2,3.5,0.5,7,2.1,10.1c1,1.8,2.3,2.2,3.6,3.5c1.5,1.4,1.3,4.2,1.8,6c0.4,1.2,1,2.3,1.7,3.2c0.5,0.6,1.1,1.1,1.7,1.6
			C580,231.4,581.6,232.5,583,233.7z"/>
		<path class="st8" d="M569.9,206.7c0,0.2,0,0.6,0,1h2.4c0-0.4,0-0.8,0-1.2c-0.1-1.2-0.1-2.4,0-3.6c0.1-1.7-0.2-3.5,0-5.2
			c0.4-4.5,4.5-7.8,9.2-8.2c3.4-0.3,6.8,0.3,10.2,0.3c4.2,0,6.1-2,9.3-3.9c0.9-0.5,0.4-0.6,1.3-0.4c0.7,0.3,1.3,0.7,1.9,1.2
			c3.2,1.8,8.8,3.5,9.8,7.2c0.6,3,0.8,6,0.6,9c-0.2,1.4-0.3,2.8-0.2,4.2h1.9l0.5-1.5c0.5-1.6,1-3.1,1.1-3.8c0.4-2.4,0.7-4.8,0.7-7.2
			c0.6-5.8,0.9-11.4-3-16.2c-4.1-5.2-10.3-8.1-13.5-7.7c-0.2,0-2.4,0.2-2.1,0.5c-1.2-0.9-3.2-1-4.7-1.3c-7.7-1.6-17.2,2.9-22.7,7.7
			c-5.8,5-4.8,11.4-4.1,17.6c0.1,2.2,0.4,4.4,0.9,6.6c0.4,1,0.6,2.1,0.6,3.2C569.9,205.6,569.9,206.1,569.9,206.7z"/>
		<path class="st9" d="M598.4,202.2c1.9-1.6,5.4,3.3,7.9,3.7"/>
		<path class="st9" d="M578.8,205.9c2.4-0.5,5.5-4.5,7.5-3.1"/>
		<circle class="st8" cx="600.5" cy="207.7" r="1.8"/>
		<circle class="st8" cx="583.5" cy="208.6" r="1.8"/>
		<path class="st9" d="M601.5,227.7c-7.1-7.7-10.8,0.4-10.8,0.4L601.5,227.7z"/>
		<path class="st9" d="M591.1,206.1c0.4,2.1,0.6,4.2,0.4,6.3c-0.1,1.6-0.4,3.1-0.6,4.7c-0.1,0.8-0.1,1.6,0.1,2.4
			c0.3,0.8,1,1.2,1.4,0.8"/>
	</g>
	<path class="st7" d="M536.3,315.2l22.3-86.3l13.7-1.2l-5.7,89.4C566.6,317,549.9,351.8,536.3,315.2z"/>
	<path class="st5" d="M561.7,228.6c0,0-5.9-11.6-2.4-15.2s7.8-7.5,7.3-9.8s4.8,0.8,5,2.8s-1.7,7-3,10.9s1.7,1.8,1.9,5.9
		s-0.5,4.6-0.5,4.6L561.7,228.6z"/>
	<path class="st7" d="M659.8,298.2l-37.9-80.7l-13.6,1.3l22.1,86.7C630.4,305.6,653.2,336.7,659.8,298.2z"/>
	<path class="st5" d="M618.9,217.8c0,0,3.7-12.5-0.4-15.4s-9.1-6-9-8.3s-4.6,1.7-4.4,3.7s2.9,6.6,5,10.1s-1.3,2.1-0.7,6.2
		s1.4,4.5,1.4,4.5L618.9,217.8z"/>
	<polygon class="st7" points="649.4,329.9 664.7,500.9 615.3,496.9 606.6,329.9 	"/>
	<polygon class="st7" points="547.8,329.9 532.5,500.9 581.7,503 590.6,329.9 	"/>
	<polygon class="st7" points="567.1,187.9 544.3,174.6 590.7,148.4 637.5,172.1 617.5,186.8 	"/>
	<path class="st7" d="M568.3,195.2c0,0,32.3-6.9,50.2-1.8l1-14.9c0,0-10-10.9-28.8-9s-25.3,8.2-25.3,8.2L568.3,195.2z"/>
	<path class="st5" d="M574.2,191c0,0-8.6,19.9-0.9,20.4S574.2,191,574.2,191z"/>
</g>
<polygon class="st10" points="488.7,337.6 475,553.7 481.9,553.7 510.9,336.9 "/>
<polygon class="st10" points="734.3,336.9 763.2,553.7 768.8,553.7 754.5,336.2 "/>
<polygon class="st11" points="469.9,341.6 772.6,335.6 772.6,411.7 471.1,416.1 "/>
<polygon class="st12" points="445.2,323.7 797.2,322.3 797.2,340.9 446.6,341.9 "/>
<rect x="463.6" y="305.9" class="st5" width="71" height="17.4"/>
<line class="st9" x1="463.6" y1="310.4" x2="524.1" y2="310.4"/>
<line class="st9" x1="474.1" y1="314.6" x2="534.6" y2="314.6"/>
<line class="st9" x1="463.6" y1="318.5" x2="524.1" y2="318.5"/>
<polygon class="st13" points="698.3,318.9 719.3,266.9 804.8,266.9 784.8,318.9 "/>
<rect x="659.8" y="318.9" class="st14" width="125" height="3.7"/>
<rect x="698.3" y="318.9" class="st15" width="86.5" height="3.7"/>
<polygon class="st16" points="804.8,266.9 800.6,265.4 716.7,265.4 719.3,266.9 "/>
<polygon class="st16" points="716.7,265.4 695.5,318.9 698.3,318.9 719.3,266.9 "/>
<circle class="st16" cx="754.2" cy="294.7" r="5.5"/>
<path class="st5" d="M423,349.1c0,0,33-14.3,37.3-17c0,0,21.3,44.8,35.7,51.3c0,0-16,14.1-28.3,15.4c-7.8,1-15.2,3.9-21.7,8.3
	L423,349.1z"/>
<line class="st9" x1="430.9" y1="353.9" x2="457.4" y2="341.9"/>
<line class="st9" x1="433" y1="357.4" x2="459.5" y2="345.4"/>
<line class="st9" x1="434.8" y1="361.6" x2="461.3" y2="349.6"/>
<line class="st9" x1="437.1" y1="365.9" x2="463.6" y2="353.9"/>
<line class="st9" x1="439.3" y1="370.4" x2="465.8" y2="358.4"/>
<line class="st9" x1="441.2" y1="374.6" x2="467.7" y2="362.6"/>
<line class="st9" x1="444.1" y1="379.3" x2="470.6" y2="367.3"/>
<line class="st9" x1="446.2" y1="385.3" x2="472.7" y2="373.3"/>
<path class="st5" d="M810.8,423.1c0,0-22.1-28.4-24.6-32.8c0,0-40.2,29.1-55.9,27.8c0,0,7.3,20,17.5,27.1c6.4,4.6,11.5,10.7,15,17.7
	L810.8,423.1z"/>
<line class="st9" x1="801.5" y1="423.5" x2="784" y2="400.3"/>
<line class="st9" x1="798" y1="425.6" x2="780.5" y2="402.4"/>
<line class="st9" x1="794.4" y1="428.4" x2="776.9" y2="405.1"/>
<line class="st9" x1="790.3" y1="431.1" x2="772.8" y2="407.9"/>
<line class="st9" x1="786.2" y1="434" x2="768.7" y2="410.7"/>
<line class="st9" x1="782.5" y1="436.7" x2="765.1" y2="413.5"/>
<line class="st9" x1="777.7" y1="439.4" x2="760.2" y2="416.2"/>
<line class="st9" x1="773" y1="443.7" x2="755.5" y2="420.4"/>
<path class="st17" d="M642.3,164l-3.2-4.4l4.2-3l3.2,4.4L642.3,164z M668.9,147.1l-20.4,11.7l-2.5-3.5l17.7-15.4l6.8-4.9l5.2,7.2
	L668.9,147.1z"/>
<path class="st17" d="M632.1,154.2l-5-1.9l1.9-4.9l5,1.9L632.1,154.2z M645,125.4l-10.6,21l-4-1.6l6.3-22.6l3-7.8l8.3,3.2L645,125.4
	z"/>
<path class="st17" d="M621.8,148.7l-5.3,0.9l-0.8-5.1l5.3-0.9L621.8,148.7z M618.5,117.3l1.5,23.5l-4.3,0.7l-5.9-22.8l-1.3-8.2
	l8.8-1.4L618.5,117.3z"/>
<g>
	<polygon class="st17" points="375.1,646.3 337.8,559.1 244.1,519.7 175.4,519.7 63.9,559.1 42.8,646.3 	"/>
	<polygon class="st5" points="243.7,534.3 219.8,519.7 181.9,519.7 169.3,541.9 178,646.3 219.8,646.3 234.4,615.2 	"/>
	<polygon class="st7" points="210.1,564.7 239,639.4 219.8,646.3 181.9,646.3 174.5,641.4 197,565 	"/>
	<path class="st17" d="M167.5,516c-1.8,2.8-37.9,55.3-37.9,55.3l23.4,30.9l-21,27.4l19.1,16.6h41l-16.6-126.7L167.5,516z"/>
	<path class="st17" d="M237,516c1.8,2.8,37.9,55.3,37.9,55.3l-23.3,31l21,27.4l-20.9,16.6h-39.2l16.7-126.7L237,516z"/>
	<path class="st5" d="M181.6,525c-3.8-4.7,0-51.2,0-51.2h49.1l-1.3,59.8C229.3,533.6,191.7,537.6,181.6,525z"/>
	<polygon class="st7" points="181.3,529.5 197.6,567 209.9,566.1 229.3,529.5 195.7,524.8 	"/>
	<polygon class="st5" points="172.9,507.5 139.7,531.1 164.2,576.4 201.5,531.6 210,532.4 238.5,576.4 265.4,528.3 236.3,509.1 
		205.9,524.3 	"/>
	<g id="Layer_9">
		<path class="st5" d="M279.3,401.3c-2.3-18.8-4.4-43.4-17.3-57.3c-7.8-7.5-16.8-13.5-26.8-17.7c-7-3.9-14.5-6.7-22.3-8.3
			c-6.7-0.9-13.5-0.6-20,1c-18.5,3.8-41,22.9-52.4,38c-29.5,40.5-8.3,90.9,19.5,123.7c10.4,12.3,32.1,27.2,48.2,26.7
			c45.8-3.6,57.1-40.7,63.6-60.8c0.5-1.4,18-20,14.2-38.7l-4.5-4.6L279.3,401.3z"/>
		<path class="st18" d="M193.2,403.2c-11-3.3-25,5.4-29.1,11.8"/>
		<path class="st18" d="M260.5,412.5c-6.1-7-21.7-14.3-29.9-10"/>
		<path class="st5" d="M206.5,459.2c2.7-1.9,5.3-4,7.8-6.2c0.6-0.5,1.2-1.1,1.5-1.8c0.8-1.8-0.4-3.8-1.4-5.5l-5.8-8.6"/>
		
			<ellipse transform="matrix(0.9993 -3.647055e-02 3.647055e-02 0.9993 -15.3788 9.295)" class="st8" cx="247.1" cy="426.2" rx="4.6" ry="5.8"/>
		
			<ellipse transform="matrix(0.9993 -3.647055e-02 3.647055e-02 0.9993 -15.4798 6.9585)" class="st8" cx="183" cy="427.8" rx="4.6" ry="5.8"/>
		<path class="st3" d="M140.3,440.2c0.7,8.6,3.3,17,7.8,24.5c0,0-10.3-3.2-25.4-55.6c0,0-16.9-62.5,25.8-68.1
			c15.2-38.3,87.4-48,138,14.8c12.7,68.7-17.3,99-17.3,99l3.7-13.9c0,0,11.3-13.5,10.5-20.3s-8-4.4-8-4.4
			c4.6-37.8-22.7-57.5-22.7-57.5s-62.7,32.9-89.7,2l-21.3,56.5c0,0-13.6-6.7-10.9,5.2S140.3,440.2,140.3,440.2z"/>
		<path class="st5" d="M185.8,487.2c0,0,11.8-35.5,32.1-12.9c1.9,2.1,6.9,9,6.9,9L185.8,487.2z"/>
		<path class="st19" d="M230.7,421.5c0,0,17-9.7,23.5,0"/>
		<path class="st19" d="M165.2,424.2c0,0,17.8-10.5,24.2-2.2"/>
	</g>
	<polygon class="st17" points="235.9,646.3 274.7,528.1 298.5,528.1 302.2,646.3 	"/>
	<path class="st20" d="M208.7,516.5c-3,4.3-1.9,10.2,2.4,13.2l6,4.2l0.1-0.1c2.5,1.4,5.2,2.4,8.1,3c2.6,0.6,5.2,0.8,7.8,0.7
		c1.2-0.1,28.9-2,57.2-41.4c20.5-28.5,26.5-48.1,20.9-67.4c-0.7-2.5-1.8-4.9-3.1-7.2c-1.5-2.5-3.3-4.7-5.4-6.7l0.1-0.2l-5.9-4.3
		c-4.2-3.1-10.2-2.3-13.3,1.9l-15.1,21c-2.9,4.3-1.9,10.2,2.5,13.2l3.5,2.5l7.1,5.1c-0.2,0.6-0.5,1.2-0.7,1.9
		c-2.2,6.3-5.3,14.9-12.2,24.5s-14,15.3-19.3,19.4l-1.6,1.3l-10.6-7.6c-4.2-3.1-10.2-2.3-13.3,1.9L208.7,516.5L208.7,516.5z"/>
	<path class="st5" d="M279.7,459.2c0,0,31.7,3.9,28.1,25.6c-2.6,16-9.2,43.3-9.2,43.3h-23.9c0,0-4-13.6,0.3-24.1
		s-13.1-15.2-13.1-15.2S255.5,461.8,279.7,459.2z"/>
	<path class="st19" d="M217.1,534c0,0-14.4,38,5.3,37s-7.5-23.6-24.9-3.9s10.6,48.5,28.4,38.5s-38.1-19.3-30,6.8
		c4.7,15.3,15.9,27.8,30.6,34.1"/>
	<polyline class="st9" points="63.9,559.1 80.4,590.1 87.7,646.3 	"/>
	<polyline class="st9" points="337.8,559.1 320.8,587.2 320.8,646.3 	"/>
</g>
<g>
	<path class="st21" d="M418.7,292h-84.9l-15,20.5l-16-20.5h-92.4c-14.1,0-25.5-11.4-25.5-25.5V160.9c0-14.1,11.4-25.5,25.5-25.5
		h208.2c14.1,0,25.5,11.4,25.5,25.5v105.5C444.2,280.6,432.8,292,418.7,292z"/>
	<g>
		<path class="st0" d="M210.6,197.5h-10v-2.8h10V197.5z"/>
		<path class="st0" d="M235.2,181.2c4.6,0,8.2,1.5,8.2,6.7c0,2.8-1.7,5.2-4.2,5.9c3.4,0.7,3.5,3,3.7,6c0.1,2,0.1,4.4,1.4,5.7h-3.7
			c-0.8-1.2-0.8-4-0.9-5.3c-0.2-4.1-1.3-5.2-5.7-5.2h-6.4v10.6h-3.2v-24.3L235.2,181.2L235.2,181.2z M227.7,192.4h6
			c3.2,0,6.4-0.3,6.4-4.3c0-3.6-2.7-4.2-5.5-4.2h-6.9V192.4z"/>
		<path class="st0" d="M254.8,206.2c-5.2,0-8.3-3.4-8.3-9.2c0-5.7,3.4-9.5,8.2-9.5c5.8,0,8,4.6,8,9.7v0.4h-13.2v0.2
			c0,3.8,2.1,6,5.5,6c2.5,0,4-1.1,4.7-3.8h2.8C261.6,204,259,206.2,254.8,206.2z M254.6,189.7c-2.8,0-4.8,2.1-5.2,5.3h10.2
			C259.4,191.8,257.5,189.7,254.6,189.7z"/>
		<path class="st0" d="M268.5,190.6c1.5-2.1,3.4-3.2,6-3.2c4.3,0,5.8,2.3,5.8,6.4v11.7h-2.9v-10.4c0-2.8-0.2-5.2-3.8-5.2
			c-3.8,0-5.1,2.8-5.1,6.4v9.2h-2.9v-17.6h2.7L268.5,190.6L268.5,190.6z"/>
		<path class="st0" d="M292.3,190.3h-3.5v10.3c0,1.6-0.1,2.6,2,2.6c0.6,0,0.9,0,1.5-0.1v2.5c-0.9,0.1-1.3,0.2-2.2,0.2
			c-4.4,0-4.2-2.1-4.2-6v-9.4h-3v-2.4h3v-5.2h2.9v5.2h3.5V190.3z"/>
		<path class="st0" d="M320.7,205.5c-0.6,0.3-1.4,0.3-2,0.3c-1.6,0-2.5-0.9-2.6-2.6c-1.7,2-3.7,2.8-6.4,2.8c-3.5,0-5.7-1.9-5.7-5
			c0-3.2,2.1-5,6.3-5.5c4.2-0.5,5.7-0.4,5.7-2.8c0-1.9-1.4-2.9-4-2.9c-2.7,0-4.1,1-4.4,3.6h-2.8c0.1-3.8,2.8-6,7.4-6
			c2.3,0,4.4,0.6,5.5,1.7c1.2,1.2,1.2,3,1.2,4.6c0,2.7-0.2,5.2-0.2,7.9c0,1.3,0.3,1.7,1.2,1.7c0.3,0,0.4,0,0.7-0.1L320.7,205.5
			L320.7,205.5z M312.1,197.5c-2.1,0.3-5,0.5-5,3.4c0,1.8,1.4,2.9,3.5,2.9c2.7,0,5.3-1.9,5.3-4.1v-3.2
			C314.9,197.2,313.4,197.3,312.1,197.5z"/>
		<path class="st0" d="M343.5,206.2c-7,0-11.3-4.9-11.3-12.7c0-7,4-12.7,11.5-12.7c4.8,0,9.6,2.7,10.1,7.9h-3.2
			c-0.7-3.2-3.4-5.1-7-5.1c-5.8,0-8.2,4.8-8.2,10c0,6.2,3.1,10,8.2,10c4.1,0,6.7-2.5,7.2-7h3.2C353.5,202.5,349.5,206.2,343.5,206.2
			z"/>
		<path class="st0" d="M362.6,181.2l7.8,20.6l7.6-20.6h4.5v24.3h-3v-20.3l-7.6,20.3H369l-7.7-20.3v20.3h-3.1v-24.3H362.6z"/>
		<path class="st0" d="M409.9,193.2c0,7.1-4,13-11.7,13c-7.8,0-11.7-5.9-11.7-13.1c0-7.6,4.6-12.5,11.6-12.5
			C405.7,180.6,409.9,185.9,409.9,193.2z M389.8,193.4c0,6.1,3.4,10.1,8.5,10.1c5.1,0,8.4-4,8.4-10.1c0-6-3.4-9.9-8.5-9.9
			C392.4,183.4,389.8,188.1,389.8,193.4z"/>
		<path class="st0" d="M420.8,180.7c4.4,0,7.2,2.6,7.2,6.5c0,2.6-1,4.1-2.7,5.7c-2.3,2.1-3.4,2.6-3.4,6.6h-2.8v-0.2
			c0-4.1,0.9-5,3.8-7.8c1.5-1.5,2-2.5,2-4c0-2.7-1.6-4.3-4.2-4.3c-3.5,0-4.6,2.5-4.8,5.5H413C413.1,184.3,415.5,180.7,420.8,180.7z
			 M422.4,205.6h-3.6v-3.4h3.6V205.6z"/>
	</g>
	<g>
		<path class="st0" d="M231.6,242.6h-3.2v-24.3h3.2V242.6z"/>
		<path class="st0" d="M248.9,227.6c1.5-2.1,3.4-3.2,6-3.2c4.3,0,5.8,2.3,5.8,6.4v11.7h-2.9v-10.4c0-2.8-0.2-5.2-3.8-5.2
			c-3.8,0-5,2.8-5,6.4v9.2h-2.9V225h2.7L248.9,227.6L248.9,227.6z"/>
		<path class="st0" d="M272.5,243.2c-5.2,0-8.3-3.4-8.3-9.2c0-5.7,3.4-9.5,8.2-9.5c5.8,0,8,4.6,8,9.7v0.4h-13.2v0.2
			c0,3.8,2.1,6,5.5,6c2.5,0,4-1.1,4.7-3.8h2.8C279.3,241,276.8,243.2,272.5,243.2z M272.4,226.8c-2.8,0-4.8,2.1-5.2,5.3h10.2
			C277.2,228.8,275.3,226.8,272.4,226.8z"/>
		<path class="st0" d="M290.9,243.2c-5.2,0-8.3-3.4-8.3-9.2c0-5.7,3.4-9.5,8.2-9.5c5.8,0,8,4.6,8,9.7v0.4h-13.2v0.2
			c0,3.8,2.1,6,5.5,6c2.5,0,4-1.1,4.7-3.8h2.8C297.7,241,295.1,243.2,290.9,243.2z M290.8,226.8c-2.8,0-4.8,2.1-5.2,5.3h10.2
			C295.6,228.8,293.7,226.8,290.8,226.8z"/>
		<path class="st0" d="M317.8,242.6h-2.7V240c-1.1,2-3.1,3.1-5.8,3.1c-5,0-8.2-3.6-8.2-9.4c0-5,2.6-9.3,8.1-9.3c2.6,0,4.5,1,5.8,2.8
			v-9h2.9L317.8,242.6L317.8,242.6z M304.1,233.7c0,4.3,2.1,7,5.5,7c3.4,0,5.4-2.6,5.4-6.9c0-3.5-1.5-6.9-5.5-6.9
			C306.1,227,304.1,229.5,304.1,233.7z"/>
		<path class="st0" d="M334.6,227.5c1.3-2,3.3-2.9,5.8-2.9c4.2,0,5.9,2.3,5.9,6v12h-2.8v-11.4c0-2.4-0.7-4.2-3.9-4.2
			c-3.7,0-5,2.6-5,6.6v8.9h-2.9v-24.3h2.9V227.5z"/>
		<path class="st0" d="M358.1,243.2c-5.2,0-8.3-3.4-8.3-9.2c0-5.7,3.4-9.5,8.2-9.5c5.8,0,8,4.6,8,9.7v0.4h-13.2v0.2
			c0,3.8,2.1,6,5.5,6c2.5,0,4-1.1,4.7-3.8h2.8C364.9,241,362.3,243.2,358.1,243.2z M358,226.8c-2.8,0-4.8,2.1-5.2,5.3H363
			C362.7,228.8,360.8,226.8,358,226.8z"/>
		<path class="st0" d="M372.1,242.6h-2.9v-24.3h2.9V242.6z"/>
		<path class="st0" d="M379.4,227.5c1.4-2.1,3.4-3,5.9-3c4.9,0,8.1,3.5,8.1,9.3c0,5.7-3.1,9.4-7.9,9.4c-2.6,0-4.4-0.9-5.9-2.9v9.3
			h-2.9V225h2.7V227.5z M379.4,233.7c0,4.3,2.1,6.9,5.5,6.9c3.4,0,5.3-2.7,5.3-6.9c0-4.3-2.1-6.9-5.5-6.9
			C381.5,226.8,379.4,229.4,379.4,233.7z"/>
		<path class="st0" d="M401,242.6h-3.6v-3.4h3.6V242.6z M400.8,225.7l-0.9,10.8h-1.5l-0.8-10.8v-7.5h3.2L400.8,225.7L400.8,225.7z"
			/>
	</g>
</g>
</svg>
