<svg data-name="Layer 1" xmlns="http://www.w3.org/2000/svg" viewBox="0 0 339.46 67.37"><path d="M109.57 18.06c-.5-1.07-2.06-.74-3.88-.58-1 .08-2.31.25-3.88.49l1.65-6.1c.25-.91-4-4-5.44-3.05-.91.66-2.39 4.87-3.88 10.47a43.16 43.16 0 0 0-8.36 2.27v-.46c.31-2.63-3.55-4.1-5.78-4.1-.76 0-1.51 0-1.85.74C73.42 26.63 70.24 36.45 67 45.6h-.34c0-8.16 2.35-15.83 3.36-23.75.25-2.06-1.68-2.23-2.68-2.23-4.2 0-6.42 11.16-7.08 24.87a1 1 0 0 0-.21.53c0 5.44-5.28 15.75-11.83 15.75-4.34 0-5.87-2.89-5.87-6.76a36.52 36.52 0 0 1 1.53-11 5.48 5.48 0 0 0 4.94 3.46c6.73 0 9.7-9.56 9.7-20.12 0-7.59-3.75-10.06-7-10.06-7.49 0-14.56 21.19-14.56 35 0 .75 0 1.46.1 2.16a1.17 1.17 0 0 0-1.42-.43l-.74.33c-3.46-4.78-8.33-10.47-12-14.6 9.65-1.48 15.83-7.42 15.83-17.32 0-9.24-8.58-17-18.88-18a9.68 9.68 0 0 1 .41-1.65A7 7 0 0 0 16 0c-2.23 0-1.81 1.32-2.06 2.31a10.11 10.11 0 0 0-.33 1.32C2.23 5.28 0 13.52 0 13.52c.17 1.24 4.62 3.88 5.36 3.88a.62.62 0 0 0 .49-.25 12.31 12.31 0 0 1 6.51-7.59C9.9 23 5.69 50.22 4.21 63.41c.41.58 3.79 2 5.52 2 1.32 0 2.14-2.06 2.56-4.87.33-2.47-.58-2.89-.41-4.37l2.39-17.32h.25C19.3 43.7 30.34 58.22 35 64.4c1.32-.17 3.63-2.06 4.12-2.72a1.51 1.51 0 0 0 .27-.62 11.93 11.93 0 0 0 10.27 6.31c4.95 0 8.56-3.32 10.89-7.52.62 2.87 1.9 4.63 4.28 4.63a4.07 4.07 0 0 0 2.85-1.24c-.08-7.75 4.36-21.77 7.8-29.11h1c-.84 4.21-2.18 12.78-2.18 16.33 0 6.68 1.59 12.62 7.3 12.62 4.16 0 7.17-3.19 8.58-6.3 1.79 4.36 5.16 7 9 7 5.28 0 13.11-6.43 13.11-12 0-4.95-3-4.21-3-4.21-.33 4.37-7 10.22-11.87 10.22-1.73 0-2.64-1.32-2.64-3.46 0-12.62 1-13.07 5.28-29.77a103.31 103.31 0 0 1 12.2-1.32 1.08 1.08 0 0 0 1.27-1.24 8.9 8.9 0 0 0-1.73-2.72c-.99-.97-1.74-.07-2.23-1.22zM50.3 22.18c.51-1.15.94-1.48 1.28-1.48s1 .41 1 3.88c0 7.59-2.55 16.9-5.53 16.9-1.7 0-2.13-2.06-2.13-2.06a71.44 71.44 0 0 1 5.38-17.24zM19.13 8a8.48 8.48 0 0 1 1.48-.08c6.84 0 11.79 4.29 11.79 10.72 0 10.64-7.5 15.09-17.32 14.92C16.41 24.16 18 14.51 19.13 8zm69.74 41.48a21.69 21.69 0 0 0 .13 2.3c-.8 2.27-2.39 5.7-4.84 5.7s-3.44-2.06-3.44-6.27c0-9.7 3.48-19.21 4.74-27.1.69 1.4 2.12 2.83 3.41 2.53l3.71-.82c-2.06 8.81-3.71 18.71-3.71 23.66zM161 46.59c-.58 4.95-1.73 10.31-6 10.31-2.8 0-3.46-2.56-3.46-6.35 0-6.51 2.06-15.09 4.62-24.33.49-1.9-2.72-2-3.46-2.23a6.56 6.56 0 0 0 .08-.91c0-2.47-2.47-6.1-8.08-6.1-9.89.02-16.7 14.85-16.7 29.77 0 10.06 4.62 16.33 10.72 16.33 4 0 7.42-3.13 8.74-6h.41a6.2 6.2 0 0 0 5.94 5.44c6.27 0 9.65-9.32 9.65-13.69a2.11 2.11 0 0 0-2.46-2.24zm-23.14 10.88c-2.14 0-3-2-3-7.09 0-8.66 3.71-28.37 9.73-28.37 1.57 0 1.57 2 1.57 2.72a14.2 14.2 0 0 1-2.8 8.25c1.15 1.32 3.79 1.81 3.79 1.81.03 2.98-4.43 22.68-9.29 22.68zm92.42-4.84L221 46l-2.27-1.62a35.42 35.42 0 0 1-2.44 2.62 19.91 19.91 0 0 1-3.11 2.4 13.69 13.69 0 0 1-3.7 1.58 17.24 17.24 0 0 1-4.42.54 14 14 0 0 1-6.06-1.33 14.57 14.57 0 0 1-4.72-3.55 16.49 16.49 0 0 1-3.09-5.33 19.11 19.11 0 0 1-1.19-6.54v-.17a18.53 18.53 0 0 1 1.12-6.42 16.62 16.62 0 0 1 3.09-5.28 14.61 14.61 0 0 1 4.79-3.55 14.07 14.07 0 0 1 6.05-1.35 14.79 14.79 0 0 1 7.82 2 22.09 22.09 0 0 1 5.44 4.81l2.7-2.09 8.85-6.85a32.62 32.62 0 0 0-4.05-4.47 27 27 0 0 0-4.48-3.29l-.1-.06c-.32-.19-.63-.38-1-.55A28.36 28.36 0 0 0 213.5 5a35.93 35.93 0 0 0-8.28-.88 32.31 32.31 0 0 0-12.44 2.36A29.7 29.7 0 0 0 183 13a30.75 30.75 0 0 0-8.84 21.78v.17A30.63 30.63 0 0 0 183 56.8a29.1 29.1 0 0 0 9.63 6.35 31.22 31.22 0 0 0 11.88 2.27 35.55 35.55 0 0 0 8.83-1 29.64 29.64 0 0 0 7.07-2.78l.59-.35.27-.16a26.19 26.19 0 0 0 4.73-3.65 44.36 44.36 0 0 0 4.28-4.85z" fill="#eb058c"/><path d="M284 57.43a31.55 31.55 0 0 1-6.89-10.1 31 31 0 0 1-2.5-12.38v-.17a31.34 31.34 0 0 1 9.49-22.61c.25-.24.5-.46.76-.68l.15-.13v-6h-16.62l-14.73 23.9-14.72-23.94h-16.62v1.89l.54.35.51.33.72.5.44.32.77.6.34.27q.54.44 1 .91a33.83 33.83 0 0 1 4.6 5.17l.37.51-9.34 7.23v22l9.79 7-.39.53a45.65 45.65 0 0 1-4.75 5.5q-.53.52-1.09 1l-.36.3c-.26.22-.53.45-.8.66l-.48.36-.76.56-.54.36-.61.4v2.21h15.13V28.29l16.09 24.65 16.17-24.83v36.11H285v-5.9l-.15-.13c-.28-.25-.57-.5-.85-.76z" fill="#0077bf"/><path d="M337.06 22.73a30.28 30.28 0 0 0-6.61-9.73 31.3 31.3 0 0 0-10-6.53 34.53 34.53 0 0 0-25.31 0 32.18 32.18 0 0 0-8.83 5.53l-.22.18-.39.34c-.22.19-.44.38-.65.58a30 30 0 0 0-9.09 21.68v.17a29.74 29.74 0 0 0 2.4 11.87 30.26 30.26 0 0 0 6.61 9.68l.09.08c.21.2.43.39.65.58l.39.33.22.18a31.6 31.6 0 0 0 8.62 5.33 34.54 34.54 0 0 0 25.31 0 31.89 31.89 0 0 0 10.12-6.58 30 30 0 0 0 9.09-21.68v-.14a29.76 29.76 0 0 0-2.4-11.87zm-13.33 12.21a17.86 17.86 0 0 1-1.17 6.42 16.88 16.88 0 0 1-3.23 5.32 15.19 15.19 0 0 1-5 3.64 15.8 15.8 0 0 1-6.56 1.35 15.38 15.38 0 0 1-6.57-1.39 15.89 15.89 0 0 1-5.08-3.72 17 17 0 0 1-3.28-5.37 17.88 17.88 0 0 1-1.16-6.42v-.17a18.49 18.49 0 0 1 1.12-6.42 15.65 15.65 0 0 1 8.27-9 16.31 16.31 0 0 1 13.1 0 16.43 16.43 0 0 1 5.07 3.82 16.62 16.62 0 0 1 3.32 5.37 17.88 17.88 0 0 1 1.17 6.42z" fill="#ffe600"/></svg>