<svg xmlns="http://www.w3.org/2000/svg" viewBox="0 0 1469.9 801.5"><style>.st0,.st1,.st2{fill:#f0f1f1}.st1,.st2{stroke:#babcbe;stroke-miterlimit:10}.st2{fill:#fff;stroke:#a5a7a9;stroke-width:.5}.st3{fill:#ccc}.st4,.st5{fill:#1a1a1a;stroke:#000;stroke-width:.5;stroke-miterlimit:10}.st5{fill:#fff}.st6{fill:#1a1a1a}.st7,.st8{fill:#eb058c;stroke:#000;stroke-width:.5;stroke-miterlimit:10}.st8{fill:#ccc}.st9{fill:none}.st10,.st11,.st12{fill:#0077bf;stroke:#000;stroke-width:.5;stroke-miterlimit:10}.st11,.st12{fill:none}.st12{fill:#ffe600}</style><g id="Layer_4"><path class="st0" d="M1469.4 601.5V456.2s-80.7-45.7-98.8-54.9c-18.2-9.2-29.7-8.6-38.1-11.7-8.5-3-17.6-3-29.7 0-12.1 3-81.1 49-85.4 51.5-4.2 2.4-13.9 4.8-18.2 4.2-4.2-.6-11.5-3-14.5-5.4s-12.7-2.4-19.4 2.4c-6.7 4.8-6.1 11.5-12.1 12.7s-15.7 1.2-20.6 7.9c-2.4 1.8-16.3-.6-20-.6-3.6 0-12.7 7.3-15.7 9.7-3 2.4-22.4-3-30.3 4.8-5.4.6-12.1-10.3-24.2-.6-8.5 0-13.9-.6-23 3s-10.3-5.4-14.5-1.2c-4.2 4.2-5.4 6.1-10.3 5.4-4.8-.6-33.3-6.7-43-1.2-7.3-1.8-46.6-.6-46.6-.6s-75.7-3.6-82.9 3.6c-7.3 7.3-18.2 7.4-24.2 9.2-6.1 1.7-31-5.4-48.8 0-17.8 5.4-69.1-9.2-74.9-9.2-5.8 0-36.1 7.4-39.7 9.2-3.6 1.7-127.1-7.9-147.7-6.7-20.6 1.2-27.8 12.1-43 15.7-15.1 3.6-12.7-9.5-33.3-9-20.6.5-64.8 59.9-90.2 58-25.4-1.8-41.8-18.2-59.9-10.9-18.2 7.3-74.5 44.8-101.7 46-27.2 1.2-47.2 13.9-47.2 13.9h1357.9z"/><path class="st0" d="M512.2 342h-12.8v-8.9h-46.1v8.9h-12.7v8.9h-18.2v250.6h107.9V350.9h-18.1zM243.6 388.1h38.5v213.4h-38.5zM187.4 411.1h-19.2v190.4h57.7V358.8h-38.5zM362.5 364h17.3v12.6h28.6V332c0-.9.5-1.7 1.2-1.7s1.2.7 1.2 1.7v269.5h-93.1V364v-13.4c37.7 0 44.8 13.4 44.8 13.4zM864.5 330.3V365H862v5.2h-5.2v7.2h-8.5v5.3h-13.6l-5.3 5.4v213.4h37.7V330.3zM140.8 354.2v-15.7H82.4v263h76.3V354.2z"/><path class="st1" d="M1071.9 572.9v-54.3h-22.6v-11.8h-4.3V504h8.5v-2h-11.9v-18.7h-1.1V502h-12.2v-7.8h-1.2v7.8h-6.7v-32.5h-.8V502h-11.8v2h8.5v2.8h-4.3v11.8h-22.6v82.9h97.1v-28.6zM86.5 347.5v-30.7h-1.2v-4h-3v-1.7h-4.6v-2.5h-2.5v8.2h-6.5V312h-4.9v-4.6h4.3v-3l-57.4-6.3v18.7H.5v284.7h89.2v-254zM125.7 396.1V392h-10.2v4.1H94.9v205.4h73.3V396.1zM260.6 383.4v-4.2h-4.3v-7h-2.4v-7.9h-6.6l-9.1-10.6h-20.6l-7.3 10.6h-6.6v7.9h-2.4v7H197v4.2h-2.2v218.1h68.1V383.4zM367.4 377.5l-7.2-7.1v-37.2h-10.6V330h-4.9v3.2h-56.1v3.9h2.4V384h-12.4v217.5h97.8v-224zM613.7 408.2V401h8.5l72.4 72.9v127.6h-80.9zM711.8 385.4h47.3l5.6 3.6v212.5h-52.9zM845.9 424.5v-13.2H843v-43.8h-2v1.4h-8.7v-4.7l-15.1-15.1v-2.4l1.4-1.4-2.8-2.8-2.8 2.8 1.4 1.4v2.4l-15.1 15.1v4.7h-8.7v-1.4h-2v43.8h-2.9v13.2h-2.4v176.9h64.8V424.5h-2.2zm-46.3-50.8h-8.5v-3.1h8.5v3.1zm41 0h-8.5v-3.1h8.5v3.1zM869.8 412v-6.4c0-2.3.7-4.5 2.3-4.5v-10.2s5.4-1.1 9.1-1.1v-3.4h3.2v-12.5h14.5l4.5 4.5v3h-4.2v6.7h12v-3.5l6.2 4.1v15.9h2.4v197h-49.9V412zM1411.7 443.5h-12v-3.4h-7v-2.7h-9.2v2.7h-3.1v-2.7h-6.1v2.7h-7v3.4h-12v158.1h3.8v-4.5h3.9v4.5h41.2v-4.5h5.3v4.5h3.8v-158h-1.6zm-7.7 129.8V567h5.3v6.4h-5.3zm5.3 3.7v6.4h-5.3V577h5.3zm-5.3-13.7V557h5.3v6.4h-5.3zm0-10V547h5.3v6.4h-5.3zm0-9.9V537h5.3v6.4h-5.3zm0-10V527h5.3v6.4h-5.3zm0-10V517h5.3v6.4h-5.3zm0-10V507h5.3v6.4h-5.3zm0-10V497h5.3v6.4h-5.3zm0-10V487h5.3v6.4h-5.3zm0-10V477h5.3v6.4h-5.3zm0-10V467h5.3v6.4h-5.3zm0-9.9v-6.4h5.3v6.4h-5.3zm0-10v-6.4h5.3v6.4h-5.3zm-45-6.4h3.9v6.4h-3.9v-6.4zm0 10h3.9v6.4h-3.9v-6.4zm0 10h3.9v6.4h-3.9v-6.4zm0 10h3.9v6.4h-3.9v-6.4zm0 10h3.9v6.4h-3.9v-6.4zm0 10h3.9v6.4h-3.9v-6.4zm0 9.9h3.9v6.4h-3.9V507zm0 10h3.9v6.4h-3.9V517zm0 10h3.9v6.4h-3.9V527zm0 10h3.9v6.4h-3.9V537zm0 10h3.9v6.4h-3.9V547zm0 10h3.9v6.4h-3.9V557zm0 10h3.9v6.4h-3.9V567zm0 10h3.9v6.4h-3.9V577zm0 16.3v-6.4h3.9v6.4h-3.9zm45 0v-6.4h5.3v6.4h-5.3zM1270.1 488.1v-2.7h3.1v-3.6h-12.4s.9-10.6-6.7-10.6v-5.1h-8.4v5.1c-7.6 0-6.7 10.6-6.7 10.6h-12.4v3.6h3.1v2.7h-7.5v3h5.2v110.3h44.9V491.2h5.2v-3h-7.4zM1218.2 491.6v-1.8h-2.6v-20.4h-3v9.2h-6.1v4.8h-3.6v-7h-19.1v7h-3.6v-4.8h-6.1v-9.2h-3v20.4h-2.6v1.8h2.6v3.9h-2.6v1.8h2.6v3.8h-2.6v1.9h2.6v3.8h-2.6v1.8h2.6v3.9h-2.6v1.8h2.6v3.9h-2.6v1.8h2.6v3.8h-2.6v1.9h2.6v3.8h-2.6v1.8h2.6v3.9h-2.6v1.8h2.6v3.9h-2.6v1.8h2.6v3.8h-2.6v1.9h2.6v3.8h-2.6v1.8h2.6v3.9h-2.6v1.8h2.6v3.9h-2.6v1.8h2.6v3.8h-2.6v1.9h2.6v3.8h-2.6v1.8h2.6v3.9h-2.6v1.8h2.6v3.9h-2.6v1.8h2.6v3.8h-2.6v1.9h2.6v3.8h-2.6v1.8h2.6v2.1h44.5v-2.1h2.6v-1.8h-2.6v-3.8h2.6v-1.9h-2.6v-3.8h2.6v-1.8h-2.6v-3.9h2.6v-1.8h-2.6v-3.9h2.6v-1.8h-2.6v-3.8h2.6v-1.9h-2.6v-3.8h2.6v-1.8h-2.6v-3.9h2.6v-1.8h-2.6V554h2.6v-1.8h-2.6v-3.8h2.6v-1.9h-2.6v-3.8h2.6v-1.8h-2.6V537h2.6v-1.8h-2.6v-3.9h2.6v-1.8h-2.6v-3.8h2.6v-1.9h-2.6V520h2.6v-1.8h-2.6v-3.9h2.6v-1.8h-2.6v-3.9h2.6v-1.8h-2.6V503h2.6v-1.9h-2.6v-3.8h2.6v-1.8h-2.6v-3.9zM1161.7 501.1v-3.3h-3.2v-12.7h-9.5v-3.3h-9.4v-13.5h-3.6v8.5h-6.2v5h-9.8v3.3h-9.6v12.7h-3.2v3.3h3.2v2.5h-3.2v3.3h3.2v2.4h-3.2v3.3h3.2v2.5h-3.2v3.3h3.2v2.4h-3.2v3.3h3.2v2.5h-3.2v3.3h3.2v2.4h-3.2v3.3h3.2v2.7h-3.2v3.3h3.2v2.7h-3.2v3.3h3.2v2.6h-3.2v3.4h3.2v2.6h-3.2v3.4h3.2v2.6h-3.2v3.3h3.2v2.7h-3.2v3.3h3.2v2.7h-3.2v3.3h3.2v2.6h-3.2v3.4h3.2v2.6h-3.2v3.3h3.2v2.7h-3.2v3.3h3.2v2.7h-3.2v3.4H1161.7v-3.4h-3.2v-2.7h3.2v-3.3h-3.2v-2.7h3.2v-3.3h-3.2v-2.6h3.2v-3.4h-3.2v-2.6h3.2v-3.3h-3.2v-2.7h3.2v-3.3h-3.2v-2.7h3.2v-3.3h-3.2v-2.6h3.2v-3.4h-3.2v-2.6h3.2v-3.4h-3.2v-2.6h3.2v-3.3h-3.2v-2.7h3.2v-3.3h-3.2v-2.7h3.2v-3.3h-3.2v-2.4h3.2v-3.3h-3.2v-2.5h3.2v-3.3h-3.2v-2.4h3.2v-3.3h-3.2v-2.5h3.2v-3.3h-3.2v-2.4h3.2v-3.3h-3.2v-2.5zM476.4 375.8v-4.6h-4.2v-20.3l-5.6-3.5v-24.1H463v21.6l-43.2-8.4V351l-6.9-.1v250.6h59.3v-7.4h4.2v-4.5h-4.2v-3.9h4.2v-4.5h-4.2v-3.9h4.2v-4.5h-4.2v-3.9h4.2v-4.5h-4.2v-3.9h4.2V556h-4.2v-3.9h4.2v-4.5h-4.2v-3.9h4.2v-4.5h-4.2v-3.9h4.2v-4.5h-4.2v-3.9h4.2v-4.5h-4.2v-3.9h4.2V514h-4.2v-3.9h4.2v-4.5h-4.2v-3.9h4.2v-4.5h-4.2v-3.9h4.2v-4.5h-4.2v-3.9h4.2v-4.5h-4.2v-3.9h4.2V472h-4.2v-3.9h4.2v-4.5h-4.2v-3.9h4.2v-4.5h-4.2v-3.9h4.2v-4.5h-4.2v-3.9h4.2v-4.5h-4.2v-3.8h4.2V430h-4.2v-3.8h4.2v-4.6h-4.2v-3.8h4.2v-4.6h-4.2v-3.8h4.2v-4.6h-4.2V401h4.2v-4.6h-4.2v-3.8h4.2V388h-4.2v-3.8h4.2v-4.6h-4.2v-3.8z"/><path class="st0" d="M595.5 317.9H585v-8.4h-3.4v3.1h-3.4v3.1h-15.6v2.2h-8.4v283.6h36.3V325.6h5z"/><path class="st1" d="M578 245.5v-1.7l1-.8v-2.6s-17.1-6.6-23.1-8.4c-6-1.8-6.2-3.9-6.1-4.7 2.6-1.4 5-3.5 5-3.5s-4-1.7-4.8-1.7c0-3.4-3.5-3.2-3.5-3.2v-2.3h-1.3v2.3h-4.1c0-2.5-.7-3.7-1.5-4.2l-1.8-23.8-1.8 23.8c-.8.5-1.5 1.7-1.5 4.2h-4.1v-2.3H529v2.3s-3.5-.3-3.5 3.2c-.8 0-4.8 1.7-4.8 1.7s2.3 2.1 5 3.5c.1.8-.1 2.9-6.1 4.7-6 1.8-23.1 8.4-23.1 8.4v2.6l1 .8v1.7l-8.7 2.9v1c0 .6 4.1 2.5 12.4 2.5 1.1 1.2 1.6 2.6 1.6 2.6v3l-4.5 2.8s4.5 3.9 10 3.9h7.2s9.4 68.5 9.4 74.3c0 5.8.6 50.9-2.2 70.7-2.2 15.5-10.6 86.2-14.1 116.1-4.1 1.3-6.5 2.9-6.5 4.6 0 1.6 2 3 5.5 4.3-.3 2.9-.5 4.6-.5 4.6l-7.4 62.7h7l4.5-45s.9-8.6 2.3-20.7c4.4.9 10 1.6 16.1 2v63.8h16.8v-13.2h21.5l1.3 13.2h7l-7.4-62.7s-.2-1.6-.5-4.6c3.5-1.2 5.5-2.7 5.5-4.3 0-1.7-2.4-3.3-6.5-4.6-3.5-29.9-11.9-100.6-14.1-116.1-2.8-19.8-2.2-64.9-2.2-70.7 0-5.8 9.4-74.3 9.4-74.3h7.2c5.5 0 10-3.9 10-3.9l-4.5-2.8v-3s.5-1.4 1.6-2.6c8.3 0 12.4-2 12.4-2.5v-1l-9.1-3zm-25.7 203h-6.2v-23h3.5c1 9.5 2 17.5 2.7 23zm.9 6.7c.2 1.7.9 7.7 1.9 16h-9V452h6.7c.2 1.4.3 2.5.4 3.2zm-7.1 42.2H558c.7 6.4 1.4 12.9 2.1 19.2h-14v-19.2zm0-3.5v-19.2h9.4c.6 5.7 1.4 12.3 2.1 19.2h-11.5zM521 264.1h8.4v184.4h-6.2c2-15.3 6.2-50.2 6.2-82.2 0-38.4-5.9-91.9-8.4-102.2zm-6.4 259.7c3-27.8 7-63.9 7.7-68.6.1-.8.3-1.8.5-3.2h6.7v70.1c-5.7.3-10.7.9-14.9 1.7zm49.9 32.7l.6 5.6h-18.9v-19.2H563c.9 8.2 1.5 13.6 1.5 13.6zm-18.4 28.3v-19.2h19.3l1.9 19.2h-21.2zm16.5-45.4h-16.5v-1.7c6.2-.3 11.7-1 16.1-2 .2 1.3.3 2.5.4 3.7zm-16.5-17.3v-2h14.4c.1 1.3.3 2.5.4 3.7-4.2-.8-9.2-1.4-14.8-1.7zm0-155.8c0 19.1 1.5 39.3 3.1 55.7h-3.1V264.1h8.4c-2.6 10.3-8.4 63.8-8.4 102.2z"/><path class="st1" d="M.5 574.2h1468.9v24.1H.5z"/><path class="st1" d="M.5 577.3h1468.9v24.1H.5z"/><path class="st2" d="M294.9 397h11.8v31.8h-11.8zM321.5 397h11.8v31.8h-11.8zM347.9 397h11.8v31.8h-11.8zM797.2 529.2H809V561h-11.8zM823.9 529.2h11.8V561h-11.8zM797.2 483.6H809v31.8h-11.8zM823.9 483.6h11.8v31.8h-11.8zM797.2 438.1H809v31.8h-11.8zM823.9 438.1h11.8v31.8h-11.8zM878 408.7h11.8v31.8H878zM900.2 408.7H912v31.8h-11.8zM1117.5 498.1h7.4v14.7h-7.4zM1131.3 498.1h7.4v14.7h-7.4zM1146 498.1h7.4v14.7h-7.4zM1117.5 520.2h7.4v14.7h-7.4zM1131.3 520.2h7.4v14.7h-7.4zM1146 520.2h7.4v14.7h-7.4zM1117.5 542.2h7.4v14.7h-7.4zM1131.3 542.2h7.4v14.7h-7.4zM1146 542.2h7.4v14.7h-7.4zM1182.1 490.4h7.4v20.9h-7.4zM1195.9 490.4h7.4v20.9h-7.4zM1182.1 518.3h7.4v20.9h-7.4zM1195.9 518.3h7.4v20.9h-7.4zM1182.1 546.2h7.4v20.9h-7.4zM1195.9 546.2h7.4v20.9h-7.4zM1239.4 491.9h7.4v20.9h-7.4zM1253.2 491.9h7.4v20.9h-7.4zM1239.4 519.8h7.4v20.9h-7.4zM1253.2 519.8h7.4v20.9h-7.4zM1239.4 547.7h7.4v20.9h-7.4zM1253.2 547.7h7.4v20.9h-7.4zM878 454.2h11.8V486H878zM900.2 454.2H912V486h-11.8zM878 499.8h11.8v31.8H878zM900.2 499.8H912v31.8h-11.8zM797.2 392.5H809v31.8h-11.8zM823.9 392.5h11.8v31.8h-11.8zM634.2 529.2H646V561h-11.8zM660.8 529.2h11.8V561h-11.8zM634.2 485.1H646v31.8h-11.8zM660.8 485.1h11.8v31.8h-11.8zM209.7 397h11.8v31.8h-11.8zM236.3 397h11.8v31.8h-11.8zM209.7 441h11.8v31.8h-11.8zM236.3 441h11.8v31.8h-11.8zM209.7 486.6h11.8v31.8h-11.8zM236.3 486.6h11.8v31.8h-11.8zM112.7 413.1h11.8v31.8h-11.8zM139.4 413.1h11.8v31.8h-11.8zM112.7 457.2h11.8V489h-11.8zM139.4 457.2h11.8V489h-11.8zM112.7 502.7h11.8v31.8h-11.8zM139.4 502.7h11.8v31.8h-11.8zM209.7 532.1h11.8v31.8h-11.8zM236.3 532.1h11.8v31.8h-11.8zM728.9 461.1h18.7v18.7h-18.7zM728.9 433.2h18.7v18.7h-18.7zM728.9 403.8h18.7v18.7h-18.7zM1055.3 525.5h9.5v18.7h-9.5zM1055.3 550.5h9.5v18.7h-9.5zM1036.2 525.5h9.5v18.7h-9.5zM1036.2 550.5h9.5v18.7h-9.5zM1017.1 525.5h9.5v18.7h-9.5zM1017.1 550.5h9.5v18.7h-9.5zM998 525.5h9.5v18.7H998zM998 550.5h9.5v18.7H998zM728.9 487.8h18.7v18.7h-18.7zM728.9 514.6h18.7v18.7h-18.7zM728.9 541.3h18.7V560h-18.7zM433.7 425.8h18.7v18.7h-18.7zM433.7 397.9h18.7v18.7h-18.7zM433.7 368.6h18.7v18.7h-18.7zM433.7 452.6h18.7v18.7h-18.7zM433.7 479.3h18.7V498h-18.7zM433.7 506.1h18.7v18.7h-18.7zM433.7 533.7h18.7v18.7h-18.7zM1378.4 485.7h12.2v12.2h-12.2zM1378.4 467.4h12.2v12.2h-12.2zM1378.4 448.2h12.2v12.2h-12.2zM1378.4 503.2h12.2v12.2h-12.2zM1378.4 520.7h12.2v12.2h-12.2zM1378.4 538.2h12.2v12.2h-12.2zM1378.4 556.3h12.2v12.2h-12.2zM308.3 347h11.8v31.8h-11.8zM334.7 347h11.8v31.8h-11.8zM294.9 442.5h11.8v31.8h-11.8zM321.5 442.5h11.8v31.8h-11.8zM347.9 442.5h11.8v31.8h-11.8zM294.9 488h11.8v31.8h-11.8zM321.5 488h11.8v31.8h-11.8zM347.9 488h11.8v31.8h-11.8zM294.9 533.6h11.8v31.8h-11.8zM321.5 533.6h11.8v31.8h-11.8zM347.9 533.6h11.8v31.8h-11.8zM12.9 335.3h11.8v31.8H12.9zM39.5 335.3h11.8v31.8H39.5zM65.9 335.3h11.8v31.8H65.9zM12.9 380.8h11.8v31.8H12.9zM39.5 380.8h11.8v31.8H39.5zM65.9 380.8h11.8v31.8H65.9zM12.9 426.3h11.8v31.8H12.9zM39.5 426.3h11.8v31.8H39.5zM65.9 426.3h11.8v31.8H65.9zM12.9 471.9h11.8v31.8H12.9zM39.5 471.9h11.8v31.8H39.5zM65.9 471.9h11.8v31.8H65.9zM12.9 517.4h11.8v31.8H12.9zM39.5 517.4h11.8v31.8H39.5zM65.9 517.4h11.8v31.8H65.9zM533.3 263.8h8.4v307.7h-8.4z"/><g><circle class="st0" cx="1124.9" cy="328.1" r="13.4"/><circle class="st0" cx="1151.6" cy="312.7" r="25.7"/><circle class="st0" cx="1137.2" cy="337.3" r="12.3"/><circle class="st0" cx="1178.4" cy="329.1" r="25.7"/><circle class="st0" cx="1203" cy="331.2" r="14.4"/><circle class="st0" cx="1151.6" cy="335.3" r="19.5"/><g><circle class="st0" cx="177.9" cy="257" r="13.4"/><circle class="st0" cx="204.6" cy="241.6" r="25.7"/><circle class="st0" cx="190.2" cy="266.3" r="12.3"/><circle class="st0" cx="231.4" cy="258" r="25.7"/><circle class="st0" cx="256" cy="260.1" r="14.4"/><circle class="st0" cx="204.6" cy="264.2" r="19.5"/></g><g><circle class="st0" cx="982.7" cy="359.9" r="5.3"/><circle class="st0" cx="993.4" cy="353.7" r="10.2"/><circle class="st0" cx="987.6" cy="363.6" r="4.9"/><circle class="st0" cx="1004" cy="360.3" r="10.2"/><circle class="st0" cx="1013.8" cy="361.1" r="5.7"/><circle class="st0" cx="993.4" cy="362.7" r="7.8"/></g><g><circle class="st0" cx="1426" cy="334.6" r="10.8"/><circle class="st0" cx="1404.4" cy="322.2" r="20.7"/><circle class="st0" cx="1416" cy="342" r="9.9"/><circle class="st0" cx="1382.9" cy="335.4" r="20.7"/><circle class="st0" cx="1363" cy="337.1" r="11.6"/><circle class="st0" cx="1404.4" cy="340.4" r="15.7"/></g></g></g><ellipse class="st3" cx="552.4" cy="787.3" rx="165" ry="14.2" id="Layer_3"/><g id="Layer_6"><g id="Layer_2"><path class="st4" d="M398.5 444.7s8.3 8.4 22-12c0 0 10.8-15.8 16.2-33 0 0 7.6-20.7 25.4-32.1 0 0 13.1-10.8 34.2-6.7 0 0 19.3 3.3 25.8 21.2 0 0 10.5 21.4-5.5 46.3 0 0-5.5 8.1-6.8 16.1L467 467l-51.8-3.4-4.4-4.3c-.1-.1-8.9-1.2-12.3-14.6z"/><path class="st5" d="M480 442.2c-.1.3-.3.7-.2 1 .1.3.3.6.5.8 2.8 3 5.9 5.7 9.2 8.1 2 1.4 4.4 2.8 6.7 2 1.4-.5 2.5-1.7 3.4-2.9l4.2-5.1c-1.9-1.3-2-4.1-1.7-6.4.3-3.1.8-6.1 1.4-9.1-4.9-3.8-10.8-6.3-17-7.1-2.1-.3-3.2.1-3.3 2.2-.1 1.9 0 3.8-.3 5.7-.5 3.7-1.5 7.4-2.9 10.8z"/><path class="st5" d="M491.6 430.9c6.2 2.4 13.5 3.8 19.2.4 4.2-2.5 6.6-7.2 8-11.9 1.4-5 1.9-10.3 2.3-15.5.3-3.3.5-6.7-.1-9.9-1-4.7-3.8-8.7-6.6-12.5-4.6-6.4-9.7-13-17.1-15.5-4.2-1.4-8.8-1.2-13.2-1-3.3.2-6.6.3-9.7 1.5-2.6.9-4.9 2.5-7 4.3-5.8 5.1-10 12.2-11 19.8-2.7 20.4 18.6 34 35.2 40.3z"/><path class="st6" d="M471 423.6s14-29.8 2.3-45c0 0 9.1 3.5 16.1 1.3 0 0 18-4.9 25.8 9.1 0 0 3.5 8.7 7.7 12.1v-7.2l-6.2-14.2-16.9-14.6-15.8-3.8-15.9 6.4-10.4 10.3-4.7 23.7 9.9 16.4 8.1 5.5z"/><path class="st5" d="M481.4 401.4c.8 0 1.6-.5 2.1-1.2s.8-1.5 1.1-2.2c.3-.5.6-1.1 1-1.5.4-.5.8-.9 1.3-1.3 1.3-.9 3-.9 4.5-.4s2.7 1.4 4 2.4M502 392.2c.3-.6.5-1.1.8-1.7.7-1.4 1.4-2.9 2.9-3.6 1.2-.5 2.5-.3 3.8-.3 1.3 0 2.7-.3 3.4-1.4M491.4 390.3c-2.3-.7-4.7-.6-7 .2-2.2.8-4.1 2.4-5.3 4.5M498.3 386.2c1.3-3.1 4.4-5.3 7.7-5.7M504.1 408.5c1-1 1.8-2 2.7-3.1.2-.3.4-.5.5-.9.2-.8-.4-1.5-1-2.1-1-1-2-2-3.1-3M505.1 421.6c1 0 1.9-.2 2.8 0 .3.1.7.2 1 .2 1.3.1 2.2-1.3 2.3-2.6.1-1.3-.3-2.6-.4-3.8 0-1.1.2-2.2.1-3.3 0-.3-.1-.6-.3-.8-.4-.4-1.1-.3-1.7-.1-3.8 1.5-6.9 4.4-9.7 7.3-.1.1-.2.2-.3.4-.2.8 1.7 1.8 2.3 2.1 1.2.5 2.7.6 3.9.6z"/><path class="st7" d="M511.8 421.6c-.8 1-2.1 1.6-3.4 1.7-1.3.1-2.6-.1-3.8-.5-1-.3-1.9-.6-2.9-.9-.7-.2-1.5-.5-2.1-1s-1.1-1.1-1.3-1.9c1.5.6 3.1 1.1 4.7 1.3 2.1.3 4.4.1 6.4-.9.7-.4 1.5-1.3 2.3-.8 1.1.7.7 2.3.1 3z"/><path class="st7" d="M510.8 409.5c-2.7 0-5.3 1.2-7.4 3-2.1 1.8-3.7 4-5.2 6.2-.1.1-.2.3-.1.5.1.1.3.1.4.1 2.5-.6 4.4-2.6 6.4-4.1 1.7-1.2 3.5-2.1 5.6-2.6 1.7-.6 2.9-3 .3-3.1z"/><ellipse transform="rotate(-41.323 489.04 397.76)" class="st4" cx="489" cy="397.8" rx="1.9" ry="2.4"/><ellipse transform="rotate(-41.323 506.903 388.957)" class="st4" cx="506.9" cy="389" rx="1.9" ry="2.4"/><path class="st4" d="M415.1 463.5s23.3 17.1 43.4 12.9l54.2-22.8-3.1-9.1"/></g><path class="st5" d="M611 597.6l4.7 2.8s29.3 10.3 35 35.7l12.7 93.5h-13.5L621.4 645s-9.2-22-32.2-17.8c-.1 0 11.6-28.3 21.8-29.6zM527.9 655.4s8.2 46.5-1.2 61c0 0-6.2 8-23.8 7.2l-82-5.9 2-13.1 64.2-7.2s11-.5 12-14c0 0-1.8-31-4.5-32.2l33.3 4.2z"/><path class="st6" d="M654.4 756.7l4.8-1.5-3.5-16 19.2 11.5 33.9-7.5s-.9-5-8.4-5.5c0 0-23.8 2.8-35.8-12.8 0 0-12.8 3-18 0 0 0-.8 8.2 3.5 13.2 0 .1 2.5 2.1 4.3 18.6zM399 708.4h17.2L401 724.9l2.2 35s6.5-.2 7.2-8.2c0 0 .2-21.2 19-32l3-18s-8.5-2-13.5 0c0 0-8.1 2.8-19.9 2.5v4.2z"/><path class="st5" d="M595.2 501.6l5.7-.8s6.3-4.5 11.2-4c4.8.5 6.8 10 6.8 10s.1 6.4 8.8 8.2c0 0 .5 2.8-4.5 2.3 0 0-3-.8-6.8-2 0 0-2.3-.8-3.3-1.5 0 0-10.6-4.7-14.3-1.7-.1 0-7-.9-3.6-10.5z"/><path class="st8" d="M530.4 445.7l42 25.6 26.7-5.6v13.2l-25 7s-4.3 2.7-9.3 0l-35.4-17.5s10 22.5-1.7 32.5c0 0-1 33.9 7 41l101.7 47s-59.8 85.3-173 80.3l15-110s-2.5-30.1-23.7-67.7c0 0 53.8-40.7 53.1-47.4 0 .1 19.4-1 22.6 1.6z"/><path class="st3" d="M473.4 449.2s-34.5 10.9-31 30.9c0 0 1 11.7 31 31.1 0 0 33 22.7 43.8 21.9l86-20s-4.1-8.4-3.5-14l-78.2 13.5s-22.8-5.5-42-23.3c-.1.1-10.6-27-6.1-40.1z"/><path class="st8" d="M473.4 449.2s-34.5 10.9-31 30.9c0 0 1 11.7 31 31.1 0 0 33 22.7 43.8 21.9l86-20s-4.1-8.4-3.5-14l-78.2 13.5s-22.8-5.5-42-23.3"/><path class="st5" d="M473.4 449.2s3.3-2.8 3.2-8.4c0 0 17.9 8 27.1.9 0 0 3.2 3.4 8.6 3.5l-7.5 9.1-10.8 2.8c.1.1-17.5.7-20.6-7.9z"/><path class="st7" d="M507.8 444.2l3.9 50 8.7-22.9-5.3-5.6 5.8-4.7 1.7-16.9"/><path class="st7" d="M451.8 460.6l23.3 15 12 .9v8.3l24.7 9.3-38.3-45c-.1.1-14.5 3.5-21.7 11.5z"/><path class="st5" d="M473.4 449.2l38.3 45-4-49s-6.3 12.4-34.3 4z"/><path class="st7" d="M718.4 254.2l40 52.3-112.3 84.7s-23.7 19.2-3.4 51.7c0 0 19.8 28.2 51.8 6L804 367.1l38.8 51.5-110 83.8s-47.8 40.3-99.2 15.8c0 0-35.5-17.5-55-53.3 0 0-27-42.5-5-88 0 0 13.5-27.2 47.8-48.5l63.8-48.7 33.2-25.5z"/><path class="st5" d="M665 294.8l39.8 52.1 33.6-25.3-40-52.4zM750.1 407.4l38.9 51.9 33.6-25.6-38.7-51.5z"/><path class="st6" d="M728.1 195.2l16.6-22-5 18.4 11 3.6-20 35.4 7.7-28.7zM874.1 416.6l39.3-7.7v11.8h16.7l-24 7.5-2.4-11.6z"/><circle class="st5" cx="1023.5" cy="77.9" r="47.7"/><path class="st9" d="M995.1 101.3c1.9-4.1 4-7.9 5-10.6 2-5.4 3.4-11 4.3-16.7.7-4 .3-7.8.4-11.6 0-1.4.1-2.8.3-4.2 1.6-11.4 11.5-21.4 23.6-19.5 12.9 2 19.3 11.5 20.6 24.3.4 4.4-.3 8 .9 12.2 1.4 4.5 2.9 9 4.1 13.6 1.3 4.9 2.6 9.8 3.7 14.7 1.2 1 2.2 2.2 2.9 3.8 6.3-8.1 10.1-18.3 10.1-29.3 0-26.3-21.3-47.7-47.7-47.7-26.3 0-47.7 21.3-47.7 47.7 0 12.3 4.7 23.6 12.4 32 1.9-3.5 4.3-6.9 7.1-8.7z"/><path class="st4" d="M999.6 99.6c2.3-.5 4.6-.5 7.2-1.5.3-.1 2-1.2 3.6-2.2l2.6-2.1.9-2.5.1.2c.7-1.9 2-6.4 1.2-11.3v-.5c-.9-1.4-1.6-2.9-1.9-4.6-.1-.5-.4-1.2-.9-1.2-1.7-.1-2.6-3.1-2.9-5 2.8-2.2 6.5-3.4 9.5-5.1 2.6-1.5 7.8-5.2 8-5.1 1.7-.8 3.4-1.4 4.9-2.5 1.2-.9 6-3.1 5.9-4.8.2 2 1.2 3.6 1.7 5.5.6 2.1 1.4 4.1 1.8 6.2.8 4 .8 8.6-.5 12.5-1.1 3.1-3.1 5.6-5.4 7.9-.2 1.7-.4 4.8.2 7.6v.2l.9 2.5 3.1 2.5c.2.1.5.4.7.8 3.9 1.5 9 2.6 9.6 2.8 3.4 1 6.1 2 8.1 3.7-1-4.9-2.4-9.8-3.7-14.7-1.2-4.6-2.8-9-4.1-13.6-1.3-4.2-.5-7.9-.9-12.2-1.3-12.8-7.7-22.2-20.6-24.3-12.1-1.9-22 8-23.6 19.5-.2 1.4-.3 2.8-.3 4.2-.1 3.8.2 7.7-.4 11.6-.9 5.7-2.4 11.3-4.3 16.7-1 2.6-3.1 6.5-5 10.6.3-.2.6-.4.9-.5 1.3-.8 2.5-1.1 3.6-1.3z"/><path class="st5" d="M1024.9 101.2c1.7 0 6.4-3.1 8.9-6.4l2-3.6V91c-.6-2.8-.4-5.9-.2-7.6-.4.4-.8.7-1.1 1.1-.2.2-.4.4-.6.5-2.2 2-4.5 2.9-6.6 2.9-2.2.1-4.4-.9-6.6-2.9-.2-.2-.4-.4-.6-.5-1.7-1.5-3.3-3.1-4.5-4.9v.5c.7 4.9-.5 9.4-1.2 11.3l1.9 3.4c1.9 3.2 6.8 6.4 8.6 6.4z"/><path class="st5" d="M1019.9 84.4c.2.2.4.4.6.5 2.2 2 4.5 2.9 6.6 2.9 2.2.1 4.4-.9 6.6-2.9.2-.2.4-.4.6-.5.4-.4.8-.7 1.1-1.1 2.3-2.2 4.3-4.8 5.4-7.9 1.3-3.9 1.3-8.5.5-12.5-.4-2.1-1.3-4.1-1.8-6.2-.5-1.9-1.5-3.5-1.7-5.5.2 1.7-4.6 3.9-5.9 4.8-1.5 1-3.2 1.6-4.9 2.5-.1-.1-5.3 3.6-8 5.1-3 1.7-6.8 2.9-9.5 5.1.3 1.8 1.2 4.9 2.9 5 .5 0 .8.7.9 1.2.3 1.7 1 3.2 1.9 4.6 1.4 1.8 3 3.4 4.7 4.9z"/><path class="st8" d="M1029.2 107.5l-1.3-1.6-1 2c-.2.4-.3.9-.2 1.4l1.9 8.6 1.2-3.9 1.2-3.7-.7-1.3c-.4-.5-.7-1-1.1-1.5zM1019.5 109l-.7 1.3 1.2 3.7 1.2 3.9 1.9-8.6c.1-.5 0-1-.2-1.4l-1-2-1.3 1.6c-.4.5-.8 1-1.1 1.5z"/><path class="st10" d="M1058.1 103.5c-2-1.7-4.7-2.6-8.1-3.7-.6-.2-5.7-1.3-9.6-2.8 1.3 2.4 2.4 9.2 2.9 10.7l-5.7-.6s4.2 7.4 4.2 7.5c.1.3-2.7 4.4-6 9.4 10.2-2.7 19-8.7 25.3-16.7-.8-1.6-1.8-2.9-3-3.8zM1008 114.6l4.2-7.5-5.7.6c.6-1.8 1.9-10.6 3.6-11.5l.5-.4c-1.6 1-3.3 2-3.6 2.2-2.6 1-4.9 1.1-7.2 1.5.9 5.5 1.2 11 1.1 16.5 0 1.3 0 2.5.1 3.8 4.2 2.3 8.7 3.9 13.5 4.8-3.7-5.2-6.7-9.7-6.5-10z"/><path class="st7" d="M1028.5 117.8l-1.9-8.6c-.1-.5 0-1 .2-1.4l1-2-3-3.8-3 3.8 1 2c.2.4.3.9.2 1.4l-1.9 8.6 2.4 7.8c.9 0 1.8 0 2.7-.1l2.3-7.7z"/><path class="st5" d="M1035.7 91.2l-2 3.6c-2.5 3.3-7.1 6.4-8.9 6.4-1.7 0-6.6-3.2-8.9-6.4l-1.9-3.4-.1-.2-.9 2.5.1-.1 5.6 16.6.7-1.3c.3-.5.6-1 1-1.4l1.3-1.6 3-3.8 3 3.8 1.3 1.6c.4.4.7.9 1 1.4l.7 1.3 5.6-16.6.1.1-.7-2.5zM1041.8 114.6l-4.2-7.5 5.7.6c-.5-1.6-1.5-8.3-2.9-10.7-.2-.4-.4-.7-.7-.8l-3.1-2.5-.1-.1-5.6 16.6-1.2 3.7-1.2 3.9-2.3 7.7c3.3-.2 6.5-.7 9.5-1.5 3.4-5 6.2-9.1 6.1-9.4z"/><path class="st5" d="M1021.2 117.8l-1.2-3.9-1.2-3.7-5.6-16.6-.1.1-2.6 2.1-.5.4c-1.7.9-3 9.7-3.6 11.5l5.7-.6s-4.2 7.4-4.2 7.5c-.2.3 2.9 4.8 6.4 10.1 2.9.6 6 .9 9.1.9h.1l-2.3-7.8z"/><path class="st10" d="M999.6 99.6c-1.2.2-2.3.6-3.6 1.2-.3.2-.6.3-.9.5-2.8 1.8-5.2 5.2-7 8.7 3.6 4 7.9 7.3 12.6 9.9-.1-1.3-.1-2.5-.1-3.8.3-5.5 0-11.1-1-16.5z"/><path class="st11" d="M1032.9 65.7c1.6-.7 3.6-.7 5.2 0M1018.9 65.7c1.6-.7 3.6-.7 5.2 0"/><circle class="st4" cx="1035.2" cy="68.9" r="1.4"/><circle class="st4" cx="1022.2" cy="68.9" r="1.4"/><path class="st11" d="M1023.5 79.1s4.4 4.2 8.9.4M1029.7 67.7c-.3 1.3-.3 2.6-.1 3.9.2 1 .5 1.9.7 2.9.1.5.2 1 0 1.5s-.8.8-1.2.5"/><g><circle class="st5" cx="1136.3" cy="539.7" r="22.1"/><path class="st9" d="M1123.2 550.5c.9-1.9 1.9-3.7 2.3-4.9.9-2.5 1.6-5.1 2-7.8.3-1.8.2-3.6.2-5.4 0-.6 0-1.3.1-2 .7-5.3 5.4-9.9 10.9-9 6 .9 9 5.3 9.6 11.3.2 2-.2 3.7.4 5.7.6 2.1 1.3 4.2 1.9 6.3.6 2.3 1.2 4.5 1.7 6.8.6.5 1 1 1.4 1.8 2.9-3.8 4.7-8.5 4.7-13.6 0-12.2-9.9-22.1-22.1-22.1-12.2 0-22.1 9.9-22.1 22.1 0 5.7 2.2 10.9 5.7 14.9.9-1.7 2-3.3 3.3-4.1z"/><path class="st4" d="M1125.3 549.7c1.1-.2 2.1-.2 3.4-.7.2-.1 1-.5 1.7-1l1.2-1 .4-1.2v.1c.3-.9.9-2.9.6-5.2v-.2c-.4-.6-.8-1.3-.9-2.1 0-.2-.2-.5-.4-.5-.8 0-1.2-1.5-1.3-2.3 1.3-1 3-1.6 4.4-2.4 1.2-.7 3.6-2.4 3.7-2.4.8-.4 1.6-.7 2.3-1.1.6-.4 2.8-1.4 2.7-2.2.1.9.6 1.7.8 2.5.3 1 .7 1.9.9 2.9.4 1.8.4 4-.2 5.8-.5 1.4-1.4 2.6-2.5 3.6-.1.8-.2 2.2.1 3.5v.1l.4 1.2 1.5 1.2c.1.1.2.2.3.4 1.8.7 4.2 1.2 4.5 1.3 1.6.5 2.8.9 3.8 1.7-.5-2.3-1.1-4.6-1.7-6.8-.6-2.1-1.3-4.2-1.9-6.3-.6-2-.2-3.7-.4-5.7-.6-5.9-3.6-10.3-9.6-11.3-5.6-.9-10.2 3.7-10.9 9-.1.7-.1 1.3-.1 2 0 1.8.1 3.6-.2 5.4-.4 2.6-1.1 5.2-2 7.8-.4 1.2-1.4 3-2.3 4.9.1-.1.3-.2.4-.2.2-.5.8-.7 1.3-.8z"/><path class="st5" d="M1137 550.5c.8 0 3-1.4 4.1-3l.9-1.7v-.1c-.3-1.3-.2-2.7-.1-3.5-.2.2-.4.3-.5.5-.1.1-.2.2-.3.2-1 .9-2.1 1.4-3.1 1.3-1 0-2-.4-3.1-1.3-.1-.1-.2-.2-.3-.2-.8-.7-1.5-1.4-2.1-2.3v.2c.3 2.3-.2 4.3-.6 5.2l.9 1.6c1.1 1.6 3.4 3.1 4.2 3.1z"/><path class="st5" d="M1134.7 542.7c.1.1.2.2.3.2 1 .9 2.1 1.4 3.1 1.3 1 0 2-.4 3.1-1.3.1-.1.2-.2.3-.2.2-.2.4-.3.5-.5 1.1-1 2-2.2 2.5-3.6.6-1.8.6-3.9.2-5.8-.2-1-.6-1.9-.9-2.9-.2-.9-.7-1.6-.8-2.5.1.8-2.1 1.8-2.7 2.2-.7.5-1.5.8-2.3 1.1-.1 0-2.5 1.7-3.7 2.4-1.4.8-3.1 1.3-4.4 2.4.2.9.5 2.3 1.3 2.3.2 0 .4.3.4.5.1.8.5 1.5.9 2.1.6.9 1.4 1.6 2.2 2.3z"/><path class="st8" d="M1139 553.4l-.6-.8-.5.9c-.1.2-.1.4-.1.7l.9 4 .5-1.8.6-1.7-.3-.6c-.2-.3-.3-.5-.5-.7zM1134.5 554.1l-.3.6.6 1.7.5 1.8.9-4c0-.2 0-.5-.1-.7l-.5-.9-.6.8c-.2.2-.4.4-.5.7z"/><path class="st10" d="M1152.4 551.5c-.9-.8-2.2-1.2-3.8-1.7-.3-.1-2.7-.6-4.5-1.3.6 1.1 1.1 4.3 1.3 5l-2.6-.3 1.9 3.5c.1.1-1.2 2-2.8 4.4 4.7-1.3 8.8-4 11.7-7.8-.2-.8-.6-1.3-1.2-1.8zM1129.1 556.7l1.9-3.5-2.6.3c.3-.8.9-4.9 1.6-5.4l.2-.2c-.7.5-1.5.9-1.7 1-1.2.5-2.3.5-3.4.7.4 2.5.6 5.1.5 7.7v1.8c1.9 1 4 1.8 6.3 2.2-1.4-2.4-2.8-4.5-2.8-4.6z"/><path class="st7" d="M1138.7 558.2l-.9-4c0-.2 0-.5.1-.7l.5-.9-1.4-1.7-1.4 1.7.5.9c.1.2.1.4.1.7l-.9 4 1.1 3.6h1.2l1.1-3.6z"/><path class="st5" d="M1142 545.9l-.9 1.7c-1.1 1.5-3.3 2.9-4.1 3-.8 0-3.1-1.5-4.1-3l-.9-1.6v-.1l-.4 1.2 2.6 7.7.3-.6c.1-.2.3-.5.5-.7l.6-.8 1.4-1.7 1.4 1.7.6.8c.2.2.3.4.5.7l.3.6 2.6-7.7-.4-1.2z"/><path class="st5" d="M1144.8 556.7l-1.9-3.5 2.6.3c-.2-.7-.7-3.9-1.3-5-.1-.2-.2-.3-.3-.4l-1.5-1.2-2.6 7.7-.6 1.7-.5 1.8-1.1 3.6c1.5-.1 3-.3 4.4-.7 1.6-2.3 2.9-4.2 2.8-4.3zM1135.3 558.2l-.5-1.8-.6-1.7-2.6-7.7-1.2 1-.2.2c-.8.4-1.4 4.5-1.6 5.4l2.6-.3-1.9 3.5c-.1.1 1.3 2.2 3 4.7 1.4.3 2.8.4 4.2.4l-1.2-3.7z"/><path class="st10" d="M1125.3 549.7c-.5.1-1.1.3-1.7.5-.1.1-.3.2-.4.2-1.3.8-2.4 2.4-3.2 4 1.7 1.8 3.7 3.4 5.9 4.6 0-.6-.1-1.2 0-1.8 0-2.4-.2-5-.6-7.5z"/><path class="st11" d="M1140.7 534c.8-.3 1.7-.3 2.4 0M1134.2 534c.8-.3 1.7-.3 2.4 0"/><circle class="st4" cx="1141.8" cy="535.5" r=".6"/><circle class="st4" cx="1135.8" cy="535.5" r=".6"/><path class="st11" d="M1136.3 540.2s2 2 4.1.2M1139.2 534.9c-.1.6-.2 1.2-.1 1.8.1.5.2.9.3 1.3 0 .2.1.5 0 .7-.1.2-.4.4-.6.3"/></g><g><circle class="st5" cx="229.4" cy="456.2" r="22.1"/><path class="st9" d="M216.2 467.1c.9-1.9 1.9-3.7 2.3-4.9.9-2.5 1.6-5.1 2-7.8.3-1.8.2-3.6.2-5.4 0-.6 0-1.3.1-2 .7-5.3 5.4-9.9 10.9-9 6 .9 9 5.3 9.6 11.3.2 2.2-.2 4 .6 6.1.4 1 .7 1.9 1 3 .8 3.2 1.8 6.4 2.5 9.7.6.5 1 1 1.4 1.8 3.2-4 5-9.2 4.7-14.8-.6-11.1-9.6-20.2-20.7-20.9-12.8-.8-23.5 9.4-23.5 22.1 0 5.7 2.2 10.9 5.7 14.9.8-1.7 1.9-3.3 3.2-4.1z"/><path class="st4" d="M218.3 466.3c1.1-.2 2.1-.2 3.4-.7.2-.1 1-.5 1.7-1l1.2-1 .4-1.2v.1c.3-.9.9-2.9.6-5.2v-.2c-.4-.6-.8-1.4-.9-2.2 0-.3-.2-.5-.5-.5-.8-.1-1.1-1.5-1.3-2.3 1.3-1 3-1.6 4.4-2.4 1.2-.7 3.6-2.4 3.7-2.4.8-.4 1.6-.7 2.3-1.1.6-.4 2.8-1.4 2.7-2.2.1.9.6 1.7.8 2.5.3 1 .7 1.9.9 2.9.4 1.8.4 4-.2 5.8-.5 1.4-1.4 2.6-2.5 3.6-.1.8-.2 2.2.1 3.5v.1l.4 1.2 1.5 1.2c.1.1.2.2.3.4 1.8.7 4.2 1.2 4.5 1.3 1.6.5 2.8.9 3.8 1.7-.7-3.3-1.6-6.5-2.5-9.7-.3-1-.6-2-1-3-.8-2.2-.4-4-.6-6.1-.6-5.9-3.6-10.3-9.6-11.3-5.6-.9-10.2 3.7-10.9 9-.1.7-.1 1.3-.1 2 0 1.8.1 3.6-.2 5.4-.4 2.6-1.1 5.2-2 7.8-.4 1.2-1.4 3-2.3 4.9.1-.1.3-.2.4-.2.5-.5 1-.6 1.5-.7z"/><path class="st5" d="M230 467c.8 0 3-1.4 4.1-3l.9-1.7c-.3-1.3-.2-2.8-.1-3.6-.2.2-.4.3-.5.5-.1.1-.2.2-.3.2-1 .9-2.1 1.4-3.1 1.3-1 0-2-.4-3.1-1.3-.1-.1-.2-.2-.3-.2-.8-.7-1.5-1.4-2.1-2.3v.2c.3 2.3-.2 4.3-.6 5.2l.9 1.6c1.2 1.6 3.4 3.1 4.2 3.1z"/><path class="st5" d="M227.7 459.3c.1.1.2.2.3.2 1 .9 2.1 1.4 3.1 1.3 1 0 2-.4 3.1-1.3.1-.1.2-.2.3-.2.2-.2.4-.3.5-.5 1.1-1 2-2.2 2.5-3.6.6-1.8.6-3.9.2-5.8-.2-1-.6-1.9-.9-2.9-.2-.9-.7-1.6-.8-2.5.1.8-2.1 1.8-2.7 2.2-.7.5-1.5.8-2.3 1.1-.1 0-2.5 1.7-3.7 2.4-1.4.8-3.1 1.3-4.4 2.4.2.8.5 2.2 1.3 2.3.3 0 .4.3.5.5.1.8.5 1.5.9 2.2.6.7 1.3 1.4 2.1 2.2z"/><path class="st8" d="M232.1 470l-.6-.8-.5.9c-.1.2-.1.4-.1.6l.9 4 .5-1.8.6-1.7-.3-.6c-.2-.2-.4-.4-.5-.6zM227.6 470.6l-.3.6.6 1.7.5 1.8.9-4c0-.2 0-.5-.1-.7l-.5-.9-.7.9c-.1.2-.3.4-.4.6z"/><path class="st10" d="M245.5 468.1c-.9-.8-2.2-1.2-3.8-1.7-.3-.1-2.7-.6-4.5-1.3.6 1.1 1.1 4.3 1.3 5l-2.6-.3 1.9 3.5c.1.1-1.2 2-2.8 4.4 4.7-1.3 8.8-4 11.7-7.8-.2-.8-.7-1.4-1.2-1.8zM222.2 473.2l1.9-3.5-2.6.3c.3-.8.9-4.9 1.6-5.4l.2-.2c-.7.5-1.5.9-1.7 1-1.2.5-2.3.5-3.4.7.4 2.5.6 5.1.5 7.7v1.8c1.9 1 4 1.8 6.3 2.2-1.5-2.3-2.9-4.4-2.8-4.6z"/><path class="st7" d="M231.7 474.7l-.9-4c0-.2 0-.5.1-.6l.5-.9-1.4-1.7-1.4 1.7.5.9c.1.2.1.4.1.7l-.9 4 1.1 3.6h1.2l1.1-3.7z"/><path class="st5" d="M235.1 462.4l-.9 1.7c-1.1 1.5-3.3 2.9-4.1 3-.8 0-3.1-1.5-4.1-3l-.9-1.6v-.1l-.4 1.2 2.6 7.7.3-.6c.1-.2.3-.5.5-.7l.6-.8 1.4-1.7 1.4 1.7.6.8c.2.2.3.4.5.7l.3.6 2.6-7.7-.4-1.2z"/><path class="st5" d="M237.9 473.2l-1.9-3.5 2.6.3c-.2-.7-.7-3.9-1.3-5-.1-.2-.2-.3-.3-.4l-1.5-1.2-2.6 7.7-.6 1.7-.5 1.8-1.1 3.6c1.5-.1 3-.3 4.4-.7 1.6-2.2 2.9-4.1 2.8-4.3zM228.3 474.7l-.5-1.8-.6-1.7-2.6-7.7-1.2 1-.2.2c-.8.4-1.4 4.5-1.6 5.4l2.6-.3-1.9 3.5c-.1.1 1.3 2.2 3 4.7 1.4.3 2.8.4 4.3.4l-1.3-3.7z"/><path class="st10" d="M218.3 466.3c-.5.1-1.1.3-1.7.5-.1.1-.3.2-.4.2-1.3.8-2.4 2.4-3.2 4 1.7 1.8 3.7 3.4 5.9 4.6 0-.6-.1-1.2 0-1.8 0-2.5-.2-5-.6-7.5z"/><path class="st11" d="M233.8 450.6c.8-.3 1.7-.3 2.4 0M227.3 450.6c.8-.3 1.7-.3 2.4 0"/><circle class="st4" cx="234.9" cy="452" r=".6"/><circle class="st4" cx="228.8" cy="452" r=".6"/><path class="st11" d="M229.4 456.8s2 2 4.1.2M232.3 451.5c-.1.6-.2 1.2-.1 1.8.1.5.2.9.3 1.3 0 .2.1.5 0 .7-.1.2-.4.4-.6.3"/></g><g><circle class="st5" cx="327.9" cy="363" r="22.1"/><path class="st9" d="M314.8 373.9c.9-1.9 1.9-3.7 2.3-4.9.9-2.5 1.6-5.1 2-7.8.3-1.8.2-3.6.2-5.4 0-.6 0-1.3.1-2 .7-5.3 5.4-9.9 10.9-9 6 .9 9 5.3 9.6 11.3.2 2.2-.2 4 .6 6.1.4 1 .7 1.9 1 3 .8 3.2 1.8 6.4 2.5 9.7.6.5 1 1 1.4 1.8 3.2-4 5-9.2 4.7-14.8-.6-11.1-9.6-20.2-20.7-20.9-12.8-.8-23.5 9.4-23.5 22.1 0 5.7 2.2 10.9 5.7 14.9.8-1.7 1.9-3.3 3.2-4.1z"/><path class="st4" d="M316.9 373.1c1.1-.2 2.1-.2 3.4-.7.2-.1 1-.5 1.7-1l1.2-1 .4-1.2v.1c.3-.9.9-2.9.6-5.2v-.2c-.4-.6-.8-1.4-.9-2.2 0-.3-.2-.5-.5-.5-.8-.1-1.1-1.5-1.3-2.3 1.3-1 3-1.6 4.4-2.4 1.2-.7 3.6-2.4 3.7-2.4.8-.4 1.6-.7 2.3-1.1.6-.4 2.8-1.4 2.7-2.2.1.9.6 1.7.8 2.5.3 1 .7 1.9.9 2.9.4 1.8.4 4-.2 5.8-.5 1.4-1.4 2.6-2.5 3.6-.1.8-.2 2.2.1 3.5v.1l.4 1.2 1.5 1.2c.1.1.2.2.3.4 1.8.7 4.2 1.2 4.5 1.3 1.6.5 2.8.9 3.8 1.7-.7-3.3-1.6-6.5-2.5-9.7-.3-1-.6-2-1-3-.8-2.2-.4-4-.6-6.1-.6-5.9-3.6-10.3-9.6-11.3-5.6-.9-10.2 3.7-10.9 9-.1.7-.1 1.3-.1 2 0 1.8.1 3.6-.2 5.4-.4 2.6-1.1 5.2-2 7.8-.4 1.2-1.4 3-2.3 4.9.1-.1.3-.2.4-.2.4-.5.9-.6 1.5-.7z"/><path class="st5" d="M328.6 373.8c.8 0 3-1.4 4.1-3l.9-1.7c-.3-1.3-.2-2.8-.1-3.6-.2.2-.4.3-.5.5-.1.1-.2.2-.3.2-1 .9-2.1 1.4-3.1 1.3-1 0-2-.4-3.1-1.3-.1-.1-.2-.2-.3-.2-.8-.7-1.5-1.4-2.1-2.3v.2c.3 2.3-.2 4.3-.6 5.2l.9 1.6c1.1 1.6 3.4 3.1 4.2 3.1z"/><path class="st5" d="M326.2 366.1c.1.1.2.2.3.2 1 .9 2.1 1.4 3.1 1.3 1 0 2-.4 3.1-1.3.1-.1.2-.2.3-.2.2-.2.4-.3.5-.5 1.1-1 2-2.2 2.5-3.6.6-1.8.6-3.9.2-5.8-.2-1-.6-1.9-.9-2.9-.2-.9-.7-1.6-.8-2.5.1.8-2.1 1.8-2.7 2.2-.7.5-1.5.8-2.3 1.1-.1 0-2.5 1.7-3.7 2.4-1.4.8-3.1 1.3-4.4 2.4.2.8.5 2.2 1.3 2.3.3 0 .4.3.5.5.1.8.5 1.5.9 2.2.6.7 1.3 1.4 2.1 2.2z"/><path class="st8" d="M330.6 376.8l-.6-.8-.5.9c-.1.2-.1.4-.1.6l.9 4 .5-1.8.6-1.7-.3-.6c-.2-.2-.3-.4-.5-.6zM326.1 377.4l-.3.6.6 1.7.5 1.8.9-4c0-.2 0-.5-.1-.7l-.5-.9-.6.8c-.2.3-.4.5-.5.7z"/><path class="st10" d="M344 374.9c-.9-.8-2.2-1.2-3.8-1.7-.3-.1-2.7-.6-4.5-1.3.6 1.1 1.1 4.3 1.3 5l-2.6-.3 1.9 3.5c.1.1-1.2 2-2.8 4.4 4.7-1.3 8.8-4 11.7-7.8-.2-.8-.7-1.4-1.2-1.8zM320.7 380l1.9-3.5-2.6.3c.3-.8.9-4.9 1.6-5.4l.2-.2c-.7.5-1.5.9-1.7 1-1.2.5-2.3.5-3.4.7.4 2.5.6 5.1.5 7.7v1.8c1.9 1 4 1.8 6.3 2.2-1.5-2.3-2.8-4.4-2.8-4.6z"/><path class="st7" d="M330.3 381.5l-.9-4c0-.2 0-.5.1-.6l.5-.9-1.4-1.7-1.4 1.7.5.9c.1.2.1.4.1.7l-.9 4 1.1 3.6h1.2l1.1-3.7z"/><path class="st5" d="M333.6 369.2l-.9 1.7c-1.1 1.5-3.3 2.9-4.1 3-.8 0-3.1-1.5-4.1-3l-.9-1.6v-.1l-.4 1.2 2.6 7.7.3-.6c.1-.2.3-.5.5-.7l.6-.8 1.4-1.7 1.4 1.7.6.8c.2.2.3.4.5.7l.3.6 2.6-7.7-.4-1.2z"/><path class="st5" d="M336.4 380l-1.9-3.5 2.6.3c-.2-.7-.7-3.9-1.3-5-.1-.2-.2-.3-.3-.4l-1.5-1.2-2.6 7.7-.6 1.7-.5 1.8-1.1 3.6c1.5-.1 3-.3 4.4-.7 1.6-2.2 2.9-4.1 2.8-4.3zM326.9 381.5l-.5-1.8-.6-1.7-2.6-7.7-1.2 1-.2.2c-.8.4-1.4 4.5-1.6 5.4l2.6-.3-1.9 3.5c-.1.1 1.3 2.2 3 4.7 1.4.3 2.8.4 4.3.4l-1.3-3.7z"/><path class="st10" d="M316.9 373.1c-.5.1-1.1.3-1.7.5-.1.1-.3.2-.4.2-1.3.8-2.4 2.4-3.2 4 1.7 1.8 3.7 3.4 5.9 4.6 0-.6-.1-1.2 0-1.8-.1-2.5-.3-5-.6-7.5z"/><path class="st11" d="M332.3 357.4c.8-.3 1.7-.3 2.4 0M325.8 357.4c.8-.3 1.7-.3 2.4 0"/><circle class="st4" cx="333.4" cy="358.8" r=".6"/><circle class="st4" cx="327.3" cy="358.8" r=".6"/><path class="st11" d="M327.9 363.6s2 2 4.1.2M330.8 358.3c-.1.6-.2 1.2-.1 1.8.1.5.2.9.3 1.3 0 .2.1.5 0 .7-.1.2-.4.4-.6.3"/></g><circle class="st5" cx="772.5" cy="47.9" r="47.7"/><g><path class="st9" d="M744.1 71.3c1.9-4.1 4-7.9 5-10.6 2-5.4 3.4-11 4.3-16.7.7-4 .3-7.8.4-11.6 0-1.4.1-2.8.3-4.2 1.6-11.4 11.5-21.4 23.6-19.5 12.9 2 19.3 11.5 20.6 24.3.4 4.4-.3 8 .9 12.2 1.4 4.5 2.9 9 4.1 13.6 1.3 4.9 2.6 9.8 3.7 14.7 1.2 1 2.2 2.2 2.9 3.8C816.2 69.2 820 59 820 48 820 21.7 798.7.3 772.3.3 746 .3 724.6 21.6 724.6 48c0 12.3 4.7 23.6 12.4 32 1.9-3.5 4.3-6.9 7.1-8.7z"/><path class="st4" d="M748.6 69.6c2.3-.5 4.6-.5 7.2-1.5.3-.1 2-1.2 3.6-2.2l2.6-2.1.9-2.5.1.2c.7-1.9 2-6.4 1.2-11.3v-.5c-.9-1.4-1.6-2.9-1.9-4.6-.1-.5-.4-1.2-.9-1.2-1.7-.1-2.6-3.1-2.9-5 2.8-2.2 6.5-3.4 9.5-5.1 2.6-1.5 7.8-5.2 8-5.1 1.7-.8 3.4-1.4 4.9-2.5 1.2-.9 6-3.1 5.9-4.8.2 2 1.2 3.6 1.7 5.5.6 2.1 1.4 4.1 1.8 6.2.8 4 .8 8.6-.5 12.5-1.1 3.1-3.1 5.6-5.4 7.9-.2 1.7-.4 4.8.2 7.6v.2l.9 2.5 3.1 2.5c.2.1.5.4.7.8 3.9 1.5 9 2.6 9.6 2.8 3.4 1 6.1 2 8.1 3.7-1-4.9-2.4-9.8-3.7-14.7-1.2-4.6-2.8-9-4.1-13.6-1.3-4.2-.5-7.9-.9-12.2-1.3-12.8-7.7-22.2-20.6-24.3-12.1-1.9-22 8-23.6 19.5-.2 1.4-.3 2.8-.3 4.2-.1 3.8.2 7.7-.4 11.6-.9 5.7-2.4 11.3-4.3 16.7-1 2.6-3.1 6.5-5 10.6.3-.2.6-.4.9-.5 1.3-.8 2.5-1.1 3.6-1.3z"/><path class="st5" d="M773.9 71.2c1.7 0 6.4-3.1 8.9-6.4l2-3.6V61c-.6-2.8-.4-5.9-.2-7.6-.4.4-.8.7-1.1 1.1-.2.2-.4.4-.6.5-2.2 2-4.5 2.9-6.6 2.9-2.2.1-4.4-.9-6.6-2.9-.2-.2-.4-.4-.6-.5-1.7-1.5-3.3-3.1-4.5-4.9v.5c.7 4.9-.5 9.4-1.2 11.3l1.9 3.4c1.9 3.2 6.8 6.4 8.6 6.4z"/><path class="st5" d="M768.9 54.4c.2.2.4.4.6.5 2.2 2 4.4 2.9 6.6 2.9 2.2.1 4.4-.9 6.6-2.9.2-.2.4-.4.6-.5.4-.4.8-.7 1.1-1.1 2.3-2.2 4.3-4.8 5.4-7.9 1.3-3.9 1.3-8.5.5-12.5-.4-2.1-1.3-4.1-1.8-6.2-.5-1.9-1.5-3.5-1.7-5.5.2 1.7-4.6 3.9-5.9 4.8-1.5 1-3.2 1.6-4.9 2.5-.1-.1-5.3 3.6-8 5.1-3 1.7-6.8 2.9-9.5 5.1.3 1.8 1.2 4.9 2.9 5 .5 0 .8.7.9 1.2.3 1.7 1 3.2 1.9 4.6 1.4 1.8 3 3.4 4.7 4.9z"/><path class="st8" d="M778.2 77.5l-1.3-1.6-1 2c-.2.4-.3.9-.2 1.4l1.9 8.6 1.2-3.9 1.2-3.7-.7-1.3c-.4-.5-.7-1-1.1-1.5zM768.5 79l-.7 1.3L769 84l1.2 3.9 1.9-8.6c.1-.5 0-1-.2-1.4l-1-2-1.3 1.6c-.4.5-.8 1-1.1 1.5z"/><path class="st12" d="M807.1 73.5c-2-1.7-4.7-2.6-8.1-3.7-.6-.2-5.7-1.3-9.6-2.8 1.3 2.4 2.4 9.2 2.9 10.7l-5.7-.6s4.2 7.4 4.2 7.5c.1.3-2.7 4.4-6 9.4 10.2-2.7 19-8.7 25.3-16.7-.8-1.6-1.8-2.9-3-3.8zM757 84.6l4.2-7.5-5.7.6c.6-1.8 1.9-10.6 3.6-11.5l.5-.4c-1.6 1-3.3 2-3.6 2.2-2.6 1-4.9 1.1-7.2 1.5.9 5.5 1.2 11 1.1 16.5 0 1.3 0 2.5.1 3.8 4.2 2.3 8.7 3.9 13.5 4.8-3.7-5.2-6.7-9.7-6.5-10z"/><path class="st7" d="M777.5 87.8l-1.9-8.6c-.1-.5 0-1 .2-1.4l1-2-3-3.8-3 3.8 1 2c.2.4.3.9.2 1.4l-1.9 8.6 2.4 7.8c.9 0 1.8 0 2.7-.1l2.3-7.7z"/><path class="st5" d="M784.7 61.2l-2 3.6c-2.5 3.3-7.1 6.4-8.9 6.4-1.7 0-6.6-3.2-8.9-6.4l-1.9-3.4-.1-.2-.9 2.5.1-.1 5.6 16.6.7-1.3c.3-.5.6-1 1-1.4l1.3-1.6 3-3.8 3 3.8 1.3 1.6c.4.4.7.9 1 1.4l.7 1.3 5.6-16.6.1.1-.7-2.5zM790.8 84.6l-4.2-7.5 5.7.6c-.5-1.6-1.5-8.3-2.9-10.7-.2-.4-.4-.7-.7-.8l-3.1-2.5-.1-.1-5.5 16.6-1.2 3.7-1.2 3.9-2.3 7.7c3.3-.2 6.5-.7 9.5-1.5 3.3-5 6.1-9.1 6-9.4z"/><path class="st5" d="M770.2 87.8L769 84l-1.2-3.7-5.6-16.6-.1.1-2.6 2.1-.5.4c-1.7.9-3 9.7-3.6 11.5l5.7-.6s-4.2 7.4-4.2 7.5c-.2.3 2.9 4.8 6.4 10.1 2.9.6 6 .9 9.1.9h.1l-2.3-7.9z"/><path class="st12" d="M748.6 69.6c-1.2.2-2.3.6-3.6 1.2-.3.2-.6.3-.9.5-2.8 1.8-5.2 5.2-7 8.7 3.6 4 7.9 7.3 12.6 9.9-.1-1.3-.1-2.5-.1-3.8.3-5.5 0-11.1-1-16.5z"/><path class="st11" d="M781.9 35.7c1.6-.7 3.6-.7 5.2 0M767.9 35.7c1.6-.7 3.6-.7 5.2 0"/><circle class="st4" cx="784.2" cy="38.9" r="1.4"/><circle class="st4" cx="771.2" cy="38.9" r="1.4"/><path class="st11" d="M772.5 49.1s4.4 4.2 8.9.4M778.7 37.7c-.3 1.3-.3 2.6-.1 3.9.2 1 .5 1.9.7 2.9.1.5.2 1 0 1.5s-.8.8-1.2.5"/></g><circle class="st5" cx="973.5" cy="528.9" r="47.7"/><g><path class="st9" d="M945.1 552.3c1.9-4.1 4-7.9 5-10.6 2-5.4 3.4-11 4.3-16.7.7-4 .3-7.8.4-11.6 0-1.4.1-2.8.3-4.2 1.6-11.4 11.5-21.4 23.6-19.5 12.9 2 19.3 11.5 20.6 24.3.4 4.4-.3 8 .9 12.2 1.4 4.5 2.9 9 4.1 13.6 1.3 4.9 2.6 9.8 3.7 14.7 1.2 1 2.2 2.2 2.9 3.8 6.3-8.1 10.1-18.3 10.1-29.3 0-26.3-21.3-47.7-47.7-47.7-26.3 0-47.7 21.3-47.7 47.7 0 12.3 4.7 23.6 12.4 32 1.9-3.5 4.3-6.9 7.1-8.7z"/><path class="st4" d="M949.6 550.6c2.3-.5 4.6-.5 7.2-1.5.3-.1 2-1.2 3.6-2.2l2.6-2.1.9-2.5.1.2c.7-1.9 2-6.4 1.2-11.3v-.5c-.9-1.4-1.6-2.9-1.9-4.6-.1-.5-.4-1.2-.9-1.2-1.7-.1-2.6-3.1-2.9-5 2.8-2.2 6.5-3.4 9.5-5.1 2.6-1.5 7.8-5.2 8-5.1 1.7-.8 3.4-1.4 4.9-2.5 1.2-.9 6-3.1 5.9-4.8.2 2 1.2 3.6 1.7 5.5.6 2.1 1.4 4.1 1.8 6.2.8 4 .8 8.6-.5 12.5-1.1 3.1-3.1 5.6-5.4 7.9-.2 1.7-.4 4.8.2 7.6v.2l.9 2.5 3.1 2.5c.2.1.5.4.7.8 3.9 1.5 9 2.6 9.6 2.8 3.4 1 6.1 2 8.1 3.7-1-4.9-2.4-9.8-3.7-14.7-1.2-4.6-2.8-9-4.1-13.6-1.3-4.2-.5-7.9-.9-12.2-1.3-12.8-7.7-22.2-20.6-24.3-12.1-1.9-22 8-23.6 19.5-.2 1.4-.3 2.8-.3 4.2-.1 3.8.2 7.7-.4 11.6-.9 5.7-2.4 11.3-4.3 16.7-1 2.6-3.1 6.5-5 10.6.3-.2.6-.4.9-.5 1.3-.8 2.5-1.1 3.6-1.3z"/><path class="st5" d="M974.9 552.2c1.7 0 6.4-3.1 8.9-6.4l2-3.6v-.2c-.6-2.8-.4-5.9-.2-7.6-.4.4-.8.7-1.1 1.1-.2.2-.4.4-.6.5-2.2 2-4.5 2.9-6.6 2.9-2.2.1-4.4-.9-6.6-2.9-.2-.2-.4-.4-.6-.5-1.7-1.5-3.3-3.1-4.5-4.9v.5c.7 4.9-.5 9.4-1.2 11.3l1.9 3.4c1.9 3.2 6.8 6.4 8.6 6.4z"/><path class="st5" d="M969.9 535.4c.2.2.4.4.6.5 2.2 2 4.4 2.9 6.6 2.9 2.2.1 4.4-.9 6.6-2.9.2-.2.4-.4.6-.5.4-.4.8-.7 1.1-1.1 2.3-2.2 4.3-4.8 5.4-7.9 1.3-3.9 1.3-8.5.5-12.5-.4-2.1-1.3-4.1-1.8-6.2-.5-1.9-1.5-3.5-1.7-5.5.2 1.7-4.6 3.9-5.9 4.8-1.5 1-3.2 1.6-4.9 2.5-.1-.1-5.3 3.6-8 5.1-3 1.7-6.8 2.9-9.5 5.1.3 1.8 1.2 4.9 2.9 5 .5 0 .8.7.9 1.2.3 1.7 1 3.2 1.9 4.6 1.4 1.8 3 3.4 4.7 4.9z"/><path class="st8" d="M979.2 558.5l-1.3-1.6-1 2c-.2.4-.3.9-.2 1.4l1.9 8.6 1.2-3.9 1.2-3.7-.7-1.3c-.4-.5-.7-1-1.1-1.5zM969.5 560l-.7 1.3 1.2 3.7 1.2 3.9 1.9-8.6c.1-.5 0-1-.2-1.4l-1-2-1.3 1.6c-.4.5-.8 1-1.1 1.5z"/><path class="st12" d="M1008.1 554.5c-2-1.7-4.7-2.6-8.1-3.7-.6-.2-5.7-1.3-9.6-2.8 1.3 2.4 2.4 9.2 2.9 10.7l-5.7-.6s4.2 7.4 4.2 7.5c.1.3-2.7 4.4-6 9.4 10.2-2.7 19-8.7 25.3-16.7-.8-1.6-1.8-2.9-3-3.8zM958 565.6l4.2-7.5-5.7.6c.6-1.8 1.9-10.6 3.6-11.5l.5-.4c-1.6 1-3.3 2-3.6 2.2-2.6 1-4.9 1.1-7.2 1.5.9 5.5 1.2 11 1.1 16.5 0 1.3 0 2.5.1 3.8 4.2 2.3 8.7 3.9 13.5 4.8-3.7-5.2-6.7-9.7-6.5-10z"/><path class="st7" d="M978.5 568.8l-1.9-8.6c-.1-.5 0-1 .2-1.4l1-2-3-3.8-3 3.8 1 2c.2.4.3.9.2 1.4l-1.9 8.6 2.4 7.8c.9 0 1.8 0 2.7-.1l2.3-7.7z"/><path class="st5" d="M985.7 542.2l-2 3.6c-2.5 3.3-7.1 6.4-8.9 6.4-1.7 0-6.6-3.2-8.9-6.4l-1.9-3.4-.1-.2-.9 2.5.1-.1 5.6 16.6.7-1.3c.3-.5.6-1 1-1.4l1.3-1.6 3-3.8 3 3.8 1.3 1.6c.4.4.7.9 1 1.4l.7 1.3 5.6-16.6.1.1-.7-2.5zM991.8 565.6l-4.2-7.5 5.7.6c-.5-1.6-1.5-8.3-2.9-10.7-.2-.4-.4-.7-.7-.8l-3.1-2.5-.1-.1-5.6 16.6-1.2 3.7-1.2 3.9-2.3 7.7c3.3-.2 6.5-.7 9.5-1.5 3.4-5 6.2-9.1 6.1-9.4z"/><path class="st5" d="M971.2 568.8L970 565l-1.2-3.7-5.6-16.6-.1.1-2.6 2.1-.5.4c-1.7.9-3 9.7-3.6 11.5l5.7-.6s-4.2 7.4-4.2 7.5c-.2.3 2.9 4.8 6.4 10.1 2.9.6 6 .9 9.1.9h.1l-2.3-7.9z"/><path class="st12" d="M949.6 550.6c-1.2.2-2.3.6-3.6 1.2-.3.2-.6.3-.9.5-2.8 1.8-5.2 5.2-7 8.7 3.6 4 7.9 7.3 12.6 9.9-.1-1.3-.1-2.5-.1-3.8.3-5.5 0-11.1-1-16.5z"/><path class="st11" d="M982.9 516.7c1.6-.7 3.6-.7 5.2 0M968.9 516.7c1.6-.7 3.6-.7 5.2 0"/><circle class="st4" cx="985.2" cy="519.9" r="1.4"/><circle class="st4" cx="972.2" cy="519.9" r="1.4"/><path class="st11" d="M973.5 530.1s4.4 4.2 8.9.4M979.7 518.7c-.3 1.3-.3 2.6-.1 3.9.2 1 .5 1.9.7 2.9.1.5.2 1 0 1.5s-.8.8-1.2.5"/></g><g><path class="st5" d="M881.2 275.4c5.2-.8 10.6-3.1 15.7-4.5 2-2.2 4.4-4.6 5.5-5.6l1.8-3.3.1.1.2-3.2v-.2c-.5-.4-.9-.8-1.2-1.3-.5-.7-.9-1.6-1.1-2.5-.3-1.3 0-3.4-1.1-4.5-.9-1-1.9-1.4-2.5-2.8-1.1-2.3-1.3-5.1-1.1-7.6.1-.7.5-1.9 1.5-1.1.2.1.2.3.3.5 0-.8-.1-1.5-.3-2.4-.4-1.5-.3-3.3-.4-4.9-.3-4.6-.7-9.4 3.9-12.8 4.3-3.3 11.6-6.2 17.2-4.7 1 .3 2.5.4 3.4 1.2-.2-.2 1.4-.2 1.6-.2 2.4-.2 6.8 2.3 9.6 6.3 2.7 3.7 2.2 7.8 1.5 12.1-.2 1.2-.1 2.5-.9 5.3-.1.5-.6 1.7-1 2.8.4-.2.2-1 .7-1.3 1-.6 1.4.6 1.4 1.3 0 2.5-.5 5.2-1.8 7.4-.8 1.3-1.7 1.6-2.7 2.5-1.1 1-1 3.1-1.5 4.4-.3.9-.8 1.7-1.4 2.4-.4.5-1 .9-1.6 1.3l-.2 3.8.3-.3 1.3 3.5.1-.8c.7.3 3.3 2 5.3 4.4 4.8 1.2 11.4 2.5 14.2 2.9 3.8.5 4.8 2 7.2 5 .3.3.5.7.7 1 4.6-7.4 7.3-16 7.3-25.4 0-26.3-21.3-47.7-47.7-47.7-26.3 0-47.7 21.3-47.7 47.7 0 9.3 2.7 18 7.3 25.3 1.5-2.2 3.4-3.7 6.1-4.1z"/><path class="st5" d="M916.7 273.8l10.1-9.9.2-3.8c-1.1.7-2.3 1.2-3.2 2.1-1.3 1.2-2.6 2.5-4.4 3.2-.9.4-2.2.4-3.4.3h-.5c-1.4 0-2.8-.1-3.8-.6-1.7-.9-2.8-2.3-4-3.6-.9-1-2.1-1.7-3.2-2.6v.2l-.2 3.2 11.7 11.6c.2 0 .5 0 .7-.1z"/><path class="st5" d="M907.7 261.3c1.2 1.4 2.3 2.7 4 3.6 1 .6 2.5.6 3.8.6h.5c1.2.1 2.4.1 3.4-.3 1.8-.7 3-2 4.4-3.2.9-.8 2.1-1.4 3.2-2.1.6-.4 1.1-.8 1.6-1.3.6-.7 1-1.5 1.4-2.4.5-1.3.4-3.4 1.5-4.4 1-.9 2-1.2 2.7-2.5 1.3-2.2 1.8-4.9 1.8-7.4 0-.7-.3-1.9-1.4-1.3-.5.3-.3 1-.7 1.3-.1.4-.3.7-.4 1.1l-1.4-.1c0-1.1.4-2.8.4-3.1.2-2.2.4-4.5 0-6.7-.5-2.8-4.6-4.4-6.9-5.8-.4-.2-.9-.8-1.4-1-.7-.2-.3-.1-1 .2-2.5 1.3-4 2.6-7.1 2.5-2.5-.1-5-.7-7.5-.7-3.4.1-6.6 2.3-7.2 5.6-.2 1.3-.1 2.6-.2 3.9-.1 1-.2 1.7-.2 2.7v.9l-1.8-.1c0-.3 0-.6.1-.7 0-.4.1-.8.1-1.2 0-.2-.1-.4-.3-.5-.9-.7-1.4.4-1.5 1.1-.3 2.5 0 5.2 1.1 7.6.6 1.3 1.6 1.8 2.5 2.8 1 1.1.7 3.2 1.1 4.5.2.9.6 1.7 1.1 2.5.3.5.8.9 1.2 1.3 1 .9 2.2 1.6 3.1 2.6z"/><path class="st4" d="M899.3 240.7c0 .2 0 .4-.1.7l1.8.1v-.9c0-1 .1-1.7.2-2.7.1-1.3 0-2.6.2-3.9.5-3.3 3.7-5.5 7.2-5.6 2.5-.1 5 .6 7.5.7 3.1.2 4.6-1.2 7.1-2.5.7-.3.3-.4 1-.2.4.1 1 .7 1.4 1 2.3 1.4 6.4 3 6.9 5.8.4 2.2.2 4.5 0 6.7 0 .3-.4 2-.4 3.1l1.4.1c.1-.3.3-.7.4-1.1.4-1.1.8-2.3 1-2.8.7-2.8.7-4.1.9-5.3.7-4.3 1.2-8.4-1.5-12.1-2.8-4-7.2-6.5-9.6-6.3-.1 0-1.8.1-1.6.2-.8-.8-2.3-.9-3.4-1.2-5.6-1.5-12.9 1.4-17.2 4.7-4.5 3.5-4.1 8.2-3.9 12.8.1 1.6 0 3.4.4 4.9.2.9.3 1.6.3 2.4v1.4z"/><path class="st8" d="M912 290.7l1.6 4 1.5-12.1c.1-.5 0-1.1-.3-1.6l-1.2-2.3-3.8 6.2 2.2 5.8zM919.1 281.4c-.2.5-.2 1.1-.1 1.6l3.5 12.9.9-4.1 1.3-5.1.1-.4-4.8-7-.9 2.1z"/><path class="st7" d="M919 283c-.2-.6-.1-1.1.1-1.6l.9-2.1-3.2-4.6c-.2-.3-.6-.3-.7-.1l-2.5 4.1 1.2 2.3c.3.5.4 1.1.3 1.6l-1.5 12.1 2.8 7.1c1.6 0 3.2-.1 4.8-.3l1.3-5.7L919 283z"/><path class="st12" d="M947.9 273.6c-2.8-.4-9.4-1.7-14.2-2.9.6.7 1.1 1.5 1.5 2.3 1.2 2.4 2 4.2 2.4 5.3l-6.6 3c2 1 4 2.1 6 3.1-2.8 3.9-6.1 9.1-9.1 15.7 11.6-3.2 21.5-10.6 27.8-20.6-.2-.4-.5-.7-.7-1-2.3-2.9-3.3-4.4-7.1-4.9z"/><path class="st5" d="M908.2 280.9l1.6 4 3.8-6.2 2.5-4.1c.2-.3.5-.2.7.1l3.2 4.6 4.8 7 3.5-19.2-1.3-3.5-.3.3-10.1 9.9c-.2.2-.4.1-.6 0l-11.7-11.6-.1-.1-1.8 3.3c.3-.3.5-.4.6-.4l5.2 15.9z"/><path class="st5" d="M937.1 284.5c-2-1-4-2.1-6-3.1l6.6-3c-.4-1.1-1.3-2.9-2.4-5.3-.4-.8-.9-1.6-1.5-2.3-2-2.4-4.6-4.2-5.3-4.4l-.1.8-3.5 19.2-.1.4-1.3 5.1-.9 4.1-1.3 5.7c2.3-.3 4.6-.7 6.8-1.3 2.9-6.8 6.2-12 9-15.9z"/><path class="st12" d="M903 279l-9.6-3.8c.1-.4 1.6-2.3 3.5-4.3-5.2 1.5-10.5 3.7-15.7 4.5-2.6.4-4.6 1.9-6.1 4.1 7.1 11.4 19 19.6 32.8 21.8-3.9-6.2-8.1-10.7-12.2-15.7l7.3-6.6z"/><path class="st5" d="M912 290.7l-2.2-5.7-1.6-4-5.2-16.1c-.1 0-.3.2-.6.4-1.1 1-3.5 3.4-5.5 5.6-1.8 2-3.4 3.8-3.5 4.3l9.6 3.8-7.3 6.6c4.1 5 8.3 9.6 12.2 15.7 2.5.4 5 .6 7.6.6h.9l-2.8-7.1-1.6-4.1z"/><path class="st11" d="M921.3 239.4c1.6-.7 3.6-.7 5.2 0M907.3 239.4c1.6-.7 3.6-.7 5.2 0"/><circle class="st4" cx="923.6" cy="242.5" r="1.4"/><circle class="st4" cx="910.6" cy="242.5" r="1.4"/><path class="st11" d="M911.9 255.7s4.4 4.2 8.9.4M918.3 241.3c-.3 1.5-.3 3.1-.1 4.7.1 1.2.4 2.3.6 3.5.1.6.2 1.2 0 1.8-.2.5-.7.9-1 .7"/></g><g><path class="st5" d="M520.6 145.8c5.2-.8 10.6-3.1 15.7-4.5 2-2.2 4.4-4.6 5.5-5.6l1.8-3.3.1.1.2-3.2v-.2c-.5-.4-.9-.8-1.2-1.3-.5-.7-.9-1.6-1.1-2.5-.3-1.3 0-3.4-1.1-4.5-.9-1-1.9-1.4-2.5-2.8-1.1-2.3-1.3-5.1-1.1-7.6.1-.7.5-1.9 1.5-1.1.2.1.2.3.3.5 0-.8-.1-1.5-.3-2.4-.4-1.5-.3-3.3-.4-4.9-.3-4.6-.7-9.4 3.9-12.8 4.3-3.3 11.6-6.2 17.2-4.7 1 .3 2.5.4 3.4 1.2-.2-.2 1.4-.2 1.6-.2 2.4-.2 6.8 2.3 9.6 6.3 2.7 3.7 2.2 7.8 1.5 12.1-.2 1.2-.1 2.5-.9 5.3-.1.5-.6 1.7-1 2.8.4-.2.2-1 .7-1.3 1-.6 1.4.6 1.4 1.3 0 2.5-.5 5.2-1.8 7.4-.8 1.3-1.7 1.6-2.7 2.5-1.1 1-1 3.1-1.5 4.4-.3.9-.8 1.7-1.4 2.4-.4.5-1 .9-1.6 1.3l-.2 3.8.3-.3 1.3 3.5.1-.8c.7.3 3.3 2 5.3 4.4 4.8 1.2 11.4 2.5 14.2 2.9 3.8.5 4.8 2 7.2 5 .3.3.5.7.7 1 4.6-7.4 7.3-16 7.3-25.4 0-26.3-21.3-47.7-47.7-47.7-26.3 0-47.7 21.3-47.7 47.7 0 9.3 2.7 18 7.3 25.3 1.5-2.1 3.5-3.6 6.1-4.1z"/><path class="st5" d="M556.1 144.2l10.1-9.9.2-3.8c-1.1.7-2.3 1.2-3.2 2.1-1.3 1.2-2.6 2.5-4.4 3.2-.9.4-2.2.4-3.4.3h-.5c-1.4 0-2.8-.1-3.8-.6-1.7-.9-2.8-2.3-4-3.6-.9-1-2.1-1.7-3.2-2.6v.2l-.2 3.2 11.7 11.6c.3.1.5.1.7-.1z"/><path class="st5" d="M547.1 131.8c1.2 1.4 2.3 2.7 4 3.6 1 .6 2.5.6 3.8.6h.5c1.2.1 2.4.1 3.4-.3 1.8-.7 3-2 4.4-3.2.9-.8 2.1-1.4 3.2-2.1.6-.4 1.1-.8 1.6-1.3.6-.7 1-1.5 1.4-2.4.5-1.3.4-3.4 1.5-4.4 1-.9 2-1.2 2.7-2.5 1.3-2.2 1.8-4.9 1.8-7.4 0-.7-.3-1.9-1.4-1.3-.5.3-.3 1-.7 1.3-.1.4-.3.7-.4 1.1l-1.4-.1c0-1.1.4-2.8.4-3.1.2-2.2.4-4.5 0-6.7-.5-2.8-4.6-4.4-6.9-5.8-.4-.2-.9-.8-1.4-1-.7-.2-.3-.1-1 .2-2.5 1.3-4 2.6-7.1 2.5-2.5-.1-5-.7-7.5-.7-3.4.1-6.6 2.3-7.2 5.6-.2 1.3-.1 2.6-.2 3.9-.1 1-.2 1.7-.2 2.7v.9l-1.8-.1c0-.3 0-.6.1-.7 0-.4.1-.8.1-1.2 0-.2-.1-.4-.3-.5-.9-.7-1.4.4-1.5 1.1-.3 2.5 0 5.2 1.1 7.6.6 1.3 1.6 1.8 2.5 2.8 1 1.1.7 3.2 1.1 4.5.2.9.6 1.7 1.1 2.5.3.5.8.9 1.2 1.3 1 .9 2.2 1.6 3.1 2.6z"/><path class="st4" d="M538.7 111.1c0 .2 0 .4-.1.7l1.8.1v-.9c0-1 .1-1.7.2-2.7.1-1.3 0-2.6.2-3.9.5-3.3 3.7-5.5 7.2-5.6 2.5-.1 5 .6 7.5.7 3.1.2 4.6-1.2 7.1-2.5.7-.3.3-.4 1-.2.4.1 1 .7 1.4 1 2.3 1.4 6.4 3 6.9 5.8.4 2.2.2 4.5 0 6.7 0 .3-.4 2-.4 3.1l1.4.1c.1-.3.3-.7.4-1.1.4-1.1.8-2.3 1-2.8.7-2.8.7-4.1.9-5.3.7-4.3 1.2-8.4-1.5-12.1-2.8-4-7.2-6.5-9.6-6.3-.1 0-1.8.1-1.6.2-.8-.8-2.3-.9-3.4-1.2-5.6-1.5-12.9 1.4-17.2 4.7-4.5 3.5-4.1 8.2-3.9 12.8.1 1.6 0 3.4.4 4.9.2.9.3 1.6.3 2.4.1.6 0 1 0 1.4z"/><path class="st8" d="M551.5 161.1l1.6 4 1.5-12.1c.1-.5 0-1.1-.3-1.6l-1.2-2.3-3.8 6.2 2.2 5.8zM558.5 151.9c-.2.5-.2 1.1-.1 1.6l3.5 12.9.9-4.1 1.3-5.1.1-.4-4.8-7-.9 2.1z"/><path class="st7" d="M558.4 153.5c-.2-.6-.1-1.1.1-1.6l.9-2.1-3.2-4.6c-.2-.3-.6-.3-.7-.1l-2.5 4.1 1.2 2.3c.3.5.4 1.1.3 1.6l-1.5 12.1 2.8 7.1c1.6 0 3.2-.1 4.8-.3l1.3-5.7-3.5-12.8z"/><path class="st10" d="M587.3 144c-2.8-.4-9.4-1.7-14.2-2.9.6.7 1.1 1.5 1.5 2.3 1.2 2.4 2 4.2 2.4 5.3l-6.6 3c2 1 4 2.1 6 3.1-2.8 3.9-6.1 9.1-9.1 15.7 11.6-3.2 21.5-10.6 27.8-20.6-.2-.4-.5-.7-.7-1-2.3-2.8-3.3-4.3-7.1-4.9z"/><path class="st5" d="M547.7 151.4l1.6 4 3.8-6.2 2.5-4.1c.2-.3.5-.2.7.1l3.2 4.6 4.8 7 3.5-19.2-1.3-3.5-.3.3-10.1 9.9c-.2.2-.4.1-.6 0l-11.7-11.6-.1-.1-1.8 3.3c.3-.3.5-.4.6-.4l5.2 15.9z"/><path class="st5" d="M576.5 155c-2-1-4-2.1-6-3.1l6.6-3c-.4-1.1-1.3-2.9-2.4-5.3-.4-.8-.9-1.6-1.5-2.3-2-2.4-4.6-4.2-5.3-4.4l-.1.8-3.5 19.2-.1.4-1.3 5.1-.9 4.1-1.3 5.7c2.3-.3 4.6-.7 6.8-1.3 2.9-6.8 6.2-12.1 9-15.9z"/><path class="st10" d="M542.4 149.4l-9.6-3.8c.1-.4 1.6-2.3 3.5-4.3-5.2 1.5-10.5 3.7-15.7 4.5-2.6.4-4.6 1.9-6.1 4.1 7.1 11.4 19 19.6 32.8 21.8-3.9-6.2-8.1-10.7-12.2-15.7l7.3-6.6z"/><path class="st5" d="M551.5 161.1l-2.2-5.7-1.6-4-5.2-16.1c-.1 0-.3.2-.6.4-1.1 1-3.5 3.4-5.5 5.6-1.8 2-3.4 3.8-3.5 4.3l9.6 3.8-7.3 6.6c4.1 5 8.3 9.6 12.2 15.7 2.5.4 5 .6 7.6.6h.9l-2.8-7.1-1.6-4.1z"/><path class="st11" d="M560.7 109.8c1.6-.7 3.6-.7 5.2 0M546.7 109.8c1.6-.7 3.6-.7 5.2 0"/><circle class="st4" cx="563.1" cy="113" r="1.4"/><circle class="st4" cx="550.1" cy="113" r="1.4"/><path class="st11" d="M551.3 126.2s4.4 4.2 8.9.4M557.7 111.7c-.3 1.5-.3 3.1-.1 4.7.1 1.2.4 2.3.6 3.5.1.6.2 1.2 0 1.8-.2.5-.7.9-1 .7"/></g><g><path class="st5" d="M1065.2 379.4c5.2-.8 10.6-3.1 15.7-4.5 2-2.2 4.4-4.6 5.5-5.6l1.8-3.3.1.1.2-3.2v-.2c-.5-.4-.9-.8-1.2-1.3-.5-.7-.9-1.6-1.1-2.5-.3-1.3 0-3.4-1.1-4.5-.9-1-1.9-1.4-2.5-2.8-1.1-2.3-1.3-5.1-1.1-7.6.1-.7.5-1.9 1.5-1.1.2.1.2.3.3.5 0-.8-.1-1.5-.3-2.4-.4-1.5-.3-3.3-.4-4.9-.3-4.6-.7-9.4 3.9-12.8 4.3-3.3 11.6-6.2 17.2-4.7 1 .3 2.5.4 3.4 1.2-.2-.2 1.4-.2 1.6-.2 2.4-.2 6.8 2.3 9.6 6.3 2.7 3.7 2.2 7.8 1.5 12.1-.2 1.2-.1 2.5-.9 5.3-.1.5-.6 1.7-1 2.8.4-.2.2-1 .7-1.3 1-.6 1.4.6 1.4 1.3 0 2.5-.5 5.2-1.8 7.4-.8 1.3-1.7 1.6-2.7 2.5-1.1 1-1 3.1-1.5 4.4-.3.9-.8 1.7-1.4 2.4-.4.5-1 .9-1.6 1.3l-.2 3.8.3-.3 1.3 3.5.1-.8c.7.3 3.3 2 5.3 4.4 4.8 1.2 11.4 2.5 14.2 2.9 3.8.5 4.8 2 7.2 5 .3.3.5.7.7 1 4.6-7.4 7.3-16 7.3-25.4 0-26.3-21.3-47.7-47.7-47.7-26.3 0-47.7 21.3-47.7 47.7 0 9.3 2.7 18 7.3 25.3 1.5-2.2 3.4-3.7 6.1-4.1z"/><path class="st5" d="M1100.7 377.8l10.1-9.9.2-3.8c-1.1.7-2.3 1.2-3.2 2.1-1.3 1.2-2.6 2.5-4.4 3.2-.9.4-2.2.4-3.4.3h-.5c-1.4 0-2.8-.1-3.8-.6-1.7-.9-2.8-2.3-4-3.6-.9-1-2.1-1.7-3.2-2.6v.2l-.2 3.2 11.7 11.6c.2 0 .5 0 .7-.1z"/><path class="st5" d="M1091.7 365.3c1.2 1.4 2.3 2.7 4 3.6 1 .6 2.5.6 3.8.6h.5c1.2.1 2.4.1 3.4-.3 1.8-.7 3-2 4.4-3.2.9-.8 2.1-1.4 3.2-2.1.6-.4 1.1-.8 1.6-1.3.6-.7 1-1.5 1.4-2.4.5-1.3.4-3.4 1.5-4.4 1-.9 2-1.2 2.7-2.5 1.3-2.2 1.8-4.9 1.8-7.4 0-.7-.3-1.9-1.4-1.3-.5.3-.3 1-.7 1.3-.1.4-.3.7-.4 1.1l-1.4-.1c0-1.1.4-2.8.4-3.1.2-2.2.4-4.5 0-6.7-.5-2.8-4.6-4.4-6.9-5.8-.4-.2-.9-.8-1.4-1-.7-.2-.3-.1-1 .2-2.5 1.3-4 2.6-7.1 2.5-2.5-.1-5-.7-7.5-.7-3.4.1-6.6 2.3-7.2 5.6-.2 1.3-.1 2.6-.2 3.9-.1 1-.2 1.7-.2 2.7v.9l-1.8-.1c0-.3 0-.6.1-.7 0-.4.1-.8.1-1.2 0-.2-.1-.4-.3-.5-.9-.7-1.4.4-1.5 1.1-.3 2.5 0 5.2 1.1 7.6.6 1.3 1.6 1.8 2.5 2.8 1 1.1.7 3.2 1.1 4.5.2.9.6 1.7 1.1 2.5.3.5.8.9 1.2 1.3 1 .9 2.2 1.6 3.1 2.6z"/><path class="st4" d="M1083.3 344.7c0 .2 0 .4-.1.7l1.8.1v-.9c0-1 .1-1.7.2-2.7.1-1.3 0-2.6.2-3.9.5-3.3 3.7-5.5 7.2-5.6 2.5-.1 5 .6 7.5.7 3.1.2 4.6-1.2 7.1-2.5.7-.3.3-.4 1-.2.4.1 1 .7 1.4 1 2.3 1.4 6.4 3 6.9 5.8.4 2.2.2 4.5 0 6.7 0 .3-.4 2-.4 3.1l1.4.1c.1-.3.3-.7.4-1.1.4-1.1.8-2.3 1-2.8.7-2.8.7-4.1.9-5.3.7-4.3 1.2-8.4-1.5-12.1-2.8-4-7.2-6.5-9.6-6.3-.1 0-1.8.1-1.6.2-.8-.8-2.3-.9-3.4-1.2-5.6-1.5-12.9 1.4-17.2 4.7-4.5 3.5-4.1 8.2-3.9 12.8.1 1.6 0 3.4.4 4.9.2.9.3 1.6.3 2.4v1.4z"/><path class="st8" d="M1096 394.7l1.6 4 1.5-12.1c.1-.5 0-1.1-.3-1.6l-1.2-2.3-3.8 6.2 2.2 5.8zM1103.1 385.4c-.2.5-.2 1.1-.1 1.6l3.5 12.9.9-4.1 1.3-5.1.1-.4-4.8-7-.9 2.1z"/><path class="st7" d="M1103 387c-.2-.6-.1-1.1.1-1.6l.9-2.1-3.2-4.6c-.2-.3-.6-.3-.7-.1l-2.5 4.1 1.2 2.3c.3.5.4 1.1.3 1.6l-1.5 12.1 2.8 7.1c1.6 0 3.2-.1 4.8-.3l1.3-5.7-3.5-12.8z"/><path class="st10" d="M1131.9 377.6c-2.8-.4-9.4-1.7-14.2-2.9.6.7 1.1 1.5 1.5 2.3 1.2 2.4 2 4.2 2.4 5.3l-6.6 3c2 1 4 2.1 6 3.1-2.8 3.9-6.1 9.1-9.1 15.7 11.6-3.2 21.5-10.6 27.8-20.6-.2-.4-.5-.7-.7-1-2.3-2.9-3.3-4.4-7.1-4.9z"/><path class="st5" d="M1092.2 384.9l1.6 4 3.8-6.2 2.5-4.1c.2-.3.5-.2.7.1l3.2 4.6 4.8 7 3.5-19.2-1.3-3.5-.3.3-10.1 9.9c-.2.2-.4.1-.6 0l-11.7-11.6-.1-.1-1.8 3.3c.3-.3.5-.4.6-.4l5.2 15.9z"/><path class="st5" d="M1121.1 388.5c-2-1-4-2.1-6-3.1l6.6-3c-.4-1.1-1.3-2.9-2.4-5.3-.4-.8-.9-1.6-1.5-2.3-2-2.4-4.6-4.2-5.3-4.4l-.1.8-3.5 19.2-.1.4-1.3 5.1-.9 4.1-1.3 5.7c2.3-.3 4.6-.7 6.8-1.3 2.9-6.8 6.2-12 9-15.9z"/><path class="st10" d="M1087 383l-9.6-3.8c.1-.4 1.6-2.3 3.5-4.3-5.2 1.5-10.5 3.7-15.7 4.5-2.6.4-4.6 1.9-6.1 4.1 7.1 11.4 19 19.6 32.8 21.8-3.9-6.2-8.1-10.7-12.2-15.7l7.3-6.6z"/><path class="st5" d="M1096 394.7l-2.2-5.7-1.6-4-5.2-16.1c-.1 0-.3.2-.6.4-1.1 1-3.5 3.4-5.5 5.6-1.8 2-3.4 3.8-3.5 4.3l9.6 3.8-7.3 6.6c4.1 5 8.3 9.6 12.2 15.7 2.5.4 5 .6 7.6.6h.9l-2.8-7.1-1.6-4.1z"/><path class="st11" d="M1105.3 343.4c1.6-.7 3.6-.7 5.2 0M1091.3 343.4c1.6-.7 3.6-.7 5.2 0"/><circle class="st4" cx="1107.6" cy="346.5" r="1.4"/><circle class="st4" cx="1094.6" cy="346.5" r="1.4"/><path class="st11" d="M1095.9 359.7s4.4 4.2 8.9.4M1102.3 345.3c-.3 1.5-.3 3.1-.1 4.7.1 1.2.4 2.3.6 3.5.1.6.2 1.2 0 1.8-.2.5-.7.9-1 .7"/></g><g><path class="st5" d="M1234.9 517.2c2.2-.4 4.5-1.3 6.7-1.9.9-.9 1.9-2 2.3-2.4l.8-1.4.1.1.1-1.3v-.1c-.2-.2-.4-.3-.5-.5-.2-.3-.4-.7-.5-1.1-.1-.6 0-1.4-.5-1.9-.4-.4-.8-.6-1.1-1.2-.5-1-.6-2.2-.4-3.2 0-.3.2-.8.6-.5.1.1.1.1.1.2 0-.3 0-.7-.1-1-.2-.7-.1-1.4-.2-2.1-.1-1.9-.3-4 1.6-5.4 1.8-1.4 4.9-2.6 7.3-2 .4.1 1.1.2 1.4.5-.1-.1.6-.1.7-.1 1-.1 2.9 1 4.1 2.7 1.1 1.6.9 3.3.6 5.1-.1.5-.1 1-.4 2.2-.1.2-.2.7-.4 1.2.2-.1.1-.4.3-.5.4-.3.6.2.6.5 0 1.1-.2 2.2-.8 3.2-.3.5-.7.7-1.2 1.1-.5.4-.4 1.3-.6 1.9-.1.4-.3.7-.6 1-.2.2-.4.4-.7.6l-.1 1.6.1-.1.5 1.5.1-.3c.3.1 1.4.9 2.2 1.9 2 .5 4.8 1.1 6 1.2 1.6.2 2 .9 3 2.1.1.1.2.3.3.4 2-3.1 3.1-6.8 3.1-10.8 0-11.2-9-20.2-20.2-20.2s-20.2 9-20.2 20.2c0 3.9 1.1 7.6 3.1 10.7.9-1.1 1.7-1.7 2.8-1.9z"/><path class="st5" d="M1250 516.5l4.3-4.2.1-1.6c-.5.3-1 .5-1.3.9-.6.5-1.1 1-1.8 1.4-.4.2-.9.2-1.4.1h-.2c-.6 0-1.2 0-1.6-.3-.7-.4-1.2-1-1.7-1.5-.4-.4-.9-.7-1.4-1.1v.1l-.1 1.3 5 4.9c-.1.1 0 .1.1 0z"/><path class="st5" d="M1246.2 511.2c.5.6 1 1.1 1.7 1.5.4.2 1.1.3 1.6.3h.2c.5 0 1 0 1.4-.1.8-.3 1.3-.8 1.8-1.4.4-.4.9-.6 1.3-.9.3-.2.5-.3.7-.6.2-.3.4-.6.6-1 .2-.5.2-1.4.6-1.9.4-.4.8-.5 1.2-1.1.6-.9.8-2.1.8-3.2 0-.3-.1-.8-.6-.5-.2.1-.1.4-.3.5-.1.2-.1.3-.2.4h-.6c0-.5.2-1.2.2-1.3.1-.9.2-1.9 0-2.8-.2-1.2-2-1.9-2.9-2.5-.2-.1-.4-.4-.6-.4-.3-.1-.1-.1-.4.1-1.1.6-1.7 1.1-3 1-1.1-.1-2.1-.3-3.2-.3-1.5 0-2.8 1-3 2.4-.1.5 0 1.1-.1 1.6 0 .4-.1.7-.1 1.1v.4h-.8v-.3-.5c0-.1 0-.2-.1-.2-.4-.3-.6.2-.6.5-.1 1.1 0 2.2.4 3.2.3.6.7.8 1.1 1.2.4.5.3 1.3.5 1.9.1.4.3.7.5 1.1.1.2.3.4.5.5.5.6 1 .9 1.4 1.3z"/><path class="st4" d="M1242.6 502.5v.3h.8v-.4c0-.4 0-.7.1-1.1.1-.5 0-1.1.1-1.6.2-1.4 1.6-2.3 3-2.4 1.1 0 2.1.2 3.2.3 1.3.1 1.9-.5 3-1 .3-.1.1-.2.4-.1.2.1.4.3.6.4 1 .6 2.7 1.3 2.9 2.5.2.9.1 1.9 0 2.8 0 .1-.2.9-.2 1.3h.6c.1-.1.1-.3.2-.4.2-.5.4-1 .4-1.2.3-1.2.3-1.7.4-2.2.3-1.8.5-3.5-.6-5.1-1.2-1.7-3.1-2.8-4.1-2.7-.1 0-.8 0-.7.1-.3-.3-1-.4-1.4-.5-2.4-.7-5.5.6-7.3 2-1.9 1.5-1.7 3.5-1.6 5.4 0 .7 0 1.4.2 2.1.1.4.1.7.1 1-.1.2-.1.3-.1.5z"/><path class="st8" d="M1248 523.7l.7 1.7.6-5.1c0-.2 0-.5-.1-.7l-.5-1-1.6 2.6.9 2.5zM1251 519.8c-.1.2-.1.4 0 .7l1.5 5.5.4-1.7.6-2.2v-.2l-2-3-.5.9z"/><path class="st7" d="M1251 520.4c-.1-.2-.1-.5 0-.7l.4-.9-1.4-2c-.1-.1-.2-.1-.3 0l-1.1 1.8.5 1c.1.2.2.5.1.7l-.6 5.1 1.2 3c.7 0 1.4-.1 2-.1l.5-2.4-1.3-5.5z"/><path class="st10" d="M1263.2 516.4c-1.2-.2-4-.7-6-1.2.2.3.5.6.6 1 .5 1 .9 1.8 1 2.3l-2.8 1.3c.8.4 1.7.9 2.5 1.3-1.2 1.6-2.6 3.9-3.8 6.7 4.9-1.3 9.1-4.5 11.8-8.7-.1-.2-.2-.3-.3-.4-.9-1.4-1.4-2-3-2.3z"/><path class="st5" d="M1246.4 519.6l.7 1.7 1.6-2.6 1.1-1.8c.1-.1.2-.1.3 0l1.4 2 2 3 1.5-8.2-.5-1.5-.1.1-4.3 4.2c-.1.1-.2.1-.2 0l-5-4.9-.1-.1-.8 1.4c.1-.1.2-.2.3-.2l2.1 6.9z"/><path class="st5" d="M1258.6 521.1c-.8-.4-1.7-.9-2.5-1.3l2.8-1.3c-.2-.5-.5-1.2-1-2.3-.2-.4-.4-.7-.6-1-.8-1-1.9-1.8-2.2-1.9l-.1.3-1.5 8.2v.2l-.6 2.2-.4 1.7-.5 2.4c1-.1 2-.3 2.9-.6 1.2-2.7 2.6-5 3.7-6.6z"/><path class="st10" d="M1244.2 518.7l-4-1.6c0-.2.7-1 1.5-1.8-2.2.6-4.5 1.6-6.7 1.9-1.1.2-1.9.8-2.6 1.8 3 4.8 8 8.3 13.9 9.2-1.7-2.6-3.4-4.5-5.2-6.7l3.1-2.8z"/><path class="st5" d="M1248 523.7l-.9-2.4-.7-1.7-2.2-6.8s-.1.1-.3.2c-.5.4-1.5 1.4-2.3 2.4-.8.8-1.4 1.6-1.5 1.8l4 1.6-3.1 2.8c1.7 2.1 3.5 4.1 5.2 6.7 1 .2 2.1.3 3.2.3h.4l-1.2-3-.6-1.9z"/><path class="st11" d="M1252 501.9c.7-.3 1.5-.3 2.2 0M1246 501.9c.7-.3 1.5-.3 2.2 0"/><circle class="st4" cx="1252.9" cy="503.3" r=".6"/><circle class="st4" cx="1247.4" cy="503.3" r=".6"/><path class="st11" d="M1247.9 508.9s1.9 1.8 3.8.2M1250.7 502.8c-.1.6-.1 1.3 0 2l.3 1.5c0 .2.1.5 0 .7-.1.2-.3.4-.4.3"/></g><g><path class="st5" d="M880.9 479.6c2.2-.4 4.5-1.3 6.7-1.9.9-.9 1.9-2 2.3-2.4l.8-1.4.1.1.1-1.3v-.1c-.2-.2-.4-.3-.5-.5-.2-.3-.4-.7-.5-1.1-.1-.6 0-1.4-.5-1.9-.4-.4-.8-.6-1.1-1.2-.5-1-.6-2.2-.4-3.2 0-.3.2-.8.6-.5.1.1.1.1.1.2 0-.3 0-.7-.1-1-.2-.7-.1-1.4-.2-2.1-.1-1.9-.3-4 1.6-5.4 1.8-1.4 4.9-2.6 7.3-2 .4.1 1.1.2 1.4.5-.1-.1.6-.1.7-.1 1-.1 2.9 1 4.1 2.7 1.1 1.6.9 3.3.6 5.1-.1.5-.1 1-.4 2.2-.1.2-.2.7-.4 1.2.2-.1.1-.4.3-.5.4-.3.6.2.6.5 0 1.1-.2 2.2-.8 3.2-.3.5-.7.7-1.2 1.1-.5.4-.4 1.3-.6 1.9-.1.4-.3.7-.6 1-.2.2-.4.4-.7.6l-.1 1.6.1-.1.5 1.5.1-.3c.3.1 1.4.9 2.2 1.9 2 .5 4.8 1.1 6 1.2 1.6.2 2 .9 3 2.1.1.1.2.3.3.4 2-3.1 3.1-6.8 3.1-10.8 0-11.2-9-20.2-20.2-20.2s-20.2 9-20.2 20.2c0 3.9 1.1 7.6 3.1 10.7.8-1.1 1.6-1.7 2.8-1.9z"/><path class="st5" d="M895.9 478.9l4.3-4.2.1-1.6c-.5.3-1 .5-1.3.9-.6.5-1.1 1-1.8 1.4-.4.2-.9.2-1.4.1h-.2c-.6 0-1.2 0-1.6-.3-.7-.4-1.2-1-1.7-1.5-.4-.4-.9-.7-1.4-1.1v.1l-.1 1.3 5 4.9c-.1.1 0 .1.1 0z"/><path class="st5" d="M892.1 473.6c.5.6 1 1.1 1.7 1.5.4.2 1.1.3 1.6.3h.2c.5 0 1 0 1.4-.1.8-.3 1.3-.8 1.8-1.4.4-.4.9-.6 1.3-.9.3-.2.5-.3.7-.6.3-.3.4-.6.6-1 .2-.5.2-1.4.6-1.9.4-.4.8-.5 1.2-1.1.6-.9.8-2.1.8-3.2 0-.3-.1-.8-.6-.5-.2.1-.1.4-.3.5-.1.2-.1.3-.2.4h-.6c0-.5.2-1.2.2-1.3.1-.9.2-1.9 0-2.8-.2-1.2-2-1.9-2.9-2.5-.2-.1-.4-.4-.6-.4-.3-.1-.1-.1-.4.1-1.1.6-1.7 1.1-3 1-1.1-.1-2.1-.3-3.2-.3-1.5 0-2.8 1-3 2.4-.1.5 0 1.1-.1 1.6 0 .4-.1.7-.1 1.1v.4h-.8v-.3-.5c0-.1 0-.2-.1-.2-.4-.3-.6.2-.6.5-.1 1.1 0 2.2.4 3.2.3.6.7.8 1.1 1.2.4.5.3 1.3.5 1.9.1.4.3.7.5 1.1.1.2.3.4.5.5.5.6 1 .9 1.4 1.3z"/><path class="st4" d="M888.5 464.9v.3h.8v-.4c0-.4 0-.7.1-1.1.1-.5 0-1.1.1-1.6.2-1.4 1.6-2.3 3-2.4 1.1 0 2.1.2 3.2.3 1.3.1 1.9-.5 3-1 .3-.1.1-.2.4-.1.2.1.4.3.6.4 1 .6 2.7 1.3 2.9 2.5.2.9.1 1.9 0 2.8 0 .1-.2.9-.2 1.3h.6c.1-.1.1-.3.2-.4.2-.5.4-1 .4-1.2.3-1.2.3-1.7.4-2.2.3-1.8.5-3.5-.6-5.1-1.2-1.7-3.1-2.8-4.1-2.7-.1 0-.8 0-.7.1-.3-.3-1-.4-1.4-.5-2.4-.7-5.5.6-7.3 2-1.9 1.5-1.7 3.5-1.6 5.4 0 .7 0 1.4.2 2.1.1.4.1.7.1 1 0 .2-.1.3-.1.5z"/><path class="st8" d="M893.9 486.1l.7 1.7.6-5.1c0-.2 0-.5-.1-.7l-.5-1-1.6 2.6.9 2.5zM896.9 482.2c-.1.2-.1.4 0 .7l1.5 5.5.4-1.7.6-2.2v-.2l-2-3-.5.9z"/><path class="st7" d="M896.9 482.8c-.1-.2-.1-.5 0-.7l.4-.9-1.4-2c-.1-.1-.2-.1-.3 0l-1.1 1.8.5 1c.1.2.2.5.1.7l-.6 5.1 1.2 3c.7 0 1.4-.1 2-.1l.5-2.4-1.3-5.5z"/><path class="st10" d="M909.2 478.8c-1.2-.2-4-.7-6-1.2.2.3.5.6.6 1 .5 1 .9 1.8 1 2.3l-2.8 1.3c.8.4 1.7.9 2.5 1.3-1.2 1.6-2.6 3.9-3.8 6.7 4.9-1.3 9.1-4.5 11.8-8.7-.1-.2-.2-.3-.3-.4-1-1.4-1.4-2-3-2.3z"/><path class="st5" d="M892.3 482l.7 1.7 1.6-2.6 1.1-1.8c.1-.1.2-.1.3 0l1.4 2 2 3 1.5-8.2-.5-1.5-.1.1-4.3 4.2c-.1.1-.2.1-.2 0l-5-4.9-.1-.1-.8 1.4c.1-.1.2-.2.3-.2l2.1 6.9z"/><path class="st5" d="M904.6 483.5c-.8-.4-1.7-.9-2.5-1.3l2.8-1.3c-.2-.5-.5-1.2-1-2.3-.2-.4-.4-.7-.6-1-.8-1-1.9-1.8-2.2-1.9l-.1.3-1.5 8.2v.2l-.6 2.2-.4 1.7-.5 2.4c1-.1 2-.3 2.9-.6 1.1-2.8 2.5-5 3.7-6.6z"/><path class="st10" d="M890.1 481.1l-4-1.6c0-.2.7-1 1.5-1.8-2.2.6-4.5 1.6-6.7 1.9-1.1.2-1.9.8-2.6 1.8 3 4.8 8 8.3 13.9 9.2-1.7-2.6-3.4-4.5-5.2-6.7l3.1-2.8z"/><path class="st5" d="M893.9 486.1l-.9-2.4-.7-1.7-2.2-6.8s-.1.1-.3.2c-.5.4-1.5 1.4-2.3 2.4-.8.8-1.4 1.6-1.5 1.8l4 1.6-3.1 2.8c1.7 2.1 3.5 4.1 5.2 6.7 1 .2 2.1.3 3.2.3h.4l-1.2-3-.6-1.9z"/><path class="st11" d="M897.9 464.3c.7-.3 1.5-.3 2.2 0M891.9 464.3c.7-.3 1.5-.3 2.2 0"/><circle class="st4" cx="898.9" cy="465.7" r=".6"/><circle class="st4" cx="893.3" cy="465.7" r=".6"/><path class="st11" d="M893.9 471.3s1.9 1.8 3.8.2M896.6 465.2c-.1.6-.1 1.3 0 2l.3 1.5c0 .2.1.5 0 .7s-.3.4-.4.3"/></g><g><path class="st5" d="M428.6 555.8c2.2-.4 4.5-1.3 6.7-1.9.9-.9 1.9-2 2.3-2.4l.8-1.4.1.1.1-1.3v-.1c-.2-.2-.4-.3-.5-.5-.2-.3-.4-.7-.5-1.1-.1-.6 0-1.4-.5-1.9-.4-.4-.8-.6-1.1-1.2-.5-1-.6-2.2-.4-3.2 0-.3.2-.8.6-.5.1.1.1.1.1.2v-.5c-.1-.7-.2-1.7-.2-2.4-.1-2-.3-4.1 1.6-5.6 1.8-1.4 4.9-2.6 7.3-2 .4.1 1.1.2 1.4.5-.1-.1.6-.1.7-.1 1-.1 2.9 1 4.1 2.7 1.1 1.6.9 3.3.6 5.1-.1.5-.1 1-.4 2.2-.1.2-.2.7-.4 1.2.2-.1.1-.4.3-.5.4-.3.6.2.6.5 0 1.1-.2 2.2-.8 3.2-.3.5-.7.7-1.2 1.1-.5.4-.4 1.3-.6 1.9-.1.4-.3.7-.6 1-.2.2-.4.4-.7.6l-.1 1.6.1-.1.5 1.5.1-.3c.3.1 1.4.9 2.2 1.9 2 .5 4.8 1.1 6 1.2 1.6.2 2 .9 3 2.1.1.1.2.3.3.4 2-3.1 3.1-6.9 3.1-10.8 0-10.6-8.5-19.5-19.1-20.1-11.7-.6-21.3 8.7-21.3 20.2 0 3.9 1.1 7.6 3.1 10.7.7-1.1 1.6-1.8 2.7-2z"/><path class="st5" d="M443.6 555.1l4.3-4.2.1-1.6c-.5.3-1 .5-1.3.9-.6.5-1.1 1-1.8 1.4-.4.2-.9.2-1.4.1h-.2c-.6 0-1.2 0-1.6-.3-.7-.4-1.2-1-1.7-1.5-.4-.4-.9-.7-1.4-1.1v.1l-.1 1.3 5 4.9c0 .1.1.1.1 0z"/><path class="st5" d="M439.8 549.9c.5.6 1 1.1 1.7 1.5.4.2 1.1.3 1.6.3h.2c.5 0 1 0 1.4-.1.8-.3 1.3-.8 1.8-1.4.4-.4.9-.6 1.3-.9.3-.2.5-.3.7-.6.3-.3.4-.6.6-1 .2-.5.2-1.4.6-1.9.4-.4.8-.5 1.2-1.1.6-.9.8-2.1.8-3.2 0-.3-.1-.8-.6-.5-.2.1-.1.4-.3.5-.1.2-.1.3-.2.4h-.6c0-.5.2-1.2.2-1.3.1-.9.2-1.9 0-2.8-.2-1.2-2-1.9-2.9-2.5-.2-.1-.4-.4-.6-.4-.3-.1-.1-.1-.4.1-1.1.6-1.7 1.1-3 1-1.1-.1-2.1-.3-3.2-.3-1.5 0-2.8 1-3 2.4-.1.5 0 1.1-.1 1.6 0 .4-.1.7-.1 1.1v.4h-.8v-.3-.5c0-.1 0-.2-.1-.2-.4-.3-.6.2-.6.5-.1 1.1 0 2.2.4 3.2.3.6.7.8 1.1 1.2.4.5.3 1.3.5 1.9.1.4.3.7.5 1.1.1.2.3.4.5.5.5.5 1.1.8 1.4 1.3z"/><path class="st4" d="M436.3 541.1v.3h.8v-.4c0-.4 0-.7.1-1.1.1-.5 0-1.1.1-1.6.2-1.4 1.6-2.3 3-2.4 1.1 0 2.1.2 3.2.3 1.3.1 1.9-.5 3-1 .3-.1.1-.2.4-.1.2.1.4.3.6.4 1 .6 2.7 1.3 2.9 2.5.2.9.1 1.9 0 2.8 0 .1-.2.9-.2 1.3h.6c.1-.1.1-.3.2-.4.2-.5.4-1 .4-1.2.3-1.2.3-1.7.4-2.2.3-1.8.5-3.5-.6-5.1-1.2-1.7-3.1-2.8-4.1-2.7-.1 0-.8 0-.7.1-.3-.3-1-.4-1.4-.5-2.4-.7-5.5.6-7.3 2-2 1.5-1.7 3.6-1.6 5.6 0 .7.2 1.7.2 2.4v1z"/><path class="st8" d="M441.7 562.3l.7 1.7.6-5.1c0-.2 0-.5-.1-.7l-.5-1-1.6 2.6.9 2.5zM444.7 558.4c-.1.2-.1.4 0 .7l1.5 5.5.4-1.7.6-2.2v-.2l-2-3-.5.9z"/><path class="st7" d="M444.6 559.1c-.1-.2-.1-.5 0-.7l.4-.9-1.4-2c-.1-.1-.2-.1-.3 0l-1.1 1.8.5 1c.1.2.2.5.1.7l-.6 5.1 1.2 3c.7 0 1.4-.1 2-.1l.5-2.4-1.3-5.5z"/><path class="st10" d="M456.9 555.1c-1.2-.2-4-.7-6-1.2.2.3.5.6.6 1 .5 1 .9 1.8 1 2.3l-2.8 1.3c.8.4 1.7.9 2.5 1.3-1.2 1.6-2.6 3.9-3.8 6.7 4.8-1.3 8.8-4.3 11.5-8.3v-.9c-1-1.4-1.4-2-3-2.2z"/><path class="st5" d="M440.1 558.2l.7 1.7 1.6-2.6 1.1-1.8c.1-.1.2-.1.3 0l1.4 2 2 3 1.5-8.2-.5-1.5-.1.1-4.3 4.2c-.1.1-.2.1-.2 0l-5-4.9-.1-.1-.8 1.4c.1-.1.2-.2.3-.2l2.1 6.9z"/><path class="st5" d="M452.3 559.7c-.8-.4-1.7-.9-2.5-1.3l2.8-1.3c-.2-.5-.5-1.2-1-2.3-.2-.4-.4-.7-.6-1-.8-1-1.9-1.8-2.2-1.9l-.1.3-1.5 8.2v.2l-.6 2.2-.4 1.7-.5 2.4c1-.1 2-.3 2.9-.6 1.1-2.7 2.5-5 3.7-6.6z"/><path class="st10" d="M437.9 557.4l-4-1.6c0-.2.7-1 1.5-1.8-2.2.6-4.5 1.6-6.7 1.9-1.1.2-1.9.8-2.6 1.8 3 4.8 8 8.3 13.9 9.2-1.7-2.6-3.4-4.5-5.2-6.7l3.1-2.8z"/><path class="st5" d="M441.7 562.3l-.9-2.4-.7-1.7-2.2-6.8s-.1.1-.3.2c-.5.4-1.5 1.4-2.3 2.4-.8.8-1.4 1.6-1.5 1.8l4 1.6-3.1 2.8c1.7 2.1 3.5 4.1 5.2 6.7 1.2.2 2.4.3 3.6.3l-1.2-3-.6-1.9z"/><path class="st11" d="M445.6 540.6c.7-.3 1.5-.3 2.2 0M439.7 540.6c.7-.3 1.5-.3 2.2 0"/><circle class="st4" cx="446.6" cy="541.9" r=".6"/><circle class="st4" cx="441.1" cy="541.9" r=".6"/><path class="st11" d="M441.6 547.5s1.9 1.8 3.8.2M444.3 541.4c-.1.6-.1 1.3 0 2l.3 1.5c0 .2.1.5 0 .7-.1.2-.3.4-.4.3"/></g><g><path class="st5" d="M299.6 512.8c2.2-.4 4.5-1.3 6.7-1.9.9-.9 1.9-2 2.3-2.4l.8-1.4.1.1.1-1.3v-.1c-.2-.2-.4-.3-.5-.5-.2-.3-.4-.7-.5-1.1-.1-.6 0-1.4-.5-1.9-.4-.4-.8-.6-1.1-1.2-.5-1-.6-2.2-.4-3.2 0-.3.2-.8.6-.5.1.1.1.1.1.2v-.5c-.1-.7-.2-1.7-.2-2.4-.1-2-.3-4.1 1.6-5.6 1.8-1.4 4.9-2.6 7.3-2 .4.1 1.1.2 1.4.5-.1-.1.6-.1.7-.1 1-.1 2.9 1 4.1 2.7 1.1 1.6.9 3.3.6 5.1-.1.5-.1 1-.4 2.2-.1.2-.2.7-.4 1.2.2-.1.1-.4.3-.5.4-.3.6.2.6.5 0 1.1-.2 2.2-.8 3.2-.3.5-.7.7-1.2 1.1-.5.4-.4 1.3-.6 1.9-.1.4-.3.7-.6 1-.2.2-.4.4-.7.6l-.1 1.6.1-.1.5 1.5.1-.3c.3.1 1.4.9 2.2 1.9 2 .5 4.8 1.1 6 1.2 1.6.2 2 .9 3 2.1.1.1.2.3.3.4 2-3.1 3.1-6.9 3.1-10.8 0-10.6-8.5-19.5-19.1-20.1-11.7-.6-21.3 8.7-21.3 20.2 0 3.9 1.1 7.6 3.1 10.7.7-1.1 1.6-1.8 2.7-2z"/><path class="st5" d="M314.6 512.1l4.3-4.2.1-1.6c-.5.3-1 .5-1.3.9-.6.5-1.1 1-1.8 1.4-.4.2-.9.2-1.4.1h-.2c-.6 0-1.2 0-1.6-.3-.7-.4-1.2-1-1.7-1.5-.4-.4-.9-.7-1.4-1.1v.1l-.1 1.3 5 4.9c0 .1.1.1.1 0z"/><path class="st5" d="M310.8 506.9c.5.6 1 1.1 1.7 1.5.4.2 1.1.3 1.6.3h.2c.5 0 1 0 1.4-.1.8-.3 1.3-.8 1.8-1.4.4-.4.9-.6 1.3-.9.3-.2.5-.3.7-.6.3-.3.4-.6.6-1 .2-.5.2-1.4.6-1.9.4-.4.8-.5 1.2-1.1.6-.9.8-2.1.8-3.2 0-.3-.1-.8-.6-.5-.2.1-.1.4-.3.5-.1.2-.1.3-.2.4h-.6c0-.5.2-1.2.2-1.3.1-.9.2-1.9 0-2.8-.2-1.2-2-1.9-2.9-2.5-.2-.1-.4-.4-.6-.4-.3-.1-.1-.1-.4.1-1.1.6-1.7 1.1-3 1-1.1-.1-2.1-.3-3.2-.3-1.5 0-2.8 1-3 2.4-.1.5 0 1.1-.1 1.6 0 .4-.1.7-.1 1.1v.4h-.8v-.3-.5c0-.1 0-.2-.1-.2-.4-.3-.6.2-.6.5-.1 1.1 0 2.2.4 3.2.3.6.7.8 1.1 1.2.4.5.3 1.3.5 1.9.1.4.3.7.5 1.1.1.2.3.4.5.5.5.5 1.1.8 1.4 1.3z"/><path class="st4" d="M307.3 498.1v.3h.8v-.4c0-.4 0-.7.1-1.1.1-.5 0-1.1.1-1.6.2-1.4 1.6-2.3 3-2.4 1.1 0 2.1.2 3.2.3 1.3.1 1.9-.5 3-1 .3-.1.1-.2.4-.1.2.1.4.3.6.4 1 .6 2.7 1.3 2.9 2.5.2.9.1 1.9 0 2.8 0 .1-.2.9-.2 1.3h.6c.1-.1.1-.3.2-.4.2-.5.4-1 .4-1.2.3-1.2.3-1.7.4-2.2.3-1.8.5-3.5-.6-5.1-1.2-1.7-3.1-2.8-4.1-2.7-.1 0-.8 0-.7.1-.3-.3-1-.4-1.4-.5-2.4-.7-5.5.6-7.3 2-2 1.5-1.7 3.6-1.6 5.6 0 .7.2 1.7.2 2.4v1z"/><path class="st8" d="M312.7 519.3l.7 1.7.6-5.1c0-.2 0-.5-.1-.7l-.5-1-1.6 2.6.9 2.5zM315.7 515.4c-.1.2-.1.4 0 .7l1.5 5.5.4-1.7.6-2.2v-.2l-2-3-.5.9z"/><path class="st7" d="M315.6 516.1c-.1-.2-.1-.5 0-.7l.4-.9-1.4-2c-.1-.1-.2-.1-.3 0l-1.1 1.8.5 1c.1.2.2.5.1.7l-.6 5.1 1.2 3c.7 0 1.4-.1 2-.1l.5-2.4-1.3-5.5z"/><path class="st10" d="M327.9 512.1c-1.2-.2-4-.7-6-1.2.2.3.5.6.6 1 .5 1 .9 1.8 1 2.3l-2.8 1.3c.8.4 1.7.9 2.5 1.3-1.2 1.6-2.6 3.9-3.8 6.7 4.8-1.3 8.8-4.3 11.5-8.3v-.9c-1-1.4-1.4-2-3-2.2z"/><path class="st5" d="M311.1 515.2l.7 1.7 1.6-2.6 1.1-1.8c.1-.1.2-.1.3 0l1.4 2 2 3 1.5-8.2-.5-1.5-.1.1-4.3 4.2c-.1.1-.2.1-.2 0l-5-4.9-.1-.1-.8 1.4c.1-.1.2-.2.3-.2l2.1 6.9z"/><path class="st5" d="M323.3 516.7c-.8-.4-1.7-.9-2.5-1.3l2.8-1.3c-.2-.5-.5-1.2-1-2.3-.2-.4-.4-.7-.6-1-.8-1-1.9-1.8-2.2-1.9l-.1.3-1.5 8.2v.2l-.6 2.2-.4 1.7-.5 2.4c1-.1 2-.3 2.9-.6 1.1-2.7 2.5-5 3.7-6.6z"/><path class="st10" d="M308.9 514.4l-4-1.6c0-.2.7-1 1.5-1.8-2.2.6-4.5 1.6-6.7 1.9-1.1.2-1.9.8-2.6 1.8 3 4.8 8 8.3 13.9 9.2-1.7-2.6-3.4-4.5-5.2-6.7l3.1-2.8z"/><path class="st5" d="M312.7 519.3l-.9-2.4-.7-1.7-2.2-6.8s-.1.1-.3.2c-.5.4-1.5 1.4-2.3 2.4-.8.8-1.4 1.6-1.5 1.8l4 1.6-3.1 2.8c1.7 2.1 3.5 4.1 5.2 6.7 1.2.2 2.4.3 3.6.3l-1.2-3-.6-1.9z"/><path class="st11" d="M316.6 497.6c.7-.3 1.5-.3 2.2 0M310.7 497.6c.7-.3 1.5-.3 2.2 0"/><circle class="st4" cx="317.6" cy="498.9" r=".6"/><circle class="st4" cx="312.1" cy="498.9" r=".6"/><path class="st11" d="M312.6 504.5s1.9 1.8 3.8.2M315.3 498.4c-.1.6-.1 1.3 0 2l.3 1.5c0 .2.1.5 0 .7-.1.2-.3.4-.4.3"/></g><g><path class="st5" d="M117.6 480.8c2.2-.4 4.5-1.3 6.7-1.9.9-.9 1.9-2 2.3-2.4l.8-1.4.1.1.1-1.3v-.1c-.2-.2-.4-.3-.5-.5-.2-.3-.4-.7-.5-1.1-.1-.6 0-1.4-.5-1.9-.4-.4-.8-.6-1.1-1.2-.5-1-.6-2.2-.4-3.2 0-.3.2-.8.6-.5.1.1.1.1.1.2v-.5c-.1-.7-.2-1.7-.2-2.4-.1-2-.3-4.1 1.6-5.6 1.8-1.4 4.9-2.6 7.3-2 .4.1 1.1.2 1.4.5-.1-.1.6-.1.7-.1 1-.1 2.9 1 4.1 2.7 1.1 1.6.9 3.3.6 5.1-.1.5-.1 1-.4 2.2-.1.2-.2.7-.4 1.2.2-.1.1-.4.3-.5.4-.3.6.2.6.5 0 1.1-.2 2.2-.8 3.2-.3.5-.7.7-1.2 1.1-.5.4-.4 1.3-.6 1.9-.1.4-.3.7-.6 1-.2.2-.4.4-.7.6l-.1 1.6.1-.1.5 1.5.1-.3c.3.1 1.4.9 2.2 1.9 2 .5 4.8 1.1 6 1.2 1.6.2 2 .9 3 2.1.1.1.2.3.3.4 2-3.1 3.1-6.9 3.1-10.8 0-10.6-8.5-19.5-19.1-20.1-11.7-.6-21.3 8.7-21.3 20.2 0 3.9 1.1 7.6 3.1 10.7.7-1.1 1.6-1.8 2.7-2z"/><path class="st5" d="M132.6 480.1l4.3-4.2.1-1.6c-.5.3-1 .5-1.3.9-.6.5-1.1 1-1.8 1.4-.4.2-.9.2-1.4.1h-.2c-.6 0-1.2 0-1.6-.3-.7-.4-1.2-1-1.7-1.5-.4-.4-.9-.7-1.4-1.1v.1l-.1 1.3 5 4.9c0 .1.1.1.1 0z"/><path class="st5" d="M128.8 474.9c.5.6 1 1.1 1.7 1.5.4.2 1.1.3 1.6.3h.2c.5 0 1 0 1.4-.1.8-.3 1.3-.8 1.8-1.4.4-.4.9-.6 1.3-.9.3-.2.5-.3.7-.6.3-.3.4-.6.6-1 .2-.5.2-1.4.6-1.9.4-.4.8-.5 1.2-1.1.6-.9.8-2.1.8-3.2 0-.3-.1-.8-.6-.5-.2.1-.1.4-.3.5-.1.2-.1.3-.2.4h-.6c0-.5.2-1.2.2-1.3.1-.9.2-1.9 0-2.8-.2-1.2-2-1.9-2.9-2.5-.2-.1-.4-.4-.6-.4-.3-.1-.1-.1-.4.1-1.1.6-1.7 1.1-3 1-1.1-.1-2.1-.3-3.2-.3-1.5 0-2.8 1-3 2.4-.1.5 0 1.1-.1 1.6 0 .4-.1.7-.1 1.1v.4h-.8v-.3-.5c0-.1 0-.2-.1-.2-.4-.3-.6.2-.6.5-.1 1.1 0 2.2.4 3.2.3.6.7.8 1.1 1.2.4.5.3 1.3.5 1.9.1.4.3.7.5 1.1.1.2.3.4.5.5.5.5 1.1.8 1.4 1.3z"/><path class="st4" d="M125.3 466.1v.3h.8v-.4c0-.4 0-.7.1-1.1.1-.5 0-1.1.1-1.6.2-1.4 1.6-2.3 3-2.4 1.1 0 2.1.2 3.2.3 1.3.1 1.9-.5 3-1 .3-.1.1-.2.4-.1.2.1.4.3.6.4 1 .6 2.7 1.3 2.9 2.5.2.9.1 1.9 0 2.8 0 .1-.2.9-.2 1.3h.6c.1-.1.1-.3.2-.4.2-.5.4-1 .4-1.2.3-1.2.3-1.7.4-2.2.3-1.8.5-3.5-.6-5.1-1.2-1.7-3.1-2.8-4.1-2.7-.1 0-.8 0-.7.1-.3-.3-1-.4-1.4-.5-2.4-.7-5.5.6-7.3 2-2 1.5-1.7 3.6-1.6 5.6 0 .7.2 1.7.2 2.4v1z"/><path class="st8" d="M130.7 487.3l.7 1.7.6-5.1c0-.2 0-.5-.1-.7l-.5-1-1.6 2.6.9 2.5zM133.7 483.4c-.1.2-.1.4 0 .7l1.5 5.5.4-1.7.6-2.2v-.2l-2-3-.5.9z"/><path class="st7" d="M133.6 484.1c-.1-.2-.1-.5 0-.7l.4-.9-1.4-2c-.1-.1-.2-.1-.3 0l-1.1 1.8.5 1c.1.2.2.5.1.7l-.6 5.1 1.2 3c.7 0 1.4-.1 2-.1l.5-2.4-1.3-5.5z"/><path class="st10" d="M145.9 480.1c-1.2-.2-4-.7-6-1.2.2.3.5.6.6 1 .5 1 .9 1.8 1 2.3l-2.8 1.3c.8.4 1.7.9 2.5 1.3-1.2 1.6-2.6 3.9-3.8 6.7 4.8-1.3 8.8-4.3 11.5-8.3v-.9c-1-1.4-1.4-2-3-2.2z"/><path class="st5" d="M129.1 483.2l.7 1.7 1.6-2.6 1.1-1.8c.1-.1.2-.1.3 0l1.4 2 2 3 1.5-8.2-.5-1.5-.1.1-4.3 4.2c-.1.1-.2.1-.2 0l-5-4.9-.1-.1-.8 1.4c.1-.1.2-.2.3-.2l2.1 6.9z"/><path class="st5" d="M141.3 484.7c-.8-.4-1.7-.9-2.5-1.3l2.8-1.3c-.2-.5-.5-1.2-1-2.3-.2-.4-.4-.7-.6-1-.8-1-1.9-1.8-2.2-1.9l-.1.3-1.5 8.2v.2l-.6 2.2-.4 1.7-.5 2.4c1-.1 2-.3 2.9-.6 1.1-2.7 2.5-5 3.7-6.6z"/><path class="st10" d="M126.9 482.4l-4-1.6c0-.2.7-1 1.5-1.8-2.2.6-4.5 1.6-6.7 1.9-1.1.2-1.9.8-2.6 1.8 3 4.8 8 8.3 13.9 9.2-1.7-2.6-3.4-4.5-5.2-6.7l3.1-2.8z"/><path class="st5" d="M130.7 487.3l-.9-2.4-.7-1.7-2.2-6.8s-.1.1-.3.2c-.5.4-1.5 1.4-2.3 2.4-.8.8-1.4 1.6-1.5 1.8l4 1.6-3.1 2.8c1.7 2.1 3.5 4.1 5.2 6.7 1.2.2 2.4.3 3.6.3l-1.2-3-.6-1.9z"/><path class="st11" d="M134.6 465.6c.7-.3 1.5-.3 2.2 0M128.7 465.6c.7-.3 1.5-.3 2.2 0"/><circle class="st4" cx="135.6" cy="466.9" r=".6"/><circle class="st4" cx="130.1" cy="466.9" r=".6"/><path class="st11" d="M130.6 472.5s1.9 1.8 3.8.2M133.3 466.4c-.1.6-.1 1.3 0 2l.3 1.5c0 .2.1.5 0 .7-.1.2-.3.4-.4.3"/></g></g></svg>