<?xml version="1.0" encoding="utf-8"?>
<!-- Generator: Adobe Illustrator 21.0.2, SVG Export Plug-In . SVG Version: 6.00 Build 0)  -->
<svg version="1.1" xmlns="http://www.w3.org/2000/svg" xmlns:xlink="http://www.w3.org/1999/xlink" x="0px" y="0px"
	 viewBox="0 0 1469.9 801.5" style="enable-background:new 0 0 1469.9 801.5;" xml:space="preserve">
<style type="text/css">
	.st0{fill:#F0F1F1;}
	.st1{fill:#F0F1F1;stroke:#BABCBE;stroke-miterlimit:10;}
	.st2{fill:#FFFFFF;stroke:#A5A7A9;stroke-width:0.5;stroke-miterlimit:10;}
	.st3{fill:#CCCCCC;}
	.st4{fill:#1A1A1A;stroke:#000000;stroke-width:0.5;stroke-miterlimit:10;}
	.st5{fill:#FFFFFF;stroke:#000000;stroke-width:0.5;stroke-miterlimit:10;}
	.st6{fill:#1A1A1A;}
	.st7{fill:#EB058C;stroke:#000000;stroke-width:0.5;stroke-miterlimit:10;}
	.st8{fill:#CCCCCC;stroke:#000000;stroke-width:0.5;stroke-miterlimit:10;}
	.st9{fill:none;}
	.st10{fill:#0077BF;stroke:#000000;stroke-width:0.5;stroke-miterlimit:10;}
	.st11{fill:none;stroke:#000000;stroke-width:0.5;stroke-miterlimit:10;}
	.st12{fill:#FFE600;stroke:#000000;stroke-width:0.5;stroke-miterlimit:10;}
</style>
<g id="Layer_5">
</g>
<g id="Layer_4">
	<g>
		<g>
			<path class="st0" d="M1469.4,601.5V456.2c0,0-80.7-45.7-98.8-54.9c-18.2-9.2-29.7-8.6-38.1-11.7c-8.5-3-17.6-3-29.7,0
				c-12.1,3-81.1,49-85.4,51.5c-4.2,2.4-13.9,4.8-18.2,4.2c-4.2-0.6-11.5-3-14.5-5.4s-12.7-2.4-19.4,2.4
				c-6.7,4.8-6.1,11.5-12.1,12.7s-15.7,1.2-20.6,7.9c-2.4,1.8-16.3-0.6-20-0.6c-3.6,0-12.7,7.3-15.7,9.7c-3,2.4-22.4-3-30.3,4.8
				c-5.4,0.6-12.1-10.3-24.2-0.6c-8.5,0-13.9-0.6-23,3c-9.1,3.6-10.3-5.4-14.5-1.2c-4.2,4.2-5.4,6.1-10.3,5.4
				c-4.8-0.6-33.3-6.7-43-1.2c-7.3-1.8-46.6-0.6-46.6-0.6s-75.7-3.6-82.9,3.6c-7.3,7.3-18.2,7.4-24.2,9.2c-6.1,1.7-31-5.4-48.8,0
				c-17.8,5.4-69.1-9.2-74.9-9.2c-5.8,0-36.1,7.4-39.7,9.2c-3.6,1.7-127.1-7.9-147.7-6.7c-20.6,1.2-27.8,12.1-43,15.7
				c-15.1,3.6-12.7-9.5-33.3-9c-20.6,0.5-64.8,59.9-90.2,58c-25.4-1.8-41.8-18.2-59.9-10.9c-18.2,7.3-74.5,44.8-101.7,46
				c-27.2,1.2-47.2,13.9-47.2,13.9H1469.4z"/>
			<polygon class="st0" points="512.2,342 499.4,342 499.4,333.1 453.3,333.1 453.3,342 440.6,342 440.6,350.9 422.4,350.9 
				422.4,601.5 530.3,601.5 530.3,350.9 512.2,350.9 			"/>
			<rect x="243.6" y="388.1" class="st0" width="38.5" height="213.4"/>
			<polygon class="st0" points="187.4,411.1 168.2,411.1 168.2,601.5 187.4,601.5 206.7,601.5 225.9,601.5 225.9,358.8 187.4,358.8 
							"/>
			<path class="st0" d="M362.5,364h17.3v12.6h28.6v-44.6c0-0.9,0.5-1.7,1.2-1.7c0.7,0,1.2,0.7,1.2,1.7v44.6h0v224.9h-93.1V364
				c0,0,0-2.4,0-13.4C355.4,350.6,362.5,364,362.5,364z"/>
			<polygon class="st0" points="864.5,330.3 864.5,365 862,365 862,370.2 856.8,370.2 856.8,377.4 848.3,377.4 848.3,382.7 
				834.7,382.7 829.4,388.1 829.4,601.5 867.1,601.5 867.1,388.1 867.1,377.4 867.1,370.2 867.1,365 867.1,330.3 			"/>
			<polygon class="st0" points="140.8,354.2 140.8,338.5 82.4,338.5 82.4,354.2 82.4,601.5 158.7,601.5 158.7,354.2 			"/>
			<polygon class="st1" points="1071.9,572.9 1071.9,518.6 1049.3,518.6 1049.3,506.8 1045,506.8 1045,504 1053.5,504 1053.5,502 
				1041.6,502 1041.6,483.3 1040.5,483.3 1040.5,502 1028.3,502 1028.3,494.2 1027.1,494.2 1027.1,502 1020.4,502 1020.4,469.5 
				1019.6,469.5 1019.6,502 1007.8,502 1007.8,504 1016.3,504 1016.3,506.8 1012,506.8 1012,518.6 989.4,518.6 989.4,601.5 
				1067.1,601.5 1071.9,601.5 1086.5,601.5 1086.5,572.9 			"/>
			<polygon class="st1" points="86.5,347.5 86.5,316.8 85.3,316.8 85.3,312.8 82.3,312.8 82.3,311.1 77.7,311.1 77.7,308.6 
				75.2,308.6 75.2,316.8 68.7,316.8 68.7,312 63.8,312 63.8,307.4 68.1,307.4 68.1,304.4 10.7,298.1 10.7,316.8 0.5,316.8 
				0.5,601.5 89.7,601.5 89.7,347.5 			"/>
			<polygon class="st1" points="125.7,396.1 125.7,392 115.5,392 115.5,396.1 94.9,396.1 94.9,601.5 168.2,601.5 168.2,396.1 			"/>
			<polygon class="st1" points="260.6,383.4 260.6,379.2 256.3,379.2 256.3,372.2 253.9,372.2 253.9,364.3 247.3,364.3 238.2,353.7 
				217.6,353.7 210.3,364.3 203.7,364.3 203.7,372.2 201.3,372.2 201.3,379.2 197,379.2 197,383.4 194.8,383.4 194.8,601.5 
				262.9,601.5 262.9,383.4 			"/>
			<polygon class="st1" points="367.4,377.5 360.2,370.4 360.2,333.2 349.6,333.2 349.6,330 344.7,330 344.7,333.2 288.6,333.2 
				288.6,337.1 291,337.1 291,384 278.6,384 278.6,601.5 376.4,601.5 376.4,377.5 			"/>
			<polygon class="st1" points="613.7,408.2 613.7,401 622.2,401 694.6,473.9 694.6,601.5 613.7,601.5 			"/>
			<polygon class="st1" points="711.8,385.4 759.1,385.4 764.7,389 764.7,601.5 711.8,601.5 			"/>
			<path class="st1" d="M845.9,424.5v-13.2H843v-43.8h-2v1.4h-8.7v-4.7l-15.1-15.1v-2.4l1.4-1.4l-2.8-2.8l-2.8,2.8l1.4,1.4v2.4
				l-15.1,15.1v4.7h-8.7v-1.4h-2v43.8h-2.9v13.2h-2.4v176.9h32.4h32.4V424.5H845.9z M799.6,373.7h-8.5v-3.1h8.5V373.7z M840.6,373.7
				h-8.5v-3.1h8.5V373.7z"/>
			<path class="st1" d="M869.8,412c0,0,0-4.1,0-6.4s0.7-4.5,2.3-4.5c0-4.5,0-10.2,0-10.2s5.4-1.1,9.1-1.1c0-1.1,0-3.4,0-3.4h3.2
				v-12.5h14.5l4.5,4.5v3h-4.2v6.7h12v-3.5l6.2,4.1v15.9h2.4v197h-49.9V412z"/>
			<path class="st1" d="M1411.7,443.5h-2.4h-9.6v-3.4h-7v-2.7h-9.2v2.7h-3.1v-2.7h-6.1v2.7h-7v3.4h-8.2h-3.8v3.6v6.4v3.6v6.4v3.6
				v6.4v3.6v6.4v3.6v6.4v3.6v6.4v3.6v6.4v3.6v6.4v3.6v6.4v3.6v6.4v3.6v6.4v3.6v6.4v3.6v6.4v3.6v6.4v3.6v6.4v3.6v4.5h3.8v-4.5h3.9
				v4.5h41.2v-4.5h5.3v4.5h3.8v-158H1411.7z M1404,573.3V567h5.3v6.4H1404z M1409.3,577v6.4h-5.3V577H1409.3z M1404,563.3V557h5.3
				v6.4H1404z M1404,553.3V547h5.3v6.4H1404z M1404,543.4V537h5.3v6.4H1404z M1404,533.4V527h5.3v6.4H1404z M1404,523.4V517h5.3v6.4
				H1404z M1404,513.4V507h5.3v6.4H1404z M1404,503.4v-6.4h5.3v6.4H1404z M1404,493.4v-6.4h5.3v6.4H1404z M1404,483.4v-6.4h5.3v6.4
				H1404z M1404,473.4v-6.4h5.3v6.4H1404z M1404,463.5v-6.4h5.3v6.4H1404z M1404,453.5v-6.4h5.3v6.4H1404z M1359,447.1h3.9v6.4h-3.9
				V447.1z M1359,457.1h3.9v6.4h-3.9V457.1z M1359,467.1h3.9v6.4h-3.9V467.1z M1359,477.1h3.9v6.4h-3.9V477.1z M1359,487.1h3.9v6.4
				h-3.9V487.1z M1359,497.1h3.9v6.4h-3.9V497.1z M1359,507h3.9v6.4h-3.9V507z M1359,517h3.9v6.4h-3.9V517z M1359,527h3.9v6.4h-3.9
				V527z M1359,537h3.9v6.4h-3.9V537z M1359,547h3.9v6.4h-3.9V547z M1359,557h3.9v6.4h-3.9V557z M1359,567h3.9v6.4h-3.9V567z
				 M1359,577h3.9v6.4h-3.9V577z M1359,593.3v-6.4h3.9v6.4H1359z M1404,593.3v-6.4h5.3v6.4H1404z"/>
			<path class="st1" d="M1270.1,488.1v-2.7h3.1v-3.6h-12.4c0,0,0.9-10.6-6.7-10.6c0-3.9,0-5.1,0-5.1h-4.2h-4.2c0,0,0,1.2,0,5.1
				c-7.6,0-6.7,10.6-6.7,10.6h-12.4v3.6h3.1v2.7h-7.5v3h5.2v110.3h44.9V491.2h5.2v-3H1270.1z"/>
			<polygon class="st1" points="1218.2,491.6 1218.2,489.8 1215.6,489.8 1215.6,483.4 1215.6,469.4 1212.6,469.4 1212.6,478.6 
				1206.5,478.6 1206.5,483.4 1202.9,483.4 1202.9,476.4 1183.8,476.4 1183.8,483.4 1180.2,483.4 1180.2,478.6 1174.1,478.6 
				1174.1,469.4 1171.1,469.4 1171.1,483.4 1171.1,489.8 1168.5,489.8 1168.5,491.6 1171.1,491.6 1171.1,495.5 1168.5,495.5 
				1168.5,497.3 1171.1,497.3 1171.1,501.1 1168.5,501.1 1168.5,503 1171.1,503 1171.1,506.8 1168.5,506.8 1168.5,508.6 
				1171.1,508.6 1171.1,512.5 1168.5,512.5 1168.5,514.3 1171.1,514.3 1171.1,518.2 1168.5,518.2 1168.5,520 1171.1,520 
				1171.1,523.8 1168.5,523.8 1168.5,525.7 1171.1,525.7 1171.1,529.5 1168.5,529.5 1168.5,531.3 1171.1,531.3 1171.1,535.2 
				1168.5,535.2 1168.5,537 1171.1,537 1171.1,540.9 1168.5,540.9 1168.5,542.7 1171.1,542.7 1171.1,546.5 1168.5,546.5 
				1168.5,548.4 1171.1,548.4 1171.1,552.2 1168.5,552.2 1168.5,554 1171.1,554 1171.1,557.9 1168.5,557.9 1168.5,559.7 
				1171.1,559.7 1171.1,563.6 1168.5,563.6 1168.5,565.4 1171.1,565.4 1171.1,569.2 1168.5,569.2 1168.5,571.1 1171.1,571.1 
				1171.1,574.9 1168.5,574.9 1168.5,576.7 1171.1,576.7 1171.1,580.6 1168.5,580.6 1168.5,582.4 1171.1,582.4 1171.1,586.3 
				1168.5,586.3 1168.5,588.1 1171.1,588.1 1171.1,591.9 1168.5,591.9 1168.5,593.8 1171.1,593.8 1171.1,597.6 1168.5,597.6 
				1168.5,599.4 1171.1,599.4 1171.1,601.5 1215.6,601.5 1215.6,599.4 1218.2,599.4 1218.2,597.6 1215.6,597.6 1215.6,593.8 
				1218.2,593.8 1218.2,591.9 1215.6,591.9 1215.6,588.1 1218.2,588.1 1218.2,586.3 1215.6,586.3 1215.6,582.4 1218.2,582.4 
				1218.2,580.6 1215.6,580.6 1215.6,576.7 1218.2,576.7 1218.2,574.9 1215.6,574.9 1215.6,571.1 1218.2,571.1 1218.2,569.2 
				1215.6,569.2 1215.6,565.4 1218.2,565.4 1218.2,563.6 1215.6,563.6 1215.6,559.7 1218.2,559.7 1218.2,557.9 1215.6,557.9 
				1215.6,554 1218.2,554 1218.2,552.2 1215.6,552.2 1215.6,548.4 1218.2,548.4 1218.2,546.5 1215.6,546.5 1215.6,542.7 
				1218.2,542.7 1218.2,540.9 1215.6,540.9 1215.6,537 1218.2,537 1218.2,535.2 1215.6,535.2 1215.6,531.3 1218.2,531.3 
				1218.2,529.5 1215.6,529.5 1215.6,525.7 1218.2,525.7 1218.2,523.8 1215.6,523.8 1215.6,520 1218.2,520 1218.2,518.2 
				1215.6,518.2 1215.6,514.3 1218.2,514.3 1218.2,512.5 1215.6,512.5 1215.6,508.6 1218.2,508.6 1218.2,506.8 1215.6,506.8 
				1215.6,503 1218.2,503 1218.2,501.1 1215.6,501.1 1215.6,497.3 1218.2,497.3 1218.2,495.5 1215.6,495.5 1215.6,491.6 			"/>
			<polygon class="st1" points="1161.7,501.1 1161.7,497.8 1158.5,497.8 1158.5,485.1 1149,485.1 1149,481.8 1139.6,481.8 
				1139.6,476.8 1139.6,468.3 1136,468.3 1136,476.8 1129.8,476.8 1129.8,481.8 1120,481.8 1120,485.1 1110.4,485.1 1110.4,497.8 
				1107.2,497.8 1107.2,501.1 1110.4,501.1 1110.4,503.6 1107.2,503.6 1107.2,506.9 1110.4,506.9 1110.4,509.3 1107.2,509.3 
				1107.2,512.6 1110.4,512.6 1110.4,515.1 1107.2,515.1 1107.2,518.4 1110.4,518.4 1110.4,520.8 1107.2,520.8 1107.2,524.1 
				1110.4,524.1 1110.4,526.6 1107.2,526.6 1107.2,529.9 1110.4,529.9 1110.4,532.3 1107.2,532.3 1107.2,535.6 1110.4,535.6 
				1110.4,538.3 1107.2,538.3 1107.2,541.6 1110.4,541.6 1110.4,544.3 1107.2,544.3 1107.2,547.6 1110.4,547.6 1110.4,550.2 
				1107.2,550.2 1107.2,553.6 1110.4,553.6 1110.4,556.2 1107.2,556.2 1107.2,559.6 1110.4,559.6 1110.4,562.2 1107.2,562.2 
				1107.2,565.5 1110.4,565.5 1110.4,568.2 1107.2,568.2 1107.2,571.5 1110.4,571.5 1110.4,574.2 1107.2,574.2 1107.2,577.5 
				1110.4,577.5 1110.4,580.1 1107.2,580.1 1107.2,583.5 1110.4,583.5 1110.4,586.1 1107.2,586.1 1107.2,589.4 1110.4,589.4 
				1110.4,592.1 1107.2,592.1 1107.2,595.4 1110.4,595.4 1110.4,598.1 1107.2,598.1 1107.2,601.5 1110.4,601.5 1158.5,601.5 
				1161.7,601.5 1161.7,598.1 1158.5,598.1 1158.5,595.4 1161.7,595.4 1161.7,592.1 1158.5,592.1 1158.5,589.4 1161.7,589.4 
				1161.7,586.1 1158.5,586.1 1158.5,583.5 1161.7,583.5 1161.7,580.1 1158.5,580.1 1158.5,577.5 1161.7,577.5 1161.7,574.2 
				1158.5,574.2 1158.5,571.5 1161.7,571.5 1161.7,568.2 1158.5,568.2 1158.5,565.5 1161.7,565.5 1161.7,562.2 1158.5,562.2 
				1158.5,559.6 1161.7,559.6 1161.7,556.2 1158.5,556.2 1158.5,553.6 1161.7,553.6 1161.7,550.2 1158.5,550.2 1158.5,547.6 
				1161.7,547.6 1161.7,544.3 1158.5,544.3 1158.5,541.6 1161.7,541.6 1161.7,538.3 1158.5,538.3 1158.5,535.6 1161.7,535.6 
				1161.7,532.3 1158.5,532.3 1158.5,529.9 1161.7,529.9 1161.7,526.6 1158.5,526.6 1158.5,524.1 1161.7,524.1 1161.7,520.8 
				1158.5,520.8 1158.5,518.4 1161.7,518.4 1161.7,515.1 1158.5,515.1 1158.5,512.6 1161.7,512.6 1161.7,509.3 1158.5,509.3 
				1158.5,506.9 1161.7,506.9 1161.7,503.6 1158.5,503.6 1158.5,501.1 			"/>
			<polygon class="st1" points="476.4,375.8 476.4,371.2 472.2,371.2 472.2,350.9 466.6,347.4 466.6,323.3 463,323.3 463,344.9 
				419.8,336.5 419.8,351 412.9,350.9 412.9,601.5 472.2,601.5 472.2,594.1 476.4,594.1 476.4,589.6 472.2,589.6 472.2,585.7 
				476.4,585.7 476.4,581.2 472.2,581.2 472.2,577.3 476.4,577.3 476.4,572.8 472.2,572.8 472.2,568.9 476.4,568.9 476.4,564.4 
				472.2,564.4 472.2,560.5 476.4,560.5 476.4,556 472.2,556 472.2,552.1 476.4,552.1 476.4,547.6 472.2,547.6 472.2,543.7 
				476.4,543.7 476.4,539.2 472.2,539.2 472.2,535.3 476.4,535.3 476.4,530.8 472.2,530.8 472.2,526.9 476.4,526.9 476.4,522.4 
				472.2,522.4 472.2,518.5 476.4,518.5 476.4,514 472.2,514 472.2,510.1 476.4,510.1 476.4,505.6 472.2,505.6 472.2,501.7 
				476.4,501.7 476.4,497.2 472.2,497.2 472.2,493.3 476.4,493.3 476.4,488.8 472.2,488.8 472.2,484.9 476.4,484.9 476.4,480.4 
				472.2,480.4 472.2,476.5 476.4,476.5 476.4,472 472.2,472 472.2,468.1 476.4,468.1 476.4,463.6 472.2,463.6 472.2,459.7 
				476.4,459.7 476.4,455.2 472.2,455.2 472.2,451.3 476.4,451.3 476.4,446.8 472.2,446.8 472.2,442.9 476.4,442.9 476.4,438.4 
				472.2,438.4 472.2,434.6 476.4,434.6 476.4,430 472.2,430 472.2,426.2 476.4,426.2 476.4,421.6 472.2,421.6 472.2,417.8 
				476.4,417.8 476.4,413.2 472.2,413.2 472.2,409.4 476.4,409.4 476.4,404.8 472.2,404.8 472.2,401 476.4,401 476.4,396.4 
				472.2,396.4 472.2,392.6 476.4,392.6 476.4,388 472.2,388 472.2,384.2 476.4,384.2 476.4,379.6 472.2,379.6 472.2,375.8 			"/>
			<polygon class="st0" points="595.5,317.9 590.5,317.9 585,317.9 585,315.7 585,309.5 581.6,309.5 581.6,312.6 578.2,312.6 
				578.2,315.7 562.6,315.7 562.6,317.9 554.2,317.9 554.2,601.5 590.5,601.5 590.5,325.6 595.5,325.6 			"/>
			<path class="st1" d="M578,245.5v-1.7l1-0.8v-2.6c0,0-17.1-6.6-23.1-8.4c-6-1.8-6.2-3.9-6.1-4.7c2.6-1.4,5-3.5,5-3.5
				s-4-1.7-4.8-1.7c0-3.4-3.5-3.2-3.5-3.2v-2.3h-1.3v2.3c0,0-2.5,0-4.1,0c0-2.5-0.7-3.7-1.5-4.2l-1.8-23.8l-1.8,23.8
				c-0.8,0.5-1.5,1.7-1.5,4.2c-1.6,0-4.1,0-4.1,0v-2.3H529v2.3c0,0-3.5-0.3-3.5,3.2c-0.8,0-4.8,1.7-4.8,1.7s2.3,2.1,5,3.5
				c0.1,0.8-0.1,2.9-6.1,4.7c-6,1.8-23.1,8.4-23.1,8.4v2.6l1,0.8v1.7l-8.7,2.9c0,0,0,0.4,0,1c0,0.6,4.1,2.5,12.4,2.5
				c1.1,1.2,1.6,2.6,1.6,2.6v3l-4.5,2.8c0,0,4.5,3.9,10,3.9c5.5,0,7.2,0,7.2,0s9.4,68.5,9.4,74.3c0,5.8,0.6,50.9-2.2,70.7
				c-2.2,15.5-10.6,86.2-14.1,116.1c-4.1,1.3-6.5,2.9-6.5,4.6c0,1.6,2,3,5.5,4.3c-0.3,2.9-0.5,4.6-0.5,4.6l-7.4,62.7h7l4.5-45
				c0,0,0.9-8.6,2.3-20.7c4.4,0.9,10,1.6,16.1,2v63.8h8.4h8.4v-13.2h21.5l1.3,13.2h7l-7.4-62.7c0,0-0.2-1.6-0.5-4.6
				c3.5-1.2,5.5-2.7,5.5-4.3c0-1.7-2.4-3.3-6.5-4.6c-3.5-29.9-11.9-100.6-14.1-116.1c-2.8-19.8-2.2-64.9-2.2-70.7
				c0-5.8,9.4-74.3,9.4-74.3s1.8,0,7.2,0c5.5,0,10-3.9,10-3.9l-4.5-2.8v-3c0,0,0.5-1.4,1.6-2.6c8.3,0,12.4-2,12.4-2.5c0-0.6,0-1,0-1
				L578,245.5z M552.3,448.5h-6.2v-23h3.5C550.6,435,551.6,443,552.3,448.5z M553.2,455.2c0.2,1.7,0.9,7.7,1.9,16h-9V452h6.7
				C553,453.4,553.1,454.5,553.2,455.2z M546.1,497.4H558c0.7,6.4,1.4,12.9,2.1,19.2h-14V497.4z M546.1,493.9v-19.2h9.4
				c0.6,5.7,1.4,12.3,2.1,19.2H546.1z M521,264.1h8.4v102.2v82.2h-6.2c2-15.3,6.2-50.2,6.2-82.2C529.4,327.9,523.5,274.4,521,264.1z
				 M514.6,523.8c3-27.8,7-63.9,7.7-68.6c0.1-0.8,0.3-1.8,0.5-3.2h6.7v70.1C523.8,522.4,518.8,523,514.6,523.8z M564.5,556.5
				l0.6,5.6h-18.9v-19.2H563C563.9,551.1,564.5,556.5,564.5,556.5z M546.1,584.8v-19.2h19.3l1.9,19.2H546.1z M562.6,539.4h-16.5
				v-1.7c6.2-0.3,11.7-1,16.1-2C562.4,537,562.5,538.2,562.6,539.4z M546.1,522.1v-2h14.4c0.1,1.3,0.3,2.5,0.4,3.7
				C556.7,523,551.7,522.4,546.1,522.1z M546.1,366.3c0,19.1,1.5,39.3,3.1,55.7h-3.1V366.3V264.1h8.4
				C551.9,274.4,546.1,327.9,546.1,366.3z"/>
			<g>
				<rect x="0.5" y="574.2" class="st1" width="1468.9" height="24.1"/>
				<rect x="0.5" y="577.3" class="st1" width="1468.9" height="24.1"/>
			</g>
		</g>
	</g>
	<rect x="294.9" y="397" class="st2" width="11.8" height="31.8"/>
	<rect x="321.5" y="397" class="st2" width="11.8" height="31.8"/>
	<rect x="347.9" y="397" class="st2" width="11.8" height="31.8"/>
	<rect x="797.2" y="529.2" class="st2" width="11.8" height="31.8"/>
	<rect x="823.9" y="529.2" class="st2" width="11.8" height="31.8"/>
	<rect x="797.2" y="483.6" class="st2" width="11.8" height="31.8"/>
	<rect x="823.9" y="483.6" class="st2" width="11.8" height="31.8"/>
	<rect x="797.2" y="438.1" class="st2" width="11.8" height="31.8"/>
	<rect x="823.9" y="438.1" class="st2" width="11.8" height="31.8"/>
	<rect x="878" y="408.7" class="st2" width="11.8" height="31.8"/>
	<rect x="900.2" y="408.7" class="st2" width="11.8" height="31.8"/>
	<rect x="1117.5" y="498.1" class="st2" width="7.4" height="14.7"/>
	<rect x="1131.3" y="498.1" class="st2" width="7.4" height="14.7"/>
	<rect x="1146" y="498.1" class="st2" width="7.4" height="14.7"/>
	<rect x="1117.5" y="520.2" class="st2" width="7.4" height="14.7"/>
	<rect x="1131.3" y="520.2" class="st2" width="7.4" height="14.7"/>
	<rect x="1146" y="520.2" class="st2" width="7.4" height="14.7"/>
	<rect x="1117.5" y="542.2" class="st2" width="7.4" height="14.7"/>
	<rect x="1131.3" y="542.2" class="st2" width="7.4" height="14.7"/>
	<rect x="1146" y="542.2" class="st2" width="7.4" height="14.7"/>
	<rect x="1182.1" y="490.4" class="st2" width="7.4" height="20.9"/>
	<rect x="1195.9" y="490.4" class="st2" width="7.4" height="20.9"/>
	<rect x="1182.1" y="518.3" class="st2" width="7.4" height="20.9"/>
	<rect x="1195.9" y="518.3" class="st2" width="7.4" height="20.9"/>
	<rect x="1182.1" y="546.2" class="st2" width="7.4" height="20.9"/>
	<rect x="1195.9" y="546.2" class="st2" width="7.4" height="20.9"/>
	<rect x="1239.4" y="491.9" class="st2" width="7.4" height="20.9"/>
	<rect x="1253.2" y="491.9" class="st2" width="7.4" height="20.9"/>
	<rect x="1239.4" y="519.8" class="st2" width="7.4" height="20.9"/>
	<rect x="1253.2" y="519.8" class="st2" width="7.4" height="20.9"/>
	<rect x="1239.4" y="547.7" class="st2" width="7.4" height="20.9"/>
	<rect x="1253.2" y="547.7" class="st2" width="7.4" height="20.9"/>
	<rect x="878" y="454.2" class="st2" width="11.8" height="31.8"/>
	<rect x="900.2" y="454.2" class="st2" width="11.8" height="31.8"/>
	<rect x="878" y="499.8" class="st2" width="11.8" height="31.8"/>
	<rect x="900.2" y="499.8" class="st2" width="11.8" height="31.8"/>
	<rect x="797.2" y="392.5" class="st2" width="11.8" height="31.8"/>
	<rect x="823.9" y="392.5" class="st2" width="11.8" height="31.8"/>
	<rect x="634.2" y="529.2" class="st2" width="11.8" height="31.8"/>
	<rect x="660.8" y="529.2" class="st2" width="11.8" height="31.8"/>
	<rect x="634.2" y="485.1" class="st2" width="11.8" height="31.8"/>
	<rect x="660.8" y="485.1" class="st2" width="11.8" height="31.8"/>
	<rect x="209.7" y="397" class="st2" width="11.8" height="31.8"/>
	<rect x="236.3" y="397" class="st2" width="11.8" height="31.8"/>
	<rect x="209.7" y="441" class="st2" width="11.8" height="31.8"/>
	<rect x="236.3" y="441" class="st2" width="11.8" height="31.8"/>
	<rect x="209.7" y="486.6" class="st2" width="11.8" height="31.8"/>
	<rect x="236.3" y="486.6" class="st2" width="11.8" height="31.8"/>
	<rect x="112.7" y="413.1" class="st2" width="11.8" height="31.8"/>
	<rect x="139.4" y="413.1" class="st2" width="11.8" height="31.8"/>
	<rect x="112.7" y="457.2" class="st2" width="11.8" height="31.8"/>
	<rect x="139.4" y="457.2" class="st2" width="11.8" height="31.8"/>
	<rect x="112.7" y="502.7" class="st2" width="11.8" height="31.8"/>
	<rect x="139.4" y="502.7" class="st2" width="11.8" height="31.8"/>
	<rect x="209.7" y="532.1" class="st2" width="11.8" height="31.8"/>
	<rect x="236.3" y="532.1" class="st2" width="11.8" height="31.8"/>
	<rect x="728.9" y="461.1" class="st2" width="18.7" height="18.7"/>
	<rect x="728.9" y="433.2" class="st2" width="18.7" height="18.7"/>
	<rect x="728.9" y="403.8" class="st2" width="18.7" height="18.7"/>
	<rect x="1055.3" y="525.5" class="st2" width="9.5" height="18.7"/>
	<rect x="1055.3" y="550.5" class="st2" width="9.5" height="18.7"/>
	<rect x="1036.2" y="525.5" class="st2" width="9.5" height="18.7"/>
	<rect x="1036.2" y="550.5" class="st2" width="9.5" height="18.7"/>
	<rect x="1017.1" y="525.5" class="st2" width="9.5" height="18.7"/>
	<rect x="1017.1" y="550.5" class="st2" width="9.5" height="18.7"/>
	<rect x="998" y="525.5" class="st2" width="9.5" height="18.7"/>
	<rect x="998" y="550.5" class="st2" width="9.5" height="18.7"/>
	<rect x="728.9" y="487.8" class="st2" width="18.7" height="18.7"/>
	<rect x="728.9" y="514.6" class="st2" width="18.7" height="18.7"/>
	<rect x="728.9" y="541.3" class="st2" width="18.7" height="18.7"/>
	<rect x="433.7" y="425.8" class="st2" width="18.7" height="18.7"/>
	<rect x="433.7" y="397.9" class="st2" width="18.7" height="18.7"/>
	<rect x="433.7" y="368.6" class="st2" width="18.7" height="18.7"/>
	<rect x="433.7" y="452.6" class="st2" width="18.7" height="18.7"/>
	<rect x="433.7" y="479.3" class="st2" width="18.7" height="18.7"/>
	<rect x="433.7" y="506.1" class="st2" width="18.7" height="18.7"/>
	<rect x="433.7" y="533.7" class="st2" width="18.7" height="18.7"/>
	<rect x="1378.4" y="485.7" class="st2" width="12.2" height="12.2"/>
	<rect x="1378.4" y="467.4" class="st2" width="12.2" height="12.2"/>
	<rect x="1378.4" y="448.2" class="st2" width="12.2" height="12.2"/>
	<rect x="1378.4" y="503.2" class="st2" width="12.2" height="12.2"/>
	<rect x="1378.4" y="520.7" class="st2" width="12.2" height="12.2"/>
	<rect x="1378.4" y="538.2" class="st2" width="12.2" height="12.2"/>
	<rect x="1378.4" y="556.3" class="st2" width="12.2" height="12.2"/>
	<rect x="308.3" y="347" class="st2" width="11.8" height="31.8"/>
	<rect x="334.7" y="347" class="st2" width="11.8" height="31.8"/>
	<rect x="294.9" y="442.5" class="st2" width="11.8" height="31.8"/>
	<rect x="321.5" y="442.5" class="st2" width="11.8" height="31.8"/>
	<rect x="347.9" y="442.5" class="st2" width="11.8" height="31.8"/>
	<rect x="294.9" y="488" class="st2" width="11.8" height="31.8"/>
	<rect x="321.5" y="488" class="st2" width="11.8" height="31.8"/>
	<rect x="347.9" y="488" class="st2" width="11.8" height="31.8"/>
	<rect x="294.9" y="533.6" class="st2" width="11.8" height="31.8"/>
	<rect x="321.5" y="533.6" class="st2" width="11.8" height="31.8"/>
	<rect x="347.9" y="533.6" class="st2" width="11.8" height="31.8"/>
	<rect x="12.9" y="335.3" class="st2" width="11.8" height="31.8"/>
	<rect x="39.5" y="335.3" class="st2" width="11.8" height="31.8"/>
	<rect x="65.9" y="335.3" class="st2" width="11.8" height="31.8"/>
	<rect x="12.9" y="380.8" class="st2" width="11.8" height="31.8"/>
	<rect x="39.5" y="380.8" class="st2" width="11.8" height="31.8"/>
	<rect x="65.9" y="380.8" class="st2" width="11.8" height="31.8"/>
	<rect x="12.9" y="426.3" class="st2" width="11.8" height="31.8"/>
	<rect x="39.5" y="426.3" class="st2" width="11.8" height="31.8"/>
	<rect x="65.9" y="426.3" class="st2" width="11.8" height="31.8"/>
	<rect x="12.9" y="471.9" class="st2" width="11.8" height="31.8"/>
	<rect x="39.5" y="471.9" class="st2" width="11.8" height="31.8"/>
	<rect x="65.9" y="471.9" class="st2" width="11.8" height="31.8"/>
	<rect x="12.9" y="517.4" class="st2" width="11.8" height="31.8"/>
	<rect x="39.5" y="517.4" class="st2" width="11.8" height="31.8"/>
	<rect x="65.9" y="517.4" class="st2" width="11.8" height="31.8"/>
	<rect x="533.3" y="263.8" class="st2" width="8.4" height="307.7"/>
	<g>
		<g>
			<g>
				<circle class="st0" cx="1124.9" cy="328.1" r="13.4"/>
				<circle class="st0" cx="1151.6" cy="312.7" r="25.7"/>
				<circle class="st0" cx="1137.2" cy="337.3" r="12.3"/>
				<circle class="st0" cx="1178.4" cy="329.1" r="25.7"/>
				<circle class="st0" cx="1203" cy="331.2" r="14.4"/>
				<circle class="st0" cx="1151.6" cy="335.3" r="19.5"/>
			</g>
			<g>
				<circle class="st0" cx="177.9" cy="257" r="13.4"/>
				<circle class="st0" cx="204.6" cy="241.6" r="25.7"/>
				<circle class="st0" cx="190.2" cy="266.3" r="12.3"/>
				<circle class="st0" cx="231.4" cy="258" r="25.7"/>
				<circle class="st0" cx="256" cy="260.1" r="14.4"/>
				<circle class="st0" cx="204.6" cy="264.2" r="19.5"/>
			</g>
			<g>
				<circle class="st0" cx="982.7" cy="359.9" r="5.3"/>
				<circle class="st0" cx="993.4" cy="353.7" r="10.2"/>
				<circle class="st0" cx="987.6" cy="363.6" r="4.9"/>
				<circle class="st0" cx="1004" cy="360.3" r="10.2"/>
				<circle class="st0" cx="1013.8" cy="361.1" r="5.7"/>
				<circle class="st0" cx="993.4" cy="362.7" r="7.8"/>
			</g>
			<g>
				<circle class="st0" cx="1426" cy="334.6" r="10.8"/>
				<circle class="st0" cx="1404.4" cy="322.2" r="20.7"/>
				<circle class="st0" cx="1416" cy="342" r="9.9"/>
				<circle class="st0" cx="1382.9" cy="335.4" r="20.7"/>
				<circle class="st0" cx="1363" cy="337.1" r="11.6"/>
				<circle class="st0" cx="1404.4" cy="340.4" r="15.7"/>
			</g>
		</g>
	</g>
</g>
<g id="Layer_3">
	<ellipse class="st3" cx="552.4" cy="787.3" rx="165" ry="14.2"/>
</g>
<g id="Layer_6">
	<g id="Layer_2">
		<path class="st4" d="M398.5,444.7c0,0,8.3,8.4,22-12c0,0,10.8-15.8,16.2-33c0,0,7.6-20.7,25.4-32.1c0,0,13.1-10.8,34.2-6.7
			c0,0,19.3,3.3,25.8,21.2c0,0,10.5,21.4-5.5,46.3c0,0-5.5,8.1-6.8,16.1L467,467l-51.8-3.4l-4.4-4.3
			C410.7,459.2,401.9,458.1,398.5,444.7z"/>
		<path class="st5" d="M480,442.2c-0.1,0.3-0.3,0.7-0.2,1c0.1,0.3,0.3,0.6,0.5,0.8c2.8,3,5.9,5.7,9.2,8.1c2,1.4,4.4,2.8,6.7,2
			c1.4-0.5,2.5-1.7,3.4-2.9c1.4-1.7,2.8-3.4,4.2-5.1c-1.9-1.3-2-4.1-1.7-6.4c0.3-3.1,0.8-6.1,1.4-9.1c-4.9-3.8-10.8-6.3-17-7.1
			c-2.1-0.3-3.2,0.1-3.3,2.2c-0.1,1.9,0,3.8-0.3,5.7C482.4,435.1,481.4,438.8,480,442.2z"/>
		<path class="st5" d="M491.6,430.9c6.2,2.4,13.5,3.8,19.2,0.4c4.2-2.5,6.6-7.2,8-11.9c1.4-5,1.9-10.3,2.3-15.5
			c0.3-3.3,0.5-6.7-0.1-9.9c-1-4.7-3.8-8.7-6.6-12.5c-4.6-6.4-9.7-13-17.1-15.5c-4.2-1.4-8.8-1.2-13.2-1c-3.3,0.2-6.6,0.3-9.7,1.5
			c-2.6,0.9-4.9,2.5-7,4.3c-5.8,5.1-10,12.2-11,19.8C453.7,411,475,424.6,491.6,430.9z"/>
		<path class="st6" d="M471,423.6c0,0,14-29.8,2.3-45c0,0,9.1,3.5,16.1,1.3c0,0,18-4.9,25.8,9.1c0,0,3.5,8.7,7.7,12.1l0-7.2
			l-6.2-14.2l-16.9-14.6l-15.8-3.8l-15.9,6.4L457.7,378l-4.7,23.7l9.9,16.4L471,423.6z"/>
		<path class="st5" d="M481.4,401.4c0.8,0,1.6-0.5,2.1-1.2c0.5-0.7,0.8-1.5,1.1-2.2c0.3-0.5,0.6-1.1,1-1.5c0.4-0.5,0.8-0.9,1.3-1.3
			c1.3-0.9,3-0.9,4.5-0.4c1.5,0.5,2.7,1.4,4,2.4"/>
		<path class="st5" d="M502,392.2c0.3-0.6,0.5-1.1,0.8-1.7c0.7-1.4,1.4-2.9,2.9-3.6c1.2-0.5,2.5-0.3,3.8-0.3c1.3,0,2.7-0.3,3.4-1.4"
			/>
		<path class="st5" d="M491.4,390.3c-2.3-0.7-4.7-0.6-7,0.2c-2.2,0.8-4.1,2.4-5.3,4.5"/>
		<path class="st5" d="M498.3,386.2c1.3-3.1,4.4-5.3,7.7-5.7"/>
		<path class="st5" d="M504.1,408.5c1-1,1.8-2,2.7-3.1c0.2-0.3,0.4-0.5,0.5-0.9c0.2-0.8-0.4-1.5-1-2.1c-1-1-2-2-3.1-3"/>
		<path class="st5" d="M505.1,421.6c1,0,1.9-0.2,2.8,0c0.3,0.1,0.7,0.2,1,0.2c1.3,0.1,2.2-1.3,2.3-2.6c0.1-1.3-0.3-2.6-0.4-3.8
			c0-1.1,0.2-2.2,0.1-3.3c0-0.3-0.1-0.6-0.3-0.8c-0.4-0.4-1.1-0.3-1.7-0.1c-3.8,1.5-6.9,4.4-9.7,7.3c-0.1,0.1-0.2,0.2-0.3,0.4
			c-0.2,0.8,1.7,1.8,2.3,2.1C502.4,421.5,503.9,421.6,505.1,421.6z"/>
		<path class="st7" d="M511.8,421.6c-0.8,1-2.1,1.6-3.4,1.7c-1.3,0.1-2.6-0.1-3.8-0.5c-1-0.3-1.9-0.6-2.9-0.9
			c-0.7-0.2-1.5-0.5-2.1-1s-1.1-1.1-1.3-1.9c1.5,0.6,3.1,1.1,4.7,1.3c2.1,0.3,4.4,0.1,6.4-0.9c0.7-0.4,1.5-1.3,2.3-0.8
			C512.8,419.3,512.4,420.9,511.8,421.6z"/>
		<path class="st7" d="M510.8,409.5c-2.7,0-5.3,1.2-7.4,3c-2.1,1.8-3.7,4-5.2,6.2c-0.1,0.1-0.2,0.3-0.1,0.5c0.1,0.1,0.3,0.1,0.4,0.1
			c2.5-0.6,4.4-2.6,6.4-4.1c1.7-1.2,3.5-2.1,5.6-2.6C512.2,412,513.4,409.6,510.8,409.5z"/>
		<ellipse transform="matrix(0.751 -0.6603 0.6603 0.751 -140.8698 421.9556)" class="st4" cx="489" cy="397.8" rx="1.9" ry="2.4"/>
		<ellipse transform="matrix(0.751 -0.6603 0.6603 0.751 -130.6095 431.5583)" class="st4" cx="506.9" cy="389" rx="1.9" ry="2.4"/>
		<path class="st4" d="M415.1,463.5c0,0,23.3,17.1,43.4,12.9l54.2-22.8l-3.1-9.1"/>
	</g>
	<path class="st5" d="M611,597.6l4.7,2.8c0,0,29.3,10.3,35,35.7l12.7,93.5h-13.5l-28.5-84.6c0,0-9.2-22-32.2-17.8
		C589.1,627.2,600.8,598.9,611,597.6z"/>
	<path class="st5" d="M527.9,655.4c0,0,8.2,46.5-1.2,61c0,0-6.2,8-23.8,7.2l-82-5.9l2-13.1l64.2-7.2c0,0,11-0.5,12-14
		c0,0-1.8-31-4.5-32.2L527.9,655.4z"/>
	<path class="st6" d="M654.4,756.7l4.8-1.5l-3.5-16l19.2,11.5l33.9-7.5c0,0-0.9-5-8.4-5.5c0,0-23.8,2.8-35.8-12.8c0,0-12.8,3-18,0
		c0,0-0.8,8.2,3.5,13.2C650.1,738.2,652.6,740.2,654.4,756.7z"/>
	<path class="st6" d="M399,708.4h17.2l-15.2,16.5l2.2,35c0,0,6.5-0.2,7.2-8.2c0,0,0.2-21.2,19-32l3-18c0,0-8.5-2-13.5,0
		c0,0-8.1,2.8-19.9,2.5V708.4z"/>
	<path class="st5" d="M595.2,501.6l5.7-0.8c0,0,6.3-4.5,11.2-4c4.8,0.5,6.8,10,6.8,10s0.1,6.4,8.8,8.2c0,0,0.5,2.8-4.5,2.3
		c0,0-3-0.8-6.8-2c0,0-2.3-0.8-3.3-1.5c0,0-10.6-4.7-14.3-1.7C598.7,512.1,591.8,511.2,595.2,501.6z"/>
	<path class="st8" d="M530.4,445.7l42,25.6l26.7-5.6v13.2l-25,7c0,0-4.3,2.7-9.3,0l-35.4-17.5c0,0,10,22.5-1.7,32.5c0,0-1,33.9,7,41
		l101.7,47c0,0-59.8,85.3-173,80.3l15-110c0,0-2.5-30.1-23.7-67.7c0,0,53.8-40.7,53.1-47.4C507.8,444.2,527.2,443.1,530.4,445.7z"/>
	<path class="st3" d="M473.4,449.2c0,0-34.5,10.9-31,30.9c0,0,1,11.7,31,31.1c0,0,33,22.7,43.8,21.9l86-20c0,0-4.1-8.4-3.5-14
		l-78.2,13.5c0,0-22.8-5.5-42-23.3C479.4,489.4,468.9,462.3,473.4,449.2z"/>
	<path class="st8" d="M473.4,449.2c0,0-34.5,10.9-31,30.9c0,0,1,11.7,31,31.1c0,0,33,22.7,43.8,21.9l86-20c0,0-4.1-8.4-3.5-14
		l-78.2,13.5c0,0-22.8-5.5-42-23.3"/>
	<path class="st5" d="M473.4,449.2c0,0,3.3-2.8,3.2-8.4c0,0,17.9,8,27.1,0.9c0,0,3.2,3.4,8.6,3.5l-7.5,9.1l-10.8,2.8
		C494.1,457.2,476.5,457.8,473.4,449.2z"/>
	<polyline class="st7" points="507.8,444.2 511.7,494.2 520.4,471.3 515.1,465.7 520.9,461 522.6,444.1 	"/>
	<path class="st7" d="M451.8,460.6l23.3,15l12,0.9v8.3l24.7,9.3l-38.3-45C473.4,449.2,459,452.6,451.8,460.6z"/>
	<path class="st5" d="M473.4,449.2l38.3,45l-4-49C507.7,445.2,501.4,457.6,473.4,449.2z"/>
	<path class="st7" d="M718.4,254.2l40,52.3l-112.3,84.7c0,0-23.7,19.2-3.4,51.7c0,0,19.8,28.2,51.8,6l109.5-81.8l38.8,51.5
		l-110,83.8c0,0-47.8,40.3-99.2,15.8c0,0-35.5-17.5-55-53.3c0,0-27-42.5-5-88c0,0,13.5-27.2,47.8-48.5l63.8-48.7L718.4,254.2z"/>
	<polygon class="st5" points="665,294.8 704.8,346.9 738.4,321.6 698.4,269.2 	"/>
	<polygon class="st5" points="750.1,407.4 789,459.3 822.6,433.7 783.9,382.2 	"/>
	<polygon class="st6" points="728.1,195.2 744.7,173.2 739.7,191.6 750.7,195.2 730.7,230.6 738.4,201.9 	"/>
	<polygon class="st6" points="874.1,416.6 913.4,408.9 913.4,420.7 930.1,420.7 906.1,428.2 903.7,416.6 	"/>
	<g>
		<circle class="st5" cx="1023.5" cy="77.9" r="47.7"/>
		<path class="st9" d="M995.1,101.3c1.9-4.1,4-7.9,5-10.6c2-5.4,3.4-11,4.3-16.7c0.7-4,0.3-7.8,0.4-11.6c0-1.4,0.1-2.8,0.3-4.2
			c1.6-11.4,11.5-21.4,23.6-19.5c12.9,2,19.3,11.5,20.6,24.3c0.4,4.4-0.3,8,0.9,12.2c1.4,4.5,2.9,9,4.1,13.6
			c1.3,4.9,2.6,9.8,3.7,14.7c1.2,1,2.2,2.2,2.9,3.8c6.3-8.1,10.1-18.3,10.1-29.3c0-26.3-21.3-47.7-47.7-47.7
			c-26.3,0-47.7,21.3-47.7,47.7c0,12.3,4.7,23.6,12.4,32C989.9,106.5,992.3,103.1,995.1,101.3z"/>
		<path class="st4" d="M999.6,99.6C999.6,99.6,999.6,99.6,999.6,99.6C999.6,99.6,999.6,99.6,999.6,99.6c2.3-0.5,4.6-0.5,7.2-1.5
			c0.3-0.1,2-1.2,3.6-2.2l2.6-2.1l0.9-2.5l0.1,0.2c0.7-1.9,2-6.4,1.2-11.3c0-0.2,0-0.4,0-0.5c-0.9-1.4-1.6-2.9-1.9-4.6
			c-0.1-0.5-0.4-1.2-0.9-1.2c-1.7-0.1-2.6-3.1-2.9-5c2.8-2.2,6.5-3.4,9.5-5.1c2.6-1.5,7.8-5.2,8-5.1v0c1.7-0.8,3.4-1.4,4.9-2.5
			c1.2-0.9,6-3.1,5.9-4.8c0.2,2,1.2,3.6,1.7,5.5c0.6,2.1,1.4,4.1,1.8,6.2c0.8,4,0.8,8.6-0.5,12.5c-1.1,3.1-3.1,5.6-5.4,7.9
			c-0.2,1.7-0.4,4.8,0.2,7.6c0,0.1,0,0.1,0,0.2l0,0l0.9,2.5l3.1,2.5c0.2,0.1,0.5,0.4,0.7,0.8c3.9,1.5,9,2.6,9.6,2.8
			c3.4,1,6.1,2,8.1,3.7c-1-4.9-2.4-9.8-3.7-14.7c-1.2-4.6-2.8-9-4.1-13.6c-1.3-4.2-0.5-7.9-0.9-12.2c-1.3-12.8-7.7-22.2-20.6-24.3
			c-12.1-1.9-22,8-23.6,19.5c-0.2,1.4-0.3,2.8-0.3,4.2c-0.1,3.8,0.2,7.7-0.4,11.6c-0.9,5.7-2.4,11.3-4.3,16.7c-1,2.6-3.1,6.5-5,10.6
			c0.3-0.2,0.6-0.4,0.9-0.5C997.3,100.1,998.5,99.8,999.6,99.6z"/>
		<path class="st5" d="M1024.9,101.2c1.7,0,6.4-3.1,8.9-6.4l2-3.6c0-0.1,0-0.1,0-0.2c-0.6-2.8-0.4-5.9-0.2-7.6
			c-0.4,0.4-0.8,0.7-1.1,1.1c-0.2,0.2-0.4,0.4-0.6,0.5c-2.2,2-4.5,2.9-6.6,2.9c-2.2,0.1-4.4-0.9-6.6-2.9c-0.2-0.2-0.4-0.4-0.6-0.5
			c-1.7-1.5-3.3-3.1-4.5-4.9c0,0.2,0,0.3,0,0.5c0.7,4.9-0.5,9.4-1.2,11.3l1.9,3.4C1018.2,98,1023.1,101.2,1024.9,101.2z"/>
		<path class="st5" d="M1019.9,84.4c0.2,0.2,0.4,0.4,0.6,0.5c2.2,2,4.5,2.9,6.6,2.9c2.2,0.1,4.4-0.9,6.6-2.9
			c0.2-0.2,0.4-0.4,0.6-0.5c0.4-0.4,0.8-0.7,1.1-1.1c2.3-2.2,4.3-4.8,5.4-7.9c1.3-3.9,1.3-8.5,0.5-12.5c-0.4-2.1-1.3-4.1-1.8-6.2
			c-0.5-1.9-1.5-3.5-1.7-5.5c0.2,1.7-4.6,3.9-5.9,4.8c-1.5,1-3.2,1.6-4.9,2.5v0c-0.1-0.1-5.3,3.6-8,5.1c-3,1.7-6.8,2.9-9.5,5.1
			c0.3,1.8,1.2,4.9,2.9,5c0.5,0,0.8,0.7,0.9,1.2c0.3,1.7,1,3.2,1.9,4.6C1016.6,81.3,1018.2,82.9,1019.9,84.4z"/>
		<path class="st8" d="M1029.2,107.5l-1.3-1.6l-1,2c-0.2,0.4-0.3,0.9-0.2,1.4l1.9,8.6l1.2-3.9l1.2-3.7l-0.7-1.3
			C1029.9,108.5,1029.6,108,1029.2,107.5z"/>
		<path class="st8" d="M1019.5,109l-0.7,1.3l1.2,3.7l1.2,3.9l1.9-8.6c0.1-0.5,0-1-0.2-1.4l-1-2l-1.3,1.6
			C1020.2,108,1019.8,108.5,1019.5,109z"/>
		<path class="st10" d="M1058.1,103.5c-2-1.7-4.7-2.6-8.1-3.7c-0.6-0.2-5.7-1.3-9.6-2.8c1.3,2.4,2.4,9.2,2.9,10.7l-5.7-0.6
			c0,0,4.2,7.4,4.2,7.5c0.1,0.3-2.7,4.4-6,9.4c10.2-2.7,19-8.7,25.3-16.7C1060.3,105.7,1059.3,104.4,1058.1,103.5z"/>
		<path class="st10" d="M1008,114.6c0,0,4.2-7.5,4.2-7.5l-5.7,0.6c0.6-1.8,1.9-10.6,3.6-11.5l0.5-0.4c-1.6,1-3.3,2-3.6,2.2
			c-2.6,1-4.9,1.1-7.2,1.5c0,0,0,0,0,0c0.9,5.5,1.2,11,1.1,16.5c0,1.3,0,2.5,0.1,3.8c4.2,2.3,8.7,3.9,13.5,4.8
			C1010.8,119.4,1007.8,114.9,1008,114.6z"/>
		<path class="st7" d="M1028.5,117.8l-1.9-8.6c-0.1-0.5,0-1,0.2-1.4l1-2l-3-3.8l-3,3.8l1,2c0.2,0.4,0.3,0.9,0.2,1.4l-1.9,8.6
			l2.4,7.8c0.9,0,1.8,0,2.7-0.1L1028.5,117.8z"/>
		<path class="st5" d="M1035.7,91.2l-2,3.6c-2.5,3.3-7.1,6.4-8.9,6.4c-1.7,0-6.6-3.2-8.9-6.4l-1.9-3.4l-0.1-0.2l-0.9,2.5l0.1-0.1
			l5.6,16.6l0.7-1.3c0.3-0.5,0.6-1,1-1.4l1.3-1.6l3-3.8l3,3.8l1.3,1.6c0.4,0.4,0.7,0.9,1,1.4l0.7,1.3l5.6-16.6l0.1,0.1L1035.7,91.2
			L1035.7,91.2z"/>
		<path class="st5" d="M1041.8,114.6c0,0-4.2-7.5-4.2-7.5l5.7,0.6c-0.5-1.6-1.5-8.3-2.9-10.7c-0.2-0.4-0.4-0.7-0.7-0.8l-3.1-2.5
			l-0.1-0.1l-5.6,16.6l-1.2,3.7l-1.2,3.9l-2.3,7.7c3.3-0.2,6.5-0.7,9.5-1.5C1039.1,119,1041.9,114.9,1041.8,114.6z"/>
		<path class="st5" d="M1021.2,117.8l-1.2-3.9l-1.2-3.7l-5.6-16.6l-0.1,0.1l-2.6,2.1l-0.5,0.4c-1.7,0.9-3,9.7-3.6,11.5l5.7-0.6
			c0,0-4.2,7.4-4.2,7.5c-0.2,0.3,2.9,4.8,6.4,10.1c2.9,0.6,6,0.9,9.1,0.9c0,0,0.1,0,0.1,0L1021.2,117.8z"/>
		<path class="st10" d="M999.6,99.6C999.6,99.6,999.6,99.6,999.6,99.6c-1.2,0.2-2.3,0.6-3.6,1.2c-0.3,0.2-0.6,0.3-0.9,0.5
			c-2.8,1.8-5.2,5.2-7,8.7c3.6,4,7.9,7.3,12.6,9.9c-0.1-1.3-0.1-2.5-0.1-3.8C1000.9,110.6,1000.6,105,999.6,99.6z"/>
		<path class="st11" d="M1032.9,65.7c1.6-0.7,3.6-0.7,5.2,0"/>
		<path class="st11" d="M1018.9,65.7c1.6-0.7,3.6-0.7,5.2,0"/>
		<circle class="st4" cx="1035.2" cy="68.9" r="1.4"/>
		<circle class="st4" cx="1022.2" cy="68.9" r="1.4"/>
		<path class="st11" d="M1023.5,79.1c0,0,4.4,4.2,8.9,0.4"/>
		<path class="st11" d="M1029.7,67.7c-0.3,1.3-0.3,2.6-0.1,3.9c0.2,1,0.5,1.9,0.7,2.9c0.1,0.5,0.2,1,0,1.5c-0.2,0.5-0.8,0.8-1.2,0.5
			"/>
	</g>
	<g>
		<circle class="st5" cx="1136.3" cy="539.7" r="22.1"/>
		<path class="st9" d="M1123.2,550.5c0.9-1.9,1.9-3.7,2.3-4.9c0.9-2.5,1.6-5.1,2-7.8c0.3-1.8,0.2-3.6,0.2-5.4c0-0.6,0-1.3,0.1-2
			c0.7-5.3,5.4-9.9,10.9-9c6,0.9,9,5.3,9.6,11.3c0.2,2-0.2,3.7,0.4,5.7c0.6,2.1,1.3,4.2,1.9,6.3c0.6,2.3,1.2,4.5,1.7,6.8
			c0.6,0.5,1,1,1.4,1.8c2.9-3.8,4.7-8.5,4.7-13.6c0-12.2-9.9-22.1-22.1-22.1c-12.2,0-22.1,9.9-22.1,22.1c0,5.7,2.2,10.9,5.7,14.9
			C1120.8,552.9,1121.9,551.3,1123.2,550.5z"/>
		<path class="st4" d="M1125.3,549.7C1125.3,549.7,1125.3,549.7,1125.3,549.7C1125.3,549.7,1125.3,549.7,1125.3,549.7
			c1.1-0.2,2.1-0.2,3.4-0.7c0.2-0.1,1-0.5,1.7-1l1.2-1l0.4-1.2l0,0.1c0.3-0.9,0.9-2.9,0.6-5.2c0-0.1,0-0.2,0-0.2
			c-0.4-0.6-0.8-1.3-0.9-2.1c0-0.2-0.2-0.5-0.4-0.5c-0.8,0-1.2-1.5-1.3-2.3c1.3-1,3-1.6,4.4-2.4c1.2-0.7,3.6-2.4,3.7-2.4v0
			c0.8-0.4,1.6-0.7,2.3-1.1c0.6-0.4,2.8-1.4,2.7-2.2c0.1,0.9,0.6,1.7,0.8,2.5c0.3,1,0.7,1.9,0.9,2.9c0.4,1.8,0.4,4-0.2,5.8
			c-0.5,1.4-1.4,2.6-2.5,3.6c-0.1,0.8-0.2,2.2,0.1,3.5c0,0,0,0.1,0,0.1l0,0l0.4,1.2l1.5,1.2c0.1,0.1,0.2,0.2,0.3,0.4
			c1.8,0.7,4.2,1.2,4.5,1.3c1.6,0.5,2.8,0.9,3.8,1.7c-0.5-2.3-1.1-4.6-1.7-6.8c-0.6-2.1-1.3-4.2-1.9-6.3c-0.6-2-0.2-3.7-0.4-5.7
			c-0.6-5.9-3.6-10.3-9.6-11.3c-5.6-0.9-10.2,3.7-10.9,9c-0.1,0.7-0.1,1.3-0.1,2c0,1.8,0.1,3.6-0.2,5.4c-0.4,2.6-1.1,5.2-2,7.8
			c-0.4,1.2-1.4,3-2.3,4.9c0.1-0.1,0.3-0.2,0.4-0.2C1124.2,550,1124.8,549.8,1125.3,549.7z"/>
		<path class="st5" d="M1137,550.5c0.8,0,3-1.4,4.1-3l0.9-1.7c0,0,0-0.1,0-0.1c-0.3-1.3-0.2-2.7-0.1-3.5c-0.2,0.2-0.4,0.3-0.5,0.5
			c-0.1,0.1-0.2,0.2-0.3,0.2c-1,0.9-2.1,1.4-3.1,1.3c-1,0-2-0.4-3.1-1.3c-0.1-0.1-0.2-0.2-0.3-0.2c-0.8-0.7-1.5-1.4-2.1-2.3
			c0,0.1,0,0.2,0,0.2c0.3,2.3-0.2,4.3-0.6,5.2l0.9,1.6C1133.9,549,1136.2,550.5,1137,550.5z"/>
		<path class="st5" d="M1134.7,542.7c0.1,0.1,0.2,0.2,0.3,0.2c1,0.9,2.1,1.4,3.1,1.3c1,0,2-0.4,3.1-1.3c0.1-0.1,0.2-0.2,0.3-0.2
			c0.2-0.2,0.4-0.3,0.5-0.5c1.1-1,2-2.2,2.5-3.6c0.6-1.8,0.6-3.9,0.2-5.8c-0.2-1-0.6-1.9-0.9-2.9c-0.2-0.9-0.7-1.6-0.8-2.5
			c0.1,0.8-2.1,1.8-2.7,2.2c-0.7,0.5-1.5,0.8-2.3,1.1v0c-0.1,0-2.5,1.7-3.7,2.4c-1.4,0.8-3.1,1.3-4.4,2.4c0.2,0.9,0.5,2.3,1.3,2.3
			c0.2,0,0.4,0.3,0.4,0.5c0.1,0.8,0.5,1.5,0.9,2.1C1133.1,541.3,1133.9,542,1134.7,542.7z"/>
		<path class="st8" d="M1139,553.4l-0.6-0.8l-0.5,0.9c-0.1,0.2-0.1,0.4-0.1,0.7l0.9,4l0.5-1.8l0.6-1.7l-0.3-0.6
			C1139.3,553.8,1139.2,553.6,1139,553.4z"/>
		<path class="st8" d="M1134.5,554.1l-0.3,0.6l0.6,1.7l0.5,1.8l0.9-4c0-0.2,0-0.5-0.1-0.7l-0.5-0.9l-0.6,0.8
			C1134.8,553.6,1134.6,553.8,1134.5,554.1z"/>
		<path class="st10" d="M1152.4,551.5c-0.9-0.8-2.2-1.2-3.8-1.7c-0.3-0.1-2.7-0.6-4.5-1.3c0.6,1.1,1.1,4.3,1.3,5l-2.6-0.3
			c0,0,1.9,3.5,1.9,3.5c0.1,0.1-1.2,2-2.8,4.4c4.7-1.3,8.8-4,11.7-7.8C1153.4,552.5,1153,552,1152.4,551.5z"/>
		<path class="st10" d="M1129.1,556.7c0,0,1.9-3.5,1.9-3.5l-2.6,0.3c0.3-0.8,0.9-4.9,1.6-5.4l0.2-0.2c-0.7,0.5-1.5,0.9-1.7,1
			c-1.2,0.5-2.3,0.5-3.4,0.7c0,0,0,0,0,0c0.4,2.5,0.6,5.1,0.5,7.7c0,0.6,0,1.2,0,1.8c1.9,1,4,1.8,6.3,2.2
			C1130.5,558.9,1129.1,556.8,1129.1,556.7z"/>
		<path class="st7" d="M1138.7,558.2l-0.9-4c0-0.2,0-0.5,0.1-0.7l0.5-0.9l-1.4-1.7l-1.4,1.7l0.5,0.9c0.1,0.2,0.1,0.4,0.1,0.7l-0.9,4
			l1.1,3.6c0.4,0,0.8,0,1.2,0L1138.7,558.2z"/>
		<path class="st5" d="M1142,545.9l-0.9,1.7c-1.1,1.5-3.3,2.9-4.1,3c-0.8,0-3.1-1.5-4.1-3l-0.9-1.6l0-0.1l-0.4,1.2l0,0l2.6,7.7
			l0.3-0.6c0.1-0.2,0.3-0.5,0.5-0.7l0.6-0.8l1.4-1.7l1.4,1.7l0.6,0.8c0.2,0.2,0.3,0.4,0.5,0.7l0.3,0.6l2.6-7.7l0,0L1142,545.9
			L1142,545.9z"/>
		<path class="st5" d="M1144.8,556.7c0,0-1.9-3.5-1.9-3.5l2.6,0.3c-0.2-0.7-0.7-3.9-1.3-5c-0.1-0.2-0.2-0.3-0.3-0.4l-1.5-1.2l0,0
			l-2.6,7.7l-0.6,1.7l-0.5,1.8l-1.1,3.6c1.5-0.1,3-0.3,4.4-0.7C1143.6,558.7,1144.9,556.8,1144.8,556.7z"/>
		<path class="st5" d="M1135.3,558.2l-0.5-1.8l-0.6-1.7l-2.6-7.7l0,0l-1.2,1l-0.2,0.2c-0.8,0.4-1.4,4.5-1.6,5.4l2.6-0.3
			c0,0-1.9,3.5-1.9,3.5c-0.1,0.1,1.3,2.2,3,4.7c1.4,0.3,2.8,0.4,4.2,0.4c0,0,0,0,0,0L1135.3,558.2z"/>
		<path class="st10" d="M1125.3,549.7C1125.3,549.7,1125.3,549.7,1125.3,549.7c-0.5,0.1-1.1,0.3-1.7,0.5c-0.1,0.1-0.3,0.2-0.4,0.2
			c-1.3,0.8-2.4,2.4-3.2,4c1.7,1.8,3.7,3.4,5.9,4.6c0-0.6-0.1-1.2,0-1.8C1125.9,554.8,1125.7,552.2,1125.3,549.7z"/>
		<path class="st11" d="M1140.7,534c0.8-0.3,1.7-0.3,2.4,0"/>
		<path class="st11" d="M1134.2,534c0.8-0.3,1.7-0.3,2.4,0"/>
		<circle class="st4" cx="1141.8" cy="535.5" r="0.6"/>
		<circle class="st4" cx="1135.8" cy="535.5" r="0.6"/>
		<path class="st11" d="M1136.3,540.2c0,0,2,2,4.1,0.2"/>
		<path class="st11" d="M1139.2,534.9c-0.1,0.6-0.2,1.2-0.1,1.8c0.1,0.5,0.2,0.9,0.3,1.3c0,0.2,0.1,0.5,0,0.7
			c-0.1,0.2-0.4,0.4-0.6,0.3"/>
	</g>
	<g>
		<circle class="st5" cx="229.4" cy="456.2" r="22.1"/>
		<path class="st9" d="M216.2,467.1c0.9-1.9,1.9-3.7,2.3-4.9c0.9-2.5,1.6-5.1,2-7.8c0.3-1.8,0.2-3.6,0.2-5.4c0-0.6,0-1.3,0.1-2
			c0.7-5.3,5.4-9.9,10.9-9c6,0.9,9,5.3,9.6,11.3c0.2,2.2-0.2,4,0.6,6.1c0.4,1,0.7,1.9,1,3c0.8,3.2,1.8,6.4,2.5,9.7
			c0.6,0.5,1,1,1.4,1.8c3.2-4,5-9.2,4.7-14.8c-0.6-11.1-9.6-20.2-20.7-20.9c-12.8-0.8-23.5,9.4-23.5,22.1c0,5.7,2.2,10.9,5.7,14.9
			C213.8,469.5,214.9,467.9,216.2,467.1z"/>
		<path class="st4" d="M218.3,466.3C218.3,466.3,218.3,466.3,218.3,466.3C218.3,466.3,218.3,466.3,218.3,466.3
			c1.1-0.2,2.1-0.2,3.4-0.7c0.2-0.1,1-0.5,1.7-1l1.2-1l0.4-1.2l0,0.1c0.3-0.9,0.9-2.9,0.6-5.2c0-0.1,0-0.2,0-0.2
			c-0.4-0.6-0.8-1.4-0.9-2.2c0-0.3-0.2-0.5-0.5-0.5c-0.8-0.1-1.1-1.5-1.3-2.3c1.3-1,3-1.6,4.4-2.4c1.2-0.7,3.6-2.4,3.7-2.4v0
			c0.8-0.4,1.6-0.7,2.3-1.1c0.6-0.4,2.8-1.4,2.7-2.2c0.1,0.9,0.6,1.7,0.8,2.5c0.3,1,0.7,1.9,0.9,2.9c0.4,1.8,0.4,4-0.2,5.8
			c-0.5,1.4-1.4,2.6-2.5,3.6c-0.1,0.8-0.2,2.2,0.1,3.5c0,0,0,0.1,0,0.1l0,0l0.4,1.2l1.5,1.2c0.1,0.1,0.2,0.2,0.3,0.4
			c1.8,0.7,4.2,1.2,4.5,1.3c1.6,0.5,2.8,0.9,3.8,1.7c-0.7-3.3-1.6-6.5-2.5-9.7c-0.3-1-0.6-2-1-3c-0.8-2.2-0.4-4-0.6-6.1
			c-0.6-5.9-3.6-10.3-9.6-11.3c-5.6-0.9-10.2,3.7-10.9,9c-0.1,0.7-0.1,1.3-0.1,2c0,1.8,0.1,3.6-0.2,5.4c-0.4,2.6-1.1,5.2-2,7.8
			c-0.4,1.2-1.4,3-2.3,4.9c0.1-0.1,0.3-0.2,0.4-0.2C217.3,466.5,217.8,466.4,218.3,466.3z"/>
		<path class="st5" d="M230,467c0.8,0,3-1.4,4.1-3l0.9-1.7c0,0,0,0,0,0c-0.3-1.3-0.2-2.8-0.1-3.6c-0.2,0.2-0.4,0.3-0.5,0.5
			c-0.1,0.1-0.2,0.2-0.3,0.2c-1,0.9-2.1,1.4-3.1,1.3c-1,0-2-0.4-3.1-1.3c-0.1-0.1-0.2-0.2-0.3-0.2c-0.8-0.7-1.5-1.4-2.1-2.3
			c0,0.1,0,0.2,0,0.2c0.3,2.3-0.2,4.3-0.6,5.2l0.9,1.6C227,465.5,229.2,467,230,467z"/>
		<path class="st5" d="M227.7,459.3c0.1,0.1,0.2,0.2,0.3,0.2c1,0.9,2.1,1.4,3.1,1.3c1,0,2-0.4,3.1-1.3c0.1-0.1,0.2-0.2,0.3-0.2
			c0.2-0.2,0.4-0.3,0.5-0.5c1.1-1,2-2.2,2.5-3.6c0.6-1.8,0.6-3.9,0.2-5.8c-0.2-1-0.6-1.9-0.9-2.9c-0.2-0.9-0.7-1.6-0.8-2.5
			c0.1,0.8-2.1,1.8-2.7,2.2c-0.7,0.5-1.5,0.8-2.3,1.1v0c-0.1,0-2.5,1.7-3.7,2.4c-1.4,0.8-3.1,1.3-4.4,2.4c0.2,0.8,0.5,2.2,1.3,2.3
			c0.3,0,0.4,0.3,0.5,0.5c0.1,0.8,0.5,1.5,0.9,2.2C226.2,457.8,226.9,458.5,227.7,459.3z"/>
		<path class="st8" d="M232.1,470l-0.6-0.8l-0.5,0.9c-0.1,0.2-0.1,0.4-0.1,0.6l0.9,4l0.5-1.8l0.6-1.7l-0.3-0.6
			C232.4,470.4,232.2,470.2,232.1,470z"/>
		<path class="st8" d="M227.6,470.6l-0.3,0.6l0.6,1.7l0.5,1.8l0.9-4c0-0.2,0-0.5-0.1-0.7l-0.5-0.9L228,470
			C227.9,470.2,227.7,470.4,227.6,470.6z"/>
		<path class="st10" d="M245.5,468.1c-0.9-0.8-2.2-1.2-3.8-1.7c-0.3-0.1-2.7-0.6-4.5-1.3c0.6,1.1,1.1,4.3,1.3,5l-2.6-0.3
			c0,0,1.9,3.5,1.9,3.5c0.1,0.1-1.2,2-2.8,4.4c4.7-1.3,8.8-4,11.7-7.8C246.5,469.1,246,468.5,245.5,468.1z"/>
		<path class="st10" d="M222.2,473.2c0,0,1.9-3.5,1.9-3.5l-2.6,0.3c0.3-0.8,0.9-4.9,1.6-5.4l0.2-0.2c-0.7,0.5-1.5,0.9-1.7,1
			c-1.2,0.5-2.3,0.5-3.4,0.7c0,0,0,0,0,0c0.4,2.5,0.6,5.1,0.5,7.7c0,0.6,0,1.2,0,1.8c1.9,1,4,1.8,6.3,2.2
			C223.5,475.5,222.1,473.4,222.2,473.2z"/>
		<path class="st7" d="M231.7,474.7l-0.9-4c0-0.2,0-0.5,0.1-0.6l0.5-0.9l-1.4-1.7l-1.4,1.7l0.5,0.9c0.1,0.2,0.1,0.4,0.1,0.7l-0.9,4
			l1.1,3.6c0.4,0,0.8,0,1.2,0L231.7,474.7z"/>
		<path class="st5" d="M235.1,462.4l-0.9,1.7c-1.1,1.5-3.3,2.9-4.1,3c-0.8,0-3.1-1.5-4.1-3l-0.9-1.6l0-0.1l-0.4,1.2l0,0l2.6,7.7
			l0.3-0.6c0.1-0.2,0.3-0.5,0.5-0.7l0.6-0.8l1.4-1.7l1.4,1.7l0.6,0.8c0.2,0.2,0.3,0.4,0.5,0.7l0.3,0.6l2.6-7.7l0,0L235.1,462.4
			L235.1,462.4z"/>
		<path class="st5" d="M237.9,473.2c0,0-1.9-3.5-1.9-3.5l2.6,0.3c-0.2-0.7-0.7-3.9-1.3-5c-0.1-0.2-0.2-0.3-0.3-0.4l-1.5-1.2l0,0
			l-2.6,7.7l-0.6,1.7l-0.5,1.8l-1.1,3.6c1.5-0.1,3-0.3,4.4-0.7C236.7,475.3,238,473.4,237.9,473.2z"/>
		<path class="st5" d="M228.3,474.7l-0.5-1.8l-0.6-1.7l-2.6-7.7l0,0l-1.2,1l-0.2,0.2c-0.8,0.4-1.4,4.5-1.6,5.4l2.6-0.3
			c0,0-1.9,3.5-1.9,3.5c-0.1,0.1,1.3,2.2,3,4.7c1.4,0.3,2.8,0.4,4.3,0.4c0,0,0,0,0,0L228.3,474.7z"/>
		<path class="st10" d="M218.3,466.3L218.3,466.3c-0.5,0.1-1.1,0.3-1.7,0.5c-0.1,0.1-0.3,0.2-0.4,0.2c-1.3,0.8-2.4,2.4-3.2,4
			c1.7,1.8,3.7,3.4,5.9,4.6c0-0.6-0.1-1.2,0-1.8C218.9,471.3,218.7,468.8,218.3,466.3z"/>
		<path class="st11" d="M233.8,450.6c0.8-0.3,1.7-0.3,2.4,0"/>
		<path class="st11" d="M227.3,450.6c0.8-0.3,1.7-0.3,2.4,0"/>
		<circle class="st4" cx="234.9" cy="452" r="0.6"/>
		<circle class="st4" cx="228.8" cy="452" r="0.6"/>
		<path class="st11" d="M229.4,456.8c0,0,2,2,4.1,0.2"/>
		<path class="st11" d="M232.3,451.5c-0.1,0.6-0.2,1.2-0.1,1.8c0.1,0.5,0.2,0.9,0.3,1.3c0,0.2,0.1,0.5,0,0.7
			c-0.1,0.2-0.4,0.4-0.6,0.3"/>
	</g>
	<g>
		<circle class="st5" cx="327.9" cy="363" r="22.1"/>
		<path class="st9" d="M314.8,373.9c0.9-1.9,1.9-3.7,2.3-4.9c0.9-2.5,1.6-5.1,2-7.8c0.3-1.8,0.2-3.6,0.2-5.4c0-0.6,0-1.3,0.1-2
			c0.7-5.3,5.4-9.9,10.9-9c6,0.9,9,5.3,9.6,11.3c0.2,2.2-0.2,4,0.6,6.1c0.4,1,0.7,1.9,1,3c0.8,3.2,1.8,6.4,2.5,9.7
			c0.6,0.5,1,1,1.4,1.8c3.2-4,5-9.2,4.7-14.8c-0.6-11.1-9.6-20.2-20.7-20.9c-12.8-0.8-23.5,9.4-23.5,22.1c0,5.7,2.2,10.9,5.7,14.9
			C312.4,376.3,313.5,374.7,314.8,373.9z"/>
		<path class="st4" d="M316.9,373.1C316.9,373.1,316.9,373.1,316.9,373.1C316.9,373.1,316.9,373.1,316.9,373.1
			c1.1-0.2,2.1-0.2,3.4-0.7c0.2-0.1,1-0.5,1.7-1l1.2-1l0.4-1.2l0,0.1c0.3-0.9,0.9-2.9,0.6-5.2c0-0.1,0-0.2,0-0.2
			c-0.4-0.6-0.8-1.4-0.9-2.2c0-0.3-0.2-0.5-0.5-0.5c-0.8-0.1-1.1-1.5-1.3-2.3c1.3-1,3-1.6,4.4-2.4c1.2-0.7,3.6-2.4,3.7-2.4v0
			c0.8-0.4,1.6-0.7,2.3-1.1c0.6-0.4,2.8-1.4,2.7-2.2c0.1,0.9,0.6,1.7,0.8,2.5c0.3,1,0.7,1.9,0.9,2.9c0.4,1.8,0.4,4-0.2,5.8
			c-0.5,1.4-1.4,2.6-2.5,3.6c-0.1,0.8-0.2,2.2,0.1,3.5c0,0,0,0.1,0,0.1l0,0l0.4,1.2l1.5,1.2c0.1,0.1,0.2,0.2,0.3,0.4
			c1.8,0.7,4.2,1.2,4.5,1.3c1.6,0.5,2.8,0.9,3.8,1.7c-0.7-3.3-1.6-6.5-2.5-9.7c-0.3-1-0.6-2-1-3c-0.8-2.2-0.4-4-0.6-6.1
			c-0.6-5.9-3.6-10.3-9.6-11.3c-5.6-0.9-10.2,3.7-10.9,9c-0.1,0.7-0.1,1.3-0.1,2c0,1.8,0.1,3.6-0.2,5.4c-0.4,2.6-1.1,5.2-2,7.8
			c-0.4,1.2-1.4,3-2.3,4.9c0.1-0.1,0.3-0.2,0.4-0.2C315.8,373.3,316.3,373.2,316.9,373.1z"/>
		<path class="st5" d="M328.6,373.8c0.8,0,3-1.4,4.1-3l0.9-1.7c0,0,0,0,0,0c-0.3-1.3-0.2-2.8-0.1-3.6c-0.2,0.2-0.4,0.3-0.5,0.5
			c-0.1,0.1-0.2,0.2-0.3,0.2c-1,0.9-2.1,1.4-3.1,1.3c-1,0-2-0.4-3.1-1.3c-0.1-0.1-0.2-0.2-0.3-0.2c-0.8-0.7-1.5-1.4-2.1-2.3
			c0,0.1,0,0.2,0,0.2c0.3,2.3-0.2,4.3-0.6,5.2l0.9,1.6C325.5,372.3,327.8,373.8,328.6,373.8z"/>
		<path class="st5" d="M326.2,366.1c0.1,0.1,0.2,0.2,0.3,0.2c1,0.9,2.1,1.4,3.1,1.3c1,0,2-0.4,3.1-1.3c0.1-0.1,0.2-0.2,0.3-0.2
			c0.2-0.2,0.4-0.3,0.5-0.5c1.1-1,2-2.2,2.5-3.6c0.6-1.8,0.6-3.9,0.2-5.8c-0.2-1-0.6-1.9-0.9-2.9c-0.2-0.9-0.7-1.6-0.8-2.5
			c0.1,0.8-2.1,1.8-2.7,2.2c-0.7,0.5-1.5,0.8-2.3,1.1v0c-0.1,0-2.5,1.7-3.7,2.4c-1.4,0.8-3.1,1.3-4.4,2.4c0.2,0.8,0.5,2.2,1.3,2.3
			c0.3,0,0.4,0.3,0.5,0.5c0.1,0.8,0.5,1.5,0.9,2.2C324.7,364.6,325.4,365.3,326.2,366.1z"/>
		<path class="st8" d="M330.6,376.8L330,376l-0.5,0.9c-0.1,0.2-0.1,0.4-0.1,0.6l0.9,4l0.5-1.8l0.6-1.7l-0.3-0.6
			C330.9,377.2,330.8,377,330.6,376.8z"/>
		<path class="st8" d="M326.1,377.4l-0.3,0.6l0.6,1.7l0.5,1.8l0.9-4c0-0.2,0-0.5-0.1-0.7l-0.5-0.9l-0.6,0.8
			C326.4,377,326.2,377.2,326.1,377.4z"/>
		<path class="st10" d="M344,374.9c-0.9-0.8-2.2-1.2-3.8-1.7c-0.3-0.1-2.7-0.6-4.5-1.3c0.6,1.1,1.1,4.3,1.3,5l-2.6-0.3
			c0,0,1.9,3.5,1.9,3.5c0.1,0.1-1.2,2-2.8,4.4c4.7-1.3,8.8-4,11.7-7.8C345,375.9,344.5,375.3,344,374.9z"/>
		<path class="st10" d="M320.7,380c0,0,1.9-3.5,1.9-3.5l-2.6,0.3c0.3-0.8,0.9-4.9,1.6-5.4l0.2-0.2c-0.7,0.5-1.5,0.9-1.7,1
			c-1.2,0.5-2.3,0.5-3.4,0.7c0,0,0,0,0,0c0.4,2.5,0.6,5.1,0.5,7.7c0,0.6,0,1.2,0,1.8c1.9,1,4,1.8,6.3,2.2
			C322,382.3,320.7,380.2,320.7,380z"/>
		<path class="st7" d="M330.3,381.5l-0.9-4c0-0.2,0-0.5,0.1-0.6l0.5-0.9l-1.4-1.7l-1.4,1.7l0.5,0.9c0.1,0.2,0.1,0.4,0.1,0.7l-0.9,4
			l1.1,3.6c0.4,0,0.8,0,1.2,0L330.3,381.5z"/>
		<path class="st5" d="M333.6,369.2l-0.9,1.7c-1.1,1.5-3.3,2.9-4.1,3c-0.8,0-3.1-1.5-4.1-3l-0.9-1.6l0-0.1l-0.4,1.2l0,0l2.6,7.7
			l0.3-0.6c0.1-0.2,0.3-0.5,0.5-0.7l0.6-0.8l1.4-1.7l1.4,1.7l0.6,0.8c0.2,0.2,0.3,0.4,0.5,0.7l0.3,0.6l2.6-7.7l0,0L333.6,369.2
			L333.6,369.2z"/>
		<path class="st5" d="M336.4,380c0,0-1.9-3.5-1.9-3.5l2.6,0.3c-0.2-0.7-0.7-3.9-1.3-5c-0.1-0.2-0.2-0.3-0.3-0.4l-1.5-1.2l0,0
			l-2.6,7.7l-0.6,1.7l-0.5,1.8l-1.1,3.6c1.5-0.1,3-0.3,4.4-0.7C335.2,382.1,336.5,380.2,336.4,380z"/>
		<path class="st5" d="M326.9,381.5l-0.5-1.8l-0.6-1.7l-2.6-7.7l0,0l-1.2,1l-0.2,0.2c-0.8,0.4-1.4,4.5-1.6,5.4l2.6-0.3
			c0,0-1.9,3.5-1.9,3.5c-0.1,0.1,1.3,2.2,3,4.7c1.4,0.3,2.8,0.4,4.3,0.4c0,0,0,0,0,0L326.9,381.5z"/>
		<path class="st10" d="M316.9,373.1L316.9,373.1c-0.5,0.1-1.1,0.3-1.7,0.5c-0.1,0.1-0.3,0.2-0.4,0.2c-1.3,0.8-2.4,2.4-3.2,4
			c1.7,1.8,3.7,3.4,5.9,4.6c0-0.6-0.1-1.2,0-1.8C317.4,378.1,317.2,375.6,316.9,373.1z"/>
		<path class="st11" d="M332.3,357.4c0.8-0.3,1.7-0.3,2.4,0"/>
		<path class="st11" d="M325.8,357.4c0.8-0.3,1.7-0.3,2.4,0"/>
		<circle class="st4" cx="333.4" cy="358.8" r="0.6"/>
		<circle class="st4" cx="327.3" cy="358.8" r="0.6"/>
		<path class="st11" d="M327.9,363.6c0,0,2,2,4.1,0.2"/>
		<path class="st11" d="M330.8,358.3c-0.1,0.6-0.2,1.2-0.1,1.8c0.1,0.5,0.2,0.9,0.3,1.3c0,0.2,0.1,0.5,0,0.7
			c-0.1,0.2-0.4,0.4-0.6,0.3"/>
	</g>
	<circle class="st5" cx="772.5" cy="47.9" r="47.7"/>
	<g>
		<path class="st9" d="M744.1,71.3c1.9-4.1,4-7.9,5-10.6c2-5.4,3.4-11,4.3-16.7c0.7-4,0.3-7.8,0.4-11.6c0-1.4,0.1-2.8,0.3-4.2
			c1.6-11.4,11.5-21.4,23.6-19.5c12.9,2,19.3,11.5,20.6,24.3c0.4,4.4-0.3,8,0.9,12.2c1.4,4.5,2.9,9,4.1,13.6
			c1.3,4.9,2.6,9.8,3.7,14.7c1.2,1,2.2,2.2,2.9,3.8c6.3-8.1,10.1-18.3,10.1-29.3c0-26.3-21.3-47.7-47.7-47.7
			c-26.3,0-47.7,21.3-47.7,47.7c0,12.3,4.7,23.6,12.4,32C738.9,76.5,741.3,73.1,744.1,71.3z"/>
		<path class="st4" d="M748.6,69.6C748.6,69.6,748.6,69.6,748.6,69.6C748.6,69.6,748.6,69.6,748.6,69.6c2.3-0.5,4.6-0.5,7.2-1.5
			c0.3-0.1,2-1.2,3.6-2.2l2.6-2.1l0.9-2.5l0.1,0.2c0.7-1.9,2-6.4,1.2-11.3c0-0.2,0-0.4,0-0.5c-0.9-1.4-1.6-2.9-1.9-4.6
			c-0.1-0.5-0.4-1.2-0.9-1.2c-1.7-0.1-2.6-3.1-2.9-5c2.8-2.2,6.5-3.4,9.5-5.1c2.6-1.5,7.8-5.2,8-5.1v0c1.7-0.8,3.4-1.4,4.9-2.5
			c1.2-0.9,6-3.1,5.9-4.8c0.2,2,1.2,3.6,1.7,5.5c0.6,2.1,1.4,4.1,1.8,6.2c0.8,4,0.8,8.6-0.5,12.5c-1.1,3.1-3.1,5.6-5.4,7.9
			c-0.2,1.7-0.4,4.8,0.2,7.6c0,0.1,0,0.1,0,0.2l0,0l0.9,2.5l3.1,2.5c0.2,0.1,0.5,0.4,0.7,0.8c3.9,1.5,9,2.6,9.6,2.8
			c3.4,1,6.1,2,8.1,3.7c-1-4.9-2.4-9.8-3.7-14.7c-1.2-4.6-2.8-9-4.1-13.6c-1.3-4.2-0.5-7.9-0.9-12.2c-1.3-12.8-7.7-22.2-20.6-24.3
			c-12.1-1.9-22,8-23.6,19.5c-0.2,1.4-0.3,2.8-0.3,4.2c-0.1,3.8,0.2,7.7-0.4,11.6c-0.9,5.7-2.4,11.3-4.3,16.7c-1,2.6-3.1,6.5-5,10.6
			c0.3-0.2,0.6-0.4,0.9-0.5C746.3,70.1,747.5,69.8,748.6,69.6z"/>
		<path class="st5" d="M773.9,71.2c1.7,0,6.4-3.1,8.9-6.4l2-3.6c0-0.1,0-0.1,0-0.2c-0.6-2.8-0.4-5.9-0.2-7.6
			c-0.4,0.4-0.8,0.7-1.1,1.1c-0.2,0.2-0.4,0.4-0.6,0.5c-2.2,2-4.5,2.9-6.6,2.9c-2.2,0.1-4.4-0.9-6.6-2.9c-0.2-0.2-0.4-0.4-0.6-0.5
			c-1.7-1.5-3.3-3.1-4.5-4.9c0,0.2,0,0.3,0,0.5c0.7,4.9-0.5,9.4-1.2,11.3l1.9,3.4C767.2,68,772.1,71.2,773.9,71.2z"/>
		<path class="st5" d="M768.9,54.4c0.2,0.2,0.4,0.4,0.6,0.5c2.2,2,4.4,2.9,6.6,2.9c2.2,0.1,4.4-0.9,6.6-2.9c0.2-0.2,0.4-0.4,0.6-0.5
			c0.4-0.4,0.8-0.7,1.1-1.1c2.3-2.2,4.3-4.8,5.4-7.9c1.3-3.9,1.3-8.5,0.5-12.5c-0.4-2.1-1.3-4.1-1.8-6.2c-0.5-1.9-1.5-3.5-1.7-5.5
			c0.2,1.7-4.6,3.9-5.9,4.8c-1.5,1-3.2,1.6-4.9,2.5v0c-0.1-0.1-5.3,3.6-8,5.1c-3,1.7-6.8,2.9-9.5,5.1c0.3,1.8,1.2,4.9,2.9,5
			c0.5,0,0.8,0.7,0.9,1.2c0.3,1.7,1,3.2,1.9,4.6C765.6,51.3,767.2,52.9,768.9,54.4z"/>
		<path class="st8" d="M778.2,77.5l-1.3-1.6l-1,2c-0.2,0.4-0.3,0.9-0.2,1.4l1.9,8.6l1.2-3.9l1.2-3.7l-0.7-1.3
			C778.9,78.5,778.6,78,778.2,77.5z"/>
		<path class="st8" d="M768.5,79l-0.7,1.3L769,84l1.2,3.9l1.9-8.6c0.1-0.5,0-1-0.2-1.4l-1-2l-1.3,1.6C769.2,78,768.8,78.5,768.5,79z
			"/>
		<path class="st12" d="M807.1,73.5c-2-1.7-4.7-2.6-8.1-3.7c-0.6-0.2-5.7-1.3-9.6-2.8c1.3,2.4,2.4,9.2,2.9,10.7l-5.7-0.6
			c0,0,4.2,7.4,4.2,7.5c0.1,0.3-2.7,4.4-6,9.4c10.2-2.7,19-8.7,25.3-16.7C809.3,75.7,808.3,74.4,807.1,73.5z"/>
		<path class="st12" d="M757,84.6c0,0,4.2-7.5,4.2-7.5l-5.7,0.6c0.6-1.8,1.9-10.6,3.6-11.5l0.5-0.4c-1.6,1-3.3,2-3.6,2.2
			c-2.6,1-4.9,1.1-7.2,1.5c0,0,0,0,0,0c0.9,5.5,1.2,11,1.1,16.5c0,1.3,0,2.5,0.1,3.8c4.2,2.3,8.7,3.9,13.5,4.8
			C759.8,89.4,756.8,84.9,757,84.6z"/>
		<path class="st7" d="M777.5,87.8l-1.9-8.6c-0.1-0.5,0-1,0.2-1.4l1-2l-3-3.8l-3,3.8l1,2c0.2,0.4,0.3,0.9,0.2,1.4l-1.9,8.6l2.4,7.8
			c0.9,0,1.8,0,2.7-0.1L777.5,87.8z"/>
		<path class="st5" d="M784.7,61.2l-2,3.6c-2.5,3.3-7.1,6.4-8.9,6.4c-1.7,0-6.6-3.2-8.9-6.4l-1.9-3.4l-0.1-0.2l-0.9,2.5l0.1-0.1
			l5.6,16.6l0.7-1.3c0.3-0.5,0.6-1,1-1.4l1.3-1.6l3-3.8l3,3.8l1.3,1.6c0.4,0.4,0.7,0.9,1,1.4l0.7,1.3l5.6-16.6l0.1,0.1L784.7,61.2
			L784.7,61.2z"/>
		<path class="st5" d="M790.8,84.6c0,0-4.2-7.5-4.2-7.5l5.7,0.6c-0.5-1.6-1.5-8.3-2.9-10.7c-0.2-0.4-0.4-0.7-0.7-0.8l-3.1-2.5
			l-0.1-0.1L780,80.2l-1.2,3.7l-1.2,3.9l-2.3,7.7c3.3-0.2,6.5-0.7,9.5-1.5C788.1,89,790.9,84.9,790.8,84.6z"/>
		<path class="st5" d="M770.2,87.8L769,84l-1.2-3.7l-5.6-16.6l-0.1,0.1l-2.6,2.1l-0.5,0.4c-1.7,0.9-3,9.7-3.6,11.5l5.7-0.6
			c0,0-4.2,7.4-4.2,7.5c-0.2,0.3,2.9,4.8,6.4,10.1c2.9,0.6,6,0.9,9.1,0.9c0,0,0.1,0,0.1,0L770.2,87.8z"/>
		<path class="st12" d="M748.6,69.6C748.6,69.6,748.6,69.6,748.6,69.6c-1.2,0.2-2.3,0.6-3.6,1.2c-0.3,0.2-0.6,0.3-0.9,0.5
			c-2.8,1.8-5.2,5.2-7,8.7c3.6,4,7.9,7.3,12.6,9.9c-0.1-1.3-0.1-2.5-0.1-3.8C749.9,80.6,749.6,75,748.6,69.6z"/>
		<path class="st11" d="M781.9,35.7c1.6-0.7,3.6-0.7,5.2,0"/>
		<path class="st11" d="M767.9,35.7c1.6-0.7,3.6-0.7,5.2,0"/>
		<circle class="st4" cx="784.2" cy="38.9" r="1.4"/>
		<circle class="st4" cx="771.2" cy="38.9" r="1.4"/>
		<path class="st11" d="M772.5,49.1c0,0,4.4,4.2,8.9,0.4"/>
		<path class="st11" d="M778.7,37.7c-0.3,1.3-0.3,2.6-0.1,3.9c0.2,1,0.5,1.9,0.7,2.9c0.1,0.5,0.2,1,0,1.5c-0.2,0.5-0.8,0.8-1.2,0.5"
			/>
	</g>
	<circle class="st5" cx="973.5" cy="528.9" r="47.7"/>
	<g>
		<path class="st9" d="M945.1,552.3c1.9-4.1,4-7.9,5-10.6c2-5.4,3.4-11,4.3-16.7c0.7-4,0.3-7.8,0.4-11.6c0-1.4,0.1-2.8,0.3-4.2
			c1.6-11.4,11.5-21.4,23.6-19.5c12.9,2,19.3,11.5,20.6,24.3c0.4,4.4-0.3,8,0.9,12.2c1.4,4.5,2.9,9,4.1,13.6
			c1.3,4.9,2.6,9.8,3.7,14.7c1.2,1,2.2,2.2,2.9,3.8c6.3-8.1,10.1-18.3,10.1-29.3c0-26.3-21.3-47.7-47.7-47.7
			c-26.3,0-47.7,21.3-47.7,47.7c0,12.3,4.7,23.6,12.4,32C939.9,557.5,942.3,554.1,945.1,552.3z"/>
		<path class="st4" d="M949.6,550.6C949.6,550.6,949.6,550.6,949.6,550.6C949.6,550.6,949.6,550.6,949.6,550.6
			c2.3-0.5,4.6-0.5,7.2-1.5c0.3-0.1,2-1.2,3.6-2.2l2.6-2.1l0.9-2.5l0.1,0.2c0.7-1.9,2-6.4,1.2-11.3c0-0.2,0-0.4,0-0.5
			c-0.9-1.4-1.6-2.9-1.9-4.6c-0.1-0.5-0.4-1.2-0.9-1.2c-1.7-0.1-2.6-3.1-2.9-5c2.8-2.2,6.5-3.4,9.5-5.1c2.6-1.5,7.8-5.2,8-5.1v0
			c1.7-0.8,3.4-1.4,4.9-2.5c1.2-0.9,6-3.1,5.9-4.8c0.2,2,1.2,3.6,1.7,5.5c0.6,2.1,1.4,4.1,1.8,6.2c0.8,4,0.8,8.6-0.5,12.5
			c-1.1,3.1-3.1,5.6-5.4,7.9c-0.2,1.7-0.4,4.8,0.2,7.6c0,0.1,0,0.1,0,0.2l0,0l0.9,2.5l3.1,2.5c0.2,0.1,0.5,0.4,0.7,0.8
			c3.9,1.5,9,2.6,9.6,2.8c3.4,1,6.1,2,8.1,3.7c-1-4.9-2.4-9.8-3.7-14.7c-1.2-4.6-2.8-9-4.1-13.6c-1.3-4.2-0.5-7.9-0.9-12.2
			c-1.3-12.8-7.7-22.2-20.6-24.3c-12.1-1.9-22,8-23.6,19.5c-0.2,1.4-0.3,2.8-0.3,4.2c-0.1,3.8,0.2,7.7-0.4,11.6
			c-0.9,5.7-2.4,11.3-4.3,16.7c-1,2.6-3.1,6.5-5,10.6c0.3-0.2,0.6-0.4,0.9-0.5C947.3,551.1,948.5,550.8,949.6,550.6z"/>
		<path class="st5" d="M974.9,552.2c1.7,0,6.4-3.1,8.9-6.4l2-3.6c0-0.1,0-0.1,0-0.2c-0.6-2.8-0.4-5.9-0.2-7.6
			c-0.4,0.4-0.8,0.7-1.1,1.1c-0.2,0.2-0.4,0.4-0.6,0.5c-2.2,2-4.5,2.9-6.6,2.9c-2.2,0.1-4.4-0.9-6.6-2.9c-0.2-0.2-0.4-0.4-0.6-0.5
			c-1.7-1.5-3.3-3.1-4.5-4.9c0,0.2,0,0.3,0,0.5c0.7,4.9-0.5,9.4-1.2,11.3l1.9,3.4C968.2,549,973.1,552.2,974.9,552.2z"/>
		<path class="st5" d="M969.9,535.4c0.2,0.2,0.4,0.4,0.6,0.5c2.2,2,4.4,2.9,6.6,2.9c2.2,0.1,4.4-0.9,6.6-2.9
			c0.2-0.2,0.4-0.4,0.6-0.5c0.4-0.4,0.8-0.7,1.1-1.1c2.3-2.2,4.3-4.8,5.4-7.9c1.3-3.9,1.3-8.5,0.5-12.5c-0.4-2.1-1.3-4.1-1.8-6.2
			c-0.5-1.9-1.5-3.5-1.7-5.5c0.2,1.7-4.6,3.9-5.9,4.8c-1.5,1-3.2,1.6-4.9,2.5v0c-0.1-0.1-5.3,3.6-8,5.1c-3,1.7-6.8,2.9-9.5,5.1
			c0.3,1.8,1.2,4.9,2.9,5c0.5,0,0.8,0.7,0.9,1.2c0.3,1.7,1,3.2,1.9,4.6C966.6,532.3,968.2,533.9,969.9,535.4z"/>
		<path class="st8" d="M979.2,558.5l-1.3-1.6l-1,2c-0.2,0.4-0.3,0.9-0.2,1.4l1.9,8.6l1.2-3.9l1.2-3.7l-0.7-1.3
			C979.9,559.5,979.6,559,979.2,558.5z"/>
		<path class="st8" d="M969.5,560l-0.7,1.3l1.2,3.7l1.2,3.9l1.9-8.6c0.1-0.5,0-1-0.2-1.4l-1-2l-1.3,1.6
			C970.2,559,969.8,559.5,969.5,560z"/>
		<path class="st12" d="M1008.1,554.5c-2-1.7-4.7-2.6-8.1-3.7c-0.6-0.2-5.7-1.3-9.6-2.8c1.3,2.4,2.4,9.2,2.9,10.7l-5.7-0.6
			c0,0,4.2,7.4,4.2,7.5c0.1,0.3-2.7,4.4-6,9.4c10.2-2.7,19-8.7,25.3-16.7C1010.3,556.7,1009.3,555.4,1008.1,554.5z"/>
		<path class="st12" d="M958,565.6c0,0,4.2-7.5,4.2-7.5l-5.7,0.6c0.6-1.8,1.9-10.6,3.6-11.5l0.5-0.4c-1.6,1-3.3,2-3.6,2.2
			c-2.6,1-4.9,1.1-7.2,1.5c0,0,0,0,0,0c0.9,5.5,1.2,11,1.1,16.5c0,1.3,0,2.5,0.1,3.8c4.2,2.3,8.7,3.9,13.5,4.8
			C960.8,570.4,957.8,565.9,958,565.6z"/>
		<path class="st7" d="M978.5,568.8l-1.9-8.6c-0.1-0.5,0-1,0.2-1.4l1-2l-3-3.8l-3,3.8l1,2c0.2,0.4,0.3,0.9,0.2,1.4l-1.9,8.6l2.4,7.8
			c0.9,0,1.8,0,2.7-0.1L978.5,568.8z"/>
		<path class="st5" d="M985.7,542.2l-2,3.6c-2.5,3.3-7.1,6.4-8.9,6.4c-1.7,0-6.6-3.2-8.9-6.4l-1.9-3.4l-0.1-0.2l-0.9,2.5l0.1-0.1
			l5.6,16.6l0.7-1.3c0.3-0.5,0.6-1,1-1.4l1.3-1.6l3-3.8l3,3.8l1.3,1.6c0.4,0.4,0.7,0.9,1,1.4l0.7,1.3l5.6-16.6l0.1,0.1L985.7,542.2
			L985.7,542.2z"/>
		<path class="st5" d="M991.8,565.6c0,0-4.2-7.5-4.2-7.5l5.7,0.6c-0.5-1.6-1.5-8.3-2.9-10.7c-0.2-0.4-0.4-0.7-0.7-0.8l-3.1-2.5
			l-0.1-0.1l-5.6,16.6l-1.2,3.7l-1.2,3.9l-2.3,7.7c3.3-0.2,6.5-0.7,9.5-1.5C989.1,570,991.9,565.9,991.8,565.6z"/>
		<path class="st5" d="M971.2,568.8L970,565l-1.2-3.7l-5.6-16.6l-0.1,0.1l-2.6,2.1l-0.5,0.4c-1.7,0.9-3,9.7-3.6,11.5l5.7-0.6
			c0,0-4.2,7.4-4.2,7.5c-0.2,0.3,2.9,4.8,6.4,10.1c2.9,0.6,6,0.9,9.1,0.9c0,0,0.1,0,0.1,0L971.2,568.8z"/>
		<path class="st12" d="M949.6,550.6C949.6,550.6,949.6,550.6,949.6,550.6c-1.2,0.2-2.3,0.6-3.6,1.2c-0.3,0.2-0.6,0.3-0.9,0.5
			c-2.8,1.8-5.2,5.2-7,8.7c3.6,4,7.9,7.3,12.6,9.9c-0.1-1.3-0.1-2.5-0.1-3.8C950.9,561.6,950.6,556,949.6,550.6z"/>
		<path class="st11" d="M982.9,516.7c1.6-0.7,3.6-0.7,5.2,0"/>
		<path class="st11" d="M968.9,516.7c1.6-0.7,3.6-0.7,5.2,0"/>
		<circle class="st4" cx="985.2" cy="519.9" r="1.4"/>
		<circle class="st4" cx="972.2" cy="519.9" r="1.4"/>
		<path class="st11" d="M973.5,530.1c0,0,4.4,4.2,8.9,0.4"/>
		<path class="st11" d="M979.7,518.7c-0.3,1.3-0.3,2.6-0.1,3.9c0.2,1,0.5,1.9,0.7,2.9c0.1,0.5,0.2,1,0,1.5c-0.2,0.5-0.8,0.8-1.2,0.5
			"/>
	</g>
	<g>
		<path class="st5" d="M881.2,275.4c5.2-0.8,10.6-3.1,15.7-4.5c2-2.2,4.4-4.6,5.5-5.6l1.8-3.3l0.1,0.1l0.2-3.2l0-0.2
			c-0.5-0.4-0.9-0.8-1.2-1.3c-0.5-0.7-0.9-1.6-1.1-2.5c-0.3-1.3,0-3.4-1.1-4.5c-0.9-1-1.9-1.4-2.5-2.8c-1.1-2.3-1.3-5.1-1.1-7.6
			c0.1-0.7,0.5-1.9,1.5-1.1c0.2,0.1,0.2,0.3,0.3,0.5c0-0.8-0.1-1.5-0.3-2.4c-0.4-1.5-0.3-3.3-0.4-4.9c-0.3-4.6-0.7-9.4,3.9-12.8
			c4.3-3.3,11.6-6.2,17.2-4.7c1,0.3,2.5,0.4,3.4,1.2c-0.2-0.2,1.4-0.2,1.6-0.2c2.4-0.2,6.8,2.3,9.6,6.3c2.7,3.7,2.2,7.8,1.5,12.1
			c-0.2,1.2-0.1,2.5-0.9,5.3c-0.1,0.5-0.6,1.7-1,2.8c0,0,0,0,0,0c0.4-0.2,0.2-1,0.7-1.3c1-0.6,1.4,0.6,1.4,1.3
			c0,2.5-0.5,5.2-1.8,7.4c-0.8,1.3-1.7,1.6-2.7,2.5c-1.1,1-1,3.1-1.5,4.4c-0.3,0.9-0.8,1.7-1.4,2.4c-0.4,0.5-1,0.9-1.6,1.3l-0.2,3.8
			l0.3-0.3l1.3,3.5l0.1-0.8c0.7,0.3,3.3,2,5.3,4.4c4.8,1.2,11.4,2.5,14.2,2.9c3.8,0.5,4.8,2,7.2,5c0.3,0.3,0.5,0.7,0.7,1
			c4.6-7.4,7.3-16,7.3-25.4c0-26.3-21.3-47.7-47.7-47.7c-26.3,0-47.7,21.3-47.7,47.7c0,9.3,2.7,18,7.3,25.3
			C876.6,277.3,878.5,275.8,881.2,275.4z"/>
		<path class="st5" d="M916.7,273.8l10.1-9.9l0.2-3.8c-1.1,0.7-2.3,1.2-3.2,2.1c-1.3,1.2-2.6,2.5-4.4,3.2c-0.9,0.4-2.2,0.4-3.4,0.3
			c-0.2,0-0.4,0-0.5,0c-1.4,0-2.8-0.1-3.8-0.6c-1.7-0.9-2.8-2.3-4-3.6c-0.9-1-2.1-1.7-3.2-2.6l0,0.2l-0.2,3.2l11.7,11.6
			C916.2,273.9,916.5,273.9,916.7,273.8z"/>
		<path class="st5" d="M907.7,261.3c1.2,1.4,2.3,2.7,4,3.6c1,0.6,2.5,0.6,3.8,0.6c0.2,0,0.4,0,0.5,0c1.2,0.1,2.4,0.1,3.4-0.3
			c1.8-0.7,3-2,4.4-3.2c0.9-0.8,2.1-1.4,3.2-2.1c0.6-0.4,1.1-0.8,1.6-1.3c0.6-0.7,1-1.5,1.4-2.4c0.5-1.3,0.4-3.4,1.5-4.4
			c1-0.9,2-1.2,2.7-2.5c1.3-2.2,1.8-4.9,1.8-7.4c0-0.7-0.3-1.9-1.4-1.3c-0.5,0.3-0.3,1-0.7,1.3c0,0,0,0,0,0
			c-0.1,0.4-0.3,0.7-0.4,1.1l-1.4-0.1c0-1.1,0.4-2.8,0.4-3.1c0.2-2.2,0.4-4.5,0-6.7c-0.5-2.8-4.6-4.4-6.9-5.8
			c-0.4-0.2-0.9-0.8-1.4-1c-0.7-0.2-0.3-0.1-1,0.2c-2.5,1.3-4,2.6-7.1,2.5c-2.5-0.1-5-0.7-7.5-0.7c-3.4,0.1-6.6,2.3-7.2,5.6
			c-0.2,1.3-0.1,2.6-0.2,3.9c-0.1,1-0.2,1.7-0.2,2.7c0,0.2,0,0.5,0,0.9l-1.8-0.1c0-0.3,0-0.6,0.1-0.7c0-0.4,0.1-0.8,0.1-1.2
			c0-0.2-0.1-0.4-0.3-0.5c-0.9-0.7-1.4,0.4-1.5,1.1c-0.3,2.5,0,5.2,1.1,7.6c0.6,1.3,1.6,1.8,2.5,2.8c1,1.1,0.7,3.2,1.1,4.5
			c0.2,0.9,0.6,1.7,1.1,2.5c0.3,0.5,0.8,0.9,1.2,1.3C905.6,259.6,906.8,260.3,907.7,261.3z"/>
		<path class="st4" d="M899.3,240.7c0,0.2,0,0.4-0.1,0.7l1.8,0.1c0-0.3,0-0.7,0-0.9c0-1,0.1-1.7,0.2-2.7c0.1-1.3,0-2.6,0.2-3.9
			c0.5-3.3,3.7-5.5,7.2-5.6c2.5-0.1,5,0.6,7.5,0.7c3.1,0.2,4.6-1.2,7.1-2.5c0.7-0.3,0.3-0.4,1-0.2c0.4,0.1,1,0.7,1.4,1
			c2.3,1.4,6.4,3,6.9,5.8c0.4,2.2,0.2,4.5,0,6.7c0,0.3-0.4,2-0.4,3.1l1.4,0.1c0.1-0.3,0.3-0.7,0.4-1.1c0.4-1.1,0.8-2.3,1-2.8
			c0.7-2.8,0.7-4.1,0.9-5.3c0.7-4.3,1.2-8.4-1.5-12.1c-2.8-4-7.2-6.5-9.6-6.3c-0.1,0-1.8,0.1-1.6,0.2c-0.8-0.8-2.3-0.9-3.4-1.2
			c-5.6-1.5-12.9,1.4-17.2,4.7c-4.5,3.5-4.1,8.2-3.9,12.8c0.1,1.6,0,3.4,0.4,4.9c0.2,0.9,0.3,1.6,0.3,2.4
			C899.3,239.9,899.3,240.3,899.3,240.7z"/>
		<path class="st8" d="M912,290.7l1.6,4l1.5-12.1c0.1-0.5,0-1.1-0.3-1.6l-1.2-2.3l-3.8,6.2L912,290.7z"/>
		<path class="st8" d="M919.1,281.4c-0.2,0.5-0.2,1.1-0.1,1.6l3.5,12.9l0.9-4.1l1.3-5.1l0.1-0.4l-4.8-7L919.1,281.4z"/>
		<path class="st7" d="M919,283c-0.2-0.6-0.1-1.1,0.1-1.6l0.9-2.1l-3.2-4.6c-0.2-0.3-0.6-0.3-0.7-0.1l-2.5,4.1l1.2,2.3
			c0.3,0.5,0.4,1.1,0.3,1.6l-1.5,12.1l2.8,7.1c1.6,0,3.2-0.1,4.8-0.3l1.3-5.7L919,283z"/>
		<path class="st12" d="M947.9,273.6c-2.8-0.4-9.4-1.7-14.2-2.9c0.6,0.7,1.1,1.5,1.5,2.3c1.2,2.4,2,4.2,2.4,5.3l-6.6,3
			c2,1,4,2.1,6,3.1c-2.8,3.9-6.1,9.1-9.1,15.7c11.6-3.2,21.5-10.6,27.8-20.6c-0.2-0.4-0.5-0.7-0.7-1
			C952.7,275.6,951.7,274.1,947.9,273.6z"/>
		<path class="st5" d="M908.2,280.9l1.6,4l3.8-6.2l2.5-4.1c0.2-0.3,0.5-0.2,0.7,0.1l3.2,4.6l4.8,7l3.5-19.2l-1.3-3.5l-0.3,0.3
			l-10.1,9.9c-0.2,0.2-0.4,0.1-0.6,0l-11.7-11.6l-0.1-0.1l-1.8,3.3c0.3-0.3,0.5-0.4,0.6-0.4L908.2,280.9z"/>
		<path class="st5" d="M937.1,284.5c-2-1-4-2.1-6-3.1l6.6-3c-0.4-1.1-1.3-2.9-2.4-5.3c-0.4-0.8-0.9-1.6-1.5-2.3
			c-2-2.4-4.6-4.2-5.3-4.4l-0.1,0.8l-3.5,19.2l-0.1,0.4l-1.3,5.1l-0.9,4.1l-1.3,5.7c2.3-0.3,4.6-0.7,6.8-1.3
			C931,293.6,934.3,288.4,937.1,284.5z"/>
		<path class="st12" d="M903,279l-9.6-3.8c0.1-0.4,1.6-2.3,3.5-4.3c-5.2,1.5-10.5,3.7-15.7,4.5c-2.6,0.4-4.6,1.9-6.1,4.1
			c7.1,11.4,19,19.6,32.8,21.8c-3.9-6.2-8.1-10.7-12.2-15.7L903,279z"/>
		<path class="st5" d="M912,290.7l-2.2-5.7l-1.6-4l-5.2-16.1c-0.1,0-0.3,0.2-0.6,0.4c-1.1,1-3.5,3.4-5.5,5.6c-1.8,2-3.4,3.8-3.5,4.3
			l9.6,3.8l-7.3,6.6c4.1,5,8.3,9.6,12.2,15.7c2.5,0.4,5,0.6,7.6,0.6c0.3,0,0.6,0,0.9,0l-2.8-7.1L912,290.7z"/>
		<path class="st11" d="M921.3,239.4c1.6-0.7,3.6-0.7,5.2,0"/>
		<path class="st11" d="M907.3,239.4c1.6-0.7,3.6-0.7,5.2,0"/>
		<circle class="st4" cx="923.6" cy="242.5" r="1.4"/>
		<circle class="st4" cx="910.6" cy="242.5" r="1.4"/>
		<path class="st11" d="M911.9,255.7c0,0,4.4,4.2,8.9,0.4"/>
		<path class="st11" d="M918.3,241.3c-0.3,1.5-0.3,3.1-0.1,4.7c0.1,1.2,0.4,2.3,0.6,3.5c0.1,0.6,0.2,1.2,0,1.8
			c-0.2,0.5-0.7,0.9-1,0.7"/>
	</g>
	<g>
		<path class="st5" d="M520.6,145.8c5.2-0.8,10.6-3.1,15.7-4.5c2-2.2,4.4-4.6,5.5-5.6l1.8-3.3l0.1,0.1l0.2-3.2l0-0.2
			c-0.5-0.4-0.9-0.8-1.2-1.3c-0.5-0.7-0.9-1.6-1.1-2.5c-0.3-1.3,0-3.4-1.1-4.5c-0.9-1-1.9-1.4-2.5-2.8c-1.1-2.3-1.3-5.1-1.1-7.6
			c0.1-0.7,0.5-1.9,1.5-1.1c0.2,0.1,0.2,0.3,0.3,0.5c0-0.8-0.1-1.5-0.3-2.4c-0.4-1.5-0.3-3.3-0.4-4.9c-0.3-4.6-0.7-9.4,3.9-12.8
			c4.3-3.3,11.6-6.2,17.2-4.7c1,0.3,2.5,0.4,3.4,1.2c-0.2-0.2,1.4-0.2,1.6-0.2c2.4-0.2,6.8,2.3,9.6,6.3c2.7,3.7,2.2,7.8,1.5,12.1
			c-0.2,1.2-0.1,2.5-0.9,5.3c-0.1,0.5-0.6,1.7-1,2.8c0,0,0,0,0,0c0.4-0.2,0.2-1,0.7-1.3c1-0.6,1.4,0.6,1.4,1.3
			c0,2.5-0.5,5.2-1.8,7.4c-0.8,1.3-1.7,1.6-2.7,2.5c-1.1,1-1,3.1-1.5,4.4c-0.3,0.9-0.8,1.7-1.4,2.4c-0.4,0.5-1,0.9-1.6,1.3l-0.2,3.8
			l0.3-0.3l1.3,3.5l0.1-0.8c0.7,0.3,3.3,2,5.3,4.4c4.8,1.2,11.4,2.5,14.2,2.9c3.8,0.5,4.8,2,7.2,5c0.3,0.3,0.5,0.7,0.7,1
			c4.6-7.4,7.3-16,7.3-25.4c0-26.3-21.3-47.7-47.7-47.7c-26.3,0-47.7,21.3-47.7,47.7c0,9.3,2.7,18,7.3,25.3
			C516,147.8,518,146.3,520.6,145.8z"/>
		<path class="st5" d="M556.1,144.2l10.1-9.9l0.2-3.8c-1.1,0.7-2.3,1.2-3.2,2.1c-1.3,1.2-2.6,2.5-4.4,3.2c-0.9,0.4-2.2,0.4-3.4,0.3
			c-0.2,0-0.4,0-0.5,0c-1.4,0-2.8-0.1-3.8-0.6c-1.7-0.9-2.8-2.3-4-3.6c-0.9-1-2.1-1.7-3.2-2.6l0,0.2l-0.2,3.2l11.7,11.6
			C555.7,144.4,555.9,144.4,556.1,144.2z"/>
		<path class="st5" d="M547.1,131.8c1.2,1.4,2.3,2.7,4,3.6c1,0.6,2.5,0.6,3.8,0.6c0.2,0,0.4,0,0.5,0c1.2,0.1,2.4,0.1,3.4-0.3
			c1.8-0.7,3-2,4.4-3.2c0.9-0.8,2.1-1.4,3.2-2.1c0.6-0.4,1.1-0.8,1.6-1.3c0.6-0.7,1-1.5,1.4-2.4c0.5-1.3,0.4-3.4,1.5-4.4
			c1-0.9,2-1.2,2.7-2.5c1.3-2.2,1.8-4.9,1.8-7.4c0-0.7-0.3-1.9-1.4-1.3c-0.5,0.3-0.3,1-0.7,1.3c0,0,0,0,0,0
			c-0.1,0.4-0.3,0.7-0.4,1.1l-1.4-0.1c0-1.1,0.4-2.8,0.4-3.1c0.2-2.2,0.4-4.5,0-6.7c-0.5-2.8-4.6-4.4-6.9-5.8
			c-0.4-0.2-0.9-0.8-1.4-1c-0.7-0.2-0.3-0.1-1,0.2c-2.5,1.3-4,2.6-7.1,2.5c-2.5-0.1-5-0.7-7.5-0.7c-3.4,0.1-6.6,2.3-7.2,5.6
			c-0.2,1.3-0.1,2.6-0.2,3.9c-0.1,1-0.2,1.7-0.2,2.7c0,0.2,0,0.5,0,0.9l-1.8-0.1c0-0.3,0-0.6,0.1-0.7c0-0.4,0.1-0.8,0.1-1.2
			c0-0.2-0.1-0.4-0.3-0.5c-0.9-0.7-1.4,0.4-1.5,1.1c-0.3,2.5,0,5.2,1.1,7.6c0.6,1.3,1.6,1.8,2.5,2.8c1,1.1,0.7,3.2,1.1,4.5
			c0.2,0.9,0.6,1.7,1.1,2.5c0.3,0.5,0.8,0.9,1.2,1.3C545,130.1,546.2,130.8,547.1,131.8z"/>
		<path class="st4" d="M538.7,111.1c0,0.2,0,0.4-0.1,0.7l1.8,0.1c0-0.3,0-0.7,0-0.9c0-1,0.1-1.7,0.2-2.7c0.1-1.3,0-2.6,0.2-3.9
			c0.5-3.3,3.7-5.5,7.2-5.6c2.5-0.1,5,0.6,7.5,0.7c3.1,0.2,4.6-1.2,7.1-2.5c0.7-0.3,0.3-0.4,1-0.2c0.4,0.1,1,0.7,1.4,1
			c2.3,1.4,6.4,3,6.9,5.8c0.4,2.2,0.2,4.5,0,6.7c0,0.3-0.4,2-0.4,3.1l1.4,0.1c0.1-0.3,0.3-0.7,0.4-1.1c0.4-1.1,0.8-2.3,1-2.8
			c0.7-2.8,0.7-4.1,0.9-5.3c0.7-4.3,1.2-8.4-1.5-12.1c-2.8-4-7.2-6.5-9.6-6.3c-0.1,0-1.8,0.1-1.6,0.2c-0.8-0.8-2.3-0.9-3.4-1.2
			c-5.6-1.5-12.9,1.4-17.2,4.7c-4.5,3.5-4.1,8.2-3.9,12.8c0.1,1.6,0,3.4,0.4,4.9c0.2,0.9,0.3,1.6,0.3,2.4
			C538.8,110.3,538.7,110.7,538.7,111.1z"/>
		<path class="st8" d="M551.5,161.1l1.6,4l1.5-12.1c0.1-0.5,0-1.1-0.3-1.6l-1.2-2.3l-3.8,6.2L551.5,161.1z"/>
		<path class="st8" d="M558.5,151.9c-0.2,0.5-0.2,1.1-0.1,1.6l3.5,12.9l0.9-4.1l1.3-5.1l0.1-0.4l-4.8-7L558.5,151.9z"/>
		<path class="st7" d="M558.4,153.5c-0.2-0.6-0.1-1.1,0.1-1.6l0.9-2.1l-3.2-4.6c-0.2-0.3-0.6-0.3-0.7-0.1l-2.5,4.1l1.2,2.3
			c0.3,0.5,0.4,1.1,0.3,1.6l-1.5,12.1l2.8,7.1c1.6,0,3.2-0.1,4.8-0.3l1.3-5.7L558.4,153.5z"/>
		<path class="st10" d="M587.3,144c-2.8-0.4-9.4-1.7-14.2-2.9c0.6,0.7,1.1,1.5,1.5,2.3c1.2,2.4,2,4.2,2.4,5.3l-6.6,3
			c2,1,4,2.1,6,3.1c-2.8,3.9-6.1,9.1-9.1,15.7c11.6-3.2,21.5-10.6,27.8-20.6c-0.2-0.4-0.5-0.7-0.7-1
			C592.1,146.1,591.1,144.6,587.3,144z"/>
		<path class="st5" d="M547.7,151.4l1.6,4l3.8-6.2l2.5-4.1c0.2-0.3,0.5-0.2,0.7,0.1l3.2,4.6l4.8,7l3.5-19.2l-1.3-3.5l-0.3,0.3
			l-10.1,9.9c-0.2,0.2-0.4,0.1-0.6,0l-11.7-11.6l-0.1-0.1l-1.8,3.3c0.3-0.3,0.5-0.4,0.6-0.4L547.7,151.4z"/>
		<path class="st5" d="M576.5,155c-2-1-4-2.1-6-3.1l6.6-3c-0.4-1.1-1.3-2.9-2.4-5.3c-0.4-0.8-0.9-1.6-1.5-2.3
			c-2-2.4-4.6-4.2-5.3-4.4l-0.1,0.8l-3.5,19.2l-0.1,0.4l-1.3,5.1l-0.9,4.1l-1.3,5.7c2.3-0.3,4.6-0.7,6.8-1.3
			C570.4,164.1,573.7,158.8,576.5,155z"/>
		<path class="st10" d="M542.4,149.4l-9.6-3.8c0.1-0.4,1.6-2.3,3.5-4.3c-5.2,1.5-10.5,3.7-15.7,4.5c-2.6,0.4-4.6,1.9-6.1,4.1
			c7.1,11.4,19,19.6,32.8,21.8c-3.9-6.2-8.1-10.7-12.2-15.7L542.4,149.4z"/>
		<path class="st5" d="M551.5,161.1l-2.2-5.7l-1.6-4l-5.2-16.1c-0.1,0-0.3,0.2-0.6,0.4c-1.1,1-3.5,3.4-5.5,5.6
			c-1.8,2-3.4,3.8-3.5,4.3l9.6,3.8l-7.3,6.6c4.1,5,8.3,9.6,12.2,15.7c2.5,0.4,5,0.6,7.6,0.6c0.3,0,0.6,0,0.9,0l-2.8-7.1L551.5,161.1
			z"/>
		<path class="st11" d="M560.7,109.8c1.6-0.7,3.6-0.7,5.2,0"/>
		<path class="st11" d="M546.7,109.8c1.6-0.7,3.6-0.7,5.2,0"/>
		<circle class="st4" cx="563.1" cy="113" r="1.4"/>
		<circle class="st4" cx="550.1" cy="113" r="1.4"/>
		<path class="st11" d="M551.3,126.2c0,0,4.4,4.2,8.9,0.4"/>
		<path class="st11" d="M557.7,111.7c-0.3,1.5-0.3,3.1-0.1,4.7c0.1,1.2,0.4,2.3,0.6,3.5c0.1,0.6,0.2,1.2,0,1.8
			c-0.2,0.5-0.7,0.9-1,0.7"/>
	</g>
	<g>
		<path class="st5" d="M1065.2,379.4c5.2-0.8,10.6-3.1,15.7-4.5c2-2.2,4.4-4.6,5.5-5.6l1.8-3.3l0.1,0.1l0.2-3.2l0-0.2
			c-0.5-0.4-0.9-0.8-1.2-1.3c-0.5-0.7-0.9-1.6-1.1-2.5c-0.3-1.3,0-3.4-1.1-4.5c-0.9-1-1.9-1.4-2.5-2.8c-1.1-2.3-1.3-5.1-1.1-7.6
			c0.1-0.7,0.5-1.9,1.5-1.1c0.2,0.1,0.2,0.3,0.3,0.5c0-0.8-0.1-1.5-0.3-2.4c-0.4-1.5-0.3-3.3-0.4-4.9c-0.3-4.6-0.7-9.4,3.9-12.8
			c4.3-3.3,11.6-6.2,17.2-4.7c1,0.3,2.5,0.4,3.4,1.2c-0.2-0.2,1.4-0.2,1.6-0.2c2.4-0.2,6.8,2.3,9.6,6.3c2.7,3.7,2.2,7.8,1.5,12.1
			c-0.2,1.2-0.1,2.5-0.9,5.3c-0.1,0.5-0.6,1.7-1,2.8c0,0,0,0,0,0c0.4-0.2,0.2-1,0.7-1.3c1-0.6,1.4,0.6,1.4,1.3
			c0,2.5-0.5,5.2-1.8,7.4c-0.8,1.3-1.7,1.6-2.7,2.5c-1.1,1-1,3.1-1.5,4.4c-0.3,0.9-0.8,1.7-1.4,2.4c-0.4,0.5-1,0.9-1.6,1.3l-0.2,3.8
			l0.3-0.3l1.3,3.5l0.1-0.8c0.7,0.3,3.3,2,5.3,4.4c4.8,1.2,11.4,2.5,14.2,2.9c3.8,0.5,4.8,2,7.2,5c0.3,0.3,0.5,0.7,0.7,1
			c4.6-7.4,7.3-16,7.3-25.4c0-26.3-21.3-47.7-47.7-47.7c-26.3,0-47.7,21.3-47.7,47.7c0,9.3,2.7,18,7.3,25.3
			C1060.6,381.3,1062.5,379.8,1065.2,379.4z"/>
		<path class="st5" d="M1100.7,377.8l10.1-9.9l0.2-3.8c-1.1,0.7-2.3,1.2-3.2,2.1c-1.3,1.2-2.6,2.5-4.4,3.2c-0.9,0.4-2.2,0.4-3.4,0.3
			c-0.2,0-0.4,0-0.5,0c-1.4,0-2.8-0.1-3.8-0.6c-1.7-0.9-2.8-2.3-4-3.6c-0.9-1-2.1-1.7-3.2-2.6l0,0.2l-0.2,3.2l11.7,11.6
			C1100.2,377.9,1100.5,377.9,1100.7,377.8z"/>
		<path class="st5" d="M1091.7,365.3c1.2,1.4,2.3,2.7,4,3.6c1,0.6,2.5,0.6,3.8,0.6c0.2,0,0.4,0,0.5,0c1.2,0.1,2.4,0.1,3.4-0.3
			c1.8-0.7,3-2,4.4-3.2c0.9-0.8,2.1-1.4,3.2-2.1c0.6-0.4,1.1-0.8,1.6-1.3c0.6-0.7,1-1.5,1.4-2.4c0.5-1.3,0.4-3.4,1.5-4.4
			c1-0.9,2-1.2,2.7-2.5c1.3-2.2,1.8-4.9,1.8-7.4c0-0.7-0.3-1.9-1.4-1.3c-0.5,0.3-0.3,1-0.7,1.3c0,0,0,0,0,0
			c-0.1,0.4-0.3,0.7-0.4,1.1l-1.4-0.1c0-1.1,0.4-2.8,0.4-3.1c0.2-2.2,0.4-4.5,0-6.7c-0.5-2.8-4.6-4.4-6.9-5.8
			c-0.4-0.2-0.9-0.8-1.4-1c-0.7-0.2-0.3-0.1-1,0.2c-2.5,1.3-4,2.6-7.1,2.5c-2.5-0.1-5-0.7-7.5-0.7c-3.4,0.1-6.6,2.3-7.2,5.6
			c-0.2,1.3-0.1,2.6-0.2,3.9c-0.1,1-0.2,1.7-0.2,2.7c0,0.2,0,0.5,0,0.9l-1.8-0.1c0-0.3,0-0.6,0.1-0.7c0-0.4,0.1-0.8,0.1-1.2
			c0-0.2-0.1-0.4-0.3-0.5c-0.9-0.7-1.4,0.4-1.5,1.1c-0.3,2.5,0,5.2,1.1,7.6c0.6,1.3,1.6,1.8,2.5,2.8c1,1.1,0.7,3.2,1.1,4.5
			c0.2,0.9,0.6,1.7,1.1,2.5c0.3,0.5,0.8,0.9,1.2,1.3C1089.6,363.6,1090.8,364.3,1091.7,365.3z"/>
		<path class="st4" d="M1083.3,344.7c0,0.2,0,0.4-0.1,0.7l1.8,0.1c0-0.3,0-0.7,0-0.9c0-1,0.1-1.7,0.2-2.7c0.1-1.3,0-2.6,0.2-3.9
			c0.5-3.3,3.7-5.5,7.2-5.6c2.5-0.1,5,0.6,7.5,0.7c3.1,0.2,4.6-1.2,7.1-2.5c0.7-0.3,0.3-0.4,1-0.2c0.4,0.1,1,0.7,1.4,1
			c2.3,1.4,6.4,3,6.9,5.8c0.4,2.2,0.2,4.5,0,6.7c0,0.3-0.4,2-0.4,3.1l1.4,0.1c0.1-0.3,0.3-0.7,0.4-1.1c0.4-1.1,0.8-2.3,1-2.8
			c0.7-2.8,0.7-4.1,0.9-5.3c0.7-4.3,1.2-8.4-1.5-12.1c-2.8-4-7.2-6.5-9.6-6.3c-0.1,0-1.8,0.1-1.6,0.2c-0.8-0.8-2.3-0.9-3.4-1.2
			c-5.6-1.5-12.9,1.4-17.2,4.7c-4.5,3.5-4.1,8.2-3.9,12.8c0.1,1.6,0,3.4,0.4,4.9c0.2,0.9,0.3,1.6,0.3,2.4
			C1083.3,343.9,1083.3,344.3,1083.3,344.7z"/>
		<path class="st8" d="M1096,394.7l1.6,4l1.5-12.1c0.1-0.5,0-1.1-0.3-1.6l-1.2-2.3l-3.8,6.2L1096,394.7z"/>
		<path class="st8" d="M1103.1,385.4c-0.2,0.5-0.2,1.1-0.1,1.6l3.5,12.9l0.9-4.1l1.3-5.1l0.1-0.4l-4.8-7L1103.1,385.4z"/>
		<path class="st7" d="M1103,387c-0.2-0.6-0.1-1.1,0.1-1.6l0.9-2.1l-3.2-4.6c-0.2-0.3-0.6-0.3-0.7-0.1l-2.5,4.1l1.2,2.3
			c0.3,0.5,0.4,1.1,0.3,1.6l-1.5,12.1l2.8,7.1c1.6,0,3.2-0.1,4.8-0.3l1.3-5.7L1103,387z"/>
		<path class="st10" d="M1131.9,377.6c-2.8-0.4-9.4-1.7-14.2-2.9c0.6,0.7,1.1,1.5,1.5,2.3c1.2,2.4,2,4.2,2.4,5.3l-6.6,3
			c2,1,4,2.1,6,3.1c-2.8,3.9-6.1,9.1-9.1,15.7c11.6-3.2,21.5-10.6,27.8-20.6c-0.2-0.4-0.5-0.7-0.7-1
			C1136.7,379.6,1135.7,378.1,1131.9,377.6z"/>
		<path class="st5" d="M1092.2,384.9l1.6,4l3.8-6.2l2.5-4.1c0.2-0.3,0.5-0.2,0.7,0.1l3.2,4.6l4.8,7l3.5-19.2l-1.3-3.5l-0.3,0.3
			l-10.1,9.9c-0.2,0.2-0.4,0.1-0.6,0l-11.7-11.6l-0.1-0.1l-1.8,3.3c0.3-0.3,0.5-0.4,0.6-0.4L1092.2,384.9z"/>
		<path class="st5" d="M1121.1,388.5c-2-1-4-2.1-6-3.1l6.6-3c-0.4-1.1-1.3-2.9-2.4-5.3c-0.4-0.8-0.9-1.6-1.5-2.3
			c-2-2.4-4.6-4.2-5.3-4.4l-0.1,0.8l-3.5,19.2l-0.1,0.4l-1.3,5.1l-0.9,4.1l-1.3,5.7c2.3-0.3,4.6-0.7,6.8-1.3
			C1115,397.6,1118.3,392.4,1121.1,388.5z"/>
		<path class="st10" d="M1087,383l-9.6-3.8c0.1-0.4,1.6-2.3,3.5-4.3c-5.2,1.5-10.5,3.7-15.7,4.5c-2.6,0.4-4.6,1.9-6.1,4.1
			c7.1,11.4,19,19.6,32.8,21.8c-3.9-6.2-8.1-10.7-12.2-15.7L1087,383z"/>
		<path class="st5" d="M1096,394.7l-2.2-5.7l-1.6-4l-5.2-16.1c-0.1,0-0.3,0.2-0.6,0.4c-1.1,1-3.5,3.4-5.5,5.6
			c-1.8,2-3.4,3.8-3.5,4.3l9.6,3.8l-7.3,6.6c4.1,5,8.3,9.6,12.2,15.7c2.5,0.4,5,0.6,7.6,0.6c0.3,0,0.6,0,0.9,0l-2.8-7.1L1096,394.7z
			"/>
		<path class="st11" d="M1105.3,343.4c1.6-0.7,3.6-0.7,5.2,0"/>
		<path class="st11" d="M1091.3,343.4c1.6-0.7,3.6-0.7,5.2,0"/>
		<circle class="st4" cx="1107.6" cy="346.5" r="1.4"/>
		<circle class="st4" cx="1094.6" cy="346.5" r="1.4"/>
		<path class="st11" d="M1095.9,359.7c0,0,4.4,4.2,8.9,0.4"/>
		<path class="st11" d="M1102.3,345.3c-0.3,1.5-0.3,3.1-0.1,4.7c0.1,1.2,0.4,2.3,0.6,3.5c0.1,0.6,0.2,1.2,0,1.8
			c-0.2,0.5-0.7,0.9-1,0.7"/>
	</g>
	<g>
		<path class="st5" d="M1234.9,517.2c2.2-0.4,4.5-1.3,6.7-1.9c0.9-0.9,1.9-2,2.3-2.4l0.8-1.4l0.1,0.1l0.1-1.3l0-0.1
			c-0.2-0.2-0.4-0.3-0.5-0.5c-0.2-0.3-0.4-0.7-0.5-1.1c-0.1-0.6,0-1.4-0.5-1.9c-0.4-0.4-0.8-0.6-1.1-1.2c-0.5-1-0.6-2.2-0.4-3.2
			c0-0.3,0.2-0.8,0.6-0.5c0.1,0.1,0.1,0.1,0.1,0.2c0-0.3,0-0.7-0.1-1c-0.2-0.7-0.1-1.4-0.2-2.1c-0.1-1.9-0.3-4,1.6-5.4
			c1.8-1.4,4.9-2.6,7.3-2c0.4,0.1,1.1,0.2,1.4,0.5c-0.1-0.1,0.6-0.1,0.7-0.1c1-0.1,2.9,1,4.1,2.7c1.1,1.6,0.9,3.3,0.6,5.1
			c-0.1,0.5-0.1,1-0.4,2.2c-0.1,0.2-0.2,0.7-0.4,1.2c0,0,0,0,0,0c0.2-0.1,0.1-0.4,0.3-0.5c0.4-0.3,0.6,0.2,0.6,0.5
			c0,1.1-0.2,2.2-0.8,3.2c-0.3,0.5-0.7,0.7-1.2,1.1c-0.5,0.4-0.4,1.3-0.6,1.9c-0.1,0.4-0.3,0.7-0.6,1c-0.2,0.2-0.4,0.4-0.7,0.6
			l-0.1,1.6l0.1-0.1l0.5,1.5l0.1-0.3c0.3,0.1,1.4,0.9,2.2,1.9c2,0.5,4.8,1.1,6,1.2c1.6,0.2,2,0.9,3,2.1c0.1,0.1,0.2,0.3,0.3,0.4
			c2-3.1,3.1-6.8,3.1-10.8c0-11.2-9-20.2-20.2-20.2c-11.2,0-20.2,9-20.2,20.2c0,3.9,1.1,7.6,3.1,10.7
			C1233,518,1233.8,517.4,1234.9,517.2z"/>
		<path class="st5" d="M1250,516.5l4.3-4.2l0.1-1.6c-0.5,0.3-1,0.5-1.3,0.9c-0.6,0.5-1.1,1-1.8,1.4c-0.4,0.2-0.9,0.2-1.4,0.1
			c-0.1,0-0.2,0-0.2,0c-0.6,0-1.2,0-1.6-0.3c-0.7-0.4-1.2-1-1.7-1.5c-0.4-0.4-0.9-0.7-1.4-1.1l0,0.1l-0.1,1.3l5,4.9
			C1249.8,516.6,1249.9,516.6,1250,516.5z"/>
		<path class="st5" d="M1246.2,511.2c0.5,0.6,1,1.1,1.7,1.5c0.4,0.2,1.1,0.3,1.6,0.3c0.1,0,0.1,0,0.2,0c0.5,0,1,0,1.4-0.1
			c0.8-0.3,1.3-0.8,1.8-1.4c0.4-0.4,0.9-0.6,1.3-0.9c0.3-0.2,0.5-0.3,0.7-0.6c0.2-0.3,0.4-0.6,0.6-1c0.2-0.5,0.2-1.4,0.6-1.9
			c0.4-0.4,0.8-0.5,1.2-1.1c0.6-0.9,0.8-2.1,0.8-3.2c0-0.3-0.1-0.8-0.6-0.5c-0.2,0.1-0.1,0.4-0.3,0.5c0,0,0,0,0,0
			c-0.1,0.2-0.1,0.3-0.2,0.4l-0.6,0c0-0.5,0.2-1.2,0.2-1.3c0.1-0.9,0.2-1.9,0-2.8c-0.2-1.2-2-1.9-2.9-2.5c-0.2-0.1-0.4-0.4-0.6-0.4
			c-0.3-0.1-0.1-0.1-0.4,0.1c-1.1,0.6-1.7,1.1-3,1c-1.1-0.1-2.1-0.3-3.2-0.3c-1.5,0-2.8,1-3,2.4c-0.1,0.5,0,1.1-0.1,1.6
			c0,0.4-0.1,0.7-0.1,1.1c0,0.1,0,0.2,0,0.4l-0.8,0c0-0.1,0-0.2,0-0.3c0-0.2,0-0.3,0-0.5c0-0.1,0-0.2-0.1-0.2
			c-0.4-0.3-0.6,0.2-0.6,0.5c-0.1,1.1,0,2.2,0.4,3.2c0.3,0.6,0.7,0.8,1.1,1.2c0.4,0.5,0.3,1.3,0.5,1.9c0.1,0.4,0.3,0.7,0.5,1.1
			c0.1,0.2,0.3,0.4,0.5,0.5C1245.3,510.5,1245.8,510.8,1246.2,511.2z"/>
		<path class="st4" d="M1242.6,502.5c0,0.1,0,0.2,0,0.3l0.8,0c0-0.1,0-0.3,0-0.4c0-0.4,0-0.7,0.1-1.1c0.1-0.5,0-1.1,0.1-1.6
			c0.2-1.4,1.6-2.3,3-2.4c1.1,0,2.1,0.2,3.2,0.3c1.3,0.1,1.9-0.5,3-1c0.3-0.1,0.1-0.2,0.4-0.1c0.2,0.1,0.4,0.3,0.6,0.4
			c1,0.6,2.7,1.3,2.9,2.5c0.2,0.9,0.1,1.9,0,2.8c0,0.1-0.2,0.9-0.2,1.3l0.6,0c0.1-0.1,0.1-0.3,0.2-0.4c0.2-0.5,0.4-1,0.4-1.2
			c0.3-1.2,0.3-1.7,0.4-2.2c0.3-1.8,0.5-3.5-0.6-5.1c-1.2-1.7-3.1-2.8-4.1-2.7c-0.1,0-0.8,0-0.7,0.1c-0.3-0.3-1-0.4-1.4-0.5
			c-2.4-0.7-5.5,0.6-7.3,2c-1.9,1.5-1.7,3.5-1.6,5.4c0,0.7,0,1.4,0.2,2.1c0.1,0.4,0.1,0.7,0.1,1
			C1242.6,502.2,1242.6,502.3,1242.6,502.5z"/>
		<path class="st8" d="M1248,523.7l0.7,1.7l0.6-5.1c0-0.2,0-0.5-0.1-0.7l-0.5-1l-1.6,2.6L1248,523.7z"/>
		<path class="st8" d="M1251,519.8c-0.1,0.2-0.1,0.4,0,0.7l1.5,5.5l0.4-1.7l0.6-2.2l0-0.2l-2-3L1251,519.8z"/>
		<path class="st7" d="M1251,520.4c-0.1-0.2-0.1-0.5,0-0.7l0.4-0.9l-1.4-2c-0.1-0.1-0.2-0.1-0.3,0l-1.1,1.8l0.5,1
			c0.1,0.2,0.2,0.5,0.1,0.7l-0.6,5.1l1.2,3c0.7,0,1.4-0.1,2-0.1l0.5-2.4L1251,520.4z"/>
		<path class="st10" d="M1263.2,516.4c-1.2-0.2-4-0.7-6-1.2c0.2,0.3,0.5,0.6,0.6,1c0.5,1,0.9,1.8,1,2.3l-2.8,1.3
			c0.8,0.4,1.7,0.9,2.5,1.3c-1.2,1.6-2.6,3.9-3.8,6.7c4.9-1.3,9.1-4.5,11.8-8.7c-0.1-0.2-0.2-0.3-0.3-0.4
			C1265.3,517.3,1264.8,516.7,1263.2,516.4z"/>
		<path class="st5" d="M1246.4,519.6l0.7,1.7l1.6-2.6l1.1-1.8c0.1-0.1,0.2-0.1,0.3,0l1.4,2l2,3l1.5-8.2l-0.5-1.5l-0.1,0.1l-4.3,4.2
			c-0.1,0.1-0.2,0.1-0.2,0l-5-4.9l-0.1-0.1l-0.8,1.4c0.1-0.1,0.2-0.2,0.3-0.2L1246.4,519.6z"/>
		<path class="st5" d="M1258.6,521.1c-0.8-0.4-1.7-0.9-2.5-1.3l2.8-1.3c-0.2-0.5-0.5-1.2-1-2.3c-0.2-0.4-0.4-0.7-0.6-1
			c-0.8-1-1.9-1.8-2.2-1.9l-0.1,0.3l-1.5,8.2l0,0.2l-0.6,2.2l-0.4,1.7l-0.5,2.4c1-0.1,2-0.3,2.9-0.6
			C1256.1,525,1257.5,522.7,1258.6,521.1z"/>
		<path class="st10" d="M1244.2,518.7l-4-1.6c0-0.2,0.7-1,1.5-1.8c-2.2,0.6-4.5,1.6-6.7,1.9c-1.1,0.2-1.9,0.8-2.6,1.8
			c3,4.8,8,8.3,13.9,9.2c-1.7-2.6-3.4-4.5-5.2-6.7L1244.2,518.7z"/>
		<path class="st5" d="M1248,523.7l-0.9-2.4l-0.7-1.7l-2.2-6.8c0,0-0.1,0.1-0.3,0.2c-0.5,0.4-1.5,1.4-2.3,2.4
			c-0.8,0.8-1.4,1.6-1.5,1.8l4,1.6l-3.1,2.8c1.7,2.1,3.5,4.1,5.2,6.7c1,0.2,2.1,0.3,3.2,0.3c0.1,0,0.3,0,0.4,0l-1.2-3L1248,523.7z"
			/>
		<path class="st11" d="M1252,501.9c0.7-0.3,1.5-0.3,2.2,0"/>
		<path class="st11" d="M1246,501.9c0.7-0.3,1.5-0.3,2.2,0"/>
		<circle class="st4" cx="1252.9" cy="503.3" r="0.6"/>
		<circle class="st4" cx="1247.4" cy="503.3" r="0.6"/>
		<path class="st11" d="M1247.9,508.9c0,0,1.9,1.8,3.8,0.2"/>
		<path class="st11" d="M1250.7,502.8c-0.1,0.6-0.1,1.3,0,2c0.1,0.5,0.2,1,0.3,1.5c0,0.2,0.1,0.5,0,0.7c-0.1,0.2-0.3,0.4-0.4,0.3"/>
	</g>
	<g>
		<path class="st5" d="M880.9,479.6c2.2-0.4,4.5-1.3,6.7-1.9c0.9-0.9,1.9-2,2.3-2.4l0.8-1.4l0.1,0.1l0.1-1.3l0-0.1
			c-0.2-0.2-0.4-0.3-0.5-0.5c-0.2-0.3-0.4-0.7-0.5-1.1c-0.1-0.6,0-1.4-0.5-1.9c-0.4-0.4-0.8-0.6-1.1-1.2c-0.5-1-0.6-2.2-0.4-3.2
			c0-0.3,0.2-0.8,0.6-0.5c0.1,0.1,0.1,0.1,0.1,0.2c0-0.3,0-0.7-0.1-1c-0.2-0.7-0.1-1.4-0.2-2.1c-0.1-1.9-0.3-4,1.6-5.4
			c1.8-1.4,4.9-2.6,7.3-2c0.4,0.1,1.1,0.2,1.4,0.5c-0.1-0.1,0.6-0.1,0.7-0.1c1-0.1,2.9,1,4.1,2.7c1.1,1.6,0.9,3.3,0.6,5.1
			c-0.1,0.5-0.1,1-0.4,2.2c-0.1,0.2-0.2,0.7-0.4,1.2c0,0,0,0,0,0c0.2-0.1,0.1-0.4,0.3-0.5c0.4-0.3,0.6,0.2,0.6,0.5
			c0,1.1-0.2,2.2-0.8,3.2c-0.3,0.5-0.7,0.7-1.2,1.1c-0.5,0.4-0.4,1.3-0.6,1.9c-0.1,0.4-0.3,0.7-0.6,1c-0.2,0.2-0.4,0.4-0.7,0.6
			l-0.1,1.6l0.1-0.1l0.5,1.5l0.1-0.3c0.3,0.1,1.4,0.9,2.2,1.9c2,0.5,4.8,1.1,6,1.2c1.6,0.2,2,0.9,3,2.1c0.1,0.1,0.2,0.3,0.3,0.4
			c2-3.1,3.1-6.8,3.1-10.8c0-11.2-9-20.2-20.2-20.2c-11.2,0-20.2,9-20.2,20.2c0,3.9,1.1,7.6,3.1,10.7
			C878.9,480.4,879.7,479.8,880.9,479.6z"/>
		<path class="st5" d="M895.9,478.9l4.3-4.2l0.1-1.6c-0.5,0.3-1,0.5-1.3,0.9c-0.6,0.5-1.1,1-1.8,1.4c-0.4,0.2-0.9,0.2-1.4,0.1
			c-0.1,0-0.2,0-0.2,0c-0.6,0-1.2,0-1.6-0.3c-0.7-0.4-1.2-1-1.7-1.5c-0.4-0.4-0.9-0.7-1.4-1.1l0,0.1l-0.1,1.3l5,4.9
			C895.7,479,895.8,479,895.9,478.9z"/>
		<path class="st5" d="M892.1,473.6c0.5,0.6,1,1.1,1.7,1.5c0.4,0.2,1.1,0.3,1.6,0.3c0.1,0,0.1,0,0.2,0c0.5,0,1,0,1.4-0.1
			c0.8-0.3,1.3-0.8,1.8-1.4c0.4-0.4,0.9-0.6,1.3-0.9c0.3-0.2,0.5-0.3,0.7-0.6c0.3-0.3,0.4-0.6,0.6-1c0.2-0.5,0.2-1.4,0.6-1.9
			c0.4-0.4,0.8-0.5,1.2-1.1c0.6-0.9,0.8-2.1,0.8-3.2c0-0.3-0.1-0.8-0.6-0.5c-0.2,0.1-0.1,0.4-0.3,0.5c0,0,0,0,0,0
			c-0.1,0.2-0.1,0.3-0.2,0.4l-0.6,0c0-0.5,0.2-1.2,0.2-1.3c0.1-0.9,0.2-1.9,0-2.8c-0.2-1.2-2-1.9-2.9-2.5c-0.2-0.1-0.4-0.4-0.6-0.4
			c-0.3-0.1-0.1-0.1-0.4,0.1c-1.1,0.6-1.7,1.1-3,1c-1.1-0.1-2.1-0.3-3.2-0.3c-1.5,0-2.8,1-3,2.4c-0.1,0.5,0,1.1-0.1,1.6
			c0,0.4-0.1,0.7-0.1,1.1c0,0.1,0,0.2,0,0.4l-0.8,0c0-0.1,0-0.2,0-0.3c0-0.2,0-0.3,0-0.5c0-0.1,0-0.2-0.1-0.2
			c-0.4-0.3-0.6,0.2-0.6,0.5c-0.1,1.1,0,2.2,0.4,3.2c0.3,0.6,0.7,0.8,1.1,1.2c0.4,0.5,0.3,1.3,0.5,1.9c0.1,0.4,0.3,0.7,0.5,1.1
			c0.1,0.2,0.3,0.4,0.5,0.5C891.2,472.9,891.7,473.2,892.1,473.6z"/>
		<path class="st4" d="M888.5,464.9c0,0.1,0,0.2,0,0.3l0.8,0c0-0.1,0-0.3,0-0.4c0-0.4,0-0.7,0.1-1.1c0.1-0.5,0-1.1,0.1-1.6
			c0.2-1.4,1.6-2.3,3-2.4c1.1,0,2.1,0.2,3.2,0.3c1.3,0.1,1.9-0.5,3-1c0.3-0.1,0.1-0.2,0.4-0.1c0.2,0.1,0.4,0.3,0.6,0.4
			c1,0.6,2.7,1.3,2.9,2.5c0.2,0.9,0.1,1.9,0,2.8c0,0.1-0.2,0.9-0.2,1.3l0.6,0c0.1-0.1,0.1-0.3,0.2-0.4c0.2-0.5,0.4-1,0.4-1.2
			c0.3-1.2,0.3-1.7,0.4-2.2c0.3-1.8,0.5-3.5-0.6-5.1c-1.2-1.7-3.1-2.8-4.1-2.7c-0.1,0-0.8,0-0.7,0.1c-0.3-0.3-1-0.4-1.4-0.5
			c-2.4-0.7-5.5,0.6-7.3,2c-1.9,1.5-1.7,3.5-1.6,5.4c0,0.7,0,1.4,0.2,2.1c0.1,0.4,0.1,0.7,0.1,1
			C888.6,464.6,888.5,464.7,888.5,464.9z"/>
		<path class="st8" d="M893.9,486.1l0.7,1.7l0.6-5.1c0-0.2,0-0.5-0.1-0.7l-0.5-1l-1.6,2.6L893.9,486.1z"/>
		<path class="st8" d="M896.9,482.2c-0.1,0.2-0.1,0.4,0,0.7l1.5,5.5l0.4-1.7l0.6-2.2l0-0.2l-2-3L896.9,482.2z"/>
		<path class="st7" d="M896.9,482.8c-0.1-0.2-0.1-0.5,0-0.7l0.4-0.9l-1.4-2c-0.1-0.1-0.2-0.1-0.3,0l-1.1,1.8l0.5,1
			c0.1,0.2,0.2,0.5,0.1,0.7l-0.6,5.1l1.2,3c0.7,0,1.4-0.1,2-0.1l0.5-2.4L896.9,482.8z"/>
		<path class="st10" d="M909.2,478.8c-1.2-0.2-4-0.7-6-1.2c0.2,0.3,0.5,0.6,0.6,1c0.5,1,0.9,1.8,1,2.3l-2.8,1.3
			c0.8,0.4,1.7,0.9,2.5,1.3c-1.2,1.6-2.6,3.9-3.8,6.7c4.9-1.3,9.1-4.5,11.8-8.7c-0.1-0.2-0.2-0.3-0.3-0.4
			C911.2,479.7,910.8,479.1,909.2,478.8z"/>
		<path class="st5" d="M892.3,482l0.7,1.7l1.6-2.6l1.1-1.8c0.1-0.1,0.2-0.1,0.3,0l1.4,2l2,3l1.5-8.2l-0.5-1.5l-0.1,0.1l-4.3,4.2
			c-0.1,0.1-0.2,0.1-0.2,0l-5-4.9l-0.1-0.1l-0.8,1.4c0.1-0.1,0.2-0.2,0.3-0.2L892.3,482z"/>
		<path class="st5" d="M904.6,483.5c-0.8-0.4-1.7-0.9-2.5-1.3l2.8-1.3c-0.2-0.5-0.5-1.2-1-2.3c-0.2-0.4-0.4-0.7-0.6-1
			c-0.8-1-1.9-1.8-2.2-1.9l-0.1,0.3l-1.5,8.2l0,0.2l-0.6,2.2l-0.4,1.7l-0.5,2.4c1-0.1,2-0.3,2.9-0.6
			C902,487.3,903.4,485.1,904.6,483.5z"/>
		<path class="st10" d="M890.1,481.1l-4-1.6c0-0.2,0.7-1,1.5-1.8c-2.2,0.6-4.5,1.6-6.7,1.9c-1.1,0.2-1.9,0.8-2.6,1.8
			c3,4.8,8,8.3,13.9,9.2c-1.7-2.6-3.4-4.5-5.2-6.7L890.1,481.1z"/>
		<path class="st5" d="M893.9,486.1l-0.9-2.4l-0.7-1.7l-2.2-6.8c0,0-0.1,0.1-0.3,0.2c-0.5,0.4-1.5,1.4-2.3,2.4
			c-0.8,0.8-1.4,1.6-1.5,1.8l4,1.6l-3.1,2.8c1.7,2.1,3.5,4.1,5.2,6.7c1,0.2,2.1,0.3,3.2,0.3c0.1,0,0.3,0,0.4,0l-1.2-3L893.9,486.1z"
			/>
		<path class="st11" d="M897.9,464.3c0.7-0.3,1.5-0.3,2.2,0"/>
		<path class="st11" d="M891.9,464.3c0.7-0.3,1.5-0.3,2.2,0"/>
		<circle class="st4" cx="898.9" cy="465.7" r="0.6"/>
		<circle class="st4" cx="893.3" cy="465.7" r="0.6"/>
		<path class="st11" d="M893.9,471.3c0,0,1.9,1.8,3.8,0.2"/>
		<path class="st11" d="M896.6,465.2c-0.1,0.6-0.1,1.3,0,2c0.1,0.5,0.2,1,0.3,1.5c0,0.2,0.1,0.5,0,0.7s-0.3,0.4-0.4,0.3"/>
	</g>
	<g>
		<path class="st5" d="M428.6,555.8c2.2-0.4,4.5-1.3,6.7-1.9c0.9-0.9,1.9-2,2.3-2.4l0.8-1.4l0.1,0.1l0.1-1.3l0-0.1
			c-0.2-0.2-0.4-0.3-0.5-0.5c-0.2-0.3-0.4-0.7-0.5-1.1c-0.1-0.6,0-1.4-0.5-1.9c-0.4-0.4-0.8-0.6-1.1-1.2c-0.5-1-0.6-2.2-0.4-3.2
			c0-0.3,0.2-0.8,0.6-0.5c0.1,0.1,0.1,0.1,0.1,0.2c0-0.2,0-0.4,0-0.5c-0.1-0.7-0.2-1.7-0.2-2.4c-0.1-2-0.3-4.1,1.6-5.6
			c1.8-1.4,4.9-2.6,7.3-2c0.4,0.1,1.1,0.2,1.4,0.5c-0.1-0.1,0.6-0.1,0.7-0.1c1-0.1,2.9,1,4.1,2.7c1.1,1.6,0.9,3.3,0.6,5.1
			c-0.1,0.5-0.1,1-0.4,2.2c-0.1,0.2-0.2,0.7-0.4,1.2c0,0,0,0,0,0c0.2-0.1,0.1-0.4,0.3-0.5c0.4-0.3,0.6,0.2,0.6,0.5
			c0,1.1-0.2,2.2-0.8,3.2c-0.3,0.5-0.7,0.7-1.2,1.1c-0.5,0.4-0.4,1.3-0.6,1.9c-0.1,0.4-0.3,0.7-0.6,1c-0.2,0.2-0.4,0.4-0.7,0.6
			l-0.1,1.6l0.1-0.1l0.5,1.5l0.1-0.3c0.3,0.1,1.4,0.9,2.2,1.9c2,0.5,4.8,1.1,6,1.2c1.6,0.2,2,0.9,3,2.1c0.1,0.1,0.2,0.3,0.3,0.4
			c2-3.1,3.1-6.9,3.1-10.8c0-10.6-8.5-19.5-19.1-20.1c-11.7-0.6-21.3,8.7-21.3,20.2c0,3.9,1.1,7.6,3.1,10.7
			C426.6,556.7,427.5,556,428.6,555.8z"/>
		<path class="st5" d="M443.6,555.1l4.3-4.2l0.1-1.6c-0.5,0.3-1,0.5-1.3,0.9c-0.6,0.5-1.1,1-1.8,1.4c-0.4,0.2-0.9,0.2-1.4,0.1
			c-0.1,0-0.2,0-0.2,0c-0.6,0-1.2,0-1.6-0.3c-0.7-0.4-1.2-1-1.7-1.5c-0.4-0.4-0.9-0.7-1.4-1.1l0,0.1l-0.1,1.3l5,4.9
			C443.5,555.2,443.6,555.2,443.6,555.1z"/>
		<path class="st5" d="M439.8,549.9c0.5,0.6,1,1.1,1.7,1.5c0.4,0.2,1.1,0.3,1.6,0.3c0.1,0,0.1,0,0.2,0c0.5,0,1,0,1.4-0.1
			c0.8-0.3,1.3-0.8,1.8-1.4c0.4-0.4,0.9-0.6,1.3-0.9c0.3-0.2,0.5-0.3,0.7-0.6c0.3-0.3,0.4-0.6,0.6-1c0.2-0.5,0.2-1.4,0.6-1.9
			c0.4-0.4,0.8-0.5,1.2-1.1c0.6-0.9,0.8-2.1,0.8-3.2c0-0.3-0.1-0.8-0.6-0.5c-0.2,0.1-0.1,0.4-0.3,0.5c0,0,0,0,0,0
			c-0.1,0.2-0.1,0.3-0.2,0.4l-0.6,0c0-0.5,0.2-1.2,0.2-1.3c0.1-0.9,0.2-1.9,0-2.8c-0.2-1.2-2-1.9-2.9-2.5c-0.2-0.1-0.4-0.4-0.6-0.4
			c-0.3-0.1-0.1-0.1-0.4,0.1c-1.1,0.6-1.7,1.1-3,1c-1.1-0.1-2.1-0.3-3.2-0.3c-1.5,0-2.8,1-3,2.4c-0.1,0.5,0,1.1-0.1,1.6
			c0,0.4-0.1,0.7-0.1,1.1c0,0.1,0,0.2,0,0.4l-0.8,0c0-0.1,0-0.2,0-0.3c0-0.2,0-0.3,0-0.5c0-0.1,0-0.2-0.1-0.2
			c-0.4-0.3-0.6,0.2-0.6,0.5c-0.1,1.1,0,2.2,0.4,3.2c0.3,0.6,0.7,0.8,1.1,1.2c0.4,0.5,0.3,1.3,0.5,1.9c0.1,0.4,0.3,0.7,0.5,1.1
			c0.1,0.2,0.3,0.4,0.5,0.5C438.9,549.1,439.5,549.4,439.8,549.9z"/>
		<path class="st4" d="M436.3,541.1c0,0.1,0,0.2,0,0.3l0.8,0c0-0.1,0-0.3,0-0.4c0-0.4,0-0.7,0.1-1.1c0.1-0.5,0-1.1,0.1-1.6
			c0.2-1.4,1.6-2.3,3-2.4c1.1,0,2.1,0.2,3.2,0.3c1.3,0.1,1.9-0.5,3-1c0.3-0.1,0.1-0.2,0.4-0.1c0.2,0.1,0.4,0.3,0.6,0.4
			c1,0.6,2.7,1.3,2.9,2.5c0.2,0.9,0.1,1.9,0,2.8c0,0.1-0.2,0.9-0.2,1.3l0.6,0c0.1-0.1,0.1-0.3,0.2-0.4c0.2-0.5,0.4-1,0.4-1.2
			c0.3-1.2,0.3-1.7,0.4-2.2c0.3-1.8,0.5-3.5-0.6-5.1c-1.2-1.7-3.1-2.8-4.1-2.7c-0.1,0-0.8,0-0.7,0.1c-0.3-0.3-1-0.4-1.4-0.5
			c-2.4-0.7-5.5,0.6-7.3,2c-2,1.5-1.7,3.6-1.6,5.6c0,0.7,0.2,1.7,0.2,2.4c0,0.2,0,0.4,0,0.5C436.3,540.8,436.3,540.9,436.3,541.1z"
			/>
		<path class="st8" d="M441.7,562.3l0.7,1.7l0.6-5.1c0-0.2,0-0.5-0.1-0.7l-0.5-1l-1.6,2.6L441.7,562.3z"/>
		<path class="st8" d="M444.7,558.4c-0.1,0.2-0.1,0.4,0,0.7l1.5,5.5l0.4-1.7l0.6-2.2l0-0.2l-2-3L444.7,558.4z"/>
		<path class="st7" d="M444.6,559.1c-0.1-0.2-0.1-0.5,0-0.7l0.4-0.9l-1.4-2c-0.1-0.1-0.2-0.1-0.3,0l-1.1,1.8l0.5,1
			c0.1,0.2,0.2,0.5,0.1,0.7l-0.6,5.1l1.2,3c0.7,0,1.4-0.1,2-0.1l0.5-2.4L444.6,559.1z"/>
		<path class="st10" d="M456.9,555.1c-1.2-0.2-4-0.7-6-1.2c0.2,0.3,0.5,0.6,0.6,1c0.5,1,0.9,1.8,1,2.3l-2.8,1.3
			c0.8,0.4,1.7,0.9,2.5,1.3c-1.2,1.6-2.6,3.9-3.8,6.7c4.8-1.3,8.8-4.3,11.5-8.3c0-0.3,0-0.6,0-0.9
			C458.9,555.9,458.5,555.3,456.9,555.1z"/>
		<path class="st5" d="M440.1,558.2l0.7,1.7l1.6-2.6l1.1-1.8c0.1-0.1,0.2-0.1,0.3,0l1.4,2l2,3l1.5-8.2l-0.5-1.5l-0.1,0.1l-4.3,4.2
			c-0.1,0.1-0.2,0.1-0.2,0l-5-4.9l-0.1-0.1l-0.8,1.4c0.1-0.1,0.2-0.2,0.3-0.2L440.1,558.2z"/>
		<path class="st5" d="M452.3,559.7c-0.8-0.4-1.7-0.9-2.5-1.3l2.8-1.3c-0.2-0.5-0.5-1.2-1-2.3c-0.2-0.4-0.4-0.7-0.6-1
			c-0.8-1-1.9-1.8-2.2-1.9l-0.1,0.3l-1.5,8.2l0,0.2l-0.6,2.2l-0.4,1.7l-0.5,2.4c1-0.1,2-0.3,2.9-0.6
			C449.7,563.6,451.1,561.3,452.3,559.7z"/>
		<path class="st10" d="M437.9,557.4l-4-1.6c0-0.2,0.7-1,1.5-1.8c-2.2,0.6-4.5,1.6-6.7,1.9c-1.1,0.2-1.9,0.8-2.6,1.8
			c3,4.8,8,8.3,13.9,9.2c-1.7-2.6-3.4-4.5-5.2-6.7L437.9,557.4z"/>
		<path class="st5" d="M441.7,562.3l-0.9-2.4l-0.7-1.7l-2.2-6.8c0,0-0.1,0.1-0.3,0.2c-0.5,0.4-1.5,1.4-2.3,2.4
			c-0.8,0.8-1.4,1.6-1.5,1.8l4,1.6l-3.1,2.8c1.7,2.1,3.5,4.1,5.2,6.7c1.2,0.2,2.4,0.3,3.6,0.3c0,0,0,0,0,0l-1.2-3L441.7,562.3z"/>
		<path class="st11" d="M445.6,540.6c0.7-0.3,1.5-0.3,2.2,0"/>
		<path class="st11" d="M439.7,540.6c0.7-0.3,1.5-0.3,2.2,0"/>
		<circle class="st4" cx="446.6" cy="541.9" r="0.6"/>
		<circle class="st4" cx="441.1" cy="541.9" r="0.6"/>
		<path class="st11" d="M441.6,547.5c0,0,1.9,1.8,3.8,0.2"/>
		<path class="st11" d="M444.3,541.4c-0.1,0.6-0.1,1.3,0,2c0.1,0.5,0.2,1,0.3,1.5c0,0.2,0.1,0.5,0,0.7c-0.1,0.2-0.3,0.4-0.4,0.3"/>
	</g>
	<g>
		<path class="st5" d="M299.6,512.8c2.2-0.4,4.5-1.3,6.7-1.9c0.9-0.9,1.9-2,2.3-2.4l0.8-1.4l0.1,0.1l0.1-1.3l0-0.1
			c-0.2-0.2-0.4-0.3-0.5-0.5c-0.2-0.3-0.4-0.7-0.5-1.1c-0.1-0.6,0-1.4-0.5-1.9c-0.4-0.4-0.8-0.6-1.1-1.2c-0.5-1-0.6-2.2-0.4-3.2
			c0-0.3,0.2-0.8,0.6-0.5c0.1,0.1,0.1,0.1,0.1,0.2c0-0.2,0-0.4,0-0.5c-0.1-0.7-0.2-1.7-0.2-2.4c-0.1-2-0.3-4.1,1.6-5.6
			c1.8-1.4,4.9-2.6,7.3-2c0.4,0.1,1.1,0.2,1.4,0.5c-0.1-0.1,0.6-0.1,0.7-0.1c1-0.1,2.9,1,4.1,2.7c1.1,1.6,0.9,3.3,0.6,5.1
			c-0.1,0.5-0.1,1-0.4,2.2c-0.1,0.2-0.2,0.7-0.4,1.2c0,0,0,0,0,0c0.2-0.1,0.1-0.4,0.3-0.5c0.4-0.3,0.6,0.2,0.6,0.5
			c0,1.1-0.2,2.2-0.8,3.2c-0.3,0.5-0.7,0.7-1.2,1.1c-0.5,0.4-0.4,1.3-0.6,1.9c-0.1,0.4-0.3,0.7-0.6,1c-0.2,0.2-0.4,0.4-0.7,0.6
			l-0.1,1.6l0.1-0.1l0.5,1.5l0.1-0.3c0.3,0.1,1.4,0.9,2.2,1.9c2,0.5,4.8,1.1,6,1.2c1.6,0.2,2,0.9,3,2.1c0.1,0.1,0.2,0.3,0.3,0.4
			c2-3.1,3.1-6.9,3.1-10.8c0-10.6-8.5-19.5-19.1-20.1c-11.7-0.6-21.3,8.7-21.3,20.2c0,3.9,1.1,7.6,3.1,10.7
			C297.6,513.7,298.5,513,299.6,512.8z"/>
		<path class="st5" d="M314.6,512.1l4.3-4.2l0.1-1.6c-0.5,0.3-1,0.5-1.3,0.9c-0.6,0.5-1.1,1-1.8,1.4c-0.4,0.2-0.9,0.2-1.4,0.1
			c-0.1,0-0.2,0-0.2,0c-0.6,0-1.2,0-1.6-0.3c-0.7-0.4-1.2-1-1.7-1.5c-0.4-0.4-0.9-0.7-1.4-1.1l0,0.1l-0.1,1.3l5,4.9
			C314.5,512.2,314.6,512.2,314.6,512.1z"/>
		<path class="st5" d="M310.8,506.9c0.5,0.6,1,1.1,1.7,1.5c0.4,0.2,1.1,0.3,1.6,0.3c0.1,0,0.1,0,0.2,0c0.5,0,1,0,1.4-0.1
			c0.8-0.3,1.3-0.8,1.8-1.4c0.4-0.4,0.9-0.6,1.3-0.9c0.3-0.2,0.5-0.3,0.7-0.6c0.3-0.3,0.4-0.6,0.6-1c0.2-0.5,0.2-1.4,0.6-1.9
			c0.4-0.4,0.8-0.5,1.2-1.1c0.6-0.9,0.8-2.1,0.8-3.2c0-0.3-0.1-0.8-0.6-0.5c-0.2,0.1-0.1,0.4-0.3,0.5c0,0,0,0,0,0
			c-0.1,0.2-0.1,0.3-0.2,0.4l-0.6,0c0-0.5,0.2-1.2,0.2-1.3c0.1-0.9,0.2-1.9,0-2.8c-0.2-1.2-2-1.9-2.9-2.5c-0.2-0.1-0.4-0.4-0.6-0.4
			c-0.3-0.1-0.1-0.1-0.4,0.1c-1.1,0.6-1.7,1.1-3,1c-1.1-0.1-2.1-0.3-3.2-0.3c-1.5,0-2.8,1-3,2.4c-0.1,0.5,0,1.1-0.1,1.6
			c0,0.4-0.1,0.7-0.1,1.1c0,0.1,0,0.2,0,0.4l-0.8,0c0-0.1,0-0.2,0-0.3c0-0.2,0-0.3,0-0.5c0-0.1,0-0.2-0.1-0.2
			c-0.4-0.3-0.6,0.2-0.6,0.5c-0.1,1.1,0,2.2,0.4,3.2c0.3,0.6,0.7,0.8,1.1,1.2c0.4,0.5,0.3,1.3,0.5,1.9c0.1,0.4,0.3,0.7,0.5,1.1
			c0.1,0.2,0.3,0.4,0.5,0.5C309.9,506.1,310.5,506.4,310.8,506.9z"/>
		<path class="st4" d="M307.3,498.1c0,0.1,0,0.2,0,0.3l0.8,0c0-0.1,0-0.3,0-0.4c0-0.4,0-0.7,0.1-1.1c0.1-0.5,0-1.1,0.1-1.6
			c0.2-1.4,1.6-2.3,3-2.4c1.1,0,2.1,0.2,3.2,0.3c1.3,0.1,1.9-0.5,3-1c0.3-0.1,0.1-0.2,0.4-0.1c0.2,0.1,0.4,0.3,0.6,0.4
			c1,0.6,2.7,1.3,2.9,2.5c0.2,0.9,0.1,1.9,0,2.8c0,0.1-0.2,0.9-0.2,1.3l0.6,0c0.1-0.1,0.1-0.3,0.2-0.4c0.2-0.5,0.4-1,0.4-1.2
			c0.3-1.2,0.3-1.7,0.4-2.2c0.3-1.8,0.5-3.5-0.6-5.1c-1.2-1.7-3.1-2.8-4.1-2.7c-0.1,0-0.8,0-0.7,0.1c-0.3-0.3-1-0.4-1.4-0.5
			c-2.4-0.7-5.5,0.6-7.3,2c-2,1.5-1.7,3.6-1.6,5.6c0,0.7,0.2,1.7,0.2,2.4c0,0.2,0,0.4,0,0.5C307.3,497.8,307.3,497.9,307.3,498.1z"
			/>
		<path class="st8" d="M312.7,519.3l0.7,1.7l0.6-5.1c0-0.2,0-0.5-0.1-0.7l-0.5-1l-1.6,2.6L312.7,519.3z"/>
		<path class="st8" d="M315.7,515.4c-0.1,0.2-0.1,0.4,0,0.7l1.5,5.5l0.4-1.7l0.6-2.2l0-0.2l-2-3L315.7,515.4z"/>
		<path class="st7" d="M315.6,516.1c-0.1-0.2-0.1-0.5,0-0.7l0.4-0.9l-1.4-2c-0.1-0.1-0.2-0.1-0.3,0l-1.1,1.8l0.5,1
			c0.1,0.2,0.2,0.5,0.1,0.7l-0.6,5.1l1.2,3c0.7,0,1.4-0.1,2-0.1l0.5-2.4L315.6,516.1z"/>
		<path class="st10" d="M327.9,512.1c-1.2-0.2-4-0.7-6-1.2c0.2,0.3,0.5,0.6,0.6,1c0.5,1,0.9,1.8,1,2.3l-2.8,1.3
			c0.8,0.4,1.7,0.9,2.5,1.3c-1.2,1.6-2.6,3.9-3.8,6.7c4.8-1.3,8.8-4.3,11.5-8.3c0-0.3,0-0.6,0-0.9
			C329.9,512.9,329.5,512.3,327.9,512.1z"/>
		<path class="st5" d="M311.1,515.2l0.7,1.7l1.6-2.6l1.1-1.8c0.1-0.1,0.2-0.1,0.3,0l1.4,2l2,3l1.5-8.2l-0.5-1.5l-0.1,0.1l-4.3,4.2
			c-0.1,0.1-0.2,0.1-0.2,0l-5-4.9l-0.1-0.1l-0.8,1.4c0.1-0.1,0.2-0.2,0.3-0.2L311.1,515.2z"/>
		<path class="st5" d="M323.3,516.7c-0.8-0.4-1.7-0.9-2.5-1.3l2.8-1.3c-0.2-0.5-0.5-1.2-1-2.3c-0.2-0.4-0.4-0.7-0.6-1
			c-0.8-1-1.9-1.8-2.2-1.9l-0.1,0.3l-1.5,8.2l0,0.2l-0.6,2.2l-0.4,1.7l-0.5,2.4c1-0.1,2-0.3,2.9-0.6
			C320.7,520.6,322.1,518.3,323.3,516.7z"/>
		<path class="st10" d="M308.9,514.4l-4-1.6c0-0.2,0.7-1,1.5-1.8c-2.2,0.6-4.5,1.6-6.7,1.9c-1.1,0.2-1.9,0.8-2.6,1.8
			c3,4.8,8,8.3,13.9,9.2c-1.7-2.6-3.4-4.5-5.2-6.7L308.9,514.4z"/>
		<path class="st5" d="M312.7,519.3l-0.9-2.4l-0.7-1.7l-2.2-6.8c0,0-0.1,0.1-0.3,0.2c-0.5,0.4-1.5,1.4-2.3,2.4
			c-0.8,0.8-1.4,1.6-1.5,1.8l4,1.6l-3.1,2.8c1.7,2.1,3.5,4.1,5.2,6.7c1.2,0.2,2.4,0.3,3.6,0.3c0,0,0,0,0,0l-1.2-3L312.7,519.3z"/>
		<path class="st11" d="M316.6,497.6c0.7-0.3,1.5-0.3,2.2,0"/>
		<path class="st11" d="M310.7,497.6c0.7-0.3,1.5-0.3,2.2,0"/>
		<circle class="st4" cx="317.6" cy="498.9" r="0.6"/>
		<circle class="st4" cx="312.1" cy="498.9" r="0.6"/>
		<path class="st11" d="M312.6,504.5c0,0,1.9,1.8,3.8,0.2"/>
		<path class="st11" d="M315.3,498.4c-0.1,0.6-0.1,1.3,0,2c0.1,0.5,0.2,1,0.3,1.5c0,0.2,0.1,0.5,0,0.7c-0.1,0.2-0.3,0.4-0.4,0.3"/>
	</g>
	<g>
		<path class="st5" d="M117.6,480.8c2.2-0.4,4.5-1.3,6.7-1.9c0.9-0.9,1.9-2,2.3-2.4l0.8-1.4l0.1,0.1l0.1-1.3l0-0.1
			c-0.2-0.2-0.4-0.3-0.5-0.5c-0.2-0.3-0.4-0.7-0.5-1.1c-0.1-0.6,0-1.4-0.5-1.9c-0.4-0.4-0.8-0.6-1.1-1.2c-0.5-1-0.6-2.2-0.4-3.2
			c0-0.3,0.2-0.8,0.6-0.5c0.1,0.1,0.1,0.1,0.1,0.2c0-0.2,0-0.4,0-0.5c-0.1-0.7-0.2-1.7-0.2-2.4c-0.1-2-0.3-4.1,1.6-5.6
			c1.8-1.4,4.9-2.6,7.3-2c0.4,0.1,1.1,0.2,1.4,0.5c-0.1-0.1,0.6-0.1,0.7-0.1c1-0.1,2.9,1,4.1,2.7c1.1,1.6,0.9,3.3,0.6,5.1
			c-0.1,0.5-0.1,1-0.4,2.2c-0.1,0.2-0.2,0.7-0.4,1.2c0,0,0,0,0,0c0.2-0.1,0.1-0.4,0.3-0.5c0.4-0.3,0.6,0.2,0.6,0.5
			c0,1.1-0.2,2.2-0.8,3.2c-0.3,0.5-0.7,0.7-1.2,1.1c-0.5,0.4-0.4,1.3-0.6,1.9c-0.1,0.4-0.3,0.7-0.6,1c-0.2,0.2-0.4,0.4-0.7,0.6
			l-0.1,1.6l0.1-0.1l0.5,1.5l0.1-0.3c0.3,0.1,1.4,0.9,2.2,1.9c2,0.5,4.8,1.1,6,1.2c1.6,0.2,2,0.9,3,2.1c0.1,0.1,0.2,0.3,0.3,0.4
			c2-3.1,3.1-6.9,3.1-10.8c0-10.6-8.5-19.5-19.1-20.1c-11.7-0.6-21.3,8.7-21.3,20.2c0,3.9,1.1,7.6,3.1,10.7
			C115.6,481.7,116.5,481,117.6,480.8z"/>
		<path class="st5" d="M132.6,480.1l4.3-4.2l0.1-1.6c-0.5,0.3-1,0.5-1.3,0.9c-0.6,0.5-1.1,1-1.8,1.4c-0.4,0.2-0.9,0.2-1.4,0.1
			c-0.1,0-0.2,0-0.2,0c-0.6,0-1.2,0-1.6-0.3c-0.7-0.4-1.2-1-1.7-1.5c-0.4-0.4-0.9-0.7-1.4-1.1l0,0.1l-0.1,1.3l5,4.9
			C132.5,480.2,132.6,480.2,132.6,480.1z"/>
		<path class="st5" d="M128.8,474.9c0.5,0.6,1,1.1,1.7,1.5c0.4,0.2,1.1,0.3,1.6,0.3c0.1,0,0.1,0,0.2,0c0.5,0,1,0,1.4-0.1
			c0.8-0.3,1.3-0.8,1.8-1.4c0.4-0.4,0.9-0.6,1.3-0.9c0.3-0.2,0.5-0.3,0.7-0.6c0.3-0.3,0.4-0.6,0.6-1c0.2-0.5,0.2-1.4,0.6-1.9
			c0.4-0.4,0.8-0.5,1.2-1.1c0.6-0.9,0.8-2.1,0.8-3.2c0-0.3-0.1-0.8-0.6-0.5c-0.2,0.1-0.1,0.4-0.3,0.5c0,0,0,0,0,0
			c-0.1,0.2-0.1,0.3-0.2,0.4l-0.6,0c0-0.5,0.2-1.2,0.2-1.3c0.1-0.9,0.2-1.9,0-2.8c-0.2-1.2-2-1.9-2.9-2.5c-0.2-0.1-0.4-0.4-0.6-0.4
			c-0.3-0.1-0.1-0.1-0.4,0.1c-1.1,0.6-1.7,1.1-3,1c-1.1-0.1-2.1-0.3-3.2-0.3c-1.5,0-2.8,1-3,2.4c-0.1,0.5,0,1.1-0.1,1.6
			c0,0.4-0.1,0.7-0.1,1.1c0,0.1,0,0.2,0,0.4l-0.8,0c0-0.1,0-0.2,0-0.3c0-0.2,0-0.3,0-0.5c0-0.1,0-0.2-0.1-0.2
			c-0.4-0.3-0.6,0.2-0.6,0.5c-0.1,1.1,0,2.2,0.4,3.2c0.3,0.6,0.7,0.8,1.1,1.2c0.4,0.5,0.3,1.3,0.5,1.9c0.1,0.4,0.3,0.7,0.5,1.1
			c0.1,0.2,0.3,0.4,0.5,0.5C127.9,474.1,128.5,474.4,128.8,474.9z"/>
		<path class="st4" d="M125.3,466.1c0,0.1,0,0.2,0,0.3l0.8,0c0-0.1,0-0.3,0-0.4c0-0.4,0-0.7,0.1-1.1c0.1-0.5,0-1.1,0.1-1.6
			c0.2-1.4,1.6-2.3,3-2.4c1.1,0,2.1,0.2,3.2,0.3c1.3,0.1,1.9-0.5,3-1c0.3-0.1,0.1-0.2,0.4-0.1c0.2,0.1,0.4,0.3,0.6,0.4
			c1,0.6,2.7,1.3,2.9,2.5c0.2,0.9,0.1,1.9,0,2.8c0,0.1-0.2,0.9-0.2,1.3l0.6,0c0.1-0.1,0.1-0.3,0.2-0.4c0.2-0.5,0.4-1,0.4-1.2
			c0.3-1.2,0.3-1.7,0.4-2.2c0.3-1.8,0.5-3.5-0.6-5.1c-1.2-1.7-3.1-2.8-4.1-2.7c-0.1,0-0.8,0-0.7,0.1c-0.3-0.3-1-0.4-1.4-0.5
			c-2.4-0.7-5.5,0.6-7.3,2c-2,1.5-1.7,3.6-1.6,5.6c0,0.7,0.2,1.7,0.2,2.4c0,0.2,0,0.4,0,0.5C125.3,465.8,125.3,465.9,125.3,466.1z"
			/>
		<path class="st8" d="M130.7,487.3l0.7,1.7l0.6-5.1c0-0.2,0-0.5-0.1-0.7l-0.5-1l-1.6,2.6L130.7,487.3z"/>
		<path class="st8" d="M133.7,483.4c-0.1,0.2-0.1,0.4,0,0.7l1.5,5.5l0.4-1.7l0.6-2.2l0-0.2l-2-3L133.7,483.4z"/>
		<path class="st7" d="M133.6,484.1c-0.1-0.2-0.1-0.5,0-0.7l0.4-0.9l-1.4-2c-0.1-0.1-0.2-0.1-0.3,0l-1.1,1.8l0.5,1
			c0.1,0.2,0.2,0.5,0.1,0.7l-0.6,5.1l1.2,3c0.7,0,1.4-0.1,2-0.1l0.5-2.4L133.6,484.1z"/>
		<path class="st10" d="M145.9,480.1c-1.2-0.2-4-0.7-6-1.2c0.2,0.3,0.5,0.6,0.6,1c0.5,1,0.9,1.8,1,2.3l-2.8,1.3
			c0.8,0.4,1.7,0.9,2.5,1.3c-1.2,1.6-2.6,3.9-3.8,6.7c4.8-1.3,8.8-4.3,11.5-8.3c0-0.3,0-0.6,0-0.9
			C147.9,480.9,147.5,480.3,145.9,480.1z"/>
		<path class="st5" d="M129.1,483.2l0.7,1.7l1.6-2.6l1.1-1.8c0.1-0.1,0.2-0.1,0.3,0l1.4,2l2,3l1.5-8.2l-0.5-1.5l-0.1,0.1l-4.3,4.2
			c-0.1,0.1-0.2,0.1-0.2,0l-5-4.9l-0.1-0.1l-0.8,1.4c0.1-0.1,0.2-0.2,0.3-0.2L129.1,483.2z"/>
		<path class="st5" d="M141.3,484.7c-0.8-0.4-1.7-0.9-2.5-1.3l2.8-1.3c-0.2-0.5-0.5-1.2-1-2.3c-0.2-0.4-0.4-0.7-0.6-1
			c-0.8-1-1.9-1.8-2.2-1.9l-0.1,0.3l-1.5,8.2l0,0.2l-0.6,2.2l-0.4,1.7l-0.5,2.4c1-0.1,2-0.3,2.9-0.6
			C138.7,488.6,140.1,486.3,141.3,484.7z"/>
		<path class="st10" d="M126.9,482.4l-4-1.6c0-0.2,0.7-1,1.5-1.8c-2.2,0.6-4.5,1.6-6.7,1.9c-1.1,0.2-1.9,0.8-2.6,1.8
			c3,4.8,8,8.3,13.9,9.2c-1.7-2.6-3.4-4.5-5.2-6.7L126.9,482.4z"/>
		<path class="st5" d="M130.7,487.3l-0.9-2.4l-0.7-1.7l-2.2-6.8c0,0-0.1,0.1-0.3,0.2c-0.5,0.4-1.5,1.4-2.3,2.4
			c-0.8,0.8-1.4,1.6-1.5,1.8l4,1.6l-3.1,2.8c1.7,2.1,3.5,4.1,5.2,6.7c1.2,0.2,2.4,0.3,3.6,0.3c0,0,0,0,0,0l-1.2-3L130.7,487.3z"/>
		<path class="st11" d="M134.6,465.6c0.7-0.3,1.5-0.3,2.2,0"/>
		<path class="st11" d="M128.7,465.6c0.7-0.3,1.5-0.3,2.2,0"/>
		<circle class="st4" cx="135.6" cy="466.9" r="0.6"/>
		<circle class="st4" cx="130.1" cy="466.9" r="0.6"/>
		<path class="st11" d="M130.6,472.5c0,0,1.9,1.8,3.8,0.2"/>
		<path class="st11" d="M133.3,466.4c-0.1,0.6-0.1,1.3,0,2c0.1,0.5,0.2,1,0.3,1.5c0,0.2,0.1,0.5,0,0.7c-0.1,0.2-0.3,0.4-0.4,0.3"/>
	</g>
</g>
</svg>
