<svg xmlns="http://www.w3.org/2000/svg" viewBox="0 0 912 608.84"><defs><style>.cls-1{fill:#ccc}.cls-2,.cls-3{fill:#f0f1f1}.cls-3{stroke:#babcbe}.cls-11,.cls-12,.cls-13,.cls-15,.cls-3,.cls-4,.cls-5,.cls-6,.cls-8,.cls-9{stroke-miterlimit:10}.cls-12,.cls-13,.cls-15,.cls-3,.cls-4,.cls-5,.cls-6,.cls-8,.cls-9{stroke-width:.5px}.cls-11,.cls-16,.cls-4,.cls-6{fill:#fff}.cls-4{stroke:#a5a7a9}.cls-5{fill:#eb058c}.cls-11,.cls-12,.cls-13,.cls-15,.cls-5,.cls-6,.cls-8,.cls-9{stroke:#000}.cls-7,.cls-9{fill:#1a1a1a}.cls-8{fill:#f2f2f2}.cls-12{fill:none}.cls-13{fill:#0077bf}.cls-15{fill:#c10072}</style></defs><g id="Layer_3" data-name="Layer 3"><ellipse class="cls-1" cx="673.87" cy="584.57" rx="71.61" ry="6.98"/><ellipse class="cls-1" cx="215.83" cy="584.57" rx="53.58" ry="6.98"/></g><g id="Layer_6" data-name="Layer 6"><path class="cls-2" d="M911.75 516v-90.19s-50.06-28.36-61.33-34.09-18.41-5.35-23.67-7.23-10.89-1.88-18.41 0-50.34 30.43-53 31.93-8.64 3-11.27 2.63-7.14-1.88-9-3.38-7.89-1.5-12 1.5-3.76 7.14-7.51 7.89-9.77.75-12.77 4.88c-1.5 1.13-10.14-.38-12.4-.38s-7.89 4.51-9.77 6-13.9-1.88-18.78 3c-3.38.38-7.51-6.39-15-.38-5.26 0-8.64-.38-14.27 1.88s-6.39-3.38-9-.75-3.38 3.76-6.39 3.38-20.66-4.13-26.67-.75c-4.51-1.13-28.92-.38-28.92-.38s-47-2.25-51.46 2.25-11.27 4.6-15 5.68-19.25-3.33-30.29 0-42.87-5.68-46.49-5.68-22.4 4.6-24.65 5.68-78.88-4.93-91.66-4.18-17.28 7.51-26.67 9.77-7.89-5.92-20.66-5.59-40.19 37.14-56 36-25.92-11.27-37.19-6.76-46.2 27.79-63.11 28.55A65.21 65.21 0 0 0 69.1 516z"/><path class="cls-2" d="M317.75 354.95h-7.9v-5.55h-28.62v5.55h-7.9v5.55h-11.25v155.47H329V360.5h-11.25v-5.55zM151.11 383.56h23.87v132.41h-23.87zM116.25 397.82h-11.93v118.15h35.8V365.4h-23.87v32.42zM224.9 368.59h10.76v7.8h17.72v-27.68c0-.57.33-1 .75-1s.75.46.75 1V516h-57.76V360.28c23.34 0 27.78 8.31 27.78 8.31zM536.41 347.68v21.52h-1.59v3.26h-3.2v4.47h-5.3v3.26h-8.43l-3.25 3.37v132.41h23.37V347.68h-1.6zM87.28 362.5v-9.73H51.09v163.2h47.34V362.5H87.28z"/><path class="cls-3" d="M665.12 498.24v-33.71h-14.08v-7.3h-2.63v-1.74h5.26v-1.27h-7.39v-11.6h-.7v11.6h-7.57v-4.85h-.69v4.85h-4.16v-20.17h-.53v20.17h-7.3v1.27h5.26v1.74h-2.63v7.3h-14.08v51.44h60.28v-17.73h-9.04zM53.64 358.34v-19.03h-.79v-2.47H51v-1.05h-2.82v-1.59h-1.59v5.11h-4.05v-3h-2.99v-2.81h2.64v-1.85l-35.6-3.97v11.63H.25v176.66h55.38V358.34h-1.99zM77.93 388.53V386h-6.29v2.53H58.82v127.44h45.5V388.53H77.93zM161.64 380.65v-2.63h-2.63v-4.32h-1.5v-4.89h-4.13l-5.64-6.57h-12.77l-4.51 6.57h-4.13v4.89h-1.5v4.32h-2.63v2.63h-1.41v135.32h42.26V380.65h-1.41zM227.94 376.98l-4.51-4.41v-23.1h-6.52v-1.97h-3.06v1.97h-34.84v2.44h1.51v29.11h-7.7v134.95h60.66V376.98h-5.54zM380.79 396.02v-4.48h5.26l44.89 45.29v79.14h-50.15V396.02zM441.62 381.85h29.36l3.46 2.29v131.83h-32.82V381.85zM524.86 406.18V398H523v-27.21h-1.22v.85h-5.4v-2.89l-9.38-9.39v-1.5l.89-.89-1.71-1.71-1.68 1.74.89.89v1.5l-9.39 9.36v2.89h-5.4v-.85h-1.22V398h-1.83v8.2h-1.46V516h40.24V406.18zm-28.72-31.57h-5.28v-2h5.28zm25.4 0h-5.28v-2h5.28zM539.71 398.39v-3.94c0-1.41.42-2.82 1.41-2.82v-6.34a35.15 35.15 0 0 1 5.63-.7v-2.11h2v-7.75h9l2.77 2.77v1.83h-2.58v4.13h7.42v-2.16l3.85 2.54v9.86h1.5V516h-31zM875.95 417.92h-7.47v-2.11h-4.37v-1.69h-5.71v1.69h-1.9v-1.69h-3.8v1.69h-4.37v2.11h-7.47v98h2.35v-2.82h2.42v2.9h25.54v-2.82h3.29V516h2.35v-98zm-4.77 80.57v-3.94h3.29v3.94zm3.29 2.25v3.94h-3.29v-3.94zm-3.29-8.45v-3.94h3.29v3.94zm0-6.2v-3.94h3.29v3.94zm0-6.2V476h3.29v3.94zm0-6.2v-3.94h3.29v3.94zm0-6.2v-3.94h3.29v3.94zm0-6.2v-3.94h3.29v3.94zm0-6.2v-3.94h3.29v3.94zm0-6.2V445h3.29v3.94zm0-6.2v-3.94h3.29v3.94zm0-6.2v-3.94h3.29v3.94zm0-6.2v-3.94h3.29v3.94zm0-6.2v-3.94h3.29v3.94zm-28-3.94h2.42v3.94h-2.42zm0 6.2h2.42v3.94h-2.42zm0 6.2h2.42v3.94h-2.42zm0 6.2h2.42v3.94h-2.42zm0 6.2h2.42v3.94h-2.42zm0 6.2h2.42v3.94h-2.42zm0 6.2h2.42v3.94h-2.42zm0 6.2h2.42v3.94h-2.42zm0 6.2h2.42v3.94h-2.42zm0 6.2h2.42v3.94h-2.42zm0 6.2h2.42v3.94h-2.42zm0 6.2h2.42v3.94h-2.42zm0 6.2h2.42v3.94h-2.42zm0 6.2h2.42v3.94h-2.42zm0 10.14V507h2.42v3.94zm28 0V507h3.29v3.94zM788.06 445.63v-1.69H790v-2.25h-7.7s.56-6.57-4.13-6.57v-3.19h-5.27v3.19c-4.7 0-4.13 6.57-4.13 6.57h-7.7v2.25H763v1.69h-4.65v1.88h3.24V516h27.89v-68.49h3.24v-1.88zM755.89 447.79v-1.13h-1.62v-12.68h-1.84v5.73h-3.8v3.01h-2.25v-4.37h-11.84v4.37h-2.25v-3.01h-3.8v-5.73h-1.83v12.68h-1.62v1.13h1.62v2.39h-1.62v1.13h1.62v2.39h-1.62v1.13h1.62v2.4h-1.62v1.12h1.62v2.4h-1.62v1.12h1.62v2.4h-1.62v1.13h1.62v2.39h-1.62v1.13h1.62v2.39h-1.62v1.13h1.62v2.39h-1.62v1.13h1.62v2.4h-1.62v1.12h1.62v2.4h-1.62V483h1.62v2.4h-1.62v1.12h1.62v2.4h-1.62v1.13h1.62v2.39h-1.62v1.13h1.62v2.39h-1.62v1.13h1.62v2.4h-1.62v1.12h1.62v2.4h-1.62v1.12h1.62v2.4h-1.62v1.12h1.62v2.4h-1.62v1.13h1.62v2.39h-1.62v1.13h1.62v1.27h27.61v-1.27h1.62v-1.13h-1.62v-2.39h1.62v-1.13h-1.62v-2.4h1.62v-1.12h-1.62v-2.4h1.62v-1.12h-1.62v-2.4h1.62v-1.12h-1.62v-2.4h1.62v-1.13h-1.62v-2.39h1.62v-1.13h-1.62v-2.39h1.62v-1.13h-1.62v-2.4h1.62v-1.12h-1.62V483h1.62v-1.12h-1.62v-2.4h1.62v-1.12h-1.62v-2.4h1.62v-1.13h-1.62v-2.39h1.62v-1.13h-1.62v-2.39h1.62v-1.13h-1.62v-2.39h1.62v-1.13h-1.62v-2.4h1.62v-1.12h-1.62v-2.4h1.62v-1.12h-1.62v-2.4h1.62v-1.13h-1.62v-2.39h1.62v-1.13h-1.62v-2.39h1.62zM720.83 453.7v-2.06h-1.97v-7.89h-5.91v-2.07h-5.83v-8.36h-2.25v5.26h-3.85v3.1h-6.11v2.07H689v7.89h-1.97v2.06H689v1.51h-1.97v2.06H689v1.5h-1.97v2.07H689v1.5h-1.97v2.07H689v1.5h-1.97v2.07H689v1.5h-1.97v2.07H689v1.5h-1.97v2.07H689v1.64h-1.97v2.06H689v1.65h-1.97v2.06H689v1.65h-1.97v2.06H689v1.65h-1.97v2.06H689v1.65h-1.97v2.06H689v1.65h-1.97v2.06H689v1.64h-1.97v2.07H689v1.64h-1.97v2.07H689v1.64h-1.97v2.07H689v1.64h-1.97v2.07H689v1.69h-1.97v2.07h33.8v-2.07h-1.97v-1.69h1.97v-2.07h-1.97v-1.64h1.97v-2.07h-1.97v-1.64h1.97v-2.07h-1.97v-1.64h1.97v-2.07h-1.97v-1.64h1.97v-2.06h-1.97v-1.65h1.97v-2.06h-1.97v-1.65h1.97v-2.06h-1.97v-1.65h1.97v-2.06h-1.97v-1.65h1.97v-2.06h-1.97v-1.65h1.97v-2.06h-1.97v-1.64h1.97v-2.07h-1.97v-1.5h1.97v-2.07h-1.97v-1.5h1.97v-2.07h-1.97v-1.5h1.97v-2.07h-1.97v-1.5h1.97v-2.07h-1.97v-1.5h1.97v-2.06h-1.97v-1.51h1.97zM295.54 375.9v-2.82h-2.58v-12.63l-3.48-2.16v-14.93h-2.25v13.38l-26.76-5.21v9.02l-4.32-.1v155.52h36.81v-4.56h2.58v-2.82h-2.58v-2.39h2.58v-2.82h-2.58v-2.39h2.58v-2.82h-2.58v-2.4h2.58v-2.81h-2.58v-2.4h2.58v-2.81h-2.58v-2.4h2.58v-2.82h-2.58v-2.39h2.58v-2.82h-2.58v-2.39h2.58v-2.82h-2.58v-2.4h2.58v-2.81h-2.58v-2.4h2.58v-2.81h-2.58v-2.4h2.58v-2.82h-2.58v-2.39h2.58v-2.82h-2.58v-2.39h2.58v-2.82h-2.58v-2.39h2.58v-2.82h-2.58v-2.4h2.58v-2.81h-2.58v-2.4h2.58v-2.82h-2.58v-2.39h2.58v-2.82h-2.58v-2.39h2.58v-2.82h-2.58v-2.39h2.58v-2.82h-2.58v-2.4h2.58v-2.81h-2.58v-2.4h2.58v-2.82h-2.58v-2.39h2.58v-2.82h-2.58v-2.39h2.58v-2.82h-2.58v-2.39h2.58v-2.82h-2.58v-2.4h2.58v-2.81h-2.58v-2.4h2.58v-2.81h-2.58v-2.4h2.58z"/><path class="cls-2" d="M369.45 339.98h-6.48v-5.21h-2.11v1.93h-2.11v1.94h-9.72v1.34h-5.22v175.99h22.54v-171.2h3.1v-4.79z"/><path class="cls-3" d="M358.64 295.08V294l.63-.47V292s-10.64-4.1-14.36-5.24-3.84-2.4-3.78-2.91a16.86 16.86 0 0 0 3.08-2.17 19.45 19.45 0 0 0-3-1 2 2 0 0 0-2.2-2v-1.45h-.8v1.45h-2.51c0-1.56-.46-2.28-1-2.62l-1.12-14.74L332.5 276c-.49.34-1 1.06-1 2.62H329v-1.45h-.8v1.45a2 2 0 0 0-2.2 2 19.47 19.47 0 0 0-3 1 16.86 16.86 0 0 0 3.08 2.17c.06.51-.06 1.77-3.78 2.91S308 292 308 292v1.58l.63.47v1.07l-5.37 1.8v.6c0 .34 2.54 1.56 7.7 1.56a4.76 4.76 0 0 1 1 1.61v1.88l-2.79 1.71a10.73 10.73 0 0 0 6.18 2.4h4.49s5.85 42.5 5.85 46.13.35 31.62-1.38 43.88c-1.35 9.61-6.56 53.51-8.75 72.06-2.54.81-4 1.79-4 2.86s1.24 1.88 3.38 2.64l-.33 2.83L310 516h4.32l2.68-28 1.4-12.86a66.7 66.7 0 0 0 10 1.22V516h10.37v-8.18h13.36L353 516h4.32l-4.63-39-.33-2.83c2.14-.77 3.39-1.67 3.39-2.64s-1.5-2.05-4-2.86c-2.19-18.56-7.4-62.45-8.75-72.06-1.73-12.27-1.38-40.25-1.38-43.88s5.85-46.13 5.85-46.13h4.49a10.72 10.72 0 0 0 6.18-2.4l-2.79-1.71v-1.88a4.75 4.75 0 0 1 1-1.61c5.16 0 7.7-1.22 7.7-1.56v-.6zm-16 126h-3.86v-14.31H341c.59 5.9 1.21 10.87 1.67 14.23zm.58 4.16c.15 1.08.59 4.8 1.16 9.93h-5.6v-11.96H343c.08.85.18 1.53.24 2zm-4.43 26.19h7.4c.44 4 .88 8 1.31 11.93h-8.71zm0-2.17v-11.95h5.84c.4 3.57.85 7.65 1.32 11.93zm-15.55-142.6h5.18V421h-3.86c1.27-9.5 3.86-31.13 3.86-51 .02-23.8-3.6-57-5.16-63.36zm-4 161.16c1.88-17.23 4.35-39.66 4.77-42.59.07-.47.16-1.14.28-2h4.15v43.53a69.38 69.38 0 0 0-9.2 1.04zm31 20.24l.34 3.48h-11.77v-11.95h10.49zm-11.4 17.58v-11.95h12l1.16 11.93zm10.25-28.19h-10.28v-1a66.72 66.72 0 0 0 10-1.22zm-10.25-10.69v-1.26h9l.25 2.3a69.37 69.37 0 0 0-9.28-1.06zm0-96.68c0 11.87.93 24.38 1.94 34.55h-1.94v-98H344c-1.56 6.37-5.19 39.57-5.19 63.43z"/><path class="cls-3" d="M.25 499.01h911.5v14.98H.25z"/><path class="cls-3" d="M.25 500.99h911.5v14.98H.25z"/><path class="cls-4" d="M182.93 389.05h7.34v19.75h-7.34zM199.44 389.05h7.34v19.75h-7.34zM215.85 389.05h7.34v19.75h-7.34zM494.66 471.09H502v19.75h-7.34zM511.18 471.09h7.34v19.75h-7.34zM494.66 442.83H502v19.75h-7.34zM511.18 442.83h7.34v19.75h-7.34zM494.66 414.58H502v19.75h-7.34zM511.18 414.58h7.34v19.75h-7.34zM544.8 396.35h7.34v19.75h-7.34zM558.58 396.35h7.34v19.75h-7.34zM693.37 451.84h4.57v9.11h-4.57zM701.95 451.84h4.57v9.11h-4.57zM711.06 451.84h4.57v9.11h-4.57zM693.37 465.51h4.57v9.11h-4.57zM701.95 465.51h4.57v9.11h-4.57zM711.06 465.51h4.57v9.11h-4.57zM693.37 479.18h4.57v9.11h-4.57zM701.95 479.18h4.57v9.11h-4.57zM711.06 479.18h4.57v9.11h-4.57zM733.48 447.05h4.57v12.99h-4.57zM742.05 447.05h4.57v12.99h-4.57zM733.48 464.37h4.57v12.99h-4.57zM742.05 464.37h4.57v12.99h-4.57zM733.48 481.69h4.57v12.99h-4.57zM742.05 481.69h4.57v12.99h-4.57zM769.03 447.96h4.57v12.99h-4.57zM777.6 447.96h4.57v12.99h-4.57zM769.03 465.28h4.57v12.99h-4.57zM777.6 465.28h4.57v12.99h-4.57zM769.03 482.6h4.57v12.99h-4.57zM777.6 482.6h4.57v12.99h-4.57zM544.8 424.6h7.34v19.75h-7.34zM558.58 424.6h7.34v19.75h-7.34zM544.8 452.86h7.34v19.75h-7.34zM558.58 452.86h7.34v19.75h-7.34zM494.66 386.32H502v19.75h-7.34zM511.18 386.32h7.34v19.75h-7.34zM393.49 471.09h7.34v19.75h-7.34zM410 471.09h7.34v19.75H410zM393.49 443.74h7.34v19.75h-7.34zM410 443.74h7.34v19.75H410zM130.06 389.05h7.34v19.75h-7.34zM146.58 389.05h7.34v19.75h-7.34zM130.06 416.4h7.34v19.75h-7.34zM146.58 416.4h7.34v19.75h-7.34zM130.06 444.65h7.34v19.75h-7.34zM146.58 444.65h7.34v19.75h-7.34zM69.9 399.08h7.34v19.75H69.9zM86.42 399.08h7.34v19.75h-7.34zM69.9 426.42h7.34v19.75H69.9zM86.42 426.42h7.34v19.75h-7.34zM69.9 454.68h7.34v19.75H69.9zM86.42 454.68h7.34v19.75h-7.34zM130.06 472.91h7.34v19.75h-7.34zM146.58 472.91h7.34v19.75h-7.34zM452.25 428.85h11.6v11.6h-11.6zM452.25 411.54h11.6v11.6h-11.6zM452.25 393.31h11.6v11.6h-11.6zM654.81 468.85h5.91v11.6h-5.91zM654.81 484.34h5.91v11.6h-5.91zM642.96 468.85h5.91v11.6h-5.91zM642.96 484.34h5.91v11.6h-5.91zM631.11 468.85h5.91v11.6h-5.91zM631.11 484.34h5.91v11.6h-5.91zM619.26 468.85h5.91v11.6h-5.91zM619.26 484.34h5.91v11.6h-5.91zM452.25 445.45h11.6v11.6h-11.6zM452.25 462.04h11.6v11.6h-11.6zM452.25 478.63h11.6v11.6h-11.6zM269.04 406.98h11.6v11.6h-11.6zM269.04 389.66h11.6v11.6h-11.6zM269.04 371.43h11.6v11.6h-11.6zM269.04 423.57h11.6v11.6h-11.6zM269.04 440.16h11.6v11.6h-11.6zM269.04 456.76h11.6v11.6h-11.6zM269.04 473.89h11.6v11.6h-11.6zM855.32 444.12h7.59v7.59h-7.59zM855.32 432.78h7.59v7.59h-7.59zM855.32 420.84h7.59v7.59h-7.59zM855.32 454.98h7.59v7.59h-7.59zM855.32 465.84h7.59v7.59h-7.59zM855.32 476.7h7.59v7.59h-7.59zM855.32 487.92h7.59v7.59h-7.59zM191.24 358.06h7.34v19.75h-7.34zM207.65 358.06h7.34v19.75h-7.34zM182.93 417.31h7.34v19.75h-7.34zM199.44 417.31h7.34v19.75h-7.34zM215.85 417.31h7.34v19.75h-7.34zM182.93 445.57h7.34v19.75h-7.34zM199.44 445.57h7.34v19.75h-7.34zM215.85 445.57h7.34v19.75h-7.34zM182.93 473.82h7.34v19.75h-7.34zM199.44 473.82h7.34v19.75h-7.34zM215.85 473.82h7.34v19.75h-7.34zM7.92 350.77h7.34v19.75H7.92zM24.43 350.77h7.34v19.75h-7.34zM40.84 350.77h7.34v19.75h-7.34zM7.92 379.03h7.34v19.75H7.92zM24.43 379.03h7.34v19.75h-7.34zM40.84 379.03h7.34v19.75h-7.34zM7.92 407.28h7.34v19.75H7.92zM24.43 407.28h7.34v19.75h-7.34zM40.84 407.28h7.34v19.75h-7.34zM7.92 435.54h7.34v19.75H7.92zM24.43 435.54h7.34v19.75h-7.34zM40.84 435.54h7.34v19.75h-7.34zM7.92 463.8h7.34v19.75H7.92zM24.43 463.8h7.34v19.75h-7.34zM40.84 463.8h7.34v19.75h-7.34zM330.89 306.4h5.18v190.94h-5.18z"/><circle class="cls-2" cx="697.98" cy="346.31" r="8.3"/><circle class="cls-2" cx="714.57" cy="336.74" r="15.95"/><circle class="cls-2" cx="705.63" cy="352.06" r="7.66"/><circle class="cls-2" cx="731.16" cy="346.95" r="15.95"/><circle class="cls-2" cx="746.48" cy="348.23" r="8.93"/><circle class="cls-2" cx="714.57" cy="350.78" r="12.13"/><circle class="cls-2" cx="110.32" cy="302.21" r="8.3"/><circle class="cls-2" cx="126.91" cy="292.64" r="15.95"/><circle class="cls-2" cx="117.98" cy="307.95" r="7.66"/><circle class="cls-2" cx="143.5" cy="302.85" r="15.95"/><circle class="cls-2" cx="158.82" cy="304.13" r="8.93"/><circle class="cls-2" cx="126.91" cy="306.68" r="12.13"/><circle class="cls-2" cx="609.76" cy="366.05" r="3.3"/><circle class="cls-2" cx="616.37" cy="362.24" r="6.35"/><circle class="cls-2" cx="612.81" cy="368.33" r="3.05"/><circle class="cls-2" cx="622.97" cy="366.3" r="6.35"/><circle class="cls-2" cx="629.07" cy="366.81" r="3.56"/><circle class="cls-2" cx="616.37" cy="367.83" r="4.83"/><circle class="cls-2" cx="884.8" cy="350.35" r="6.69"/><circle class="cls-2" cx="871.43" cy="342.64" r="12.86"/><circle class="cls-2" cx="878.63" cy="354.98" r="6.17"/><circle class="cls-2" cx="858.06" cy="350.87" r="12.86"/><circle class="cls-2" cx="845.72" cy="351.9" r="7.2"/><circle class="cls-2" cx="871.43" cy="353.95" r="9.77"/></g><g id="Layer_10" data-name="Layer 10"><path class="cls-5" d="M482.9 64.3h-17.55l.25-37.46s-.23-8.11-10.38-9.08c0 0-9.17-.39-9.64 10l-.41 36.39L428 64l.07-36.82s-.8-16.61 12.72-23.55c0 0 9.44-4.68 20.16-3 0 0 13.36 1.16 19.43 13.17 0 0 3.58 7.26 2.54 17.95v21.37z"/><path class="cls-6" d="M482.97 46.44h-17.48l-.08 11.2h17.54l.02-11.2zM445.36 46.26l-17.27-.18-.02 11.26 17.17.13.12-11.21z"/><path class="cls-7" d="M483.27 95.77l-5.63 19.56-1.42-13.94-8.54.4 4.39-29.62 2.33 21.76 8.87 1.84zM426.68 95.77l5.63 19.56 1.42-13.94 8.54.4-4.38-29.62-2.33 21.76-8.88 1.84z"/></g><g id="Layer_9" data-name="Layer 9"><path class="cls-9" d="M649.63 577.61h-8.38l1.38-144.47 54.37 6.15 13.69 138.32h-8.38l-31.14-123s-1.74-3-3.93 0l-17.59 123h-8.38"/><path d="M583.38 335l21.47 25.66c4.52 5.73 35.84 8.39 35.84 8.39s5.94 46.13 1.94 64.11c0 0 22.44 15.54 54.35 6.15l2-48.06 10.89 10.38 11 40.41 5.64-.43-3-45.33-24.77-34.09s-4.13-3.3-23.87-3c0 0-7.69 6.42-13.32 0a103.44 103.44 0 0 0-42.61-4.19s-2.49.21-6.9-3.63l-23.81-20.71-4.85 4.34" fill="#ffe600" stroke="#000" stroke-width=".5" stroke-miterlimit="10"/><path class="cls-6" d="M588.23 330.65L575.89 319c-2.27 1.44 6 11.53 6 11.53s-2.84 2.61 1.46 4.5zM720.81 442c-6.66 4.59.2 4.29.2 4.29s2.41 8.49 4.51 8.31c2.88-.25.94-13 .94-13z"/><path class="cls-7" d="M702.29 577.61v7.23h3.91v-1.78l2.44 1.78h18.23l-16.2-7.23h-8.38zM649.63 577.61v7.23h-3.91v-1.78l-2.45 1.78h-18.23l16.2-7.23h8.39z"/><path class="cls-6" d="M662.82 354l-7.2 7.22 10.92 1.29s5.63-6.23.67-7.91zM669.42 362.71l11.21.62-3.88-7.48-6.51-.87-.82 7.73z"/><path class="cls-7" d="M666.53 361.55l-6 47.73 8.09 9.91 6.7-10.8-6.65-46.62s-.9-2.38-2.14-.22z"/><path class="cls-6" d="M675.87 356.63a1 1 0 0 1 .11.52.92.92 0 0 1-.27.44 31.81 31.81 0 0 1-4.83 4.26c-1 .74-2.31 1.45-3.52 1a4.33 4.33 0 0 1-1.8-1.52l-2.19-2.68c1-.69 1-2.15.91-3.37a48.29 48.29 0 0 0-.74-4.79 19.09 19.09 0 0 1 8.93-3.76c1.11-.16 1.69 0 1.73 1.17s0 2 .15 3a20.88 20.88 0 0 0 1.52 5.73z"/><path class="cls-6" d="M669.78 350.68c-3.26 1.24-7.11 2-10.11.23-2.21-1.32-3.49-3.79-4.19-6.27a42.33 42.33 0 0 1-1.21-8.17 18.15 18.15 0 0 1 .08-5.23c.51-2.45 2-4.56 3.47-6.59 2.41-3.34 5.09-6.86 9-8.14a19.33 19.33 0 0 1 6.94-.55 17.18 17.18 0 0 1 5.11.77 12 12 0 0 1 3.69 2.28 16.87 16.87 0 0 1 5.76 10.43c1.35 10.78-9.81 17.91-18.54 21.24z"/><path class="cls-11" d="M674.11 328.81a4.33 4.33 0 0 1 2.76 4.62M660.73 323.9a4.33 4.33 0 0 1 5.3.94"/><path class="cls-6" d="M663.23 337.38a18.36 18.36 0 0 1-1.4-1.65 1.23 1.23 0 0 1-.25-.45c-.09-.42.24-.8.54-1.1l1.61-1.59"/><ellipse class="cls-9" cx="671.11" cy="333.26" rx="1.25" ry=".99" transform="rotate(-48.68 671.064 333.254)"/><ellipse class="cls-9" cx="661.71" cy="328.63" rx="1.25" ry=".99" transform="rotate(-48.68 661.676 328.634)"/><path class="cls-7" d="M680.63 338.24s3.13 1.06-2.52 4.8c0 0-.16 3.8-2.76 5.09 0 0 5.8.06 14.45-9.2 0 0 5.14-9.26 0-16.75 0 0-6.46-9.94-18.55-8.65 0 0-12.92 1.66-14.88 13.18 0 0 5.53-7.67 11.44-9.21 0 0 7.37 6.74 11.81 6.64.02.01 3.3 3.03 1.01 14.1z"/><path class="cls-12" d="M658.53 339.53s1.64 3.94 7 3c-.03.03-4.97 4.56-7-3zM667.91 341a1.77 1.77 0 0 1-.24 1.69M661.83 326.93a3.66 3.66 0 0 1 1.8 3M671.6 331.54a4.53 4.53 0 0 1 1.12 2.91"/></g><g id="Layer_8" data-name="Layer 8"><path class="cls-6" d="M444.67 482.05h19.93v93.59h-19.93z"/><ellipse class="cls-6" cx="427.29" cy="579.65" rx="23.18" ry="22.86"/><ellipse class="cls-6" cx="496.11" cy="575.24" rx="20.77" ry="20.48"/><ellipse class="cls-6" cx="463.95" cy="561.9" rx="16.24" ry="16.01"/><ellipse class="cls-6" cx="434.36" cy="552.19" rx="11.31" ry="11.15"/><ellipse class="cls-6" cx="461.2" cy="544.98" rx="7.73" ry="7.62"/><ellipse class="cls-6" cx="520.05" cy="579.65" rx="7.73" ry="7.62"/><ellipse class="cls-6" cx="534.05" cy="579.65" rx="7.73" ry="7.62"/><ellipse class="cls-6" cx="403.05" cy="579.65" rx="7.73" ry="7.62"/><ellipse class="cls-6" cx="390.05" cy="579.65" rx="7.73" ry="7.62"/><ellipse class="cls-6" cx="449.46" cy="561.73" rx="13.7" ry="13.51"/><ellipse class="cls-6" cx="458.38" cy="585.09" rx="23.84" ry="23.51"/><path class="cls-6" d="M477.16 421.09a22.49 22.49 0 0 0-45 0s-2.91 53.17 22.49 81.47c25.41-28.3 22.51-81.47 22.51-81.47z"/><path class="cls-8" d="M468.93 411.87a14.26 14.26 0 0 0-28.52 0s-1.84 33.72 14.26 51.67c16.1-17.96 14.26-51.67 14.26-51.67z"/><path class="cls-13" d="M404.87 334.65s-53.4 25.86-32.24 102.12c0 0 11.3-38.34 47.53-48.26zM505 334.65s53.4 25.86 32.24 102.12c0 0-11.3-38.34-47.53-48.26z"/><path d="M472.24 404.41h-36.29a3.07 3.07 0 0 1-3-2.39l-2-8.79a3.07 3.07 0 0 1 3-3.74h40.28a3.07 3.07 0 0 1 3 3.74l-2 8.79a3.07 3.07 0 0 1-2.99 2.39z" stroke="#000" stroke-width=".5" stroke-miterlimit="10" fill="#ccc"/><path class="cls-8" d="M401.72 314s5.57 51.15 22.79 83.56c0 0 27.35-13.17 59.76 0 0 0 19.75-27.35 23.8-87.61 2.33-34.72-.45-74.37-12-108.53h-80.29c-10.69 27.88-18.3 65.24-14.06 112.58z"/><path class="cls-5" d="M448.46 146.05c-8.08 9.14-21.93 27.46-32.67 55.42h80.32c-7.36-21.86-18.28-41.47-33.74-56.1a9.69 9.69 0 0 0-13.91.68z"/><path class="cls-13" d="M453.48 311.58s-24.64 56 0 122.55c0-.01 27.38-55.55 0-122.55z"/><circle class="cls-7" cx="455.79" cy="259.63" r="30.99"/><circle class="cls-6" cx="455.79" cy="259.63" r="21.52"/></g><g id="Layer_7" data-name="Layer 7"><path class="cls-7" transform="rotate(10.62 271.584 270.969)" d="M269.69 228.83h4.03v84.54h-4.03z"/><path class="cls-5" d="M330.5 260.2c-17.05-11-39.25 5.37-55.89-7.83a2.6 2.6 0 0 1-1-2.51l6.14-32.74a2.56 2.56 0 0 1 3.93-1.64c17.05 11 39.25-5.37 55.89 7.83a2.6 2.6 0 0 1 1 2.51l-6.14 32.74a2.56 2.56 0 0 1-3.93 1.64z"/><path class="cls-9" d="M210.93 370.68s2.17 15.75-8.75 27.37a30.06 30.06 0 0 1-25.13 9.28 8.33 8.33 0 0 0 3.51-8.81c-6.86-54.22 16.52-67.58 16.52-67.58s6.43-6.57 18-5.53c0 0 10.61.66 15.12 9.94 0 0 6.88 11-.34 25.26a25.51 25.51 0 0 0-2.74 9.07l-21.79 14.54"/><path class="cls-6" d="M269.31 293a3 3 0 0 0-1.49 1.8 1.59 1.59 0 0 0-.08.76 2 2 0 0 1-.6 1.63 3.56 3.56 0 0 0-.87 1.37 5.59 5.59 0 0 0-.24 2.91 4.87 4.87 0 0 1 0 2.28 2 2 0 1 0 4 .34 1.58 1.58 0 0 1 .36-1.08l.09-.13a2.16 2.16 0 0 0 .31-1.5 1.5 1.5 0 0 1 .51-1.44 2.94 2.94 0 0 0 1-1.53 2.24 2.24 0 0 0 .06-1.12 1.5 1.5 0 0 1 .49-1.45 1.67 1.67 0 0 0 .6-1.51c-.15-1.58-3.04-2.01-4.14-1.33z"/><path class="cls-6" d="M257.37 298.54a10.81 10.81 0 0 1 1.57-2.3l2.18-2.44c1.59-1.49 2.43-2.78 4.26-3 3-.32 7.24-.49 7.38 1.12s-3.83 2.54-6.09 2.84a1.83 1.83 0 0 0-1.55 1.4s1.11 8.94-3.57 9.28l-1.13 3.24-5.56-.9 1.17-5.5a15.06 15.06 0 0 1 1.34-3.74zM239.25 573.92a13.76 13.76 0 0 1 .13-2l8.88-64.57a205.06 205.06 0 0 0 1-67.37 13.12 13.12 0 0 0-11.56-11 14 14 0 0 0-15.27 14.58 96.58 96.58 0 0 0 1.72 13.21c3.9 19.9 10.64 115.47 10.69 115.49a6.87 6.87 0 0 1-.13 1.37"/><path class="cls-6" d="M190 577.84a26.32 26.32 0 0 1 2.58-8.57C198 558.43 214.36 525 219 511.48c5.54-16.28 15.18-68.37 13.24-83.07L219 427.3a14.55 14.55 0 0 0-14.6 10.3c-2.87 9.51-5.62 25.54-3 48.89 0 0 2 12.7 0 20.86-1.8 7.41-12.17 53.54-14.06 62a29 29 0 0 1-1 2.76 6.88 6.88 0 0 1-2.12 2.43"/><path class="cls-9" d="M246.47 520.83q-22.83 5.93-48.19 0c1.45-6.38 2.61-11.41 3.11-13.47 2-8.17 0-20.86 0-20.86-2.57-23.35.18-39.38 3-48.89A14.55 14.55 0 0 1 219 427.3l13.17 1.1v.08l5.51.51a13.12 13.12 0 0 1 11.56 11 205.06 205.06 0 0 1-1 67.37z"/><path class="cls-5" d="M206.07 370.65c-21.71 12.9-13.42 18.58-13.42 18.58a33.12 33.12 0 0 1 6.7 9.46l8.72 18.6c.9 2.92-1.78 11.55-2.73 14.46l-2 6.09a1.75 1.75 0 0 0 1.08 2.21c10.1 3.49 30.44 4 43.44-.13a2.44 2.44 0 0 0 1.43-3.48l-9.63-26.25c-2.56-5.54-2.08-6.88-.28-10.14a8 8 0 0 0 .71-6 23.77 23.77 0 0 0-2.57-5.14 8.22 8.22 0 0 1 .62-9.53c7.43-9.08 17.53-25.44 19.4-35 2-10.21 4-36.8 4-36.8-1-1.44-5.35-3.2-6.69-1.43l-8.41 36.39c-9.09 11.48-16.55 22-20.06 27a8 8 0 0 1-5.88 3.4l-2.67-.51"/><path class="cls-6" d="M205.62 474.62c-1.09-1.64-2-3.4-2.5-4a10.38 10.38 0 0 0-1.18-.92c-.62-.47-1.65-1.11-1.92-1.84l-1.2-3c-.56-1.48-1.69-2.34-3.18-1.78-1.6.6-1.82 2.24-1 3.77l.8 2.15a9.8 9.8 0 0 1 .73 4c.17 2.79 1.91 5.5 3.52 7.54 1 1.28 3.19 1.48 6.12 1.58 1.44 0 3.68-.3 2.32-1.5-1.14-1-5.56-1.45-5.92-5.82 0-.21 0-.77.22-.87.73-.3 1.48 1.29 2.13 2 .92.94 1.87 1.09 2.31.8s-.47-.95-1.25-2.11z"/><path class="cls-5" d="M193 380.83c2.15-2.22 7.42-2.87 12.23-1.87 4.54.94-5.26 32.68-14.41 47.62a6.77 6.77 0 0 0-.78 5.37l9.74 34.49c-1.17 2.36-3.33 2.76-5.54 3.08l-16.39-36a16.34 16.34 0 0 1-1-10.83c2.91-11.08 9.65-35.13 16.15-41.86z"/><path class="cls-7" d="M232.46 573v12.3h1.81l1.3-5.16 3.23 5.16h18.08a23.54 23.54 0 0 1-16.15-12.3zM183.46 573v12.3h1.81l1.3-5.16 3.23 5.16h18.08a23.54 23.54 0 0 1-16.15-12.3z"/><path class="cls-6" d="M207.07 369.8a1 1 0 0 0-.15.53.94.94 0 0 0 .25.47 32.8 32.8 0 0 0 4.68 4.71c1 .83 2.28 1.65 3.55 1.3a4.46 4.46 0 0 0 2-1.44l2.43-2.61c-1-.78-.92-2.28-.71-3.53a49.8 49.8 0 0 1 1.08-4.88 19.68 19.68 0 0 0-8.94-4.46c-1.13-.24-1.74-.07-1.86 1.09s-.16 2.07-.35 3.1a21.54 21.54 0 0 1-1.98 5.72z"/><path class="cls-6" d="M213.74 364.07c3.27 1.5 7.18 2.55 10.39.9 2.36-1.21 3.84-3.67 4.73-6.18a43.65 43.65 0 0 0 1.79-8.32 18.72 18.72 0 0 0 .27-5.38c-.37-2.55-1.76-4.82-3.13-7-2.26-3.6-4.78-7.4-8.72-9a19.94 19.94 0 0 0-7.1-1 17.71 17.71 0 0 0-5.31.45 12.34 12.34 0 0 0-3.95 2.1 17.4 17.4 0 0 0-6.63 10.36c-2.08 11 8.92 19.07 17.66 23.07z"/><path class="cls-7" d="M202.86 359.43s8.63-15.62 2.82-24.25c0 0 4.78 2.24 8.68 1.27 0 0 9.94-2 13.63 5.84 0 0 1.61 4.83 3.73 6.79l.23-3.91-2.86-7.88-8.62-8.51-8.42-2.62-8.83 2.92-5.94 5.17-3.39 12.64 4.81 9.21z"/><path class="cls-6" d="M209 348.16a1.4 1.4 0 0 0 1.16-.57 8.43 8.43 0 0 0 .69-1.15 5.37 5.37 0 0 1 .57-.8 3 3 0 0 1 .73-.64 2.78 2.78 0 0 1 2.44 0 7.8 7.8 0 0 1 2.07 1.43M220.71 343.51l.49-.9a3.57 3.57 0 0 1 1.67-1.83 4.81 4.81 0 0 1 2.06 0 2 2 0 0 0 1.88-.61M215 342.08a5.74 5.74 0 0 0-6.82 2.09M218.94 340.1a5.34 5.34 0 0 1 4.35-2.83M221.27 352.42a18.93 18.93 0 0 0 1.55-1.6 1.26 1.26 0 0 0 .28-.45c.12-.42-.19-.84-.48-1.16l-1.55-1.74M221.4 359.49a6.59 6.59 0 0 1 1.54.11 3.35 3.35 0 0 0 .53.14c.69.07 1.24-.65 1.34-1.34a19.05 19.05 0 0 0-.07-2.09c0-.59.19-1.17.14-1.76a.76.76 0 0 0-.15-.46c-.21-.24-.6-.18-.9-.09a15.81 15.81 0 0 0-5.53 3.62.46.46 0 0 0-.15.19c-.13.42.84 1.05 1.16 1.22a5.15 5.15 0 0 0 2.09.46z"/><path class="cls-15" d="M225 359.76a2.63 2.63 0 0 1-1.9.78 6 6 0 0 1-2.06-.4c-.51-.17-1-.37-1.52-.58a4.39 4.39 0 0 1-1.1-.59 1.58 1.58 0 0 1-.62-1 9.48 9.48 0 0 0 2.5.86 5.93 5.93 0 0 0 3.48-.27c.38-.17.87-.64 1.29-.35s.26 1.18-.07 1.55z"/><path class="cls-15" d="M224.9 353.19a6.14 6.14 0 0 0-4.08 1.36 18.24 18.24 0 0 0-3 3.16c-.06.07-.12.16-.07.24s.15.07.24.05c1.36-.26 2.45-1.26 3.62-2a9.24 9.24 0 0 1 3.1-1.24c.86-.18 1.59-1.46.19-1.57z"/><ellipse class="cls-9" cx="213.52" cy="346.06" rx="1.02" ry="1.29" transform="rotate(-37.64 213.493 346.023)"/><ellipse class="cls-9" cx="223.5" cy="341.92" rx="1.02" ry="1.29" transform="rotate(-37.64 223.466 341.89)"/><path class="cls-16" d="M298.12 233.52c-.06-.18-.32-.15-.61-.15h-.63l.36-1c.05-.14-.59-.71-.82-.57a5.13 5.13 0 0 0-.78 1.62 6.93 6.93 0 0 0-1.37.24v-.07c.08-.42-.51-.71-.88-.75-.12 0-.24 0-.31.09a32.28 32.28 0 0 0-2.19 4.29h-.05a29.9 29.9 0 0 1 .9-3.75c.07-.33-.23-.38-.4-.4-.67-.06-1.2 1.69-1.51 3.87a.15.15 0 0 0 0 .08c-.08.87-1.08 2.44-2.13 2.34-.69-.07-.9-.55-.84-1.17a5.87 5.87 0 0 1 .41-1.74.88.88 0 0 0 .74.63c1.08.1 1.7-1.38 1.86-3.07.11-1.21-.45-1.67-1-1.71-1.2-.11-2.65 3.17-2.86 5.37v.35a.19.19 0 0 0-.22-.09h-.12c-.48-.82-1.17-1.8-1.69-2.52a2.69 2.69 0 0 0 2.79-2.53 3.17 3.17 0 0 0-2.75-3.16 1.55 1.55 0 0 1 .09-.26 1.12 1.12 0 0 0-.67-.34c-.36 0-.31.18-.36.34a1.62 1.62 0 0 0-.07.21 2.49 2.49 0 0 0-2.33 1.38c0 .2.68.69.8.7a.1.1 0 0 0 .08 0 2 2 0 0 1 1.16-1.11c-.6 2.11-1.68 6.4-2.12 8.49a1.86 1.86 0 0 0 .85.4c.21 0 .37-.3.48-.74s0-.47 0-.71l.64-2.73c.69.85 2.24 3.34 2.9 4.4a1.53 1.53 0 0 0 .7-.37.24.24 0 0 0 .05-.1 1.92 1.92 0 0 0 1.55 1.17 2 2 0 0 0 1.86-1c.06.47.23.77.61.81a.65.65 0 0 0 .47-.15 14 14 0 0 1 1.69-4.54h.16a19.54 19.54 0 0 0-.6 2.58c-.1 1.07.06 2 1 2.13a1.59 1.59 0 0 0 1.47-.88 1.62 1.62 0 0 0 1.33 1.26A2.44 2.44 0 0 0 298 239c.07-.79-.41-.72-.41-.72a2.28 2.28 0 0 1-2.05 1.46c-.28 0-.4-.25-.37-.59.19-2 .35-2.08 1.3-4.68a16.6 16.6 0 0 1 2 0 .17.17 0 0 0 .22-.18 1.43 1.43 0 0 0-.24-.46c-.13-.25-.27-.11-.33-.31zm-9.54-.24c.1-.18.17-.22.23-.22s.16.08.1.64c-.11 1.21-.66 2.67-1.14 2.62-.27 0-.31-.36-.31-.36a11.48 11.48 0 0 1 1.12-2.68zm-4.77-2.74h.19a1.73 1.73 0 0 1 1.72 1.89c-.16 1.7-1.43 2.3-3 2.12.41-1.46.8-2.98 1.09-4.01zm10.53 7.69a3.49 3.49 0 0 0 0 .37c-.16.35-.47.88-.86.84s-.52-.38-.46-1.05a26 26 0 0 1 1.17-4.26c.09.23.3.48.51.46l.61-.08a21.08 21.08 0 0 0-.97 3.73zM305.92 238.87c-.17.78-.43 1.62-1.12 1.56-.45 0-.52-.46-.46-1.07a16.29 16.29 0 0 1 1.11-3.82c.11-.3-.41-.36-.52-.41a1.05 1.05 0 0 0 0-.14c0-.4-.3-1-1.2-1.1-1.58-.15-2.9 2.12-3.13 4.51-.15 1.61.49 2.68 1.47 2.77a1.65 1.65 0 0 0 1.49-.83h.07a1 1 0 0 0 .87 1c1 .09 1.68-1.34 1.75-2a.34.34 0 0 0-.33-.47zm-3.92 1.39c-.34 0-.44-.36-.37-1.18.13-1.38 1-4.48 2-4.39.25 0 .22.34.21.46a2.28 2.28 0 0 1-.57 1.28 1.28 1.28 0 0 0 .58.35c-.01.47-1.02 3.55-1.85 3.48zM316.91 240.88l-1.38-1.2-.34-.29a5.69 5.69 0 0 1-.43.37 3.2 3.2 0 0 1-.53.34 2.2 2.2 0 0 1-.62.2 2.77 2.77 0 0 1-.72 0 2.26 2.26 0 0 1-1-.3 2.34 2.34 0 0 1-.7-.64 2.65 2.65 0 0 1-.41-.9 3.07 3.07 0 0 1-.08-1.06 3 3 0 0 1 .28-1 2.67 2.67 0 0 1 .57-.8 2.35 2.35 0 0 1 .81-.5 2.26 2.26 0 0 1 1-.12 2.38 2.38 0 0 1 1.22.44 3.55 3.55 0 0 1 .8.85l.46-.29 1.52-1a5.24 5.24 0 0 0-.58-.78 4.33 4.33 0 0 0-.67-.59l-.15-.1a4.56 4.56 0 0 0-1-.51 5.77 5.77 0 0 0-1.31-.27 5.19 5.19 0 0 0-2 .19 4.77 4.77 0 0 0-1.67.89 4.94 4.94 0 0 0-1.74 3.35 4.92 4.92 0 0 0 1.09 3.63 4.68 4.68 0 0 0 1.44 1.16 5 5 0 0 0 1.87.54 5.71 5.71 0 0 0 1.43 0 4.76 4.76 0 0 0 1.17-.34h.1a4.21 4.21 0 0 0 .81-.51 7.13 7.13 0 0 0 .76-.76z"/><path class="cls-16" d="M325.43 242.46a5.07 5.07 0 0 1-.95-1.72 5 5 0 0 1-.21-2 5 5 0 0 1 1.86-3.47l.13-.1.09-1-2.66-.25-2.72 3.6-2-4-2.66-.25v.3l.08.06.08.06.11.09.07.06.11.11h.05l.15.16a5.44 5.44 0 0 1 .66.9l.05.09-1.6 1-.33 3.52 1.46 1.26-.07.08a7.34 7.34 0 0 1-.84.81l-.19.15h-.06l-.14.09h-.08l-.13.08h-.09l-.1.06v.35l2.42.23.54-5.75 2.2 4.19 3-3.73-.55 5.78 2.45.23.09-.94z"/><path class="cls-16" d="M334.44 237.72a4.87 4.87 0 0 0-.91-1.65 5 5 0 0 0-1.51-1.2 5.55 5.55 0 0 0-4-.38 5.17 5.17 0 0 0-1.49.74h-.07l-.11.08a4.83 4.83 0 0 0-1.78 3.33 4.78 4.78 0 0 0 .2 1.93 4.86 4.86 0 0 0 .91 1.65l.1.1.06.06a5.08 5.08 0 0 0 1.3 1 5.55 5.55 0 0 0 4 .38 5.12 5.12 0 0 0 1.72-.9 4.82 4.82 0 0 0 1.78-3.33 4.78 4.78 0 0 0-.2-1.81zm-2.32 1.75a2.87 2.87 0 0 1-.28 1 2.71 2.71 0 0 1-.6.8 2.44 2.44 0 0 1-.86.51 2.54 2.54 0 0 1-1.07.12 2.47 2.47 0 0 1-1-.32 2.55 2.55 0 0 1-.76-.67 2.73 2.73 0 0 1-.44-.91 2.87 2.87 0 0 1-.09-1 3 3 0 0 1 .28-1 2.51 2.51 0 0 1 1.46-1.31 2.62 2.62 0 0 1 2.09.21 2.64 2.64 0 0 1 .76.67 2.67 2.67 0 0 1 .45.91 2.87 2.87 0 0 1 .09 1z"/></g></svg>