<svg xmlns="http://www.w3.org/2000/svg" viewBox="0 0 912 608.84"><defs><style>.cls-1,.cls-14{fill:#ccc;}.cls-2,.cls-3{fill:#f0f1f1;}.cls-3{stroke:#babcbe;}.cls-10,.cls-11,.cls-12,.cls-13,.cls-14,.cls-15,.cls-3,.cls-4,.cls-5,.cls-6,.cls-8,.cls-9{stroke-miterlimit:10;}.cls-10,.cls-12,.cls-13,.cls-14,.cls-15,.cls-3,.cls-4,.cls-5,.cls-6,.cls-8,.cls-9{stroke-width:0.5px;}.cls-11,.cls-16,.cls-4,.cls-6{fill:#fff;}.cls-4{stroke:#a5a7a9;}.cls-5{fill:#eb058c;}.cls-10,.cls-11,.cls-12,.cls-13,.cls-14,.cls-15,.cls-5,.cls-6,.cls-8,.cls-9{stroke:#000;}.cls-7,.cls-9{fill:#1a1a1a;}.cls-8{fill:#f2f2f2;}.cls-10{fill:#ffe600;}.cls-12{fill:none;}.cls-13{fill:#0077bf;}.cls-15{fill:#c10072;}</style></defs><title>next-level</title><g id="Layer_3" data-name="Layer 3"><ellipse class="cls-1" cx="673.87" cy="584.57" rx="71.61" ry="6.98"/><ellipse class="cls-1" cx="215.83" cy="584.57" rx="53.58" ry="6.98"/></g><g id="Layer_6" data-name="Layer 6"><path class="cls-2" d="M911.75,516V425.81s-50.06-28.36-61.33-34.09-18.41-5.35-23.67-7.23-10.89-1.88-18.41,0-50.34,30.43-53,31.93-8.64,3-11.27,2.63-7.14-1.88-9-3.38-7.89-1.5-12,1.5-3.76,7.14-7.51,7.89-9.77.75-12.77,4.88c-1.5,1.13-10.14-.38-12.4-.38s-7.89,4.51-9.77,6-13.9-1.88-18.78,3c-3.38.38-7.51-6.39-15-.38-5.26,0-8.64-.38-14.27,1.88s-6.39-3.38-9-.75-3.38,3.76-6.39,3.38-20.66-4.13-26.67-.75c-4.51-1.13-28.92-.38-28.92-.38s-47-2.25-51.46,2.25-11.27,4.6-15,5.68-19.25-3.33-30.29,0-42.87-5.68-46.49-5.68-22.4,4.6-24.65,5.68-78.88-4.93-91.66-4.18-17.28,7.51-26.67,9.77-7.89-5.92-20.66-5.59-40.19,37.14-56,36-25.92-11.27-37.19-6.76-46.2,27.79-63.11,28.55A65.21,65.21,0,0,0,69.1,516Z"/><polygon class="cls-2" points="317.75 354.95 309.85 354.95 309.85 349.4 281.23 349.4 281.23 354.95 273.33 354.95 273.33 360.5 262.08 360.5 262.08 515.97 329 515.97 329 360.5 317.75 360.5 317.75 354.95"/><rect class="cls-2" x="151.11" y="383.56" width="23.87" height="132.41"/><polygon class="cls-2" points="116.25 397.82 104.32 397.82 104.32 515.97 116.25 515.97 128.19 515.97 140.12 515.97 140.12 365.4 116.25 365.4 116.25 397.82"/><path class="cls-2" d="M224.9,368.59h10.76v7.8h17.72V348.71c0-.57.33-1,.75-1s.75.46.75,1v27.68h0V516H197.12V360.28C220.46,360.28,224.9,368.59,224.9,368.59Z"/><polygon class="cls-2" points="536.41 347.68 536.41 369.2 534.82 369.2 534.82 372.46 531.62 372.46 531.62 376.93 526.32 376.93 526.32 380.19 517.89 380.19 514.64 383.56 514.64 515.97 538.01 515.97 538.01 383.56 538.01 376.93 538.01 372.46 538.01 369.2 538.01 347.68 536.41 347.68"/><polygon class="cls-2" points="87.28 362.5 87.28 352.77 51.09 352.77 51.09 362.5 51.09 515.97 98.43 515.97 98.43 362.5 87.28 362.5"/><polygon class="cls-3" points="665.12 498.24 665.12 464.53 651.04 464.53 651.04 457.23 648.41 457.23 648.41 455.49 653.67 455.49 653.67 454.22 646.28 454.22 646.28 442.62 645.58 442.62 645.58 454.22 638.01 454.22 638.01 449.37 637.32 449.37 637.32 454.22 633.16 454.22 633.16 434.05 632.63 434.05 632.63 454.22 625.33 454.22 625.33 455.49 630.59 455.49 630.59 457.23 627.96 457.23 627.96 464.53 613.88 464.53 613.88 515.97 662.12 515.97 665.12 515.97 674.16 515.97 674.16 498.24 665.12 498.24"/><polygon class="cls-3" points="53.64 358.34 53.64 339.31 52.85 339.31 52.85 336.84 51 336.84 51 335.79 48.18 335.79 48.18 334.2 46.59 334.2 46.59 339.31 42.54 339.31 42.54 336.31 39.55 336.31 39.55 333.5 42.19 333.5 42.19 331.65 6.59 327.68 6.59 339.31 0.25 339.31 0.25 515.97 55.63 515.97 55.63 358.34 53.64 358.34"/><polygon class="cls-3" points="77.93 388.53 77.93 386 71.64 386 71.64 388.53 58.82 388.53 58.82 515.97 104.32 515.97 104.32 388.53 77.93 388.53"/><polygon class="cls-3" points="161.64 380.65 161.64 378.02 159.01 378.02 159.01 373.7 157.51 373.7 157.51 368.81 153.38 368.81 147.74 362.24 134.97 362.24 130.46 368.81 126.33 368.81 126.33 373.7 124.83 373.7 124.83 378.02 122.2 378.02 122.2 380.65 120.79 380.65 120.79 515.97 163.05 515.97 163.05 380.65 161.64 380.65"/><polygon class="cls-3" points="227.94 376.98 223.43 372.57 223.43 349.47 216.91 349.47 216.91 347.5 213.85 347.5 213.85 349.47 179.01 349.47 179.01 351.91 180.52 351.91 180.52 381.02 172.82 381.02 172.82 515.97 233.48 515.97 233.48 376.98 227.94 376.98"/><polygon class="cls-3" points="380.79 396.02 380.79 391.54 386.05 391.54 430.94 436.83 430.94 515.97 380.79 515.97 380.79 396.02"/><polygon class="cls-3" points="441.62 381.85 470.98 381.85 474.44 384.14 474.44 515.97 441.62 515.97 441.62 381.85"/><path class="cls-3" d="M524.86,406.18V398H523V370.79h-1.22v.85h-5.4v-2.89L507,359.36v-1.5l.89-.89-1.71-1.71L504.5,357l.89.89v1.5L496,368.75v2.89h-5.4v-.85h-1.22V398h-1.83v8.2h-1.46V516h40.24V406.18Zm-28.72-31.57h-5.28v-2h5.28Zm25.4,0h-5.28v-2h5.28Z"/><path class="cls-3" d="M539.71,398.39v-3.94c0-1.41.42-2.82,1.41-2.82v-6.34a35.15,35.15,0,0,1,5.63-.7v-2.11h2v-7.75h9l2.77,2.77v1.83h-2.58v4.13h7.42V381.3l3.85,2.54v9.86h1.5V516H539.71Z"/><path class="cls-3" d="M875.95,417.92h-7.47v-2.11h-4.37v-1.69h-5.71v1.69h-1.9v-1.69h-3.8v1.69h-4.37v2.11h-7.47v98h2.35v-2.82h2.42V516h25.54v-2.82h3.29V516h2.35v-98Zm-4.77,80.57v-3.94h3.29v3.94Zm3.29,2.25v3.94h-3.29v-3.94Zm-3.29-8.45v-3.94h3.29v3.94Zm0-6.2v-3.94h3.29v3.94Zm0-6.2V476h3.29v3.94Zm0-6.2v-3.94h3.29v3.94Zm0-6.2v-3.94h3.29v3.94Zm0-6.2v-3.94h3.29v3.94Zm0-6.2v-3.94h3.29v3.94Zm0-6.2V445h3.29v3.94Zm0-6.2v-3.94h3.29v3.94Zm0-6.2v-3.94h3.29v3.94Zm0-6.2v-3.94h3.29v3.94Zm0-6.2v-3.94h3.29v3.94Zm-28-3.94h2.42v3.94h-2.42Zm0,6.2h2.42v3.94h-2.42Zm0,6.2h2.42v3.94h-2.42Zm0,6.2h2.42v3.94h-2.42Zm0,6.2h2.42v3.94h-2.42Zm0,6.2h2.42v3.94h-2.42Zm0,6.2h2.42v3.94h-2.42Zm0,6.2h2.42v3.94h-2.42Zm0,6.2h2.42v3.94h-2.42Zm0,6.2h2.42v3.94h-2.42Zm0,6.2h2.42v3.94h-2.42Zm0,6.2h2.42v3.94h-2.42Zm0,6.2h2.42v3.94h-2.42Zm0,6.2h2.42v3.94h-2.42Zm0,10.14V507h2.42v3.94Zm28,0V507h3.29v3.94Z"/><path class="cls-3" d="M788.06,445.63v-1.69H790v-2.25h-7.7s.56-6.57-4.13-6.57v-3.19H772.9v3.19c-4.7,0-4.13,6.57-4.13,6.57h-7.7v2.25H763v1.69h-4.65v1.88h3.24V516h27.89V447.51h3.24v-1.88Z"/><polygon class="cls-3" points="755.89 447.79 755.89 446.66 754.27 446.66 754.27 442.72 754.27 433.98 752.43 433.98 752.43 439.71 748.63 439.71 748.63 442.72 746.38 442.72 746.38 438.35 734.54 438.35 734.54 442.72 732.29 442.72 732.29 439.71 728.49 439.71 728.49 433.98 726.66 433.98 726.66 442.72 726.66 446.66 725.04 446.66 725.04 447.79 726.66 447.79 726.66 450.18 725.04 450.18 725.04 451.31 726.66 451.31 726.66 453.7 725.04 453.7 725.04 454.83 726.66 454.83 726.66 457.23 725.04 457.23 725.04 458.35 726.66 458.35 726.66 460.75 725.04 460.75 725.04 461.87 726.66 461.87 726.66 464.27 725.04 464.27 725.04 465.4 726.66 465.4 726.66 467.79 725.04 467.79 725.04 468.92 726.66 468.92 726.66 471.31 725.04 471.31 725.04 472.44 726.66 472.44 726.66 474.83 725.04 474.83 725.04 475.96 726.66 475.96 726.66 478.36 725.04 478.36 725.04 479.48 726.66 479.48 726.66 481.88 725.04 481.88 725.04 483 726.66 483 726.66 485.4 725.04 485.4 725.04 486.52 726.66 486.52 726.66 488.92 725.04 488.92 725.04 490.05 726.66 490.05 726.66 492.44 725.04 492.44 725.04 493.57 726.66 493.57 726.66 495.96 725.04 495.96 725.04 497.09 726.66 497.09 726.66 499.49 725.04 499.49 725.04 500.61 726.66 500.61 726.66 503.01 725.04 503.01 725.04 504.13 726.66 504.13 726.66 506.53 725.04 506.53 725.04 507.65 726.66 507.65 726.66 510.05 725.04 510.05 725.04 511.18 726.66 511.18 726.66 513.57 725.04 513.57 725.04 514.7 726.66 514.7 726.66 515.97 754.27 515.97 754.27 514.7 755.89 514.7 755.89 513.57 754.27 513.57 754.27 511.18 755.89 511.18 755.89 510.05 754.27 510.05 754.27 507.65 755.89 507.65 755.89 506.53 754.27 506.53 754.27 504.13 755.89 504.13 755.89 503.01 754.27 503.01 754.27 500.61 755.89 500.61 755.89 499.49 754.27 499.49 754.27 497.09 755.89 497.09 755.89 495.96 754.27 495.96 754.27 493.57 755.89 493.57 755.89 492.44 754.27 492.44 754.27 490.05 755.89 490.05 755.89 488.92 754.27 488.92 754.27 486.52 755.89 486.52 755.89 485.4 754.27 485.4 754.27 483 755.89 483 755.89 481.88 754.27 481.88 754.27 479.48 755.89 479.48 755.89 478.36 754.27 478.36 754.27 475.96 755.89 475.96 755.89 474.83 754.27 474.83 754.27 472.44 755.89 472.44 755.89 471.31 754.27 471.31 754.27 468.92 755.89 468.92 755.89 467.79 754.27 467.79 754.27 465.4 755.89 465.4 755.89 464.27 754.27 464.27 754.27 461.87 755.89 461.87 755.89 460.75 754.27 460.75 754.27 458.35 755.89 458.35 755.89 457.23 754.27 457.23 754.27 454.83 755.89 454.83 755.89 453.7 754.27 453.7 754.27 451.31 755.89 451.31 755.89 450.18 754.27 450.18 754.27 447.79 755.89 447.79"/><polygon class="cls-3" points="720.83 453.7 720.83 451.64 718.86 451.64 718.86 443.75 712.95 443.75 712.95 441.68 707.12 441.68 707.12 438.58 707.12 433.32 704.87 433.32 704.87 438.58 701.02 438.58 701.02 441.68 694.91 441.68 694.91 443.75 689 443.75 689 451.64 687.03 451.64 687.03 453.7 689 453.7 689 455.21 687.03 455.21 687.03 457.27 689 457.27 689 458.77 687.03 458.77 687.03 460.84 689 460.84 689 462.34 687.03 462.34 687.03 464.41 689 464.41 689 465.91 687.03 465.91 687.03 467.98 689 467.98 689 469.48 687.03 469.48 687.03 471.55 689 471.55 689 473.05 687.03 473.05 687.03 475.12 689 475.12 689 476.76 687.03 476.76 687.03 478.82 689 478.82 689 480.47 687.03 480.47 687.03 482.53 689 482.53 689 484.18 687.03 484.18 687.03 486.24 689 486.24 689 487.89 687.03 487.89 687.03 489.95 689 489.95 689 491.6 687.03 491.6 687.03 493.66 689 493.66 689 495.31 687.03 495.31 687.03 497.37 689 497.37 689 499.01 687.03 499.01 687.03 501.08 689 501.08 689 502.72 687.03 502.72 687.03 504.79 689 504.79 689 506.43 687.03 506.43 687.03 508.5 689 508.5 689 510.14 687.03 510.14 687.03 512.21 689 512.21 689 513.9 687.03 513.9 687.03 515.97 689 515.97 718.86 515.97 720.83 515.97 720.83 513.9 718.86 513.9 718.86 512.21 720.83 512.21 720.83 510.14 718.86 510.14 718.86 508.5 720.83 508.5 720.83 506.43 718.86 506.43 718.86 504.79 720.83 504.79 720.83 502.72 718.86 502.72 718.86 501.08 720.83 501.08 720.83 499.01 718.86 499.01 718.86 497.37 720.83 497.37 720.83 495.31 718.86 495.31 718.86 493.66 720.83 493.66 720.83 491.6 718.86 491.6 718.86 489.95 720.83 489.95 720.83 487.89 718.86 487.89 718.86 486.24 720.83 486.24 720.83 484.18 718.86 484.18 718.86 482.53 720.83 482.53 720.83 480.47 718.86 480.47 718.86 478.82 720.83 478.82 720.83 476.76 718.86 476.76 718.86 475.12 720.83 475.12 720.83 473.05 718.86 473.05 718.86 471.55 720.83 471.55 720.83 469.48 718.86 469.48 718.86 467.98 720.83 467.98 720.83 465.91 718.86 465.91 718.86 464.41 720.83 464.41 720.83 462.34 718.86 462.34 718.86 460.84 720.83 460.84 720.83 458.77 718.86 458.77 718.86 457.27 720.83 457.27 720.83 455.21 718.86 455.21 718.86 453.7 720.83 453.7"/><polygon class="cls-3" points="295.54 375.9 295.54 373.08 292.96 373.08 292.96 360.45 289.48 358.29 289.48 343.36 287.23 343.36 287.23 356.74 260.47 351.53 260.47 360.55 256.15 360.45 256.15 515.97 292.96 515.97 292.96 511.41 295.54 511.41 295.54 508.59 292.96 508.59 292.96 506.2 295.54 506.2 295.54 503.38 292.96 503.38 292.96 500.99 295.54 500.99 295.54 498.17 292.96 498.17 292.96 495.77 295.54 495.77 295.54 492.96 292.96 492.96 292.96 490.56 295.54 490.56 295.54 487.75 292.96 487.75 292.96 485.35 295.54 485.35 295.54 482.53 292.96 482.53 292.96 480.14 295.54 480.14 295.54 477.32 292.96 477.32 292.96 474.93 295.54 474.93 295.54 472.11 292.96 472.11 292.96 469.71 295.54 469.71 295.54 466.9 292.96 466.9 292.96 464.5 295.54 464.5 295.54 461.69 292.96 461.69 292.96 459.29 295.54 459.29 295.54 456.47 292.96 456.47 292.96 454.08 295.54 454.08 295.54 451.26 292.96 451.26 292.96 448.87 295.54 448.87 295.54 446.05 292.96 446.05 292.96 443.66 295.54 443.66 295.54 440.84 292.96 440.84 292.96 438.44 295.54 438.44 295.54 435.63 292.96 435.63 292.96 433.23 295.54 433.23 295.54 430.41 292.96 430.41 292.96 428.02 295.54 428.02 295.54 425.2 292.96 425.2 292.96 422.81 295.54 422.81 295.54 419.99 292.96 419.99 292.96 417.6 295.54 417.6 295.54 414.78 292.96 414.78 292.96 412.38 295.54 412.38 295.54 409.57 292.96 409.57 292.96 407.17 295.54 407.17 295.54 404.35 292.96 404.35 292.96 401.96 295.54 401.96 295.54 399.14 292.96 399.14 292.96 396.75 295.54 396.75 295.54 393.93 292.96 393.93 292.96 391.54 295.54 391.54 295.54 388.72 292.96 388.72 292.96 386.32 295.54 386.32 295.54 383.51 292.96 383.51 292.96 381.11 295.54 381.11 295.54 378.3 292.96 378.3 292.96 375.9 295.54 375.9"/><polygon class="cls-2" points="369.45 339.98 366.35 339.98 362.97 339.98 362.97 338.64 362.97 334.77 360.86 334.77 360.86 336.7 358.75 336.7 358.75 338.64 349.03 338.64 349.03 339.98 343.81 339.98 343.81 515.97 366.35 515.97 366.35 344.77 369.45 344.77 369.45 339.98"/><path class="cls-3" d="M358.64,295.08V294l.63-.47V292s-10.64-4.1-14.36-5.24-3.84-2.4-3.78-2.91a16.86,16.86,0,0,0,3.08-2.17,19.45,19.45,0,0,0-3-1,2,2,0,0,0-2.2-2v-1.45h-.8v1.45H335.7c0-1.56-.46-2.28-1-2.62l-1.12-14.74L332.5,276c-.49.34-1,1.06-1,2.62H329v-1.45h-.8v1.45a2,2,0,0,0-2.2,2,19.47,19.47,0,0,0-3,1,16.86,16.86,0,0,0,3.08,2.17c.06.51-.06,1.77-3.78,2.91S308,292,308,292v1.58l.63.47v1.07l-5.37,1.8v.6c0,.34,2.54,1.56,7.7,1.56a4.76,4.76,0,0,1,1,1.61v1.88l-2.79,1.71a10.73,10.73,0,0,0,6.18,2.4h4.49s5.85,42.5,5.85,46.13.35,31.62-1.38,43.88c-1.35,9.61-6.56,53.51-8.75,72.06-2.54.81-4,1.79-4,2.86s1.24,1.88,3.38,2.64l-.33,2.83L310,516h4.32L317,488s.58-5.32,1.4-12.86a66.7,66.7,0,0,0,10,1.22V516h10.37v-8.18h13.36L353,516h4.32L352.69,477l-.33-2.83c2.14-.77,3.39-1.67,3.39-2.64s-1.5-2.05-4-2.86c-2.19-18.56-7.4-62.45-8.75-72.06-1.73-12.27-1.38-40.25-1.38-43.88s5.85-46.13,5.85-46.13h4.49a10.72,10.72,0,0,0,6.18-2.4l-2.79-1.71v-1.88a4.75,4.75,0,0,1,1-1.61c5.16,0,7.7-1.22,7.7-1.56v-.6Zm-16,126h-3.86V406.77H341C341.59,412.67,342.21,417.64,342.67,421Zm.58,4.16c.15,1.08.59,4.8,1.16,9.93h-5.6V423.21H343C343.08,424.06,343.18,424.74,343.24,425.21Zm-4.43,26.19h7.4c.44,4,.88,8,1.31,11.93h-8.71Zm0-2.17V437.31h5.84c.4,3.57.85,7.65,1.32,11.93Zm-15.55-142.6h5.18V421h-3.86c1.27-9.5,3.86-31.13,3.86-51C328.44,346.2,324.82,313,323.26,306.64Zm-4,161.16c1.88-17.23,4.35-39.66,4.77-42.59.07-.47.16-1.14.28-2h4.15v43.53A69.38,69.38,0,0,0,319.24,467.8Zm31,20.24.34,3.48H338.81V479.59H349.3Zm-11.4,17.58V493.69h12L352,505.62Zm10.25-28.19H338.81v-1a66.72,66.72,0,0,0,10-1.22Zm-10.25-10.69V465.5h9l.25,2.3A69.37,69.37,0,0,0,338.81,466.74Zm0-96.68c0,11.87.93,24.38,1.94,34.55h-1.94v-98H344C342.44,313,338.81,346.2,338.81,370.06Z"/><rect class="cls-3" x="0.25" y="499.01" width="911.5" height="14.98"/><rect class="cls-3" x="0.25" y="500.99" width="911.5" height="14.98"/><rect class="cls-4" x="182.93" y="389.05" width="7.34" height="19.75"/><rect class="cls-4" x="199.44" y="389.05" width="7.34" height="19.75"/><rect class="cls-4" x="215.85" y="389.05" width="7.34" height="19.75"/><rect class="cls-4" x="494.66" y="471.09" width="7.34" height="19.75"/><rect class="cls-4" x="511.18" y="471.09" width="7.34" height="19.75"/><rect class="cls-4" x="494.66" y="442.83" width="7.34" height="19.75"/><rect class="cls-4" x="511.18" y="442.83" width="7.34" height="19.75"/><rect class="cls-4" x="494.66" y="414.58" width="7.34" height="19.75"/><rect class="cls-4" x="511.18" y="414.58" width="7.34" height="19.75"/><rect class="cls-4" x="544.8" y="396.35" width="7.34" height="19.75"/><rect class="cls-4" x="558.58" y="396.35" width="7.34" height="19.75"/><rect class="cls-4" x="693.37" y="451.84" width="4.57" height="9.11"/><rect class="cls-4" x="701.95" y="451.84" width="4.57" height="9.11"/><rect class="cls-4" x="711.06" y="451.84" width="4.57" height="9.11"/><rect class="cls-4" x="693.37" y="465.51" width="4.57" height="9.11"/><rect class="cls-4" x="701.95" y="465.51" width="4.57" height="9.11"/><rect class="cls-4" x="711.06" y="465.51" width="4.57" height="9.11"/><rect class="cls-4" x="693.37" y="479.18" width="4.57" height="9.11"/><rect class="cls-4" x="701.95" y="479.18" width="4.57" height="9.11"/><rect class="cls-4" x="711.06" y="479.18" width="4.57" height="9.11"/><rect class="cls-4" x="733.48" y="447.05" width="4.57" height="12.99"/><rect class="cls-4" x="742.05" y="447.05" width="4.57" height="12.99"/><rect class="cls-4" x="733.48" y="464.37" width="4.57" height="12.99"/><rect class="cls-4" x="742.05" y="464.37" width="4.57" height="12.99"/><rect class="cls-4" x="733.48" y="481.69" width="4.57" height="12.99"/><rect class="cls-4" x="742.05" y="481.69" width="4.57" height="12.99"/><rect class="cls-4" x="769.03" y="447.96" width="4.57" height="12.99"/><rect class="cls-4" x="777.6" y="447.96" width="4.57" height="12.99"/><rect class="cls-4" x="769.03" y="465.28" width="4.57" height="12.99"/><rect class="cls-4" x="777.6" y="465.28" width="4.57" height="12.99"/><rect class="cls-4" x="769.03" y="482.6" width="4.57" height="12.99"/><rect class="cls-4" x="777.6" y="482.6" width="4.57" height="12.99"/><rect class="cls-4" x="544.8" y="424.6" width="7.34" height="19.75"/><rect class="cls-4" x="558.58" y="424.6" width="7.34" height="19.75"/><rect class="cls-4" x="544.8" y="452.86" width="7.34" height="19.75"/><rect class="cls-4" x="558.58" y="452.86" width="7.34" height="19.75"/><rect class="cls-4" x="494.66" y="386.32" width="7.34" height="19.75"/><rect class="cls-4" x="511.18" y="386.32" width="7.34" height="19.75"/><rect class="cls-4" x="393.49" y="471.09" width="7.34" height="19.75"/><rect class="cls-4" x="410" y="471.09" width="7.34" height="19.75"/><rect class="cls-4" x="393.49" y="443.74" width="7.34" height="19.75"/><rect class="cls-4" x="410" y="443.74" width="7.34" height="19.75"/><rect class="cls-4" x="130.06" y="389.05" width="7.34" height="19.75"/><rect class="cls-4" x="146.58" y="389.05" width="7.34" height="19.75"/><rect class="cls-4" x="130.06" y="416.4" width="7.34" height="19.75"/><rect class="cls-4" x="146.58" y="416.4" width="7.34" height="19.75"/><rect class="cls-4" x="130.06" y="444.65" width="7.34" height="19.75"/><rect class="cls-4" x="146.58" y="444.65" width="7.34" height="19.75"/><rect class="cls-4" x="69.9" y="399.08" width="7.34" height="19.75"/><rect class="cls-4" x="86.42" y="399.08" width="7.34" height="19.75"/><rect class="cls-4" x="69.9" y="426.42" width="7.34" height="19.75"/><rect class="cls-4" x="86.42" y="426.42" width="7.34" height="19.75"/><rect class="cls-4" x="69.9" y="454.68" width="7.34" height="19.75"/><rect class="cls-4" x="86.42" y="454.68" width="7.34" height="19.75"/><rect class="cls-4" x="130.06" y="472.91" width="7.34" height="19.75"/><rect class="cls-4" x="146.58" y="472.91" width="7.34" height="19.75"/><rect class="cls-4" x="452.25" y="428.85" width="11.6" height="11.6"/><rect class="cls-4" x="452.25" y="411.54" width="11.6" height="11.6"/><rect class="cls-4" x="452.25" y="393.31" width="11.6" height="11.6"/><rect class="cls-4" x="654.81" y="468.85" width="5.91" height="11.6"/><rect class="cls-4" x="654.81" y="484.34" width="5.91" height="11.6"/><rect class="cls-4" x="642.96" y="468.85" width="5.91" height="11.6"/><rect class="cls-4" x="642.96" y="484.34" width="5.91" height="11.6"/><rect class="cls-4" x="631.11" y="468.85" width="5.91" height="11.6"/><rect class="cls-4" x="631.11" y="484.34" width="5.91" height="11.6"/><rect class="cls-4" x="619.26" y="468.85" width="5.91" height="11.6"/><rect class="cls-4" x="619.26" y="484.34" width="5.91" height="11.6"/><rect class="cls-4" x="452.25" y="445.45" width="11.6" height="11.6"/><rect class="cls-4" x="452.25" y="462.04" width="11.6" height="11.6"/><rect class="cls-4" x="452.25" y="478.63" width="11.6" height="11.6"/><rect class="cls-4" x="269.04" y="406.98" width="11.6" height="11.6"/><rect class="cls-4" x="269.04" y="389.66" width="11.6" height="11.6"/><rect class="cls-4" x="269.04" y="371.43" width="11.6" height="11.6"/><rect class="cls-4" x="269.04" y="423.57" width="11.6" height="11.6"/><rect class="cls-4" x="269.04" y="440.16" width="11.6" height="11.6"/><rect class="cls-4" x="269.04" y="456.76" width="11.6" height="11.6"/><rect class="cls-4" x="269.04" y="473.89" width="11.6" height="11.6"/><rect class="cls-4" x="855.32" y="444.12" width="7.59" height="7.59"/><rect class="cls-4" x="855.32" y="432.78" width="7.59" height="7.59"/><rect class="cls-4" x="855.32" y="420.84" width="7.59" height="7.59"/><rect class="cls-4" x="855.32" y="454.98" width="7.59" height="7.59"/><rect class="cls-4" x="855.32" y="465.84" width="7.59" height="7.59"/><rect class="cls-4" x="855.32" y="476.7" width="7.59" height="7.59"/><rect class="cls-4" x="855.32" y="487.92" width="7.59" height="7.59"/><rect class="cls-4" x="191.24" y="358.06" width="7.34" height="19.75"/><rect class="cls-4" x="207.65" y="358.06" width="7.34" height="19.75"/><rect class="cls-4" x="182.93" y="417.31" width="7.34" height="19.75"/><rect class="cls-4" x="199.44" y="417.31" width="7.34" height="19.75"/><rect class="cls-4" x="215.85" y="417.31" width="7.34" height="19.75"/><rect class="cls-4" x="182.93" y="445.57" width="7.34" height="19.75"/><rect class="cls-4" x="199.44" y="445.57" width="7.34" height="19.75"/><rect class="cls-4" x="215.85" y="445.57" width="7.34" height="19.75"/><rect class="cls-4" x="182.93" y="473.82" width="7.34" height="19.75"/><rect class="cls-4" x="199.44" y="473.82" width="7.34" height="19.75"/><rect class="cls-4" x="215.85" y="473.82" width="7.34" height="19.75"/><rect class="cls-4" x="7.92" y="350.77" width="7.34" height="19.75"/><rect class="cls-4" x="24.43" y="350.77" width="7.34" height="19.75"/><rect class="cls-4" x="40.84" y="350.77" width="7.34" height="19.75"/><rect class="cls-4" x="7.92" y="379.03" width="7.34" height="19.75"/><rect class="cls-4" x="24.43" y="379.03" width="7.34" height="19.75"/><rect class="cls-4" x="40.84" y="379.03" width="7.34" height="19.75"/><rect class="cls-4" x="7.92" y="407.28" width="7.34" height="19.75"/><rect class="cls-4" x="24.43" y="407.28" width="7.34" height="19.75"/><rect class="cls-4" x="40.84" y="407.28" width="7.34" height="19.75"/><rect class="cls-4" x="7.92" y="435.54" width="7.34" height="19.75"/><rect class="cls-4" x="24.43" y="435.54" width="7.34" height="19.75"/><rect class="cls-4" x="40.84" y="435.54" width="7.34" height="19.75"/><rect class="cls-4" x="7.92" y="463.8" width="7.34" height="19.75"/><rect class="cls-4" x="24.43" y="463.8" width="7.34" height="19.75"/><rect class="cls-4" x="40.84" y="463.8" width="7.34" height="19.75"/><rect class="cls-4" x="330.89" y="306.4" width="5.18" height="190.94"/><circle class="cls-2" cx="697.98" cy="346.31" r="8.3"/><circle class="cls-2" cx="714.57" cy="336.74" r="15.95"/><circle class="cls-2" cx="705.63" cy="352.06" r="7.66"/><circle class="cls-2" cx="731.16" cy="346.95" r="15.95"/><circle class="cls-2" cx="746.48" cy="348.23" r="8.93"/><circle class="cls-2" cx="714.57" cy="350.78" r="12.13"/><circle class="cls-2" cx="110.32" cy="302.21" r="8.3"/><circle class="cls-2" cx="126.91" cy="292.64" r="15.95"/><circle class="cls-2" cx="117.98" cy="307.95" r="7.66"/><circle class="cls-2" cx="143.5" cy="302.85" r="15.95"/><circle class="cls-2" cx="158.82" cy="304.13" r="8.93"/><circle class="cls-2" cx="126.91" cy="306.68" r="12.13"/><circle class="cls-2" cx="609.76" cy="366.05" r="3.3"/><circle class="cls-2" cx="616.37" cy="362.24" r="6.35"/><circle class="cls-2" cx="612.81" cy="368.33" r="3.05"/><circle class="cls-2" cx="622.97" cy="366.3" r="6.35"/><circle class="cls-2" cx="629.07" cy="366.81" r="3.56"/><circle class="cls-2" cx="616.37" cy="367.83" r="4.83"/><circle class="cls-2" cx="884.8" cy="350.35" r="6.69"/><circle class="cls-2" cx="871.43" cy="342.64" r="12.86"/><circle class="cls-2" cx="878.63" cy="354.98" r="6.17"/><circle class="cls-2" cx="858.06" cy="350.87" r="12.86"/><circle class="cls-2" cx="845.72" cy="351.9" r="7.2"/><circle class="cls-2" cx="871.43" cy="353.95" r="9.77"/></g><g id="Layer_10" data-name="Layer 10"><path class="cls-5" d="M482.9,64.3H465.35l.25-37.46s-.23-8.11-10.38-9.08c0,0-9.17-.39-9.64,10l-.41,36.39L428,64l.07-36.82s-.8-16.61,12.72-23.55c0,0,9.44-4.68,20.16-3,0,0,13.36,1.16,19.43,13.17,0,0,3.58,7.26,2.54,17.95l0,21.37Z"/><polygon class="cls-6" points="482.97 46.44 465.49 46.44 465.41 57.64 482.95 57.64 482.97 46.44"/><polygon class="cls-6" points="445.36 46.26 428.09 46.08 428.07 57.34 445.24 57.47 445.36 46.26"/><polygon class="cls-7" points="483.27 95.77 477.64 115.33 476.22 101.39 467.68 101.79 472.07 72.17 474.4 93.93 483.27 95.77"/><polygon class="cls-7" points="426.68 95.77 432.31 115.33 433.73 101.39 442.27 101.79 437.89 72.17 435.56 93.93 426.68 95.77"/></g><g id="Layer_9" data-name="Layer 9"><path class="cls-8" d="M669.8,449.35"/><path class="cls-9" d="M649.63,577.61h-8.38l1.38-144.47L697,439.29l13.69,138.32h-8.38l-31.14-123s-1.74-3-3.93,0l-17.59,123h-8.38"/><path class="cls-10" d="M583.38,335l21.47,25.66c4.52,5.73,35.84,8.39,35.84,8.39s5.94,46.13,1.94,64.11c0,0,22.44,15.54,54.35,6.15l2-48.06,10.89,10.38,11,40.41,5.64-.43-3-45.33-24.77-34.09s-4.13-3.3-23.87-3c0,0-7.69,6.42-13.32,0A103.44,103.44,0,0,0,618.94,355s-2.49.21-6.9-3.63l-23.81-20.71L583.38,335"/><path class="cls-6" d="M588.23,330.65,575.89,319c-2.27,1.44,6,11.53,6,11.53s-2.84,2.61,1.46,4.5Z"/><path class="cls-6" d="M720.81,442c-6.66,4.59.2,4.29.2,4.29s2.41,8.49,4.51,8.31c2.88-.25.94-13,.94-13Z"/><polygon class="cls-7" points="702.29 577.61 702.29 584.84 706.2 584.84 706.2 583.06 708.64 584.84 726.87 584.84 726.87 584.84 710.67 577.61 702.29 577.61"/><polygon class="cls-7" points="649.63 577.61 649.63 584.84 645.72 584.84 645.72 583.06 643.27 584.84 625.04 584.84 625.04 584.84 641.24 577.61 649.63 577.61"/><path class="cls-6" d="M662.82,354l-7.2,7.22,10.92,1.29s5.63-6.23.67-7.91Z"/><polygon class="cls-6" points="669.42 362.71 680.63 363.33 676.75 355.85 670.24 354.98 669.42 362.71"/><path class="cls-7" d="M666.53,361.55l-6,47.73,8.09,9.91,6.7-10.8-6.65-46.62S667.77,359.39,666.53,361.55Z"/><path class="cls-6" d="M675.87,356.63a1,1,0,0,1,.11.52.92.92,0,0,1-.27.44,31.81,31.81,0,0,1-4.83,4.26c-1,.74-2.31,1.45-3.52,1a4.33,4.33,0,0,1-1.8-1.52l-2.19-2.68c1-.69,1-2.15.91-3.37a48.29,48.29,0,0,0-.74-4.79,19.09,19.09,0,0,1,8.93-3.76c1.11-.16,1.69,0,1.73,1.17s0,2,.15,3A20.88,20.88,0,0,0,675.87,356.63Z"/><path class="cls-6" d="M669.78,350.68c-3.26,1.24-7.11,2-10.11.23-2.21-1.32-3.49-3.79-4.19-6.27a42.33,42.33,0,0,1-1.21-8.17,18.15,18.15,0,0,1,.08-5.23c.51-2.45,2-4.56,3.47-6.59,2.41-3.34,5.09-6.86,9-8.14a19.33,19.33,0,0,1,6.94-.55,17.18,17.18,0,0,1,5.11.77,12,12,0,0,1,3.69,2.28,16.87,16.87,0,0,1,5.76,10.43C689.67,340.22,678.51,347.35,669.78,350.68Z"/><path class="cls-11" d="M674.11,328.81a4.33,4.33,0,0,1,2.76,4.62"/><path class="cls-11" d="M660.73,323.9a4.33,4.33,0,0,1,5.3.94"/><path class="cls-6" d="M663.23,337.38a18.36,18.36,0,0,1-1.4-1.65,1.23,1.23,0,0,1-.25-.45c-.09-.42.24-.8.54-1.1l1.61-1.59"/><ellipse class="cls-9" cx="671.11" cy="333.26" rx="1.25" ry="0.99" transform="translate(-22.3 617.21) rotate(-48.68)"/><ellipse class="cls-9" cx="661.71" cy="328.63" rx="1.25" ry="0.99" transform="translate(-22.02 608.59) rotate(-48.68)"/><path class="cls-7" d="M680.63,338.24s3.13,1.06-2.52,4.8c0,0-.16,3.8-2.76,5.09,0,0,5.8.06,14.45-9.2,0,0,5.14-9.26,0-16.75,0,0-6.46-9.94-18.55-8.65,0,0-12.92,1.66-14.88,13.18,0,0,5.53-7.67,11.44-9.21,0,0,7.37,6.74,11.81,6.64C679.64,324.15,682.92,327.17,680.63,338.24Z"/><path class="cls-12" d="M658.53,339.53s1.64,3.94,7,3C665.5,342.56,660.56,347.09,658.53,339.53Z"/><path class="cls-12" d="M667.91,341a1.77,1.77,0,0,1-.24,1.69"/><path class="cls-12" d="M661.83,326.93a3.66,3.66,0,0,1,1.8,3"/><path class="cls-12" d="M671.6,331.54a4.53,4.53,0,0,1,1.12,2.91"/></g><g id="Layer_8" data-name="Layer 8"><rect class="cls-6" x="444.67" y="482.05" width="19.93" height="93.59"/><ellipse class="cls-6" cx="427.29" cy="579.65" rx="23.18" ry="22.86"/><ellipse class="cls-6" cx="496.11" cy="575.24" rx="20.77" ry="20.48"/><ellipse class="cls-6" cx="463.95" cy="561.9" rx="16.24" ry="16.01"/><ellipse class="cls-6" cx="434.36" cy="552.19" rx="11.31" ry="11.15"/><ellipse class="cls-6" cx="461.2" cy="544.98" rx="7.73" ry="7.62"/><ellipse class="cls-6" cx="520.05" cy="579.65" rx="7.73" ry="7.62"/><ellipse class="cls-6" cx="534.05" cy="579.65" rx="7.73" ry="7.62"/><ellipse class="cls-6" cx="403.05" cy="579.65" rx="7.73" ry="7.62"/><ellipse class="cls-6" cx="390.05" cy="579.65" rx="7.73" ry="7.62"/><ellipse class="cls-6" cx="449.46" cy="561.73" rx="13.7" ry="13.51"/><ellipse class="cls-6" cx="458.38" cy="585.09" rx="23.84" ry="23.51"/><path class="cls-6" d="M477.16,421.09a22.49,22.49,0,0,0-45,0s-2.91,53.17,22.49,81.47C480.06,474.26,477.16,421.09,477.16,421.09Z"/><path class="cls-8" d="M468.93,411.87a14.26,14.26,0,0,0-28.52,0s-1.84,33.72,14.26,51.67C470.77,445.58,468.93,411.87,468.93,411.87Z"/><path class="cls-13" d="M404.87,334.65s-53.4,25.86-32.24,102.12c0,0,11.3-38.34,47.53-48.26Z"/><path class="cls-13" d="M505,334.65s53.4,25.86,32.24,102.12c0,0-11.3-38.34-47.53-48.26Z"/><path class="cls-14" d="M472.24,404.41H435.95a3.07,3.07,0,0,1-3-2.39l-2-8.79a3.07,3.07,0,0,1,3-3.74h40.28a3.07,3.07,0,0,1,3,3.74l-2,8.79A3.07,3.07,0,0,1,472.24,404.41Z"/><path class="cls-8" d="M401.72,314s5.57,51.15,22.79,83.56c0,0,27.35-13.17,59.76,0,0,0,19.75-27.35,23.8-87.61,2.33-34.72-.45-74.37-12-108.53H415.78C405.09,229.3,397.48,266.66,401.72,314Z"/><path class="cls-5" d="M448.46,146.05c-8.08,9.14-21.93,27.46-32.67,55.42h80.32c-7.36-21.86-18.28-41.47-33.74-56.1A9.69,9.69,0,0,0,448.46,146.05Z"/><path class="cls-13" d="M453.48,311.58s-24.64,56,0,122.55C453.48,434.12,480.86,378.58,453.48,311.58Z"/><circle class="cls-7" cx="455.79" cy="259.63" r="30.99"/><circle class="cls-6" cx="455.79" cy="259.63" r="21.52"/></g><g id="Layer_7" data-name="Layer 7"><rect class="cls-7" x="269.69" y="228.83" width="4.03" height="84.54" transform="translate(54.59 -45.41) rotate(10.62)"/><path class="cls-5" d="M330.5,260.2c-17.05-11-39.25,5.37-55.89-7.83a2.6,2.6,0,0,1-1-2.51l6.14-32.74a2.56,2.56,0,0,1,3.93-1.64c17.05,11,39.25-5.37,55.89,7.83a2.6,2.6,0,0,1,1,2.51l-6.14,32.74A2.56,2.56,0,0,1,330.5,260.2Z"/><path class="cls-9" d="M210.93,370.68s2.17,15.75-8.75,27.37a30.06,30.06,0,0,1-25.13,9.28,8.33,8.33,0,0,0,3.51-8.81c-6.86-54.22,16.52-67.58,16.52-67.58s6.43-6.57,18-5.53c0,0,10.61.66,15.12,9.94,0,0,6.88,11-.34,25.26a25.51,25.51,0,0,0-2.74,9.07l-21.79,14.54"/><path class="cls-6" d="M269.31,293a3,3,0,0,0-1.49,1.8,1.59,1.59,0,0,0-.08.76,2,2,0,0,1-.6,1.63,3.56,3.56,0,0,0-.87,1.37,5.59,5.59,0,0,0-.24,2.91,4.87,4.87,0,0,1,0,2.28,2,2,0,1,0,4,.34,1.58,1.58,0,0,1,.36-1.08l.09-.13a2.16,2.16,0,0,0,.31-1.5,1.5,1.5,0,0,1,.51-1.44,2.94,2.94,0,0,0,1-1.53,2.24,2.24,0,0,0,.06-1.12,1.5,1.5,0,0,1,.49-1.45,1.67,1.67,0,0,0,.6-1.51C273.3,292.75,270.41,292.32,269.31,293Z"/><path class="cls-6" d="M257.37,298.54l0,0a10.81,10.81,0,0,1,1.57-2.3l2.18-2.44c1.59-1.49,2.43-2.78,4.26-3,3-.32,7.24-.49,7.38,1.12s-3.83,2.54-6.09,2.84a1.83,1.83,0,0,0-1.55,1.4s1.11,8.94-3.57,9.28l-1.13,3.24-5.56-.9,1.17-5.5A15.06,15.06,0,0,1,257.37,298.54Z"/><path class="cls-6" d="M239.25,573.92a13.76,13.76,0,0,1,.13-2l8.88-64.57a205.06,205.06,0,0,0,1-67.37,13.12,13.12,0,0,0-11.56-11h0a14,14,0,0,0-15.27,14.58,96.58,96.58,0,0,0,1.72,13.21c3.9,19.9,10.64,115.47,10.69,115.49a6.87,6.87,0,0,1-.13,1.37"/><path class="cls-6" d="M190,577.84a26.32,26.32,0,0,1,2.58-8.57C198,558.43,214.36,525,219,511.48c5.54-16.28,15.18-68.37,13.24-83.07L219,427.3a14.55,14.55,0,0,0-14.6,10.3c-2.87,9.51-5.62,25.54-3,48.89,0,0,2,12.7,0,20.86-1.8,7.41-12.17,53.54-14.06,62a29,29,0,0,1-1,2.76,6.88,6.88,0,0,1-2.12,2.43"/><path class="cls-9" d="M246.47,520.83q-22.83,5.93-48.19,0c1.45-6.38,2.61-11.41,3.11-13.47,2-8.17,0-20.86,0-20.86-2.57-23.35.18-39.38,3-48.89A14.55,14.55,0,0,1,219,427.3l13.17,1.1v.08l5.51.51a13.12,13.12,0,0,1,11.56,11,205.06,205.06,0,0,1-1,67.37Z"/><path class="cls-5" d="M206.07,370.65h0c-21.71,12.9-13.42,18.58-13.42,18.58a33.12,33.12,0,0,1,6.7,9.46l8.72,18.6c.9,2.92-1.78,11.55-2.73,14.46l-2,6.09a1.75,1.75,0,0,0,1.08,2.21c10.1,3.49,30.44,4,43.44-.13a2.44,2.44,0,0,0,1.43-3.48l-9.63-26.25c-2.56-5.54-2.08-6.88-.28-10.14a8,8,0,0,0,.71-6,23.77,23.77,0,0,0-2.57-5.14,8.22,8.22,0,0,1,.62-9.53c7.43-9.08,17.53-25.44,19.4-35,2-10.21,4-36.8,4-36.8-1-1.44-5.35-3.2-6.69-1.43l-8.41,36.39c-9.09,11.48-16.55,22-20.06,27a8,8,0,0,1-5.88,3.4l-2.67-.51"/><path class="cls-6" d="M205.62,474.62c-1.09-1.64-2-3.4-2.5-4a10.38,10.38,0,0,0-1.18-.92c-.62-.47-1.65-1.11-1.92-1.84l-1.2-3c-.56-1.48-1.69-2.34-3.18-1.78h0c-1.6.6-1.82,2.24-1,3.77l.8,2.15a9.8,9.8,0,0,1,.73,4c.17,2.79,1.91,5.5,3.52,7.54,1,1.28,3.19,1.48,6.12,1.58,1.44,0,3.68-.3,2.32-1.5-1.14-1-5.56-1.45-5.92-5.82,0-.21,0-.77.22-.87.73-.3,1.48,1.29,2.13,2,.92.94,1.87,1.09,2.31.8S206.4,475.78,205.62,474.62Z"/><path class="cls-5" d="M193,380.83c2.15-2.22,7.42-2.87,12.23-1.87,4.54.94-5.26,32.68-14.41,47.62a6.77,6.77,0,0,0-.78,5.37l9.74,34.49c-1.17,2.36-3.33,2.76-5.54,3.08l-16.39-36a16.34,16.34,0,0,1-1-10.83C179.76,411.61,186.5,387.56,193,380.83Z"/><path class="cls-7" d="M232.46,573v12.3h1.81l1.3-5.16,3.23,5.16h18.08A23.54,23.54,0,0,1,240.73,573Z"/><path class="cls-7" d="M183.46,573v12.3h1.81l1.3-5.16,3.23,5.16h18.08A23.54,23.54,0,0,1,191.73,573Z"/><path class="cls-6" d="M207.07,369.8a1,1,0,0,0-.15.53.94.94,0,0,0,.25.47,32.8,32.8,0,0,0,4.68,4.71c1,.83,2.28,1.65,3.55,1.3a4.46,4.46,0,0,0,2-1.44l2.43-2.61c-1-.78-.92-2.28-.71-3.53a49.8,49.8,0,0,1,1.08-4.88,19.68,19.68,0,0,0-8.94-4.46c-1.13-.24-1.74-.07-1.86,1.09s-.16,2.07-.35,3.1A21.54,21.54,0,0,1,207.07,369.8Z"/><path class="cls-6" d="M213.74,364.07c3.27,1.5,7.18,2.55,10.39.9,2.36-1.21,3.84-3.67,4.73-6.18a43.65,43.65,0,0,0,1.79-8.32,18.72,18.72,0,0,0,.27-5.38c-.37-2.55-1.76-4.82-3.13-7-2.26-3.6-4.78-7.4-8.72-9a19.94,19.94,0,0,0-7.1-1,17.71,17.71,0,0,0-5.31.45,12.34,12.34,0,0,0-3.95,2.1A17.4,17.4,0,0,0,196.08,341C194,352,205,360.07,213.74,364.07Z"/><path class="cls-7" d="M202.86,359.43s8.63-15.62,2.82-24.25c0,0,4.78,2.24,8.68,1.27,0,0,9.94-2,13.63,5.84,0,0,1.61,4.83,3.73,6.79l.23-3.91-2.86-7.88-8.62-8.51-8.42-2.62-8.83,2.92-5.94,5.17-3.39,12.64,4.81,9.21Z"/><path class="cls-6" d="M209,348.16a1.4,1.4,0,0,0,1.16-.57,8.43,8.43,0,0,0,.69-1.15,5.37,5.37,0,0,1,.57-.8,3,3,0,0,1,.73-.64,2.78,2.78,0,0,1,2.44,0,7.8,7.8,0,0,1,2.07,1.43"/><path class="cls-6" d="M220.71,343.51l.49-.9a3.57,3.57,0,0,1,1.67-1.83,4.81,4.81,0,0,1,2.06,0,2,2,0,0,0,1.88-.61"/><path class="cls-6" d="M215,342.08a5.74,5.74,0,0,0-6.82,2.09"/><path class="cls-6" d="M218.94,340.1a5.34,5.34,0,0,1,4.35-2.83"/><path class="cls-6" d="M221.27,352.42a18.93,18.93,0,0,0,1.55-1.6,1.26,1.26,0,0,0,.28-.45c.12-.42-.19-.84-.48-1.16l-1.55-1.74"/><path class="cls-6" d="M221.4,359.49a6.59,6.59,0,0,1,1.54.11,3.35,3.35,0,0,0,.53.14c.69.07,1.24-.65,1.34-1.34a19.05,19.05,0,0,0-.07-2.09c0-.59.19-1.17.14-1.76a.76.76,0,0,0-.15-.46c-.21-.24-.6-.18-.9-.09a15.81,15.81,0,0,0-5.53,3.62.46.46,0,0,0-.15.19c-.13.42.84,1.05,1.16,1.22A5.15,5.15,0,0,0,221.4,359.49Z"/><path class="cls-15" d="M225,359.76a2.63,2.63,0,0,1-1.9.78,6,6,0,0,1-2.06-.4c-.51-.17-1-.37-1.52-.58a4.39,4.39,0,0,1-1.1-.59,1.58,1.58,0,0,1-.62-1,9.48,9.48,0,0,0,2.5.86,5.93,5.93,0,0,0,3.48-.27c.38-.17.87-.64,1.29-.35S225.33,359.39,225,359.76Z"/><path class="cls-15" d="M224.9,353.19a6.14,6.14,0,0,0-4.08,1.36,18.24,18.24,0,0,0-3,3.16c-.06.07-.12.16-.07.24s.15.07.24.05c1.36-.26,2.45-1.26,3.62-2a9.24,9.24,0,0,1,3.1-1.24C225.57,354.58,226.3,353.3,224.9,353.19Z"/><ellipse class="cls-9" cx="213.52" cy="346.06" rx="1.02" ry="1.29" transform="translate(-166.88 202.4) rotate(-37.64)"/><ellipse class="cls-9" cx="223.5" cy="341.92" rx="1.02" ry="1.29" transform="translate(-162.28 207.63) rotate(-37.64)"/><path class="cls-16" d="M298.12,233.52c-.06-.18-.32-.15-.61-.15l-.63,0,.36-1c.05-.14-.59-.71-.82-.57a5.13,5.13,0,0,0-.78,1.62,6.93,6.93,0,0,0-1.37.24v-.07c.08-.42-.51-.71-.88-.75-.12,0-.24,0-.31.09a32.28,32.28,0,0,0-2.19,4.29h-.05a29.9,29.9,0,0,1,.9-3.75c.07-.33-.23-.38-.4-.4-.67-.06-1.2,1.69-1.51,3.87a.15.15,0,0,0,0,.08c-.08.87-1.08,2.44-2.13,2.34-.69-.07-.9-.55-.84-1.17a5.87,5.87,0,0,1,.41-1.74.88.88,0,0,0,.74.63c1.08.1,1.7-1.38,1.86-3.07.11-1.21-.45-1.67-1-1.71-1.2-.11-2.65,3.17-2.86,5.37,0,.12,0,.23,0,.35a.19.19,0,0,0-.22-.09l-.12,0c-.48-.82-1.17-1.8-1.69-2.52a2.69,2.69,0,0,0,2.79-2.53,3.17,3.17,0,0,0-2.75-3.16,1.55,1.55,0,0,1,.09-.26,1.12,1.12,0,0,0-.67-.34c-.36,0-.31.18-.36.34a1.62,1.62,0,0,0-.07.21,2.49,2.49,0,0,0-2.33,1.38c0,.2.68.69.8.7a.1.1,0,0,0,.08,0,2,2,0,0,1,1.16-1.11c-.6,2.11-1.68,6.4-2.12,8.49a1.86,1.86,0,0,0,.85.4c.21,0,.37-.3.48-.74s0-.47,0-.71l.64-2.73h0c.69.85,2.24,3.34,2.9,4.4a1.53,1.53,0,0,0,.7-.37.24.24,0,0,0,.05-.1,1.92,1.92,0,0,0,1.55,1.17,2,2,0,0,0,1.86-1c.06.47.23.77.61.81a.65.65,0,0,0,.47-.15,14,14,0,0,1,1.69-4.54l.16,0a19.54,19.54,0,0,0-.6,2.58c-.1,1.07.06,2,1,2.13a1.59,1.59,0,0,0,1.47-.88,1.62,1.62,0,0,0,1.33,1.26A2.44,2.44,0,0,0,298,239c.07-.79-.41-.72-.41-.72a2.28,2.28,0,0,1-2.05,1.46c-.28,0-.4-.25-.37-.59.19-2,.35-2.08,1.3-4.68a16.6,16.6,0,0,1,2,0,.17.17,0,0,0,.22-.18,1.43,1.43,0,0,0-.24-.46C298.32,233.58,298.18,233.72,298.12,233.52Zm-9.54-.24c.1-.18.17-.22.23-.22s.16.08.1.64c-.11,1.21-.66,2.67-1.14,2.62-.27,0-.31-.36-.31-.36A11.48,11.48,0,0,1,288.58,233.28Zm-4.77-2.74H284a1.73,1.73,0,0,1,1.72,1.89c-.16,1.7-1.43,2.3-3,2.12C283.13,233.09,283.52,231.57,283.81,230.54Zm10.53,7.69a3.49,3.49,0,0,0,0,.37c-.16.35-.47.88-.86.84s-.52-.38-.46-1.05a26,26,0,0,1,1.17-4.26c.09.23.3.48.51.46l.61-.08A21.08,21.08,0,0,0,294.34,238.24Z"/><path class="cls-16" d="M305.92,238.87c-.17.78-.43,1.62-1.12,1.56-.45,0-.52-.46-.46-1.07a16.29,16.29,0,0,1,1.11-3.82c.11-.3-.41-.36-.52-.41a1.05,1.05,0,0,0,0-.14c0-.4-.3-1-1.2-1.1-1.58-.15-2.9,2.12-3.13,4.51-.15,1.61.49,2.68,1.47,2.77a1.65,1.65,0,0,0,1.49-.83h.07a1,1,0,0,0,.87,1c1,.09,1.68-1.34,1.75-2A.34.34,0,0,0,305.92,238.87ZM302,240.26c-.34,0-.44-.36-.37-1.18.13-1.38,1-4.48,2-4.39.25,0,.22.34.21.46a2.28,2.28,0,0,1-.57,1.28,1.28,1.28,0,0,0,.58.35C303.84,237.25,302.83,240.33,302,240.26Z"/><path class="cls-16" d="M316.91,240.88l-1.38-1.2h0l-.34-.29a5.69,5.69,0,0,1-.43.37,3.2,3.2,0,0,1-.53.34,2.2,2.2,0,0,1-.62.2,2.77,2.77,0,0,1-.72,0,2.26,2.26,0,0,1-1-.3,2.34,2.34,0,0,1-.7-.64,2.65,2.65,0,0,1-.41-.9,3.07,3.07,0,0,1-.08-1.06v0a3,3,0,0,1,.28-1,2.67,2.67,0,0,1,.57-.8,2.35,2.35,0,0,1,.81-.5,2.26,2.26,0,0,1,1-.12,2.38,2.38,0,0,1,1.22.44,3.55,3.55,0,0,1,.8.85l.46-.29h0l1.52-1a5.24,5.24,0,0,0-.58-.78,4.33,4.33,0,0,0-.67-.59h0l-.15-.1a4.56,4.56,0,0,0-1-.51,5.77,5.77,0,0,0-1.31-.27,5.19,5.19,0,0,0-2,.19,4.77,4.77,0,0,0-1.67.89,4.94,4.94,0,0,0-1.74,3.35v0a4.92,4.92,0,0,0,1.09,3.63,4.68,4.68,0,0,0,1.44,1.16,5,5,0,0,0,1.87.54,5.71,5.71,0,0,0,1.43,0,4.76,4.76,0,0,0,1.17-.34l.1,0h0l0,0h0a4.21,4.21,0,0,0,.81-.51A7.13,7.13,0,0,0,316.91,240.88Z"/><path class="cls-16" d="M325.43,242.46a5.07,5.07,0,0,1-.95-1.72,5,5,0,0,1-.21-2v0a5,5,0,0,1,1.86-3.47l.13-.1,0,0,.09-1-2.66-.25-2.72,3.6-2-4-2.66-.25,0,.3.08.06.08.06.11.09.07.06.11.11.05,0,.15.16a5.44,5.44,0,0,1,.66.9l.05.09-1.6,1-.33,3.52,1.46,1.26-.07.08a7.34,7.34,0,0,1-.84.81l-.19.15-.06,0-.14.09-.08,0-.13.08-.09,0-.1.06,0,.35,2.42.23.54-5.75,2.2,4.19,3-3.73-.55,5.78,2.45.23.09-.94,0,0Z"/><path class="cls-16" d="M334.44,237.72a4.87,4.87,0,0,0-.91-1.65,5,5,0,0,0-1.51-1.2,5.55,5.55,0,0,0-4-.38,5.17,5.17,0,0,0-1.49.74l0,0-.07,0h0l-.11.08h0a4.83,4.83,0,0,0-1.78,3.33v0a4.78,4.78,0,0,0,.2,1.93,4.86,4.86,0,0,0,.91,1.65h0l.1.1h0l.06.06,0,0a5.08,5.08,0,0,0,1.3,1,5.55,5.55,0,0,0,4,.38,5.12,5.12,0,0,0,1.72-.9,4.82,4.82,0,0,0,1.78-3.33v0A4.78,4.78,0,0,0,334.44,237.72Zm-2.32,1.75a2.87,2.87,0,0,1-.28,1,2.71,2.71,0,0,1-.6.8,2.44,2.44,0,0,1-.86.51,2.54,2.54,0,0,1-1.07.12,2.47,2.47,0,0,1-1-.32,2.55,2.55,0,0,1-.76-.67,2.73,2.73,0,0,1-.44-.91,2.87,2.87,0,0,1-.09-1v0a3,3,0,0,1,.28-1,2.51,2.51,0,0,1,1.46-1.31,2.62,2.62,0,0,1,2.09.21,2.64,2.64,0,0,1,.76.67,2.67,2.67,0,0,1,.45.91,2.87,2.87,0,0,1,.09,1Z"/></g></svg>