<svg id="Layer_1" data-name="Layer 1" xmlns="http://www.w3.org/2000/svg" viewBox="0 0 18.1 18.09"><defs><style>.cls-1{fill:#fff;}</style></defs><title>phone</title><path class="cls-1" d="M18.09,14.28a.87.87,0,0,1-.27.77l-2.55,2.53a1.43,1.43,0,0,1-.45.33,1.86,1.86,0,0,1-.55.17h-.36A8.83,8.83,0,0,1,12.74,18a9,9,0,0,1-2-.61,16.73,16.73,0,0,1-2.67-1.47A19.93,19.93,0,0,1,4.89,13.2a21,21,0,0,1-2.22-2.53A18,18,0,0,1,1.25,8.44a12,12,0,0,1-.8-1.86A9.86,9.86,0,0,1,.08,5.14,4.75,4.75,0,0,1,0,4.2q0-.34,0-.38a1.86,1.86,0,0,1,.17-.55,1.44,1.44,0,0,1,.33-.45L3.07.27A.84.84,0,0,1,3.68,0a.71.71,0,0,1,.44.14A1.33,1.33,0,0,1,4.45.5L6.5,4.39a.93.93,0,0,1,.1.67,1.19,1.19,0,0,1-.33.61l-.94.94a.32.32,0,0,0-.07.12.47.47,0,0,0,0,.14,3.46,3.46,0,0,0,.34.92,8.44,8.44,0,0,0,.71,1.12,12.45,12.45,0,0,0,1.36,1.52,12.69,12.69,0,0,0,1.53,1.37,8.85,8.85,0,0,0,1.12.72,3,3,0,0,0,.69.28l.24,0,.12,0a.32.32,0,0,0,.12-.07l1.09-1.11a1.17,1.17,0,0,1,.8-.31,1,1,0,0,1,.52.11h0l3.7,2.18A1,1,0,0,1,18.09,14.28Z"/></svg>