<svg data-name="Layer 1" xmlns="http://www.w3.org/2000/svg" viewBox="0 0 18.1 18.09"><path d="M18.09 14.28a.87.87 0 0 1-.27.77l-2.55 2.53a1.43 1.43 0 0 1-.45.33 1.86 1.86 0 0 1-.55.17h-.36a8.83 8.83 0 0 1-1.17-.08 9 9 0 0 1-2-.61 16.73 16.73 0 0 1-2.67-1.47 19.93 19.93 0 0 1-3.18-2.72 21 21 0 0 1-2.22-2.53 18 18 0 0 1-1.42-2.23 12 12 0 0 1-.8-1.86 9.86 9.86 0 0 1-.37-1.44A4.75 4.75 0 0 1 0 4.2v-.38a1.86 1.86 0 0 1 .17-.55 1.44 1.44 0 0 1 .33-.45L3.07.27A.84.84 0 0 1 3.68 0a.71.71 0 0 1 .44.14 1.33 1.33 0 0 1 .33.36L6.5 4.39a.93.93 0 0 1 .1.67 1.19 1.19 0 0 1-.33.61l-.94.94a.32.32 0 0 0-.07.12.47.47 0 0 0 0 .14 3.46 3.46 0 0 0 .34.92 8.44 8.44 0 0 0 .71 1.12 12.45 12.45 0 0 0 1.36 1.52A12.69 12.69 0 0 0 9.2 11.8a8.85 8.85 0 0 0 1.12.72 3 3 0 0 0 .69.28h.36a.32.32 0 0 0 .12-.07l1.09-1.11a1.17 1.17 0 0 1 .8-.31 1 1 0 0 1 .52.11l3.7 2.18a1 1 0 0 1 .49.68z" fill="#fff"/></svg>