<svg xmlns="http://www.w3.org/2000/svg" viewBox="0 0 695.32 641.2"><defs><style>.cls-1,.cls-12{fill:#ccc;}.cls-2,.cls-4,.cls-9{fill:#fff;}.cls-3{fill:#eb058c;}.cls-10,.cls-11,.cls-12,.cls-13,.cls-3,.cls-4,.cls-6,.cls-7,.cls-8,.cls-9{stroke:#000;stroke-miterlimit:10;}.cls-10,.cls-11,.cls-12,.cls-13,.cls-3,.cls-4,.cls-6,.cls-7,.cls-8{stroke-width:0.5px;}.cls-5,.cls-7{fill:#1a1a1a;}.cls-6{fill:#f2f2f2;}.cls-8{fill:#ffe600;}.cls-10{fill:none;}.cls-11{fill:#0077bf;}.cls-13{fill:#c10072;}</style></defs><title>for-early</title><g id="Layer_3" data-name="Layer 3"><ellipse class="cls-1" cx="607.47" cy="584.57" rx="71.61" ry="6.98"/><ellipse class="cls-1" cx="149.43" cy="584.57" rx="53.58" ry="6.98"/></g><g id="Layer_6" data-name="Layer 6"><path class="cls-2" d="M292.57,148.57S286.17-.75,451.25,9.41c0,0,195.59-10.47,239,228.34,0,0,27.24,105.8-44.08,252.35,0,0-71.65,115.32-184.67,140,0,0-195,45.53-345.43-47.86,0,0-201.64-89.35-73.26-240.58,0,0,48.78-47.62,130.94-34.59C173.7,307.08,299.44,335.59,292.57,148.57Z"/></g><g id="Layer_10" data-name="Layer 10"><path class="cls-3" d="M416.5,64.3H399l.25-37.46s-.23-8.11-10.38-9.08c0,0-9.17-.39-9.64,10l-.41,36.39L361.61,64l.07-36.82s-.8-16.61,12.72-23.55c0,0,9.44-4.68,20.16-3,0,0,13.36,1.16,19.43,13.17,0,0,3.58,7.26,2.54,17.95l0,21.37Z"/><polygon class="cls-4" points="416.57 46.44 399.09 46.44 399.01 57.64 416.56 57.64 416.57 46.44"/><polygon class="cls-4" points="378.96 46.26 361.69 46.08 361.67 57.34 378.84 57.47 378.96 46.26"/><polygon class="cls-5" points="416.88 95.77 411.25 115.33 409.82 101.39 401.28 101.79 405.67 72.17 408 93.93 416.88 95.77"/><polygon class="cls-5" points="360.28 95.77 365.91 115.33 367.34 101.39 375.88 101.79 371.49 72.17 369.16 93.93 360.28 95.77"/></g><g id="Layer_9" data-name="Layer 9"><path class="cls-6" d="M603.41,449.35"/><path class="cls-7" d="M583.23,577.61h-8.38l1.38-144.47,54.35,6.15,13.69,138.32h-8.38l-31.14-123s-1.74-3-3.93,0l-17.59,123h-8.38"/><path class="cls-8" d="M517,335l21.47,25.66c4.52,5.73,35.84,8.39,35.84,8.39s5.94,46.13,1.94,64.11c0,0,22.44,15.54,54.35,6.15l2-48.06,10.89,10.38,11,40.41,5.64-.43-3-45.33-24.77-34.09s-4.13-3.3-23.87-3c0,0-7.69,6.42-13.32,0A103.44,103.44,0,0,0,552.54,355s-2.49.21-6.9-3.63l-23.81-20.71L517,335"/><path class="cls-4" d="M521.83,330.65,509.49,319c-2.27,1.44,6,11.53,6,11.53s-2.84,2.61,1.46,4.5Z"/><path class="cls-4" d="M654.41,442c-6.66,4.59.2,4.29.2,4.29s2.41,8.49,4.51,8.31c2.88-.25.94-13,.94-13Z"/><polygon class="cls-5" points="635.89 577.61 635.89 584.84 639.8 584.84 639.8 583.06 642.25 584.84 660.48 584.84 660.48 584.84 644.27 577.61 635.89 577.61"/><polygon class="cls-5" points="583.23 577.61 583.23 584.84 579.32 584.84 579.32 583.06 576.87 584.84 558.64 584.84 558.64 584.84 574.85 577.61 583.23 577.61"/><path class="cls-4" d="M596.42,354l-7.2,7.22,10.92,1.29s5.63-6.23.67-7.91Z"/><polygon class="cls-4" points="603.02 362.71 614.24 363.33 610.35 355.85 603.84 354.98 603.02 362.71"/><path class="cls-5" d="M600.13,361.55l-6,47.73,8.09,9.91,6.7-10.8-6.65-46.62S601.37,359.39,600.13,361.55Z"/><path class="cls-4" d="M609.47,356.63a1,1,0,0,1,.11.52.92.92,0,0,1-.27.44,31.81,31.81,0,0,1-4.83,4.26c-1,.74-2.31,1.45-3.52,1a4.33,4.33,0,0,1-1.8-1.52L597,358.7c1-.69,1-2.15.91-3.37a48.29,48.29,0,0,0-.74-4.79,19.09,19.09,0,0,1,8.93-3.76c1.11-.16,1.69,0,1.73,1.17s0,2,.15,3A20.88,20.88,0,0,0,609.47,356.63Z"/><path class="cls-4" d="M603.38,350.68c-3.26,1.24-7.11,2-10.11.23-2.21-1.32-3.49-3.79-4.19-6.27a42.33,42.33,0,0,1-1.21-8.17,18.15,18.15,0,0,1,.08-5.23c.51-2.45,2-4.56,3.47-6.59,2.41-3.34,5.09-6.86,9-8.14a19.33,19.33,0,0,1,6.94-.55,17.18,17.18,0,0,1,5.11.77,12,12,0,0,1,3.69,2.28,16.87,16.87,0,0,1,5.76,10.43C623.27,340.22,612.11,347.35,603.38,350.68Z"/><path class="cls-9" d="M607.71,328.81a4.33,4.33,0,0,1,2.76,4.62"/><path class="cls-9" d="M594.33,323.9a4.33,4.33,0,0,1,5.3.94"/><path class="cls-4" d="M596.84,337.38a18.36,18.36,0,0,1-1.4-1.65,1.23,1.23,0,0,1-.25-.45c-.09-.42.24-.8.54-1.1l1.61-1.59"/><ellipse class="cls-7" cx="604.71" cy="333.26" rx="1.25" ry="0.99" transform="translate(-44.86 567.35) rotate(-48.68)"/><ellipse class="cls-7" cx="595.32" cy="328.63" rx="1.25" ry="0.99" transform="translate(-44.57 558.72) rotate(-48.68)"/><path class="cls-5" d="M614.24,338.24s3.13,1.06-2.52,4.8c0,0-.16,3.8-2.76,5.09,0,0,5.8.06,14.45-9.2,0,0,5.14-9.26,0-16.75,0,0-6.46-9.94-18.55-8.65,0,0-12.92,1.66-14.88,13.18,0,0,5.53-7.67,11.44-9.21,0,0,7.37,6.74,11.81,6.64C613.24,324.15,616.52,327.17,614.24,338.24Z"/><path class="cls-10" d="M592.14,339.53s1.64,3.94,7,3C599.1,342.56,594.16,347.09,592.14,339.53Z"/><path class="cls-10" d="M601.51,341a1.77,1.77,0,0,1-.24,1.69"/><path class="cls-10" d="M595.44,326.93a3.66,3.66,0,0,1,1.8,3"/><path class="cls-10" d="M605.2,331.54a4.53,4.53,0,0,1,1.12,2.91"/></g><g id="Layer_8" data-name="Layer 8"><rect class="cls-4" x="378.28" y="482.05" width="19.93" height="93.59"/><ellipse class="cls-4" cx="360.9" cy="579.65" rx="23.18" ry="22.86"/><ellipse class="cls-4" cx="429.71" cy="575.24" rx="20.77" ry="20.48"/><ellipse class="cls-4" cx="397.55" cy="561.9" rx="16.24" ry="16.01"/><ellipse class="cls-4" cx="367.96" cy="552.19" rx="11.31" ry="11.15"/><ellipse class="cls-4" cx="394.81" cy="544.98" rx="7.73" ry="7.62"/><ellipse class="cls-4" cx="453.65" cy="579.65" rx="7.73" ry="7.62"/><ellipse class="cls-4" cx="467.65" cy="579.65" rx="7.73" ry="7.62"/><ellipse class="cls-4" cx="336.65" cy="579.65" rx="7.73" ry="7.62"/><ellipse class="cls-4" cx="323.65" cy="579.65" rx="7.73" ry="7.62"/><ellipse class="cls-4" cx="383.06" cy="561.73" rx="13.7" ry="13.51"/><ellipse class="cls-4" cx="391.98" cy="585.09" rx="23.84" ry="23.51"/><path class="cls-4" d="M410.76,421.09a22.49,22.49,0,0,0-45,0s-2.91,53.17,22.49,81.47C413.66,474.26,410.76,421.09,410.76,421.09Z"/><path class="cls-6" d="M402.53,411.87a14.26,14.26,0,0,0-28.52,0s-1.84,33.72,14.26,51.67C404.38,445.58,402.53,411.87,402.53,411.87Z"/><path class="cls-11" d="M338.48,334.65s-53.4,25.86-32.24,102.12c0,0,11.3-38.34,47.53-48.26Z"/><path class="cls-11" d="M438.55,334.65s53.4,25.86,32.24,102.12c0,0-11.3-38.34-47.53-48.26Z"/><path class="cls-12" d="M405.84,404.41H369.55a3.07,3.07,0,0,1-3-2.39l-2-8.79a3.07,3.07,0,0,1,3-3.74h40.28a3.07,3.07,0,0,1,3,3.74l-2,8.79A3.07,3.07,0,0,1,405.84,404.41Z"/><path class="cls-6" d="M335.32,314s5.57,51.15,22.79,83.56c0,0,27.35-13.17,59.76,0,0,0,19.75-27.35,23.8-87.61,2.33-34.72-.45-74.37-12-108.53H349.39C338.69,229.3,331.08,266.66,335.32,314Z"/><path class="cls-3" d="M382.06,146.05c-8.08,9.14-21.93,27.46-32.67,55.42h80.32c-7.36-21.86-18.28-41.47-33.74-56.1A9.69,9.69,0,0,0,382.06,146.05Z"/><path class="cls-11" d="M387.09,311.58s-24.64,56,0,122.55C387.09,434.12,414.47,378.58,387.09,311.58Z"/><circle class="cls-5" cx="389.39" cy="259.63" r="30.99"/><circle class="cls-4" cx="389.39" cy="259.63" r="21.52"/></g><g id="Layer_7" data-name="Layer 7"><rect class="cls-5" x="203.3" y="228.83" width="4.03" height="84.54" transform="translate(53.45 -33.18) rotate(10.62)"/><path class="cls-3" d="M264.11,260.2c-17.05-11-39.25,5.37-55.89-7.83a2.6,2.6,0,0,1-1-2.51l6.14-32.74a2.56,2.56,0,0,1,3.93-1.64c17.05,11,39.25-5.37,55.89,7.83a2.6,2.6,0,0,1,1,2.51L268,258.56A2.56,2.56,0,0,1,264.11,260.2Z"/><path class="cls-7" d="M144.53,370.68s2.17,15.75-8.75,27.37a30.06,30.06,0,0,1-25.13,9.28,8.33,8.33,0,0,0,3.51-8.81c-6.86-54.22,16.52-67.58,16.52-67.58s6.43-6.57,18-5.53c0,0,10.61.66,15.12,9.94,0,0,6.88,11-.34,25.26a25.51,25.51,0,0,0-2.74,9.07L139,384.22"/><path class="cls-4" d="M202.91,293a3,3,0,0,0-1.49,1.8,1.59,1.59,0,0,0-.08.76,2,2,0,0,1-.6,1.63,3.56,3.56,0,0,0-.87,1.37,5.59,5.59,0,0,0-.24,2.91,4.87,4.87,0,0,1,0,2.28,2,2,0,1,0,4,.34A1.58,1.58,0,0,1,204,303l.09-.13a2.16,2.16,0,0,0,.31-1.5,1.5,1.5,0,0,1,.51-1.44,2.94,2.94,0,0,0,1-1.53,2.24,2.24,0,0,0,.06-1.12,1.5,1.5,0,0,1,.49-1.45,1.67,1.67,0,0,0,.6-1.51C206.9,292.75,204,292.32,202.91,293Z"/><path class="cls-4" d="M191,298.54l0,0a10.81,10.81,0,0,1,1.57-2.3l2.18-2.44c1.59-1.49,2.43-2.78,4.26-3,3-.32,7.24-.49,7.38,1.12s-3.83,2.54-6.09,2.84a1.83,1.83,0,0,0-1.55,1.4s1.11,8.94-3.57,9.28L194,308.66l-5.56-.9,1.17-5.5A15.06,15.06,0,0,1,191,298.54Z"/><path class="cls-4" d="M172.85,573.92a13.76,13.76,0,0,1,.13-2l8.88-64.57a205.06,205.06,0,0,0,1-67.37,13.12,13.12,0,0,0-11.56-11h0a14,14,0,0,0-15.27,14.58,96.58,96.58,0,0,0,1.72,13.21c3.9,19.9,10.64,115.47,10.69,115.49a6.87,6.87,0,0,1-.13,1.37"/><path class="cls-4" d="M123.64,577.84a26.32,26.32,0,0,1,2.58-8.57c5.37-10.84,21.74-44.25,26.35-57.79,5.54-16.28,15.18-68.37,13.24-83.07l-13.17-1.1a14.55,14.55,0,0,0-14.6,10.3c-2.87,9.51-5.62,25.54-3,48.89,0,0,2,12.7,0,20.86-1.8,7.41-12.17,53.54-14.06,62a29,29,0,0,1-1,2.76,6.88,6.88,0,0,1-2.12,2.43"/><path class="cls-7" d="M180.07,520.83q-22.83,5.93-48.19,0c1.45-6.38,2.61-11.41,3.11-13.47,2-8.17,0-20.86,0-20.86-2.57-23.35.18-39.38,3-48.89a14.55,14.55,0,0,1,14.6-10.3l13.17,1.1v.08l5.51.51a13.12,13.12,0,0,1,11.56,11,205.06,205.06,0,0,1-1,67.37Z"/><path class="cls-3" d="M139.67,370.65h0c-21.71,12.9-13.42,18.58-13.42,18.58a33.12,33.12,0,0,1,6.7,9.46l8.72,18.6c.9,2.92-1.78,11.55-2.73,14.46l-2,6.09a1.75,1.75,0,0,0,1.08,2.21c10.1,3.49,30.44,4,43.44-.13a2.44,2.44,0,0,0,1.43-3.48l-9.63-26.25c-2.56-5.54-2.08-6.88-.28-10.14a8,8,0,0,0,.71-6,23.77,23.77,0,0,0-2.57-5.14,8.22,8.22,0,0,1,.62-9.53c7.43-9.08,17.53-25.44,19.4-35,2-10.21,4-36.8,4-36.8-1-1.44-5.35-3.2-6.69-1.43l-8.41,36.39c-9.09,11.48-16.55,22-20.06,27a8,8,0,0,1-5.88,3.4l-2.67-.51"/><path class="cls-4" d="M139.22,474.62c-1.09-1.64-2-3.4-2.5-4a10.38,10.38,0,0,0-1.18-.92c-.62-.47-1.65-1.11-1.92-1.84l-1.2-3c-.56-1.48-1.69-2.34-3.18-1.78h0c-1.6.6-1.82,2.24-1,3.77l.8,2.15a9.8,9.8,0,0,1,.73,4c.17,2.79,1.91,5.5,3.52,7.54,1,1.28,3.19,1.48,6.12,1.58,1.44,0,3.68-.3,2.32-1.5-1.14-1-5.56-1.45-5.92-5.82,0-.21,0-.77.22-.87.73-.3,1.48,1.29,2.13,2,.92.94,1.87,1.09,2.31.8S140,475.78,139.22,474.62Z"/><path class="cls-3" d="M126.64,380.83c2.15-2.22,7.42-2.87,12.23-1.87,4.54.94-5.26,32.68-14.41,47.62a6.77,6.77,0,0,0-.78,5.37l9.74,34.49c-1.17,2.36-3.33,2.76-5.54,3.08l-16.39-36a16.34,16.34,0,0,1-1-10.83C113.36,411.61,120.1,387.56,126.64,380.83Z"/><path class="cls-5" d="M166.06,573v12.3h1.81l1.3-5.16,3.23,5.16h18.08A23.54,23.54,0,0,1,174.33,573Z"/><path class="cls-5" d="M117.06,573v12.3h1.81l1.3-5.16,3.23,5.16h18.08A23.54,23.54,0,0,1,125.33,573Z"/><path class="cls-4" d="M140.67,369.8a1,1,0,0,0-.15.53.94.94,0,0,0,.25.47,32.8,32.8,0,0,0,4.68,4.71c1,.83,2.28,1.65,3.55,1.3a4.46,4.46,0,0,0,2-1.44l2.43-2.61c-1-.78-.92-2.28-.71-3.53a49.8,49.8,0,0,1,1.08-4.88,19.68,19.68,0,0,0-8.94-4.46c-1.13-.24-1.74-.07-1.86,1.09s-.16,2.07-.35,3.1A21.54,21.54,0,0,1,140.67,369.8Z"/><path class="cls-4" d="M147.34,364.07c3.27,1.5,7.18,2.55,10.39.9,2.36-1.21,3.84-3.67,4.73-6.18a43.65,43.65,0,0,0,1.79-8.32,18.72,18.72,0,0,0,.27-5.38c-.37-2.55-1.76-4.82-3.13-7-2.26-3.6-4.78-7.4-8.72-9a19.94,19.94,0,0,0-7.1-1,17.71,17.71,0,0,0-5.31.45,12.34,12.34,0,0,0-3.95,2.1A17.4,17.4,0,0,0,129.69,341C127.55,352,138.57,360.07,147.34,364.07Z"/><path class="cls-5" d="M136.46,359.43s8.63-15.62,2.82-24.25c0,0,4.78,2.24,8.68,1.27,0,0,9.94-2,13.63,5.84,0,0,1.61,4.83,3.73,6.79l.23-3.91-2.86-7.88-8.62-8.51-8.42-2.62-8.83,2.92-5.94,5.17-3.39,12.64,4.81,9.21Z"/><path class="cls-4" d="M142.62,348.16a1.4,1.4,0,0,0,1.16-.57,8.43,8.43,0,0,0,.69-1.15,5.37,5.37,0,0,1,.57-.8,3,3,0,0,1,.73-.64,2.78,2.78,0,0,1,2.44,0,7.8,7.8,0,0,1,2.07,1.43"/><path class="cls-4" d="M154.31,343.51l.49-.9a3.57,3.57,0,0,1,1.67-1.83,4.81,4.81,0,0,1,2.06,0,2,2,0,0,0,1.88-.61"/><path class="cls-4" d="M148.64,342.08a5.74,5.74,0,0,0-6.82,2.09"/><path class="cls-4" d="M152.54,340.1a5.34,5.34,0,0,1,4.35-2.83"/><path class="cls-4" d="M154.88,352.42a18.93,18.93,0,0,0,1.55-1.6,1.26,1.26,0,0,0,.28-.45c.12-.42-.19-.84-.48-1.16l-1.55-1.74"/><path class="cls-4" d="M155,359.49a6.59,6.59,0,0,1,1.54.11,3.35,3.35,0,0,0,.53.14c.69.07,1.24-.65,1.34-1.34a19.05,19.05,0,0,0-.07-2.09c0-.59.19-1.17.14-1.76a.76.76,0,0,0-.15-.46c-.21-.24-.6-.18-.9-.09a15.81,15.81,0,0,0-5.53,3.62.46.46,0,0,0-.15.19c-.13.42.84,1.05,1.16,1.22A5.15,5.15,0,0,0,155,359.49Z"/><path class="cls-13" d="M158.6,359.76a2.63,2.63,0,0,1-1.9.78,6,6,0,0,1-2.06-.4c-.51-.17-1-.37-1.52-.58A4.39,4.39,0,0,1,152,359a1.58,1.58,0,0,1-.62-1,9.48,9.48,0,0,0,2.5.86,5.93,5.93,0,0,0,3.48-.27c.38-.17.87-.64,1.29-.35S158.94,359.39,158.6,359.76Z"/><path class="cls-13" d="M158.5,353.19a6.14,6.14,0,0,0-4.08,1.36,18.24,18.24,0,0,0-3,3.16c-.06.07-.12.16-.07.24s.15.07.24.05c1.36-.26,2.45-1.26,3.62-2a9.24,9.24,0,0,1,3.1-1.24C159.17,354.58,159.9,353.3,158.5,353.19Z"/><ellipse class="cls-7" cx="147.13" cy="346.06" rx="1.02" ry="1.29" transform="translate(-180.7 161.85) rotate(-37.64)"/><ellipse class="cls-7" cx="157.1" cy="341.92" rx="1.02" ry="1.29" transform="translate(-176.1 167.08) rotate(-37.64)"/><path class="cls-2" d="M231.72,233.52c-.06-.18-.32-.15-.61-.15l-.63,0,.36-1c.05-.14-.59-.71-.82-.57a5.13,5.13,0,0,0-.78,1.62,6.93,6.93,0,0,0-1.37.24v-.07c.08-.42-.51-.71-.88-.75-.12,0-.24,0-.31.09a32.28,32.28,0,0,0-2.19,4.29h-.05a29.9,29.9,0,0,1,.9-3.75c.07-.33-.23-.38-.4-.4-.67-.06-1.2,1.69-1.51,3.87a.15.15,0,0,0,0,.08c-.08.87-1.08,2.44-2.13,2.34-.69-.07-.9-.55-.84-1.17a5.87,5.87,0,0,1,.41-1.74.88.88,0,0,0,.74.63c1.08.1,1.7-1.38,1.86-3.07.11-1.21-.45-1.67-1-1.71-1.2-.11-2.65,3.17-2.86,5.37,0,.12,0,.23,0,.35a.19.19,0,0,0-.22-.09l-.12,0c-.48-.82-1.17-1.8-1.69-2.52a2.69,2.69,0,0,0,2.79-2.53,3.17,3.17,0,0,0-2.75-3.16,1.55,1.55,0,0,1,.09-.26,1.12,1.12,0,0,0-.67-.34c-.36,0-.31.18-.36.34a1.62,1.62,0,0,0-.07.21,2.49,2.49,0,0,0-2.33,1.38c0,.2.68.69.8.7a.1.1,0,0,0,.08,0,2,2,0,0,1,1.16-1.11c-.6,2.11-1.68,6.4-2.12,8.49a1.86,1.86,0,0,0,.85.4c.21,0,.37-.3.48-.74s0-.47,0-.71l.64-2.73h0c.69.85,2.24,3.34,2.9,4.4a1.53,1.53,0,0,0,.7-.37.24.24,0,0,0,.05-.1,1.92,1.92,0,0,0,1.55,1.17,2,2,0,0,0,1.86-1c.06.47.23.77.61.81a.65.65,0,0,0,.47-.15,14,14,0,0,1,1.69-4.54l.16,0a19.54,19.54,0,0,0-.6,2.58c-.1,1.07.06,2,1,2.13a1.59,1.59,0,0,0,1.47-.88,1.62,1.62,0,0,0,1.33,1.26,2.44,2.44,0,0,0,2.28-1.73c.07-.79-.41-.72-.41-.72a2.28,2.28,0,0,1-2.05,1.46c-.28,0-.4-.25-.37-.59.19-2,.35-2.08,1.3-4.68a16.6,16.6,0,0,1,2,0,.17.17,0,0,0,.22-.18,1.43,1.43,0,0,0-.24-.46C231.92,233.58,231.79,233.72,231.72,233.52Zm-9.54-.24c.1-.18.17-.22.23-.22s.16.08.1.64c-.11,1.21-.66,2.67-1.14,2.62-.27,0-.31-.36-.31-.36A11.48,11.48,0,0,1,222.18,233.28Zm-4.77-2.74h.24a1.73,1.73,0,0,1,1.72,1.89c-.16,1.7-1.43,2.3-3,2.12C216.73,233.09,217.13,231.57,217.41,230.54Zm10.53,7.69a3.49,3.49,0,0,0,0,.37c-.16.35-.47.88-.86.84s-.52-.38-.46-1.05a26,26,0,0,1,1.17-4.26c.09.23.3.48.51.46l.61-.08A21.08,21.08,0,0,0,227.94,238.24Z"/><path class="cls-2" d="M239.52,238.87c-.17.78-.43,1.62-1.12,1.56-.45,0-.52-.46-.46-1.07a16.29,16.29,0,0,1,1.11-3.82c.11-.3-.41-.36-.52-.41a1.05,1.05,0,0,0,0-.14c0-.4-.3-1-1.2-1.1-1.58-.15-2.9,2.12-3.13,4.51-.15,1.61.49,2.68,1.47,2.77a1.65,1.65,0,0,0,1.49-.83h.07a1,1,0,0,0,.87,1c1,.09,1.68-1.34,1.75-2A.34.34,0,0,0,239.52,238.87Zm-3.87,1.39c-.34,0-.44-.36-.37-1.18.13-1.38,1-4.48,2-4.39.25,0,.22.34.21.46a2.28,2.28,0,0,1-.57,1.28,1.28,1.28,0,0,0,.58.35C237.44,237.25,236.43,240.33,235.65,240.26Z"/><path class="cls-2" d="M250.51,240.88l-1.38-1.2h0l-.34-.29a5.69,5.69,0,0,1-.43.37,3.2,3.2,0,0,1-.53.34,2.2,2.2,0,0,1-.62.2,2.77,2.77,0,0,1-.72,0,2.26,2.26,0,0,1-1-.3,2.34,2.34,0,0,1-.7-.64,2.65,2.65,0,0,1-.41-.9,3.07,3.07,0,0,1-.08-1.06v0a3,3,0,0,1,.28-1,2.67,2.67,0,0,1,.57-.8,2.35,2.35,0,0,1,.81-.5,2.26,2.26,0,0,1,1-.12,2.38,2.38,0,0,1,1.22.44,3.55,3.55,0,0,1,.8.85l.46-.29h0l1.52-1a5.24,5.24,0,0,0-.58-.78,4.33,4.33,0,0,0-.67-.59h0l-.15-.1a4.56,4.56,0,0,0-1-.51,5.77,5.77,0,0,0-1.31-.27,5.19,5.19,0,0,0-2,.19,4.77,4.77,0,0,0-1.67.89,4.94,4.94,0,0,0-1.74,3.35v0a4.92,4.92,0,0,0,1.09,3.63,4.68,4.68,0,0,0,1.44,1.16,5,5,0,0,0,1.87.54,5.71,5.71,0,0,0,1.43,0,4.76,4.76,0,0,0,1.17-.34l.1,0h0l0,0h0a4.21,4.21,0,0,0,.81-.51A7.13,7.13,0,0,0,250.51,240.88Z"/><path class="cls-2" d="M259,242.46a5.07,5.07,0,0,1-.95-1.72,5,5,0,0,1-.21-2v0a5,5,0,0,1,1.86-3.47l.13-.1,0,0,.09-1-2.66-.25-2.72,3.6-2-4-2.66-.25,0,.3.08.06.08.06.11.09.07.06.11.11.05,0,.15.16a5.44,5.44,0,0,1,.66.9l.05.09-1.6,1-.33,3.52,1.46,1.26-.07.08a7.34,7.34,0,0,1-.84.81l-.19.15-.06,0-.14.09-.08,0-.13.08-.09,0-.1.06,0,.35,2.42.23.54-5.75,2.2,4.19,3-3.73-.55,5.78,2.45.23.09-.94,0,0Z"/><path class="cls-2" d="M268,237.72a4.87,4.87,0,0,0-.91-1.65,5,5,0,0,0-1.51-1.2,5.55,5.55,0,0,0-4-.38,5.17,5.17,0,0,0-1.49.74l0,0-.07,0h0l-.11.08h0a4.83,4.83,0,0,0-1.78,3.33v0a4.78,4.78,0,0,0,.2,1.93,4.86,4.86,0,0,0,.91,1.65h0l.1.1h0l.06.06,0,0a5.08,5.08,0,0,0,1.3,1,5.55,5.55,0,0,0,4,.38,5.12,5.12,0,0,0,1.72-.9,4.82,4.82,0,0,0,1.78-3.33v0A4.78,4.78,0,0,0,268,237.72Zm-2.32,1.75a2.87,2.87,0,0,1-.28,1,2.71,2.71,0,0,1-.6.8,2.44,2.44,0,0,1-.86.51,2.54,2.54,0,0,1-1.07.12,2.47,2.47,0,0,1-1-.32,2.55,2.55,0,0,1-.76-.67,2.73,2.73,0,0,1-.44-.91,2.87,2.87,0,0,1-.09-1v0a3,3,0,0,1,.28-1,2.51,2.51,0,0,1,1.46-1.31,2.62,2.62,0,0,1,2.09.21,2.64,2.64,0,0,1,.76.67,2.67,2.67,0,0,1,.45.91,2.87,2.87,0,0,1,.09,1Z"/></g></svg>