<svg xmlns="http://www.w3.org/2000/svg" width="26" height="26">
    <defs>
        <filter id="a">
            <feFlood flood-color="#FFE600" flood-opacity="1" result="floodOut"/>
            <feComposite in="floodOut" in2="SourceGraphic" operator="atop" result="compOut"/>
            <feBlend in="compOut" in2="SourceGraphic"/>
        </filter>
    </defs>
    <path fill="#FFE600" fill-rule="evenodd" d="M24.749 12.817L13.128 1.196a.92.92 0 0 0-.625-.257.915.915 0 0 0-.623.257L.258 12.817a.885.885 0 0 0 0 1.249.86.86 0 0 0 .624.257.86.86 0 0 0 .624-.257L11.621 3.951v21.111c0 .496.388.883.882.883a.873.873 0 0 0 .883-.883V3.951l10.115 10.115a.885.885 0 0 0 1.248 0c.345-.344.323-.904 0-1.249z" filter="url(#a)"/>
</svg>
